<?xml version="1.0" encoding="utf-8" ?>
<svg xmlns="http://www.w3.org/2000/svg" xmlns:xlink="http://www.w3.org/1999/xlink" width="500" height="500">
	<path fill="#69AA9E" transform="scale(0.488281 0.488281)" d="M-0 -0L1024 0L1024 1024L-0 1024L0 -0Z"/>
	<path fill="#7D1616" transform="scale(0.488281 0.488281)" d="M712.092 671.528L725.986 676.933L788.415 700.219C800.988 705.121 813.913 709.841 825.67 716.516C840.145 724.368 847.853 736.086 852.46 751.75L868.273 815.364L874.685 843.15C875.911 848.209 878.704 855.694 878.643 860.864C853.841 880.708 825.893 897.293 797.776 912.005C783.72 919.359 769.3 926.646 754.566 932.533C700.535 955.554 644.75 971.614 586.439 978.997C588.316 975.996 591.002 973.338 593.232 970.574L604.892 955.475L668.526 870L690.576 840.213C693.821 835.741 697.501 831.315 700.293 826.544C701.032 825.281 701.103 823.96 701.158 822.53C703.059 818.799 703.501 811.848 706.218 808.962C707.215 807.903 708.415 808.269 709.75 808.29L709.924 807.317C710.553 807.633 711.201 808.236 711.75 808.657C712.615 805.134 712.062 800.372 712.057 796.695L712.013 771.805L712.092 671.528Z"/>
	<path fill="#211D23" transform="scale(0.488281 0.488281)" d="M825.67 716.516C840.145 724.368 847.853 736.086 852.46 751.75L868.273 815.364L874.685 843.15C875.911 848.209 878.704 855.694 878.643 860.864C853.841 880.708 825.893 897.293 797.776 912.005C783.72 919.359 769.3 926.646 754.566 932.533C755.382 918.855 758.675 904.572 761.335 891.108C770.537 844.521 784.827 798.547 805.139 755.565L825.67 716.516Z"/>
	<path fill="#211D23" transform="scale(0.488281 0.488281)" d="M413.379 97.6754C429.208 72.518 461.498 55.7324 489.849 49.2985C534.502 39.1649 581.098 49.6678 619.396 74.0502C667.34 104.574 700.794 159.574 715.995 213.418C729.675 220.129 742.458 228.313 755.123 236.75C816.764 277.814 867.578 336.725 899.796 403.387C907.079 418.455 913.087 434.271 918.501 450.096C939.096 510.3 945.118 575.381 936.492 638.399C934.246 654.816 930.667 670.948 926.616 687C920.956 709.423 913.387 732.32 903.185 753.096L868.273 815.364L852.46 751.75C847.853 736.086 840.145 724.368 825.67 716.516C813.913 709.841 800.988 705.121 788.415 700.219L725.986 676.933L712.092 671.528L692.685 663.28L683.529 659.425L658.647 648.172L651.215 645.146C648.029 640.967 645.426 636.245 642.449 631.894C632.274 617.027 621.589 601.489 608.934 588.634C605.033 584.672 601.159 580.751 596.628 577.499L596.556 577.329C595.198 575.786 592.981 574.444 591.295 573.266C588.604 571.385 585.973 569.164 582.868 568.022C582.078 563.519 582.634 558.176 582.663 553.578L582.631 528.853C583.539 523.662 582.857 517.235 582.906 511.912C582.996 502.269 583.483 493.022 584.865 483.468C589.577 477.877 595.254 473.037 600.027 467.449C620.559 443.411 634.285 415.934 639.182 384.515L642.187 360.571L642.844 358.143C643.24 354.193 642.579 349.955 642.152 346.01C641.41 339.142 640.496 332.375 640.464 325.453C640.418 315.288 642.882 305.335 642.919 295.25C642.931 292.149 642.407 288.981 641.961 285.918C641.67 285.448 641.188 284.657 640.75 284.326C639.001 283.005 633.116 282.444 630.835 281.803C625.457 280.292 620.428 277.738 615.095 276.262C612.703 274.571 609.616 273.404 607 272.033C603.449 270.173 600.027 267.92 596.664 265.735C576.656 252.741 560.41 235.519 546.642 216.157L535.112 198.258L528.584 186.839C527.208 184.289 525.824 180.707 523.578 178.877L523.952 177.961C523.399 175.124 521.62 172.216 520.338 169.636C514.702 158.291 506.434 145.243 495.958 137.803C492.265 135.18 488.671 132.863 484.301 131.498C476.02 128.91 466.62 129.678 458.968 133.781C445.753 140.869 438.968 154.808 434.772 168.49C432.611 166.395 430.375 164.106 428.614 161.656C419.605 149.126 415.668 134.172 413.875 119.05C413.12 112.678 412.619 106.538 413.588 100.163C413.707 99.3838 413.766 99.0315 413.572 98.2118L413.379 97.6754Z"/>
	<path fill="#000001" transform="scale(0.488281 0.488281)" d="M641.961 285.918L642.765 284.843C659.467 286.808 674.916 288.501 691.632 285.179C696.269 284.257 700.677 282.54 705.245 281.565C701.269 285.072 696.64 287.727 691.867 290.001L679.771 295.276C677.703 296.142 674.646 297.063 673.136 298.727C666.833 302.037 664.287 308.765 661.157 314.791C656.829 323.444 652.887 332.676 649.512 341.75L645.165 354.954C644.716 356.376 644.27 358.415 643.173 359.471L642.844 358.143C643.24 354.193 642.579 349.955 642.152 346.01C641.41 339.142 640.496 332.375 640.464 325.453C640.418 315.288 642.882 305.335 642.919 295.25C642.931 292.149 642.407 288.981 641.961 285.918Z"/>
	<path fill="#000001" transform="scale(0.488281 0.488281)" d="M509.919 93.0636C515.738 93.8152 521.701 96.339 527.036 98.6921C555.945 111.443 578.761 133.123 604.116 151.337C628.738 169.024 661.066 187 692.505 181.819L686.118 184.785C676.866 189.534 663.085 190.609 652.873 189.19C644.06 187.965 635.843 185.979 627.672 182.332C603.979 171.755 584.909 152.345 566.305 134.782C555.459 124.544 544.342 114.603 532.413 105.628C525.247 100.236 517.52 97.4363 509.919 93.0636Z"/>
	<path fill="#000001" transform="scale(0.488281 0.488281)" d="M520.054 134.25C522.199 134.924 525.284 138.556 526.957 140.213L542.285 155.471L561.452 172.75C593.13 200.977 632.171 229.766 675.603 234.985C681.069 235.642 686.472 235.538 691.964 235.456L685.198 238.65C680.433 240.487 675.991 241.695 671 242.637C659.356 244.836 646.679 243.998 635.25 240.988C610.637 234.503 589.868 220.063 573.041 201.175C560.981 187.636 550.956 172.788 540.047 158.382L528.032 143.731C525.429 140.769 522.026 137.634 520.054 134.25Z"/>
	<path fill="#E0AA73" transform="scale(0.488281 0.488281)" d="M673.136 298.727C677.399 300.161 679.291 302.307 681.235 306.283C685.676 315.365 686.69 325.214 685.598 335.193C684.826 349.3 679.966 363.616 669.275 373.275C665.933 376.293 661.175 378.977 658.281 382.25L658.197 384.292C656.868 387.399 655.359 389.54 652.106 390.792C649.87 391.652 647.028 391.801 644.829 390.756C642.561 389.679 640.834 387.601 640.13 385.189L639.933 384.441L639.182 384.515L642.187 360.571L642.844 358.143L643.173 359.471C644.27 358.415 644.716 356.376 645.165 354.954L649.512 341.75C652.887 332.676 656.829 323.444 661.157 314.791C664.287 308.765 666.833 302.037 673.136 298.727Z"/>
	<path fill="#FCF2DF" transform="scale(0.488281 0.488281)" d="M639.933 384.441C639.958 382.695 640.31 380.903 641.391 379.481C642.872 377.533 644.85 375.736 647.389 375.462C650.314 375.147 652.822 375.605 655.099 377.526C657.357 379.43 658.013 381.424 658.197 384.292C656.868 387.399 655.359 389.54 652.106 390.792C649.87 391.652 647.028 391.801 644.829 390.756C642.561 389.679 640.834 387.601 640.13 385.189L639.933 384.441Z"/>
	<path fill="#BD764F" transform="scale(0.488281 0.488281)" d="M661.157 314.791C663.711 315.247 666.033 315.556 668.25 317.001L668.783 317.343C670.936 318.786 671.99 320.521 672.554 323L672.691 323.557C674.365 330.841 669.96 338.875 666.142 344.772C661.593 351.797 654.982 360.139 647.364 363.791L644 360.476L642.187 360.571L642.844 358.143L643.173 359.471C644.27 358.415 644.716 356.376 645.165 354.954L649.512 341.75C652.887 332.676 656.829 323.444 661.157 314.791Z"/>
	<path fill="#000001" transform="scale(0.488281 0.488281)" d="M685.598 335.193L686.24 334.119L686.804 334.25C687.488 341.442 687.257 348.882 687.344 356.111C687.609 378.127 686.43 400.323 690.076 422.138C691.702 431.873 694.737 441.567 698.317 450.75C704.351 466.228 713.601 479.792 726.466 490.467C731.734 494.84 737.705 497.469 743.294 501.221C727.964 497.823 710.611 491.821 698.264 481.847C691.574 476.441 685.689 469.25 681.071 462.011C674.781 452.153 671.015 441.485 667.234 430.52C666.185 427.478 665.499 424.18 664.24 421.25C664.079 424.501 664.956 427.906 665.567 431.101L668.543 446.389C672.671 466.944 679.218 486.659 688.34 505.546L703.519 534.75C707.601 541.931 712.678 549.038 715.79 556.688C730.805 593.587 719.563 635.083 692.685 663.28L683.529 659.425L658.647 648.172L651.215 645.146C648.029 640.967 645.426 636.245 642.449 631.894C632.274 617.027 621.589 601.489 608.934 588.634C605.033 584.672 601.159 580.751 596.628 577.499L596.556 577.329C595.198 575.786 592.981 574.444 591.295 573.266C588.604 571.385 585.973 569.164 582.868 568.022C582.078 563.519 582.634 558.176 582.663 553.578L582.631 528.853C583.539 523.662 582.857 517.235 582.906 511.912C582.996 502.269 583.483 493.022 584.865 483.468C589.577 477.877 595.254 473.037 600.027 467.449C620.559 443.411 634.285 415.934 639.182 384.515L639.933 384.441L640.13 385.189C640.834 387.601 642.561 389.679 644.829 390.756C647.028 391.801 649.87 391.652 652.106 390.792C655.359 389.54 656.868 387.399 658.197 384.292L658.281 382.25C661.175 378.977 665.933 376.293 669.275 373.275C679.966 363.616 684.826 349.3 685.598 335.193Z"/>
	<path fill="#211D23" transform="scale(0.488281 0.488281)" d="M658.647 648.172C669.489 640.585 674.927 631.798 677.286 618.786C681.893 593.382 672.952 565.326 662.359 542.404C681.647 565.799 696.636 595.105 693.512 626.182C692.357 637.671 688.765 649.135 683.529 659.425L658.647 648.172Z"/>
	<path fill="#DAA846" transform="scale(0.488281 0.488281)" d="M715.995 213.418C729.675 220.129 742.458 228.313 755.123 236.75C816.764 277.814 867.578 336.725 899.796 403.387C907.079 418.455 913.087 434.271 918.501 450.096C939.096 510.3 945.118 575.381 936.492 638.399C934.246 654.816 930.667 670.948 926.616 687C920.956 709.423 913.387 732.32 903.185 753.096L868.273 815.364L852.46 751.75C847.853 736.086 840.145 724.368 825.67 716.516C813.913 709.841 800.988 705.121 788.415 700.219L725.986 676.933C742.855 663.567 757.857 649.87 766.644 629.708C777.183 605.525 774.471 578.067 765.069 553.957C771.239 561.58 776.011 570.785 779.336 580.005C787.665 603.107 787.551 627.41 778.47 650.25C776.433 655.372 773.589 660.09 771.258 665.077C778.835 655.683 785.484 645.92 790.939 635.135C796.81 623.526 801.009 611.24 802.322 598.25C805.071 571.042 795.064 542.611 778.178 521.521C776.095 518.919 773.874 516.458 771.463 514.154C769.828 512.59 763.808 508.704 763.25 507.013C769.592 510.425 775.678 515.221 781.264 519.764C789.519 526.478 797.307 533.394 804.09 541.644C816.341 556.544 825.852 576.293 827.451 595.717C827.909 601.278 827.493 606.906 826.941 612.434C828.354 609.196 828.813 605.595 829.423 602.139C830.282 597.279 831.162 592.352 831.482 587.421L831.748 575.823C831.393 548.618 822.661 525.037 805.644 503.784C788.531 482.411 766.28 465.648 748.93 444.535C739.553 433.124 731.911 420.124 727.113 406.125C724.494 398.486 722.242 390.431 721.504 382.366C720.632 372.84 721.869 363.135 722.595 353.639L725.921 304.6C726.645 280.757 725.304 256.738 721.006 233.25C719.799 226.654 717.725 219.908 715.995 213.418Z"/>
	<path fill="#7D1616" transform="scale(0.488281 0.488281)" d="M584.865 483.468C583.483 493.022 582.996 502.269 582.906 511.912C582.857 517.235 583.539 523.662 582.631 528.853L582.663 553.578C582.634 558.176 582.078 563.519 582.868 568.022C585.973 569.164 588.604 571.385 591.295 573.266C592.981 574.444 595.198 575.786 596.556 577.329L596.628 577.499C601.159 580.751 605.033 584.672 608.934 588.634C621.589 601.489 632.274 617.027 642.449 631.894C645.426 636.245 648.029 640.967 651.215 645.146L658.647 648.172L683.529 659.425L692.685 663.28L712.092 671.528L712.013 771.805L712.057 796.695C712.062 800.372 712.615 805.134 711.75 808.657C711.201 808.236 710.553 807.633 709.924 807.317L709.75 808.29C708.415 808.269 707.215 807.903 706.218 808.962C703.501 811.848 703.059 818.799 701.158 822.53C701.103 823.96 701.032 825.281 700.293 826.544C697.501 831.315 693.821 835.741 690.576 840.213L668.526 870L604.892 955.475L593.232 970.574C591.002 973.338 588.316 975.996 586.439 978.997L529.423 983.778C524.549 983.966 518.227 984.725 513.455 983.831L512.217 984.269L435.379 978.748C396.93 973.605 359.41 965.505 322.585 953.125C305.139 947.26 288.136 940.212 271.268 932.871C267.352 931.533 263.442 929.29 259.672 927.515L232.378 913.978L143.671 858.775L154.166 816.563L167.431 762.861C169.023 756.697 170.131 748.595 173.626 743.25C179.448 734.344 188.739 727.169 196.883 720.471C197.473 719.369 200.049 717.64 201.067 716.86C212.097 708.421 224.333 704.438 237.175 699.553L276.374 684.825C281.011 683.025 285.936 681.522 290.371 679.286C292.515 679.047 294.827 677.886 296.854 677.109L308.511 672.661L340.316 660.322L380.287 645.527C383.627 640.408 386.196 634.723 389.444 629.5C403.537 606.83 420.558 583.805 441.827 567.423L442.1 563.316L442.003 487.854C446.074 490.772 449.789 494.337 453.61 497.583L471.891 512.666C482.841 521.538 491.78 528.398 506.509 529.11C514.71 529.507 523.928 528.464 531.526 525.221C540.86 521.236 548.782 513.763 556.588 507.389L584.865 483.468Z"/>
	<path fill="#000001" transform="scale(0.488281 0.488281)" d="M207.796 734.806C211.092 739.571 213.685 744.948 216.401 750.063C233.257 781.81 244.514 817.051 252.501 852L261.325 895.434L268.042 920.5C269.161 924.46 270.804 928.78 271.268 932.871C267.352 931.533 263.442 929.29 259.672 927.515L232.378 913.978C232.541 904.571 234.438 894.994 234.848 885.523C236.351 850.851 233.814 816.388 224.647 782.812C221.837 772.517 218.565 762.091 214.417 752.25L208.993 740.431C208.618 739.61 207.265 737.301 207.229 736.5C207.202 735.905 207.607 735.371 207.796 734.806Z"/>
	<path fill="#B62527" transform="scale(0.488281 0.488281)" d="M340.316 660.322L380.287 645.527L358.461 699.8L339.932 755.285C336.435 766.46 331.91 777.919 329.683 789.404L328.764 792.443C325.882 799.124 323.954 806.468 322.222 813.532L308.511 672.661L340.316 660.322Z"/>
	<path fill="#211D23" transform="scale(0.488281 0.488281)" d="M196.883 720.471C201.6 724.26 204.639 729.614 207.808 734.703L207.796 734.806C207.607 735.371 207.202 735.905 207.229 736.5C207.265 737.301 208.618 739.61 208.993 740.431L214.417 752.25C218.565 762.091 221.837 772.517 224.647 782.812C233.814 816.388 236.351 850.851 234.848 885.523C234.438 894.994 232.541 904.571 232.378 913.978L143.671 858.775L154.166 816.563L167.431 762.861C169.023 756.697 170.131 748.595 173.626 743.25C179.448 734.344 188.739 727.169 196.883 720.471Z"/>
	<path fill="#0C3F41" transform="scale(0.488281 0.488281)" d="M442.1 563.316L442.426 563.348C442.405 568.54 443.406 602.914 442.306 604.691C436.56 613.979 438.859 623.88 441.315 633.849L445.112 646.945L464.631 699.61L485.182 755.113C494.624 780.608 504.215 806.423 509.679 833.123C511.185 836.873 511.682 841.598 511.755 845.634L511.309 846.177L510.315 845.554C507.135 844.028 505.197 838.679 503.429 835.67C499.484 828.958 494.99 823.003 490.497 816.684C484.126 807.725 477.384 798.41 469.94 790.323C461.976 781.671 453.363 774.888 443.159 769.061C439.212 766.807 427.841 761.093 423.363 762.333L423.123 762.171L414.668 741.422C407.072 744.342 399.81 748.964 392.808 753.086L358.364 774.436C350.014 779.908 341.887 785.786 333.25 790.804C331.856 791.613 330.362 792.795 328.764 792.443L329.683 789.404C331.91 777.919 336.435 766.46 339.932 755.285L358.461 699.8L380.287 645.527C383.627 640.408 386.196 634.723 389.444 629.5C403.537 606.83 420.558 583.805 441.827 567.423L442.1 563.316Z"/>
	<path fill="#14856D" transform="scale(0.488281 0.488281)" d="M329.683 789.404C335.271 783.905 340.131 778.102 346.276 773.121C361.902 760.456 379.488 750.461 396.896 740.513C401.514 737.873 406.164 734.479 411.155 732.631C412.808 732.019 414.493 731.93 416.234 731.953C421.007 732.014 425.756 733.567 430.178 735.266C444.044 740.594 455.877 749.196 466.093 759.861C474.626 768.768 480.831 779.259 486.953 789.875L501.773 816.585L507.181 828.046C507.989 829.744 508.531 831.603 509.679 833.123C511.185 836.873 511.682 841.598 511.755 845.634L511.309 846.177L510.315 845.554C507.135 844.028 505.197 838.679 503.429 835.67C499.484 828.958 494.99 823.003 490.497 816.684C484.126 807.725 477.384 798.41 469.94 790.323C461.976 781.671 453.363 774.888 443.159 769.061C439.212 766.807 427.841 761.093 423.363 762.333L423.123 762.171L414.668 741.422C407.072 744.342 399.81 748.964 392.808 753.086L358.364 774.436C350.014 779.908 341.887 785.786 333.25 790.804C331.856 791.613 330.362 792.795 328.764 792.443L329.683 789.404Z"/>
	<path fill="#F8CA9A" transform="scale(0.488281 0.488281)" d="M414.668 741.422C420.32 741.781 425.802 743.62 431.067 745.617C445.044 750.921 457.412 758.45 467.341 769.75C481.174 785.494 491.624 804.843 500.71 823.655C504.155 830.788 507.768 838.044 510.315 845.554C507.135 844.028 505.197 838.679 503.429 835.67C499.484 828.958 494.99 823.003 490.497 816.684C484.126 807.725 477.384 798.41 469.94 790.323C461.976 781.671 453.363 774.888 443.159 769.061C439.212 766.807 427.841 761.093 423.363 762.333L423.123 762.171L414.668 741.422Z"/>
	<path fill="#0C3F41" transform="scale(0.488281 0.488281)" d="M584.865 483.468C583.483 493.022 582.996 502.269 582.906 511.912C582.857 517.235 583.539 523.662 582.631 528.853L582.663 553.578C582.634 558.176 582.078 563.519 582.868 568.022C585.973 569.164 588.604 571.385 591.295 573.266C592.981 574.444 595.198 575.786 596.556 577.329L596.628 577.499C601.159 580.751 605.033 584.672 608.934 588.634C621.589 601.489 632.274 617.027 642.449 631.894C645.426 636.245 648.029 640.967 651.215 645.146L658.647 648.172L683.529 659.425L692.685 663.28L712.092 671.528L712.013 771.805L712.057 796.695C712.062 800.372 712.615 805.134 711.75 808.657C711.201 808.236 710.553 807.633 709.924 807.317C705.239 802.98 700.208 798.475 696.169 793.537L679.519 779.36C673.466 774.659 667.134 770.776 660.585 766.825C650.476 760.725 640.074 754.824 628.877 750.934C623.805 749.173 618.594 748.14 613.357 747.008L608.532 758.009L608.335 758.607C584.332 762.765 562.205 780.436 548.4 799.941L539.402 813.396C537.617 816.308 535.913 820.398 533.554 822.813C531.476 827.922 528.636 832.325 526.118 837.187C524.951 839.443 522.978 845.192 520.983 846.495L519.579 846.467L518.096 846.405C515.863 846.399 513.512 846.544 511.309 846.177L511.755 845.634C511.682 841.598 511.185 836.873 509.679 833.123C504.215 806.423 494.624 780.608 485.182 755.113L464.631 699.61L445.112 646.945L441.315 633.849C438.859 623.88 436.56 613.979 442.306 604.691C443.406 602.914 442.405 568.54 442.426 563.348L442.1 563.316L442.003 487.854C446.074 490.772 449.789 494.337 453.61 497.583L471.891 512.666C482.841 521.538 491.78 528.398 506.509 529.11C514.71 529.507 523.928 528.464 531.526 525.221C540.86 521.236 548.782 513.763 556.588 507.389L584.865 483.468Z"/>
	<path fill="#14856D" transform="scale(0.488281 0.488281)" d="M523.494 829.61C527.757 815.267 534.615 801.95 542.564 789.337C550.539 776.684 559.05 765.349 569.583 754.692C573.548 750.68 577.418 746.519 582.087 743.31C591.167 737.068 601.013 732.907 612.244 734.777C634.773 738.529 656.047 750.956 675.182 762.95C681.445 766.876 687.663 771.298 694.126 774.855L696.169 793.537L679.519 779.36C673.466 774.659 667.134 770.776 660.585 766.825C650.476 760.725 640.074 754.824 628.877 750.934C623.805 749.173 618.594 748.14 613.357 747.008L608.532 758.009L608.335 758.607C584.332 762.765 562.205 780.436 548.4 799.941L539.402 813.396C537.617 816.308 535.913 820.398 533.554 822.813C531.476 827.922 528.636 832.325 526.118 837.187C524.951 839.443 522.978 845.192 520.983 846.495L519.579 846.467C520.495 845.394 520.857 844.423 521.308 843.12C521.234 841.959 521.183 840.887 521.451 839.746L523.494 829.61Z"/>
	<path fill="#F8CA9A" transform="scale(0.488281 0.488281)" d="M529.638 824.562C532.137 817.706 535.668 811.059 539.103 804.621C548.817 786.414 562.489 764.578 580.617 753.791C589.483 748.516 603.112 744.445 613.357 747.008L608.532 758.009L608.335 758.607C584.332 762.765 562.205 780.436 548.4 799.941L539.402 813.396C537.617 816.308 535.913 820.398 533.554 822.813C531.476 827.922 528.636 832.325 526.118 837.187C524.951 839.443 522.978 845.192 520.983 846.495L519.579 846.467C520.495 845.394 520.857 844.423 521.308 843.12C524.879 837.524 526.467 830.449 529.638 824.562Z"/>
	<path fill="#B62527" transform="scale(0.488281 0.488281)" d="M651.215 645.146L658.647 648.172L683.529 659.425L692.685 663.28L712.092 671.528L712.013 771.805L712.057 796.695C712.062 800.372 712.615 805.134 711.75 808.657C711.201 808.236 710.553 807.633 709.924 807.317C705.239 802.98 700.208 798.475 696.169 793.537L694.126 774.855C693.947 767.953 692.4 760.73 691.155 753.929C686.134 726.503 678.625 699.738 666.576 674.503L658.929 659.574C656.404 655.097 652.562 650.106 651.215 645.146Z"/>
	<path fill="#F8CA9A" transform="scale(0.488281 0.488281)" d="M445.112 646.945C449.603 647.062 454.913 650.342 459.161 651.984C464.795 654.162 470.534 656.225 476.366 657.805C487.355 660.783 500.368 663.805 511.75 663.94C528.591 664.141 547.791 659.362 563.642 653.963C570.409 651.658 577.019 647.504 583.8 645.708L584.339 645.571L547.919 749.412L529.421 799.198C526.048 809.503 523.543 819.962 521.18 830.536L523.494 829.61L521.451 839.746C521.183 840.887 521.234 841.959 521.308 843.12C520.857 844.423 520.495 845.394 519.579 846.467L518.096 846.405C515.863 846.399 513.512 846.544 511.309 846.177L511.755 845.634C511.682 841.598 511.185 836.873 509.679 833.123C504.215 806.423 494.624 780.608 485.182 755.113L464.631 699.61L445.112 646.945Z"/>
	<path fill="#1C5A4B" transform="scale(0.488281 0.488281)" d="M523.494 829.61L521.451 839.746C521.183 840.887 521.234 841.959 521.308 843.12C520.857 844.423 520.495 845.394 519.579 846.467L518.096 846.405L521.18 830.536L523.494 829.61Z"/>
	<path fill="#E0AA73" transform="scale(0.488281 0.488281)" d="M584.865 483.468C583.483 493.022 582.996 502.269 582.906 511.912C582.857 517.235 583.539 523.662 582.631 528.853L582.663 553.578C582.634 558.176 582.078 563.519 582.868 568.022C585.973 569.164 588.604 571.385 591.295 573.266C592.981 574.444 595.198 575.786 596.556 577.329L596.628 577.499L596.611 577.977C596.573 579.258 596.614 580.46 596.744 581.733C597.864 592.651 596.875 604.748 592.836 614.994L591.222 620.402C591.052 621.117 590.92 621.506 590.517 622.105C590.924 629.4 586.575 638.533 584.339 645.571L583.8 645.708C577.019 647.504 570.409 651.658 563.642 653.963C547.791 659.362 528.591 664.141 511.75 663.94C500.368 663.805 487.355 660.783 476.366 657.805C470.534 656.225 464.795 654.162 459.161 651.984C454.913 650.342 449.603 647.062 445.112 646.945L441.315 633.849C438.859 623.88 436.56 613.979 442.306 604.691C443.406 602.914 442.405 568.54 442.426 563.348L442.1 563.316L442.003 487.854C446.074 490.772 449.789 494.337 453.61 497.583L471.891 512.666C482.841 521.538 491.78 528.398 506.509 529.11C514.71 529.507 523.928 528.464 531.526 525.221C540.86 521.236 548.782 513.763 556.588 507.389L584.865 483.468Z"/>
	<path fill="#000001" transform="scale(0.488281 0.488281)" d="M584.138 603.574C587.733 604.864 589.912 608.685 591.498 612L592.836 614.994L591.222 620.402C591.052 621.117 590.92 621.506 590.517 622.105C589.184 615.512 587.355 609.52 584.138 603.574Z"/>
	<path fill="#0E2F31" transform="scale(0.488281 0.488281)" d="M582.868 568.022C585.973 569.164 588.604 571.385 591.295 573.266C592.981 574.444 595.198 575.786 596.556 577.329L596.628 577.499L596.611 577.977C596.573 579.258 596.614 580.46 596.744 581.733C597.864 592.651 596.875 604.748 592.836 614.994L591.498 612C589.912 608.685 587.733 604.864 584.138 603.574L583.603 603.228C582.404 600.139 583.022 595.672 583.035 592.372C583.066 584.289 583.451 576.085 582.868 568.022Z"/>
	<path fill="#C3513D" transform="scale(0.488281 0.488281)" d="M584.865 483.468C583.483 493.022 582.996 502.269 582.906 511.912C582.857 517.235 583.539 523.662 582.631 528.853C568.475 544.785 536.619 584.841 515.25 585.999C512.43 586.152 509.722 585.84 506.988 585.158L506.301 584.994C498.501 582.994 490.551 576.751 484.425 571.75C469.071 559.214 456.175 544.841 442.537 530.561C441.977 533.172 442.364 536.366 442.375 539.053C442.406 546.993 443.05 555.473 442.426 563.348L442.1 563.316L442.003 487.854C446.074 490.772 449.789 494.337 453.61 497.583L471.891 512.666C482.841 521.538 491.78 528.398 506.509 529.11C514.71 529.507 523.928 528.464 531.526 525.221C540.86 521.236 548.782 513.763 556.588 507.389L584.865 483.468Z"/>
	<path fill="#B62527" transform="scale(0.488281 0.488281)" d="M613.357 747.008C618.594 748.14 623.805 749.173 628.877 750.934C640.074 754.824 650.476 760.725 660.585 766.825C667.134 770.776 673.466 774.659 679.519 779.36L696.169 793.537C700.208 798.475 705.239 802.98 709.924 807.317L709.75 808.29C708.415 808.269 707.215 807.903 706.218 808.962C703.501 811.848 703.059 818.799 701.158 822.53C701.103 823.96 701.032 825.281 700.293 826.544C697.501 831.315 693.821 835.741 690.576 840.213L668.526 870L604.892 955.475L593.232 970.574C591.002 973.338 588.316 975.996 586.439 978.997L529.423 983.778C524.549 983.966 518.227 984.725 513.455 983.831L512.217 984.269L435.379 978.748C432.267 973.255 427.826 968.196 424.099 963.076L403.369 934.278L386.239 909.835L347.81 856.189L335.359 838.701C331.266 833.196 326.801 827.737 323.121 821.956C322.664 821.236 322.5 821.3 322.693 820.463L363.08 788.728L380.5 775.053C383.897 772.44 387.392 769.514 391.161 767.464C396.505 764.556 402.533 763.286 408.5 762.388C413.264 761.671 418.311 762.087 423.123 762.171L423.363 762.333C427.841 761.093 439.212 766.807 443.159 769.061C453.363 774.888 461.976 781.671 469.94 790.323C477.384 798.41 484.126 807.725 490.497 816.684C494.99 823.003 499.484 828.958 503.429 835.67C505.197 838.679 507.135 844.028 510.315 845.554L511.309 846.177C513.512 846.544 515.863 846.399 518.096 846.405L519.579 846.467L520.983 846.495C522.978 845.192 524.951 839.443 526.118 837.187C528.636 832.325 531.476 827.922 533.554 822.813C535.913 820.398 537.617 816.308 539.402 813.396L548.4 799.941C562.205 780.436 584.332 762.765 608.335 758.607L608.532 758.009L613.357 747.008Z"/>
	<path fill="#F8CA9A" transform="scale(0.488281 0.488281)" d="M467.073 874.325L487.688 876.246L536.584 877.315C544.019 877.11 552.115 877.048 559.396 875.381L513.455 983.831L512.217 984.269L467.073 874.325Z"/>
	<path fill="#FCF2DF" transform="scale(0.488281 0.488281)" d="M533.554 822.813C535.913 820.398 537.617 816.308 539.402 813.396L548.4 799.941C562.205 780.436 584.332 762.765 608.335 758.607L559.396 875.381C552.115 877.048 544.019 877.11 536.584 877.315L487.688 876.246L467.073 874.325L423.363 762.333C427.841 761.093 439.212 766.807 443.159 769.061C453.363 774.888 461.976 781.671 469.94 790.323C477.384 798.41 484.126 807.725 490.497 816.684C494.99 823.003 499.484 828.958 503.429 835.67C505.197 838.679 507.135 844.028 510.315 845.554L511.309 846.177C513.512 846.544 515.863 846.399 518.096 846.405L519.579 846.467L520.983 846.495C522.978 845.192 524.951 839.443 526.118 837.187C528.636 832.325 531.476 827.922 533.554 822.813Z"/>
	<path fill="#B62527" transform="scale(0.488281 0.488281)" d="M613.357 747.008C618.594 748.14 623.805 749.173 628.877 750.934C640.074 754.824 650.476 760.725 660.585 766.825C667.134 770.776 673.466 774.659 679.519 779.36L696.169 793.537C700.208 798.475 705.239 802.98 709.924 807.317L709.75 808.29C708.415 808.269 707.215 807.903 706.218 808.962C703.501 811.848 703.059 818.799 701.158 822.53C701.103 823.96 701.032 825.281 700.293 826.544C697.501 831.315 693.821 835.741 690.576 840.213L668.526 870L604.892 955.475L593.232 970.574C591.002 973.338 588.316 975.996 586.439 978.997L529.423 983.778C524.549 983.966 518.227 984.725 513.455 983.831L559.396 875.381L608.335 758.607L608.532 758.009L613.357 747.008Z"/>
	<path fill="#58060A" transform="scale(0.488281 0.488281)" d="M613.357 747.008C618.594 748.14 623.805 749.173 628.877 750.934C640.074 754.824 650.476 760.725 660.585 766.825C667.134 770.776 673.466 774.659 679.519 779.36L696.169 793.537C700.208 798.475 705.239 802.98 709.924 807.317L709.75 808.29C708.415 808.269 707.215 807.903 706.218 808.962C703.501 811.848 703.059 818.799 701.158 822.53L700.769 821.949C687.716 802.742 667.752 786.049 648.612 773.25C642.189 768.955 635.334 764.388 628.029 761.741C624.083 760.311 620.083 759.368 615.921 758.852C613.751 758.583 611.496 758.646 609.36 758.196L608.532 758.009L613.357 747.008Z"/>
	<path fill="#000001" transform="scale(0.488281 0.488281)" d="M413.379 97.6754L413.572 98.2118C413.766 99.0315 413.707 99.3838 413.588 100.163C412.619 106.538 413.12 112.678 413.875 119.05C415.668 134.172 419.605 149.126 428.614 161.656C430.375 164.106 432.611 166.395 434.772 168.49C438.968 154.808 445.753 140.869 458.968 133.781C466.62 129.678 476.02 128.91 484.301 131.498C488.671 132.863 492.265 135.18 495.958 137.803C506.434 145.243 514.702 158.291 520.338 169.636C521.62 172.216 523.399 175.124 523.952 177.961L523.578 178.877C525.824 180.707 527.208 184.289 528.584 186.839L535.112 198.258L546.642 216.157C560.41 235.519 576.656 252.741 596.664 265.735C600.027 267.92 603.449 270.173 607 272.033C609.616 273.404 612.703 274.571 615.095 276.262C620.428 277.738 625.457 280.292 630.835 281.803C633.116 282.444 639.001 283.005 640.75 284.326C641.188 284.657 641.67 285.448 641.961 285.918C642.407 288.981 642.931 292.149 642.919 295.25C642.882 305.335 640.418 315.288 640.464 325.453C640.496 332.375 641.41 339.142 642.152 346.01C642.579 349.955 643.24 354.193 642.844 358.143L642.187 360.571L639.182 384.515C634.285 415.934 620.559 443.411 600.027 467.449C595.254 473.037 589.577 477.877 584.865 483.468L556.588 507.389C548.782 513.763 540.86 521.236 531.526 525.221C523.928 528.464 514.71 529.507 506.509 529.11C491.78 528.398 482.841 521.538 471.891 512.666L453.61 497.583C449.789 494.337 446.074 490.772 442.003 487.854L442.1 563.316L441.827 567.423C420.558 583.805 403.537 606.83 389.444 629.5C386.196 634.723 383.627 640.408 380.287 645.527L340.316 660.322L308.511 672.661L296.854 677.109C294.827 677.886 292.515 679.047 290.371 679.286C285.936 681.522 281.011 683.025 276.374 684.825L237.175 699.553C224.333 704.438 212.097 708.421 201.067 716.86C200.049 717.64 197.473 719.369 196.883 720.471C188.739 727.169 179.448 734.344 173.626 743.25C170.131 748.595 169.023 756.697 167.431 762.861L154.166 816.563L130.75 773.419C122.466 756.025 114.817 738.335 108.713 720.047C87.7273 657.16 80.5463 588.224 89.2699 522.429C93.2697 492.262 100.873 462.208 111.052 433.542C141.83 346.864 205.227 275.16 280.754 224.342C294.592 215.03 309.21 204.81 324.285 197.656C327.885 184.682 332.662 171.967 339.307 160.226C354.982 132.528 379.061 113.026 409.748 104.619L413.379 97.6754Z"/>
	<path fill="#FCF2DF" transform="scale(0.488281 0.488281)" d="M365.102 382.689L365.182 382.63C365.717 381.095 366.18 379.432 367.348 378.25C369.17 376.407 372.153 375.441 374.678 375.4C378.039 375.345 379.209 376.412 381.546 378.641C382.487 381.911 383.39 384.788 383.653 388.225L383.322 388.655C381.228 391.317 378.794 393.217 375.3 393.49C372.414 393.716 370.114 393.015 368.019 390.975C365.464 388.489 365.026 386.124 365.102 382.689Z"/>
	<defs>
		<linearGradient id="gradient_0" gradientUnits="userSpaceOnUse" x1="372.93799" y1="337.41458" x2="336.64136" y2="344.45813">
			<stop offset="0" stop-color="#C77C4B"/>
			<stop offset="1" stop-color="#E7AC74"/>
		</linearGradient>
	</defs>
	<path fill="url(#gradient_0)" transform="scale(0.488281 0.488281)" d="M365.102 382.689C355.359 376.099 348.282 367.052 342.428 356.985C334.636 343.582 331.28 328.998 335.532 313.75C337.025 308.394 339.798 303.297 344.981 300.663C347.267 299.502 349.299 299.241 351.75 300.106C363.117 304.117 371.264 347.671 377.684 360L378.107 359.888C378.61 360.872 378.673 361.543 378.813 362.632C379.061 364.553 382.095 377.672 381.546 378.641C379.209 376.412 378.039 375.345 374.678 375.4C372.153 375.441 369.17 376.407 367.348 378.25C366.18 379.432 365.717 381.095 365.182 382.63L365.102 382.689Z"/>
	<path fill="#211D23" transform="scale(0.488281 0.488281)" d="M324.285 197.656C327.885 184.682 332.662 171.967 339.307 160.226C354.982 132.528 379.061 113.026 409.748 104.619C408.459 108.695 408.445 112.63 408.527 116.852C408.749 128.305 411.312 139.397 416.553 149.587C420.013 156.315 424.195 163.072 430.094 167.883C420.392 167.175 410.171 166.615 400.488 167.725C387.992 169.159 375.087 173.654 364.055 179.606C359.736 181.936 355.79 184.791 351.561 187.25L352 187.487C356.409 185.596 360.57 183.183 365.015 181.358C373.27 177.968 382.032 175.873 390.87 174.751C397.127 173.956 404.533 174.193 410.826 174.758L409.918 175.018C393.158 179.915 375.799 189.908 362.611 201.318C358.212 205.125 354.21 209.49 350.217 213.718L350.111 214.407C351.775 213.671 353.09 212.163 354.5 211.009C356.957 208.997 359.599 207.09 362.303 205.43C374.022 198.235 387.153 194.48 400.396 191.209C396.852 193.085 393.091 194.62 389.651 196.673C364.509 211.679 340.691 232.481 328.844 259.75L329.334 259.75C337.432 244.2 348.798 233.763 364.214 225.676C368.133 223.62 372.458 221.367 376.672 220.019C374.735 221.857 372.467 223.123 370.356 224.728C367.359 227.007 364.456 229.579 361.715 232.16C349.739 243.435 339.514 255.936 330.833 269.91C326.36 277.11 322.684 284.612 318.629 292.03C316.956 295.09 315.05 297.92 313.163 300.846C312.639 301.658 311.403 303.086 311.348 304.025C318.911 298.853 325.373 294.337 334.192 291.419C332.272 304.015 330.27 316.99 330.04 329.75L330.755 355.75C331.021 372.363 329.514 390.71 324.962 406.708C317.894 431.55 302.283 450.715 289.562 472.615C280.91 487.509 273.137 504.619 269.161 521.422C260.78 556.849 267.789 592.849 289.352 622.213C292.732 626.815 296.22 631.08 300.092 635.288C301.723 637.061 303.731 639.528 305.98 640.451C303.088 636.996 300.083 633.633 297.696 629.795C286.873 612.396 283.586 591.687 285.412 571.469C287.732 545.759 294.584 520.893 306.654 497.957L325.25 465.349C325.559 466.886 323.263 470.708 322.602 472.283C319.606 479.419 316.728 486.479 314.316 493.84C299.434 539.268 300.736 588.344 322.104 631.497C327.048 641.48 333.164 651.798 340.316 660.322L308.511 672.661L296.854 677.109C294.827 677.886 292.515 679.047 290.371 679.286C275.737 669.073 264.06 655.771 254.752 640.625C238.581 614.31 226.561 582.015 230.21 550.625C230.798 545.573 232.179 540.571 233.371 535.632C224.388 551.499 218.857 569.948 216.946 588.047C214.825 608.133 220.659 628.68 229.674 646.479C232.354 651.769 235.149 657.181 238.702 661.942C241.25 665.356 244.012 668.74 247.032 671.75C249.094 673.805 251.482 675.665 253.319 677.92L252.75 677.877C248.024 674.491 244.06 670.295 239.919 666.244C231.284 657.798 222.821 649.084 215.856 639.18C196.796 612.077 187.489 580.237 193.329 547.278C199.928 510.044 227.964 482.967 257.557 462.181L257.197 462.228C252.7 463.566 247.481 466.828 243.158 468.883C219.904 479.937 195.507 493.005 180.931 515.007C169.461 532.321 167.325 552.679 171.346 572.722L170.993 572.131C169.771 569.978 169.089 567.284 168.468 564.896C166.499 557.32 165.155 549.85 165.135 542C165.064 514.391 178.763 489.653 199 471.51C206.475 464.808 214.668 459.149 222.567 452.987C229.64 447.469 236.379 441.549 242.831 435.319C263.87 415.001 281.51 389.885 293.126 363.046C300.413 346.208 305.67 328.945 309.074 310.916C311.745 296.771 313.1 282.091 314.405 267.755C316.561 244.076 318.176 220.766 324.285 197.656Z"/>
	<path fill="#DAA846" transform="scale(0.488281 0.488281)" d="M324.285 197.656C318.176 220.766 316.561 244.076 314.405 267.755C313.1 282.091 311.745 296.771 309.074 310.916C305.67 328.945 300.413 346.208 293.126 363.046C281.51 389.885 263.87 415.001 242.831 435.319C236.379 441.549 229.64 447.469 222.567 452.987C214.668 459.149 206.475 464.808 199 471.51C178.763 489.653 165.064 514.391 165.135 542C165.155 549.85 166.499 557.32 168.468 564.896C169.089 567.284 169.771 569.978 170.993 572.131L171.346 572.722C167.325 552.679 169.461 532.321 180.931 515.007C195.507 493.005 219.904 479.937 243.158 468.883C247.481 466.828 252.7 463.566 257.197 462.228L257.557 462.181C227.964 482.967 199.928 510.044 193.329 547.278C187.489 580.237 196.796 612.077 215.856 639.18C222.821 649.084 231.284 657.798 239.919 666.244C244.06 670.295 248.024 674.491 252.75 677.877L253.319 677.92C251.482 675.665 249.094 673.805 247.032 671.75C244.012 668.74 241.25 665.356 238.702 661.942C235.149 657.181 232.354 651.769 229.674 646.479C220.659 628.68 214.825 608.133 216.946 588.047C218.857 569.948 224.388 551.499 233.371 535.632C232.179 540.571 230.798 545.573 230.21 550.625C226.561 582.015 238.581 614.31 254.752 640.625C264.06 655.771 275.737 669.073 290.371 679.286C285.936 681.522 281.011 683.025 276.374 684.825L237.175 699.553C224.333 704.438 212.097 708.421 201.067 716.86C200.049 717.64 197.473 719.369 196.883 720.471C188.739 727.169 179.448 734.344 173.626 743.25C170.131 748.595 169.023 756.697 167.431 762.861L154.166 816.563L130.75 773.419C122.466 756.025 114.817 738.335 108.713 720.047C87.7273 657.16 80.5463 588.224 89.2699 522.429C93.2697 492.262 100.873 462.208 111.052 433.542C141.83 346.864 205.227 275.16 280.754 224.342C294.592 215.03 309.21 204.81 324.285 197.656Z"/>
	<path fill="#F8CA9A" transform="scale(0.488281 0.488281)" d="M447.191 177.506C464.926 171.272 486.841 169.346 505.25 173.167C511.531 174.471 517.557 176.706 523.578 178.877C525.824 180.707 527.208 184.289 528.584 186.839L535.112 198.258L546.642 216.157C560.41 235.519 576.656 252.741 596.664 265.735C600.027 267.92 603.449 270.173 607 272.033C609.616 273.404 612.703 274.571 615.095 276.262C620.428 277.738 625.457 280.292 630.835 281.803C633.116 282.444 639.001 283.005 640.75 284.326C641.188 284.657 641.67 285.448 641.961 285.918C642.407 288.981 642.931 292.149 642.919 295.25C642.882 305.335 640.418 315.288 640.464 325.453C640.496 332.375 641.41 339.142 642.152 346.01C642.579 349.955 643.24 354.193 642.844 358.143L642.187 360.571L639.182 384.515C634.285 415.934 620.559 443.411 600.027 467.449C595.254 473.037 589.577 477.877 584.865 483.468L556.588 507.389C548.782 513.763 540.86 521.236 531.526 525.221C523.928 528.464 514.71 529.507 506.509 529.11C491.78 528.398 482.841 521.538 471.891 512.666L453.61 497.583C449.789 494.337 446.074 490.772 442.003 487.854C436.765 481.46 429.92 475.698 424.307 469.527C411.918 455.905 397.447 439.529 391.827 421.744C388.345 410.723 386.567 399.365 383.653 388.225C383.39 384.788 382.487 381.911 381.546 378.641C382.095 377.672 379.061 364.553 378.813 362.632C378.673 361.543 378.61 360.872 378.107 359.888L372.769 319.641C371.353 303.521 370.819 286.543 375.943 271C379.561 260.029 385.447 250.065 390.174 239.573C395.918 226.823 400.61 213.444 407.046 201.024C409.941 195.437 414.861 192.246 420.144 189.154C428.701 184.147 437.766 180.508 447.191 177.506Z"/>
	<path fill="#E0AA73" transform="scale(0.488281 0.488281)" d="M554.794 325.673C553.779 325.729 554.041 325.607 553.301 325.945C549.764 327.562 546.094 328.281 542.199 328.292L542.25 327.484C543.475 326.406 544.42 325.751 545.989 325.269L558.044 321.635C557.282 322.639 555.829 325.151 554.794 325.673Z"/>
	<path fill="#E0AA73" transform="scale(0.488281 0.488281)" d="M422.045 348.614C424.902 349.517 427.509 350.2 430.5 350.559L431.415 350.681C434.612 351.066 440.94 351.233 443.619 349.584L444.418 349.321L445.621 349.456L445.998 349.974C444.933 350.192 443.995 350.626 443.237 351.426C442.849 351.835 442.478 352.249 442.004 352.566C439.712 354.096 433.853 353.808 431.188 353.373C427.666 352.798 424.197 351.559 422.045 348.614Z"/>
	<path fill="#E0AA73" transform="scale(0.488281 0.488281)" d="M465.557 326.131C462.305 321.675 458.738 318.281 454.408 314.865L462.764 317.37L463.268 317.47L463.418 318.061L463.304 319.165C465.709 321.053 470.599 322.636 473.501 323.712C474.865 324.218 477.49 324.913 478.419 326.073C478.669 326.384 478.566 326.858 478.639 327.25C475.081 329.104 469.576 325.604 465.557 326.131Z"/>
	<path fill="#E0AA73" transform="scale(0.488281 0.488281)" d="M580.685 349.264L581.346 349.543C582.992 349.899 585.689 349.457 587.374 349.17C594.294 347.99 599.31 345.717 604.902 341.468C603.944 345.396 599.264 348.452 596 350.549L595.381 350.959C591.799 353.289 587.059 354.051 582.916 353.118C579.386 352.324 575.408 351.005 572.477 348.834C575.059 348.903 578.196 348.681 580.685 349.264Z"/>
	<defs>
		<linearGradient id="gradient_1" gradientUnits="userSpaceOnUse" x1="509.85913" y1="471.92999" x2="510.55682" y2="483.42154">
			<stop offset="0" stop-color="#DB9068"/>
			<stop offset="1" stop-color="#E4A56C"/>
		</linearGradient>
	</defs>
	<path fill="url(#gradient_1)" transform="scale(0.488281 0.488281)" d="M480.603 469.498C483.121 471.517 485.655 473.889 488.404 475.567C496.73 480.648 506.566 482.254 516.178 481.27C525.115 480.355 532.616 476.192 539.471 470.628C539.458 471.323 539.495 471.491 539.277 472.227C538.083 476.257 531.962 480.138 528.322 481.458C517.192 485.494 501.496 485.76 490.724 480.636C486.094 478.434 482.35 474.321 480.603 469.498Z"/>
	<path fill="#000001" transform="scale(0.488281 0.488281)" d="M406.182 319.359C408.752 318.335 410.97 316.564 413.314 315.113C417.608 312.455 422.529 310.667 427.468 309.703C440.309 307.195 452.546 310.29 463.268 317.47L462.764 317.37L454.408 314.865C458.738 318.281 462.305 321.675 465.557 326.131C467.288 328.94 473.039 336.633 472.915 339.475C466.567 334.235 462.517 326.573 456.044 321.125C455.342 320.932 455.588 321.045 455.006 320.732L449.701 318.287C444.475 316.328 436.029 315.285 430.79 317.754C424.392 318.958 416.299 320.586 412.496 326.603C411.293 328.508 411.374 330.673 411.957 332.774C413.448 338.148 418.433 342.926 423.25 345.474C429.158 348.599 436.982 349.647 443.619 349.584C440.94 351.233 434.612 351.066 431.415 350.681L430.5 350.559C427.509 350.2 424.902 349.517 422.045 348.614L421.65 348.406L421 348.047C418.221 346.539 415.981 345.019 413.814 342.685C410.98 339.635 409.201 335.973 409.348 331.776L409.372 331.277C407.08 329.9 404.652 328.545 402.5 326.959C400.65 325.596 399.081 323.936 397.04 322.85L396.118 320L396.644 319.25C399.883 319.788 402.926 319.576 406.182 319.359Z"/>
	<path fill="#FCF2DF" transform="scale(0.488281 0.488281)" d="M430.79 317.754L430.541 318.439C430.207 319.326 429.752 320.097 429.292 320.922C426.587 325.772 426.251 331.578 427.677 336.887C428.66 340.547 431.268 343.203 434.5 345.019C437.88 346.917 440.796 347.447 444.532 346.316C448.951 344.978 453.354 341.229 455.51 337.165C457.992 332.488 457.592 327.837 456.262 322.906C456.09 322.269 456.024 321.781 456.044 321.125C462.517 326.573 466.567 334.235 472.915 339.475L472.726 340.901C466.242 345.125 458.848 347.317 451.25 348.485C449.129 348.811 446.389 348.656 444.418 349.321L443.619 349.584C436.982 349.647 429.158 348.599 423.25 345.474C418.433 342.926 413.448 338.148 411.957 332.774C411.374 330.673 411.293 328.508 412.496 326.603C416.299 320.586 424.392 318.958 430.79 317.754Z"/>
	<path fill="#1C5A4B" transform="scale(0.488281 0.488281)" d="M430.79 317.754C436.029 315.285 444.475 316.328 449.701 318.287L455.006 320.732C455.588 321.045 455.342 320.932 456.044 321.125C456.024 321.781 456.09 322.269 456.262 322.906C457.592 327.837 457.992 332.488 455.51 337.165C453.354 341.229 448.951 344.978 444.532 346.316C440.796 347.447 437.88 346.917 434.5 345.019C431.268 343.203 428.66 340.547 427.677 336.887C426.251 331.578 426.587 325.772 429.292 320.922C429.752 320.097 430.207 319.326 430.541 318.439L430.79 317.754Z"/>
	<path fill="#000001" transform="scale(0.488281 0.488281)" d="M441.736 323.021C443.829 323.021 445.148 322.637 446.663 324.351L447.974 326.382C448.244 326.974 448.168 326.711 448.273 327.545C448.539 329.651 448.471 334.214 447.096 335.869L446.75 336.242C446.257 336.781 445.783 337.28 445.153 337.666C443.416 338.729 441.001 338.784 439.056 338.279C437.105 337.771 434.936 335.71 434.108 333.899C433.08 331.651 433.443 328.756 434.438 326.564C435.118 325.065 436.261 323.777 437.892 323.299C439.088 322.948 440.498 323.024 441.736 323.021Z"/>
	<path fill="#FCF2DF" transform="scale(0.488281 0.488281)" d="M441.736 323.021C443.829 323.021 445.148 322.637 446.663 324.351L447.974 326.382L445.949 328.25C444.106 328.53 444.005 328.379 442.436 327.556C441.543 326.081 441.71 324.677 441.736 323.021Z"/>
	<path fill="#E0AA73" transform="scale(0.488281 0.488281)" d="M495.443 397.25L495.741 397.466C495.968 398.999 497.101 400.047 498.25 401.005C502.841 404.834 509.566 405.475 515.303 404.736L516.25 404.607C521.714 403.913 524.352 401.516 527.676 397.428C531.9 399.774 537.241 402.328 538.662 407.38C539.144 409.095 539.315 411.225 538.321 412.782L537.997 413.25C536.235 415.827 533.975 417.061 531.18 418.312L530.686 418.481C520.77 421.791 509.928 421.729 499.705 420.137C495.792 419.528 491.754 418.87 488.229 416.96C486.354 415.945 483.973 413.857 483.406 411.744L483.293 411.25C482.74 408.959 483.088 406.425 484.252 404.351C486.505 400.337 491.313 398.603 495.443 397.25Z"/>
	<path fill="#5C403F" transform="scale(0.488281 0.488281)" d="M494.221 410.75L496.842 410.558C499.523 410.499 500.41 411.332 502.25 413.044L501.25 413.621L492.75 412.756L492.486 411.75L494.221 410.75Z"/>
	<path fill="#5C403F" transform="scale(0.488281 0.488281)" d="M522.419 410.75C523.477 410.505 524.564 410.467 525.649 410.436C527.533 410.381 528.04 410.71 529.38 412.014L529.25 412.872L526.862 413.37L520 413.801L519.367 413.25C520.248 411.884 521.021 411.448 522.419 410.75Z"/>
	<path fill="#BD764F" transform="scale(0.488281 0.488281)" d="M557.994 295.203L569.005 291.36L569.313 292.75C576.818 292.731 585.049 291.406 592.409 293.134L593.171 293.303C596.017 293.962 598.42 295.44 600.809 297.059C604.248 299.392 606.618 303.14 608.194 306.878L608.439 307.43C609.737 310.502 608.864 313.205 607.918 316.212L607.64 317.228L600.545 313.679C591.238 309.252 579.776 307.311 569.863 310.886C566.98 311.926 560.038 315.021 558.802 317.688C556.031 319.955 552.089 319.2 548.75 320.118C546.754 320.668 545.416 321.821 543.915 323.175L543.373 323.672C545.639 312.867 549.922 304.057 558.281 296.772L557.994 295.203Z"/>
	<path fill="#000001" transform="scale(0.488281 0.488281)" d="M586.608 270.917C588.693 270.435 591.087 269.708 593.221 269.679C601.174 269.573 608.317 276.005 615.108 279.253C621.3 283.279 626.81 287.596 631.367 293.492C622.013 288.285 611.805 284.005 601.404 281.397C600.07 281.063 597.644 280.176 596.301 280.43L569.005 291.36L557.994 295.203L532.464 301.529L538.276 282.196L586.608 270.917Z"/>
	<path fill="#BD764F" transform="scale(0.488281 0.488281)" d="M406.182 319.359C405.967 315.377 404.521 311.901 405.923 307.921C407.177 304.362 409.52 301.461 412.25 298.933C420.713 291.093 433.341 291.07 444.171 292.345C447.286 292.712 451.237 293.935 454.049 292.632L461.915 295.141L461.905 295.17L461.139 296C463.108 297.965 465.295 299.672 467.077 301.827C471.362 307.006 474.45 315.169 476.681 321.49L463.418 318.061L463.268 317.47C452.546 310.29 440.309 307.195 427.468 309.703C422.529 310.667 417.608 312.455 413.314 315.113C410.97 316.564 408.752 318.335 406.182 319.359Z"/>
	<path fill="#000001" transform="scale(0.488281 0.488281)" d="M558.802 317.688C560.038 315.021 566.98 311.926 569.863 310.886C579.776 307.311 591.238 309.252 600.545 313.679L607.64 317.228C610.618 318.218 614.675 319.604 617.814 318.978C620.05 318.532 622.376 317.37 624.48 316.486C619.094 322.5 615.321 325.079 607.313 326.869C608.332 332.858 608.391 336.186 604.869 341.422L604.902 341.468C599.31 345.717 594.294 347.99 587.374 349.17C585.689 349.457 582.992 349.899 581.346 349.543L580.685 349.264C578.196 348.681 575.059 348.903 572.477 348.834C572.47 348.819 569.178 348.225 568.779 348.152C561.529 346.829 551.858 344.545 545.957 339.95L545.846 339.708C545.96 338.222 546.943 337.201 547.753 335.979L554.794 325.673C555.829 325.151 557.282 322.639 558.044 321.635L565.629 315.49C563.678 315.506 560.712 317.021 558.802 317.688Z"/>
	<path fill="#FCF2DF" transform="scale(0.488281 0.488281)" d="M592.045 319.094C597.04 320.453 601.885 323.335 604.42 328.026C605.511 330.046 606.207 332.746 605.58 335.025C604.357 339.471 599.042 342.634 595.176 344.545C590.555 346.829 585.709 348.203 580.685 349.264C578.196 348.681 575.059 348.903 572.477 348.834C572.47 348.819 569.178 348.225 568.779 348.152C561.529 346.829 551.858 344.545 545.957 339.95L547.5 338.477C553.542 333.029 557.016 324.654 564.351 320.757C563.493 325.996 561.777 331.581 564.269 336.672C566.483 341.192 571.013 344.763 575.797 346.22C579.851 347.454 583.89 347.077 587.574 344.93C591.207 342.812 593.89 339.214 594.832 335.102C596.042 329.814 595.152 325.213 592.221 320.668C591.707 319.871 591.872 319.969 592.045 319.094Z"/>
	<path fill="#1C5A4B" transform="scale(0.488281 0.488281)" d="M564.351 320.757C565.188 320.469 564.893 320.621 565.61 320.19C568.619 318.381 571.14 316.721 574.701 316.25C579.936 315.557 585.593 316.191 589.788 319.58L590.25 319.978L591.597 319.289L592.045 319.094C591.872 319.969 591.707 319.871 592.221 320.668C595.152 325.213 596.042 329.814 594.832 335.102C593.89 339.214 591.207 342.812 587.574 344.93C583.89 347.077 579.851 347.454 575.797 346.22C571.013 344.763 566.483 341.192 564.269 336.672C561.777 331.581 563.493 325.996 564.351 320.757Z"/>
	<path fill="#FCF2DF" transform="scale(0.488281 0.488281)" d="M578.102 323.043C579.722 322.231 580.949 321.805 582.75 321.57C584.605 322.335 584.752 322.508 585.844 324.055L586.07 328.63L585.558 328.795L584.819 329.02C584.038 329.274 583.848 329.417 583 329.498C581.464 329.644 579.022 328.525 578.072 327.366C577.344 326.478 577.957 324.214 578.102 323.043Z"/>
	<path fill="#000001" transform="scale(0.488281 0.488281)" d="M586.07 328.63C586.516 329.78 586.49 331.237 586.069 332.385C585.17 334.833 583.043 337.72 580.527 338.65C578.707 339.323 575.883 339.192 574.227 338.13C572.19 336.822 570.665 334.005 570.427 331.625C570.174 329.091 570.397 326.525 572.273 324.618C573.836 323.029 576.012 323.207 578.102 323.043C577.957 324.214 577.344 326.478 578.072 327.366C579.022 328.525 581.464 329.644 583 329.498C583.848 329.417 584.038 329.274 584.819 329.02L585.558 328.795L586.07 328.63Z"/>
	<path fill="#E0AA73" transform="scale(0.488281 0.488281)" d="M447.191 177.506C464.926 171.272 486.841 169.346 505.25 173.167C511.531 174.471 517.557 176.706 523.578 178.877C525.824 180.707 527.208 184.289 528.584 186.839L535.112 198.258L546.642 216.157C560.41 235.519 576.656 252.741 596.664 265.735C600.027 267.92 603.449 270.173 607 272.033C609.616 273.404 612.703 274.571 615.095 276.262L614.658 276.244C612.837 276.135 611.665 275.585 610.09 274.712L610.023 275.028C611.031 275.624 612.053 276.188 613 276.877L613.641 277.335C614.4 277.931 614.676 278.417 615.108 279.253C608.317 276.005 601.174 269.573 593.221 269.679C591.087 269.708 588.693 270.435 586.608 270.917C581.604 265.351 574.873 260.975 569.046 256.284C562.978 251.398 557.146 245.893 551.67 240.358C537.085 225.616 525.618 208.065 510.147 194.14C496.711 182.045 478.447 177.998 460.75 177.974C457.231 177.969 453.742 178.509 450.25 178.536C448.894 178.547 448.176 178.418 447.191 177.506Z"/>
	<path fill="#B62527" transform="scale(0.488281 0.488281)" d="M471.099 456.612C469.52 455.943 467.672 454.037 466.283 452.946C470.17 452.544 473.721 451.566 477.375 450.181C482.491 448.241 496.593 440.052 501.835 442.245L502.5 442.549C505.645 443.916 508.42 445.804 511.284 447.675L517.589 444.13C518.823 443.478 520.827 442.361 522.2 442.115C525.802 441.468 538.487 447.941 542.461 449.504L555.233 453.833L551.565 456.061C546.258 459.761 544.488 466.481 539.471 470.628C532.616 476.192 525.115 480.355 516.178 481.27C506.566 482.254 496.73 480.648 488.404 475.567C485.655 473.889 483.121 471.517 480.603 469.498L471.099 456.612Z"/>
	<path fill="#7D1616" transform="scale(0.488281 0.488281)" d="M472.918 456.421C474.326 456.499 476.412 456.839 477.75 457.31C478.729 457.655 479.266 457.627 480.25 457.831L480.707 458.041C485.807 460.191 494.814 455.461 499.565 453.474C501.834 455.049 503.75 457.039 505.717 458.965C508.004 459.055 513.23 459.21 515.239 458.382C516.287 457.95 517.835 456.365 518.766 455.631C519.135 455.34 520.277 454.232 520.697 454.105C521.88 453.746 525.335 454.846 526.592 455.189C531.382 456.495 536.736 458.485 541.739 457.717L542.503 457.559C543.337 457.409 544.084 457.317 544.89 457.042L549.082 455.92C548.524 457.089 548.525 457.291 547.25 457.745C541.666 459.732 535.48 459.654 529.75 460.586L526.566 460.831C522.357 460.962 519.226 462.073 515.237 463.158L507.69 463.058L494.864 461.783L475.857 458.089L473.557 457.662L472.918 456.421Z"/>
	<path fill="#C3513D" transform="scale(0.488281 0.488281)" d="M515.237 463.158C519.226 462.073 522.357 460.962 526.566 460.831C527.416 465.792 526.392 472.667 523.282 476.786C522.828 477.389 522.27 477.754 521.726 478.25L521.043 478.917C518.832 480.831 508.389 480.566 505.538 479.836C504.535 479.579 504.754 479.598 503.846 479.173L503.275 478.92C498.404 476.718 496.205 469.284 494.46 464.589C494.061 463.514 493.962 463.312 494.135 462.205L494.864 461.783L507.69 463.058L515.237 463.158Z"/>
	<path fill="#B62527" transform="scale(0.488281 0.488281)" d="M507.69 463.058L515.237 463.158C512.307 465.413 512.128 468.313 511.097 471.683L509.345 463.75L507.69 463.058Z"/>
	<path fill="#000001" transform="scale(0.488281 0.488281)" d="M383.691 297.295C387.165 290.284 393.816 283.894 399.93 279.14C404.615 275.496 412.559 269.195 418.539 268.315C422.631 267.712 428.11 269.757 432.109 270.686L462.998 278.148C469.46 279.701 475.96 281.013 482.552 281.859L487.667 301.024L461.905 295.17L461.915 295.141L454.049 292.632C451.237 293.935 447.286 292.712 444.171 292.345C433.341 291.07 420.713 291.093 412.25 298.933C409.52 301.461 407.177 304.362 405.923 307.921C404.521 311.901 405.967 315.377 406.182 319.359C402.926 319.576 399.883 319.788 396.644 319.25L396.118 320L397.04 322.85L396.33 322.722C393.658 322.086 390.218 317.261 388.776 315.1C385.589 310.328 382.481 303.109 383.691 297.295Z"/>
	<path fill="#E0AA73" transform="scale(0.488281 0.488281)" d="M383.691 297.295C386.208 296.02 388.599 294.145 390.99 292.629C395.544 289.743 400.156 287.059 405.1 284.893C408.616 283.352 412.558 281.788 416.414 281.48C421.948 281.038 427.111 282.606 432.3 284.321L454.049 292.632C451.237 293.935 447.286 292.712 444.171 292.345C433.341 291.07 420.713 291.093 412.25 298.933C409.52 301.461 407.177 304.362 405.923 307.921C404.521 311.901 405.967 315.377 406.182 319.359C402.926 319.576 399.883 319.788 396.644 319.25L396.118 320L397.04 322.85L396.33 322.722C393.658 322.086 390.218 317.261 388.776 315.1C385.589 310.328 382.481 303.109 383.691 297.295Z"/>
</svg>
