<?xml version="1.0" encoding="utf-8" ?>
<svg xmlns="http://www.w3.org/2000/svg" xmlns:xlink="http://www.w3.org/1999/xlink" width="500" height="500">
	<path fill="#E5BE01" transform="scale(0.488281 0.488281)" d="M-0 -0L1024 0L1024 1024L-0 1024L0 -0Z"/>
	<path fill="#2B8789" transform="scale(0.488281 0.488281)" d="M795.054 178.277C797.888 172.481 803.133 165.167 809.351 162.82C815.909 160.345 822.38 162.801 828.343 165.607C826.513 167.127 824.358 168.625 822.806 170.421C819.895 171.427 818.846 172.93 817.502 175.637L812.202 189.382C806.222 186.358 801.254 181.294 795.054 178.277Z"/>
	<path fill="#6BCFC7" transform="scale(0.488281 0.488281)" d="M195.287 166.49C200.757 163.534 207.316 161.378 213.495 163.184C220.479 165.224 225.701 169.703 229.109 176.057L230.207 178.142L226.947 180.123C221.272 182.44 215.626 187.189 210.823 191.041C205.95 182.768 199.492 175.085 195.287 166.49Z"/>
	<path fill="#2B8789" transform="scale(0.488281 0.488281)" d="M195.287 166.49C199.492 175.085 205.95 182.768 210.823 191.041C204.337 195.603 198.458 200.673 192.915 206.34L187.277 199.261C183.865 193.986 182.395 187.58 183.95 181.406C185.566 174.989 189.746 169.95 195.287 166.49Z"/>
	<path fill="#6BCFC7" transform="scale(0.488281 0.488281)" d="M828.343 165.607C834.915 169.431 841.234 174.609 843.137 182.331C844.334 187.193 842.804 192.355 840.174 196.465C837.805 200.167 834.393 202.971 830.988 205.676L817.918 193.583L812.202 189.382L817.502 175.637C818.846 172.93 819.895 171.427 822.806 170.421C824.358 168.625 826.513 167.127 828.343 165.607Z"/>
	<path fill="#0FACC5" transform="scale(0.488281 0.488281)" d="M812.202 189.382L817.502 175.637C818.846 172.93 819.895 171.427 822.806 170.421C820.771 173.76 819.395 176.703 818.415 180.5L818.251 181.114C817.31 184.888 817.739 189.692 817.918 193.583L812.202 189.382Z"/>
	<path fill="#BC9101" transform="scale(0.488281 0.488281)" d="M314.517 831.1L338.602 848.695L347.155 854.234L376.579 869.575L384.373 873.312L408.216 882.474C470.208 903.249 539.915 904.356 602.595 886.096C615.609 882.304 628.908 877.819 641.046 871.764L669.403 857.376L671.459 856.347L672.233 856.109L677.959 852.881L698.797 838.079L712.216 853.59C717.446 861.564 721.322 869.436 725.245 878.105C747.938 881.831 770.764 883.644 793 889.983C800.089 892.004 808.205 894.523 814.326 898.745C816.329 900.126 818.688 902.396 818.988 904.936C819.193 906.678 818.582 908.236 817.531 909.594C806.678 923.62 741.731 931.69 723.875 934.099C680.124 940 635.779 942.847 591.687 944.556L523.073 946.347C445.94 946.369 368.546 941.052 292.193 930.271C270.517 927.21 248.367 923.462 227.406 917.021C220.022 914.752 212.135 912.394 205.997 907.527C204.582 906.405 203.607 905.042 203.467 903.192C203.315 901.201 204.179 899.993 205.529 898.618C209.236 894.845 215.474 893.092 220.395 891.333C245.182 882.474 271.807 878.639 297.765 874.992L306.061 851.001C308.009 844.427 311.422 837.218 314.517 831.1Z"/>
	<path fill="#E5BE01" transform="scale(0.488281 0.488281)" d="M376.579 869.575L384.373 873.312L372.117 874.041L376.579 869.575Z"/>
	<path fill="#0FACC5" transform="scale(0.488281 0.488281)" d="M314.517 831.1L338.602 848.695L347.155 854.234L376.579 869.575L372.117 874.041L344.485 896.395C334.121 904.041 321.429 913.859 307.836 912.944C304.257 912.703 300.611 911.345 297.637 909.382C295.859 907.734 293.988 906.129 292.866 903.94C288.71 895.83 295.122 882.933 297.765 874.992L306.061 851.001C308.009 844.427 311.422 837.218 314.517 831.1Z"/>
	<path fill="#0A87A3" transform="scale(0.488281 0.488281)" d="M338.602 848.695L347.155 854.234C344.916 857.987 341.026 861.207 337.954 864.307L321.478 880.91L311.206 891.262C309.474 892.998 307.403 895.548 305.084 896.384C305.654 894.239 307.348 892.305 308.606 890.5L316.368 879.651L338.602 848.695Z"/>
	<path fill="#08597F" transform="scale(0.488281 0.488281)" d="M314.517 831.1L338.602 848.695L316.368 879.651L308.606 890.5C307.348 892.305 305.654 894.239 305.084 896.384C302.101 900.41 299.164 904.553 297.637 909.382C295.859 907.734 293.988 906.129 292.866 903.94C288.71 895.83 295.122 882.933 297.765 874.992L306.061 851.001C308.009 844.427 311.422 837.218 314.517 831.1Z"/>
	<path fill="#08597F" transform="scale(0.488281 0.488281)" d="M677.959 852.881L698.797 838.079L712.216 853.59C717.446 861.564 721.322 869.436 725.245 878.105C728.186 888.752 731.707 898.002 727.056 908.795C726.049 910.493 725.183 911.738 723.699 913.05C719.798 915.603 716.112 916.768 711.442 916.22C703.642 915.306 695.651 911.261 688.88 907.502C677.896 901.403 667.162 894.026 657.25 886.304C651.577 881.884 645.543 877.419 641.046 871.764L669.403 857.376L671.459 856.347L672.233 856.109L677.959 852.881Z"/>
	<path fill="#0A87A3" transform="scale(0.488281 0.488281)" d="M671.459 856.347L672.233 856.109L696.25 881.362L715.5 899.544L727.056 908.795C726.049 910.493 725.183 911.738 723.699 913.05L708.344 897.649C697.454 887.505 686.523 878.052 676.835 866.666C674.277 863.658 671.52 860.723 669.403 857.376L671.459 856.347Z"/>
	<path fill="#0FACC5" transform="scale(0.488281 0.488281)" d="M677.959 852.881L698.797 838.079L712.216 853.59C717.446 861.564 721.322 869.436 725.245 878.105C728.186 888.752 731.707 898.002 727.056 908.795L715.5 899.544L696.25 881.362L672.233 856.109L677.959 852.881Z"/>
	<path fill="#FCD67A" transform="scale(0.488281 0.488281)" d="M223.863 350.882L272.085 312.427L278.631 321.389C279.967 323.154 281.605 324.849 282.662 326.791L284.451 328.63L284.647 329.509C275.858 337.672 267.252 345.949 259.426 355.067C211.433 410.982 185.494 481.607 182.724 555.008C179.51 640.181 213.242 728.999 271.26 791.384C277.414 798.003 283.548 804.662 290.192 810.799C297.941 817.956 306.296 824.5 314.517 831.1C311.422 837.218 308.009 844.427 306.061 851.001L302.167 848.825C288.049 840.786 274.036 832.159 261 822.451C189.118 768.92 139.237 691.678 115.96 605.525C104.92 564.66 100.987 522.178 103.159 479.979C105.982 425.14 119.353 369.97 146.849 322.167C150.123 346.692 157.833 372.126 172.869 392.13L208.75 363.264C213.713 359.244 219.378 355.394 223.863 350.882Z"/>
	<path fill="#781A77" transform="scale(0.488281 0.488281)" d="M223.863 350.882L272.085 312.427L278.631 321.389C279.967 323.154 281.605 324.849 282.662 326.791L182.022 404.374L172.869 392.13L208.75 363.264C213.713 359.244 219.378 355.394 223.863 350.882Z"/>
	<path fill="#FCD67A" transform="scale(0.488281 0.488281)" d="M752.182 311.12L848.268 387.257C863.459 366.847 870.816 339.112 872.052 313.986C881.062 328.307 888.101 344.666 894.304 360.373C924.345 436.44 927.375 519.489 909.25 598.781C903.608 623.464 894.798 647.816 884.283 670.815C866.07 710.652 841.187 747.359 810.261 778.478C782.378 806.537 749.932 830.059 716.5 851.024L712.216 853.59L698.797 838.079L677.959 852.881L672.233 856.109L671.459 856.347C671.286 854.42 667.655 850.536 666.432 848.768L655.657 832.933L660.901 830.086C674.346 821.773 689.36 812.47 700.702 801.441C705.993 797.396 710.919 792.309 715.754 787.731C740.865 763.955 760.134 737.64 776.238 707.002L806.68 707.124C812.05 696.56 816.435 685.221 820.431 674.076C835.514 632.005 842.373 586.341 839.269 541.703C833.67 461.2 799.169 383.849 737.685 330.58L740.587 325.894C743.726 320.646 748.236 315.791 752.182 311.12Z"/>
	<path fill="#781A77" transform="scale(0.488281 0.488281)" d="M752.182 311.12L848.268 387.257L837.834 399.697L740.587 325.894C743.726 320.646 748.236 315.791 752.182 311.12Z"/>
	<path fill="#524BA0" transform="scale(0.488281 0.488281)" d="M776.238 707.002L806.68 707.124C785.899 749.687 757.25 789.59 721.166 820.449C713.996 826.58 706.616 832.786 698.797 838.079L677.959 852.881L672.233 856.109L671.459 856.347C671.286 854.42 667.655 850.536 666.432 848.768L655.657 832.933L660.901 830.086C674.346 821.773 689.36 812.47 700.702 801.441C705.993 797.396 710.919 792.309 715.754 787.731C740.865 763.955 760.134 737.64 776.238 707.002Z"/>
	<path fill="#433588" transform="scale(0.488281 0.488281)" d="M660.901 830.086C664.463 837.385 670.703 848.886 677.959 852.881L672.233 856.109L671.459 856.347C671.286 854.42 667.655 850.536 666.432 848.768L655.657 832.933L660.901 830.086Z"/>
	<path fill="#FCD67A" transform="scale(0.488281 0.488281)" d="M260.389 165.678C263.167 163.147 266.634 160.987 269.704 158.805C278.088 152.844 286.812 147.525 295.673 142.31C341.553 115.312 392.817 95.4964 445.549 87.1977C460.497 84.8453 475.899 83.4987 491 82.6946C540.509 80.0583 590.387 86.2227 637.695 101.087C657.799 107.404 677.156 115.455 696.2 124.438C718.449 134.933 741.474 147.783 759.84 164.287C770.14 167.677 781.816 170.694 791.008 176.596L795.054 178.277C801.254 181.294 806.222 186.358 812.202 189.382L817.918 193.583L830.988 205.676C859.756 236.01 872.029 272.632 872.052 313.986C870.816 339.112 863.459 366.847 848.268 387.257L752.182 311.12L715.847 283.047L704.922 294.085L699.473 301.121L697.652 303.258C691.657 297.039 683.943 291.817 676.733 287.139C649.309 269.346 619.944 257.944 588.493 249.518C580.308 246.354 570.213 244.526 561.588 243.048C548.838 240.864 536.314 239.158 523.402 238.306C521.339 237.574 517.186 237.954 514.876 237.855L505.104 237.891L498.273 238.021L498.328 225.249L498.084 238.12C479.561 239.528 461.32 241.77 443.163 245.807L423.308 251.072C423.989 259.95 428.072 268.148 434.519 274.288C404.164 283.182 375.618 295.493 349.526 313.636C344.491 315.84 339.923 319.275 334.846 321.223L320.263 303.128L320.555 302.475C318.635 299.672 316.59 297.352 314.179 294.962C311.295 292.039 309.008 288.082 306.908 284.563L292.113 296.679L272.085 312.427L223.863 350.882C219.378 355.394 213.713 359.244 208.75 363.264L172.869 392.13C157.833 372.126 150.123 346.692 146.849 322.167L146.69 319.134C145.445 288.599 153.767 259.154 170.703 233.653C177.238 223.814 184.935 215.011 192.915 206.34C198.458 200.673 204.337 195.603 210.823 191.041C215.626 187.189 221.272 182.44 226.947 180.123L230.207 178.142C239.229 172.474 250.313 168.965 260.389 165.678Z"/>
	<path fill="#6BCFC7" transform="scale(0.488281 0.488281)" d="M514.516 197.373L523.49 197.216L523.479 204.948L523.402 238.306C521.339 237.574 517.186 237.954 514.876 237.855L514.793 237.536C514.033 234.82 514.558 230.384 514.559 227.483L514.548 203.546L514.516 197.373Z"/>
	<path fill="#0FACC5" transform="scale(0.488281 0.488281)" d="M514.516 197.373L523.49 197.216L523.479 204.948L514.895 205.103L514.793 237.536C514.033 234.82 514.558 230.384 514.559 227.483L514.548 203.546L514.516 197.373Z"/>
	<path fill="#0F6E7B" transform="scale(0.488281 0.488281)" d="M498.39 197.24L514.516 197.373L514.548 203.546L514.559 227.483C514.558 230.384 514.033 234.82 514.793 237.536L514.876 237.855L505.104 237.891L498.273 238.021L498.328 225.249L498.39 197.24Z"/>
	<path fill="#2B8789" transform="scale(0.488281 0.488281)" d="M505.104 237.891L505.827 237.318C505.301 233.352 505.543 229.248 505.474 225.25L505.448 202.974L514.548 203.546L514.559 227.483C514.558 230.384 514.033 234.82 514.793 237.536L514.876 237.855L505.104 237.891Z"/>
	<path fill="#781A77" transform="scale(0.488281 0.488281)" d="M406.221 205.788L411.955 212.849L314.179 294.962C311.295 292.039 309.008 288.082 306.908 284.563L308.633 283.024L373.787 231.638L406.221 205.788Z"/>
	<path fill="#781A77" transform="scale(0.488281 0.488281)" d="M619.469 210.296C622.904 211.646 626.041 214.509 628.91 216.786L640.66 225.843L660.578 240.178L715.847 283.047L704.922 294.085C696.297 286.037 685.519 279.235 676.071 272.112C654.33 255.721 632.133 237.617 614.604 216.7L619.469 210.296Z"/>
	<path fill="#781A77" transform="scale(0.488281 0.488281)" d="M320.555 302.475C322.68 302.107 324.725 300.255 326.465 299.034L339.694 289.931L358.391 278.851C369.56 272.565 381.083 266.595 392.96 261.748L423.308 251.072C423.989 259.95 428.072 268.148 434.519 274.288C404.164 283.182 375.618 295.493 349.526 313.636C344.491 315.84 339.923 319.275 334.846 321.223L320.263 303.128L320.555 302.475Z"/>
	<path fill="#06756C" transform="scale(0.488281 0.488281)" d="M445.824 147.866L446.75 146.9C454.481 139.539 462.437 138.866 472.595 139.306L468.166 141.979C463.402 144.749 459.182 149.48 457.834 154.903C456.772 159.177 457.983 163.643 460.289 167.29C461.315 168.914 462.415 170.051 463.895 171.25L464.423 171.685C466.299 173.179 468.56 174 470.803 174.782C475.39 176.381 481.79 175.648 486.655 175.685L513.025 175.871L548.75 176.055C555.294 176.079 562.01 176.352 568.54 175.967C570.611 175.845 572.448 175.393 574.336 174.549L579.494 168.702C579.145 172 578.979 175.667 577.325 178.622C575.276 185.086 570.036 190.995 564.033 194.098C557.651 197.397 551.539 197.066 544.595 197.096L523.49 197.216L514.516 197.373L498.39 197.24L498.166 197.291C493.306 197.643 488.157 197.182 483.25 197.19C470.517 197.212 457.67 199.013 447.464 189.552C441.895 184.39 438.268 176.848 437.978 169.25C437.675 161.33 440.483 153.704 445.824 147.866Z"/>
	<path fill="#2B8789" transform="scale(0.488281 0.488281)" d="M445.824 147.866L446.75 146.9C454.481 139.539 462.437 138.866 472.595 139.306L468.166 141.979C463.402 144.749 459.182 149.48 457.834 154.903C456.772 159.177 457.983 163.643 460.289 167.29C461.315 168.914 462.415 170.051 463.895 171.25L464.423 171.685C466.299 173.179 468.56 174 470.803 174.782C475.39 176.381 481.79 175.648 486.655 175.685L513.025 175.871L548.75 176.055C555.294 176.079 562.01 176.352 568.54 175.967C570.611 175.845 572.448 175.393 574.336 174.549L579.494 168.702C579.145 172 578.979 175.667 577.325 178.622C577.129 177.865 576.998 177.404 577.188 176.62L577.625 175.125C577.783 174.213 577.593 173.707 578.073 172.836L578.375 172.375L578.148 171.521C577.35 172.435 576.78 173.117 576.37 174.275L576.06 175.188C575.531 175.589 575.078 175.977 574.658 176.496C572.098 179.652 568.865 181.98 564.933 183.115L564.271 183.3C561.335 184.161 558.484 184.128 555.453 184.268L537.483 184.403L501.808 184.112L479.737 184.055C475.901 184.036 471.76 184.294 467.953 183.842C465.148 183.509 462.297 182.602 459.768 181.356C451.094 177.084 446.007 167.21 446.133 157.75C446.167 155.197 447.171 150.953 446.155 148.559L445.824 147.866Z"/>
	<path fill="#6BCFC7" transform="scale(0.488281 0.488281)" d="M472.595 139.306L527.475 139.059L545.562 139.061C549.66 139.065 553.843 138.844 557.881 139.682C562.458 140.631 566.871 143.246 570.25 146.414C576.912 152.662 578.7 159.862 579.494 168.702L574.336 174.549C572.448 175.393 570.611 175.845 568.54 175.967C562.01 176.352 555.294 176.079 548.75 176.055L513.025 175.871L486.655 175.685C481.79 175.648 475.39 176.381 470.803 174.782C468.56 174 466.299 173.179 464.423 171.685L463.895 171.25C462.415 170.051 461.315 168.914 460.289 167.29C457.983 163.643 456.772 159.177 457.834 154.903C459.182 149.48 463.402 144.749 468.166 141.979L472.595 139.306Z"/>
	<path fill="#FCFCFC" transform="scale(0.488281 0.488281)" d="M523.944 151.047C531.335 150.479 538.975 150.824 546.392 150.815C549.912 150.81 555.07 150.189 558.433 151.174C560.006 151.635 561.45 152.898 562.173 154.363C562.947 155.932 563.046 157.637 562.322 159.25C561.549 160.976 560.205 161.734 558.556 162.48C550.706 163.539 541.943 162.76 533.995 162.658C531.203 162.622 527.074 163.063 524.454 162.346C522.756 161.881 521.448 161.01 520.528 159.487C519.524 157.825 519.679 156.325 520.051 154.5C521.152 152.805 522.225 152.082 523.944 151.047Z"/>
	<path fill="#932D86" transform="scale(0.488281 0.488281)" d="M619.469 210.296C628.045 199.665 638.732 190.384 650.24 183.064C683.062 162.187 722.018 155.833 759.84 164.287C770.14 167.677 781.816 170.694 791.008 176.596L790.521 176.558C787.549 176.299 784.719 175.502 781.779 175.059C776.482 174.261 771.065 173.846 765.713 173.713C738.65 173.04 710.731 184.536 690.123 201.633C681.953 208.411 673.804 216.797 668.08 225.75C665.119 230.382 662.893 235.213 660.578 240.178L640.66 225.843L628.91 216.786C626.041 214.509 622.904 211.646 619.469 210.296Z"/>
	<path fill="#D963B0" transform="scale(0.488281 0.488281)" d="M660.578 240.178C662.893 235.213 665.119 230.382 668.08 225.75C673.804 216.797 681.953 208.411 690.123 201.633C710.731 184.536 738.65 173.04 765.713 173.713C771.065 173.846 776.482 174.261 781.779 175.059C784.719 175.502 787.549 176.299 790.521 176.558L791.008 176.596L795.054 178.277C801.254 181.294 806.222 186.358 812.202 189.382L817.918 193.583L830.988 205.676C859.756 236.01 872.029 272.632 872.052 313.986C870.816 339.112 863.459 366.847 848.268 387.257L752.182 311.12L715.847 283.047L660.578 240.178Z"/>
	<path fill="#E58FC9" transform="scale(0.488281 0.488281)" d="M774.553 189.2L774.622 189.19C789.411 188.355 803.622 192.91 815.25 202.13C829.739 213.619 838.611 231.92 840.583 250.122C843.217 274.433 834.597 301.264 820.485 320.989C815.05 328.586 808.536 335.169 802.685 342.421L796.681 337.103L760.326 307.834C749.349 298.652 738.613 290.828 731.721 277.84C723.72 262.761 721.589 246.444 726.451 230C729.952 218.157 737.801 206.371 747.925 199.25C756.181 193.443 764.521 190.205 774.553 189.2Z"/>
	<path fill="#D963B0" transform="scale(0.488281 0.488281)" d="M260.389 165.678C272.119 163.366 283.736 161.598 295.72 161.541C326.895 161.392 358.454 171.103 384.337 188.413C391.696 193.335 400.447 199.103 406.221 205.788L373.787 231.638L308.633 283.024L306.908 284.563L292.113 296.679L272.085 312.427L223.863 350.882C219.378 355.394 213.713 359.244 208.75 363.264L172.869 392.13C157.833 372.126 150.123 346.692 146.849 322.167L146.69 319.134C145.445 288.599 153.767 259.154 170.703 233.653C177.238 223.814 184.935 215.011 192.915 206.34C198.458 200.673 204.337 195.603 210.823 191.041C215.626 187.189 221.272 182.44 226.947 180.123L230.207 178.142C239.229 172.474 250.313 168.965 260.389 165.678Z"/>
	<path fill="#E58FC9" transform="scale(0.488281 0.488281)" d="M308.633 283.024C304.093 275.754 299.664 268.747 294.503 261.86L273.927 234.277C270.377 229.482 265.229 223.879 263.012 218.303C262.073 215.94 262.424 212.394 262.739 209.898C263.713 202.187 267.641 194.326 273.911 189.59C282.967 182.748 295.362 180.608 306.485 182.235C329.014 185.53 348.83 201.543 363.352 218.338L373.787 231.638L308.633 283.024Z"/>
	<path fill="#932D86" transform="scale(0.488281 0.488281)" d="M210.823 191.041C215.626 187.189 221.272 182.44 226.947 180.123L226.294 180.764C222.275 184.608 217.133 187.005 213.076 191.077C197.598 206.612 190.975 229.306 190.056 250.704C188.549 285.809 203.83 322.673 223.863 350.882C219.378 355.394 213.713 359.244 208.75 363.264L172.869 392.13C157.833 372.126 150.123 346.692 146.849 322.167L146.69 319.134C145.445 288.599 153.767 259.154 170.703 233.653C177.238 223.814 184.935 215.011 192.915 206.34C198.458 200.673 204.337 195.603 210.823 191.041Z"/>
	<path fill="#EF2A32" transform="scale(0.488281 0.488281)" d="M423.308 251.072L443.163 245.807C461.32 241.77 479.561 239.528 498.084 238.12L498.328 225.249L498.273 238.021L505.104 237.891L514.876 237.855C517.186 237.954 521.339 237.574 523.402 238.306C536.314 239.158 548.838 240.864 561.588 243.048C570.213 244.526 580.308 246.354 588.493 249.518C619.944 257.944 649.309 269.346 676.733 287.139C683.943 291.817 691.657 297.039 697.652 303.258L699.473 301.121L704.922 294.085L715.847 283.047L752.182 311.12C748.236 315.791 743.726 320.646 740.587 325.894L737.685 330.58C799.169 383.849 833.67 461.2 839.269 541.703C842.373 586.341 835.514 632.005 820.431 674.076C816.435 685.221 812.05 696.56 806.68 707.124L776.238 707.002C760.134 737.64 740.865 763.955 715.754 787.731C710.919 792.309 705.993 797.396 700.702 801.441C689.36 812.47 674.346 821.773 660.901 830.086L655.657 832.933L666.432 848.768C667.655 850.536 671.286 854.42 671.459 856.347L669.403 857.376L641.046 871.764C628.908 877.819 615.609 882.304 602.595 886.096C539.915 904.356 470.208 903.249 408.216 882.474L384.373 873.312L376.579 869.575L347.155 854.234L338.602 848.695L314.517 831.1C306.296 824.5 297.941 817.956 290.192 810.799C283.548 804.662 277.414 798.003 271.26 791.384C213.242 728.999 179.51 640.181 182.724 555.008C185.494 481.607 211.433 410.982 259.426 355.067C267.252 345.949 275.858 337.672 284.647 329.509L284.451 328.63L282.662 326.791C281.605 324.849 279.967 323.154 278.631 321.389L272.085 312.427L292.113 296.679L306.908 284.563C309.008 288.082 311.295 292.039 314.179 294.962C316.59 297.352 318.635 299.672 320.555 302.475L320.263 303.128L334.846 321.223C339.923 319.275 344.491 315.84 349.526 313.636C375.618 295.493 404.164 283.182 434.519 274.288C428.072 268.148 423.989 259.95 423.308 251.072Z"/>
	<path fill="#FCFCFC" transform="scale(0.488281 0.488281)" d="M561.789 284.75C565.308 284.408 569.019 284.667 572.552 284.757C581.848 284.991 590.835 285.897 600 287.521C658.283 297.848 712.789 338.637 746.307 386.543C779.465 433.936 798.935 492.511 799.09 550.44C799.115 559.519 799.451 569.281 797.864 578.25L797.741 579.2C796.881 577.748 797.221 574.566 797.183 572.841L796.525 558.574L794.24 539.812C790.082 511.993 783.378 484.324 772.084 458.484C758.987 428.52 741.562 399.231 720.11 374.437C706.543 358.757 691.406 345.157 674.992 332.551C657.363 319.012 638.061 307.026 617.347 298.803C605.372 294.05 592.902 290.362 580.286 287.752C576.634 286.997 573.006 286.456 569.299 286.058C567.201 285.833 564.309 285.904 562.417 285.057L561.789 284.75Z"/>
	<path fill="#B71017" transform="scale(0.488281 0.488281)" d="M323.631 406.524C325.046 402.674 328.159 399.963 330.564 396.718C338.215 386.39 347.672 377.228 357.305 368.75C375.246 352.961 394.764 339.381 416.527 329.332C426.723 324.624 437.108 320.35 447.902 317.208C495.207 303.434 547.94 305.909 594.093 322.847C620.947 332.702 645.003 347.425 667 365.604C676.225 373.227 685.226 381.31 693.212 390.242C699.372 397.131 704.813 404.611 710.139 412.15C720.131 426.293 729.073 440.99 736.295 456.758C764.462 518.252 766.116 589.394 742.585 652.591C721.472 709.293 679.122 757.653 623.759 782.827C595.264 795.784 562.924 802.425 531.743 803.634C526.444 803.84 519.41 804.675 514.25 803.232C513.632 803.06 513.252 802.687 512.786 802.276C523.803 801.219 534.871 800.502 545.808 798.735C598.196 790.273 646.728 767.51 683.769 729.066C717.732 693.818 739.293 648.252 746.81 599.959C749.29 584.023 749.843 567.852 749.498 551.75C749.239 539.654 747.431 527.595 745.063 515.75C735.194 466.362 710.828 419.533 674.172 384.628C628.82 341.443 568.678 315.121 505.525 316.681C450.93 318.029 398.7 338.662 356.983 373.783C345.131 383.76 334.289 395.298 323.631 406.524Z"/>
	<path fill="#D963B0" transform="scale(0.488281 0.488281)" d="M423.308 251.072L443.163 245.807C461.32 241.77 479.561 239.528 498.084 238.12L498.328 225.249L498.273 238.021L505.104 237.891L514.876 237.855C517.186 237.954 521.339 237.574 523.402 238.306C536.314 239.158 548.838 240.864 561.588 243.048C570.213 244.526 580.308 246.354 588.493 249.518C619.944 257.944 649.309 269.346 676.733 287.139C683.943 291.817 691.657 297.039 697.652 303.258L699.473 301.121L704.922 294.085L715.847 283.047L752.182 311.12C748.236 315.791 743.726 320.646 740.587 325.894L737.685 330.58C799.169 383.849 833.67 461.2 839.269 541.703C842.373 586.341 835.514 632.005 820.431 674.076C816.435 685.221 812.05 696.56 806.68 707.124L776.238 707.002L788.241 681.272C794.612 665.686 799.212 649.666 803.296 633.359C822.775 555.577 808.198 473.367 766.979 405.108C756.665 388.027 744.01 371.073 730.028 356.801C724.704 351.368 718.723 346.477 713.06 341.403C705.422 334.559 697.818 327.748 689.556 321.641C657.354 297.839 621.717 281.79 582.963 272.292C547.196 261.895 508.117 260.072 471.362 265.87C458.816 267.849 446.768 270.992 434.519 274.288C428.072 268.148 423.989 259.95 423.308 251.072Z"/>
	<path fill="#0A87A3" transform="scale(0.488281 0.488281)" d="M699.473 301.121C704.864 303.349 710.053 308.921 714.367 312.854L729.07 325.993C731.3 327.976 733.896 330.762 736.538 332.107L728.509 344.623C724.004 337.19 719.171 330.48 713.219 324.106L701.795 311.844C700.444 310.377 698.398 308.677 697.419 307.018C696.653 305.72 697.296 304.592 697.652 303.258L699.473 301.121Z"/>
	<path fill="#08597F" transform="scale(0.488281 0.488281)" d="M704.922 294.085L715.847 283.047L752.182 311.12C748.236 315.791 743.726 320.646 740.587 325.894L737.685 330.58L736.538 332.107C733.896 330.762 731.3 327.976 729.07 325.993L714.367 312.854C710.053 308.921 704.864 303.349 699.473 301.121L704.922 294.085Z"/>
	<path fill="#B71017" transform="scale(0.488281 0.488281)" d="M306.908 284.563C309.008 288.082 311.295 292.039 314.179 294.962C316.59 297.352 318.635 299.672 320.555 302.475L320.263 303.128L334.846 321.223C339.923 319.275 344.491 315.84 349.526 313.636C345.618 317.633 341.406 320.691 337.221 324.315C328.202 332.126 319.076 340.353 311.139 349.256C259.214 407.497 230.987 482.517 231.852 560.503C232.04 577.408 233.4 594.37 236.54 611C247.886 671.071 278.979 725.514 322.618 768.02C368.837 813.037 433.786 839.451 497.351 846.652C513.999 848.538 530.979 848.703 547.721 848.44C587.014 847.825 627.25 837.642 661.927 819.175C672.294 813.654 681.932 806.835 691.692 800.341L701.427 794.408C704.256 792.501 707.834 790.657 711.186 789.986C709.93 792.516 706.462 795.31 704.253 796.875C703.047 797.729 700.815 800.002 700.702 801.441C689.36 812.47 674.346 821.773 660.901 830.086L655.657 832.933C651.51 834.58 647.498 837.095 643.5 839.098L622.053 848.848C587.249 863.296 547.498 870.856 509.822 870.797C451.696 870.706 393.239 853.104 345.125 820.411C327.597 808.501 311.658 794.535 296.75 779.516C239.543 721.881 208.172 644.367 208.521 563.256C208.709 519.343 218.204 474.494 237.429 434.891C253.017 402.778 274.337 374.243 299.623 349.195C297.86 345.844 287.398 330.596 284.647 329.509L284.451 328.63L282.662 326.791C281.605 324.849 279.967 323.154 278.631 321.389L272.085 312.427L292.113 296.679L306.908 284.563Z"/>
	<path fill="#0F6E7B" transform="scale(0.488281 0.488281)" d="M306.908 284.563C309.008 288.082 311.295 292.039 314.179 294.962C316.59 297.352 318.635 299.672 320.555 302.475L320.263 303.128L334.846 321.223L317.71 333.36L299.623 349.195C297.86 345.844 287.398 330.596 284.647 329.509L284.451 328.63L282.662 326.791C281.605 324.849 279.967 323.154 278.631 321.389L272.085 312.427L292.113 296.679L306.908 284.563Z"/>
	<path fill="#08597F" transform="scale(0.488281 0.488281)" d="M292.113 296.679L298.611 306.611C299.902 308.498 301.786 310.667 302.595 312.787L284.451 328.63L282.662 326.791C281.605 324.849 279.967 323.154 278.631 321.389L272.085 312.427L292.113 296.679Z"/>
	<path fill="#0FACC5" transform="scale(0.488281 0.488281)" d="M302.918 312.939C303.773 311.518 305.53 310.367 306.838 309.337C309.931 306.9 314.604 302.366 318.25 301.133L320.263 303.128L334.846 321.223L317.71 333.36C313.517 326.218 307.725 319.709 302.918 312.939Z"/>
	<path fill="#351C59" transform="scale(0.488281 0.488281)" d="M284.647 329.509C287.398 330.596 297.86 345.844 299.623 349.195C274.337 374.243 253.017 402.778 237.429 434.891C218.204 474.494 208.709 519.343 208.521 563.256C208.172 644.367 239.543 721.881 296.75 779.516C311.658 794.535 327.597 808.501 345.125 820.411C393.239 853.104 451.696 870.706 509.822 870.797C547.498 870.856 587.249 863.296 622.053 848.848L643.5 839.098C647.498 837.095 651.51 834.58 655.657 832.933L666.432 848.768C667.655 850.536 671.286 854.42 671.459 856.347L669.403 857.376L641.046 871.764C628.908 877.819 615.609 882.304 602.595 886.096C539.915 904.356 470.208 903.249 408.216 882.474L384.373 873.312L376.579 869.575L347.155 854.234L338.602 848.695L314.517 831.1C306.296 824.5 297.941 817.956 290.192 810.799C283.548 804.662 277.414 798.003 271.26 791.384C213.242 728.999 179.51 640.181 182.724 555.008C185.494 481.607 211.433 410.982 259.426 355.067C267.252 345.949 275.858 337.672 284.647 329.509Z"/>
	<path fill="#2B8789" transform="scale(0.488281 0.488281)" d="M323.631 406.524C334.289 395.298 345.131 383.76 356.983 373.783C398.7 338.662 450.93 318.029 505.525 316.681C568.678 315.121 628.82 341.443 674.172 384.628C710.828 419.533 735.194 466.362 745.063 515.75C747.431 527.595 749.239 539.654 749.498 551.75C749.843 567.852 749.29 584.023 746.81 599.959C739.293 648.252 717.732 693.818 683.769 729.066C646.728 767.51 598.196 790.273 545.808 798.735C534.871 800.502 523.803 801.219 512.786 802.276C504.284 802.891 495.342 802.822 486.904 801.557C509.992 800.314 531.935 795.807 553.5 787.479C582.754 776.181 608.931 758.4 631.809 737.109C634.952 734.185 640.951 729.604 642.651 725.756L643.194 725.858L658.519 705.25C659.297 704.042 659.732 703.504 660.937 702.686L660.79 702.376C662.208 700.771 663.32 698.419 664.399 696.561L671.524 683.35C688.417 648.445 695.382 611.127 694.149 572.477C691.577 572.115 688.867 571.825 686.485 570.729C682.906 569.082 679.893 565.119 678.724 561.412C677.313 556.937 677.508 552.339 679.878 548.246C682.629 543.494 686.46 541.617 691.572 540.363L687.238 523.223C680.424 500.169 670.661 478.282 658.053 457.818C654.54 452.116 650.221 444.599 645.023 440.327L645.12 439.958C643.846 437.713 641.783 435.602 640.077 433.651L625.473 418.519L625.09 418.519L624.533 417.765C622.122 415.038 618.499 412.629 615.67 410.327C593.729 392.476 570.448 378.214 543.88 368.279C539.024 366.463 533.208 363.904 528.058 363.379L527.975 363.06C523.872 362.449 519.644 360.546 515.663 359.321C509.67 357.478 503.543 356.019 497.378 354.883L497.096 354.963C447.507 345.612 395.225 355.585 353.502 384.15C346.219 389.136 339.16 394.656 332.717 400.696C328.363 404.778 323.603 411.035 318.597 414.03C319.575 411.453 321.951 408.723 323.631 406.524Z"/>
	<path fill="#351C59" transform="scale(0.488281 0.488281)" d="M643.194 725.858L658.519 705.25C659.297 704.042 659.732 703.504 660.937 702.686C662.548 707.159 663.013 710.965 660.96 715.422C658.834 720.037 655.283 723.266 650.5 724.968C648.304 725.749 645.507 725.986 643.194 725.858Z"/>
	<path fill="#040E4A" transform="scale(0.488281 0.488281)" d="M497.378 354.883C499.403 351.124 502.381 348.211 506.531 346.931C510.769 345.625 515.912 346.323 519.753 348.428C523.408 350.431 526.4 353.888 527.448 357.962C527.884 359.658 527.964 361.319 527.975 363.06C523.872 362.449 519.644 360.546 515.663 359.321C509.67 357.478 503.543 356.019 497.378 354.883Z"/>
	<path fill="#040E4A" transform="scale(0.488281 0.488281)" d="M625.473 418.519C630.943 411.96 637.226 401.679 646.43 400.799C650.815 400.381 654.627 401.386 658.029 404.25C661.707 407.345 664.321 411.87 664.47 416.75C664.641 422.376 662.197 426.143 658.329 429.955C654.563 433.666 649.93 437.68 645.12 439.958C643.846 437.713 641.783 435.602 640.077 433.651L625.473 418.519Z"/>
	<path fill="#040E4A" transform="scale(0.488281 0.488281)" d="M691.572 540.363C700.041 540.287 712.261 538.177 718.809 544.483C722.07 547.625 724.55 552.054 724.479 556.699C724.409 561.275 722.176 565.801 718.829 568.866C712.75 574.433 701.816 572.459 694.149 572.477C691.577 572.115 688.867 571.825 686.485 570.729C682.906 569.082 679.893 565.119 678.724 561.412C677.313 556.937 677.508 552.339 679.878 548.246C682.629 543.494 686.46 541.617 691.572 540.363Z"/>
	<path fill="#6BCFC7" transform="scale(0.488281 0.488281)" d="M318.597 414.03C323.603 411.035 328.363 404.778 332.717 400.696C339.16 394.656 346.219 389.136 353.502 384.15C395.225 355.585 447.507 345.612 497.096 354.963L497.378 354.883C503.543 356.019 509.67 357.478 515.663 359.321C519.644 360.546 523.872 362.449 527.975 363.06L528.058 363.379C533.208 363.904 539.024 366.463 543.88 368.279C570.448 378.214 593.729 392.476 615.67 410.327C618.499 412.629 622.122 415.038 624.533 417.765L625.09 418.519L625.473 418.519L640.077 433.651C641.783 435.602 643.846 437.713 645.12 439.958L645.023 440.327C650.221 444.599 654.54 452.116 658.053 457.818C670.661 478.282 680.424 500.169 687.238 523.223L691.572 540.363C686.46 541.617 682.629 543.494 679.878 548.246C677.508 552.339 677.313 556.937 678.724 561.412C679.893 565.119 682.906 569.082 686.485 570.729C688.867 571.825 691.577 572.115 694.149 572.477C695.382 611.127 688.417 648.445 671.524 683.35L664.399 696.561C663.32 698.419 662.208 700.771 660.79 702.376L660.937 702.686C659.732 703.504 659.297 704.042 658.519 705.25L643.194 725.858L642.651 725.756C640.951 729.604 634.952 734.185 631.809 737.109C608.931 758.4 582.754 776.181 553.5 787.479C531.935 795.807 509.992 800.314 486.904 801.557C477.949 801.457 468.712 799.897 459.946 798.163C425.629 791.376 393.324 776.109 365.829 754.498C313.956 713.728 279.951 654.303 271.884 588.752C264.443 528.277 280.966 462.27 318.597 414.03Z"/>
	<path fill="#433588" transform="scale(0.488281 0.488281)" d="M625.09 418.519L625.473 418.519L640.077 433.651C641.783 435.602 643.846 437.713 645.12 439.958L645.023 440.327C642.236 442.381 639.452 445.766 636 446.481C634.431 446.192 633.258 445.527 631.979 444.601C627.396 441.281 618.973 433.501 618.038 427.75C618.749 424.055 622.55 421.099 625.09 418.519Z"/>
	<path fill="#351C59" transform="scale(0.488281 0.488281)" d="M497.378 354.883C503.543 356.019 509.67 357.478 515.663 359.321C519.644 360.546 523.872 362.449 527.975 363.06L528.058 363.379L527.878 380.243C527.35 383.946 524.098 388.039 521.168 390.172C518.003 392.477 513.85 393.884 509.928 393.231L509.25 393.108L506.25 392.46C502.519 391.215 498.423 387.741 496.75 384.181C495.116 380.704 495.416 377.1 495.422 373.366C495.432 367.053 495.015 361.019 497.096 354.963L497.378 354.883Z"/>
	<path fill="#433588" transform="scale(0.488281 0.488281)" d="M642.651 725.756C638.097 724.175 634.545 720.444 631.139 717.19L621.504 707.901C618.978 705.273 617.587 702.028 617.702 698.338C617.873 692.875 620.967 688.917 624.921 685.394C628.122 682.543 631.565 681.702 635.75 682.018C641.165 682.428 656.872 697.923 660.79 702.376L660.937 702.686C659.732 703.504 659.297 704.042 658.519 705.25L643.194 725.858L642.651 725.756Z"/>
	<path fill="#433588" transform="scale(0.488281 0.488281)" d="M307.111 544.612L322.07 544.504C325.41 544.474 330.929 543.769 333.952 545.127L334.5 545.401C338.133 547.193 340.874 550.629 342.221 554.417C343.432 557.821 343.029 561.77 341.45 565C339.425 569.144 336.153 571.479 331.887 572.909L316.509 573.177C312.9 573.223 308.517 573.643 305.124 572.298C301.512 570.868 298.65 567.865 297.204 564.263C295.843 560.869 295.878 556.595 297.304 553.227C299.372 548.345 302.404 546.469 307.111 544.612Z"/>
	<path fill="#433588" transform="scale(0.488281 0.488281)" d="M370.859 399.589C373.62 399.485 376.131 399.633 378.645 400.87C383.483 403.25 397.18 417.157 398.828 422.026C400.046 425.626 399.511 429.876 397.769 433.206C395.329 437.869 391.58 439.695 386.851 441.229C384.106 441.597 381.256 441.183 378.75 440.006C375.508 438.483 372.926 435.201 370.364 432.737C367.264 429.755 363.372 426.669 360.75 423.295C359.857 422.146 359.215 420.835 358.769 419.455C357.402 415.223 357.815 411.092 360.02 407.25C362.565 402.816 366.119 400.879 370.859 399.589Z"/>
	<path fill="#433588" transform="scale(0.488281 0.488281)" d="M382.644 678.599C384.823 678.449 386.879 678.447 389 679.051C393.252 680.262 397.512 683.009 399.606 687.025C401.067 689.827 401.642 693.921 400.558 696.972C399.307 700.497 395.241 703.645 392.693 706.278C387.709 711.428 382.66 718.151 376.006 721.13C374.362 721.372 372.391 721.286 370.818 720.721C367.233 719.433 360.55 712.62 359.033 709.066C358.099 706.876 357.677 702.925 358.772 700.735C361.013 696.257 365.818 692.314 369.36 688.792C371.937 686.231 374.589 683.183 377.53 681.064C379.078 679.948 380.867 679.257 382.644 678.599Z"/>
	<path fill="#2B8789" transform="scale(0.488281 0.488281)" d="M537.62 583.033C538.77 582.519 540.177 582.975 541.428 583.133L551.25 584.269L564.243 584.961C578.418 585.148 591.389 583.06 605.332 581.119L627.707 583.434C623.423 585.65 618.638 587.01 614.077 588.558C592.721 595.808 570.706 600.131 548.25 602.03C539.996 602.728 531.732 603.371 523.488 602.246L528.822 598.606C533.826 594.639 536.855 589.347 537.62 583.033Z"/>
	<path fill="#433588" transform="scale(0.488281 0.488281)" d="M510.69 732.144C514.208 731.855 518.087 732.417 521 734.517C523.805 736.539 526.043 739.764 526.445 743.273C526.977 747.914 526.556 753.104 526.548 757.795C526.541 761.706 526.974 766.254 526.293 770.096C525.891 772.37 524.797 774.689 523.277 776.428C520.118 780.044 516.03 781.288 511.381 781.462C508.142 781.043 505.028 780.395 502.267 778.557C497.928 775.668 494.941 771.24 494.103 766.08C493.566 762.777 493.824 759.19 493.862 755.853C493.933 749.517 493.674 743.905 497.785 738.656C501.025 734.519 505.667 732.849 510.69 732.144Z"/>
	<path fill="#433588" transform="scale(0.488281 0.488281)" d="M499.487 605.42C479.237 638.358 448.696 662.481 412.159 674.972C420.803 639.327 439.863 605.955 468.822 582.891C472.191 591.785 477.215 598.859 486.219 602.774C490.467 604.621 494.928 605.078 499.487 605.42Z"/>
	<path fill="#433588" transform="scale(0.488281 0.488281)" d="M539.108 548.514C547.474 546.816 555.726 544.895 564.222 543.911C587.172 541.253 610.274 543.796 632.53 549.658C639.056 551.377 647.738 553.261 653.293 557.107C654.267 557.782 654.861 558.541 655.538 559.5C655.37 561.156 655.269 561.152 653.956 562.18C650.648 564.768 646.585 566.678 642.833 568.515C631.599 574.018 617.731 579.037 605.332 581.119C591.389 583.06 578.418 585.148 564.243 584.961L551.25 584.269L541.428 583.133C540.177 582.975 538.77 582.519 537.62 583.033L536.251 580.518C538.453 577.379 540.38 574.111 541.417 570.395L541.657 569.5C543.772 561.993 542.037 555.473 539.108 548.514Z"/>
	<path fill="#040E4A" transform="scale(0.488281 0.488281)" d="M510.38 533.022C519.24 532.751 524.913 534.792 532.174 539.756C535.281 542.266 536.986 545.187 539.108 548.514C542.037 555.473 543.772 561.993 541.657 569.5L541.417 570.395C540.38 574.111 538.453 577.379 536.251 580.518L537.62 583.033C536.855 589.347 533.826 594.639 528.822 598.606L523.488 602.246C516.051 604.599 508.851 604.801 501.19 603.25L499.487 605.42C494.928 605.078 490.467 604.621 486.219 602.774C477.215 598.859 472.191 591.785 468.822 582.891L473.666 579.071C471.223 570.952 472.08 563.096 475.642 555.482C479.138 548.009 484.681 541.795 492.547 538.942L493.502 539.575C496.018 537.784 498.685 536.283 501.56 535.147L502.398 534.822C505.106 533.755 507.518 533.352 510.38 533.022Z"/>
	<path fill="#CEC1DC" transform="scale(0.488281 0.488281)" d="M493.502 539.575C496.018 537.784 498.685 536.283 501.56 535.147L502.398 534.822C505.106 533.755 507.518 533.352 510.38 533.022C503.318 536.82 498.205 542.935 495.895 550.648C494.535 555.191 494.648 560.456 495.846 565.008L496.042 565.782C498.006 573.257 503.46 579.995 510.195 583.719C515.821 586.831 522.023 587.332 528.151 585.493L529.212 585.157C530.23 584.851 531.314 584.749 532.366 584.617L531.956 585.023C526.615 589.837 518.675 592.66 511.5 592.448C503.362 592.208 495.619 588.912 490.035 582.963C484.419 576.98 481.567 568.98 481.877 560.793C482.223 551.679 487.087 545.527 493.502 539.575Z"/>
	<path fill="#FCFCFC" transform="scale(0.488281 0.488281)" d="M510.38 533.022C519.24 532.751 524.913 534.792 532.174 539.756C535.281 542.266 536.986 545.187 539.108 548.514C542.037 555.473 543.772 561.993 541.657 569.5L541.417 570.395C540.38 574.111 538.453 577.379 536.251 580.518C535.03 581.917 533.842 583.483 532.366 584.617C531.314 584.749 530.23 584.851 529.212 585.157L528.151 585.493C522.023 587.332 515.821 586.831 510.195 583.719C503.46 579.995 498.006 573.257 496.042 565.782L495.846 565.008C494.648 560.456 494.535 555.191 495.895 550.648C498.205 542.935 503.318 536.82 510.38 533.022Z"/>
	<path fill="#433588" transform="scale(0.488281 0.488281)" d="M492.547 538.942C493.655 535.632 491.548 529.662 491.072 526L489.545 510.75C488.299 492.316 488.929 473.575 491.509 455.281C493.018 444.577 495.184 433.433 499.655 423.534C501.623 419.178 504.244 414.011 508.6 411.631C510.306 410.698 512.119 410.243 514 410.895C519.284 412.727 522.813 419.177 524.906 423.993C530.634 437.178 533.046 452.429 534.207 466.658C536.216 491.28 534.758 515.284 532.174 539.756C524.913 534.792 519.24 532.751 510.38 533.022C507.518 533.352 505.106 533.755 502.398 534.822L501.56 535.147C498.685 536.283 496.018 537.784 493.502 539.575L492.547 538.942Z"/>
</svg>
