<?xml version="1.0" encoding="utf-8" ?>
<svg xmlns="http://www.w3.org/2000/svg" xmlns:xlink="http://www.w3.org/1999/xlink" width="500" height="500">
	<path fill="#5A90C1" transform="scale(0.488281 0.488281)" d="M-0 -0L1024 0L1024 1024L-0 1024L0 -0Z"/>
	<path fill="#FEFEFD" transform="scale(0.488281 0.488281)" d="M359.39 59.75C363.687 58.9312 364.386 66.9162 367.468 69.3246C368.78 70.3492 371.649 70.8918 373.25 71.695C374.442 72.2931 375.45 72.949 375.91 74.25C373.956 78.1424 369.773 77.7155 367.082 80.6004C364.337 83.5421 363.92 87.5111 361.25 90.4447L360.415 90.7229C357.801 88.5016 357.038 83.7869 354.523 81.1688C351.871 78.4068 346.953 77.6044 345.076 74.25C346.593 71.2725 351.259 71.3441 353.633 69.1399C356.37 66.5993 357.032 62.6059 359.39 59.75Z"/>
	<path fill="#FEFEFD" transform="scale(0.488281 0.488281)" d="M146.639 220.118C149.614 219.887 152.518 220.252 155.22 221.58C160.118 223.989 163.862 228.251 165.325 233.539C166.417 237.486 165.177 242.383 163.12 245.76C160.065 250.779 156.064 253.101 150.548 254.495C146.452 254.607 143.229 254.427 139.554 252.287C135.552 249.957 132.421 245.897 131.346 241.382C130.272 236.869 130.921 231.917 133.487 228.018C136.728 223.094 141.094 221.209 146.639 220.118Z"/>
	<path fill="#FEFEFD" transform="scale(0.488281 0.488281)" d="M891.12 740.101C895.193 739.627 899.291 740.05 903.047 741.743C908.933 744.395 913.826 749.937 915.848 756.054C917.803 761.971 917.403 768.258 914.48 773.766C910.974 780.373 903.989 784.859 896.981 786.989C891.869 787.612 886.754 786.688 882.372 783.935C876.676 780.356 872.477 774.689 871.035 768.078C869.622 761.599 870.501 756.233 874.165 750.617C878.141 744.525 884.149 741.499 891.12 740.101Z"/>
	<path fill="#FEFEFD" transform="scale(0.488281 0.488281)" d="M238.552 204.709L230.444 200.746C218.747 194.212 210.261 182.454 206.641 169.67C203.071 157.063 204.906 142.834 211.364 131.493C218.766 118.494 231.156 109.019 245.603 105.191C259.399 101.536 274.62 104.228 286.75 111.593C298.974 119.015 306.566 130.786 309.782 144.488C312.476 159.081 309.888 173.614 301.38 185.958C293.331 197.636 280.573 205.057 266.688 207.526C256.511 209.335 248.222 207.53 238.552 204.709Z"/>
	<path fill="#0C2361" transform="scale(0.488281 0.488281)" d="M905.647 311.327C913.095 300.782 924.931 294.42 937.532 292.21C945.781 290.764 953.958 291.225 962.267 291.66C962.833 300.076 963.321 308.695 961.555 317C959.56 326.38 955.735 334.641 949.242 341.791C945.696 345.696 941.592 349.079 937.883 352.826L919.326 372.97L916.734 375.619C914.818 377.466 912.947 379.435 910.828 381.048L854.867 445.05C849.529 436.412 843.397 430.353 835.129 424.446L829.548 421.171C824.746 418.309 819.596 415.782 814.224 414.207L878.583 341.716L881.396 338.32L894.838 323.65L905.647 311.327Z"/>
	<path fill="#C13C41" transform="scale(0.488281 0.488281)" d="M894.838 323.65L905.647 311.327C906.368 318.909 908.682 326.097 913.216 332.29L895.241 350.6L881.396 338.32L894.838 323.65Z"/>
	<path fill="#C13C41" transform="scale(0.488281 0.488281)" d="M919.326 372.97L899.099 355.15L915.684 336.49C921.378 342.582 928.425 350.687 936.887 352.621L937.883 352.826L919.326 372.97Z"/>
	<path fill="#1367BA" transform="scale(0.488281 0.488281)" d="M878.583 341.716L891.879 353.715L829.548 421.171C824.746 418.309 819.596 415.782 814.224 414.207L878.583 341.716Z"/>
	<path fill="#1367BA" transform="scale(0.488281 0.488281)" d="M835.129 424.446C842.859 418.611 849.431 409.759 855.948 402.562C869.323 387.79 883.273 373.07 895.45 357.286L916.734 375.619C914.818 377.466 912.947 379.435 910.828 381.048L854.867 445.05C849.529 436.412 843.397 430.353 835.129 424.446Z"/>
	<path fill="#F4C457" transform="scale(0.488281 0.488281)" d="M910.828 381.048C916.526 393.404 919.701 407.904 923.041 421.063C942.537 497.877 939.238 580.535 911.895 655.036C896.321 697.471 871.859 738.517 842.432 772.803C835.177 781.256 826.574 788.426 819.264 796.761C816.766 797.251 814.071 797.088 811.524 797.122L797.553 797.301C787.122 797.442 776.414 798.171 766.006 797.67C777.755 789.82 787.847 780.353 795.14 768.144C802.995 754.995 806.149 740.981 810.378 726.423L836.728 623.108L838.568 622.358C841.374 615.024 844.087 608.046 843.909 600.099L842.954 599.204C837.538 596.2 835.576 597.648 829.976 599.076L830.103 596.728C831.003 595.685 831.602 593.152 832.098 591.779C834.575 584.924 837.181 578.041 837.97 570.75C837.355 569.33 836.218 568.808 834.958 568.039C837.734 561.978 841.731 556.409 844.887 550.515C851.745 537.707 856.924 523.594 860.447 509.516C864.069 495.043 867.361 477.505 863.289 462.919C861.47 456.4 858.344 450.804 854.867 445.05L910.828 381.048Z"/>
	<path fill="#1367BA" transform="scale(0.488281 0.488281)" d="M843.909 600.099C845.936 602 847.606 603.53 847.63 606.473C847.66 610.141 844.722 617.611 842.023 620.126C841.038 621.043 839.736 621.703 838.568 622.358C841.374 615.024 844.087 608.046 843.909 600.099Z"/>
	<path fill="#C13C41" transform="scale(0.488281 0.488281)" d="M545.715 759.506C549.062 759.783 552.721 759.863 555.938 760.885C559.685 762.076 563.19 764.749 566.501 766.859C571.187 769.846 576.846 772.693 580.555 776.863L593.645 792.358C606.363 786.101 619.419 780.599 633.628 778.822C652.83 776.421 672.261 782.087 690.259 788.208L696.365 790.296L702.905 792.659C704.783 790.93 706.294 790.635 708.72 790.069C724.121 798.102 739.979 806.205 757.811 800.58L766.006 797.67C776.414 798.171 787.122 797.442 797.553 797.301L811.524 797.122C814.071 797.088 816.766 797.251 819.264 796.761L819.781 796.814C826.871 797.448 834.442 796.564 841.577 796.42L894.451 795.475C897.114 795.474 902.844 794.721 905.099 795.779C899.721 803.857 892.816 811.611 886.35 818.859C849.883 859.73 802.376 888.071 752.5 909.541C715.264 925.57 676.937 937.622 637.178 945.603C602.851 952.494 568.066 957.283 533.049 958.437C452.207 961.101 369.01 947.276 293.5 918.479C260.325 905.827 228.412 890.441 198.827 870.728C189.909 864.785 180.947 858.716 172.625 851.947C152.825 835.841 135.949 817.307 121.172 796.545L156.215 796.998C162.369 797.044 169.393 796.4 175.434 797.321L177.246 796.613C179.096 797.643 182.025 797.061 184.158 796.999L184.452 797.833C185.795 801.883 185.315 807.015 185.998 811.307C188.472 826.851 196.625 840.264 210.747 847.761C215.525 850.298 220.781 851.978 226.152 852.659C240.527 854.481 255.959 853.437 270.447 853.442L349.385 853.399L367.555 853.221C371.022 853.16 374.866 852.734 378.263 853.418C383.948 852.603 390.252 853.09 396.036 852.98C404.388 852.822 413.098 851.973 421.401 852.663L426.557 852.461C423.569 849.186 421.996 842.134 420.812 837.891L420.076 833.925L419.049 818.581L419.089 814.202L420.675 799.521L421.373 795.278L425.331 782.615L427.077 779.033L432.33 770.81C437.964 764.249 443.632 760.64 452.429 760.042C456.82 759.744 465.138 759.587 468.536 762.815C470.398 764.584 470.772 768.243 471.232 770.654C474.565 770.971 479.211 769.487 482.54 768.878L521.07 760.871C529.308 759.625 537.402 759.574 545.715 759.506Z"/>
	<path fill="#0C2361" transform="scale(0.488281 0.488281)" d="M836.051 843.855L840.489 844.148L840.406 844.856C824.906 852.082 807.808 856.713 791.695 862.486L715.561 887.588L623.799 917.619L552.805 941.265L533.923 947.652C531.277 948.538 528.475 949.841 525.737 950.327L378.263 853.418C383.948 852.603 390.252 853.09 396.036 852.98C404.388 852.822 413.098 851.973 421.401 852.663C433.369 864.473 449.005 873.385 463.017 882.621L503.157 909.588L523.25 923.044C527.319 925.774 531.433 928.94 535.93 930.91C558.348 923.109 581.175 915.043 602.383 904.305L649.909 878.061C661.195 872.365 676.861 865.618 689.5 869.996C696.943 872.575 700.703 877.823 704.043 884.559L719.203 879.99C720.245 872.086 722.631 865.811 728.211 859.949C732.407 855.54 736.927 851.938 742.667 849.773C754.446 845.331 769.765 845.029 782.244 844.603L836.051 843.855Z"/>
	<path fill="#FEFEFD" transform="scale(0.488281 0.488281)" d="M545.715 759.506C549.062 759.783 552.721 759.863 555.938 760.885C559.685 762.076 563.19 764.749 566.501 766.859C571.187 769.846 576.846 772.693 580.555 776.863L593.645 792.358C606.363 786.101 619.419 780.599 633.628 778.822C652.83 776.421 672.261 782.087 690.259 788.208L696.365 790.296L702.905 792.659L751.463 813.355C760.173 817.18 768.655 821.331 777.592 824.642L818.492 837.858C823.94 839.582 831.076 841.091 836.051 843.855L782.244 844.603C769.765 845.029 754.446 845.331 742.667 849.773C736.927 851.938 732.407 855.54 728.211 859.949C722.631 865.811 720.245 872.086 719.203 879.99L704.043 884.559C700.703 877.823 696.943 872.575 689.5 869.996C676.861 865.618 661.195 872.365 649.909 878.061L602.383 904.305C581.175 915.043 558.348 923.109 535.93 930.91C531.433 928.94 527.319 925.774 523.25 923.044L503.157 909.588L463.017 882.621C449.005 873.385 433.369 864.473 421.401 852.663L426.557 852.461C423.569 849.186 421.996 842.134 420.812 837.891L420.076 833.925L419.049 818.581L419.089 814.202L420.675 799.521L421.373 795.278L425.331 782.615L427.077 779.033L432.33 770.81C437.964 764.249 443.632 760.64 452.429 760.042C456.82 759.744 465.138 759.587 468.536 762.815C470.398 764.584 470.772 768.243 471.232 770.654C474.565 770.971 479.211 769.487 482.54 768.878L521.07 760.871C529.308 759.625 537.402 759.574 545.715 759.506Z"/>
	<path fill="#0C2361" transform="scale(0.488281 0.488281)" d="M529.383 777.25L545.526 777.247C550.761 777.204 557.62 776.2 562.101 779.333C564.682 781.138 566.808 783.941 568.914 786.283L578.753 796.924C580.114 798.354 584.674 802.243 584.999 803.916L583.75 803.417L572.265 792.943C568.736 789.48 565.189 785.37 561.135 782.522C560.4 782.006 559.191 781.024 558.381 780.784C556.847 780.329 554.095 780.602 552.488 780.626L539.259 780.887C536.215 780.934 530.476 781.714 527.75 780.578C527.371 779.318 527.395 779.044 527.67 777.75L529.383 777.25Z"/>
	<path fill="#0C2361" transform="scale(0.488281 0.488281)" d="M762.553 834.703C772.511 833.812 783.764 834.28 793.545 836.353C769.28 836.304 744.193 835.805 725.627 853.914C722.027 857.763 718.674 862.181 716.65 867.077C715.905 868.88 715.546 871.187 714.408 872.75C713.569 871.833 713.764 872.313 713.603 871.078C712.793 864.868 718.506 857.638 722.216 853.187C732.402 840.963 747.136 836.037 762.553 834.703Z"/>
	<path fill="#0C2361" transform="scale(0.488281 0.488281)" d="M469.996 860.75C470.486 860.668 470.27 860.673 470.972 860.796C473.802 861.289 477.485 863.941 480.06 865.425L500.001 877.109C508.793 882.313 549.293 904.487 553.102 910.25L552.75 911.14L551.062 910.75C544.77 907.653 538.748 903.561 532.626 900.095L488.006 874.427L474.661 866.612C472.376 865.271 469.745 863.99 467.75 862.263L469.996 860.75Z"/>
	<path fill="#0C2361" transform="scale(0.488281 0.488281)" d="M595.245 803.75C596.677 803.541 597.035 803.764 598.38 804.321C606.297 807.599 613.93 811.79 621.606 815.605L667.075 838.871L689.041 850.667C693.049 852.906 697.515 855.11 700.967 858.134C705.09 861.745 706.769 866.305 708.815 871.251C706.133 867.487 703.308 863.704 699.582 860.913C691.329 854.73 681.151 850.278 672.056 845.441L613.999 814.656L602.709 808.42C600.125 807.013 597.421 805.757 595.245 803.75Z"/>
	<path fill="#0C2361" transform="scale(0.488281 0.488281)" d="M676.849 858.221C682.61 857.772 688.96 859.097 694.257 861.361C700.997 864.243 703.581 869.307 706.115 875.785C701.249 869.629 696.912 865.883 689.382 863.38C668.225 856.346 642.195 871.073 623.917 880.529L588.322 899.284C578.391 904.433 568.36 910.714 557.816 914.44C561.159 911.735 565.183 909.799 568.95 907.743L588 897.466C606.974 887.096 625.643 875.911 645.25 866.764C651.522 863.838 657.95 860.893 664.783 859.565L665.75 859.382C669.447 858.655 673.094 858.444 676.849 858.221Z"/>
	<path fill="#0C2361" transform="scale(0.488281 0.488281)" d="M566.378 811.537C564.025 809.287 561.289 806.633 558.33 805.232C555.092 803.7 551.316 803.945 547.831 803.944L532.311 803.946C528.902 803.941 525.475 804.172 522.141 803.348C521.388 802.139 521.472 801.944 521.546 800.5C524.255 798.765 541.104 799.919 545.267 799.986C548.469 800.038 551.999 799.88 555.111 800.688C559.3 801.776 563.562 805.637 566.532 808.706C569.463 811.548 571.638 813.948 573.476 817.677C572.492 821.018 571.552 823.854 569.25 826.567L569.817 827.393C570.915 829.158 570.849 833.455 570.25 835.421C568.915 839.807 565.19 842.871 561.25 844.904C558.554 846.294 555.582 846.92 552.59 847.25C543.025 848.306 532.719 847.547 523.073 847.611C520.129 847.63 515.175 848.398 512.409 847.67C511.228 847.359 511.135 846.743 510.574 845.75C510.706 845.051 510.633 844.083 511.28 843.669C512.915 842.623 516.76 843.044 518.706 843.043L540.432 843.065C546.14 843.067 552.831 843.591 558.293 841.78C561.664 840.663 565.451 838.149 566.711 834.664C567.475 832.549 567.149 829.653 566.177 827.647C565.568 826.392 564.543 824.998 563.156 824.616C561.238 824.089 558.705 824.308 556.701 824.275C552.516 824.795 547.942 824.538 543.713 824.628C538.508 824.739 533.081 825.174 527.892 824.891C524.959 824.732 523.821 824.241 521.847 822.048L521.995 820.997L522.542 820.661C524.73 819.714 530.2 820.723 532.75 820.793L552.149 821.09C555.928 821.231 559.813 821.293 563.402 822.591L567.452 824.403C568.589 822.066 569.315 819.811 569.861 817.269C570.117 816.075 567.506 813.338 566.744 812.128L566.378 811.537Z"/>
	<path fill="#0C2361" transform="scale(0.488281 0.488281)" d="M588.374 806.93L592.725 809.75C596.448 812.366 599.855 816.287 602.718 819.788C611.375 830.375 617.613 842.614 619.968 856.153L612.469 853.165C605.16 849.341 598.603 844.83 592.811 838.922C587.235 833.234 582.63 826.464 577.995 819.999C583.226 816.228 585.62 812.779 588.374 806.93Z"/>
	<path fill="#EA7739" transform="scale(0.488281 0.488281)" d="M432.33 770.81C437.964 764.249 443.632 760.64 452.429 760.042C456.82 759.744 465.138 759.587 468.536 762.815C470.398 764.584 470.772 768.243 471.232 770.654C465.723 773.201 463.666 777.896 461.702 783.328C456.74 797.052 456.288 812.963 457.279 827.364C457.611 832.183 458.011 837.23 459.214 841.918C459.581 843.347 461.61 848.116 461.173 849.2C460.019 852.064 454.363 855.886 451.776 857.119C446.151 859.799 440.681 859.806 434.824 857.704C431.672 856.573 429.055 854.652 426.557 852.461C423.569 849.186 421.996 842.134 420.812 837.891L420.076 833.925L419.049 818.581L419.089 814.202L420.675 799.521L421.373 795.278L425.331 782.615L427.077 779.033L432.33 770.81Z"/>
	<path fill="#F4C457" transform="scale(0.488281 0.488281)" d="M647.102 111.4C651.551 112.3 655.813 114.05 660.083 115.56C671.616 119.64 682.817 124.659 693.856 129.913C740.748 152.23 783.338 182.476 819.279 220.052C839.668 241.368 857.331 264.602 873.611 289.146L894.838 323.65L881.396 338.32L878.583 341.716L814.224 414.207C819.596 415.782 824.746 418.309 829.548 421.171L835.129 424.446C843.397 430.353 849.529 436.412 854.867 445.05C858.344 450.804 861.47 456.4 863.289 462.919C867.361 477.505 864.069 495.043 860.447 509.516C856.924 523.594 851.745 537.707 844.887 550.515C841.731 556.409 837.734 561.978 834.958 568.039C836.218 568.808 837.355 569.33 837.97 570.75C837.181 578.041 834.575 584.924 832.098 591.779C831.602 593.152 831.003 595.685 830.103 596.728L829.976 599.076C835.576 597.648 837.538 596.2 842.954 599.204L843.909 600.099C844.087 608.046 841.374 615.024 838.568 622.358L836.728 623.108L810.378 726.423C806.149 740.981 802.995 754.995 795.14 768.144C787.847 780.353 777.755 789.82 766.006 797.67L757.811 800.58C739.979 806.205 724.121 798.102 708.72 790.069C706.294 790.635 704.783 790.93 702.905 792.659L696.365 790.296L690.259 788.208C672.261 782.087 652.83 776.421 633.628 778.822C619.419 780.599 606.363 786.101 593.645 792.358L580.555 776.863L610.696 692.44L639.175 569.429C639.052 566.265 639.773 562.808 640.083 559.639L641.458 541.08C642.113 524.908 640.812 509.589 639.731 493.515C629.919 481.342 617.284 471.893 605.263 462.102C602.844 459.043 597.219 456.751 593.783 454.935C589.149 452.485 584.435 450.217 579.531 448.355C578.212 447.855 576.838 447.078 575.471 447.5L575.312 449.404C575.071 445.419 572.344 441.081 570.743 437.421C565.174 424.687 559.962 412.382 551.959 400.904C556.513 401.852 560.821 403.071 565.465 403.654C574.59 404.801 584.511 403.805 593.047 400.312C600.616 397.214 606.727 391.255 611.277 384.585C618.532 373.95 622.818 360.919 626.887 348.791L644.777 287.295C646.531 280.862 647.656 273.786 650.272 267.645L650.437 267.269C651.888 265.572 652.109 260.491 652.496 258.25L651.065 257.1C651.7 256.611 651.683 256.227 651.938 255.486C653.846 252.737 657.227 250.108 659.607 247.652C666.152 240.897 671.644 232.277 674.949 223.469C682.9 202.283 678.687 180.505 664.006 163.5C662.196 161.404 660.334 159.574 658.173 157.836C657.674 157.435 655.369 155.945 655.159 155.479C654.975 155.071 655.464 152.137 655.518 151.458C655.795 147.937 656.018 144.491 655.724 140.964C654.821 130.158 651.54 121.188 647.102 111.4Z"/>
	<path fill="#0C2361" transform="scale(0.488281 0.488281)" d="M756.989 595.737C754.77 594.438 752.383 593.045 751.385 590.537C750.663 588.722 750.882 587.114 751.586 585.353C753.347 580.945 755.448 573.617 760.001 571.415C761.351 570.763 763.109 570.505 764.51 571.152C766.389 572.02 767.379 573.655 768.123 575.491L767.827 576.042C765.009 581.403 762.643 593.116 756.989 595.737Z"/>
	<path fill="#FEFEFD" transform="scale(0.488281 0.488281)" d="M697.629 380.25C701.287 379.631 703.512 389.877 706.173 392.412C708.184 394.328 711.246 395.17 713.746 396.291C715.182 396.936 716.887 397.705 717.488 399.25C716.093 403.023 708.651 403.15 706.159 406.155C703.605 409.234 703.364 414.382 700.75 417.915L699.671 418.718L698.75 418.463C696.499 415.28 695.382 412.326 693.954 408.75C693.52 407.662 692.832 405.362 692.129 404.507C691.243 403.429 685.577 402.539 683.99 401.789C682.628 401.146 682.036 400.378 681.531 399C683.772 394.785 688.838 395.929 691.965 393.383C692.524 392.928 693.225 390.721 693.454 390.054C694.591 386.738 695.266 382.926 697.629 380.25Z"/>
	<path fill="#0C2361" transform="scale(0.488281 0.488281)" d="M732.809 515.199C742.009 519.105 747.889 523.279 753.337 531.688C754.54 533.545 756.091 535.565 756.887 537.632L757.139 538.323L714.904 561.96L732.809 515.199Z"/>
	<path fill="#FEFEFD" transform="scale(0.488281 0.488281)" d="M780.003 317.25C780.718 317.165 781.176 316.959 781.844 317.34C785.047 319.168 786.781 326.42 788.01 329.75C788.477 331.016 789.157 333.512 789.934 334.544C790.077 334.734 791.569 335.302 791.804 335.404C795.328 336.931 799.254 337.565 802.682 339.264C804.812 340.319 805.684 341.287 806.386 343.5C803.997 347.555 797.326 349.092 793.162 350.752C792.315 351.09 790.213 351.811 789.66 352.432C789.032 353.138 788.663 354.934 788.351 355.885C786.918 360.252 786.27 366.385 782.994 369.75L782.4 369.907C776.619 370.419 775.851 357.208 773.338 353.665C770.447 349.59 762.479 349.782 758.461 346.612C756.781 345.287 756.63 344.852 756.493 342.75C759.397 337.544 768.195 338.195 772.294 333.53C776.239 329.041 774.245 320.893 780.003 317.25Z"/>
	<path fill="#1367BA" transform="scale(0.488281 0.488281)" d="M766.047 476.907C779.37 480.936 789.445 489.187 796.37 501.351L796.68 501.946L779.614 520.763C776.492 524.149 773.305 528.213 769.666 531.039C765.957 533.92 761.155 535.797 757.139 538.323L756.887 537.632C756.091 535.565 754.54 533.545 753.337 531.688C747.889 523.279 742.009 519.105 732.809 515.199C735.966 509.087 741.597 503.884 746.21 498.816L766.047 476.907Z"/>
	<path fill="#FEFEFD" transform="scale(0.488281 0.488281)" d="M798.834 425.545C792.918 422.455 781.952 420.502 777.827 415.023C777.001 413.925 777.024 413.787 777.25 412.519L777.768 412.165C780.041 410.952 783.618 411.072 786.129 410.999C795.967 410.713 804.711 411.88 814.224 414.207C819.596 415.782 824.746 418.309 829.548 421.171L835.129 424.446C843.397 430.353 849.529 436.412 854.867 445.05C858.344 450.804 861.47 456.4 863.289 462.919C867.361 477.505 864.069 495.043 860.447 509.516C856.924 523.594 851.745 537.707 844.887 550.515C841.731 556.409 837.734 561.978 834.958 568.039L794.368 551.176L798.25 540.273C802.686 526.378 803.541 515.361 796.68 501.946L796.37 501.351C789.445 489.187 779.37 480.936 766.047 476.907C758.081 475.103 750.587 472.171 743.219 468.681C740.011 467.162 735.774 465.238 734.536 461.75C734.912 461.289 735.277 460.817 735.75 460.447C741.819 455.711 759.818 459.173 766.789 460.476L770.196 457.996C764.366 455.904 757.932 454.294 752.383 451.596C749.244 450.071 743.312 447.895 742.157 444.5L743.112 443.128C745.556 441.751 748.473 441.614 751.225 441.362C762.099 440.369 772.55 442.244 783.066 444.83L782.947 441.11C776.702 436.823 768.021 435.903 761.824 431.524C760.025 430.253 759.316 429.359 758.891 427.25C759.274 426.32 759.838 425.815 760.703 425.305C763.344 423.747 767.082 423.764 770.069 423.8C779.94 423.917 788.622 425.823 798.079 428.5L798.834 425.545Z"/>
	<path fill="#1367BA" transform="scale(0.488281 0.488281)" d="M798.834 425.545C803.316 427.167 807.841 428.474 812.154 430.54C824.624 436.515 836.146 446.786 842.028 459.457C843.795 463.261 844.981 466.923 845.977 470.999C842.744 466.31 839.866 461.353 836.4 456.834C826.957 444.522 813.191 432.977 798.079 428.5L798.834 425.545Z"/>
	<path fill="#1367BA" transform="scale(0.488281 0.488281)" d="M770.196 457.996C787.75 461.656 801.037 467.429 811.285 482.989C814.818 488.353 818.561 496.223 819.423 502.609L810.25 488.091C804.012 479.15 795.917 471.411 785.951 466.761C779.84 463.909 773.267 462.258 766.789 460.476L770.196 457.996Z"/>
	<defs>
		<linearGradient id="gradient_0" gradientUnits="userSpaceOnUse" x1="787.33862" y1="464.13565" x2="824.59406" y2="457.9584">
			<stop offset="0" stop-color="#0045AC"/>
			<stop offset="1" stop-color="#0A62B6"/>
		</linearGradient>
	</defs>
	<path fill="url(#gradient_0)" transform="scale(0.488281 0.488281)" d="M782.947 441.11C787.89 442.357 792.936 443.539 797.628 445.575C809.125 450.566 818.85 459.87 825.261 470.571C828.03 475.193 829.932 480.077 831.385 485.25L830.689 485.75C827.84 483.333 826.158 477.986 823.954 474.75C814.029 460.181 800.037 449.462 783.066 444.83L782.947 441.11Z"/>
	<path fill="#0B6772" transform="scale(0.488281 0.488281)" d="M639.731 493.515C668.573 527.258 690.981 565.226 711.139 604.652L724.387 631.638C727.016 637.232 729.309 643.561 732.677 648.723L734.924 650.857C736.326 645.496 738.962 640.31 741.049 635.185L750.475 611.609C752.313 607.02 754.048 599.578 756.989 595.737C762.643 593.116 765.009 581.403 767.827 576.042L768.123 575.491C768.722 576.221 768.36 575.861 769.25 576.528C772.004 575.421 773.894 574.91 776.916 574.992C777.552 571.618 779.09 568.432 780.374 565.261C781.915 561.46 785.084 551.418 788.943 549.787C791.025 549.849 792.457 550.376 794.368 551.176L834.958 568.039C836.218 568.808 837.355 569.33 837.97 570.75C837.181 578.041 834.575 584.924 832.098 591.779C831.602 593.152 831.003 595.685 830.103 596.728L829.976 599.076C835.576 597.648 837.538 596.2 842.954 599.204L843.909 600.099C844.087 608.046 841.374 615.024 838.568 622.358L836.728 623.108L810.378 726.423C806.149 740.981 802.995 754.995 795.14 768.144C787.847 780.353 777.755 789.82 766.006 797.67L757.811 800.58C739.979 806.205 724.121 798.102 708.72 790.069C706.294 790.635 704.783 790.93 702.905 792.659L696.365 790.296L690.259 788.208C672.261 782.087 652.83 776.421 633.628 778.822C619.419 780.599 606.363 786.101 593.645 792.358L580.555 776.863L610.696 692.44L639.175 569.429C639.052 566.265 639.773 562.808 640.083 559.639L641.458 541.08C642.113 524.908 640.812 509.589 639.731 493.515Z"/>
	<path fill="#0C2361" transform="scale(0.488281 0.488281)" d="M842.954 599.204L843.909 600.099C844.087 608.046 841.374 615.024 838.568 622.358L836.728 623.108C836.086 616.943 838.511 612.274 840.583 606.618C841.483 604.163 841.935 601.634 842.954 599.204Z"/>
	<path fill="#0C2361" transform="scale(0.488281 0.488281)" d="M829.482 596.525L830.103 596.728L829.976 599.076C827.903 605.736 826.486 613.161 822.952 619.25L821.5 619.515L820.425 618.5C820.361 617.57 820.375 616.675 820.522 615.75C820.913 613.29 822.089 610.605 822.947 608.266C824.529 603.951 825.614 599.293 829.482 596.525Z"/>
	<path fill="#0C2361" transform="scale(0.488281 0.488281)" d="M813.46 590.78C814.223 592.106 814.844 593.462 815.979 594.503C813.162 600.04 811.505 606.992 808.201 612.091C807.43 613.281 807.326 613.254 806 613.53C804.709 612.847 804.668 612.819 804.045 611.5C804.787 607.646 807.318 603.796 809.029 600.26C810.552 597.113 811.731 593.819 813.46 590.78Z"/>
	<path fill="#0C2361" transform="scale(0.488281 0.488281)" d="M782.197 579.25L782.722 579.403L782.822 579.899C783.359 582.988 781.935 585.591 780.845 588.4C779.137 592.803 777.707 597.907 774.935 601.75L773.25 602.02L772.141 601.365C771.125 598.373 774.571 592.403 775.809 589.43C776.805 587.038 777.591 584.544 778.672 582.189C779.541 580.295 780.365 579.945 782.197 579.25Z"/>
	<path fill="#0C2361" transform="scale(0.488281 0.488281)" d="M798.695 584.702C799.547 586.411 800.115 587.55 800.07 589.482C798.071 593.184 796.731 597.14 795.247 601.065C794.344 603.454 793.541 606.125 791.75 607.988C790.257 607.991 789.367 608.298 788.193 607.327C788.465 603.894 790.687 600.373 792.086 597.249C794.029 592.909 795.337 588.198 798.695 584.702Z"/>
	<path fill="#0C2361" transform="scale(0.488281 0.488281)" d="M732.677 648.723L734.924 650.857C735.269 654.298 729.278 666.384 727.769 670.148C721.347 686.16 715.31 702.176 711.081 718.92L707.639 734.824C707.132 737.661 707.217 742.628 705.5 744.875L703.25 744.961L702.332 744.083C701.728 740.55 702.866 736.181 703.488 732.656C706.549 715.323 712.172 698.7 718.342 682.26C722.607 670.896 727.018 659.477 732.677 648.723Z"/>
	<path fill="#EA553D" transform="scale(0.488281 0.488281)" d="M776.916 574.992C777.552 571.618 779.09 568.432 780.374 565.261C781.915 561.46 785.084 551.418 788.943 549.787C791.025 549.849 792.457 550.376 794.368 551.176L834.958 568.039C836.218 568.808 837.355 569.33 837.97 570.75C837.181 578.041 834.575 584.924 832.098 591.779C831.602 593.152 831.003 595.685 830.103 596.728L829.482 596.525C828.397 594.714 826.391 592.81 824.325 592.201C821.058 591.238 818.674 592.964 815.979 594.503C814.844 593.462 814.223 592.106 813.46 590.78C812.908 589.768 812.57 589.15 811.64 588.42C807.759 585.376 804.346 589.008 800.714 589.423L800.07 589.482C800.115 587.55 799.547 586.411 798.695 584.702C798.277 584.297 798.319 584.313 797.756 583.908C794.718 581.722 792.024 581.995 788.556 582.614L787.657 582.779C786.525 581.722 784.869 579.759 783.487 579.112C780.958 577.928 779.168 576.687 776.916 574.992Z"/>
	<path fill="#0C2361" transform="scale(0.488281 0.488281)" d="M639.175 569.429C641 574.557 640.022 582.157 640.294 587.692C641.731 617.006 642.017 646.911 640.425 676.214L636.732 721.084L610.696 692.44L639.175 569.429Z"/>
	<path fill="#F4C457" transform="scale(0.488281 0.488281)" d="M610.696 692.44L636.732 721.084C652.155 738.629 668.326 755.642 685.544 771.441C692.436 777.764 699.555 784.419 707.477 789.43L708.72 790.069C706.294 790.635 704.783 790.93 702.905 792.659L696.365 790.296L690.259 788.208C672.261 782.087 652.83 776.421 633.628 778.822C619.419 780.599 606.363 786.101 593.645 792.358L580.555 776.863L610.696 692.44Z"/>
	<path fill="#EA553D" transform="scale(0.488281 0.488281)" d="M696.365 790.296C699.554 788.287 703.838 789.228 707.477 789.43L708.72 790.069C706.294 790.635 704.783 790.93 702.905 792.659L696.365 790.296Z"/>
	<path fill="#EA553D" transform="scale(0.488281 0.488281)" d="M423.449 369.44C432.791 367.977 444.56 366.201 453.868 367.947L430.841 425.337C445.123 442.046 461.15 456.7 479.666 468.63C485.798 472.582 493.377 477.366 500.831 477.904C505.117 478.213 508.697 476.968 511.831 474.067C520.46 466.08 525.977 451.975 530.425 441.358C531.382 439.075 533.364 435.47 533.451 433.049C538.949 422.463 542.701 410.337 546.319 398.978L551.959 400.904C559.962 412.382 565.174 424.687 570.743 437.421C572.344 441.081 575.071 445.419 575.312 449.404L575.471 447.5C576.838 447.078 578.212 447.855 579.531 448.355C584.435 450.217 589.149 452.485 593.783 454.935C597.219 456.751 602.844 459.043 605.263 462.102C617.284 471.893 629.919 481.342 639.731 493.515C640.812 509.589 642.113 524.908 641.458 541.08L640.083 559.639C639.773 562.808 639.052 566.265 639.175 569.429L610.696 692.44L580.555 776.863C576.846 772.693 571.187 769.846 566.501 766.859C563.19 764.749 559.685 762.076 555.938 760.885C552.721 759.863 549.062 759.783 545.715 759.506C537.402 759.574 529.308 759.625 521.07 760.871L482.54 768.878C479.211 769.487 474.565 770.971 471.232 770.654C470.772 768.243 470.398 764.584 468.536 762.815C465.138 759.587 456.82 759.744 452.429 760.042C443.632 760.64 437.964 764.249 432.33 770.81L427.077 779.033L425.331 782.615L421.373 795.278L420.675 799.521L419.089 814.202L419.049 818.581L420.076 833.925L420.812 837.891C421.996 842.134 423.569 849.186 426.557 852.461L421.401 852.663C413.098 851.973 404.388 852.822 396.036 852.98C390.252 853.09 383.948 852.603 378.263 853.418C374.866 852.734 371.022 853.16 367.555 853.221L349.385 853.399L270.447 853.442C255.959 853.437 240.527 854.481 226.152 852.659C220.781 851.978 215.525 850.298 210.747 847.761C196.625 840.264 188.472 826.851 185.998 811.307C185.315 807.015 185.795 801.883 184.452 797.833L184.158 796.999L183.699 795.53C184.682 794.137 184.343 792.627 184.26 791.024L183.98 763.314C184.063 725.719 187.664 687.346 194.857 650.439L202.554 619.132L209.394 588.134L215.651 566.636L216.451 564.652L230.193 532.452L231.458 530.293C232.525 529.243 233.609 526.675 234.41 525.329L241.984 513.466C246.088 507.595 250.963 502.246 255.503 496.711C256.65 495.713 257.577 494.679 258.537 493.502L258.858 493.521C260.474 490.747 264.629 488.112 267.247 486.115C276.663 478.93 286.819 471.308 297.341 465.88C307.651 459.663 320.223 455.372 331.908 452.558L378.986 441.745C376.971 436.586 375.466 431.89 375.374 426.299C375.128 411.397 376.321 395.578 387.368 384.395C395.868 375.792 411.434 369.608 423.449 369.44Z"/>
	<path fill="#C13C41" transform="scale(0.488281 0.488281)" d="M404.751 473.996L405.581 473.761C424.894 490.47 446.851 503.193 471.52 510.134C483.091 513.39 495.363 515.367 507.409 514.44C513.135 513.999 518.924 512.659 524.461 511.167L533.993 508.192C534.884 507.894 536.435 507.101 537.331 507.269C522.048 519.761 504.371 524.721 484.75 522.824L467.745 519.907C462.787 518.977 457.534 517.02 452.82 515.2C441.83 510.959 431.039 505.41 421.24 498.864C416.982 496.019 413.167 492.536 408.832 489.833L404.751 473.996Z"/>
	<path fill="#C13C41" transform="scale(0.488281 0.488281)" d="M423.449 369.44C432.791 367.977 444.56 366.201 453.868 367.947L430.841 425.337L423.009 414.706C417.282 405.972 409.037 393.093 411.516 382.25C413.197 374.892 417.685 372.996 423.449 369.44Z"/>
	<path fill="#FEFEFD" transform="scale(0.488281 0.488281)" d="M378.986 441.745C380.694 445.073 382.438 448.399 384.816 451.309C388.564 455.896 392.759 460.342 396.918 464.556L402.558 470.164C402.896 470.497 404.465 471.822 404.643 472.25C404.789 472.604 404.63 473.606 404.751 473.996L408.832 489.833L410.511 495.75C423.545 535.757 453.524 571.612 485.006 598.641C495.359 607.531 505.995 615.946 518.237 622.11L518.662 621.713C522.095 618.119 525.012 612.345 527.448 608.025C542.436 581.445 553.363 550.492 556.438 520.083L557.41 501.861L557.46 493.242C557.461 492.666 557.269 491.024 557.461 490.524C558.134 488.768 561.524 485.794 562.827 484.123C571.214 473.372 575.212 463.045 575.312 449.404L575.471 447.5C576.838 447.078 578.212 447.855 579.531 448.355C584.435 450.217 589.149 452.485 593.783 454.935C597.219 456.751 602.844 459.043 605.263 462.102C601.526 478.601 598.101 494.943 592.788 511.043C584.043 537.544 569.316 564.179 553.202 586.904C547.265 595.276 540.528 603.69 533.526 611.201C529.755 615.247 525.42 618.89 521.806 623.054C520.805 624.207 520.197 625.468 519.766 626.926C517.972 632.996 518.913 641.357 518.958 647.737L519.894 705.138L520.041 721.929C520.048 724.731 520.34 727.854 519.857 730.591L515.034 724.888L514.158 653.886L513.792 642.271C513.757 641.534 513.861 639.491 513.61 638.875C513.351 638.236 507.617 635.763 506.532 635.248C487.671 626.296 469.362 615.996 451.518 605.17C406.39 577.789 365.751 542.444 330.013 503.75L297.341 465.88C307.651 459.663 320.223 455.372 331.908 452.558L378.986 441.745Z"/>
	<path fill="#07AFAE" transform="scale(0.488281 0.488281)" d="M605.263 462.102C617.284 471.893 629.919 481.342 639.731 493.515C640.812 509.589 642.113 524.908 641.458 541.08L640.083 559.639C639.773 562.808 639.052 566.265 639.175 569.429L610.696 692.44L580.555 776.863C576.846 772.693 571.187 769.846 566.501 766.859C563.19 764.749 559.685 762.076 555.938 760.885C552.721 759.863 549.062 759.783 545.715 759.506C538.44 749.155 528.61 739.727 519.857 730.591C520.34 727.854 520.048 724.731 520.041 721.929L519.894 705.138L518.958 647.737C518.913 641.357 517.972 632.996 519.766 626.926C520.197 625.468 520.805 624.207 521.806 623.054C525.42 618.89 529.755 615.247 533.526 611.201C540.528 603.69 547.265 595.276 553.202 586.904C569.316 564.179 584.043 537.544 592.788 511.043C598.101 494.943 601.526 478.601 605.263 462.102Z"/>
	<path fill="#07AFAE" transform="scale(0.488281 0.488281)" d="M297.341 465.88L330.013 503.75C365.751 542.444 406.39 577.789 451.518 605.17C469.362 615.996 487.671 626.296 506.532 635.248C507.617 635.763 513.351 638.236 513.61 638.875C513.861 639.491 513.757 641.534 513.792 642.271L514.158 653.886L515.034 724.888L519.857 730.591C528.61 739.727 538.44 749.155 545.715 759.506C537.402 759.574 529.308 759.625 521.07 760.871L482.54 768.878C479.211 769.487 474.565 770.971 471.232 770.654C470.772 768.243 470.398 764.584 468.536 762.815C465.138 759.587 456.82 759.744 452.429 760.042C443.632 760.64 437.964 764.249 432.33 770.81L397.549 763.315L365.336 757.432C361.544 756.747 356.031 756.528 352.624 754.928L352.29 752.019C355.755 714.107 355.3 675.794 350.49 638L343.737 599.009C342.081 591.329 339.732 583.777 337.498 576.25C333.248 561.933 328.259 548.149 321.951 534.604C316.118 522.079 308.955 509.079 298.157 500.13C289.705 493.124 280.368 490.258 269.491 491.71C266.277 492.139 263.031 493.219 259.835 493.459L258.858 493.521C260.474 490.747 264.629 488.112 267.247 486.115C276.663 478.93 286.819 471.308 297.341 465.88Z"/>
	<path fill="#FEFEFD" transform="scale(0.488281 0.488281)" d="M472.347 708.6C470.095 710.341 467.966 711.642 465 711.432C463.005 711.29 460.961 710.383 459.738 708.764C458.432 707.035 458.13 705.208 458.384 703.101C458.689 700.565 460.461 699.392 462.374 697.923C465.765 701.373 469.383 704.774 472.347 708.6Z"/>
	<path fill="#FEFEFD" transform="scale(0.488281 0.488281)" d="M481.971 719.681L491.431 729.428C490.462 730.467 489.497 731.455 488.241 732.149C486.312 733.216 484.055 733.71 481.911 733.041C479.755 732.368 477.664 730.546 476.799 728.444C475.944 726.365 476.182 724.288 476.952 722.25C478.359 720.566 479.939 720.265 481.971 719.681Z"/>
	<path fill="#FEFEFD" transform="scale(0.488281 0.488281)" d="M504.948 745.027L510.998 751.044C511.045 752.686 511.235 754.867 510.404 756.332C509.538 757.86 508.12 758.85 506.418 759.215C504.358 759.657 501.985 759.147 500.25 757.932C498.838 756.942 498.041 755.036 497.752 753.393C497.419 751.497 497.835 749.505 498.977 747.938C500.517 745.823 502.498 745.461 504.948 745.027Z"/>
	<path fill="#FEFEFD" transform="scale(0.488281 0.488281)" d="M494.669 663.25C496.032 662.908 497.382 662.855 498.75 663.222C500.524 663.699 502.182 665.359 502.96 666.986C503.726 668.586 503.561 670.536 502.905 672.139C501.945 674.487 500.519 675.679 498.25 676.683C497.112 676.997 495.741 677.151 494.601 676.79C492.863 676.239 491.16 674.797 490.304 673.191C489.452 671.591 489.231 669.293 489.88 667.591C490.722 665.383 492.568 664.097 494.669 663.25Z"/>
	<path fill="#FEFEFD" transform="scale(0.488281 0.488281)" d="M489.724 696.06C489.241 693.491 488.871 691.652 490.465 689.422C491.577 687.866 493.323 686.62 495.25 686.397C497.143 686.178 498.957 686.466 500.47 687.678C502.164 689.033 503.427 690.697 503.571 692.918C503.703 694.976 503.244 696.739 501.765 698.212C499.45 700.517 497.009 700.133 494.004 700.138L489.724 696.06Z"/>
	<path fill="#FEFEFD" transform="scale(0.488281 0.488281)" d="M495.641 639.529C496.809 639.686 498.176 639.794 499.255 640.291C501.188 641.181 502.449 642.417 503.159 644.448C503.832 646.377 503.432 648.473 502.409 650.2C501.186 652.269 499.482 652.959 497.25 653.515C496.358 653.571 495.38 653.644 494.5 653.467C492.607 653.085 490.41 651.378 489.596 649.622C488.741 647.78 488.829 645.54 489.702 643.739C490.92 641.225 493.128 640.348 495.641 639.529Z"/>
	<path fill="#0C2361" transform="scale(0.488281 0.488281)" d="M462.374 697.923L453.142 686.486L468.172 673.171L482.096 687.905C484.345 690.369 486.497 693.38 489.037 695.5L489.724 696.06L494.004 700.138L515.034 724.888L519.857 730.591C528.61 739.727 538.44 749.155 545.715 759.506C537.402 759.574 529.308 759.625 521.07 760.871C518.939 757.367 514.197 753.607 510.998 751.044L504.948 745.027C501.189 739.479 495.921 734.431 491.431 729.428L481.971 719.681C481.428 718.368 479.847 716.863 478.898 715.785L472.347 708.6C469.383 704.774 465.765 701.373 462.374 697.923Z"/>
	<path fill="#0B6772" transform="scale(0.488281 0.488281)" d="M258.858 493.521L259.835 493.459C263.031 493.219 266.277 492.139 269.491 491.71C280.368 490.258 289.705 493.124 298.157 500.13C308.955 509.079 316.118 522.079 321.951 534.604C328.259 548.149 333.248 561.933 337.498 576.25C339.732 583.777 342.081 591.329 343.737 599.009L350.49 638C355.3 675.794 355.755 714.107 352.29 752.019L352.624 754.928C356.031 756.528 361.544 756.747 365.336 757.432L397.549 763.315L432.33 770.81L427.077 779.033L425.331 782.615L421.373 795.278L420.675 799.521L419.089 814.202L419.049 818.581L420.076 833.925L420.812 837.891C421.996 842.134 423.569 849.186 426.557 852.461L421.401 852.663C413.098 851.973 404.388 852.822 396.036 852.98C390.252 853.09 383.948 852.603 378.263 853.418C374.866 852.734 371.022 853.16 367.555 853.221L349.385 853.399L270.447 853.442C255.959 853.437 240.527 854.481 226.152 852.659C220.781 851.978 215.525 850.298 210.747 847.761C196.625 840.264 188.472 826.851 185.998 811.307C185.315 807.015 185.795 801.883 184.452 797.833L184.158 796.999L183.699 795.53C184.682 794.137 184.343 792.627 184.26 791.024L183.98 763.314C184.063 725.719 187.664 687.346 194.857 650.439L202.554 619.132L209.394 588.134L215.651 566.636L216.451 564.652L230.193 532.452L231.458 530.293C232.525 529.243 233.609 526.675 234.41 525.329L241.984 513.466C246.088 507.595 250.963 502.246 255.503 496.711C256.65 495.713 257.577 494.679 258.537 493.502L258.858 493.521Z"/>
	<path fill="#0C2361" transform="scale(0.488281 0.488281)" d="M420.812 837.891C416.802 839.158 411.223 838.512 407 838.443C405.599 837.484 405.704 837.413 405.266 835.75L405.669 835.323C408.353 832.996 416.589 833.754 420.076 833.925L420.812 837.891Z"/>
	<path fill="#0C2361" transform="scale(0.488281 0.488281)" d="M425.331 782.615C421.159 782.566 413.812 782.435 410.344 780.094C410.13 778.786 410.682 777.862 411.208 776.708C414.615 775.393 423.303 778.199 427.077 779.033L425.331 782.615Z"/>
	<path fill="#0C2361" transform="scale(0.488281 0.488281)" d="M420.675 799.521C415.689 798.963 408.918 798.984 404.456 796.75C403.868 795.395 404.275 795.026 404.75 793.667C405.083 793.452 405.364 793.112 405.75 793.021C406.615 792.818 408.811 793.403 409.82 793.565L421.373 795.278L420.675 799.521Z"/>
	<path fill="#0C2361" transform="scale(0.488281 0.488281)" d="M419.049 818.581L408.448 818.221C406.815 818.148 404.643 818.294 403.093 817.785C401.889 817.389 401.732 816.777 401.125 815.75L401.648 814.148C404.905 812.032 414.892 813.84 419.089 814.202L419.049 818.581Z"/>
	<path fill="#F4C457" transform="scale(0.488281 0.488281)" d="M295.59 741.618C299.34 735.542 301.549 728.45 304.522 722L304.897 722L305.383 726.216L305.358 741.807C305.289 743.841 305.664 747.529 304.849 749.298L292.287 749.11L295.59 741.618Z"/>
	<path fill="#0C2361" transform="scale(0.488281 0.488281)" d="M292.287 749.11C288.723 749.535 285.221 749.65 281.657 750.264C267.329 752.733 254.035 757.935 242.675 767.126C229.981 777.398 226.104 790.377 224.429 805.999C222.092 790.644 225.209 775.546 234.16 762.734C242.79 750.381 256.191 745.071 270.491 742.32C277.948 740.886 288.094 740.04 295.59 741.618L292.287 749.11Z"/>
	<path fill="#0C2361" transform="scale(0.488281 0.488281)" d="M305.383 726.216C305.329 724.48 304.985 721.989 305.55 720.355C307.591 714.462 310.551 708.618 312.792 702.739L331.477 648.702C334.755 637.715 337.952 626.626 340.173 615.372L342.182 604.663C342.545 602.639 342.542 600.743 343.737 599.009L350.49 638C355.3 675.794 355.755 714.107 352.29 752.019L351.908 754.5C351.689 754.674 351.521 754.952 351.25 755.022C349.998 755.345 345.839 754.27 344.413 754.059L316.379 749.844C312.73 749.395 308.995 749.279 305.324 749.059L305.358 741.807L305.383 726.216Z"/>
	<path fill="#F4C457" transform="scale(0.488281 0.488281)" d="M488.837 94.8244C496.532 81.9866 508.303 72.5809 522.888 68.8578C537.827 65.0442 554.729 66.986 568.014 74.9292C573.656 78.3024 578.496 82.6173 582.703 87.649C585.657 86.2881 588.334 85.2273 591.5 84.4372L592.391 84.2033C598.778 82.6052 606.621 82.8534 613 84.3759C625.962 87.4694 637.3 95.6787 644.449 106.944L647.102 111.4C651.54 121.188 654.821 130.158 655.724 140.964C656.018 144.491 655.795 147.937 655.518 151.458C655.464 152.137 654.975 155.071 655.159 155.479C655.369 155.945 657.674 157.435 658.173 157.836C660.334 159.574 662.196 161.404 664.006 163.5C678.687 180.505 682.9 202.283 674.949 223.469C671.644 232.277 666.152 240.897 659.607 247.652C657.227 250.108 653.846 252.737 651.938 255.486C651.683 256.227 651.7 256.611 651.065 257.1L652.496 258.25C652.109 260.491 651.888 265.572 650.437 267.269L650.272 267.645C647.656 273.786 646.531 280.862 644.777 287.295L626.887 348.791C622.818 360.919 618.532 373.95 611.277 384.585C606.727 391.255 600.616 397.214 593.047 400.312C584.511 403.805 574.59 404.801 565.465 403.654C560.821 403.071 556.513 401.852 551.959 400.904L546.319 398.978C542.701 410.337 538.949 422.463 533.451 433.049C533.364 435.47 531.382 439.075 530.425 441.358C525.977 451.975 520.46 466.08 511.831 474.067C508.697 476.968 505.117 478.213 500.831 477.904C493.377 477.366 485.798 472.582 479.666 468.63C461.15 456.7 445.123 442.046 430.841 425.337L453.868 367.947C444.56 366.201 432.791 367.977 423.449 369.44C411.434 369.608 395.868 375.792 387.368 384.395C376.321 395.578 375.128 411.397 375.374 426.299C375.466 431.89 376.971 436.586 378.986 441.745L331.908 452.558C320.223 455.372 307.651 459.663 297.341 465.88C286.819 471.308 276.663 478.93 267.247 486.115C264.629 488.112 260.474 490.747 258.858 493.521L258.537 493.502C257.577 494.679 256.65 495.713 255.503 496.711C250.963 502.246 246.088 507.595 241.984 513.466L234.41 525.329C233.609 526.675 232.525 529.243 231.458 530.293L230.193 532.452L216.451 564.652L215.651 566.636L209.394 588.134L202.554 619.132L194.857 650.439C187.664 687.346 184.063 725.719 183.98 763.314L184.26 791.024C184.343 792.627 184.682 794.137 183.699 795.53L184.158 796.999C182.025 797.061 179.096 797.643 177.246 796.613L175.434 797.321C172.402 789.274 170.602 780.198 168.479 771.836L159.569 737.5C157.977 731.277 156.808 723.788 154.147 717.98C147.608 715.24 141.183 712.681 135.007 709.144C121.053 701.151 109.093 690.72 98.2347 678.935C94.5377 674.922 90.6245 670.766 87.8211 666.074L87.0662 665.05C84.0494 662.932 75.823 648.923 74.2261 645.151L73.0921 643.961C68.6804 636.667 65.2512 628.234 62.3256 620.232C61.0251 616.676 59.376 612.737 59.0068 608.954C57.6647 606.721 57.1931 603.758 56.5487 601.25C55.1064 595.637 53.639 589.939 52.7587 584.206C50.7508 578.778 50.492 571.731 49.9265 565.927C47.3859 539.852 47.9099 515.47 53.0063 489.75C54.3363 483.038 55.6584 475.964 58.4126 469.673C60.8844 480.091 64.2722 490.244 69.355 499.702C77.1752 514.252 89.2303 527.847 99.9307 540.407C99.8748 521.786 99.9038 503.36 101.524 484.795C109.101 397.962 141.76 315.993 197.187 248.643C209.998 233.076 224.489 219.114 238.552 204.709C248.222 207.53 256.511 209.335 266.688 207.526C280.573 205.057 293.331 197.636 301.38 185.958C309.888 173.614 312.476 159.081 309.782 144.488C310.853 143.49 313.32 142.675 314.672 142.015L329.039 135.071C366.187 117.386 406.218 105.469 446.898 99.4406L488.837 94.8244Z"/>
	<path fill="#FEFEFD" transform="scale(0.488281 0.488281)" d="M315.43 252.25L316.525 251.961C319.365 253.461 320.42 259.599 322.666 262.268C325.171 265.247 328.708 265.788 331.663 267.945C332.654 268.669 332.744 268.862 332.957 270C330.765 272.953 326.165 273.045 323.535 275.575C320.455 278.537 320.067 283.32 317.654 286.75C317.168 286.77 316.635 287.021 316.197 286.81C315.533 286.491 314.566 284.48 314.223 283.814C312.738 280.931 311.292 277.254 308.761 275.135C306.395 273.154 302.919 272.033 300.25 270.412L300.087 269.25C302.656 266.548 306.501 265.678 309.017 262.972C311.849 259.926 312.712 255.43 315.43 252.25Z"/>
	<path fill="#7C1F3A" transform="scale(0.488281 0.488281)" d="M74.2261 645.151L125.066 652.622L135.213 673.039L87.0662 665.05C84.0494 662.932 75.823 648.923 74.2261 645.151Z"/>
	<path fill="#7C1F3A" transform="scale(0.488281 0.488281)" d="M87.8211 666.074L103.377 668.419L122.25 671.287C126.718 672.016 131.929 672.663 136.003 674.703L144.593 693.42L106.25 685.531L106.25 685.807C109.872 687.364 114.894 687.947 118.782 688.75L137.532 692.831C139.105 693.194 143.442 693.749 144.678 694.76C145.032 695.049 145.718 696.941 145.94 697.411L149.651 705.526L154.147 717.98C147.608 715.24 141.183 712.681 135.007 709.144C121.053 701.151 109.093 690.72 98.2347 678.935C94.5377 674.922 90.6245 670.766 87.8211 666.074Z"/>
	<path fill="#7C1F3A" transform="scale(0.488281 0.488281)" d="M59.0068 608.954L59.7482 609.174C63.6279 610.257 68.5197 610.34 72.5273 610.841L96.642 614.333C98.8375 614.716 102.659 615.101 104.524 616.219C104.966 616.484 105.845 618.069 106.114 618.497L114.939 634.347C106.644 632.852 97.6456 630.056 89.25 629.956L89.5 630.524C96.1368 631.801 102.806 632.636 109.399 634.233C111.566 634.759 114.242 635.143 116.145 636.296L124.524 651.255L73.0921 643.961C68.6804 636.667 65.2512 628.234 62.3256 620.232C61.0251 616.676 59.376 612.737 59.0068 608.954Z"/>
	<path fill="#5A90C1" transform="scale(0.488281 0.488281)" d="M175.334 345.571C177.342 342.679 179.348 340.342 181.948 337.968C181.305 339.966 180.76 342.007 179.721 343.841C175.453 371.836 178.034 399.787 184.949 427.175C186.236 432.271 187.424 438.652 189.881 443.299C183.333 459.749 177.387 475.922 174.367 493.463C172.87 502.159 172.432 510.836 172.186 519.637L171.564 539.931C171.773 541.646 172.002 543.327 171.979 545.057C172.429 558.237 177.578 573.395 184.538 584.582L181.613 593.083L178.725 590.855C159.965 576.035 143.644 554.611 134.833 532.438C129.63 519.344 126.74 505.402 125.108 491.443C120.226 449.688 133.398 407.38 155.638 372.325C161.577 362.964 168.462 354.252 175.334 345.571Z"/>
	<path fill="#0C2361" transform="scale(0.488281 0.488281)" d="M175.334 345.571C177.342 342.679 179.348 340.342 181.948 337.968C181.305 339.966 180.76 342.007 179.721 343.841C178.539 344.991 178.262 345.569 177.571 347.044C176.702 348.898 175.097 350.747 173.989 352.5C172.387 355.034 170.997 357.703 169.683 360.394C165.224 369.526 160.78 378.811 157.559 388.461C151.695 406.025 149.651 424.006 148.468 442.395C148.472 475.414 151.985 512.038 171.564 539.931C171.773 541.646 172.002 543.327 171.979 545.057C170.721 540.941 168.255 537.54 166.031 533.894C163.648 529.989 161.547 526 159.711 521.809C148.896 497.104 146.257 469.367 146.576 442.71C146.317 437.59 146.972 432.344 147.486 427.25C149.756 404.744 155.826 384.441 165.851 364.229C168.546 358.797 171.279 353.041 174.989 348.215C175.476 347.581 175.305 346.379 175.334 345.571Z"/>
	<path fill="#5A90C1" transform="scale(0.488281 0.488281)" d="M148.468 442.395C149.651 424.006 151.695 406.025 157.559 388.461C160.78 378.811 165.224 369.526 169.683 360.394C170.997 357.703 172.387 355.034 173.989 352.5C175.097 350.747 176.702 348.898 177.571 347.044C178.262 345.569 178.539 344.991 179.721 343.841C175.453 371.836 178.034 399.787 184.949 427.175C186.236 432.271 187.424 438.652 189.881 443.299C183.333 459.749 177.387 475.922 174.367 493.463C172.87 502.159 172.432 510.836 172.186 519.637L171.564 539.931C151.985 512.038 148.472 475.414 148.468 442.395Z"/>
	<path fill="#7C1F3A" transform="scale(0.488281 0.488281)" d="M52.7587 584.206C50.7508 578.778 50.492 571.731 49.9265 565.927C47.3859 539.852 47.9099 515.47 53.0063 489.75C54.3363 483.038 55.6584 475.964 58.4126 469.673C60.8844 480.091 64.2722 490.244 69.355 499.702C77.1752 514.252 89.2303 527.847 99.9307 540.407L100.297 540.912C105.76 548.331 112.141 555.149 117.861 562.388C132.693 581.162 146.537 600.389 156.754 622.115C161.396 631.984 165.34 641.901 167.167 652.711C169.306 665.368 168.588 680.262 166.687 692.892C165.639 699.856 163.736 708.324 160.117 714.434C160.028 713.654 159.925 712.94 159.976 712.153C159.362 713.381 159.178 714.459 159.317 715.808C159.547 718.041 157.722 721.572 156.903 723.719C156.086 721.063 150.956 706.972 151.796 705.32L152.129 704.9C152.858 703.763 152.789 702.061 153.045 700.75C153.622 697.797 154.66 694.826 155.541 691.946L166.669 658.75L166.068 658.75C164.406 661.741 163.629 665.737 162.464 669C158.203 680.928 154.055 692.633 150.956 704.933C148.401 700.468 146.359 695.263 144.793 690.361C144.353 688.984 143.498 686.986 143.526 685.557C143.566 683.504 144.406 680.829 144.789 678.775C145.738 673.688 146.641 668.485 148.02 663.5L152.575 649C153.785 645.67 156.182 641.148 156.628 637.75C155.237 638.373 153.443 643.958 152.815 645.592C147.748 658.772 145.232 671.655 142.681 685.439C140.223 679.401 136.735 673.874 134.486 667.75L134.278 667.226C132.849 663.415 134.752 656.682 135.443 652.812L140.281 626.703C140.813 623.721 141.854 620.491 141.999 617.5L141.599 617.5C140.12 621.663 139.527 626.51 138.622 630.867C136.326 641.912 133.936 653.259 132.694 664.47L122.177 644.618C121.764 643.933 121.484 643.389 121.432 642.567C121.259 639.86 121.812 636.77 122.088 634.063L123.381 619.922C124.078 612.051 124.032 603.953 124.05 596.051C124.052 594.771 124.46 590.169 123.452 589.75C122.815 591.466 123.055 593.543 123.032 595.359L122.86 607.236C122.613 618.667 121.281 629.902 120.321 641.275L109.75 622.453C108.686 620.564 106.44 617.627 105.877 615.624C105.322 613.644 106.282 608.316 106.342 606.064L106.495 573.875C106.492 572.08 106.981 565.938 106 564.7L105.437 565.25L104.839 614.472C101.724 607.312 97.4632 600.923 93.367 594.304L81.1268 573.697C77.1521 566.909 74.2527 559.493 70.1661 552.809L69.5357 552.75C71.7681 559.191 75.5086 565.445 78.5767 571.547L61.9108 564.036C60.293 563.388 58.277 562.25 56.5675 562.25C57.349 563.334 59.2359 563.882 60.5 564.41L71.6728 569.162C73.883 570.174 75.9256 571.377 78.0437 572.556C81.9031 574.705 88.6166 588.752 90.9987 593.028L90.9116 593.366L53.5224 584.559C53.7703 584.841 53.9309 585.236 54.266 585.406C56.9465 586.766 61.7109 586.813 64.75 587.487C72.7355 589.26 80.8105 591.176 88.594 593.704C89.2989 593.932 91.8364 594.487 92.2934 594.925C93.5395 596.12 94.7985 598.823 95.7086 600.337C98.5327 605.035 101.551 609.883 103.904 614.835C97.7442 613.617 61.7767 607.587 59.0068 608.954C57.6647 606.721 57.1931 603.758 56.5487 601.25C55.1064 595.637 53.639 589.939 52.7587 584.206Z"/>
	<path fill="#EA553D" transform="scale(0.488281 0.488281)" d="M189.881 443.299L190.17 442.865C192.913 438.661 194.917 433.593 197.367 429.147C202.276 420.24 207.631 411.742 213.586 403.499C220.402 394.066 228.65 385.541 236.857 377.329C256.309 357.862 278.453 341.423 303.487 329.794C319.875 322.181 337.368 316.839 355 313.022L402.598 306.185L401.991 306.476C396.39 309.233 391.325 313.411 386.515 317.351C365.639 334.45 352.342 356.36 344.113 381.89C336.836 404.469 332.75 428.873 331.908 452.558C320.223 455.372 307.651 459.663 297.341 465.88C286.819 471.308 276.663 478.93 267.247 486.115C264.629 488.112 260.474 490.747 258.858 493.521L258.537 493.502C257.577 494.679 256.65 495.713 255.503 496.711C250.963 502.246 246.088 507.595 241.984 513.466L234.41 525.329C233.609 526.675 232.525 529.243 231.458 530.293L230.193 532.452L216.451 564.652L215.651 566.636L209.394 588.134L202.554 619.132L194.857 650.439C187.664 687.346 184.063 725.719 183.98 763.314L184.26 791.024C184.343 792.627 184.682 794.137 183.699 795.53L184.158 796.999C182.025 797.061 179.096 797.643 177.246 796.613C171.984 738.452 168.77 679.23 176.732 621.151C177.974 612.095 178.904 601.774 181.613 593.083L184.538 584.582C177.578 573.395 172.429 558.237 171.979 545.057C172.002 543.327 171.773 541.646 171.564 539.931L172.186 519.637C172.432 510.836 172.87 502.159 174.367 493.463C177.387 475.922 183.333 459.749 189.881 443.299Z"/>
	<path fill="#F4C457" transform="scale(0.488281 0.488281)" d="M172.603 520.18L173.745 520.324C180.036 537.578 186.295 556.006 189.563 574.099C193.162 566.142 195.139 557.187 197.806 548.86C198.651 546.221 200.797 541.929 200.917 539.28C200.954 538.451 200.263 536.877 200.009 536L197.366 527.075L189.123 496.998C187.071 489.39 184.122 480.858 183.663 473.018L183.998 473.018C186.003 477.622 186.792 483.154 188.18 488.016L202.163 536.422L210.802 514.48C211.501 512.739 213.406 509.696 213.645 507.961C213.745 507.237 212.811 504.826 212.61 503.998L209.489 490L201.868 446.779C201.481 444.06 199.574 433.406 200.75 431.842C202.778 434.887 202.724 441.8 203.245 445.5L206.762 467.786C208.954 480.339 211.03 493.648 214.421 505.904C216.089 502.345 229.165 476.96 228.848 475.5C228.826 475.4 228.133 474.624 228.091 474.5C227.037 471.356 227.372 465.849 227.113 462.437L224.772 419.084C224.655 414.407 224.102 409.681 224.599 405.002L225.41 405.002L225.745 407.5L229.677 474.016C232.378 469.864 234.633 465.4 237.151 461.133L244.122 448.955C244.733 447.759 245.824 446.143 246.036 444.861C246.75 440.562 245.577 434.715 245.55 430.215C245.463 415.612 245.283 400.075 246.663 385.553L247.451 385.107C248.293 387.476 248.019 390.387 247.97 392.88L247.658 407.794L247.567 442.585L261.43 423.473C262.908 421.415 265.563 418.541 266.416 416.214C266.945 414.772 266.696 411.859 266.75 410.257L267.397 396.505C267.567 390.986 270.352 358.824 273 356.341L273.683 356.75L270.08 382.5C269.361 386.798 269.603 391.213 269.05 395.5C268.264 401.583 268.197 408.207 268.051 414.347L293.235 383.321C295.467 370.701 303.598 343.639 312.25 334.491L313.027 335.25C309.846 339.425 307.687 344.179 305.673 349C301.409 359.208 298.104 369.758 295.254 380.446L314.956 359.785C327.4 347.566 341.497 336.367 355.589 326.126C361.385 321.914 367.356 317.228 373.939 314.358L352.785 332.25L325.705 358.076C314.566 369.103 303.595 380.244 293.46 392.212C288.933 397.557 284.106 402.489 280.411 408.487L283.166 406.623C288 403.474 293.357 400.816 298.454 398.103C306.074 394.048 313.784 389.968 321.697 386.512C323.661 385.654 328.034 383.125 329.97 383.542L330.094 384.25C327.541 386.035 324.296 387.049 321.484 388.393L302.649 397.689C295.325 401.426 288.283 406.254 280.885 409.71C276.056 411.967 271.673 419.512 268.52 423.823C262.454 432.117 255.604 440.653 251.074 449.907C256.438 445.801 262.262 442.457 268 438.911C281.37 430.649 295.34 422.691 310 416.943L310.715 417.5C309.669 418.974 307.062 419.706 305.413 420.492L290.45 427.871C279.488 433.631 268.853 439.996 258.499 446.784C255.52 448.736 251.715 450.681 249.296 453.319C246.697 456.153 244.674 460.255 242.739 463.574L229.705 487.656C240.549 478.896 252.976 471.578 265.189 464.9C269.501 462.543 289.801 451.397 292.725 452.25C291.432 453.597 288.753 454.53 287.036 455.378L274.25 461.795C267.414 465.343 230.568 485.848 228.148 491.168L215.545 518.86C220.052 515.228 255.107 493.805 258.537 493.502C257.577 494.679 256.65 495.713 255.503 496.711C250.963 502.246 246.088 507.595 241.984 513.466L234.41 525.329C233.609 526.675 232.525 529.243 231.458 530.293L230.193 532.452L216.451 564.652L215.651 566.636L209.394 588.134L202.554 619.132L194.857 650.439C187.664 687.346 184.063 725.719 183.98 763.314L184.26 791.024C184.343 792.627 184.682 794.137 183.699 795.53L184.158 796.999C182.025 797.061 179.096 797.643 177.246 796.613C171.984 738.452 168.77 679.23 176.732 621.151C177.974 612.095 178.904 601.774 181.613 593.083L184.538 584.582L186.803 585.333C187.397 582.983 188.826 579.53 188.935 577.199C188.971 576.428 188.327 574.875 188.113 574.028L185.902 565.396L172.603 520.18Z"/>
	<path fill="#EA553D" transform="scale(0.488281 0.488281)" d="M215.651 566.636L209.394 588.134C206.861 589.409 204.603 591.39 202.339 593.089C197.3 596.872 192.592 600.859 188.028 605.2C187.941 602.898 189.334 599.512 189.917 597.229L195.31 576.567C201.307 572.644 208.887 568.965 215.651 566.636Z"/>
	<path fill="#EA553D" transform="scale(0.488281 0.488281)" d="M216.451 564.652L196.04 573.977L201.757 553.744C202.401 551.717 203.709 545.858 205.063 544.385C205.677 543.717 208.03 542.833 208.917 542.373L230.193 532.452L216.451 564.652Z"/>
	<path fill="#EA553D" transform="scale(0.488281 0.488281)" d="M255.503 496.711C250.963 502.246 246.088 507.595 241.984 513.466L234.41 525.329C233.609 526.675 232.525 529.243 231.458 530.293C228.783 531.157 226.173 532.69 223.567 533.807L205.45 541.651L212.092 526.229C212.691 524.926 213.422 522.621 214.297 521.528C214.862 520.822 216.667 519.998 217.508 519.404C224.957 514.142 232.957 509.546 240.831 504.954C245.638 502.152 250.44 498.983 255.503 496.711Z"/>
	<path fill="#0C2361" transform="scale(0.488281 0.488281)" d="M184.538 584.582L186.803 585.333C183.827 597.276 182.365 610.091 181.001 622.328C175.828 668.718 176.185 715.892 179.922 762.376L183.699 795.53L184.158 796.999C182.025 797.061 179.096 797.643 177.246 796.613C171.984 738.452 168.77 679.23 176.732 621.151C177.974 612.095 178.904 601.774 181.613 593.083L184.538 584.582Z"/>
	<path fill="#0C2361" transform="scale(0.488281 0.488281)" d="M488.837 94.8244C496.532 81.9866 508.303 72.5809 522.888 68.8578C537.827 65.0442 554.729 66.986 568.014 74.9292C573.656 78.3024 578.496 82.6173 582.703 87.649C585.657 86.2881 588.334 85.2273 591.5 84.4372L592.391 84.2033C598.778 82.6052 606.621 82.8534 613 84.3759C625.962 87.4694 637.3 95.6787 644.449 106.944L647.102 111.4C651.54 121.188 654.821 130.158 655.724 140.964C656.018 144.491 655.795 147.937 655.518 151.458C655.464 152.137 654.975 155.071 655.159 155.479C655.369 155.945 657.674 157.435 658.173 157.836C660.334 159.574 662.196 161.404 664.006 163.5C678.687 180.505 682.9 202.283 674.949 223.469C671.644 232.277 666.152 240.897 659.607 247.652C657.227 250.108 653.846 252.737 651.938 255.486C651.683 256.227 651.7 256.611 651.065 257.1L652.496 258.25C652.109 260.491 651.888 265.572 650.437 267.269L650.272 267.645C647.656 273.786 646.531 280.862 644.777 287.295L626.887 348.791C622.818 360.919 618.532 373.95 611.277 384.585C606.727 391.255 600.616 397.214 593.047 400.312C584.511 403.805 574.59 404.801 565.465 403.654C560.821 403.071 556.513 401.852 551.959 400.904L546.319 398.978C542.701 410.337 538.949 422.463 533.451 433.049C533.364 435.47 531.382 439.075 530.425 441.358C525.977 451.975 520.46 466.08 511.831 474.067C508.697 476.968 505.117 478.213 500.831 477.904C493.377 477.366 485.798 472.582 479.666 468.63C461.15 456.7 445.123 442.046 430.841 425.337L453.868 367.947C454.009 367.864 454.444 366.692 454.562 366.413L461.363 349.522C457.847 351.252 454.43 352.858 450.605 353.805C440.998 356.184 429.995 354.289 421.66 349.043C416.561 345.833 411.861 340.127 410.504 334.162L410.364 333.5C409.808 330.981 409.735 328.466 410.04 325.903C411.22 315.97 417.708 309.754 425.266 303.972C419.182 303.398 413.379 302.419 407.592 300.405C395.348 296.145 385.399 287.834 379.814 276.056C375.85 267.699 375.062 258.061 378.302 249.311C383.445 235.422 394.1 228.449 406.88 222.484C396.272 214.04 389.509 205.249 387.775 191.453C386.378 180.341 390.168 168.749 397.087 160.038C403.897 151.464 415.919 144.7 426.835 143.587L427.607 143.512C428.618 139.479 429.864 136.026 432.015 132.442C437.574 123.181 447.053 116.055 457.582 113.573L458.5 113.364C466.845 111.416 474.372 112.596 482.161 115.888C483.593 108.382 485.692 101.79 488.837 94.8244Z"/>
	<path fill="#FEFEFD" transform="scale(0.488281 0.488281)" d="M461.363 349.522L472.977 322.847C469.252 322.655 465.156 322.712 461.551 321.755L460.75 321.527C457.814 320.721 455.269 319.74 452.682 318.103C444.794 313.109 439.075 303.512 437.332 294.427C435.644 285.628 437.109 276.868 442.25 269.442C446.216 263.712 453.056 258.804 460 257.576C466.856 256.364 474.235 257.55 479.954 261.664C487.865 267.353 491.334 276.665 492.84 285.935C495.631 284.643 498.198 283.21 500.521 281.183C511.002 272.04 515.055 257.423 516.02 244.096C524.32 244.555 532.475 244.027 540.689 242.807C570.655 238.355 601.041 227.124 623.25 205.926C629.526 199.936 635.115 192.701 640.278 185.742C650.843 207.195 653.326 231.959 651.938 255.486C651.683 256.227 651.7 256.611 651.065 257.1L652.496 258.25C652.109 260.491 651.888 265.572 650.437 267.269L650.272 267.645C647.656 273.786 646.531 280.862 644.777 287.295L626.887 348.791C622.818 360.919 618.532 373.95 611.277 384.585C606.727 391.255 600.616 397.214 593.047 400.312C584.511 403.805 574.59 404.801 565.465 403.654C560.821 403.071 556.513 401.852 551.959 400.904L546.319 398.978C542.701 410.337 538.949 422.463 533.451 433.049C533.364 435.47 531.382 439.075 530.425 441.358C525.977 451.975 520.46 466.08 511.831 474.067C508.697 476.968 505.117 478.213 500.831 477.904C493.377 477.366 485.798 472.582 479.666 468.63C461.15 456.7 445.123 442.046 430.841 425.337L453.868 367.947C454.009 367.864 454.444 366.692 454.562 366.413L461.363 349.522Z"/>
	<path fill="#0C2361" transform="scale(0.488281 0.488281)" d="M570.007 343.25C571.343 343.734 573.205 346.841 574.337 347.988C576.185 349.86 578.397 351.478 580.8 352.554C589.185 356.308 597.072 354.938 605.382 351.925L602.248 356.077C600.646 357.332 599.008 358.363 597.136 359.177C591.617 361.574 584.901 361.801 579.36 359.415C575.42 357.717 572.625 354.996 571.006 350.991C570.056 348.639 568.966 345.685 570.007 343.25Z"/>
	<path fill="#0C2361" transform="scale(0.488281 0.488281)" d="M461.984 275.138C463.706 274.997 465.559 275.159 467.25 275.504C470.358 276.136 473.345 277.654 474.953 280.5C478.495 286.767 470.852 287.786 468.703 291.7C468.389 292.272 468.251 293.343 468.07 294C469.265 299.952 473.913 298.228 477.75 300.892L477.862 301.953L476.512 303.25C473.622 304.148 471.607 303.768 468.789 302.824C467.525 302.067 466.195 301.048 465.25 299.905C464.032 298.434 463.441 296.511 463.313 294.632C463.07 291.078 464.643 288.63 467.25 286.377C468.728 285.1 470.258 284.511 470.531 282.5C467.96 279.047 461.951 279.501 458.25 280.534C456.561 281.006 454.954 282.129 453.225 281.783C453.05 280.12 453.004 279.766 453.665 278.25C456.33 276.3 458.758 275.695 461.984 275.138Z"/>
	<path fill="#0C2361" transform="scale(0.488281 0.488281)" d="M650.437 267.269L647.159 265.59C635.43 259.82 621.385 261.618 609.42 265.733C613.661 259.814 618.919 255.575 625.973 253.46C635.127 250.717 642.851 252.769 651.065 257.1L652.496 258.25C652.109 260.491 651.888 265.572 650.437 267.269Z"/>
	<path fill="#0C2361" transform="scale(0.488281 0.488281)" d="M557.397 245.622C562.275 245.065 567.238 245.444 571.88 247.077C581.037 250.299 586.121 255.227 590.216 263.87C584.109 260.981 578.609 258.56 571.971 257.123C558.687 254.555 548.163 257.576 535.502 260.959L535.852 260.438C541.272 252.477 547.775 247.464 557.397 245.622Z"/>
	<path fill="#0C2361" transform="scale(0.488281 0.488281)" d="M602.387 270.25L603.197 270.354C604.868 273.772 605.125 278.739 605.862 282.509C606.956 288.108 608.383 293.855 610.462 299.174C612.419 304.179 614.731 309.032 617.505 313.639C619.333 316.674 622.666 319.789 623.681 323.123L622.025 324.838C617.246 329.569 611.412 331.613 604.793 331.541L604.388 331.395L603.721 331.129C599.61 329.512 596.901 326.623 593.912 323.498C600.289 324.106 605.795 323.769 612.054 322.445C608.874 316.929 606.388 310.937 604.411 304.895C601.235 295.184 597.534 279.802 602.387 270.25Z"/>
	<path fill="#0C2361" transform="scale(0.488281 0.488281)" d="M561.017 265.105L561.604 265.112C563.383 265.094 565.07 264.9 566.727 265.685C570.385 267.417 572.652 270.746 573.824 274.541C575.279 279.251 574.983 284.473 572.62 288.838C570.63 292.513 567.977 294.407 564.037 295.604C562.456 295.61 561.168 295.48 559.672 294.926C556.159 293.627 553.451 290.911 552.009 287.483C550.04 282.798 550.501 277.759 552.42 273.133C554.261 268.697 556.784 266.884 561.017 265.105Z"/>
	<path fill="#0C2361" transform="scale(0.488281 0.488281)" d="M626.509 273.112C628.33 272.849 630.175 272.731 632 273.059C634.976 273.594 637.441 275.708 638.972 278.25C641.628 282.663 641.978 288.187 640.496 293.041C639.093 297.637 636.522 300.599 632.264 302.773L631.789 302.888L631.002 303.051C629.223 303.44 627.878 303.525 626.076 303.084C623.165 302.371 620.694 300.647 619.162 298.053C616.904 294.229 617.05 288.955 618.105 284.75C619.451 279.38 621.862 276.003 626.509 273.112Z"/>
	<path fill="#0C2361" transform="scale(0.488281 0.488281)" d="M533.451 433.049C522.371 422.452 514.568 411.182 507.336 397.728C498.521 381.33 492.142 363.758 491.1 345.061L492.994 350.07C502.324 372.678 524.244 389.821 546.319 398.978C542.701 410.337 538.949 422.463 533.451 433.049Z"/>
</svg>
