<?xml version="1.0" encoding="utf-8" ?>
<svg xmlns="http://www.w3.org/2000/svg" xmlns:xlink="http://www.w3.org/1999/xlink" width="500" height="500">
	<path fill="#CCC08D" transform="scale(0.488281 0.488281)" d="M-0 -0L1024 0L1024 1024L-0 1024L0 -0Z"/>
	<path fill="#B59769" transform="scale(0.488281 0.488281)" d="M762.137 846.098L762.734 846.323C765.266 847.221 768.731 847.066 771.427 847.385L788.345 849.689C803.653 851.769 856.106 860.423 863.073 874C863.874 875.56 864.136 877.304 863.511 878.97C861.396 884.605 853.713 888.128 848.521 890.202C826.922 898.829 802.951 902.822 780.063 906.379L726.5 913.524C626.687 923.749 526.403 926.32 426.152 922.521C375.217 920.592 324.321 917.509 273.738 911.019C253.329 908.401 232.827 905.512 212.746 900.967C200.671 898.234 188.215 894.928 176.848 889.96C171.877 887.786 165.375 884.435 163.059 879.25C162.385 877.742 162.267 875.899 162.976 874.388C166.278 867.353 177.207 863.247 184.202 861.042C204.815 854.546 226.235 850.785 247.648 848.093C250.886 847.685 254.999 846.61 258.195 846.74C261.677 856.529 266.665 864.012 274.855 870.548C282.147 876.367 291.026 879.253 300.234 880.1C310.123 881.009 320.489 880.465 330.442 880.469L384.364 880.436L548.367 880.527L662.387 880.574L697.454 880.591C703.715 880.585 710.36 880.982 716.567 880.222C721.828 879.578 726.579 878.472 731.549 876.636C746.551 871.093 755.578 860.257 762.137 846.098Z"/>
	<defs>
		<linearGradient id="gradient_0" gradientUnits="userSpaceOnUse" x1="475.23904" y1="101.79202" x2="541.98718" y2="847.15027">
			<stop offset="0" stop-color="#ED9A2E"/>
			<stop offset="1" stop-color="#F4B339"/>
		</linearGradient>
	</defs>
	<path fill="url(#gradient_0)" transform="scale(0.488281 0.488281)" d="M256.47 825.965C251.793 823.57 247.541 820.033 243.381 816.841C231.423 807.666 220.607 797.623 210.035 786.893C195.992 772.641 183.457 756.53 172.041 740.112C124.716 672.05 99.2962 590.787 99.9799 507.81C100.877 398.877 144.98 294.005 222.743 217.569C249.834 190.94 280.635 167.57 314.031 149.354C376.112 115.492 447.2 98.8878 517.771 99.5818C622.919 100.616 730.938 145.597 804.623 220.792C823.45 240.004 841 261.196 855.848 283.644C901.586 352.79 925.134 434.968 924.23 517.711C924.006 538.167 921.673 558.049 918.075 578.164C915.237 594.034 911.851 609.912 907.166 625.349C892.958 672.168 868.817 717.041 839.233 755.865C830.058 767.907 820.763 780.131 809.898 790.727L782 816.497L770.375 826.161C768.897 827.346 766.836 828.461 765.701 829.95L765.627 747.998C766.155 746.091 765.755 742.99 765.778 740.905L765.931 719.623L765.96 620.501L766.036 608.997L766.292 587.533L788.042 587.531L787.99 528.5L787.98 511.371C787.981 507.679 787.737 503.816 788.397 500.177L766.402 466.052C765.746 459.899 766.209 453.241 766.177 447.037C766.083 428.903 766.667 410.818 763.81 392.844C757.266 351.667 735.543 309.903 701.242 285.207C700.777 281.04 701.107 276.551 701.104 272.352L701.059 245.388C700.947 238.768 697.563 232.555 692.835 228.053C689.938 225.294 685.859 222.829 681.971 221.82C678.827 221.005 675.44 221.138 672.218 221.129L658.18 221.114L618.559 221.344L592.227 221.406C587.09 221.41 581.465 221.853 576.404 221.111L576.033 221.142L448.401 220.984L447.991 221.007L409.443 221.225L388.357 221.374L362.481 221.446C357.818 221.446 352.004 220.834 347.536 221.95C343.358 222.993 339.585 225.201 336.565 228.25C333.702 231.14 331.711 234.658 330.438 238.5L330.188 239.209C328.47 244.442 329.373 252.173 329.389 257.694C329.41 265.339 329.073 273.188 329.499 280.799L322.77 285.631C287.538 310.955 265.191 350.729 258.34 393.25C255.298 412.132 256.435 431.665 256.025 450.73C257.147 455.585 256.292 461.248 256.326 466.228L256.408 490.442C256.397 494.033 256.839 498.366 256.157 501.868L256.124 588.158L256.283 608.492L256.329 642.133L256.541 730.051L256.529 747.425L256.47 825.965Z"/>
	<path fill="#258984" transform="scale(0.488281 0.488281)" d="M256.025 450.73C257.147 455.585 256.292 461.248 256.326 466.228L256.408 490.442C256.397 494.033 256.839 498.366 256.157 501.868C253.501 505.589 251.154 509.05 247.69 512.103C243.672 515.645 238.809 518.146 234.374 521.119C219.511 531.085 213.286 545.567 212.125 563.024C211.566 571.43 212.208 579.993 212.02 588.422L189.385 588.527C189.405 582.019 188.936 574.952 189.785 568.522C192.203 550.221 203.406 532.545 216.875 520.365C220.872 516.751 225.378 513.71 229.314 510.035C233.249 506.362 236.453 502.227 239.403 497.742C244.98 489.262 249.421 479.665 252.032 469.843C253.709 463.534 254.584 457.087 256.025 450.73Z"/>
	<path fill="#40AFAB" transform="scale(0.488281 0.488281)" d="M788.397 500.177L802.613 515.996C809.066 522.774 815.715 529.415 820.913 537.25C827.552 547.257 831.51 559.147 833.123 571C833.795 575.944 834.691 581.916 834.229 586.85L834.099 587.564L788.042 587.531L787.99 528.5L787.98 511.371C787.981 507.679 787.737 503.816 788.397 500.177Z"/>
	<path fill="#40AFAB" transform="scale(0.488281 0.488281)" d="M212.02 588.422C212.208 579.993 211.566 571.43 212.125 563.024C213.286 545.567 219.511 531.085 234.374 521.119C238.809 518.146 243.672 515.645 247.69 512.103C251.154 509.05 253.501 505.589 256.157 501.868L256.124 588.158L212.02 588.422Z"/>
	<path fill="#24486E" transform="scale(0.488281 0.488281)" d="M256.124 588.158L256.283 608.492L256.329 642.133L256.541 730.051L256.529 747.425L253.007 747.486C249.076 747.534 244.877 747.815 240.973 747.412C228.335 746.107 215.479 739.593 206.502 730.721C198.602 722.914 193.495 713.143 190.988 702.356C188.163 690.204 189.409 676.608 189.374 664.129L189.207 611.612L189.196 608.534L189.385 588.527L212.02 588.422L256.124 588.158Z"/>
	<path fill="#12274F" transform="scale(0.488281 0.488281)" d="M189.196 608.534L212.1 608.511L212.062 618.579L189.606 618.824L189.533 611.906L189.207 611.612L189.196 608.534Z"/>
	<path fill="#ED8B4A" transform="scale(0.488281 0.488281)" d="M189.385 588.527L212.02 588.422L212.134 601.75C212.144 603.825 211.815 606.468 212.366 608.446L212.1 608.511L189.196 608.534L189.385 588.527Z"/>
	<path fill="#F8BE20" transform="scale(0.488281 0.488281)" d="M256.124 588.158L256.283 608.492L212.366 608.446C211.815 606.468 212.144 603.825 212.134 601.75L212.02 588.422L256.124 588.158Z"/>
	<path fill="#34698E" transform="scale(0.488281 0.488281)" d="M256.541 730.051C244.466 730.128 233.496 726.671 224.795 717.994C219.358 712.573 215.277 705.436 213.481 697.98C211.468 689.619 212.442 679.851 212.375 671.25L212.232 618.533L256.112 618.316L256.281 641.52L256.329 642.133L256.541 730.051Z"/>
	<path fill="#24486E" transform="scale(0.488281 0.488281)" d="M766.292 587.533L788.042 587.531L834.099 587.564C834.912 589.246 834.538 591.769 834.53 593.612L834.537 608.807L828.908 608.927L828.624 609.327L834.624 609.33L834.562 620.489L834.513 666.965C834.5 676.866 835.304 687.255 833.497 696.99C830.908 710.938 821.727 726.272 810.155 734.589C801.783 740.721 792.561 745.477 782.23 747.164C776.749 748.059 771.165 748.013 765.627 747.998C766.155 746.091 765.755 742.99 765.778 740.905L765.931 719.623L765.96 620.501L766.036 608.997L766.292 587.533Z"/>
	<path fill="#0E214D" transform="scale(0.488281 0.488281)" d="M766.036 608.997L787.901 609.119C787.6 612.695 788.506 617.088 787.667 620.486L765.96 620.501L766.036 608.997Z"/>
	<path fill="#EFA536" transform="scale(0.488281 0.488281)" d="M766.292 587.533L788.042 587.531C787.132 590.272 786.925 606.464 787.901 609.119L766.036 608.997L766.292 587.533Z"/>
	<path fill="#F8BE20" transform="scale(0.488281 0.488281)" d="M788.042 587.531L834.099 587.564C834.912 589.246 834.538 591.769 834.53 593.612L834.537 608.807L828.908 608.927L828.624 609.327L787.901 609.119C786.925 606.464 787.132 590.272 788.042 587.531Z"/>
	<path fill="#34698E" transform="scale(0.488281 0.488281)" d="M788.064 620.658L834.562 620.489L834.513 666.965C834.5 676.866 835.304 687.255 833.497 696.99C830.908 710.938 821.727 726.272 810.155 734.589C805.543 727.793 801.485 722.126 798.147 714.5C793.773 704.508 791.694 693.753 790.215 683.008C787.378 662.404 787.703 641.411 788.064 620.658Z"/>
	<defs>
		<linearGradient id="gradient_1" gradientUnits="userSpaceOnUse" x1="512.7063" y1="211.87524" x2="516.86426" y2="139.18922">
			<stop offset="0" stop-color="#AE191F"/>
			<stop offset="1" stop-color="#DE403D"/>
		</linearGradient>
	</defs>
	<path fill="url(#gradient_1)" transform="scale(0.488281 0.488281)" d="M409.591 210.304L409.295 202.31C409.456 185.748 415.264 170.357 427.255 158.693C435.359 150.809 445.313 145.58 456.284 142.941C470.486 139.524 486.745 141.062 501.312 141.094L558.251 141.312C561.703 141.354 565.36 141.189 568.785 141.654C581.349 143.362 592.976 149.903 601.707 158.946C614.183 171.866 618.643 188.425 618.385 205.945L618.559 221.344L592.227 221.406C587.09 221.41 581.465 221.853 576.404 221.111L576.033 221.142L448.401 220.984L447.991 221.007L409.443 221.225L409.591 210.304Z"/>
	<path fill="#F27A6B" transform="scale(0.488281 0.488281)" d="M570.678 151.093C574.505 150.653 578.087 150.786 581.75 152.054C584.748 153.091 590.093 155.435 591.271 158.728C591.8 160.203 591.321 160.836 590.603 162.116C588.841 163.32 587.372 163.684 585.285 164.039C582.61 164.076 579.917 163.775 577.295 163.24C573.989 162.565 566.423 160.79 564.672 157.776C564.068 156.736 563.941 156.136 564.452 155C565.422 152.839 568.674 151.853 570.678 151.093Z"/>
	<path fill="#5D0E22" transform="scale(0.488281 0.488281)" d="M409.591 210.304C414.348 198.019 420.346 189.056 432.856 183.633C437.763 181.506 442.725 181.283 447.982 181.018L447.991 221.007L409.443 221.225L409.591 210.304Z"/>
	<path fill="#5D0E22" transform="scale(0.488281 0.488281)" d="M576.404 221.111L576.496 181.183L587.644 181.8L588.5 181.922C592.106 182.403 595.613 183.2 598.938 184.727C608.548 189.143 614.767 196.075 618.385 205.945L618.559 221.344L592.227 221.406C587.09 221.41 581.465 221.853 576.404 221.111Z"/>
	<path fill="#EFA536" transform="scale(0.488281 0.488281)" d="M448.401 220.984L448.303 181.141L576.171 181.179L576.033 221.142L448.401 220.984Z"/>
	<path fill="#DE4337" transform="scale(0.488281 0.488281)" d="M448.401 220.984L576.033 221.142L576.404 221.111C581.465 221.853 587.09 221.41 592.227 221.406L618.559 221.344L658.18 221.114L672.218 221.129C675.44 221.138 678.827 221.005 681.971 221.82C685.859 222.829 689.938 225.294 692.835 228.053C697.563 232.555 700.947 238.768 701.059 245.388L701.104 272.352C701.107 276.551 700.777 281.04 701.242 285.207C735.543 309.903 757.266 351.667 763.81 392.844C766.667 410.818 766.083 428.903 766.177 447.037C766.209 453.241 765.746 459.899 766.402 466.052L788.397 500.177C787.737 503.816 787.981 507.679 787.98 511.371L787.99 528.5L788.042 587.531L766.292 587.533L766.036 608.997L765.96 620.501L765.931 719.623L765.778 740.905C765.755 742.99 766.155 746.091 765.627 747.998L765.701 829.95C765.192 835.612 763.904 840.695 762.137 846.098C755.578 860.257 746.551 871.093 731.549 876.636C726.579 878.472 721.828 879.578 716.567 880.222C710.36 880.982 703.715 880.585 697.454 880.591L662.387 880.574L548.367 880.527L384.364 880.436L330.442 880.469C320.489 880.465 310.123 881.009 300.234 880.1C291.026 879.253 282.147 876.367 274.855 870.548C266.665 864.012 261.677 856.529 258.195 846.74C255.765 840.269 256.209 832.762 256.47 825.965L256.529 747.425L256.541 730.051L256.329 642.133L256.283 608.492L256.124 588.158L256.157 501.868C256.839 498.366 256.397 494.033 256.408 490.442L256.326 466.228C256.292 461.248 257.147 455.585 256.025 450.73C256.435 431.665 255.298 412.132 258.34 393.25C265.191 350.729 287.538 310.955 322.77 285.631L329.499 280.799C329.073 273.188 329.41 265.339 329.389 257.694C329.373 252.173 328.47 244.442 330.188 239.209L330.438 238.5C331.711 234.658 333.702 231.14 336.565 228.25C339.585 225.201 343.358 222.993 347.536 221.95C352.004 220.834 357.818 221.446 362.481 221.446L388.357 221.374L409.443 221.225L447.991 221.007L448.401 220.984Z"/>
	<path fill="#12274F" transform="scale(0.488281 0.488281)" d="M721.41 549.032L721.056 595.475L720.089 597.416C719.168 595.893 719.161 595.006 719.255 593.25L720.25 593L720.255 591.75C720.545 588.947 719.864 584.841 720.5 582.25C720.698 581.442 721.153 580.911 721 580L720.701 579.035L721 578.25L720.375 577.247L719.823 578.145C719.825 579.364 719.846 580.443 719.496 581.624C718.764 584.093 719.075 586.749 718.416 589.261C718.235 589.953 718.073 590.569 717.969 591.281C717.793 592.482 717.736 593.516 716.992 594.527L716.474 595.18L718.977 577.437L720.437 560.25C720.727 556.53 720.68 552.691 721.41 549.032Z"/>
	<path fill="#D02D2C" transform="scale(0.488281 0.488281)" d="M323 318.638L329.51 312.95C329.454 317.071 329.613 321.328 329.102 325.417C326.761 328.26 326.114 332.86 325.198 336.391C324.396 334.561 324.39 332.14 324.21 330.158L323.017 318.899L323 318.638Z"/>
	<path fill="#ED8B4A" transform="scale(0.488281 0.488281)" d="M589.981 546.993L597.028 546.942L643.558 547.032L643.58 558.485L597.094 558.462L589.953 558.454L589.981 546.993Z"/>
	<path fill="#74CAE7" transform="scale(0.488281 0.488281)" d="M643.558 547.032L720.75 547.055C721.61 548.05 721.413 547.844 721.41 549.032C720.68 552.691 720.727 556.53 720.437 560.25L718.977 577.437L643.538 577.454L643.58 558.485L643.558 547.032Z"/>
	<path fill="#AD1C1E" transform="scale(0.488281 0.488281)" d="M696.837 789.44L696.904 822.06L284.57 821.259L284.973 675.939C286.043 641.158 287.892 606.956 294.423 572.688C295.711 565.928 297.23 558.837 299.942 552.5C300.632 550.889 301.321 548.925 302.799 547.918L303.116 556.699L303.02 562.812L302.53 582.587L302.967 790.313L696.837 789.44Z"/>
	<path fill="#24486E" transform="scale(0.488281 0.488281)" d="M417.679 545.4L428.669 545.438C430.43 545.451 432.55 545.227 434.262 545.606C435.208 545.815 435.872 546.488 436.57 547.106C437.029 553.891 436.931 560.66 436.878 567.455C436.852 570.842 436.521 574.535 436.92 577.886L436.597 577.895L436.682 641.057C437.04 643.403 437.171 645.621 437.198 647.987C437.203 650.688 436.914 653.85 437.326 656.494C437.127 660.237 436.459 662.303 434.102 665.26C431.237 666.733 429.061 667.132 425.876 667.529L402.894 667.46C397.047 667.434 391.161 667.894 385.515 666.137L385.448 679.924L385.489 687.995L371.985 687.985L372.133 680.145L332.969 679.967L332.983 706.895C332.999 714.24 332.46 721.855 334.384 729C337.329 739.938 343.328 748.388 353.141 754.203C358.108 757.146 364.203 759.759 370 760.436C380.492 761.661 391.72 760.898 402.294 760.866L463.25 760.571L650.488 760.983L698.872 761.071C706.273 761.082 714.605 760.356 721.912 761.354L722.001 789.353L696.837 789.44L302.967 790.313L302.53 582.587L303.02 562.812L303.116 556.699L302.799 547.918L303.55 546.992L379.59 546.841L379.614 546.777L417.679 545.4Z"/>
	<path fill="#12274F" transform="scale(0.488281 0.488281)" d="M303.02 562.812C305.608 587.632 312.834 619.587 333.263 636.194C347.926 648.114 362.883 648.513 380.932 648.496L381.062 658.274C381.069 658.803 380.903 660.577 381.098 661.012C381.63 662.203 383.378 664.127 384.319 665.07L385.515 666.137L385.448 679.924L385.489 687.995L371.985 687.985L372.133 680.145L372.119 661.197C363.252 661.075 355.574 660.81 347.088 657.827C320.684 648.544 311.49 621.647 306.334 596.746L304.926 588C304.71 586.262 304.703 583.929 303.879 582.386L303.509 581.75C303.946 580.788 304.446 579.936 304.34 578.852L304.255 578.25C304.183 577.175 303.961 576.321 303.69 575.277C303.231 577.629 303.496 579.892 302.679 582.19L302.53 582.587L303.02 562.812Z"/>
	<path fill="#45AAC5" transform="scale(0.488281 0.488281)" d="M417.679 545.4L428.669 545.438C430.43 545.451 432.55 545.227 434.262 545.606C435.208 545.815 435.872 546.488 436.57 547.106C437.029 553.891 436.931 560.66 436.878 567.455C436.852 570.842 436.521 574.535 436.92 577.886L436.597 577.895L436.682 641.057C437.04 643.403 437.171 645.621 437.198 647.987C437.203 650.688 436.914 653.85 437.326 656.494C437.127 660.237 436.459 662.303 434.102 665.26C431.237 666.733 429.061 667.132 425.876 667.529L402.894 667.46C397.047 667.434 391.161 667.894 385.515 666.137L384.319 665.07C383.378 664.127 381.63 662.203 381.098 661.012C380.903 660.577 381.069 658.803 381.062 658.274L380.932 648.496C362.883 648.513 347.926 648.114 333.263 636.194C312.834 619.587 305.608 587.632 303.02 562.812L303.116 556.699L302.799 547.918L303.55 546.992L379.59 546.841L379.614 546.777L417.679 545.4Z"/>
	<path fill="#74CAE7" transform="scale(0.488281 0.488281)" d="M379.59 546.841L383.582 547.018C381.881 550.113 382.57 554.569 382.008 558.034L381.976 577.899C372.567 578.644 362.637 578.012 353.172 578.016C344.224 578.019 334.045 578.917 325.261 577.63C321.51 577.08 317.919 575.895 314.64 573.975C307.869 570.011 305.056 563.993 303.116 556.699L302.799 547.918L303.55 546.992L379.59 546.841Z"/>
	<path fill="#DE4337" transform="scale(0.488281 0.488281)" d="M417.679 545.4L428.669 545.438C430.43 545.451 432.55 545.227 434.262 545.606C435.208 545.815 435.872 546.488 436.57 547.106C437.029 553.891 436.931 560.66 436.878 567.455C436.852 570.842 436.521 574.535 436.92 577.886L436.597 577.895L436.682 641.057C437.04 643.403 437.171 645.621 437.198 647.987C437.203 650.688 436.914 653.85 437.326 656.494C437.127 660.237 436.459 662.303 434.102 665.26C431.237 666.733 429.061 667.132 425.876 667.529L402.894 667.46C397.047 667.434 391.161 667.894 385.515 666.137L384.319 665.07C383.378 664.127 381.63 662.203 381.098 661.012C380.903 660.577 381.069 658.803 381.062 658.274L380.932 648.496C380.855 645.715 380.737 643.247 381.614 640.555L381.976 577.899L382.008 558.034C382.57 554.569 381.881 550.113 383.582 547.018L379.59 546.841L379.614 546.777L417.679 545.4Z"/>
	<path fill="#5D0E22" transform="scale(0.488281 0.488281)" d="M406.944 606.25C408.111 605.916 409.173 605.803 410.378 605.956C412.242 606.194 413.957 607.72 414.95 609.25C416.005 610.877 416.274 613.479 415.736 615.323C415.105 617.485 413.629 618.726 411.723 619.75C410.455 620.023 408.91 620.217 407.644 619.856C405.825 619.338 404.032 617.642 403.182 615.983C402.354 614.368 402.211 611.997 402.843 610.286C403.595 608.249 405.101 607.217 406.944 606.25Z"/>
	<path fill="#34698E" transform="scale(0.488281 0.488281)" d="M382.008 558.034L385.937 558.011L386.014 616.91L386.116 632.25C386.122 633.509 386.471 636.132 386.11 637.25C386.106 637.263 385.383 638.036 385.344 638.074L385.025 638.338C383.659 638.957 382.699 639.472 381.614 640.555L381.976 577.899L382.008 558.034Z"/>
	<path fill="#ED8B4A" transform="scale(0.488281 0.488281)" d="M417.679 545.4L428.669 545.438C430.43 545.451 432.55 545.227 434.262 545.606C435.208 545.815 435.872 546.488 436.57 547.106C437.029 553.891 436.931 560.66 436.878 567.455C436.852 570.842 436.521 574.535 436.92 577.886L436.597 577.895L436.644 557.985L385.937 558.011L382.008 558.034C382.57 554.569 381.881 550.113 383.582 547.018L379.59 546.841L379.614 546.777L417.679 545.4Z"/>
	<path fill="#45AAC5" transform="scale(0.488281 0.488281)" d="M383.582 547.018L385.491 547.076C386.66 549.482 385.951 555.19 385.937 558.011L382.008 558.034C382.57 554.569 381.881 550.113 383.582 547.018Z"/>
	<path fill="#F8BE20" transform="scale(0.488281 0.488281)" d="M429.028 655.057C431.138 650.353 427.872 643.006 429.877 638.25C430.512 638.058 430.476 638.031 431.25 638.009C433.49 637.947 435.153 639.663 436.682 641.057C437.04 643.403 437.171 645.621 437.198 647.987C437.203 650.688 436.914 653.85 437.326 656.494C437.127 660.237 436.459 662.303 434.102 665.26C431.237 666.733 429.061 667.132 425.876 667.529L402.894 667.46C397.047 667.434 391.161 667.894 385.515 666.137L384.319 665.07C383.378 664.127 381.63 662.203 381.098 661.012C380.903 660.577 381.069 658.803 381.062 658.274L380.932 648.496C380.855 645.715 380.737 643.247 381.614 640.555C382.699 639.472 383.659 638.957 385.025 638.338C387.023 639.626 387.989 642.157 388.501 644.5L389.016 647.953L429.121 647.796L429.028 655.057Z"/>
	<path fill="#5D0E22" transform="scale(0.488281 0.488281)" d="M389.445 656.968L390.003 655.585C393.806 654.095 400.362 654.975 404.5 654.924L419.66 654.666C422.728 654.631 426.036 654.344 429.028 655.057C428.611 656.766 428.376 657.57 426.702 658.454C424.631 659.548 393.426 659.792 391.048 658.837C390.234 658.51 389.913 657.664 389.445 656.968Z"/>
	<path fill="#AD1C1E" transform="scale(0.488281 0.488281)" d="M389.016 647.953L429.121 647.796L429.028 655.057C426.036 654.344 422.728 654.631 419.66 654.666L404.5 654.924C400.362 654.975 393.806 654.095 390.003 655.585L389.445 656.968C388.43 655.226 388.997 650.126 389.016 647.953Z"/>
	<path fill="#AD1C1E" transform="scale(0.488281 0.488281)" d="M329.499 280.799L329.51 312.95L323 318.638L323.017 318.899C315.822 324.837 310.014 332.2 304.905 339.968C292.396 358.988 283.931 381.938 281.737 404.656C280.836 413.985 281.072 423.477 281.052 432.841L281.018 473.659L281.497 615.414L282.359 765.998L282.427 808.082C282.393 815.884 281.792 824.206 282.604 831.95C283.2 837.635 286.22 843.636 289.838 847.994C294.124 853.156 299.061 856.675 305.5 858.612L306.322 858.869C310.725 860.141 316.189 859.688 320.75 859.735L347.005 859.885L438.122 859.969L620.303 859.966L677.301 859.959L708.552 859.892C715.095 859.654 721.348 858.558 727.039 855.111C734.405 850.65 739.665 842.513 741.659 834.25L741.793 833.75C743.24 827.985 742.244 819.586 742.239 813.555L742.195 769.355L742.224 596.7L741.71 576.004L742.056 457.313C742.04 443.793 742.814 429.702 741.745 416.25C741.379 411.648 741.798 407.102 741.127 402.5C738.956 387.622 735.795 373.307 729.644 359.5C727.063 353.709 723.877 348.357 720.62 342.943C715.916 335.122 709.883 326.965 702.831 321.102C702.391 320.736 701.946 320.482 701.453 320.199L701.242 285.207C735.543 309.903 757.266 351.667 763.81 392.844C766.667 410.818 766.083 428.903 766.177 447.037C766.209 453.241 765.746 459.899 766.402 466.052L788.397 500.177C787.737 503.816 787.981 507.679 787.98 511.371L787.99 528.5L788.042 587.531L766.292 587.533L766.036 608.997L765.96 620.501L765.931 719.623L765.778 740.905C765.755 742.99 766.155 746.091 765.627 747.998L765.701 829.95C765.192 835.612 763.904 840.695 762.137 846.098C755.578 860.257 746.551 871.093 731.549 876.636C726.579 878.472 721.828 879.578 716.567 880.222C710.36 880.982 703.715 880.585 697.454 880.591L662.387 880.574L548.367 880.527L384.364 880.436L330.442 880.469C320.489 880.465 310.123 881.009 300.234 880.1C291.026 879.253 282.147 876.367 274.855 870.548C266.665 864.012 261.677 856.529 258.195 846.74C255.765 840.269 256.209 832.762 256.47 825.965L256.529 747.425L256.541 730.051L256.329 642.133L256.283 608.492L256.124 588.158L256.157 501.868C256.839 498.366 256.397 494.033 256.408 490.442L256.326 466.228C256.292 461.248 257.147 455.585 256.025 450.73C256.435 431.665 255.298 412.132 258.34 393.25C265.191 350.729 287.538 310.955 322.77 285.631L329.499 280.799Z"/>
	<path fill="#5D0E22" transform="scale(0.488281 0.488281)" d="M329.499 280.799L329.51 312.95L323 318.638C321.921 316.068 322.737 290.342 322.77 285.631L329.499 280.799Z"/>
	<path fill="#258984" transform="scale(0.488281 0.488281)" d="M766.402 466.052L788.397 500.177C787.737 503.816 787.981 507.679 787.98 511.371L787.99 528.5L788.042 587.531L766.292 587.533L766.129 503.27L766.083 479.565C766.078 475.154 765.718 470.406 766.402 466.052Z"/>
	<path fill="#34698E" transform="scale(0.488281 0.488281)" d="M548.226 546.893L589.981 546.993L589.953 558.454L597.094 558.462L643.58 558.485L643.538 577.454L718.977 577.437L716.474 595.18L716.992 594.527C717.736 593.516 717.793 592.482 717.969 591.281C718.073 590.569 718.235 589.953 718.416 589.261C719.075 586.749 718.764 584.093 719.496 581.624C719.846 580.443 719.825 579.364 719.823 578.145L720.375 577.247L721 578.25L720.701 579.035L721 580C721.153 580.911 720.698 581.442 720.5 582.25C719.864 584.841 720.545 588.947 720.255 591.75L720.25 593L719.255 593.25C719.161 595.006 719.168 595.893 720.089 597.416L721.056 595.475L721.912 761.354C714.605 760.356 706.273 761.082 698.872 761.071L650.488 760.983L463.25 760.571L402.294 760.866C391.72 760.898 380.492 761.661 370 760.436C364.203 759.759 358.108 757.146 353.141 754.203C343.328 748.388 337.329 739.938 334.384 729C332.46 721.855 332.999 714.24 332.983 706.895L332.969 679.967L372.133 680.145L371.985 687.985L385.489 687.995L385.448 679.924L385.515 666.137C391.161 667.894 397.047 667.434 402.894 667.46L425.876 667.529C429.061 667.132 431.237 666.733 434.102 665.26C436.459 662.303 437.127 660.237 437.326 656.494C436.914 653.85 437.203 650.688 437.198 647.987C437.171 645.621 437.04 643.403 436.682 641.057L436.597 577.895L436.92 577.886C436.521 574.535 436.852 570.842 436.878 567.455C436.931 560.66 437.029 553.891 436.57 547.106L514.186 547.15L537.402 547.056C540.893 547.026 544.798 547.331 548.226 546.893Z"/>
	<path fill="#24486E" transform="scale(0.488281 0.488281)" d="M647.503 661.213L661.866 660.667L662.75 660.54C670.82 659.422 678.281 656.912 685.308 652.805C688.246 651.088 691.56 647.702 694.859 647.078C690.827 652.668 685.917 657.543 680.772 662.106C670.26 671.428 659.743 678.019 645.72 680.749L645.679 664.596L647.503 661.213Z"/>
	<path fill="#0E214D" transform="scale(0.488281 0.488281)" d="M716.474 595.18L716.992 594.527C717.736 593.516 717.793 592.482 717.969 591.281C718.073 590.569 718.235 589.953 718.416 589.261C719.075 586.749 718.764 584.093 719.496 581.624C719.846 580.443 719.825 579.364 719.823 578.145L720.375 577.247L721 578.25L720.701 579.035L721 580C721.153 580.911 720.698 581.442 720.5 582.25C719.864 584.841 720.545 588.947 720.255 591.75L720.25 593L719.255 593.25C719.161 595.006 719.168 595.893 720.089 597.416C717.497 613.419 710.914 627.653 700.745 640.285C699.039 642.404 696.97 645.416 694.859 647.078C691.56 647.702 688.246 651.088 685.308 652.805C678.281 656.912 670.82 659.422 662.75 660.54L661.866 660.667L647.503 661.213L647.447 648.577C654.34 648.7 661.835 649.127 668.654 648.199L669.5 648.074C676.092 647.134 681.757 644.95 687.425 641.48C704.243 631.184 711.917 613.553 716.474 595.18Z"/>
	<path fill="#24486E" transform="scale(0.488281 0.488281)" d="M371.985 687.985L385.489 687.995C385.501 693.596 385.046 699.687 385.652 705.226C384.849 707.585 384.901 709.958 386.071 712.214C387.414 714.801 390.394 717.1 393.247 717.739C396.909 718.559 401.552 718.05 405.338 718.072C411.469 718.107 418.744 718.861 424.75 717.806C426.705 717.462 428.319 716.665 429.953 715.56L432.175 713.775C431.918 718.313 432.868 724.147 430.809 728.288C429.086 731.754 425.35 734.459 421.663 735.466C417.602 736.576 412.169 735.96 407.956 735.96L384.06 735.982C380.723 735.976 374.863 736.78 372.108 735.25C370.804 731.164 371.638 724.862 371.667 720.528L371.985 687.985Z"/>
	<path fill="#DE4337" transform="scale(0.488281 0.488281)" d="M425.876 667.529C429.061 667.132 431.237 666.733 434.102 665.26L434.052 680.522L434.025 699.644C434.022 701.394 433.585 704.731 434.088 706.322C433.807 708.942 433.562 711.481 432.175 713.775L429.953 715.56C428.319 716.665 426.705 717.462 424.75 717.806C418.744 718.861 411.469 718.107 405.338 718.072C401.552 718.05 396.909 718.559 393.247 717.739C390.394 717.1 387.414 714.801 386.071 712.214C384.901 709.958 384.849 707.585 385.652 705.226C385.046 699.687 385.501 693.596 385.489 687.995L385.448 679.924L385.515 666.137C391.161 667.894 397.047 667.434 402.894 667.46L425.876 667.529Z"/>
	<path fill="#010000" transform="scale(0.488281 0.488281)" d="M385.652 705.226C386.033 708.605 387.44 711.046 390.06 713.237C391.556 714.488 393.296 715.451 395.246 715.729C399.302 716.307 404.033 715.531 408.167 715.53C413.62 715.53 419.608 716.234 424.993 715.783C427.58 715.566 429.874 714.235 431.397 712.141C432.602 710.483 433.41 708.249 434.088 706.322C433.807 708.942 433.562 711.481 432.175 713.775L429.953 715.56C428.319 716.665 426.705 717.462 424.75 717.806C418.744 718.861 411.469 718.107 405.338 718.072C401.552 718.05 396.909 718.559 393.247 717.739C390.394 717.1 387.414 714.801 386.071 712.214C384.901 709.958 384.849 707.585 385.652 705.226Z"/>
	<path fill="#AD1C1E" transform="scale(0.488281 0.488281)" d="M385.515 666.137C391.161 667.894 397.047 667.434 402.894 667.46L425.876 667.529C423.423 672.301 421.256 677.208 415.75 679.033C412.45 680.127 408.142 679.86 404.658 679.888L385.448 679.924L385.515 666.137Z"/>
	<path fill="#45AAC5" transform="scale(0.488281 0.488281)" d="M718.977 577.437L716.474 595.18C711.917 613.553 704.243 631.184 687.425 641.48C681.757 644.95 676.092 647.134 669.5 648.074L668.654 648.199C661.835 649.127 654.34 648.7 647.447 648.577C647.435 646.52 647.509 644.353 647.174 642.323C646.787 639.973 645.282 639.23 643.452 637.987L643.538 577.454L718.977 577.437Z"/>
	<path fill="#24486E" transform="scale(0.488281 0.488281)" d="M589.739 647.133L589.807 647.599L592.092 649.005C592.06 652.31 591.162 658.712 592.228 661.694C592.51 662.483 593.829 663.968 594.41 664.591L596.762 666.559C597.664 666.959 597.497 666.921 598.509 667.207C600.604 667.8 603.363 667.505 605.537 667.515L618.086 667.531C624.93 667.525 632.886 668.329 639.613 667.388C641.707 667.095 643.89 665.67 645.679 664.596L645.72 680.749L645.859 682.355L645.925 698.083C645.925 702.591 646.482 706.834 643.939 710.808C644.216 715.211 644.244 721.087 642.896 725.307L642.659 726.003C641.65 729.126 640.656 731.078 638.351 733.452C635.254 736.642 631.804 738.005 627.403 738.034L605.295 738.037C602.07 738.026 598.263 738.393 595.112 737.687C592.341 737.065 589.707 735.586 587.75 733.52C585.565 731.212 584.188 728.445 583.665 725.312C582.979 721.2 583.504 716.314 583.52 712.086L583.957 680.504L434.052 680.522L434.102 665.26C436.459 662.303 437.127 660.237 437.326 656.494C436.914 653.85 437.203 650.688 437.198 647.987L589 647.973L589.739 647.133Z"/>
	<path fill="#12274F" transform="scale(0.488281 0.488281)" d="M589.807 647.599L592.092 649.005C592.06 652.31 591.162 658.712 592.228 661.694C592.51 662.483 593.829 663.968 594.41 664.591L596.762 666.559C594.138 669.309 594.456 670.702 594.423 674.318C593.04 676.647 593.499 679.516 593.449 682.208C592.438 678.458 593.958 673.453 592.812 669.998C592.287 668.413 590.096 666.57 589.289 664.841C588.059 662.207 588.205 659.369 589.145 656.672L589.216 656.435C590.117 653.583 589.858 650.555 589.807 647.599Z"/>
	<path fill="#010000" transform="scale(0.488281 0.488281)" d="M593.449 682.208C593.499 679.516 593.04 676.647 594.423 674.318C594.493 677.02 594.244 680.333 594.767 682.95L595.315 705.884C595.604 709.62 596.197 711.837 599.053 714.406C600.178 715.417 601.565 716.17 603.077 716.383C606.881 716.921 611.235 716.544 615.092 716.559C621.411 716.584 627.943 716.942 634.226 716.524C637.447 716.309 640.56 713.79 642.662 711.512L643.701 711.021C643.495 711.579 643.281 711.923 642.853 712.34C640.793 714.349 638.203 717.076 635.442 718.01C632.244 719.092 627.995 718.699 624.62 718.75L605.478 718.899C601.981 718.808 599.243 717.471 596.943 714.824C594.932 712.509 594.033 709.959 594.324 706.933C594.723 702.796 594.577 698.538 594.587 694.378C594.592 692.262 594.84 689.884 594.424 687.824L593.449 682.208Z"/>
	<path fill="#AD1C1E" transform="scale(0.488281 0.488281)" d="M595.315 705.884C596.314 708.006 597.427 710.613 599.876 711.331C602.286 712.037 605.493 711.847 608 711.817L620.304 711.609L642.662 711.512C640.56 713.79 637.447 716.309 634.226 716.524C627.943 716.942 621.411 716.584 615.092 716.559C611.235 716.544 606.881 716.921 603.077 716.383C601.565 716.17 600.178 715.417 599.053 714.406C596.197 711.837 595.604 709.62 595.315 705.884Z"/>
	<path fill="#0E214D" transform="scale(0.488281 0.488281)" d="M589.739 647.133L589.807 647.599C589.858 650.555 590.117 653.583 589.216 656.435L589.145 656.672L437.326 656.494C436.914 653.85 437.203 650.688 437.198 647.987L589 647.973L589.739 647.133Z"/>
	<path fill="#DE4337" transform="scale(0.488281 0.488281)" d="M596.762 666.559C597.664 666.959 597.497 666.921 598.509 667.207C600.604 667.8 603.363 667.505 605.537 667.515L618.086 667.531C624.93 667.525 632.886 668.329 639.613 667.388C641.707 667.095 643.89 665.67 645.679 664.596L645.72 680.749L645.859 682.355L645.925 698.083C645.925 702.591 646.482 706.834 643.939 710.808L643.701 711.021L642.662 711.512L620.304 711.609L608 711.817C605.493 711.847 602.286 712.037 599.876 711.331C597.427 710.613 596.314 708.006 595.315 705.884L594.767 682.95C594.244 680.333 594.493 677.02 594.423 674.318C594.456 670.702 594.138 669.309 596.762 666.559Z"/>
	<path fill="#AD1C1E" transform="scale(0.488281 0.488281)" d="M596.762 666.559C597.664 666.959 597.497 666.921 598.509 667.207C600.604 667.8 603.363 667.505 605.537 667.515L618.086 667.531C624.93 667.525 632.886 668.329 639.613 667.388C641.707 667.095 643.89 665.67 645.679 664.596L645.72 680.749L645.859 682.355L594.767 682.95C594.244 680.333 594.493 677.02 594.423 674.318C594.456 670.702 594.138 669.309 596.762 666.559Z"/>
	<path fill="#45AAC5" transform="scale(0.488281 0.488281)" d="M548.226 546.893L589.981 546.993L589.953 558.454L597.094 558.462L643.58 558.485L643.538 577.454L643.452 637.987C645.282 639.23 646.787 639.973 647.174 642.323C647.509 644.353 647.435 646.52 647.447 648.577L647.503 661.213L645.679 664.596C643.89 665.67 641.707 667.095 639.613 667.388C632.886 668.329 624.93 667.525 618.086 667.531L605.537 667.515C603.363 667.505 600.604 667.8 598.509 667.207C597.497 666.921 597.664 666.959 596.762 666.559L594.41 664.591C593.829 663.968 592.51 662.483 592.228 661.694C591.162 658.712 592.06 652.31 592.092 649.005L589.807 647.599L589.739 647.133L589 647.973L437.198 647.987C437.171 645.621 437.04 643.403 436.682 641.057L436.597 577.895L436.92 577.886C436.521 574.535 436.852 570.842 436.878 567.455C436.931 560.66 437.029 553.891 436.57 547.106L514.186 547.15L537.402 547.056C540.893 547.026 544.798 547.331 548.226 546.893Z"/>
	<path fill="#AD1C1E" transform="scale(0.488281 0.488281)" d="M589.953 558.454L597.094 558.462C598.26 564.683 597.529 572.208 597.575 578.571L597.973 614.737C598.027 622.177 597.676 629.849 598.387 637.25L597.349 637.544C595.756 638.244 594.011 638.935 593.25 640.626C592.197 642.965 592.268 646.441 592.092 649.005L589.807 647.599L589.739 647.133L589.88 561.245L589.953 558.454Z"/>
	<path fill="#74CAE7" transform="scale(0.488281 0.488281)" d="M548.226 546.893L589.981 546.993L589.953 558.454L589.88 561.245L589.609 577.476L484.467 577.989L452.486 578.037C447.414 578.042 441.95 578.461 436.92 577.886C436.521 574.535 436.852 570.842 436.878 567.455C436.931 560.66 437.029 553.891 436.57 547.106L514.186 547.15L537.402 547.056C540.893 547.026 544.798 547.331 548.226 546.893Z"/>
	<path fill="#DE4337" transform="scale(0.488281 0.488281)" d="M597.094 558.462L643.58 558.485L643.538 577.454L643.452 637.987C645.282 639.23 646.787 639.973 647.174 642.323C647.509 644.353 647.435 646.52 647.447 648.577L647.503 661.213L645.679 664.596C643.89 665.67 641.707 667.095 639.613 667.388C632.886 668.329 624.93 667.525 618.086 667.531L605.537 667.515C603.363 667.505 600.604 667.8 598.509 667.207C597.497 666.921 597.664 666.959 596.762 666.559L594.41 664.591C593.829 663.968 592.51 662.483 592.228 661.694C591.162 658.712 592.06 652.31 592.092 649.005C592.268 646.441 592.197 642.965 593.25 640.626C594.011 638.935 595.756 638.244 597.349 637.544L598.387 637.25C597.676 629.849 598.027 622.177 597.973 614.737L597.575 578.571C597.529 572.208 598.26 564.683 597.094 558.462Z"/>
	<path fill="#5D0E22" transform="scale(0.488281 0.488281)" d="M617.301 606.25C618.416 606.089 619.568 605.918 620.688 606.127C622.43 606.452 624.239 607.498 625.113 609.094C626.173 611.029 626.507 613.54 625.667 615.634C624.798 617.798 623.244 618.777 621.239 619.75C619.774 620.031 617.971 620.228 616.56 619.659C614.991 619.027 613.565 617.664 612.909 616.103C612.183 614.38 612.125 611.709 612.965 610.019C613.986 607.965 615.194 607.039 617.301 606.25Z"/>
	<path fill="#F8BE20" transform="scale(0.488281 0.488281)" d="M597.349 637.544C598.195 637.836 599.321 637.931 599.688 638.798C600.751 641.315 600.664 645.179 600.867 647.946L639.637 647.934C639.651 645.428 639.073 640.162 640.25 638.098L643.452 637.987C645.282 639.23 646.787 639.973 647.174 642.323C647.509 644.353 647.435 646.52 647.447 648.577L647.503 661.213L645.679 664.596C643.89 665.67 641.707 667.095 639.613 667.388C632.886 668.329 624.93 667.525 618.086 667.531L605.537 667.515C603.363 667.505 600.604 667.8 598.509 667.207C597.497 666.921 597.664 666.959 596.762 666.559L594.41 664.591C593.829 663.968 592.51 662.483 592.228 661.694C591.162 658.712 592.06 652.31 592.092 649.005C592.268 646.441 592.197 642.965 593.25 640.626C594.011 638.935 595.756 638.244 597.349 637.544Z"/>
	<path fill="#5D0E22" transform="scale(0.488281 0.488281)" d="M601.399 656.504L602 655.055L639.613 654.588L639.378 658.25C637.323 659.43 633.757 658.936 631.356 658.955L614.981 659.008C611.538 659.014 607.879 658.765 604.5 659.417C602.84 658.696 602.395 658.663 601.529 656.909L601.399 656.504Z"/>
	<path fill="#AD1C1E" transform="scale(0.488281 0.488281)" d="M600.867 647.946L639.637 647.934L639.613 654.588L602 655.055L601.399 656.504C600.537 654.316 600.915 650.381 600.867 647.946Z"/>
	<path fill="#40AFAB" transform="scale(0.488281 0.488281)" d="M448.401 220.984L576.033 221.142L576.404 221.111C581.465 221.853 587.09 221.41 592.227 221.406L618.559 221.344L658.18 221.114L672.218 221.129C675.44 221.138 678.827 221.005 681.971 221.82C685.859 222.829 689.938 225.294 692.835 228.053C697.563 232.555 700.947 238.768 701.059 245.388L701.104 272.352C701.107 276.551 700.777 281.04 701.242 285.207L701.453 320.199L701.009 345.453C701.08 362.275 699.567 378.35 695.557 394.729C694.14 400.52 692.225 406.305 690.25 411.929C689.558 413.901 687.196 418.547 687.219 420.395C686.233 429.357 681.38 438.762 677.269 446.71C665.44 469.581 651.286 490.773 630.979 507.07C612.726 521.718 594.017 532.532 571.914 540.347L560.861 543.862C558.305 544.54 554.162 544.789 552.024 546.073C550.965 546.709 549.445 546.73 548.226 546.893C544.798 547.331 540.893 547.026 537.402 547.056L514.186 547.15L436.57 547.106C435.872 546.488 435.208 545.815 434.262 545.606C432.55 545.227 430.43 545.451 428.669 545.438L417.679 545.4C410.254 544.556 402.076 545.125 394.573 545.012C385.421 537.903 377.124 530.459 369.764 521.453C346.88 493.453 332.291 459.926 326.293 424.29C321.409 395.275 322.228 365.533 325.198 336.391C326.114 332.86 326.761 328.26 329.102 325.417C329.613 321.328 329.454 317.071 329.51 312.95L329.499 280.799C329.073 273.188 329.41 265.339 329.389 257.694C329.373 252.173 328.47 244.442 330.188 239.209L330.438 238.5C331.711 234.658 333.702 231.14 336.565 228.25C339.585 225.201 343.358 222.993 347.536 221.95C352.004 220.834 357.818 221.446 362.481 221.446L388.357 221.374L409.443 221.225L447.991 221.007L448.401 220.984Z"/>
	<path fill="#E4DCDF" transform="scale(0.488281 0.488281)" d="M658.45 242.75C659.356 242.556 660.038 242.604 660.925 242.838C662.706 243.307 664.133 244.455 665 246.093C666.571 249.06 666.473 276.441 665.081 280.118C664.287 282.214 662.732 283.26 660.75 284.063C659.704 284.182 658.863 284.329 657.85 283.921C656.088 283.212 654.793 281.589 654.204 279.822C653.023 276.277 653.629 270.994 653.602 267.267L653.55 253.249C653.55 250.795 653.27 247.702 654.492 245.5C655.385 243.892 656.76 243.223 658.45 242.75Z"/>
	<path fill="#E4DCDF" transform="scale(0.488281 0.488281)" d="M657.745 355.25C658.914 354.998 660.407 354.733 661.559 355.148C663.262 355.761 664.575 357.002 665.328 358.642C666.684 361.597 666.788 392.363 665.329 395.552C664.52 397.318 663.503 397.881 661.75 398.564C660.745 398.782 659.621 398.922 658.612 398.651C656.904 398.192 655.284 396.992 654.434 395.425C652.952 392.691 653.654 386.725 653.634 383.662L653.581 367.308C653.582 364.817 653.275 361.505 654.097 359.141C654.801 357.117 655.907 356.23 657.745 355.25Z"/>
	<path fill="#258984" transform="scale(0.488281 0.488281)" d="M539.268 396.568L538.929 398.603C538.456 400.016 537.163 401.33 536.225 402.468C532.819 406.601 529.324 409.902 524.246 411.924C517.829 414.478 509.567 414.515 503.225 411.652C496.212 408.486 491.233 402.826 488.523 395.703C485.908 388.828 486.332 380.471 489.445 373.828C492.368 367.592 496.875 362.463 503.436 360.161C497.716 365.733 492.679 372.209 492.499 380.621C492.446 383.071 492.756 385.133 493.405 387.5L493.618 388.295C495.381 394.649 500.217 400.696 506.022 403.885C512.246 407.304 519.055 408.209 525.853 406.026C531.422 404.236 535.477 400.891 539.268 396.568Z"/>
	<path fill="#E4DCDF" transform="scale(0.488281 0.488281)" d="M658.434 296.25C659.182 296.089 659.835 296 660.6 296.119C662.4 296.398 663.961 297.194 664.894 298.822C666.324 301.316 665.922 305.529 665.947 308.353L666.027 327.206C666.03 330.65 666.722 336.032 665.526 339.221C664.772 341.232 663.149 342.197 661.25 342.912C660.193 343.001 659.259 343.084 658.236 342.742C656.528 342.172 655.265 340.789 654.544 339.174C653.211 336.188 653.724 331.606 653.73 328.382L653.81 310.749C653.832 307.592 653.197 302.31 654.477 299.507C655.264 297.786 656.748 296.892 658.434 296.25Z"/>
	<path fill="#F8BE20" transform="scale(0.488281 0.488281)" d="M503.436 360.161C510.356 356.526 518 354.007 525.83 356.296C532.481 358.239 538.275 363.275 541.512 369.369C545.022 375.978 545.307 381.935 542.985 388.952C542.096 391.64 540.68 394.125 539.268 396.568C535.477 400.891 531.422 404.236 525.853 406.026C519.055 408.209 512.246 407.304 506.022 403.885C500.217 400.696 495.381 394.649 493.618 388.295L493.405 387.5C492.756 385.133 492.446 383.071 492.499 380.621C492.679 372.209 497.716 365.733 503.436 360.161Z"/>
	<path fill="#E4DCDF" transform="scale(0.488281 0.488281)" d="M523.405 362.593C526.142 362.569 528.84 362.94 531.286 364.224C534.516 365.919 536.865 368.564 537.905 372.091C539.389 377.129 537.726 381.381 535.285 385.804L534.928 384.25C534.858 381.078 534.711 377.855 533.351 374.922C531.596 371.139 527.127 366.996 522.926 366.184C520.997 365.812 519.147 365.9 517.255 365.25C518.417 363.564 521.474 363.026 523.405 362.593Z"/>
	<path fill="#258984" transform="scale(0.488281 0.488281)" d="M329.499 280.799C329.073 273.188 329.41 265.339 329.389 257.694C329.373 252.173 328.47 244.442 330.188 239.209L330.438 238.5C331.711 234.658 333.702 231.14 336.565 228.25C339.585 225.201 343.358 222.993 347.536 221.95C352.004 220.834 357.818 221.446 362.481 221.446L388.357 221.374C385.457 229.357 382.531 236.477 381.466 245L381.337 245.974C380.513 252.483 380.976 259.515 380.975 266.093L381.058 301.911L381.334 344.39C381.434 358.421 381.466 372.198 383.555 386.122C387.098 409.722 395.71 432.311 410.571 451.123C432.084 478.355 467.374 494.693 501.437 498.664C550.505 504.383 597.427 490.562 636.074 459.927C664.821 437.14 684.214 405.732 694.796 370.875C697.335 362.509 698.769 353.892 701.009 345.453C701.08 362.275 699.567 378.35 695.557 394.729C694.14 400.52 692.225 406.305 690.25 411.929C689.558 413.901 687.196 418.547 687.219 420.395C686.233 429.357 681.38 438.762 677.269 446.71C665.44 469.581 651.286 490.773 630.979 507.07C612.726 521.718 594.017 532.532 571.914 540.347L560.861 543.862C558.305 544.54 554.162 544.789 552.024 546.073C550.965 546.709 549.445 546.73 548.226 546.893C544.798 547.331 540.893 547.026 537.402 547.056L514.186 547.15L436.57 547.106C435.872 546.488 435.208 545.815 434.262 545.606C432.55 545.227 430.43 545.451 428.669 545.438L417.679 545.4C410.254 544.556 402.076 545.125 394.573 545.012C385.421 537.903 377.124 530.459 369.764 521.453C346.88 493.453 332.291 459.926 326.293 424.29C321.409 395.275 322.228 365.533 325.198 336.391C326.114 332.86 326.761 328.26 329.102 325.417C329.613 321.328 329.454 317.071 329.51 312.95L329.499 280.799Z"/>
	<path fill="#EFA536" transform="scale(0.488281 0.488281)" d="M364.923 242.25C365.964 242.038 366.825 242.081 367.827 242.434C369.476 243.015 370.665 244.333 371.343 245.909C372.601 248.831 372.171 252.329 372.151 255.451L372.038 271.246C372.014 273.937 372.576 278.384 371.484 280.824C370.621 282.752 368.609 283.774 366.75 284.485C365.668 284.598 364.429 284.618 363.388 284.25C361.702 283.654 360.599 282.101 360.029 280.475C359.024 277.608 359.542 273.238 359.531 270.2L359.546 253.527C359.555 251.237 359.204 247.801 360.261 245.758C361.274 243.803 362.876 242.825 364.923 242.25Z"/>
	<path fill="#EFA536" transform="scale(0.488281 0.488281)" d="M363.95 354.25C365.251 353.883 366.877 353.626 368.181 354.119C369.982 354.801 371.081 356.541 371.736 358.25C372.98 361.494 372.987 392.214 371.417 395.25C370.525 396.976 369.53 397.537 367.75 398.155C366.241 398.517 364.073 398.381 362.685 397.625C361.456 396.956 360.448 395.741 360.057 394.4C359.317 391.861 359.644 388.518 359.629 385.859L359.602 369.75C359.588 366.708 358.742 360.307 360.174 357.691L360.443 357.25C361.385 355.659 362.308 355.072 363.95 354.25Z"/>
	<path fill="#EFA536" transform="scale(0.488281 0.488281)" d="M364.662 296.25C365.705 296.066 366.574 295.958 367.619 296.215C369.157 296.592 370.536 297.828 371.293 299.207C373.132 302.557 373.067 335.23 371.702 339.199C370.974 341.318 369.677 342.393 367.75 343.385C366.504 343.624 364.988 343.629 363.75 343.324C362.139 342.927 360.688 341.14 360.023 339.702C358.845 337.155 359.03 302.064 360.154 299.805C361.147 297.81 362.645 296.958 364.662 296.25Z"/>
	<path fill="#AD1C1E" transform="scale(0.488281 0.488281)" d="M329.102 325.417C329.323 338.587 329.449 351.734 331.23 364.81C336.983 407.031 356.069 448.253 386.865 478.009C423.366 513.278 470.208 531.84 520.987 530.935C537.956 530.632 556.022 528.579 572.374 523.948C600.781 515.903 628.444 498.953 648.919 477.711C659.301 466.94 668.431 455.226 675.91 442.251L687.219 420.395C686.233 429.357 681.38 438.762 677.269 446.71C665.44 469.581 651.286 490.773 630.979 507.07C612.726 521.718 594.017 532.532 571.914 540.347L560.861 543.862C558.305 544.54 554.162 544.789 552.024 546.073C550.965 546.709 549.445 546.73 548.226 546.893C544.798 547.331 540.893 547.026 537.402 547.056L514.186 547.15L436.57 547.106C435.872 546.488 435.208 545.815 434.262 545.606C432.55 545.227 430.43 545.451 428.669 545.438L417.679 545.4C410.254 544.556 402.076 545.125 394.573 545.012C385.421 537.903 377.124 530.459 369.764 521.453C346.88 493.453 332.291 459.926 326.293 424.29C321.409 395.275 322.228 365.533 325.198 336.391C326.114 332.86 326.761 328.26 329.102 325.417Z"/>
</svg>
