<?xml version="1.0" encoding="utf-8" ?>
<svg xmlns="http://www.w3.org/2000/svg" xmlns:xlink="http://www.w3.org/1999/xlink" width="500" height="500">
	<path fill="#F9F8F5" transform="scale(0.488281 0.488281)" d="M-0 -0L1024 0L1024 1024L-0 1024L0 -0Z"/>
	<path fill="#AB6772" transform="scale(0.488281 0.488281)" d="M784.131 529.913L817.75 498.331L856.64 456.134L882.24 425.466L905.067 394.162C909.102 388.123 912.606 381.389 917.004 375.658L917.258 375.335C924.203 397.217 929.907 419.292 933.567 441.973C948.021 531.535 934.904 626.775 892.963 707.575C852.925 784.71 789.204 848.039 712.161 888.16C688.715 900.37 664.211 910.082 639 917.983C619.247 924.173 598.99 928.397 578.547 931.514C488.164 945.292 392.845 930.871 311.709 888.097C280.142 871.455 250.786 851.872 224.147 828.077C168.287 778.181 125.512 710.414 103.502 638.906C83.4632 573.805 78.611 503.941 90.5905 436.822C94.0598 417.384 99.2598 398.208 105.103 379.36C113.34 391.513 123.382 402.728 132.75 414.024L193.841 485.75L223.464 520.605C228.364 526.338 233.158 532.626 238.549 537.864L228.025 629.359L224.808 658.25C224.207 663.815 223.364 669.358 223.377 674.967L222.759 697.571C222.561 704.648 222.166 711.928 224.117 718.837C219.171 722.442 214.277 725.948 209.895 730.245C203.404 736.611 198.31 743.014 196.901 752.25L196.777 753.021C195.555 761.409 199.557 770.231 204.493 776.791C213.568 788.848 227.76 797.272 240.969 804.027C285.625 826.864 336.459 837.401 385.86 843.927C428.811 849.601 471.958 851.868 515.266 851.641C564.822 851.381 614.963 848.031 663.812 839.428L709.12 829.492C727.893 824.962 746.142 819.39 764.097 812.25C778.784 806.41 793.141 799.694 805.785 790.102C814.577 783.431 824.905 771.634 826.393 760.197C827.553 751.284 824.467 742.662 819.079 735.627C816.793 732.643 811.323 729.023 810.896 725.332L810.545 722.481C810.65 715.928 808.5 708.283 807.623 701.719L799.913 645.054L784.131 529.913Z"/>
	<path fill="#6D355B" transform="scale(0.488281 0.488281)" d="M763.944 377.854L784.131 529.913L799.913 645.054L807.623 701.719C808.5 708.283 810.65 715.928 810.545 722.481L810.896 725.332C811.323 729.023 816.793 732.643 819.079 735.627C824.467 742.662 827.553 751.284 826.393 760.197C824.905 771.634 814.577 783.431 805.785 790.102C793.141 799.694 778.784 806.41 764.097 812.25C746.142 819.39 727.893 824.962 709.12 829.492L663.812 839.428C614.963 848.031 564.822 851.381 515.266 851.641C471.958 851.868 428.811 849.601 385.86 843.927C336.459 837.401 285.625 826.864 240.969 804.027C227.76 797.272 213.568 788.848 204.493 776.791C199.557 770.231 195.555 761.409 196.777 753.021L196.901 752.25C198.31 743.014 203.404 736.611 209.895 730.245C214.277 725.948 219.171 722.442 224.117 718.837C222.166 711.928 222.561 704.648 222.759 697.571L223.377 674.967L689.917 700.082L676.388 435.783L677.342 426.002C674.105 419.135 675.87 410.1 673.307 403.106C674.495 398.094 675.722 390.51 678.562 386.268L679.331 386.545L679.656 385.171L681.344 384.725L710.823 382.216C713.705 381.829 716.4 381.535 719.317 381.645L746.629 379.722C752.349 379.214 758.328 379.012 763.944 377.854Z"/>
	<path fill="#162462" transform="scale(0.488281 0.488281)" d="M710.823 382.216C713.705 381.829 716.4 381.535 719.317 381.645L752.54 688.475C752.732 702.528 754.661 717.223 756.275 731.203C756.882 736.461 758.379 742.657 758.207 747.866L696.461 773.871L695.656 774.194C694.202 774.791 693.253 774.855 691.678 774.764L656.906 771.75L546.261 764.495L463.49 758.707L336.548 749.678L305.495 747.168C300.765 746.751 295.942 746.798 291.38 745.414L693.5 772.863L694.504 771.464L709.843 748.498L735.351 707.299L742.25 694.933C742.958 693.57 744.195 691.654 744.581 690.186C745.273 687.553 743.776 681.301 743.41 678.382L739.85 648.379L720.462 471.36L715.254 421.278C714.002 408.3 712.983 395.077 710.823 382.216Z"/>
	<defs>
		<linearGradient id="gradient_0" gradientUnits="userSpaceOnUse" x1="662.92432" y1="571.88751" x2="753.13452" y2="580.17426">
			<stop offset="0" stop-color="#C4462B"/>
			<stop offset="1" stop-color="#E78B3B"/>
		</linearGradient>
	</defs>
	<path fill="url(#gradient_0)" transform="scale(0.488281 0.488281)" d="M681.344 384.725L710.823 382.216C712.983 395.077 714.002 408.3 715.254 421.278L720.462 471.36L739.85 648.379L743.41 678.382C743.776 681.301 745.273 687.553 744.581 690.186C744.195 691.654 742.958 693.57 742.25 694.933L735.351 707.299L709.843 748.498L694.504 771.464C693.828 768.955 693.823 766.037 693.603 763.438L692.539 749.531L689.917 700.082L676.388 435.783L677.342 426.002C674.105 419.135 675.87 410.1 673.307 403.106C674.495 398.094 675.722 390.51 678.562 386.268L679.331 386.545L679.656 385.171L681.344 384.725Z"/>
	<path fill="#162462" transform="scale(0.488281 0.488281)" d="M673.307 403.106C674.495 398.094 675.722 390.51 678.562 386.268L679.331 386.545L677.342 426.002C674.105 419.135 675.87 410.1 673.307 403.106Z"/>
	<defs>
		<linearGradient id="gradient_1" gradientUnits="userSpaceOnUse" x1="695.5542" y1="535.29346" x2="835.66815" y2="557.18048">
			<stop offset="0" stop-color="#C54133"/>
			<stop offset="1" stop-color="#F0B135"/>
		</linearGradient>
	</defs>
	<path fill="url(#gradient_1)" transform="scale(0.488281 0.488281)" d="M763.944 377.854L784.131 529.913L799.913 645.054L807.623 701.719C808.5 708.283 810.65 715.928 810.545 722.481L810.896 725.332L758.207 747.866C758.379 742.657 756.882 736.461 756.275 731.203C754.661 717.223 752.732 702.528 752.54 688.475L719.317 381.645L746.629 379.722C752.349 379.214 758.328 379.012 763.944 377.854Z"/>
	<path fill="#1A607B" transform="scale(0.488281 0.488281)" d="M752.54 688.475L778.403 703.044L810.545 722.481L810.896 725.332L758.207 747.866C758.379 742.657 756.882 736.461 756.275 731.203C754.661 717.223 752.732 702.528 752.54 688.475Z"/>
	<path fill="#87CC9E" transform="scale(0.488281 0.488281)" d="M223.377 674.967L689.917 700.082L692.539 749.531L693.603 763.438C693.823 766.037 693.828 768.955 694.504 771.464L693.5 772.863L291.38 745.414C290.193 744.627 285.191 744.756 283.594 744.65L260.204 742.998C256.027 742.712 251.681 742.903 247.62 741.795L246.75 741.547C244.427 740.922 242.394 740.229 240.287 739.071C232.19 734.624 226.722 727.682 224.117 718.837C222.166 711.928 222.561 704.648 222.759 697.571L223.377 674.967Z"/>
	<path fill="#218085" transform="scale(0.488281 0.488281)" d="M671.707 398.972C671.941 396.154 673.413 392.676 674.276 389.971C678.661 376.242 684.56 361.636 694.774 351.138C697.681 348.15 701.063 345.87 704.434 343.459C705.256 342.871 706.69 341.522 707.588 341.195C708.89 340.72 713.145 341.118 714.685 341.097C710.231 343.488 705.8 345.591 701.728 348.652C690.687 356.953 683.565 370.57 679.508 383.5L679.75 384.682L681.344 384.725L679.656 385.171L679.331 386.545L678.562 386.268C675.722 390.51 674.495 398.094 673.307 403.106C675.87 410.1 674.105 419.135 677.342 426.002L676.388 435.783L689.917 700.082L223.377 674.967C223.364 669.358 224.207 663.815 224.808 658.25L228.025 629.359L238.549 537.864L258.307 391.687L259.193 383.993L671.707 398.972Z"/>
	<path fill="#194073" transform="scale(0.488281 0.488281)" d="M329.633 524.101C344.336 531.731 358.535 539.126 374.392 544.218C381.99 546.658 389.742 548.168 397.513 549.884L397.553 560.885C377.512 555.373 359.01 545.881 342 534.057C337.751 531.103 333.009 528.059 329.633 524.101Z"/>
	<path fill="#194073" transform="scale(0.488281 0.488281)" d="M673.307 403.106C675.87 410.1 674.105 419.135 677.342 426.002L676.388 435.783L676.189 436.29C674.853 439.754 674.317 443.525 673.152 447.075C670.621 454.788 667.381 462.685 663.875 470.005C660.584 476.874 656.145 483.492 651.635 489.626C633.832 513.837 609.854 531.504 582.551 543.794C564.878 551.749 546.203 557.922 527.327 562.287C518.146 564.411 508.849 566.386 499.448 567.184L499.579 586.368C499.6 591.123 499.853 595.917 498.674 600.559L498.493 601.317C497.432 605.599 495.256 609.482 492.955 613.204C486.444 623.741 476.683 633.88 465.96 640.182C460.267 643.527 454.823 646.966 447.99 645.105C444.289 644.097 437.091 640.976 434.924 637.562L434.591 636.741C437.098 637.517 439.945 638.446 442.592 638.357C452.625 638.019 465.49 626.95 472.098 620.093C478.399 613.553 484.445 605.617 486.97 596.75C488.464 591.503 488.101 585.796 488.085 580.387L487.906 557.557C500.353 557.585 513.449 555.028 525.5 552.047C550.6 545.839 574.4 536.785 596.213 522.736C611.761 512.722 626.947 499.003 638.045 484.265C655.438 461.167 667.184 431.28 673.307 403.106Z"/>
	<path fill="#F6C03E" transform="scale(0.488281 0.488281)" d="M397.61 549.637C398.032 548.15 397.852 546.704 397.828 545.175L397.712 523.577C397.636 518.045 396.95 511.69 398.212 506.273C398.884 503.387 400.509 500.694 402.627 498.628C405.103 496.212 408.344 494.405 411.75 493.755C417.218 492.712 424.235 493.583 429.835 493.634L470.617 493.938C475.642 494.307 479.375 495.725 482.826 499.553C485.131 502.11 486.67 505.303 487.352 508.672C488.422 513.956 487.96 519.789 487.951 525.171L487.86 553.951L487.906 557.557L488.085 580.387C488.101 585.796 488.464 591.503 486.97 596.75C484.445 605.617 478.399 613.553 472.098 620.093C465.49 626.95 452.625 638.019 442.592 638.357C439.945 638.446 437.098 637.517 434.591 636.741C426.698 632.469 419.808 626.788 413.497 620.425C407.565 614.443 402.418 607.738 399.817 599.629C396.043 587.862 397.535 573.157 397.553 560.885L397.513 549.884L397.61 549.637Z"/>
	<path fill="#DC8F34" transform="scale(0.488281 0.488281)" d="M438.734 529.759L439 529.175C445.352 528.747 450.925 529.929 455.867 534.25L457.952 536.5L458.348 536.964C463.303 542.934 463.753 550.911 463.415 558.313C463.468 566.615 464.214 575.853 457.898 582.25C453.878 586.321 448.34 588.206 442.703 588.022C435.539 587.789 429.578 583.51 424.889 578.41C423.147 576.516 420.546 573.933 419.628 571.536C422.596 574.33 426.095 576.782 429.947 578.191C435.932 580.379 443.946 579.937 449.598 577.082C455.008 574.349 459.402 569.548 461.367 563.801L461.633 563C462.797 559.665 462.544 555.994 462.553 552.491L462.506 552.214C461.83 547.691 459.866 542.619 456.867 539.101C452.09 533.499 446.109 530.242 438.734 529.759Z"/>
	<path fill="#E8B791" transform="scale(0.488281 0.488281)" d="M419.628 571.536C417.284 568.247 415.206 564.947 413.88 561.099C411.857 555.231 412.46 548.768 415.206 543.249C418.122 537.388 422.93 533.032 429.212 531.072L429.962 530.845C432.853 529.945 435.733 529.892 438.734 529.759C446.109 530.242 452.09 533.499 456.867 539.101C459.866 542.619 461.83 547.691 462.506 552.214L462.553 552.491C462.544 555.994 462.797 559.665 461.633 563L461.367 563.801C459.402 569.548 455.008 574.349 449.598 577.082C443.946 579.937 435.932 580.379 429.947 578.191C426.095 576.782 422.596 574.33 419.628 571.536Z"/>
	<path fill="#F9F8F5" transform="scale(0.488281 0.488281)" d="M432.872 538.138C435.254 538.333 437.175 538.695 439.175 540.081C441.509 541.698 443.038 544.43 443.553 547.178C444.2 550.622 443.265 554.412 441.237 557.249C438.803 560.653 435.614 561.699 431.677 562.429C429.437 562.208 427.393 561.956 425.431 560.771C422.83 559.198 421.653 556.648 421.054 553.758C420.314 550.191 420.805 546.766 422.97 543.785C425.549 540.234 428.707 538.908 432.872 538.138Z"/>
	<path fill="#E8513F" transform="scale(0.488281 0.488281)" d="M671.707 398.972C671.941 396.154 673.413 392.676 674.276 389.971C678.661 376.242 684.56 361.636 694.774 351.138C697.681 348.15 701.063 345.87 704.434 343.459C705.256 342.871 706.69 341.522 707.588 341.195C708.89 340.72 713.145 341.118 714.685 341.097C710.231 343.488 705.8 345.591 701.728 348.652C690.687 356.953 683.565 370.57 679.508 383.5L679.75 384.682L681.344 384.725L679.656 385.171L679.331 386.545L678.562 386.268C675.722 390.51 674.495 398.094 673.307 403.106C667.184 431.28 655.438 461.167 638.045 484.265C626.947 499.003 611.761 512.722 596.213 522.736C574.4 536.785 550.6 545.839 525.5 552.047C513.449 555.028 500.353 557.585 487.906 557.557L487.86 553.951L487.951 525.171C487.96 519.789 488.422 513.956 487.352 508.672C486.67 505.303 485.131 502.11 482.826 499.553C479.375 495.725 475.642 494.307 470.617 493.938L429.835 493.634C424.235 493.583 417.218 492.712 411.75 493.755C408.344 494.405 405.103 496.212 402.627 498.628C400.509 500.694 398.884 503.387 398.212 506.273C396.95 511.69 397.636 518.045 397.712 523.577L397.828 545.175C397.852 546.704 398.032 548.15 397.61 549.637L397.513 549.884C389.742 548.168 381.99 546.658 374.392 544.218C358.535 539.126 344.336 531.731 329.633 524.101C321.405 518.18 313.265 512.329 306.125 505.068L300.5 500.014C279.899 480.791 265.743 454.368 261.25 426.535C259.433 415.276 259.18 404.232 258.794 392.878L258.307 391.687L259.193 383.993L671.707 398.972Z"/>
	<path fill="#B4262C" transform="scale(0.488281 0.488281)" d="M306.125 505.068C309.467 506.536 312.266 509.063 315.203 511.193L325.656 518.026C347.022 531.145 372.255 542.531 397.223 546.271L397.61 549.637L397.513 549.884C389.742 548.168 381.99 546.658 374.392 544.218C358.535 539.126 344.336 531.731 329.633 524.101C321.405 518.18 313.265 512.329 306.125 505.068Z"/>
	<path fill="#B4262C" transform="scale(0.488281 0.488281)" d="M671.707 398.972C671.941 396.154 673.413 392.676 674.276 389.971C678.661 376.242 684.56 361.636 694.774 351.138C697.681 348.15 701.063 345.87 704.434 343.459C705.256 342.871 706.69 341.522 707.588 341.195C708.89 340.72 713.145 341.118 714.685 341.097C710.231 343.488 705.8 345.591 701.728 348.652C690.687 356.953 683.565 370.57 679.508 383.5L679.75 384.682L681.344 384.725L679.656 385.171L679.331 386.545L678.562 386.268C675.722 390.51 674.495 398.094 673.307 403.106C667.184 431.28 655.438 461.167 638.045 484.265C626.947 499.003 611.761 512.722 596.213 522.736C574.4 536.785 550.6 545.839 525.5 552.047C513.449 555.028 500.353 557.585 487.906 557.557L487.86 553.951L487.951 525.171C487.96 519.789 488.422 513.956 487.352 508.672C486.67 505.303 485.131 502.11 482.826 499.553C479.375 495.725 475.642 494.307 470.617 493.938L467.25 493.269L467.25 492.742C474.132 492.464 480.681 491.564 486.265 496.579C487.986 498.125 489.161 499.878 490.025 502L490.288 502.628C493.205 509.844 491.636 520.368 491.549 528.064L491.481 553.992C520.475 551.228 550.573 543.39 576.5 529.926C594.358 520.653 611.883 508.368 625.609 493.603C640.395 477.697 651.645 458.224 659.486 438.036C663.37 428.036 665.978 417.681 669.218 407.476L671.707 398.972Z"/>
	<path fill="#B4262C" transform="scale(0.488281 0.488281)" d="M259.193 383.993L671.707 398.972L669.218 407.476L258.794 392.878L258.307 391.687L259.193 383.993Z"/>
	<path fill="#E8B791" transform="scale(0.488281 0.488281)" d="M105.103 379.36L121.098 338.769C160.767 251.865 227.42 180.207 311.74 135.064C327.603 126.572 343.882 118.643 360.764 112.366C438.162 83.5861 519.695 77.3738 600.5 94.4383C629.281 100.516 657.624 109.173 684.384 121.496C696.027 126.857 707.698 132.308 718.864 138.617C791.166 179.464 851.888 240.864 890.75 314.347C901.103 333.923 909.584 354.582 917.258 375.335L917.004 375.658C912.606 381.389 909.102 388.123 905.067 394.162L882.24 425.466L856.64 456.134L817.75 498.331L784.131 529.913L763.944 377.854C758.328 379.012 752.349 379.214 746.629 379.722L719.317 381.645C716.4 381.535 713.705 381.829 710.823 382.216L681.344 384.725L679.75 384.682L679.508 383.5C683.565 370.57 690.687 356.953 701.728 348.652C705.8 345.591 710.231 343.488 714.685 341.097C713.145 341.118 708.89 340.72 707.588 341.195C706.69 341.522 705.256 342.871 704.434 343.459C701.063 345.87 697.681 348.15 694.774 351.138C684.56 361.636 678.661 376.242 674.276 389.971C673.413 392.676 671.941 396.154 671.707 398.972L259.193 383.993L258.307 391.687L238.549 537.864C233.158 532.626 228.364 526.338 223.464 520.605L193.841 485.75L132.75 414.024C123.382 402.728 113.34 391.513 105.103 379.36Z"/>
	<path fill="#162462" transform="scale(0.488281 0.488281)" d="M510.875 172.01C517.922 172.083 524.993 172.207 531.954 173.427C554.475 177.375 576.843 189.405 592.81 205.69C614.168 227.474 627.434 255.482 632.965 285.331C634.205 292.022 635.424 298.761 635.663 305.575C633.502 306.499 630.293 306.053 627.948 306.025L622.037 305.849C620.992 299.981 620.985 293.759 620.002 287.797C616.338 265.59 608.204 243.688 595.573 225C580.44 202.61 556.456 183.977 530.5 176.047C523.958 174.049 517.538 173.318 510.875 172.01Z"/>
	<path fill="#7B1025" transform="scale(0.488281 0.488281)" d="M716.776 340.606C728.765 339.692 738.716 341.767 748.06 349.739C756.152 356.642 762.277 367.279 763.944 377.854C758.328 379.012 752.349 379.214 746.629 379.722L719.317 381.645C716.4 381.535 713.705 381.829 710.823 382.216L681.344 384.725L679.75 384.682L679.508 383.5C683.565 370.57 690.687 356.953 701.728 348.652C705.8 345.591 710.231 343.488 714.685 341.097L716.776 340.606Z"/>
	<path fill="#218085" transform="scale(0.488281 0.488281)" d="M386.197 300.034C388.129 263.601 404.057 227.451 430.75 202.403C452.01 182.452 481.797 171.107 510.875 172.01C517.538 173.318 523.958 174.049 530.5 176.047C556.456 183.977 580.44 202.61 595.573 225C608.204 243.688 616.338 265.59 620.002 287.797C620.985 293.759 620.992 299.981 622.037 305.849L602.59 304.922C600.165 274.599 587.715 242.959 565.719 221.578C554.325 210.501 539.266 201.572 523.575 198.356C516.425 196.891 509.369 196.755 502.098 196.873C477.052 200.724 456.483 214.878 441.624 235.183C431.135 249.515 424.588 267.574 421.642 285.009C420.75 290.285 420.386 295.612 419.817 300.925L408.596 300.984L404.212 300.767L386.197 300.034Z"/>
	<path fill="#162462" transform="scale(0.488281 0.488281)" d="M404.212 300.767C405.81 293.592 407.06 286.221 409.026 279.141C416.51 252.182 430.662 227.801 454.23 211.867C465.289 204.391 477.309 199.442 490.534 197.385C494.367 196.789 498.247 196.142 502.098 196.873C477.052 200.724 456.483 214.878 441.624 235.183C431.135 249.515 424.588 267.574 421.642 285.009C420.75 290.285 420.386 295.612 419.817 300.925L408.596 300.984L404.212 300.767Z"/>
	<path fill="#E8B791" transform="scale(0.488281 0.488281)" d="M502.098 196.873C509.369 196.755 516.425 196.891 523.575 198.356C539.266 201.572 554.325 210.501 565.719 221.578C587.715 242.959 600.165 274.599 602.59 304.922C600.574 305.29 599.012 305.2 597.569 306.75L597.004 338.514L425.787 334.481L426.186 315.936C426.317 311.698 426.662 307.404 426.301 303.174C424.355 301.138 422.524 301.224 419.817 300.925C420.386 295.612 420.75 290.285 421.642 285.009C424.588 267.574 431.135 249.515 441.624 235.183C456.483 214.878 477.052 200.724 502.098 196.873Z"/>
	<path fill="#E8513F" transform="scale(0.488281 0.488281)" d="M374.756 331.658L376.008 312.831C376.151 309.739 375.873 306.083 376.548 303.092C376.818 301.895 377.513 301.006 378.599 300.417C381.062 299.081 383.598 299.331 386.197 300.034L404.212 300.767L408.596 300.984L419.817 300.925C422.524 301.224 424.355 301.138 426.301 303.174C426.662 307.404 426.317 311.698 426.186 315.936L425.787 334.481L597.004 338.514L597.569 306.75C599.012 305.2 600.574 305.29 602.59 304.922L622.037 305.849L627.948 306.025C630.293 306.053 633.502 306.499 635.663 305.575L636.156 305.783C637.923 306.353 639.924 305.415 640.967 307L639.491 338.987L716.776 340.606L714.685 341.097C713.145 341.118 708.89 340.72 707.588 341.195C706.69 341.522 705.256 342.871 704.434 343.459C701.063 345.87 697.681 348.15 694.774 351.138C684.56 361.636 678.661 376.242 674.276 389.971C673.413 392.676 671.941 396.154 671.707 398.972L259.193 383.993C263.239 366.826 270.699 350.867 284.006 338.862C287.604 335.616 292.762 331.523 297.493 330.439C299.797 329.911 302.581 330.299 304.947 330.377L317.75 330.779L371.83 332.134L374.756 331.658Z"/>
	<path fill="#B4262C" transform="scale(0.488281 0.488281)" d="M639.491 338.987L640.459 341.866C642.477 347.39 639.07 354.161 636.715 359.15C631.53 370.13 624.605 381.49 613.901 387.954C606.157 388.354 598.533 387.751 590.805 387.437C586.708 387.271 582.018 387.544 578.009 386.801C577.095 386.632 576.29 386.162 575.627 385.525C573.935 383.898 573.551 381.245 573.608 379C573.839 369.869 578.023 360.776 583.25 353.469C585.737 349.991 588.645 347.071 591.668 344.067C593.211 342.532 594.803 340.694 596.658 339.569C596.499 342.112 596.566 344.883 595.789 347.319C588.784 353.875 584.238 359.668 584.012 369.75C583.937 373.059 584.467 376.346 586.75 378.888C589.798 382.281 595.668 382.954 600 382.897C608.964 382.779 616.856 379.411 622.989 372.871C626.14 369.51 628.209 365.603 629.2 361.099C630.269 357.391 630.905 353.619 631.515 349.813C631.939 347.164 632.122 344.103 633.859 341.922C635.468 339.901 636.999 339.284 639.491 338.987Z"/>
	<path fill="#B4262C" transform="scale(0.488281 0.488281)" d="M371.83 332.134L374.756 331.658C374.129 334.793 373.579 338.558 371.989 341.353C367.84 348.645 355.522 359.766 361.599 369.055C363.907 372.583 368.074 374.198 372.076 374.852C378.93 375.972 388.67 376.388 394.5 372.048C402.608 366.012 409.751 351.934 410.826 341.958L410.957 335.417C411.149 334.978 411.423 334.637 411.703 334.25L415.879 334.623L419.738 341.384C419.329 349.356 416.397 356.524 412.958 363.619C409.063 371.652 404.503 378.427 395.648 381.403L395 381.614C391.495 382.792 387.384 382.601 383.699 382.629C378.417 382.669 372.843 382.832 367.605 382.123L366.75 381.997C363.221 381.51 360.373 380.03 357.893 377.444C354.294 373.691 353.287 369.54 353.494 364.5C353.95 353.387 359.788 342.8 367.906 335.398L371.83 332.134Z"/>
	<path fill="#F6C03E" transform="scale(0.488281 0.488281)" d="M602.59 304.922L622.037 305.849L627.948 306.025C630.293 306.053 633.502 306.499 635.663 305.575L636.156 305.783C637.923 306.353 639.924 305.415 640.967 307L639.491 338.987C636.999 339.284 635.468 339.901 633.859 341.922C632.122 344.103 631.939 347.164 631.515 349.813C630.905 353.619 630.269 357.391 629.2 361.099C628.209 365.603 626.14 369.51 622.989 372.871C616.856 379.411 608.964 382.779 600 382.897C595.668 382.954 589.798 382.281 586.75 378.888C584.467 376.346 583.937 373.059 584.012 369.75C584.238 359.668 588.784 353.875 595.789 347.319C596.566 344.883 596.499 342.112 596.658 339.569L597.004 338.514L597.569 306.75C599.012 305.2 600.574 305.29 602.59 304.922Z"/>
	<path fill="#DC8F34" transform="scale(0.488281 0.488281)" d="M596.148 352.074C597.451 354.789 597.936 357.745 599.921 360.092C601.22 360.849 603.005 360.627 604.47 360.495C611.078 359.898 616.049 355.25 620.129 350.464C618.699 356.001 618.165 362.446 612.688 365.75L610.307 366.899C604.754 367.727 599.081 366.775 594.42 363.636L596.148 352.074Z"/>
	<path fill="#B86A10" transform="scale(0.488281 0.488281)" d="M594.42 363.636C599.081 366.775 604.754 367.727 610.307 366.899C613.67 367.953 615.707 369.491 618.432 371.598C615.071 374.417 611.609 376.811 607.048 376.956C603.751 377.061 599.521 376.315 597.116 373.883C594.109 370.843 594.416 367.618 594.42 363.636Z"/>
	<path fill="#CF7E1D" transform="scale(0.488281 0.488281)" d="M635.663 305.575L636.156 305.783C637.923 306.353 639.924 305.415 640.967 307L639.491 338.987C636.999 339.284 635.468 339.901 633.859 341.922C632.122 344.103 631.939 347.164 631.515 349.813C630.905 353.619 630.269 357.391 629.2 361.099C625.998 361.969 621.326 369.144 618.432 371.598C615.707 369.491 613.67 367.953 610.307 366.899L612.688 365.75C618.165 362.446 618.699 356.001 620.129 350.464C621.61 347.377 623.541 344.622 624.844 341.398C629.239 330.52 628.016 317.547 627.948 306.025C630.293 306.053 633.502 306.499 635.663 305.575Z"/>
	<path fill="#F6C03E" transform="scale(0.488281 0.488281)" d="M374.756 331.658L376.008 312.831C376.151 309.739 375.873 306.083 376.548 303.092C376.818 301.895 377.513 301.006 378.599 300.417C381.062 299.081 383.598 299.331 386.197 300.034L404.212 300.767L408.596 300.984L419.817 300.925C422.524 301.224 424.355 301.138 426.301 303.174C426.662 307.404 426.317 311.698 426.186 315.936L425.787 334.481L415.879 334.623L411.703 334.25C411.423 334.637 411.149 334.978 410.957 335.417L410.826 341.958C409.751 351.934 402.608 366.012 394.5 372.048C388.67 376.388 378.93 375.972 372.076 374.852C368.074 374.198 363.907 372.583 361.599 369.055C355.522 359.766 367.84 348.645 371.989 341.353C373.579 338.558 374.129 334.793 374.756 331.658Z"/>
	<path fill="#DC8F34" transform="scale(0.488281 0.488281)" d="M368.195 358.41C367.59 356.286 367.464 354.765 367.75 352.574L368.298 352.25L368.58 352.795C370.391 356.163 372.601 357.892 375.672 360.03L375.857 360.205C374.055 360.376 372.388 360.38 370.584 360.233L368.195 358.41Z"/>
	<path fill="#B86A10" transform="scale(0.488281 0.488281)" d="M368.195 358.41L370.584 360.233C375.569 364.159 379.975 364.926 386.25 364.183C388.2 363.952 390.5 362.94 392.423 363.299C390.095 365.844 386.452 368.401 383.095 369.28C379.929 370.109 375.54 369.615 372.817 367.75C369.18 365.259 368.916 362.46 368.195 358.41Z"/>
	<path fill="#CF7E1D" transform="scale(0.488281 0.488281)" d="M375.857 360.205L376.522 360.18C385.809 359.772 390.158 356.043 396.162 349.452L399.215 346.023C398.582 352.128 397.453 359.063 392.423 363.299C390.5 362.94 388.2 363.952 386.25 364.183C379.975 364.926 375.569 364.159 370.584 360.233C372.388 360.38 374.055 360.376 375.857 360.205Z"/>
	<path fill="#CF7E1D" transform="scale(0.488281 0.488281)" d="M419.817 300.925C422.524 301.224 424.355 301.138 426.301 303.174C426.662 307.404 426.317 311.698 426.186 315.936L425.787 334.481L415.879 334.623L411.703 334.25C411.423 334.637 411.149 334.978 410.957 335.417C408.944 337.105 406.241 338.161 403.876 339.299L406.371 321.842C407.391 314.855 408.547 308.071 408.596 300.984L419.817 300.925Z"/>
</svg>
