<?xml version="1.0" encoding="utf-8" ?>
<svg xmlns="http://www.w3.org/2000/svg" xmlns:xlink="http://www.w3.org/1999/xlink" width="500" height="500">
	<path fill="#DDE1F4" transform="scale(0.488281 0.488281)" d="M-0 -0L1024 0L1024 1024L-0 1024L0 -0Z"/>
	<path fill="#8F070C" transform="scale(0.488281 0.488281)" d="M879.006 388.468L870.742 354.062C864.08 330.906 854.895 307.705 843.709 286.361L822.573 250C821.52 248.23 820.481 246.995 820.68 244.865C831.817 258.713 841.536 273.694 850.554 288.988C893.79 362.311 913.635 449.336 904.412 534.169C898.531 588.259 882.824 639.969 856.342 687.584C847.986 702.608 838.459 716.846 828.623 730.926C818.608 744.032 808.264 756.974 796.836 768.898C735.224 833.178 652.791 875.207 564.537 887.128C531.921 891.533 497.119 892.172 464.497 887.576C467.212 885.011 471.016 883.314 474.205 881.351L492.702 869.784C507.232 860.687 522.023 849.836 534.85 838.462L535.897 838.117L571.988 806.24C584.426 794.453 596.571 782.273 607.876 769.385C620.763 754.692 632.624 739.055 644.142 723.281L660.747 700.21L661.314 699.84C663.452 695.61 666.435 691.466 669.048 687.5L683.033 665.979C701.157 636.533 719.324 605.932 733.58 574.426L734.43 574.441C777.664 551.447 820.29 525.118 854.674 489.821C866.461 477.722 876.908 464.447 887.605 451.397C887.249 437.949 885.012 423.802 883.084 410.5C882.058 403.419 881.408 395.203 879.006 388.468Z"/>
	<path fill="#9D4C09" transform="scale(0.488281 0.488281)" d="M733.58 574.426L734.43 574.441C777.664 551.447 820.29 525.118 854.674 489.821C866.461 477.722 876.908 464.447 887.605 451.397C888.908 463.233 888.338 475.241 887.99 487.114C887.778 494.305 888.288 502.975 885.843 509.725L885.781 509.975L873.674 530.777L853.982 561.077C827.52 599.053 794.461 635.159 755.338 660.333C735.168 673.311 713.259 683.185 690.595 690.92C680.962 694.208 671.241 697.567 661.314 699.84C663.452 695.61 666.435 691.466 669.048 687.5L683.033 665.979C701.157 636.533 719.324 605.932 733.58 574.426Z"/>
	<path fill="#710100" transform="scale(0.488281 0.488281)" d="M879.006 388.468L870.742 354.062C864.08 330.906 854.895 307.705 843.709 286.361L822.573 250C821.52 248.23 820.481 246.995 820.68 244.865C831.817 258.713 841.536 273.694 850.554 288.988C893.79 362.311 913.635 449.336 904.412 534.169C898.531 588.259 882.824 639.969 856.342 687.584C847.986 702.608 838.459 716.846 828.623 730.926C818.608 744.032 808.264 756.974 796.836 768.898C735.224 833.178 652.791 875.207 564.537 887.128C531.921 891.533 497.119 892.172 464.497 887.576C467.212 885.011 471.016 883.314 474.205 881.351L492.702 869.784C507.232 860.687 522.023 849.836 534.85 838.462L535.897 838.117C557.501 836.745 579.408 832.44 600.448 827.442C619.302 822.962 638.522 817.627 656.609 810.634C707.121 791.104 752.327 760.261 788.928 720.355C834.545 670.617 867.087 609.837 880.601 543.5C882.746 532.967 886.249 520.741 885.781 509.975L885.843 509.725C888.288 502.975 887.778 494.305 887.99 487.114C888.338 475.241 888.908 463.233 887.605 451.397C887.249 437.949 885.012 423.802 883.084 410.5C882.058 403.419 881.408 395.203 879.006 388.468Z"/>
	<path fill="#CE5C18" transform="scale(0.488281 0.488281)" d="M733.584 574.087L733.58 574.426C719.324 605.932 701.157 636.533 683.033 665.979L669.048 687.5C666.435 691.466 663.452 695.61 661.314 699.84L660.747 700.21L644.142 723.281C632.624 739.055 620.763 754.692 607.876 769.385C596.571 782.273 584.426 794.453 571.988 806.24L535.897 838.117L534.85 838.462C522.023 849.836 507.232 860.687 492.702 869.784L474.205 881.351C471.016 883.314 467.212 885.011 464.497 887.576C434.549 884.63 405.063 877.365 376.773 867.247C366.577 863.446 356.364 859.607 346.49 855.018C332.541 848.535 319.112 840.856 305.937 832.941L306.515 798.948C307.848 790.264 309.325 781.713 311.694 773.242C322.97 732.926 347.681 694.363 377.011 664.766L401.872 641.825L411.05 634.231L473.953 640.245C506.925 641.748 539.73 639.989 572.422 635.511C606.648 630.823 640.172 623.321 671.779 609.032C684.202 603.416 696.356 597.255 708.004 590.158C716.575 584.936 724.841 578.974 733.584 574.087Z"/>
	<path fill="#9D4C09" transform="scale(0.488281 0.488281)" d="M406.457 831.157C416.865 819.243 428.686 808.036 440.543 797.569C481.516 761.4 529.483 733.097 581.874 717.083C607.616 709.214 634.221 704.541 660.747 700.21L644.142 723.281C632.624 739.055 620.763 754.692 607.876 769.385C596.571 782.273 584.426 794.453 571.988 806.24L535.897 838.117L534.85 838.462C522.023 849.836 507.232 860.687 492.702 869.784L474.205 881.351C471.016 883.314 467.212 885.011 464.497 887.576C434.549 884.63 405.063 877.365 376.773 867.247C366.577 863.446 356.364 859.607 346.49 855.018C332.541 848.535 319.112 840.856 305.937 832.941L306.515 798.948C328.59 809.263 351.392 817.443 374.925 823.772L393.063 828.313C397.305 829.215 402.426 829.687 406.457 831.157Z"/>
	<path fill="#814001" transform="scale(0.488281 0.488281)" d="M406.396 831.274C429.553 835.843 454.034 838.828 477.644 839.416L534.85 838.462C522.023 849.836 507.232 860.687 492.702 869.784L474.205 881.351C471.016 883.314 467.212 885.011 464.497 887.576C434.549 884.63 405.063 877.365 376.773 867.247C381.628 860.278 387.104 853.715 392.502 847.163C396.949 841.765 401.387 836.158 406.396 831.274Z"/>
	<path fill="#8D93B7" transform="scale(0.488281 0.488281)" d="M145.637 641.492L146.824 640.75C148.391 642.003 149.235 644.313 150.148 646.072L155.396 655.717L176.747 690.61C189.613 709.554 204.796 728.421 221.755 743.85C226.85 749.466 232.968 754.255 238.93 758.924C259.297 774.873 282.987 788.269 306.515 798.948L305.937 832.941C319.112 840.856 332.541 848.535 346.49 855.018C356.364 859.607 366.577 863.446 376.773 867.247C405.063 877.365 434.549 884.63 464.497 887.576C497.119 892.172 531.921 891.533 564.537 887.128C652.791 875.207 735.224 833.178 796.836 768.898C808.264 756.974 818.608 744.032 828.623 730.926L853.934 740.684L881.676 752.454C899.041 760.263 916.511 769.316 930.193 782.815C936.874 789.406 941.937 796.388 944.595 805.5L944.832 806.278C945.868 809.902 945.809 814.576 945.097 818.25L944.946 819.08C942.009 834.562 927.503 846.979 915.057 855.299C902.116 863.95 888.304 870.488 874 876.514C842.181 889.918 808.736 898.91 775 905.998C686.455 924.604 596.392 930.91 506.035 930.461C443.605 930.152 380.661 926.609 318.822 917.825L246.092 904.795C209.594 897.335 173.278 886.555 139.369 871.039C120.979 862.624 99.4881 851.621 87.9513 834.263C82.2946 825.753 79.8708 816.331 82.0927 806.244C86.0899 788.097 103.052 775.191 118 766.002C135.831 755.041 155.589 747.503 175.406 741.01C182.375 738.727 189.651 736.953 196.501 734.384C175.516 706.288 157.975 674.306 145.637 641.492Z"/>
	<path fill="#8F070C" transform="scale(0.488281 0.488281)" d="M145.637 641.492L146.824 640.75C148.391 642.003 149.235 644.313 150.148 646.072L155.396 655.717L176.747 690.61C189.613 709.554 204.796 728.421 221.755 743.85C226.85 749.466 232.968 754.255 238.93 758.924C259.297 774.873 282.987 788.269 306.515 798.948L305.937 832.941C278.499 816.862 252.594 795.908 230.399 773.184C218.379 760.877 207.337 747.727 196.501 734.384C175.516 706.288 157.975 674.306 145.637 641.492Z"/>
	<path fill="#F98542" transform="scale(0.488281 0.488281)" d="M771.339 192.578L800.629 220.926L817.25 240.255C817.888 241.055 820.584 244.018 820.68 244.865C820.481 246.995 821.52 248.23 822.573 250L843.709 286.361C854.895 307.705 864.08 330.906 870.742 354.062L879.006 388.468C881.408 395.203 882.058 403.419 883.084 410.5C885.012 423.802 887.249 437.949 887.605 451.397C876.908 464.447 866.461 477.722 854.674 489.821C820.29 525.118 777.664 551.447 734.43 574.441L733.58 574.426L733.584 574.087C724.841 578.974 716.575 584.936 708.004 590.158C696.356 597.255 684.202 603.416 671.779 609.032C640.172 623.321 606.648 630.823 572.422 635.511C539.73 639.989 506.925 641.748 473.953 640.245L411.05 634.231L400.394 632.827C404.188 632.532 408.063 632.819 411.826 632.399C423.135 631.135 434.786 628.462 445.745 625.428C462.232 620.865 478.089 613.997 493.159 605.945C566.045 567 615.66 495.176 634.323 415.521L639.276 390.334L642.773 362.587C647.508 331.95 656.815 300.751 672.153 273.695C685.876 249.487 705.075 227.185 728.565 211.946C738.003 205.824 748.351 201.02 758.854 197.043C762.966 195.486 767.102 193.752 771.339 192.578Z"/>
	<path fill="#FFAB59" transform="scale(0.488281 0.488281)" d="M747.164 230.075C750.292 229.764 753.536 229.85 756.577 230.659L757.5 230.917L766.122 233.953C779.266 239.775 793.496 251.63 798.555 265.413C801.395 273.151 802.516 281.618 798.693 289.228C796.204 294.183 791.054 297.237 785.967 298.883C781.811 299.952 776.476 300.012 772.35 298.807L771.5 298.548C766.206 297.006 761.936 294.636 757.5 291.401C746.175 283.142 736.252 269.682 732.454 256.143C730.798 250.242 730.603 244.011 733.842 238.594C736.971 233.359 741.491 231.392 747.164 230.075Z"/>
	<path fill="#B8161B" transform="scale(0.488281 0.488281)" d="M734.64 572.438C737.649 564.419 742.213 556.473 745.815 548.662L760.454 513.457C785.274 450.025 801.447 381.149 804.37 312.957C805.272 291.918 804.959 270.664 803.506 249.657L801.632 232.684C801.168 229.327 800.234 225.221 800.527 221.894L800.629 220.926L817.25 240.255C817.888 241.055 820.584 244.018 820.68 244.865C820.481 246.995 821.52 248.23 822.573 250L843.709 286.361C854.895 307.705 864.08 330.906 870.742 354.062L879.006 388.468C881.408 395.203 882.058 403.419 883.084 410.5C885.012 423.802 887.249 437.949 887.605 451.397C876.908 464.447 866.461 477.722 854.674 489.821C820.29 525.118 777.664 551.447 734.43 574.441L733.58 574.426L733.584 574.087L734.64 572.438Z"/>
	<path fill="#8F070C" transform="scale(0.488281 0.488281)" d="M879.006 388.468C881.408 395.203 882.058 403.419 883.084 410.5C885.012 423.802 887.249 437.949 887.605 451.397C876.908 464.447 866.461 477.722 854.674 489.821C820.29 525.118 777.664 551.447 734.43 574.441L733.58 574.426L733.584 574.087L734.64 572.438C737.462 571.435 740.16 568.405 742.469 566.48L763.751 548.239L791.573 522.071C806.839 506.366 820.615 489.379 833.34 471.583C842.848 458.286 851.717 444.816 859.398 430.364C866.659 416.702 871.976 402.193 879.006 388.468Z"/>
	<path fill="#D62A2A" transform="scale(0.488281 0.488281)" d="M145.637 641.492C142.819 635.663 140.884 629.04 138.794 622.923C127.011 588.43 121.351 552.658 118.837 516.409C113.457 438.814 131.787 357.788 170.864 290.556C183.645 268.568 198.896 248.124 215.6 228.976C267.36 169.646 339.549 126.391 415.75 107.289C440.447 101.098 466.2 97.6698 491.578 95.9507C570.685 90.5922 653.276 112.004 720.32 154.023C738.492 165.412 755.218 178.471 771.339 192.578C767.102 193.752 762.966 195.486 758.854 197.043C748.351 201.02 738.003 205.824 728.565 211.946C705.075 227.185 685.876 249.487 672.153 273.695C656.815 300.751 647.508 331.95 642.773 362.587L639.276 390.334L634.323 415.521C615.66 495.176 566.045 567 493.159 605.945C478.089 613.997 462.232 620.865 445.745 625.428C434.786 628.462 423.135 631.135 411.826 632.399C408.063 632.819 404.188 632.532 400.394 632.827L411.05 634.231L401.872 641.825L377.011 664.766C347.681 694.363 322.97 732.926 311.694 773.242C309.325 781.713 307.848 790.264 306.515 798.948C282.987 788.269 259.297 774.873 238.93 758.924C232.968 754.255 226.85 749.466 221.755 743.85C204.796 728.421 189.613 709.554 176.747 690.61L155.396 655.717L150.148 646.072C149.235 644.313 148.391 642.003 146.824 640.75L145.637 641.492Z"/>
	<path fill="#FED204" transform="scale(0.488281 0.488281)" d="M161.63 499.077L161.867 499.003C164.584 501.801 166.785 505.19 169.222 508.241C174.105 514.353 179.192 520.353 184.639 525.972C186.405 527.794 188.662 530.476 190.921 531.65L190.964 531.846C181.827 555.245 174.676 580.535 169.03 605L162.353 637.113L157.6 591.224C155.683 560.235 158.027 529.836 161.63 499.077Z"/>
	<path fill="#B8161B" transform="scale(0.488281 0.488281)" d="M221.755 743.85C222.372 742.972 222.09 741.804 222.029 740.75C221.442 730.524 220.693 720.625 220.859 710.343C221.15 692.272 223.397 674.001 226.227 656.172C230.563 628.857 237.311 602.11 246.373 575.958C272.568 592.871 300.912 606.569 330.5 616.438C345.082 621.302 360.113 624.86 375.115 628.136L393.128 631.717C395.258 632.092 397.768 632.911 399.886 632.872L400.394 632.827L411.05 634.231L401.872 641.825L377.011 664.766C347.681 694.363 322.97 732.926 311.694 773.242C309.325 781.713 307.848 790.264 306.515 798.948C282.987 788.269 259.297 774.873 238.93 758.924C232.968 754.255 226.85 749.466 221.755 743.85Z"/>
	<path fill="#EA6A65" transform="scale(0.488281 0.488281)" d="M161.63 499.077C160.925 497.318 159.205 495.502 158.064 493.945L151.004 483.746L133.15 453.143C136.336 413.731 146.151 372.979 161.649 336.588C174.321 306.836 190.183 279.134 209.954 253.5C249.458 202.283 304.425 161.438 364.344 137.366C414.823 117.086 468.977 106.798 523.456 108.593C539.719 109.129 555.727 111.055 571.786 113.607C581.95 115.222 592.167 116.884 602.122 119.525C605.614 120.451 609.313 121.128 612.631 122.544L612.168 122.641C608.571 123.324 604.675 123.061 601.011 123.088L583.18 123.549C563.801 124.676 544.45 127.157 525.34 130.512C412.041 150.404 305.815 212.082 239.477 307.275C217.211 339.226 198.512 373.591 184.913 410.119C178.733 426.718 173.795 443.831 169.483 461L164.012 486.344C163.242 490.424 162.087 494.868 161.867 499.003L161.63 499.077Z"/>
	<path fill="#FEE191" transform="scale(0.488281 0.488281)" d="M612.631 122.544L613.924 122.617L614.25 123.26C608.448 126.441 600.263 127.929 593.838 129.78L570.638 137.173C544.811 146.336 520.583 157.782 496.399 170.597C472.312 183.361 449.369 198.781 427.604 215.172C347.812 275.262 281.316 354.686 233.042 442L202.667 503.132L190.921 531.65C188.662 530.476 186.405 527.794 184.639 525.972C179.192 520.353 174.105 514.353 169.222 508.241C166.785 505.19 164.584 501.801 161.867 499.003C162.087 494.868 163.242 490.424 164.012 486.344L169.483 461C173.795 443.831 178.733 426.718 184.913 410.119C198.512 373.591 217.211 339.226 239.477 307.275C305.815 212.082 412.041 150.404 525.34 130.512C544.45 127.157 563.801 124.676 583.18 123.549L601.011 123.088C604.675 123.061 608.571 123.324 612.168 122.641L612.631 122.544Z"/>
	<path fill="#EA6A65" transform="scale(0.488281 0.488281)" d="M613.924 122.617C620.559 124.157 627.101 126.444 633.556 128.608C642.223 131.513 650.848 134.542 659.19 138.296C639.147 145.037 619.63 152.484 600.5 161.547C575.066 173.597 550.955 188.062 527.67 203.81C422.762 274.764 339.562 377.09 283.437 490.085L246.564 575.971C232.29 566.557 218.92 556.18 205.903 545.106L197.951 538.152C196.107 536.4 193.239 532.684 190.964 531.846L190.921 531.65L202.667 503.132L233.042 442C281.316 354.686 347.812 275.262 427.604 215.172C449.369 198.781 472.312 183.361 496.399 170.597C520.583 157.782 544.811 146.336 570.638 137.173L593.838 129.78C600.263 127.929 608.448 126.441 614.25 123.26L613.924 122.617Z"/>
</svg>
