<?xml version="1.0" encoding="utf-8" ?>
<svg xmlns="http://www.w3.org/2000/svg" xmlns:xlink="http://www.w3.org/1999/xlink" width="500" height="500">
	<path fill="#EEA31F" transform="scale(0.488281 0.488281)" d="M-0 -0L1024 0L1024 1024L-0 1024L0 -0Z"/>
	<path fill="#D1E9F6" transform="scale(0.488281 0.488281)" d="M759.844 455.156C757.337 449.962 756.045 445.97 758.108 440.25C759.823 435.496 763.838 430.638 768.5 428.514C772.747 426.579 777.526 426.813 781.815 428.561C786.6 430.51 790.733 434.702 792.538 439.531C794.741 445.425 793.169 450.09 790.987 455.642C786.366 460.14 781.69 463.074 775 462.97C768.237 462.865 764.353 459.748 759.844 455.156Z"/>
	<path fill="#6DD0F4" transform="scale(0.488281 0.488281)" d="M772.897 438.344L777.25 438.352C779.24 438.69 780.9 440.255 781.963 441.885C783.057 443.563 783.596 445.283 783.01 447.281L782.745 448L782.528 448.833C781.688 451.101 779.49 452.319 777.372 453.153C776.385 453.37 775.481 453.544 774.461 453.364C772.176 452.961 770.116 451.667 768.902 449.681C767.812 447.898 767.143 445.824 767.78 443.75C768.673 440.843 770.42 439.851 772.897 438.344Z"/>
	<path fill="#6DD0F4" transform="scale(0.488281 0.488281)" d="M759.844 455.156C764.353 459.748 768.237 462.865 775 462.97C781.69 463.074 786.366 460.14 790.987 455.642L791.043 525.958L791.006 541.124L759.576 540.994L759.65 537.256L759.572 501.917L759.578 501.583L751.892 501.484C751.262 496.804 751.597 491.717 751.546 486.982L751.433 486.629L751.128 477.521L759.821 477.63L759.844 455.156Z"/>
	<path fill="#4EBACB" transform="scale(0.488281 0.488281)" d="M759.821 477.63L759.953 486.909L751.546 486.982L751.433 486.629L751.128 477.521L759.821 477.63Z"/>
	<path fill="#2B88B8" transform="scale(0.488281 0.488281)" d="M751.546 486.982L759.953 486.909L759.916 496.511C759.905 498.136 760.128 500.037 759.578 501.583L751.892 501.484C751.262 496.804 751.597 491.717 751.546 486.982Z"/>
	<path fill="#4EBACB" transform="scale(0.488281 0.488281)" d="M759.65 537.256C760.246 533.737 759.855 529.562 759.87 525.964L791.043 525.958L791.006 541.124L759.576 540.994L759.65 537.256Z"/>
	<path fill="#5B648A" transform="scale(0.488281 0.488281)" d="M648.354 115.399C668.987 124.602 686.446 142.011 694.483 163.25C697.464 171.126 699.821 179.582 700.685 187.974C701.635 197.19 701.255 206.874 701.323 216.143L701.447 268.718L701.372 429.328L701.438 463.22C701.447 467.295 700.6 473.564 701.872 477.367L701.94 477.625L751.128 477.521L751.433 486.629L751.546 486.982C751.597 491.717 751.262 496.804 751.892 501.484L759.578 501.583L759.572 501.917L759.65 537.256L759.576 540.994L701.534 541.153C697.488 540.711 692.998 541.083 688.901 541.064L689.281 412.501L689.508 293.938L689.591 222.951L689.668 198.957C689.652 193.984 689.842 188.809 689.17 183.876C686.786 166.372 680.208 149.097 669.464 135C666.314 130.867 662.346 126.571 658.273 123.331C655.15 120.847 651.5 118.594 648.718 115.775L648.354 115.399Z"/>
	<path fill="#4EBACB" transform="scale(0.488281 0.488281)" d="M701.94 477.625L751.128 477.521L751.433 486.629L751.546 486.982C751.597 491.717 751.262 496.804 751.892 501.484L701.605 501.568L701.536 479.286L701.94 477.625Z"/>
	<path fill="#6DD0F4" transform="scale(0.488281 0.488281)" d="M701.94 477.625L751.128 477.521L751.433 486.629C747.285 487.248 742.492 486.816 738.246 486.832L701.974 486.522C701.988 484.438 702.289 481.828 701.737 479.828L701.536 479.286L701.94 477.625Z"/>
	<path fill="#EEA31F" transform="scale(0.488281 0.488281)" d="M701.534 541.153L701.826 501.899L759.572 501.917L759.65 537.256L759.576 540.994L701.534 541.153Z"/>
	<path fill="#F5C844" transform="scale(0.488281 0.488281)" d="M827.862 721.945C830.036 722.926 831.517 724.717 833.164 726.392L843.089 736.873L881.523 775.359L906.037 804.289C911.539 810.738 917.511 816.905 922.68 823.615L758.26 823.957C758.257 821.926 757.692 810.917 758.239 809.737C759.104 807.868 764.46 804.744 766.212 803.264C773.18 797.374 779.86 791.188 786.059 784.486C803.491 765.638 816.019 744.611 827.862 721.945Z"/>
	<path fill="#F5C844" transform="scale(0.488281 0.488281)" d="M191.981 715.506C202.365 735.291 213.508 754.545 227.318 772.18C230.463 776.197 233.711 780.754 237.489 784.167L269.55 797.089C269.034 800.71 269.011 804.282 268.966 807.93C268.944 809.774 269.124 811.827 268.582 813.593L268.438 823.006L103.325 823.574L191.981 715.506Z"/>
	<path fill="#105186" transform="scale(0.488281 0.488281)" d="M237.489 784.167L269.55 797.089C269.034 800.71 269.011 804.282 268.966 807.93C268.944 809.774 269.124 811.827 268.582 813.593C257.85 804.398 246.567 795.026 237.489 784.167Z"/>
	<path fill="#7E8DB4" transform="scale(0.488281 0.488281)" d="M443.983 256.046L443.833 213.033C443.847 203.806 443.234 194.067 444.427 184.926C445.597 175.96 447.809 167.508 451.541 159.25C461.844 136.452 479.929 120.235 503.278 111.499C510.212 108.904 517.263 107.179 524.633 106.432C530.577 105.829 536.662 106.082 542.632 106.081L570.347 106.083L599.188 106.123C605.774 106.14 612.574 105.9 619.117 106.757C629.149 108.07 639.176 111.197 648.354 115.399L648.718 115.775C651.5 118.594 655.15 120.847 658.273 123.331C662.346 126.571 666.314 130.867 669.464 135C680.208 149.097 686.786 166.372 689.17 183.876C689.842 188.809 689.652 193.984 689.668 198.957L689.591 222.951L689.508 293.938L689.281 412.501L688.901 541.064L676.718 541.045L676.637 483.039L676.953 419.568L676.972 291.546L676.986 227.924C676.985 215.715 678.057 202.616 675.998 190.593C671.442 171.806 659.655 155.107 643.155 144.959C634.414 139.583 625.004 136.744 614.912 135.304C610.716 134.705 606.317 134.91 602.086 134.9L581.092 134.914L547.968 134.985C539.208 135.011 530.129 134.651 521.5 136.333L520.603 136.498C505.72 139.316 490.456 149.901 482.042 162.388C477.041 169.812 473.537 178.124 471.836 186.912C470.147 195.637 470.864 205.135 470.826 214.013L470.659 256.168C466.441 255.272 461.916 255.45 457.614 255.355L454.265 255.482L443.983 256.046Z"/>
	<path fill="#5B648A" transform="scale(0.488281 0.488281)" d="M457.614 255.355C459.024 252.717 458.076 244.567 458.079 241.387L458.099 212.58C458.11 205.881 457.922 198.966 458.876 192.323C460.745 179.303 465.207 167.578 472.561 156.657C484.108 139.511 501.747 128.731 521.75 124.38C528.034 123.013 534.279 123.026 540.676 122.998L584.021 122.988C594.384 122.999 605.228 122.411 615.516 123.708C630.466 125.592 644.112 132.309 654.739 142.979C666.523 154.811 675.968 173.664 675.998 190.593C671.442 171.806 659.655 155.107 643.155 144.959C634.414 139.583 625.004 136.744 614.912 135.304C610.716 134.705 606.317 134.91 602.086 134.9L581.092 134.914L547.968 134.985C539.208 135.011 530.129 134.651 521.5 136.333L520.603 136.498C505.72 139.316 490.456 149.901 482.042 162.388C477.041 169.812 473.537 178.124 471.836 186.912C470.147 195.637 470.864 205.135 470.826 214.013L470.659 256.168C466.441 255.272 461.916 255.45 457.614 255.355Z"/>
	<path fill="#CF7415" transform="scale(0.488281 0.488281)" d="M269.55 797.089L269.699 796.389C270.856 791.444 274.243 786.35 278.637 783.716C283.253 780.95 290.888 779.207 296.219 780.807L296.75 780.978C297.961 781.355 299.2 781.698 300.327 782.294C302.746 783.571 303.489 785.304 304.178 787.846L301.899 810.172L300.414 820.57C300.15 822.245 299.607 824.011 299.671 825.695C308.984 829.287 317.892 831.29 327.647 833.157C334.785 834.522 341.951 835.863 349.212 836.383C369.078 837.805 389.647 836.762 409.596 836.727L517.623 836.673L639.834 836.79C662.423 836.832 685.412 837.797 707.95 836.506C715.151 836.094 722.096 834.646 728.916 832.334L732.271 856.736L731.564 857.586L731.078 858.389C728.014 863.384 722.992 868.548 724.487 875.06C725.119 877.811 728.681 880.284 731.018 881.5C733.52 882.803 736.29 883.557 739.067 883.996C746.503 884.645 755.326 884.487 761.537 879.743C763.859 877.969 766.025 875.409 766.27 872.374C766.688 867.206 762.848 862.471 759.737 858.772L807.5 862.863C827.173 865.027 847.149 867.407 866.399 872.116C872.676 873.651 882.53 875.463 887.072 880.265C887.818 881.054 888.217 881.694 888.448 882.75C887.628 885.474 885.158 886.899 882.744 888.168C876.851 891.266 869.445 892.605 863 894.027C846.448 897.679 829.558 899.921 812.75 902.008C712.056 914.508 610.242 917.009 508.874 916.603L256 906.612L203.5 901.072C185.756 899.074 166.454 897.35 149.43 891.75C145.495 890.456 140.766 889.008 138.553 885.25C138.666 883.076 138.926 882.177 140.644 880.642C151.762 870.709 224.551 863.725 241.684 862.079C248.758 861.399 256.902 859.798 263.942 860.463L267.2 859.011L267.375 855.962C267.453 850.669 267.189 845.124 267.886 839.879L268.438 823.006L268.582 813.593C269.124 811.827 268.944 809.774 268.966 807.93C269.011 804.282 269.034 800.71 269.55 797.089Z"/>
	<path fill="#0D476E" transform="scale(0.488281 0.488281)" d="M269.55 797.089L269.699 796.389C270.856 791.444 274.243 786.35 278.637 783.716C283.253 780.95 290.888 779.207 296.219 780.807L296.75 780.978C297.961 781.355 299.2 781.698 300.327 782.294C302.746 783.571 303.489 785.304 304.178 787.846L301.899 810.172L300.414 820.57C300.15 822.245 299.607 824.011 299.671 825.695L294.722 857.153L294.055 860.994C297.757 864.41 301.432 867.589 301.59 873.039C301.65 875.113 301.59 877.421 300.14 879.061C296.227 883.487 286.119 884.446 280.59 884.564C273.368 884.58 266.865 884.495 260.812 879.996L259.668 878.66C257.879 876.287 257.682 873.23 258.157 870.377C258.816 866.42 260.835 863.376 263.995 861.019L263.942 860.463L267.2 859.011L267.375 855.962C267.453 850.669 267.189 845.124 267.886 839.879L268.438 823.006L268.582 813.593C269.124 811.827 268.944 809.774 268.966 807.93C269.011 804.282 269.034 800.71 269.55 797.089Z"/>
	<path fill="#1F73A1" transform="scale(0.488281 0.488281)" d="M267.97 860.661C269.915 859.491 271.679 858.767 273.971 859.371C277.12 860.201 279.656 862.276 281.263 865.103C283.936 869.806 283.533 875.163 281.977 880.172L280.59 884.564C273.368 884.58 266.865 884.495 260.812 879.996L261.249 879.19L261.085 876C261.11 869.393 263.538 865.23 267.97 860.661Z"/>
	<path fill="#2B88B8" transform="scale(0.488281 0.488281)" d="M269.946 834.221L272.135 812.029C272.673 806.858 273.031 800.356 274.828 795.491C275.696 793.139 276.955 791.021 278.896 789.406C282.43 786.466 287.178 785.664 291.633 785.397L283.814 856.19C276.826 854.67 273.348 855.511 267.2 859.011L267.375 855.962C267.453 850.669 267.189 845.124 267.886 839.879C268.492 839.654 268.717 839.026 269.074 838.5C269.158 837.097 269.368 835.988 269.803 834.649L269.946 834.221Z"/>
	<path fill="#1F73A1" transform="scale(0.488281 0.488281)" d="M267.886 839.879C268.492 839.654 268.717 839.026 269.074 838.5C269.158 837.097 269.368 835.988 269.803 834.649L269.946 834.221L269.25 854.074L267.375 855.962C267.453 850.669 267.189 845.124 267.886 839.879Z"/>
	<path fill="#EEA31F" transform="scale(0.488281 0.488281)" d="M299.671 825.695C308.984 829.287 317.892 831.29 327.647 833.157C334.785 834.522 341.951 835.863 349.212 836.383C369.078 837.805 389.647 836.762 409.596 836.727L517.623 836.673L639.834 836.79C662.423 836.832 685.412 837.797 707.95 836.506C715.151 836.094 722.096 834.646 728.916 832.334L732.271 856.736L731.564 857.586C728.133 856.022 721.613 856.322 717.847 856.126L689.75 854.763L549.226 851.399L355.647 854.131L295.5 858.008L294.722 857.153L299.671 825.695Z"/>
	<path fill="#EEA31F" transform="scale(0.488281 0.488281)" d="M470.659 256.168L470.826 214.013C470.864 205.135 470.147 195.637 471.836 186.912C473.537 178.124 477.041 169.812 482.042 162.388C490.456 149.901 505.72 139.316 520.603 136.498L521.5 136.333C530.129 134.651 539.208 135.011 547.968 134.985L581.092 134.914L602.086 134.9C606.317 134.91 610.716 134.705 614.912 135.304C625.004 136.744 634.414 139.583 643.155 144.959C659.655 155.107 671.442 171.806 675.998 190.593C678.057 202.616 676.985 215.715 676.986 227.924L676.972 291.546L676.953 419.568L676.637 483.039C673.114 478.653 668.785 474.835 664.826 470.834L635.715 442.149L563.507 370.87L546.283 354.408C543.855 352.119 539.331 348.957 537.937 345.991L476.074 345.969C476.093 340.753 474.418 334.757 472.239 330.085C470.847 329.522 468.824 329.678 467.329 329.672L456.801 329.637L418.949 329.557L385.468 329.523L371.798 329.524C373.87 315.751 378.126 302.734 386.191 291.25C399.849 271.804 420.856 260.072 443.983 256.046L454.265 255.482L457.614 255.355C461.916 255.45 466.441 255.272 470.659 256.168Z"/>
	<path fill="#0C5990" transform="scale(0.488281 0.488281)" d="M457.614 255.355C461.916 255.45 466.441 255.272 470.659 256.168C493.747 260.254 513.584 272.133 527.052 291.551C535.348 303.512 539.002 315.925 541.654 330.048C544.521 330.273 547.121 330.117 549.193 332.433C550.628 334.038 551.417 336.211 551.273 338.372C551.128 340.548 549.694 342.823 547.986 344.113C545.036 346.339 541.445 346.006 537.937 345.991L476.074 345.969C476.093 340.753 474.418 334.757 472.239 330.085L473.334 329.864C476.315 329.063 480.104 329.495 483.23 329.495L504.671 329.609C503.634 320.756 502.291 311.743 499.502 303.25C494.369 287.625 484.016 272.208 469.927 263.36C464.945 260.231 459.495 258.134 454.265 255.482L457.614 255.355Z"/>
	<path fill="#D32E2D" transform="scale(0.488281 0.488281)" d="M541.654 330.048C544.521 330.273 547.121 330.117 549.193 332.433C550.628 334.038 551.417 336.211 551.273 338.372C551.128 340.548 549.694 342.823 547.986 344.113C545.036 346.339 541.445 346.006 537.937 345.991L476.074 345.969C476.093 340.753 474.418 334.757 472.239 330.085L473.334 329.864L541.654 330.048Z"/>
	<path fill="#2B88B8" transform="scale(0.488281 0.488281)" d="M443.983 256.046L454.265 255.482C459.495 258.134 464.945 260.231 469.927 263.36C484.016 272.208 494.369 287.625 499.502 303.25C502.291 311.743 503.634 320.756 504.671 329.609L483.23 329.495C480.104 329.495 476.315 329.063 473.334 329.864L472.239 330.085C470.847 329.522 468.824 329.678 467.329 329.672L456.801 329.637L418.949 329.557L385.468 329.523L371.798 329.524C373.87 315.751 378.126 302.734 386.191 291.25C399.849 271.804 420.856 260.072 443.983 256.046Z"/>
	<path fill="#6DD0F4" transform="scale(0.488281 0.488281)" d="M385.468 329.523C385.575 313.05 392.055 294.604 403.931 282.927C415.309 271.74 430.209 263.511 446.5 263.727C451.306 263.791 455.537 264.753 460.012 266.421C440.741 278.451 425.662 295.044 420.505 317.75L418.949 329.557L385.468 329.523Z"/>
	<path fill="#F5C844" transform="scale(0.488281 0.488281)" d="M371.798 329.524L385.468 329.523L418.949 329.557L456.801 329.637L467.329 329.672C468.824 329.678 470.847 329.522 472.239 330.085C474.418 334.757 476.093 340.753 476.074 345.969L537.937 345.991C539.331 348.957 543.855 352.119 546.283 354.408L563.507 370.87L635.715 442.149L664.826 470.834C668.785 474.835 673.114 478.653 676.637 483.039L676.718 541.045L188.633 540.656L382.647 345.551C377.653 345.195 370.12 346.757 365.963 343.531C364.433 342.345 363.426 340.109 363.184 338.232C362.891 335.967 363.799 333.556 365.193 331.791C366.889 329.642 369.291 329.714 371.798 329.524Z"/>
	<path fill="#D1E9F6" transform="scale(0.488281 0.488281)" d="M550.042 395.25L551.351 395.204C552.792 396.117 552.85 396.163 553.468 397.75C552.901 399.28 552.795 399.329 551.436 400.25L550.284 400.35C548.953 399.41 548.729 399.221 548.052 397.75C548.549 396.364 548.879 396.193 550.042 395.25Z"/>
	<path fill="#D1E9F6" transform="scale(0.488281 0.488281)" d="M452.155 466.25L454 465.976C455.351 466.696 455.492 466.82 456.25 468.148C456.039 469.513 455.886 469.684 454.987 470.75L453.862 471.223C452.246 470.921 452.291 470.975 451.291 469.676C451.059 467.732 451.005 467.827 452.155 466.25Z"/>
	<path fill="#D1E9F6" transform="scale(0.488281 0.488281)" d="M418.91 430.25C419.294 430.124 419.862 429.913 420.26 429.907C421.751 429.883 422.01 430.536 422.836 431.591C422.877 433.47 422.785 433.346 421.5 434.75C420.493 435.119 419.796 434.989 418.75 434.845L417.75 433.497C417.75 431.738 417.854 431.676 418.91 430.25Z"/>
	<path fill="#D1E9F6" transform="scale(0.488281 0.488281)" d="M381.045 391.75L382.75 391.475C383.9 391.9 384.275 392.272 385.004 393.25C384.857 395.473 384.792 395.323 383.25 396.724L381.992 396.926C380.608 396.094 380.432 395.922 379.672 394.5C379.868 392.937 379.949 392.896 381.045 391.75Z"/>
	<path fill="#D1E9F6" transform="scale(0.488281 0.488281)" d="M490.179 399.75C491.689 399.43 491.819 399.446 493.25 400.027C493.847 400.759 494.22 401.152 494.354 402.124C494.488 403.097 493.788 403.601 493.25 404.359L491.75 404.984C490.175 404.496 490.057 404.286 488.992 403C489.002 401.088 488.881 401.129 490.179 399.75Z"/>
	<path fill="#D1E9F6" transform="scale(0.488281 0.488281)" d="M537.197 453.064C538.613 453.193 540.278 453.239 541.589 453.829C543.338 454.616 544.812 456.433 545.485 458.196C546.288 460.299 546.357 463.03 545.287 465.054C543.929 467.62 541.905 468.73 539.255 469.638C537.572 469.553 535.929 469.409 534.414 468.598C532.43 467.535 530.987 465.731 530.368 463.563C529.692 461.195 529.988 458.766 531.326 456.699C532.795 454.43 534.665 453.687 537.197 453.064Z"/>
	<path fill="#D1E9F6" transform="scale(0.488281 0.488281)" d="M362.049 455.75C363.393 455.378 365.08 455.164 366.451 455.472C368.897 456.02 370.606 457.609 371.826 459.726C373.022 461.801 373.189 464.23 372.534 466.5C371.67 469.496 369.939 470.787 367.288 472.243C365.791 472.432 364.475 472.415 362.991 472.084C360.581 471.547 358.584 469.734 357.325 467.656C356.274 465.921 356.166 463.687 356.723 461.762C357.564 458.861 359.547 457.221 362.049 455.75Z"/>
	<path fill="#D1E9F6" transform="scale(0.488281 0.488281)" d="M432.858 345.83L476.074 345.969C476.298 350.788 474.849 355.751 471.933 359.629C468.675 363.961 463.173 367.695 457.75 368.364C452.168 369.053 446.732 367.936 442.25 364.409C436.117 359.584 433.828 353.331 432.858 345.83Z"/>
	<path fill="#F35046" transform="scale(0.488281 0.488281)" d="M371.798 329.524L385.468 329.523L418.949 329.557L456.801 329.637L467.329 329.672C468.824 329.678 470.847 329.522 472.239 330.085C474.418 334.757 476.093 340.753 476.074 345.969L432.858 345.83C427.573 345.169 421.671 345.603 416.31 345.588L382.647 345.551C377.653 345.195 370.12 346.757 365.963 343.531C364.433 342.345 363.426 340.109 363.184 338.232C362.891 335.967 363.799 333.556 365.193 331.791C366.889 329.642 369.291 329.714 371.798 329.524Z"/>
	<path fill="#1B9CC1" transform="scale(0.488281 0.488281)" d="M188.633 540.656L676.718 541.045L688.901 541.064C692.998 541.083 697.488 540.711 701.534 541.153L759.576 540.994L791.006 541.124L862.905 541.444L881 541.325C890.625 541.306 900.072 540.897 907.362 548.359C911.607 552.705 913.973 558.405 913.704 564.5C913.448 570.301 910.945 576.088 906.564 579.966C897.912 587.623 883.755 585.311 873.021 585.05L868.949 599.422L864.889 614.47C858.604 638.619 851.793 663.034 843.063 686.432L827.862 721.945C816.019 744.611 803.491 765.638 786.059 784.486C779.86 791.188 773.18 797.374 766.212 803.264C764.46 804.744 759.104 807.868 758.239 809.737C757.692 810.917 758.257 821.926 758.26 823.957L757.434 856.75L759.737 858.772C762.848 862.471 766.688 867.206 766.27 872.374C766.025 875.409 763.859 877.969 761.537 879.743C755.326 884.487 746.503 884.645 739.067 883.996C736.29 883.557 733.52 882.803 731.018 881.5C728.681 880.284 725.119 877.811 724.487 875.06C722.992 868.548 728.014 863.384 731.078 858.389L731.564 857.586L732.271 856.736L728.916 832.334C722.096 834.646 715.151 836.094 707.95 836.506C685.412 837.797 662.423 836.832 639.834 836.79L517.623 836.673L409.596 836.727C389.647 836.762 369.078 837.805 349.212 836.383C341.951 835.863 334.785 834.522 327.647 833.157C317.892 831.29 308.984 829.287 299.671 825.695C299.607 824.011 300.15 822.245 300.414 820.57L301.899 810.172L304.178 787.846C303.489 785.304 302.746 783.571 300.327 782.294C299.2 781.698 297.961 781.355 296.75 780.978L296.219 780.807C290.888 779.207 283.253 780.95 278.637 783.716C274.243 786.35 270.856 791.444 269.699 796.389L269.55 797.089L237.489 784.167C233.711 780.754 230.463 776.197 227.318 772.18C213.508 754.545 202.365 735.291 191.981 715.506C177.013 683.425 166.72 649.378 160.961 614.464L158.641 599.319L156.505 584.88L130.336 584.542C124.814 584.254 120.314 581.922 116.676 577.782C112.594 573.137 111.365 567.631 111.813 561.615C112.988 556.893 115.025 552.767 118.323 549.153C121.459 545.717 125.674 543.04 130.174 541.808C136.16 540.168 143.707 540.93 149.915 540.918L188.633 540.656Z"/>
	<path fill="#1F73A1" transform="scale(0.488281 0.488281)" d="M156.505 584.88L189.339 585.02L192.18 599.138L192.331 599.347L195.924 614.136L160.961 614.464L158.641 599.319L156.505 584.88Z"/>
	<path fill="#105186" transform="scale(0.488281 0.488281)" d="M156.505 584.88L189.339 585.02L192.18 599.138L158.641 599.319L156.505 584.88Z"/>
	<path fill="#4EBACB" transform="scale(0.488281 0.488281)" d="M271.685 614.079L271.831 614.364C272.334 619.739 274.812 625.828 276.427 631C286.324 662.695 299.582 693.839 317.199 722.043L329.865 740.285C333.153 744.802 336.638 749.294 339.02 754.376C340.488 757.508 341.09 762.04 339.708 765.298C339.042 766.866 337.213 768.323 335.664 768.957L335.103 769.173L333.892 769.613C321.621 773.151 298.756 762.662 288.328 756.412C260.366 739.654 241.128 715.762 225.301 687.694C212.251 664.551 202.581 640.135 196.103 614.369C198.151 613.837 200.827 614.145 202.983 614.142L217.352 614.151L271.685 614.079Z"/>
	<path fill="#0C5990" transform="scale(0.488281 0.488281)" d="M805.536 599.361L805.824 599.163L868.949 599.422L864.889 614.47C858.604 638.619 851.793 663.034 843.063 686.432L827.862 721.945C816.019 744.611 803.491 765.638 786.059 784.486C779.86 791.188 773.18 797.374 766.212 803.264C764.46 804.744 759.104 807.868 758.239 809.737C757.692 810.917 758.257 821.926 758.26 823.957L757.434 856.75L759.737 858.772C762.848 862.471 766.688 867.206 766.27 872.374C766.025 875.409 763.859 877.969 761.537 879.743C755.326 884.487 746.503 884.645 739.067 883.996C736.29 883.557 733.52 882.803 731.018 881.5C728.681 880.284 725.119 877.811 724.487 875.06C722.992 868.548 728.014 863.384 731.078 858.389L731.564 857.586L732.271 856.736L728.916 832.334C722.096 834.646 715.151 836.094 707.95 836.506C685.412 837.797 662.423 836.832 639.834 836.79L517.623 836.673L409.596 836.727C389.647 836.762 369.078 837.805 349.212 836.383C341.951 835.863 334.785 834.522 327.647 833.157C317.892 831.29 308.984 829.287 299.671 825.695C299.607 824.011 300.15 822.245 300.414 820.57L301.899 810.172L304.178 787.846C307.216 788.339 310.274 789.416 313.25 790.213C332.215 795.292 352.19 797.989 371.75 799.308C391.119 800.615 410.658 799.821 430.057 799.608L493.396 799.603L554.512 799.809C572.224 799.844 589.956 800.368 607.488 797.391C632.599 793.128 656.929 783.006 678.912 770.325C729.607 741.08 767.806 695.266 790.7 641.685C794.479 632.84 798.605 623.889 801.104 614.584L801.359 614.462L805.536 599.361Z"/>
	<path fill="#0D476E" transform="scale(0.488281 0.488281)" d="M733.003 787.082C731.627 785.112 730.225 784.664 728.442 783.252C733.037 778.874 737.687 776.131 744.25 776.38C748.12 776.527 752.086 778.379 754.595 781.334C757.355 784.585 758.734 790.272 758.284 794.457L757.84 797.75C757.165 797.035 757.176 797.164 756.933 796.125C756.324 793.523 754.655 791.689 752.422 790.332C749.346 788.464 744.444 788.145 741.033 789.173C739.004 789.784 737.203 791.043 735.55 792.33C734.991 790.45 733.951 788.788 733.003 787.082Z"/>
	<path fill="#105186" transform="scale(0.488281 0.488281)" d="M805.536 599.361L805.824 599.163L868.949 599.422L864.889 614.47C864.031 614.232 864.372 614.235 863.666 614.299C856.513 614.95 848.91 614.49 841.718 614.497L801.359 614.462L805.536 599.361Z"/>
	<path fill="#1F73A1" transform="scale(0.488281 0.488281)" d="M733.003 787.082C733.951 788.788 734.991 790.45 735.55 792.33C738.452 800.837 739.971 809.764 741.355 818.624L745.418 850.09C745.912 854.87 747.055 859.892 746.66 864.692C746.312 868.924 744.55 873.817 742.632 877.585L739.067 883.996C736.29 883.557 733.52 882.803 731.018 881.5C728.681 880.284 725.119 877.811 724.487 875.06C722.992 868.548 728.014 863.384 731.078 858.389L731.564 857.586L732.271 856.736L728.916 832.334L726.324 812.048C725.737 807.481 724.282 801.374 725.113 796.812C725.952 792.209 729.405 789.569 733.003 787.082Z"/>
	<path fill="#6DD0F4" transform="scale(0.488281 0.488281)" d="M188.633 540.656L676.718 541.045L688.901 541.064C692.998 541.083 697.488 540.711 701.534 541.153L759.576 540.994L791.006 541.124L862.905 541.444L881 541.325C890.625 541.306 900.072 540.897 907.362 548.359C911.607 552.705 913.973 558.405 913.704 564.5C913.448 570.301 910.945 576.088 906.564 579.966C897.912 587.623 883.755 585.311 873.021 585.05L868.949 599.422L805.824 599.163L805.536 599.361L801.359 614.462L801.104 614.584L271.831 614.364L271.685 614.079L217.352 614.151L202.983 614.142C200.827 614.145 198.151 613.837 196.103 614.369L195.924 614.136L192.331 599.347L192.18 599.138L189.339 585.02L156.505 584.88L130.336 584.542C124.814 584.254 120.314 581.922 116.676 577.782C112.594 573.137 111.365 567.631 111.813 561.615C112.988 556.893 115.025 552.767 118.323 549.153C121.459 545.717 125.674 543.04 130.174 541.808C136.16 540.168 143.707 540.93 149.915 540.918L188.633 540.656Z"/>
	<path fill="#0D476E" transform="scale(0.488281 0.488281)" d="M809.758 585.021L873.021 585.05L868.949 599.422L805.824 599.163L809.758 585.021Z"/>
	<path fill="#2B88B8" transform="scale(0.488281 0.488281)" d="M189.339 585.02L265.757 584.906C266.607 589.302 268.109 594.52 268.025 598.981L213.896 598.963L199.681 598.974C197.46 598.977 194.431 598.662 192.331 599.347L192.18 599.138L189.339 585.02Z"/>
	<path fill="#1B9CC1" transform="scale(0.488281 0.488281)" d="M192.331 599.347C194.431 598.662 197.46 598.977 199.681 598.974L213.896 598.963L268.025 598.981L268.325 599.472L271.685 614.079L217.352 614.151L202.983 614.142C200.827 614.145 198.151 613.837 196.103 614.369L195.924 614.136L192.331 599.347Z"/>
	<path fill="#0C5990" transform="scale(0.488281 0.488281)" d="M265.757 584.906L809.758 585.021L805.824 599.163L805.536 599.361L268.325 599.472L268.025 598.981C268.109 594.52 266.607 589.302 265.757 584.906Z"/>
	<path fill="#1F73A1" transform="scale(0.488281 0.488281)" d="M268.325 599.472L805.536 599.361L801.359 614.462L801.104 614.584L271.831 614.364L271.685 614.079L268.325 599.472Z"/>
	<path fill="#D1E9F6" transform="scale(0.488281 0.488281)" d="M188.633 540.656L676.718 541.045L688.901 541.064C692.998 541.083 697.488 540.711 701.534 541.153L759.576 540.994L791.006 541.124L862.905 541.444C866.545 544.184 869.945 546.63 870.553 551.5C870.888 554.19 870.476 556.585 868.77 558.769C867.9 559.883 866.549 560.712 865.364 561.449L111.813 561.615C112.988 556.893 115.025 552.767 118.323 549.153C121.459 545.717 125.674 543.04 130.174 541.808C136.16 540.168 143.707 540.93 149.915 540.918L188.633 540.656Z"/>
</svg>
