<?xml version="1.0" encoding="utf-8" ?>
<svg xmlns="http://www.w3.org/2000/svg" xmlns:xlink="http://www.w3.org/1999/xlink" width="500" height="500">
	<path fill="#82A93E" transform="scale(0.488281 0.488281)" d="M-0 -0L1024 0L1024 1024L-0 1024L0 -0Z"/>
	<defs>
		<linearGradient id="gradient_0" gradientUnits="userSpaceOnUse" x1="641.69318" y1="722.14001" x2="665.44501" y2="891.83575">
			<stop offset="0" stop-color="#0F554E"/>
			<stop offset="1" stop-color="#0A8C7D"/>
		</linearGradient>
	</defs>
	<path fill="url(#gradient_0)" transform="scale(0.488281 0.488281)" d="M731.116 570.791L731.257 708.28C768.325 715.598 805.854 723.431 841.087 737.34C855.505 743.032 869.549 749.477 882.635 757.845C891.585 763.567 900.032 769.486 905.98 778.5C910.826 785.844 912.628 794.386 910.748 803.01C907.398 818.379 892.86 830.107 880.219 838.06C863.56 848.541 844.143 855.941 825.5 862.03C762.177 882.713 694.684 890.013 628.401 892.764C590.256 894.347 551.541 894.101 513.455 891.156C480.337 888.594 447.008 883.361 414.66 875.849C407.506 874.187 399.816 872.548 392.964 869.895C396.378 869.095 400.525 870.431 403.962 871.036C424.551 874.662 445.344 876.791 466.188 878.226C529.612 882.594 595.032 878.794 656.25 861C677.792 854.738 701.091 846.278 718.166 831.225C724.106 825.988 729.261 819.149 730.944 811.273C732.073 805.983 731.344 799.48 731.353 794.048L731.397 759.52L730.877 629.747L730.866 593.057C730.867 585.902 730.559 578.582 731.064 571.453L731.116 570.791Z"/>
	<path fill="#12184A" transform="scale(0.488281 0.488281)" d="M392.964 869.895C365.535 863.228 335.805 855.57 312.698 838.591C304.402 832.496 296.278 823.81 294.821 813.198C293.827 805.956 294.493 797.897 294.495 790.537L294.467 746.898L294.265 597.338L294.434 355.772L294.162 277.062C294.136 264.732 293.413 252.027 294.229 239.763C294.615 233.973 297.553 228.325 301.019 223.743C307.282 215.46 316.358 209.696 325.308 204.716C356.601 187.306 392.396 179.857 427.52 174.895C427.645 169.1 428.377 164.481 432.731 160.232C439.51 153.616 449.503 150.174 458.5 147.854C475.566 143.453 493.867 141.456 511.5 141.615C532.085 141.802 576.428 144.888 589.543 162.478C591.748 165.435 592.76 168.262 592.936 171.928C592.959 172.407 592.884 174.576 593.037 174.865C593.23 175.23 593.859 174.934 594.27 174.969L600 175.501C630.446 178.694 661.145 184.779 689.258 197.257C700.662 202.319 712.307 208.654 721.038 217.719C725.714 222.572 729.816 229.183 730.822 235.949C731.319 239.292 730.973 243.213 730.983 246.623L730.998 267.767L731.073 337.209L731.023 485.987L731.116 570.791L731.064 571.453C730.559 578.582 730.867 585.902 730.866 593.057L730.877 629.747L731.397 759.52L731.353 794.048C731.344 799.48 732.073 805.983 730.944 811.273C729.261 819.149 724.106 825.988 718.166 831.225C701.091 846.278 677.792 854.738 656.25 861C595.032 878.794 529.612 882.594 466.188 878.226C445.344 876.791 424.551 874.662 403.962 871.036C400.525 870.431 396.378 869.095 392.964 869.895Z"/>
	<path fill="#F55433" transform="scale(0.488281 0.488281)" d="M307.521 460.09C309.158 462.13 311.21 464.906 311.908 467.462L311.238 572.541L311.246 597.486C311.252 599.954 311.929 605.028 310.771 607.083L307.658 601.933L307.521 460.09Z"/>
	<path fill="#F55433" transform="scale(0.488281 0.488281)" d="M307.687 613.267C308.94 615.569 310.767 618.245 311.467 620.739L311.446 719.168L311.402 746.471C311.379 751.377 311.849 757.077 310.776 761.838L310.419 762.48C309.82 762.006 309.381 761.865 308.669 761.617C307.208 757.64 307.985 751.361 307.926 747.094L307.636 715.07L307.687 613.267Z"/>
	<path fill="#FEFEFE" transform="scale(0.488281 0.488281)" d="M307.95 307.053L307.891 269.442C310.8 271.793 313.524 274.158 316.639 276.256C320.05 278.552 323.686 280.45 326.943 282.979L326.907 307.192C326.882 312.096 327.072 317.292 326.482 322.155C322.024 321.159 316.652 316.135 313.003 313.343C310.912 311.384 309.487 309.446 307.95 307.053Z"/>
	<path fill="#22B9B3" transform="scale(0.488281 0.488281)" d="M326.943 282.979C333.86 286.665 340.962 290.261 348.472 292.583L348.448 332.234L326.568 322.407L326.482 322.155C327.072 317.292 326.882 312.096 326.907 307.192L326.943 282.979Z"/>
	<path fill="#FEFEFE" transform="scale(0.488281 0.488281)" d="M308.669 761.617C309.381 761.865 309.82 762.006 310.419 762.48C312.996 766.716 316.066 771.016 319.551 774.545L326.979 781.373L326.952 816.545C326.948 820.157 327.858 827.823 326.477 830.922C322.751 828.351 319.013 825.799 315.75 822.644C313.116 820.098 310.25 817.174 309.299 813.527C308.749 811.416 308.986 808.922 308.978 806.753L308.967 794.274L308.669 761.617Z"/>
	<path fill="#22B9B3" transform="scale(0.488281 0.488281)" d="M326.979 781.373L349.036 794.109L349.067 841.873C341.471 838.591 333.228 835.792 326.477 830.922C327.858 827.823 326.948 820.157 326.952 816.545L326.979 781.373Z"/>
	<path fill="#148E88" transform="scale(0.488281 0.488281)" d="M592.956 215.09C602.972 218.36 616.561 225.035 621.476 234.876C623.127 238.184 623.701 241.469 622.436 245C619.979 251.859 612.555 258.661 605.898 261.519L605.181 261.813C599.943 260.939 593.452 262.005 588.135 262.321L564.966 263.273L545.903 264.207C540.868 264.453 535.774 264.987 530.81 263.871C549.862 260.254 574.063 260.431 588.612 245.508C589.866 244.222 591.817 241.951 592.329 240.238C593.197 237.336 592.882 233.914 592.899 230.9L592.956 215.09Z"/>
	<path fill="#3D2B4A" transform="scale(0.488281 0.488281)" d="M562.948 190.711C568.851 189.162 574.675 186.977 579.425 183.065L579.59 239.435C568.622 245.679 555.381 249.166 543.001 251.292L542.867 197.101C520.97 199.085 497.637 201.641 475.992 196.106L475.325 195.929C476.42 195.88 477.673 195.734 478.75 196C479.682 196.23 480.676 196.168 481.5 196.377C482.368 196.598 482.528 196.861 483.5 196.877L485 196.877C486.81 197.357 484.685 197.255 486.528 197.26C487.56 197.263 488.738 197.252 489.75 197.5C491.177 197.85 492.248 197.697 493.68 197.87L494.75 198L495.375 198.002C497.384 198.344 499.162 198.07 501.047 198.377C502.021 198.537 501.58 198.552 502.719 198.393L503.5 198.255C505.636 199.675 509.892 198.565 512.407 198.811C514.824 199.048 516.895 198.354 519.203 198.354L522.5 198.377C523.695 198.478 524.57 198.405 525.75 198.255C526.418 197.587 526.11 197.659 527.25 197.755C528.924 197.896 530.48 198.178 532.133 197.554L532.5 197.377C533.757 197.583 535.372 197.499 536.571 197.047L537 196.877C538.079 196.842 538.882 197.019 540 196.755C540.794 196.567 540.787 196.327 541.688 196.415L542.25 196.5C543.361 196.024 542.881 196.121 544.117 196.039C545.285 195.961 544.992 196.008 545.75 195.255C546.497 195.5 547.251 195.617 548 195.25L548.5 194.877C550.528 194.069 548.005 195.519 549.926 194.368L550.503 194.002L551.25 194C553.643 193.443 550.798 193.727 552.867 193.539L553.5 193.5L554.003 193.002L554.75 193L555.25 192.255L556.5 192.5L557.003 192.002L558 191.877C559.051 191.633 560.264 191.454 561.25 191C562.4 190.471 561.791 190.533 562.948 190.711Z"/>
	<path fill="#FCB296" transform="scale(0.488281 0.488281)" d="M307.95 307.053C309.487 309.446 310.912 311.384 313.003 313.343C316.652 316.135 322.024 321.159 326.482 322.155L326.568 322.407L326.497 329.525L326.649 466.972C321.157 463.427 315.894 459.163 311.781 454.057C309.996 451.745 309.028 448.977 307.559 446.458L307.95 307.053Z"/>
	<path fill="#A0858C" transform="scale(0.488281 0.488281)" d="M313.003 313.343C316.652 316.135 322.024 321.159 326.482 322.155L326.568 322.407L326.497 329.525C321.489 327.071 316.533 323.487 311.844 320.432L313.003 313.343Z"/>
	<path fill="#F55433" transform="scale(0.488281 0.488281)" d="M307.95 307.053C309.487 309.446 310.912 311.384 313.003 313.343L311.844 320.432C310.731 333.253 311.795 346.784 311.839 359.681L311.602 424.318L311.865 444.606C311.91 447.542 312.371 451.194 311.781 454.057C309.996 451.745 309.028 448.977 307.559 446.458L307.95 307.053Z"/>
	<path fill="#C6CCDD" transform="scale(0.488281 0.488281)" d="M450.178 185.203C445.09 182.723 441.483 180.81 437.544 176.706C439.055 173.784 440.65 171.326 443.186 169.188C460.162 154.868 510.448 154.225 532.305 156.399C543.793 157.542 571.334 161.632 578.686 171.256C580.335 173.415 580.258 174.834 579.959 177.463C575.749 184.929 565.966 188.146 558.122 190.319C532.498 197.415 502.722 197.732 476.633 192.841C471.152 191.813 465.768 190.512 460.478 188.738L452.943 186.083C452.318 185.857 450.801 185.084 450.178 185.203Z"/>
	<path fill="#125577" transform="scale(0.488281 0.488281)" d="M599.144 311.206C617.713 309.263 636.848 304.753 654.645 299.185C676.626 292.308 700.757 282.948 717.397 266.489L717.373 295.237C717.348 297.697 717.904 301.913 717.04 304.103C716.574 305.286 713.983 307.589 713.032 308.541C703.66 317.934 691.547 323.882 679.5 329.029C654.303 339.793 627.192 346.306 600.16 350.425L600.108 312L599.144 311.206Z"/>
	<path fill="#125577" transform="scale(0.488281 0.488281)" d="M600.066 813.598C622.282 810.182 644.25 804.9 665.396 797.237C675.363 793.625 685.378 789.671 694.454 784.135C702.967 778.942 710.567 772.578 717.729 765.676L717.895 800.432C717.897 803.493 718.646 809.596 717.598 812.389C716.927 814.177 714.602 816.542 713.237 817.943C709.059 822.232 704.021 825.673 698.984 828.864C685.963 837.112 671.376 842.488 656.704 846.972C638.399 852.566 619.297 856.718 600.388 859.727L600.066 813.598Z"/>
	<path fill="#414066" transform="scale(0.488281 0.488281)" d="M543.001 251.292L523.748 254.385C517.647 255.789 510.883 255.597 504.646 255.519C488.317 255.316 470.645 253.183 455 248.502C451.862 247.564 448.467 246.825 445.5 245.425C439.971 242.816 436.137 239.469 431.93 235.141L433.077 180.135L448.081 188.169L455.846 190.812C456.541 190.798 458.16 190.554 458.75 190.755C459.723 191.087 458.663 191.708 460.25 191.255C461.111 191.896 460.962 191.839 461.998 192.002L462.967 192.438C463.838 192.851 464.306 192.898 465.25 193L470.391 194.11C471.974 194.433 473.692 195.313 475.283 195.805L475.325 195.929L475.992 196.106C497.637 201.641 520.97 199.085 542.867 197.101L543.001 251.292Z"/>
	<path fill="#FEFEFE" transform="scale(0.488281 0.488281)" d="M448.081 188.169L455.846 190.812C458.798 192.359 462.426 193.252 465.603 194.278L465.369 248.915C459.416 247.55 453.341 244.968 447.682 242.677L448.081 188.169Z"/>
	<path fill="#22B9B3" transform="scale(0.488281 0.488281)" d="M380.198 302.766L398.956 306.785L442.77 313.613C457.236 315.352 471.7 316.067 486.25 316.589C513.314 317.56 540.494 317.262 567.486 314.932C577.951 314.028 588.846 313.215 599.144 311.206L600.108 312L600.16 350.425C569.127 355.104 538.089 357.101 506.713 357.031C464.1 356.936 421.783 352.747 380.375 342.398L380.198 302.766Z"/>
	<path fill="#22B9B3" transform="scale(0.488281 0.488281)" d="M380.129 799.6L380.406 799.511L380.31 806.185L423.433 814.378C468.553 821.275 515.083 822.772 560.551 818.691L600.066 813.598L600.388 859.727C577.89 862.501 555.169 864.96 532.508 865.84C481.491 867.821 429.876 863.496 380.088 852.014L380.129 799.6Z"/>
	<path fill="#6C2533" transform="scale(0.488281 0.488281)" d="M717.106 617.295L717.404 716.48L717.497 743.728C717.506 747.011 718.042 751.372 717.475 754.538C716.938 757.537 710.493 763.624 708.389 765.745C701.856 772.332 693.842 776.808 685.63 780.95C658.738 794.512 629.897 800.515 600.675 806.653L600.505 666.547C609.429 665.594 618.297 663.183 627 661.025C642.285 657.234 657.237 652.552 671.827 646.595C688.536 639.773 705.44 631.473 717.106 617.295Z"/>
	<path fill="#3D2B4A" transform="scale(0.488281 0.488281)" d="M600.222 357.809C624.093 354.747 648.019 349.038 670.589 340.661C687.764 334.286 704.9 326.547 717.639 312.969L717.221 407.02L717.241 433.84C717.257 438.745 717.784 444.008 716.996 448.843C695.221 472.909 663.599 484.917 632.808 492.914C622.142 495.685 611.482 498.305 600.583 499.976C600.031 494.692 600.259 489.114 600.206 483.795L600.075 454.42L600.222 357.809Z"/>
	<path fill="#6C2533" transform="scale(0.488281 0.488281)" d="M716.996 448.843L716.88 451.825L717.421 559.941L717.441 589.596C717.443 594.542 717.957 600.145 717.087 604.974L717.106 617.295C705.44 631.473 688.536 639.773 671.827 646.595C657.237 652.552 642.285 657.234 627 661.025C618.297 663.183 609.429 665.594 600.505 666.547C600.503 663.686 600.95 659.741 599.953 657.101L600.697 656.82L600.308 640.38L600.619 639.686C600.241 633.341 600.415 626.914 600.483 620.562C600.52 617.201 601.233 612.486 599.791 609.417L605.802 598.37L612.455 585.206C612.872 584.223 612.758 584.753 612.75 583.606L601.883 584.23L600.283 583.75L600.545 527.892L600.588 518C600.645 515.953 601.195 514.037 600.331 512.101L600.748 508.883L601.027 508.539C601.013 505.686 601.152 502.782 600.583 499.976C611.482 498.305 622.142 495.685 632.808 492.914C663.599 484.917 695.221 472.909 716.996 448.843Z"/>
	<path fill="#3E1535" transform="scale(0.488281 0.488281)" d="M605.802 598.37L606.425 598.316C614.042 597.55 621.124 594.527 628.587 593.275L600.619 639.686C600.241 633.341 600.415 626.914 600.483 620.562C600.52 617.201 601.233 612.486 599.791 609.417L605.802 598.37Z"/>
	<path fill="#A0858C" transform="scale(0.488281 0.488281)" d="M716.996 448.843L716.88 451.825C716.741 454.359 717.306 458.493 716.736 460.769C716.473 461.821 712.542 465.338 711.536 466.243C702.784 474.113 691.928 480.019 681.327 484.983C662.06 494.005 642.34 500.289 621.545 504.677C614.74 506.113 607.942 507.726 601.027 508.539C601.013 505.686 601.152 502.782 600.583 499.976C611.482 498.305 622.142 495.685 632.808 492.914C663.599 484.917 695.221 472.909 716.996 448.843Z"/>
	<path fill="#A0858C" transform="scale(0.488281 0.488281)" d="M717.087 604.974L717.106 617.295C705.44 631.473 688.536 639.773 671.827 646.595C657.237 652.552 642.285 657.234 627 661.025C618.297 663.183 609.429 665.594 600.505 666.547C600.503 663.686 600.95 659.741 599.953 657.101L600.697 656.82L607.899 655.82C625.718 652.466 643.489 647.291 660.5 641.051C680.89 633.571 704.508 623.55 717.087 604.974Z"/>
	<path fill="#FBC159" transform="scale(0.488281 0.488281)" d="M592.943 205.084L592.912 187.817C623.981 191.463 656.887 197.471 685.553 210.352C694.976 214.585 705.43 220.282 711.96 228.5C715.008 232.336 717.348 237.1 716.737 242.146C715.747 250.316 708.887 257.434 702.546 262.107C686.037 274.274 665.253 281.918 645.697 287.432C609.874 297.534 573.279 301.347 536.207 302.768C498.473 304.214 460.7 303.108 423.338 297.183C392.885 292.353 332.973 280.026 314.16 254.038C311.423 250.258 309.413 245.965 310.201 241.174L310.324 240.5L310.449 239.733C312.035 230.756 321.312 223.587 328.418 218.791C336.247 213.506 344.783 209.782 353.531 206.317C377.578 196.794 402.67 192.152 428.034 187.772C428.611 188.588 428.295 190.81 428.285 191.909L428.163 205.249L428.117 212.195L428.073 227.735C428.064 234.612 427.117 241.968 432.391 247.253C440.094 254.974 452.418 258.193 462.807 260.256C480.493 263.77 498.139 264.628 516.158 264.472L530.81 263.871C535.774 264.987 540.868 264.453 545.903 264.207L564.966 263.273L588.135 262.321C593.452 262.005 599.943 260.939 605.181 261.813L605.898 261.519C612.555 258.661 619.979 251.859 622.436 245C623.701 241.469 623.127 238.184 621.476 234.876C616.561 225.035 602.972 218.36 592.956 215.09L592.943 205.084Z"/>
	<path fill="#C07045" transform="scale(0.488281 0.488281)" d="M439.754 271.58C434.632 272.181 429.041 270.327 424.117 268.917C416.042 266.606 408.073 264.252 400.5 260.555C392.51 256.654 382.03 250.846 379.322 241.786C378.276 238.283 379.035 234.253 380.7 231.091C382.632 227.425 385.926 224.479 389.157 221.954C400.794 212.86 414.411 209.642 428.163 205.249L428.117 212.195C417.701 214.879 405.195 221.834 399.491 231.25C397.371 234.75 395.958 239.38 396.878 243.462C398.472 250.532 406.283 256.985 412.25 260.471C420.869 265.505 430.52 268.052 439.754 271.58Z"/>
	<path fill="#C07045" transform="scale(0.488281 0.488281)" d="M592.943 205.084C608.208 208.064 636.432 216.885 645.549 230.14C647.724 233.302 649.333 237.095 648.655 240.996C647.536 247.443 641.69 252.504 636.522 255.979C631.306 259.487 625.283 262.166 619.398 264.337C608.736 268.27 597.643 270.538 586.57 272.948C580.964 274.168 572.961 276.547 567.411 275.53C580.087 272.2 594.041 268.939 605.181 261.813L605.898 261.519C612.555 258.661 619.979 251.859 622.436 245C623.701 241.469 623.127 238.184 621.476 234.876C616.561 225.035 602.972 218.36 592.956 215.09L592.943 205.084Z"/>
	<path fill="#22B9B3" transform="scale(0.488281 0.488281)" d="M428.117 212.195L428.073 227.735C428.064 234.612 427.117 241.968 432.391 247.253C440.094 254.974 452.418 258.193 462.807 260.256C480.493 263.77 498.139 264.628 516.158 264.472L530.81 263.871C535.774 264.987 540.868 264.453 545.903 264.207L564.966 263.273L588.135 262.321C593.452 262.005 599.943 260.939 605.181 261.813C594.041 268.939 580.087 272.2 567.411 275.53C545.416 279.292 523.154 281.378 500.818 280.447C480.169 279.586 459.82 276.388 439.754 271.58C430.52 268.052 420.869 265.505 412.25 260.471C406.283 256.985 398.472 250.532 396.878 243.462C395.958 239.38 397.371 234.75 399.491 231.25C405.195 221.834 417.701 214.879 428.117 212.195Z"/>
	<path fill="#4E5D7E" transform="scale(0.488281 0.488281)" d="M601.883 584.23L612.75 583.606C612.758 584.753 612.872 584.223 612.455 585.206L605.802 598.37L599.791 609.417C601.233 612.486 600.52 617.201 600.483 620.562C600.415 626.914 600.241 633.341 600.619 639.686L600.308 640.38L600.697 656.82L599.953 657.101C600.95 659.741 600.503 663.686 600.505 666.547L600.675 806.653C554.355 814.385 506.259 816.269 459.49 811.721L459.871 679.957L503.517 683.074L504.024 672.037L504.564 662.4L515.622 662.419C521.363 660.287 526.952 656.298 532.287 653.197L466.432 651.048L452.222 650.47L460.7 634.066C460.058 630.14 460.454 625.773 460.46 621.77L460.535 597.327L481.02 598.456L487.552 586.954L488.75 585.525L547.041 585.548L562.83 585.5L601.883 584.23Z"/>
	<path fill="#FBC159" transform="scale(0.488281 0.488281)" d="M599.953 657.101C600.95 659.741 600.503 663.686 600.505 666.547L583.906 669.311L583.526 668.247L588.865 659.62L589.461 659.286L599.953 657.101Z"/>
	<path fill="#3D2B4A" transform="scale(0.488281 0.488281)" d="M564.142 671.761L582.585 669.74L502.944 790.853L506.75 771.068C507.294 768.207 508.551 764.927 508.259 762.025C512.455 753.182 518.291 744.797 523.467 736.5L546.326 699.72L557.739 681.329C559.763 678.113 561.702 674.677 564.142 671.761Z"/>
	<path fill="#FBC159" transform="scale(0.488281 0.488281)" d="M601.883 584.23L612.75 583.606C612.758 584.753 612.872 584.223 612.455 585.206L605.802 598.37L599.791 609.417C601.233 612.486 600.52 617.201 600.483 620.562C600.415 626.914 600.241 633.341 600.619 639.686L600.308 640.38L600.697 656.82L599.953 657.101L589.461 659.286L588.865 659.62L583.526 668.247L583.906 669.311L582.585 669.74L564.142 671.761C561.702 674.677 559.763 678.113 557.739 681.329L546.326 699.72L523.467 736.5C518.291 744.797 512.455 753.182 508.259 762.025L500.909 773.867L501.073 760.038L503.517 683.074L504.024 672.037L504.564 662.4L515.622 662.419C521.363 660.287 526.952 656.298 532.287 653.197L466.432 651.048L452.222 650.47L460.7 634.066C460.058 630.14 460.454 625.773 460.46 621.77L460.535 597.327L481.02 598.456L487.552 586.954L488.75 585.525L547.041 585.548L562.83 585.5L601.883 584.23Z"/>
	<path fill="#FEFB66" transform="scale(0.488281 0.488281)" d="M504.564 662.4L515.622 662.419C514.559 683.731 511.168 705.332 508.441 726.5L506.808 738.925C506.314 741.9 505.432 744.566 505.365 747.622C503.979 751.641 503.028 756.295 501.073 760.038L503.517 683.074L504.024 672.037L504.564 662.4Z"/>
	<path fill="#FEFB66" transform="scale(0.488281 0.488281)" d="M601.883 584.23L612.75 583.606C612.758 584.753 612.872 584.223 612.455 585.206C606.14 586.376 599.615 587.203 595.268 592.277C583.899 593.497 572.434 593.549 561.011 593.644L523.218 593.187C520.311 593.046 499.1 590.895 498.29 591.245L478.357 626.919C474.076 634.759 469.605 642.678 466.432 651.048L452.222 650.47L460.7 634.066C460.058 630.14 460.454 625.773 460.46 621.77L460.535 597.327L481.02 598.456L487.552 586.954L488.75 585.525L547.041 585.548L562.83 585.5L601.883 584.23Z"/>
	<path fill="#7C6F77" transform="scale(0.488281 0.488281)" d="M460.535 597.327L481.02 598.456L460.7 634.066C460.058 630.14 460.454 625.773 460.46 621.77L460.535 597.327Z"/>
	<path fill="#C07045" transform="scale(0.488281 0.488281)" d="M612.455 585.206L605.802 598.37L599.791 609.417C601.233 612.486 600.52 617.201 600.483 620.562C600.415 626.914 600.241 633.341 600.619 639.686L600.308 640.38L600.697 656.82L599.953 657.101L589.461 659.286L588.865 659.62L583.526 668.247L583.906 669.311L582.585 669.74L564.142 671.761C561.702 674.677 559.763 678.113 557.739 681.329L546.326 699.72L523.467 736.5C518.291 744.797 512.455 753.182 508.259 762.025L500.909 773.867L501.073 760.038C503.028 756.295 503.979 751.641 505.365 747.622C509.798 737.755 515.271 728.482 520.582 719.076L552.632 664.582L595.268 592.277C599.615 587.203 606.14 586.376 612.455 585.206Z"/>
	<path fill="#3D2B4A" transform="scale(0.488281 0.488281)" d="M599.791 609.417C601.233 612.486 600.52 617.201 600.483 620.562C600.415 626.914 600.241 633.341 600.619 639.686L600.308 640.38L600.697 656.82L599.953 657.101L589.461 659.286L588.865 659.62L583.526 668.247L583.906 669.311L582.585 669.74L564.142 671.761L569.514 662.799L599.791 609.417Z"/>
	<path fill="#4E5D7E" transform="scale(0.488281 0.488281)" d="M600.308 640.38L600.697 656.82L599.953 657.101L589.461 659.286L600.308 640.38Z"/>
	<path fill="#7C6F77" transform="scale(0.488281 0.488281)" d="M569.514 662.799L588.865 659.62L583.526 668.247L583.906 669.311L582.585 669.74L564.142 671.761L569.514 662.799Z"/>
	<path fill="#FBC159" transform="scale(0.488281 0.488281)" d="M460.598 362.56C469.976 363.794 479.801 363.954 489.25 364.306C526.297 365.687 563.588 363.611 600.222 357.809L600.075 454.42L600.206 483.795C600.259 489.114 600.031 494.692 600.583 499.976C601.152 502.782 601.013 505.686 601.027 508.539L600.748 508.883L600.331 512.101C601.195 514.037 600.645 515.953 600.588 518L600.545 527.892L600.283 583.75L601.883 584.23L562.83 585.5L547.041 585.548L488.75 585.525L487.552 586.954L481.02 598.456L460.535 597.327L460.458 597.038L426.023 594.905C428.168 591.772 430.45 588.586 431.822 585.027L432.01 584.521L422.219 584.155C420.229 584.101 417.201 584.485 415.794 583C417.558 580.598 418.582 577.647 420.076 575.031L420.295 574.475L452.69 513.574C454.624 511.744 456.249 507.101 457.455 504.621L461.2 497.152C460.356 494.288 460.861 490.447 460.877 487.455L460.766 471.762L460.598 362.56Z"/>
	<path fill="#FEFB66" transform="scale(0.488281 0.488281)" d="M525.864 504.578L591.61 501.363C591.808 502.747 592.193 504.223 591.806 505.593C590.49 505.178 579.146 507.626 577.526 508.638C576.814 509.083 576.131 510.014 575.592 510.661C570.824 510.313 565.652 510.845 560.839 510.946C541.882 511.345 522.018 513.476 503.148 511.462C505.678 510.007 508.713 508.61 510.979 506.805L511.54 506.343L517.915 504.493L525.864 504.578Z"/>
	<path fill="#FEFB66" transform="scale(0.488281 0.488281)" d="M461.2 497.152L504.133 418.74L514.45 399.5C515.253 398.032 516.496 394.884 517.867 394.007L517.868 395.826L514.733 408.867C509.375 416.931 506.136 427.423 502.443 436.345L491.884 458.987L452.689 533.684L430.532 574.411L420.295 574.475L452.69 513.574C454.624 511.744 456.249 507.101 457.455 504.621L461.2 497.152Z"/>
	<path fill="#C07045" transform="scale(0.488281 0.488281)" d="M600.583 499.976C601.152 502.782 601.013 505.686 601.027 508.539L600.748 508.883L600.331 512.101C601.195 514.037 600.645 515.953 600.588 518L600.545 527.892L600.283 583.75L601.883 584.23L562.83 585.5L547.041 585.548L488.75 585.525L487.552 586.954L481.02 598.456L460.535 597.327L460.458 597.038L426.023 594.905C428.168 591.772 430.45 588.586 431.822 585.027L432.01 584.521L422.219 584.155C420.229 584.101 417.201 584.485 415.794 583C417.558 580.598 418.582 577.647 420.076 575.031L537.509 577.767C542.317 567.062 548.141 556.707 553.803 546.435C560.566 534.165 567.175 521.902 575.592 510.661C576.131 510.014 576.814 509.083 577.526 508.638C579.146 507.626 590.49 505.178 591.806 505.593C592.193 504.223 591.808 502.747 591.61 501.363L600.583 499.976Z"/>
	<path fill="#3D2B4A" transform="scale(0.488281 0.488281)" d="M432.01 584.521L460.634 585.971L480.039 586.286C482.18 586.321 485.803 585.842 487.552 586.954L481.02 598.456L460.535 597.327L460.458 597.038L426.023 594.905C428.168 591.772 430.45 588.586 431.822 585.027L432.01 584.521Z"/>
	<path fill="#3E1535" transform="scale(0.488281 0.488281)" d="M600.583 499.976C601.152 502.782 601.013 505.686 601.027 508.539L600.748 508.883L600.331 512.101L599.248 514.921C597.16 521.177 593.048 527.215 589.975 533.106L572.134 567.408L565.78 578.813C564.673 580.817 563.136 583.207 562.83 585.5L547.041 585.548C547.558 583.38 549.174 580.988 550.244 578.98L559.048 563.5L583.546 520.283C585.363 517.112 587.185 513.642 589.505 510.823L591.806 505.593C592.193 504.223 591.808 502.747 591.61 501.363L600.583 499.976Z"/>
	<path fill="#414066" transform="scale(0.488281 0.488281)" d="M600.583 499.976C601.152 502.782 601.013 505.686 601.027 508.539L600.748 508.883L600.331 512.101L599.248 514.921C598.664 515.609 597.942 516.743 597.25 517.271C594.788 519.15 586.756 519.962 583.546 520.283C585.363 517.112 587.185 513.642 589.505 510.823L591.806 505.593C592.193 504.223 591.808 502.747 591.61 501.363L600.583 499.976Z"/>
	<path fill="#FEFEFE" transform="scale(0.488281 0.488281)" d="M600.583 499.976C601.152 502.782 601.013 505.686 601.027 508.539L600.748 508.883L589.505 510.823L591.806 505.593C592.193 504.223 591.808 502.747 591.61 501.363L600.583 499.976Z"/>
	<path fill="#CB3D39" transform="scale(0.488281 0.488281)" d="M600.331 512.101C601.195 514.037 600.645 515.953 600.588 518L600.545 527.892L600.283 583.75L601.883 584.23L562.83 585.5C563.136 583.207 564.673 580.817 565.78 578.813L572.134 567.408L589.975 533.106C593.048 527.215 597.16 521.177 599.248 514.921L600.331 512.101Z"/>
	<path fill="#4E5D7E" transform="scale(0.488281 0.488281)" d="M460.598 362.56C469.976 363.794 479.801 363.954 489.25 364.306C526.297 365.687 563.588 363.611 600.222 357.809L600.075 454.42L600.206 483.795C600.259 489.114 600.031 494.692 600.583 499.976L591.61 501.363L525.864 504.578L517.915 504.493L511.54 506.343C511.3 500.314 511.875 493.973 512.008 487.923L514.153 429.403C514.336 422.732 515.24 415.484 514.733 408.867L517.868 395.826L517.867 394.007C516.496 394.884 515.253 398.032 514.45 399.5L504.133 418.74L461.2 497.152C460.356 494.288 460.861 490.447 460.877 487.455L460.766 471.762L460.598 362.56Z"/>
	<path fill="#3D2B4A" transform="scale(0.488281 0.488281)" d="M520.143 440.796L520.312 440.113C521.317 435.873 521.453 431.547 521.874 427.222C522.117 424.729 522.248 421.975 523.425 419.717C524.666 429.275 524.242 439.58 524.509 449.239L525.864 504.578L517.915 504.493L520.143 440.796Z"/>
	<path fill="#C07045" transform="scale(0.488281 0.488281)" d="M514.733 408.867L517.868 395.826C518.186 410.981 517.58 425.755 520.143 440.796L517.915 504.493L511.54 506.343C511.3 500.314 511.875 493.973 512.008 487.923L514.153 429.403C514.336 422.732 515.24 415.484 514.733 408.867Z"/>
	<path fill="#FEFEFE" transform="scale(0.488281 0.488281)" d="M348.472 292.583L380.198 302.766L380.375 342.398L380.386 350.001C401.526 354.926 422.646 358.822 444.254 361.019C449.581 361.561 455.253 362.513 460.598 362.56L460.766 471.762L460.877 487.455C460.861 490.447 460.356 494.288 461.2 497.152L457.455 504.621C456.249 507.101 454.624 511.744 452.69 513.574L420.295 574.475L420.076 575.031C418.582 577.647 417.558 580.598 415.794 583C417.201 584.485 420.229 584.101 422.219 584.155L432.01 584.521L431.822 585.027C430.45 588.586 428.168 591.772 426.023 594.905L460.458 597.038L460.535 597.327L460.46 621.77C460.454 625.773 460.058 630.14 460.7 634.066L452.222 650.47L466.432 651.048L532.287 653.197C526.952 656.298 521.363 660.287 515.622 662.419L504.564 662.4L504.024 672.037L503.517 683.074L459.871 679.957L459.49 811.721L380.406 799.511L380.129 799.6L380.088 852.014L349.067 841.873L349.036 794.109L326.979 781.373L319.551 774.545C316.066 771.016 312.996 766.716 310.419 762.48L310.776 761.838C311.849 757.077 311.379 751.377 311.402 746.471L311.446 719.168L311.467 620.739C310.767 618.245 308.94 615.569 307.687 613.267L307.658 601.933L310.771 607.083C311.929 605.028 311.252 599.954 311.246 597.486L311.238 572.541L311.908 467.462C311.21 464.906 309.158 462.13 307.521 460.09L307.559 446.458C309.028 448.977 309.996 451.745 311.781 454.057C315.894 459.163 321.157 463.427 326.649 466.972L326.497 329.525L326.568 322.407L348.448 332.234L348.472 292.583Z"/>
	<path fill="#F55433" transform="scale(0.488281 0.488281)" d="M326.568 322.407L348.448 332.234L348.523 339.42L348.597 479.321C341.011 475.514 333.611 471.877 326.649 466.972L326.497 329.525L326.568 322.407Z"/>
	<path fill="#12184A" transform="scale(0.488281 0.488281)" d="M326.568 322.407L348.448 332.234L348.523 339.42C345.886 338.825 343.14 337.329 340.681 336.193L326.497 329.525L326.568 322.407Z"/>
	<path fill="#F55433" transform="scale(0.488281 0.488281)" d="M311.908 467.462C316.581 471.684 321.392 475.106 326.622 478.589L348.595 489.277L349.06 634.291C341.494 630.37 333.425 626.619 326.635 621.42C321.527 618.024 314.105 612.307 310.771 607.083C311.929 605.028 311.252 599.954 311.246 597.486L311.238 572.541L311.908 467.462Z"/>
	<path fill="#FCB296" transform="scale(0.488281 0.488281)" d="M311.908 467.462C316.581 471.684 321.392 475.106 326.622 478.589L326.635 621.42C321.527 618.024 314.105 612.307 310.771 607.083C311.929 605.028 311.252 599.954 311.246 597.486L311.238 572.541L311.908 467.462Z"/>
	<path fill="#F55433" transform="scale(0.488281 0.488281)" d="M311.467 620.739C316.137 625.753 320.885 629.387 326.532 633.199C333.64 637.491 341.144 642.056 348.928 645.021L349.004 786.531L349.036 794.109L326.979 781.373L319.551 774.545C316.066 771.016 312.996 766.716 310.419 762.48L310.776 761.838C311.849 757.077 311.379 751.377 311.402 746.471L311.446 719.168L311.467 620.739Z"/>
	<path fill="#12184A" transform="scale(0.488281 0.488281)" d="M310.776 761.838L326.541 773.799C333.412 778.298 341.36 783.58 349.004 786.531L349.036 794.109L326.979 781.373L319.551 774.545C316.066 771.016 312.996 766.716 310.419 762.48L310.776 761.838Z"/>
	<path fill="#FCB296" transform="scale(0.488281 0.488281)" d="M311.467 620.739C316.137 625.753 320.885 629.387 326.532 633.199L326.541 773.799L310.776 761.838C311.849 757.077 311.379 751.377 311.402 746.471L311.446 719.168L311.467 620.739Z"/>
	<path fill="#F55433" transform="scale(0.488281 0.488281)" d="M460.664 660.986C441.345 659.903 420.857 656.507 402.016 652.276L380.124 646.748L380.338 500.215C380.933 499.953 381.306 500.268 381.921 500.476C399.16 506.312 418.121 509.946 436.206 511.971C441.717 512.588 447.132 513.411 452.69 513.574L420.295 574.475L420.076 575.031C418.582 577.647 417.558 580.598 415.794 583C417.201 584.485 420.229 584.101 422.219 584.155L432.01 584.521L431.822 585.027C430.45 588.586 428.168 591.772 426.023 594.905L460.458 597.038L460.535 597.327L460.46 621.77C460.454 625.773 460.058 630.14 460.7 634.066L452.222 650.47L466.432 651.048L532.287 653.197C526.952 656.298 521.363 660.287 515.622 662.419L504.564 662.4L504.024 672.037L503.517 683.074L459.871 679.957L459.51 671.004C459.564 667.594 460.098 664.342 460.664 660.986Z"/>
	<path fill="#4E5D7E" transform="scale(0.488281 0.488281)" d="M460.664 660.986L504.564 662.4L504.024 672.037L503.517 683.074L459.871 679.957L459.51 671.004C459.564 667.594 460.098 664.342 460.664 660.986Z"/>
	<path fill="#3D2B4A" transform="scale(0.488281 0.488281)" d="M459.51 671.004L504.024 672.037L503.517 683.074L459.871 679.957L459.51 671.004Z"/>
	<path fill="#F55433" transform="scale(0.488281 0.488281)" d="M380.129 799.6L380.162 657.354C400.756 663.373 421.581 666.723 442.832 669.389C447.352 669.956 453.042 671.308 457.463 670.802C458.297 670.707 458.709 670.774 459.51 671.004L459.871 679.957L459.49 811.721L380.406 799.511L380.129 799.6Z"/>
	<path fill="#F55433" transform="scale(0.488281 0.488281)" d="M380.386 350.001C401.526 354.926 422.646 358.822 444.254 361.019C449.581 361.561 455.253 362.513 460.598 362.56L460.766 471.762L460.877 487.455C460.861 490.447 460.356 494.288 461.2 497.152L457.455 504.621C438.715 503.713 419.165 500.432 400.939 496.167L380.358 490.765L380.386 350.001Z"/>
</svg>
