<?xml version="1.0" encoding="utf-8" ?>
<svg xmlns="http://www.w3.org/2000/svg" xmlns:xlink="http://www.w3.org/1999/xlink" width="500" height="500">
	<path fill="#E2CB9D" transform="scale(0.488281 0.488281)" d="M-0 -0L1024 0L1024 1024L-0 1024L0 -0Z"/>
	<path fill="#062338" transform="scale(0.488281 0.488281)" d="M393.898 381.954L399.561 380.489L402.44 387.75C401.536 388.641 400.55 388.877 399.374 389.242L379.605 394.155C378.188 394.614 376.253 395.642 374.924 395.013C374.056 392.547 373.556 389.976 372.985 387.429C374.495 386.871 376.093 386.622 377.668 386.309L393.898 381.954Z"/>
	<path fill="#FCFEFE" transform="scale(0.488281 0.488281)" d="M683.706 236.355C687.326 235.698 692.002 234.58 695.306 236.75C697.204 237.997 700.568 241.153 701.14 243.47C701.376 244.427 701.458 244.889 701.013 245.741L700.958 248.735L701.925 249.514C701.526 250.543 701.216 251.33 700.484 252.166C699.255 255.286 697.924 257.958 695.587 260.415C694.338 261.46 692.357 262.839 690.781 263.216C687.329 264.041 682.126 262.515 679.439 260.442L679.015 259.975C676.62 257.194 675.082 252.66 675.543 249C676.283 243.131 679.359 239.892 683.706 236.355Z"/>
	<path fill="#02132A" transform="scale(0.488281 0.488281)" d="M701.013 245.741C718.567 249.482 733.956 257.23 743.949 272.75C757.173 293.288 756.379 322.593 751.126 345.452C747.793 359.956 741.634 373.903 733.09 386.095C728.828 392.176 723.684 398.153 717.416 402.226L716.918 402.527L715.879 402.269L714.861 400.167L715.207 399.902C736.276 383.55 746.824 354.373 750.007 328.769C752.426 309.307 749.419 285.347 736.99 269.577C730.35 261.153 720.867 255.647 710.865 252.143C707.931 251.115 705.031 249.895 701.925 249.514L700.958 248.735L701.013 245.741Z"/>
	<path fill="#B03437" transform="scale(0.488281 0.488281)" d="M376.517 329.32L384.646 354.555C387.407 363.471 389.725 373.61 393.898 381.954L377.668 386.309L362.111 338.667C367.207 336.071 372.005 332.827 376.517 329.32Z"/>
	<path fill="#B03437" transform="scale(0.488281 0.488281)" d="M720.248 421.701C744.099 413.993 768.168 412.42 793.065 412.502C793.071 415.337 793.95 422.988 792.52 425.061L771.765 425.246C769.24 425.416 766.327 425.321 763.889 425.961L762.635 425.877L761.802 427.736L757.468 428.262C746.477 429.602 736.068 432.145 725.444 435.227L724.801 434.939L724.503 433.896C722.5 431.002 721.183 425.13 720.248 421.701Z"/>
	<path fill="#FCFDEE" transform="scale(0.488281 0.488281)" d="M756.124 426.745C756.298 426.527 761.869 425.974 762.635 425.877L761.802 427.736L757.468 428.262L756.124 426.745Z"/>
	<path fill="#FCFEFE" transform="scale(0.488281 0.488281)" d="M724.503 433.896C734.991 430.591 745.268 428.334 756.124 426.745L757.468 428.262C746.477 429.602 736.068 432.145 725.444 435.227L724.801 434.939L724.503 433.896Z"/>
	<path fill="#062338" transform="scale(0.488281 0.488281)" d="M679.439 260.442C674.719 260.14 669.466 258.027 664.752 257.052C650.963 254.2 636.565 252.063 623 248.413C621.295 247.954 619.657 247.285 618.326 246.093C616.122 244.118 614.932 241.284 614.956 238.346C614.979 235.401 616.646 228.27 619.178 226.427L620 225.992C621.584 225.143 623.211 224.025 625.076 224.339L683.706 236.355C679.359 239.892 676.283 243.131 675.543 249C675.082 252.66 676.62 257.194 679.015 259.975L679.439 260.442Z"/>
	<defs>
		<linearGradient id="gradient_0" gradientUnits="userSpaceOnUse" x1="682.83813" y1="259.29459" x2="702.92828" y2="317.26089">
			<stop offset="0" stop-color="#BA3034"/>
			<stop offset="1" stop-color="#E63538"/>
		</linearGradient>
	</defs>
	<path fill="url(#gradient_0)" transform="scale(0.488281 0.488281)" d="M700.484 252.166C709.498 254.491 720.195 259.758 725.118 267.993C727.72 272.347 729.677 280.154 728.217 285.19C726.87 289.836 723.127 294.056 718.948 296.371L680.929 312.803L684.887 324.452L669.22 330.27L666.25 323.38C663.986 317.893 657.829 306.382 660.537 300.75C661.144 299.49 662.239 298.346 663.444 297.644C668.493 294.702 675.072 292.802 680.551 290.644L715.913 276.88L714.505 274.25C711.057 268.387 705.632 263.372 698.864 261.745C697.943 261.523 697.197 261.321 696.361 260.859L695.587 260.415C697.924 257.958 699.255 255.286 700.484 252.166Z"/>
	<path fill="#B03437" transform="scale(0.488281 0.488281)" d="M77.9586 550.546C76.2198 551.391 73.776 549.234 72 548.619C70.456 548.084 68.7808 547.775 67.1842 547.432C74.2253 526.797 83.5545 508.052 96.9272 490.77C129.086 449.21 176.231 422.423 228.314 416.024C271.407 410.73 321.13 423.068 355.387 449.931C353.317 452.733 351.199 455.465 349.613 458.58L348.322 460.123C332.342 450.067 316.084 441.462 297.896 436.051C288.765 433.335 279.51 431.761 270.124 430.256L241.55 428.685L233.957 429.278C187.774 432.903 143.021 455.984 113.009 491.204C98.1785 508.607 85.6679 529.942 78.6707 551.743L77.9586 550.546Z"/>
	<path fill="#FCFDEE" transform="scale(0.488281 0.488281)" d="M229.418 427.948C233.267 427.011 237.906 427.221 241.883 427.003L241.55 428.685L233.957 429.278L233.229 428.259L229.418 427.948Z"/>
	<path fill="#FCFEFE" transform="scale(0.488281 0.488281)" d="M241.883 427.003L272.075 428.688L270.124 430.256L241.55 428.685L241.883 427.003Z"/>
	<path fill="#FCFDEE" transform="scale(0.488281 0.488281)" d="M272.075 428.688C300.525 432.792 325.224 443.766 349.613 458.58L348.322 460.123C332.342 450.067 316.084 441.462 297.896 436.051C288.765 433.335 279.51 431.761 270.124 430.256L272.075 428.688Z"/>
	<path fill="#FCFEFE" transform="scale(0.488281 0.488281)" d="M77.9586 550.546C84.2808 527.21 98.9231 504.266 114.845 486.258C138.464 459.545 171.841 440.399 206.32 431.978C213.943 430.117 221.564 428.448 229.418 427.948L233.229 428.259L233.957 429.278C187.774 432.903 143.021 455.984 113.009 491.204C98.1785 508.607 85.6679 529.942 78.6707 551.743L77.9586 550.546Z"/>
	<path fill="#E2CB9D" transform="scale(0.488281 0.488281)" d="M701.925 249.514C705.031 249.895 707.931 251.115 710.865 252.143C720.867 255.647 730.35 261.153 736.99 269.577C749.419 285.347 752.426 309.307 750.007 328.769C746.824 354.373 736.276 383.55 715.207 399.902L714.861 400.167C711.694 394.462 710.226 386.98 708.011 380.797L696.663 348.561L691.32 334.04C690.988 332.984 691.034 332.2 691.154 331.12L691.988 330.5C691.476 328.344 690.346 324.983 688.75 323.436L684.887 324.452L680.929 312.803L718.948 296.371C723.127 294.056 726.87 289.836 728.217 285.19C729.677 280.154 727.72 272.347 725.118 267.993C720.195 259.758 709.498 254.491 700.484 252.166C701.216 251.33 701.526 250.543 701.925 249.514Z"/>
	<path fill="#91635B" transform="scale(0.488281 0.488281)" d="M319.539 330.123C318.36 329.078 313.446 329.092 311.703 328.873C307.958 328.403 303.947 327.746 300.441 326.283C294.786 323.923 291.455 320.543 289.146 314.862C286.179 307.561 285.908 297.8 289.168 290.578C291.503 285.407 295.283 282.093 300.625 280.25L301.497 279.971C317.441 275.165 329.393 282.062 344.007 286.883C350.24 288.94 356.632 290.168 363.141 290.926C372.136 291.972 380.969 292.026 390.013 292.044C400.381 292.065 413.492 290.438 423 295.028C429.791 298.307 432.836 303.939 435.177 310.747L430.25 310.292C418.258 309.086 406.364 310.334 395.114 314.742L376.517 329.32C372.005 332.827 367.207 336.071 362.111 338.667C355.902 341.225 350.539 342.35 343.795 342.027C334.372 341.576 325.819 337.007 319.539 330.123Z"/>
	<path fill="#062338" transform="scale(0.488281 0.488281)" d="M319.539 330.123C320.999 329.354 323.202 329.746 324.832 329.798C328.421 329.913 331.974 330.019 335.562 329.784C341.347 329.405 346.956 328.633 352.629 327.429C361.58 325.528 370.311 322.303 378.952 319.346C383.862 317.667 389.931 314.875 395.114 314.742L376.517 329.32C372.005 332.827 367.207 336.071 362.111 338.667C355.902 341.225 350.539 342.35 343.795 342.027C334.372 341.576 325.819 337.007 319.539 330.123Z"/>
	<path fill="#D4AC6A" transform="scale(0.488281 0.488281)" d="M678.503 754.817C688.208 760.757 697.982 766.432 708.512 770.807C743.89 785.505 782.96 787.224 819.974 778.276L848.018 768.736C850.116 770.375 867.821 770.383 871.25 770.538C885.366 771.179 938.383 773.057 947.504 780.75L947.41 781.917C942.962 785.425 934.721 786.256 929.202 787.182C910.374 790.34 891.176 791.897 872.148 793.233L735.514 799.169L416.857 802.844L345.123 800.62L314.649 800.4L191.352 795.304L112.25 789.532C101.291 788.437 89.1612 787.991 78.5563 785.032C76.3362 784.412 74.4938 783.499 72.75 782C72.4588 780.883 72.564 780.826 73.0269 779.75C82.5276 772.302 133.206 770.142 147.792 769.284L161.264 768.401C163.45 768.232 165.896 768.338 167.977 767.61L168.891 767.261C178.943 772.141 189.13 776.522 199.939 779.451C238.052 789.779 281.713 787.265 318.346 772.54C327.594 768.823 336.331 763.944 344.972 759.005C348.439 759.998 352.56 759.562 356.175 759.642C373.479 760.023 390.648 758.475 407.921 757.58L452.437 755.8L622.524 755.133L658.368 755.006C665 755.016 671.915 755.426 678.503 754.817Z"/>
	<path fill="#062338" transform="scale(0.488281 0.488281)" d="M716.663 411.958C716.295 414.23 719.347 419.363 720.248 421.701C721.183 425.13 722.5 431.002 724.503 433.896L724.801 434.939L725.444 435.227C736.068 432.145 746.477 429.602 757.468 428.262L761.802 427.736L762.635 425.877L763.889 425.961C766.327 425.321 769.24 425.416 771.765 425.246L792.52 425.061C792.804 425.723 793.077 426.59 793.506 427.183C840.927 432.851 885.292 456.994 915.076 494.492C944.46 531.486 959.877 580.074 954.25 627.326C948.549 675.196 924.706 715.428 886.973 745.024C874.981 754.43 861.647 761.991 848.018 768.736L819.974 778.276C782.96 787.224 743.89 785.505 708.512 770.807C697.982 766.432 688.208 760.757 678.503 754.817C671.915 755.426 665 755.016 658.368 755.006L622.524 755.133L452.437 755.8L407.921 757.58C390.648 758.475 373.479 760.023 356.175 759.642C352.56 759.562 348.439 759.998 344.972 759.005C366.116 745.624 385.289 725.877 398.448 704.597C405.357 693.424 410.648 681.584 415.388 669.373L440.178 673.953C441.924 674.233 445.545 674.046 447.018 674.641C448.297 675.157 449.974 676.992 451.259 677.788C456.158 680.821 461.879 682.953 467.534 683.996L468.5 684.169C478.659 686.045 487.31 684.781 497.018 681.61L510.62 711.944L510.799 712.53C511.333 714.354 511.489 715.461 511.195 717.336C512.374 718.245 513.289 718.014 514.736 718.079C515.71 715.845 516.388 713.319 517.047 710.979C516.388 707.799 514.871 704.749 513.662 701.742C510.54 693.983 506.634 686.396 504.069 678.444C506.947 676.693 509.712 674.911 512.257 672.692C522.629 663.646 529.23 650.401 530.095 636.633C530.925 623.414 526.512 609.13 517.755 599.1C523.36 594.301 528.41 588.584 533.496 583.227L562.957 551.541L603.78 506.69L661.311 445.229C666.579 439.564 688.663 414.178 693.359 412.598L693.675 415.343L694.75 419.117C696.191 419.368 700.424 417.691 701.767 416.903L703.583 416.266C707.2 414.594 712.739 411.489 716.663 411.958Z"/>
	<path fill="#FCFEFE" transform="scale(0.488281 0.488281)" d="M762.635 425.877L763.889 425.961L768.25 426.301L768.973 427.272L761.802 427.736L762.635 425.877Z"/>
	<path fill="#FCFDEE" transform="scale(0.488281 0.488281)" d="M771.765 425.246L792.52 425.061C792.804 425.723 793.077 426.59 793.506 427.183L783.188 426.825L768.973 427.272L768.25 426.301L763.889 425.961C766.327 425.321 769.24 425.416 771.765 425.246Z"/>
	<path fill="#E2CB9D" transform="scale(0.488281 0.488281)" d="M734.23 627.346L753.625 619.869C756.79 624.46 760.192 628.167 765.213 630.793L767.289 631.68L773.04 632.793L775.962 632.924C775.35 638.073 775.588 643.373 775.566 648.552L775.476 672.66L775.016 762.795L772.944 763.168C769.404 762.692 765.516 763.182 761.905 762.891C752.273 762.115 743.063 760.395 733.716 757.981C727.962 756.496 722.049 754.851 716.698 752.225L714.583 751.732C712.238 749.922 707.971 748.676 705.232 747.274C700.674 744.942 696.305 742.23 692.003 739.459C664.644 721.838 642.827 696.294 630.511 666.094L734.23 627.346Z"/>
	<path fill="#FCFEFE" transform="scale(0.488281 0.488281)" d="M765.213 630.793L767.289 631.68C761.095 644.112 756.14 657.409 750.926 670.28L732.25 714.786L722.726 736.984C720.652 741.685 717.477 747.155 716.698 752.225L714.583 751.732L765.213 630.793Z"/>
	<path fill="#E2CB9D" transform="scale(0.488281 0.488281)" d="M767.289 631.68L773.04 632.793L775.962 632.924C775.35 638.073 775.588 643.373 775.566 648.552L775.476 672.66L775.016 762.795L772.944 763.168C769.404 762.692 765.516 763.182 761.905 762.891C752.273 762.115 743.063 760.395 733.716 757.981C727.962 756.496 722.049 754.851 716.698 752.225C717.477 747.155 720.652 741.685 722.726 736.984L732.25 714.786L750.926 670.28C756.14 657.409 761.095 644.112 767.289 631.68Z"/>
	<path fill="#FCFEFE" transform="scale(0.488281 0.488281)" d="M773.04 632.793L775.962 632.924C775.35 638.073 775.588 643.373 775.566 648.552L775.476 672.66L775.016 762.795L772.944 763.168L773.477 669.554L773.5 645.499C773.497 641.403 773.954 636.783 773.04 632.793Z"/>
	<path fill="#E2CB9D" transform="scale(0.488281 0.488281)" d="M716.663 411.958C716.295 414.23 719.347 419.363 720.248 421.701C721.183 425.13 722.5 431.002 724.503 433.896L724.801 434.939L725.444 435.227C724.64 438.921 730.603 449.885 731.296 454.572C747.032 449.02 764.17 447.463 780.757 447.447L782.332 447.631C795.265 448.584 807.768 450.419 820.244 454.067C826.616 455.93 832.657 458.49 838.862 460.8L840.396 461.732C867.448 473.723 892.153 495.582 908.027 520.46L916.082 534.412C917.499 537.159 918.659 540.299 920.319 542.875L920.521 544.038C918.273 545.607 915.832 546.425 913.394 547.598L893 557.029L834.75 583.99L801.289 599.126L800.471 596.721C798.614 593.548 797.101 590.364 794.411 587.754C792.236 585.643 789.303 584.112 786.711 582.573L785.327 582.31C783.232 581.268 780.464 580.952 778.162 580.522L776.678 580.358C772.401 580.665 768.767 581.499 764.738 582.986L748.68 541.567C745.258 535.342 743.021 527.59 740.477 520.929L732.269 499.158L729.266 490.158L718.59 459.642C718.682 457.861 717.767 456.026 717.145 454.37L711.543 442.456L710.507 441.89L710.424 439.876C708.684 436.377 707.634 432.32 706.388 428.613L706.146 428.411L703.138 420.348L701.767 416.903L703.583 416.266C707.2 414.594 712.739 411.489 716.663 411.958Z"/>
	<path fill="#97C1B2" transform="scale(0.488281 0.488281)" d="M716.663 411.958C716.295 414.23 719.347 419.363 720.248 421.701C721.183 425.13 722.5 431.002 724.503 433.896L724.801 434.939L725.444 435.227C724.64 438.921 730.603 449.885 731.296 454.572C733.321 462.363 736.909 470.266 739.619 477.907L758.844 531.606L770.341 564.11C772.126 569.095 773.526 574.286 775.944 579.014L776.678 580.358C772.401 580.665 768.767 581.499 764.738 582.986L748.68 541.567C745.258 535.342 743.021 527.59 740.477 520.929L732.269 499.158L729.266 490.158L718.59 459.642C718.682 457.861 717.767 456.026 717.145 454.37L711.543 442.456L710.507 441.89L710.424 439.876C708.684 436.377 707.634 432.32 706.388 428.613L706.146 428.411L703.138 420.348L701.767 416.903L703.583 416.266C707.2 414.594 712.739 411.489 716.663 411.958Z"/>
	<path fill="#438B95" transform="scale(0.488281 0.488281)" d="M701.767 416.903L703.583 416.266C703.968 417.064 704.543 417.973 704.804 418.807L708.945 428.825C708.219 428.135 707.775 427.604 706.824 427.246L706.388 428.613L706.146 428.411L703.138 420.348L701.767 416.903Z"/>
	<defs>
		<linearGradient id="gradient_1" gradientUnits="userSpaceOnUse" x1="707.16125" y1="446.53931" x2="716.65198" y2="434.80954">
			<stop offset="0" stop-color="#276973"/>
			<stop offset="1" stop-color="#038289"/>
		</linearGradient>
	</defs>
	<path fill="url(#gradient_1)" transform="scale(0.488281 0.488281)" d="M706.388 428.613L706.824 427.246C707.775 427.604 708.219 428.135 708.945 428.825L715.026 444.916L718.628 453.566L717.145 454.37L711.543 442.456L710.507 441.89L710.424 439.876C708.684 436.377 707.634 432.32 706.388 428.613Z"/>
	<path fill="#30757F" transform="scale(0.488281 0.488281)" d="M717.145 454.37L718.628 453.566L742.327 519.865L746.801 533.263C747.615 535.819 748.878 538.866 748.68 541.567C745.258 535.342 743.021 527.59 740.477 520.929L732.269 499.158L729.266 490.158L718.59 459.642C718.682 457.861 717.767 456.026 717.145 454.37Z"/>
	<path fill="#E2CB9D" transform="scale(0.488281 0.488281)" d="M782.332 447.631C795.265 448.584 807.768 450.419 820.244 454.067C826.616 455.93 832.657 458.49 838.862 460.8L840.396 461.732L786.711 582.573L785.327 582.31C783.232 581.268 780.464 580.952 778.162 580.522L776.678 580.358L775.944 579.014L776.901 542.093L779.682 482.509L780.245 459.75C780.332 455.682 780.208 451.479 780.757 447.447L782.332 447.631Z"/>
	<path fill="#FCFEFE" transform="scale(0.488281 0.488281)" d="M780.757 447.447L782.332 447.631L778.162 580.522L776.678 580.358L775.944 579.014L776.901 542.093L779.682 482.509L780.245 459.75C780.332 455.682 780.208 451.479 780.757 447.447Z"/>
	<path fill="#FCFEFE" transform="scale(0.488281 0.488281)" d="M838.862 460.8L840.396 461.732L786.711 582.573L785.327 582.31L838.862 460.8Z"/>
	<path fill="#E2CB9D" transform="scale(0.488281 0.488281)" d="M840.396 461.732C867.448 473.723 892.153 495.582 908.027 520.46L916.082 534.412C917.499 537.159 918.659 540.299 920.319 542.875L920.521 544.038C918.273 545.607 915.832 546.425 913.394 547.598L893 557.029L834.75 583.99L801.289 599.126L800.471 596.721C798.614 593.548 797.101 590.364 794.411 587.754C792.236 585.643 789.303 584.112 786.711 582.573L840.396 461.732Z"/>
	<path fill="#FCFEFE" transform="scale(0.488281 0.488281)" d="M920.319 542.875L920.521 544.038C918.273 545.607 915.832 546.425 913.394 547.598L893 557.029L834.75 583.99L801.289 599.126L800.471 596.721C803.405 596.368 806.237 594.792 808.891 593.552L821.227 587.985L890.992 556.104C900.607 551.721 910.292 546.149 920.319 542.875Z"/>
	<path fill="#E2CB9D" transform="scale(0.488281 0.488281)" d="M718.59 459.642L729.266 490.158L732.269 499.158L740.477 520.929C743.021 527.59 745.258 535.342 748.68 541.567L764.738 582.986C768.767 581.499 772.401 580.665 776.678 580.358L778.162 580.522C780.464 580.952 783.232 581.268 785.327 582.31L786.711 582.573C789.303 584.112 792.236 585.643 794.411 587.754C797.101 590.364 798.614 593.548 800.471 596.721L801.289 599.126C802.319 604.682 802.694 610.455 800.644 615.842L799.703 618.216C798.123 620.77 796.544 622.979 794.541 625.221L794.141 625.674L792.034 627.403C790.137 628.572 788.389 629.649 786.273 630.398L786.211 630.374L784.319 631.453L775.962 632.924L773.04 632.793L767.289 631.68L765.213 630.793C760.192 628.167 756.79 624.46 753.625 619.869L734.23 627.346L630.511 666.094L629.471 664.131C629.568 663.305 628.371 660.771 628.055 659.876L624.072 647.548C620.714 635.165 618.483 620.704 619.156 607.834L618.838 605.787C619.869 601.618 619.392 596.416 619.89 592.055C621.29 579.771 623.93 567.637 627.929 555.931C629.083 552.551 630.024 549.017 631.734 545.871L632.098 544.223C640.595 525.861 651.598 509.44 666.076 495.285L667.507 493.633C681.119 480.96 696.26 469 713.457 461.545L715.378 460.461C715.934 460.673 717.924 459.842 718.59 459.642Z"/>
	<path fill="#FCFEFE" transform="scale(0.488281 0.488281)" d="M752.663 618.012L753.625 619.869L734.23 627.346L732.562 626.108L752.663 618.012Z"/>
	<path fill="#FCFEFE" transform="scale(0.488281 0.488281)" d="M629.471 664.131L732.562 626.108L734.23 627.346L630.511 666.094L629.471 664.131Z"/>
	<path fill="#FCFEFE" transform="scale(0.488281 0.488281)" d="M618.838 605.787L749.5 606.051L750.127 606.75L749.75 607.96L619.156 607.834L618.838 605.787Z"/>
	<path fill="#B03437" transform="scale(0.488281 0.488281)" d="M776.678 580.358L778.162 580.522C780.464 580.952 783.232 581.268 785.327 582.31L786.711 582.573C789.303 584.112 792.236 585.643 794.411 587.754C797.101 590.364 798.614 593.548 800.471 596.721L801.289 599.126C802.319 604.682 802.694 610.455 800.644 615.842L799.703 618.216C798.123 620.77 796.544 622.979 794.541 625.221L794.141 625.674L792.034 627.403C790.137 628.572 788.389 629.649 786.273 630.398L786.211 630.374L784.319 631.453L775.962 632.924L773.04 632.793L767.289 631.68L765.213 630.793C760.192 628.167 756.79 624.46 753.625 619.869L752.663 618.012C749.703 610.965 750.247 605.036 751.86 597.747L752.919 595.67C753.821 593.381 755.188 591.448 756.54 589.41L757.901 587.938L762.154 584.532L764.738 582.986C768.767 581.499 772.401 580.665 776.678 580.358Z"/>
	<path fill="#02132A" transform="scale(0.488281 0.488281)" d="M772.946 596.151C774.662 595.938 776.652 595.552 778.347 595.985C781.379 596.758 784.558 598.894 785.971 601.75C787.261 604.358 787.368 605.511 786.533 608.236C785.289 612.294 783.195 614.127 779.533 616.069C777.898 616.569 775.941 616.617 774.25 616.376C771.549 615.991 769.026 614.211 767.608 611.911C766.003 609.309 765.546 606.45 766.363 603.495C767.366 599.863 769.784 597.887 772.946 596.151Z"/>
	<path fill="#E2CB9D" transform="scale(0.488281 0.488281)" d="M632.098 544.223C640.595 525.861 651.598 509.44 666.076 495.285L756.54 589.41C755.188 591.448 753.821 593.381 752.919 595.67L751.86 597.747L737.807 592.328L631.734 545.871L632.098 544.223Z"/>
	<path fill="#FCFEFE" transform="scale(0.488281 0.488281)" d="M632.098 544.223L739.517 590.98C743.59 592.695 748.54 595.003 752.919 595.67L751.86 597.747L737.807 592.328L631.734 545.871L632.098 544.223Z"/>
	<path fill="#E2CB9D" transform="scale(0.488281 0.488281)" d="M718.59 459.642L729.266 490.158L732.269 499.158L740.477 520.929C743.021 527.59 745.258 535.342 748.68 541.567L764.738 582.986L762.154 584.532L757.901 587.938L756.54 589.41L666.076 495.285L667.507 493.633C681.119 480.96 696.26 469 713.457 461.545L715.378 460.461C715.934 460.673 717.924 459.842 718.59 459.642Z"/>
	<path fill="#FCFEFE" transform="scale(0.488281 0.488281)" d="M667.507 493.633L677.524 505.75L720.48 550.25L743.761 574.137C748.368 578.799 752.887 583.716 757.901 587.938L756.54 589.41L666.076 495.285L667.507 493.633Z"/>
	<path fill="#FCFEFE" transform="scale(0.488281 0.488281)" d="M718.59 459.642L729.266 490.158L732.269 499.158L740.477 520.929C743.021 527.59 745.258 535.342 748.68 541.567L764.738 582.986L762.154 584.532L713.457 461.545L715.378 460.461C715.934 460.673 717.924 459.842 718.59 459.642Z"/>
	<path fill="#E2CB9D" transform="scale(0.488281 0.488281)" d="M718.59 459.642L729.266 490.158L732.269 499.158L730.467 498.022C729.419 495.989 727.436 492.841 727.253 490.584C725.675 488.259 724.556 484.815 723.461 482.17L715.378 460.461C715.934 460.673 717.924 459.842 718.59 459.642Z"/>
	<path fill="#E2CB9D" transform="scale(0.488281 0.488281)" d="M801.289 599.126L834.75 583.99L893 557.029L913.394 547.598C915.832 546.425 918.273 545.607 920.521 544.038C928.633 560.707 933.018 582.031 933.643 600.527C933.718 602.771 934.24 605.906 933.518 608.018C934.708 625.453 929.834 644.819 923.682 660.959C922.767 663.36 921.718 666.953 920.221 668.993L919.948 669.59C912.34 687.274 901.112 702.197 887.702 715.825L885.431 717.797C870.206 731.834 854.466 742.394 835.474 750.781L832.871 751.738C816.391 757.661 799.276 761.304 781.782 762.468C779.823 762.598 776.906 763.166 775.016 762.795L775.476 672.66L775.566 648.552C775.588 643.373 775.35 638.073 775.962 632.924L784.319 631.453L786.211 630.374L786.273 630.398C788.389 629.649 790.137 628.572 792.034 627.403L794.141 625.674L794.541 625.221C796.544 622.979 798.123 620.77 799.703 618.216L800.644 615.842C802.694 610.455 802.319 604.682 801.289 599.126Z"/>
	<path fill="#FCFEFE" transform="scale(0.488281 0.488281)" d="M800.644 615.842L806.048 618.306L803.891 619.447L799.703 618.216L800.644 615.842Z"/>
	<path fill="#FCFEFE" transform="scale(0.488281 0.488281)" d="M802.527 608.5C802.629 607.942 802.815 607.443 803 606.908L932.735 606.839L933.518 608.018C930.568 608.369 927.301 608.086 924.317 608.094L909.111 608.273L835.444 608.117C830.421 608.16 805.255 609.616 802.527 608.5Z"/>
	<path fill="#FCFEFE" transform="scale(0.488281 0.488281)" d="M806.048 618.306L888.118 654.105L912.003 664.59C914.246 665.583 919.002 667.005 920.221 668.993L919.948 669.59C915.683 668.63 911.557 666.314 907.534 664.593L879 652.006L803.891 619.447L806.048 618.306Z"/>
	<path fill="#E2CB9D" transform="scale(0.488281 0.488281)" d="M794.141 625.674L794.541 625.221C796.544 622.979 798.123 620.77 799.703 618.216L803.891 619.447L879 652.006L907.534 664.593C911.557 666.314 915.683 668.63 919.948 669.59C912.34 687.274 901.112 702.197 887.702 715.825C884.772 714.038 882.249 711.35 879.798 708.969L869.612 699.232L827.75 659.507L805.321 637.67C801.519 633.842 797.296 630.053 794.141 625.674Z"/>
	<path fill="#E2CB9D" transform="scale(0.488281 0.488281)" d="M794.141 625.674C797.296 630.053 801.519 633.842 805.321 637.67L827.75 659.507L869.612 699.232L879.798 708.969C882.249 711.35 884.772 714.038 887.702 715.825L885.431 717.797C870.206 731.834 854.466 742.394 835.474 750.781L832.871 751.738C816.391 757.661 799.276 761.304 781.782 762.468C779.823 762.598 776.906 763.166 775.016 762.795L775.476 672.66L775.566 648.552C775.588 643.373 775.35 638.073 775.962 632.924L784.319 631.453L786.211 630.374L786.273 630.398C788.389 629.649 790.137 628.572 792.034 627.403L794.141 625.674Z"/>
	<path fill="#FCFEFE" transform="scale(0.488281 0.488281)" d="M794.141 625.674C797.296 630.053 801.519 633.842 805.321 637.67L827.75 659.507L869.612 699.232L879.798 708.969C882.249 711.35 884.772 714.038 887.702 715.825L885.431 717.797C881.464 712.167 875.339 707.419 870.344 702.663L834.972 669.326L808.217 643.283C802.889 637.972 797.983 632.04 792.034 627.403L794.141 625.674Z"/>
	<path fill="#E2CB9D" transform="scale(0.488281 0.488281)" d="M786.211 630.374L816.282 706.132L825.56 728.7C828.178 735.19 830.682 742.149 834.194 748.195L835.474 750.781L832.871 751.738C816.391 757.661 799.276 761.304 781.782 762.468C779.823 762.598 776.906 763.166 775.016 762.795L775.476 672.66L775.566 648.552C775.588 643.373 775.35 638.073 775.962 632.924L784.319 631.453L786.211 630.374Z"/>
	<path fill="#FCFEFE" transform="scale(0.488281 0.488281)" d="M832.068 748.933L834.194 748.195L835.474 750.781L832.871 751.738L832.068 748.933Z"/>
	<path fill="#FCFEFE" transform="scale(0.488281 0.488281)" d="M786.211 630.374L816.282 706.132L825.56 728.7C828.178 735.19 830.682 742.149 834.194 748.195L832.068 748.933L784.319 631.453L786.211 630.374Z"/>
	<path fill="#E2CB9D" transform="scale(0.488281 0.488281)" d="M517.755 599.1C523.36 594.301 528.41 588.584 533.496 583.227L562.957 551.541L603.78 506.69L661.311 445.229C666.579 439.564 688.663 414.178 693.359 412.598L693.675 415.343L694.75 419.117C696.191 419.368 700.424 417.691 701.767 416.903L703.138 420.348L706.146 428.411L706.388 428.613C707.634 432.32 708.684 436.377 710.424 439.876L710.507 441.89L709.67 442.38C700.638 447.579 690.999 451.221 682.114 456.909C644.854 480.758 618.044 517.114 606.052 559.613C593.332 604.694 598.849 652.924 621.922 693.725C635.894 718.431 655.435 738.508 678.503 754.817C671.915 755.426 665 755.016 658.368 755.006L622.524 755.133L452.437 755.8L407.921 757.58C390.648 758.475 373.479 760.023 356.175 759.642C352.56 759.562 348.439 759.998 344.972 759.005C366.116 745.624 385.289 725.877 398.448 704.597C405.357 693.424 410.648 681.584 415.388 669.373L440.178 673.953C441.924 674.233 445.545 674.046 447.018 674.641C448.297 675.157 449.974 676.992 451.259 677.788C456.158 680.821 461.879 682.953 467.534 683.996L468.5 684.169C478.659 686.045 487.31 684.781 497.018 681.61L510.62 711.944L510.799 712.53C511.333 714.354 511.489 715.461 511.195 717.336C512.374 718.245 513.289 718.014 514.736 718.079C515.71 715.845 516.388 713.319 517.047 710.979C516.388 707.799 514.871 704.749 513.662 701.742C510.54 693.983 506.634 686.396 504.069 678.444C506.947 676.693 509.712 674.911 512.257 672.692C522.629 663.646 529.23 650.401 530.095 636.633C530.925 623.414 526.512 609.13 517.755 599.1Z"/>
	<path fill="#30757F" transform="scale(0.488281 0.488281)" d="M517.047 710.979C521.468 710.962 542.858 710.065 545.25 711.302C545.671 711.519 545.955 711.934 546.308 712.25L546.514 718.057L514.736 718.079C515.71 715.845 516.388 713.319 517.047 710.979Z"/>
	<path fill="#438B95" transform="scale(0.488281 0.488281)" d="M546.514 718.057L546.556 727.5C546.474 729.426 546.205 729.689 544.75 730.957C538.995 732.509 530.841 731.505 524.815 731.496C518.104 731.485 511.183 731.892 504.5 731.518C503.331 731.453 501.886 731.055 500.889 730.453C499.175 729.418 497.522 727.499 497.13 725.5C496.623 722.915 496.918 720.209 498.436 718C501.27 713.877 506.042 712.846 510.62 711.944L510.799 712.53C511.333 714.354 511.489 715.461 511.195 717.336C512.374 718.245 513.289 718.014 514.736 718.079L546.514 718.057Z"/>
	<path fill="#B03437" transform="scale(0.488281 0.488281)" d="M710.424 439.876C688.911 449.644 669.531 461.542 652.537 478.14C640.747 489.655 630.072 502.459 621.74 516.732C606.523 542.8 598.292 573.902 597.902 604.032L585.155 608.967C584.846 603.634 585.517 597.82 585.975 592.5C588.065 568.219 594.266 544.743 604.707 522.719C621.972 486.298 653.318 456.594 688.292 437.289C694.038 434.116 699.958 430.623 706.146 428.411L706.388 428.613C707.634 432.32 708.684 436.377 710.424 439.876Z"/>
	<path fill="#062338" transform="scale(0.488281 0.488281)" d="M684.887 324.452L688.75 323.436C690.346 324.983 691.476 328.344 691.988 330.5L691.154 331.12C691.034 332.2 690.988 332.984 691.32 334.04L696.663 348.561L708.011 380.797C710.226 386.98 711.694 394.462 714.861 400.167L715.879 402.269L716.918 402.527L715.937 403.338C716.542 405.529 718.232 409.384 717.016 411.443L716.663 411.958C712.739 411.489 707.2 414.594 703.583 416.266L701.767 416.903C700.424 417.691 696.191 419.368 694.75 419.117L693.675 415.343L693.359 412.598C688.663 414.178 666.579 439.564 661.311 445.229L603.78 506.69L562.957 551.541L533.496 583.227C528.41 588.584 523.36 594.301 517.755 599.1C526.512 609.13 530.925 623.414 530.095 636.633C529.23 650.401 522.629 663.646 512.257 672.692C509.712 674.911 506.947 676.693 504.069 678.444C506.634 686.396 510.54 693.983 513.662 701.742C514.871 704.749 516.388 707.799 517.047 710.979C516.388 713.319 515.71 715.845 514.736 718.079C513.289 718.014 512.374 718.245 511.195 717.336C511.489 715.461 511.333 714.354 510.799 712.53L510.62 711.944L497.018 681.61C487.31 684.781 478.659 686.045 468.5 684.169L467.534 683.996C461.879 682.953 456.158 680.821 451.259 677.788C449.974 676.992 448.297 675.157 447.018 674.641C445.545 674.046 441.924 674.233 440.178 673.953L415.388 669.373C410.648 681.584 405.357 693.424 398.448 704.597C385.289 725.877 366.116 745.624 344.972 759.005C336.331 763.944 327.594 768.823 318.346 772.54C281.713 787.265 238.052 789.779 199.939 779.451C189.13 776.522 178.943 772.141 168.891 767.261C132.888 748.248 104.092 720.853 86.2049 684.023C66.5258 643.504 63.9538 594.32 78.6707 551.743C85.6679 529.942 98.1785 508.607 113.009 491.204C143.021 455.984 187.774 432.903 233.957 429.278L241.55 428.685L270.124 430.256C279.51 431.761 288.765 433.335 297.896 436.051C316.084 441.462 332.342 450.067 348.322 460.123L349.613 458.58C351.199 455.465 353.317 452.733 355.387 449.931L371.843 428.73C376.021 423.605 380.19 418.304 385.121 413.878L385.862 413.219C384.555 406.977 381.857 400.168 379.605 394.155L399.374 389.242L402.036 399.006C406.813 398.855 412.81 396.707 417.603 395.727L462.5 386.517L617.303 355.158L657.497 346.829C660.824 346.146 666.034 346.011 668.929 344.578L666.53 339.058L665.508 339.334C664.14 338.074 663.673 334.307 663.164 332.424L669.22 330.27L684.887 324.452Z"/>
	<path fill="#30757F" transform="scale(0.488281 0.488281)" d="M488.124 614.154L489.055 611.503C491.295 605.582 492.291 599.247 494.309 593.268C497.587 594.992 500.862 596.58 503.637 599.074C502.112 602.746 496.377 607.227 493.455 610.118C492.348 611.213 490.944 613.017 489.55 613.615L488.986 613.788L488.124 614.154Z"/>
	<path fill="#E2CB9D" transform="scale(0.488281 0.488281)" d="M444.003 586.408C446.159 586.482 446.639 586.14 448.192 587.735L446.287 590.102L438.484 599.458C437.938 600.172 436.41 602.734 435.711 603.079L432.258 609.458L432.191 607.788L431.972 589.956L428.656 589.955C427.875 589.274 427.716 588.884 427.293 587.963L427.75 587.029C429.276 586.975 430.8 586.889 432.319 587.083L433.232 587.21L433.859 586.652L444.003 586.408Z"/>
	<path fill="#FBF4B5" transform="scale(0.488281 0.488281)" d="M432.191 607.788C432.635 606.077 432.625 604.261 432.737 602.5L432.999 603.502C434 603.839 433.5 603.84 434.5 603.5L434.997 602.755L435.711 603.079L432.258 609.458L432.191 607.788Z"/>
	<path fill="#02132A" transform="scale(0.488281 0.488281)" d="M444.003 586.408C446.159 586.482 446.639 586.14 448.192 587.735L446.287 590.102L431.972 589.956L428.656 589.955C427.875 589.274 427.716 588.884 427.293 587.963L427.75 587.029C429.276 586.975 430.8 586.889 432.319 587.083L433.232 587.21L433.859 586.652L444.003 586.408Z"/>
	<path fill="#438B95" transform="scale(0.488281 0.488281)" d="M483.808 529.221L501.45 529.451C495.52 533.292 491.117 537.349 484.13 539.32C481.337 540.022 478.327 540.162 475.487 539.664L474.75 539.526C473.881 539.374 473.056 539.257 472.25 538.867C470.256 537.902 467.739 535.945 466.997 533.775C466.542 532.441 466.688 532.19 467.25 531.003C470.686 528.826 479.593 529.427 483.808 529.221Z"/>
	<path fill="#E2CB9D" transform="scale(0.488281 0.488281)" d="M470.27 590.25C475.841 589.714 481.28 589.714 486.803 590.681L480.468 612.49L478.354 618.581L472.291 601.266C471.167 598.296 468.579 593.839 468.49 590.75L470.27 590.25Z"/>
	<path fill="#0B455B" transform="scale(0.488281 0.488281)" d="M503.637 599.074L513.061 608.919C506.311 615.186 500.436 622.512 493.23 628.237L492.841 629.582C492.718 628.444 492.37 627.625 491.863 626.619L491.546 626C490.175 623.237 488.217 621.248 486.119 619.033C486.703 617.336 487.304 615.753 488.124 614.154L488.986 613.788L489.55 613.615C490.944 613.017 492.348 611.213 493.455 610.118C496.377 607.227 502.112 602.746 503.637 599.074Z"/>
	<path fill="#E2CB9D" transform="scale(0.488281 0.488281)" d="M513.061 608.919C517.655 615.599 520.711 624.679 520.57 632.802L501.943 630.966C499.276 630.705 495.223 630.782 492.841 629.582L493.23 628.237C500.436 622.512 506.311 615.186 513.061 608.919Z"/>
	<path fill="#E2CB9D" transform="scale(0.488281 0.488281)" d="M437.176 636.738L465.024 638.609L467.311 643.563L457.144 655.232L450.313 664.932C442.727 657.029 438.657 647.527 437.176 636.738Z"/>
	<path fill="#E2CB9D" transform="scale(0.488281 0.488281)" d="M473.663 647.75L474.307 647.989C476.339 648.784 478.346 648.241 480.454 647.942C482.097 649.042 483.678 654.212 484.533 656.153L492.401 673.273C486.696 674.293 481.523 674.953 475.704 675.057C468.945 674.293 462.983 672.199 456.728 669.665L473.663 647.75Z"/>
	<path fill="#E2CB9D" transform="scale(0.488281 0.488281)" d="M492.45 638.75C495.068 638.142 498.093 638.731 500.75 638.978L519.934 641.239C517.581 649.533 514.658 655.413 509.072 662.039C506.422 664.796 503.777 667.232 500.729 669.542C495.817 662.208 492.4 653.182 488.517 645.226C489.021 644.276 488.751 644.615 489.407 643.937C490.848 642.449 491.522 641.332 492.233 639.376L492.45 638.75Z"/>
	<defs>
		<linearGradient id="gradient_2" gradientUnits="userSpaceOnUse" x1="449.63821" y1="632.41364" x2="462.78256" y2="595.00476">
			<stop offset="0" stop-color="#0E4259"/>
			<stop offset="1" stop-color="#055A6E"/>
		</linearGradient>
	</defs>
	<path fill="url(#gradient_2)" transform="scale(0.488281 0.488281)" d="M455.021 595.746L457.5 593.53L459.123 592.32L469.672 620.822L469.122 621.214C467.738 622.224 466.574 623.108 465.766 624.649C465.281 625.573 463.847 630.75 463.553 630.955C463.395 631.065 463.17 630.931 462.978 630.919L437.824 629.939C438.17 626.146 438.351 621.585 439.597 618.014C443.524 609.008 447.552 602.339 455.021 595.746Z"/>
	<path fill="#E2CB9D" transform="scale(0.488281 0.488281)" d="M455.021 595.746L464.797 621.231L447.077 619.038C444.737 618.737 441.797 618.738 439.597 618.014C443.524 609.008 447.552 602.339 455.021 595.746Z"/>
	<path fill="#E2CB9D" transform="scale(0.488281 0.488281)" d="M279.82 618.743L331.506 623.953L398.677 632.191L416.5 634.499C419.113 634.839 422.613 634.868 425.002 635.967L425.97 636.25L427.25 635.868C428.369 638.403 428.231 641.984 428.756 644.766C430.624 654.665 436.069 664.863 443.557 671.622L416.111 666.856L423.291 640.459L401.261 636.331C399.533 645.606 397.138 654.306 393.991 663.207L346.479 652.973C344.627 652.584 336.833 651.678 335.621 650.637C332.111 650.277 328.526 649.213 325.13 648.276L283.284 639.654L279.126 638.703C277.522 636.302 273.519 633.743 271.296 631.63C274.01 628.851 276.427 626.157 278.513 622.865L280.042 619.566L279.82 618.743Z"/>
	<path fill="#FCFEFE" transform="scale(0.488281 0.488281)" d="M280.042 619.566C283.762 623.854 289.064 625.012 293.635 628.049L291.944 629.252C287.585 627.019 283.218 624.273 278.513 622.865L280.042 619.566Z"/>
	<path fill="#FCFEFE" transform="scale(0.488281 0.488281)" d="M291.944 629.252L293.635 628.049L324.926 645.13C328.238 646.904 332.922 648.113 335.621 650.637C332.111 650.277 328.526 649.213 325.13 648.276C323.889 646.156 321.32 645.426 319.265 644.172L291.944 629.252Z"/>
	<path fill="#E2CB9D" transform="scale(0.488281 0.488281)" d="M271.296 631.63C274.01 628.851 276.427 626.157 278.513 622.865C283.218 624.273 287.585 627.019 291.944 629.252L319.265 644.172C321.32 645.426 323.889 646.156 325.13 648.276L283.284 639.654L279.126 638.703C277.522 636.302 273.519 633.743 271.296 631.63Z"/>
	<path fill="#438B95" transform="scale(0.488281 0.488281)" d="M241.232 578.686L241.348 578.567C245.26 577.26 248.915 577.416 252.985 577.475L254.306 577.773L258.657 578.695L268.881 583.786C269.803 584.34 271.612 585.725 272.597 585.907C273.776 586.841 275.141 587.694 275.943 588.97L279.729 596.169L280.79 599.616L281.776 603.555L282.081 607.437L281.856 608.946C290.187 610.119 298.621 610.392 307.013 610.896L340.31 613.182L378.667 615.955C387.004 616.607 396.19 618.043 404.512 617.422C405.267 617.121 407.245 617.371 408.13 617.382L420.425 617.432C421.33 617.422 423.267 617.678 424 617.389C424.433 617.219 424.718 616.798 425.077 616.503L425.369 615C426.36 611.354 425.37 607.446 425.898 603.75C426.141 602.047 426.706 599.983 426.078 598.25C425.371 596.298 425.726 592.778 425.455 590.558L426.582 589.92L428.656 589.955L431.972 589.956L432.191 607.788L432.258 609.458C431.255 612.089 429.842 615.1 429.494 617.903C429.078 620.178 428.128 631.226 426.898 632.212C425.787 633.104 425.435 634.667 425.002 635.967C422.613 634.868 419.113 634.839 416.5 634.499L398.677 632.191L331.506 623.953L279.82 618.743L280.042 619.566L278.513 622.865C276.427 626.157 274.01 628.851 271.296 631.63C269.409 633.096 267.574 634.462 265.489 635.648C263.985 636.079 262.784 636.471 261.472 637.333L260.471 637.936C256.648 638.912 253.02 639.566 249.095 639.971C248.059 639.569 246.374 639.612 245.241 639.454C242.88 639.124 240.562 638.608 238.235 638.098L236.468 637.041C235.981 637.046 235.775 637.078 235.256 636.908C228.114 634.579 223.247 628.047 219.604 621.926L219.195 620.16C217.463 617.132 217.296 612.364 216.901 608.962L217.324 607.397C216.864 604.408 218.035 600.843 218.828 597.994L219.932 596.195C221.165 593.036 223.644 590.329 225.89 587.854L228.068 585.816C231.456 583.187 234.956 581.254 238.737 579.259L241.232 578.686Z"/>
	<path fill="#B03437" transform="scale(0.488281 0.488281)" d="M426.582 589.92L428.656 589.955L431.972 589.956L432.191 607.788L432.258 609.458C431.255 612.089 429.842 615.1 429.494 617.903C428.209 617.653 427.299 617.751 426.398 616.75L426.832 612.497C427.323 607.941 428.256 593.647 426.582 589.92Z"/>
	<path fill="#02132A" transform="scale(0.488281 0.488281)" d="M245.27 599.595C247.219 599.529 249.397 599.339 251.25 600.072C253.863 601.107 256.671 603.337 257.75 605.995C258.55 607.965 258.352 611.057 257.544 613C256.11 616.45 254.051 617.404 250.808 618.78C248.477 619.037 246.06 619.379 243.867 618.347C241.055 617.023 238.919 614.675 238.056 611.665C237.38 609.307 237.581 606.636 238.797 604.484C240.307 601.813 242.385 600.429 245.27 599.595Z"/>
	<path fill="#E35C51" transform="scale(0.488281 0.488281)" d="M241.232 578.686L241.348 578.567C245.26 577.26 248.915 577.416 252.985 577.475L254.306 577.773L258.657 578.695L268.881 583.786C269.803 584.34 271.612 585.725 272.597 585.907C273.776 586.841 275.141 587.694 275.943 588.97L279.729 596.169L280.79 599.616L281.776 603.555L282.081 607.437L281.856 608.946L276.46 608.537C271.438 608.123 264.994 608.292 260.26 606.816C257.723 602.401 255.21 599.3 250.099 597.772C246.93 596.825 243.153 597.762 240.633 599.75C240.171 600.114 240.044 600.326 239.725 600.75L240.245 601.25L237.498 603.828L236.715 604.5C236.556 605 236.232 605.475 236.238 606C236.24 606.206 236.772 607.103 236.745 607.25C236.724 607.366 235.79 608.592 235.739 608.75C235.252 610.254 236.433 613.207 237.118 614.524C238.482 617.148 241.034 619.346 243.893 620.19L245 620.447L245.609 620.597C249.374 621.441 252.767 620.295 255.879 618.219L257.741 616.927L273.513 618.103C275.572 618.288 277.806 618.312 279.82 618.743L280.042 619.566L278.513 622.865C276.427 626.157 274.01 628.851 271.296 631.63C269.409 633.096 267.574 634.462 265.489 635.648C263.985 636.079 262.784 636.471 261.472 637.333L260.471 637.936C256.648 638.912 253.02 639.566 249.095 639.971C248.059 639.569 246.374 639.612 245.241 639.454C242.88 639.124 240.562 638.608 238.235 638.098L236.468 637.041C235.981 637.046 235.775 637.078 235.256 636.908C228.114 634.579 223.247 628.047 219.604 621.926L219.195 620.16C217.463 617.132 217.296 612.364 216.901 608.962L217.324 607.397C216.864 604.408 218.035 600.843 218.828 597.994L219.932 596.195C221.165 593.036 223.644 590.329 225.89 587.854L228.068 585.816C231.456 583.187 234.956 581.254 238.737 579.259L241.232 578.686Z"/>
	<path fill="#B03437" transform="scale(0.488281 0.488281)" d="M241.232 578.686L241.348 578.567C245.26 577.26 248.915 577.416 252.985 577.475L254.306 577.773L258.657 578.695L268.881 583.786C269.803 584.34 271.612 585.725 272.597 585.907C273.776 586.841 275.141 587.694 275.943 588.97L279.729 596.169L280.79 599.616L281.776 603.555L282.081 607.437L281.856 608.946L276.46 608.537C276.439 604.665 275.89 601.907 274.564 598.245C272.37 592.186 265.686 587.069 260 584.56C253.95 581.89 246.469 581.506 240.25 583.941C233.347 586.643 227.408 592.179 224.46 599L223.476 601.75L223.275 602.344C221.273 608.55 222.093 615.567 225.17 621.249C228.105 626.668 233.622 630.862 239.516 632.535C246.528 634.525 256.892 634.254 263.25 630.495C267.135 628.198 272.259 622.458 273.513 618.103C275.572 618.288 277.806 618.312 279.82 618.743L280.042 619.566L278.513 622.865C276.427 626.157 274.01 628.851 271.296 631.63C269.409 633.096 267.574 634.462 265.489 635.648C263.985 636.079 262.784 636.471 261.472 637.333L260.471 637.936C256.648 638.912 253.02 639.566 249.095 639.971C248.059 639.569 246.374 639.612 245.241 639.454C242.88 639.124 240.562 638.608 238.235 638.098L236.468 637.041C235.981 637.046 235.775 637.078 235.256 636.908C228.114 634.579 223.247 628.047 219.604 621.926L219.195 620.16C217.463 617.132 217.296 612.364 216.901 608.962L217.324 607.397C216.864 604.408 218.035 600.843 218.828 597.994L219.932 596.195C221.165 593.036 223.644 590.329 225.89 587.854L228.068 585.816C231.456 583.187 234.956 581.254 238.737 579.259L241.232 578.686Z"/>
	<path fill="#E2CB9D" transform="scale(0.488281 0.488281)" d="M196.204 459.139C212.108 453.69 228.161 450.245 245.032 449.88C248.235 449.81 251.826 449.426 254.982 449.996C255.686 460.453 255.046 471.248 255.026 481.75L254.964 542.971L254.766 569.734C254.756 571.779 255.333 574.863 254.966 576.739C254.888 577.14 254.526 577.428 254.306 577.773L252.985 577.475C248.915 577.416 245.26 577.26 241.348 578.567L241.232 578.686L238.737 579.259C234.956 581.254 231.456 583.187 228.068 585.816C225.316 583.844 223.467 581.175 221.262 578.657L210.01 565.695L154.875 503.138C151.754 499.757 147.504 493.361 143.46 491.352C145.695 488.899 148.747 486.769 151.335 484.675C164.074 474.366 179.107 464.742 194.831 459.775L196.204 459.139Z"/>
	<path fill="#FCFEFE" transform="scale(0.488281 0.488281)" d="M239.203 574.533C239.838 575.942 240.413 577.373 241.232 578.686L238.737 579.259C238.5 577.836 237.939 576.32 237.544 574.924L239.203 574.533Z"/>
	<path fill="#FCFEFE" transform="scale(0.488281 0.488281)" d="M254.982 449.996C255.686 460.453 255.046 471.248 255.026 481.75L254.964 542.971L254.766 569.734C254.756 571.779 255.333 574.863 254.966 576.739C254.888 577.14 254.526 577.428 254.306 577.773L252.985 577.475L253.669 450.576L254.982 449.996Z"/>
	<path fill="#FCFEFE" transform="scale(0.488281 0.488281)" d="M194.831 459.775L196.204 459.139C200.657 467.551 203.441 477.682 206.909 486.592L239.203 574.533L237.544 574.924L194.831 459.775Z"/>
	<path fill="#E2CB9D" transform="scale(0.488281 0.488281)" d="M194.831 459.775L237.544 574.924C237.939 576.32 238.5 577.836 238.737 579.259C234.956 581.254 231.456 583.187 228.068 585.816C225.316 583.844 223.467 581.175 221.262 578.657L210.01 565.695L154.875 503.138C151.754 499.757 147.504 493.361 143.46 491.352C145.695 488.899 148.747 486.769 151.335 484.675C164.074 474.366 179.107 464.742 194.831 459.775Z"/>
	<path fill="#E2CB9D" transform="scale(0.488281 0.488281)" d="M271.296 631.63C273.519 633.743 277.522 636.302 279.126 638.703L283.284 639.654L282.375 640.125L281.248 640.253L282.161 641.299L281.893 641.69L282.314 641.825L393.083 665.688C375.381 704.134 346.006 738.371 304.944 752.393L304.567 752.501L303.013 753.415L289.302 757.754C276.451 761.201 262.425 763.143 249.108 762.933C250.301 760.488 249.658 755.038 249.649 752.229L249.575 725.25L249.602 662.743L249.5 648.456C249.475 645.653 249.69 642.716 249.095 639.971C253.02 639.566 256.648 638.912 260.471 637.936L261.472 637.333C262.784 636.471 263.985 636.079 265.489 635.648C267.574 634.462 269.409 633.096 271.296 631.63Z"/>
	<path fill="#02132A" transform="scale(0.488281 0.488281)" d="M261.472 637.333C262.784 636.471 263.985 636.079 265.489 635.648L273.043 637.655C272.6 638.56 272.359 639.143 271.612 639.84L263.133 638.018L261.472 637.333Z"/>
	<path fill="#02132A" transform="scale(0.488281 0.488281)" d="M273.043 637.655C275.048 638.059 277.083 638.569 279.126 638.703L283.284 639.654L282.375 640.125L281.248 640.253L282.161 641.299L281.893 641.69C278.451 641.407 274.995 640.524 271.612 639.84C272.359 639.143 272.6 638.56 273.043 637.655Z"/>
	<path fill="#FCFEFE" transform="scale(0.488281 0.488281)" d="M271.296 631.63C273.519 633.743 277.522 636.302 279.126 638.703C277.083 638.569 275.048 638.059 273.043 637.655L265.489 635.648C267.574 634.462 269.409 633.096 271.296 631.63Z"/>
	<path fill="#FCFEFE" transform="scale(0.488281 0.488281)" d="M261.472 637.333L263.133 638.018L304.567 752.501L303.013 753.415C302.591 750.409 301.312 747.678 300.358 744.819L293.25 724.523L271.081 664.948C267.608 655.964 264.577 646.643 260.471 637.936L261.472 637.333Z"/>
	<path fill="#E2CB9D" transform="scale(0.488281 0.488281)" d="M249.095 639.971C253.02 639.566 256.648 638.912 260.471 637.936C264.577 646.643 267.608 655.964 271.081 664.948L293.25 724.523L300.358 744.819C301.312 747.678 302.591 750.409 303.013 753.415L289.302 757.754C276.451 761.201 262.425 763.143 249.108 762.933C250.301 760.488 249.658 755.038 249.649 752.229L249.575 725.25L249.602 662.743L249.5 648.456C249.475 645.653 249.69 642.716 249.095 639.971Z"/>
	<path fill="#E2CB9D" transform="scale(0.488281 0.488281)" d="M219.604 621.926C223.247 628.047 228.114 634.579 235.256 636.908C235.775 637.078 235.981 637.046 236.468 637.041L238.235 638.098C240.562 638.608 242.88 639.124 245.241 639.454C246.374 639.612 248.059 639.569 249.095 639.971C249.69 642.716 249.475 645.653 249.5 648.456L249.602 662.743L249.575 725.25L249.649 752.229C249.658 755.038 250.301 760.488 249.108 762.933L248.265 762.93C234.466 763.407 219.27 760.489 205.956 756.935C200.762 755.549 195.228 754.115 190.389 751.756L188.693 751.408C182.178 748.075 175.565 745.335 169.225 741.58C140.568 724.61 117.64 699.658 104.182 669.081C106.795 668.772 110.152 667.143 112.623 666.124L126.112 660.75L189.011 635.225C199.182 630.899 209.183 625.564 219.604 621.926Z"/>
	<path fill="#FCFEFE" transform="scale(0.488281 0.488281)" d="M236.468 637.041L238.235 638.098L198.917 729.883L192.733 744.921C191.957 746.968 191.587 750.019 190.389 751.756L188.693 751.408C189.456 747.665 191.39 743.655 192.806 740.071L204.86 711.717L227.76 658.06C230.606 651.369 234.75 644.023 236.468 637.041Z"/>
	<path fill="#E2CB9D" transform="scale(0.488281 0.488281)" d="M238.235 638.098C240.562 638.608 242.88 639.124 245.241 639.454C246.374 639.612 248.059 639.569 249.095 639.971C249.69 642.716 249.475 645.653 249.5 648.456L249.602 662.743L249.575 725.25L249.649 752.229C249.658 755.038 250.301 760.488 249.108 762.933L248.265 762.93C234.466 763.407 219.27 760.489 205.956 756.935C200.762 755.549 195.228 754.115 190.389 751.756C191.587 750.019 191.957 746.968 192.733 744.921L198.917 729.883L238.235 638.098Z"/>
	<path fill="#FCFEFE" transform="scale(0.488281 0.488281)" d="M249.095 639.971C249.69 642.716 249.475 645.653 249.5 648.456L249.602 662.743L249.575 725.25L249.649 752.229C249.658 755.038 250.301 760.488 249.108 762.933L248.265 762.93C247.442 760.106 247.878 756.586 247.875 753.638L247.864 734.12L247.578 674.802L247.307 653.375C247.214 649.113 246.725 644.467 247.222 640.25L249.095 639.971Z"/>
	<path fill="#E2CB9D" transform="scale(0.488281 0.488281)" d="M143.46 491.352C147.504 493.361 151.754 499.757 154.875 503.138L210.01 565.695L221.262 578.657C223.467 581.175 225.316 583.844 228.068 585.816L225.89 587.854C223.644 590.329 221.165 593.036 219.932 596.195L218.828 597.994C218.035 600.843 216.864 604.408 217.324 607.397L216.901 608.962C217.296 612.364 217.463 617.132 219.195 620.16L219.604 621.926C209.183 625.564 199.182 630.899 189.011 635.225L126.112 660.75L112.623 666.124C110.152 667.143 106.795 668.772 104.182 669.081L103.852 668.316C101.628 664.079 100.165 659.159 98.7404 654.594C94.0957 639.71 91.3647 623.674 91.5576 608.07L91.3346 606.702C91.9213 590.293 94.0977 574.279 99.4443 558.703C100.888 554.497 102.303 550.084 104.383 546.146L104.588 545.445C112.026 524.93 126.614 506.686 142.532 492.08L143.46 491.352Z"/>
	<path fill="#FCFEFE" transform="scale(0.488281 0.488281)" d="M143.46 491.352C147.504 493.361 151.754 499.757 154.875 503.138L210.01 565.695L221.262 578.657C223.467 581.175 225.316 583.844 228.068 585.816L225.89 587.854L142.532 492.08L143.46 491.352Z"/>
	<path fill="#FCFEFE" transform="scale(0.488281 0.488281)" d="M104.588 545.445C109.008 546.05 113.869 549.291 117.954 551.172L137.616 559.844L196.637 585.492C204.287 588.933 212.597 592.182 219.932 596.195L218.828 597.994L105.564 547.531C104.785 547.222 104.784 546.855 104.383 546.146L104.588 545.445Z"/>
	<path fill="#E2CB9D" transform="scale(0.488281 0.488281)" d="M104.383 546.146C104.784 546.855 104.785 547.222 105.564 547.531L218.828 597.994C218.035 600.843 216.864 604.408 217.324 607.397L216.901 608.962L91.5576 608.07L91.3346 606.702C91.9213 590.293 94.0977 574.279 99.4443 558.703C100.888 554.497 102.303 550.084 104.383 546.146Z"/>
	<path fill="#FCFEFE" transform="scale(0.488281 0.488281)" d="M91.3346 606.702L217.324 607.397L216.901 608.962L91.5576 608.07L91.3346 606.702Z"/>
	<path fill="#E2CB9D" transform="scale(0.488281 0.488281)" d="M91.5576 608.07L216.901 608.962C217.296 612.364 217.463 617.132 219.195 620.16L219.604 621.926C209.183 625.564 199.182 630.899 189.011 635.225L126.112 660.75L112.623 666.124C110.152 667.143 106.795 668.772 104.182 669.081L103.852 668.316C101.628 664.079 100.165 659.159 98.7404 654.594C94.0957 639.71 91.3647 623.674 91.5576 608.07Z"/>
	<path fill="#FCFEFE" transform="scale(0.488281 0.488281)" d="M219.195 620.16L219.604 621.926C209.183 625.564 199.182 630.899 189.011 635.225L126.112 660.75L112.623 666.124C110.152 667.143 106.795 668.772 104.182 669.081L103.852 668.316C104.715 666.603 108.862 665.755 110.8 665.037L124.228 659.519L177.406 638.068L219.195 620.16Z"/>
	<path fill="#30757F" transform="scale(0.488281 0.488281)" d="M684.887 324.452L688.75 323.436C690.346 324.983 691.476 328.344 691.988 330.5L691.154 331.12C691.034 332.2 690.988 332.984 691.32 334.04L696.663 348.561L708.011 380.797C710.226 386.98 711.694 394.462 714.861 400.167L715.879 402.269L716.918 402.527L715.937 403.338C716.542 405.529 718.232 409.384 717.016 411.443L716.663 411.958C712.739 411.489 707.2 414.594 703.583 416.266L701.767 416.903C700.424 417.691 696.191 419.368 694.75 419.117L693.675 415.343L693.359 412.598C688.663 414.178 666.579 439.564 661.311 445.229L603.78 506.69L562.957 551.541L533.496 583.227C528.41 588.584 523.36 594.301 517.755 599.1C512.6 593.483 506.168 588.185 499.453 584.584L494.074 582.542C495.318 572.599 495.306 560.958 488.539 552.93C486.393 550.383 483.182 548.935 481.25 546.275C483.025 543.257 487.015 542.983 489.923 541.591C492.263 540.47 494.54 539.084 496.803 537.808C498.998 535.728 501.848 533.126 504.719 532.072L505.25 531.89C511.065 529.836 515.466 530.34 521.491 530.527C519.588 527.669 515.073 527.197 511.869 526.548C498.762 523.897 484.723 523.27 471.474 525.158C469.196 525.483 465.432 525.851 463.551 527.231C462.744 527.824 462.412 528.376 461.981 529.25C461.696 532.676 462.162 535.999 464.434 538.727C467.806 542.776 472.292 542.208 476.202 544.758C476.993 545.274 476.646 546.95 477.053 547.75C477.291 548.217 478.05 548.808 478.44 549.205C480.545 551.345 483.059 553.038 485.156 555.174C489.969 560.073 490.296 567.947 489.95 574.4L489.079 581.262C480.846 579.222 471.56 578.624 463.343 581.221C458.194 582.784 452.917 584.865 448.415 587.844L448.192 587.735C446.639 586.14 446.159 586.482 444.003 586.408L433.859 586.652L433.232 587.21L432.319 587.083C430.8 586.889 429.276 586.975 427.75 587.029L427.293 587.963C427.716 588.884 427.875 589.274 428.656 589.955L426.582 589.92L425.455 590.558C425.726 592.778 425.371 596.298 426.078 598.25C426.706 599.983 426.141 602.047 425.898 603.75C425.37 607.446 426.36 611.354 425.369 615L425.077 616.503C424.718 616.798 424.433 617.219 424 617.389C423.267 617.678 421.33 617.422 420.425 617.432L408.13 617.382C407.245 617.371 405.267 617.121 404.512 617.422C396.19 618.043 387.004 616.607 378.667 615.955L340.31 613.182L307.013 610.896C298.621 610.392 290.187 610.119 281.856 608.946L282.081 607.437L281.776 603.555L280.79 599.616L279.729 596.169L275.943 588.97C275.141 587.694 273.776 586.841 272.597 585.907C271.612 585.725 269.803 584.34 268.881 583.786L258.657 578.695L254.306 577.773C254.526 577.428 254.888 577.14 254.966 576.739C255.333 574.863 254.756 571.779 254.766 569.734L254.964 542.971L255.026 481.75C255.046 471.248 255.686 460.453 254.982 449.996C275.267 449.349 296.949 456.454 315.428 464.152L317.206 465.171C323.576 468.089 329.812 471.552 335.51 475.639L348.322 460.123L349.613 458.58C351.199 455.465 353.317 452.733 355.387 449.931L371.843 428.73C376.021 423.605 380.19 418.304 385.121 413.878L385.862 413.219C384.555 406.977 381.857 400.168 379.605 394.155L399.374 389.242L402.036 399.006C406.813 398.855 412.81 396.707 417.603 395.727L462.5 386.517L617.303 355.158L657.497 346.829C660.824 346.146 666.034 346.011 668.929 344.578L666.53 339.058L665.508 339.334C664.14 338.074 663.673 334.307 663.164 332.424L669.22 330.27L684.887 324.452Z"/>
	<path fill="#062338" transform="scale(0.488281 0.488281)" d="M693.675 415.343L694.172 412.669L708.005 407.25C709.388 406.713 712.112 406.23 713.25 405.446C714.374 404.673 714.382 404.031 715.937 403.338C716.542 405.529 718.232 409.384 717.016 411.443L716.663 411.958C712.739 411.489 707.2 414.594 703.583 416.266L701.767 416.903C700.424 417.691 696.191 419.368 694.75 419.117L693.675 415.343Z"/>
	<path fill="#062338" transform="scale(0.488281 0.488281)" d="M684.887 324.452L688.75 323.436C690.346 324.983 691.476 328.344 691.988 330.5L691.154 331.12L666.53 339.058L665.508 339.334C664.14 338.074 663.673 334.307 663.164 332.424L669.22 330.27L684.887 324.452Z"/>
	<path fill="#E2CB9D" transform="scale(0.488281 0.488281)" d="M364.283 456.829L379.457 437.955L386.089 429.043C387.176 427.564 388.21 425.731 389.671 424.615L401.754 461.464L433.977 556.512L441.343 579.495C442.006 581.433 442.827 584.797 444.003 586.408L433.859 586.652L431.874 586.581L426.944 586.406L426.009 586.761C424.629 585.922 424.331 580.348 424.047 578.544C422.375 567.902 419.508 557.629 415.94 547.481C406.732 521.293 390.699 496.912 370.547 477.824C366.219 473.726 361.385 470.167 356.794 466.369L357.425 465.117C359.993 463.428 362.484 459.332 364.283 456.829Z"/>
	<path fill="#B03437" transform="scale(0.488281 0.488281)" d="M364.283 456.829C402.446 484.017 422.628 524.327 430.135 569.946L431.874 586.581L426.944 586.406L426.009 586.761C424.629 585.922 424.331 580.348 424.047 578.544C422.375 567.902 419.508 557.629 415.94 547.481C406.732 521.293 390.699 496.912 370.547 477.824C366.219 473.726 361.385 470.167 356.794 466.369L357.425 465.117C359.993 463.428 362.484 459.332 364.283 456.829Z"/>
	<path fill="#FCFEFE" transform="scale(0.488281 0.488281)" d="M356.794 466.369L357.425 465.117C395.875 492.543 418.658 536.271 426.395 582.167C426.626 583.539 426.599 585.089 426.944 586.406L426.009 586.761C424.629 585.922 424.331 580.348 424.047 578.544C422.375 567.902 419.508 557.629 415.94 547.481C406.732 521.293 390.699 496.912 370.547 477.824C366.219 473.726 361.385 470.167 356.794 466.369Z"/>
	<path fill="#E2CB9D" transform="scale(0.488281 0.488281)" d="M254.982 449.996C275.267 449.349 296.949 456.454 315.428 464.152L317.206 465.171C323.576 468.089 329.812 471.552 335.51 475.639L286.242 540.398L280.038 548.924L258.657 578.695L254.306 577.773C254.526 577.428 254.888 577.14 254.966 576.739C255.333 574.863 254.756 571.779 254.766 569.734L254.964 542.971L255.026 481.75C255.046 471.248 255.686 460.453 254.982 449.996Z"/>
	<path fill="#FCFEFE" transform="scale(0.488281 0.488281)" d="M315.428 464.152L317.206 465.171C312.059 473.557 309.206 483.886 305.446 493L290.971 527.651C289.389 531.52 286.479 536.255 286.242 540.398L280.038 548.924C279.878 547.123 280.93 545.573 281.657 543.984L287.348 531.397L315.428 464.152Z"/>
	<path fill="#E2CB9D" transform="scale(0.488281 0.488281)" d="M317.206 465.171C323.576 468.089 329.812 471.552 335.51 475.639L286.242 540.398C286.479 536.255 289.389 531.52 290.971 527.651L305.446 493C309.206 483.886 312.059 473.557 317.206 465.171Z"/>
	<path fill="#E2CB9D" transform="scale(0.488281 0.488281)" d="M356.794 466.369C361.385 470.167 366.219 473.726 370.547 477.824C390.699 496.912 406.732 521.293 415.94 547.481C419.508 557.629 422.375 567.902 424.047 578.544C424.331 580.348 424.629 585.922 426.009 586.761L426.944 586.406L431.874 586.581L433.859 586.652L433.232 587.21L432.319 587.083C430.8 586.889 429.276 586.975 427.75 587.029L427.293 587.963C427.716 588.884 427.875 589.274 428.656 589.955L426.582 589.92L425.455 590.558C425.726 592.778 425.371 596.298 426.078 598.25C426.706 599.983 426.141 602.047 425.898 603.75C425.37 607.446 426.36 611.354 425.369 615L425.077 616.503C424.718 616.798 424.433 617.219 424 617.389C423.267 617.678 421.33 617.422 420.425 617.432L408.13 617.382C407.245 617.371 405.267 617.121 404.512 617.422C396.19 618.043 387.004 616.607 378.667 615.955L340.31 613.182L307.013 610.896C298.621 610.392 290.187 610.119 281.856 608.946L282.081 607.437L281.776 603.555L280.79 599.616L279.729 596.169L275.943 588.97C275.141 587.694 273.776 586.841 272.597 585.907C271.612 585.725 269.803 584.34 268.881 583.786L283.775 563.133L325.683 507.681L337.871 491.034C340.126 487.92 342.344 484.24 345.159 481.63C345.734 478.66 354.27 468.565 356.794 466.369Z"/>
	<path fill="#FCFEFE" transform="scale(0.488281 0.488281)" d="M396.216 554.294L377.518 561.128L335.472 577.828C330.369 580.07 324.848 581.948 320.081 584.842C318.376 585.877 314.128 585.442 312.006 585.476C323.712 581.562 334.94 576.028 346.35 571.319L380.992 558.14C385.886 556.369 390.881 554.052 395.884 552.706L396.216 554.294Z"/>
	<path fill="#FCFEFE" transform="scale(0.488281 0.488281)" d="M369.641 506.32C365.458 509.137 361.879 513.305 358.163 516.726L335.028 537.581L293.633 572.639L283.153 581.772C282.039 582.77 280.629 583.635 279.671 584.741L279.263 585.25C278.099 585.554 277.278 585.478 276.099 585.365L276.165 584.75L345.455 526.013L362.5 510.532C363.761 509.362 366.037 506.473 367.414 505.876C367.889 505.67 368.425 505.658 368.93 505.549L369.641 506.32Z"/>
	<path fill="#062338" transform="scale(0.488281 0.488281)" d="M356.794 466.369C361.385 470.167 366.219 473.726 370.547 477.824C390.699 496.912 406.732 521.293 415.94 547.481C419.508 557.629 422.375 567.902 424.047 578.544C424.331 580.348 424.629 585.922 426.009 586.761L426.944 586.406L431.874 586.581L433.859 586.652L433.232 587.21L432.319 587.083C430.8 586.889 429.276 586.975 427.75 587.029L427.293 587.963C427.716 588.884 427.875 589.274 428.656 589.955L426.582 589.92L425.455 590.558C425.726 592.778 425.371 596.298 426.078 598.25C426.706 599.983 426.141 602.047 425.898 603.75C425.37 607.446 426.36 611.354 425.369 615L425.077 616.503C424.718 616.798 424.433 617.219 424 617.389C423.267 617.678 421.33 617.422 420.425 617.432L408.13 617.382C407.245 617.371 405.267 617.121 404.512 617.422C396.19 618.043 387.004 616.607 378.667 615.955L340.31 613.182L307.013 610.896C298.621 610.392 290.187 610.119 281.856 608.946L282.081 607.437L281.776 603.555L280.79 599.616L279.729 596.169L275.943 588.97C275.141 587.694 273.776 586.841 272.597 585.907C275.759 585.501 279.566 585.854 282.794 585.815L313.75 585.914L404.051 586.46L396.216 554.294L395.884 552.706C394.152 549.292 393.096 545.425 391.513 541.903C385.874 529.353 378.757 516.658 369.641 506.32L368.93 505.549C367.55 503.263 365.057 501.011 363.224 499.017C357.549 492.846 351.499 487.11 345.159 481.63C345.734 478.66 354.27 468.565 356.794 466.369Z"/>
	<path fill="#E2CB9D" transform="scale(0.488281 0.488281)" d="M275.943 588.97L306.125 589.006C303.523 592.287 298.658 594.42 294.976 596.337C293.882 596.906 292.204 598.009 291 598.02C289.627 598.032 288.346 597.221 287 597.026C284.548 596.67 282.2 596.677 279.729 596.169L275.943 588.97Z"/>
	<path fill="#E2CB9D" transform="scale(0.488281 0.488281)" d="M310.69 589.03L404.442 589.512L404.88 597.002C405.458 603.667 404.989 610.749 404.512 617.422C396.19 618.043 387.004 616.607 378.667 615.955L340.31 613.182L307.013 610.896C298.621 610.392 290.187 610.119 281.856 608.946L282.081 607.437L281.776 603.555L280.79 599.616L279.729 596.169C282.2 596.677 284.548 596.67 287 597.026C288.346 597.221 289.627 598.032 291 598.02C292.204 598.009 293.882 596.906 294.976 596.337C298.658 594.42 303.523 592.287 306.125 589.006L310.69 589.03Z"/>
	<path fill="#FCFEFE" transform="scale(0.488281 0.488281)" d="M306.125 589.006L310.69 589.03C306.322 592.37 300.598 595.108 295.692 597.669C293.571 598.776 290.413 599.744 289.205 601.855C290.94 602.848 296.958 601.995 299.305 601.976L342.888 600.497L402.771 595.784C403.764 595.751 403.624 595.578 404.438 596.25L404.25 597.273L380.42 598.69L329.966 602.951C318.461 603.62 306.619 603.09 295.196 604.302C291.046 604.743 286.055 605.301 282.418 607.317L282.081 607.437L281.776 603.555L280.79 599.616L279.729 596.169C282.2 596.677 284.548 596.67 287 597.026C288.346 597.221 289.627 598.032 291 598.02C292.204 598.009 293.882 596.906 294.976 596.337C298.658 594.42 303.523 592.287 306.125 589.006Z"/>
	<path fill="#FBF4B5" transform="scale(0.488281 0.488281)" d="M280.79 599.616L286.75 599.482C287.66 600.675 287.508 600.729 287.381 602.25C285.624 603.207 283.768 603.499 281.776 603.555L280.79 599.616Z"/>
	<path fill="#E2CB9D" transform="scale(0.488281 0.488281)" d="M463.343 581.221L409.398 420.394L468.323 407.992L587.636 384.364L655.1 370.162L669.108 367.315C671.343 366.862 673.913 365.991 676.181 366.068L683.599 388.727L499.453 584.584L494.074 582.542C495.318 572.599 495.306 560.958 488.539 552.93C486.393 550.383 483.182 548.935 481.25 546.275C483.025 543.257 487.015 542.983 489.923 541.591C492.263 540.47 494.54 539.084 496.803 537.808C498.998 535.728 501.848 533.126 504.719 532.072L505.25 531.89C511.065 529.836 515.466 530.34 521.491 530.527C519.588 527.669 515.073 527.197 511.869 526.548C498.762 523.897 484.723 523.27 471.474 525.158C469.196 525.483 465.432 525.851 463.551 527.231C462.744 527.824 462.412 528.376 461.981 529.25C461.696 532.676 462.162 535.999 464.434 538.727C467.806 542.776 472.292 542.208 476.202 544.758C476.993 545.274 476.646 546.95 477.053 547.75C477.291 548.217 478.05 548.808 478.44 549.205C480.545 551.345 483.059 553.038 485.156 555.174C489.969 560.073 490.296 567.947 489.95 574.4L489.079 581.262C480.846 579.222 471.56 578.624 463.343 581.221Z"/>
	<path fill="#438B95" transform="scale(0.488281 0.488281)" d="M496.803 537.808C498.998 535.728 501.848 533.126 504.719 532.072L505.25 531.89C511.065 529.836 515.466 530.34 521.491 530.527C521.197 532.448 520.242 533.701 518.643 534.816C513.467 538.428 506.067 539.944 499.921 538.581L496.803 537.808Z"/>
</svg>
