<?xml version="1.0" encoding="utf-8" ?>
<svg xmlns="http://www.w3.org/2000/svg" xmlns:xlink="http://www.w3.org/1999/xlink" width="500" height="500">
	<path fill="#5EAFAC" transform="scale(0.488281 0.488281)" d="M-0 -0L1024 0L1024 1024L-0 1024L0 -0Z"/>
	<path fill="#194B59" transform="scale(0.488281 0.488281)" d="M846.381 99.5249L853.537 106.88C862.257 115.395 871.614 125.993 873.489 138.5C872.838 139.353 873.27 139.066 872.157 139.301L838.695 135.986L835.792 135.499L837.416 133.919L837.423 132.75C828.767 122.81 820.731 113.701 810.111 105.78L804.026 102.101C805.117 101.37 805.78 101.267 807.137 101.507L810 101.927C816.789 102.396 823.8 102.116 830.602 101.99C834.714 101.914 839.366 102.255 843.378 101.256C844.589 100.955 845.468 100.341 846.381 99.5249Z"/>
	<path fill="#852926" transform="scale(0.488281 0.488281)" d="M846.381 99.5249L853.537 106.88C849.704 107.367 845.029 106.589 841.115 106.45L810.111 105.78L804.026 102.101C805.117 101.37 805.78 101.267 807.137 101.507L810 101.927C816.789 102.396 823.8 102.116 830.602 101.99C834.714 101.914 839.366 102.255 843.378 101.256C844.589 100.955 845.468 100.341 846.381 99.5249Z"/>
	<path fill="#FEFEFE" transform="scale(0.488281 0.488281)" d="M296.61 729.35C285.497 739.533 273.396 748.569 261.589 757.912C238.942 775.835 216.101 793.258 191.875 809.042L162.65 826.712C158.199 827.999 153.303 831.221 149.044 833.277L125.875 843.494C100.467 853.645 73.5578 860.493 46.908 866.464C53.3214 863.458 59.3956 859.512 65.5 855.928L94.0637 839.222L135.601 814.567C173.514 790.927 210.09 765.477 245.366 738.077C250.2 737.929 255.397 736.759 260.195 736.003L296.61 729.35Z"/>
	<path fill="#727B84" transform="scale(0.488281 0.488281)" d="M829.81 140.187C831.637 138.591 833.58 136.508 835.792 135.499L838.695 135.986L872.157 139.301C876.17 139.701 880.491 141.614 884.233 143.052C895.086 147.222 905.68 152.482 915.245 159.118C920.138 162.513 924.622 166.488 929.18 170.313C932.666 173.068 935.92 176.394 938.975 179.625C939.974 180.681 941.337 181.837 941.792 183.215C942.853 184.333 943.882 185.516 945.07 186.5C944.234 187.441 943.619 187.247 942.42 187.389L857.449 196.107C854.186 195.52 850.059 196.151 846.711 196.302L812.816 199.052C810.902 195.343 809.126 191.314 806.179 188.303L805.789 187.915L804.848 186.798C800.045 181.489 793.077 175.455 786.076 173.383C782.079 172.201 777.906 172.039 773.774 171.837L773.544 171.162C788.545 167.558 802.404 163.196 815.419 154.685L829.81 140.187Z"/>
	<defs>
		<linearGradient id="gradient_0" gradientUnits="userSpaceOnUse" x1="825.16663" y1="160.20148" x2="833.18005" y2="149.99734">
			<stop offset="0" stop-color="#7E939C"/>
			<stop offset="1" stop-color="#A7C2CB"/>
		</linearGradient>
	</defs>
	<path fill="url(#gradient_0)" transform="scale(0.488281 0.488281)" d="M854.04 161.118L821.252 159.56C824.742 154.113 827.957 148.286 832.301 143.463C831.182 146.338 830.376 147.597 831.543 150.662C832.382 152.866 833.468 153.369 835.5 154.25L836 153.755L836.702 154.129C837.664 154.609 837.256 154.503 838.25 154.5L838.25 153.755C839.123 153.809 839.914 153.802 840.742 154.085C841.399 154.309 841.872 154.273 842.563 154.302C844.084 154.368 844.742 154.738 845.997 155.502L846.702 155.914L848 156.755C848.458 157.051 849.002 157.57 849.554 157.49C850.304 158.137 850.993 158.8 851.882 159.244C852.74 159.673 853.375 160.439 854.04 161.118Z"/>
	<path fill="#A7D7DC" transform="scale(0.488281 0.488281)" d="M849.554 157.49L849.75 156.255C858.852 156.212 867.625 158.108 876.579 159.628L907.467 165.415C913.317 166.787 923.421 172.187 929.18 170.313C932.666 173.068 935.92 176.394 938.975 179.625C939.974 180.681 941.337 181.837 941.792 183.215L927.964 177.544C925.841 176.694 924.611 174.968 922.5 174.2C915.57 171.678 908.686 170.235 901.5 168.825L854.04 161.118C853.375 160.439 852.74 159.673 851.882 159.244C850.993 158.8 850.304 158.137 849.554 157.49Z"/>
	<defs>
		<linearGradient id="gradient_1" gradientUnits="userSpaceOnUse" x1="867.55023" y1="174.05652" x2="886.80023" y2="142.47044">
			<stop offset="0" stop-color="#ABCCD8"/>
			<stop offset="1" stop-color="#C5F9FE"/>
		</linearGradient>
	</defs>
	<path fill="url(#gradient_1)" transform="scale(0.488281 0.488281)" d="M838.695 135.986L872.157 139.301C876.17 139.701 880.491 141.614 884.233 143.052C895.086 147.222 905.68 152.482 915.245 159.118C920.138 162.513 924.622 166.488 929.18 170.313C923.421 172.187 913.317 166.787 907.467 165.415L876.579 159.628C867.625 158.108 858.852 156.212 849.75 156.255L849.554 157.49C849.002 157.57 848.458 157.051 848 156.755L846.702 155.914L845.997 155.502C844.742 154.738 844.084 154.368 842.563 154.302C841.872 154.273 841.399 154.309 840.742 154.085C839.914 153.802 839.123 153.809 838.25 153.755L838.25 154.5C837.256 154.503 837.664 154.609 836.702 154.129L836 153.755L835.5 154.25C833.468 153.369 832.382 152.866 831.543 150.662C830.376 147.597 831.182 146.338 832.301 143.463C832.376 141.924 837.532 137.192 838.695 135.986Z"/>
	<defs>
		<linearGradient id="gradient_2" gradientUnits="userSpaceOnUse" x1="877.35358" y1="143.82726" x2="812.64642" y2="206.67274">
			<stop offset="0" stop-color="#180D24"/>
			<stop offset="1" stop-color="#092B3E"/>
		</linearGradient>
	</defs>
	<path fill="url(#gradient_2)" transform="scale(0.488281 0.488281)" d="M815.419 154.685L815.047 155.57C813.099 159.759 807.443 163.901 803.986 167.001C819.218 169.196 835.129 169.195 850.5 170.53C875.073 172.665 899.497 176.223 923.666 181.131L935.082 183.74C936.674 184.173 938.756 184.469 940.053 185.487L940.099 185.573C940.891 186.008 941.489 186.419 942.146 187.041L942.42 187.389L857.449 196.107C854.186 195.52 850.059 196.151 846.711 196.302L812.816 199.052C810.902 195.343 809.126 191.314 806.179 188.303L805.789 187.915L804.848 186.798C800.045 181.489 793.077 175.455 786.076 173.383C782.079 172.201 777.906 172.039 773.774 171.837L773.544 171.162C788.545 167.558 802.404 163.196 815.419 154.685Z"/>
	<path fill="#858D91" transform="scale(0.488281 0.488281)" d="M903.853 179.774L940.099 185.573C940.891 186.008 941.489 186.419 942.146 187.041L914.304 184.033L912.255 183.383C909.673 182.535 907.433 182.073 904.75 181.809L904.755 181.25C906.092 181.442 908.219 181.818 909.375 181.125C907.853 181.189 907.246 181.348 905.875 180.625C904.615 180.75 903.874 180.8 902.689 180.324L903.853 179.774Z"/>
	<path fill="#727B84" transform="scale(0.488281 0.488281)" d="M809.386 183.528C807.161 181.015 801.247 174.229 801.084 170.98L903.853 179.774L902.689 180.324C903.874 180.8 904.615 180.75 905.875 180.625C907.246 181.348 907.853 181.189 909.375 181.125C908.219 181.818 906.092 181.442 904.755 181.25L904.75 181.809C907.433 182.073 909.673 182.535 912.255 183.383L914.304 184.033L809.386 183.528Z"/>
	<path fill="#4B5359" transform="scale(0.488281 0.488281)" d="M809.386 183.528L914.304 184.033L942.146 187.041L942.42 187.389L857.449 196.107C854.186 195.52 850.059 196.151 846.711 196.302C832.277 195.693 819.728 194.694 809.386 183.528Z"/>
	<path fill="#194B59" transform="scale(0.488281 0.488281)" d="M354.237 718.519L355.456 720.996C350.282 724.904 345.915 730.227 341.358 734.859L322.206 753.216L250.302 814.801L166.884 875.366L142.719 890.033C138.585 892.449 134.363 894.563 130.5 897.411L130.415 897.431C123.389 899.572 116.46 903.468 109.552 906.149C97.4663 910.839 84.8674 914.439 71.9316 915.693C62.2858 916.629 52.7972 916.194 43.1658 915.38L70.8022 893.072L141.858 842.25L155.775 832.453C157.73 831.094 161.115 829.387 162.281 827.396L162.65 826.712L191.875 809.042C216.101 793.258 238.942 775.835 261.589 757.912C273.396 748.569 285.497 739.533 296.61 729.35C300.215 728.51 304.296 728.317 308 727.664L338.5 721.726C343.68 720.691 349.199 720.062 354.237 718.519Z"/>
	<defs>
		<linearGradient id="gradient_3" gradientUnits="userSpaceOnUse" x1="668.99738" y1="60.37579" x2="702.98462" y2="134.73891">
			<stop offset="0" stop-color="#F46923"/>
			<stop offset="1" stop-color="#E3A14E"/>
		</linearGradient>
	</defs>
	<path fill="url(#gradient_3)" transform="scale(0.488281 0.488281)" d="M629.328 79.1378L629.463 78.9697C633.644 76.0229 639.973 73.9121 644.762 71.8814C671.84 60.3989 699.779 54.6642 729.234 55.7634C735.685 56.0041 742.576 56.25 748.916 57.445C767.76 58.8164 787.637 65.4661 804.743 73.2352C819.728 79.9291 834.346 88.1961 846.381 99.5249C845.468 100.341 844.589 100.955 843.378 101.256C839.366 102.255 834.714 101.914 830.602 101.99C823.8 102.116 816.789 102.396 810 101.927L807.137 101.507C805.78 101.267 805.117 101.37 804.026 102.101L810.111 105.78C820.731 113.701 828.767 122.81 837.423 132.75L837.416 133.919L835.792 135.499C833.58 136.508 831.637 138.591 829.81 140.187C822.92 133.969 815.415 127.043 807.401 122.316C805.579 122.508 802.667 120.855 800.945 120.117L788.844 115.308C779.175 111.779 769.403 108.146 759.443 105.521C749.439 102.884 738.889 101.821 728.572 102.31C726.09 100.949 722.09 101.3 719.258 101.284C700.905 101.179 682.301 104.437 664.702 109.526L604.193 132.257C576.999 143.154 546.667 154.961 517.199 156.901C508.178 157.495 499.366 156.532 490.383 156.517L489.25 155.885L489.16 155.192C496.515 154.882 503.406 152.542 510.348 150.26C524.819 145.504 538.801 138.905 551.642 130.721C560.414 125.13 568.601 118.586 576.951 112.396C593.261 100.304 610.842 87.6597 629.328 79.1378Z"/>
	<defs>
		<linearGradient id="gradient_4" gradientUnits="userSpaceOnUse" x1="655.1004" y1="84.900352" x2="705.0246" y2="81.337944">
			<stop offset="0" stop-color="#F2AE38"/>
			<stop offset="1" stop-color="#FAF9C6"/>
		</linearGradient>
	</defs>
	<path fill="url(#gradient_4)" transform="scale(0.488281 0.488281)" d="M684.528 76.4927L703.661 75.4826C704.774 79.8758 705.072 84.0305 705.601 88.5037L684.635 88.0116L655.82 91.0391L655.768 90.8043L656.75 90.5C657.918 90.0473 658.7 90.3205 659.75 90C661.01 89.6152 662.104 89.8243 663.25 89.5C664.636 89.1076 665.998 89.3604 667.25 89C668.836 88.5432 670.612 88.9014 671.729 87.7458C670.809 85.307 671.247 81.511 671.255 78.8603C670.359 77.9716 657.386 81.4712 655.196 81.3604C663.988 78.2542 675.229 76.8741 684.528 76.4927Z"/>
	<defs>
		<linearGradient id="gradient_5" gradientUnits="userSpaceOnUse" x1="823.76385" y1="101.01586" x2="823.6745" y2="79.967415">
			<stop offset="0" stop-color="#A61E24"/>
			<stop offset="1" stop-color="#FF8A31"/>
		</linearGradient>
	</defs>
	<path fill="url(#gradient_5)" transform="scale(0.488281 0.488281)" d="M804.162 73.938L804.743 73.2352C819.728 79.9291 834.346 88.1961 846.381 99.5249C845.468 100.341 844.589 100.955 843.378 101.256C839.366 102.255 834.714 101.914 830.602 101.99C823.8 102.116 816.789 102.396 810 101.927L807.137 101.507C805.78 101.267 805.117 101.37 804.026 102.101L797.207 98.1893L789.627 94.1787L773.725 87.3371L774.555 87.1525C775.507 87.0736 775.757 87.3378 776.75 87L775.503 86.1473L782.25 86.0184C784.029 85.6614 782.261 85.7596 784.032 85.732L788.784 85.3705C795.453 84.4982 802.499 85.1603 809.25 84.745C810.842 84.6471 813.465 84.8792 814.745 84C813.304 82.6472 805.836 83.4936 803.5 83.537L803 83L801.625 82.125C802.87 82.047 804.138 81.9032 805.375 82.1094L806.875 82.375C806.283 81.7774 805.709 81.357 805.016 80.8868L804.625 80.625C806.636 80.5376 807.134 80.207 808.75 81.5C809.982 81.1832 810.808 81.6197 811.953 81.3906L812.5 81.25L813.25 81.5L815.442 80.2006L816.282 79.9194C815.596 79.3626 815.861 79.513 815.169 79.1611C812.702 77.9062 810.161 76.3553 807.55 75.4574C806.366 75.0501 805.282 74.4945 804.162 73.938Z"/>
	<path fill="#C44222" transform="scale(0.488281 0.488281)" d="M789.627 94.1787C787.935 91.9101 786.564 92.096 784.247 90.875L786.375 90.7475L786.808 91.1446C788.903 92.7877 791.528 92.9085 794.029 93.4231C798.304 94.3026 803.162 94.0552 807.297 95.2357C805.891 95.4608 803.573 95.2874 802.625 96.2525L802.506 97.143L800.75 97.255L800.846 97.8669L801.561 98.0924C802.578 98.4469 802.206 98.2522 803 99L802 99.755C801.039 99.3146 800.38 98.7628 799.5 98.255C798.892 97.9042 798.313 97.8335 797.646 97.7367L797.207 98.1893L789.627 94.1787Z"/>
	<path fill="#FEFEFE" transform="scale(0.488281 0.488281)" d="M703.661 75.4826C717.905 75.6159 731.471 76.5527 745.469 79.3537C751.153 80.4913 756.85 82.0655 762.398 83.7461L770.787 86.4459C771.456 86.671 773.058 87.4394 773.725 87.3371L789.627 94.1787L797.207 98.1893L804.026 102.101L810.111 105.78C820.731 113.701 828.767 122.81 837.423 132.75L837.416 133.919L835.792 135.499C833.58 136.508 831.637 138.591 829.81 140.187C822.92 133.969 815.415 127.043 807.401 122.316C800.637 117.271 792.921 113.321 785.347 109.655C760.192 97.4813 733.327 91.0909 705.601 88.5037C705.072 84.0305 704.774 79.8758 703.661 75.4826Z"/>
	<path fill="#C44222" transform="scale(0.488281 0.488281)" d="M490.383 156.517L489.25 155.885L489.16 155.192C496.515 154.882 503.406 152.542 510.348 150.26C524.819 145.504 538.801 138.905 551.642 130.721C560.414 125.13 568.601 118.586 576.951 112.396C593.261 100.304 610.842 87.6597 629.328 79.1378L628.808 79.9319C627.413 81.8487 623.966 82.7593 621.904 83.904L609.558 91.3036L560.823 125.626C561.998 125.445 562.725 125.025 563.743 124.432C564.535 123.971 565.175 123.834 566.003 123.502L567.5 122.755L572.751 120.113C573.747 119.616 573.226 119.863 574.25 119.518C575.244 119.183 577.104 118.291 578 117.75L578.5 117.255C582.452 114.503 588.246 113.023 592.673 111.212C607.327 105.218 621.419 99.66 636.75 95.5157C639.282 94.8313 654.716 92.0707 655.82 91.0391L684.635 88.0116L705.601 88.5037C733.327 91.0909 760.192 97.4813 785.347 109.655C792.921 113.321 800.637 117.271 807.401 122.316C805.579 122.508 802.667 120.855 800.945 120.117L788.844 115.308C779.175 111.779 769.403 108.146 759.443 105.521C749.439 102.884 738.889 101.821 728.572 102.31C726.09 100.949 722.09 101.3 719.258 101.284C700.905 101.179 682.301 104.437 664.702 109.526L604.193 132.257C576.999 143.154 546.667 154.961 517.199 156.901C508.178 157.495 499.366 156.532 490.383 156.517Z"/>
	<path fill="#0E1D31" transform="scale(0.488281 0.488281)" d="M355.456 720.996C372.741 731.464 387.814 745.334 405.006 756.119C409.191 758.744 413.572 761.684 418.067 763.728C387.911 799.149 354.03 829.803 313.5 853.019C303.197 858.921 292.082 864.965 280.676 868.474L299.234 843.255L305.922 834.467C307.131 832.873 308.619 831.278 309.353 829.411C291.809 846.993 273.139 864.769 251.531 877.31C235.315 886.722 218.305 892.807 200.229 897.505L231.818 863.505C201.19 885.236 166.561 903.571 129.296 910.264L118.308 911.837C116.555 912.065 114.504 912.589 112.777 912.54L112.348 912.442L130.415 897.431L130.5 897.411C134.363 894.563 138.585 892.449 142.719 890.033L166.884 875.366L250.302 814.801L322.206 753.216L341.358 734.859C345.915 730.227 350.282 724.904 355.456 720.996Z"/>
	<path fill="#3E807E" transform="scale(0.488281 0.488281)" d="M528.661 797.732L576.439 800.592C581.066 805.689 585.419 811.526 590.467 816.16C594.195 817.807 597.54 819.436 601.5 820.495C606.792 821.91 612.181 822.233 617.563 823.101C619.751 827.629 624.931 832.178 628.184 836.127L661.217 874.995C668.102 883.004 674.843 891.573 682.335 899.014C684.651 901.315 687.543 903.821 690.667 904.868C694.706 906.222 699.508 906.051 703.734 906.069C723.242 906.149 743.655 900.582 763 904.389C773.131 906.383 781.397 910.447 788.806 917.65C789.317 918.129 789.135 917.861 789.422 918.64C789.496 918.842 789.458 919.123 789.631 919.25C789.841 919.404 791.438 919.401 791.83 919.436L799.088 920.271C820.157 923.453 840.796 926.171 861.5 931.46C872.819 934.352 884.712 937.775 894.731 943.957C897.794 945.847 901.663 948.466 902.376 952.239C902.772 954.333 902.183 956.193 900.999 957.926C892.975 969.673 860.671 975.979 846.888 978.58C808.75 985.779 770.404 989.067 731.72 991.648C645.947 997.371 559.332 997.047 473.623 990.392C441.413 987.891 409.377 985.217 377.55 979.409C363.601 976.863 349.77 973.859 336.25 969.531C330.125 967.569 323.123 965.361 317.884 961.545C315.859 960.07 313.294 957.689 313.12 955C312.974 952.745 314.302 950.818 315.849 949.329C321.536 943.859 331.392 941.193 338.76 938.97C364.973 931.061 392.918 927.294 420.047 924.197L519.798 916.285L538.558 915.833L480.09 831.289C482.231 831.924 484.487 832.459 486.516 833.396C491.822 833.042 497.195 830.611 502.065 828.582L502.324 828.199C513.958 820.868 522.724 810.042 528.661 797.732Z"/>
	<path fill="#5E3B23" transform="scale(0.488281 0.488281)" d="M590.467 816.16C594.195 817.807 597.54 819.436 601.5 820.495C606.792 821.91 612.181 822.233 617.563 823.101C619.751 827.629 624.931 832.178 628.184 836.127L661.217 874.995C668.102 883.004 674.843 891.573 682.335 899.014C684.651 901.315 687.543 903.821 690.667 904.868C694.706 906.222 699.508 906.051 703.734 906.069C723.242 906.149 743.655 900.582 763 904.389C773.131 906.383 781.397 910.447 788.806 917.65L788.259 918.272L788.75 918.899C778.964 919.708 768.753 916.145 758.897 917.395C762.661 919.188 766.605 920.626 770.224 922.704C777.587 926.933 782.571 933.362 786.716 940.594L794.337 956.206C791.338 952.709 788.266 949.097 784.605 946.276C773.726 937.891 758.017 933.978 744.54 932.7C754.649 938.141 763.118 943.973 768.4 954.45C759.641 948.335 749.964 945.933 739.824 943.144C726.293 939.424 712.549 936.497 699.332 931.703C696.485 930.671 693.768 929.38 691.167 927.827C689.874 927.054 687.085 924.675 685.776 924.392C684.783 924.177 682.822 924.528 681.716 924.571L672.076 924.704C652.639 924.403 629.359 923.527 612.517 912.849L600.639 913.19C596.918 913.429 593.143 914.305 589.43 913.742C588.038 914.379 586.74 915.199 585.166 914.95C587.852 911.729 590.85 908.566 594.259 906.104C602.382 900.24 612.495 898.387 622.353 899.8C627.144 900.487 631.816 901.888 636.625 902.605L665.492 906.746L590.467 816.16Z"/>
	<path fill="#5EAFAC" transform="scale(0.488281 0.488281)" d="M589.43 913.742L596.5 911.358C602.382 909.765 607.055 910.305 612.517 912.849L600.639 913.19C596.918 913.429 593.143 914.305 589.43 913.742Z"/>
	<path fill="#5EAFAC" transform="scale(0.488281 0.488281)" d="M740.65 915.044C755.778 912.625 774.497 910.236 788.259 918.272L788.75 918.899C778.964 919.708 768.753 916.145 758.897 917.395L748.731 916.058C746.262 915.854 742.913 915.989 740.65 915.044Z"/>
	<path fill="#7C4928" transform="scale(0.488281 0.488281)" d="M786.716 940.594C783.815 939.483 781.671 936.952 779.13 935.177C775.573 932.694 771.11 930.807 766.969 929.557C756.06 926.263 744.178 926.505 733 924.548C724.361 923.035 715.807 919.855 707.545 916.968C713.472 915.763 718.865 915.611 724.852 915.28C729.991 914.996 735.541 914.457 740.65 915.044C742.913 915.989 746.262 915.854 748.731 916.058L758.897 917.395C762.661 919.188 766.605 920.626 770.224 922.704C777.587 926.933 782.571 933.362 786.716 940.594Z"/>
	<path fill="#7C4928" transform="scale(0.488281 0.488281)" d="M486.516 833.396C491.822 833.042 497.195 830.611 502.065 828.582L561.886 915.363C565.825 921.327 570.038 928.124 576.224 931.959C588.014 932.686 599.943 930.751 611.75 930.532C623.75 930.31 635.853 932.704 646.74 937.787C652.372 940.415 658.015 943.405 662.855 947.34C664.46 948.071 666.244 949.741 667.561 950.923C672.665 955.501 675.656 959.887 678.479 966.115C668.208 957.469 654.818 955.905 641.919 954.817C645.489 956.223 649.359 957.497 652.734 959.323C662.588 964.654 669.29 973.742 673.776 983.747C662.372 970.47 648.553 968.062 633.037 962.307C628.691 960.695 623.669 957.807 619.105 957.191C619.956 959.288 627.008 961.728 629.158 962.898C631.35 964.091 633.464 965.475 635.399 967.054C640.781 971.446 644.91 976.991 647.78 983.291L645.695 981.085C642.126 977.483 637.401 975.244 632.817 973.197C627.048 970.621 620.883 968.733 614.925 966.637L587.108 956.336L574.599 951.116C571.243 949.541 567.58 947.205 563.941 946.491C558.077 945.34 550.053 946.721 543.955 946.858C535.695 947.044 527.407 946.761 519.191 945.869C513.821 945.286 508.374 944.036 503.18 942.553C498.165 941.121 492.43 938.54 487.129 938.684C477.565 938.946 471.6 946.001 465.393 952.194C468.078 946.673 471.013 941.767 475.351 937.359C484.755 927.802 497.362 924.281 510.563 925.652C515.627 926.178 520.63 927.327 525.719 927.749C533.08 928.36 540.573 928.091 547.95 927.989L538.558 915.833L480.09 831.289C482.231 831.924 484.487 832.459 486.516 833.396Z"/>
	<path fill="#A45D32" transform="scale(0.488281 0.488281)" d="M486.516 833.396C491.822 833.042 497.195 830.611 502.065 828.582L561.886 915.363C565.825 921.327 570.038 928.124 576.224 931.959C588.014 932.686 599.943 930.751 611.75 930.532C623.75 930.31 635.853 932.704 646.74 937.787C652.372 940.415 658.015 943.405 662.855 947.34C661.131 948.211 647.912 946.809 645.182 946.547C638.369 945.892 631.599 945.008 624.75 944.781L603.626 944.282C598.861 944.215 593.571 944.609 588.945 943.373C580.503 941.118 571.493 939.444 564.259 934.15C557.948 929.532 553.284 923.115 548.598 916.944L530.833 892.658C516.313 872.761 502.317 852.283 486.516 833.396Z"/>
	<path fill="#5EAFAC" transform="scale(0.488281 0.488281)" d="M528.661 797.732L576.439 800.592C581.066 805.689 585.419 811.526 590.467 816.16L665.492 906.746L636.625 902.605C631.816 901.888 627.144 900.487 622.353 899.8C612.495 898.387 602.382 900.24 594.259 906.104C590.85 908.566 587.852 911.729 585.166 914.95C582.679 914.111 579.687 914.529 577.073 914.623L561.886 915.363L502.065 828.582L502.324 828.199C513.958 820.868 522.724 810.042 528.661 797.732Z"/>
	<defs>
		<linearGradient id="gradient_6" gradientUnits="userSpaceOnUse" x1="646.61615" y1="513.04974" x2="604.32745" y2="807.59949">
			<stop offset="0" stop-color="#46121E"/>
			<stop offset="1" stop-color="#73211E"/>
		</linearGradient>
	</defs>
	<path fill="url(#gradient_6)" transform="scale(0.488281 0.488281)" d="M681.128 547.895C681.358 542.916 682.395 537.824 682.892 532.831C683.616 525.555 683.827 518.17 683.934 510.862C684.193 493.23 681.922 476.27 680.802 458.768C696.661 474.444 712.743 488.756 730.735 502.006C737.478 506.971 744.379 512.121 751.604 516.354C782.936 534.709 820.401 548.838 857.051 539.06C880.783 532.729 895.575 516.611 907.527 495.931C907.615 507.222 907.352 519.318 905.017 530.402C904.902 535.02 903.91 539.514 903.071 544.045L897.927 566.887C892.117 588.262 884.282 609.302 873.903 628.903C859.378 656.336 839.396 681.722 816.944 703.092C795.856 723.164 771.729 740.865 746 754.526C724.036 766.188 700.495 775.018 676.756 782.281C665.943 785.589 654.541 789.753 643.368 791.525C638.924 801.066 633.729 809.651 626.206 817.11C623.997 819.3 621.223 822.049 618.163 822.957L617.563 823.101C612.181 822.233 606.792 821.91 601.5 820.495C597.54 819.436 594.195 817.807 590.467 816.16C585.419 811.526 581.066 805.689 576.439 800.592L528.661 797.732C522.724 810.042 513.958 820.868 502.324 828.199L502.065 828.582C497.195 830.611 491.822 833.042 486.516 833.396C484.487 832.459 482.231 831.924 480.09 831.289L454.079 789.694C453.667 789.419 452.682 787.539 452.361 787.023C450.206 783.564 448.21 780.046 446.861 776.191L418.067 763.728C413.572 761.684 409.191 758.744 405.006 756.119C387.814 745.334 372.741 731.464 355.456 720.996L354.237 718.519C355.784 717.949 357.326 717.917 358.953 717.813C362.332 718.546 366.361 719.199 369.443 720.756C404.647 731.872 443.318 734.116 479.984 731.177C489.701 730.398 499.788 729.5 509.277 727.217L509.31 727.172C517.604 725.824 525.713 723.172 533.651 720.471C554.806 713.272 574.692 703.523 593.26 691.105C638.229 661.031 667.639 616.444 678.199 563.34L681.128 547.895Z"/>
	<path fill="#0E1D31" transform="scale(0.488281 0.488281)" d="M576.439 800.592C580.362 800.066 584.312 800.15 588.254 799.879C596.499 799.311 604.815 798.632 612.975 797.294L630.893 793.748C634.84 792.867 639.324 791.118 643.368 791.525C638.924 801.066 633.729 809.651 626.206 817.11C623.997 819.3 621.223 822.049 618.163 822.957L617.563 823.101C612.181 822.233 606.792 821.91 601.5 820.495C597.54 819.436 594.195 817.807 590.467 816.16C585.419 811.526 581.066 805.689 576.439 800.592Z"/>
	<path fill="#0E1D31" transform="scale(0.488281 0.488281)" d="M446.861 776.191C458.546 779.24 469.943 783.971 481.59 787.331C497.181 791.83 512.8 794.574 528.661 797.732C522.724 810.042 513.958 820.868 502.324 828.199L502.065 828.582C497.195 830.611 491.822 833.042 486.516 833.396C484.487 832.459 482.231 831.924 480.09 831.289L454.079 789.694C453.667 789.419 452.682 787.539 452.361 787.023C450.206 783.564 448.21 780.046 446.861 776.191Z"/>
	<path fill="#194B59" transform="scale(0.488281 0.488281)" d="M454.079 789.694C457.203 790.819 459.893 792.878 462.764 794.523C478.455 803.513 490.81 814.177 502.324 828.199L502.065 828.582C497.195 830.611 491.822 833.042 486.516 833.396C484.487 832.459 482.231 831.924 480.09 831.289L454.079 789.694Z"/>
	<path fill="#461218" transform="scale(0.488281 0.488281)" d="M678.199 563.34C679.154 568.22 678.075 573.531 677.562 578.42L675.331 599.298L675.028 598.321C674.476 596.405 674.906 595.182 675.375 593.375C675.533 592.766 675.352 591.848 675.25 591.245L674.268 591.756C665.698 622.473 654.337 652.919 635.43 678.983C632.015 683.691 628.572 688.62 624.595 692.863C616.919 701.012 609.051 708.721 600.251 715.671C569.337 740.087 528.352 757.782 488.634 758.992C469.459 759.577 451.175 757.431 432.5 753.106C419.552 750.108 406.544 746.11 394.829 739.715C386.554 735.199 379.809 728.673 371.669 723.911C372.129 722.826 371.784 723.308 372.75 722.5L372.207 722.476C371.085 722.278 370.289 721.463 369.443 720.756C404.647 731.872 443.318 734.116 479.984 731.177C489.701 730.398 499.788 729.5 509.277 727.217L509.31 727.172C517.604 725.824 525.713 723.172 533.651 720.471C554.806 713.272 574.692 703.523 593.26 691.105C638.229 661.031 667.639 616.444 678.199 563.34Z"/>
	<path fill="#EEA85B" transform="scale(0.488281 0.488281)" d="M681.128 547.895C681.358 542.916 682.395 537.824 682.892 532.831C683.616 525.555 683.827 518.17 683.934 510.862C684.193 493.23 681.922 476.27 680.802 458.768C696.661 474.444 712.743 488.756 730.735 502.006C737.478 506.971 744.379 512.121 751.604 516.354C782.936 534.709 820.401 548.838 857.051 539.06C880.783 532.729 895.575 516.611 907.527 495.931C907.615 507.222 907.352 519.318 905.017 530.402C902.044 541.258 899.388 551.984 895.256 562.495C876.514 610.174 840.873 649.672 796.5 674.952L784.109 681.329C778.349 684.603 771.304 686.839 765.078 689.099C737.494 699.115 706.234 703.181 676.998 701.257C665.533 700.503 653.997 698.607 642.718 696.482L631.884 694.373C630.045 694.06 627.744 694.088 626 693.522C625.221 693.269 625.197 693.219 624.595 692.863C628.572 688.62 632.015 683.691 635.43 678.983C654.337 652.919 665.698 622.473 674.268 591.756L675.25 591.245C675.352 591.848 675.533 592.766 675.375 593.375C674.906 595.182 674.476 596.405 675.028 598.321L675.331 599.298L677.562 578.42C678.075 573.531 679.154 568.22 678.199 563.34L681.128 547.895Z"/>
	<path fill="#D6793F" transform="scale(0.488281 0.488281)" d="M681.128 547.895C683.16 551.663 681.754 558.724 681.594 563L681.186 581.902C681.174 604.18 684.513 629.904 697.75 648.49C702.422 655.05 707.469 659.475 715.328 661.763C720.802 663.356 725.663 662.453 731.124 662.84C728.23 665.024 724.865 666.739 721.66 668.413C714.064 672.38 704.622 676.85 695.856 675.706L695 675.582C690.357 674.95 686.776 673.28 683.525 669.895C679.968 666.191 677.535 660.774 676.051 655.899C671.874 642.177 673.151 626.37 674.265 612.261C674.58 608.264 675.335 604.085 675.337 600.099L675.331 599.298L677.562 578.42C678.075 573.531 679.154 568.22 678.199 563.34L681.128 547.895Z"/>
	<path fill="#852926" transform="scale(0.488281 0.488281)" d="M731.124 662.84L731.579 662.618C737.236 659.782 742.654 655.764 747.637 651.881C764.312 638.885 777.372 622.628 788.337 604.639L795.469 592C796.557 589.893 797.511 587.276 798.923 585.392C799.157 618.011 796.12 650.748 784.109 681.329C778.349 684.603 771.304 686.839 765.078 689.099C737.494 699.115 706.234 703.181 676.998 701.257C665.533 700.503 653.997 698.607 642.718 696.482L631.884 694.373C630.045 694.06 627.744 694.088 626 693.522C625.221 693.269 625.197 693.219 624.595 692.863C628.572 688.62 632.015 683.691 635.43 678.983C654.337 652.919 665.698 622.473 674.268 591.756L675.25 591.245C675.352 591.848 675.533 592.766 675.375 593.375C674.906 595.182 674.476 596.405 675.028 598.321L675.331 599.298L675.337 600.099C675.335 604.085 674.58 608.264 674.265 612.261C673.151 626.37 671.874 642.177 676.051 655.899C677.535 660.774 679.968 666.191 683.525 669.895C686.776 673.28 690.357 674.95 695 675.582L695.856 675.706C704.622 676.85 714.064 672.38 721.66 668.413C724.865 666.739 728.23 665.024 731.124 662.84Z"/>
	<defs>
		<linearGradient id="gradient_7" gradientUnits="userSpaceOnUse" x1="461.77628" y1="647.3913" x2="560.44513" y2="365.20724">
			<stop offset="0" stop-color="#780C1E"/>
			<stop offset="1" stop-color="#FF9734"/>
		</linearGradient>
	</defs>
	<path fill="url(#gradient_7)" transform="scale(0.488281 0.488281)" d="M539.48 352.691L539.087 353.443C537.209 356.691 530.861 359.491 527.75 361.755L529.25 362L529.75 361.255C530.895 361.377 530.632 361.513 531.719 360.831C532.665 360.237 533.209 360.26 534.25 360L535.503 359.502L536.75 359.255C537.764 359.034 538.419 358.701 539.5 358.877L540.25 358.255L540.75 358.779C545.426 358.561 550.044 357.75 554.76 357.591C572.572 356.991 589.178 360.302 606.179 365.287C613.205 367.675 619.602 370.713 626.108 374.245L636.072 381.786C644.554 390.257 651.327 400.25 655.235 411.66C656.007 413.915 657.153 416.746 657.465 419.093L657.462 419.51C658.576 422.865 660.065 426.734 660.409 430.246C664.332 438.348 665.553 448.171 666.598 457C668.898 476.433 669.015 497.344 666.175 516.75C664.333 529.338 661.234 542.218 657.051 554.236C649.306 576.491 638.184 596.407 624.672 615.671C616.249 627.68 607.007 639.875 597.214 650.803C581.956 667.829 564.109 683.96 546.399 698.405L525.124 715.372C521.774 717.988 518.541 720.839 515.015 723.214C513.285 724.379 510.55 725.543 509.31 727.172L509.277 727.217C499.788 729.5 489.701 730.398 479.984 731.177C443.318 734.116 404.647 731.872 369.443 720.756C366.361 719.199 362.332 718.546 358.953 717.813C357.326 717.917 355.784 717.949 354.237 718.519C349.199 720.062 343.68 720.691 338.5 721.726L308 727.664C304.296 728.317 300.215 728.51 296.61 729.35L260.195 736.003C255.397 736.759 250.2 737.929 245.366 738.077C242.772 737.855 240.247 738.765 237.682 738.337L238.544 737.299C241.986 733.259 244.55 727.69 247.164 723.053L260.891 699.262C263.591 694.658 266.085 689.794 269.264 685.504C269.755 683.541 271.979 680.643 273.065 678.793L285.373 658.255L336.958 574.284L359.193 539.802L394.511 488.314C413.919 461.915 434.622 436.56 458.325 413.855C470.856 401.851 484.661 390.565 498.495 380.091C511.597 370.171 525.906 361.951 539.48 352.691Z"/>
	<path fill="#010101" transform="scale(0.488281 0.488281)" d="M656.403 422.279L656.59 421.768C656.824 420.702 656.697 420.392 657.462 419.51C658.576 422.865 660.065 426.734 660.409 430.246C660.269 431.697 660.218 432.871 660.493 434.319C661.285 438.49 661.504 442.798 661.571 447.034L659.351 449.631C659.584 440.672 659.333 430.831 656.403 422.279Z"/>
	<path fill="#852926" transform="scale(0.488281 0.488281)" d="M539.48 352.691L539.087 353.443C537.209 356.691 530.861 359.491 527.75 361.755L529.25 362L529.75 361.255C530.895 361.377 530.632 361.513 531.719 360.831C532.665 360.237 533.209 360.26 534.25 360L535.503 359.502L536.75 359.255C537.764 359.034 538.419 358.701 539.5 358.877L540.25 358.255L540.75 358.779C545.426 358.561 550.044 357.75 554.76 357.591C572.572 356.991 589.178 360.302 606.179 365.287C613.205 367.675 619.602 370.713 626.108 374.245L636.072 381.786C644.554 390.257 651.327 400.25 655.235 411.66C656.007 413.915 657.153 416.746 657.465 419.093L657.462 419.51C656.697 420.392 656.824 420.702 656.59 421.768L656.403 422.279C652.688 411.193 647.033 401.377 638.995 392.847C599.815 385.883 560.09 399.907 526.108 418.475C515.576 424.229 505.207 430.304 495.37 437.195L479.291 448.636L421.901 495.068C417.291 497.83 413.185 501.874 408.991 505.25C397.329 514.638 386.119 524.245 373.735 532.705C372.344 533.655 371.225 534.666 370.233 536.035L370.042 537.316L359.193 539.802L394.511 488.314C413.919 461.915 434.622 436.56 458.325 413.855C470.856 401.851 484.661 390.565 498.495 380.091C511.597 370.171 525.906 361.951 539.48 352.691Z"/>
	<defs>
		<linearGradient id="gradient_8" gradientUnits="userSpaceOnUse" x1="533.00806" y1="414.91211" x2="622.3429" y2="366.0372">
			<stop offset="0" stop-color="#AD412B"/>
			<stop offset="1" stop-color="#D85F30"/>
		</linearGradient>
	</defs>
	<path fill="url(#gradient_8)" transform="scale(0.488281 0.488281)" d="M479.291 448.636L478.575 448.217L479.502 447.502L480.502 446.502L481.25 446.255C483.336 445.031 485.35 442.609 487.502 441.502C488.853 440.808 489.737 439.687 491.002 439.002C492.525 438.178 491.033 439.414 492.329 438.245C492.975 437.662 493.724 436.903 494.502 436.502C496.843 435.299 498.78 433.671 501 432.255L507.933 427.81C508.497 427.387 508.949 427.013 509.603 426.721C512.479 425.44 515.272 423.332 518.047 421.777C522.463 419.302 528.401 416.953 532.255 413.75L531.764 410.86C531.013 410.223 530.093 409.553 529.595 408.692C527.404 404.905 526.142 401.109 524.592 397.062C523.927 395.324 522.914 393.701 522.397 391.921L522.175 391.128C521.772 389.944 521.78 390.167 520.829 389.634L514.665 392.803L507.629 396.899C504.622 398.395 501.451 400.505 498.667 402.417C497.148 403.46 496.08 404.56 494.203 404.82L494.607 404.25C495.641 403.168 497.847 402.166 499.145 401.345L508.5 395.561C526.218 385.384 544.661 376.62 564.5 371.424C572.872 369.231 581.781 367.557 590.461 367.852C609.664 368.506 626.191 379.212 638.995 392.847C599.815 385.883 560.09 399.907 526.108 418.475C515.576 424.229 505.207 430.304 495.37 437.195L479.291 448.636Z"/>
	<defs>
		<linearGradient id="gradient_9" gradientUnits="userSpaceOnUse" x1="682.79309" y1="538.29547" x2="220.6496" y2="653.02948">
			<stop offset="0" stop-color="#0F0610"/>
			<stop offset="1" stop-color="#113446"/>
		</linearGradient>
	</defs>
	<path fill="url(#gradient_9)" transform="scale(0.488281 0.488281)" d="M660.409 430.246C664.332 438.348 665.553 448.171 666.598 457C668.898 476.433 669.015 497.344 666.175 516.75C664.333 529.338 661.234 542.218 657.051 554.236C649.306 576.491 638.184 596.407 624.672 615.671C616.249 627.68 607.007 639.875 597.214 650.803C581.956 667.829 564.109 683.96 546.399 698.405L525.124 715.372C521.774 717.988 518.541 720.839 515.015 723.214C513.285 724.379 510.55 725.543 509.31 727.172L509.277 727.217C499.788 729.5 489.701 730.398 479.984 731.177C443.318 734.116 404.647 731.872 369.443 720.756C366.361 719.199 362.332 718.546 358.953 717.813C357.326 717.917 355.784 717.949 354.237 718.519C349.199 720.062 343.68 720.691 338.5 721.726L308 727.664C304.296 728.317 300.215 728.51 296.61 729.35L260.195 736.003C255.397 736.759 250.2 737.929 245.366 738.077C242.772 737.855 240.247 738.765 237.682 738.337L238.544 737.299C241.986 733.259 244.55 727.69 247.164 723.053L260.891 699.262C263.591 694.658 266.085 689.794 269.264 685.504C269.755 683.541 271.979 680.643 273.065 678.793L285.373 658.255L336.958 574.284L359.193 539.802L370.042 537.316C384.506 533.574 399.467 529.035 412.6 521.745L413.102 521.526C424.265 516.574 435.031 509.718 445.301 503.133C462.771 491.933 480.069 479.955 495.75 466.323L495.75 466.971L426.578 523.273L374.869 556.894C367.589 561.164 360.347 565.534 352.658 569.029C362.927 567.603 373.007 565.754 382.896 562.582C394.738 558.784 406.047 553.285 417.105 547.652C421.814 545.253 428.026 542.634 431.99 539.197L432.806 538.827C436.821 536.953 440.673 534.217 444.359 531.759C450.303 527.796 456.163 523.743 461.721 519.25C463.604 517.728 468.896 511.92 471.018 511.583C464.035 520.345 455.3 527.804 446.896 535.17L427.605 551.857C405.966 568.996 383.71 585.516 359.185 598.338C366.968 596.704 374.567 595.306 382.2 592.975C401.605 587.048 421.13 577.224 438.545 566.864L469.75 543.863C469.325 545.659 465.948 548.23 464.515 549.667L442.75 570.344L430.5 579.909L403.977 598.551C397.517 602.649 390.994 606.799 384.22 610.361C380.016 612.572 375.322 614.307 371.271 616.69C379.937 616.465 388.417 616.123 396.981 614.598C415.16 611.361 432.537 604.198 449.081 596.208C454.646 593.52 461.768 590.623 466.523 586.78L467.011 586.531C473.531 583.129 479.822 578.549 485.768 574.239C505.147 560.196 521.668 543.948 536.75 525.384L537.043 526C532.779 533.116 526.726 539.854 521.348 546.147C511.4 557.788 501.294 569.149 490.057 579.585C484.963 584.316 479.221 588.487 474.235 593.271C461.297 602.946 448.687 612.011 434 618.96L420 625.02C416.984 626.217 413.663 627.188 410.889 628.859C440.777 624.221 470.06 615.772 497.46 602.913L497.574 602.703C501.976 601.355 506.41 598.489 510.469 596.327C523.41 589.435 535.578 581.545 546.494 571.69C553.226 565.612 559.282 558.716 565.072 551.75L565.625 551.75C556.062 567.525 542.442 581.304 529.032 593.829C513.172 607.187 495.943 620.22 477 628.9C470.118 632.054 463.17 634.176 455.936 636.333C464.168 636.136 473.208 634.004 481.296 632.373C490.5 630.517 499.922 628.779 508.939 626.175C528.313 620.581 546.601 612.574 564.153 602.707C575.139 596.045 585.456 588.896 595.159 580.44C622.868 556.293 643.533 524.706 653.217 489.081C656.735 476.14 658.46 462.989 659.351 449.631L661.571 447.034C661.504 442.798 661.285 438.49 660.493 434.319C660.218 432.871 660.269 431.697 660.409 430.246Z"/>
	<path fill="#194B59" transform="scale(0.488281 0.488281)" d="M238.544 737.299C241.986 733.259 244.55 727.69 247.164 723.053L260.891 699.262C263.591 694.658 266.085 689.794 269.264 685.504C268.862 688.748 266.628 691.535 264.836 694.175L241.248 735.375C243.098 735.46 245.849 734.272 247.625 733.625L261 729.25L261.33 728.729L260.541 728.035C261.714 725.2 264.164 723.348 267.064 722.162C269.972 720.973 273.414 719.352 276.501 718.915L277.208 718.78C278.085 718.634 278.915 718.646 279.8 718.656L280.626 718.161C281.494 717.783 282.488 717.738 283.394 717.538L283.901 717.356C284.93 717.019 286.006 717.062 287.067 716.803C288.049 716.565 288.838 716.626 289.841 716.671L290.223 716.443C291.497 715.703 291.979 715.8 293.333 715.495C295.068 715.105 297.152 714.813 298.753 714.205L300.048 713.854L301.332 713.476C303.416 712.826 304.609 712.893 306.698 713.473L307.375 714.375L309.125 713.625L309.358 712.526L310.875 712.875L312.035 711.616C312.968 711.689 313.836 711.8 314.75 712L315.356 711.019L316.248 711.375L318.125 710.625L323.25 709.016C324.388 708.636 325.335 708.079 326.5 707.75L343.75 702.016C344.888 701.636 345.835 701.079 347 700.75L361.25 696.016C362.391 695.635 363.327 695.066 364.5 694.75C365.912 694.37 367.092 693.629 368.5 693.25C369.912 692.87 371.092 692.129 372.5 691.75C373.905 691.372 375.105 690.656 376.5 690.25L377.234 690C377.918 689.772 378.544 689.625 379.25 689.5C378.863 690.012 379.143 689.771 378.391 690.034L357 697.912L261.081 729.935C260.045 730.34 260.542 730.176 259.612 730.408C258.831 730.603 258.236 730.953 257.5 731.255C256.955 731.479 256.355 731.557 255.783 731.67C251.4 732.538 246.754 734.597 242.484 736.021C241.484 736.354 242.061 736.18 241.155 736.362C240.224 736.549 239.416 736.931 238.544 737.299Z"/>
	<path fill="#DACFB3" transform="scale(0.488281 0.488281)" d="M660.409 430.246C664.332 438.348 665.553 448.171 666.598 457C668.898 476.433 669.015 497.344 666.175 516.75C664.333 529.338 661.234 542.218 657.051 554.236C649.306 576.491 638.184 596.407 624.672 615.671C616.249 627.68 607.007 639.875 597.214 650.803C581.956 667.829 564.109 683.96 546.399 698.405L525.124 715.372C521.774 717.988 518.541 720.839 515.015 723.214C513.285 724.379 510.55 725.543 509.31 727.172L509.277 727.217C499.788 729.5 489.701 730.398 479.984 731.177C443.318 734.116 404.647 731.872 369.443 720.756C366.361 719.199 362.332 718.546 358.953 717.813C384.455 712.221 409.948 707.87 435.157 700.837C501.093 682.441 568.112 647.069 614.005 595.414C641.195 564.81 657.297 526.964 661.304 486.266C662.597 473.127 662.355 460.179 661.571 447.034C661.504 442.798 661.285 438.49 660.493 434.319C660.218 432.871 660.269 431.697 660.409 430.246Z"/>
	<path fill="#FEFEFE" transform="scale(0.488281 0.488281)" d="M604.193 132.257L664.702 109.526C682.301 104.437 700.905 101.179 719.258 101.284C722.09 101.3 726.09 100.949 728.572 102.31C738.889 101.821 749.439 102.884 759.443 105.521C769.403 108.146 779.175 111.779 788.844 115.308L800.945 120.117C802.667 120.855 805.579 122.508 807.401 122.316C815.415 127.043 822.92 133.969 829.81 140.187L815.419 154.685C802.404 163.196 788.545 167.558 773.544 171.162L773.774 171.837C777.906 172.039 782.079 172.201 786.076 173.383C793.077 175.455 800.045 181.489 804.848 186.798L805.789 187.915L806.179 188.303C809.126 191.314 810.902 195.343 812.816 199.052L846.711 196.302C850.059 196.151 854.186 195.52 857.449 196.107C853.226 200.74 848.988 205.57 845.655 210.902C838.191 222.845 834.919 237.509 835.622 251.537C835.91 257.283 836.721 263.498 838.115 269.088C838.87 272.116 841.357 276.593 840.94 279.561C842.632 282.413 851.725 296.241 851.641 297.958C864.3 322.595 874.856 347.736 884.082 373.822C892.991 399.011 900.453 424.114 904.634 450.532C906.969 465.286 908.753 481.001 907.527 495.931C895.575 516.611 880.783 532.729 857.051 539.06C820.401 548.838 782.936 534.709 751.604 516.354C744.379 512.121 737.478 506.971 730.735 502.006C712.743 488.756 696.661 474.444 680.802 458.768C681.922 476.27 684.193 493.23 683.934 510.862C683.827 518.17 683.616 525.555 682.892 532.831C682.395 537.824 681.358 542.916 681.128 547.895L678.199 563.34C667.639 616.444 638.229 661.031 593.26 691.105C574.692 703.523 554.806 713.272 533.651 720.471C525.713 723.172 517.604 725.824 509.31 727.172C510.55 725.543 513.285 724.379 515.015 723.214C518.541 720.839 521.774 717.988 525.124 715.372L546.399 698.405C564.109 683.96 581.956 667.829 597.214 650.803C607.007 639.875 616.249 627.68 624.672 615.671C638.184 596.407 649.306 576.491 657.051 554.236C661.234 542.218 664.333 529.338 666.175 516.75C669.015 497.344 668.898 476.433 666.598 457C665.553 448.171 664.332 438.348 660.409 430.246C660.065 426.734 658.576 422.865 657.462 419.51L657.465 419.093C657.153 416.746 656.007 413.915 655.235 411.66C651.327 400.25 644.554 390.257 636.072 381.786L626.108 374.245C619.602 370.713 613.205 367.675 606.179 365.287C589.178 360.302 572.572 356.991 554.76 357.591C550.044 357.75 545.426 358.561 540.75 358.779L540.25 358.255L539.5 358.877C538.419 358.701 537.764 359.034 536.75 359.255L535.503 359.502L534.25 360C533.209 360.26 532.665 360.237 531.719 360.831C530.632 361.513 530.895 361.377 529.75 361.255L529.25 362L527.75 361.755C530.861 359.491 537.209 356.691 539.087 353.443L539.48 352.691C545.753 347.126 552.22 342.016 558.133 336.023C579.634 314.232 594.115 286.353 599.893 256.335C603.965 235.177 605.48 208.511 592.669 189.938C580.971 172.976 555.472 174.66 537.42 171.287C536.125 171.545 533.034 170.621 531.682 170.346C517.136 167.394 503.892 162.612 490.383 156.517C499.366 156.532 508.178 157.495 517.199 156.901C546.667 154.961 576.999 143.154 604.193 132.257Z"/>
	<path fill="#DACFB3" transform="scale(0.488281 0.488281)" d="M777.921 229.658L778.629 229.841L779.232 230.176C785.716 233.744 792.809 236.1 799.344 239.624C816.149 248.688 830.27 263.932 840.94 279.561C842.632 282.413 851.725 296.241 851.641 297.958C851.395 300.509 852.575 303.478 853.101 305.993C853.978 310.193 854.666 314.461 854.906 318.75C855.232 324.57 855.835 331.705 851.75 336.35C848.9 336.744 846.683 336.172 843.992 335.183C838.075 333.007 832.505 329.53 827.207 326.16C807.671 313.738 789.913 296.754 780.014 275.547C776.088 267.138 773.036 257.542 773.549 248.147C773.894 241.838 775.785 235.567 777.921 229.658Z"/>
	<path fill="#852926" transform="scale(0.488281 0.488281)" d="M755.226 175.703L773.544 171.162L773.774 171.837C777.906 172.039 782.079 172.201 786.076 173.383C793.077 175.455 800.045 181.489 804.848 186.798L805.789 187.915L806.179 188.303C809.126 191.314 810.902 195.343 812.816 199.052L846.711 196.302C850.059 196.151 854.186 195.52 857.449 196.107C853.226 200.74 848.988 205.57 845.655 210.902C838.191 222.845 834.919 237.509 835.622 251.537C835.91 257.283 836.721 263.498 838.115 269.088C838.87 272.116 841.357 276.593 840.94 279.561C830.27 263.932 816.149 248.688 799.344 239.624C792.809 236.1 785.716 233.744 779.232 230.176L778.629 229.841L777.921 229.658L763.154 221.341C750.613 213.56 739.672 204.81 729.127 194.51C728.326 193.536 727.083 192.51 726.976 191.25C732.387 187.98 738.393 183.788 744.349 181.741L755.226 175.703Z"/>
	<path fill="#D6793F" transform="scale(0.488281 0.488281)" d="M744.349 181.741L745.133 181.828C748.228 182.025 753.212 179.24 756.28 178.316L768.86 175.197C776.03 173.357 784.909 174.132 791.366 177.848C796.542 180.827 799.419 185.286 803.282 189.58C806.158 193.862 807.342 197.284 808.445 202.284C803.747 206.936 798.132 210.495 793.116 214.791C787.815 219.332 783.268 224.653 778.629 229.841L777.921 229.658L763.154 221.341C750.613 213.56 739.672 204.81 729.127 194.51C728.326 193.536 727.083 192.51 726.976 191.25C732.387 187.98 738.393 183.788 744.349 181.741Z"/>
	<path fill="#EEA85B" transform="scale(0.488281 0.488281)" d="M728.572 102.31C738.889 101.821 749.439 102.884 759.443 105.521C769.403 108.146 779.175 111.779 788.844 115.308L800.945 120.117C802.667 120.855 805.579 122.508 807.401 122.316C815.415 127.043 822.92 133.969 829.81 140.187L815.419 154.685C802.404 163.196 788.545 167.558 773.544 171.162L755.226 175.703L744.349 181.741C738.393 183.788 732.387 187.98 726.976 191.25C727.083 192.51 728.326 193.536 729.127 194.51L715.303 195.474C699.391 195.866 683.877 194.577 668.516 190.301C664.539 189.194 660.625 187.832 656.804 186.27C654.119 185.172 651.456 183.274 648.555 182.987C647.133 180.624 646.092 177.785 645.31 175.149C643.496 169.031 642.876 161.859 646.249 156.15C653.79 143.384 673.25 139.247 686.433 135.682L686.813 133.635C688.898 124.617 696.541 115.449 704.288 110.729C710.607 105.849 720.912 103.846 728.572 102.31Z"/>
	<path fill="#DACFB3" transform="scale(0.488281 0.488281)" d="M748.345 124.135C750.785 122.42 751.457 123.108 753.809 124.726C759.449 128.605 762.695 135.172 763.708 141.796C764.303 145.688 764.079 149.44 763.25 153.277L763.103 154.013C761.694 160.736 755.747 167.993 750.11 171.697C742.524 176.682 732.029 178.895 723.075 176.898L722.25 176.705L721.325 176.503C717.405 175.624 714.154 174.115 710.621 172.234C703.38 168.379 697.523 161.867 695.263 153.91C694.496 151.208 694.105 148.823 694.204 146.012C695.349 144.22 697.056 143.61 699.131 143.188L702.851 142.682C703.218 147.697 704.669 152.408 707.671 156.491C712.1 162.516 718.928 166.619 726.371 167.565C733.629 168.487 741.435 166.717 747.17 162.03C751.996 158.086 756.164 151.977 756.568 145.622C757.121 136.914 754.19 130.493 748.345 124.135Z"/>
	<defs>
		<linearGradient id="gradient_10" gradientUnits="userSpaceOnUse" x1="751.15704" y1="129.56194" x2="707.48236" y2="154.70634">
			<stop offset="0" stop-color="#010006"/>
			<stop offset="1" stop-color="#060B21"/>
		</linearGradient>
	</defs>
	<path fill="url(#gradient_10)" transform="scale(0.488281 0.488281)" d="M702.851 142.682C703.101 139.991 703.235 137.184 704.077 134.603L704.305 133.938C704.977 131.942 705.678 129.649 706.831 127.88C710.566 122.154 717.7 118.696 724.275 117.687C733.563 116.262 740.924 118.591 748.345 124.135C754.19 130.493 757.121 136.914 756.568 145.622C756.164 151.977 751.996 158.086 747.17 162.03C741.435 166.717 733.629 168.487 726.371 167.565C718.928 166.619 712.1 162.516 707.671 156.491C704.669 152.408 703.218 147.697 702.851 142.682Z"/>
	<path fill="#36303F" transform="scale(0.488281 0.488281)" d="M709.808 138.129C709.946 134.435 710.837 131.195 712.918 128.078C715.536 124.156 719.078 122.224 723.66 121.44C728.846 120.552 735.722 119.33 740.638 121.627C746.194 124.197 750.302 129.08 752.368 134.823C754.394 140.454 754 146.982 751.349 152.328C748.547 157.98 743.345 161.855 737.421 163.807C731.841 165.646 725.285 164.401 720.229 161.656C715.14 158.892 711.766 154.158 710.021 148.75L709.713 147.822C709.41 146.67 709.597 145.364 709.947 144.247L709.808 138.129Z"/>
	<path fill="#FEFEFE" transform="scale(0.488281 0.488281)" d="M709.808 138.129C711.665 137.227 713.013 136.965 715.074 136.932C715.239 139.963 715.793 143.11 715.718 146.132C712.931 145.969 712.065 146.07 709.947 144.247L709.808 138.129Z"/>
	<path fill="#0E1D31" transform="scale(0.488281 0.488281)" d="M715.074 136.932C715.966 136.384 716.377 134.023 716.777 132.986C717.867 130.157 719.644 126.739 722.342 125.129L722.844 124.842C724.947 123.613 726.637 122.838 729.064 122.457L729.912 122.336C733.378 121.81 737.168 121.717 740.586 122.525L742.527 123.863C746.601 126.557 749.37 130.985 750.4 135.75C751.479 140.74 750.567 144.908 747.734 149.166C744.988 153.293 739.331 156.041 734.594 156.791C729.6 157.581 724.804 156.797 720.717 153.67C718.787 152.193 716.169 149.186 715.76 146.691L715.718 146.132C715.793 143.11 715.239 139.963 715.074 136.932Z"/>
	<path fill="#FEFEFE" transform="scale(0.488281 0.488281)" d="M730.584 123.25C731.774 122.987 732.866 123.075 734.045 123.353C736.223 123.866 738.161 125.648 739.193 127.598C740.073 129.26 740.244 131.278 739.547 133.031C738.497 135.671 736.386 136.738 733.952 137.904C732.211 138.021 730.332 137.969 728.691 137.305C726.931 136.593 725.275 134.693 724.713 132.888C724.141 131.05 724.266 128.758 725.321 127.12C726.626 125.094 728.226 123.756 730.584 123.25Z"/>
	<path fill="#D6793F" transform="scale(0.488281 0.488281)" d="M728.572 102.31C738.889 101.821 749.439 102.884 759.443 105.521C769.403 108.146 779.175 111.779 788.844 115.308L800.945 120.117C802.667 120.855 805.579 122.508 807.401 122.316C815.415 127.043 822.92 133.969 829.81 140.187L815.419 154.685C802.404 163.196 788.545 167.558 773.544 171.162L755.226 175.703C758.299 172.953 761.269 170.118 763.661 166.74C769.136 159.007 771.43 148.712 769.755 139.353C768.178 130.541 762.462 120.883 754.968 115.816L754.193 115.305C741.634 106.93 728.604 107.573 714.306 109.442C711.178 109.851 707.972 110.933 704.849 110.766L704.288 110.729C710.607 105.849 720.912 103.846 728.572 102.31Z"/>
	<defs>
		<linearGradient id="gradient_11" gradientUnits="userSpaceOnUse" x1="498.33179" y1="219.78699" x2="740.63202" y2="191.71657">
			<stop offset="0" stop-color="#0E0008"/>
			<stop offset="1" stop-color="#1F788D"/>
		</linearGradient>
	</defs>
	<path fill="url(#gradient_11)" transform="scale(0.488281 0.488281)" d="M604.193 132.257L664.702 109.526C682.301 104.437 700.905 101.179 719.258 101.284C722.09 101.3 726.09 100.949 728.572 102.31C720.912 103.846 710.607 105.849 704.288 110.729C696.541 115.449 688.898 124.617 686.813 133.635L686.433 135.682C673.25 139.247 653.79 143.384 646.249 156.15C642.876 161.859 643.496 169.031 645.31 175.149C646.092 177.785 647.133 180.624 648.555 182.987C657.183 201.51 672.039 214.597 691.215 221.548C709.636 228.225 736.599 225.082 746.173 246.09C748.673 251.576 748.801 257.7 746.482 263.296C742.147 273.758 732.021 282.104 721.634 286.221C708.904 291.267 695.335 291.548 681.833 290.819C672.759 288.993 664.698 286.052 656.09 282.74C646.476 277.725 635.514 273.286 627.412 265.889C625.235 264.755 623.379 263.057 621.5 261.493C615.657 256.631 607.006 248.548 605.168 240.932C604.161 236.761 605.202 231.31 605.26 227C605.407 216.111 603.1 203.715 598.56 193.785C594.581 185.084 587.057 179.438 578.212 176.25C568.72 172.829 559.695 172.746 549.816 171.757C546.403 171.416 540.418 169.871 537.42 171.287C536.125 171.545 533.034 170.621 531.682 170.346C517.136 167.394 503.892 162.612 490.383 156.517C499.366 156.532 508.178 157.495 517.199 156.901C546.667 154.961 576.999 143.154 604.193 132.257Z"/>
	<defs>
		<linearGradient id="gradient_12" gradientUnits="userSpaceOnUse" x1="502.7088" y1="265.47562" x2="789.17419" y2="371.92084">
			<stop offset="0" stop-color="#630014"/>
			<stop offset="1" stop-color="#FFDD72"/>
		</linearGradient>
	</defs>
	<path fill="url(#gradient_12)" transform="scale(0.488281 0.488281)" d="M537.42 171.287C540.418 169.871 546.403 171.416 549.816 171.757C559.695 172.746 568.72 172.829 578.212 176.25C587.057 179.438 594.581 185.084 598.56 193.785C603.1 203.715 605.407 216.111 605.26 227C605.202 231.31 604.161 236.761 605.168 240.932C607.006 248.548 615.657 256.631 621.5 261.493C623.379 263.057 625.235 264.755 627.412 265.889C635.514 273.286 646.476 277.725 656.09 282.74C664.698 286.052 672.759 288.993 681.833 290.819L682.223 291.015C685.681 292.703 689.463 293.753 693.06 295.115C699.605 297.592 706.027 300.322 712.192 303.642C744.506 321.045 768.855 354.601 786.053 386.258C771.202 371.113 753.634 357.414 735.04 347.188L703.589 331.675C697.524 328.669 691.992 324.483 685.758 321.88C692.482 327.596 699.982 332.419 706.844 338.006C728.532 355.663 745.099 376.433 756.607 402C759.784 409.056 762.308 415.948 764.586 423.342C765.429 426.082 766.698 429.136 767.12 431.956C761.086 425.301 755.514 418.288 749.077 411.999C722.411 385.944 689.532 366.34 656.256 350.029L642.344 342.678C640.422 341.677 638.16 340.213 636.051 339.736C638.923 342.256 642.319 343.88 645.272 346.232C668.374 360.281 690.375 379.243 705.863 401.481C719.606 421.214 729.313 445.113 735.084 468.37L735.641 470.979C730.485 463.002 724.32 455.568 718.15 448.355C698.953 425.912 676.196 406.489 651.312 390.576L642.334 385.11C640.303 383.853 638.394 382.433 636.072 381.786L626.108 374.245C619.602 370.713 613.205 367.675 606.179 365.287C589.178 360.302 572.572 356.991 554.76 357.591C550.044 357.75 545.426 358.561 540.75 358.779L540.25 358.255L539.5 358.877C538.419 358.701 537.764 359.034 536.75 359.255L535.503 359.502L534.25 360C533.209 360.26 532.665 360.237 531.719 360.831C530.632 361.513 530.895 361.377 529.75 361.255L529.25 362L527.75 361.755C530.861 359.491 537.209 356.691 539.087 353.443L539.48 352.691C545.753 347.126 552.22 342.016 558.133 336.023C579.634 314.232 594.115 286.353 599.893 256.335C603.965 235.177 605.48 208.511 592.669 189.938C580.971 172.976 555.472 174.66 537.42 171.287Z"/>
</svg>
