<?xml version="1.0" encoding="utf-8" ?>
<svg xmlns="http://www.w3.org/2000/svg" xmlns:xlink="http://www.w3.org/1999/xlink" width="500" height="500">
	<path fill="#A59967" transform="scale(0.488281 0.488281)" d="M-0 -0L1024 0L1024 1024L-0 1024L0 -0Z"/>
	<path fill="#931D1F" transform="scale(0.488281 0.488281)" d="M892.79 676.819C898.366 677.607 904.042 678.256 909.533 679.52C924.98 683.076 940.705 689.751 953.936 698.484L940.54 757.285L890.798 677.065L892.79 676.819Z"/>
	<path fill="#DF5509" transform="scale(0.488281 0.488281)" d="M895.678 625.407C916.109 628.449 937.828 635.004 954.806 647.14C955.912 654.689 955.7 662.608 955.626 670.223C955.537 679.541 955.44 689.264 953.936 698.484C940.705 689.751 924.98 683.076 909.533 679.52C904.042 678.256 898.366 677.607 892.79 676.819C894.092 673.493 894.242 669.062 894.643 665.5C896.156 652.055 896.682 638.898 895.678 625.407Z"/>
	<path fill="#FDD960" transform="scale(0.488281 0.488281)" d="M574.15 130.888C597.133 132.925 620.09 137.66 642.5 143.015L673.576 150.823C678.585 152.274 684.968 153.677 689.495 156.158L656.645 162.701L628.92 170.081C623.906 171.596 618.537 172.95 613.753 175.04L612.618 175.32C605.243 173.206 598.139 170.078 590.886 167.58L550.962 155.67L527.349 150.387C525.469 149.983 521.878 149.775 520.25 148.956C519.743 148.702 519.41 148.195 518.989 147.814C536.918 140.469 555.074 134.466 574.15 130.888Z"/>
	<path fill="#E4BA39" transform="scale(0.488281 0.488281)" d="M592.046 787.43L592.406 787.32C596.637 795.589 601.467 803.682 606.575 811.438C609.56 815.972 612.465 820.754 616.766 824.161L609.404 909.051C605.691 906.963 601.922 904.92 598.559 902.284C593.801 898.554 589.486 893.844 585.549 889.265C574.101 875.948 564.545 859.777 558.273 843.346C562.775 837.529 566.133 829.623 569.859 823.188L592.046 787.43Z"/>
	<path fill="#FA8D30" transform="scale(0.488281 0.488281)" d="M872.047 547.733C879.951 547.024 888.397 547.919 896.25 548.838C900.445 549.33 904.81 549.473 908.955 550.246C934.708 575.612 951.587 611.168 954.806 647.14C937.828 635.004 916.109 628.449 895.678 625.407L895.431 625.061C895.664 621.476 894.647 616.79 894.162 613.177C891.008 589.677 883.467 568.487 872.047 547.733Z"/>
	<path fill="#FDD960" transform="scale(0.488281 0.488281)" d="M850.835 381.071C870.345 377.473 892.4 378.315 912.149 379.731L914.794 380.25C920.63 396.042 926.184 411.92 930.679 428.152C934.173 440.772 937.22 453.807 937.765 466.927C923.302 462.37 907.307 460.519 892.254 459.011C885.474 443.356 878.962 428.151 870.378 413.325L856.841 390.994C854.84 387.708 852.478 384.549 850.835 381.071Z"/>
	<path fill="#C13D34" transform="scale(0.488281 0.488281)" d="M811.083 629.492C839.17 621.598 866.73 622.561 895.431 625.061L895.678 625.407C896.682 638.898 896.156 652.055 894.643 665.5C894.242 669.062 894.092 673.493 892.79 676.819L890.798 677.065C887.493 676 883.236 676.397 879.773 676.366C865.779 676.243 851.631 677.665 837.89 680.294L810.905 686.38C812.254 678.912 812.497 671.051 812.598 663.476C812.753 651.967 812.301 640.929 811.083 629.492Z"/>
	<path fill="#E4BA39" transform="scale(0.488281 0.488281)" d="M810.772 628.614L811.083 629.492C812.301 640.929 812.753 651.967 812.598 663.476C812.497 671.051 812.254 678.912 810.905 686.38C790.175 691.527 769.418 698.457 749.657 706.535L727.713 716.312C724.865 717.576 721.827 719.401 718.786 720.036C720.835 701.5 721.336 683.817 719.339 665.221L719.438 664.71L737.214 655.812C748.093 650.582 759.283 645.795 770.635 641.677L795.998 633.463L806.236 630.513C807.902 630.025 809.554 629.87 810.772 628.614Z"/>
	<path fill="#33B396" transform="scale(0.488281 0.488281)" d="M689.495 156.158C695.478 157.171 701.429 159.66 707.156 161.632C731.88 170.146 756.243 180.384 779.226 192.881C784.134 195.549 789.633 198.157 794.108 201.481L794.341 202.309L709.021 223.905C686.255 209.736 662.078 197.664 637.941 186.015C630.04 182.201 621.435 179.14 613.753 175.04C618.537 172.95 623.906 171.596 628.92 170.081L656.645 162.701L689.495 156.158Z"/>
	<path fill="#33B396" transform="scale(0.488281 0.488281)" d="M874.367 295.943L906.12 358.745C908.988 365.043 913.129 372.518 914.464 379.25C913.618 379.704 913.102 379.736 912.149 379.731C892.4 378.315 870.345 377.473 850.835 381.071L850.425 380.906C847.108 374.743 842.734 369.086 838.61 363.452C830.948 352.984 822.752 342.464 813.778 333.083C806.077 325.031 797.813 317.862 789.583 310.382L789.523 310.205L874.367 295.943Z"/>
	<path fill="#D04735" transform="scale(0.488281 0.488281)" d="M871.494 547.364L872.047 547.733C883.467 568.487 891.008 589.677 894.162 613.177C894.647 616.79 895.664 621.476 895.431 625.061C866.73 622.561 839.17 621.598 811.083 629.492L810.772 628.614C808.443 610.443 803.336 593.178 795.727 576.527C793.418 571.473 791.069 566.039 788.071 561.364L788.225 561.094C790.977 560.776 793.901 559.793 796.62 559.166L814.572 555.081C833.379 551.03 852.256 548.184 871.494 547.364Z"/>
	<path fill="#FDD960" transform="scale(0.488281 0.488281)" d="M788.071 561.364C791.069 566.039 793.418 571.473 795.727 576.527C803.336 593.178 808.443 610.443 810.772 628.614C809.554 629.87 807.902 630.025 806.236 630.513L795.998 633.463L770.635 641.677C759.283 645.795 748.093 650.582 737.214 655.812L719.438 664.71L716.654 647.872C713.52 632.253 708.715 616.56 702.598 601.857L702.609 601.562C708.159 597.28 714.466 593.736 720.521 590.227C735.651 581.46 751.489 573.92 767.879 567.823C774.399 565.398 781.266 562.776 788.071 561.364Z"/>
	<path fill="#D04735" transform="scale(0.488281 0.488281)" d="M702.598 601.857C708.715 616.56 713.52 632.253 716.654 647.872L719.438 664.71L719.339 665.221C721.336 683.817 720.835 701.5 718.786 720.036L694.086 732.75C678.812 741.286 664.801 751.296 652.429 763.681C652.337 752.61 651.684 741.444 650.007 730.5C649.258 725.611 648.537 720.611 647.022 715.894L647.135 715.553L633.051 668.094L633.312 667.826C635.728 663.055 640.638 658.492 644.235 654.511C656.474 640.968 669.111 628.41 683.228 616.808L702.598 601.857Z"/>
	<path fill="#931D1F" transform="scale(0.488281 0.488281)" d="M647.135 715.553C653.876 708.772 661.734 702.519 669.345 696.744C684.957 684.897 701.966 674.283 719.339 665.221C721.336 683.817 720.835 701.5 718.786 720.036L694.086 732.75C678.812 741.286 664.801 751.296 652.429 763.681C652.337 752.61 651.684 741.444 650.007 730.5C649.258 725.611 648.537 720.611 647.022 715.894L647.135 715.553Z"/>
	<path fill="#054B75" transform="scale(0.488281 0.488281)" d="M238.101 723.237C240.806 724.428 242.977 726.617 245.371 728.323L262.973 740.432C286.871 756.018 311.402 769.116 338.128 779.169C344.203 781.454 350.464 784.055 356.839 785.339L383.741 818.943C374.299 823.874 364.857 830.496 358.267 838.973C348.41 851.655 341.492 869.837 343.769 886.056L345.734 898.022C342.925 895.474 340.332 892.763 338.019 889.75C329.563 878.731 325.43 863.723 327.304 849.933C327.897 845.566 328.625 841.183 330.063 837C334.152 825.105 342.03 814.894 349.284 804.783C335.749 809.455 322.201 813.972 310.356 822.272C295.016 833.023 284.152 849.587 281.051 868.088L280.985 868.502C280.253 866.333 279.77 864.251 279.364 862L278.659 857.294C277.861 848.76 278.775 839.632 281.564 831.496C284.475 823.001 289.445 815.426 294.613 808.158L313.674 783.688L303.5 786.479C275.643 794.643 247.751 810.7 233.584 836.949C234.114 828.628 235.519 820.123 238.445 812.292C242.521 801.383 248.991 792.083 255.853 782.785L279.287 752.844C246.537 759.872 219.334 778.01 199.806 805.069C200.13 779.292 214.012 759.611 227.879 739.087C231.192 734.183 235.423 728.956 237.921 723.637L238.101 723.237Z"/>
	<path fill="#054B75" transform="scale(0.488281 0.488281)" d="M132.081 554.874L132.472 555.56C134.132 558.624 134.694 563.274 135.541 566.693L140.282 584.123C146.883 606.839 156.339 628.413 168.988 648.412C178.85 664.005 191.299 678.803 204.02 692.141L217.208 705.193L226.682 713.464C228.122 714.708 230.116 716.095 231.021 717.787C214.42 719.66 196.147 727.928 184.203 739.613C175.191 748.429 167.642 760.335 165.088 772.788C164.119 777.514 164.047 782.204 163.997 787.012C159.243 779.857 155.89 772.297 154.587 763.759C149.491 730.384 171.254 705.982 189.459 681.039C185.144 680.548 178.321 682.509 174 683.495C144.583 690.208 110.814 704.79 94.281 731.211C96.252 702.382 117.156 679.45 133.387 657.126L150.358 631.459C149.383 631.294 146.544 632.623 145.5 632.976C133.617 636.993 123.124 641.188 112.589 648.168C91.0639 662.43 77.2672 679.831 72.0951 705.37C70.2031 697.459 68.0003 689.566 67.6031 681.391C66.9356 667.65 70.6019 653.214 77.878 641.498C83.9619 631.702 91.8994 623.618 99.9351 615.457C108.071 607.193 116.187 599.091 121.986 588.916C128.228 577.967 130.8 567.307 132.081 554.874Z"/>
	<path fill="#FDD960" transform="scale(0.488281 0.488281)" d="M794.341 202.309C797.979 203.134 801.514 206.14 804.541 208.25C826.132 223.3 842.388 244.439 856.307 266.528L874.367 295.943L789.523 310.205L759.748 286.344C745.407 275.377 730.31 265.133 714.877 255.769L689.67 241.695C685.75 239.656 681.611 237.941 677.783 235.753L677.391 235.525L709.021 223.905L794.341 202.309Z"/>
	<path fill="#FA8D30" transform="scale(0.488281 0.488281)" d="M620.793 637.876L633.312 667.826L633.051 668.094L647.135 715.553L647.022 715.894C648.537 720.611 649.258 725.611 650.007 730.5C651.684 741.444 652.337 752.61 652.429 763.681C642.173 774.454 634.386 785.608 627 798.5C623.692 804.274 620.322 810.103 618.392 816.5L618.148 817.284C617.458 819.55 617.113 821.826 616.766 824.161C612.465 820.754 609.56 815.972 606.575 811.438C601.467 803.682 596.637 795.589 592.406 787.32L592.046 787.43L569.859 823.188C566.133 829.623 562.775 837.529 558.273 843.346C551.939 828.274 548.979 812.103 546.891 795.974C545.529 790.347 545.019 784.196 544.414 778.434C545.064 777.418 544.654 775.429 544.582 774.195L543.992 762.367L544.459 734.988C547.908 731.543 550.896 727.458 553.968 723.674L571.478 701.972C574.763 696.615 579.391 691.665 583.203 686.643L608.632 653.356L620.793 637.876Z"/>
	<path fill="#DF5509" transform="scale(0.488281 0.488281)" d="M620.793 637.876L633.312 667.826L633.051 668.094C625.856 676.028 619.594 685.18 613.378 693.903L578.31 744.629C574.182 730.825 572.542 716.296 571.478 701.972C574.763 696.615 579.391 691.665 583.203 686.643L608.632 653.356L620.793 637.876Z"/>
	<path fill="#DF5509" transform="scale(0.488281 0.488281)" d="M647.022 715.894C648.537 720.611 649.258 725.611 650.007 730.5C651.684 741.444 652.337 752.61 652.429 763.681C642.173 774.454 634.386 785.608 627 798.5C623.692 804.274 620.322 810.103 618.392 816.5L618.148 817.284C617.458 819.55 617.113 821.826 616.766 824.161C612.465 820.754 609.56 815.972 606.575 811.438C601.467 803.682 596.637 795.589 592.406 787.32C598.298 777.687 605.166 768.295 611.738 759.105C622.422 744.165 633.581 728.473 647.022 715.894Z"/>
	<path fill="#FDD960" transform="scale(0.488281 0.488281)" d="M571.478 701.972C572.542 716.296 574.182 730.825 578.31 744.629L578.047 745.517L587.051 774.049C588.512 778.286 591.222 783.158 592.046 787.43L569.859 823.188C566.133 829.623 562.775 837.529 558.273 843.346C551.939 828.274 548.979 812.103 546.891 795.974C545.529 790.347 545.019 784.196 544.414 778.434C545.064 777.418 544.654 775.429 544.582 774.195L543.992 762.367L544.459 734.988C547.908 731.543 550.896 727.458 553.968 723.674L571.478 701.972Z"/>
	<path fill="#9B9419" transform="scale(0.488281 0.488281)" d="M571.478 701.972C572.542 716.296 574.182 730.825 578.31 744.629L578.047 745.517L546.891 795.974C545.529 790.347 545.019 784.196 544.414 778.434C545.064 777.418 544.654 775.429 544.582 774.195L543.992 762.367L544.459 734.988C547.908 731.543 550.896 727.458 553.968 723.674L571.478 701.972Z"/>
	<path fill="#C13D34" transform="scale(0.488281 0.488281)" d="M76.6116 340.494C80.6941 331.247 92.9638 326.543 101.92 323.481C125.951 315.264 151.942 312.315 176.806 307.473C218.617 299.33 259.918 284.985 297.164 264.228C323.554 249.521 347.301 231.886 370.564 212.684C394.376 193.029 416.93 172.174 442.72 155.011C454.148 147.405 466.316 140.186 479.139 135.178C504.686 125.199 532.103 126.667 558.904 129.042C563.517 129.451 569.965 129.025 574.15 130.888C555.074 134.466 536.918 140.469 518.989 147.814C510.621 151.195 502.595 156.089 494.807 160.653C473.748 172.996 454.1 186.763 434.482 201.25L348.177 267.364C305.023 298.486 257.681 322.457 206.75 338C191.779 342.568 176.399 345.983 161.074 349.119C143.548 352.574 126.058 355.32 108.144 355.273C100.396 355.252 92.7513 354.417 85.042 353.801C80.8561 349.712 77.9569 346.339 76.6116 340.494Z"/>
	<path fill="#FA8D30" transform="scale(0.488281 0.488281)" d="M161.074 349.119C176.399 345.983 191.779 342.568 206.75 338C257.681 322.457 305.023 298.486 348.177 267.364L434.482 201.25C454.1 186.763 473.748 172.996 494.807 160.653C502.595 156.089 510.621 151.195 518.989 147.814C519.41 148.195 519.743 148.702 520.25 148.956C521.878 149.775 525.469 149.983 527.349 150.387L550.962 155.67L590.886 167.58C598.139 170.078 605.243 173.206 612.618 175.32C598.922 180.641 585.411 186.207 572.253 192.768C536.523 210.587 502.918 233.309 471.175 257.417C444.435 277.726 418.63 299.198 390.719 317.933C342.253 350.466 288.366 374.655 231.631 388.607L231.23 388.569C226.937 384.718 220.907 382.217 215.888 379.355L176.81 357.787C171.643 354.932 165.962 352.401 161.074 349.119Z"/>
	<path fill="#099075" transform="scale(0.488281 0.488281)" d="M612.618 175.32L613.753 175.04C621.435 179.14 630.04 182.201 637.941 186.015C662.078 197.664 686.255 209.736 709.021 223.905L677.391 235.525C665.022 239.875 652.878 245.997 641.023 251.617C603.635 269.343 566.734 289.466 532.757 313.17L432.639 379.577C395.978 400.672 357.226 422.326 316.407 434.173L315.904 434.069C309.888 429.646 302.306 426.17 295.697 422.655L248.026 397.456C242.603 394.518 236.761 392.027 231.631 388.607C288.366 374.655 342.253 350.466 390.719 317.933C418.63 299.198 444.435 277.726 471.175 257.417C502.918 233.309 536.523 210.587 572.253 192.768C585.411 186.207 598.922 180.641 612.618 175.32Z"/>
	<path fill="#056E92" transform="scale(0.488281 0.488281)" d="M73.9904 349.481L74.4094 350.178C74.8888 351.03 74.9564 351.728 75.0547 352.684C76.1584 363.427 89.4407 371.337 96.6761 378.13C109.423 387.718 123.772 395.766 137.688 403.565C144.001 407.103 150.682 410.365 156.707 414.378C160.483 416.325 164.005 418.678 167.668 420.822C170.111 422.251 173.846 423.959 175.716 426.045C181.205 429.387 186.339 433.59 191.331 437.645C206.775 450.194 222.248 466.229 231.716 483.808C234.506 487.264 236.51 491.547 238.519 495.5C242.556 503.443 246.051 511.618 249.068 520C250.639 524.366 252.604 528.865 253.352 533.455L265.387 575.323L270.406 600.068C275.674 620.426 281.337 640.819 288.794 660.499L301.116 689.584L308.67 703.779C309.214 704.841 310.615 706.918 310.767 708.038L329.454 739.443L339.948 754.366C342.749 758.114 346.442 761.957 347.867 766.462C349.154 773.164 353.446 779.488 356.839 785.339C350.464 784.055 344.203 781.454 338.128 779.169C311.402 769.116 286.871 756.018 262.973 740.432L245.371 728.323C242.977 726.617 240.806 724.428 238.101 723.237C235.556 721.899 233.117 719.747 231.021 717.787C230.116 716.095 228.122 714.708 226.682 713.464L217.208 705.193L204.02 692.141C191.299 678.803 178.85 664.005 168.988 648.412C156.339 628.413 146.883 606.839 140.282 584.123L135.541 566.693C134.694 563.274 134.132 558.624 132.472 555.56L132.081 554.874C131.59 526.194 125.912 498.135 116.319 471.131C112.02 459.03 106.717 447.211 101.109 435.662C90.0024 412.787 75.3312 389.297 73.4634 363.327C73.1401 358.832 72.9126 353.896 73.9904 349.481Z"/>
	<path fill="#0B9EC2" transform="scale(0.488281 0.488281)" d="M265.387 575.323C263.024 574.111 260.897 572.075 258.755 570.472C256.956 569.126 254.759 567.879 253.258 566.219L253.592 548.232L253.026 539.031C252.933 537.97 252.472 535.941 252.653 535C252.759 534.445 253.119 533.97 253.352 533.455L265.387 575.323Z"/>
	<path fill="#0B9EC2" transform="scale(0.488281 0.488281)" d="M310.767 708.038L329.454 739.443L339.948 754.366C342.749 758.114 346.442 761.957 347.867 766.462C342.58 765.137 337.379 762.874 332.336 760.808C322.775 756.891 313.263 752.445 304.191 747.494C306.063 734.467 306.197 720.566 310.767 708.038Z"/>
	<path fill="#0B9EC2" transform="scale(0.488281 0.488281)" d="M147.754 519.272L175.651 536.047L166.86 590.883L164.303 599.541C162.244 597.293 161.025 592.996 160.044 590.118C155.1 575.619 152.833 560.866 150.88 545.719L147.754 519.272Z"/>
	<path fill="#0B9EC2" transform="scale(0.488281 0.488281)" d="M175.716 426.045C181.205 429.387 186.339 433.59 191.331 437.645C206.775 450.194 222.248 466.229 231.716 483.808C231.459 488.23 232.358 493.197 232.825 497.631L235.11 520.271C236.201 531.4 236.048 542.591 235.969 553.758L193.68 526.98C190.87 525.166 191.494 524.801 191.486 521.695C191.433 499.579 189.695 477.011 184.272 455.516C181.786 445.657 177.825 435.933 175.716 426.045Z"/>
	<path fill="#0B9EC2" transform="scale(0.488281 0.488281)" d="M96.6761 378.13C109.423 387.718 123.772 395.766 137.688 403.565C144.001 407.103 150.682 410.365 156.707 414.378C157.391 418.263 159.019 422.171 160.23 425.937L165.454 443.566C172.007 467.811 175.696 492.561 176.007 517.684L153.327 504.707C150.092 502.782 146.57 500.908 143.717 498.45C142.663 497.542 135.544 474.868 134.123 471.213C125.603 449.302 112.84 429.368 104.443 407.491C100.914 398.298 97.3678 387.981 96.6761 378.13Z"/>
	<path fill="#0B9EC2" transform="scale(0.488281 0.488281)" d="M190.31 543.903L234.309 573.391C234.602 579.44 233.078 586.557 232.249 592.576L226.827 623.748C223.024 641.373 218.532 658.722 216.944 676.75L216.523 678.25C214.246 677.85 208.001 669.911 206.407 668.006C200.549 661.008 195.331 653.35 190.218 645.8C185.324 638.574 180.206 631.123 176.203 623.362C175.757 622.496 174.258 620.351 174.175 619.502C174.042 618.133 175.585 614.115 175.955 612.59L184.92 575.859C187.273 565.307 189.323 554.677 190.31 543.903Z"/>
	<path fill="#0B9EC2" transform="scale(0.488281 0.488281)" d="M301.116 689.584C294.686 706.007 291.541 722.231 290.959 739.799C275.382 730.664 260.691 719.714 246.75 708.27C242.207 704.541 237.123 700.771 233.278 696.319C233.696 682.35 235.064 668.33 237.631 654.583L245.911 618.615C248.416 607.242 250.089 595.838 251.48 584.28C257.276 590.095 263.699 595.337 270.406 600.068C275.674 620.426 281.337 640.819 288.794 660.499L301.116 689.584Z"/>
	<path fill="#012748" transform="scale(0.488281 0.488281)" d="M76.6116 340.494C77.9569 346.339 80.8561 349.712 85.042 353.801C92.7513 354.417 100.396 355.252 108.144 355.273C126.058 355.32 143.548 352.574 161.074 349.119C165.962 352.401 171.643 354.932 176.81 357.787L215.888 379.355C220.907 382.217 226.937 384.718 231.23 388.569L231.631 388.607C236.761 392.027 242.603 394.518 248.026 397.456L295.697 422.655C302.306 426.17 309.888 429.646 315.904 434.069L316.407 434.173C350.258 452.042 380.072 479.141 407.661 505.37C412.633 510.096 418.614 514.422 422.932 519.693L423.332 519.662C425.101 522.404 428.33 524.58 430.767 526.75C446.081 540.391 463.59 553.785 482.75 561.475C490.406 564.548 498.49 565.554 506.088 568.335L444.747 623.702L432.476 633.92C430.838 635.218 428.892 637.102 427.019 638.024L427.002 638.386C431.067 639.087 434.749 641.613 438.39 643.46L455.952 652.081C463.228 655.456 470.749 658.304 478.304 660.988C490.949 665.48 503.948 668.895 517.177 671.138C522.817 672.094 529.521 671.921 534.896 673.619C506.548 706.599 477.472 738.099 444.836 766.916C437.148 773.705 428.292 782.237 419.082 786.706L429.078 801.629C430.318 806.391 432.038 810.984 433.025 815.812C434.074 820.944 434.078 825.967 434.054 831.181C434.025 837.285 433.85 843.844 432.268 849.776C412.498 844.74 397.918 833.04 383.741 818.943L356.839 785.339C353.446 779.488 349.154 773.164 347.867 766.462C346.442 761.957 342.749 758.114 339.948 754.366L329.454 739.443L310.767 708.038C310.615 706.918 309.214 704.841 308.67 703.779L301.116 689.584L288.794 660.499C281.337 640.819 275.674 620.426 270.406 600.068L265.387 575.323L253.352 533.455C252.604 528.865 250.639 524.366 249.068 520C246.051 511.618 242.556 503.443 238.519 495.5C236.51 491.547 234.506 487.264 231.716 483.808C222.248 466.229 206.775 450.194 191.331 437.645C186.339 433.59 181.205 429.387 175.716 426.045C173.846 423.959 170.111 422.251 167.668 420.822C164.005 418.678 160.483 416.325 156.707 414.378C150.682 410.365 144.001 407.103 137.688 403.565C123.772 395.766 109.423 387.718 96.6761 378.13C89.4407 371.337 76.1584 363.427 75.0547 352.684C74.9564 351.728 74.8888 351.03 74.4094 350.178L73.9904 349.481C74.1836 346.307 75.3085 343.359 76.6116 340.494Z"/>
	<path fill="#FDD960" transform="scale(0.488281 0.488281)" d="M161.074 349.119C165.962 352.401 171.643 354.932 176.81 357.787L215.888 379.355C220.907 382.217 226.937 384.718 231.23 388.569C206.532 394.791 180.917 398.164 155.423 397.58C148.984 395.462 142.523 391.85 136.509 388.739C124.316 382.43 111.978 375.887 100.925 367.7C95.2268 363.479 90.1504 358.696 85.042 353.801C92.7513 354.417 100.396 355.252 108.144 355.273C126.058 355.32 143.548 352.574 161.074 349.119Z"/>
	<path fill="#33B396" transform="scale(0.488281 0.488281)" d="M231.23 388.569L231.631 388.607C236.761 392.027 242.603 394.518 248.026 397.456L295.697 422.655C302.306 426.17 309.888 429.646 315.904 434.069L282.978 442.152C264.08 445.813 244.66 447.914 225.48 449.577L223.091 449.581C220.494 445.886 216.892 442.575 213.702 439.383C202.08 427.753 189.298 417.935 175.275 409.373C169.094 405.599 162.065 402.312 156.188 398.134L155.423 397.58C180.917 398.164 206.532 394.791 231.23 388.569Z"/>
	<path fill="#099075" transform="scale(0.488281 0.488281)" d="M321.598 555.983L321.895 556.082C330.548 565.376 339.109 574.894 348.467 583.489C363.04 596.872 379.396 608.815 395.924 619.675L414.08 630.695C418.25 633.019 423.337 635.073 427.019 638.024L427.002 638.386C397.664 660.242 368.666 681.732 335.213 697.121C334.382 696.458 333.613 694.926 333.016 694L327.366 685.062C310.192 658.36 297.468 629.63 286.689 599.842L274.79 563.952L321.598 555.983Z"/>
	<path fill="#33B396" transform="scale(0.488281 0.488281)" d="M422.932 519.693L423.332 519.662C425.101 522.404 428.33 524.58 430.767 526.75C446.081 540.391 463.59 553.785 482.75 561.475C490.406 564.548 498.49 565.554 506.088 568.335L444.747 623.702L432.476 633.92C430.838 635.218 428.892 637.102 427.019 638.024C423.337 635.073 418.25 633.019 414.08 630.695L395.924 619.675C379.396 608.815 363.04 596.872 348.467 583.489C339.109 574.894 330.548 565.376 321.895 556.082C351.723 550.507 380.434 540.12 407.746 527.057C412.775 524.652 418.109 522.462 422.932 519.693Z"/>
	<path fill="#FDD960" transform="scale(0.488281 0.488281)" d="M427.002 638.386C431.067 639.087 434.749 641.613 438.39 643.46L455.952 652.081C463.228 655.456 470.749 658.304 478.304 660.988C490.949 665.48 503.948 668.895 517.177 671.138C522.817 672.094 529.521 671.921 534.896 673.619C506.548 706.599 477.472 738.099 444.836 766.916C437.148 773.705 428.292 782.237 419.082 786.706C408.627 774.866 396.259 765.182 384.901 754.268C366.671 736.749 350.058 717.57 335.213 697.121C368.666 681.732 397.664 660.242 427.002 638.386Z"/>
	<path fill="#FDD960" transform="scale(0.488281 0.488281)" d="M315.904 434.069L316.407 434.173C350.258 452.042 380.072 479.141 407.661 505.37C412.633 510.096 418.614 514.422 422.932 519.693C418.109 522.462 412.775 524.652 407.746 527.057C380.434 540.12 351.723 550.507 321.895 556.082L321.598 555.983L274.79 563.952C268.829 545.431 263.275 526.771 255.884 508.751C247.29 487.794 236.172 468.058 223.091 449.581L225.48 449.577C244.66 447.914 264.08 445.813 282.978 442.152L315.904 434.069Z"/>
	<path fill="#FA8D30" transform="scale(0.488281 0.488281)" d="M223.091 449.581L225.48 449.577C235.051 457.64 243.783 466.789 252.33 475.917L321.598 555.983L274.79 563.952C268.829 545.431 263.275 526.771 255.884 508.751C247.29 487.794 236.172 468.058 223.091 449.581Z"/>
	<path fill="#099075" transform="scale(0.488281 0.488281)" d="M532.757 313.17C566.734 289.466 603.635 269.343 641.023 251.617C652.878 245.997 665.022 239.875 677.391 235.525L677.783 235.753C681.611 237.941 685.75 239.656 689.67 241.695L714.877 255.769C730.31 265.133 745.407 275.377 759.748 286.344L789.523 310.205L789.583 310.382C797.813 317.862 806.077 325.031 813.778 333.083C822.752 342.464 830.948 352.984 838.61 363.452C842.734 369.086 847.108 374.743 850.425 380.906C831.017 382.801 811.929 386.35 792.937 390.711L763.686 398.001C696.861 417.798 635.423 452.227 582.598 497.59L534.165 542.085C525.014 550.826 515.928 560.378 506.088 568.335C498.49 565.554 490.406 564.548 482.75 561.475C463.59 553.785 446.081 540.391 430.767 526.75C428.33 524.58 425.101 522.404 423.332 519.662L422.932 519.693C418.614 514.422 412.633 510.096 407.661 505.37C380.072 479.141 350.258 452.042 316.407 434.173C357.226 422.326 395.978 400.672 432.639 379.577L532.757 313.17Z"/>
	<path fill="#FDD960" transform="scale(0.488281 0.488281)" d="M432.639 379.577L532.757 313.17L533.309 313.311C543.459 315.808 553.83 316.574 563.921 319.672C590.389 327.798 614.37 342.429 636.907 358.181C641.462 361.364 647.084 364.558 650.873 368.606L541.223 442.855L524.308 428.778C504.493 413.071 482.245 397.576 458.728 387.998C450.207 384.528 441.316 382.525 432.639 379.577Z"/>
	<path fill="#FA8D30" transform="scale(0.488281 0.488281)" d="M432.639 379.577C441.316 382.525 450.207 384.528 458.728 387.998C482.245 397.576 504.493 413.071 524.308 428.778L541.223 442.855L491.51 477.976C469.718 492.884 447.035 507.955 423.332 519.662L422.932 519.693C418.614 514.422 412.633 510.096 407.661 505.37C380.072 479.141 350.258 452.042 316.407 434.173C357.226 422.326 395.978 400.672 432.639 379.577Z"/>
	<path fill="#FA8D30" transform="scale(0.488281 0.488281)" d="M532.757 313.17C566.734 289.466 603.635 269.343 641.023 251.617C652.878 245.997 665.022 239.875 677.391 235.525L677.783 235.753C681.611 237.941 685.75 239.656 689.67 241.695L714.877 255.769C730.31 265.133 745.407 275.377 759.748 286.344L789.523 310.205L789.583 310.382L742.479 325.543C710.839 337.13 680.174 352.024 650.873 368.606C647.084 364.558 641.462 361.364 636.907 358.181C614.37 342.429 590.389 327.798 563.921 319.672C553.83 316.574 543.459 315.808 533.309 313.311L532.757 313.17Z"/>
	<path fill="#C13D34" transform="scale(0.488281 0.488281)" d="M850.425 380.906L850.835 381.071C852.478 384.549 854.84 387.708 856.841 390.994L870.378 413.325C878.962 428.151 885.474 443.356 892.254 459.011C907.307 460.519 923.302 462.37 937.765 466.927C937.841 469.69 938.251 476.483 937.136 478.817C935.752 487.889 931.435 495.278 926.966 503.141L913.75 525.555C909.991 531.576 905.809 537.581 902.667 543.942L908.955 550.246C904.81 549.473 900.445 549.33 896.25 548.838C888.397 547.919 879.951 547.024 872.047 547.733L871.494 547.364C852.256 548.184 833.379 551.03 814.572 555.081L796.62 559.166C793.901 559.793 790.977 560.776 788.225 561.094L788.071 561.364C781.266 562.776 774.399 565.398 767.879 567.823C751.489 573.92 735.651 581.46 720.521 590.227C714.466 593.736 708.159 597.28 702.609 601.562L702.598 601.857L683.228 616.808C669.111 628.41 656.474 640.968 644.235 654.511C640.638 658.492 635.728 663.055 633.312 667.826L620.793 637.876L608.632 653.356L583.203 686.643C579.391 691.665 574.763 696.615 571.478 701.972L553.968 723.674C550.896 727.458 547.908 731.543 544.459 734.988L543.992 762.367L544.582 774.195C544.654 775.429 545.064 777.418 544.414 778.434C540.325 783.14 535.7 787.361 531.173 791.639C516.472 805.527 500.273 817.659 484.022 829.659C476.663 835.093 469.152 841.25 461 845.41C455.49 848.221 449.782 849.994 443.591 850.394C439.806 850.638 436.02 850.242 432.268 849.776C433.85 843.844 434.025 837.285 434.054 831.181C434.078 825.967 434.074 820.944 433.025 815.812C432.038 810.984 430.318 806.391 429.078 801.629L419.082 786.706C428.292 782.237 437.148 773.705 444.836 766.916C477.472 738.099 506.548 706.599 534.896 673.619C529.521 671.921 522.817 672.094 517.177 671.138C503.948 668.895 490.949 665.48 478.304 660.988C470.749 658.304 463.228 655.456 455.952 652.081L438.39 643.46C434.749 641.613 431.067 639.087 427.002 638.386L427.019 638.024C428.892 637.102 430.838 635.218 432.476 633.92L444.747 623.702L506.088 568.335C515.928 560.378 525.014 550.826 534.165 542.085L582.598 497.59C635.423 452.227 696.861 417.798 763.686 398.001L792.937 390.711C811.929 386.35 831.017 382.801 850.425 380.906Z"/>
	<path fill="#931D1F" transform="scale(0.488281 0.488281)" d="M685.851 566.555L702.609 601.562L702.598 601.857L683.228 616.808C669.111 628.41 656.474 640.968 644.235 654.511C640.638 658.492 635.728 663.055 633.312 667.826L620.793 637.876C623.246 632.928 628.505 627.998 632.026 623.725C648.942 603.195 665.585 583.911 685.851 566.555Z"/>
	<path fill="#9B9419" transform="scale(0.488281 0.488281)" d="M761.999 522.026L762.646 522.402C772.049 534.049 782.036 547.419 788.225 561.094L788.071 561.364C781.266 562.776 774.399 565.398 767.879 567.823C751.489 573.92 735.651 581.46 720.521 590.227C714.466 593.736 708.159 597.28 702.609 601.562L685.851 566.555C708.206 547.837 734.791 532.432 761.999 522.026Z"/>
	<path fill="#421316" transform="scale(0.488281 0.488281)" d="M544.459 734.988L543.992 762.367L544.582 774.195C544.654 775.429 545.064 777.418 544.414 778.434C540.325 783.14 535.7 787.361 531.173 791.639C516.472 805.527 500.273 817.659 484.022 829.659C476.663 835.093 469.152 841.25 461 845.41C455.49 848.221 449.782 849.994 443.591 850.394C439.806 850.638 436.02 850.242 432.268 849.776C433.85 843.844 434.025 837.285 434.054 831.181C434.078 825.967 434.074 820.944 433.025 815.812C432.038 810.984 430.318 806.391 429.078 801.629C435.01 804.862 441.313 808.162 448.204 808.523C459.873 809.134 470.078 805.449 479.966 799.598C500.792 787.273 515.523 768.505 531.065 750.427C535.281 745.524 539.295 739.549 544.113 735.284L544.459 734.988Z"/>
	<path fill="#421316" transform="scale(0.488281 0.488281)" d="M761.999 522.026C766.194 519.343 773.154 517.704 777.931 516.252C809.375 506.699 842.528 501.74 875.392 501.502L895.247 502.016C901.485 502.432 908.45 503.428 914.65 502.675L915.5 502.557C917.26 502.33 918.778 502.055 920.422 501.345C930.103 497.164 933.425 487.699 937.136 478.817C935.752 487.889 931.435 495.278 926.966 503.141L913.75 525.555C909.991 531.576 905.809 537.581 902.667 543.942L908.955 550.246C904.81 549.473 900.445 549.33 896.25 548.838C888.397 547.919 879.951 547.024 872.047 547.733L871.494 547.364C852.256 548.184 833.379 551.03 814.572 555.081L796.62 559.166C793.901 559.793 790.977 560.776 788.225 561.094C782.036 547.419 772.049 534.049 762.646 522.402L761.999 522.026Z"/>
	<path fill="#DF5509" transform="scale(0.488281 0.488281)" d="M848.302 516.905C853.4 517.38 858.656 517.856 863.576 519.334C878.916 523.941 890.484 534.186 902.667 543.942L908.955 550.246C904.81 549.473 900.445 549.33 896.25 548.838C888.397 547.919 879.951 547.024 872.047 547.733L871.494 547.364C870.181 544.185 867.407 540.905 865.401 538.11C860.097 530.726 854.609 523.466 848.302 516.905Z"/>
	<path fill="#931D1F" transform="scale(0.488281 0.488281)" d="M762.646 522.402C777.153 520.217 791.749 519.517 806.364 518.457C820.017 517.466 834.638 515.786 848.302 516.905C854.609 523.466 860.097 530.726 865.401 538.11C867.407 540.905 870.181 544.185 871.494 547.364C852.256 548.184 833.379 551.03 814.572 555.081L796.62 559.166C793.901 559.793 790.977 560.776 788.225 561.094C782.036 547.419 772.049 534.049 762.646 522.402Z"/>
	<path fill="#FA8D30" transform="scale(0.488281 0.488281)" d="M850.425 380.906L850.835 381.071C852.478 384.549 854.84 387.708 856.841 390.994L870.378 413.325C878.962 428.151 885.474 443.356 892.254 459.011C806.421 453.017 722.163 478.768 656.867 535.359C624.559 563.36 597.578 595.919 570.998 629.22L545.749 660.661C542.196 664.951 538.736 669.598 534.896 673.619C529.521 671.921 522.817 672.094 517.177 671.138C503.948 668.895 490.949 665.48 478.304 660.988C470.749 658.304 463.228 655.456 455.952 652.081L438.39 643.46C434.749 641.613 431.067 639.087 427.002 638.386L427.019 638.024C428.892 637.102 430.838 635.218 432.476 633.92L444.747 623.702L506.088 568.335C515.928 560.378 525.014 550.826 534.165 542.085L582.598 497.59C635.423 452.227 696.861 417.798 763.686 398.001L792.937 390.711C811.929 386.35 831.017 382.801 850.425 380.906Z"/>
</svg>
