<?xml version="1.0" encoding="utf-8" ?>
<svg xmlns="http://www.w3.org/2000/svg" xmlns:xlink="http://www.w3.org/1999/xlink" width="500" height="500">
	<path fill="#79C5A3" transform="scale(0.488281 0.488281)" d="M-0 -0L1024 0L1024 1024L-0 1024L0 -0Z"/>
	<path fill="#D63923" transform="scale(0.488281 0.488281)" d="M333.591 154.897C333.553 147.249 332.227 137.458 336.658 130.75C338.957 127.27 342.951 124.715 347.033 123.948L347.75 123.825C351.834 123.099 356.834 124.314 361.012 124.678L389.438 127.144L510.144 137.444L555.994 141.603C551.078 146.835 546.786 151.81 543.265 158.102C541.489 161.274 539.963 164.535 538.552 167.886C537.784 169.711 537.037 172.759 535.693 174.144L333.591 154.897Z"/>
	<path fill="#F06407" transform="scale(0.488281 0.488281)" d="M555.994 141.603C565.35 133.049 574.264 124.808 586.711 121.143C592.323 119.491 598.2 118.931 604 118.411C608.37 118.019 612.931 117.209 617.313 117.367C618.856 117.423 620.416 118.086 621.467 119.25C622.15 120.006 622.492 120.6 622.641 121.606C623.34 126.323 622.651 131.806 622.595 136.604L622.55 166.502L630.341 166.181L626.017 272.421C628.313 272.121 630.424 271.886 632.75 272.086C634.772 274.002 635.491 275.269 635.945 278C635.595 279.653 634.705 280.934 633.25 281.867C631.617 282.914 628.781 283.039 626.85 283.257L600.962 287.207L573.771 290.961L564.964 291.595C565.993 288.382 566.103 286.151 565.907 282.812L571.646 281.827L570.43 251.52L535.463 250.524L535.271 199.163C535.236 191.271 534.209 181.842 535.693 174.144C537.037 172.759 537.784 169.711 538.552 167.886C539.963 164.535 541.489 161.274 543.265 158.102C546.786 151.81 551.078 146.835 555.994 141.603Z"/>
	<path fill="#42CCD3" transform="scale(0.488281 0.488281)" d="M626.017 272.421C628.313 272.121 630.424 271.886 632.75 272.086C634.772 274.002 635.491 275.269 635.945 278C635.595 279.653 634.705 280.934 633.25 281.867C631.617 282.914 628.781 283.039 626.85 283.257L600.962 287.207L573.771 290.961L564.964 291.595C565.993 288.382 566.103 286.151 565.907 282.812L571.646 281.827L600.829 277.072L626.017 272.421Z"/>
	<path fill="#093B39" transform="scale(0.488281 0.488281)" d="M622.55 166.502L630.341 166.181L626.017 272.421L600.829 277.072L600.739 276.39C600.05 270.796 600.381 264.676 600.265 259.026L599.714 221.502L599.543 191.845C599.53 187.209 599.143 182.168 599.604 177.583C599.796 175.665 600.602 173.888 601.829 172.413C606.296 167.043 616.111 167.174 622.55 166.502Z"/>
	<path fill="#093B39" transform="scale(0.488281 0.488281)" d="M333.591 154.897L535.693 174.144C534.209 181.842 535.236 191.271 535.271 199.163L535.463 250.524L509.861 249.275L447.138 247.508L443.732 281.159C443.175 286.049 441.944 291.736 442.047 296.594L439.302 331.128L438.258 345.305L411.559 348.267L414.006 277.798C414.338 269.63 413.972 260.773 415.139 252.713C415.447 250.583 415.968 249.04 417.399 247.415C421.97 242.223 429.976 242.755 436.306 242.383L436.496 185.638L431.091 185.459C424.277 185.454 417.159 186.214 410.391 187.003C403.724 187.779 396.619 188.895 390.35 191.373C378.489 196.061 370.055 205.088 361.241 213.92L300.661 208.374L300.565 185C300.742 176.263 304.29 169.187 310.467 163.196C317.103 156.76 324.498 154.785 333.591 154.897Z"/>
	<path fill="#093B39" transform="scale(0.488281 0.488281)" d="M145.287 229.75L145.17 211.903C145.409 206.888 146.16 202.159 150.203 198.663C152.345 196.81 155.097 195.34 157.948 195.066C163.114 194.569 169.579 195.874 174.738 196.382L195.299 198.117L247.037 202.886L300.661 208.374L361.241 213.92C351.95 225.772 343.628 235.962 340.547 251.152L340.453 251.981L340.074 329.488L308.617 327.262L145.361 306.435C136.698 305.142 127.715 304.16 121.391 297.388C119.299 295.148 117.707 292.462 116.883 289.501C115.182 283.384 115.96 275.524 115.928 269.213C115.886 260.944 115.552 252.508 116.002 244.25C116.232 240.013 118.228 235.601 121.548 232.853C128.416 227.168 137.163 229.032 145.287 229.75Z"/>
	<path fill="#D63923" transform="scale(0.488281 0.488281)" d="M145.287 229.75L145.17 211.903C145.409 206.888 146.16 202.159 150.203 198.663C152.345 196.81 155.097 195.34 157.948 195.066C163.114 194.569 169.579 195.874 174.738 196.382L195.299 198.117L247.037 202.886L300.661 208.374L361.241 213.92C351.95 225.772 343.628 235.962 340.547 251.152C334.732 249.574 327.622 249.548 321.589 248.967L287.952 245.42L236.699 239.754L145.287 229.75Z"/>
	<path fill="#059E77" transform="scale(0.488281 0.488281)" d="M885.546 773.865L946.913 750.304C952.467 753.457 962.75 757.784 964.368 764.75C965.437 769.351 963.829 773.002 961.192 776.687C956.374 783.421 948.692 788.18 941.5 792.026C924.005 801.382 904.658 806.396 885.5 811.069L816.25 824.341L775.622 829.405C778.935 833.448 781.752 837.584 781.032 843.117C780.302 848.733 775.355 853.086 771.016 856.192C761.453 863.038 749.457 866.871 738.326 870.283C722.183 875.23 705.732 879.031 689.201 882.426C613.945 897.88 537.192 904.227 460.523 906.467C404.04 908.117 348.072 906.827 291.75 902.133C262.957 899.733 234.263 896.743 205.77 891.873C171.783 886.063 87.9983 869.603 67.5522 841.25C64.7713 837.394 63.0978 831.734 63.928 826.99C64.763 822.22 68.0093 817.298 72 814.57C72.9305 813.933 73.9648 813.433 75.0013 812.996C75.0247 817.052 74.1988 821.21 77.25 824.319C81.575 828.727 91.3676 829.23 97.2557 830.884L112.738 834.71L134.611 839.828L150.566 843.63L173.798 848.74L189.318 851.937L208.948 855.8C210.563 856.112 213.855 857.098 215.402 856.75C215.866 856.646 216.925 855.904 217.37 855.635C223.989 850.459 231.192 845.887 238.188 841.234C260.776 826.207 286.379 811.27 312.323 802.873C330.855 813.115 349.163 824.804 360.581 843.198C362.252 845.889 363.745 848.694 365.078 851.566C365.786 853.091 366.805 856.125 368.08 857.187C368.641 857.654 370.553 858.094 371.355 858.373L383.519 862.365L399.206 867.18L417.3 872.238C420.118 872.952 424.178 873.472 426.742 874.743L444.234 878.244L471.133 882.293C476.817 882.982 482.863 884.011 488.582 884.019L515.777 885.525L532.432 885.109L558.93 882.898C565.371 881.799 572.033 881.78 578.403 880.275L600.617 876.487L618.822 872.697L641.941 866.686L660.353 861.211C662.941 859.907 666.644 859.278 669.476 858.423L685.087 853.286L701.455 846.791C712.169 842.216 724.348 836.294 732.18 827.471C733.907 825.525 735.25 823.355 735.959 820.839C736.672 818.314 736.373 815.185 736.276 812.581L735.447 797.093L745.381 797.12L761.886 796.723L788.508 794.304L805.85 791.795L831.197 787.728L846.875 784.846L871.043 778.547L885.546 773.865Z"/>
	<path fill="#FAB32D" transform="scale(0.488281 0.488281)" d="M725.26 548.49C721.32 560.928 714.842 572.724 704.828 581.299C695.018 589.699 682.744 592.859 670.044 591.722C650.864 590.004 635.639 578.442 621.594 566.241C607.232 553.763 594.355 539.787 582.234 525.144C567.343 507.155 553.918 487.791 542.712 467.306C535.145 453.474 528.115 439.245 523.625 424.08C518.203 405.766 517.106 386.213 515.868 367.25L512.721 322.112L508.898 268.544C508.571 262.456 507.545 255.618 508.112 249.597L509.861 249.275L535.463 250.524L570.43 251.52L571.646 281.827L565.907 282.812C566.103 286.151 565.993 288.382 564.964 291.595L573.771 290.961L600.962 287.207L626.85 283.257L630.235 320.896C632.625 320.875 635.645 320.406 637.478 322.221C638.558 323.29 638.983 324.814 638.968 326.306C638.953 327.735 638.429 329.081 637.276 329.977C635.669 331.225 632.986 331.118 631.065 331.189L637.87 370.992C640.489 370.707 643.927 370.087 646.293 371.559C647.13 372.08 647.816 373.13 647.9 374.102C648.077 376.17 647.941 377.803 646.472 379.391C645.354 380.6 644.305 380.823 642.75 381.049L639.771 381.477L652.34 418.832C654.914 418.476 657.708 417.777 660.25 418.472C661.911 419.966 662.911 421.187 662.997 423.504C663.064 425.329 663.283 426.618 662 427.999C660.466 428.484 659.028 428.916 657.429 429.124C662.911 440.248 668.939 452.266 676.84 461.844C679.088 461.221 680.891 460.804 683.25 461.05C685.522 463.049 687.113 464.724 687.431 467.856C687.522 468.752 687.356 469.403 687.094 470.25C685.823 471.426 685.012 471.845 683.37 472.4L703.016 496.928C705.976 496.579 709.086 495.905 711.62 497.868C713.006 498.942 713.859 500.239 714.063 502C714.158 502.829 714.314 504.041 713.792 504.713C712.728 506.082 710.78 506.73 709.206 507.303C714.919 513.811 720.524 521.384 726.978 527.136C730.002 526.405 732.614 525.794 735.75 526.042C737.622 527.206 739.208 528.465 739.868 530.672C740.224 531.861 739.979 533.105 739.345 534.139C738.414 535.659 736.727 536.506 735.128 537.173C727.997 537.739 720.676 539.984 713.612 541.263C717.327 544.09 720.983 546.58 725.26 548.49Z"/>
	<path fill="#FEFDFF" transform="scale(0.488281 0.488281)" d="M588.661 433.44C587.33 435.09 585.887 436.798 584.022 437.857C581.921 439.05 579.799 439.174 577.5 438.483C575.211 437.795 573.275 435.835 572.18 433.769C570.5 430.599 569.933 427.004 571.228 423.584C572.025 421.478 573.786 419.459 575.853 418.529C577.997 417.566 581.479 417.617 583.588 418.611C586.709 420.083 588.203 422.603 589.394 425.708C589.388 428.394 589.366 430.817 588.661 433.44Z"/>
	<path fill="#020A17" transform="scale(0.488281 0.488281)" d="M577.699 421.75C578.75 421.554 579.852 421.352 580.903 421.644C582.635 422.125 584.382 423.595 585.11 425.242C585.823 426.854 585.881 429.386 585.173 431.013C584.374 432.853 583.005 433.779 581.25 434.574C580.456 434.824 579.577 434.858 578.75 434.956C576.864 434.354 575.432 433.667 574.399 431.892C573.385 430.15 573.127 427.734 573.722 425.804C574.355 423.749 575.888 422.691 577.699 421.75Z"/>
	<path fill="#FEFDFF" transform="scale(0.488281 0.488281)" d="M643.755 515.686L643.674 516.346C643.148 518.558 641.551 520.598 639.677 521.829C637.816 523.051 635.568 523.653 633.372 523.167C630.622 522.558 628.493 521.129 627.015 518.706C625.498 516.221 624.558 513.012 625.294 510.125C626.008 507.326 627.846 504.72 630.348 503.25C632.614 501.92 635.111 501.591 637.647 502.291C641.019 503.222 642.305 505.169 644.011 508.042C643.342 510.34 643.131 513.35 643.755 515.686Z"/>
	<path fill="#020A17" transform="scale(0.488281 0.488281)" d="M634.175 506.75C635.3 506.713 636.499 506.793 637.551 507.223C639.098 507.855 640.207 509.188 640.817 510.717C641.59 512.653 641.55 513.947 640.703 515.839C639.817 517.817 638.714 518.528 636.75 519.312C635.642 519.513 634.569 519.471 633.5 519.093C631.907 518.531 630.44 517.428 629.75 515.851C628.859 513.814 628.865 511.947 629.859 509.963C630.819 508.045 632.213 507.379 634.175 506.75Z"/>
	<path fill="#FEFDFF" transform="scale(0.488281 0.488281)" d="M574.524 385.04L572.959 387.25C570.998 389.64 568.469 391.661 565.25 391.784C562.612 391.884 560.222 390.891 558.31 389.087C556.25 387.142 554.671 383.657 554.697 380.805C554.721 378.081 555.978 375.316 557.955 373.461C559.953 371.587 562.542 370.796 565.25 370.973C569.121 371.225 571.13 373.228 573.576 375.914C574.631 379.079 574.66 381.755 574.524 385.04Z"/>
	<path fill="#020A17" transform="scale(0.488281 0.488281)" d="M563.575 374.75C564.448 374.785 565.407 374.801 566.25 375.04C567.617 375.427 568.936 376.752 569.553 378C570.427 379.766 570.508 381.938 569.693 383.746C568.821 385.679 567.161 386.606 565.25 387.255C563.728 387.533 562.425 387.426 561 386.75C559.604 386.088 558.661 384.794 558.25 383.328C557.707 381.39 558.009 379.572 558.968 377.829C560.065 375.837 561.456 375.294 563.575 374.75Z"/>
	<path fill="#FEFDFF" transform="scale(0.488281 0.488281)" d="M567.489 334.702C566.709 336.889 565.603 339.202 563.823 340.75C562.17 342.189 560.235 343.104 558.014 342.915C555.087 342.667 552.234 341.386 550.421 339.018C548.509 336.52 547.61 333.513 548.042 330.382C548.458 327.366 550.226 324.885 552.715 323.181C555.029 321.596 557.83 321.37 560.5 322.004C564.092 322.857 565.624 324.981 567.447 327.934L567.489 334.702Z"/>
	<path fill="#020A17" transform="scale(0.488281 0.488281)" d="M555.136 326.25C556.295 325.861 557.799 325.79 559 326.033C560.359 326.309 561.642 327.398 562.394 328.521C563.401 330.025 563.743 332.149 563.272 333.901C562.696 336.041 561.246 337.194 559.406 338.25C558.245 338.572 556.909 338.708 555.714 338.47C554.175 338.162 552.803 336.944 552.02 335.62C551.116 334.092 550.79 332.248 551.3 330.538C551.948 328.364 553.24 327.345 555.136 326.25Z"/>
	<path fill="#FEFDFF" transform="scale(0.488281 0.488281)" d="M675.685 550.588C675.599 552.013 675.143 553.483 674.481 554.75C673.359 556.901 671.054 558.89 668.709 559.554C665.941 560.336 663.371 559.975 660.925 558.446C657.364 556.22 656.35 552.608 655.362 548.819C655.911 545.969 656.683 543.637 658.7 541.47C660.573 539.459 663.184 538.005 666 538.032C669.27 538.063 671.314 539.829 673.582 541.925C675.021 544.993 675.474 547.252 675.685 550.588Z"/>
	<path fill="#020A17" transform="scale(0.488281 0.488281)" d="M665.939 542.75C666.982 542.826 668.125 542.881 669.051 543.41C670.646 544.32 671.61 545.943 672.082 547.674C672.568 549.457 672.214 551.369 671.287 552.953C670.109 554.968 668.628 555.701 666.435 556.25C665.266 556.31 664.048 556.009 663 555.484C661.489 554.726 660.436 553.112 660.035 551.5C659.503 549.358 660.024 546.948 661.296 545.16C662.425 543.574 664.129 543.091 665.939 542.75Z"/>
	<path fill="#FEFDFF" transform="scale(0.488281 0.488281)" d="M615.455 478.123C614.218 480.19 612.975 482.089 610.937 483.448C608.867 484.828 606.35 485.232 603.941 484.688C601.196 484.068 599.271 482.682 597.786 480.275C596.11 477.559 595.451 474.301 596.246 471.174C596.948 468.41 598.898 465.405 601.391 463.954C603.413 462.777 606.108 462.671 608.318 463.346C612.001 464.47 613.736 466.938 615.392 470.215C615.624 472.915 615.818 475.416 615.455 478.123Z"/>
	<path fill="#020A17" transform="scale(0.488281 0.488281)" d="M603.928 468.25C604.928 468.09 605.872 467.887 606.88 468.128C608.618 468.544 610.223 469.637 611.027 471.25C611.982 473.165 612.053 475.457 611.241 477.435C610.465 479.323 609.056 480.188 607.25 480.938C606.118 481.052 604.88 481.14 603.75 480.996C602.32 480.813 600.781 479.443 600.034 478.25C598.995 476.592 598.902 474.286 599.531 472.477C600.314 470.221 601.832 469.182 603.928 468.25Z"/>
	<path fill="#FEFDFF" transform="scale(0.488281 0.488281)" d="M564.964 291.595C564.182 292.458 563.351 293.155 562.405 293.84C559.85 295.688 557.1 296.469 553.946 295.833C551.056 295.25 548.583 293.456 547.11 290.905C545.615 288.314 544.917 285.226 545.882 282.313C546.855 279.375 548.878 276.773 551.775 275.56C554.416 274.454 557.509 274.514 560.117 275.684C563.231 277.08 564.654 279.806 565.907 282.812C566.103 286.151 565.993 288.382 564.964 291.595Z"/>
	<path fill="#020A17" transform="scale(0.488281 0.488281)" d="M554.549 278.75C555.628 278.687 556.587 278.66 557.624 279.014C559.293 279.584 560.815 281.136 561.514 282.742C562.222 284.369 562.257 286.606 561.472 288.21C560.493 290.211 558.74 291.142 556.75 291.9C555.381 292.009 554.106 292.099 552.807 291.554C551.182 290.87 549.812 289.314 549.304 287.634C548.718 285.694 548.925 283.444 550.08 281.75C551.244 280.041 552.578 279.226 554.549 278.75Z"/>
	<path fill="#093B39" transform="scale(0.488281 0.488281)" d="M681.666 510.347L709.206 507.303C714.919 513.811 720.524 521.384 726.978 527.136L705.406 533.085C696.592 526.84 689.09 518.167 681.666 510.347Z"/>
	<path fill="#42CCD3" transform="scale(0.488281 0.488281)" d="M726.978 527.136C730.002 526.405 732.614 525.794 735.75 526.042C737.622 527.206 739.208 528.465 739.868 530.672C740.224 531.861 739.979 533.105 739.345 534.139C738.414 535.659 736.727 536.506 735.128 537.173C727.997 537.739 720.676 539.984 713.612 541.263C705.69 542.586 697.844 544.573 690.065 546.553C685.344 547.755 680.206 548.782 675.685 550.588C675.474 547.252 675.021 544.993 673.582 541.925C683.865 538.67 695.618 537.709 705.406 533.085L726.978 527.136Z"/>
	<path fill="#42CCD3" transform="scale(0.488281 0.488281)" d="M703.016 496.928C705.976 496.579 709.086 495.905 711.62 497.868C713.006 498.942 713.859 500.239 714.063 502C714.158 502.829 714.314 504.041 713.792 504.713C712.728 506.082 710.78 506.73 709.206 507.303L681.666 510.347L643.755 515.686C643.131 513.35 643.342 510.34 644.011 508.042C646.683 508.23 649.822 507.399 652.478 506.962L674.963 502.254C676.844 501.1 680.981 500.828 683.17 500.468L703.016 496.928Z"/>
	<path fill="#42CCD3" transform="scale(0.488281 0.488281)" d="M652.34 418.832C654.914 418.476 657.708 417.777 660.25 418.472C661.911 419.966 662.911 421.187 662.997 423.504C663.064 425.329 663.283 426.618 662 427.999C660.466 428.484 659.028 428.916 657.429 429.124L629.25 431.379C625.565 431.612 621.649 432.093 617.969 431.911C615.099 431.015 611.192 431.841 608.194 432.038L588.661 433.44C589.366 430.817 589.388 428.394 589.394 425.708L614.43 422.721C619.075 421.48 624.374 421.355 629.176 420.935L652.34 418.832Z"/>
	<path fill="#42CCD3" transform="scale(0.488281 0.488281)" d="M676.84 461.844C679.088 461.221 680.891 460.804 683.25 461.05C685.522 463.049 687.113 464.724 687.431 467.856C687.522 468.752 687.356 469.403 687.094 470.25C685.823 471.426 685.012 471.845 683.37 472.4L649.879 475.517L615.455 478.123C615.818 475.416 615.624 472.915 615.392 470.215L643.186 465.942L676.84 461.844Z"/>
	<path fill="#42CCD3" transform="scale(0.488281 0.488281)" d="M637.87 370.992C640.489 370.707 643.927 370.087 646.293 371.559C647.13 372.08 647.816 373.13 647.9 374.102C648.077 376.17 647.941 377.803 646.472 379.391C645.354 380.6 644.305 380.823 642.75 381.049L639.771 381.477L606.235 383.502C595.932 383.983 584.786 385.678 574.524 385.04C574.66 381.755 574.631 379.079 573.576 375.914L579.069 375.482L605.193 373.453C607.03 372.556 611.823 372.75 613.998 372.604L637.87 370.992Z"/>
	<path fill="#093B39" transform="scale(0.488281 0.488281)" d="M649.879 475.517L683.37 472.4L703.016 496.928L683.17 500.468C680.981 500.828 676.844 501.1 674.963 502.254C671.421 499.311 668.384 495.688 665.268 492.308L649.879 475.517Z"/>
	<path fill="#F06407" transform="scale(0.488281 0.488281)" d="M576.898 334.423L603.011 333.213L605.193 373.453L579.069 375.482L576.898 334.423Z"/>
	<path fill="#093B39" transform="scale(0.488281 0.488281)" d="M603.011 333.213L631.065 331.189L637.87 370.992L613.998 372.604C611.823 372.75 607.03 372.556 605.193 373.453L603.011 333.213Z"/>
	<path fill="#093B39" transform="scale(0.488281 0.488281)" d="M617.969 431.911C621.649 432.093 625.565 431.612 629.25 431.379L657.429 429.124C662.911 440.248 668.939 452.266 676.84 461.844L643.186 465.942L617.969 431.911Z"/>
	<path fill="#093B39" transform="scale(0.488281 0.488281)" d="M606.235 383.502L639.771 381.477L652.34 418.832L629.176 420.935C624.374 421.355 619.075 421.48 614.43 422.721C612.097 417.593 609.9 412.268 608.681 406.75C607.017 399.217 606.667 391.194 606.235 383.502Z"/>
	<path fill="#093B39" transform="scale(0.488281 0.488281)" d="M600.962 287.207L626.85 283.257L630.235 320.896C632.625 320.875 635.645 320.406 637.478 322.221C638.558 323.29 638.983 324.814 638.968 326.306C638.953 327.735 638.429 329.081 637.276 329.977C635.669 331.225 632.986 331.118 631.065 331.189L603.011 333.213L576.898 334.423L567.489 334.702L567.447 327.934C569.928 327.253 572.978 327.273 575.564 327.055L573.771 290.961L600.962 287.207Z"/>
	<path fill="#42CCD3" transform="scale(0.488281 0.488281)" d="M630.235 320.896C632.625 320.875 635.645 320.406 637.478 322.221C638.558 323.29 638.983 324.814 638.968 326.306C638.953 327.735 638.429 329.081 637.276 329.977C635.669 331.225 632.986 331.118 631.065 331.189L603.011 333.213L576.898 334.423L567.489 334.702L567.447 327.934C569.928 327.253 572.978 327.273 575.564 327.055C584.197 325.986 593.726 326.272 602.119 324.346L630.235 320.896Z"/>
	<path fill="#F06407" transform="scale(0.488281 0.488281)" d="M573.771 290.961L600.962 287.207L602.119 324.346C593.726 326.272 584.197 325.986 575.564 327.055L573.771 290.961Z"/>
	<path fill="#AD2114" transform="scale(0.488281 0.488281)" d="M442.047 296.594C441.944 291.736 443.175 286.049 443.732 281.159L447.138 247.508L509.861 249.275L508.112 249.597C507.545 255.618 508.571 262.456 508.898 268.544L512.721 322.112L515.868 367.25C517.106 386.213 518.203 405.766 523.625 424.08C528.115 439.245 535.145 453.474 542.712 467.306C553.918 487.791 567.343 507.155 582.234 525.144C594.355 539.787 607.232 553.763 621.594 566.241C635.639 578.442 650.864 590.004 670.044 591.722C682.744 592.859 695.018 589.699 704.828 581.299C714.842 572.724 721.32 560.928 725.26 548.49C720.983 546.58 717.327 544.09 713.612 541.263C720.676 539.984 727.997 537.739 735.128 537.173L767.477 565.224L801.764 576.487C790.626 579.928 780.289 585.595 770.365 591.635C738.534 611.007 710.786 637.444 688.996 667.633C685.177 672.924 680.958 678.379 677.896 684.127L676.702 686.538C674.896 685.944 673.003 684.511 671.342 683.526C667.825 681.439 664.329 679.36 660.574 677.724C643.5 670.088 626.335 664.63 608.252 659.919L583.666 654.045L569.055 650.679C558.276 648.215 548.176 644.683 538.325 639.628C530.342 635.532 522.855 630.469 515.127 625.916L512.145 624.045C508.044 623.034 503.689 620.648 500.386 618.035L500.446 617.25L502.886 615.719L491.764 607.869C493.807 603.525 496.994 599.161 499.678 595.186C503.002 594.99 507.324 593.817 510.515 594.501L511.762 593.609C512.894 592.662 513.474 591.242 513.513 589.781C513.561 587.941 512.725 586.485 511.421 585.25C508.7 582.675 505.029 583.501 501.605 583.676C498.318 577.268 493.176 571.221 488.812 565.493C485.854 561.609 483.144 557.501 479.782 553.948C481.194 554.022 483.044 553.748 484.214 552.893C485.412 552.017 485.744 550.964 485.83 549.5C485.944 547.546 485.59 544.906 483.873 543.664C481.71 542.102 476.939 543.082 474.42 543.307L457.566 508.503C459.352 508.326 461.599 508.322 463.104 507.25C464.221 506.455 464.877 505.085 464.922 503.75C464.985 501.898 464.545 499.422 462.96 498.242C460.727 496.579 456.884 497.317 454.298 497.571L448.245 477.199C447.203 473.769 445.677 470.088 445.502 466.501C446.869 466.536 448.45 466.099 449.527 465.232C451.558 463.598 451.775 461.431 452.064 459C451.641 457.868 451.136 456.938 450.319 456.046C448.724 454.303 446.554 454.437 444.362 454.317L442.664 454.611L437.011 408.114C439.107 408.107 441.392 408.417 443.023 406.896C444.56 405.463 445.04 403.56 444.995 401.5C444.963 400.016 444.554 398.784 443.448 397.75C441.829 396.235 439.455 396.431 437.4 396.436L437.71 356.683C439.043 356.537 440.61 356.373 441.75 355.586C442.903 354.789 443.471 353.876 443.744 352.502C444.014 351.143 443.883 348.4 442.982 347.262C441.734 345.685 440.108 345.602 438.258 345.305L439.302 331.128L442.047 296.594Z"/>
	<path fill="#FBD650" transform="scale(0.488281 0.488281)" d="M505.68 483.25C506.089 483.155 506.325 483.071 506.777 483.124C508.357 483.312 509.188 484.284 510.153 485.398C510.645 486.828 510.887 488.292 510.269 489.75C509.642 491.227 508.71 491.642 507.33 492.25L506.429 492.222C505.058 492.054 503.752 491.173 503.034 490C502.201 488.638 502.377 487.476 502.609 486C503.567 484.455 504.032 484.016 505.68 483.25Z"/>
	<path fill="#FAB32D" transform="scale(0.488281 0.488281)" d="M487.361 509.75C487.903 509.657 488.167 509.586 488.757 509.622C490.472 509.728 491.243 510.649 492.372 511.75C492.875 513.285 493.199 514.427 492.591 516C491.938 517.689 490.771 518.054 489.281 518.75L487.5 518.595C486.202 518.308 485.36 517.616 484.636 516.553C483.625 515.067 483.871 513.884 484.2 512.25C485.239 510.824 485.717 510.39 487.361 509.75Z"/>
	<path fill="#FAB32D" transform="scale(0.488281 0.488281)" d="M534.387 558.75C535.406 558.55 536.728 558.408 537.75 558.709C539.066 559.096 540.275 560.272 540.865 561.507C541.605 563.055 541.544 564.924 540.863 566.478C540.214 567.962 539.154 568.46 537.75 569.04C536.765 569.353 535.501 569.339 534.5 569.06C533.019 568.649 532.019 567.562 531.291 566.25C530.533 564.882 530.642 563.037 531.161 561.602C531.714 560.075 533.005 559.405 534.387 558.75Z"/>
	<path fill="#FBD650" transform="scale(0.488281 0.488281)" d="M664.66 623.25C666.141 623.092 667.23 623.114 668.625 623.707C670.433 624.476 671.921 625.909 672.627 627.75C673.348 629.634 673.427 632.081 672.574 633.941C671.357 636.595 669.601 637.394 666.975 638.413C665.546 638.29 663.794 638.257 662.51 637.549C660.807 636.612 659.3 634.758 658.75 632.896C658.231 631.137 658.573 628.434 659.539 626.883C660.766 624.913 662.445 623.78 664.66 623.25Z"/>
	<path fill="#FAB32D" transform="scale(0.488281 0.488281)" d="M576.059 599.031L579.75 599.189C581.726 599.495 583.668 601.008 584.711 602.676C585.772 604.372 585.764 606.88 585.261 608.759C584.543 611.443 582.622 613.039 580.25 614.255C578.789 614.655 577.233 614.81 575.75 614.375C573.761 613.792 572.047 611.829 571.091 610.063C570.189 608.398 570.178 605.789 570.768 604.004C571.634 601.385 573.767 600.26 576.059 599.031Z"/>
	<path fill="#F06407" transform="scale(0.488281 0.488281)" d="M442.047 296.594C446.384 297.664 450.102 300.23 452.407 304.134C455.165 308.806 455.454 314.202 454.034 319.34C452.754 323.974 449.657 327.566 445.408 329.744C443.756 330.59 442.05 331.074 440.263 331.547L439.302 331.128L442.047 296.594Z"/>
	<path fill="#42CCD3" transform="scale(0.488281 0.488281)" d="M526.486 613.277C530.193 613.098 540.949 611.628 543.446 614.25C544.582 615.442 545.143 617.427 544.952 619.049C544.79 620.421 544.12 620.894 543.25 621.874C541.305 622.541 539.443 622.881 537.409 623.165L512.145 624.045C508.044 623.034 503.689 620.648 500.386 618.035L500.446 617.25L502.886 615.719L526.486 613.277Z"/>
	<path fill="#093B39" transform="scale(0.488281 0.488281)" d="M713.612 541.263C720.676 539.984 727.997 537.739 735.128 537.173L767.477 565.224C763.327 564.348 759.118 562.304 755.154 560.778L725.26 548.49C720.983 546.58 717.327 544.09 713.612 541.263Z"/>
	<path fill="#093B39" transform="scale(0.488281 0.488281)" d="M491.764 607.869C493.807 603.525 496.994 599.161 499.678 595.186C503.002 594.99 507.324 593.817 510.515 594.501C515.853 600.704 522.049 606.322 526.486 613.277L502.886 615.719L491.764 607.869Z"/>
	<path fill="#093B39" transform="scale(0.488281 0.488281)" d="M512.145 624.045L537.409 623.165C541.771 626.382 567.896 646.825 568.988 650.213L569.055 650.679C558.276 648.215 548.176 644.683 538.325 639.628C530.342 635.532 522.855 630.469 515.127 625.916L512.145 624.045Z"/>
	<path fill="#F06407" transform="scale(0.488281 0.488281)" d="M444.362 454.317C443.288 447.606 443.946 440.113 448.04 434.473C450.851 430.6 455.676 427.31 460.429 426.594C466.112 425.737 471.993 426.568 476.679 430.104C481.007 433.371 483.114 437.805 483.8 443.062C484.423 447.838 482.967 452.4 479.904 456.08C476.628 460.016 471.634 462.669 466.5 462.998C460.704 463.369 457.129 461.162 452.064 459C451.641 457.868 451.136 456.938 450.319 456.046C448.724 454.303 446.554 454.437 444.362 454.317Z"/>
	<path fill="#FAB32D" transform="scale(0.488281 0.488281)" d="M361.241 213.92C370.055 205.088 378.489 196.061 390.35 191.373C396.619 188.895 403.724 187.779 410.391 187.003C417.159 186.214 424.277 185.454 431.091 185.459L436.496 185.638L436.306 242.383C429.976 242.755 421.97 242.223 417.399 247.415C415.968 249.04 415.447 250.583 415.139 252.713C413.972 260.773 414.338 269.63 414.006 277.798L411.559 348.267L438.258 345.305C440.108 345.602 441.734 345.685 442.982 347.262C443.883 348.4 444.014 351.143 443.744 352.502C443.471 353.876 442.903 354.789 441.75 355.586C440.61 356.373 439.043 356.537 437.71 356.683L437.4 396.436C439.455 396.431 441.829 396.235 443.448 397.75C444.554 398.784 444.963 400.016 444.995 401.5C445.04 403.56 444.56 405.463 443.023 406.896C441.392 408.417 439.107 408.107 437.011 408.114L442.664 454.611L444.362 454.317C446.554 454.437 448.724 454.303 450.319 456.046C451.136 456.938 451.641 457.868 452.064 459C451.775 461.431 451.558 463.598 449.527 465.232C448.45 466.099 446.869 466.536 445.502 466.501C445.677 470.088 447.203 473.769 448.245 477.199L454.298 497.571C456.884 497.317 460.727 496.579 462.96 498.242C464.545 499.422 464.985 501.898 464.922 503.75C464.877 505.085 464.221 506.455 463.104 507.25C461.599 508.322 459.352 508.326 457.566 508.503L474.42 543.307C476.939 543.082 481.71 542.102 483.873 543.664C485.59 544.906 485.944 547.546 485.83 549.5C485.744 550.964 485.412 552.017 484.214 552.893C483.044 553.748 481.194 554.022 479.782 553.948C483.144 557.501 485.854 561.609 488.812 565.493C493.176 571.221 498.318 577.268 501.605 583.676C505.029 583.501 508.7 582.675 511.421 585.25C512.725 586.485 513.561 587.941 513.513 589.781C513.474 591.242 512.894 592.662 511.762 593.609L510.515 594.501C507.324 593.817 503.002 594.99 499.678 595.186C496.994 599.161 493.807 603.525 491.764 607.869L502.886 615.719L500.446 617.25L500.386 618.035C503.689 620.648 508.044 623.034 512.145 624.045L515.127 625.916C512.499 633.422 508.302 640.508 503.25 646.627L498.054 652.251C486.986 663.22 472.445 673.142 456.222 672.863C443.049 672.636 431.929 663.915 422.327 655.75C413.967 648.642 406.175 640.841 398.591 632.92C380.465 613.99 366.013 591.915 354.29 568.554C323.836 507.87 312.762 439.249 309.769 371.953L308.617 327.262L340.074 329.488L340.453 251.981L340.547 251.152C343.628 235.962 351.95 225.772 361.241 213.92Z"/>
	<path fill="#FEFDFF" transform="scale(0.488281 0.488281)" d="M469.37 635.876L468.442 638.25C467.218 640.516 464.918 642.368 462.45 643.092C459.776 643.877 456.799 643.567 454.37 642.191C451.803 640.737 449.781 637.891 449.123 635.02C448.519 632.385 448.905 629.754 450.399 627.5C452.025 625.046 454.556 623.068 457.5 622.531C460.851 621.919 462.841 622.68 465.589 624.492C468.416 628.58 469.122 630.885 469.37 635.876Z"/>
	<path fill="#020A17" transform="scale(0.488281 0.488281)" d="M458.058 626.25C459.361 625.998 460.26 626.041 461.491 626.508C463.256 627.177 464.447 628.534 465.174 630.25C466.006 632.215 465.947 634.504 465.068 636.445C464.13 638.514 462.803 639.233 460.75 640.001C459.33 640.094 457.965 640.171 456.626 639.599C455.004 638.905 453.827 637.711 453.155 636.086C452.294 634.007 452.413 632.129 453.371 630.108C454.384 627.971 455.916 627.051 458.058 626.25Z"/>
	<path fill="#FEFDFF" transform="scale(0.488281 0.488281)" d="M390.023 512.059C389.371 513.346 388.692 514.64 387.785 515.77C386.065 517.914 383.279 519.444 380.524 519.624C377.945 519.792 375.328 518.86 373.462 517.062C371.183 514.867 369.968 511.631 369.975 508.505C369.983 505.361 371.422 502.431 373.763 500.35C375.722 498.609 378.045 497.79 380.666 497.983C384.959 498.299 387.081 500.532 389.674 503.574C390.326 506.588 390.626 508.966 390.023 512.059Z"/>
	<path fill="#020A17" transform="scale(0.488281 0.488281)" d="M378.558 502.25C379.757 502.035 381.207 501.947 382.369 502.359C383.878 502.895 385.34 504.113 386.032 505.567C386.788 507.152 387.04 509.177 386.45 510.845C385.605 513.234 383.981 514.264 381.766 515.25C380.453 515.584 379.082 515.524 377.806 515.046C376.186 514.439 374.759 513.039 374.07 511.455C373.337 509.771 373.32 507.776 374.069 506.105C375.047 503.924 376.422 503.122 378.558 502.25Z"/>
	<path fill="#FEFDFF" transform="scale(0.488281 0.488281)" d="M443.683 599.041C443.088 601.331 442.07 603.643 440.379 605.346C438.341 607.399 435.107 608.659 432.222 608.501C430.005 608.379 427.962 607.389 426.47 605.75C424.302 603.369 423.125 600.222 423.298 596.999C423.454 594.078 424.841 591.119 427.139 589.27C429.687 587.219 432.509 586.467 435.75 586.971C439.28 587.521 441.051 589.86 442.932 592.648C443.42 594.822 443.64 596.814 443.683 599.041Z"/>
	<path fill="#020A17" transform="scale(0.488281 0.488281)" d="M431.356 591.25C432.703 590.95 434.492 590.72 435.828 591.17C437.304 591.666 438.679 593.205 439.271 594.603C440.132 596.641 440.086 598.854 439.219 600.879C438.384 602.829 437.131 603.731 435.25 604.549C434.082 604.932 432.876 605.094 431.673 604.758C429.846 604.247 428.293 602.977 427.494 601.252C426.67 599.472 426.684 597.179 427.366 595.351C428.124 593.322 429.484 592.203 431.356 591.25Z"/>
	<path fill="#FEFDFF" transform="scale(0.488281 0.488281)" d="M372.191 361.596C371.306 363.047 370.362 364.562 369.132 365.75C366.884 367.923 364.334 368.668 361.25 368.478C358.525 368.31 355.92 366.961 354.25 364.778C352.119 361.993 351.621 359.178 351.985 355.75C352.267 353.097 354.073 350.319 356.173 348.727C358.477 346.98 360.778 346.296 363.657 346.728C367.607 347.322 369.433 349.506 371.612 352.609C372.531 355.667 372.766 358.427 372.191 361.596Z"/>
	<path fill="#020A17" transform="scale(0.488281 0.488281)" d="M359.844 351.25C361.122 350.963 362.439 350.862 363.75 351.004C365.497 351.192 367.235 352.689 368.143 354.119C369.247 355.859 369.413 358.241 368.795 360.191C368.077 362.453 366.169 363.648 364.228 364.774C363.213 364.921 362.296 364.97 361.283 364.811C359.302 364.499 357.614 363.59 356.493 361.893C355.328 360.126 355.045 357.741 355.619 355.713C356.249 353.487 357.878 352.227 359.844 351.25Z"/>
	<path fill="#FEFDFF" transform="scale(0.488281 0.488281)" d="M372.271 411.485C370.423 414.526 368.344 417.186 364.732 418.14C361.952 418.874 358.94 418.596 356.5 417.017C354.001 415.4 352.425 412.404 352.006 409.5C351.507 406.038 352.41 402.859 354.69 400.19C356.577 397.981 359.353 396.546 362.285 396.521C366.4 396.486 368.673 398.426 371.297 401.205C372.827 404.82 372.945 407.65 372.271 411.485Z"/>
	<path fill="#020A17" transform="scale(0.488281 0.488281)" d="M361.117 400.505C362.213 400.495 363.448 400.508 364.5 400.855C366.21 401.419 367.337 402.427 368.185 404.015C369.126 405.777 369.266 408.2 368.565 410.067C367.645 412.512 365.77 413.551 363.51 414.576L360.75 414.451C358.995 414.15 357.206 412.864 356.298 411.347C355.318 409.711 355.085 406.975 355.736 405.179C356.618 402.748 358.938 401.544 361.117 400.505Z"/>
	<path fill="#FEFDFF" transform="scale(0.488281 0.488281)" d="M376.73 465.528C375.911 466.696 374.961 467.931 373.877 468.868C371.267 471.124 368.151 472.056 364.75 471.467C362.341 471.05 359.812 469.18 358.448 467.185C356.687 464.609 355.806 461.242 356.48 458.155C357.19 454.901 359.372 452.202 362.25 450.576C364.411 449.354 367.196 449.147 369.557 449.848C373.361 450.979 375.017 453.234 376.88 456.57C377.392 459.781 377.253 462.325 376.73 465.528Z"/>
	<path fill="#020A17" transform="scale(0.488281 0.488281)" d="M364.953 453.75L367.5 453.494C369.495 453.619 371.4 454.902 372.524 456.504C373.675 458.143 374.251 460.431 373.748 462.395C373.015 465.257 371.409 466.397 368.944 467.798C367.588 467.965 366.449 467.98 365.109 467.647C363.346 467.208 361.913 466.094 361.029 464.5C359.968 462.587 359.7 460.004 360.466 457.947C361.271 455.788 362.928 454.642 364.953 453.75Z"/>
	<path fill="#FEFDFF" transform="scale(0.488281 0.488281)" d="M410.553 556.474L408.911 559.5C407.349 562.06 404.398 564.028 401.476 564.63C399.105 565.118 396.545 564.74 394.5 563.435C390.712 561.019 389.656 557.277 388.691 553.17C389.434 550.581 390.146 548.111 392.045 546.094C394.047 543.968 396.738 542.68 399.692 542.685C403.956 542.691 406.192 544.477 409.052 547.422C410.338 550.591 410.935 552.982 410.553 556.474Z"/>
	<path fill="#020A17" transform="scale(0.488281 0.488281)" d="M397.745 547.25C399.024 546.877 400.691 546.938 401.994 547.17C403.427 547.426 404.839 548.573 405.644 549.75C406.816 551.465 407.259 553.477 406.803 555.508C406.281 557.829 404.129 559.343 402.242 560.489C400.551 560.866 399.437 561.052 397.75 560.558C395.931 560.025 394.298 558.685 393.529 556.936C392.8 555.277 392.787 553.101 393.448 551.423C394.329 549.189 395.631 548.241 397.745 547.25Z"/>
	<path fill="#42CCD3" transform="scale(0.488281 0.488281)" d="M438.258 345.305C440.108 345.602 441.734 345.685 442.982 347.262C443.883 348.4 444.014 351.143 443.744 352.502C443.471 353.876 442.903 354.789 441.75 355.586C440.61 356.373 439.043 356.537 437.71 356.683L411.117 358.066L372.191 361.596C372.766 358.427 372.531 355.667 371.612 352.609L411.559 348.267L438.258 345.305Z"/>
	<path fill="#42CCD3" transform="scale(0.488281 0.488281)" d="M454.298 497.571C456.884 497.317 460.727 496.579 462.96 498.242C464.545 499.422 464.985 501.898 464.922 503.75C464.877 505.085 464.221 506.455 463.104 507.25C461.599 508.322 459.352 508.326 457.566 508.503L426.729 510.266L390.023 512.059C390.626 508.966 390.326 506.588 389.674 503.574L423.895 501.021L454.298 497.571Z"/>
	<path fill="#42CCD3" transform="scale(0.488281 0.488281)" d="M474.42 543.307C476.939 543.082 481.71 542.102 483.873 543.664C485.59 544.906 485.944 547.546 485.83 549.5C485.744 550.964 485.412 552.017 484.214 552.893C483.044 553.748 481.194 554.022 479.782 553.948C476.735 552.82 470.764 554.057 467.375 554.268L446.595 555.234L410.553 556.474C410.935 552.982 410.338 550.591 409.052 547.422L441.366 546.224L474.42 543.307Z"/>
	<path fill="#42CCD3" transform="scale(0.488281 0.488281)" d="M444.362 454.317C446.554 454.437 448.724 454.303 450.319 456.046C451.136 456.938 451.641 457.868 452.064 459C451.775 461.431 451.558 463.598 449.527 465.232C448.45 466.099 446.869 466.536 445.502 466.501L444.25 465.026L416.277 465.58L376.73 465.528C377.253 462.325 377.392 459.781 376.88 456.57L414.655 455.132L442.664 454.611L444.362 454.317Z"/>
	<path fill="#42CCD3" transform="scale(0.488281 0.488281)" d="M437.4 396.436C439.455 396.431 441.829 396.235 443.448 397.75C444.554 398.784 444.963 400.016 444.995 401.5C445.04 403.56 444.56 405.463 443.023 406.896C441.392 408.417 439.107 408.107 437.011 408.114L410.883 408.993L372.271 411.485C372.945 407.65 372.827 404.82 371.297 401.205L410.965 398.481L437.4 396.436Z"/>
	<path fill="#093B39" transform="scale(0.488281 0.488281)" d="M416.277 465.58L444.25 465.026L445.502 466.501C445.677 470.088 447.203 473.769 448.245 477.199L454.298 497.571L423.895 501.021L416.277 465.58Z"/>
	<path fill="#093B39" transform="scale(0.488281 0.488281)" d="M411.117 358.066L437.71 356.683L437.4 396.436L410.965 398.481L411.117 358.066Z"/>
	<path fill="#42CCD3" transform="scale(0.488281 0.488281)" d="M501.605 583.676C505.029 583.501 508.7 582.675 511.421 585.25C512.725 586.485 513.561 587.941 513.513 589.781C513.474 591.242 512.894 592.662 511.762 593.609L510.515 594.501C507.324 593.817 503.002 594.99 499.678 595.186C496.994 599.161 493.807 603.525 491.764 607.869L469.37 635.876C469.122 630.885 468.416 628.58 465.589 624.492L483.518 602.177C481.091 600.858 478.706 598.611 476.526 596.893L443.683 599.041C443.64 596.814 443.42 594.822 442.932 592.648L469.237 588.238C472.427 587.322 476.097 586.996 479.393 586.506L501.605 583.676Z"/>
	<path fill="#093B39" transform="scale(0.488281 0.488281)" d="M476.526 596.893L488.583 595.854L483.518 602.177C481.091 600.858 478.706 598.611 476.526 596.893Z"/>
	<path fill="#093B39" transform="scale(0.488281 0.488281)" d="M446.595 555.234L467.375 554.268C470.764 554.057 476.735 552.82 479.782 553.948C483.144 557.501 485.854 561.609 488.812 565.493C493.176 571.221 498.318 577.268 501.605 583.676L479.393 586.506C476.097 586.996 472.427 587.322 469.237 588.238C466.556 585.246 464.27 581.642 461.922 578.377L446.595 555.234Z"/>
	<path fill="#093B39" transform="scale(0.488281 0.488281)" d="M426.729 510.266L457.566 508.503L474.42 543.307L441.366 546.224L426.729 510.266Z"/>
	<path fill="#093B39" transform="scale(0.488281 0.488281)" d="M410.883 408.993L437.011 408.114L442.664 454.611L414.655 455.132L410.883 408.993Z"/>
	<path fill="#020A17" transform="scale(0.488281 0.488281)" d="M801.764 576.487C806.6 576.783 811.865 579.077 816.565 580.33L856.951 591.162C861.904 592.59 866.936 595.107 871.897 596.155C901.913 608.409 922.461 629.49 935.049 659.317C939.026 668.741 942.14 680.127 942.033 690.418C944.213 690.712 947.351 690.897 948.826 692.727C950.494 694.797 956.375 738.931 955.996 741.25C955.424 744.745 953.556 746.437 950.681 748.25L946.913 750.304L885.546 773.865L871.043 778.547L846.875 784.846L831.197 787.728L805.85 791.795L788.508 794.304L761.886 796.723L745.381 797.12L735.447 797.093L736.276 812.581C736.373 815.185 736.672 818.314 735.959 820.839C735.25 823.355 733.907 825.525 732.18 827.471C724.348 836.294 712.169 842.216 701.455 846.791L685.087 853.286L669.476 858.423C666.644 859.278 662.941 859.907 660.353 861.211L641.941 866.686L618.822 872.697L600.617 876.487L578.403 880.275C572.033 881.78 565.371 881.799 558.93 882.898L532.432 885.109L515.777 885.525L488.582 884.019C482.863 884.011 476.817 882.982 471.133 882.293L444.234 878.244L426.742 874.743C424.178 873.472 420.118 872.952 417.3 872.238L399.206 867.18L383.519 862.365L371.355 858.373C370.553 858.094 368.641 857.654 368.08 857.187C366.805 856.125 365.786 853.091 365.078 851.566C363.745 848.694 362.252 845.889 360.581 843.198C349.163 824.804 330.855 813.115 312.323 802.873C286.379 811.27 260.776 826.207 238.188 841.234C231.192 845.887 223.989 850.459 217.37 855.635C216.925 855.904 215.866 856.646 215.402 856.75C213.855 857.098 210.563 856.112 208.948 855.8L189.318 851.937L173.798 848.74L150.566 843.63L134.611 839.828L112.738 834.71L97.2557 830.884C91.3676 829.23 81.575 828.727 77.25 824.319C74.1988 821.21 75.0247 817.052 75.0013 812.996L76.3446 740.456L76.4459 707.508L76.4517 697.766C76.4616 696.196 76.2791 694.331 76.8859 692.855C77.7845 690.67 80.6933 689.764 82.727 688.886L83.217 694.419C89.5753 697.136 96.3806 698.566 103.013 700.446L134.445 709.408L194.027 726.343L241.438 740.381C278.056 751.63 313.596 766.054 349.31 779.817C374.017 789.337 398.481 798.815 424.227 805.217C430.893 806.874 437.796 808.749 444.578 809.819C470.291 815.371 495.616 817.473 521.868 817.64C524.889 805.515 527.559 793.828 532.462 782.252C550.015 740.806 583.723 707.6 624.976 689.794C631.901 686.805 639.023 684.139 646.252 681.978C650.651 680.663 655.609 679.859 659.806 678.063L660.574 677.724C664.329 679.36 667.825 681.439 671.342 683.526C673.003 684.511 674.896 685.944 676.702 686.538L677.896 684.127C680.958 678.379 685.177 672.924 688.996 667.633C710.786 637.444 738.534 611.007 770.365 591.635C780.289 585.595 790.626 579.928 801.764 576.487Z"/>
	<path fill="#082835" transform="scale(0.488281 0.488281)" d="M945.302 727.75C946.545 727.668 947.541 727.894 948.75 728.129C950.114 729.233 951.005 730.234 951.764 731.834C953.102 734.652 953.414 738.278 952.234 741.195C951.249 743.633 950.14 744.597 947.75 745.555C946.708 745.966 946.068 745.758 945 745.522C943.23 744.214 942.231 742.939 941.417 740.875C940.119 737.588 939.845 733.453 941.615 730.25C942.45 728.738 943.706 728.143 945.302 727.75Z"/>
	<path fill="#082835" transform="scale(0.488281 0.488281)" d="M911.546 738.75C912.452 738.558 913.172 738.527 914.061 738.788C916.146 739.399 917.641 741.255 918.638 743.097C920.02 745.649 920.638 750.481 919.639 753.167C918.87 755.232 917.201 756.347 915.25 757.112C914.453 757.311 913.701 757.253 912.883 757.25C911.207 756.401 910.264 755.663 909.25 754.06C907.372 751.091 906.421 747.652 907.271 744.162C907.922 741.491 909.213 740.071 911.546 738.75Z"/>
	<path fill="#082835" transform="scale(0.488281 0.488281)" d="M871.043 778.547C869.769 772.249 866.143 763.685 868.768 757.454C869.362 756.045 870.744 754.456 872.25 754.023C874.208 753.461 876.527 754.218 878.124 755.344C883.108 758.855 884.373 768.238 885.546 773.865L871.043 778.547Z"/>
	<path fill="#082835" transform="scale(0.488281 0.488281)" d="M831.197 787.728C830.784 782.137 828.05 773.587 829.822 768.257L830.008 767.75C830.759 765.619 831.552 764.551 833.25 763.055C834.652 762.982 836.474 762.737 837.822 763.185C843.321 765.015 844.849 774.503 845.58 779.374C845.821 780.98 845.697 782.954 846.511 784.366L846.875 784.846L831.197 787.728Z"/>
	<path fill="#082835" transform="scale(0.488281 0.488281)" d="M745.381 797.12L744.53 777.41C749.601 776.776 754.826 777.015 759.93 777.02C760.827 783.153 760.305 790.058 761.703 795.988L761.886 796.723L745.381 797.12Z"/>
	<path fill="#082835" transform="scale(0.488281 0.488281)" d="M383.519 862.365C385.835 856.224 386.88 848.508 390.086 842.887C395.124 844.276 400.314 845.589 404.897 848.17C403.75 853.254 402.237 858.247 400.67 863.215C400.397 864.082 399.818 866.599 399.206 867.18L383.519 862.365Z"/>
	<path fill="#082835" transform="scale(0.488281 0.488281)" d="M788.508 794.304C788.553 789.322 784.564 778.916 787.293 774.785L787.676 774.25C788.749 772.664 790.102 770.678 792.034 770.034C793.924 769.405 796.793 770.13 798.345 771.301C802.811 774.671 803.69 785.933 804.624 791.25L805.85 791.795L788.508 794.304Z"/>
	<path fill="#082835" transform="scale(0.488281 0.488281)" d="M173.798 848.74L177.148 827.312L193.241 830.733L189.318 851.937L173.798 848.74Z"/>
	<path fill="#082835" transform="scale(0.488281 0.488281)" d="M134.611 839.828L135.009 839.458C135.982 838.231 135.929 835.91 136.29 834.39C137.634 828.736 138.495 822.744 140.335 817.247L154.887 821.222L150.566 843.63L134.611 839.828Z"/>
	<path fill="#082835" transform="scale(0.488281 0.488281)" d="M515.777 885.525L517.287 863.037L531.851 862.84L532.432 885.109L515.777 885.525Z"/>
	<path fill="#082835" transform="scale(0.488281 0.488281)" d="M97.2557 830.884L102.528 808.235L117.291 811.915L112.738 834.71L97.2557 830.884Z"/>
	<path fill="#082835" transform="scale(0.488281 0.488281)" d="M685.087 853.286L680.254 830.085C684.587 828.589 688.736 827.177 693.235 826.256C696.8 832.533 698.652 840.099 701.455 846.791L685.087 853.286Z"/>
	<path fill="#082835" transform="scale(0.488281 0.488281)" d="M600.617 876.487L599.911 853.739C603.998 852.169 608.778 851.546 613.085 850.776L618.822 872.697L600.617 876.487Z"/>
	<path fill="#082835" transform="scale(0.488281 0.488281)" d="M471.133 882.293L476.405 860.375L491.062 862.427L488.582 884.019C482.863 884.011 476.817 882.982 471.133 882.293Z"/>
	<path fill="#082835" transform="scale(0.488281 0.488281)" d="M558.93 882.898L559.75 882.068C559.985 875.041 558.421 867.16 557.888 860.046L573.892 858.819L577.152 879.926L578.403 880.275C572.033 881.78 565.371 881.799 558.93 882.898Z"/>
	<path fill="#082835" transform="scale(0.488281 0.488281)" d="M641.941 866.686C642.006 859.073 640.375 850.972 639.469 843.401L653.623 840.36L660.353 861.211L641.941 866.686Z"/>
	<path fill="#082835" transform="scale(0.488281 0.488281)" d="M426.742 874.743L431.15 860.581C431.792 858.397 432.214 855.585 433.352 853.626C438.102 854.323 444.856 854.76 449.082 856.963L444.234 878.244L426.742 874.743Z"/>
	<path fill="#082835" transform="scale(0.488281 0.488281)" d="M217.37 855.635L216.452 765.699C233.216 768.583 249.773 774.732 265.6 780.851C277.922 785.615 290.154 790.443 301.809 796.712C305.283 798.581 309.284 800.351 312.323 802.873C286.379 811.27 260.776 826.207 238.188 841.234C231.192 845.887 223.989 850.459 217.37 855.635Z"/>
	<path fill="#F06407" transform="scale(0.488281 0.488281)" d="M660.574 677.724C664.329 679.36 667.825 681.439 671.342 683.526C673.003 684.511 674.896 685.944 676.702 686.538C681.047 689.029 684.679 692.239 688.398 695.556C702.017 707.701 712.032 722.895 720.532 738.928C724.42 749.683 727.971 760.393 729.986 771.686C709.155 785.92 685.724 792.701 661.547 798.995C615.415 811.003 569.553 817.397 521.868 817.64C524.889 805.515 527.559 793.828 532.462 782.252C550.015 740.806 583.723 707.6 624.976 689.794C631.901 686.805 639.023 684.139 646.252 681.978C650.651 680.663 655.609 679.859 659.806 678.063L660.574 677.724Z"/>
	<path fill="#F06407" transform="scale(0.488281 0.488281)" d="M801.764 576.487C806.6 576.783 811.865 579.077 816.565 580.33L856.951 591.162C861.904 592.59 866.936 595.107 871.897 596.155C901.913 608.409 922.461 629.49 935.049 659.317C939.026 668.741 942.14 680.127 942.033 690.418C934.973 696.161 925.275 699.968 916.991 703.771C883.896 718.962 849.311 727.746 813.5 733.574C785.13 738.191 756.363 740.987 727.595 739.567L720.532 738.928C712.032 722.895 702.017 707.701 688.398 695.556C684.679 692.239 681.047 689.029 676.702 686.538L677.896 684.127C680.958 678.379 685.177 672.924 688.996 667.633C710.786 637.444 738.534 611.007 770.365 591.635C780.289 585.595 790.626 579.928 801.764 576.487Z"/>
	<path fill="#FAB32D" transform="scale(0.488281 0.488281)" d="M801.764 576.487C806.6 576.783 811.865 579.077 816.565 580.33L856.951 591.162C861.904 592.59 866.936 595.107 871.897 596.155C866.015 597.908 860 599.417 854.286 601.673C805.826 620.805 768.856 660.388 744.404 705.5L727.595 739.567L720.532 738.928C712.032 722.895 702.017 707.701 688.398 695.556C684.679 692.239 681.047 689.029 676.702 686.538L677.896 684.127C680.958 678.379 685.177 672.924 688.996 667.633C710.786 637.444 738.534 611.007 770.365 591.635C780.289 585.595 790.626 579.928 801.764 576.487Z"/>
	<path fill="#D63923" transform="scale(0.488281 0.488281)" d="M145.361 306.435L308.617 327.262L309.769 371.953C312.762 439.249 323.836 507.87 354.29 568.554C366.013 591.915 380.465 613.99 398.591 632.92C406.175 640.841 413.967 648.642 422.327 655.75C431.929 663.915 443.049 672.636 456.222 672.863C472.445 673.142 486.986 663.22 498.054 652.251L503.25 646.627C508.302 640.508 512.499 633.422 515.127 625.916C522.855 630.469 530.342 635.532 538.325 639.628C548.176 644.683 558.276 648.215 569.055 650.679L583.666 654.045L608.252 659.919C626.335 664.63 643.5 670.088 660.574 677.724L659.806 678.063C655.609 679.859 650.651 680.663 646.252 681.978C639.023 684.139 631.901 686.805 624.976 689.794C583.723 707.6 550.015 740.806 532.462 782.252C527.559 793.828 524.889 805.515 521.868 817.64C495.616 817.473 470.291 815.371 444.578 809.819C437.796 808.749 430.893 806.874 424.227 805.217C398.481 798.815 374.017 789.337 349.31 779.817C313.596 766.054 278.056 751.63 241.438 740.381L194.027 726.343L134.445 709.408L103.013 700.446C96.3806 698.566 89.5753 697.136 83.217 694.419L82.727 688.886L82.6529 688.78C80.6607 649.87 85.6492 610.789 97.0908 573.608C100.28 565.173 103.018 556.576 106.644 548.304C111.425 537.398 117.386 527.195 123.147 516.8C128.499 503.722 133.444 490.724 136.914 476.994C148.009 433.091 145.105 387.097 145.083 342.24L145.361 306.435Z"/>
	<path fill="#FBD650" transform="scale(0.488281 0.488281)" d="M268.781 424.25C270.262 424.332 271.485 424.527 272.49 425.75C273.41 426.87 273.348 427.889 273.356 429.25C272.601 430.728 272.215 431.11 270.75 431.89C269.482 432.02 268.241 431.785 267.25 430.915C265.799 429.642 266.027 428.485 266.017 426.75C266.871 425.311 267.252 424.928 268.781 424.25Z"/>
	<path fill="#FBD650" transform="scale(0.488281 0.488281)" d="M187.851 416.75C188.332 416.643 188.751 416.525 189.256 416.535C190.676 416.566 191.493 417.616 192.358 418.579C192.832 420.081 193.199 421.228 192.511 422.75C191.852 424.207 191.09 424.462 189.75 425.149L188.853 425.15C187.47 425.122 186.322 424.693 185.45 423.559C184.692 422.574 184.345 421.334 184.627 420.109C185.057 418.241 186.283 417.52 187.851 416.75Z"/>
	<path fill="#FBD650" transform="scale(0.488281 0.488281)" d="M307.722 560.75C308.304 560.773 308.935 560.77 309.5 560.93C310.957 561.343 311.594 562.386 312.348 563.565C312.603 565.252 312.844 566.665 312.042 568.25C311.303 569.71 310.146 569.993 308.75 570.521L307.305 570.519C305.578 570.358 304.572 569.005 303.59 567.75C303.416 566.719 303.19 565.624 303.524 564.6C304.207 562.507 305.811 561.542 307.722 560.75Z"/>
	<path fill="#FBD650" transform="scale(0.488281 0.488281)" d="M228.198 463.25C229.122 463.051 230.001 463.139 230.911 463.378C232.715 463.851 234.327 465.313 235.103 467C235.82 468.557 235.976 470.901 235.264 472.503C234.445 474.345 233.042 475.277 231.25 476.006C230.018 476.161 228.275 476.3 227.095 475.872C225.791 475.399 224.48 473.871 223.886 472.653C223.009 470.856 222.926 468.608 223.756 466.772C224.644 464.808 226.269 463.944 228.198 463.25Z"/>
	<path fill="#FBD650" transform="scale(0.488281 0.488281)" d="M268.608 597.25C269.777 597.005 271.384 596.759 272.552 597.062C274.459 597.558 276.019 598.516 277.029 600.25C277.979 601.879 277.954 603.899 277.41 605.658C276.752 607.786 275.628 608.701 273.733 609.75C272.269 610.153 270.356 610.249 268.869 609.924C267.035 609.523 265.589 608.276 264.704 606.648C263.867 605.108 263.731 603.234 264.278 601.57C265.038 599.257 266.488 598.242 268.608 597.25Z"/>
	<path fill="#FBD650" transform="scale(0.488281 0.488281)" d="M372.06 732.75C373.515 732.47 375.144 732.368 376.541 732.928C378.121 733.56 379.833 735.119 380.414 736.746C381.206 738.966 381.117 741.448 380.014 743.549C378.924 745.628 377.405 746.456 375.25 747.174C374.046 747.474 372.941 747.367 371.75 747.054C369.918 746.572 368.211 745.195 367.335 743.519C366.264 741.471 366.358 739.075 367.222 736.961C368.087 734.847 370.064 733.623 372.06 732.75Z"/>
	<path fill="#FBD650" transform="scale(0.488281 0.488281)" d="M357.733 678.75C358.972 678.361 359.925 678.186 361.233 678.32C363.516 678.555 365.123 679.682 366.488 681.489C367.912 683.373 368.396 685.809 367.878 688.129C367.315 690.656 365.28 692.071 363.245 693.396C361.665 693.538 359.559 693.826 358.032 693.371C356.095 692.795 354.56 691.207 353.589 689.5C352.652 687.854 352.637 685.116 353.255 683.364C354.014 681.21 355.798 679.795 357.733 678.75Z"/>
	<path fill="#FBD650" transform="scale(0.488281 0.488281)" d="M305.584 645.75C306.922 645.327 308.666 645.274 310.043 645.56C312.102 645.987 313.992 647.658 315.051 649.412C316.231 651.365 316.469 654.226 315.83 656.399C315.041 659.078 312.686 660.558 310.337 661.706C308.691 661.89 306.84 661.861 305.25 661.36C303.256 660.732 301.73 659.126 300.78 657.322C299.807 655.474 299.59 653.269 300.271 651.278C301.201 648.555 303.076 646.963 305.584 645.75Z"/>
	<path fill="#FBD650" transform="scale(0.488281 0.488281)" d="M233.144 379.131C234.332 379.295 235.591 379.439 236.68 379.977C238.774 381.01 240.25 382.888 240.907 385.1C241.549 387.261 241.452 389.762 240.283 391.75C238.715 394.417 236.659 395.366 233.75 395.952C232.347 395.907 230.936 395.744 229.682 395.064C227.653 393.961 225.621 391.529 225.123 389.25C224.612 386.918 224.958 384.633 226.361 382.696C228.052 380.359 230.421 379.599 233.144 379.131Z"/>
	<path fill="#FBD650" transform="scale(0.488281 0.488281)" d="M449.885 699.568C452.242 699.501 454.853 699.904 456.888 701.146C459.004 702.438 460.978 704.75 461.491 707.226L461.587 707.75C462.166 710.725 461.915 713.273 460.492 716C458.837 719.17 456.366 720.539 453.095 721.669C450.627 721.626 448.435 721.661 446.133 720.6C443.57 719.418 441.594 717.005 440.74 714.336C439.702 711.088 439.83 707.963 441.583 704.974C443.571 701.583 446.272 700.494 449.885 699.568Z"/>
	<path fill="#FBD650" transform="scale(0.488281 0.488281)" d="M268.856 506.154C271.632 506.399 273.967 506.825 276.467 508.144C280.841 510.45 283.492 514.308 284.739 519.008C285.718 522.696 284.807 527.659 282.805 530.826C279.778 535.614 275.798 537.368 270.52 538.613C267.092 538.528 263.67 537.946 260.725 536.07C256.956 533.669 254.294 529.648 253.515 525.251C252.687 520.576 254.182 515.58 257.025 511.843C259.932 508.021 264.325 506.753 268.856 506.154Z"/>
	<path fill="#FBD650" transform="scale(0.488281 0.488281)" d="M583.666 654.045L608.252 659.919C626.335 664.63 643.5 670.088 660.574 677.724L659.806 678.063C655.609 679.859 650.651 680.663 646.252 681.978C639.023 684.139 631.901 686.805 624.976 689.794C583.723 707.6 550.015 740.806 532.462 782.252C527.559 793.828 524.889 805.515 521.868 817.64C495.616 817.473 470.291 815.371 444.578 809.819L453.947 783C472.975 736.725 507.655 693.452 551.513 668.464C562.023 662.476 572.593 658.662 583.666 654.045Z"/>
	<path fill="#FBD650" transform="scale(0.488281 0.488281)" d="M123.147 516.8C172.162 540.913 206.514 584.216 224.025 635.559C232.898 661.574 237.642 689.404 239.879 716.752C240.517 724.542 241.362 732.568 241.438 740.381L194.027 726.343L134.445 709.408L103.013 700.446C96.3806 698.566 89.5753 697.136 83.217 694.419L82.727 688.886L82.6529 688.78C80.6607 649.87 85.6492 610.789 97.0908 573.608C100.28 565.173 103.018 556.576 106.644 548.304C111.425 537.398 117.386 527.195 123.147 516.8Z"/>
	<path fill="#AD2114" transform="scale(0.488281 0.488281)" d="M97.0908 573.608C105.748 576.634 114.176 579.825 122.237 584.255C146.318 597.489 163.972 618.171 175.823 642.701C188.411 668.756 193.375 697.601 194.027 726.343L134.445 709.408L103.013 700.446C96.3806 698.566 89.5753 697.136 83.217 694.419L82.727 688.886L82.6529 688.78C80.6607 649.87 85.6492 610.789 97.0908 573.608Z"/>
</svg>
