<?xml version="1.0" encoding="utf-8" ?>
<svg xmlns="http://www.w3.org/2000/svg" xmlns:xlink="http://www.w3.org/1999/xlink" width="500" height="500">
	<path fill="#448D9C" transform="scale(0.488281 0.488281)" d="M-0 -0L1024 0L1024 1024L-0 1024L0 -0Z"/>
	<path fill="#1B6975" transform="scale(0.488281 0.488281)" d="M201.93 779.834C204.761 779.456 206.934 780.913 209.511 781.874C213.062 783.198 218.993 785.317 222.699 784.934C225.013 784.993 227.179 785.911 229.402 786.497L240.454 789.25C242.175 789.739 244.371 790.637 246.188 790.326C258.733 792.672 271.118 794.345 283.908 794.376C287.247 794.384 290.878 794.635 294.175 794.102L294.212 794.509L282.74 796.595C261.972 799.395 237.576 795.479 218.141 788.023C212.695 785.933 206.555 783.376 201.93 779.834Z"/>
	<path fill="#502A70" transform="scale(0.488281 0.488281)" d="M108.129 582.711C101.715 570.015 97.1381 555.257 93.0362 541.632C80.5778 500.252 73.91 455.326 77.8642 412.084C78.7208 402.717 80.4974 393.401 82.156 384.146C84.1601 372.964 86.1794 362.16 89.5376 351.293C89.3047 361.706 88.1886 371.949 88.5847 382.386C88.6658 384.522 88.4384 388.233 89.615 390.011C82.523 400.104 80.731 408.872 81.295 421.005C79.5906 423.456 80.0835 427.41 80.0464 430.379C79.8039 449.797 82.9698 469.313 86.3594 488.376C90.6263 512.372 96.8003 535.373 104.423 558.503C105.878 562.918 107.673 570.819 110.794 574.128L108.129 582.711Z"/>
	<path fill="#1B6975" transform="scale(0.488281 0.488281)" d="M676.741 208.854C708.594 195.477 747.258 195.074 779.283 208.338C808.261 220.339 834.545 242.292 851.457 268.718C856.562 276.695 860.605 285.393 864.149 294.156C877.051 326.063 877.582 364.9 865.561 397.097L862.948 396.402C869.197 375.583 872.588 355.444 870.218 333.668C865.945 294.406 845.561 258.019 814.655 233.464C793.669 216.79 767.002 205.552 740.243 203.038C729.013 201.983 717.918 202.62 706.738 203.869C699.573 204.94 692.577 206.92 685.682 209.107C683.622 209.76 680.748 210.36 678.939 211.498L678.584 211.39L678.539 210.766C678.331 209.507 677.782 209.475 676.741 208.854Z"/>
	<path fill="#7C5297" transform="scale(0.488281 0.488281)" d="M117.513 283.103C118.102 280.907 120.319 277.961 121.496 275.905C127.169 265.999 133.099 256.545 139.812 247.303C143.941 241.618 147.753 236.334 152.867 231.47C148.403 241.186 143.69 250.655 140.05 260.735C134.746 275.427 131.8 290.439 129.622 305.867C127.69 319.552 126.381 333.103 126.174 346.93C126.012 357.735 127.408 368.748 126.995 379.478C122.451 378.504 117.214 378.392 112.651 379.33C110.199 379.518 107.835 379.703 105.433 380.28C99.3859 382.67 94.2237 385.372 89.615 390.011C88.4384 388.233 88.6658 384.522 88.5847 382.386C88.1886 371.949 89.3047 361.706 89.5376 351.293C93.3136 335.021 99.2691 319.309 106.407 304.225C109.834 296.982 113.237 289.902 117.513 283.103Z"/>
	<path fill="#E1671A" transform="scale(0.488281 0.488281)" d="M117.513 283.103L117.332 284.106C116.843 286.626 115.765 289.063 114.968 291.5L111.012 305.5C106.671 323.226 104.426 341.987 104.45 360.232C104.459 366.843 104.445 373.74 105.433 380.28C99.3859 382.67 94.2237 385.372 89.615 390.011C88.4384 388.233 88.6658 384.522 88.5847 382.386C88.1886 371.949 89.3047 361.706 89.5376 351.293C93.3136 335.021 99.2691 319.309 106.407 304.225C109.834 296.982 113.237 289.902 117.513 283.103Z"/>
	<path fill="#7C5297" transform="scale(0.488281 0.488281)" d="M110.794 574.128C107.673 570.819 105.878 562.918 104.423 558.503C96.8003 535.373 90.6263 512.372 86.3594 488.376C82.9698 469.313 79.8039 449.797 80.0464 430.379C80.0835 427.41 79.5906 423.456 81.295 421.005C82.8338 432.579 89.1858 440.048 98.0581 447.163C103.861 450.33 108.778 452.252 115.361 453.187C124.051 452.922 130.811 450.921 138.2 446.235C139.674 450.219 140.628 454.32 141.92 458.361C144.728 467.143 147.906 475.79 151.605 484.235C153.35 488.221 155.029 492.413 157.303 496.125C149.37 504.83 141.951 513.65 135.554 523.569L125.472 541.228L110.794 574.128Z"/>
	<path fill="#E1671A" transform="scale(0.488281 0.488281)" d="M98.0581 447.163C103.861 450.33 108.778 452.252 115.361 453.187C117.622 470.817 123.861 488.694 129.337 505.561C131.241 511.425 132.847 518.068 135.554 523.569L125.472 541.228C123.018 537.534 121.304 533.207 119.533 529.155C114.155 516.843 110.595 503.968 107.206 491C103.446 476.609 100.035 461.917 98.0581 447.163Z"/>
	<path fill="#7C5297" transform="scale(0.488281 0.488281)" d="M138.2 446.235C139.674 450.219 140.628 454.32 141.92 458.361C144.728 467.143 147.906 475.79 151.605 484.235C153.35 488.221 155.029 492.413 157.303 496.125C149.37 504.83 141.951 513.65 135.554 523.569C132.847 518.068 131.241 511.425 129.337 505.561C123.861 488.694 117.622 470.817 115.361 453.187C124.051 452.922 130.811 450.921 138.2 446.235Z"/>
	<path fill="#7C5297" transform="scale(0.488281 0.488281)" d="M182.399 199.64L188.193 194.481C194.428 189.161 220.451 168.643 227.121 169.164C217.144 179.112 208.146 189.072 200.189 200.75C176.041 236.192 165.958 280.17 165.87 322.575C165.798 357.578 171.409 392.904 181.473 426.409L193.766 461.423L170.417 482.478L157.303 496.125C155.029 492.413 153.35 488.221 151.605 484.235C147.906 475.79 144.728 467.143 141.92 458.361C140.628 454.32 139.674 450.219 138.2 446.235C130.811 450.921 124.051 452.922 115.361 453.187C108.778 452.252 103.861 450.33 98.0581 447.163C89.1858 440.048 82.8338 432.579 81.295 421.005C80.731 408.872 82.523 400.104 89.615 390.011C94.2237 385.372 99.3859 382.67 105.433 380.28C107.835 379.703 110.199 379.518 112.651 379.33C117.214 378.392 122.451 378.504 126.995 379.478C127.408 368.748 126.012 357.735 126.174 346.93C126.381 333.103 127.69 319.552 129.622 305.867C131.8 290.439 134.746 275.427 140.05 260.735C143.69 250.655 148.403 241.186 152.867 231.47C161.055 219.52 171.359 208.991 182.399 199.64Z"/>
	<path fill="#E1671A" transform="scale(0.488281 0.488281)" d="M152.078 425.751C153.636 428.085 154.041 431.115 154.81 433.786L160.299 452.662L170.417 482.478L157.303 496.125C155.029 492.413 153.35 488.221 151.605 484.235C147.906 475.79 144.728 467.143 141.92 458.361C140.628 454.32 139.674 450.219 138.2 446.235C141.387 443.542 144.603 440.82 146.583 437.088C148.824 433.539 150.649 429.695 152.078 425.751Z"/>
	<path fill="#E1671A" transform="scale(0.488281 0.488281)" d="M182.399 199.64C182.079 203.085 177.037 208.936 175.037 211.976L166.954 225.261C158.797 240.11 152.399 257.665 149.073 274.281C143.034 304.451 141.415 334.66 143.739 365.325L145.638 382L147.216 390.874C147.506 392.35 148.029 393.878 147.828 395.381C142.393 388.988 137.279 384.54 129.33 381.698C128.001 381.163 127.809 380.626 126.995 379.478C127.408 368.748 126.012 357.735 126.174 346.93C126.381 333.103 127.69 319.552 129.622 305.867C131.8 290.439 134.746 275.427 140.05 260.735C143.69 250.655 148.403 241.186 152.867 231.47C161.055 219.52 171.359 208.991 182.399 199.64Z"/>
	<path fill="#1782B5" transform="scale(0.488281 0.488281)" d="M112.651 379.33C117.214 378.392 122.451 378.504 126.995 379.478C127.809 380.626 128.001 381.163 129.33 381.698C137.279 384.54 142.393 388.988 147.828 395.381C151.225 402.008 153.136 408.275 153.086 415.789L152.078 425.751C150.649 429.695 148.824 433.539 146.583 437.088C144.603 440.82 141.387 443.542 138.2 446.235C130.811 450.921 124.051 452.922 115.361 453.187C108.778 452.252 103.861 450.33 98.0581 447.163C89.1858 440.048 82.8338 432.579 81.295 421.005C80.731 408.872 82.523 400.104 89.615 390.011C94.2237 385.372 99.3859 382.67 105.433 380.28C107.835 379.703 110.199 379.518 112.651 379.33Z"/>
	<path fill="#14578C" transform="scale(0.488281 0.488281)" d="M105.433 380.28C107.835 379.703 110.199 379.518 112.651 379.33L112.241 379.685C110.076 381.528 107.615 382.731 105.317 384.374C98.349 389.353 94.4982 396.628 92.4507 404.75L92.2001 405.694C90.0577 413.986 91.2246 422.127 95.5972 429.501L97.8437 432.656L98.2718 433.22C102.898 439.217 109.041 443.131 116.5 444.531L117.198 444.672C121.464 445.469 126.294 445.127 130.5 444.161L131.414 443.957C137.527 442.541 140.553 438.954 145.755 436.25L145.777 436.988C146.045 437.028 146.312 437.095 146.583 437.088C144.603 440.82 141.387 443.542 138.2 446.235C130.811 450.921 124.051 452.922 115.361 453.187C108.778 452.252 103.861 450.33 98.0581 447.163C89.1858 440.048 82.8338 432.579 81.295 421.005C80.731 408.872 82.523 400.104 89.615 390.011C94.2237 385.372 99.3859 382.67 105.433 380.28Z"/>
	<path fill="#25A6D1" transform="scale(0.488281 0.488281)" d="M153.086 415.789C150.317 421.113 146.386 425.867 140.784 428.358L140.107 428.653C138.585 429.338 137.141 429.913 135.522 430.349C128.659 432.197 121.241 431.412 115.153 427.662C108.938 423.833 104.122 417.388 102.421 410.257C100.885 403.822 101.473 397.532 105.15 391.884C108.019 387.476 113.363 383.995 118.461 382.956L119.25 382.802C122.619 382.104 125.901 381.895 129.33 381.698C137.279 384.54 142.393 388.988 147.828 395.381C151.225 402.008 153.136 408.275 153.086 415.789Z"/>
	<path fill="#56CADD" transform="scale(0.488281 0.488281)" d="M125.678 386.68C128.902 386.5 132.17 386.821 135.203 387.998C139.906 389.821 144.861 393.104 146.849 397.95L147.064 398.5C147.893 400.579 148.32 402.755 147.901 405C147.329 408.064 145.068 409.684 142.637 411.264C139.362 411.894 136.864 412.255 133.612 411.095C128.639 409.319 124.471 405.834 122.301 400.953C120.881 397.759 120.276 393.705 121.727 390.388C122.613 388.364 123.656 387.487 125.678 386.68Z"/>
	<path fill="#FBB517" transform="scale(0.488281 0.488281)" d="M227.121 169.164L245.698 154.69C288.119 125.818 343.234 117.793 393.439 121.031C406.283 121.859 419.271 123.183 431.924 125.594C431.338 126.759 431.229 126.599 430 127.046C424.895 128.901 419.596 130.038 414.518 132.101C404.929 135.996 394.707 142.76 387.567 150.274C386.256 151.652 384.488 153.292 383.62 154.991L383.424 155.471C333.697 157.376 283.306 172.273 248.633 209.797C235.368 224.153 224.94 241.34 218.27 259.703C216.559 264.412 214.683 269.483 213.688 274.387C202.762 318.743 209.295 363.244 223.308 406.144C226.303 415.313 229.234 425.25 233.435 433.922L232.743 434.396C228.74 437.074 224.187 439.263 220.041 441.776C210.965 447.277 201.441 454.02 193.766 461.423L181.473 426.409C171.409 392.904 165.798 357.578 165.87 322.575C165.958 280.17 176.041 236.192 200.189 200.75C208.146 189.072 217.144 179.112 227.121 169.164Z"/>
	<path fill="#502A70" transform="scale(0.488281 0.488281)" d="M431.924 125.594C440.864 126.409 450.004 128.644 458.779 130.574C505.649 140.884 550.628 159.237 592.384 182.767L622.094 200.712C629.907 194.979 645.477 183.659 655.454 185.425C661.345 186.467 663.798 189.398 666.934 194.15C670.035 198.848 672.965 204.737 676.741 208.854C677.782 209.475 678.331 209.507 678.539 210.766L678.584 211.39C671.399 213.878 664.72 217.622 658.226 221.54C651.752 225.446 645.269 229.63 639.513 234.55C625.55 246.487 614.461 262.221 606.51 278.672C598.224 295.813 592.713 315.224 590.871 334.18C589.72 333.045 587.562 332.217 586.114 331.437L576.853 326.404L552.704 312.752C550.139 311.343 547.398 309.266 544.628 308.427C538.887 322.767 537.813 339.726 538.025 355.011L538.614 369.141C537.543 368.097 536.199 367.131 534.989 366.25C526.984 360.424 518.303 355.373 509.802 350.319L465.101 326.031C420.219 304.024 374.452 286.798 325.25 277.298C300.17 272.456 273.733 269.491 248.15 270.533C236.496 271.008 225.179 272.522 213.688 274.387C214.683 269.483 216.559 264.412 218.27 259.703C224.94 241.34 235.368 224.153 248.633 209.797C283.306 172.273 333.697 157.376 383.424 155.471L383.62 154.991C384.488 153.292 386.256 151.652 387.567 150.274C394.707 142.76 404.929 135.996 414.518 132.101C419.596 130.038 424.895 128.901 430 127.046C431.229 126.599 431.338 126.759 431.924 125.594Z"/>
	<path fill="#7C5297" transform="scale(0.488281 0.488281)" d="M296.861 241.976L249.728 244.906C251.461 241.607 255.115 238.258 257.716 235.616C275.813 217.231 296.14 200.9 315.727 184.147L324.114 176.84C325.013 176.055 326.212 174.688 327.334 174.366C331.191 173.259 336.408 173.335 340.448 172.951C353.001 171.759 365.486 170.34 378.113 170.264L354.489 190.38L316.75 222.755C310.359 228.363 301.514 234.82 296.861 241.976Z"/>
	<path fill="#FDE257" transform="scale(0.488281 0.488281)" d="M431.924 125.594C440.864 126.409 450.004 128.644 458.779 130.574C505.649 140.884 550.628 159.237 592.384 182.767L583.714 190.476C577.984 195.965 573.463 201.695 569.663 208.669C556.121 200.855 541.851 194.078 527.54 187.818C482.141 167.958 433.158 155.361 383.424 155.471L383.62 154.991C384.488 153.292 386.256 151.652 387.567 150.274C394.707 142.76 404.929 135.996 414.518 132.101C419.596 130.038 424.895 128.901 430 127.046C431.229 126.599 431.338 126.759 431.924 125.594Z"/>
	<path fill="#14578C" transform="scale(0.488281 0.488281)" d="M592.384 182.767L622.094 200.712C629.907 194.979 645.477 183.659 655.454 185.425C661.345 186.467 663.798 189.398 666.934 194.15C670.035 198.848 672.965 204.737 676.741 208.854C677.782 209.475 678.331 209.507 678.539 210.766L678.584 211.39C671.399 213.878 664.72 217.622 658.226 221.54C651.752 225.446 645.269 229.63 639.513 234.55C625.55 246.487 614.461 262.221 606.51 278.672C598.224 295.813 592.713 315.224 590.871 334.18C589.72 333.045 587.562 332.217 586.114 331.437L576.853 326.404L552.704 312.752C550.139 311.343 547.398 309.266 544.628 308.427L544.924 307.934C546.147 302.134 548.351 296.451 550.462 290.925C557.056 273.661 565.434 258.523 576.285 243.603C581.384 236.59 587.393 228.992 594.182 223.531C586.717 217.86 577.818 213.298 569.663 208.669C573.463 201.695 577.984 195.965 583.714 190.476L592.384 182.767Z"/>
	<defs>
		<linearGradient id="gradient_0" gradientUnits="userSpaceOnUse" x1="577.28638" y1="255.76151" x2="571.08154" y2="251.72539">
			<stop offset="0" stop-color="#1F6CCD"/>
			<stop offset="1" stop-color="#2784D1"/>
		</linearGradient>
	</defs>
	<path fill="url(#gradient_0)" transform="scale(0.488281 0.488281)" d="M613.87 207.032C613.766 207.532 613.794 208.079 613.559 208.533C613.256 209.117 611.915 210.053 611.386 210.543L604.713 216.66C599.933 221.06 595.62 226.326 591.447 231.314C578.653 246.605 567.652 262.012 558.441 279.715L550.037 297.75C548.596 300.994 547.516 305.449 544.924 307.934C546.147 302.134 548.351 296.451 550.462 290.925C557.056 273.661 565.434 258.523 576.285 243.603C581.384 236.59 587.393 228.992 594.182 223.531C596.738 221.72 599.091 218.888 601.43 216.726C605.321 213.128 609.48 209.992 613.87 207.032Z"/>
	<path fill="#FBB517" transform="scale(0.488281 0.488281)" d="M592.384 182.767L622.094 200.712L613.87 207.032C609.48 209.992 605.321 213.128 601.43 216.726C599.091 218.888 596.738 221.72 594.182 223.531C586.717 217.86 577.818 213.298 569.663 208.669C573.463 201.695 577.984 195.965 583.714 190.476L592.384 182.767Z"/>
	<path fill="#7C5297" transform="scale(0.488281 0.488281)" d="M378.113 170.264L407.076 171.107L431.853 174.162C452.213 177.621 472.664 182.65 492.152 189.527C519.469 199.165 544.895 212.106 569.976 226.433C550.236 244.552 535.054 265.798 524.777 290.605L516.642 312.889C458.038 276.288 391.481 250.09 322.308 243.59L296.861 241.976C301.514 234.82 310.359 228.363 316.75 222.755L354.489 190.38L378.113 170.264Z"/>
	<path fill="#AD74BB" transform="scale(0.488281 0.488281)" d="M378.113 170.264L407.076 171.107C406.27 174.305 392.211 184.496 388.954 187.126L341.06 226.418C334.909 231.653 327.162 237.148 322.308 243.59L296.861 241.976C301.514 234.82 310.359 228.363 316.75 222.755L354.489 190.38L378.113 170.264Z"/>
	<path fill="#7C5297" transform="scale(0.488281 0.488281)" d="M427.269 736.1L454.823 699.219C463.941 708.272 474.594 716.343 485.048 723.809C530.329 756.15 582.674 778.068 636.034 793.039C646.357 795.936 656.887 799.325 667.449 801.171L667.396 801.337C699.934 809.221 734.029 811.567 767.263 807.635C809.985 802.58 851.513 784.731 883.076 755.17C891.808 746.992 899.335 737.912 906.74 728.541C902.804 738.626 895.786 748.451 890.126 757.65C886.594 763.39 883.331 769.589 879.322 774.995C874.441 784.134 866.685 792.282 859.922 800.072C853.821 811.316 842.621 821.219 833.44 830.019C817.959 844.857 801.853 858.684 784.263 870.986C759.112 888.576 730.929 901.995 701.564 910.775C643.309 928.194 581.785 927.467 522.614 915.245L500.784 910.618C463.809 901.176 427.547 886.373 394.053 868.141L331.029 827.412C347.464 821.881 361.864 807.179 374.484 795.739L388.527 781.864L411.028 755.895L427.269 736.1Z"/>
	<path fill="#F1941E" transform="scale(0.488281 0.488281)" d="M576.399 823.283C580.011 820.251 583.501 817.868 587.933 816.187C596.184 813.059 605.659 813.756 613.614 817.226C621.496 820.415 628.509 826.061 632.55 833.68L633.198 834.244C635.641 840.775 637.15 847.238 636.066 854.224C651.609 857.643 668.271 857.311 684.103 857.855C686.274 869.077 691.318 876.669 700.737 883.019L701.848 883.763C704.449 885.062 707.171 886.114 709.973 886.897C720.749 889.905 730.416 887.016 739.873 881.749L740.418 881.686C744.13 881.211 747.728 880.048 751.322 879.037C761.039 876.304 770.41 872.65 779.501 868.266C784.052 866.072 788.481 863.318 793.163 861.45C787.363 866.477 781.281 870.098 774.697 873.953C753.395 886.425 730.589 893.791 706.152 897.299C696.128 899.56 685.346 900.429 675.089 901.121C646.806 903.027 619.591 901.749 591.663 896.993C583.236 895.558 574.599 894.134 566.379 891.751L566.71 891.253C562.146 886.796 558.678 882.382 556.865 876.155L556.648 875.394C555.907 872.853 555.912 870.636 555.957 868.022L556.431 868.113C557.307 861.643 557.703 856.714 562.03 851.423C562.55 847.035 563.549 842.911 564.778 838.673C567.255 833.269 570.201 828.783 574.777 824.943L576.399 823.283Z"/>
	<path fill="#CA4262" transform="scale(0.488281 0.488281)" d="M636.066 854.224C651.609 857.643 668.271 857.311 684.103 857.855C686.274 869.077 691.318 876.669 700.737 883.019L701.848 883.763C699.536 885.231 696.92 885.714 694.258 886.219C673.11 889.469 649.937 887.428 628.787 884.712C625.141 884.244 621.47 884.367 618.088 882.754L623.971 877.662C629.141 871.993 632.864 866.471 634.755 858.989L636.066 854.224Z"/>
	<path fill="#56CADD" transform="scale(0.488281 0.488281)" d="M576.399 823.283C580.011 820.251 583.501 817.868 587.933 816.187C596.184 813.059 605.659 813.756 613.614 817.226C621.496 820.415 628.509 826.061 632.55 833.68L633.198 834.244C635.641 840.775 637.15 847.238 636.066 854.224L634.755 858.989C632.864 866.471 629.141 871.993 623.971 877.662L618.088 882.754C609.904 887.118 602.996 889.997 593.584 888.284C581.975 886.172 573.521 880.164 566.923 870.596C563.549 870.488 559.49 869.53 556.431 868.113C557.307 861.643 557.703 856.714 562.03 851.423C562.55 847.035 563.549 842.911 564.778 838.673C567.255 833.269 570.201 828.783 574.777 824.943L576.399 823.283Z"/>
	<path fill="#ECF2ED" transform="scale(0.488281 0.488281)" d="M604.373 825.117C606.957 825.002 610.283 825.371 612.546 826.704C615.521 828.457 618.309 831.822 619.003 835.25C619.35 836.962 619.421 838.985 618.308 840.444C616.6 842.68 613.935 843.012 611.337 843.388C607.96 843.102 605.147 842.652 602.052 841.204C599.638 840.074 596.882 837.934 596.128 835.25C595.525 833.102 595.866 830.778 597.123 828.923C598.778 826.479 601.673 825.706 604.373 825.117Z"/>
	<path fill="#1782B5" transform="scale(0.488281 0.488281)" d="M576.399 823.283C580.011 820.251 583.501 817.868 587.933 816.187C596.184 813.059 605.659 813.756 613.614 817.226C609.036 816.567 603.971 816.628 599.5 817.864C593.084 819.637 587.316 822.537 583.836 828.495C580.08 834.925 580.159 842.92 582.176 849.918C583.97 856.143 587.573 861.35 592.556 865.394L593.206 865.929C599.645 871.128 607.496 872.746 615.601 871.871C622.654 871.11 628.207 867.567 632.52 862.049L634.755 858.989C632.864 866.471 629.141 871.993 623.971 877.662L618.088 882.754C609.904 887.118 602.996 889.997 593.584 888.284C581.975 886.172 573.521 880.164 566.923 870.596C563.549 870.488 559.49 869.53 556.431 868.113C557.307 861.643 557.703 856.714 562.03 851.423C562.55 847.035 563.549 842.911 564.778 838.673C567.255 833.269 570.201 828.783 574.777 824.943L576.399 823.283Z"/>
	<path fill="#14578C" transform="scale(0.488281 0.488281)" d="M564.778 838.673C567.255 833.269 570.201 828.783 574.777 824.943L574.707 825.491C574.204 829.076 572.39 832.597 571.391 836.125C568.409 846.655 570.298 857.582 576.35 866.646L576.798 867.34C579.038 870.722 582.553 874.347 586 876.479C594.339 881.636 603.329 883.773 613.014 881.569C617.094 880.641 619.72 877.48 623.971 877.662L618.088 882.754C609.904 887.118 602.996 889.997 593.584 888.284C581.975 886.172 573.521 880.164 566.923 870.596C563.549 870.488 559.49 869.53 556.431 868.113C557.307 861.643 557.703 856.714 562.03 851.423C562.55 847.035 563.549 842.911 564.778 838.673Z"/>
	<path fill="#CA4262" transform="scale(0.488281 0.488281)" d="M562.03 851.423C562.509 858.747 564.015 863.917 566.923 870.596C563.549 870.488 559.49 869.53 556.431 868.113C557.307 861.643 557.703 856.714 562.03 851.423Z"/>
	<path fill="#FBB517" transform="scale(0.488281 0.488281)" d="M411.028 755.895L457.593 791.523L458.567 790.681C461.9 787.067 465.629 784.556 470.145 782.665C473.369 780.775 476.966 780.056 480.591 779.368C490.928 780.268 499.919 781.903 506.949 790.25L511.665 796.858C513.76 802.052 515.411 807.116 515.844 812.738L515.819 818.63L516.008 820C518.551 821.291 521.625 822.115 524.297 823.264L564.778 838.673C563.549 842.911 562.55 847.035 562.03 851.423C557.703 856.714 557.307 861.643 556.431 868.113L555.957 868.022C555.912 870.636 555.907 872.853 556.648 875.394L556.865 876.155C558.678 882.382 562.146 886.796 566.71 891.253L566.379 891.751C559.22 890.703 551.999 888.575 544.979 886.776C492.049 873.212 441.872 846.49 397.981 814.262C389.972 808.382 381.775 802.501 374.484 795.739L388.527 781.864L411.028 755.895Z"/>
	<path fill="#AD74BB" transform="scale(0.488281 0.488281)" d="M512.004 832.139C513.872 827.892 515.312 823.253 515.819 818.63L516.008 820C518.551 821.291 521.625 822.115 524.297 823.264L564.778 838.673C563.549 842.911 562.55 847.035 562.03 851.423C557.703 856.714 557.307 861.643 556.431 868.113L555.957 868.022C550.925 866.156 545.574 864.872 540.445 863.238L515.496 854.373C510.062 852.362 504.498 850.553 499.255 848.078C504.744 843.964 509.377 838.488 512.004 832.139Z"/>
	<defs>
		<linearGradient id="gradient_1" gradientUnits="userSpaceOnUse" x1="463.392" y1="846.78369" x2="484.86087" y2="809.57556">
			<stop offset="0" stop-color="#0A7187"/>
			<stop offset="1" stop-color="#17639E"/>
		</linearGradient>
	</defs>
	<path fill="url(#gradient_1)" transform="scale(0.488281 0.488281)" d="M470.145 782.665C468.093 785.106 465.857 787.438 464.469 790.331C462.158 797.448 461.672 803.183 465.023 810.128C468.832 818.019 476.292 825.121 484.71 827.808C490.674 829.712 498.339 830.074 504.099 827.228L505.145 826.657L505.648 826.399C511.511 823.24 512.747 817.975 515.844 812.738L515.819 818.63C515.312 823.253 513.872 827.892 512.004 832.139C509.377 838.488 504.744 843.964 499.255 848.078C496.063 849.634 492.826 850.853 489.374 851.707C479.492 854.153 470.556 852.471 462.004 847.149C452.223 841.061 448.113 831.997 445.68 821.159L445.597 818.5C445.74 807.378 449.742 799.166 457.593 791.523L458.567 790.681C461.9 787.067 465.629 784.556 470.145 782.665Z"/>
	<path fill="#25A6D1" transform="scale(0.488281 0.488281)" d="M470.145 782.665C468.093 785.106 465.857 787.438 464.469 790.331C462.158 797.448 461.672 803.183 465.023 810.128C468.832 818.019 476.292 825.121 484.71 827.808C490.674 829.712 498.339 830.074 504.099 827.228L505.145 826.657L505.648 826.399C511.511 823.24 512.747 817.975 515.844 812.738L515.819 818.63C515.312 823.253 513.872 827.892 512.004 832.139C509.565 833.406 507.503 835.424 505.25 836.988C502.043 839.213 498.1 840.798 494.25 841.454C486.011 842.857 476.972 840.997 470.163 836.059C462.117 830.224 456.369 820.143 454.842 810.387C453.875 804.21 455.808 797.069 459.515 792.046L458.567 790.681C461.9 787.067 465.629 784.556 470.145 782.665Z"/>
	<path fill="#AD74BB" transform="scale(0.488281 0.488281)" d="M411.028 755.895L457.593 791.523C449.742 799.166 445.74 807.378 445.597 818.5L445.68 821.159C441.384 819.178 437.216 816.126 433.207 813.57L388.527 781.864L411.028 755.895Z"/>
	<path fill="#56CADD" transform="scale(0.488281 0.488281)" d="M480.591 779.368C490.928 780.268 499.919 781.903 506.949 790.25L511.665 796.858C513.76 802.052 515.411 807.116 515.844 812.738C512.747 817.975 511.511 823.24 505.648 826.399L505.145 826.657L504.099 827.228C498.339 830.074 490.674 829.712 484.71 827.808C476.292 825.121 468.832 818.019 465.023 810.128C461.672 803.183 462.158 797.448 464.469 790.331C465.857 787.438 468.093 785.106 470.145 782.665C473.369 780.775 476.966 780.056 480.591 779.368Z"/>
	<path fill="#ECF2ED" transform="scale(0.488281 0.488281)" d="M486.945 785.199C490.222 785.427 492.895 785.813 495.75 787.598C499.425 789.894 502.008 794.009 502.756 798.252C503.173 800.622 502.754 803.43 501.267 805.375C499.508 807.676 497.076 808.062 494.374 808.513C491.387 808.004 488.749 807.299 486.148 805.643C482.2 803.13 479.18 799.394 478.326 794.721C477.938 792.598 478.068 790.283 479.418 788.496C481.389 785.886 483.883 785.568 486.945 785.199Z"/>
	<path fill="#7C5297" transform="scale(0.488281 0.488281)" d="M667.396 801.337C699.934 809.221 734.029 811.567 767.263 807.635C809.985 802.58 851.513 784.731 883.076 755.17C891.808 746.992 899.335 737.912 906.74 728.541C902.804 738.626 895.786 748.451 890.126 757.65C886.594 763.39 883.331 769.589 879.322 774.995C874.441 784.134 866.685 792.282 859.922 800.072C850.681 808.218 842.105 816.751 832.021 823.92C826.158 828.088 819.658 831.609 813.312 834.989C798.062 843.11 782.489 849.523 765.869 854.259C762.137 855.323 757.77 856.918 753.901 857.154L753.668 857.409C753.199 861.495 751.795 864.846 749.452 868.21C746.843 873.4 742.666 876.906 739.873 881.749C730.416 887.016 720.749 889.905 709.973 886.897C707.171 886.114 704.449 885.062 701.848 883.763L700.737 883.019C691.318 876.669 686.274 869.077 684.103 857.855C668.271 857.311 651.609 857.643 636.066 854.224C637.15 847.238 635.641 840.775 633.198 834.244L632.55 833.68C639.633 828.553 646.436 822.465 652.734 816.398L661.589 807.613C663.273 805.805 665.164 802.142 667.396 801.337Z"/>
	<path fill="#F1941E" transform="scale(0.488281 0.488281)" d="M633.198 834.244C645.524 835.187 657.89 837.719 670.197 839.162L680.134 839.951C681.905 840.052 684.149 839.893 685.817 840.417C683.952 846.173 683.413 851.839 684.103 857.855C668.271 857.311 651.609 857.643 636.066 854.224C637.15 847.238 635.641 840.775 633.198 834.244Z"/>
	<path fill="#F1941E" transform="scale(0.488281 0.488281)" d="M752.101 838.384C754.964 837.334 758.69 837.147 761.719 836.589L776.562 833.311C799.445 827.681 820.955 818.677 840.785 805.966C848.306 801.146 855.433 795.703 862.264 789.955L872.231 780.89C874.443 778.767 876.522 776.316 879.322 774.995C874.441 784.134 866.685 792.282 859.922 800.072C850.681 808.218 842.105 816.751 832.021 823.92C826.158 828.088 819.658 831.609 813.312 834.989C798.062 843.11 782.489 849.523 765.869 854.259C762.137 855.323 757.77 856.918 753.901 857.154C754.588 850.377 754.043 844.904 752.101 838.384Z"/>
	<path fill="#56CADD" transform="scale(0.488281 0.488281)" d="M721.634 820.574C730.07 819.821 737.682 821.365 744.273 827.078C747.724 830.069 750.801 833.951 752.101 838.384C754.043 844.904 754.588 850.377 753.901 857.154L753.668 857.409C753.199 861.495 751.795 864.846 749.452 868.21C746.843 873.4 742.666 876.906 739.873 881.749C730.416 887.016 720.749 889.905 709.973 886.897C707.171 886.114 704.449 885.062 701.848 883.763L700.737 883.019C691.318 876.669 686.274 869.077 684.103 857.855C683.413 851.839 683.952 846.173 685.817 840.417C686.646 839.198 687.036 837.601 687.822 836.302C689.366 833.752 691.432 831.525 693.645 829.545C701.421 822.59 711.449 819.996 721.634 820.574Z"/>
	<path fill="#ECF2ED" transform="scale(0.488281 0.488281)" d="M729.288 825.185L729.646 825.171C732.354 825.226 736.162 825.206 738.137 827.311C741.214 830.589 742.753 839.387 742.501 843.812C742.399 845.601 741.805 846.901 740.444 848.072C737.713 850.421 734.22 850.051 730.889 849.93C727.69 849.036 725.098 847.983 722.474 845.896C718.902 843.055 716.666 838.978 716.187 834.458C715.994 832.636 716.15 830.555 717.43 829.127C720.267 825.961 725.313 825.54 729.288 825.185Z"/>
	<defs>
		<linearGradient id="gradient_2" gradientUnits="userSpaceOnUse" x1="748.06323" y1="861.76099" x2="684.74841" y2="846.6488">
			<stop offset="0" stop-color="#117A91"/>
			<stop offset="1" stop-color="#136799"/>
		</linearGradient>
	</defs>
	<path fill="url(#gradient_2)" transform="scale(0.488281 0.488281)" d="M685.817 840.417C686.646 839.198 687.036 837.601 687.822 836.302C689.366 833.752 691.432 831.525 693.645 829.545C701.421 822.59 711.449 819.996 721.634 820.574L710.462 824.658C705.676 829.491 702.898 833.935 702.966 840.99C703.041 848.66 707.115 855.682 712.532 860.849C717.581 865.665 724.757 868.601 731.779 868.44C737.835 868.301 744.664 866.257 748.952 861.762C750.4 860.244 751.644 858.194 753.668 857.409C753.199 861.495 751.795 864.846 749.452 868.21C746.843 873.4 742.666 876.906 739.873 881.749C730.416 887.016 720.749 889.905 709.973 886.897C707.171 886.114 704.449 885.062 701.848 883.763L700.737 883.019C691.318 876.669 686.274 869.077 684.103 857.855C683.413 851.839 683.952 846.173 685.817 840.417Z"/>
	<path fill="#25A6D1" transform="scale(0.488281 0.488281)" d="M749.452 868.21L742.067 873.82C735.385 878.022 726.111 880.905 718.219 878.982C710.878 877.194 703.051 871.656 699.099 865.159C696.439 860.784 694.518 856.502 693.718 851.408C692.785 845.465 694.36 837.548 698.1 832.75C700.948 829.097 705.793 825.293 710.462 824.658C705.676 829.491 702.898 833.935 702.966 840.99C703.041 848.66 707.115 855.682 712.532 860.849C717.581 865.665 724.757 868.601 731.779 868.44C737.835 868.301 744.664 866.257 748.952 861.762C750.4 860.244 751.644 858.194 753.668 857.409C753.199 861.495 751.795 864.846 749.452 868.21Z"/>
	<path fill="#AD74BB" transform="scale(0.488281 0.488281)" d="M427.269 736.1L454.823 699.219C463.941 708.272 474.594 716.343 485.048 723.809C530.329 756.15 582.674 778.068 636.034 793.039C646.357 795.936 656.887 799.325 667.449 801.171L667.396 801.337C665.164 802.142 663.273 805.805 661.589 807.613L652.734 816.398C646.436 822.465 639.633 828.553 632.55 833.68C628.509 826.061 621.496 820.415 613.614 817.226C605.659 813.756 596.184 813.059 587.933 816.187C583.501 817.868 580.011 820.251 576.399 823.283L574.777 824.943C570.201 828.783 567.255 833.269 564.778 838.673L524.297 823.264C521.625 822.115 518.551 821.291 516.008 820L515.819 818.63L515.844 812.738C515.411 807.116 513.76 802.052 511.665 796.858L506.949 790.25C499.919 781.903 490.928 780.268 480.591 779.368C476.966 780.056 473.369 780.775 470.145 782.665C465.629 784.556 461.9 787.067 458.567 790.681L457.593 791.523L411.028 755.895L427.269 736.1Z"/>
	<path fill="#F1941E" transform="scale(0.488281 0.488281)" d="M511.665 796.858C515.225 797.8 518.634 799.616 522 801.114L537.471 807.765L576.399 823.283L574.777 824.943C570.201 828.783 567.255 833.269 564.778 838.673L524.297 823.264C521.625 822.115 518.551 821.291 516.008 820L515.819 818.63L515.844 812.738C515.411 807.116 513.76 802.052 511.665 796.858Z"/>
	<path fill="#F1941E" transform="scale(0.488281 0.488281)" d="M427.269 736.1C437.337 745.399 447.52 754.603 458.404 762.948L472.235 773.095C474.952 775.024 478.297 776.958 480.591 779.368C476.966 780.056 473.369 780.775 470.145 782.665C465.629 784.556 461.9 787.067 458.567 790.681L457.593 791.523L411.028 755.895L427.269 736.1Z"/>
	<path fill="#07956F" transform="scale(0.488281 0.488281)" d="M706.738 203.869C717.918 202.62 729.013 201.983 740.243 203.038C767.002 205.552 793.669 216.79 814.655 233.464C845.561 258.019 865.945 294.406 870.218 333.668C872.588 355.444 869.197 375.583 862.948 396.402L865.561 397.097C871.95 402.945 876.945 407.516 879.567 416L879.814 416.761C880.56 419.174 881.436 423.951 880.564 426.323C880.338 430.159 879.533 433.774 878.422 437.442C877.64 440.021 875.828 443.854 876.087 446.477C874.56 450.092 871.554 452.927 868.746 455.583L852.194 470.472C850.166 472.333 847.561 474.236 845.961 476.43C844.779 477.977 843.634 479.348 842.207 480.674L796.817 520.812C783.438 532.353 769.977 545.862 754.458 554.399C752.292 555.131 750.581 555.687 748.252 555.653C748.996 554.934 748.721 555.137 749.41 554.653L751.927 552.751C758.48 547.085 760.429 538.264 761.116 530.006C760.204 517.99 753.21 506.861 746.384 497.255C744.168 498.626 741.518 499.516 739.122 500.572C730.167 504.52 721.05 507.166 711.357 508.414L701.5 509.691C668.305 512.886 633.364 497.876 607.25 478.324C578.699 456.948 553.233 426.085 542.97 391.509C540.792 384.169 539.723 376.693 538.614 369.141L538.025 355.011C537.813 339.726 538.887 322.767 544.628 308.427C547.398 309.266 550.139 311.343 552.704 312.752L576.853 326.404L586.114 331.437C587.562 332.217 589.72 333.045 590.871 334.18C592.713 315.224 598.224 295.813 606.51 278.672C614.461 262.221 625.55 246.487 639.513 234.55C645.269 229.63 651.752 225.446 658.226 221.54C664.72 217.622 671.399 213.878 678.584 211.39L678.939 211.498C680.748 210.36 683.622 209.76 685.682 209.107C692.577 206.92 699.573 204.94 706.738 203.869Z"/>
	<path fill="#0FB48C" transform="scale(0.488281 0.488281)" d="M678.939 211.498C680.748 210.36 683.622 209.76 685.682 209.107C692.577 206.92 699.573 204.94 706.738 203.869L708.683 213.598C700.463 215.08 690.634 216.598 683.004 220.048L682.559 219.914C681.763 217.018 680.194 214.224 678.939 211.498Z"/>
	<path fill="#FDE257" transform="scale(0.488281 0.488281)" d="M706.308 268.912C706.607 255.356 708.923 241.622 712.304 228.497C713.031 225.672 713.909 221.359 715.49 218.956C716.236 217.823 716.504 217.824 717.75 217.526L719.527 218.966C717.803 223.427 718.855 230.389 718.74 235.256L717.777 271.997C718.665 272.908 718.134 272.685 719.344 272.726C714.92 273.297 710.792 273.902 706.577 275.458L706.308 268.912Z"/>
	<path fill="#FDE257" transform="scale(0.488281 0.488281)" d="M719.527 218.966C728.894 234.869 734.454 254.822 737.258 272.987L719.344 272.726C718.134 272.685 718.665 272.908 717.777 271.997L718.74 235.256C718.855 230.389 717.803 223.427 719.527 218.966Z"/>
	<path fill="#FDE257" transform="scale(0.488281 0.488281)" d="M746.35 275.087C753.757 261.019 762.979 248.556 773.97 237.113C775.877 235.128 779.086 231.346 781.803 230.649C782.658 230.43 782.795 230.617 783.573 230.904C784.85 232.625 784.575 234.614 784.505 236.67C784.316 242.237 783.674 247.94 782.867 253.451C781.043 265.898 778.486 277.904 773.898 289.653C765.553 283.417 756.401 278.05 746.35 275.087Z"/>
	<path fill="#FDE257" transform="scale(0.488281 0.488281)" d="M779.349 294.567C793.134 287.427 807.463 281.404 822.719 278.173C825.779 277.525 829.623 276.383 832.706 277.262C833.995 277.629 834.253 277.993 835.031 279C834.713 283.303 830.586 287.307 827.91 290.488C820.33 299.497 812.371 307.97 803.443 315.673L796.155 321.275C791.852 310.997 786.948 302.712 779.349 294.567Z"/>
	<path fill="#FDE257" transform="scale(0.488281 0.488281)" d="M711.341 421.473C718.76 422.366 726.112 422.614 733.547 421.709L745.402 419.548L746.25 419.475C744.746 435.947 739.871 453.344 734.439 468.958C733.197 472.529 731.939 477.305 729.558 480.242L728.053 480.383C725.1 474.451 723.32 467.576 721.366 461.252C717.296 448.085 713.467 435.111 711.341 421.473Z"/>
	<path fill="#FDE257" transform="scale(0.488281 0.488281)" d="M798.634 329.818C815.767 330.381 834.311 333.022 850.74 337.928C852.87 338.564 856.638 339.325 858.25 340.832C859.302 341.814 859.024 342.956 859.028 344.25C855.524 347.115 850.404 348.723 846.173 350.26C831.151 355.717 815.605 359.127 799.775 361.14C801.66 350.663 800.522 340.178 798.634 329.818Z"/>
	<path fill="#FDE257" transform="scale(0.488281 0.488281)" d="M798.52 366.537C812.078 377.044 824.315 389.732 835.178 403.004C837.556 405.91 841.214 409.579 842.146 413.25C841.865 414.184 841.66 414.5 840.895 415.106C833.574 414.559 826.937 412.653 819.939 410.544C807.15 406.689 795.096 401.691 782.741 396.689C790.334 388.805 795.428 376.909 798.52 366.537Z"/>
	<path fill="#FDE257" transform="scale(0.488281 0.488281)" d="M776.042 402.471C778.095 404.74 779.437 408.458 780.75 411.222C786.419 423.15 791.637 435.98 794.428 448.914C795.042 451.761 795.992 455.1 796.005 458.001C796.012 459.544 795.273 461.546 794.062 462.515L793.5 462.874C789.549 461.155 786.02 457.844 782.745 455.058C770.191 444.379 758.13 431.733 748.704 418.176C751.189 417.71 753.887 416.384 756.186 415.344C763.83 411.886 769.615 407.768 776.042 402.471Z"/>
	<path fill="#0E7D5B" transform="scale(0.488281 0.488281)" d="M670.311 398.888C672.867 401.303 676.277 403.876 678.331 406.655C670.824 420.916 664.457 436.403 661.418 452.297C660.985 454.561 660.061 457.567 660.677 459.823L660.941 460.545C656.053 459.456 650.08 453.955 646.341 450.656C637.604 442.947 629.639 434.227 623.165 424.521C621.57 422.13 619.235 419.19 619.059 416.276C623.306 416.358 628.307 414.465 632.36 413.294C644.821 409.692 659.216 405.699 670.311 398.888Z"/>
	<path fill="#0E7D5B" transform="scale(0.488281 0.488281)" d="M599.963 354.132C616.719 359.194 633.53 362.63 650.99 364.034C652.06 367.243 653.699 370.843 654.322 374.143C658.173 382.328 663.558 392.75 670.311 398.888C659.216 405.699 644.821 409.692 632.36 413.294C628.307 414.465 623.306 416.358 619.059 416.276L618.505 415.442C615.238 412.259 613.689 407.925 611.932 403.787C606.171 390.225 602.839 376.964 600.437 362.5C599.967 359.669 599.945 356.991 599.963 354.132Z"/>
	<path fill="#FBB517" transform="scale(0.488281 0.488281)" d="M654.322 374.143C658.173 382.328 663.558 392.75 670.311 398.888C659.216 405.699 644.821 409.692 632.36 413.294C628.307 414.465 623.306 416.358 619.059 416.276L618.505 415.442L618.556 415.239C619.024 411.901 622.111 408.509 624.114 405.865C632.924 394.243 643.024 383.379 654.322 374.143Z"/>
	<path fill="#0E7D5B" transform="scale(0.488281 0.488281)" d="M678.331 406.655L678.876 406.954C681.218 408.269 683.197 410.287 685.528 411.697C692.096 415.67 698.999 418.381 706.274 420.719L711.341 421.473C713.467 435.111 717.296 448.085 721.366 461.252C723.32 467.576 725.1 474.451 728.053 480.383C724.072 480.784 719.666 480.271 715.683 479.867C699.889 478.266 685.027 474.368 670.83 467.167C667.129 465.289 663.631 463.823 660.941 460.545L660.677 459.823C660.061 457.567 660.985 454.561 661.418 452.297C664.457 436.403 670.824 420.916 678.331 406.655Z"/>
	<path fill="#FBB517" transform="scale(0.488281 0.488281)" d="M678.331 406.655L678.876 406.954C681.218 408.269 683.197 410.287 685.528 411.697C692.096 415.67 698.999 418.381 706.274 420.719C700.536 428.807 671.554 459.157 662.533 460.502C661.936 460.591 661.574 460.554 660.941 460.545L660.677 459.823C660.061 457.567 660.985 454.561 661.418 452.297C664.457 436.403 670.824 420.916 678.331 406.655Z"/>
	<path fill="#1AD9BB" transform="scale(0.488281 0.488281)" d="M706.738 203.869C717.918 202.62 729.013 201.983 740.243 203.038C767.002 205.552 793.669 216.79 814.655 233.464C845.561 258.019 865.945 294.406 870.218 333.668C872.588 355.444 869.197 375.583 862.948 396.402C852.242 430.128 828.17 459.372 796.666 475.642L780.334 483.133C769.171 486.956 758.583 489.47 746.912 491.279C745.344 488.392 743.197 484.165 742.553 480.937C750.745 480.073 758.673 478.856 766.628 476.635C777.169 473.691 786.728 469.076 796.055 463.435C816.1 451.309 831.825 435.954 843.292 415.372C857.672 387.274 864.122 356.101 858.632 324.78C852.342 288.893 832.295 257.194 802.328 236.34C775.965 217.994 740.708 207.873 708.683 213.598L706.738 203.869Z"/>
	<path fill="#0E7D5B" transform="scale(0.488281 0.488281)" d="M682.559 219.914L683.004 220.048C684.948 226.1 687.642 231.929 690.124 237.779C693.327 245.33 696.501 252.925 700.294 260.203C701.67 262.843 703.001 266.218 705 268.424L706.308 268.912L706.577 275.458L704.615 276.205C702.132 276.694 700.107 277.379 697.802 278.405C688.868 281.835 682.106 286.159 674.611 292.109C672.576 294.182 670.495 296.634 668.202 298.403C662.308 305.097 656.197 314.111 653.66 322.795L650.264 334.039C649.709 338.897 649.107 343.857 649.186 348.75C649.269 353.91 650.211 358.951 650.99 364.034C633.53 362.63 616.719 359.194 599.963 354.132L599.642 351.997L599.489 351.858C599.516 345.791 599.142 339.796 599.54 333.716C600.591 317.666 605.746 300.502 612.128 285.815C625.369 255.338 652.029 232.01 682.559 219.914Z"/>
	<path fill="#FBB517" transform="scale(0.488281 0.488281)" d="M653.66 322.795C643.752 316.947 634.75 310.016 626.101 302.457C623.157 299.885 613.729 292.566 613.472 288.75C613.835 288.042 613.951 287.298 614.744 287.009C617.429 286.031 621.506 286.635 624.313 286.892C638.704 288.206 655.262 291.834 668.202 298.403C662.308 305.097 656.197 314.111 653.66 322.795Z"/>
	<path fill="#FBB517" transform="scale(0.488281 0.488281)" d="M650.264 334.039C649.709 338.897 649.107 343.857 649.186 348.75C649.269 353.91 650.211 358.951 650.99 364.034C633.53 362.63 616.719 359.194 599.963 354.132L599.642 351.997L600.051 350.5C602.436 348.313 606.147 346.856 609.082 345.515C622.018 339.603 636.12 335.525 650.264 334.039Z"/>
	<path fill="#FBB517" transform="scale(0.488281 0.488281)" d="M674.611 292.109C667.105 280.73 660.578 268.94 655.544 256.242C654.14 252.7 650.426 244.477 651.96 240.934C653.438 240.309 653.879 239.862 655.5 240.427C658.661 241.529 661.954 244.249 664.726 246.175C672.962 251.895 680.618 258.051 687.641 265.224C691.611 269.279 695.265 273.269 697.802 278.405C688.868 281.835 682.106 286.159 674.611 292.109Z"/>
	<path fill="#0B594A" transform="scale(0.488281 0.488281)" d="M544.628 308.427C547.398 309.266 550.139 311.343 552.704 312.752L576.853 326.404L586.114 331.437C587.562 332.217 589.72 333.045 590.871 334.18C590.447 346.42 590.662 358.384 592.664 370.5C597.592 400.317 611.841 427.177 632.382 449.116C637.099 454.153 642.03 459.203 647.5 463.418C668.133 479.321 693.548 488.346 719.208 491.653C727.713 492.749 738.429 492.707 746.912 491.279C758.583 489.47 769.171 486.956 780.334 483.133L796.666 475.642C828.17 459.372 852.242 430.128 862.948 396.402L865.561 397.097C871.95 402.945 876.945 407.516 879.567 416L879.814 416.761C880.56 419.174 881.436 423.951 880.564 426.323C880.338 430.159 879.533 433.774 878.422 437.442C877.64 440.021 875.828 443.854 876.087 446.477C874.56 450.092 871.554 452.927 868.746 455.583L852.194 470.472C850.166 472.333 847.561 474.236 845.961 476.43C844.779 477.977 843.634 479.348 842.207 480.674L796.817 520.812C783.438 532.353 769.977 545.862 754.458 554.399C752.292 555.131 750.581 555.687 748.252 555.653C748.996 554.934 748.721 555.137 749.41 554.653L751.927 552.751C758.48 547.085 760.429 538.264 761.116 530.006C760.204 517.99 753.21 506.861 746.384 497.255C744.168 498.626 741.518 499.516 739.122 500.572C730.167 504.52 721.05 507.166 711.357 508.414L701.5 509.691C668.305 512.886 633.364 497.876 607.25 478.324C578.699 456.948 553.233 426.085 542.97 391.509C540.792 384.169 539.723 376.693 538.614 369.141L538.025 355.011C537.813 339.726 538.887 322.767 544.628 308.427Z"/>
	<path fill="#14578C" transform="scale(0.488281 0.488281)" d="M862.948 396.402L865.561 397.097C871.95 402.945 876.945 407.516 879.567 416L879.814 416.761C880.56 419.174 881.436 423.951 880.564 426.323C880.338 430.159 879.533 433.774 878.422 437.442C877.64 440.021 875.828 443.854 876.087 446.477C874.56 450.092 871.554 452.927 868.746 455.583L852.194 470.472C850.166 472.333 847.561 474.236 845.961 476.43C844.779 477.977 843.634 479.348 842.207 480.674L796.817 520.812C783.438 532.353 769.977 545.862 754.458 554.399C752.292 555.131 750.581 555.687 748.252 555.653C748.996 554.934 748.721 555.137 749.41 554.653L751.927 552.751C758.48 547.085 760.429 538.264 761.116 530.006C760.204 517.99 753.21 506.861 746.384 497.255C749 496.068 751.867 495.813 754.675 495.319L764.504 493.1C770.256 491.613 775.815 489.324 781.386 487.284L780.5 486.877C779.852 487.36 779.281 487.536 778.5 487.75C777.33 488.071 776.39 488.636 775.25 489.016L774.5 489.25L773 489.75C771.245 490.245 769.362 490.993 767.625 491.625C766.285 492.113 764.764 492.61 763.359 492.891L761.5 493.25L760.25 493.5C759.261 493.84 758.684 493.758 757.75 494C756.893 494.222 756.068 494.288 755.25 494.5C754.393 494.722 753.568 494.788 752.75 495C751.893 495.222 751.068 495.288 750.25 495.5C748.793 495.878 747.711 495.761 746.25 496L745.75 497L744.5 497.377C743.343 497.714 743.86 497.485 742.758 498.078L742 498.5L741.411 498C741.326 496.617 741.775 495.571 742.188 494.257L741.3 492.682L745.795 492.163L753.75 491.017C762.959 489.106 771.47 486.943 780.43 483.981L780.334 483.133L796.666 475.642C828.17 459.372 852.242 430.128 862.948 396.402Z"/>
	<path fill="#09366D" transform="scale(0.488281 0.488281)" d="M761.116 530.006C762.988 529.31 764.788 527.301 766.317 525.976L776.721 517.154L846.877 456.869L861.269 445.033C865.297 441.922 869.51 439.066 873.323 435.681C875.457 433.787 877.352 431.522 878.723 429.006C879.133 428.253 879.487 427.588 880.042 426.93L880.564 426.323C880.338 430.159 879.533 433.774 878.422 437.442C877.64 440.021 875.828 443.854 876.087 446.477C874.56 450.092 871.554 452.927 868.746 455.583L852.194 470.472C850.166 472.333 847.561 474.236 845.961 476.43C844.779 477.977 843.634 479.348 842.207 480.674L796.817 520.812C783.438 532.353 769.977 545.862 754.458 554.399C752.292 555.131 750.581 555.687 748.252 555.653C748.996 554.934 748.721 555.137 749.41 554.653L751.927 552.751C758.48 547.085 760.429 538.264 761.116 530.006Z"/>
	<defs>
		<linearGradient id="gradient_3" gradientUnits="userSpaceOnUse" x1="684.22302" y1="376.08704" x2="787.7666" y2="306.63373">
			<stop offset="0" stop-color="#F37227"/>
			<stop offset="1" stop-color="#EE5C31"/>
		</linearGradient>
	</defs>
	<path fill="url(#gradient_3)" transform="scale(0.488281 0.488281)" d="M719.344 272.726L737.258 272.987C740.198 273.505 743.584 273.952 746.35 275.087C756.401 278.05 765.553 283.417 773.898 289.653C775.857 291.201 777.674 292.697 779.349 294.567C786.948 302.712 791.852 310.997 796.155 321.275L798.634 329.818C800.522 340.178 801.66 350.663 799.775 361.14L798.52 366.537C795.428 376.909 790.334 388.805 782.741 396.689C780.676 398.167 778.634 399.828 776.32 400.891L776.042 402.471C769.615 407.768 763.83 411.886 756.186 415.344C753.887 416.384 751.189 417.71 748.704 418.176C747.884 418.567 746.956 418.904 746.25 419.475L745.402 419.548L733.547 421.709C726.112 422.614 718.76 422.366 711.341 421.473L706.274 420.719C698.999 418.381 692.096 415.67 685.528 411.697C683.197 410.287 681.218 408.269 678.876 406.954L678.331 406.655C676.277 403.876 672.867 401.303 670.311 398.888C663.558 392.75 658.173 382.328 654.322 374.143C653.699 370.843 652.06 367.243 650.99 364.034C650.211 358.951 649.269 353.91 649.186 348.75C649.107 343.857 649.709 338.897 650.264 334.039L653.66 322.795C656.197 314.111 662.308 305.097 668.202 298.403C670.495 296.634 672.576 294.182 674.611 292.109C682.106 286.159 688.868 281.835 697.802 278.405C700.107 277.379 702.132 276.694 704.615 276.205L706.577 275.458C710.792 273.902 714.92 273.297 719.344 272.726Z"/>
	<path fill="#C1331E" transform="scale(0.488281 0.488281)" d="M697.802 278.405C700.107 277.379 702.132 276.694 704.615 276.205L704.335 276.569C701.488 280.143 696.712 282.904 693.431 286.351C678.476 302.058 668.764 321.173 671.002 343.319C672.882 361.931 682.824 379.866 697.443 391.567C711.609 402.906 733.67 409.655 751.702 407.246C760.25 406.104 768.061 403.123 776.32 400.891L776.042 402.471C769.615 407.768 763.83 411.886 756.186 415.344C753.887 416.384 751.189 417.71 748.704 418.176C747.884 418.567 746.956 418.904 746.25 419.475L745.402 419.548L733.547 421.709C726.112 422.614 718.76 422.366 711.341 421.473L706.274 420.719C698.999 418.381 692.096 415.67 685.528 411.697C683.197 410.287 681.218 408.269 678.876 406.954L678.331 406.655C676.277 403.876 672.867 401.303 670.311 398.888C663.558 392.75 658.173 382.328 654.322 374.143C653.699 370.843 652.06 367.243 650.99 364.034C650.211 358.951 649.269 353.91 649.186 348.75C649.107 343.857 649.709 338.897 650.264 334.039L653.66 322.795C656.197 314.111 662.308 305.097 668.202 298.403C670.495 296.634 672.576 294.182 674.611 292.109C682.106 286.159 688.868 281.835 697.802 278.405Z"/>
	<path fill="#F1941E" transform="scale(0.488281 0.488281)" d="M730.816 285.184C735.491 284.714 740.784 285.852 745.333 286.896C759.317 290.109 771.45 299.417 778.877 311.594C785.594 322.606 790.24 338.077 786.792 350.906L786.556 351.75C784.994 357.458 782.37 362.334 778.432 366.75C772.459 373.448 765.183 375.25 756.626 375.75C750.658 375.569 745.049 375.109 739.328 373.3C725.315 368.868 712.387 358.016 705.709 344.891C700.409 334.475 697.702 322.542 700.481 311C701.616 306.288 703.428 301.901 706.389 298.03C712.582 289.937 720.963 286.378 730.816 285.184Z"/>
	<path fill="#ECF2ED" transform="scale(0.488281 0.488281)" d="M765.206 309.25C766.328 309.239 767.424 309.247 768.484 309.689C770.295 310.444 772.115 312.409 772.775 314.25C773.384 315.948 773.008 317.987 772.281 319.584C771.081 322.221 769.077 323.234 766.489 324.232C764.858 324.161 763.322 324.037 761.83 323.312C760.108 322.475 758.807 320.847 758.25 319.027C757.665 317.115 758.243 315.32 759.262 313.668C760.671 311.386 762.614 309.872 765.206 309.25Z"/>
	<path fill="#ECF2ED" transform="scale(0.488281 0.488281)" d="M749.228 293.092C750.864 293.058 752.273 293.181 753.82 293.763C757.39 295.107 760.374 298.164 761.866 301.643C762.796 303.811 762.79 306.174 761.857 308.33L761.548 309C759.865 312.71 757.201 314.941 753.479 316.46C751.139 316.536 748.834 316.275 746.691 315.263C743.613 313.809 741.531 311.244 740.461 308.04C739.439 304.98 739.625 301.839 741.148 298.962C742.915 295.625 745.763 294.126 749.228 293.092Z"/>
	<path fill="#14578C" transform="scale(0.488281 0.488281)" d="M234.633 434.004C236.351 432.126 238.966 430.975 241.312 430.069C251.532 434.652 261.464 439.015 267.531 449L267.938 449.659C271.14 454.94 272.89 460.923 274.224 466.905C283.408 467.027 292.193 467.599 301.25 469.231C332.981 474.949 366.351 493.029 388.741 516.151C406.72 534.718 422.406 559.818 429.807 584.639C432.776 594.593 434.486 604.717 435.689 615.023C435.74 615.464 436.019 618.691 436.067 618.734C437.121 619.684 441.257 620.744 442.71 621.469C452.315 626.264 459.098 633.381 463.916 642.894C466.405 647.853 467.802 653.013 468.536 658.5L468.668 659.446C469.273 664.034 468.464 668.198 468.026 672.74C465.239 682.411 460.317 690.874 454.823 699.219L427.269 736.1L411.028 755.895L388.527 781.864L374.484 795.739C361.864 807.179 347.464 821.881 331.029 827.412L304.496 804.551C301.024 801.305 297.329 798.099 294.212 794.509L294.175 794.102C290.878 794.635 287.247 794.384 283.908 794.376C271.118 794.345 258.733 792.672 246.188 790.326C244.371 790.637 242.175 789.739 240.454 789.25L229.402 786.497C227.179 785.911 225.013 784.993 222.699 784.934C218.993 785.317 213.062 783.198 209.511 781.874C206.934 780.913 204.761 779.456 201.93 779.834C174.136 767.521 148.928 745.411 132.439 719.958C113.558 690.814 102.295 655.909 103.033 621C103.31 607.909 105.362 595.485 108.129 582.711L110.794 574.128L125.472 541.228L135.554 523.569C141.951 513.65 149.37 504.83 157.303 496.125L170.417 482.478L193.766 461.423C201.441 454.02 210.965 447.277 220.041 441.776C224.187 439.263 228.74 437.074 232.743 434.396L233.435 433.922L234.633 434.004Z"/>
	<path fill="#0B594A" transform="scale(0.488281 0.488281)" d="M233.435 433.922L234.633 434.004C232.857 436.866 227.666 438.423 224.745 440.25C222.269 441.799 219.833 443.605 217.5 445.36C202.439 456.692 187.863 468.709 174.773 482.312C171.882 485.315 168.605 488.325 166.223 491.75L163.509 495.916C162.53 497.696 160.963 499.096 159.714 500.695L149.996 513.5C144.396 521.536 138.457 529.817 133.765 538.418C124.203 555.944 117.626 574.752 113.534 594.219C113.174 595.931 110.786 610.952 110.956 611.65C111.278 612.968 110.763 613.771 110.448 615.009C109.924 617.062 110.456 619.207 109.93 621.25C109.09 624.515 110.281 627.246 110.893 630.362C111.218 632.016 110.968 633.72 111.323 635.355C111.867 637.865 113.146 640.847 114.205 643.192C114.771 644.446 114.941 645.572 115.14 646.922C115.332 648.225 115.136 647.053 115.526 648.526C116.34 651.6 115.47 655.177 116.04 658.26L116.568 661.386C116.86 662.718 116.762 664.022 117.055 665.356C117.447 667.142 117.354 668.925 117.745 670.75C118.549 674.51 119.145 678.296 120.243 682C121.068 684.782 122.187 687.409 122.738 690.27C123.054 691.909 124.291 692.809 125.532 693.762L126.834 693.59C127.637 692.391 128.367 691.163 129.375 690.125C128.715 688.585 127.798 687.112 127.377 685.5L126.258 681.844C126.013 680.989 125.745 680.734 125.377 680C124.775 678.798 124.932 677.315 124.5 676L124.141 674.281C124.003 673.458 123.752 672.787 123.5 672L123.141 670.281L122.163 666.337L120.377 656.5L120.188 655.944C119.734 654.439 119.746 652.358 119.5 650.75L119.377 649L119.117 647.378C118.394 643.041 119.076 638.314 118.371 634C117.936 631.337 118.306 627.158 118.75 624.5C118.922 623.467 118.87 623.725 118.87 622.867C118.87 621.294 119.138 619.996 119.377 618.5L119.371 617.012C119.371 616.017 119.663 615.411 119.877 614.5L119.923 613.211C119.958 611.911 120.186 610.995 120.5 609.75L120.75 608.5L120.883 607.898C121.267 605.977 121.253 604.383 121.877 602.5C122.238 601.415 121.781 600.686 122.377 599.5L122.255 598.25C122.862 597.639 122.965 597.75 123.047 596.852C123.089 596.39 123.304 595.958 123.377 595.5L123.255 594.25C123.904 593.596 123.958 593.764 124.039 592.798C124.131 591.7 124.032 592.266 124.5 591.25C124.959 590.253 124.96 589.561 125.125 588.503C125.242 587.753 125.459 587.457 125.75 586.755L126 586L126.265 585.375C126.587 584.57 126.499 584.913 126.502 584.003L127 583.5L126.755 582.75L127.096 582.453C127.64 581.906 127.724 581.442 128 580.75L128.375 579.875C128.931 578.348 129.304 577.002 130 575.5L130.5 574.25C131.866 570.933 133.667 566.282 135.727 563.398C136.099 562.877 135.959 563.139 136.117 562.508C136.299 561.779 136.605 561.611 137 561L138.375 558.253L142 552C142.416 551.304 142.72 550.602 143.195 549.938C143.664 549.282 143.437 549.619 143.869 548.688C144.248 547.867 144.498 547.672 145 547C145.498 546.333 145.616 545.66 146.002 545.003C146.377 544.367 147.266 543.41 147.75 542.755L148.5 542C149.073 541.296 149.267 540.84 150 540.25L150.002 539.625L150.431 539.148C151.741 537.671 153.073 534.711 154.5 533.75L154.502 533.003L155.5 532.25L155.502 531.503L156.5 530.75L156.502 530.125L158 528.75L158.002 528.003L158.5 527.5C158.5 525.327 157.905 520.142 159 518.5C159 516.963 158.665 514.753 159.5 513.5C159.537 512.207 159.577 511.48 160 510.25C160.494 508.812 160.481 507.573 161.195 506.142C161.541 505.449 161.507 504.929 161.75 504.255C162.021 503.502 162.475 502.797 162.969 502.18C163.672 501.3 163.983 500.181 164.852 499.502C164.329 501.405 163.173 502.945 162.381 504.734C160.917 508.043 160.361 511.381 159.746 514.906C159.096 518.633 158.866 523.75 159.494 527.459L151.668 539.019C126.775 571.722 115.057 613.216 120.69 654C121.817 662.167 123.588 670.529 125.935 678.431C126.915 681.73 127.825 685.361 129.499 688.376C132.066 693.001 133.846 698.335 136.369 703.088C143.509 716.542 151.868 729.517 161.174 741.577C166.559 748.555 172.397 755.696 179.5 760.992C188.356 767.595 197.487 773.691 207.5 778.429C212.372 780.734 218.076 782.343 222.699 784.934C218.993 785.317 213.062 783.198 209.511 781.874C206.934 780.913 204.761 779.456 201.93 779.834C174.136 767.521 148.928 745.411 132.439 719.958C113.558 690.814 102.295 655.909 103.033 621C103.31 607.909 105.362 595.485 108.129 582.711L110.794 574.128L125.472 541.228L135.554 523.569C141.951 513.65 149.37 504.83 157.303 496.125L170.417 482.478L193.766 461.423C201.441 454.02 210.965 447.277 220.041 441.776C224.187 439.263 228.74 437.074 232.743 434.396L233.435 433.922Z"/>
	<path fill="#09366D" transform="scale(0.488281 0.488281)" d="M463.916 642.894C466.405 647.853 467.802 653.013 468.536 658.5L468.668 659.446C469.273 664.034 468.464 668.198 468.026 672.74C465.239 682.411 460.317 690.874 454.823 699.219L427.269 736.1L411.028 755.895L388.527 781.864L374.484 795.739C361.864 807.179 347.464 821.881 331.029 827.412L304.496 804.551C301.024 801.305 297.329 798.099 294.212 794.509L294.175 794.102C305.17 792.566 316.044 789.972 326.445 786.078C327.448 788.16 329.269 789.505 330.937 791.04L339.905 799.4L373.312 765.711C389.537 748.04 404.079 729.156 418.43 709.966C434.643 688.287 450.332 666.347 463.916 642.894Z"/>
	<defs>
		<linearGradient id="gradient_4" gradientUnits="userSpaceOnUse" x1="159.74837" y1="642.6908" x2="427.90695" y2="622.7486">
			<stop offset="0" stop-color="#00B285"/>
			<stop offset="1" stop-color="#4FC3C1"/>
		</linearGradient>
	</defs>
	<path fill="url(#gradient_4)" transform="scale(0.488281 0.488281)" d="M159.494 527.459C162.157 523.436 165.947 519.892 169.331 516.454C184.674 500.861 201.942 489.121 222.644 481.902C248.207 472.987 275.965 471.673 302.365 477.665C308.204 478.99 314.69 480.548 320.091 483.164C331.121 486.246 341.807 491.976 351.445 498.042C358.084 502.221 364.693 506.509 370.791 511.46C386.114 523.9 398.909 539.615 408.6 556.761C429.23 593.259 433.641 636.341 422.181 676.563C412.441 710.746 390.871 741.576 363.338 763.795C356.402 769.393 349.217 774.674 341.397 778.985L326.445 786.078C316.044 789.972 305.17 792.566 294.175 794.102C290.878 794.635 287.247 794.384 283.908 794.376C271.118 794.345 258.733 792.672 246.188 790.326L246.297 789.829C251.273 789.554 258.01 790.725 262.818 789.52C266.183 788.677 270.205 789.371 273.535 788.457C276.978 787.511 281.372 787.509 284.998 786.894L309.998 781.414C311.685 780.972 312.792 780.831 314.036 779.48C310.703 776.109 307.917 771.262 305.172 767.378L277.821 726.107L278.837 725.346C290.722 724.403 302.167 720.543 312.967 715.648C315.943 714.299 318.716 712.469 321.726 711.228L322.63 710.864L322.789 710.624L332.498 701.618C340.924 694.449 346.677 683.166 351.834 673.579C352.22 672.142 352.933 670.863 353.601 669.542L389.346 665.018C397.925 663.772 406.9 662.894 415.201 660.311L416.197 656.444C418.262 632.053 418.08 605.222 408.054 582.377C393.985 550.321 371.721 522.456 340.858 505.25C333.716 501.268 326.254 498.082 318.636 495.135C307.614 492.217 297.411 488.249 285.914 487.111C263.703 484.552 241.904 487.836 220.904 495.186C218.205 496.131 212.724 497.588 210.68 499.322L210.046 499.999C209.713 521.011 214.18 541.49 215.642 562.348C214.091 563.496 212.381 565.089 210.608 565.817L154.979 539.16L153.836 540.418C153.002 540.124 152.375 539.546 151.668 539.019L159.494 527.459Z"/>
	<path fill="#07956F" transform="scale(0.488281 0.488281)" d="M210.046 499.999C209.713 521.011 214.18 541.49 215.642 562.348C214.091 563.496 212.381 565.089 210.608 565.817L154.979 539.16L155.359 538.696L155.95 538C158.361 535.127 161.553 532.743 164.381 530.277C174.948 521.065 186.282 513.172 198.366 506.085C201.945 503.985 206.093 501.207 210.046 499.999Z"/>
	<path fill="#07956F" transform="scale(0.488281 0.488281)" d="M353.601 669.542L389.346 665.018C397.925 663.772 406.9 662.894 415.201 660.311C411.839 675.791 407.117 690.815 399.692 704.861C386.494 729.827 363.496 752 339.907 767.174C333.969 770.994 327.957 774.331 321.5 777.202C319.375 778.147 316.857 779.616 314.514 779.523L314.036 779.48C310.703 776.109 307.917 771.262 305.172 767.378L277.821 726.107L278.837 725.346C290.722 724.403 302.167 720.543 312.967 715.648C315.943 714.299 318.716 712.469 321.726 711.228L322.63 710.864L322.789 710.624L332.498 701.618C340.924 694.449 346.677 683.166 351.834 673.579C352.22 672.142 352.933 670.863 353.601 669.542Z"/>
	<path fill="#FDE257" transform="scale(0.488281 0.488281)" d="M351.834 673.579L383.812 726.749L322.789 710.624L332.498 701.618C340.924 694.449 346.677 683.166 351.834 673.579Z"/>
	<path fill="#FDE257" transform="scale(0.488281 0.488281)" d="M278.837 725.346C290.722 724.403 302.167 720.543 312.967 715.648C315.943 714.299 318.716 712.469 321.726 711.228L322.63 710.864L314.514 779.523L314.036 779.48C310.703 776.109 307.917 771.262 305.172 767.378L277.821 726.107L278.837 725.346Z"/>
	<path fill="#07956F" transform="scale(0.488281 0.488281)" d="M210.046 499.999L210.68 499.322C212.724 497.588 218.205 496.131 220.904 495.186C241.904 487.836 263.703 484.552 285.914 487.111C297.411 488.249 307.614 492.217 318.636 495.135C326.254 498.082 333.716 501.268 340.858 505.25C371.721 522.456 393.985 550.321 408.054 582.377C418.08 605.222 418.262 632.053 416.197 656.444L415.201 660.311C406.9 662.894 397.925 663.772 389.346 665.018L353.601 669.542C358.283 655.755 359.31 642.552 358.449 628.11L357.693 624.861C354.338 609.162 348.507 595.784 339.251 582.618L337.506 580.8C327.183 569.774 317.123 561.43 303.254 555.138L300.814 553.902C297.337 553.235 293.828 551.515 290.391 550.526C282.311 548.203 272.997 547.374 264.636 547.539C262.403 547.593 259.588 548 257.509 547.138L257.118 547.119C255.706 548.404 253.661 548.252 251.791 548.549L243.602 550.234C233.235 552.897 224.752 556.757 215.642 562.348C214.18 541.49 209.713 521.011 210.046 499.999Z"/>
	<path fill="#FBB517" transform="scale(0.488281 0.488281)" d="M210.046 499.999C212.278 500.607 213.445 502.322 215.046 503.946L223.484 512.506C234.743 523.923 246.631 534.997 257.118 547.119C255.706 548.404 253.661 548.252 251.791 548.549L243.602 550.234C233.235 552.897 224.752 556.757 215.642 562.348C214.18 541.49 209.713 521.011 210.046 499.999Z"/>
	<path fill="#FDE257" transform="scale(0.488281 0.488281)" d="M257.509 547.138C259.826 542.853 261.476 537.972 263.461 533.5L278.499 500.479C280.573 496.194 282.519 491.292 285.575 487.63C288.812 496.749 290.344 506.563 292.432 516.006L300.814 553.902C297.337 553.235 293.828 551.515 290.391 550.526C282.311 548.203 272.997 547.374 264.636 547.539C262.403 547.593 259.588 548 257.509 547.138Z"/>
	<path fill="#FDE257" transform="scale(0.488281 0.488281)" d="M358.449 628.11L393.585 644.282C401.104 647.773 409.82 651.096 416.197 656.444L415.201 660.311C406.9 662.894 397.925 663.772 389.346 665.018L353.601 669.542C358.283 655.755 359.31 642.552 358.449 628.11Z"/>
	<path fill="#FDE257" transform="scale(0.488281 0.488281)" d="M339.251 582.618C349.26 581.784 399.099 577.829 404.305 582.25C404.678 582.567 404.801 582.852 405.024 583.25C403.92 586.941 363.625 619.408 357.693 624.861C354.338 609.162 348.507 595.784 339.251 582.618Z"/>
	<path fill="#FDE257" transform="scale(0.488281 0.488281)" d="M303.254 555.138C315.28 543.652 328.222 534.48 342.5 525.973C346.429 523.632 350.658 520.794 355 519.309C356.105 520.104 356.461 520.173 356.655 521.612C356.952 523.808 355.676 527.425 355.158 529.627C350.999 547.3 345.287 564.374 337.506 580.8C327.183 569.774 317.123 561.43 303.254 555.138Z"/>
	<path fill="#07956F" transform="scale(0.488281 0.488281)" d="M151.668 539.019C152.375 539.546 153.002 540.124 153.836 540.418L154.979 539.16L210.608 565.817C199.77 575.328 192.908 584.924 186.839 597.989L186.196 598.919C182.936 607.065 180.496 614.67 179.299 623.383C178.508 629.143 178.469 636.102 179.303 641.846C179.758 642.756 179.948 643.036 179.913 644.08C182.125 659.678 187.439 675.342 197.579 687.636L198.33 688.595C204.088 695.249 210.294 701.927 217.427 707.13C220.64 709.474 224.021 711.58 227.5 713.505C229.401 714.557 232.881 715.81 234.112 717.582L234.788 717.995C238.697 718.585 242.717 720.809 246.611 721.88C257.202 724.794 267.889 725.612 278.837 725.346L277.821 726.107L305.172 767.378C307.917 771.262 310.703 776.109 314.036 779.48C312.792 780.831 311.685 780.972 309.998 781.414L284.998 786.894C281.372 787.509 276.978 787.511 273.535 788.457C270.205 789.371 266.183 788.677 262.818 789.52C258.01 790.725 251.273 789.554 246.297 789.829L246.188 790.326C244.371 790.637 242.175 789.739 240.454 789.25L229.402 786.497C227.179 785.911 225.013 784.993 222.699 784.934C218.076 782.343 212.372 780.734 207.5 778.429C197.487 773.691 188.356 767.595 179.5 760.992C172.397 755.696 166.559 748.555 161.174 741.577C151.868 729.517 143.509 716.542 136.369 703.088C133.846 698.335 132.066 693.001 129.499 688.376C127.825 685.361 126.915 681.73 125.935 678.431C123.588 670.529 121.817 662.167 120.69 654C115.057 613.216 126.775 571.722 151.668 539.019Z"/>
	<path fill="#FBB517" transform="scale(0.488281 0.488281)" d="M154.979 539.16L210.608 565.817C199.77 575.328 192.908 584.924 186.839 597.989C176.998 583.957 168.451 568.553 159.873 553.714L154.914 544.904C154.569 544.217 153.792 543.024 153.701 542.335C153.617 541.7 153.791 541.057 153.836 540.418L154.979 539.16Z"/>
	<path fill="#F1941E" transform="scale(0.488281 0.488281)" d="M179.303 641.846C158.871 633.249 141.005 618.856 121.365 608.77C142.93 606.181 164.51 599.964 186.196 598.919C182.936 607.065 180.496 614.67 179.299 623.383C178.508 629.143 178.469 636.102 179.303 641.846Z"/>
	<path fill="#F1941E" transform="scale(0.488281 0.488281)" d="M198.33 688.595C204.088 695.249 210.294 701.927 217.427 707.13C220.64 709.474 224.021 711.58 227.5 713.505C229.401 714.557 232.881 715.81 234.112 717.582C231.013 720.345 226.537 722.511 222.919 724.631L175.538 749.431L198.33 688.595Z"/>
	<path fill="#F1941E" transform="scale(0.488281 0.488281)" d="M179.913 644.08C182.125 659.678 187.439 675.342 197.579 687.636C190.747 688.664 183.1 688.177 176.161 688.281C160.622 688.514 144.863 688.956 129.348 688.127L179.913 644.08Z"/>
	<path fill="#FBB517" transform="scale(0.488281 0.488281)" d="M234.788 717.995C238.697 718.585 242.717 720.809 246.611 721.88C257.202 724.794 267.889 725.612 278.837 725.346L277.821 726.107C274.437 730.487 271.857 736.45 268.888 741.244L240.133 788.188L234.788 717.995Z"/>
	<path fill="#E1671A" transform="scale(0.488281 0.488281)" d="M257.118 547.119L257.509 547.138C259.588 548 262.403 547.593 264.636 547.539C272.997 547.374 282.311 548.203 290.391 550.526C293.828 551.515 297.337 553.235 300.814 553.902L303.254 555.138C317.123 561.43 327.183 569.774 337.506 580.8L339.251 582.618C348.507 595.784 354.338 609.162 357.693 624.861L358.449 628.11C359.31 642.552 358.283 655.755 353.601 669.542C352.933 670.863 352.22 672.142 351.834 673.579C346.677 683.166 340.924 694.449 332.498 701.618L322.789 710.624L322.63 710.864L321.726 711.228C318.716 712.469 315.943 714.299 312.967 715.648C302.167 720.543 290.722 724.403 278.837 725.346C267.889 725.612 257.202 724.794 246.611 721.88C242.717 720.809 238.697 718.585 234.788 717.995L234.112 717.582C232.881 715.81 229.401 714.557 227.5 713.505C224.021 711.58 220.64 709.474 217.427 707.13C210.294 701.927 204.088 695.249 198.33 688.595L197.579 687.636C187.439 675.342 182.125 659.678 179.913 644.08C179.948 643.036 179.758 642.756 179.303 641.846C178.469 636.102 178.508 629.143 179.299 623.383C180.496 614.67 182.936 607.065 186.196 598.919L186.839 597.989C192.908 584.924 199.77 575.328 210.608 565.817C212.381 565.089 214.091 563.496 215.642 562.348C224.752 556.757 233.235 552.897 243.602 550.234L251.791 548.549C253.661 548.252 255.706 548.404 257.118 547.119Z"/>
	<path fill="#C1331E" transform="scale(0.488281 0.488281)" d="M257.118 547.119L257.509 547.138C259.588 548 262.403 547.593 264.636 547.539L264.25 548.775C259.031 550.762 253.615 552.025 248.453 554.222C233.017 560.793 219.592 573.256 212.675 588.625C203.607 608.772 204.634 628.797 212.557 649.014C221.469 671.754 242.165 691.613 264.416 701.153C282.608 708.952 306.948 711.122 325.651 703.75C327.77 702.915 330.174 701.278 332.498 701.618L322.789 710.624L322.63 710.864L321.726 711.228C318.716 712.469 315.943 714.299 312.967 715.648C302.167 720.543 290.722 724.403 278.837 725.346C267.889 725.612 257.202 724.794 246.611 721.88C242.717 720.809 238.697 718.585 234.788 717.995L234.112 717.582C232.881 715.81 229.401 714.557 227.5 713.505C224.021 711.58 220.64 709.474 217.427 707.13C210.294 701.927 204.088 695.249 198.33 688.595L197.579 687.636C187.439 675.342 182.125 659.678 179.913 644.08C179.948 643.036 179.758 642.756 179.303 641.846C178.469 636.102 178.508 629.143 179.299 623.383C180.496 614.67 182.936 607.065 186.196 598.919L186.839 597.989C192.908 584.924 199.77 575.328 210.608 565.817C212.381 565.089 214.091 563.496 215.642 562.348C224.752 556.757 233.235 552.897 243.602 550.234L251.791 548.549C253.661 548.252 255.706 548.404 257.118 547.119Z"/>
	<path fill="#F1941E" transform="scale(0.488281 0.488281)" d="M278.29 558.685L278.917 558.638C293.009 557.719 305.617 563.709 316.016 572.797C331.732 586.531 342.106 603.3 343.356 624.513C343.986 635.198 341.088 646.754 333.844 654.817C327.937 661.392 320.068 663.558 311.571 664.046C297.034 664.182 285.664 656.992 274.283 648.75C269.966 645.623 265.685 641.457 262.348 637.289C254.599 627.613 248.538 617.157 245.88 604.933C243.485 593.924 244.837 583.003 250.948 573.5C253.546 569.461 257.557 565.97 261.763 563.675L262.379 563.346C267.552 560.537 272.482 559.327 278.29 558.685Z"/>
	<path fill="#ECF2ED" transform="scale(0.488281 0.488281)" d="M296.527 572.085C300.068 572.003 302.756 572.276 305.984 573.978C315.833 579.169 326.413 590.661 329.753 601.423C330.601 604.155 331.084 607.363 329.564 609.953C328.049 612.534 325.693 613.284 322.949 614.001C320.007 614.071 317.558 614.009 314.75 612.961C305.701 609.583 295.75 598.21 291.694 589.597C290.076 586.161 288.243 581.373 289.83 577.638C291.098 574.652 293.633 573.174 296.527 572.085Z"/>
	<path fill="#448D9C" transform="scale(0.488281 0.488281)" d="M213.688 274.387C225.179 272.522 236.496 271.008 248.15 270.533C273.733 269.491 300.17 272.456 325.25 277.298C374.452 286.798 420.219 304.024 465.101 326.031L509.802 350.319C518.303 355.373 526.984 360.424 534.989 366.25C536.199 367.131 537.543 368.097 538.614 369.141C539.723 376.693 540.792 384.169 542.97 391.509C553.233 426.085 578.699 456.948 607.25 478.324C633.364 497.876 668.305 512.886 701.5 509.691L711.357 508.414C721.05 507.166 730.167 504.52 739.122 500.572C741.518 499.516 744.168 498.626 746.384 497.255C753.21 506.861 760.204 517.99 761.116 530.006C760.429 538.264 758.48 547.085 751.927 552.751L749.41 554.653C748.721 555.137 748.996 554.934 748.252 555.653C750.581 555.687 752.292 555.131 754.458 554.399C769.977 545.862 783.438 532.353 796.817 520.812L842.207 480.674C843.634 479.348 844.779 477.977 845.961 476.43C847.561 474.236 850.166 472.333 852.194 470.472L868.746 455.583C871.554 452.927 874.56 450.092 876.087 446.477C883.067 456.936 888.887 467.889 894.612 479.074C911.529 512.13 923.503 546.61 930.217 583.16C935.37 611.216 937.22 640.21 931.609 668.364C928.489 684.018 923.909 699.603 916.119 713.614C913.289 718.706 909.286 723.365 906.74 728.541C899.335 737.912 891.808 746.992 883.076 755.17C851.513 784.731 809.985 802.58 767.263 807.635C734.029 811.567 699.934 809.221 667.396 801.337L667.449 801.171C656.887 799.325 646.357 795.936 636.034 793.039C582.674 778.068 530.329 756.15 485.048 723.809C474.594 716.343 463.941 708.272 454.823 699.219C460.317 690.874 465.239 682.411 468.026 672.74C468.464 668.198 469.273 664.034 468.668 659.446L468.536 658.5C467.802 653.013 466.405 647.853 463.916 642.894C459.098 633.381 452.315 626.264 442.71 621.469C441.257 620.744 437.121 619.684 436.067 618.734C436.019 618.691 435.74 615.464 435.689 615.023C434.486 604.717 432.776 594.593 429.807 584.639C422.406 559.818 406.72 534.718 388.741 516.151C366.351 493.029 332.981 474.949 301.25 469.231C292.193 467.599 283.408 467.027 274.224 466.905C272.89 460.923 271.14 454.94 267.938 449.659L267.531 449C261.464 439.015 251.532 434.652 241.312 430.069C238.966 430.975 236.351 432.126 234.633 434.004L233.435 433.922C229.234 425.25 226.303 415.313 223.308 406.144C209.295 363.244 202.762 318.743 213.688 274.387Z"/>
	<path fill="#0E1A51" transform="scale(0.488281 0.488281)" d="M746.384 497.255C753.21 506.861 760.204 517.99 761.116 530.006C760.429 538.264 758.48 547.085 751.927 552.751L749.41 554.653C748.721 555.137 748.996 554.934 748.252 555.653C746.431 555.562 744.768 555.271 742.987 554.889L711.357 508.414C721.05 507.166 730.167 504.52 739.122 500.572C741.518 499.516 744.168 498.626 746.384 497.255Z"/>
	<path fill="#3B1A5E" transform="scale(0.488281 0.488281)" d="M754.458 554.399C755.684 556.995 768.063 581.432 768.241 581.511C779.395 605.793 787.389 631.833 794.321 657.602C797.299 671.801 800.228 685.827 801.292 700.337C801.769 706.837 800.793 713.657 801.568 720.049L800.406 739.165L797.788 757.434C799.421 756.319 801.146 754.89 802.97 754.134C803.218 755.016 803.153 755.214 803.853 755.858L793.1 760.616C793.212 755.639 794.006 750.708 794.345 745.75C794.773 739.506 794.741 733.155 794.523 726.904C793.324 692.516 785.923 658.408 774.891 625.907C766.462 601.077 756.227 577.545 742.987 554.889C744.768 555.271 746.431 555.562 748.252 555.653C750.581 555.687 752.292 555.131 754.458 554.399Z"/>
	<path fill="#FDE257" transform="scale(0.488281 0.488281)" d="M468.026 672.74C528.133 726.394 607.448 758.981 686.426 771.742C681.327 781.94 674.95 792.549 667.449 801.171C656.887 799.325 646.357 795.936 636.034 793.039C582.674 778.068 530.329 756.15 485.048 723.809C474.594 716.343 463.941 708.272 454.823 699.219C460.317 690.874 465.239 682.411 468.026 672.74Z"/>
	<path fill="#FBB517" transform="scale(0.488281 0.488281)" d="M876.087 446.477C883.067 456.936 888.887 467.889 894.612 479.074C911.529 512.13 923.503 546.61 930.217 583.16C935.37 611.216 937.22 640.21 931.609 668.364C928.489 684.018 923.909 699.603 916.119 713.614C913.289 718.706 909.286 723.365 906.74 728.541C899.335 737.912 891.808 746.992 883.076 755.17C851.513 784.731 809.985 802.58 767.263 807.635C734.029 811.567 699.934 809.221 667.396 801.337L667.449 801.171C674.95 792.549 681.327 781.94 686.426 771.742C709.888 775.374 733.142 774.763 756.5 770.657C768.869 768.483 781.451 765.38 793.1 760.616L803.853 755.858C803.153 755.214 803.218 755.016 802.97 754.134C801.146 754.89 799.421 756.319 797.788 757.434L800.406 739.165L801.568 720.049C800.793 713.657 801.769 706.837 801.292 700.337C800.228 685.827 797.299 671.801 794.321 657.602C787.389 631.833 779.395 605.793 768.241 581.511C768.063 581.432 755.684 556.995 754.458 554.399C769.977 545.862 783.438 532.353 796.817 520.812L842.207 480.674C843.634 479.348 844.779 477.977 845.961 476.43C847.561 474.236 850.166 472.333 852.194 470.472L868.746 455.583C871.554 452.927 874.56 450.092 876.087 446.477Z"/>
	<path fill="#3B1A5E" transform="scale(0.488281 0.488281)" d="M890.106 632.671C889.408 644.678 887.716 656.52 884.167 668.034C876.952 691.438 862.592 712.298 844.38 728.508C832.015 739.514 818.911 748.859 803.853 755.858C803.153 755.214 803.218 755.016 802.97 754.134C812.45 748.267 821.472 740.77 829.744 733.313C838.839 725.114 846.692 715.918 854.102 706.199C867.799 688.232 881.771 665.598 882.938 642.379L883.022 642.099C885.661 639.091 887.246 635.456 890.106 632.671Z"/>
	<defs>
		<linearGradient id="gradient_5" gradientUnits="userSpaceOnUse" x1="879.69464" y1="553.28137" x2="854.96625" y2="562.43744">
			<stop offset="0" stop-color="#1E0D57"/>
			<stop offset="1" stop-color="#402973"/>
		</linearGradient>
	</defs>
	<path fill="url(#gradient_5)" transform="scale(0.488281 0.488281)" d="M842.207 480.674C843.634 479.348 844.779 477.977 845.961 476.43C853.098 488.784 860.097 501.429 865.91 514.465C878.969 543.746 887.794 576.298 889.772 608.354C890.261 616.273 890.961 624.773 890.106 632.671C887.246 635.456 885.661 639.091 883.022 642.099L883.265 618.84C884.055 617.124 883.312 614.627 883.227 612.747C882.675 600.469 881.254 588.72 879.204 576.619C878.228 574.184 877.95 571.065 877.293 568.486L873.019 553.877C867.673 536.738 861.236 520.208 853.882 503.837L842.207 480.674Z"/>
	<path fill="#502A70" transform="scale(0.488281 0.488281)" d="M800.406 739.165L882.938 642.379C881.771 665.598 867.799 688.232 854.102 706.199C846.692 715.918 838.839 725.114 829.744 733.313C821.472 740.77 812.45 748.267 802.97 754.134C801.146 754.89 799.421 756.319 797.788 757.434L800.406 739.165Z"/>
	<path fill="#7C5297" transform="scale(0.488281 0.488281)" d="M801.568 720.049C802.107 716.866 801.909 713.521 801.919 710.298C801.923 709.188 801.668 707.282 801.976 706.248C802.608 704.127 822.399 683.256 825.642 679.638L869.091 631.18C873.407 626.624 877.709 620.784 882.75 617.107L883.265 618.84L883.022 642.099L882.938 642.379L800.406 739.165L801.568 720.049Z"/>
	<path fill="#502A70" transform="scale(0.488281 0.488281)" d="M879.204 576.619C881.254 588.72 882.675 600.469 883.227 612.747C883.312 614.627 884.055 617.124 883.265 618.84L882.75 617.107C877.709 620.784 873.407 626.624 869.091 631.18L825.642 679.638C822.399 683.256 802.608 704.127 801.976 706.248C801.668 707.282 801.923 709.188 801.919 710.298C801.909 713.521 802.107 716.866 801.568 720.049C800.793 713.657 801.769 706.837 801.292 700.337C800.228 685.827 797.299 671.801 794.321 657.602L879.204 576.619Z"/>
	<path fill="#7C5297" transform="scale(0.488281 0.488281)" d="M842.207 480.674L853.882 503.837C861.236 520.208 867.673 536.738 873.019 553.877L877.293 568.486C877.95 571.065 878.228 574.184 879.204 576.619L794.321 657.602C787.389 631.833 779.395 605.793 768.241 581.511C768.063 581.432 755.684 556.995 754.458 554.399C769.977 545.862 783.438 532.353 796.817 520.812L842.207 480.674Z"/>
	<path fill="#502A70" transform="scale(0.488281 0.488281)" d="M842.207 480.674L853.882 503.837L768.241 581.511C768.063 581.432 755.684 556.995 754.458 554.399C769.977 545.862 783.438 532.353 796.817 520.812L842.207 480.674Z"/>
</svg>
