<?xml version="1.0" encoding="utf-8" ?>
<svg xmlns="http://www.w3.org/2000/svg" xmlns:xlink="http://www.w3.org/1999/xlink" width="500" height="500">
	<path fill="#4AB8A3" transform="scale(0.488281 0.488281)" d="M0 563.848L-0 -0L1023.5 0C1024.6 2.43671 1024.03 6.95038 1024.03 9.71358L1024.03 33.6468L1024.03 122.578L1024 519.861L1024 557.613L1024 571.625L1024 713.568L1024 793.649L1024 796.136C1024.01 815.917 1024.95 1021.3 1023.5 1024L-0 1024L0 796.696L0 563.848Z"/>
	<path fill="#8FD4D2" transform="scale(0.488281 0.488281)" d="M270.798 346.424C270.362 346.274 270.361 346.373 270.183 345.906C269.507 344.129 270.791 339.639 271.214 337.693C274.392 323.074 278.668 308.599 286.044 295.5L286.665 295.593L270.798 346.424Z"/>
	<path fill="#E03833" transform="scale(0.488281 0.488281)" d="M134.986 268.39L134.844 225.486L158.435 225.405L158.357 268.451L134.986 268.39Z"/>
	<path fill="#BB2A28" transform="scale(0.488281 0.488281)" d="M866.917 268.53L866.796 225.55L890.927 225.564L890.715 268.419L866.917 268.53Z"/>
	<path fill="#FEB953" transform="scale(0.488281 0.488281)" d="M890.715 268.419C902.581 271.381 911.933 277.644 921.453 285.075C925.139 287.951 929.024 290.854 932.405 294.08C924.979 294.605 917.407 294.372 909.963 294.375L868.627 294.167L841.972 294.074C836.359 294.092 830.613 294.456 825.03 293.892C836.836 283.937 851.295 271.43 866.917 268.53L890.715 268.419Z"/>
	<path fill="#FEB953" transform="scale(0.488281 0.488281)" d="M158.357 268.451C175.671 271.923 191.25 283.02 204.448 294.304L91.7065 294.532C104.551 283.164 118.081 272.696 134.986 268.39L158.357 268.451Z"/>
	<path fill="#035E3F" transform="scale(0.488281 0.488281)" d="M300.451 252.544L301.943 247.976C304.078 255.581 307.282 263.667 308.596 271.401L332.9 348.475L321.157 348.047C320.044 347.744 318.9 347.71 317.754 347.612L317.16 347.654C313.619 347.876 303.579 346.728 301.286 348.5L301.502 349.498L301.609 350.124C301.744 350.786 301.961 351.184 302.31 351.749L303.009 352.161L299.431 352.426C293.134 352.725 285.87 352.595 279.727 351.287L280.67 348.026C278.009 347.849 273.31 347.29 270.914 348.428L270.574 348.099L270.798 346.424L286.665 295.593C288.243 293.712 289.176 287.951 290.005 285.309L300.451 252.544Z"/>
	<path fill="#013E3C" transform="scale(0.488281 0.488281)" d="M301.973 347.453L317.754 347.612L317.16 347.654C313.619 347.876 303.579 346.728 301.286 348.5L301.502 349.498L301.609 350.124C301.744 350.786 301.961 351.184 302.31 351.749L303.009 352.161L299.431 352.426C293.134 352.725 285.87 352.595 279.727 351.287L280.67 348.026C282.617 346.757 298.493 347.456 301.973 347.453Z"/>
	<path fill="#024735" transform="scale(0.488281 0.488281)" d="M300.451 252.544L301.943 247.976C304.078 255.581 307.282 263.667 308.596 271.401L332.9 348.475L321.157 348.047C320.044 347.744 318.9 347.71 317.754 347.612L301.973 347.453C301.987 334.343 303.32 258.233 300.451 252.544Z"/>
	<path fill="#8FD4D2" transform="scale(0.488281 0.488281)" d="M226.206 324.096L226.288 325.75C242.799 332.428 256.267 341.214 269.697 352.831C270.192 351.363 270.755 349.975 270.914 348.428C273.31 347.29 278.009 347.849 280.67 348.026L279.727 351.287L260.585 397.973C241.848 389.184 220.132 383.279 199.419 382.99L199.101 325.56L225.75 325.499L226.206 324.096Z"/>
	<path fill="#FEB953" transform="scale(0.488281 0.488281)" d="M204.448 294.304L214.38 303.01L225.905 303.159L226.206 324.096L225.75 325.499L199.101 325.56C196.23 326.048 192.594 325.691 189.641 325.715L168.497 325.846L90.0316 325.626L81.0612 325.931L64.0368 325.972L63.9852 302.65L81.9213 302.763C85.2137 301.259 88.8969 296.996 91.7065 294.532L204.448 294.304Z"/>
	<path fill="#DE9B49" transform="scale(0.488281 0.488281)" d="M204.448 294.304L214.38 303.01L81.9213 302.763C85.2137 301.259 88.8969 296.996 91.7065 294.532L204.448 294.304Z"/>
	<path fill="#FEB953" transform="scale(0.488281 0.488281)" d="M825.03 293.892C830.613 294.456 836.359 294.092 841.972 294.074L868.627 294.167L909.963 294.375C917.407 294.372 924.979 294.605 932.405 294.08C934.881 295.999 937.179 298.036 939.457 300.181C940.133 300.818 941.429 302.396 942.16 302.74C942.557 302.927 944.48 302.74 944.979 302.74C948.71 302.74 952.828 302.381 956.512 302.889L959.25 303.034C960.021 304.881 959.636 307.805 959.631 309.823L959.551 325.991L937.892 325.959L934.551 325.758C931.31 326.265 927.354 325.822 924.03 325.828L900.107 325.854L822.031 325.552L797.384 325.533L797.444 302.648L808.057 302.628C809.935 302.635 812.792 302.251 814.549 302.695C817.69 299.579 821.364 296.349 825.03 293.892Z"/>
	<path fill="#DE9B49" transform="scale(0.488281 0.488281)" d="M825.03 293.892C830.613 294.456 836.359 294.092 841.972 294.074L868.627 294.167L909.963 294.375C917.407 294.372 924.979 294.605 932.405 294.08C934.881 295.999 937.179 298.036 939.457 300.181C940.133 300.818 941.429 302.396 942.16 302.74C942.557 302.927 944.48 302.74 944.979 302.74C948.71 302.74 952.828 302.381 956.512 302.889C951.261 303.493 945.846 302.716 940.601 302.868L867.456 303.144L832.914 303.081C826.926 303.068 820.469 303.529 814.549 302.695C817.69 299.579 821.364 296.349 825.03 293.892Z"/>
	<path fill="#8FD4D2" transform="scale(0.488281 0.488281)" d="M81.0612 325.931L90.0316 325.626L89.9626 441.135C60.2616 453.718 36.2851 476.498 20.6804 504.48C19.3016 501.772 19.3523 497.225 19.0366 494.144C17.1354 475.588 16.5502 456.054 17.6141 437.403C18.0586 429.61 18.9053 421.64 20.5205 414C24.5677 394.857 33.3372 374.807 45.221 359.25C50.7982 351.949 57.2275 345.649 64.0321 339.509C69.4297 334.638 74.941 329.883 81.0612 325.931Z"/>
	<path fill="#8FD4D2" transform="scale(0.488281 0.488281)" d="M934.551 325.758L937.892 325.959C965.648 337.473 985.837 363.811 997.039 391C1000.85 400.251 1003.67 410.441 1005.09 420.361C1006.49 430.125 1006.45 439.842 1006.47 449.68L1005.04 489.868C1004.65 494.515 1004.59 500.025 1003.4 504.514C992.224 483.874 975.355 466.578 955.25 454.515C948.667 450.565 941.422 447.39 934.466 444.148L934.551 325.758Z"/>
	<path fill="#E03833" transform="scale(0.488281 0.488281)" d="M90.0316 325.626L168.497 325.846L189.641 325.715C192.594 325.691 196.23 326.048 199.101 325.56L199.419 382.99L199.587 452.744L206.129 452.827C206.14 457.185 207.023 481.513 205.449 483.551C203.043 483.422 201.138 483.429 198.75 483.731L183.771 483.954L107.005 484.016L107.023 489.988L90.4205 489.981L90.4023 483.621L81.5908 483.572L81.6994 452.328L90.0001 452.42L89.9626 441.135L90.0316 325.626Z"/>
	<path fill="#BB2A28" transform="scale(0.488281 0.488281)" d="M90.4023 483.621C95.8324 484.329 101.531 484.01 107.005 484.016L107.023 489.988L90.4205 489.981L90.4023 483.621Z"/>
	<path fill="#0D3853" transform="scale(0.488281 0.488281)" d="M105.662 351.342L184.032 351.504L184.045 452.183L106.187 452.334C105.585 450.988 105.898 448.334 105.888 446.818L105.796 432.19L105.662 351.342Z"/>
	<path fill="#FEE099" transform="scale(0.488281 0.488281)" d="M118.586 363.003L172.549 363.003L172.522 440.665L118.531 440.791L118.586 363.003Z"/>
	<path fill="#E03833" transform="scale(0.488281 0.488281)" d="M822.031 325.552L900.107 325.854L924.03 325.828C927.354 325.822 931.31 326.265 934.551 325.758L934.466 444.148L934.406 452.265L940.554 452.659L940.742 483.011L934.167 483.1L918.153 483.403L838.585 483.582L838.54 489.379L821.955 488.972L822.002 483.418L813.421 483.515L813.529 462.089C813.528 459.489 812.894 454.852 814.146 452.666L816.882 452.303C818.512 452.385 820.478 452.812 821.885 452L822.031 325.552Z"/>
	<path fill="#BB2A28" transform="scale(0.488281 0.488281)" d="M822.002 483.418C827.285 483.866 833.316 484.356 838.585 483.582L838.54 489.379L821.955 488.972L822.002 483.418Z"/>
	<path fill="#0D3853" transform="scale(0.488281 0.488281)" d="M838.163 350.507L918.109 350.511L918.172 452.443L838.409 452.495L838.163 350.507Z"/>
	<path fill="#FEE099" transform="scale(0.488281 0.488281)" d="M902.534 362.739L904.503 362.851C905.907 365.164 905.103 379.261 905.115 382.735L905.319 440.483L854.875 440.385C853.528 440.381 853.01 440.574 851.91 439.75L851.888 362.956L902.534 362.739Z"/>
	<path fill="#48AB3A" transform="scale(0.488281 0.488281)" d="M317.754 347.612C318.9 347.71 320.044 347.744 321.157 348.047L345.171 404.082L344.039 405.521C344.118 406.504 344.138 406.563 344.75 407.425L345.49 407.147C347.817 406.34 351.971 406.437 354.402 406.899L354.656 406.937L353.62 409.924L349.095 419.71C347.44 423.355 345.778 428.557 343.311 431.63C343.531 434.119 339.743 439.481 338.485 442C335.684 447.608 332.412 453.655 330.926 459.747C328.011 455.98 324.675 452.81 319.75 452.039C315.363 451.351 310.931 452.346 307.515 455.25C304.893 457.48 303.336 460.162 302.212 463.365L301.905 468.199L301.472 467.989C298.728 466.485 292.293 467.49 289.075 467.576L289.088 497.446C289.054 501.973 288.571 507.074 289.363 511.535L269.623 523.061L249.291 537.135C237.417 545.811 225.136 553.731 213.77 563.115C208.774 567.241 203.58 571.493 199.75 576.758L199.051 577.022L199.105 513.552C200.174 503.973 199.32 493.442 199.339 483.756L204.453 483.664L205.449 483.551C207.023 481.513 206.14 457.185 206.129 452.827L199.587 452.744L199.419 382.99C220.132 383.279 241.848 389.184 260.585 397.973L279.727 351.287C285.87 352.595 293.134 352.725 299.431 352.426L303.009 352.161L302.31 351.749C301.961 351.184 301.744 350.786 301.609 350.124L301.502 349.498L301.286 348.5C303.579 346.728 313.619 347.876 317.16 347.654L317.754 347.612Z"/>
	<path fill="#49B66A" transform="scale(0.488281 0.488281)" d="M257.715 404.543L272.542 404.486L271.096 407.921L270.011 409.105C266.212 408.397 262.333 408.622 258.5 408.066C257.308 406.679 257.621 406.313 257.715 404.543Z"/>
	<path fill="#035E3F" transform="scale(0.488281 0.488281)" d="M260.167 467.518C263.118 468.04 266.482 467.56 269.5 467.526L288.468 467.485L289.075 467.576L289.088 497.446C289.054 501.973 288.571 507.074 289.363 511.535L269.623 523.061L249.291 537.135L255.001 522.012L234.257 522.049L260.167 467.518Z"/>
	<path fill="#003826" transform="scale(0.488281 0.488281)" d="M317.754 347.612C318.9 347.71 320.044 347.744 321.157 348.047L345.171 404.082L344.039 405.521C344.118 406.504 344.138 406.563 344.75 407.425L345.49 407.147C347.817 406.34 351.971 406.437 354.402 406.899L354.656 406.937L353.62 409.924L349.095 419.71C347.44 423.355 345.778 428.557 343.311 431.63C343.531 434.119 339.743 439.481 338.485 442C335.684 447.608 332.412 453.655 330.926 459.747C328.011 455.98 324.675 452.81 319.75 452.039C315.363 451.351 310.931 452.346 307.515 455.25C304.893 457.48 303.336 460.162 302.212 463.365L301.905 468.199L301.472 467.989C298.728 466.485 292.293 467.49 289.075 467.576L288.468 467.485L269.5 467.526C266.482 467.56 263.118 468.04 260.167 467.518L262.109 463.722C256.412 464.332 250.233 463.898 244.485 463.87L270.011 409.105L271.096 407.921L272.542 404.486L257.715 404.543C258.93 402.47 259.719 400.207 260.585 397.973L279.727 351.287C285.87 352.595 293.134 352.725 299.431 352.426L303.009 352.161L302.31 351.749C301.961 351.184 301.744 350.786 301.609 350.124L301.502 349.498L301.286 348.5C303.579 346.728 313.619 347.876 317.16 347.654L317.754 347.612Z"/>
	<path fill="#48AB3A" transform="scale(0.488281 0.488281)" d="M329.744 405.19L335.497 405.559L344.039 405.521C344.118 406.504 344.138 406.563 344.75 407.425L345.49 407.147C347.817 406.34 351.971 406.437 354.402 406.899L354.656 406.937L353.62 409.924L349.095 419.71C347.44 423.355 345.778 428.557 343.311 431.63C339.138 422.871 335.353 413.095 329.744 405.19Z"/>
	<path fill="#8FD4D2" transform="scale(0.488281 0.488281)" d="M344.039 405.521C344.118 406.504 344.138 406.563 344.75 407.425L345.49 407.147C347.817 406.34 351.971 406.437 354.402 406.899L354.656 406.937L353.62 409.924L349.095 419.71C344.403 415.342 339.214 410.808 335.497 405.559L344.039 405.521Z"/>
	<path fill="#024735" transform="scale(0.488281 0.488281)" d="M299.431 352.426L303.009 352.161C303.495 352.608 304.111 352.945 304.469 353.5C304.936 354.226 305.227 356.411 305.44 357.315C306.867 363.361 307.648 369.56 307.888 375.764L307.962 396.695C307.961 398.615 308.417 401.966 307.955 403.75C307.861 404.109 307.485 404.325 307.25 404.612L305.74 404.903L299.315 404.857L299.431 352.426Z"/>
	<path fill="#024735" transform="scale(0.488281 0.488281)" d="M290.847 408.544L300.984 408.682L301.281 435.707C301.469 444.635 302.407 454.317 300.372 463.03C297.305 463.046 293.216 462.6 290.31 463.433L288.22 463.816L285.755 463.358L289.75 463.167C289.983 462.945 290.297 462.784 290.448 462.5C290.611 462.193 290.463 460.753 290.466 460.304L290.518 452.799L290.847 408.544Z"/>
	<path fill="#035E3F" transform="scale(0.488281 0.488281)" d="M279.727 351.287C285.87 352.595 293.134 352.725 299.431 352.426L299.315 404.857L272.542 404.486L257.715 404.543C258.93 402.47 259.719 400.207 260.585 397.973L279.727 351.287Z"/>
	<path fill="#035E3F" transform="scale(0.488281 0.488281)" d="M270.011 409.105L271.096 407.921L290.847 408.544L290.518 452.799L290.466 460.304C290.463 460.753 290.611 462.193 290.448 462.5C290.297 462.784 289.983 462.945 289.75 463.167L285.755 463.358L270.183 463.476C267.623 463.497 264.599 463.218 262.109 463.722C256.412 464.332 250.233 463.898 244.485 463.87L270.011 409.105Z"/>
	<path fill="#E03833" transform="scale(0.488281 0.488281)" d="M89.9626 441.135L90.0001 452.42L81.6994 452.328L81.5908 483.572L90.4023 483.621L90.4205 489.981L107.023 489.988L107.005 484.016L183.771 483.954L198.75 483.731C201.138 483.429 203.043 483.422 205.449 483.551L204.453 483.664L199.339 483.756C199.32 493.442 200.174 503.973 199.105 513.552L199.051 577.022L199.566 577.883C201.244 577.969 204.157 577.691 205.526 578.567L205.533 585.598L205.488 596.959L205.546 610.106L202.75 610.395C201.496 612.842 202.464 620.493 202.277 623.609C201.763 625.326 202.214 626.996 202.244 628.75C202.285 631.129 201.703 634.222 202.468 636.465C201.537 638.744 202.052 641.477 202.068 643.909C202.097 648.457 201.907 653.089 202.249 657.622C201.696 662.511 202.032 667.674 202.046 672.6L202.097 703.527L202.479 727.187C202.492 730.009 202.967 733.499 202.533 736.21L89.9952 736.519L81.2468 736.549L81.2626 764.243C81.2546 768.339 81.7141 773.063 81.0919 777.056L81.1655 796.015L18.7264 796.347C13.2605 796.392 5.75288 797.329 0.550821 796.064L-0 796.696L0 563.848C1.01387 564.128 1.52666 564.03 2.17115 564.899C2.80335 564.378 4.19086 552.384 4.53648 550.531C7.60428 534.086 13.1982 519.396 20.6804 504.48C36.2851 476.498 60.2616 453.718 89.9626 441.135Z"/>
	<path fill="#BB2A28" transform="scale(0.488281 0.488281)" d="M183.771 483.954L198.75 483.731C201.138 483.429 203.043 483.422 205.449 483.551L204.453 483.664L199.339 483.756C199.32 493.442 200.174 503.973 199.105 513.552L199.054 512.951L198.894 490.504L184.158 490.519L184.123 510.732C184.112 513.834 184.611 517.838 183.626 520.788L183.771 483.954Z"/>
	<path fill="#0D3853" transform="scale(0.488281 0.488281)" d="M107.005 484.016L183.771 483.954L183.626 520.788L183.538 578.047L107.119 578.037L107.023 489.988L107.005 484.016Z"/>
	<path fill="#0D3853" transform="scale(0.488281 0.488281)" d="M107.084 610.796L184.401 611.002L184.418 719.573L107.331 719.517L107.084 610.796Z"/>
	<path fill="#FEE099" transform="scale(0.488281 0.488281)" d="M119.537 623.205L172.56 623.354L172.458 707.457L119.416 707.458L119.537 623.205Z"/>
	<path fill="#48AB3A" transform="scale(0.488281 0.488281)" d="M89.9626 441.135L90.0001 452.42L81.6994 452.328L81.5908 483.572L90.4023 483.621L90.4205 489.981L90.4926 578.514C88.7094 578.45 82.1242 577.659 80.9426 578.423L81.046 609.691L90.36 609.847L90.1084 634.238L89.9952 736.519L81.2468 736.549L81.2626 764.243C81.2546 768.339 81.7141 773.063 81.0919 777.056L81.1655 796.015L18.7264 796.347C13.2605 796.392 5.75288 797.329 0.550821 796.064L-0 796.696L0 563.848C1.01387 564.128 1.52666 564.03 2.17115 564.899C2.80335 564.378 4.19086 552.384 4.53648 550.531C7.60428 534.086 13.1982 519.396 20.6804 504.48C36.2851 476.498 60.2616 453.718 89.9626 441.135Z"/>
	<path fill="#E6E1D0" transform="scale(0.488281 0.488281)" d="M0 563.848C1.01387 564.128 1.52666 564.03 2.17115 564.899C0.903481 574.146 1.12634 583.653 1.08473 592.97L1.00953 631.582L0.934994 736.687L0.550821 796.064L-0 796.696L0 563.848Z"/>
	<path fill="#035E3F" transform="scale(0.488281 0.488281)" d="M90.1084 634.238L89.9952 736.519L81.2468 736.549L81.2626 764.243C81.2546 768.339 81.7141 773.063 81.0919 777.056L81.1655 796.015L18.7264 796.347L20.146 793.662C21.2807 789.801 23.2454 785.926 24.854 782.216L35.2056 758.865L71.1496 677.728L81.9053 652.717C84.4117 646.626 86.7087 639.863 90.1084 634.238Z"/>
	<path fill="#003826" transform="scale(0.488281 0.488281)" d="M20.146 793.662C24.3922 792.338 28.6856 788.146 32.1662 785.408C49.1466 772.051 65.1054 757.138 80.8697 742.384L81.0312 776.492L81.0919 777.056L81.1655 796.015L18.7264 796.347L20.146 793.662Z"/>
	<path fill="#E03833" transform="scale(0.488281 0.488281)" d="M934.466 444.148C941.422 447.39 948.667 450.565 955.25 454.515C975.355 466.578 992.224 483.874 1003.4 504.514C1009.53 516.785 1015.13 529.656 1018.46 543C1020.09 549.51 1020.73 556.368 1022.45 562.79L1023.02 558.009L1024 557.613L1024 571.625L1024 713.568L1024 793.649L1024 796.136L1023.32 796.029L1023.38 796.473L942.475 796.97L942.329 736.682L934.575 736.631L821.43 736.752C821.951 733.686 821.617 730.317 821.596 727.204L821.432 709.101L821.543 684.195L821.637 665.227C821.645 661.454 822.022 657.293 821.396 653.573C821.984 649.602 821.587 645.1 821.597 641.067L821.592 636.497L821.922 622.964L822.034 611.38L817.75 610.998C817.486 610.748 817.102 610.583 816.957 610.25C816.625 609.487 816.902 606.712 816.888 605.72C816.805 599.762 817.295 593.026 816.27 587.197L816.515 581.25C816.981 579.631 818.343 579.16 819.66 578.325C820.815 578.455 820.898 578.247 821.897 577.75L821.52 574.057C822.425 570.201 821.874 565.101 821.572 561.116L821.955 488.972L838.54 489.379L838.585 483.582L918.153 483.403L934.167 483.1L940.742 483.011L940.554 452.659L934.406 452.265L934.466 444.148Z"/>
	<path fill="#BB2A28" transform="scale(0.488281 0.488281)" d="M918.153 483.403L934.167 483.1L934.119 487.409L918.519 487.426L918.47 506.336C918.455 510.069 918.727 514.074 918.097 517.765L918.153 483.403Z"/>
	<path fill="#0D3853" transform="scale(0.488281 0.488281)" d="M838.585 483.582L918.153 483.403L918.097 517.765C917.522 522.675 918.043 528.281 918.035 533.254L917.979 568.092C917.976 570.317 918.665 576.994 917.683 578.731L838.63 578.94L838.54 489.379L838.585 483.582Z"/>
	<path fill="#0D3853" transform="scale(0.488281 0.488281)" d="M838.379 611.043L917.741 610.927L917.842 716.457L838.335 716.451L838.379 611.043Z"/>
	<path fill="#FEE099" transform="scale(0.488281 0.488281)" d="M850.892 623.063L905.672 623.031L905.59 705.95L850.969 705.979L850.892 623.063Z"/>
	<path fill="#48AB3A" transform="scale(0.488281 0.488281)" d="M934.466 444.148C941.422 447.39 948.667 450.565 955.25 454.515C975.355 466.578 992.224 483.874 1003.4 504.514C1009.53 516.785 1015.13 529.656 1018.46 543C1020.09 549.51 1020.73 556.368 1022.45 562.79L1023.02 558.009L1024 557.613L1024 571.625L1024 713.568L1024 793.649L1024 796.136L1023.32 796.029L1023.38 796.473L942.475 796.97L942.329 736.682L934.575 736.631L934.574 708.704L934.464 610.111L945.083 610.542C945.787 607.431 945.221 603.063 945.186 599.801L945.204 578.447L934.334 578.524L934.119 487.409L934.167 483.1L940.742 483.011L940.554 452.659L934.406 452.265L934.466 444.148Z"/>
	<path fill="#035E3F" transform="scale(0.488281 0.488281)" d="M934.574 708.704L934.464 610.111L945.083 610.542C945.935 615.305 948.093 620.12 949.832 624.636L958.543 647.136L987.11 721.426C994.863 740.718 1002.81 759.784 1012.77 778.056C1015.28 782.647 1017.92 788.252 1021.5 792.048C1022.41 793.009 1022.91 793.717 1023.27 795.019L1023.32 796.029L1023.38 796.473L942.475 796.97L942.329 736.682L934.575 736.631L934.574 708.704Z"/>
	<path fill="#003826" transform="scale(0.488281 0.488281)" d="M934.574 708.704C939.084 712.005 943.128 716.979 946.923 721.099L965.525 741.147L993.003 767.969C1002.87 777.296 1012.6 786.587 1023.27 795.019L1023.32 796.029L1023.38 796.473L942.475 796.97L942.329 736.682L934.575 736.631L934.574 708.704Z"/>
	<path fill="#8FD4D2" transform="scale(0.488281 0.488281)" d="M308.596 271.401C311.625 267.947 314.171 264.247 317.398 260.93C343.898 233.683 379.46 216.615 417.5 214.223C438.911 212.877 460.545 216.755 480.479 224.532C486.1 226.725 491.746 228.934 496.84 232.212C503.234 188.131 526.219 145.916 562.185 119.051C585.824 101.394 614.357 90.6136 643.75 87.9774C653.289 87.1218 663.037 86.7262 672.553 88.1256C691.803 90.9564 711.385 96.3135 728.75 105.229C750.805 116.552 770.125 133.708 784.808 153.576C811.789 190.084 820.589 234.69 813.639 279.146C812.5 286.435 811.12 295.966 808.057 302.628L797.444 302.648L797.384 325.533L822.031 325.552L821.885 452C820.478 452.812 818.512 452.385 816.882 452.303L814.146 452.666C812.894 454.852 813.528 459.489 813.529 462.089L813.421 483.515L822.002 483.418L821.955 488.972L821.572 561.116C814.29 554.966 806.443 549.499 798.609 544.082C783.098 533.356 767.205 523.651 750.566 514.774L719.066 498.761C717.197 497.401 714.542 496.486 712.424 495.477C707.889 493.314 701.426 489.236 696.466 489.125C691.604 487.701 686.693 485.156 682.005 483.217L661.046 475.561L616.426 462.965L588.342 457.135C587.319 456.684 586.282 456.306 585.193 456.045C580.668 454.96 567.842 451.528 564.147 453.806C563.765 454.042 563.436 454.404 563 454.512C561.95 454.772 558.959 454.178 557.776 454.089L539.699 452.801C523.782 451.74 507.653 451.548 491.713 452.252L470.838 453.606C467.774 453.827 463.732 454.579 460.732 454.076L459.955 453.874C456.546 452.655 451.275 454.008 447.75 454.549C443.745 455.163 438.952 455.515 435.235 457.219L416.304 461.024C415.211 456.522 413.254 452.03 411.689 447.659L399.736 415.956L395.435 407.301C389.018 405.85 380.477 406.725 373.837 406.951L373.448 406.78L360.51 406.565C358.703 406.579 356.358 406.305 354.656 406.937L354.402 406.899C351.971 406.437 347.817 406.34 345.49 407.147L344.75 407.425C344.138 406.563 344.118 406.504 344.039 405.521L345.171 404.082L321.157 348.047L332.9 348.475L308.596 271.401Z"/>
	<path fill="#035E3F" transform="scale(0.488281 0.488281)" d="M345.171 404.082L374.124 314.75L374.75 315.071L375.274 316.996C374.908 317.414 374.415 317.749 374.175 318.25C373.902 318.818 374.13 320.852 374.118 321.625L374.081 334.399L374.027 391.37C374.034 393.786 374.704 404.991 374.053 406.149C373.911 406.403 373.65 406.569 373.448 406.78L360.51 406.565C358.703 406.579 356.358 406.305 354.656 406.937L354.402 406.899C351.971 406.437 347.817 406.34 345.49 407.147L344.75 407.425C344.138 406.563 344.118 406.504 344.039 405.521L345.171 404.082Z"/>
	<path fill="#024735" transform="scale(0.488281 0.488281)" d="M373.448 406.78C373.65 406.569 373.911 406.403 374.053 406.149C374.704 404.991 374.034 393.786 374.027 391.37L374.081 334.399L374.118 321.625C374.13 320.852 373.902 318.818 374.175 318.25C374.415 317.749 374.908 317.414 375.274 316.996L407.268 407.347C403.732 407.354 398.8 408.022 395.435 407.301C389.018 405.85 380.477 406.725 373.837 406.951L373.448 406.78Z"/>
	<path fill="#48AB3A" transform="scale(0.488281 0.488281)" d="M399.736 415.956L418.515 427.993C432.587 394.734 457.868 367.621 491.538 354.056C520.954 342.205 554.924 342.055 584.183 354.526C614.44 367.422 637.018 388.717 653.352 417.079C660.228 412.584 667.373 408.408 675.005 405.32C694.89 397.277 718.312 395.237 739.307 399.568C753.911 402.58 768.539 407.714 781.089 415.87C795.323 425.12 807.248 438.422 816.882 452.303L814.146 452.666C812.894 454.852 813.528 459.489 813.529 462.089L813.421 483.515L822.002 483.418L821.955 488.972L821.572 561.116C814.29 554.966 806.443 549.499 798.609 544.082C783.098 533.356 767.205 523.651 750.566 514.774L719.066 498.761C717.197 497.401 714.542 496.486 712.424 495.477C707.889 493.314 701.426 489.236 696.466 489.125C691.604 487.701 686.693 485.156 682.005 483.217L661.046 475.561L616.426 462.965L588.342 457.135C587.319 456.684 586.282 456.306 585.193 456.045C580.668 454.96 567.842 451.528 564.147 453.806C563.765 454.042 563.436 454.404 563 454.512C561.95 454.772 558.959 454.178 557.776 454.089L539.699 452.801C523.782 451.74 507.653 451.548 491.713 452.252L470.838 453.606C467.774 453.827 463.732 454.579 460.732 454.076L459.955 453.874C456.546 452.655 451.275 454.008 447.75 454.549C443.745 455.163 438.952 455.515 435.235 457.219L416.304 461.024C415.211 456.522 413.254 452.03 411.689 447.659L399.736 415.956Z"/>
	<path fill="#841913" transform="scale(0.488281 0.488281)" d="M564.579 442.57C566.354 443.797 567.978 444.833 570 445.597L570.647 445.845C576.702 448.014 582.344 445.69 587.893 443.483C588.631 447.998 588.413 452.577 588.342 457.135C587.319 456.684 586.282 456.306 585.193 456.045C580.668 454.96 567.842 451.528 564.147 453.806L564.579 442.57Z"/>
	<path fill="#841913" transform="scale(0.488281 0.488281)" d="M696.441 477.88C699.217 479.577 701.759 480.979 705 481.554L705.757 481.692C711.082 482.575 714.792 479.707 719.471 477.913L719.066 498.761C717.197 497.401 714.542 496.486 712.424 495.477C707.889 493.314 701.426 489.236 696.466 489.125L696.441 477.88Z"/>
	<path fill="#E03833" transform="scale(0.488281 0.488281)" d="M564.579 442.57C561.761 438.634 560.19 435.153 561.011 430.13C561.703 425.903 564.306 422.015 567.873 419.673C571.273 417.441 575.522 416.47 579.498 417.399C583.398 418.31 586.974 421.082 589.033 424.492C591.264 428.187 592.397 432.784 591.186 437.038C590.55 439.275 589.115 441.518 587.893 443.483C582.344 445.69 576.702 448.014 570.647 445.845L570 445.597C567.978 444.833 566.354 443.797 564.579 442.57Z"/>
	<path fill="#E03833" transform="scale(0.488281 0.488281)" d="M696.441 477.88C693.317 473.835 691.332 470.568 691.985 465.25C692.489 461.159 695.092 456.984 698.467 454.666C702.097 452.173 706.755 451.149 711.075 452.121C715.419 453.098 719.239 455.456 721.617 459.297C723.891 462.969 724.437 467.338 723.347 471.5C722.734 473.84 721.002 476.079 719.471 477.913C714.792 479.707 711.082 482.575 705.757 481.692L705 481.554C701.759 480.979 699.217 479.577 696.441 477.88Z"/>
	<path fill="#E03833" transform="scale(0.488281 0.488281)" d="M435.085 441.072C432.729 436.701 430.903 432.738 432.536 427.722C433.828 423.757 436.859 420.384 440.598 418.573C444.215 416.822 448.38 416.188 452.25 417.513C456.701 419.036 460.629 422.17 462.618 426.488C464.313 430.17 463.761 435.223 462.362 438.924C461.864 440.242 461.113 441.427 460.359 442.61C459.723 446.305 459.924 450.135 459.955 453.874C456.546 452.655 451.275 454.008 447.75 454.549C443.745 455.163 438.952 455.515 435.235 457.219L435.085 441.072Z"/>
	<path fill="#841913" transform="scale(0.488281 0.488281)" d="M435.085 441.072C439.19 444.543 442.538 447.248 448.283 446.797C452.918 446.434 456.362 444.913 460.359 442.61C459.723 446.305 459.924 450.135 459.955 453.874C456.546 452.655 451.275 454.008 447.75 454.549C443.745 455.163 438.952 455.515 435.235 457.219L435.085 441.072Z"/>
	<path fill="#BB2A28" transform="scale(0.488281 0.488281)" d="M354.656 406.937C356.358 406.305 358.703 406.579 360.51 406.565L373.448 406.78L373.837 406.951C380.477 406.725 389.018 405.85 395.435 407.301L399.736 415.956L411.689 447.659C413.254 452.03 415.211 456.522 416.304 461.024L435.235 457.219C438.952 455.515 443.745 455.163 447.75 454.549C451.275 454.008 456.546 452.655 459.955 453.874L460.732 454.076C463.732 454.579 467.774 453.827 470.838 453.606L491.713 452.252C507.653 451.548 523.782 451.74 539.699 452.801L557.776 454.089C558.959 454.178 561.95 454.772 563 454.512C563.436 454.404 563.765 454.042 564.147 453.806C567.842 451.528 580.668 454.96 585.193 456.045C586.282 456.306 587.319 456.684 588.342 457.135L616.426 462.965L661.046 475.561L682.005 483.217C686.693 485.156 691.604 487.701 696.466 489.125C701.426 489.236 707.889 493.314 712.424 495.477C714.542 496.486 717.197 497.401 719.066 498.761L750.566 514.774C767.205 523.651 783.098 533.356 798.609 544.082C806.443 549.499 814.29 554.966 821.572 561.116C821.874 565.101 822.425 570.201 821.52 574.057L821.897 577.75C820.898 578.247 820.815 578.455 819.66 578.325C818.343 579.16 816.981 579.631 816.515 581.25L816.27 587.197C817.295 593.026 816.805 599.762 816.888 605.72C816.902 606.712 816.625 609.487 816.957 610.25C817.102 610.583 817.486 610.748 817.75 610.998L822.034 611.38L821.922 622.964L821.592 636.497L821.597 641.067C821.587 645.1 821.984 649.602 821.396 653.573C822.022 657.293 821.645 661.454 821.637 665.227L821.543 684.195L821.432 709.101L821.596 727.204C821.617 730.317 821.951 733.686 821.43 736.752L814.503 738.354L814.794 872.796L811.999 872.592L775.389 872.698C774.212 872.732 772.869 872.905 771.755 872.476C771.057 872.208 770.351 867.413 770.152 866.481C767.204 852.717 763.224 839.139 757.291 826.351L740.774 796.332C735.845 787.769 729.666 779.838 723.46 772.177C705.419 749.91 684.807 730.995 661.248 714.671C648.65 706.106 635.372 698.212 621.547 691.79C572.117 668.827 517.284 662.284 463.869 672.433C427.451 679.353 389.719 695.013 359.553 716.672C335.863 732.083 314.587 752.895 297.353 775.247C292.16 781.982 286.79 789.01 282.544 796.388L267.094 823.531C258.619 838.122 252.31 855.123 247.706 871.316L208.935 871.533L205.179 871.765L205.317 766.471L205.21 744.868C205.193 742.401 205.67 738.745 204.75 736.452L202.533 736.21C202.967 733.499 202.492 730.009 202.479 727.187L202.097 703.527L202.046 672.6C202.032 667.674 201.696 662.511 202.249 657.622C201.907 653.089 202.097 648.457 202.068 643.909C202.052 641.477 201.537 638.744 202.468 636.465C201.703 634.222 202.285 631.129 202.244 628.75C202.214 626.996 201.763 625.326 202.277 623.609C202.464 620.493 201.496 612.842 202.75 610.395L205.546 610.106L205.488 596.959L205.533 585.598L205.526 578.567C204.157 577.691 201.244 577.969 199.566 577.883L199.051 577.022L199.75 576.758C203.58 571.493 208.774 567.241 213.77 563.115C225.136 553.731 237.417 545.811 249.291 537.135L269.623 523.061L289.363 511.535C288.571 507.074 289.054 501.973 289.088 497.446L289.075 467.576C292.293 467.49 298.728 466.485 301.472 467.989L301.905 468.199L302.212 463.365C303.336 460.162 304.893 457.48 307.515 455.25C310.931 452.346 315.363 451.351 319.75 452.039C324.675 452.81 328.011 455.98 330.926 459.747C332.412 453.655 335.684 447.608 338.485 442C339.743 439.481 343.531 434.119 343.311 431.63C345.778 428.557 347.44 423.355 349.095 419.71L353.62 409.924L354.656 406.937Z"/>
	<path fill="#BDB397" transform="scale(0.488281 0.488281)" d="M202.046 672.6L221.652 658.868L259.344 635.033L306.007 610.75C314.882 606.501 323.472 601.894 332.598 598.15C389.949 574.625 451.825 561.311 513.954 562.032C541.199 562.349 569.137 565.705 595.847 571.037C661.962 584.233 727.989 612.787 782.675 652.185C796.457 662.113 808.787 673.066 821.543 684.195L821.432 709.101C816.936 704.573 811.88 700.469 807.014 696.344L778.495 673.882C765.091 664.143 751.425 654.729 737.103 646.384C692.026 620.118 642.716 602.064 591.5 592.392C575.352 589.343 559.132 586.809 542.728 585.652C469.885 580.512 396.458 592.911 329.642 622.609C306.303 632.982 284.08 645.564 262.558 659.271C241.555 672.648 220.929 687.21 202.097 703.527L202.046 672.6Z"/>
	<path fill="#E03833" transform="scale(0.488281 0.488281)" d="M208.935 871.533C209.738 861.183 214.359 849.425 217.801 839.592C226.272 815.393 236.85 791.781 250.657 770.123C257.656 759.143 265.59 748.844 273.636 738.623C285.052 724.12 297.898 709.616 311.994 697.611C364.16 653.184 426.266 625.31 495.063 621.461C507.967 620.74 521.498 620.267 534.389 621.371C606.393 627.537 674.246 657.703 726.485 707.849C736.038 717.02 744.761 727.112 753.25 737.264C764.451 750.658 772.772 765.444 780.75 780.888C793.166 804.926 804.01 830.397 809.456 857C810.487 862.039 812.429 867.407 811.999 872.592L775.389 872.698C774.212 872.732 772.869 872.905 771.755 872.476C771.057 872.208 770.351 867.413 770.152 866.481C767.204 852.717 763.224 839.139 757.291 826.351L740.774 796.332C735.845 787.769 729.666 779.838 723.46 772.177C705.419 749.91 684.807 730.995 661.248 714.671C648.65 706.106 635.372 698.212 621.547 691.79C572.117 668.827 517.284 662.284 463.869 672.433C427.451 679.353 389.719 695.013 359.553 716.672C335.863 732.083 314.587 752.895 297.353 775.247C292.16 781.982 286.79 789.01 282.544 796.388L267.094 823.531C258.619 838.122 252.31 855.123 247.706 871.316L208.935 871.533Z"/>
	<path fill="#BB2A28" transform="scale(0.488281 0.488281)" d="M354.656 406.937C356.358 406.305 358.703 406.579 360.51 406.565L373.448 406.78L373.837 406.951C380.477 406.725 389.018 405.85 395.435 407.301L399.736 415.956L411.689 447.659C413.254 452.03 415.211 456.522 416.304 461.024L435.235 457.219C438.952 455.515 443.745 455.163 447.75 454.549C451.275 454.008 456.546 452.655 459.955 453.874L460.732 454.076C463.732 454.579 467.774 453.827 470.838 453.606L491.713 452.252C507.653 451.548 523.782 451.74 539.699 452.801L557.776 454.089C558.959 454.178 561.95 454.772 563 454.512C563.436 454.404 563.765 454.042 564.147 453.806C567.842 451.528 580.668 454.96 585.193 456.045C586.282 456.306 587.319 456.684 588.342 457.135L616.426 462.965L661.046 475.561L682.005 483.217C686.693 485.156 691.604 487.701 696.466 489.125C701.426 489.236 707.889 493.314 712.424 495.477C714.542 496.486 717.197 497.401 719.066 498.761L750.566 514.774C767.205 523.651 783.098 533.356 798.609 544.082C806.443 549.499 814.29 554.966 821.572 561.116C821.874 565.101 822.425 570.201 821.52 574.057L821.897 577.75C820.898 578.247 820.815 578.455 819.66 578.325C818.343 579.16 816.981 579.631 816.515 581.25L816.27 587.197C817.295 593.026 816.805 599.762 816.888 605.72C816.902 606.712 816.625 609.487 816.957 610.25C817.102 610.583 817.486 610.748 817.75 610.998L822.034 611.38L821.922 622.964L821.592 636.497L821.597 641.067C821.587 645.1 821.984 649.602 821.396 653.573C822.022 657.293 821.645 661.454 821.637 665.227L821.543 684.195C808.787 673.066 796.457 662.113 782.675 652.185C727.989 612.787 661.962 584.233 595.847 571.037C569.137 565.705 541.199 562.349 513.954 562.032C451.825 561.311 389.949 574.625 332.598 598.15C323.472 601.894 314.882 606.501 306.007 610.75L259.344 635.033L221.652 658.868L202.046 672.6C202.032 667.674 201.696 662.511 202.249 657.622C201.907 653.089 202.097 648.457 202.068 643.909C202.052 641.477 201.537 638.744 202.468 636.465C201.703 634.222 202.285 631.129 202.244 628.75C202.214 626.996 201.763 625.326 202.277 623.609C202.464 620.493 201.496 612.842 202.75 610.395L205.546 610.106L205.488 596.959L205.533 585.598L205.526 578.567C204.157 577.691 201.244 577.969 199.566 577.883L199.051 577.022L199.75 576.758C203.58 571.493 208.774 567.241 213.77 563.115C225.136 553.731 237.417 545.811 249.291 537.135L269.623 523.061L289.363 511.535C288.571 507.074 289.054 501.973 289.088 497.446L289.075 467.576C292.293 467.49 298.728 466.485 301.472 467.989L301.905 468.199L302.212 463.365C303.336 460.162 304.893 457.48 307.515 455.25C310.931 452.346 315.363 451.351 319.75 452.039C324.675 452.81 328.011 455.98 330.926 459.747C332.412 453.655 335.684 447.608 338.485 442C339.743 439.481 343.531 434.119 343.311 431.63C345.778 428.557 347.44 423.355 349.095 419.71L353.62 409.924L354.656 406.937Z"/>
	<path fill="#003826" transform="scale(0.488281 0.488281)" d="M300.817 531.283L305.009 528.769L305.033 557.521L300.884 559.93C299.86 550.823 300.268 540.446 300.817 531.283Z"/>
	<path fill="#035E3F" transform="scale(0.488281 0.488281)" d="M328.569 530.285L337.742 520.041L362.589 520.56L362.597 529.096L328.53 542.68L328.569 530.285Z"/>
	<path fill="#48AB3A" transform="scale(0.488281 0.488281)" d="M408.378 486.601L434.464 481.248L434.438 511.691L422.007 513.258C418.417 504.099 413.082 495.241 408.378 486.601Z"/>
	<path fill="#841913" transform="scale(0.488281 0.488281)" d="M202.468 636.465C205.822 634.925 209.336 631.602 212.398 629.379L240.832 608.779C260.812 594.444 282.037 581.492 304.105 570.653L304.857 571.031C304.991 572.691 305.15 573.763 304.271 575.272L203 641.848L202.372 641.25L202.468 636.465Z"/>
	<path fill="#48AB3A" transform="scale(0.488281 0.488281)" d="M207.583 596.651L237.87 573.552L223.422 609.3L203.25 625.079L202.614 624.995L202.277 623.609C202.464 620.493 201.496 612.842 202.75 610.395L205.546 610.106L205.488 596.959L207.583 596.651Z"/>
	<path fill="#841913" transform="scale(0.488281 0.488281)" d="M205.488 596.959L207.583 596.651L208 597.39L208.559 597.693C210.252 598.637 211.558 599.315 212.161 601.278C212.683 602.98 212.37 604.451 211.51 605.974C210.355 608.019 209.184 609.513 206.756 609.989L205.546 610.106L205.488 596.959Z"/>
	<path fill="#035E3F" transform="scale(0.488281 0.488281)" d="M237.87 573.552C240.336 571.301 243.191 569.472 245.929 567.566C250.504 567.705 274.958 567.73 276.603 569.649C277.25 570.405 277.615 571.251 278.052 572.136L223.422 609.3L237.87 573.552Z"/>
	<path fill="#024735" transform="scale(0.488281 0.488281)" d="M300.817 531.283C300.268 540.446 299.86 550.823 300.884 559.93L278.052 572.136C277.615 571.251 277.25 570.405 276.603 569.649C274.958 567.73 250.504 567.705 245.929 567.566L253.502 562.405L285.802 540.015L300.817 531.283Z"/>
	<path fill="#035E3F" transform="scale(0.488281 0.488281)" d="M253.502 562.405L285.802 540.015L285.909 563.93L254.262 563.197L253.502 562.405Z"/>
	<path fill="#003826" transform="scale(0.488281 0.488281)" d="M408.378 486.601C413.082 495.241 418.417 504.099 422.007 513.258C401.964 517.059 381.688 521.79 362.597 529.096L362.589 520.56L337.742 520.041L328.569 530.285C328.541 526.492 327.655 520.296 328.702 516.794C328.916 516.079 330.347 515.679 331.017 515.361C342.445 508.693 355.269 503.918 367.539 499.03L379.97 495.085L408.378 486.601Z"/>
	<path fill="#024735" transform="scale(0.488281 0.488281)" d="M367.539 499.03L379.97 495.085C380.922 501.228 380.034 508.569 379.879 514.841C375.807 514.898 371.41 514.727 367.439 515.709L367.539 499.03Z"/>
	<path fill="#035E3F" transform="scale(0.488281 0.488281)" d="M331.017 515.361C342.445 508.693 355.269 503.918 367.539 499.03L367.439 515.709C364.872 516.321 361.753 516.044 359.106 516.033L343 515.951C339.763 515.959 333.853 516.822 331.017 515.361Z"/>
	<path fill="#841913" transform="scale(0.488281 0.488281)" d="M821.597 641.067C811.824 635.127 802.967 626.709 793.882 619.696C780.278 609.196 765.986 599.455 751.302 590.534C719.414 571.163 684.751 553.965 649.228 542.362C633.165 537.115 616.218 532.559 599.575 529.558L569.77 525.542L539.127 522.26C496.766 519.666 453.029 522.627 411.43 531.074C392.963 534.824 374.451 540.596 357.011 547.726C353.255 549.262 330.374 560.601 328.177 560.363C328.011 558.771 327.755 557.325 328.25 555.765C378.26 528.634 434.621 519.888 490.742 517.263C513.412 516.202 536.422 517.382 558.971 519.692C601.048 524.004 640.958 533.09 680.166 549.159C696.609 555.898 712.553 564.005 728.264 572.289C761.423 589.772 793.826 611.227 821.592 636.497L821.597 641.067Z"/>
	<path fill="#48AB3A" transform="scale(0.488281 0.488281)" d="M821.922 622.964C818.741 620.831 815.909 618.15 812.923 615.75L796.015 602.879C771.939 585.421 746.439 569.643 719.545 556.893L719.633 526.332C740.287 534.548 759.935 547.304 778.367 559.608C791.279 568.227 804.414 577.168 816.27 587.197C817.295 593.026 816.805 599.762 816.888 605.72C816.902 606.712 816.625 609.487 816.957 610.25C817.102 610.583 817.486 610.748 817.75 610.998L822.034 611.38L821.922 622.964Z"/>
	<path fill="#48AB3A" transform="scale(0.488281 0.488281)" d="M493.174 476.221L563.916 478.545L563.689 509.448L533.625 507.052L460.717 508.607L460.777 478.75L493.174 476.221Z"/>
	<path fill="#48AB3A" transform="scale(0.488281 0.488281)" d="M589.083 482.271C593.306 482.601 597.509 483.81 601.67 484.597C633.841 490.68 666.002 501.361 696.049 514.261L695.978 544.857C661.025 530.963 626.171 520.051 589.118 513.42L589.083 482.271Z"/>
	<path fill="#BB2A28" transform="scale(0.488281 0.488281)" d="M354.656 406.937C356.358 406.305 358.703 406.579 360.51 406.565L373.448 406.78L373.837 406.951C380.477 406.725 389.018 405.85 395.435 407.301L399.736 415.956L411.689 447.659C413.254 452.03 415.211 456.522 416.304 461.024L435.235 457.219C438.952 455.515 443.745 455.163 447.75 454.549C451.275 454.008 456.546 452.655 459.955 453.874L460.732 454.076C463.732 454.579 467.774 453.827 470.838 453.606L491.713 452.252C507.653 451.548 523.782 451.74 539.699 452.801L557.776 454.089C558.959 454.178 561.95 454.772 563 454.512C563.436 454.404 563.765 454.042 564.147 453.806C567.842 451.528 580.668 454.96 585.193 456.045C586.282 456.306 587.319 456.684 588.342 457.135L616.426 462.965L661.046 475.561L682.005 483.217C686.693 485.156 691.604 487.701 696.466 489.125C701.426 489.236 707.889 493.314 712.424 495.477C714.542 496.486 717.197 497.401 719.066 498.761L750.566 514.774C767.205 523.651 783.098 533.356 798.609 544.082C806.443 549.499 814.29 554.966 821.572 561.116C821.874 565.101 822.425 570.201 821.52 574.057L821.897 577.75C820.898 578.247 820.815 578.455 819.66 578.325L790 557.09C770.561 543.921 750.065 531.68 729.268 520.759C717.082 514.36 704.238 508.714 691.5 503.52C656.563 489.273 619.899 478.32 582.599 472.3C570.449 470.339 558.19 469.345 545.927 468.438C505.881 465.477 464.925 467.461 425.435 474.935C401.075 479.546 377.383 486.415 354.316 495.482C346.71 498.471 338.387 501.597 331.5 506.053L328.441 508.075C327.915 508.416 327.898 508.347 327.195 508.556C324.652 509.311 322.1 510.862 319.685 511.997C309.468 516.799 300.063 522.499 290.363 528.25C269.581 540.573 249.185 552.486 229.587 566.719C221.45 572.629 214.019 580.342 205.533 585.598L205.526 578.567C204.157 577.691 201.244 577.969 199.566 577.883L199.051 577.022L199.75 576.758C203.58 571.493 208.774 567.241 213.77 563.115C225.136 553.731 237.417 545.811 249.291 537.135L269.623 523.061L289.363 511.535C288.571 507.074 289.054 501.973 289.088 497.446L289.075 467.576C292.293 467.49 298.728 466.485 301.472 467.989L301.905 468.199L302.212 463.365C303.336 460.162 304.893 457.48 307.515 455.25C310.931 452.346 315.363 451.351 319.75 452.039C324.675 452.81 328.011 455.98 330.926 459.747C332.412 453.655 335.684 447.608 338.485 442C339.743 439.481 343.531 434.119 343.311 431.63C345.778 428.557 347.44 423.355 349.095 419.71L353.62 409.924L354.656 406.937Z"/>
	<path fill="#024735" transform="scale(0.488281 0.488281)" d="M289.075 467.576C292.293 467.49 298.728 466.485 301.472 467.989L301.905 468.199C302.58 471.816 303.606 474.104 305.949 477.003L305.945 503.158L301.458 505.34L289.363 511.535C288.571 507.074 289.054 501.973 289.088 497.446L289.075 467.576Z"/>
	<path fill="#003826" transform="scale(0.488281 0.488281)" d="M301.905 468.199C302.58 471.816 303.606 474.104 305.949 477.003L305.945 503.158L301.458 505.34C300.214 501.49 300.837 496.048 300.833 492C300.825 484.279 300.056 475.561 301.472 467.989L301.905 468.199Z"/>
	<path fill="#035E3F" transform="scale(0.488281 0.488281)" d="M345.727 462.391C347.208 462.366 349.16 462.108 350.54 462.583C354.238 464.754 362.106 464.672 366.568 465.28L366.704 475.587L335.69 487.844C334.87 488.872 330.026 490.833 328.65 491.551L328.515 477.96L329.617 476.556C332.507 472.162 333.875 468.376 332.698 463.138C336.843 462.217 341.486 462.488 345.727 462.391Z"/>
	<path fill="#003826" transform="scale(0.488281 0.488281)" d="M332.698 463.138C336.843 462.217 341.486 462.488 345.727 462.391C342.631 471.034 338.255 478.968 335.69 487.844C334.87 488.872 330.026 490.833 328.65 491.551L328.515 477.96L329.617 476.556C332.507 472.162 333.875 468.376 332.698 463.138Z"/>
	<path fill="#E03833" transform="scale(0.488281 0.488281)" d="M302.212 463.365C303.336 460.162 304.893 457.48 307.515 455.25C310.931 452.346 315.363 451.351 319.75 452.039C324.675 452.81 328.011 455.98 330.926 459.747L332.698 463.138C333.875 468.376 332.507 472.162 329.617 476.556L328.515 477.96C325.8 479.555 323.546 481.037 320.362 481.605C314.978 482.566 310.236 479.89 305.949 477.003C303.606 474.104 302.58 471.816 301.905 468.199L302.212 463.365Z"/>
	<path fill="#841913" transform="scale(0.488281 0.488281)" d="M205.526 578.567C206.415 578.63 207.191 578.69 208.026 578.317C211.277 576.865 214.581 573.725 217.435 571.562L241.879 553.141C264.446 537.68 288.503 523.362 313 511.182C317.501 508.944 322.874 505.812 327.758 504.714L328.25 504.607C328.804 503.907 329.028 503.578 329.174 502.666L329.25 501.97C362.502 484.786 399.319 474.798 436.023 468.433C449.824 466.04 464.002 465.007 477.964 463.968C510.996 461.508 545.132 462.107 577.957 466.844C641.408 476.001 703.032 499.751 758.388 531.627C780.567 544.398 800.66 559.351 821.52 574.057L821.897 577.75C820.898 578.247 820.815 578.455 819.66 578.325L790 557.09C770.561 543.921 750.065 531.68 729.268 520.759C717.082 514.36 704.238 508.714 691.5 503.52C656.563 489.273 619.899 478.32 582.599 472.3C570.449 470.339 558.19 469.345 545.927 468.438C505.881 465.477 464.925 467.461 425.435 474.935C401.075 479.546 377.383 486.415 354.316 495.482C346.71 498.471 338.387 501.597 331.5 506.053L328.441 508.075C327.915 508.416 327.898 508.347 327.195 508.556C324.652 509.311 322.1 510.862 319.685 511.997C309.468 516.799 300.063 522.499 290.363 528.25C269.581 540.573 249.185 552.486 229.587 566.719C221.45 572.629 214.019 580.342 205.533 585.598L205.526 578.567Z"/>
	<path fill="#003826" transform="scale(0.488281 0.488281)" d="M354.656 406.937C356.358 406.305 358.703 406.579 360.51 406.565L373.448 406.78L373.837 406.951C380.477 406.725 389.018 405.85 395.435 407.301L399.736 415.956L411.689 447.659C413.254 452.03 415.211 456.522 416.304 461.024L374.532 472.851L366.704 475.587L366.568 465.28C362.106 464.672 354.238 464.754 350.54 462.583C349.16 462.108 347.208 462.366 345.727 462.391C341.486 462.488 336.843 462.217 332.698 463.138L330.926 459.747C332.412 453.655 335.684 447.608 338.485 442C339.743 439.481 343.531 434.119 343.311 431.63C345.778 428.557 347.44 423.355 349.095 419.71L353.62 409.924L354.656 406.937Z"/>
	<path fill="#024735" transform="scale(0.488281 0.488281)" d="M366.568 465.28L373.072 464.603L374.532 472.851L366.704 475.587L366.568 465.28Z"/>
	<path fill="#024735" transform="scale(0.488281 0.488281)" d="M354.656 406.937C356.358 406.305 358.703 406.579 360.51 406.565L373.448 406.78L373.837 406.951C375.456 411.925 376.127 417.426 376.951 422.581C379.062 435.79 380.384 448.44 380.425 461.82L366.973 461.929L367.001 409.578L353.62 409.924L354.656 406.937Z"/>
	<path fill="#035E3F" transform="scale(0.488281 0.488281)" d="M349.095 419.71L353.62 409.924L367.001 409.578L366.973 461.929C361.809 462.221 355.666 463.1 350.54 462.583C349.16 462.108 347.208 462.366 345.727 462.391C341.486 462.488 336.843 462.217 332.698 463.138L330.926 459.747C332.412 453.655 335.684 447.608 338.485 442C339.743 439.481 343.531 434.119 343.311 431.63C345.778 428.557 347.44 423.355 349.095 419.71Z"/>
	<path fill="#E6E1D0" transform="scale(0.488281 0.488281)" d="M202.249 657.622C224.419 638.238 248.613 621.156 273.135 604.902C283.51 598.025 293.795 590.775 304.85 585.018L304.823 605.035C312.063 600.976 320.15 598.079 327.936 595.257L327.824 578.584C327.813 576.723 327.419 573.834 328.125 572.153C353.173 559.004 378.049 548.085 405.509 540.765C415.25 538.169 425.098 536.43 434.99 534.54L434.977 555.935L460.597 553.714L460.564 529.573C495.436 526.858 529.46 526.501 564.327 530.01L564.178 554.416C572.429 554.628 581.051 556.158 589.152 557.603L589.132 533.759C625.42 542.734 662.794 552.351 696.266 569.468L696.011 595.769L719.956 604.887L719.894 581.424C756.571 601.112 790.852 625.244 821.396 653.573C822.022 657.293 821.645 661.454 821.637 665.227L821.543 684.195C808.787 673.066 796.457 662.113 782.675 652.185C727.989 612.787 661.962 584.233 595.847 571.037C569.137 565.705 541.199 562.349 513.954 562.032C451.825 561.311 389.949 574.625 332.598 598.15C323.472 601.894 314.882 606.501 306.007 610.75L259.344 635.033L221.652 658.868L202.046 672.6C202.032 667.674 201.696 662.511 202.249 657.622Z"/>
	<path fill="#04A3CE" transform="scale(0.488281 0.488281)" d="M359.553 716.672C389.719 695.013 427.451 679.353 463.869 672.433C517.284 662.284 572.117 668.827 621.547 691.79C635.372 698.212 648.65 706.106 661.248 714.671C684.807 730.995 705.419 749.91 723.46 772.177C729.666 779.838 735.845 787.769 740.774 796.332L757.291 826.351C763.224 839.139 767.204 852.717 770.152 866.481C770.351 867.413 771.057 872.208 771.755 872.476C772.869 872.905 774.212 872.732 775.389 872.698L811.999 872.592L814.794 872.796L814.503 738.354L821.43 736.752L934.575 736.631L942.329 736.682L942.475 796.97L1023.38 796.473L1023.32 796.029L1024 796.136C1024.01 815.917 1024.95 1021.3 1023.5 1024L-0 1024L0 796.696L0.550821 796.064C5.75288 797.329 13.2605 796.392 18.7264 796.347L81.1655 796.015L81.0919 777.056C81.7141 773.063 81.2546 768.339 81.2626 764.243L81.2468 736.549L89.9952 736.519L202.533 736.21L204.75 736.452C205.67 738.745 205.193 742.401 205.21 744.868L205.317 766.471L205.179 871.765L208.935 871.533L247.706 871.316C252.31 855.123 258.619 838.122 267.094 823.531L282.544 796.388C286.79 789.01 292.16 781.982 297.353 775.247C314.587 752.895 335.863 732.083 359.553 716.672Z"/>
	<path fill="#027DAA" transform="scale(0.488281 0.488281)" d="M81.0438 871.875C72.2849 871.587 64.4287 871.459 57.6836 864.984C52.9533 860.444 49.4632 854.243 49.5724 847.5C49.6842 840.593 52.6222 834.019 57.5321 829.216C64.8567 822.052 71.6373 822.896 81.1201 823.002L81.0438 871.875Z"/>
	<path fill="#027DAA" transform="scale(0.488281 0.488281)" d="M942.512 823.223C952.05 822.832 959.689 823.705 966.958 830.552C971.51 834.84 974.318 840.698 974.426 847C974.542 853.839 971.854 860.063 966.997 864.8C963.367 868.341 958.628 871.038 953.566 871.799C949.924 872.347 946.172 872.005 942.508 872.435L942.512 823.223Z"/>
	<path fill="#027DAA" transform="scale(0.488281 0.488281)" d="M775.389 872.698L774.733 873.065L743.928 872.973C739.633 872.976 734.723 873.43 730.523 872.664C728.32 872.261 726.212 871.466 724.222 870.45L723.5 870.072C722.523 869.567 721.622 869.07 720.75 868.391C715.92 864.63 711.947 858.435 711.491 852.25C710.96 845.047 713.205 839.206 718.014 833.859C721.023 830.512 725.14 828.019 729.517 826.964C732.626 826.215 736.125 826.496 739.319 826.497L757.291 826.351C763.224 839.139 767.204 852.717 770.152 866.481C770.351 867.413 771.057 872.208 771.755 872.476C772.869 872.905 774.212 872.732 775.389 872.698Z"/>
	<path fill="#027DAA" transform="scale(0.488281 0.488281)" d="M267.094 823.531L267.705 823.795C269.51 824.513 272.94 824.078 274.93 824.075L288.633 824.051C291.806 824.051 295.142 823.856 298.25 824.602C305.538 826.353 311.545 831.738 314.713 838.422C317.341 843.968 317.635 850.252 315.461 855.992L313.654 859.645L313.295 860.297C310.64 864.893 305.328 868.82 300.236 870.154L298 870.577L297.283 870.696C293.126 871.315 288.547 870.974 284.334 870.985C272.307 871.017 259.657 870.212 247.706 871.316C252.31 855.123 258.619 838.122 267.094 823.531Z"/>
	<path fill="#027DAA" transform="scale(0.488281 0.488281)" d="M348.774 908.727L378.521 908.584C384.278 908.581 390.87 907.959 396.5 909.035C399.454 909.599 402.107 910.865 404.625 912.485C409.579 915.672 413.376 921.45 414.482 927.213L414.627 928C415.513 932.578 415.046 937.275 412.925 941.464C410.338 946.574 404.672 951.824 399.169 953.51L398.615 953.674C395.667 954.628 392.763 954.548 389.694 954.592L359.722 954.567C353.554 954.531 346.932 955.019 340.875 953.791C337.451 953.097 333.786 951.355 331.204 949C326.207 944.442 323.292 938.58 323.142 931.75C323.011 925.783 325.221 919.802 329.297 915.45C335.009 909.353 341.027 908.985 348.774 908.727Z"/>
	<path fill="#027DAA" transform="scale(0.488281 0.488281)" d="M597.527 909.09C604.213 908.682 611.06 908.941 617.77 908.916L655.75 908.819L698.622 908.828L711.827 908.891C714.625 908.916 717.731 908.729 720.395 909.658L721 909.885C727.514 912.208 732.157 916.345 735.224 922.576C737.564 927.329 737.861 934.786 735.996 939.75C733.807 945.58 729.574 950.313 723.828 952.814C721.877 953.664 719.688 954.017 717.611 954.421C708.901 955.063 700.043 954.803 691.315 954.756L655.001 954.713L619.098 954.776C612.359 954.774 605.314 955.132 598.612 954.443C595.619 954.135 592.814 952.948 590.181 951.537C585.19 948.864 581.49 943.584 580.026 938.193C578.302 931.847 578.984 925.42 582.39 919.74C585.868 913.94 591.03 910.617 597.527 909.09Z"/>
	<path fill="#027DAA" transform="scale(0.488281 0.488281)" d="M417.443 838.68C426.265 838.133 435.358 838.541 444.211 838.537L493.172 838.497L525.321 838.473C530.631 838.465 536.397 837.981 541.636 838.586C544.762 838.948 548.276 840.56 550.859 842.301C555.86 845.673 559.722 851.108 560.809 857.086C562.083 864.09 560.291 871.109 556.051 876.766C552.001 882.168 546.245 884.529 539.782 885.406L453.08 885.124L427.775 885.086C423.792 885.077 418.746 885.584 414.883 884.668L414.25 884.505L412.578 884.079C406.743 882.387 401.234 877.88 398.497 872.444C395.642 866.774 395.356 859.934 397.576 854C399.816 848.014 404.463 842.883 410.33 840.311C412.642 839.298 414.969 838.991 417.443 838.68Z"/>
	<path fill="#E6E1D0" transform="scale(0.488281 0.488281)" d="M89.9952 736.519L202.533 736.21L204.75 736.452C205.67 738.745 205.193 742.401 205.21 744.868L205.317 766.471L205.179 871.765C201.812 872.405 197.769 871.988 194.294 872L169.759 872.016L81.0438 871.875L81.1201 823.002L81.1655 796.015L81.0919 777.056C81.7141 773.063 81.2546 768.339 81.2626 764.243L81.2468 736.549L89.9952 736.519Z"/>
	<path fill="#BDB397" transform="scale(0.488281 0.488281)" d="M94.409 753.005L133.371 752.954L133.521 794.497L94.4617 794.518L94.409 753.005Z"/>
	<path fill="#BDB397" transform="scale(0.488281 0.488281)" d="M150.698 753.001L190.464 752.999L190.609 794.437L150.568 794.52L150.698 753.001Z"/>
	<path fill="#BDB397" transform="scale(0.488281 0.488281)" d="M94.4847 814.95L133.574 814.871L133.63 857.247L94.4841 857.501L94.4847 814.95Z"/>
	<path fill="#BDB397" transform="scale(0.488281 0.488281)" d="M150.717 814.973L190.547 814.818L190.711 857.025L150.654 857.156L150.717 814.973Z"/>
	<path fill="#E6E1D0" transform="scale(0.488281 0.488281)" d="M934.575 736.631L942.329 736.682L942.475 796.97L942.512 823.223L942.508 872.435L814.794 872.796L814.503 738.354L821.43 736.752L934.575 736.631Z"/>
	<path fill="#BDB397" transform="scale(0.488281 0.488281)" d="M861.913 813.75L870.458 813.634L870.508 854.31L842.125 854.268L832.568 854.277L832.515 813.872L861.913 813.75Z"/>
	<path fill="#BDB397" transform="scale(0.488281 0.488281)" d="M889 813.938L928.021 813.877L928.036 854.157L889.009 854.352L889 813.938Z"/>
	<path fill="#BDB397" transform="scale(0.488281 0.488281)" d="M832.961 754.061L870.496 754.047L870.572 796.006L832.927 795.99L832.961 754.061Z"/>
	<path fill="#BDB397" transform="scale(0.488281 0.488281)" d="M894.187 753.727L928.084 753.482L928.091 785.205C928.09 787.611 928.731 793.888 927.5 795.542L923.625 795.663L888.977 795.716C888.979 790.327 888.197 755.959 889.5 753.993L894.187 753.727Z"/>
	<path fill="#003826" transform="scale(0.488281 0.488281)" d="M661.248 714.671C684.807 730.995 705.419 749.91 723.46 772.177C729.666 779.838 735.845 787.769 740.774 796.332L282.544 796.388C286.79 789.01 292.16 781.982 297.353 775.247C314.587 752.895 335.863 732.083 359.553 716.672C367.289 719.113 374.485 722.887 381.693 726.566L412.715 742.97L504.265 793.052C517.062 786.176 530.713 780.503 543.873 774.331L608.834 743.333C626.768 734.715 645.201 726.611 661.248 714.671Z"/>
	<path fill="#035E3F" transform="scale(0.488281 0.488281)" d="M359.553 716.672C389.719 695.013 427.451 679.353 463.869 672.433C517.284 662.284 572.117 668.827 621.547 691.79C635.372 698.212 648.65 706.106 661.248 714.671C645.201 726.611 626.768 734.715 608.834 743.333L543.873 774.331C530.713 780.503 517.062 786.176 504.265 793.052L412.715 742.97L381.693 726.566C374.485 722.887 367.289 719.113 359.553 716.672Z"/>
</svg>
