<?xml version="1.0" encoding="utf-8" ?>
<svg xmlns="http://www.w3.org/2000/svg" xmlns:xlink="http://www.w3.org/1999/xlink" width="500" height="500">
	<path fill="#FEFEFE" transform="scale(0.488281 0.488281)" d="M-0 -0L1024 0L1024 1024L-0 1024L0 -0Z"/>
	<path fill="#1A2648" transform="scale(0.488281 0.488281)" d="M506.813 74.7325C527.683 74.0631 549.061 75.7084 569.75 78.4611C658.685 90.2943 742.972 130.879 808.618 191.898C892.671 270.026 943.436 380.472 947.622 495.172C950.739 580.569 929.79 664.854 885.24 737.949C868.899 764.762 849.285 789.762 827.907 812.723C771.121 873.714 693.423 918.237 612.22 936.949C590.512 941.951 568.136 945.591 545.914 947.273L518.604 948.466C432.81 949.137 349.078 924.964 276.701 878.978C254.211 864.688 232.678 848.45 213.368 830.048C187.731 805.618 164.928 778.959 145.494 749.323C102.512 683.779 77.8154 605.959 76.0331 527.565C75.5837 507.794 76.0175 487.681 78.1052 468.017C84.7977 404.981 105.748 341.717 138.583 287.448C155.77 259.042 176.928 232.34 199.887 208.394C266.122 139.313 354.664 93.3191 449.346 79.1736C468.444 76.3205 487.527 75.136 506.813 74.7325Z"/>
	<path fill="#42738E" transform="scale(0.488281 0.488281)" d="M758.192 571.396C765.022 568.464 771.869 562.941 777.917 558.604C818.69 529.359 853.175 488.762 878.137 445.451C885.01 433.527 891.056 421.25 896.701 408.704L906.468 386.433C912.158 408.907 916.643 431.529 918.965 454.625C927.436 538.847 907.74 620.835 864.511 693.335C852.614 713.287 838.487 731.677 823.192 749.135C768.12 811.995 694.864 859.359 613.53 879.847C505.817 906.98 392.103 889.205 297.047 832.134C228.93 791.237 173.471 732.284 139.96 660C128.551 635.389 120.161 609.786 113.608 583.498C100.335 530.259 100.369 472.287 110.473 418.546C112.293 408.87 114.014 398.954 117.018 389.568L117.416 390.299C120.624 396.374 122.744 403.624 125.364 410.028C129.621 420.431 134.442 430.463 139.85 440.314C165.798 487.582 201.188 527.657 243.534 560.894L262.5 574.545C265.151 576.302 268.005 578.556 270.91 579.815C271.721 580.347 272.538 581.858 273.119 582.677L278.392 590.121C283.798 597.623 289.76 604.785 295.965 611.641C312.792 630.231 331.78 646.76 352.518 660.851C413.342 702.179 491.961 718.574 564.219 704.778C631.599 691.912 691.332 657.559 734.857 604.368C743.433 593.888 750.608 582.573 758.192 571.396Z"/>
	<path fill="#FEFEFE" transform="scale(0.488281 0.488281)" d="M118.984 474.25L119.112 474.318C119.646 481.755 121.332 489.522 122.667 496.874C128.771 530.482 138.76 562.728 153.706 593.491C199.809 688.385 288.852 760.937 388.026 794.975C442.348 813.619 500.965 820.077 558 812.995C580.146 810.246 601.701 805.514 623.128 799.316C644.368 793.173 665.789 785.594 685.658 775.844C738.438 749.944 787.056 712.462 824.061 666.646C843.254 642.884 859.338 616.566 872.223 588.899C878.036 576.416 883.455 563.927 887.75 550.824C892.877 535.183 896.792 518.864 899.535 502.639L902.266 484.672C902.668 481.856 902.71 478.678 903.623 476C904.013 476.509 903.783 477.625 903.764 478.278L902.613 495.879C901.722 508.013 899.592 519.903 897.139 531.805C887.325 579.408 866.021 623.926 838.462 663.732C826.671 680.763 813.761 697.203 799.445 712.197C780.315 732.232 759.619 750.982 736.936 766.926C723.03 776.701 708.095 785.148 692.958 792.858C672.824 803.113 652.001 812.008 630.411 818.751C592.844 830.485 553.776 836.04 514.497 836.819C500.182 837.103 485.458 835.988 471.232 834.467C449.438 832.136 427.373 828.308 406.279 822.321C368.873 811.706 333.172 794.379 300.388 773.651C279.015 760.138 258.266 744.701 240.057 727.095C223.621 711.204 208.053 694.417 194.326 676.117C162.241 633.34 138.128 583.045 126.394 530.804C122.247 512.338 119.334 493.211 118.984 474.25Z"/>
	<path fill="#1A2648" transform="scale(0.488281 0.488281)" d="M117.018 389.568C118.001 382.118 121.024 374.455 123.472 367.369C133.63 337.962 146.395 310.196 162.425 283.509C201.165 219.015 260.413 165.798 327.811 132.56C355.392 118.958 384.534 108.838 414.358 101.418C518.239 75.5729 633.205 93.1599 724.828 148.29C738.766 156.676 752.55 165.444 765.492 175.314C816.96 214.566 857.715 265.857 884.42 324.808C893.428 344.693 901.198 365.218 906.468 386.433L896.701 408.704C891.056 421.25 885.01 433.527 878.137 445.451C853.175 488.762 818.69 529.359 777.917 558.604C771.869 562.941 765.022 568.464 758.192 571.396C750.608 582.573 743.433 593.888 734.857 604.368C691.332 657.559 631.599 691.912 564.219 704.778C491.961 718.574 413.342 702.179 352.518 660.851C331.78 646.76 312.792 630.231 295.965 611.641C289.76 604.785 283.798 597.623 278.392 590.121L273.119 582.677C272.538 581.858 271.721 580.347 270.91 579.815C268.005 578.556 265.151 576.302 262.5 574.545L243.534 560.894C201.188 527.657 165.798 487.582 139.85 440.314C134.442 430.463 129.621 420.431 125.364 410.028C122.744 403.624 120.624 396.374 117.416 390.299L117.018 389.568Z"/>
	<path fill="#79275D" transform="scale(0.488281 0.488281)" d="M755.211 295.53C758.346 299.629 760.503 305.523 762.591 310.256C774.598 337.484 780.944 365.442 784.044 394.956C785.774 411.424 785.24 428.696 783.649 445.164C778.466 498.809 758.624 550.383 724.321 592.25C677.771 649.064 611.06 684.795 537.929 691.86C466.318 698.777 392.965 676.464 337.657 630.341C294.882 594.669 262.212 545.13 247.564 491.27C243.503 476.338 241.093 460.898 239.701 445.5C235.534 399.391 243.465 350.277 262.558 308.061C265.92 300.629 269.505 291.757 274.725 285.486L274.646 285.901C273.817 289.888 271.522 293.727 270.107 297.557C266.904 306.232 263.941 315.005 261.825 324.017C247.824 383.661 255.834 443.749 289.112 495.734C319.041 542.486 364.782 577.217 416.775 596.037C429.261 600.557 441.971 603.813 454.933 606.632C523.102 621.462 599.636 608.764 658.5 570.98C711.586 536.904 749.722 484.476 763.177 422.572C768.243 399.265 770.143 373.546 767.519 349.78C766.417 339.8 764.249 329.975 762.023 320.201L757.898 305.014C756.943 301.975 755.111 298.743 755.211 295.53Z"/>
	<path fill="#A44C91" transform="scale(0.488281 0.488281)" d="M628.42 175.272C637.891 179.233 646.815 184.486 655.579 189.807C697.855 215.473 732.005 251.85 755.211 295.53C755.111 298.743 756.943 301.975 757.898 305.014L762.023 320.201C764.249 329.975 766.417 339.8 767.519 349.78C770.143 373.546 768.243 399.265 763.177 422.572C749.722 484.476 711.586 536.904 658.5 570.98C599.636 608.764 523.102 621.462 454.933 606.632C441.971 603.813 429.261 600.557 416.775 596.037C364.782 577.217 319.041 542.486 289.112 495.734C255.834 443.749 247.824 383.661 261.825 324.017C263.941 315.005 266.904 306.232 270.107 297.557C271.522 293.727 273.817 289.888 274.646 285.901L274.725 285.486C294.477 248.046 326.096 214.867 361.996 192.521C370.461 187.252 379.275 182.1 388.431 178.145C387.64 179.845 387.142 180.427 385.5 181.362C380.709 184.09 376.215 187.76 371.77 191.028C350.225 206.862 331.154 225.746 317.947 249.225C312.971 258.073 309.747 267.162 305.718 276.385C302.648 286.58 300.113 296.404 298.843 307.011C294.734 341.345 302.198 377.519 318.534 407.897C344.483 456.153 393.632 489.282 445.278 504.613C504.408 522.165 568.841 515.945 623.115 486.348C668.708 461.485 705.66 421.913 720.487 371.374C725.755 353.418 728.334 333.773 726.422 315.076C725.444 305.509 723.308 296.386 721.261 287.032C719.935 284.137 719.089 280.988 717.928 278.014C716.099 273.326 713.977 268.764 711.741 264.258C698.062 236.694 677.358 212.369 652.828 193.844L630.623 178.754C628.975 177.608 628.904 177.173 628.42 175.272Z"/>
	<path fill="#79275D" transform="scale(0.488281 0.488281)" d="M721.261 287.032C722.994 289.761 723.934 293.351 724.975 296.411C727.535 303.936 729.624 311.592 731.441 319.327C742.998 368.51 734.17 419.243 707.491 462C676.775 511.229 625.963 546.998 569.305 559.876C507.527 573.917 440.58 565.142 386.566 531.109C339.366 501.37 305.007 456.822 292.718 402.014C284.852 366.928 286.852 329.064 298.224 294.985C300.24 288.945 302.305 281.781 305.718 276.385C302.648 286.58 300.113 296.404 298.843 307.011C294.734 341.345 302.198 377.519 318.534 407.897C344.483 456.153 393.632 489.282 445.278 504.613C504.408 522.165 568.841 515.945 623.115 486.348C668.708 461.485 705.66 421.913 720.487 371.374C725.755 353.418 728.334 333.773 726.422 315.076C725.444 305.509 723.308 296.386 721.261 287.032Z"/>
	<path fill="#80B8C4" transform="scale(0.488281 0.488281)" d="M117.018 389.568C118.001 382.118 121.024 374.455 123.472 367.369C133.63 337.962 146.395 310.196 162.425 283.509C201.165 219.015 260.413 165.798 327.811 132.56C355.392 118.958 384.534 108.838 414.358 101.418C518.239 75.5729 633.205 93.1599 724.828 148.29C738.766 156.676 752.55 165.444 765.492 175.314C816.96 214.566 857.715 265.857 884.42 324.808C893.428 344.693 901.198 365.218 906.468 386.433L896.701 408.704C891.056 421.25 885.01 433.527 878.137 445.451C853.175 488.762 818.69 529.359 777.917 558.604C771.869 562.941 765.022 568.464 758.192 571.396C796.886 507.455 810.652 426.766 792.801 353.909C774.388 278.755 726.952 215.633 660.904 175.639C596.365 136.559 514.044 125.623 441.06 143.689C368.094 161.752 304.058 206.509 265.245 271.188C225.684 337.11 213.446 417.926 232.067 492.528C239.808 523.542 253.934 552.849 270.91 579.815C268.005 578.556 265.151 576.302 262.5 574.545L243.534 560.894C201.188 527.657 165.798 487.582 139.85 440.314C134.442 430.463 129.621 420.431 125.364 410.028C122.744 403.624 120.624 396.374 117.416 390.299L117.018 389.568Z"/>
	<path fill="#E24070" transform="scale(0.488281 0.488281)" d="M388.431 178.145C389.288 177.37 391.362 176.702 392.501 176.154L408.495 169.176C465.524 146.708 528.223 143.047 587.25 159.977C601.35 164.021 614.982 169.434 628.42 175.272C628.904 177.173 628.975 177.608 630.623 178.754L652.828 193.844C677.358 212.369 698.062 236.694 711.741 264.258C713.977 268.764 716.099 273.326 717.928 278.014C719.089 280.988 719.935 284.137 721.261 287.032C723.308 296.386 725.444 305.509 726.422 315.076C728.334 333.773 725.755 353.418 720.487 371.374C705.66 421.913 668.708 461.485 623.115 486.348C568.841 515.945 504.408 522.165 445.278 504.613C393.632 489.282 344.483 456.153 318.534 407.897C302.198 377.519 294.734 341.345 298.843 307.011C300.113 296.404 302.648 286.58 305.718 276.385C309.747 267.162 312.971 258.073 317.947 249.225C331.154 225.746 350.225 206.862 371.77 191.028C376.215 187.76 380.709 184.09 385.5 181.362C387.142 180.427 387.64 179.845 388.431 178.145Z"/>
	<path fill="#FDB8C0" transform="scale(0.488281 0.488281)" d="M441.329 189.212C451.574 188.677 462.906 190.297 471.114 196.999C479.123 203.54 482.479 212.237 483.312 222.292C484.773 239.923 473.372 260.912 462.33 273.948C441.911 298.058 412.484 317.439 380.44 320.021C369.253 320.123 357.175 318.675 348.332 311.121C340.98 304.84 337.462 296.417 336.696 286.872C335.193 268.146 346.743 247.713 358.56 234.006C378.811 210.516 410.037 191.639 441.329 189.212Z"/>
</svg>
