<?xml version="1.0" encoding="utf-8" ?>
<svg xmlns="http://www.w3.org/2000/svg" xmlns:xlink="http://www.w3.org/1999/xlink" width="500" height="500">
	<path fill="#FBF8F3" transform="scale(0.488281 0.488281)" d="M-0 -0L1024 0L1024 1024L-0 1024L0 -0Z"/>
	<path fill="#FCE5B6" transform="scale(0.488281 0.488281)" d="M323.733 285.75C325.688 286.63 332.065 296.107 334.08 298.289C338.34 302.901 342.961 306.137 348.258 309.422C338.313 315.004 330.637 323.155 324.784 332.87C320.518 326.913 316.562 321.015 310.809 316.338C308.702 314.625 306.574 312.91 304.25 311.494C303.017 310.743 301.642 310.212 300.536 309.274C310.846 303.507 317.645 295.73 323.733 285.75Z"/>
	<path fill="#FCE5B6" transform="scale(0.488281 0.488281)" d="M672.041 243.474C673.255 245.812 674.152 248.239 675.554 250.5C679.128 256.265 684.518 262.397 689.729 266.695L690.414 267.25C693.575 269.843 696.876 271.784 700.558 273.536C692.015 280.145 683.103 285.792 677.13 295.097C675.202 298.101 673.944 301.295 672.29 304.434C670.9 301.053 669.568 297.665 667.538 294.601C661.993 286.229 652.13 278.383 643.218 273.89C644.877 272.873 646.741 272.196 648.468 271.293C659.034 265.771 668.476 254.825 672.041 243.474Z"/>
	<path fill="#E75337" transform="scale(0.488281 0.488281)" d="M474.548 344.247L468.5 340.501C447.688 327.266 433.646 307.402 428.418 283.208C424.107 263.263 425.661 241.913 430.092 222.125C434.011 204.618 440.572 187.538 447.423 171C460.541 139.332 476.246 108.97 493.223 79.2207L512.458 46.5015L535.815 86.122C560.015 129.454 583.999 175.225 595.016 223.939C597.838 236.414 600.031 248.641 599.913 261.5C599.829 270.678 598.345 279.826 595.812 288.639C588.688 313.434 572.324 331.545 549.969 343.832C541.265 347.835 532.128 351.178 522.516 352.106L522.518 329.367L522.556 327.081L522.587 309.803C522.587 307.739 523.002 304.387 522.356 302.486C522.03 301.526 520.434 299.567 519.706 298.865C517.102 296.36 513.692 295.158 510.113 295.416C507.584 295.598 504.746 297.353 503.162 299.287C501.864 300.871 501.094 302.492 500.639 304.472C500.077 306.923 500.477 310.329 500.481 312.875L500.562 327.846L500.422 330.064L500.47 352.919C498.999 351.175 490.461 350.209 487.724 349.38C483.169 348 478.841 346.299 474.548 344.247Z"/>
	<path fill="#FAA549" transform="scale(0.488281 0.488281)" d="M500.422 330.064C487.359 324.148 476.997 316.214 469.235 303.946C457.456 285.328 457.008 261.216 461.834 240.394C469.054 209.241 485.66 181.47 501.937 154.338L508.202 143.806C509.071 142.424 510.279 140.373 511.636 139.522C531.51 171.632 553.883 205.522 562.525 242.743C567.385 263.67 564.648 286.705 553.147 305.055C546.371 315.864 535.162 326.423 522.518 329.367L522.556 327.081L522.587 309.803C522.587 307.739 523.002 304.387 522.356 302.486C522.03 301.526 520.434 299.567 519.706 298.865C517.102 296.36 513.692 295.158 510.113 295.416C507.584 295.598 504.746 297.353 503.162 299.287C501.864 300.871 501.094 302.492 500.639 304.472C500.077 306.923 500.477 310.329 500.481 312.875L500.562 327.846L500.422 330.064Z"/>
	<path fill="#FBC572" transform="scale(0.488281 0.488281)" d="M500.562 327.846L499.243 327.13C489.058 321.255 482.609 311.214 479.596 299.995C472.421 273.283 488.887 250.21 502.155 228.797L511.832 211.568L512.106 211.891C513.476 213.715 514.416 216.266 515.435 218.323L521.15 228.859C532.285 248.291 547.935 268.992 544.652 292.823C543.023 304.65 538.178 316.062 528.932 323.911L526.908 325.584C525.564 326.573 524.207 327.307 522.556 327.081L522.587 309.803C522.587 307.739 523.002 304.387 522.356 302.486C522.03 301.526 520.434 299.567 519.706 298.865C517.102 296.36 513.692 295.158 510.113 295.416C507.584 295.598 504.746 297.353 503.162 299.287C501.864 300.871 501.094 302.492 500.639 304.472C500.077 306.923 500.477 310.329 500.481 312.875L500.562 327.846Z"/>
	<defs>
		<linearGradient id="gradient_0" gradientUnits="userSpaceOnUse" x1="510.40305" y1="978.30042" x2="514.09399" y2="721.48627">
			<stop offset="0" stop-color="#0D775E"/>
			<stop offset="1" stop-color="#1C8E73"/>
		</linearGradient>
	</defs>
	<path fill="url(#gradient_0)" transform="scale(0.488281 0.488281)" d="M686.351 722.695C702.561 725.968 718.681 730.62 734.5 735.408C753.706 741.222 772.475 747.735 790.838 755.857C800.509 760.135 810.411 764.728 819.348 770.402C833.381 779.312 850.616 792.269 854.316 809.447C856.483 819.507 853.986 829.345 848.458 837.902C846.601 840.776 844.261 843.174 842.25 845.92L835.896 855.539C831.467 861.783 826.494 867.718 821.273 873.315C809.198 886.256 795.082 897.63 780.561 907.694C736.381 938.314 686.165 956.219 633.994 967.719C618.966 971.032 603.746 973.028 588.5 974.987C557.542 978.964 526.734 980.005 495.547 979.207C445.835 977.933 397.281 971.182 349.5 957.112C316.138 947.288 282.825 933.355 253.5 914.494C231.392 900.274 210.185 883.301 194.003 862.425C189.612 856.759 185.974 850.744 182.037 844.789C180.611 842.631 178.728 840.886 177.169 838.839C174.205 834.946 172.107 829.765 171.115 824.992C168.97 814.672 172.006 804.384 177.783 795.804C200.349 762.286 263.865 741.882 301.54 731.666L338.439 722.639C338.466 724.445 338.336 725.938 338.081 727.705L338.112 727.869L338.011 772.692L337.988 799.029C337.991 803.078 337.334 809.057 338.612 812.86C340.049 817.138 343.077 820.821 346.239 823.963C359.973 837.612 380.584 844.87 398.829 850.053C407.842 852.613 417.108 854.999 426.406 856.242L498.966 863.094L500.568 863.272C508.747 863.889 517.258 863.374 525.466 863.168C542.887 862.728 559.97 861.176 577.25 859.011C602.185 855.887 627.563 851.071 650.653 840.896C659.503 836.997 668.702 832.317 675.95 825.816C679.746 822.41 683.512 818.134 685.16 813.218C686.647 808.784 686.032 803.249 686.035 798.624L686.256 771.559L686.356 748.766C685.744 746.291 686.027 743.333 686.012 740.786L686.351 722.695Z"/>
	<path fill="#B3DFB6" transform="scale(0.488281 0.488281)" d="M338.112 727.869L338.011 772.692C325.542 775.48 313.479 779.926 301.792 785.052C287.663 791.249 271.983 798.92 263.366 812.358C262.098 814.337 261.132 816.268 260.381 818.5L260.131 819.204C258.283 824.773 259.693 831.317 262.417 836.323C274.651 858.799 313.801 871.735 337.238 878.265C394.025 894.086 452.221 899.487 510.992 899.995L511.002 921.145C456.077 921.059 401.03 916.736 346.935 907.223C298.334 898.676 246.667 886.48 204.962 858.945C192.875 850.964 178.745 838.485 175.868 823.554C174.184 814.814 176.902 805.379 181.839 798.117C195.486 778.042 221.86 765.373 243.57 756.251C273.73 743.579 305.966 733.942 338.112 727.869Z"/>
	<path fill="#9FB874" transform="scale(0.488281 0.488281)" d="M686.356 748.766L686.329 727.9L743.5 743.379C770.322 751.642 797.745 761.029 821.165 776.827C830.642 783.219 839.344 790.447 845.46 800.25C849.322 806.441 852.36 814.599 850.625 821.949C846.306 840.25 827.599 854.225 812.363 863.385C790.141 876.745 764.745 886.037 739.939 893.33C665.924 915.093 587.828 920.851 511.002 921.145L510.992 899.995C545.296 900.307 579.746 898.011 613.721 893.272C639.215 889.715 664.505 884.922 689.114 877.27C702.827 873.007 716.557 868.146 729.196 861.254C740.823 854.913 756.037 845.014 759.801 831.391C761.943 823.637 760.574 817.044 756.498 810.211C754.225 806.4 751.218 803.277 748.044 800.205C740.91 793.298 732.277 788.634 723.318 784.529C711.338 779.04 699.007 774.857 686.256 771.559L686.356 748.766Z"/>
	<defs>
		<linearGradient id="gradient_1" gradientUnits="userSpaceOnUse" x1="707.20386" y1="928.71899" x2="313.42413" y2="719.22101">
			<stop offset="0" stop-color="#8F2A27"/>
			<stop offset="1" stop-color="#BD493C"/>
		</linearGradient>
	</defs>
	<path fill="url(#gradient_1)" transform="scale(0.488281 0.488281)" d="M686.256 771.559C699.007 774.857 711.338 779.04 723.318 784.529C732.277 788.634 740.91 793.298 748.044 800.205C751.218 803.277 754.225 806.4 756.498 810.211C760.574 817.044 761.943 823.637 759.801 831.391C756.037 845.014 740.823 854.913 729.196 861.254C716.557 868.146 702.827 873.007 689.114 877.27C664.505 884.922 639.215 889.715 613.721 893.272C579.746 898.011 545.296 900.307 510.992 899.995C452.221 899.487 394.025 894.086 337.238 878.265C313.801 871.735 274.651 858.799 262.417 836.323C259.693 831.317 258.283 824.773 260.131 819.204L260.381 818.5C261.132 816.268 262.098 814.337 263.366 812.358C271.983 798.92 287.663 791.249 301.792 785.052C313.479 779.926 325.542 775.48 338.011 772.692L337.988 799.029C337.991 803.078 337.334 809.057 338.612 812.86C340.049 817.138 343.077 820.821 346.239 823.963C359.973 837.612 380.584 844.87 398.829 850.053C407.842 852.613 417.108 854.999 426.406 856.242L498.966 863.094L500.568 863.272C508.747 863.889 517.258 863.374 525.466 863.168C542.887 862.728 559.97 861.176 577.25 859.011C602.185 855.887 627.563 851.071 650.653 840.896C659.503 836.997 668.702 832.317 675.95 825.816C679.746 822.41 683.512 818.134 685.16 813.218C686.647 808.784 686.032 803.249 686.035 798.624L686.256 771.559Z"/>
	<path fill="#19A382" transform="scale(0.488281 0.488281)" d="M500.562 327.846L500.481 312.875C500.477 310.329 500.077 306.923 500.639 304.472C501.094 302.492 501.864 300.871 503.162 299.287C504.746 297.353 507.584 295.598 510.113 295.416C513.692 295.158 517.102 296.36 519.706 298.865C520.434 299.567 522.03 301.526 522.356 302.486C523.002 304.387 522.587 307.739 522.587 309.803L522.556 327.081L522.518 329.367L522.516 352.106C532.128 351.178 541.265 347.835 549.969 343.832L580.18 347.377C606.85 351.596 635.584 358.245 659.149 371.75C666.644 376.045 674.242 381.307 679.562 388.211C682.172 391.6 685.466 397.027 686.004 401.25C686.512 405.238 685.939 409.945 685.837 414.008L685.99 494.166L685.928 666.901L686.048 707.75L686.058 717.748C686.057 719.317 685.836 721.219 686.351 722.695L686.012 740.786C686.027 743.333 685.744 746.291 686.356 748.766L686.256 771.559L686.035 798.624C686.032 803.249 686.647 808.784 685.16 813.218C683.512 818.134 679.746 822.41 675.95 825.816C668.702 832.317 659.503 836.997 650.653 840.896C627.563 851.071 602.185 855.887 577.25 859.011C559.97 861.176 542.887 862.728 525.466 863.168C517.258 863.374 508.747 863.889 500.568 863.272L498.966 863.094L426.406 856.242C417.108 854.999 407.842 852.613 398.829 850.053C380.584 844.87 359.973 837.612 346.239 823.963C343.077 820.821 340.049 817.138 338.612 812.86C337.334 809.057 337.991 803.078 337.988 799.029L338.011 772.692L338.112 727.869L338.081 727.705C338.336 725.938 338.466 724.445 338.439 722.639L338.095 410.372C337.963 406.999 337.421 402.049 338.3 398.828L338.47 398.25C339.7 393.808 341.775 389.912 344.695 386.347C352.169 377.223 363.689 371.385 374.313 366.799C397.182 356.929 421.945 350.819 446.553 347.192L474.548 344.247C478.841 346.299 483.169 348 487.724 349.38C490.461 350.209 498.999 351.175 500.47 352.919L500.422 330.064L500.562 327.846Z"/>
	<path fill="#127A6A" transform="scale(0.488281 0.488281)" d="M426.406 856.242C436.212 854.47 445.541 852.002 455.515 850.914L509.461 847.443L509.724 863.147C506.253 863.07 502.391 862.656 498.966 863.094L426.406 856.242Z"/>
	<path fill="#B3DFB6" transform="scale(0.488281 0.488281)" d="M355.92 452.358C358.587 454.37 361.377 456.259 364.25 457.964C365.127 458.485 367.968 459.621 368.516 460.292C368.557 460.342 368.514 462.314 368.514 462.445L368.484 500.397L368.368 593.964L368.372 624.37C368.387 629.926 368.096 635.725 368.591 641.25C368.788 643.456 369.454 645.577 370.193 647.656C372.175 653.229 375.837 658.363 380.444 662.061C383.56 664.562 387.313 666.102 390.5 668.461C395.836 672.41 399.416 679.24 400.263 685.762C401.049 691.822 400.506 698.619 400.509 704.761L400.492 757.003C400.475 766.158 399.808 775.872 400.72 784.94C401.235 790.058 402.414 795.194 404.24 800C406.481 805.897 409.509 811.913 413.607 816.75C423.199 828.071 438.03 834.423 451.303 840.405L427.431 837.94C403.754 835.501 378.506 832.099 361.344 813.651C358.577 810.677 356.36 806.987 355.965 802.883C355.464 797.691 355.711 792.288 355.693 787.073L355.642 758.791L355.566 669.303L355.582 527.299L355.92 452.358Z"/>
	<path fill="#FBC572" transform="scale(0.488281 0.488281)" d="M474.548 344.247C478.841 346.299 483.169 348 487.724 349.38C490.461 350.209 498.999 351.175 500.47 352.919L500.42 366.267C463.155 368.346 423.318 370.802 388.322 384.799C381.638 387.472 373.95 390.83 369.038 396.227C366.77 398.719 365.016 401.783 365.163 405.25C365.342 409.51 368.49 413.077 371.61 415.625C377.136 420.136 383.756 423.47 390.379 426.05C425.754 438.665 463.832 443.056 501.231 444.099L501.756 444.182C504.479 444.582 507.179 444.542 509.925 444.529L509.971 466.043L509.537 466.508L509.441 522.988C497.114 521.334 483.585 524.284 473.55 531.892C463.683 539.372 458.236 550.603 456.652 562.71C454.373 580.137 460.515 597.326 457.467 614.488C455.337 626.486 447.973 638.993 437.889 645.95C431.532 650.336 424.506 652.553 416.96 653.842L412.337 654.114C403.285 654.071 396.52 651.035 390.25 644.511C386.292 640.392 383.214 634.534 382.401 628.868C381.445 622.203 382.002 614.87 382.005 608.145L382.019 570.55L382.249 444.548C368.962 440.379 353.104 431.28 344.264 420.25C341.807 417.185 340.177 413.675 338.095 410.372C337.963 406.999 337.421 402.049 338.3 398.828L338.47 398.25C339.7 393.808 341.775 389.912 344.695 386.347C352.169 377.223 363.689 371.385 374.313 366.799C397.182 356.929 421.945 350.819 446.553 347.192L474.548 344.247Z"/>
	<path fill="#FCE5B6" transform="scale(0.488281 0.488281)" d="M411.901 603.152C414.731 603.396 416.681 603.733 419.167 605.227C423.102 607.592 426.176 611.372 427.152 615.9C427.809 618.946 426.907 622.409 425.246 625.012C422.335 629.571 418.763 631.792 413.572 632.892C412.237 632.882 410.885 632.869 409.568 632.623C406.045 631.963 402.71 629.755 400.754 626.733L400.453 626.25L399.775 625.151C398.129 622.235 397.29 618.085 398.273 614.792L398.449 614.25C398.982 612.546 399.493 610.999 400.564 609.545C403.606 605.414 406.949 603.883 411.901 603.152Z"/>
	<path fill="#FAA549" transform="scale(0.488281 0.488281)" d="M416.96 653.842C418.354 645.077 423.098 637.359 426.654 629.363C430.204 621.38 432.68 612.7 434.011 604.072C434.912 598.232 434.523 591.985 434.488 586.081L434.182 555.881L434.099 459.222C458.927 464.602 484.249 465.559 509.537 466.508L509.441 522.988C497.114 521.334 483.585 524.284 473.55 531.892C463.683 539.372 458.236 550.603 456.652 562.71C454.373 580.137 460.515 597.326 457.467 614.488C455.337 626.486 447.973 638.993 437.889 645.95C431.532 650.336 424.506 652.553 416.96 653.842Z"/>
	<path fill="#E75337" transform="scale(0.488281 0.488281)" d="M500.562 327.846L500.481 312.875C500.477 310.329 500.077 306.923 500.639 304.472C501.094 302.492 501.864 300.871 503.162 299.287C504.746 297.353 507.584 295.598 510.113 295.416C513.692 295.158 517.102 296.36 519.706 298.865C520.434 299.567 522.03 301.526 522.356 302.486C523.002 304.387 522.587 307.739 522.587 309.803L522.556 327.081L522.518 329.367L522.516 352.106C532.128 351.178 541.265 347.835 549.969 343.832L580.18 347.377C606.85 351.596 635.584 358.245 659.149 371.75C666.644 376.045 674.242 381.307 679.562 388.211C682.172 391.6 685.466 397.027 686.004 401.25C686.512 405.238 685.939 409.945 685.837 414.008C683.269 418.155 681.319 422.204 678.029 425.897C668.397 436.708 654.034 443.872 640.647 448.807C636.01 450.517 631.212 452.367 626.373 453.406L625.941 453.461L611.16 456.806C585.323 462.245 558.834 465.054 532.448 465.865C525.146 466.089 517.249 466.555 509.971 466.043L509.925 444.529C507.179 444.542 504.479 444.582 501.756 444.182L501.231 444.099C463.832 443.056 425.754 438.665 390.379 426.05C383.756 423.47 377.136 420.136 371.61 415.625C368.49 413.077 365.342 409.51 365.163 405.25C365.016 401.783 366.77 398.719 369.038 396.227C373.95 390.83 381.638 387.472 388.322 384.799C423.318 370.802 463.155 368.346 500.42 366.267L500.47 352.919L500.422 330.064L500.562 327.846Z"/>
	<path fill="#FCE5B6" transform="scale(0.488281 0.488281)" d="M593.913 373.347C598.931 367.952 600.206 364.18 602.254 357.272C603.29 360.217 604.374 363.091 605.766 365.894C607.104 368.587 611.035 373.354 611.12 376.324L611.627 376.52C612.818 377.634 613.776 378.606 614.632 380C612.872 382.055 609.383 382.374 607.199 384.107C604.741 386.057 603.971 388.974 602.003 391.227L599.873 387.033C596.751 381.685 592.075 380.716 586.526 379.143C589.133 377.579 591.365 376.131 593.436 373.88L593.913 373.347Z"/>
	<path fill="#962524" transform="scale(0.488281 0.488281)" d="M500.562 327.846L500.481 312.875C500.477 310.329 500.077 306.923 500.639 304.472C501.094 302.492 501.864 300.871 503.162 299.287C504.746 297.353 507.584 295.598 510.113 295.416C513.692 295.158 517.102 296.36 519.706 298.865C520.434 299.567 522.03 301.526 522.356 302.486C523.002 304.387 522.587 307.739 522.587 309.803L522.556 327.081L522.518 329.367L522.516 352.106L522.484 366.219L522.465 398.739C522.508 405.292 524.164 416.233 519.325 421.25C517.085 423.573 514.626 424.531 511.443 424.551C508.373 424.569 505.637 423.518 503.508 421.25C499.344 416.816 500.429 410.581 500.422 404.975L500.392 391.24C500.762 389.114 500.409 386.234 500.41 384.04L500.42 366.267L500.47 352.919L500.422 330.064L500.562 327.846Z"/>
	<path fill="#FAA549" transform="scale(0.488281 0.488281)" d="M522.516 352.106C532.128 351.178 541.265 347.835 549.969 343.832L580.18 347.377C606.85 351.596 635.584 358.245 659.149 371.75C666.644 376.045 674.242 381.307 679.562 388.211C682.172 391.6 685.466 397.027 686.004 401.25C686.512 405.238 685.939 409.945 685.837 414.008C683.269 418.155 681.319 422.204 678.029 425.897C668.397 436.708 654.034 443.872 640.647 448.807C636.01 450.517 631.212 452.367 626.373 453.406L625.941 453.461L611.16 456.806C585.323 462.245 558.834 465.054 532.448 465.865C525.146 466.089 517.249 466.555 509.971 466.043L509.925 444.529C507.179 444.542 504.479 444.582 501.756 444.182L501.231 444.099C541.755 444.131 583.343 443.295 621.765 428.948C628.628 426.688 635.704 423.693 641.857 419.884C647.33 416.496 652.861 411.741 654.209 405.144C654.777 402.365 654.023 399.635 652.399 397.346C645.213 387.22 629.446 382.299 618.144 378.709C615.921 378.002 613.936 376.842 611.627 376.52L611.12 376.324C611.035 373.354 607.104 368.587 605.766 365.894C604.374 363.091 603.29 360.217 602.254 357.272C600.206 364.18 598.931 367.952 593.913 373.347C587.874 371.135 579.835 370.77 573.413 370.054L522.484 366.219L522.516 352.106Z"/>
	<path fill="#127A6A" transform="scale(0.488281 0.488281)" d="M685.837 414.008L685.99 494.166L685.928 666.901L686.048 707.75L686.058 717.748C686.057 719.317 685.836 721.219 686.351 722.695L686.012 740.786C686.027 743.333 685.744 746.291 686.356 748.766L686.256 771.559L686.035 798.624C686.032 803.249 686.647 808.784 685.16 813.218C683.512 818.134 679.746 822.41 675.95 825.816C668.702 832.317 659.503 836.997 650.653 840.896C627.563 851.071 602.185 855.887 577.25 859.011C559.97 861.176 542.887 862.728 525.466 863.168C517.258 863.374 508.747 863.889 500.568 863.272L498.966 863.094C502.391 862.656 506.253 863.07 509.724 863.147L509.461 847.443L509.441 522.988L509.537 466.508L509.971 466.043C517.249 466.555 525.146 466.089 532.448 465.865C558.834 465.054 585.323 462.245 611.16 456.806L625.941 453.461L626.373 453.406C631.212 452.367 636.01 450.517 640.647 448.807C654.034 443.872 668.397 436.708 678.029 425.897C681.319 422.204 683.269 418.155 685.837 414.008Z"/>
	<path fill="#DE7F3C" transform="scale(0.488281 0.488281)" d="M611.16 456.806L625.941 453.461L625.855 496.008L625.21 505.982C625.062 507.324 624.422 509.548 624.574 510.826C621.517 524.381 616.082 537.294 603.82 544.97C591.641 552.594 580.123 552.422 566.475 549.469C546.365 542.565 531.396 525.247 509.441 522.988L509.537 466.508L509.971 466.043C517.249 466.555 525.146 466.089 532.448 465.865C558.834 465.054 585.323 462.245 611.16 456.806Z"/>
	<path fill="#E75337" transform="scale(0.488281 0.488281)" d="M611.16 456.806L625.941 453.461L625.855 496.008L625.21 505.982C625.062 507.324 624.422 509.548 624.574 510.826C621.517 524.381 616.082 537.294 603.82 544.97C591.641 552.594 580.123 552.422 566.475 549.469C569.081 543.493 573.679 537.67 577.147 532.131C591.942 508.499 608.266 485.234 611.16 456.806Z"/>
	<path fill="#0B6054" transform="scale(0.488281 0.488281)" d="M685.837 414.008L685.99 494.166L685.928 666.901L686.048 707.75L686.058 717.748C686.057 719.317 685.836 721.219 686.351 722.695L686.012 740.786C686.027 743.333 685.744 746.291 686.356 748.766L686.256 771.559L686.035 798.624C686.032 803.249 686.647 808.784 685.16 813.218C683.512 818.134 679.746 822.41 675.95 825.816C668.702 832.317 659.503 836.997 650.653 840.896C627.563 851.071 602.185 855.887 577.25 859.011C559.97 861.176 542.887 862.728 525.466 863.168C517.258 863.374 508.747 863.889 500.568 863.272L498.966 863.094C502.391 862.656 506.253 863.07 509.724 863.147L509.461 847.443L526.359 844.281C542.156 840.745 557.997 834.708 571.847 826.288C597.988 810.397 616.216 785.114 623.271 755.335C624.792 748.913 625.697 742.093 625.944 735.501L626.164 681.433L626.071 573.272L625.954 526.985L625.768 516.343C625.733 515.396 625.909 513.291 625.611 512.5C625.38 511.886 624.92 511.384 624.574 510.826C624.422 509.548 625.062 507.324 625.21 505.982L625.855 496.008L625.941 453.461L626.373 453.406C631.212 452.367 636.01 450.517 640.647 448.807C654.034 443.872 668.397 436.708 678.029 425.897C681.319 422.204 683.269 418.155 685.837 414.008Z"/>
</svg>
