<?xml version="1.0" encoding="utf-8" ?>
<svg xmlns="http://www.w3.org/2000/svg" xmlns:xlink="http://www.w3.org/1999/xlink" width="500" height="500">
	<path fill="#FEFEFE" transform="scale(0.488281 0.488281)" d="M-0 -0L1024 0L1024 1024L-0 1024L0 -0Z"/>
	<path fill="#B2B0AF" transform="scale(0.488281 0.488281)" d="M177.879 733.283C211.065 769.365 248.145 802.296 287.23 831.848C332.759 866.272 381.81 897.935 437.221 913.563C454.482 918.431 472.329 921.971 490.268 922.73C510.717 923.594 530.996 922.348 551.046 918.022C563.404 915.356 575.531 911.422 587.45 907.246C604.175 901.387 620.018 893.853 635.878 886L698.081 853.841L838.748 784.929L915.015 753.889L935.931 746.949C946.791 743.727 957.51 741.577 967.448 735.882L975.854 747.128C981.047 754.744 985.04 764.516 985.87 773.75C987.473 791.57 978.406 808.006 967.326 821.25C955.784 835.045 940.521 845.818 925.313 855.146C895.607 873.365 862.208 886.03 828.909 895.941C797.145 905.395 764.97 912.84 732.245 918.17L641.074 928.748L558.076 931.969C469.47 932.132 382.46 921.304 298.408 892.343C260.379 879.239 221.333 862.121 190.347 836.002C175.099 823.148 159.137 804.022 157.626 783.25C156.192 763.542 165.554 747.8 177.879 733.283Z"/>
	<path fill="#020102" transform="scale(0.488281 0.488281)" d="M177.879 733.283L139.456 688.729L130.254 676.961C128.545 674.758 127.123 672.06 124.5 670.911C105.715 662.685 87.5831 652.637 70.2634 641.677L45.2271 625.129C41.3019 607.458 40.2906 588.222 38.9321 570.189C36.5506 538.577 36.3993 506.419 39.75 474.869C46.1525 414.583 65.2818 354.802 97.9161 303.504C107.949 287.733 118.803 272.484 131.034 258.326C168.877 214.52 218.149 178.609 271.228 155.604C295.107 145.255 320.381 137.53 345.759 131.832L357.797 129.505C361.268 116.269 367.302 106.271 379.358 99.1476C385.05 95.7839 391.217 93.8221 397.75 92.9155L398.62 92.7899C410.369 91.2196 422.713 94.6664 432.004 101.993C436.431 105.484 440.068 109.877 442.93 114.715C443.644 115.921 446.367 122.55 447.118 122.9C447.377 123.021 449.146 122.866 449.534 122.861L458.29 122.839L485.226 124.143C505.925 126.026 526.233 129.621 546.38 134.744C622.552 154.109 691.005 197.593 735.511 263.058C772.719 317.788 792.112 384.015 799.257 449.347L802.359 511.838L827.497 530.07L856.305 551.861C892.332 579.675 983.326 653.496 987.924 701C988.751 709.539 986.28 717.875 980.71 724.435C976.769 729.075 972.529 732.551 967.448 735.882C957.51 741.577 946.791 743.727 935.931 746.949L915.015 753.889L838.748 784.929L698.081 853.841L635.878 886C620.018 893.853 604.175 901.387 587.45 907.246C575.531 911.422 563.404 915.356 551.046 918.022C530.996 922.348 510.717 923.594 490.268 922.73C472.329 921.971 454.482 918.431 437.221 913.563C381.81 897.935 332.759 866.272 287.23 831.848C248.145 802.296 211.065 769.365 177.879 733.283Z"/>
	<path fill="#343547" transform="scale(0.488281 0.488281)" d="M786.576 512.714C786.671 515.434 787.111 518.89 786.569 521.523C785.977 524.4 784.337 527.296 782.973 529.876C779.192 537.031 774.398 543.873 769.235 550.094C767.722 547.615 767.915 544.629 768.01 541.845C768.425 541.036 768.576 540.576 768.669 539.652L768.745 538.75C769.149 536.37 769.443 533.831 768.6 531.488L769.697 529.681C775.774 525.049 781.242 518.25 786.576 512.714Z"/>
	<path fill="#E83506" transform="scale(0.488281 0.488281)" d="M411.373 156.372C403.819 157.94 395.391 157.798 388.5 153.979C383.598 151.262 378.916 146.273 377.505 140.757C376.117 135.335 377.003 128.419 380.093 123.741C384.541 117.006 391.901 113.7 399.547 112.128C398.241 113.871 396.858 114.865 395.062 116.077L395.019 116.065C391.039 118.214 389.341 121.21 388.09 125.5C387.042 129.095 387.248 134.045 388.343 137.608L388.564 138.344C390.435 144.356 393.996 149.45 399.75 152.263C402.993 153.849 406.847 153.394 409.811 154.737C410.214 154.92 411.022 156.005 411.373 156.372Z"/>
	<path fill="#343547" transform="scale(0.488281 0.488281)" d="M630.21 486.802C640.558 528.839 647.817 571.409 652.415 614.441C652.871 618.709 654.761 625.788 653.734 629.826L652.475 630.483C651.06 629.324 648.373 607.307 647.85 603.375C642.697 564.603 634.023 525.902 623.965 488.128C625.662 487.402 628.311 487.318 630.21 486.802Z"/>
	<path fill="#F77306" transform="scale(0.488281 0.488281)" d="M411.373 156.372C411.022 156.005 410.214 154.92 409.811 154.737C406.847 153.394 402.993 153.849 399.75 152.263C393.996 149.45 390.435 144.356 388.564 138.344L388.343 137.608C387.248 134.045 387.042 129.095 388.09 125.5C389.341 121.21 391.039 118.214 395.019 116.065C393.092 118.459 391.639 119.58 392.004 122.893L392.35 124.75L392.459 125.322C393.22 128.869 396.243 132.726 399.239 134.669C409.134 141.085 419.908 135.755 430.269 135.293C429.857 141.874 428.104 146.259 423.003 150.752C419.571 153.775 415.757 155.291 411.373 156.372Z"/>
	<path fill="#666475" transform="scale(0.488281 0.488281)" d="M774.161 431.026L786.576 512.714C781.242 518.25 775.774 525.049 769.697 529.681C771.486 510.527 774.039 491.711 774.483 472.429L774.41 447.104C774.252 441.813 773.243 436.257 774.161 431.026Z"/>
	<path fill="#F89906" transform="scale(0.488281 0.488281)" d="M399.547 112.128C407.171 111.443 415.505 112.378 421.678 117.398C427.181 121.872 429.62 127.445 430.2 134.381L430.269 135.293C419.908 135.755 409.134 141.085 399.239 134.669C396.243 132.726 393.22 128.869 392.459 125.322L392.35 124.75L392.004 122.893C391.639 119.58 393.092 118.459 395.019 116.065L395.062 116.077C396.858 114.865 398.241 113.871 399.547 112.128Z"/>
	<path fill="#FEFEFE" transform="scale(0.488281 0.488281)" d="M407.805 116.132C410.779 116.077 414.541 115.763 417.028 117.708C418.468 118.834 418.769 120.018 418.992 121.75C417.826 123.204 417.067 123.744 415.336 124.419L411.75 124.84C409.581 124.911 407.131 124.406 405.588 122.775C404.53 121.656 404.228 120.389 404.3 118.877C405.144 117.319 406.292 116.881 407.805 116.132Z"/>
	<defs>
		<linearGradient id="gradient_0" gradientUnits="userSpaceOnUse" x1="164.0936" y1="532.45612" x2="201.25934" y2="532.52362">
			<stop offset="0" stop-color="#BC7F03"/>
			<stop offset="1" stop-color="#E0A103"/>
		</linearGradient>
	</defs>
	<path fill="url(#gradient_0)" transform="scale(0.488281 0.488281)" d="M200.311 432.482C193.925 456.213 188.112 480.076 184.049 504.335C174.766 559.773 173.099 616.151 178.703 672.032L167.658 668.157C164.009 646.973 163.353 625.089 163.314 603.633C163.222 553.405 168.81 502.789 180.976 454C186.131 433.328 192.812 413.211 200.074 393.199C200.832 393.659 202.319 394.246 202.596 395.103C203.096 396.647 202.601 398.833 202.415 400.426C201.999 403.975 201.42 407.501 200.596 410.979C198.946 417.944 196.391 425.733 200.311 432.482Z"/>
	<path fill="#F8CF06" transform="scale(0.488281 0.488281)" d="M200.074 393.199L217.438 351.231C229.525 325.375 243.742 299.534 260.13 276.148C283.37 242.985 312.142 212.545 343.688 187.235L369.558 167.804C373.969 164.702 378.727 161.048 383.612 158.799L388.597 161.723C375.13 172.626 361.051 182.52 348.103 194.112C334.207 206.551 320.138 219.862 307.701 233.75C281.581 262.918 260.126 295.216 241.872 329.774L228.154 356.883C217.054 381.438 208.193 406.733 200.311 432.482C196.391 425.733 198.946 417.944 200.596 410.979C201.42 407.501 201.999 403.975 202.415 400.426C202.601 398.833 203.096 396.647 202.596 395.103C202.319 394.246 200.832 393.659 200.074 393.199Z"/>
	<path fill="#343547" transform="scale(0.488281 0.488281)" d="M635.549 485.102C640.541 483.652 645.453 481.594 650.611 480.823L671.07 595.651C699.101 581.279 726.185 566.933 750.738 546.946C756.614 542.163 762.605 537.313 767.876 531.862L768.01 541.845C767.915 544.629 767.722 547.615 769.235 550.094C768.607 551.345 766.896 552.912 765.941 553.96L757.371 562.654C737.28 581.83 714.718 597.418 690.577 611.066L660.157 626.933L635.549 485.102Z"/>
	<path fill="#343547" transform="scale(0.488281 0.488281)" d="M428.057 154.635L428.57 155.224C432.125 159.168 438.006 162.378 442.488 165.264L462.899 178.855C481.08 191.842 498.842 206.811 514.681 222.561C554.986 262.638 586.307 312.24 609.593 363.86C616.453 379.068 623.074 394.539 628.549 410.308L643.386 455.417L647.825 470.885C648.671 474.01 649.328 477.495 650.657 480.442L650.611 480.823C645.453 481.594 640.541 483.652 635.549 485.102L629.671 461.621C614.205 404.192 591.094 347.347 557.836 297.846C534.893 263.697 506.104 232.207 474.447 205.97L446.174 184.823C435.223 177.066 424.236 169.325 412.592 162.627C414.617 161.681 416.814 161.171 418.845 160.215C422.099 158.683 425.091 156.654 428.057 154.635Z"/>
	<path fill="#343547" transform="scale(0.488281 0.488281)" d="M385.34 171.535L395.699 163.973L396.352 164.078C399.413 164.546 403.636 163.981 406.377 164.77C407.614 165.126 409.512 166.676 410.654 167.375L424.24 175.892C469.114 204.658 509.256 241.601 541.164 284.319C574.598 329.081 598.08 379.96 615.002 433.023L630.21 486.802C628.311 487.318 625.662 487.402 623.965 488.128C634.023 525.902 642.697 564.603 647.85 603.375C648.373 607.307 651.06 629.324 652.475 630.483L646.294 633.619L643.319 610.079L618.227 488.079C615.907 482.719 614.819 475.545 613.257 469.856L604.341 441.078C597.967 421.827 590.802 402.569 582.609 384.014L564.186 345.618C562.816 344.926 562.397 343.03 561.597 341.774C557.869 335.915 555.028 329.47 551.46 323.5C540.412 305.012 527.756 287.598 514.348 270.75C494.653 246.004 470.803 222.563 445.89 203.11C432.663 192.781 418.392 183.714 405.494 172.975L399.798 182.64C395.199 179.075 389.051 175.948 385.34 171.535Z"/>
	<path fill="#020102" transform="scale(0.488281 0.488281)" d="M564.186 345.618C569.097 350.861 572.871 358.629 576.289 364.974C589.31 389.14 599.288 414.126 608.442 439.953C614.088 455.88 619.597 471.792 623.965 488.128C634.023 525.902 642.697 564.603 647.85 603.375C648.373 607.307 651.06 629.324 652.475 630.483L646.294 633.619L643.319 610.079L618.227 488.079C615.907 482.719 614.819 475.545 613.257 469.856L604.341 441.078C597.967 421.827 590.802 402.569 582.609 384.014L564.186 345.618Z"/>
	<path fill="#F8CF06" transform="scale(0.488281 0.488281)" d="M445.614 141.274C456.741 140.517 468.136 141.194 479.25 141.954C519.458 144.704 559.808 154.987 596.75 171C613.065 178.072 629.187 186.303 643.964 196.23C710.733 241.085 755.391 314.124 770.765 392.521C768.706 389.488 767.727 385.128 766.541 381.631C755.898 352.307 741.344 324.098 723.992 298.188C719.091 290.87 713.275 283.976 707.58 277.264C663.618 225.46 600.123 190.603 535.25 172.267C501.051 162.6 466.158 157.101 431.387 150.175C433.425 147.419 435.413 145.39 437.01 142.273L437.409 141.487L445.614 141.274Z"/>
	<path fill="#F89906" transform="scale(0.488281 0.488281)" d="M232.105 196.195C264.315 175.516 300.625 161.552 337.733 152.653L367.384 146.585C370.713 150.637 373.756 153.176 378.155 156.012C343.341 176.755 312.294 204.81 285.485 235.059C270.98 251.425 257.416 268.569 245.597 287C224.931 319.226 208.613 353.908 194.715 389.523C193.557 388.035 193.363 386.651 193.212 384.804C192.08 370.956 194.266 356.27 197.111 342.738C207.384 293.866 231.492 250.067 263.763 212.205L286.443 187.761C291.448 182.861 297.195 178.362 301.708 173.028C268.004 191.088 235.334 210.932 205.748 235.309C206.904 228.414 221.652 211.661 226.444 206C228.479 203.596 232.848 199.877 233.128 196.791L232.105 196.195Z"/>
	<path fill="#938F9E" transform="scale(0.488281 0.488281)" d="M460.471 160.844C488.485 166.151 516.86 172.136 544.04 180.804C610.173 201.893 677.153 240.156 717.034 298.5C737.198 328.001 754.21 360.768 764.856 394.957L774.161 431.026C773.243 436.257 774.252 441.813 774.41 447.104L774.483 472.429C774.039 491.711 771.486 510.527 769.697 529.681L768.6 531.488C767.714 530.277 767.914 528.402 767.843 526.936L767.149 514.329L764.557 487.783C761.794 464.934 756.774 442.905 750.367 420.84L733.646 376.615C724.181 357.323 714.139 339.04 702.451 321C694.053 308.037 684.72 295.005 674.045 283.812C671.448 281.088 668.025 276.711 664.465 275.484C663.685 272.771 662.224 270.215 660.495 268C655.471 261.561 649.686 258.845 641.663 257.873C641.091 257.305 640.542 256.795 639.881 256.326L624.864 245.145C607.941 233.04 589.892 221.214 571.637 211.217C549.94 199.335 526.921 190.574 504.142 181.079L460.773 161.911L460.471 160.844Z"/>
	<path fill="#7B3D08" transform="scale(0.488281 0.488281)" d="M338.055 845.844C321.556 836.358 305.87 824.307 290.868 812.645C245.494 777.371 203.139 737.865 166.609 693.409L145.512 666.933C150.192 668.201 155.158 670.858 159.744 672.618L192.441 683.979C208.427 688.696 224.667 691.888 241.08 694.666C276.277 700.623 311.172 703.042 346.832 702.949C347.973 706.929 362.752 722.895 366.789 726.054L366.348 726.172C359.311 727.999 350.865 728.23 343.603 728.79L292.908 730.939L264.991 730.242C276.503 759.479 289.909 786.667 309.123 811.679L326.75 832.594C329.967 836.061 334.643 839.914 337.298 843.781C337.767 844.463 337.875 845.053 338.055 845.844Z"/>
	<path fill="#514F60" transform="scale(0.488281 0.488281)" d="M650.657 480.442C656.859 479.678 663.623 476.698 669.5 474.569C694.275 465.592 717.376 451.705 737 434.054L750.367 420.84C756.774 442.905 761.794 464.934 764.557 487.783L767.149 514.329L767.843 526.936C767.914 528.402 767.714 530.277 768.6 531.488C769.443 533.831 769.149 536.37 768.745 538.75L768.669 539.652C768.576 540.576 768.425 541.036 768.01 541.845L767.876 531.862C762.605 537.313 756.614 542.163 750.738 546.946C726.185 566.933 699.101 581.279 671.07 595.651L650.611 480.823L650.657 480.442Z"/>
	<path fill="#B75804" transform="scale(0.488281 0.488281)" d="M423.974 779.283L424.569 779.636C426.554 781.976 429.36 783.588 431.906 785.266L447.688 794.868L482.074 813.779L516.926 829.366C535.83 837.291 555.041 844.582 574.745 850.272L615.02 860.504C621.335 862.005 629.186 862.993 635.085 865.619C631.237 868.133 626.405 870.035 622.267 872.088C599.48 883.392 575.818 893.222 550.954 898.905C531.988 903.241 511.001 905.464 491.544 904.408C439.422 901.581 391.694 880.242 348.117 852.77L368.813 830.673L400.966 799.66L412.052 789.557L419.401 783.498C421.027 782.225 422.894 781.076 423.974 779.283Z"/>
	<path fill="#F77306" transform="scale(0.488281 0.488281)" d="M205.748 235.309C235.334 210.932 268.004 191.088 301.708 173.028C297.195 178.362 291.448 182.861 286.443 187.761L263.763 212.205C231.492 250.067 207.384 293.866 197.111 342.738C194.266 356.27 192.08 370.956 193.212 384.804C193.363 386.651 193.557 388.035 194.715 389.523C177.155 436.142 165.773 484.953 160.648 534.5L156.951 590.495C155.741 588.682 155.153 586.188 154.369 584.131L148.529 566.759C140.499 539.6 135.089 510.634 133.218 482.376C129.038 419.254 141.583 354.594 168.264 297.378C174.318 284.396 181.38 271.27 188.856 259.057L197.092 245.973C198.301 244.104 199.781 242.403 200.81 240.424L201.258 239.535C191.122 249.2 180.746 258.428 171.231 268.75C118.63 325.815 83.2631 394.676 66.6028 470.439C61.7963 492.297 58.7886 514.956 56.25 537.18L55.7141 536.965L54.9779 533.795L55.7416 496.094C57.2631 470.08 61.1305 444.024 67.7452 418.805C80.257 371.103 101.162 324.794 131.296 285.571C146.896 265.265 164.861 247.171 184.408 230.677C199.347 218.069 215.194 206.053 232.105 196.195L233.128 196.791C232.848 199.877 228.479 203.596 226.444 206C221.652 211.661 206.904 228.414 205.748 235.309Z"/>
	<path fill="#B75804" transform="scale(0.488281 0.488281)" d="M54.9779 533.795L55.7141 536.965L56.25 537.18C58.7886 514.956 61.7963 492.297 66.6028 470.439C83.2631 394.676 118.63 325.815 171.231 268.75C180.746 258.428 191.122 249.2 201.258 239.535L200.81 240.424C199.781 242.403 198.301 244.104 197.092 245.973L188.856 259.057C181.38 271.27 174.318 284.396 168.264 297.378C141.583 354.594 129.038 419.254 133.218 482.376C135.089 510.634 140.499 539.6 148.529 566.759L154.369 584.131C155.153 586.188 155.741 588.682 156.951 590.495L160.677 665.832C126.042 652.535 92.2698 635.674 61.3537 615.134C59.2708 606.673 58.7855 597.349 58.0148 588.67L54.9779 533.795Z"/>
	<defs>
		<linearGradient id="gradient_1" gradientUnits="userSpaceOnUse" x1="610.15759" y1="698.5816" x2="570.0321" y2="606.27045">
			<stop offset="0" stop-color="#C85A03"/>
			<stop offset="1" stop-color="#AE7206"/>
		</linearGradient>
	</defs>
	<path fill="url(#gradient_1)" transform="scale(0.488281 0.488281)" d="M767.14 562.766C771.947 557.341 776.83 551.96 780.991 546.011C785.084 540.159 788.418 533.908 791.775 527.622L805.178 536.44L804.873 537.034C803.417 539.919 802.586 542.973 801.308 545.932C798.102 553.357 794.603 560.075 789.698 566.553C788.004 568.789 786.303 571.348 784.131 573.131C777.269 582.091 769.044 589.546 760.344 596.671C744.744 609.448 727.37 620.409 710 630.603C703.57 634.376 696.518 639.05 689.599 641.778L641.855 664.664C637.298 666.101 632.991 668.257 628.593 670.109L600.677 682.078C553.366 701.827 505.717 723.586 462.693 751.665C449.438 760.315 437.321 770.322 424.569 779.636L423.974 779.283C422.894 781.076 421.027 782.225 419.401 783.498L412.052 789.557L400.966 799.66L368.813 830.673L348.117 852.77L338.055 845.844C337.875 845.053 337.767 844.463 337.298 843.781C334.643 839.914 329.967 836.061 326.75 832.594L309.123 811.679C289.909 786.667 276.503 759.479 264.991 730.242L292.908 730.939L343.603 728.79C350.865 728.23 359.311 727.999 366.348 726.172L366.789 726.054C362.752 722.895 347.973 706.929 346.832 702.949C357.185 701.993 367.898 702.258 378.32 701.766L420.305 698.198C460.856 693.821 500.836 685.948 540.319 675.849C585.522 664.287 630 650.218 671.617 628.873C699.197 614.694 725.665 598.928 749.529 578.987L767.14 562.766Z"/>
	<path fill="#8E4908" transform="scale(0.488281 0.488281)" d="M366.789 726.054L367.75 725.255L368.367 725.385C369.972 725.647 370.757 725.394 372.25 725C373.555 724.656 374.836 724.9 376.25 724.5C377.396 724.176 378.49 724.385 379.75 724C380.702 723.709 381.683 723.826 382.75 723.5C383.702 723.209 384.683 723.326 385.75 723C386.702 722.709 387.683 722.826 388.75 722.5C389.702 722.209 390.683 722.326 391.75 722C392.702 721.709 393.683 721.826 394.75 721.5C395.622 721.234 396.777 721.252 397.75 721C398.639 720.769 399.31 720.787 400.25 720.5C401.202 720.209 402.183 720.326 403.25 720C404.122 719.734 405.277 719.752 406.25 719.5C407.139 719.269 407.81 719.287 408.75 719C409.622 718.734 410.777 718.752 411.75 718.5C412.568 718.288 413.393 718.222 414.25 718C415.139 717.769 415.81 717.787 416.75 717.5C417.622 717.234 418.777 717.252 419.75 717C420.568 716.788 421.393 716.722 422.25 716.5C423.068 716.288 423.893 716.222 424.75 716C425.568 715.788 426.393 715.722 427.25 715.5C428.068 715.288 428.893 715.222 429.75 715C430.568 714.788 431.393 714.722 432.25 714.5C433.068 714.288 433.893 714.222 434.75 714C435.684 713.758 436.261 713.84 437.25 713.5L438.5 713.25L446.648 711.633C447.159 711.531 447.625 711.268 448.125 711.125L450.75 710.5C451.684 710.258 452.261 710.34 453.25 710C454.318 709.633 455.517 709.478 456.625 709.125C457.654 708.797 458.638 708.882 459.75 708.5C460.779 708.146 462.057 707.93 463.125 707.625C464.046 707.362 464.802 707.319 465.75 707C467.298 706.478 469.047 706.076 470.625 705.625C471.546 705.362 472.302 705.319 473.25 705C474.842 704.464 476.534 704.215 478.125 703.625L480.156 703.125C481.235 702.909 480.291 703.119 481.625 702.625L483.656 702.125C484.735 701.909 483.791 702.119 485.125 701.625L487.156 701.125C488.268 700.903 487.238 701.13 488.625 700.625L493.766 698.984C494.741 698.659 495.651 698.479 496.625 698.125L501.812 696.492C502.656 696.211 502.34 696.37 503 695.878L503.633 695.9C504.672 695.898 505.181 695.469 506.125 695.125L515.766 691.984C516.433 691.762 517.06 691.622 517.75 691.5L517.995 691.827L389.5 723.255L383.5 724.255C378.714 725.262 372.552 726.315 367.75 726.291L367.255 727L370.291 730.671C372.201 733.062 374.777 734.925 376.755 737.25C386.333 748.504 398.753 758.546 410.04 768.131C414.437 771.866 419.018 776.404 423.974 779.283C422.894 781.076 421.027 782.225 419.401 783.498L412.052 789.557L400.966 799.66L368.813 830.673L348.117 852.77L338.055 845.844C337.875 845.053 337.767 844.463 337.298 843.781C334.643 839.914 329.967 836.061 326.75 832.594L309.123 811.679C289.909 786.667 276.503 759.479 264.991 730.242L292.908 730.939L343.603 728.79C350.865 728.23 359.311 727.999 366.348 726.172L366.789 726.054Z"/>
	<path fill="#666475" transform="scale(0.488281 0.488281)" d="M428.057 154.635C434.176 154.785 441.168 156.776 447.202 158.006C451.523 158.887 456.32 159.421 460.471 160.844L460.773 161.911L504.142 181.079C526.921 190.574 549.94 199.335 571.637 211.217C589.892 221.214 607.941 233.04 624.864 245.145L639.881 256.326C640.542 256.795 641.091 257.305 641.663 257.873C649.686 258.845 655.471 261.561 660.495 268C662.224 270.215 663.685 272.771 664.465 275.484C668.025 276.711 671.448 281.088 674.045 283.812C684.72 295.005 694.053 308.037 702.451 321C714.139 339.04 724.181 357.323 733.646 376.615L750.367 420.84L737 434.054C717.376 451.705 694.275 465.592 669.5 474.569C663.623 476.698 656.859 479.678 650.657 480.442C649.328 477.495 648.671 474.01 647.825 470.885L643.386 455.417L628.549 410.308C623.074 394.539 616.453 379.068 609.593 363.86C586.307 312.24 554.986 262.638 514.681 222.561C498.842 206.811 481.08 191.842 462.899 178.855L442.488 165.264C438.006 162.378 432.125 159.168 428.57 155.224L428.057 154.635Z"/>
	<path fill="#020102" transform="scale(0.488281 0.488281)" d="M641.663 257.873C649.686 258.845 655.471 261.561 660.495 268C662.224 270.215 663.685 272.771 664.465 275.484L664.648 276.33C665.936 282.907 664.449 290.606 660.574 296.077C657.231 300.798 651.826 304.418 646.05 305.318C639.389 306.355 632.307 304.542 626.98 300.429C621.907 296.512 618.552 290.097 617.834 283.77C617.164 277.87 619.078 271.41 622.926 266.907C628.023 260.943 634.04 258.387 641.663 257.873Z"/>
	<path fill="#E9BB17" transform="scale(0.488281 0.488281)" d="M628.166 269.427C631.54 265.88 635.378 263.546 640.362 263.446C645.396 263.345 650.215 265.077 653.864 268.64L656.25 271.357L656.812 272.026L657.144 272.433L658.325 274.793L659.373 278.068C660.404 282.801 659.333 288.163 656.658 292.189C653.957 296.254 649.921 299.048 645.078 299.866C640.022 300.72 634.554 299.53 630.521 296.301C626.645 293.198 623.789 288.244 623.462 283.25C623.115 277.946 624.717 273.502 628.166 269.427Z"/>
	<path fill="#F8CF06" transform="scale(0.488281 0.488281)" d="M657.144 272.433L658.325 274.793L658.124 275.216C657.171 277.321 657.41 278.967 657.073 281.152C656.399 285.52 652.879 290.75 648.75 292.513C648.017 292.826 647.277 292.956 646.5 293.102L645.891 293.222C642.004 293.905 637.288 292.5 634.113 290.25C630.947 288.006 627.929 283.521 627.318 279.618C627.158 278.598 627.159 277.659 627.322 276.638C629.251 278.508 631.209 280.301 633.718 281.352L634.442 281.64C637.679 282.951 643.501 283.045 646.901 282.199L647.5 282.034C650.78 281.154 654.3 279.511 656.862 277.25L657.144 272.433Z"/>
	<path fill="#EBD174" transform="scale(0.488281 0.488281)" d="M628.166 269.427C631.54 265.88 635.378 263.546 640.362 263.446C645.396 263.345 650.215 265.077 653.864 268.64L656.25 271.357L656.812 272.026L657.144 272.433L656.862 277.25C654.3 279.511 650.78 281.154 647.5 282.034L646.901 282.199C643.501 283.045 637.679 282.951 634.442 281.64L633.718 281.352C631.209 280.301 629.251 278.508 627.322 276.638C627.339 274.179 627.71 271.839 628.166 269.427Z"/>
	<path fill="#1C1D2A" transform="scale(0.488281 0.488281)" d="M646.294 633.619C640.387 636.583 633.886 638.801 627.731 641.221L572.607 660.148C513.293 678.091 451.804 689.408 390 693.673C348.859 696.512 307.002 696.797 266 691.845C239.183 688.607 212.676 682.567 186.838 674.806C186.017 672.57 185.973 669.625 185.682 667.25L184.011 652.433C181.323 626.662 181.661 600.747 183.423 574.932C185.505 544.422 189.545 514.542 195.89 484.628C198.76 471.098 201.619 457.565 205.607 444.31C209.135 454.684 213.997 464.571 218.968 474.31C247.899 530.981 296.272 581.227 353.58 609.52C373.871 619.538 394.789 627.732 416.78 633.199C484.047 649.92 556.088 641.222 621.057 618.894L643.319 610.079L646.294 633.619Z"/>
	<defs>
		<linearGradient id="gradient_2" gradientUnits="userSpaceOnUse" x1="571.02686" y1="899.31036" x2="843.8894" y2="564.20367">
			<stop offset="0" stop-color="#F73E02"/>
			<stop offset="1" stop-color="#FBE709"/>
		</linearGradient>
	</defs>
	<path fill="url(#gradient_2)" transform="scale(0.488281 0.488281)" d="M805.178 536.44L866.042 582.305C893.126 604.243 918.792 627.353 941.61 653.765C949.812 663.259 957.394 673.086 963.336 684.185C965.949 689.064 968.612 694.453 969.603 699.94C970.459 704.686 969.664 709.598 966.798 713.56C963.839 717.651 959.491 720.411 954.918 722.385C949.987 724.514 944.479 725.719 939.314 727.22L915.429 734.754L841.494 764.167L783.94 790.122C773.186 795.307 762.188 802.004 751.046 806.224L635.085 865.619C629.186 862.993 621.335 862.005 615.02 860.504L574.745 850.272C555.041 844.582 535.83 837.291 516.926 829.366L482.074 813.779L447.688 794.868L431.906 785.266C429.36 783.588 426.554 781.976 424.569 779.636C437.321 770.322 449.438 760.315 462.693 751.665C505.717 723.586 553.366 701.827 600.677 682.078L628.593 670.109C632.991 668.257 637.298 666.101 641.855 664.664L689.599 641.778C696.518 639.05 703.57 634.376 710 630.603C727.37 620.409 744.744 609.448 760.344 596.671C769.044 589.546 777.269 582.091 784.131 573.131C786.303 571.348 788.004 568.789 789.698 566.553C794.603 560.075 798.102 553.357 801.308 545.932C802.586 542.973 803.417 539.919 804.873 537.034L805.178 536.44Z"/>
	<path fill="#514F60" transform="scale(0.488281 0.488281)" d="M385.34 171.535C389.051 175.948 395.199 179.075 399.798 182.64L405.494 172.975C418.392 183.714 432.663 192.781 445.89 203.11C470.803 222.563 494.653 246.004 514.348 270.75C527.756 287.598 540.412 305.012 551.46 323.5C555.028 329.47 557.869 335.915 561.597 341.774C562.397 343.03 562.816 344.926 564.186 345.618L582.609 384.014C590.802 402.569 597.967 421.827 604.341 441.078L613.257 469.856C614.819 475.545 615.907 482.719 618.227 488.079L643.319 610.079L621.057 618.894C556.088 641.222 484.047 649.92 416.78 633.199C394.789 627.732 373.871 619.538 353.58 609.52C296.272 581.227 247.899 530.981 218.968 474.31C213.997 464.571 209.135 454.684 205.607 444.31L213.233 417.403C221.763 390.747 232.53 364.402 245.304 339.516C249.88 330.602 254.434 321.574 259.806 313.11C263.224 305.668 268.317 298.433 272.779 291.529C295.466 256.428 323.086 225.989 354.169 198.17C363.646 189.688 373.321 181.05 383.439 173.345L385.34 171.535Z"/>
	<path fill="#343547" transform="scale(0.488281 0.488281)" d="M259.806 313.11C260.249 335.372 261.961 357.748 266.25 379.632C278.135 440.274 307.634 494.747 352.204 537.528C406.509 589.653 481.709 612.841 555.93 611.009C576.211 610.508 596.397 607.067 616.056 602.223C617.831 601.786 622.629 601.173 623.763 600.027C619.373 568.789 614.734 537.337 607.045 506.715C605.498 500.556 604.306 493.952 602.235 487.97L613.806 487.936L618.227 488.079L643.319 610.079L621.057 618.894C556.088 641.222 484.047 649.92 416.78 633.199C394.789 627.732 373.871 619.538 353.58 609.52C296.272 581.227 247.899 530.981 218.968 474.31C213.997 464.571 209.135 454.684 205.607 444.31L213.233 417.403C221.763 390.747 232.53 364.402 245.304 339.516C249.88 330.602 254.434 321.574 259.806 313.11Z"/>
	<path fill="#666475" transform="scale(0.488281 0.488281)" d="M398.96 184.92L400.25 183.548C427.129 202.036 451.48 223.693 473.926 247.295C504.82 279.778 531.477 315.73 552.625 355.313C563.135 374.987 571.905 395.566 580.013 416.323C587.418 435.283 593.315 454.757 598.628 474.392C599.308 476.904 599.96 482.15 601.322 484.202L601.9 487.5L601.25 488.064C584.172 488.066 567.121 486.369 550.5 482.373C515.771 474.024 482.097 460.565 453.587 438.626C442.761 430.296 433.2 420.789 424.017 410.713C414.381 400.14 405.258 388.883 397.857 376.608C396.603 374.529 393.877 370.957 394.446 368.615C389.078 365.763 384.576 361.917 381.975 356.301C378.743 349.325 379.595 342.944 382.139 335.986C380.162 333.993 379.24 331.23 378.25 328.64C374.033 317.602 373.436 306.225 373.421 294.511C373.385 267.274 378.541 239.423 387.15 213.613C390.461 203.685 394.68 194.434 398.96 184.92Z"/>
	<path fill="#020102" transform="scale(0.488281 0.488281)" d="M382.139 335.986C385.625 329.823 389.774 325.431 396.75 323.494C402.879 321.792 409.391 322.509 414.924 325.75C420.817 329.202 424.697 334.849 426.195 341.49C427.604 347.731 426.194 354.185 422.765 359.528C419.103 365.234 414.228 368.442 407.654 369.71C403.167 370.576 398.771 369.908 394.446 368.615C389.078 365.763 384.576 361.917 381.975 356.301C378.743 349.325 379.595 342.944 382.139 335.986Z"/>
	<path fill="#E9BB17" transform="scale(0.488281 0.488281)" d="M387.587 336.946L387.928 341.249C388.276 345.77 391.476 350.419 394.958 353.181C398.006 355.598 403.282 356.928 407.1 356.326C412.055 355.544 415.49 352.734 418.296 348.692C419.454 347.023 420.103 345.156 421.601 343.74C421.728 345.283 421.697 346.856 421.583 348.402C421.246 352.987 418.527 357.645 414.973 360.533C411.494 363.36 405.958 365.342 401.471 364.715L400.75 364.601C399.398 364.4 398.163 364.163 396.883 363.659C392.155 361.796 388.424 357.944 386.559 353.224C384.48 347.963 385.516 342.024 387.587 336.946Z"/>
	<path fill="#EBD174" transform="scale(0.488281 0.488281)" d="M387.587 336.946C390.515 332.235 394.599 328.869 400.131 327.775C404.925 326.828 410.099 328.456 413.989 331.271C418.334 334.416 420.559 338.571 421.601 343.74C420.103 345.156 419.454 347.023 418.296 348.692C415.49 352.734 412.055 355.544 407.1 356.326C403.282 356.928 398.006 355.598 394.958 353.181C391.476 350.419 388.276 345.77 387.928 341.249L387.587 336.946Z"/>
</svg>
