<?xml version="1.0" encoding="utf-8" ?>
<svg xmlns="http://www.w3.org/2000/svg" xmlns:xlink="http://www.w3.org/1999/xlink" width="500" height="500">
	<path fill="#57A1A0" transform="scale(0.488281 0.488281)" d="M-0 -0L1024 0L1024 1024L-0 1024L0 -0Z"/>
	<path fill="#B4242D" transform="scale(0.488281 0.488281)" d="M937.895 482.53C940.013 490.73 937.39 500.134 933.212 507.265C931.394 510.367 929.163 512.677 926.486 515.031C924.42 511.93 923.053 507.898 921.465 504.5L914.888 492.072L937.895 482.53Z"/>
	<path fill="#B4242D" transform="scale(0.488281 0.488281)" d="M939.352 575.802C945.684 576.061 951.662 576.962 956.138 581.94C960.57 586.867 960.191 596.013 959.619 602.248C959.249 606.289 957.636 610.294 954.5 612.994C950.958 616.042 946.281 616.43 941.939 617.518L932.166 576.853L932.768 576.153L939.352 575.802Z"/>
	<path fill="#DF6F45" transform="scale(0.488281 0.488281)" d="M893.085 454.946C895.272 454.293 897.552 454.519 899.809 454.611C906.673 454.889 913.921 456.061 920.023 459.367C928.867 464.159 934.756 473.186 937.895 482.53L914.888 492.072L914.643 492.018C913.217 488.537 910.884 484.99 909.036 481.689L893.085 454.946Z"/>
	<path fill="#4C89CD" transform="scale(0.488281 0.488281)" d="M131.099 495.259L131.191 494.279L129.5 493.255C127.321 491.759 125.063 490.685 122.498 490.05L118.25 489.255C115.821 488.618 113.254 488.574 110.742 488.245C115.745 483.949 121.35 481.372 127.053 478.153C138.017 471.963 149.142 466.85 160.636 461.735L190.828 448.891C203.436 444.187 216.47 440.412 229.4 436.702C237.323 434.429 246.331 431.131 254.586 431.254L253.713 434.699C222.446 449.122 189.612 467.462 165.656 492.609C162.791 495.617 157.896 500.328 156.663 504.345C156.513 504.834 156.553 505.041 156.576 505.498L156.584 511.935C154.468 515.092 152.158 517.542 148.312 518.344L147.87 518.429L147.861 517.746C147.657 516.404 146.499 514.453 145.92 513.197C142.449 505.663 137.587 500.319 131.099 495.259Z"/>
	<path fill="#ED9B61" transform="scale(0.488281 0.488281)" d="M266.767 429.959L308.299 425.208C315.877 424.662 323.593 423.996 331.194 424.267C322.87 430.904 313.86 436.62 305.2 442.806C288.37 454.829 271.987 467.666 257.386 482.35C253.908 485.848 249.378 489.799 247.306 494.305L247.314 494.712C242.296 494.175 236.599 495.03 231.541 495.321C213.05 496.386 195.078 498.323 176.782 501.229C170.109 502.289 162.88 503.004 156.576 505.498C156.553 505.041 156.513 504.834 156.663 504.345C157.896 500.328 162.791 495.617 165.656 492.609C189.612 467.462 222.446 449.122 253.713 434.699C257.993 432.941 262.275 431.105 266.767 429.959Z"/>
	<path fill="#B4242D" transform="scale(0.488281 0.488281)" d="M100.829 491.589C108.634 488.602 116.809 488.396 124.515 491.837L131.003 495.261L131.099 495.259C137.587 500.319 142.449 505.663 145.92 513.197C146.499 514.453 147.657 516.404 147.861 517.746L147.87 518.429L148.938 520.232L150.26 519.877L152.75 519.755C153.923 520.832 154.001 521.576 154.358 523.033C154.615 524.082 155.045 525.026 155.498 526.003C156.095 525.729 155.788 525.915 156.387 525.399L160.439 618.213L91.9406 612.223L85.3798 578.026C84.7767 574.227 83.546 569.89 84.2531 566.071C77.1502 559.183 71.8011 551.012 69.9542 541.128C67.7795 529.489 70.6112 518.243 77.2543 508.531C82.3497 501.081 91.8024 493.282 100.829 491.589Z"/>
	<path fill="#5F1E29" transform="scale(0.488281 0.488281)" d="M101.364 501.204L100.299 500.746C107.664 499.78 113.913 500.694 120.192 504.803C126.572 508.977 129.337 513.252 132.798 520.02C134.393 523.139 134.583 527.468 135.458 530.891C136.97 536.804 135.793 545.146 133.502 550.774L132.759 551.11C131.408 551.758 130.61 553.065 129.782 554.263L129.322 553.934L130.776 550.152C131.542 548.41 132.059 546.774 132.43 544.906L132.606 544C133.674 538.622 134.278 531.602 132.816 526.285L132.588 525.5L132.099 523.641C130.009 516.286 124.896 508.498 118.109 504.756C112.651 501.675 107.533 500.882 101.364 501.204Z"/>
	<defs>
		<linearGradient id="gradient_0" gradientUnits="userSpaceOnUse" x1="107.77922" y1="580.65112" x2="132.58929" y2="493.81104">
			<stop offset="0" stop-color="#FAA358"/>
			<stop offset="1" stop-color="#F7E7B1"/>
		</linearGradient>
	</defs>
	<path fill="url(#gradient_0)" transform="scale(0.488281 0.488281)" d="M100.829 491.589C108.634 488.602 116.809 488.396 124.515 491.837L131.003 495.261L131.099 495.259C137.587 500.319 142.449 505.663 145.92 513.197C146.499 514.453 147.657 516.404 147.861 517.746L147.87 518.429L148.938 520.232C151.227 530.683 152.8 543.702 147.284 553.548C144.407 563.111 135.982 571.542 127.297 576.119C121.328 579.264 115.232 580.064 108.595 580.091C106.284 580.065 104.272 579.691 102.031 579.188L94.5816 572.734C103.555 575.221 112.146 576.55 121.086 572.72C132.42 567.866 138.061 560.624 142.625 549.471C144.026 543.342 144.589 537.142 143.687 530.883L143.552 530C142.344 521.632 139.162 513.924 133.907 507.271C127.872 499.632 120.919 494.323 111.218 492.55C107.819 491.929 104.273 492.01 100.829 491.589Z"/>
	<path fill="#FDFDFD" transform="scale(0.488281 0.488281)" d="M101.364 501.204C107.533 500.882 112.651 501.675 118.109 504.756C115.545 505.998 111.903 505.366 109.075 505.556C106.854 505.705 104.613 506.243 102.434 506.687C100.914 507.016 99.4751 507.358 98.0152 507.897C95.9414 513.587 94.3283 518.567 93.1301 524.503C92.8424 525.928 91.9507 528.178 92.125 529.551C91.1519 535.312 91.8063 539.879 95.286 544.781C98.276 548.993 103.992 552.608 109.154 553.416C112.859 553.995 116.932 553.749 120.647 553.304L121.25 554.359C120.231 555.999 118.996 557.181 117.601 558.506L117.802 559.25C119.33 560.098 120.662 560.481 122.372 560.852L122.908 561.639C118.975 565.165 114.619 567.594 109.357 568.435C101.73 569.653 93.8978 567.495 87.719 562.917C80.4907 557.562 75.5655 547.864 74.2676 539.097C72.9262 530.035 75.2378 520.657 80.6798 513.308C85.9729 506.16 92.741 502.514 101.364 501.204Z"/>
	<path fill="#BEC5D0" transform="scale(0.488281 0.488281)" d="M118.109 504.756C124.896 508.498 130.009 516.286 132.099 523.641L132.588 525.5L132.816 526.285C134.278 531.602 133.674 538.622 132.606 544L132.43 544.906C132.059 546.774 131.542 548.41 130.776 550.152L129.322 553.934C127.509 556.704 125.527 559.579 122.908 561.639L122.372 560.852C120.662 560.481 119.33 560.098 117.802 559.25L117.601 558.506C118.996 557.181 120.231 555.999 121.25 554.359L120.647 553.304C116.932 553.749 112.859 553.995 109.154 553.416C103.992 552.608 98.276 548.993 95.286 544.781C91.8063 539.879 91.1519 535.312 92.125 529.551C91.9507 528.178 92.8424 525.928 93.1301 524.503C94.3283 518.567 95.9414 513.587 98.0152 507.897C99.4751 507.358 100.914 507.016 102.434 506.687C104.613 506.243 106.854 505.705 109.075 505.556C111.903 505.366 115.545 505.998 118.109 504.756Z"/>
	<path fill="#C6DCE4" transform="scale(0.488281 0.488281)" d="M92.125 529.551C91.9507 528.178 92.8424 525.928 93.1301 524.503C94.3283 518.567 95.9414 513.587 98.0152 507.897C99.4751 507.358 100.914 507.016 102.434 506.687L103.239 507.145C104.092 507.614 104.852 507.833 105.785 508.082C108.49 508.804 110.697 510.427 112.101 512.87C115.039 517.981 116.032 527.151 114.192 532.784C113.025 536.356 109.987 541.058 106.467 542.773C104.462 543.75 101.388 543.957 99.301 543.238C97.0183 542.451 95.1558 540.362 94.2191 538.187C93.1648 535.739 93.4366 531.272 92.125 529.551Z"/>
	<path fill="#2C6898" transform="scale(0.488281 0.488281)" d="M150.26 519.877L152.75 519.755C153.923 520.832 154.001 521.576 154.358 523.033C154.615 524.082 155.045 525.026 155.498 526.003C156.095 525.729 155.788 525.915 156.387 525.399L160.439 618.213L91.9406 612.223L85.3798 578.026C84.7767 574.227 83.546 569.89 84.2531 566.071L85.157 566.841L94.5816 572.734L102.031 579.188C104.272 579.691 106.284 580.065 108.595 580.091C115.232 580.064 121.328 579.264 127.297 576.119C135.982 571.542 144.407 563.111 147.284 553.548C152.8 543.702 151.227 530.683 148.938 520.232L150.26 519.877Z"/>
	<path fill="#FDFDFD" transform="scale(0.488281 0.488281)" d="M85.157 566.841L94.5816 572.734L102.031 579.188C100.577 579.007 99.1573 578.684 97.7514 578.271C91.7515 576.506 88.094 572.09 85.157 566.841Z"/>
	<path fill="#253E8E" transform="scale(0.488281 0.488281)" d="M122.391 593.03C123.525 595.751 123.983 599.094 122.893 601.913C121.939 604.383 120.44 606.156 117.914 607.132C114.682 608.381 112.739 608.146 109.61 606.723C107.986 605.985 105.464 604.172 104.69 602.5C104.481 602.049 104.485 601.714 104.445 601.25L105.821 599.401C107.316 600.825 108.758 601.98 110.82 602.442C113.201 602.975 116.424 603.073 118.5 601.586C121.597 599.368 121.96 596.514 122.391 593.03Z"/>
	<path fill="#F5B26A" transform="scale(0.488281 0.488281)" d="M111.829 585.979C114.947 585.875 116.77 586.148 119.14 588.274C120.688 589.661 121.513 591.185 122.391 593.03C121.96 596.514 121.597 599.368 118.5 601.586C116.424 603.073 113.201 602.975 110.82 602.442C108.758 601.98 107.316 600.825 105.821 599.401C104.948 597.824 104.602 596.231 104.186 594.487C104.672 592.567 105.165 590.603 106.393 589.003C107.76 587.222 109.657 586.315 111.829 585.979Z"/>
	<path fill="#F0C344" transform="scale(0.488281 0.488281)" d="M104.186 594.487C104.672 592.567 105.165 590.603 106.393 589.003C107.76 587.222 109.657 586.315 111.829 585.979L112.22 586.54C114.057 588.992 118.561 588.53 118.25 592.556C117.273 594.002 116.208 595.385 114.307 595.601C113.119 595.735 111.741 595.008 110.569 594.783C108.582 594.402 106.216 594.588 104.186 594.487Z"/>
	<path fill="#253E8E" transform="scale(0.488281 0.488281)" d="M148.938 520.232L150.26 519.877C150.935 521.175 150.789 521.855 150.625 523.253L150.899 523.783C152.149 526.387 151.139 528.969 152.251 531.554C153.315 534.028 152.679 537.608 152.49 540.239C152.041 546.488 151.914 553.012 149.503 558.877C144.357 571.391 137.311 580.285 124.575 585.654L120.103 587.15L119.613 586.756C116.42 584.222 114.08 583.848 110.222 582.925C109.541 582.762 109.73 582.772 109.016 582.25L108.595 580.091C115.232 580.064 121.328 579.264 127.297 576.119C135.982 571.542 144.407 563.111 147.284 553.548C152.8 543.702 151.227 530.683 148.938 520.232Z"/>
	<path fill="#F0C484" transform="scale(0.488281 0.488281)" d="M335.094 275.216C362.253 257.379 396.166 253.194 427.702 249.386C502.634 240.34 579.199 242.243 654.056 251.125C674.403 253.539 694.395 255.888 714.5 260.035C740.404 265.378 766.597 272.975 790.523 284.367C795.624 286.796 803.733 290.407 806.909 295.325L807.129 295.72C803.268 295.128 799.45 293.857 795.595 293.125C787.021 291.499 777.942 290.437 769.218 290.127C735.558 287.296 701.199 287.227 667.497 289.372C658.254 289.96 647.826 290.197 638.924 292.9L635.028 294.59C634.587 294.897 631.532 296.84 631.43 297.13L627.418 299.359C625.435 301.039 623.245 302.57 620.561 302.501C617.387 299.528 612.139 297.911 608.113 296.373C593.265 291.877 577.643 289.885 562.314 287.813L494.234 282.341C479.036 280.653 463.147 280.969 447.849 280.94C437.043 280.92 425.941 280.528 415.17 281.305L400.452 282.04C377.838 283.679 352.08 285.081 331.235 294.616L324.362 295.441C322.889 295.521 321.75 295.19 320.652 294.172C321.628 291.696 322.185 289.235 323.57 286.919C325.718 281.784 330.611 278.221 335.094 275.216Z"/>
	<path fill="#881F58" transform="scale(0.488281 0.488281)" d="M335.094 275.216C338.799 275.681 342.192 273.854 345.75 272.962C349.291 272.074 352.9 271.446 356.5 270.852C372.508 268.214 389.234 267.021 405.401 265.498L452.75 263.236C493.145 262.298 533.501 264.554 573.531 270.082C584.589 271.609 595.496 273.52 606.299 276.373C611.527 277.753 617.117 279.194 621.976 281.608C626.435 283.824 630.1 286.878 633.114 290.844C633.988 291.993 634.526 293.248 635.028 294.59C634.587 294.897 631.532 296.84 631.43 297.13L627.418 299.359C625.435 301.039 623.245 302.57 620.561 302.501C617.387 299.528 612.139 297.911 608.113 296.373C593.265 291.877 577.643 289.885 562.314 287.813L494.234 282.341C479.036 280.653 463.147 280.969 447.849 280.94C437.043 280.92 425.941 280.528 415.17 281.305L400.452 282.04C377.838 283.679 352.08 285.081 331.235 294.616L324.362 295.441C322.889 295.521 321.75 295.19 320.652 294.172C321.628 291.696 322.185 289.235 323.57 286.919C325.718 281.784 330.611 278.221 335.094 275.216Z"/>
	<path fill="#F5B26A" transform="scale(0.488281 0.488281)" d="M335.094 275.216C338.799 275.681 342.192 273.854 345.75 272.962C349.291 272.074 352.9 271.446 356.5 270.852C372.508 268.214 389.234 267.021 405.401 265.498L452.75 263.236C493.145 262.298 533.501 264.554 573.531 270.082C584.589 271.609 595.496 273.52 606.299 276.373C611.527 277.753 617.117 279.194 621.976 281.608C626.435 283.824 630.1 286.878 633.114 290.844C633.988 291.993 634.526 293.248 635.028 294.59C634.587 294.897 631.532 296.84 631.43 297.13L627.418 299.359C626.425 297.962 626.063 296.292 625.338 294.75C623.824 291.527 621.335 288.903 618.113 287.365C612.403 284.64 605.461 283.445 599.279 282.237L576.809 278.201C538.625 272.493 500.201 270.923 461.644 270.965C430.338 271 399.489 272.322 368.5 276.995C353.295 279.288 338.195 282.05 323.57 286.919C325.718 281.784 330.611 278.221 335.094 275.216Z"/>
	<path fill="#DF6F45" transform="scale(0.488281 0.488281)" d="M247.306 494.305L275.5 495.003C278.917 495.254 282.553 495.311 285.894 496.034L285.99 496.402L342.407 502.983L378.417 515.445L375.913 537.825L373.64 636.129L160.439 618.213L156.387 525.399C155.788 525.915 156.095 525.729 155.498 526.003C155.045 525.026 154.615 524.082 154.358 523.033C154.001 521.576 153.923 520.832 152.75 519.755L150.26 519.877L148.938 520.232L147.87 518.429L148.312 518.344C152.158 517.542 154.468 515.092 156.584 511.935L156.576 505.498C162.88 503.004 170.109 502.289 176.782 501.229C195.078 498.323 213.05 496.386 231.541 495.321C236.599 495.03 242.296 494.175 247.314 494.712L247.306 494.305Z"/>
	<path fill="#2D5DA2" transform="scale(0.488281 0.488281)" d="M147.87 518.429L148.312 518.344C152.158 517.542 154.468 515.092 156.584 511.935L156.387 525.399C155.788 525.915 156.095 525.729 155.498 526.003C155.045 525.026 154.615 524.082 154.358 523.033C154.001 521.576 153.923 520.832 152.75 519.755L150.26 519.877L148.938 520.232L147.87 518.429Z"/>
	<path fill="#4C89CD" transform="scale(0.488281 0.488281)" d="M247.306 494.305L275.5 495.003C278.917 495.254 282.553 495.311 285.894 496.034L285.99 496.402L286.026 527.616L247.373 525.545L247.314 494.712L247.306 494.305Z"/>
	<path fill="#5F1E29" transform="scale(0.488281 0.488281)" d="M171.591 589.937C182.879 589.992 194.451 591.454 205.734 592.216L290.273 598.663L337.835 602.523C342.953 602.976 350.85 602.363 355.367 604.636C356.575 606.15 357.248 607.276 357.412 609.246C357.672 612.363 357.851 615.514 355.75 618.03C355.06 618.447 354.409 618.718 353.601 618.833C351.237 619.168 348.255 618.648 345.845 618.456L332.566 617.409L293.602 614.212L200.534 606.959L175.25 604.99C173.798 604.828 172.947 604.679 171.815 603.75C170.327 599.5 171.055 594.325 171.591 589.937Z"/>
	<path fill="#5F1E29" transform="scale(0.488281 0.488281)" d="M171.238 567.418L223.938 571.217L282.871 576.017L336 579.95L348.254 580.804C350.383 580.956 353.096 580.975 355.022 581.992C356.479 582.761 357.311 584.469 357.634 586.024C358.318 589.323 358.205 592.703 356.25 595.514C355.393 596.118 354.552 596.426 353.5 596.444C347.16 596.551 340.472 595.626 334.138 595.151L293.295 591.925L171.257 582.39L171.238 567.418Z"/>
	<path fill="#5F1E29" transform="scale(0.488281 0.488281)" d="M173.871 524.75C175.798 524.157 178.136 524.509 180.131 524.601C196.647 525.366 353.38 535.779 355.729 537.579C355.969 537.763 356.733 538.472 356.902 538.742C358.198 540.811 358.488 548.34 357.621 550.516C357.1 551.821 356.435 551.919 355.25 552.416L171.017 538.928L171.07 528.25C171.313 526.572 172.571 525.651 173.871 524.75Z"/>
	<path fill="#5F1E29" transform="scale(0.488281 0.488281)" d="M171.087 545.42L303.75 554.999C310.668 555.531 351.678 557.709 354.978 559.843C356.759 560.994 357.387 563.069 357.79 565.018C358.374 567.836 358.426 571.279 356.876 573.75C355.641 574.71 354.594 574.693 353.093 574.648L320.484 572.085L269.288 567.89L210.308 563.112L171.336 559.927L171.087 545.42Z"/>
	<path fill="#5F1E29" transform="scale(0.488281 0.488281)" d="M914.643 492.018L914.888 492.072L921.465 504.5C923.053 507.898 924.42 511.93 926.486 515.031C928.614 518.982 929.812 523.605 931.157 527.882C934.413 538.236 937.254 548.906 938.545 559.703C939.181 565.022 939.202 570.451 939.352 575.802L932.768 576.153L932.166 576.853L941.939 617.518L945.087 645.871L939.23 645.961L922.593 645.493C920.341 668.628 912.242 691.451 896.412 708.916C893.176 711.649 890.036 714.515 886.493 716.849C876.816 723.225 866.589 725.321 855.137 724.501C849.478 722.816 843.572 720.457 838.721 717.036L838 716.52L835.727 714.844C825.724 706.56 818.48 694.39 813.328 682.632C810.625 676.463 808.191 669.484 807.551 662.757C807.457 661.766 807.405 661.026 806.997 660.102L805.014 659.866L773.731 663.775C771.744 664.064 769.658 664.244 767.718 664.761L764.773 665.158L786.181 544.997L786.814 541.207C791.284 539.822 795.551 536.521 799.5 534.034L817.989 522.576C829.164 515.761 841.428 509.198 853.5 504.099C867.832 498.045 883.626 494.512 899.077 492.963C903.716 492.498 909.333 493.309 913.751 492.248L914.643 492.018Z"/>
	<path fill="#B1885E" transform="scale(0.488281 0.488281)" d="M866.444 572.669C874.21 572.256 881.018 573.867 887.346 578.527C899.858 587.741 906.228 603.635 908.646 618.5C912.096 639.712 907.521 662.977 895.597 680.922C888.743 691.238 880.468 698.577 868.127 701.01C860.605 701.707 853.532 700.43 847.266 696.008C834.639 687.095 827.423 670.986 824.913 656.105C821.077 633.366 824.834 608.89 838.497 589.916C845.434 580.282 854.781 574.497 866.444 572.669Z"/>
	<path fill="#F0C344" transform="scale(0.488281 0.488281)" d="M868.965 606.157C872.519 605.858 876.258 606.657 879.299 608.531C885.597 612.414 889.347 620.258 890.855 627.282C893.25 638.44 891.325 650.698 884.935 660.211C881.345 665.556 876.766 668.505 870.517 669.853C866.728 670.207 862.971 669.412 859.75 667.351C853.771 663.524 849.867 655.669 848.468 648.854L848.348 648.25L847.878 645.773C846.246 635.578 848.152 623.461 854.331 615.022C858.228 609.699 862.476 607.149 868.965 606.157Z"/>
	<path fill="#02BDC8" transform="scale(0.488281 0.488281)" d="M914.643 492.018L914.888 492.072L921.465 504.5C923.053 507.898 924.42 511.93 926.486 515.031C928.614 518.982 929.812 523.605 931.157 527.882C934.413 538.236 937.254 548.906 938.545 559.703C939.181 565.022 939.202 570.451 939.352 575.802L932.768 576.153L932.166 576.853L941.939 617.518L945.087 645.871L939.23 645.961L922.593 645.493C923.22 640.674 923.114 635.676 923.044 630.821C922.737 609.643 916.997 586.898 904.182 569.698C897.026 560.094 886.602 552.484 874.844 549.706C870.775 548.745 866.587 548.509 862.456 547.908C843.915 553.764 829.827 565.839 820.831 583.109C809.867 604.159 806.93 627.723 807.02 651.106C807.026 652.758 807.6 658.884 806.258 659.582L805.014 659.866L773.731 663.775C771.744 664.064 769.658 664.244 767.718 664.761L764.773 665.158L786.181 544.997L786.814 541.207C791.284 539.822 795.551 536.521 799.5 534.034L817.989 522.576C829.164 515.761 841.428 509.198 853.5 504.099C867.832 498.045 883.626 494.512 899.077 492.963C903.716 492.498 909.333 493.309 913.751 492.248L914.643 492.018Z"/>
	<path fill="#8DE4ED" transform="scale(0.488281 0.488281)" d="M863.201 520.698C864.413 520.455 865.78 520.535 867.016 520.509C873.489 520.373 880.686 520.491 885.639 525.25L885.5 525.921L866.562 527.286C843.345 530.516 825.449 544.41 811.645 562.755C807.922 567.708 805.671 573.216 802.479 578.407C805.255 564.796 810.47 554.203 819.413 543.502C830.864 529.8 845.481 522.154 863.201 520.698Z"/>
	<path fill="#047686" transform="scale(0.488281 0.488281)" d="M862.456 547.908C868.991 544.101 879.812 543.865 887 545.864C891.572 547.137 895.458 549.131 899.379 551.755C920.266 565.729 931.245 600.562 935.804 624.188L939.23 645.961L922.593 645.493C923.22 640.674 923.114 635.676 923.044 630.821C922.737 609.643 916.997 586.898 904.182 569.698C897.026 560.094 886.602 552.484 874.844 549.706C870.775 548.745 866.587 548.509 862.456 547.908Z"/>
	<path fill="#253E8E" transform="scale(0.488281 0.488281)" d="M914.643 492.018L914.888 492.072L921.465 504.5C923.053 507.898 924.42 511.93 926.486 515.031C928.614 518.982 929.812 523.605 931.157 527.882C934.413 538.236 937.254 548.906 938.545 559.703C939.181 565.022 939.202 570.451 939.352 575.802L932.768 576.153L932.166 576.853C928.717 567.73 924.712 558.323 919.17 550.262C915.313 544.651 910.589 539.646 905.737 534.89C899.919 529.188 893.211 523.891 885.75 520.492C871.786 514.131 856.796 513.34 842.481 518.944C819.336 528.007 802.806 548.827 793.147 571.096C783.741 592.78 780.792 616.245 777.304 639.385C776.091 647.433 774.247 655.651 773.731 663.775C771.744 664.064 769.658 664.244 767.718 664.761L764.773 665.158L786.181 544.997L786.814 541.207C791.284 539.822 795.551 536.521 799.5 534.034L817.989 522.576C829.164 515.761 841.428 509.198 853.5 504.099C867.832 498.045 883.626 494.512 899.077 492.963C903.716 492.498 909.333 493.309 913.751 492.248L914.643 492.018Z"/>
	<path fill="#253E8E" transform="scale(0.488281 0.488281)" d="M89.6934 649.396C80.4698 648.742 71.1201 649.583 64.3121 642.186C60.3545 637.886 58.9266 632.413 59.3699 626.683C59.7418 621.876 62.0313 618.039 65.7118 614.978C72.5984 609.25 83.6623 611.452 91.9406 612.223L160.439 618.213L373.64 636.129L458.36 643.213C463.498 643.753 468.731 644.028 473.751 645.302C478.221 647.779 481.416 650.759 482.797 655.898C483.334 657.897 483.331 659.651 483.066 661.683C480.525 667.472 476.872 671.203 472.178 675.409L471.342 678.844C469.568 686.559 462.313 694.519 455.66 698.459C453.114 699.968 450.479 700.915 447.68 701.809L448.322 702.406L433.55 701.866C428.766 700.75 423.537 700.703 418.635 700.331L391.989 698.336L287.306 689.534C286.443 689.467 286.081 689.524 285.339 689.952C280.443 703.423 273.63 717.175 263.045 727.148C250.673 736.391 239.41 743.03 223.607 743.876C219.148 744.114 214.505 743.657 210.041 743.463C202.422 743.132 194.676 743.024 187.12 741.922L173.398 738.691C167.527 736.483 161.769 733.56 156.667 729.903C137.797 716.377 128.777 698.322 124.994 675.955C117.493 674.268 109.04 675.681 102.359 671.1C95.2866 666.25 91.2529 657.576 89.6934 649.396Z"/>
	<path fill="#300F18" transform="scale(0.488281 0.488281)" d="M124.994 675.955L284.732 689.174L285.339 689.952C280.443 703.423 273.63 717.175 263.045 727.148C250.673 736.391 239.41 743.03 223.607 743.876C219.148 744.114 214.505 743.657 210.041 743.463C202.422 743.132 194.676 743.024 187.12 741.922L173.398 738.691C167.527 736.483 161.769 733.56 156.667 729.903C137.797 716.377 128.777 698.322 124.994 675.955Z"/>
	<path fill="#5F1E29" transform="scale(0.488281 0.488281)" d="M165.617 683.206L175.507 682.802C178.36 701.918 189.641 725.783 206.588 736.155C208.922 737.584 211.382 738.869 213.932 739.861C215.333 740.405 217.365 740.633 218.25 741.831C210.517 741.185 202.203 738.208 195.75 733.911C179.351 722.991 169.429 701.946 165.617 683.206Z"/>
	<path fill="#D9D2B8" transform="scale(0.488281 0.488281)" d="M89.6934 649.396C80.4698 648.742 71.1201 649.583 64.3121 642.186C60.3545 637.886 58.9266 632.413 59.3699 626.683C59.7418 621.876 62.0313 618.039 65.7118 614.978C72.5984 609.25 83.6623 611.452 91.9406 612.223L160.439 618.213L373.64 636.129L458.36 643.213C463.498 643.753 468.731 644.028 473.751 645.302C478.221 647.779 481.416 650.759 482.797 655.898C483.334 657.897 483.331 659.651 483.066 661.683C480.525 667.472 476.872 671.203 472.178 675.409C467.224 678.487 462.454 681.064 456.467 681.224C446.113 681.501 435.262 679.551 424.935 678.672L347.855 671.607L164.216 655.733L89.6934 649.396Z"/>
	<defs>
		<linearGradient id="gradient_1" gradientUnits="userSpaceOnUse" x1="639.22723" y1="292.84436" x2="905.01184" y2="503.34851">
			<stop offset="0" stop-color="#153A91"/>
			<stop offset="1" stop-color="#3769A8"/>
		</linearGradient>
	</defs>
	<path fill="url(#gradient_1)" transform="scale(0.488281 0.488281)" d="M638.924 292.9C647.826 290.197 658.254 289.96 667.497 289.372C701.199 287.227 735.558 287.296 769.218 290.127C777.942 290.437 787.021 291.499 795.595 293.125C799.45 293.857 803.268 295.128 807.129 295.72C808.543 296.215 809.453 298.134 810.185 299.425L824.549 327.63L873.788 421.709L884.347 440.562C886.935 445.275 889.761 450.73 893.085 454.946L909.036 481.689C910.884 484.99 913.217 488.537 914.643 492.018L913.751 492.248C909.333 493.309 903.716 492.498 899.077 492.963C883.626 494.512 867.832 498.045 853.5 504.099C841.428 509.198 829.164 515.761 817.989 522.576L799.5 534.034C795.551 536.521 791.284 539.822 786.814 541.207C792.154 513.535 790.87 483.829 780.088 457.5C777.46 451.083 774.034 445.094 770.433 439.183L766.01 439.54C764.741 439.184 764.803 439.073 764.068 437.954C762.346 439.992 758.116 440.043 755.414 440.488L651.546 451.842L648.403 452.272C641.652 452.831 608.931 458.149 605.112 456.25L604.019 455.023C602.964 451.016 603.909 447.02 604.752 443.058C606.511 434.78 609.176 426.773 611.668 418.703L620.672 389.803L637.751 333.408C640.721 323.828 644.628 313.883 646.468 304.031C645.985 303.106 646.133 301.68 646.09 300.633C645.815 299.541 645.567 298.585 645.028 297.585C643.712 295.143 641.459 293.756 638.924 292.9Z"/>
	<path fill="#070E4F" transform="scale(0.488281 0.488281)" d="M646.09 300.633C660.164 297.094 676.022 297.772 690.506 297.422L734.389 296.255L735.067 302.456C732.185 302.537 729.147 302.414 726.31 302.932L715.18 303.023L710.979 303.228L646.468 304.031C645.985 303.106 646.133 301.68 646.09 300.633Z"/>
	<path fill="#070E4F" transform="scale(0.488281 0.488281)" d="M743.161 302.513L742.378 296.055L774.436 298.037C779.94 298.746 798.935 301.73 802.371 305.999C806.286 310.865 809.333 317.501 812.296 323.039L829.133 355.635L866.196 429.333C863.87 429.772 861.494 430.357 859.138 430.555L805.047 324.946C804.735 324.3 804.553 323.753 804.422 323.046C804.162 321.635 804.17 320.668 803.03 319.655L802.672 319.636C800.475 318.747 798.415 313.017 797.501 310.872C780.2 305.076 761.401 302.356 743.161 302.513Z"/>
	<path fill="#8DE4ED" transform="scale(0.488281 0.488281)" d="M743.161 302.513C761.401 302.356 780.2 305.076 797.501 310.872C798.415 313.017 800.475 318.747 802.672 319.636L803.03 319.655C798.593 329.365 795.912 339.896 792.487 350L778.136 391.273L768.981 417.997L765.726 427.303C765.077 429.286 764.695 431.298 763.523 433.054L743.161 302.513Z"/>
	<path fill="#8DE4ED" transform="scale(0.488281 0.488281)" d="M803.03 319.655C804.17 320.668 804.162 321.635 804.422 323.046C804.553 323.753 804.735 324.3 805.047 324.946L859.138 430.555L770.433 439.183L766.01 439.54C764.741 439.184 764.803 439.073 764.068 437.954L763.523 433.054C764.695 431.298 765.077 429.286 765.726 427.303L768.981 417.997L778.136 391.273L792.487 350C795.912 339.896 798.593 329.365 803.03 319.655Z"/>
	<path fill="#FDFDFD" transform="scale(0.488281 0.488281)" d="M803.03 319.655C804.17 320.668 804.162 321.635 804.422 323.046C804.553 323.753 804.735 324.3 805.047 324.946L794.049 357.963L776.028 411.5L768.589 432.926C767.865 434.958 767.527 438.095 766.01 439.54C764.741 439.184 764.803 439.073 764.068 437.954L763.523 433.054C764.695 431.298 765.077 429.286 765.726 427.303L768.981 417.997L778.136 391.273L792.487 350C795.912 339.896 798.593 329.365 803.03 319.655Z"/>
	<path fill="#8DE4ED" transform="scale(0.488281 0.488281)" d="M726.31 302.932L734.896 302.966L755.414 440.488L651.546 451.842L648.403 452.272C641.652 452.831 608.931 458.149 605.112 456.25L604.019 455.023C602.964 451.016 603.909 447.02 604.752 443.058C606.511 434.78 609.176 426.773 611.668 418.703L620.672 389.803L637.751 333.408C640.721 323.828 644.628 313.883 646.468 304.031L710.979 303.228L715.18 303.023L726.31 302.932Z"/>
	<path fill="#FDFDFD" transform="scale(0.488281 0.488281)" d="M710.979 303.228L715.18 303.023C714.254 306.472 712.314 309.878 710.822 313.128L702.734 331.238L668.432 411L656.837 438.339C655.024 442.792 652.922 447.233 651.546 451.842L648.403 452.272L647.258 451.964C647.175 451.643 646.995 451.332 647.01 451C647.118 448.644 649.821 443.848 650.8 441.545L662.675 413.724L693.192 342.516C698.861 329.45 704.169 315.719 710.979 303.228Z"/>
	<path fill="#8DE4ED" transform="scale(0.488281 0.488281)" d="M726.31 302.932L734.896 302.966L755.414 440.488L651.546 451.842C652.922 447.233 655.024 442.792 656.837 438.339L668.432 411L702.734 331.238L710.822 313.128C712.314 309.878 714.254 306.472 715.18 303.023L726.31 302.932Z"/>
	<path fill="#0A4248" transform="scale(0.488281 0.488281)" d="M773.731 663.775L805.014 659.866L806.997 660.102C807.405 661.026 807.457 661.766 807.551 662.757C808.191 669.484 810.625 676.463 813.328 682.632C818.48 694.39 825.724 706.56 835.727 714.844L838 716.52L838.721 717.036C843.572 720.457 849.478 722.816 855.137 724.501C866.589 725.321 876.816 723.225 886.493 716.849C890.036 714.515 893.176 711.649 896.412 708.916L968.25 716.286C962.687 717.783 956.77 718.576 951.106 719.684L919.737 725.877L810.178 746.727L565.505 790.964L503.16 801.48L486.474 804.32C483.871 804.753 481.147 805.505 478.504 805.518C473.758 805.543 468.591 804.409 463.847 803.853L426.68 799.375L378.787 794.171L307.254 785.317L139.208 765.283L80.5652 758.5L56.5003 755.526L173.398 738.691L187.12 741.922C194.676 743.024 202.422 743.132 210.041 743.463C214.505 743.657 219.148 744.114 223.607 743.876C239.41 743.03 250.673 736.391 263.045 727.148C273.63 717.175 280.443 703.423 285.339 689.952C286.081 689.524 286.443 689.467 287.306 689.534L391.989 698.336L418.635 700.331C423.537 700.703 428.766 700.75 433.55 701.866L448.322 702.406L452.242 702.305C459.31 701.696 466.631 702.055 473.734 701.972C477.938 701.923 482.377 702.033 486.399 700.665C487.157 706.599 488.983 712.541 490.834 718.22C496.248 734.837 505.585 753.568 519.696 764.511C527.104 770.255 534.739 773.777 543.634 776.548C547.895 777.746 554.348 777.389 558.709 776.753C568.793 775.281 578.331 771.984 586.764 766.162C608.169 751.387 621.45 728.034 627.716 703.172C629.139 697.526 629.849 691.816 630.89 686.104C638.185 684.267 646.517 684.117 654.017 683.469L654.367 683.52C658.198 681.835 664.466 681.431 668.622 680.765L696.75 676.348L762.555 665.835L764.773 665.158L767.718 664.761C769.658 664.244 771.744 664.064 773.731 663.775Z"/>
	<path fill="#57A1A0" transform="scale(0.488281 0.488281)" d="M764.773 665.158L767.718 664.761C769.842 675.274 773.095 685.051 778.375 694.396L654.367 683.52C658.198 681.835 664.466 681.431 668.622 680.765L696.75 676.348L762.555 665.835L764.773 665.158Z"/>
	<path fill="#300F18" transform="scale(0.488281 0.488281)" d="M452.242 702.305C459.31 701.696 466.631 702.055 473.734 701.972C477.938 701.923 482.377 702.033 486.399 700.665C487.157 706.599 488.983 712.541 490.834 718.22C496.248 734.837 505.585 753.568 519.696 764.511C527.104 770.255 534.739 773.777 543.634 776.548C536.797 776.701 529.47 774.779 522.75 773.506C509.592 771.013 492.143 769.089 481.129 761.064C476.788 757.901 473.102 753.35 470.051 748.967C460.672 735.489 454.898 718.458 452.242 702.305Z"/>
	<path fill="#300F18" transform="scale(0.488281 0.488281)" d="M773.731 663.775L805.014 659.866L806.997 660.102C807.405 661.026 807.457 661.766 807.551 662.757C808.191 669.484 810.625 676.463 813.328 682.632C818.48 694.39 825.724 706.56 835.727 714.844L838 716.52L838.721 717.036C843.572 720.457 849.478 722.816 855.137 724.501C848.394 725.118 841.522 724.892 834.751 724.953C829.308 725.002 823.594 725.676 818.187 725.262C810.377 724.664 803.083 721.246 797.043 716.401C789.253 710.152 784.909 702.875 778.991 695.186L778.375 694.396C773.095 685.051 769.842 675.274 767.718 664.761C769.658 664.244 771.744 664.064 773.731 663.775Z"/>
	<path fill="#57A1A0" transform="scale(0.488281 0.488281)" d="M285.339 689.952C286.081 689.524 286.443 689.467 287.306 689.534L391.989 698.336L418.635 700.331C423.537 700.703 428.766 700.75 433.55 701.866L263.045 727.148C273.63 717.175 280.443 703.423 285.339 689.952Z"/>
	<path fill="#253E8E" transform="scale(0.488281 0.488281)" d="M415.17 281.305C425.941 280.528 437.043 280.92 447.849 280.94C463.147 280.969 479.036 280.653 494.234 282.341L562.314 287.813C577.643 289.885 593.265 291.877 608.113 296.373C612.139 297.911 617.387 299.528 620.561 302.501C623.245 302.57 625.435 301.039 627.418 299.359L631.43 297.13C631.532 296.84 634.587 294.897 635.028 294.59L638.924 292.9C641.459 293.756 643.712 295.143 645.028 297.585C645.567 298.585 645.815 299.541 646.09 300.633C646.133 301.68 645.985 303.106 646.468 304.031C644.628 313.883 640.721 323.828 637.751 333.408L620.672 389.803L611.668 418.703C609.176 426.773 606.511 434.78 604.752 443.058C603.909 447.02 602.964 451.016 604.019 455.023L603.612 455.544C603.083 456.248 602.664 456.966 602.233 457.73C598.268 459.075 594.272 459.942 590.25 461.05C587.597 461.78 585.421 462.795 582.668 461.943L580.75 464.755C579.432 464.907 578.435 464.872 577.14 464.687L547.452 452.64C533.218 447.487 518.684 443.327 503.937 439.92C491.987 446.861 478.659 452.055 466.264 458.236L403.864 492.879C395.743 497.852 385.962 502.758 380.003 510.267L378.417 515.445L342.407 502.983L285.99 496.402L285.894 496.034C282.553 495.311 278.917 495.254 275.5 495.003L247.306 494.305C249.378 489.799 253.908 485.848 257.386 482.35C271.987 467.666 288.37 454.829 305.2 442.806C313.86 436.62 322.87 430.904 331.194 424.267C323.593 423.996 315.877 424.662 308.299 425.208L266.767 429.959C262.275 431.105 257.993 432.941 253.713 434.699L254.586 431.254L320.652 294.172C321.75 295.19 322.889 295.521 324.362 295.441L331.235 294.616C352.08 285.081 377.838 283.679 400.452 282.04L415.17 281.305Z"/>
	<path fill="#2C6898" transform="scale(0.488281 0.488281)" d="M635.028 294.59L638.924 292.9C641.459 293.756 643.712 295.143 645.028 297.585C645.567 298.585 645.815 299.541 646.09 300.633C646.133 301.68 645.985 303.106 646.468 304.031C644.628 313.883 640.721 323.828 637.751 333.408L620.672 389.803L611.668 418.703C609.176 426.773 606.511 434.78 604.752 443.058C603.909 447.02 602.964 451.016 604.019 455.023L603.612 455.544C603.083 456.248 602.664 456.966 602.233 457.73C598.268 459.075 594.272 459.942 590.25 461.05C587.597 461.78 585.421 462.795 582.668 461.943C585.833 454.929 587.707 446.719 589.949 439.345L602.453 397.644L617.644 346.538L631.56 299.53C631.784 298.605 631.722 298.025 631.43 297.13C631.532 296.84 634.587 294.897 635.028 294.59Z"/>
	<path fill="#8DE4ED" transform="scale(0.488281 0.488281)" d="M525.882 439.736C528.584 436.344 530.767 432.379 533.252 428.81L554.261 398.176L594.75 339.422L613.195 313.651C615.382 310.812 617.337 307.511 620.245 305.371C619.43 310.577 617.773 315.503 616.322 320.555L609.004 345.75L575.946 457.827C571.96 456.358 568.192 454.3 564.256 452.681L537.471 443.069C533.733 441.91 529.721 440.395 525.882 439.736Z"/>
	<path fill="#8DE4ED" transform="scale(0.488281 0.488281)" d="M400.452 282.04L415.17 281.305L415.75 281.863L346.684 384.913L330.346 409.07C327.701 412.972 323.707 417.583 322.105 421.923L305.359 423.208L266.3 429.266L265.603 429C267.061 425.067 269.431 421.217 271.239 417.407L285.136 388.056L310.152 335.453C316.789 321.659 323.254 307.699 331.235 294.616C352.08 285.081 377.838 283.679 400.452 282.04Z"/>
	<path fill="#FDFDFD" transform="scale(0.488281 0.488281)" d="M400.452 282.04L415.17 281.305L415.75 281.863L346.684 384.913L330.346 409.07C327.701 412.972 323.707 417.583 322.105 421.923L305.359 423.208L305.057 422.25L400.452 282.04Z"/>
	<path fill="#8DE4ED" transform="scale(0.488281 0.488281)" d="M562.314 287.813C577.643 289.885 593.265 291.877 608.113 296.373C612.139 297.911 617.387 299.528 620.561 302.501L620.245 305.371C617.337 307.511 615.382 310.812 613.195 313.651L594.75 339.422L554.261 398.176L533.252 428.81C530.767 432.379 528.584 436.344 525.882 439.736L510.666 435.875L466.604 427.789C468.167 426.741 469.147 424.353 470.122 422.767L475.503 414.668L535.182 326.79L562.314 287.813Z"/>
	<path fill="#FDFDFD" transform="scale(0.488281 0.488281)" d="M608.113 296.373C612.139 297.911 617.387 299.528 620.561 302.501L620.245 305.371C617.337 307.511 615.382 310.812 613.195 313.651L594.75 339.422L554.261 398.176L533.252 428.81C530.767 432.379 528.584 436.344 525.882 439.736L510.666 435.875C516.995 425.19 525.02 415.224 532.084 405L571.055 348.645L597.011 311.171C600.603 306.175 603.956 300.919 608.113 296.373Z"/>
	<path fill="#FDFDFD" transform="scale(0.488281 0.488281)" d="M494.234 282.341L562.314 287.813L535.182 326.79L475.503 414.668L470.122 422.767C469.147 424.353 468.167 426.741 466.604 427.789L395.315 420.905C397.693 416.401 401.051 412.568 404.083 408.5L417.66 389.604L457.652 333.273L494.234 282.341Z"/>
	<path fill="#8DE4ED" transform="scale(0.488281 0.488281)" d="M415.17 281.305C425.941 280.528 437.043 280.92 447.849 280.94C463.147 280.969 479.036 280.653 494.234 282.341L457.652 333.273L417.66 389.604L404.083 408.5C401.051 412.568 397.693 416.401 395.315 420.905L352.004 420.349C342.168 420.498 331.841 420.486 322.105 421.923C323.707 417.583 327.701 412.972 330.346 409.07L346.684 384.913L415.75 281.863L415.17 281.305Z"/>
	<path fill="#F5B26A" transform="scale(0.488281 0.488281)" d="M331.194 424.267L379.964 423.974C421.652 424.73 463.275 431.041 503.937 439.92C491.987 446.861 478.659 452.055 466.264 458.236L403.864 492.879C395.743 497.852 385.962 502.758 380.003 510.267L378.417 515.445L342.407 502.983L285.99 496.402L285.894 496.034C282.553 495.311 278.917 495.254 275.5 495.003L247.306 494.305C249.378 489.799 253.908 485.848 257.386 482.35C271.987 467.666 288.37 454.829 305.2 442.806C313.86 436.62 322.87 430.904 331.194 424.267Z"/>
	<path fill="#ED9B61" transform="scale(0.488281 0.488281)" d="M342.407 502.983C354.886 503.114 368.147 506.502 380.003 510.267L378.417 515.445L342.407 502.983Z"/>
	<path fill="#7ABACE" transform="scale(0.488281 0.488281)" d="M331.194 424.267L379.964 423.974L338.139 451.519C323.962 461.483 309.908 472.757 297.077 484.399C293.528 487.619 288.097 491.847 285.894 496.034C282.553 495.311 278.917 495.254 275.5 495.003L247.306 494.305C249.378 489.799 253.908 485.848 257.386 482.35C271.987 467.666 288.37 454.829 305.2 442.806C313.86 436.62 322.87 430.904 331.194 424.267Z"/>
	<path fill="#2D5DA2" transform="scale(0.488281 0.488281)" d="M764.068 437.954C764.803 439.073 764.741 439.184 766.01 439.54L770.433 439.183C774.034 445.094 777.46 451.083 780.088 457.5C790.87 483.829 792.154 513.535 786.814 541.207L786.181 544.997L764.773 665.158L762.555 665.835L696.75 676.348L668.622 680.765C664.466 681.431 658.198 681.835 654.367 683.52L654.017 683.469C646.517 684.117 638.185 684.267 630.89 686.104C629.849 691.816 629.139 697.526 627.716 703.172C621.45 728.034 608.169 751.387 586.764 766.162C578.331 771.984 568.793 775.281 558.709 776.753C554.348 777.389 547.895 777.746 543.634 776.548C534.739 773.777 527.104 770.255 519.696 764.511C505.585 753.568 496.248 734.837 490.834 718.22C488.983 712.541 487.157 706.599 486.399 700.665C482.377 702.033 477.938 701.923 473.734 701.972C466.631 702.055 459.31 701.696 452.242 702.305L448.322 702.406L447.68 701.809C450.479 700.915 453.114 699.968 455.66 698.459C462.313 694.519 469.568 686.559 471.342 678.844L472.178 675.409C476.872 671.203 480.525 667.472 483.066 661.683C483.331 659.651 483.334 657.897 482.797 655.898C481.416 650.759 478.221 647.779 473.751 645.302C468.731 644.028 463.498 643.753 458.36 643.213L373.64 636.129L375.913 537.825L378.417 515.445L380.003 510.267C385.962 502.758 395.743 497.852 403.864 492.879L466.264 458.236C478.659 452.055 491.987 446.861 503.937 439.92C518.684 443.327 533.218 447.487 547.452 452.64L577.14 464.687C578.435 464.872 579.432 464.907 580.75 464.755L582.668 461.943C585.421 462.795 587.597 461.78 590.25 461.05C594.272 459.942 598.268 459.075 602.233 457.73C602.664 456.966 603.083 456.248 603.612 455.544L604.019 455.023L605.112 456.25C608.931 458.149 641.652 452.831 648.403 452.272L651.546 451.842L755.414 440.488C758.116 440.043 762.346 439.992 764.068 437.954Z"/>
	<defs>
		<linearGradient id="gradient_2" gradientUnits="userSpaceOnUse" x1="794.51898" y1="495.39355" x2="758.24396" y2="488.4657">
			<stop offset="0" stop-color="#04D2D0"/>
			<stop offset="1" stop-color="#08C6DE"/>
		</linearGradient>
	</defs>
	<path fill="url(#gradient_2)" transform="scale(0.488281 0.488281)" d="M766.01 439.54L770.433 439.183C774.034 445.094 777.46 451.083 780.088 457.5C790.87 483.829 792.154 513.535 786.814 541.207L786.181 544.997L783.504 544.068C783.639 541.057 784.479 537.89 784.982 534.909L786.777 520.865C788.636 497.989 784.306 474.64 774.271 453.993C771.968 449.254 768.914 445.023 766.46 440.4L766.01 439.54Z"/>
	<path fill="#BEC5D0" transform="scale(0.488281 0.488281)" d="M734.73 477.503L734.626 476.734C734.511 475.045 734.557 474.414 735.713 473.22C741.83 471.553 748.138 470.28 754.395 469.254C757.532 468.74 761.08 467.984 764.25 468.543C766.965 469.022 768.785 471.376 770.091 473.592L771.504 475.964C770.641 476.715 769.715 477.578 768.648 478.019C765.231 479.431 760.876 479.763 757.241 480.525C751.966 481.63 745.127 483.926 739.753 483.655C738.734 483.603 737.848 483.019 737.174 482.25C736.056 480.973 735.308 479.085 734.73 477.503Z"/>
	<path fill="#253E8E" transform="scale(0.488281 0.488281)" d="M771.504 475.964C772.475 476.613 772.883 476.952 773.354 478.029C774.944 482.736 776.978 488.208 774.607 492.996C772.992 496.258 770.604 497.942 767.188 499.04C759.999 501.35 747.438 504.784 740.489 501.116C736.262 498.884 734.915 494.898 733.585 490.648L732.954 484.829C732.862 481.845 732.583 479.766 734.73 477.503C735.308 479.085 736.056 480.973 737.174 482.25C737.848 483.019 738.734 483.603 739.753 483.655C745.127 483.926 751.966 481.63 757.241 480.525C760.876 479.763 765.231 479.431 768.648 478.019C769.715 477.578 770.641 476.715 771.504 475.964Z"/>
	<path fill="#02BDC8" transform="scale(0.488281 0.488281)" d="M473.751 645.302C478.89 625.486 483.815 604.689 494.015 586.716C505.511 566.462 522.58 551.196 545.229 544.997C563.52 539.991 586.957 542.674 603.46 552.217C630.103 567.623 642.162 595.211 649.769 623.646L651.264 630.359C650.069 630.208 648.958 630.053 647.75 630.179C644.817 625.653 642.82 620.192 640.37 615.359C632.846 600.514 623.277 584.819 610 574.455C596.949 564.268 582.061 560.283 565.577 562.206C549.023 564.137 531.004 576.079 520.958 589.186C509.823 603.714 502.134 619.91 495.41 636.87C492.693 643.722 490.489 651.035 487.101 657.587C486.02 659.677 485.176 660.601 483.066 661.683C483.331 659.651 483.334 657.897 482.797 655.898C481.416 650.759 478.221 647.779 473.751 645.302Z"/>
	<path fill="#8DE4ED" transform="scale(0.488281 0.488281)" d="M558.904 548.203C572.239 546.908 586.757 549.513 599.395 553.808L596.587 553.609C587.757 552.278 577.033 551.792 568.141 552.683C554.006 554.099 539.945 560.049 529.16 569.332C523.822 573.927 519.423 579.296 514.97 584.718L496.978 608.761C496.906 606.158 496.679 603.301 497.159 600.737C499.016 590.814 506.504 580.181 512.564 572.266C524.539 556.624 540.035 550.641 558.904 548.203Z"/>
	<path fill="#4C89CD" transform="scale(0.488281 0.488281)" d="M503.937 439.92C518.684 443.327 533.218 447.487 547.452 452.64L577.14 464.687C575.009 466.257 572.471 466.76 569.998 467.584L559.795 471.059L527.733 482.597C515.446 487.131 501.876 491.528 491.235 499.285C481.511 506.374 475.059 519.828 472.662 531.337C471.973 534.649 471.68 539.782 470.245 542.686C472.18 553.271 473.548 565.732 467.935 575.52C469.742 561.163 467.743 548.351 462.911 534.846L460.449 529.855C457.577 524.816 453.897 519.808 449.35 516.157C441.815 510.108 432.531 510.027 423.423 511.087L417.856 512.276C406.423 514.289 395.881 522.025 389.308 531.391L384.467 539.339L375.913 537.825L378.417 515.445L380.003 510.267C385.962 502.758 395.743 497.852 403.864 492.879L466.264 458.236C478.659 452.055 491.987 446.861 503.937 439.92Z"/>
	<path fill="#B4242D" transform="scale(0.488281 0.488281)" d="M423.423 511.087C428.849 508.751 437.969 509.219 443.471 511.33C454.923 515.724 463.818 526.975 468.478 538L470.245 542.686C472.18 553.271 473.548 565.732 467.935 575.52C469.742 561.163 467.743 548.351 462.911 534.846L460.449 529.855C457.577 524.816 453.897 519.808 449.35 516.157C441.815 510.108 432.531 510.027 423.423 511.087Z"/>
	<path fill="#B4242D" transform="scale(0.488281 0.488281)" d="M423.423 511.087C432.531 510.027 441.815 510.108 449.35 516.157C453.897 519.808 457.577 524.816 460.449 529.855L462.911 534.846C467.743 548.351 469.742 561.163 467.935 575.52L465.789 583.097C466.903 585.665 465.497 590.493 465.031 593.294C464.143 605.371 461.491 617.719 459.732 629.722C459.156 633.647 457.737 639.317 458.36 643.213L373.64 636.129L375.913 537.825L384.467 539.339L389.308 531.391C395.881 522.025 406.423 514.289 417.856 512.276L423.423 511.087Z"/>
	<path fill="#F0C484" transform="scale(0.488281 0.488281)" d="M460.449 529.855L462.911 534.846C461.004 535.896 459.808 536.403 458.916 538.5C458.45 539.596 458.018 540.312 457.148 541.12C455.934 537.777 454.336 534.585 452.557 531.511C455.323 530.734 457.681 531.254 460.449 529.855Z"/>
	<defs>
		<linearGradient id="gradient_3" gradientUnits="userSpaceOnUse" x1="388.48129" y1="591.38049" x2="401.40549" y2="585.1557">
			<stop offset="0" stop-color="#FFAB78"/>
			<stop offset="1" stop-color="#EDEFA8"/>
		</linearGradient>
	</defs>
	<path fill="url(#gradient_3)" transform="scale(0.488281 0.488281)" d="M380.407 551.966C380.298 556.998 379.943 562.125 380.681 567.124C382.047 576.366 387.718 585.079 394.057 591.713C400.704 598.67 408.723 602.028 417.802 604.61L417.077 605.759C406.565 604.677 398.898 600.055 390.973 593.409L385.696 586.652C378.859 576.478 378.145 563.744 380.407 551.966Z"/>
	<path fill="#FDFDFD" transform="scale(0.488281 0.488281)" d="M423.423 511.087C432.531 510.027 441.815 510.108 449.35 516.157C453.897 519.808 457.577 524.816 460.449 529.855C457.681 531.254 455.323 530.734 452.557 531.511L451.76 530.178C447.291 522.949 439.234 515.496 430.774 513.585L430 513.415C425.981 512.447 421.968 512.421 417.856 512.276L423.423 511.087Z"/>
	<defs>
		<linearGradient id="gradient_4" gradientUnits="userSpaceOnUse" x1="466.7272" y1="575.35199" x2="437.22095" y2="569.51263">
			<stop offset="0" stop-color="#FFAA64"/>
			<stop offset="1" stop-color="#F1BD99"/>
		</linearGradient>
	</defs>
	<path fill="url(#gradient_4)" transform="scale(0.488281 0.488281)" d="M462.911 534.846C467.743 548.351 469.742 561.163 467.935 575.52L465.789 583.097C462.163 592.152 456.57 600.403 447.25 604.34C438.434 608.064 426.35 607.807 417.077 605.759L417.802 604.61C422.018 604.415 426.003 605.703 430.42 605.224C439.033 604.289 446.563 600.341 451.901 593.502C460.02 583.102 462.375 569.343 460.708 556.448C460.007 551.029 458.846 546.32 457.148 541.12C458.018 540.312 458.45 539.596 458.916 538.5C459.808 536.403 461.004 535.896 462.911 534.846Z"/>
	<path fill="#7ABACE" transform="scale(0.488281 0.488281)" d="M427.81 521.154C436.796 525.164 442.672 531.361 446.199 540.607C451.069 553.378 451.506 569.05 445.78 581.646C442.953 587.868 438.409 593.659 431.866 596.182C424.547 599.005 415.261 597.866 408.253 594.574C406.34 593.676 404.534 592.614 402.828 591.363L403.262 591.06C405.904 589.368 406.817 587.594 408.805 585.368L415.684 577.99C426.005 566.652 430.215 551.67 429.373 536.509C429.088 531.357 428.04 526.34 427.81 521.154Z"/>
	<path fill="#C6DCE4" transform="scale(0.488281 0.488281)" d="M402.828 591.363L401.461 590.459C393.115 584.195 388.354 575.156 386.847 565C386.102 559.982 386.007 553.579 387.233 548.653C389.577 539.233 395.421 529.676 403.856 524.592C411.603 519.923 419.071 519.036 427.81 521.154C428.04 526.34 429.088 531.357 429.373 536.509C430.215 551.67 426.005 566.652 415.684 577.99L408.805 585.368C406.817 587.594 405.904 589.368 403.262 591.06L402.828 591.363Z"/>
	<path fill="#7ABACE" transform="scale(0.488281 0.488281)" d="M410.189 544.75C410.9 544.869 411.404 544.837 411.992 545.298C413.924 546.813 413.933 548.24 414.097 550.5C413.121 552.184 412.895 552.272 411.25 553.117C409.661 553.345 409.442 553.192 407.962 552.518C407.298 551.363 407.326 550.283 407.43 548.987C407.594 546.953 408.696 545.983 410.189 544.75Z"/>
	<path fill="#2C6898" transform="scale(0.488281 0.488281)" d="M375.913 537.825L384.467 539.339C382.386 543.406 381.076 547.444 380.407 551.966C378.145 563.744 378.859 576.478 385.696 586.652L390.973 593.409C398.898 600.055 406.565 604.677 417.077 605.759C426.35 607.807 438.434 608.064 447.25 604.34C456.57 600.403 462.163 592.152 465.789 583.097C466.903 585.665 465.497 590.493 465.031 593.294C464.143 605.371 461.491 617.719 459.732 629.722C459.156 633.647 457.737 639.317 458.36 643.213L373.64 636.129L375.913 537.825Z"/>
	<path fill="#2D5DA2" transform="scale(0.488281 0.488281)" d="M423.565 633.887L422.921 633.753C421.672 633.193 421.326 632.74 421.09 631.458C420.595 628.769 420.301 624.02 421.889 621.835C423.494 621.302 423.754 621.218 425.389 621.59C423.162 624.473 422.003 626.997 422.616 630.75L423.565 633.887Z"/>
	<path fill="#F5B26A" transform="scale(0.488281 0.488281)" d="M425.389 621.59C428.293 619.516 430.598 618.899 434.084 618.312C437.682 619.366 440.296 620.357 442.25 623.818C443.609 626.225 444.107 629.192 443.353 631.888C443.034 633.028 442.44 634.109 441.89 635.152C441.397 635.874 440.932 636.485 440.263 637.056C437.791 639.163 434.446 639.962 431.25 639.469C428.05 638.976 425.829 636.866 424.009 634.369L423.565 633.887L422.616 630.75C422.003 626.997 423.162 624.473 425.389 621.59Z"/>
	<path fill="#DF6F45" transform="scale(0.488281 0.488281)" d="M439.522 628.104C441.361 630.249 439.961 632.937 441.89 635.152C441.397 635.874 440.932 636.485 440.263 637.056C437.791 639.163 434.446 639.962 431.25 639.469C428.05 638.976 425.829 636.866 424.009 634.369C428.192 633.604 432.301 635.002 436.474 633.893C437.882 632.597 438.344 631.844 438.842 630.002L439.522 628.104Z"/>
	<path fill="#F0C344" transform="scale(0.488281 0.488281)" d="M438.842 630.002C436.433 629.342 432.334 631.09 430.75 630.062C429.577 629.301 428.219 627.365 427.892 626C427.521 624.452 428.184 623.246 429.034 622.035C430.641 620.954 432.784 620.532 434.703 621.042C436.522 621.525 438.578 624.436 439.25 626.041C439.531 626.711 439.512 627.395 439.522 628.104L438.842 630.002Z"/>
	<path fill="#253E8E" transform="scale(0.488281 0.488281)" d="M465.789 583.097C466.903 585.665 465.497 590.493 465.031 593.294C463.668 594.383 463.021 596.012 462.029 597.42C458.121 602.966 453.171 607.49 446.962 610.382C435.189 615.866 422.322 615.074 410.279 610.804C403.695 608.47 399.449 605.332 394.585 600.308C392.92 598.589 391.017 596.841 389.994 594.652C389.432 593.452 388.772 592.761 387.805 591.862C387.195 591.293 387.445 591.704 387.248 590.672C388.467 592.034 389.247 592.768 390.973 593.409C398.898 600.055 406.565 604.677 417.077 605.759C426.35 607.807 438.434 608.064 447.25 604.34C456.57 600.403 462.163 592.152 465.789 583.097Z"/>
	<path fill="#253E8E" transform="scale(0.488281 0.488281)" d="M783.504 544.068L786.181 544.997L764.773 665.158L762.555 665.835L696.75 676.348L668.622 680.765C664.466 681.431 658.198 681.835 654.367 683.52L654.017 683.469C654.49 665.436 654.205 648.208 651.264 630.359L649.769 623.646C653.793 620.911 658.686 618.818 662.949 616.409L685.932 602.68L756.503 560.004L772.401 550.469C775.853 548.36 779.389 545.857 783.159 544.381L783.504 544.068Z"/>
	<path fill="#57A1A0" transform="scale(0.488281 0.488281)" d="M783.504 544.068L786.181 544.997L764.773 665.158L762.555 665.835L783.159 544.381L783.504 544.068Z"/>
	<path fill="#5F1E29" transform="scale(0.488281 0.488281)" d="M483.066 661.683C485.176 660.601 486.02 659.677 487.101 657.587C490.489 651.035 492.693 643.722 495.41 636.87C502.134 619.91 509.823 603.714 520.958 589.186C531.004 576.079 549.023 564.137 565.577 562.206C582.061 560.283 596.949 564.268 610 574.455C623.277 584.819 632.846 600.514 640.37 615.359C642.82 620.192 644.817 625.653 647.75 630.179C648.958 630.053 650.069 630.208 651.264 630.359C654.205 648.208 654.49 665.436 654.017 683.469C646.517 684.117 638.185 684.267 630.89 686.104C629.849 691.816 629.139 697.526 627.716 703.172C621.45 728.034 608.169 751.387 586.764 766.162C578.331 771.984 568.793 775.281 558.709 776.753C554.348 777.389 547.895 777.746 543.634 776.548C534.739 773.777 527.104 770.255 519.696 764.511C505.585 753.568 496.248 734.837 490.834 718.22C488.983 712.541 487.157 706.599 486.399 700.665C482.377 702.033 477.938 701.923 473.734 701.972C466.631 702.055 459.31 701.696 452.242 702.305L448.322 702.406L447.68 701.809C450.479 700.915 453.114 699.968 455.66 698.459C462.313 694.519 469.568 686.559 471.342 678.844L472.178 675.409C476.872 671.203 480.525 667.472 483.066 661.683Z"/>
	<path fill="#300F18" transform="scale(0.488281 0.488281)" d="M548.719 617.274C550.051 614.357 556.025 611.727 558.965 610.611C566.912 607.593 577.007 607.002 584.903 610.454C591.619 613.39 597.246 618.528 601.391 624.524C606.306 631.637 609.708 639.832 611.305 648.343C611.665 650.264 612.252 652.984 611.917 654.903C611.75 655.862 611.803 655.583 611.231 656.444C607.756 642.118 599.911 626.515 586.927 618.643C578.639 613.619 568.182 611.223 558.632 613.719L557.75 613.962C554.601 614.794 551.713 616.005 548.719 617.274Z"/>
	<path fill="#57A1A0" transform="scale(0.488281 0.488281)" d="M483.066 661.683C485.176 660.601 486.02 659.677 487.101 657.587C490.489 651.035 492.693 643.722 495.41 636.87C502.134 619.91 509.823 603.714 520.958 589.186C531.004 576.079 549.023 564.137 565.577 562.206C582.061 560.283 596.949 564.268 610 574.455C623.277 584.819 632.846 600.514 640.37 615.359C642.82 620.192 644.817 625.653 647.75 630.179C648.958 630.053 650.069 630.208 651.264 630.359C654.205 648.208 654.49 665.436 654.017 683.469C646.517 684.117 638.185 684.267 630.89 686.104C635.221 660.332 629.959 633.539 614.704 612.139C606.792 601.04 593.571 587.857 579.352 585.603C570.028 584.124 560.73 587.225 553.285 592.784C534.6 606.735 526.429 629.461 518.104 650.307C514.054 660.448 509.586 670.677 504.179 680.162C499.748 687.934 495.421 694.879 487.75 699.801L486.909 700.347L486.399 700.665C482.377 702.033 477.938 701.923 473.734 701.972C466.631 702.055 459.31 701.696 452.242 702.305L448.322 702.406L447.68 701.809C450.479 700.915 453.114 699.968 455.66 698.459C462.313 694.519 469.568 686.559 471.342 678.844L472.178 675.409C476.872 671.203 480.525 667.472 483.066 661.683Z"/>
	<path fill="#B1885E" transform="scale(0.488281 0.488281)" d="M548.719 617.274C551.713 616.005 554.601 614.794 557.75 613.962L558.632 613.719C568.182 611.223 578.639 613.619 586.927 618.643C599.911 626.515 607.756 642.118 611.231 656.444C613.192 666.84 613.701 677.65 612.11 688.15C609.163 707.606 600.149 729.151 583.75 740.986C575.133 747.205 564.321 750.252 553.75 748.5C542.905 746.703 534.026 739.285 527.786 730.574C516.222 714.428 512.687 691.036 516.001 671.719C518.965 654.439 526.706 636.028 539.703 623.961C542.454 621.407 545.67 619.443 548.719 617.274Z"/>
	<path fill="#F0C344" transform="scale(0.488281 0.488281)" d="M563.629 646.073C566.551 645.768 570.063 645.661 572.932 646.335C578.32 647.601 583.26 651.302 586.161 656.007C591.83 665.202 593.985 677.647 591.268 688.159L591.04 689C590.066 692.726 588.841 696.174 586.999 699.556C583.171 706.588 577.073 711.165 569.469 713.361C563.522 714.481 558.357 713.69 553.276 710.25C546.857 705.903 542.924 698.608 541.465 691.106L541.287 690.149C539.186 679.244 541.321 667.708 546.957 658.165C550.699 651.829 556.589 647.801 563.629 646.073Z"/>
</svg>
