<?xml version="1.0" encoding="utf-8" ?>
<svg xmlns="http://www.w3.org/2000/svg" xmlns:xlink="http://www.w3.org/1999/xlink" width="500" height="500">
	<path fill="#F0A51B" transform="scale(0.488281 0.488281)" d="M-0 -0L1024 0L1024 1024L-0 1024L0 -0Z"/>
	<path fill="#757173" transform="scale(0.488281 0.488281)" d="M679.341 84.7885C681.576 84.8266 683.639 84.5834 685.51 85.9779C687.344 88.948 686.26 98.1959 686.271 102.062L686.334 139.038L679.329 138.974L679.341 84.7885Z"/>
	<path fill="#A56D1B" transform="scale(0.488281 0.488281)" d="M665.274 453.958L707.364 453.508L707.388 467.01L707.474 467.412L707.29 468.977L706.624 470.217L689.833 470.455C686.353 470.464 682.792 470.721 679.462 469.524C671.969 466.832 668.44 460.714 665.274 453.958Z"/>
	<path fill="#D7CEC3" transform="scale(0.488281 0.488281)" d="M665.518 139.035L665.527 104.53C665.534 99.5586 665 93.8765 665.713 88.9782C665.892 87.7482 666.302 87.0253 667.034 86.0396C669.681 84.0248 676.077 84.7924 679.341 84.7885L679.329 138.974L665.518 139.035Z"/>
	<path fill="#A56D1B" transform="scale(0.488281 0.488281)" d="M691.495 139.058L691.526 99.9869L716.504 99.9442L716.505 139.142L691.495 139.058Z"/>
	<defs>
		<linearGradient id="gradient_0" gradientUnits="userSpaceOnUse" x1="795.08057" y1="110.64883" x2="776.98145" y2="113.27795">
			<stop offset="0" stop-color="#D0C0B0"/>
			<stop offset="1" stop-color="#BDB8BA"/>
		</linearGradient>
	</defs>
	<path fill="url(#gradient_0)" transform="scale(0.488281 0.488281)" d="M780.002 139.004L779.744 98.4815C779.736 95.6456 778.883 88.2083 780.597 86.1181C783.719 84.0895 789.069 84.5944 792.653 84.6627C794.653 84.6822 796.899 84.4609 798.75 85.2952C799.036 85.7047 799.824 86.5663 799.941 87C800.942 90.7091 800.133 97.0976 800.132 101.05L800.07 138.622L800.097 138.964L799.668 139.118L780.002 139.004Z"/>
	<path fill="#757173" transform="scale(0.488281 0.488281)" d="M792.653 84.6627C794.653 84.6822 796.899 84.4609 798.75 85.2952C799.036 85.7047 799.824 86.5663 799.941 87C800.942 90.7091 800.133 97.0976 800.132 101.05L800.07 138.622L792.516 138.7L792.653 84.6627Z"/>
	<path fill="#D7CEC3" transform="scale(0.488281 0.488281)" d="M707.364 453.508L761.48 453.566L761.507 466.984L761.55 498.441L748.974 498.494L748.976 507.163L748.942 522.465L742.502 522.545C737.683 523.29 731.823 522.747 726.917 522.62L719.074 522.348C717.666 519.972 718.663 502.49 718.695 498.518C715.803 498.58 709.938 499.477 707.414 498.471L707.29 468.977L707.474 467.412L707.388 467.01L707.364 453.508Z"/>
	<path fill="#E7E2D7" transform="scale(0.488281 0.488281)" d="M719.074 522.348L718.961 506.927L748.976 507.163L748.942 522.465L742.502 522.545C737.683 523.29 731.823 522.747 726.917 522.62L719.074 522.348Z"/>
	<path fill="#9C9FA0" transform="scale(0.488281 0.488281)" d="M707.364 453.508L761.48 453.566L761.507 466.984L707.388 467.01L707.364 453.508Z"/>
	<path fill="#E7E2D7" transform="scale(0.488281 0.488281)" d="M707.474 467.412L747.038 467.537L746.978 498.525L718.695 498.518C715.803 498.58 709.938 499.477 707.414 498.471L707.29 468.977L707.474 467.412Z"/>
	<path fill="#FAFAFB" transform="scale(0.488281 0.488281)" d="M726.917 522.62C731.823 522.747 737.683 523.29 742.502 522.545L742.533 716.642L742.729 769.746C742.801 785.512 743.699 801.89 740.394 817.391C734.637 844.397 722.324 869.071 702.66 888.644C673.919 917.251 637.337 930.043 597.257 929.889L515.68 929.738L485.223 929.932C473.472 929.998 461.633 929.966 450.036 927.77C430.108 923.996 413.157 916.449 396.131 905.668L387.502 898.945C370.087 884.665 356.567 862.962 349.938 841.498C346.464 830.25 344.704 818.766 343.55 807.084L337.866 807.027L337.952 769.166L365.22 769.007L364.977 793.4C364.967 797.69 364.576 802.301 365.046 806.546L364.377 806.747C361.207 807.619 356.083 806.643 352.586 806.693C351.13 806.714 349.698 806.418 348.5 807.277L359.579 807.337C360.488 817.584 361.644 827.49 364.438 837.435C369.714 856.214 380.791 873.968 395.748 886.591C405.174 894.545 416.769 902.322 428.532 906.287C436.144 909.846 445.51 911.829 453.773 913.179C467.068 915.352 480.421 915.056 493.839 915.125L539.425 915.278L581.859 915.315C595.767 915.313 609.74 915.744 623.475 913.17C643.481 909.419 662.38 902.077 678.915 890.027C703.221 872.314 720.627 842.697 725.603 813.25C727.855 799.925 727.051 786.015 727.039 772.538L726.988 716.499L726.917 522.62Z"/>
	<path fill="#E7E2D7" transform="scale(0.488281 0.488281)" d="M716.505 139.142L780.002 139.004L799.668 139.118L799.3 258.108L663.789 258.115L647.499 258.11L647.584 181.134L647.557 158.071C647.557 154.508 647.219 150.536 647.717 147.012C648.031 144.789 648.88 143.226 650.509 141.67C654.284 138.064 660.678 138.997 665.518 139.035L679.329 138.974L686.334 139.038L691.495 139.058L716.505 139.142Z"/>
	<path fill="#A56D1B" transform="scale(0.488281 0.488281)" d="M519.642 126.666C528.754 126.314 537.728 127.114 544.792 133.574C551.447 139.66 556.474 147.699 556.934 156.944L557.021 193.416L557.051 263.298L557.132 478.912L557.293 648.835L557.207 700.114C557.193 708.803 557.715 717.878 557.036 726.521C556.612 731.93 553.346 738.2 549.646 742.143C545.919 746.113 541.978 748.467 536.75 750.009L535.96 750.248C532.131 751.35 527.873 751.021 523.922 751.022L506.795 751.021L446.692 750.933C436.236 750.885 425.581 750.287 415.158 750.831L415.402 793.22L389.933 792.945L389.92 815.644C389.919 817.074 390.382 820.775 389.917 822C389.789 822.336 389.472 822.566 389.25 822.849L385.568 823.25C383.924 826.763 390.84 848.402 392.346 852.529C397.266 866.017 405.004 880.268 414.566 891.013L424.264 900.97C425.657 902.304 428.113 903.961 428.908 905.702L428.532 906.287C416.769 902.322 405.174 894.545 395.748 886.591C380.791 873.968 369.714 856.214 364.438 837.435C361.644 827.49 360.488 817.584 359.579 807.337L348.5 807.277C349.698 806.418 351.13 806.714 352.586 806.693C356.083 806.643 361.207 807.619 364.377 806.747L365.046 806.546C364.576 802.301 364.967 797.69 364.977 793.4L365.22 769.007L337.952 769.166C331.07 770.232 323.055 769.523 316.039 769.588L316.097 754.557L316.315 739.811L387.545 739.871L387.496 728.488L462.861 728.53L485.344 728.62C490.325 728.639 495.505 728.872 500.453 728.287C504.73 727.782 509.014 726.333 512.734 724.156C519.015 720.482 523.003 714.822 524.765 707.754C526.063 702.554 525.422 696.328 525.425 690.996L525.409 662.094L525.292 551.715L525.238 279.766L525.075 187.845L524.959 142.527C524.679 136.62 522.638 131.648 519.642 126.666Z"/>
	<path fill="#E7E2D7" transform="scale(0.488281 0.488281)" d="M316.315 739.811L387.545 739.871L387.552 769.519L365.515 769.379L365.494 796.101C365.487 799.031 366.123 803.983 365.046 806.546C364.576 802.301 364.967 797.69 364.977 793.4L365.22 769.007L337.952 769.166C331.07 770.232 323.055 769.523 316.039 769.588L316.097 754.557L316.315 739.811Z"/>
	<path fill="#E03518" transform="scale(0.488281 0.488281)" d="M647.499 258.11L663.789 258.115L799.3 258.108L818.051 258.027L817.481 258.296C815.473 258.984 812.502 258.55 810.369 258.492L810.076 427.871L809.601 428.025C810.633 431.293 809.795 435.418 808.219 438.401C804.455 445.529 798.741 449.017 792.389 453.436L761.48 453.566L707.364 453.508L665.274 453.958C661.612 454.068 657.451 453.874 653.951 452.759L653.25 452.524L648.989 450.818C643.636 448.159 639.372 443.471 637.525 437.746L637.324 437.101C636.382 434.171 636.516 431.105 636.474 428.056L636.068 258.216L647.499 258.11Z"/>
	<path fill="#EA4C29" transform="scale(0.488281 0.488281)" d="M647.499 258.11L663.789 258.115L662.843 258.355C659.301 259.184 654.651 258.637 650.984 258.612L650.734 428.07L636.474 428.056L636.068 258.216L647.499 258.11Z"/>
	<path fill="#FEF006" transform="scale(0.488281 0.488281)" d="M708.982 295.75C713.48 294.66 719.199 295.25 723.823 295.264L750.572 295.512C751.776 296.394 753.057 297.365 753.943 298.581C756.014 301.42 754.99 311.08 754.997 314.711L754.99 344.702C754.978 349.712 755.489 355.452 754.505 360.359C754.043 362.663 752.92 363.968 751.035 365.25C748.61 366.094 745.174 365.72 742.614 365.703L725.396 365.568C720.573 365.559 715.048 366.179 710.348 365.477C708.76 365.24 707.003 363.618 706.139 362.313C705.363 361.143 705.094 359.883 705.007 358.5C704.139 344.692 704.948 330.181 704.947 316.306L704.974 305.21C704.983 303.668 704.703 301.305 705.156 299.87C705.807 297.803 707.117 296.702 708.982 295.75Z"/>
	<path fill="#DC5B2F" transform="scale(0.488281 0.488281)" d="M650.734 428.07L809.601 428.025C810.633 431.293 809.795 435.418 808.219 438.401C804.455 445.529 798.741 449.017 792.389 453.436L761.48 453.566L707.364 453.508L665.274 453.958C661.612 454.068 657.451 453.874 653.951 452.759L653.25 452.524L648.989 450.818C643.636 448.159 639.372 443.471 637.525 437.746L637.324 437.101C636.382 434.171 636.516 431.105 636.474 428.056L650.734 428.07Z"/>
	<path fill="#A56D1B" transform="scale(0.488281 0.488281)" d="M811.014 138.874L810.773 138.274C809.897 135.899 810.48 131.025 810.468 128.351L810.4 99.9731L833.175 99.9276L833.197 154.013C837.285 153.966 845.681 152.713 848.75 155.633C849.591 156.433 850.272 157.69 850.41 158.841C850.81 162.158 850.474 165.921 850.468 169.275L850.413 190.874L850.42 262.019L868.963 261.981L868.924 388.87L868.936 423.33C868.943 429.605 869.488 436.501 868.471 442.7C867.378 449.36 864.054 456.227 859.25 461.002C855.465 464.764 851.374 467.113 846.25 468.519L845.427 468.752C840.457 470.078 834.684 469.564 829.568 469.583L802.236 469.666L802.34 486.303L785.945 486.476L785.979 526.502L769.511 526.445L769.624 711.775L769.754 773.875C769.805 795.417 770.886 816.689 765.777 837.809C759.891 862.137 746.083 886.079 728.511 903.763C705.586 926.832 675.403 942.36 642.944 946.161C630.221 947.651 617.332 947.412 604.542 947.439L535.576 947.356C519.356 947.322 502.627 948.15 486.485 946.626C462.145 944.328 439.54 935.978 418.848 923.163C410.966 918.281 403.044 912.795 396.332 906.371L396.131 905.668C413.157 916.449 430.108 923.996 450.036 927.77C461.633 929.966 473.472 929.998 485.223 929.932L515.68 929.738L597.257 929.889C637.337 930.043 673.919 917.251 702.66 888.644C722.324 869.071 734.637 844.397 740.394 817.391C743.699 801.89 742.801 785.512 742.729 769.746L742.533 716.642L742.502 522.545L748.942 522.465L748.976 507.163L748.974 498.494L761.55 498.441L761.507 466.984L761.48 453.566L792.389 453.436C798.741 449.017 804.455 445.529 808.219 438.401C809.795 435.418 810.633 431.293 809.601 428.025L810.076 427.871L810.369 258.492C812.502 258.55 815.473 258.984 817.481 258.296L818.051 258.027L799.3 258.108L799.668 139.118L800.097 138.964L811.014 138.874Z"/>
	<path fill="#EA4C29" transform="scale(0.488281 0.488281)" d="M809.601 428.025L810.076 427.871C813.359 428.562 816.855 428.316 820.204 428.31L835.933 428.279C835.21 436.129 833.681 443.218 827.323 448.531C821.26 453.597 812.106 453.496 804.612 453.52L792.389 453.436C798.741 449.017 804.455 445.529 808.219 438.401C809.795 435.418 810.633 431.293 809.601 428.025Z"/>
	<path fill="#D7CEC3" transform="scale(0.488281 0.488281)" d="M800.097 138.964L811.014 138.874C814.195 140.445 816.327 142.703 817.93 145.852L818.051 258.027L799.3 258.108L799.668 139.118L800.097 138.964Z"/>
	<path fill="#CE3617" transform="scale(0.488281 0.488281)" d="M818.051 258.027L835.632 258.111L835.933 428.279L820.204 428.31C816.855 428.316 813.359 428.562 810.076 427.871L810.369 258.492C812.502 258.55 815.473 258.984 817.481 258.296L818.051 258.027Z"/>
	<path fill="#E7E2D7" transform="scale(0.488281 0.488281)" d="M199.466 727.725C194.482 725.312 190.237 722.756 186.37 718.741C182.144 714.354 178.13 707.363 177.574 701.208C176.909 693.848 177.489 685.937 177.504 678.515L177.606 633.391L177.805 489.225L177.697 243.499L177.623 176.804L177.552 141.245C177.775 133.839 180.871 126.415 186.391 121.38C190.756 117.399 196.431 114.815 202.276 114.057C206.309 113.534 210.749 113.85 214.821 113.831L237.083 113.687L318.142 113.585L434.595 113.669L474.743 113.565C482.165 113.546 489.749 113.221 497.156 113.643C506.983 114.202 513.283 119.639 519.642 126.666C522.638 131.648 524.679 136.62 524.959 142.527L525.075 187.845L525.238 279.766L525.292 551.715L525.409 662.094L525.425 690.996C525.422 696.328 526.063 702.554 524.765 707.754C523.003 714.822 519.015 720.482 512.734 724.156C509.014 726.333 504.73 727.782 500.453 728.287C495.505 728.872 490.325 728.639 485.344 728.62L462.861 728.53L387.496 728.488L387.545 739.871L316.315 739.811L316.097 754.557L264.577 754.731C255.295 754.811 244.997 755.759 235.828 754.29C233.21 753.87 230.514 752.625 228.186 751.399C222.169 748.229 217.564 743.49 212.596 738.962L199.466 727.725Z"/>
	<path fill="#9C9FA0" transform="scale(0.488281 0.488281)" d="M206.414 728.588L387.496 728.488L387.545 739.871L316.315 739.811L316.501 728.756L246.152 728.924L221.821 728.916C216.701 728.909 211.51 729.11 206.414 728.588Z"/>
	<path fill="#A56D1B" transform="scale(0.488281 0.488281)" d="M199.466 727.725C201.8 728.17 204.024 728.601 206.414 728.588C211.51 729.11 216.701 728.909 221.821 728.916L246.152 728.924L316.501 728.756L316.315 739.811L316.097 754.557L264.577 754.731C255.295 754.811 244.997 755.759 235.828 754.29C233.21 753.87 230.514 752.625 228.186 751.399C222.169 748.229 217.564 743.49 212.596 738.962L199.466 727.725Z"/>
	<path fill="#323D4C" transform="scale(0.488281 0.488281)" d="M284.956 137.25L404.09 137.336L443.042 137.134C449.585 137.103 456.612 136.561 463.101 137.337C473.728 138.608 484.11 144.227 490.747 152.694C495.626 158.919 499.349 167.555 499.841 175.48C500.563 187.131 499.967 199.172 499.965 210.869L499.951 278.809L499.941 487.308L499.936 614.502L499.971 652.829C499.974 659.342 500.498 666.374 499.663 672.829L499.538 673.75C498.853 679.095 496.688 684.263 493.655 688.704C488.413 696.381 480.055 701.849 470.906 703.487L470 703.642C463.282 704.827 456.067 704.333 449.257 704.334L418.054 704.316L288.88 704.471L252.042 704.523C245.649 704.53 238.525 705.139 232.226 704.191C224.903 703.09 218.219 699.762 212.878 694.645C206.365 688.405 202.496 679.995 202.332 671L202.366 566.148L202.236 331.877L202.316 223.875L202.278 189.575C202.272 183.041 201.905 176.19 202.64 169.694C203.53 161.835 207.78 153.742 213.271 148.141C217.964 143.353 224.44 139.944 230.929 138.375C237.869 136.698 245.764 137.371 252.88 137.343L284.956 137.25Z"/>
	<path fill="#DC5B2F" transform="scale(0.488281 0.488281)" d="M212.852 563.62C212.297 555.377 212.692 546.845 212.665 538.57L212.547 489.064L212.532 336.547L212.552 225.957L212.565 191.878C212.573 185.588 212.19 178.973 212.832 172.729C213.46 166.615 215.777 161.427 219.716 156.719C224.532 150.964 231.251 147.441 238.719 146.764C243.771 146.306 248.958 146.523 254.031 146.516L279.559 146.523L361.117 146.68L428.079 146.621C439.185 146.606 451.458 145.582 462.423 147.03C469.202 147.925 474.218 151.202 479.315 155.469C473.079 166.842 465.357 177.522 458.272 188.384L424.222 240.842L312.177 412.677L241.153 521.001L225.798 544.611C221.719 550.996 217.611 557.733 212.852 563.62Z"/>
	<defs>
		<linearGradient id="gradient_1" gradientUnits="userSpaceOnUse" x1="350.0249" y1="158.895" x2="349.97766" y2="177.11018">
			<stop offset="0" stop-color="#272F31"/>
			<stop offset="1" stop-color="#433C38"/>
		</linearGradient>
	</defs>
	<path fill="url(#gradient_1)" transform="scale(0.488281 0.488281)" d="M307.523 158.75C313.068 157.942 319.451 158.541 325.077 158.535L363.565 158.521L382.833 158.49C385.728 158.485 389.185 158.13 392 158.563C393.767 158.835 394.388 159.737 395.446 161C395.895 164.241 395.813 167.592 395.84 170.861C395.853 172.387 396.091 174.309 395.546 175.75C395.032 177.108 393.956 177.517 392.75 178.088C389.177 178.931 384.487 178.364 380.803 178.36L355.675 178.344L322.946 178.457C318.319 178.467 313.069 178.966 308.5 178.441C307.166 178.288 306.372 177.631 305.582 176.586C304.038 174.543 304.45 164.461 304.999 161.75C305.342 160.057 306.15 159.648 307.523 158.75Z"/>
	<path fill="#15191A" transform="scale(0.488281 0.488281)" d="M379.104 163.735L391.492 163.489L391.501 174.055L323.125 174.332L308.946 174.183L308.95 163.913L379.104 163.735Z"/>
	<path fill="#CE3617" transform="scale(0.488281 0.488281)" d="M479.315 155.469C484.851 161.047 488.886 167.52 489.871 175.475C490.61 181.448 490.287 187.794 490.315 193.811L490.36 226.771L490.432 326.389L490.474 658.81C490.433 669.671 489.428 678.88 481.293 687.001C477.223 691.065 471.778 693.679 466.1 694.525C458.269 695.691 449.616 695.043 441.674 695.064L394.433 695.102L240.646 695.075C237.988 695.043 235.519 694.88 232.939 694.176L232.257 693.997C225.415 692.133 219.904 686.987 216.536 680.883C214.669 677.499 213.494 673.797 213.143 669.945C212.633 664.348 212.963 658.489 212.953 652.853L212.918 621.434L212.862 582.848C212.854 576.488 212.485 569.949 212.852 563.62C217.611 557.733 221.719 550.996 225.798 544.611L241.153 521.001L312.177 412.677L424.222 240.842L458.272 188.384C465.357 177.522 473.079 166.842 479.315 155.469Z"/>
</svg>
