<?xml version="1.0" encoding="utf-8" ?>
<svg xmlns="http://www.w3.org/2000/svg" xmlns:xlink="http://www.w3.org/1999/xlink" width="500" height="500">
	<path fill="#07C3FB" transform="scale(0.488281 0.488281)" d="M-0 -0L1024 0L1024 1024L-0 1024L0 -0Z"/>
	<path fill="#FDFDFD" transform="scale(0.488281 0.488281)" d="M322.331 77.0401L327.773 70.6188C346.207 50.2943 379.183 41.2236 405.961 43.1393L417.545 44.1285L426.338 45.4246C427.08 45.5326 428.446 45.9383 429.105 45.8294C430.848 45.5415 433.665 43.2235 435.18 42.2563L445.705 36.1165C461.565 27.831 478.92 22.2204 496.76 20.3673C525.342 17.3983 552.48 23.2924 578.145 35.7562C581.351 37.3135 584.493 38.9994 587.5 40.9173C589.305 42.0687 592.712 45.0884 594.581 45.6195C595.313 45.8277 597.888 45.2088 598.736 45.1093C602.559 44.6604 606.402 44.2165 610.25 44.0616C638.739 42.9151 666.265 51.1547 687.51 70.5966C690.076 73.8834 692.893 77.0622 695.17 80.5536C704.039 94.1506 707.401 107.382 705.447 123.526C703.461 139.935 693.231 154.961 680.328 164.896L666.242 173.984L654.384 255.352L652.204 273.089L650.593 284.858C650.302 287.07 650.094 289.899 649.017 291.878C648.071 293.615 646.083 295.338 644.473 296.482C637.279 301.593 625.084 305.904 616.445 307.7L617.382 308.632C598.912 315.79 580.035 320.418 560.678 324.411C555.142 324.565 549.693 325.417 544.184 325.888L523.241 326.85C491.227 327.675 460.268 324.412 429.205 316.597C420.726 314.464 411.898 312.282 403.938 308.626C400.81 306.683 396.606 305.775 393.176 304.365C386.172 301.487 379.532 298.066 372.985 294.27C369.884 292.472 366.449 290.687 363.701 288.379C361.045 286.149 361.307 283.003 361.046 279.792C361.507 273.339 360.529 266.223 360.489 259.671L350.132 168.845L335.906 161.345C322.735 152.654 314.346 138.865 311.307 123.528C307.939 106.535 312.912 91.0433 322.331 77.0401Z"/>
	<path fill="#DBD8D8" transform="scale(0.488281 0.488281)" d="M447.351 71.1947C440.986 80.6775 437.168 90.684 434.792 101.839C428.371 131.995 433.697 166.359 447.232 193.892C450.884 201.322 455.54 208.121 460.02 215.059L449.94 206.015L435.097 189.098C420.781 170.539 412.128 147.41 415.288 123.792C418.045 103.184 431.009 83.5967 447.351 71.1947Z"/>
	<path fill="#ED4135" transform="scale(0.488281 0.488281)" d="M419.815 248.856C497.639 239.942 577.31 240.466 654.384 255.352L652.204 273.089L650.593 284.858C650.302 287.07 650.094 289.899 649.017 291.878C648.071 293.615 646.083 295.338 644.473 296.482C637.279 301.593 625.084 305.904 616.445 307.7L617.382 308.632C598.912 315.79 580.035 320.418 560.678 324.411C555.142 324.565 549.693 325.417 544.184 325.888L523.241 326.85C491.227 327.675 460.268 324.412 429.205 316.597C420.726 314.464 411.898 312.282 403.938 308.626C400.81 306.683 396.606 305.775 393.176 304.365C386.172 301.487 379.532 298.066 372.985 294.27C369.884 292.472 366.449 290.687 363.701 288.379C361.045 286.149 361.307 283.003 361.046 279.792C361.507 273.339 360.529 266.223 360.489 259.671C366.27 257.896 372.812 256.835 378.765 255.646L419.815 248.856Z"/>
	<path fill="#CA1612" transform="scale(0.488281 0.488281)" d="M360.489 259.671C366.27 257.896 372.812 256.835 378.765 255.646L419.815 248.856C420.817 266.474 430.743 283.177 443.768 294.751C470.05 318.103 510.126 321.713 543.715 319.494C562.408 318.26 580.778 315.004 599.157 311.571C602.134 311.015 614.53 307.087 616.445 307.7L617.382 308.632C598.912 315.79 580.035 320.418 560.678 324.411C555.142 324.565 549.693 325.417 544.184 325.888L523.241 326.85C491.227 327.675 460.268 324.412 429.205 316.597C420.726 314.464 411.898 312.282 403.938 308.626C400.81 306.683 396.606 305.775 393.176 304.365C386.172 301.487 379.532 298.066 372.985 294.27C369.884 292.472 366.449 290.687 363.701 288.379C361.045 286.149 361.307 283.003 361.046 279.792C361.507 273.339 360.529 266.223 360.489 259.671Z"/>
	<path fill="#FDFDFD" transform="scale(0.488281 0.488281)" d="M388.843 683.576L444.943 707.027L500.989 730.663L508.124 733.664C508.648 733.884 510.428 734.871 510.944 734.902C511.477 734.935 512.977 734.163 513.61 733.934L522.935 730.683L633.485 684.35C642.127 685.922 651.042 689.791 659.388 692.626L703.676 708.142L755.294 730.472L773.029 738.988C776.646 740.807 780.509 742.589 783.77 745.013C788.817 748.766 793.358 753.451 797.853 757.832C813.966 773.541 827.981 790.556 840.78 809.042C850.002 822.363 859.304 837.056 865.66 851.948C845.486 873.378 824.113 892.76 800.657 910.525C793.501 915.945 786.224 921.764 778.495 926.351L753.643 941.768C729.176 956.248 703.824 967.573 677 977.005C599.905 1004.11 516.93 1012.07 436.111 999.754L418.431 996.365C379.244 987.913 341.498 976.487 305.239 959.191C297.935 955.707 290.114 952.319 283.325 947.905L239.865 921.462L224.283 910.301C200.107 892.926 177.381 871.911 157.689 849.585C179.367 807.665 206.958 767.498 247.794 742.106C275.482 724.889 307.269 713.244 337.749 702.028L388.843 683.576Z"/>
	<path fill="#ED4135" transform="scale(0.488281 0.488281)" d="M572.829 861.555C575.531 861.468 577.675 861.718 580.165 862.828C583.076 864.126 585.656 866.963 586.775 869.934C587.904 872.928 587.575 876.145 586.144 878.978C584.126 882.974 580.862 884.74 576.795 886.086C574.208 886.351 571.591 886.023 569.25 884.853C566.167 883.312 563.634 880.575 562.603 877.25C561.654 874.189 562.067 871.007 563.564 868.208C565.718 864.176 568.647 862.846 572.829 861.555Z"/>
	<path fill="#ED4135" transform="scale(0.488281 0.488281)" d="M449.731 861.557C453.156 861.46 456.077 861.731 459.093 863.602C461.688 865.213 463.915 868.102 464.52 871.121L464.632 871.75C465.126 874.399 464.994 876.84 463.79 879.305C461.949 883.076 458.736 884.801 454.932 886.082C452.505 886.408 449.992 886.183 447.712 885.265C444.396 883.932 441.619 881.376 440.394 877.977C439.148 874.523 439.487 871.167 441.174 867.909C442.972 864.438 446.147 862.7 449.731 861.557Z"/>
	<path fill="#ED4135" transform="scale(0.488281 0.488281)" d="M450.326 771.593C452.805 771.608 455.274 771.885 457.555 772.93C460.517 774.286 463.119 776.835 464.247 779.928C465.391 783.063 465.227 786.795 463.743 789.781C461.763 793.767 458.252 795.563 454.248 796.934C451.309 797.005 448.876 796.869 446.224 795.397C443.074 793.649 440.679 790.249 439.839 786.769C439.021 783.378 439.74 779.963 441.623 777.058C443.731 773.805 446.696 772.423 450.326 771.593Z"/>
	<path fill="#ED4135" transform="scale(0.488281 0.488281)" d="M573.846 952.57C576.055 952.457 578.312 952.713 580.366 953.584C583.801 955.043 586.213 957.735 587.457 961.25C588.504 964.208 588.488 967.597 587.116 970.452C585.065 974.721 581.794 976.699 577.474 978.191C574.836 978.153 572.618 977.961 570.232 976.749C566.749 974.979 563.929 972.108 562.867 968.266C562.04 965.269 562.491 961.622 564.114 958.956C566.361 955.264 569.819 953.583 573.846 952.57Z"/>
	<path fill="#ED4135" transform="scale(0.488281 0.488281)" d="M571.19 770.584C573.639 770.442 575.778 770.65 578.121 771.421C581.645 772.58 584.38 775.066 586.01 778.382C587.453 781.318 587.619 783.934 586.532 787C584.898 791.607 581.482 793.834 577.275 795.813C574.677 796.22 571.935 796.346 569.471 795.289C566.029 793.811 563.056 790.567 561.732 787.069C560.522 783.873 560.885 780.244 562.409 777.225C564.288 773.503 567.441 771.919 571.19 770.584Z"/>
	<path fill="#ED4135" transform="scale(0.488281 0.488281)" d="M451.384 952.595C453.837 952.51 456.547 953.07 458.706 954.26C461.605 955.858 464.297 958.76 465.125 962.027C465.995 965.459 465.438 969.173 463.55 972.166C461.081 976.08 457.47 977.459 453.193 978.526C450.853 978.51 448.612 977.962 446.541 976.87C443.26 975.139 440.51 972.056 439.572 968.432C438.672 964.957 439.461 961.562 441.388 958.583C443.848 954.78 447.178 953.523 451.384 952.595Z"/>
	<path fill="#DBD8D8" transform="scale(0.488281 0.488281)" d="M500.989 730.663L508.124 733.664C508.648 733.884 510.428 734.871 510.944 734.902C511.477 734.935 512.977 734.163 513.61 733.934L522.935 730.683L523.817 731.179C526.503 732.6 531.055 732.92 534.045 733.594L549.817 737.75C575.68 745.567 601.619 754.05 626.012 765.742C613.2 763.162 600.379 758.402 587.768 754.846C567.173 749.039 545.83 744.083 524.75 740.455C519.607 739.57 513.966 738.233 508.754 738.272C507.009 738.285 505.501 738.807 503.865 739.332L423.705 759.293L415.124 760.672L401.991 762.919C422.107 752.304 443.832 744.991 465.928 739.75L489.406 734.252C493.284 733.237 497.331 732.312 500.989 730.663Z"/>
	<path fill="#DBD8D8" transform="scale(0.488281 0.488281)" d="M753.643 941.768C752.582 935.436 753.101 928.825 752.849 922.417C752.424 911.662 751.585 900.86 750.124 890.195C747.197 868.823 741.542 847.335 734.225 827.06C731.325 819.024 727.532 811.292 724.915 803.158L742.405 828.407C754.735 847.311 765.961 868.637 771.674 890.564C774.779 902.481 776.152 914.342 778.495 926.351L753.643 941.768Z"/>
	<path fill="#DBD8D8" transform="scale(0.488281 0.488281)" d="M415.124 760.672L423.705 759.293C419.718 788.513 418.472 818.078 418.515 847.553C418.572 886.701 421.072 925.759 427.665 964.388C429.617 975.821 431.195 989.205 436.111 999.754L418.431 996.365C415.631 988.419 414.388 979.023 412.971 970.717C404.548 921.336 403.655 869.381 407.492 819.5L411.523 784L414.258 768.543C414.708 766.221 415.986 762.92 415.124 760.672Z"/>
	<path fill="#FDFDFD" transform="scale(0.488281 0.488281)" d="M388.843 683.576L444.943 707.027L500.989 730.663C497.331 732.312 493.284 733.237 489.406 734.252L465.928 739.75C443.832 744.991 422.107 752.304 401.991 762.919L415.124 760.672C415.986 762.92 414.708 766.221 414.258 768.543L411.523 784L407.492 819.5C403.655 869.381 404.548 921.336 412.971 970.717C414.388 979.023 415.631 988.419 418.431 996.365C379.244 987.913 341.498 976.487 305.239 959.191C297.935 955.707 290.114 952.319 283.325 947.905L239.865 921.462L224.283 910.301C200.107 892.926 177.381 871.911 157.689 849.585C179.367 807.665 206.958 767.498 247.794 742.106C275.482 724.889 307.269 713.244 337.749 702.028L388.843 683.576Z"/>
	<path fill="#DBD8D8" transform="scale(0.488281 0.488281)" d="M388.843 683.576L444.943 707.027C436.383 712.477 427.08 716.541 418.117 721.25L390.138 737.274C357.632 757.276 327.987 783.653 305.475 814.5C293.455 830.97 283.099 849.362 278.638 869.422C275.453 883.744 275.895 898.589 277.439 913.081C278.681 924.741 280.455 936.525 283.325 947.905L239.865 921.462L224.283 910.301C200.107 892.926 177.381 871.911 157.689 849.585C179.367 807.665 206.958 767.498 247.794 742.106C275.482 724.889 307.269 713.244 337.749 702.028L388.843 683.576Z"/>
	<path fill="#FDFDFD" transform="scale(0.488281 0.488281)" d="M224.283 910.301L264.501 839.732L239.865 921.462L224.283 910.301Z"/>
	<path fill="#1168B7" transform="scale(0.488281 0.488281)" d="M157.689 849.585C148.117 839.966 139.519 828.501 131.359 817.633C96.5199 771.228 71.6656 720.93 54.336 665.685C44.1983 633.367 38.7442 599.349 36.299 565.652C29.7985 476.074 45.4121 382.767 87.353 302.793L105.168 270.664C138.348 216.454 182.202 168.688 232.896 130.446C248.11 118.969 263.844 108.034 280.377 98.5322L308.124 83.4901C312.693 81.1979 317.449 78.5548 322.331 77.0401C312.912 91.0433 307.939 106.535 311.307 123.528C314.346 138.865 322.735 152.654 335.906 161.345L350.132 168.845L360.489 259.671C360.529 266.223 361.507 273.339 361.046 279.792C338.662 302.688 332.262 340.476 332.613 371.337L335.887 411.632L338.246 431.571L341.156 448.325C342.151 462.422 343.774 476.657 346.575 490.515L350.675 507.762C351.215 510.35 351.786 512.673 352.783 515.128L355.34 522.106L355.61 522.661C358.888 529.48 361.347 536.56 364.84 543.317C380.144 572.924 402.163 597.488 430.178 615.536L430.099 622.083C430.05 624.592 430.466 628.317 429.418 630.582C427.356 631.082 426.442 631.166 424.975 632.785C422.212 635.831 419.88 639.649 417.481 643L401.09 666.385C397.363 671.739 392.801 676.961 389.4 682.454L388.843 683.576L337.749 702.028C307.269 713.244 275.482 724.889 247.794 742.106C206.958 767.498 179.367 807.665 157.689 849.585Z"/>
	<path fill="#EE9579" transform="scale(0.488281 0.488281)" d="M335.887 411.632L338.246 431.571L341.156 448.325C342.151 462.422 343.774 476.657 346.575 490.515L350.675 507.762C351.215 510.35 351.786 512.673 352.783 515.128L355.34 522.106C352.073 524.068 347.61 525.351 343.811 525.509C331.609 526.016 320.382 521.536 311.458 513.25C297.046 499.868 287.13 481.349 286.509 461.403C286.103 448.372 291.966 436.732 300.82 427.461C310.18 417.661 322.331 411.981 335.887 411.632Z"/>
	<path fill="#ED4135" transform="scale(0.488281 0.488281)" d="M338.246 431.571L341.156 448.325C342.151 462.422 343.774 476.657 346.575 490.515L350.675 507.762C347.694 507.703 344.699 507.716 341.749 507.232C339.407 506.847 337.158 506.479 334.908 505.682C323.62 501.684 316.423 493.69 311.352 483.119C307.855 475.832 305.781 465.704 307.28 457.701L307.419 457C308.311 452.206 310.056 447.759 313.134 443.922C319.897 435.492 327.838 432.682 338.246 431.571Z"/>
	<path fill="#1168B7" transform="scale(0.488281 0.488281)" d="M687.51 70.5966C714.656 80.3186 741.121 95.0301 765.198 110.801C841.897 161.041 905.208 231.933 944.505 314.997C990.288 411.77 1003.54 522.863 980.948 627.629C976.414 648.657 969.984 669.64 962.722 689.886C948.121 730.592 927.185 770.789 902.062 806.001C890.716 821.904 878.14 836.93 865.66 851.948C859.304 837.056 850.002 822.363 840.78 809.042C827.981 790.556 813.966 773.541 797.853 757.832C793.358 753.451 788.817 748.766 783.77 745.013C780.509 742.589 776.646 740.807 773.029 738.988L755.294 730.472L703.676 708.142L659.388 692.626C651.042 689.791 642.127 685.922 633.485 684.35L522.935 730.683L513.61 733.934C512.977 734.163 511.477 734.935 510.944 734.902C510.428 734.871 508.648 733.884 508.124 733.664L500.989 730.663L444.943 707.027L388.843 683.576L389.4 682.454C392.801 676.961 397.363 671.739 401.09 666.385L417.481 643C419.88 639.649 422.212 635.831 424.975 632.785C426.442 631.166 427.356 631.082 429.418 630.582C430.466 628.317 430.05 624.592 430.099 622.083L430.178 615.536C402.163 597.488 380.144 572.924 364.84 543.317C361.347 536.56 358.888 529.48 355.61 522.661L355.34 522.106L352.783 515.128C351.786 512.673 351.215 510.35 350.675 507.762L346.575 490.515C343.774 476.657 342.151 462.422 341.156 448.325L338.246 431.571L335.887 411.632L332.613 371.337C332.262 340.476 338.662 302.688 361.046 279.792C361.307 283.003 361.045 286.149 363.701 288.379C366.449 290.687 369.884 292.472 372.985 294.27C379.532 298.066 386.172 301.487 393.176 304.365C396.606 305.775 400.81 306.683 403.938 308.626C411.898 312.282 420.726 314.464 429.205 316.597C460.268 324.412 491.227 327.675 523.241 326.85L544.184 325.888C549.693 325.417 555.142 324.565 560.678 324.411C580.035 320.418 598.912 315.79 617.382 308.632L616.445 307.7C625.084 305.904 637.279 301.593 644.473 296.482C646.083 295.338 648.071 293.615 649.017 291.878C650.094 289.899 650.302 287.07 650.593 284.858L652.204 273.089L654.384 255.352L666.242 173.984L680.328 164.896C693.231 154.961 703.461 139.935 705.447 123.526C707.401 107.382 704.039 94.1506 695.17 80.5536C692.893 77.0622 690.076 73.8834 687.51 70.5966Z"/>
	<path fill="#EE9579" transform="scale(0.488281 0.488281)" d="M686.387 409.476C701.373 410.662 713.055 415.75 722.945 427.337C733.745 439.991 737.932 455.534 736.516 471.971C735.229 486.911 726.856 501.393 715.414 510.863C705.473 519.091 694.605 524.069 681.827 525.712C676.042 526.455 669.829 526.223 664.179 524.73L669.796 508.089C672.025 502.048 673.222 495.186 674.512 488.867C677.127 476.065 679.26 463.127 680.224 450.089L684.232 428.153L686.387 409.476Z"/>
	<path fill="#ED4135" transform="scale(0.488281 0.488281)" d="M684.232 428.153C685.571 429.641 689.723 429.882 691.833 430.612C705.419 435.31 713.814 447.864 715.525 461.75L715.652 462.735C716.835 472.357 713.634 483.393 707.573 490.977C699.821 500.677 688.606 506.531 676.283 507.75L669.796 508.089C672.025 502.048 673.222 495.186 674.512 488.867C677.127 476.065 679.26 463.127 680.224 450.089L684.232 428.153Z"/>
	<path fill="#F7BF81" transform="scale(0.488281 0.488281)" d="M616.445 307.7C625.084 305.904 637.279 301.593 644.473 296.482C646.083 295.338 648.071 293.615 649.017 291.878C650.094 289.899 650.302 287.07 650.593 284.858L652.204 273.089C652.575 275.863 656.773 279.641 658.519 282L666.496 293.699C672.822 303.86 678.058 315.004 681.461 326.5C684.271 335.995 685.721 346.176 686.712 356.003C688.523 373.978 688.438 391.534 686.387 409.476L684.232 428.153L680.224 450.089C679.26 463.127 677.127 476.065 674.512 488.867C673.222 495.186 672.025 502.048 669.796 508.089L664.179 524.73C654.333 547.478 643.17 567.259 626.869 586.032C624.119 589.199 620.802 593.646 617.465 596.106C611.788 601.713 605.594 607.081 599.25 611.927L590.67 618.017C589.24 618.998 587.42 619.952 586.326 621.311C587.734 626.687 588.512 632.204 589.004 637.735L595.341 630.821L616.609 660.962L628.269 676.618C630.034 679.057 632.199 681.639 633.485 684.35L522.935 730.683L513.61 733.934C512.977 734.163 511.477 734.935 510.944 734.902C510.428 734.871 508.648 733.884 508.124 733.664L500.989 730.663L444.943 707.027L388.843 683.576L389.4 682.454C392.801 676.961 397.363 671.739 401.09 666.385L417.481 643C419.88 639.649 422.212 635.831 424.975 632.785C426.442 631.166 427.356 631.082 429.418 630.582C430.466 628.317 430.05 624.592 430.099 622.083L430.178 615.536C402.163 597.488 380.144 572.924 364.84 543.317C361.347 536.56 358.888 529.48 355.61 522.661L355.34 522.106L352.783 515.128C351.786 512.673 351.215 510.35 350.675 507.762L346.575 490.515C343.774 476.657 342.151 462.422 341.156 448.325L338.246 431.571L335.887 411.632L332.613 371.337C332.262 340.476 338.662 302.688 361.046 279.792C361.307 283.003 361.045 286.149 363.701 288.379C366.449 290.687 369.884 292.472 372.985 294.27C379.532 298.066 386.172 301.487 393.176 304.365C396.606 305.775 400.81 306.683 403.938 308.626C411.898 312.282 420.726 314.464 429.205 316.597C460.268 324.412 491.227 327.675 523.241 326.85L544.184 325.888C549.693 325.417 555.142 324.565 560.678 324.411C580.035 320.418 598.912 315.79 617.382 308.632L616.445 307.7Z"/>
	<path fill="#F39A53" transform="scale(0.488281 0.488281)" d="M537.552 578.25L538.387 578.75C533.396 584.747 528.051 588.166 520.56 590.169L518.801 590.623C509.357 592.418 500.623 590.561 492.799 585.004C490.762 583.24 489.006 581.202 487.197 579.21C489.998 579.196 492.843 579.753 495.663 579.854C509.085 580.334 524.407 581.264 537.552 578.25Z"/>
	<path fill="#E38137" transform="scale(0.488281 0.488281)" d="M511.103 436.75L511.721 436.731C511.449 439.541 509.537 442.974 508.436 445.58C505.406 452.749 493.461 476.957 495.391 483.341C496.033 485.464 497.713 487.361 499.727 488.272C503.469 489.963 508.162 490.064 512.208 489.914C522.054 489.549 530.47 487.614 539.646 484.071C537.113 486.715 534.633 489.162 531.71 491.376C528.466 493.22 525.279 494.895 521.705 496.039C513.332 498.718 502.836 499.024 494.939 494.726C491.898 493.071 489.471 490.686 488.627 487.237C485.692 475.249 504.599 447 511.103 436.75Z"/>
	<path transform="scale(0.488281 0.488281)" d="M429.434 421.554C433.671 421.382 437.454 421.502 441.336 423.503C446.058 425.936 450.154 430.62 451.55 435.769C452.847 440.553 452.56 445.562 450.046 449.932C447.183 454.907 442.71 457.541 437.291 458.916C432.889 459.722 428.7 459.048 424.75 456.954C420.189 454.535 416.513 450.21 415.058 445.25C413.726 440.708 414.22 435.308 416.536 431.204C419.548 425.864 423.632 423.101 429.434 421.554Z"/>
	<path fill="#FDFDFD" transform="scale(0.488281 0.488281)" d="M425.513 429.565C426.984 429.564 428.813 429.668 430.129 430.367C431.688 431.196 433.064 432.686 433.5 434.427C434.002 436.435 433.669 439.048 432.459 440.75C431.224 442.486 429.77 443.183 427.75 443.628C426.751 443.658 425.695 443.71 424.709 443.52C423.006 443.191 421.444 441.929 420.502 440.506C419.418 438.87 419.12 436.638 419.687 434.75C420.526 431.959 423.065 430.665 425.513 429.565Z"/>
	<path transform="scale(0.488281 0.488281)" d="M588.528 421.62C593.003 421.471 596.87 421.994 600.78 424.422C605.282 427.218 608.592 431.84 609.768 437.014C610.951 442.222 610.399 446.853 607.476 451.394C604.388 456.192 599.614 458.835 594.128 459.896C590.121 460.085 586.031 459.409 582.484 457.455C577.47 454.693 573.776 449.863 572.395 444.317C571.304 439.94 571.904 434.481 574.336 430.663C577.685 425.406 582.615 422.897 588.528 421.62Z"/>
	<path fill="#FDFDFD" transform="scale(0.488281 0.488281)" d="M583.588 429.587C584.879 429.648 586.116 429.802 587.346 430.23C589.113 430.845 590.839 432.282 591.624 434C592.446 435.798 592.501 437.746 591.782 439.587C590.734 442.27 588.28 443.586 585.809 444.73C584.301 444.731 582.339 444.845 580.922 444.314C579.049 443.613 577.561 441.678 576.933 439.839C576.287 437.95 576.369 435.943 577.3 434.163C578.701 431.485 580.841 430.508 583.588 429.587Z"/>
	<path fill="#F39A53" transform="scale(0.488281 0.488281)" d="M420.965 469.094C425.808 468.84 430.216 469.186 434.496 471.799C439.613 474.922 442.843 479.913 444.239 485.723C445.414 490.617 444.18 497.059 441.521 501.25C438.153 506.557 432.975 509.871 426.881 511.197C423.74 511.618 419.65 511.46 416.647 510.416L416 510.178L413.25 509.107C408.683 506.919 405.047 503.151 403.38 498.353L403.197 497.81C401.899 494.209 402.148 490.093 403.073 486.422L403.316 485.5C403.976 482.902 404.925 480.499 406.404 478.25C409.814 473.064 415.014 470.277 420.965 469.094Z"/>
	<path fill="#F39A53" transform="scale(0.488281 0.488281)" d="M599.346 468.17C603.78 467.708 609.244 469.396 612.75 472.094C617.279 475.58 620.774 480.862 621.569 486.566L621.657 487.25C622.337 492.26 621.399 497.632 618.311 501.75C614.135 507.318 607.96 510.198 601.253 511.221C597.144 511.739 592.585 510.891 588.953 508.935C584.152 506.348 580.668 501.971 579.052 496.785L578.837 496.064L578.261 493.916C577.234 488.106 578.391 481.963 582 477.251C586.297 471.642 592.59 469.159 599.346 468.17Z"/>
	<path fill="#913A0F" transform="scale(0.488281 0.488281)" d="M559.65 373.235C584.708 374.182 611.091 378.244 635.237 385.069C635.017 389.982 635.206 399.47 632.25 403.337C631.311 404.094 630.436 404.702 629.178 404.72C625.863 404.769 622.245 403.893 618.958 403.414L598.688 400.403L557.637 396.124C557.16 393.824 557.955 390.596 558.196 388.25L559.65 373.235Z"/>
	<path fill="#913A0F" transform="scale(0.488281 0.488281)" d="M395.39 382.851C409.41 379.983 423.568 377.969 437.793 376.436C446.581 375.488 455.532 374.488 464.374 374.384C464.427 377.188 465.697 396.487 465.112 397.446L406.962 403.316C402.093 403.952 396.111 404.086 391.462 405.503C391.08 405.35 390.849 405.291 390.528 404.969C387.173 401.598 388.31 389.445 388.182 384.468L395.39 382.851Z"/>
	<path fill="#913A0F" transform="scale(0.488281 0.488281)" d="M616.445 307.7C625.084 305.904 637.279 301.593 644.473 296.482C646.083 295.338 648.071 293.615 649.017 291.878C650.094 289.899 650.302 287.07 650.593 284.858L652.204 273.089C652.575 275.863 656.773 279.641 658.519 282L666.496 293.699C672.822 303.86 678.058 315.004 681.461 326.5C684.271 335.995 685.721 346.176 686.712 356.003C688.523 373.978 688.438 391.534 686.387 409.476L684.232 428.153L680.224 450.089C679.192 450.397 678.004 450.855 676.919 450.782C675.27 450.671 674.462 449.628 674.125 448.087C673.098 443.393 673.702 437.123 673.491 432.207C673.145 424.175 671.98 415.847 670.327 407.986C668.068 397.242 665.235 386.418 661.302 376.156C651.826 351.43 636.574 328.244 618.886 308.613L617.382 308.632L616.445 307.7Z"/>
	<path fill="#913A0F" transform="scale(0.488281 0.488281)" d="M400.672 516.031C407.405 522.716 413.689 529.03 424 528.98C429.846 528.951 435.247 521.495 438.914 517.551C441.841 514.405 444.782 511.462 448.297 508.967C453.685 505.141 460.12 502.935 466.5 501.474L467.459 501.247C480.325 498.271 499.362 500.807 510.447 508.016L512.898 509.842C521.981 504.784 531.451 502.211 541.713 500.836C547.07 500.119 553.471 500.104 558.75 501.268C570.688 503.9 581.108 509.66 588.861 519.284C590.889 521.802 592.596 525.567 595.181 527.466C599.911 530.939 608.116 529.101 612.657 526.17C617.416 523.097 620.923 518.437 624.495 514.127C622.696 528.013 618.608 540.674 607.154 549.628C593.588 560.233 574.038 561.455 557.632 559.289C541.263 557.128 525.17 550.251 512.63 539.463C495.464 554.905 471.273 561.214 448.516 559.994C437.148 559.385 428.35 556.916 418.526 551.158L416 548.991C406.892 540.75 401.344 528.262 400.672 516.031Z"/>
	<path fill="#F39A53" transform="scale(0.488281 0.488281)" d="M361.046 279.792C361.307 283.003 361.045 286.149 363.701 288.379C366.449 290.687 369.884 292.472 372.985 294.27C379.532 298.066 386.172 301.487 393.176 304.365C396.606 305.775 400.81 306.683 403.938 308.626C411.898 312.282 420.726 314.464 429.205 316.597C460.268 324.412 491.227 327.675 523.241 326.85L544.184 325.888C549.693 325.417 555.142 324.565 560.678 324.411C554.456 327.165 545.868 327.818 539.082 328.809C501.658 334.277 464.018 333.897 426.915 326.201C420.813 324.935 414.837 323.511 408.87 321.685C408.571 321.594 406.806 320.969 406.701 321.016C406.49 321.11 406.528 321.443 406.446 321.658C405.563 323.998 405.316 326.818 404.714 329.274C402.694 337.523 393.416 377.709 395.39 382.851L388.182 384.468C388.31 389.445 387.173 401.598 390.528 404.969C390.849 405.291 391.08 405.35 391.462 405.503C390.092 409.537 390.494 415.42 390.302 419.763C389.166 445.576 389.733 470.988 394.697 496.438C395.628 501.216 396.715 505.974 398.312 510.576C398.943 512.394 400.186 514.229 400.672 516.031C401.344 528.262 406.892 540.75 416 548.991L418.526 551.158C418.913 555.115 421.082 559.115 422.851 562.632C430.216 577.273 440.844 590.324 453.467 600.754C477.699 620.777 507.338 631.206 538.822 628.194C556.722 626.481 574.633 621.371 590.517 612.885C597.223 609.302 603.544 604.483 609.592 599.898C611.119 598.741 613.654 595.901 615.25 595.245C615.677 595.069 616.171 595.311 616.632 595.345L617.465 596.106C611.788 601.713 605.594 607.081 599.25 611.927L590.67 618.017C589.24 618.998 587.42 619.952 586.326 621.311C587.734 626.687 588.512 632.204 589.004 637.735L595.341 630.821L616.609 660.962L628.269 676.618C630.034 679.057 632.199 681.639 633.485 684.35L522.935 730.683L513.61 733.934C512.977 734.163 511.477 734.935 510.944 734.902C510.428 734.871 508.648 733.884 508.124 733.664L500.989 730.663L444.943 707.027L388.843 683.576L389.4 682.454C392.801 676.961 397.363 671.739 401.09 666.385L417.481 643C419.88 639.649 422.212 635.831 424.975 632.785C426.442 631.166 427.356 631.082 429.418 630.582C430.466 628.317 430.05 624.592 430.099 622.083L430.178 615.536C402.163 597.488 380.144 572.924 364.84 543.317C361.347 536.56 358.888 529.48 355.61 522.661L355.34 522.106L352.783 515.128C351.786 512.673 351.215 510.35 350.675 507.762L346.575 490.515C343.774 476.657 342.151 462.422 341.156 448.325L338.246 431.571L335.887 411.632L332.613 371.337C332.262 340.476 338.662 302.688 361.046 279.792Z"/>
	<path fill="#E38137" transform="scale(0.488281 0.488281)" d="M430.178 615.536C463.82 636.776 506.067 645.439 545.193 636.548C552.543 634.878 559.801 632.985 566.866 630.326L581.705 624.261C578.776 629.238 573.559 633.485 569.068 637.083C563.926 641.203 558.79 645.293 553.128 648.69C541.725 655.53 528.704 660.27 515.851 663.594C509.352 665.275 502.65 666.465 496.006 667.406C491.768 668.007 487.141 668.713 482.875 668.346C477.171 664.955 472.442 660.237 467.55 655.799L447.123 636.909L434.625 623.524C433.463 622.397 432.852 621.653 431.25 621.293L430.099 622.083L430.178 615.536Z"/>
	<path fill="#913A0F" transform="scale(0.488281 0.488281)" d="M361.046 279.792C361.307 283.003 361.045 286.149 363.701 288.379C366.449 290.687 369.884 292.472 372.985 294.27C379.532 298.066 386.172 301.487 393.176 304.365C396.606 305.775 400.81 306.683 403.938 308.626C387.537 328.131 372.996 347.052 361.832 370.226C358.436 377.277 355.033 384.578 352.826 392.104C349.657 402.908 348.032 414.518 346.942 425.695L345.928 440.281C345.851 441.595 345.927 444.726 345.306 445.824C344.33 447.55 342.89 447.708 341.156 448.325L338.246 431.571L335.887 411.632L332.613 371.337C332.262 340.476 338.662 302.688 361.046 279.792Z"/>
	<defs>
		<linearGradient id="gradient_0" gradientUnits="userSpaceOnUse" x1="405.70969" y1="715.58368" x2="603.59271" y2="623.21423">
			<stop offset="0" stop-color="#D61310"/>
			<stop offset="1" stop-color="#F83936"/>
		</linearGradient>
	</defs>
	<path fill="url(#gradient_0)" transform="scale(0.488281 0.488281)" d="M429.418 630.582C430.712 633.824 433.784 636.844 435.991 639.556L447.854 654.141L509.408 726.278L589.004 637.735L595.341 630.821L616.609 660.962L628.269 676.618C630.034 679.057 632.199 681.639 633.485 684.35L522.935 730.683L513.61 733.934C512.977 734.163 511.477 734.935 510.944 734.902C510.428 734.871 508.648 733.884 508.124 733.664L500.989 730.663L444.943 707.027L388.843 683.576L389.4 682.454C392.801 676.961 397.363 671.739 401.09 666.385L417.481 643C419.88 639.649 422.212 635.831 424.975 632.785C426.442 631.166 427.356 631.082 429.418 630.582Z"/>
</svg>
