<?xml version="1.0" encoding="utf-8" ?>
<svg xmlns="http://www.w3.org/2000/svg" xmlns:xlink="http://www.w3.org/1999/xlink" width="500" height="500">
	<path fill="#6BC0C6" transform="scale(0.488281 0.488281)" d="M-0 -0L1024 0L1024 1024L-0 1024L0 -0Z"/>
	<path fill="#3A9939" transform="scale(0.488281 0.488281)" d="M33.0864 714.883L33.6027 714.975C37.495 715.701 41.2008 717.049 45.1133 717.761C60.1988 720.508 77.2954 721.367 92.5009 719.294L92.8644 742.552C80.5623 742.402 67.629 744.657 56 739.586C44.983 734.782 37.4519 725.932 33.0864 714.883Z"/>
	<path fill="#FDFDFC" transform="scale(0.488281 0.488281)" d="M901.688 375.66C903.567 375.705 905.55 375.825 907.379 376.274C915.185 378.192 918.848 383.006 922.711 389.583C926.444 389.423 929.79 389.672 932.803 392.107C934.919 393.817 935.942 396.121 936.083 398.801C936.218 401.372 935.908 403.641 934.016 405.531C930.611 408.931 907.917 407.438 902.25 407.415L874.25 407.352C872.237 407.071 870.307 405.865 869.109 404.227C867.775 402.405 867.596 400.021 867.957 397.848C868.455 394.852 870.059 392.067 872.648 390.413C875.72 388.45 879.999 389.277 883.352 389.871C884.438 387.852 885.346 385.675 886.745 383.844C890.577 378.827 895.518 376.521 901.688 375.66Z"/>
	<path fill="#FDFDFC" transform="scale(0.488281 0.488281)" d="M166.481 348.696C168.812 348.888 171.213 349.141 173.442 349.875C179.344 351.818 183.488 355.719 186.351 361.163L186.633 361.71C189.261 361.357 191.919 360.888 194.561 361.328L195.25 361.456C198.126 361.943 200.504 363.183 202.574 365.271C204.962 367.681 206.992 370.733 206.897 374.25C206.855 375.79 206.343 377.109 205.216 378.172C204.282 379.052 203.14 379.717 201.901 380.06C199.178 380.815 195.58 380.433 192.756 380.441L173.625 380.437L146.212 380.483C142.987 380.481 136.416 381.28 133.974 379.344C132.154 377.902 131.187 375.825 131.115 373.5C131.035 370.887 132.111 368.812 133.823 366.928C137.383 363.011 141.463 362.526 146.412 362.247C147.693 360.483 148.605 358.466 149.997 356.782C154.521 351.31 159.605 349.413 166.481 348.696Z"/>
	<path fill="#FDFDFC" transform="scale(0.488281 0.488281)" d="M756.076 465.118C756.805 460.195 756.431 454.724 756.462 449.751L756.226 416.432L756.027 328.876L768.901 328.971L768.936 421.488L768.787 438.133C767.685 439.517 768.286 446.394 768.287 448.467L768.357 485.944C764.282 485.989 760.007 486.304 755.96 485.862L756.076 465.118Z"/>
	<path fill="#995C46" transform="scale(0.488281 0.488281)" d="M930.03 674.876L931.75 675.354C932.435 678.068 932.021 681.538 932.018 684.341L931.968 702.925L931.903 710.797L931.724 725.814L931.549 740L931.413 858.512L930.214 856.662C927.191 852.591 923.697 851.544 918.962 850.817C919.426 844.106 919.312 838.733 917.868 832.103C918.223 828.592 917.963 824.893 917.956 821.352L917.919 802.137L917.924 739.983L917.89 723.194L917.85 706.868L917.823 701.624L917.888 675.119L929.37 674.935L930.03 674.876Z"/>
	<path fill="#16B384" transform="scale(0.488281 0.488281)" d="M681.346 485.856C684.03 481.6 685.572 476.513 688.189 472.109C699.52 453.044 717.644 437.491 738.172 429.098C743.992 426.718 750.135 425.151 756.214 423.59L756.076 465.118L755.96 485.862L755.553 486.137L723.076 486.165L695.957 486.095C691.148 486.131 686.117 486.475 681.346 485.856Z"/>
	<path fill="#0F8C57" transform="scale(0.488281 0.488281)" d="M253.975 421.367C277.899 424.003 299.546 433.118 315.006 452.309C323.337 462.651 328.125 473.277 331.347 486.058L305.03 485.866L289.116 485.644C285.284 485.639 281.336 485.438 277.531 485.906C275.755 485.16 272.679 485.56 270.724 485.561L253.996 485.599L253.975 421.367Z"/>
	<path fill="#0F8C57" transform="scale(0.488281 0.488281)" d="M941.073 623.568C948.905 626.95 955.518 635.24 958.636 643.045C959.719 645.756 960.584 648.55 961.16 651.412C961.558 653.386 961.319 658.368 962.622 659.677C971.976 662.571 978.165 668.382 982.703 677.012C988.286 687.63 989.188 702.385 985.75 713.775C982.863 723.339 976.378 731.351 967.494 735.942C956.584 741.579 943.452 740.035 931.549 740L931.724 725.814L931.903 710.797L931.968 702.925L932.018 684.341C932.021 681.538 932.435 678.068 931.75 675.354L930.03 674.876L930.127 673.829C935.075 668.672 939.431 662.657 941.95 655.938C946.253 644.463 946.097 634.688 941.073 623.568Z"/>
	<path fill="#32AB4D" transform="scale(0.488281 0.488281)" d="M957.946 707.075C957.18 708.958 952.807 711.061 951.018 712.52C947.407 715.466 944.228 718.964 940.545 721.813C939.091 722.938 937.453 724.003 935.754 724.702C934.468 725.231 933.08 725.524 931.724 725.814L931.903 710.797C937.991 711.086 953.117 710.402 957.946 707.075Z"/>
	<path fill="#16B384" transform="scale(0.488281 0.488281)" d="M941.073 623.568C948.905 626.95 955.518 635.24 958.636 643.045C959.719 645.756 960.584 648.55 961.16 651.412C961.558 653.386 961.319 658.368 962.622 659.677C966.516 668.161 970.622 679.763 967.68 689.113L967.45 689.86C965.882 694.748 962.633 699.01 959.375 702.909L957.946 707.075C953.117 710.402 937.991 711.086 931.903 710.797L931.968 702.925L932.018 684.341C932.021 681.538 932.435 678.068 931.75 675.354L930.03 674.876L930.127 673.829C935.075 668.672 939.431 662.657 941.95 655.938C946.253 644.463 946.097 634.688 941.073 623.568Z"/>
	<path fill="#3A9939" transform="scale(0.488281 0.488281)" d="M931.968 702.925L959.375 702.909L957.946 707.075C953.117 710.402 937.991 711.086 931.903 710.797L931.968 702.925Z"/>
	<path fill="#78CB5B" transform="scale(0.488281 0.488281)" d="M858.622 689.315L860.181 684.202C863.728 673.638 871.291 666.93 881.055 662.055C880.654 657.99 880.695 653.589 881.317 649.551L881.447 648.75C882.192 643.956 883.69 639.357 886.255 635.218C891.033 627.51 899.512 620.962 908.41 619.002L909.25 618.822C913.996 617.756 918.705 617.837 923.516 618.394C929.371 618.827 935.982 620.703 941.073 623.568C946.097 634.688 946.253 644.463 941.95 655.938C939.431 662.657 935.075 668.672 930.127 673.829L930.03 674.876L929.37 674.935L917.888 675.119L917.823 701.624L917.85 706.868L917.89 723.194C905.129 728.164 886.972 723.796 874.469 719.553C870.813 718.313 867.175 716.27 863.482 715.31L862.567 715.086C858.583 708.069 856.647 697.132 858.622 689.315Z"/>
	<path fill="#32AB4D" transform="scale(0.488281 0.488281)" d="M917.85 706.868C915.889 705.694 912.649 705.205 910.405 704.561C907.496 703.725 904.667 702.572 901.844 701.485L917.823 701.624L917.85 706.868Z"/>
	<path fill="#0B9BA7" transform="scale(0.488281 0.488281)" d="M344.968 486.196L344.456 397.879L344.433 380.856C344.432 378.961 344.037 375.931 344.762 374.222L425.432 334.361L485.36 304.406L502.474 295.796C505.708 294.148 509.479 291.649 513.045 291.099L512.898 316.001C510.457 316.053 508.395 317.491 506.266 318.576L496.752 323.263L442.75 350.496L365.388 389.194C364.604 390.972 365.046 394.425 365.042 396.417L365.027 414.487L364.981 486.124L360.069 486.318L344.968 486.196Z"/>
	<defs>
		<linearGradient id="gradient_0" gradientUnits="userSpaceOnUse" x1="806.53455" y1="289.19031" x2="719.94086" y2="279.53006">
			<stop offset="0" stop-color="#098793"/>
			<stop offset="1" stop-color="#0AA2B3"/>
		</linearGradient>
	</defs>
	<path fill="url(#gradient_0)" transform="scale(0.488281 0.488281)" d="M760.918 240.2L764.523 240.094C776.192 240.661 787.834 245.324 795.744 254.107C803.229 262.418 808.475 274.488 807.865 285.802C807.221 297.722 802.002 310.122 792.975 318.122C786.659 323.72 776.268 329.048 767.625 328.509C760.804 328.538 754.754 329.034 748.203 326.784C737.753 323.193 728.489 314.711 723.676 304.827L723.341 304.13C721.213 299.754 719.956 295.081 719.408 290.255C718.078 278.544 721.704 265.433 729.232 256.253C737.127 246.626 748.701 241.466 760.918 240.2Z"/>
	<path fill="#FDFDFC" transform="scale(0.488281 0.488281)" d="M759.837 249.172C763.639 248.793 767.922 249.208 771.613 250.206L772.5 250.457C776.608 251.599 780.573 253.427 783.982 256.009C791.787 261.918 796.726 270.581 798.014 280.25C799.259 289.592 796.704 298.908 790.91 306.361C784.429 314.698 776.507 318.586 766.131 319.806C757.443 320.677 749.015 318.791 742 313.448C734.066 307.405 729.295 298.891 727.924 289.039C726.658 279.938 729.372 270.206 734.984 262.945C741.195 254.911 749.878 250.524 759.837 249.172Z"/>
	<path fill="#CB2D29" transform="scale(0.488281 0.488281)" d="M763.35 275.641C763.992 273.857 764.603 272.383 765.997 271.049C767.918 269.21 770.362 268.368 773.012 268.453C775.294 268.527 777.609 269.697 779.079 271.449C780.37 272.989 781.157 274.548 781.543 276.5L781.686 277.192C782.446 281.195 781.145 284.215 778.903 287.474C774.907 293.282 768.997 300.426 763.629 305.012C763.012 302.504 763.414 299.118 763.418 296.498L763.35 275.641Z"/>
	<path fill="#EF6471" transform="scale(0.488281 0.488281)" d="M763.629 305.012L762.588 305.803C759.726 303.886 757.357 300.657 755.052 298.103C750.084 292.596 744.479 287.63 742.327 280.32C743.283 276.433 744.227 273.013 747.704 270.553C750.133 268.834 753.215 267.952 756.172 268.666C759.811 269.545 761.68 272.589 763.35 275.641L763.418 296.498C763.414 299.118 763.012 302.504 763.629 305.012Z"/>
	<path fill="#0C858C" transform="scale(0.488281 0.488281)" d="M513.045 291.099C517.493 292.565 521.927 295.574 526.153 297.728L554.314 311.872L670.307 370.681C671.685 371.369 679.801 374.982 680.024 375.879L680.031 486.081L666.913 486.058L657.52 486.123L657.472 389.9C654.053 388.628 650.653 386.586 647.399 384.918L628.628 375.179L583.957 352.443L545.367 332.771C534.807 327.581 523.204 322.65 513.35 316.298L512.898 316.001L513.045 291.099Z"/>
	<path fill="#78CB5B" transform="scale(0.488281 0.488281)" d="M33.0864 714.883L32.6577 713.863C28.7916 703.506 29.2205 690.067 33.7353 680.022C37.0991 672.538 42.5956 665.624 49.8657 661.597C52.8348 659.953 56.1617 658.845 59.3313 657.637C58.8273 653.487 58.5775 649.074 59.3119 644.94C61.1833 634.407 66.3334 625.711 74.7624 619.098C85.3484 610.794 98.3787 609.711 111.231 611.227L113.635 611.81C120.978 622.138 127.826 634.696 125.887 647.846C124.874 654.718 121.204 661.399 115.476 665.447C112.981 667.21 109.934 668.773 107.077 669.851L92.1979 669.956L92.5009 719.294C77.2954 721.367 60.1988 720.508 45.1133 717.761C41.2008 717.049 37.495 715.701 33.6027 714.975L33.0864 714.883Z"/>
	<path fill="#0F8C57" transform="scale(0.488281 0.488281)" d="M901.233 526.221C916.328 537.269 925.336 556.095 928.09 574.284C930.444 589.829 928.168 603.593 923.516 618.394C918.705 617.837 913.996 617.756 909.25 618.822L908.41 619.002C899.512 620.962 891.033 627.51 886.255 635.218C883.69 639.357 882.192 643.956 881.447 648.75L881.317 649.551C880.695 653.589 880.654 657.99 881.055 662.055C871.291 666.93 863.728 673.638 860.181 684.202L858.622 689.315C854.323 689.871 850.079 690.901 845.768 691.315C840.545 691.816 835.136 691.622 829.887 691.651L829.625 622.559L830.75 623.104C851.841 616.453 871.908 604.218 885.636 586.558C898.957 569.423 903.828 547.525 901.233 526.221Z"/>
	<path fill="#6BC0C6" transform="scale(0.488281 0.488281)" d="M829.887 691.651C835.136 691.622 840.545 691.816 845.768 691.315C850.079 690.901 854.323 689.871 858.622 689.315C856.647 697.132 858.583 708.069 862.567 715.086L863.482 715.31C867.175 716.27 870.813 718.313 874.469 719.553C886.972 723.796 905.129 728.164 917.89 723.194L917.924 739.983L917.919 802.137L917.956 821.352C917.963 824.893 918.223 828.592 917.868 832.103C915.793 828.785 913.789 825.773 910.86 823.148C906.085 818.869 898.955 815.212 892.427 815.719C887.829 816.076 885.732 817.864 882.787 821.138L881.988 827.264L836.353 827.031L835.934 820.712L830.387 820.148L829.887 691.651Z"/>
	<path fill="#32AB4D" transform="scale(0.488281 0.488281)" d="M862.567 715.086L863.482 715.31C867.175 716.27 870.813 718.313 874.469 719.553C886.972 723.796 905.129 728.164 917.89 723.194L917.924 739.983C908.32 739.533 898.447 740.814 889.167 737.608C877.981 733.744 867.781 725.817 862.567 715.086Z"/>
	<path fill="#FDFDFC" transform="scale(0.488281 0.488281)" d="M835.934 820.712C835.741 805.36 837.912 789.616 842.97 775.094C845.171 768.775 847.889 762.535 852.034 757.228C854.947 753.499 859.048 749.441 864 748.993C865.984 748.813 867.503 749.126 869.023 750.442C872.899 753.797 874.377 761.422 875.54 766.204C879.967 784.404 881.488 802.525 882.787 821.138L881.988 827.264L836.353 827.031L835.934 820.712Z"/>
	<path fill="#FDFDFC" transform="scale(0.488281 0.488281)" d="M602.786 116.661C612.78 115.781 622.599 117.043 631.45 122.014C644.204 129.176 651.556 140.645 655.476 154.425C658.005 153.302 660.551 152.052 663.283 151.528L664 151.401C667.015 150.824 670.196 150.756 673.255 151.06C680.299 151.76 687.749 156.166 692.117 161.656C696.614 167.311 699.551 174.828 698.688 182.13L698.574 183C697.943 187.979 695.773 192.41 692.25 196.009C689.641 198.674 686.146 200.869 682.47 201.665C676.811 202.891 669.111 201.807 663.238 201.781L616.875 201.7L560.837 201.704L545.405 201.686C542.03 201.681 538.437 201.875 535.109 201.288C529.899 200.37 524.725 196.858 521.801 192.474C518.441 187.434 517.502 181.314 518.914 175.453C520.811 167.582 525.197 161.28 532.099 156.961C542.107 150.7 551.436 150.155 562.677 152.836C564.18 146.795 566.049 141.877 569.695 136.785C577.814 125.445 589.099 118.91 602.786 116.661Z"/>
	<path fill="#FDFDFC" transform="scale(0.488281 0.488281)" d="M264.341 185.188C274.254 184.03 284.543 185.948 293.478 190.314C307.642 197.236 317.362 208.16 322.473 223.106C324.893 222.433 327.43 222.066 329.941 221.964C338.788 221.607 347.329 224.55 353.853 230.63C360.768 237.074 365.328 245.761 365.503 255.355C365.609 261.239 363.774 266.466 359.579 270.686C357.594 272.683 354.759 274.564 351.964 275.113C349.085 275.678 345.903 275.47 342.967 275.487L327.529 275.539L274.75 275.818L210.653 275.719L194.33 275.617C191.593 275.583 188.428 275.844 185.772 275.275C181.943 274.455 177.54 270.703 175.683 267.327C172.462 261.473 173.007 253.9 174.706 247.644C177.31 238.059 183.683 230.168 192.305 225.306C200.917 220.45 207.425 220.55 216.742 223.083C218.377 216.946 221.458 211.596 225.241 206.537C234.601 194.018 249.199 187.278 264.341 185.188Z"/>
	<path fill="#6BC0C6" transform="scale(0.488281 0.488281)" d="M113.635 611.81C123.603 612.383 133.42 618.912 139.993 626.199C145.225 631.997 146.586 639.422 150.423 645.888L150.553 646.201L151.031 662.116L156.838 665.662L156.521 666.276C161.814 673.47 164.509 681.496 166.529 690.116C170.28 691.829 174.028 692.712 178.021 693.619L177.985 757.416L160.503 757.405C158.599 757.409 155.012 756.949 153.42 757.927C150.954 761.667 152.087 777.769 152.085 782.982L163.378 782.865L163.308 788.987L163.027 800.312L163.037 875.498L75.7175 875.464L77.4922 871C79.6221 866.438 83.1887 863.383 87.88 861.686C89.3525 861.153 90.8851 861.04 92.333 860.475L93.1624 860.143L93.0143 859.299L92.8644 742.552L92.5009 719.294L92.1979 669.956L107.077 669.851C109.934 668.773 112.981 667.21 115.476 665.447C121.204 661.399 124.874 654.718 125.887 647.846C127.826 634.696 120.978 622.138 113.635 611.81Z"/>
	<path fill="#3A9939" transform="scale(0.488281 0.488281)" d="M156.521 666.276C161.814 673.47 164.509 681.496 166.529 690.116C166.73 704.929 165.369 719.368 154.441 730.619C147.661 737.599 139.933 740.886 130.407 742.196C122.819 743.24 114.312 742.494 106.62 742.355L106.943 716.572C110.632 714.58 115.129 713.637 119.032 712.044C132 706.75 144.241 696.82 150.359 684.002C152.043 680.474 153.334 676.833 154.432 673.084C155.006 671.122 155.056 668.806 156.059 667.04L156.521 666.276Z"/>
	<path fill="#995C46" transform="scale(0.488281 0.488281)" d="M92.5009 719.294L92.1979 669.956L107.077 669.851L106.943 716.572L106.62 742.355L106.747 859.634L104.741 864.189C101.244 862.135 98.4587 861.193 94.4282 860.487C93.5595 860.335 93.9207 860.434 93.1624 860.143L93.0143 859.299L92.8644 742.552L92.5009 719.294Z"/>
	<path fill="#32AB4D" transform="scale(0.488281 0.488281)" d="M113.635 611.81C123.603 612.383 133.42 618.912 139.993 626.199C145.225 631.997 146.586 639.422 150.423 645.888L150.553 646.201L151.031 662.116L156.838 665.662L156.521 666.276L156.059 667.04C155.056 668.806 155.006 671.122 154.432 673.084C153.334 676.833 152.043 680.474 150.359 684.002C144.241 696.82 132 706.75 119.032 712.044C115.129 713.637 110.632 714.58 106.943 716.572L107.077 669.851C109.934 668.773 112.981 667.21 115.476 665.447C121.204 661.399 124.874 654.718 125.887 647.846C127.826 634.696 120.978 622.138 113.635 611.81Z"/>
	<path fill="#0F8C57" transform="scale(0.488281 0.488281)" d="M106.747 859.634C110.361 855.711 113.165 853.458 118.058 851.265L115.311 845.333C111.939 836.803 112.317 828.28 115.998 819.925C120.049 810.732 127.873 803.118 137.298 799.557C145.985 796.276 154.618 796.447 163.027 800.312L163.037 875.498L75.7175 875.464L77.4922 871C79.6221 866.438 83.1887 863.383 87.88 861.686C89.3525 861.153 90.8851 861.04 92.333 860.475L93.1624 860.143C93.9207 860.434 93.5595 860.335 94.4282 860.487C98.4587 861.193 101.244 862.135 104.741 864.189L106.747 859.634Z"/>
	<path fill="#16B384" transform="scale(0.488281 0.488281)" d="M768.936 421.488C780.911 421.233 791.694 421.558 803.303 424.82C805.469 425.429 808.433 426.031 810.332 427.212C831.818 434.619 851.612 450.164 861.749 470.804C868.299 484.143 871.075 497.39 871.016 512.224C882.189 514.315 892.374 519.096 901.233 526.221C903.828 547.525 898.957 569.423 885.636 586.558C871.908 604.218 851.841 616.453 830.75 623.104L829.625 622.559L829.887 691.651L830.387 820.148L822.069 820.273C819.182 820.486 816.429 820.674 813.631 821.466L805.4 821.452C804.762 823.795 804.439 825.725 804.537 828.156L804.514 828.659C800.536 829.231 796.38 828.957 792.362 828.948L769.469 828.885L769.393 839.604L769.416 844.271L769.296 860.677C769.309 862.743 769.009 865.449 769.384 867.45C769.332 869.191 769.724 873.34 768.871 874.685C765.854 874.737 760.277 874.059 757.574 874.942L757.551 844.072L757.518 839.542L757.441 829.519L757.447 820.53L757.439 811.128L757.479 790.998L757.442 758.166C756.966 750.831 757.367 743.223 757.378 735.863L757.789 679.361L757.1 617.227C757.06 608.637 756.142 598.859 757.378 590.414L757.595 552.683L757.329 548.622L755.443 547.958L755.553 486.137L755.96 485.862C760.007 486.304 764.282 485.989 768.357 485.944L768.287 448.467C768.286 446.394 767.685 439.517 768.787 438.133L768.936 421.488Z"/>
	<path fill="#3D607C" transform="scale(0.488281 0.488281)" d="M755.96 485.862C760.007 486.304 764.282 485.989 768.357 485.944L768.287 448.467C768.286 446.394 767.685 439.517 768.787 438.133L768.792 471.628C768.798 475.795 767.952 482.463 769.253 486.236L805.15 486.028L805.08 548.425L769.956 548.096C766.176 548.082 762.242 547.853 758.487 548.25C757.571 549.466 757.701 551.215 757.595 552.683L757.329 548.622L755.443 547.958L755.553 486.137L755.96 485.862Z"/>
	<path fill="#E7E6E8" transform="scale(0.488281 0.488281)" d="M755.96 485.862C760.007 486.304 764.282 485.989 768.357 485.944L768.287 448.467C768.286 446.394 767.685 439.517 768.787 438.133L768.792 471.628C768.798 475.795 767.952 482.463 769.253 486.236C769.912 492.242 769.618 498.464 769.638 504.505L769.956 548.096C766.176 548.082 762.242 547.853 758.487 548.25C757.571 549.466 757.701 551.215 757.595 552.683L757.329 548.622L755.443 547.958L755.553 486.137L755.96 485.862Z"/>
	<path fill="#995C46" transform="scale(0.488281 0.488281)" d="M757.595 552.683C757.701 551.215 757.571 549.466 758.487 548.25C762.242 547.853 766.176 548.082 769.956 548.096C771.1 554.596 770.388 562.199 770.397 568.827L770.543 604.299C772.909 607.591 774.734 611.75 776.134 615.55L777.333 617.038C786.494 627.285 797.664 627.67 810.513 628.444L810.312 563.406L823.036 563.392L829.219 563.241L829.385 576.786L829.625 622.559L829.887 691.651L830.387 820.148L822.069 820.273C819.182 820.486 816.429 820.674 813.631 821.466L805.4 821.452C804.762 823.795 804.439 825.725 804.537 828.156L804.514 828.659C800.536 829.231 796.38 828.957 792.362 828.948L769.469 828.885L769.393 839.604L769.416 844.271L769.296 860.677C769.309 862.743 769.009 865.449 769.384 867.45C769.332 869.191 769.724 873.34 768.871 874.685C765.854 874.737 760.277 874.059 757.574 874.942L757.551 844.072L757.518 839.542L757.441 829.519L757.447 820.53L757.439 811.128L757.479 790.998L757.442 758.166C756.966 750.831 757.367 743.223 757.378 735.863L757.789 679.361L757.1 617.227C757.06 608.637 756.142 598.859 757.378 590.414L757.595 552.683Z"/>
	<path fill="#0F8C57" transform="scale(0.488281 0.488281)" d="M770.552 651.361L775.576 652.44C783.975 655.17 795.269 658.478 801.959 664.372C806.002 668.378 805.615 671.447 805.64 676.779L805.523 693.594L795.717 693.649C789.027 693.472 781.537 692.998 775.098 691.067C773.46 690.576 772.098 690.334 770.899 689.071L770.572 689.01L770.552 651.361Z"/>
	<path fill="#16B384" transform="scale(0.488281 0.488281)" d="M770.552 651.361L775.576 652.44C783.975 655.17 795.269 658.478 801.959 664.372L801.332 664.684C799.463 665.537 795.855 665.046 793.696 665.041L770.798 664.934L770.899 689.071L770.572 689.01L770.552 651.361Z"/>
	<defs>
		<linearGradient id="gradient_1" gradientUnits="userSpaceOnUse" x1="849.07343" y1="687.63684" x2="802.46924" y2="695.61261">
			<stop offset="0" stop-color="#853E37"/>
			<stop offset="1" stop-color="#665037"/>
		</linearGradient>
	</defs>
	<path fill="url(#gradient_1)" transform="scale(0.488281 0.488281)" d="M823.036 563.392L829.219 563.241L829.385 576.786L829.625 622.559L829.887 691.651L830.387 820.148L822.069 820.273L822.752 819.801C823.182 817.376 822.882 814.656 822.843 812.192L822.637 798.97L822.485 773.449L823.036 563.392Z"/>
	<path fill="#6BC0C6" transform="scale(0.488281 0.488281)" d="M770.572 689.01L770.899 689.071C772.098 690.334 773.46 690.576 775.098 691.067C781.537 692.998 789.027 693.472 795.717 693.649L805.523 693.594L805.473 754.411C800.78 753.098 795.895 753.489 791.058 753.481L770.307 753.501C771.342 747.253 770.61 739.89 770.609 733.552L770.572 689.01Z"/>
	<path fill="#E8BC4D" transform="scale(0.488281 0.488281)" d="M770.307 753.501L791.058 753.481C795.895 753.489 800.78 753.098 805.473 754.411C810.573 758.541 815.238 762.766 815.902 769.77C816.288 773.832 815.993 778.225 815.973 782.323C815.967 783.413 815.647 785.72 815.97 786.702C816.411 788.193 816.544 789.712 816.745 791.25L817.17 791.491C818.22 792.016 817.719 791.66 818.424 792.189L818.828 792.5C820.16 793.351 821.134 794.113 821.517 795.735L821.625 796.375C822.166 795.572 821.818 793.987 821.878 793L822 791.75C821.779 787.909 822.253 783.748 821.878 780C821.779 779.015 821.931 778.476 822 777.5C822.102 776.061 822.185 774.878 822.485 773.449L822.637 798.97L822.843 812.192C822.882 814.656 823.182 817.376 822.752 819.801L822.069 820.273C819.182 820.486 816.429 820.674 813.631 821.466L805.4 821.452C804.762 823.795 804.439 825.725 804.537 828.156L804.514 828.659C800.536 829.231 796.38 828.957 792.362 828.948L769.469 828.885L769.504 821.553L769.525 810.507L769.671 791.643C770.216 783.172 769.942 774.593 769.968 766.1C769.98 761.946 769.718 757.62 770.307 753.501Z"/>
	<path fill="#885444" transform="scale(0.488281 0.488281)" d="M822.485 773.449L822.637 798.97L822.843 812.192C822.882 814.656 823.182 817.376 822.752 819.801L822.069 820.273C819.182 820.486 816.429 820.674 813.631 821.466L805.4 821.452C804.762 823.795 804.439 825.725 804.537 828.156L804.514 828.659C800.536 829.231 796.38 828.957 792.362 828.948L769.469 828.885L769.504 821.553L769.525 810.507L815.865 809.959C817.556 809.016 819.061 808.038 819.959 806.25C821.459 803.267 821.508 798.318 820.5 795.25C819.085 793.523 817.587 792.723 815.611 791.734L815.97 786.702C816.411 788.193 816.544 789.712 816.745 791.25L817.17 791.491C818.22 792.016 817.719 791.66 818.424 792.189L818.828 792.5C820.16 793.351 821.134 794.113 821.517 795.735L821.625 796.375C822.166 795.572 821.818 793.987 821.878 793L822 791.75C821.779 787.909 822.253 783.748 821.878 780C821.779 779.015 821.931 778.476 822 777.5C822.102 776.061 822.185 774.878 822.485 773.449Z"/>
	<path fill="#BBC2C4" transform="scale(0.488281 0.488281)" d="M769.504 821.553L805.4 821.452C804.762 823.795 804.439 825.725 804.537 828.156L804.514 828.659C800.536 829.231 796.38 828.957 792.362 828.948L769.469 828.885L769.504 821.553Z"/>
	<path fill="#0C858C" transform="scale(0.488281 0.488281)" d="M770.307 753.501L791.058 753.481C795.895 753.489 800.78 753.098 805.473 754.411C810.573 758.541 815.238 762.766 815.902 769.77C816.288 773.832 815.993 778.225 815.973 782.323C815.967 783.413 815.647 785.72 815.97 786.702L815.611 791.734L769.671 791.643C770.216 783.172 769.942 774.593 769.968 766.1C769.98 761.946 769.718 757.62 770.307 753.501Z"/>
	<path fill="#FDFDFC" transform="scale(0.488281 0.488281)" d="M757.595 552.683C757.701 551.215 757.571 549.466 758.487 548.25C762.242 547.853 766.176 548.082 769.956 548.096C771.1 554.596 770.388 562.199 770.397 568.827L770.543 604.299C772.909 607.591 774.734 611.75 776.134 615.55C775.424 627.724 776.949 640.371 775.576 652.44L770.552 651.361L770.572 689.01L770.609 733.552C770.61 739.89 771.342 747.253 770.307 753.501C769.718 757.62 769.98 761.946 769.968 766.1C769.942 774.593 770.216 783.172 769.671 791.643L769.525 810.507L769.504 821.553L769.469 828.885L769.393 839.604L769.416 844.271L769.296 860.677C769.309 862.743 769.009 865.449 769.384 867.45C769.332 869.191 769.724 873.34 768.871 874.685C765.854 874.737 760.277 874.059 757.574 874.942L757.551 844.072L757.518 839.542L757.441 829.519L757.447 820.53L757.439 811.128L757.479 790.998L757.442 758.166C756.966 750.831 757.367 743.223 757.378 735.863L757.789 679.361L757.1 617.227C757.06 608.637 756.142 598.859 757.378 590.414L757.595 552.683Z"/>
	<path fill="#813B36" transform="scale(0.488281 0.488281)" d="M770.543 604.299C772.909 607.591 774.734 611.75 776.134 615.55C775.424 627.724 776.949 640.371 775.576 652.44L770.552 651.361L770.543 604.299Z"/>
	<path fill="#FDFDFC" transform="scale(0.488281 0.488281)" d="M364.981 486.124L365.027 414.487L365.042 396.417C365.046 394.425 364.604 390.972 365.388 389.194L442.75 350.496L496.752 323.263L506.266 318.576C508.395 317.491 510.457 316.053 512.898 316.001L513.35 316.298C523.204 322.65 534.807 327.581 545.367 332.771L583.957 352.443L628.628 375.179L647.399 384.918C650.653 386.586 654.053 388.628 657.472 389.9L657.52 486.123L639.044 486.388L610.937 486.4L583.234 486.409L554.804 486.354L527.445 486.337L498.884 486.284L471.069 486.38L442.364 486.399L415.025 486.368L389.459 486.28C381.58 485.446 372.945 486.137 364.981 486.124Z"/>
	<path fill="#942336" transform="scale(0.488281 0.488281)" d="M513.563 361.452C528.539 362.191 541.346 368.478 551.374 379.615C560.162 389.375 564.19 402.579 563.325 415.587L562.513 421.741C560.51 434.409 551.994 447.082 541.711 454.536C533.525 460.469 522.543 464.773 512.359 464.516C512.662 463.678 512.478 463.832 513.047 463.324L515.541 461.25C518.071 459.097 521.389 458.136 524.447 456.936C527.908 455.577 531.41 453.938 534.525 451.905C545.904 444.481 552.62 432.476 555.605 419.5C556.533 415.466 556.879 411.337 556.187 407.223C554.734 398.59 552.227 391.15 546.766 384.182C538.47 373.595 526.616 368.177 513.469 366.679L513.563 361.452Z"/>
	<path fill="#E33E40" transform="scale(0.488281 0.488281)" d="M500.141 463.288C494.06 461.325 488.372 459.089 483 455.563C471.874 448.261 463.728 435.317 461.127 422.325C458.632 409.857 461.453 394.342 468.693 383.75C476.199 372.767 488.374 364.793 501.513 362.485C505.57 361.773 509.441 361.543 513.563 361.452L513.469 366.679C526.616 368.177 538.47 373.595 546.766 384.182C552.227 391.15 554.734 398.59 556.187 407.223C556.879 411.337 556.533 415.466 555.605 419.5C552.62 432.476 545.904 444.481 534.525 451.905C531.41 453.938 527.908 455.577 524.447 456.936C521.389 458.136 518.071 459.097 515.541 461.25L513.047 463.324C512.478 463.832 512.662 463.678 512.359 464.516L511.784 464.584C507.689 464.644 504.135 464.182 500.141 463.288Z"/>
	<path fill="#EF6471" transform="scale(0.488281 0.488281)" d="M513.338 367.041L513.558 367.675C514.459 370.487 513.827 375.391 513.813 378.439C516.014 378.469 520.063 378.006 521.873 379.075L499.966 378.867L499.996 401.649L475.931 401.618L475.958 423.039L500.447 423.041L500.463 447.01L500.476 455.293L495.403 454.286C485.322 451.52 477.365 443.808 472.442 434.825C467.125 425.123 465.06 411.766 468.235 401.066C469.941 395.317 472.07 390.901 475.448 386L477.548 383.25C487.649 372.172 498.587 367.73 513.338 367.041Z"/>
	<path fill="#FDFDFC" transform="scale(0.488281 0.488281)" d="M500.463 447.01L500.447 423.041L475.958 423.039L475.931 401.618L499.996 401.649L499.966 378.867L521.873 379.075L522.069 401.812L548.052 401.871L548.008 423.148L521.857 423.193L521.917 439.381C521.922 441.726 522.294 444.795 521.473 446.986L500.463 447.01Z"/>
	<path fill="#16B384" transform="scale(0.488281 0.488281)" d="M111.231 611.227C107.588 603.756 105.234 596.381 104.396 588.068C102.562 569.881 108.335 551.12 119.996 537.019C131.132 523.55 147.05 515.519 164.332 513.902L163.985 505.936C163.854 484.148 172.545 462.781 187.929 447.324C206.415 428.751 228.193 421.416 253.975 421.367L253.996 485.599L270.724 485.561C272.679 485.56 275.755 485.16 277.531 485.906L277.238 548.521L249.919 548.566L249.935 581.935L249.839 590.302L249.707 627.778L249.848 644.166L249.93 685.145L249.768 704.634C254.329 705.369 259.392 704.901 264.013 704.864L291.105 704.559L293.606 704.559L296.706 704.508L305.385 704.321L308.264 703.941C311.205 703.868 313.75 703.858 316.629 704.578C320.14 705.826 322.267 707.398 323.818 710.914C324.617 712.725 324.715 714.705 324.851 716.653L324.878 726.119L324.983 734.192C326.32 734.081 328.185 734.139 329.442 733.763C331.597 734.975 333.09 736.124 333.7 738.635C334.192 740.658 334.002 742.942 334.01 745.023L333.976 757.512L326.016 757.517L325.934 782.424C323.512 782.848 320.701 782.583 318.233 782.58L304.287 782.558L253.024 782.531L252.971 757.322L249.415 757.244L203.294 757.305L177.985 757.416L178.021 693.619C174.028 692.712 170.28 691.829 166.529 690.116C164.509 681.496 161.814 673.47 156.521 666.276L156.838 665.662L151.031 662.116L150.553 646.201L150.423 645.888C146.586 639.422 145.225 631.997 139.993 626.199C133.42 618.912 123.603 612.383 113.635 611.81L111.231 611.227Z"/>
	<path fill="#0F8C57" transform="scale(0.488281 0.488281)" d="M228.951 554.279C233.875 559.377 238.322 565.863 242.388 571.686C244.497 574.708 246.637 578.791 249.457 581.155L249.935 581.935L249.839 590.302L249.707 627.778L228.999 638.439L228.657 638.497L228.951 554.279Z"/>
	<path fill="#3D607C" transform="scale(0.488281 0.488281)" d="M249.825 485.912C258.732 485.82 268.701 484.983 277.531 485.906L277.238 548.521L249.919 548.566L249.935 581.935L249.457 581.155C246.637 578.791 244.497 574.708 242.388 571.686C238.322 565.863 233.875 559.377 228.951 554.279L228.893 548.508L213.505 548.636L213.933 485.989L249.825 485.912Z"/>
	<path fill="#0C6E42" transform="scale(0.488281 0.488281)" d="M228.893 548.508L249.491 548.442L249.457 581.155C246.637 578.791 244.497 574.708 242.388 571.686C238.322 565.863 233.875 559.377 228.951 554.279L228.893 548.508Z"/>
	<path fill="#6C94AC" transform="scale(0.488281 0.488281)" d="M249.825 485.912C258.732 485.82 268.701 484.983 277.531 485.906L277.238 548.521L249.919 548.566L249.825 485.912Z"/>
	<path fill="#5A3127" transform="scale(0.488281 0.488281)" d="M194.036 599.497L201.663 599.472L201.755 652.391L228.657 638.497L228.999 638.439L249.707 627.778L249.848 644.166L249.93 685.145L249.768 704.634C254.329 705.369 259.392 704.901 264.013 704.864L291.105 704.559L293.606 704.559L296.706 704.508L305.385 704.321L308.264 703.941C311.205 703.868 313.75 703.858 316.629 704.578C320.14 705.826 322.267 707.398 323.818 710.914C324.617 712.725 324.715 714.705 324.851 716.653L324.878 726.119L324.983 734.192C326.32 734.081 328.185 734.139 329.442 733.763C331.597 734.975 333.09 736.124 333.7 738.635C334.192 740.658 334.002 742.942 334.01 745.023L333.976 757.512L326.016 757.517L325.934 782.424C323.512 782.848 320.701 782.583 318.233 782.58L304.287 782.558L253.024 782.531L252.971 757.322L249.415 757.244L203.294 757.305L177.985 757.416L178.021 693.619C174.028 692.712 170.28 691.829 166.529 690.116C164.509 681.496 161.814 673.47 156.521 666.276L156.838 665.662L151.031 662.116L150.553 646.201L177.214 659.281C177.677 658.4 177.487 656.909 177.497 655.895L177.558 646.698L177.535 599.582L194.036 599.497Z"/>
	<path fill="#813B36" transform="scale(0.488281 0.488281)" d="M249.707 627.778L249.848 644.166L249.591 644.06L249.25 641.544C246.946 641.986 244.793 643.691 242.75 644.813C238.556 647.117 233.763 649.825 229.305 651.473C228.775 647.274 229.066 642.687 228.999 638.439L249.707 627.778Z"/>
	<path fill="#885444" transform="scale(0.488281 0.488281)" d="M228.657 638.497L228.999 638.439C229.066 642.687 228.775 647.274 229.305 651.473L202.456 665.777C200.867 663.952 201.721 655.123 201.755 652.391L228.657 638.497Z"/>
	<path fill="#0F8C57" transform="scale(0.488281 0.488281)" d="M249.591 644.06L249.848 644.166L249.93 685.145C234.895 692.38 219.119 695.558 202.523 695.488L202.488 668.753L249.591 644.06Z"/>
	<path fill="#6BC0C6" transform="scale(0.488281 0.488281)" d="M202.523 695.488C219.119 695.558 234.895 692.38 249.93 685.145L249.768 704.634L248.693 704.534C245.269 703.645 242.026 703.65 238.932 705.533C236.59 706.958 234.561 709.406 234.028 712.159L233.959 712.798C232.919 719.945 234.289 727.388 233.383 734.502C231.525 735.308 230.665 737 229.583 738.623L229.36 757.197L244.95 757.203C245.983 757.204 248.529 756.904 249.415 757.244L203.294 757.305L202.919 756.348L202.523 695.488Z"/>
	<path fill="#995C46" transform="scale(0.488281 0.488281)" d="M150.553 646.201L177.214 659.281C177.677 658.4 177.487 656.909 177.497 655.895L177.558 646.698L177.535 599.582L194.036 599.497L193.045 756.973C195.193 756.968 201.533 757.57 202.919 756.348L203.294 757.305L177.985 757.416L178.021 693.619C174.028 692.712 170.28 691.829 166.529 690.116C164.509 681.496 161.814 673.47 156.521 666.276L156.838 665.662L151.031 662.116L150.553 646.201Z"/>
	<path fill="#0F8C57" transform="scale(0.488281 0.488281)" d="M156.838 665.662C161.557 667.5 166.058 670.325 170.453 672.84C172.955 674.272 176.201 675.841 178.232 677.904L178.021 693.619C174.028 692.712 170.28 691.829 166.529 690.116C164.509 681.496 161.814 673.47 156.521 666.276L156.838 665.662Z"/>
	<defs>
		<linearGradient id="gradient_2" gradientUnits="userSpaceOnUse" x1="249.73335" y1="723.04181" x2="286.60941" y2="772.08411">
			<stop offset="0" stop-color="#0E859A"/>
			<stop offset="1" stop-color="#2678A0"/>
		</linearGradient>
	</defs>
	<path fill="url(#gradient_2)" transform="scale(0.488281 0.488281)" d="M308.264 703.941C311.205 703.868 313.75 703.858 316.629 704.578C320.14 705.826 322.267 707.398 323.818 710.914C324.617 712.725 324.715 714.705 324.851 716.653L324.878 726.119L324.983 734.192C326.32 734.081 328.185 734.139 329.442 733.763C331.597 734.975 333.09 736.124 333.7 738.635C334.192 740.658 334.002 742.942 334.01 745.023L333.976 757.512L326.016 757.517L325.934 782.424C323.512 782.848 320.701 782.583 318.233 782.58L304.287 782.558L253.024 782.531L252.971 757.322L249.415 757.244C248.529 756.904 245.983 757.204 244.95 757.203L229.36 757.197L229.583 738.623C230.665 737 231.525 735.308 233.383 734.502C234.289 727.388 232.919 719.945 233.959 712.798L234.028 712.159C234.561 709.406 236.59 706.958 238.932 705.533C242.026 703.65 245.269 703.645 248.693 704.534L249.768 704.634C254.329 705.369 259.392 704.901 264.013 704.864L291.105 704.559L293.606 704.559L296.706 704.508L305.385 704.321L308.264 703.941Z"/>
	<path fill="#4F758F" transform="scale(0.488281 0.488281)" d="M307.861 739.878C310.14 740.166 313.642 740.131 315.516 741.399L313.069 743.75C313.062 745.57 313.02 745.931 313.98 747.564L313.499 747.968C311.772 747.185 310.345 747.576 308.5 747.745L307.975 747.25C308.791 746.779 309.402 746.431 310.344 746.253C311.398 746.053 310.73 746.4 311.745 745.5L311.25 744.757L309.25 744.769C308.581 743.223 308.259 741.513 307.861 739.878Z"/>
	<path fill="#FDFDFC" transform="scale(0.488281 0.488281)" d="M251.599 748.76C249.363 748.937 247.447 749.073 245.25 748.478C244.062 746.779 244.581 744.066 244.59 741.991L251.948 741.921C251.988 744.188 252.222 746.562 251.599 748.76Z"/>
	<path fill="#942336" transform="scale(0.488281 0.488281)" d="M233.959 712.798L234.028 712.159C234.561 709.406 236.59 706.958 238.932 705.533C242.026 703.65 245.269 703.645 248.693 704.534L248.593 705.534C244.599 705.474 241.865 705.391 238.715 708.25C237.167 709.655 236.534 711.063 236.03 713.055L236.188 713.781C236.603 715.852 236.368 718.308 236.369 720.438L236.352 733.495L248.833 733.544L284.986 733.594L293.649 733.994C293.774 735.351 294.212 736.92 293.636 738.159C277.644 736.747 261.136 737.766 245.039 737.229C242.254 737.137 236.086 737.642 233.75 736.463L233.383 734.502C234.289 727.388 232.919 719.945 233.959 712.798Z"/>
	<path fill="#813B36" transform="scale(0.488281 0.488281)" d="M233.959 712.798L234.028 712.159C234.561 709.406 236.59 706.958 238.932 705.533C242.026 703.65 245.269 703.645 248.693 704.534L248.593 705.534C244.599 705.474 241.865 705.391 238.715 708.25C237.167 709.655 236.534 711.063 236.03 713.055L235.995 713.529L235.932 734L235.25 734.745L234.171 734.25L233.959 712.798Z"/>
	<path fill="#FDFDFC" transform="scale(0.488281 0.488281)" d="M236.03 713.055C236.534 711.063 237.167 709.655 238.715 708.25C241.865 705.391 244.599 705.474 248.593 705.534C249.569 714.485 249.147 724.521 248.833 733.544L236.352 733.495L236.369 720.438C236.368 718.308 236.603 715.852 236.188 713.781L236.03 713.055Z"/>
	<path fill="#59CAD4" transform="scale(0.488281 0.488281)" d="M251.948 741.921L304.042 741.867C306.374 744.183 306.9 745.685 307.431 748.878L269.833 748.834C264.011 748.853 257.339 749.492 251.599 748.76C252.222 746.562 251.988 744.188 251.948 741.921Z"/>
	<path fill="#3D607C" transform="scale(0.488281 0.488281)" d="M329.442 733.763C331.597 734.975 333.09 736.124 333.7 738.635C334.192 740.658 334.002 742.942 334.01 745.023L333.976 757.512L326.016 757.517L309.951 757.505C310.291 756.923 310.531 756.43 310.73 755.779L311.506 753.25L311 752.457L308.75 752.156L308.34 750.531C308.274 748.897 311.231 749.917 312.25 749.368C312.8 749.071 313.083 748.435 313.499 747.968L313.98 747.564C313.02 745.931 313.062 745.57 313.069 743.75L315.516 741.399C313.642 740.131 310.14 740.166 307.861 739.878C303.33 738.624 298.304 738.713 293.636 738.159C294.212 736.92 293.774 735.351 293.649 733.994L311.416 734.097L324.983 734.192C326.32 734.081 328.185 734.139 329.442 733.763Z"/>
	<path fill="#59CAD4" transform="scale(0.488281 0.488281)" d="M315.516 741.399C317.47 741.446 319.834 741.224 321.349 742.652C322.292 743.541 322.948 744.931 322.937 746.25C322.927 747.557 322.311 748.052 321.5 748.94C319.737 749.639 317.935 749.57 316.126 748.959C315.288 748.676 314.651 748.112 313.98 747.564C313.02 745.931 313.062 745.57 313.069 743.75L315.516 741.399Z"/>
	<path fill="#E67F42" transform="scale(0.488281 0.488281)" d="M308.264 703.941C311.205 703.868 313.75 703.858 316.629 704.578C320.14 705.826 322.267 707.398 323.818 710.914C324.617 712.725 324.715 714.705 324.851 716.653L324.878 726.119L324.983 734.192L311.416 734.097L293.649 733.994L284.986 733.594C287.666 733.184 290.742 733.425 293.471 733.411L293.606 704.559L296.706 704.508L305.385 704.321L308.264 703.941Z"/>
	<path fill="#9F7232" transform="scale(0.488281 0.488281)" d="M316.629 704.578C320.14 705.826 322.267 707.398 323.818 710.914C324.617 712.725 324.715 714.705 324.851 716.653L324.878 726.119L324.983 734.192L311.416 734.097C313.176 734.042 315.247 734.26 316.838 733.488L316.956 716.044C316.969 712.274 317.245 708.298 316.629 704.578Z"/>
	<path fill="#EEA13F" transform="scale(0.488281 0.488281)" d="M291.105 704.559L293.606 704.559L293.471 733.411C290.742 733.425 287.666 733.184 284.986 733.594L248.833 733.544C249.147 724.521 249.569 714.485 248.593 705.534L248.693 704.534L249.768 704.634C254.329 705.369 259.392 704.901 264.013 704.864L291.105 704.559Z"/>
	<path fill="#E33E40" transform="scale(0.488281 0.488281)" d="M252.971 757.322L309.951 757.505L326.016 757.517L325.934 782.424C323.512 782.848 320.701 782.583 318.233 782.58L304.287 782.558L253.024 782.531L252.971 757.322Z"/>
	<path fill="#BBC2C4" transform="scale(0.488281 0.488281)" d="M331.347 486.058L332.073 485.934L344.968 486.196L360.069 486.318L364.981 486.124C372.945 486.137 381.58 485.446 389.459 486.28L415.025 486.368L442.364 486.399L471.069 486.38L498.884 486.284L527.445 486.337L554.804 486.354L583.234 486.409L610.937 486.4L639.044 486.388L657.52 486.123L666.913 486.058L680.031 486.081L681.346 485.856C686.117 486.475 691.148 486.131 695.957 486.095L723.076 486.165L755.553 486.137L755.443 547.958L757.329 548.622L757.595 552.683L757.378 590.414L249.839 590.302L249.935 581.935L249.919 548.566L277.238 548.521L277.531 485.906C281.336 485.438 285.284 485.639 289.116 485.644L305.03 485.866L331.347 486.058Z"/>
	<path fill="#6C94AC" transform="scale(0.488281 0.488281)" d="M364.981 486.124C372.945 486.137 381.58 485.446 389.459 486.28L415.025 486.368L442.364 486.399L442.507 548.493L414.887 548.48L412.561 548.413L360.082 548.475L360.069 486.318L364.981 486.124Z"/>
	<path fill="#4F758F" transform="scale(0.488281 0.488281)" d="M389.459 486.28L415.025 486.368L414.972 528.545C414.982 534.972 415.629 542.128 414.887 548.48L412.561 548.413C404.503 547.303 395.319 548.164 387.142 548.237L387.502 486.75L389.459 486.28Z"/>
	<path fill="#6C94AC" transform="scale(0.488281 0.488281)" d="M415.025 486.368L442.364 486.399L442.507 548.493L414.887 548.48C415.629 542.128 414.982 534.972 414.972 528.545L415.025 486.368Z"/>
	<path fill="#4F758F" transform="scale(0.488281 0.488281)" d="M331.347 486.058L332.073 485.934L344.968 486.196L360.069 486.318L360.082 548.475L332.048 548.497L305.492 548.527L277.238 548.521L277.531 485.906C281.336 485.438 285.284 485.639 289.116 485.644L305.03 485.866L331.347 486.058Z"/>
	<path fill="#6C94AC" transform="scale(0.488281 0.488281)" d="M331.347 486.058L332.073 485.934L332.048 548.497L305.492 548.527L305.03 485.866L331.347 486.058Z"/>
	<path fill="#4F758F" transform="scale(0.488281 0.488281)" d="M344.968 486.196L360.069 486.318L360.082 548.475L332.048 548.497L332.073 485.934L344.968 486.196Z"/>
	<path fill="#4F758F" transform="scale(0.488281 0.488281)" d="M680.031 486.081L681.346 485.856C686.117 486.475 691.148 486.131 695.957 486.095L723.076 486.165L755.553 486.137L755.443 547.958C752.539 549.561 707.431 548.377 700.978 548.38C690.043 548.387 678.666 549.271 667.793 548.408L667.257 548.45C666.559 546.824 666.854 544.53 666.857 542.763L666.873 530.899L666.913 486.058L680.031 486.081Z"/>
	<path fill="#6C94AC" transform="scale(0.488281 0.488281)" d="M695.957 486.095L723.076 486.165L723.004 548.052L744.773 548.089C748.158 548.096 752.156 548.556 755.443 547.958C752.539 549.561 707.431 548.377 700.978 548.38C690.043 548.387 678.666 549.271 667.793 548.408C670.505 547.736 674.242 548.052 677.08 548.058L695.939 548.2L695.957 486.095Z"/>
	<path fill="#4F758F" transform="scale(0.488281 0.488281)" d="M680.031 486.081L681.346 485.856C686.117 486.475 691.148 486.131 695.957 486.095L695.939 548.2L677.08 548.058C674.242 548.052 670.505 547.736 667.793 548.408L667.257 548.45C666.559 546.824 666.854 544.53 666.857 542.763L666.873 530.899L666.913 486.058L680.031 486.081Z"/>
	<path fill="#6C94AC" transform="scale(0.488281 0.488281)" d="M657.52 486.123L666.913 486.058L666.873 530.899L666.857 542.763C666.854 544.53 666.559 546.824 667.257 548.45L471.019 548.52L442.507 548.493L442.364 486.399L471.069 486.38L498.884 486.284L527.445 486.337L554.804 486.354L583.234 486.409L610.937 486.4L639.044 486.388L657.52 486.123Z"/>
	<path fill="#4F758F" transform="scale(0.488281 0.488281)" d="M610.937 486.4L639.044 486.388L639.022 548.041L610.973 548.002L610.937 486.4Z"/>
	<path fill="#4F758F" transform="scale(0.488281 0.488281)" d="M554.804 486.354L583.234 486.409L583.112 548.129L554.515 548.247L554.804 486.354Z"/>
	<path fill="#4F758F" transform="scale(0.488281 0.488281)" d="M498.884 486.284L527.445 486.337L527.37 548.217L498.929 548.253L498.884 486.284Z"/>
	<path fill="#4F758F" transform="scale(0.488281 0.488281)" d="M442.364 486.399L471.069 486.38L471.019 548.52L442.507 548.493L442.364 486.399Z"/>
	<path fill="#E7E6E8" transform="scale(0.488281 0.488281)" d="M757.378 590.414C756.142 598.859 757.06 608.637 757.1 617.227L757.789 679.361L757.378 735.863C757.367 743.223 756.966 750.831 757.442 758.166L590.484 758.73L590.297 827.699L485.624 827.521L453.507 827.576C448.056 827.594 442.221 827.18 436.843 827.92L430.677 828L430.51 757.412L357.531 757.413L333.976 757.512L334.01 745.023C334.002 742.942 334.192 740.658 333.7 738.635C333.09 736.124 331.597 734.975 329.442 733.763C328.185 734.139 326.32 734.081 324.983 734.192L324.878 726.119L324.851 716.653C324.715 714.705 324.617 712.725 323.818 710.914C322.267 707.398 320.14 705.826 316.629 704.578C313.75 703.858 311.205 703.868 308.264 703.941L305.385 704.321L296.706 704.508L293.606 704.559L291.105 704.559L264.013 704.864C259.392 704.901 254.329 705.369 249.768 704.634L249.93 685.145L249.848 644.166L249.707 627.778L249.839 590.302L757.378 590.414Z"/>
	<path fill="#A6A5A9" transform="scale(0.488281 0.488281)" d="M291.105 704.559L290.98 616.095L390.54 615.976L390.704 733.042L350.255 733.085L337.391 733.068C334.782 733.064 331.897 732.762 329.442 733.763C328.185 734.139 326.32 734.081 324.983 734.192L324.878 726.119L383.975 725.984L383.841 622.564L296.488 622.488L296.706 704.508L293.606 704.559L291.105 704.559Z"/>
	<path fill="#BBC2C4" transform="scale(0.488281 0.488281)" d="M296.706 704.508L296.488 622.488L383.841 622.564L383.975 725.984L324.878 726.119L324.851 716.653C324.715 714.705 324.617 712.725 323.818 710.914C322.267 707.398 320.14 705.826 316.629 704.578C313.75 703.858 311.205 703.868 308.264 703.941L305.385 704.321L296.706 704.508Z"/>
	<defs>
		<linearGradient id="gradient_3" gradientUnits="userSpaceOnUse" x1="325.01965" y1="626.82428" x2="346.07599" y2="689.96985">
			<stop offset="0" stop-color="#1AA6BE"/>
			<stop offset="1" stop-color="#2EC2CA"/>
		</linearGradient>
	</defs>
	<path fill="url(#gradient_3)" transform="scale(0.488281 0.488281)" d="M369.233 632.493C370.909 632.083 371.596 632.102 373.25 632.595C373.604 633.831 373.684 634.922 373.762 636.197L370.391 638.588L365.366 643.1L329.226 679.623L315.054 693.768C313.3 695.527 310.185 698.083 309.08 700.25C308.772 700.855 308.717 702.276 308.589 702.995L308.264 703.941L305.385 704.321L304.566 703.883C303.977 701.731 304.275 698.948 304.263 696.703L304.22 682.863L304.034 632.758C307.558 631.594 314.211 632.488 318.037 632.487L357.104 632.495L369.233 632.493Z"/>
	<path fill="#6BC0C6" transform="scale(0.488281 0.488281)" d="M357.104 632.495L369.233 632.493L363.051 638.636L363.017 638.634L352.165 638.743L357.104 632.495Z"/>
	<path fill="#E7E6E8" transform="scale(0.488281 0.488281)" d="M352.165 638.743L363.017 638.634C352.684 650.77 340.914 661.797 329.644 673.062C323.413 679.291 316.813 687.318 309.476 692.177L309.341 680.633C313.625 678.344 317.89 673.071 321.441 669.588L351.782 638.882L352.165 638.743Z"/>
	<path fill="#59CAD4" transform="scale(0.488281 0.488281)" d="M309.341 680.633C308.766 675.629 309.025 670.399 309.001 665.357L308.899 638.868L351.782 638.882L321.441 669.588C317.89 673.071 313.625 678.344 309.341 680.633Z"/>
	<path fill="#59CAD4" transform="scale(0.488281 0.488281)" d="M373.762 636.197C375.009 646.678 374.878 657.435 374.948 667.983L375.3 716.61L324.851 716.653C324.715 714.705 324.617 712.725 323.818 710.914C322.267 707.398 320.14 705.826 316.629 704.578C313.75 703.858 311.205 703.868 308.264 703.941L308.589 702.995C308.717 702.276 308.772 700.855 309.08 700.25C310.185 698.083 313.3 695.527 315.054 693.768L329.226 679.623L365.366 643.1L370.391 638.588L373.762 636.197Z"/>
	<path fill="#E7E6E8" transform="scale(0.488281 0.488281)" d="M370.391 638.588C371.377 641.107 370.882 645.417 370.885 648.166L370.425 648.904L334.109 685.537L322.193 697.633C320.647 699.199 318.558 701.867 316.621 702.884C315.614 703.413 311.804 703.529 310.548 703.525C309.624 703.523 309.402 703.487 308.589 702.995C308.717 702.276 308.772 700.855 309.08 700.25C310.185 698.083 313.3 695.527 315.054 693.768L329.226 679.623L365.366 643.1L370.391 638.588Z"/>
	<path fill="#A6A5A9" transform="scale(0.488281 0.488281)" d="M635.341 616.004L742.712 615.984L742.894 698.608L742.972 720.239C742.982 724.001 743.362 728.217 742.75 731.914L739.987 733.242C737.609 734.229 735.123 735.12 732.565 735.492C723.656 736.79 713.587 736.16 704.53 736.303L635.104 735.944L635.341 616.004Z"/>
	<path fill="#E7E6E8" transform="scale(0.488281 0.488281)" d="M675.262 622.74L737.416 622.746L736.975 725.992L704.75 726.064L641.723 726.034L641.435 623.232L675.262 622.74Z"/>
	<path fill="#59CAD4" transform="scale(0.488281 0.488281)" d="M649.923 630.323L726.828 630.45L726.502 718.23L650.497 718.116L649.923 630.323Z"/>
	<path fill="#FDFDFC" transform="scale(0.488281 0.488281)" d="M674.284 635.249L722.465 635.27L722.034 713.519L703.75 713.51L655.244 713.47C654.637 712.314 654.941 709.793 654.94 708.436L654.901 695.215L654.6 635.477L674.284 635.249Z"/>
	<path fill="#59CAD4" transform="scale(0.488281 0.488281)" d="M666.58 680.75C670.474 680.361 674.665 680.61 678.604 680.593C680.28 680.586 682.659 680.306 684.25 680.902C685.591 681.405 685.727 682.011 686.253 683.215C685.404 684.533 685.234 684.517 683.75 685.087C677.96 685.165 671.459 685.767 665.75 685.003C664.541 683.997 664.294 684.025 664.046 682.5C664.863 681.337 665.241 681.297 666.58 680.75Z"/>
	<path fill="#59CAD4" transform="scale(0.488281 0.488281)" d="M706.388 680.251C709.475 680.154 712.84 679.524 715.25 681.697C715.482 683.082 715.536 683.196 714.929 684.448C712.168 685.986 708.139 685.249 704.953 685.165L695.75 684.993C694.557 683.857 694.631 683.902 694.512 682.25L695.75 680.891C697.1 679.758 704.33 680.267 706.388 680.251Z"/>
	<path fill="#CB2D29" transform="scale(0.488281 0.488281)" d="M702.06 652.6C704.622 652.546 708.696 651.896 711.044 652.865C713.049 653.693 714.136 655.55 714.883 657.482C716.012 660.403 715.921 667.914 714.563 670.75C713.082 671.967 711.875 672.492 710.059 673.081C706.842 673.081 700.77 673.838 697.878 672.75C696.832 672.356 696.103 671.569 695.761 670.506C694.758 667.39 695.184 658.915 696.763 656.145C697.97 654.028 699.841 653.285 702.06 652.6Z"/>
	<path fill="#EEA13F" transform="scale(0.488281 0.488281)" d="M668.945 653.75C672.316 652.934 678.448 652.768 681.75 653.476C683.317 653.811 684.261 654.943 684.934 656.345C686.102 658.781 686.05 668.733 684.982 671.25C684.344 672.754 683.381 672.887 681.94 673.297C677.723 673.29 669.473 674.257 665.931 672.25C664.503 669.687 664.428 660.509 665.394 657.547C666.046 655.549 667.095 654.628 668.945 653.75Z"/>
	<path fill="#59CAD4" transform="scale(0.488281 0.488281)" d="M671.054 690.602C674.35 690.304 678.03 690.146 681.162 691.326C684.869 692.724 687.144 695.673 691.471 695.379C695.634 695.095 699.163 692.169 703.291 691.412C706.153 690.887 709.683 691.373 711.995 693.25C713.121 694.163 713.885 695.563 714.037 697C714.241 698.928 714.183 700.834 712.845 702.349C710.528 704.972 706.974 705.037 703.748 705.319C702.053 705.084 700.46 704.711 699.015 703.746C697.852 702.971 696.152 701.308 694.813 701.014C693.416 700.706 689.926 700.615 688.545 700.891C687.433 701.114 685.652 703.483 684.845 704.296C683.531 705.619 682.16 706.615 680.51 707.485C677.759 708.936 674.435 709.217 671.48 708.286C668.758 707.428 666.256 705.699 664.972 703.087C664.001 701.11 663.796 699.09 664.492 697C665.612 693.636 668.075 692.125 671.054 690.602Z"/>
	<path fill="#0C4955" transform="scale(0.488281 0.488281)" d="M430.51 757.412L430.444 617.574L590.466 617.597L590.484 758.73L590.297 827.699L485.624 827.521L453.507 827.576C448.056 827.594 442.221 827.18 436.843 827.92L430.677 828L430.51 757.412Z"/>
	<path fill="#0C858C" transform="scale(0.488281 0.488281)" d="M507.164 791.655L507.402 822.82L474.898 822.481L507.164 791.655Z"/>
	<path fill="#0C858C" transform="scale(0.488281 0.488281)" d="M444.594 822.483L437.135 822.552L436.955 624.502L492.79 625.006C487.283 626.365 480.808 625.761 475.133 625.768L446.773 625.773C446.8 626.699 446.861 627.479 447.06 628.387C447.264 629.313 447.276 630.059 447.25 631L448 630.878C450.938 630.521 455.102 630.503 457.994 631.059C454.763 631.929 449.179 630.201 446.579 632.019L446.398 706.616C445.227 709.759 445.486 714.341 445.322 717.75L444.718 751.378L444.594 822.483Z"/>
	<path fill="#0C858C" transform="scale(0.488281 0.488281)" d="M515.423 799.286L583.138 729.858L583.148 823.085C581.8 823.739 579.69 823.423 578.198 823.42L567.572 823.398L515.48 823.181L515.423 799.286Z"/>
	<path fill="#0B9BA7" transform="scale(0.488281 0.488281)" d="M515.423 799.286L515.016 624.918C516.174 624.239 576.56 624.738 583.512 624.74L583.138 729.858L515.423 799.286Z"/>
	<path fill="#0C4955" transform="scale(0.488281 0.488281)" d="M525.519 737.75C526.719 737.41 527.85 737.372 529.082 737.543C530.402 737.727 531.399 738.468 532.178 739.54C534.202 742.326 533.861 751.929 533.153 755.346C532.678 757.639 531.126 758.799 529.25 759.984C528.029 760.444 527.031 760.609 525.76 760.264C524.44 759.906 522.655 758.266 522.033 757.061C520.877 754.824 521.018 744.603 521.811 741.987C522.445 739.899 523.696 738.817 525.519 737.75Z"/>
	<path fill="#59CAD4" transform="scale(0.488281 0.488281)" d="M527.321 722.412L573.844 676.899L573.983 681.458L574.012 728.896L527.338 729.029C526.198 729.136 525.138 729.044 524 728.966C523.489 727.808 523.659 727.704 524.018 726.466C525.246 725.239 526.278 723.796 527.321 722.412Z"/>
	<path fill="#15B0B1" transform="scale(0.488281 0.488281)" d="M527.321 722.412L573.844 676.899L573.983 681.458L527.338 729.029C526.198 729.136 525.138 729.044 524 728.966C523.489 727.808 523.659 727.704 524.018 726.466C525.246 725.239 526.278 723.796 527.321 722.412Z"/>
	<path fill="#59CAD4" transform="scale(0.488281 0.488281)" d="M523.568 707.969L523.317 632.541L574.013 632.505L573.935 658.348L573.846 665.582L573.844 676.899L527.321 722.412C526.278 723.796 525.246 725.239 524.018 726.466L523.89 725.158C522.753 720.053 523.519 713.276 523.568 707.969Z"/>
	<path fill="#E7E6E8" transform="scale(0.488281 0.488281)" d="M573.935 658.348L573.846 665.582L573.844 676.899L527.321 722.412C526.278 723.796 525.246 725.239 524.018 726.466L523.89 725.158C522.753 720.053 523.519 713.276 523.568 707.969C527.799 707.403 567.171 665.004 573.935 658.348Z"/>
	<path fill="#15B0B1" transform="scale(0.488281 0.488281)" d="M573.935 658.348L573.846 665.582C570.737 665.931 532.658 705.947 528.707 710.86L527.037 713.053L527.321 722.412C526.278 723.796 525.246 725.239 524.018 726.466L523.89 725.158C522.753 720.053 523.519 713.276 523.568 707.969C527.799 707.403 567.171 665.004 573.935 658.348Z"/>
	<path fill="#6BC0C6" transform="scale(0.488281 0.488281)" d="M523.89 725.158C523.91 722.346 523.156 715.369 524.562 713.154L527.037 713.053L527.321 722.412C526.278 723.796 525.246 725.239 524.018 726.466L523.89 725.158Z"/>
	<path fill="#15B0B1" transform="scale(0.488281 0.488281)" d="M492.79 625.006L507.537 625.026L507.408 736.337L507.106 775.995C507.107 781.012 506.563 786.706 507.164 791.655L474.898 822.481L444.594 822.483L444.718 751.378L445.322 717.75C445.486 714.341 445.227 709.759 446.398 706.616L446.579 632.019C449.179 630.201 454.763 631.929 457.994 631.059C455.102 630.503 450.938 630.521 448 630.878L447.25 631C447.276 630.059 447.264 629.313 447.06 628.387C446.861 627.479 446.8 626.699 446.773 625.773L475.133 625.768C480.808 625.761 487.283 626.365 492.79 625.006Z"/>
	<path fill="#0C4955" transform="scale(0.488281 0.488281)" d="M493.091 738.25C494.122 738.017 495.012 737.831 496.069 738.014C497.937 738.336 499.484 739.509 500.49 741.091C502.287 743.917 502.605 749.111 501.773 752.334C501.151 754.744 499.772 756.196 497.75 757.518C496.611 757.954 495.226 758.13 494 757.996C492.707 757.855 491.518 756.855 490.75 755.842C488.62 753.035 488.515 747.433 489.175 744.067C489.688 741.454 490.827 739.625 493.091 738.25Z"/>
	<path fill="#E7E6E8" transform="scale(0.488281 0.488281)" d="M496.043 663.75C496.38 663.809 496.706 663.922 497.032 664.023L497.227 673.5L450.767 719.25L450.067 718.75L450.101 709.686L496.043 663.75Z"/>
	<path fill="#59CAD4" transform="scale(0.488281 0.488281)" d="M496.526 680.25C497.188 680.289 496.83 680.188 497.521 680.75L497.721 730.627L451.75 730.998C451.028 730.938 450.69 730.792 450.042 730.5L449.968 726.75C450.021 726.113 450.074 725.994 450.475 725.5C451.724 723.96 453.746 722.603 455.231 721.25L463.382 713.434L496.526 680.25Z"/>
	<path fill="#59CAD4" transform="scale(0.488281 0.488281)" d="M446.579 632.019L497.894 632.009C497.879 635.616 498.546 653.214 497.544 655.236C495.966 658.423 491.012 662.354 488.407 664.991L469.582 684.256L453.07 700.396C451.027 702.371 448.797 705.173 446.398 706.616L446.579 632.019Z"/>
	<path fill="#16B384" transform="scale(0.488281 0.488281)" d="M430.51 757.412L430.677 828L436.843 827.92C442.221 827.18 448.056 827.594 453.507 827.576L485.624 827.521L590.297 827.699L590.484 758.73L757.442 758.166L757.479 790.998L757.439 811.128L757.447 820.53L757.441 829.519L757.518 839.542L757.551 844.072L757.574 874.942C760.277 874.059 765.854 874.737 768.871 874.685C769.724 873.34 769.332 869.191 769.384 867.45C769.009 865.449 769.309 862.743 769.296 860.677L769.416 844.271L769.393 839.604L769.469 828.885L792.362 828.948C796.38 828.957 800.536 829.231 804.514 828.659L804.537 828.156C804.439 825.725 804.762 823.795 805.4 821.452L813.631 821.466C816.429 820.674 819.182 820.486 822.069 820.273L830.387 820.148L835.934 820.712L836.353 827.031L881.988 827.264L882.787 821.138C885.732 817.864 887.829 816.076 892.427 815.719C898.955 815.212 906.085 818.869 910.86 823.148C913.789 825.773 915.793 828.785 917.868 832.103C919.312 838.733 919.426 844.106 918.962 850.817C923.697 851.544 927.191 852.591 930.214 856.662L931.413 858.512C931.997 859.396 932 859.641 932.994 860.109L937.906 860.111C946.486 860.513 953.356 863.937 959.107 870.289C964.62 876.377 965.531 883.547 964.998 891.453C964.54 898.243 961.621 905.067 956.445 909.567C951.53 913.84 945.113 917.13 938.539 917.551C932.247 917.954 925.834 917.693 919.523 917.677L886.735 917.594L782.531 917.475L474.845 917.603L210.757 917.59L129.408 917.845L102.394 917.963C97.586 917.976 92.6076 918.216 87.8171 917.833C79.2192 917.145 71.1393 912.917 65.617 906.295C60.4084 900.049 58.0625 891.99 58.873 883.947C59.5746 876.985 63.1333 870.5 68.5396 866.095C75.7492 860.22 83.9218 858.415 93.0143 859.299L93.1624 860.143L92.333 860.475C90.8851 861.04 89.3525 861.153 87.88 861.686C83.1887 863.383 79.6221 866.438 77.4922 871L75.7175 875.464L163.037 875.498L163.027 800.312L163.308 788.987L163.378 782.865L152.085 782.982C152.087 777.769 150.954 761.667 153.42 757.927C155.012 756.949 158.599 757.409 160.503 757.405L177.985 757.416L203.294 757.305L249.415 757.244L252.971 757.322L253.024 782.531L304.287 782.558L318.233 782.58C320.701 782.583 323.512 782.848 325.934 782.424L326.016 757.517L333.976 757.512L357.531 757.413L430.51 757.412Z"/>
	<path fill="#0C858C" transform="scale(0.488281 0.488281)" d="M757.518 839.542L757.551 844.072L757.574 874.942L712.021 875.101L692.769 875.191C690.331 875.192 686.756 875.619 684.524 874.648C685.548 872.283 685.003 868.343 685.006 865.768L684.99 843.995L685.056 839.589L757.518 839.542Z"/>
	<path fill="#15B0B1" transform="scale(0.488281 0.488281)" d="M757.518 839.542L757.551 844.072L684.99 843.995L685.056 839.589L757.518 839.542Z"/>
	<path fill="#0C858C" transform="scale(0.488281 0.488281)" d="M673.478 839.557L685.056 839.589L684.99 843.995L685.006 865.768C685.003 868.343 685.548 872.283 684.524 874.648C681.235 874.185 677.727 874.431 674.422 874.651C673.532 875.206 673.06 875.413 671.986 875.466L630.185 875.804L532.714 876.006L409.967 876.006L345.391 875.923L345.553 875.579C346.596 873.054 345.949 868.377 345.944 865.482L345.884 840.771L416.566 840.851L416.568 847.497L394.998 847.761L394.99 863.37L627.404 862.836L627.429 847.464L602.52 847.435L602.541 841.063L631.28 841.155C637.516 841.086 644.195 841.187 650.352 840.176L673.478 839.557Z"/>
	<path fill="#15B0B1" transform="scale(0.488281 0.488281)" d="M650.352 840.176L673.478 839.557L673.527 839.858L673.442 843.25C671.294 844.644 632.464 843.228 627.535 842.25L627.517 841.718C628.772 841.557 630.048 841.447 631.28 841.155C637.516 841.086 644.195 841.187 650.352 840.176Z"/>
	<path fill="#2C2F2F" transform="scale(0.488281 0.488281)" d="M673.478 839.557L685.056 839.589L684.99 843.995L685.006 865.768C685.003 868.343 685.548 872.283 684.524 874.648C681.235 874.185 677.727 874.431 674.422 874.651C673.627 872.685 674.053 869.658 674.054 867.534L674.035 848.582C674.029 845.85 674.511 842.401 673.527 839.858L673.478 839.557Z"/>
	<path fill="#E7E6E8" transform="scale(0.488281 0.488281)" d="M436.843 827.92L602.633 827.882L602.541 841.063L602.52 847.435L627.429 847.464L627.404 862.836L394.99 863.37L394.998 847.761L416.568 847.497L416.566 840.851C416.522 837.1 415.823 832.001 416.935 828.452C420.147 827.098 427.011 828.005 430.677 828L436.843 827.92Z"/>
	<path fill="#E7E6E8" transform="scale(0.488281 0.488281)" d="M436.843 827.92L602.633 827.882L602.541 841.063L602.52 847.435L416.568 847.497L416.566 840.851C416.522 837.1 415.823 832.001 416.935 828.452C420.147 827.098 427.011 828.005 430.677 828L436.843 827.92Z"/>
	<path fill="#A6A5A9" transform="scale(0.488281 0.488281)" d="M416.566 840.851C416.522 837.1 415.823 832.001 416.935 828.452L416.961 841.368L602.541 841.063L602.52 847.435L416.568 847.497L416.566 840.851Z"/>
	<path fill="#4F758F" transform="scale(0.488281 0.488281)" d="M430.51 757.412L430.677 828C427.011 828.005 420.147 827.098 416.935 828.452C415.823 832.001 416.522 837.1 416.566 840.851L345.884 840.771L345.944 865.482C345.949 868.377 346.596 873.054 345.553 875.579L345.526 789.934L345.61 784L346.395 783.295C344.551 782.675 341.828 783.026 339.866 783.016L326.587 782.78L325.934 782.424L326.016 757.517L333.976 757.512L357.531 757.413L430.51 757.412Z"/>
	<path fill="#CB2D29" transform="scale(0.488281 0.488281)" d="M333.976 757.512L357.531 757.413L357.495 783.653L346.395 783.295C344.551 782.675 341.828 783.026 339.866 783.016L326.587 782.78L325.934 782.424L326.016 757.517L333.976 757.512Z"/>
	<path fill="#0F8C57" transform="scale(0.488281 0.488281)" d="M882.787 821.138C885.732 817.864 887.829 816.076 892.427 815.719C898.955 815.212 906.085 818.869 910.86 823.148C913.789 825.773 915.793 828.785 917.868 832.103C919.312 838.733 919.426 844.106 918.962 850.817C923.697 851.544 927.191 852.591 930.214 856.662L931.413 858.512C931.997 859.396 932 859.641 932.994 860.109C939.197 863.454 941.587 868.145 943.543 874.674L794.137 874.476L782.98 874.489L769.572 874.566L769.384 867.45C769.009 865.449 769.309 862.743 769.296 860.677L769.416 844.271L769.393 839.604L769.469 828.885L792.362 828.948C796.38 828.957 800.536 829.231 804.514 828.659L804.537 828.156C804.439 825.725 804.762 823.795 805.4 821.452L813.631 821.466C816.429 820.674 819.182 820.486 822.069 820.273L830.387 820.148L835.934 820.712L836.353 827.031L881.988 827.264L882.787 821.138Z"/>
	<path fill="#15B0B1" transform="scale(0.488281 0.488281)" d="M793.892 839.474L801.649 839.592C800.478 841.459 798.857 842.711 797.164 844.094C796.243 844.845 795.197 845.226 794.034 845.427L793.892 839.474Z"/>
	<path fill="#6BC0C6" transform="scale(0.488281 0.488281)" d="M805.4 821.452L813.631 821.466C810.805 823.617 807.674 826.572 804.537 828.156C804.439 825.725 804.762 823.795 805.4 821.452Z"/>
	<path fill="#0C4955" transform="scale(0.488281 0.488281)" d="M782.959 839.538L793.892 839.474L794.034 845.427L794.137 874.476L782.98 874.489L782.994 843.956L782.959 839.538Z"/>
	<path fill="#0C858C" transform="scale(0.488281 0.488281)" d="M769.393 839.604L782.959 839.538L782.994 843.956L782.98 874.489L769.572 874.566L769.384 867.45C769.009 865.449 769.309 862.743 769.296 860.677L769.416 844.271L769.393 839.604Z"/>
	<path fill="#15B0B1" transform="scale(0.488281 0.488281)" d="M769.393 839.604L782.959 839.538L782.994 843.956L769.416 844.271L769.393 839.604Z"/>
	<path fill="#885444" transform="scale(0.488281 0.488281)" d="M804.514 828.659L805.255 828.82C809.216 829.621 822.829 828.02 824.975 830.762C826.681 832.941 826.625 839.163 826.69 841.996L825.86 841.716C821.248 840.214 816.421 840.226 811.623 839.994C808.314 839.835 804.957 839.43 801.649 839.592L793.892 839.474L782.959 839.538L769.393 839.604L769.469 828.885L792.362 828.948C796.38 828.957 800.536 829.231 804.514 828.659Z"/>
	<path fill="#E67F42" transform="scale(0.488281 0.488281)" d="M836.353 827.031L881.988 827.264L881.982 843.859C881.973 849.88 882.949 856.47 879.25 861.615C877.085 864.626 873.384 868.167 869.48 868.544C865.226 868.954 860.578 868.619 856.29 868.58C853.648 868.555 850.372 868.869 847.874 868.075C845.972 867.47 844.145 866.294 842.677 864.955C835.983 858.852 836.645 850.753 836.577 842.521L836.353 827.031Z"/>
	<path fill="#E33E40" transform="scale(0.488281 0.488281)" d="M325.934 782.424L326.587 782.78L339.866 783.016C341.828 783.026 344.551 782.675 346.395 783.295L345.61 784L345.526 789.934L345.553 875.579L345.391 875.923L313.665 875.659L253.002 875.571L253.009 789.969L253.024 782.531L304.287 782.558L318.233 782.58C320.701 782.583 323.512 782.848 325.934 782.424Z"/>
	<path fill="#CB2D29" transform="scale(0.488281 0.488281)" d="M325.934 782.424L326.587 782.78L339.866 783.016C341.828 783.026 344.551 782.675 346.395 783.295L345.61 784L345.526 789.934L345.553 875.579L345.391 875.923L313.665 875.659C316.86 874.745 322.556 875.531 326.027 875.527L325.957 790.44L253.009 789.969L253.024 782.531L304.287 782.558L318.233 782.58C320.701 782.583 323.512 782.848 325.934 782.424Z"/>
	<path fill="#813B36" transform="scale(0.488281 0.488281)" d="M326.587 782.78L339.866 783.016C341.828 783.026 344.551 782.675 346.395 783.295L345.61 784L345.526 789.934L326.046 790.122C325.982 787.884 325.474 784.762 326.587 782.78Z"/>
	<path fill="#E8BC4D" transform="scale(0.488281 0.488281)" d="M203.294 757.305L249.415 757.244L252.971 757.322L253.024 782.531L253.009 789.969L253.002 875.571L163.037 875.498L163.027 800.312L163.308 788.987L163.378 782.865L152.085 782.982C152.087 777.769 150.954 761.667 153.42 757.927C155.012 756.949 158.599 757.409 160.503 757.405L177.985 757.416L203.294 757.305Z"/>
	<path fill="#FDFDFC" transform="scale(0.488281 0.488281)" d="M201.273 789.91L208.333 789.921L213 790.046C214.407 791.722 213.574 804.115 213.57 807.049L230.201 806.892L230.152 826.036L213.501 825.967L213.537 842.49L195.764 842.46L195.901 826.223L178.67 826.431L178.667 806.513L195.992 806.583L195.97 794.213C195.967 792.738 195.62 791.222 196.5 790.011L201.273 789.91Z"/>
	<path fill="#EEA13F" transform="scale(0.488281 0.488281)" d="M203.294 757.305L249.415 757.244L252.971 757.322L253.024 782.531L253.009 789.969C244.649 789.227 236.086 789.49 227.69 789.484C221.309 789.479 214.666 789.105 208.333 789.921L201.273 789.91C199.764 789.59 198.206 789.647 196.686 789.375C192.113 788.559 187.357 788.765 182.729 788.799L163.308 788.987L163.378 782.865L152.085 782.982C152.087 777.769 150.954 761.667 153.42 757.927C155.012 756.949 158.599 757.409 160.503 757.405L177.985 757.416L203.294 757.305Z"/>
	<defs>
		<linearGradient id="gradient_4" gradientUnits="userSpaceOnUse" x1="615.21985" y1="735.19525" x2="727.7583" y2="847.34064">
			<stop offset="0" stop-color="#627C8A"/>
			<stop offset="1" stop-color="#45769B"/>
		</linearGradient>
	</defs>
	<path fill="url(#gradient_4)" transform="scale(0.488281 0.488281)" d="M590.484 758.73L757.442 758.166L757.479 790.998L757.439 811.128L757.447 820.53L757.441 829.519L757.518 839.542L685.056 839.589L673.478 839.557L650.352 840.176C644.195 841.187 637.516 841.086 631.28 841.155L602.541 841.063L602.633 827.882L436.843 827.92C442.221 827.18 448.056 827.594 453.507 827.576L485.624 827.521L590.297 827.699L590.484 758.73Z"/>
	<path fill="#E67F42" transform="scale(0.488281 0.488281)" d="M650.472 829.34C650.435 826.272 650.162 824.071 652.547 821.722C653.085 821.191 654.483 820.17 655.25 820.058C657.992 819.655 661.474 820.089 664.28 820.106L686.69 820.307L757.447 820.53L757.441 829.519L650.472 829.34Z"/>
	<path fill="#813B36" transform="scale(0.488281 0.488281)" d="M650.472 829.34L757.441 829.519L757.518 839.542L685.056 839.589L673.478 839.557L650.352 840.176L650.472 829.34Z"/>
	<path fill="#E8BC4D" transform="scale(0.488281 0.488281)" d="M757.439 811.128L756.935 811.178L708.056 811.157L686.886 811.102C682.897 811.088 678.692 811.331 674.74 810.912C672.825 810.709 670.964 809.976 669.57 808.625C667.667 806.782 667.007 804.164 666.952 801.582C666.886 798.449 667.148 795.526 669.59 793.25C670.269 792.618 671.52 791.497 672.368 791.135C673.369 790.709 675.992 790.908 677.107 790.903L691.304 790.888L757.479 790.998L757.439 811.128Z"/>
</svg>
