<?xml version="1.0" encoding="utf-8" ?>
<svg xmlns="http://www.w3.org/2000/svg" xmlns:xlink="http://www.w3.org/1999/xlink" width="500" height="500">
	<path fill="#FEDB63" transform="scale(0.488281 0.488281)" d="M-0 -0L1024 0L1024 1024L-0 1024L0 -0Z"/>
	<path fill="#137A87" transform="scale(0.488281 0.488281)" d="M414.006 231.959L413.936 149.43L476.302 149.562C482.615 150.768 490.496 149.93 496.995 149.928L497.013 232.002L414.006 231.959Z"/>
	<path fill="#434D89" transform="scale(0.488281 0.488281)" d="M476.418 97.1952C473.474 96.6232 469.987 96.9946 466.976 96.9983L449.25 97.0267L449.22 75.5909L454.22 75.6133L660.157 75.5703L660.145 96.7781L546.479 96.6821L546.51 149.501L511.5 149.596C507.065 149.614 501.204 148.913 496.995 149.928C490.496 149.93 482.615 150.768 476.302 149.562L476.39 108.966L476.418 97.1952Z"/>
	<path fill="#213071" transform="scale(0.488281 0.488281)" d="M476.418 97.1952C473.474 96.6232 469.987 96.9946 466.976 96.9983L449.25 97.0267L449.22 75.5909L454.22 75.6133L454.63 75.7071C459.185 76.6481 464.778 76.0804 469.467 76.0851L497.06 76.0672L497.044 96.4809L546.053 96.5265L546.051 109.03L497.396 109.061L497.426 134.928C497.417 139.841 497.763 145.074 496.995 149.928C490.496 149.93 482.615 150.768 476.302 149.562L476.39 108.966L476.418 97.1952Z"/>
	<path fill="#0A1E63" transform="scale(0.488281 0.488281)" d="M477.207 96.9184L497.237 96.7452C497.24 100.624 497.7 105.128 497.118 108.95L476.39 108.966L476.418 97.1952L477.207 96.9184Z"/>
	<path fill="#369DB4" transform="scale(0.488281 0.488281)" d="M546.51 149.501L610.091 149.422L610.288 232.055L497.013 232.002L496.995 149.928C501.204 148.913 507.065 149.614 511.5 149.596L546.51 149.501Z"/>
	<path fill="#026369" transform="scale(0.488281 0.488281)" d="M279.026 847.563L279.292 847.956C280.853 850.393 280.952 853.304 281.709 856.049L285.764 869.119C295.422 897.399 316.212 917.864 345.566 924.855L352.917 926.103C358.497 926.817 364.438 926.474 370.067 926.482L399.491 926.496L497.082 926.494L497.359 926.429C507.736 927.304 518.827 926.49 529.266 926.462L594.371 926.262L640.802 926.355C649.833 926.426 659.333 927.093 668.303 926.153C678.073 925.13 687.508 922.518 696.5 918.607C715.008 910.556 730.504 895.808 739.12 877.514C741.674 872.094 743.265 866.416 745.461 860.873C745.551 869.101 746.295 877.967 745.447 886.126C743.839 901.585 735.563 917.041 724.822 928.016C711.32 941.811 693.773 949.438 674.46 949.589L496.717 949.692L398.175 949.595L366.334 949.613C356.455 949.616 346.653 949.916 336.938 947.773C323.667 944.845 310.514 937.744 300.907 928.092C289.67 916.802 281.301 900.637 279.381 884.762C277.927 872.74 278.953 859.688 279.026 847.563Z"/>
	<path fill="#369DB4" transform="scale(0.488281 0.488281)" d="M497.013 232.002L610.288 232.055L610.25 242.417C610.245 243.991 609.993 245.867 610.505 247.358C616.863 248.161 623.802 251.42 629.642 254.007C659.677 267.312 684.822 288.416 704.885 314.276C723.581 338.374 736.263 368.501 741.636 398.437C746.509 425.592 745.457 452.776 745.382 480.237L745.182 572.891L745.215 755.209L745.278 804.781L745.381 829.652L745.35 829.882L744.924 829L744.757 824.986C741.761 824.938 720.584 824.088 719.473 824.966C719.418 827.472 719.629 830.319 719.096 832.762L719.203 782.803L719.485 718.813L719.502 667.822L719.405 637.579C720.009 633.815 720.144 627.797 719.489 624.059C718.614 619.07 719.164 613.253 719.161 608.165L719.302 578.192L719.56 528.126L719.541 475.373L718.197 411.337C717.323 408.535 717.021 405.278 716.457 402.384L712.926 387.435C704.899 358.861 689.678 332.49 668.677 311.52C657.362 300.222 645.058 290.066 631.693 281.288C628.908 279.459 625.468 276.869 622.326 275.746C619.825 274.851 615.718 275.473 613.006 275.48L590.082 275.532L497.02 275.506C496.112 267.055 496.919 257.562 496.998 249.01L497.013 232.002Z"/>
	<path fill="#434D89" transform="scale(0.488281 0.488281)" d="M497.013 232.002L610.288 232.055L610.25 242.417C610.245 243.991 609.993 245.867 610.505 247.358L609.471 248.836L496.998 249.01L497.013 232.002Z"/>
	<path fill="#F69E42" transform="scale(0.488281 0.488281)" d="M497.02 275.506L590.082 275.532L613.006 275.48C615.718 275.473 619.825 274.851 622.326 275.746C625.468 276.869 628.908 279.459 631.693 281.288C645.058 290.066 657.362 300.222 668.677 311.52C689.678 332.49 704.899 358.861 712.926 387.435L716.457 402.384C717.021 405.278 717.323 408.535 718.197 411.337L497.192 411.11L497.02 275.506Z"/>
	<path fill="#FEFFFF" transform="scale(0.488281 0.488281)" d="M599.7 300.073L603.144 299.948C607.838 299.982 611.947 302.725 615.915 304.968C629.421 312.602 640.24 321.001 650.97 332.23C660.14 341.826 676.03 363.647 675.356 377.216C675.229 379.756 674.479 383.175 672.343 384.821C670.04 386.597 667.294 385.783 664.691 385.363C661.528 384.44 658.665 383.261 655.752 381.719C637.664 372.146 621.498 358.522 606.783 344.417C599.726 337.652 590.224 328.825 587.495 319.159C586.411 315.318 586.654 310.032 588.739 306.576C591.244 302.427 595.203 301.069 599.7 300.073Z"/>
	<path fill="#1D978B" transform="scale(0.488281 0.488281)" d="M497.364 782.508L719.203 782.803L719.096 832.762C719.629 830.319 719.418 827.472 719.473 824.966C720.584 824.088 741.761 824.938 744.757 824.986L744.924 829L745.35 829.882L745.461 860.873C743.265 866.416 741.674 872.094 739.12 877.514C730.504 895.808 715.008 910.556 696.5 918.607C687.508 922.518 678.073 925.13 668.303 926.153C659.333 927.093 649.833 926.426 640.802 926.355L594.371 926.262L529.266 926.462C518.827 926.49 507.736 927.304 497.359 926.429C496.961 923.67 497.322 920.395 497.337 917.584L497.407 898.403L497.478 836.029C496.62 830.142 497.276 823.107 497.265 817.102L497.364 782.508Z"/>
	<path fill="#FEDB63" transform="scale(0.488281 0.488281)" d="M497.364 782.508L719.203 782.803L719.096 832.762L718.914 835.5C716.547 836.801 634.957 836.025 626.324 836.031L540.419 836.074L497.478 836.029C496.62 830.142 497.276 823.107 497.265 817.102L497.364 782.508Z"/>
	<path fill="#137A87" transform="scale(0.488281 0.488281)" d="M414.006 231.959L497.013 232.002L496.998 249.01C496.919 257.562 496.112 267.055 497.02 275.506L497.192 411.11L496.774 411.157L305.2 410.965L303.964 475.425L304.084 500.257L304.33 577.992L304.428 609.372C304.414 613.924 304.888 619.167 304.091 623.631C303.491 626.994 303.907 630.983 303.911 634.417L303.977 657.323C303.994 661.276 304.297 665.361 303.901 669.25C303.466 673.518 303.903 678.293 303.922 682.605C303.951 688.753 303.481 695.548 304.415 701.623L304.536 718.847L496.984 718.525L496.989 782.417L497.364 782.508L497.265 817.102C497.276 823.107 496.62 830.142 497.478 836.029L497.407 898.403L497.337 917.584C497.322 920.395 496.961 923.67 497.359 926.429L497.082 926.494L399.491 926.496L370.067 926.482C364.438 926.474 358.497 926.817 352.917 926.103L345.566 924.855C316.212 917.864 295.422 897.399 285.764 869.119L281.709 856.049C280.952 853.304 280.853 850.393 279.292 847.956L279.026 847.563L278.942 845.312L278.977 567.35L278.817 482.232C278.755 461.326 277.612 439.606 279.498 418.791C280.443 408.363 282.422 398.001 284.802 387.812C293.123 352.177 311.294 320.655 336.956 294.742C354.909 276.613 377.171 261.594 400.989 252.356C404.927 250.829 409.771 248.552 414.017 248.531L414.006 231.959Z"/>
	<path fill="#213071" transform="scale(0.488281 0.488281)" d="M414.006 231.959L497.013 232.002L496.998 249.01L439.142 248.996L422.497 248.974C419.943 248.966 416.405 249.391 414.017 248.531L414.006 231.959Z"/>
	<path fill="#E76B26" transform="scale(0.488281 0.488281)" d="M304.496 782.471L441.93 782.497L480.431 782.619C485.524 782.634 492.021 783.363 496.989 782.417L497.364 782.508L497.265 817.102C497.276 823.107 496.62 830.142 497.478 836.029L304.478 836.058L304.496 782.471Z"/>
	<path fill="#CB2424" transform="scale(0.488281 0.488281)" d="M496.984 718.525L496.989 782.417C492.021 783.363 485.524 782.634 480.431 782.619L441.93 782.497L304.496 782.471L304.536 718.847L496.984 718.525Z"/>
	<path fill="#E76B26" transform="scale(0.488281 0.488281)" d="M305.2 410.965C306.422 402.312 307.827 393.747 310.177 385.318C317.477 359.133 332.309 332.974 351.568 313.75C365.464 299.88 382.467 287.624 400.154 279.233C402.705 278.022 405.629 276.301 408.349 275.574C410.268 275.062 412.921 275.491 414.914 275.496L429.229 275.503L497.02 275.506L497.192 411.11L496.774 411.157L305.2 410.965Z"/>
	<path fill="#4EAD9D" transform="scale(0.488281 0.488281)" d="M305.2 410.965L496.774 411.157L497.192 411.11L718.197 411.337L719.541 475.373L719.56 528.126L719.302 578.192L719.161 608.165C719.164 613.253 718.614 619.07 719.489 624.059C720.144 627.797 720.009 633.815 719.405 637.579L719.502 667.822L719.485 718.813L719.203 782.803L497.364 782.508L496.989 782.417L496.984 718.525L304.536 718.847L304.415 701.623C303.481 695.548 303.951 688.753 303.922 682.605C303.903 678.293 303.466 673.518 303.901 669.25C304.297 665.361 303.994 661.276 303.977 657.323L303.911 634.417C303.907 630.983 303.491 626.994 304.091 623.631C304.888 619.167 304.414 613.924 304.428 609.372L304.33 577.992L304.084 500.257L303.964 475.425L305.2 410.965Z"/>
	<path fill="#83DAC5" transform="scale(0.488281 0.488281)" d="M497.034 623.551L719.152 623.483C719.2 628.072 718.847 633.046 719.405 637.579L719.502 667.822L497.097 667.639L497.034 623.551Z"/>
	<path fill="#DABC82" transform="scale(0.488281 0.488281)" d="M303.964 475.425L496.985 475.482L497.04 527.968L304.423 528.213L304.084 500.257L303.964 475.425Z"/>
	<path fill="#83DAC5" transform="scale(0.488281 0.488281)" d="M497.04 527.968L719.56 528.126L719.302 578.192L497.453 577.857C496.498 574.392 497.299 568.735 497.28 564.973L497.04 527.968Z"/>
	<path fill="#F4F3D5" transform="scale(0.488281 0.488281)" d="M496.985 475.482L719.541 475.373L719.56 528.126L497.04 527.968L496.985 475.482Z"/>
	<path fill="#CB2424" transform="scale(0.488281 0.488281)" d="M305.2 410.965L496.774 411.157C498.066 417.145 497.13 425.133 497.124 431.325L496.985 475.482L303.964 475.425L305.2 410.965Z"/>
	<path fill="#E54A42" transform="scale(0.488281 0.488281)" d="M497.192 411.11L718.197 411.337L719.541 475.373L496.985 475.482L497.124 431.325C497.13 425.133 498.066 417.145 496.774 411.157L497.192 411.11Z"/>
	<path fill="#E54A42" transform="scale(0.488281 0.488281)" d="M497.097 667.639L719.502 667.822L719.485 718.813L719.203 782.803L497.364 782.508L496.989 782.417L496.984 718.525L496.952 667.937L497.097 667.639Z"/>
	<path fill="#F4F3D5" transform="scale(0.488281 0.488281)" d="M497.097 667.639L719.502 667.822L719.485 718.813L496.984 718.525L496.952 667.937L497.097 667.639Z"/>
	<path fill="#1D978B" transform="scale(0.488281 0.488281)" d="M304.33 577.992L497.116 577.942L497.034 623.551L497.097 667.639L496.952 667.937L496.984 718.525L304.536 718.847L304.415 701.623C303.481 695.548 303.951 688.753 303.922 682.605C303.903 678.293 303.466 673.518 303.901 669.25C304.297 665.361 303.994 661.276 303.977 657.323L303.911 634.417C303.907 630.983 303.491 626.994 304.091 623.631C304.888 619.167 304.414 613.924 304.428 609.372L304.33 577.992Z"/>
	<path fill="#4EAD9D" transform="scale(0.488281 0.488281)" d="M304.494 667.818L304.465 623.229L497.034 623.551L497.097 667.639L496.952 667.937L304.494 667.818Z"/>
	<path fill="#DABC82" transform="scale(0.488281 0.488281)" d="M304.494 667.818L496.952 667.937L496.984 718.525L304.536 718.847L304.415 701.623L304.494 667.818Z"/>
</svg>
