<?xml version="1.0" encoding="utf-8" ?>
<svg xmlns="http://www.w3.org/2000/svg" xmlns:xlink="http://www.w3.org/1999/xlink" width="500" height="500">
	<path fill="#FEFEFE" transform="scale(0.488281 0.488281)" d="M-0 -0L1024 0L1024 1024L-0 1024L0 -0Z"/>
	<path fill="#E66468" transform="scale(0.488281 0.488281)" d="M545.009 974.021C455.587 980.604 365.529 960.031 287.205 916.605C264.508 904.021 242.32 889.491 222.235 873.009C208.239 861.523 194.39 849.733 181.647 836.853C107.295 761.706 60.2484 661.659 49.967 556.437C45.0856 506.48 48.4996 454.317 60.3332 405.527C77.0163 336.744 109.841 272.41 154.817 217.884C232.683 123.482 347.797 62.5257 469.644 51.0382C588.898 39.7952 712.663 76.7528 804.924 153.417C820.801 166.61 836.177 180.544 850.256 195.654C906.522 256.037 947.351 332.62 964.76 413.351C968.039 428.555 971.265 443.837 972.681 459.353C959.279 447.107 947.035 433.165 934.384 420.123L875.213 359.604L855.29 338.772C850.202 333.394 844.697 326.746 838.559 322.62L838.093 322.074C835.777 319.332 833.86 316.206 831.625 313.381C827.542 308.219 823.036 303.436 818.121 299.056C803.919 286.402 786.746 276.776 769.348 269.289C736.265 255.052 701.014 247.918 665.25 244.564C612.17 239.586 558.233 244.409 506.102 254.928C416.703 272.968 327.273 308.939 256.644 367.682C223.072 395.604 191.711 428.631 174.25 469.266C168.367 482.957 163.973 497.324 162.58 512.217C161.262 526.312 162.73 540.771 167.744 554.057C169.481 564.415 176.018 576.792 181.069 585.897L181.161 585.901C184.223 593.746 188.833 601.432 193.042 608.726C202.913 625.837 214.354 642.566 227.176 657.613C238.845 671.309 251.738 683.765 265.096 695.787C266.702 698.906 269.717 701.467 272.207 703.894L284.496 715.785L318.006 748.71L350.334 781.013L410.99 840.25L462.25 891.415L518.465 947.042L533.893 962.083C537.328 965.377 543.142 969.739 545.009 974.021Z"/>
	<path fill="#B0264A" transform="scale(0.488281 0.488281)" d="M167.744 554.057C162.73 540.771 161.262 526.312 162.58 512.217C163.973 497.324 168.367 482.957 174.25 469.266C191.711 428.631 223.072 395.604 256.644 367.682C327.273 308.939 416.703 272.968 506.102 254.928C558.233 244.409 612.17 239.586 665.25 244.564C701.014 247.918 736.265 255.052 769.348 269.289C786.746 276.776 803.919 286.402 818.121 299.056C823.036 303.436 827.542 308.219 831.625 313.381C833.86 316.206 835.777 319.332 838.093 322.074L838.559 322.62C844.697 326.746 850.202 333.394 855.29 338.772L875.213 359.604L934.384 420.123C947.035 433.165 959.279 447.107 972.681 459.353C975.852 479.86 976.255 501.998 975.649 522.75C972.78 621.091 938.401 715.192 880.238 794.256C865.662 814.071 848.393 832.504 830.425 849.284C762.03 913.157 674.697 956.197 582 970.018L545.009 974.021C543.142 969.739 537.328 965.377 533.893 962.083L518.465 947.042L462.25 891.415L410.99 840.25L350.334 781.013L318.006 748.71L284.496 715.785L272.207 703.894C269.717 701.467 266.702 698.906 265.096 695.787C251.738 683.765 238.845 671.309 227.176 657.613C214.354 642.566 202.913 625.837 193.042 608.726C188.833 601.432 184.223 593.746 181.161 585.901L181.069 585.897C176.018 576.792 169.481 564.415 167.744 554.057Z"/>
	<path fill="#73CBE9" transform="scale(0.488281 0.488281)" d="M853.065 366.953C854.338 373.54 854.584 380.418 854.638 387.113C856.322 398.045 855.483 410.468 855.228 421.544C853.564 493.805 828.604 566.951 785.784 625.314C776.93 637.381 767.921 649.128 757.829 660.201C703.252 720.092 629.447 762.631 548.941 774.735C454.553 788.926 355.243 763.084 278.735 706.343L265.096 695.787C251.738 683.765 238.845 671.309 227.176 657.613C214.354 642.566 202.913 625.837 193.042 608.726C188.833 601.432 184.223 593.746 181.161 585.901L181.069 585.897C176.018 576.792 169.481 564.415 167.744 554.057C169.725 555.66 170.673 559.302 171.787 561.589C189.301 597.519 225.47 619.583 262.08 632.198C314.632 650.304 370.231 653.553 425.27 649.46C510.046 643.155 593.301 619.777 669.589 582.473C719.198 558.216 765.521 525.087 801.55 483.041C814.797 467.58 826.917 450.895 836.004 432.609C839.94 424.687 843.099 416.308 845.76 407.877L849.417 395.422L849.596 394.921L850.789 388.997L853.065 366.953Z"/>
	<path fill="#259DDE" transform="scale(0.488281 0.488281)" d="M853.065 366.953C854.338 373.54 854.584 380.418 854.638 387.113C856.322 398.045 855.483 410.468 855.228 421.544C853.564 493.805 828.604 566.951 785.784 625.314C776.93 637.381 767.921 649.128 757.829 660.201C703.252 720.092 629.447 762.631 548.941 774.735C454.553 788.926 355.243 763.084 278.735 706.343L265.096 695.787C251.738 683.765 238.845 671.309 227.176 657.613C214.354 642.566 202.913 625.837 193.042 608.726C188.833 601.432 184.223 593.746 181.161 585.901C185.455 589.489 188.584 596.419 192.093 601C197.197 607.663 202.827 613.905 208.701 619.892C222.029 633.477 236.416 646.4 251.839 657.58C283.927 680.839 320.567 697.889 358.616 708.727C457.069 736.771 565.228 723.867 654.5 674.011C748.876 621.303 815.156 530.737 844.105 427.335C845.686 421.688 852.075 399.334 849.596 394.921L850.789 388.997L853.065 366.953Z"/>
	<path fill="#C9E1F3" transform="scale(0.488281 0.488281)" d="M167.744 554.057C162.73 540.771 161.262 526.312 162.58 512.217C163.973 497.324 168.367 482.957 174.25 469.266C191.711 428.631 223.072 395.604 256.644 367.682C327.273 308.939 416.703 272.968 506.102 254.928C558.233 244.409 612.17 239.586 665.25 244.564C701.014 247.918 736.265 255.052 769.348 269.289C786.746 276.776 803.919 286.402 818.121 299.056C823.036 303.436 827.542 308.219 831.625 313.381C833.86 316.206 835.777 319.332 838.093 322.074L838.559 322.62C846.57 336.857 851.509 350.594 853.065 366.953L850.789 388.997L849.596 394.921L849.417 395.422L845.76 407.877C843.099 416.308 839.94 424.687 836.004 432.609C826.917 450.895 814.797 467.58 801.55 483.041C765.521 525.087 719.198 558.216 669.589 582.473C593.301 619.777 510.046 643.155 425.27 649.46C370.231 653.553 314.632 650.304 262.08 632.198C225.47 619.583 189.301 597.519 171.787 561.589C170.673 559.302 169.725 555.66 167.744 554.057Z"/>
	<path fill="#074D92" transform="scale(0.488281 0.488281)" d="M474.464 589.3L431.414 595.308C397.864 598.575 363.771 597.945 330.577 591.836C315.903 589.135 301.16 585.491 287.277 579.964C258.353 568.448 229.151 551.173 216.493 521.278C206.085 496.697 210.469 469.831 220.297 445.837C225.539 433.042 233.075 421.124 241.347 410.094C260.01 385.211 282.986 365.636 308.445 348.116C335.707 329.355 364.784 313.91 395.295 301.099C428.61 287.111 463.665 276.096 499.016 268.622C536.612 260.673 575.697 256.788 614.121 257.338C651.495 257.873 689.884 262.59 724.678 276.893C752.52 288.338 777.775 305.128 789.642 334.011C798.362 355.236 796.822 378.408 787.991 399.42C781.389 415.127 772.413 428.756 761.73 441.976C731.961 478.817 691.013 506.858 649.531 528.894C634.562 536.845 619.412 544.354 603.7 550.727C600.699 553.197 594.974 554.42 591.289 555.921C570.182 564.519 548.958 571.503 527 577.592C509.777 582.368 492.187 586.809 474.464 589.3Z"/>
	<path fill="#0B8995" transform="scale(0.488281 0.488281)" d="M745.686 337.53C748.555 340.805 750.571 345.089 752.219 349.104C756.569 359.702 758.613 370.781 757.919 382.25C755.359 424.558 720.436 461.187 690.12 487.546C678.053 498.037 665.586 507.77 652.493 516.94C645.679 521.712 638.747 526.713 631.211 530.273L639.582 516.202C652.414 491.292 658.021 465.267 656.542 437.277C656.134 429.553 655.375 420.902 653.021 413.514C657.04 409.754 662.543 406.885 667.158 403.849L688.832 388.906C698.704 381.717 708.535 374.091 717.554 365.856L745.686 337.53Z"/>
	<path fill="#0B8995" transform="scale(0.488281 0.488281)" d="M243.219 486.278L271.75 491.483C304.856 495.941 339.344 495.708 372.649 493.959L372.964 494.109C374.516 499.589 376.946 505.093 379.335 510.258C391.28 536.079 412.541 559.617 437.432 573.606L451.107 580.538L450.32 580.697C443.385 582.001 434.804 581.164 427.648 581.148C411.993 581.113 396.493 579.445 381.006 577.276C346.18 572.398 311.428 562.957 281.892 543.156C268.211 533.984 255.571 521.531 248.853 506.236C246.047 499.849 244.548 493.094 243.219 486.278Z"/>
	<path fill="#6BCCC9" transform="scale(0.488281 0.488281)" d="M653.021 413.514C655.375 420.902 656.134 429.553 656.542 437.277C658.021 465.267 652.414 491.292 639.582 516.202L631.211 530.273C629.512 532.626 627.793 535.245 625.524 537.081C621.187 540.589 615.718 543.255 610.864 545.986C609.394 546.812 604.125 549.109 603.7 550.727C600.699 553.197 594.974 554.42 591.289 555.921C570.182 564.519 548.958 571.503 527 577.592C509.777 582.368 492.187 586.809 474.464 589.3C471.824 587.67 467.811 586.819 464.844 585.778L451.107 580.538L437.432 573.606C412.541 559.617 391.28 536.079 379.335 510.258C376.946 505.093 374.516 499.589 372.964 494.109L439.408 487.311L445.953 495.502C462.012 513.146 482.308 523.473 506.314 524.405C528.665 525.272 550.555 516.971 566.88 501.646C582.129 487.331 591.933 465.949 592.5 445.045C605.401 439.861 617.818 433.153 630 426.493C637.744 422.259 645.554 418.245 653.021 413.514Z"/>
	<path fill="#6BCCC9" transform="scale(0.488281 0.488281)" d="M243.219 486.278C242.602 482.197 243.082 477.571 243.539 473.5C247.996 433.8 279.641 399.745 309.516 375.874C332.023 357.89 356.519 343.291 382.255 330.443C417.889 312.654 455.419 298.692 494.415 290.308C511.313 286.676 528.667 284.244 545.85 282.469C572.03 279.763 599.173 279.084 625.368 282.049C660.108 285.981 699.284 294.838 726.887 317.462C734.08 323.358 739.919 330.288 745.686 337.53L717.554 365.856C708.535 374.091 698.704 381.717 688.832 388.906L667.158 403.849C662.543 406.885 657.04 409.754 653.021 413.514C643.886 375.609 620.828 344.118 587.603 323.706C555.64 304.068 514.422 296.774 477.858 305.582C466.922 308.216 455.778 311.845 445.665 316.818C420.473 329.206 400.112 349.429 385.602 373.224C366.014 405.346 360.565 445.819 369.452 482.204L372.649 493.959C339.344 495.708 304.856 495.941 271.75 491.483L243.219 486.278Z"/>
	<path fill="#ACEBE5" transform="scale(0.488281 0.488281)" d="M372.649 493.959L369.452 482.204C360.565 445.819 366.014 405.346 385.602 373.224C400.112 349.429 420.473 329.206 445.665 316.818C455.778 311.845 466.922 308.216 477.858 305.582C514.422 296.774 555.64 304.068 587.603 323.706C620.828 344.118 643.886 375.609 653.021 413.514C645.554 418.245 637.744 422.259 630 426.493C617.818 433.153 605.401 439.861 592.5 445.045C591.933 465.949 582.129 487.331 566.88 501.646C550.555 516.971 528.665 525.272 506.314 524.405C482.308 523.473 462.012 513.146 445.953 495.502L439.408 487.311L372.964 494.109L372.649 493.959Z"/>
	<path fill="#FEFEFE" transform="scale(0.488281 0.488281)" d="M439.408 487.311C427.308 467.514 422.655 446.308 427.74 423.391C432.384 402.462 444.622 384.636 462.798 373.25C482.184 361.106 506.561 357.27 528.75 362.549C551.407 367.94 568.891 381.864 581.161 401.344C586.061 409.124 590.027 418.534 591.54 427.625C592.515 433.48 592.507 439.127 592.5 445.045C591.933 465.949 582.129 487.331 566.88 501.646C550.555 516.971 528.665 525.272 506.314 524.405C482.308 523.473 462.012 513.146 445.953 495.502L439.408 487.311Z"/>
	<path fill="#259DDE" transform="scale(0.488281 0.488281)" d="M447.285 437.27C452.029 443.747 457.62 448.907 465.362 451.496C474.954 454.704 486.237 454.49 495.293 449.785C504.108 445.205 510.641 437.144 513.547 427.69C516.377 418.482 515.543 407.555 511.004 399.044C504.981 387.75 495.952 382.99 484.182 379.343C494.863 376.197 505.225 374.425 516.382 375.474C535.589 378.147 552.861 386.134 564.757 401.971C575.249 415.939 579.985 435.37 577.504 452.582C575.057 469.554 564.72 486.26 550.975 496.405C535.778 507.623 516.513 512.408 497.875 509.446C480.105 506.621 463.382 496.288 452.886 481.631C441.775 466.116 437.516 446.725 440.739 427.987L441.731 422.33C442.821 427.752 444.208 432.597 447.285 437.27Z"/>
	<path fill="#73CBE9" transform="scale(0.488281 0.488281)" d="M447.285 437.27C452.029 443.747 457.62 448.907 465.362 451.496C474.954 454.704 486.237 454.49 495.293 449.785C504.108 445.205 510.641 437.144 513.547 427.69C516.377 418.482 515.543 407.555 511.004 399.044C504.981 387.75 495.952 382.99 484.182 379.343C494.863 376.197 505.225 374.425 516.382 375.474L516.931 376.284C517.607 377.231 518.231 377.6 519.211 378.167C532.4 385.797 541.374 399.892 545.049 414.469C548.969 430.018 547.25 445.466 538.822 459.203C531.639 470.911 519.923 479.66 506.525 482.827C493.572 485.888 479.193 485.068 467.686 477.867C456.855 471.088 449.738 460.4 447.021 448.012C446.291 444.686 445.508 440.327 447.285 437.27Z"/>
</svg>
