<?xml version="1.0" encoding="utf-8" ?>
<svg xmlns="http://www.w3.org/2000/svg" xmlns:xlink="http://www.w3.org/1999/xlink" width="500" height="500">
	<path fill="#352C6F" transform="scale(0.488281 0.488281)" d="M-0 -0L1024 0L1024 1024L-0 1024L0 -0Z"/>
	<path fill="#0C0658" transform="scale(0.488281 0.488281)" d="M844.329 142.395C846.928 141.037 852.125 141.479 855.134 141.481L854.953 165.987L851.906 166.03L844.41 165.967L844.329 142.395Z"/>
	<path fill="#0C0658" transform="scale(0.488281 0.488281)" d="M768.901 800.055C774.823 805.938 778.376 806.076 786.196 806.044C786.697 806.042 787.204 806.079 787.697 805.987C785.838 813.771 783.913 821.861 780.641 829.19C776.906 828.431 773.719 827.141 771.093 824.256C766.357 819.053 768.378 806.73 768.901 800.055Z"/>
	<path fill="#7AD7C1" transform="scale(0.488281 0.488281)" d="M830.501 165.469C831.699 162.642 830.877 156.287 830.856 153.111L830.655 117.102L844.049 117.084L844.329 142.395L844.41 165.967L830.499 165.849L830.501 165.469Z"/>
	<path fill="#7AD7C1" transform="scale(0.488281 0.488281)" d="M773.514 165.822L773.491 116.694L787.067 116.701L787.025 165.634L773.514 165.822Z"/>
	<path fill="#0C0658" transform="scale(0.488281 0.488281)" d="M787.488 165.642L787.545 141.857L830.365 141.341L830.501 165.469L830.499 165.849L787.488 165.642Z"/>
	<path fill="#B70D57" transform="scale(0.488281 0.488281)" d="M821.867 649.919C821.96 654.001 821.249 677.999 822.5 679.46L826.241 679.392C832.26 679.391 840.443 678.054 845.024 682.803C848.1 685.992 848.426 690.086 848.445 694.272C852.109 697.332 855.268 700.456 855.87 705.46C856.147 707.771 856.094 710.488 855.158 712.623L854.888 713.261C853.429 716.565 850.689 719.34 847.678 721.285C847.283 720.262 846.859 719.255 846.231 718.349C844.138 715.334 840.549 713.732 837.008 713.186C833.835 712.698 830.257 712.963 827.047 712.96L809.56 712.949L788.341 712.959C784.391 712.965 780.152 712.663 776.25 713.214C773.891 713.548 772.392 714.492 770.535 715.928L769.819 714.995C767.048 711.151 767.564 702.877 768.279 698.212L768.296 698.084C767.996 696.6 767.52 695.256 767.448 693.718C767.272 689.98 768.063 686.763 770.717 683.954C776.871 677.438 789.189 679.839 797.394 679.764L821.61 679.619L821.867 649.919Z"/>
	<path fill="#0C0658" transform="scale(0.488281 0.488281)" d="M848.445 694.272C852.109 697.332 855.268 700.456 855.87 705.46C856.147 707.771 856.094 710.488 855.158 712.623L854.888 713.261C853.429 716.565 850.689 719.34 847.678 721.285C847.283 720.262 846.859 719.255 846.231 718.349C844.138 715.334 840.549 713.732 837.008 713.186C833.835 712.698 830.257 712.963 827.047 712.96L809.56 712.949L788.341 712.959C784.391 712.965 780.152 712.663 776.25 713.214C773.891 713.548 772.392 714.492 770.535 715.928L769.819 714.995C767.048 711.151 767.564 702.877 768.279 698.212C770.3 701.229 772.774 704.019 776.347 705.16C778.184 705.747 780.714 705.493 782.631 705.5L794.833 705.475L821.031 705.428C825.889 705.411 830.881 705.622 835.716 705.199C837.618 705.033 839.064 704.625 840.751 703.757C844.967 701.59 847.05 698.769 848.445 694.272Z"/>
	<path fill="#B70D57" transform="scale(0.488281 0.488281)" d="M848.155 762.942L848.348 763.332C849.326 765.245 850.725 766.472 851.999 768.148C855.477 772.726 856.356 777.63 854.601 783.079C853.406 786.789 851.194 789.944 848.531 792.747C847.966 795.128 847.486 797.553 846.617 799.844C843.461 803.552 840.479 805.923 835.369 806.23L827.223 806.02L809.764 805.777L806.663 805.796L787.697 805.987C787.204 806.079 786.697 806.042 786.196 806.044C778.376 806.076 774.823 805.938 768.901 800.055C768.19 798.931 767.514 797.767 767.018 796.529C765.484 792.696 766.862 789.505 768.407 786.021L768.016 766.072C769.444 767.886 771.303 769.45 773.422 770.385C774.95 771.06 776.491 771.283 778.141 771.418C788.276 772.25 799.062 771.539 809.26 771.563L827.18 771.694C831.296 771.782 837.415 772.628 841.247 771.002C844.874 769.464 846.778 766.473 848.155 762.942Z"/>
	<path fill="#0C0658" transform="scale(0.488281 0.488281)" d="M848.155 762.942L848.348 763.332C849.326 765.245 850.725 766.472 851.999 768.148C855.477 772.726 856.356 777.63 854.601 783.079C853.406 786.789 851.194 789.944 848.531 792.747C847.947 788.287 846.559 784.991 842.876 782.139C841.579 781.134 839.877 780.349 838.248 780.102C833.836 779.435 828.959 779.72 824.477 779.663L798.367 779.468L784.755 779.414C782.41 779.412 779.756 779.219 777.463 779.652C773.165 780.465 770.872 782.642 768.407 786.021L768.016 766.072C769.444 767.886 771.303 769.45 773.422 770.385C774.95 771.06 776.491 771.283 778.141 771.418C788.276 772.25 799.062 771.539 809.26 771.563L827.18 771.694C831.296 771.782 837.415 772.628 841.247 771.002C844.874 769.464 846.778 766.473 848.155 762.942Z"/>
	<path fill="#B70D57" transform="scale(0.488281 0.488281)" d="M770.535 715.928C772.392 714.492 773.891 713.548 776.25 713.214C780.152 712.663 784.391 712.965 788.341 712.959L809.56 712.949L827.047 712.96C830.257 712.963 833.835 712.698 837.008 713.186C840.549 713.732 844.138 715.334 846.231 718.349C846.859 719.255 847.283 720.262 847.678 721.285L848.2 729.018C850.2 729.804 854.153 735.99 855.048 738.094C856.098 740.561 855.933 742.92 855.528 745.5L855.445 746.06C854.692 750.735 851.068 754.383 848.8 758.376C848.579 759.812 848.146 761.506 848.155 762.942C846.778 766.473 844.874 769.464 841.247 771.002C837.415 772.628 831.296 771.782 827.18 771.694L809.26 771.563C799.062 771.539 788.276 772.25 778.141 771.418C776.491 771.283 774.95 771.06 773.422 770.385C771.303 769.45 769.444 767.886 768.016 766.072L766.666 762.931C765.217 758.798 767.212 755.38 769.026 751.773C768.148 746.091 768.187 739.515 768.555 733.778C767.701 731.599 766.812 729.26 766.583 726.921C766.13 722.298 767.795 719.438 770.535 715.928Z"/>
	<path fill="#0C0658" transform="scale(0.488281 0.488281)" d="M848.2 729.018C850.2 729.804 854.153 735.99 855.048 738.094C856.098 740.561 855.933 742.92 855.528 745.5L855.445 746.06C854.692 750.735 851.068 754.383 848.8 758.376C848.001 755.056 846.724 752.2 844.135 749.881C842.557 748.467 840.257 747.161 838.167 746.718C831.551 745.316 823.15 746.103 816.328 746.058L779.709 746.107C774.675 746.346 772.279 748.249 769.026 751.773C768.148 746.091 768.187 739.515 768.555 733.778C770.383 735.327 772.473 736.72 774.776 737.454C779.019 738.806 784.259 738.368 788.691 738.406L811.806 738.564C820.4 738.611 829.723 739.367 838.25 738.521C839.321 738.414 840.145 738.132 841.104 737.654C844.916 735.755 846.869 732.954 848.2 729.018Z"/>
	<path fill="#B70D57" transform="scale(0.488281 0.488281)" d="M770.535 715.928C772.392 714.492 773.891 713.548 776.25 713.214C780.152 712.663 784.391 712.965 788.341 712.959L809.56 712.949L827.047 712.96C830.257 712.963 833.835 712.698 837.008 713.186C840.549 713.732 844.138 715.334 846.231 718.349C846.859 719.255 847.283 720.262 847.678 721.285L848.2 729.018C846.869 732.954 844.916 735.755 841.104 737.654C840.145 738.132 839.321 738.414 838.25 738.521C829.723 739.367 820.4 738.611 811.806 738.564L788.691 738.406C784.259 738.368 779.019 738.806 774.776 737.454C772.473 736.72 770.383 735.327 768.555 733.778C767.701 731.599 766.812 729.26 766.583 726.921C766.13 722.298 767.795 719.438 770.535 715.928Z"/>
	<path fill="#0C0658" transform="scale(0.488281 0.488281)" d="M884.403 203.717L884.746 195.646L886.895 200.699C887.699 202.674 887.631 205.029 887.718 207.142L887.875 220.341L887.688 258.679C887.597 266.858 887.984 275.281 887.362 283.428C887.127 286.511 886.304 289.683 885.024 292.489C881.856 299.436 876.418 304.933 869.241 307.688C865.376 309.172 859.601 308.993 855.447 309.011L855.485 343.443C855.482 349.781 856.193 357.1 854.802 363.288C853.408 369.487 849.902 376.05 845.477 380.632C843.079 383.114 838.897 384.964 836.898 387.457C836.85 387.516 836.842 389.101 836.838 389.22L836.487 406.519L836.75 679.057C833.352 679.076 829.57 678.78 826.241 679.392L822.5 679.46C821.249 677.999 821.96 654.001 821.867 649.919L821.977 364.592C828.137 364.201 836.812 358.444 841.125 354.124C845.95 349.29 849.405 343.117 850.997 336.475C852.591 329.826 852.064 322.374 852.078 315.561L851.994 283.859C861.361 284.001 869.015 282.674 875.89 275.896C879.606 272.232 882.342 267.652 883.487 262.531C885.016 255.695 884.251 247.591 884.275 240.552L884.403 203.717Z"/>
	<path fill="#0C0658" transform="scale(0.488281 0.488281)" d="M582.195 220.453C584.582 222.579 585.789 226.28 587.19 229.125C595.354 245.703 599.301 263.333 602.417 281.42C604.685 294.59 606.489 307.713 607.329 321.061C608.986 347.392 605.043 373.992 598.407 399.414C591.782 424.796 582.42 449.341 570.443 472.703C563.144 486.94 554.534 500.493 545.984 514L535.083 530.061C532.764 533.258 530.191 536.391 528.189 539.796C527.757 540.531 526.724 542 526.596 542.751C526.406 543.865 527.498 545.567 527.957 546.55L532.239 555.774C534.084 560.065 535.693 564.537 537.063 569C548.304 605.636 551.362 646.087 542.552 683.603C538.322 701.615 531.057 719.143 522.487 735.5L514.461 750C513.058 752.61 512.001 755.728 510.265 758.09L490.702 723.322L491.559 722.241L495.977 730.68C515.377 701.766 530.283 668.268 534.801 633.515C539.629 596.38 532.396 555.072 515.184 521.729C508.499 508.78 499.506 496.412 490.659 484.872L491.727 483.512L502.531 497.557C503.135 498.416 503.791 499.662 504.529 500.375L514.29 515.814C520.937 505.345 529.106 495.611 536.206 485.404C550.485 464.878 563.362 442.336 573.354 419.42C596.484 366.372 608.762 309.158 593.64 252.121C590.743 241.197 586.316 230.936 582.195 220.453Z"/>
	<path fill="#FEBB3B" transform="scale(0.488281 0.488281)" d="M797.352 396.711L797.313 364.812L821.977 364.592L821.867 649.919L821.61 679.619L797.394 679.764L797.352 396.711Z"/>
	<path fill="#FEBB3B" transform="scale(0.488281 0.488281)" d="M232.288 410.032C227.063 411.916 221.876 414.957 217.173 417.881C213.973 407.87 212.056 397.362 210.371 387C204.08 348.334 203.931 307.311 212.491 269C225.056 212.762 255.817 163.715 305.07 132.768C344.941 107.716 398.428 99.2829 444.353 109.924C492.459 121.07 536.21 148.763 564.528 189.5C569.201 196.223 573.351 203.273 577.164 210.513C578.759 213.541 579.956 216.97 581.785 219.826L582.195 220.453C586.316 230.936 590.743 241.197 593.64 252.121C608.762 309.158 596.484 366.372 573.354 419.42C563.362 442.336 550.485 464.878 536.206 485.404C529.106 495.611 520.937 505.345 514.29 515.814L504.529 500.375C503.791 499.662 503.135 498.416 502.531 497.557L529.847 458.038C565.571 400.256 591.157 328.844 574.907 260.551C563.784 213.803 534.474 175.6 493.604 150.658C456.246 127.858 406.344 119.136 363.76 129.632C317.789 140.963 281.011 168.779 256.667 209.275C226.723 259.085 221.09 316.888 228.678 373.5C230.255 385.265 232.044 397.378 234.893 408.905L232.288 410.032Z"/>
	<path fill="#E23B28" transform="scale(0.488281 0.488281)" d="M232.288 410.032C228.519 399.958 227.046 387.63 225.478 377C218.095 326.961 221.251 275.055 242.467 228.503C262.2 185.206 296.514 149.443 341.574 132.713C385.79 116.297 435.289 119.04 477.972 138.829C521.592 159.053 556.235 194.945 572.713 240.344C584.85 273.782 585.901 308.616 579.865 343.394C578.55 350.972 577.265 358.488 575.25 365.923C570.014 385.245 562.032 404.819 553.513 422.917C544.786 441.459 533.876 459.875 522.113 476.636C516.535 484.584 509.572 492.153 504.529 500.375C503.791 499.662 503.135 498.416 502.531 497.557L529.847 458.038C565.571 400.256 591.157 328.844 574.907 260.551C563.784 213.803 534.474 175.6 493.604 150.658C456.246 127.858 406.344 119.136 363.76 129.632C317.789 140.963 281.011 168.779 256.667 209.275C226.723 259.085 221.09 316.888 228.678 373.5C230.255 385.265 232.044 397.378 234.893 408.905L232.288 410.032Z"/>
	<path fill="#FEBB3B" transform="scale(0.488281 0.488281)" d="M234.893 408.905C232.044 397.378 230.255 385.265 228.678 373.5C221.09 316.888 226.723 259.085 256.667 209.275C281.011 168.779 317.789 140.963 363.76 129.632C406.344 119.136 456.246 127.858 493.604 150.658C534.474 175.6 563.784 213.803 574.907 260.551C591.157 328.844 565.571 400.256 529.847 458.038L502.531 497.557L491.727 483.512C491.549 483.054 491.156 482.629 491.192 482.14C491.2 482.041 510.605 455.465 512.841 452.121C529.375 427.387 541.598 400.445 550.714 372.184C557.496 351.159 562.517 329.847 563.042 307.672L562.414 307.039C561.182 305.68 561.213 303.468 561.008 301.737L559.143 287.189C558.547 283.432 557.727 279.644 556.75 275.967C540.685 215.478 487.229 171.859 425.609 164.505C389.713 160.221 353.04 170.956 324.649 193.271C281.287 227.352 257.439 281.374 251.159 335.25C249.706 347.718 249.286 360.813 250.137 373.332C250.831 383.545 252.427 393.991 252.626 404.197C251.212 404.609 249.773 404.972 248.42 405.558L247.231 404.772C243.115 405.438 238.719 407.248 234.893 408.905Z"/>
	<path fill="#0C0658" transform="scale(0.488281 0.488281)" d="M247.231 404.772C248.239 404.421 249.094 404.131 249.962 403.5C249.794 400.229 248.544 396.719 247.847 393.504L245.017 377.676C242.01 357.423 241.279 337.054 242.029 316.61C243.829 267.547 262.344 215.657 299.013 181.854C319.719 162.766 346.767 148.932 374.616 144.25C386.977 142.172 399.421 141.877 411.916 142.43C453.609 144.276 493.633 164.801 521.547 195.361C548.828 225.228 564.827 267.134 563.042 307.672L562.414 307.039C561.182 305.68 561.213 303.468 561.008 301.737L559.143 287.189C558.547 283.432 557.727 279.644 556.75 275.967C540.685 215.478 487.229 171.859 425.609 164.505C389.713 160.221 353.04 170.956 324.649 193.271C281.287 227.352 257.439 281.374 251.159 335.25C249.706 347.718 249.286 360.813 250.137 373.332C250.831 383.545 252.427 393.991 252.626 404.197C251.212 404.609 249.773 404.972 248.42 405.558L247.231 404.772Z"/>
	<path fill="#DF4C6A" transform="scale(0.488281 0.488281)" d="M787.025 165.634L787.488 165.642L830.499 165.849L844.41 165.967L851.906 166.03L854.953 165.987C863.666 166.298 871.282 167.87 877.51 174.5C886.166 183.715 883.134 192.694 884.403 203.717L884.275 240.552C884.251 247.591 885.016 255.695 883.487 262.531C882.342 267.652 879.606 272.232 875.89 275.896C869.015 282.674 861.361 284.001 851.994 283.859L852.078 315.561C852.064 322.374 852.591 329.826 850.997 336.475C849.405 343.117 845.95 349.29 841.125 354.124C836.812 358.444 828.137 364.201 821.977 364.592L797.313 364.812L797.352 396.711L797.181 392.116C794.764 391.14 792.437 389.744 790.225 388.368C780.878 382.553 772.623 372.488 770.162 361.544C769.116 356.895 769.018 352.058 768.965 347.313C768.943 345.419 768.667 343.579 769.733 341.929L767.85 335.25C765.888 327.129 766.615 317.473 766.526 309.088C761.5 309.076 755.533 308.455 750.969 306.255C744.913 303.337 739.22 297.393 737.153 290.951C735.389 285.456 735.699 279.374 735.606 273.671C735.567 271.288 735.077 268.261 736.192 266.102C735.663 264.308 735.432 262.62 735.408 260.75L735.3 212.363L735.228 195.583C735.219 192.223 734.938 188.312 735.646 185.026C736.519 180.969 738.817 176.949 741.711 174.002C749.058 166.519 757.079 166.121 766.883 166.06L773.514 165.822L787.025 165.634Z"/>
	<path fill="#0C0658" transform="scale(0.488281 0.488281)" d="M797.181 392.116C794.764 391.14 792.437 389.744 790.225 388.368C780.878 382.553 772.623 372.488 770.162 361.544C769.116 356.895 769.018 352.058 768.965 347.313C768.943 345.419 768.667 343.579 769.733 341.929C774.542 352.268 781.204 359.416 792.094 363.424L796.991 365.144L797.181 392.116Z"/>
	<path fill="#0C0658" transform="scale(0.488281 0.488281)" d="M736.192 266.102C739.566 273.953 744.014 279.012 752.013 282.275C756.844 284.245 761.083 284.074 766.197 283.95L766.526 309.088C761.5 309.076 755.533 308.455 750.969 306.255C744.913 303.337 739.22 297.393 737.153 290.951C735.389 285.456 735.699 279.374 735.606 273.671C735.567 271.288 735.077 268.261 736.192 266.102Z"/>
	<path fill="#FEBB3B" transform="scale(0.488281 0.488281)" d="M787.025 165.634L787.488 165.642L830.499 165.849L844.41 165.967L851.906 166.03L851.88 283.969L792.097 283.839L775.386 283.83C772.57 283.837 769.342 284.162 766.581 283.76C766.076 280.432 766.46 276.492 766.464 273.102L766.495 250.587L766.883 166.06L773.514 165.822L787.025 165.634Z"/>
	<path fill="#352C6F" transform="scale(0.488281 0.488281)" d="M252.626 404.197C252.427 393.991 250.831 383.545 250.137 373.332C249.286 360.813 249.706 347.718 251.159 335.25C257.439 281.374 281.287 227.352 324.649 193.271C353.04 170.956 389.713 160.221 425.609 164.505C487.229 171.859 540.685 215.478 556.75 275.967C557.727 279.644 558.547 283.432 559.143 287.189L561.008 301.737C561.213 303.468 561.182 305.68 562.414 307.039L563.042 307.672C562.517 329.847 557.496 351.159 550.714 372.184C541.598 400.445 529.375 427.387 512.841 452.121C510.605 455.465 491.2 482.041 491.192 482.14C491.156 482.629 491.549 483.054 491.727 483.512L490.659 484.872C473.1 464.249 452.607 445.924 428.98 432.468C376.459 402.559 312.025 387.927 252.626 404.197Z"/>
	<path fill="#0C0658" transform="scale(0.488281 0.488281)" d="M252.626 404.197C312.025 387.927 376.459 402.559 428.98 432.468C452.607 445.924 473.1 464.249 490.659 484.872C499.506 496.412 508.499 508.78 515.184 521.729C532.396 555.072 539.629 596.38 534.801 633.515C530.283 668.268 515.377 701.766 495.977 730.68L491.559 722.241L490.702 723.322L510.265 758.09C541.305 811.101 587.074 864.327 648.75 880.326C681.788 888.895 715.538 886.195 745.185 868.711C760.098 859.916 773.953 845.311 780.641 829.19C783.913 821.861 785.838 813.771 787.697 805.987L806.663 805.796L809.764 805.777L827.223 806.02L835.369 806.23C840.479 805.923 843.461 803.552 846.617 799.844L846.954 800.056L850 802.023C853.282 804.564 855.78 807.861 856.107 812.103C856.463 816.704 855.539 821.137 852.453 824.719C849.017 828.706 844.484 828.592 839.643 828.988L837.586 837.134C827.273 875.106 804.258 909.141 769.627 928.75C729.612 951.408 680.422 953.619 636.782 941.27C579.116 924.951 533.613 881.072 499.731 833.317C494.268 825.616 488.191 818.142 483.572 809.896C480.834 811.723 478.511 815.215 476.281 817.694L467.011 827.195C451.655 842.6 434.798 856.128 415.546 866.36C404.409 872.28 393.024 877.671 381.056 881.709C346.831 893.256 308.539 895.15 273.859 884.457C232.342 871.655 197.157 844.834 176.676 806.131C165.965 785.891 158.898 763.335 157.184 740.453C156.879 736.383 156.24 731.209 157.46 727.261L158.309 727.107C154.854 691.685 163.449 658.256 176.122 625.435C175.702 625.124 175.472 625.003 175.174 624.5C173.85 622.27 172.98 618.667 171.951 616.216C164.542 598.572 159.128 581.559 156.972 562.472C156.341 556.886 155.637 550.265 156.742 544.75L157.873 544.052C156.2 521.527 156.968 499.643 166.257 478.688C177.156 454.101 195.898 431.97 219.388 418.518C228.734 413.166 238.405 409.396 248.42 405.558C249.773 404.972 251.212 404.609 252.626 404.197Z"/>
	<path fill="#5F0455" transform="scale(0.488281 0.488281)" d="M422.487 688.193C424.202 687.316 425.776 686.327 427.75 686.293C430.05 687.644 431.282 692.321 432.2 694.809C433.141 696.221 434.035 697.69 435.137 698.979L438.564 707.318C439.907 710.29 442.029 713.102 442.258 716.402C439.253 712.854 437.011 708.183 434.693 704.145C434.33 702.916 433.628 702.027 432.888 701.006L427.245 693.408L422.632 688.406L422.487 688.193Z"/>
	<path fill="#352C6F" transform="scale(0.488281 0.488281)" d="M256.343 651.069C257.109 649.99 257.831 648.944 258.455 647.777C260.461 644.02 263.724 640.866 266.468 637.652C280.121 621.659 295.002 607.541 312.984 596.432C315.898 594.632 319.308 592.213 322.578 591.176L323.043 591.058L341.132 604.956L358.551 618.958C371.548 630.354 383.905 643.205 395.527 656L411.35 674.384L417.341 682.159C418.759 684.195 420.263 687.016 422.487 688.193L422.632 688.406C409.594 693.72 395.252 696.178 381.25 696.791C345.875 698.338 310.966 687.295 281.015 668.89C272.3 663.534 263.912 658.007 256.343 651.069Z"/>
	<path fill="#FEBB3B" transform="scale(0.488281 0.488281)" d="M176.122 625.435L180.621 616.063L191.477 634.018C192.229 635.138 193.382 636.499 193.925 637.706L205.984 653.364C195.282 682.143 190.493 716.78 200.22 746.508C209.967 775.411 230.16 799.009 257.624 812.589C293.161 830.161 332.55 830.64 369.674 817.948C397.742 808.353 422.578 790.855 442.727 769.218C448.373 763.155 454.172 756.564 458.463 749.451L459.5 748.518C461.349 749.807 462.242 753.071 463.62 754.925L468.438 763.418L470.121 766.279L470.189 766.636L476.45 776.897C477.532 778.625 479.139 780.581 479.573 782.582L478.781 783.649C474.233 789.452 468.963 794.957 463.844 800.261C430.269 835.047 387.984 857.487 339.658 863.052C294.157 868.292 248.433 854.776 212.847 826.146C182.494 801.726 162.428 765.834 158.309 727.107C154.854 691.685 163.449 658.256 176.122 625.435Z"/>
	<path fill="#E23B28" transform="scale(0.488281 0.488281)" d="M191.477 634.018C192.229 635.138 193.382 636.499 193.925 637.706C177.249 675.359 172.001 719.34 186.965 758.395C198.806 789.303 225.538 816.017 255.732 829.275C297.306 847.531 342.994 846.76 384.999 830.236C418.436 817.082 447.37 792.163 468.438 763.418L470.121 766.279L470.189 766.636C468.579 767.783 467.263 770.373 466.02 772C463.077 775.853 460.068 779.797 456.772 783.35C438.382 803.179 416.881 819.636 392.119 830.66C353.553 847.829 305.642 852.111 265.825 836.773C229.685 822.851 200.138 797.73 184.537 761.831C170.886 730.417 172.297 693.921 181.53 661.553C184.213 652.145 187.844 643.092 191.477 634.018Z"/>
	<path fill="#FEBB3B" transform="scale(0.488281 0.488281)" d="M193.925 637.706L205.984 653.364C195.282 682.143 190.493 716.78 200.22 746.508C209.967 775.411 230.16 799.009 257.624 812.589C293.161 830.161 332.55 830.64 369.674 817.948C397.742 808.353 422.578 790.855 442.727 769.218C448.373 763.155 454.172 756.564 458.463 749.451L459.5 748.518C461.349 749.807 462.242 753.071 463.62 754.925L468.438 763.418C447.37 792.163 418.436 817.082 384.999 830.236C342.994 846.76 297.306 847.531 255.732 829.275C225.538 816.017 198.806 789.303 186.965 758.395C172.001 719.34 177.249 675.359 193.925 637.706Z"/>
	<path fill="#352C6F" transform="scale(0.488281 0.488281)" d="M200.22 746.508L200.299 745.949C200.965 740.271 199.168 734.235 199.084 728.5C198.879 714.386 201.285 699.352 205.307 685.843C206.805 680.81 208.525 675.28 210.945 670.619C220.38 681.537 230.492 692.454 241.46 701.831C278.49 733.487 325.364 752.995 373.967 756.677C388.862 757.806 405.063 757.263 419.643 753.841C431.162 751.138 441.767 746.691 452.485 741.814C453.663 743.524 456.132 748.907 457.838 749.402L458.463 749.451C454.172 756.564 448.373 763.155 442.727 769.218C422.578 790.855 397.742 808.353 369.674 817.948C332.55 830.64 293.161 830.161 257.624 812.589C230.16 799.009 209.967 775.411 200.22 746.508Z"/>
	<path fill="#FEBB3B" transform="scale(0.488281 0.488281)" d="M377.06 569.527C380.653 570.807 383.823 574.054 386.626 576.571L400.408 589.36C410.402 599.687 420.299 610.023 429.238 621.298C445.216 641.454 458.204 663.693 470.78 686.064L484.368 711.39C486.413 715.281 488.265 719.687 490.702 723.322L510.265 758.09C541.305 811.101 587.074 864.327 648.75 880.326C681.788 888.895 715.538 886.195 745.185 868.711C760.098 859.916 773.953 845.311 780.641 829.19C783.913 821.861 785.838 813.771 787.697 805.987L806.663 805.796L809.764 805.777L827.223 806.02L825.924 814.478C819.306 847.417 798.235 878.019 770.261 896.566C733.952 920.639 689.866 926.746 647.531 918.063C605.091 909.358 566.896 884.792 537.142 853.814C516.495 832.318 499.218 807.737 482.871 782.905L472.496 765.298L467.129 755.963L444.211 711.446L438.3 700.193C434.583 692.166 429.678 684.493 424.984 677C412.433 656.969 397.491 637.789 381.03 620.806C367.213 606.549 352.272 593.74 336.973 581.14C335.257 579.819 333.788 577.994 332.304 576.415L336.856 574.723C342.797 575.709 349.302 571.317 355.075 573.326L356.99 572.581C360.8 571.517 364.74 570.956 368.675 570.59C371.421 570.334 374.437 570.362 377.06 569.527Z"/>
	<path fill="#B70D57" transform="scale(0.488281 0.488281)" d="M336.856 574.723C342.797 575.709 349.302 571.317 355.075 573.326L354.554 574.025C349.599 574.428 340.86 578.089 336.973 581.14C335.257 579.819 333.788 577.994 332.304 576.415L336.856 574.723Z"/>
	<path fill="#E23B28" transform="scale(0.488281 0.488281)" d="M355.075 573.326L356.99 572.581C357.768 573.517 358.468 574.056 359.479 574.732C363.933 577.705 367.922 581.591 371.884 585.185L387.11 599.08C400.703 612.085 413.672 625.741 424.691 641.028C436.228 657.033 447.101 674.366 456.402 691.755L479.862 737.774C498.53 772.495 520.585 806.123 547.55 834.978C557.507 845.634 567.974 855.867 579.654 864.642C590.908 873.098 603.357 880.316 616.086 886.28C645.378 900.004 680.114 905.279 711.987 899.133C742.706 893.21 771.414 875.761 788.933 849.546C797.892 836.141 802.948 821.367 806.663 805.796L809.764 805.777C805.784 825.108 800.216 842.271 787.686 857.943C766.465 884.485 736.23 900.678 702.459 904.378C671.93 907.723 640.042 902.105 612.306 888.908C581.898 874.44 555.188 851.067 533.594 825.514C515.144 803.68 499.476 779.152 485.177 754.456L455.089 696.695C446.71 680.784 437.319 665.334 427.202 650.465C407.561 621.597 381.785 595.84 354.554 574.025L355.075 573.326Z"/>
	<path fill="#FEBB3B" transform="scale(0.488281 0.488281)" d="M377.06 569.527C380.653 570.807 383.823 574.054 386.626 576.571L400.408 589.36C410.402 599.687 420.299 610.023 429.238 621.298C445.216 641.454 458.204 663.693 470.78 686.064L484.368 711.39C486.413 715.281 488.265 719.687 490.702 723.322L510.265 758.09C541.305 811.101 587.074 864.327 648.75 880.326C681.788 888.895 715.538 886.195 745.185 868.711C760.098 859.916 773.953 845.311 780.641 829.19C783.913 821.861 785.838 813.771 787.697 805.987L806.663 805.796C802.948 821.367 797.892 836.141 788.933 849.546C771.414 875.761 742.706 893.21 711.987 899.133C680.114 905.279 645.378 900.004 616.086 886.28C603.357 880.316 590.908 873.098 579.654 864.642C567.974 855.867 557.507 845.634 547.55 834.978C520.585 806.123 498.53 772.495 479.862 737.774L456.402 691.755C447.101 674.366 436.228 657.033 424.691 641.028C413.672 625.741 400.703 612.085 387.11 599.08L371.884 585.185C367.922 581.591 363.933 577.705 359.479 574.732C358.468 574.056 357.768 573.517 356.99 572.581C360.8 571.517 364.74 570.956 368.675 570.59C371.421 570.334 374.437 570.362 377.06 569.527Z"/>
	<path fill="#FEBB3B" transform="scale(0.488281 0.488281)" d="M252.626 404.197C312.025 387.927 376.459 402.559 428.98 432.468C452.607 445.924 473.1 464.249 490.659 484.872C499.506 496.412 508.499 508.78 515.184 521.729C532.396 555.072 539.629 596.38 534.801 633.515C530.283 668.268 515.377 701.766 495.977 730.68L491.559 722.241L490.702 723.322C488.265 719.687 486.413 715.281 484.368 711.39L470.78 686.064C458.204 663.693 445.216 641.454 429.238 621.298C420.299 610.023 410.402 599.687 400.408 589.36L386.626 576.571C383.823 574.054 380.653 570.807 377.06 569.527C374.437 570.362 371.421 570.334 368.675 570.59C364.74 570.956 360.8 571.517 356.99 572.581L355.075 573.326C349.302 571.317 342.797 575.709 336.856 574.723L332.304 576.415C323.267 580.708 313.928 585.37 305.501 590.75C285.929 603.246 269.086 619.129 254.352 636.983C253.552 637.953 250.263 642.448 249.377 642.395L238.048 629.512L236.566 627.548C232.642 623.317 229.308 618.142 225.901 613.473L225.446 615.785C234.496 628.744 244.884 640.215 256.343 651.069C263.912 658.007 272.3 663.534 281.015 668.89C310.966 687.295 345.875 698.338 381.25 696.791C395.252 696.178 409.594 693.72 422.632 688.406L427.245 693.408L432.888 701.006C433.628 702.027 434.33 702.916 434.693 704.145C437.011 708.183 439.253 712.854 442.258 716.402L443.167 718.183L443.483 718.768L443.117 719.649C429.828 725.502 415.546 730.168 401.14 732.224C344.74 740.271 286.337 719.649 241.473 685.975C226.52 674.752 213.876 661.137 202.585 646.295C179.589 616.07 163.256 581.884 157.873 544.052C156.2 521.527 156.968 499.643 166.257 478.688C177.156 454.101 195.898 431.97 219.388 418.518C228.734 413.166 238.405 409.396 248.42 405.558C249.773 404.972 251.212 404.609 252.626 404.197Z"/>
	<path fill="#0C0658" transform="scale(0.488281 0.488281)" d="M261.028 440.215C270.04 437.832 278.838 435.822 288.138 434.919C330.07 430.849 375.087 443.341 411.232 464.262C450.88 487.211 481.448 523.708 493.163 568.356C495.068 575.617 497.352 583.654 497.601 591.168C496.095 589.251 495.563 585.877 494.75 583.545L490.912 573.762C485.422 560.922 478.341 547.662 469.764 536.612C455.987 518.864 439.515 502.815 420.858 490.24C392.31 470.998 357.658 458.952 323.569 454.663C308.31 452.744 293.493 452.846 278.263 454.929C275.741 455.274 271.542 455.423 269.508 457C269.758 458.056 269.825 459.042 269.894 460.121L261.028 440.215Z"/>
	<path fill="#352C6F" transform="scale(0.488281 0.488281)" d="M269.894 460.121C269.825 459.042 269.758 458.056 269.508 457C271.542 455.423 275.741 455.274 278.263 454.929C293.493 452.846 308.31 452.744 323.569 454.663C357.658 458.952 392.31 470.998 420.858 490.24C439.515 502.815 455.987 518.864 469.764 536.612C478.341 547.662 485.422 560.922 490.912 573.762L494.75 583.545C495.563 585.877 496.095 589.251 497.601 591.168C498.612 594.439 498.542 598.385 498.713 601.804C499.143 610.381 499.067 618.943 498.305 627.5L496.475 642.94C495.491 656.869 496.196 670.071 493.25 683.955C492.395 687.982 491.239 691.828 489.753 695.665L486.303 703.677C485.985 704.384 485.096 705.79 485.028 706.5C484.98 706.993 485.255 708.079 485.468 708.543L487.181 712.711L491.559 722.241L490.702 723.322C488.265 719.687 486.413 715.281 484.368 711.39L470.78 686.064C458.204 663.693 445.216 641.454 429.238 621.298C420.299 610.023 410.402 599.687 400.408 589.36C408.578 587.952 419.065 589.117 427.108 590.872C430.053 593.094 432.144 596.031 434.462 598.865C440.783 606.593 446.612 614.951 450.864 624.012C453.512 629.657 455.334 635.584 457.859 641.242C458.468 641.105 458.191 641.202 458.697 640.972C460.514 646.48 460.741 653.485 460.712 659.25C460.706 660.474 460.274 662.939 460.552 664.042C460.911 665.469 462.618 667.762 463.372 669.081L472.582 684.688C473.215 685.874 473.794 687.168 474.564 688.267L483.534 705.026L483.869 704.74C485.265 702.847 486.292 699.416 487.228 697.193C496.175 675.932 496.482 648.988 492.037 626.578C489.241 612.481 484.573 599.201 478.771 586.083C463.778 552.188 439.831 520.281 408.716 499.657C369.102 473.4 321.656 464.8 275.284 474.311L269.894 460.121Z"/>
	<path fill="#FEBB3B" transform="scale(0.488281 0.488281)" d="M252.626 404.197C312.025 387.927 376.459 402.559 428.98 432.468C452.607 445.924 473.1 464.249 490.659 484.872C499.506 496.412 508.499 508.78 515.184 521.729C532.396 555.072 539.629 596.38 534.801 633.515C530.283 668.268 515.377 701.766 495.977 730.68L491.559 722.241L487.181 712.711L485.468 708.543C487.474 707.441 489.334 703.099 490.489 701C495.859 691.236 500.994 681.263 505.27 670.971C522.508 629.483 519.545 583.358 502.561 542.308C497.923 531.098 492.355 520.06 485.551 510C462.824 476.401 427.342 450.241 390.113 434.846C355.958 420.722 317.619 413.889 280.793 418.768C268.788 420.359 256.787 423.064 245.585 427.73C217.957 439.239 196.572 459.866 185.174 487.66C171.699 520.521 178.154 557.65 191.653 589.398C207.855 627.5 236.851 661.373 272.099 683.102C283.072 689.866 294.784 695.189 306.736 699.963C337.197 712.129 372.733 717.835 405.093 710.624C414.645 708.496 423.923 704.858 432.888 701.006C433.628 702.027 434.33 702.916 434.693 704.145C437.011 708.183 439.253 712.854 442.258 716.402L443.167 718.183L443.483 718.768L443.117 719.649C429.828 725.502 415.546 730.168 401.14 732.224C344.74 740.271 286.337 719.649 241.473 685.975C226.52 674.752 213.876 661.137 202.585 646.295C179.589 616.07 163.256 581.884 157.873 544.052C156.2 521.527 156.968 499.643 166.257 478.688C177.156 454.101 195.898 431.97 219.388 418.518C228.734 413.166 238.405 409.396 248.42 405.558C249.773 404.972 251.212 404.609 252.626 404.197Z"/>
	<path fill="#E23B28" transform="scale(0.488281 0.488281)" d="M434.693 704.145C424.628 707.546 415.121 711.854 404.654 714.095C365.545 722.467 322.306 712.556 287.041 695.018C238.031 670.645 200.071 627.421 182.748 575.419C172.315 544.1 169.313 509.921 184.534 479.521C198.886 450.855 223.164 431.201 253.433 421.207C263.568 417.861 274.406 416.004 285 414.953C327.875 410.702 371.895 420.759 410.078 440.303C444.379 457.861 475.838 485.842 495.505 519.157C502.379 530.8 507.615 543.433 511.765 556.281C521.606 586.746 523.573 620.422 515.502 651.517C512.025 664.911 506.197 678.633 499.865 690.913C496.142 698.133 492.237 706.362 487.181 712.711L485.468 708.543C487.474 707.441 489.334 703.099 490.489 701C495.859 691.236 500.994 681.263 505.27 670.971C522.508 629.483 519.545 583.358 502.561 542.308C497.923 531.098 492.355 520.06 485.551 510C462.824 476.401 427.342 450.241 390.113 434.846C355.958 420.722 317.619 413.889 280.793 418.768C268.788 420.359 256.787 423.064 245.585 427.73C217.957 439.239 196.572 459.866 185.174 487.66C171.699 520.521 178.154 557.65 191.653 589.398C207.855 627.5 236.851 661.373 272.099 683.102C283.072 689.866 294.784 695.189 306.736 699.963C337.197 712.129 372.733 717.835 405.093 710.624C414.645 708.496 423.923 704.858 432.888 701.006C433.628 702.027 434.33 702.916 434.693 704.145Z"/>
	<path fill="#FEBB3B" transform="scale(0.488281 0.488281)" d="M237.341 451.168C244.33 446.196 252.83 442.644 261.028 440.215L269.894 460.121L275.284 474.311C321.656 464.8 369.102 473.4 408.716 499.657C439.831 520.281 463.778 552.188 478.771 586.083C484.573 599.201 489.241 612.481 492.037 626.578C496.482 648.988 496.175 675.932 487.228 697.193C486.292 699.416 485.265 702.847 483.869 704.74L483.534 705.026L474.564 688.267C473.794 687.168 473.215 685.874 472.582 684.688L463.372 669.081C462.618 667.762 460.911 665.469 460.552 664.042C460.274 662.939 460.706 660.474 460.712 659.25C460.741 653.485 460.514 646.48 458.697 640.972C458.191 641.202 458.468 641.105 457.859 641.242C455.334 635.584 453.512 629.657 450.864 624.012C446.612 614.951 440.783 606.593 434.462 598.865C432.144 596.031 430.053 593.094 427.108 590.872C419.065 589.117 408.578 587.952 400.408 589.36L386.626 576.571C383.823 574.054 380.653 570.807 377.06 569.527C374.437 570.362 371.421 570.334 368.675 570.59C364.74 570.956 360.8 571.517 356.99 572.581L355.075 573.326C349.302 571.317 342.797 575.709 336.856 574.723L332.304 576.415C323.267 580.708 313.928 585.37 305.501 590.75C285.929 603.246 269.086 619.129 254.352 636.983C253.552 637.953 250.263 642.448 249.377 642.395L238.048 629.512L236.566 627.548C232.642 623.317 229.308 618.142 225.901 613.473L225.446 615.785L215.054 598.558C211.296 592.392 208.248 585.028 205.666 578.295C197 555.703 191.96 529.948 197.394 506.001C202.382 484.024 218.412 462.98 237.341 451.168Z"/>
	<path fill="#0C0658" transform="scale(0.488281 0.488281)" d="M297.471 507.63C324.855 505.043 352.885 510.092 377.181 523.089C383.288 526.355 389.275 529.812 394.614 534.25C422.686 557.586 444.344 588.325 454.561 623.5C456.174 629.054 458.177 635.209 458.697 640.972C458.191 641.202 458.468 641.105 457.859 641.242C455.334 635.584 453.512 629.657 450.864 624.012C446.612 614.951 440.783 606.593 434.462 598.865C432.144 596.031 430.053 593.094 427.108 590.872C419.065 589.117 408.578 587.952 400.408 589.36L386.626 576.571C383.823 574.054 380.653 570.807 377.06 569.527C374.437 570.362 371.421 570.334 368.675 570.59C364.74 570.956 360.8 571.517 356.99 572.581L355.075 573.326C349.302 571.317 342.797 575.709 336.856 574.723C349.163 569.905 362.849 566.057 376.128 565.954C378.348 565.151 381.818 565.558 384.187 565.543C398.125 565.456 412.263 566.684 425.841 569.858C420.565 562.494 414.775 555.355 408.103 549.211C407.044 547.913 405.782 546.86 404.53 545.757L387.452 530.633C373.2 530.394 358.676 531.57 344.781 534.846L325.024 541.375L315.777 531.542C311.194 527.228 307.461 521.518 303.638 516.516C301.575 513.815 298.552 510.867 297.471 507.63Z"/>
	<path fill="#352C6F" transform="scale(0.488281 0.488281)" d="M315.777 531.542C323.663 530.807 331.035 531.563 338.797 532.908C340.446 533.194 342.97 533.191 344.251 534.329L344.781 534.846L325.024 541.375L315.777 531.542Z"/>
	<path fill="#FEBB3B" transform="scale(0.488281 0.488281)" d="M344.781 534.846C358.676 531.57 373.2 530.394 387.452 530.633L404.53 545.757C405.782 546.86 407.044 547.913 408.103 549.211C414.775 555.355 420.565 562.494 425.841 569.858C412.263 566.684 398.125 565.456 384.187 565.543C381.818 565.558 378.348 565.151 376.128 565.954C362.849 566.057 349.163 569.905 336.856 574.723L332.304 576.415C323.267 580.708 313.928 585.37 305.501 590.75C285.929 603.246 269.086 619.129 254.352 636.983C253.552 637.953 250.263 642.448 249.377 642.395L238.048 629.512L236.566 627.548C232.642 623.317 229.308 618.142 225.901 613.473L225.779 612.33C239.954 598.3 254.19 583.876 270.157 571.86C277.654 566.218 285.714 561.46 293.547 556.321L297.369 554.321L325.024 541.375L344.781 534.846Z"/>
	<path fill="#E23B28" transform="scale(0.488281 0.488281)" d="M404.53 545.757C405.782 546.86 407.044 547.913 408.103 549.211C402.121 548.35 396.031 548.44 390 548.473C351.328 548.685 314.575 563.686 283.907 586.611C272.009 595.505 261.07 605.413 250.695 616.025L238.048 629.512L236.566 627.548L260.511 601.847C288.185 575.807 323.74 554.83 361.488 548.146C375.929 545.589 389.922 545.321 404.53 545.757Z"/>
	<path fill="#FEBB3B" transform="scale(0.488281 0.488281)" d="M344.781 534.846C358.676 531.57 373.2 530.394 387.452 530.633L404.53 545.757C389.922 545.321 375.929 545.589 361.488 548.146C323.74 554.83 288.185 575.807 260.511 601.847L236.566 627.548C232.642 623.317 229.308 618.142 225.901 613.473L225.779 612.33C239.954 598.3 254.19 583.876 270.157 571.86C277.654 566.218 285.714 561.46 293.547 556.321L297.369 554.321L325.024 541.375L344.781 534.846Z"/>
	<path fill="#0C0658" transform="scale(0.488281 0.488281)" d="M237.341 451.168C244.33 446.196 252.83 442.644 261.028 440.215L269.894 460.121L275.284 474.311L249.414 482.699L245.776 484.288C235.972 489.261 227.564 494.873 219.046 501.846C211.025 509.923 203.908 518.02 198.271 527.985C195.076 533.632 200.437 554.156 202.248 561.055L203.377 565.549L211.351 587.712C212.282 585.675 212.563 583.186 213.227 581.027C214.547 576.739 216.108 572.464 217.863 568.335C221.218 560.444 225.122 552.188 230.006 545.115C239.412 531.495 252.958 521.006 268.235 514.848C277.173 510.888 287.805 508.817 297.471 507.63C298.552 510.867 301.575 513.815 303.638 516.516C307.461 521.518 311.194 527.228 315.777 531.542L325.024 541.375L297.369 554.321L293.547 556.321C285.714 561.46 277.654 566.218 270.157 571.86C254.19 583.876 239.954 598.3 225.779 612.33L225.901 613.473L225.446 615.785L215.054 598.558C211.296 592.392 208.248 585.028 205.666 578.295C197 555.703 191.96 529.948 197.394 506.001C202.382 484.024 218.412 462.98 237.341 451.168Z"/>
	<path fill="#352C6F" transform="scale(0.488281 0.488281)" d="M219.046 501.846C219.12 498.849 222.162 496.191 223.988 494L226.094 491.59C229.788 487.696 233.548 484.208 237.959 481.151C239.309 480.215 240.54 479.086 242.25 479.035C243.981 480.596 244.762 482.242 245.776 484.288C235.972 489.261 227.564 494.873 219.046 501.846Z"/>
	<path fill="#B70D57" transform="scale(0.488281 0.488281)" d="M237.341 451.168C244.33 446.196 252.83 442.644 261.028 440.215L269.894 460.121L275.284 474.311L249.414 482.699C245.116 471.831 239.735 462.856 237.341 451.168Z"/>
	<path fill="#B70D57" transform="scale(0.488281 0.488281)" d="M268.235 514.848C277.173 510.888 287.805 508.817 297.471 507.63C298.552 510.867 301.575 513.815 303.638 516.516C307.461 521.518 311.194 527.228 315.777 531.542L325.024 541.375L297.369 554.321C287.439 541.45 275.433 529.526 268.235 514.848Z"/>
	<path fill="#352C6F" transform="scale(0.488281 0.488281)" d="M215.054 598.558C215.008 596.343 214.803 593.903 215.343 591.741C220.545 570.94 233.081 548.879 249.255 534.659C254.679 529.89 261.135 525.9 267.368 522.266C274.975 534.782 283.512 545.671 293.547 556.321C285.714 561.46 277.654 566.218 270.157 571.86C254.19 583.876 239.954 598.3 225.779 612.33L225.901 613.473L225.446 615.785L215.054 598.558Z"/>
	<path fill="#FEBB3B" transform="scale(0.488281 0.488281)" d="M275.284 474.311C321.656 464.8 369.102 473.4 408.716 499.657C439.831 520.281 463.778 552.188 478.771 586.083C484.573 599.201 489.241 612.481 492.037 626.578C496.482 648.988 496.175 675.932 487.228 697.193C486.292 699.416 485.265 702.847 483.869 704.74L483.534 705.026L474.564 688.267C473.794 687.168 473.215 685.874 472.582 684.688C475.36 680.209 475.733 673.372 476.223 668.209C477.277 657.103 476.215 646.021 474.274 635.076C468.213 600.893 452.014 572.098 430.006 545.678C404.525 515.09 366.085 493.779 326.25 490.185C294.182 487.292 261.337 493.775 236.019 514.585C223.917 524.533 214.594 537.741 208.495 552.102C206.776 556.148 205.812 560.766 203.851 564.641L203.377 565.549L202.248 561.055C200.437 554.156 195.076 533.632 198.271 527.985C203.908 518.02 211.025 509.923 219.046 501.846C227.564 494.873 235.972 489.261 245.776 484.288L249.414 482.699L275.284 474.311Z"/>
	<path fill="#E23B28" transform="scale(0.488281 0.488281)" d="M202.248 561.055L202.777 560.244C203.908 558.405 203.967 555.954 204.675 553.895C206.003 550.035 207.585 546.202 209.452 542.57C222.283 517.608 244.893 499.399 271.923 491.804C310.121 481.072 352.656 486.172 387.225 505.672C430.026 529.815 462.137 574.745 475.068 621.774C479.074 636.342 480.634 652.064 479.651 667.126C479.331 672.03 479.003 677.104 477.576 681.833C476.912 684.033 475.586 686.211 474.564 688.267C473.794 687.168 473.215 685.874 472.582 684.688C475.36 680.209 475.733 673.372 476.223 668.209C477.277 657.103 476.215 646.021 474.274 635.076C468.213 600.893 452.014 572.098 430.006 545.678C404.525 515.09 366.085 493.779 326.25 490.185C294.182 487.292 261.337 493.775 236.019 514.585C223.917 524.533 214.594 537.741 208.495 552.102C206.776 556.148 205.812 560.766 203.851 564.641L203.377 565.549L202.248 561.055Z"/>
</svg>
