<?xml version="1.0" encoding="utf-8" ?>
<svg xmlns="http://www.w3.org/2000/svg" xmlns:xlink="http://www.w3.org/1999/xlink" width="500" height="500">
	<path fill="#B8C084" transform="scale(0.488281 0.488281)" d="M-0 -0L1024 0L1024 1024L-0 1024L0 -0Z"/>
	<path fill="#E7DEB3" transform="scale(0.488281 0.488281)" d="M354.082 117.498C354.367 116.864 354.702 116.318 355.121 115.758C357.722 112.285 368.095 107.944 372.388 107.425C371.991 109.107 372.127 110.634 370.5 111.507C367.245 113.253 363.633 114.582 360.309 116.256C359.115 116.858 357.178 117.65 356.271 118.579L354.082 117.498Z"/>
	<path fill="#950F1A" transform="scale(0.488281 0.488281)" d="M865.854 70.243C871.694 68.7387 878.227 68.7687 883.702 66.135C885.902 65.0772 887.763 63.2302 889.323 61.377C890.316 60.1975 891.415 58.1712 892.853 57.75L892.813 59.9924L892.465 60.28C889.682 62.6351 887.498 65.6035 884.726 67.9472C882.135 70.1374 878.578 71.7333 875.457 73.0072C872.069 71.5617 869.45 70.9799 865.854 70.243Z"/>
	<path fill="#D82F26" transform="scale(0.488281 0.488281)" d="M877.01 75.5817L877.49 76.0662C878.786 77.3057 881.001 78.0401 882.612 78.8514L893 84.4882C895.219 85.6915 897.7 86.7031 899.502 88.5L899.405 89.75C896.469 92.204 893.197 91.81 889.557 91.5504C889.009 89.8844 888.796 89.8893 887.323 88.955C888.414 89.2129 889.352 89.3696 890.48 89.4105C891.913 89.4625 892.885 89.7843 893.974 88.75C891.509 86.2574 886.943 84.9485 883.73 83.4744C880.887 82.1699 878.23 80.5498 875.558 78.9315L875.76 75.7747L877.01 75.5817Z"/>
	<path fill="#6D1216" transform="scale(0.488281 0.488281)" d="M904.63 244.083L906.717 245.114C906.032 248.514 905.451 251.919 905.6 255.401C905.814 260.403 907.425 266.228 906.95 271.117C906.46 276.162 901.909 281.643 897.866 284.438C895.439 286.117 893.396 285.924 890.594 285.509L892 284.499C894.441 282.588 896.293 280.084 898.231 277.691C899.851 275.69 901.881 273.643 902.976 271.304C904.343 268.384 903.982 264.993 903.998 261.844C904.026 256.229 903.747 250.494 904.509 244.922L904.63 244.083Z"/>
	<path fill="#6D1216" transform="scale(0.488281 0.488281)" d="M902.972 180.073C905.53 180.304 907.246 181.363 908.92 183.313C916.415 192.046 918.043 208.333 916.978 219.309C916.065 228.723 909.522 236.224 906.717 245.114L904.63 244.083C904.792 238.839 907.366 232.874 908.426 227.64C911.671 211.61 908.591 195.185 902.972 180.073Z"/>
	<path fill="#950F1A" transform="scale(0.488281 0.488281)" d="M875.558 78.9315C878.23 80.5498 880.887 82.1699 883.73 83.4744C886.943 84.9485 891.509 86.2574 893.974 88.75C892.885 89.7843 891.913 89.4625 890.48 89.4105C889.352 89.3696 888.414 89.2129 887.323 88.955C888.796 89.8893 889.009 89.8844 889.557 91.5504L888.778 91.5352C879.434 91.3077 865.075 85.2757 857.192 92.75C855.569 94.2884 854.755 96.1619 854.792 98.3906C854.811 99.5411 855.07 99.5594 855.75 100.414C860.603 100.963 865.34 98.5394 869.988 97.4259C873.648 96.549 878.094 96.7906 881.698 97.7758C884.197 98.4588 886.644 99.5251 888.377 101.5L888 101.883C885.1 101.302 882.226 100.663 879.25 100.973C874.094 101.508 869.603 103.75 864.977 105.901C855.264 110.419 845.648 114.407 834.697 113.395C832.112 113.156 828.3 112.691 826.054 111.395L826.726 110.739C834.696 109.827 840.932 102.379 845.876 96.6875C851.924 89.7263 859.803 81.2623 869.275 79.8388L872.871 80.6172L875.558 78.9315Z"/>
	<path fill="#B8C084" transform="scale(0.488281 0.488281)" d="M875.558 78.9315C878.23 80.5498 880.887 82.1699 883.73 83.4744C886.943 84.9485 891.509 86.2574 893.974 88.75C892.885 89.7843 891.913 89.4625 890.48 89.4105C889.352 89.3696 888.414 89.2129 887.323 88.955C880.165 86.7081 872.934 84.1382 865.31 84.2294L864.442 84.25L864.021 83.75C866.31 82.2756 869.891 81.7939 872.485 80.7727L872.871 80.6172L875.558 78.9315Z"/>
	<path fill="#D82F26" transform="scale(0.488281 0.488281)" d="M112.377 273.979L116.4 274.284L115.382 274.352L108.841 275.172L109.25 275.255L110.5 276L111.5 275.877L113.5 276.255C114.652 276.443 115.615 276.273 116.752 276.125L116.75 275.255L118.525 275.664C120.476 276.118 123.009 275.902 125.029 275.928C128.107 275.969 131.331 276.158 134.387 275.792C141.758 274.91 148.94 272.262 156.5 273.319L157.121 273.402C162.261 274.152 167.957 280.667 170.94 284.757C173.459 288.211 175.646 293.605 178.756 296.375C181.734 293.729 184.025 290.751 185.969 287.271L187.175 287.53C184.977 290.756 179.766 299.517 175.881 300.391C172.268 301.205 167.274 300.56 163.476 300.52C159.576 300.171 151.731 300.258 148.567 298.085C146.97 296.989 146.57 295.837 146.231 294C146.544 293.021 146.621 292.102 147.46 291.448C150.903 288.761 159.34 291.508 163.533 292.211L172.102 293.24C169.06 288.616 165.211 284.17 161.5 280.067C157.848 280.29 154.245 280.497 150.656 281.264C146.736 282.103 142.936 283.32 139.25 284.891C138.417 285.246 136.675 285.767 136.018 286.304C135.121 287.036 133.36 291.642 132.698 292.954C129.424 299.449 126.229 305.963 122.287 312.085C122.009 310.86 122.894 308.262 123.178 306.928C124.611 300.217 126.154 293.559 128.69 287.168L109.696 306.34L109.705 305.988C110.577 303.398 112.758 300.723 113.936 298.165C115.908 293.881 117.332 288.917 120.327 285.225C123.46 281.363 128.546 279.124 132.885 276.919C126.493 277.899 113.136 278.653 107.5 275.479L107.354 274.75C107.762 274.535 107.963 274.402 108.46 274.299L112.377 273.979Z"/>
	<path fill="#D82F26" transform="scale(0.488281 0.488281)" d="M883.399 233.544C883.36 233.433 883.249 233.324 883.281 233.211C883.403 232.782 884.781 231.463 885.108 231.077L889.595 225.538C893.208 220.821 897.02 215.812 899.665 210.472C901.194 207.386 902.645 203.987 902.783 200.5C902.936 196.668 901.676 193.039 900.671 189.403C900.078 187.254 899.04 184.397 899.995 182.25C900.627 180.829 901.618 180.572 902.972 180.073C908.591 195.185 911.671 211.61 908.426 227.64C907.366 232.874 904.792 238.839 904.63 244.083L904.509 244.922C903.747 250.494 904.026 256.229 903.998 261.844C903.982 264.993 904.343 268.384 902.976 271.304C901.881 273.643 899.851 275.69 898.231 277.691C896.293 280.084 894.441 282.588 892 284.499L890.594 285.509C887.64 284.381 883.68 284.063 880.514 283.824L880.781 279.98C881.544 274.789 882.738 269.677 884.07 264.605C885.862 257.785 888.552 250.82 889.37 243.813C889.569 242.107 889.864 239.992 889.166 238.401C887.974 235.685 886.094 234.459 883.399 233.544Z"/>
	<path fill="#F0D577" transform="scale(0.488281 0.488281)" d="M464.01 825.066L466.717 797.787C469.106 777.324 472.881 757.053 480.983 738C486.022 726.148 493.09 714.543 500.204 703.826C506.257 708.129 512.254 711.505 519.165 714.238L519.368 714.38L549.879 724.706L500.268 829.189L484.409 866.764C480.507 876.518 476.533 886.661 474.516 897C472.411 907.797 472.185 918.737 471.15 929.651L468.617 946.994L468.552 947.31C465.783 947.116 462.18 947.054 460.169 944.924L459.067 944.688C454.108 926.614 455.472 907.808 452.264 889.477C451.172 883.238 450.008 877.245 447.07 871.577C448.401 870.944 449.835 870.642 451.25 870.255C454.891 869.26 458.282 869.468 462.023 869.599L464.01 825.066Z"/>
	<path fill="#DA994A" transform="scale(0.488281 0.488281)" d="M464.01 825.066L466.717 797.787C469.106 777.324 472.881 757.053 480.983 738C486.022 726.148 493.09 714.543 500.204 703.826C506.257 708.129 512.254 711.505 519.165 714.238L519.368 714.38C517.686 715.65 517.232 717.632 516.431 719.5L512.066 729.097C494.001 767.76 480.06 808.241 474.106 850.626L468.442 902.722C467.281 910.823 464.974 918.71 463.485 926.75C462.369 932.776 461.818 939.019 460.169 944.924L459.067 944.688C454.108 926.614 455.472 907.808 452.264 889.477C451.172 883.238 450.008 877.245 447.07 871.577C448.401 870.944 449.835 870.642 451.25 870.255C454.891 869.26 458.282 869.468 462.023 869.599L464.01 825.066Z"/>
	<path fill="#DF6635" transform="scale(0.488281 0.488281)" d="M892.813 59.9924C891.998 64.4455 890.58 69.0712 886.713 71.877C884.22 73.6862 881.144 74.3248 878.211 75.0245C877.445 75.2072 877.729 75.1137 877.01 75.5817L875.76 75.7747L875.558 78.9315L872.871 80.6172L869.275 79.8388C859.803 81.2623 851.924 89.7263 845.876 96.6875C840.932 102.379 834.696 109.827 826.726 110.739L826.054 111.395L821.041 116.2L821 116.188L770.611 181.146C762.628 189.367 754.656 196.84 745.142 203.323C740.431 206.534 735.05 209.1 730.603 212.625C725.027 217.044 719.847 222.194 714.443 226.846L673.044 260.249C659.63 270.015 645.445 278.666 631.354 287.405C623.821 292.077 615.495 296.358 608.751 302.117C603.978 306.192 600.119 311.213 596.67 316.426L593.389 310.062C588.082 300.465 583.952 289.353 580.115 279.056C578.293 274.164 576.824 268.155 574.138 263.713C588.414 259.103 602.191 254.504 615.844 248.135C636.97 238.28 656.965 225.486 677.306 214.103L695.867 203.745C701.849 200.485 707.974 197.299 713.333 193.053C725.437 183.462 735.294 170.511 746.347 159.666L766.875 141.422L825.837 93.4078C833.307 87.754 840.955 80.705 849.086 76.1254C852.711 74.0835 856.889 72.6305 860.939 71.7382L865.854 70.243C869.45 70.9799 872.069 71.5617 875.457 73.0072C878.578 71.7333 882.135 70.1374 884.726 67.9472C887.498 65.6035 889.682 62.6351 892.465 60.28L892.813 59.9924Z"/>
	<path fill="#950F1A" transform="scale(0.488281 0.488281)" d="M593.389 310.062C596.513 303.282 599.919 296.707 603.836 290.348C606.248 286.433 608.803 282.339 612.385 279.372C618.154 274.594 626.925 272.919 633.75 269.996C638.908 267.786 643.927 265.135 648.893 262.521C677.52 247.448 703.826 226.765 727.07 204.316C725.473 202.948 723.469 201.37 722.676 199.374C722.224 198.236 722.263 198.745 722.75 197.569C727.143 198.205 731.574 198.669 735.938 197.578C741.467 196.197 746.533 193.277 751.236 190.134C765.168 180.822 775.409 167.809 786.017 155.06L808.23 129.015C811.814 125.036 816.336 118.769 821 116.188L770.611 181.146C762.628 189.367 754.656 196.84 745.142 203.323C740.431 206.534 735.05 209.1 730.603 212.625C725.027 217.044 719.847 222.194 714.443 226.846L673.044 260.249C659.63 270.015 645.445 278.666 631.354 287.405C623.821 292.077 615.495 296.358 608.751 302.117C603.978 306.192 600.119 311.213 596.67 316.426L593.389 310.062Z"/>
	<path fill="#909B56" transform="scale(0.488281 0.488281)" d="M447.07 871.577C450.008 877.245 451.172 883.238 452.264 889.477C455.472 907.808 454.108 926.614 459.067 944.688L460.169 944.924C462.18 947.054 465.783 947.116 468.552 947.31L468.617 946.994L471.15 929.651C478.945 930.13 487.095 929.415 494.913 929.244L529.936 929.16L718.796 935.866C745.106 937.878 771.197 939.795 797.271 944.051C805.233 945.351 824.452 947.884 829.929 953.58C831.232 954.935 831.425 955.387 831.48 957.25L830.673 957.946C820.566 966.078 776.839 970.479 763.029 972.061L627.564 981.525L464.395 984.354L403.538 982.208L262.098 972.349C245.018 970.478 227.823 968.056 211 964.535C204.432 963.16 193.483 961.342 189.131 955.926C189.073 954.566 189.249 954.354 190.145 953.297C193.197 949.697 201.834 947.905 206.331 946.801C234.266 939.939 263.949 938.226 292.578 936.18L382.465 931.065L423.9 929.768C430.311 929.611 437.047 930.12 443.399 929.365L443.769 927.591C443.494 922.873 442.471 918.073 440.873 913.623C437.911 905.373 428.63 892.169 432.171 883.183C434.806 876.494 440.874 874.05 447.07 871.577Z"/>
	<path fill="#950F1A" transform="scale(0.488281 0.488281)" d="M447.07 871.577C450.008 877.245 451.172 883.238 452.264 889.477C455.472 907.808 454.108 926.614 459.067 944.688L460.169 944.924C462.18 947.054 465.783 947.116 468.552 947.31C469.262 954.592 474.26 961.424 479.857 965.946C483.342 968.762 488.556 971.123 493.003 971.785C493.625 971.878 494.171 972.055 494.757 972.279L486.045 974.685L482 975.436C473.893 976.315 461.685 973.296 455.424 968.19C451.296 964.824 447.581 960.105 445.991 954.983C444.991 951.762 445.032 948.136 444.837 944.789L443.769 927.591C443.494 922.873 442.471 918.073 440.873 913.623C437.911 905.373 428.63 892.169 432.171 883.183C434.806 876.494 440.874 874.05 447.07 871.577Z"/>
	<path fill="#D82F26" transform="scale(0.488281 0.488281)" d="M459.067 944.688L460.169 944.924C462.18 947.054 465.783 947.116 468.552 947.31C469.262 954.592 474.26 961.424 479.857 965.946C483.342 968.762 488.556 971.123 493.003 971.785C493.625 971.878 494.171 972.055 494.757 972.279L486.045 974.685C481.727 974.359 476.882 973.531 472.751 972.252C469.75 971.323 466.947 970.386 464.197 968.832C461.192 967.133 460.735 965.64 459.842 962.5C458.253 956.91 458.761 950.446 459.067 944.688Z"/>
	<path fill="#E7DEB3" transform="scale(0.488281 0.488281)" d="M531.199 682.877L533.706 685.25C534.387 684.52 534.237 684.97 533.896 683.852C530.738 673.526 529.065 659.771 530.724 649.027C532.116 640.002 538.016 632.752 545.351 627.68C552.291 622.881 561.487 618.814 569.799 617.066C572.277 616.545 574.997 616.053 577.505 616.499C581.409 616.572 585.482 617.98 589.254 618.944L610.313 624.587C658.122 637.725 705.084 654.711 749.005 677.88C762.327 684.907 775.062 692.864 787.76 700.943C777.423 713.306 765.288 724.543 753.036 734.971C741.68 744.637 730.168 754.311 717.723 762.555C709.786 767.813 701.331 772.372 693 776.97C643.782 804.131 587.619 822.972 531.5 827.997C521.211 828.918 510.593 829.836 500.268 829.189L549.879 724.706L519.368 714.38L519.165 714.238L531.199 682.877Z"/>
	<path fill="#D82F26" transform="scale(0.488281 0.488281)" d="M531.199 682.877L533.706 685.25C534.387 684.52 534.237 684.97 533.896 683.852C530.738 673.526 529.065 659.771 530.724 649.027C532.116 640.002 538.016 632.752 545.351 627.68C552.291 622.881 561.487 618.814 569.799 617.066C572.277 616.545 574.997 616.053 577.505 616.499C577.228 631.314 574.796 646.223 572.689 660.875C571.65 668.099 570.991 676.348 568.696 683.282C567.043 688.274 564.285 693.229 562.066 698.021L549.879 724.706L519.368 714.38L519.165 714.238L531.199 682.877Z"/>
	<path fill="#E7DEB3" transform="scale(0.488281 0.488281)" d="M418.523 81.1795C420.933 79.668 423.409 79.5439 426.133 79.0168L436.638 76.8089C455.014 72.6891 473.523 70.9269 492.299 70.0632C525.77 68.5236 558.01 70.8639 590.75 78.2902C649.114 91.5286 701.09 121.063 746.347 159.666C735.294 170.511 725.437 183.462 713.333 193.053C707.974 197.299 701.849 200.485 695.867 203.745L677.306 214.103C656.965 225.486 636.97 238.28 615.844 248.135C602.191 254.504 588.414 259.103 574.138 263.713C576.824 268.155 578.293 274.164 580.115 279.056C583.952 289.353 588.082 300.465 593.389 310.062L596.67 316.426C598.658 319.462 601.764 322.692 603.219 325.89C606.776 331.773 608.766 337.541 606.996 344.405C605.005 352.125 599.688 358.131 592.851 362.015C589.906 363.687 586.664 364.979 583.319 365.567C582.316 365.743 577.881 365.867 577.36 366.371C576.842 366.872 576.099 369.542 575.791 370.307L570.993 381.136C565.068 393.307 558.117 406.181 550.334 417.257C540.592 418.287 529.994 419.32 520.381 416.92L520.059 416.872C510.969 426.931 501.968 437.381 491.055 445.536L453.298 423.694C455.072 421.921 457.745 420.357 459.762 418.826C466.619 413.62 471.621 408.696 475.704 401.021C481.533 381.814 478.958 361.235 470.64 343.155L474.738 340.882C482.252 336.64 489.691 329.771 494.096 322.286C497.848 315.91 499.242 308.106 497.322 300.905L497.072 300C495.307 293.433 492.371 287.272 489.536 281.111C486.895 275.37 484.195 269.334 480.762 264.026C484.136 263.919 492.511 262.512 495.109 264.069C496.844 263.106 499.87 263.463 501.819 263.582L502.186 263.355C504.384 261.957 506.765 260.008 508.298 257.885C510.785 254.441 512.228 249.721 513.559 245.692C517.371 234.152 519.401 222.461 522.062 210.67C518.293 209.793 515.059 208.21 511.691 206.373L511.685 207.559C509.34 207.997 507.152 208.26 504.764 208.139C499.064 207.85 495.143 204.593 491.505 200.549C488.917 196.007 486.655 191.855 484.745 186.955C483.082 179.62 482.88 174.397 483.864 166.896C485.816 160.947 486.934 156.574 491.33 151.798C489.593 150.957 487.908 147.81 486.741 146.245L477.156 134.357C472.95 129.542 468.286 125.017 463.704 120.561C460.964 118.78 458.718 116.496 456.381 114.233C445.887 100.771 434.315 88.3752 418.523 81.1795Z"/>
	<path fill="#6D1216" transform="scale(0.488281 0.488281)" d="M463.704 120.561L449.51 84.3039C464.893 100.168 478.684 117.063 491.238 135.225C492.19 136.95 491.583 140.531 491.575 142.514C491.563 145.338 491.738 148.236 492.037 151.046L491.33 151.798C489.593 150.957 487.908 147.81 486.741 146.245L477.156 134.357C472.95 129.542 468.286 125.017 463.704 120.561Z"/>
	<path fill="#D82F26" transform="scale(0.488281 0.488281)" d="M491.238 135.225C492.169 131.717 492.61 128.147 493.702 124.641C497.933 111.055 506.278 97.8563 515.01 86.7423L514.619 122.398L512.578 145.522C506.501 144.777 499.957 144.656 494.89 148.657L492.037 151.046C491.738 148.236 491.563 145.338 491.575 142.514C491.583 140.531 492.19 136.95 491.238 135.225Z"/>
	<path fill="#0E402F" transform="scale(0.488281 0.488281)" d="M514.619 122.398C529.437 118.643 548.057 119.725 561.421 127.687C564.511 129.527 567.181 131.799 569.74 134.309C561.624 135.906 555.684 142.247 551.263 148.88C548.933 152.376 546.868 156.22 545.163 160.059C542.627 165.766 538.419 181.947 532.25 183.676L530.966 182.89C532.331 180.629 532.902 174.929 533.118 172.208C533.893 162.425 529.917 156.106 521.696 151.033C519.917 149.935 517.62 149.118 516.283 147.483L515.66 146.68C514.773 146.014 513.636 145.828 512.578 145.522L514.619 122.398Z"/>
	<path fill="#002126" transform="scale(0.488281 0.488281)" d="M492.037 151.046L494.89 148.657C499.957 144.656 506.501 144.777 512.578 145.522C513.636 145.828 514.773 146.014 515.66 146.68L516.283 147.483C517.62 149.118 519.917 149.935 521.696 151.033C529.917 156.106 533.893 162.425 533.118 172.208C532.902 174.929 532.331 180.629 530.966 182.89C528.093 180.364 522.513 173.891 518.548 174.486C516.249 174.831 514.235 176.587 513.154 178.569C511.356 181.869 511.085 185.636 512.34 189.169C513.327 191.948 515.659 195.447 518.379 196.792C519.671 197.431 521.262 197.776 522.652 198.14L523.035 198.524C523.028 202.781 522.468 206.514 522.062 210.67C518.293 209.793 515.059 208.21 511.691 206.373L511.685 207.559C509.34 207.997 507.152 208.26 504.764 208.139C499.064 207.85 495.143 204.593 491.505 200.549C488.917 196.007 486.655 191.855 484.745 186.955C483.082 179.62 482.88 174.397 483.864 166.896C485.816 160.947 486.934 156.574 491.33 151.798L492.037 151.046Z"/>
	<path fill="#F0D577" transform="scale(0.488281 0.488281)" d="M492.037 151.046L494.89 148.657C499.957 144.656 506.501 144.777 512.578 145.522C513.636 145.828 514.773 146.014 515.66 146.68C508.459 151.141 501.895 160.983 499.947 169.109C498.215 176.333 498.675 184.202 502.706 190.622C504.732 193.849 507.584 196.208 510.441 198.67C510.578 201.403 510.9 203.727 511.691 206.373L511.685 207.559C509.34 207.997 507.152 208.26 504.764 208.139C499.064 207.85 495.143 204.593 491.505 200.549C488.917 196.007 486.655 191.855 484.745 186.955C483.082 179.62 482.88 174.397 483.864 166.896C485.816 160.947 486.934 156.574 491.33 151.798L492.037 151.046Z"/>
	<path fill="#DF6635" transform="scale(0.488281 0.488281)" d="M569.74 134.309C576.183 140.87 580.256 148.052 582.586 156.959C583.175 159.211 583.904 161.613 583.903 163.953C584.341 164.993 584.108 165.004 585.214 165.499L586.701 165.773L586.745 166.75L585.337 168.25C585.99 171.06 586.545 173.964 588.207 176.387C591.113 180.625 596.926 183.103 599.405 187.25C600.061 188.347 600.143 189.295 599.36 190.361C597.645 192.696 593.744 194.15 592.516 196.562L593.041 201.369C593.997 202.58 595.103 203.704 595.428 205.25L593.987 207.25L594.109 207.749C594.41 209.027 594.644 209.83 594.157 211.11C593.418 211.927 593.004 212.46 592.046 213.011C591.832 216.762 592.145 223.139 589.306 225.939C587.223 227.994 583.668 228.07 580.922 227.911C577.375 227.706 573.818 226.975 570.388 226.065C567.939 225.414 565.348 224.406 562.803 224.371C557.449 230.288 554.377 239.203 552.864 246.97C552.314 249.793 552.192 252.831 551.412 255.582C552.909 259.308 554.031 262.353 557.965 264.058L558.969 264.47C559.881 266.226 559.609 268.246 559.573 270.171L558.585 295.914C558.248 302.275 556.974 309.84 557.963 316.075C548.798 309.971 539.598 302.967 532.069 294.905C522.133 284.267 513.695 272.352 501.819 263.582L502.186 263.355C504.384 261.957 506.765 260.008 508.298 257.885C510.785 254.441 512.228 249.721 513.559 245.692C517.371 234.152 519.401 222.461 522.062 210.67C522.468 206.514 523.028 202.781 523.035 198.524L522.652 198.14C521.262 197.776 519.671 197.431 518.379 196.792C515.659 195.447 513.327 191.948 512.34 189.169C511.085 185.636 511.356 181.869 513.154 178.569C514.235 176.587 516.249 174.831 518.548 174.486C522.513 173.891 528.093 180.364 530.966 182.89L532.25 183.676C538.419 181.947 542.627 165.766 545.163 160.059C546.868 156.22 548.933 152.376 551.263 148.88C555.684 142.247 561.624 135.906 569.74 134.309Z"/>
	<path fill="#950F1A" transform="scale(0.488281 0.488281)" d="M519.702 182.75L520.887 182.641L521.787 183.858L520.25 184.228C520.161 185.309 520.019 185.525 520.5 186.541C521.386 186.018 521.063 186.331 521.699 185.379L522.16 184.652C523.458 185.377 523.705 186.009 524.482 187.25L524.431 188.701C523.419 189.792 522.993 190.67 521.5 190.929C520.445 190.132 519.803 189.424 519.349 188.152C518.69 186.304 518.806 184.462 519.702 182.75Z"/>
	<path fill="#950F1A" transform="scale(0.488281 0.488281)" d="M558.969 264.47C556.566 265.929 552.955 265.164 550.254 264.925C550.181 262.179 549.886 257.946 551.006 255.467L551.412 255.582C552.909 259.308 554.031 262.353 557.965 264.058L558.969 264.47Z"/>
	<path fill="#D82F26" transform="scale(0.488281 0.488281)" d="M592.046 213.011C587.282 210.926 583.976 208.235 580 204.941C581.733 204.985 585.231 205.473 586.771 205.012C589.081 204.322 590.516 202.039 593.041 201.369C593.997 202.58 595.103 203.704 595.428 205.25L593.987 207.25L594.109 207.749C594.41 209.027 594.644 209.83 594.157 211.11C593.418 211.927 593.004 212.46 592.046 213.011Z"/>
	<path fill="#000001" transform="scale(0.488281 0.488281)" d="M551.472 166.466L551.346 165.387C556.078 160.952 561.966 157.736 568.61 157.985C572.766 158.141 577.018 160.052 579.863 163.132C580.809 164.156 581.157 165.147 581.155 166.535C580.942 166.8 580.659 167.179 580.393 167.38C580.391 167.382 579.351 167.989 579.25 167.974C578.874 167.915 577.269 166.396 576.856 166.077C574.787 164.477 572.834 162.896 570.233 162.259C563.338 160.571 557.298 162.864 551.472 166.466Z"/>
	<path fill="#000001" transform="scale(0.488281 0.488281)" d="M552.534 170.523C557.069 171.423 561.661 171.767 566.263 172.139C570.636 172.493 575.16 173.238 579.25 171.285L580.644 173.162L580.512 175C580.281 176.372 579.191 176.995 578.034 177.631C574.024 179.835 569.463 179.49 565.204 178.332C561.747 177.392 554.267 173.626 552.534 170.523Z"/>
	<path fill="#E69065" transform="scale(0.488281 0.488281)" d="M551.472 166.466C557.298 162.864 563.338 160.571 570.233 162.259C572.834 162.896 574.787 164.477 576.856 166.077C577.269 166.396 578.874 167.915 579.25 167.974C579.351 167.989 580.391 167.382 580.393 167.38C580.659 167.179 580.942 166.8 581.155 166.535L581.347 166.048C581.979 164.5 582.478 164.553 583.903 163.953C584.341 164.993 584.108 165.004 585.214 165.499C584.361 166.142 583.633 166.673 582.939 167.5C583.072 168.176 583.301 168.497 582.977 169.119C582.253 170.51 581.909 171.976 581.009 173.289L580.644 173.162L579.25 171.285C575.16 173.238 570.636 172.493 566.263 172.139C561.661 171.767 557.069 171.423 552.534 170.523L551.6 169.735C551.243 168.438 551.134 167.776 551.472 166.466Z"/>
	<path fill="#950F1A" transform="scale(0.488281 0.488281)" d="M551.006 255.467C550.905 253.413 548.411 250.308 547.361 248.408C545.684 245.374 544.247 242.241 542.859 239.067C537.148 226.005 532.174 212.014 528.339 198.285C535.061 207.424 541.419 216.272 552.173 220.965C555.606 222.463 559.248 223.23 562.803 224.371C557.449 230.288 554.377 239.203 552.864 246.97C552.314 249.793 552.192 252.831 551.412 255.582L551.006 255.467Z"/>
	<path fill="#34763F" transform="scale(0.488281 0.488281)" d="M480.762 264.026C484.136 263.919 492.511 262.512 495.109 264.069C496.844 263.106 499.87 263.463 501.819 263.582C513.695 272.352 522.133 284.267 532.069 294.905C539.598 302.967 548.798 309.971 557.963 316.075C559.38 316.062 560.806 317.127 561.75 318.135C562.257 318.678 562.439 319.327 562.75 319.984L563.124 320.687C563.429 321.319 563.467 321.736 563.474 322.42C564.663 321.226 565.477 319.303 566.048 317.721C570.57 305.182 569.688 290.871 566.273 278.207C565.402 274.977 564.618 271.676 563.231 268.623C562.864 267.293 562.285 265.965 562.75 264.606L574.138 263.713C576.824 268.155 578.293 274.164 580.115 279.056C583.952 289.353 588.082 300.465 593.389 310.062L596.67 316.426C598.658 319.462 601.764 322.692 603.219 325.89C606.776 331.773 608.766 337.541 606.996 344.405C605.005 352.125 599.688 358.131 592.851 362.015C589.906 363.687 586.664 364.979 583.319 365.567C582.316 365.743 577.881 365.867 577.36 366.371C576.842 366.872 576.099 369.542 575.791 370.307L570.993 381.136C565.068 393.307 558.117 406.181 550.334 417.257C540.592 418.287 529.994 419.32 520.381 416.92L520.059 416.872C510.969 426.931 501.968 437.381 491.055 445.536L453.298 423.694C455.072 421.921 457.745 420.357 459.762 418.826C466.619 413.62 471.621 408.696 475.704 401.021C481.533 381.814 478.958 361.235 470.64 343.155L474.738 340.882C482.252 336.64 489.691 329.771 494.096 322.286C497.848 315.91 499.242 308.106 497.322 300.905L497.072 300C495.307 293.433 492.371 287.272 489.536 281.111C486.895 275.37 484.195 269.334 480.762 264.026Z"/>
	<path fill="#FAF8F9" transform="scale(0.488281 0.488281)" d="M495.109 264.069C496.844 263.106 499.87 263.463 501.819 263.582C513.695 272.352 522.133 284.267 532.069 294.905C539.598 302.967 548.798 309.971 557.963 316.075C559.38 316.062 560.806 317.127 561.75 318.135C562.257 318.678 562.439 319.327 562.75 319.984L563.124 320.687C563.429 321.319 563.467 321.736 563.474 322.42C562.854 323.258 563.246 322.884 562.25 323.492C557.908 321.983 553.085 318.248 549.023 315.849C540.832 311.011 532.321 305.935 525.128 299.67C520.264 295.434 516.091 290.218 511.984 285.25L495.109 264.069Z"/>
	<path fill="#0E402F" transform="scale(0.488281 0.488281)" d="M559.181 337.583L559.359 338.16L559.617 339.042C560.233 341.109 560.657 343.243 560.816 345.398C561.246 351.235 558.911 357.057 555.114 361.398C549.347 367.994 541.521 371.979 532.749 372.415C522.612 372.919 514.204 368.322 506.848 361.81C503.543 358.876 501.13 355.096 498.707 351.438C504.808 354.592 509.683 355.993 516.5 356.628C522.095 357.149 528.264 356.82 533.75 355.538C545.256 352.848 553.044 347.616 559.181 337.583Z"/>
	<path fill="#DF6635" transform="scale(0.488281 0.488281)" d="M453.298 423.694C455.072 421.921 457.745 420.357 459.762 418.826C466.619 413.62 471.621 408.696 475.704 401.021C485.068 405.018 494.358 409.099 504.042 412.281C509.312 414.012 514.867 414.998 520.059 416.872C510.969 426.931 501.968 437.381 491.055 445.536L453.298 423.694Z"/>
	<path fill="#0E402F" transform="scale(0.488281 0.488281)" d="M603.219 325.89C606.776 331.773 608.766 337.541 606.996 344.405C605.005 352.125 599.688 358.131 592.851 362.015C589.906 363.687 586.664 364.979 583.319 365.567C582.316 365.743 577.881 365.867 577.36 366.371C576.842 366.872 576.099 369.542 575.791 370.307L570.993 381.136C565.068 393.307 558.117 406.181 550.334 417.257C540.592 418.287 529.994 419.32 520.381 416.92C531.974 405.996 542.846 394.336 552.923 381.999C558.391 375.306 564.543 368.005 567.44 359.791C568.036 358.101 565.421 353.625 564.589 351.886C574.088 353.05 583.54 351.395 591.354 345.507C598.071 340.446 602.127 334.185 603.219 325.89Z"/>
	<path fill="#E7DEB3" transform="scale(0.488281 0.488281)" d="M377.923 94.1663C380.083 90.9449 382.758 87.7089 385.805 85.2924C392.623 79.8838 400.701 78.0352 409.25 78.9554C412.498 79.3049 415.419 80.2025 418.523 81.1795C434.315 88.3752 445.887 100.771 456.381 114.233C458.718 116.496 460.964 118.78 463.704 120.561C468.286 125.017 472.95 129.542 477.156 134.357L486.741 146.245C487.908 147.81 489.593 150.957 491.33 151.798C486.934 156.574 485.816 160.947 483.864 166.896C482.88 174.397 483.082 179.62 484.745 186.955C486.655 191.855 488.917 196.007 491.505 200.549C495.143 204.593 499.064 207.85 504.764 208.139C507.152 208.26 509.34 207.997 511.685 207.559L511.691 206.373C515.059 208.21 518.293 209.793 522.062 210.67C519.401 222.461 517.371 234.152 513.559 245.692C512.228 249.721 510.785 254.441 508.298 257.885C506.765 260.008 504.384 261.957 502.186 263.355L501.819 263.582C499.87 263.463 496.844 263.106 495.109 264.069C492.511 262.512 484.136 263.919 480.762 264.026C484.195 269.334 486.895 275.37 489.536 281.111C492.371 287.272 495.307 293.433 497.072 300L497.322 300.905C499.242 308.106 497.848 315.91 494.096 322.286C489.691 329.771 482.252 336.64 474.738 340.882L470.64 343.155L466.995 335.552C462.263 326.648 454.212 318.418 444.326 315.504L443.618 315.306C438.588 313.874 432.444 314.668 427.266 314.896L405.321 315.838L354.25 317.723C342.911 318.128 331.545 318.833 320.194 318.412C301.744 317.727 283.219 312.886 265.528 307.945L218.512 294.736L198.63 289.989C195.197 289.22 191.613 288.749 188.29 287.595L187.175 287.53L185.969 287.271C184.025 290.751 181.734 293.729 178.756 296.375C175.646 293.605 173.459 288.211 170.94 284.757C167.957 280.667 162.261 274.152 157.121 273.402L156.5 273.319C148.94 272.262 141.758 274.91 134.387 275.792C131.331 276.158 128.107 275.969 125.029 275.928C123.009 275.902 120.476 276.118 118.525 275.664L116.75 275.255L116.752 276.125C115.615 276.273 114.652 276.443 113.5 276.255L111.5 275.877L110.5 276L109.25 275.255L108.841 275.172L115.382 274.352L116.4 274.284L112.377 273.979C118.993 272.57 126.038 272.1 132.75 270.989C141.263 269.58 150.018 267.229 158.596 266.6C161.058 266.42 163.174 266.502 165.569 267.206L177.909 270.826L178.152 270.299C182.676 261.312 188.962 252.474 194.562 244.094C221.863 203.237 254.501 168.164 294.548 139.503C303.613 133.015 314.06 125.365 324.627 121.653L324.42 121.038C321.985 113.505 322.449 104.849 326.146 97.8135C329.3 91.8114 334.575 87.0996 341.105 85.1204L342 84.8608C349.115 82.7384 356.13 84.412 362.716 87.3342C360.093 87.0153 357.447 86.6513 354.8 86.7855C350.443 87.0064 345.056 87.4606 342.062 91.0007C338.653 95.0329 338.82 100.259 339.164 105.189C341.662 110.857 345.409 114.398 351.194 116.723C351.718 116.933 353.542 117.661 354.082 117.498L356.271 118.579C357.178 117.65 359.115 116.858 360.309 116.256C363.633 114.582 367.245 113.253 370.5 111.507C372.127 110.634 371.991 109.107 372.388 107.425C373.243 102.775 375.78 98.3256 377.923 94.1663Z"/>
	<path fill="#002126" transform="scale(0.488281 0.488281)" d="M324.627 121.653L324.42 121.038C321.985 113.505 322.449 104.849 326.146 97.8135C329.3 91.8114 334.575 87.0996 341.105 85.1204L342 84.8608C349.115 82.7384 356.13 84.412 362.716 87.3342C360.093 87.0153 357.447 86.6513 354.8 86.7855C350.443 87.0064 345.056 87.4606 342.062 91.0007C338.653 95.0329 338.82 100.259 339.164 105.189C341.662 110.857 345.409 114.398 351.194 116.723C351.718 116.933 353.542 117.661 354.082 117.498L356.271 118.579L355.742 119.33C354.426 121.104 352.381 122.366 350.75 123.843C345.358 128.726 341.515 133.977 339.363 141L339.113 141.789C337.618 146.776 338.41 153.145 340.944 157.664C343.079 161.471 346.593 163.53 350.75 164.522C360.148 166.765 370.121 164.856 376.475 174.09C382.912 183.445 382.814 199.171 394.5 204.532L395.109 204.82C400.962 207.41 411.469 202.673 417.475 201.222C424.132 199.614 433.047 199.855 438.964 203.585C443.178 206.241 446.258 211.134 449.25 214.987C452.072 218.621 455.189 221.97 458.585 225.071C461.083 213.073 466.25 204.147 475.107 195.673C476.718 194.131 479.659 192.399 480.407 190.376C482.062 189.417 483.344 188.251 484.745 186.955C486.655 191.855 488.917 196.007 491.505 200.549C495.143 204.593 499.064 207.85 504.764 208.139C507.152 208.26 509.34 207.997 511.685 207.559C511.636 210.667 511.338 213.582 510.624 216.614C507.844 228.407 500.004 239.137 489.719 245.473C476.437 253.656 459.964 256.763 444.75 252.981C433.851 250.272 427.026 245.191 421.306 235.55C416.914 239.976 412.308 243.905 406.2 245.694C400.67 247.314 394.412 246.822 389.374 243.942C380.578 238.914 376.016 229.417 373.635 219.965L368.426 220.167C361.844 220.04 354.685 218.367 350.079 213.298C347.13 210.053 345.815 205.575 346.114 201.248C346.424 196.759 347.508 193.178 350.979 190.163L351.465 189.75C351.504 188.608 351.747 187.804 350.75 186.99C350.195 186.538 348.393 186.136 347.668 185.868C341.686 183.66 336.807 181.398 332.456 176.54C327.33 170.816 324.447 162.935 325.088 155.243C325.773 147.021 329.917 140.606 335.982 135.31C330.767 131.633 327.334 127.368 324.627 121.653Z"/>
	<path fill="#D82F26" transform="scale(0.488281 0.488281)" d="M480.407 190.376C482.062 189.417 483.344 188.251 484.745 186.955C486.655 191.855 488.917 196.007 491.505 200.549L490.879 201.055C488.48 203.044 486.664 205.942 484.438 208.167C478.747 213.859 472.444 218.736 465.701 223.107C463.835 224.316 461.403 226.2 459.25 226.738C458.817 226.075 458.679 225.883 458.585 225.071C461.083 213.073 466.25 204.147 475.107 195.673C476.718 194.131 479.659 192.399 480.407 190.376Z"/>
	<path fill="#DF6635" transform="scale(0.488281 0.488281)" d="M177.909 270.826C192.617 274.884 208.548 274.018 223.702 274.909L288.81 280.07L316.177 284.227C328.236 286.568 340.821 291.373 353.216 289.707C363.348 288.345 373.428 285.662 383.368 283.3L426.435 272.782C436.844 270.041 447.34 266.506 458.027 265.044C465.453 264.027 473.264 264.207 480.762 264.026C484.195 269.334 486.895 275.37 489.536 281.111C492.371 287.272 495.307 293.433 497.072 300L497.322 300.905C499.242 308.106 497.848 315.91 494.096 322.286C489.691 329.771 482.252 336.64 474.738 340.882L470.64 343.155L466.995 335.552C462.263 326.648 454.212 318.418 444.326 315.504L443.618 315.306C438.588 313.874 432.444 314.668 427.266 314.896L405.321 315.838L354.25 317.723C342.911 318.128 331.545 318.833 320.194 318.412C301.744 317.727 283.219 312.886 265.528 307.945L218.512 294.736L198.63 289.989C195.197 289.22 191.613 288.749 188.29 287.595L187.175 287.53L185.969 287.271C184.025 290.751 181.734 293.729 178.756 296.375C175.646 293.605 173.459 288.211 170.94 284.757C167.957 280.667 162.261 274.152 157.121 273.402L156.5 273.319C148.94 272.262 141.758 274.91 134.387 275.792C131.331 276.158 128.107 275.969 125.029 275.928C123.009 275.902 120.476 276.118 118.525 275.664L116.75 275.255L116.752 276.125C115.615 276.273 114.652 276.443 113.5 276.255L111.5 275.877L110.5 276L109.25 275.255L108.841 275.172L115.382 274.352L116.4 274.284L112.377 273.979C118.993 272.57 126.038 272.1 132.75 270.989C141.263 269.58 150.018 267.229 158.596 266.6C161.058 266.42 163.174 266.502 165.569 267.206L177.909 270.826Z"/>
	<path fill="#950F1A" transform="scale(0.488281 0.488281)" d="M188.29 287.595C190.239 286.62 195.772 288.124 198.045 288.442C216.375 291.005 234.752 295.036 252.817 299.089L283.297 306.22C293.982 308.741 305.653 312.147 316.711 310.849C316.787 310.841 317.723 310.721 317.735 310.707C318.447 309.867 319.265 306.478 319.851 305.292C322.147 300.644 325.472 297.743 330.914 299.121C332.057 299.41 332.727 300.118 333.438 301C333.953 304.237 332.132 308.025 331.021 311.058L411.346 306.814L433.798 305.84C439.458 305.666 445.159 305.395 450.771 306.325C455.078 307.038 459.497 309.292 462.676 312.301C470.651 319.85 472.686 330.58 474.738 340.882L470.64 343.155L466.995 335.552C462.263 326.648 454.212 318.418 444.326 315.504L443.618 315.306C438.588 313.874 432.444 314.668 427.266 314.896L405.321 315.838L354.25 317.723C342.911 318.128 331.545 318.833 320.194 318.412C301.744 317.727 283.219 312.886 265.528 307.945L218.512 294.736L198.63 289.989C195.197 289.22 191.613 288.749 188.29 287.595Z"/>
	<path fill="#0E402F" transform="scale(0.488281 0.488281)" d="M377.923 94.1663C380.083 90.9449 382.758 87.7089 385.805 85.2924C392.623 79.8838 400.701 78.0352 409.25 78.9554C412.498 79.3049 415.419 80.2025 418.523 81.1795C434.315 88.3752 445.887 100.771 456.381 114.233C458.718 116.496 460.964 118.78 463.704 120.561C468.286 125.017 472.95 129.542 477.156 134.357L486.741 146.245C487.908 147.81 489.593 150.957 491.33 151.798C486.934 156.574 485.816 160.947 483.864 166.896C482.88 174.397 483.082 179.62 484.745 186.955C483.344 188.251 482.062 189.417 480.407 190.376C479.659 192.399 476.718 194.131 475.107 195.673C466.25 204.147 461.083 213.073 458.585 225.071C455.189 221.97 452.072 218.621 449.25 214.987C446.258 211.134 443.178 206.241 438.964 203.585C433.047 199.855 424.132 199.614 417.475 201.222C411.469 202.673 400.962 207.41 395.109 204.82L394.5 204.532C382.814 199.171 382.912 183.445 376.475 174.09C370.121 164.856 360.148 166.765 350.75 164.522C346.593 163.53 343.079 161.471 340.944 157.664C338.41 153.145 337.618 146.776 339.113 141.789L339.363 141C341.515 133.977 345.358 128.726 350.75 123.843C352.381 122.366 354.426 121.104 355.742 119.33L356.271 118.579C357.178 117.65 359.115 116.858 360.309 116.256C363.633 114.582 367.245 113.253 370.5 111.507C372.127 110.634 371.991 109.107 372.388 107.425C373.243 102.775 375.78 98.3256 377.923 94.1663Z"/>
	<path fill="#E7DEB3" transform="scale(0.488281 0.488281)" d="M467.788 155.553C464.387 152.448 461.483 148.761 458.428 145.316C448.835 134.498 439.881 123.316 427.166 115.972C410.126 106.129 391.856 105.434 373.147 110.526C380.119 103.092 389.56 99.1943 399.75 98.9005C420.285 98.3083 438.528 107.753 453.255 121.485C455.012 128.369 457.419 135.326 460.497 141.737L467.788 155.553Z"/>
	<path fill="#D82F26" transform="scale(0.488281 0.488281)" d="M456.381 114.233C458.718 116.496 460.964 118.78 463.704 120.561C468.286 125.017 472.95 129.542 477.156 134.357L486.741 146.245C487.908 147.81 489.593 150.957 491.33 151.798C486.934 156.574 485.816 160.947 483.864 166.896C482.88 174.397 483.082 179.62 484.745 186.955C483.344 188.251 482.062 189.417 480.407 190.376C465.167 192.391 450.793 188.053 435.964 185.382C428.057 183.958 420.247 183.171 412.229 182.904C424.027 173.763 440.019 169.192 454.5 166.38C461.313 165.057 468.219 164.85 475.109 165.697C477.485 165.989 480.856 167.503 483.131 167.135L483.663 166.98C481.872 164.784 477.612 164.27 475.15 162.676C472.288 160.823 469.934 158.164 467.788 155.553L460.497 141.737C457.419 135.326 455.012 128.369 453.255 121.485C453.494 118.279 454.02 116.518 456.381 114.233Z"/>
	<path fill="#E7DEB3" transform="scale(0.488281 0.488281)" d="M770.611 181.146C792.236 206.108 810.782 233.017 826.323 262.164L835.256 280.561L883.399 233.544C886.094 234.459 887.974 235.685 889.166 238.401C889.864 239.992 889.569 242.107 889.37 243.813C888.552 250.82 885.862 257.785 884.07 264.605C882.738 269.677 881.544 274.789 880.781 279.98L880.514 283.824C874.95 285.081 870.772 287.078 866.418 290.75C858.963 297.036 851.579 304.644 845.604 312.373C847.764 316.005 848.876 320.189 850.228 324.169L858.405 352.88C867.022 387.558 872.325 423.421 872.332 459.219C872.339 492.036 867.798 524.835 859.721 556.614C853.026 582.955 842.92 608.54 830.701 632.788C824.005 646.075 816.554 659.663 807.571 671.562C821.207 691.429 833.985 711.659 843.61 733.844C847.775 743.445 851.064 753.39 854.058 763.408C840.311 744.978 824.53 729.383 806.708 714.945C800.689 710.068 794.431 704.878 787.76 700.943C775.062 692.864 762.327 684.907 749.005 677.88C705.084 654.711 658.122 637.725 610.313 624.587L589.254 618.944C585.482 617.98 581.409 616.572 577.505 616.499C578.624 613.791 578.129 609.151 578.176 606.113C578.547 582.544 576.481 559.59 573.073 536.299L545.274 554.683C541.199 557.339 536.75 559.466 532.451 561.727C527.444 564.36 522.127 567.46 516.736 569.25C507.949 572.166 499.742 576.197 490.601 578.312C484.057 579.958 477.399 580.463 470.662 580.64L487.156 527.084L497.164 485.5C498.695 477.967 500.306 470.288 500.909 462.624C499.505 456.629 497.342 452.255 493.692 447.322L491.055 445.536C501.968 437.381 510.969 426.931 520.059 416.872L520.381 416.92C529.994 419.32 540.592 418.287 550.334 417.257C558.117 406.181 565.068 393.307 570.993 381.136L575.791 370.307C576.099 369.542 576.842 366.872 577.36 366.371C577.881 365.867 582.316 365.743 583.319 365.567C586.664 364.979 589.906 363.687 592.851 362.015C599.688 358.131 605.005 352.125 606.996 344.405C608.766 337.541 606.776 331.773 603.219 325.89C601.764 322.692 598.658 319.462 596.67 316.426C600.119 311.213 603.978 306.192 608.751 302.117C615.495 296.358 623.821 292.077 631.354 287.405C645.445 278.666 659.63 270.015 673.044 260.249L714.443 226.846C719.847 222.194 725.027 217.044 730.603 212.625C735.05 209.1 740.431 206.534 745.142 203.323C754.656 196.84 762.628 189.367 770.611 181.146Z"/>
	<path fill="#F0D577" transform="scale(0.488281 0.488281)" d="M883.399 233.544C886.094 234.459 887.974 235.685 889.166 238.401C889.864 239.992 889.569 242.107 889.37 243.813C888.552 250.82 885.862 257.785 884.07 264.605C882.738 269.677 881.544 274.789 880.781 279.98L880.514 283.824C874.95 285.081 870.772 287.078 866.418 290.75C858.963 297.036 851.579 304.644 845.604 312.373L814.75 347.3C794.275 369.672 771.15 393.639 743.581 407.13C733.244 412.188 721.219 415.489 709.758 416.453L708.507 416.496L707.93 403.374L708.022 403.109L708.501 361.6C712.005 358.944 716.723 357.175 720.639 355.096L748.322 340.064C778.601 322.591 808.296 302.808 835.256 280.561L883.399 233.544Z"/>
	<path fill="#DA994A" transform="scale(0.488281 0.488281)" d="M708.022 403.109C742.839 388.9 774.313 366.309 802.09 341.223L840.868 303.308L863.25 280.762C866.786 277.107 870.552 273.603 873.732 269.628L874.145 269.101C876.033 272.704 877.674 276.647 880.055 279.941L880.781 279.98L880.514 283.824C874.95 285.081 870.772 287.078 866.418 290.75C858.963 297.036 851.579 304.644 845.604 312.373L814.75 347.3C794.275 369.672 771.15 393.639 743.581 407.13C733.244 412.188 721.219 415.489 709.758 416.453L708.507 416.496L707.93 403.374L708.022 403.109Z"/>
	<path fill="#DF6635" transform="scale(0.488281 0.488281)" d="M610.771 502.511C615.025 504.153 618.823 506.491 622.793 508.704L647.023 523.289C666.251 535.44 684.503 549.033 702.196 563.303C729.305 585.168 755.047 609.099 778.145 635.211L807.571 671.562C821.207 691.429 833.985 711.659 843.61 733.844C847.775 743.445 851.064 753.39 854.058 763.408C840.311 744.978 824.53 729.383 806.708 714.945C800.689 710.068 794.431 704.878 787.76 700.943C775.062 692.864 762.327 684.907 749.005 677.88C705.084 654.711 658.122 637.725 610.313 624.587L589.254 618.944C585.482 617.98 581.409 616.572 577.505 616.499C578.624 613.791 578.129 609.151 578.176 606.113C578.547 582.544 576.481 559.59 573.073 536.299C574.549 534.381 577.243 532.778 579.177 531.25L589.53 522.691L610.771 502.511Z"/>
	<path fill="#D82F26" transform="scale(0.488281 0.488281)" d="M708.501 361.6L708.022 403.109L707.93 403.374L708.507 416.496L698.414 417.468L683.984 417.718C683.238 417.727 680.143 417.52 679.69 417.768C679.234 418.017 678.181 419.544 677.808 419.998L610.771 502.511L589.53 522.691L579.177 531.25C577.243 532.778 574.549 534.381 573.073 536.299L545.274 554.683C541.199 557.339 536.75 559.466 532.451 561.727C527.444 564.36 522.127 567.46 516.736 569.25C507.949 572.166 499.742 576.197 490.601 578.312C484.057 579.958 477.399 580.463 470.662 580.64L487.156 527.084L497.164 485.5C498.695 477.967 500.306 470.288 500.909 462.624C499.505 456.629 497.342 452.255 493.692 447.322L491.055 445.536C501.968 437.381 510.969 426.931 520.059 416.872L520.381 416.92C529.994 419.32 540.592 418.287 550.334 417.257L536.57 440.411C538.359 440.386 540.149 438.92 541.639 437.972L550.538 432.262L586.359 409.262C591.966 405.622 598.09 400.704 604.128 397.902C607.236 396.46 610.853 395.634 614.124 394.603L632.633 388.777L682.823 371.596C691.403 368.45 700.226 365.48 708.501 361.6Z"/>
	<path fill="#950F1A" transform="scale(0.488281 0.488281)" d="M520.381 416.92C529.994 419.32 540.592 418.287 550.334 417.257L536.57 440.411L536.054 441.25L535.793 441.749C534.86 443.156 532.409 444.517 530.985 445.479C526.256 448.674 520.953 451.445 516.591 455.113L516.191 455.443C512.742 458.465 511.629 464.297 509.29 468.104C507.663 473.647 505.572 478.988 504.225 484.63C501.599 495.628 500.429 508.944 502.361 520.068C502.916 523.266 503.594 526.819 505.178 529.662L505.393 530.034L502.504 529.939C499.424 529.798 489.071 529.17 487.156 527.084L497.164 485.5C498.695 477.967 500.306 470.288 500.909 462.624C499.505 456.629 497.342 452.255 493.692 447.322L491.055 445.536C501.968 437.381 510.969 426.931 520.059 416.872L520.381 416.92Z"/>
	<path fill="#0E402F" transform="scale(0.488281 0.488281)" d="M493.692 447.322L514.83 455.173C512.745 456.306 510.596 457.372 508.668 458.761L500.909 462.624C499.505 456.629 497.342 452.255 493.692 447.322Z"/>
	<path fill="#950F1A" transform="scale(0.488281 0.488281)" d="M505.393 530.034L507.5 529.971C519.832 528.639 533.863 521.518 544.719 515.772C574.371 500.077 601.183 480.385 626 457.89C642.978 442.499 658.752 426.195 672.945 408.177L683.134 410.297C689.076 411.274 692.694 409.554 698.179 407.666C701.725 406.446 704.838 405.593 707.93 403.374L708.507 416.496L698.414 417.468L683.984 417.718C683.238 417.727 680.143 417.52 679.69 417.768C679.234 418.017 678.181 419.544 677.808 419.998L610.771 502.511L589.53 522.691L579.177 531.25C577.243 532.778 574.549 534.381 573.073 536.299L545.274 554.683C541.199 557.339 536.75 559.466 532.451 561.727C527.444 564.36 522.127 567.46 516.736 569.25C507.949 572.166 499.742 576.197 490.601 578.312C484.057 579.958 477.399 580.463 470.662 580.64L487.156 527.084C489.071 529.17 499.424 529.798 502.504 529.939L505.393 530.034Z"/>
	<path fill="#E7DEB3" transform="scale(0.488281 0.488281)" d="M770.611 181.146C792.236 206.108 810.782 233.017 826.323 262.164L835.256 280.561C808.296 302.808 778.601 322.591 748.322 340.064L720.639 355.096C716.723 357.175 712.005 358.944 708.501 361.6C700.226 365.48 691.403 368.45 682.823 371.596L632.633 388.777L614.124 394.603C610.853 395.634 607.236 396.46 604.128 397.902C598.09 400.704 591.966 405.622 586.359 409.262L550.538 432.262L541.639 437.972C540.149 438.92 538.359 440.386 536.57 440.411L550.334 417.257C558.117 406.181 565.068 393.307 570.993 381.136L575.791 370.307C576.099 369.542 576.842 366.872 577.36 366.371C577.881 365.867 582.316 365.743 583.319 365.567C586.664 364.979 589.906 363.687 592.851 362.015C599.688 358.131 605.005 352.125 606.996 344.405C608.766 337.541 606.776 331.773 603.219 325.89C601.764 322.692 598.658 319.462 596.67 316.426C600.119 311.213 603.978 306.192 608.751 302.117C615.495 296.358 623.821 292.077 631.354 287.405C645.445 278.666 659.63 270.015 673.044 260.249L714.443 226.846C719.847 222.194 725.027 217.044 730.603 212.625C735.05 209.1 740.431 206.534 745.142 203.323C754.656 196.84 762.628 189.367 770.611 181.146Z"/>
	<path fill="#E7DEB3" transform="scale(0.488281 0.488281)" d="M187.175 287.53L188.29 287.595C191.613 288.749 195.197 289.22 198.63 289.989L218.512 294.736L265.528 307.945C283.219 312.886 301.744 317.727 320.194 318.412C331.545 318.833 342.911 318.128 354.25 317.723L405.321 315.838L427.266 314.896C432.444 314.668 438.588 313.874 443.618 315.306L444.326 315.504C454.212 318.418 462.263 326.648 466.995 335.552L470.64 343.155C478.958 361.235 481.533 381.814 475.704 401.021C471.621 408.696 466.619 413.62 459.762 418.826C457.745 420.357 455.072 421.921 453.298 423.694L491.055 445.536L493.692 447.322C497.342 452.255 499.505 456.629 500.909 462.624C500.306 470.288 498.695 477.967 497.164 485.5L487.156 527.084L470.662 580.64C477.399 580.463 484.057 579.958 490.601 578.312C499.742 576.197 507.949 572.166 516.736 569.25C522.127 567.46 527.444 564.36 532.451 561.727C536.75 559.466 541.199 557.339 545.274 554.683L573.073 536.299C576.481 559.59 578.547 582.544 578.176 606.113C578.129 609.151 578.624 613.791 577.505 616.499C574.997 616.053 572.277 616.545 569.799 617.066C561.487 618.814 552.291 622.881 545.351 627.68C538.016 632.752 532.116 640.002 530.724 649.027C529.065 659.771 530.738 673.526 533.896 683.852C534.237 684.97 534.387 684.52 533.706 685.25L531.199 682.877L519.165 714.238C512.254 711.505 506.257 708.129 500.204 703.826C493.09 714.543 486.022 726.148 480.983 738C472.881 757.053 469.106 777.324 466.717 797.787L464.01 825.066L438.269 820.584C415.974 815.933 394.227 809.197 373 800.978C333.488 785.679 296.874 761.845 265.688 733.323C227.999 698.854 196.942 657.544 176.346 610.635C149.955 550.526 137.111 486.929 143.488 421.25L146.285 400.144C146.682 397.082 146.605 393.925 147.736 391.021C146.174 383.5 140.695 374.585 136.523 368.234C130.575 359.183 123.142 349.806 113.376 344.663C107.966 341.813 102.044 340.357 96.0947 339.145C100.712 337.209 106.444 336.327 111.385 335.628C124.634 333.752 137.852 333.653 151.148 335.048C154.124 323.752 157.889 310.735 163.476 300.52C167.274 300.56 172.268 301.205 175.881 300.391C179.766 299.517 184.977 290.756 187.175 287.53Z"/>
	<path fill="#950F1A" transform="scale(0.488281 0.488281)" d="M528.323 676.122C529.014 677.839 531.152 681.246 531.199 682.877L519.165 714.238C512.254 711.505 506.257 708.129 500.204 703.826C507.839 692.852 516.645 682.881 528.323 676.122Z"/>
	<path fill="#6D1216" transform="scale(0.488281 0.488281)" d="M490.601 578.312C499.742 576.197 507.949 572.166 516.736 569.25C522.127 567.46 527.444 564.36 532.451 561.727C536.75 559.466 541.199 557.339 545.274 554.683L573.073 536.299C576.481 559.59 578.547 582.544 578.176 606.113C578.129 609.151 578.624 613.791 577.505 616.499C574.997 616.053 572.277 616.545 569.799 617.066C561.487 618.814 552.291 622.881 545.351 627.68C538.016 632.752 532.116 640.002 530.724 649.027C529.065 659.771 530.738 673.526 533.896 683.852C534.237 684.97 534.387 684.52 533.706 685.25L531.199 682.877C531.152 681.246 529.014 677.839 528.323 676.122L490.601 578.312Z"/>
	<path fill="#DF6635" transform="scale(0.488281 0.488281)" d="M401.272 613.589L408.493 619.469C409.986 621.011 412.289 622.843 413.367 624.647L414.575 625.455C420.487 630.876 426.748 635.539 434.64 637.517C437.727 638.291 440.908 638.513 444.009 639.175C436.167 649.719 428.13 660.615 418.859 669.927C417.038 671.756 415.033 674.163 412.874 675.55C405.633 682.27 397.953 688.871 391.234 696.112C377.29 711.141 367.999 728.501 367.236 749.229L367.151 755.095C343.969 740.075 324.434 721.463 317.272 693.899L316.841 691.25C315.698 684.377 315.467 677.65 316.079 670.716C334.187 666.164 352.648 655.636 367.352 644.351C371.547 641.131 376.063 637.794 379.67 633.926C387.77 629.803 395.79 620.819 401.272 613.589Z"/>
	<path fill="#F0D577" transform="scale(0.488281 0.488281)" d="M413.367 624.647L414.575 625.455C420.487 630.876 426.748 635.539 434.64 637.517C437.727 638.291 440.908 638.513 444.009 639.175C436.167 649.719 428.13 660.615 418.859 669.927C417.038 671.756 415.033 674.163 412.874 675.55C409.31 673.947 405.698 673.971 402.457 671.273C398.445 667.933 395.968 662.983 395.71 657.75C395.101 645.409 405.567 633.185 413.367 624.647Z"/>
	<path fill="#D82F26" transform="scale(0.488281 0.488281)" d="M401.272 613.589L408.493 619.469C398.188 631.881 387.157 642.436 375.016 653.009C356.796 668.878 338.444 682.214 317.272 693.899L316.841 691.25C315.698 684.377 315.467 677.65 316.079 670.716C334.187 666.164 352.648 655.636 367.352 644.351C371.547 641.131 376.063 637.794 379.67 633.926C387.77 629.803 395.79 620.819 401.272 613.589Z"/>
	<path fill="#DF6635" transform="scale(0.488281 0.488281)" d="M200.123 526.982C203.892 525.708 210.336 526.384 214.489 526.284L293.318 526.676L293.724 526.836C298.685 531.893 304.422 535.413 310.406 539.127L309.947 539.496C308.302 540.849 307.166 542.212 305.963 543.959L305.606 544.053C301.81 551.129 300.197 559.141 302.617 566.963C304.998 574.659 310.717 580.377 317.754 583.993C321.598 585.969 326.357 587.399 330.676 587.668L331.041 588.24C334.053 587.796 337.759 588.409 340.833 588.457C346.949 588.552 352.468 587.006 358.261 585.263C352.822 589.371 348.892 593.426 345.842 599.608L345.582 599.805C344.584 602.155 343.801 604.197 343.448 606.75L343.314 607.677C342.451 614.009 343.476 620.466 347.342 625.69C351.165 630.857 357.175 634.065 363.5 634.84C368.997 635.514 374.272 634.99 379.67 633.926C376.063 637.794 371.547 641.131 367.352 644.351C352.648 655.636 334.187 666.164 316.079 670.716C304.276 673.185 292.113 674.358 280.352 670.979C267.752 667.359 256.665 658.1 250.356 646.682C246.26 639.269 242.602 628.21 245.203 619.768L245.453 619C246.785 614.663 248.721 611.076 251.135 607.256C238.225 603.329 225.451 598.731 214.648 590.383C203.821 582.018 197.231 571.035 195.435 557.5C194.837 552.989 194.728 548.491 195.325 543.97C195.897 539.648 196.748 535.856 198.271 531.779L200.123 526.982Z"/>
	<path fill="#D82F26" transform="scale(0.488281 0.488281)" d="M331.041 588.24C334.053 587.796 337.759 588.409 340.833 588.457C346.949 588.552 352.468 587.006 358.261 585.263C352.822 589.371 348.892 593.426 345.842 599.608L345.582 599.805C342.227 600.178 338.709 601.586 335.475 602.551L323.745 605.505C302.228 610.456 277.14 612.772 255.324 608.172C276.689 607.948 298.236 602.52 317.898 594.361C322.022 592.65 326.782 590.91 330.568 588.56L331.041 588.24Z"/>
	<path fill="#D82F26" transform="scale(0.488281 0.488281)" d="M200.123 526.982C203.892 525.708 210.336 526.384 214.489 526.284L293.318 526.676L293.724 526.836C298.685 531.893 304.422 535.413 310.406 539.127L309.947 539.496C308.302 540.849 307.166 542.212 305.963 543.959L305.606 544.053L263.825 541.712C242.11 540.182 219.332 537.28 198.271 531.779L200.123 526.982Z"/>
	<path fill="#DF6635" transform="scale(0.488281 0.488281)" d="M147.736 391.021C146.174 383.5 140.695 374.585 136.523 368.234C130.575 359.183 123.142 349.806 113.376 344.663C107.966 341.813 102.044 340.357 96.0947 339.145C100.712 337.209 106.444 336.327 111.385 335.628C124.634 333.752 137.852 333.653 151.148 335.048C169.548 338.255 188.317 343.651 204.711 352.75C210.918 356.196 216.626 360.533 222.803 363.929C223.639 364.945 224.469 365.458 225.568 366.149C230.649 368.335 235.265 372.869 239.516 376.369C250.984 385.814 262.363 395.805 272.431 406.757L272.589 407.92L272.612 433.514C273.421 438.194 273.86 442.953 274.878 447.596C277.279 458.556 281.552 467.941 288.315 476.867L291.493 478.632C289.55 479.837 287.453 480.967 285.666 482.389L283.535 483.565C282.421 485.543 281.808 487.015 281.472 489.25L281.334 490.11C279.56 501.937 284.056 514.524 291.129 523.911L293.318 526.676L214.489 526.284C210.336 526.384 203.892 525.708 200.123 526.982C199.321 526.798 199.364 526.854 198.734 526.579C193.817 524.433 188.898 520.736 184.643 517.469C165.596 502.847 153.491 482.412 154.053 458C154.16 453.349 154.81 448.804 155.965 444.303C156.574 441.926 157.959 439.145 158.053 436.75C158.187 433.332 157.387 429.394 156.88 426.009C155.087 414.044 151.961 402.354 147.736 391.021Z"/>
	<path fill="#D82F26" transform="scale(0.488281 0.488281)" d="M283.535 483.565L213.02 443.858L213.25 443.319L267.433 468.131C274.107 471.057 280.818 474.499 287.764 476.697L288.315 476.867L291.493 478.632C289.55 479.837 287.453 480.967 285.666 482.389L283.535 483.565Z"/>
	<path fill="#D82F26" transform="scale(0.488281 0.488281)" d="M225.568 366.149C230.649 368.335 235.265 372.869 239.516 376.369C250.984 385.814 262.363 395.805 272.431 406.757L272.589 407.92L272.612 433.514C270.558 431.447 269.232 428.696 267.825 426.164L261.485 414.812L250.975 398.071C245.896 390.457 240.375 383.158 234.492 376.148L225.568 366.149Z"/>
	<path fill="#34763F" transform="scale(0.488281 0.488281)" d="M272.589 407.92C274.404 408.417 275.674 410.048 276.99 411.334L287.365 421.791C297.533 432.008 308.705 441.466 320.306 450.018C336.802 462.179 353.897 472.467 374.25 476.47C381.608 477.917 388.945 478.053 396.406 477.924C406.256 459.923 418.372 446.279 435.098 434.292L453.298 423.694L491.055 445.536L493.692 447.322C497.342 452.255 499.505 456.629 500.909 462.624C500.306 470.288 498.695 477.967 497.164 485.5L487.156 527.084L470.662 580.64C463.351 600.886 455.289 620.745 444.009 639.175C440.908 638.513 437.727 638.291 434.64 637.517C426.748 635.539 420.487 630.876 414.575 625.455L413.367 624.647C412.289 622.843 409.986 621.011 408.493 619.469L401.272 613.589C395.79 620.819 387.77 629.803 379.67 633.926C374.272 634.99 368.997 635.514 363.5 634.84C357.175 634.065 351.165 630.857 347.342 625.69C343.476 620.466 342.451 614.009 343.314 607.677L343.448 606.75C343.801 604.197 344.584 602.155 345.582 599.805L345.842 599.608C348.892 593.426 352.822 589.371 358.261 585.263C352.468 587.006 346.949 588.552 340.833 588.457C337.759 588.409 334.053 587.796 331.041 588.24L330.676 587.668C326.357 587.399 321.598 585.969 317.754 583.993C310.717 580.377 304.998 574.659 302.617 566.963C300.197 559.141 301.81 551.129 305.606 544.053L305.963 543.959C307.166 542.212 308.302 540.849 309.947 539.496L310.406 539.127C304.422 535.413 298.685 531.893 293.724 526.836L293.318 526.676L291.129 523.911C284.056 514.524 279.56 501.937 281.334 490.11L281.472 489.25C281.808 487.015 282.421 485.543 283.535 483.565L285.666 482.389C287.453 480.967 289.55 479.837 291.493 478.632L288.315 476.867C281.552 467.941 277.279 458.556 274.878 447.596C273.86 442.953 273.421 438.194 272.612 433.514L272.589 407.92Z"/>
	<path fill="#0E402F" transform="scale(0.488281 0.488281)" d="M315.692 488.507C319.6 488.772 324.338 491.176 328.141 492.435C332.431 493.856 336.854 494.968 341.25 496.023C368.007 502.44 396.617 505.055 423.487 497.936C427.552 496.859 431.87 495.843 435.754 494.227C439.973 492.471 444.348 490.541 448.263 488.177C450.162 487.03 451.845 485.572 453.75 484.445C453.272 486.59 445.65 491.824 443.592 493.133C441.728 494.32 430.788 499.151 430.304 499.859C409.284 507.229 385.381 510.492 363.25 507.474C347.79 505.365 332.224 500.067 317.984 493.8L315.692 488.507Z"/>
	<path fill="#0E402F" transform="scale(0.488281 0.488281)" d="M334.662 530.388C336.305 529.766 338.494 530.191 340.255 530.283L351.04 530.69L366.887 530.312C382.615 529.278 399.4 525.228 414.044 519.404C423.578 515.612 432.629 510.899 441.324 505.455L454.467 496.382C457.58 494.055 465.1 486.958 468.988 486.685L456.893 499.604C424.127 527.878 383.969 545.532 340.145 545.015L334.662 530.388Z"/>
	<path fill="#F0D577" transform="scale(0.488281 0.488281)" d="M291.493 478.632C299.366 481.558 307.047 486.119 315.303 487.95L315.692 488.507L317.984 493.8C332.224 500.067 347.79 505.365 363.25 507.474C385.381 510.492 409.284 507.229 430.304 499.859C429.424 501.314 427.757 501.605 426.194 502.174C420.226 504.348 414.056 506.11 407.891 507.632C389.256 512.232 370.769 512.928 351.75 510.654C344.267 509.759 336.927 508.69 329.685 506.553L334.299 529.581C331.944 530.74 326.205 529.505 323.513 529.284L293.724 526.836L293.318 526.676L291.129 523.911C284.056 514.524 279.56 501.937 281.334 490.11L281.472 489.25C281.808 487.015 282.421 485.543 283.535 483.565L285.666 482.389C287.453 480.967 289.55 479.837 291.493 478.632Z"/>
	<path fill="#DA994A" transform="scale(0.488281 0.488281)" d="M291.493 478.632C299.366 481.558 307.047 486.119 315.303 487.95L315.692 488.507L317.984 493.8C311.152 491.974 304.466 488.363 297.901 485.75C293.908 484.161 289.861 483.255 285.666 482.389C287.453 480.967 289.55 479.837 291.493 478.632Z"/>
	<path fill="#0E402F" transform="scale(0.488281 0.488281)" d="M486.403 473.534C487.853 475.684 487.163 478.754 487.099 481.25C486.829 491.691 485.456 502.2 483.471 512.453C480.985 525.299 476.157 536.896 470.476 548.621C459.338 571.605 444.7 592.943 427.794 612.039C424.077 616.238 419.658 622.238 415.135 625.395L414.575 625.455L413.367 624.647C412.289 622.843 409.986 621.011 408.493 619.469L401.272 613.589C403.861 609.709 407.665 606.079 410.728 602.541L427.373 582.223C433.67 574.011 440.047 565.691 445.708 557.022C462.685 531.023 476.273 502.876 486.403 473.534Z"/>
	<path fill="#F0D577" transform="scale(0.488281 0.488281)" d="M272.589 407.92C274.404 408.417 275.674 410.048 276.99 411.334L287.365 421.791C297.533 432.008 308.705 441.466 320.306 450.018C336.802 462.179 353.897 472.467 374.25 476.47C381.608 477.917 388.945 478.053 396.406 477.924C408.054 477.164 419.629 475.838 430.879 472.568C446.858 467.923 461.545 460.348 476.874 454.055C473.296 457.399 469.211 460.145 465.258 463.018C441.228 480.478 413.607 489.517 383.848 488.495C357.224 487.581 330.689 478.727 309.02 463.336C310.512 471.652 312.362 480.014 315.303 487.95C307.047 486.119 299.366 481.558 291.493 478.632L288.315 476.867C281.552 467.941 277.279 458.556 274.878 447.596C273.86 442.953 273.421 438.194 272.612 433.514L272.589 407.92Z"/>
	<path fill="#F0D577" transform="scale(0.488281 0.488281)" d="M468.988 486.685C470.718 485.344 472.352 482.919 473.771 481.203C480.42 473.158 485.788 464.175 492.339 456.049L486.403 473.534C476.273 502.876 462.685 531.023 445.708 557.022C440.047 565.691 433.67 574.011 427.373 582.223L410.728 602.541C407.665 606.079 403.861 609.709 401.272 613.589C395.79 620.819 387.77 629.803 379.67 633.926C374.272 634.99 368.997 635.514 363.5 634.84C357.175 634.065 351.165 630.857 347.342 625.69C343.476 620.466 342.451 614.009 343.314 607.677L343.448 606.75C343.801 604.197 344.584 602.155 345.582 599.805L345.842 599.608C348.892 593.426 352.822 589.371 358.261 585.263C352.468 587.006 346.949 588.552 340.833 588.457C337.759 588.409 334.053 587.796 331.041 588.24L330.676 587.668C326.357 587.399 321.598 585.969 317.754 583.993C310.717 580.377 304.998 574.659 302.617 566.963C300.197 559.141 301.81 551.129 305.606 544.053L305.963 543.959C307.166 542.212 308.302 540.849 309.947 539.496L310.406 539.127C304.422 535.413 298.685 531.893 293.724 526.836L323.513 529.284C326.205 529.505 331.944 530.74 334.299 529.581L334.662 530.388L340.145 545.015C383.969 545.532 424.127 527.878 456.893 499.604L468.988 486.685Z"/>
	<path fill="#DA994A" transform="scale(0.488281 0.488281)" d="M354.087 568.732C355.567 569.759 356.356 571.191 358.25 571.5C358.806 571.03 359.111 570.761 359.845 570.613C360.924 570.396 360.105 570.645 361.284 570.252L366.625 568.503L370.533 567.182L371.002 567.003L371.75 566.755L372.25 566.255L373.25 566.255L373.75 565.755L375.002 565.503C376.551 564.976 377.495 564.925 379.147 564.935L357.748 572.434L366.992 581.775L369.056 583.419L373.777 588.303C365.532 593.888 355.37 596.971 345.842 599.608C348.892 593.426 352.822 589.371 358.261 585.263C352.468 587.006 346.949 588.552 340.833 588.457C337.759 588.409 334.053 587.796 331.041 588.24L330.676 587.668C336.265 585.551 341.448 580.869 346.487 577.637C349.736 575.552 353.602 573.923 357.144 572.386L354.087 568.732Z"/>
	<path fill="#34763F" transform="scale(0.488281 0.488281)" d="M369.056 583.419C375.624 581.918 382.695 577.407 388.423 573.943C397.904 568.208 407.266 562.261 416.177 555.665L435.043 540.668L442.062 534.698C442.583 534.239 443.909 532.755 444.5 532.546C445.416 532.222 446.943 532.251 447.944 532.13C429.215 556.627 404.441 576.884 378.921 593.933L373.777 588.303L369.056 583.419Z"/>
	<path fill="#0E402F" transform="scale(0.488281 0.488281)" d="M379.147 564.935C413.773 552.074 444.699 527.858 468.934 500.369L469.79 500.319L447.944 532.13C446.943 532.251 445.416 532.222 444.5 532.546C443.909 532.755 442.583 534.239 442.062 534.698L435.043 540.668L416.177 555.665C407.266 562.261 397.904 568.208 388.423 573.943C382.695 577.407 375.624 581.918 369.056 583.419L366.992 581.775L357.748 572.434L379.147 564.935Z"/>
	<path fill="#DA994A" transform="scale(0.488281 0.488281)" d="M456.893 499.604C456.788 501.606 456.431 502.436 455.25 504.021L454.945 504.447C452.401 507.944 449.07 511.221 446.108 514.394C428.215 533.554 403.169 550.482 376.878 554.417C371.476 555.225 366.109 555.503 360.75 554.735C359.12 554.501 357.41 555.185 356 554.245C354.572 554.245 353.205 554.548 352 553.745C350.572 553.745 349.205 554.048 348 553.245C346.73 553.245 345.64 553.46 344.513 552.839L343.555 552.862C341.683 550.778 340.709 547.599 339.688 545.008L305.963 543.959C307.166 542.212 308.302 540.849 309.947 539.496L310.406 539.127C304.422 535.413 298.685 531.893 293.724 526.836L323.513 529.284C326.205 529.505 331.944 530.74 334.299 529.581L334.662 530.388L340.145 545.015C383.969 545.532 424.127 527.878 456.893 499.604Z"/>
	<path fill="#E7DEB3" transform="scale(0.488281 0.488281)" d="M187.175 287.53L188.29 287.595C191.613 288.749 195.197 289.22 198.63 289.989L218.512 294.736L265.528 307.945C283.219 312.886 301.744 317.727 320.194 318.412C331.545 318.833 342.911 318.128 354.25 317.723L405.321 315.838L427.266 314.896C432.444 314.668 438.588 313.874 443.618 315.306L444.326 315.504C454.212 318.418 462.263 326.648 466.995 335.552L470.64 343.155C478.958 361.235 481.533 381.814 475.704 401.021C471.621 408.696 466.619 413.62 459.762 418.826C457.745 420.357 455.072 421.921 453.298 423.694L435.098 434.292C418.372 446.279 406.256 459.923 396.406 477.924C388.945 478.053 381.608 477.917 374.25 476.47C353.897 472.467 336.802 462.179 320.306 450.018C308.705 441.466 297.533 432.008 287.365 421.791L276.99 411.334C275.674 410.048 274.404 408.417 272.589 407.92L272.431 406.757C262.363 395.805 250.984 385.814 239.516 376.369C235.265 372.869 230.649 368.335 225.568 366.149C224.469 365.458 223.639 364.945 222.803 363.929C216.626 360.533 210.918 356.196 204.711 352.75C188.317 343.651 169.548 338.255 151.148 335.048C154.124 323.752 157.889 310.735 163.476 300.52C167.274 300.56 172.268 301.205 175.881 300.391C179.766 299.517 184.977 290.756 187.175 287.53Z"/>
	<path fill="#DF6635" transform="scale(0.488281 0.488281)" d="M222.803 363.929L222.184 363.138C219.97 360.45 216.266 358.295 213.435 356.258C200.165 346.704 186.837 337.817 171.365 332.131C192.146 330.983 213.225 331.134 233.903 333.58C262.724 336.989 292.899 344.604 319.783 355.495C329.236 359.325 338.321 363.816 347.432 368.388C370.337 379.883 393.284 394.53 412.446 411.67L435.098 434.292C418.372 446.279 406.256 459.923 396.406 477.924C388.945 478.053 381.608 477.917 374.25 476.47C353.897 472.467 336.802 462.179 320.306 450.018C308.705 441.466 297.533 432.008 287.365 421.791L276.99 411.334C275.674 410.048 274.404 408.417 272.589 407.92L272.431 406.757C262.363 395.805 250.984 385.814 239.516 376.369C235.265 372.869 230.649 368.335 225.568 366.149C224.469 365.458 223.639 364.945 222.803 363.929Z"/>
</svg>
