<?xml version="1.0" encoding="utf-8" ?>
<svg xmlns="http://www.w3.org/2000/svg" xmlns:xlink="http://www.w3.org/1999/xlink" width="500" height="500">
	<path fill="#8FDFFB" transform="scale(0.488281 0.488281)" d="M0 355.333L-0 -0L352.261 0L579.53 0L640.532 0L799.79 0L983.755 0L1024 0L1024 295.881L1024 644.951L1024 849.431L1024 1022.5L1023.88 1023.63C1022.94 1024.54 1015.64 1024 1013.66 1024L0 1024L0 1021.5L-0 858.843L0 812.359L0 665.231L0 575.189L-0 506.543L0 403.487L0 355.333Z"/>
	<path fill="#59D2F9" transform="scale(0.488281 0.488281)" d="M565.296 585.08L570.414 591.849C565.827 592.071 559.638 596.331 555.354 598.371C545.819 602.912 535.982 606.182 526.127 609.907C525.3 610.22 520.89 612.195 520.25 612.001C519.829 611.873 519.594 611.414 519.265 611.121L521.287 594.85L521.413 593.75C522.284 592.507 523.078 592.707 524.5 592.534C538.408 590.835 551.739 588.853 565.296 585.08Z"/>
	<path fill="#FCB80C" transform="scale(0.488281 0.488281)" d="M565.296 585.08L593.141 574.208L606.525 639.19L570.414 591.849L565.296 585.08Z"/>
	<path fill="#FCB80C" transform="scale(0.488281 0.488281)" d="M636.725 546.598C637.853 545.191 639.779 543.915 641.178 542.75L649.53 535.576C652.65 532.653 655.043 529.169 658.065 526.19L658.369 525.896L690.368 585.471L636.725 546.598Z"/>
	<path fill="#FCB80C" transform="scale(0.488281 0.488281)" d="M493.329 592.601C502.481 592.587 511.736 595.07 520.921 593.136L521.287 594.85L519.265 611.121L508.536 661.531L496.826 615.636L493.329 592.601Z"/>
	<path fill="#59D2F9" transform="scale(0.488281 0.488281)" d="M449.042 583.604C459.553 586.704 469.922 589.301 480.75 591.056C484.905 591.73 489.11 592.52 493.329 592.601L496.826 615.636C495.337 617.35 489.712 617.643 487.25 618.064L443.324 623.329C438.26 623.701 430.377 624.957 425.622 623.486L449.042 583.604Z"/>
	<path fill="#59D2F9" transform="scale(0.488281 0.488281)" d="M-0 812.359C6.00992 808.511 11.4683 803.454 17.2416 799.221L53.9867 774.29L87.5032 755.369C91.1004 753.408 95.5637 751.881 98.75 749.385C99.8034 748.559 100.061 748.729 101.36 748.625C101.632 754.967 102.396 761.65 104.788 767.582C95.1628 772.212 88.9338 778.78 85.36 788.959C80.2238 803.588 81.4562 818.258 86.1923 832.763L32.224 848.456L12.3095 855.058C8.29778 856.403 4.1496 858.033 -0 858.843L0 812.359Z"/>
	<path fill="#FEFEFE" transform="scale(0.488281 0.488281)" d="M792.209 437.57L796.835 426.542C803.508 413.569 816.036 402.905 829.972 398.52C842.805 394.481 856.343 396.479 868.133 402.635C880.842 409.27 888.433 419.713 892.672 433.12C897.775 429.565 902.214 427.805 908.187 426.223C911.143 426.044 913.807 425.938 916.75 426.395L917.561 426.506C920.361 426.913 922.752 427.957 925.385 428.904C933.061 432.803 940.299 439.304 942.963 447.75C944.327 452.074 944.455 456.942 944.438 461.444C953.56 460.398 960.848 462.586 967.997 468.288C975.439 474.224 980.43 483.026 981.373 492.535C982.308 501.967 979.549 511.326 973.528 518.667C968.342 524.991 961.951 529.432 954 531.525L953.177 531.747C943.448 534.206 931.546 533.006 921.486 533.341L839.584 534.512L816.537 534.655C811.926 534.655 806.994 534.876 802.422 534.258C797.798 533.633 793.03 531.278 789 528.982C779 523.285 770.141 513.221 767.187 501.941L766.944 501C765.151 494.179 765.692 486.408 767.765 479.714C771.246 468.475 780.179 462.349 790.048 457.235C789.976 450.294 790.616 444.331 792.209 437.57Z"/>
	<path fill="#1FB506" transform="scale(0.488281 0.488281)" d="M101.36 748.625C101.426 735.666 103.862 723.691 110.949 712.623C117.916 701.742 128.613 694.327 141.165 691.5C140.885 687.226 140.676 682.366 141.281 678.137L141.985 673.345C145.429 655.308 156.999 639.684 172.007 629.506C187.855 618.76 208.174 615.3 226.856 618.897C244.234 621.873 262.242 632.716 272.377 647.25C283.153 662.703 287.247 682.629 283.678 701.136C282.53 707.09 280.49 713.475 277.66 718.858C290.343 723.242 300.535 731.395 306.555 743.575C313.866 758.366 313.392 775.139 308.225 790.486L307.798 791.649L176.364 812.768L163.707 815.628L105.097 828.688L86.1923 832.763C81.4562 818.258 80.2238 803.588 85.36 788.959C88.9338 778.78 95.1628 772.212 104.788 767.582C102.396 761.65 101.632 754.967 101.36 748.625Z"/>
	<path fill="#74C319" transform="scale(0.488281 0.488281)" d="M101.36 748.625C101.426 735.666 103.862 723.691 110.949 712.623C117.916 701.742 128.613 694.327 141.165 691.5C140.885 687.226 140.676 682.366 141.281 678.137L141.985 673.345C145.429 655.308 156.999 639.684 172.007 629.506C187.855 618.76 208.174 615.3 226.856 618.897L227.327 619.511C228.491 620.872 231.123 621.321 232.785 622.013C235.7 623.227 238.634 624.655 241.342 626.28C247.005 629.679 252.245 634.964 256.364 640.096C265.221 651.132 270.883 664.605 273.12 678.536C274.876 689.473 272.087 700.939 267.649 710.894C266.839 712.711 266.16 714.905 265.152 716.598L264.898 716.822C263.947 704.097 257.964 692.548 248.25 684.229C237.854 675.325 223.604 671.192 210.026 672.361C196.85 673.495 183.668 680.118 175.121 690.282C170.761 695.468 167.967 701.829 166.914 708.5L166.796 709.221L165.986 720.573C159.29 718.15 152.965 716.206 146.072 719.474C141.589 721.599 136.481 723.684 132.75 727.004C128.616 730.684 125.676 736.331 123.877 741.5L120.778 754.196C119.577 761.406 119.885 768.978 121.266 776.14C115.052 776.515 111.643 777.056 107.293 781.889C100.944 788.944 98.9242 801.038 99.4124 810.264C99.7766 817.148 102.933 822.37 105.097 828.688L86.1923 832.763C81.4562 818.258 80.2238 803.588 85.36 788.959C88.9338 778.78 95.1628 772.212 104.788 767.582C102.396 761.65 101.632 754.967 101.36 748.625Z"/>
	<path fill="#59D2F9" transform="scale(0.488281 0.488281)" d="M1024 295.881L1024 644.951C1023.5 644.83 1023.01 644.506 1022.5 644.586C1020.02 644.975 1015.84 647.904 1013.41 649.166L954 682.658L937.779 693.069C930.458 697.74 923.079 702.244 916.412 707.856L907.626 703.483C915.624 689.635 918.012 671.966 916.658 656.214C914.661 632.972 902.282 613.067 884.75 598.281C888.913 593.043 892.213 587.061 895.658 581.328L914.179 548.187C916.661 543.333 919.606 538.457 921.486 533.341C931.546 533.006 943.448 534.206 953.177 531.747L954 531.525C961.951 529.432 968.342 524.991 973.528 518.667C979.549 511.326 982.308 501.967 981.373 492.535C980.43 483.026 975.439 474.224 967.997 468.288C960.848 462.586 953.56 460.398 944.438 461.444C944.455 456.942 944.327 452.074 942.963 447.75C940.299 439.304 933.061 432.803 925.385 428.904C922.752 427.957 920.361 426.913 917.561 426.506L916.75 426.395C913.807 425.938 911.143 426.044 908.187 426.223C909.533 419.169 913.828 411.442 916.838 404.91C927.209 382.405 937.723 359.611 954.351 340.881C971.129 319.255 996.979 300.978 1024 295.881Z"/>
	<path fill="#1FB506" transform="scale(0.488281 0.488281)" d="M692.397 789.314C694.382 787.171 696.236 785.376 698.702 783.787L699.351 783.374C697.539 779.879 695.795 776.463 694.982 772.575L694.819 771.75C693.478 765.125 694.854 757.816 697.694 751.75C702.162 742.204 709.503 735.549 719.332 731.935C716.783 727.696 714.959 722.899 714.085 718.031C711.925 706.001 713.879 693.666 720.981 683.603C728.128 673.475 739.643 666.881 751.8 664.861L752.523 664.744C750.983 647.69 754.163 631.932 763.342 617.333C775.221 598.439 793.711 586.325 815.343 581.526C828.871 578.526 843.002 579.393 856.25 583.228C860.746 584.529 865.6 586.111 869.557 588.644C875.062 591.136 879.913 594.697 884.75 598.281C902.282 613.067 914.661 632.972 916.658 656.214C918.012 671.966 915.624 689.635 907.626 703.483L916.412 707.856C923.079 702.244 930.458 697.74 937.779 693.069L954 682.658L1013.41 649.166C1015.84 647.904 1020.02 644.975 1022.5 644.586C1023.01 644.506 1023.5 644.83 1024 644.951L1024 849.431L925.369 826.833L730.632 793.679L692.397 789.314Z"/>
	<path fill="#74C319" transform="scale(0.488281 0.488281)" d="M692.397 789.314C694.382 787.171 696.236 785.376 698.702 783.787L699.351 783.374C697.539 779.879 695.795 776.463 694.982 772.575L694.819 771.75C693.478 765.125 694.854 757.816 697.694 751.75C702.162 742.204 709.503 735.549 719.332 731.935C716.783 727.696 714.959 722.899 714.085 718.031C711.925 706.001 713.879 693.666 720.981 683.603C728.128 673.475 739.643 666.881 751.8 664.861L752.523 664.744C750.983 647.69 754.163 631.932 763.342 617.333C775.221 598.439 793.711 586.325 815.343 581.526C828.871 578.526 843.002 579.393 856.25 583.228C860.746 584.529 865.6 586.111 869.557 588.644C874.965 595.332 881.042 601.16 885.814 608.406C898.662 627.911 905.85 657.085 903.26 680.334C902.312 688.846 900.608 697.701 898.003 705.856C896.994 700.298 896.262 694.934 894.487 689.541C889.918 675.652 881.452 664.224 869.5 655.882C856.885 647.076 839.033 643.111 823.814 645.864C806.37 649.019 792.389 657.418 782.361 672.261C777.697 679.163 775.751 686.183 774.286 694.257C767.915 691.737 762.099 690.527 755.305 692.279L754.503 692.481C747.226 694.388 740.18 700.491 736.576 707C732.903 713.636 731.567 722.609 733.54 730.007L735.982 740.518C733.116 740.476 730.013 740.106 727.36 741.327L726.833 741.559C722.582 743.511 719.505 748.488 717.95 752.75C714.574 762.005 716.627 771.116 720.851 779.632C723.145 784.256 727.009 789.968 730.632 793.679L692.397 789.314Z"/>
	<path fill="#24C5F5" transform="scale(0.488281 0.488281)" d="M916.412 707.856C923.079 702.244 930.458 697.74 937.779 693.069L954 682.658L1013.41 649.166C1015.84 647.904 1020.02 644.975 1022.5 644.586C1023.01 644.506 1023.5 644.83 1024 644.951L1024 849.431L925.369 826.833L929.194 822.833C943.566 807.499 953.256 788.434 952.425 766.952C951.624 746.24 942.561 729.947 927.644 716.058L916.412 707.856Z"/>
	<path fill="#59D2F9" transform="scale(0.488281 0.488281)" d="M-0 506.543C13.8873 497.656 27.4262 488.734 42 480.953C106.079 446.739 178.104 432.782 250.397 436.077C267.676 436.864 284.953 438.851 302.064 441.288C305.179 441.732 308.37 442.14 311.437 442.835C313.449 443.291 315.922 444.526 317.802 443.641L325.345 467.644L337.452 492.946L349.982 512.37C353.459 516.745 356.796 521.299 360.511 525.475C361.195 526.243 362.203 527.709 363.112 528.163C369.269 534.289 375.21 541.397 382.145 546.623C390.032 553.117 398.215 559.157 406.966 564.451C411.922 567.449 417.891 570.014 422.412 573.525C422.653 573.445 422.881 573.289 423.135 573.285C423.224 573.284 446.433 582.564 449.042 583.604L425.622 623.486L411.898 643.877L413.111 625.115C408.404 624.336 403.515 624.497 398.755 624.387L376 623.456L302.064 615.442C272.352 611.768 243.078 604.853 213.25 601.909C194.561 600.065 175.949 599.743 157.25 601.624C146.434 602.712 135.637 605.064 125.077 607.599C86.5723 616.843 51.2845 633.374 17.7186 654.172L0.207681 665.041L-0 665.231L0 575.189L-0 506.543Z"/>
	<path fill="#F9A308" transform="scale(0.488281 0.488281)" d="M325.345 467.644L337.452 492.946L302.534 503.778L267.905 513.394L278.272 505.169L325.345 467.644Z"/>
	<path fill="#F9A308" transform="scale(0.488281 0.488281)" d="M382.145 546.623L341.254 578.679C335.83 582.717 330.463 587.079 324.701 590.611C327.793 584.056 331.741 577.838 335.364 571.558C343.85 556.854 352.878 541.703 363.112 528.163C369.269 534.289 375.21 541.397 382.145 546.623Z"/>
	<path fill="#F9A308" transform="scale(0.488281 0.488281)" d="M422.412 573.525C422.653 573.445 422.881 573.289 423.135 573.285C423.224 573.284 446.433 582.564 449.042 583.604L425.622 623.486L411.898 643.877L413.111 625.115C414.852 607.479 417.532 590.573 422.412 573.525Z"/>
	<defs>
		<linearGradient id="gradient_0" gradientUnits="userSpaceOnUse" x1="604.57452" y1="586.55951" x2="420.43936" y2="217.51665">
			<stop offset="0" stop-color="#FDC505"/>
			<stop offset="1" stop-color="#FEEE07"/>
		</linearGradient>
	</defs>
	<path fill="url(#gradient_0)" transform="scale(0.488281 0.488281)" d="M499.548 194.966C506.09 194.362 513.331 194.114 519.87 194.799C531.55 196.096 542.49 197.043 553.994 199.656L569.224 204.351C574.716 205.92 579.907 207.862 585.157 210.1C586.493 210.67 588.948 211.419 590.019 212.302C605.081 218.642 620.706 228.895 633.114 239.426C640.646 245.173 647.071 251.622 653.697 258.348C663.666 268.987 671.622 280.809 678.98 293.35L690.379 317.543C696.942 334.833 700.738 351.778 704.234 369.899L705.903 394.399L699.698 445.119L698.014 451.678L692.595 466.888L693.296 467.243C699.132 470.245 704.409 474.776 709.659 478.717L756.347 516.69L681.354 491.31C675.51 501.963 669.001 511.728 661.797 521.503C661.151 522.381 659.227 525.508 658.369 525.896L658.065 526.19C655.043 529.169 652.65 532.653 649.53 535.576L641.178 542.75C639.779 543.915 637.853 545.191 636.725 546.598C624.224 558.243 608.67 567.323 593.141 574.208L565.296 585.08C551.739 588.853 538.408 590.835 524.5 592.534C523.078 592.707 522.284 592.507 521.413 593.75L521.287 594.85L520.921 593.136C511.736 595.07 502.481 592.587 493.329 592.601C489.11 592.52 484.905 591.73 480.75 591.056C469.922 589.301 459.553 586.704 449.042 583.604C446.433 582.564 423.224 573.284 423.135 573.285C422.881 573.289 422.653 573.445 422.412 573.525C417.891 570.014 411.922 567.449 406.966 564.451C398.215 559.157 390.032 553.117 382.145 546.623C375.21 541.397 369.269 534.289 363.112 528.163C362.203 527.709 361.195 526.243 360.511 525.475C356.796 521.299 353.459 516.745 349.982 512.37L337.452 492.946L325.345 467.644L317.802 443.641C314.616 429.022 312.577 414.491 312.418 399.515L312.562 395.548C313.18 392.785 312.9 389.78 312.979 386.947L313.703 376.437C315.343 359.707 319.054 344.109 324.261 328.173L331.383 311.091C333.06 308.521 334.026 305.32 335.425 302.562L343.575 287.543C351.08 275.984 359.075 265.278 368.504 255.211L386.836 238.84C400.009 228.143 414.618 219.132 430.059 212.121L451.361 203.715C454.788 201.993 459.5 200.947 463.225 200.019C475.203 197.038 487.253 195.692 499.548 194.966Z"/>
	<path fill="#F9A308" transform="scale(0.488281 0.488281)" d="M452.17 545.324C452.874 544.71 452.449 544.892 453.537 544.896L476.115 545.981C501.902 546.106 526.299 541.415 550.165 531.663C558.4 528.298 566.886 524.498 574.5 519.902C626.617 488.444 659.255 430.61 659.963 369.863C660.031 364.039 659.908 358.182 659.153 352.399L657.005 338.738C656.806 337.704 655.874 334.919 656.045 334C656.14 333.494 656.444 333.051 656.643 332.577C672.226 377.354 673.989 423.7 652.986 467.208C634.97 504.529 603.642 533.628 564.278 547.294C529.068 559.518 486.886 559.75 452.17 545.324Z"/>
	<path fill="#FCB80C" transform="scale(0.488281 0.488281)" d="M452.17 545.324C451.237 545.095 450.4 544.809 449.531 544.407C406.99 524.708 373.245 491.139 357.322 446.636C343.382 407.675 346.448 364.061 364.025 326.75C382.488 287.561 415.395 257.186 456.351 242.657C484.468 232.682 517.306 230.707 546.384 237.814C558.629 240.806 570.388 245.574 581.741 250.994C608.115 263.584 630.76 285.601 645.749 310.578C649.947 317.573 653.908 324.874 656.643 332.577C656.444 333.051 656.14 333.494 656.045 334C655.874 334.919 656.806 337.704 657.005 338.738L659.153 352.399C659.908 358.182 660.031 364.039 659.963 369.863C659.255 430.61 626.617 488.444 574.5 519.902C566.886 524.498 558.4 528.298 550.165 531.663C526.299 541.415 501.902 546.106 476.115 545.981L453.537 544.896C452.449 544.892 452.874 544.71 452.17 545.324Z"/>
	<path fill="#F8DD48" transform="scale(0.488281 0.488281)" d="M448.256 280.2C451.056 279.481 455.609 279.919 458.541 280.293L466.035 281.55C481.282 285.363 495.559 294.622 503.651 308.345C507.947 315.629 510.932 323.425 512.216 331.812C514.679 347.902 509.091 366.56 499.26 379.35C488.767 393 474.57 399.177 457.98 401.452C453.478 401.672 448.511 401.844 444.053 401.184L433.719 399.036C419.679 394.777 406.858 384.107 400.071 371.101C391.921 355.483 389.417 338.974 394.89 321.969C399.308 308.245 410.213 294.347 423.117 287.715C431.388 283.464 438.998 281.091 448.256 280.2Z"/>
	<path fill="#24C5F5" transform="scale(0.488281 0.488281)" d="M579.53 0L640.532 0L799.79 0L983.755 0L1024 0L1024 295.881C996.979 300.978 971.129 319.255 954.351 340.881C937.723 359.611 927.209 382.405 916.838 404.91C913.828 411.442 909.533 419.169 908.187 426.223C902.214 427.805 897.775 429.565 892.672 433.12C888.433 419.713 880.842 409.27 868.133 402.635C856.343 396.479 842.805 394.481 829.972 398.52C816.036 402.905 803.508 413.569 796.835 426.542L792.209 437.57C791.079 437.372 791.183 437.221 790.105 437.768C789.053 438.302 788.288 438.251 787.147 438.264C786.37 438.273 785.743 438.443 784.999 438.636L780.25 439.731L712.884 457.415C709.085 458.59 706.146 457.131 702.792 455.298C701.048 454.345 699.521 452.963 698.014 451.678L699.698 445.119L705.903 394.399L704.234 369.899C700.738 351.778 696.942 334.833 690.379 317.543L678.98 293.35C671.622 280.809 663.666 268.987 653.697 258.348C647.071 251.622 640.646 245.173 633.114 239.426C620.706 228.895 605.081 218.642 590.019 212.302C588.948 211.419 586.493 210.67 585.157 210.1C579.907 207.862 574.716 205.92 569.224 204.351L553.994 199.656C556.521 196.072 559.631 192.822 562.278 189.304C568.997 180.371 575.78 170.17 580.633 160.08C586.866 147.123 590.652 132.662 593.143 118.547C595.102 107.447 596.598 96.4203 596.699 85.1318C596.959 55.7713 589.112 27.4739 579.53 0Z"/>
	<defs>
		<linearGradient id="gradient_1" gradientUnits="userSpaceOnUse" x1="702.82196" y1="380.9527" x2="770.19122" y2="395.69577">
			<stop offset="0" stop-color="#F58E00"/>
			<stop offset="1" stop-color="#FFAB00"/>
		</linearGradient>
	</defs>
	<path fill="url(#gradient_1)" transform="scale(0.488281 0.488281)" d="M704.234 369.899C710.976 370.31 717.546 372.506 724 374.378C741.276 379.39 758.024 386.166 774.844 392.518L775.107 392.834L753.59 394.981L705.903 394.399L704.234 369.899Z"/>
	<path fill="#FCB80C" transform="scale(0.488281 0.488281)" d="M643.923 227.741L684.407 188.743L653.697 258.348C647.071 251.622 640.646 245.173 633.114 239.426C635.824 234.777 639.985 231.325 643.923 227.741Z"/>
	<path fill="#F9A308" transform="scale(0.488281 0.488281)" d="M569.224 204.351C570.862 196.73 573.964 189.714 577.379 182.737C584.327 168.542 593.012 155.983 601.07 142.5L605.761 134.186C606.227 133.379 606.897 131.827 607.645 131.325C604.126 154.063 602.052 177.286 594.717 199.197C593.289 203.461 591.933 208.247 590.019 212.302C588.948 211.419 586.493 210.67 585.157 210.1C579.907 207.862 574.716 205.92 569.224 204.351Z"/>
	<defs>
		<linearGradient id="gradient_2" gradientUnits="userSpaceOnUse" x1="748.88971" y1="296.23727" x2="682.12451" y2="284.36459">
			<stop offset="0" stop-color="#FFAB00"/>
			<stop offset="1" stop-color="#F28D03"/>
		</linearGradient>
	</defs>
	<path fill="url(#gradient_2)" transform="scale(0.488281 0.488281)" d="M678.98 293.35C687.686 286.797 700.669 282.989 710.91 279.533L759.366 265.103C756.243 268.639 751.454 271.654 747.788 274.694C729.669 289.714 710.785 305.766 690.379 317.543L678.98 293.35Z"/>
	<path fill="#FEFEFE" transform="scale(0.488281 0.488281)" d="M776 129.404L782.429 127.155C783.16 120.896 784.387 115.431 786.983 109.671C793.288 95.6842 804.653 85.7118 818.964 80.4054C831.73 75.672 847.085 76.4193 859.438 82.1716C874.115 89.0065 884.507 100.729 890.047 115.867C894.784 111.681 900.486 108.909 906.704 107.78C916.033 106.087 924.803 109.694 932.226 115.015C939.73 121.491 943.55 127.227 945.004 137.142C945.057 137.501 945.338 140.33 945.455 140.463C945.536 140.557 950.399 141.344 950.953 141.492C964.427 145.084 974.804 155.71 978.571 169L978.81 169.816C981.331 178.825 979.124 188.907 974.506 196.872C969.352 205.761 960.916 211.988 950.984 214.542C947.599 215.413 943.998 215.789 940.503 215.869L914.666 215.559L849.013 215.427L810.464 215.322C803.654 215.31 796.728 215.759 789.947 215.07C783.739 214.439 777.417 212.56 772.042 209.348C761.623 203.122 752.774 192.807 749.925 180.859C747.261 169.691 748.566 157.164 754.741 147.348C759.985 139.012 767.3 133.689 776 129.404Z"/>
	<path fill="#59D2F9" transform="scale(0.488281 0.488281)" d="M0 355.333L-0 -0L352.261 0L579.53 0C589.112 27.4739 596.959 55.7713 596.699 85.1318C596.598 96.4203 595.102 107.447 593.143 118.547C590.652 132.662 586.866 147.123 580.633 160.08C575.78 170.17 568.997 180.371 562.278 189.304C559.631 192.822 556.521 196.072 553.994 199.656C542.49 197.043 531.55 196.096 519.87 194.799C513.331 194.114 506.09 194.362 499.548 194.966C487.253 195.692 475.203 197.038 463.225 200.019C459.5 200.947 454.788 201.993 451.361 203.715L430.059 212.121C414.618 219.132 400.009 228.143 386.836 238.84L368.504 255.211C359.075 265.278 351.08 275.984 343.575 287.543L335.425 302.562C334.026 305.32 333.06 308.521 331.383 311.091L324.261 328.173C319.054 344.109 315.343 359.707 313.703 376.437L312.979 386.947C312.9 389.78 313.18 392.785 312.562 395.548L312.418 399.515C312.577 414.491 314.616 429.022 317.802 443.641C315.922 444.526 313.449 443.291 311.437 442.835C308.37 442.14 305.179 441.732 302.064 441.288C284.953 438.851 267.676 436.864 250.397 436.077C178.104 432.782 106.079 446.739 42 480.953C27.4262 488.734 13.8873 497.656 -0 506.543L0 403.487L0 355.333Z"/>
	<path fill="#F9A308" transform="scale(0.488281 0.488281)" d="M377.325 226.565C380.691 230.25 384.597 234.344 386.836 238.84L368.504 255.211L358.691 240.832C362.701 238.812 370.109 240.662 374.75 240.072C377.914 237.438 376.227 230.965 377.199 227.034L377.325 226.565Z"/>
	<path fill="#FCB80C" transform="scale(0.488281 0.488281)" d="M358.691 240.832L331.765 188.736L332.045 188.718L377.325 226.565L377.199 227.034C376.227 230.965 377.914 237.438 374.75 240.072C370.109 240.662 362.701 238.812 358.691 240.832Z"/>
	<path fill="#FCB80C" transform="scale(0.488281 0.488281)" d="M326.345 308.73C321.204 306.338 316.528 302.579 311.803 299.45L284.318 280.823C277.588 276.119 271.008 271.125 263.875 267.04C290.254 272.864 317.522 278.121 342.889 287.538L343.575 287.543L335.425 302.562C334.026 305.32 333.06 308.521 331.383 311.091L326.345 308.73Z"/>
	<path fill="#F58004" transform="scale(0.488281 0.488281)" d="M343.575 287.543L335.425 302.562C334.026 305.32 333.06 308.521 331.383 311.091L326.345 308.73C327.8 307.032 328.954 304.282 330.119 302.324C333.129 297.269 337.916 290.767 342.889 287.538L343.575 287.543Z"/>
	<path fill="#FCB80C" transform="scale(0.488281 0.488281)" d="M430.059 212.121C420.275 186.814 418.376 160.839 415.994 134.107C421.675 142.266 426.694 151.042 431.488 159.75C436.125 168.172 440.88 176.629 444.717 185.451C447.301 191.392 449.312 197.573 451.361 203.715L430.059 212.121Z"/>
	<path fill="#FCB80C" transform="scale(0.488281 0.488281)" d="M499.548 194.966C495.345 165.003 502.483 134.135 509.19 105.072C512.634 125.778 520.074 146.163 521.327 167.25C521.873 176.44 520.639 185.652 519.87 194.799C513.331 194.114 506.09 194.362 499.548 194.966Z"/>
	<path fill="#24C5F5" transform="scale(0.488281 0.488281)" d="M0 403.487L16.559 392.598L46.3012 376.134C62.4787 367.933 79.3978 361.057 96.4185 354.828C147.975 335.957 204.219 325.198 259.204 324.927C271.874 324.865 284.508 325.283 297.125 326.486C304.91 327.228 312.693 328.678 320.5 329.033C321.768 329.091 323.065 328.552 324.261 328.173C319.054 344.109 315.343 359.707 313.703 376.437L312.979 386.947C312.9 389.78 313.18 392.785 312.562 395.548L312.418 399.515C312.577 414.491 314.616 429.022 317.802 443.641C315.922 444.526 313.449 443.291 311.437 442.835C308.37 442.14 305.179 441.732 302.064 441.288C284.953 438.851 267.676 436.864 250.397 436.077C178.104 432.782 106.079 446.739 42 480.953C27.4262 488.734 13.8873 497.656 -0 506.543L0 403.487Z"/>
	<path fill="#FCB80C" transform="scale(0.488281 0.488281)" d="M305.632 398.925L241.556 387.637L313.703 376.437L312.979 386.947C312.9 389.78 313.18 392.785 312.562 395.548L312.418 399.515C310.201 399.563 307.846 399.145 305.632 398.925Z"/>
	<path fill="#F9A308" transform="scale(0.488281 0.488281)" d="M305.632 398.925C306.302 395.554 309.162 393.325 311.615 391.124L312.323 391.25L312.562 395.548L312.418 399.515C310.201 399.563 307.846 399.145 305.632 398.925Z"/>
	<path fill="#24C5F5" transform="scale(0.488281 0.488281)" d="M0 355.333L-0 -0L352.261 0C354.683 14.6326 357.169 28.9925 357.81 43.8498C359.77 89.2953 346.579 135.435 320.083 172.449C293.047 210.219 253.826 236.023 209.637 249.287L146.596 266.428C103.226 280.053 60.2189 300.242 25.3957 329.882C16.355 337.577 7.85234 346.431 0 355.333Z"/>
	<path fill="#FEFEFE" transform="scale(0.488281 0.488281)" d="M182.819 84.1659L188.288 83.8319C203.178 83.6937 216.317 89.6447 226.837 100.028C236.926 109.987 241.834 123.098 241.908 137.129C248.636 138.918 254.769 141.84 259.911 146.634C268.309 154.464 273.156 165.219 273.367 176.75C273.576 188.117 268.694 199.088 260.76 207.079C255.054 212.826 248.28 216.605 240.289 218.163C236.796 218.844 232.914 218.439 229.357 218.412L210.198 218.384L130.375 218.137L99.9316 218.221C91.3002 218.221 81.969 218.838 73.5805 216.545C68.3579 215.118 63.141 212.138 59.0452 208.623C52.1586 202.713 46.571 193.305 46.0088 184.11C45.4011 174.168 48.6863 165.404 55.3423 158.028C60.1881 152.658 67.3494 148.407 74.4529 146.881C77.3346 146.262 80.5997 146.273 83.5415 146.132L83.9999 140.965C84.9669 132.574 89.1152 125.245 95.7965 120.078C102.419 114.956 112.056 112.24 120.349 113.302L121.25 113.426C125.14 113.934 129.057 115.12 132.5 117.039C134.379 118.086 136.189 119.515 138.21 120.234C140.118 114.774 142.329 109.584 145.807 104.916C154.608 93.1022 168.489 86.2042 182.819 84.1659Z"/>
	<path fill="#9DD224" transform="scale(0.488281 0.488281)" d="M307.798 791.649L382.953 784.286L408.697 783.647L466.766 782.39L628.603 784.515L692.397 789.314L730.632 793.679L925.369 826.833L1024 849.431L1024 1022.5L1023.88 1023.63C1022.94 1024.54 1015.64 1024 1013.66 1024L0 1024L0 1021.5L-0 858.843C4.1496 858.033 8.29778 856.403 12.3095 855.058L32.224 848.456L86.1923 832.763L105.097 828.688L163.707 815.628L176.364 812.768L307.798 791.649Z"/>
	<path fill="#979E11" transform="scale(0.488281 0.488281)" d="M181.08 865.555C182.822 866.3 183.611 867.238 184.249 868.984C185.197 871.579 184.401 875.978 183.61 878.5L183.342 879.39C181.793 884.381 178.86 888.807 175.637 892.875C174.565 894.227 173.24 896.013 171.72 896.822C170.627 897.403 169.103 897.373 167.885 897.375C169.973 895.7 171.63 893.777 173.203 891.622C178.808 883.942 182.597 875.206 181.08 865.555Z"/>
	<path fill="#979E11" transform="scale(0.488281 0.488281)" d="M473.982 816.18C475.391 817.053 475.994 818.413 476.42 819.969L476.627 821L476.746 821.564C477.257 824.154 476.891 826.74 476.17 829.25L475.976 829.937C473.705 837.823 468.646 847.041 462.275 852.362C460.234 852.715 458.276 853.104 456.194 853.036C461.696 850.188 465.007 845.254 468.053 840C472.068 833.075 476.127 824.235 473.982 816.18Z"/>
	<path fill="#F8DD48" transform="scale(0.488281 0.488281)" d="M552.065 865.75C553.73 865.848 553.297 866.959 554.75 867.509L555.161 866.552L555.894 866.538C558.115 870.534 559.699 874.427 561.342 878.66C562.11 880.635 563.14 882.737 563.417 884.836L561.621 884.83L559.052 880.836L558.488 881.25C558.994 882.207 559.342 883.24 559.73 884.25C558.932 884.513 558.586 884.546 557.791 884.232C556.642 883.779 555.663 882.541 554.853 881.643C551.4 877.817 549.389 873.452 547.564 868.703L552.5 871.133L553.097 870.75C552.435 868.969 552.053 867.659 552.065 865.75Z"/>
	<path fill="#F8DD48" transform="scale(0.488281 0.488281)" d="M573.587 862.75L574.014 862.699C574.955 863.228 575.327 863.505 575.754 864.579C576.897 867.447 575.296 871.267 574.332 874L574.75 874.745C575.771 872.518 576.673 870.13 578.192 868.194C579.495 869.284 580.057 870.145 580.307 871.859C580.78 875.104 577.498 879.013 575.638 881.383C574.344 882.759 573.088 883.785 571.5 884.807L570.717 884.421C571.157 883.383 571.615 882.652 571.497 881.503L571.041 881.503L567.75 886.451C568.641 878.008 571.339 870.88 573.587 862.75Z"/>
	<path fill="#979E11" transform="scale(0.488281 0.488281)" d="M777.136 832.513L777.991 832.081C779.283 833.339 780.085 834.452 780.988 836.003L781.296 836.52C783.108 839.617 782.761 843.038 783.749 846.372C783.935 847 783.869 846.709 783.945 847.429L780.876 870.75C782.095 871.026 782.817 870.898 784.025 870.608C789.514 864.561 794.915 856.037 796.756 847.987C797.813 846.984 798.865 845.646 800.27 845.25C801.363 847.782 799.907 851.63 798.92 854.111C796.139 861.108 792.169 866.199 786.85 871.429C784.152 871.594 780.688 872.368 778.123 871.658L778.106 871.5L779.539 871.051C780.663 868.447 780.73 865.358 781.169 862.583L782.085 853.6C782.663 849.834 782.806 845.529 781.714 841.849L781.446 841C780.529 837.873 778.82 835.277 777.136 832.513Z"/>
	<path fill="#F8DD48" transform="scale(0.488281 0.488281)" d="M567.853 875.919C567.827 873.561 567.83 871.327 567.426 869L567.312 868.204C567.034 866.391 565.406 862.537 565.557 861C565.596 860.605 566.019 860.355 566.25 860.032C567.615 860.295 567.848 860.246 568.684 861.453C569.476 862.598 569.752 864.063 570.221 865.36C571.308 868.368 570.066 873.404 568.658 876.237L568.355 876.663L567.283 881.058C567.082 882.235 566.725 883.307 566.344 884.433L565.68 884.75C564.193 883.259 563.63 881.418 562.906 879.49C560.537 876.547 559.575 871.318 557.552 867.848C556.481 866.011 556.571 865.178 557.128 863.25L558 863.02C558.974 863.803 559.951 864.541 560.605 865.626L562.215 868.206C561.908 865.671 561.529 863.338 563.037 861.115C564.22 861.281 564.002 861.184 564.65 862.047C566.81 864.924 567.589 871.828 567.495 875.418L567.853 875.919Z"/>
	<path fill="#F8DD48" transform="scale(0.488281 0.488281)" d="M134.858 867.25L136.257 867.012C147.509 872.791 146.28 884.861 150.128 895.058L150.295 895.487L149.75 896.447C149.116 896.249 149.216 896.301 148.492 895.953C142.119 892.894 136.938 883.453 134.985 876.942C134.085 873.94 133.293 870.103 134.858 867.25Z"/>
	<path fill="#F8DD48" transform="scale(0.488281 0.488281)" d="M909.493 888.091L904.274 887.826C899.65 883.485 896.493 878.847 894.63 872.727L894.415 872.003C892.719 866.594 893.519 862.235 895.324 857.051L898.043 858.688C901.325 860.943 904.987 865.117 906.026 869C906.505 870.791 906.446 872.604 906.791 874.412L907.663 880.695C908.066 882.27 909.935 886.651 909.493 888.091Z"/>
	<path fill="#F8DD48" transform="scale(0.488281 0.488281)" d="M783.945 847.429C786.186 843.8 788.535 840.846 792.5 839.023C793.678 839.115 793.687 838.867 794.525 839.827C796.411 841.989 796.521 845.259 796.756 847.987C794.915 856.037 789.514 864.561 784.025 870.608C782.817 870.898 782.095 871.026 780.876 870.75L783.945 847.429Z"/>
	<path fill="#F8DD48" transform="scale(0.488281 0.488281)" d="M743.824 838.25C745.54 838.02 746.985 838.662 748.458 839.585C753.806 842.935 757.287 847.992 758.716 854.117L763.887 871.488L763.25 872.477C762.147 872.489 760.492 872.657 759.453 872.308C758.434 871.966 757.276 870.581 756.521 869.791C753.74 866.881 751.313 863.57 749.18 860.157C745.048 853.546 741.974 846.151 743.824 838.25Z"/>
	<path fill="#F8DD48" transform="scale(0.488281 0.488281)" d="M778.106 871.5L774.5 871.869L773.843 871.25L772.664 855.078C771.946 849.24 770.139 842.054 771.153 836.21C771.468 834.394 772.427 831.76 774 830.711C775.525 831.003 776.032 831.5 777.136 832.513C778.82 835.277 780.529 837.873 781.446 841L781.714 841.849C782.806 845.529 782.663 849.834 782.085 853.6L781.169 862.583C780.73 865.358 780.663 868.447 779.539 871.051L778.106 871.5Z"/>
	<path fill="#F8DD48" transform="scale(0.488281 0.488281)" d="M148.859 857.25L149.958 857.074C153.15 858.913 154.86 863.648 155.913 867L156.177 867.857C157.471 871.931 157.9 892.731 156.75 896.495L153.25 896.523L151.836 896.31C149.814 892.238 149.086 887.018 147.862 882.62C146.968 879.409 145.424 875.985 145.073 872.68C144.516 867.431 145.399 861.392 148.859 857.25Z"/>
	<path fill="#F8DD48" transform="scale(0.488281 0.488281)" d="M420.469 817.25L420.862 817.095C422.117 816.743 423.83 816.817 424.972 817.47C432.015 821.496 432.881 828.964 434.539 836.042L437.072 844.998C437.79 847.568 439.491 850.327 439.863 852.836L437.75 852.91C435.006 852.399 432.873 849.393 431.165 847.343C425.709 840.795 416.684 829.316 418.038 820.5C418.277 818.946 419.274 818.113 420.469 817.25Z"/>
	<path fill="#F8DD48" transform="scale(0.488281 0.488281)" d="M456.194 853.036L454.553 852.826C454.309 851.021 456.07 847.906 456.664 846C457.897 842.045 458.96 837.843 459.6 833.75C460.355 828.931 460.444 824.302 463.256 820.038C464.752 817.77 467.068 815.129 469.955 814.792C471.6 814.599 472.69 815.289 473.982 816.18C476.127 824.235 472.068 833.075 468.053 840C465.007 845.254 461.696 850.188 456.194 853.036Z"/>
	<path fill="#F8DD48" transform="scale(0.488281 0.488281)" d="M908.293 878.399C908.112 876.869 907.862 875.496 907.513 874C905.614 865.872 904.767 855.73 910.112 848.585C910.799 847.666 911.609 846.808 912.75 846.531C915.331 848.139 916.561 851.111 917.301 853.993C918.487 858.611 915.618 876.077 917.398 878.399L917.42 888.368L911.005 888.421L908.293 878.399Z"/>
	<path fill="#F8DD48" transform="scale(0.488281 0.488281)" d="M762.339 832.25L763.035 832.033C764.224 831.83 764.794 832.062 765.759 832.739C768.064 834.356 769.296 837.589 769.798 840.244L769.934 841L770.929 849.5C771.484 852.747 771.452 856.028 771.916 859.25C772.447 862.938 772.901 868.076 772.166 871.75L768.961 872.488L765.433 872.25C763.776 868.578 762.428 864.186 761.35 860.297L761.137 859.5L759.385 853.003C758.572 849.85 758.395 846.859 758.445 843.613C758.508 839.543 759.327 835.156 762.339 832.25Z"/>
	<path fill="#F8DD48" transform="scale(0.488281 0.488281)" d="M436.635 807.25C437.38 807.04 438.231 806.992 439 806.883C441.238 807.521 442.303 808.945 443.377 810.906C444.179 812.37 444.642 813.73 444.92 815.379C445.64 819.651 445.005 823.996 445.463 828.25C446.056 833.76 445.909 839.427 445.978 844.988C446.008 847.399 446.418 850.556 445.75 852.835L442.75 853.007L441.49 852.483C440.836 851.253 440.111 850.022 439.646 848.706L435.611 836.5C434.073 830.81 432.759 824.046 433.186 818.14C433.459 814.363 433.582 809.89 436.635 807.25Z"/>
	<path fill="#F8DD48" transform="scale(0.488281 0.488281)" d="M450.157 803.25C451.457 802.827 452.25 802.847 453.564 803.045C454.538 803.192 455.331 804.047 455.865 804.832C459.624 810.351 460.234 823.169 459.047 829.795C457.749 837.047 456.335 843.894 453.546 850.777L452.25 852.858C450.735 852.932 449.205 853.152 447.75 852.638L446.587 824.422C446.546 820.786 446.308 817.015 446.79 813.412C447.257 809.92 447.248 805.626 450.157 803.25Z"/>
	<path fill="#F8DD48" transform="scale(0.488281 0.488281)" d="M167.733 886.885C167.003 887.976 166.369 889.25 166.187 890.555C166.04 891.603 166.14 891.321 165.837 892.237L164.815 895.25C164.502 895.954 164.447 896.239 163.697 896.449C162.211 896.865 160.028 897.164 158.677 896.413L157.726 870.5C157.655 865.681 159.667 862.556 162.988 859.25C164.259 857.984 164.947 857.025 166.75 857.026C169.187 860.848 170.056 864.919 169.874 869.401C169.8 871.213 169.429 873.33 169.759 875.112L169.887 875.737C171.121 872.038 174.166 867.828 177.538 865.75C178.991 864.855 179.485 865.091 181.08 865.555C182.597 875.206 178.808 883.942 173.203 891.622C171.63 893.777 169.973 895.7 167.885 897.375C166.917 897.12 166.408 896.98 165.706 896.25L166.902 891.997C167.352 890.26 167.573 888.677 167.733 886.885Z"/>
	<path fill="#F8DD48" transform="scale(0.488281 0.488281)" d="M918.523 882.511C918.861 874.526 917.242 866.785 918.877 858.733C919.673 854.812 921.078 851.401 924.5 849.11L925.75 849.607C927.673 851.943 928.513 854.639 929.339 857.5C930.149 860.301 929.879 863.728 929.919 866.659C933.252 864.079 937.698 860.481 942 860.034C943.272 861.06 943.072 862.419 943.312 864L944.25 863.172C945.356 863.817 945.766 863.916 946.078 865.25C947.125 869.738 942.49 877.036 939.85 880.432C937.268 883.753 934.324 887.706 930.434 889.571L905.755 888.75C907.083 887.867 908.091 888.521 909.493 888.091C909.935 886.651 908.066 882.27 907.663 880.695L908.293 878.399L911.005 888.421L917.42 888.368L917.398 878.399C918.157 879.889 918.37 880.843 918.523 882.511Z"/>
	<path fill="#979E11" transform="scale(0.488281 0.488281)" d="M943.312 864L944.25 863.172C945.356 863.817 945.766 863.916 946.078 865.25C947.125 869.738 942.49 877.036 939.85 880.432C937.268 883.753 934.324 887.706 930.434 889.571L905.755 888.75C907.083 887.867 908.091 888.521 909.493 888.091C909.935 886.651 908.066 882.27 907.663 880.695L908.293 878.399L911.005 888.421L917.42 888.368L917.398 878.399C918.157 879.889 918.37 880.843 918.523 882.511C918.564 884.2 918.29 886.764 919.118 888.25C920.236 888.307 921.265 888.425 922.335 888.015C923.828 887.442 926.82 874.717 927.655 872.503C928.176 873.301 927.759 873.927 927.551 874.802L925.385 883.5C924.991 884.902 924.06 886.645 924.5 888.004L929.503 888.191C931.984 884.057 935.374 880.96 938.137 877.094C941.121 872.919 942.492 868.989 943.312 864Z"/>
	<path fill="#74C319" transform="scale(0.488281 0.488281)" d="M0 1021.5L0.395588 1021.18C4.03668 1018.17 6.95237 1014.4 10.4116 1011.21C13.0394 1008.78 16.4269 1006.53 19.4285 1004.6C27.5887 999.35 36.7165 995.364 45.5148 991.311L96.595 970.278C183.834 939.178 274.575 920.82 366.5 910.628L457.954 903.066C511.971 900.794 565.81 902.521 619.668 907.114L660.335 911.884L688.676 915.242L756.869 927.166L779.13 931.266L840.212 945.838C877.608 955.524 914.535 966.507 950.628 980.37C970.469 987.992 992.227 995.867 1009.57 1008.34C1015.07 1012.29 1019.33 1017.22 1023.73 1022.28L1024 1022.5L1023.88 1023.63C1022.94 1024.54 1015.64 1024 1013.66 1024L0 1024L0 1021.5Z"/>
	<path fill="#979E11" transform="scale(0.488281 0.488281)" d="M412.423 950.871C414.019 951.609 414.789 951.693 415.677 953.25C415.019 961.462 411.306 969.254 405.25 974.958C404.383 975.775 402.954 976.519 401.75 976.518C400.936 976.516 400.157 976.197 399.436 975.862C406.672 968.755 411.866 961.211 412.423 950.871Z"/>
	<path fill="#979E11" transform="scale(0.488281 0.488281)" d="M659.616 969.954C661.682 972.748 662.274 975.479 661.817 978.954C660.973 985.37 656.009 994.428 650.75 998.423C649.398 999.45 648.025 999.435 646.418 999.278C653.884 990.054 658.628 981.994 659.616 969.954Z"/>
	<path fill="#F8DD48" transform="scale(0.488281 0.488281)" d="M366.9 946.75C368.569 946.402 369.933 946.582 371.383 947.497C372.898 948.452 374.736 950.198 375.604 951.787C377.263 954.824 377.553 959.041 378.397 962.4L382.365 976.25L380.75 976.478C379.951 976.006 379.219 975.524 378.511 974.92C373.315 970.49 365.162 958.945 365.004 951.873C364.955 949.701 365.465 948.34 366.9 946.75Z"/>
	<path fill="#F8DD48" transform="scale(0.488281 0.488281)" d="M612.983 969.25L613.373 969.117C615.322 968.642 617.281 969.023 618.982 970.055C622.221 972.023 623.624 974.678 624.519 978.25C625.836 983.505 626.866 988.895 627.654 994.25C627.916 996.027 628.686 997.682 627.75 999.266C627.038 998.952 627.118 999.043 626.585 998.642C624.211 996.861 622.487 994.214 620.763 991.832C617.062 986.717 612.754 980.702 612.003 974.25C611.78 972.329 611.827 970.807 612.983 969.25Z"/>
	<path fill="#F8DD48" transform="scale(0.488281 0.488281)" d="M399.436 975.862C398.649 975.573 398.001 975.455 397.171 975.416L396.25 975.377L399.744 957.344L399.974 956.5C400.901 952.799 403.274 948.141 406.797 946.25C407.571 945.835 408.599 945.665 409.408 946.024C410.699 946.596 411.553 947.607 411.97 948.949L412.423 950.871C411.866 961.211 406.672 968.755 399.436 975.862Z"/>
	<path fill="#F8DD48" transform="scale(0.488281 0.488281)" d="M651.913 968.106C654.011 966.941 654.459 966.507 656.808 966.703C658.43 967.571 658.842 968.311 659.616 969.954C658.628 981.994 653.884 990.054 646.418 999.278L644.011 998.568C644.924 991.962 645.735 985.335 647.236 978.83C648.246 974.45 648.614 971.521 651.913 968.106Z"/>
	<path fill="#F8DD48" transform="scale(0.488281 0.488281)" d="M381.029 937.25C381.92 937.115 382.167 937.202 383 937.465C384.341 938.822 385.345 940.124 386.166 941.857C388.274 946.308 387.967 951.553 388.009 956.366L388.417 967.04C388.486 969.612 389.107 973.574 388.25 975.979L385.25 976.063C384.281 976.05 384.166 976.036 383.367 975.621L378.009 957.25C376.923 953.573 377.313 948.378 377.545 944.516C377.748 941.139 378.5 939.459 381.029 937.25Z"/>
	<path fill="#F8DD48" transform="scale(0.488281 0.488281)" d="M392.197 935.75C392.603 935.648 393.085 935.499 393.507 935.536C394.989 935.669 396.156 936.526 396.955 937.75C397.95 939.272 398.52 941.618 398.957 943.375C401.515 953.668 397.216 964.358 395.25 974.46L394.435 975.818C392.876 975.865 390.953 976.28 389.712 975.339L388.961 955.593C388.622 950.747 387.676 945.188 388.704 940.395C389.191 938.129 390.277 936.947 392.197 935.75Z"/>
	<path fill="#F8DD48" transform="scale(0.488281 0.488281)" d="M627.962 958.25L628.369 958.139C629.832 957.99 630.49 958.257 631.538 959.25C633.622 961.225 635.37 965.879 635.485 968.719L636.012 989.181C636.008 992.343 636.251 995.751 635.75 998.869L632.636 999.288L629.728 998.787L625.474 979.25C624.99 977.567 624.508 976.022 624.415 974.253C624.127 968.786 624.119 962.553 627.962 958.25Z"/>
	<path fill="#F8DD48" transform="scale(0.488281 0.488281)" d="M643.375 996.986C643.117 997.689 642.855 998.244 642.5 998.894L637.052 999.027L636.854 981.444C636.626 976.288 635.862 970.359 636.567 965.25C636.857 963.148 637.915 960.564 639.001 958.75C639.827 957.371 640.219 956.825 641.75 956.452C644.176 957.946 645.21 960.407 646.315 962.934C648.776 963.612 649.457 966.778 651.913 968.106C648.614 971.521 648.246 974.45 647.236 978.83C645.735 985.335 644.924 991.962 644.011 998.568L643.375 996.986Z"/>
	<path fill="#1FB506" transform="scale(0.488281 0.488281)" d="M646.315 962.934C648.776 963.612 649.457 966.778 651.913 968.106C648.614 971.521 648.246 974.45 647.236 978.83C645.735 985.335 644.924 991.962 644.011 998.568L643.375 996.986C643.305 990.787 645.806 984.837 646.598 978.765C647.361 972.918 647.511 968.778 646.315 962.934Z"/>
</svg>
