<?xml version="1.0" encoding="utf-8" ?>
<svg xmlns="http://www.w3.org/2000/svg" xmlns:xlink="http://www.w3.org/1999/xlink" width="500" height="500">
	<path fill="#FDDB7C" transform="scale(0.488281 0.488281)" d="M171.102 1024L-0 1024L0 -0L1024 0L1024 1024L851.893 1024L763.24 1024L727.598 1024L514.503 1024L508.546 1024L298.725 1024L254.506 1024L171.102 1024Z"/>
	<path fill="#35316F" transform="scale(0.488281 0.488281)" d="M405.36 160.644C413.312 132.676 431.299 110.465 456.772 96.3345C485.357 80.4789 519.664 77.1364 550.982 86.218C563.985 89.9888 575.362 96.1101 587.68 101.448C603.753 108.414 621.153 112.784 638.75 111.699C646.359 111.229 654.675 110.008 661.478 106.345C664.837 104.536 667.838 102.117 670.771 99.6991C667.71 119.299 660.771 138.064 647.192 152.927C642.876 157.651 637.822 161.663 632.876 165.697C656.941 172.935 681.095 177.31 706.25 174.177C710.825 173.607 716.726 172.92 720.82 170.676C723.928 168.973 726.374 166.289 728.505 163.517C728.487 177.227 726.887 191.403 722.568 204.481C715.781 224.067 704.417 241.766 688.878 255.622C685.714 258.442 682.173 261.684 678.494 263.794C681.539 266.758 684.786 269.699 687.509 272.961C696.889 284.198 701.578 296.708 701.835 311.323C701.909 315.577 701.787 320.186 701.159 324.394C695.497 324.972 689.876 325.956 684.161 325.371C675.891 324.524 667.319 320.684 660.435 316.163C655.356 312.826 650.78 308.799 646.238 304.779C644.309 303.071 642.251 300.654 640.077 299.322C639.456 298.941 638.915 298.931 638.212 298.866L635.059 287.03C631.168 287.629 627.265 289.277 623.457 290.341C618.042 291.852 612.475 292.89 606.924 293.754C568.179 299.79 528.41 291.324 496.648 267.909C479.322 255.136 465.302 238.603 456.46 218.928C425.818 231.507 398.433 252.79 385.487 284.078C377.078 304.404 374.633 326.399 374.374 348.219C374.276 356.522 374.175 364.923 375.126 373.183L365.406 374.813C364.809 372.61 365.265 369.693 365.338 367.392L365.438 351.109C353.683 348.253 343.413 349.873 332.68 355.398C317.389 327.166 304.996 292.781 309.585 260.255C312.584 238.994 323.546 219.321 340.951 206.46C358.535 193.468 381.085 191.04 402.078 194.303C401.92 182.85 402.251 171.762 405.36 160.644Z"/>
	<path fill="#FACDC0" transform="scale(0.488281 0.488281)" d="M365.406 374.813L375.126 373.183C374.175 364.923 374.276 356.522 374.374 348.219C374.633 326.399 377.078 304.404 385.487 284.078C398.433 252.79 425.818 231.507 456.46 218.928C465.302 238.603 479.322 255.136 496.648 267.909C528.41 291.324 568.179 299.79 606.924 293.754C612.475 292.89 618.042 291.852 623.457 290.341C627.265 289.277 631.168 287.629 635.059 287.03L638.212 298.866C638.915 298.931 639.456 298.941 640.077 299.322C642.251 300.654 644.309 303.071 646.238 304.779C650.78 308.799 655.356 312.826 660.435 316.163C667.319 320.684 675.891 324.524 684.161 325.371C689.876 325.956 695.497 324.972 701.159 324.394C700.062 331.742 698.801 338.97 696.942 346.168C695.731 350.86 693.793 355.648 693.21 360.452C689.034 357.97 684.528 355.645 679.75 354.575C671.764 352.788 662.542 353.294 654.4 353.583L654.424 374.884C654.973 374.913 655.994 375.103 656.485 374.876C656.007 387.639 654.778 400.173 652.563 412.757C651.795 417.122 651.142 422.152 649.596 426.307L643.804 444.663L637.395 459.927C623.728 486.418 603.974 507.679 577.51 521.825C544.515 539.067 507.11 544.918 471.078 533.595C461.93 530.721 453.929 526.486 445.284 522.451C426.926 511.575 410.632 498.732 397.591 481.673C391.771 474.06 387.091 465.991 382.501 457.614C381.323 453.888 378.97 450.288 377.444 446.629L370.843 427.122C366.179 411.083 364.583 391.438 365.406 374.813Z"/>
	<path fill="#FD9A6A" transform="scale(0.488281 0.488281)" d="M499.542 394.07C501.484 393.989 503.621 393.751 505.509 394.285L506 394.437C508.791 395.261 510.559 396.462 512.05 399L511.75 399.987C507.953 399.824 504.429 398.522 500.664 399.889C498.797 400.566 497.081 401.972 496.318 403.837C495.595 405.602 495.563 407.448 496.323 409.226C497.771 412.617 501.047 413.959 504.248 415.171C505.74 415.532 507.106 415.855 508.484 416.562L508.75 417.517L507.75 418.461C503.887 418.541 500.719 418.523 497.153 416.758C493.953 415.176 490.83 412.54 489.75 409.042C488.93 406.386 488.801 402.304 490.299 399.826C492.493 396.195 495.656 394.989 499.542 394.07Z"/>
	<defs>
		<linearGradient id="gradient_0" gradientUnits="userSpaceOnUse" x1="511.77814" y1="439.93823" x2="509.29794" y2="463.70926">
			<stop offset="0" stop-color="black"/>
			<stop offset="1" stop-color="#1C0A1D"/>
		</linearGradient>
	</defs>
	<path fill="url(#gradient_0)" transform="scale(0.488281 0.488281)" d="M466.582 443.25C469.683 443.914 473.618 448.256 476.378 450.151C484.596 455.794 494.898 459.367 504.818 460.267C523.643 461.975 540.839 455.308 555.25 443.518C556.725 444.072 556.882 444.25 557.859 445.5L557.062 446.932C553.127 450.263 549.076 453.107 544.558 455.605C528.319 464.582 509.557 467.043 491.69 461.818C484.448 459.7 477.654 456.249 471.509 451.887C469.189 450.24 466.503 448.27 465.124 445.75C465.388 444.213 465.381 444.25 466.582 443.25Z"/>
	<path fill="#35316F" transform="scale(0.488281 0.488281)" d="M567.496 309.676C574.141 309.237 581.448 310.422 587.625 312.946C601.158 318.477 608.791 327.75 614.368 340.984L605.615 333.386C595.367 325.814 581.463 322.27 568.826 323.584C565.594 323.92 561.394 325.651 558.25 325.445C557.72 325.41 556.445 324.82 556 324.53C554.955 323.848 554.531 322.772 554.332 321.591C553.884 318.929 554.861 316.499 556.513 314.465C559.366 310.953 563.277 310.216 567.496 309.676Z"/>
	<path fill="#35316F" transform="scale(0.488281 0.488281)" d="M440.785 309.207C443.816 308.975 447.27 309.195 450.266 309.694C455.067 310.494 460.45 312.349 463.25 316.588C464.685 318.76 464.715 321.153 464.25 323.623C463.546 324.614 461.297 326.981 460.082 327.061C458.433 327.168 454.081 325.151 452.25 324.781C441.094 322.528 430.631 325.423 420.482 329.895C413.983 333.048 409.248 337.412 403.684 341.876C405.373 334.811 408.641 328.272 413.31 322.696C420.419 314.206 429.985 310.208 440.785 309.207Z"/>
	<path fill="#1D1E53" transform="scale(0.488281 0.488281)" d="M638.212 298.866C638.915 298.931 639.456 298.941 640.077 299.322C642.251 300.654 644.309 303.071 646.238 304.779C650.78 308.799 655.356 312.826 660.435 316.163C667.319 320.684 675.891 324.524 684.161 325.371C689.876 325.956 695.497 324.972 701.159 324.394C700.062 331.742 698.801 338.97 696.942 346.168C695.731 350.86 693.793 355.648 693.21 360.452C689.034 357.97 684.528 355.645 679.75 354.575C671.764 352.788 662.542 353.294 654.4 353.583L654.424 374.884L644.189 375.021L644.282 351.644C643.595 333.866 641.363 316.368 638.212 298.866Z"/>
	<path fill="#FD9A6A" transform="scale(0.488281 0.488281)" d="M533.016 372.997C534.577 370.796 534.513 364.702 535.237 361.75C539.299 345.206 553.2 331.237 570.17 328.301C582.379 326.189 594.64 328.813 604.811 335.966C608.703 338.703 612.252 342.106 614.994 346L615.468 346.663C622.078 356.035 624.49 368.023 622.507 379.267C620.423 391.085 613.444 401.798 603.547 408.554C593.871 415.16 580.886 417.889 569.377 415.497L568 415.161L567.202 414.972C555.893 412.212 545.672 403.863 539.746 393.95C535.789 387.33 534.166 379.867 530.586 373.073C526.27 368.221 520.609 364.881 514.008 364.504C507.064 364.107 499.318 366.172 493.946 370.816C492.629 371.955 491.681 373.415 490.385 374.567C488.954 377.385 488.398 380.734 487.487 383.75C485.829 389.239 483.247 395.098 479.809 399.709C472.912 408.961 461.565 414.76 450.211 416.25C438.076 417.842 426.487 414.442 416.883 406.958C408.221 400.207 402.504 389.614 401.091 378.782C399.409 365.889 402.956 353.227 411.006 343.035C417.588 334.701 427.882 329.095 438.422 328.025L442.166 327.677C453.778 326.933 465.86 331.567 474.463 339.31C483.631 347.561 488.645 359.655 489.367 371.852L489.825 371.674C490.563 371.276 490.745 370.922 491.233 370.288C494.984 365.43 502.311 362.754 508.188 362.066C515.26 361.239 522.315 362.849 527.929 367.347C529.909 368.932 531.711 370.818 533.016 372.997Z"/>
	<path fill="#FACDC0" transform="scale(0.488281 0.488281)" d="M439.078 332.183C446.761 331.392 454.443 332.15 461.578 335.228C470.906 339.253 478.773 348.113 482.392 357.554L482.687 358.337C483.34 360.039 483.911 361.675 484.309 363.459C486.822 374.75 484.698 385.598 478.461 395.361C472.562 404.595 462.895 409.727 452.443 411.935C447.017 413.035 439.94 413.183 434.597 411.734L433.75 411.49C424.883 408.991 417.423 403.777 412.129 396.179L411.616 395.425C408.25 390.55 406 385.175 405.241 379.279C403.736 367.581 406.162 355.544 413.541 346.137C420.029 337.868 428.748 333.477 439.078 332.183Z"/>
	<path fill="#FEFEFE" transform="scale(0.488281 0.488281)" d="M438.889 345.559C444.32 345.343 449.116 345.519 453.799 348.786C458.611 352.142 462.075 357.841 462.928 363.616C463.621 368.308 462.822 373.626 459.844 377.423L459.402 377.972C456.051 382.177 452.181 383.898 447.154 385.376C442.495 385.881 437.636 385.842 433.358 383.718C428.923 381.517 425.229 377.365 423.696 372.651C421.897 367.117 423.041 360.689 425.704 355.611C428.764 349.774 432.87 347.465 438.889 345.559Z"/>
	<path transform="scale(0.488281 0.488281)" d="M440.779 353.503C442.476 353.44 444.218 353.334 445.868 353.815C449.268 354.804 452.324 357.134 454.029 360.25C455.741 363.38 456.2 367.154 455.088 370.582C454.067 373.729 451.372 376.49 448.419 377.902C444.164 379.937 441.109 379.811 436.824 378.27C434.049 376.763 431.176 374.307 430.039 371.275C428.969 368.423 429.35 364.239 430.708 361.531C430.99 363.156 431.615 364.852 433.06 365.817C434.126 366.528 435.936 366.725 437.16 366.367C438.784 365.892 440.098 364.357 440.722 362.842C441.244 361.571 441.207 360.192 440.606 358.955C439.957 357.617 438.686 356.51 437.272 356.058L436.513 355.839L436.536 355.25L440.779 353.503Z"/>
	<path fill="#FACDC0" transform="scale(0.488281 0.488281)" d="M577.108 331.211C583.058 330.752 589.6 332.507 595.034 334.808C604.265 338.716 612.645 346.662 616.356 356.064L616.668 356.873C617.565 359.144 618.199 361.315 618.599 363.721C620.479 375.054 618.368 386.347 611.487 395.735C604.051 405.882 594.259 410.654 582.061 412.519C571.768 412.585 562.905 411.387 554.571 404.641C545.891 397.616 539.11 387.471 537.993 376.188C536.948 365.627 540.141 354.386 547.028 346.25C554.884 336.97 565.128 332.223 577.108 331.211Z"/>
	<path fill="#FEFEFE" transform="scale(0.488281 0.488281)" d="M575.25 345.078C580.647 344.475 586.069 344.776 590.981 347.294C595.765 349.745 599.156 354.19 600.799 359.25C602.38 364.12 601.911 371.51 599.485 376.031C596.64 381.332 591.845 384.171 586.242 385.835C582.354 386.723 577.952 386.934 574.097 385.774C568.218 384.005 564.217 380.463 561.443 375.065C559.204 370.708 558.651 364.652 560.214 359.973L560.469 359.25L561.75 355.971C564.614 350.351 569.414 347.03 575.25 345.078Z"/>
	<path transform="scale(0.488281 0.488281)" d="M577.602 353.127C580.628 352.96 583.689 352.748 586.562 353.934C589.525 355.157 591.851 357.884 593.078 360.794C594.598 364.403 594.347 368.342 592.771 371.881C590.905 376.073 587.481 378.065 583.456 379.693C580.782 380.052 578.231 379.806 575.711 378.794C572.191 377.38 569.068 374.499 567.754 370.895C566.52 367.509 566.648 363.852 568.24 360.622C570.258 356.528 573.498 354.624 577.602 353.127Z"/>
	<path fill="#FEFEFE" transform="scale(0.488281 0.488281)" d="M581.57 356.25C582.05 356.211 582.029 356.192 582.596 356.269C584.4 356.516 585.312 357.388 586.408 358.75C586.932 360.323 587.23 361.429 586.466 363C585.724 364.524 584.707 364.912 583.25 365.5C582.155 365.544 581.392 365.425 580.319 365.25C579.096 364.356 578.272 363.787 577.806 362.25C577.393 360.884 577.57 359.445 578.371 358.25C579.277 356.898 580.099 356.615 581.57 356.25Z"/>
	<path fill="#EEA71F" transform="scale(0.488281 0.488281)" d="M678.494 263.794C682.173 261.684 685.714 258.442 688.878 255.622C704.417 241.766 715.781 224.067 722.568 204.481C737.277 212.232 750.529 222.16 763.754 232.199C834.482 285.89 886.438 361.466 912.838 446.171C937.816 526.311 937.585 615.04 913.279 695.235C906.364 718.049 897.551 740.84 886.402 761.944C877.153 779.454 867.1 796.201 856.104 812.663C849.724 822.214 843.249 831.73 835.925 840.589C834.632 842.153 832.482 845.733 830.662 846.461L810.492 791.165C799.836 766.846 787.669 743.252 772.749 721.24C743.578 678.2 704.824 641.7 659.598 615.975C649.902 610.46 639.869 603.694 629.487 599.638C628.941 599.627 619.76 590.784 618.373 589.607C606.034 579.137 592.436 572.434 578.039 565.43L577.84 549.463C578.069 546.727 577.736 543.759 577.621 541.005L577.51 521.825C603.974 507.679 623.728 486.418 637.395 459.927L643.804 444.663L649.596 426.307C651.142 422.152 651.795 417.122 652.563 412.757C654.778 400.173 656.007 387.639 656.485 374.876C655.994 375.103 654.973 374.913 654.424 374.884L654.4 353.583C662.542 353.294 671.764 352.788 679.75 354.575C684.528 355.645 689.034 357.97 693.21 360.452C693.793 355.648 695.731 350.86 696.942 346.168C698.801 338.97 700.062 331.742 701.159 324.394C701.787 320.186 701.909 315.577 701.835 311.323C701.578 296.708 696.889 284.198 687.509 272.961C684.786 269.699 681.539 266.758 678.494 263.794Z"/>
	<path fill="#FEFEFE" transform="scale(0.488281 0.488281)" d="M704.077 533.752L719.568 533.97L720.529 547.445L734.22 548.955L734.091 562.596L719.887 563.577L719.732 576.602L703.626 576.733L703.57 563.469L689.361 562.537L689.319 549.013C693.858 548.78 698.302 548.632 702.733 547.526L704.077 533.752Z"/>
	<path fill="#1D1E53" transform="scale(0.488281 0.488281)" d="M637.395 459.927C647.314 470.457 658.169 481.736 670.222 489.86C661.602 495.378 653.075 499.904 643.089 502.286C634.377 504.365 625.424 502.599 616.595 502.669C619.112 508.441 623.44 511.425 628.258 515.212C616.674 522.811 605.293 529.877 592.525 535.422C587.63 537.548 582.549 539.012 577.621 541.005L577.51 521.825C603.974 507.679 623.728 486.418 637.395 459.927Z"/>
	<path fill="#F7A09C" transform="scale(0.488281 0.488281)" d="M654.424 374.884L654.4 353.583C662.542 353.294 671.764 352.788 679.75 354.575C684.528 355.645 689.034 357.97 693.21 360.452C701.786 366.471 707.759 374.512 711.076 384.5C715.139 396.735 714.845 409.625 709.046 421.294C702.796 433.868 692.977 442.737 679.609 447.241C671.679 449.913 663.079 450.107 654.931 448.516C651.046 447.757 647.376 446.341 643.804 444.663L649.596 426.307C651.142 422.152 651.795 417.122 652.563 412.757C654.778 400.173 656.007 387.639 656.485 374.876C655.994 375.103 654.973 374.913 654.424 374.884Z"/>
	<path fill="#F16A68" transform="scale(0.488281 0.488281)" d="M656.485 374.876C659.55 373.048 667.753 374.272 671.31 375.203C677.814 376.905 683.356 381.369 686.667 387.202C690.464 393.891 691.394 400.571 689.587 408L689.429 408.696C687.982 414.895 683.769 420.29 678.337 423.551C668.921 429.206 659.89 428.781 649.596 426.307C651.142 422.152 651.795 417.122 652.563 412.757C654.778 400.173 656.007 387.639 656.485 374.876Z"/>
	<path fill="#EEA71F" transform="scale(0.488281 0.488281)" d="M193.611 843.17C186.401 835.61 180.059 826.809 173.831 818.439C140.925 774.222 116.035 722.799 103.697 668.932C94.7095 629.692 90.5492 589.647 92.5441 549.395C96.1439 476.761 119.481 405.471 158.195 344.052C204.459 270.656 273.72 212.709 353.412 178.724C370.224 171.555 387.51 164.699 405.36 160.644C402.251 171.762 401.92 182.85 402.078 194.303C381.085 191.04 358.535 193.468 340.951 206.46C323.546 219.321 312.584 238.994 309.585 260.255C304.996 292.781 317.389 327.166 332.68 355.398C343.413 349.873 353.683 348.253 365.438 351.109L365.338 367.392C365.265 369.693 364.809 372.61 365.406 374.813C364.583 391.438 366.179 411.083 370.843 427.122L377.444 446.629C378.97 450.288 381.323 453.888 382.501 457.614C387.091 465.991 391.771 474.06 397.591 481.673C410.632 498.732 426.926 511.575 445.284 522.451L445.294 534.522C445.293 536.581 445.495 538.843 445.058 540.847L445.017 549.63C444.649 555.027 443.933 561.194 444.939 566.527C438.27 569.21 431.398 571.712 425.023 575.049C410.798 582.496 399.445 592.631 388.711 604.404C373.415 609.561 359.883 616.663 346.282 625.28C306.105 650.735 275.047 686.612 249.143 726.056C239.431 740.844 230.094 756.151 222.241 772.014C214.346 787.962 207.376 804.228 201.106 820.876C198.413 828.028 195.367 835.715 193.611 843.17Z"/>
	<path fill="#FEFEFE" transform="scale(0.488281 0.488281)" d="M275.005 542.493L285.558 542.466L285.522 551.39L294.995 551.566L294.928 563.76L285.884 563.985L285.986 572.079L274.84 572.127L274.889 563.422L265.999 563.576L266.012 551.875C268.189 550.859 272.518 551.086 275.017 550.899L275.005 542.493Z"/>
	<path fill="#FEFEFE" transform="scale(0.488281 0.488281)" d="M200.342 445.969L215.948 445.956L215.945 457.437L227.054 457.157L227.015 472.039L215.9 472.005L215.942 483.316C211.04 483.886 205.512 483.493 200.547 483.533L200.532 472.693L189.523 472.585L189.512 457.007L200.384 456.931L200.342 445.969Z"/>
	<path fill="#35316F" transform="scale(0.488281 0.488281)" d="M382.501 457.614C387.091 465.991 391.771 474.06 397.591 481.673C410.632 498.732 426.926 511.575 445.284 522.451L445.294 534.522C445.293 536.581 445.495 538.843 445.058 540.847C440.805 539.463 436.347 538.694 432.084 537.268C419.32 533.001 405.372 525.935 394.393 518.171L396.25 516.755C399.727 513.983 406.018 509.14 406.553 504.5C405.254 503.629 403.355 503.982 401.787 503.989C397.972 504.007 394.099 504.124 390.297 503.77C386.802 503.444 383.242 502.698 379.86 501.758C367.423 498.301 355.781 490.458 345.762 482.579C360.503 477.81 372.646 469.58 382.501 457.614Z"/>
	<path fill="#F7A09C" transform="scale(0.488281 0.488281)" d="M332.68 355.398C343.413 349.873 353.683 348.253 365.438 351.109L365.338 367.392C365.265 369.693 364.809 372.61 365.406 374.813C364.583 391.438 366.179 411.083 370.843 427.122L377.444 446.629C370.707 449.901 359.926 450.609 352.707 449.696L350.163 449.384C337.895 447.895 326.2 440.284 318.716 430.542C310.545 419.903 306.404 406.29 308.292 392.853L308.421 392L309.205 387.542C312.294 374.192 321.048 362.506 332.68 355.398Z"/>
	<path fill="#F16A68" transform="scale(0.488281 0.488281)" d="M370.843 427.122L370.472 427.404C366.954 429.503 356.181 428.978 352.335 427.883L351.5 427.63C349.115 426.92 346.917 426.099 344.75 424.856C337.928 420.943 332.63 414.414 330.573 406.8L330.362 406L329.724 403.398C328.373 396.115 330.329 387.245 334.637 381.25C342.359 370.501 353.396 369.283 365.338 367.392C365.265 369.693 364.809 372.61 365.406 374.813C364.583 391.438 366.179 411.083 370.843 427.122Z"/>
	<path fill="#FEFEFE" transform="scale(0.488281 0.488281)" d="M445.284 522.451C453.929 526.486 461.93 530.721 471.078 533.595C507.11 544.918 544.515 539.067 577.51 521.825L577.621 541.005C577.736 543.759 578.069 546.727 577.84 549.463L578.039 565.43C592.436 572.434 606.034 579.137 618.373 589.607C619.76 590.784 628.941 599.627 629.487 599.638C639.869 603.694 649.902 610.46 659.598 615.975C704.824 641.7 743.578 678.2 772.749 721.24C787.669 743.252 799.836 766.846 810.492 791.165L830.662 846.461L830.743 846.878C833.559 860.784 838.194 874.323 840.869 888.334C846.223 916.375 849.895 945.421 851.377 973.946L851.893 1024L763.24 1024L727.598 1024L514.503 1024L508.546 1024L298.725 1024L254.506 1024L171.102 1024L172.351 967.204C174.645 925.09 181.06 883.492 193.611 843.17C195.367 835.715 198.413 828.028 201.106 820.876C207.376 804.228 214.346 787.962 222.241 772.014C230.094 756.151 239.431 740.844 249.143 726.056C275.047 686.612 306.105 650.735 346.282 625.28C359.883 616.663 373.415 609.561 388.711 604.404C399.445 592.631 410.798 582.496 425.023 575.049C431.398 571.712 438.27 569.21 444.939 566.527C443.933 561.194 444.649 555.027 445.017 549.63L445.058 540.847C445.495 538.843 445.293 536.581 445.294 534.522L445.284 522.451Z"/>
	<path fill="#9091A4" transform="scale(0.488281 0.488281)" d="M620.28 830.909C621.958 832.035 622.558 833.014 623.54 834.75L626.463 839.934C626.768 840.997 626.984 842.191 627.54 843.148C629.106 848.253 630.621 853.272 628.599 858.5L628.379 859.081C627.178 862.118 623.779 865.697 620.75 866.979C618.554 867.909 615.32 868.244 613 867.762C615.414 865.777 618.698 863.55 620.526 861.028C624.211 855.944 621.329 837.47 620.28 830.909Z"/>
	<path fill="#108693" transform="scale(0.488281 0.488281)" d="M466.071 814.504L467.305 813.75C471.064 818.555 473.031 826.454 475.454 832.128L484.97 853.73L497.561 884.558L498.25 886.237C498.961 885.098 498.702 883.834 498.697 882.514C498.685 879.263 498.506 875.923 498.854 872.689L499.181 886.2C499.088 887.366 500.429 889.169 501.158 890.118L503 892.578L503 873.25C502.921 871.784 502.559 869.874 503.461 868.655L503.59 893.5C503.61 897.588 503.271 902.053 503.791 906.1C504.106 908.559 505.637 911.209 506.62 913.476C509.653 920.464 513.06 928.773 517.844 934.728L512.666 947.142L466.071 814.504Z"/>
	<path fill="#ADD3FA" transform="scale(0.488281 0.488281)" d="M622.894 609.132C623.861 610.142 626.68 612.448 627.102 613.608C626.934 614.072 626.625 614.507 626.598 615C626.534 616.211 627.171 618.207 627.384 619.452L629.155 630.364L639.504 687L648.632 744.598C640.983 747.016 633.337 749.638 626.113 753.158C618.946 756.649 612.056 760.832 604.725 763.95L615.946 805.763L615.99 813.679C613.871 811.843 612.987 808.029 611.973 805.445C606.451 791.37 602.402 776.211 598.636 761.573C602.145 759.316 606.538 757.759 610.314 755.881L643.366 740.051L622.894 609.132Z"/>
	<path fill="#19999D" transform="scale(0.488281 0.488281)" d="M422.617 667.265C426.753 669.457 430.224 673.205 433.675 676.325C440.738 682.709 447.847 689.284 455.433 695.041C459.588 698.195 463.83 701.299 468.732 703.206C462.372 711.383 454.573 719.086 445.973 724.927C443.413 726.665 440.793 728.589 437.912 729.745L422.617 667.265Z"/>
	<path fill="#FEFEFE" transform="scale(0.488281 0.488281)" d="M615.946 805.763L604.725 763.95C612.056 760.832 618.946 756.649 626.113 753.158C633.337 749.638 640.983 747.016 648.632 744.598L639.504 687L629.155 630.364L627.384 619.452C627.171 618.207 626.534 616.211 626.598 615C626.625 614.507 626.934 614.072 627.102 613.608C653.948 644.347 665.22 681.884 662.508 722.353L659.76 744.243C646.575 746.081 636.627 753.024 628.69 763.565C619.724 775.474 616.079 791.049 615.946 805.763Z"/>
	<path fill="#ADD3FA" transform="scale(0.488281 0.488281)" d="M400.706 608.001L408.19 600.597L375.481 737.001L426.786 758.799C422.965 767.281 420.424 776.187 417.51 785L403.25 825.368C400.772 831.635 397.466 837.488 394.895 843.694C394.265 845.216 393.16 847.127 393.264 848.773L511.954 959.189L562.576 911.652L579.892 895.964C584.054 892.207 588.345 888.159 592.937 884.932L593.425 903.097L592.898 900.25C590.219 901.554 587.375 904.438 585.216 906.536L573.67 917.845L557.047 932.892L514.468 966.175L514.503 1024L508.546 1024L508.889 966.471L385.876 854.683C387.338 848.555 390.036 842.555 392.427 836.738L403.163 810.11L414.497 777.599C416.197 772.49 417.556 767.23 419.542 762.225L419.747 761.718C412.847 759.163 373.33 743.984 370.857 740.645C370.675 740.4 370.205 739.637 370.169 739.25C369.894 736.289 371.105 732.029 371.694 729.089L377.645 702.374L390.14 645.849C393.366 633.31 398.251 620.66 400.706 608.001Z"/>
	<path fill="#36B1A9" transform="scale(0.488281 0.488281)" d="M484.523 680.138L498.432 696.354L498.54 696.87L497.916 840L497.835 873.049C497.832 876.08 498.637 881.913 497.561 884.558L484.97 853.73L475.454 832.128C473.031 826.454 471.064 818.555 467.305 813.75L466.071 814.504L437.912 729.745C440.793 728.589 443.413 726.665 445.973 724.927C454.573 719.086 462.372 711.383 468.732 703.206C474.426 695.878 480.169 688.347 484.523 680.138Z"/>
	<path fill="#36B1A9" transform="scale(0.488281 0.488281)" d="M502.891 636.507C504.312 634.381 505.888 632.822 507.761 631.122C509.443 632.766 512.585 635.183 513.633 637.184C512.757 640.127 516.297 645.758 517.75 648.4L552.593 700.526L552.868 700.532L564.043 714.903L577.597 710.283C582.093 708.509 586.605 706.312 591.35 705.312L517.844 934.728C513.06 928.773 509.653 920.464 506.62 913.476C505.637 911.209 504.106 908.559 503.791 906.1C503.271 902.053 503.61 897.588 503.59 893.5L503.461 868.655C502.559 869.874 502.921 871.784 503 873.25L503 892.578L501.158 890.118C500.429 889.169 499.088 887.366 499.181 886.2L498.854 872.689C498.506 875.923 498.685 879.263 498.697 882.514C498.702 883.834 498.961 885.098 498.25 886.237L497.561 884.558C498.637 881.913 497.832 876.08 497.835 873.049L497.916 840L498.54 696.87C500.261 697.792 501.787 699.472 503.238 700.78L503.103 663.629L503.258 646.9C503.291 643.446 503.527 639.914 502.891 636.507Z"/>
	<path fill="#108693" transform="scale(0.488281 0.488281)" d="M518.395 802.75C519.699 802.672 520.96 802.802 522.118 803.451C523.322 804.125 525.022 805.869 525.377 807.212C525.775 808.72 525.826 811.162 524.998 812.5C523.588 814.781 521.794 815.821 519.25 816.364C518.069 816.227 516.833 816.034 515.75 815.513C514.077 814.708 512.856 813.124 512.331 811.364C511.834 809.702 512.183 807.996 513.035 806.5C514.241 804.38 516.127 803.342 518.395 802.75Z"/>
	<path fill="#108693" transform="scale(0.488281 0.488281)" d="M516.534 729.25C517.336 729.142 518.192 729.029 519 729.134C520.972 729.389 523.261 731.511 524.204 733.165C525.005 734.57 525.271 736.87 524.679 738.379C523.78 740.675 521.563 742.289 519.392 743.25C518.272 743.432 516.771 743.569 515.684 743.224C514.021 742.695 512.097 741.138 511.405 739.526C510.661 737.794 510.84 735.226 511.541 733.5C512.484 731.177 514.289 730.095 516.534 729.25Z"/>
	<path fill="#19999D" transform="scale(0.488281 0.488281)" d="M502.891 636.507C504.312 634.381 505.888 632.822 507.761 631.122C509.443 632.766 512.585 635.183 513.633 637.184C512.757 640.127 516.297 645.758 517.75 648.4L552.593 700.526L503.288 715.147L503.528 820.688L503.593 852.556C503.61 857.779 504.09 863.481 503.461 868.655C502.559 869.874 502.921 871.784 503 873.25L503 892.578L501.158 890.118C500.429 889.169 499.088 887.366 499.181 886.2L498.854 872.689C498.506 875.923 498.685 879.263 498.697 882.514C498.702 883.834 498.961 885.098 498.25 886.237L497.561 884.558C498.637 881.913 497.832 876.08 497.835 873.049L497.916 840L498.54 696.87C500.261 697.792 501.787 699.472 503.238 700.78L503.103 663.629L503.258 646.9C503.291 643.446 503.527 639.914 502.891 636.507Z"/>
	<path fill="#36B1A9" transform="scale(0.488281 0.488281)" d="M445.284 522.451C453.929 526.486 461.93 530.721 471.078 533.595C507.11 544.918 544.515 539.067 577.51 521.825L577.621 541.005C577.736 543.759 578.069 546.727 577.84 549.463L578.039 565.43C578.038 567.621 577.39 577.168 578.537 578.29C579.346 579.082 580.052 579.411 581.052 579.9C589.528 583.14 598.218 589.018 605.814 594.039C607.03 602.125 607.313 610.701 606.547 618.845C605.649 632.472 603.853 645.701 601.43 659.133C601.083 661.055 600.879 664.63 600.031 666.287L594.186 694.723C593.331 698.155 592.621 702.032 591.35 705.312C586.605 706.312 582.093 708.509 577.597 710.283L564.043 714.903L552.868 700.532L552.593 700.526L517.75 648.4C516.297 645.758 512.757 640.127 513.633 637.184C512.585 635.183 509.443 632.766 507.761 631.122C505.888 632.822 504.312 634.381 502.891 636.507C503.527 639.914 503.291 643.446 503.258 646.9L503.103 663.629L503.238 700.78C501.787 699.472 500.261 697.792 498.54 696.87L498.432 696.354L484.523 680.138C480.169 688.347 474.426 695.878 468.732 703.206C463.83 701.299 459.588 698.195 455.433 695.041C447.847 689.284 440.738 682.709 433.675 676.325C430.224 673.205 426.753 669.457 422.617 667.265L416.872 624.337C416.089 622.485 416.448 618.89 416.395 616.82C416.194 609.051 416.012 601.419 416.599 593.66L433.088 583.859C436.686 581.956 440.47 579.953 444.502 579.204C445.801 575.881 444.998 570.169 444.939 566.527C443.933 561.194 444.649 555.027 445.017 549.63L445.058 540.847C445.495 538.843 445.293 536.581 445.294 534.522L445.284 522.451Z"/>
	<path fill="#108693" transform="scale(0.488281 0.488281)" d="M416.872 624.337L416.953 623.528C417.04 622.566 416.939 621.705 416.797 620.75C417.127 620.737 417.464 620.643 417.787 620.711C418.354 620.83 428.595 630.213 430.298 631.615L464.061 657.916L473.25 665.011C474.896 666.285 476.632 667.996 478.523 668.851L502.891 636.507C503.527 639.914 503.291 643.446 503.258 646.9L503.103 663.629L503.238 700.78C501.787 699.472 500.261 697.792 498.54 696.87L498.432 696.354L484.523 680.138C480.169 688.347 474.426 695.878 468.732 703.206C463.83 701.299 459.588 698.195 455.433 695.041C447.847 689.284 440.738 682.709 433.675 676.325C430.224 673.205 426.753 669.457 422.617 667.265L416.872 624.337Z"/>
	<path fill="#19999D" transform="scale(0.488281 0.488281)" d="M484.523 680.138C486.78 674.576 489.728 669.265 492.32 663.851C493.947 660.455 495.705 655.68 498.281 652.976L498.432 696.354L484.523 680.138Z"/>
	<path fill="#108693" transform="scale(0.488281 0.488281)" d="M513.633 637.184L544.384 669.374L606.547 618.845C605.649 632.472 603.853 645.701 601.43 659.133C601.083 661.055 600.879 664.63 600.031 666.287L594.186 694.723C593.331 698.155 592.621 702.032 591.35 705.312C586.605 706.312 582.093 708.509 577.597 710.283L564.043 714.903L552.868 700.532L552.593 700.526L517.75 648.4C516.297 645.758 512.757 640.127 513.633 637.184Z"/>
	<path fill="#19999D" transform="scale(0.488281 0.488281)" d="M552.868 700.532C555.84 698.587 559.372 697.2 562.5 695.495C566.957 693.064 571.199 690.168 575.244 687.106L589.95 674.925C593.244 671.987 596.371 668.771 600.031 666.287L594.186 694.723C593.331 698.155 592.621 702.032 591.35 705.312C586.605 706.312 582.093 708.509 577.597 710.283L564.043 714.903L552.868 700.532Z"/>
	<path fill="#F7A09C" transform="scale(0.488281 0.488281)" d="M445.284 522.451C453.929 526.486 461.93 530.721 471.078 533.595C507.11 544.918 544.515 539.067 577.51 521.825L577.621 541.005C577.736 543.759 578.069 546.727 577.84 549.463L578.039 565.43C578.038 567.621 577.39 577.168 578.537 578.29C579.346 579.082 580.052 579.411 581.052 579.9C577.82 584.456 570.699 588.4 566.079 591.719L507.696 631.271L446.305 582.908C444.563 581.377 444.642 581.441 444.502 579.204C445.801 575.881 444.998 570.169 444.939 566.527C443.933 561.194 444.649 555.027 445.017 549.63L445.058 540.847C445.495 538.843 445.293 536.581 445.294 534.522L445.284 522.451Z"/>
	<path fill="#F16A68" transform="scale(0.488281 0.488281)" d="M445.284 522.451C453.929 526.486 461.93 530.721 471.078 533.595C507.11 544.918 544.515 539.067 577.51 521.825L577.621 541.005C577.736 543.759 578.069 546.727 577.84 549.463C575.988 549.64 574.178 550.749 572.52 551.555L561.794 556.923C531.846 571.027 497.774 570.518 467 559.518C462.375 557.865 457.859 555.895 453.46 553.713C450.975 552.481 448.411 550.742 445.8 549.874L445.017 549.63L445.058 540.847C445.495 538.843 445.293 536.581 445.294 534.522L445.284 522.451Z"/>
	<path fill="#FEFEFE" transform="scale(0.488281 0.488281)" d="M578.039 565.43C592.436 572.434 606.034 579.137 618.373 589.607C619.76 590.784 628.941 599.627 629.487 599.638C639.869 603.694 649.902 610.46 659.598 615.975C704.824 641.7 743.578 678.2 772.749 721.24C787.669 743.252 799.836 766.846 810.492 791.165L830.662 846.461L830.743 846.878C833.559 860.784 838.194 874.323 840.869 888.334C846.223 916.375 849.895 945.421 851.377 973.946L851.893 1024L763.24 1024L727.598 1024L514.503 1024L514.468 966.175L557.047 932.892L573.67 917.845L585.216 906.536C587.375 904.438 590.219 901.554 592.898 900.25L593.425 903.097L592.937 884.932L599.897 879.065C600.215 878.158 611.418 869.074 613 867.762C615.32 868.244 618.554 867.909 620.75 866.979C623.779 865.697 627.178 862.118 628.379 859.081L628.599 858.5C630.621 853.272 629.106 848.253 627.54 843.148C626.984 842.191 626.768 840.997 626.463 839.934L623.54 834.75C622.558 833.014 621.958 832.035 620.28 830.909L620.237 830.886L616.663 816.525L615.99 813.679L615.946 805.763C616.079 791.049 619.724 775.474 628.69 763.565C636.627 753.024 646.575 746.081 659.76 744.243L662.508 722.353C665.22 681.884 653.948 644.347 627.102 613.608C626.68 612.448 623.861 610.142 622.894 609.132L605.814 594.039C598.218 589.018 589.528 583.14 581.052 579.9C580.052 579.411 579.346 579.082 578.537 578.29C577.39 577.168 578.038 567.621 578.039 565.43Z"/>
	<path fill="#9091A4" transform="scale(0.488281 0.488281)" d="M599.897 879.065C600.556 883.992 600.475 889.238 600.358 894.205C599.866 897.855 599.238 903.952 601.665 906.965C604.054 909.93 607.038 911.318 610.652 912.208L611.248 912.359C610.985 915.687 611.389 917.885 612.581 920.954C608.246 919.211 603.975 917.773 600.181 914.95C596.027 911.857 594.156 908.123 593.425 903.097L592.937 884.932L599.897 879.065Z"/>
	<path fill="#E5E4E6" transform="scale(0.488281 0.488281)" d="M634.935 916.026L635.5 916.962C641.886 917.663 648.565 917.168 654.994 917.069C658.713 917.011 662.762 917.362 666.441 916.964C667.34 920.111 668.311 922.119 671.291 923.75C674.942 925.749 680.569 925.733 684.5 924.453C687.131 923.595 688.591 921.188 689.732 918.844L695.097 918.157C694.842 921.686 694.131 924.126 692.506 927.25L692.239 927.789C691.114 929.954 687.94 931.233 685.672 931.885C681.306 933.138 675.932 932.159 671.492 931.496C670.392 930.628 667.374 926.984 666.424 926.578C665.351 926.119 661.426 926.53 660.109 926.518C652.43 926.448 643.575 925.523 636 926.501C635.144 926.611 634.522 926.923 633.75 927.276C628.033 929.888 623.764 931.012 617.639 928.68C615.988 928.052 614.411 927.303 613.545 925.75L614.189 922.725C615.317 923.583 616.352 924.131 617.73 924.467C621.782 925.454 627.128 925.07 630.669 922.707C633.144 921.055 634.371 918.891 634.935 916.026Z"/>
	<path fill="#9091A4" transform="scale(0.488281 0.488281)" d="M704.042 822.414L711.485 822.47L711.68 866.716L711.748 889.348C711.7 893.445 711.926 897.935 711.052 901.946C710.2 905.856 708.001 909.666 705.208 912.508C702.043 915.728 698.977 916.368 695.097 918.157L689.732 918.844C689.989 916.731 689.807 914.894 689.503 912.794C693.683 911.112 698.238 910.263 701.419 906.773C702.842 905.211 703.749 903.521 704.138 901.44C704.705 898.416 704.487 895.177 704.492 892.109L704.492 877.701L704.042 822.414Z"/>
	<path fill="#35316F" transform="scale(0.488281 0.488281)" d="M578.039 565.43C592.436 572.434 606.034 579.137 618.373 589.607C619.76 590.784 628.941 599.627 629.487 599.638C638.052 609.2 646.502 619.064 653.264 630.018C669.457 656.253 675.9 688.264 674.359 718.768C673.94 727.057 673.463 735.849 671.683 743.949L659.76 744.243L662.508 722.353C665.22 681.884 653.948 644.347 627.102 613.608C626.68 612.448 623.861 610.142 622.894 609.132L605.814 594.039C598.218 589.018 589.528 583.14 581.052 579.9C580.052 579.411 579.346 579.082 578.537 578.29C577.39 577.168 578.038 567.621 578.039 565.43Z"/>
	<path fill="#ADD3FA" transform="scale(0.488281 0.488281)" d="M727.598 1024L728.929 824.257L728.288 779.34L727.621 764.882C727.552 762.67 727.266 760.149 727.642 757.968C732.029 773.06 735.007 788.914 738.497 804.25L745.361 834.439C755.59 884.541 761.826 935.797 762.988 986.929L763.24 1024L727.598 1024Z"/>
	<path fill="#FEFEFE" transform="scale(0.488281 0.488281)" d="M671.683 743.949C684.767 745.695 697.52 752.113 705.619 762.764C710.512 769.199 713.548 777.779 714.535 785.75L714.658 786.67C715.763 795.293 715.063 804.859 715.068 813.605C715.07 816.028 715.631 820.055 714.75 822.288L711.485 822.47L704.042 822.414L704.492 877.701L704.492 892.109C704.487 895.177 704.705 898.416 704.138 901.44C703.749 903.521 702.842 905.211 701.419 906.773C698.238 910.263 693.683 911.112 689.503 912.794C689.807 914.894 689.989 916.731 689.732 918.844C688.591 921.188 687.131 923.595 684.5 924.453C680.569 925.733 674.942 925.749 671.291 923.75C668.311 922.119 667.34 920.111 666.441 916.964C662.762 917.362 658.713 917.011 654.994 917.069C648.565 917.168 641.886 917.663 635.5 916.962L634.935 916.026C634.371 918.891 633.144 921.055 630.669 922.707C627.128 925.07 621.782 925.454 617.73 924.467C616.352 924.131 615.317 923.583 614.189 922.725L612.581 920.954C611.389 917.885 610.985 915.687 611.248 912.359L610.652 912.208C607.038 911.318 604.054 909.93 601.665 906.965C599.238 903.952 599.866 897.855 600.358 894.205C600.475 889.238 600.556 883.992 599.897 879.065C600.215 878.158 611.418 869.074 613 867.762C615.32 868.244 618.554 867.909 620.75 866.979C623.779 865.697 627.178 862.118 628.379 859.081L628.599 858.5C630.621 853.272 629.106 848.253 627.54 843.148C626.984 842.191 626.768 840.997 626.463 839.934L623.54 834.75C622.558 833.014 621.958 832.035 620.28 830.909L620.237 830.886L616.663 816.525L615.99 813.679L615.946 805.763C616.079 791.049 619.724 775.474 628.69 763.565C636.627 753.024 646.575 746.081 659.76 744.243L671.683 743.949Z"/>
	<path fill="#B9B3C3" transform="scale(0.488281 0.488281)" d="M616.663 816.525L626.621 816.606L626.463 839.934L623.54 834.75C622.558 833.014 621.958 832.035 620.28 830.909L620.237 830.886L616.663 816.525Z"/>
	<path fill="#1D1E53" transform="scale(0.488281 0.488281)" d="M666.441 916.964L666.515 916.212C666.904 912.974 668.848 909.977 671.48 908.102C674.614 905.869 678.344 905.764 682 906.53C685.689 907.303 687.586 909.818 689.503 912.794C689.807 914.894 689.989 916.731 689.732 918.844C688.591 921.188 687.131 923.595 684.5 924.453C680.569 925.733 674.942 925.749 671.291 923.75C668.311 922.119 667.34 920.111 666.441 916.964Z"/>
	<path fill="#1D1E53" transform="scale(0.488281 0.488281)" d="M611.248 912.359C613.271 909.144 614.651 907.383 618.5 906.542C622.22 905.729 626.532 905.737 629.854 907.816C633.079 909.835 634.063 912.54 634.935 916.026C634.371 918.891 633.144 921.055 630.669 922.707C627.128 925.07 621.782 925.454 617.73 924.467C616.352 924.131 615.317 923.583 614.189 922.725L612.581 920.954C611.389 917.885 610.985 915.687 611.248 912.359Z"/>
	<path fill="#B9B3C3" transform="scale(0.488281 0.488281)" d="M627.54 843.148L628.211 843.322C637.091 845.569 646.532 844.205 655.608 844.852C650.419 850.634 644.416 855.709 638.568 860.806L611.944 884.026C608.078 887.424 604.029 890.589 600.358 894.205C600.475 889.238 600.556 883.992 599.897 879.065C600.215 878.158 611.418 869.074 613 867.762C615.32 868.244 618.554 867.909 620.75 866.979C623.779 865.697 627.178 862.118 628.379 859.081L628.599 858.5C630.621 853.272 629.106 848.253 627.54 843.148Z"/>
	<path fill="#F16A68" transform="scale(0.488281 0.488281)" d="M671.683 743.949C684.767 745.695 697.52 752.113 705.619 762.764C710.512 769.199 713.548 777.779 714.535 785.75L714.658 786.67C715.763 795.293 715.063 804.859 715.068 813.605C715.07 816.028 715.631 820.055 714.75 822.288L711.485 822.47L704.042 822.414L700.5 822.463C700.25 822.234 699.92 822.069 699.75 821.775C699.45 821.256 699.827 816.708 699.835 815.717L699.728 796.938C699.677 792.893 699.949 788.288 698.791 784.39C697.135 778.817 694.478 773.815 690.384 769.625C684.427 763.528 675.924 759.509 667.353 759.404C657.619 759.285 648.867 762.478 641.905 769.403C628.811 782.427 631.277 799.172 631.361 816C630.36 816.969 628.051 816.601 626.621 816.606L616.663 816.525L615.99 813.679L615.946 805.763C616.079 791.049 619.724 775.474 628.69 763.565C636.627 753.024 646.575 746.081 659.76 744.243L671.683 743.949Z"/>
	<path fill="#FEFEFE" transform="scale(0.488281 0.488281)" d="M388.711 604.404C399.445 592.631 410.798 582.496 425.023 575.049C431.398 571.712 438.27 569.21 444.939 566.527C444.998 570.169 445.801 575.881 444.502 579.204C440.47 579.953 436.686 581.956 433.088 583.859L416.599 593.66L408.19 600.597L400.706 608.001C398.251 620.66 393.366 633.31 390.14 645.849L377.645 702.374L371.694 729.089C371.105 732.029 369.894 736.289 370.169 739.25C370.205 739.637 370.675 740.4 370.857 740.645C373.33 743.984 412.847 759.163 419.747 761.718L419.542 762.225C417.556 767.23 416.197 772.49 414.497 777.599L403.163 810.11L392.427 836.738C390.036 842.555 387.338 848.555 385.876 854.683L508.889 966.471L508.546 1024L298.725 1024L254.506 1024L171.102 1024L172.351 967.204C174.645 925.09 181.06 883.492 193.611 843.17C195.367 835.715 198.413 828.028 201.106 820.876C207.376 804.228 214.346 787.962 222.241 772.014C230.094 756.151 239.431 740.844 249.143 726.056C275.047 686.612 306.105 650.735 346.282 625.28C359.883 616.663 373.415 609.561 388.711 604.404Z"/>
	<path fill="#9091A4" transform="scale(0.488281 0.488281)" d="M357.686 774.679C368.756 776.178 379.462 779.9 386.528 789.137C392.233 796.593 395.14 806.467 393.759 815.794C392.287 825.731 386.505 834.028 378.512 839.853C370.98 845.342 361.495 847.824 352.25 846.237C345.621 845.099 339.159 841.923 334.328 837.233L343.75 836.928C351.501 836.094 359.477 831.112 364.363 825.147C369.878 818.413 372.021 810.65 370.941 802C369.742 792.385 363.853 783.252 353.957 780.974C351.01 780.295 346.218 780.6 343.959 778.706L343.418 778.185C344.814 777.589 345.67 777.04 346.815 776.043C350.136 774.929 354.204 774.808 357.686 774.679Z"/>
	<path fill="#B9B3C3" transform="scale(0.488281 0.488281)" d="M334.328 837.233L334.305 837.254C330.111 833.994 326.968 829.175 324.829 824.351C321.294 816.382 320.917 805.478 324.179 797.328C327.635 788.691 334.902 781.763 343.418 778.185L343.959 778.706C346.218 780.6 351.01 780.295 353.957 780.974C363.853 783.252 369.742 792.385 370.941 802C372.021 810.65 369.878 818.413 364.363 825.147C359.477 831.112 351.501 836.094 343.75 836.928L334.328 837.233Z"/>
	<path fill="#35316F" transform="scale(0.488281 0.488281)" d="M388.711 604.404C399.445 592.631 410.798 582.496 425.023 575.049C431.398 571.712 438.27 569.21 444.939 566.527C444.998 570.169 445.801 575.881 444.502 579.204C440.47 579.953 436.686 581.956 433.088 583.859L416.599 593.66L408.19 600.597L400.706 608.001C393.757 615.281 387.935 623.73 382.697 632.295C361.521 666.92 354.646 705.53 355.553 745.585L357.686 774.679C354.204 774.808 350.136 774.929 346.815 776.043L345.967 771.656C344.633 760.872 344.351 749.991 344.288 739.137C344.208 725.446 344.698 711.711 346.734 698.153C350.633 672.194 359.829 647.039 373.672 624.75C378.168 617.51 383.49 611.103 388.711 604.404Z"/>
	<path fill="#ADD3FA" transform="scale(0.488281 0.488281)" d="M254.506 1024C254.549 974.813 258.352 924.607 267.52 876.25L280.853 820.57L299.445 762.997L298.725 1024L254.506 1024Z"/>
</svg>
