<?xml version="1.0" encoding="utf-8" ?>
<svg xmlns="http://www.w3.org/2000/svg" xmlns:xlink="http://www.w3.org/1999/xlink" width="500" height="500">
	<path fill="#8BC6C3" transform="scale(0.488281 0.488281)" d="M-0 -0L1024 0L1024 1024L-0 1024L0 -0Z"/>
	<path fill="#F6AC7D" transform="scale(0.488281 0.488281)" d="M682.844 699.092C684.979 709.905 692.788 721.533 699.016 730.465C701.161 733.541 703.928 736.731 705.605 740.059C689.428 743.278 675.784 738.167 668.25 723.069C666.748 720.059 665.575 715.114 662.713 713.467L682.844 699.092Z"/>
	<path fill="#F5CFB5" transform="scale(0.488281 0.488281)" d="M725.192 318.36C732.096 321.46 738.066 330.013 740.675 336.916C744.354 346.647 743.874 359.045 739.355 368.379C734.435 378.54 725.512 387.505 714.691 391.195C708.35 393.357 702.059 394.205 695.377 393.866L690.428 389.799L696.831 379.755C705.229 364.948 713.471 349.986 719.484 334.017L725.192 318.36Z"/>
	<path fill="#F6AC7D" transform="scale(0.488281 0.488281)" d="M696.831 379.755C705.229 364.948 713.471 349.986 719.484 334.017C725.403 339.463 728.442 342.962 728.78 351.343C729.064 358.395 726.434 365.455 721.631 370.626C714.781 378.001 706.357 379.194 696.831 379.755Z"/>
	<path fill="#F5CFB5" transform="scale(0.488281 0.488281)" d="M324.73 396.467C320.817 396.695 316.803 396.812 312.987 395.809L312 395.545C302.891 393.171 294.834 388.837 288.552 381.75C281.616 373.924 277.416 361.236 278.131 350.819C278.875 339.99 283.643 328.614 292.052 321.476L292.75 320.892C294.984 318.987 297.226 317.562 299.756 316.1L303.195 326.154C309.683 345.757 317.38 364.735 327.408 382.816L331.936 390.385L324.73 396.467Z"/>
	<path fill="#F6AC7D" transform="scale(0.488281 0.488281)" d="M303.195 326.154C309.683 345.757 317.38 364.735 327.408 382.816C319.185 381.098 311.218 378.775 304.178 374.011C298.404 370.104 294.379 363.348 293.023 356.573L292.862 355.75L292.618 354.598C291.324 347.1 293.662 337.727 298.061 331.616L298.512 331C299.863 329.137 301.498 327.691 303.195 326.154Z"/>
	<path fill="#F5CFB5" transform="scale(0.488281 0.488281)" d="M683.26 698.564L720.131 671.926L728.86 684.086C730.526 686.513 732.007 689.405 734.03 691.537C736.033 693.648 739.242 694.569 741.557 696.39C750.214 703.197 755.18 714.845 753.274 725.818L752.713 728.25L752.531 729.038C750.869 736.019 746.519 741.934 740.385 745.608C734.189 749.32 726.2 750.738 719.159 748.868C713.896 747.47 708.989 744.324 705.605 740.059C703.928 736.731 701.161 733.541 699.016 730.465C692.788 721.533 684.979 709.905 682.844 699.092L683.26 698.564Z"/>
	<path fill="#F5CFB5" transform="scale(0.488281 0.488281)" d="M300.625 674.563L321.305 686.897C324.989 689.145 329.399 691.438 332.702 694.184L335.187 695.55L357.254 709.901C356.173 721.53 353.449 731.698 347.496 741.86C346.445 743.654 345.177 746.2 343.597 747.551C343.038 748.029 342.604 747.906 341.909 747.951C341.158 747.428 340.467 746.908 339.813 746.265C333.559 740.11 334.892 728.764 334.899 720.749L334.448 721.021L333.712 721.498C329.705 724.061 327.304 727.827 324.418 731.497C321.693 734.964 318.728 738.121 315.241 740.836C308.787 745.862 300.163 748.656 291.977 747.395C285.934 746.464 280.705 742.725 277.203 737.784C273.168 732.089 271.15 724.642 272.302 717.709L272.428 717C273.685 709.561 277.64 703.256 282.75 697.829C285.616 694.785 289.057 691.829 291.51 688.455C294.798 683.934 297.104 679.048 300.625 674.563Z"/>
	<path fill="#F6AC7D" transform="scale(0.488281 0.488281)" d="M332.702 694.184L335.187 695.55L357.254 709.901C356.173 721.53 353.449 731.698 347.496 741.86C346.445 743.654 345.177 746.2 343.597 747.551C343.038 748.029 342.604 747.906 341.909 747.951C340.013 738.929 342.574 730.094 341.136 721.224C340.235 715.661 336.766 710.779 334.869 705.527C333.522 701.799 333.123 698.091 332.702 694.184Z"/>
	<path fill="#E7D6D4" transform="scale(0.488281 0.488281)" d="M474.925 472.96L475.591 472.983C486.204 473.435 496.733 475.514 507.452 475.863C521.625 476.325 535.567 474.204 549.626 472.896C550.11 474.602 550.512 476.101 551.487 477.596C553.434 477.427 554.582 477.312 556.333 478.25C557.601 479.879 558.125 480.964 557.909 483.075C557.577 486.33 556.258 489.681 554.73 492.552L554.472 499.935C555.273 499.781 555.333 499.871 555.951 499.279C557.395 497.895 558.358 497.18 560.25 496.538C563.015 496.927 564.048 497.681 565.972 499.6C565.335 512.057 559.552 528.867 549.981 537.339C546.221 540.667 542.247 541.177 537.461 540.869L536.344 540.762L531.835 539.631C523.107 537.084 516.326 531.233 512 523.43C511.343 524.355 511.062 525.408 510.685 526.47C508.058 532.357 500.644 537.227 494.75 539.425L488.956 540.919C485.17 541.337 481.018 541.854 477.5 540.023C466.962 534.538 462.099 518.198 458.935 507.628C458.38 505.237 458.186 503.054 458.096 500.614C458.629 499.084 459.672 497.562 461.207 496.907C463.226 496.044 464.565 496.769 466.398 497.572C467.256 497.83 467.947 498.018 468.844 498.106L468.027 490.081C467.331 487.793 466.92 485.815 466.948 483.426C466.969 481.678 467.093 480.151 468.371 478.858C470.348 477.789 472.326 477.974 474.51 477.97L474.925 472.96Z"/>
	<path fill="#884B8C" transform="scale(0.488281 0.488281)" d="M551.487 477.596C553.434 477.427 554.582 477.312 556.333 478.25C557.601 479.879 558.125 480.964 557.909 483.075C557.577 486.33 556.258 489.681 554.73 492.552C545.286 504.196 530.075 512.442 515.249 514.754L511.786 502.706C513.757 503.731 519.043 503.125 521.222 502.681L522 502.512C523.644 502.171 525.265 501.846 526.847 501.266C537.375 497.404 545.981 489.458 550.803 479.349L551.487 477.596Z"/>
	<path fill="#F19375" transform="scale(0.488281 0.488281)" d="M474.925 472.96L475.591 472.983C486.204 473.435 496.733 475.514 507.452 475.863C521.625 476.325 535.567 474.204 549.626 472.896C550.11 474.602 550.512 476.101 551.487 477.596L550.803 479.349C536.205 486.858 517.691 487.595 501.573 486.516C495.138 486.085 488.297 485.406 482.13 483.444C479.455 482.594 477.315 481.549 474.912 480.133L474.51 477.97L474.925 472.96Z"/>
	<path fill="#5A3B6A" transform="scale(0.488281 0.488281)" d="M554.73 492.552L554.472 499.935C555.273 499.781 555.333 499.871 555.951 499.279C557.395 497.895 558.358 497.18 560.25 496.538C563.015 496.927 564.048 497.681 565.972 499.6C565.335 512.057 559.552 528.867 549.981 537.339C546.221 540.667 542.247 541.177 537.461 540.869L536.344 540.762L531.835 539.631C523.107 537.084 516.326 531.233 512 523.43C511.343 524.355 511.062 525.408 510.685 526.47L509.247 525.254L509.811 506.071L510.071 503.337L511.786 502.706L515.249 514.754C530.075 512.442 545.286 504.196 554.73 492.552Z"/>
	<path fill="#B29AD3" transform="scale(0.488281 0.488281)" d="M554.73 492.552L554.472 499.935L554.445 500.334C553.906 509.931 552.905 518.867 545.36 525.902C542.442 528.623 539.578 529.711 535.6 529.472C529.522 529.105 522.335 525.224 518.487 520.55C517.045 518.799 516.291 516.731 515.249 514.754C530.075 512.442 545.286 504.196 554.73 492.552Z"/>
	<path fill="#884B8C" transform="scale(0.488281 0.488281)" d="M468.027 490.081C467.331 487.793 466.92 485.815 466.948 483.426C466.969 481.678 467.093 480.151 468.371 478.858C470.348 477.789 472.326 477.974 474.51 477.97L474.912 480.133C477.773 488.832 485.733 495.394 493.662 499.43C498.893 502.092 504.281 502.982 510.071 503.337L509.811 506.071L509.247 525.254L510.685 526.47C508.058 532.357 500.644 537.227 494.75 539.425L488.956 540.919C485.17 541.337 481.018 541.854 477.5 540.023C466.962 534.538 462.099 518.198 458.935 507.628C458.38 505.237 458.186 503.054 458.096 500.614C458.629 499.084 459.672 497.562 461.207 496.907C463.226 496.044 464.565 496.769 466.398 497.572C467.256 497.83 467.947 498.018 468.844 498.106L468.027 490.081Z"/>
	<path fill="#5A3B6A" transform="scale(0.488281 0.488281)" d="M458.096 500.614C458.629 499.084 459.672 497.562 461.207 496.907C463.226 496.044 464.565 496.769 466.398 497.572C464.207 500.602 461.777 505.395 458.935 507.628C458.38 505.237 458.186 503.054 458.096 500.614Z"/>
	<path fill="#B29AD3" transform="scale(0.488281 0.488281)" d="M468.027 490.081L475.214 497.426C480.752 502.565 487.492 507.002 494.584 509.661C498.395 511.089 504.878 511.634 507.898 513.928C507.449 515.499 507.02 517.332 506.23 518.763C503.649 523.438 496.536 527.848 491.487 529.168C488.289 530.004 484.144 529.981 481.325 528.289C474.29 524.066 471.035 513.747 469.855 506.054C469.488 503.661 469.604 501.047 469.008 498.718L468.844 498.106L468.027 490.081Z"/>
	<path fill="#B29AD3" transform="scale(0.488281 0.488281)" d="M361.98 878.207C358.071 877.656 354.212 876.292 350.41 875.249C333.065 870.487 315.05 863.46 299.781 853.877C301.468 849.566 302.561 845.012 304.19 840.662C309.668 826.033 316.308 811.377 324.012 797.793C338.348 805.529 353.82 811.316 369.375 816.081L388.601 821.418L388.905 821.391L428.758 829.161L429.003 829.456C427.524 832.238 426.955 835.395 426.093 838.413L422.053 851.967L415.739 872.33C414.081 877.655 412.373 882.733 411.843 888.321C409.24 887.309 406.605 887.217 403.881 886.778L389.659 884.49L361.98 878.207Z"/>
	<path fill="#9A79BD" transform="scale(0.488281 0.488281)" d="M388.905 821.391L428.758 829.161L429.003 829.456C427.524 832.238 426.955 835.395 426.093 838.413L422.053 851.967L415.739 872.33C414.081 877.655 412.373 882.733 411.843 888.321C409.24 887.309 406.605 887.217 403.881 886.778L389.659 884.49L361.98 878.207C362.786 877.423 363.452 875.469 363.951 874.396L368.918 863.655L381.129 837.475C383.642 832.208 386.692 826.919 388.601 821.418L388.905 821.391Z"/>
	<path fill="#FEFEFD" transform="scale(0.488281 0.488281)" d="M621.012 535.752L708.849 650.299L723.564 669.464L720.131 671.926L683.26 698.564L682.844 699.092L662.713 713.467L661.531 713.905L652.714 701.084C651.149 698.877 649.073 696.538 648.183 693.994L608.537 626.511L617.252 559.259L621.012 535.752Z"/>
	<path fill="#9A79BD" transform="scale(0.488281 0.488281)" d="M708.849 650.299L723.564 669.464L720.131 671.926L683.26 698.564L671.692 677.776L671.797 677.501L708.849 650.299Z"/>
	<path fill="#E7D6D4" transform="scale(0.488281 0.488281)" d="M617.252 559.259C619.43 562.976 619.893 568.894 621.056 573.147L627.526 593.5C632.096 605.918 637.743 617.497 643.692 629.293C652.022 645.809 661.225 662.299 671.797 677.501L671.692 677.776L683.26 698.564L682.844 699.092L662.713 713.467L661.531 713.905L652.714 701.084C651.149 698.877 649.073 696.538 648.183 693.994L608.537 626.511L617.252 559.259Z"/>
	<path fill="#884B8C" transform="scale(0.488281 0.488281)" d="M671.692 677.776L683.26 698.564L682.844 699.092L662.713 713.467L661.531 713.905L652.714 701.084C651.149 698.877 649.073 696.538 648.183 693.994L671.692 677.776Z"/>
	<path fill="#9A79BD" transform="scale(0.488281 0.488281)" d="M696.289 795.567C699.551 800.6 702.079 806.148 704.772 811.502L723.06 851.428C717.078 855.251 711.07 859.048 704.5 861.791C698.11 864.459 691.399 866.249 684.998 868.807L650.65 878.411L612.494 886.546L597.643 888.822L539.095 893.997L536.033 863C535.159 853.843 533.792 844.351 534.082 835.162L584.701 830.187L585.536 829.898C589.475 829.951 593.944 828.937 597.854 828.278L628.626 821.889L628.989 822.004C631.702 820.428 636.492 819.828 639.594 818.972L657.753 813.315L658.064 812.945C662.006 812.081 666.226 810.249 669.984 808.754C679.033 805.157 688.055 800.769 696.289 795.567Z"/>
	<path fill="#B29AD3" transform="scale(0.488281 0.488281)" d="M657.753 813.315C660.514 814.949 663.326 822.569 664.846 825.637L684.998 868.807L650.65 878.411L628.989 822.004C631.702 820.428 636.492 819.828 639.594 818.972L657.753 813.315Z"/>
	<path fill="#9A79BD" transform="scale(0.488281 0.488281)" d="M628.626 821.889L628.989 822.004L650.65 878.411L612.494 886.546L597.643 888.822L588.055 842L586.358 833.746C586.251 833.236 586.079 831.502 585.808 831.118C585.531 830.723 585.07 830.497 584.701 830.187L585.536 829.898C589.475 829.951 593.944 828.937 597.854 828.278L628.626 821.889Z"/>
	<path fill="#B29AD3" transform="scale(0.488281 0.488281)" d="M584.701 830.187C585.07 830.497 585.531 830.723 585.808 831.118C586.079 831.502 586.251 833.236 586.358 833.746L588.055 842L597.643 888.822L539.095 893.997L536.033 863C535.159 853.843 533.792 844.351 534.082 835.162L584.701 830.187Z"/>
	<path fill="#45812F" transform="scale(0.488281 0.488281)" d="M565.972 499.6C568.721 500.608 580.719 505.694 581.994 507.661L609.523 524.979C613.446 527.704 617.869 530.452 620.75 534.305L621.012 535.752L617.252 559.259L608.537 626.511L605.59 655.291C604.996 660.8 603.876 666.899 604.022 672.402C600.105 673.048 595.928 672.778 591.963 672.785L571.03 672.995L568.494 672.704L564.609 672.725L544.435 672.759L532.643 672.824L520.177 672.961L507.562 672.979L491.163 673.013L488.956 540.919L494.75 539.425C500.644 537.227 508.058 532.357 510.685 526.47C511.062 525.408 511.343 524.355 512 523.43C516.326 531.233 523.107 537.084 531.835 539.631L536.344 540.762L537.461 540.869C542.247 541.177 546.221 540.667 549.981 537.339C559.552 528.867 565.335 512.057 565.972 499.6Z"/>
	<path fill="#6F9D3C" transform="scale(0.488281 0.488281)" d="M565.972 499.6C568.721 500.608 580.719 505.694 581.994 507.661L564.609 672.725L544.435 672.759L532.643 672.824L536.344 540.762L537.461 540.869C542.247 541.177 546.221 540.667 549.981 537.339C559.552 528.867 565.335 512.057 565.972 499.6Z"/>
	<path fill="#FEFEFD" transform="scale(0.488281 0.488281)" d="M553.015 566.028C554.464 565.959 556.029 565.813 557.447 566.182C559.65 566.756 561.287 568.296 562.359 570.254C563.284 571.946 563.335 574.17 562.772 575.991C561.852 578.964 560.064 580.305 557.445 581.764C555.877 581.948 554.451 581.902 552.932 581.447C550.895 580.837 549.188 579.43 548.201 577.544C547.248 575.723 547.004 573.355 547.665 571.396C548.603 568.617 550.536 567.346 553.015 566.028Z"/>
	<path fill="#FEFEFD" transform="scale(0.488281 0.488281)" d="M554.287 617.52L554.71 617.584C556.25 617.764 557.641 617.808 559 618.65C560.755 619.737 562.152 621.696 562.494 623.75C562.898 626.171 562.633 628.519 561.193 630.537C559.762 632.544 558.115 633.275 555.75 633.675C554.527 633.665 553.206 633.68 552.064 633.19C550.183 632.383 548.407 630.596 547.688 628.678C546.871 626.501 546.727 624.211 547.816 622.095C549.27 619.272 551.366 618.358 554.287 617.52Z"/>
	<defs>
		<linearGradient id="gradient_0" gradientUnits="userSpaceOnUse" x1="539.02203" y1="597.49133" x2="486.70511" y2="601.24939">
			<stop offset="0" stop-color="#D7CDBF"/>
			<stop offset="1" stop-color="#F3F7EE"/>
		</linearGradient>
	</defs>
	<path fill="url(#gradient_0)" transform="scale(0.488281 0.488281)" d="M510.685 526.47C511.062 525.408 511.343 524.355 512 523.43C516.326 531.233 523.107 537.084 531.835 539.631L536.344 540.762L532.643 672.824L520.177 672.961L507.562 672.979L491.163 673.013L488.956 540.919L494.75 539.425C500.644 537.227 508.058 532.357 510.685 526.47Z"/>
	<path fill="#8B2D41" transform="scale(0.488281 0.488281)" d="M510.164 557.037C512.093 556.96 514.134 556.767 515.901 557.688C519.053 559.329 521.014 561.657 521.929 565.065C522.681 567.866 522.382 570.489 520.905 573C519.222 575.862 516.827 577.091 513.715 577.935C512.329 577.986 510.838 577.865 509.5 577.477C506.428 576.587 503.722 574.158 502.286 571.343C501.232 569.275 501.105 566.333 501.946 564.165C503.495 560.171 506.41 558.528 510.164 557.037Z"/>
	<path fill="#8B2D41" transform="scale(0.488281 0.488281)" d="M510.825 644.033C512.184 643.984 513.444 644.064 514.75 644.457C517.78 645.37 520.469 648.102 521.761 650.935C522.756 653.118 522.985 656.431 522.036 658.683C520.478 662.378 517.286 664.316 513.714 665.692C511.815 665.677 509.758 665.786 508 664.953C505.221 663.636 502.771 661.062 501.81 658.112C500.869 655.22 501.243 652.28 502.758 649.67C504.628 646.451 507.314 644.98 510.825 644.033Z"/>
	<path fill="#8B2D41" transform="scale(0.488281 0.488281)" d="M509.132 603.083C510.624 602.979 512.229 602.78 513.695 603.151C516.575 603.878 519.565 605.829 521.039 608.432C522.566 611.128 523.021 614.096 522.072 617.094C520.852 620.948 518.08 622.576 514.713 624.288C513.229 624.581 511.501 624.654 510 624.482C507.602 624.208 504.71 622.296 503.366 620.337C501.507 617.628 500.821 614.01 501.648 610.816C502.725 606.654 505.628 604.963 509.132 603.083Z"/>
	<path fill="#903B24" transform="scale(0.488281 0.488281)" d="M285.174 212.674C286.21 214.402 285.619 216.572 285.244 218.501C284.516 222.247 285.27 226.406 284.218 229.937C283.769 231.446 284.179 233.223 284.167 234.788C284.126 240.082 284.503 245.465 285.085 250.75L285.863 257.524L286.043 258.537C286.259 259.808 286.203 259.119 286.146 260.194C286.091 261.249 286.482 262.762 286.625 263.875L287.055 265.254L287.229 266.524C287.348 267.308 287.498 268.034 287.739 268.787C287.962 269.482 287.992 270.147 288.067 270.865C288.276 272.86 289.037 276.373 289.869 278.164C290.565 279.664 290.628 281.619 291.114 283.254L291.458 285.001C291.606 285.839 291.885 286.458 292.114 287.254L292.328 288.183L293.746 293.524L294.114 294.754L294.317 295.683L295.057 297.795C295.839 299.955 296.532 302.717 297.092 304.992L298.381 308.997C298.695 309.811 298.836 310.493 299.007 311.336C299.316 312.862 299.919 314.332 300.528 315.757L302.23 320.814C302.575 319.453 302.213 318.835 301.875 317.484L301.5 316.281C301.088 315.045 300.896 313.761 300.5 312.5C300.155 311.403 300.111 310.388 299.502 309.375L299.5 308.75L299.115 307.837C298.847 306.972 298.765 305.919 298.5 305L298.141 303.281C298.004 302.46 297.772 301.783 297.5 301L296 295.281C295.587 294.042 295.405 292.763 295 291.5L294.141 287.281C294.003 286.458 293.752 285.787 293.5 285L293.141 283.281C292.974 282.28 293.064 282.708 292.742 281.742C292.479 280.953 292.522 280.407 292.375 279.625L292 278.5L291.141 274.281C290.974 273.28 291.064 273.708 290.742 272.742C290.479 271.953 290.528 271.401 290.375 270.625C290.189 269.684 289.985 268.485 289.688 267.594C288.762 264.818 289.113 261.37 288.187 258.593C287.786 257.388 287.771 255.797 287.5 254.5L287.377 253C287.237 251.583 286.895 250.254 286.892 248.82C286.89 247.889 286.941 248.387 286.687 247.625C286.169 246.068 286.768 244.336 286.5 242.75C286 239.792 285.891 236.808 285.755 233.75L285.877 232L286 221.75L286.673 221.75L286.617 222.455C284.889 245.709 290.302 269.14 295.726 291.594C300.375 310.838 305.611 330.298 313.75 348.406C317.782 357.376 322.692 366.088 327.611 374.601C335.664 388.54 344.25 401.858 354.847 414.038C359.473 419.355 365.183 425.607 371.425 428.951L371.978 429.516C373.013 430.563 374.467 431.337 375.028 432.729C379.828 438.117 386.956 442.443 393.254 445.912C409.719 454.981 426.683 460.671 444.395 466.595C441.312 471.263 437.155 475.556 433.224 479.531C418.317 494.602 399.958 505.482 379.088 509.807C367.093 512.292 356.183 511.926 344.087 510.888C348.809 525.532 351.561 541.94 348.657 557.25C346.658 567.792 342.537 577.884 336.78 586.94C298.693 584.436 263.454 574.913 237.305 545.305C231.951 539.242 225.53 530.672 222.74 523.029L222.593 522.934C220.423 518.385 217.324 512.49 217.119 507.388C223.666 501.502 232.522 496.916 240.671 493.665C253.866 488.399 267.622 485.897 281.819 485.925C288.903 485.938 296.257 486.588 302.817 489.431C304.478 487.046 306.111 486.022 308.803 484.94C305.805 478.684 303.656 472.318 302.377 465.5C301.413 460.358 300.972 455.16 300.999 449.928C301.075 435.617 305.566 420.122 313.901 408.434C317.063 403.998 320.854 400.262 324.73 396.467L331.936 390.385L327.408 382.816C317.38 364.735 309.683 345.757 303.195 326.154L299.756 316.1C288.672 282.797 279.745 247.923 285.174 212.674Z"/>
	<path fill="#EE5956" transform="scale(0.488281 0.488281)" d="M308.803 484.94C310.658 484.741 312.471 484.511 314.338 484.605C323.267 487.996 330.385 491.427 336.577 499.09L336.905 499.685C338.122 502.06 338.996 504.624 338.082 507.25C337.489 508.953 335.898 510.234 334.246 510.866C328.382 513.108 320.798 510.916 315.438 508.197C308.434 504.645 304.531 500.147 302.02 492.79C302.541 491.843 302.619 490.498 302.817 489.431C304.478 487.046 306.111 486.022 308.803 484.94Z"/>
	<path fill="#AB5034" transform="scale(0.488281 0.488281)" d="M331.936 390.385L332.252 390.765C336.011 395.361 338.994 400.828 342.345 405.747C345.946 411.032 350.175 416.004 354.451 420.75C358.222 424.936 362.45 429.514 367.158 432.651C359.423 453.781 348.977 470.657 327.969 480.371C323.502 482.437 318.688 482.816 314.338 484.605C312.471 484.511 310.658 484.741 308.803 484.94C305.805 478.684 303.656 472.318 302.377 465.5C301.413 460.358 300.972 455.16 300.999 449.928C301.075 435.617 305.566 420.122 313.901 408.434C317.063 403.998 320.854 400.262 324.73 396.467L331.936 390.385Z"/>
	<path fill="#AB5034" transform="scale(0.488281 0.488281)" d="M222.74 523.029L222.593 522.934C220.423 518.385 217.324 512.49 217.119 507.388C223.666 501.502 232.522 496.916 240.671 493.665C253.866 488.399 267.622 485.897 281.819 485.925C288.903 485.938 296.257 486.588 302.817 489.431C302.619 490.498 302.541 491.843 302.02 492.79L301.544 493C300.489 495.843 300.879 498.737 302.131 501.453C306.306 510.511 312.313 515.037 321.492 518.253L324.404 519.254C313.736 532.924 298.921 542.278 281.659 544.726C264.254 547.194 245.646 540.93 231.914 530.377C229.695 528.671 225.097 523.423 222.74 523.029Z"/>
	<path fill="#446499" transform="scale(0.488281 0.488281)" d="M604.022 672.402C608.905 674.55 617.371 686.545 621.197 691.104C643.795 718.032 666.223 744.562 684.464 774.766C688.55 781.531 692.895 788.429 696.289 795.567C688.055 800.769 679.033 805.157 669.984 808.754C666.226 810.249 662.006 812.081 658.064 812.945L657.753 813.315L639.594 818.972C636.492 819.828 631.702 820.428 628.989 822.004L628.626 821.889L597.854 828.278C593.944 828.937 589.475 829.951 585.536 829.898L584.701 830.187L534.082 835.162L533.68 835.063C534.133 831.324 533.418 827.111 533.139 823.347L531.932 804.528L524.766 721.25L520.177 672.961L532.643 672.824L544.435 672.759L564.609 672.725L568.494 672.704L571.03 672.995L591.963 672.785C595.928 672.778 600.105 673.048 604.022 672.402Z"/>
	<path fill="#2E5081" transform="scale(0.488281 0.488281)" d="M564.609 672.725L568.494 672.704L582.084 702.875L621.017 799.5L625.926 813.059C626.965 815.906 628.385 818.856 628.626 821.889L597.854 828.278C593.944 828.937 589.475 829.951 585.536 829.898L572.853 771L556.762 710.67C553.137 698.171 549.968 684.518 544.435 672.759L564.609 672.725Z"/>
	<path fill="#2E5081" transform="scale(0.488281 0.488281)" d="M604.022 672.402C608.905 674.55 617.371 686.545 621.197 691.104C643.795 718.032 666.223 744.562 684.464 774.766C688.55 781.531 692.895 788.429 696.289 795.567C688.055 800.769 679.033 805.157 669.984 808.754C666.226 810.249 662.006 812.081 658.064 812.945L657.753 813.315L639.594 818.972C636.492 819.828 631.702 820.428 628.989 822.004L628.626 821.889C628.385 818.856 626.965 815.906 625.926 813.059L621.017 799.5L582.084 702.875L568.494 672.704L571.03 672.995L591.963 672.785C595.928 672.778 600.105 673.048 604.022 672.402Z"/>
	<path fill="#446499" transform="scale(0.488281 0.488281)" d="M568.494 672.704L571.03 672.995L632.174 769.026L651.25 800.487C653.551 804.524 656.375 808.612 658.064 812.945L657.753 813.315L639.594 818.972C636.492 819.828 631.702 820.428 628.989 822.004L628.626 821.889C628.385 818.856 626.965 815.906 625.926 813.059L621.017 799.5L582.084 702.875L568.494 672.704Z"/>
	<path fill="#FEFEFD" transform="scale(0.488281 0.488281)" d="M458.096 500.614C458.186 503.054 458.38 505.237 458.935 507.628C462.099 518.198 466.962 534.538 477.5 540.023C481.018 541.854 485.17 541.337 488.956 540.919L491.163 673.013L477.974 672.656L458.504 672.625L457.527 672.68L436.708 672.729C432.182 672.72 427.467 672.993 422.978 672.37C419.531 673.86 416.496 677.687 413.868 680.326L389.32 706.614L368.952 728.874L352.227 751.098L351.729 750.643L351 751.25C350.175 750.915 349.798 750.958 349 750.755C347.72 750.43 346.541 750.292 345.25 750.023C343.433 749.644 342.901 749.495 341.909 747.951C342.604 747.906 343.038 748.029 343.597 747.551C345.177 746.2 346.445 743.654 347.496 741.86C353.449 731.698 356.173 721.53 357.254 709.901L335.187 695.55L332.702 694.184C329.399 691.438 324.989 689.145 321.305 686.897L300.625 674.563C299.433 673.603 297.832 672.885 296.483 672.136L311.679 652.157C324.865 632.195 340.506 613.297 355.075 594.3C370.596 574.061 385.676 552.051 403.993 534.216C403.558 533.534 403.59 533.04 403.513 532.25C405.205 529.509 408.614 527.507 411.228 525.711C421.341 518.763 431.976 513.488 442.952 508.088C447.119 504.92 453.25 502.651 458.096 500.614Z"/>
	<path fill="#9A79BD" transform="scale(0.488281 0.488281)" d="M311.679 652.157L351.003 676.134C345.921 682.554 341.02 689.815 335.187 695.55L332.702 694.184C329.399 691.438 324.989 689.145 321.305 686.897L300.625 674.563C299.433 673.603 297.832 672.885 296.483 672.136L311.679 652.157Z"/>
	<path fill="#E7D6D4" transform="scale(0.488281 0.488281)" d="M406.047 543.265L416.71 626.277C413.409 630.406 410.687 635.24 407.75 639.651L384.807 675.305L377.756 686.35C376.873 687.753 375.519 689.439 374.98 690.995L355.732 678.916C361.19 668.848 368.081 659.391 373.857 649.464C388.945 623.534 400.117 596.8 404.188 566.904C405.259 559.042 405.257 551.139 406.047 543.265Z"/>
	<path fill="#8BC6C3" transform="scale(0.488281 0.488281)" d="M416.71 626.277L421.542 659.5C422.1 663.674 423.182 668.154 422.978 672.37C419.531 673.86 416.496 677.687 413.868 680.326L389.32 706.614L368.952 728.874L352.227 751.098L351.729 750.643L351 751.25C350.175 750.915 349.798 750.958 349 750.755C347.72 750.43 346.541 750.292 345.25 750.023C343.433 749.644 342.901 749.495 341.909 747.951C342.604 747.906 343.038 748.029 343.597 747.551C345.177 746.2 346.445 743.654 347.496 741.86C353.449 731.698 356.173 721.53 357.254 709.901L335.187 695.55C341.02 689.815 345.921 682.554 351.003 676.134L355.732 678.916L374.98 690.995C375.519 689.439 376.873 687.753 377.756 686.35L384.807 675.305L407.75 639.651C410.687 635.24 413.409 630.406 416.71 626.277Z"/>
	<path fill="#884B8C" transform="scale(0.488281 0.488281)" d="M335.187 695.55C341.02 689.815 345.921 682.554 351.003 676.134L355.732 678.916L374.98 690.995C371.441 698.207 365.789 704.936 361.484 711.75L360.5 712.055L357.254 709.901L335.187 695.55Z"/>
	<path fill="#6F9D3C" transform="scale(0.488281 0.488281)" d="M458.096 500.614C458.186 503.054 458.38 505.237 458.935 507.628C462.099 518.198 466.962 534.538 477.5 540.023C481.018 541.854 485.17 541.337 488.956 540.919L491.163 673.013L477.974 672.656L458.504 672.625L457.527 672.68L436.708 672.729C432.182 672.72 427.467 672.993 422.978 672.37C423.182 668.154 422.1 663.674 421.542 659.5L416.71 626.277L406.047 543.265C406.205 540.84 405.383 536.007 403.993 534.216C403.558 533.534 403.59 533.04 403.513 532.25C405.205 529.509 408.614 527.507 411.228 525.711C421.341 518.763 431.976 513.488 442.952 508.088C447.119 504.92 453.25 502.651 458.096 500.614Z"/>
	<path fill="#92C262" transform="scale(0.488281 0.488281)" d="M458.096 500.614C458.186 503.054 458.38 505.237 458.935 507.628C462.099 518.198 466.962 534.538 477.5 540.023C481.018 541.854 485.17 541.337 488.956 540.919L491.163 673.013L477.974 672.656L458.504 672.625C458.551 666.208 457.912 659.66 457.496 653.25L454.954 617.364L448.523 539.02L442.952 508.088C447.119 504.92 453.25 502.651 458.096 500.614Z"/>
	<path fill="#AB5034" transform="scale(0.488281 0.488281)" d="M285.174 212.674C285.223 209.206 286.443 205.055 287.325 201.683C290.012 191.421 293.823 181.214 298.29 171.604C322.084 120.417 367.068 83.4524 419.595 64.3358C438.738 57.3688 458.552 52.0658 478.75 49.2798C525.046 42.8941 576.527 49.9782 618.948 69.742C620.87 72.8223 623.33 75.1964 625.667 77.9402L634.688 89.6395C635.535 90.8526 635.788 91.857 636.013 93.2801C643.276 99.2971 650.046 105.587 656.375 112.591C657.639 113.989 659.848 115.922 660.622 117.543C664.682 121.553 668.084 126.532 671.301 131.245C687.316 154.712 695.346 182.486 695.539 210.838L695.545 215.146C695.909 219.518 695.838 224.903 695.132 229.228C694.547 226.325 694.258 223.372 693.532 220.5C689.05 202.776 680.866 184.55 671.482 168.893C647.179 128.342 607.674 97.8644 561.6 86.2593C555.992 83.804 548.482 82.7979 542.433 81.7008C531.883 80.4433 521.822 79.4047 511.177 79.5152C462.131 79.3905 411.432 101.791 376.878 136.219C358.527 154.503 343.985 175.644 334.145 199.641C331.28 206.627 328.25 214.847 327.963 222.497L328.007 222.994C326.945 230.87 326.598 238.95 327.298 246.884L328.363 258.465C328.53 260.049 328.493 262.117 329.18 263.534L337.333 263.683C338.569 263.655 340.782 263.248 341.892 263.634L341.092 263.791C337.567 264.43 333.354 264.021 329.75 264.029C329.23 265.187 329.847 266.194 330.195 267.386L330.231 267.418L357.841 384.523C361.973 399.467 366.065 414.387 371.425 428.951C365.183 425.607 359.473 419.355 354.847 414.038C344.25 401.858 335.664 388.54 327.611 374.601C322.692 366.088 317.782 357.376 313.75 348.406C305.611 330.298 300.375 310.838 295.726 291.594C290.302 269.14 284.889 245.709 286.617 222.455L286.673 221.75L286 221.75L285.877 232L285.755 233.75C285.891 236.808 286 239.792 286.5 242.75C286.768 244.336 286.169 246.068 286.687 247.625C286.941 248.387 286.89 247.889 286.892 248.82C286.895 250.254 287.237 251.583 287.377 253L287.5 254.5C287.771 255.797 287.786 257.388 288.187 258.593C289.113 261.37 288.762 264.818 289.688 267.594C289.985 268.485 290.189 269.684 290.375 270.625C290.528 271.401 290.479 271.953 290.742 272.742C291.064 273.708 290.974 273.28 291.141 274.281L292 278.5L292.375 279.625C292.522 280.407 292.479 280.953 292.742 281.742C293.064 282.708 292.974 282.28 293.141 283.281L293.5 285C293.752 285.787 294.003 286.458 294.141 287.281L295 291.5C295.405 292.763 295.587 294.042 296 295.281L297.5 301C297.772 301.783 298.004 302.46 298.141 303.281L298.5 305C298.765 305.919 298.847 306.972 299.115 307.837L299.5 308.75L299.502 309.375C300.111 310.388 300.155 311.403 300.5 312.5C300.896 313.761 301.088 315.045 301.5 316.281L301.875 317.484C302.213 318.835 302.575 319.453 302.23 320.814L300.528 315.757C299.919 314.332 299.316 312.862 299.007 311.336C298.836 310.493 298.695 309.811 298.381 308.997L297.092 304.992C296.532 302.717 295.839 299.955 295.057 297.795L294.317 295.683L294.114 294.754L293.746 293.524L292.328 288.183L292.114 287.254C291.885 286.458 291.606 285.839 291.458 285.001L291.114 283.254C290.628 281.619 290.565 279.664 289.869 278.164C289.037 276.373 288.276 272.86 288.067 270.865C287.992 270.147 287.962 269.482 287.739 268.787C287.498 268.034 287.348 267.308 287.229 266.524L287.055 265.254L286.625 263.875C286.482 262.762 286.091 261.249 286.146 260.194C286.203 259.119 286.259 259.808 286.043 258.537L285.863 257.524L285.085 250.75C284.503 245.465 284.126 240.082 284.167 234.788C284.179 233.223 283.769 231.446 284.218 229.937C285.27 226.406 284.516 222.247 285.244 218.501C285.619 216.572 286.21 214.402 285.174 212.674Z"/>
	<defs>
		<linearGradient id="gradient_1" gradientUnits="userSpaceOnUse" x1="556.08496" y1="286.43881" x2="448.78949" y2="59.489365">
			<stop offset="0" stop-color="#6C64B6"/>
			<stop offset="1" stop-color="#B9ABF3"/>
		</linearGradient>
	</defs>
	<path fill="url(#gradient_1)" transform="scale(0.488281 0.488281)" d="M328.353 208.622C329.284 180.877 339.795 151.99 355.377 129.24C381.545 91.0338 425.337 64.3281 470.75 56.1983C506.707 49.7614 546.923 52.0509 581.426 64.2457C601.178 71.2271 618.956 81.2541 636.013 93.2801C643.276 99.2971 650.046 105.587 656.375 112.591C657.639 113.989 659.848 115.922 660.622 117.543C664.682 121.553 668.084 126.532 671.301 131.245C687.316 154.712 695.346 182.486 695.539 210.838L695.545 215.146C695.909 219.518 695.838 224.903 695.132 229.228C694.547 226.325 694.258 223.372 693.532 220.5C689.05 202.776 680.866 184.55 671.482 168.893C647.179 128.342 607.674 97.8644 561.6 86.2593C555.992 83.804 548.482 82.7979 542.433 81.7008C531.883 80.4433 521.822 79.4047 511.177 79.5152C462.131 79.3905 411.432 101.791 376.878 136.219C358.527 154.503 343.985 175.644 334.145 199.641C331.28 206.627 328.25 214.847 327.963 222.497L328.007 222.994L327.397 222.688C326.311 219.157 327.675 212.355 328.353 208.622Z"/>
	<defs>
		<linearGradient id="gradient_2" gradientUnits="userSpaceOnUse" x1="693.40271" y1="200.80914" x2="359.56094" y2="108.51272">
			<stop offset="0" stop-color="#5256A5"/>
			<stop offset="1" stop-color="#5976D4"/>
		</linearGradient>
	</defs>
	<path fill="url(#gradient_2)" transform="scale(0.488281 0.488281)" d="M328.353 208.622C332.571 199.896 335.51 190.428 339.536 181.572C349.637 159.355 365.487 138.725 383.75 122.544C421.943 88.7045 473.755 69.968 524.773 73.1619C562.239 75.5075 596.691 87.9686 626.503 110.915C637.93 119.711 648.205 130.17 657.695 140.996C670.744 157.31 681.523 175.216 688.49 195C690.541 200.825 691.597 206.996 693.665 212.75C692.622 212.747 693.094 212.894 692.246 212.324L692.97 215.106C693.461 217.332 694.43 219.676 695 221.962L694.923 215.411L695.545 215.146C695.909 219.518 695.838 224.903 695.132 229.228C694.547 226.325 694.258 223.372 693.532 220.5C689.05 202.776 680.866 184.55 671.482 168.893C647.179 128.342 607.674 97.8644 561.6 86.2593C555.992 83.804 548.482 82.7979 542.433 81.7008C531.883 80.4433 521.822 79.4047 511.177 79.5152C462.131 79.3905 411.432 101.791 376.878 136.219C358.527 154.503 343.985 175.644 334.145 199.641C331.28 206.627 328.25 214.847 327.963 222.497L328.007 222.994L327.397 222.688C326.311 219.157 327.675 212.355 328.353 208.622Z"/>
	<path fill="#446499" transform="scale(0.488281 0.488281)" d="M422.978 672.37C427.467 672.993 432.182 672.72 436.708 672.729L457.527 672.68L458.504 672.625L477.974 672.656L491.163 673.013L507.562 672.979L520.177 672.961L524.766 721.25L531.932 804.528L533.139 823.347C533.418 827.111 534.133 831.324 533.68 835.063C524.91 836.22 515.061 835.865 506.21 835.697C500.313 835.585 494.175 835.756 488.337 834.911L487.841 835.063L429.003 829.456L428.758 829.161L388.905 821.391L388.601 821.418L369.375 816.081C353.82 811.316 338.348 805.529 324.012 797.793L352.227 751.098L368.952 728.874L389.32 706.614L413.868 680.326C416.496 677.687 419.531 673.86 422.978 672.37Z"/>
	<path fill="#2E5081" transform="scale(0.488281 0.488281)" d="M458.504 672.625L477.974 672.656L428.758 829.161L388.905 821.391C389.562 818.418 391.942 814.943 393.311 812.193L401.06 795.753L443.191 705.851L451.745 687.221C453.893 682.757 456.553 678.244 457.977 673.5L457.527 672.68L458.504 672.625Z"/>
	<path fill="#446499" transform="scale(0.488281 0.488281)" d="M477.974 672.656L491.163 673.013L507.562 672.979L520.177 672.961L524.766 721.25L531.932 804.528L533.139 823.347C533.418 827.111 534.133 831.324 533.68 835.063C524.91 836.22 515.061 835.865 506.21 835.697C500.313 835.585 494.175 835.756 488.337 834.911L487.841 835.063L429.003 829.456L428.758 829.161L477.974 672.656Z"/>
	<path fill="#2E5081" transform="scale(0.488281 0.488281)" d="M507.562 672.979L520.177 672.961L524.766 721.25L531.932 804.528L533.139 823.347C533.418 827.111 534.133 831.324 533.68 835.063C524.91 836.22 515.061 835.865 506.21 835.697C500.313 835.585 494.175 835.756 488.337 834.911L507.562 672.979Z"/>
	<path fill="#669989" transform="scale(0.488281 0.488281)" d="M429.003 829.456L487.841 835.063L488.337 834.911C494.175 835.756 500.313 835.585 506.21 835.697C515.061 835.865 524.91 836.22 533.68 835.063L534.082 835.162C533.792 844.351 535.159 853.843 536.033 863L539.095 893.997L597.643 888.822L612.494 886.546L609.639 915.954C609.356 919.641 609.172 923.662 608.262 927.246L657.672 935.731C667.581 938.327 678.628 941.258 687.063 947.287C689.165 948.789 691.317 950.486 692.555 952.813C693.421 954.441 693.755 956.356 693.206 958.137C691.733 962.91 686.929 966.502 682.723 968.842C664.57 978.941 641.371 983.077 621.013 986.201C581.642 992.24 541.447 994.138 501.647 993.513L450.922 991.591C421.946 989.378 391.937 985.695 364 977.507C353.978 974.569 335.29 968.801 330.334 958.821C329.322 956.783 329.126 953.811 329.939 951.683C335.546 937.006 384.507 928.778 398.922 926.56L408.25 925.321C410.076 925.164 412.558 925.35 414.19 924.485L414.716 924.114L414.044 916.178L412.758 899.025C412.29 895.564 412.472 891.9 412.444 888.403L411.843 888.321C412.373 882.733 414.081 877.655 415.739 872.33L422.053 851.967L426.093 838.413C426.955 835.395 427.524 832.238 429.003 829.456Z"/>
	<path fill="#8BC6C3" transform="scale(0.488281 0.488281)" d="M497.164 894.581C506.329 895.391 516.835 895.608 525.971 894.533L526.781 902.515L528.327 916.07L528.564 918.248L493.96 918.45L494.205 916.499C495.934 914.098 495.834 906.571 496.132 903.506L497.164 894.581Z"/>
	<defs>
		<linearGradient id="gradient_3" gradientUnits="userSpaceOnUse" x1="462.9808" y1="903.42438" x2="436.49896" y2="960.03168">
			<stop offset="0" stop-color="#391714"/>
			<stop offset="1" stop-color="#513852"/>
		</linearGradient>
	</defs>
	<path fill="url(#gradient_3)" transform="scale(0.488281 0.488281)" d="M412.444 888.403L481.122 894.04L497.164 894.581L496.132 903.506C495.834 906.571 495.934 914.098 494.205 916.499L493.96 918.45C491.53 933.44 487.649 948.673 474.638 958.068C466.811 963.719 457.063 966.133 447.525 964.555C437.36 962.874 428.858 957.616 423.06 949.083C417.845 941.409 416.278 933.062 414.716 924.114L414.044 916.178L412.758 899.025C412.29 895.564 412.472 891.9 412.444 888.403Z"/>
	<path fill="#F5CFB5" transform="scale(0.488281 0.488281)" d="M412.444 888.403L481.122 894.04L497.164 894.581L496.132 903.506C495.834 906.571 495.934 914.098 494.205 916.499L414.044 916.178L412.758 899.025C412.29 895.564 412.472 891.9 412.444 888.403Z"/>
	<path fill="#F19375" transform="scale(0.488281 0.488281)" d="M412.444 888.403L481.122 894.04L497.164 894.581L496.132 903.506L412.758 899.025C412.29 895.564 412.472 891.9 412.444 888.403Z"/>
	<path fill="#3D222C" transform="scale(0.488281 0.488281)" d="M597.643 888.822L612.494 886.546L609.639 915.954C609.356 919.641 609.172 923.662 608.262 927.246C605.993 939.29 601.486 951.014 590.877 958.153C583.894 962.851 575.695 965.314 567.255 964.73C559.954 964.388 553.146 961.876 547.188 957.664C536.235 949.919 531.912 938.317 529.665 925.57L528.564 918.248L528.327 916.07L526.781 902.515L525.971 894.533L539.095 893.997L597.643 888.822Z"/>
	<path fill="#543645" transform="scale(0.488281 0.488281)" d="M529.665 925.57L563.43 925.182C566.76 925.192 571.903 924.663 575.094 925.561C576.073 925.836 577.674 927.318 578.413 927.998C580.655 930.06 582.883 933.261 582.905 936.439C582.92 938.5 581.671 940.821 580.741 942.598C577.94 947.947 574.449 952.756 569.954 956.82C568.377 958.247 566.603 959.428 564.836 960.604C565.699 961.948 566.613 963.261 567.255 964.73C559.954 964.388 553.146 961.876 547.188 957.664C536.235 949.919 531.912 938.317 529.665 925.57Z"/>
	<path fill="#F19375" transform="scale(0.488281 0.488281)" d="M597.643 888.822L612.494 886.546L609.639 915.954L593.183 916.134L528.327 916.07L526.781 902.515L525.971 894.533L539.095 893.997L597.643 888.822Z"/>
	<path fill="#F5CFB5" transform="scale(0.488281 0.488281)" d="M526.781 902.515L570.062 902.5C575.593 902.491 581.951 901.87 587.401 902.619C588.393 902.755 589.602 903.002 590.318 903.734C592.89 906.364 592.659 912.596 593.183 916.134L528.327 916.07L526.781 902.515Z"/>
	<path fill="#B29AD3" transform="scale(0.488281 0.488281)" d="M429.003 829.456L487.841 835.063L488.337 834.911C494.175 835.756 500.313 835.585 506.21 835.697C515.061 835.865 524.91 836.22 533.68 835.063L534.082 835.162C533.792 844.351 535.159 853.843 536.033 863L539.095 893.997L525.971 894.533C516.835 895.608 506.329 895.391 497.164 894.581L481.122 894.04L412.444 888.403L411.843 888.321C412.373 882.733 414.081 877.655 415.739 872.33L422.053 851.967L426.093 838.413C426.955 835.395 427.524 832.238 429.003 829.456Z"/>
	<path fill="#9A79BD" transform="scale(0.488281 0.488281)" d="M487.841 835.063L488.337 834.911C494.175 835.756 500.313 835.585 506.21 835.697C515.061 835.865 524.91 836.22 533.68 835.063L534.082 835.162C533.792 844.351 535.159 853.843 536.033 863L539.095 893.997L525.971 894.533C516.835 895.608 506.329 895.391 497.164 894.581L481.122 894.04L486.225 850.665C486.811 845.904 488.486 839.777 487.841 835.063Z"/>
	<path fill="#903B24" transform="scale(0.488281 0.488281)" d="M618.948 69.742C667.305 89.231 707.357 128.038 727.794 176.031C734.161 190.985 738.586 206.365 740.86 222.469C741.758 228.829 742.624 235.908 742.36 242.338C741.673 259.118 737.226 276.532 732.938 292.74C730.686 301.251 726.919 309.797 725.192 318.36L719.484 334.017C713.471 349.986 705.229 364.948 696.831 379.755L690.428 389.799L695.377 393.866C707.715 407.089 719.284 424.569 720.744 443.096C721.777 449.552 721.487 456.116 720.126 462.5L719.941 463.404C718.272 471.301 714.431 478.813 709.491 485.158C713.057 484.974 714.963 485.096 718.165 486.83C743.638 479.446 774.141 487.166 796.899 499.609C798.817 500.658 801.665 501.965 803.083 503.601L802.287 508.873C799.712 523.497 792.768 535.705 782.901 546.683C759.424 572.804 723.58 585.912 689.143 587.687C687.011 587.797 680.469 588.411 679.243 587.302C676.18 571.536 674.692 555.033 675.978 539C676.851 528.12 678.633 518.537 684.178 509C682.508 508.332 675.868 510.477 673.667 510.853C670.365 511.418 666.933 511.775 663.588 511.924C655.666 512.278 647.96 511.391 640.312 509.308C617.927 503.213 594.79 487.548 583.127 467.106L549.626 472.896C535.567 474.204 521.625 476.325 507.452 475.863C496.733 475.514 486.204 473.435 475.591 472.983L474.925 472.96C464.949 471.891 453.943 469.687 444.395 466.595C426.683 460.671 409.719 454.981 393.254 445.912C386.956 442.443 379.828 438.117 375.028 432.729C374.467 431.337 373.013 430.563 371.978 429.516L371.425 428.951C366.065 414.387 361.973 399.467 357.841 384.523L330.231 267.418L330.195 267.386C329.847 266.194 329.23 265.187 329.75 264.029C333.354 264.021 337.567 264.43 341.092 263.791L341.892 263.634C340.782 263.248 338.569 263.655 337.333 263.683L329.18 263.534C328.493 262.117 328.53 260.049 328.363 258.465L327.298 246.884C326.598 238.95 326.945 230.87 328.007 222.994L327.963 222.497C328.25 214.847 331.28 206.627 334.145 199.641C343.985 175.644 358.527 154.503 376.878 136.219C411.432 101.791 462.131 79.3905 511.177 79.5152C521.822 79.4047 531.883 80.4433 542.433 81.7008C548.482 82.7979 555.992 83.804 561.6 86.2593C607.674 97.8644 647.179 128.342 671.482 168.893C680.866 184.55 689.05 202.776 693.532 220.5C694.258 223.372 694.547 226.325 695.132 229.228C695.838 224.903 695.909 219.518 695.545 215.146L695.539 210.838C695.346 182.486 687.316 154.712 671.301 131.245C668.084 126.532 664.682 121.553 660.622 117.543C659.848 115.922 657.639 113.989 656.375 112.591C650.046 105.587 643.276 99.2971 636.013 93.2801C635.788 91.857 635.535 90.8526 634.688 89.6395L625.667 77.9402C623.33 75.1964 620.87 72.8223 618.948 69.742Z"/>
	<path fill="#EE5956" transform="scale(0.488281 0.488281)" d="M709.491 485.158C713.057 484.974 714.963 485.096 718.165 486.83C719.856 488.987 721.656 491.008 721.39 493.94C721.032 497.874 716.94 501.674 713.992 503.988C711.234 506.152 708.018 508.096 704.86 509.601C703.262 510.364 700.391 511.052 699.102 512.118L696.478 512.913C694.291 513.504 690.325 514.212 688.457 512.73C686.898 511.493 686.939 508.89 686.804 507.107C689.48 500.066 697.271 494.951 702.825 490.138L709.491 485.158Z"/>
	<path fill="#AB5034" transform="scale(0.488281 0.488281)" d="M542.433 81.7008C548.482 82.7979 555.992 83.804 561.6 86.2593L561.878 87.2433L578.146 94.7362C584.121 98.1051 589.833 103.274 594.867 107.908C613.987 125.506 631.473 147.936 638.543 173.359C639.288 176.035 640.98 181.402 639.19 183.861C638.6 184.672 637.745 185.288 636.75 185.462C627.235 187.12 612.282 176.191 604.977 170.699C582.141 153.533 563.975 131.095 551.135 105.672C547.408 98.2921 543.603 89.9467 542.433 81.7008Z"/>
	<path fill="#F6AC7D" transform="scale(0.488281 0.488281)" d="M445.311 235.136L467.739 223.254C501.379 203.32 530.991 176.653 541.824 137.826L543.398 131.701C550.255 164.859 574.136 194.051 602.105 212.447C610.171 217.752 618.508 223.049 627.275 227.106C641.373 233.629 656.834 237.689 672.046 240.642C675.076 241.23 690.811 243.026 692.028 243.88L690.677 260C690.566 261.207 690.684 263.99 690.209 265.028L684.75 266.124C674.237 268.555 662.792 265.324 652.14 264.595C647.869 256.704 639.964 249.916 632.403 245.294C630.013 243.833 627.345 242.759 625.039 241.195L624.334 240.705C624.198 240.345 624.18 239.914 623.927 239.624C622.271 237.724 617.802 235.896 615.5 234.443C605.267 227.984 594.296 221.769 584.979 214.018C564.78 197.214 549.77 173.81 544.399 148.06C542.437 155.741 540.119 163.257 536.75 170.454C527.911 189.337 511.82 208.01 495.661 221.008C488.087 227.101 479.377 232.376 471.012 237.345C467.391 239.496 463.573 241.305 459.601 242.708C455.362 238.551 451.272 236.027 445.311 235.136Z"/>
	<path fill="#AB5034" transform="scale(0.488281 0.488281)" d="M718.165 486.83C743.638 479.446 774.141 487.166 796.899 499.609C798.817 500.658 801.665 501.965 803.083 503.601L802.287 508.873L801.731 507.815C800.215 508.858 799.469 510.761 798.585 512.33L794.212 519.432C783.612 535.324 766.822 547.688 746.861 544.086C729.11 540.882 709.848 528.543 699.886 513.5L699.102 512.118C700.391 511.052 703.262 510.364 704.86 509.601C708.018 508.096 711.234 506.152 713.992 503.988C716.94 501.674 721.032 497.874 721.39 493.94C721.656 491.008 719.856 488.987 718.165 486.83Z"/>
	<path fill="#AB5034" transform="scale(0.488281 0.488281)" d="M679.521 405.311C689.755 412.496 700.267 419.723 708.435 429.323L714.81 437.5C715.97 439.149 717.965 443.263 719.75 443.995L720.744 443.096C721.777 449.552 721.487 456.116 720.126 462.5L719.941 463.404C718.272 471.301 714.431 478.813 709.491 485.158L702.825 490.138C700.384 490.338 698.026 491.398 695.639 491.936C687.597 493.748 679.25 493.673 671.405 490.977C659.374 486.844 648.234 477.511 641.227 466.966C638.254 462.492 636.06 457.401 633.727 452.57C644.921 443.328 656.288 433.009 665.949 422.177C670.776 416.765 674.982 410.939 679.521 405.311Z"/>
	<path fill="#AB5034" transform="scale(0.488281 0.488281)" d="M328.007 222.994L327.963 222.497C328.25 214.847 331.28 206.627 334.145 199.641C343.985 175.644 358.527 154.503 376.878 136.219C411.432 101.791 462.131 79.3905 511.177 79.5152C515.252 81.122 520.175 82.6673 522.085 87.0469C525.203 94.2002 518.556 107.915 515.634 114.551C498.493 153.472 467.736 182.917 428.047 198.22C420.308 201.204 412.034 203.558 403.75 204.308C401.089 204.549 397.847 204.754 395.35 203.692C394.014 203.124 392.885 201.852 392.444 200.47C391.85 198.609 392.37 196.271 392.822 194.425C394.421 187.9 397.454 181.852 400.834 176.082C408.896 162.319 419.599 149.925 430.75 138.596L450.341 119.308C443.068 122.187 436.759 126.436 430.384 130.901C418.497 139.226 407.724 148.558 397.719 159.069L380.767 178.522C370.761 190.974 361.473 204.596 349.636 215.398C346.645 218.129 343.576 221.076 339.938 222.936C336.433 224.728 333.726 224.823 330 223.613L328.007 222.994Z"/>
	<path fill="#F5CFB5" transform="scale(0.488281 0.488281)" d="M459.601 242.708C463.573 241.305 467.391 239.496 471.012 237.345C479.377 232.376 488.087 227.101 495.661 221.008C511.82 208.01 527.911 189.337 536.75 170.454C540.119 163.257 542.437 155.741 544.399 148.06C549.77 173.81 564.78 197.214 584.979 214.018C594.296 221.769 605.267 227.984 615.5 234.443C617.802 235.896 622.271 237.724 623.927 239.624C624.18 239.914 624.198 240.345 624.334 240.705L625.039 241.195C627.345 242.759 630.013 243.833 632.403 245.294C639.964 249.916 647.869 256.704 652.14 264.595C662.792 265.324 674.237 268.555 684.75 266.124L690.209 265.028C685.524 310.1 675.406 354.819 660.702 397.666C657.126 408.086 653.427 419.919 647.729 429.341C646.36 432.327 645.014 435.37 642.875 437.898C638.816 442.696 632.951 446.213 627.496 449.208C618.798 453.983 609.554 458.064 600.25 461.507L583.127 467.106L549.626 472.896C535.567 474.204 521.625 476.325 507.452 475.863C496.733 475.514 486.204 473.435 475.591 472.983L474.925 472.96C464.949 471.891 453.943 469.687 444.395 466.595C426.683 460.671 409.719 454.981 393.254 445.912C386.956 442.443 379.828 438.117 375.028 432.729C374.467 431.337 373.013 430.563 371.978 429.516L371.425 428.951C366.065 414.387 361.973 399.467 357.841 384.523L330.231 267.418L330.195 267.386C329.847 266.194 329.23 265.187 329.75 264.029C333.354 264.021 337.567 264.43 341.092 263.791L341.892 263.634C350.44 263.524 359.131 262.13 367.555 260.745C377.207 259.158 386.872 257.46 396.289 254.774C404.906 252.316 413.55 248.737 422.359 247.126C437 246.354 450.244 247.674 464.702 249.819C463.27 247.066 461.671 244.981 459.601 242.708Z"/>
	<path fill="#EE5956" transform="scale(0.488281 0.488281)" d="M555.619 401.25L555.91 401.226L556.106 401.554C545.245 411.748 532.47 420.197 517.181 421.525C499.496 423.061 485.167 417.084 471.836 405.906C470.218 404.6 468.918 403.142 467.553 401.586C477.04 407.969 487.319 413.006 498.673 414.931C519.207 418.412 538.726 413.172 555.619 401.25Z"/>
	<path fill="#F6AC7D" transform="scale(0.488281 0.488281)" d="M507.915 354.054C511.347 353.987 514.354 353.701 517.515 355.375C520.793 357.112 523.035 361.304 524.067 364.747C524.505 366.21 524.838 368.135 524.002 369.5C521.894 372.937 518.604 373.721 514.95 374.528C510.966 374.544 506.682 374.298 502.972 372.706C500.821 371.782 498.095 369.833 497.364 367.5C496.73 365.477 497.126 362.798 498.17 360.97C500.362 357.129 503.881 355.265 507.915 354.054Z"/>
	<path fill="#0A0A05" transform="scale(0.488281 0.488281)" d="M556.519 327.095C555.909 326.042 555.707 325.055 555.485 323.877L555.333 323.049L554.662 318.271C553.733 303.824 557.522 288.851 567.366 277.943C574.039 270.547 583.427 266.059 593.392 265.577C604.159 265.056 615.352 267.461 624.459 273.372C628.928 276.272 632.836 280.008 636.785 283.562C639.772 282.594 642.245 281.738 644.726 279.735C646.074 278.647 647.787 275.851 649.332 275.629C649.567 276.788 649.917 278.163 649.747 279.344C649.171 283.355 643.949 287.845 640.862 290.162C642.093 291.88 643.174 293.849 645.113 294.812C650.752 295.552 655.396 293.124 660.266 290.672C659.525 292.876 657.849 295.373 656.253 297.066C652.931 300.59 649.448 302.475 644.585 302.64L643.766 302.663C644.204 309.583 643.807 316.803 641.75 323.445L640.951 324.167C640.941 309.354 638.655 295.941 627.765 285.033C619.786 277.041 608.702 272.487 597.406 272.579C586.061 272.672 575.018 277.159 567.181 285.388C558.282 294.731 555.721 307.423 556.087 319.952L556.519 327.095Z"/>
	<path fill="#0A0A05" transform="scale(0.488281 0.488281)" d="M388.144 327.303L387.576 327.168C382.963 321.453 382.904 311.533 383.377 304.649C380.504 304.104 377.409 303.329 375.094 301.439C372.454 299.284 371.311 297.06 370.975 293.75L371.5 293.108C373.215 294.004 374.654 295.219 376.556 295.743C379.621 296.59 382.324 296.852 385.133 295.25C385.991 294.147 386.303 293.658 386.365 292.25L385.25 291.468C382.939 289.967 380.956 288.801 379.968 286.054C378.82 282.858 380.209 278.159 381.699 275.25L382.25 275.459L382.295 276.667C382.525 279.116 384.43 281.37 386.332 282.834C387.509 283.74 389.043 284.792 390.5 284.047C392.545 283.002 394.805 279.936 396.456 278.292C403.551 271.23 412.37 266.662 422.308 265.359C434.009 263.823 444.649 266.693 453.986 273.868C463.661 281.302 469.007 292.369 470.658 304.25C471.185 308.05 471.633 313.419 470.168 316.984C469.453 304.071 467.254 292.634 457.27 283.583C449.275 276.336 439.42 271.866 428.5 272.546C417.838 273.209 406.55 278.729 399.595 286.82C391.232 296.549 386.489 310.2 387.607 322.995L388.144 327.303Z"/>
	<path fill="#F6AC7D" transform="scale(0.488281 0.488281)" d="M422.359 247.126C437 246.354 450.244 247.674 464.702 249.819C464.806 250.77 465.403 253.04 464.723 253.701C461.329 257 440.551 256.532 435.012 256.733C418.861 257.317 404.321 261.464 388.749 265.204L360.832 270.497C354.951 271.32 348.547 272.334 342.61 271.776C340.333 271.562 337.738 271.261 335.658 270.25C333.942 269.417 332.136 267.572 330.231 267.418L330.195 267.386C329.847 266.194 329.23 265.187 329.75 264.029C333.354 264.021 337.567 264.43 341.092 263.791L341.892 263.634C350.44 263.524 359.131 262.13 367.555 260.745C377.207 259.158 386.872 257.46 396.289 254.774C404.906 252.316 413.55 248.737 422.359 247.126Z"/>
	<path fill="#903B24" transform="scale(0.488281 0.488281)" d="M563.127 249.918L563.246 249.337C565.074 244.134 571.336 239.035 576.215 237.082C591.884 230.807 609.379 234.228 624.334 240.705L625.039 241.195C627.345 242.759 630.013 243.833 632.403 245.294C639.964 249.916 647.869 256.704 652.14 264.595C649.85 263.974 647.706 262.761 645.576 261.728C641.625 262.443 635.027 260.325 630.979 259.644L609.713 256.597C596.397 255.206 582.713 256.131 569.5 254.074C568.576 253.93 567.623 253.831 566.75 253.47C564.887 252.699 563.924 251.724 563.127 249.918Z"/>
	<path fill="#F6AC7D" transform="scale(0.488281 0.488281)" d="M563.127 249.918L563.555 249.893C570.513 249.427 577.399 247.718 584.374 247.102C605.372 245.247 628.071 249.344 645.576 261.728C641.625 262.443 635.027 260.325 630.979 259.644L609.713 256.597C596.397 255.206 582.713 256.131 569.5 254.074C568.576 253.93 567.623 253.831 566.75 253.47C564.887 252.699 563.924 251.724 563.127 249.918Z"/>
	<path fill="#EE5956" transform="scale(0.488281 0.488281)" d="M612.35 364.699C619.677 365.142 626.625 367.084 632.56 371.561C637.666 375.412 640.68 380.521 641.466 386.906C642.214 392.976 640.611 398.981 636.844 403.815C631.068 411.226 623.385 413.933 614.377 415.013C606.805 414.377 600.937 413.207 594.811 408.47C588.922 403.916 585.477 398.272 584.736 390.851C584.196 385.442 586.425 379.459 589.859 375.337C595.653 368.381 603.537 365.463 612.35 364.699Z"/>
	<path fill="#EE5956" transform="scale(0.488281 0.488281)" d="M408.409 365.204C415.63 364.685 422.456 366.506 428.408 370.63C433.601 374.228 437.395 379.785 438.422 386.066C439.496 392.636 437.875 398.628 433.9 403.909C428.574 410.983 420.098 413.881 411.67 414.937C404.339 415.233 397.434 413.597 391.497 409.184C386.334 405.346 382.525 399.32 381.706 392.903C380.898 386.571 382.692 380.34 386.75 375.414C392.296 368.681 399.987 366.009 408.409 365.204Z"/>
	<path fill="#F6AC7D" transform="scale(0.488281 0.488281)" d="M375.028 432.729C379.379 433.781 383.489 436.219 387.582 438.038L406.781 446.068C450.834 463.45 501.959 466.087 548.521 460.15C567.525 457.727 586.13 454.13 604.377 448.193C619.556 443.253 633.169 435.65 647.729 429.341C646.36 432.327 645.014 435.37 642.875 437.898C638.816 442.696 632.951 446.213 627.496 449.208C618.798 453.983 609.554 458.064 600.25 461.507L583.127 467.106L549.626 472.896C535.567 474.204 521.625 476.325 507.452 475.863C496.733 475.514 486.204 473.435 475.591 472.983L474.925 472.96C464.949 471.891 453.943 469.687 444.395 466.595C426.683 460.671 409.719 454.981 393.254 445.912C386.956 442.443 379.828 438.117 375.028 432.729Z"/>
	<path fill="#FEFEFD" transform="scale(0.488281 0.488281)" d="M388.144 327.303L387.607 322.995C386.489 310.2 391.232 296.549 399.595 286.82C406.55 278.729 417.838 273.209 428.5 272.546C439.42 271.866 449.275 276.336 457.27 283.583C467.254 292.634 469.453 304.071 470.168 316.984L470.033 317.514C469.114 321.256 469.019 325.194 468.204 329.016C465.787 340.347 458.655 350.73 448.75 356.812C445.153 359.02 441.395 360.215 437.353 361.291C428.285 363.706 416.141 361.104 408.222 356.25C399.603 350.966 391.173 340.439 388.884 330.446C388.638 329.373 388.504 328.353 388.144 327.303Z"/>
	<path fill="#45812F" transform="scale(0.488281 0.488281)" d="M427.636 287.642C435.899 287.143 443.344 289.238 449.686 294.661C457.083 300.987 461.005 310.764 461.737 320.303C462.514 330.431 459.128 340.101 452.439 347.684C446.534 354.379 439.39 357.212 430.626 357.775C424.534 358.003 418.302 356.339 413.242 352.931C405.216 347.526 398.691 336.166 396.987 326.703C395.467 318.268 397.968 308.019 402.875 301.025C408.573 292.905 418.195 289.231 427.636 287.642Z"/>
	<path fill="#FEFEFD" transform="scale(0.488281 0.488281)" d="M406.585 317.083C403.497 314.272 401.699 311.731 401.537 307.424C401.418 304.265 403.372 301.345 405.582 299.25C408.003 296.954 410.912 295.739 414.25 295.967C418.468 296.256 421.195 298.856 423.771 301.956C424.897 305.569 425.049 309.272 423.299 312.717C421.842 315.587 419.157 317.801 416.07 318.711C413.017 319.61 409.972 319.032 407.246 317.477L406.585 317.083Z"/>
	<path fill="#0A0A05" transform="scale(0.488281 0.488281)" d="M423.771 301.956C430.285 300.48 436.949 301.578 442.552 305.206C447.403 308.349 451.463 314.007 452.46 319.75C453.484 325.653 451.929 331.991 448.322 336.783C444.831 341.423 439.53 344.358 433.75 344.892C427.1 345.507 420.683 343.359 415.644 339.026C410.361 334.484 407.214 328.185 406.598 321.25L406.585 317.083L407.246 317.477C409.972 319.032 413.017 319.61 416.07 318.711C419.157 317.801 421.842 315.587 423.299 312.717C425.049 309.272 424.897 305.569 423.771 301.956Z"/>
	<path fill="#FEFEFD" transform="scale(0.488281 0.488281)" d="M556.519 327.095L556.087 319.952C555.721 307.423 558.282 294.731 567.181 285.388C575.018 277.159 586.061 272.672 597.406 272.579C608.702 272.487 619.786 277.041 627.765 285.033C638.655 295.941 640.941 309.354 640.951 324.167L640.689 324.709C640.368 325.478 640.33 326.075 640.223 326.88C639.729 330.587 638.274 334.753 636.649 338.117L636.321 338.806C631.374 349.006 621.074 356.956 610.5 360.589C600.499 364.024 589.104 362.48 579.709 357.868C569.943 353.074 561.745 344.129 558.311 333.716C557.65 331.712 556.943 329.524 557.003 327.404L556.519 327.095Z"/>
	<path fill="#45812F" transform="scale(0.488281 0.488281)" d="M594.921 287.658C602.139 286.767 609.547 288.624 615.636 292.551C623.099 297.363 628.699 305.104 630.469 313.856L630.642 314.75L630.829 315.65C632.687 324.96 630.402 334.806 625.149 342.645C619.645 350.857 611.553 355.985 601.906 357.864C594.655 358.406 588.032 356.899 581.987 352.788C574.069 347.403 567.36 336.774 565.732 327.305C564.148 318.091 566.501 308.765 571.94 301.203C577.776 293.088 585.187 289.27 594.921 287.658Z"/>
	<path fill="#FEFEFD" transform="scale(0.488281 0.488281)" d="M604.966 301.653C607.985 299.553 610.391 297.807 614.31 298.456C616.74 298.858 619.036 300.779 620.392 302.75C621.904 304.948 622.992 307.939 622.25 310.602C621.809 312.185 620.859 313.634 619.962 314.992C618.313 316.218 616.755 317.181 614.75 317.72C612.167 318.414 609.27 317.804 607 316.439C604.955 315.21 603.123 312.864 602.656 310.5C601.93 306.828 602.942 304.632 604.966 301.653Z"/>
	<path fill="#0A0A05" transform="scale(0.488281 0.488281)" d="M619.962 314.992C620.813 317.062 620.967 318.976 620.95 321.185C620.899 327.888 617.406 334.608 612.635 339.183C608.516 343.133 603.133 345.065 597.464 344.831C591.222 344.574 585.637 342.237 581.42 337.545C577.25 332.907 575.043 327.498 575.486 321.25C575.895 315.468 578.929 310 583.363 306.352C589.765 301.083 597.14 300.765 604.966 301.653C602.942 304.632 601.93 306.828 602.656 310.5C603.123 312.864 604.955 315.21 607 316.439C609.27 317.804 612.167 318.414 614.75 317.72C616.755 317.181 618.313 316.218 619.962 314.992Z"/>
</svg>
