<?xml version="1.0" encoding="utf-8" ?>
<svg xmlns="http://www.w3.org/2000/svg" xmlns:xlink="http://www.w3.org/1999/xlink" width="500" height="500">
	<path fill="#8D503A" transform="scale(0.488281 0.488281)" d="M-0 -0L1024 0L1024 1024L-0 1024L0 -0Z"/>
	<path fill="#FA7D21" transform="scale(0.488281 0.488281)" d="M713.016 143.84L744.915 143.782L744.916 167.079C744.917 170.908 744.596 175.052 744.999 178.831C734.422 179.204 723.403 178.063 712.919 179.251L713.016 143.84Z"/>
	<path fill="#FA7D21" transform="scale(0.488281 0.488281)" d="M315.473 545.966L315.524 583.579L315.387 586.087L279.023 586.202L279.003 583.466L279.003 546.015L315.473 545.966Z"/>
	<path fill="#A83F15" transform="scale(0.488281 0.488281)" d="M279.003 583.466L315.524 583.579L315.387 586.087L279.023 586.202L279.003 583.466Z"/>
	<path fill="#FA7D21" transform="scale(0.488281 0.488281)" d="M315.407 707.482L315.539 745.081L315.442 747.857L291.721 747.76C287.537 747.769 283.215 747.542 279.062 747.969L279.069 744.955L279.052 707.587L315.407 707.482Z"/>
	<path fill="#A83F15" transform="scale(0.488281 0.488281)" d="M279.069 744.955L315.539 745.081L315.442 747.857L291.721 747.76C287.537 747.769 283.215 747.542 279.062 747.969L279.069 744.955Z"/>
	<path fill="#FA7D21" transform="scale(0.488281 0.488281)" d="M708.042 546.04L744.991 546.029L745.026 571.061C745.033 575.285 744.72 579.812 745.162 583.996L745.025 586.482L708.102 586.458L707.848 584.072C708.456 580.381 707.971 575.875 707.97 572.105L708.042 546.04Z"/>
	<path fill="#A83F15" transform="scale(0.488281 0.488281)" d="M707.848 584.072L745.162 583.996L745.025 586.482L708.102 586.458L707.848 584.072Z"/>
	<path fill="#FA7D21" transform="scale(0.488281 0.488281)" d="M315.537 504.444L315.588 543.088L315.473 545.966L279.003 546.015L279.035 542.959L279.084 504.642L315.537 504.444Z"/>
	<path fill="#A83F15" transform="scale(0.488281 0.488281)" d="M279.035 542.959L315.588 543.088L315.473 545.966L279.003 546.015L279.035 542.959Z"/>
	<path fill="#FA7D21" transform="scale(0.488281 0.488281)" d="M708.011 504.985L744.936 504.962L745.04 530.37C745.046 534.651 744.666 539.322 745.117 543.563L744.991 546.029L708.042 546.04L707.882 543.639L708.011 504.985Z"/>
	<path fill="#A83F15" transform="scale(0.488281 0.488281)" d="M707.882 543.639L745.117 543.563L744.991 546.029L708.042 546.04L707.882 543.639Z"/>
	<path fill="#FA7D21" transform="scale(0.488281 0.488281)" d="M655.819 143.995L710.374 143.689L713.016 143.84L712.919 179.251C711.765 179.593 711.428 179.483 710.283 179.245L680.043 179.037C676.653 173.146 673.353 167.108 669.512 161.5C665.328 155.392 660.511 149.714 655.819 143.995Z"/>
	<path fill="#A83F15" transform="scale(0.488281 0.488281)" d="M710.374 143.689L713.016 143.84L712.919 179.251C711.765 179.593 711.428 179.483 710.283 179.245L710.374 143.689Z"/>
	<path fill="#FA7D21" transform="scale(0.488281 0.488281)" d="M712.919 179.251C723.403 178.063 734.422 179.204 744.999 178.831L744.967 180.975L745.033 218.637L711.296 218.533C708.007 218.5 700.077 217.526 697.37 219.073C697.68 217.884 695.807 213.802 695.341 212.518C691.398 201.658 686.591 191.377 681.305 181.105L680.043 179.037L710.283 179.245C711.428 179.483 711.765 179.593 712.919 179.251Z"/>
	<path fill="#973314" transform="scale(0.488281 0.488281)" d="M712.919 179.251C723.403 178.063 734.422 179.204 744.999 178.831L744.967 180.975L681.305 181.105L680.043 179.037L710.283 179.245C711.428 179.483 711.765 179.593 712.919 179.251Z"/>
	<path fill="#FA7D21" transform="scale(0.488281 0.488281)" d="M308.538 143.354L311.439 143.422L368.758 143.466C358.899 154.786 350.702 166.289 343.006 179.18L341.472 181.626L279.483 182.025L279.492 179.156L279.55 143.466L308.538 143.354Z"/>
	<path fill="#A83F15" transform="scale(0.488281 0.488281)" d="M308.538 143.354L311.439 143.422L311.461 179.088L332.474 179.043C335.873 179.038 339.658 178.67 343.006 179.18L341.472 181.626L279.483 182.025L279.492 179.156L308.518 179.194L308.538 143.354Z"/>
	<path fill="#FA7D21" transform="scale(0.488281 0.488281)" d="M279.492 179.156L279.55 143.466L308.538 143.354L308.518 179.194L279.492 179.156Z"/>
	<path fill="#FA7D21" transform="scale(0.488281 0.488281)" d="M315.442 747.857L315.509 826.982L315.371 829.425L279.026 829.52L279.003 826.605L279.027 789.049L279.019 785.924L279.062 747.969C283.215 747.542 287.537 747.769 291.721 747.76L315.442 747.857Z"/>
	<path fill="#A83F15" transform="scale(0.488281 0.488281)" d="M279.003 826.605L304.227 826.765C307.402 826.756 312.549 826.065 315.509 826.982L315.371 829.425L279.026 829.52L279.003 826.605Z"/>
	<path fill="#A83F15" transform="scale(0.488281 0.488281)" d="M279.019 785.924L305.472 786.04C307.766 786.038 313.197 785.399 315.031 786.5L315.072 788.5C313.207 789.661 308.316 788.992 306.033 788.985L279.027 789.049L279.019 785.924Z"/>
	<path fill="#FA7D21" transform="scale(0.488281 0.488281)" d="M279.026 829.52L315.371 829.425L315.381 868.318L314.988 909.416L315.074 913.022L279.923 912.982C278.899 911.906 279.177 910.828 279.096 909.388L279.029 870.811L278.986 867.847L279.026 829.52Z"/>
	<path fill="#A83F15" transform="scale(0.488281 0.488281)" d="M278.986 867.847C284.069 867.856 312.799 866.979 315.217 868.408L314.891 870.459C311.675 871.192 307.66 870.72 304.308 870.726L279.029 870.811L278.986 867.847Z"/>
	<path fill="#A83F15" transform="scale(0.488281 0.488281)" d="M279.096 909.388L314.988 909.416L315.074 913.022L279.923 912.982C278.899 911.906 279.177 910.828 279.096 909.388Z"/>
	<path fill="#FA7D21" transform="scale(0.488281 0.488281)" d="M697.37 219.073C700.077 217.526 708.007 218.5 711.296 218.533L745.033 218.637L744.953 221.097L744.852 251.035C744.857 252.772 744.377 257.404 745.036 258.799L744.927 261.146L745.007 299.122L707.749 299.094L706.02 261.457L705.638 259.516C704.697 246.518 701.408 233.617 698.287 221.006L697.37 219.073Z"/>
	<path fill="#A83F15" transform="scale(0.488281 0.488281)" d="M697.37 219.073C700.077 217.526 708.007 218.5 711.296 218.533L745.033 218.637L744.953 221.097L713.017 221.015L713.467 259.263C716.971 258.574 720.779 258.877 724.343 258.885L745.036 258.799L744.927 261.146L737.584 261.092L706.02 261.457L705.638 259.516C707.032 258.777 709.153 258.896 710.75 258.656C711.755 255.275 711.161 250.387 711.165 246.826L711.037 221.012L698.287 221.006L697.37 219.073Z"/>
	<path fill="#973314" transform="scale(0.488281 0.488281)" d="M713.467 259.263C716.971 258.574 720.779 258.877 724.343 258.885L745.036 258.799L744.927 261.146L737.584 261.092L707 260.255L707.189 259.717C708.773 259.717 711.751 260.164 713.118 259.499L713.467 259.263Z"/>
	<path fill="#FA7D21" transform="scale(0.488281 0.488281)" d="M698.287 221.006L711.037 221.012L711.165 246.826C711.161 250.387 711.755 255.275 710.75 258.656C709.153 258.896 707.032 258.777 705.638 259.516C704.697 246.518 701.408 233.617 698.287 221.006Z"/>
	<path fill="#FA7D21" transform="scale(0.488281 0.488281)" d="M737.584 261.092L744.927 261.146L745.007 299.122L707.749 299.094L706.02 261.457L737.584 261.092Z"/>
	<path fill="#FA7D21" transform="scale(0.488281 0.488281)" d="M315.387 586.087L315.466 671.98L315.494 693.961C315.499 697.564 315.185 701.482 315.57 705.053L315.407 707.482L279.052 707.587L279.003 704.942L279.025 667.021L279 664.39L278.981 627.036L278.972 624.318L279.023 586.202L315.387 586.087Z"/>
	<path fill="#A83F15" transform="scale(0.488281 0.488281)" d="M279 664.39C283.837 664.453 313.305 663.846 315.027 665L314.988 666.75C311.513 667.444 307.432 667.011 303.886 667.002L279.025 667.021L279 664.39Z"/>
	<path fill="#A83F15" transform="scale(0.488281 0.488281)" d="M279.003 704.942L315.57 705.053L315.407 707.482L279.052 707.587L279.003 704.942Z"/>
	<path fill="#A83F15" transform="scale(0.488281 0.488281)" d="M278.972 624.318L305.911 624.448C308.09 624.445 313.39 623.824 315.045 625L314.978 626.75C311.474 627.512 307.222 627.048 303.592 627.048L278.981 627.036L278.972 624.318Z"/>
	<path fill="#653215" transform="scale(0.488281 0.488281)" d="M785.486 946.809L835.646 976.048L186.974 976.546L208.031 967.095C213.963 964.355 237.213 952.189 242.012 952.686C244.693 953.628 248.843 953.156 251.703 953.18L275.25 953.294L365.289 953.34L628.215 953.283L785.544 953.026L785.486 946.809Z"/>
	<path fill="#FDE09A" transform="scale(0.488281 0.488281)" d="M368.758 143.466C379.185 132.816 389.602 122.926 401.697 114.18C432.43 91.9553 471.939 79.2596 509.781 78.8931C558.773 78.4187 610.412 98.7472 645.458 133.25L655.819 143.995C660.511 149.714 665.328 155.392 669.512 161.5C673.353 167.108 676.653 173.146 680.043 179.037L681.305 181.105C686.591 191.377 691.398 201.658 695.341 212.518C695.807 213.802 697.68 217.884 697.37 219.073L698.287 221.006C701.408 233.617 704.697 246.518 705.638 259.516L706.02 261.457L707.749 299.094L745.007 299.122L744.919 301.819L744.885 338.974L744.92 341.6L744.996 380.307L744.98 383.043L745.074 421.077L744.989 423.596L745.116 462.01L744.999 464.478L745.146 502.294L744.936 504.962L708.011 504.985L707.882 543.639L708.042 546.04L707.97 572.105C707.971 575.875 708.456 580.381 707.848 584.072L708.102 586.458L745.025 586.482L745.129 625.141L744.987 627.466L745.099 665.505L744.991 667.885L744.992 705.482L744.984 707.939L744.911 734.464C744.919 737.438 745.632 743.035 744.504 745.644L745.182 747.949L745.093 785.87L745.065 788.237L745.155 825.84L745.056 828.463L745.051 867.472L745.023 870.007L745.046 897.374C745.044 900.379 745.68 905.5 744.582 908.169L744.702 909.988L745.194 913.093L707.565 913.02L678.899 913.108L679.393 282.542C679.448 268.236 676.936 254.235 673.08 240.5C664.415 209.639 649.195 183.154 626.574 160.47C596.33 130.142 554.954 111.991 511.969 111.955C468.449 111.919 424.921 130.845 394.302 161.664C368.179 187.956 351.889 222.654 345.422 258.915C343.247 271.11 343.4 283.134 343.415 295.463L343.411 330.641L343.405 454.275L343.717 913.039L315.074 913.022L314.988 909.416L315.381 868.318L315.371 829.425L315.509 826.982L315.442 747.857L315.539 745.081L315.407 707.482L315.57 705.053C315.185 701.482 315.499 697.564 315.494 693.961L315.466 671.98L315.387 586.087L315.524 583.579L315.473 545.966L315.588 543.088L315.537 504.444L279.084 504.642L279.313 443.365L279.325 431.262C278.49 424.502 278.992 417.147 278.982 410.312C278.968 400.141 278.602 389.822 279.308 379.679C279.736 375.769 279.409 371.391 279.431 367.424L279.395 341.639L279.404 338.949L279.373 301.506L279.349 298.962L279.426 261.657L279.35 258.988C279.846 254.933 279.473 250.393 279.475 246.283L279.475 220.238L279.304 218.023C280.003 215.421 279.515 211.19 279.515 208.45L279.483 182.025L341.472 181.626L343.006 179.18C350.702 166.289 358.899 154.786 368.758 143.466Z"/>
	<path fill="#FA7D21" transform="scale(0.488281 0.488281)" d="M308.413 220.044L324.673 220.126L324.629 220.524C320.978 232.716 317.134 246.061 316.528 258.825L311.596 258.982L308.292 259.053L308.413 220.044Z"/>
	<path fill="#A83F15" transform="scale(0.488281 0.488281)" d="M308.413 220.044L324.673 220.126L324.629 220.524L311.528 220.486L311.489 246.354C311.485 250.44 311.109 254.949 311.596 258.982L308.292 259.053L308.413 220.044Z"/>
	<path fill="#FA7D21" transform="scale(0.488281 0.488281)" d="M308.413 220.044L308.292 259.053L279.35 258.988C279.846 254.933 279.473 250.393 279.475 246.283L279.475 220.238L308.413 220.044Z"/>
	<path fill="#FA7D21" transform="scale(0.488281 0.488281)" d="M707.845 707.976L744.984 707.939L744.911 734.464C744.919 737.438 745.632 743.035 744.504 745.644L707.92 745.879L707.845 707.976Z"/>
	<path fill="#FA7D21" transform="scale(0.488281 0.488281)" d="M707.885 667.922L744.991 667.885L744.992 705.482L744.984 707.939L707.845 707.976L707.791 705.503L707.885 667.922Z"/>
	<path fill="#A83F15" transform="scale(0.488281 0.488281)" d="M744.992 705.482L744.984 707.939L707.845 707.976L707.791 705.503L744.992 705.482Z"/>
	<path fill="#FA7D21" transform="scale(0.488281 0.488281)" d="M708.092 464.435L744.999 464.478L745.146 502.294L744.936 504.962L708.011 504.985L707.912 502.394L708.092 464.435Z"/>
	<path fill="#A83F15" transform="scale(0.488281 0.488281)" d="M745.146 502.294L744.936 504.962L708.011 504.985L707.912 502.394L745.146 502.294Z"/>
	<path fill="#FA7D21" transform="scale(0.488281 0.488281)" d="M707.989 627.493L744.987 627.466L745.099 665.505L744.991 667.885L707.885 667.922L707.851 665.533L707.989 627.493Z"/>
	<path fill="#A83F15" transform="scale(0.488281 0.488281)" d="M707.851 665.533L745.099 665.505L744.991 667.885L707.885 667.922L707.851 665.533Z"/>
	<path fill="#FA7D21" transform="scale(0.488281 0.488281)" d="M707.974 382.991L744.98 383.043L745.074 421.077L744.989 423.596L707.976 423.885L707.819 421.071C708.255 417.158 707.834 412.728 707.826 408.768L707.974 382.991Z"/>
	<path fill="#A83F15" transform="scale(0.488281 0.488281)" d="M707.819 421.071L745.074 421.077L744.989 423.596L707.976 423.885L707.819 421.071Z"/>
	<path fill="#FA7D21" transform="scale(0.488281 0.488281)" d="M707.976 423.885L744.989 423.596L745.116 462.01L744.999 464.478L708.092 464.435L707.806 462.075C708.464 458.379 707.921 453.696 707.91 449.904L707.976 423.885Z"/>
	<path fill="#A83F15" transform="scale(0.488281 0.488281)" d="M707.806 462.075L745.116 462.01L744.999 464.478L708.092 464.435L707.806 462.075Z"/>
	<path fill="#FA7D21" transform="scale(0.488281 0.488281)" d="M708.102 586.458L745.025 586.482L745.129 625.141L744.987 627.466L707.989 627.493L707.868 625.297L708.102 586.458Z"/>
	<path fill="#A83F15" transform="scale(0.488281 0.488281)" d="M707.868 625.297L745.129 625.141L744.987 627.466L707.989 627.493L707.868 625.297Z"/>
	<path fill="#FA7D21" transform="scale(0.488281 0.488281)" d="M708.037 341.899L744.92 341.6L744.996 380.307L744.98 383.043L707.974 382.991L707.936 380.193L708.037 341.899Z"/>
	<path fill="#A83F15" transform="scale(0.488281 0.488281)" d="M744.996 380.307L744.98 383.043L707.974 382.991L707.936 380.193L744.996 380.307Z"/>
	<path fill="#FA7D21" transform="scale(0.488281 0.488281)" d="M707.749 299.094L745.007 299.122L744.919 301.819L744.885 338.974L744.92 341.6L708.037 341.899L707.995 339.264L707.962 301.108L707.749 299.094Z"/>
	<path fill="#A83F15" transform="scale(0.488281 0.488281)" d="M707.749 299.094L745.007 299.122L744.919 301.819L712.503 301.904L712.515 339.047L744.885 338.974L744.92 341.6L708.037 341.899L707.995 339.264L707.962 301.108L707.749 299.094Z"/>
	<path fill="#FA7D21" transform="scale(0.488281 0.488281)" d="M707.962 301.108L710.355 302.517L710.54 327.407C710.559 331.045 711.044 335.295 710.397 338.856L707.995 339.264L707.962 301.108Z"/>
	<path fill="#FA7D21" transform="scale(0.488281 0.488281)" d="M341.472 181.626L325.084 218.931L324.673 220.126L308.413 220.044L279.475 220.238L279.304 218.023C280.003 215.421 279.515 211.19 279.515 208.45L279.483 182.025L341.472 181.626Z"/>
	<path fill="#973314" transform="scale(0.488281 0.488281)" d="M279.304 218.023L312.712 217.917L320.994 217.822C321.787 217.813 323.284 217.576 324 217.784C324.343 217.884 324.583 218.199 324.874 218.407L325.084 218.931L324.673 220.126L308.413 220.044L279.475 220.238L279.304 218.023Z"/>
	<path fill="#FA7D21" transform="scale(0.488281 0.488281)" d="M707.92 745.879L744.504 745.644L745.182 747.949L745.093 785.87L745.065 788.237L745.155 825.84L745.056 828.463L708.989 828.454C707.546 831.057 708.285 835.848 708.293 838.877C708.296 839.851 708.533 841.077 707.996 841.896C707.56 840.185 707.933 837.457 707.932 835.619L707.974 818.795L708.054 748.927L707.751 748.027L707.92 745.879Z"/>
	<path fill="#973314" transform="scale(0.488281 0.488281)" d="M708.054 748.927L708.212 749.677C709.483 756.039 708.878 763.053 708.859 769.531C708.843 774.933 709.186 780.573 708.613 785.926L745.093 785.87L745.065 788.237L709.074 788.412L708.998 826.01L745.155 825.84L745.056 828.463L708.989 828.454C707.546 831.057 708.285 835.848 708.293 838.877C708.296 839.851 708.533 841.077 707.996 841.896C707.56 840.185 707.933 837.457 707.932 835.619L707.974 818.795L708.054 748.927Z"/>
	<path fill="#FA7D21" transform="scale(0.488281 0.488281)" d="M707.92 745.879L744.504 745.644L745.182 747.949L745.093 785.87L708.613 785.926C709.186 780.573 708.843 774.933 708.859 769.531C708.878 763.053 709.483 756.039 708.212 749.677L708.054 748.927L707.751 748.027L707.92 745.879Z"/>
	<path fill="#973314" transform="scale(0.488281 0.488281)" d="M707.92 745.879L744.504 745.644L745.182 747.949L707.751 748.027L707.92 745.879Z"/>
	<path fill="#FA7D21" transform="scale(0.488281 0.488281)" d="M707.996 841.896C708.533 841.077 708.296 839.851 708.293 838.877C708.285 835.848 707.546 831.057 708.989 828.454L745.056 828.463L745.051 867.472L745.023 870.007L745.046 897.374C745.044 900.379 745.68 905.5 744.582 908.169L744.702 909.988L745.194 913.093L707.565 913.02L707.58 907.612L707.996 841.896Z"/>
	<path fill="#A83F15" transform="scale(0.488281 0.488281)" d="M707.996 841.896C708.533 841.077 708.296 839.851 708.293 838.877C708.285 835.848 707.546 831.057 708.989 828.454L708.543 867.508L745.051 867.472L745.023 870.007L708.488 869.997L708.455 908.402L744.582 908.169L744.702 909.988L745.194 913.093L707.565 913.02L707.58 907.612L707.996 841.896Z"/>
	<path fill="#FA7D21" transform="scale(0.488281 0.488281)" d="M707.58 907.612L707.927 909.75C708.735 910.108 709.058 909.99 709.942 909.937L744.702 909.988L745.194 913.093L707.565 913.02L707.58 907.612Z"/>
	<path fill="#FA7D21" transform="scale(0.488281 0.488281)" d="M708.989 828.454L745.056 828.463L745.051 867.472L708.543 867.508L708.989 828.454Z"/>
	<path fill="#FA7D21" transform="scale(0.488281 0.488281)" d="M279.35 258.988L308.292 259.053L311.596 258.982L316.528 258.825L316.215 261.541L315.601 501.687L315.537 504.444L279.084 504.642L279.313 443.365L279.325 431.262C278.49 424.502 278.992 417.147 278.982 410.312C278.968 400.141 278.602 389.822 279.308 379.679C279.736 375.769 279.409 371.391 279.431 367.424L279.395 341.639L279.404 338.949L279.373 301.506L279.349 298.962L279.426 261.657L279.35 258.988Z"/>
	<path fill="#A83F15" transform="scale(0.488281 0.488281)" d="M279.349 298.962L302.192 298.919C306.324 298.906 310.821 298.522 314.907 299.107L315.16 300.75L314.5 301.493L279.373 301.506L279.349 298.962Z"/>
	<path fill="#A83F15" transform="scale(0.488281 0.488281)" d="M279.404 338.949C284.79 338.979 313.086 338.163 315.097 339.5L315.036 341.25C312.747 342.449 306.536 341.652 303.803 341.628L279.395 341.639L279.404 338.949Z"/>
	<path fill="#A83F15" transform="scale(0.488281 0.488281)" d="M279.35 258.988L308.292 259.053L311.596 258.982L316.528 258.825L316.215 261.541L279.426 261.657L279.35 258.988Z"/>
	<path fill="#A83F15" transform="scale(0.488281 0.488281)" d="M279.308 379.679L314.75 379.688C315.029 380.828 315.115 381.38 314.75 382.504L279.265 382.514L279.319 420.872L314.5 420.886C315.229 422.082 314.968 422.107 314.75 423.419L279.311 423.519L279.325 431.262C278.49 424.502 278.992 417.147 278.982 410.312C278.968 400.141 278.602 389.822 279.308 379.679Z"/>
	<path fill="#A83F15" transform="scale(0.488281 0.488281)" d="M279.084 504.642L279.313 443.365L279.31 461.953L314.75 461.97C315.252 463.091 315.171 463.18 314.9 464.394C310.952 464.854 306.761 464.567 302.785 464.564L279.314 464.628L279.407 501.81L315.601 501.687L315.537 504.444L279.084 504.642Z"/>
	<path fill="#022020" transform="scale(0.488281 0.488281)" d="M315.074 913.022L343.717 913.039L343.405 454.275L343.411 330.641L343.415 295.463C343.4 283.134 343.247 271.11 345.422 258.915C351.889 222.654 368.179 187.956 394.302 161.664C424.921 130.845 468.449 111.919 511.969 111.955C554.954 111.991 596.33 130.142 626.574 160.47C649.195 183.154 664.415 209.639 673.08 240.5C676.936 254.235 679.448 268.236 679.393 282.542L678.899 913.108L707.565 913.02L745.194 913.093L785.383 913.275L785.486 946.809L785.544 953.026L628.215 953.283L365.289 953.34L275.25 953.294L251.703 953.18C248.843 953.156 244.693 953.628 242.012 952.686L241.743 923.525C241.728 921.285 241.108 916.395 241.945 914.5C242.119 914.105 242.482 913.824 242.75 913.486C245.679 912.397 250.71 913.029 253.959 913.02L279.923 912.982L315.074 913.022Z"/>
	<path fill="#076C5E" transform="scale(0.488281 0.488281)" d="M378.095 679.816L377.487 425.518L377.479 365.168L377.482 351.013C377.483 349.326 377.161 346.821 377.519 345.25C377.633 344.752 377.776 344.616 378.042 344.25L380.906 344.304L378.552 679.833L380.518 913.025C378.904 913.002 377.898 913.322 376.647 912.25L378.095 679.816Z"/>
	<path fill="#076C5E" transform="scale(0.488281 0.488281)" d="M620.002 344.483L645.89 344.487L646.032 913.007L619.947 912.985L620.002 344.483Z"/>
	<path fill="#076C5E" transform="scale(0.488281 0.488281)" d="M500.275 116.217L509.55 116.067C522.889 116.05 536.163 117.246 549.133 120.503C577.284 127.573 604.475 143.807 624.91 164.238C650.367 189.691 666.994 222.361 673.595 257.694C675.681 268.858 675.525 279.708 675.517 291L675.47 324.924L675.284 436.556L675.079 913.029L658.891 913.036L658.942 333.437L525.125 333.135L364.274 333.515L364.439 913.011L347.829 913.047L347.532 848.884L347.487 740.484L347.464 455.076L347.472 335.261L347.208 298.971C347.114 287.558 346.958 276.115 348.734 264.8C354.21 229.902 367.281 199.47 390.247 172.404C417.135 140.716 458.998 119.611 500.275 116.217Z"/>
	<defs>
		<linearGradient id="gradient_0" gradientUnits="userSpaceOnUse" x1="446.70532" y1="229.33041" x2="375.7052" y2="209.32701">
			<stop offset="0" stop-color="#031B21"/>
			<stop offset="1" stop-color="#002927"/>
		</linearGradient>
	</defs>
	<path fill="url(#gradient_0)" transform="scale(0.488281 0.488281)" d="M367.359 306.418L358.21 306.648L359.927 272.503C365.138 227.683 385.059 186.305 420.944 158.25C433.878 148.138 447.104 142.034 462.817 137.457C468.569 135.781 475.225 133.91 481.25 134.645C480.45 135.277 480.716 135.217 479.9 135.428C463.851 139.576 450.593 146.533 437.047 156.02C417.974 169.377 403.559 185.247 391.739 205.221C389.652 208.746 386.549 213.004 385.89 217.067L385.828 217.501C381.365 226.446 376.52 236.11 374.237 245.868C366.56 264.368 367.152 286.791 367.359 306.418Z"/>
	<path fill="#AAC36C" transform="scale(0.488281 0.488281)" d="M555.775 296.261L641.496 296.038L641.472 306.051L380.635 306.149L380.615 295.957C389.771 296.414 466.995 295.355 468.851 297L469.107 298.449C470.521 299.333 476.312 299.274 478.044 298.709L478.473 298.43L479.409 296.453L528.194 296.247L539.425 296.386C541.434 296.423 543.191 296.146 544.939 297.192L545.416 298.104L547.033 298.578C548.95 298.965 553.721 299.422 555.369 298.462L555.775 296.261Z"/>
	<defs>
		<linearGradient id="gradient_1" gradientUnits="userSpaceOnUse" x1="509.0961" y1="312.30368" x2="516.72485" y2="140.94324">
			<stop offset="0" stop-color="#A28131"/>
			<stop offset="1" stop-color="#A8D986"/>
		</linearGradient>
	</defs>
	<path fill="url(#gradient_1)" transform="scale(0.488281 0.488281)" d="M385.828 217.501C391.077 209.72 396.111 201.946 402.083 194.681C423.385 168.764 452.21 149.856 485.332 143.361C519.872 136.588 557.093 144.995 586.099 164.72C619.502 187.436 643.441 222.112 650.813 262.088C653.466 276.476 653.006 291.514 653.07 306.1L641.472 306.051L641.496 296.038C641.825 292.627 641.566 288.951 641.547 285.51C641.521 281.074 641.601 276.59 641.142 272.175C639.206 253.588 632.031 234.361 622.591 218.347C618.88 212.052 614.467 206.422 610.318 200.441C608.712 199.106 607.408 197.772 606.112 196.135C600.629 189.414 593.765 183.544 586.863 178.345C568.279 164.347 545.557 154.074 522.23 151.704L514.82 151.112L514.81 207.395C514.347 207.072 514.536 205.804 514.526 205.255L514.549 164.46C514.558 161.678 515.442 153.213 514 151.167C512.409 151.124 510.682 150.687 509.464 151.75L509.35 159.392L509.217 151.016C502.38 151.442 495.583 151.932 488.854 153.297C458.953 159.361 433.159 175.014 413.104 197.916C402.277 210.279 392.641 226.973 387.127 242.342C379.686 263.23 377.051 283.956 377.991 306.076L367.359 306.418C367.152 286.791 366.56 264.368 374.237 245.868C376.52 236.11 381.365 226.446 385.828 217.501Z"/>
	<path fill="#411923" transform="scale(0.488281 0.488281)" d="M514.81 207.395L514.82 151.112L522.23 151.704C545.557 154.074 568.279 164.347 586.863 178.345C593.765 183.544 600.629 189.414 606.112 196.135L561.331 239.997L549.871 251.366C549.139 252.075 547.18 254.306 546.263 254.643C543.654 254.902 539.07 260.58 537.003 262.589C532.673 259.268 527.542 256.708 522.191 255.539C519.787 255.014 517.363 254.928 514.942 254.331L514.81 207.395Z"/>
	<path fill="#411923" transform="scale(0.488281 0.488281)" d="M606.112 196.135C607.408 197.772 608.712 199.106 610.318 200.441C614.467 206.422 618.88 212.052 622.591 218.347C632.031 234.361 639.206 253.588 641.142 272.175C641.601 276.59 641.521 281.074 641.547 285.51C641.566 288.951 641.825 292.627 641.496 296.038L555.775 296.261L555.369 298.462C553.721 299.422 548.95 298.965 547.033 298.578L545.416 298.104L544.939 297.192C543.191 296.146 541.434 296.423 539.425 296.386L528.194 296.247L479.409 296.453L478.473 298.43L477.645 297.933L477.45 293.834C477.095 295.394 477.384 296.669 476.5 298.081L470.533 298.286L470.5 297.271C470.551 295.242 471.245 292.851 471.634 290.841C473.667 280.328 477.845 273.042 485.495 265.625L485.086 264.844L485.428 263.757L481.038 259.151C483.202 259.255 484.983 261.563 486.611 262.989C490.499 260.598 494.167 258.317 498.483 256.713C501.196 255.705 506.009 255.823 508.162 254.39L508.521 254.076L509.547 254.425C511.3 254.448 513.213 254.627 514.942 254.331C517.363 254.928 519.787 255.014 522.191 255.539C527.542 256.708 532.673 259.268 537.003 262.589C539.07 260.58 543.654 254.902 546.263 254.643C547.18 254.306 549.139 252.075 549.871 251.366L561.331 239.997L606.112 196.135Z"/>
	<path fill="#FDE09A" transform="scale(0.488281 0.488281)" d="M606.112 196.135C607.408 197.772 608.712 199.106 610.318 200.441L601.05 209.589C600.189 210.441 598.202 211.977 597.796 212.999C596.471 215.859 594.134 217.919 591.966 220.141L580.204 231.75L563.203 248.551L543.644 268.77C550.651 276.387 555.098 285.865 555.775 296.261L555.369 298.462C553.721 299.422 548.95 298.965 547.033 298.578L545.416 298.104L544.939 297.192C543.191 296.146 541.434 296.423 539.425 296.386L528.194 296.247L479.409 296.453L478.473 298.43L477.645 297.933L477.45 293.834C477.095 295.394 477.384 296.669 476.5 298.081L470.533 298.286L470.5 297.271C470.551 295.242 471.245 292.851 471.634 290.841C473.667 280.328 477.845 273.042 485.495 265.625L485.086 264.844L485.428 263.757L481.038 259.151C483.202 259.255 484.983 261.563 486.611 262.989C490.499 260.598 494.167 258.317 498.483 256.713C501.196 255.705 506.009 255.823 508.162 254.39L508.521 254.076L509.547 254.425C511.3 254.448 513.213 254.627 514.942 254.331C517.363 254.928 519.787 255.014 522.191 255.539C527.542 256.708 532.673 259.268 537.003 262.589C539.07 260.58 543.654 254.902 546.263 254.643C547.18 254.306 549.139 252.075 549.871 251.366L561.331 239.997L606.112 196.135Z"/>
	<path fill="#000203" transform="scale(0.488281 0.488281)" d="M546.263 254.643L537.714 263.564L542.457 267.647L597.796 212.999C596.471 215.859 594.134 217.919 591.966 220.141L580.204 231.75L563.203 248.551L543.644 268.77C550.651 276.387 555.098 285.865 555.775 296.261L555.369 298.462C553.721 299.422 548.95 298.965 547.033 298.578L545.416 298.104L544.939 297.192C545.312 290.208 542.546 282.386 538.099 276.961C533.194 270.979 524.41 265.026 516.5 264.542C506.315 263.919 497.709 265.687 490.021 272.784C483.192 279.087 479.722 287.25 479.409 296.453L478.473 298.43L477.645 297.933L477.45 293.834L477.45 293.74C478.506 284.32 482.477 276.372 489.631 270.144C496.838 263.87 505.559 261.375 514.997 262.183C524.705 263.015 533.563 267.627 539.75 275.199C544.242 280.697 548.089 289.812 547.222 296.993L547.151 297.5L547.75 298.116L553.986 298.163C552.553 288.571 550.794 280.381 544.963 272.393C538.669 263.77 528.703 257.696 518.106 256.273C505.667 254.603 495.308 258.187 485.495 265.625L485.086 264.844L485.428 263.757L481.038 259.151C483.202 259.255 484.983 261.563 486.611 262.989C490.499 260.598 494.167 258.317 498.483 256.713C501.196 255.705 506.009 255.823 508.162 254.39L508.521 254.076L509.547 254.425C511.3 254.448 513.213 254.627 514.942 254.331C517.363 254.928 519.787 255.014 522.191 255.539C527.542 256.708 532.673 259.268 537.003 262.589C539.07 260.58 543.654 254.902 546.263 254.643Z"/>
	<path fill="#FDE09A" transform="scale(0.488281 0.488281)" d="M606.112 196.135C607.408 197.772 608.712 199.106 610.318 200.441L601.05 209.589C600.189 210.441 598.202 211.977 597.796 212.999L542.457 267.647L537.714 263.564L546.263 254.643C547.18 254.306 549.139 252.075 549.871 251.366L561.331 239.997L606.112 196.135Z"/>
	<path fill="#411923" transform="scale(0.488281 0.488281)" d="M479.409 296.453C479.722 287.25 483.192 279.087 490.021 272.784C497.709 265.687 506.315 263.919 516.5 264.542C524.41 265.026 533.194 270.979 538.099 276.961C542.546 282.386 545.312 290.208 544.939 297.192C543.191 296.146 541.434 296.423 539.425 296.386L528.194 296.247L479.409 296.453Z"/>
	<path fill="#411923" transform="scale(0.488281 0.488281)" d="M509.35 159.392L509.464 151.75C510.682 150.687 512.409 151.124 514 151.167C515.442 153.213 514.558 161.678 514.549 164.46L514.526 205.255C514.536 205.804 514.347 207.072 514.81 207.395L514.942 254.331C513.213 254.627 511.3 254.448 509.547 254.425L508.521 254.076L508.162 254.39C506.009 255.823 501.196 255.705 498.483 256.713C494.167 258.317 490.499 260.598 486.611 262.989C484.983 261.563 483.202 259.255 481.038 259.151L485.428 263.757L485.086 264.844L485.495 265.625C477.845 273.042 473.667 280.328 471.634 290.841C471.245 292.851 470.551 295.242 470.5 297.271L470.533 298.286L476.5 298.081C477.384 296.669 477.095 295.394 477.45 293.834L477.645 297.933L478.473 298.43L478.044 298.709C476.312 299.274 470.521 299.333 469.107 298.449L468.851 297C466.995 295.355 389.771 296.414 380.615 295.957L380.635 306.149L378.434 306.096L377.991 306.076C377.051 283.956 379.686 263.23 387.127 242.342C392.641 226.973 402.277 210.279 413.104 197.916C433.159 175.014 458.953 159.361 488.854 153.297C495.583 151.932 502.38 151.442 509.217 151.016L509.35 159.392Z"/>
	<path fill="#000203" transform="scale(0.488281 0.488281)" d="M378.434 306.096C378.393 303.451 377.766 298.885 378.75 296.524L380.615 295.957L380.635 306.149L378.434 306.096Z"/>
	<path fill="#FDE09A" transform="scale(0.488281 0.488281)" d="M509.35 159.392L509.464 151.75C510.682 150.687 512.409 151.124 514 151.167C515.442 153.213 514.558 161.678 514.549 164.46L514.526 205.255C514.536 205.804 514.347 207.072 514.81 207.395L514.942 254.331C513.213 254.627 511.3 254.448 509.547 254.425L509.35 159.392Z"/>
	<path fill="#FDE09A" transform="scale(0.488281 0.488281)" d="M485.086 264.844L481.627 267.944L412.2 200.123L416.278 195.84L417.014 196.417C423.893 201.714 430.058 208.84 436.222 214.987L464.632 242.866L481.038 259.151L485.428 263.757L485.086 264.844Z"/>
	<path fill="#53A191" transform="scale(0.488281 0.488281)" d="M380.906 344.304L620.002 344.483L619.947 912.985L380.518 913.025L378.552 679.833L380.906 344.304Z"/>
	<path fill="#FFFFC8" transform="scale(0.488281 0.488281)" d="M390.999 602.836C392.242 601.246 393.462 600.079 395.287 599.164C398.186 597.712 400.583 598.081 403.581 598.997C402.924 600.319 402.697 600.631 401.25 601.041L392.384 602.695C391.704 602.85 391.904 602.793 390.999 602.836Z"/>
	<path fill="#076C5E" transform="scale(0.488281 0.488281)" d="M497.565 837.899L498.593 872.076L494.846 871.876L495.423 871.215L496.416 870.73L497.565 837.899Z"/>
	<path fill="#076C5E" transform="scale(0.488281 0.488281)" d="M496.974 637.091L498.776 637.25C499.38 640.316 499.04 643.874 499.026 647.007L498.524 668.25C498.341 679.685 499.434 691.816 498.083 703.173C497.659 698.657 499.274 689.256 496.837 685.694L496.974 637.091Z"/>
	<path fill="#004845" transform="scale(0.488281 0.488281)" d="M496.837 685.694C499.274 689.256 497.659 698.657 498.083 703.173L498.09 734.25L498.378 745.163C498.325 747.425 497.915 749.613 497.85 751.868C497.768 754.688 497.952 757.736 497.584 760.521C496.873 756.686 497.81 752.573 497.255 748.75C495.43 736.188 496.646 722.517 496.584 709.762L496.449 694.493C496.424 691.592 496.142 688.521 496.837 685.694Z"/>
	<path fill="#076C5E" transform="scale(0.488281 0.488281)" d="M447.335 875.059L498.675 874.68L498.873 876.5C498.582 876.67 498.315 876.891 498 877.011C497.211 877.311 436.973 876.881 434.307 876.576L434.419 876.43C436.649 875.948 439.055 875.887 441.336 875.75C443.287 875.633 445.43 875.485 447.335 875.059Z"/>
	<path fill="#076C5E" transform="scale(0.488281 0.488281)" d="M530.561 603.016C531.327 602.352 531.539 602.166 532.584 602.044C539.569 601.227 547.522 601.976 554.595 601.987L610.998 602.367C612.661 602.73 612.856 602.847 614.082 604.032C611.795 604.912 608.063 604.438 605.587 604.44L587.042 604.431L530.774 604.494L530.561 603.016Z"/>
	<path fill="#076C5E" transform="scale(0.488281 0.488281)" d="M614.559 825.46L615.032 875.537C615.172 876.122 615.111 875.721 614.978 876.75C610.856 877.225 606.407 876.892 602.251 876.883L579.638 876.858L546.75 876.921C541.69 876.949 536.526 877.308 531.483 877.074C531.133 876.218 530.953 875.457 530.756 874.557L602.787 874.907C606.026 874.442 609.446 874.612 612.725 874.387L612.925 872.945L613.295 832.79L613.625 835.875L613.755 835C613.915 834.21 614.134 833.639 614.134 832.812L614.559 825.46Z"/>
	<path fill="#076C5E" transform="scale(0.488281 0.488281)" d="M414.577 379.183L414.717 602.082C415.049 601.971 415.278 601.663 415.54 601.432L418.287 599.795L427.49 599.931C433.522 600.664 439.908 600.196 445.988 600.164L480.547 599.975C485.76 599.95 491.942 599.318 497.019 600.496L497.123 601.171C498.168 603.176 498.48 603.097 500.466 603.974L499.935 604.827L414.206 604.951L414.046 466.627L413.99 380.863C414.009 380.139 414.161 379.766 414.577 379.183Z"/>
	<path fill="#022020" transform="scale(0.488281 0.488281)" d="M418.287 599.795L427.49 599.931C433.522 600.664 439.908 600.196 445.988 600.164L480.547 599.975C485.76 599.95 491.942 599.318 497.019 600.496L497.123 601.171L496.455 602.334L441.723 602.627C437.489 602.666 417.303 603.9 414.717 602.082C415.049 601.971 415.278 601.663 415.54 601.432L418.287 599.795Z"/>
	<path fill="#076C5E" transform="scale(0.488281 0.488281)" d="M411.84 608.383L413.874 609.263C416.4 610.304 418.141 611.682 419.964 613.688L419.609 636.394C418.103 636.771 416.532 637.059 415.133 637.75L415.5 638.381L493.735 638.551C492.592 639.579 437.514 639.08 431.071 639.08L419.72 639.079C418.396 639.079 416.693 638.8 415.581 639.5C415.758 640.41 415.864 640.885 416.549 641.54L416.597 641.568C417.313 650.922 416.047 660.947 415.901 670.399C415.864 672.773 416.484 678.984 415.584 680.938L414.727 681.092L414.186 727.292L414.077 727.327C413.332 722.847 413.996 717.188 414.017 712.595L414.029 675.5C412.84 675.273 412.768 676.059 411.75 676.406C410.04 676.988 405.894 676.41 404.25 675.981C399.044 674.622 396.672 670.769 394.154 666.441C396.143 667.035 398.164 667.416 400.25 667.425C403.307 667.437 406.495 666.37 408.557 664.039C410.241 662.135 410.917 659.817 411.351 657.372C412.486 650.974 412.008 644.004 412.062 637.505C412.141 627.831 412.565 618.031 411.84 608.383Z"/>
	<path fill="#076C5E" transform="scale(0.488281 0.488281)" d="M498.276 386.427L501.047 389.25L500.583 547.8L500.65 586.305C500.674 591.633 501.589 598.831 500.466 603.974C498.48 603.097 498.168 603.176 497.123 601.171L497.019 600.496C497.307 595.633 497.043 590.596 497.051 585.716L497.202 555.943L498.014 446.3L497.697 405.928C497.721 399.498 497.436 392.802 498.276 386.427Z"/>
	<path fill="#004845" transform="scale(0.488281 0.488281)" d="M612.082 379.552C612.873 378.808 613.047 378.25 614.172 378.25C615.163 382.937 614.493 388.966 614.506 393.784L614.569 428.092L614.531 566.268C614.538 571.431 615.531 601.086 614.082 604.032C612.856 602.847 612.661 602.73 610.998 602.367C611.891 601.995 611.883 602.139 612.433 601.25L611.664 600.008L608.749 597.392C610.188 595.123 609.918 567.248 610.029 562.658C610.123 558.737 610.95 555.097 611.25 551.235L611.876 535.744L612.013 424.431L611.926 399.831C611.863 394.581 610.652 386.531 612.447 381.719L612.73 381L612.082 379.552Z"/>
	<path fill="#022020" transform="scale(0.488281 0.488281)" d="M531.046 644.665C532.209 647.307 531.583 649.762 531.905 652.508L531.864 818.67L531.836 856.475C531.835 860.927 531.028 867.35 532.105 871.603L533.012 871.954C534.803 869.884 536.916 868.171 538.997 866.406C543.159 867.652 549.323 866.726 553.753 866.717L595.891 866.817C597.43 866.827 603.589 866.343 604.638 866.88C605.329 867.235 606.663 869.103 607.307 869.695C608.311 870.617 609.619 871.264 610.831 871.866L609.619 872.28C610.733 872.752 611.335 872.626 612.48 872.795L612.925 872.945L612.725 874.387C609.446 874.612 606.026 874.442 602.787 874.907L530.756 874.557C530.253 871.655 530.478 868.589 530.48 865.646L530.506 850.968L530.783 797.125L530.887 697.199L531.046 644.665Z"/>
	<path fill="#53A191" transform="scale(0.488281 0.488281)" d="M533.012 871.954C534.803 869.884 536.916 868.171 538.997 866.406C543.159 867.652 549.323 866.726 553.753 866.717L595.891 866.817C597.43 866.827 603.589 866.343 604.638 866.88C605.329 867.235 606.663 869.103 607.307 869.695C608.311 870.617 609.619 871.264 610.831 871.866L609.619 872.28L533.012 871.954Z"/>
	<path fill="#022020" transform="scale(0.488281 0.488281)" d="M530.438 384.291C531.874 386.562 531.37 389.4 531.376 392.067C531.388 397.819 530.733 404.559 531.616 410.169L531.716 599.326C532.702 600.045 532.496 599.898 533.585 599.864L539.123 593.92C541.42 594.651 543.724 594.44 546.111 594.442L558.648 594.413L606.043 594.091L606.395 594.582C607.13 595.564 607.816 596.585 608.749 597.392L611.664 600.008L612.433 601.25C611.883 602.139 611.891 601.995 610.998 602.367L554.595 601.987C547.522 601.976 539.569 601.227 532.584 602.044C531.539 602.166 531.327 602.352 530.561 603.016C529.521 595.033 530.178 586.2 530.16 578.132L530.084 529.815L530.154 436.739L530.438 384.291Z"/>
	<path fill="#53A191" transform="scale(0.488281 0.488281)" d="M539.123 593.92C541.42 594.651 543.724 594.44 546.111 594.442L558.648 594.413L606.043 594.091L606.395 594.582C607.13 595.564 607.816 596.585 608.749 597.392L611.664 600.008L533.585 599.864L539.123 593.92Z"/>
	<path fill="#022020" transform="scale(0.488281 0.488281)" d="M414.077 727.327L414.186 727.292L414.727 681.092L415.584 680.938L415.784 871.272L416.57 871.916L422.987 866.397C425.186 867.058 486.909 867.031 488.875 866.377C490.999 868.136 493.039 869.811 495.423 871.215L494.846 871.876L498.593 872.076L498.675 874.68L447.335 875.059C445.43 875.485 443.287 875.633 441.336 875.75C439.055 875.887 436.649 875.948 434.419 876.43L434.307 876.576C432.7 877.027 430.328 876.764 428.612 876.784L415.75 876.921C414.697 876.082 414.826 875.827 414.562 874.482C413.74 869.969 414.177 864.661 414.146 860.059L414.006 831.477L414.077 727.327Z"/>
	<path fill="#076C5E" transform="scale(0.488281 0.488281)" d="M414.562 874.482C417.293 875.218 420.168 875.002 422.974 875.012L439.678 875.028C442.069 875.028 444.996 874.686 447.335 875.059C445.43 875.485 443.287 875.633 441.336 875.75C439.055 875.887 436.649 875.948 434.419 876.43L434.307 876.576C432.7 877.027 430.328 876.764 428.612 876.784L415.75 876.921C414.697 876.082 414.826 875.827 414.562 874.482Z"/>
	<path fill="#53A191" transform="scale(0.488281 0.488281)" d="M416.57 871.916L422.987 866.397C425.186 867.058 486.909 867.031 488.875 866.377C490.999 868.136 493.039 869.811 495.423 871.215L494.846 871.876L416.57 871.916Z"/>
	<defs>
		<linearGradient id="gradient_2" gradientUnits="userSpaceOnUse" x1="509.56439" y1="459.87335" x2="635.01111" y2="494.32477">
			<stop offset="0" stop-color="#011A2F"/>
			<stop offset="1" stop-color="#003936"/>
		</linearGradient>
	</defs>
	<path fill="url(#gradient_2)" transform="scale(0.488281 0.488281)" d="M530.438 384.291C530.166 382.669 530.391 380.895 530.469 379.247L584.407 379.298C593.435 379.274 603.163 378.414 612.082 379.552L612.73 381L612.447 381.719C610.652 386.531 611.863 394.581 611.926 399.831L612.013 424.431L611.876 535.744L611.25 551.235C610.95 555.097 610.123 558.737 610.029 562.658C609.918 567.248 610.188 595.123 608.749 597.392C607.816 596.585 607.13 595.564 606.395 594.582L606.015 387.518L609.494 382.42L533.47 382.55L531.945 382.774C531.826 391.674 532.64 401.382 531.616 410.169C530.733 404.559 531.388 397.819 531.376 392.067C531.37 389.4 531.874 386.562 530.438 384.291Z"/>
	<path fill="#FDE09A" transform="scale(0.488281 0.488281)" d="M403.581 598.997C405.405 599.887 406.65 600.902 408.092 602.321C409.828 604.172 410.896 606.033 411.84 608.383C412.565 618.031 412.141 627.831 412.062 637.505C412.008 644.004 412.486 650.974 411.351 657.372C410.917 659.817 410.241 662.135 408.557 664.039C406.495 666.37 403.307 667.437 400.25 667.425C398.164 667.416 396.143 667.035 394.154 666.441L393.114 665.105C390.919 662.113 389.532 659.73 388.886 656.026C388.372 653.074 388.575 649.895 388.549 646.896L388.461 631.682C388.434 624.23 387.552 615.651 388.642 608.344C388.949 606.283 389.819 604.527 390.999 602.836C391.904 602.793 391.704 602.85 392.384 602.695L401.25 601.041C402.697 600.631 402.924 600.319 403.581 598.997Z"/>
	<path fill="#653215" transform="scale(0.488281 0.488281)" d="M403.418 634.836C401.672 635.577 399.833 635.985 397.935 635.601C396.003 635.21 394.098 633.653 393.124 631.962C391.896 629.829 391.68 627.268 392.45 624.944C393.255 622.514 394.848 620.455 397.222 619.378C399.772 618.221 401.488 618.508 404 619.576C406.197 621.938 407.179 624.484 407.075 627.728C406.978 630.754 405.512 632.796 403.418 634.836Z"/>
	<path fill="#B85F00" transform="scale(0.488281 0.488281)" d="M408.092 602.321C409.828 604.172 410.896 606.033 411.84 608.383C412.565 618.031 412.141 627.831 412.062 637.505C412.008 644.004 412.486 650.974 411.351 657.372C410.917 659.817 410.241 662.135 408.557 664.039C406.495 666.37 403.307 667.437 400.25 667.425C398.164 667.416 396.143 667.035 394.154 666.441L393.114 665.105C393.918 665.344 394.723 665.444 395.561 665.47C397.513 665.53 398.846 664.782 400.213 663.439C401.866 661.815 403.292 659.852 403.933 657.595C404.631 655.133 404.463 651.983 404.465 649.443L404.413 635.763L403.418 634.836C405.512 632.796 406.978 630.754 407.075 627.728C407.179 624.484 406.197 621.938 404 619.576L404.766 619.12C404.818 616.988 404.591 614.207 405.162 612.16C405.372 611.407 405.716 611.027 405.7 610.196C405.642 607.102 406.764 605.053 408.092 602.321Z"/>
	<defs>
		<linearGradient id="gradient_3" gradientUnits="userSpaceOnUse" x1="399.79434" y1="474.15775" x2="513.20331" y2="492.47229">
			<stop offset="0" stop-color="#001526"/>
			<stop offset="1" stop-color="#024040"/>
		</linearGradient>
	</defs>
	<path fill="url(#gradient_3)" transform="scale(0.488281 0.488281)" d="M414.577 379.183L494.75 379.03C495.729 380.523 494.992 381.339 495.499 382.75C495.858 383.749 497.585 385.413 498.276 386.427C497.436 392.802 497.721 399.498 497.697 405.928L498.014 446.3L497.202 555.943L497.051 585.716C497.043 590.596 497.307 595.633 497.019 600.496C491.942 599.318 485.76 599.95 480.547 599.975L445.988 600.164C439.908 600.196 433.522 600.664 427.49 599.931C433.796 598.984 441.122 599.667 447.558 599.634L493.283 599.502C492.64 598.556 491.483 597.242 491.051 596.221C490.446 594.789 491.058 590.072 491.06 588.278L491.077 555.864L491.122 440.416L491.33 405.377C491.361 398.345 491.058 391.115 491.652 384.114L491.712 383.437L491.807 382.205C483.984 381.175 474.973 381.987 467.022 381.986L415.295 381.998L415.54 601.432C415.278 601.663 415.049 601.971 414.717 602.082L414.577 379.183Z"/>
	<path fill="#53A191" transform="scale(0.488281 0.488281)" d="M481.953 393.603L483.134 393.37L483.443 392.947L483.967 392.25C486.323 389.066 488.962 386.285 491.712 383.437L491.652 384.114C491.058 391.115 491.361 398.345 491.33 405.377L491.122 440.416L491.077 555.864L491.06 588.278C491.058 590.072 490.446 594.789 491.051 596.221C491.483 597.242 492.64 598.556 493.283 599.502L447.558 599.634C441.122 599.667 433.796 598.984 427.49 599.931L418.287 599.795L422.6 594.874L427.533 589.512C427.097 588.615 427.103 587.959 427.026 586.978C430.351 586.183 434.008 586.471 437.426 586.46L455.657 586.463C464.235 586.48 473.67 585.727 482.116 586.676L483.75 586.354C484.376 584.406 484.015 581.705 484.006 579.664L483.935 563.61L483.817 510.101L483.899 426.803L483.913 405.271C483.913 401.837 484.356 397.721 483.642 394.408L481.953 393.603Z"/>
	<path fill="#022020" transform="scale(0.488281 0.488281)" d="M427.026 586.978C430.351 586.183 434.008 586.471 437.426 586.46L455.657 586.463C464.235 586.48 473.67 585.727 482.116 586.676L484.385 587.25L484.742 589.089C486.134 589.406 489.375 593.196 490.032 594.507L490.148 595.004L443.94 594.941C437.209 594.952 429.216 595.82 422.6 594.874L427.533 589.512C427.097 588.615 427.103 587.959 427.026 586.978Z"/>
	<path fill="#53A191" transform="scale(0.488281 0.488281)" d="M427.026 586.978C430.351 586.183 434.008 586.471 437.426 586.46L455.657 586.463C464.235 586.48 473.67 585.727 482.116 586.676L484.385 587.25L484.742 589.089L427.533 589.512C427.097 588.615 427.103 587.959 427.026 586.978Z"/>
	<path fill="#6CCFA6" transform="scale(0.488281 0.488281)" d="M533.47 382.55L609.494 382.42L606.015 387.518C604.369 389.621 602.477 392.802 600.071 394.009C593.66 393.167 586.351 393.816 579.851 393.809L543.09 393.846L542.548 393.986L542.519 529.579L542.489 569.597C542.473 575.946 543.096 583.317 542.036 589.569C541.786 591.044 540.071 592.735 539.123 593.92L533.585 599.864C532.496 599.898 532.702 600.045 531.716 599.326L531.616 410.169C532.64 401.382 531.826 391.674 531.945 382.774L533.47 382.55Z"/>
	<path fill="#6CCFA6" transform="scale(0.488281 0.488281)" d="M415.54 601.432L415.295 381.998L467.022 381.986C474.973 381.987 483.984 381.175 491.807 382.205L491.712 383.437C488.962 386.285 486.323 389.066 483.967 392.25L483.443 392.947L483.134 393.37L481.953 393.603L426.831 393.592L427.026 586.978C427.103 587.959 427.097 588.615 427.533 589.512L422.6 594.874L418.287 599.795L415.54 601.432Z"/>
	<path fill="#022020" transform="scale(0.488281 0.488281)" d="M493.735 638.551C495.059 637.489 495.303 637.338 496.974 637.091L496.837 685.694C496.142 688.521 496.424 691.592 496.449 694.493L496.584 709.762C496.646 722.517 495.43 736.188 497.255 748.75C497.81 752.573 496.873 756.686 497.584 760.521L497.565 837.899L496.416 870.73L495.423 871.215C493.039 869.811 490.999 868.136 488.875 866.377C486.909 867.031 425.186 867.058 422.987 866.397C424.957 864.423 426.49 862.25 428.093 859.979L427.803 858.043C429.707 857.362 432.208 857.574 434.209 857.564L445.31 857.529L483.708 857.175L483.668 696.904L483.701 662.744C483.707 659.16 484.55 653.797 483.536 650.482C485.971 648.385 489.446 645.45 490.948 642.629C485.001 642.471 422.872 641.919 421.648 642.874L422.4 644.214C420.46 642.399 419.224 641.901 416.597 641.568L416.549 641.54C415.864 640.885 415.758 640.41 415.581 639.5C416.693 638.8 418.396 639.079 419.72 639.079L431.071 639.08C437.514 639.08 492.592 639.579 493.735 638.551Z"/>
	<defs>
		<linearGradient id="gradient_4" gradientUnits="userSpaceOnUse" x1="492.32489" y1="754.54938" x2="431.73538" y2="753.26239">
			<stop offset="0" stop-color="#05786D"/>
			<stop offset="1" stop-color="#2BBDA5"/>
		</linearGradient>
	</defs>
	<path fill="url(#gradient_4)" transform="scale(0.488281 0.488281)" d="M490.948 642.629C491.206 643.13 491.378 643.377 491.44 644C491.585 645.468 491.12 647.335 491.055 648.839L490.949 661.018L490.933 710.225L490.998 810.35L490.99 865.726L490.111 865.984L489.954 865.609C489.504 864.724 486.873 861.231 486.093 860.861C484.087 859.908 445.649 860.412 440.934 860.404C437.862 860.398 432.339 861.087 429.534 860.14C428.606 859.827 429.426 859.917 428.093 859.979L427.803 858.043C429.707 857.362 432.208 857.574 434.209 857.564L445.31 857.529L483.708 857.175L483.668 696.904L483.701 662.744C483.707 659.16 484.55 653.797 483.536 650.482C485.971 648.385 489.446 645.45 490.948 642.629Z"/>
	<path fill="#022020" transform="scale(0.488281 0.488281)" d="M531.046 644.665L531.016 638.668L614.51 638.656L614.559 825.46L614.134 832.812C614.134 833.639 613.915 834.21 613.755 835L613.625 835.875L613.295 832.79L612.925 872.945L612.48 872.795C611.335 872.626 610.733 872.752 609.619 872.28L610.831 871.866C609.619 871.264 608.311 870.617 607.307 869.695C606.663 869.103 605.329 867.235 604.638 866.88C603.589 866.343 597.43 866.827 595.891 866.817L553.753 866.717C549.323 866.726 543.159 867.652 538.997 866.406C540.745 864.419 541.916 862.856 542.661 860.285L543.007 857.474L599.585 857.492L599.94 711.24L599.982 671.638C599.992 665.321 599.271 657.886 600.45 651.708L600.561 651.18L601.01 650.538C601.429 649.12 605.024 646.302 606.241 645.173C606.876 644.491 607.079 643.85 607.433 643C607.205 642.789 607.026 642.51 606.75 642.367C606.297 642.132 604.692 642.229 604.061 642.201L593.852 642.138L556.628 642.216C549.021 642.286 541.249 642.757 533.66 642.284L532.25 642.066C531.53 645.286 531.909 649.188 531.905 652.508C531.583 649.762 532.209 647.307 531.046 644.665Z"/>
	<path fill="#53A191" transform="scale(0.488281 0.488281)" d="M601.01 650.538C601.429 649.12 605.024 646.302 606.241 645.173L605.607 833.233L605.571 857.611C605.57 859.693 606.123 863.766 605.38 865.634L601.893 860.447L542.661 860.285L543.007 857.474L599.585 857.492L599.94 711.24L599.982 671.638C599.992 665.321 599.271 657.886 600.45 651.708L600.561 651.18L601.01 650.538Z"/>
	<path fill="#000203" transform="scale(0.488281 0.488281)" d="M427.026 586.978L426.831 393.592L481.953 393.603L483.642 394.408C484.356 397.721 483.913 401.837 483.913 405.271L483.899 426.803L483.817 510.101L483.935 563.61L484.006 579.664C484.015 581.705 484.376 584.406 483.75 586.354L482.116 586.676C473.67 585.727 464.235 586.48 455.657 586.463L437.426 586.46C434.008 586.471 430.351 586.183 427.026 586.978Z"/>
	<path fill="#6CCFA6" transform="scale(0.488281 0.488281)" d="M428.661 395.744L482.164 395.55L482.264 584.772L428.756 584.91L428.661 395.744Z"/>
	<path fill="#000203" transform="scale(0.488281 0.488281)" d="M600.071 394.009C602.477 392.802 604.369 389.621 606.015 387.518L606.395 594.582L606.043 594.091L558.648 594.413L546.111 594.442C543.724 594.44 541.42 594.651 539.123 593.92C540.071 592.735 541.786 591.044 542.036 589.569C543.096 583.317 542.473 575.946 542.489 569.597L542.519 529.579L542.548 393.986L543.09 393.846L579.851 393.809C586.351 393.816 593.66 393.167 600.071 394.009Z"/>
	<path fill="#022020" transform="scale(0.488281 0.488281)" d="M542.548 393.986L543.09 393.846L543.007 525.677L543.013 564.68C543.045 569.868 542.217 577.087 543.743 582L544.051 583.222C544.584 581.725 544.316 579.281 544.34 577.642L544.48 565.148L544.432 482.991L544.463 469C544.472 466.749 544.211 463.863 544.882 461.725L545.077 586.322L544.25 588.843C549.215 589.827 555.509 589.139 560.625 589.126L593.78 588.992C595.253 588.981 600.563 588.411 601.667 588.934C602.806 589.472 605.254 593.026 606.043 594.091L558.648 594.413L546.111 594.442C543.724 594.44 541.42 594.651 539.123 593.92C540.071 592.735 541.786 591.044 542.036 589.569C543.096 583.317 542.473 575.946 542.489 569.597L542.519 529.579L542.548 393.986Z"/>
	<defs>
		<linearGradient id="gradient_5" gradientUnits="userSpaceOnUse" x1="610.01978" y1="490.24866" x2="540.77887" y2="493.71576">
			<stop offset="0" stop-color="#0C8977"/>
			<stop offset="1" stop-color="#1BAA92"/>
		</linearGradient>
	</defs>
	<path fill="url(#gradient_5)" transform="scale(0.488281 0.488281)" d="M600.071 394.009C602.477 392.802 604.369 389.621 606.015 387.518L606.395 594.582L606.043 594.091C605.254 593.026 602.806 589.472 601.667 588.934C600.563 588.411 595.253 588.981 593.78 588.992L560.625 589.126C555.509 589.139 549.215 589.827 544.25 588.843L545.077 586.322L545.51 585.446C547.215 586.377 549.354 586.081 551.253 586.077L561.481 586.071L600.41 586.006L600.508 536.174L600.444 442.708L600.418 410.32C600.433 405.538 601.346 398.478 600.071 394.009Z"/>
	<path fill="#6CCFA6" transform="scale(0.488281 0.488281)" d="M544.882 461.725L544.968 395.827L598.648 395.748L598.548 584.528L561.715 584.641C557.568 584.657 549.102 583.629 545.51 585.446L545.077 586.322L544.882 461.725Z"/>
	<path fill="#6CCFA6" transform="scale(0.488281 0.488281)" d="M531.905 652.508C531.909 649.188 531.53 645.286 532.25 642.066L533.66 642.284C541.249 642.757 549.021 642.286 556.628 642.216L593.852 642.138L604.061 642.201C604.692 642.229 606.297 642.132 606.75 642.367C607.026 642.51 607.205 642.789 607.433 643C607.079 643.85 606.876 644.491 606.241 645.173C605.024 646.302 601.429 649.12 601.01 650.538L600.561 651.18L600.45 651.708C599.271 657.886 599.992 665.321 599.982 671.638L599.94 711.24L599.585 857.492L543.007 857.474L542.661 860.285C541.916 862.856 540.745 864.419 538.997 866.406C536.916 868.171 534.803 869.884 533.012 871.954L532.105 871.603C531.028 867.35 531.835 860.927 531.836 856.475L531.864 818.67L531.905 652.508Z"/>
	<path fill="#000203" transform="scale(0.488281 0.488281)" d="M595.548 652.92C596.216 652.329 595.956 652.703 596.255 651.75L595.636 651.278L600.561 651.18L600.45 651.708C599.271 657.886 599.992 665.321 599.982 671.638L599.94 711.24L599.585 857.492L543.007 857.474L543.063 768.789C544.7 772.091 543.768 778.965 543.755 782.75L543.878 780C544.365 773.893 544.168 767.288 544.212 761.127C544.236 757.842 543.712 753.869 544.877 750.802L544.999 855.637L598.008 855.71L598.139 704.111L598.152 668.452C598.151 663.98 598.979 657.516 597.831 653.25L595.548 652.92Z"/>
	<path fill="#6CCFA6" transform="scale(0.488281 0.488281)" d="M531.905 652.508C531.909 649.188 531.53 645.286 532.25 642.066L533.66 642.284C541.249 642.757 549.021 642.286 556.628 642.216L593.852 642.138L604.061 642.201C604.692 642.229 606.297 642.132 606.75 642.367C607.026 642.51 607.205 642.789 607.433 643C607.079 643.85 606.876 644.491 606.241 645.173C605.024 646.302 601.429 649.12 601.01 650.538L600.561 651.18L595.636 651.278L596.255 651.75C595.956 652.703 596.216 652.329 595.548 652.92L544.999 652.996L544.877 750.802C543.712 753.869 544.236 757.842 544.212 761.127C544.168 767.288 544.365 773.893 543.878 780L543.755 782.75C543.768 778.965 544.7 772.091 543.063 768.789L543.007 857.474L542.661 860.285C541.916 862.856 540.745 864.419 538.997 866.406C536.916 868.171 534.803 869.884 533.012 871.954L532.105 871.603C531.028 867.35 531.835 860.927 531.836 856.475L531.864 818.67L531.905 652.508Z"/>
	<defs>
		<linearGradient id="gradient_6" gradientUnits="userSpaceOnUse" x1="531.74597" y1="719.21198" x2="605.95728" y2="705.53723">
			<stop offset="0" stop-color="black"/>
			<stop offset="1" stop-color="#051923"/>
		</linearGradient>
	</defs>
	<path fill="url(#gradient_6)" transform="scale(0.488281 0.488281)" d="M542.544 650.664L601.01 650.538L600.561 651.18L595.636 651.278L596.255 651.75C595.956 652.703 596.216 652.329 595.548 652.92L544.999 652.996L544.877 750.802C543.712 753.869 544.236 757.842 544.212 761.127C544.168 767.288 544.365 773.893 543.878 780L543.755 782.75C543.768 778.965 544.7 772.091 543.063 768.789C542.616 766.949 542.994 763.82 542.98 761.86L542.899 741.061L542.544 650.664Z"/>
	<path fill="#000203" transform="scale(0.488281 0.488281)" d="M416.597 641.568C419.224 641.901 420.46 642.399 422.4 644.214L421.648 642.874C422.872 641.919 485.001 642.471 490.948 642.629C489.446 645.45 485.971 648.385 483.536 650.482C484.55 653.797 483.707 659.16 483.701 662.744L483.668 696.904L483.708 857.175L445.31 857.529L434.209 857.564C432.208 857.574 429.707 857.362 427.803 858.043L428.093 859.979C426.49 862.25 424.957 864.423 422.987 866.397L416.57 871.916L415.784 871.272L415.584 680.938C416.484 678.984 415.864 672.773 415.901 670.399C416.047 660.947 417.313 650.922 416.597 641.568Z"/>
	<path fill="#6CCFA6" transform="scale(0.488281 0.488281)" d="M416.597 641.568C419.224 641.901 420.46 642.399 422.4 644.214L421.648 642.874C422.872 641.919 485.001 642.471 490.948 642.629C489.446 645.45 485.971 648.385 483.536 650.482L427.524 650.49L427.803 858.043L428.093 859.979C426.49 862.25 424.957 864.423 422.987 866.397L416.57 871.916L415.784 871.272L415.584 680.938C416.484 678.984 415.864 672.773 415.901 670.399C416.047 660.947 417.313 650.922 416.597 641.568Z"/>
	<path fill="#6CCFA6" transform="scale(0.488281 0.488281)" d="M429.591 652.998L482.116 653.015L482.043 855.512L429.748 855.584L429.591 652.998Z"/>
</svg>
