<?xml version="1.0" encoding="utf-8" ?>
<svg xmlns="http://www.w3.org/2000/svg" xmlns:xlink="http://www.w3.org/1999/xlink" width="500" height="500">
	<path fill="#EA6C4F" transform="scale(0.488281 0.488281)" d="M-0 -0L1024 0L1024 1024L-0 1024L0 -0Z"/>
	<path fill="#F9D683" transform="scale(0.488281 0.488281)" d="M631.92 405.43C630.459 399.347 629.628 393.119 631.216 386.952L631.467 386C632.473 382.11 633.835 378.213 635.926 374.762C642.443 364.01 652.281 358.218 664.25 355.134C669.061 353.895 679.945 352.569 684.328 355.12L634.813 413.569L631.92 405.43Z"/>
	<path fill="#F9D683" transform="scale(0.488281 0.488281)" d="M356.694 395.456C356.548 400.589 353.431 405.958 350.88 410.294C343.969 422.04 335.577 431.525 326.728 441.784C322.747 446.399 318.868 451.505 314.515 455.756C312.878 452.204 311.46 448.672 310.474 444.882C308.575 434.32 309.699 424.817 315.483 415.5C321.682 405.516 331.303 399.356 342.5 396.408C347.166 395.18 351.895 395.455 356.694 395.456Z"/>
	<path fill="#50D1C0" transform="scale(0.488281 0.488281)" d="M352.069 84.8621L352.75 83.6452C355.79 85.1832 364.558 108.293 366.319 113.148L366.355 113.295L369.745 123.304C369.989 124.134 370.584 125.688 370.556 126.485C370.464 129.157 367.317 134.561 366.161 137.149L357.534 153.905L353.743 161.416L352.887 160.564L349.445 154.104L339.369 136.549C337.713 132.265 335.728 128.459 336.789 123.777L339.749 113.312L352.069 84.8621Z"/>
	<path fill="#9FE8DE" transform="scale(0.488281 0.488281)" d="M352.069 84.8621C353.116 91.543 353.041 98.4504 353.108 105.2L353.291 132.276C353.337 141.318 354.473 151.721 352.887 160.564L349.445 154.104L339.369 136.549C337.713 132.265 335.728 128.459 336.789 123.777L339.749 113.312L352.069 84.8621Z"/>
	<path fill="#9FE8DE" transform="scale(0.488281 0.488281)" d="M674.06 40.4908L675 39.4428C677.988 40.7815 685.469 58.6855 687.019 62.75L689.524 70.1481C691.076 78.6687 692.507 87.4107 689.466 95.8384C687.441 101.93 684.557 107.281 681.217 112.74L675.857 119.561C675.379 120.37 675.347 120.888 674.425 121.191L667.327 111.538C663.934 106.177 661.311 100.852 659.186 94.8762C657.53 86.7005 658.626 78.993 660.324 70.9439C662.839 60.2926 668.473 49.8058 674.06 40.4908Z"/>
	<path fill="#50D1C0" transform="scale(0.488281 0.488281)" d="M674.06 40.4908L675 39.4428C677.988 40.7815 685.469 58.6855 687.019 62.75L689.524 70.1481C691.076 78.6687 692.507 87.4107 689.466 95.8384C687.441 101.93 684.557 107.281 681.217 112.74L675.857 119.561L674.06 40.4908Z"/>
	<path fill="#1AA491" transform="scale(0.488281 0.488281)" d="M631.92 405.43L634.813 413.569L639.265 420.984L639.033 421.47C629.855 421.668 620.491 425.239 612.006 428.499C578.132 441.509 548.402 461.708 523.338 487.846L504.906 508.927L493.983 498.747C498.773 490.84 505.794 483.49 512.12 476.766C530.134 457.618 552.083 440.61 575.258 428.19C593.327 418.506 612.335 411.347 631.92 405.43Z"/>
	<path fill="#50D1C0" transform="scale(0.488281 0.488281)" d="M639.033 421.47L613.914 454.997C610.239 455.39 605.935 458.031 602.576 459.577C574.568 472.474 549.982 495.009 530.828 518.843L523.291 529.127C517.415 522.378 511.661 514.782 504.906 508.927L523.338 487.846C548.402 461.708 578.132 441.509 612.006 428.499C620.491 425.239 629.855 421.668 639.033 421.47Z"/>
	<path fill="#1AA491" transform="scale(0.488281 0.488281)" d="M551.223 773.732L561.628 788.904L577.836 810.709C581.16 815.24 584.396 820.727 588.458 824.601C589.963 824.17 590.192 823.865 591.642 824.578L629.988 874.013L652.921 903.5C656.223 907.929 671.539 930.46 674.33 932.032C673.541 937.835 674.092 944.276 674.121 950.151C674.128 951.663 674.494 954.138 673.976 955.48C670.951 952.351 668.452 948.683 665.784 945.25L654.655 931.257L608.781 874.593L590.058 851.815C586.499 847.596 582.96 843.134 578.983 839.305C572.92 833.466 565.006 828.823 558.209 823.835L532.272 804.255L541.737 790.51L551.223 773.732Z"/>
	<path fill="#50D1C0" transform="scale(0.488281 0.488281)" d="M551.223 773.732L561.628 788.904L577.836 810.709C581.16 815.24 584.396 820.727 588.458 824.601L582.421 830.78L541.737 790.51L551.223 773.732Z"/>
	<path fill="#D4292A" transform="scale(0.488281 0.488281)" d="M647.043 287.598C653.847 281.159 662.442 277.634 671.79 277.537C683.122 277.556 692.236 280.267 700.559 288.088C704.287 292.304 707.457 296.605 709.424 301.93C712.044 309.974 712.504 316.696 710.713 325.018C707.039 335.875 701.289 344.817 690.743 350.071L682.63 353.216C680.783 353.809 678.475 353.611 676.53 353.632C668.157 353.72 661.42 352.298 654.055 348.25C645.758 343.69 640.709 336.566 637.764 327.711L637.625 327.4C635.16 319.583 634.897 312.356 636.907 304.403C639.245 297.847 642.285 292.671 647.043 287.598Z"/>
	<path fill="#A90A0A" transform="scale(0.488281 0.488281)" d="M671.79 277.537C683.122 277.556 692.236 280.267 700.559 288.088C704.287 292.304 707.457 296.605 709.424 301.93C712.044 309.974 712.504 316.696 710.713 325.018C707.039 335.875 701.289 344.817 690.743 350.071L682.63 353.216C680.783 353.809 678.475 353.611 676.53 353.632C668.157 353.72 661.42 352.298 654.055 348.25C645.758 343.69 640.709 336.566 637.764 327.711C639.699 328.031 642.511 330.899 644.267 332.124C647.203 334.172 650.51 335.831 654.033 336.533L654.75 336.669C658.507 337.404 662.634 337.267 666.345 336.359C675.288 334.17 682.727 328.023 687.334 320.155C690.82 314.199 691.638 304.965 689.847 298.349C687.678 290.336 682.657 283.788 675.366 279.789L671.79 277.537Z"/>
	<path fill="#FDB728" transform="scale(0.488281 0.488281)" d="M366.355 113.295C377.122 115.044 387.792 117.345 397.999 121.25C420.83 129.985 441.527 146.722 455.76 166.427C477.142 196.031 485.423 232.091 479.464 268.089C473.706 302.862 453.546 334.408 424.957 354.837C416.346 360.99 406.726 366.109 396.812 369.807C393.821 370.923 390.455 372.368 387.312 372.904C390.712 364.246 390.959 357.382 389.15 348.412C386.959 341.694 384.408 336.974 379.805 331.581C383.219 330.595 386.865 328.744 390.056 327.152C411.031 316.687 428.638 297.232 436.067 274.897C444.159 250.571 441.975 224.755 430.234 201.984C419.79 181.728 400.451 166.275 378.888 159.25C372.059 157.025 364.803 156.358 358.043 154.083L357.534 153.905L366.161 137.149C367.317 134.561 370.464 129.157 370.556 126.485C370.584 125.688 369.989 124.134 369.745 123.304L366.355 113.295Z"/>
	<path fill="#FA9302" transform="scale(0.488281 0.488281)" d="M357.534 153.905L366.161 137.149C391.033 138.929 416.912 154.026 432.966 172.69C451.076 193.745 461.953 223.03 459.755 250.84C457.476 279.676 444.59 308.803 422.245 327.691C416.122 332.867 409.422 337.565 402.5 341.607C399.762 343.206 396.936 344.597 394.048 345.9C392.474 346.61 390.359 347.221 389.15 348.412C386.959 341.694 384.408 336.974 379.805 331.581C383.219 330.595 386.865 328.744 390.056 327.152C411.031 316.687 428.638 297.232 436.067 274.897C444.159 250.571 441.975 224.755 430.234 201.984C419.79 181.728 400.451 166.275 378.888 159.25C372.059 157.025 364.803 156.358 358.043 154.083L357.534 153.905Z"/>
	<path fill="#FDB728" transform="scale(0.488281 0.488281)" d="M689.524 70.1481C725.088 76.4044 758.195 95.0336 779.127 125.006C799.536 154.229 807.975 189.34 801.517 224.6C795.238 258.887 776.523 288.552 747.637 308.303C736.99 315.583 723.42 322.297 710.713 325.018C712.504 316.696 712.044 309.974 709.424 301.93C707.457 296.605 704.287 292.304 700.559 288.088C702.818 286.111 706.307 285.148 708.996 283.784C713.73 281.383 718.379 278.837 722.788 275.875C742.4 262.698 755.478 241.996 759.958 218.913C764.545 195.278 760.209 172.019 746.579 152.067C735.655 136.077 719.243 123.062 700.724 117.086C694.373 115.037 687.758 113.992 681.217 112.74C684.557 107.281 687.441 101.93 689.466 95.8384C692.507 87.4107 691.076 78.6687 689.524 70.1481Z"/>
	<path fill="#FA9302" transform="scale(0.488281 0.488281)" d="M689.466 95.8384C715.234 98.8817 740.888 114.229 756.854 134.602C774.748 157.437 783.093 185.755 779.303 214.651C776.797 233.761 768.854 253.812 756.816 268.941C750.836 276.455 743.614 282.914 735.991 288.711C728.381 294.497 718.625 299.285 709.424 301.93C707.457 296.605 704.287 292.304 700.559 288.088C702.818 286.111 706.307 285.148 708.996 283.784C713.73 281.383 718.379 278.837 722.788 275.875C742.4 262.698 755.478 241.996 759.958 218.913C764.545 195.278 760.209 172.019 746.579 152.067C735.655 136.077 719.243 123.062 700.724 117.086C694.373 115.037 687.758 113.992 681.217 112.74C684.557 107.281 687.441 101.93 689.466 95.8384Z"/>
	<path fill="#F9D683" transform="scale(0.488281 0.488281)" d="M637.625 327.4C632.626 325.277 627.3 323.804 622.232 321.808C609.636 316.846 598.44 309.697 588.115 300.99C561.903 278.885 546.137 244.816 543.593 210.839C540.988 176.045 552.267 141.272 574.986 114.833C590.309 97.0014 611.887 81.8547 634.569 75.1726C642.936 72.7078 651.651 71.5942 660.324 70.9439C658.626 78.993 657.53 86.7005 659.186 94.8762C661.311 100.852 663.934 106.177 667.327 111.538L666.8 111.711C660.052 113.875 653.027 115.018 646.262 117.261C623.989 124.647 606.744 139.837 595.908 160.605C584.523 182.428 582.697 206.733 590.073 230.161C596.903 251.856 612.092 271.016 632.453 281.458L647.043 287.598C642.285 292.671 639.245 297.847 636.907 304.403C634.897 312.356 635.16 319.583 637.625 327.4Z"/>
	<path fill="#FA9302" transform="scale(0.488281 0.488281)" d="M636.907 304.403L625.709 299.07C618.112 295.081 610.972 290.07 604.398 284.572C582.806 266.511 569.52 239.353 567.257 211.428C564.841 181.617 573.219 153.601 592.699 130.75C608.944 111.694 633.864 96.8562 659.186 94.8762C661.311 100.852 663.934 106.177 667.327 111.538L666.8 111.711C660.052 113.875 653.027 115.018 646.262 117.261C623.989 124.647 606.744 139.837 595.908 160.605C584.523 182.428 582.697 206.733 590.073 230.161C596.903 251.856 612.092 271.016 632.453 281.458L647.043 287.598C642.285 292.671 639.245 297.847 636.907 304.403Z"/>
	<path fill="#F9D683" transform="scale(0.488281 0.488281)" d="M318.343 374.568L317.469 374.913C300.793 370 286.596 362.906 272.772 352.25C243.085 329.366 225.759 297.08 221.104 260.114C216.862 226.429 228.049 190.097 248.882 163.566C270.882 135.549 304.591 117.597 339.749 113.312L336.789 123.777C335.728 128.459 337.713 132.265 339.369 136.549L349.445 154.104C341.77 155.318 333.984 156.572 326.557 158.915C307.578 164.904 290.661 176.972 278.921 193.11C264.759 212.577 259.217 238.351 263.096 262.014C266.901 285.223 280.99 306.764 300.008 320.413C307.589 325.854 315.13 328.943 323.556 332.691C319.673 338.039 316.719 343.071 314.983 349.5L314.752 350.338L314.619 350.843C313.197 358.853 315.069 367.204 318.343 374.568Z"/>
	<path fill="#FA9302" transform="scale(0.488281 0.488281)" d="M314.619 350.843C306.221 349.053 296.077 342.441 289.217 337.445C265.034 319.833 248.17 292.619 243.613 263.078C239.056 233.531 246.827 203.565 264.685 179.702C282.776 155.528 309.769 140.841 339.369 136.549L349.445 154.104C341.77 155.318 333.984 156.572 326.557 158.915C307.578 164.904 290.661 176.972 278.921 193.11C264.759 212.577 259.217 238.351 263.096 262.014C266.901 285.223 280.99 306.764 300.008 320.413C307.589 325.854 315.13 328.943 323.556 332.691C319.673 338.039 316.719 343.071 314.983 349.5L314.752 350.338L314.619 350.843Z"/>
	<path fill="#EA6C4F" transform="scale(0.488281 0.488281)" d="M647.043 287.598L632.453 281.458C612.092 271.016 596.903 251.856 590.073 230.161C582.697 206.733 584.523 182.428 595.908 160.605C606.744 139.837 623.989 124.647 646.262 117.261C653.027 115.018 660.052 113.875 666.8 111.711L667.327 111.538L674.425 121.191C675.347 120.888 675.379 120.37 675.857 119.561L681.217 112.74C687.758 113.992 694.373 115.037 700.724 117.086C719.243 123.062 735.655 136.077 746.579 152.067C760.209 172.019 764.545 195.278 759.958 218.913C755.478 241.996 742.4 262.698 722.788 275.875C718.379 278.837 713.73 281.383 708.996 283.784C706.307 285.148 702.818 286.111 700.559 288.088C692.236 280.267 683.122 277.556 671.79 277.537C662.442 277.634 653.847 281.159 647.043 287.598Z"/>
	<path fill="#50D1C0" transform="scale(0.488281 0.488281)" d="M672.905 265.756C668.228 265.151 663.878 264.111 659.89 261.463C653.92 257.499 649.153 250.669 647.75 243.622C646.249 236.082 648.037 228.531 652.433 222.236C657.065 215.603 663.804 212.035 671.624 210.702L672.714 211.75L672.662 212.185C672.358 215.119 672.609 218.547 673.475 221.373C667.777 222.323 663.673 223.989 660.031 228.75C657.533 232.016 656.267 236.34 656.947 240.416C657.832 245.71 660.066 250.284 664.604 253.362C666.806 254.856 669.402 255.822 671.999 256.356C670.851 259.531 672.201 262.496 672.905 265.756Z"/>
	<path fill="#1AA491" transform="scale(0.488281 0.488281)" d="M671.624 210.702C679.92 210.05 686.781 212.185 693.105 217.634C698.426 222.219 701.495 228.654 701.956 235.64C702.491 243.725 700.404 250.657 694.962 256.743C689.438 262.921 682.557 265.414 674.499 265.77L672.905 265.756C672.201 262.496 670.851 259.531 671.999 256.356C676.51 256.272 680.543 255.518 684.25 252.769C687.935 250.037 690.525 245.594 690.938 241C691.391 235.953 689.869 231.077 686.599 227.184C682.937 222.823 678.821 221.945 673.475 221.373C672.609 218.547 672.358 215.119 672.662 212.185L672.714 211.75L671.624 210.702Z"/>
	<path fill="#DAFBFA" transform="scale(0.488281 0.488281)" d="M673.475 221.373C678.821 221.945 682.937 222.823 686.599 227.184C689.869 231.077 691.391 235.953 690.938 241C690.525 245.594 687.935 250.037 684.25 252.769C680.543 255.518 676.51 256.272 671.999 256.356C669.402 255.822 666.806 254.856 664.604 253.362C660.066 250.284 657.832 245.71 656.947 240.416C656.267 236.34 657.533 232.016 660.031 228.75C663.673 223.989 667.777 222.323 673.475 221.373Z"/>
	<path fill="#EA6C4F" transform="scale(0.488281 0.488281)" d="M352.887 160.564L353.743 161.416L357.534 153.905L358.043 154.083C364.803 156.358 372.059 157.025 378.888 159.25C400.451 166.275 419.79 181.728 430.234 201.984C441.975 224.755 444.159 250.571 436.067 274.897C428.638 297.232 411.031 316.687 390.056 327.152C386.865 328.744 383.219 330.595 379.805 331.581C384.408 336.974 386.959 341.694 389.15 348.412C390.959 357.382 390.712 364.246 387.312 372.904C381.438 383.42 374.82 390.256 362.95 393.652L358.055 394.871L356.695 395.067C352.443 395.182 347.958 395.47 343.835 394.27L342.11 393.799C332.827 391.449 324.497 384.741 319.634 376.567L318.343 374.568C315.069 367.204 313.197 358.853 314.619 350.843L314.752 350.338L314.983 349.5C316.719 343.071 319.673 338.039 323.556 332.691C315.13 328.943 307.589 325.854 300.008 320.413C280.99 306.764 266.901 285.223 263.096 262.014C259.217 238.351 264.759 212.577 278.921 193.11C290.661 176.972 307.578 164.904 326.557 158.915C333.984 156.572 341.77 155.318 349.445 154.104L352.887 160.564Z"/>
	<path fill="#1AA491" transform="scale(0.488281 0.488281)" d="M353.586 302.558C344.489 301.575 337.938 299.368 332.053 291.954C327.641 286.396 325.033 278.761 325.837 271.632C326.649 264.43 330.825 257.308 336.541 252.889C341.3 249.209 348.805 246.745 354.75 247.414C362.229 248.256 368.583 251.138 373.466 256.966C377.858 262.207 380.485 269.885 379.741 276.741C378.907 284.436 374.735 291.649 368.672 296.404C366.244 298.308 363.442 299.933 360.5 300.895C358.387 301.586 356.034 301.794 354.002 302.655L353.586 302.558Z"/>
	<path fill="#DAFBFA" transform="scale(0.488281 0.488281)" d="M350.896 257.613C354.351 257.451 357.412 258.062 360.447 259.783C364.858 262.283 367.891 266.34 369.092 271.255C370.129 275.497 369.145 280.09 366.9 283.786C364.174 288.273 360.121 290.274 355.217 291.527C351.769 291.614 348.94 291.419 345.75 289.923C341.797 288.069 338.358 284.098 337.03 279.966C335.527 275.291 335.661 270.885 338.112 266.549C340.963 261.504 345.485 258.971 350.896 257.613Z"/>
	<path fill="#D4292A" transform="scale(0.488281 0.488281)" d="M353.586 302.558L354.002 302.655L354.057 303.337L354.267 319.791C355.757 319.943 357.552 319.953 358.969 320.387C367.5 322.033 373.393 325.87 379.805 331.581C384.408 336.974 386.959 341.694 389.15 348.412C390.959 357.382 390.712 364.246 387.312 372.904C381.438 383.42 374.82 390.256 362.95 393.652L358.055 394.871L356.695 395.067C352.443 395.182 347.958 395.47 343.835 394.27L342.11 393.799C332.827 391.449 324.497 384.741 319.634 376.567L318.343 374.568C315.069 367.204 313.197 358.853 314.619 350.843L314.752 350.338L314.983 349.5C316.719 343.071 319.673 338.039 323.556 332.691C332.158 323.675 340.876 320.345 353.246 319.864L353.586 302.558Z"/>
	<path fill="#A90A0A" transform="scale(0.488281 0.488281)" d="M358.969 320.387C367.5 322.033 373.393 325.87 379.805 331.581C384.408 336.974 386.959 341.694 389.15 348.412C390.959 357.382 390.712 364.246 387.312 372.904C381.438 383.42 374.82 390.256 362.95 393.652L358.055 394.871L356.695 395.067C352.443 395.182 347.958 395.47 343.835 394.27L342.11 393.799C332.827 391.449 324.497 384.741 319.634 376.567C321.962 377.48 324.217 378.334 326.675 378.852L327.5 379.02C336.046 380.873 346.517 378.15 353.851 373.528C361.477 368.721 367.605 359.678 369.488 350.887L369.671 350C370.687 345.301 370.983 340.189 370.157 335.43C368.823 327.736 364.838 324.682 358.969 320.387Z"/>
	<path fill="#1AA491" transform="scale(0.488281 0.488281)" d="M310.474 444.882C311.46 448.672 312.878 452.204 314.515 455.756L317.021 459.804L320.79 463.678C315.079 469.599 310.176 476.219 305.025 482.62C304.165 483.688 301.573 487.571 300.403 488.107C290.568 500.023 280.3 511.675 271.212 524.182C257.856 542.562 246.059 562.335 233.953 581.556C225.184 595.479 215.266 609.142 210.106 624.933C204.636 641.671 203.891 659.634 205.6 677.07C209.129 713.066 225.203 747.96 252.104 772.567C257.281 777.046 262.472 781.546 268.114 785.438C286.224 797.928 306.98 806.296 328.582 810.32C336.334 811.764 344.165 812.347 352.013 812.944L373.986 811.313C373.06 812.345 372.125 812.671 370.741 812.763L369.69 812.803C367.969 812.878 365.546 813.111 363.872 813.54C360.827 814.318 357.452 813.51 354.294 814.173L353.087 814.406L352.975 823C355.38 823 361.724 823.684 363.5 822.5L366.789 822.392C368.077 822.39 366.571 822.413 368.25 822L370.998 822.125C370.093 822.94 368.342 822.856 367.14 822.978C363.612 823.336 359.822 823.352 356.358 823.895C354.977 824.112 353.591 824.044 352.196 824.024L352.387 845.889C352.425 848.888 351.972 853.123 352.845 855.931L352.613 856.031L353.164 961.929L352.835 962.593C351.798 969.269 353.935 976.716 352.409 983.498C350.058 981.139 348.082 978.164 346.023 975.539L335.849 962.806L289.629 904.72L279.303 892.003C277.558 889.864 275.772 887.183 273.683 885.4C270.543 882.72 263.809 880.711 259.955 878.822C205.269 852.013 159.043 803.922 139.258 745.868C131.183 722.175 127.495 697.959 127.435 673C127.422 667.17 127.311 661.31 127.801 655.496C129.019 641.026 131.886 626.883 135.697 612.89C139.223 599.949 143.635 586.903 149.597 574.866C175.238 523.096 218.303 483.466 270.733 459.66C283.659 453.791 297.055 449.436 310.474 444.882Z"/>
	<path fill="#016361" transform="scale(0.488281 0.488281)" d="M352.196 824.024C348.853 823.51 345.36 823.604 341.979 823.265C333.838 822.451 326.284 820.85 318.46 818.484C296.469 811.834 275.482 799.247 259.26 782.989C256.51 780.232 253.028 777.189 251.184 773.75L252.104 772.567C257.281 777.046 262.472 781.546 268.114 785.438C286.224 797.928 306.98 806.296 328.582 810.32C336.334 811.764 344.165 812.347 352.013 812.944L373.986 811.313C373.06 812.345 372.125 812.671 370.741 812.763L369.69 812.803C367.969 812.878 365.546 813.111 363.872 813.54C360.827 814.318 357.452 813.51 354.294 814.173L353.087 814.406L352.975 823C355.38 823 361.724 823.684 363.5 822.5L366.789 822.392C368.077 822.39 366.571 822.413 368.25 822L370.998 822.125C370.093 822.94 368.342 822.856 367.14 822.978C363.612 823.336 359.822 823.352 356.358 823.895C354.977 824.112 353.591 824.044 352.196 824.024Z"/>
	<path fill="#9FE8DE" transform="scale(0.488281 0.488281)" d="M352.835 962.593C350.714 960.662 348.731 956.705 347.004 954.295L333.227 935.583L300.616 892.164C291.536 879.943 282.866 867.291 272.842 855.818L352.613 856.031L353.164 961.929L352.835 962.593Z"/>
	<path fill="#50D1C0" transform="scale(0.488281 0.488281)" d="M300.403 488.107C295.306 489.47 290.096 492.279 285.314 494.513C262.371 505.232 242.05 518.546 224.151 536.539C215.646 545.089 207.512 554.238 200.701 564.208C178.453 596.776 167.799 635.192 167.963 674.397C168.179 725.862 191.827 773.471 226.182 810.713C240.297 826.013 256.212 839.609 270.992 854.255C270.683 858.97 269.018 864.302 268.213 869.062L237.582 850.085C189.497 816.089 155.349 764.355 145.537 706.073C136.265 651.003 150.614 593.853 183.089 548.621C208.103 513.781 243.36 486.741 282.835 470.319C293.816 465.751 305.245 461.707 317.021 459.804L320.79 463.678C315.079 469.599 310.176 476.219 305.025 482.62C304.165 483.688 301.573 487.571 300.403 488.107Z"/>
	<path fill="#087269" transform="scale(0.488281 0.488281)" d="M684.328 355.12C694.471 357.365 703.654 363.5 709.364 372.25C716.134 382.625 717.217 394.386 714.556 406.197L714.429 406.75C727.447 410.914 740.199 414.43 752.77 419.975C802.24 441.794 845.097 481.397 869.955 529.5C897.22 582.26 904.599 646.193 886.25 703.071C869.983 753.497 837.955 795.266 794.479 825.349C787.276 830.333 779.752 835.985 771.921 839.904L770.904 840.373C765.784 843.464 761.277 850.494 757.5 855.115L735.184 882.682L688.41 939.91L680.076 950.008C678.446 952.078 676.79 954.852 674.762 956.474L673.976 955.48C674.494 954.138 674.128 951.663 674.121 950.151C674.092 944.276 673.541 937.835 674.33 932.032C671.539 930.46 656.223 907.929 652.921 903.5L629.988 874.013L591.642 824.578C590.192 823.865 589.963 824.17 588.458 824.601C584.396 820.727 581.16 815.24 577.836 810.709L561.628 788.904L551.223 773.732L541.737 790.51L532.272 804.255C511.611 832.921 483.167 856.094 452.96 874.146L438.753 882.138C435.097 884.018 429.406 885.905 426.411 888.593C423.946 890.805 421.739 894.167 419.69 896.788L406.618 913.811L365.771 966.938L353.148 983.633L352.409 983.498C353.935 976.716 351.798 969.269 352.835 962.593L353.164 961.929L352.613 856.031L352.845 855.931C351.972 853.123 352.425 848.888 352.387 845.889L352.196 824.024C353.591 824.044 354.977 824.112 356.358 823.895C359.822 823.352 363.612 823.336 367.14 822.978C368.342 822.856 370.093 822.94 370.998 822.125L368.25 822C366.571 822.413 368.077 822.39 366.789 822.392L363.5 822.5C361.724 823.684 355.38 823 352.975 823L353.087 814.406L354.294 814.173C357.452 813.51 360.827 814.318 363.872 813.54C365.546 813.111 367.969 812.878 369.69 812.803L370.741 812.763C372.125 812.671 373.06 812.345 373.986 811.313L352.013 812.944C344.165 812.347 336.334 811.764 328.582 810.32C306.98 806.296 286.224 797.928 268.114 785.438C262.472 781.546 257.281 777.046 252.104 772.567C225.203 747.96 209.129 713.066 205.6 677.07C203.891 659.634 204.636 641.671 210.106 624.933C215.266 609.142 225.184 595.479 233.953 581.556C246.059 562.335 257.856 542.562 271.212 524.182C280.3 511.675 290.568 500.023 300.403 488.107C301.573 487.571 304.165 483.688 305.025 482.62C310.176 476.219 315.079 469.599 320.79 463.678L317.021 459.804L314.515 455.756C318.868 451.505 322.747 446.399 326.728 441.784C335.577 431.525 343.969 422.04 350.88 410.294C353.431 405.958 356.548 400.589 356.694 395.456L356.695 395.067L358.055 394.871C372.606 400.014 384.454 404.537 391.405 419.392C395.108 427.304 396.462 436.655 394.345 445.212C423.199 453.881 449.415 465.441 474.157 482.901C480.895 487.655 488.143 492.942 493.983 498.747L504.906 508.927C511.661 514.782 517.415 522.378 523.291 529.127L530.828 518.843C549.982 495.009 574.568 472.474 602.576 459.577C605.935 458.031 610.239 455.39 613.914 454.997L639.033 421.47L639.265 420.984L634.813 413.569L684.328 355.12Z"/>
	<path fill="#1AA491" transform="scale(0.488281 0.488281)" d="M551.223 773.732L559.873 754.793C568.959 761.721 578.143 768.714 587.908 774.667C614.055 790.607 643.365 800.986 674.038 802.762L674.039 817.797C674.042 819.641 673.719 822.255 674.328 823.974L673.931 824.128L622.83 824.013L603.33 824.062C599.566 824.078 595.326 823.854 591.642 824.578C590.192 823.865 589.963 824.17 588.458 824.601C584.396 820.727 581.16 815.24 577.836 810.709L561.628 788.904L551.223 773.732Z"/>
	<path fill="#50D1C0" transform="scale(0.488281 0.488281)" d="M414.916 855.908L430.588 855.868L353.164 961.929L352.613 856.031L352.845 855.931L414.916 855.908Z"/>
	<path fill="#50D1C0" transform="scale(0.488281 0.488281)" d="M674.328 823.974L755.844 823.648L740.992 842.731L715.664 876.157L693.055 906.662L680.493 924.168C678.735 926.576 676.82 929.868 674.451 931.634C673.725 928.664 674.112 924.942 674.106 921.86L674.082 902.276L673.931 824.128L674.328 823.974Z"/>
	<path fill="#9FE8DE" transform="scale(0.488281 0.488281)" d="M591.642 824.578C595.326 823.854 599.566 824.078 603.33 824.062L622.83 824.013L673.931 824.128L674.082 902.276L674.106 921.86C674.112 924.942 673.725 928.664 674.451 931.634L674.33 932.032C671.539 930.46 656.223 907.929 652.921 903.5L629.988 874.013L591.642 824.578Z"/>
	<path fill="#1AA491" transform="scale(0.488281 0.488281)" d="M709.079 421.899C716.201 422.004 722.907 424.184 729.661 426.303C761.766 436.38 794.059 457.212 817.445 481.272C857.437 522.417 883.724 579.704 882.901 637.663C882.361 675.721 872.913 710.34 853.842 743.264C849.611 750.569 845.234 757.872 840.118 764.6C833.199 773.7 825.063 781.964 816.859 789.902C804.918 801.456 791.604 811.425 778.013 820.928C776.179 822.21 773.91 824.423 771.918 825.173C767.862 821.879 761.968 822.891 756.965 822.846C765.839 812.81 776.706 804.563 786.551 795.521C808.778 775.107 828.903 749.551 840.93 721.748C846.678 708.461 851.615 694.105 854.287 679.857C861.017 643.976 857.143 604.386 843.475 570.5C823.517 521.021 783.265 475.987 733.672 454.972L709.079 421.899Z"/>
	<path fill="#1AA491" transform="scale(0.488281 0.488281)" d="M400.752 487.298L383.277 464.949L387.782 459.264C397.176 460.985 406.213 464.108 415.112 467.53C442.185 477.938 469.07 494.295 490.325 514.09C502.24 525.188 512.773 537.643 522.002 551.048C553.588 596.93 566.653 656.361 556.347 711.229C547.302 759.389 524.265 801.349 487 833.448C476.038 842.891 463.966 851.192 452.044 859.369L434.523 869.443L432.852 855.129L431.938 854.75L430.588 855.868L414.916 855.908C419.906 855.236 425.535 855.524 430.598 855.39C433.827 851.598 437.658 848.207 441.14 844.64C445.591 840.082 449.853 835.366 454.598 831.104C458.648 827.466 462.969 824.209 466.868 820.392C472.558 814.823 477.69 808.429 482.742 802.278C499.1 782.361 512.722 761.602 521.753 737.326C538.931 691.145 536.98 639.415 516.351 594.588C504.31 568.422 486.383 544.271 464.374 525.632C453.089 516.075 440.994 508.146 428.2 500.798C419.584 495.85 410.088 490.737 400.752 487.298Z"/>
	<path fill="#087269" transform="scale(0.488281 0.488281)" d="M400.752 487.298C410.088 490.737 419.584 495.85 428.2 500.798C440.994 508.146 453.089 516.075 464.374 525.632C486.383 544.271 504.31 568.422 516.351 594.588C536.98 639.415 538.931 691.145 521.753 737.326C512.722 761.602 499.1 782.361 482.742 802.278C477.69 808.429 472.558 814.823 466.868 820.392C462.969 824.209 458.648 827.466 454.598 831.104C449.853 835.366 445.591 840.082 441.14 844.64C437.658 848.207 433.827 851.598 430.598 855.39C425.535 855.524 419.906 855.236 414.916 855.908L352.845 855.931C351.972 853.123 352.425 848.888 352.387 845.889L352.196 824.024C353.591 824.044 354.977 824.112 356.358 823.895C359.822 823.352 363.612 823.336 367.14 822.978C368.342 822.856 370.093 822.94 370.998 822.125L368.25 822C366.571 822.413 368.077 822.39 366.789 822.392L363.5 822.5C361.724 823.684 355.38 823 352.975 823L353.087 814.406L354.294 814.173C357.452 813.51 360.827 814.318 363.872 813.54C365.546 813.111 367.969 812.878 369.69 812.803L370.741 812.763C372.125 812.671 373.06 812.345 373.986 811.313C395.679 807.223 414.48 799.743 432.589 786.992C465.64 763.72 488.754 727.507 495.581 687.632C499.352 665.606 497.46 643.068 489.781 622.041C485.223 609.557 476.842 598.076 469.807 586.85L430.731 527.276L400.752 487.298Z"/>
	<path fill="#FA9302" transform="scale(0.488281 0.488281)" d="M358.055 394.871C372.606 400.014 384.454 404.537 391.405 419.392C395.108 427.304 396.462 436.655 394.345 445.212C392.614 450.233 390.689 454.806 387.782 459.264L383.277 464.949L400.752 487.298L430.731 527.276L469.807 586.85C476.842 598.076 485.223 609.557 489.781 622.041C497.46 643.068 499.352 665.606 495.581 687.632C488.754 727.507 465.64 763.72 432.589 786.992C414.48 799.743 395.679 807.223 373.986 811.313L352.013 812.944L351.965 768.075C357.922 768.104 363.616 766.763 369.312 765.147C383.358 761.162 395.355 754.999 407.232 746.513C431.268 729.34 446.676 701.276 451.691 672.552L453.048 659.013C450.493 658.492 447.385 657.159 444.829 657.076C443.34 657.028 442.152 657.691 440.629 657.449C440.099 658.978 439.833 660.448 439.584 662.044C439.493 651.567 438.143 641.284 434.707 631.348C429.748 617.003 421.08 603.139 414.162 589.613L377.724 519.881L354.024 475.67C351.874 475.684 349.336 475.412 347.283 476.021C345.061 475.938 342.391 475.086 340.25 474.47C332.588 472.265 326.583 469.224 320.79 463.678L317.021 459.804L314.515 455.756C318.868 451.505 322.747 446.399 326.728 441.784C335.577 431.525 343.969 422.04 350.88 410.294C353.431 405.958 356.548 400.589 356.694 395.456L356.695 395.067L358.055 394.871Z"/>
	<path fill="#FDB728" transform="scale(0.488281 0.488281)" d="M354.024 475.67L354.582 475.627C359.955 475.165 365.287 473.498 370.504 472.18L393.674 516.222L419.76 566.615C429.572 585.859 441.524 604.69 448.535 625.177C452.024 635.372 454.306 648.204 453.048 659.013C450.493 658.492 447.385 657.159 444.829 657.076C443.34 657.028 442.152 657.691 440.629 657.449C440.099 658.978 439.833 660.448 439.584 662.044C439.493 651.567 438.143 641.284 434.707 631.348C429.748 617.003 421.08 603.139 414.162 589.613L377.724 519.881L354.024 475.67Z"/>
	<path fill="#FA9302" transform="scale(0.488281 0.488281)" d="M684.328 355.12C694.471 357.365 703.654 363.5 709.364 372.25C716.134 382.625 717.217 394.386 714.556 406.197L714.429 406.75L714.14 407.495L707.738 420.291C708.172 420.908 708.52 421.383 709.079 421.899L733.672 454.972L790.504 539.5C798.99 552.994 807.995 566.747 813.606 581.75C820.48 600.127 822.846 619.278 822.681 638.811C822.593 649.245 821.886 660.008 819.778 670.248C811.624 709.85 787.889 741.297 754.521 763.299C731.28 778.624 701.613 786.634 673.908 786.551L673.877 741.938C674.006 740.026 674.416 728.304 673.914 727C673.772 726.63 673.397 726.4 673.138 726.1C687.418 726.089 701.012 722.023 713.578 715.359C738.008 702.402 754.571 680.439 762.462 654.099C766.62 640.219 769.731 622.54 766.92 608.222C764.974 598.31 760.275 588.858 755.879 579.84L740.163 548.663L681.076 436.572C675.739 437.21 671.263 437.771 665.91 436.787C665.275 436.67 664.848 436.652 664.214 436.757L663.854 437.017C662.088 435.843 659.294 435.3 657.274 434.493C649.704 431.464 644.293 427.393 639.265 420.984L634.813 413.569L684.328 355.12Z"/>
	<path fill="#FDB728" transform="scale(0.488281 0.488281)" d="M681.076 436.572L693.968 432.172L715.704 472.253L742.892 522.754L759.905 554.429C768.342 569.69 777.761 584.54 781.791 601.701C785.404 617.087 783.228 636.374 779.35 651.656C771.861 681.172 754.06 710.499 727.321 726.344C711.446 735.75 692.453 742.05 673.877 741.938C674.006 740.026 674.416 728.304 673.914 727C673.772 726.63 673.397 726.4 673.138 726.1C687.418 726.089 701.012 722.023 713.578 715.359C738.008 702.402 754.571 680.439 762.462 654.099C766.62 640.219 769.731 622.54 766.92 608.222C764.974 598.31 760.275 588.858 755.879 579.84L740.163 548.663L681.076 436.572Z"/>
	<path fill="#A90A0A" transform="scale(0.488281 0.488281)" d="M639.265 420.984C644.293 427.393 649.704 431.464 657.274 434.493C659.294 435.3 662.088 435.843 663.854 437.017L664.214 436.757C664.848 436.652 665.275 436.67 665.91 436.787C671.263 437.771 675.739 437.21 681.076 436.572L740.163 548.663L755.879 579.84C760.275 588.858 764.974 598.31 766.92 608.222C769.731 622.54 766.62 640.219 762.462 654.099C754.571 680.439 738.008 702.402 713.578 715.359C701.012 722.023 687.418 726.089 673.138 726.1C673.397 726.4 673.772 726.63 673.914 727C674.416 728.304 674.006 740.026 673.877 741.938L673.908 786.551L666.713 786.458C638.844 784.99 612.794 774.443 589.718 759.179C580.652 753.183 572.041 746.696 564.712 738.612C564.758 736.072 566.051 733.169 566.731 730.712C582.91 672.287 572.764 610.962 543.221 558.614L523.291 529.127L530.828 518.843C549.982 495.009 574.568 472.474 602.576 459.577C605.935 458.031 610.239 455.39 613.914 454.997L639.033 421.47L639.265 420.984Z"/>
	<path fill="#D4292A" transform="scale(0.488281 0.488281)" d="M723.027 551.447L729.945 564.5L739.806 583.043C743.536 590.282 747.392 597.93 748.61 606.055C749.849 614.313 748.52 624.108 746.366 632.166C743.624 642.421 739.831 652.314 733.914 661.184C725.732 673.451 713.501 683.281 700.788 690.537C692.893 695.043 683.056 699.598 674.002 700.842L674.018 664.896C674.029 659.11 673.418 652.418 674.438 646.75L678.282 646.083L666.825 645.398L721.12 588.288L719.522 582.626C722.915 572.614 722.976 561.878 723.027 551.447Z"/>
	<path fill="#DAFBFA" transform="scale(0.488281 0.488281)" d="M666.825 645.398L721.12 588.288C723.301 602.137 721.482 614.647 713.201 626.134C705.438 636.904 694.193 643.723 681.146 645.738L678.282 646.083L666.825 645.398Z"/>
	<path fill="#EA6C4F" transform="scale(0.488281 0.488281)" d="M674.002 700.842C669.179 700.257 663.621 697.752 659.311 695.604C638.701 685.335 622.58 671.561 609.787 652.373C605.586 646.072 601.517 639.204 599.15 631.969C596.221 623.019 594.75 611.73 596.953 602.5C598.562 595.756 601.928 589.193 604.952 583L618.18 556.503L662.3 469.246L672.331 448.416C673.505 450.306 674.374 452.34 675.298 454.359L723.027 551.447C722.976 561.878 722.915 572.614 719.522 582.626L721.12 588.288L666.825 645.398L678.282 646.083L674.438 646.75C673.418 652.418 674.029 659.11 674.018 664.896L674.002 700.842Z"/>
	<path fill="#DAFBFA" transform="scale(0.488281 0.488281)" d="M674.005 553.978C682.094 554.085 688.186 555.082 695.805 557.756L633.211 620.918C630.68 616.566 629.239 611.014 628.688 606.04C627.307 593.583 631.298 580.592 639.24 570.941C648.01 560.285 660.563 555.224 674.005 553.978Z"/>
	<path fill="#50D1C0" transform="scale(0.488281 0.488281)" d="M695.805 557.756C707.234 563.119 714.451 571.228 719.522 582.626L721.12 588.288L666.825 645.398C664.116 644.882 661.353 644.392 658.75 643.466C647.914 639.613 638.259 631.281 633.211 620.918L695.805 557.756Z"/>
	<path fill="#F9D683" transform="scale(0.488281 0.488281)" d="M639.265 420.984C644.293 427.393 649.704 431.464 657.274 434.493C659.294 435.3 662.088 435.843 663.854 437.017L638.735 484.126L608.052 544.071L591.248 577.824C586.823 586.901 581.859 596.119 579.197 605.905C575.92 617.953 575.649 630.677 579.387 642.664C588.684 672.475 613.209 702.908 641.031 717.302C650.895 722.405 661.99 725.769 673.138 726.1C673.397 726.4 673.772 726.63 673.914 727C674.416 728.304 674.006 740.026 673.877 741.938L673.908 786.551L666.713 786.458C638.844 784.99 612.794 774.443 589.718 759.179C580.652 753.183 572.041 746.696 564.712 738.612C564.758 736.072 566.051 733.169 566.731 730.712C582.91 672.287 572.764 610.962 543.221 558.614L523.291 529.127L530.828 518.843C549.982 495.009 574.568 472.474 602.576 459.577C605.935 458.031 610.239 455.39 613.914 454.997L639.033 421.47L639.265 420.984Z"/>
	<path fill="#1AA491" transform="scale(0.488281 0.488281)" d="M523.291 529.127L530.828 518.843C549.982 495.009 574.568 472.474 602.576 459.577C605.935 458.031 610.239 455.39 613.914 454.997L569.152 519.455L552.671 544.529C549.789 548.984 546.846 554.844 543.221 558.614L523.291 529.127Z"/>
	<path fill="#A90A0A" transform="scale(0.488281 0.488281)" d="M320.79 463.678C326.583 469.224 332.588 472.265 340.25 474.47C342.391 475.086 345.061 475.938 347.283 476.021C349.336 475.412 351.874 475.684 354.024 475.67L377.724 519.881L414.162 589.613C421.08 603.139 429.748 617.003 434.707 631.348C438.143 641.284 439.493 651.567 439.584 662.044C439.833 660.448 440.099 658.978 440.629 657.449C442.152 657.691 443.34 657.028 444.829 657.076C447.385 657.159 450.493 658.492 453.048 659.013L451.691 672.552C446.676 701.276 431.268 729.34 407.232 746.513C395.355 754.999 383.358 761.162 369.312 765.147C363.616 766.763 357.922 768.104 351.965 768.075L352.013 812.944C344.165 812.347 336.334 811.764 328.582 810.32C306.98 806.296 286.224 797.928 268.114 785.438C262.472 781.546 257.281 777.046 252.104 772.567C225.203 747.96 209.129 713.066 205.6 677.07C203.891 659.634 204.636 641.671 210.106 624.933C215.266 609.142 225.184 595.479 233.953 581.556C246.059 562.335 257.856 542.562 271.212 524.182C280.3 511.675 290.568 500.023 300.403 488.107C301.573 487.571 304.165 483.688 305.025 482.62C310.176 476.219 315.079 469.599 320.79 463.678Z"/>
	<path fill="#EA6C4F" transform="scale(0.488281 0.488281)" d="M352.151 735.566L351.702 735.743C350.473 735.636 349.595 735.047 348.55 734.458C321.816 719.365 293.01 700.915 284.389 669.326C281.514 658.793 280.812 646.879 283.499 636.25C286.604 623.963 293.249 612.378 298.912 601.133L320.2 559.225L350.759 498.69L351.56 499.534L351.952 598.859L349.022 599.019C345.965 604.055 340.567 608.668 336.413 612.869L318.577 631.079L308.3 641.048C308.31 651.168 311.426 659.603 317.691 667.539C323.993 674.003 328.711 677.2 337.1 680.395C342.049 681.961 346.981 682.517 352.156 682.559L352.151 735.566Z"/>
	<path fill="#9FE8DE" transform="scale(0.488281 0.488281)" d="M308.3 641.048C308.497 631.626 311.405 621.087 317.558 613.75C325.962 603.729 336.381 600.246 349.022 599.019C345.965 604.055 340.567 608.668 336.413 612.869L318.577 631.079L308.3 641.048Z"/>
	<path fill="#D4292A" transform="scale(0.488281 0.488281)" d="M351.56 499.534C356.756 506.188 360.234 515.038 364.132 522.519L387.007 566.381L405.75 602.886C410.756 612.527 416.834 622.299 420.374 632.587C422.98 640.159 423.55 648.586 422.561 656.508C419.513 680.907 400.593 703.348 381.75 717.911C372.787 724.838 362.343 730.683 352.151 735.566L352.156 682.559C346.981 682.517 342.049 681.961 337.1 680.395C328.711 677.2 323.993 674.003 317.691 667.539C311.426 659.603 308.31 651.168 308.3 641.048L318.577 631.079L336.413 612.869C340.567 608.668 345.965 604.055 349.022 599.019L351.952 598.859L351.56 499.534Z"/>
	<path fill="#9BC39B" transform="scale(0.488281 0.488281)" d="M389.858 626.953C392.986 638.422 392.782 650.197 386.777 660.779C381.071 670.831 371.268 678.419 360.064 681.309L352.156 682.559C346.981 682.517 342.049 681.961 337.1 680.395L337.555 680.012L368.751 648.699L381.597 635.213C384.246 632.396 386.715 629.226 389.858 626.953Z"/>
	<path fill="#50D1C0" transform="scale(0.488281 0.488281)" d="M317.691 667.539C322.877 663.86 327.538 658.126 332.095 653.61L376.313 607.989C382.933 613.685 386.442 618.885 389.858 626.953C386.715 629.226 384.246 632.396 381.597 635.213L368.751 648.699L337.555 680.012L337.1 680.395C328.711 677.2 323.993 674.003 317.691 667.539Z"/>
	<path fill="#FEFFFF" transform="scale(0.488281 0.488281)" d="M351.952 598.859C361.455 600.135 368.507 602.244 376.313 607.989L332.095 653.61C327.538 658.126 322.877 663.86 317.691 667.539C311.426 659.603 308.31 651.168 308.3 641.048L318.577 631.079L336.413 612.869C340.567 608.668 345.965 604.055 349.022 599.019L351.952 598.859Z"/>
	<path fill="#F9D683" transform="scale(0.488281 0.488281)" d="M320.79 463.678C326.583 469.224 332.588 472.265 340.25 474.47C342.391 475.086 345.061 475.938 347.283 476.021L331.331 506.455L303.205 561.199L285.95 595.395C280.158 606.866 274.238 618.443 269.817 630.526C267.127 637.877 265.843 645.464 264.819 653.184C261.899 675.205 270.081 700.315 283.625 717.663C300.182 738.87 323.706 750.338 349.953 753.823C353.773 754.33 357.547 753.625 361.295 752.944C375.235 750.412 389.981 744.136 401.114 735.331C420.848 719.721 436.11 694.187 439.053 669L439.584 662.044C439.833 660.448 440.099 658.978 440.629 657.449C442.152 657.691 443.34 657.028 444.829 657.076C447.385 657.159 450.493 658.492 453.048 659.013L451.691 672.552C446.676 701.276 431.268 729.34 407.232 746.513C395.355 754.999 383.358 761.162 369.312 765.147C363.616 766.763 357.922 768.104 351.965 768.075L352.013 812.944C344.165 812.347 336.334 811.764 328.582 810.32C306.98 806.296 286.224 797.928 268.114 785.438C262.472 781.546 257.281 777.046 252.104 772.567C225.203 747.96 209.129 713.066 205.6 677.07C203.891 659.634 204.636 641.671 210.106 624.933C215.266 609.142 225.184 595.479 233.953 581.556C246.059 562.335 257.856 542.562 271.212 524.182C280.3 511.675 290.568 500.023 300.403 488.107C301.573 487.571 304.165 483.688 305.025 482.62C310.176 476.219 315.079 469.599 320.79 463.678Z"/>
</svg>
