<?xml version="1.0" encoding="utf-8" ?>
<svg xmlns="http://www.w3.org/2000/svg" xmlns:xlink="http://www.w3.org/1999/xlink" width="500" height="500">
	<path fill="#4F8585" transform="scale(0.488281 0.488281)" d="M0 1.5L0.117188 0.367188C1.0405 -0.518439 10.3608 -0.000109703 12.5166 -0.000133563L679.998 -0.00441278L1023.44 0.0625L1024 1L1024 870.973L1024 1024L-0 1024L0 871.106L0 1.5Z"/>
	<path fill="#17444E" transform="scale(0.488281 0.488281)" d="M674.287 95.4077C678.486 94.0885 684.976 94.9767 689.454 94.9975L689.488 107.027L674.307 107.019L674.287 95.4077Z"/>
	<path fill="#6A9E99" transform="scale(0.488281 0.488281)" d="M0 1.5L0.117188 0.367188C1.0405 -0.518439 10.3608 -0.000109703 12.5166 -0.000133563L679.998 -0.00441278L1023.44 0.0625L1024 1C1021.81 0.100667 1019.14 0.452748 1016.8 0.473238L1004.55 0.548595L957.662 0.562329L811.977 0.565864L239.711 0.545246L77.0223 0.525789L1 0.569876L0 1.5Z"/>
	<path fill="#17444E" transform="scale(0.488281 0.488281)" d="M144.507 218.056C148.121 219.298 154.28 218.521 158.215 218.516L186.974 218.408L187.007 262.546L144.46 262.546L144.507 218.056Z"/>
	<path fill="#17444E" transform="scale(0.488281 0.488281)" d="M891.422 119.072L926.198 119.025L926.259 217.983L878.97 218L879.04 192.966L840.398 192.91L840.051 193.065L840.046 177.751C845.042 178.65 851.118 178.051 856.25 178.067L891.128 178.145L891 135.537L890.999 125.174C891.001 123.535 890.788 121.628 891.232 120.057L891.448 119.35L891.422 119.072Z"/>
	<path fill="#2F3A53" transform="scale(0.488281 0.488281)" d="M840.046 177.751C845.042 178.65 851.118 178.051 856.25 178.067L891.128 178.145L891 135.537L890.999 125.174C891.001 123.535 890.788 121.628 891.232 120.057L891.448 119.35L891.535 192.685L853.888 192.635C850.158 192.628 843.808 191.711 840.398 192.91L840.051 193.065L840.046 177.751Z"/>
	<path fill="#4C5B74" transform="scale(0.488281 0.488281)" d="M689.488 107.027L840.784 107.076L878.16 107.005L887.433 106.982C888.543 106.98 890.048 106.775 891.036 107.253C890.999 110.096 890.116 116.742 891.422 119.072L891.448 119.35L891.232 120.057C890.788 121.628 891.001 123.535 890.999 125.174L891 135.537L891.128 178.145L856.25 178.067C851.118 178.051 845.042 178.65 840.046 177.751C837.002 176.979 832.511 177.503 829.319 177.493L803.348 177.434L689.674 177.43C684.557 177.434 679.115 177.824 674.05 177.1L674.307 107.019L689.488 107.027Z"/>
	<path fill="#161B35" transform="scale(0.488281 0.488281)" d="M674.307 107.019L689.488 107.027L689.674 177.43C684.557 177.434 679.115 177.824 674.05 177.1L674.307 107.019Z"/>
	<path fill="#4C5B74" transform="scale(0.488281 0.488281)" d="M118.452 177.995L118.485 107.042L348.972 107.042L348.978 176.756L233.229 176.816L201.24 176.83C196.718 176.846 191.302 176.271 186.932 177.201L186.965 192.948L186.974 218.408L158.215 218.516C154.28 218.521 148.121 219.298 144.507 218.056C141.773 214.692 138.361 211.727 135.252 208.706L119.491 193.718L118.446 192.738L118.452 177.995Z"/>
	<path fill="#2F3A53" transform="scale(0.488281 0.488281)" d="M186.932 177.201L186.965 192.948C179.27 192.961 121.974 192.29 119.491 193.718L118.446 192.738L118.452 177.995L163.05 177.961C170.676 177.921 179.449 178.677 186.932 177.201Z"/>
	<path fill="#161B35" transform="scale(0.488281 0.488281)" d="M119.491 193.718C121.974 192.29 179.27 192.961 186.965 192.948L186.974 218.408L158.215 218.516C154.28 218.521 148.121 219.298 144.507 218.056C141.773 214.692 138.361 211.727 135.252 208.706L119.491 193.718Z"/>
	<path fill="#3B5269" transform="scale(0.488281 0.488281)" d="M144.46 262.546L187.007 262.546C186.983 316.451 187.285 873.523 186.655 874.348C186.029 871.569 186.595 867.392 186.61 864.463L144.244 864.578C144.963 858.616 144.434 851.912 144.436 845.88L144.413 806.759L144.431 678.978L144.309 441.096L144.46 262.546Z"/>
	<defs>
		<linearGradient id="gradient_0" gradientUnits="userSpaceOnUse" x1="499.69849" y1="79.650238" x2="521.776" y2="199.71086">
			<stop offset="0" stop-color="#151A35"/>
			<stop offset="1" stop-color="#082A51"/>
		</linearGradient>
	</defs>
	<path fill="url(#gradient_0)" transform="scale(0.488281 0.488281)" d="M348.972 107.042L348.82 92.8557C348.804 90.97 348.462 88.0617 349.083 86.2655C349.513 85.0229 351.314 83.133 352.569 82.7803C354.053 82.3629 356.225 82.5872 357.784 82.5885L369.593 82.6382L419.663 82.5785L574.929 82.5492L664.866 82.7526C667.465 82.7891 670.881 82.459 673.25 83.4947C674.827 85.5449 674.104 92.5048 674.287 95.4077L674.307 107.019L674.05 177.1C669.868 176.861 665.628 177.003 661.437 177.022C658.528 177.036 655.339 176.806 652.479 177.257C648.935 177.791 645.064 177.508 641.479 177.513L622.328 177.522L554.471 177.528L434.887 177.518L369.273 177.16L369.134 158.25L369.018 176.925L348.978 176.756L348.972 107.042Z"/>
	<path fill="#2F3A53" transform="scale(0.488281 0.488281)" d="M551.768 114.088L652.501 114.324L652.494 170.524L652.147 170.344C651.066 169.97 650.405 169.709 649.418 169.057L646.7 168.667L646.885 157.877C646.908 155.77 646.689 153.527 647.509 151.559C648.079 149.994 647.831 148.085 647.8 146.416C647.215 140.689 647.614 134.504 647.736 128.738C647.889 126.787 647.744 124.972 647.554 123.027C647.036 120.312 647.088 117.289 646.937 114.518L551.768 114.088Z"/>
	<path fill="#FEFCFD" transform="scale(0.488281 0.488281)" d="M646.7 168.667L649.418 169.057L649.25 173.73C648.893 173.907 648.683 174.039 648.25 174.094C642.757 174.793 636.335 174.111 630.747 174.11L587.999 174.074L448.276 174.073L392.602 174.04L378.63 174.024C376.943 174.022 375.086 174.37 373.631 173.497L373.556 170C374.832 168.728 378.546 169.263 380.422 169.243L584.018 168.928L628.992 169.006L640.712 168.989C642.592 168.987 644.918 169.25 646.7 168.667Z"/>
	<defs>
		<linearGradient id="gradient_1" gradientUnits="userSpaceOnUse" x1="509.45621" y1="143.24039" x2="517.37506" y2="93.812691">
			<stop offset="0" stop-color="#0A2444"/>
			<stop offset="1" stop-color="#506C80"/>
		</linearGradient>
	</defs>
	<path fill="url(#gradient_1)" transform="scale(0.488281 0.488281)" d="M380.072 118.751C380.047 117.024 379.553 114.722 380.75 113.475L551.768 114.088L646.937 114.518C647.088 117.289 647.036 120.312 647.554 123.027L403.719 123.01L379.991 123.112L380.072 118.751Z"/>
	<defs>
		<linearGradient id="gradient_2" gradientUnits="userSpaceOnUse" x1="384.70752" y1="182.82729" x2="567.64539" y2="137.08438">
			<stop offset="0" stop-color="#122E47"/>
			<stop offset="1" stop-color="#3D6876"/>
		</linearGradient>
	</defs>
	<path fill="url(#gradient_2)" transform="scale(0.488281 0.488281)" d="M415.955 146.429L647.8 146.416C647.831 148.085 648.079 149.994 647.509 151.559C646.689 153.527 646.908 155.77 646.885 157.877L646.7 168.667C644.918 169.25 642.592 168.987 640.712 168.989L628.992 169.006L584.018 168.928L380.422 169.243C379.273 163.919 380.208 157.053 380.03 151.541C378.045 151.516 373.619 152.079 372.308 150.75L372.456 147C374.538 145.716 381.779 146.514 384.445 146.514L415.955 146.429Z"/>
	<path fill="#556E80" transform="scale(0.488281 0.488281)" d="M415.955 146.429L647.8 146.416C647.831 148.085 648.079 149.994 647.509 151.559C646.689 153.527 646.908 155.77 646.885 157.877L646.7 168.667C644.918 169.25 642.592 168.987 640.712 168.989L628.992 169.006L584.018 168.928C582.528 168.272 580.875 168.513 579.262 168.509L569.75 168.5L569.303 167.45L566.499 167.003L565.803 165.327C565.488 164.56 565.296 164.033 564.743 163.399L564.358 162.999C564.397 161.096 564.567 159.69 565.498 157.998C567.097 157.298 568.795 156.519 570.047 155.272C570.708 154.613 571.341 153.468 572.056 152.937C573.34 151.983 581.686 152.594 583.734 152.305L532.391 152.177L436.41 152.076L399.387 152.032C393.561 152.02 386.963 152.616 381.231 151.592L380.03 151.541C378.045 151.516 373.619 152.079 372.308 150.75L372.456 147C374.538 145.716 381.779 146.514 384.445 146.514L415.955 146.429Z"/>
	<path fill="#FEFCFD" transform="scale(0.488281 0.488281)" d="M415.955 146.429L647.8 146.416C647.831 148.085 648.079 149.994 647.509 151.559L381.231 151.592L380.03 151.541C378.045 151.516 373.619 152.079 372.308 150.75L372.456 147C374.538 145.716 381.779 146.514 384.445 146.514L415.955 146.429Z"/>
	<path fill="#3B5269" transform="scale(0.488281 0.488281)" d="M379.991 123.112L403.719 123.01L647.554 123.027C647.744 124.972 647.889 126.787 647.736 128.738C647.614 134.504 647.215 140.689 647.8 146.416L415.955 146.429C423.214 145.184 431.594 145.808 439 145.755L439.25 145.363C437.372 145.389 435.334 145.099 433.5 145.377C427.302 146.318 419.839 145.507 413.5 145.5C411.901 146.566 407.964 146 405.968 146L381.745 146L381.268 129.786C384.951 129.316 388.58 129.647 392.269 129.625L415.879 129.54C419.45 129.534 423.437 129.874 426.942 129.233L395.69 129.173C388.632 129.168 381.448 129.384 374.428 128.588C373.728 128.45 373.293 128.233 372.663 127.913C372.625 126.346 372.25 124.474 373.124 123.175L379.991 123.112Z"/>
	<path fill="#FEFCFD" transform="scale(0.488281 0.488281)" d="M379.991 123.112L403.719 123.01L647.554 123.027C647.744 124.972 647.889 126.787 647.736 128.738L374.428 128.588C373.728 128.45 373.293 128.233 372.663 127.913C372.625 126.346 372.25 124.474 373.124 123.175L379.991 123.112Z"/>
	<path fill="#F7AD19" transform="scale(0.488281 0.488281)" d="M348.972 107.042L348.82 92.8557C348.804 90.97 348.462 88.0617 349.083 86.2655C349.513 85.0229 351.314 83.133 352.569 82.7803C354.053 82.3629 356.225 82.5872 357.784 82.5885L369.593 82.6382L419.663 82.5785L574.929 82.5492L664.866 82.7526C667.465 82.7891 670.881 82.459 673.25 83.4947C674.827 85.5449 674.104 92.5048 674.287 95.4077L674.307 107.019L674.05 177.1C669.868 176.861 665.628 177.003 661.437 177.022C658.528 177.036 655.339 176.806 652.479 177.257L652.494 170.524L652.501 114.324L652.507 102.196L369.106 102.356L369.134 158.25L369.018 176.925L348.978 176.756L348.972 107.042Z"/>
	<path fill="#CD3338" transform="scale(0.488281 0.488281)" d="M369.134 158.25L369.273 177.16L434.887 177.518L554.471 177.528L622.328 177.522L641.479 177.513C645.064 177.508 648.935 177.791 652.479 177.257C655.339 176.806 658.528 177.036 661.437 177.022C665.628 177.003 669.868 176.861 674.05 177.1C679.115 177.824 684.557 177.434 689.674 177.43L803.348 177.434L829.319 177.493C832.511 177.503 837.002 176.979 840.046 177.751L840.051 193.065L840.398 192.91L879.04 192.966L878.97 218L879.181 262.547L879.405 339.173L879.269 471.684L879.291 724.315L879.004 832.12L878.946 859.239C878.942 862.809 878.396 867.471 879.214 870.927L879.06 871.333C875.558 870.377 870.458 871.036 866.794 871.033L839.651 871.157L839.544 896.354L839.297 910.382L818.689 899.679L812.457 896.446L799.487 889.902L793.952 887.145L715.645 887.496L708.499 887.564L708.808 754.066C712.479 753.647 716.545 753.924 720.25 753.906C730.016 753.861 739.98 754.27 749.717 753.573L793.708 753.467C793.162 748.527 793.613 743.04 793.603 738.053L793.661 702.952L793.708 598.76L794.072 404.433L794.075 222.238L230.134 222.342C229.623 223.378 229.838 224.683 229.845 225.826L229.884 235.117L229.987 274.294L230.034 450.726L229.932 651.747L230.088 753.035C230.81 757.819 230.46 762.983 230.477 767.821L230.551 795.014L230.951 887.989C228.532 888.612 226.375 889.319 224.089 890.354L211.606 895.926L204.492 899.421L186.841 908.34L186.688 895.585L186.655 874.348C187.285 873.523 186.983 316.451 187.007 262.546L186.974 218.408L186.965 192.948L186.932 177.201C191.302 176.271 196.718 176.846 201.24 176.83L233.229 176.816L348.978 176.756L369.018 176.925L369.134 158.25Z"/>
	<path fill="#111E26" transform="scale(0.488281 0.488281)" d="M840.398 192.91L879.04 192.966L878.97 218L879.181 262.547L839.909 262.836L840.051 193.065L840.398 192.91Z"/>
	<path fill="#8D151F" transform="scale(0.488281 0.488281)" d="M204.492 899.421C204.047 898.573 203.936 898.044 203.915 897.082L204.115 821.302L204.418 628.188L203.965 192.025L819.194 192.473L818.689 899.679L812.457 896.446L812.01 205.022L211.967 205.044L211.606 895.926L204.492 899.421Z"/>
	<path fill="#17444E" transform="scale(0.488281 0.488281)" d="M839.909 262.836L879.181 262.547L879.405 339.173L879.269 471.684L879.291 724.315L879.004 832.12L878.946 859.239C878.942 862.809 878.396 867.471 879.214 870.927L879.06 871.333C875.558 870.377 870.458 871.036 866.794 871.033L839.651 871.157L839.909 262.836Z"/>
	<path fill="#CD3338" transform="scale(0.488281 0.488281)" d="M211.606 895.926L211.967 205.044L812.01 205.022L812.457 896.446L799.487 889.902L793.952 887.145L715.645 887.496L708.499 887.564L708.808 754.066C712.479 753.647 716.545 753.924 720.25 753.906C730.016 753.861 739.98 754.27 749.717 753.573L793.708 753.467C793.162 748.527 793.613 743.04 793.603 738.053L793.661 702.952L793.708 598.76L794.072 404.433L794.075 222.238L230.134 222.342C229.623 223.378 229.838 224.683 229.845 225.826L229.884 235.117L229.987 274.294L230.034 450.726L229.932 651.747L230.088 753.035C230.81 757.819 230.46 762.983 230.477 767.821L230.551 795.014L230.951 887.989C228.532 888.612 226.375 889.319 224.089 890.354L211.606 895.926Z"/>
	<path fill="#8D151F" transform="scale(0.488281 0.488281)" d="M224.089 890.354L224.938 215.622L800.051 215.508L799.584 349.012L799.499 725.406L799.593 845.639L799.755 873.68C799.807 878.675 800.672 885.145 799.487 889.902L793.952 887.145C792.683 875.132 793.63 862.188 793.653 850.085L793.807 789.122L793.708 753.467C793.162 748.527 793.613 743.04 793.603 738.053L793.661 702.952L793.708 598.76L794.072 404.433L794.075 222.238L230.134 222.342C229.623 223.378 229.838 224.683 229.845 225.826L229.884 235.117L229.987 274.294L230.034 450.726L229.932 651.747L230.088 753.035C230.81 757.819 230.46 762.983 230.477 767.821L230.551 795.014L230.951 887.989C228.532 888.612 226.375 889.319 224.089 890.354Z"/>
	<path fill="#3B5269" transform="scale(0.488281 0.488281)" d="M749.717 753.573L793.708 753.467L793.807 789.122L793.653 850.085C793.63 862.188 792.683 875.132 793.952 887.145L715.645 887.496L708.499 887.564L708.808 754.066C712.479 753.647 716.545 753.924 720.25 753.906C730.016 753.861 739.98 754.27 749.717 753.573Z"/>
	<path fill="#17444E" transform="scale(0.488281 0.488281)" d="M144.244 864.578L186.61 864.463C186.595 867.392 186.029 871.569 186.655 874.348L186.688 895.585L186.841 908.34L204.492 899.421L211.606 895.926L224.089 890.354C226.375 889.319 228.532 888.612 230.951 887.989L305.48 888.462L316.273 888.487L320.788 888.506L333.712 888.538L345.985 888.567C347.931 888.574 350.148 888.365 352.04 888.754L353.808 888.212C360.446 889.635 368.669 888.693 375.495 888.663C377.934 888.652 380.707 888.458 383.093 888.979L383.445 888.863L469.809 888.997L557.176 889.046L640.92 889.095L660.156 888.917C663.748 888.897 667.758 889.25 671.217 888.216L672.687 888.307C674.9 887.306 678.053 887.634 680.464 887.62L694.531 887.579C698.22 887.548 702.425 887.937 706.047 887.461L708.499 887.564L715.645 887.496L793.952 887.145L799.487 889.902L812.457 896.446L818.689 899.679L839.297 910.382L839.544 896.354L839.651 871.157L866.794 871.033C870.458 871.036 875.558 870.377 879.06 871.333L879.214 870.927L1024 870.973L1024 1024L-0 1024L0 871.106L144.107 871.09L144.244 864.578Z"/>
	<path fill="#111E26" transform="scale(0.488281 0.488281)" d="M839.651 871.157L866.794 871.033C870.458 871.036 875.558 870.377 879.06 871.333L879.044 896.496L839.544 896.354L839.651 871.157Z"/>
	<path fill="#17444E" transform="scale(0.488281 0.488281)" d="M144.244 864.578L186.61 864.463C186.595 867.392 186.029 871.569 186.655 874.348L186.688 895.585L144.222 895.822L144.107 871.09L144.244 864.578Z"/>
	<path fill="#F9DAA4" transform="scale(0.488281 0.488281)" d="M230.951 887.989L305.48 888.462L206.937 953.507L99.5124 953.48C105.212 949.743 111.689 946.73 117.705 943.526L165.76 919.053C172.793 915.509 180.014 912.273 186.841 908.34L204.492 899.421L211.606 895.926L224.089 890.354C226.375 889.319 228.532 888.612 230.951 887.989Z"/>
	<path fill="#F5BF4E" transform="scale(0.488281 0.488281)" d="M352.04 888.754L353.808 888.212C360.446 889.635 368.669 888.693 375.495 888.663C377.934 888.652 380.707 888.458 383.093 888.979L320.419 953.523L206.937 953.507L305.48 888.462L316.273 888.487L320.788 888.506L333.712 888.538L345.985 888.567C347.931 888.574 350.148 888.365 352.04 888.754Z"/>
	<path fill="#F5BF4E" transform="scale(0.488281 0.488281)" d="M469.809 888.997L557.176 889.046L575.861 953.689L451.484 953.572C452.625 951.352 453.256 948.732 454.039 946.356L459.669 926.602L469.809 888.997Z"/>
	<path fill="#F9DAA4" transform="scale(0.488281 0.488281)" d="M557.176 889.046L640.92 889.095C647.683 894.875 653.804 901.368 660.013 907.728L691.612 940.999L699.174 948.896C700.512 950.273 702.32 951.753 703.072 953.526L575.861 953.689L557.176 889.046Z"/>
	<path fill="#F9DAA4" transform="scale(0.488281 0.488281)" d="M383.445 888.863L469.809 888.997L459.669 926.602L454.039 946.356C453.256 948.732 452.625 951.352 451.484 953.572L320.419 953.523L383.093 888.979L383.445 888.863Z"/>
	<path fill="#F9DAA4" transform="scale(0.488281 0.488281)" d="M793.952 887.145L799.487 889.902L812.457 896.446L818.689 899.679L839.297 910.382L923.953 953.48L810.739 953.539L703.072 953.526C702.32 951.753 700.512 950.273 699.174 948.896L691.612 940.999L660.013 907.728C653.804 901.368 647.683 894.875 640.92 889.095L660.156 888.917C663.748 888.897 667.758 889.25 671.217 888.216L672.687 888.307C674.9 887.306 678.053 887.634 680.464 887.62L694.531 887.579C698.22 887.548 702.425 887.937 706.047 887.461L708.499 887.564L715.645 887.496L793.952 887.145Z"/>
	<path fill="#F5BF4E" transform="scale(0.488281 0.488281)" d="M708.499 887.564L715.645 887.496C719.202 890.706 723.328 893.299 727.24 896.057L750.69 911.971L782.033 933.089L802.076 946.867C804.934 948.95 808.304 950.992 810.739 953.539L703.072 953.526C702.32 951.753 700.512 950.273 699.174 948.896L691.612 940.999L660.013 907.728C653.804 901.368 647.683 894.875 640.92 889.095L660.156 888.917C663.748 888.897 667.758 889.25 671.217 888.216L672.687 888.307C674.9 887.306 678.053 887.634 680.464 887.62L694.531 887.579C698.22 887.548 702.425 887.937 706.047 887.461L708.499 887.564Z"/>
	<path fill="#95CCC8" transform="scale(0.488281 0.488281)" d="M230.088 753.035L229.932 651.747L230.034 450.726L229.987 274.294L229.884 235.117L229.845 225.826C229.838 224.683 229.623 223.378 230.134 222.342L794.075 222.238L794.072 404.433L793.708 598.76L793.661 702.952L793.603 738.053C793.613 743.04 793.162 748.527 793.708 753.467L749.717 753.573C739.98 754.27 730.016 753.861 720.25 753.906C716.545 753.924 712.479 753.647 708.808 754.066L706.596 753.105L694.167 744.973L693.468 744.33L672.605 729.917C671.305 727.577 672.211 700.451 672.222 694.889L672.266 587.678L672.106 414.7L672.136 320.807L672.035 318.25C669.06 317.715 665.722 318.006 662.69 318.01L646.638 318.037L585.527 318.108L351.982 318.128L351.92 342.243L351.985 729.452C349.171 731.189 346.746 733.653 344.291 735.855C340.847 738.943 337.276 742.009 334.069 745.344C333.525 746.44 333.392 746.922 333.552 748.139C330.075 749.527 325.576 751.919 321.897 752.471C319.98 752.759 317.881 752.657 315.941 752.673L315.905 752.975L230.088 753.035Z"/>
	<defs>
		<linearGradient id="gradient_3" gradientUnits="userSpaceOnUse" x1="211.69092" y1="503.2211" x2="329.10675" y2="600.02429">
			<stop offset="0" stop-color="#29375C"/>
			<stop offset="1" stop-color="#375F74"/>
		</linearGradient>
	</defs>
	<path fill="url(#gradient_3)" transform="scale(0.488281 0.488281)" d="M245.767 464.505L245.806 460.476C248.206 459.011 255.947 459.923 258.969 459.93L295.205 460.019L295.52 643.678L246.5 643.821C245.439 642.386 245.872 639.855 245.86 638.057L252.076 638.032L277.656 638.017C281.075 638.009 285.807 638.599 288.973 637.544L289.757 637.941L290.645 637.25C290.63 634.612 290.822 616.729 290 616.085C289.057 615.347 289.15 615.103 288.74 613.931L288.862 608.902L288.791 568.5L288.11 568.921C287.7 567.361 288.135 565.89 288.169 564.304C288.233 561.257 288.186 558.24 288.473 555.201C289.712 551.179 288.966 544.962 288.971 540.663L288.833 509L288.241 508.707L288.06 506.782C288.113 504.589 287.655 502.494 287.266 500.345C287.717 501.314 288.12 502.13 288.799 502.96C289.464 497.126 289.125 491.085 289.117 485.209C289.108 478.6 289.393 471.854 288.926 465.272L287.472 464.907C284.497 463.979 279.498 464.589 276.236 464.567L245.767 464.505Z"/>
	<path fill="#6A9E99" transform="scale(0.488281 0.488281)" d="M245.767 464.505L276.236 464.567C279.498 464.589 284.497 463.979 287.472 464.907L288.926 465.272C289.393 471.854 289.108 478.6 289.117 485.209C289.125 491.085 289.464 497.126 288.799 502.96C288.12 502.13 287.717 501.314 287.266 500.345C287.655 502.494 288.113 504.589 288.06 506.782L288.241 508.707L288.833 509L288.971 540.663C288.966 544.962 289.712 551.179 288.473 555.201C288.186 558.24 288.233 561.257 288.169 564.304C288.135 565.89 287.7 567.361 288.11 568.921L288.791 568.5L288.862 608.902L288.74 613.931C289.15 615.103 289.057 615.347 290 616.085C290.822 616.729 290.63 634.612 290.645 637.25L289.757 637.941L288.973 637.544C285.807 638.599 281.075 638.009 277.656 638.017L252.076 638.032L245.86 638.057C245.247 631.906 245.801 625.165 245.816 618.96L245.938 578.101L245.767 464.505Z"/>
	<path fill="#3B5269" transform="scale(0.488281 0.488281)" d="M264.468 516.712L266.04 517.287C271.249 519.006 276.191 518.322 281.024 515.802C285.103 513.675 286.809 511.063 288.06 506.782L288.241 508.707C287.965 512.046 287.939 513.666 285.17 515.925C281.496 518.922 277.114 520.599 272.343 520.074C269.846 519.799 266.409 518.272 264.468 516.712Z"/>
	<path fill="#3B5269" transform="scale(0.488281 0.488281)" d="M261.087 622.608C263.264 623.961 265.557 625.591 268 626.397C272.402 627.85 277.22 627.227 281.25 624.975C285.723 622.474 287.285 618.577 288.74 613.931C289.15 615.103 289.057 615.347 290 616.085C290.822 616.729 290.63 634.612 290.645 637.25L289.757 637.941L288.973 637.544L288.781 619L288.29 618.75C287.959 619.922 287.897 621.043 287.825 622.25C286.893 623.732 285.865 624.777 284.5 625.882C280.965 628.743 277.503 629.419 273.016 628.868C268.536 628.318 263.886 626.205 261.087 622.608Z"/>
	<path fill="#F7AD19" transform="scale(0.488281 0.488281)" d="M280.77 598.056C282.514 599.641 284.084 601.114 285.438 603.068C286.759 604.826 288.563 606.674 288.862 608.902L288.74 613.931C287.285 618.577 285.723 622.474 281.25 624.975C277.22 627.227 272.402 627.85 268 626.397C265.557 625.591 263.264 623.961 261.087 622.608C259.033 620.476 257.498 618.522 256.027 615.941C257.766 616.168 259.112 616.243 260.166 617.905L260.561 618.756C262.066 618.566 263.678 618.595 265.184 618.784C267.705 619.101 270.158 618.867 272.594 618.112C276.206 616.994 278.918 614.712 280.653 611.31C282.498 607.69 281.638 604.192 280.418 600.583C279.969 599.573 280.436 599.073 280.77 598.056Z"/>
	<path fill="#E8860A" transform="scale(0.488281 0.488281)" d="M280.102 545.27C282.433 546.976 284.06 548.594 285.779 550.916C286.771 552.318 287.702 553.664 288.473 555.201C288.186 558.24 288.233 561.257 288.169 564.304C288.135 565.89 287.7 567.361 288.11 568.921C286.005 572.524 282.236 575.556 278.183 576.688C274.201 577.799 269.274 576.32 265.835 574.247C265.321 573.938 264.924 573.574 264.489 573.167C261.359 571.281 259.752 569.125 257.713 566.145C258.716 566.221 259.325 566.236 260.25 566.668C261.402 566.181 262.218 566.265 263.419 566.75C263.972 566.973 264.144 567.113 264.6 567.414C267.875 567.92 271.317 567.715 274.378 566.393C277.465 565.06 280.159 562.997 281.406 559.767L281.654 559.084C282.729 556.29 282.466 553.54 282.358 550.599L281.453 549C280.671 547.642 280.362 546.784 280.102 545.27Z"/>
	<path fill="#D37718" transform="scale(0.488281 0.488281)" d="M282.358 550.599C283.401 551.152 283.291 551.143 283.642 552.25C284.635 555.373 284.35 561.021 282.606 563.821C280.857 566.628 277.199 568.872 274 569.494C270.611 570.153 267.585 570.204 264.583 568.25C264.536 567.54 264.477 567.812 264.6 567.414C267.875 567.92 271.317 567.715 274.378 566.393C277.465 565.06 280.159 562.997 281.406 559.767L281.654 559.084C282.729 556.29 282.466 553.54 282.358 550.599Z"/>
	<path fill="#3B5269" transform="scale(0.488281 0.488281)" d="M285.779 550.916C286.771 552.318 287.702 553.664 288.473 555.201C288.186 558.24 288.233 561.257 288.169 564.304C288.135 565.89 287.7 567.361 288.11 568.921C286.005 572.524 282.236 575.556 278.183 576.688C274.201 577.799 269.274 576.32 265.835 574.247C265.321 573.938 264.924 573.574 264.489 573.167C267.959 574.46 271.363 575.48 275.109 574.861C279.308 574.168 283.455 572.012 285.887 568.455C287.195 566.543 287.443 564.227 287.024 562L286.545 561.75C285.061 565.549 283.318 568.494 279.737 570.596C276.413 572.548 271.226 573.517 267.5 572.318C266.506 571.998 264.733 571.4 264.25 570.451L266 571.148C268.722 572.26 271.368 572.604 274.243 571.766L275.828 571.386C279.422 570.528 282.758 567.97 284.572 564.75C287.104 560.257 287.021 555.756 285.779 550.916Z"/>
	<path fill="#F5BF4E" transform="scale(0.488281 0.488281)" d="M256.027 615.941L254.828 612.981C253.759 609.321 254.732 605.445 256.609 602.228C258.786 598.498 262.246 595.747 266.479 594.735C271.832 593.456 276.306 595.319 280.77 598.056C280.436 599.073 279.969 599.573 280.418 600.583C281.638 604.192 282.498 607.69 280.653 611.31C278.918 614.712 276.206 616.994 272.594 618.112C270.158 618.867 267.705 619.101 265.184 618.784C263.678 618.595 262.066 618.566 260.561 618.756L260.166 617.905C259.112 616.243 257.766 616.168 256.027 615.941Z"/>
	<path fill="#F5BF4E" transform="scale(0.488281 0.488281)" d="M257.713 566.145C256.443 564.286 255.456 562.237 254.956 560.03C254.128 556.369 255.111 552.395 257.211 549.31C259.788 545.524 263.922 543.169 268.382 542.333C272.888 541.488 276.431 542.772 280.102 545.27C280.362 546.784 280.671 547.642 281.453 549L282.358 550.599C282.466 553.54 282.729 556.29 281.654 559.084L281.406 559.767C280.159 562.997 277.465 565.06 274.378 566.393C271.317 567.715 267.875 567.92 264.6 567.414C264.144 567.113 263.972 566.973 263.419 566.75C262.218 566.265 261.402 566.181 260.25 566.668C259.325 566.236 258.716 566.221 257.713 566.145Z"/>
	<defs>
		<linearGradient id="gradient_4" gradientUnits="userSpaceOnUse" x1="276.8353" y1="514.11816" x2="263.57922" y2="488.19254">
			<stop offset="0" stop-color="#ED9C18"/>
			<stop offset="1" stop-color="#FFD41B"/>
		</linearGradient>
	</defs>
	<path fill="url(#gradient_4)" transform="scale(0.488281 0.488281)" d="M258.116 509.588C256.551 507.715 255.773 504.636 255.588 502.25C255.292 498.44 256.246 494.749 258.859 491.892C261.719 488.765 266.63 486.498 270.9 486.468C275.571 486.436 279.144 488.808 282.328 491.949C284.525 494.531 286.282 497.07 287.266 500.345C287.655 502.494 288.113 504.589 288.06 506.782C286.809 511.063 285.103 513.675 281.024 515.802C276.191 518.322 271.249 519.006 266.04 517.287L264.468 516.712C261.115 514.633 259.856 513.108 258.116 509.588Z"/>
	<path fill="#E8860A" transform="scale(0.488281 0.488281)" d="M282.328 491.949C284.525 494.531 286.282 497.07 287.266 500.345C287.655 502.494 288.113 504.589 288.06 506.782C286.809 511.063 285.103 513.675 281.024 515.802C276.191 518.322 271.249 519.006 266.04 517.287L264.468 516.712C261.115 514.633 259.856 513.108 258.116 509.588C260.094 510.38 261.225 511.997 262.998 513.003L263.75 513.275C264.58 513.618 265.288 514.012 266.171 514.224L266.75 514.351C268.869 515.068 271.251 514.781 273.5 514.755L274.002 515.375L274.377 515L274.75 514.433L275.5 515.122C276.649 514.978 276.282 515.129 277.217 514.66L279.498 513.497L280.25 513.245L281.375 511.998C281.976 511.56 282.727 511.422 283.245 510.75L283.623 510L283.997 509.375L283.612 508.875C283.984 508.149 283.994 507.649 284.295 507C284.807 505.895 284.751 505.737 284.755 504.5L284.255 503.75L284.255 502C283.838 499.983 283.929 502.13 283.882 500.58C283.857 499.767 283.753 499.232 283.495 498.45C283.206 497.58 283.281 497.387 283.502 496.502L283.752 495.625C283.38 495.878 282.82 495.973 282.634 496.384C282.021 497.734 282.547 501.083 281.953 502.938L281.381 502.844C281.917 499.442 281.829 496.439 281.506 493.017L282.328 491.949Z"/>
	<path fill="#4F8585" transform="scale(0.488281 0.488281)" d="M245.767 464.505L276.236 464.567C279.498 464.589 284.497 463.979 287.472 464.907L252.871 464.794L252.076 638.032L245.86 638.057C245.247 631.906 245.801 625.165 245.816 618.96L245.938 578.101L245.767 464.505Z"/>
	<path fill="#6A9E99" transform="scale(0.488281 0.488281)" d="M693.457 295.585C693.506 294.911 708.915 278.223 710.852 275.918L709.61 753.45L735.455 753.425C740.126 753.422 745.085 753.091 749.717 753.573C739.98 754.27 730.016 753.861 720.25 753.906C716.545 753.924 712.479 753.647 708.808 754.066L706.596 753.105L694.167 744.973L693.468 744.33C693.97 743.062 693.693 741.456 693.668 740.101L693.583 730.675L693.623 693.986L693.617 408.998L693.457 295.585Z"/>
	<path fill="#95CCC8" transform="scale(0.488281 0.488281)" d="M693.457 295.585L693.617 408.998L693.623 693.986L693.583 730.675L693.668 740.101C693.693 741.456 693.97 743.062 693.468 744.33L672.605 729.917C671.305 727.577 672.211 700.451 672.222 694.889L672.266 587.678L672.106 414.7L672.136 320.807C672.253 320.103 672.307 319.364 672.734 318.764C674.226 316.668 676.514 314.675 678.244 312.699L693.457 295.585Z"/>
	<path fill="#4C5B74" transform="scale(0.488281 0.488281)" d="M724.468 459.956L777.685 459.86L777.354 645.393L724.443 645.526L724.468 459.956Z"/>
	<path fill="#4F8585" transform="scale(0.488281 0.488281)" d="M729.006 464.441L772.977 464.471L772.889 641.037L729.094 641.045C727.921 638.904 729.023 585.729 729.042 578.762L729.006 464.441Z"/>
	<path fill="#8D151F" transform="scale(0.488281 0.488281)" d="M762.869 595.919L765.25 597.873L765.553 624.191L762.926 624.544L762.869 595.919Z"/>
	<path fill="#CD3338" transform="scale(0.488281 0.488281)" d="M763.028 541.601L765.618 542.25C766.458 545.095 765.705 549.795 765.66 552.839L765.687 570.028L762.996 570.13L763.028 541.601Z"/>
	<path fill="#4C5B74" transform="scale(0.488281 0.488281)" d="M739.444 570.103L754.918 570.007C757.508 570.019 760.447 569.749 762.996 570.13L765.687 570.028C765.718 571.506 765.873 572.898 765.25 574.279C761.241 574.262 742.147 575.119 739.809 573.611L739.444 570.103Z"/>
	<path fill="#4C5B74" transform="scale(0.488281 0.488281)" d="M762.078 515.488L764 515.387C765.037 514 764.625 512.143 764.604 510.429C764.559 506.819 764.513 503.241 764.836 499.64L764.914 498.811L765.106 514.915C765.119 516.389 765.532 519.175 764.862 520.454L746.457 520.471C744.53 520.473 741.036 520.933 739.431 520L738.945 516.066C741.229 515.456 744.012 515.759 746.397 515.741L762.078 515.488Z"/>
	<path fill="#4C5B74" transform="scale(0.488281 0.488281)" d="M762.926 624.544L765.553 624.191L765.966 629.524L738.717 629.675L738.477 624.59L762.926 624.544Z"/>
	<path fill="#F7AD19" transform="scale(0.488281 0.488281)" d="M739.444 570.103L737.12 569.75C736.316 567.092 736.731 563.668 736.727 560.868L736.675 541.569L763.028 541.601L762.996 570.13C760.447 569.749 757.508 570.019 754.918 570.007L739.444 570.103Z"/>
	<path fill="#F7AD19" transform="scale(0.488281 0.488281)" d="M738.477 624.59C737.424 624.455 737.289 624.419 736.47 623.75L736.513 595.413L754.425 595.256C757.082 595.22 760.582 594.626 762.869 595.919L762.926 624.544L738.477 624.59Z"/>
	<path fill="#F7AD19" transform="scale(0.488281 0.488281)" d="M738.945 516.066C737.655 515.841 737.326 515.818 736.327 515L736.368 485.786L736.841 485.505L755.655 485.537C757.261 485.539 760.553 485.107 762 485.547C762.451 485.684 762.722 486.153 763.084 486.455L764.75 486.97C765.718 490.236 764.969 495.34 764.914 498.811L764.836 499.64C764.513 503.241 764.559 506.819 764.604 510.429C764.625 512.143 765.037 514 764 515.387L762.078 515.488L746.397 515.741C744.012 515.759 741.229 515.456 738.945 516.066Z"/>
	<path fill="#8D151F" transform="scale(0.488281 0.488281)" d="M763.084 486.455L764.75 486.97C765.718 490.236 764.969 495.34 764.914 498.811L764.836 499.64C764.513 503.241 764.559 506.819 764.604 510.429C764.625 512.143 765.037 514 764 515.387L762.078 515.488C763.252 512.852 762.814 508.911 762.819 506.038C762.83 499.571 762.458 492.888 763.084 486.455Z"/>
	<path fill="#4F8585" transform="scale(0.488281 0.488281)" d="M315.844 277.63L315.466 275.25L316.25 274.518L586.661 274.467L674.068 274.414L698.039 274.428C702.181 274.431 706.623 274.094 710.724 274.655L710.852 275.918C708.915 278.223 693.506 294.911 693.457 295.585L678.244 312.699C676.514 314.675 674.226 316.668 672.734 318.764C672.307 319.364 672.253 320.103 672.136 320.807L672.035 318.25C669.06 317.715 665.722 318.006 662.69 318.01L646.638 318.037L585.527 318.108L351.982 318.128L351.92 342.243C351.061 336.225 351.624 329.345 351.561 323.233C351.551 322.175 351.861 319.27 351.513 318.384C351.115 317.373 348.357 315.047 347.548 314.153L334.175 298.952L315.844 277.63Z"/>
	<path fill="#161B35" transform="scale(0.488281 0.488281)" d="M465.539 285.001L559.474 284.913L559.4 312.369L465.516 312.05L465.539 285.001Z"/>
	<path fill="#FEFCFD" transform="scale(0.488281 0.488281)" d="M471.314 288.871L553.187 288.933L553.2 307.095L471.314 307.054L471.314 288.871Z"/>
	<path fill="#6A9E99" transform="scale(0.488281 0.488281)" d="M315.844 277.63L334.175 298.952L347.548 314.153C348.357 315.047 351.115 317.373 351.513 318.384C351.861 319.27 351.551 322.175 351.561 323.233C351.624 329.345 351.061 336.225 351.92 342.243L351.985 729.452C349.171 731.189 346.746 733.653 344.291 735.855C340.847 738.943 337.276 742.009 334.069 745.344C333.525 746.44 333.392 746.922 333.552 748.139C330.075 749.527 325.576 751.919 321.897 752.471C319.98 752.759 317.881 752.657 315.941 752.673L315.844 277.63Z"/>
	<path fill="#95CCC8" transform="scale(0.488281 0.488281)" d="M334.175 298.952L347.548 314.153C348.357 315.047 351.115 317.373 351.513 318.384C351.861 319.27 351.551 322.175 351.561 323.233C351.624 329.345 351.061 336.225 351.92 342.243L351.985 729.452C349.171 731.189 346.746 733.653 344.291 735.855C340.847 738.943 337.276 742.009 334.069 745.344C333.277 742.783 333.657 739.27 333.658 736.59L333.687 719.899L333.758 661.318L333.83 390.589L333.898 329.795C333.906 319.703 333.189 308.956 334.175 298.952Z"/>
	<path fill="#161B35" transform="scale(0.488281 0.488281)" d="M351.92 342.243L351.982 318.128L585.527 318.108L646.638 318.037L662.69 318.01C665.722 318.006 669.06 317.715 672.035 318.25L672.136 320.807L672.106 414.7L672.266 587.678L672.222 694.889C672.211 700.451 671.305 727.577 672.605 729.917L693.468 744.33L694.167 744.973L706.596 753.105L708.808 754.066L708.499 887.564L706.047 887.461C702.425 887.937 698.22 887.548 694.531 887.579L680.464 887.62C678.053 887.634 674.9 887.306 672.687 888.307L671.217 888.216C667.758 889.25 663.748 888.897 660.156 888.917L640.92 889.095L557.176 889.046L469.809 888.997L383.445 888.863L383.093 888.979C380.707 888.458 377.934 888.652 375.495 888.663C368.669 888.693 360.446 889.635 353.808 888.212L352.04 888.754C350.148 888.365 347.931 888.574 345.985 888.567L333.712 888.538L320.788 888.506L316.273 888.487L305.48 888.462L230.951 887.989L230.551 795.014L230.477 767.821C230.46 762.983 230.81 757.819 230.088 753.035L315.905 752.975L315.941 752.673C317.881 752.657 319.98 752.759 321.897 752.471C325.576 751.919 330.075 749.527 333.552 748.139C333.392 746.922 333.525 746.44 334.069 745.344C337.276 742.009 340.847 738.943 344.291 735.855C346.746 733.653 349.171 731.189 351.985 729.452L351.92 342.243Z"/>
	<path fill="#CEAAA2" transform="scale(0.488281 0.488281)" d="M353.808 888.212C355.922 886.836 357.767 885.139 359.668 883.49C360.199 883.029 361.111 881.968 361.677 881.741C362.708 881.326 366.57 881.773 367.935 881.78L390.729 881.676L388.792 882.354L388.529 883.114C387.745 885.163 385.007 887.307 383.445 888.863L383.093 888.979C380.707 888.458 377.934 888.652 375.495 888.663C368.669 888.693 360.446 889.635 353.808 888.212Z"/>
	<path fill="#8D151F" transform="scale(0.488281 0.488281)" d="M517.048 355.119L517.08 332.962L586.464 332.992L558.361 354.92L557.835 355.132L517.048 355.119Z"/>
	<path fill="#A7595B" transform="scale(0.488281 0.488281)" d="M647.366 332.857L662.559 332.428L662.441 355.071L628.868 355.06L628.385 355.2C621.842 354.209 613.946 355.053 607.277 355.05L558.361 354.92L586.464 332.992L647.366 332.857Z"/>
	<path fill="#8D151F" transform="scale(0.488281 0.488281)" d="M647.366 332.857L662.559 332.428L662.441 355.071L628.868 355.06L646.957 339.979C649.636 337.72 653.024 335.427 655.274 332.785L647.366 332.857Z"/>
	<path fill="#D9BDB3" transform="scale(0.488281 0.488281)" d="M390.729 881.676L662.83 881.222L671.217 888.216C667.758 889.25 663.748 888.897 660.156 888.917L640.92 889.095L557.176 889.046L469.809 888.997L383.445 888.863C385.007 887.307 387.745 885.163 388.529 883.114L388.792 882.354L390.729 881.676Z"/>
	<path fill="#8D151F" transform="scale(0.488281 0.488281)" d="M362.52 354.864L362.457 332.958L508.403 332.927L508.402 355.017L409.32 354.982L362.52 354.864Z"/>
	<path fill="#556E80" transform="scale(0.488281 0.488281)" d="M351.985 729.452L352.04 888.754C350.148 888.365 347.931 888.574 345.985 888.567L333.712 888.538L320.788 888.506L316.273 888.487L316.25 857.094L315.916 796.361L315.719 768.353C315.671 763.497 314.985 757.681 315.905 752.975L315.941 752.673C317.881 752.657 319.98 752.759 321.897 752.471C325.576 751.919 330.075 749.527 333.552 748.139C333.392 746.922 333.525 746.44 334.069 745.344C337.276 742.009 340.847 738.943 344.291 735.855C346.746 733.653 349.171 731.189 351.985 729.452Z"/>
	<path fill="#4C5B74" transform="scale(0.488281 0.488281)" d="M333.552 748.139C335.114 750.526 334.134 772.361 334.153 776.283L334.115 851.763L333.712 888.538L320.788 888.506L316.273 888.487L316.25 857.094L315.916 796.361L315.719 768.353C315.671 763.497 314.985 757.681 315.905 752.975L315.941 752.673C317.881 752.657 319.98 752.759 321.897 752.471C325.576 751.919 330.075 749.527 333.552 748.139Z"/>
	<path fill="#2F3A53" transform="scale(0.488281 0.488281)" d="M315.905 752.975C317.359 752.989 319.777 752.667 320.906 753.5L320.788 888.506L316.273 888.487L316.25 857.094L315.916 796.361L315.719 768.353C315.671 763.497 314.985 757.681 315.905 752.975Z"/>
	<path fill="#8D151F" transform="scale(0.488281 0.488281)" d="M409.734 868.158L434.992 843.465L488.259 790.693C491.425 787.57 504.608 772.546 507.982 771.821L507.711 873.072L405.203 873.083L409.734 868.158Z"/>
	<path fill="#4C5B74" transform="scale(0.488281 0.488281)" d="M672.605 729.917L693.468 744.33L694.167 744.973L706.596 753.105L708.808 754.066L708.499 887.564L706.047 887.461C702.425 887.937 698.22 887.548 694.531 887.579L680.464 887.62C678.053 887.634 674.9 887.306 672.687 888.307L672.605 729.917Z"/>
	<path fill="#3B5269" transform="scale(0.488281 0.488281)" d="M694.022 745.934L694.167 744.973L706.596 753.105L708.808 754.066L708.499 887.564L706.047 887.461C702.425 887.937 698.22 887.548 694.531 887.579L694.022 745.934Z"/>
	<path fill="#2F3A53" transform="scale(0.488281 0.488281)" d="M694.022 745.934L694.167 744.973L706.596 753.105L706.019 761.72C702.221 759.205 699.278 755.683 695.321 753.227L694.636 752.808C694.589 750.633 694.53 748.555 694.117 746.407L694.022 745.934Z"/>
	<path fill="#161B35" transform="scale(0.488281 0.488281)" d="M706.596 753.105L708.808 754.066L708.499 887.564L706.047 887.461L706.019 761.72L706.596 753.105Z"/>
	<path fill="#DF887B" transform="scale(0.488281 0.488281)" d="M558.361 354.92L607.277 355.05C613.946 355.053 621.842 354.209 628.385 355.2L517.575 449.441L517.426 442.276L517.186 442.105L517.096 389.581L517.048 355.119L557.835 355.132L558.361 354.92Z"/>
	<path fill="#E56444" transform="scale(0.488281 0.488281)" d="M517.048 355.119L557.835 355.132L517.096 389.581L517.048 355.119Z"/>
	<path fill="#8D151F" transform="scale(0.488281 0.488281)" d="M409.623 542.181L409.952 693.659L409.887 694.156C407.573 694.88 405.251 697.717 403.458 699.385L389.06 712.924L362.508 737.696L362.579 581.979C364.271 581.604 366.09 579.562 367.389 578.441L378.54 568.732L409.623 542.181Z"/>
	<path fill="#730114" transform="scale(0.488281 0.488281)" d="M362.508 737.696L389.06 712.924L403.458 699.385C405.251 697.717 407.573 694.88 409.887 694.156L409.734 868.158L405.203 873.083L362.671 873.017C361.704 871.128 362.5 750.816 362.508 737.696Z"/>
	<path fill="#E56444" transform="scale(0.488281 0.488281)" d="M409.32 354.982L508.402 355.017L508.529 397.394L487.857 414.4L444.981 450.404L421.902 470.145C418.013 473.509 414.127 477.633 409.851 480.462C409.326 475.966 409.663 471.11 409.646 466.56L409.576 440.545L409.32 354.982Z"/>
	<path fill="#CD3338" transform="scale(0.488281 0.488281)" d="M362.52 354.864L409.32 354.982L409.576 440.545L409.646 466.56C409.663 471.11 409.326 475.966 409.851 480.462L409.659 480.746L409.909 541.653L409.623 542.181L378.54 568.732L367.389 578.441C366.09 579.562 364.271 581.604 362.579 581.979L362.584 522.256L362.52 354.864Z"/>
	<path fill="#A7595B" transform="scale(0.488281 0.488281)" d="M409.659 480.746L409.909 541.653L409.623 542.181L378.54 568.732L367.389 578.441C366.09 579.562 364.271 581.604 362.579 581.979L362.584 522.256L409.659 480.746Z"/>
	<path fill="#4C5B74" transform="scale(0.488281 0.488281)" d="M230.088 753.035L315.905 752.975C314.985 757.681 315.671 763.497 315.719 768.353L315.916 796.361L316.25 857.094L316.273 888.487L305.48 888.462L230.951 887.989L230.551 795.014L230.477 767.821C230.46 762.983 230.81 757.819 230.088 753.035Z"/>
	<defs>
		<linearGradient id="gradient_5" gradientUnits="userSpaceOnUse" x1="452.70404" y1="867.38818" x2="464.55038" y2="602.60083">
			<stop offset="0" stop-color="#761623"/>
			<stop offset="1" stop-color="#AD3138"/>
		</linearGradient>
	</defs>
	<path fill="url(#gradient_5)" transform="scale(0.488281 0.488281)" d="M409.952 693.659L426.941 677.944L478.565 630.298L503.381 607.055C504.509 605.959 507.308 603.998 508.012 602.733C508.462 601.926 508.276 597.042 508.405 595.737L507.982 771.821C504.608 772.546 491.425 787.57 488.259 790.693L434.992 843.465L409.734 868.158L409.887 694.156L409.952 693.659Z"/>
	<defs>
		<linearGradient id="gradient_6" gradientUnits="userSpaceOnUse" x1="587.35364" y1="591.57227" x2="591.03925" y2="354.91046">
			<stop offset="0" stop-color="#C24347"/>
			<stop offset="1" stop-color="#EE6C45"/>
		</linearGradient>
	</defs>
	<path fill="url(#gradient_6)" transform="scale(0.488281 0.488281)" d="M628.868 355.06L662.441 355.071L662.392 393.102C662.385 398.433 662.962 404.463 662.362 409.725L662.277 410.135C661.125 416.325 662.634 458.236 661.567 459.108C657.746 462.234 654.367 465.986 650.696 469.31L617.002 500.282L554.075 558.808L527.519 583.871C524.357 586.797 521.262 590.643 517.511 592.711L517.186 442.105L517.426 442.276L517.575 449.441L628.385 355.2L628.868 355.06Z"/>
	<defs>
		<linearGradient id="gradient_7" gradientUnits="userSpaceOnUse" x1="438.60672" y1="696.06348" x2="477.71967" y2="455.16479">
			<stop offset="0" stop-color="#A5383F"/>
			<stop offset="1" stop-color="#D85849"/>
		</linearGradient>
	</defs>
	<path fill="url(#gradient_7)" transform="scale(0.488281 0.488281)" d="M508.529 397.394L508.572 458.163L508.52 556.268L508.456 584.747C508.449 588.226 508.944 592.373 508.405 595.737C508.276 597.042 508.462 601.926 508.012 602.733C507.308 603.998 504.509 605.959 503.381 607.055L478.565 630.298L426.941 677.944L409.952 693.659L409.623 542.181L409.909 541.653L409.659 480.746L409.851 480.462C414.127 477.633 418.013 473.509 421.902 470.145L444.981 450.404L487.857 414.4L508.529 397.394Z"/>
	<path fill="#DF887B" transform="scale(0.488281 0.488281)" d="M508.529 397.394L508.572 458.163L409.909 541.653L409.659 480.746L409.851 480.462C414.127 477.633 418.013 473.509 421.902 470.145L444.981 450.404L487.857 414.4L508.529 397.394Z"/>
	<defs>
		<linearGradient id="gradient_8" gradientUnits="userSpaceOnUse" x1="618.99158" y1="738.02722" x2="560.50842" y2="483.47278">
			<stop offset="0" stop-color="#8F1B2B"/>
			<stop offset="1" stop-color="#C23E43"/>
		</linearGradient>
	</defs>
	<path fill="url(#gradient_8)" transform="scale(0.488281 0.488281)" d="M517.511 592.711C521.262 590.643 524.357 586.797 527.519 583.871L554.075 558.808L617.002 500.282L650.696 469.31C654.367 465.986 657.746 462.234 661.567 459.108C662.634 458.236 661.125 416.325 662.277 410.135L662.362 409.725L662.453 631.459C656.241 636.095 650.534 641.642 644.828 646.881L618.809 670.835L548.139 734.719L528.549 753.226C525.126 756.535 521.544 760.571 517.793 763.449L517.511 592.711Z"/>
	<defs>
		<linearGradient id="gradient_9" gradientUnits="userSpaceOnUse" x1="601.14093" y1="877.41302" x2="579.57538" y2="640.92523">
			<stop offset="0" stop-color="#8C1C2B"/>
			<stop offset="1" stop-color="#B64345"/>
		</linearGradient>
	</defs>
	<path fill="url(#gradient_9)" transform="scale(0.488281 0.488281)" d="M517.793 763.449C521.544 760.571 525.126 756.535 528.549 753.226L548.139 734.719L618.809 670.835L644.828 646.881C650.534 641.642 656.241 636.095 662.453 631.459L662.097 822.269L662.103 861.618C662.102 864.194 662.832 870.998 661.815 873.073L518.114 873.13C517.053 871.023 517.85 851.945 517.855 848.38L517.793 763.449Z"/>
</svg>
