<?xml version="1.0" encoding="utf-8" ?>
<svg xmlns="http://www.w3.org/2000/svg" xmlns:xlink="http://www.w3.org/1999/xlink" width="500" height="500">
	<path fill="#EF6B30" transform="scale(0.488281 0.488281)" d="M-0 -0L1024 0L1024 1024L-0 1024L0 -0Z"/>
	<path fill="#93330D" transform="scale(0.488281 0.488281)" d="M338.097 845.029C349.954 848.359 361.887 851.327 374.067 853.234L387.25 854.959C389.678 855.223 392.747 855.168 395.06 855.92C398.814 857.142 403.011 860.508 406.541 862.505L424.343 871.802C446.651 882.816 471.905 890.841 496.25 895.958C542.892 905.761 590.84 903.755 638.219 903.925L804.012 904.034L804.008 851.151C810.103 853.471 818.132 853.922 824.641 855.157C835.672 857.25 846.836 859.96 857.506 863.473C865.871 866.227 874.12 869.455 881.423 874.466C884.158 876.343 887.06 878.686 888.487 881.75C889.636 884.215 889.707 886.795 888.727 889.327C885.714 897.112 874.256 902.337 866.961 905.313C854.082 910.566 840.35 914.061 826.789 917.084L775.748 926.36L689.5 935.62C575.322 944.739 459.12 942.927 345.297 929.78C317.659 926.587 289.871 922.803 262.75 916.48C249.593 913.413 236.258 910.036 223.78 904.773C217.551 902.146 207.895 897.746 205.485 891.031C204.582 888.518 205.103 885.66 206.375 883.375C210.054 876.763 219.25 873.032 225.942 870.362C251.941 859.99 280.42 855.363 307.875 850.56C317.592 848.859 327.916 847.772 337.411 845.218L338.097 845.029Z"/>
	<path fill="#050A23" transform="scale(0.488281 0.488281)" d="M489.229 142.095C514.06 138.334 539.054 135.599 564.2 135.65C644.351 135.813 722.204 162.384 786.6 209.779C866.728 268.754 919.958 359.431 934.746 457.656C949.743 557.27 926.062 662.849 865.832 744.232C856.119 757.356 845.87 770.299 834.604 782.139C816.777 800.876 796.555 817.101 775.308 831.753L746.048 850.488L804.008 851.151L804.012 904.034L638.219 903.925C590.84 903.755 542.892 905.761 496.25 895.958C471.905 890.841 446.651 882.816 424.343 871.802L406.541 862.505C403.011 860.508 398.814 857.142 395.06 855.92C392.747 855.168 389.678 855.223 387.25 854.959L374.067 853.234C361.887 851.327 349.954 848.359 338.097 845.029L298.99 830.953C233.107 802.002 178.776 755.229 140.086 694.543C128.161 675.838 117.845 656.485 109.812 635.774C82.0953 564.32 76.4423 486.128 95.8132 411.819C99.8678 396.265 104.71 380.637 111.22 365.919C111.487 363.967 112.793 361.703 113.576 359.882L119.683 346.521C140.217 304.047 168.62 265.992 203.74 234.427C230.234 210.614 259.897 190.211 292.099 174.883C338.566 152.765 389.165 141.505 440.522 140.155C456.759 139.728 473.031 141.231 489.229 142.095Z"/>
	<path fill="#151E34" transform="scale(0.488281 0.488281)" d="M680.428 221.446C684.524 222.327 688.374 224.348 692.189 226.031C702.049 230.38 711.256 235.801 720.459 241.382C734.087 249.647 746.716 258.205 759.25 268.075C759.25 269.231 759.383 268.676 758.825 269.732L760.082 270.345C765.165 272.291 770.475 278.304 774.391 282.166C787.449 295.045 799.897 308.501 810.836 323.25C815.937 330.127 820.889 337.787 824.901 345.357L816.962 358.045L817.205 358.528C816.298 359.821 815.439 361.005 814.862 362.49L814.57 362.49C813.887 359.76 812.197 357.231 810.742 354.84C807.612 349.696 804.099 344.831 800.511 340L774.244 308.093C768.446 301.545 762.808 294.925 756.435 288.913C731.822 265.693 704.167 245.591 680.428 221.446Z"/>
	<path fill="#F8B251" transform="scale(0.488281 0.488281)" d="M760.082 270.345C765.165 272.291 770.475 278.304 774.391 282.166C787.449 295.045 799.897 308.501 810.836 323.25C815.937 330.127 820.889 337.787 824.901 345.357L816.962 358.045L804.015 335.719C795.13 321.323 785.355 307.434 774.989 294.067L764.48 280.905C762.334 278.21 758.695 274.237 758.245 270.75L760.082 270.345Z"/>
	<path fill="#1A5A71" transform="scale(0.488281 0.488281)" d="M724.555 861.619L791.232 861.914L791.124 892.045L711.75 891.542L643.533 891.964L724.555 861.619Z"/>
	<path fill="#CD331D" transform="scale(0.488281 0.488281)" d="M824.901 345.357C832.233 357.425 839.456 369.879 845.189 382.802C870.109 438.976 878.835 503.746 869.565 564.493C868.338 572.539 867.197 580.66 865.275 588.577C854.632 632.418 836.154 673.488 808.712 709.424C800.321 720.412 791.013 730.461 781.469 740.44C762.395 760.385 741.472 778.324 717.836 792.705C700.262 803.396 681.697 812.557 662.432 819.739L660.842 814.642C674.469 807.743 688.065 800.841 700.866 792.453C744.632 763.773 782.632 723.309 808.555 677.837C820.693 656.545 830.172 634.051 837.805 610.786C863.569 532.263 858.111 438.548 820.619 364.644L817.205 358.528L816.962 358.045L824.901 345.357Z"/>
	<path fill="#93C2CB" transform="scale(0.488281 0.488281)" d="M528.345 149.061C534.208 148.097 540.326 148.218 546.266 148.056L573.166 147.926C644.667 150.769 714.579 173.823 772.816 215.619C799.411 234.706 823.352 256.594 843.929 282.096C847.489 286.509 851.845 291.257 854.616 296.165L839.715 324.078C838.113 327.014 836.269 331.857 833.88 334.03L832.692 332.1C787.851 261.22 709.324 208.249 627.902 189.716L626.25 189.019C619.787 186.311 613.753 182.27 607.522 179.051C595.512 172.847 583.157 167.22 570.486 162.5L547.77 154.749L535.697 151.281C533.173 150.642 530.601 150.434 528.345 149.061Z"/>
	<path fill="#151E34" transform="scale(0.488281 0.488281)" d="M814.57 362.49L814.862 362.49L815.023 363.37C815.618 366.174 817.702 369.226 818.908 371.88L824.06 384.638C829.169 398.334 832.932 412.74 836.266 426.964C855.986 511.09 838.982 601.339 794.979 675.109C779.28 701.428 760.413 725.326 738.711 746.923C731.345 754.253 723.95 761.551 715.719 767.922C708.827 773.258 701.294 777.948 693.934 782.606C686.205 787.499 678.571 792.484 670.5 796.819C657.759 803.663 644.665 809.366 631.32 814.893C612.037 822.881 592.275 830.44 572 835.503C566.475 836.883 540.192 843.971 536.503 842.646C542.346 840.14 549.15 838.639 555.196 836.476C570.457 831.014 585.31 824.984 599.8 817.705C678.033 778.404 739.814 709.711 772.095 628.5C795.572 569.438 801.868 505.241 792.899 442.495L784.832 400.548L784.762 400.054C785.418 398.819 786.838 397.461 787.751 396.365L795.359 387.445C801.948 379.723 809.153 371.069 814.57 362.49Z"/>
	<defs>
		<linearGradient id="gradient_0" gradientUnits="userSpaceOnUse" x1="650.4649" y1="526.86523" x2="293.80966" y2="150.02718">
			<stop offset="0" stop-color="#0C1630"/>
			<stop offset="1" stop-color="#3F3F58"/>
		</linearGradient>
	</defs>
	<path fill="url(#gradient_0)" transform="scale(0.488281 0.488281)" d="M111.22 365.919C111.487 363.967 112.793 361.703 113.576 359.882L119.683 346.521C140.217 304.047 168.62 265.992 203.74 234.427C230.234 210.614 259.897 190.211 292.099 174.883C338.566 152.765 389.165 141.505 440.522 140.155C456.759 139.728 473.031 141.231 489.229 142.095L517.769 147.239C521.199 147.839 525.02 148.105 528.345 149.061C530.601 150.434 533.173 150.642 535.697 151.281L547.77 154.749L570.486 162.5C583.157 167.22 595.512 172.847 607.522 179.051C613.753 182.27 619.787 186.311 626.25 189.019L627.902 189.716C629.224 191.606 631.084 192.394 632.975 193.589L642.5 199.906C647.094 203.075 651.457 206.72 656.135 209.731C657.131 210.372 662.835 213.226 663.022 213.652L680.428 221.446C704.167 245.591 731.822 265.693 756.435 288.913C762.808 294.925 768.446 301.545 774.244 308.093L800.511 340C804.099 344.831 807.612 349.696 810.742 354.84C812.197 357.231 813.887 359.76 814.57 362.49C809.153 371.069 801.948 379.723 795.359 387.445L787.751 396.365C786.838 397.461 785.418 398.819 784.762 400.054L784.832 400.548C782.7 401.426 780.594 404.632 778.967 406.318C775.891 409.504 772.936 412.395 769.289 414.953C768.556 415.466 768.85 415.222 768.263 415.808L767.947 415.486C767.19 409.467 764.59 402.958 762.782 397.139C752.617 364.418 738.393 332.407 718.53 304.341C700.855 277.387 677.66 253.491 652.932 232.952C646.422 227.545 639.325 221.525 631.969 217.287C618.772 207.407 603.913 199.463 589.098 192.322C556.512 176.616 520.985 165.742 485 161.548C456.027 158.171 426.259 159.04 397.406 163.127C330.397 172.619 266.551 202.85 216.345 248.156C198.184 264.545 182.087 282.885 167.461 302.453C155.784 318.075 145.143 335.349 136.836 353L129.34 369.742C127.932 373.08 126.732 377.089 124.809 380.128L124.835 378.063L125.25 377.5L125.255 376.5C126.024 375.346 126.61 373.845 127.002 372.502L127.255 371.5L127.755 370.75L128.255 369.5L128.75 369L128.755 368C129.423 367.325 129.184 367.712 129.502 366.766L129.755 366C130.121 365.263 130.496 364.812 130.755 364C131.03 363.139 130.914 363.236 131.255 362.5C131.686 361.57 132.022 360.361 132.543 359.523C133.018 358.761 132.785 359.22 133.198 358.312L134.502 355.625L134.755 355C135.414 353.901 135.523 352.864 136.129 351.75L137 350.25L137.377 349.5L137.75 349C137.954 348.551 138.032 348.05 138.252 347.609L138.502 347.125L138.755 346.5L139.25 346C139.657 345.317 140.117 344.355 140.502 343.625L140.755 343C141.053 342.406 141.422 341.912 141.705 341.289C142.006 340.628 141.974 340.608 142.377 340C142.993 339.073 143.547 338.148 144.002 337.125L144.255 336.5L144.75 336L145 335.25C145.494 334.355 146.559 333.694 146.75 332.5L146.755 331.75L147.375 331.375L147.755 330.5L148.25 330L148.255 329.25L149.002 328.502C149.905 326.853 150.616 326.255 150.755 324.25L148.923 322.808L148.502 322.498L148.255 321.75C147.67 321.417 147.153 320.913 146.5 320.75C146.308 320.702 145.407 321.058 145.25 321C144.151 320.598 143.935 319.782 142.502 319.498L142.255 318.5L142.75 317.755C141.702 317.741 142.208 317.883 141.255 317.25L141.75 316.755C141.833 315.861 141.811 315.549 141.395 314.717C140.802 313.534 140.662 312.481 140.255 311.25L132.078 324.766L129.665 329.219L128.245 332C127.373 333.191 127.821 332.254 127.313 333.475C126.898 334.473 127.147 333.996 126.672 334.852L126.375 335.375L125.498 337.375L125.245 338C124.455 339.424 123.782 341.143 122.957 342.469C122.318 343.496 121.977 344.639 121.357 345.68L119.367 349.255L119.125 349.748C118.207 351.548 117.728 353.47 116.703 355.232L116.25 356L116.245 356.75L115.623 357.5C115.462 358.621 115.635 358.133 115.116 359.083L114.75 359.745L114.745 360.25C113.601 362.103 113.036 364.068 111.975 365.925L111.22 365.919Z"/>
	<path fill="#38435D" transform="scale(0.488281 0.488281)" d="M784.762 400.054C782.557 396.075 781.41 390.217 779.949 385.828C776.351 375.024 772.748 364.139 768.282 353.656C756.538 326.09 741.903 300.577 723.818 276.68C713.582 263.153 701.718 250.969 689.723 239.021C681.325 230.655 672.295 221.322 662.67 214.426L663.022 213.652L680.428 221.446C704.167 245.591 731.822 265.693 756.435 288.913C762.808 294.925 768.446 301.545 774.244 308.093L800.511 340C804.099 344.831 807.612 349.696 810.742 354.84C812.197 357.231 813.887 359.76 814.57 362.49C809.153 371.069 801.948 379.723 795.359 387.445L787.751 396.365C786.838 397.461 785.418 398.819 784.762 400.054Z"/>
	<path fill="#1A5A71" transform="scale(0.488281 0.488281)" d="M854.616 296.165C864.166 308.109 872.42 321.966 879.874 335.273C919.305 405.665 932.712 486.235 923.831 566C922.32 579.57 919.354 593.247 916.118 606.5C900.311 671.23 867.63 730.727 820.685 778.132C812.761 786.135 804.66 794.151 795.839 801.172C728.069 855.118 644.731 888.701 557.489 888.967C543.842 889.009 530.295 887.888 516.75 886.317C489.941 883.208 463.904 875.441 439.216 864.705C434.431 862.625 428.656 860.508 424.372 857.633L452.656 857.307C475.931 856.08 498.739 852.065 521.431 846.954C525.142 846.118 529.251 847.137 533 847.525L546.263 848.469C561.221 849.065 576.281 849.216 591.177 847.55C618.113 844.537 644.011 838.782 669.46 829.368C689.459 821.97 708.226 811.968 726.213 800.607C767.936 774.254 804.213 740.483 831.491 699.196C863.501 650.746 882.28 593.252 885.501 535.25C886.528 516.749 885.632 498.164 883.699 479.75C882.608 469.363 881.38 459.025 879.29 448.781C873.271 419.276 863.498 390.13 850.049 363.16L839.849 344.523C837.892 341.161 835.288 337.635 833.88 334.03C836.269 331.857 838.113 327.014 839.715 324.078L854.616 296.165Z"/>
	<path fill="#050A23" transform="scale(0.488281 0.488281)" d="M124.809 380.128C126.732 377.089 127.932 373.08 129.34 369.742L136.836 353C145.143 335.349 155.784 318.075 167.461 302.453C182.087 282.885 198.184 264.545 216.345 248.156C266.551 202.85 330.397 172.619 397.406 163.127C426.259 159.04 456.027 158.171 485 161.548C520.985 165.742 556.512 176.616 589.098 192.322C603.913 199.463 618.772 207.407 631.969 217.287C639.325 221.525 646.422 227.545 652.932 232.952C677.66 253.491 700.855 277.387 718.53 304.341C738.393 332.407 752.617 364.418 762.782 397.139C764.59 402.958 767.19 409.467 767.947 415.486L768.263 415.808C771.67 429.579 774.685 443.539 776.328 457.644C784.786 530.265 768.232 608.572 730.439 671.204C709.638 705.676 682.593 738.172 651.08 763.324C610.998 795.315 563.631 817.127 513.957 829.325C432.34 849.366 340.618 837.903 268.422 794.039C242.737 778.435 219.357 760.009 198.267 738.601C194.813 735.096 189.104 730.014 187.139 725.532C177.646 716.024 169.484 705.296 161.738 694.348C124.701 641.995 104.836 579.415 101.998 515.528C101.091 478.47 105.539 442.905 115.867 407.277L124.809 380.128Z"/>
	<path fill="#1A5A71" transform="scale(0.488281 0.488281)" d="M337.518 599.183C354.248 612.924 369.718 626.944 390.579 634.259C396.338 636.279 402.306 637.42 408.255 638.724L399.831 646.403C383.201 640.621 368.47 630.626 355.173 619.225C350.47 615.192 346.44 610.924 342.248 606.393C340.298 604.286 337.746 602.193 337.518 599.183Z"/>
	<path fill="#288AA7" transform="scale(0.488281 0.488281)" d="M587.248 535.561L576.893 536.655C583.245 512.665 583.528 490.563 577.951 466.398L584.929 467.206L583.206 467.685L584.473 471.244C586.394 475.851 587.346 481.305 588.143 486.224C590.351 499.866 590.223 513.303 588.547 526.993C588.227 529.607 588.09 533.088 587.248 535.561Z"/>
	<path fill="#1A5A71" transform="scale(0.488281 0.488281)" d="M485.117 651.988C484.418 651.768 479.34 641.581 478.549 640.07C493.995 634.996 508.088 628.812 521.361 619.233C525.617 616.161 529.407 612.584 533.345 609.135L541.775 622.458C528.844 635.098 513.788 642.578 496.892 648.444C493.474 649.631 487.988 650.121 485.117 651.988Z"/>
	<path fill="#38435D" transform="scale(0.488281 0.488281)" d="M410.949 353.731L429.745 344.25C440.362 339.464 451.782 335.942 462.785 332.137C468.402 330.195 473.978 328.028 479.707 326.436C482.617 325.628 485.369 324.722 488.428 325.091L472.096 359.549C458.22 356.494 444.086 354.772 429.864 355.578C423.426 355.943 417.134 357.078 410.739 357.75C408.907 357.943 408.534 358.29 407.391 356.75C407.753 355.555 409.158 354.565 410.246 354.01L410.949 353.731Z"/>
	<path fill="#151E34" transform="scale(0.488281 0.488281)" d="M410.949 353.731L410.8 353.215L410 353.377C408.721 353.903 410.403 353.744 408.75 353.755C407.403 352.631 405.443 348.94 404.583 347.318L391.868 319.096L392.228 318.805C396.102 316.002 401.771 313.957 406.194 312.016C436.292 298.806 466.663 299.233 498.554 303.973C498.236 305.993 496.28 308.574 495.322 310.453L489.491 323L488.428 325.091C485.369 324.722 482.617 325.628 479.707 326.436C473.978 328.028 468.402 330.195 462.785 332.137C451.782 335.942 440.362 339.464 429.745 344.25L410.949 353.731Z"/>
	<path fill="#38435D" transform="scale(0.488281 0.488281)" d="M580.629 368.438C599.757 386.65 615.65 410.933 621.896 436.801C623.956 445.329 624.776 454.085 626.063 462.75L596.878 460.888C595.561 460.763 588.78 460.784 588.294 460.379C588.047 460.172 587.458 458.38 587.308 458.002L583.498 448.75C581.877 445.109 580.043 441.608 578.063 438.15C570.504 424.95 561.49 414.385 550.527 403.919C553.261 400.317 555.521 396.344 558.201 392.684C564.779 383.702 572.382 375.899 580.629 368.438Z"/>
	<path fill="#151E34" transform="scale(0.488281 0.488281)" d="M254.997 541.629L300.728 542.67C302.662 553.43 307.235 563.13 311.621 573.057C313.687 577.734 315.867 582.538 317.236 587.47C320.429 598.972 320.939 612.847 318.579 624.5C317.23 631.163 315.206 639.22 311.84 645.188C306.405 641.167 301.415 635.001 297.043 629.857C289.355 620.81 282.281 610.969 276.75 600.445C266.895 581.696 261.464 561.648 254.997 541.629Z"/>
	<path fill="#151E34" transform="scale(0.488281 0.488281)" d="M619.762 544.293L628.703 543.996C624.56 562.86 617.57 581.754 607.696 598.376C596.883 616.577 582.781 632.279 567.596 646.888L564.121 642.429L552.025 626C550.096 622.656 551.507 614.499 553.087 611C555.677 605.264 560.991 599.886 564.643 594.693C574.291 580.968 583.021 564.056 587.27 547.784L619.762 544.293Z"/>
	<path fill="#38435D" transform="scale(0.488281 0.488281)" d="M257.614 453.778C262.883 423.225 276.808 394.371 299.75 373.186C303.25 369.954 306.903 366.456 310.818 363.728L312.709 362.472L333.455 402.108C324.209 411.937 316.01 424.056 310.223 436.26C307.457 442.093 305.003 448.079 302.891 454.178C302.592 455.041 301.114 460.72 300.776 460.985C300.337 461.329 296.09 461.555 295.302 461.648C283.32 463.069 271.325 464.254 259.248 464.429C258.432 464.441 257.708 464.303 256.953 464.011L257.614 453.778Z"/>
	<path fill="#F8B251" transform="scale(0.488281 0.488281)" d="M369.644 740.933C403.297 747.468 437.999 750.659 472.266 748.057L491.032 745.989C495.28 745.352 499.629 744.317 503.9 743.997L499.789 753.849C491.817 770.314 476.814 783.237 459.516 789.069C442.365 794.851 422.606 793.554 406.454 785.392C388.261 776.198 375.843 760.009 369.644 740.933Z"/>
	<path fill="#EF6B30" transform="scale(0.488281 0.488281)" d="M365.957 269.883C372.847 266.637 379.718 263.59 387.015 261.347C416.621 252.248 450.857 251.769 481.299 256.748C486.538 257.605 491.884 258.475 497.017 259.845C500.583 260.796 504.362 262.533 507.976 263.027L508.832 263.131C509.779 268.704 510.405 275.673 508.949 281.207C507.477 286.799 504.206 292.397 501.425 297.435C475.755 287.937 448.023 287.026 421.025 289.955C406.434 291.538 390.612 294.62 377.245 300.793L375.7 301.523C368.923 291.691 365.765 281.936 365.957 269.883Z"/>
	<path fill="#F8B251" transform="scale(0.488281 0.488281)" d="M669.136 556.009C683.418 566.209 692.895 580.835 695.691 598.222C698.705 616.968 692.892 635.943 681.767 651.082C671.456 665.113 654.281 676.025 636.959 678.67C629.075 679.875 620.32 679.57 612.587 677.536C609.426 676.705 606.251 675.367 603.082 674.701L619.995 657.466C638.872 636.47 653.34 611.501 662.17 584.698C663.99 579.176 665.604 573.407 666.746 567.706C667.448 564.2 667.638 560.068 668.853 556.746L669.136 556.009Z"/>
	<path fill="#F8B251" transform="scale(0.488281 0.488281)" d="M206.48 446.941C198.256 440.764 191.626 432.526 187.099 423.31C178.356 405.508 178.3 385.016 184.622 366.468C190.463 349.335 203.569 334.826 219.807 326.917C237.945 318.084 255.816 317.976 274.662 324.581C246.997 349.45 224.253 382.756 212.732 418.149C210.812 424.046 209.458 430.023 208.361 436.12C207.747 439.53 207.796 443.782 206.48 446.941Z"/>
	<path fill="#F8B251" transform="scale(0.488281 0.488281)" d="M209.495 555.09L209.725 555.799C210.457 558.16 210.431 560.859 210.874 563.301L214.638 579.551C221.721 604.75 232.741 628.143 248.33 649.246C252.477 654.861 256.598 660.504 261.532 665.467C265.948 669.908 271.026 672.692 275.59 676.748C264.437 681.277 250.567 682.183 238.828 680.015C220.284 676.59 203.016 665.385 192.35 649.775C181.924 634.517 177.939 614.596 181.552 596.517C184.889 579.827 195.353 564.451 209.495 555.09Z"/>
	<path fill="#CD331D" transform="scale(0.488281 0.488281)" d="M603.082 674.701C589.647 668.585 579.895 660.328 569.946 649.582C577.06 643.135 584.15 636.605 590.491 629.379C606.364 611.292 618.73 589.655 626.28 566.808C628.755 559.315 630.419 551.566 632.157 543.879C645.476 545.422 657.917 548.322 669.136 556.009L668.853 556.746C667.638 560.068 667.448 564.2 666.746 567.706C665.604 573.407 663.99 579.176 662.17 584.698C653.34 611.501 638.872 636.47 619.995 657.466L603.082 674.701Z"/>
	<path fill="#EF6B30" transform="scale(0.488281 0.488281)" d="M666.196 453.501C655.31 460.481 642.434 462.155 629.818 462.582C629.301 461.936 629.331 461.265 629.193 460.456C623.524 427.155 611.794 396.814 588.946 371.357L577.89 360.177C575.804 358.184 572.463 355.639 571.217 353.048C578.287 341.854 588.179 333.649 599.889 327.614L600.181 327.984C602.523 330.841 605.686 332.982 608.425 335.443C613.232 339.763 618.016 344.452 622.274 349.316C648.223 378.962 661.874 414.664 666.196 453.501Z"/>
	<path fill="#E0811B" transform="scale(0.488281 0.488281)" d="M539.599 410.171C544.553 414.202 548.758 420.059 552.38 425.273C565.712 444.467 572.69 464.484 575.126 487.613C578.967 524.092 565.994 562.278 543.051 590.421C522.153 616.054 489.057 634.16 456.112 637.423C419.518 641.047 382.219 628.674 353.991 605.275C345.652 598.364 338.248 590.182 331.418 581.809C329.015 578.864 325.933 575.629 324.619 572.01C328.352 574.227 331.562 579.533 334.887 582.588C348.593 595.175 362.851 605.375 380.2 612.274C413.091 625.354 448.212 624.438 480.683 610.368C513.035 596.35 540.546 571.167 553.514 537.898C566.463 504.676 567.346 467.477 553.081 434.5C550.873 429.396 548.275 424.484 545.347 419.757C543.471 416.726 541.211 413.953 539.799 410.66L539.599 410.171Z"/>
	<path fill="#F8B251" transform="scale(0.488281 0.488281)" d="M599.889 327.614C612.628 322.361 626.281 319.219 640.038 322.321C658.851 326.564 675.466 337.787 686.027 354.017C696.556 370.196 700.626 391.281 696.438 410.19C692.518 427.885 681.96 443.556 666.573 453.272L666.196 453.501C661.874 414.664 648.223 378.962 622.274 349.316C618.016 344.452 613.232 339.763 608.425 335.443C605.686 332.982 602.523 330.841 600.181 327.984L599.889 327.614Z"/>
	<path fill="#F8B251" transform="scale(0.488281 0.488281)" d="M365.957 269.883C366.977 255.782 370.494 242.93 378.542 231.128C388.973 215.829 405.66 205.032 423.915 201.711C443.759 198.1 463.327 202.969 479.797 214.535C496.167 226.032 505.387 243.759 508.832 263.131L507.976 263.027C504.362 262.533 500.583 260.796 497.017 259.845C491.884 258.475 486.538 257.605 481.299 256.748C450.857 251.769 416.621 252.248 387.015 261.347C379.718 263.59 372.847 266.637 365.957 269.883Z"/>
	<path fill="#EF6B30" transform="scale(0.488281 0.488281)" d="M274.662 324.581C287.367 330.511 297.87 339.418 305.355 351.362C286.749 371.835 272.183 392.072 262.941 418.5C260.342 425.93 257.934 433.809 256.862 441.623C254.747 448.65 254.504 457.139 254.256 464.438C253.136 463.719 249.219 463.783 247.714 463.598C243.732 463.11 239.648 462.434 235.75 461.481C224.826 458.81 215.467 453.546 206.48 446.941C207.796 443.782 207.747 439.53 208.361 436.12C209.458 430.023 210.812 424.046 212.732 418.149C224.253 382.756 246.997 349.45 274.662 324.581Z"/>
	<path fill="#CD331D" transform="scale(0.488281 0.488281)" d="M369.644 740.933C365.398 723.965 367.796 706.694 375.931 691.179C406.479 699.235 436.319 702.237 467.835 700.595C478.865 700.021 490.2 698.835 500.999 696.494C501.916 696.295 501.613 696.136 502.177 697.147C503.323 699.203 503.991 702.399 504.584 704.69C507.742 716.903 508.092 731.937 503.9 743.997C499.629 744.317 495.28 745.352 491.032 745.989L472.266 748.057C437.999 750.659 403.297 747.468 369.644 740.933Z"/>
	<path fill="#EF6B30" transform="scale(0.488281 0.488281)" d="M209.495 555.09L209.544 554.995C223.688 546.15 238.042 540.605 254.997 541.629C261.464 561.648 266.895 581.696 276.75 600.445C282.281 610.969 289.355 620.81 297.043 629.857C301.415 635.001 306.405 641.167 311.84 645.188C304.267 658.977 290.457 671.31 275.59 676.748C271.026 672.692 265.948 669.908 261.532 665.467C256.598 660.504 252.477 654.861 248.33 649.246C232.741 628.143 221.721 604.75 214.638 579.551L210.874 563.301C210.431 560.859 210.457 558.16 209.725 555.799L209.495 555.09Z"/>
	<path fill="#288AA7" transform="scale(0.488281 0.488281)" d="M485.117 651.988C487.988 650.121 493.474 649.631 496.892 648.444C513.788 642.578 528.844 635.098 541.775 622.458C561.221 650.398 575.416 684.096 612.785 690.789C625.436 693.055 638.669 691.184 650.915 687.736L651.234 688.468L623.5 714.951C594.725 740.276 560.419 759.707 524.53 772.965C517.391 775.603 510.154 777.686 502.818 779.701C500.166 780.43 496.923 781.749 494.2 781.808C505.595 770.463 514.651 754.986 517.95 739.165C524.576 707.389 501.458 677.105 485.117 651.988Z"/>
	<defs>
		<linearGradient id="gradient_1" gradientUnits="userSpaceOnUse" x1="691.68811" y1="488.03049" x2="605.48206" y2="331.86688">
			<stop offset="0" stop-color="#3197B2"/>
			<stop offset="1" stop-color="#71B4C2"/>
		</linearGradient>
	</defs>
	<path fill="url(#gradient_1)" transform="scale(0.488281 0.488281)" d="M718.53 304.341C738.393 332.407 752.617 364.418 762.782 397.139C764.59 402.958 767.19 409.467 767.947 415.486C764.134 418.17 760.841 422.017 757.541 425.311L739.221 443.029L701.812 475.017C680.082 492.107 656.961 507.581 633.098 521.514C625.506 525.946 617.098 531.721 608.717 534.354L587.248 535.561C588.09 533.088 588.227 529.607 588.547 526.993C590.223 513.303 590.351 499.866 588.143 486.224C587.346 481.305 586.394 475.851 584.473 471.244L583.206 467.685L584.929 467.206C604.68 469.621 626.437 474.725 646.35 472.237C656.265 470.999 665.566 467.477 674.038 462.223C690.949 451.736 703.083 434.77 707.591 415.374C712.793 392.988 709.159 368.077 696.821 348.588C685.188 330.214 665.902 315.143 644.498 310.265C646.681 308.521 650.277 308.848 653.009 308.554L676.427 306.291C684.427 305.275 693.411 305.25 701.5 305.031C706.071 304.907 714.565 306.046 718.53 304.341Z"/>
	<path fill="#93C2CB" transform="scale(0.488281 0.488281)" d="M485.094 363.93L486.253 363.721L623.672 212.804C625.272 213.291 626.418 214.543 627.873 215.351C628.559 215.733 628.258 215.523 628.963 216.056C630.219 217.006 630.351 217.123 631.969 217.287C639.325 221.525 646.422 227.545 652.932 232.952C677.66 253.491 700.855 277.387 718.53 304.341C714.565 306.046 706.071 304.907 701.5 305.031C693.411 305.25 684.427 305.275 676.427 306.291L653.009 308.554C650.277 308.848 646.681 308.521 644.498 310.265C625.69 306.039 604.438 309.772 588.134 320.159C576.753 327.41 569.708 338.246 562.122 349.059L545.183 373.01C541.258 378.623 537.47 384.608 533.031 389.821C518.177 379.908 501.974 369.948 485.094 363.93Z"/>
	<defs>
		<linearGradient id="gradient_2" gradientUnits="userSpaceOnUse" x1="337.39536" y1="820.02008" x2="196.02794" y2="477.59427">
			<stop offset="0" stop-color="#2787A3"/>
			<stop offset="1" stop-color="#45A2BC"/>
		</linearGradient>
	</defs>
	<path fill="url(#gradient_2)" transform="scale(0.488281 0.488281)" d="M101.998 515.528C107.294 514.637 112.897 514.422 118.25 513.755L148.521 509.241L257.279 486.882L283.485 480.792C287.157 479.911 291.36 479.375 294.789 477.816C295.583 477.455 296.287 477.132 297.14 476.925L297.901 476.75C295.939 495.32 295.113 514.442 300.237 532.642C286.885 531.733 274.083 532.179 260.75 532.811C250.43 533.3 239.939 533.33 229.75 535.204C216.387 537.663 203.374 544.26 193.218 553.212C178.617 566.082 169.502 585.443 168.442 604.843C168.094 611.217 168.159 617.723 169.393 624C173.787 646.336 186.177 665.952 204.948 678.983C221.643 690.574 243.016 696.476 263.225 692.743C282.819 689.124 301.287 677.279 312.436 660.746C324.467 642.903 330.022 618.664 325.827 597.454L320.502 576.912C325.207 584.605 330.808 593.099 337.518 599.183C337.746 602.193 340.298 604.286 342.248 606.393C346.44 610.924 350.47 615.192 355.173 619.225C368.47 630.626 383.201 640.621 399.831 646.403C378.564 667.857 355.258 694.872 355.409 726.822C355.505 747.089 364.826 765.382 379.103 779.429C385.672 785.893 393.103 791.287 401.162 795.744C392.995 797.49 382.653 797.045 374.325 797.049C323.413 797.074 272.719 782.161 229.5 755.458C221.47 750.497 213.529 745.239 206 739.543L194.659 730.836C192.359 729.051 190.176 726.952 187.524 725.702L187.139 725.532C177.646 716.024 169.484 705.296 161.738 694.348C124.701 641.995 104.836 579.415 101.998 515.528Z"/>
	<path fill="#1A5A71" transform="scale(0.488281 0.488281)" d="M608.717 534.354C617.098 531.721 625.506 525.946 633.098 521.514C656.961 507.581 680.082 492.107 701.812 475.017L739.221 443.029L757.541 425.311C760.841 422.017 764.134 418.17 767.947 415.486L768.263 415.808C771.67 429.579 774.685 443.539 776.328 457.644C784.786 530.265 768.232 608.572 730.439 671.204C709.638 705.676 682.593 738.172 651.08 763.324C610.998 795.315 563.631 817.127 513.957 829.325C432.34 849.366 340.618 837.903 268.422 794.039C242.737 778.435 219.357 760.009 198.267 738.601C194.813 735.096 189.104 730.014 187.139 725.532L187.524 725.702C190.176 726.952 192.359 729.051 194.659 730.836L206 739.543C213.529 745.239 221.47 750.497 229.5 755.458C272.719 782.161 323.413 797.074 374.325 797.049C382.653 797.045 392.995 797.49 401.162 795.744C404.4 796.849 407.454 798.501 410.699 799.643C417.173 801.922 423.991 803.261 430.825 803.796C454.688 805.666 476.216 797.249 494.2 781.808C496.923 781.749 500.166 780.43 502.818 779.701C510.154 777.686 517.391 775.603 524.53 772.965C560.419 759.707 594.725 740.276 623.5 714.951L651.234 688.468L650.915 687.736C651.282 687.404 653.045 686.956 653.606 686.756C656.149 685.845 658.696 684.9 661.156 683.782C669.327 680.072 676.329 675.085 682.75 668.839C698.706 653.319 707.902 632.239 708.148 610.016C708.356 591.207 701.067 572.956 687.86 559.562C673.044 544.537 653.358 536.909 632.603 534.962C624.716 534.223 616.635 534.428 608.717 534.354Z"/>
	<defs>
		<linearGradient id="gradient_3" gradientUnits="userSpaceOnUse" x1="379.3526" y1="471.2955" x2="331.84103" y2="174.09688">
			<stop offset="0" stop-color="#82BCCA"/>
			<stop offset="1" stop-color="#BBDCE1"/>
		</linearGradient>
	</defs>
	<path fill="url(#gradient_3)" transform="scale(0.488281 0.488281)" d="M124.809 380.128C126.732 377.089 127.932 373.08 129.34 369.742L136.836 353C145.143 335.349 155.784 318.075 167.461 302.453C182.087 282.885 198.184 264.545 216.345 248.156C266.551 202.85 330.397 172.619 397.406 163.127C426.259 159.04 456.027 158.171 485 161.548C520.985 165.742 556.512 176.616 589.098 192.322C603.913 199.463 618.772 207.407 631.969 217.287C630.351 217.123 630.219 217.006 628.963 216.056C628.258 215.523 628.559 215.733 627.873 215.351C626.418 214.543 625.272 213.291 623.672 212.804L486.253 363.721L485.094 363.93L478.114 362.101C482.198 352.558 487.568 343.626 492.483 334.5L510.253 300.332C513.446 294.113 518.146 286.966 519.764 280.154C522.888 266.999 520.167 251.922 515.271 239.564C506.994 218.673 490.026 202.879 469.531 194.167C449.337 185.582 425.523 185.842 405.267 194.026C385.593 201.975 368.697 217.242 360.537 237C353.775 253.374 351.335 273.807 358.423 290.399L397.197 360.831C390.755 362.826 384.432 364.908 378.348 367.855C362.852 375.362 350.31 385.956 338.047 397.837L317.549 357.939C314.495 352.05 312.25 345.774 309.141 339.915C301.877 326.223 288.812 316.547 274.28 311.609C254.213 304.791 232.869 306.588 213.973 316.044C193.473 326.302 179.068 343.952 171.925 365.578C165.186 385.981 166.592 409.18 176.3 428.381C186.32 448.199 202.861 462.627 224.001 469.49C238.846 474.31 253.929 473.143 269.184 471.371L299.072 467.572L297.901 476.75L297.14 476.925C296.287 477.132 295.583 477.455 294.789 477.816C291.36 479.375 287.157 479.911 283.485 480.792L257.279 486.882L148.521 509.241L118.25 513.755C112.897 514.422 107.294 514.637 101.998 515.528C101.091 478.47 105.539 442.905 115.867 407.277L124.809 380.128Z"/>
	<defs>
		<linearGradient id="gradient_4" gradientUnits="userSpaceOnUse" x1="498.1799" y1="600.02069" x2="365.98157" y2="382.81552">
			<stop offset="0" stop-color="#FED691"/>
			<stop offset="1" stop-color="#FFFEE1"/>
		</linearGradient>
	</defs>
	<path fill="url(#gradient_4)" transform="scale(0.488281 0.488281)" d="M324.619 572.01C306.657 546.711 300.725 513.26 303.361 482.863C306.436 447.402 325.235 414.458 352.299 391.83C380.489 368.261 417.193 358.945 453.309 362.373C486.776 365.55 518.409 384.624 539.599 410.171L539.799 410.66C541.211 413.953 543.471 416.726 545.347 419.757C548.275 424.484 550.873 429.396 553.081 434.5C567.346 467.477 566.463 504.676 553.514 537.898C540.546 571.167 513.035 596.35 480.683 610.368C448.212 624.438 413.091 625.354 380.2 612.274C362.851 605.375 348.593 595.175 334.887 582.588C331.562 579.533 328.352 574.227 324.619 572.01Z"/>
	<path fill="#151E34" transform="scale(0.488281 0.488281)" d="M357.385 507.636C362.454 507.395 366.571 507.999 371.099 510.48C377.536 514.006 381.948 519.994 383.8 527.066C385.629 534.052 384.532 541.528 380.657 547.64C376.355 554.427 370.569 557.786 362.851 559.579C356.369 559.62 351.473 559.239 345.866 555.525C340.093 551.701 335.874 544.625 334.664 537.878C333.513 531.452 335.384 524.297 339.079 519C343.661 512.432 349.61 509.088 357.385 507.636Z"/>
	<path fill="#576F90" transform="scale(0.488281 0.488281)" d="M344.535 551.105L345.266 549.915C350.479 550.262 355.498 551.951 360.8 551.407C369.988 550.463 376.814 544.12 382.488 537.358L383.168 537.576C381.59 544.714 378.11 550.918 371.75 554.901C366.713 558.055 360.015 559.129 354.266 557.679C350.16 556.643 347.203 554.329 344.535 551.105Z"/>
	<path fill="#38435D" transform="scale(0.488281 0.488281)" d="M344.535 551.105C343.913 550.614 343.783 550.288 343.437 549.577C340.866 544.292 341.972 536.622 343.989 531.283C346.257 525.284 351.408 520.34 357.299 517.93C362.351 515.864 369.479 515.586 374.515 517.936C377.644 519.396 380.993 522.265 382.174 525.561L382.408 526.25C383.703 529.805 383.955 533.856 383.168 537.576L382.488 537.358C376.814 544.12 369.988 550.463 360.8 551.407C355.498 551.951 350.479 550.262 345.266 549.915L344.535 551.105Z"/>
	<path fill="#151E34" transform="scale(0.488281 0.488281)" d="M362.703 422.584C368.143 422.275 373.211 423.132 377.935 425.973C383.657 429.415 387.922 434.923 389.505 441.441C391.282 448.756 390.645 456.221 386.592 462.743C382.227 469.769 375.516 473.716 367.619 475.498C361.681 475.997 356.415 475.164 351.237 472.033C345.227 468.399 340.761 462.162 339.326 455.281C337.849 448.191 339.777 440.15 343.798 434.225C348.289 427.61 355.03 424.109 362.703 422.584Z"/>
	<path fill="#576F90" transform="scale(0.488281 0.488281)" d="M348.167 463.638C350.393 463.768 352.492 465.329 354.533 466.209C358.789 468.046 365.214 468.057 369.646 466.772L370.5 466.512C374.383 465.369 378.095 463.73 381.306 461.219C383.481 459.518 385.226 457.322 387.433 455.658L388.216 455.081C386.006 462.264 382.028 467.863 375.25 471.385C373.019 472.545 370.956 473.141 368.5 473.583L367.849 473.71C363.266 474.543 357.764 473.769 353.907 471.115C351.126 469.201 349.614 466.609 348.167 463.638Z"/>
	<path fill="#38435D" transform="scale(0.488281 0.488281)" d="M348.167 463.638C346.096 461.003 346.12 455.514 346.516 452.25C347.265 446.081 350.862 440.106 355.734 436.31C361.206 432.048 368.328 429.919 375.25 431.128C379.748 431.913 384.079 434.897 386.613 438.688L386.972 439.25L387.663 440.374C389.816 444.49 389.66 450.819 388.216 455.081L387.433 455.658C385.226 457.322 383.481 459.518 381.306 461.219C378.095 463.73 374.383 465.369 370.5 466.512L369.646 466.772C365.214 468.057 358.789 468.046 354.533 466.209C352.492 465.329 350.393 463.768 348.167 463.638Z"/>
	<path fill="#151E34" transform="scale(0.488281 0.488281)" d="M435.262 382.171C439.764 381.737 444.811 382.833 448.812 384.895C455.004 388.087 459.487 393.518 461.471 400.173L461.684 400.911C461.966 401.839 462.254 402.737 462.388 403.703C463.466 411.449 461.256 419.002 456.422 425.082C451.451 431.335 445.444 433.956 437.622 434.882C431.385 435.216 425.15 433.109 420.25 429.277C414.939 425.124 411.162 418.647 410.331 411.937C409.443 404.771 411.396 398.091 415.856 392.453C420.867 386.119 427.32 383.108 435.262 382.171Z"/>
	<path fill="#576F90" transform="scale(0.488281 0.488281)" d="M421.904 427.123C426.674 426.482 431.607 428.368 436.631 427.674L437.5 427.544C440.864 427.064 443.79 425.966 446.796 424.39L447.5 424.015C452.029 421.638 454.96 418.091 459 415.204L459.789 415.885C457.033 423.023 453.334 428.223 446.144 431.334C440.472 433.787 433.398 434.397 427.658 431.885C425.27 430.84 423.479 429.172 421.904 427.123Z"/>
	<path fill="#38435D" transform="scale(0.488281 0.488281)" d="M421.904 427.123L421.427 426.733C418.656 423.701 417.619 416.844 418.153 412.959C419.11 405.998 422.022 399.537 427.787 395.235L428.337 394.834C430.533 393.212 432.76 392.011 435.389 391.223C440.996 389.541 448.288 389.49 453.485 392.518C456.791 394.444 459.547 398.091 460.415 401.845C461.537 406.698 461.729 411.192 459.789 415.885L459 415.204C454.96 418.091 452.029 421.638 447.5 424.015L446.796 424.39C443.79 425.966 440.864 427.064 437.5 427.544L436.631 427.674C431.607 428.368 426.674 426.482 421.904 427.123Z"/>
	<path fill="#151E34" transform="scale(0.488281 0.488281)" d="M432.721 555.613C439.271 555.142 445.001 556.264 450.507 560.016C456.226 563.913 460.315 569.821 461.583 576.658C462.937 583.959 462.039 590.915 457.75 597.121C452.965 604.045 446.747 607.419 438.616 608.944C432.213 609.212 427.127 608.373 421.618 604.799C416.072 601.2 410.949 595.295 409.663 588.628C408.21 581.09 409.824 573.003 414.345 566.724C418.859 560.454 425.287 557.012 432.721 555.613Z"/>
	<path fill="#576F90" transform="scale(0.488281 0.488281)" d="M424.618 605.122C426.473 604.166 429.437 604.04 431.53 603.531C440.062 601.458 447.661 598.012 453.34 591.108L453.896 590.419C455.8 588.087 457.459 585.565 458.908 582.927C459.379 582.069 459.432 581.86 460.25 581.282L460.66 584.676C459.156 592.451 456.516 598.962 449.619 603.422C444.244 606.899 436.647 608.765 430.313 607.215C428.404 606.747 426.376 605.985 424.618 605.122Z"/>
	<path fill="#38435D" transform="scale(0.488281 0.488281)" d="M424.618 605.122C423.571 604.534 422.597 603.818 421.75 602.963C418.433 599.615 416.895 594.128 417.122 589.491C417.484 582.113 420.34 576.333 425.759 571.382C431.059 566.54 438.024 565.001 445 565.47C450.059 565.811 454.437 568.161 457.75 571.929C460.99 575.614 460.881 580.059 460.66 584.676L460.25 581.282C459.432 581.86 459.379 582.069 458.908 582.927C457.459 585.565 455.8 588.087 453.896 590.419L453.34 591.108C447.661 598.012 440.062 601.458 431.53 603.531C429.437 604.04 426.473 604.166 424.618 605.122Z"/>
	<path fill="#151E34" transform="scale(0.488281 0.488281)" d="M509.66 510.129C516.251 509.815 521.634 510.693 527.104 514.578C532.729 518.573 537.333 525.056 538.479 531.929C539.745 539.526 537.753 547.605 533.095 553.784C528.494 559.887 522.421 562.837 514.992 563.845C508.818 564.259 503.577 563.269 498.335 559.936C492.186 556.025 487.605 549.448 486.054 542.34C484.55 535.45 486.31 527.495 490.33 521.736C494.959 515.102 501.834 511.531 509.66 510.129Z"/>
	<path fill="#576F90" transform="scale(0.488281 0.488281)" d="M499.084 556.86C505.409 556.142 511.077 556.274 517.262 554.296C524.313 552.042 532.155 545.161 535.544 538.651C535.912 537.942 536.208 537.494 536.826 536.967L537.462 536.45C536.803 544.123 534.698 551.114 528.659 556.311C523.803 560.491 517.349 562.717 510.939 562.196C506.164 561.808 502.597 560.131 499.084 556.86Z"/>
	<path fill="#38435D" transform="scale(0.488281 0.488281)" d="M499.084 556.86C496.108 553.543 494.472 548.997 494.188 544.583C493.78 538.249 496.445 531.441 500.649 526.75C505.245 521.622 511.819 518.295 518.75 518.108C523.85 517.97 528.247 519.406 531.873 523.028C535.605 526.757 537.405 531.222 537.462 536.45L536.826 536.967C536.208 537.494 535.912 537.942 535.544 538.651C532.155 545.161 524.313 552.042 517.262 554.296C511.077 556.274 505.409 556.142 499.084 556.86Z"/>
	<path fill="#151E34" transform="scale(0.488281 0.488281)" d="M507.568 422.601C513.383 422 518.333 422.645 523.538 425.46C530.199 429.062 535.145 435.58 537.223 442.834C539.377 450.351 538.563 458.508 534.547 465.287C530.297 472.461 523.194 476.399 515.363 478.273C508.524 478.698 502.779 478.055 496.829 474.328C490.586 470.417 486.211 464.034 484.683 456.84C483.049 449.146 484.586 440.936 488.887 434.37C493.298 427.637 499.888 424.257 507.568 422.601Z"/>
	<path fill="#576F90" transform="scale(0.488281 0.488281)" d="M500.973 474.116C503.312 472.465 506.987 472.828 509.75 472.289C514.517 471.361 518.79 469.389 522.646 466.439C526.002 463.871 528.717 461.131 531.003 457.56C532.487 455.241 534.087 449.767 536.139 448.25L536.868 449.042C536.651 457.364 535.013 463.995 528.856 469.906C523.347 475.194 517.062 477.19 509.513 476.991C508.593 476.967 507.872 476.848 506.971 476.646L506.323 476.507C504.301 476.046 502.737 475.176 500.973 474.116Z"/>
	<path fill="#38435D" transform="scale(0.488281 0.488281)" d="M500.973 474.116C497.258 472.228 494.582 467.532 493.389 463.678C491.221 456.672 492.467 449.081 495.925 442.723C498.922 437.211 504.785 433.137 510.75 431.536L511.5 431.342L513.001 430.954C518.215 429.802 524.045 430.471 528.5 433.517C532.486 436.243 535.496 439.979 536.278 444.858L536.868 449.042L536.139 448.25C534.087 449.767 532.487 455.241 531.003 457.56C528.717 461.131 526.002 463.871 522.646 466.439C518.79 469.389 514.517 471.361 509.75 472.289C506.987 472.828 503.312 472.465 500.973 474.116Z"/>
	<path fill="#050A23" transform="scale(0.488281 0.488281)" d="M434.084 462.191C443.478 461.436 452.927 464.761 460.415 470.305C468.657 476.408 474.034 485.92 475.43 496.056C476.892 506.67 473.854 516.936 467.332 525.354C460.596 534.05 451.499 537.818 440.89 539.209C432.181 539.876 422.982 537.264 415.889 532.196C406.882 525.759 400.694 516.446 399.105 505.413C397.65 495.313 401.251 484.539 407.449 476.585C414.094 468.057 423.5 463.491 434.084 462.191Z"/>
	<path fill="#FEFEFE" transform="scale(0.488281 0.488281)" d="M423.278 531.781C419.416 530.289 415.702 527.473 412.729 524.631C406.289 518.474 402.563 509.678 402.547 500.75C402.53 491.771 406.835 482.346 413.174 476.028C419.505 469.719 428.772 465.765 437.75 466.011C447.572 466.28 455.706 470.828 462.407 477.731L462 477.562C458.984 476.288 456.245 474.517 453.183 473.333C445.463 470.35 436.47 471.002 428.878 474.06C420.678 477.362 414.551 484.501 411.294 492.623C410.336 495.014 409.785 497.457 409.441 500L409.31 500.921C408.207 509.547 411.462 518.374 416.75 525.112C418.725 527.629 421.212 529.433 423.278 531.781Z"/>
	<path fill="#EF6B30" transform="scale(0.488281 0.488281)" d="M423.278 531.781C421.212 529.433 418.725 527.629 416.75 525.112C411.462 518.374 408.207 509.547 409.31 500.921L409.441 500C409.785 497.457 410.336 495.014 411.294 492.623C414.551 484.501 420.678 477.362 428.878 474.06C436.47 471.002 445.463 470.35 453.183 473.333C456.245 474.517 458.984 476.288 462 477.562L462.407 477.731C469.126 484.466 471.817 492.678 471.743 502.089C471.669 511.477 467.52 520.145 460.792 526.569C454.354 532.716 445.973 535.778 437.08 535.529C432.2 535.392 427.718 534.099 423.37 531.911L423.278 531.781Z"/>
</svg>
