<?xml version="1.0" encoding="utf-8" ?>
<svg xmlns="http://www.w3.org/2000/svg" xmlns:xlink="http://www.w3.org/1999/xlink" width="500" height="500">
	<defs>
		<linearGradient id="gradient_0" gradientUnits="userSpaceOnUse" x1="511.69763" y1="245.93111" x2="511.80237" y2="1023.5689">
			<stop offset="0" stop-color="#0F586C"/>
			<stop offset="1" stop-color="#05707D"/>
		</linearGradient>
	</defs>
	<path fill="url(#gradient_0)" transform="scale(0.488281 0.488281)" d="M0 245.439L-0 -0L345.422 0L348.957 0L675.869 0L1024 0L1024 245.487L1024 1024L-0 1024L0 245.439Z"/>
	<path fill="#FDFFFB" transform="scale(0.488281 0.488281)" d="M27.4274 449.074L27.5235 445C29.3118 443.775 36.5154 444.521 39.0187 444.526L39.1226 445.232L36.4036 448.974L27.4274 449.074Z"/>
	<path fill="#64DAAD" transform="scale(0.488281 0.488281)" d="M27.4274 449.074L36.4036 448.974L27.6553 463.575C26.9878 458.956 27.437 453.761 27.4274 449.074Z"/>
	<path fill="#FDFFFB" transform="scale(0.488281 0.488281)" d="M973.418 697.348L995 697.384C995.873 698.724 995.549 700.415 995.538 702.001L973.051 702.051C972.289 700.634 971.25 699.2 971.25 697.576L973.418 697.348Z"/>
	<path fill="#01446A" transform="scale(0.488281 0.488281)" d="M159.108 354.193L158.993 352.25C161.927 351.617 165.181 351.827 168.165 351.839L183.794 352.026L215.384 351.467C215.573 352.946 215.394 353.081 216.536 353.999L180.407 353.97C174.94 353.98 168.934 353.502 163.529 354.066L162.954 353.799C161.225 353.229 160.7 353.605 159.108 354.193Z"/>
	<path fill="#64DAAD" transform="scale(0.488281 0.488281)" d="M988.716 444.389L994.929 444.615C995.822 446.259 995.474 448.513 995.435 450.352C995.341 454.644 995.947 460.457 994.973 464.514L985.957 449.384L982.911 444.484L988.716 444.389Z"/>
	<path fill="#FDFFFB" transform="scale(0.488281 0.488281)" d="M988.716 444.389L994.929 444.615L994.991 448.75C993.548 449.975 988.077 449.383 985.957 449.384L982.911 444.484L988.716 444.389Z"/>
	<path fill="#002C73" transform="scale(0.488281 0.488281)" d="M941.038 770.065L954.728 770.126L955.174 770.21C959.516 770.942 964.252 770.562 968.662 770.578L995.387 770.705C995.687 771.778 995.649 771.829 995.25 772.878L956.702 772.952C952.822 772.952 945.704 772.042 942.3 773.442L942.014 773.702L941.038 770.065Z"/>
	<path fill="#FDFFFB" transform="scale(0.488281 0.488281)" d="M960.015 850.054L960.402 850.064L960.861 850.11C965.469 850.533 994.283 849.604 995.93 851L995.991 855.535L962.309 855.507C961.409 853.895 959.712 851.868 960.015 850.054Z"/>
	<path fill="#FDFFFB" transform="scale(0.488281 0.488281)" d="M943.418 630.899C949.693 630.998 994.04 630.41 995.395 631.5L995.489 635.563L942.695 635.771C942.07 634.406 941.016 632.697 941.176 631.189L943.418 630.899Z"/>
	<path fill="#FDFFFB" transform="scale(0.488281 0.488281)" d="M27.4329 635.674L27.4821 631.5C29.4791 630.182 38.2313 630.979 41.0204 630.975L83.5817 630.985C83.4811 632.662 82.6125 634.015 81.8545 635.474L27.4329 635.674Z"/>
	<path fill="#64DAAD" transform="scale(0.488281 0.488281)" d="M973.051 702.051L995.538 702.001L995.55 734.197C995.551 738.691 996.158 744.234 995.339 748.624L973.051 702.051Z"/>
	<path fill="#64DAAD" transform="scale(0.488281 0.488281)" d="M962.309 855.507L995.991 855.535L995.955 899.591L995.885 915.277C995.827 917.831 995.962 920.67 995.289 923.13C993.196 917.344 989.909 911.626 987.208 906.079L971.137 873.566C968.164 867.575 964.942 861.655 962.309 855.507Z"/>
	<path fill="#64DAAD" transform="scale(0.488281 0.488281)" d="M27.5039 850.508L63.6321 850.422L61.5107 855.433L37.6657 902.128C34.1888 909.142 29.9612 916.263 27.3824 923.651C26.5686 920.858 26.9553 917.239 26.9575 914.309L26.9917 896.283L26.923 852.506C26.9307 851.748 27.1636 851.169 27.5039 850.508Z"/>
	<path fill="#FDFFFB" transform="scale(0.488281 0.488281)" d="M27.5039 850.508L63.6321 850.422L61.5107 855.433L27.6846 855.303C27.1033 853.764 27.3942 852.116 27.5039 850.508Z"/>
	<path fill="#64DAAD" transform="scale(0.488281 0.488281)" d="M926.638 354.489L995.564 354.391L995.542 386.532L959.739 386.576L946.697 386.491L926.638 354.489Z"/>
	<path fill="#64DAAD" transform="scale(0.488281 0.488281)" d="M27.5161 386.473L27.3531 354.329L78.9778 354.156L91.2353 354.15C93.2813 354.15 95.9931 353.805 97.8753 354.608L83.6661 376.65C82.446 378.566 79.8915 381.615 79.2907 383.668C78.5058 384.666 77.7811 386.212 76.501 386.354L27.5161 386.473Z"/>
	<path fill="#64DAAD" transform="scale(0.488281 0.488281)" d="M922.633 353.899C923.996 353.392 924.556 353.386 925.961 353.75L926.638 354.489L946.697 386.491L959.739 386.576C968.913 387.728 978.936 387.073 988.207 387.086C989.594 387.088 993.598 386.627 994.75 387.089C995.044 387.207 995.206 387.53 995.434 387.75L994.927 389.599L995.052 389.913C996.431 393.715 995.374 400.975 995.352 405.183L995.157 441.454L994.75 443.755C992.772 443.9 990.616 443.837 988.716 444.389L982.911 444.484L985.957 449.384L994.973 464.514C995.336 465.749 995.85 467.415 995.342 468.686L994.798 469.543L978.685 444.037C978.169 442.953 977.629 442.102 976.886 441.16L951.969 400.652C950.114 397.693 947.46 391.747 944.942 389.611C944.673 389.383 943.202 389.163 942.779 389.054C942.844 388.365 942.789 388.694 942.996 387.886C943.235 386.956 942.953 386.777 942.58 385.922L922.633 353.899Z"/>
	<path fill="#002C73" transform="scale(0.488281 0.488281)" d="M981.29 441.455L995.157 441.454L994.75 443.755C992.772 443.9 990.616 443.837 988.716 444.389L982.911 444.484C982.616 443.21 982.043 442.494 981.29 441.455Z"/>
	<defs>
		<linearGradient id="gradient_1" gradientUnits="userSpaceOnUse" x1="948.36505" y1="422.22256" x2="987.8548" y2="381.53558">
			<stop offset="0" stop-color="#00166C"/>
			<stop offset="1" stop-color="#00306B"/>
		</linearGradient>
	</defs>
	<path fill="url(#gradient_1)" transform="scale(0.488281 0.488281)" d="M922.633 353.899C923.996 353.392 924.556 353.386 925.961 353.75L926.638 354.489L946.697 386.491L959.739 386.576C968.913 387.728 978.936 387.073 988.207 387.086C989.594 387.088 993.598 386.627 994.75 387.089C995.044 387.207 995.206 387.53 995.434 387.75L994.927 389.599L995.052 389.913L994.877 392C992.76 393.248 986.026 392.556 983.325 392.572L951.06 392.608L981.29 441.455C982.043 442.494 982.616 443.21 982.911 444.484L985.957 449.384L994.973 464.514C995.336 465.749 995.85 467.415 995.342 468.686L994.798 469.543L978.685 444.037C978.169 442.953 977.629 442.102 976.886 441.16L951.969 400.652C950.114 397.693 947.46 391.747 944.942 389.611C944.673 389.383 943.202 389.163 942.779 389.054C942.844 388.365 942.789 388.694 942.996 387.886C943.235 386.956 942.953 386.777 942.58 385.922L922.633 353.899Z"/>
	<path fill="#FDFFFB" transform="scale(0.488281 0.488281)" d="M994.927 389.599L995.052 389.913L994.877 392C992.76 393.248 986.026 392.556 983.325 392.572L951.06 392.608L949.255 390.25C950.818 388.954 957.662 389.631 959.933 389.63L994.927 389.599Z"/>
	<path fill="#64DAAD" transform="scale(0.488281 0.488281)" d="M942.695 635.771L995.489 635.563L995.488 694.432L970.047 694.42L942.695 635.771Z"/>
	<path fill="#64DAAD" transform="scale(0.488281 0.488281)" d="M27.4329 635.674L81.8545 635.474L53.5681 694.471L27.5377 694.456L27.4329 635.674Z"/>
	<path fill="#64DAAD" transform="scale(0.488281 0.488281)" d="M942.3 773.442L978.189 773.427C983.709 773.427 990.001 772.857 995.442 773.643C995.774 774.185 995.887 774.283 996.028 775C996.246 776.099 995.861 777.852 995.845 779.034L995.752 791.118L995.876 846.966L957.606 846.66C957.551 839.036 958.318 830.765 957.503 823.25C957.332 821.667 956.587 820.181 956.134 818.658L953.046 808.834L943.436 777.99L942.014 773.702L942.3 773.442Z"/>
	<path fill="#FDFFFB" transform="scale(0.488281 0.488281)" d="M942.3 773.442L978.189 773.427C983.709 773.427 990.001 772.857 995.442 773.643C995.491 775.133 995.936 776.772 995 777.96L943.436 777.99L942.014 773.702L942.3 773.442Z"/>
	<path fill="#64DAAD" transform="scale(0.488281 0.488281)" d="M967.892 696.825L970 696.255C971.123 696.585 972.101 696.826 973.264 696.963L973.418 697.348L971.25 697.576C971.25 699.2 972.289 700.634 973.051 702.051L995.339 748.624C995.808 750.673 996.369 753.106 995.403 755.107L995.154 755.5C996.024 758.538 995.51 762.592 995.46 765.778L995.384 769.75C993.124 770.78 988.294 770.182 985.751 770.181C975.515 770.176 964.914 769.471 954.728 770.126L941.038 770.065C937.203 761.224 935.099 750.804 932.502 741.5L920.896 702.5L919.619 697.591L966.966 697.569L967.892 696.825Z"/>
	<path fill="#FDFFFB" transform="scale(0.488281 0.488281)" d="M967.892 696.825L970 696.255C971.123 696.585 972.101 696.826 973.264 696.963L973.418 697.348L971.25 697.576C971.25 699.2 972.289 700.634 973.051 702.051L995.339 748.624C995.808 750.673 996.369 753.106 995.403 755.107L995.154 755.5C996.024 758.538 995.51 762.592 995.46 765.778C994.208 764.449 993.366 762.533 992.494 760.929L986.551 749.154L973.301 721.029C970.423 714.774 967.795 708.406 964.552 702.328L920.896 702.5L919.619 697.591L966.966 697.569L967.892 696.825Z"/>
	<path fill="#002C73" transform="scale(0.488281 0.488281)" d="M967.892 696.825L970 696.255C971.123 696.585 972.101 696.826 973.264 696.963L973.418 697.348L971.25 697.576C971.25 699.2 972.289 700.634 973.051 702.051L995.339 748.624C995.808 750.673 996.369 753.106 995.403 755.107L995.154 755.5L977.188 718.244L971.25 706.013C969.891 703.162 968.747 700.192 966.966 697.569L967.892 696.825Z"/>
	<path fill="#64DAAD" transform="scale(0.488281 0.488281)" d="M48.7551 933.404L103.3 933.512L101.819 937.342L75.2322 1002.11L26.5973 1002.04L26.6149 952.051L26.5977 941.105C26.5617 938.758 26.2251 936.253 26.9578 933.996C28.7379 933.127 31.7222 933.506 33.7531 933.493L48.7551 933.404Z"/>
	<path fill="#FDFFFB" transform="scale(0.488281 0.488281)" d="M48.7551 933.404L103.3 933.512L101.819 937.342L46.449 937.342C42.8008 937.349 29.6168 938.191 27.1495 936.923L26.9578 933.996C28.7379 933.127 31.7222 933.506 33.7531 933.493L48.7551 933.404Z"/>
	<path fill="#64DAAD" transform="scale(0.488281 0.488281)" d="M63.726 850.029C64.8204 850.226 66.6395 850.25 67.4238 851.009L67.4747 878.307L125.467 878.419L112.112 911.557C109.746 917.474 106.326 924.112 104.856 930.255L104.622 930.415C104.227 931.501 103.887 932.509 103.3 933.512L48.7551 933.404C42.3525 932.363 35.272 933.44 28.75 932.797L28.9522 931.967L32.3043 931.141L27.25 930.937L27.3364 929.726C26.0945 927.558 26.822 925.891 27.3824 923.651C29.9612 916.263 34.1888 909.142 37.6657 902.128L61.5107 855.433L63.6321 850.422L63.726 850.029Z"/>
	<path fill="#002C73" transform="scale(0.488281 0.488281)" d="M34.2916 930.473C44.0787 929.44 54.6783 930.271 64.5757 930.316L104.622 930.415C104.227 931.501 103.887 932.509 103.3 933.512L48.7551 933.404C42.3525 932.363 35.272 933.44 28.75 932.797L28.9522 931.967L32.3043 931.141C33.1388 931.039 33.5498 930.838 34.2916 930.473Z"/>
	<path fill="#FDFFFB" transform="scale(0.488281 0.488281)" d="M63.726 850.029C64.8204 850.226 66.6395 850.25 67.4238 851.009C66.9366 851.514 66.6623 851.75 66.4219 852.423C67.2922 854.293 67.4285 860.793 66.6242 862.732L65.9663 863.797L34.2916 930.473C33.5498 930.838 33.1388 931.039 32.3043 931.141L27.25 930.937L27.3364 929.726C26.0945 927.558 26.822 925.891 27.3824 923.651C29.9612 916.263 34.1888 909.142 37.6657 902.128L61.5107 855.433L63.6321 850.422L63.726 850.029Z"/>
	<path fill="#002C73" transform="scale(0.488281 0.488281)" d="M63.726 850.029C64.8204 850.226 66.6395 850.25 67.4238 851.009C66.9366 851.514 66.6623 851.75 66.4219 852.423L27.3364 929.726C26.0945 927.558 26.822 925.891 27.3824 923.651C29.9612 916.263 34.1888 909.142 37.6657 902.128L61.5107 855.433L63.6321 850.422L63.726 850.029Z"/>
	<path fill="#64DAAD" transform="scale(0.488281 0.488281)" d="M957.477 853.517C957.483 852.941 957.559 852.03 957.755 851.5C958.165 850.391 959.025 850.348 960.015 850.054C959.712 851.868 961.409 853.895 962.309 855.507C964.942 861.655 968.164 867.575 971.137 873.566L987.208 906.079C989.909 911.626 993.196 917.344 995.289 923.13C995.787 925.153 996.15 926.909 996.058 929C995.305 929.811 995.65 929.533 995.105 929.929L995 930.993L993.52 931.555L994.75 932.158L994.75 932.855L991.442 933.428L995.482 933.63C996.219 934.906 996.062 935.807 996.059 937.236L995.987 1002.42L948.89 1002.48L945.339 1002.45L916.548 933.5C916.377 932.2 916.153 931.442 915.477 930.316L908.31 930.4L887.985 878.363L888.175 878.071L893.746 878.102L897.543 878.201L957.671 878.118L957.605 862.786L957.477 853.517Z"/>
	<defs>
		<linearGradient id="gradient_2" gradientUnits="userSpaceOnUse" x1="915.81689" y1="943.18427" x2="978.09003" y2="910.93378">
			<stop offset="0" stop-color="#002674"/>
			<stop offset="1" stop-color="#003D7C"/>
		</linearGradient>
	</defs>
	<path fill="url(#gradient_2)" transform="scale(0.488281 0.488281)" d="M893.746 878.102L897.543 878.201C899.008 883.22 901.497 888.053 903.517 892.878L919.063 930.452L968.453 930.422L982.235 930.43C984.983 930.435 988.043 930.237 990.747 930.75L993.52 931.555L994.75 932.158L994.75 932.855L991.442 933.428L995.482 933.63C996.219 934.906 996.062 935.807 996.059 937.236C993.93 936.886 991.316 937.134 989.143 937.112L973.942 937.047L921.894 937.032L948.89 1002.48L945.339 1002.45L916.548 933.5C916.377 932.2 916.153 931.442 915.477 930.316L908.31 930.4L887.985 878.363L888.175 878.071L893.746 878.102Z"/>
	<path fill="#FDFFFB" transform="scale(0.488281 0.488281)" d="M991.442 933.428L995.482 933.63C996.219 934.906 996.062 935.807 996.059 937.236C993.93 936.886 991.316 937.134 989.143 937.112L973.942 937.047L921.894 937.032L920.575 934.25L921.25 933.534L991.442 933.428Z"/>
	<path fill="#FDFFFB" transform="scale(0.488281 0.488281)" d="M893.746 878.102L915.477 930.316L908.31 930.4L887.985 878.363L888.175 878.071L893.746 878.102Z"/>
	<path fill="#64DAAD" transform="scale(0.488281 0.488281)" d="M957.477 853.517C957.483 852.941 957.559 852.03 957.755 851.5C958.165 850.391 959.025 850.348 960.015 850.054C959.712 851.868 961.409 853.895 962.309 855.507C964.942 861.655 968.164 867.575 971.137 873.566L987.208 906.079C989.909 911.626 993.196 917.344 995.289 923.13C995.787 925.153 996.15 926.909 996.058 929C995.305 929.811 995.65 929.533 995.105 929.929L995 930.993L993.52 931.555L990.747 930.75C988.043 930.237 984.983 930.435 982.235 930.43L968.453 930.422L919.063 930.452L903.517 892.878C901.497 888.053 899.008 883.22 897.543 878.201L957.671 878.118L957.605 862.786L957.477 853.517Z"/>
	<path fill="#FDFFFB" transform="scale(0.488281 0.488281)" d="M957.477 853.517C957.483 852.941 957.559 852.03 957.755 851.5C958.165 850.391 959.025 850.348 960.015 850.054C959.712 851.868 961.409 853.895 962.309 855.507C964.942 861.655 968.164 867.575 971.137 873.566L987.208 906.079C989.909 911.626 993.196 917.344 995.289 923.13C995.787 925.153 996.15 926.909 996.058 929C995.305 929.811 995.65 929.533 995.105 929.929L995 930.993L993.52 931.555L990.747 930.75L957.605 862.786L957.477 853.517Z"/>
	<path fill="#002C73" transform="scale(0.488281 0.488281)" d="M957.477 853.517C957.483 852.941 957.559 852.03 957.755 851.5C958.165 850.391 959.025 850.348 960.015 850.054C959.712 851.868 961.409 853.895 962.309 855.507C964.942 861.655 968.164 867.575 971.137 873.566L987.208 906.079C989.909 911.626 993.196 917.344 995.289 923.13C995.787 925.153 996.15 926.909 996.058 929C995.305 929.811 995.65 929.533 995.105 929.929C989.165 919.293 984.275 907.645 979.138 896.583L966.458 870.762L961.157 859.764C960.14 857.66 959.154 855.168 957.477 853.517Z"/>
	<path fill="#64DAAD" transform="scale(0.488281 0.488281)" d="M97.8753 354.608C98.287 354.238 98.487 354.018 99.0147 353.75C100.321 353.086 101.176 353.376 102.396 353.948L158.236 354.004L159.095 355.032C156.841 358.651 141.385 385.879 139.886 386.436L138.28 387.762L138.143 389.49C138.086 390.863 137.807 391.385 137.011 392.495L119.222 424.126C116.326 429.557 113.55 436.49 109.863 441.317L108.91 441.396C108.04 442.303 107.855 442.177 107.75 443.5L106.303 443.748L106.887 444.047C107.524 444.378 107.346 444.187 107.582 444.485C107.67 446.129 106.55 447.574 105.765 448.958L89.5967 479.132C86.2689 485.443 83.0411 492.718 78.8946 498.488L27.4856 498.538L27.4831 473.103C27.4568 471.567 27.4149 470.184 27.802 468.68C27.3663 466.792 27.2682 465.479 27.6553 463.575L36.4036 448.974L39.1226 445.232L39.0187 444.526C36.8625 443.041 30.6238 444.624 27.75 443.866L27.5345 441.407L27.4236 393.259L27.583 389.518L27.5161 386.473L76.501 386.354C77.7811 386.212 78.5058 384.666 79.2907 383.668C79.8915 381.615 82.446 378.566 83.6661 376.65L97.8753 354.608Z"/>
	<path fill="#FDFFFB" transform="scale(0.488281 0.488281)" d="M78.7341 389.478L80.75 388.393L81.0515 386.525L139.886 386.436L138.28 387.762L138.143 389.49C138.086 390.863 137.807 391.385 137.011 392.495L100.284 392.539C94.1234 392.526 87.5515 391.986 81.4656 392.625L48.4015 441.3C47.5932 441.195 46.937 441.038 46.1746 440.75L78.7341 389.478Z"/>
	<path fill="#002C73" transform="scale(0.488281 0.488281)" d="M78.7341 389.478L80.75 388.393L81.0515 386.525L139.886 386.436L138.28 387.762L138.143 389.49L78.7341 389.478Z"/>
	<path fill="#002C73" transform="scale(0.488281 0.488281)" d="M97.8753 354.608C98.287 354.238 98.487 354.018 99.0147 353.75C100.321 353.086 101.176 353.376 102.396 353.948L81.0515 386.525L80.75 388.393L78.7341 389.478L46.1746 440.75C46.937 441.038 47.5932 441.195 48.4015 441.3L108.91 441.396C108.04 442.303 107.855 442.177 107.75 443.5L106.303 443.748L106.887 444.047C107.524 444.378 107.346 444.187 107.582 444.485C107.67 446.129 106.55 447.574 105.765 448.958L44.4446 448.965C41.3149 454.396 37.7969 459.571 34.2095 464.708C32.2555 467.506 30.1207 470.905 27.4831 473.103C27.4568 471.567 27.4149 470.184 27.802 468.68C27.3663 466.792 27.2682 465.479 27.6553 463.575L36.4036 448.974L39.1226 445.232L39.5373 444.763C40.3057 443.109 40.0489 442.819 41.4451 441.486C42.8442 440.052 43.944 437.94 45.0474 436.243L52.1633 425.068L72.7463 393.104L27.4236 393.259L27.583 389.518L27.5161 386.473L76.501 386.354C77.7811 386.212 78.5058 384.666 79.2907 383.668C79.8915 381.615 82.446 378.566 83.6661 376.65L97.8753 354.608Z"/>
	<path fill="#FDFFFB" transform="scale(0.488281 0.488281)" d="M27.583 389.518C33.4805 389.515 72.8056 388.686 74.8866 390.13L72.7463 393.104L27.4236 393.259L27.583 389.518Z"/>
	<path fill="#FDFFFB" transform="scale(0.488281 0.488281)" d="M27.802 468.68L43.7142 444.526L107.582 444.485C107.67 446.129 106.55 447.574 105.765 448.958L44.4446 448.965C41.3149 454.396 37.7969 459.571 34.2095 464.708C32.2555 467.506 30.1207 470.905 27.4831 473.103C27.4568 471.567 27.4149 470.184 27.802 468.68Z"/>
	<path fill="#64DAAD" transform="scale(0.488281 0.488281)" d="M27.4236 393.259L72.7463 393.104L52.1633 425.068L45.0474 436.243C43.944 437.94 42.8442 440.052 41.4451 441.486C40.0489 442.819 40.3057 443.109 39.5373 444.763L39.1226 445.232L39.0187 444.526C36.8625 443.041 30.6238 444.624 27.75 443.866L27.5345 441.407L27.4236 393.259Z"/>
	<path fill="#002C73" transform="scale(0.488281 0.488281)" d="M27.5345 441.407L41.4451 441.486C40.0489 442.819 40.3057 443.109 39.5373 444.763L39.1226 445.232L39.0187 444.526C36.8625 443.041 30.6238 444.624 27.75 443.866L27.5345 441.407Z"/>
	<path fill="#64DAAD" transform="scale(0.488281 0.488281)" d="M102.396 353.948L158.236 354.004L159.095 355.032C156.841 358.651 141.385 385.879 139.886 386.436L81.0515 386.525L102.396 353.948Z"/>
	<path fill="#64DAAD" transform="scale(0.488281 0.488281)" d="M27.4831 473.103C30.1207 470.905 32.2555 467.506 34.2095 464.708C37.7969 459.571 41.3149 454.396 44.4446 448.965L105.765 448.958L89.5967 479.132C86.2689 485.443 83.0411 492.718 78.8946 498.488L27.4856 498.538L27.4831 473.103Z"/>
	<path fill="#64DAAD" transform="scale(0.488281 0.488281)" d="M606.849 878.095L669.29 877.85L685.937 877.859C688.737 877.86 691.786 877.586 694.536 878.027L700.248 878.084L718.609 877.846C721.689 877.85 725.037 877.595 728.073 878.089L773.319 878.135C779.48 878.127 786.514 877.419 792.58 878.084C794.346 878.139 795.915 878.172 797.67 877.918C801.363 877.382 805.822 877.837 809.611 877.835L837.361 877.832L872.291 877.852C877.343 877.857 883.251 877.248 888.175 878.071L887.985 878.363L908.31 930.4L915.477 930.316C916.153 931.442 916.377 932.2 916.548 933.5L945.339 1002.45L937.3 1002.55C928.842 1002.02 920.091 1002.45 911.605 1002.43L859.181 1002.42L844.562 1002.43C842.242 1002.43 839.335 1002.79 837.156 1002.09L833.951 1001.99C831.49 1002.71 828.809 1002.47 826.263 1002.44L755.028 1002.43L738.959 1002.44C737.132 1002.44 734.516 1002.81 732.856 1002C731.807 1001.89 730.711 1002.04 729.659 1002.12C727.025 1002.6 724.321 1002.48 721.651 1002.48C713.925 1001.48 705.355 1002.18 697.546 1002.17L653.369 1002.14C645.224 1002.15 636.94 1002.5 628.814 1002.02L624.998 1001.72L624.714 1001.99C623.424 1002.49 522.633 1003.02 515.595 1002.22L515.579 947.744L515.066 878.528L520.669 878.335L606.849 878.095Z"/>
	<path fill="#002C73" transform="scale(0.488281 0.488281)" d="M792.58 878.084C794.346 878.139 795.915 878.172 797.67 877.918C801.363 877.382 805.822 877.837 809.611 877.835L837.361 877.832L872.291 877.852C877.343 877.857 883.251 877.248 888.175 878.071L887.985 878.363L796.784 878.31L813.899 930.433L908.31 930.4L915.477 930.316C916.153 931.442 916.377 932.2 916.548 933.5L815.75 933.543L815.056 934.25L816.134 937.34L837.156 1002.09L833.951 1001.99C831.49 1002.71 828.809 1002.47 826.263 1002.44L805.699 937.002L717.504 937.126L732.856 1002C731.807 1001.89 730.711 1002.04 729.659 1002.12L712.967 933.75L711.418 933.022L712.019 930.478L712.056 930.06C712.759 927.505 701.715 884.898 700.248 878.084L718.609 877.846C721.689 877.85 725.037 877.595 728.073 878.089L703.536 878.383L715.935 930.374L788.742 930.357L803.709 930.276C805.246 930.268 807.821 930.625 809.234 930.254C809.566 930.166 809.73 929.777 809.978 929.539C807.675 920.485 804.03 911.38 801.048 902.5C798.458 894.789 796.246 885.578 792.516 878.41L792.58 878.084Z"/>
	<path fill="#FDFFFB" transform="scale(0.488281 0.488281)" d="M717.504 937.126L716.713 934.086C718.509 932.788 735.947 933.509 739.227 933.507L811.621 933.483L833.951 1001.99C831.49 1002.71 828.809 1002.47 826.263 1002.44L805.699 937.002L717.504 937.126Z"/>
	<path fill="#64DAAD" transform="scale(0.488281 0.488281)" d="M728.073 878.089L773.319 878.135C779.48 878.127 786.514 877.419 792.58 878.084L792.516 878.41C796.246 885.578 798.458 894.789 801.048 902.5C804.03 911.38 807.675 920.485 809.978 929.539C809.73 929.777 809.566 930.166 809.234 930.254C807.821 930.625 805.246 930.268 803.709 930.276L788.742 930.357L715.935 930.374L703.536 878.383L728.073 878.089Z"/>
	<path fill="#FDFFFB" transform="scale(0.488281 0.488281)" d="M809.978 929.539C808.176 930.309 805.484 929.955 803.506 929.963C802.573 928.429 802.282 926.308 801.825 924.572L799.37 915.813L787.61 879L788.25 878.287L792.516 878.41C796.246 885.578 798.458 894.789 801.048 902.5C804.03 911.38 807.675 920.485 809.978 929.539Z"/>
	<path fill="#64DAAD" transform="scale(0.488281 0.488281)" d="M717.504 937.126L805.699 937.002L826.263 1002.44L755.028 1002.43L738.959 1002.44C737.132 1002.44 734.516 1002.81 732.856 1002L717.504 937.126Z"/>
	<path fill="#64DAAD" transform="scale(0.488281 0.488281)" d="M816.134 937.34L815.056 934.25L815.75 933.543L916.548 933.5L945.339 1002.45L937.3 1002.55C928.842 1002.02 920.091 1002.45 911.605 1002.43L859.181 1002.42L844.562 1002.43C842.242 1002.43 839.335 1002.79 837.156 1002.09L816.134 937.34Z"/>
	<path fill="#FDFFFB" transform="scale(0.488281 0.488281)" d="M816.134 937.34L815.056 934.25L815.75 933.543L916.548 933.5L945.339 1002.45L937.3 1002.55L911.388 937.01L816.134 937.34Z"/>
	<path fill="#64DAAD" transform="scale(0.488281 0.488281)" d="M606.849 878.095L669.29 877.85L685.937 877.859C688.737 877.86 691.786 877.586 694.536 878.027L700.248 878.084C701.715 884.898 712.759 927.505 712.056 930.06L712.019 930.478L711.418 933.022L712.967 933.75L729.659 1002.12C727.025 1002.6 724.321 1002.48 721.651 1002.48C713.925 1001.48 705.355 1002.18 697.546 1002.17L653.369 1002.14C645.224 1002.15 636.94 1002.5 628.814 1002.02L624.998 1001.72L620.091 969.465L616.769 945.813C616.272 942.273 616.136 936.53 614.445 933.489C614.245 932.726 614.18 932.441 614.409 931.667C614.626 930.938 614.617 930.654 614.492 929.916L608.985 890.704C608.403 886.797 608.39 882.152 607.048 878.503L606.849 878.095Z"/>
	<path fill="#FDFFFB" transform="scale(0.488281 0.488281)" d="M711.418 933.022L712.967 933.75L729.659 1002.12C727.025 1002.6 724.321 1002.48 721.651 1002.48C721.747 1000.79 720.864 998.194 720.511 996.5L716.944 980.833L706.616 937.021L619.043 937.07L618.75 934.066C620.949 932.582 695.893 933.725 706.165 933.365L711.418 933.022Z"/>
	<path fill="#64DAAD" transform="scale(0.488281 0.488281)" d="M606.849 878.095L669.29 877.85L685.937 877.859C688.737 877.86 691.786 877.586 694.536 878.027L700.248 878.084C701.715 884.898 712.759 927.505 712.056 930.06L712.019 930.478L711.418 933.022L706.165 933.365C695.893 933.725 620.949 932.582 618.75 934.066L619.043 937.07L628.814 1002.02L624.998 1001.72L620.091 969.465L616.769 945.813C616.272 942.273 616.136 936.53 614.445 933.489C614.245 932.726 614.18 932.441 614.409 931.667C614.626 930.938 614.617 930.654 614.492 929.916L608.985 890.704C608.403 886.797 608.39 882.152 607.048 878.503L606.849 878.095Z"/>
	<path fill="#002C73" transform="scale(0.488281 0.488281)" d="M704.819 930.413L712.019 930.478L711.418 933.022L706.165 933.365L704.819 930.413Z"/>
	<path fill="#FDFFFB" transform="scale(0.488281 0.488281)" d="M694.536 878.027L700.248 878.084C701.715 884.898 712.759 927.505 712.056 930.06L705.996 930.071C704.654 926.798 704.278 922.504 703.41 919.012L694.078 878.468L694.536 878.027Z"/>
	<defs>
		<linearGradient id="gradient_3" gradientUnits="userSpaceOnUse" x1="696.21948" y1="909.34167" x2="604.18854" y2="945.00531">
			<stop offset="0" stop-color="#003C73"/>
			<stop offset="1" stop-color="#002679"/>
		</linearGradient>
	</defs>
	<path fill="url(#gradient_3)" transform="scale(0.488281 0.488281)" d="M606.849 878.095L669.29 877.85L685.937 877.859C688.737 877.86 691.786 877.586 694.536 878.027L694.078 878.468L610.812 878.406L618.12 930.362L682.176 930.393L698.185 930.384C700.23 930.38 702.836 930.045 704.819 930.413L706.165 933.365C695.893 933.725 620.949 932.582 618.75 934.066L619.043 937.07L628.814 1002.02L624.998 1001.72L620.091 969.465L616.769 945.813C616.272 942.273 616.136 936.53 614.445 933.489C614.245 932.726 614.18 932.441 614.409 931.667C614.626 930.938 614.617 930.654 614.492 929.916L608.985 890.704C608.403 886.797 608.39 882.152 607.048 878.503L606.849 878.095Z"/>
	<path fill="#64DAAD" transform="scale(0.488281 0.488281)" d="M606.849 878.095L607.048 878.503C608.39 882.152 608.403 886.797 608.985 890.704L614.492 929.916C614.617 930.654 614.626 930.938 614.409 931.667C614.18 932.441 614.245 932.726 614.445 933.489C616.136 936.53 616.272 942.273 616.769 945.813L620.091 969.465L624.998 1001.72L624.714 1001.99C623.424 1002.49 522.633 1003.02 515.595 1002.22L515.579 947.744L515.066 878.528L520.669 878.335L606.849 878.095Z"/>
	<path fill="#FDFFFB" transform="scale(0.488281 0.488281)" d="M515.066 878.528L520.669 878.335C520.895 878.723 521.234 879.065 521.348 879.5C521.577 880.375 521.35 882.106 521.351 883.053L521.364 891.954L521.553 929.25L521 929.984C520.069 930.099 518.796 930.091 517.931 930.404L609.687 930.52C611.368 930.509 612.924 930.618 614.492 929.916C614.617 930.654 614.626 930.938 614.409 931.667C614.18 932.441 614.245 932.726 614.445 933.489C616.136 936.53 616.272 942.273 616.769 945.813L620.091 969.465L624.998 1001.72L624.714 1001.99L617.321 1001.98L608.221 936.956L521.911 937.044C521.894 944.926 522.657 999.846 521.5 1001.89L516.75 1001.98C516.511 1001.73 516.167 1001.56 516.032 1001.25C515.934 1001.02 516.03 999.344 516.03 998.982L516.022 991.302C516.006 977.214 516.807 962.483 515.641 948.449L515.579 947.744L515.066 878.528Z"/>
	<path fill="#002C73" transform="scale(0.488281 0.488281)" d="M614.492 929.916C614.617 930.654 614.626 930.938 614.409 931.667C614.18 932.441 614.245 932.726 614.445 933.489C601.811 933.506 518.821 934.451 516.632 932.953L516.642 931.017L517.931 930.404L609.687 930.52C611.368 930.509 612.924 930.618 614.492 929.916Z"/>
	<path fill="#64DAAD" transform="scale(0.488281 0.488281)" d="M606.849 878.095L607.048 878.503C608.39 882.152 608.403 886.797 608.985 890.704L614.492 929.916C612.924 930.618 611.368 930.509 609.687 930.52L517.931 930.404C518.796 930.091 520.069 930.099 521 929.984L521.553 929.25L521.364 891.954L521.351 883.053C521.35 882.106 521.577 880.375 521.348 879.5C521.234 879.065 520.895 878.723 520.669 878.335L606.849 878.095Z"/>
	<path fill="#FDFFFB" transform="scale(0.488281 0.488281)" d="M607.048 878.503C608.39 882.152 608.403 886.797 608.985 890.704L614.492 929.916C612.924 930.618 611.368 930.509 609.687 930.52L608.25 930.01C606.614 925.56 606.39 919.489 605.671 914.74L600.222 878.531L607.048 878.503Z"/>
	<path fill="#002C73" transform="scale(0.488281 0.488281)" d="M410.814 878.039C412.715 877.94 414.353 877.926 416.25 878.134L418.118 878.07L424.576 878.061L508.864 878.08C509.642 878.182 510.718 878.174 511.394 878.558C512.851 878.928 513.631 878.812 515.066 878.528L515.579 947.744L515.595 1002.22C514.387 1002.11 513.265 1002.11 512.057 1002.15C509.638 1002.64 503.237 1003.05 500.927 1002.23C497.31 1001.86 493.476 1002.1 489.835 1002.09L470.337 1002.09L405.805 1002.21L398.35 1002.15L394.657 1002.02L295.265 1002.45L294.47 1001.53C293.433 1001.93 292.418 1001.94 291.321 1002.03C289.296 1002.81 286.439 1002.44 284.283 1002.44L267.149 1002.46L197.337 1002.44C194.909 1002.43 192.55 1002.46 190.153 1002C188.884 1002.08 187.909 1001.88 186.679 1001.62C184.714 1003.04 166.894 1002.32 163.565 1002.32L87.8231 1002.43C84.9868 1002.46 82.141 1002.62 79.3401 1002.11L75.2322 1002.11L101.819 937.342L103.3 933.512C103.887 932.509 104.227 931.501 104.622 930.415L104.856 930.255C106.326 924.112 109.746 917.474 112.112 911.557L125.467 878.419L128.654 878.372L135.538 878.432L216.726 878.396C220.885 877.564 226.366 877.601 230.5 878.343L232.684 878.343L238.632 878.243L321.32 878.433L325.013 878.466C326.846 877.958 329.179 878.197 331.11 878.17L345.234 878.146L387.293 878.183L410.814 878.039Z"/>
	<path fill="#FDFFFB" transform="scale(0.488281 0.488281)" d="M232.684 878.343L238.632 878.243L223.985 920.081C222.99 923.13 221.06 927.347 220.818 930.498L214.654 930.497C214.699 929.006 215.825 926.937 216.368 925.508L220.683 913.535L232.684 878.343Z"/>
	<path fill="#FDFFFB" transform="scale(0.488281 0.488281)" d="M325.013 878.466L329.982 878.662C330.836 880.483 328.801 886.466 328.247 888.83L317.831 930.487C316.075 930.509 313.948 930.777 312.296 930.138C312.837 924.127 315.374 917.404 316.821 911.456L322.36 888.882C323.224 885.411 323.694 881.802 325.013 878.466Z"/>
	<path fill="#FDFFFB" transform="scale(0.488281 0.488281)" d="M128.654 878.372L135.538 878.432L122.217 912.059C120.005 917.742 116.546 924.639 115.677 930.59L108.355 930.469L128.654 878.372Z"/>
	<defs>
		<linearGradient id="gradient_4" gradientUnits="userSpaceOnUse" x1="348.62106" y1="1003.0599" x2="351.35956" y2="932.43933">
			<stop offset="0" stop-color="#F6FFED"/>
			<stop offset="1" stop-color="white"/>
		</linearGradient>
	</defs>
	<path fill="url(#gradient_4)" transform="scale(0.488281 0.488281)" d="M294.47 1001.53L311.284 933.567L384.76 933.53C388.077 933.528 403.829 932.71 405.812 934.077L405.35 937.096L316.285 937.164L302.042 1002.06C299.801 1002.04 296.471 1002.46 294.47 1001.53Z"/>
	<path fill="#FDFFFB" transform="scale(0.488281 0.488281)" d="M190.153 1002L213.42 933.499L307.25 933.541L307.93 934.25L307.036 937.342L246.943 937.29L229.098 937.291C225.744 937.289 222.246 937.507 218.918 937.065L197.337 1002.44C194.909 1002.43 192.55 1002.46 190.153 1002Z"/>
	<path fill="#FDFFFB" transform="scale(0.488281 0.488281)" d="M79.3401 1002.11L107.014 933.528L209.25 933.517L209.94 934.25L208.816 937.406L111.839 937.07L100.219 968.592L92.7922 987.943C90.9927 992.637 88.8733 997.503 87.8231 1002.43C84.9868 1002.46 82.141 1002.62 79.3401 1002.11Z"/>
	<path fill="#64DAAD" transform="scale(0.488281 0.488281)" d="M238.632 878.243L321.32 878.433L308.796 930.251C306.651 930.814 303.715 930.472 301.481 930.475L285.137 930.48L220.818 930.498C221.06 927.347 222.99 923.13 223.985 920.081L238.632 878.243Z"/>
	<path fill="#64DAAD" transform="scale(0.488281 0.488281)" d="M410.814 878.039L414.25 878.331L414.75 879.012L406.329 930.392L317.831 930.487L328.247 888.83C328.801 886.466 330.836 880.483 329.982 878.662L325.013 878.466C326.846 877.958 329.179 878.197 331.11 878.17L345.234 878.146L387.293 878.183L410.814 878.039Z"/>
	<path fill="#64DAAD" transform="scale(0.488281 0.488281)" d="M135.538 878.432L216.726 878.396L229.148 878.454L211.081 930.459L115.677 930.59C116.546 924.639 120.005 917.742 122.217 912.059L135.538 878.432Z"/>
	<path fill="#64DAAD" transform="scale(0.488281 0.488281)" d="M424.576 878.061L508.864 878.08L509.071 878.539C509.789 881.636 509.413 885.296 509.399 888.48L509.387 908.282L509.001 930.408L503.059 930.457L435.417 930.382L419.75 930.338C416.656 930.347 413.485 930.753 410.449 930.069C409.816 927.902 411.04 924.022 411.42 921.738L414.732 901.376C415.914 893.641 416.586 885.731 418.118 878.07L424.576 878.061Z"/>
	<path fill="#FDFFFB" transform="scale(0.488281 0.488281)" d="M418.118 878.07L424.576 878.061L416.243 929.985L410.449 930.069C409.816 927.902 411.04 924.022 411.42 921.738L414.732 901.376C415.914 893.641 416.586 885.731 418.118 878.07Z"/>
	<path fill="#FDFFFB" transform="scale(0.488281 0.488281)" d="M503.059 930.457L502.945 878.51L509.071 878.539C509.789 881.636 509.413 885.296 509.399 888.48L509.387 908.282L509.001 930.408L503.059 930.457Z"/>
	<path fill="#64DAAD" transform="scale(0.488281 0.488281)" d="M405.35 937.096L394.657 1002.02L295.265 1002.45L294.47 1001.53C296.471 1002.46 299.801 1002.04 302.042 1002.06L316.285 937.164L405.35 937.096Z"/>
	<path fill="#64DAAD" transform="scale(0.488281 0.488281)" d="M307.036 937.342L291.321 1002.03C289.296 1002.81 286.439 1002.44 284.283 1002.44L267.149 1002.46L197.337 1002.44L218.918 937.065C222.246 937.507 225.744 937.289 229.098 937.291L246.943 937.29L307.036 937.342Z"/>
	<path fill="#64DAAD" transform="scale(0.488281 0.488281)" d="M87.8231 1002.43C88.8733 997.503 90.9927 992.637 92.7922 987.943L100.219 968.592L111.839 937.07L208.816 937.406L186.679 1001.62C184.714 1003.04 166.894 1002.32 163.565 1002.32L87.8231 1002.43Z"/>
	<path fill="#64DAAD" transform="scale(0.488281 0.488281)" d="M508.864 878.08C509.642 878.182 510.718 878.174 511.394 878.558C512.851 878.928 513.631 878.812 515.066 878.528L515.579 947.744L515.595 1002.22C514.387 1002.11 513.265 1002.11 512.057 1002.15C509.638 1002.64 503.237 1003.05 500.927 1002.23C497.31 1001.86 493.476 1002.1 489.835 1002.09L470.337 1002.09L405.805 1002.21L398.35 1002.15C400.471 994.052 401.278 984.817 402.59 976.531L409.19 933.658C411.569 932.935 415.321 933.404 417.863 933.414L435.874 933.458L509.084 933.489C508.763 932.845 508.993 931.179 509.001 930.408L509.387 908.282L509.399 888.48C509.413 885.296 509.789 881.636 509.071 878.539L508.864 878.08Z"/>
	<defs>
		<linearGradient id="gradient_5" gradientUnits="userSpaceOnUse" x1="455.01395" y1="1002.8414" x2="452.4982" y2="932.49799">
			<stop offset="0" stop-color="#F3FEE9"/>
			<stop offset="1" stop-color="#FFFFFE"/>
		</linearGradient>
	</defs>
	<path fill="url(#gradient_5)" transform="scale(0.488281 0.488281)" d="M508.864 878.08C509.642 878.182 510.718 878.174 511.394 878.558C512.851 878.928 513.631 878.812 515.066 878.528L515.579 947.744L515.595 1002.22C514.387 1002.11 513.265 1002.11 512.057 1002.15C509.638 1002.64 503.237 1003.05 500.927 1002.23L501.657 1001.82L502.505 936.953L415.114 936.985L405.805 1002.21L398.35 1002.15C400.471 994.052 401.278 984.817 402.59 976.531L409.19 933.658C411.569 932.935 415.321 933.404 417.863 933.414L435.874 933.458L509.084 933.489C508.763 932.845 508.993 931.179 509.001 930.408L509.387 908.282L509.399 888.48C509.413 885.296 509.789 881.636 509.071 878.539L508.864 878.08Z"/>
	<defs>
		<linearGradient id="gradient_6" gradientUnits="userSpaceOnUse" x1="515.44781" y1="940.05261" x2="509.81934" y2="939.91785">
			<stop offset="0" stop-color="#01317C"/>
			<stop offset="1" stop-color="#004F8D"/>
		</linearGradient>
	</defs>
	<path fill="url(#gradient_6)" transform="scale(0.488281 0.488281)" d="M508.864 878.08C509.642 878.182 510.718 878.174 511.394 878.558C512.851 878.928 513.631 878.812 515.066 878.528L515.579 947.744L515.595 1002.22C514.387 1002.11 513.265 1002.11 512.057 1002.15C509.638 1002.64 503.237 1003.05 500.927 1002.23L501.657 1001.82C503.815 1002.12 506.126 1002.01 508.309 1002.05L508.624 948.388L509.036 939.652C509.217 937.659 509.769 935.409 509.084 933.489C508.763 932.845 508.993 931.179 509.001 930.408L509.387 908.282L509.399 888.48C509.413 885.296 509.789 881.636 509.071 878.539L508.864 878.08Z"/>
	<path fill="#0D5C6F" transform="scale(0.488281 0.488281)" d="M508.864 878.08C509.642 878.182 510.718 878.174 511.394 878.558L510.35 901.263L510.244 902.278C509.763 907.025 509.466 913.11 510.664 917.75C511.149 919.627 510.81 918.004 510.75 919.353C510.527 924.363 512.863 929.315 511.524 934.503L510.34 931.75C509.304 929.567 509.688 926.683 509.668 924.263L509.387 908.282L509.399 888.48C509.413 885.296 509.789 881.636 509.071 878.539L508.864 878.08Z"/>
	<path fill="#16AEA0" transform="scale(0.488281 0.488281)" d="M509.001 930.408L509.387 908.282L509.668 924.263C509.688 926.683 509.304 929.567 510.34 931.75L511.524 934.503L512.057 1002.15C509.638 1002.64 503.237 1003.05 500.927 1002.23L501.657 1001.82C503.815 1002.12 506.126 1002.01 508.309 1002.05L508.624 948.388L509.036 939.652C509.217 937.659 509.769 935.409 509.084 933.489C508.763 932.845 508.993 931.179 509.001 930.408Z"/>
	<defs>
		<linearGradient id="gradient_7" gradientUnits="userSpaceOnUse" x1="596.70227" y1="1030.1996" x2="285.73407" y2="300.8887">
			<stop offset="0" stop-color="#00064F"/>
			<stop offset="1" stop-color="#00236E"/>
		</linearGradient>
	</defs>
	<path fill="url(#gradient_7)" transform="scale(0.488281 0.488281)" d="M215.591 286.397L216.25 351.073L216.745 351.5L217.25 352.755L217.875 353.003L218.444 353.268C219.118 353.568 218.826 353.502 219.502 353.502C221.957 351.663 239.238 353.154 243.5 352.878C245.978 352.717 249.031 352.712 251.5 352.878L275.088 353.191L275.57 353.593L276.452 354.267C275.143 356.557 271.738 361.075 271.332 363.515C270.784 367.778 267.259 372.144 265.2 375.945L259.529 385.829C259.038 386.685 259.272 386.38 258.5 387L258.245 387.75C257.219 389.789 256.476 391.763 255.25 393.745L253.288 397.381C252.449 399.216 253.623 396.792 252.5 398.5L251.875 399.998L251.25 401L250.917 401.738C250.385 402.797 249.644 403.362 248.674 403.994L245.427 409.201L194.127 408.969L190.949 408.866L189.524 410.25C189.581 411.28 189.421 410.862 189.848 411.551C196.756 415.505 202.984 421.094 209.332 425.901L240.478 448.735C235.917 461.524 233.449 475.414 230.204 488.605L212.002 562.5L171.481 731.75L151.391 819.532C146.11 820.702 139.003 819.287 133.472 819.652L161.066 819.958C164.708 819.982 169.322 819.459 172.863 820.077L873.286 820.61L926.729 820.69L952.923 820.656L858.794 496.518L859.612 496.405L860.497 498.002L860.745 498.75L861.375 498.875C861.317 497.905 861.274 496.937 861.003 495.998C860.615 494.66 860.369 494.054 860.754 492.678L860.972 491.922L862.738 498.19L863.462 501.447L865.159 506.697L879.82 558.98L880.461 561.985L882.031 567.013L895.137 613.504C896.321 617.781 898.894 623.652 899.006 627.949C898.766 629.673 898.679 629.637 899.64 631.07C900.217 632.687 900.901 634.333 901.283 636.005L913.779 678.156L917.11 689.481C917.61 691.16 917.956 693.144 919.035 694.544C919.415 695.636 919.77 696.416 919.619 697.591L920.896 702.5L932.502 741.5C935.099 750.804 937.203 761.224 941.038 770.065L942.014 773.702L943.436 777.99L953.046 808.834L956.134 818.658C956.587 820.181 957.332 821.667 957.503 823.25C958.318 830.765 957.551 839.036 957.606 846.66L995.876 846.966L995.75 849.514C993.576 850.401 990.201 849.912 987.833 849.908L969.503 849.884C966.561 849.879 963.276 849.533 960.402 850.064L960.015 850.054C959.025 850.348 958.165 850.391 957.755 851.5C957.559 852.03 957.483 852.941 957.477 853.517L957.605 862.786L957.671 878.118L897.543 878.201L893.746 878.102L888.175 878.071C883.251 877.248 877.343 877.857 872.291 877.852L837.361 877.832L809.611 877.835C805.822 877.837 801.363 877.382 797.67 877.918C795.915 878.172 794.346 878.139 792.58 878.084C786.514 877.419 779.48 878.127 773.319 878.135L728.073 878.089C725.037 877.595 721.689 877.85 718.609 877.846L700.248 878.084L694.536 878.027C691.786 877.586 688.737 877.86 685.937 877.859L669.29 877.85L606.849 878.095L520.669 878.335L515.066 878.528C513.631 878.812 512.851 878.928 511.394 878.558C510.718 878.174 509.642 878.182 508.864 878.08L424.576 878.061L418.118 878.07L416.25 878.134C414.353 877.926 412.715 877.94 410.814 878.039L387.293 878.183L345.234 878.146L331.11 878.17C329.179 878.197 326.846 877.958 325.013 878.466L321.32 878.433L238.632 878.243L232.684 878.343L230.5 878.343C226.366 877.601 220.885 877.564 216.726 878.396L135.538 878.432L128.654 878.372L125.467 878.419L67.4747 878.307L67.4238 851.009C66.6395 850.25 64.8204 850.226 63.726 850.029C60.5488 849.671 57.1438 849.923 53.9303 849.921L36.0018 849.9C33.3436 849.896 29.6926 850.403 27.25 849.539L27.0896 846.897C27.8152 840.517 27.0727 833.09 27.0543 826.63L26.9256 780.067L26.9364 775.123C26.7342 774.138 26.8569 773.485 26.9904 772.5C29.5872 771.156 66.0511 772.076 71.8535 772.079C75.1749 772.08 80.5197 772.764 83.5784 771.608L26.7143 771.606L26.6556 756.864L26.7405 756.075C25.9004 753.441 26.4959 751.19 27.3151 748.639C26.5035 744.761 26.9744 740.091 26.9814 736.098L27.0485 711.876C27.0584 708.309 26.0855 701.016 27.5258 697.979L27.9475 697.535C27.6339 696.556 27.6288 695.478 27.5377 694.456L53.5681 694.471L81.8545 635.474C82.6125 634.015 83.4811 632.662 83.5817 630.985C79.9132 628.831 36.8054 631.395 27.819 630.25L27.4372 627.985C27.8351 625.48 27.4572 622.566 27.4546 620L27.5273 603.239C27.5148 600.903 26.9902 598.08 28.2053 596.082C27.2286 594.416 27.6196 592.927 27.8445 591.08C27.2208 588.115 27.4863 584.824 27.4806 581.794L27.4764 567.007C27.4602 565.32 27.5609 563.741 27.805 562.072C27.9811 561.156 27.7558 559.949 27.6992 559.006C26.8041 554.201 27.5252 547.981 27.5149 543.045L27.4514 506.06C27.4027 504.372 27.2126 503.031 28.1966 501.557L28.0602 499.5C30.0037 498.517 35.0954 499.103 37.4678 499.103L64.0763 499.066C68.7889 499.056 74.3247 499.561 78.8946 498.488C83.0411 492.718 86.2689 485.443 89.5967 479.132L105.765 448.958C106.55 447.574 107.67 446.129 107.582 444.485C107.346 444.187 107.524 444.378 106.887 444.047L106.303 443.748L107.75 443.5C107.855 442.177 108.04 442.303 108.91 441.396L109.863 441.317C113.55 436.49 116.326 429.557 119.222 424.126L137.011 392.495C137.807 391.385 138.086 390.863 138.143 389.49L138.28 387.762L139.886 386.436C141.385 385.879 156.841 358.651 159.095 355.032L159.108 354.193C160.7 353.605 161.225 353.229 162.954 353.799L163.529 354.066C168.934 353.502 174.94 353.98 180.407 353.97L216.536 353.999C215.394 353.081 215.573 352.946 215.384 351.467C215.836 349.496 215.629 347.215 215.635 345.185L215.619 333.304L215.591 286.397Z"/>
	<path fill="#FDFFFB" transform="scale(0.488281 0.488281)" d="M150.13 497.991C152.899 493.066 155.113 487.627 157.508 482.499L169.561 457.038C171.447 453.071 173.057 448.136 175.57 444.6L177.25 444.386L177.903 445L174.747 453.43L153.621 498.19L150.13 497.991Z"/>
	<path fill="#FDFFFB" transform="scale(0.488281 0.488281)" d="M76.5425 501.532C76.7295 503.214 75.532 504.559 74.6873 506.002L27.4514 506.06C27.4027 504.372 27.2126 503.031 28.1966 501.557L76.5425 501.532Z"/>
	<path fill="#64DAAD" transform="scale(0.488281 0.488281)" d="M174.747 453.43C175.094 457.598 164.364 495.847 162.732 497.989L153.621 498.19L174.747 453.43Z"/>
	<path fill="#FDFFFB" transform="scale(0.488281 0.488281)" d="M190.949 408.866C192.607 402.425 197.352 395.361 200.461 389.393L236.484 389.336C242.781 389.34 249.737 388.749 255.958 389.588C256.089 390.755 255.121 391.928 254.562 392.958L219.375 392.759C214.011 392.716 208.092 392.112 202.812 392.719C200.18 398.004 197.7 404.304 194.127 408.969L190.949 408.866Z"/>
	<path fill="#FDFFFB" transform="scale(0.488281 0.488281)" d="M26.9364 775.123L77.5088 774.994C79.2315 774.989 81.176 774.666 82.6876 775.5L81.5878 779.928L26.9256 780.067L26.9364 775.123Z"/>
	<path fill="#FDFFFB" transform="scale(0.488281 0.488281)" d="M149.049 501.074C149.143 499.731 149.401 499.118 150.13 497.991L153.621 498.19L162.732 497.989C162.334 499.109 162.211 499.83 162.277 501.017C162.054 502.558 161.774 503.968 161.312 505.456L151.536 505.411L124.464 559.309C123.491 559.122 123.063 559.025 122.2 558.491L149.049 501.074Z"/>
	<path fill="#002C73" transform="scale(0.488281 0.488281)" d="M149.049 501.074C149.143 499.731 149.401 499.118 150.13 497.991L153.621 498.19L162.732 497.989C162.334 499.109 162.211 499.83 162.277 501.017L149.049 501.074Z"/>
	<path fill="#FDFFFB" transform="scale(0.488281 0.488281)" d="M113.81 441.595L142.445 389.493C148.803 389.454 194.104 388.581 195.966 390L194.95 392.334L160.649 392.426C155.574 392.412 149.724 391.814 144.77 392.516L116.846 441.445L113.81 441.595Z"/>
	<path fill="#FDFFFB" transform="scale(0.488281 0.488281)" d="M94.6698 627.593C93.0594 627.624 91.0915 627.881 89.6025 627.25L120.261 562.023L144.71 562.022L143.208 567.212L123.277 567.055L94.6698 627.593Z"/>
	<path fill="#FDFFFB" transform="scale(0.488281 0.488281)" d="M62.5543 694.526L57.75 694.417L57.3798 693.75L87.6017 630.67L124.97 630.581L125.242 630.937L123.937 635.525L91.4834 635.718L62.5543 694.526Z"/>
	<path fill="#64DAAD" transform="scale(0.488281 0.488281)" d="M124.464 559.309L151.536 505.411L161.312 505.456L145.769 559.056L131.568 559.036C129.344 559.037 126.601 558.734 124.464 559.309Z"/>
	<path fill="#64DAAD" transform="scale(0.488281 0.488281)" d="M194.127 408.969C197.7 404.304 200.18 398.004 202.812 392.719C208.092 392.112 214.011 392.716 219.375 392.759L254.562 392.958L248.674 403.994L245.427 409.201L194.127 408.969Z"/>
	<path fill="#64DAAD" transform="scale(0.488281 0.488281)" d="M94.6698 627.593L123.277 567.055L143.208 567.212L126.078 627.523L94.6698 627.593Z"/>
	<path fill="#64DAAD" transform="scale(0.488281 0.488281)" d="M163.529 354.066C168.934 353.502 174.94 353.98 180.407 353.97L216.536 353.999C216.016 357.404 212.893 361.337 211.174 364.334L198.608 386.418C192.46 386.423 145.978 387.164 144.336 386.233L163.529 354.066Z"/>
	<path fill="#64DAAD" transform="scale(0.488281 0.488281)" d="M275.57 353.593L276.452 354.267C275.143 356.557 271.738 361.075 271.332 363.515C269.601 365.819 268.277 368.596 266.821 371.098L258.137 386.123C252.827 386.707 247.059 386.305 241.703 386.325L202.558 386.313L220.446 353.981L275.078 353.643L275.57 353.593Z"/>
	<path fill="#64DAAD" transform="scale(0.488281 0.488281)" d="M62.5543 694.526L91.4834 635.718L123.937 635.525L106.525 694.566L62.5543 694.526Z"/>
	<path fill="#64DAAD" transform="scale(0.488281 0.488281)" d="M116.846 441.445L144.77 392.516C149.724 391.814 155.574 392.412 160.649 392.426L194.95 392.334L174.186 441.499L116.846 441.445Z"/>
	<path fill="#64DAAD" transform="scale(0.488281 0.488281)" d="M81.5878 779.928L74.164 804.428C72.7264 809.182 71.52 816.894 67.9805 820.25C67.1884 823.073 67.4229 826.229 67.3834 829.152C67.304 835.026 67.4546 840.985 67.0026 846.841L27.0896 846.897C27.8152 840.517 27.0727 833.09 27.0543 826.63L26.9256 780.067L81.5878 779.928Z"/>
	<path fill="#64DAAD" transform="scale(0.488281 0.488281)" d="M113.81 441.595L116.846 441.445L174.186 441.499C172.554 442.565 172.299 442.598 171.565 444.499C171.624 446.223 170.735 447.525 169.952 448.998L146.402 498.439L83.9483 498.409L83.4479 497.69L112.002 444.485L113.81 441.595Z"/>
	<path fill="#FDFFFB" transform="scale(0.488281 0.488281)" d="M113.81 441.595L116.846 441.445L174.186 441.499C172.554 442.565 172.299 442.598 171.565 444.499C171.624 446.223 170.735 447.525 169.952 448.998L113.786 448.89L85.75 497.997L83.9483 498.409L83.4479 497.69L112.002 444.485L113.81 441.595Z"/>
	<path fill="#002C73" transform="scale(0.488281 0.488281)" d="M113.81 441.595L116.846 441.445L174.186 441.499C172.554 442.565 172.299 442.598 171.565 444.499L112.002 444.485L113.81 441.595Z"/>
	<path fill="#64DAAD" transform="scale(0.488281 0.488281)" d="M76.3734 561.982L116.425 562.137L114.345 567.07L91.8744 614.702C90.0174 618.512 87.8649 624.89 85.1926 627.909L27.4372 627.985C27.8351 625.48 27.4572 622.566 27.4546 620L27.5273 603.239C27.5148 600.903 26.9902 598.08 28.2053 596.082C31.1445 591.935 33.3815 587.099 35.8652 582.651C39.4228 576.279 43.3074 570.026 46.4318 563.427L47.2385 562.288C49.8772 561.586 53.5633 562.039 56.3222 562.049L76.3734 561.982Z"/>
	<path fill="#FDFFFB" transform="scale(0.488281 0.488281)" d="M76.3734 561.982L116.425 562.137L114.345 567.07L49.303 566.976L33.69 593.472C31.8488 596.496 29.938 600.729 27.5273 603.239C27.5148 600.903 26.9902 598.08 28.2053 596.082C31.1445 591.935 33.3815 587.099 35.8652 582.651C39.4228 576.279 43.3074 570.026 46.4318 563.427L47.2385 562.288C49.8772 561.586 53.5633 562.039 56.3222 562.049L76.3734 561.982Z"/>
	<path fill="#64DAAD" transform="scale(0.488281 0.488281)" d="M52.1616 697.445C53.4224 697.075 54.0777 697.255 55.3275 697.603L89.9425 697.769C94.8315 697.788 100.897 697.152 105.643 698.051L104.227 702.993L89.4683 752.5L85.6248 765.707C85.1001 767.513 84.6202 770.061 83.5784 771.608L26.7143 771.606L26.6556 756.864L26.7405 756.075C25.9004 753.441 26.4959 751.19 27.3151 748.639C26.5035 744.761 26.9744 740.091 26.9814 736.098L27.0485 711.876C27.0584 708.309 26.0855 701.016 27.5258 697.979L27.9475 697.535L52.1616 697.445Z"/>
	<path fill="#FDFFFB" transform="scale(0.488281 0.488281)" d="M52.1616 697.445C53.4224 697.075 54.0777 697.255 55.3275 697.603L89.9425 697.769C94.8315 697.788 100.897 697.152 105.643 698.051L104.227 702.993L59.2902 702.837C55.8963 707.291 53.43 714.349 50.9363 719.458L33.6969 754.781L27.1133 770.498C27.0497 766.245 27.5803 760.971 26.6556 756.864L26.7405 756.075C25.9004 753.441 26.4959 751.19 27.3151 748.639C26.5035 744.761 26.9744 740.091 26.9814 736.098L27.0485 711.876C27.0584 708.309 26.0855 701.016 27.5258 697.979L27.9475 697.535L52.1616 697.445Z"/>
	<path fill="#002C73" transform="scale(0.488281 0.488281)" d="M52.1616 697.445C53.4224 697.075 54.0777 697.255 55.3275 697.603L26.7405 756.075C25.9004 753.441 26.4959 751.19 27.3151 748.639L49.9011 702.548L52.1616 697.445Z"/>
	<path fill="#64DAAD" transform="scale(0.488281 0.488281)" d="M27.9475 697.535L52.1616 697.445L49.9011 702.548L27.3151 748.639C26.5035 744.761 26.9744 740.091 26.9814 736.098L27.0485 711.876C27.0584 708.309 26.0855 701.016 27.5258 697.979L27.9475 697.535Z"/>
	<path fill="#FDFFFB" transform="scale(0.488281 0.488281)" d="M27.9475 697.535L52.1616 697.445L49.9011 702.548C46.3427 702.554 29.1935 703.451 27.4996 702.25L27.5258 697.979L27.9475 697.535Z"/>
	<path fill="#64DAAD" transform="scale(0.488281 0.488281)" d="M76.5425 501.532L77.6469 502.065L77.625 503.252C78.7268 503.073 78.845 502.529 79.7146 502.128L80.4836 501.96C83.9483 500.421 138.008 501.35 145.164 501.344L143.26 505.476L118.331 559.044L74.3553 559.166L73.7321 559.736C70.9233 559.739 63.0528 558.881 61 560.245C59.4656 560.246 55.4909 559.764 54.5 560.745C53.4854 560.748 53.2516 560.501 52.5 561.245L51.125 561.375L74.6072 561.53C75.5014 561.53 75.7043 561.301 76.3734 561.982L56.3222 562.049C53.5633 562.039 49.8772 561.586 47.2385 562.288L46.4318 563.427C43.3074 570.026 39.4228 576.279 35.8652 582.651C33.3815 587.099 31.1445 591.935 28.2053 596.082C27.2286 594.416 27.6196 592.927 27.8445 591.08C27.2208 588.115 27.4863 584.824 27.4806 581.794L27.4764 567.007C27.4602 565.32 27.5609 563.741 27.805 562.072C27.9811 561.156 27.7558 559.949 27.6992 559.006C26.8041 554.201 27.5252 547.981 27.5149 543.045L27.4514 506.06L74.6873 506.002C75.532 504.559 76.7295 503.214 76.5425 501.532Z"/>
	<path fill="#FDFFFB" transform="scale(0.488281 0.488281)" d="M80.4836 501.96C83.9483 500.421 138.008 501.35 145.164 501.344L143.26 505.476L142.703 505.546C135.949 506.314 128.728 505.838 121.923 505.851L82.4649 505.896L53.23 559.333L52.6417 559.517C51.4472 559.741 50.3937 559.574 49.3573 559C51.4139 554.052 54.4112 549.279 56.9146 544.511L80.4836 501.96Z"/>
	<path fill="#002C73" transform="scale(0.488281 0.488281)" d="M76.5425 501.532L77.6469 502.065L77.625 503.252C78.7268 503.073 78.845 502.529 79.7146 502.128L80.4836 501.96L56.9146 544.511C54.4112 549.279 51.4139 554.052 49.3573 559C50.3937 559.574 51.4472 559.741 52.6417 559.517L53.23 559.333L74.3553 559.166L73.7321 559.736C70.9233 559.739 63.0528 558.881 61 560.245C59.4656 560.246 55.4909 559.764 54.5 560.745C53.4854 560.748 53.2516 560.501 52.5 561.245L51.125 561.375L74.6072 561.53C75.5014 561.53 75.7043 561.301 76.3734 561.982L56.3222 562.049C53.5633 562.039 49.8772 561.586 47.2385 562.288L46.4318 563.427C43.3074 570.026 39.4228 576.279 35.8652 582.651C33.3815 587.099 31.1445 591.935 28.2053 596.082C27.2286 594.416 27.6196 592.927 27.8445 591.08C27.2208 588.115 27.4863 584.824 27.4806 581.794L27.4764 567.007C27.4602 565.32 27.5609 563.741 27.805 562.072C27.9811 561.156 27.7558 559.949 27.6992 559.006L45.4988 559.014L74.6873 506.002C75.532 504.559 76.7295 503.214 76.5425 501.532Z"/>
	<path fill="#FDFFFB" transform="scale(0.488281 0.488281)" d="M27.805 562.072L42.7342 562.081L43.489 563.035L41.0767 566.941L27.4764 567.007C27.4602 565.32 27.5609 563.741 27.805 562.072Z"/>
	<path fill="#64DAAD" transform="scale(0.488281 0.488281)" d="M27.4764 567.007L41.0767 566.941L27.8445 591.08C27.2208 588.115 27.4863 584.824 27.4806 581.794L27.4764 567.007Z"/>
	<path fill="#64DAAD" transform="scale(0.488281 0.488281)" d="M27.4514 506.06L74.6873 506.002L45.4988 559.014L27.6992 559.006C26.8041 554.201 27.5252 547.981 27.5149 543.045L27.4514 506.06Z"/>
	<path fill="#FECF01" transform="scale(0.488281 0.488281)" d="M189.848 411.551C196.756 415.505 202.984 421.094 209.332 425.901L240.478 448.735C235.917 461.524 233.449 475.414 230.204 488.605L212.002 562.5L171.481 731.75L151.391 819.532C146.11 820.702 139.003 819.287 133.472 819.652L90.2421 819.563L79.5557 819.537C77.6834 819.532 75.5455 819.774 73.7433 819.274C76.2731 812.359 77.9187 805.124 80.0045 798.064L93.1235 753.889L138.481 597.622L178.49 456.75L187.476 421.31C188.217 418.045 189.491 414.884 189.848 411.551Z"/>
	<path fill="#A41E34" transform="scale(0.488281 0.488281)" d="M172.863 820.077L873.286 820.61L926.729 820.69C921.154 821.023 914.683 820.949 909.25 821.99C908.282 822.175 907.477 822.205 906.5 822.122C903.202 821.843 899.807 822.626 896.5 822.122L895.625 821.997L894.75 821.745L893.875 821.997C893.251 822.094 892.71 821.909 892.125 821.747L891.5 822.245L890.875 822.184C887.944 821.944 875.645 823.14 874.25 821.745C869.438 821.273 864.269 822.401 859.5 821.622L858.75 822C859.506 822.318 860.198 822.575 861 822.75L861.5 822.255C863.665 822.255 872.606 821.611 873.75 822.755C875.894 822.755 887.735 822.24 888.75 823.255L904.279 823.251C905.754 823.251 910.062 823.684 911 822.755L911.75 823.255L912.625 823.064C913.972 822.831 915.402 823.231 916.75 823.321C920.696 823.582 924.682 823.36 928.595 824.005L953.792 824.176L953.939 841.497L953.817 844.427C954.258 847.726 953.964 851.469 953.982 854.813L954.091 874.99L70.82 875.006L71.0487 844.126L71.1036 840.936L71.1115 828.65C71.1153 827.057 70.8092 824.935 71.5 823.474L73.4183 823.259C80.7952 822.231 89.4659 823.009 96.9498 822.987L147.786 823.005L163.33 822.984C166.136 822.928 169.284 823.046 172.003 822.328C175.587 821.381 179.478 821.725 183.171 821.719L204 821.755C205.454 820.786 207.086 821.566 208.75 821L190 821.122C189.331 821.079 188.818 820.987 188.141 821.054C185.977 821.266 183.681 821.134 181.5 821.122L177.5 821.245L176.755 820.75C175.466 820.834 174.544 820.591 173.332 820.223L172.863 820.077Z"/>
	<path fill="#FC7908" transform="scale(0.488281 0.488281)" d="M172.863 820.077L873.286 820.61L926.729 820.69C921.154 821.023 914.683 820.949 909.25 821.99C908.282 822.175 907.477 822.205 906.5 822.122C903.202 821.843 899.807 822.626 896.5 822.122L895.625 821.997L894.75 821.745L893.875 821.997C893.251 822.094 892.71 821.909 892.125 821.747L891.5 822.245L890.875 822.184C887.944 821.944 875.645 823.14 874.25 821.745C869.438 821.273 864.269 822.401 859.5 821.622L858.75 822C859.506 822.318 860.198 822.575 861 822.75L861.5 822.255C863.665 822.255 872.606 821.611 873.75 822.755C875.894 822.755 887.735 822.24 888.75 823.255L904.279 823.251C905.754 823.251 910.062 823.684 911 822.755L911.75 823.255L912.625 823.064C913.972 822.831 915.402 823.231 916.75 823.321C920.696 823.582 924.682 823.36 928.595 824.005L953.792 824.176L953.939 841.497L953.817 844.427L71.0487 844.126L71.1036 840.936L71.1115 828.65C71.1153 827.057 70.8092 824.935 71.5 823.474L73.4183 823.259C80.7952 822.231 89.4659 823.009 96.9498 822.987L147.786 823.005L163.33 822.984C166.136 822.928 169.284 823.046 172.003 822.328C175.587 821.381 179.478 821.725 183.171 821.719L204 821.755C205.454 820.786 207.086 821.566 208.75 821L190 821.122C189.331 821.079 188.818 820.987 188.141 821.054C185.977 821.266 183.681 821.134 181.5 821.122L177.5 821.245L176.755 820.75C175.466 820.834 174.544 820.591 173.332 820.223L172.863 820.077Z"/>
	<path fill="#06070A" transform="scale(0.488281 0.488281)" d="M172.863 820.077L873.286 820.61L926.729 820.69C921.154 821.023 914.683 820.949 909.25 821.99C908.282 822.175 907.477 822.205 906.5 822.122C903.202 821.843 899.807 822.626 896.5 822.122L895.625 821.997L894.75 821.745L893.875 821.997C893.251 822.094 892.71 821.909 892.125 821.747L891.5 822.245L890.875 822.184C887.944 821.944 875.645 823.14 874.25 821.745C869.438 821.273 864.269 822.401 859.5 821.622L858.75 822C859.506 822.318 860.198 822.575 861 822.75L861.5 822.255C863.665 822.255 872.606 821.611 873.75 822.755C875.894 822.755 887.735 822.24 888.75 823.255L904.279 823.251C905.754 823.251 910.062 823.684 911 822.755L911.75 823.255L912.625 823.064C913.972 822.831 915.402 823.231 916.75 823.321C920.696 823.582 924.682 823.36 928.595 824.005L73.4183 823.259C80.7952 822.231 89.4659 823.009 96.9498 822.987L147.786 823.005L163.33 822.984C166.136 822.928 169.284 823.046 172.003 822.328C175.587 821.381 179.478 821.725 183.171 821.719L204 821.755C205.454 820.786 207.086 821.566 208.75 821L190 821.122C189.331 821.079 188.818 820.987 188.141 821.054C185.977 821.266 183.681 821.134 181.5 821.122L177.5 821.245L176.755 820.75C175.466 820.834 174.544 820.591 173.332 820.223L172.863 820.077Z"/>
	<path fill="#06070A" transform="scale(0.488281 0.488281)" d="M71.1036 840.936L953.939 841.497L953.817 844.427L71.0487 844.126L71.1036 840.936Z"/>
	<path fill="#031057" transform="scale(0.488281 0.488281)" d="M0 245.439L-0 -0L345.422 0L348.957 0L349.086 0.644718L348.917 350.98L380.918 350.651L380.811 351.071L394.573 350.091L404.99 349.938L409.033 349.958L481.339 349.845L500.233 349.91C503.343 349.923 507.101 350.347 510.094 349.557L510.365 348.985C510.99 347.577 511.026 345.635 511.201 344.095C511.626 345.026 511.721 346.231 512 347.25L512.125 348.752L513 348.25L513 343.25C514.32 344.956 513.286 347.798 514.528 349.373C520.138 350.449 612.655 350.214 614.485 349.454L616.25 348.382L618.668 349.358C619.968 350.098 621.591 349.853 623.043 349.864L634.433 349.923C635.929 350.481 637.448 351.139 639.003 351.498L639.595 351.638C640.328 351.783 641.009 351.762 641.75 351.745L642.25 351.245L671.043 351.25C671.735 351.25 671.392 351.143 672 351.745C673.243 351.747 675.665 351.41 676.5 352.245L676.75 352.5C675.221 353.519 671.831 352.995 669.939 352.993L650.336 352.994C647.418 352.999 643.997 352.582 641.219 353.424L676.336 353.498L679.477 351.734C682.292 351.546 688.24 350.642 690.613 351.885L692.072 354.087C696.169 353.074 701.971 353.793 706.287 353.811C719.232 353.864 732.602 354.531 745.497 353.49L745.918 352.499L748.25 352.414L749.642 354.084C751.275 353.701 753.208 353.925 754.887 353.932L765.449 353.95L806.294 353.988L806.516 352L805.519 351.589C808.002 347.928 805.449 321.977 806.856 315.224L806.844 338.84C806.824 342.902 806.419 347.406 807.084 351.403L807.945 351.86C808.989 352.434 809.483 353.023 810.188 353.962L862.138 353.942L863.217 353.601L864 352.595L866.25 352.527L867.641 354.086L911.618 354.071C913.573 354.073 921.401 354.701 922.633 353.899L942.58 385.922C942.953 386.777 943.235 386.956 942.996 387.886C942.789 388.694 942.844 388.365 942.779 389.054C943.202 389.163 944.673 389.383 944.942 389.611C947.46 391.747 950.114 397.693 951.969 400.652L976.886 441.16C977.629 442.102 978.169 442.953 978.685 444.037L994.798 469.543C995.55 471.14 995.534 472.364 995.51 474.111L995.501 498.506L995.375 501.58L995.429 505.898L995.372 543.164C995.364 547.616 996.278 554.687 995.006 558.858L994.607 561.972L994.947 562.146C996.285 564.399 995.713 586.194 995.252 589.631C995.49 591.856 995.976 594.134 994.766 596.141L995.062 596.588C995.719 599.391 995.387 602.101 995.324 604.945L995.264 616.864C995.271 620.098 995.885 624.917 995.086 627.939L994.795 630.25C990.32 630.932 985.225 630.48 980.684 630.489L953.535 630.541C950.787 630.545 945.917 629.925 943.418 630.899L941.176 631.189C941.016 632.697 942.07 634.406 942.695 635.771L970.047 694.42L995.488 694.432L995.25 696.539C993.393 697.261 990.681 696.933 988.677 696.94L973.264 696.963C972.101 696.826 971.123 696.585 970 696.255L967.892 696.825L966.966 697.569L919.619 697.591C919.77 696.416 919.415 695.636 919.035 694.544C917.956 693.144 917.61 691.16 917.11 689.481L913.779 678.156L901.283 636.005C900.901 634.333 900.217 632.687 899.64 631.07C898.679 629.637 898.766 629.673 899.006 627.949C898.894 623.652 896.321 617.781 895.137 613.504L882.031 567.013L880.461 561.985L879.82 558.98L865.159 506.697L863.462 501.447L862.738 498.19L860.972 491.922L860.754 492.678C860.369 494.054 860.615 494.66 861.003 495.998C861.274 496.937 861.317 497.905 861.375 498.875L860.745 498.75L860.497 498.002L859.612 496.405L858.794 496.518L835.648 411.851L784.395 445.479L782.971 443.464C779.845 444.582 775.506 444.118 772.164 444.125L751.525 444.142L684.967 444.176L330.475 444.05L269.366 444.031L250.883 444.013C247.869 444.015 244.484 443.681 241.577 444.507C242.017 445.921 242.076 446.789 241.108 448.068L240.478 448.735L209.332 425.901C202.984 421.094 196.756 415.505 189.848 411.551C189.421 410.862 189.581 411.28 189.524 410.25L190.949 408.866L194.127 408.969L245.427 409.201L248.674 403.994C249.644 403.362 250.385 402.797 250.917 401.738L251.25 401L251.875 399.998L252.5 398.5C253.623 396.792 252.449 399.216 253.288 397.381L255.25 393.745C256.476 391.763 257.219 389.789 258.245 387.75L258.5 387C259.272 386.38 259.038 386.685 259.529 385.829L265.2 375.945C267.259 372.144 270.784 367.778 271.332 363.515C271.738 361.075 275.143 356.557 276.452 354.267L275.57 353.593L275.088 353.191L251.5 352.878C249.031 352.712 245.978 352.717 243.5 352.878C239.238 353.154 221.957 351.663 219.502 353.502C218.826 353.502 219.118 353.568 218.444 353.268L217.875 353.003L217.25 352.755L216.745 351.5L216.25 351.073L215.591 286.397L215.673 245.938L22.8791 245.526L0 245.439Z"/>
	<path fill="#FDFFFB" transform="scale(0.488281 0.488281)" d="M698.047 385.511C696.607 379.911 689.084 364.006 690.786 359.432L700.53 384.75L700.25 385.535L698.047 385.511Z"/>
	<path fill="#FDFFFB" transform="scale(0.488281 0.488281)" d="M994.607 561.972L994.947 562.146C995.066 563.755 995.507 565.939 994.75 567.38L982.94 567.404L979.982 562.013L994.607 561.972Z"/>
	<path fill="#FDFFFB" transform="scale(0.488281 0.488281)" d="M746.146 354.499C748.609 358.401 761.061 382.029 761.125 385.75C760.399 385.831 759.69 385.928 758.958 385.931L758.439 385.26C756.149 381.764 754.672 377.338 752.966 373.5L748.115 362.309C747.032 359.661 745.713 357.476 746.146 354.499Z"/>
	<path fill="#FDFFFB" transform="scale(0.488281 0.488281)" d="M218.89 51.6777C218.89 50.4148 218.687 49.1119 219.5 48.0627C228.108 47.5451 236.937 47.8598 245.57 47.8349C248.8 47.8257 253.356 47.1748 256.319 48.1482L256.696 51.4944L218.89 51.6777Z"/>
	<path fill="#64DAAD" transform="scale(0.488281 0.488281)" d="M994.947 562.146C996.285 564.399 995.713 586.194 995.252 589.631L982.94 567.404L994.75 567.38C995.507 565.939 995.066 563.755 994.947 562.146Z"/>
	<path fill="#FDFFFB" transform="scale(0.488281 0.488281)" d="M995.375 501.58L995.429 505.898L950.422 505.856C949.836 504.445 948.637 502.953 947.813 501.639L995.375 501.58Z"/>
	<path fill="#FDFFFB" transform="scale(0.488281 0.488281)" d="M769.557 392.475L767.943 389.75L768.25 389.131L825.481 389.011C828.611 395.142 832.668 401.864 834.75 408.378C834.053 408.795 833.458 409.061 832.678 409.29L824.139 392.103L769.557 392.475Z"/>
	<path fill="#FDFFFB" transform="scale(0.488281 0.488281)" d="M250.085 408.955C250.703 406.783 252.336 404.353 253.412 402.335L260.555 389.295L318.022 389.332L318.472 390L317.493 392.431L279.564 392.484C274.161 392.464 267.627 391.718 262.339 392.556L252.75 408.807C251.795 408.941 251.054 409.027 250.085 408.955Z"/>
	<path fill="#FDFFFB" transform="scale(0.488281 0.488281)" d="M645.23 392.123L644.672 389.606C646 388.886 647.897 389.15 649.39 389.151L659.025 389.151L702.334 389.089L709.724 408.75C708.61 409.573 707.618 409.226 706.271 409.169L699.141 392.039L645.23 392.123Z"/>
	<path fill="#FDFFFB" transform="scale(0.488281 0.488281)" d="M707.565 392.4L706.446 389.75L707 389.187L763.095 389.037L769.548 401.653C770.684 403.891 772.265 406.324 772.907 408.75C771.97 408.989 771.126 409.135 770.16 409.199C765.624 404.714 762.986 397.774 760.117 392.093L707.565 392.4Z"/>
	<path fill="#FDFFFB" transform="scale(0.488281 0.488281)" d="M852.861 459.356L848.524 444.75L849.25 444.015C849.583 444.174 850.013 444.208 850.25 444.49C850.83 445.182 851.394 446.927 851.796 447.792L855.331 455.625L874.953 497.84L874.468 498.02C872.68 499.167 865.197 498.259 862.738 498.19L860.972 491.922L854.864 468.296C854.076 465.18 853.061 462.628 852.861 459.356Z"/>
	<path fill="#64DAAD" transform="scale(0.488281 0.488281)" d="M852.861 459.356L871.755 497.75C872.701 497.942 873.502 498.053 874.468 498.02C872.68 499.167 865.197 498.259 862.738 498.19L860.972 491.922L854.864 468.296C854.076 465.18 853.061 462.628 852.861 459.356Z"/>
	<path fill="#FDFFFB" transform="scale(0.488281 0.488281)" d="M899.64 631.07L936.73 630.958L956.942 673.559L962.514 685.642C963.597 688.03 964.542 690.754 966.129 692.833L966.198 694.25L963.946 694.791L935.104 636.186L901.283 636.005C900.901 634.333 900.217 632.687 899.64 631.07Z"/>
	<path fill="#FDFFFB" transform="scale(0.488281 0.488281)" d="M911.011 567.037L908.595 562.016L976.136 562.024L994.766 596.141L995.062 596.588C995.08 598.253 995.354 600.393 994.637 601.901L975.148 566.829L911.011 567.037Z"/>
	<path fill="#FDFFFB" transform="scale(0.488281 0.488281)" d="M882.43 505.988L880.148 501.512L943.912 501.508L968.882 548.079C970.545 551.324 973.493 555.554 974.335 559C973.145 559.53 972.325 559.383 971.058 559.324L942.074 505.974L882.43 505.988Z"/>
	<path fill="#002C73" transform="scale(0.488281 0.488281)" d="M393.239 354.092C394.27 353.994 395.17 353.776 396.178 353.542L395.111 359.807C396.181 364.96 393.418 371.664 391.75 376.516C390.66 379.689 389.636 383.004 387.972 385.93L445.792 386.007L445.52 389.524L444.566 392.583L389.382 392.831L383.225 409.462C381.273 409.486 379.384 409.678 377.575 408.828L377.237 408.08L377 408.75C375.695 408.757 376.32 408.848 375.123 408.5C375.493 407.664 375.449 408.02 375.399 407.098L375.342 406.447C375.13 405.579 375.844 404.22 376.153 403.349L379.979 392.924L380.921 390L380.5 389.393L322.337 389.392C321.087 392.498 319.938 395.684 318.293 398.607C318.307 397.048 318.372 395.68 319.129 394.289C319.461 393.677 319.541 393.641 319.755 393L320.768 390.229L321.255 388.75C322.065 388.424 322.517 388.202 323.403 388.347C327.226 388.971 331.193 388.084 335 388.377C342.869 388.984 351.216 388.509 359.157 388.509C362.109 388.509 379.826 389.174 381 388L380.5 387.25L340.762 387.222L331.475 387.215C329.866 387.212 327.896 386.99 326.375 387.498C325.404 387.821 325.325 387.591 324.375 387.248L323.375 387.875L322.755 387.5L323.629 386.057L382.215 386.07L393.239 354.092Z"/>
	<path fill="#FDFFFB" transform="scale(0.488281 0.488281)" d="M395.111 359.807C396.181 364.96 393.418 371.664 391.75 376.516C390.66 379.689 389.636 383.004 387.972 385.93L386.537 385.905L386.058 385.25L395.111 359.807Z"/>
	<path fill="#FDFFFB" transform="scale(0.488281 0.488281)" d="M377.575 408.828C379.144 407.19 379.718 404.408 380.427 402.28L384.617 389.36L426.673 389.156L438.336 389.115C440.734 389.108 443.193 388.884 445.52 389.524L444.566 392.583L389.382 392.831L383.225 409.462C381.273 409.486 379.384 409.678 377.575 408.828Z"/>
	<path fill="#64DAAD" transform="scale(0.488281 0.488281)" d="M769.557 392.475L824.139 392.103L832.678 409.29C827.501 408.402 821.187 409.171 815.84 409.191L777.453 409.284L769.557 392.475Z"/>
	<path fill="#64DAAD" transform="scale(0.488281 0.488281)" d="M707.565 392.4L760.117 392.093C762.986 397.774 765.624 404.714 770.16 409.199C763.837 409.862 757.088 409.437 750.716 409.452L713.579 409.526L707.565 392.4Z"/>
	<path fill="#64DAAD" transform="scale(0.488281 0.488281)" d="M645.23 392.123L699.141 392.039L706.271 409.169L649.735 409.173L645.23 392.123Z"/>
	<path fill="#64DAAD" transform="scale(0.488281 0.488281)" d="M250.085 408.955C251.054 409.027 251.795 408.941 252.75 408.807L262.339 392.556C267.627 391.718 274.161 392.464 279.564 392.484L317.493 392.431L309.491 409.268C303.624 409.273 251.824 410.118 250.085 408.955Z"/>
	<path fill="#64DAAD" transform="scale(0.488281 0.488281)" d="M383.225 409.462L389.382 392.831L444.566 392.583L440.787 409.492L383.225 409.462Z"/>
	<path fill="#64DAAD" transform="scale(0.488281 0.488281)" d="M874.468 498.02L874.953 497.84L875.537 500.748L876.296 501.391C879.258 505.954 881.166 511.478 883.529 516.413L903.072 558.418C901.728 559.493 901.474 559.24 899.816 559.129L879.82 558.98L865.159 506.697L863.462 501.447L862.738 498.19C865.197 498.259 872.68 499.167 874.468 498.02Z"/>
	<path fill="#FDFFFB" transform="scale(0.488281 0.488281)" d="M874.468 498.02L874.953 497.84L875.537 500.748L876.296 501.391C879.258 505.954 881.166 511.478 883.529 516.413L903.072 558.418C901.728 559.493 901.474 559.24 899.816 559.129L886.756 531.059C883.026 523.287 878.517 515.3 875.76 507.14L875.606 506.667L865.159 506.697L863.462 501.447L862.738 498.19C865.197 498.259 872.68 499.167 874.468 498.02Z"/>
	<path fill="#002C73" transform="scale(0.488281 0.488281)" d="M874.468 498.02L874.953 497.84L875.537 500.748L876.296 501.391L863.462 501.447L862.738 498.19C865.197 498.259 872.68 499.167 874.468 498.02Z"/>
	<path fill="#64DAAD" transform="scale(0.488281 0.488281)" d="M318.293 398.607C319.938 395.684 321.087 392.498 322.337 389.392L380.5 389.393L380.921 390L379.979 392.924L376.153 403.349C375.844 404.22 375.13 405.579 375.342 406.447L373.5 409.014C367.536 409.919 360.654 409.282 354.596 409.294L317.381 409.238C316.278 409.181 315.26 409.06 314.177 408.847C314.885 405.484 317.126 402.368 318.169 399.026L318.293 398.607Z"/>
	<path fill="#FDFFFB" transform="scale(0.488281 0.488281)" d="M318.293 398.607C319.938 395.684 321.087 392.498 322.337 389.392L380.5 389.393L380.921 390L379.979 392.924L326.69 392.819L317.381 409.238C316.278 409.181 315.26 409.06 314.177 408.847C314.885 405.484 317.126 402.368 318.169 399.026L318.293 398.607Z"/>
	<path fill="#64DAAD" transform="scale(0.488281 0.488281)" d="M575.873 385.55C575.752 386.707 575.623 387.918 575.87 389.063C576.555 392.773 578.591 406.152 577.555 409.072C575.85 409.677 573.616 409.367 571.798 409.348L561.599 409.348L514.983 409.411L515.049 392.812L514.926 389.071L515.106 385.858L575.873 385.55Z"/>
	<path fill="#FDFFFB" transform="scale(0.488281 0.488281)" d="M575.873 385.55C575.752 386.707 575.623 387.918 575.87 389.063C576.555 392.773 578.591 406.152 577.555 409.072C576.249 409.068 575.053 409.158 573.839 408.597L571.953 392.558L515.049 392.812L514.926 389.071L515.106 385.858L575.873 385.55Z"/>
	<path fill="#002C73" transform="scale(0.488281 0.488281)" d="M575.873 385.55C575.752 386.707 575.623 387.918 575.87 389.063L514.926 389.071L515.106 385.858L575.873 385.55Z"/>
	<path fill="#64DAAD" transform="scale(0.488281 0.488281)" d="M640.157 385.842C640.222 386.994 640.274 387.975 640.609 389.087L643.703 400.961C644.393 403.431 645.66 406.52 645.561 409.049C644.231 409.657 642.484 409.374 641.021 409.374L631.244 409.381L582.135 409.417L580.041 392.557L579.58 389.165L579.454 385.788L640.157 385.842Z"/>
	<path fill="#FDFFFB" transform="scale(0.488281 0.488281)" d="M640.157 385.842C640.222 386.994 640.274 387.975 640.609 389.087L643.703 400.961C644.393 403.431 645.66 406.52 645.561 409.049C644.394 409.06 643.409 409.001 642.268 408.75C639.966 403.646 638.65 397.873 637.168 392.48L580.041 392.557L579.58 389.165L579.454 385.788L640.157 385.842Z"/>
	<path fill="#002C73" transform="scale(0.488281 0.488281)" d="M640.157 385.842C640.222 386.994 640.274 387.975 640.609 389.087L579.58 389.165L579.454 385.788L640.157 385.842Z"/>
	<path fill="#64DAAD" transform="scale(0.488281 0.488281)" d="M449.085 386.004L510.95 385.789L510.929 389.025L511.124 392.717L511.113 409.41L448.889 409.462C447.329 409.44 445.706 409.84 444.547 408.75L448.7 389.069L449.085 386.004Z"/>
	<path fill="#FDFFFB" transform="scale(0.488281 0.488281)" d="M449.085 386.004L510.95 385.789L510.929 389.025L511.124 392.717L452.874 392.664L448.889 409.462C447.329 409.44 445.706 409.84 444.547 408.75L448.7 389.069L449.085 386.004Z"/>
	<path fill="#002C73" transform="scale(0.488281 0.488281)" d="M449.085 386.004L510.95 385.789L510.929 389.025L448.7 389.069L449.085 386.004Z"/>
	<path fill="#64DAAD" transform="scale(0.488281 0.488281)" d="M950.422 505.856L995.429 505.898L995.372 543.164C995.364 547.616 996.278 554.687 995.006 558.858L978.417 558.989L958.738 522.135L950.422 505.856Z"/>
	<path fill="#64DAAD" transform="scale(0.488281 0.488281)" d="M745.497 353.49L746.146 354.499C745.713 357.476 747.032 359.661 748.115 362.309L752.966 373.5C754.672 377.338 756.149 381.764 758.439 385.26L758.958 385.931C753.657 386.554 747.625 386.016 742.243 386.021L705.073 386.047L692.072 354.087C696.169 353.074 701.971 353.793 706.287 353.811C719.232 353.864 732.602 354.531 745.497 353.49Z"/>
	<path fill="#64DAAD" transform="scale(0.488281 0.488281)" d="M641.219 353.424L676.336 353.498L688.514 353.589C689.117 355.05 690.794 357.964 690.786 359.432C689.084 364.006 696.607 379.911 698.047 385.511L643.744 385.925L635.373 353.537L641.219 353.424Z"/>
	<path fill="#64DAAD" transform="scale(0.488281 0.488281)" d="M867.641 354.086L911.618 354.071C913.573 354.073 921.401 354.701 922.633 353.899L942.58 385.922C940.322 387.03 893.713 386.393 886.856 386.429C885.031 384.537 883.605 381.284 882.261 378.969C877.652 371.027 873.379 361.867 867.954 354.5L867.641 354.086Z"/>
	<path fill="#64DAAD" transform="scale(0.488281 0.488281)" d="M396.178 353.542L451.723 353.51L445.792 386.007L387.972 385.93C389.636 383.004 390.66 379.689 391.75 376.516C393.418 371.664 396.181 364.96 395.111 359.807L396.178 353.542Z"/>
	<path fill="#64DAAD" transform="scale(0.488281 0.488281)" d="M280.136 353.87L322.923 353.866L332.44 353.826C333.608 353.813 334.839 353.566 335.873 354.125L320.121 386.063L261.897 386.29L280.136 353.87Z"/>
	<path fill="#64DAAD" transform="scale(0.488281 0.488281)" d="M323.629 386.057C325.565 383.468 326.84 379.532 328.22 376.561C331.792 368.866 335.148 360.868 339.625 353.654L379.93 353.53C382.909 353.526 390.886 352.66 393.239 354.092L382.215 386.07L323.629 386.057Z"/>
	<path fill="#64DAAD" transform="scale(0.488281 0.488281)" d="M749.642 354.084C751.275 353.701 753.208 353.925 754.887 353.932L765.449 353.95L806.294 353.988L806.312 354.348C810.812 361.438 814.653 369.038 818.652 376.421C820.055 379.012 822.649 382.629 823.072 385.431C821.526 386.145 819.831 385.86 818.152 385.847L808.075 385.846L765.391 386.062L749.642 354.084Z"/>
	<path fill="#FDFFFB" transform="scale(0.488281 0.488281)" d="M806.312 354.348C810.812 361.438 814.653 369.038 818.652 376.421C820.055 379.012 822.649 382.629 823.072 385.431L820.155 385.3C816.612 379.408 813.687 373.169 810.726 366.971C809.008 363.375 806.874 359.594 805.835 355.754C805.662 355.113 805.995 354.899 806.312 354.348Z"/>
	<path fill="#64DAAD" transform="scale(0.488281 0.488281)" d="M515.106 385.858C513.882 375.385 515.444 364.114 515.2 353.502L571.352 353.568L575.873 385.55L515.106 385.858Z"/>
	<path fill="#64DAAD" transform="scale(0.488281 0.488281)" d="M579.454 385.788L574.877 353.524L631.696 353.511C634.665 364.075 638.459 375.002 640.157 385.842L579.454 385.788Z"/>
	<path fill="#64DAAD" transform="scale(0.488281 0.488281)" d="M810.188 353.962L862.138 353.942L863.217 353.601L876.67 376.04C878.47 379.055 880.231 382.789 882.427 385.484C883.053 386.636 883.391 387.785 883.757 389.033L829.261 389.108L829.052 387L827.526 386.032L810.188 353.962Z"/>
	<path fill="#FDFFFB" transform="scale(0.488281 0.488281)" d="M862.138 353.942L863.217 353.601L876.67 376.04C878.47 379.055 880.231 382.789 882.427 385.484L880.981 385.922L879.6 385.346C875.211 379.973 871.918 373.299 868.604 367.231C866.307 363.026 863.441 358.571 862.138 353.942Z"/>
	<path fill="#002C73" transform="scale(0.488281 0.488281)" d="M882.427 385.484C883.053 386.636 883.391 387.785 883.757 389.033L829.261 389.108L829.052 387L827.526 386.032L880.981 385.922L882.427 385.484Z"/>
	<path fill="#64DAAD" transform="scale(0.488281 0.488281)" d="M449.085 386.004L455.193 353.5L511.498 353.501L511.364 377.306C511.348 379.704 511.896 383.641 510.95 385.789L449.085 386.004Z"/>
	<path fill="#64DAAD" transform="scale(0.488281 0.488281)" d="M903.072 558.418C904.637 559.751 905.147 559.839 905.528 561.922C905.674 565.518 909.055 570.793 910.569 574.175C912.843 579.255 935.188 625.723 934.839 627.597L934.037 627.91C930.149 628.304 925.954 628.001 922.035 628.001L899.006 627.949C898.894 623.652 896.321 617.781 895.137 613.504L882.031 567.013L880.461 561.985L879.82 558.98L899.816 559.129C901.474 559.24 901.728 559.493 903.072 558.418Z"/>
	<path fill="#FDFFFB" transform="scale(0.488281 0.488281)" d="M903.072 558.418C904.637 559.751 905.147 559.839 905.528 561.922C905.674 565.518 909.055 570.793 910.569 574.175C912.843 579.255 935.188 625.723 934.839 627.597L934.037 627.91C933.441 627.741 932.76 627.756 932.25 627.404C931.921 627.178 930.76 624.289 930.502 623.75L923.529 609.052L902.556 566.891L882.031 567.013L880.461 561.985L879.82 558.98L899.816 559.129C901.474 559.24 901.728 559.493 903.072 558.418Z"/>
	<path fill="#002C73" transform="scale(0.488281 0.488281)" d="M903.072 558.418C904.637 559.751 905.147 559.839 905.528 561.922L880.461 561.985L879.82 558.98L899.816 559.129C901.474 559.24 901.728 559.493 903.072 558.418Z"/>
	<path fill="#64DAAD" transform="scale(0.488281 0.488281)" d="M901.283 636.005L935.104 636.186L963.946 694.791C959.059 694.236 953.779 694.6 948.848 694.59L919.035 694.544C917.956 693.144 917.61 691.16 917.11 689.481L913.779 678.156L901.283 636.005Z"/>
	<path fill="#64DAAD" transform="scale(0.488281 0.488281)" d="M883.757 389.033C887.635 392.762 888.832 399.319 892.185 403.55C893.669 407.554 895.964 411.363 897.904 415.17L911.343 440.895L908.996 440.939L852.689 440.964C850.265 437.351 848.69 432.482 847.023 428.451L838.237 407.443C835.995 402.178 832.998 397.286 830.842 391.981L829.261 389.108L883.757 389.033Z"/>
	<path fill="#FDFFFB" transform="scale(0.488281 0.488281)" d="M883.757 389.033C887.635 392.762 888.832 399.319 892.185 403.55C893.669 407.554 895.964 411.363 897.904 415.17L911.343 440.895L908.996 440.939L881.83 392.133L831.533 392.049L830.842 391.981L829.261 389.108L883.757 389.033Z"/>
	<path fill="#64DAAD" transform="scale(0.488281 0.488281)" d="M942.779 389.054C943.202 389.163 944.673 389.383 944.942 389.611C947.46 391.747 950.114 397.693 951.969 400.652L976.886 441.16L974.318 441.068L915.664 441.28L893.711 400.144C892.786 397.565 891.286 394.992 890.07 392.524C889.483 391.719 889.036 390.872 888.558 390C890.175 388.855 896.489 389.511 898.672 389.511L928.262 389.491C932.812 389.484 938.367 390.081 942.779 389.054Z"/>
	<path fill="#FDFFFB" transform="scale(0.488281 0.488281)" d="M942.779 389.054C943.202 389.163 944.673 389.383 944.942 389.611C947.46 391.747 950.114 397.693 951.969 400.652L976.886 441.16L974.318 441.068L952.597 408.451C949.294 403.28 946.202 397.157 942.227 392.523L890.07 392.524C889.483 391.719 889.036 390.872 888.558 390C890.175 388.855 896.489 389.511 898.672 389.511L928.262 389.491C932.812 389.484 938.367 390.081 942.779 389.054Z"/>
	<path fill="#64DAAD" transform="scale(0.488281 0.488281)" d="M882.43 505.988L942.074 505.974L971.058 559.324L907.237 559.045L882.43 505.988Z"/>
	<path fill="#64DAAD" transform="scale(0.488281 0.488281)" d="M976.886 441.16C977.629 442.102 978.169 442.953 978.685 444.037L994.798 469.543C995.55 471.14 995.534 472.364 995.51 474.111L995.501 498.506L963.126 498.501C957.957 498.504 952.185 497.999 947.079 498.67L946.079 498.812L934.956 478.439L934.679 478C934.562 476.227 931.819 472.166 930.917 470.433L919.584 448.596L917.197 444.618C916.591 444.343 915.946 442 915.664 441.28L974.318 441.068L976.886 441.16Z"/>
	<path fill="#FDFFFB" transform="scale(0.488281 0.488281)" d="M976.886 441.16C977.629 442.102 978.169 442.953 978.685 444.037L994.798 469.543C995.55 471.14 995.534 472.364 995.51 474.111C993.448 472.62 991.68 469.602 990.172 467.549L976.71 448.521L919.584 448.596L917.197 444.618C916.591 444.343 915.946 442 915.664 441.28L974.318 441.068L976.886 441.16Z"/>
	<path fill="#002C73" transform="scale(0.488281 0.488281)" d="M976.886 441.16C977.629 442.102 978.169 442.953 978.685 444.037L935.685 444.182L922.472 444.201C920.741 444.206 918.829 443.967 917.197 444.618C916.591 444.343 915.946 442 915.664 441.28L974.318 441.068L976.886 441.16Z"/>
	<path fill="#64DAAD" transform="scale(0.488281 0.488281)" d="M911.343 440.895C912.396 441.951 912.86 442.544 913.365 443.996L941.499 497.54L941.5 498.414L878.864 498.525L855.785 448.474L853.671 444.022L852.689 440.964L908.996 440.939L911.343 440.895Z"/>
	<path fill="#FDFFFB" transform="scale(0.488281 0.488281)" d="M911.343 440.895C912.396 441.951 912.86 442.544 913.365 443.996L941.499 497.54C940.836 497.872 940.302 497.819 939.573 497.848C936.11 493.556 933.549 488.403 930.859 483.598C924.347 471.964 918.619 459.678 911.509 448.408L855.785 448.474L853.671 444.022L852.689 440.964L908.996 440.939L911.343 440.895Z"/>
	<path fill="#002C73" transform="scale(0.488281 0.488281)" d="M911.343 440.895C912.396 441.951 912.86 442.544 913.365 443.996L853.671 444.022L852.689 440.964L908.996 440.939L911.343 440.895Z"/>
	<path fill="#64DAAD" transform="scale(0.488281 0.488281)" d="M911.011 567.037L975.148 566.829L994.637 601.901C995.354 600.393 995.08 598.253 995.062 596.588C995.719 599.391 995.387 602.101 995.324 604.945L995.264 616.864C995.271 620.098 995.885 624.917 995.086 627.939L939.588 627.919C938.193 626.131 937.261 623.76 936.265 621.716L930.357 609.066L911.011 567.037Z"/>
	<path fill="#0D5C6F" transform="scale(0.488281 0.488281)" d="M260.027 350.816L260.075 245.947L344.928 245.789L345.022 351.355C342.867 350.7 339.85 351.061 337.578 351.049C337.065 352.165 336.667 353.174 335.873 354.125C334.839 353.566 333.608 353.813 332.44 353.826L322.923 353.866L280.136 353.87C280.543 352.934 280.839 352.023 281.114 351.04L260.027 350.816Z"/>
	<path fill="#002C73" transform="scale(0.488281 0.488281)" d="M281.114 351.04L337.578 351.049C337.065 352.165 336.667 353.174 335.873 354.125C334.839 353.566 333.608 353.813 332.44 353.826L322.923 353.866L280.136 353.87C280.543 352.934 280.839 352.023 281.114 351.04Z"/>
	<path fill="#64DAAD" transform="scale(0.488281 0.488281)" d="M256.696 51.4944L256.95 350.608C254.551 349.714 248.743 350.469 245.975 350.471L245.9 305.718C244.782 310.442 245.408 316.136 245.403 320.993L245.25 349.789L244 350.484C243.392 349.041 243.638 347.26 243.624 345.694C243.589 341.827 244.283 335.762 243.112 332.218L243.048 350.532C240.534 350.532 233.424 351.279 231.564 349.94L230.615 351.154L229 350.586C225.995 350.004 222.098 350.467 218.992 350.479L218.89 51.6777L256.696 51.4944Z"/>
	<path fill="#060944" transform="scale(0.488281 0.488281)" d="M229 350.586L228.494 117.068L228.468 75.9887C228.466 73.0307 227.608 64.0821 229 61.9078L230.75 61.8161C231.437 63.304 231.188 65.2942 231.191 66.9204L231.213 77.7127L231.24 122.178L231.381 274.956L231.552 325.932C231.569 333.826 232.153 342.107 231.564 349.94L230.615 351.154L229 350.586Z"/>
	<path fill="#060944" transform="scale(0.488281 0.488281)" d="M243.112 332.218L242.929 132.73C242.918 124.936 241.892 65.8909 243.25 62.8096C244.548 62.6515 244.672 62.3851 245.821 63.1247L245.9 305.718C244.782 310.442 245.408 316.136 245.403 320.993L245.25 349.789L244 350.484C243.392 349.041 243.638 347.26 243.624 345.694C243.589 341.827 244.283 335.762 243.112 332.218Z"/>
	<path fill="#251940" transform="scale(0.488281 0.488281)" d="M0 245.439L-0 -0L345.422 0L345.219 21.0391L22.6545 20.9394C21.5767 23.0657 22.4137 30.6975 22.4291 33.4L22.7944 76.4279L22.8251 197.325L22.5892 225.979C22.4956 232.385 21.9447 239.176 22.8791 245.526L0 245.439Z"/>
	<path fill="#FECF01" transform="scale(0.488281 0.488281)" d="M241.577 444.507C238.631 443.501 236.287 441.544 233.825 439.705L222.184 430.811L197.606 412.645L827.646 412.977L794.088 435.349C790.916 437.499 785.956 439.976 783.493 442.832L782.971 443.464C779.845 444.582 775.506 444.118 772.164 444.125L751.525 444.142L684.967 444.176L330.475 444.05L269.366 444.031L250.883 444.013C247.869 444.015 244.484 443.681 241.577 444.507Z"/>
	<path fill="#E33A48" transform="scale(0.488281 0.488281)" d="M82.7944 23.75L345.024 23.7991L345.011 242.258L260.358 242.205L260.207 70.875L259.989 46.25C258.981 45.166 258.773 44.7341 257.25 44.5268C254.208 44.1128 250.507 44.4899 247.39 44.4838L226.305 44.4784C224.016 44.4818 219.048 43.8666 217.127 44.6798C216.618 44.8954 216.209 45.2965 215.75 45.6049C214.415 49.7654 215.352 56.8258 215.371 61.28L215.5 98.3183L215.64 242.457L25.7941 242.362L25.4895 23.8007L82.7944 23.75Z"/>
	<path fill="#A41E34" transform="scale(0.488281 0.488281)" d="M348.957 0L675.869 0L1024 0L1024 245.487L1001.03 245.569L806.907 245.7L806.856 315.224C805.449 321.977 808.002 347.928 805.519 351.589L806.516 352L806.294 353.988L765.449 353.95L754.887 353.932C753.208 353.925 751.275 353.701 749.642 354.084L748.25 352.414L745.918 352.499L745.497 353.49C732.602 354.531 719.232 353.864 706.287 353.811C701.971 353.793 696.169 353.074 692.072 354.087L690.613 351.885C688.24 350.642 682.292 351.546 679.477 351.734L676.336 353.498L641.219 353.424C643.997 352.582 647.418 352.999 650.336 352.994L669.939 352.993C671.831 352.995 675.221 353.519 676.75 352.5L676.5 352.245C675.665 351.41 673.243 351.747 672 351.745C671.392 351.143 671.735 351.25 671.043 351.25L642.25 351.245L641.75 351.745C641.009 351.762 640.328 351.783 639.595 351.638L639.003 351.498C637.448 351.139 635.929 350.481 634.433 349.923L623.043 349.864C621.591 349.853 619.968 350.098 618.668 349.358L616.25 348.382L614.485 349.454C612.655 350.214 520.138 350.449 514.528 349.373C513.286 347.798 514.32 344.956 513 343.25L513 348.25L512.125 348.752L512 347.25C511.721 346.231 511.626 345.026 511.201 344.095C511.026 345.635 510.99 347.577 510.365 348.985L510.094 349.557C507.101 350.347 503.343 349.923 500.233 349.91L481.339 349.845L409.033 349.958L404.99 349.938L394.573 350.091L380.811 351.071L380.918 350.651L348.917 350.98L349.086 0.644718L348.957 0Z"/>
	<path fill="#E33A48" transform="scale(0.488281 0.488281)" d="M348.957 0L675.869 0L675.973 0.497611L675.379 0.903252C667.66 1.46372 659.64 1.03315 651.883 1.03916L606.445 1.06325L461.7 1.00305L380.548 1.03501L359.495 1.03218C356.195 1.02857 352.288 1.46812 349.086 0.644718L348.957 0Z"/>
	<path fill="#251940" transform="scale(0.488281 0.488281)" d="M380.918 350.651L382.295 349.983L382.333 162.642L382.129 102.304C382.129 91.0192 381.61 79.3255 382.747 68.0968L642.53 68.0808C643.865 70.7496 642.973 78.2825 642.974 81.5552L642.978 119.57L642.944 263.469L642.933 349.535C642.098 348.186 642.33 345.838 642.257 344.25L641.92 344.5L641.878 347C641.958 347.895 641.92 348.36 641.755 349.25L640.25 349.255C639.368 348.546 639.576 348.438 639.412 347.373C639.167 348.417 639.313 348.047 638.88 348.967L638.578 349.582L638.698 71.7375L386.578 71.781L386.512 350.034L394.573 350.091L380.811 351.071L380.918 350.651Z"/>
	<path fill="#FC7908" transform="scale(0.488281 0.488281)" d="M394.573 350.091L386.512 350.034L386.578 71.781L638.698 71.7375L638.578 349.582L634.433 349.923L623.043 349.864C621.591 349.853 619.968 350.098 618.668 349.358L616.25 348.382L614.485 349.454L614.444 94.4634L514.512 94.4101L514.528 349.373C513.286 347.798 514.32 344.956 513 343.25L513 348.25L512.125 348.752L512 347.25C511.721 346.231 511.626 345.026 511.201 344.095C511.026 345.635 510.99 347.577 510.365 348.985L510.094 349.557L510.088 94.3622L409.149 94.4157L409.033 349.958L404.99 349.938L394.573 350.091Z"/>
	<path fill="#251940" transform="scale(0.488281 0.488281)" d="M404.99 349.938L405.514 90.5429C410.868 89.8471 416.795 90.3121 422.209 90.3098L456.089 90.3385L570.892 90.4101L605.129 90.3252C608.36 90.3176 614.121 89.5149 617 90.5148C617.439 90.6672 617.789 91.0049 618.184 91.25C618.788 93.1939 618.557 95.3925 618.562 97.4109L618.579 108.552L618.629 149.977L618.668 349.358L616.25 348.382L614.485 349.454L614.444 94.4634L514.512 94.4101L514.528 349.373C513.286 347.798 514.32 344.956 513 343.25L513 348.25L512.125 348.752L512 347.25C511.721 346.231 511.626 345.026 511.201 344.095C511.026 345.635 510.99 347.577 510.365 348.985L510.094 349.557L510.088 94.3622L409.149 94.4157L409.033 349.958L404.99 349.938Z"/>
	<path fill="#FECF01" transform="scale(0.488281 0.488281)" d="M514.528 349.373L514.512 94.4101L614.444 94.4634L614.485 349.454C612.655 350.214 520.138 350.449 514.528 349.373Z"/>
	<path fill="#FFA101" transform="scale(0.488281 0.488281)" d="M524.108 212.75L544.668 212.62C544.638 216.798 545.495 233.346 543.75 235.838L523.23 236.009L523.11 213.516L524.108 212.75Z"/>
	<path fill="#FECF01" transform="scale(0.488281 0.488281)" d="M409.033 349.958L409.149 94.4157L510.088 94.3622L510.094 349.557C507.101 350.347 503.343 349.923 500.233 349.91L481.339 349.845L409.033 349.958Z"/>
	<path fill="#FFA101" transform="scale(0.488281 0.488281)" d="M478.688 212.604L501.077 212.507L500.901 235.669L478.601 235.842L478.688 212.604Z"/>
	<path fill="#060944" transform="scale(0.488281 0.488281)" d="M675.869 0L1024 0L1024 245.487L1001.03 245.569L806.907 245.7L806.856 315.224C805.449 321.977 808.002 347.928 805.519 351.589L806.516 352L806.294 353.988L765.449 353.95L754.887 353.932C753.208 353.925 751.275 353.701 749.642 354.084L748.25 352.414L745.918 352.499L745.497 353.49C732.602 354.531 719.232 353.864 706.287 353.811C701.971 353.793 696.169 353.074 692.072 354.087L690.613 351.885C688.24 350.642 682.292 351.546 679.477 351.734L676.336 353.498L641.219 353.424C643.997 352.582 647.418 352.999 650.336 352.994L669.939 352.993C671.831 352.995 675.221 353.519 676.75 352.5L676.5 352.245C675.665 351.41 673.243 351.747 672 351.745C671.392 351.143 671.735 351.25 671.043 351.25L642.25 351.245L641.75 351.745C641.009 351.762 640.328 351.783 639.595 351.638L639.003 351.498C637.448 351.139 635.929 350.481 634.433 349.923L638.578 349.582L638.88 348.967C639.313 348.047 639.167 348.417 639.412 347.373C639.576 348.438 639.368 348.546 640.25 349.255L641.755 349.25C641.92 348.36 641.958 347.895 641.878 347L641.92 344.5L642.257 344.25C642.33 345.838 642.098 348.186 642.933 349.535C645.327 350.324 649.611 349.786 652.208 349.799L675.077 349.916L675.379 0.903252L675.973 0.497611L675.869 0Z"/>
	<path fill="#0D5C6F" transform="scale(0.488281 0.488281)" d="M744.838 245.586L765.503 245.72L765.534 351.158C762.824 353.136 754.205 352.137 750.63 352.046C749.161 352.009 747.231 351.73 745.918 352.499L745.497 353.49C732.602 354.531 719.232 353.864 706.287 353.811C701.971 353.793 696.169 353.074 692.072 354.087L690.613 351.885C688.24 350.642 682.292 351.546 679.477 351.734L679.448 245.921L744.838 245.586Z"/>
	<path fill="#64DAAD" transform="scale(0.488281 0.488281)" d="M768.526 54.0069C771.513 53.436 774.681 53.6654 777.715 53.66L793.607 53.6602C796.475 53.6646 800.351 53.1248 803.039 53.9164C803.528 55.0019 803.478 55.8889 803.494 57.0576L803.605 275.731C804.792 282.597 804.016 290.76 804.029 297.77L804.112 341.461C804.116 343.05 803.529 349.318 804.133 350.5C804.401 351.023 805.057 351.226 805.519 351.589L806.516 352L806.294 353.988L765.449 353.95L754.887 353.932C753.208 353.925 751.275 353.701 749.642 354.084L748.25 352.414L745.918 352.499C747.231 351.73 749.161 352.009 750.63 352.046C754.205 352.137 762.824 353.136 765.534 351.158C766.031 350.913 767.239 351.002 767.75 350.984C767.966 350.739 768.245 350.538 768.398 350.25C768.573 349.918 768.396 347.792 768.396 347.348L768.391 336.719L768.381 293.479C768.381 285.161 768.061 276.688 768.595 268.393C769.205 262.998 768.655 256.949 768.671 251.456L768.607 210.099L768.333 88.3159L768.175 64.9562C768.139 61.8932 767.421 56.8244 768.526 54.0069Z"/>
	<path fill="#FDFFFB" transform="scale(0.488281 0.488281)" d="M768.526 54.0069C771.513 53.436 774.681 53.6654 777.715 53.66L793.607 53.6602C796.475 53.6646 800.351 53.1248 803.039 53.9164C803.528 55.0019 803.478 55.8889 803.494 57.0576L803.118 57.2497C801.225 57.9631 770.129 58.078 768.583 57.25L768.526 54.0069Z"/>
	<path fill="#01446A" transform="scale(0.488281 0.488281)" d="M768.595 268.393L768.948 351.001L779.47 351.012L779.575 337.754C780.174 341.467 778.726 348.215 780.456 351.209L781.896 350.909C782.854 344.336 782.073 336.694 782.051 330.017C781.991 312.083 781.3 293.648 782.415 275.771L782.535 350.963L793.526 350.983L793.578 326.924C793.882 330.752 793.207 349.13 794.5 350.916L796.62 351.05C797.634 350.481 802.244 350.951 803.655 350.95L803.605 275.731C804.792 282.597 804.016 290.76 804.029 297.77L804.112 341.461C804.116 343.05 803.529 349.318 804.133 350.5C804.401 351.023 805.057 351.226 805.519 351.589L806.516 352L806.294 353.988L765.449 353.95L754.887 353.932C753.208 353.925 751.275 353.701 749.642 354.084L748.25 352.414L745.918 352.499C747.231 351.73 749.161 352.009 750.63 352.046C754.205 352.137 762.824 353.136 765.534 351.158C766.031 350.913 767.239 351.002 767.75 350.984C767.966 350.739 768.245 350.538 768.398 350.25C768.573 349.918 768.396 347.792 768.396 347.348L768.391 336.719L768.381 293.479C768.381 285.161 768.061 276.688 768.595 268.393Z"/>
	<path fill="#060944" transform="scale(0.488281 0.488281)" d="M779.575 337.754C778.959 331.152 779.536 323.9 779.529 317.244L779.507 271.641L779.552 125.265L779.492 84.2489C779.488 81.0733 778.571 73.5935 779.91 70.865L781.5 70.548L782.41 71.25L782.415 275.771C781.3 293.648 781.991 312.083 782.051 330.017C782.073 336.694 782.854 344.336 781.896 350.909L780.456 351.209C778.726 348.215 780.174 341.467 779.575 337.754Z"/>
	<path fill="#031057" transform="scale(0.488281 0.488281)" d="M793.578 326.924L793.422 125.73L793.461 81.481L793.508 73.831C793.511 73.3771 793.37 71.916 793.525 71.5C793.654 71.1514 794.008 70.9348 794.25 70.6521L796.25 70.7882C796.432 71.1088 796.731 71.3871 796.795 71.75C797.086 73.4037 796.752 75.8007 796.736 77.5134L796.65 90.3309L796.547 142.227L796.525 269.791L796.62 351.05L794.5 350.916C793.207 349.13 793.882 330.752 793.578 326.924Z"/>
	<path fill="#251940" transform="scale(0.488281 0.488281)" d="M675.869 0L1024 0L1024 245.487L1001.03 245.569L1001.32 21.0562C997.671 20.6169 993.651 20.9538 989.958 20.9855L968.16 21.2682L907.745 21.4107L678.97 20.9803L678.956 6.86152C678.956 4.97058 679.283 2.81373 678.5 1.09161L675.973 0.497611L675.869 0Z"/>
	<path fill="#E33A48" transform="scale(0.488281 0.488281)" d="M753.811 242.514L679.46 242.27L679.16 23.6873L998.091 23.7949L998.093 242.25L806.888 242.479L806.964 53.5C806.774 51.9821 806.314 51.8337 805.173 50.964C802.228 49.7173 798.43 50.2576 795.26 50.2866L777.258 50.4452C774.446 50.4468 768.994 49.7565 766.486 50.8189C765.523 51.227 765.287 51.7168 764.637 52.5L765.072 242.383L757.149 242.438C756.245 242.444 754.645 242.237 753.811 242.514Z"/>
	<path fill="#E33A48" transform="scale(0.488281 0.488281)" d="M784.395 445.479L835.648 411.851L858.794 496.518L952.923 820.656L926.729 820.69L873.286 820.61L172.863 820.077C169.322 819.459 164.708 819.982 161.066 819.958L133.472 819.652C139.003 819.287 146.11 820.702 151.391 819.532L171.481 731.75L212.002 562.5L230.204 488.605C233.449 475.414 235.917 461.524 240.478 448.735L241.108 448.068C242.076 446.789 242.017 445.921 241.577 444.507C244.484 443.681 247.869 444.015 250.883 444.013L269.366 444.031L330.475 444.05L684.967 444.176L751.525 444.142L772.164 444.125C775.506 444.118 779.845 444.582 782.971 443.464L784.395 445.479Z"/>
	<path fill="#FC7908" transform="scale(0.488281 0.488281)" d="M402.641 470.7L493.113 470.589L492.991 514.091C492.989 514.791 493.104 514.49 492.679 515.005L487.25 515.121L396.94 515.331C398.409 510.124 398.489 503.867 399.127 498.5L402.641 470.7Z"/>
	<path fill="#FC7908" transform="scale(0.488281 0.488281)" d="M531.925 470.699L622.936 470.452L627.22 515.174L531.933 515.57L531.925 470.699Z"/>
	<path fill="#FC7908" transform="scale(0.488281 0.488281)" d="M656.443 470.618L752.591 470.529C754.297 473.581 754.735 479.217 755.494 482.709C757.823 493.417 760.754 504.353 762.209 515.198L662.804 515.442L656.443 470.618Z"/>
	<path fill="#FC7908" transform="scale(0.488281 0.488281)" d="M273.143 470.566L370.336 470.603C369.666 475.582 364.393 513.914 363.382 515.25L361.125 515.294L262.654 515.169L273.143 470.566Z"/>
	<path fill="#FC7908" transform="scale(0.488281 0.488281)" d="M531.916 541.356L629.706 541.427C630.447 543.05 630.403 545.174 630.599 546.964L631.782 557.597L636.112 593.092L531.927 593.301L531.916 541.356Z"/>
	<path fill="#FC7908" transform="scale(0.488281 0.488281)" d="M394.28 541.344L493.008 541.484L493.016 593.294L486.375 593.376L388.205 593.473L394.28 541.344Z"/>
	<path fill="#FC7908" transform="scale(0.488281 0.488281)" d="M727.075 541.251L767.8 541.219L779.019 593.148L719.625 593.368L673.627 593.52L667.114 541.387L727.075 541.251Z"/>
	<path fill="#FC7908" transform="scale(0.488281 0.488281)" d="M256.028 541.498L359.152 541.519L352.645 593.382L345.875 593.469L243.179 593.461L256.028 541.498Z"/>
	<path fill="#FC7908" transform="scale(0.488281 0.488281)" d="M385.605 625.689L493.009 625.765L492.817 686.372L487.125 686.419L378.819 686.531L385.605 625.689Z"/>
	<path fill="#FC7908" transform="scale(0.488281 0.488281)" d="M677.927 625.485L785.807 625.422L799.143 686.924L685.587 686.729L677.927 625.485Z"/>
	<path fill="#FC7908" transform="scale(0.488281 0.488281)" d="M531.513 625.54L639.994 625.466L646.336 686.438L531.928 686.687L531.513 625.54Z"/>
	<path fill="#FC7908" transform="scale(0.488281 0.488281)" d="M236.908 625.54L347.931 625.881L339.263 686.531L334.625 686.545L222.947 686.934L236.908 625.54Z"/>
	<path fill="#FC7908" transform="scale(0.488281 0.488281)" d="M721.979 720.753L805.799 720.699L821.511 792.603L790.125 792.661L699.297 792.495C698.629 791.342 698.693 789.309 698.544 787.936L697.265 777.345L689.809 720.874L721.979 720.753Z"/>
	<path fill="#FC7908" transform="scale(0.488281 0.488281)" d="M375.107 720.025L492.856 720.098L493.042 792.136L487.002 792.109L368.317 792.13L375.107 720.025Z"/>
	<path fill="#FC7908" transform="scale(0.488281 0.488281)" d="M264.524 719.75L335.153 719.968L325.818 792.103L271.581 792.137L200.484 792.13L216.123 720.05C219.969 719.047 225.788 719.797 229.83 719.79L264.524 719.75Z"/>
	<path fill="#FC7908" transform="scale(0.488281 0.488281)" d="M531.54 720.474L651.457 720.426L659.233 792.509L531.836 792.66L531.54 720.474Z"/>
	<path fill="#FECF01" transform="scale(0.488281 0.488281)" d="M784.395 445.479L835.648 411.851L858.794 496.518L952.923 820.656L926.729 820.69L873.286 820.61L784.395 445.479Z"/>
</svg>
