<?xml version="1.0" encoding="utf-8" ?>
<svg xmlns="http://www.w3.org/2000/svg" xmlns:xlink="http://www.w3.org/1999/xlink" width="500" height="500">
	<path fill="#08A3AE" transform="scale(0.488281 0.488281)" d="M-0 -0L1024 0L1024 1024L-0 1024L0 -0Z"/>
	<path fill="#EF2358" transform="scale(0.488281 0.488281)" d="M713.209 108.12C728.309 134.731 738.879 169.36 730.517 199.721L729.497 203.33C726.445 204.461 723.116 204.997 720 205.983C713.549 208.024 707.726 210.978 702.143 214.776L702.57 196.011C704.518 192.981 705.31 188.915 706.378 185.487C712.022 167.369 715.171 149.197 715.077 130.181C715.059 126.625 714.913 123.103 714.516 119.566C714.222 116.945 712.267 110.255 713.209 108.12Z"/>
	<path fill="#EF2358" transform="scale(0.488281 0.488281)" d="M308.906 212.187C301.134 195.569 298.994 175.288 300.142 157.109C301.079 142.282 304.305 127.986 309.996 114.233C311.068 111.643 312.653 107.411 314.75 105.584L315.519 107.018C314.476 109.449 314.917 112.778 314.928 115.396C314.989 129.694 317.037 144.252 322.25 157.628C325.326 165.521 329.572 172.788 334.45 179.689C336.591 182.719 339.093 185.509 340.994 188.689C335.719 187.478 329.854 186.483 324.869 184.348C324.971 193.208 325.411 201.749 326.556 210.549C327.446 217.394 328.882 224.11 329.516 230.996L329.253 230.556C324.762 222.37 316.75 216.949 308.906 212.187Z"/>
	<path fill="#EF2358" transform="scale(0.488281 0.488281)" d="M663.751 519.353L651.686 492.111C660.584 494.906 671.035 494.719 680.274 494.537C707.14 517.231 740.744 530.972 775.75 533.547C780.659 533.908 786.316 534.757 791.216 534.265L791.945 534.183L793.077 535L792.658 535.7C756.05 543.713 716.701 545.757 681.882 529.754C675.483 526.813 669.697 523.084 663.751 519.353Z"/>
	<path fill="#F8739E" transform="scale(0.488281 0.488281)" d="M680.274 494.537C687.509 493.64 694.399 492.779 701.5 490.987C712.608 488.185 723 483.533 733 478.025C737.666 475.455 742.363 472.957 746.687 469.83C770.841 484.136 769.251 518.086 791.945 534.183L791.216 534.265C786.316 534.757 780.659 533.908 775.75 533.547C740.744 530.972 707.14 517.231 680.274 494.537Z"/>
	<path fill="#F8739E" transform="scale(0.488281 0.488281)" d="M662.971 142.538C666.816 141.237 670.253 138.421 673.489 136.018C682.866 129.056 692.25 121.074 699.487 111.864C702.777 107.676 705.254 103.045 707.768 98.3743L713.209 108.12C712.267 110.255 714.222 116.945 714.516 119.566C714.913 123.103 715.059 126.625 715.077 130.181C715.171 149.197 712.022 167.369 706.378 185.487C705.31 188.915 704.518 192.981 702.57 196.011L700.717 186.828L685.124 188.169L657.077 195.712L651.985 197.846C653.587 194.804 654.328 190.931 655.185 187.616C657.617 178.209 659.291 168.634 660.636 159.016C661.404 153.527 661.773 147.958 662.971 142.538Z"/>
	<path fill="#F84A7F" transform="scale(0.488281 0.488281)" d="M657.077 195.712C657.403 193.083 670.394 180.957 672.772 178.497C680.089 170.924 687.385 162.5 693.42 153.85C695.495 150.876 697.073 147.601 699.121 144.604L685.124 188.169L657.077 195.712Z"/>
	<defs>
		<linearGradient id="gradient_0" gradientUnits="userSpaceOnUse" x1="404.21896" y1="141.42123" x2="323.0939" y2="163.43187">
			<stop offset="0" stop-color="#FC999C"/>
			<stop offset="1" stop-color="#F665A1"/>
		</linearGradient>
	</defs>
	<path fill="url(#gradient_0)" transform="scale(0.488281 0.488281)" d="M315.519 107.018C318.844 111.598 322.42 115.856 326.88 119.383C332.482 123.813 339.023 126.879 345.39 130.037C358.3 136.441 371.764 142.211 383.19 151.131C385.371 152.833 388.712 154.884 390.433 156.982C392.097 158.498 394.841 161.566 396.98 161.969C397.917 162.989 398.923 163.976 399.668 165.148L410.618 177.389C412.082 179.297 413.861 182.529 415.936 183.669L415.876 197.286C417.277 200.8 417.131 205.317 417.654 209.079C418.451 214.812 419.608 220.192 421.553 225.651C412.788 217.439 402.876 209.191 391.821 204.246L371.557 195.794L359.105 192.212L340.994 188.689C339.093 185.509 336.591 182.719 334.45 179.689C329.572 172.788 325.326 165.521 322.25 157.628C317.037 144.252 314.989 129.694 314.928 115.396C314.917 112.778 314.476 109.449 315.519 107.018Z"/>
	<path fill="#F84A7F" transform="scale(0.488281 0.488281)" d="M359.105 192.212L359.001 191.776C358.277 189.238 356.32 187.34 354.642 185.375L346.911 176.252C353.167 179.986 359.139 185.065 364.82 189.642C367.072 191.456 370.097 193.312 371.557 195.794L359.105 192.212Z"/>
	<path fill="#F84A7F" transform="scale(0.488281 0.488281)" d="M391.821 204.246C392.531 196.998 380.116 172.15 376.132 165.677C372.427 159.656 367.929 153.817 363.772 148.085C370.446 152.258 376.729 156.722 382.702 161.857L394.554 172.745L415.876 197.286C417.277 200.8 417.131 205.317 417.654 209.079C418.451 214.812 419.608 220.192 421.553 225.651C412.788 217.439 402.876 209.191 391.821 204.246Z"/>
	<path fill="#F8739E" transform="scale(0.488281 0.488281)" d="M511.915 45.1036L516.262 41.905C517.474 67.9603 527.195 91.3422 543.066 111.937L515.814 147.902C514.817 149.773 505.775 168.095 505.418 168.295L499.714 155.535L484.372 133.553L459.3 106.785C462.788 101.341 465.451 95.3225 468.94 89.8189C477.44 76.4114 487.987 64.5023 500.111 54.2701C503.9 51.0715 507.712 47.7498 511.915 45.1036Z"/>
	<path fill="#F84A7F" transform="scale(0.488281 0.488281)" d="M499.714 155.535C500.772 149.622 500.509 142.915 501.069 136.852C502.584 120.45 504.237 104.256 507.334 88.0679C508.076 84.1871 508.564 80.3556 509.553 76.5156C509.749 77.4726 509.773 77.2174 509.72 78.017C508.672 94.1186 508.88 109.639 511.088 125.634C512.121 133.117 513.357 140.738 515.814 147.902C514.817 149.773 505.775 168.095 505.418 168.295L499.714 155.535Z"/>
	<path fill="#F84A7F" transform="scale(0.488281 0.488281)" d="M511.915 45.1036L512.25 46.262C499.067 66.2492 489.493 88.3101 486.126 112.126C485.126 119.193 485.565 126.618 484.372 133.553L459.3 106.785C462.788 101.341 465.451 95.3225 468.94 89.8189C477.44 76.4114 487.987 64.5023 500.111 54.2701C503.9 51.0715 507.712 47.7498 511.915 45.1036Z"/>
	<path fill="#F8739E" transform="scale(0.488281 0.488281)" d="M771.678 268.967C788.056 268.855 805.006 273.229 821.25 271.159C829.666 270.086 835.853 267.299 842.994 262.82L842.104 270.374C841.371 291.011 831.607 313.94 818.796 329.923C814.551 335.218 808.472 339.875 804.835 345.503C801.861 345.437 798.182 343.872 795.405 342.779C783.123 337.944 772.571 329.964 760.462 324.868L745.971 319.696C743.162 318.081 737.832 317.465 734.632 316.669C741.147 311.973 746.843 307.432 752.589 301.803C760.693 291.857 766.897 280.85 771.678 268.967Z"/>
	<path fill="#EF2358" transform="scale(0.488281 0.488281)" d="M752.589 301.803L753.211 301.741C759.953 300.998 766.709 299.23 773.422 298.138C781.473 296.828 790.016 296.515 798.143 297.25C795.674 298.639 790.874 298.363 788 298.91C772.679 301.825 757.016 308.344 745.971 319.696C743.162 318.081 737.832 317.465 734.632 316.669C741.147 311.973 746.843 307.432 752.589 301.803Z"/>
	<path fill="#EF2358" transform="scale(0.488281 0.488281)" d="M760.462 324.868L763.5 324.396C787.694 319.958 815.956 311.068 831.021 290.355C834.084 286.144 836.56 281.81 838.825 277.128C839.883 274.941 840.391 272.804 841.81 270.781L842.104 270.374C841.371 291.011 831.607 313.94 818.796 329.923C814.551 335.218 808.472 339.875 804.835 345.503C801.861 345.437 798.182 343.872 795.405 342.779C783.123 337.944 772.571 329.964 760.462 324.868Z"/>
	<path fill="#F8739E" transform="scale(0.488281 0.488281)" d="M263.928 277.349C271.198 286.932 279.076 293.845 287.976 301.75C291.654 305.016 296.05 309.982 300.87 311.409C302.027 312.667 302.722 314.062 303.509 315.57L311.449 328.942C306.66 329.313 301.578 329.415 296.942 330.754C282.204 334.446 269.548 340.704 256.442 348.233C250.211 352.18 243.229 356.472 238.312 362.048L221.907 349.321C203.714 334.194 189.76 315.217 186.252 291.334L184.963 282.805C189.185 285.785 193.695 287.907 198.929 288.298C202.472 288.564 206.396 287.816 209.885 287.273C219.087 285.842 228.101 283.199 237.215 281.3C245.942 279.482 255.047 278.108 263.928 277.349Z"/>
	<path fill="#F84A7F" transform="scale(0.488281 0.488281)" d="M296.942 330.754C296.558 330.366 296.277 330.036 295.768 329.77C294.267 328.986 292.027 328.729 290.35 328.327L280.552 325.809L248.25 316.797C241.754 314.652 235.487 312.167 229.521 308.8C234.829 308.746 240.463 309.669 245.796 310.037L303.509 315.57L311.449 328.942C306.66 329.313 301.578 329.415 296.942 330.754Z"/>
	<path fill="#EF2358" transform="scale(0.488281 0.488281)" d="M186.252 291.334L186.799 290.75C188.412 292.105 189.288 294.713 190.323 296.556C192.062 299.651 193.999 302.614 196.073 305.493C210.542 325.581 231.973 342.497 256.442 348.233C250.211 352.18 243.229 356.472 238.312 362.048L221.907 349.321C203.714 334.194 189.76 315.217 186.252 291.334Z"/>
	<path fill="#F8739E" transform="scale(0.488281 0.488281)" d="M736.437 402.045L749 394.044C758.038 387.732 766.31 380.696 773.924 372.731C781.507 373.658 788.619 375.802 795.572 378.973C805.155 383.344 813.76 388.854 823.916 392.108C829.263 393.822 834.748 395.221 840.29 396.133C843.642 396.685 847.604 396.602 850.769 397.75C850.659 398.972 850.393 399.503 849.909 400.611C843.658 420.11 828.651 433.431 810.764 442.602C799.24 448.51 786.858 453.374 774.359 456.819C769.14 458.257 763.303 458.689 758.339 460.715L727.04 431.162C726.477 431.13 714.58 421.785 712.987 420.523L702.943 414.347C714.728 411.246 725.552 407.605 736.437 402.045Z"/>
	<path fill="#EF2358" transform="scale(0.488281 0.488281)" d="M736.437 402.045C752.089 405.086 767.412 407.781 783.371 408.708C790.285 409.109 797.643 409.407 804.527 408.615C800.238 410.604 794.921 411.167 790.298 412.216C772.855 416.176 755.451 418.199 737.623 419.284C729.555 419.776 720.938 419.207 712.987 420.523L702.943 414.347C714.728 411.246 725.552 407.605 736.437 402.045Z"/>
	<path fill="#EF2358" transform="scale(0.488281 0.488281)" d="M727.04 431.162C728.867 430.817 731.082 431.523 732.93 431.809L741.658 432.727C746.961 433.099 752.307 433.029 757.614 432.8C770.463 432.245 783.383 430.642 795.75 427.007C809.122 423.077 821.876 416.838 834.045 410.115C839.441 407.133 844.48 403.476 849.909 400.611C843.658 420.11 828.651 433.431 810.764 442.602C799.24 448.51 786.858 453.374 774.359 456.819C769.14 458.257 763.303 458.689 758.339 460.715L727.04 431.162Z"/>
	<path fill="#F8739E" transform="scale(0.488281 0.488281)" d="M263.928 277.349C258.164 269.486 252.894 261.574 248.497 252.846C240.539 237.046 235.985 220.978 236.564 203.215C236.748 197.55 237.263 191.693 239.045 186.282L240.004 186.52C245.313 190.661 250.346 194.186 256.5 197.032C266.009 201.429 276.575 203.66 286.673 206.27L308.906 212.187C316.75 216.949 324.762 222.37 329.253 230.556L329.516 230.996C330.038 238.398 332.468 245.354 333.972 252.576L341.804 272.526L352.743 291.401L354.195 293.75L353.5 294.136C332.024 286.632 307.281 285.1 284.672 286.562C289.265 295.382 296.696 302.457 300.87 311.409C296.05 309.982 291.654 305.016 287.976 301.75C279.076 293.845 271.198 286.932 263.928 277.349Z"/>
	<path fill="#F84A7F" transform="scale(0.488281 0.488281)" d="M341.804 272.526C339.477 271.814 337.597 269.395 335.933 267.692L322.079 252.102C319.348 248.969 316.385 245.991 313.358 243.144C307.497 237.631 300.609 232.823 294.015 228.204C290.075 225.444 286.051 222.907 282.531 219.604C296.072 224.987 310.537 230.777 321.671 240.392C325.918 244.059 329.343 248.376 333.465 252.122L333.972 252.576L341.804 272.526Z"/>
	<path fill="#EF2358" transform="scale(0.488281 0.488281)" d="M263.928 277.349C258.164 269.486 252.894 261.574 248.497 252.846C240.539 237.046 235.985 220.978 236.564 203.215C236.748 197.55 237.263 191.693 239.045 186.282L240.004 186.52C240.199 188.652 240.5 190.167 241.347 192.116C244.313 198.944 246.589 206.117 250.223 212.639C265.807 240.608 292.997 260.55 320.594 275.652L348.695 290.096C350.025 290.825 351.26 291.118 352.743 291.401L354.195 293.75L353.5 294.136C332.024 286.632 307.281 285.1 284.672 286.562C289.265 295.382 296.696 302.457 300.87 311.409C296.05 309.982 291.654 305.016 287.976 301.75C279.076 293.845 271.198 286.932 263.928 277.349Z"/>
	<path fill="#F8739E" transform="scale(0.488281 0.488281)" d="M263.429 382.327C270.473 386.5 276.943 391.946 283.731 396.56C295.185 404.345 307.033 410.89 319.523 416.853L335.493 422.676L324.335 431.759L306.353 450.09L285.453 478.698C276.186 477.776 266.175 475.692 257.25 472.974C249.684 470.671 242.163 467.552 234.891 464.444C215.797 456.283 194.574 445.061 184.47 426.128L183.709 425.315L183.75 424.394C187.242 424.572 190.969 424.773 194.419 424.141C211.454 421.022 222.542 408.662 235.54 398.409C244.285 391.511 252.959 386.205 263.429 382.327Z"/>
	<path fill="#F84A7F" transform="scale(0.488281 0.488281)" d="M324.335 431.759C315.189 432.332 306.079 433.043 296.906 432.949C275.219 432.726 253.867 429.879 232.501 426.436L252.171 424.47L290.946 419.562L304.25 418.179C309.104 417.813 314.416 418.261 319.111 416.972L319.523 416.853L335.493 422.676L324.335 431.759Z"/>
	<path fill="#EF2358" transform="scale(0.488281 0.488281)" d="M184.47 426.128L185.75 425.818C193.455 432.627 202.828 437.193 212.39 440.828C237.252 450.278 264.89 453.405 291.39 451.868C294.314 451.699 297.342 451.557 300.237 451.121C302.136 450.834 304.478 449.833 306.353 450.09L285.453 478.698C276.186 477.776 266.175 475.692 257.25 472.974C249.684 470.671 242.163 467.552 234.891 464.444C215.797 456.283 194.574 445.061 184.47 426.128Z"/>
	<path fill="#F8739E" transform="scale(0.488281 0.488281)" d="M582.453 117.035C598.492 95.9924 610.685 72.8488 614.624 46.4859C620.44 51.0306 624.95 55.9577 629.606 61.6178C649.187 83.4088 664.143 112.722 662.971 142.538C661.773 147.958 661.404 153.527 660.636 159.016C659.291 168.634 657.617 178.209 655.185 187.616C654.328 190.931 653.587 194.804 651.985 197.846C642.21 202.791 632.467 207.825 624.166 215.106C620.836 218.027 617.944 221.375 615.051 224.716C614.033 225.891 612.535 228.161 611.154 228.75C610.967 227.551 610.894 226.475 610.926 225.262L610.908 218.683C610.438 209.516 610.088 200.421 608.639 191.339L604.05 168.141L598.539 151.125C594.282 139.216 588.951 127.887 582.453 117.035Z"/>
	<path fill="#F84A7F" transform="scale(0.488281 0.488281)" d="M604.05 168.141L604.434 167.433C606.096 164.249 607.243 160.028 608.566 156.612C617.046 134.714 622.662 112.309 624.185 88.839C634.847 126.095 630.199 168.838 616.478 204.616C614.836 208.897 613.506 213.935 611.353 217.924L610.908 218.683C610.438 209.516 610.088 200.421 608.639 191.339L604.05 168.141Z"/>
	<path fill="#F84A7F" transform="scale(0.488281 0.488281)" d="M629.606 61.6178C649.187 83.4088 664.143 112.722 662.971 142.538C661.773 147.958 661.404 153.527 660.636 159.016C659.291 168.634 657.617 178.209 655.185 187.616C654.328 190.931 653.587 194.804 651.985 197.846C642.21 202.791 632.467 207.825 624.166 215.106C620.836 218.027 617.944 221.375 615.051 224.716C614.033 225.891 612.535 228.161 611.154 228.75C610.967 227.551 610.894 226.475 610.926 225.262C614.442 221.429 616.959 216.222 619.172 211.531L628.039 191L638.693 163.85C647.399 138.117 644.317 111.473 637.259 85.7031C635.226 78.2774 633.199 70.6828 629.695 63.7841C629.102 62.6161 629.285 62.795 629.606 61.6178Z"/>
	<path fill="#057B40" transform="scale(0.488281 0.488281)" d="M537.71 566.395L540.267 569.886C531.638 610.463 523.931 651.492 519.938 692.806C515.345 740.328 515.611 787.936 517.558 835.588C519.977 833.716 522.054 829.66 523.952 827.122L541.911 802.47C546.345 796.15 550.872 789.737 554.236 782.771L565.916 778.09L575.069 774.157L575.426 774.337C573.717 778.988 570.304 783.47 567.688 787.683C555.94 806.599 543.064 824.263 529.202 841.683L521.86 850.381C521.329 850.951 519.115 852.804 518.894 853.402C518.8 853.657 519.13 855.462 519.174 855.843L520.07 864.037C523.567 901.692 530.016 940.931 542.204 976.797L546.442 988.28C546.543 988.59 547.248 990.463 547.203 990.648C547.198 990.67 545.41 991.544 545.289 991.601C542.921 992.716 540.338 993.379 537.88 994.272C534.647 995.445 531.233 997.276 527.75 996.952C524.366 993.602 523.433 987.214 522.062 982.683L513.744 952.386C512.389 946.511 511.469 939.03 509.12 933.588C507.898 930.755 504.444 927.498 502.523 925L491.566 909.884C478.133 890.421 466.518 870.156 455.989 848.993C453.078 843.141 449.655 837.189 447.444 831.053C448.524 831.015 449.407 830.802 450.443 830.506L451.644 831.791L452.899 831.622L460.141 830.696C460.862 831.031 461.225 830.968 461.514 831.741C464.686 840.214 469.204 848.404 473.355 856.443L494.282 894.5C497.436 899.67 501.409 904.381 504.355 909.65C504.848 910.531 504.545 910.2 505.313 910.735L505.818 909.651C503.789 901.022 502.89 891.793 501.883 883L498.25 843.861L495.659 796.888C494.633 747.711 498.201 697.853 505.144 649.183L518.357 576.196C520.012 577.827 522.062 579.485 523.479 581.303C524.459 582.044 525.28 582.741 526.5 583.042C528.417 581.909 530.706 577.556 532.155 575.658L537.71 566.395Z"/>
	<path fill="#068F6A" transform="scale(0.488281 0.488281)" d="M565.916 778.09C563.755 783.354 559.8 788.415 556.684 793.183C544.699 811.531 532.942 828.951 518.022 845.122C517.873 842.2 517.205 838.433 517.558 835.588C519.977 833.716 522.054 829.66 523.952 827.122L541.911 802.47C546.345 796.15 550.872 789.737 554.236 782.771L565.916 778.09Z"/>
	<path fill="#068F6A" transform="scale(0.488281 0.488281)" d="M460.141 830.696C460.862 831.031 461.225 830.968 461.514 831.741C464.686 840.214 469.204 848.404 473.355 856.443L494.282 894.5C497.436 899.67 501.409 904.381 504.355 909.65C504.848 910.531 504.545 910.2 505.313 910.735L505.818 909.651C506.22 910.113 506.125 913.215 506.18 914.053C506.366 916.845 506.881 919.399 507.569 922.107C504.227 918.468 501.656 913.96 498.836 909.908C486.837 892.663 476.092 874.88 466.314 856.281L456.071 836.185C455.617 835.343 454.952 833.101 454.368 832.514C453.964 832.108 453.389 831.919 452.899 831.622L460.141 830.696Z"/>
	<defs>
		<linearGradient id="gradient_1" gradientUnits="userSpaceOnUse" x1="547.10168" y1="782.66382" x2="499.68195" y2="786.53876">
			<stop offset="0" stop-color="#A09F43"/>
			<stop offset="1" stop-color="#93B857"/>
		</linearGradient>
	</defs>
	<path fill="url(#gradient_1)" transform="scale(0.488281 0.488281)" d="M532.155 575.658C531.641 585.752 528.387 596.215 526.516 606.157L515.986 669.531L510.717 733.494C508.407 779.174 509.064 825.784 514.201 871.25L519.229 905.802C523.532 933.114 528.901 961.226 538.634 987.181L530.986 990.146C520.852 959.387 514.463 928.393 509.803 896.382C497.841 814.222 499.647 731.224 511.147 649.114L523.479 581.303C524.459 582.044 525.28 582.741 526.5 583.042C528.417 581.909 530.706 577.556 532.155 575.658Z"/>
	<path fill="#08A3AE" transform="scale(0.488281 0.488281)" d="M509.044 567.329L518.357 576.196L505.144 649.183C498.201 697.853 494.633 747.711 495.659 796.888L498.25 843.861L501.883 883C502.89 891.793 503.789 901.022 505.818 909.651L505.313 910.735C504.545 910.2 504.848 910.531 504.355 909.65C501.409 904.381 497.436 899.67 494.282 894.5L473.355 856.443C469.204 848.404 464.686 840.214 461.514 831.741C461.225 830.968 460.862 831.031 460.141 830.696C460.878 830.447 460.989 830.303 461.499 829.75C460.378 825.135 458.26 820.849 456.275 816.554C457.19 814.926 457.504 812.399 457.953 810.559C459.923 802.481 461.421 794.048 462.585 785.821C468.241 745.872 467.912 702.138 448.808 665.525C444.487 657.245 439.09 649.956 433.501 642.519L434.156 642.297C460.479 633.232 481.119 614.743 496.046 591.553C500.951 583.932 505.089 575.487 509.044 567.329Z"/>
	<path fill="#08A3AE" transform="scale(0.488281 0.488281)" d="M540.267 569.886C545.304 575.49 550.364 580.987 555.85 586.157C570.238 599.715 586.271 612.798 597.964 628.875C593.211 638.189 588.091 647.619 584.033 657.25C573.397 682.492 566.235 710.253 566.084 737.755C566.049 744.267 565.831 752.366 567.859 758.557L568.282 759.564C563.696 766.816 556.899 774.597 554.236 782.771C550.872 789.737 546.345 796.15 541.911 802.47L523.952 827.122C522.054 829.66 519.977 833.716 517.558 835.588C515.611 787.936 515.345 740.328 519.938 692.806C523.931 651.492 531.638 610.463 540.267 569.886Z"/>
	<path fill="#3B1974" transform="scale(0.488281 0.488281)" d="M635.094 611.964L635.495 611.685C644.142 605.584 651.908 598.621 661 593.028C704.038 566.552 753.358 558.179 802.954 566.549C845.435 573.719 885.235 593.767 918.553 620.813C926.127 626.961 933.115 633.781 940.164 640.511L952.278 651.988C954.274 653.845 956.879 655.797 958.533 657.941L958.778 658.296L958.154 658.066C940.434 651.676 918.839 650.38 901.57 658.691C877.012 670.51 860.097 696.919 842.751 717.105C829.245 732.824 814.891 748.29 798.529 761.086C788.047 769.284 776.134 776.015 764.226 781.878C733.904 796.805 700.702 803.642 666.932 800.633C646.749 798.834 626.471 793.303 607.356 786.689L590.21 780.286C585.436 778.29 580.433 775.574 575.426 774.337L575.069 774.157L565.916 778.09L554.236 782.771C556.899 774.597 563.696 766.816 568.282 759.564L567.859 758.557C565.831 752.366 566.049 744.267 566.084 737.755C566.235 710.253 573.397 682.492 584.033 657.25C588.091 647.619 593.211 638.189 597.964 628.875C601.898 634.336 604.956 640.071 608.098 645.997C609.98 650.006 611.355 654.096 612.628 658.333L615.176 653.418L635.094 611.964Z"/>
	<path fill="#24EBEB" transform="scale(0.488281 0.488281)" d="M585.106 734.532C588.543 717.115 593.142 700.731 600.697 684.597C603.551 678.501 606.709 672.085 610.671 666.638C609.986 669.439 608.486 672.169 607.331 674.807L601.206 689.556C595.752 703.844 592.509 717.923 589.705 732.918C587.969 734.391 587.313 734.266 585.106 734.532Z"/>
	<path fill="#24EBEB" transform="scale(0.488281 0.488281)" d="M679.691 659.5C679.171 656.708 680.04 653.532 680.927 650.873C687.704 630.549 706.518 612.477 722.879 599.267C727.937 595.183 733.66 590.547 739.5 587.667C739.666 588.327 738.895 588.584 738.389 588.983C732.158 593.885 725.691 598.443 719.928 603.919C703.236 619.78 688.557 637.688 680.343 659.395L679.691 659.5Z"/>
	<path fill="#24EBEB" transform="scale(0.488281 0.488281)" d="M680.343 659.395L680.961 659.236C683.447 658.546 686.294 656.535 688.599 655.278L703.5 647.481C716.25 641.272 729.744 636.377 743.262 632.14L743.463 631.516C745.238 626.234 749.371 622.091 753.249 618.226C769.383 602.148 789.265 591.383 809.554 581.533C813.413 579.659 819.354 575.996 823.497 575.64C821.943 577.087 818.891 578.131 816.942 579.113L805.026 585.435C788.115 594.715 771.686 605.961 757.713 619.29C753.91 622.918 749.659 626.867 746.698 631.205C786.209 619.545 828.481 617.766 869 624.832C889.048 628.328 908.137 633.516 926.554 642.25C925.393 642.371 924.88 642.113 923.847 641.628C919.486 639.584 914.37 638.152 909.759 636.71C879.207 627.153 844.986 625.488 813.266 628.639C798.586 630.097 784.224 633.019 769.719 635.606L789.989 637.898C806.651 640.621 822.288 646.636 836.645 655.498C839.952 657.54 844.999 660.066 847.56 662.903L847.903 663.345C845.151 662.486 842.007 659.635 839.401 658.109C833.902 654.887 828.213 651.789 822.282 649.442C802.858 641.755 781.92 639.539 761.203 641.08C757.14 641.383 752.936 641.433 748.957 642.356C743.484 643.625 738.18 645.974 732.966 648.05C725.021 651.214 717.179 654.456 709.591 658.413C691.015 668.099 672.061 677.679 655.482 690.624C672.281 683.388 690.202 677.428 708.415 675.156C735.257 671.807 762.339 676.616 787.329 686.497L795.499 690.25L795.25 690.745L794.484 690.36C789.526 687.929 783.808 686.286 778.531 684.674C747.073 675.062 711.092 675.168 679.985 686.227C670.973 689.431 662.509 693.455 653.81 697.358C650.373 698.901 646.349 700.228 643.173 702.181C638.588 705 634.283 709.79 630.322 713.481C617.799 725.151 604.787 737.039 594.038 750.394C597.631 748.452 601.061 746.16 604.771 744.454C636.765 729.742 676.219 725.251 710.25 735.268C723.089 739.048 737.029 744.699 747.799 752.75L747.5 752.992C740.621 749.558 734.288 745.913 727.021 743.214C694.082 730.977 656.802 732.281 623.708 743.25C614.201 746.401 605.211 750.207 596.088 754.302C593.343 755.535 589.487 756.694 587.365 758.864C582.825 763.509 579.865 769.558 575.069 774.157L565.916 778.09L554.236 782.771C556.899 774.597 563.696 766.816 568.282 759.564L576.431 748.872C580.322 744.046 583.692 740.741 585.106 734.532C587.313 734.266 587.969 734.391 589.705 732.918C593.571 730.032 597.16 724.961 600.562 721.434L613.505 708.585C615.223 706.886 617.744 704.946 618.807 702.812C620.057 700.302 620.269 696.306 620.973 693.5C622.126 688.901 623.532 684.369 625.166 679.918C633.537 657.105 646.318 638.71 661.77 620.237C664.87 616.531 668.179 611.708 671.937 608.714C670.965 611.085 668.799 613.337 667.25 615.378L657.831 627.964C642.875 648.6 630.85 672.199 625.659 697.302C630.002 694.395 634.021 690.868 638.208 687.723L663.11 670.154L672.061 664.679C674.325 663.433 678.639 661.823 679.691 659.5L680.343 659.395Z"/>
	<path fill="#3B1974" transform="scale(0.488281 0.488281)" d="M380.421 492.074L392.804 488.86L388.268 506.004C386.839 517.448 385.911 528.482 386.139 540.019L387.234 552.649L387.627 556.98L388.5 557.472L402.425 552.689C404.159 575.133 412.366 596.085 412.778 618.694C412.87 623.748 412.898 629.446 411.844 634.395C410.983 638.591 409.13 642.516 407.071 646.25C407.844 646.992 407.384 646.768 408.459 646.909C416.342 646.967 425.915 644.637 433.501 642.519C439.09 649.956 444.487 657.245 448.808 665.525C467.912 702.138 468.241 745.872 462.585 785.821C461.421 794.048 459.923 802.481 457.953 810.559C457.504 812.399 457.19 814.926 456.275 816.554C458.26 820.849 460.378 825.135 461.499 829.75C460.989 830.303 460.878 830.447 460.141 830.696L452.899 831.622L451.644 831.791L450.443 830.506C449.407 830.802 448.524 831.015 447.444 831.053C445.044 829.84 439.926 830.345 437.167 830.31L382.329 831.923C373.69 832.06 364.981 832.084 356.362 831.397C323.503 828.78 290.268 818.014 262.113 800.913C237.762 786.123 217.567 767.131 201.28 743.719C193.997 733.251 187.314 722.259 181.25 711.044C170.266 690.728 159.703 667.771 143.072 651.404C134.842 643.306 124.965 637.11 114.351 632.625C98.4249 625.896 78.6643 626.099 62.8014 632.702C65.6983 629.194 69.2844 626.043 72.552 622.865C79.292 616.31 86.1487 609.959 93.6361 604.253C109.845 591.902 127.617 581.714 146.101 573.188C185.827 554.865 230.399 544.164 274.237 549.994C277.908 527.488 290.216 506.542 308.189 492.406C326.648 494.346 344.971 495.633 363.542 494.314C369.177 493.914 374.822 492.836 380.421 492.074Z"/>
	<defs>
		<linearGradient id="gradient_2" gradientUnits="userSpaceOnUse" x1="355.59503" y1="804.17188" x2="376.88998" y2="764.90131">
			<stop offset="0" stop-color="#1ADCE0"/>
			<stop offset="1" stop-color="#0EFAEC"/>
		</linearGradient>
	</defs>
	<path fill="url(#gradient_2)" transform="scale(0.488281 0.488281)" d="M344.104 766.526C332.727 766.053 321.769 766.036 310.471 767.581L295.218 770.437L294.534 770.544L293.577 770.776L293.696 770.25C294.557 770.138 295.232 770.011 296.048 769.694C297.078 769.295 296.588 769.433 297.591 769.177C314.58 764.838 334.817 762.164 352.299 764.977C358.837 765.472 365.131 766.927 371.5 768.395C391.668 773.042 409.012 780.864 425.327 793.677C428.975 796.542 432.867 799.399 436.015 802.811L435.826 807.118C428.08 800.022 420.165 793.295 411.204 787.755C391.364 775.488 367.135 768.991 344.104 766.526Z"/>
	<path fill="#08A3AE" transform="scale(0.488281 0.488281)" d="M387.234 552.649L387.627 556.98L388.5 557.472L402.425 552.689C404.159 575.133 412.366 596.085 412.778 618.694C412.87 623.748 412.898 629.446 411.844 634.395C407.633 629.545 404.014 624.051 399.88 619.095C387.194 603.89 371.407 588.924 354.325 578.822C348.953 575.644 343.35 572.771 337.712 570.096C334.599 568.619 331.317 567.409 328.331 565.685L327.956 565.463L387.234 552.649Z"/>
	<path fill="#24EBEB" transform="scale(0.488281 0.488281)" d="M395.453 733.291C391.382 727.207 386.534 721.65 381.777 716.1C367.66 699.633 351.725 684.568 334 672.018C327.791 667.621 321.409 663.142 314.484 659.95C304.765 655.471 293.053 653.161 282.5 651.499C256.376 647.383 231.102 650.269 206.783 660.844C202.926 662.521 199.154 664.44 195.483 666.491C193.628 667.528 191.085 669.567 189.081 669.969C190.42 668.206 193.709 666.604 195.64 665.44C210.47 656.505 227.616 650.454 244.75 648.012C259.887 645.854 275.909 646.152 290.856 649.545C296.707 650.873 302.36 652.906 308.163 654.428C301.91 650.406 295.189 647.146 288.575 643.765C250.719 624.414 210.426 614.35 168.025 612.002C145.685 610.764 123.525 611.733 101.612 616.49C97.6373 617.353 92.536 619.219 88.5716 619.098C92.6856 616.698 99.3253 615.559 103.983 614.307C131.004 607.041 158.996 604.415 186.909 606.153C195.644 606.697 204.243 607.284 212.849 608.948L195.719 593.676C192.598 590.897 187.963 587.53 185.716 584.052C189.332 585.955 192.978 589.826 196.137 592.45L215.812 608.595C218.345 610.696 223.895 611.09 227.116 611.805L245.821 616.479C266.995 622.268 286.042 631.006 305.68 640.61C292.467 617.139 271.709 597.479 252.31 579.069C246.904 573.938 240.007 569.169 235.25 563.529C240.657 566.529 245.939 571.669 250.632 575.732C267.111 589.997 283.909 605.222 297.442 622.368L308.669 638.009C310.292 640.414 311.714 643.283 313.661 645.41C315.52 647.442 319.113 649.069 321.465 650.52L337.356 660.817C343.497 665.207 349.462 669.835 355.133 674.82C359.675 678.811 364.081 683.374 369.006 686.857C367.441 679.042 365.09 671.353 362.75 663.739C357.872 647.863 351.906 632.335 343.415 618L333.97 602.924C331.919 599.901 329.317 596.962 327.627 593.75C332.318 598.091 336.351 603.779 340.008 609C353.404 628.124 363.069 649.332 369.143 671.866L372.506 685.75C372.794 687.115 373.032 690.867 373.699 691.908C374.486 693.138 376.215 694.517 377.254 695.6L385.998 704.947C396.34 716.679 406.27 728.923 415.084 741.848L427.52 761C429.055 763.529 431.502 769.566 433.69 771.149L429.825 749.508C422.588 717.05 410.888 686.221 394 657.53L380.828 637.25L381.341 637.25C404.847 667.205 423.578 702.503 430.932 740.127C431.979 745.485 433.093 750.913 433.654 756.344L434.769 768.62C434.93 770.53 434.913 772.847 435.458 774.682C437.087 780.176 440.95 786.015 443.625 791.131L456.275 816.554C458.26 820.849 460.378 825.135 461.499 829.75C460.989 830.303 460.878 830.447 460.141 830.696L452.899 831.622L451.644 831.791L450.443 830.506C447.753 825.178 445.316 819.115 442.037 814.165C440.386 811.672 437.871 809.314 435.826 807.118L436.015 802.811L436.115 802.702C435.997 800.714 434.229 798.325 433.25 796.612L425.036 782.746L409.926 756.756C406.997 751.775 404.314 746.262 400.403 741.99L390.701 734.281C357.102 710.102 310.731 694.066 269 697.902C265.771 698.199 262.392 698.18 259.202 698.731L255 699.278L255.091 698.73C261.325 697.779 267.449 696.573 273.768 696.175C308.4 693.992 343.073 703.749 373.439 719.99C380.933 723.998 387.786 728.859 395.097 733.088L395.453 733.291Z"/>
	<path fill="#F84A7F" transform="scale(0.488281 0.488281)" d="M380.421 492.074L392.804 488.86L388.268 506.004C386.839 517.448 385.911 528.482 386.139 540.019L387.234 552.649L327.956 565.463C313.644 567.188 296.957 568.974 283.846 575.32L283.092 575.675C280.51 576.943 278.632 579.013 276.642 581.039C276.037 581.949 275.509 582.768 274.718 583.531L273.902 584.75L273.337 584.75C272.383 572.803 272.076 561.855 274.237 549.994C277.908 527.488 290.216 506.542 308.189 492.406C326.648 494.346 344.971 495.633 363.542 494.314C369.177 493.914 374.822 492.836 380.421 492.074Z"/>
	<path fill="#EF2358" transform="scale(0.488281 0.488281)" d="M380.421 492.074L392.804 488.86L388.268 506.004L344.979 517.016L334.128 520.585C331.857 521.406 329.401 522.72 326.949 522.332C333.557 518.314 340.764 515.389 347.677 511.976C355.777 507.977 363.296 503.514 370.854 498.591C374.064 496.5 377.589 494.657 380.421 492.074Z"/>
	<path fill="#EF2358" transform="scale(0.488281 0.488281)" d="M386.139 540.019L387.234 552.649L327.956 565.463C313.644 567.188 296.957 568.974 283.846 575.32L283.092 575.675C280.51 576.943 278.632 579.013 276.642 581.039L276.689 579.274C281.492 573.49 285.881 568.263 292.358 564.221C308.63 554.067 329.996 552.049 348.499 548.32L386.139 540.019Z"/>
	<path fill="#F8739E" transform="scale(0.488281 0.488281)" d="M308.189 492.406C326.648 494.346 344.971 495.633 363.542 494.314C369.177 493.914 374.822 492.836 380.421 492.074C377.589 494.657 374.064 496.5 370.854 498.591C363.296 503.514 355.777 507.977 347.677 511.976C340.764 515.389 333.557 518.314 326.949 522.332C323.929 523.372 320.996 525.455 318.225 527.048C302.312 536.199 289.605 548.019 281.502 564.691C279.251 569.323 277.602 573.897 275.937 578.75C275.244 580.771 274.556 581.288 274.718 583.531L273.902 584.75L273.337 584.75C272.383 572.803 272.076 561.855 274.237 549.994C277.908 527.488 290.216 506.542 308.189 492.406Z"/>
	<defs>
		<linearGradient id="gradient_3" gradientUnits="userSpaceOnUse" x1="568.54785" y1="574.2865" x2="465.98364" y2="49.224667">
			<stop offset="0" stop-color="#FCD67D"/>
			<stop offset="1" stop-color="#FBEDAC"/>
		</linearGradient>
	</defs>
	<path fill="url(#gradient_3)" transform="scale(0.488281 0.488281)" d="M390.433 156.982C390.41 126.78 397.159 96.8569 411.459 70.08C413.693 65.8974 416.585 61.9507 419.008 57.8499C425.181 68.658 431.289 78.7812 440.015 87.808C446.282 94.2903 453.342 100.004 459.3 106.785L484.372 133.553L499.714 155.535L505.418 168.295C505.775 168.095 514.817 149.773 515.814 147.902L543.066 111.937C549.659 104.658 555.22 98.1509 560.084 89.5995C568.087 98.3938 576.044 106.961 582.453 117.035C588.951 127.887 594.282 139.216 598.539 151.125L604.05 168.141L608.639 191.339C610.088 200.421 610.438 209.516 610.908 218.683L610.926 225.262C610.894 226.475 610.967 227.551 611.154 228.75C612.535 228.161 614.033 225.891 615.051 224.716C617.944 221.375 620.836 218.027 624.166 215.106C632.467 207.825 642.21 202.791 651.985 197.846L657.077 195.712L685.124 188.169L700.717 186.828L702.57 196.011L702.143 214.776C707.726 210.978 713.549 208.024 720 205.983C723.116 204.997 726.445 204.461 729.497 203.33C747.572 198.837 767.955 191.432 779.598 176.124C783.885 196.894 783.931 219.752 779.828 240.59C777.91 250.333 774.93 259.606 771.678 268.967C766.897 280.85 760.693 291.857 752.589 301.803C746.843 307.432 741.147 311.973 734.632 316.669C737.832 317.465 743.162 318.081 745.971 319.696L760.462 324.868C772.571 329.964 783.123 337.944 795.405 342.779C798.182 343.872 801.861 345.437 804.835 345.503L808.355 346.25L807.995 346.818L807.356 346.934C801.861 348 797.069 351.513 792.75 354.917C785.965 360.265 779.784 366.393 773.924 372.731C766.31 380.696 758.038 387.732 749 394.044L736.437 402.045C725.552 407.605 714.728 411.246 702.943 414.347L712.987 420.523C714.58 421.785 726.477 431.13 727.04 431.162L758.339 460.715C754.854 464.254 750.385 466.573 746.687 469.83C742.363 472.957 737.666 475.455 733 478.025C723 483.533 712.608 488.185 701.5 490.987C694.399 492.779 687.509 493.64 680.274 494.537C671.035 494.719 660.584 494.906 651.686 492.111L663.751 519.353L670.334 543.716L641.057 538.539C644.422 557.83 644.603 575.501 640.002 594.63C638.603 600.447 636.279 606.135 635.094 611.964L615.176 653.418L612.628 658.333C611.355 654.096 609.98 650.006 608.098 645.997C604.956 640.071 601.898 634.336 597.964 628.875C586.271 612.798 570.238 599.715 555.85 586.157C550.364 580.987 545.304 575.49 540.267 569.886L537.71 566.395L532.155 575.658C530.706 577.556 528.417 581.909 526.5 583.042C525.28 582.741 524.459 582.044 523.479 581.303C522.062 579.485 520.012 577.827 518.357 576.196L509.044 567.329C505.089 575.487 500.951 583.932 496.046 591.553C481.119 614.743 460.479 633.232 434.156 642.297L433.501 642.519C425.915 644.637 416.342 646.967 408.459 646.909C407.384 646.768 407.844 646.992 407.071 646.25C409.13 642.516 410.983 638.591 411.844 634.395C412.898 629.446 412.87 623.748 412.778 618.694C412.366 596.085 404.159 575.133 402.425 552.689L388.5 557.472L387.627 556.98L387.234 552.649L386.139 540.019C385.911 528.482 386.839 517.448 388.268 506.004L392.804 488.86L380.421 492.074C374.822 492.836 369.177 493.914 363.542 494.314C344.971 495.633 326.648 494.346 308.189 492.406L278.91 491.516C280.73 487.075 282.863 482.739 285.453 478.698L306.353 450.09L324.335 431.759L335.493 422.676L319.523 416.853C307.033 410.89 295.185 404.345 283.731 396.56C276.943 391.946 270.473 386.5 263.429 382.327L238.312 362.048C243.229 356.472 250.211 352.18 256.442 348.233C269.548 340.704 282.204 334.446 296.942 330.754C301.578 329.415 306.66 329.313 311.449 328.942L303.509 315.57C302.722 314.062 302.027 312.667 300.87 311.409C296.696 302.457 289.265 295.382 284.672 286.562C307.281 285.1 332.024 286.632 353.5 294.136L354.195 293.75L352.743 291.401L341.804 272.526L333.972 252.576C332.468 245.354 330.038 238.398 329.516 230.996C328.882 224.11 327.446 217.394 326.556 210.549C325.411 201.749 324.971 193.208 324.869 184.348C329.854 186.483 335.719 187.478 340.994 188.689L359.105 192.212L371.557 195.794L391.821 204.246C402.876 209.191 412.788 217.439 421.553 225.651C419.608 220.192 418.451 214.812 417.654 209.079C417.131 205.317 417.277 200.8 415.876 197.286L415.936 183.669C413.861 182.529 412.082 179.297 410.618 177.389L399.668 165.148C398.923 163.976 397.917 162.989 396.98 161.969C394.841 161.566 392.097 158.498 390.433 156.982Z"/>
	<path fill="#EF2358" transform="scale(0.488281 0.488281)" d="M634.693 466.172L635.535 465.841C640.854 468.179 646.392 469.581 652 471.03C671.594 476.09 694.438 477.661 714.508 474.803C718.088 474.294 721.647 473.941 725.166 473.069L732.699 470.803C733.33 470.622 734.693 470.036 735.242 470.091C735.706 470.137 736.085 470.487 736.506 470.686C712.35 484.733 685.01 492.035 657.041 488.219C655.415 487.997 650.238 487.607 648.98 486.767C648.704 486.582 647.969 485.158 647.778 484.856L643.996 478.98L634.693 466.172Z"/>
	<path fill="#EF2358" transform="scale(0.488281 0.488281)" d="M299.537 486.884C301.484 485.424 304.555 485.041 306.928 484.529L325.198 481.077L366.527 472.346L395 465.017C399.667 463.684 404.23 461.818 408.929 460.707C405.008 465.974 401.37 471.171 398.327 477.016C397.578 478.455 395.796 483.522 394.775 484.345C394.077 484.908 382.654 486.261 381 486.504C369.111 488.246 356.737 489.402 344.708 489.443C329.639 489.493 314.536 488.158 299.537 486.884Z"/>
	<path fill="#EF2358" transform="scale(0.488281 0.488281)" d="M381.127 397.336L391.374 401.131C373.913 403.241 359.168 409.614 343.834 417.929C332.291 414.523 321.068 410.603 310.249 405.305C292.999 396.857 276.404 385.372 261.226 373.633C257.869 371.037 251.564 367.16 249.406 363.765L250.345 362.974C252.21 364.515 254.78 365.083 257 365.983L272.469 372.369L308.991 386.853C327.603 394.13 346.75 401.145 366.85 402.891C370.437 403.202 374.148 402.869 377.753 402.875L378.5 402.255C379.556 402.341 379.594 402.445 380.502 402.002C381.216 401.655 382.126 401.758 382.875 401.875C384.215 400.926 384.699 401.868 386 401L387.5 400.877L387.5 400.499L386.72 400.353C385.764 400.148 385.134 399.876 384.257 399.473C382.823 398.814 381.918 398.736 381.127 397.336Z"/>
	<path fill="#EF2358" transform="scale(0.488281 0.488281)" d="M711.848 283.232L713.75 283.107C714.314 285.096 712.869 289.157 712.331 291.156C708.483 305.458 703.116 319.577 695.864 332.514C676.713 366.675 648.317 392.466 612.462 408.217C617.812 399.493 623.112 390.674 626.766 381.075C627.481 381.039 628.049 380.967 628.665 380.565C654.703 363.585 678.5 340.395 696.711 315.247C700.216 310.408 704.017 305.431 706.75 300.11C709.406 294.94 710.586 288.871 711.848 283.232Z"/>
	<path fill="#EF2358" transform="scale(0.488281 0.488281)" d="M486.204 367.909C493.818 359.475 502.702 353.628 514.223 352.35C527.901 350.834 537.188 355.86 547.551 364.131C534.58 379.097 525.034 395.315 518.934 414.188C512.751 395.296 500.043 381.602 486.204 367.909Z"/>
	<path fill="#F84A7F" transform="scale(0.488281 0.488281)" d="M453.873 344.337L443.966 337.54C443.887 324.756 448.275 311.449 455.759 301.047C466.599 285.98 482.85 274.69 501.25 271.361C516.137 268.668 532.439 270.24 545.755 277.622C561.324 286.252 572.818 299.172 579.446 315.717C581.664 321.253 583.106 327.027 584.76 332.746L571.954 341.852C571.97 338.042 572.168 334.044 571.666 330.267C569.931 317.202 563.995 305.626 554.708 296.327C543.336 284.94 529.497 279.397 513.442 279.416C497.505 279.436 483.486 285.827 472.25 297.073C460.319 309.015 453.92 326.941 453.858 343.656L453.873 344.337Z"/>
	<path fill="#F8739E" transform="scale(0.488281 0.488281)" d="M524.329 573.054C520.771 570.612 517.62 566.841 514.705 563.671C504.06 552.097 493.123 538.336 486.493 523.988C485.735 522.348 480.296 509.013 480.565 508.407C481.086 507.233 483.565 505.143 484.504 504.114L493.695 493.406C504.854 479.741 512.013 465.978 518.076 449.5L518.75 449.197L519.356 451.929C518.681 463.812 516.043 475.486 514.842 487.338C513.101 504.514 513.207 522.384 516.25 539.395C518.26 550.632 521.615 561.946 524.329 573.054Z"/>
	<path fill="#F8739E" transform="scale(0.488281 0.488281)" d="M407.271 101.843L418.952 73.3466C421.691 82.7871 427.767 92.011 434.45 99.1955L428.023 117.894C421.258 139.243 416.272 161.169 415.936 183.669C413.861 182.529 412.082 179.297 410.618 177.389L399.668 165.148C398.923 163.976 397.917 162.989 396.98 161.969C396.996 152.692 397.106 143.444 398.512 134.25C400.2 123.208 403.537 112.343 407.271 101.843Z"/>
	<path fill="#F84A7F" transform="scale(0.488281 0.488281)" d="M407.271 101.843C407.958 106.902 407.006 112.556 406.753 117.669C406.339 126.038 406.184 134.656 406.536 143.03C407.021 154.562 410.229 165.855 410.618 177.389L399.668 165.148C398.923 163.976 397.917 162.989 396.98 161.969C396.996 152.692 397.106 143.444 398.512 134.25C400.2 123.208 403.537 112.343 407.271 101.843Z"/>
	<path fill="#EF2358" transform="scale(0.488281 0.488281)" d="M498.462 442.566L499.062 442.527L517.398 439.959C505.052 470.074 486.435 494.519 461.387 515.059C449.167 525.079 436.812 533.277 422.111 539.43L393.023 549.996L392.836 549.296L393.507 548.181C397.688 545.741 401.492 542.468 405.519 539.745C438.088 517.723 465.924 490.818 488.297 458.401L494.934 448.5C496.251 446.554 497.67 444.81 498.462 442.566Z"/>
	<path fill="#F8739E" transform="scale(0.488281 0.488281)" d="M698.894 241.087L700.524 225.919C705.261 222.972 709.906 219.928 715 217.619C726.272 212.509 738.726 209.839 750.44 205.883C756.999 203.668 763.114 200.718 769.524 198.185C766.33 204.652 762.708 211.204 758.384 216.982C750.184 227.943 740.712 237.584 731.056 247.235C721.864 256.422 712.543 265.731 701.658 272.937C698.976 274.713 695.971 277.001 692.925 278.044C692.159 278.306 691.406 278.497 690.598 278.568L696.803 252.143L698.894 241.087Z"/>
	<path fill="#EF2358" transform="scale(0.488281 0.488281)" d="M698.894 241.087L699.362 240.85C702.353 239.286 704.842 236.878 707.639 234.979C715.516 229.633 723.921 224.842 733.022 221.907C734.35 221.479 737.247 220.303 738.525 220.462C731.286 224.088 723.989 227.769 717.437 232.559C709.732 238.191 703.192 245.107 696.803 252.143L698.894 241.087Z"/>
	<path fill="#EF2358" transform="scale(0.488281 0.488281)" d="M513.615 438.003L508.327 438.111C481.721 438.082 456.407 432.461 437.066 412.892C414.382 389.941 404.699 358.411 405.165 326.607C405.204 324.009 404.79 316.603 406.531 314.924C408.328 318.257 410.3 321.425 412.782 324.299C413.046 329.035 415.698 333.403 417.541 337.708C425.696 356.764 435.931 374.055 447.569 391.153C453.984 400.577 460.432 409.901 469 417.538C473.05 421.148 477.679 424.782 482.447 427.379C492.308 432.749 502.918 435.035 513.615 438.003Z"/>
	<path fill="#EF2358" transform="scale(0.488281 0.488281)" d="M481.574 221.866L481.041 220.646C474.815 205.109 471.891 188.137 467.544 172L448.595 104.498C448.227 103.185 448.089 102.648 448.624 101.382C463.3 116.864 477.999 133.364 488.913 151.765C494.133 160.565 498.412 170.283 501.916 179.883C499.053 191.535 496 204.36 495.399 216.347C489.445 216.419 485.954 217.786 481.574 221.866Z"/>
	<path fill="#F84A7F" transform="scale(0.488281 0.488281)" d="M512.618 237.08C515.319 236.77 518.393 236.573 521.078 237.167C527.621 238.617 530.627 242.486 534.114 247.794C537.401 244.086 540.836 241.733 545.937 241.309C551.025 240.885 557.085 242.787 560.963 246.141C566.343 250.793 567.639 256.274 568.038 263.053C571.126 262.387 574.388 261.657 577.55 262.171C582.996 263.055 588.031 266.045 591.274 270.503C593.499 273.561 595.396 277.935 595.098 281.79C594.979 283.318 594.317 284.734 594.064 286.25C599.807 287.33 603.94 289.946 607.356 294.704C611.064 299.871 611.718 306.947 610.552 313.04L609.793 316.987L594.984 324.998L600.048 316.997C602.352 312.414 602.696 307.355 601.049 302.484C599.698 298.488 597.098 295.064 593.181 293.314C588.274 291.123 583.905 293.432 579.4 295.313C582.854 292.455 586.406 289.378 586.837 284.59C587.209 280.465 585.235 275.832 582.507 272.784C579.835 269.8 576.218 268.311 572.25 268.153C564.671 267.852 559.257 274.672 554.057 279.267L555.321 277.533C558.422 273.255 561.785 269.339 560.783 263.661L560.655 263L560.231 260.939C559.367 257.889 557.027 255.004 554.25 253.478C550.224 251.265 545.223 250.676 540.834 252.14C533.886 254.456 532.291 260.292 529.478 266.197C529.871 260.259 531.728 256.704 527.837 251.184C525.519 247.895 521.979 245.098 517.922 244.457C513.968 243.832 510.658 244.799 507.42 247.053L506.914 247.414C505.039 249.089 503.523 251.305 502.573 253.628L502.299 254.326C501.012 257.472 501.27 261.738 501.67 265.095L501.755 265.75L498.354 257.491C496.392 253.917 492.076 251.388 488.201 250.47C484.217 249.527 479.996 250.252 476.563 252.502C473.047 254.805 470.702 257.849 469.887 262.002C468.691 268.098 470.941 272.338 474.22 277.222C469.955 273.34 465.828 269.004 459.938 267.82C456.261 267.082 452.385 268.174 449.308 270.25C445.964 272.506 443.307 276.121 442.448 280.07L442.305 280.75C442.059 281.712 441.924 281.703 441.968 282.714C442.235 288.913 448.336 293.598 452.521 297.365C450.063 295.998 447.602 294.539 444.881 293.756C440.699 292.552 436.376 292.933 432.621 295.191C429.066 297.329 426.509 300.939 425.608 304.978C424.776 308.708 425.387 312.752 427.581 315.929C429.485 318.686 432.261 319.903 435.478 320.567C436.686 320.817 437.78 321.251 438.928 321.691L438.75 322.061C432.082 319.896 427.461 321.096 421.147 323.464C418.682 321.47 415.928 319.077 414.868 316L415.334 315.283L418.5 314.934C418.737 314.706 419.052 314.538 419.212 314.25C419.419 313.876 418.615 309.089 418.587 308.25C418.48 305.008 419.433 301.348 420.807 298.441C423.61 292.514 428.446 289.443 434.341 287.195L434.769 282.896C435.342 276.366 436.884 271.055 442.159 266.814C448.561 261.666 455.38 260.558 463.29 261.542C464.131 256.406 464.933 251.227 468.941 247.511C474.056 242.768 479.893 241.038 486.75 241.504C491.844 241.85 494.514 243.962 497.66 247.653C501.653 241.782 505.646 238.565 512.618 237.08Z"/>
	<path fill="#F84A7F" transform="scale(0.488281 0.488281)" d="M481.002 441.421L498.462 442.566C497.67 444.81 496.251 446.554 494.934 448.5L488.297 458.401C465.924 490.818 438.088 517.723 405.519 539.745C401.492 542.468 397.688 545.741 393.507 548.181C395.276 543.413 397.85 539.052 400.16 534.528C404.334 526.353 408.654 518.544 414.039 511.08C426.394 493.957 442.433 478.763 457.317 463.846C463.997 457.152 470.81 449.063 478.313 443.454L481.002 441.421Z"/>
	<path fill="#F8739E" transform="scale(0.488281 0.488281)" d="M600.101 421.37C601.532 420.029 604.696 416.352 606.475 416.223C613.652 415.7 620.557 412.546 627.025 409.54C629.747 408.275 632.752 406.497 635.655 405.733C639.228 404.793 645.26 405.453 648.992 405.785C677.121 408.286 700.677 424.15 721.581 441.957L745.062 464.345C740.101 464.708 735.897 463.65 731.157 462.301C716.693 458.185 703.928 449.923 690.505 443.379C683.114 439.775 675.482 436.56 667.737 433.8C653.632 428.772 638.789 426.181 624.024 424.032C616.007 422.865 608.207 421.62 600.101 421.37Z"/>
	<path fill="#F84333" transform="scale(0.488281 0.488281)" d="M679.11 369.881C686.824 360.178 694.002 350.713 700.197 339.925C702.119 336.578 704.045 333.181 705.696 329.69C706.66 327.653 707.413 325.336 708.679 323.473C728.571 324.608 745.889 328.165 763.738 337.341C771.407 341.285 778.655 345.83 786.696 349.012L784.369 351.531C781.885 350.45 767.945 354.134 764.25 354.889L714.814 364.796L679.11 369.881Z"/>
	<path fill="#F8739E" transform="scale(0.488281 0.488281)" d="M393.023 549.996C392.546 550.202 392.879 550.103 391.979 550C391.751 538.393 393.53 526.696 395.525 515.289C399.783 490.949 410.325 467.726 431.089 453.289C440.251 446.919 450.727 442.013 460.386 436.409C460.724 436.212 461.011 435.779 461.401 435.819C463.433 436.026 466.962 438.19 469.189 438.871C473.056 440.054 477.028 440.712 481.002 441.421L478.313 443.454C470.81 449.063 463.997 457.152 457.317 463.846C442.433 478.763 426.394 493.957 414.039 511.08C408.654 518.544 404.334 526.353 400.16 534.528C397.85 539.052 395.276 543.413 393.507 548.181L392.836 549.296L393.023 549.996Z"/>
	<path fill="#EF2358" transform="scale(0.488281 0.488281)" d="M519.356 451.929L519.477 452.418C524.822 473.213 538.637 493.694 554.675 507.827C550.951 523.702 546.201 538.845 538.519 553.304C534.682 560.528 530.03 567.31 525.714 574.25L525.031 574.25L524.329 573.054C521.615 561.946 518.26 550.632 516.25 539.395C513.207 522.384 513.101 504.514 514.842 487.338C516.043 475.486 518.681 463.812 519.356 451.929Z"/>
	<path fill="#EF2358" transform="scale(0.488281 0.488281)" d="M307.118 308.061C308.334 308.147 308.981 308.373 310.039 308.958C314.323 311.324 318.798 313.178 323.001 315.75C341.569 327.111 358.871 341.637 374.873 356.297L403.36 384.562C405.554 386.754 410.802 393.283 413.542 393.87L414.24 394.04C415.319 395.705 420.305 401.165 420.418 402.408C416.357 401.489 412.245 400.567 408.087 400.225C404.246 399.909 399.98 400.622 396.308 399.368C385.194 395.575 375.05 391.02 365.487 384.075C339.797 365.42 323.539 334.466 307.118 308.061Z"/>
	<path fill="#F8739E" transform="scale(0.488281 0.488281)" d="M296.675 472.99C300.659 467.301 305.518 462.254 310.275 457.214C331.771 434.437 358.852 414.689 390.25 409.163C400.075 407.434 409.153 406.766 419 408.487C420.543 408.757 422.848 408.857 424.272 409.428C424.982 409.712 426.67 411.859 427.285 412.474L435.511 420.291C439.924 424.168 444.752 427.509 449.539 430.901C445.017 432.611 439.015 431.528 434.169 431.436C426.527 431.291 418.87 431.053 411.238 431.585C396.947 432.582 382.229 435.569 368.516 439.75C350.934 445.109 333.193 452.146 317.183 461.196L305.29 468.353C302.928 469.87 299.524 472.882 296.675 472.99Z"/>
	<path fill="#F8739E" transform="scale(0.488281 0.488281)" d="M576.657 347.448C591.952 336.693 606.83 326.033 623.62 317.646C622.649 321.486 619.927 324.261 617.684 327.447L602.052 348.555L571.281 389.167C565.283 396.569 559.069 403.822 552.426 410.656C547.208 416.024 541.542 421.164 535.861 426.04C532.182 429.197 526.796 432.132 524.044 436.012L521.74 437.278L522.38 437.601L521.5 437.874L520.75 437.258C525.382 415.173 533.046 394.706 547.169 376.783C555.702 365.954 566.266 356.454 576.657 347.448Z"/>
	<path fill="#F84333" transform="scale(0.488281 0.488281)" d="M334.014 195.359C363.235 201.515 391.76 209.383 414.091 230.423C421.481 237.385 427.727 245.547 435.003 252.654C431.089 254.638 427.495 256.86 425.949 261.229C424.477 265.388 424.639 269.633 425.172 273.934C425.698 274.688 426.155 275.352 426.812 276C425.983 276.252 425.406 276.113 424.543 276.057C422.137 275.899 420.007 276.307 417.667 276.845C416.454 275.881 415.197 276.029 413.719 275.985L413 275.968C408.247 272.537 404.187 267.552 400.072 263.36L376.627 239.5L337.622 200.606C336.099 198.967 334.78 197.505 334.014 195.359Z"/>
	<path fill="#EF2358" transform="scale(0.488281 0.488281)" d="M622.356 286.682C627.241 283.827 631.835 277.087 635.625 272.767L677.057 222.468L687.474 208.406C689.805 205.259 692.026 201.875 695.045 199.349C693.988 219.912 691.54 240.605 686.857 260.671C685.164 267.925 683.468 275.418 680.786 282.374C666.659 286.26 652.987 291.895 640.324 299.314C637.684 300.861 633.407 303.111 631.747 305.707L630.511 305.96L628.75 306.604C628.365 305.705 627.981 305.043 627.373 304.279C625.558 302 623.019 300.708 620.167 300.371L619.671 300.32C620.83 295.62 622.715 292.691 622.412 287.563L622.356 286.682Z"/>
	<path fill="#F8739E" transform="scale(0.488281 0.488281)" d="M561.588 439.167L579.409 433.281L579.741 433.556C583.096 436.222 587.685 438.035 591.511 439.996C596.178 442.389 600.614 445.08 604.883 448.135C620.689 459.448 634.912 474.816 644.591 491.655C649.09 499.482 652.671 508.151 656.079 516.5C658.556 522.567 661.673 529.147 663.121 535.5L662.5 536.241C661.137 536.078 659.921 536.002 658.64 535.478L659.351 534.518C658.252 533.932 657.688 533.183 656.918 532.25C653.662 528.309 648.487 525.289 644.447 522.13C621.735 504.369 598.905 485.208 580.057 463.314L566.569 446.433C564.961 444.279 563.666 441.652 561.988 439.623L561.588 439.167Z"/>
	<path fill="#F84A7F" transform="scale(0.488281 0.488281)" d="M307.118 308.061L297.485 294.809C323.423 295.348 348.391 298.206 371.232 311.431C381.046 317.113 389.571 324.029 398.161 331.348C397.628 353.899 403.315 374.321 414.24 394.04L413.542 393.87C410.802 393.283 405.554 386.754 403.36 384.562L374.873 356.297C358.871 341.637 341.569 327.111 323.001 315.75C318.798 313.178 314.323 311.324 310.039 308.958C308.981 308.373 308.334 308.147 307.118 308.061Z"/>
	<path fill="#EF2358" transform="scale(0.488281 0.488281)" d="M555.418 109.086C555.598 109.477 555.942 109.829 555.957 110.259C556.002 111.533 555.235 113.633 555.05 115L553.274 131.434L549.365 185.707L547.766 213.544C547.594 219.246 547.348 224.999 548.438 230.631L546.162 234.726C546.035 232.585 545.932 230.301 545.394 228.216C544.199 223.589 540.796 218.848 536.672 216.479C533.385 214.591 529.065 213.795 525.335 214.8L524.75 214.972C522.173 215.707 519.801 216.745 517.739 218.502C511.558 223.768 512.485 229.851 512.087 237.002C510.768 232.818 509.911 227.604 507.456 223.964C505.647 221.28 503.022 219.432 500.37 217.669C501.602 211.407 502.455 205.216 504.02 199C508.599 180.816 516.172 162.723 526.275 146.922C534.753 133.665 545.373 121.204 555.418 109.086Z"/>
	<path fill="#F84333" transform="scale(0.488281 0.488281)" d="M603.455 250.646C607.217 244.24 610.888 237.921 615.751 232.264C635.889 208.833 664.258 197.974 694.5 195.622L695.119 196.25L695.045 199.349C692.026 201.875 689.805 205.259 687.474 208.406L677.057 222.468L635.625 272.767C631.835 277.087 627.241 283.827 622.356 286.682L621.564 284.5C620.351 281.131 618.842 278.558 616.015 276.25C613.244 273.987 608.637 272.303 605.066 272.62C604.218 272.695 603.985 272.848 603.195 272.5C605.025 270.175 607.03 267.227 607.48 264.25C608.261 259.09 606.515 254.723 603.455 250.646Z"/>
	<path fill="#F84A7F" transform="scale(0.488281 0.488281)" d="M626.766 381.075C634.44 358.212 638.021 335.337 634.044 311.37C647.183 303.379 662.399 296.335 677.168 291.958L711.848 283.232C710.586 288.871 709.406 294.94 706.75 300.11C704.017 305.431 700.216 310.408 696.711 315.247C678.5 340.395 654.703 363.585 628.665 380.565C628.049 380.967 627.481 381.039 626.766 381.075Z"/>
	<path fill="#F84A7F" transform="scale(0.488281 0.488281)" d="M296.675 472.99C299.524 472.882 302.928 469.87 305.29 468.353L317.183 461.196C333.193 452.146 350.934 445.109 368.516 439.75C382.229 435.569 396.947 432.582 411.238 431.585C418.87 431.053 426.527 431.291 434.169 431.436C439.015 431.528 445.017 432.611 449.539 430.901L450.61 431.756C447.695 433.8 444.063 435.257 440.897 436.925C434.039 440.538 427.145 444.28 420.892 448.882C417.774 451.177 415.007 454.082 412.389 456.921C411.643 457.731 409.835 460.32 408.929 460.707C404.23 461.818 399.667 463.684 395 465.017L366.527 472.346L325.198 481.077L306.928 484.529C304.555 485.041 301.484 485.424 299.537 486.884L286.508 486.509L296.675 472.99Z"/>
	<path fill="#EF2358" transform="scale(0.488281 0.488281)" d="M769.524 198.185C770.747 197.171 773.094 194.638 774.548 194.359C777.198 230.86 770.019 272.926 745.32 301.395C740.698 306.722 735.406 311.186 730.052 315.741C727.661 315.893 725.032 315.212 722.648 314.922L712.577 314.135C717.819 300.826 722.191 285.998 721.224 271.55C711.754 276.724 701.736 277.715 691.267 279.643C691.031 279.293 690.783 278.947 690.598 278.568C691.406 278.497 692.159 278.306 692.925 278.044C695.971 277.001 698.976 274.713 701.658 272.937C712.543 265.731 721.864 256.422 731.056 247.235C740.712 237.584 750.184 227.943 758.384 216.982C762.708 211.204 766.33 204.652 769.524 198.185Z"/>
	<path fill="#F84333" transform="scale(0.488281 0.488281)" d="M250.345 362.974C266.998 347.268 292.404 337.406 315.075 335.793C327.721 353.708 340.368 371.089 358.294 384.201C362.201 387.059 366.29 389.582 370.53 391.915L378.464 395.929C379.102 396.245 380.727 396.844 381.127 397.336C381.918 398.736 382.823 398.814 384.257 399.473C385.134 399.876 385.764 400.148 386.72 400.353L387.5 400.499L387.5 400.877L386 401C384.699 401.868 384.215 400.926 382.875 401.875C382.126 401.758 381.216 401.655 380.502 402.002C379.594 402.445 379.556 402.341 378.5 402.255L377.753 402.875C374.148 402.869 370.437 403.202 366.85 402.891C346.75 401.145 327.603 394.13 308.991 386.853L272.469 372.369L257 365.983C254.78 365.083 252.21 364.515 250.345 362.974Z"/>
	<path fill="#F84A7F" transform="scale(0.488281 0.488281)" d="M412.782 324.299C425.535 336.012 440.663 345.352 455.337 354.468L456.136 355.098L475.089 368.749C493.434 383.373 508.013 400.711 514.286 423.75C515.335 427.604 516.654 432.027 516.985 436C517.037 436.627 516.969 437.131 516.884 437.75C515.723 437.999 514.8 438.074 513.615 438.003C502.918 435.035 492.308 432.749 482.447 427.379C477.679 424.782 473.05 421.148 469 417.538C460.432 409.901 453.984 400.577 447.569 391.153C435.931 374.055 425.696 356.764 417.541 337.708C415.698 333.403 413.046 329.035 412.782 324.299Z"/>
	<path fill="#EF2358" transform="scale(0.488281 0.488281)" d="M679.11 369.881L714.814 364.796L764.25 354.889C767.945 354.134 781.885 350.45 784.369 351.531C779.474 357.814 775.014 364.904 769.612 370.713C756.549 384.76 739.924 396.186 722.297 403.709C715.801 406.481 709.443 408.896 702.38 409.771C698.479 410.254 693.978 411.096 690.25 409.741C678.621 405.514 666.632 402.602 654.286 401.653C650.311 401.348 646.073 401.92 642.172 401.352C655.893 392.032 667.887 382.171 679.11 369.881Z"/>
	<path fill="#EF2358" transform="scale(0.488281 0.488281)" d="M630.379 313.056C631.359 320.304 630.578 328.765 629.703 336.012C627.416 354.942 623.53 372.803 614.861 389.933C612.542 394.516 610.13 399.13 607.015 403.231C604.158 406.992 600.929 411.063 597.441 414.258C582.233 428.188 562.775 433.648 542.755 436.235L522.38 437.601L521.74 437.278L524.044 436.012C526.796 432.132 532.182 429.197 535.861 426.04C541.542 421.164 547.208 416.024 552.426 410.656C559.069 403.822 565.283 396.569 571.281 389.167L602.052 348.555L617.684 327.447C619.927 324.261 622.649 321.486 623.62 317.646L628.502 314.646L630.379 313.056Z"/>
	<path fill="#F84A7F" transform="scale(0.488281 0.488281)" d="M623.62 317.646L628.502 314.646C625.081 327.81 619.729 340.2 613.768 352.393C603.34 373.725 590.585 393.957 573.185 410.288C567.507 415.616 561.36 420.86 554.646 424.852C546.095 429.938 534.186 435.883 524.044 436.012C526.796 432.132 532.182 429.197 535.861 426.04C541.542 421.164 547.208 416.024 552.426 410.656C559.069 403.822 565.283 396.569 571.281 389.167L602.052 348.555L617.684 327.447C619.927 324.261 622.649 321.486 623.62 317.646Z"/>
	<path fill="#F84A7F" transform="scale(0.488281 0.488281)" d="M600.101 421.37C608.207 421.62 616.007 422.865 624.024 424.032C638.789 426.181 653.632 428.772 667.737 433.8C675.482 436.56 683.114 439.775 690.505 443.379C703.928 449.923 716.693 458.185 731.157 462.301C735.897 463.65 740.101 464.708 745.062 464.345L745.868 465.381C742.977 467.406 739.671 469.124 736.506 470.686C736.085 470.487 735.706 470.137 735.242 470.091C734.693 470.036 733.33 470.622 732.699 470.803L725.166 473.069C721.647 473.941 718.088 474.294 714.508 474.803C694.438 477.661 671.594 476.09 652 471.03C646.392 469.581 640.854 468.179 635.535 465.841L634.693 466.172C634.02 465.808 633.103 464.424 632.537 463.821L625.341 456.536L615.348 447.679C606.315 440.242 596.761 435.353 586.747 429.574C591.654 427.287 595.741 424.576 600.101 421.37Z"/>
	<path fill="#EF2358" transform="scale(0.488281 0.488281)" d="M401.124 311.609L398.97 322.15C393.275 316.178 386.92 310.688 379.865 306.386C376.57 304.377 372.692 302.632 369.594 300.376C367.899 299.141 366.495 296.329 365.25 294.629C362.942 291.479 360.384 288.523 358.241 285.249C351.175 274.455 345.586 261.957 341.813 249.623C337.336 234.989 334.316 220.473 332.226 205.32C331.861 202.676 330.59 197.193 331.75 195.015L334.014 195.359C334.78 197.505 336.099 198.967 337.622 200.606L376.627 239.5L400.072 263.36C404.187 267.552 408.247 272.537 413 275.968L413.719 275.985C415.197 276.029 416.454 275.881 417.667 276.845C413.22 278.643 409.806 280.6 407.803 285.245C406.047 289.316 406.658 293.339 408.369 297.303C409.003 298.77 409.741 300.047 410.75 301.287L410.316 301.35C407.581 301.799 405.285 303.372 403.631 305.591C402.319 307.35 401.723 309.532 401.124 311.609Z"/>
	<path fill="#EF2358" transform="scale(0.488281 0.488281)" d="M561.588 439.167L561.988 439.623C563.666 441.652 564.961 444.279 566.569 446.433L580.057 463.314C598.905 485.208 621.735 504.369 644.447 522.13C648.487 525.289 653.662 528.309 656.918 532.25C657.688 533.183 658.252 533.932 659.351 534.518L658.64 535.478L658.078 535.458C652.397 535.483 646.216 533.147 640.582 532.247C630.806 530.686 620.916 529.724 611.25 527.511C597.281 524.314 584.244 519.043 572.177 511.304C546.837 495.054 527.645 470.623 521.143 440.871L545.111 441.303L561.588 439.167Z"/>
	<path fill="#F84A7F" transform="scale(0.488281 0.488281)" d="M561.588 439.167L561.988 439.623C563.666 441.652 564.961 444.279 566.569 446.433L580.057 463.314C598.905 485.208 621.735 504.369 644.447 522.13C648.487 525.289 653.662 528.309 656.918 532.25C657.688 533.183 658.252 533.932 659.351 534.518L658.64 535.478L658.078 535.458C657.327 534.44 657.343 534.378 656.16 534.01C648.407 531.605 641.417 528.226 633.965 525.12C608.552 514.527 584.007 502.838 567.046 480.149C562.233 473.71 557.55 466.537 553.819 459.403L545.111 441.303L561.588 439.167Z"/>
	<path fill="#F84333" transform="scale(0.488281 0.488281)" d="M555.418 109.086L560.249 103.122C573.762 119.973 585.141 138.985 592.07 159.5C598.483 178.489 600.999 199.267 601.433 219.25L600.803 247.984C597.983 245.832 595.486 244.398 591.912 243.74C585.937 242.639 581.7 245.607 577.129 248.888C577.578 246.777 578.3 244.634 578.429 242.475C578.702 237.91 576.317 232.363 573.25 229.053C570.127 225.683 565.606 223.604 561 223.571C555.414 223.532 552.057 226.924 548.438 230.631C547.348 224.999 547.594 219.246 547.766 213.544L549.365 185.707L553.274 131.434L555.05 115C555.235 113.633 556.002 111.533 555.957 110.259C555.942 109.829 555.598 109.477 555.418 109.086Z"/>
	<path fill="#F84333" transform="scale(0.488281 0.488281)" d="M443.372 251.457C440.849 248.815 438.815 245.374 436.527 242.489C434.21 239.566 430.961 236.606 429.143 233.383C426.151 228.077 425.163 218.573 424.325 212.5C419.877 180.239 425.503 150.36 435.261 119.668L443.636 95.4683L448.624 101.382C448.089 102.648 448.227 103.185 448.595 104.498L467.544 172C471.891 188.137 474.815 205.109 481.041 220.646L481.574 221.866L481.155 222.464C477.793 227.321 477.171 231.482 478.046 237.311L477.689 236.816C474.498 232.496 470.736 229.379 465.202 228.698C460.958 228.176 455.28 230.077 452.052 232.731C448.577 235.589 446.124 239.73 445.606 244.25C445.224 247.576 446.315 250.897 447.005 254.113L443.372 251.457Z"/>
	<path fill="#FDA74D" transform="scale(0.488281 0.488281)" d="M453.873 344.337L453.858 343.656C453.92 326.941 460.319 309.015 472.25 297.073C483.486 285.827 497.505 279.436 513.442 279.416C529.497 279.397 543.336 284.94 554.708 296.327C563.995 305.626 569.931 317.202 571.666 330.267C572.168 334.044 571.97 338.042 571.954 341.852L571.326 342.814C566.345 344.108 551.693 359.879 547.551 364.131C537.188 355.86 527.901 350.834 514.223 352.35C502.702 353.628 493.818 359.475 486.204 367.909C483.094 365.985 480.217 363.102 477.303 360.834L462.763 350.446C460.699 349.046 458.682 347.346 456.397 346.335L453.873 344.337Z"/>
	<path fill="#F84A7F" transform="scale(0.488281 0.488281)" d="M555.282 527.375C556.857 521.903 558.682 516.559 559.187 510.857C567.676 518.831 577.132 523.924 587.566 528.917L600.58 532.869L607.715 534.626L641.057 538.539C644.422 557.83 644.603 575.501 640.002 594.63C638.603 600.447 636.279 606.135 635.094 611.964L615.176 653.418L612.628 658.333C611.355 654.096 609.98 650.006 608.098 645.997C604.956 640.071 601.898 634.336 597.964 628.875C586.271 612.798 570.238 599.715 555.85 586.157C550.364 580.987 545.304 575.49 540.267 569.886L537.71 566.395C541.256 560.003 544.988 553.872 548.056 547.215C551.022 540.781 553.184 534.126 555.282 527.375Z"/>
	<path fill="#EF2358" transform="scale(0.488281 0.488281)" d="M555.282 527.375C557.374 530.338 558.521 534.52 560.234 537.844L569.504 554L586.387 581.945C595.159 597.115 602.989 613.494 607.105 630.577C608.331 635.667 609.609 641.004 609.25 646.255C608.914 646.165 608.441 645.974 608.098 645.997C604.956 640.071 601.898 634.336 597.964 628.875C586.271 612.798 570.238 599.715 555.85 586.157C550.364 580.987 545.304 575.49 540.267 569.886L537.71 566.395C541.256 560.003 544.988 553.872 548.056 547.215C551.022 540.781 553.184 534.126 555.282 527.375Z"/>
	<path fill="#F8739E" transform="scale(0.488281 0.488281)" d="M587.566 528.917L600.58 532.869L607.715 534.626L641.057 538.539C644.422 557.83 644.603 575.501 640.002 594.63C638.603 600.447 636.279 606.135 635.094 611.964L615.176 653.418C615.078 653.246 614.96 653.083 614.882 652.902C614.21 651.342 614.401 649.345 614.286 647.664L613.86 626.678C613.574 621.517 612.858 616.359 611.991 611.266C608.259 589.342 602.33 568.57 594.824 547.638L587.863 529.786L587.566 528.917Z"/>
	<path fill="#F84A7F" transform="scale(0.488281 0.488281)" d="M600.58 532.869L607.715 534.626C609.385 537.681 610.361 541.495 611.386 544.83C613.948 553.164 615.881 561.416 616.672 570.11L600.787 533.255L600.58 532.869Z"/>
	<path fill="#F8739E" transform="scale(0.488281 0.488281)" d="M454.079 530.712L472.5 515.907L473.25 516.106L474.1 517.775L475.343 521.759C478.02 527.197 480.723 532.663 484.036 537.75C488.9 545.22 494.768 551.962 500.722 558.569L509.044 567.329C505.089 575.487 500.951 583.932 496.046 591.553C481.119 614.743 460.479 633.232 434.156 642.297L433.501 642.519C425.915 644.637 416.342 646.967 408.459 646.909C407.384 646.768 407.844 646.992 407.071 646.25C409.13 642.516 410.983 638.591 411.844 634.395C412.898 629.446 412.87 623.748 412.778 618.694C412.366 596.085 404.159 575.133 402.425 552.689C404.534 551.419 407.725 550.759 410.095 550.026C415.418 548.378 420.721 546.823 425.923 544.808C435.93 540.932 444.67 535.719 454.079 530.712Z"/>
	<path fill="#F84A7F" transform="scale(0.488281 0.488281)" d="M454.079 530.712L472.5 515.907L473.25 516.106L474.1 517.775L473.72 518.041C472.468 518.941 472.053 519.454 471.375 520.867C463.302 537.696 451.798 552.452 444.446 569.743L436.89 589.238L432.048 604C431.221 606.417 430.457 609.369 429 611.458L428.713 611L428.87 610.439L435.547 580.583C438.021 570.575 440.879 560.261 444.691 550.67C447.409 543.83 450.867 537.319 454.079 530.712Z"/>
	<path fill="#F84A7F" transform="scale(0.488281 0.488281)" d="M422.944 638.857C424.875 636.317 427.339 634.117 429.459 631.725C433.797 626.829 437.936 621.657 441.536 616.189C453.422 598.141 458.787 577.978 465.093 557.587C468.762 545.721 472.709 533.912 475.343 521.759C478.02 527.197 480.723 532.663 484.036 537.75C488.9 545.22 494.768 551.962 500.722 558.569L509.044 567.329C505.089 575.487 500.951 583.932 496.046 591.553C481.119 614.743 460.479 633.232 434.156 642.297L433.501 642.519C425.915 644.637 416.342 646.967 408.459 646.909L422.944 638.857Z"/>
	<path fill="#EF2358" transform="scale(0.488281 0.488281)" d="M500.722 558.569L509.044 567.329C505.089 575.487 500.951 583.932 496.046 591.553C481.119 614.743 460.479 633.232 434.156 642.297L433.501 642.519C425.915 644.637 416.342 646.967 408.459 646.909L422.944 638.857C426.397 638.178 430.043 635.914 433.108 634.223C458.754 620.078 478.341 598.589 492.999 573.444C495.783 568.667 499.176 563.923 500.722 558.569Z"/>
</svg>
