<?xml version="1.0" encoding="utf-8" ?>
<svg xmlns="http://www.w3.org/2000/svg" xmlns:xlink="http://www.w3.org/1999/xlink" width="500" height="500">
	<path fill="#44B5D1" transform="scale(0.488281 0.488281)" d="M0 170.601L-0 -0L1024 0L1024 153.95L1024 418.753L1024 480.653L1024 1024L-0 1024L0 495.297L0 455.093L0 170.601Z"/>
	<path fill="#2794C9" transform="scale(0.488281 0.488281)" d="M945.949 526.502C947.705 533.597 948.716 538.177 944.75 544.829C939.582 553.497 929.128 558.779 919.739 561.56C918.906 561.806 914.629 562.628 914.171 563.047C913.119 564.007 912.03 567.636 911.25 569.119C906.479 578.193 898.199 585.766 888.045 588.159C883.388 589.257 878.399 588.027 874.42 585.478C871.436 583.568 869.608 580.33 866.647 578.647L869.067 576.582C878.74 571.188 888.012 564.93 897.189 558.747C901.315 555.968 906.116 553.299 909.748 549.914C910.946 548.345 912.842 547.407 914.5 546.381L936.107 532.696C939.249 530.637 942.493 527.884 945.949 526.502Z"/>
	<path fill="#F0AB88" transform="scale(0.488281 0.488281)" d="M502.277 380.457C515.532 376.662 528.098 370.204 541.5 366.96L542.189 366.788C545.285 366.083 549.278 367.095 552.382 367.594L568.479 370.203L627.097 379.293L649.79 382.9C654.256 383.593 658.958 384.675 663.477 384.61C669.757 386.497 675.153 391.593 679.977 395.861C697.464 411.331 711.388 429.869 724.186 449.299L754.157 499.735C765.149 520.112 775.191 541.269 782.115 563.395C783.179 566.796 784.789 570.704 785.321 574.218C786.168 577.337 788.306 582.684 787.939 585.749L773.103 596.052C770.687 597.76 767.605 599.559 765.604 601.716C763.171 604.338 761.765 609.603 760.417 612.9C756.615 622.202 752.545 631.6 749.385 641.133C756.315 648.008 761.076 656.971 762.554 666.676C763.111 668.69 763.833 669.875 762.822 671.839C760.443 676.459 755.939 681.523 752.466 685.413C748.896 690.762 743.329 697.173 736.727 698.463C734.504 698.897 732.309 698.948 730.063 698.652L711.096 701.332C719.302 707.976 725.403 714.97 726.521 725.902C727.453 735.029 724.32 744.415 718.38 751.402C713.759 756.839 707.717 761.24 700.411 761.941C692.253 762.724 681.541 756.545 675.066 751.808L661.498 745.042C658.814 744.045 652.533 744.988 649.938 746.09L663.553 755.644C670.506 760.368 678.884 765.104 680.331 774.172C681.749 783.062 676.53 793.838 671.224 800.682C668.102 804.708 662.858 810.06 657.5 810.511C650.823 811.073 643.704 807.819 637.83 804.983L619.057 795.099L602.66 785.997L602.396 791.581C608.129 795.725 613.727 799.941 616.063 806.889C618.197 813.238 617.54 820.156 614.619 826.154C611.339 832.888 605.137 841.629 597.642 843.963C592.992 845.411 587.97 844.872 583.328 843.596C567.057 839.124 551.272 829.455 536.628 821.25L479.36 788.966L471.174 783.51C469.977 789.278 467.268 793.976 463.263 798.25C457.011 804.922 446.993 808.759 437.965 809.039C430.272 809.278 421.709 807.567 415.976 802.089C410.953 797.289 409.883 791.912 409.677 785.321C399.037 789.644 387.753 793.695 376.128 790.836C367.69 788.762 359.688 783.062 355.25 775.548C349.83 766.372 351.375 758.454 353.994 748.773L346.189 752.724C338.539 755.778 328.847 756.142 321.283 752.634C313.96 749.238 306.006 739.385 303.509 731.863C300.31 722.223 302.973 713.474 307.242 704.768C303.062 706.259 298.736 707.778 294.25 707.91C288.465 708.081 283.139 705.757 279.044 701.75C271.814 694.676 262.619 679.124 262.726 668.911C262.856 656.534 273.583 647.026 281.815 639.064L277.157 633.137L255.314 604.934L236.131 591.422L337.32 407.663L345.963 412.814C352.822 417.035 360.012 420.348 367.109 424.097C368.124 424.633 371.476 426.844 372.291 426.866C373.325 426.894 444.644 387.982 453.639 384.079C457.707 382.313 461.665 381.184 466 380.321C472.129 379.102 478.625 379.004 484.859 378.995C490.726 378.988 496.553 379.017 502.277 380.457Z"/>
	<path fill="#E28C6B" transform="scale(0.488281 0.488281)" d="M493.932 724.46C495.1 728.874 494.732 734.143 493.675 738.548C491.764 746.506 489.261 754.229 486.636 761.976C483.742 770.519 479.244 779.79 479.36 788.966L471.174 783.51L470.925 782.489C472.701 777.812 475.389 773.275 477.523 768.718C484.139 754.593 490.879 739.84 493.932 724.46Z"/>
	<path fill="#E6567C" transform="scale(0.488281 0.488281)" d="M602.396 791.581C595.429 787.471 588.879 782.654 582.173 778.133C558.928 762.464 536.076 745.485 515.03 726.93L515.25 726.378L602.66 785.997L602.396 791.581Z"/>
	<path fill="#E28C6B" transform="scale(0.488281 0.488281)" d="M277.157 633.137C289.015 624.804 299.762 614.877 311.457 606.25C318.205 601.273 325.02 595.812 333.589 594.596C337.626 594.023 343.231 593.985 346.577 596.47C341.618 596.741 337.079 597.219 332.453 599.246C327.795 601.287 323.466 604.643 319.437 607.695L300.753 622.809C295.417 627.253 289.747 631.498 284.835 636.407L284.805 636.538L281.815 639.064L277.157 633.137Z"/>
	<path fill="#E6567C" transform="scale(0.488281 0.488281)" d="M649.938 746.09C642.856 742.508 636.083 736.143 629.59 731.44L574.053 689.928C566.31 683.977 557.539 678.29 550.636 671.406C556.214 674.03 561.56 678.169 566.699 681.594L593.476 699.228L654.111 737.865L668.902 747.359C670.94 748.707 673.408 750.011 675.066 751.808L661.498 745.042C658.814 744.045 652.533 744.988 649.938 746.09Z"/>
	<path fill="#FEFEFE" transform="scale(0.488281 0.488281)" d="M585.379 806.616C587.293 806.514 589.287 806.364 591.183 806.704C595.209 807.426 598.411 810.455 601.727 812.669C603.55 813.886 605.358 814.63 606.591 816.5C606.642 817.936 606.52 819.049 606.113 820.438C604.162 827.09 599.977 831.646 594.059 834.972C589.684 836.248 585.524 835.568 581.5 833.535C577.651 831.59 574.499 828.309 573.278 824.104C572.366 820.964 572.975 816.404 574.661 813.609C577.138 809.504 580.882 807.665 585.379 806.616Z"/>
	<path fill="#E6567C" transform="scale(0.488281 0.488281)" d="M711.096 701.332C708.19 699.95 705.316 697.406 702.693 695.52L686.114 683.682L597.25 618.432L597.25 617.86L641.499 645.026L685.754 672.254C699.992 681.258 714.294 692.534 730.063 698.652L711.096 701.332Z"/>
	<path fill="#FEFEFE" transform="scale(0.488281 0.488281)" d="M645.078 762.75C647.585 762.666 650.252 763.745 652.521 764.751C658.291 767.307 664.049 770.604 669.201 774.24C671.544 775.894 673.679 777.333 674.75 780.07C674.472 784.892 664.214 795.617 660.588 799.098L659.377 799.63C655.773 800.949 652.658 798.736 649.524 797.178C644.192 794.527 633.289 790.228 631.635 783.954C630.593 780.007 632.22 774.663 634.138 771.241C636.57 766.9 640.279 764.021 645.078 762.75Z"/>
	<path fill="#FEFEFE" transform="scale(0.488281 0.488281)" d="M691.55 710.75C692.63 710.51 693.412 710.468 694.512 710.655C704.446 712.347 717.887 718.724 723.912 727.018L723.069 729.5C720.555 737.056 715.315 743.116 708.483 747.119C706.351 747.806 703.961 748.394 701.736 747.789C696.797 746.445 691.455 742.71 687.081 740.101C683.998 738.261 679.735 736.249 678.027 732.933C677.338 731.596 677.101 730.311 677.681 728.885C679.745 723.816 686.543 713.175 691.55 710.75Z"/>
	<path fill="#E28C6B" transform="scale(0.488281 0.488281)" d="M372.728 622.33L374.25 624.271C376.389 623.992 378.369 621.601 379.717 619.997C383.659 615.305 387.202 609.503 392.266 605.935C395.116 603.927 399.156 602.811 402.5 601.955L403.107 601.79C406.838 600.839 411.402 601.469 415.088 602.312C426.951 605.028 438.531 610.39 445.451 620.971C450.227 628.272 452.469 637.117 450.571 645.722L449.797 648.423C458.587 649.278 467.378 653.748 473.076 660.497L474.892 663.018L475.389 663.758C479.397 669.825 481.572 677.814 480.125 685.041C479.208 689.618 477.416 693.74 475.557 697.987L476.394 698.332C481.046 700.277 485.678 702.536 487.951 707.281C483.426 704.949 479.795 701.947 474.736 700.635C471.19 699.717 467.665 700.139 464.501 701.979L462.75 702.299L462.656 700.641C464.233 699.326 465.091 697.07 465.999 695.25C468.21 690.82 470.642 686.125 471.832 681.301C473.42 674.867 472.844 668.89 469.341 663.184C464.853 655.876 457.36 652.367 449.323 650.548C446.211 650.387 442.059 649.857 439.211 651.281L439.093 651.528C437.943 651.722 437.112 652.161 436.107 651.5C437.799 648.475 439.281 645.712 440.09 642.328L440.245 641.652L440.382 641.419C441.333 637.035 440.384 630.669 439.092 626.438C436.61 618.31 431.448 611.77 423.75 607.948C416.887 604.54 407.91 604.371 400.75 606.988C398.341 607.868 395.961 609.063 394.009 610.739C389.733 614.411 386.333 619.326 382.527 623.487L374.4 632.085C373.237 633.31 371.711 634.569 370.987 636.111C369.69 636.356 368.487 636.381 367.176 636.379C370.416 632.565 371.888 627.152 372.728 622.33Z"/>
	<path fill="#FEFEFE" transform="scale(0.488281 0.488281)" d="M752.466 685.413L747.75 687.898C745.221 689.048 740.907 690.455 738.364 689.355C731.74 686.49 725.028 681.742 719.394 677.263C717.059 675.407 714.41 673.338 713.25 670.528C713.371 665.807 718.881 659.117 721.845 655.472C723.677 653.22 726.795 649.612 729.917 649.528C733.787 649.424 739.555 652.807 742.997 654.572C750.053 658.192 756.862 661.007 762.554 666.676C763.111 668.69 763.833 669.875 762.822 671.839C760.443 676.459 755.939 681.523 752.466 685.413Z"/>
	<path fill="#E6567C" transform="scale(0.488281 0.488281)" d="M337.32 407.663L345.963 412.814L316.373 468.062L274.621 545.42L258.955 574.721C255.776 580.636 251.44 587.198 249.454 593.607C250.331 595.565 251.248 597.429 252.403 599.243C253.484 600.939 255.24 602.874 255.314 604.934L236.131 591.422L337.32 407.663Z"/>
	<path fill="#E28C6B" transform="scale(0.488281 0.488281)" d="M376.825 534.808C386.422 538.745 398.131 537.15 407.891 534.46C442.681 524.871 462.145 495.739 479.048 466.021C480.765 465.192 482.645 464.569 484.5 464.125C496.547 461.237 510.698 461.268 521.622 467.713C519.038 467.57 516.02 467.259 513.461 467.695C507.748 468.669 501.884 472.541 497.588 476.366C487.702 485.17 482.268 497.814 475.188 508.738C469.979 516.776 463.67 524.397 456.096 530.319C441.658 541.607 419.289 548.538 401 547.477C392.272 546.97 383.437 543.493 377.877 536.569C377.416 535.995 377.149 535.464 376.825 534.808Z"/>
	<path fill="#8A1B33" transform="scale(0.488281 0.488281)" d="M346.577 596.47C355.861 599.095 364.571 603.728 369.442 612.5C371.223 615.709 372.099 618.741 372.728 622.33C371.888 627.152 370.416 632.565 367.176 636.379C368.487 636.381 369.69 636.356 370.987 636.111C371.711 634.569 373.237 633.31 374.4 632.085L382.527 623.487C386.333 619.326 389.733 614.411 394.009 610.739C395.961 609.063 398.341 607.868 400.75 606.988C407.91 604.371 416.887 604.54 423.75 607.948C431.448 611.77 436.61 618.31 439.092 626.438C440.384 630.669 441.333 637.035 440.382 641.419L440.245 641.652L440.09 642.328C439.281 645.712 437.799 648.475 436.107 651.5C437.112 652.161 437.943 651.722 439.093 651.528L439.211 651.281C442.059 649.857 446.211 650.387 449.323 650.548C457.36 652.367 464.853 655.876 469.341 663.184C472.844 668.89 473.42 674.867 471.832 681.301C470.642 686.125 468.21 690.82 465.999 695.25C465.091 697.07 464.233 699.326 462.656 700.641L462.75 702.299L464.501 701.979C467.665 700.139 471.19 699.717 474.736 700.635C479.795 701.947 483.426 704.949 487.951 707.281C492.177 713.185 493.428 717.202 493.932 724.46C490.879 739.84 484.139 754.593 477.523 768.718C475.389 773.275 472.701 777.812 470.925 782.489L471.174 783.51C469.977 789.278 467.268 793.976 463.263 798.25C457.011 804.922 446.993 808.759 437.965 809.039C430.272 809.278 421.709 807.567 415.976 802.089C410.953 797.289 409.883 791.912 409.677 785.321C399.037 789.644 387.753 793.695 376.128 790.836C367.69 788.762 359.688 783.062 355.25 775.548C349.83 766.372 351.375 758.454 353.994 748.773L346.189 752.724C338.539 755.778 328.847 756.142 321.283 752.634C313.96 749.238 306.006 739.385 303.509 731.863C300.31 722.223 302.973 713.474 307.242 704.768C303.062 706.259 298.736 707.778 294.25 707.91C288.465 708.081 283.139 705.757 279.044 701.75C271.814 694.676 262.619 679.124 262.726 668.911C262.856 656.534 273.583 647.026 281.815 639.064L284.805 636.538L284.835 636.407C289.747 631.498 295.417 627.253 300.753 622.809L319.437 607.695C323.466 604.643 327.795 601.287 332.453 599.246C337.079 597.219 341.618 596.741 346.577 596.47Z"/>
	<path fill="#AE3438" transform="scale(0.488281 0.488281)" d="M464.501 701.979C467.665 700.139 471.19 699.717 474.736 700.635C479.795 701.947 483.426 704.949 487.951 707.281C492.177 713.185 493.428 717.202 493.932 724.46C490.879 739.84 484.139 754.593 477.523 768.718C475.389 773.275 472.701 777.812 470.925 782.489L470.216 782.289C468.32 782.016 461.908 787.563 459.839 788.75C454.216 791.977 445.569 793.177 439.298 791.325L438.5 791.076L434.192 789.576C429.619 787.479 424.121 783.185 422.524 778.251C421.759 775.888 422.219 773.457 423.144 771.208C426.2 763.773 431.906 756.917 436.091 750.008L456.596 715.25C459.013 711.569 463.011 707.719 464.745 703.842C465.129 702.983 464.82 702.814 464.501 701.979Z"/>
	<path fill="#2794C9" transform="scale(0.488281 0.488281)" d="M475.087 705.994C476.401 705.938 477.6 705.917 478.888 706.223C483.099 707.223 486.964 709.744 489.118 713.562C490.763 716.48 491.771 720.486 490.637 723.75C489.533 726.932 487.135 729.838 485.004 732.4C481.296 736.857 478.132 740.572 472.956 743.284C470.443 743.897 468.3 744.145 465.75 743.454C463.059 742.723 460.83 740.529 459.522 738.129C457.777 734.925 457.447 731.235 458.532 727.75C460.968 719.927 467.767 709.639 475.087 705.994Z"/>
	<path fill="#AE3438" transform="scale(0.488281 0.488281)" d="M346.577 596.47C355.861 599.095 364.571 603.728 369.442 612.5C371.223 615.709 372.099 618.741 372.728 622.33C371.888 627.152 370.416 632.565 367.176 636.379L366.721 635.787C353.756 652.824 339 667.355 322.425 680.862C317.583 684.808 310.072 691.442 303.75 692.101C298.315 692.667 291.234 689.597 287.207 686.066C282.485 681.924 278.68 676.314 276.938 670.25L276.683 669.384C275.239 664.335 275.203 659.897 276.296 654.75L276.454 653.967C277.316 649.84 279.749 645.75 281.893 642.135C282.966 640.325 284.358 638.619 284.805 636.538L284.835 636.407C289.747 631.498 295.417 627.253 300.753 622.809L319.437 607.695C323.466 604.643 327.795 601.287 332.453 599.246C337.079 597.219 341.618 596.741 346.577 596.47Z"/>
	<path fill="#2794C9" transform="scale(0.488281 0.488281)" d="M349.826 601.12C351.783 601.156 353.978 601.252 355.86 601.817C360.461 603.199 364.65 606.778 366.872 611.012C368.879 614.835 369.587 618.898 368.167 623.101C366.547 627.897 362.825 631.057 359.178 634.305C354.578 638.401 350.549 641.822 344.984 644.574C342.481 645.441 339.409 645.961 336.809 645.214L336.25 645.04C335.226 644.732 334.193 644.44 333.25 643.92C329.778 642.005 327.353 637.29 326.603 633.52C325.086 625.893 331.079 617.741 335.188 611.75C338.998 606.193 343.03 602.383 349.826 601.12Z"/>
	<path fill="#AE3438" transform="scale(0.488281 0.488281)" d="M439.093 651.528L439.211 651.281C442.059 649.857 446.211 650.387 449.323 650.548C457.36 652.367 464.853 655.876 469.341 663.184C472.844 668.89 473.42 674.867 471.832 681.301C470.642 686.125 468.21 690.82 465.999 695.25C465.091 697.07 464.233 699.326 462.656 700.641L462.359 700.372C458.294 703.958 455.268 709.44 452.31 713.955L432.929 740.681C427.069 748.755 421.569 758.732 414.25 765.495C412.504 767.108 410.746 768.042 408.408 768.493C400.603 769.999 391.57 766.383 385.191 762.008L384.5 761.528C376.134 755.886 372.749 749.038 370.168 739.657L439.093 651.528Z"/>
	<path fill="#2794C9" transform="scale(0.488281 0.488281)" d="M451.092 655.58C453.092 655.434 455.192 655.204 457.137 655.804C461.845 657.255 465.665 661.007 467.799 665.372C469.428 668.704 470.204 672.023 468.872 675.586C467.631 678.907 465.356 681.535 463.134 684.228C458.098 690.328 453.79 694.92 446.411 698.198C443.193 699.121 440.16 699.685 436.872 698.734C433.478 697.754 431.45 695.596 429.878 692.5C427.761 688.331 428.315 683.963 429.851 679.697C433.079 670.731 442.372 659.512 451.092 655.58Z"/>
	<path fill="#AE3438" transform="scale(0.488281 0.488281)" d="M370.987 636.111C371.711 634.569 373.237 633.31 374.4 632.085L382.527 623.487C386.333 619.326 389.733 614.411 394.009 610.739C395.961 609.063 398.341 607.868 400.75 606.988C407.91 604.371 416.887 604.54 423.75 607.948C431.448 611.77 436.61 618.31 439.092 626.438C440.384 630.669 441.333 637.035 440.382 641.419L440.245 641.652C437.312 642.426 386.426 705.31 379.015 713.492C374.51 718.466 369.69 723.437 364.364 727.533C360.719 730.336 357.159 732.219 352.693 733.313C346.379 734.859 340.957 733.7 335.465 730.263C328.005 725.592 321.884 717.926 319.946 709.253L319.75 708.345C319.2 705.909 318.15 699.185 318.972 696.743C319.469 695.267 321.894 693.388 323.034 692.244L334.875 680.327C345.973 668.878 356.905 656.64 366.357 643.794C367.654 642.03 370.459 638.862 370.884 636.755L370.987 636.111Z"/>
	<path fill="#2794C9" transform="scale(0.488281 0.488281)" d="M415.784 608.549C417.851 608.458 419.913 608.654 421.887 609.305C427.196 611.055 431.519 614.711 433.959 619.75C435.22 622.353 436.448 625.737 435.246 628.556C433.836 631.862 431.235 634.845 428.92 637.541C424.012 643.255 419.243 648.241 412.2 651.212C408.568 651.804 404.649 652.438 401.188 650.783C397.627 649.08 395.345 645.769 394.06 642.121C392.443 637.532 393.479 633 395.549 628.75C399.699 620.23 406.704 611.738 415.784 608.549Z"/>
	<path fill="#AE3438" transform="scale(0.488281 0.488281)" d="M502.277 380.457C515.532 376.662 528.098 370.204 541.5 366.96L542.189 366.788C545.285 366.083 549.278 367.095 552.382 367.594L568.479 370.203L627.097 379.293L649.79 382.9C654.256 383.593 658.958 384.675 663.477 384.61C669.757 386.497 675.153 391.593 679.977 395.861C697.464 411.331 711.388 429.869 724.186 449.299L754.157 499.735C765.149 520.112 775.191 541.269 782.115 563.395C783.179 566.796 784.789 570.704 785.321 574.218C786.168 577.337 788.306 582.684 787.939 585.749L773.103 596.052C770.687 597.76 767.605 599.559 765.604 601.716C763.171 604.338 761.765 609.603 760.417 612.9C756.615 622.202 752.545 631.6 749.385 641.133L658.39 573.477L579.342 511.341L546.5 484.927C539.015 479.006 530.509 471.294 521.622 467.713C510.698 461.268 496.547 461.237 484.5 464.125C482.645 464.569 480.765 465.192 479.048 466.021C462.145 495.739 442.681 524.871 407.891 534.46C398.131 537.15 386.422 538.745 376.825 534.808L374.074 532.674C372.404 531.312 371.53 530.192 370.598 528.25C370.34 523.768 371.574 521.031 373.805 517.226C377.143 511.532 381.448 506.307 385.372 500.999L397.873 482.973C412.663 461.047 424.973 438.039 435.722 413.897C437.678 409.505 440.141 404.242 444.093 401.322C448.122 398.344 453.381 397.014 458.076 395.459L476.919 389.293L502.277 380.457Z"/>
	<path fill="#8A1B33" transform="scale(0.488281 0.488281)" d="M374.074 532.674C376.326 531.436 379.142 531.996 381.645 531.771L392 530.378C400.714 528.849 408.834 525.67 416.406 521.112C434.464 510.245 450.263 492.38 462.17 475.226L470.5 463C471.466 461.508 473.025 458.205 474.389 457.207C475.038 456.732 480.146 456.674 481.29 456.543L506.96 453.023C518.122 451.148 530.005 448.811 540.513 444.533C546.859 441.95 552.32 438.143 557.738 434.007C554.061 438.807 550.122 443.162 545.226 446.75C538.211 451.891 531.119 455.248 522.955 458.165L523.468 458.437C534.994 464.658 545.437 473.303 556.511 480.332C570.139 488.981 584.776 497.518 600 502.996C628.686 513.319 658.963 511.56 687.824 503.056L724.75 488.5L724.921 488.863L712.515 497.299C706.695 501.127 700.65 504.816 695.105 509.035C678.342 521.788 664.298 538.034 659.412 558.984C658.262 563.914 658.525 568.48 658.39 573.477L579.342 511.341L546.5 484.927C539.015 479.006 530.509 471.294 521.622 467.713C510.698 461.268 496.547 461.237 484.5 464.125C482.645 464.569 480.765 465.192 479.048 466.021C462.145 495.739 442.681 524.871 407.891 534.46C398.131 537.15 386.422 538.745 376.825 534.808L374.074 532.674Z"/>
	<path fill="#44B5D1" transform="scale(0.488281 0.488281)" d="M0 170.601L-0 -0L1024 0L1024 153.95L1024 418.753L1024 480.653L947.486 523.161C946.573 524.319 946.318 525.111 945.949 526.502C942.493 527.884 939.249 530.637 936.107 532.696L914.5 546.381C912.842 547.407 910.946 548.345 909.748 549.914C906.116 553.299 901.315 555.968 897.189 558.747C888.012 564.93 878.74 571.188 869.067 576.582L866.647 578.647C857.808 583.943 848.45 592.627 837.257 589.848C833.119 588.821 829.862 586.66 826.576 584.036L826.371 584.747C824.31 591.765 820.532 597.494 814 601.046C808.318 604.136 801.374 604.633 795.179 602.87C793.49 602.389 791.421 601.459 790.499 599.871C788.425 596.3 788.411 589.858 787.939 585.749C788.306 582.684 786.168 577.337 785.321 574.218C784.789 570.704 783.179 566.796 782.115 563.395C775.191 541.269 765.149 520.112 754.157 499.735L724.186 449.299C711.388 429.869 697.464 411.331 679.977 395.861C675.153 391.593 669.757 386.497 663.477 384.61C658.958 384.675 654.256 383.593 649.79 382.9L627.097 379.293L568.479 370.203L552.382 367.594C549.278 367.095 545.285 366.083 542.189 366.788L541.5 366.96C528.098 370.204 515.532 376.662 502.277 380.457C496.553 379.017 490.726 378.988 484.859 378.995C478.625 379.004 472.129 379.102 466 380.321C461.665 381.184 457.707 382.313 453.639 384.079C444.644 387.982 373.325 426.894 372.291 426.866C371.476 426.844 368.124 424.633 367.109 424.097C360.012 420.348 352.822 417.035 345.963 412.814L337.32 407.663L236.131 591.422L226.978 608.798L182.338 580.848C176.568 577.323 169.882 574.271 164.623 570.051C160.702 575.033 157.658 581.838 154.409 587.346L0 495.297L0 455.093L0 170.601Z"/>
	<path fill="#119864" transform="scale(0.488281 0.488281)" d="M1024 153.95L1024 418.753L1024 480.653L947.486 523.161C947.205 522.986 946.872 522.876 946.645 522.636C946.422 522.402 937.363 496.397 936.343 493.82L926.642 471.539C924.008 467.229 922.175 462.23 919.949 457.684L905.05 429.103C888.024 399.009 868.597 368.892 847.179 341.748L817.417 307.513L1024 153.95Z"/>
	<path fill="#086E58" transform="scale(0.488281 0.488281)" d="M926.642 471.539L1024 418.753L1024 480.653L947.486 523.161C947.205 522.986 946.872 522.876 946.645 522.636C946.422 522.402 937.363 496.397 936.343 493.82L926.642 471.539Z"/>
	<path fill="#09C6B5" transform="scale(0.488281 0.488281)" d="M726.942 334.075C734.65 316.994 747.848 299.795 762 287.465C767.13 282.996 772.865 278.443 780.107 279.107C790.757 280.084 799.767 289.618 806.983 296.732C810.539 300.238 814.191 303.696 817.417 307.513L847.179 341.748C868.597 368.892 888.024 399.009 905.05 429.103L919.949 457.684C922.175 462.23 924.008 467.229 926.642 471.539L936.343 493.82C937.363 496.397 946.422 522.402 946.645 522.636C946.872 522.876 947.205 522.986 947.486 523.161C946.573 524.319 946.318 525.111 945.949 526.502C942.493 527.884 939.249 530.637 936.107 532.696L914.5 546.381C912.842 547.407 910.946 548.345 909.748 549.914C906.116 553.299 901.315 555.968 897.189 558.747C888.012 564.93 878.74 571.188 869.067 576.582L866.647 578.647C857.808 583.943 848.45 592.627 837.257 589.848C833.119 588.821 829.862 586.66 826.576 584.036L826.371 584.747C824.31 591.765 820.532 597.494 814 601.046C808.318 604.136 801.374 604.633 795.179 602.87C793.49 602.389 791.421 601.459 790.499 599.871C788.425 596.3 788.411 589.858 787.939 585.749C788.306 582.684 786.168 577.337 785.321 574.218C784.789 570.704 783.179 566.796 782.115 563.395C775.191 541.269 765.149 520.112 754.157 499.735L724.186 449.299C711.388 429.869 697.464 411.331 679.977 395.861C675.153 391.593 669.757 386.497 663.477 384.61C663.321 383.448 663.208 382.324 663.293 381.149C663.613 376.712 668.263 372.237 671.508 369.486C677.029 364.808 685.6 358.874 693.07 358.861C695.95 358.857 698.628 359.734 701.483 359.949L701.912 359.978C700.177 357.025 698.402 354.063 698.443 350.538C698.499 345.74 701.531 342.456 704.778 339.321C706.499 337.921 708.209 336.607 710.133 335.497C716.24 331.974 720.432 332.326 726.942 334.075Z"/>
	<path fill="#07A6A0" transform="scale(0.488281 0.488281)" d="M909.748 549.914C907.438 543.72 906.588 536.483 904.644 530.064L889.25 487.07C877.946 458.703 863.139 432.778 847.549 406.601L824.811 368.152C817.018 356.219 808.189 345.399 799.104 334.453C792.441 326.425 785.993 318.056 778.839 310.465C772.855 304.115 766.197 298.393 759.584 292.714L763.663 288.01C767.682 292.117 772.079 295.658 776.219 299.617C782.623 305.741 788.577 312.182 794.316 318.929C806.23 332.938 818.08 347.905 828.488 363.08C835.29 372.997 840.946 383.779 847.166 394.066C875.723 441.298 904.255 491.482 914.5 546.381C912.842 547.407 910.946 548.345 909.748 549.914Z"/>
	<path fill="#EA7E0E" transform="scale(0.488281 0.488281)" d="M704.778 339.321C706.499 337.921 708.209 336.607 710.133 335.497C716.24 331.974 720.432 332.326 726.942 334.075C735.389 336.734 742.425 342.26 749.169 347.829C760.87 357.491 770.963 369.097 780.391 380.945C801.189 407.08 817.79 435.402 833.19 464.97C839.814 477.688 845.61 490.802 851.009 504.08C857.038 518.907 862.313 533.28 865.821 548.939C866.798 553.849 867.788 558.857 868.308 563.837L869.067 576.582L866.647 578.647C857.808 583.943 848.45 592.627 837.257 589.848C833.119 588.821 829.862 586.66 826.576 584.036L826.371 584.747C824.31 591.765 820.532 597.494 814 601.046C808.318 604.136 801.374 604.633 795.179 602.87C793.49 602.389 791.421 601.459 790.499 599.871C788.425 596.3 788.411 589.858 787.939 585.749C788.306 582.684 786.168 577.337 785.321 574.218C784.789 570.704 783.179 566.796 782.115 563.395C775.191 541.269 765.149 520.112 754.157 499.735L724.186 449.299C711.388 429.869 697.464 411.331 679.977 395.861C675.153 391.593 669.757 386.497 663.477 384.61C663.321 383.448 663.208 382.324 663.293 381.149C663.613 376.712 668.263 372.237 671.508 369.486C677.029 364.808 685.6 358.874 693.07 358.861C695.95 358.857 698.628 359.734 701.483 359.949L701.912 359.978C700.177 357.025 698.402 354.063 698.443 350.538C698.499 345.74 701.531 342.456 704.778 339.321Z"/>
	<path fill="#DB5A00" transform="scale(0.488281 0.488281)" d="M701.912 359.978C700.177 357.025 698.402 354.063 698.443 350.538C698.499 345.74 701.531 342.456 704.778 339.321C708.77 344.714 712.345 350.394 716.75 355.472C726.398 366.594 737.228 376.746 746.423 388.25C752.692 396.093 758.331 404.544 763.847 412.927L777.908 435.048C790.531 457.213 800.712 481.199 809.301 505.183C813.909 518.052 818.436 531.048 821.586 544.365C822.272 547.268 823.331 554.579 825.267 556.717C827.177 558.825 833.098 560.422 835.878 560.853C842.91 561.943 851.288 561.652 857.248 557.329C858.901 556.129 860.552 554.798 861.899 553.255C863.139 551.834 864.269 550.016 865.821 548.939C866.798 553.849 867.788 558.857 868.308 563.837L869.067 576.582L866.647 578.647C857.808 583.943 848.45 592.627 837.257 589.848C833.119 588.821 829.862 586.66 826.576 584.036L826.371 584.747C824.31 591.765 820.532 597.494 814 601.046C808.318 604.136 801.374 604.633 795.179 602.87C793.49 602.389 791.421 601.459 790.499 599.871C788.425 596.3 788.411 589.858 787.939 585.749C788.306 582.684 786.168 577.337 785.321 574.218C790.304 575.23 795.252 576.151 800.331 575.23L801 575.1L803.902 574.403C807.989 573.08 811.312 570.483 813.25 566.603C814.798 563.503 814.856 560.271 814.618 556.89C813.922 546.986 810.598 536.99 807.699 527.55L800.533 505.198C788.438 469.534 770.844 435.537 748.895 405C736.62 387.923 721.095 369.426 701.912 359.978Z"/>
	<path fill="#EA7E0E" transform="scale(0.488281 0.488281)" d="M663.477 384.61C663.321 383.448 663.208 382.324 663.293 381.149C663.613 376.712 668.263 372.237 671.508 369.486C677.029 364.808 685.6 358.874 693.07 358.861C695.95 358.857 698.628 359.734 701.483 359.949L701.912 359.978C721.095 369.426 736.62 387.923 748.895 405C770.844 435.537 788.438 469.534 800.533 505.198L807.699 527.55C810.598 536.99 813.922 546.986 814.618 556.89C814.856 560.271 814.798 563.503 813.25 566.603C811.312 570.483 807.989 573.08 803.902 574.403L801 575.1L800.331 575.23C795.252 576.151 790.304 575.23 785.321 574.218C784.789 570.704 783.179 566.796 782.115 563.395C775.191 541.269 765.149 520.112 754.157 499.735L724.186 449.299C711.388 429.869 697.464 411.331 679.977 395.861C675.153 391.593 669.757 386.497 663.477 384.61Z"/>
	<path fill="#062A7B" transform="scale(0.488281 0.488281)" d="M0 170.601L291.33 343.779L283.457 357.251C291.761 360.875 299.597 366.275 307.309 371.031L344.579 393.674L337.32 407.663L236.131 591.422L226.978 608.798L182.338 580.848C176.568 577.323 169.882 574.271 164.623 570.051C160.702 575.033 157.658 581.838 154.409 587.346L0 495.297L0 455.093L0 170.601Z"/>
	<path fill="#FEFEFE" transform="scale(0.488281 0.488281)" d="M283.457 357.251C291.761 360.875 299.597 366.275 307.309 371.031L344.579 393.674L337.32 407.663L236.131 591.422L226.978 608.798L182.338 580.848C176.568 577.323 169.882 574.271 164.623 570.051L174.906 552.02C176.196 551.214 257.123 405.01 265.186 390.503C271.265 379.566 276.672 367.72 283.457 357.251Z"/>
</svg>
