<?xml version="1.0" encoding="utf-8" ?>
<svg xmlns="http://www.w3.org/2000/svg" xmlns:xlink="http://www.w3.org/1999/xlink" width="500" height="500">
	<path fill="#07B8CA" transform="scale(0.488281 0.488281)" d="M-0 -0L1024 0L1024 1024L-0 1024L0 -0Z"/>
	<defs>
		<linearGradient id="gradient_0" gradientUnits="userSpaceOnUse" x1="226.8461" y1="387.86417" x2="215.48102" y2="313.11191">
			<stop offset="0" stop-color="#FFD50C"/>
			<stop offset="1" stop-color="#FFBD1B"/>
		</linearGradient>
	</defs>
	<path fill="url(#gradient_0)" transform="scale(0.488281 0.488281)" d="M88.0652 369.168C96.234 353.035 107.654 332.807 125.897 326.815C136.742 323.253 148.71 323.658 159.984 323.959C193.536 324.856 227.044 330.965 259.629 338.731L343.899 362.75C353.45 365.912 363.501 368.496 372.697 372.58C369.263 372.492 365.757 371.404 362.428 370.596L347.798 367.348L304.75 360.185C252.345 353.42 199.94 354.297 147.5 359.977C127.642 362.128 107.535 364.588 88.0652 369.168Z"/>
	<path fill="#FBB42A" transform="scale(0.488281 0.488281)" d="M655.895 370.147L664.103 366.614C688.187 357.31 712.961 349.455 737.871 342.691C778.991 331.525 820.535 323.707 863.284 323.965C876.245 324.043 891.775 324.102 903.75 329.551C918.152 336.105 927.862 354.723 933.032 368.879L912.521 365.072L852.938 357.565L811.029 355.854C784.019 355.45 757.144 356.371 730.25 359.041L686.028 364.685L667.778 368.09C663.837 368.894 659.932 369.998 655.895 370.147Z"/>
	<path fill="#EF2E35" transform="scale(0.488281 0.488281)" d="M88.0652 369.168C107.535 364.588 127.642 362.128 147.5 359.977C199.94 354.297 252.345 353.42 304.75 360.185L347.798 367.348L362.428 370.596C365.757 371.404 369.263 372.492 372.697 372.58L445.846 395.074C478.692 403.454 512.639 405.809 546.25 400.99C559.387 399.106 572.441 395.83 585.202 392.231L655.895 370.147C659.932 369.998 663.837 368.894 667.778 368.09L686.028 364.685L730.25 359.041C757.144 356.371 784.019 355.45 811.029 355.854L852.938 357.565L912.521 365.072L933.032 368.879C942.415 371.084 953.76 372.721 960.015 380.827C961.651 382.693 962.862 385.038 963.34 387.494C964.58 393.869 963.976 401.566 964.028 408.089C964.106 417.922 964.556 428.059 963.984 437.868L963.631 440.5L963.508 441.238C962.722 445.523 960.039 449.455 956.5 451.961C954.441 453.418 952.123 454.326 949.772 455.183C945.618 461.435 941.907 467.681 939.172 474.693C934.093 487.711 931.871 502.22 928.251 515.732L908.474 577.576C900.629 598.796 892.294 619.738 879.241 638.398C873.656 646.383 867.035 653.547 859.828 660.087C852.079 667.118 843.451 672.68 834.325 677.744C803.146 695.044 768.606 701.236 733.254 699.474C675.965 696.619 626.618 669.523 594.766 621.819C580.207 600.015 570.051 576.367 561.248 551.788L550.866 522.472C546.617 510.505 542.584 497.22 533.833 487.68C528.813 482.206 520.511 477.177 512.979 476.951C501.908 476.618 491.08 484.012 485.004 492.896C477.098 504.455 473.029 519.77 468.288 532.958C461.404 552.107 454.919 571.375 446.269 589.836C435.252 613.351 419.877 636.41 400.84 654.21C394.577 660.066 387.928 665.852 380.807 670.646C348.984 692.071 310.177 699.617 272.297 698.28C245.486 697.334 217.418 691.918 193.282 679.913C169.773 668.22 149.183 649.119 135.87 626.497C129.956 616.448 125.285 605.121 121.015 594.304C110.314 567.195 102.555 539.193 94.9005 511.109C89.5616 491.521 87.2676 470.657 72.8344 455.187C68.2985 453.114 64.481 451.257 61.9761 446.652C60.8974 444.669 60.2216 442.547 59.9971 440.3C59.3566 433.888 59.8956 426.893 59.9371 420.414L60.2807 397.374C60.4553 393.211 60.4381 388.853 61.6481 384.841C61.8159 384.255 61.9778 383.734 62.2538 383.188C66.6225 374.545 79.5317 371.886 88.0652 369.168Z"/>
	<path fill="#FE878D" transform="scale(0.488281 0.488281)" d="M82.0796 381.328C83.8155 378.09 92.3457 375.861 95.9219 374.774C115.94 368.691 137.92 365.399 158.742 363.653L179.56 362.475L129.169 374.494L110.817 379.057C106.214 380.255 101.338 381.738 96.6094 382.307C92.4271 382.81 88.1368 381.321 83.7596 381.658L82.0796 381.328Z"/>
	<path fill="#FE878D" transform="scale(0.488281 0.488281)" d="M934.489 381.431C929.99 381.296 925.473 382.458 921.279 384.015L920.638 384.257C911.073 379.963 900.714 378.192 890.58 375.812L856.5 367.84L828.544 361.998C860.536 360.771 893.543 365.629 924.056 375.231C928.795 376.722 934.818 378.035 938.95 380.771L934.489 381.431Z"/>
	<path fill="#FE878D" transform="scale(0.488281 0.488281)" d="M593.687 393.567C594.821 393.327 594.254 393.285 595.383 393.75C593.108 395.748 590.199 397.09 587.562 398.56C577.611 404.108 566.874 408.612 556.089 412.25C528.276 421.633 497.822 422.476 469.856 413.204C460.921 410.241 452.289 405.983 443.862 401.824C439.717 399.971 435.876 397.843 432.233 395.132L469.5 403.858C500.746 409.65 533.971 407.918 564.877 401.087L593.687 393.567Z"/>
	<path fill="#A0122F" transform="scale(0.488281 0.488281)" d="M938.95 380.771C946.224 380.313 952.775 380.396 960.015 380.827C961.651 382.693 962.862 385.038 963.34 387.494C964.58 393.869 963.976 401.566 964.028 408.089C964.106 417.922 964.556 428.059 963.984 437.868L963.631 440.5L963.508 441.238C962.722 445.523 960.039 449.455 956.5 451.961C954.441 453.418 952.123 454.326 949.772 455.183C941.184 454.677 934.781 454.145 927.367 449.373C917.785 443.204 912.202 431.85 909.82 421.031C908.376 414.477 907.95 406.492 910.301 400.101C912.804 393.299 918.953 387.438 925.583 384.656C928.516 383.425 931.551 382.761 934.489 381.431L938.95 380.771Z"/>
	<path fill="#A0122F" transform="scale(0.488281 0.488281)" d="M61.6481 384.841L62.2889 385.227C68.4924 379.223 74.2717 381.224 82.0796 381.328L83.7596 381.658C93.7464 384.57 107.729 387.307 113.332 397.165C117.909 405.219 117.672 416.115 114.985 424.759C111.677 435.398 104.627 445.965 94.419 450.967C87.1582 454.524 80.4608 453.788 72.8344 455.187C68.2985 453.114 64.481 451.257 61.9761 446.652C60.8974 444.669 60.2216 442.547 59.9971 440.3C59.3566 433.888 59.8956 426.893 59.9371 420.414L60.2807 397.374C60.4553 393.211 60.4381 388.853 61.6481 384.841Z"/>
	<path fill="#A0122F" transform="scale(0.488281 0.488281)" d="M726.958 385.214L727.794 385.144C755.976 383.265 785.204 386.339 812.873 391.52C826.09 393.995 839.507 396.745 851.875 402.177C861.028 406.198 869.957 412.276 877.27 419.083C893.036 433.756 899.778 458.433 900.502 479.406C901.779 516.375 895.772 554.219 880.799 588.143C874.223 603.041 866.048 617.091 854.799 628.999C847.202 637.04 838.904 644.147 829.5 650.007C804.15 665.802 774.177 670.48 744.847 671.265C705.259 670.482 667.32 662.502 636.779 635.668C611.803 613.723 595.992 582.592 584.799 551.738C578.073 533.198 572.724 513.734 571.489 493.961C570.077 471.35 573.4 448.909 589.007 431.482C595.997 423.676 604.656 417.54 613.717 412.367C647.184 393.258 689.09 387.447 726.958 385.214Z"/>
	<path fill="#FBB42A" transform="scale(0.488281 0.488281)" d="M815.082 407.35C838.768 413.811 861.595 420.613 874.594 443.442C891.566 473.249 884.527 522.858 875.642 554.412C866.568 586.641 849.554 619.437 819.297 636.205C784.915 655.259 742.106 657.634 704.092 650.324C706.485 646.252 708.318 641.518 710.235 637.198L718.791 618.433L750 550.036L792.351 457.633L815.082 407.35Z"/>
	<path fill="#90D6CB" transform="scale(0.488281 0.488281)" d="M715.122 401.362C732.525 398.986 751.066 398.145 768.53 400.057L815.082 407.35L792.351 457.633L750 550.036L718.791 618.433L710.235 637.198C708.318 641.518 706.485 646.252 704.092 650.324C697.69 648.829 691.263 647.404 685.043 645.246C671.234 640.455 659.582 633.402 648.303 624.203C634.285 612.673 623.162 596.594 614.754 580.659C611.211 574.894 608.442 568.103 605.935 561.82C598.699 543.686 593.806 524.13 591.815 504.69C589.608 483.15 591.327 457.409 605.654 439.995C618.396 424.507 639.325 416.856 658.056 411.635C676.871 406.392 695.696 403.207 715.122 401.362Z"/>
	<path fill="#A0122F" transform="scale(0.488281 0.488281)" d="M264.906 383.726L311.797 385.061C354.038 388.334 405.924 399.101 434.622 433.037C449.376 450.485 452.374 474.13 450.274 496.234C447.337 527.15 438.241 556.224 424.531 584C414.851 603.611 402.333 623.163 385.252 637.229C362.309 656.122 337.532 666.22 308.108 669.85L291.964 671.375C254.048 673.113 208.697 667.063 179.599 640.299C151.547 614.496 136.669 577.59 128.461 541.079C125.546 528.113 123.096 514.207 122.558 500.913C121.464 473.87 125.343 440.164 144.75 419.453C160.416 402.735 182.088 396.015 203.839 391.169C224.19 386.634 244.089 384.46 264.906 383.726Z"/>
	<path fill="#FBB42A" transform="scale(0.488281 0.488281)" d="M359.478 409.836C382.798 416.178 408.023 426.05 420.683 448.031C436.173 474.926 433.042 511.841 425.169 540.698C414.807 578.681 392.642 616.896 357.719 636.808C332.704 651.07 301.014 654.694 272.702 653.647C263.13 653.293 253.627 652.615 244.176 650.962C245.428 645.895 249.32 639.934 251.576 635.134L277.146 582.093L305.886 521.748L359.478 409.836Z"/>
	<path fill="#90D6CB" transform="scale(0.488281 0.488281)" d="M257.404 399.413L305.489 400.387L359.478 409.836L305.886 521.748L277.146 582.093L251.576 635.134C249.32 639.934 245.428 645.895 244.176 650.962C238.79 650.321 233.456 648.738 228.273 647.173C215.258 643.244 202.815 637.536 192.25 628.866C188.056 625.424 184.379 621.457 180.71 617.479C170.048 604.996 162.262 591.535 155.779 576.51C147.421 557.327 142.188 536.268 139.618 515.521C138.237 504.372 137.486 492.14 138.793 480.964C141.017 461.933 144.77 442.425 158.498 428C167.7 418.331 180.533 413.245 193.04 409.424C213.859 403.064 235.68 400.104 257.404 399.413Z"/>
</svg>
