<?xml version="1.0" encoding="utf-8" ?>
<svg xmlns="http://www.w3.org/2000/svg" xmlns:xlink="http://www.w3.org/1999/xlink" width="500" height="500">
	<path fill="#24B18F" transform="scale(0.488281 0.488281)" d="M-0 -0L1024 0L1024 1024L-0 1024L0 -0Z"/>
	<path fill="#157667" transform="scale(0.488281 0.488281)" d="M809.096 235.669C811.939 236.943 814.18 238.921 816.562 240.88C822.827 246.033 828.232 252.228 833.698 258.196C839.392 264.412 845.402 270.653 850.331 277.492C853.6 282.027 856.479 287.025 858.491 292.25L861.286 301.458C863.182 308.693 862.495 316.908 862.516 324.346L862.529 355.812L862.448 465.744L862.452 592.829L862.483 634.862C862.481 641.709 862.872 648.834 862.382 655.655C861.874 662.729 858.115 668.711 855.349 675.032C854.289 677.454 853.503 680.273 852.148 682.529C851.698 683.279 851.071 683.704 850.405 684.25C850.008 684.577 849.508 684.818 849.229 685.25C847.906 687.298 847.135 691.259 846.331 693.685L839.432 714.255L818.335 776.496L802.711 822.576C805.228 826.241 807.423 830.125 809.513 834.049C810.509 835.919 811.762 837.967 812.133 840.068C812.681 843.173 812.253 846.951 812.214 850.12L812.151 868.499L812.099 945.077L428.794 945.596L407.328 923.575L389.16 905.19C387.599 903.472 385.351 901.568 384.275 899.543L384.787 899.319C386.684 896.391 389.712 893.87 392.182 891.395L404.206 879.219C406.214 877.175 408.77 875.09 409.927 872.455L409.968 824.976C415.345 823.565 422.979 824.531 428.595 824.539C431.724 824.543 436.092 823.985 439.07 824.875L439.485 824.973C439.838 825.466 439.952 825.687 440.5 826.09C442.117 827.277 444.532 828.161 446.349 829.065L457.517 834.882L504.5 859.929C506.908 861.102 509.375 862.043 511.927 862.842L512.478 863.031L512.547 872.622L557.894 872.606L622.539 872.562C624.161 879.075 627.163 885.688 629.507 892.013C630.349 894.283 631.66 896.906 631.974 899.293L766.001 899.513L765.524 805.054L765.488 783.789C765.49 780.578 765.089 776.761 765.641 773.61C766.311 769.782 767.95 765.786 769.146 762.08L775.573 741.926L803.947 655.06L812.374 629.441C813.643 625.398 815.183 621.323 816.002 617.16C816.738 613.412 816.523 609.618 816.53 605.815L816.556 587.897L816.592 525.106L816.663 335.049L816.754 283.177L816.699 266.578C816.669 262.4 816.807 258.024 815.772 253.951C814.103 247.384 811.992 241.792 809.096 235.669Z"/>
	<path fill="#3A1029" transform="scale(0.488281 0.488281)" d="M409.968 824.976C415.345 823.565 422.979 824.531 428.595 824.539C431.724 824.543 436.092 823.985 439.07 824.875L439.485 824.973C439.838 825.466 439.952 825.687 440.5 826.09C442.117 827.277 444.532 828.161 446.349 829.065L457.517 834.882L504.5 859.929C506.908 861.102 509.375 862.043 511.927 862.842L512.478 863.031L512.547 872.622L557.894 872.606L622.539 872.562C624.161 879.075 627.163 885.688 629.507 892.013C630.349 894.283 631.66 896.906 631.974 899.293L384.787 899.319C386.684 896.391 389.712 893.87 392.182 891.395L404.206 879.219C406.214 877.175 408.77 875.09 409.927 872.455L409.968 824.976Z"/>
	<path fill="#24B18F" transform="scale(0.488281 0.488281)" d="M409.968 824.976C415.345 823.565 422.979 824.531 428.595 824.539C431.724 824.543 436.092 823.985 439.07 824.875L439.485 824.973C439.838 825.466 439.952 825.687 440.5 826.09C442.117 827.277 444.532 828.161 446.349 829.065L457.517 834.882L504.5 859.929C506.908 861.102 509.375 862.043 511.927 862.842L512.478 863.031L512.547 872.622L439.416 872.468L409.927 872.455L409.968 824.976Z"/>
	<path fill="#0A2E41" transform="scale(0.488281 0.488281)" d="M409.968 824.976C415.345 823.565 422.979 824.531 428.595 824.539C431.724 824.543 436.092 823.985 439.07 824.875L439.416 872.468L409.927 872.455L409.968 824.976Z"/>
	<path fill="#581C31" transform="scale(0.488281 0.488281)" d="M384.275 899.543C379.488 898.573 373.129 899.426 368.179 899.53L368.228 817.654L368.427 793.896C368.448 791.641 368.966 788.034 368.505 785.963C368.159 784.406 258.466 678.171 246.102 666.072L230.72 651.127C227.86 648.41 224.472 645.729 221.998 642.662C219.134 639.112 217.462 634.11 215.581 629.977L206.088 609.241L162.909 513.559L145.076 474.852C143.404 471.15 140.601 466.603 139.601 462.743C139.195 461.178 140.934 457.827 141.453 456.237C144.805 445.947 147.969 435.87 153.041 426.25C165.073 403.429 186.209 387.176 209.711 377.404C216.259 374.682 223.114 372.775 229.879 370.682L349.943 490.24L349.858 412.045L349.833 269.893L349.745 215.804C349.732 205.906 348.962 195.25 350.401 185.439C352.183 173.295 356.777 161.916 364.288 152.147C375.831 137.134 392.94 128.152 411.578 125.905C431.268 123.531 449.76 130.216 465.178 142.259C468.692 125.676 473.669 112.559 486.132 100.518C499.514 87.5881 518.326 80.0826 537 80.5714C551.803 80.9588 566.474 86.2655 578.102 95.4007C582.526 98.8771 586.325 102.965 590.184 107.039C593.663 108.451 596.717 112.142 599.506 114.651C605.94 120.438 612.524 125.969 618.503 132.252C636.431 124.788 655.283 122.031 673.745 129.691C682.453 133.303 689.473 138.433 696.547 144.605C700.98 146.073 705.775 152.507 709.207 155.78L757.407 204.222C773.775 205.027 788.619 210.94 799.762 223.295L809.096 235.669C811.992 241.792 814.103 247.384 815.772 253.951C816.807 258.024 816.669 262.4 816.699 266.578L816.754 283.177L816.663 335.049L816.592 525.106L816.556 587.897L816.53 605.815C816.523 609.618 816.738 613.412 816.002 617.16C815.183 621.323 813.643 625.398 812.374 629.441L803.947 655.06L775.573 741.926L769.146 762.08C767.95 765.786 766.311 769.782 765.641 773.61C765.089 776.761 765.49 780.578 765.488 783.789L765.524 805.054L766.001 899.513L631.974 899.293C631.66 896.906 630.349 894.283 629.507 892.013C627.163 885.688 624.161 879.075 622.539 872.562L557.894 872.606L512.547 872.622L512.478 863.031L511.927 862.842C509.375 862.043 506.908 861.102 504.5 859.929L457.517 834.882L446.349 829.065C444.532 828.161 442.117 827.277 440.5 826.09C439.952 825.687 439.838 825.466 439.485 824.973L439.07 824.875C436.092 823.985 431.724 824.543 428.595 824.539C422.979 824.531 415.345 823.565 409.968 824.976L409.927 872.455C408.77 875.09 406.214 877.175 404.206 879.219L392.182 891.395C389.712 893.87 386.684 896.391 384.787 899.319L384.275 899.543Z"/>
	<path fill="#157667" transform="scale(0.488281 0.488281)" d="M590.184 107.039C593.663 108.451 596.717 112.142 599.506 114.651C605.94 120.438 612.524 125.969 618.503 132.252L605.451 139.491C602.962 132.796 600.668 125.962 597.52 119.54C595.391 115.197 592.718 111.152 590.184 107.039Z"/>
	<path fill="#141A39" transform="scale(0.488281 0.488281)" d="M462.001 436.86C467.145 441.51 471.364 447.018 475.968 452.178C481.18 458.018 487.261 463.933 491.501 470.486L462.031 470.411L462.001 436.86Z"/>
	<path fill="#FDFFFF" transform="scale(0.488281 0.488281)" d="M409.927 872.455L393.631 872.481L393.634 824.609L409.968 824.976L409.927 872.455Z"/>
	<path fill="#FDFFFF" transform="scale(0.488281 0.488281)" d="M376.45 471.941L387.895 470.674L388.014 505.094C388.005 510.001 387.014 517.684 388.402 522.242L388.494 529.704L387.999 572.324L379.73 563.015C378.437 561.583 376.663 560.104 376.394 558.127L376.45 471.941Z"/>
	<path fill="#157667" transform="scale(0.488281 0.488281)" d="M696.547 144.605C700.98 146.073 705.775 152.507 709.207 155.78L757.407 204.222C751.518 204.519 745.668 205.029 739.984 206.713C737.288 207.512 734.564 208.458 732 209.615C730.186 210.433 726.784 212.8 724.918 212.695C722.281 211.047 719.612 209.428 717.164 207.505C716.674 207.121 715.281 206.215 714.984 205.743C714.903 205.614 714.986 203.857 714.987 203.661L714.962 193.691C714.892 183.913 713.646 174.618 709.968 165.5C706.813 157.676 701.808 151.102 696.547 144.605Z"/>
	<path fill="#FEEDCB" transform="scale(0.488281 0.488281)" d="M388.134 280.113L388.471 470.564L388.562 521.414L388.402 522.242C387.014 517.684 388.005 510.001 388.014 505.094L387.895 470.674L376.45 471.941L376.467 336.178L376.555 304.44C376.563 301.742 375.963 297.32 376.585 294.781C376.757 294.079 378.191 292.479 378.646 291.837C381.572 287.709 384.808 283.921 388.134 280.113Z"/>
	<path fill="#F8832B" transform="scale(0.488281 0.488281)" d="M740.905 333.21C740.946 340.266 741.219 412.246 740.543 413.75C740.422 414.019 740.181 414.217 740 414.45C739.086 414.587 737.941 414.625 737.081 414.931L735.705 415.674C735.756 416.425 735.706 417.283 735.986 417.984L736.563 418.264C737.798 418.734 739.083 418.669 740.384 418.686C741.663 421.329 740.822 428.76 740.834 431.897L740.862 470.033L720.022 470.273L720.338 397.085L720.443 369.79C720.462 363.69 719.503 356.376 721.644 350.599C727.115 342.138 731.816 337.781 740.905 333.21Z"/>
	<path fill="#F8832B" transform="scale(0.488281 0.488281)" d="M276.988 454.552C284.95 461.002 292.226 468.89 299.479 476.139L323.074 500.205L280.716 534.579C279.641 532.429 276.822 529.853 275.221 527.981L256.959 507.188C251.271 500.629 246.157 493.608 240.187 487.291L260.481 469.001C265.759 464.141 271.07 458.608 276.988 454.552Z"/>
	<path fill="#B9D0BE" transform="scale(0.488281 0.488281)" d="M670.371 872.489L670.398 822.734L741.367 822.771L741.5 872.525L670.371 872.489Z"/>
	<path fill="#F8832B" transform="scale(0.488281 0.488281)" d="M632.05 268.778L632.245 426.779L629.538 427.139C628.967 428.254 628.838 428.769 629.27 430.056L629.564 430.504L632.045 431.25L632.103 470.022L609.711 470.117L609.439 304.801C610.61 300.145 608.06 293.697 610.098 289.178C614.792 278.772 622.266 273.94 632.05 268.778Z"/>
	<path fill="#F8832B" transform="scale(0.488281 0.488281)" d="M661.062 266.492C672.154 270.545 682.231 276.222 687.511 287.345C690.24 293.093 689.311 300.567 689.34 306.827L689.433 328.012C689.448 330.553 689.053 333.906 689.508 336.373L689.55 470.124L660.56 470.079L660.577 430.506L659.958 430.436C660.426 429.058 660.278 428.411 659.982 427.037L660.595 426.89L660.543 341.592L659.532 341.329L660.023 340.918C660.922 339.82 660.659 339.287 660.426 338.006L661.072 337.922L661.062 266.492Z"/>
	<path fill="#CB2021" transform="scale(0.488281 0.488281)" d="M661.072 337.922L667.423 338.626L668.07 339.75L667.75 340.883C665.431 341.678 662.97 341.546 660.543 341.592L659.532 341.329L660.023 340.918C660.922 339.82 660.659 339.287 660.426 338.006L661.072 337.922Z"/>
	<path fill="#CB2021" transform="scale(0.488281 0.488281)" d="M659.982 427.037L660.595 426.89C662.831 426.976 666.24 426.652 668.142 427.858C668.584 428.97 668.702 428.709 668.25 429.95C666.256 430.953 662.816 430.503 660.577 430.506L659.958 430.436C660.426 429.058 660.278 428.411 659.982 427.037Z"/>
	<path fill="#E43820" transform="scale(0.488281 0.488281)" d="M632.05 268.778C634.784 267.626 637.606 266.981 640.5 266.383C647.516 264.935 654.058 264.969 661.062 266.492L661.072 337.922L660.426 338.006C660.659 339.287 660.922 339.82 660.023 340.918L659.532 341.329L660.543 341.592L660.595 426.89L659.982 427.037C660.278 428.411 660.426 429.058 659.958 430.436L660.577 430.506L660.56 470.079L632.103 470.022L632.045 431.25L629.564 430.504L629.27 430.056C628.838 428.769 628.967 428.254 629.538 427.139L632.245 426.779L632.05 268.778Z"/>
	<path fill="#8C0C2A" transform="scale(0.488281 0.488281)" d="M651.637 341.491C651.625 343.381 651.994 346.269 651 347.894C649.42 348.003 649.251 348.24 648.051 347.25L647.956 341.507C645.15 341.501 638.307 342.266 636.133 340.964L636.005 338.5C637.798 337.082 645.316 337.719 647.931 337.661C647.92 335.769 647.49 332.727 648.52 331.123C650.085 331.025 650.281 330.838 651.52 331.75L651.75 337.973L660.426 338.006C660.659 339.287 660.922 339.82 660.023 340.918L659.532 341.329L651.637 341.491Z"/>
	<path fill="#8C0C2A" transform="scale(0.488281 0.488281)" d="M632.245 426.779C637.278 427.341 642.519 427.031 647.582 427.002C647.377 424.582 647.121 422.182 647.213 419.75C648.61 418.924 648.849 419.009 650.493 419.105C651.695 420.915 651.157 424.716 651.19 426.946L659.982 427.037C660.278 428.411 660.426 429.058 659.958 430.436L651.345 430.777L651.355 431.854C651.33 433.807 651.663 436.037 650.25 437.408L648.482 437.25C647.4 435.505 647.798 432.938 647.759 430.884L629.564 430.504L629.27 430.056C628.838 428.769 628.967 428.254 629.538 427.139L632.245 426.779Z"/>
	<path fill="#E43820" transform="scale(0.488281 0.488281)" d="M659.958 430.436L660.577 430.506L660.56 470.079L632.103 470.022L632.045 431.25L629.564 430.504L647.759 430.884C647.798 432.938 647.4 435.505 648.482 437.25L650.25 437.408C651.663 436.037 651.33 433.807 651.355 431.854L651.345 430.777L659.958 430.436Z"/>
	<path fill="#FEEDCB" transform="scale(0.488281 0.488281)" d="M732.855 331.234C727.345 334.746 723.065 338.837 719.067 343.986L718.971 291.961L719.014 271.278C719.04 266.561 718.73 261.239 720.21 256.712L720.455 256C722.145 250.72 724.771 245.687 728.583 241.622C735.306 234.451 744.627 229.887 754.5 229.688C764.085 229.495 774.111 233.891 780.834 240.645C786.216 246.053 789.788 253.7 791.152 261.174C791.721 264.294 791.547 267.626 791.57 270.794L791.601 287.33L791.445 342.065L787.507 337.87C783.593 334.295 779.471 331.605 774.918 328.935C763.116 324.108 751.825 322.745 739.75 327.76L732.855 331.234Z"/>
	<path fill="#ECC493" transform="scale(0.488281 0.488281)" d="M732.855 331.234C732.384 328.142 732.602 324.836 732.584 321.701L732.532 304.833C732.507 292.092 731.74 278.83 732.619 266.143C732.809 263.392 733.221 260.639 734.28 258.078C736.495 252.716 740.882 248.395 746.279 246.275C751.252 244.321 757.732 244.341 762.651 246.43C767.927 248.67 771.889 252.903 773.954 258.268L774.177 258.868C775.33 261.915 775.055 265.324 775.06 268.535L775.065 282.812L774.918 328.935C763.116 324.108 751.825 322.745 739.75 327.76L732.855 331.234Z"/>
	<path fill="#F8832B" transform="scale(0.488281 0.488281)" d="M280.716 534.579L323.074 500.205C324.756 504.279 328.765 507.577 331.635 510.89C332.715 512.136 333.838 513.137 334.391 514.709L376.394 558.127C376.663 560.104 378.437 561.583 379.73 563.015L387.999 572.324L388.014 615.307C381.405 619.931 377.235 625.09 372.774 631.755C371.313 633.542 370.176 635.512 368.982 637.48C367.772 636.813 366.78 635.32 365.872 634.276L359.597 626.796L325.24 585.829L297.351 553.159L297.159 553.062C294.046 551.794 292.161 548.958 290.035 546.474C287.551 543.572 284.766 540.596 282.811 537.308C282.284 536.423 282.011 535.979 281.06 535.478L280.716 534.579Z"/>
	<path fill="#3A1029" transform="scale(0.488281 0.488281)" d="M280.716 534.579L323.074 500.205C324.756 504.279 328.765 507.577 331.635 510.89C332.715 512.136 333.838 513.137 334.391 514.709L308.717 535.728C306.354 537.656 301.836 540.261 300.315 542.774C298.92 545.078 298.145 550.443 297.351 553.159L297.159 553.062C294.046 551.794 292.161 548.958 290.035 546.474C287.551 543.572 284.766 540.596 282.811 537.308C282.284 536.423 282.011 535.979 281.06 535.478L280.716 534.579Z"/>
	<path fill="#F8832B" transform="scale(0.488281 0.488281)" d="M740.905 333.21L741.845 332.75C750.171 329.283 761.013 329.499 769.359 332.621C779.842 337.421 785.805 342.08 791.47 352.173L791.637 470.05L768.82 470.043L740.862 470.033L740.834 431.897C740.822 428.76 741.663 421.329 740.384 418.686C739.083 418.669 737.798 418.734 736.563 418.264L735.986 417.984C735.706 417.283 735.756 416.425 735.705 415.674L737.081 414.931C737.941 414.625 739.086 414.587 740 414.45C740.181 414.217 740.422 414.019 740.543 413.75C741.219 412.246 740.946 340.266 740.905 333.21Z"/>
	<path fill="#E43820" transform="scale(0.488281 0.488281)" d="M752.966 414.949L753.164 414.412C753.728 412.375 752.738 409.41 754.25 408.018C755.551 408.229 755.973 408.094 756.982 409L757.08 414.889L768.935 414.967C771.065 414.991 777.387 414.451 778.677 415.75L778.75 417.877C777.211 419.106 771.094 418.429 768.854 418.414L768.82 470.043L740.862 470.033L740.834 431.897C740.822 428.76 741.663 421.329 740.384 418.686C739.083 418.669 737.798 418.734 736.563 418.264L735.986 417.984C735.706 417.283 735.756 416.425 735.705 415.674L737.081 414.931L752.966 414.949Z"/>
	<path fill="#CB2021" transform="scale(0.488281 0.488281)" d="M752.966 414.949L753.164 414.412C753.728 412.375 752.738 409.41 754.25 408.018C755.551 408.229 755.973 408.094 756.982 409L757.08 414.889L768.935 414.967C771.065 414.991 777.387 414.451 778.677 415.75L778.75 417.877C777.211 419.106 771.094 418.429 768.854 418.414L757.086 418.146C757.014 420.497 757.518 423.067 755.943 424.855L754.5 424.872C752.979 423.148 753.873 420.839 753.248 418.681L753.052 418.05C747.428 418.091 741.573 418.592 735.986 417.984C735.706 417.283 735.756 416.425 735.705 415.674L737.081 414.931L752.966 414.949Z"/>
	<path fill="#E43820" transform="scale(0.488281 0.488281)" d="M740.905 333.21L741.845 332.75C750.171 329.283 761.013 329.499 769.359 332.621C768.375 335.032 768.853 338.488 768.866 341.113L768.947 357.317L768.935 414.967L757.08 414.889L756.982 409C755.973 408.094 755.551 408.229 754.25 408.018C752.738 409.41 753.728 412.375 753.164 414.412L752.966 414.949L737.081 414.931C737.941 414.625 739.086 414.587 740 414.45C740.181 414.217 740.422 414.019 740.543 413.75C741.219 412.246 740.946 340.266 740.905 333.21Z"/>
	<path fill="#FEEDCB" transform="scale(0.488281 0.488281)" d="M625.057 265.749C618.614 270.128 613.339 274.952 608.998 281.444L608.933 278.145L608.867 213.927L608.864 195.443C608.864 191.396 608.557 187.043 609.432 183.078C611.184 175.141 615.139 167.646 620.889 161.889C628.19 154.579 639.142 150.267 649.465 150.362C660.259 150.461 670.124 154.904 677.648 162.616C682.907 168.006 686.547 174.419 688.296 181.756C689.63 187.348 689.498 192.928 689.511 198.633L689.524 218.397L689.37 280.837C681.871 272.045 675.886 266.065 664.975 261.548C652.998 257.329 640.464 257.956 629 263.599L625.057 265.749Z"/>
	<path fill="#ECC493" transform="scale(0.488281 0.488281)" d="M625.057 265.749L624.762 219.808L624.459 197.329C624.446 193.608 624.094 189.543 624.734 185.892L624.856 185.25C625.26 182.944 625.845 181.091 626.928 179C629.438 174.155 634.528 170.105 639.705 168.517L640.363 168.32C641.423 167.983 642.382 167.688 643.502 167.593C649.242 167.108 654.925 168.704 659.25 172.641C661.587 174.768 663.668 178.161 664.362 181.25C665.88 188.004 664.95 196.612 664.957 203.526L664.975 261.548C652.998 257.329 640.464 257.956 629 263.599L625.057 265.749Z"/>
	<path fill="#FEEDCB" transform="scale(0.488281 0.488281)" d="M388.812 272.191C383.979 276.442 380.245 280.605 376.709 286.014L376.317 218.228L376.355 199.335C376.367 194.957 376.087 190.187 377.222 185.934L377.478 185C379.537 177.087 383.098 170.262 388.745 164.306C396.402 156.23 407.348 151.265 418.5 151.163C430.673 151.052 442.086 155.821 450.686 164.416C456.261 169.987 460.187 177.853 461.75 185.549C462.569 189.58 462.284 193.804 462.265 197.899L462.159 217.582L462.198 278.939C459.139 274.937 455.542 271.332 451.373 268.499C447.577 265.919 443.664 264.129 439.439 262.371C429.97 259.24 421.06 258.647 411.282 260.807C402.93 262.811 395.427 266.732 388.812 272.191Z"/>
	<path fill="#ECC493" transform="scale(0.488281 0.488281)" d="M411.648 168.756C420.072 168.631 426.897 169.206 433.25 175.5L435.407 178.036L435.84 178.573C437.802 181.061 439.18 184.437 439.674 187.561C440.158 190.622 439.948 193.907 439.946 196.999L439.898 212.531L439.439 262.371C429.97 259.24 421.06 258.647 411.282 260.807C402.93 262.811 395.427 266.732 388.812 272.191C388.174 268.724 388.595 264.556 388.593 261.004L388.584 239.027L388.554 208.342C388.544 202.988 388.013 196.984 388.853 191.702L388.975 191C389.595 187.254 390.888 183.697 393.041 180.543C397.515 173.989 404.054 170.389 411.648 168.756Z"/>
	<path fill="#FEEDCB" transform="scale(0.488281 0.488281)" d="M509.141 229.947C501.28 235.874 495.982 242.6 492.103 251.656L491.982 184.03L491.985 159.239C491.992 154.275 491.685 149.063 492.334 144.147L492.462 143.25C493.654 133.923 497.981 125.692 504.597 119.081C513.14 110.545 524.26 106.172 536.312 106.241C548.125 106.309 558.898 111.036 567.176 119.418C572.842 125.154 577.139 132.451 579.068 140.303C580.353 145.531 580.238 150.946 580.274 156.29L580.33 177.04L580.128 241.911C576.163 236.947 572.126 232.785 566.886 229.138C562.205 225.879 556.989 223.801 551.513 222.31C544.472 220.553 537.903 220.099 530.75 221.346C522.79 222.734 515.903 225.549 509.141 229.947Z"/>
	<path fill="#ECC493" transform="scale(0.488281 0.488281)" d="M509.141 229.947L508.941 175.91L508.942 154.147C508.945 149.901 508.708 145.477 509.135 141.247C509.414 138.484 510.37 135.704 511.795 133.32C514.694 128.47 520.308 124.466 525.768 123.079L526.5 122.9C530.292 121.923 534.18 121.51 537.977 122.75L538.75 123.02C542.912 124.443 547.325 127.267 549.408 131.306L549.67 131.844C550.543 133.575 551.298 135.296 551.487 137.25C552.352 146.155 551.645 155.831 551.654 164.793L551.513 222.31C544.472 220.553 537.903 220.099 530.75 221.346C522.79 222.734 515.903 225.549 509.141 229.947Z"/>
	<path fill="#F8832B" transform="scale(0.488281 0.488281)" d="M511.82 235.879L511.684 467.587L511.974 469.75C515.4 470.493 519.496 470.054 523.005 470.052L544.162 470.05L540.75 470.376L540.301 471L546.336 505.814C547.164 510.681 547.481 517.021 549.425 521.523C550.807 524.071 550.793 527.607 550.874 530.479L549.193 530.635C544.481 529.9 538.771 530.482 533.961 530.488L501.765 530.532L391.454 530.568L388.494 529.704L388.402 522.242L388.562 521.414L388.471 470.564L433.764 470.529L462.031 470.411L491.501 470.486L494.341 470.53L494.192 319.726L494.507 261.229C495.448 251.85 504.792 241.461 511.82 235.879Z"/>
	<path fill="#094845" transform="scale(0.488281 0.488281)" d="M513.732 485.55C515.707 485.437 517.497 485.485 519.381 486.16C522.265 487.192 524.393 489.361 525.56 492.172C526.874 495.336 526.669 498.258 525.23 501.339C523.602 504.825 520.725 506.076 517.349 507.374C515.514 507.519 513.779 507.529 512 506.975C509.098 506.071 506.871 504.22 505.66 501.409C504.246 498.129 504.436 494.9 505.942 491.689C507.582 488.191 510.244 486.816 513.732 485.55Z"/>
	<path fill="#094845" transform="scale(0.488281 0.488281)" d="M459.154 485.542C460.904 485.454 462.703 485.309 464.403 485.83C467.296 486.718 469.649 488.912 470.89 491.656C472.233 494.625 472.45 498.07 471.113 501.087C469.555 504.605 466.744 505.899 463.386 507.28C461.313 507.486 459.236 507.712 457.25 506.926C454.405 505.802 452.245 503.535 451.038 500.75C449.97 498.285 450.136 494.618 451.217 492.202C452.915 488.408 455.535 487.026 459.154 485.542Z"/>
	<path fill="#094845" transform="scale(0.488281 0.488281)" d="M403.091 485.584C404.968 485.461 406.68 485.399 408.5 485.952C411.472 486.854 413.857 488.844 415.25 491.637C416.713 494.571 416.903 497.726 415.712 500.773C414.274 504.45 411.637 505.749 408.195 507.216C406.296 507.489 404.181 507.692 402.335 507.065C399.507 506.104 397.254 504.491 395.944 501.755C394.571 498.891 394.421 495.044 395.644 492.127C397.162 488.507 399.618 487.008 403.091 485.584Z"/>
	<path fill="#8C0C2A" transform="scale(0.488281 0.488281)" d="M388.562 521.414L549.425 521.523C550.807 524.071 550.793 527.607 550.874 530.479L549.193 530.635C544.481 529.9 538.771 530.482 533.961 530.488L501.765 530.532L391.454 530.568L388.494 529.704L388.402 522.242L388.562 521.414Z"/>
	<path fill="#0A2E41" transform="scale(0.488281 0.488281)" d="M388.494 529.704L391.454 530.568L501.765 530.532L533.961 530.488C538.771 530.482 544.481 529.9 549.193 530.635L556.872 556.5L582.422 648.867C583.008 651.247 585.731 658.624 584.977 660.541C579.299 657.641 574.013 653.281 568.695 649.736L530.74 624.016L438.153 561.005C437.626 567.946 438.208 575.139 438.509 582.087L439.478 609.412C422.433 604.883 404.752 605.702 389.198 614.605L388.014 615.307L387.999 572.324L388.494 529.704Z"/>
	<path fill="#24B18F" transform="scale(0.488281 0.488281)" d="M388.494 529.704L391.454 530.568L421.732 550.019C427.164 553.583 433.101 556.951 438.153 561.005C437.626 567.946 438.208 575.139 438.509 582.087L439.478 609.412C422.433 604.883 404.752 605.702 389.198 614.605L388.014 615.307L387.999 572.324L388.494 529.704Z"/>
	<path fill="#E43820" transform="scale(0.488281 0.488281)" d="M388.134 280.113C392.861 275.044 399.019 270.905 405.573 268.608C408.105 267.721 410.427 266.936 413.102 266.528C420.245 265.436 426.025 265.565 433.154 266.848C443.288 269.735 450.46 273.143 457.774 280.875C458.878 282.043 460.932 283.975 461.553 285.43C462.003 286.486 461.722 288.902 461.725 290.106L461.737 302.233C461.735 304.245 461.515 306.534 461.892 308.501L462.001 436.86L462.031 470.411L433.764 470.529L388.471 470.564L388.134 280.113Z"/>
	<path fill="#8C0C2A" transform="scale(0.488281 0.488281)" d="M433.274 345.5L426.297 345.582C426.35 348.377 426.586 351.272 426.115 354.035C424.876 354.786 424.591 354.75 423.122 354.75C421.874 352.858 422.415 348.18 422.394 345.778C418.734 345.784 411.005 346.739 408.113 345L408.214 342.712C410.738 341.003 418.917 341.958 422.26 341.94C422.285 339.439 421.662 333.086 423.029 331.25C424.227 330.953 424.362 331.107 425.5 331.414C427.157 333.414 426.379 339.228 426.37 342L433.344 341.961L433.274 345.5Z"/>
	<path fill="#8C0C2A" transform="scale(0.488281 0.488281)" d="M433.701 430.03L426.365 430.096C426.369 432.516 426.929 439.003 425.527 440.75C424.42 441.011 423.864 441.09 422.77 440.75C421.317 438.487 421.94 433.02 421.937 430.237C418.679 430.252 410.491 431.134 408.094 429.5C407.975 427.935 407.979 428.001 408.935 426.75C412.308 425.258 418.279 426.03 422.022 426.02L422.137 417.75C423.516 416.218 423.773 416.473 425.75 416.32C428.681 418.726 425.36 423.51 426.702 426.105L433.566 426.14C436.28 426.126 441.115 425.527 443.448 426.75C443.985 427.845 443.902 427.953 443.684 429.171C441.392 430.59 436.508 429.99 433.701 430.03Z"/>
	<path fill="#F8832B" transform="scale(0.488281 0.488281)" d="M433.154 266.848C443.288 269.735 450.46 273.143 457.774 280.875C458.878 282.043 460.932 283.975 461.553 285.43C462.003 286.486 461.722 288.902 461.725 290.106L461.737 302.233C461.735 304.245 461.515 306.534 461.892 308.501L462.001 436.86L462.031 470.411L433.764 470.529L433.701 430.03C436.508 429.99 441.392 430.59 443.684 429.171C443.902 427.953 443.985 427.845 443.448 426.75C441.115 425.527 436.28 426.126 433.566 426.14L433.494 345.862L440.564 345.703L441.5 345.584C438.893 345.232 435.922 345.488 433.274 345.5L433.344 341.961L434.012 341.904C432.585 339.448 433.429 326.298 433.423 322.893L433.154 266.848Z"/>
	<path fill="#CB2021" transform="scale(0.488281 0.488281)" d="M433.344 341.961L434.012 341.904C436.52 341.906 441.195 341.291 443.25 342.5L443.416 344.75C442.498 345.595 442.622 345.437 441.5 345.584C438.893 345.232 435.922 345.488 433.274 345.5L433.344 341.961Z"/>
	<path fill="#FECE51" transform="scale(0.488281 0.488281)" d="M689.55 470.124L710.06 470.203C713.285 470.215 716.834 469.913 720.022 470.273L740.862 470.033L768.82 470.043L791.637 470.05L791.655 490.404L791.514 502.344C791.528 508.438 790.784 515.648 791.703 521.604L791.415 522.536L780.007 530.459L550.874 530.479C550.793 527.607 550.807 524.071 549.425 521.523C547.481 517.021 547.164 510.681 546.336 505.814L540.301 471L540.75 470.376L544.162 470.05L547.392 470.058L579.184 470.055L609.711 470.117L632.103 470.022L660.56 470.079L689.55 470.124Z"/>
	<path fill="#09AA50" transform="scale(0.488281 0.488281)" d="M791.514 502.344L790.796 503.191C788.588 505.653 785.964 506.868 782.664 506.946C780.079 507.006 777.472 505.879 775.703 503.997C773.588 501.748 772.39 498.426 772.55 495.353C772.704 492.411 774.14 489.298 776.508 487.485C778.954 485.613 781.933 485.08 784.939 485.528C788 485.984 789.834 488.107 791.655 490.404L791.514 502.344Z"/>
	<path fill="#09AA50" transform="scale(0.488281 0.488281)" d="M672.122 485.608C673.997 485.591 675.742 485.656 677.517 486.333C680.517 487.477 682.91 489.916 684.06 492.904C685.031 495.424 684.646 498.356 683.571 500.771C682.003 504.292 679.368 505.609 675.908 506.919C674.021 507.017 672.063 506.992 670.256 506.367C667.53 505.423 665.42 503.46 664.269 500.835C663.148 498.278 663.044 494.809 664.176 492.242C665.86 488.423 668.407 487.055 672.122 485.608Z"/>
	<path fill="#09AA50" transform="scale(0.488281 0.488281)" d="M617.81 485.596C619.632 485.522 621.598 485.747 623.289 486.46C626.073 487.634 628.246 490.127 629.203 492.984C630.107 495.681 629.629 498.899 628.329 501.385C626.59 504.709 623.825 505.942 620.405 507.013C618.395 507.047 616.622 506.976 614.735 506.201C612.028 505.09 609.741 502.842 608.803 500.024C607.84 497.128 608.451 493.078 610.024 490.5C611.911 487.409 614.478 486.455 617.81 485.596Z"/>
	<path fill="#09AA50" transform="scale(0.488281 0.488281)" d="M564.526 486.059C566.275 485.976 568.333 485.739 570.046 486.17C572.775 486.858 575.542 488.951 576.845 491.444C578.223 494.082 578.634 497.358 577.517 500.166C575.934 504.15 573.2 505.685 569.408 507.207C567.703 507.39 566.33 507.385 564.677 506.863C561.482 505.851 558.856 503.994 557.414 500.884C556.123 498.099 556.425 495.294 557.504 492.5C558.862 488.981 561.199 487.478 564.526 486.059Z"/>
	<path fill="#09AA50" transform="scale(0.488281 0.488281)" d="M726.601 485.613C729.01 485.445 731.274 485.47 733.516 486.493C736.101 487.672 738.214 490.176 739.139 492.842C739.947 495.169 739.77 498.815 738.635 500.977C736.839 504.397 734.43 505.811 730.892 507.02C728.864 507.077 727.111 507.046 725.203 506.278C722.549 505.209 720.051 503.052 718.99 500.345C717.955 497.706 717.899 494.613 719.085 492C720.673 488.502 723.14 486.974 726.601 485.613Z"/>
	<path fill="#CB2021" transform="scale(0.488281 0.488281)" d="M549.425 521.523L721.75 521.479L767.605 521.225C775.324 521.175 784.09 520.391 791.703 521.604L791.415 522.536L780.007 530.459L550.874 530.479C550.793 527.607 550.807 524.071 549.425 521.523Z"/>
	<path fill="#157667" transform="scale(0.488281 0.488281)" d="M550.874 530.479L780.007 530.459L737.795 558.479L627.777 632.276C622.854 635.616 587.048 660.614 585.36 660.75L584.977 660.541C585.731 658.624 583.008 651.247 582.422 648.867L556.872 556.5L549.193 530.635L550.874 530.479Z"/>
	<path fill="#E43820" transform="scale(0.488281 0.488281)" d="M511.82 235.879L512.144 235.583C521.53 228.22 535.984 226.185 547.447 227.591C559.835 230.767 570.079 235.959 576.842 247.315C577.839 248.991 578.681 250.815 578.987 252.75C580.04 259.422 579.237 267.356 579.26 274.17L579.218 325.715L579.184 470.055L547.392 470.058L544.162 470.05L523.005 470.052C519.496 470.054 515.4 470.493 511.974 469.75L511.684 467.587L511.82 235.879Z"/>
	<path fill="#8C0C2A" transform="scale(0.488281 0.488281)" d="M538.613 395.181C535.968 395.151 528.363 395.88 526.511 394.5L526.486 392.25C528.106 390.719 535.911 391.525 538.487 391.524L538.613 395.181Z"/>
	<path fill="#8C0C2A" transform="scale(0.488281 0.488281)" d="M538.904 297.487L539.25 295.729L540.5 295.534C541.778 296.648 541.817 297.073 541.927 298.75C542.049 300.626 541.406 303.204 542.75 304.518L546.934 304.533L546.826 307.394C545.158 308.291 543.547 307.401 542.112 308.524C542.068 310.672 542.617 314.502 541.25 316.09L539.75 316.189C538.676 315.179 538.973 314.55 538.908 313.145L538.658 309C536.846 306.741 529.182 309.064 526.25 307.394L526.001 305.25C527.623 303.717 535.947 304.524 538.569 304.519L538.904 297.487Z"/>
	<defs>
		<linearGradient id="gradient_0" gradientUnits="userSpaceOnUse" x1="557.43512" y1="387.93393" x2="536.51312" y2="393.41318">
			<stop offset="0" stop-color="#B70013"/>
			<stop offset="1" stop-color="#880027"/>
		</linearGradient>
	</defs>
	<path fill="url(#gradient_0)" transform="scale(0.488281 0.488281)" d="M538.487 391.524C538.517 388.678 538.146 385.27 539.25 382.619C540.409 381.907 540.483 382.04 541.85 382.25C543.067 384.229 542.512 388.946 542.25 391.327C542.815 391.694 543.126 391.89 543.791 392.056C545.481 391.887 546.969 391.738 548.662 391.957C551.783 392.362 555.391 391.989 558.562 391.951C559.06 393.149 559.176 393.715 558.971 395C556.969 396.286 550.091 395.479 547.502 395.461L542.663 395.41C541.536 396.843 542.295 399.493 541.988 401.25C541.765 402.529 541.268 403.024 540.25 403.732L539.25 403.077C538.227 400.974 538.639 397.524 538.613 395.181L538.487 391.524Z"/>
	<path fill="#F8832B" transform="scale(0.488281 0.488281)" d="M547.447 227.591C559.835 230.767 570.079 235.959 576.842 247.315C577.839 248.991 578.681 250.815 578.987 252.75C580.04 259.422 579.237 267.356 579.26 274.17L579.218 325.715L579.184 470.055L547.392 470.058C547.042 468.103 547.363 465.62 547.37 463.599L547.405 449.619L547.502 395.461C550.091 395.479 556.969 396.286 558.971 395C559.176 393.715 559.06 393.149 558.562 391.951C555.692 390.896 550.657 391.572 547.508 391.571L547.023 308.376L542.112 308.524C543.547 307.401 545.158 308.291 546.826 307.394L546.934 304.533L547.551 304.399C547.141 302.292 547.411 299.972 547.428 297.82L547.37 286.611L547.065 245.182C547.035 240.042 546.01 232.314 547.447 227.591Z"/>
	<path fill="#CB2021" transform="scale(0.488281 0.488281)" d="M547.551 304.399C550.4 304.419 555.152 303.871 557.503 305.491L558.032 306.75C555.391 309.225 550.494 308.449 547.023 308.376L542.112 308.524C543.547 307.401 545.158 308.291 546.826 307.394L546.934 304.533L547.551 304.399Z"/>
	<path fill="#FDFFFF" transform="scale(0.488281 0.488281)" d="M409.957 803.834L393.53 803.923L393.534 780.816C393.534 779.74 393.95 775.112 393.535 774.346C392.458 772.362 388.979 769.696 387.278 768.052L370.145 751.291L281.69 664.558L252.614 635.836C249.247 632.52 245.141 629.506 242.131 625.904C241.152 624.734 240.534 623.371 240.036 621.943C237.074 613.453 232.577 605.111 228.871 596.907L205.079 544.741L179.314 487.724L167.16 461.214L173.895 443.298C180.134 429.536 190.698 417.264 203.696 409.461C209.856 405.763 216.511 403.218 223.206 400.686L231.457 409.158L270.065 447.236C272.18 449.871 275.017 451.937 276.988 454.552C271.07 458.608 265.759 464.141 260.481 469.001L240.187 487.291C246.157 493.608 251.271 500.629 256.959 507.188L275.221 527.981C276.822 529.853 279.641 532.429 280.716 534.579L281.06 535.478L263.063 589.809C260.379 597.763 256.585 605.796 255.163 614.083C255.5 615.655 256.011 616.745 257.144 617.917L266.463 626.707L321.05 680.124L385.671 743.905L414.461 773.334L410.75 773.644C409.976 775.818 410.361 778.831 410.356 781.131L410.318 797.558C410.315 799.442 410.671 802.08 409.957 803.834Z"/>
	<path fill="#E43820" transform="scale(0.488281 0.488281)" d="M240.187 487.291C246.157 493.608 251.271 500.629 256.959 507.188L275.221 527.981C276.822 529.853 279.641 532.429 280.716 534.579L281.06 535.478L263.063 589.809C260.379 597.763 256.585 605.796 255.163 614.083L209.339 514.687C213.171 512.945 217.375 507.877 220.608 504.934L240.187 487.291Z"/>
	<path fill="#F8832B" transform="scale(0.488281 0.488281)" d="M231.457 409.158L270.065 447.236C272.18 449.871 275.017 451.937 276.988 454.552C271.07 458.608 265.759 464.141 260.481 469.001L240.187 487.291L220.608 504.934C217.375 507.877 213.171 512.945 209.339 514.687L204.739 505.242L182.746 457.998C185.243 449.206 188.272 441.311 193.26 433.594C200.225 424.3 209.167 418.252 219.627 413.508C223.472 411.765 227.319 410.065 231.457 409.158Z"/>
	<path fill="#3A1029" transform="scale(0.488281 0.488281)" d="M270.065 447.236C272.18 449.871 275.017 451.937 276.988 454.552C271.07 458.608 265.759 464.141 260.481 469.001L240.187 487.291L220.608 504.934C217.375 507.877 213.171 512.945 209.339 514.687L204.739 505.242C206.558 504.186 208.669 501.727 210.323 500.268L232.639 479.965L270.065 447.236Z"/>
	<path fill="#E43820" transform="scale(0.488281 0.488281)" d="M193.26 433.594L232.639 479.965L210.323 500.268C208.669 501.727 206.558 504.186 204.739 505.242L182.746 457.998C185.243 449.206 188.272 441.311 193.26 433.594Z"/>
	<path fill="#B9D0BE" transform="scale(0.488281 0.488281)" d="M780.007 530.459L791.415 522.536L791.594 581.19L791.586 602.096C791.576 605.64 791.845 609.513 791.448 613.024C791.145 615.703 790.09 618.499 789.089 620.991L785.649 630.205L757.761 714.583L747.965 744.5C746.664 748.474 744.014 753.916 743.862 757.998L695.171 757.917L686.013 757.935L487.134 758.121L487.268 712.349C487.667 706.381 487.278 700.091 487.268 694.081C487.242 677.466 487.917 662.209 480.836 646.713C472.457 628.376 458.144 616.381 439.478 609.412L438.509 582.087C438.208 575.139 437.626 567.946 438.153 561.005L530.74 624.016L568.695 649.736C574.013 653.281 579.299 657.641 584.977 660.541L585.36 660.75C587.048 660.614 622.854 635.616 627.777 632.276L737.795 558.479L780.007 530.459Z"/>
	<path fill="#24B18F" transform="scale(0.488281 0.488281)" d="M487.268 712.349C494.001 714.33 500.977 715.639 507.816 717.227C527.301 721.752 546.614 724.832 566.458 727.385C598.191 731.468 630.413 733.411 662.398 732.061C670.005 731.74 678.427 731.798 685.923 730.585L686.013 757.935L487.134 758.121L487.268 712.349Z"/>
	<path fill="#F8832B" transform="scale(0.488281 0.488281)" d="M685.923 730.585L685.935 694.719C685.941 685.734 685.313 676.23 686.205 667.31C687.232 657.047 691.046 645.632 696.745 637.029C705.785 623.381 720.838 612.347 737.06 609.219C756.649 605.442 772.777 610.05 789.089 620.991L785.649 630.205L757.761 714.583L747.965 744.5C746.664 748.474 744.014 753.916 743.862 757.998L695.171 757.917L686.013 757.935L685.923 730.585Z"/>
	<path fill="#E43820" transform="scale(0.488281 0.488281)" d="M695.467 729.779L757.761 714.583L747.965 744.5C746.664 748.474 744.014 753.916 743.862 757.998L695.171 757.917L695.467 729.779Z"/>
	<path fill="#8C0C2A" transform="scale(0.488281 0.488281)" d="M685.923 730.585L685.935 694.719C685.941 685.734 685.313 676.23 686.205 667.31C687.232 657.047 691.046 645.632 696.745 637.029C705.785 623.381 720.838 612.347 737.06 609.219C756.649 605.442 772.777 610.05 789.089 620.991L785.649 630.205C772.666 620.334 760.109 615.462 743.487 617.757C728.739 619.794 715.442 627.258 706.565 639.25C700.707 647.163 696.955 657.219 695.784 666.983C694.74 675.695 695.436 685.207 695.438 693.996L695.467 729.779L695.171 757.917L686.013 757.935L685.923 730.585Z"/>
	<path fill="#3A1029" transform="scale(0.488281 0.488281)" d="M281.06 535.478C282.011 535.979 282.284 536.423 282.811 537.308C284.766 540.596 287.551 543.572 290.035 546.474C292.161 548.958 294.046 551.794 297.159 553.062L297.351 553.159L325.24 585.829L359.597 626.796L365.872 634.276C366.78 635.32 367.772 636.813 368.982 637.48C370.176 635.512 371.313 633.542 372.774 631.755C377.235 625.09 381.405 619.931 388.014 615.307L389.198 614.605C404.752 605.702 422.433 604.883 439.478 609.412C458.144 616.381 472.457 628.376 480.836 646.713C487.917 662.209 487.242 677.466 487.268 694.081C487.278 700.091 487.667 706.381 487.268 712.349L487.134 758.121L686.013 757.935L695.171 757.917L743.862 757.998C742.758 763.203 741.72 767.697 741.49 773.069L741.222 803.929L741.435 804.68L741.367 822.771L670.398 822.734L670.371 872.489L624.562 872.431L622.539 872.562L557.894 872.606L512.547 872.622L512.478 863.031L511.927 862.842C509.375 862.043 506.908 861.102 504.5 859.929L457.517 834.882L446.349 829.065C444.532 828.161 442.117 827.277 440.5 826.09C439.952 825.687 439.838 825.466 439.485 824.973L439.07 824.875C436.092 823.985 431.724 824.543 428.595 824.539C422.979 824.531 415.345 823.565 409.968 824.976C409.983 818.139 409.434 810.711 410.335 803.96L409.957 803.834C410.671 802.08 410.315 799.442 410.318 797.558L410.356 781.131C410.361 778.831 409.976 775.818 410.75 773.644L414.461 773.334L385.671 743.905L321.05 680.124L266.463 626.707L257.144 617.917C256.011 616.745 255.5 615.655 255.163 614.083C256.585 605.796 260.379 597.763 263.063 589.809L281.06 535.478Z"/>
	<path fill="#F8832B" transform="scale(0.488281 0.488281)" d="M414.461 773.334C420.411 774.164 426.723 773.734 432.729 773.698C446.634 773.613 460.892 772.931 474.761 773.617L741.49 773.069L741.222 803.929L440.55 803.976C440.552 810.575 441.099 817.699 440.421 824.234L439.485 824.973L439.07 824.875C436.092 823.985 431.724 824.543 428.595 824.539C422.979 824.531 415.345 823.565 409.968 824.976C409.983 818.139 409.434 810.711 410.335 803.96L409.957 803.834C410.671 802.08 410.315 799.442 410.318 797.558L410.356 781.131C410.361 778.831 409.976 775.818 410.75 773.644L414.461 773.334Z"/>
	<path fill="#E43820" transform="scale(0.488281 0.488281)" d="M414.461 773.334C420.411 774.164 426.723 773.734 432.729 773.698C446.634 773.613 460.892 772.931 474.761 773.617L474.204 773.682L440.336 774.048L440.55 803.976C440.552 810.575 441.099 817.699 440.421 824.234L439.485 824.973L439.07 824.875C436.092 823.985 431.724 824.543 428.595 824.539C422.979 824.531 415.345 823.565 409.968 824.976C409.983 818.139 409.434 810.711 410.335 803.96L409.957 803.834C410.671 802.08 410.315 799.442 410.318 797.558L410.356 781.131C410.361 778.831 409.976 775.818 410.75 773.644L414.461 773.334Z"/>
	<path fill="#3A1029" transform="scale(0.488281 0.488281)" d="M410.335 803.96L440.55 803.976C440.552 810.575 441.099 817.699 440.421 824.234L439.485 824.973L439.07 824.875C436.092 823.985 431.724 824.543 428.595 824.539C422.979 824.531 415.345 823.565 409.968 824.976C409.983 818.139 409.434 810.711 410.335 803.96Z"/>
	<path fill="#2C5463" transform="scale(0.488281 0.488281)" d="M440.55 803.976L741.222 803.929L741.435 804.68L741.367 822.771L670.398 822.734L670.371 872.489L624.562 872.431L622.539 872.562L557.894 872.606L512.547 872.622L512.478 863.031L511.927 862.842C509.375 862.043 506.908 861.102 504.5 859.929L457.517 834.882L446.349 829.065C444.532 828.161 442.117 827.277 440.5 826.09C439.952 825.687 439.838 825.466 439.485 824.973L440.421 824.234C441.099 817.699 440.552 810.575 440.55 803.976Z"/>
	<path fill="#B9D0BE" transform="scale(0.488281 0.488281)" d="M439.485 824.973L512.543 824.124L512.573 833.58L512.478 863.031L511.927 862.842C509.375 862.043 506.908 861.102 504.5 859.929L457.517 834.882L446.349 829.065C444.532 828.161 442.117 827.277 440.5 826.09C439.952 825.687 439.838 825.466 439.485 824.973Z"/>
	<path fill="#0A2E41" transform="scale(0.488281 0.488281)" d="M512.573 833.58L513.1 827.819L557.653 847.163L557.866 847.332L557.894 872.606L512.547 872.622L512.478 863.031L512.573 833.58Z"/>
	<path fill="#B9D0BE" transform="scale(0.488281 0.488281)" d="M557.653 847.163L557.62 823.161L623.951 823.143C625.41 825.135 624.498 866.099 624.562 872.431L622.539 872.562L557.894 872.606L557.866 847.332L557.653 847.163Z"/>
	<path fill="#24B18F" transform="scale(0.488281 0.488281)" d="M623.951 823.143C625.41 825.135 624.498 866.099 624.562 872.431L622.539 872.562L557.894 872.606L557.866 847.332L624.114 871.649L623.951 823.143Z"/>
	<path fill="#E43820" transform="scale(0.488281 0.488281)" d="M297.351 553.159L325.24 585.829L359.597 626.796L365.872 634.276C366.78 635.32 367.772 636.813 368.982 637.48C370.176 635.512 371.313 633.542 372.774 631.755C377.235 625.09 381.405 619.931 388.014 615.307L389.198 614.605C404.752 605.702 422.433 604.883 439.478 609.412C458.144 616.381 472.457 628.376 480.836 646.713C487.917 662.209 487.242 677.466 487.268 694.081C487.278 700.091 487.667 706.381 487.268 712.349L487.134 758.121L477.449 758.088L428.889 758.098L278.16 608.69L297.159 553.062L297.351 553.159Z"/>
	<path fill="#F8832B" transform="scale(0.488281 0.488281)" d="M388.014 615.307L389.198 614.605C404.752 605.702 422.433 604.883 439.478 609.412C458.144 616.381 472.457 628.376 480.836 646.713C487.917 662.209 487.242 677.466 487.268 694.081C487.278 700.091 487.667 706.381 487.268 712.349L487.134 758.121L477.449 758.088L477.528 707.468C458.574 700.641 441.75 689.899 425.004 678.881C408.512 668.029 392.34 656.918 378.242 643.01C379.042 639.307 380.45 635.94 381.914 632.469C378.777 632.512 375.817 632.643 372.774 631.755C377.235 625.09 381.405 619.931 388.014 615.307Z"/>
	<path fill="#8C0C2A" transform="scale(0.488281 0.488281)" d="M388.014 615.307L389.198 614.605C404.752 605.702 422.433 604.883 439.478 609.412C458.144 616.381 472.457 628.376 480.836 646.713C487.917 662.209 487.242 677.466 487.268 694.081C487.278 700.091 487.667 706.381 487.268 712.349L487.134 758.121L477.449 758.088L477.528 707.468L477.617 683.307C477.616 677.647 478.024 671.633 477.074 666.047C474.418 650.429 465.408 635.025 452.303 625.926C439.735 617.2 424.72 613.893 409.677 616.597C398.856 618.541 388.338 623.23 381.914 632.469C378.777 632.512 375.817 632.643 372.774 631.755C377.235 625.09 381.405 619.931 388.014 615.307Z"/>
</svg>
