<?xml version="1.0" encoding="utf-8" ?>
<svg xmlns="http://www.w3.org/2000/svg" xmlns:xlink="http://www.w3.org/1999/xlink" width="500" height="500">
	<path fill="#FEFEFE" transform="scale(0.488281 0.488281)" d="M-0 -0L1024 0L1024 1024L-0 1024L0 -0Z"/>
	<path fill="#0F274B" transform="scale(0.488281 0.488281)" d="M216.881 280.214C222.271 259.157 229.762 238.061 238.672 218.237C242.832 208.982 247.247 199.509 253.112 191.199C258.933 182.953 266.564 175.562 274.409 169.231C298.972 149.406 328.643 136.234 357.906 125.006C399.816 108.925 443.678 97.42 488 90.3789C520.167 85.2688 552.593 82.1993 585.092 85.7684C594.396 87.3734 603.971 88.9633 612.486 93.2615C623.618 98.8803 633.188 107.662 642.242 116.116C663.176 135.663 682.522 157.571 699.038 181L700.056 182.553L699.732 182.934C696.335 187.108 694.251 192.818 691.376 197.453C684.39 208.714 676.725 219.544 668.101 229.612C612.207 294.858 528.702 334.108 444.068 344.162L417 346.467L377.79 345.452C341.156 342.277 305.118 334.647 271.524 319.342C250.821 309.911 231.662 297.752 216.881 280.214Z"/>
	<path fill="#08193B" transform="scale(0.488281 0.488281)" d="M400.829 226.318C398.039 227.233 395.208 228.862 392.523 230.108L377.388 236.913C354.198 246.872 330.758 254.928 305.25 255.18C301.012 255.222 296.361 255.476 292.25 254.378L291.92 253.5C293.576 251.11 296.577 249.104 298.727 247.076L317.69 229.431C365.11 188.114 418.34 155.434 476.5 131.54C489.524 126.189 502.666 120.875 516.117 116.68C529.959 112.362 544.292 108.355 558.722 106.663C561.42 106.346 565.643 105.361 568.014 106.612C531.185 144.446 488.644 175.754 443.5 202.965C429.783 211.232 415.428 219.737 400.829 226.318Z"/>
	<path fill="#23426E" transform="scale(0.488281 0.488281)" d="M585.092 85.7684C594.396 87.3734 603.971 88.9633 612.486 93.2615C623.618 98.8803 633.188 107.662 642.242 116.116C663.176 135.663 682.522 157.571 699.038 181L700.056 182.553L699.732 182.934C696.335 187.108 694.251 192.818 691.376 197.453C684.39 208.714 676.725 219.544 668.101 229.612C612.207 294.858 528.702 334.108 444.068 344.162L417 346.467L400.829 226.318C415.428 219.737 429.783 211.232 443.5 202.965C488.644 175.754 531.185 144.446 568.014 106.612L578.644 93.8629C580.821 91.2712 583.65 88.8528 585.092 85.7684Z"/>
	<defs>
		<linearGradient id="gradient_0" gradientUnits="userSpaceOnUse" x1="112.10561" y1="360.13126" x2="907.65533" y2="839.40515">
			<stop offset="0" stop-color="#03193D"/>
			<stop offset="1" stop-color="#153662"/>
		</linearGradient>
	</defs>
	<path fill="url(#gradient_0)" transform="scale(0.488281 0.488281)" d="M768.571 312.083C777.862 315.584 786.67 319.991 795.75 323.97C828.876 338.489 861.996 355.277 891.75 376.008C917.425 393.897 941.317 415.232 961.572 439.079C975.713 455.729 988.374 473.802 997.426 493.759C1004.52 509.391 1009.73 525.962 1012.36 542.942C1015.09 560.63 1014.19 578.919 1013.79 596.75C1013.46 611.848 1013.49 627.246 1011.11 642.187C1009.02 655.328 1005.45 668.374 1000.75 680.817C992.862 701.711 981.557 720.248 968.25 738.072C924.159 797.132 858.913 839.198 792.394 869.12C720.904 901.278 644.446 919.52 566.5 926.539C497.555 932.748 428.615 930.066 360.486 917.683C322.659 910.808 285.414 901.099 249.464 887.368C159.586 853.04 67.4753 793.576 27.1466 702.734C20.9534 688.784 16.1114 673.203 13.3643 658.198C10.4827 642.459 9.97859 626.849 9.79635 610.9C9.64514 597.666 9.49781 584.389 10.6162 571.189C12.2818 551.53 16.6507 531.368 23.75 512.955C32.5181 490.215 44.3278 469.575 59.2597 450.319C68.148 438.857 78.2203 428.316 88.6019 418.209C113.064 394.395 140.658 373.64 169.975 356.158C180.684 349.772 191.801 343.339 203.249 338.391L204.004 338.07L201.702 354.628L197.497 396.249L194.858 453.134L194.97 453.411L194.091 514.4C170.651 544.91 153.607 581.159 158.787 620.538C163.845 658.986 189.199 691.333 219.275 714.236C236.406 727.281 255.777 739.517 275.917 747.364C282.51 748.933 289.277 752.52 295.75 754.755C308.063 759.006 320.88 762.235 333.614 764.957C361.29 770.875 389.344 773.773 417.611 774.833C438.974 775.633 460.443 775.777 481.778 774.195C530.629 770.572 578.22 759.178 624.885 744.711L634.952 749.514L641.988 746.733L679.533 729.311C691.734 724.237 703.618 717.224 715 710.523C756.789 685.921 794.588 656.376 823.661 617.152C846.089 586.893 861.636 547.548 855.898 509.414C850.723 475.016 830.713 448.469 803.196 428.24C801.917 426.321 801.271 423.364 800.587 421.149L795.389 403.006L783.427 362.218C780.912 353.625 778.715 344.571 775.511 336.222C775.241 333.837 773.429 331.359 774.205 329.108C773.847 328.906 773.654 328.848 773.401 328.529C772.089 326.877 768.601 314.565 768.571 312.083Z"/>
	<path fill="#1B7393" transform="scale(0.488281 0.488281)" d="M61.6881 697.92C58.9901 694.638 56.7439 690.809 54.4456 687.236C50.0392 680.384 45.871 673.439 42.1864 666.171C29.0515 640.261 21.0898 611.501 21.5146 582.294C21.7939 563.083 25.8408 543.633 31.9262 525.453C40.1114 501.001 54.2013 478.305 70.2512 458.277C105.458 414.344 151.527 379.864 201.702 354.628L197.497 396.249L194.858 453.134L194.396 448.646C192.532 449.182 190.864 450.835 189.352 452.016L179.225 459.912C144.148 487.215 113.455 519.943 91.7929 558.968C68.166 601.535 56.5716 649.295 61.6881 697.92Z"/>
	<path fill="#BDD6CE" transform="scale(0.488281 0.488281)" d="M395.819 822.834C483.451 828.894 571.391 824.481 657.969 809.408L731.367 794.183L780 783.025L842.755 765.162L875.034 754.645L891.399 748.689C894.516 747.618 897.712 746.366 901.035 746.255L849.819 781.68C834.459 791.267 818.377 799.867 802.025 807.634C774.169 820.864 745.22 830.824 715.599 839.277C630.383 863.595 540.273 873.266 451.786 869.145C420.075 867.668 388.85 863.811 357.516 858.85C333.18 854.997 309.228 849.227 285.884 841.379C291.517 839.284 298.513 839.043 304.473 838.141L342.531 832.278L375.208 826.8C382.092 825.523 388.878 823.776 395.819 822.834Z"/>
	<path fill="#779B9A" transform="scale(0.488281 0.488281)" d="M61.6881 697.92C56.5716 649.295 68.166 601.535 91.7929 558.968C113.455 519.943 144.148 487.215 179.225 459.912L189.352 452.016C190.864 450.835 192.532 449.182 194.396 448.646L194.858 453.134L194.97 453.411L194.091 514.4C170.651 544.91 153.607 581.159 158.787 620.538C163.845 658.986 189.199 691.333 219.275 714.236C236.406 727.281 255.777 739.517 275.917 747.364C274.19 748.265 271.234 747.657 269.268 747.507L247.669 745.12L131.766 727.772L76.0814 715.633C70.9264 710.273 65.6556 704.211 61.6881 697.92Z"/>
	<defs>
		<linearGradient id="gradient_1" gradientUnits="userSpaceOnUse" x1="374.30231" y1="670.69812" x2="320.67929" y2="850.7735">
			<stop offset="0" stop-color="#166984"/>
			<stop offset="1" stop-color="#1E7F9F"/>
		</linearGradient>
	</defs>
	<path fill="url(#gradient_1)" transform="scale(0.488281 0.488281)" d="M76.0814 715.633L131.766 727.772L247.669 745.12L269.268 747.507C271.234 747.657 274.19 748.265 275.917 747.364C282.51 748.933 289.277 752.52 295.75 754.755C308.063 759.006 320.88 762.235 333.614 764.957C361.29 770.875 389.344 773.773 417.611 774.833C438.974 775.633 460.443 775.777 481.778 774.195C530.629 770.572 578.22 759.178 624.885 744.711L634.952 749.514L578.062 771.914L534.353 786.806L395.819 822.834C388.878 823.776 382.092 825.523 375.208 826.8L342.531 832.278L304.473 838.141C298.513 839.043 291.517 839.284 285.884 841.379C226.232 824.272 167.667 796.079 119.099 757.268C103.516 744.815 88.5505 731.268 76.0814 715.633Z"/>
	<path fill="#22A2D5" transform="scale(0.488281 0.488281)" d="M979.819 653.588C970.603 672.814 957.888 690.268 943.975 706.353C934.539 717.262 924.388 727.828 913.267 737.038C909.648 740.035 905.363 744.175 901.188 746.237L901.035 746.255C897.712 746.366 894.516 747.618 891.399 748.689L875.034 754.645L842.755 765.162L780 783.025L731.367 794.183L657.969 809.408C571.391 824.481 483.451 828.894 395.819 822.834L534.353 786.806L578.062 771.914L634.952 749.514L641.988 746.733C645.19 747.389 649.378 746.496 652.629 746.123L684.952 741.196C740.264 732.028 794.715 719.331 848.5 703.545C893.282 690.401 938.179 674.852 979.819 653.588Z"/>
	<path fill="#BDD6CE" transform="scale(0.488281 0.488281)" d="M774.205 329.108L800.493 340.846C857.104 366.492 911.433 399.755 952.196 447.418C967.381 465.174 980.253 484.116 989.426 505.709C1000.2 531.079 1005.39 558.709 1002.06 586.224C1000.16 601.968 995.242 618.377 989.25 633.013C986.565 639.571 983.82 647.751 979.819 653.588C938.179 674.852 893.282 690.401 848.5 703.545C794.715 719.331 740.264 732.028 684.952 741.196L652.629 746.123C649.378 746.496 645.19 747.389 641.988 746.733L679.533 729.311C691.734 724.237 703.618 717.224 715 710.523C756.789 685.921 794.588 656.376 823.661 617.152C846.089 586.893 861.636 547.548 855.898 509.414C850.723 475.016 830.713 448.469 803.196 428.24C801.917 426.321 801.271 423.364 800.587 421.149L795.389 403.006L783.427 362.218C780.912 353.625 778.715 344.571 775.511 336.222C775.241 333.837 773.429 331.359 774.205 329.108Z"/>
	<path fill="#0F274B" transform="scale(0.488281 0.488281)" d="M700.056 182.553C710.85 196.591 719.998 212.097 728.593 227.557L757.26 285.19L765.098 304.564C765.905 306.603 766.963 310.649 768.571 312.083C768.601 314.565 772.089 326.877 773.401 328.529C773.654 328.848 773.847 328.906 774.205 329.108C773.429 331.359 775.241 333.837 775.511 336.222C778.715 344.571 780.912 353.625 783.427 362.218L795.389 403.006L800.587 421.149C801.271 423.364 801.917 426.321 803.196 428.24C830.713 448.469 850.723 475.016 855.898 509.414C861.636 547.548 846.089 586.893 823.661 617.152C794.588 656.376 756.789 685.921 715 710.523C703.618 717.224 691.734 724.237 679.533 729.311L641.988 746.733L634.952 749.514L624.885 744.711C578.22 759.178 530.629 770.572 481.778 774.195C460.443 775.777 438.974 775.633 417.611 774.833C389.344 773.773 361.29 770.875 333.614 764.957C320.88 762.235 308.063 759.006 295.75 754.755C289.277 752.52 282.51 748.933 275.917 747.364C255.777 739.517 236.406 727.281 219.275 714.236C189.199 691.333 163.845 658.986 158.787 620.538C153.607 581.159 170.651 544.91 194.091 514.4L194.97 453.411L194.858 453.134L197.497 396.249L201.702 354.628L204.004 338.07L216.881 280.214C231.662 297.752 250.821 309.911 271.524 319.342C305.118 334.647 341.156 342.277 377.79 345.452L417 346.467L444.068 344.162C528.702 334.108 612.207 294.858 668.101 229.612C676.725 219.544 684.39 208.714 691.376 197.453C694.251 192.818 696.335 187.108 699.732 182.934L700.056 182.553Z"/>
	<path fill="#23426E" transform="scale(0.488281 0.488281)" d="M624.885 744.711C639.784 739.609 654.272 734.878 669.608 731.201C672.871 730.418 676.164 728.613 679.533 729.311L641.988 746.733L634.952 749.514L624.885 744.711Z"/>
	<path fill="#FAB70C" transform="scale(0.488281 0.488281)" d="M817.785 484.035C824.697 506.138 828.029 530.49 823.303 553.403C820.898 565.063 816.484 576.386 810.944 586.899C797.573 612.274 777.26 633.624 755.512 652.037C713.825 687.331 666.203 712.849 613.994 728.825L605.448 731.295L588.514 717.315C576.461 706.955 564.199 694.666 554.629 681.977L626.557 660.495C676.635 641.417 724.546 613.384 763.034 575.886C778.424 560.891 792.467 544.363 803.013 525.554C807.889 516.858 812.063 507.408 814.587 497.743C815.597 493.876 815.784 488.078 817.458 484.663L817.785 484.035Z"/>
	<path fill="#23426E" transform="scale(0.488281 0.488281)" d="M803.998 433.431C804.737 434.695 805.098 435.518 805.26 437.005C805.744 441.436 807.478 446.169 808.644 450.505L817.446 482.172C817.628 482.83 817.738 483.363 817.785 484.035L817.458 484.663C815.784 488.078 815.597 493.876 814.587 497.743C812.063 507.408 807.889 516.858 803.013 525.554C792.467 544.363 778.424 560.891 763.034 575.886C724.546 613.384 676.635 641.417 626.557 660.495L554.629 681.977L554.282 681.949L520.968 634.689C529.857 633.563 538.824 631.201 547.539 629.133C584.635 620.333 620.668 607.82 654.616 590.369C662.872 586.125 671.296 581.905 679.169 576.982C692.32 570.292 704.702 561.455 716.364 552.463C726.403 544.722 736.334 536.755 745.446 527.926C763.296 510.628 778.53 490.53 790.53 468.783C796.956 458.204 801.686 445.577 803.998 433.431Z"/>
	<path fill="#D38909" transform="scale(0.488281 0.488281)" d="M605.448 731.295L555.431 743.25C525.037 749.205 494.155 752.776 463.195 753.761C396.644 755.878 326.223 747.425 266.62 716.102C251.65 708.235 237.24 699.046 224.923 687.368C214.344 677.337 204.619 664.516 200.155 650.472C197.316 641.539 196.363 631.989 195.434 622.704L193.311 590.802C193.747 590.965 193.872 591.466 194.091 591.868C196.67 596.622 198.926 601.359 201.972 605.857C213.979 623.59 231.958 638.169 250.104 649.247C288.424 672.639 331.755 685.072 375.984 690.889C414.439 695.947 453.311 696.099 491.862 692.116C512.819 689.951 533.782 686.89 554.282 681.949L554.629 681.977C564.199 694.666 576.461 706.955 588.514 717.315L605.448 731.295Z"/>
	<path fill="#8E1918" transform="scale(0.488281 0.488281)" d="M216.881 280.214C231.662 297.752 250.821 309.911 271.524 319.342C305.118 334.647 341.156 342.277 377.79 345.452L417 346.467C420.38 367.668 425.588 388.822 430.983 409.586L441.052 447.5C443.344 455.468 444.997 464.587 448.323 472.126L448.493 472.335L467.619 527.108L467.905 527.134C469.148 531.857 471.528 536.57 473.326 541.129C482.731 564.971 493.52 588.107 506.128 610.432L515.632 626.265C517.256 628.912 519.341 631.79 520.603 634.621L460.76 641.687C425.036 643.945 389.025 641.391 353.829 634.973C300.773 625.299 248.264 606.885 207.226 570.651C203.925 567.736 200.586 564.78 197.532 561.607C196.764 560.81 195.301 559.56 194.78 558.619C193.821 556.89 194.449 520.067 194.091 514.4L194.97 453.411L194.858 453.134L197.497 396.249L201.702 354.628L204.004 338.07L216.881 280.214Z"/>
	<path fill="#0F274B" transform="scale(0.488281 0.488281)" d="M197.497 396.249C217.058 418.313 242.547 432.846 269.5 444.074C309.978 460.937 353.506 469.535 397.176 472.221L434.119 472.714C438.756 472.584 443.74 472.799 448.323 472.126L448.493 472.335L467.619 527.108C464.748 527.931 461.035 527.843 458.028 528.107L434.275 529.775C376.007 531.731 315.724 521.068 262.5 497.041C237.98 485.972 214.692 471.841 194.97 453.411L194.858 453.134L197.497 396.249Z"/>
	<path fill="#D38909" transform="scale(0.488281 0.488281)" d="M216.881 280.214C231.662 297.752 250.821 309.911 271.524 319.342C305.118 334.647 341.156 342.277 377.79 345.452L417 346.467C420.38 367.668 425.588 388.822 430.983 409.586L441.052 447.5C443.344 455.468 444.997 464.587 448.323 472.126C443.74 472.799 438.756 472.584 434.119 472.714L397.176 472.221C353.506 469.535 309.978 460.937 269.5 444.074C242.547 432.846 217.058 418.313 197.497 396.249L201.702 354.628L204.004 338.07L216.881 280.214Z"/>
	<path fill="#C82F29" transform="scale(0.488281 0.488281)" d="M700.056 182.553C710.85 196.591 719.998 212.097 728.593 227.557L757.26 285.19L765.098 304.564C765.905 306.603 766.963 310.649 768.571 312.083C768.601 314.565 772.089 326.877 773.401 328.529C773.654 328.848 773.847 328.906 774.205 329.108C773.429 331.359 775.241 333.837 775.511 336.222C778.715 344.571 780.912 353.625 783.427 362.218L795.389 403.006L800.587 421.149C801.271 423.364 801.917 426.321 803.196 428.24L803.998 433.431C801.686 445.577 796.956 458.204 790.53 468.783C778.53 490.53 763.296 510.628 745.446 527.926C736.334 536.755 726.403 544.722 716.364 552.463C704.702 561.455 692.32 570.292 679.169 576.982C671.296 581.905 662.872 586.125 654.616 590.369C620.668 607.82 584.635 620.333 547.539 629.133C538.824 631.201 529.857 633.563 520.968 634.689L520.603 634.621C519.341 631.79 517.256 628.912 515.632 626.265L506.128 610.432C493.52 588.107 482.731 564.971 473.326 541.129C471.528 536.57 469.148 531.857 467.905 527.134L467.619 527.108L448.493 472.335L448.323 472.126C444.997 464.587 443.344 455.468 441.052 447.5L430.983 409.586C425.588 388.822 420.38 367.668 417 346.467L444.068 344.162C528.702 334.108 612.207 294.858 668.101 229.612C676.725 219.544 684.39 208.714 691.376 197.453C694.251 192.818 696.335 187.108 699.732 182.934L700.056 182.553Z"/>
	<path fill="#EA6F56" transform="scale(0.488281 0.488281)" d="M679.169 576.982L676.894 574.509C664.464 558.851 657.205 538.537 659.759 518.402C660.794 510.236 662.398 502.713 665.18 494.936C672.37 474.845 689.304 455.803 708.688 446.769C726.041 438.681 744.305 437.049 762.406 443.819C774.128 448.202 785.263 457.32 790.53 468.783C778.53 490.53 763.296 510.628 745.446 527.926C736.334 536.755 726.403 544.722 716.364 552.463C704.702 561.455 692.32 570.292 679.169 576.982Z"/>
	<path fill="#23426E" transform="scale(0.488281 0.488281)" d="M757.26 285.19L765.098 304.564C765.905 306.603 766.963 310.649 768.571 312.083C768.601 314.565 772.089 326.877 773.401 328.529C773.654 328.848 773.847 328.906 774.205 329.108C773.429 331.359 775.241 333.837 775.511 336.222C771.503 351.124 764.763 363.879 756.209 376.658C731.004 414.315 692.775 443.234 653.88 465.642C619.999 485.16 585.001 499.939 547.5 511.055C521.352 518.805 495.075 524.493 467.905 527.134L467.619 527.108L448.493 472.335L482.504 468.319C523.263 461.82 563.948 449.849 601.07 431.64C613.492 425.95 625.496 419.333 637.281 412.433C680.934 386.874 719.259 354.293 745.263 310.41L757.26 285.19Z"/>
	<path fill="#FAB70C" transform="scale(0.488281 0.488281)" d="M700.056 182.553C710.85 196.591 719.998 212.097 728.593 227.557L757.26 285.19L745.263 310.41C719.259 354.293 680.934 386.874 637.281 412.433C625.496 419.333 613.492 425.95 601.07 431.64C563.948 449.849 523.263 461.82 482.504 468.319L448.493 472.335L448.323 472.126C444.997 464.587 443.344 455.468 441.052 447.5L430.983 409.586C425.588 388.822 420.38 367.668 417 346.467L444.068 344.162C528.702 334.108 612.207 294.858 668.101 229.612C676.725 219.544 684.39 208.714 691.376 197.453C694.251 192.818 696.335 187.108 699.732 182.934L700.056 182.553Z"/>
	<path fill="#FDD14B" transform="scale(0.488281 0.488281)" d="M601.07 431.64L592.863 416.079C583.964 397.283 580.519 377.401 582.931 356.724C586.123 329.37 600.851 303.348 622.568 286.424C641.68 271.53 665.896 266 689.75 269.182C707.869 271.6 724.879 282.44 735.985 296.75C739.269 300.982 741.655 305.846 744.952 310.024L745.263 310.41C719.259 354.293 680.934 386.874 637.281 412.433C625.496 419.333 613.492 425.95 601.07 431.64Z"/>
</svg>
