<?xml version="1.0" encoding="utf-8" ?>
<svg xmlns="http://www.w3.org/2000/svg" xmlns:xlink="http://www.w3.org/1999/xlink" width="500" height="500">
	<path fill="#EABA57" transform="scale(0.488281 0.488281)" d="M-0 -0L1024 0L1024 1024L-0 1024L0 -0Z"/>
	<path fill="#181016" transform="scale(0.488281 0.488281)" d="M120.44 682.419L131.621 682.564C130.551 687.98 130.463 693.683 130.308 699.194L130.388 718.25L128.418 718.66L120.041 718.692L120.029 694.24C120.033 690.584 119.482 685.881 120.44 682.419Z"/>
	<path fill="#181016" transform="scale(0.488281 0.488281)" d="M893.986 682.007L905.56 681.96L905.539 720.025L896.91 720.268L895.564 719.75C895.373 707.145 896.724 694.397 893.986 682.007Z"/>
	<path fill="#E54B1F" transform="scale(0.488281 0.488281)" d="M130.308 699.194C131.299 699.838 132.06 700.279 132.803 701.224L132.534 702.876C132.016 712.969 141.901 726.791 148.396 734C159.497 746.322 178.664 756.442 195.443 757.062L197.752 757.1L197.763 783.053C186.633 780.574 176.561 776.537 166.88 770.468C152.947 761.733 140.756 749.003 134.474 733.672C132.538 728.945 131.538 724.068 130.384 719.117L128.418 718.66L130.388 718.25L130.308 699.194Z"/>
	<path fill="#E54B1F" transform="scale(0.488281 0.488281)" d="M823.428 754.666C842.635 752.139 861.925 743.153 879.102 734.458L893.482 726.806L893.871 726.626C891.511 733.23 888.983 739.891 885.477 745.987C878.159 758.711 866.794 769.081 853.544 775.296C843.829 779.853 833.976 782.099 823.322 783.192L823.428 754.666Z"/>
	<path fill="#535555" transform="scale(0.488281 0.488281)" d="M848.075 581.733L870.408 581.843C877.846 581.839 886.208 582.624 893.532 581.685L893.534 589.998L893.581 657.939L881.884 657.943L870.406 645.393C863.792 639.406 856.305 634.297 848.228 630.495L848.075 581.733Z"/>
	<path fill="#181016" transform="scale(0.488281 0.488281)" d="M848.075 581.733L870.408 581.843C877.846 581.839 886.208 582.624 893.532 581.685L893.534 589.998L870.505 589.893L870.757 629C870.779 633.933 871.643 640.759 870.406 645.393C863.792 639.406 856.305 634.297 848.228 630.495L848.075 581.733Z"/>
	<path fill="#535555" transform="scale(0.488281 0.488281)" d="M161.977 582.083L174.027 582.031L174.098 591.011L174.389 631.827C173.151 633.846 169.304 635.06 167.234 636.229C163.89 638.117 160.743 640.286 157.596 642.48C152.244 647.248 147.578 652.096 142.882 657.502C137.255 665.165 134.651 672.948 131.682 681.833L131.621 682.564L120.44 682.419C123.061 681.419 128.074 682.148 130.997 682.201L131.112 583.231L131.044 582.127L156.982 582.107L161.977 582.083Z"/>
	<path fill="#152E38" transform="scale(0.488281 0.488281)" d="M131.682 681.833C130.576 674.013 131.425 665.079 131.463 657.133L142.882 657.502C137.255 665.165 134.651 672.948 131.682 681.833Z"/>
	<path fill="#152E38" transform="scale(0.488281 0.488281)" d="M131.044 582.127L156.982 582.107C157.002 585.003 156.804 588.135 157.14 590.999L156.972 591.36C154.243 590.879 151.109 591.163 148.33 591.183L131.514 591.458C131.537 588.857 131.603 586.286 131.194 583.708L131.112 583.231L131.044 582.127Z"/>
	<path fill="#152E38" transform="scale(0.488281 0.488281)" d="M161.977 582.083L174.027 582.031L174.098 591.011L174.389 631.827C173.151 633.846 169.304 635.06 167.234 636.229C163.89 638.117 160.743 640.286 157.596 642.48C156.158 639.742 156.976 598.267 156.972 591.36L157.14 590.999C156.804 588.135 157.002 585.003 156.982 582.107L161.977 582.083Z"/>
	<path fill="#181016" transform="scale(0.488281 0.488281)" d="M161.977 582.083L174.027 582.031L174.098 591.011C168.745 591.087 162.378 591.777 157.14 590.999C156.804 588.135 157.002 585.003 156.982 582.107L161.977 582.083Z"/>
	<path fill="#F27E18" transform="scale(0.488281 0.488281)" d="M862.025 472.028L889.119 472.068C894.405 472.081 899.982 471.728 905.197 472.586C905.956 481.242 905.805 490.155 905.855 498.846L905.665 545.889L905.644 568.199C905.671 571.224 906.224 574.774 905.888 577.75C905.793 578.585 905.507 579.092 904.976 579.75C903.047 582.138 896.447 581.357 893.532 581.685C886.208 582.624 877.846 581.839 870.408 581.843L870.323 581.719L862.094 581.596L862.025 472.028Z"/>
	<path fill="#D1973D" transform="scale(0.488281 0.488281)" d="M875.555 487.945L901.489 487.908L901.122 510.291L875.834 510.31L875.555 487.945Z"/>
	<path fill="#A1321D" transform="scale(0.488281 0.488281)" d="M710.1 820.658C719.705 816.356 729.739 808.523 737.707 801.75C759.293 783.404 775.193 761.119 788.177 736.072C792.902 726.959 797 717.307 802.112 708.431C802.386 718.213 801.893 728.596 800.642 738.297L797.778 756.562C789.058 800.996 763.672 847.754 725.366 873.328L709.75 882.571L709.936 821.108L710.1 820.658Z"/>
	<path fill="#F27E18" transform="scale(0.488281 0.488281)" d="M197.731 625.278C201.094 622.836 203.568 621.924 207.75 622.522C210.07 622.854 212.295 624.094 213.591 626.078C214.67 627.727 214.908 629.943 215.296 631.848C216.634 638.406 216.402 644.342 216.283 651.044L221.782 651.025L220.543 702.249L223.042 759.009L223.126 759.452L216.531 759.461C216.553 764.182 217.674 777.548 215.75 781.133C212.842 783.731 208.586 784.525 204.75 784.399L200.75 783.671L197.763 783.053L197.752 757.1L195.443 757.062C178.664 756.442 159.497 746.322 148.396 734C141.901 726.791 132.016 712.969 132.534 702.876L132.803 701.224C132.06 700.279 131.299 699.838 130.308 699.194C130.463 693.683 130.551 687.98 131.621 682.564L131.682 681.833C134.651 672.948 137.255 665.165 142.882 657.502C147.578 652.096 152.244 647.248 157.596 642.48C160.743 640.286 163.89 638.117 167.234 636.229C169.304 635.06 173.151 633.846 174.389 631.827C180.302 627.844 190.762 626.762 197.731 625.278Z"/>
	<path fill="#D1973D" transform="scale(0.488281 0.488281)" d="M174.389 631.827C180.302 627.844 190.762 626.762 197.731 625.278L197.698 640.843L197.8 646.877C176.457 650.809 157.295 660.994 144.699 679.222C139.785 686.335 135.98 693.941 133.349 702.178L132.534 702.876L132.803 701.224C132.06 700.279 131.299 699.838 130.308 699.194C130.463 693.683 130.551 687.98 131.621 682.564L131.682 681.833C134.651 672.948 137.255 665.165 142.882 657.502C147.578 652.096 152.244 647.248 157.596 642.48C160.743 640.286 163.89 638.117 167.234 636.229C169.304 635.06 173.151 633.846 174.389 631.827Z"/>
	<path fill="#F4F8FE" transform="scale(0.488281 0.488281)" d="M132.803 701.224C133.282 688.51 141.466 675.018 149.637 665.745C161.058 652.784 180.247 641.969 197.698 640.843L197.8 646.877C176.457 650.809 157.295 660.994 144.699 679.222C139.785 686.335 135.98 693.941 133.349 702.178L132.534 702.876L132.803 701.224Z"/>
	<path fill="#A1321D" transform="scale(0.488281 0.488281)" d="M197.731 625.278C201.094 622.836 203.568 621.924 207.75 622.522C210.07 622.854 212.295 624.094 213.591 626.078C214.67 627.727 214.908 629.943 215.296 631.848C216.634 638.406 216.402 644.342 216.283 651.044L221.782 651.025L220.543 702.249L223.042 759.009L223.126 759.452L216.531 759.461C216.553 764.182 217.674 777.548 215.75 781.133C212.842 783.731 208.586 784.525 204.75 784.399L200.75 783.671L197.763 783.053L197.752 757.1L197.8 646.877L197.698 640.843L197.731 625.278Z"/>
	<path fill="#181016" transform="scale(0.488281 0.488281)" d="M216.283 651.044L221.782 651.025L220.543 702.249L223.042 759.009L216.682 759.03C215.829 756.908 216.438 752.081 216.441 749.596L216.466 722.285L216.283 651.044Z"/>
	<path fill="#F27E18" transform="scale(0.488281 0.488281)" d="M823.38 623.971C831.824 625.495 840.253 627.252 848.228 630.495C856.305 634.297 863.792 639.406 870.406 645.393L881.884 657.943L893.581 657.939L893.359 679.543C893.465 680.531 893.419 681.167 893.986 682.007C896.724 694.397 895.373 707.145 895.564 719.75L896.91 720.268L895.401 720.75C894.986 722.736 894.662 724.749 893.871 726.626L893.482 726.806L879.102 734.458C861.925 743.153 842.635 752.139 823.428 754.666L823.322 783.192L808.028 783.188L808.106 756.614L797.778 756.562L800.642 738.297C801.893 728.596 802.386 718.213 802.112 708.431C802.961 704.487 802.758 699.808 802.846 695.762C803.197 679.445 802.257 663.019 799.564 646.91L808.142 646.903C807.197 639.68 807.995 631.348 807.978 624.002L823.38 623.971Z"/>
	<path fill="#152E38" transform="scale(0.488281 0.488281)" d="M881.884 657.943L893.581 657.939L893.359 679.543C890.86 676.785 889.397 671.444 887.72 668.05C885.989 664.547 883.961 661.248 881.884 657.943Z"/>
	<path fill="#F4F8FE" transform="scale(0.488281 0.488281)" d="M828.898 643.25C832.437 642.712 836.121 643.316 839.594 644.063C856.536 647.708 873.246 660.127 882.443 674.711C884.64 678.195 888.691 685.189 887.75 689.331C886.951 689.14 886.363 688.797 885.824 688.17C884.05 686.105 882.668 683.252 881.143 680.972C878.469 676.978 875.313 673.434 871.851 670.108C863.413 662 852.967 654.847 842.326 649.937C837.911 647.899 833.278 646.42 828.928 644.25L828.898 643.25Z"/>
	<path fill="#A1321D" transform="scale(0.488281 0.488281)" d="M808.142 646.903C807.197 639.68 807.995 631.348 807.978 624.002L823.38 623.971L823.428 754.666L823.322 783.192L808.028 783.188L808.106 756.614L797.778 756.562L800.642 738.297C801.893 728.596 802.386 718.213 802.112 708.431C802.961 704.487 802.758 699.808 802.846 695.762C803.197 679.445 802.257 663.019 799.564 646.91L808.142 646.903Z"/>
	<path fill="#181016" transform="scale(0.488281 0.488281)" d="M808.142 646.903C809.183 650.144 808.531 655.072 808.524 658.58L808.437 685.912L808.106 756.614L797.778 756.562L800.642 738.297C801.893 728.596 802.386 718.213 802.112 708.431C802.961 704.487 802.758 699.808 802.846 695.762C803.197 679.445 802.257 663.019 799.564 646.91L808.142 646.903Z"/>
	<path fill="#D1973D" transform="scale(0.488281 0.488281)" d="M709.936 821.108L709.75 882.571L709.89 885.606L821.635 890.966L880.577 895.505C890.871 896.64 901.172 897.745 911.325 899.84C914.587 900.513 919.079 901.025 922 902.549C923.318 903.236 923.748 903.904 924.238 905.25C923.37 906.625 922.549 907.05 921.109 907.673C916.36 909.731 910.717 910.837 905.647 911.868C895.525 913.924 885.278 915.218 875.029 916.435L772.298 924.516L718.113 927.393L583.068 930.504L351.411 928.773L240.091 924.241L170.766 918.297C156.003 916.786 141.287 915.242 126.688 912.517C120.773 911.414 113.827 910.278 108.316 907.864C106.662 907.139 105.701 906.452 105.08 904.75C105.269 904.257 105.392 903.839 105.75 903.416C108.221 900.501 116.603 899.778 120.389 899.067C148.972 893.698 178.289 892.098 207.25 890.024L309.899 884.832L310.008 879.245L310.001 830.835C320.949 836.228 331.273 838.909 343.457 839.719C345.557 839.859 348.714 840.355 350.769 839.793L351.326 839.571L350.903 898.328L364.592 898.153L365.117 898.183C369.612 898.814 375.026 898.287 379.607 898.298C388.03 898.318 397.607 899.21 405.903 897.762C408.739 897.528 411.568 896.808 414.245 895.846C424.92 892.011 431.864 884.596 436.653 874.605C437.52 874.88 438.199 875.04 439.118 875.045L480.24 874.502L570.81 874.695L582.136 874.858C583.979 874.907 586.152 875.209 587.878 874.562C593.051 884.875 599.51 892.504 610.788 896.159C614.213 897.269 617.716 897.617 621.276 897.957L656.079 898.036L655.935 840.94L656.022 840.62C660.15 840.5 665.093 838.631 669.142 837.66L669.196 837.108C672.449 836.843 675.83 835.598 678.953 834.662C689.598 831.473 700.401 826.798 709.936 821.108Z"/>
	<path fill="#A59B84" transform="scale(0.488281 0.488281)" d="M310.001 830.835C320.949 836.228 331.273 838.909 343.457 839.719C345.557 839.859 348.714 840.355 350.769 839.793L351.326 839.571L350.903 898.328C350.661 899.956 350.359 901.389 349.372 902.75C346.819 906.269 342.191 908.6 338.007 909.437L337.25 909.58C334.967 910.032 332.783 910.127 330.462 910.099C324.592 910.029 319.242 908.175 315.123 903.881C309.955 898.494 309.683 891.88 309.899 884.832L310.008 879.245L310.001 830.835Z"/>
	<path fill="#A59B84" transform="scale(0.488281 0.488281)" d="M709.936 821.108L709.75 882.571L709.89 885.606C709.936 892.764 710.924 900.281 705.513 905.851C704.035 907.372 702.651 908.569 700.75 909.546L700.211 909.829C694.244 912.863 684.803 912.795 678.554 910.719C675.01 909.542 671.968 907.191 670.295 903.8C669.48 902.148 669.271 900.565 669.129 898.75L667.54 898.116L656.079 898.036L655.935 840.94L656.022 840.62C660.15 840.5 665.093 838.631 669.142 837.66L669.196 837.108C672.449 836.843 675.83 835.598 678.953 834.662C689.598 831.473 700.401 826.798 709.936 821.108Z"/>
	<path fill="#3DB29E" transform="scale(0.488281 0.488281)" d="M669.142 837.66L669.302 897.385C668.607 897.867 668.423 897.935 667.54 898.116L656.079 898.036L655.935 840.94L656.022 840.62C660.15 840.5 665.093 838.631 669.142 837.66Z"/>
	<path fill="#E54B1F" transform="scale(0.488281 0.488281)" d="M119.953 472.102C121.82 445.123 125.53 417.789 132.117 391.546C152.083 311.989 195.837 242.413 257.62 188.704C335.441 121.053 438.86 87.5663 541.456 94.7199C643.611 101.843 741.697 153.427 808.472 230.5C853.054 281.959 883.46 346.363 897.136 412.921C901.192 432.659 903.365 452.549 905.197 472.586C899.982 471.728 894.405 472.081 889.119 472.068L862.025 472.028L842.079 472.073C840.106 472.073 835.848 472.652 834.231 471.537C831.509 406.189 808.663 341.23 769.228 288.933C756.443 271.978 741.762 256.486 726.144 242.126C665.902 186.738 581.47 157.087 499.913 160.589C452.452 162.627 405.296 174.539 363.078 196.49C328.719 214.356 297.922 238.747 271.79 267.244C221.64 321.935 190.137 398.173 189.332 472.469L189.103 581.984L174.027 582.031L161.977 582.083L156.982 582.107L131.044 582.127L125.25 582.437C123.447 582.414 121.021 582.067 119.778 580.648C119.15 579.931 119.136 579.652 119.039 578.74C118.628 574.901 118.97 570.697 118.972 566.826L119 543.764L119.953 472.102Z"/>
	<path fill="#F27E18" transform="scale(0.488281 0.488281)" d="M119.953 472.102L148.078 472.045C152.611 472.055 157.477 471.696 161.952 472.213L161.977 582.083L156.982 582.107L131.044 582.127L125.25 582.437C123.447 582.414 121.021 582.067 119.778 580.648C119.15 579.931 119.136 579.652 119.039 578.74C118.628 574.901 118.97 570.697 118.972 566.826L119 543.764L119.953 472.102Z"/>
	<path fill="#D1973D" transform="scale(0.488281 0.488281)" d="M122.243 487.57L147.013 487.66L146.994 510.035L122.464 510.037L122.243 487.57Z"/>
	<path fill="#43181A" transform="scale(0.488281 0.488281)" d="M162.395 472.195C162.787 461.415 164.193 450.529 165.656 439.839C176.86 357.946 216.329 283.352 276.75 227.231C329.134 178.575 397.919 146.756 468.754 137.879C484.219 135.941 500.355 134.653 515.937 135.231C535.547 135.958 554.931 137.299 574.268 140.851C635.192 152.042 694.299 181.18 741.012 221.821C751.17 230.659 760.951 240.728 770.069 250.619C816.071 300.514 845.921 365.387 857.514 432C859.77 444.962 862.255 458.832 862.025 472.028L842.079 472.073C840.106 472.073 835.848 472.652 834.231 471.537C831.509 406.189 808.663 341.23 769.228 288.933C756.443 271.978 741.762 256.486 726.144 242.126C665.902 186.738 581.47 157.087 499.913 160.589C452.452 162.627 405.296 174.539 363.078 196.49C328.719 214.356 297.922 238.747 271.79 267.244C221.64 321.935 190.137 398.173 189.332 472.469L173.571 472.496C169.877 472.496 166.055 472.716 162.395 472.195Z"/>
	<path fill="#EABA57" transform="scale(0.488281 0.488281)" d="M189.332 472.469C190.137 398.173 221.64 321.935 271.79 267.244C297.922 238.747 328.719 214.356 363.078 196.49C405.296 174.539 452.452 162.627 499.913 160.589C581.47 157.087 665.902 186.738 726.144 242.126C741.762 256.486 756.443 271.978 769.228 288.933C808.663 341.23 831.509 406.189 834.231 471.537C835.848 472.652 840.106 472.073 842.079 472.073L862.025 472.028L862.094 581.596L870.323 581.719L870.408 581.843L848.075 581.733L848.228 630.495C840.253 627.252 831.824 625.495 823.38 623.971L807.978 624.002C807.995 631.348 807.197 639.68 808.142 646.903L799.564 646.91C802.257 663.019 803.197 679.445 802.846 695.762C802.758 699.808 802.961 704.487 802.112 708.431C797 717.307 792.902 726.959 788.177 736.072C775.193 761.119 759.293 783.404 737.707 801.75C729.739 808.523 719.705 816.356 710.1 820.658L709.936 821.108C700.401 826.798 689.598 831.473 678.953 834.662C675.83 835.598 672.449 836.843 669.196 837.108L669.142 837.66C665.093 838.631 660.15 840.5 656.022 840.62L655.935 840.94L656.079 898.036L621.276 897.957C617.716 897.617 614.213 897.269 610.788 896.159C599.51 892.504 593.051 884.875 587.878 874.562C586.152 875.209 583.979 874.907 582.136 874.858L570.81 874.695L480.24 874.502L439.118 875.045C438.199 875.04 437.52 874.88 436.653 874.605C431.864 884.596 424.92 892.011 414.245 895.846C411.568 896.808 408.739 897.528 405.903 897.762C397.607 899.21 388.03 898.318 379.607 898.298C375.026 898.287 369.612 898.814 365.117 898.183L364.592 898.153L350.903 898.328L351.326 839.571L350.769 839.793C348.714 840.355 345.557 839.859 343.457 839.719C331.273 838.909 320.949 836.228 310.001 830.835L310.008 879.245L303.5 875.447C270.189 855.022 244.088 824.025 230.75 787.157C227.479 778.114 225.357 768.787 223.126 759.452L223.042 759.009L220.543 702.249L221.782 651.025L216.283 651.044C216.402 644.342 216.634 638.406 215.296 631.848C214.908 629.943 214.67 627.727 213.591 626.078C212.295 624.094 210.07 622.854 207.75 622.522C203.568 621.924 201.094 622.836 197.731 625.278C190.762 626.762 180.302 627.844 174.389 631.827L174.098 591.011L174.027 582.031L189.103 581.984L189.332 472.469Z"/>
	<path fill="#E54B1F" transform="scale(0.488281 0.488281)" d="M834.231 471.537C835.848 472.652 840.106 472.073 842.079 472.073L862.025 472.028L862.094 581.596L870.323 581.719L870.408 581.843L848.075 581.733L834.533 581.704L834.231 471.537Z"/>
	<path fill="#152E38" transform="scale(0.488281 0.488281)" d="M404.425 491.542C414.73 492.291 422.975 496.668 429.673 504.498C434.535 510.181 436.847 517.068 438.216 524.292C438.872 527.75 438.55 531.651 438.556 535.187L438.564 553.989L438.612 623.576L438.661 776.209L438.771 863.736C438.683 867.6 437.852 870.952 436.653 874.605C431.864 884.596 424.92 892.011 414.245 895.846C411.568 896.808 408.739 897.528 405.903 897.762L405.234 897.241C405.907 895.204 410.112 892.681 411.789 890.949C413.862 888.807 415.59 886.498 417.03 883.887C419.472 879.458 420.952 874.702 421.648 869.698C422.394 864.338 422.123 858.591 422.2 853.16L422.394 822.873L422.237 806.971C422.178 803.514 422.277 799.93 421.324 796.584C421.684 793.241 421.426 789.677 421.423 786.301L421.342 766.259L421.102 703.241L421.461 572.223L421.404 539.585C421.381 529.934 422.189 519.616 419.491 510.25C416.925 501.344 412.376 495.931 404.425 491.542Z"/>
	<path fill="#21454C" transform="scale(0.488281 0.488281)" d="M669.286 491.617C669.819 487.167 671.593 484.374 675.25 481.693C680.27 478.013 687.374 477.017 693.384 478.25C698.986 479.399 704.195 482.796 707.263 487.663C708.035 488.889 708.59 490.144 709.084 491.5L709.312 492.106C710.918 496.768 710.101 503.919 710.087 508.941C714.879 510.298 720.014 514.157 724.103 516.98C746.673 532.556 764.279 552.896 777.573 576.812C786.979 593.733 791.79 612.269 796.134 630.98C797.346 636.2 798.008 641.802 799.564 646.91C802.257 663.019 803.197 679.445 802.846 695.762C802.758 699.808 802.961 704.487 802.112 708.431C797 717.307 792.902 726.959 788.177 736.072C775.193 761.119 759.293 783.404 737.707 801.75C729.739 808.523 719.705 816.356 710.1 820.658L709.936 821.108C700.401 826.798 689.598 831.473 678.953 834.662C675.83 835.598 672.449 836.843 669.196 837.108L669.142 837.66C665.093 838.631 660.15 840.5 656.022 840.62L655.935 840.94L656.079 898.036L621.276 897.957C617.716 897.617 614.213 897.269 610.788 896.159C599.51 892.504 593.051 884.875 587.878 874.562C586.745 871.773 585.657 868.88 585.292 865.873C584.385 858.391 584.988 850.199 584.977 842.646L585.08 796.18L585.091 607.118L585.058 552.584C585.056 542.741 584.193 531.916 585.698 522.203C586.809 515.035 590.364 507.98 595.429 502.783C599.838 498.258 605.6 494.513 611.722 492.83C617.514 491.237 624.488 491.884 630.496 491.868L655.988 491.684L669.286 491.617Z"/>
	<path fill="#152E38" transform="scale(0.488281 0.488281)" d="M621.276 897.957C621.25 897.6 620.443 896.746 620.214 896.457C618.547 894.348 616.049 892.431 616.029 889.537L615.73 836.042C621.203 838.124 626.549 839.469 632.25 840.745C636.988 841.806 641.716 841.767 646.547 841.372C649.63 841.12 652.862 840.499 655.935 840.94L656.079 898.036L621.276 897.957Z"/>
	<path fill="#4BC5AD" transform="scale(0.488281 0.488281)" d="M655.988 491.684L669.286 491.617L669.332 624.006L669.196 837.108L669.142 837.66C665.093 838.631 660.15 840.5 656.022 840.62L656.078 595.926L655.988 491.684Z"/>
	<defs>
		<linearGradient id="gradient_0" gradientUnits="userSpaceOnUse" x1="661.10236" y1="547.76202" x2="719.21082" y2="556.71295">
			<stop offset="0" stop-color="#FEEAD9"/>
			<stop offset="1" stop-color="#ECF0E3"/>
		</linearGradient>
	</defs>
	<path fill="url(#gradient_0)" transform="scale(0.488281 0.488281)" d="M669.286 491.617C669.819 487.167 671.593 484.374 675.25 481.693C680.27 478.013 687.374 477.017 693.384 478.25C698.986 479.399 704.195 482.796 707.263 487.663C708.035 488.889 708.59 490.144 709.084 491.5L709.312 492.106C710.918 496.768 710.101 503.919 710.087 508.941L710.046 624.08L669.332 624.006L669.286 491.617Z"/>
	<path fill="#EEE0CA" transform="scale(0.488281 0.488281)" d="M669.332 624.006L710.046 624.08L710.1 820.658L709.936 821.108C700.401 826.798 689.598 831.473 678.953 834.662C675.83 835.598 672.449 836.843 669.196 837.108L669.332 624.006Z"/>
	<path fill="#437677" transform="scale(0.488281 0.488281)" d="M585.08 796.18L585.091 607.118L585.058 552.584C585.056 542.741 584.193 531.916 585.698 522.203C586.809 515.035 590.364 507.98 595.429 502.783C599.838 498.258 605.6 494.513 611.722 492.83C617.514 491.237 624.488 491.884 630.496 491.868L655.988 491.684L656.078 595.926C643.119 596.876 632.616 600.553 624.078 610.716C620.603 614.853 618.393 619.827 616.979 625L616.721 625.893C615.522 630.179 615.774 635.117 615.732 639.547L615.638 660.55L615.62 721.755L615.636 797.182C615.648 809.992 614.973 823.186 615.854 835.939C612.071 833.86 608.287 831.817 604.891 829.126C594.866 821.184 590.25 810.623 586.808 798.583L585.75 794.379L585.08 796.18Z"/>
	<path fill="#E54B1F" transform="scale(0.488281 0.488281)" d="M710.087 508.941C714.879 510.298 720.014 514.157 724.103 516.98C746.673 532.556 764.279 552.896 777.573 576.812C786.979 593.733 791.79 612.269 796.134 630.98C797.346 636.2 798.008 641.802 799.564 646.91C802.257 663.019 803.197 679.445 802.846 695.762C802.758 699.808 802.961 704.487 802.112 708.431C797 717.307 792.902 726.959 788.177 736.072C775.193 761.119 759.293 783.404 737.707 801.75C729.739 808.523 719.705 816.356 710.1 820.658L710.046 624.08L710.087 508.941Z"/>
	<path fill="#21454C" transform="scale(0.488281 0.488281)" d="M309.431 507.958C309.293 503.382 309.04 498.536 310.816 494.25C313.407 488 318.468 483.325 324.751 480.913C330.434 478.732 337.37 479.438 342.75 482.127C346.983 484.244 349.738 486.961 351.225 491.489L364.467 491.566L404.425 491.542C412.376 495.931 416.925 501.344 419.491 510.25C422.189 519.616 421.381 529.934 421.404 539.585L421.461 572.223L421.102 703.241L421.342 766.259L421.423 786.301C421.426 789.677 421.684 793.241 421.324 796.584C422.277 799.93 422.178 803.514 422.237 806.971L422.394 822.873L422.2 853.16C422.123 858.591 422.394 864.338 421.648 869.698C420.952 874.702 419.472 879.458 417.03 883.887C415.59 886.498 413.862 888.807 411.789 890.949C410.112 892.681 405.907 895.204 405.234 897.241L405.903 897.762C397.607 899.21 388.03 898.318 379.607 898.298C375.026 898.287 369.612 898.814 365.117 898.183L364.592 898.153L350.903 898.328L351.326 839.571L350.769 839.793C348.714 840.355 345.557 839.859 343.457 839.719C331.273 838.909 320.949 836.228 310.001 830.835L310.008 879.245L303.5 875.447C270.189 855.022 244.088 824.025 230.75 787.157C227.479 778.114 225.357 768.787 223.126 759.452L223.042 759.009L220.543 702.249L221.782 651.025L226.173 623.425C233.35 589.396 249.44 557.613 275.074 533.732C285.755 523.782 297.274 515.903 309.431 507.958Z"/>
	<path fill="#3DB29E" transform="scale(0.488281 0.488281)" d="M351.441 839.161L364.547 839.023L364.592 898.153L350.903 898.328L351.326 839.571L351.441 839.161Z"/>
	<path fill="#4BC5AD" transform="scale(0.488281 0.488281)" d="M351.225 491.489L364.467 491.566L364.471 595.1L364.547 839.023L351.441 839.161L351.241 618.998L351.225 491.489Z"/>
	<path fill="#EEE0CA" transform="scale(0.488281 0.488281)" d="M309.431 507.958C309.293 503.382 309.04 498.536 310.816 494.25C313.407 488 318.468 483.325 324.751 480.913C330.434 478.732 337.37 479.438 342.75 482.127C346.983 484.244 349.738 486.961 351.225 491.489L351.241 618.998L322.489 615.135C318.295 614.495 313.722 614.246 309.683 612.941L309.538 600.401L309.542 568.616L309.431 507.958Z"/>
	<path fill="#EEE0CA" transform="scale(0.488281 0.488281)" d="M309.683 612.941C313.722 614.246 318.295 614.495 322.489 615.135L351.241 618.998L351.441 839.161L351.326 839.571L350.769 839.793C348.714 840.355 345.557 839.859 343.457 839.719C331.273 838.909 320.949 836.228 310.001 830.835L309.944 823.306L309.683 612.941Z"/>
	<path fill="#437677" transform="scale(0.488281 0.488281)" d="M364.467 491.566L404.425 491.542C412.376 495.931 416.925 501.344 419.491 510.25C422.189 519.616 421.381 529.934 421.404 539.585L421.461 572.223L421.102 703.241L421.342 766.259L421.423 786.301C421.426 789.677 421.684 793.241 421.324 796.584C417.479 810.566 410.542 817.671 399.818 826.805L399.733 764.23L400.015 680.09L399.972 646.481C399.956 640.547 400.379 634.205 399.566 628.325C398.776 622.61 396.229 616.601 392.894 611.912C385.968 602.175 376.01 597.148 364.471 595.1L364.467 491.566Z"/>
	<path fill="#E54B1F" transform="scale(0.488281 0.488281)" d="M221.782 651.025L226.173 623.425C233.35 589.396 249.44 557.613 275.074 533.732C285.755 523.782 297.274 515.903 309.431 507.958L309.542 568.616L309.538 600.401L309.683 612.941L309.944 823.306L310.001 830.835L310.008 879.245L303.5 875.447C270.189 855.022 244.088 824.025 230.75 787.157C227.479 778.114 225.357 768.787 223.126 759.452L223.042 759.009L220.543 702.249L221.782 651.025Z"/>
	<path fill="#F27E18" transform="scale(0.488281 0.488281)" d="M309.538 600.401C307.984 602.498 307.169 605.887 306.159 608.341C304.735 611.803 303.018 614.898 300.898 617.981C297.631 622.73 293.037 627.297 287.81 629.853C282.033 632.678 273.66 634.53 267.399 632.279L266.75 632.031C260.021 629.584 254.625 624.661 251.368 618.247C246.274 608.217 246.715 595.917 250.093 585.42C254.584 571.464 264.829 554.93 278.251 548.164C283.254 545.643 289.495 543.945 294.969 545.946C301.527 548.344 305.351 556.491 307.512 562.621C308.186 564.53 308.428 566.342 309.335 568.201L309.542 568.616L309.538 600.401Z"/>
	<path fill="#A1321D" transform="scale(0.488281 0.488281)" d="M220.543 702.249C223.98 715.799 227.28 728.837 232.607 741.815C244.959 771.909 268.029 799.256 296.032 815.89L309.944 823.306L310.001 830.835L310.008 879.245L303.5 875.447C270.189 855.022 244.088 824.025 230.75 787.157C227.479 778.114 225.357 768.787 223.126 759.452L223.042 759.009L220.543 702.249Z"/>
</svg>
