<?xml version="1.0" encoding="utf-8" ?>
<svg xmlns="http://www.w3.org/2000/svg" xmlns:xlink="http://www.w3.org/1999/xlink" width="500" height="500">
	<path fill="#E1E0B0" transform="scale(0.488281 0.488281)" d="M-0 -0L1024 0L1024 1024L-0 1024L0 -0Z"/>
	<path fill="#182245" transform="scale(0.488281 0.488281)" d="M696.46 859.101L718.331 875.964L658.018 943.69L674.97 888.959C678.28 882.69 682.733 877.513 687.25 872.11C690.471 868.258 695.019 863.952 696.46 859.101Z"/>
	<path fill="#182245" transform="scale(0.488281 0.488281)" d="M389.434 908.6L432.515 908.405L432.545 933.612L345.122 933.959L389.434 908.6Z"/>
	<path fill="#108048" transform="scale(0.488281 0.488281)" d="M33.8657 716.439C34.3477 716.8 34.9462 717.043 35.3116 717.522C35.8295 718.201 36.2047 720.248 36.4374 721.091L39.0481 729.813C42.0183 739.427 45.3345 748.983 49.6095 758.098C56.8411 773.518 65.3268 788.338 75.7052 801.866C112.358 849.642 166.168 880.589 222.721 898.807L249.35 906.864C253.911 908.14 258.579 909.667 263.241 910.441C264.087 911.31 264.749 912.02 265.829 912.602L265.902 913.128C257.427 912.958 248.597 910.699 240.329 908.947C202.599 900.952 165.212 887.456 133.461 865.159C97.6086 839.981 69.5778 808.052 50.8299 768.329C43.1168 751.986 36.9687 734.277 33.8657 716.439Z"/>
	<path fill="#C53730" transform="scale(0.488281 0.488281)" d="M904.788 574.66C913.317 573.796 922.976 577.237 929.773 582.315C938.404 588.761 943.752 598.88 945.145 609.461C946.529 619.977 943.402 630.452 936.87 638.733C929.638 647.901 921.017 652.792 909.405 654.12C901 654.166 892.845 652.915 885.734 648.132C877.301 642.46 870.502 634.015 868.523 623.86L868.363 623C867.277 617.328 867.203 611.473 868.721 605.865L868.964 605C870.335 600.011 872.514 595.626 875.495 591.406C882.48 581.52 893.173 576.595 904.788 574.66Z"/>
	<path fill="#A72C2C" transform="scale(0.488281 0.488281)" d="M903.693 589.562C906.52 589.349 910.868 588.693 913.105 590.895C914.27 592.043 914.345 592.952 914.37 594.5C913.167 596.104 909.763 598.1 909.074 599.511C907.611 602.508 907.748 608.422 907.508 611.762C910.624 611.831 916.623 612.69 919.399 611.679C923.056 610.349 924.12 604.074 928.846 608.961C929.933 610.084 930.376 610.927 930.689 612.428L930.818 613.028C931.113 614.509 931.215 615.736 930.232 617.013C929.082 618.508 927.128 619.607 925.25 619.81C923.009 620.052 920.688 616.832 918.436 616.13C915.217 615.128 910.776 615.661 907.438 615.717L907.39 622.75C907.896 623.22 908.263 623.448 908.854 623.793C911.382 625.274 914.493 631.739 916.246 634.441C912.345 637.07 909.119 638.773 904.31 638.467L904.078 638.46C902.044 637.114 900.255 635.993 898.417 634.334C898.794 632.236 901.2 630.268 902.25 628.312C904.248 624.588 903.885 619.824 903.971 615.735C902.312 615.721 898.396 615.172 897 615.676C896.767 615.76 895.832 616.888 895.635 617.09C893.712 619.061 891.485 621.672 888.477 621.676C886.44 621.679 885.173 620.595 883.843 619.173C883.419 618.719 882.112 617.483 881.997 617.027C881.752 616.063 883.366 613.404 883.653 612.42C884.182 610.604 884.106 608.374 884.162 606.483L891.624 605.667L895.803 611.94L903.919 612.111C903.941 609.034 904.747 601.454 903.42 598.883C902.39 596.888 899.489 594.244 898.037 592.287L903.693 589.562Z"/>
	<path fill="#D85A43" transform="scale(0.488281 0.488281)" d="M903.072 579.597C904.312 581.882 903.704 586.872 903.693 589.562L898.037 592.287C899.489 594.244 902.39 596.888 903.42 598.883C904.747 601.454 903.941 609.034 903.919 612.111L895.803 611.94L891.624 605.667L884.162 606.483C884.106 608.374 884.182 610.604 883.653 612.42C883.366 613.404 881.752 616.063 881.997 617.027C882.112 617.483 883.419 618.719 883.843 619.173C885.173 620.595 886.44 621.679 888.477 621.676C891.485 621.672 893.712 619.061 895.635 617.09C895.832 616.888 896.767 615.76 897 615.676C898.396 615.172 902.312 615.721 903.971 615.735C903.885 619.824 904.248 624.588 902.25 628.312C901.2 630.268 898.794 632.236 898.417 634.334C900.255 635.993 902.044 637.114 904.078 638.46L903.41 649.246C897.413 648.861 890.327 645.715 885.685 641.929L885.049 641.402C879.47 636.853 874.627 630.327 872.937 623.219L872.75 622.401C871.761 618.37 871.491 613.49 872.293 609.396L872.43 608.75C873.174 604.943 874.437 601.493 876.482 598.18L876.908 597.5L877.674 596.251C883.587 587.034 892.688 581.925 903.072 579.597Z"/>
	<path fill="#C53730" transform="scale(0.488281 0.488281)" d="M113.993 528.692C125.556 527.085 139.852 532.049 149.048 538.858C161.639 548.18 169.017 560.603 171.147 576.049C172.992 589.438 169.067 603.653 160.768 614.29C151.718 625.89 138.774 633.706 124.124 635.49C110.338 636.695 97.3629 633.323 86.25 624.969C74.8787 616.421 67.684 603.763 65.7676 589.708C63.8596 575.714 67.3157 560.554 76.0582 549.311C85.8295 536.746 98.4599 530.596 113.993 528.692Z"/>
	<path fill="#A72C2C" transform="scale(0.488281 0.488281)" d="M115.218 541.353C116.878 541.922 117.229 542.958 118.203 544.389C121.546 549.301 124.236 554.765 127.308 559.867C123.006 566.21 119.965 572.622 116.922 579.611L117.028 579.98L133.516 579.589C135.569 575.491 137.948 571.805 140.66 568.117C146.379 573.678 152.179 578.482 158.576 583.26L141.406 597.282L131.922 585.025L116.881 584.99C120.248 591.858 123.609 598.193 128.253 604.311L121.112 614.585C119.325 617.331 117.722 620.297 115.425 622.654L114.876 620.369L114.663 602.002C114.618 598.234 114.786 594.337 114.175 590.614L115.02 585.34L114.905 585.053C115.234 583.514 115.13 581.818 115.151 580.24L114.195 571.745C114.646 568.721 114.331 565.306 114.329 562.242C114.324 556.64 114.482 550.977 114.057 545.392L115.218 541.353Z"/>
	<path fill="#D85A43" transform="scale(0.488281 0.488281)" d="M114.989 627.941C107.367 628.422 98.2274 623.349 92.0354 619.25C87.4233 616.197 83.1687 611.975 80.2286 607.267L79.8466 606.648C76.873 601.926 75.2165 597.392 73.8843 592C73.5541 590.664 73.2268 589.38 73.1331 588C72.1854 574.034 75.0894 561.992 84.5526 551.343C92.5939 542.295 102.986 537.322 114.929 536.569C114.981 537.622 114.794 540.487 115.218 541.353L114.057 545.392C114.482 550.977 114.324 556.64 114.329 562.242C114.331 565.306 114.646 568.721 114.195 571.745L115.151 580.24C115.13 581.818 115.234 583.514 114.905 585.053L115.02 585.34L114.175 590.614C114.786 594.337 114.618 598.234 114.663 602.002L114.876 620.369L115.425 622.654L114.989 627.941Z"/>
	<path fill="#C53730" transform="scale(0.488281 0.488281)" d="M114.195 571.745L106.584 558.433L114.057 545.392C114.482 550.977 114.324 556.64 114.329 562.242C114.331 565.306 114.646 568.721 114.195 571.745Z"/>
	<path fill="#C53730" transform="scale(0.488281 0.488281)" d="M114.175 590.614C114.786 594.337 114.618 598.234 114.663 602.002L114.876 620.369L105.677 607.644L114.175 590.614Z"/>
	<path fill="#C53730" transform="scale(0.488281 0.488281)" d="M114.905 585.053L113.346 584.974C111.976 584.958 105.203 584.551 104.442 585.23C102.975 586.538 101.59 588.78 100.334 590.338C98.248 592.925 96.0662 595.289 93.7004 597.621C89.1569 592.059 84.5317 587.615 78.7997 583.271C84.2212 577.843 90.2204 573.669 95.3363 567.777C98.18 571.774 100.555 576.452 103.771 580.107L115.151 580.24C115.13 581.818 115.234 583.514 114.905 585.053Z"/>
	<path fill="#A6CD46" transform="scale(0.488281 0.488281)" d="M847.244 650.202C847.994 650.818 848.526 650.993 848.761 652L849.077 803.927C843 803.223 836.492 803.511 830.373 803.394L802.808 802.036C780.654 800.247 759.066 795.976 737.128 792.666L708.497 758.824C712.14 758.48 717.403 760.359 721.024 761.094L774.601 773.158C765.343 754.041 756.712 734.775 749.905 714.628C748.107 709.307 745.984 703.859 744.771 698.373L744.685 697.972L742.816 692.235L821.038 739.924L847.244 650.202Z"/>
	<path fill="#71B843" transform="scale(0.488281 0.488281)" d="M744.685 697.972L742.816 692.235L821.038 739.924L821.01 740.315C820.943 743.769 819.97 747.384 819.567 750.851C818.618 758.994 818.002 766.854 817.997 775.046L750.174 698.534L749.876 698.25L750.003 697.625L750.25 697C748.228 696.379 746.763 695.124 744.875 694.247L744.588 695.25C744.917 696.41 744.898 695.938 744.786 697.136L744.685 697.972Z"/>
	<path fill="#71B843" transform="scale(0.488281 0.488281)" d="M847.244 650.202L848.549 646.75L849.149 646.846C858.084 667.03 865.816 687.924 872.949 708.812L878.294 725.497L881.317 736.219C881.866 738.111 882.326 740.462 883.388 742.112C899.996 726.462 919.034 713.344 939.004 702.36C944.009 699.607 948.992 696.574 954.17 694.184L945.116 718.965C939.245 734.74 932.513 751.154 924.32 765.868C943.824 761.72 963.523 757.668 983.55 757.734L985.411 757.75C984.278 763.966 961.027 785.44 954.974 789.673L946.628 794.654C940.517 796.143 933.345 797.945 927.05 798.071C901.798 803.14 874.778 804.084 849.077 803.927L848.761 652C848.526 650.993 847.994 650.818 847.244 650.202Z"/>
	<path fill="#219F59" transform="scale(0.488281 0.488281)" d="M983.55 757.734L985.411 757.75C984.278 763.966 961.027 785.44 954.974 789.673L946.628 794.654C940.517 796.143 933.345 797.945 927.05 798.071C931.038 795.378 935.835 793.485 940.066 791.146C951.252 784.964 961.031 778.114 970.32 769.303L983.55 757.734Z"/>
	<path fill="#39B3BC" transform="scale(0.488281 0.488281)" d="M474.46 95.7059C487.125 94.9335 500.074 98.3826 510.556 105.544C523.915 114.673 532.63 128.437 535.75 144.217C536.746 149.256 536.917 155.325 536.199 160.421C534.481 172.619 531.177 183.295 522.75 192.59C511.901 204.557 497.846 211.889 481.624 212.696C476.255 213.008 470.467 213.049 465.221 211.751L464.25 211.506C456.564 209.61 449.784 206.44 443.591 201.463C430.964 191.314 422.131 176.6 420.534 160.34C418.996 144.675 423.027 129.319 433.125 117.091C444.027 103.891 457.601 97.351 474.46 95.7059Z"/>
	<path fill="#046180" transform="scale(0.488281 0.488281)" d="M479.645 115.868L480.029 116.66C482.004 120.868 483.347 125.679 484.756 130.106C487.317 138.156 489.912 146.18 488.954 154.75C488.592 157.987 487.482 161.149 486.418 164.21C490.126 162.17 494 160.213 498.186 159.377C505.289 157.958 513.887 159.675 520.796 161.433L500.319 167.966C495.407 169.502 489.442 170.963 485.404 174.25C483.123 176.107 481.757 178.608 480.293 181.102C478.948 178.916 477.491 175.885 475.46 174.295C472.95 172.329 468.675 171.059 465.632 170.025C456.713 166.996 447.387 165.035 438.597 161.714L439.372 161.252C441.211 160.388 443.972 160.046 445.977 159.71C451.991 158.703 458.479 158.04 464.433 159.741L465.25 159.987C467.663 160.694 469.82 161.579 472.092 162.639C471.782 160.213 470.717 157.869 470.286 155.445C469.799 152.713 469.915 149.671 470.265 146.935C471.641 136.188 475.688 125.903 479.645 115.868Z"/>
	<path fill="#219F59" transform="scale(0.488281 0.488281)" d="M31.5713 704.58L49.9975 712.557L52.6518 713.677C53.4246 714.008 54.091 714.381 54.8015 714.824C55.9764 716.641 71.5989 722.364 74.4895 723.617L95.2232 733.292C142.045 757.394 182.386 789.985 215.777 830.699C225.712 842.813 234.875 854.81 242.902 868.31C250.884 881.734 257.42 895.97 263.241 910.441C258.579 909.667 253.911 908.14 249.35 906.864L222.721 898.807C166.168 880.589 112.358 849.642 75.7052 801.866C65.3268 788.338 56.8411 773.518 49.6095 758.098C45.3345 748.983 42.0183 739.427 39.0481 729.813L36.4374 721.091C36.2047 720.248 35.8295 718.201 35.3116 717.522C34.9462 717.043 34.3477 716.8 33.8657 716.439C33.4883 715.891 33.377 714.388 33.2436 713.68L31.5713 704.58Z"/>
	<path fill="#C53730" transform="scale(0.488281 0.488281)" d="M975.46 787.645L980.829 785.452C968.159 834.598 934.688 875.855 894.485 905.752C886.777 911.484 878.952 917.119 870.671 922.003L857.404 929.491C855.257 930.664 852.669 932.369 850.286 932.901L849.41 932.5L835.633 924.753C786.274 895.225 736.018 849.632 721.451 791.992L720.846 790.25C722.748 789.833 724.951 790.547 726.838 790.906C730.24 791.553 733.686 792.282 737.128 792.666C759.066 795.976 780.654 800.247 802.808 802.036L830.373 803.394C836.492 803.511 843 803.223 849.077 803.927C874.778 804.084 901.798 803.14 927.05 798.071C933.345 797.945 940.517 796.143 946.628 794.654C956.007 794.033 966.334 790.113 975.46 787.645Z"/>
	<path fill="#D85A43" transform="scale(0.488281 0.488281)" d="M721.451 791.992L720.846 790.25C722.748 789.833 724.951 790.547 726.838 790.906C730.24 791.553 733.686 792.282 737.128 792.666C759.066 795.976 780.654 800.247 802.808 802.036L830.373 803.394C836.492 803.511 843 803.223 849.077 803.927L849.325 829.02C849.336 832.283 849.908 836.818 849.105 839.937C840.341 839.868 830.531 837.656 821.947 835.844C808.062 832.914 794.325 829.121 781.228 823.61C768.518 818.261 756.442 811.34 744.5 804.485L724.404 792.606C723.259 791.997 722.728 791.709 721.451 791.992Z"/>
	<path fill="#A72C2C" transform="scale(0.488281 0.488281)" d="M975.46 787.645L980.829 785.452C968.159 834.598 934.688 875.855 894.485 905.752C886.777 911.484 878.952 917.119 870.671 922.003L857.404 929.491C855.257 930.664 852.669 932.369 850.286 932.901L849.41 932.5L849.38 840.013C865.556 840.064 880.93 838.687 896.691 834.866C922.136 828.697 944.944 818.58 964.081 800.397C968.225 796.46 972.461 792.562 975.46 787.645Z"/>
	<path fill="#108048" transform="scale(0.488281 0.488281)" d="M389.589 658.425L394.25 654.29L394.892 654.5L395.076 657.811C395.282 660.254 394.955 665.17 395.928 667.187L418.021 689.737L402.117 710.511L393.868 721.46C392.034 724.344 389.006 728.399 388.261 731.747C386.914 737.803 387.951 745.589 388.159 751.776C388.581 764.264 389.409 776.921 388.933 789.405C387.66 791.663 380.322 805.343 378.867 806.138C357.911 842.881 326.514 875.258 291.46 898.7C283.882 903.768 276.186 908.842 267.903 912.69L266.329 913.351L265.902 913.128L265.829 912.602C264.749 912.02 264.087 911.31 263.241 910.441C257.42 895.97 250.884 881.734 242.902 868.31C234.875 854.81 225.712 842.813 215.777 830.699C182.386 789.985 142.045 757.394 95.2232 733.292L74.4895 723.617C71.5989 722.364 55.9764 716.641 54.8015 714.824C54.091 714.381 53.4246 714.008 52.6518 713.677L49.9975 712.557L31.5713 704.58C31.3049 703.564 31.1191 702.826 31.25 701.776C36.0372 699.864 42.6246 699.835 47.7447 699.233C84.4048 694.93 120.621 701.695 154.322 716.317C183.381 728.926 210.201 751.198 228.827 776.667C238.748 790.232 246.883 805.379 253.644 820.748C257.659 829.876 259.999 839.322 263.633 848.507C265.362 823.39 269.693 797.27 278.844 773.715C289.767 745.598 306.966 721.53 328.541 700.699C340.769 689.685 354.731 680.256 368.685 671.593C375.613 667.292 383.322 663.622 389.589 658.425Z"/>
	<path fill="#A6CD46" transform="scale(0.488281 0.488281)" d="M54.8015 714.824C75.3619 723.164 95.7941 731.308 115.456 741.691C177.161 774.275 232.122 826.128 259.791 891.084L264.955 904.989C264.908 891.75 262.636 878.32 260.689 865.25C259.793 859.23 258.356 852.67 258.424 846.593C259.787 849.622 260.023 853.8 260.637 857.116C263.987 875.199 265.898 892.923 267.274 911.239L267.903 912.69L266.329 913.351L265.902 913.128L265.829 912.602C264.749 912.02 264.087 911.31 263.241 910.441C257.42 895.97 250.884 881.734 242.902 868.31C234.875 854.81 225.712 842.813 215.777 830.699C182.386 789.985 142.045 757.394 95.2232 733.292L74.4895 723.617C71.5989 722.364 55.9764 716.641 54.8015 714.824Z"/>
	<path fill="#219F59" transform="scale(0.488281 0.488281)" d="M395.076 657.811C395.282 660.254 394.955 665.17 395.928 667.187L418.021 689.737L402.117 710.511L393.868 721.46C392.034 724.344 389.006 728.399 388.261 731.747C386.914 737.803 387.951 745.589 388.159 751.776C388.581 764.264 389.409 776.921 388.933 789.405C387.66 791.663 380.322 805.343 378.867 806.138L377.75 805.771C370.069 813.809 363.837 823.777 356.804 832.448C347.017 844.516 335.764 855.519 324.372 866.066C311.93 877.585 298.312 887.971 284.826 898.232C279.842 902.023 273.531 905.625 269.134 909.956L268.867 909.425C268.022 907.161 270.517 901.682 271.283 899.321C283.366 862.089 303.71 827.296 322.742 793.273L377.925 694.251L389.977 672.552C391.567 669.767 393.425 667.281 394.955 664.418L395.076 657.811Z"/>
	<path fill="#108048" transform="scale(0.488281 0.488281)" d="M393.868 721.46C392.551 713.767 394.437 704.647 394.74 696.821C394.998 690.162 394.408 683.633 394.428 677C394.435 674.639 394.818 672.314 394.831 669.961L394.832 669.037L395.819 668.09L399.476 694.183L400.903 705C401.159 706.807 401.256 708.89 402.117 710.511L393.868 721.46Z"/>
	<path fill="#F09A30" transform="scale(0.488281 0.488281)" d="M395.928 667.187L418.021 689.737L402.117 710.511C401.256 708.89 401.159 706.807 400.903 705L399.476 694.183L395.819 668.09L395.928 667.187Z"/>
	<path fill="#0D7677" transform="scale(0.488281 0.488281)" d="M465.129 628.551L570.377 628.163L587.726 705.137L595.393 738.669L599.766 758.779C600.281 761.018 600.674 764.386 601.667 766.402C602.061 767.202 604.049 768.655 604.755 769.323L613.558 777.765L668.481 832.747C676.457 840.74 684.33 849.743 692.898 857.03C693.968 857.94 695.121 858.667 696.46 859.101C695.019 863.952 690.471 868.258 687.25 872.11C682.733 877.513 678.28 882.69 674.97 888.959C669.721 885.845 665.124 881.955 660.405 878.117L642.497 863.439L581.372 812.105L509.357 881.72L460.078 833.175L442.897 816.183C439.74 813.063 436.666 809.616 433.141 806.928L432.739 806.631L432.515 908.405L389.434 908.6L388.933 789.405C389.409 776.921 388.581 764.264 388.159 751.776C387.951 745.589 386.914 737.803 388.261 731.747C389.006 728.399 392.034 724.344 393.868 721.46L402.117 710.511L418.021 689.737L451.62 646.704C456.051 640.885 461.624 634.914 465.129 628.551Z"/>
	<path fill="#E1E0B0" transform="scale(0.488281 0.488281)" d="M467.353 732.637L524.186 683.748L538.76 753.447C535.17 754.868 531.858 756.929 528.375 758.593C522.121 761.583 515.619 763.442 508.657 763.538C506.118 763.574 503.507 763.654 501.074 762.821C497.905 761.736 495.142 760.468 492.418 758.465C488.746 755.764 485.43 751.678 482.242 748.388C477.245 743.227 471.896 738.199 467.353 732.637Z"/>
	<path fill="#F09A30" transform="scale(0.488281 0.488281)" d="M432.739 806.631L432.84 761.922C435.768 758.128 441.486 754.661 445.258 751.523L467.353 732.637C471.896 738.199 477.245 743.227 482.242 748.388C485.43 751.678 488.746 755.764 492.418 758.465C495.142 760.468 497.905 761.736 501.074 762.821C503.507 763.654 506.118 763.574 508.657 763.538C515.619 763.442 522.121 761.583 528.375 758.593C531.858 756.929 535.17 754.868 538.76 753.447C542.428 768.124 546.902 782.028 558.101 792.901C561.218 795.927 564.945 798.483 568.336 801.199L581.372 812.105L509.357 881.72L460.078 833.175L442.897 816.183C439.74 813.063 436.666 809.616 433.141 806.928L432.739 806.631Z"/>
	<defs>
		<linearGradient id="gradient_0" gradientUnits="userSpaceOnUse" x1="170.41109" y1="108.83657" x2="301.73355" y2="270.27115">
			<stop offset="0" stop-color="#6AB13F"/>
			<stop offset="1" stop-color="#B9CA46"/>
		</linearGradient>
	</defs>
	<path fill="url(#gradient_0)" transform="scale(0.488281 0.488281)" d="M225.684 85.3597C234 82.4841 242.863 80.7152 251.49 79.0345C277.196 74.0267 302.708 72.4096 328.83 72.4855C338.151 72.5126 348.445 72.3686 357.626 73.9658C377.112 74.7904 396.13 78.9741 415.282 82.2661C410.697 84.4087 405.92 86.6183 401.816 89.6C396.674 93.3355 392.565 97.8576 387.928 102.128C372.596 120.412 360.869 140.864 352.256 163.093L338.979 199.348C330.885 219.438 320.677 239.316 307.966 256.86C303.379 260.858 299.506 266 295.481 270.564C289.013 277.898 282.396 285.019 275.157 291.604C264.899 300.934 254.233 309.464 242.88 317.43C236.515 321.896 229.584 325.847 223.499 330.651L126.985 368.253C121.764 389.997 117.086 411.615 115.652 434C114.608 450.288 115.609 467.099 116.577 483.367L101.592 482.978C101.431 467.241 100.56 451.709 101.575 435.961C103.099 412.32 109.041 389.682 115.419 366.989C114.997 366.711 114.259 365.005 114.012 364.5C101.036 337.99 91.7665 307.274 89.6665 277.789C88.8502 266.328 89.354 254.777 90.4642 243.361C91.5106 232.602 93.2078 221.176 96.7517 210.932C99.0399 197.619 106.063 183.609 112.646 171.875C136.645 129.099 178.68 98.5028 225.684 85.3597Z"/>
	<path fill="#71B843" transform="scale(0.488281 0.488281)" d="M115.419 366.989C121.281 350.111 126.346 333.156 133.443 316.706L144.711 293.009C146.072 290.277 148.544 286.875 149.266 284.002C150.164 280.433 149.785 275.707 149.899 272.002L150.598 240.074L154.27 180.25L154.818 180.002L154.668 274.204C168.835 249.313 186.162 226.581 206.052 205.958C211.022 200.806 215.949 195.405 221.435 190.801C221.854 168.525 227.211 145.34 232.189 123.653L237.25 102.855L237.839 103.002C237.438 107.125 236.208 111.277 235.389 115.342L230.601 140.5C229.29 148.649 228.797 157.198 228.152 165.437L226.339 186.803C249.465 164.994 275.218 146.945 302.212 130.295C310.791 125.004 319.272 119.561 328.25 114.963L328.467 115.316L298.029 134.956C283.461 145.093 269.249 156.585 255.645 167.981C247.448 174.847 238.926 181.706 231.946 189.835L317.25 173.832L317.25 174.291L316.578 174.397L303.339 177.273L243.484 191.579L229.389 195.045C227.915 195.397 225.393 195.648 224.109 196.315C223.552 196.603 222.474 198.135 222.023 198.638L216.285 205.188C204.54 218.742 192.502 232.016 182.22 246.75L162.335 277.782C165.558 276.535 168.653 274.188 171.777 272.577L194.743 261.415C217.181 251.224 240.731 244.31 264.5 238.136L265.75 237.872L265.75 238.304L265.314 238.4C231.399 246.807 198.49 262.836 168.995 281.346C165.167 283.749 158.625 286.59 156.36 290.401C151.635 298.351 147.9 307.178 144.316 315.7C137.169 332.697 130.778 350.17 126.985 368.253C121.764 389.997 117.086 411.615 115.652 434C114.608 450.288 115.609 467.099 116.577 483.367L101.592 482.978C101.431 467.241 100.56 451.709 101.575 435.961C103.099 412.32 109.041 389.682 115.419 366.989Z"/>
	<path fill="#108048" transform="scale(0.488281 0.488281)" d="M727.361 107.047C740.349 106.84 753.436 107.282 766.287 109.33C807.284 115.862 845.86 135.035 875.704 163.893C919.4 206.144 943.001 266.075 943.938 326.453C944.889 387.791 921.807 447.212 879.034 491.347C865.611 505.198 851.206 516.957 835.115 527.565C831.361 530.04 827.348 533.1 823.107 534.645C823.988 529.447 826.146 524.091 827.473 518.932C830.281 508.017 832.265 496.835 833.374 485.62C834.226 477.013 834.85 468.206 834.45 459.555C834.175 453.598 832.981 447.178 833.366 441.259L833.435 440.364C828.466 418.821 822.7 397.316 814.265 376.837C812.411 372.335 810.359 367.931 808.038 363.649C805.736 359.403 801.368 353.699 800.39 349.121C797.449 345.517 795.2 341.021 792.498 337.188C786.61 328.836 779.838 320.81 773.005 313.217C770.004 309.882 766.834 305.969 763.189 303.361C760.804 301.615 758.643 299.538 756.366 297.653C754.381 296.01 752.206 294.599 750.616 292.548C741.363 284.207 730.924 277.817 719.866 272.13C691.094 257.333 659.593 250.312 627.276 252.093C586.167 254.357 553.16 274.807 525.921 304.548C527.861 294.552 528.827 284.482 531.136 274.495C540.293 234.889 559.513 197.854 588.009 168.751C624.37 131.617 674.954 107.56 727.361 107.047Z"/>
	<path fill="#F7BA30" transform="scale(0.488281 0.488281)" d="M818.775 169.01C823.684 164.175 827.938 161.81 835 162.009L837.75 162.358L838.307 162.46C843.304 163.458 847.838 166.994 850.495 171.29C853.789 176.615 854.414 182.779 852.755 188.774C851.377 193.756 847.731 197.837 843.501 200.68C841.324 201.595 839.084 202.471 836.75 202.886C831.98 203.734 826.893 202.191 823.038 199.391C818.434 196.048 815.361 190.934 814.461 185.324C813.454 179.044 815.108 174.072 818.775 169.01Z"/>
	<path fill="#F7BA30" transform="scale(0.488281 0.488281)" d="M750.616 292.548L781.951 246.257C787.86 237.51 793.364 227.874 799.955 219.654C802.115 216.96 804.576 214.625 807.439 212.689C815.727 207.083 824.59 207.103 834.241 207.074C840.261 207.056 846.171 207.101 852.099 208.286C857.149 210.307 861.745 212.269 865.576 216.283C872.283 223.31 877.527 232.671 882.942 240.726L907.871 277.66C912.259 284.303 918.244 291.436 921.373 298.672C922.384 301.011 922.424 303.242 921.443 305.58C920.687 307.382 919.037 309.185 917.156 309.829C915.006 310.565 912.694 310.083 910.75 309.033C905.096 305.978 893.399 287.287 889.18 281.193L861.699 241.696L863.536 271.803L867.013 324.859L868.839 348.977C869.031 352.748 869.442 356.818 868.542 360.5L836.191 457.6C835.658 451.655 834.987 446.153 833.435 440.364C828.466 418.821 822.7 397.316 814.265 376.837C812.411 372.335 810.359 367.931 808.038 363.649C805.736 359.403 801.368 353.699 800.39 349.121C797.449 345.517 795.2 341.021 792.498 337.188C786.61 328.836 779.838 320.81 773.005 313.217C770.004 309.882 766.834 305.969 763.189 303.361C760.804 301.615 758.643 299.538 756.366 297.653C754.381 296.01 752.206 294.599 750.616 292.548Z"/>
	<path fill="#108048" transform="scale(0.488281 0.488281)" d="M831.674 325.745L838.812 325.931C839.068 336.281 841.297 346.7 841.388 357C841.452 364.293 840.134 372.028 839.506 379.33L836.238 419.525L835.762 422.331C834.794 420.373 834.924 417.956 834.768 415.797L833.66 404.427L829.961 372.55C829.451 367.733 828.563 362.578 828.567 357.75C828.57 355.069 829.095 352.16 829.333 349.466L831.674 325.745Z"/>
	<path fill="#108048" transform="scale(0.488281 0.488281)" d="M763.189 303.361L805.106 243.77L800.39 349.121C797.449 345.517 795.2 341.021 792.498 337.188C786.61 328.836 779.838 320.81 773.005 313.217C770.004 309.882 766.834 305.969 763.189 303.361Z"/>
	<path fill="#219F59" transform="scale(0.488281 0.488281)" d="M525.921 304.548C527.861 294.552 528.827 284.482 531.136 274.495C540.293 234.889 559.513 197.854 588.009 168.751C624.37 131.617 674.954 107.56 727.361 107.047C729.616 108.583 732.041 109.315 734.522 110.362C737.579 111.651 740.644 113.219 743.588 114.75C755.469 120.927 767.143 127.702 778.26 135.173C788.233 141.877 797.794 149.551 806.707 157.609C810.624 161.149 814.538 166.051 818.775 169.01C815.108 174.072 813.454 179.044 814.461 185.324C815.361 190.934 818.434 196.048 823.038 199.391C826.893 202.191 831.98 203.734 836.75 202.886C839.084 202.471 841.324 201.595 843.501 200.68C844.621 200.416 845.69 200.195 846.755 199.75L852.458 207.474L852.099 208.286C846.171 207.101 840.261 207.056 834.241 207.074C824.59 207.103 815.727 207.083 807.439 212.689C804.576 214.625 802.115 216.96 799.955 219.654C793.364 227.874 787.86 237.51 781.951 246.257L750.616 292.548C741.363 284.207 730.924 277.817 719.866 272.13C691.094 257.333 659.593 250.312 627.276 252.093C586.167 254.357 553.16 274.807 525.921 304.548Z"/>
	<path fill="#F09A30" transform="scale(0.488281 0.488281)" d="M307.966 256.86C316.561 254.922 325.008 252.742 333.75 251.509C376.662 245.455 422.017 252.13 459.019 275.456C472.925 284.223 484.881 294.524 495.818 306.75L505.359 317.734C506.949 319.542 508.595 321.845 510.552 323.229C515.669 317.246 521.66 311.149 525.921 304.548C553.16 274.807 586.167 254.357 627.276 252.093C659.593 250.312 691.094 257.333 719.866 272.13C730.924 277.817 741.363 284.207 750.616 292.548C752.206 294.599 754.381 296.01 756.366 297.653C758.643 299.538 760.804 301.615 763.189 303.361C766.834 305.969 770.004 309.882 773.005 313.217C779.838 320.81 786.61 328.836 792.498 337.188C795.2 341.021 797.449 345.517 800.39 349.121C801.368 353.699 805.736 359.403 808.038 363.649C810.359 367.931 812.411 372.335 814.265 376.837C822.7 397.316 828.466 418.821 833.435 440.364L833.366 441.259C832.981 447.178 834.175 453.598 834.45 459.555C834.85 468.206 834.226 477.013 833.374 485.62C832.265 496.835 830.281 508.017 827.473 518.932C826.146 524.091 823.988 529.447 823.107 534.645C816.241 553.746 807.717 572.294 796.118 589.022C790.305 597.405 784.167 605.753 777.457 613.438C772.056 619.625 766.02 625.352 760.242 631.191L731.504 660.24L652.052 740.402L624.834 767.342L613.558 777.765L604.755 769.323C604.049 768.655 602.061 767.202 601.667 766.402C600.674 764.386 600.281 761.018 599.766 758.779L595.393 738.669L587.726 705.137C594.551 699.774 600.657 693.136 606.803 687.011L635.822 658.075L691.828 601.639C707.078 586.177 723.417 571.058 735.703 553.045C748.39 534.441 757.385 513.605 761.655 491.466C768.898 453.919 761.152 414.414 743.187 380.988C740.61 376.194 738.128 371.274 735.089 366.755C729.43 368.49 723.276 369.542 717.346 369.526C716.016 369.523 714.241 369.703 713.009 369.155L712.582 368.894C711.667 367.173 712.091 364.254 712.083 362.266L712.039 345.601L712.242 338.482L704.026 338.17L703.608 337.788C679.534 316.179 648.699 304.573 616.306 306.138C584.722 307.664 553.591 322.663 530.204 343.546C523.941 349.139 518.279 355.596 512.634 361.808C505.97 356.073 500.427 349.025 493.65 343.253C469.286 322.502 436.866 307.152 405.135 302.47C372.969 297.723 336.935 304.384 310.544 324.061L310.546 334.313C310.546 334.941 310.753 336.84 310.451 337.341C309.872 339.746 309.926 342.134 310.212 344.583C310.502 350.588 311.638 361.672 307.25 366.358C304.354 369.451 297.257 368.575 293.394 368.516C291.612 368.489 289.87 368.569 288.164 367.981C282.956 376.679 277.627 385.309 273.272 394.479C257.937 426.764 252.606 462.524 261.326 497.469C265.717 515.07 273.057 531.364 283.284 546.342C292.621 560.018 304.048 571.41 315.589 583.184L353.064 621.294L376.522 645.486C380.679 649.787 384.802 654.873 389.589 658.425C383.322 663.622 375.613 667.292 368.685 671.593C354.731 680.256 340.769 689.685 328.541 700.699L224.476 596.151C187.675 558.232 173.6 504.358 174.277 452.615C174.742 417.122 183.431 378.566 205.274 349.865C210.715 342.715 217.098 336.889 223.499 330.651C229.584 325.847 236.515 321.896 242.88 317.43C254.233 309.464 264.899 300.934 275.157 291.604C282.396 285.019 289.013 277.898 295.481 270.564C299.506 266 303.379 260.858 307.966 256.86Z"/>
	<path fill="#71B843" transform="scale(0.488281 0.488281)" d="M274.13 346.511L263.416 346.776L263.235 327.426C267.377 327.462 271.473 327.421 275.565 328.172C273.824 334.173 273.584 340.298 274.13 346.511Z"/>
	<path fill="#0D7677" transform="scale(0.488281 0.488281)" d="M275.565 328.172C278.102 321.675 281.983 317.653 287.087 313.051L287.004 347.389C286.993 353.148 285.918 361.963 287.817 367.302C279.509 361.985 276.675 355.557 274.13 346.511C273.584 340.298 273.824 334.173 275.565 328.172Z"/>
	<path fill="#39B3BC" transform="scale(0.488281 0.488281)" d="M287.087 313.051C288.572 311.035 289.625 309.577 292.243 309.228C295.835 308.748 304.343 308.852 307.219 311.166C309.326 312.86 310.255 315.622 310.402 318.228L310.544 324.061L310.546 334.313C310.546 334.941 310.753 336.84 310.451 337.341C309.872 339.746 309.926 342.134 310.212 344.583C310.502 350.588 311.638 361.672 307.25 366.358C304.354 369.451 297.257 368.575 293.394 368.516C291.612 368.489 289.87 368.569 288.164 367.981L287.817 367.302C285.918 361.963 286.993 353.148 287.004 347.389L287.087 313.051Z"/>
	<path fill="#16AF82" transform="scale(0.488281 0.488281)" d="M712.386 312.451L712.423 305.763C727.408 307.343 740.974 312.307 750.887 324.25C753.678 327.612 755.419 331.319 756.602 335.5L756.851 336.347C758.253 341.306 757.828 346.584 755.267 351.093C751.01 358.589 742.723 363.359 735.089 366.755C729.43 368.49 723.276 369.542 717.346 369.526C716.016 369.523 714.241 369.703 713.009 369.155L712.582 368.894C711.667 367.173 712.091 364.254 712.083 362.266L712.039 345.601L712.242 338.482L712.386 312.451Z"/>
	<path fill="#3CC782" transform="scale(0.488281 0.488281)" d="M712.386 312.451C717.632 313.891 723.553 318.462 726.34 323.141C728.836 327.329 731.109 333.695 729.799 338.604C727.957 345.507 718.741 354.874 712.601 358.453L712.582 368.894C711.667 367.173 712.091 364.254 712.083 362.266L712.039 345.601L712.242 338.482L712.386 312.451Z"/>
	<path fill="#E1E0B0" transform="scale(0.488281 0.488281)" d="M310.544 324.061C336.935 304.384 372.969 297.723 405.135 302.47C436.866 307.152 469.286 322.502 493.65 343.253C500.427 349.025 505.97 356.073 512.634 361.808C518.279 355.596 523.941 349.139 530.204 343.546C553.591 322.663 584.722 307.664 616.306 306.138C648.699 304.573 679.534 316.179 703.608 337.788L704.026 338.17L712.242 338.482L712.039 345.601L712.083 362.266C712.091 364.254 711.667 367.173 712.582 368.894L713.009 369.155C714.241 369.703 716.016 369.523 717.346 369.526C723.276 369.542 729.43 368.49 735.089 366.755C738.128 371.274 740.61 376.194 743.187 380.988C761.152 414.414 768.898 453.919 761.655 491.466C757.385 513.605 748.39 534.441 735.703 553.045C723.417 571.058 707.078 586.177 691.828 601.639L635.822 658.075L606.803 687.011C600.657 693.136 594.551 699.774 587.726 705.137L570.377 628.163L465.129 628.551C461.624 634.914 456.051 640.885 451.62 646.704L418.021 689.737L395.928 667.187C394.955 665.17 395.282 660.254 395.076 657.811L394.892 654.5L394.25 654.29L389.589 658.425C384.802 654.873 380.679 649.787 376.522 645.486L353.064 621.294L315.589 583.184C304.048 571.41 292.621 560.018 283.284 546.342C273.057 531.364 265.717 515.07 261.326 497.469C252.606 462.524 257.937 426.764 273.272 394.479C277.627 385.309 282.956 376.679 288.164 367.981C289.87 368.569 291.612 368.489 293.394 368.516C297.257 368.575 304.354 369.451 307.25 366.358C311.638 361.672 310.502 350.588 310.212 344.583C309.926 342.134 309.872 339.746 310.451 337.341C310.753 336.84 310.546 334.941 310.546 334.313L310.544 324.061Z"/>
	<path fill="#16AF82" transform="scale(0.488281 0.488281)" d="M339.518 337.352L339.942 344.577L310.212 344.583C309.926 342.134 309.872 339.746 310.451 337.341L339.518 337.352Z"/>
	<path fill="#16AF82" transform="scale(0.488281 0.488281)" d="M633.241 338.939C633.541 337.452 633.818 335.864 634.435 334.468C636.195 330.48 640.019 327.847 644.032 326.455C648.941 324.753 654.529 324.948 659.661 324.929C665.32 324.908 671.334 324.321 676.5 327.03C681.431 329.616 683.235 333.518 684.731 338.562C673.085 339.263 661.147 338.724 649.467 338.727C644.031 338.728 638.763 339.531 633.241 338.939Z"/>
	<path fill="#16AF82" transform="scale(0.488281 0.488281)" d="M339.535 335.539C341.572 330.87 344.295 327.024 349.25 325.115C350.149 324.768 351.059 324.585 352 324.397L352.626 324.268C356.806 323.483 361.847 323.965 366.121 323.975C370.842 323.985 376.2 323.535 380.838 324.31C382.775 324.634 384.683 325.485 386.259 326.646C389.48 329.02 391.563 332.807 392.145 336.743L392.308 338.415C390.273 337.474 387.092 338.177 384.86 338.477C381.56 338.919 378.234 339.268 374.907 339.414C369.636 339.645 363.894 339.849 358.658 339.183L339.535 335.539Z"/>
	<path fill="#219F59" transform="scale(0.488281 0.488281)" d="M339.535 335.539L358.658 339.183C363.894 339.849 369.636 339.645 374.907 339.414C378.234 339.268 381.56 338.919 384.86 338.477C387.092 338.177 390.273 337.474 392.308 338.415C391.602 342.825 390.208 347.293 386.503 350.14C380.517 354.737 370.54 353.516 363.34 353.538C358.978 353.551 354.337 353.857 350.035 353.122C346.584 352.533 343.465 351.037 341.561 348C340.888 346.927 340.312 345.787 339.942 344.577L339.518 337.352L339.535 335.539Z"/>
	<path fill="#219F59" transform="scale(0.488281 0.488281)" d="M704.026 338.17L712.242 338.482L712.039 345.601L689.93 345.634C689.11 345.63 684.841 345.289 684.34 345.6C683.24 346.285 682.014 348.302 680.958 349.25C676.809 352.977 671.397 353.83 666.057 354.232C658.217 354.823 643.304 356.005 637.236 350.348C633.711 347.062 633.401 343.43 633.241 338.939C638.763 339.531 644.031 338.728 649.467 338.727C661.147 338.724 673.085 339.263 684.731 338.562C690.638 337.533 697.954 338.243 704.026 338.17Z"/>
	<path fill="#F7BA30" transform="scale(0.488281 0.488281)" d="M509.747 370.668C513.758 370.484 517.476 370.594 521.438 371.331C532.69 373.424 541.606 379.573 548.184 388.82C554.359 397.501 557.35 409.102 555.695 419.688L555.561 420.5C554.575 427.087 551.757 433.437 547.772 438.781C540.591 448.41 530.906 453.877 519.093 455.525C515.092 455.869 511.242 455.932 507.25 455.395C497.025 454.02 486.633 447.209 480.413 439.113C473.884 430.613 470.734 419.641 471.956 409C472.926 400.56 475.593 393.623 480.797 386.827C487.975 377.453 498.163 372.168 509.747 370.668Z"/>
	<path fill="#71B843" transform="scale(0.488281 0.488281)" d="M544.009 467.721L603.086 446.354L629.874 436.775C632.784 435.679 637.583 434.413 639.926 432.397C641.608 430.95 642.867 428.403 644.06 426.527L652.165 413.651L672.547 381.938C677.438 374.305 682.505 366.684 686.603 358.588L717.376 377.047L680.453 430.693L666.194 452.3C664.624 454.691 662.718 458.671 660.67 460.539C659.066 462.002 654.67 463.154 652.5 464.034L623.676 475.571L569.09 498.05C567.865 493.347 566.47 488.736 563.825 484.595L563.438 484C561.428 480.825 558.222 477.535 555.189 475.306C553.064 473.745 550.828 472.228 548.546 470.908C546.846 469.925 544.995 469.46 544.009 467.721Z"/>
	<path fill="#71B843" transform="scale(0.488281 0.488281)" d="M465.279 499.46L383.763 469.221L372.5 465.029C371.63 464.691 369.734 464.165 369.113 463.587C367.457 462.047 365.881 458.476 364.651 456.452L352.421 436.403L312.384 371.911C315.169 370.622 336.531 360.256 337.88 360.407C338.085 360.43 351.416 379.541 352.889 381.607L378.446 416.591L387.078 428.973C387.94 430.202 389.191 432.626 390.287 433.55C390.671 433.874 392.4 434.149 392.961 434.311L400.964 436.77L491.269 466.347C490.087 468.105 487.423 468.861 485.591 469.951C473.671 477.041 467.346 485.65 465.279 499.46Z"/>
	<path fill="#A6CD46" transform="scale(0.488281 0.488281)" d="M491.269 466.347C493.814 464.601 497.54 463.704 500.5 462.933L501.437 462.682C505.531 461.616 509.997 461.776 514.206 461.86C524.868 462.074 534.221 463.145 544.009 467.721C544.995 469.46 546.846 469.925 548.546 470.908C550.828 472.228 553.064 473.745 555.189 475.306C558.222 477.535 561.428 480.825 563.438 484L563.825 484.595C566.47 488.736 567.865 493.347 569.09 498.05C570.212 511.08 570.043 523.947 570.064 537.03L570.18 585.463L570.275 616.162C570.284 619.948 570.847 624.464 570.377 628.163L465.129 628.551C464.503 623.051 464.961 617.019 464.962 611.47L464.973 578.358L465.01 527.531C465.02 518.236 464.616 508.729 465.279 499.46C467.346 485.65 473.671 477.041 485.591 469.951C487.423 468.861 490.087 468.105 491.269 466.347Z"/>
</svg>
