<?xml version="1.0" encoding="utf-8" ?>
<svg xmlns="http://www.w3.org/2000/svg" xmlns:xlink="http://www.w3.org/1999/xlink" width="500" height="500">
	<path fill="#EF9F3D" transform="scale(0.488281 0.488281)" d="M-0 -0L1024 0L1024 1024L-0 1024L0 -0Z"/>
	<path fill="#010224" transform="scale(0.488281 0.488281)" d="M518.424 110.717C571.138 108.325 625.541 119.088 673.653 140.659C723.876 163.176 768.546 196.774 803.827 239.115C831.044 271.778 852.268 309.424 867.294 349.122C871.847 361.149 875.369 373.65 878.612 386.086C899.131 464.791 894.873 547.538 875.519 626C871.293 643.134 866.021 659.654 860.027 676.247C856.824 685.116 853.572 694.515 849.435 703C847.939 706.066 841.836 709.206 838.998 711.055C809.914 729.998 777.094 740.867 743.997 750.386L702.531 760.906L681.537 765.183C679.031 765.691 676.052 765.804 673.692 766.772C671.565 767.643 669.317 769.436 667.367 770.694L653.93 779.497L603.092 812.901C557.891 841.425 510.095 866.925 461.257 888.625C442.623 896.904 423.642 905.134 404.191 911.31C400.202 913.035 395.515 914.072 391.323 915.277C386.428 893.568 383.497 872.497 382.906 850.264C366.667 853.976 350.434 853.539 333.908 852.692C328.462 855.817 323.463 861.033 318.69 865.176C306.626 875.647 294.53 886.1 283.75 897.921C279.435 902.652 275.02 907.552 272.022 913.255L271.655 913.963L220.586 850.213C213.022 839.141 205.697 827.794 199.65 815.814C190.734 798.152 183.945 778.924 177.984 760.099C168.164 729.085 160.782 698.003 155.945 665.825L152.878 641.062C152.749 639.54 152.169 636.629 152.507 635.188C152.978 633.185 155.065 630.337 156.097 628.516L168.252 607.441C169.784 604.69 171.824 601.667 172.903 598.719C173.912 595.961 174.146 592.433 174.652 589.5L178.164 569L189.246 504.698C174.128 498.837 157.088 491.725 144.597 481.148C139.414 476.758 134.997 470.784 134.532 463.805C134.281 460.033 134.863 456.829 136.272 453.325C138.818 446.993 142.576 440.914 145.77 434.875L165.36 398.579L171.089 388.143C172.352 385.776 173.575 382.917 175.558 381.065C177.836 378.937 181.088 377.665 184.074 376.898C185.553 376.518 193.778 375.566 194.454 374.728C195.337 373.635 196.141 369.754 196.636 368.317L203.841 348.079L211.849 328.135C227.556 292.199 249.338 260.582 275.277 231.348C299.979 203.509 331.963 179.432 364.398 161.266L408.302 138.636L423.25 130.421C426.885 128.284 430.923 124.861 434.894 123.529C439.47 121.995 444.658 121.235 449.386 120.166C472.241 114.997 495.06 112.097 518.424 110.717Z"/>
	<path fill="#C7E3EA" transform="scale(0.488281 0.488281)" d="M199.207 544.091L210.69 484.34C211.814 479.596 212.689 473.767 214.872 469.408C214.588 477.242 212.081 485.441 210.68 493.162L202.53 544.288L200.399 544.824L199.207 544.091Z"/>
	<path fill="#AE0C19" transform="scale(0.488281 0.488281)" d="M165.484 468.25C166.381 468.06 166.911 468.104 167.809 468.194C171.372 470.792 175.498 472.539 179.442 474.473C185.282 477.337 191.188 480.278 197.331 482.44C196.774 484.494 196.656 487.718 195.269 489.25L192.202 488.059L159.624 470.299L165.484 468.25Z"/>
	<path fill="#92AFCA" transform="scale(0.488281 0.488281)" d="M233.585 492.061L237.577 470.899L252.257 470.346L248.808 491.379C245.919 489.94 237.133 491.759 233.585 492.061Z"/>
	<path fill="#8B051B" transform="scale(0.488281 0.488281)" d="M210.96 382.998C212.48 382.929 213.947 382.979 215.4 382.5C215.291 381.588 215.283 380.899 215.445 379.995C219.066 378.172 223.89 378.125 227.891 377.706L251.578 375.667L275.218 373.454L275.095 373.876C274.299 376.675 274.027 379.747 273.022 382.45L250.49 382.654L220.499 383.391C218.19 383.426 212.972 384.094 210.96 382.998Z"/>
	<path fill="#EF9F3D" transform="scale(0.488281 0.488281)" d="M187.956 638.853C198.202 661.892 212.595 682.171 228.548 701.534L221.05 704.296C217.349 700.809 213.903 697.348 210.945 693.191C203.537 682.779 198.723 670.708 193.825 658.988C191.482 653.381 186.943 645.026 187.956 638.853Z"/>
	<path fill="#FEFEF9" transform="scale(0.488281 0.488281)" d="M694.418 516.473C694.493 511.671 695.086 506.928 696.062 502.228C699.78 484.326 708.751 466.313 724.495 456.172C733.534 450.351 744.539 448.01 755.11 450.26C751.445 450.902 747.714 451.35 744.148 452.43C731.862 456.153 721.608 463.9 714.191 474.337C707.583 483.634 702.858 494.462 698.733 505.047C697.311 508.696 696.273 513.071 694.418 516.473Z"/>
	<path fill="#92AFCA" transform="scale(0.488281 0.488281)" d="M410.511 501.677L415.24 479.511L454.054 485.655L448.887 510.169C445.008 509.791 440.623 508.238 436.751 507.384L410.511 501.677Z"/>
	<path fill="#8B051B" transform="scale(0.488281 0.488281)" d="M691.384 579.662C705.151 592.026 722.43 599.97 741.219 598.973C753.801 598.305 764.856 592.804 774.574 585.074L767.91 605.456C756.43 609.782 745.873 613.653 733.299 611.689L732.5 611.557C724.493 610.283 716.109 607.388 709.468 602.653C701.931 597.279 692.989 589.215 691.384 579.662Z"/>
	<path fill="#282D4A" transform="scale(0.488281 0.488281)" d="M233.179 682.993C238.734 687.336 243.685 691.529 249.974 694.865C251.235 716.761 252.421 740.308 258.566 761.396C260.591 768.347 263.454 774.718 266.116 781.415C263.803 780.786 261.521 779.827 259.329 778.855C256.341 777.529 253.385 776.127 250.559 774.48C250.077 774.2 249.399 774.113 249.117 773.632C248.374 772.364 248.213 767.853 247.939 766.214C245.062 749.032 242.226 731.536 241.175 714.126L240.63 700.059C240.592 698.852 240.856 696.326 240.484 695.351C240.145 694.461 238.845 693.286 238.25 692.412C236.18 689.375 234.505 686.407 233.179 682.993Z"/>
	<path fill="#444761" transform="scale(0.488281 0.488281)" d="M281.255 490.249L283.523 477.621C283.812 475.847 283.845 473.033 284.792 471.533L335.902 474.033L333.28 491.301C320.345 491.901 307.014 491.053 294.047 490.688C289.93 490.572 285.276 489.699 281.255 490.249Z"/>
	<path fill="#282D4A" transform="scale(0.488281 0.488281)" d="M811.181 683.484C808.27 690.993 803.593 698.033 800.1 705.316C798.922 707.773 797.169 710.647 796.973 713.39C792.324 716.278 786.245 718.129 781.14 720.168C762.223 727.722 742.997 735.222 723.437 740.898C733.076 735.349 742.066 728.791 751.28 722.579L792.815 695.157C798.442 691.507 804.997 685.858 811.181 683.484Z"/>
	<path fill="#FEECB1" transform="scale(0.488281 0.488281)" d="M221.05 704.296L209.232 709.254L193.04 685.439C183.828 670.872 175.62 655.024 169.296 639L180.855 618.559L187.956 638.853C186.943 645.026 191.482 653.381 193.825 658.988C198.723 670.708 203.537 682.779 210.945 693.191C213.903 697.348 217.349 700.809 221.05 704.296Z"/>
	<path fill="#AE0C19" transform="scale(0.488281 0.488281)" d="M644.078 422.331L665.277 425.056C667.762 425.389 671.187 425.418 673.45 426.306L601.155 485.085L589.404 482.852C591.215 479.985 594.192 477.449 596.59 475.044L616.503 456.072C626.941 445.576 635.516 434.346 644.078 422.331Z"/>
	<defs>
		<linearGradient id="gradient_0" gradientUnits="userSpaceOnUse" x1="727.30219" y1="500.24109" x2="688.95026" y2="469.56339">
			<stop offset="0" stop-color="#5E6D7C"/>
			<stop offset="1" stop-color="#7F5E88"/>
		</linearGradient>
	</defs>
	<path fill="url(#gradient_0)" transform="scale(0.488281 0.488281)" d="M731.638 434.063C741.953 434.986 749.654 437.122 759.052 441.629C753.646 441.422 747.87 441.021 742.529 441.912C726.153 444.644 712.556 455.174 703.188 468.544C692.063 484.421 686.05 503.889 685.76 523.25C685.638 531.354 686.785 539.366 688.222 547.315C688.856 549.852 689.442 552.447 690.269 554.927C690.978 557.056 693.412 560.855 693.25 562.9L686.485 549.684C677.208 526.593 676.679 499.737 686.516 476.767C692.53 462.726 702.347 449.39 715.536 441.406C720.565 438.361 726.196 436.238 731.638 434.063Z"/>
	<path fill="#282D4A" transform="scale(0.488281 0.488281)" d="M385.701 790.25L386.238 790.172L386.944 790.75L384.942 818.928C372.881 822.293 361.169 824.564 348.75 826.155C346.942 826.387 343.35 827.366 341.75 826.506L341.172 824.392L335.981 797.096C352.6 796.772 369.523 793.935 385.701 790.25Z"/>
	<path fill="#AE0C19" transform="scale(0.488281 0.488281)" d="M249.528 449.766L315.495 451.029L362.75 455.314L399.291 459.069L509.921 476.191L546 482.987L580.698 489.254C583.973 489.817 594.361 490.792 596.34 493.024L595.847 493.802C583.775 493.169 571.429 490.547 559.5 488.55L502.381 478.85L425.5 465.828L358.225 457.482L311.117 453.126L247.062 452.705C223.651 453.392 198.912 454.797 175.902 459.24C168.075 460.751 160.318 463.114 152.664 465.332L155.969 457.177L249.528 449.766Z"/>
	<path fill="#92AFCA" transform="scale(0.488281 0.488281)" d="M193.981 580.933L199.207 544.091L200.399 544.824L202.53 544.288L199.82 565.487C199.207 570.535 198.44 575.756 198.594 580.84C198.909 591.233 202.173 601.017 206.037 610.575C212.724 627.118 222.093 643.455 232.884 657.679C243.58 671.778 256.219 682.28 271.631 690.89C279.274 695.16 287.21 698.796 295.279 702.175C295.533 702.281 298.29 703.355 298.338 703.449C298.535 703.833 298.105 707.045 298.067 707.646L297.286 722.499L295.968 787.25C294.924 787.915 294.152 787.696 292.945 787.683C291.143 773.646 290.988 758.853 290.922 744.703C290.864 732.374 290.743 719.661 292.304 707.419L292.376 706.883L274.041 698.184C259.829 690.755 246.361 681.549 235.295 669.906C215.336 648.909 200.725 622.446 195.786 593.723C195.021 589.273 193.868 585.497 193.981 580.933Z"/>
	<path fill="#282D4A" transform="scale(0.488281 0.488281)" d="M245.333 779.315C248.53 782.394 252.464 784.229 256.431 786.119C256.755 796.899 259.357 808.316 260.986 818.997C261.494 822.325 261.488 826.187 262.312 829.388C272.478 836.158 283.771 841.781 295.674 844.75C301.505 846.204 307.59 846.786 313.56 847.339L294.711 863.129L279.884 876.777C278.782 877.89 275.139 882.513 274.043 882.64C269.378 872.853 267.045 862.238 264.007 851.883L253.009 813.5L245.333 779.315Z"/>
	<path fill="#F83F39" transform="scale(0.488281 0.488281)" d="M226.837 706.25L227.659 706.085C227.891 706.224 228.187 706.288 228.355 706.5C228.615 706.828 228.737 717.684 228.805 718.84C231.281 760.88 239.783 803.262 250.581 843.929L261.155 880.558L254.307 870.17C248.832 860.699 245.219 849.455 241.684 839.13C227.714 798.327 218.258 756.031 211.83 713.415L226.837 706.25Z"/>
	<path fill="#444761" transform="scale(0.488281 0.488281)" d="M269.748 790.704C289.558 794.887 309.076 797.503 329.35 797.468L336.175 827.831C314.729 829.061 295.216 828.175 275.232 819.517L269.748 790.704Z"/>
	<path fill="#F83F39" transform="scale(0.488281 0.488281)" d="M859.134 405.668C859.318 401.398 860.064 397.822 861.372 393.763C867.518 416.063 870.731 437.894 872.581 460.895C877.547 522.618 868.616 583.837 851.436 643.094L839.81 678.443C838.293 682.545 836.76 687.683 834.555 691.441C832.649 694.691 826.823 697.639 823.463 699.294L830.853 682.027C858.295 611.028 872.586 532.149 866.602 456.058C865.281 439.268 863.234 422.027 859.134 405.668Z"/>
	<path fill="#FEECB1" transform="scale(0.488281 0.488281)" d="M219.308 359.057L222.54 350C250.032 276.012 304.298 214.854 373.039 176.613C379.772 172.867 386.31 168.962 393.318 165.723C391.33 168.103 388.605 170.033 386.241 172.043L376.35 181.044L364.99 189.097C360.221 191.187 356.256 194.767 352.073 197.816C344.053 203.66 336.029 209.439 328.486 215.903L307.248 235.96C304.854 238.309 300.682 241.577 299.031 244.487L298.81 245.14L280.644 266.227C271.584 277.299 263.15 289.246 255.81 301.514L240.856 328.364C237.183 335.414 233.825 342.564 229.375 349.178C226.933 352.807 223.388 357.306 219.308 359.057Z"/>
	<path fill="#C7E3EA" transform="scale(0.488281 0.488281)" d="M233.585 492.061C237.133 491.759 245.919 489.94 248.808 491.379L224.752 634.192C221.119 628.715 218.048 622.744 215.423 616.727C214.569 614.769 213.139 612.025 212.778 609.939C212.658 609.247 213.308 607.269 213.456 606.515L215.229 596.766L233.585 492.061Z"/>
	<path fill="#8B051B" transform="scale(0.488281 0.488281)" d="M792.427 494.059C793.363 499.705 794.301 505.358 794.385 511.095C794.653 529.409 788.573 547.891 777.886 562.7C770.329 573.171 757.327 582.258 744.438 584.35C738.543 585.308 732.413 584.326 726.907 582.157L726.094 581.843C719.743 579.346 713.292 574.936 709.264 569.361C727.619 568.307 740.189 560.095 754.015 548.676C757.116 547.663 760.05 546.049 762.455 543.83C770.982 535.96 772.624 526.069 773.147 514.987C775.496 514.399 778.651 509.627 780.192 507.75C784.056 503.043 787.884 498.135 792.427 494.059Z"/>
	<path fill="#D92C1F" transform="scale(0.488281 0.488281)" d="M589.404 482.852L544.759 475.315L603.382 426.174C606.022 424.079 610.368 419.827 613.472 418.988C615.758 418.371 620.233 419.561 622.737 419.871L644.078 422.331C635.516 434.346 626.941 445.576 616.503 456.072L596.59 475.044C594.192 477.449 591.215 479.985 589.404 482.852Z"/>
	<path fill="#EF9F3D" transform="scale(0.488281 0.488281)" d="M403.969 727.474L404.007 718.834L478.107 686.249L562.87 642.423L577.976 633.587C580.343 632.142 583.601 630.469 585.505 628.432C587.27 626.543 588.156 617.431 588.666 614.604L598.765 551.037L604.239 518.25L607.006 501.961C607.259 500.481 607.351 497.878 607.903 496.552C608.134 495.996 609.596 494.962 610.091 494.537L617.194 488.45C617.028 492.381 616.14 495.833 615.442 499.672L611.758 520.607L601.933 581.5L595.149 621.72C594.417 625.062 593.728 630.164 591.162 632.535C588.631 634.873 585.183 636.537 582.244 638.339L558.015 652.271L462.346 704.204C450.338 709.966 437.859 714.252 425.5 719.128L412.038 724.537C409.463 725.593 406.716 727.022 403.969 727.474Z"/>
	<defs>
		<linearGradient id="gradient_1" gradientUnits="userSpaceOnUse" x1="200.60106" y1="780.98492" x2="232.47398" y2="763.94019">
			<stop offset="0" stop-color="#EA3216"/>
			<stop offset="1" stop-color="#F4A41F"/>
		</linearGradient>
	</defs>
	<path fill="url(#gradient_1)" transform="scale(0.488281 0.488281)" d="M179.421 698.411C175.397 684.079 171.653 668.919 170.197 654.077L187.27 687.017C191.603 693.189 195.545 699.594 200.22 705.529L205.693 712.151C205.997 712.509 207.057 713.513 207.214 713.935C208.361 716.998 208.286 722.249 208.789 725.602L213.219 750.687C216.191 766.313 220.716 781.817 224.754 797.202C228.675 812.142 233.651 826.847 238.863 841.385C240.892 847.044 244.245 852.814 245.628 858.575C238.236 849.798 232.134 840.07 226.305 830.209C206.294 796.355 193.504 759.771 184.671 721.558C182.892 713.864 180.266 706.273 179.421 698.411Z"/>
	<path fill="#FEECB1" transform="scale(0.488281 0.488281)" d="M179.421 698.411C175.397 684.079 171.653 668.919 170.197 654.077L187.27 687.017L187.179 687.76C187.088 688.965 187.669 689.873 188.163 690.924C190.673 696.269 192.174 702.371 194.035 707.97L208.762 757.407C211.873 768.491 215.864 779.536 218.131 790.828C214.455 785.862 211.763 780.219 208.967 774.727C196.567 750.375 188.608 724.039 179.421 698.411Z"/>
	<path fill="#FEECB1" transform="scale(0.488281 0.488281)" d="M173.778 418.46C175.598 414.606 185.314 394.325 188.083 393.198C190.998 392.012 195.299 391.988 198.453 391.685L232.602 389.876C333.127 387.752 433.748 395.435 533.353 408.713L580.246 415.202C588.281 416.308 596.68 416.841 604.575 418.609C602.095 420.059 597.954 419.243 595.146 419.107L568.876 417.118L441.953 405.477L382.013 401.14L309.436 398.605C283.366 398.07 257.005 397.762 231 400.02C215.314 401.382 200.009 404.228 185.703 411.096C183.233 412.283 180.997 413.766 178.798 415.393C177.518 416.341 175.953 417.855 174.412 418.297L173.778 418.46Z"/>
	<path fill="#FEECB1" transform="scale(0.488281 0.488281)" d="M277.053 441.993C273.036 442.478 268.354 442.028 264.271 442.052L237.529 442.51C210.727 443.238 183.405 445.554 156.997 450.219L168.235 427.729C173.335 427.377 178.473 425.918 183.558 425.216C191.169 424.166 198.981 423.782 206.657 423.434C258.623 421.079 310.681 423.85 362.5 427.803L434.962 434.135C432.91 435.245 430.362 434.924 428.078 434.966L416.705 435.35L323.85 440.42L294.895 440.953C289.636 440.991 283.857 440.572 278.669 441.246C277.969 441.337 277.584 441.541 277.053 441.993Z"/>
	<path fill="#62677F" transform="scale(0.488281 0.488281)" d="M193.981 580.933C193.868 585.497 195.021 589.273 195.786 593.723C200.725 622.446 215.336 648.909 235.295 669.906C246.361 681.549 259.829 690.755 274.041 698.184L292.376 706.883L292.304 707.419C290.743 719.661 290.864 732.374 290.922 744.703C290.988 758.853 291.143 773.646 292.945 787.683L266.116 781.415C263.454 774.718 260.591 768.347 258.566 761.396C252.421 740.308 251.235 716.761 249.974 694.865C243.685 691.529 238.734 687.336 233.179 682.993C221.155 671.14 212.013 657.253 204.317 642.283C198.484 630.937 193.68 619.5 190.891 607C189.843 602.306 191.165 598.145 191.968 593.5L193.981 580.933Z"/>
	<path fill="#EF9F3D" transform="scale(0.488281 0.488281)" d="M434.962 434.135C445.169 434.443 455.814 436.292 466 437.344L546.306 446.78L561.732 448.662C563.78 448.907 566.584 448.904 568.445 449.67L546.482 467.918C544.41 469.622 541.49 472.729 539.155 473.86C538.484 474.185 538.289 474.176 537.647 474.087L277.053 441.993C277.584 441.541 277.969 441.337 278.669 441.246C283.857 440.572 289.636 440.991 294.895 440.953L323.85 440.42L416.705 435.35L428.078 434.966C430.362 434.924 432.91 435.245 434.962 434.135Z"/>
	<path fill="#444761" transform="scale(0.488281 0.488281)" d="M859.134 405.668C863.234 422.027 865.281 439.268 866.602 456.058C872.586 532.149 858.295 611.028 830.853 682.027L823.463 699.294L796.973 713.39C797.169 710.647 798.922 707.773 800.1 705.316C803.593 698.033 808.27 690.993 811.181 683.484L811.636 682.805C812.874 680.928 813.707 678.894 814.597 676.839C836.333 626.626 847.305 571.193 850.72 516.75C851.649 501.944 852.346 486.977 851.494 472.158L850.596 457.342C850.374 454.148 850.314 450.72 849.127 447.717L855.99 416.312C856.904 412.759 857.563 408.986 859.134 405.668Z"/>
	<path fill="#AE0C19" transform="scale(0.488281 0.488281)" d="M827.243 427.111C830.808 393.027 826.555 356.859 815.004 324.574C805.157 297.054 790.619 273.32 772.489 250.5C749.683 221.795 723.132 197.389 692.384 177.426C684.105 172.051 676.362 166.613 667.403 162.375C671.796 162.706 676.741 164.948 680.817 166.633C693.075 171.7 704.445 177.956 715.719 184.919C721.932 188.756 728.685 192.889 734.126 197.792C743.045 204.686 751.983 211.716 760.195 219.456C784.515 242.377 804.895 269.459 822.027 298.064C829.916 311.237 837.343 324.561 843.457 338.666C848.278 349.79 851.901 361.097 855.812 372.532C856.595 374.819 855.649 377.476 855.13 379.75L851.397 393.664C846.97 410.555 838.887 427.404 831.346 443.104C829.295 440.321 829.883 434.605 829.513 431.17C829.493 430.98 829.369 429.16 829.28 429.055C829.177 428.933 828.384 428.883 828.25 428.755C827.785 428.311 827.579 427.659 827.243 427.111Z"/>
	<path fill="#F83F39" transform="scale(0.488281 0.488281)" d="M734.126 197.792C743.045 204.686 751.983 211.716 760.195 219.456C784.515 242.377 804.895 269.459 822.027 298.064C829.916 311.237 837.343 324.561 843.457 338.666C848.278 349.79 851.901 361.097 855.812 372.532C856.595 374.819 855.649 377.476 855.13 379.75L851.397 393.664C849.458 390.916 848.738 386.818 847.894 383.572L843.167 365.093L837.19 347.226C820.104 300.963 793.47 260.397 759.284 224.943L735.75 202.392L736 201.877L742.641 207.725C747.102 210.888 751.204 215.965 755.125 219.875C757.227 221.971 760.135 224.169 761.906 226.5C763.488 228.581 765.696 230.279 767.125 232.375C770.163 236.83 774.95 240.15 778.082 244.479C779.102 245.889 780.384 247.063 781.393 248.48L781.75 249L782.5 249.004C783.093 247.96 783.542 247.201 783.75 246C782.024 242.521 777.754 240.005 775.577 236.875C774.01 234.622 771.863 233.132 770.25 231C767.851 227.83 764.684 224.406 761.535 221.906C759.515 220.302 757.296 217.396 755.22 216.184C753.977 215.458 753.269 214.186 752.125 213.375C750.326 212.099 748.091 210.423 746.536 208.817C745.841 208.098 746.206 208.385 745.425 207.828L739.798 203.394L738.75 202.5C737.242 201.459 736.002 200.238 734.522 199.172L733.753 198.625L734.126 197.792Z"/>
	<path fill="#FEECB1" transform="scale(0.488281 0.488281)" d="M290.805 382.572L280.606 382.293L281.003 380.25C289.179 341.988 302.533 303.377 321.299 268.991C343.042 229.148 372.479 193.655 407.446 164.777L429.829 147.156C432.202 145.363 434.48 143.094 437.034 141.591C439.129 140.358 442.021 139.879 444.378 139.292L462.151 135.513C512.4 126.243 566.26 125.981 615.946 138.727L615.325 139.059C613.372 140.008 609.097 139.112 606.805 139.068L568.193 138.051C543.072 138.169 517.812 139.676 492.931 143.237C477.85 145.395 462.455 148.104 448.205 153.618C430.158 160.6 412.814 174.55 398.838 187.672C384.56 201.079 370.782 215.371 358.949 231.002C338.683 257.773 323.157 289.489 310.412 320.429L290.805 382.572Z"/>
	<path fill="#D92C1F" transform="scale(0.488281 0.488281)" d="M623.832 143.691C628.764 141.9 645.6 148.825 650.705 151.068C620.633 153.599 589.532 162.118 562.5 175.587C545.564 184.025 528.544 194.507 513.733 206.276C474.222 237.67 442.368 280.815 420.459 326.043C411.839 343.839 405.038 362.134 398.75 380.857L396.671 387.68L379.133 385.897L390.971 352.501C400.052 329.442 411.119 307.199 423.51 285.752C431.458 271.996 439.564 258.764 449.329 246.211C479.99 206.794 521.749 173.776 568.9 156.489C586.449 150.055 605.311 145.997 623.832 143.691Z"/>
	<path fill="#8B051B" transform="scale(0.488281 0.488281)" d="M793.209 561.75L793.544 562.516L780.074 621L772.717 649.32C771.106 655.02 769.654 661.08 767.228 666.492C765.447 670.464 762.708 673.813 759.525 676.751C753.785 682.048 746.658 686.32 740.345 690.955L703.486 717.996L606.661 788.166C577.104 808.244 546.033 826.348 514.468 843.044C482.65 859.874 450.512 875.4 416.75 887.971L416.102 887.201C416.341 885.978 417.19 879.654 417.715 879.104C418.601 878.178 422.047 876.989 423.414 876.339L497.656 838.896C571.076 797.842 639.273 748.537 707.343 699.34L740.335 675.33C744.899 671.921 752.016 667.678 755.243 662.969C757.817 659.212 758.9 651.88 760.186 647.467L771.797 607.16C774.106 598.892 776.023 589.965 779.179 581.985C780.653 578.258 783.927 575.254 786.395 572.129C788.976 568.86 791.219 565.405 793.209 561.75Z"/>
	<defs>
		<linearGradient id="gradient_2" gradientUnits="userSpaceOnUse" x1="406.60776" y1="502.19574" x2="415.40009" y2="677.01843">
			<stop offset="0" stop-color="#86C2E7"/>
			<stop offset="1" stop-color="white"/>
		</linearGradient>
	</defs>
	<path fill="url(#gradient_2)" transform="scale(0.488281 0.488281)" d="M410.511 501.677L436.751 507.384C440.623 508.238 445.008 509.791 448.887 510.169L434.327 581.158C432.124 592.012 430.599 603.877 427.264 614.389L427.222 614.385C426.74 619.834 424.984 625.541 423.875 630.925L416.831 664.004C411.257 665.52 405.692 668.004 400.296 670.091L374.5 680.165L387.968 610.198L410.511 501.677Z"/>
	<path fill="#D92C1F" transform="scale(0.488281 0.488281)" d="M364.99 189.097L376.35 181.044L376.037 181.512C374.164 184.243 371.834 186.512 369.669 189.002L358.355 202.057C352.121 209.229 346.355 216.975 340.721 224.618C308.504 268.32 287.833 320.899 275.218 373.454L251.578 375.667L227.891 377.706C223.89 378.125 219.066 378.172 215.445 379.995C215.283 380.899 215.291 381.588 215.4 382.5C213.947 382.979 212.48 382.929 210.96 382.998L210.822 382.671L219.308 359.057C223.388 357.306 226.933 352.807 229.375 349.178C233.825 342.564 237.183 335.414 240.856 328.364L255.81 301.514C263.15 289.246 271.584 277.299 280.644 266.227L298.81 245.14L299.031 244.487C300.682 241.577 304.854 238.309 307.248 235.96L328.486 215.903C336.029 209.439 344.053 203.66 352.073 197.816C356.256 194.767 360.221 191.187 364.99 189.097Z"/>
	<path fill="#F6978E" transform="scale(0.488281 0.488281)" d="M298.81 245.14L299.031 244.487C300.682 241.577 304.854 238.309 307.248 235.96L328.486 215.903C336.029 209.439 344.053 203.66 352.073 197.816C356.256 194.767 360.221 191.187 364.99 189.097C363.531 191.358 361.458 192.687 359.445 194.398L352.842 200.594L336.552 217.739C328.142 227.11 319.573 236.944 312.242 247.188C307.48 253.843 303.399 261.016 299.163 268.011C289.921 283.27 281.889 298.306 275.039 314.788C270.116 326.633 266.055 338.159 264 350.84C260.777 348.956 258.949 347.569 257.875 343.884C256.889 340.498 257.531 336.353 258.029 332.948C261.039 312.379 271.38 290.807 281.87 273.079L292.917 255.705C294.569 253.266 297.748 249.899 298.755 247.25C299.032 246.521 298.886 245.894 298.81 245.14Z"/>
	<path fill="#282D4A" transform="scale(0.488281 0.488281)" d="M849.127 447.717C850.314 450.72 850.374 454.148 850.596 457.342L851.494 472.158C852.346 486.977 851.649 501.944 850.72 516.75C847.305 571.193 836.333 626.626 814.597 676.839C813.707 678.894 812.874 680.928 811.636 682.805C811.263 682.748 810.889 682.576 810.516 682.635C809.248 682.834 806.978 684.351 805.747 684.937L795.5 689.505L744.702 711.671C754.283 701.405 767.839 694.947 775.944 683.25C780.978 675.985 783.875 667.291 786.847 659.042C798.341 627.138 805.762 593.577 811.012 560.125L814.312 535.871C814.904 531.324 814.819 524.632 817.209 520.783C820.547 515.408 823.242 509.564 826.037 503.891L842.896 465.073L849.127 447.717Z"/>
	<path fill="#D92C1F" transform="scale(0.488281 0.488281)" d="M755.11 450.26C766.648 452.756 776.836 462.562 782.993 472.25C787.273 478.985 790.079 486.475 792.427 494.059C787.884 498.135 784.056 503.043 780.192 507.75C778.651 509.627 775.496 514.399 773.147 514.987C772.624 526.069 770.982 535.96 762.455 543.83C760.05 546.049 757.116 547.663 754.015 548.676C740.189 560.095 727.619 568.307 709.264 569.361L706.316 565.257C697.601 552.098 691.15 532.371 694.418 516.473C696.273 513.071 697.311 508.696 698.733 505.047C702.858 494.462 707.583 483.634 714.191 474.337C721.608 463.9 731.862 456.153 744.148 452.43C747.714 451.35 751.445 450.902 755.11 450.26Z"/>
	<path fill="#010224" transform="scale(0.488281 0.488281)" d="M754.015 548.676C750.287 548.157 747.036 547.588 743.704 545.71C738.289 542.659 735.03 536.221 733.456 530.389C730.83 520.663 731.893 509.043 737.031 500.309C739.924 495.391 744.367 491.518 750.03 490.234C754.426 489.238 758.531 490.471 762.134 493.026C769.48 498.234 771.543 506.662 773.147 514.987C772.624 526.069 770.982 535.96 762.455 543.83C760.05 546.049 757.116 547.663 754.015 548.676Z"/>
	<path fill="#FEFEF9" transform="scale(0.488281 0.488281)" d="M763.527 502.75C765.178 502.669 765.473 502.638 766.774 503.67C769.433 505.78 770.456 510.916 770.926 514.208C771.639 519.194 770.756 524.215 767.75 528.314C766.708 529.101 766.002 528.998 764.75 529.008C764.225 528.567 763.727 528.166 763.356 527.578C760.407 522.905 760.18 513.157 761.262 507.882L761.4 507.25C761.821 505.256 762.146 504.281 763.527 502.75Z"/>
	<path fill="#282D4A" transform="scale(0.488281 0.488281)" d="M562.213 521.442L566.828 500.819C573.758 501.027 580.665 502.655 587.489 503.785L590.25 504.357C592.012 507.668 588.426 523.392 587.841 527.898L577.7 597.704L575.601 618.472C575.351 621.82 575.738 625.849 574.971 629.061L539.717 648.968L433.225 700.86C422.183 705.782 411.08 711.645 399.805 715.886L387.99 781.523L349.968 788.156L353.484 746.5C354.97 734.906 357.115 723.155 359.884 711.802C360.167 710.643 360.564 707.431 361.182 706.55C361.724 705.777 382.992 698.809 385.634 697.749L504.5 648.088C520.959 640.64 537.647 633.169 552.009 622.017C556.223 618.745 560.156 615.228 562.888 610.59C573.221 593.049 575.316 569.643 578.836 549.902C580.223 542.125 582.203 534.227 583.174 526.413L562.213 521.442Z"/>
	<path fill="#0F1638" transform="scale(0.488281 0.488281)" d="M587.489 503.785L590.25 504.357C592.012 507.668 588.426 523.392 587.841 527.898L587.381 527.139L583.538 526.329C583.481 523.882 584.181 521.183 584.604 518.766L587.489 503.785Z"/>
	<path fill="#F88227" transform="scale(0.488281 0.488281)" d="M173.778 418.46L174.412 418.297C175.953 417.855 177.518 416.341 178.798 415.393C180.997 413.766 183.233 412.283 185.703 411.096C200.009 404.228 215.314 401.382 231 400.02C257.005 397.762 283.366 398.07 309.436 398.605L382.013 401.14L441.953 405.477L568.876 417.118L595.146 419.107C597.954 419.243 602.095 420.059 604.575 418.609C604.923 418.498 605.963 418.658 606.346 418.686C604.418 421.383 599.991 423.847 597.34 425.953L575.423 443.64C566.613 441.522 556.726 441.117 547.702 439.949L490.291 432.898L441.409 427.329L377.641 422.017L270.425 416.17C250.001 415.734 229.161 415.322 208.784 416.791L184.682 418.742C181.618 419.049 175.877 420.591 173.061 419.75L173.778 418.46Z"/>
	<path fill="#F88227" transform="scale(0.488281 0.488281)" d="M617.194 488.45L632.733 473.69L625.336 522.172L615.323 591.126L610.928 624.816C610.285 630.599 609.328 636.434 609.519 642.264C601.553 646.367 593.971 651.39 586.313 656.058L556.123 673.806L464.143 721.304L427.961 737.332L419.866 817.919L416.196 852.162L409.321 890.637L403.47 892.711L403.969 727.474C406.716 727.022 409.463 725.593 412.038 724.537L425.5 719.128C437.859 714.252 450.338 709.966 462.346 704.204L558.015 652.271L582.244 638.339C585.183 636.537 588.631 634.873 591.162 632.535C593.728 630.164 594.417 625.062 595.149 621.72L601.933 581.5L611.758 520.607L615.442 499.672C616.14 495.833 617.028 492.381 617.194 488.45Z"/>
	<path fill="#F88227" transform="scale(0.488281 0.488281)" d="M590.318 660.185C589.007 664.146 583.294 669.227 580.56 672.464L555.908 701.773L453.368 831.599L434.624 854.01C431.095 858.143 425.986 863.04 423.502 867.852L419.754 870.028L433.023 740.751L590.318 660.185Z"/>
	<path fill="#62677F" transform="scale(0.488281 0.488281)" d="M562.213 521.442L583.174 526.413C582.203 534.227 580.223 542.125 578.836 549.902C575.316 569.643 573.221 593.049 562.888 610.59C560.156 615.228 556.223 618.745 552.009 622.017C537.647 633.169 520.959 640.64 504.5 648.088L385.634 697.749C382.992 698.809 361.724 705.777 361.182 706.55C360.564 707.431 360.167 710.643 359.884 711.802C357.115 723.155 354.97 734.906 353.484 746.5L349.968 788.156C332.755 789.426 316.237 789.508 299.012 788.099L305.608 703.844C325.661 699.714 345.475 695.255 365 689.009C394.395 679.607 422.755 666.188 451.411 654.753L506.942 632.75C515.188 629.303 524.426 626.084 531.813 621.04C537.534 617.135 541.146 611.187 543.911 604.991C550.551 590.115 552.342 573.99 555.241 558.126L562.213 521.442Z"/>
	<path fill="#AE0C19" transform="scale(0.488281 0.488281)" d="M678.519 560.362L691.384 579.662C692.989 589.215 701.931 597.279 709.468 602.653C716.109 607.388 724.493 610.283 732.5 611.557L733.299 611.689C745.873 613.653 756.43 609.782 767.91 605.456L758.212 637.299L752.964 655.795C752.474 657.423 751.947 660.272 750.892 661.514C748.014 664.905 741.939 668.065 738.202 670.692L698.348 698.412L637.008 741.34L620.847 752.56C618.081 754.478 615.28 756.743 612.33 758.352L611.121 758.929C612.63 754.103 616.278 749.095 618.837 744.72L632.75 720.614L662.18 663.253L705.493 674.303L705.301 673.75C700.171 672.813 695 670.859 690.017 669.303L663.225 660.656C663.2 659.231 664.117 656.931 664.496 655.5L667.666 643.217L672.49 618.169C673.856 609.562 674.685 600.947 675.212 592.25C675.849 581.739 675.594 570.524 678.519 560.362Z"/>
	<path fill="#62677F" transform="scale(0.488281 0.488281)" d="M281.255 490.249C285.276 489.699 289.93 490.572 294.047 490.688C307.014 491.053 320.345 491.901 333.28 491.301L298.751 696.893L282.594 689.482C271.004 683.758 260.392 676.966 251.436 667.634C251.258 662.911 252.784 657.546 253.557 652.87L258.964 620.368L281.255 490.249Z"/>
	<path fill="#F83F39" transform="scale(0.488281 0.488281)" d="M663.225 660.656L614.557 642.201L634.08 472.617C640.13 466.407 647.11 460.778 653.693 455.119C664.043 446.222 674.505 437.138 685.632 429.228C686.223 428.808 686.913 428.12 687.641 428.081C691.997 427.846 697.921 429.492 702.284 430.123L728.691 433.737C719.812 436.489 711.564 439.301 703.958 444.845C680.489 461.952 667.996 496.116 669.593 524.515C670.31 537.258 673.483 548.707 678.519 560.362C675.594 570.524 675.849 581.739 675.212 592.25C674.685 600.947 673.856 609.562 672.49 618.169L667.666 643.217L664.496 655.5C664.117 656.931 663.2 659.231 663.225 660.656Z"/>
	<path fill="#D92C1F" transform="scale(0.488281 0.488281)" d="M590.318 660.185L611.244 647.3L662.18 663.253L632.75 720.614L618.837 744.72C616.278 749.095 612.63 754.103 611.121 758.929C608.377 761.509 605.068 763.538 601.964 765.656L584.163 777.411C543.06 804.416 501.272 829.705 457.291 851.794L435.701 862.348C431.703 864.241 427.69 866.438 423.502 867.852C425.986 863.04 431.095 858.143 434.624 854.01L453.368 831.599L555.908 701.773L580.56 672.464C583.294 669.227 589.007 664.146 590.318 660.185Z"/>
	<path fill="#F88227" transform="scale(0.488281 0.488281)" d="M290.805 382.572L310.412 320.429C323.157 289.489 338.683 257.773 358.949 231.002C370.782 215.371 384.56 201.079 398.838 187.672C412.814 174.55 430.158 160.6 448.205 153.618C462.455 148.104 477.85 145.395 492.931 143.237C517.812 139.676 543.072 138.169 568.193 138.051L606.805 139.068C609.097 139.112 613.372 140.008 615.325 139.059L615.946 138.727C617.521 139.07 618.944 139.45 620.438 140.059C601.249 143.471 582.321 147.157 563.966 153.915C511.497 173.235 464.214 214.208 432.521 259.781C414.613 285.533 399.691 314.188 387.68 343.141L371.796 385.612C368.653 385.868 365.267 385.455 362.111 385.294L345.488 384.49L290.805 382.572Z"/>
	<path fill="#FEECB1" transform="scale(0.488281 0.488281)" d="M356.171 245.809L363.379 254.166C372.864 263.496 385.861 268.949 399.016 270.3C402.926 270.701 407.004 270.507 410.935 270.474C404.218 278.721 398.791 287.714 393.519 296.923C387.973 306.61 382.683 316.512 378.492 326.871C375.38 334.561 372.957 342.552 370.324 350.416L363.25 350.421L308.269 350.495C319.553 314.047 333.956 277.173 356.171 245.809Z"/>
	<defs>
		<linearGradient id="gradient_3" gradientUnits="userSpaceOnUse" x1="642.04205" y1="520.17914" x2="566.96594" y2="176.23096">
			<stop offset="0" stop-color="#800419"/>
			<stop offset="1" stop-color="#BD031E"/>
		</linearGradient>
	</defs>
	<path fill="url(#gradient_3)" transform="scale(0.488281 0.488281)" d="M831.346 443.104C829.987 446.923 827.701 450.756 825.818 454.366C819.834 465.838 812.691 476.575 805.348 487.207C803.616 484.317 802.676 480.316 801.474 477.114C797.808 467.352 793.073 457.299 786.094 449.447C776.346 438.48 764.7 432.673 750.749 428.625C741.548 425.955 731.696 425.32 722.25 423.823L660.359 414.545L602 406.642L497.635 395.68L432.454 388.904L405.508 386.404L436.398 311.406C446.028 292.745 458.636 275.331 472.069 259.25C483.622 245.42 496.113 231.788 509.79 220.007C536.969 196.597 567.812 179.762 601.942 168.896C607.683 167.068 639.131 158.61 642.851 160.617C657.12 168.318 671.089 178.079 683.97 187.868C726.405 220.111 761.297 260.344 787.396 306.805C798.417 326.423 807.565 345.846 814.49 367.325C819.004 381.326 823.022 396.603 825.12 411.162C825.681 415.054 825.893 418.874 826.023 422.799C826.109 425.406 825.913 428.249 826.7 430.75L827.243 427.111C827.579 427.659 827.785 428.311 828.25 428.755C828.384 428.883 829.177 428.933 829.28 429.055C829.369 429.16 829.493 430.98 829.513 431.17C829.883 434.605 829.295 440.321 831.346 443.104Z"/>
	<path fill="#010224" transform="scale(0.488281 0.488281)" d="M762.18 306.75C763.354 306.827 764.09 307.56 765.022 308.257C785.443 323.542 796.445 345.011 804.464 368.665C808.575 380.793 811.885 393.598 813.159 406.368C813.31 407.888 813.475 409.256 813.798 410.75L813.43 410.494L812.891 407.57C811.652 399.6 808.977 391.266 806.402 383.609C798.264 359.412 787.03 337.432 772.056 316.75C769.36 313.026 765.52 309.909 762.18 306.75Z"/>
	<path fill="#F83F39" transform="scale(0.488281 0.488281)" d="M624.954 177.591L626.5 177.471C655.728 195.972 684.994 219.151 706.214 246.662C685.474 281.392 653.485 309.002 618.92 329.303C607.401 336.069 595.869 342.233 583.482 347.284C575.22 350.653 566.739 353.693 558.164 356.157C553.466 357.507 548.523 358.411 543.914 359.961C558.294 359.941 572.831 357.761 586.84 354.622C627.079 345.605 664.984 324.913 693.32 294.82C702.771 284.784 710.677 273.991 718.032 262.372C722.762 267.684 726.279 274.11 730.124 280.066C732.306 283.445 735.552 287.429 736.795 291.25L734.945 293.724C727.009 302.841 719.388 312.09 710.404 320.24C702.089 327.783 692.757 334.138 683.166 339.929C671.72 346.84 659.504 352.305 647.029 357.059C582.424 381.681 510.872 378.932 444.625 362.563C450.377 341.488 457.631 321.28 468.028 302.005C485.592 269.443 511.827 240.912 541.124 218.579C553.293 209.302 565.997 200.769 579.75 194.008C594.219 186.897 609.541 182.17 624.954 177.591Z"/>
</svg>
