<?xml version="1.0" encoding="utf-8" ?>
<svg xmlns="http://www.w3.org/2000/svg" xmlns:xlink="http://www.w3.org/1999/xlink" width="500" height="500">
	<path fill="#48BFB8" transform="scale(0.488281 0.488281)" d="M0 0.5C1.85651 -0.340267 4.13092 -0.0331886 6.13233 -0.0331485L17.5635 -0.0314603L59.6196 -0.0335266L223.885 -0.033211L1022.5 0L1023.98 0.273438L1024 797.37L1024 1024L-0 1024L0 792.035L0 0.5Z"/>
	<path fill="#169EB3" transform="scale(0.488281 0.488281)" d="M549.964 157.446L550.134 152.5L550.75 152.013C552.154 153.024 552.973 153.77 553.299 155.589L553.53 157.381L549.964 157.446Z"/>
	<path fill="#89D7CB" transform="scale(0.488281 0.488281)" d="M0 0.5C1.85651 -0.340267 4.13092 -0.0331886 6.13233 -0.0331485L17.5635 -0.0314603L59.6196 -0.0335266L223.885 -0.033211L1022.5 0C1015.91 1.12407 1008.31 0.342164 1001.58 0.350611L960.43 0.502412L788.6 0.53549L189.502 0.514251L50.0515 0.520084L14.871 0.386419C10.3125 0.367156 4.41544 -0.327835 0 0.5Z"/>
	<path fill="#169EB3" transform="scale(0.488281 0.488281)" d="M553.53 157.381L555.75 157.697C556.576 160.349 556.088 164.177 556.098 166.966L556.138 186.508L531.485 186.484L531.327 214.536L513.018 202.986L515.553 201.984L524.006 201.717L524.033 176.766C528.989 176.873 546.192 177.938 549.25 176.419L549.582 174.43C550.175 172.814 549.935 170.881 549.943 169.169L549.964 157.446L553.53 157.381Z"/>
	<path fill="#89D7CB" transform="scale(0.488281 0.488281)" d="M312.022 415.029L311.991 363.047L359.839 363.128L359.727 370.526L359.491 415.078L312.022 415.029Z"/>
	<path fill="#89D7CB" transform="scale(0.488281 0.488281)" d="M263.013 473.113L263.008 415.192L312.022 415.029L311.947 473.205L263.013 473.113Z"/>
	<path fill="#FAF9F6" transform="scale(0.488281 0.488281)" d="M476.129 176.873C474.802 176.882 473.401 177.09 472.25 176.331C471.706 173.554 472.037 170.213 472.034 167.368L472.034 151.496L498.344 151.514L498.478 128.199C502.71 128.142 521.846 127.11 524.123 128.75L524.435 132.17C526.91 132.39 528.424 132.784 530.637 133.845L532.14 134.524L532.066 151.597L549.544 151.646L549.582 174.43L549.25 176.419C546.192 177.938 528.989 176.873 524.033 176.766L524.006 201.717L515.553 201.984L498.651 201.987L498.548 187.065L484.401 187.067C481.527 184.063 477.633 180.798 476.129 176.873Z"/>
	<path fill="#169EB3" transform="scale(0.488281 0.488281)" d="M524.435 132.17C526.91 132.39 528.424 132.784 530.637 133.845L532.14 134.524L532.066 151.597L524.43 151.525L524.435 132.17Z"/>
	<path fill="#169EB3" transform="scale(0.488281 0.488281)" d="M476.129 176.873L498.534 176.673L498.548 187.065L484.401 187.067C481.527 184.063 477.633 180.798 476.129 176.873Z"/>
	<defs>
		<linearGradient id="gradient_0" gradientUnits="userSpaceOnUse" x1="404.63812" y1="254.58968" x2="439.06635" y2="294.29956">
			<stop offset="0" stop-color="#5A6583"/>
			<stop offset="1" stop-color="#526F87"/>
		</linearGradient>
	</defs>
	<path fill="url(#gradient_0)" transform="scale(0.488281 0.488281)" d="M512.586 203.328L512.526 232.491L381.022 313.511L366.617 322.355C364.642 323.541 361.256 324.976 359.933 326.868C357.592 327.435 354.628 329.741 352.5 331.001L330 344.591L330.003 319.248C330.275 317.936 330.949 317.796 331.945 317.099L359.327 299.822L403.445 272.33L489.629 218.372L512.586 203.328Z"/>
	<path fill="#375069" transform="scale(0.488281 0.488281)" d="M513.018 202.986L531.327 214.536L646.259 283.917L680.879 305.014C686.266 308.354 692.578 311.474 697.261 315.738C694.946 323.622 692.806 331.696 688.998 339.02L665.99 325.293L512.526 232.491L512.586 203.328L513.018 202.986Z"/>
	<path fill="#FAF9F6" transform="scale(0.488281 0.488281)" d="M897.821 283.18C901.485 282.804 906.158 283.671 909.527 285.013C918.014 288.395 922.854 294.38 926.371 302.581C929.109 302.485 932.771 301.992 935.366 302.951C939.253 304.388 941.76 307.567 943.57 311.131L945.444 314.78C950.226 314.929 954.126 316.286 957.632 319.69C960.495 322.471 962.046 326.24 962.055 330.234C962.066 334.843 959.992 339.429 956.745 342.652C954.264 345.115 951.258 346.761 947.818 347.436C942.309 348.516 935.849 347.965 930.227 347.973L898.75 347.983L848.186 347.736C844.302 347.514 841.154 346.271 838.584 343.272C835.466 339.633 834.163 335.47 834.495 330.75C834.791 326.547 836.889 322.449 840.12 319.75C844.741 315.889 849.752 315.947 855.395 316.405C856.418 312.178 857.231 308.096 860.802 305.21C864.477 302.24 868.623 301.812 873.159 302.256L873.909 302.335C875.209 299.21 876.598 296.072 878.68 293.375C883.508 287.124 890.138 284.142 897.821 283.18Z"/>
	<path fill="#89D7CB" transform="scale(0.488281 0.488281)" d="M144.955 584.944L145.085 459.521L242.827 459.201L242.556 473.069L163.588 473.272L163.488 511.505L180.067 511.495L180.135 514.74L180.059 688.978C178.83 688.322 171.192 684.604 170.988 684.1C170.31 682.424 170.991 676.733 170.991 674.72L170.979 643.171C170.966 633.096 171.781 622.403 168.654 612.676C164.793 600.666 156.485 591.06 145.255 585.356L144.955 584.944Z"/>
	<path fill="#375069" transform="scale(0.488281 0.488281)" d="M242.556 473.069L263.013 473.113L311.947 473.205L359.438 473.496L359.479 511.483L180.067 511.495L163.488 511.505L163.588 473.272L242.556 473.069Z"/>
	<path fill="#89D7CB" transform="scale(0.488281 0.488281)" d="M699.914 333.92L788.159 333.983C788.887 339.155 788.445 344.885 788.449 350.121L788.451 379.168L788.433 471.994L699.827 472.024L699.914 333.92Z"/>
	<path fill="#FAF9F6" transform="scale(0.488281 0.488281)" d="M766.693 123.161C776.314 122.281 784.509 123.292 793.022 128.002C802.705 133.36 809.377 142.36 812.347 152.897L817.75 151.635C823.23 150.747 828.594 152.445 833.055 155.577C839.905 160.387 842.549 166.033 843.986 174.164L849.107 173.936C856.848 173.733 863.009 176.35 868.579 181.723C873.499 186.47 876.446 192.719 876.575 199.58C876.726 207.627 874.409 214.203 868.762 219.984C865.835 222.98 861.638 225.72 857.524 226.669C853.794 227.53 849.588 227.304 845.772 227.31L826.256 227.241L780.25 227.228L694.25 227.004C687.616 226.729 681.475 223.715 677.069 218.75C671.922 212.951 668.923 205.318 669.581 197.523C670.156 190.71 673.635 184.354 678.912 180.034C686.033 174.206 692.312 173.715 701.063 174.541C701.383 173.418 701.294 173.863 701.458 172.852L702.081 169.49C703.608 163.114 707.271 158.22 712.861 154.806C719.119 150.985 725.435 151.097 732.306 152.784C733.664 148.287 735.34 144.163 738.056 140.298C744.952 130.488 755.073 125.08 766.693 123.161Z"/>
	<path fill="#FAF9F6" transform="scale(0.488281 0.488281)" d="M227.399 68.6496C237.956 67.592 247.915 69.1426 256.839 75.0746C265.126 80.5828 270.9 88.4702 272.701 98.3101L272.808 98.9204C275.007 98.1818 277.305 97.5806 279.63 97.4596C286.335 97.1105 291.689 98.7718 296.67 103.445C301.911 108.361 303.104 113.152 303.362 119.978C312.142 119.999 318.721 121.485 325.25 127.689C330.763 132.928 333.87 140.262 333.947 147.858C334.023 155.44 330.868 162.597 325.521 167.904C321.796 171.601 317.186 174.439 312 175.514C304.419 177.085 295.11 176.213 287.304 176.221L240.25 176.189L185.174 176.338C175.582 176.358 164.094 177.535 154.738 175.492C150.253 174.512 146.142 172.063 142.792 168.981C137.758 164.349 134.16 157.072 133.912 150.221C133.631 142.48 136.276 134.889 141.664 129.25C148.179 122.43 155.427 120.439 164.619 120.168C164.858 117.007 165.271 113.954 166.422 110.969C168.426 105.773 172.678 101.858 177.74 99.6798C183.901 97.0287 188.579 97.362 194.683 99.708C195.669 94.7373 197.693 89.8125 200.541 85.6299C206.873 76.3304 216.45 70.6494 227.399 68.6496Z"/>
	<path fill="#FAF9F6" transform="scale(0.488281 0.488281)" d="M169.25 254.204C178.681 253.891 188.055 257.537 195.257 263.573C201.69 268.964 206.824 276.924 207.536 285.415C207.614 286.337 207.432 285.841 208.25 286.72L210.931 285.911C216.915 284.518 223.879 285.714 228.982 289.118C236.148 293.899 239.514 300.388 241.178 308.693C243.399 308.096 245.991 307.622 248.289 307.619C255.756 307.609 263.375 310.921 268.656 316.149C273.815 321.257 276.649 327.907 276.68 335.185C276.712 342.708 274.43 350.434 268.889 355.798C265.601 358.979 260.875 361.765 256.345 362.685C252.945 363.376 249.336 363.233 245.883 363.243L229.588 363.257L173.375 363.112L87.7103 363.313C81.5685 363.034 75.8437 360.019 71.792 355.391C66.6569 349.526 63.8531 342.142 64.5838 334.305C65.6956 322.379 75.9307 311.129 87.6894 308.75C89.104 308.464 96.6463 308.516 97.153 308.101C97.3252 307.96 97.975 306.016 98.0808 305.761C98.8908 303.802 99.84 301.879 100.91 300.05C102.673 297.036 105.07 294.347 107.793 292.163C115.592 285.909 122.703 285.098 132.428 286.111C134.163 279.244 136.034 273.502 140.79 268.075C148.448 259.338 157.743 255.038 169.25 254.204Z"/>
	<path fill="#89D7CB" transform="scale(0.488281 0.488281)" d="M37.6847 718.652C36.5625 709.835 37.4461 700.046 37.38 691.12L37.0294 629.237L37.0015 427.009L115.555 426.955L115.887 580.727C104.373 582.824 93.1477 589.584 86.5857 599.359C82.0157 606.167 79.4971 613.641 78.4316 621.75L78.3059 622.668C77.4631 629.366 77.9668 636.574 77.9655 643.327L78.0005 683.068C61.7638 688.395 47.1149 699.973 39.3344 715.301L37.6847 718.652Z"/>
	<path fill="#89D7CB" transform="scale(0.488281 0.488281)" d="M834.112 471.965L834.023 414.447L903.002 414.428L918.491 414.464C920.703 414.469 923.655 414.092 925.75 414.823L925.864 416.918L925.869 482.031L988.028 481.974L988.002 647.847L988.022 693.43L988.017 704.427C988.006 705.906 988.225 707.712 987.406 708.984C982.241 701.151 976.009 693.767 968.165 688.512C965.79 686.92 963.287 685.543 960.776 684.18C960.475 684.017 959.966 684.021 959.871 683.691C959.657 682.948 959.928 680.967 959.931 680.13L959.964 671.219L960.051 639.268C960.063 632.791 960.585 625.769 959.528 619.375C958.6 613.761 956.622 608.286 953.962 603.265C948.696 593.323 938.779 585.563 928.129 582.209L925.841 581.279C915.422 578.074 905.023 579.106 894.95 582.904C883.735 588.147 874.775 596.754 870.416 608.538C869.146 611.971 868.358 615.843 868.086 619.495C867.606 625.94 867.902 632.571 867.909 639.038L867.961 673.077C867.963 674.532 868.454 683.115 867.872 683.925C867.708 684.153 866.653 684.693 866.372 684.816L863.365 685.906C862.674 684.245 862.96 681.835 862.953 680.035L862.946 665.645L863.825 580.99L863.955 511.578L863.822 471.9L834.112 471.965Z"/>
	<path fill="#A4E1D4" transform="scale(0.488281 0.488281)" d="M894.95 582.904L895.07 481.578L925.432 481.904L925.55 550.276C925.558 560.38 924.774 571.276 925.841 581.279C915.422 578.074 905.023 579.106 894.95 582.904Z"/>
	<path fill="#EA665A" transform="scale(0.488281 0.488281)" d="M512.526 232.491L665.99 325.293L665.969 335.179L666.083 370.431L643.155 370.319L359.727 370.526L359.839 363.128L359.927 339.23L359.933 326.868C361.256 324.976 364.642 323.541 366.617 322.355L381.022 313.511L512.526 232.491Z"/>
	<path fill="#D8463F" transform="scale(0.488281 0.488281)" d="M512.526 232.491L665.99 325.293L665.969 335.179L514.476 245.832L359.927 339.23L359.933 326.868C361.256 324.976 364.642 323.541 366.617 322.355L381.022 313.511L512.526 232.491Z"/>
	<path fill="#FAF9F6" transform="scale(0.488281 0.488281)" d="M506.489 263.662C515.81 262.804 524.457 264.004 532.517 268.938C542.329 274.945 548.832 285.02 551.38 296.132C553.603 305.824 550.298 316.818 545.024 325C538.663 334.868 529.088 340.001 517.848 342.431C507.983 343.487 498.799 341.696 490.5 336.076C481.88 330.238 475.073 319.839 473.189 309.595C471.366 299.683 474.293 288.606 480.038 280.406C486.648 270.971 495.175 265.587 506.489 263.662Z"/>
	<path fill="#D8463F" transform="scale(0.488281 0.488281)" d="M504.901 274.75C509.117 273.503 515.866 274.426 520.371 274.44L520.158 295.514L541.008 295.502L541.013 312.518L520.384 312.492L520.308 332.476L504.523 332.573L504.547 312.272L483.943 312.194L483.907 295.412L504.073 295.488L504.042 281.627C504.051 279.259 503.74 276.884 504.901 274.75Z"/>
	<path fill="#6CC047" transform="scale(0.488281 0.488281)" d="M115.887 580.727C125.564 578.594 136.281 580.289 144.955 584.944L145.255 585.356C156.485 591.06 164.793 600.666 168.654 612.676C171.781 622.403 170.966 633.096 170.979 643.171L170.991 674.72C170.991 676.733 170.31 682.424 170.988 684.1C171.192 684.604 178.83 688.322 180.059 688.978C187.989 694.793 194.027 701.639 198.863 710.217C200.24 712.658 201.577 716.441 203.366 718.468C205.123 726.173 204.064 732.763 204.104 740.479C204.154 749.942 204.716 759.49 203.936 768.928L202.956 775.476C198.578 789.106 190.769 799.489 180.838 809.629C163.671 823.252 146.372 829.53 124.459 830.072L124.514 894.753L109.223 894.693L109.379 829.206L109.491 814.087L109.44 793.761C100.348 794.361 91.4002 795.868 82.2452 795.885C72.1939 795.904 62.5393 793.855 53.1725 790.362C49.8401 789.119 45.9625 788.168 42.995 786.219C40.6532 783.035 38.7719 778.819 37.2039 775.18C29.1366 756.462 30.3163 737.314 37.6847 718.652L39.3344 715.301C47.1149 699.973 61.7638 688.395 78.0005 683.068L77.9655 643.327C77.9668 636.574 77.4631 629.366 78.3059 622.668L78.4316 621.75C79.4971 613.641 82.0157 606.167 86.5857 599.359C93.1477 589.584 104.373 582.824 115.887 580.727Z"/>
	<path fill="#9B551C" transform="scale(0.488281 0.488281)" d="M109.44 793.761L109.456 788.676L75.8473 762.421C75.462 758.076 75.7148 753.553 75.762 749.19C75.7942 746.222 75.2936 742.705 77.1866 740.25C79.0878 738.895 80.4055 738.502 82.7371 738.417C85.3966 738.321 87.5112 738.523 89.4817 740.513C92.3189 743.378 91.2007 750.184 91.1235 753.993C93.2222 756.58 96.4648 758.646 99.064 760.728L109.039 769.472L108.617 718.089C108.599 715.036 107.579 704.537 109.557 702.326C111.227 700.458 113.543 700.414 115.856 700.395C118.358 700.374 121.264 699.981 123.125 701.972C125.045 704.027 124.386 708.795 124.393 711.451L124.379 733.699L144.914 735.006C146.13 733.015 147.252 731.325 149.639 730.72C151.98 730.126 155.234 730.331 157.25 731.762C158.547 732.682 159.283 733.638 159.446 735.25L159.723 761.019L154.829 765.728C150.724 768.114 125.11 786.793 124.566 789.123L124.504 814.072L124.459 830.072L124.514 894.753L109.223 894.693L109.379 829.206L109.491 814.087L109.44 793.761Z"/>
	<path fill="#339E23" transform="scale(0.488281 0.488281)" d="M124.379 733.699L144.914 735.006C144.367 737.46 144.628 740.133 144.674 742.633L144.921 755.186C143.508 757.031 140.711 758.62 138.793 760.006C134.122 763.381 129.44 766.836 124.489 769.791L124.379 733.699Z"/>
	<path fill="#3AA62D" transform="scale(0.488281 0.488281)" d="M145.255 585.356C156.485 591.06 164.793 600.666 168.654 612.676C171.781 622.403 170.966 633.096 170.979 643.171L170.991 674.72C170.991 676.733 170.31 682.424 170.988 684.1C171.192 684.604 178.83 688.322 180.059 688.978C187.989 694.793 194.027 701.639 198.863 710.217C200.24 712.658 201.577 716.441 203.366 718.468C205.123 726.173 204.064 732.763 204.104 740.479C204.154 749.942 204.716 759.49 203.936 768.928L202.956 775.476C198.578 789.106 190.769 799.489 180.838 809.629C163.671 823.252 146.372 829.53 124.459 830.072L124.504 814.072L124.566 789.123C125.11 786.793 150.724 768.114 154.829 765.728C157.526 766.146 160.439 765.974 163.171 766.008L163.26 739.966C163.315 733.881 163.836 727.364 162.849 721.362C157.953 715.697 151.323 713.351 144.847 709.85L144.968 627.248L144.991 600.573C144.997 595.579 144.658 590.312 145.255 585.356Z"/>
	<path fill="#339E23" transform="scale(0.488281 0.488281)" d="M124.504 814.072C129.199 814.147 134.572 813.198 139.19 812.35C155.11 809.427 172.69 803.691 185.69 793.858C188.567 791.681 191.457 789.555 193.718 786.716C195.974 783.883 197.751 780.682 199.307 777.424C200.317 775.309 201.553 770.755 203.326 769.368L203.936 768.928L202.956 775.476C198.578 789.106 190.769 799.489 180.838 809.629C163.671 823.252 146.372 829.53 124.459 830.072L124.504 814.072Z"/>
	<path fill="#6CC047" transform="scale(0.488281 0.488281)" d="M894.95 582.904C905.023 579.106 915.422 578.074 925.841 581.279L928.129 582.209C938.779 585.563 948.696 593.323 953.962 603.265C956.622 608.286 958.6 613.761 959.528 619.375C960.585 625.769 960.063 632.791 960.051 639.268L959.964 671.219L959.931 680.13C959.928 680.967 959.657 682.948 959.871 683.691C959.966 684.021 960.475 684.017 960.776 684.18C963.287 685.543 965.79 686.92 968.165 688.512C976.009 693.767 982.241 701.151 987.406 708.984C997.944 727.681 1001.89 748.007 996.045 768.951C994.229 775.461 991.426 781.36 988.178 787.257L988.195 787.284C989.636 789.686 989.047 794.298 989.03 797.106C986.49 797.044 983.974 797.083 981.492 796.484L981.513 795.969C979.407 794.59 972.879 795.603 970.215 795.704L919.357 798.809L919.074 829.877L919.121 895.023L903.825 895.07L867.645 895.071C864.113 895.06 857.467 895.999 854.558 894.36L854.504 887.929L854.858 888.021C857.63 888.141 860.882 886.459 862.811 884.608C865.798 881.742 867.52 877.728 867.522 873.594C867.523 868.479 864.548 865.347 861.173 861.938C862.19 860.732 863 859.037 863.359 857.5C864.07 854.464 863.278 850.775 861.477 848.25C859.114 844.938 855.446 843.486 851.563 842.948L851 842.875C849.98 840.436 848.58 837.682 846.608 835.884C843.695 833.229 841.48 832.461 837.581 832.588L837.647 797.925C837.102 794.649 837.552 790.578 837.552 787.214L837.551 737.063C837.579 727.832 837.11 718.141 838.084 708.972C839.198 707.697 839.982 706.591 840.646 705.024L840.822 704.595C841.444 704.597 841.226 704.717 841.622 704.286C843.403 702.352 844.856 700.119 846.642 698.169C851.426 692.944 856.927 688.875 863.365 685.906L866.372 684.816C866.653 684.693 867.708 684.153 867.872 683.925C868.454 683.115 867.963 674.532 867.961 673.077L867.909 639.038C867.902 632.571 867.606 625.94 868.086 619.495C868.358 615.843 869.146 611.971 870.416 608.538C874.775 596.754 883.735 588.147 894.95 582.904Z"/>
	<path fill="#9B551C" transform="scale(0.488281 0.488281)" d="M903.991 743.545L903.975 706.502L919.516 706.453L919.499 736.069L919.808 767.175L934.915 755.567C936.634 754.219 940.161 752.049 940.466 749.75C941.002 745.716 938.799 737.026 941.828 734.133C944.112 731.951 947.775 731.816 950.751 732.036C952.832 732.191 954.1 732.474 955.633 733.907C957.059 737.298 956.171 743.154 956.134 746.863C956.091 751.198 956.362 755.577 956.105 759.902L919.4 786.31L919.357 798.809L919.074 829.877L919.121 895.023L903.825 895.07L903.976 830.159L903.959 799.854L903.8 781.895C897.951 777.831 891.168 775.344 885.162 771.471C879.643 767.912 873.93 762.539 872.706 755.819C872.291 753.545 872.484 750.151 873.946 748.237C875.399 746.337 877.915 745.297 880.25 745.112C883.266 744.872 885.113 745.902 887.417 747.683C893.238 747.471 898.704 745.945 903.991 743.545Z"/>
	<path fill="#339E23" transform="scale(0.488281 0.488281)" d="M903.991 743.545L903.848 761.461C897.134 757.299 892.361 753.934 887.417 747.683C893.238 747.471 898.704 745.945 903.991 743.545Z"/>
	<path fill="#A4E1D4" transform="scale(0.488281 0.488281)" d="M837.552 787.214C849.118 794.724 864.851 798.804 878.393 800.674C886.612 801.809 895.789 801.02 903.959 799.854L903.976 830.159L903.825 895.07L867.645 895.071C864.113 895.06 857.467 895.999 854.558 894.36L854.504 887.929L854.858 888.021C857.63 888.141 860.882 886.459 862.811 884.608C865.798 881.742 867.52 877.728 867.522 873.594C867.523 868.479 864.548 865.347 861.173 861.938C862.19 860.732 863 859.037 863.359 857.5C864.07 854.464 863.278 850.775 861.477 848.25C859.114 844.938 855.446 843.486 851.563 842.948L851 842.875C849.98 840.436 848.58 837.682 846.608 835.884C843.695 833.229 841.48 832.461 837.581 832.588L837.647 797.925C837.102 794.649 837.552 790.578 837.552 787.214Z"/>
	<path fill="#339E23" transform="scale(0.488281 0.488281)" d="M837.552 787.214C849.118 794.724 864.851 798.804 878.393 800.674C886.612 801.809 895.789 801.02 903.959 799.854L903.976 830.159C897.921 829.6 891.914 828.96 886 827.473C866.819 822.647 850.91 812.356 837.647 797.925C837.102 794.649 837.552 790.578 837.552 787.214Z"/>
	<path fill="#3AA62D" transform="scale(0.488281 0.488281)" d="M928.129 582.209C938.779 585.563 948.696 593.323 953.962 603.265C956.622 608.286 958.6 613.761 959.528 619.375C960.585 625.769 960.063 632.791 960.051 639.268L959.964 671.219L959.931 680.13C959.928 680.967 959.657 682.948 959.871 683.691C959.966 684.021 960.475 684.017 960.776 684.18C963.287 685.543 965.79 686.92 968.165 688.512C976.009 693.767 982.241 701.151 987.406 708.984C997.944 727.681 1001.89 748.007 996.045 768.951C994.229 775.461 991.426 781.36 988.178 787.257L988.195 787.284C989.636 789.686 989.047 794.298 989.03 797.106C986.49 797.044 983.974 797.083 981.492 796.484L981.513 795.969C979.407 794.59 972.879 795.603 970.215 795.704L919.357 798.809L919.4 786.31L956.105 759.902C956.362 755.577 956.091 751.198 956.134 746.863C956.171 743.154 957.059 737.298 955.633 733.907C954.1 732.474 952.832 732.191 950.751 732.036C947.775 731.816 944.112 731.951 941.828 734.133C938.799 737.026 941.002 745.716 940.466 749.75C940.161 752.049 936.634 754.219 934.915 755.567L919.808 767.175L919.499 736.069C926.544 733.229 931.478 728.185 935.132 721.595C937.112 718.025 938.81 713.819 939.354 709.75C940.751 699.288 939.836 687.559 939.86 676.97L939.915 642.211C939.916 630.833 940.006 619.746 937.903 608.513C936.627 601.693 934.384 595.548 931.467 589.285C930.519 587.251 928.786 584.998 928.268 582.857L928.129 582.209Z"/>
	<path fill="#89D7CB" transform="scale(0.488281 0.488281)" d="M988.195 787.284C989.636 789.686 989.047 794.298 989.03 797.106C986.49 797.044 983.974 797.083 981.492 796.484L981.513 795.969C984.135 793.788 986.263 790.065 988.195 787.284Z"/>
	<path fill="#D8463F" transform="scale(0.488281 0.488281)" d="M834.112 471.965L863.822 471.9L863.955 511.578L863.825 580.99L862.946 665.645L862.953 680.035C862.96 681.835 862.674 684.245 863.365 685.906C856.927 688.875 851.426 692.944 846.642 698.169C844.856 700.119 843.403 702.352 841.622 704.286C841.226 704.717 841.444 704.597 840.822 704.595L840.646 705.024C839.982 706.591 839.198 707.697 838.084 708.972C837.11 718.141 837.579 727.832 837.551 737.063L837.552 787.214C837.552 790.578 837.102 794.649 837.647 797.925L837.581 832.588C841.48 832.461 843.695 833.229 846.608 835.884C848.58 837.682 849.98 840.436 851 842.875L851.563 842.948C855.446 843.486 859.114 844.938 861.477 848.25C863.278 850.775 864.07 854.464 863.359 857.5C863 859.037 862.19 860.732 861.173 861.938C864.548 865.347 867.523 868.479 867.522 873.594C867.52 877.728 865.798 881.742 862.811 884.608C860.882 886.459 857.63 888.141 854.858 888.021L854.504 887.929L854.558 894.36C852.055 893.505 848.378 893.601 845.691 893.373C842.524 893.742 838.876 893.888 835.776 893.121C832.737 893.648 829.54 893.272 826.471 893.125C823.596 893.942 819.551 893.531 816.656 892.926L801.332 892.841C797.96 893.81 792.444 894.102 789.188 892.729L785.154 889.639L779.74 892.949C776.833 893.941 772.681 893.741 769.734 892.988L752.758 892.879L750.592 893.305C748.682 893.517 743.345 894.022 741.647 893.498C740.355 893.099 737.676 890.361 736.476 889.413L730.53 893.418C726.967 893.522 723.727 893.697 720.295 892.596C715.22 893.436 709.168 892.945 704.023 892.747L703.598 892.783C699.241 893.345 694.994 894.227 691.309 891.486C690.881 891.167 689.545 889.952 689.139 889.84C688.993 889.8 688.887 890.007 688.76 890.09C684.516 892.852 682.362 893.616 677.307 893.527C676.377 893.511 674.837 893.674 673.959 893.443C670.885 892.634 669.385 888.733 666.967 887.61C666.583 887.432 665.362 887.506 664.883 887.475L663.643 887.546C660.421 887.435 656.896 886.053 654.796 883.573C652.367 880.702 651.141 876.087 651.565 872.356C652.06 868.012 655.962 864.975 659.209 862.553L658.547 859.5C657.856 854.097 658.91 850.836 662.253 846.577C663.512 845.006 664.898 843.773 666.424 842.465L666.492 690.467L656.164 690.457L656.218 689.995L511.899 689.912L511.915 654.92L666.77 655.007C666.023 651.084 666.559 646.136 666.566 642.097L666.622 613.514L666.452 511.476L666.358 472.004L699.827 472.024L788.433 471.994L834.112 471.965Z"/>
	<path fill="#48BFB8" transform="scale(0.488281 0.488281)" d="M863.955 511.578L863.825 580.99L862.946 665.645L862.953 680.035C862.96 681.835 862.674 684.245 863.365 685.906C856.927 688.875 851.426 692.944 846.642 698.169C844.856 700.119 843.403 702.352 841.622 704.286C841.226 704.717 841.444 704.597 840.822 704.595C839.874 702.133 838.405 698.84 838.103 696.235C837.483 690.877 838.004 684.785 837.997 679.356L837.884 642.908L837.736 511.638L863.955 511.578Z"/>
	<path fill="#375069" transform="scale(0.488281 0.488281)" d="M834.112 471.965L863.822 471.9L863.955 511.578L837.736 511.638L666.452 511.476L666.358 472.004L699.827 472.024L788.433 471.994L834.112 471.965Z"/>
	<path fill="#3AA62D" transform="scale(0.488281 0.488281)" d="M666.424 842.465C669.899 840.726 672.892 840.127 676.701 839.742L677.38 837.986C678.719 834.834 680.508 832.371 683.817 831.144C687.213 829.886 690.9 830.07 694.145 831.724C697.693 833.532 699.535 836.057 700.675 839.781C701.027 840.934 702.619 840.798 703.768 841.046C707.898 841.935 710.909 843.545 713.543 846.897L713.946 847.422C715.307 845.651 716.645 843.74 718.55 842.517L719.135 842.166C721.565 840.686 724.391 840.924 727.146 840.91C727.652 839.144 728.115 837.035 729.107 835.478C730.773 832.862 734.426 830.567 737.486 830.08C741.115 829.503 744.885 830.191 747.75 832.602C749.749 834.283 751.219 836.056 751.421 838.692C751.506 839.811 751.442 839.843 752.072 840.87L755.153 841.137C759.888 841.642 763.428 843.769 766.418 847.485L766.848 848.03C770.162 844.302 771.488 841.503 776.829 841.022C778.046 840.913 778.967 840.873 780.072 840.25C781.5 836.823 783.123 834.327 786.729 832.851C789.953 831.532 792.605 831.984 795.75 833.449C799.29 835.098 800.202 837.722 801.408 841.156L806.075 841.582C810.771 842.241 813.486 845.031 816.19 848.624C816.835 847.32 817.476 845.952 818.389 844.811C820.895 841.677 823.799 841.832 827.512 841.486C828.012 840.08 828.536 838.685 829.314 837.405C831.113 834.442 833.778 833.473 836.981 832.724L837.581 832.588C841.48 832.461 843.695 833.229 846.608 835.884C848.58 837.682 849.98 840.436 851 842.875L851.563 842.948C855.446 843.486 859.114 844.938 861.477 848.25C863.278 850.775 864.07 854.464 863.359 857.5C863 859.037 862.19 860.732 861.173 861.938C864.548 865.347 867.523 868.479 867.522 873.594C867.52 877.728 865.798 881.742 862.811 884.608C860.882 886.459 857.63 888.141 854.858 888.021L854.504 887.929L854.558 894.36C852.055 893.505 848.378 893.601 845.691 893.373C842.524 893.742 838.876 893.888 835.776 893.121C832.737 893.648 829.54 893.272 826.471 893.125C823.596 893.942 819.551 893.531 816.656 892.926L801.332 892.841C797.96 893.81 792.444 894.102 789.188 892.729L785.154 889.639L779.74 892.949C776.833 893.941 772.681 893.741 769.734 892.988L752.758 892.879L750.592 893.305C748.682 893.517 743.345 894.022 741.647 893.498C740.355 893.099 737.676 890.361 736.476 889.413L730.53 893.418C726.967 893.522 723.727 893.697 720.295 892.596C715.22 893.436 709.168 892.945 704.023 892.747L703.598 892.783C699.241 893.345 694.994 894.227 691.309 891.486C690.881 891.167 689.545 889.952 689.139 889.84C688.993 889.8 688.887 890.007 688.76 890.09C684.516 892.852 682.362 893.616 677.307 893.527C676.377 893.511 674.837 893.674 673.959 893.443C670.885 892.634 669.385 888.733 666.967 887.61C666.583 887.432 665.362 887.506 664.883 887.475L663.643 887.546C660.421 887.435 656.896 886.053 654.796 883.573C652.367 880.702 651.141 876.087 651.565 872.356C652.06 868.012 655.962 864.975 659.209 862.553L658.547 859.5C657.856 854.097 658.91 850.836 662.253 846.577C663.512 845.006 664.898 843.773 666.424 842.465Z"/>
	<path fill="#242C34" transform="scale(0.488281 0.488281)" d="M826.471 893.125C827.963 891.939 829.525 890.798 830.836 889.409L835.776 893.121C832.737 893.648 829.54 893.272 826.471 893.125Z"/>
	<path fill="#242C34" transform="scale(0.488281 0.488281)" d="M845.691 893.373L854.504 887.929L854.558 894.36C852.055 893.505 848.378 893.601 845.691 893.373Z"/>
	<path fill="#281E2F" transform="scale(0.488281 0.488281)" d="M801.332 892.841L806.168 887.858C807.035 886.839 807.763 886.52 809 886.044C812.117 886.445 814.338 890.736 816.656 892.926L801.332 892.841Z"/>
	<path fill="#281E2F" transform="scale(0.488281 0.488281)" d="M704.023 892.747L711.5 885.457C713.237 885.475 714.021 885.592 715.546 886.42C717.023 888.543 718.448 890.775 720.295 892.596C715.22 893.436 709.168 892.945 704.023 892.747Z"/>
	<path fill="#281E2F" transform="scale(0.488281 0.488281)" d="M752.758 892.879L757.973 887.62C758.914 886.668 759.581 886.108 761 885.993L763.38 886.139C765.326 888.559 767.282 891.056 769.734 892.988L752.758 892.879Z"/>
	<path fill="#6CC047" transform="scale(0.488281 0.488281)" d="M666.424 842.465C669.899 840.726 672.892 840.127 676.701 839.742L677.38 837.986C678.719 834.834 680.508 832.371 683.817 831.144C687.213 829.886 690.9 830.07 694.145 831.724C697.693 833.532 699.535 836.057 700.675 839.781C701.027 840.934 702.619 840.798 703.768 841.046C707.898 841.935 710.909 843.545 713.543 846.897L713.946 847.422C715.307 845.651 716.645 843.74 718.55 842.517L719.135 842.166C721.565 840.686 724.391 840.924 727.146 840.91C727.652 839.144 728.115 837.035 729.107 835.478C730.773 832.862 734.426 830.567 737.486 830.08C741.115 829.503 744.885 830.191 747.75 832.602C749.749 834.283 751.219 836.056 751.421 838.692C751.506 839.811 751.442 839.843 752.072 840.87L755.153 841.137C759.888 841.642 763.428 843.769 766.418 847.485L766.848 848.03C770.162 844.302 771.488 841.503 776.829 841.022C778.046 840.913 778.967 840.873 780.072 840.25C781.5 836.823 783.123 834.327 786.729 832.851C789.953 831.532 792.605 831.984 795.75 833.449C799.29 835.098 800.202 837.722 801.408 841.156L806.075 841.582C810.771 842.241 813.486 845.031 816.19 848.624C816.835 847.32 817.476 845.952 818.389 844.811C820.895 841.677 823.799 841.832 827.512 841.486C828.012 840.08 828.536 838.685 829.314 837.405C831.113 834.442 833.778 833.473 836.981 832.724L837.581 832.588C841.48 832.461 843.695 833.229 846.608 835.884C848.58 837.682 849.98 840.436 851 842.875L851.563 842.948C855.446 843.486 859.114 844.938 861.477 848.25C863.278 850.775 864.07 854.464 863.359 857.5C863 859.037 862.19 860.732 861.173 861.938C859.736 862.257 857.798 864.523 856.214 865.226C851.573 867.287 828.172 867.217 823.556 865.288L823 865.037C819.522 863.536 818.219 860.941 816.371 857.828C814.816 861.019 813.318 863.713 809.841 865.042C805.537 866.687 799.709 866.049 795.121 866.049C788.721 866.049 779.056 867.167 773.25 864.455C769.511 862.708 768.235 859.317 766.945 855.645C765.452 859.25 763.937 862.642 760.389 864.62C755.889 867.129 747.821 866.107 742.655 866.093C736.032 866.074 727.728 866.94 721.412 864.911C717.979 863.808 716.308 861.67 714.718 858.545L714.479 858.064L713.473 859.5C712.249 861.535 710.398 864.064 708.092 864.976L707.589 865.156C706.969 865.394 706.376 865.64 705.718 865.766C701.847 866.503 697.209 866.076 693.239 866.075L679.953 866.029C676.189 866 670.935 866.268 667.75 863.916C664.688 861.654 662.546 857.558 662.446 853.75C662.391 851.648 662.763 849.47 662.407 847.39L662.253 846.577C663.512 845.006 664.898 843.773 666.424 842.465Z"/>
	<path fill="#8FD97A" transform="scale(0.488281 0.488281)" d="M838.165 835.537C839.341 835.642 840.849 835.722 841.885 836.308C843.477 837.209 845.294 839.308 845.783 841.095C846.301 842.985 845.935 845.326 844.932 847C843.47 849.439 841.594 850.213 838.93 850.841C837.672 850.655 836.445 850.482 835.25 850.019C833.212 849.229 831.515 847.287 830.829 845.236C830.197 843.348 830.608 841.801 831.544 840.094C833.062 837.327 835.237 836.3 838.165 835.537Z"/>
	<path fill="#8FD97A" transform="scale(0.488281 0.488281)" d="M790.661 835.169C792.221 835.281 793.319 835.472 794.75 836.115C796.184 837.715 797.579 839.303 797.933 841.5C798.25 843.474 797.637 845.78 796.359 847.315C794.414 849.652 792.34 849.92 789.454 850.239C787.944 849.771 786.228 849.109 784.972 848.129C783.503 846.984 782.172 844.698 781.992 842.832C781.839 841.247 782.685 839.717 783.645 838.527C785.862 835.779 787.243 835.449 790.661 835.169Z"/>
	<path fill="#8FD97A" transform="scale(0.488281 0.488281)" d="M739.074 833.128C740.33 833.19 741.763 833.202 742.911 833.764C744.703 834.643 746.321 836.61 746.984 838.48C747.698 840.493 747.648 842.54 746.618 844.44C745.066 847.306 743 848.298 740.024 849.301C738.274 849.137 736.571 848.883 735 848.039C733.247 847.097 731.947 845.185 731.387 843.309C730.775 841.262 731.326 838.786 732.455 837C733.971 834.601 736.418 833.715 739.074 833.128Z"/>
	<path fill="#8FD97A" transform="scale(0.488281 0.488281)" d="M685.18 833.75C686.377 833.442 687.37 833.258 688.614 833.322C691.134 833.452 693.001 834.017 694.701 835.979C696.064 837.551 697.099 840.133 696.829 842.25C696.415 845.499 694.223 847.397 691.721 849.191C690.25 849.544 688.819 849.901 687.302 849.627C685.068 849.224 683.036 847.779 681.825 845.866C680.544 843.843 679.909 841.622 680.556 839.25C681.257 836.685 682.937 834.998 685.18 833.75Z"/>
	<path fill="#B02A28" transform="scale(0.488281 0.488281)" d="M697.118 551.528L820.5 551.395L820.588 658.547L697.225 658.409L697.118 551.528Z"/>
	<path fill="#77E4F7" transform="scale(0.488281 0.488281)" d="M705.706 607.845L755.153 607.998L755.292 649.179L705.892 649.257L705.706 607.845Z"/>
	<path fill="#77E4F7" transform="scale(0.488281 0.488281)" d="M705.505 560.025L755.156 560.061L755.221 601.323L705.588 601.345L705.505 560.025Z"/>
	<path fill="#77E4F7" transform="scale(0.488281 0.488281)" d="M761.363 560.056L811.702 560.03L811.601 601.395L761.436 601.273L761.363 560.056Z"/>
	<path fill="#77E4F7" transform="scale(0.488281 0.488281)" d="M761.339 607.857L811.893 607.87L811.853 649.29L761.27 649.117L761.339 607.857Z"/>
	<path fill="#B02A28" transform="scale(0.488281 0.488281)" d="M800.296 695.75L820.676 695.628L820.768 806.561L716.875 806.405L696.996 806.335L697.016 695.981L800.296 695.75Z"/>
	<path fill="#77E4F7" transform="scale(0.488281 0.488281)" d="M706.077 755.061L755.774 755.078L755.74 796.504L706.194 796.498L706.077 755.061Z"/>
	<path fill="#77E4F7" transform="scale(0.488281 0.488281)" d="M761.446 754.997L811.616 754.939L811.542 796.87L761.489 796.704L761.446 754.997Z"/>
	<path fill="#77E4F7" transform="scale(0.488281 0.488281)" d="M706.071 704.865L755.838 704.88L755.653 748.532L706.148 748.632L706.071 704.865Z"/>
	<path fill="#77E4F7" transform="scale(0.488281 0.488281)" d="M761.347 704.739L811.566 704.714L811.544 748.065L761.451 748.11L761.347 704.739Z"/>
	<path fill="#FAF9F6" transform="scale(0.488281 0.488281)" d="M643.155 370.319L666.083 370.431L666.358 472.004L666.452 511.476L666.622 613.514L666.566 642.097C666.559 646.136 666.023 651.084 666.77 655.007L511.915 654.92L486.08 654.915C478.092 653.911 469.103 654.717 461.039 654.718L407.38 654.669L359.497 654.58L359.488 522.366L359.479 511.483L359.438 473.496L311.947 473.205L312.022 415.029L359.491 415.078L359.727 370.526L643.155 370.319Z"/>
	<path fill="#48BFB8" transform="scale(0.488281 0.488281)" d="M550.349 531.86L550.381 480.12L577.855 480.14C579.899 480.148 585.105 479.544 586.713 480.75L586.907 485.139L586.891 486.76C586.615 486.29 586.424 485.865 586.003 485.512C585.045 486.219 584.064 486.884 583.249 487.758L582.281 487.985L581.597 485.95C578.888 485.053 575.456 485.468 572.616 485.468L555.301 485.507L555.519 526.385L555.487 527.482C553.849 528.968 552.216 530.673 550.349 531.86Z"/>
	<path fill="#48BFB8" transform="scale(0.488281 0.488281)" d="M637.147 390.542C638.739 390.569 641.106 390.277 642.433 391.082L638.006 391.193C637.267 392.485 637.49 394.117 637.492 395.565L637.067 395.568L611.75 395.526L611.08 396.25L611.169 397.739L611.05 453.6C609.324 453.882 607.722 454.004 605.973 453.974L605.97 390.492L637.147 390.542Z"/>
	<path fill="#48BFB8" transform="scale(0.488281 0.488281)" d="M439.079 622.174L438.998 567.04L476.04 566.984L476.065 595.332L476.014 595.741L470.967 598.22L470.718 596.05L470.591 572.342L444.01 572.45L444.037 619.099L443.985 619.937C442.363 620.8 440.828 621.6 439.079 622.174Z"/>
	<path fill="#77E4F7" transform="scale(0.488281 0.488281)" d="M555.519 526.385L555.301 485.507L572.616 485.468C575.456 485.468 578.888 485.053 581.597 485.95C581.563 488.04 582.064 493.668 580.876 495.079L555.519 526.385Z"/>
	<path fill="#77E4F7" transform="scale(0.488281 0.488281)" d="M444.037 619.099L444.01 572.45L470.591 572.342L470.718 596.05C470.575 597.111 470.798 597.74 469.915 598.416L444.037 619.099Z"/>
	<path fill="#48BFB8" transform="scale(0.488281 0.488281)" d="M384.588 479.891L420.572 479.916L420.538 544.458L384.525 544.495L384.588 479.891Z"/>
	<path fill="#3FC7E1" transform="scale(0.488281 0.488281)" d="M389.973 485.526L415.884 485.561L415.913 539.49L389.987 539.71L389.973 485.526Z"/>
	<path fill="#48BFB8" transform="scale(0.488281 0.488281)" d="M494.584 480.035L531.357 480.002L531.231 544.435L494.536 544.639L494.584 480.035Z"/>
	<path fill="#77E4F7" transform="scale(0.488281 0.488281)" d="M500.012 485.331L526.252 485.306L526.119 539.976L500.031 540.135L500.012 485.331Z"/>
	<path fill="#48BFB8" transform="scale(0.488281 0.488281)" d="M438.769 480.062L475.875 480.008L475.973 544.566L438.701 544.539L438.769 480.062Z"/>
	<path fill="#77E4F7" transform="scale(0.488281 0.488281)" d="M444.096 485.517L470.538 485.5L470.452 539.932L443.989 540.015L444.096 485.517Z"/>
	<path fill="#48BFB8" transform="scale(0.488281 0.488281)" d="M384.455 390.442L420.598 390.435L420.75 458.489L384.443 458.527L384.455 390.442Z"/>
	<path fill="#3FC7E1" transform="scale(0.488281 0.488281)" d="M403.101 395.256L415.444 395.141L415.544 453.795L402.75 453.869L389.98 453.873L389.94 395.325L403.101 395.256Z"/>
	<path fill="#48BFB8" transform="scale(0.488281 0.488281)" d="M550.012 390.49L587.007 390.483L586.989 458.507L550.042 458.489L550.012 390.49Z"/>
	<path fill="#77E4F7" transform="scale(0.488281 0.488281)" d="M555.343 395.259L581.937 395.128L581.957 453.265L555.027 453.298L555.343 395.259Z"/>
	<path fill="#48BFB8" transform="scale(0.488281 0.488281)" d="M494.289 390.482L531.476 390.475L531.507 458.342L494.438 458.431L494.289 390.482Z"/>
	<path fill="#77E4F7" transform="scale(0.488281 0.488281)" d="M499.951 395.454L526.048 395.438L526.059 453.034L499.971 453.106L499.951 395.454Z"/>
	<path fill="#48BFB8" transform="scale(0.488281 0.488281)" d="M438.519 390.489L475.885 390.475L475.911 458.509L438.516 458.546L438.519 390.489Z"/>
	<path fill="#77E4F7" transform="scale(0.488281 0.488281)" d="M443.908 395.489L470.5 395.477L470.538 453.447L443.914 453.418L443.908 395.489Z"/>
	<path fill="#A4E1D4" transform="scale(0.488281 0.488281)" d="M312.022 415.029L359.491 415.078L359.438 473.496L311.947 473.205L312.022 415.029Z"/>
	<path fill="#EAD3BA" transform="scale(0.488281 0.488281)" d="M643.155 370.319L666.083 370.431L666.358 472.004L666.452 511.476L666.622 613.514L666.566 642.097C666.559 646.136 666.023 651.084 666.77 655.007L511.915 654.92L486.08 654.915C478.092 653.911 469.103 654.717 461.039 654.718L407.38 654.669L407.614 654.109C408.4 652.637 410.008 651.334 411.192 650.152L418.673 642.685L434.706 626.554C435.707 625.537 436.566 623.807 437.543 623.003C438.1 622.544 438.294 622.529 438.897 622.33L439.079 622.174C440.828 621.6 442.363 620.8 443.985 619.937L444.037 619.099L469.915 598.416C470.798 597.74 470.575 597.111 470.718 596.05L470.967 598.22L476.014 595.741L476.065 595.332L494.632 581.171L494.535 566.969L516.212 567.052L520.631 567.011L550.317 534.375L550.349 531.86C552.216 530.673 553.849 528.968 555.487 527.482L555.519 526.385L580.876 495.079C582.064 493.668 581.563 488.04 581.597 485.95L582.281 487.985L583.249 487.758C584.064 486.884 585.045 486.219 586.003 485.512C586.424 485.865 586.615 486.29 586.891 486.76L586.907 485.139C591.784 479.844 595.767 473.365 599.643 467.302C601.676 464.123 603.413 460.809 606.018 458.055L605.973 453.974C607.722 454.004 609.324 453.882 611.05 453.6L611.169 397.739L611.08 396.25L611.75 395.526L637.067 395.568L637.492 395.565C637.49 394.117 637.267 392.485 638.006 391.193L642.433 391.082C641.106 390.277 638.739 390.569 637.147 390.542C638.743 383.669 641.8 377.294 643.155 370.319Z"/>
	<path fill="#169EB3" transform="scale(0.488281 0.488281)" d="M470.967 598.22L476.014 595.741L476.382 633.953L438.984 633.974L438.897 622.33L439.079 622.174C440.828 621.6 442.363 620.8 443.985 619.937L444.138 628.743C446.085 629.796 467.061 629.02 471.003 629.016L470.967 598.22Z"/>
	<path fill="#169EB3" transform="scale(0.488281 0.488281)" d="M637.492 395.565C637.49 394.117 637.267 392.485 638.006 391.193L642.433 391.082L642.781 458.482L615.525 458.479C613.061 458.475 608.017 459.1 606.018 458.055L605.973 453.974C607.722 454.004 609.324 453.882 611.05 453.6L637.978 453.466L637.492 395.565Z"/>
	<path fill="#169EB3" transform="scale(0.488281 0.488281)" d="M582.281 487.985L583.249 487.758C584.064 486.884 585.045 486.219 586.003 485.512C586.424 485.865 586.615 486.29 586.891 486.76L586.933 544.521L550.057 544.487L550.317 534.375L550.349 531.86C552.216 530.673 553.849 528.968 555.487 527.482L555.432 540.057L582.03 540.006L581.923 504.961C581.909 499.888 581.265 493.796 582.122 488.832L582.281 487.985Z"/>
	<path fill="#3FC7E1" transform="scale(0.488281 0.488281)" d="M470.718 596.05L470.967 598.22L471.003 629.016C467.061 629.02 446.085 629.796 444.138 628.743L443.985 619.937L444.037 619.099L469.915 598.416C470.798 597.74 470.575 597.111 470.718 596.05Z"/>
	<path fill="#3FC7E1" transform="scale(0.488281 0.488281)" d="M581.597 485.95L582.281 487.985L582.122 488.832C581.265 493.796 581.909 499.888 581.923 504.961L582.03 540.006L555.432 540.057L555.487 527.482L555.519 526.385L580.876 495.079C582.064 493.668 581.563 488.04 581.597 485.95Z"/>
	<path fill="#77E4F7" transform="scale(0.488281 0.488281)" d="M611.169 397.739L611.08 396.25L611.75 395.526L637.067 395.568L637.492 395.565L637.978 453.466L611.05 453.6L611.169 397.739Z"/>
	<path fill="#3FC7E1" transform="scale(0.488281 0.488281)" d="M637.492 395.565L637.978 453.466L611.05 453.6L611.169 397.739C612.075 403.161 611.499 409.673 611.509 415.217L611.464 452.854C613.604 448.672 616.46 444.709 618.764 440.58C623.939 431.307 628.122 421.993 631.999 412.128C634.055 406.899 636.44 401.185 637.067 395.568L637.492 395.565Z"/>
	<path fill="#169EB3" transform="scale(0.488281 0.488281)" d="M606.114 480.024L642.447 479.975L642.447 544.511L606.143 544.51L606.114 480.024Z"/>
	<path fill="#3FC7E1" transform="scale(0.488281 0.488281)" d="M611.526 485.201L637.131 485.191L637.089 539.871L611.493 539.991L611.526 485.201Z"/>
	<path fill="#169EB3" transform="scale(0.488281 0.488281)" d="M550.484 567.08L586.966 567.023L587 633.963L550.364 634.011L550.484 567.08Z"/>
	<path fill="#3FC7E1" transform="scale(0.488281 0.488281)" d="M555.489 572.474L582.006 572.483L581.95 629.023L555.593 629.11L555.489 572.474Z"/>
	<path fill="#169EB3" transform="scale(0.488281 0.488281)" d="M520.631 567.011L531.006 566.937L531.108 633.98L495.25 633.956C494.77 633.173 494.684 633.041 494.642 632.082L494.632 581.171L494.535 566.969L516.212 567.052L520.631 567.011Z"/>
	<path fill="#89D7CB" transform="scale(0.488281 0.488281)" d="M494.632 581.171L494.535 566.969L516.212 567.052C513.861 567.45 511.98 567.232 510.652 569.5L509.98 571C512.808 572.2 519.095 571.345 522.324 571.351C523.645 571.353 524.765 571.182 525.868 572.068C520.752 571.441 514.696 572.893 509.75 571.925C507.408 571.467 505.68 571.473 503.268 571.582L500.559 571.649C499.778 572.992 500.007 574.692 500.004 576.202L500.067 577.525C498.341 578.295 496.744 579.119 495.138 580.118L495.099 617.545C495.093 621.326 495.984 628.802 494.642 632.082L494.632 581.171Z"/>
	<path fill="#3FC7E1" transform="scale(0.488281 0.488281)" d="M503.268 571.582C505.68 571.473 507.408 571.467 509.75 571.925C514.696 572.893 520.752 571.441 525.868 572.068L526.011 629.056L500.353 629.164L500.067 577.525L500.004 576.202C500.007 574.692 499.778 572.992 500.559 571.649L503.268 571.582Z"/>
	<path fill="#77E4F7" transform="scale(0.488281 0.488281)" d="M500.004 576.202C500.007 574.692 499.778 572.992 500.559 571.649L503.268 571.582L507.736 572.25C505.605 573.948 503.355 575.778 500.766 576.693L500.144 576.18L500.004 576.202Z"/>
	<path fill="#EA665A" transform="scale(0.488281 0.488281)" d="M180.067 511.495L359.479 511.483L359.488 522.366L359.497 654.58L407.38 654.669L461.039 654.718C469.103 654.717 478.092 653.911 486.08 654.915L511.915 654.92L511.899 689.912L656.218 689.995L656.164 690.457L666.492 690.467L666.424 842.465C664.898 843.773 663.512 845.006 662.253 846.577C658.91 850.836 657.856 854.097 658.547 859.5L659.209 862.553C655.962 864.975 652.06 868.012 651.565 872.356C651.141 876.087 652.367 880.702 654.796 883.573C656.896 886.053 660.421 887.435 663.643 887.546L664.883 887.475L664.365 893.915C663.235 894.592 662.527 894.459 661.261 894.385L598.529 894.431L558.897 894.385L517.035 894.449L510.011 894.487L505.02 894.448L437.064 894.42L424.581 894.365L391.915 894.48L362.327 894.522C362.032 892.724 361.468 890.982 360.959 889.235C356.797 889.375 354.823 893.419 351.337 894.069C348.219 894.65 344.227 894.225 341.036 894.215L319.624 894.018C315.108 895.241 307.886 894.724 303.198 894.209C298.787 894.759 294.086 894.455 289.636 894.446C284.314 894.435 278.911 894.632 273.619 894.006C268.385 894.702 262.5 894.605 257.255 894.075L224.888 894.277L209.389 894.485L180.221 894.571L177.75 893.153C174.262 891.551 172.9 891.269 169.38 892.523L166.626 894.332C161.563 895.707 154.378 894.888 149.027 894.877C140.911 894.862 132.607 895.202 124.514 894.753L124.459 830.072C146.372 829.53 163.671 823.252 180.838 809.629C190.769 799.489 198.578 789.106 202.956 775.476L203.936 768.928C204.716 759.49 204.154 749.942 204.104 740.479C204.064 732.763 205.123 726.173 203.366 718.468C201.577 716.441 200.24 712.658 198.863 710.217C194.027 701.639 187.989 694.793 180.059 688.978L180.135 514.74L180.067 511.495Z"/>
	<path fill="#8FD97A" transform="scale(0.488281 0.488281)" d="M284.301 840.54C285.677 836.635 287.378 834.053 291.257 832.269C294.732 830.671 298.96 830.837 302.423 832.375C306.097 834.007 308.452 837.34 309.605 841.122L309.692 841.655L310.048 842.526C309.296 844.586 308.514 846.505 307.447 848.422C305.095 850.16 303.337 851.518 300.362 851.965C296.665 852.522 292.134 852.151 289.099 849.773C285.993 847.34 284.708 844.39 284.301 840.54Z"/>
	<path fill="#D8463F" transform="scale(0.488281 0.488281)" d="M323.97 655.822L323.965 661.344L208.75 661.489C207.629 660.368 208.259 657.174 207.452 656.807C206.445 656.348 205.252 656.371 204.162 656.297L203.648 655.919L323.97 655.822Z"/>
	<path fill="#D8463F" transform="scale(0.488281 0.488281)" d="M180.067 511.495L359.479 511.483L359.488 522.366L180.349 522.915L180.198 515.344L180.135 514.74L180.067 511.495Z"/>
	<path fill="#B02A28" transform="scale(0.488281 0.488281)" d="M203.648 655.919C203.016 652.862 203.334 649.211 203.331 646.071L203.339 627.404L203.59 551.111L323.992 551.068L323.97 655.822L203.648 655.919Z"/>
	<path fill="#77E4F7" transform="scale(0.488281 0.488281)" d="M307.959 606.748L316.679 606.707L316.597 649.094L275.484 649.077L266.544 649.062L266.585 606.899L307.959 606.748Z"/>
	<path fill="#77E4F7" transform="scale(0.488281 0.488281)" d="M266.813 558.109L316.633 558.058L316.385 600.467L315.25 600.918L266.785 600.955L266.813 558.109Z"/>
	<path fill="#77E4F7" transform="scale(0.488281 0.488281)" d="M256.373 606.747L261.034 606.808L261.021 648.984L216.25 648.973L210.341 648.893L210.34 606.824L256.373 606.747Z"/>
	<path fill="#77E4F7" transform="scale(0.488281 0.488281)" d="M210.075 558.116L261.006 558.042L261 600.991L210.195 601.009L210.075 558.116Z"/>
	<path fill="#B02A28" transform="scale(0.488281 0.488281)" d="M203.366 718.468L203.373 695.221L323.98 695.04L323.995 805.016L202.972 804.718L202.956 775.476L203.936 768.928C204.716 759.49 204.154 749.942 204.104 740.479C204.064 732.763 205.123 726.173 203.366 718.468Z"/>
	<path fill="#77E4F7" transform="scale(0.488281 0.488281)" d="M267.038 753.023L316.754 752.973L316.691 797.107L267.006 797.108L267.038 753.023Z"/>
	<path fill="#77E4F7" transform="scale(0.488281 0.488281)" d="M267.074 702.12L316.53 702.032L316.48 747.318L267.016 747.188L267.074 702.12Z"/>
	<path fill="#77E4F7" transform="scale(0.488281 0.488281)" d="M210.899 752.97L261.402 753.005L261.333 797.272L210.87 797.257L210.899 752.97Z"/>
	<path fill="#77E4F7" transform="scale(0.488281 0.488281)" d="M210.936 702.019L261.028 702.026L261.085 747.233L210.839 747.169L210.936 702.019Z"/>
	<path fill="#3AA62D" transform="scale(0.488281 0.488281)" d="M180.838 809.629L180.939 840.681L182.363 841.263L187.171 841.823L187.777 841.471C188.971 840.724 189.744 839.237 190.565 838.106C192.834 834.978 195.929 833.23 199.5 831.957L200.149 831.705C202.538 830.845 205.823 831.953 208.043 833.023C210.414 834.166 212.238 835.855 213.917 837.842C215.07 839.206 216.073 841.338 217.773 841.946C223.87 840.336 231.124 840.649 237.422 840.433C239.385 836.565 242.009 833.442 246.234 831.937C249.886 830.638 253.955 830.99 257.374 832.802C260.791 834.613 262.648 837.913 264.565 841.105L284.301 840.54C284.708 844.39 285.993 847.34 289.099 849.773C292.134 852.151 296.665 852.522 300.362 851.965C303.337 851.518 305.095 850.16 307.447 848.422C308.514 846.505 309.296 844.586 310.048 842.526L309.692 841.655C316.109 840.741 322.387 840.9 328.847 840.982C330.045 837.646 331.477 835.04 334.601 833.146C337.731 831.248 341.577 830.848 345.062 831.966C348.217 832.977 350.665 834.963 352.148 837.916C352.561 838.739 352.743 839.203 353.463 839.84L353.954 840.187L359.556 839.923C364.657 840.554 368.998 842.344 372.339 846.434C374.988 849.678 376.8 854.642 376.28 858.863C376.029 860.903 375.371 862.966 373.962 864.487C376.082 869.602 377.346 873.747 375.115 879.153C373.575 882.886 370.885 886.489 367.076 888.126C365.307 888.887 362.851 889.431 360.959 889.235C356.797 889.375 354.823 893.419 351.337 894.069C348.219 894.65 344.227 894.225 341.036 894.215L319.624 894.018C315.108 895.241 307.886 894.724 303.198 894.209C298.787 894.759 294.086 894.455 289.636 894.446C284.314 894.435 278.911 894.632 273.619 894.006C268.385 894.702 262.5 894.605 257.255 894.075L224.888 894.277L209.389 894.485L180.221 894.571L177.75 893.153C174.262 891.551 172.9 891.269 169.38 892.523L166.626 894.332C161.563 895.707 154.378 894.888 149.027 894.877C140.911 894.862 132.607 895.202 124.514 894.753L124.459 830.072C146.372 829.53 163.671 823.252 180.838 809.629Z"/>
	<path fill="#281E2F" transform="scale(0.488281 0.488281)" d="M209.389 894.485L216.568 888.478L224.888 894.277L209.389 894.485Z"/>
	<path fill="#281E2F" transform="scale(0.488281 0.488281)" d="M257.255 894.075L264.949 888.322C267.743 890.341 270.556 892.412 273.619 894.006C268.385 894.702 262.5 894.605 257.255 894.075Z"/>
	<path fill="#281E2F" transform="scale(0.488281 0.488281)" d="M303.198 894.209L311.206 888.158C313.67 890.24 315.955 891.933 318.763 893.52L319.624 894.018C315.108 895.241 307.886 894.724 303.198 894.209Z"/>
	<path fill="#6CC047" transform="scale(0.488281 0.488281)" d="M328.847 840.982C330.045 837.646 331.477 835.04 334.601 833.146C337.731 831.248 341.577 830.848 345.062 831.966C348.217 832.977 350.665 834.963 352.148 837.916C352.561 838.739 352.743 839.203 353.463 839.84L353.954 840.187L359.556 839.923C364.657 840.554 368.998 842.344 372.339 846.434C374.988 849.678 376.8 854.642 376.28 858.863C376.029 860.903 375.371 862.966 373.962 864.487C372.119 865.221 370.664 866.517 368.63 866.856C363.343 867.738 356.925 866.84 351.489 866.818C339.714 866.77 327.681 867.375 315.937 866.624C313.323 866.457 311.667 865.976 309.908 864.005C307.935 863.733 307.419 864.346 305.845 865.51C305.355 862.232 305.023 858.196 305.773 854.947C306.305 852.639 307.262 850.861 307.447 848.422C308.514 846.505 309.296 844.586 310.048 842.526L309.692 841.655C316.109 840.741 322.387 840.9 328.847 840.982Z"/>
	<path fill="#339E23" transform="scale(0.488281 0.488281)" d="M310.048 842.526L312.5 841.889L313.367 842.513C313.544 845.207 311.784 848.626 311.209 851.395C310.351 855.529 309.909 859.784 309.908 864.005C307.935 863.733 307.419 864.346 305.845 865.51C305.355 862.232 305.023 858.196 305.773 854.947C306.305 852.639 307.262 850.861 307.447 848.422C308.514 846.505 309.296 844.586 310.048 842.526Z"/>
	<path fill="#8FD97A" transform="scale(0.488281 0.488281)" d="M328.847 840.982C330.045 837.646 331.477 835.04 334.601 833.146C337.731 831.248 341.577 830.848 345.062 831.966C348.217 832.977 350.665 834.963 352.148 837.916C352.561 838.739 352.743 839.203 353.463 839.84L353.954 840.187L353.001 841L353.011 841.739C353.013 844.658 352.505 846.903 350.25 848.943C347.196 851.706 343.267 852.358 339.295 851.982C336.504 851.718 333.424 849.944 331.66 847.779C330.074 845.833 329.121 843.462 328.847 840.982Z"/>
	<path fill="#6CC047" transform="scale(0.488281 0.488281)" d="M237.422 840.433C239.385 836.565 242.009 833.442 246.234 831.937C249.886 830.638 253.955 830.99 257.374 832.802C260.791 834.613 262.648 837.913 264.565 841.105L284.301 840.54C284.708 844.39 285.993 847.34 289.099 849.773C292.134 852.151 296.665 852.522 300.362 851.965C303.337 851.518 305.095 850.16 307.447 848.422C307.262 850.861 306.305 852.639 305.773 854.947C305.023 858.196 305.355 862.232 305.845 865.51C302.738 866.852 299.524 866.576 296.212 866.588L283.214 866.589C278.346 866.578 273.064 867.018 268.25 866.442C266.22 866.2 265.126 865.055 263.892 863.538C262.415 865.027 260.998 865.557 259.054 866.287L234.491 866.74C229.924 866.769 224.813 867.175 220.322 866.417C219.152 866.219 218.41 865.667 217.516 864.953C215.765 866.244 213.463 866.076 211.362 866.214C205.669 866.784 199.803 866.563 194.08 866.558C191.257 866.556 187.924 866.876 185.211 866.084C183.829 865.68 182.718 864.872 181.603 863.99C181.214 862.711 180.973 861.412 180.798 860.086C179.867 853.002 182.978 847.197 187.171 841.823L187.777 841.471C188.971 840.724 189.744 839.237 190.565 838.106C192.834 834.978 195.929 833.23 199.5 831.957L200.149 831.705C202.538 830.845 205.823 831.953 208.043 833.023C210.414 834.166 212.238 835.855 213.917 837.842C215.07 839.206 216.073 841.338 217.773 841.946C223.87 840.336 231.124 840.649 237.422 840.433Z"/>
	<path fill="#339E23" transform="scale(0.488281 0.488281)" d="M217.92 842.495L219.674 843.75C219.786 846.009 217.618 849.671 216.923 852L216.682 852.777C215.74 855.991 215.461 860.087 216.795 863.196L217.516 864.953C215.765 866.244 213.463 866.076 211.362 866.214C211.412 857.404 211.557 849.36 217.92 842.495Z"/>
	<path fill="#339E23" transform="scale(0.488281 0.488281)" d="M265.036 842.96L266.5 842.397L267.495 843.25C267.357 845.642 266.147 847.827 265.307 850.046C263.913 853.728 262.533 859.686 263.892 863.538C262.415 865.027 260.998 865.557 259.054 866.287C258.471 861.166 258.757 856.133 259.057 851.009C261.421 848.481 263.278 845.956 265.036 842.96Z"/>
	<path fill="#A4E1D4" transform="scale(0.488281 0.488281)" d="M180.838 809.629L180.939 840.681L182.363 841.263L187.171 841.823C182.978 847.197 179.867 853.002 180.798 860.086C180.973 861.412 181.214 862.711 181.603 863.99C180.125 865.107 178.6 865.669 176.877 866.323L160.163 866.498C157.244 866.473 153.982 866.154 151.121 866.601L150.904 870.617C152.416 877.66 155.618 884.46 161.808 888.597C164.217 890.208 166.868 891.136 169.38 892.523L166.626 894.332C161.563 895.707 154.378 894.888 149.027 894.877C140.911 894.862 132.607 895.202 124.514 894.753L124.459 830.072C146.372 829.53 163.671 823.252 180.838 809.629Z"/>
	<path fill="#6CC047" transform="scale(0.488281 0.488281)" d="M150.904 870.617C150.595 869.024 150.434 867.379 150.557 865.758C151.156 857.853 153.565 850.706 159.882 845.559C165.935 840.628 173.489 840.044 180.939 840.681L182.363 841.263L187.171 841.823C182.978 847.197 179.867 853.002 180.798 860.086C180.973 861.412 181.214 862.711 181.603 863.99C180.125 865.107 178.6 865.669 176.877 866.323L160.163 866.498C157.244 866.473 153.982 866.154 151.121 866.601L150.904 870.617Z"/>
	<path fill="#339E23" transform="scale(0.488281 0.488281)" d="M182.363 841.263L187.171 841.823C182.978 847.197 179.867 853.002 180.798 860.086C180.973 861.412 181.214 862.711 181.603 863.99C180.125 865.107 178.6 865.669 176.877 866.323C176.349 862.33 175.73 857.692 176.553 853.719C177.002 851.55 177.878 849.374 179.019 847.481C180.129 845.638 181.938 844.17 181.664 842L182.363 841.263Z"/>
	<defs>
		<linearGradient id="gradient_1" gradientUnits="userSpaceOnUse" x1="575.00195" y1="931.55426" x2="452.03766" y2="650.8949">
			<stop offset="0" stop-color="#F7DDC1"/>
			<stop offset="1" stop-color="#F8FBF3"/>
		</linearGradient>
	</defs>
	<path fill="url(#gradient_1)" transform="scale(0.488281 0.488281)" d="M656.164 690.457L666.492 690.467L666.424 842.465C664.898 843.773 663.512 845.006 662.253 846.577C658.91 850.836 657.856 854.097 658.547 859.5L659.209 862.553C655.962 864.975 652.06 868.012 651.565 872.356C651.141 876.087 652.367 880.702 654.796 883.573C656.896 886.053 660.421 887.435 663.643 887.546L664.883 887.475L664.365 893.915C663.235 894.592 662.527 894.459 661.261 894.385L598.529 894.431L558.897 894.385L517.035 894.449L510.011 894.487L505.02 894.448L437.064 894.42L424.581 894.365L391.915 894.48L362.327 894.522C362.032 892.724 361.468 890.982 360.959 889.235C362.851 889.431 365.307 888.887 367.076 888.126C370.885 886.489 373.575 882.886 375.115 879.153C377.346 873.747 376.082 869.602 373.962 864.487C375.371 862.966 376.029 860.903 376.28 858.863C376.8 854.642 374.988 849.678 372.339 846.434C368.998 842.344 364.657 840.554 359.556 839.923L359.462 690.509L656.164 690.457Z"/>
	<path fill="#EAD3BA" transform="scale(0.488281 0.488281)" d="M391.915 894.48L391.922 721.128L424.876 721.362L424.908 732.542L424.581 894.365L391.915 894.48Z"/>
	<path fill="#EAD3BA" transform="scale(0.488281 0.488281)" d="M598.541 720.947L636.975 720.899L637.451 894.055L652.115 894.084C655.115 894.094 658.305 893.876 661.261 894.385L598.529 894.431L598.541 720.947Z"/>
	<path fill="#3FC7E1" transform="scale(0.488281 0.488281)" d="M509.958 721.286L598.541 720.947L598.529 894.431L558.897 894.385L517.035 894.449L510.011 894.487L505.02 894.448L437.064 894.42L424.581 894.365L424.908 732.542L424.876 721.362L509.958 721.286Z"/>
	<path transform="scale(0.488281 0.488281)" d="M526.089 795.75C527.1 795.546 528.112 795.424 529.118 795.75C530.351 796.15 531.381 797.15 531.956 798.289C532.573 799.508 532.649 800.721 532.198 802.016C531.592 803.756 530.306 804.443 528.75 805.181L526.75 805.461C525.335 805.033 524.207 804.648 523.279 803.432C522.147 801.948 522.403 800.456 522.643 798.75C523.683 797.173 524.399 796.579 526.089 795.75Z"/>
	<path fill="#169EB3" transform="scale(0.488281 0.488281)" d="M509.958 721.286L598.541 720.947L598.529 894.431L558.897 894.385L586.98 894.053L587.012 744.647L587.03 732.497L517.005 732.514L517.068 744.846L517.035 894.449L510.011 894.487L510.204 744.862L510.152 732.413L424.908 732.542L424.876 721.362L509.958 721.286Z"/>
	<path fill="#77E4F7" transform="scale(0.488281 0.488281)" d="M424.908 732.542L510.152 732.413L510.204 744.862L510.011 894.487L505.02 894.448L437.064 894.42L424.581 894.365L424.908 732.542Z"/>
	<path transform="scale(0.488281 0.488281)" d="M494.531 795.75C495.386 795.524 496.367 795.351 497.25 795.338C498.733 795.315 500.195 796.198 501.18 797.25C502.381 798.532 502.486 799.818 502.472 801.5C501.698 803.477 500.916 804.285 499.175 805.477C498.082 805.72 496.946 805.988 495.821 805.869C494.319 805.711 492.963 805.153 492.113 803.834C491.283 802.546 491.211 800.71 491.549 799.25C491.925 797.628 493.24 796.648 494.531 795.75Z"/>
	<path fill="#3FC7E1" transform="scale(0.488281 0.488281)" d="M424.908 732.542L510.152 732.413L510.204 744.862L510.011 894.487L505.02 894.448C504.573 890.163 505.046 885.355 505.045 881.016L505.027 849.347L504.948 745.5L436.999 745.536L437.064 894.42L424.581 894.365L424.908 732.542Z"/>
	<path fill="#A4E1D4" transform="scale(0.488281 0.488281)" d="M42.995 786.219C45.9625 788.168 49.8401 789.119 53.1725 790.362C62.5393 793.855 72.1939 795.904 82.2452 795.885C91.4002 795.868 100.348 794.361 109.44 793.761L109.491 814.087L109.379 829.206L109.223 894.693L124.514 894.753C132.607 895.202 140.911 894.862 149.027 894.877C154.378 894.888 161.563 895.707 166.626 894.332L169.38 892.523C172.9 891.269 174.262 891.551 177.75 893.153L180.221 894.571L209.389 894.485L224.888 894.277L257.255 894.075C262.5 894.605 268.385 894.702 273.619 894.006C278.911 894.632 284.314 894.435 289.636 894.446C294.086 894.455 298.787 894.759 303.198 894.209C307.886 894.724 315.108 895.241 319.624 894.018L341.036 894.215C344.227 894.225 348.219 894.65 351.337 894.069C354.823 893.419 356.797 889.375 360.959 889.235C361.468 890.982 362.032 892.724 362.327 894.522L391.915 894.48L424.581 894.365L437.064 894.42L505.02 894.448L510.011 894.487L517.035 894.449L558.897 894.385L598.529 894.431L661.261 894.385C662.527 894.459 663.235 894.592 664.365 893.915L664.883 887.475C665.362 887.506 666.583 887.432 666.967 887.61C669.385 888.733 670.885 892.634 673.959 893.443C674.837 893.674 676.377 893.511 677.307 893.527C682.362 893.616 684.516 892.852 688.76 890.09C688.887 890.007 688.993 889.8 689.139 889.84C689.545 889.952 690.881 891.167 691.309 891.486C694.994 894.227 699.241 893.345 703.598 892.783L704.023 892.747C709.168 892.945 715.22 893.436 720.295 892.596C723.727 893.697 726.967 893.522 730.53 893.418L736.476 889.413C737.676 890.361 740.355 893.099 741.647 893.498C743.345 894.022 748.682 893.517 750.592 893.305L752.758 892.879L769.734 892.988C772.681 893.741 776.833 893.941 779.74 892.949L785.154 889.639L789.188 892.729C792.444 894.102 797.96 893.81 801.332 892.841L816.656 892.926C819.551 893.531 823.596 893.942 826.471 893.125C829.54 893.272 832.737 893.648 835.776 893.121C838.876 893.888 842.524 893.742 845.691 893.373C848.378 893.601 852.055 893.505 854.558 894.36C857.467 895.999 864.113 895.06 867.645 895.071L903.825 895.07L919.121 895.023L919.074 829.877L919.357 798.809L970.215 795.704C972.879 795.603 979.407 794.59 981.513 795.969L981.492 796.484C983.974 797.083 986.49 797.044 989.03 797.106L1024 797.37L1024 1024L-0 1024L0 792.035L46.5874 791.973L42.995 786.219Z"/>
	<path fill="#339E23" transform="scale(0.488281 0.488281)" d="M63.6604 809.156C66.9647 808.314 73.326 811.144 77.0133 811.836C87.235 813.754 99.0998 815.198 109.491 814.087L109.379 829.206C104.267 827.953 99.099 827.108 94.0625 825.547C83.2325 822.19 72.4319 816.322 63.6604 809.156Z"/>
	<path fill="#3AA62D" transform="scale(0.488281 0.488281)" d="M42.995 786.219C45.9625 788.168 49.8401 789.119 53.1725 790.362C62.5393 793.855 72.1939 795.904 82.2452 795.885C91.4002 795.868 100.348 794.361 109.44 793.761L109.491 814.087C99.0998 815.198 87.235 813.754 77.0133 811.836C73.326 811.144 66.9647 808.314 63.6604 809.156C57.0243 804.673 51.6888 798.083 46.5874 791.973L42.995 786.219Z"/>
	<path fill="#339E23" transform="scale(0.488281 0.488281)" d="M919.357 798.809L970.215 795.704C972.879 795.603 979.407 794.59 981.513 795.969L981.492 796.484C969.859 809.614 954.541 819.925 937.712 825.123L919.074 829.877L919.357 798.809Z"/>
	<path fill="#48BFB8" transform="scale(0.488281 0.488281)" d="M664.883 887.475C665.362 887.506 666.583 887.432 666.967 887.61C669.385 888.733 670.885 892.634 673.959 893.443C674.837 893.674 676.377 893.511 677.307 893.527C682.362 893.616 684.516 892.852 688.76 890.09C688.887 890.007 688.993 889.8 689.139 889.84C689.545 889.952 690.881 891.167 691.309 891.486C694.994 894.227 699.241 893.345 703.598 892.783L704.023 892.747C709.168 892.945 715.22 893.436 720.295 892.596C723.727 893.697 726.967 893.522 730.53 893.418L736.476 889.413C737.676 890.361 740.355 893.099 741.647 893.498C743.345 894.022 748.682 893.517 750.592 893.305L752.758 892.879L769.734 892.988C772.681 893.741 776.833 893.941 779.74 892.949L785.154 889.639L789.188 892.729C792.444 894.102 797.96 893.81 801.332 892.841L816.656 892.926C819.551 893.531 823.596 893.942 826.471 893.125C829.54 893.272 832.737 893.648 835.776 893.121C838.876 893.888 842.524 893.742 845.691 893.373C848.378 893.601 852.055 893.505 854.558 894.36C857.467 895.999 864.113 895.06 867.645 895.071L903.825 895.07L919.121 895.023L962.921 895.005L962.87 917.593L963.476 917.785C965.913 918.497 969.666 918 972.226 918.002L994.648 917.971L994.569 949.895L29.5015 950.025L29.5123 917.887L48.3147 917.912C52.2752 917.912 56.4293 918.194 60.3527 917.602L60.4141 894.949L109.223 894.693L124.514 894.753C132.607 895.202 140.911 894.862 149.027 894.877C154.378 894.888 161.563 895.707 166.626 894.332L169.38 892.523C172.9 891.269 174.262 891.551 177.75 893.153L180.221 894.571L209.389 894.485L224.888 894.277L257.255 894.075C262.5 894.605 268.385 894.702 273.619 894.006C278.911 894.632 284.314 894.435 289.636 894.446C294.086 894.455 298.787 894.759 303.198 894.209C307.886 894.724 315.108 895.241 319.624 894.018L341.036 894.215C344.227 894.225 348.219 894.65 351.337 894.069C354.823 893.419 356.797 889.375 360.959 889.235C361.468 890.982 362.032 892.724 362.327 894.522L391.915 894.48L424.581 894.365L437.064 894.42L505.02 894.448L510.011 894.487L517.035 894.449L558.897 894.385L598.529 894.431L661.261 894.385C662.527 894.459 663.235 894.592 664.365 893.915L664.883 887.475Z"/>
	<path fill="#375069" transform="scale(0.488281 0.488281)" d="M319.624 894.018L341.036 894.215C344.227 894.225 348.219 894.65 351.337 894.069C354.823 893.419 356.797 889.375 360.959 889.235C361.468 890.982 362.032 892.724 362.327 894.522L391.915 894.48L424.581 894.365L437.064 894.42L505.02 894.448L510.011 894.487L510.109 917.432L60.3527 917.602L60.4141 894.949L109.223 894.693L124.514 894.753C132.607 895.202 140.911 894.862 149.027 894.877C154.378 894.888 161.563 895.707 166.626 894.332L169.38 892.523C172.9 891.269 174.262 891.551 177.75 893.153L180.221 894.571L209.389 894.485L224.888 894.277L257.255 894.075C262.5 894.605 268.385 894.702 273.619 894.006C278.911 894.632 284.314 894.435 289.636 894.446C294.086 894.455 298.787 894.759 303.198 894.209C307.886 894.724 315.108 895.241 319.624 894.018Z"/>
	<path fill="#281E2F" transform="scale(0.488281 0.488281)" d="M169.38 892.523C172.9 891.269 174.262 891.551 177.75 893.153L180.221 894.571C176.843 895.223 169.816 895.518 166.626 894.332L169.38 892.523Z"/>
	<path fill="#375069" transform="scale(0.488281 0.488281)" d="M664.883 887.475C665.362 887.506 666.583 887.432 666.967 887.61C669.385 888.733 670.885 892.634 673.959 893.443C674.837 893.674 676.377 893.511 677.307 893.527C682.362 893.616 684.516 892.852 688.76 890.09C688.887 890.007 688.993 889.8 689.139 889.84C689.545 889.952 690.881 891.167 691.309 891.486C694.994 894.227 699.241 893.345 703.598 892.783L704.023 892.747C709.168 892.945 715.22 893.436 720.295 892.596C723.727 893.697 726.967 893.522 730.53 893.418L736.476 889.413C737.676 890.361 740.355 893.099 741.647 893.498C743.345 894.022 748.682 893.517 750.592 893.305L752.758 892.879L769.734 892.988C772.681 893.741 776.833 893.941 779.74 892.949L785.154 889.639L789.188 892.729C792.444 894.102 797.96 893.81 801.332 892.841L816.656 892.926C819.551 893.531 823.596 893.942 826.471 893.125C829.54 893.272 832.737 893.648 835.776 893.121C838.876 893.888 842.524 893.742 845.691 893.373C848.378 893.601 852.055 893.505 854.558 894.36C857.467 895.999 864.113 895.06 867.645 895.071L903.825 895.07L919.121 895.023L962.921 895.005L962.87 917.593L510.109 917.432L510.011 894.487L517.035 894.449L558.897 894.385L598.529 894.431L661.261 894.385C662.527 894.459 663.235 894.592 664.365 893.915L664.883 887.475Z"/>
</svg>
