<?xml version="1.0" encoding="utf-8" ?>
<svg xmlns="http://www.w3.org/2000/svg" xmlns:xlink="http://www.w3.org/1999/xlink" width="500" height="500">
	<path fill="#6FC7BA" transform="scale(0.488281 0.488281)" d="M0 1L0.5625 0.0625L344.002 -0.00441278L1011.48 -0.000133563C1013.64 -0.000109703 1022.96 -0.518439 1023.88 0.367188L1024 1.5L1024 1024L-0 1024L0 1Z"/>
	<path fill="#EFAE53" transform="scale(0.488281 0.488281)" d="M662.212 205.593C648.244 202.648 635.822 193.919 627.119 182.687C616.825 169.401 612.491 152.634 614.481 136L614.714 134.078C616.756 119.352 625.057 105.217 636.911 96.2642C648.565 87.4624 664.625 82.6587 679.216 84.8113C694.518 87.0687 707.759 93.5268 718.015 105.374C726.819 115.545 733.415 131.567 732.196 145.219L731.914 147.473C727.267 151.188 722.636 154.962 718.92 159.653C717.553 161.378 716.389 163.238 715.246 165.116C714.889 165.702 714.239 167.185 713.702 167.559C711.177 172.814 708.668 177.922 708.129 183.818C706.097 183.187 704.169 182.113 702.25 181.194C702.586 180.6 702.934 180.074 703.386 179.561C707.434 174.972 710.04 170.615 712.31 164.941L713.936 159.75L714.561 156L714.692 155.2C716.564 143.056 713.213 130.179 705.88 120.389C699.274 111.571 688.989 105.291 678.047 103.682C667.184 102.085 656.236 105.646 647.716 112.35C639.443 118.86 633.258 129.064 632.112 139.601C630.751 152.124 633.827 164.129 641.884 173.915C647.655 180.924 657.75 187.695 667.043 188.482L669.453 188.578C670.426 188.618 670.05 188.559 670.996 189.091C666.606 194.1 663.457 198.942 662.212 205.593Z"/>
	<path fill="#FED97B" transform="scale(0.488281 0.488281)" d="M670.996 189.091C670.05 188.559 670.426 188.618 669.453 188.578L667.043 188.482C657.75 187.695 647.655 180.924 641.884 173.915C633.827 164.129 630.751 152.124 632.112 139.601C633.258 129.064 639.443 118.86 647.716 112.35C656.236 105.646 667.184 102.085 678.047 103.682C688.989 105.291 699.274 111.571 705.88 120.389C713.213 130.179 716.564 143.056 714.692 155.2L714.561 156L713.936 159.75L712.31 164.941C710.04 170.615 707.434 174.972 703.386 179.561C702.934 180.074 702.586 180.6 702.25 181.194C693.562 179.067 684.804 179.557 677.052 184.352C674.899 185.683 672.808 187.329 670.996 189.091Z"/>
	<path fill="#68AE2D" transform="scale(0.488281 0.488281)" d="M118.409 591.476C119.298 604.725 121.587 617.385 127.454 629.442C129.369 633.376 131.665 637.205 134.256 640.729C134.687 641.315 137.554 644.553 137.586 644.965C140.896 651.15 146.053 656.612 151.098 661.426C147.871 664.063 144.213 666.109 140.645 668.245C128.723 675.384 116.289 680.316 102.703 683.235C100.166 683.78 82.8748 685.676 82.1342 686.191L81.4951 686.034C78.0605 682.239 74.455 678.87 71.2313 674.831C53.9361 653.161 42.8436 625.827 39.232 598.384C44.4288 604.522 49.8602 609.899 58.1778 611.25C65.0428 612.365 71.3319 611.42 78.0339 609.905C92.4541 606.645 106.418 600.053 118.409 591.476Z"/>
	<path fill="#68AE2D" transform="scale(0.488281 0.488281)" d="M972.222 910.148C976.318 911.948 979.652 915.218 981.443 919.338C982.979 922.873 982.377 926.16 980.902 929.625C978.898 934.334 975.526 937.897 970.691 939.75C968.516 940.584 966.325 941.033 964.005 941.181C957.974 941.566 951.806 941.256 945.76 941.211L916.983 941.12L818.825 941.03L345.643 941.007L152.067 940.901L58.8418 941.014C55.9731 940.938 53.5969 940.3 51 939.048C46.8525 937.048 43.3805 932.809 42.0045 928.445C40.8742 924.86 41.4544 920.08 43.3349 916.846C44.8772 914.193 47.9373 911.33 50.9085 910.422L50.5674 911.016C49.9687 911.887 49.4775 912.008 48.6389 912.54C47.7128 913.128 47.1243 914.121 46.4975 914.998C45.4169 916.509 45.314 916.56 45.5155 918.5C48.1677 921.595 52.4696 922.606 56.4327 922.868C63.854 923.358 71.508 923.026 78.9554 923.031L120.25 923.053L260.685 923.022L683.508 923.334L884.782 923.3L938.332 923.338C949.952 923.367 962.59 924.473 974 922.307L975.568 922.117C977.33 920.506 979.986 922.308 980.75 920C979.472 917.752 978.426 915.46 976.278 913.925C974.838 912.897 973.282 911.569 972.222 910.148Z"/>
	<path fill="#A8DFD5" transform="scale(0.488281 0.488281)" d="M151.098 661.426C158.159 667.062 164.315 670.897 172.995 673.671L170.948 723.693L169.4 803.712C156.771 801.663 144.424 802.702 133.696 810.391C124.053 817.304 117.675 827.859 115.916 839.558C115.44 842.725 115.606 845.804 115.829 848.985C106.83 847.237 98.0008 847.951 90.2431 853.247C83.5426 857.82 77.9219 865.831 76.6733 873.938C75.3284 882.669 77.5479 892.049 82.952 899.065C86.4882 903.657 90.8602 906.34 95.9957 908.849L71.6918 908.666C64.4603 908.547 57.855 908.098 50.8145 910.132L49.8087 910.021C46.8391 907.233 44.3845 904.343 42.0433 901.012C30.7271 884.911 26.9287 864.199 30.3423 844.951C34.3514 822.347 47.338 805.637 65.805 792.698C64.5289 786.833 61.7842 781.4 60.7366 775.322C56.6699 751.728 58.0937 727.172 69.0513 705.5C72.5516 698.577 77.0413 692.357 81.4951 686.034L82.1342 686.191C82.8748 685.676 100.166 683.78 102.703 683.235C116.289 680.316 128.723 675.384 140.645 668.245C144.213 666.109 147.871 664.063 151.098 661.426Z"/>
	<path fill="#4B992F" transform="scale(0.488281 0.488281)" d="M151.098 661.426C158.159 667.062 164.315 670.897 172.995 673.671L170.948 723.693C136.772 720.408 108.028 708.996 82.1342 686.191C82.8748 685.676 100.166 683.78 102.703 683.235C116.289 680.316 128.723 675.384 140.645 668.245C144.213 666.109 147.871 664.063 151.098 661.426Z"/>
	<path fill="#FEFEFD" transform="scale(0.488281 0.488281)" d="M731.914 147.473C747.837 137.813 764.686 133.136 783.262 137.605C798.688 141.316 813.126 151.182 821.436 164.829C825.311 171.193 827.735 177.818 829.535 185.018C839.232 180.784 847.856 179.273 858.019 183.177C866.904 186.591 874.482 193.97 878.24 202.721C879.812 206.381 880.321 210.026 880.953 213.926C884.337 213.908 887.27 213.963 890.564 214.82C899.461 217.135 906.685 221.776 911.498 229.784C915.41 236.291 916.101 242.959 916.16 250.398L626.502 250.26C626.546 246.061 626.772 242.128 627.451 237.989C628.754 230.039 633.691 223.666 640.18 219.141C644.255 216.3 648.988 213.989 653.931 213.195C655.058 213.014 661.092 212.59 661.245 212.111C661.31 211.905 661.377 211.697 661.419 211.484L662.212 205.593C663.457 198.942 666.606 194.1 670.996 189.091C672.808 187.329 674.899 185.683 677.052 184.352C684.804 179.557 693.562 179.067 702.25 181.194C704.169 182.113 706.097 183.187 708.129 183.818C708.668 177.922 711.177 172.814 713.702 167.559C714.239 167.185 714.889 165.702 715.246 165.116C716.389 163.238 717.553 161.378 718.92 159.653C722.636 154.962 727.267 151.188 731.914 147.473Z"/>
	<path fill="#FEFEFD" transform="scale(0.488281 0.488281)" d="M254.345 86.718C266.154 85.99 279.4 89.5777 289.75 95.0843C307.257 104.399 317.659 119.493 323.392 138.025C325.946 136.675 329.068 135.654 331.888 135.003C341.052 132.889 352.324 135.319 360.217 140.241C370.909 146.909 375.838 157.106 378.622 168.941L382.824 169.677C391.12 171.93 397.995 176.369 402.332 183.934C407.264 192.538 407.056 200.425 404.579 209.677L258.75 209.492L107.548 209.519C107.019 205.337 106.78 200.943 107.329 196.756L107.464 195.75C108.249 189.586 110.829 183.889 114.977 179.241C121.529 171.9 129.228 169.333 138.852 168.772L139.085 162C139.971 153.8 144.805 146.54 151.134 141.479C158.307 135.742 168.342 132.185 177.549 133.328L178.5 133.451C183.207 134.032 187.39 135.923 191.691 137.827C194.924 126.975 199.47 117.517 207.064 109.016C219.399 95.2052 236.029 87.8768 254.345 86.718Z"/>
	<path fill="#4B992F" transform="scale(0.488281 0.488281)" d="M867.312 364.268C879.518 363.599 893.329 371.28 902.241 379.147C908.644 384.801 913.912 391.611 918.832 398.557C930.966 415.685 940.524 435.302 947.781 454.962C950.742 462.984 954.066 471.88 954.494 480.5C954.776 486.197 954.088 491.317 953.282 496.932C975.547 509.58 987.372 534.624 993.912 558.357C1003.91 594.62 1001.08 637.703 982.14 670.6C973.988 684.762 963.431 695.874 950.576 705.817C962.842 719.379 969.545 736.755 968.611 755.088C967.919 768.688 962.979 779.646 955.211 790.616C960.328 793.78 965.489 797.099 969.875 801.246C980.178 810.989 987.695 825.566 990.905 839.234C995.282 857.873 992.629 879.78 982.455 896.188C979.406 901.106 975.997 905.747 971.798 909.75L971.272 909.596L970.391 909.359C959.49 906.233 946.891 911.051 935.786 908.664C930.163 910.224 923.802 909.69 917.999 909.707L892.788 909.77C888.672 909.786 883.582 910.504 879.602 909.875L875.19 909.934L865.838 909.944L865.609 815.974L865.467 801.501C863.997 798.98 862.448 796.296 860.335 794.257C857.116 791.151 852.978 789.378 848.505 789.411C842.769 789.454 839.018 792.273 835.131 796.15C835.134 790.935 835.06 786.205 832.916 781.372L832.681 780.861C832.997 776.041 835.152 771.611 836.477 767.016C839.358 757.026 841.233 744.374 838.157 734.306C836.968 730.415 834.837 726.794 832.86 723.263C843.88 725.819 854.69 726.664 865.927 727.601L866.51 683.886L851.042 673.725C837.574 664.101 828.332 652.262 821.904 637.087C820.429 633.604 819.52 629.927 818.004 626.472L817.822 626.067C817.403 624.688 817.124 623.427 816.921 622C818.479 619.628 822.95 617.906 825.487 616.578C826.92 617.566 826.779 618.501 827.173 620.155C831.763 617.491 836.107 613.561 840.461 610.437C846.442 606.147 852.616 602.255 859.437 599.435C863.93 597.578 868.734 596.34 873.357 594.84L873.671 589.2L878.453 528.834L878.759 520.25C880.357 525.567 880.065 532.252 880.552 537.843L884.107 589.646L884.627 589.963C889.134 590.165 907.911 571.321 912.386 567.675L912.276 567.418L920.99 559.25C927.465 552.651 932.461 543.93 933.728 534.699C934.144 531.674 933.985 528.506 933.946 525.457L933.577 525.403L927.021 488.25C921.444 462.792 913.925 438.212 903.285 414.413C894.746 395.315 884.618 376.831 867.312 364.268Z"/>
	<path fill="#8FBD39" transform="scale(0.488281 0.488281)" d="M933.946 525.457C940.468 525.731 946.393 528.284 950.825 533.155C955.401 538.185 958.39 545.614 957.93 552.422C957.425 559.899 954.233 566.884 948.41 571.71C943.037 576.163 935.543 577.792 928.689 576.946C922.065 576.128 916.799 572.428 912.386 567.675L912.276 567.418L920.99 559.25C927.465 552.651 932.461 543.93 933.728 534.699C934.144 531.674 933.985 528.506 933.946 525.457Z"/>
	<defs>
		<linearGradient id="gradient_0" gradientUnits="userSpaceOnUse" x1="892.96613" y1="721.50366" x2="808.21704" y2="713.40448">
			<stop offset="0" stop-color="#9C6D24"/>
			<stop offset="1" stop-color="#B2532E"/>
		</linearGradient>
	</defs>
	<path fill="url(#gradient_0)" transform="scale(0.488281 0.488281)" d="M878.453 528.834L878.759 520.25C880.357 525.567 880.065 532.252 880.552 537.843L884.107 589.646L885.96 675.085C902.639 666.911 913.176 651.702 919.108 634.426L923.912 619.32C924.371 624.562 924.288 629.344 923.14 634.5C919.385 651.362 908.553 672.169 893.659 681.766L885.195 686.589L885.547 727.501L885.646 824.528L885.474 909.458L879.68 909.691L879.602 909.875L875.19 909.934L865.838 909.944L865.609 815.974L865.467 801.501C863.997 798.98 862.448 796.296 860.335 794.257C857.116 791.151 852.978 789.378 848.505 789.411C842.769 789.454 839.018 792.273 835.131 796.15C835.134 790.935 835.06 786.205 832.916 781.372L832.681 780.861C832.997 776.041 835.152 771.611 836.477 767.016C839.358 757.026 841.233 744.374 838.157 734.306C836.968 730.415 834.837 726.794 832.86 723.263C843.88 725.819 854.69 726.664 865.927 727.601L866.51 683.886L851.042 673.725C837.574 664.101 828.332 652.262 821.904 637.087C820.429 633.604 819.52 629.927 818.004 626.472L817.822 626.067C817.403 624.688 817.124 623.427 816.921 622C818.479 619.628 822.95 617.906 825.487 616.578C826.92 617.566 826.779 618.501 827.173 620.155C831.763 617.491 836.107 613.561 840.461 610.437C846.442 606.147 852.616 602.255 859.437 599.435C863.93 597.578 868.734 596.34 873.357 594.84L873.671 589.2L878.453 528.834Z"/>
	<path fill="#4B992F" transform="scale(0.488281 0.488281)" d="M869.485 647.981C869.245 654.909 869.564 663.365 867.738 670.051L859.269 664.214C863.56 659.564 865.856 653.144 869.485 647.981Z"/>
	<path fill="#703E16" transform="scale(0.488281 0.488281)" d="M825.487 616.578C826.92 617.566 826.779 618.501 827.173 620.155C832.597 638.114 844.624 652.91 859.269 664.214L867.738 670.051L867.226 678.373C859.29 669.766 850.484 661.575 843.245 652.387C837.383 644.948 832.715 636.789 828.98 628.109C827.571 624.834 825.505 620.165 825.487 616.578Z"/>
	<path fill="#6FC7BA" transform="scale(0.488281 0.488281)" d="M832.86 723.263C843.88 725.819 854.69 726.664 865.927 727.601L865.467 801.501C863.997 798.98 862.448 796.296 860.335 794.257C857.116 791.151 852.978 789.378 848.505 789.411C842.769 789.454 839.018 792.273 835.131 796.15C835.134 790.935 835.06 786.205 832.916 781.372L832.681 780.861C832.997 776.041 835.152 771.611 836.477 767.016C839.358 757.026 841.233 744.374 838.157 734.306C836.968 730.415 834.837 726.794 832.86 723.263Z"/>
	<path fill="#68AE2D" transform="scale(0.488281 0.488281)" d="M873.357 594.84L871.679 624.909C871.206 632.514 870.866 640.484 869.485 647.981C865.856 653.144 863.56 659.564 859.269 664.214C844.624 652.91 832.597 638.114 827.173 620.155C831.763 617.491 836.107 613.561 840.461 610.437C846.442 606.147 852.616 602.255 859.437 599.435C863.93 597.578 868.734 596.34 873.357 594.84Z"/>
	<path fill="#593B0F" transform="scale(0.488281 0.488281)" d="M878.453 528.834L878.759 520.25C880.357 525.567 880.065 532.252 880.552 537.843L884.107 589.646L885.96 675.085C902.639 666.911 913.176 651.702 919.108 634.426L923.912 619.32C924.371 624.562 924.288 629.344 923.14 634.5C919.385 651.362 908.553 672.169 893.659 681.766L885.195 686.589L885.547 727.501L885.646 824.528L885.474 909.458L879.68 909.691L879.602 909.875L875.19 909.934L876.486 586.813C877.141 581.29 876.979 575.541 877.289 569.982C877.9 559.038 879.206 547.855 879.16 536.918C879.149 534.27 878.636 531.501 878.453 528.834Z"/>
	<path fill="#A8DFD5" transform="scale(0.488281 0.488281)" d="M950.576 705.817C962.842 719.379 969.545 736.755 968.611 755.088C967.919 768.688 962.979 779.646 955.211 790.616C960.328 793.78 965.489 797.099 969.875 801.246C980.178 810.989 987.695 825.566 990.905 839.234C995.282 857.873 992.629 879.78 982.455 896.188C979.406 901.106 975.997 905.747 971.798 909.75L971.272 909.596L970.391 909.359C959.49 906.233 946.891 911.051 935.786 908.664C930.163 910.224 923.802 909.69 917.999 909.707L892.788 909.77C888.672 909.786 883.582 910.504 879.602 909.875L879.68 909.691L885.474 909.458L885.646 824.528L885.547 727.501C908.941 725.742 931.011 719.093 950.576 705.817Z"/>
	<path fill="#427416" transform="scale(0.488281 0.488281)" d="M885.646 824.528C893.77 821.86 900.609 820.48 908.667 824.416C914.952 827.485 920.139 833.235 922.326 839.903C923.403 843.187 923.569 846.091 923.573 849.498C927.247 849.466 930.441 849.428 934 850.419L934.912 850.655C941.768 852.488 947.997 857.539 951.476 863.704C955.571 870.96 957.033 880.165 954.814 888.255C952.801 895.595 947.699 902.558 940.977 906.229L935.786 908.664C930.163 910.224 923.802 909.69 917.999 909.707L892.788 909.77C888.672 909.786 883.582 910.504 879.602 909.875L879.68 909.691L885.474 909.458L885.646 824.528Z"/>
	<path fill="#A8DFD5" transform="scale(0.488281 0.488281)" d="M249.194 380.454L249.802 380.581C258.411 382.431 264.4 386.096 271.362 391.265C272.967 368.138 281.999 346.12 299.781 330.708C316.922 315.853 339.52 307.771 362.275 309.693C368.122 310.187 374.289 311.572 379.705 313.824C379.804 305.817 380.094 298.09 381.738 290.217C385.505 272.175 395.393 255.992 408.501 243.222C425.66 226.505 452.417 216.397 476.294 216.591C501.914 216.8 528.339 228.087 546.146 246.527C551.829 252.412 557.66 259.382 561.59 266.571C582.97 259.343 605.01 260.627 625.318 270.692C644.914 280.405 661.26 297.337 668.263 318.38C669.516 322.147 670.058 326.361 671.47 330.005C693.181 324.838 712.298 331.054 730.79 342.417L737.474 346.921C755.902 359.961 766.367 383.06 769.869 404.751C770.979 411.624 771.356 419.212 770.541 426.163C783.713 420.285 800.83 418.911 814.595 423.798C805.409 441.85 798.593 461.362 793.097 480.844L789.743 493.573C788.998 496.874 788.536 500.494 787.253 503.628C782.408 485.678 774.502 465.378 757.373 455.797C749.961 451.65 742.006 450.836 733.83 453.057C728.449 454.902 724.616 457.431 720.131 460.869L716.787 464.979L715.441 466.59L710.469 473.644L706.15 480.261L699.019 474.107L691.047 466.72L688.656 464.48C685.764 461.954 682.836 459.457 680.344 456.526L678.149 454.89C677.21 454.448 676.002 453.234 675.158 452.57C673.244 450.451 673.467 449.741 673.338 447C672.067 445.785 670.919 446.948 669.5 446.498C668.902 446.308 668.43 445.841 667.895 445.512L658.156 436.48L655.997 434.977L645.943 426.209L643.493 424.56L642.371 423.48L475.872 276.778L271.109 456.269C268.883 429.091 261.001 404.849 249.194 380.454Z"/>
	<path fill="#822B2C" transform="scale(0.488281 0.488281)" d="M701.193 385.953C707.196 385.157 713.444 385.907 719.511 385.311L719.506 396.038L706 395.996C703.23 395.942 694.638 396.264 692.607 394.988L692.386 392.918L692.477 386.222L701.193 385.953Z"/>
	<path fill="#E6874D" transform="scale(0.488281 0.488281)" d="M642.843 385.504C637.334 384.689 631.099 385.221 625.499 385.256L625.474 354.379L705.727 354.569L726.345 354.602C729.284 354.61 733.199 354.126 735.932 355.082C736.785 358.044 736.314 361.894 736.315 364.973L736.29 385.058L725.116 385.085C723.31 385.092 721.25 384.865 719.511 385.311C713.444 385.907 707.196 385.157 701.193 385.953L692.477 386.222L692.386 392.918L691.536 392.918L691.25 395.088C689.871 395.855 687.701 395.519 686.156 395.517C683.106 395.513 678.113 396.147 675.28 395.228L674.846 395.038C674.622 393.549 674.359 392.628 673.652 391.301L673.461 394.75C672.272 395.542 670.521 395.265 669.139 395.279L657.157 395.25C656.384 394.239 656.409 393.374 656.286 392.149L656.026 392.208L655.25 394.945C651.053 395.597 646.651 395.447 642.403 395.598C642.875 392.373 642.513 388.814 642.843 385.504Z"/>
	<path fill="#822B2C" transform="scale(0.488281 0.488281)" d="M642.843 385.504L656.159 385.944C656.041 388.001 655.774 390.16 656.026 392.208L655.25 394.945C651.053 395.597 646.651 395.447 642.403 395.598C642.875 392.373 642.513 388.814 642.843 385.504Z"/>
	<path fill="#822B2C" transform="scale(0.488281 0.488281)" d="M674.846 395.038L674.732 386.052L691.461 386.088L691.536 392.918L691.25 395.088C689.871 395.855 687.701 395.519 686.156 395.517C683.106 395.513 678.113 396.147 675.28 395.228L674.846 395.038Z"/>
	<path fill="#822B2C" transform="scale(0.488281 0.488281)" d="M656.286 392.149L656.311 385.973L673.437 386.005L673.652 391.301L673.461 394.75C672.272 395.542 670.521 395.265 669.139 395.279L657.157 395.25C656.384 394.239 656.409 393.374 656.286 392.149Z"/>
	<path fill="#C6684B" transform="scale(0.488281 0.488281)" d="M701.193 385.953L701.195 354.994L735.932 355.082C736.785 358.044 736.314 361.894 736.315 364.973L736.29 385.058L725.116 385.085C723.31 385.092 721.25 384.865 719.511 385.311C713.444 385.907 707.196 385.157 701.193 385.953Z"/>
	<path fill="#D4BEA3" transform="scale(0.488281 0.488281)" d="M673.652 391.301C674.359 392.628 674.622 393.549 674.846 395.038L675.28 395.228C678.113 396.147 683.106 395.513 686.156 395.517C687.701 395.519 689.871 395.855 691.25 395.088L691.536 392.918L692.386 392.918L692.607 394.988C694.638 396.264 703.23 395.942 706 395.996L706 396.782L706.482 396.842L719.531 397.01L719.469 405.325L719.482 406.582C719.497 409.473 719.748 412.611 719.428 415.475L719.547 416.647L719.612 424.595L719.585 426.037L719.692 434.956C720.107 437.484 720.617 442.315 719.62 444.614L719.83 446.285C719.871 448.179 720.49 453.377 719.721 454.876L713.048 454.951L712.037 455.758L714.37 456.198L719.391 456.186C720.329 457.457 720.074 459.292 720.131 460.869L716.787 464.979L715.441 466.59L710.469 473.644L706.15 480.261L699.019 474.107L691.047 466.72L688.656 464.48C685.764 461.954 682.836 459.457 680.344 456.526L678.149 454.89C677.21 454.448 676.002 453.234 675.158 452.57C673.244 450.451 673.467 449.741 673.338 447C672.067 445.785 670.919 446.948 669.5 446.498C668.902 446.308 668.43 445.841 667.895 445.512L658.156 436.48L655.997 434.977L645.943 426.209L643.493 424.56L642.371 423.48L642.572 416.686L642.54 415.356L642.568 405.969L649.364 405.98L649.097 405.008L642.79 404.969C642.092 402.854 642.621 399.077 642.675 396.771L642.403 395.598C646.651 395.447 651.053 395.597 655.25 394.945L656.026 392.208L656.286 392.149C656.409 393.374 656.384 394.239 657.157 395.25L669.139 395.279C670.521 395.265 672.272 395.542 673.461 394.75L673.652 391.301Z"/>
	<path fill="#954220" transform="scale(0.488281 0.488281)" d="M713.048 454.951C712.046 452.959 712.547 448.463 712.559 446.177L719.83 446.285C719.871 448.179 720.49 453.377 719.721 454.876L713.048 454.951Z"/>
	<path fill="#C6684B" transform="scale(0.488281 0.488281)" d="M642.572 416.686L655.473 416.523L655.371 424.429L643.493 424.56L642.371 423.48L642.572 416.686Z"/>
	<path fill="#954220" transform="scale(0.488281 0.488281)" d="M719.612 424.595L704.057 424.584C704.442 421.956 704.433 419.339 704.467 416.69L719.547 416.647L719.612 424.595Z"/>
	<path fill="#822B2C" transform="scale(0.488281 0.488281)" d="M649.364 405.98L655.883 405.984C655.95 408.704 656.543 412.319 655.25 414.763L642.54 415.356L642.568 405.969L649.364 405.98Z"/>
	<path fill="#954220" transform="scale(0.488281 0.488281)" d="M675.158 452.57L675.172 446.435L690.627 446.384L690.475 454.843C686.516 454.839 682.045 454.398 678.149 454.89C677.21 454.448 676.002 453.234 675.158 452.57Z"/>
	<path fill="#954220" transform="scale(0.488281 0.488281)" d="M703.852 436.491L719.684 436.467L719.62 444.614C714.662 445.223 708.956 444.652 703.919 444.632L703.852 436.491Z"/>
	<path fill="#822B2C" transform="scale(0.488281 0.488281)" d="M686.521 396.578L702.103 396.642C702.11 399.425 702.272 402.089 701.341 404.75C696.66 405.577 691.316 405.026 686.55 404.972L686.521 396.578Z"/>
	<path fill="#822B2C" transform="scale(0.488281 0.488281)" d="M706 396.782L706.482 396.842L719.531 397.01L719.469 405.325L709.42 405.237C707.657 405.219 705.779 405.433 704.124 404.75C704.139 404.118 704.4 402.244 704.196 401.75C703.628 400.372 703.119 400.586 702.895 398.75C704.027 397.269 704.29 397.306 706 396.782Z"/>
	<path fill="#954220" transform="scale(0.488281 0.488281)" d="M673.985 426.515L689.499 426.369L689.485 434.942L674.04 434.935C673.287 433.221 673.926 428.549 673.985 426.515Z"/>
	<path fill="#954220" transform="scale(0.488281 0.488281)" d="M714.37 456.198L719.391 456.186C720.329 457.457 720.074 459.292 720.131 460.869L716.787 464.979L703.672 464.801C703.314 462.087 703.494 459.195 703.482 456.456L714.37 456.198Z"/>
	<path fill="#954220" transform="scale(0.488281 0.488281)" d="M680.344 456.526L702.024 456.535L701.978 464.804L688.656 464.48C685.764 461.954 682.836 459.457 680.344 456.526Z"/>
	<path fill="#822B2C" transform="scale(0.488281 0.488281)" d="M674.576 405.987L690.988 406.011C691.005 408.784 691.442 412.111 690.25 414.658C685.997 415.935 679.169 414.959 674.625 414.914L674.576 405.987Z"/>
	<path fill="#822B2C" transform="scale(0.488281 0.488281)" d="M656.718 406.001L673.06 405.981L673.043 414.939L656.479 414.98L656.718 406.001Z"/>
	<path fill="#954220" transform="scale(0.488281 0.488281)" d="M691.823 446.244L710.55 446.18L710.607 454.767L691.9 454.916L691.823 446.244Z"/>
	<path fill="#954220" transform="scale(0.488281 0.488281)" d="M691.047 466.72L715.441 466.59L710.469 473.644L706.15 480.261L699.019 474.107L691.047 466.72Z"/>
	<path fill="#CC8D46" transform="scale(0.488281 0.488281)" d="M710.469 473.644L706.15 480.261L699.019 474.107C701.167 472.827 707.784 473.63 710.469 473.644Z"/>
	<path fill="#C6684B" transform="scale(0.488281 0.488281)" d="M645.943 426.209L672.538 426.296L672.456 434.934L655.997 434.977L645.943 426.209Z"/>
	<path fill="#822B2C" transform="scale(0.488281 0.488281)" d="M719.428 415.475L692.54 415.115L692.52 406.027L719.482 406.582C719.497 409.473 719.748 412.611 719.428 415.475Z"/>
	<path fill="#C6684B" transform="scale(0.488281 0.488281)" d="M719.692 434.956L690.993 434.953L690.982 426.174L719.585 426.037L719.692 434.956Z"/>
	<path fill="#C6684B" transform="scale(0.488281 0.488281)" d="M658.156 436.48L702.545 436.469L702.497 444.767L676.638 444.912C674.418 444.909 669.596 444.345 667.895 445.512L658.156 436.48Z"/>
	<path fill="#822B2C" transform="scale(0.488281 0.488281)" d="M642.675 396.771L684.459 396.464L684.582 404.875L649.097 405.008L642.79 404.969C642.092 402.854 642.621 399.077 642.675 396.771Z"/>
	<path fill="#C6684B" transform="scale(0.488281 0.488281)" d="M656.701 416.49L702.576 416.521L702.497 424.565L657.074 424.451C656.289 422.201 656.71 418.905 656.701 416.49Z"/>
	<path fill="#8FBD39" transform="scale(0.488281 0.488281)" d="M814.595 423.798C816.559 421.133 818.045 417.602 819.637 414.674C822.844 408.777 826.128 402.801 829.891 397.24C838.198 384.962 851.851 367.288 867.312 364.268C884.618 376.831 894.746 395.315 903.285 414.413C913.925 438.212 921.444 462.792 927.021 488.25L933.577 525.403L933.946 525.457C933.985 528.506 934.144 531.674 933.728 534.699C932.461 543.93 927.465 552.651 920.99 559.25L912.276 567.418L912.386 567.675C907.911 571.321 889.134 590.165 884.627 589.963L884.107 589.646L880.552 537.843C880.065 532.252 880.357 525.567 878.759 520.25L878.453 528.834L873.671 589.2L873.357 594.84C868.734 596.34 863.93 597.578 859.437 599.435C852.616 602.255 846.442 606.147 840.461 610.437C836.107 613.561 831.763 617.491 827.173 620.155C826.779 618.501 826.92 617.566 825.487 616.578C822.95 617.906 818.479 619.628 816.921 622C817.124 623.427 817.403 624.688 817.822 626.067L818.004 626.472C819.52 629.927 820.429 633.604 821.904 637.087C828.332 652.262 837.574 664.101 851.042 673.725L866.51 683.886L865.927 727.601C854.69 726.664 843.88 725.819 832.86 723.263C832.581 722.764 822.8 719.652 821.583 719.175C809.274 714.349 799.359 707.503 789.357 699.012L789.49 700.131C789.912 702.107 790.206 703.904 790.388 705.932C791.692 713.373 791.449 719.952 786.982 726.347C782.513 732.745 775.821 733.797 768.75 735.533C768.398 735.62 766.227 736.045 766.014 736.263C765.707 736.578 765.663 737.07 765.488 737.474L764.242 737.033C759.808 735.599 756.972 733.767 753.401 730.895C751.539 728.445 749.964 726.269 748.823 723.382L747.5 719.048L745.434 718.3C743.277 725.858 740.363 734.722 734.087 739.864L733.961 750.935C726.632 749.712 716.46 750.779 710.385 755.25L707.373 757.786L707.083 758.232L707.537 695.472L707.541 681.029L707.494 595.976L708.75 594.767C709.515 590.809 709.088 585.84 708.22 581.902L707.891 579.544L707.159 576.809L706.767 545.554L706.879 534.258L731.919 534.444C734.629 534.325 738.974 530.459 741.288 528.929L751.526 522.698L752.427 521.492L706.15 480.261L710.469 473.644L715.441 466.59L716.787 464.979L720.131 460.869C724.616 457.431 728.449 454.902 733.83 453.057C742.006 450.836 749.961 451.65 757.373 455.797C774.502 465.378 782.408 485.678 787.253 503.628C788.536 500.494 788.998 496.874 789.743 493.573L793.097 480.844C798.593 461.362 805.409 441.85 814.595 423.798Z"/>
	<path fill="#BBD53E" transform="scale(0.488281 0.488281)" d="M933.577 525.403L933.946 525.457C933.985 528.506 934.144 531.674 933.728 534.699C932.461 543.93 927.465 552.651 920.99 559.25L912.276 567.418C910.646 564.931 909.314 562.372 908.476 559.507L908.262 558.75L907.848 557.279C906.375 550.99 908.202 543.968 911.574 538.609L911.964 538L913.226 536.15C918.813 529.106 924.906 526.654 933.577 525.403Z"/>
	<path fill="#BBD53E" transform="scale(0.488281 0.488281)" d="M797.823 523.125C799.994 523.032 802.119 522.922 804.277 523.262L805 523.384C807.742 523.821 810.02 524.569 812.457 525.935C817.62 528.831 821.508 534.903 823.015 540.502C824.511 546.059 823.355 552.714 820.408 557.628C816.984 563.336 811.675 566.396 805.309 567.817C800.396 568.559 795.769 568.429 791.215 566.183C785.67 563.449 781.545 558.641 779.537 552.784L779.322 552.133C778.241 548.97 778.02 544.411 778.828 541.136L778.999 540.5C779.689 537.88 780.503 535.302 782.02 533.027C786.053 526.98 790.902 524.477 797.823 523.125Z"/>
	<path fill="#BBD53E" transform="scale(0.488281 0.488281)" d="M854.862 420.223C856.659 420.075 858.702 420.302 860.5 420.47C867.958 421.165 876.92 425.924 881.745 431.743L882.25 432.365C883.626 434.033 884.821 435.666 885.875 437.551C889.841 444.643 892.182 454.147 889.835 462.175C888.352 467.249 886.479 471.95 883.174 476.121C876.62 484.39 867.921 488.158 857.619 489.398C849.213 489.724 840.466 487.704 833.933 482.101C827.252 476.373 822.153 468.22 821.533 459.25C820.835 449.142 823.258 439.637 830.024 431.91C836.702 424.282 844.912 420.867 854.862 420.223Z"/>
	<defs>
		<linearGradient id="gradient_1" gradientUnits="userSpaceOnUse" x1="902.28455" y1="654.38898" x2="687.57904" y2="545.61987">
			<stop offset="0" stop-color="#498A1C"/>
			<stop offset="1" stop-color="#00757A"/>
		</linearGradient>
	</defs>
	<path fill="url(#gradient_1)" transform="scale(0.488281 0.488281)" d="M733.83 453.057C742.006 450.836 749.961 451.65 757.373 455.797C774.502 465.378 782.408 485.678 787.253 503.628L787.53 505.25C785.544 507.545 782.386 509.09 779.914 510.879C777.165 512.869 774.726 515.379 772.583 518.001C766.182 525.83 762.085 534.964 758.935 544.5C753.283 561.612 750.541 580.622 751.8 598.641C752.459 608.06 753.897 617.362 756.644 626.406C758.933 628.394 760.824 630.832 763.132 632.798C766.713 635.849 771.509 637.604 776.076 638.436C790.336 641.034 806.367 634.233 817.822 626.067L818.004 626.472C819.52 629.927 820.429 633.604 821.904 637.087C828.332 652.262 837.574 664.101 851.042 673.725L866.51 683.886L865.927 727.601C854.69 726.664 843.88 725.819 832.86 723.263C832.581 722.764 822.8 719.652 821.583 719.175C809.274 714.349 799.359 707.503 789.357 699.012L789.49 700.131C789.912 702.107 790.206 703.904 790.388 705.932C791.692 713.373 791.449 719.952 786.982 726.347C782.513 732.745 775.821 733.797 768.75 735.533C768.398 735.62 766.227 736.045 766.014 736.263C765.707 736.578 765.663 737.07 765.488 737.474L764.242 737.033C759.808 735.599 756.972 733.767 753.401 730.895C751.539 728.445 749.964 726.269 748.823 723.382L747.5 719.048L745.434 718.3C743.277 725.858 740.363 734.722 734.087 739.864L733.961 750.935C726.632 749.712 716.46 750.779 710.385 755.25L707.373 757.786L707.083 758.232L707.537 695.472L707.541 681.029L707.494 595.976L708.75 594.767C709.515 590.809 709.088 585.84 708.22 581.902L707.891 579.544L707.159 576.809L706.767 545.554L706.879 534.258L731.919 534.444C734.629 534.325 738.974 530.459 741.288 528.929L751.526 522.698L752.427 521.492L706.15 480.261L710.469 473.644L715.441 466.59L716.787 464.979L720.131 460.869C724.616 457.431 728.449 454.902 733.83 453.057Z"/>
	<path fill="#0BAD79" transform="scale(0.488281 0.488281)" d="M751.526 522.698C750.735 526.267 748.31 529.613 746.742 532.933C738.028 551.391 726.708 568 708.994 578.992L707.891 579.544L707.159 576.809L706.767 545.554L706.879 534.258L731.919 534.444C734.629 534.325 738.974 530.459 741.288 528.929L751.526 522.698Z"/>
	<path fill="#0BAD79" transform="scale(0.488281 0.488281)" d="M720.131 460.869C724.616 457.431 728.449 454.902 733.83 453.057C742.603 455.422 747.875 458.73 752.384 466.75C759.995 480.288 760.169 498.199 755.868 512.79C754.989 515.768 754.117 518.862 752.427 521.492L706.15 480.261L710.469 473.644L715.441 466.59L716.787 464.979L720.131 460.869Z"/>
	<path fill="#68AE2D" transform="scale(0.488281 0.488281)" d="M817.822 626.067L818.004 626.472C819.52 629.927 820.429 633.604 821.904 637.087C828.332 652.262 837.574 664.101 851.042 673.725C840.307 681.663 828.096 687.326 814.454 686.402C796.352 685.176 784.105 675.486 772.697 662.266C767.193 653.977 762.664 645.319 759.262 635.959C758.049 632.794 757.257 629.738 756.644 626.406C758.933 628.394 760.824 630.832 763.132 632.798C766.713 635.849 771.509 637.604 776.076 638.436C790.336 641.034 806.367 634.233 817.822 626.067Z"/>
	<path fill="#8FBD39" transform="scale(0.488281 0.488281)" d="M715.912 679.428L748.825 622.779L754.361 634.212C754.617 634.603 756.557 637.764 756.758 637.829L769.354 662.063C773.911 672.286 780.178 681.789 784.834 691.984C785.895 694.309 786.971 696.747 787.676 699.206C788.148 700.85 788.455 704.429 789.335 705.593L790.388 705.932C791.692 713.373 791.449 719.952 786.982 726.347C782.513 732.745 775.821 733.797 768.75 735.533C768.398 735.62 766.227 736.045 766.014 736.263C765.707 736.578 765.663 737.07 765.488 737.474L764.242 737.033C759.808 735.599 756.972 733.767 753.401 730.895C751.539 728.445 749.964 726.269 748.823 723.382L747.5 719.048L745.434 718.3C743.277 725.858 740.363 734.722 734.087 739.864L733.961 750.935C726.632 749.712 716.46 750.779 710.385 755.25L707.373 757.786L707.083 758.232L707.537 695.472L707.541 681.029L708.171 680.258C710.785 679.802 713.252 679.506 715.912 679.428Z"/>
	<path fill="#03644D" transform="scale(0.488281 0.488281)" d="M707.541 681.029L708.171 680.258C710.785 679.802 713.252 679.506 715.912 679.428L708.02 694.659L707.537 695.472L707.541 681.029Z"/>
	<path fill="#02785B" transform="scale(0.488281 0.488281)" d="M707.373 757.786L707.497 733.815C710.238 738.089 713.166 741.256 718.195 742.87L719 743.116C720.088 743.455 721.115 743.747 722.25 743.896C727.443 744.579 730.081 742.911 734.087 739.864L733.961 750.935C726.632 749.712 716.46 750.779 710.385 755.25L707.373 757.786Z"/>
	<path fill="#68AE2D" transform="scale(0.488281 0.488281)" d="M754.361 634.212C754.617 634.603 756.557 637.764 756.758 637.829L769.354 662.063C773.911 672.286 780.178 681.789 784.834 691.984C785.895 694.309 786.971 696.747 787.676 699.206C788.148 700.85 788.455 704.429 789.335 705.593L790.388 705.932C791.692 713.373 791.449 719.952 786.982 726.347C782.513 732.745 775.821 733.797 768.75 735.533C768.398 735.62 766.227 736.045 766.014 736.263C765.707 736.578 765.663 737.07 765.488 737.474L764.242 737.033C759.808 735.599 756.972 733.767 753.401 730.895C751.539 728.445 749.964 726.269 748.823 723.382L747.5 719.048L745.434 718.3C749.436 701.69 750.869 684.459 752.145 667.458L754.361 634.212Z"/>
	<path fill="#427416" transform="scale(0.488281 0.488281)" d="M752.145 667.458L752.203 667.871C752.751 672.189 752.193 676.243 752.009 680.519C751.346 695.921 750.456 716.057 763.75 726.867C765.361 728.177 767.068 728.9 769 729.6L769.665 729.85C773.111 731.066 777.97 730.887 781.266 729.321C785.38 727.367 787.733 723.727 789.008 719.469C790.384 714.873 789.662 710.272 789.335 705.593L790.388 705.932C791.692 713.373 791.449 719.952 786.982 726.347C782.513 732.745 775.821 733.797 768.75 735.533C768.398 735.62 766.227 736.045 766.014 736.263C765.707 736.578 765.663 737.07 765.488 737.474L764.242 737.033C759.808 735.599 756.972 733.767 753.401 730.895C751.539 728.445 749.964 726.269 748.823 723.382L747.5 719.048L745.434 718.3C749.436 701.69 750.869 684.459 752.145 667.458Z"/>
	<path fill="#BBD53E" transform="scale(0.488281 0.488281)" d="M790.388 705.932C790.206 703.904 789.912 702.107 789.49 700.131L789.357 699.012C799.359 707.503 809.274 714.349 821.583 719.175C822.8 719.652 832.581 722.764 832.86 723.263C834.837 726.794 836.968 730.415 838.157 734.306C841.233 744.374 839.358 757.026 836.477 767.016C835.152 771.611 832.997 776.041 832.681 780.861L832.916 781.372C835.06 786.205 835.134 790.935 835.131 796.15C839.018 792.273 842.769 789.454 848.505 789.411C852.978 789.378 857.116 791.151 860.335 794.257C862.448 796.296 863.997 798.98 865.467 801.501L865.609 815.974L865.838 909.944L875.19 909.934L879.602 909.875C883.582 910.504 888.672 909.786 892.788 909.77L917.999 909.707C923.802 909.69 930.163 910.224 935.786 908.664C946.891 911.051 959.49 906.233 970.391 909.359L971.272 909.596L971.798 909.75L972.222 910.148C973.282 911.569 974.838 912.897 976.278 913.925C978.426 915.46 979.472 917.752 980.75 920C979.986 922.308 977.33 920.506 975.568 922.117L974 922.307C962.59 924.473 949.952 923.367 938.332 923.338L884.782 923.3L683.508 923.334L260.685 923.022L120.25 923.053L78.9554 923.031C71.508 923.026 63.854 923.358 56.4327 922.868C52.4696 922.606 48.1677 921.595 45.5155 918.5C45.314 916.56 45.4169 916.509 46.4975 914.998C47.1243 914.121 47.7128 913.128 48.6389 912.54C49.4775 912.008 49.9687 911.887 50.5674 911.016L50.9085 910.422L50.8145 910.132C57.855 908.098 64.4603 908.547 71.6918 908.666L95.9957 908.849C90.8602 906.34 86.4882 903.657 82.952 899.065C77.5479 892.049 75.3284 882.669 76.6733 873.938C77.9219 865.831 83.5426 857.82 90.2431 853.247C98.0008 847.951 106.83 847.237 115.829 848.985C115.606 845.804 115.44 842.725 115.916 839.558C117.675 827.859 124.053 817.304 133.696 810.391C144.424 802.702 156.771 801.663 169.4 803.712C172.77 804.498 175.89 805.795 178.947 807.407C184.018 811.415 187.887 815.74 192.46 820.189L192.913 821.593C194.535 822.101 196.542 821.654 198.25 821.701C202.884 821.827 207.199 822.833 211.417 824.713L214.688 827.319C216.312 826.225 217.943 825.061 219.801 824.402C226.094 822.17 232.179 823.668 237.997 826.367C245.664 831.787 247.518 837.079 250.032 845.874C250.081 846.043 250.425 847.246 250.427 847.247C250.845 847.471 253.942 847.265 254.58 847.268C257.668 847.829 260.092 848.646 262.752 850.378C262.906 849.126 263.273 848.026 263.723 846.849C266.343 839.996 272.313 834.197 279.057 831.382C285.439 828.718 292.33 829.84 298.547 832.257C304.119 835.693 308.035 839.968 311.887 845.245L313.011 845.503L314.369 845.64C320.447 843.856 326.144 844.241 331.743 847.254C335.378 849.211 338.316 852.347 340.924 855.499L341.531 855.214C346.421 852.975 351.456 851.916 356.825 851.74C363.323 852.591 368.902 854.94 373.04 860.25C376.162 864.257 378.044 869.179 378.589 874.212C378.681 875.057 378.61 877.601 378.958 878.25C379.123 878.557 379.477 878.714 379.737 878.945L380.671 878.84C386.779 877.443 391.54 877.589 397.009 881.131C402.413 884.632 406.67 889.942 407.827 896.391C408.661 901.042 408.35 905.29 406.343 909.608C410.607 910.19 415.129 909.853 419.442 909.821C429.836 909.744 440.61 909.16 450.963 909.9L450.969 891.108C455.695 891.118 463.166 891.996 467.563 890.75L467.846 888.869L467.891 872.497L482.536 872.54L482.452 867.376L482.377 847.699L490.271 847.664L602.682 847.87L616.024 847.891L616.007 858.173L616.002 870.75C617.168 871.906 618.438 871.552 620.042 871.609L629.577 871.472L629.557 891.165L647.591 891.351L647.502 910.129L688.994 910.001L687.599 905.5C686.102 899.878 687.059 894.086 690.005 889.086C693.782 882.677 699.527 879.435 706.59 877.723L706.894 813.765L707.083 758.232L707.373 757.786L710.385 755.25C716.46 750.779 726.632 749.712 733.961 750.935L734.087 739.864C740.363 734.722 743.277 725.858 745.434 718.3L747.5 719.048L748.823 723.382C749.964 726.269 751.539 728.445 753.401 730.895C756.972 733.767 759.808 735.599 764.242 737.033L765.488 737.474C765.663 737.07 765.707 736.578 766.014 736.263C766.227 736.045 768.398 735.62 768.75 735.533C775.821 733.797 782.513 732.745 786.982 726.347C791.449 719.952 791.692 713.373 790.388 705.932Z"/>
	<path fill="#FED97B" transform="scale(0.488281 0.488281)" d="M706.59 877.723C709.63 877.355 712.456 877.384 715.459 877.978L716.147 878.122C717.192 873.204 718.411 868.188 721.418 864.04C725.017 859.076 730.927 855.518 736.988 854.615C744.105 853.555 750.327 855.568 756.019 859.741L755.372 860.08C753.839 860.817 750.974 860.45 749.247 860.436C745.111 860.404 741.285 860.433 737.276 861.662C729.134 864.157 724.485 871.606 721.432 879C721.231 879.487 720.794 881.123 720.466 881.467C719.562 882.42 715.754 883.588 714.313 884.304C704.831 889.021 698.848 898.34 698.404 908.892C698.372 909.647 698.398 909.366 698.08 910.184L688.994 910.001L687.599 905.5C686.102 899.878 687.059 894.086 690.005 889.086C693.782 882.677 699.527 879.435 706.59 877.723Z"/>
	<path fill="#8FBD39" transform="scale(0.488281 0.488281)" d="M768.889 869.766C768.853 864.923 769.529 860.603 771.764 856.232C774.441 850.997 779.035 846.81 784.703 845.091L785.5 844.86C791.159 843.176 796.196 844.077 801.702 845.796L803.036 839.5C804.942 831.957 810.142 824.857 816.9 820.983C823.615 817.135 833.159 815.511 840.657 817.629L841.5 817.883C847.118 819.52 850.43 821.823 854.291 826.07C857.214 821.155 860.712 818.688 865.609 815.974L865.838 909.944L790.791 909.971L756.631 910.079L774.75 869.986L773.652 869.295L768.889 869.766Z"/>
	<path fill="#68AE2D" transform="scale(0.488281 0.488281)" d="M262.752 850.378C262.906 849.126 263.273 848.026 263.723 846.849C266.343 839.996 272.313 834.197 279.057 831.382C285.439 828.718 292.33 829.84 298.547 832.257C304.119 835.693 308.035 839.968 311.887 845.245L313.011 845.503L314.369 845.64C320.447 843.856 326.144 844.241 331.743 847.254C335.378 849.211 338.316 852.347 340.924 855.499L341.531 855.214C346.421 852.975 351.456 851.916 356.825 851.74C363.323 852.591 368.902 854.94 373.04 860.25C376.162 864.257 378.044 869.179 378.589 874.212C378.681 875.057 378.61 877.601 378.958 878.25C379.123 878.557 379.477 878.714 379.737 878.945L380.671 878.84C386.779 877.443 391.54 877.589 397.009 881.131C402.413 884.632 406.67 889.942 407.827 896.391C408.661 901.042 408.35 905.29 406.343 909.608L405.907 909.62C402.055 910.597 397.065 909.958 393.068 909.909L267.032 909.93C267.043 909.45 267 908.987 266.961 908.509C265.243 907.19 263.737 905.075 262.58 903.25C259.717 898.734 259.326 893.784 260.682 888.708C262.366 882.405 267.026 878.865 272.429 875.853C271.154 865.919 270.184 857.774 262.752 850.378Z"/>
	<path fill="#8FBD39" transform="scale(0.488281 0.488281)" d="M293.704 868.951C294.123 872.453 293.405 876.957 294.104 880.25C294.205 880.724 294.954 881.514 295.305 881.795C296.087 882.42 296.81 882.48 297.762 882.625C291.862 883.763 284.612 882.581 279.34 885.741C276.822 887.25 274.722 889.835 273.117 892.266C270.885 895.646 269.533 899.336 268.397 903.204C267.922 904.822 267.65 907.045 266.961 908.509C265.243 907.19 263.737 905.075 262.58 903.25C259.717 898.734 259.326 893.784 260.682 888.708C262.366 882.405 267.026 878.865 272.429 875.853C275.684 875.03 278.981 874.699 282.314 875.264L283 875.387C286.67 876.006 289.534 877.237 292.421 879.559L292.988 880.028L293.704 868.951Z"/>
	<path fill="#8B9C09" transform="scale(0.488281 0.488281)" d="M262.752 850.378C262.906 849.126 263.273 848.026 263.723 846.849C266.343 839.996 272.313 834.197 279.057 831.382C285.439 828.718 292.33 829.84 298.547 832.257C304.119 835.693 308.035 839.968 311.887 845.245L313.011 845.503L314.369 845.64C306.414 848.371 299.927 852.748 296.186 860.454C294.869 863.167 294.219 865.996 293.704 868.951L292.988 880.028L292.421 879.559C289.534 877.237 286.67 876.006 283 875.387L282.314 875.264C278.981 874.699 275.684 875.03 272.429 875.853C271.154 865.919 270.184 857.774 262.752 850.378Z"/>
	<path fill="#427416" transform="scale(0.488281 0.488281)" d="M356.825 851.74C363.323 852.591 368.902 854.94 373.04 860.25C376.162 864.257 378.044 869.179 378.589 874.212C378.681 875.057 378.61 877.601 378.958 878.25C379.123 878.557 379.477 878.714 379.737 878.945L380.671 878.84C386.779 877.443 391.54 877.589 397.009 881.131C402.413 884.632 406.67 889.942 407.827 896.391C408.661 901.042 408.35 905.29 406.343 909.608L405.907 909.62C402.055 910.597 397.065 909.958 393.068 909.909C388.825 909.272 383.996 909.584 379.689 909.565L355.673 909.503C355.304 908.827 357.359 903.419 357.671 902.296C362.376 885.385 361.679 868.5 356.825 851.74Z"/>
	<path fill="#485512" transform="scale(0.488281 0.488281)" d="M380.671 878.84C386.779 877.443 391.54 877.589 397.009 881.131C402.413 884.632 406.67 889.942 407.827 896.391C408.661 901.042 408.35 905.29 406.343 909.608L405.907 909.62L392.733 909.396C394.996 906.767 397.095 904.001 397.929 900.573C398.885 896.647 397.76 892.316 395.59 888.999C392.265 883.918 386.627 880.023 380.671 878.84Z"/>
	<path fill="#D4BEA3" transform="scale(0.488281 0.488281)" d="M490.271 847.664L602.682 847.87L616.024 847.891L616.007 858.173L616.002 870.75C617.168 871.906 618.438 871.552 620.042 871.609L629.577 871.472L629.557 891.165L647.591 891.351L647.502 910.129L450.963 909.9L450.969 891.108C455.695 891.118 463.166 891.996 467.563 890.75L467.846 888.869L467.891 872.497L482.536 872.54L482.452 867.376L482.377 847.699L490.271 847.664Z"/>
	<path fill="#F9EDCE" transform="scale(0.488281 0.488281)" d="M620.042 871.609L629.577 871.472L629.557 891.165L511.902 891.094L483.048 891.21C478.344 891.242 472.85 891.834 468.25 891.081L467.846 888.869L467.891 872.497L482.536 872.54L510.459 872.148L571.477 872.095L601.937 872.093C607.867 872.09 614.182 872.519 620.042 871.609Z"/>
	<path fill="#D4BEA3" transform="scale(0.488281 0.488281)" d="M490.271 847.664L602.682 847.87L616.024 847.891L616.007 858.173L616.002 870.75C617.168 871.906 618.438 871.552 620.042 871.609C614.182 872.519 607.867 872.09 601.937 872.093L571.477 872.095L510.459 872.148L482.536 872.54L482.452 867.376L482.377 847.699L490.271 847.664Z"/>
	<path fill="#F9EDCE" transform="scale(0.488281 0.488281)" d="M490.271 847.664L602.682 847.87L616.024 847.891L616.007 858.173L553.174 857.884L515.86 857.738C514.288 857.807 511.813 857.746 510.638 858.757C508.596 860.515 503.275 860.656 500.525 861.482L482.452 867.376L482.377 847.699L490.271 847.664Z"/>
	<path fill="#028B72" transform="scale(0.488281 0.488281)" d="M95.9957 908.849C90.8602 906.34 86.4882 903.657 82.952 899.065C77.5479 892.049 75.3284 882.669 76.6733 873.938C77.9219 865.831 83.5426 857.82 90.2431 853.247C98.0008 847.951 106.83 847.237 115.829 848.985C115.606 845.804 115.44 842.725 115.916 839.558C117.675 827.859 124.053 817.304 133.696 810.391C144.424 802.702 156.771 801.663 169.4 803.712C172.77 804.498 175.89 805.795 178.947 807.407C184.018 811.415 187.887 815.74 192.46 820.189L192.913 821.593C194.535 822.101 196.542 821.654 198.25 821.701C202.884 821.827 207.199 822.833 211.417 824.713L214.688 827.319C216.312 826.225 217.943 825.061 219.801 824.402C226.094 822.17 232.179 823.668 237.997 826.367C245.664 831.787 247.518 837.079 250.032 845.874C250.081 846.043 250.425 847.246 250.427 847.247C250.845 847.471 253.942 847.265 254.58 847.268C257.668 847.829 260.092 848.646 262.752 850.378C270.184 857.774 271.154 865.919 272.429 875.853C267.026 878.865 262.366 882.405 260.682 888.708C259.326 893.784 259.717 898.734 262.58 903.25C263.737 905.075 265.243 907.19 266.961 908.509C267 908.987 267.043 909.45 267.032 909.93L242.141 909.879L211.212 909.914L136.358 909.779L111.889 909.743C106.862 909.732 100.783 910.412 95.9957 908.849Z"/>
	<path fill="#02785B" transform="scale(0.488281 0.488281)" d="M214.688 827.319C216.312 826.225 217.943 825.061 219.801 824.402C226.094 822.17 232.179 823.668 237.997 826.367C245.664 831.787 247.518 837.079 250.032 845.874C250.081 846.043 250.425 847.246 250.427 847.247C250.845 847.471 253.942 847.265 254.58 847.268C257.668 847.829 260.092 848.646 262.752 850.378C270.184 857.774 271.154 865.919 272.429 875.853C267.026 878.865 262.366 882.405 260.682 888.708C259.326 893.784 259.717 898.734 262.58 903.25C263.737 905.075 265.243 907.19 266.961 908.509C267 908.987 267.043 909.45 267.032 909.93L242.141 909.879L211.212 909.914C211.571 906.556 213.822 903.036 215.006 899.829C223.38 877.141 225.022 849.728 214.688 827.319Z"/>
	<path fill="#03644D" transform="scale(0.488281 0.488281)" d="M254.58 847.268C257.668 847.829 260.092 848.646 262.752 850.378C270.184 857.774 271.154 865.919 272.429 875.853C267.026 878.865 262.366 882.405 260.682 888.708C259.326 893.784 259.717 898.734 262.58 903.25C263.737 905.075 265.243 907.19 266.961 908.509C267 908.987 267.043 909.45 267.032 909.93L242.141 909.879C238.08 908.89 232.192 909.617 227.884 909.501C230.434 905.912 233.373 902.648 235.856 898.983C243.863 887.167 250.241 873.535 253.082 859.5L254.58 847.268Z"/>
	<path fill="#035A2D" transform="scale(0.488281 0.488281)" d="M790.388 705.932C790.206 703.904 789.912 702.107 789.49 700.131L789.357 699.012C799.359 707.503 809.274 714.349 821.583 719.175C822.8 719.652 832.581 722.764 832.86 723.263C834.837 726.794 836.968 730.415 838.157 734.306C841.233 744.374 839.358 757.026 836.477 767.016C835.152 771.611 832.997 776.041 832.681 780.861L832.916 781.372C835.06 786.205 835.134 790.935 835.131 796.15C839.018 792.273 842.769 789.454 848.505 789.411C852.978 789.378 857.116 791.151 860.335 794.257C862.448 796.296 863.997 798.98 865.467 801.501L865.609 815.974C860.712 818.688 857.214 821.155 854.291 826.07C850.43 821.823 847.118 819.52 841.5 817.883L840.657 817.629C833.159 815.511 823.615 817.135 816.9 820.983C810.142 824.857 804.942 831.957 803.036 839.5L801.702 845.796C796.196 844.077 791.159 843.176 785.5 844.86L784.703 845.091C779.035 846.81 774.441 850.997 771.764 856.232C769.529 860.603 768.853 864.923 768.889 869.766L764.827 871.493C762.579 866.604 760.393 863.097 756.019 859.741C750.327 855.568 744.105 853.555 736.988 854.615C730.927 855.518 725.017 859.076 721.418 864.04C718.411 868.188 717.192 873.204 716.147 878.122L715.459 877.978C712.456 877.384 709.63 877.355 706.59 877.723L706.894 813.765L707.083 758.232L707.373 757.786L710.385 755.25C716.46 750.779 726.632 749.712 733.961 750.935L734.087 739.864C740.363 734.722 743.277 725.858 745.434 718.3L747.5 719.048L748.823 723.382C749.964 726.269 751.539 728.445 753.401 730.895C756.972 733.767 759.808 735.599 764.242 737.033L765.488 737.474C765.663 737.07 765.707 736.578 766.014 736.263C766.227 736.045 768.398 735.62 768.75 735.533C775.821 733.797 782.513 732.745 786.982 726.347C791.449 719.952 791.692 713.373 790.388 705.932Z"/>
	<path fill="#8F494D" transform="scale(0.488281 0.488281)" d="M745.434 718.3L747.5 719.048L748.823 723.382C749.964 726.269 751.539 728.445 753.401 730.895C756.972 733.767 759.808 735.599 764.242 737.033L765.488 737.474C767.74 741.907 767.13 749.375 767.251 754.41C761.503 755.814 758.365 758.22 753.568 761.261L750.43 766.013C750.171 767.08 749.981 767.652 749.25 768.481C745.465 761.556 741.885 753.743 733.961 750.935L734.087 739.864C740.363 734.722 743.277 725.858 745.434 718.3Z"/>
	<path fill="#954220" transform="scale(0.488281 0.488281)" d="M748.823 723.382C749.964 726.269 751.539 728.445 753.401 730.895L753.568 761.261L750.43 766.013C749.873 762.472 750.106 758.545 750.029 754.939C749.811 744.648 750.4 733.529 748.823 723.382Z"/>
	<path fill="#03644D" transform="scale(0.488281 0.488281)" d="M753.401 730.895C756.972 733.767 759.808 735.599 764.242 737.033L765.488 737.474C767.74 741.907 767.13 749.375 767.251 754.41C761.503 755.814 758.365 758.22 753.568 761.261L753.401 730.895Z"/>
	<path fill="#4B992F" transform="scale(0.488281 0.488281)" d="M790.388 705.932C790.206 703.904 789.912 702.107 789.49 700.131L789.357 699.012C799.359 707.503 809.274 714.349 821.583 719.175C822.8 719.652 832.581 722.764 832.86 723.263C834.837 726.794 836.968 730.415 838.157 734.306C841.233 744.374 839.358 757.026 836.477 767.016C835.152 771.611 832.997 776.041 832.681 780.861C831.64 780.244 830.555 778.695 829.695 777.785C825.545 773.396 820.926 770.221 814.885 769.076C808.402 767.847 802.063 769.272 796.63 773.02L796.113 773.383C793.548 767.551 791.84 761.962 786.58 757.87C781.094 753.603 773.82 753.531 767.251 754.41C767.13 749.375 767.74 741.907 765.488 737.474C765.663 737.07 765.707 736.578 766.014 736.263C766.227 736.045 768.398 735.62 768.75 735.533C775.821 733.797 782.513 732.745 786.982 726.347C791.449 719.952 791.692 713.373 790.388 705.932Z"/>
	<path fill="#8FBD39" transform="scale(0.488281 0.488281)" d="M171.393 308.031C181.148 306.395 190.621 311.379 198.343 316.928C213.741 327.994 226.518 343.809 236.984 359.5C238.619 361.951 248.696 380.125 249.194 380.454C261.001 404.849 268.883 429.091 271.109 456.269L242.992 481.858L221.433 501.189C220.169 502.267 217.602 505.041 216.184 505.565C223.985 511.454 231.889 519.69 238.228 527.194C239.217 525.626 241.249 524.041 242.579 522.695C246.531 518.696 251.353 512.763 256.162 509.991C257.575 509.177 258.113 509.536 259.575 509.869L260.907 508.87L260.545 507.932L261.961 507.41C265.486 505.986 269.496 506.182 273.277 506.031L302.676 505.936L302.834 547.58L302.878 576.191L302.816 580.76L303.005 596.93L303.037 678.885C303.024 681.313 303.28 684.07 302.886 686.45C303.767 692.508 303.378 698.981 303.4 705.11L303.406 733.49C303.387 741.137 303.946 801.796 302.475 803.689C299.694 805.549 296.835 806.804 293.916 808.398L294.321 808.823L301.303 817.235C303.669 821.176 305.853 825.203 307.626 829.45C308.213 830.855 309.034 832.467 309.153 833.984C310.572 837.723 312.518 841.518 313.011 845.503L311.887 845.245C308.035 839.968 304.119 835.693 298.547 832.257C292.33 829.84 285.439 828.718 279.057 831.382C272.313 834.197 266.343 839.996 263.723 846.849C263.273 848.026 262.906 849.126 262.752 850.378C260.092 848.646 257.668 847.829 254.58 847.268C253.942 847.265 250.845 847.471 250.427 847.247C250.425 847.246 250.081 846.043 250.032 845.874C247.518 837.079 245.664 831.787 237.997 826.367C232.179 823.668 226.094 822.17 219.801 824.402C217.943 825.061 216.312 826.225 214.688 827.319L211.417 824.713C207.199 822.833 202.884 821.827 198.25 821.701C196.542 821.654 194.535 822.101 192.913 821.593L192.46 820.189C187.887 815.74 184.018 811.415 178.947 807.407C175.89 805.795 172.77 804.498 169.4 803.712L170.948 723.693L172.995 673.671C164.315 670.897 158.159 667.062 151.098 661.426C146.053 656.612 140.896 651.15 137.586 644.965C137.554 644.553 134.687 641.315 134.256 640.729C131.665 637.205 129.369 633.376 127.454 629.442C121.587 617.385 119.298 604.725 118.409 591.476C106.418 600.053 92.4541 606.645 78.0339 609.905C71.3319 611.42 65.0428 612.365 58.1778 611.25C49.8602 609.899 44.4288 604.522 39.232 598.384C37.5957 590.678 37.3773 582.571 37.3876 574.715C37.4323 540.674 48.0223 504.806 68.0733 477.11C71.1298 472.888 74.7774 468.776 78.6179 465.254C80.739 463.309 83.0253 461.549 85.3028 459.792C85.571 459.586 87.0828 458.594 87.2158 458.323C87.6341 457.472 86.1129 450.624 86.008 449.133C85.537 442.44 86.2288 434.98 87.5132 428.391C89.2179 419.645 92.7244 411.69 96.2609 403.567C103.173 387.691 111.149 372.653 120.276 357.933C125.645 349.274 131.665 341.117 138.179 333.285C147.104 322.553 157.294 311.343 171.393 308.031Z"/>
	<path fill="#593B0F" transform="scale(0.488281 0.488281)" d="M178.475 525.21L180.706 493.829L180.851 494.066L183.026 518.66L182.806 518.194C181.659 515.708 181.948 513.489 181.672 510.841C181.584 513.54 182.285 517.19 180.745 519.5C180.745 520.563 180.876 520.554 180.245 521.5C180.292 524.004 180.78 527.048 179.505 529.247L179.36 529.578C179.229 528.068 178.855 526.67 178.475 525.21Z"/>
	<path fill="#BBD53E" transform="scale(0.488281 0.488281)" d="M243.318 559L233.75 558.418C225.75 557.11 218.468 551.585 213.891 545.036C209.18 538.295 206.75 529.819 208.321 521.635C209.551 515.224 211.424 510.189 216.184 505.565C223.985 511.454 231.889 519.69 238.228 527.194C239.217 525.626 241.249 524.041 242.579 522.695C246.531 518.696 251.353 512.763 256.162 509.991C257.575 509.177 258.113 509.536 259.575 509.869L260.907 508.87C265.8 517.809 267.784 525.903 265.151 536L264.965 536.737C263.091 543.91 258.937 548.053 254.934 553.876C251.417 556.132 247.405 558.018 243.318 559Z"/>
	<path fill="#8FBD39" transform="scale(0.488281 0.488281)" d="M244.037 534.459L244.221 534.174C247.022 531.094 247.151 528.097 249.013 524.5C251.579 519.541 255.574 514.342 259.473 510.364C259.226 512.966 258.52 515.373 257.971 517.91C256.994 522.429 256.596 527.411 252.75 530.449C251.907 531.115 250.946 531.589 250 532.083L249.25 532.481C247.734 533.273 245.766 534.32 244.037 534.459Z"/>
	<path fill="#427416" transform="scale(0.488281 0.488281)" d="M238.228 527.194C239.217 525.626 241.249 524.041 242.579 522.695C246.531 518.696 251.353 512.763 256.162 509.991C257.575 509.177 258.113 509.536 259.575 509.869L259.473 510.364C255.574 514.342 251.579 519.541 249.013 524.5C247.151 528.097 247.022 531.094 244.221 534.174L244.037 534.459L242.849 534.358C240.762 533.024 239.391 529.388 238.228 527.194Z"/>
	<path fill="#BBD53E" transform="scale(0.488281 0.488281)" d="M90.2562 483.196C95.733 482.783 102.457 484.526 107.051 487.558C113.1 491.551 117.759 498.797 119.152 505.906C120.609 513.336 118.828 521.004 114.645 527.265C109.779 534.55 103.269 537.318 94.9634 539.016C90.5532 539.235 86.5002 538.998 82.2314 537.746C75.6991 535.83 70.1496 530.982 67.0104 524.985C63.9365 519.112 62.6777 510.195 64.676 503.781L64.933 503C66.0799 499.435 67.8307 496.157 70.2015 493.25C75.5247 486.722 82.0921 484.049 90.2562 483.196Z"/>
	<path fill="#4B992F" transform="scale(0.488281 0.488281)" d="M171.393 308.031C181.148 306.395 190.621 311.379 198.343 316.928C213.741 327.994 226.518 343.809 236.984 359.5C238.619 361.951 248.696 380.125 249.194 380.454C261.001 404.849 268.883 429.091 271.109 456.269L242.992 481.858C243.127 455.16 240.763 428.546 232.953 402.884C223.79 372.774 208.449 343.031 186.243 320.479C181.581 315.745 177.309 311.197 171.393 308.031Z"/>
	<path fill="#BBD53E" transform="scale(0.488281 0.488281)" d="M157.498 368.204C168.717 367.326 179.581 371.12 188.241 378.216C196.558 385.031 202.214 396.442 203.158 407.085C204.225 419.101 200.354 430.248 192.533 439.411C184.715 448.57 174.338 452.335 162.623 453.201C153.167 454.203 143.289 451.129 135.5 445.907C131.684 443.35 127.954 439.699 125.371 435.893L124.865 435.127C121.705 430.423 119.185 425.242 118.039 419.662L117.857 418.75L117.191 414.735C116.1 403.381 120.799 391.714 128.037 383.104C135.761 373.917 145.663 369.227 157.498 368.204Z"/>
	<path fill="#4B992F" transform="scale(0.488281 0.488281)" d="M273.277 506.031L302.676 505.936L302.834 547.58L302.878 576.191L302.816 580.76L303.005 596.93L303.037 678.885C303.024 681.313 303.28 684.07 302.886 686.45C303.767 692.508 303.378 698.981 303.4 705.11L303.406 733.49C303.387 741.137 303.946 801.796 302.475 803.689C299.694 805.549 296.835 806.804 293.916 808.398L294.321 808.823L301.303 817.235C303.669 821.176 305.853 825.203 307.626 829.45C308.213 830.855 309.034 832.467 309.153 833.984C310.572 837.723 312.518 841.518 313.011 845.503L311.887 845.245C308.035 839.968 304.119 835.693 298.547 832.257C292.33 829.84 285.439 828.718 279.057 831.382C272.313 834.197 266.343 839.996 263.723 846.849C263.273 848.026 262.906 849.126 262.752 850.378C260.092 848.646 257.668 847.829 254.58 847.268C253.942 847.265 250.845 847.471 250.427 847.247C250.425 847.246 250.081 846.043 250.032 845.874C247.518 837.079 245.664 831.787 237.997 826.367C232.179 823.668 226.094 822.17 219.801 824.402C217.943 825.061 216.312 826.225 214.688 827.319L211.417 824.713C207.199 822.833 202.884 821.827 198.25 821.701C196.542 821.654 194.535 822.101 192.913 821.593L192.46 820.189C187.887 815.74 184.018 811.415 178.947 807.407C175.89 805.795 172.77 804.498 169.4 803.712L170.948 723.693L172.995 673.671C164.315 670.897 158.159 667.062 151.098 661.426C146.053 656.612 140.896 651.15 137.586 644.965C137.554 644.553 134.687 641.315 134.256 640.729C131.665 637.205 129.369 633.376 127.454 629.442C121.587 617.385 119.298 604.725 118.409 591.476C119.768 590.348 121.298 589.576 122.844 588.735C124.356 587.054 127.653 585.545 129.616 584.353C134.643 581.301 139.769 578.32 144.542 574.878C155.097 567.266 163.294 558.511 170.151 547.443C172.307 543.963 174.611 540.504 176.034 536.645C177.39 532.969 177.861 529.06 178.475 525.21C178.855 526.67 179.229 528.068 179.36 529.578L179.505 529.247C180.78 527.048 180.292 524.004 180.245 521.5C180.876 520.554 180.745 520.563 180.745 519.5C182.285 517.19 181.584 513.54 181.672 510.841C181.948 513.489 181.659 515.708 182.806 518.194L183.026 518.66C184.475 526.809 184.389 535.693 184.919 543.975C185.444 552.169 186.517 560.563 186.477 568.76L187.321 569.025C191.495 570.243 196.931 569.899 201.239 569.586C214.847 568.598 231.276 565.692 243.318 559C247.405 558.018 251.417 556.132 254.934 553.876C258.937 548.053 263.091 543.91 264.965 536.737L265.151 536C267.784 525.903 265.8 517.809 260.907 508.87L260.545 507.932L261.961 507.41C265.486 505.986 269.496 506.182 273.277 506.031Z"/>
	<path fill="#703E16" transform="scale(0.488281 0.488281)" d="M268.383 749.595C270.316 743.518 268.45 736.297 271.044 730.226L273.849 790.839L266.699 789.608L268.383 749.595Z"/>
	<path fill="#BBD53E" transform="scale(0.488281 0.488281)" d="M302.886 686.45C303.767 692.508 303.378 698.981 303.4 705.11L303.406 733.49C295.433 732.945 291.355 731.422 285.683 725.529C286.139 723.755 288.702 721.395 289.85 719.863C291.313 717.911 292.487 715.756 293.596 713.59C297.835 705.309 300.69 695.452 302.886 686.45Z"/>
	<path fill="#8FBD39" transform="scale(0.488281 0.488281)" d="M260.545 507.932L261.961 507.41C265.486 505.986 269.496 506.182 273.277 506.031C277.398 511.385 281.306 516.008 283.54 522.55C284.135 524.291 284.867 526.416 284.518 528.287C283.142 535.668 267.149 547.313 261 550.961C259.03 552.13 257.122 553.159 254.934 553.876C258.937 548.053 263.091 543.91 264.965 536.737L265.151 536C267.784 525.903 265.8 517.809 260.907 508.87L260.545 507.932Z"/>
	<path fill="#703E16" transform="scale(0.488281 0.488281)" d="M223.248 625.63C229.418 616.839 233.417 607.875 237.809 598.144C235.696 617.803 226.889 638.174 214.623 653.587C211.342 657.711 207.931 661.771 203.814 665.102C199.729 668.408 195.042 671.759 190.102 673.612L190.166 665.804L190.04 653.024C203.372 649.779 214.944 635.814 223.248 625.63Z"/>
	<path fill="#954220" transform="scale(0.488281 0.488281)" d="M223.248 625.63L223.704 626.75C217.687 636.076 212.216 645.469 204.56 653.629C200.302 658.168 195.132 662.084 190.166 665.804L190.04 653.024C203.372 649.779 214.944 635.814 223.248 625.63Z"/>
	<path fill="#BBD53E" transform="scale(0.488281 0.488281)" d="M267.624 628.004C268.644 631.507 268.157 636.162 268.187 639.825L268.178 668.428C268.126 672.63 267.502 677.617 267.988 681.746L268.002 685.069L267.913 685.539C265.035 701.422 266.867 725.746 251.637 735.827C246.577 739.176 240.597 740.232 234.696 738.89C228.163 737.405 223.792 733.255 219.299 728.638L223.28 718.725L267.624 628.004Z"/>
	<path fill="#4B992F" transform="scale(0.488281 0.488281)" d="M267.988 681.746C268.698 681.464 268.357 681.525 268.998 681.503C270.029 684.582 269.58 689.078 269.758 692.375L271.044 730.226C268.45 736.297 270.316 743.518 268.383 749.595L266.699 789.608C257.852 789.331 251.152 790.727 243.086 794.265C237.917 790.144 233.117 785.918 229.137 780.591C228.35 779.716 227.668 778.838 227.022 777.854C216.659 762.076 215.553 746.823 219.299 728.638C223.792 733.255 228.163 737.405 234.696 738.89C240.597 740.232 246.577 739.176 251.637 735.827C266.867 725.746 265.035 701.422 267.913 685.539L268.002 685.069L267.988 681.746Z"/>
	<path fill="#593B0F" transform="scale(0.488281 0.488281)" d="M267.988 681.746C268.698 681.464 268.357 681.525 268.998 681.503C270.029 684.582 269.58 689.078 269.758 692.375L271.044 730.226C268.45 736.297 270.316 743.518 268.383 749.595L267.125 743.258C267.998 735.024 267.526 726.43 267.823 718.136C268.194 707.803 269.428 697.359 268.81 687.014C268.762 686.218 268.459 685.694 268.002 685.069L267.988 681.746Z"/>
	<path fill="#427416" transform="scale(0.488281 0.488281)" d="M267.125 743.258L268.383 749.595L266.699 789.608C257.852 789.331 251.152 790.727 243.086 794.265C237.917 790.144 233.117 785.918 229.137 780.591C231.284 780.165 233.259 781.466 235.305 782.024C241.668 783.758 249.111 783.687 254.847 780.041C266.186 772.833 264.375 755.229 266.99 743.826L267.125 743.258Z"/>
	<path fill="#A8DFD5" transform="scale(0.488281 0.488281)" d="M192.067 723.64C194.605 723.641 197.376 723.082 199.902 722.77L223.28 718.725L219.299 728.638C215.553 746.823 216.659 762.076 227.022 777.854C227.668 778.838 228.35 779.716 229.137 780.591C233.117 785.918 237.917 790.144 243.086 794.265L233.972 797.954C224.313 802.362 216.898 808.262 213.192 818.471L211.417 824.713C207.199 822.833 202.884 821.827 198.25 821.701C196.542 821.654 194.535 822.101 192.913 821.593L192.46 820.189L192.067 723.64Z"/>
	<path fill="#8FBD39" transform="scale(0.488281 0.488281)" d="M243.086 794.265C251.152 790.727 257.852 789.331 266.699 789.608L273.849 790.839C280.255 793.536 286.63 796.835 290.533 802.859C291.494 804.343 292.639 807.282 293.916 808.398L294.321 808.823L301.303 817.235C303.669 821.176 305.853 825.203 307.626 829.45C308.213 830.855 309.034 832.467 309.153 833.984C310.572 837.723 312.518 841.518 313.011 845.503L311.887 845.245C308.035 839.968 304.119 835.693 298.547 832.257C292.33 829.84 285.439 828.718 279.057 831.382C272.313 834.197 266.343 839.996 263.723 846.849C263.273 848.026 262.906 849.126 262.752 850.378C260.092 848.646 257.668 847.829 254.58 847.268C253.942 847.265 250.845 847.471 250.427 847.247C250.425 847.246 250.081 846.043 250.032 845.874C247.518 837.079 245.664 831.787 237.997 826.367C232.179 823.668 226.094 822.17 219.801 824.402C217.943 825.061 216.312 826.225 214.688 827.319L211.417 824.713L213.192 818.471C216.898 808.262 224.313 802.362 233.972 797.954L243.086 794.265Z"/>
	<path fill="#BBD53E" transform="scale(0.488281 0.488281)" d="M243.086 794.265C251.152 790.727 257.852 789.331 266.699 789.608L273.849 790.839C280.255 793.536 286.63 796.835 290.533 802.859C291.494 804.343 292.639 807.282 293.916 808.398L294.321 808.823L294.809 812.605L294.394 814.3C292.51 812.943 290.749 811.235 288.71 810.123C282.574 806.777 274.166 805.242 267.291 806.481C263.5 807.165 259.651 808.95 257.002 811.807C256.078 812.803 253.349 817.241 252.333 816.829C249.656 815.742 248.02 815.065 245.25 816.278C241.982 817.708 240.159 820.604 238.958 823.826L237.997 826.367C232.179 823.668 226.094 822.17 219.801 824.402C217.943 825.061 216.312 826.225 214.688 827.319L211.417 824.713L213.192 818.471C216.898 808.262 224.313 802.362 233.972 797.954L243.086 794.265Z"/>
	<path fill="#703E16" transform="scale(0.488281 0.488281)" d="M179.36 529.578L179.505 529.247C180.78 527.048 180.292 524.004 180.245 521.5C180.876 520.554 180.745 520.563 180.745 519.5C182.285 517.19 181.584 513.54 181.672 510.841C181.948 513.489 181.659 515.708 182.806 518.194L183.026 518.66C184.475 526.809 184.389 535.693 184.919 543.975C185.444 552.169 186.517 560.563 186.477 568.76L190.04 653.024L190.166 665.804L190.102 673.612L192.067 723.64L192.46 820.189C187.887 815.74 184.018 811.415 178.947 807.407C175.89 805.795 172.77 804.498 169.4 803.712L170.948 723.693L172.995 673.671C164.315 670.897 158.159 667.062 151.098 661.426C146.053 656.612 140.896 651.15 137.586 644.965C137.554 644.553 134.687 641.315 134.256 640.729C131.665 637.205 129.369 633.376 127.454 629.442C121.587 617.385 119.298 604.725 118.409 591.476C119.768 590.348 121.298 589.576 122.844 588.735C124.356 587.054 127.653 585.545 129.616 584.353C134.643 581.301 139.769 578.32 144.542 574.878C155.097 567.266 163.294 558.511 170.151 547.443C172.307 543.963 174.611 540.504 176.034 536.645C177.39 532.969 177.861 529.06 178.475 525.21C178.855 526.67 179.229 528.068 179.36 529.578Z"/>
	<defs>
		<linearGradient id="gradient_2" gradientUnits="userSpaceOnUse" x1="186.41217" y1="672.53448" x2="153.49297" y2="670.37885">
			<stop offset="0" stop-color="#955920"/>
			<stop offset="1" stop-color="#A05837"/>
		</linearGradient>
	</defs>
	<path fill="url(#gradient_2)" transform="scale(0.488281 0.488281)" d="M172.961 653.675C173.434 653.128 173.751 652.473 173.845 651.75C174.671 645.43 173.92 638.279 174.227 631.828L176.34 572.102C176.846 558.248 177.185 543.762 179.382 530.072C179.406 531.461 179.309 533.032 179.667 534.375C180.726 538.355 179.911 544.994 179.923 549.221L179.98 589.766L179.761 697.625L178.947 807.407C175.89 805.795 172.77 804.498 169.4 803.712L170.948 723.693L172.995 673.671C164.315 670.897 158.159 667.062 151.098 661.426C146.053 656.612 140.896 651.15 137.586 644.965L153.768 657.342L153.445 655C155.135 653.561 158.711 653.276 160.886 652.75C163.142 654.946 167.574 654.466 170.527 654.429L172.435 654.395L172.961 653.675Z"/>
	<path fill="#703E16" transform="scale(0.488281 0.488281)" d="M137.586 644.965L153.768 657.342L154.46 657.897C158.495 661.098 163.49 663.524 168.061 665.863C168.886 666.286 172.438 667.667 172.91 668.25C173.03 668.399 173.004 668.621 173.033 668.81C173.275 670.372 173.075 672.09 172.995 673.671C164.315 670.897 158.159 667.062 151.098 661.426C146.053 656.612 140.896 651.15 137.586 644.965Z"/>
	<path fill="#68AE2D" transform="scale(0.488281 0.488281)" d="M122.844 588.735C124.356 587.054 127.653 585.545 129.616 584.353C134.643 581.301 139.769 578.32 144.542 574.878C155.097 567.266 163.294 558.511 170.151 547.443C172.307 543.963 174.611 540.504 176.034 536.645C177.39 532.969 177.861 529.06 178.475 525.21C178.855 526.67 179.229 528.068 179.36 529.578L179.382 530.072C177.185 543.762 176.846 558.248 176.34 572.102L174.227 631.828C173.92 638.279 174.671 645.43 173.845 651.75C173.751 652.473 173.434 653.128 172.961 653.675L172.435 654.395L170.527 654.429C167.574 654.466 163.142 654.946 160.886 652.75C158.711 653.276 155.135 653.561 153.445 655L153.768 657.342L137.586 644.965C137.554 644.553 134.687 641.315 134.256 640.729C131.665 637.205 129.369 633.376 127.454 629.442C121.587 617.385 119.298 604.725 118.409 591.476C119.768 590.348 121.298 589.576 122.844 588.735Z"/>
	<path fill="#703E16" transform="scale(0.488281 0.488281)" d="M122.946 589.515C132.153 614.822 147.942 640.259 172.361 653.402L172.961 653.675L172.435 654.395L170.527 654.429C167.574 654.466 163.142 654.946 160.886 652.75L150.786 644.582C138.641 633.182 130.369 617.25 125.566 601.454C124.391 597.59 123.062 593.582 122.946 589.515Z"/>
	<path fill="#C6684B" transform="scale(0.488281 0.488281)" d="M122.844 588.735L122.946 589.515C123.062 593.582 124.391 597.59 125.566 601.454C130.369 617.25 138.641 633.182 150.786 644.582L160.886 652.75C158.711 653.276 155.135 653.561 153.445 655L153.768 657.342L137.586 644.965C137.554 644.553 134.687 641.315 134.256 640.729C131.665 637.205 129.369 633.376 127.454 629.442C121.587 617.385 119.298 604.725 118.409 591.476C119.768 590.348 121.298 589.576 122.844 588.735Z"/>
	<defs>
		<linearGradient id="gradient_3" gradientUnits="userSpaceOnUse" x1="750.7132" y1="520.79553" x2="258.31253" y2="371.78683">
			<stop offset="0" stop-color="#592838"/>
			<stop offset="1" stop-color="#824B51"/>
		</linearGradient>
	</defs>
	<path fill="url(#gradient_3)" transform="scale(0.488281 0.488281)" d="M271.109 456.269L475.872 276.778L642.371 423.48L643.493 424.56L645.943 426.209L655.997 434.977L658.156 436.48L667.895 445.512C668.43 445.841 668.902 446.308 669.5 446.498C670.919 446.948 672.067 445.785 673.338 447C673.467 449.741 673.244 450.451 675.158 452.57C676.002 453.234 677.21 454.448 678.149 454.89L680.344 456.526C682.836 459.457 685.764 461.954 688.656 464.48L691.047 466.72L699.019 474.107L706.15 480.261L752.427 521.492L751.526 522.698L741.288 528.929C738.974 530.459 734.629 534.325 731.919 534.444L706.879 534.258L706.767 545.554L707.159 576.809L707.891 579.544L708.22 581.902C709.088 585.84 709.515 590.809 708.75 594.767L707.494 595.976C704.229 594.968 642.636 595.013 639.425 596.165L624.052 582.091C622.018 580.549 620.261 578.503 618.475 576.679L574.391 537.225L551.716 517.087L523.72 543.764C521.327 545.997 517.847 550.179 514.968 551.551L514.887 540.246C514.771 542.097 515.121 551.223 514.761 551.978C513.939 553.701 509.457 557.2 507.976 558.713L491.252 574.321L490.695 574.278L477.723 574.158L474.5 574.159C472.356 574.457 470.472 574.37 468.324 574.138L433.79 574.133C431.352 574.389 429.35 574.35 426.937 573.905L426.134 573.961C422.763 574.432 418.918 574.135 415.5 574.133L395.536 574.073L376.56 574.086C373.019 574.08 369.193 574.374 365.724 573.633C362.041 573.646 357.85 574.04 354.257 573.307C352.426 573.3 351.698 573.721 350 574.143L348.625 574.146L347.244 574.593L346.75 575.964L302.878 576.191L302.834 547.58L302.676 505.936L273.277 506.031C269.496 506.182 265.486 505.986 261.961 507.41L260.545 507.932L260.907 508.87L259.575 509.869C258.113 509.536 257.575 509.177 256.162 509.991C251.353 512.763 246.531 518.696 242.579 522.695C241.249 524.041 239.217 525.626 238.228 527.194C231.889 519.69 223.985 511.454 216.184 505.565C217.602 505.041 220.169 502.267 221.433 501.189L242.992 481.858L271.109 456.269Z"/>
	<path fill="#3D2134" transform="scale(0.488281 0.488281)" d="M706.947 511.461L724.761 527.992C727.087 530.157 729.844 532.056 731.919 534.444L706.879 534.258L706.947 511.461Z"/>
	<path fill="#3D2134" transform="scale(0.488281 0.488281)" d="M260.545 507.932L257.976 508.66C257.039 508.969 257.509 508.974 256.65 508.75L302.513 466.425L302.515 492.366C302.523 496.788 302.222 501.554 302.676 505.936L273.277 506.031C269.496 506.182 265.486 505.986 261.961 507.41L260.545 507.932Z"/>
	<path fill="#CC8D46" transform="scale(0.488281 0.488281)" d="M479.583 315.862L527.267 356.46L614.53 431.431L692.098 498.507L703.043 508.155C704.131 509.104 705.681 510.899 706.947 511.461L706.879 534.258L706.767 545.554L677.989 520.456L646.25 493.583L580.486 437.772L517.916 384.473L491.567 362.128C487.703 358.917 484.024 355.29 479.873 352.466L479.529 351.085L479.583 315.862Z"/>
	<path fill="#EFAE53" transform="scale(0.488281 0.488281)" d="M302.513 466.425C303.126 466.282 461.954 325.191 476.327 312.59L479.583 315.862L479.529 351.085L479.873 352.466L479.946 451.061L366.687 451.103L366.308 451.113C365.696 453.792 363.132 455.032 361.828 457.404L361.549 457.468L354.504 464.083L354.323 464.324C351.548 465.604 349.807 468.012 347.477 469.89L347.409 470.262C342.372 473.332 337.905 477.611 333.374 481.369L302.899 507.01L302.834 547.58L302.676 505.936C302.222 501.554 302.523 496.788 302.515 492.366L302.513 466.425Z"/>
	<path fill="#3D2134" transform="scale(0.488281 0.488281)" d="M347.477 469.89L347.266 451.055L366.308 451.113C365.696 453.792 363.132 455.032 361.828 457.404L361.549 457.468L354.504 464.083L354.323 464.324C351.548 465.604 349.807 468.012 347.477 469.89Z"/>
	<path fill="#028B72" transform="scale(0.488281 0.488281)" d="M354.504 464.083L354.647 457.516L361.549 457.468L354.504 464.083Z"/>
	<path fill="#FED97B" transform="scale(0.488281 0.488281)" d="M479.529 351.085L479.873 352.466L479.946 451.061L366.687 451.103C375.374 441.487 385.893 433.17 395.704 424.705L427.884 396.236L462.176 365.941C467.839 360.944 473.244 355.276 479.529 351.085Z"/>
	<path fill="#EFAE53" transform="scale(0.488281 0.488281)" d="M479.873 352.466C484.024 355.29 487.703 358.917 491.567 362.128L517.916 384.473L580.486 437.772L646.25 493.583L677.989 520.456L706.767 545.554L707.159 576.809L707.891 579.544L708.22 581.902C709.088 585.84 709.515 590.809 708.75 594.767L707.494 595.976C704.229 594.968 642.636 595.013 639.425 596.165L624.052 582.091C622.018 580.549 620.261 578.503 618.475 576.679L574.391 537.225L551.716 517.087L523.72 543.764C521.327 545.997 517.847 550.179 514.968 551.551L514.887 540.246L514.976 451.018L479.946 451.061L479.873 352.466Z"/>
	<path fill="#954220" transform="scale(0.488281 0.488281)" d="M707.159 576.809L707.891 579.544L708.22 581.902L649.486 581.95L632.894 581.923C630.034 581.921 626.868 581.669 624.052 582.091C622.018 580.549 620.261 578.503 618.475 576.679L707.159 576.809Z"/>
	<path fill="#C6684B" transform="scale(0.488281 0.488281)" d="M624.052 582.091C626.868 581.669 630.034 581.921 632.894 581.923L649.486 581.95L708.22 581.902C709.088 585.84 709.515 590.809 708.75 594.767L707.494 595.976C704.229 594.968 642.636 595.013 639.425 596.165L624.052 582.091Z"/>
	<path fill="#585566" transform="scale(0.488281 0.488281)" d="M479.946 451.061L514.976 451.018L514.887 540.246C514.771 542.097 515.121 551.223 514.761 551.978C513.939 553.701 509.457 557.2 507.976 558.713L491.252 574.321L490.695 574.278L477.723 574.158L474.5 574.159C472.356 574.457 470.472 574.37 468.324 574.138L433.79 574.133C431.352 574.389 429.35 574.35 426.937 573.905L426.134 573.961C422.763 574.432 418.918 574.135 415.5 574.133L395.536 574.073L376.56 574.086C373.019 574.08 369.193 574.374 365.724 573.633C362.041 573.646 357.85 574.04 354.257 573.307C352.426 573.3 351.698 573.721 350 574.143L348.625 574.146L347.244 574.593L346.75 575.964L302.878 576.191L302.834 547.58L302.899 507.01L333.374 481.369C337.905 477.611 342.372 473.332 347.409 470.262L347.477 469.89C349.807 468.012 351.548 465.604 354.323 464.324L354.504 464.083L361.549 457.468L361.828 457.404C363.132 455.032 365.696 453.792 366.308 451.113L366.687 451.103L479.946 451.061Z"/>
	<path fill="#6FC7BA" transform="scale(0.488281 0.488281)" d="M394.428 532.05C397.197 531.298 399.731 528.448 401.861 526.526L418.833 509.977C421.663 507.064 424.315 503.574 427.55 501.142L427.495 532.502L404.591 532.5C401.472 532.494 397.308 533.064 394.428 532.05Z"/>
	<path fill="#6FC7BA" transform="scale(0.488281 0.488281)" d="M468.018 457.455C469.062 460.332 468.441 464.86 468.429 467.935L468.256 491.388L435.721 491.332L438.92 490.811C442.627 487.156 445.87 483.043 449.39 479.203L463.597 463.619C465.296 461.648 467.395 459.99 468.018 457.455Z"/>
	<path fill="#A8DFD5" transform="scale(0.488281 0.488281)" d="M394.428 532.05C393.466 529.329 394.124 524.279 394.133 521.324L394.161 497.462C398.336 497.461 425.891 496.767 427.444 498L427.55 501.142C424.315 503.574 421.663 507.064 418.833 509.977L401.861 526.526C399.731 528.448 397.197 531.298 394.428 532.05Z"/>
	<path fill="#A8DFD5" transform="scale(0.488281 0.488281)" d="M435.721 491.332C434.546 491.36 434.724 491.531 433.691 490.75L433.651 457.444L468.018 457.455C467.395 459.99 465.296 461.648 463.597 463.619L449.39 479.203C445.87 483.043 442.627 487.156 438.92 490.811L435.721 491.332Z"/>
	<path fill="#6FC7BA" transform="scale(0.488281 0.488281)" d="M474.5 574.159L474.464 538.826L507.964 538.698L507.976 558.713L491.252 574.321L490.695 574.278L477.723 574.158L474.5 574.159Z"/>
	<path fill="#A8DFD5" transform="scale(0.488281 0.488281)" d="M394.547 457.486L427.328 457.444C428.181 459.107 427.623 463.202 427.622 465.278L427.608 491.186L394.507 491.175L394.547 457.486Z"/>
	<path fill="#A8DFD5" transform="scale(0.488281 0.488281)" d="M361.828 457.404L388.078 457.473L388.024 491.282L354.154 491.331L354.323 464.324L354.504 464.083L361.549 457.468L361.828 457.404Z"/>
	<path fill="#6FC7BA" transform="scale(0.488281 0.488281)" d="M474.769 457.586L507.949 457.521L507.803 491.375L474.983 491.393C474.134 488.73 474.704 484.532 474.709 481.618L474.769 457.586Z"/>
	<path fill="#6FC7BA" transform="scale(0.488281 0.488281)" d="M426.134 573.961L425.595 573.908L394.262 573.616L394.124 538.947L427.45 538.871C427.459 543.785 428.309 571.53 426.937 573.905L426.134 573.961Z"/>
	<path fill="#6FC7BA" transform="scale(0.488281 0.488281)" d="M474.865 497.712L507.97 497.562L507.828 532.466L475.048 532.45C473.928 530.011 474.82 502.562 474.865 497.712Z"/>
	<path fill="#6FC7BA" transform="scale(0.488281 0.488281)" d="M354.512 539.013C356.42 538.009 361.183 538.585 363.426 538.583L387.418 538.694C388.907 541.178 388.049 568.577 388.048 573.642L365.724 573.633C362.041 573.646 357.85 574.04 354.257 573.307L354.127 550.1C354.123 546.682 353.569 542.296 354.512 539.013Z"/>
	<path fill="#A8DFD5" transform="scale(0.488281 0.488281)" d="M354.512 539.013C356.42 538.009 361.183 538.585 363.426 538.583L387.418 538.694C387.374 540.721 385.009 542.453 383.562 543.837C374.432 552.572 364.959 562.768 354.604 569.992L354.512 539.013Z"/>
	<path fill="#6FC7BA" transform="scale(0.488281 0.488281)" d="M457.793 497.757L468.195 497.673L468.178 532.445L444.75 532.408L433.911 532.33L433.876 506.428C433.874 504.163 433.27 499.662 434.167 497.839L457.793 497.757Z"/>
	<path fill="#A8DFD5" transform="scale(0.488281 0.488281)" d="M354.189 497.437L388.352 497.422L388.329 532.504L354.226 532.439L354.189 497.437Z"/>
	<path fill="#6FC7BA" transform="scale(0.488281 0.488281)" d="M433.79 574.133L433.784 538.866L468.356 538.8L468.324 574.138L433.79 574.133Z"/>
	<path fill="#FED97B" transform="scale(0.488281 0.488281)" d="M302.834 547.58L302.899 507.01L333.374 481.369C337.905 477.611 342.372 473.332 347.409 470.262L347.244 574.593L346.75 575.964L302.878 576.191L302.834 547.58Z"/>
	<path fill="#EFAE53" transform="scale(0.488281 0.488281)" d="M514.887 540.246L514.968 551.551C517.847 550.179 521.327 545.997 523.72 543.764L551.716 517.087L574.391 537.225L618.475 576.679C620.261 578.503 622.018 580.549 624.052 582.091L639.425 596.165C642.636 595.013 704.229 594.968 707.494 595.976L707.541 681.029L707.537 695.472L707.083 758.232L706.894 813.765L706.59 877.723C699.527 879.435 693.782 882.677 690.005 889.086C687.059 894.086 686.102 899.878 687.599 905.5L688.994 910.001L647.502 910.129L647.591 891.351L629.557 891.165L629.577 871.472L620.042 871.609C618.438 871.552 617.168 871.906 616.002 870.75L616.007 858.173L616.024 847.891L602.682 847.87L490.271 847.664L482.377 847.699L482.452 867.376L482.536 872.54L467.891 872.497L467.846 888.869L467.563 890.75C463.166 891.996 455.695 891.118 450.969 891.108L450.963 909.9C440.61 909.16 429.836 909.744 419.442 909.821C415.129 909.853 410.607 910.19 406.343 909.608C408.35 905.29 408.661 901.042 407.827 896.391C406.67 889.942 402.413 884.632 397.009 881.131C391.54 877.589 386.779 877.443 380.671 878.84L379.737 878.945C379.477 878.714 379.123 878.557 378.958 878.25C378.61 877.601 378.681 875.057 378.589 874.212C378.044 869.179 376.162 864.257 373.04 860.25C368.902 854.94 363.323 852.591 356.825 851.74C351.456 851.916 346.421 852.975 341.531 855.214L340.924 855.499C338.316 852.347 335.378 849.211 331.743 847.254C326.144 844.241 320.447 843.856 314.369 845.64L313.011 845.503C312.518 841.518 310.572 837.723 309.153 833.984C309.034 832.467 308.213 830.855 307.626 829.45C305.853 825.203 303.669 821.176 301.303 817.235L294.321 808.823L293.916 808.398C296.835 806.804 299.694 805.549 302.475 803.689C303.946 801.796 303.387 741.137 303.406 733.49L303.4 705.11C303.378 698.981 303.767 692.508 302.886 686.45C303.28 684.07 303.024 681.313 303.037 678.885L303.005 596.93L302.816 580.76L302.878 576.191L346.75 575.964L347.244 574.593L348.625 574.146L350 574.143C351.698 573.721 352.426 573.3 354.257 573.307C357.85 574.04 362.041 573.646 365.724 573.633C369.193 574.374 373.019 574.08 376.56 574.086L395.536 574.073L415.5 574.133C418.918 574.135 422.763 574.432 426.134 573.961L426.937 573.905C429.35 574.35 431.352 574.389 433.79 574.133L468.324 574.138C470.472 574.37 472.356 574.457 474.5 574.159L477.723 574.158L490.695 574.278L491.252 574.321L507.976 558.713C509.457 557.2 513.939 553.701 514.761 551.978C515.121 551.223 514.771 542.097 514.887 540.246Z"/>
	<path fill="#954220" transform="scale(0.488281 0.488281)" d="M683.493 791.007C686.169 790.872 688.781 790.392 690.957 792.337C692.804 793.988 692.927 796.249 692.962 798.574C693.011 801.814 693.636 806.416 691.188 808.958C690.729 809.435 689.141 810.846 688.527 810.971C686.914 811.3 684.42 810.976 682.733 810.978L668.405 810.992L613.652 811.019C612.951 811.006 612.54 810.902 611.925 810.574C610.374 807.535 610.924 798.402 611.919 795.072C612.323 793.72 612.972 793.011 614 792.084C617.403 791.099 621.625 791.545 625.179 791.567L683.493 791.007Z"/>
	<path fill="#8F494D" transform="scale(0.488281 0.488281)" d="M602.972 834.88L706.574 834.624L706.894 813.765L706.59 877.723C699.527 879.435 693.782 882.677 690.005 889.086C687.059 894.086 686.102 899.878 687.599 905.5L688.994 910.001L647.502 910.129L647.591 891.351L629.557 891.165L629.577 871.472L620.042 871.609C618.438 871.552 617.168 871.906 616.002 870.75L616.007 858.173L616.024 847.891L602.682 847.87L602.972 834.88Z"/>
	<path fill="#585566" transform="scale(0.488281 0.488281)" d="M625.179 791.567L625.489 682.644L683.239 682.643L683.493 791.007L625.179 791.567Z"/>
	<path fill="#A8DFD5" transform="scale(0.488281 0.488281)" d="M631.79 744.021L651.394 744.027L651.321 787.055L631.876 787.094L631.79 744.021Z"/>
	<path fill="#A8DFD5" transform="scale(0.488281 0.488281)" d="M658.031 744.23L677.675 744.294L677.689 787.13L657.983 787.217L658.031 744.23Z"/>
	<path fill="#A8DFD5" transform="scale(0.488281 0.488281)" d="M631.784 688.5L651.231 688.53L651.058 738.562L631.785 738.543L631.784 688.5Z"/>
	<path fill="#A8DFD5" transform="scale(0.488281 0.488281)" d="M658.028 688.499L677.694 688.507L677.674 738.76L658.058 738.653L658.028 688.499Z"/>
	<path fill="#CC8D46" transform="scale(0.488281 0.488281)" d="M514.887 540.246L514.968 551.551C517.847 550.179 521.327 545.997 523.72 543.764L551.716 517.087L574.391 537.225L618.475 576.679C620.261 578.503 622.018 580.549 624.052 582.091L639.425 596.165L687.955 639.238L676.101 649.793C674.372 651.207 672.208 652.492 670.599 653.973L656.009 666.226L588.386 609.839L564.048 589.511C561.104 587.048 556.789 582.486 553.379 580.982L466.376 660.942C463.725 657.491 460.796 654.324 457.882 651.101C455.666 648.652 453.558 646 450.869 644.05L442.884 651.16L425.943 634.697C431.979 630.164 437.503 624.62 443.033 619.49L467.093 596.632L484.506 580.081C486.737 579.088 488.454 576.544 490.034 574.735C486.17 574.704 481.921 575.014 478.133 574.249L477.723 574.158L490.695 574.278L491.252 574.321L507.976 558.713C509.457 557.2 513.939 553.701 514.761 551.978C515.121 551.223 514.771 542.097 514.887 540.246Z"/>
	<path fill="#653544" transform="scale(0.488281 0.488281)" d="M574.391 537.225L618.475 576.679C620.261 578.503 622.018 580.549 624.052 582.091L639.425 596.165L687.955 639.238L676.101 649.793C674.372 651.207 672.208 652.492 670.599 653.973C667.081 651.725 664.022 648.745 660.813 646.085L638.438 626.956L569.764 565.779L553.497 550.192L574.391 537.225Z"/>
	<path fill="#8F494D" transform="scale(0.488281 0.488281)" d="M514.887 540.246L514.968 551.551C517.847 550.179 521.327 545.997 523.72 543.764L551.716 517.087L574.391 537.225L553.497 550.192C545.617 556.22 538.516 564.101 531.166 570.841L475.426 622.172L456.82 638.818C455.381 640.087 451.645 642.606 450.869 644.05L442.884 651.16L425.943 634.697C431.979 630.164 437.503 624.62 443.033 619.49L467.093 596.632L484.506 580.081C486.737 579.088 488.454 576.544 490.034 574.735C486.17 574.704 481.921 575.014 478.133 574.249L477.723 574.158L490.695 574.278L491.252 574.321L507.976 558.713C509.457 557.2 513.939 553.701 514.761 551.978C515.121 551.223 514.771 542.097 514.887 540.246Z"/>
	<path fill="#145B6C" transform="scale(0.488281 0.488281)" d="M490.056 689.834C489.992 684.733 488.784 655.968 491.059 653.25C498.207 652.641 505.689 653.064 512.873 653.068L554.352 653.103L585.375 653.141C591.119 653.147 597.229 652.702 602.901 653.481L602.972 834.88L602.682 847.87L490.271 847.664L490.429 833.31L490.056 689.834Z"/>
	<path fill="#12A8A4" transform="scale(0.488281 0.488281)" d="M496.004 659.448L597.986 659.47L597.775 842.14L495.465 841.988L496.004 659.448Z"/>
	<path fill="#145B6C" transform="scale(0.488281 0.488281)" d="M573.633 738.25C576.28 737.984 580.648 737.501 582.902 739.059C583.202 739.967 583.381 740.678 583.396 741.645C583.466 746.238 584.138 777.969 582.965 779.75C582.644 780.238 582.155 780.592 581.75 781.013C578.475 781.494 575.313 781.214 572.029 780.982C571.406 772.827 571.864 764.318 571.852 756.126C571.845 750.766 571.07 743.931 572.217 738.75L573.633 738.25Z"/>
	<path fill="#6FC7BA" transform="scale(0.488281 0.488281)" d="M583.872 672.731L590.506 672.642C590.734 694.06 583.771 720.293 569.379 736.633C555.587 752.292 537.167 761.102 516.463 762.491L508.019 762.537L508.017 672.99L583.872 672.731Z"/>
	<path fill="#FED97B" transform="scale(0.488281 0.488281)" d="M354.257 573.307C357.85 574.04 362.041 573.646 365.724 573.633C369.193 574.374 373.019 574.08 376.56 574.086L395.536 574.073L415.5 574.133C418.918 574.135 422.763 574.432 426.134 573.961L426.937 573.905C429.35 574.35 431.352 574.389 433.79 574.133L468.324 574.138C470.472 574.37 472.356 574.457 474.5 574.159L477.723 574.158L478.133 574.249C481.921 575.014 486.17 574.704 490.034 574.735C488.454 576.544 486.737 579.088 484.506 580.081L467.093 596.632L443.033 619.49C437.503 624.62 431.979 630.164 425.943 634.697L442.884 651.16L450.869 644.05C453.558 646 455.666 648.652 457.882 651.101C460.796 654.324 463.725 657.491 466.376 660.942C470.198 666.517 475.041 671.452 479.296 676.704C482.792 681.019 486.02 686.028 490.056 689.834L490.429 833.31L490.271 847.664L482.377 847.699L482.452 867.376L482.536 872.54L467.891 872.497L467.846 888.869L467.563 890.75C463.166 891.996 455.695 891.118 450.969 891.108L450.963 909.9C440.61 909.16 429.836 909.744 419.442 909.821C415.129 909.853 410.607 910.19 406.343 909.608C408.35 905.29 408.661 901.042 407.827 896.391C406.67 889.942 402.413 884.632 397.009 881.131C391.54 877.589 386.779 877.443 380.671 878.84L379.737 878.945C379.477 878.714 379.123 878.557 378.958 878.25C378.61 877.601 378.681 875.057 378.589 874.212C378.044 869.179 376.162 864.257 373.04 860.25C368.902 854.94 363.323 852.591 356.825 851.74C351.456 851.916 346.421 852.975 341.531 855.214L340.924 855.499C338.316 852.347 335.378 849.211 331.743 847.254C326.144 844.241 320.447 843.856 314.369 845.64L313.011 845.503C312.518 841.518 310.572 837.723 309.153 833.984C309.034 832.467 308.213 830.855 307.626 829.45C305.853 825.203 303.669 821.176 301.303 817.235L294.321 808.823L293.916 808.398C296.835 806.804 299.694 805.549 302.475 803.689C303.946 801.796 303.387 741.137 303.406 733.49L303.4 705.11C303.378 698.981 303.767 692.508 302.886 686.45C303.28 684.07 303.024 681.313 303.037 678.885L303.005 596.93L302.816 580.76L302.878 576.191L346.75 575.964L347.244 574.593L348.625 574.146L350 574.143C351.698 573.721 352.426 573.3 354.257 573.307Z"/>
	<path fill="#A8DFD5" transform="scale(0.488281 0.488281)" d="M302.475 803.689C302.253 808.055 302.445 813.019 301.303 817.235L294.321 808.823L293.916 808.398C296.835 806.804 299.694 805.549 302.475 803.689Z"/>
	<path fill="#EFAE53" transform="scale(0.488281 0.488281)" d="M431.857 788.907C435.249 788.581 438.902 787.475 441.825 789.746C444.316 791.682 446.404 794.6 448.394 797.042C451.931 801.382 455.299 805.627 457.937 810.581C457.067 812.585 455.792 815.932 453.58 816.796C451.332 817.673 447.705 817.269 445.284 817.265L428.047 817.21L369.833 817.093L350.687 817.023C348.952 817.005 345.787 817.39 344.174 816.821C342.237 816.137 336.403 810.912 335.601 808.964C339.826 809.333 344.297 809.005 348.558 808.992L372.689 808.944L421.3 809.007L432.546 808.978C433.872 808.963 436.072 809.246 437.25 808.913C437.737 808.775 438.573 808.264 438.989 807.934C440.665 806.608 441.437 804.74 441.522 802.657C441.669 799.066 442.284 793.729 439.583 791.021C437.395 788.828 434.733 788.987 431.857 788.907Z"/>
	<path fill="#653544" transform="scale(0.488281 0.488281)" d="M351.47 789.131L351.407 681.969L428.506 681.999L428.488 789.18C426.473 789.588 424.434 789.574 422.43 789.145L422.507 762.533L422.473 756.758L422.464 726.717L422.445 720.466L422.388 687.325L405.695 687.073C401.415 686.668 397.021 686.73 392.75 687.125C390.781 687.306 389.184 687.19 387.25 686.878C385.323 686.568 382.877 686.854 380.906 686.856L363.887 686.899C362.001 686.906 359.121 686.51 357.418 687.356L356.088 688L356.075 720.97C356.004 722.987 355.795 725.098 355.98 727.106L355.979 746.352C355.976 749.694 356.326 753.438 355.832 756.734C354.889 759.214 355.189 761.334 355.485 763.931L355.625 789.071L351.47 789.131Z"/>
	<path fill="#954220" transform="scale(0.488281 0.488281)" d="M335.601 808.964L335.514 789.004L351.47 789.131L355.625 789.071L376.402 788.988C380.295 789.002 384.423 788.743 388.288 789.132L393.792 789.071L412.259 788.974C415.574 788.987 419.151 788.745 422.43 789.145C424.434 789.574 426.473 789.588 428.488 789.18L431.857 788.907C434.733 788.987 437.395 788.828 439.583 791.021C442.284 793.729 441.669 799.066 441.522 802.657C441.437 804.74 440.665 806.608 438.989 807.934C438.573 808.264 437.737 808.775 437.25 808.913C436.072 809.246 433.872 808.963 432.546 808.978L421.3 809.007L372.689 808.944L348.558 808.992C344.297 809.005 339.826 809.333 335.601 808.964Z"/>
	<path fill="#E6874D" transform="scale(0.488281 0.488281)" d="M354.257 573.307C357.85 574.04 362.041 573.646 365.724 573.633C369.193 574.374 373.019 574.08 376.56 574.086L395.536 574.073L415.5 574.133C418.918 574.135 422.763 574.432 426.134 573.961L426.937 573.905C429.35 574.35 431.352 574.389 433.79 574.133L468.324 574.138C470.472 574.37 472.356 574.457 474.5 574.159L477.723 574.158L478.133 574.249C481.921 575.014 486.17 574.704 490.034 574.735C488.454 576.544 486.737 579.088 484.506 580.081L467.093 596.632C458.556 595.863 449.227 596.657 440.616 596.668L380.452 596.791L328.499 596.758C320.429 596.745 311.335 595.85 303.385 596.948L303.005 596.93L302.816 580.76L302.878 576.191L346.75 575.964L347.244 574.593L348.625 574.146L350 574.143C351.698 573.721 352.426 573.3 354.257 573.307Z"/>
	<defs>
		<linearGradient id="gradient_4" gradientUnits="userSpaceOnUse" x1="394.51013" y1="589.74072" x2="397.32321" y2="564.74054">
			<stop offset="0" stop-color="#944C31"/>
			<stop offset="1" stop-color="#724450"/>
		</linearGradient>
	</defs>
	<path fill="url(#gradient_4)" transform="scale(0.488281 0.488281)" d="M354.257 573.307C357.85 574.04 362.041 573.646 365.724 573.633C369.193 574.374 373.019 574.08 376.56 574.086L395.536 574.073L415.5 574.133C418.918 574.135 422.763 574.432 426.134 573.961L426.937 573.905C429.35 574.35 431.352 574.389 433.79 574.133L468.324 574.138C470.472 574.37 472.356 574.457 474.5 574.159L477.723 574.158L478.133 574.249C481.921 575.014 486.17 574.704 490.034 574.735C488.454 576.544 486.737 579.088 484.506 580.081L302.816 580.76L302.878 576.191L346.75 575.964L347.244 574.593L348.625 574.146L350 574.143C351.698 573.721 352.426 573.3 354.257 573.307Z"/>
	<path fill="#585566" transform="scale(0.488281 0.488281)" d="M357.418 687.356C359.121 686.51 362.001 686.906 363.887 686.899L380.906 686.856C382.877 686.854 385.323 686.568 387.25 686.878C389.184 687.19 390.781 687.306 392.75 687.125C397.021 686.73 401.415 686.668 405.695 687.073L422.388 687.325L422.445 720.466L422.464 726.717L422.473 756.758L422.507 762.533L422.43 789.145C419.151 788.745 415.574 788.987 412.259 788.974L393.792 789.071L388.288 789.132C384.423 788.743 380.295 789.002 376.402 788.988L355.625 789.071L355.485 763.931C355.189 761.334 354.889 759.214 355.832 756.734C356.326 753.438 355.976 749.694 355.979 746.352L355.98 727.106C355.795 725.098 356.004 722.987 356.075 720.97L356.088 688L357.418 687.356Z"/>
	<path fill="#6FC7BA" transform="scale(0.488281 0.488281)" d="M375.921 720.97L376.106 720.447C376.804 718.878 378.691 717.636 379.991 716.559C382.572 714.419 385.421 711.357 388.477 709.994L388.407 720.99L375.921 720.97Z"/>
	<path fill="#A8DFD5" transform="scale(0.488281 0.488281)" d="M393.792 789.071L393.669 762.531L422.507 762.533L422.43 789.145C419.151 788.745 415.574 788.987 412.259 788.974L393.792 789.071Z"/>
	<path fill="#A8DFD5" transform="scale(0.488281 0.488281)" d="M422.473 756.758L394.02 756.597L393.996 726.806L422.464 726.717L422.473 756.758Z"/>
	<path fill="#A8DFD5" transform="scale(0.488281 0.488281)" d="M355.485 763.931L356.25 762.986L388.334 762.819L388.288 789.132C384.423 788.743 380.295 789.002 376.402 788.988L355.625 789.071L355.485 763.931Z"/>
	<path fill="#6FC7BA" transform="scale(0.488281 0.488281)" d="M405.695 687.073L422.388 687.325L422.445 720.466L422.116 720.57C419.69 721.317 416.863 721.026 414.332 721.03C408.45 721.04 402.39 720.703 396.529 721.06L394.345 720.75C393.584 718.208 394.102 714.54 394.133 711.879L394.165 696.04C394.15 693.397 393.722 690.139 394.567 687.617C398.185 687.059 402 687.332 405.655 687.392L405.695 687.073Z"/>
	<path fill="#FEFEFD" transform="scale(0.488281 0.488281)" d="M394.567 687.617C398.185 687.059 402 687.332 405.655 687.392L414.181 687.472C407.882 693.043 401.475 699.057 394.503 703.77L394.567 687.617Z"/>
	<path fill="#FEFEFD" transform="scale(0.488281 0.488281)" d="M396.529 721.06L422.133 700.889L422.116 720.57C419.69 721.317 416.863 721.026 414.332 721.03C408.45 721.04 402.39 720.703 396.529 721.06Z"/>
	<path fill="#A8DFD5" transform="scale(0.488281 0.488281)" d="M356.558 727.028L364.887 727.058L388.3 727.029L388.348 756.836L355.832 756.734C356.326 753.438 355.976 749.694 355.979 746.352L355.98 727.106L356.558 727.028Z"/>
	<path fill="#A8DFD5" transform="scale(0.488281 0.488281)" d="M356.558 727.028L364.887 727.058C364.275 729.386 358.739 732.659 356.726 734.25C355.979 733.014 356.538 728.655 356.558 727.028Z"/>
	<path fill="#A8DFD5" transform="scale(0.488281 0.488281)" d="M357.418 687.356L388.447 687.371L388.477 709.994C385.421 711.357 382.572 714.419 379.991 716.559C378.691 717.636 376.804 718.878 376.106 720.447L375.921 720.97L356.075 720.97L356.088 688L357.418 687.356Z"/>
	<path fill="#C6684B" transform="scale(0.488281 0.488281)" d="M311.977 833.88L490.429 833.31L490.271 847.664L482.377 847.699L482.452 867.376L482.536 872.54L467.891 872.497L467.846 888.869L467.563 890.75C463.166 891.996 455.695 891.118 450.969 891.108L450.963 909.9C440.61 909.16 429.836 909.744 419.442 909.821C415.129 909.853 410.607 910.19 406.343 909.608C408.35 905.29 408.661 901.042 407.827 896.391C406.67 889.942 402.413 884.632 397.009 881.131C391.54 877.589 386.779 877.443 380.671 878.84L379.737 878.945C379.477 878.714 379.123 878.557 378.958 878.25C378.61 877.601 378.681 875.057 378.589 874.212C378.044 869.179 376.162 864.257 373.04 860.25C368.902 854.94 363.323 852.591 356.825 851.74C351.456 851.916 346.421 852.975 341.531 855.214L340.924 855.499C338.316 852.347 335.378 849.211 331.743 847.254C326.144 844.241 320.447 843.856 314.369 845.64L313.011 845.503C312.518 841.518 310.572 837.723 309.153 833.984L311.977 833.88Z"/>
</svg>
