<?xml version="1.0" encoding="utf-8" ?>
<svg xmlns="http://www.w3.org/2000/svg" xmlns:xlink="http://www.w3.org/1999/xlink" width="500" height="500">
	<path fill="#1682BC" transform="scale(0.488281 0.488281)" d="M-0 -0L1024 0L1024 1024L-0 1024L0 -0Z"/>
	<path fill="#33B8E2" transform="scale(0.488281 0.488281)" d="M875.757 856.197C884.208 855.085 895.438 856.127 903.5 858.936C905.267 859.551 907.325 860.469 908.133 862.271C908.577 863.259 908.333 863.293 907.998 864.25C903.284 867.972 896.758 868.594 890.963 869.147C887.838 869.62 884.42 869.554 881.25 869.47C874.914 869.302 863.154 868.317 858.75 863.541C858.552 862.515 858.305 861.98 859.122 861.118C862.491 857.564 871.062 856.719 875.757 856.197Z"/>
	<path fill="#33B8E2" transform="scale(0.488281 0.488281)" d="M919.515 727.227C928.623 727.469 937.717 727.84 946.636 729.847C951.34 730.906 958.315 732.493 960.989 736.75C960.909 738.634 960.978 738.815 959.698 740.139C957.492 742.421 953.972 743.564 950.996 744.425C942.309 746.94 933.39 747.84 924.375 748.065C913.139 748.227 895.947 748.746 886.25 742.318C884.973 741.472 883.679 740.337 883.433 738.75C883.152 736.942 883.751 735.773 885 734.508C886.857 732.628 889.633 731.56 892.103 730.747C900.814 727.883 910.423 727.593 919.515 727.227Z"/>
	<path fill="#33B8E2" transform="scale(0.488281 0.488281)" d="M176.131 912.203C182.76 911.947 189.401 912.377 196 912.993C205.911 913.918 216.355 915.384 224.963 920.662C214.671 930.105 196.147 931.814 182.875 932.143C167.611 932.647 146.738 930.833 133.749 922.291C145.636 913.923 162.068 913.151 176.131 912.203Z"/>
	<path fill="#33B8E2" transform="scale(0.488281 0.488281)" d="M109.885 871.71C120.966 870.613 133.876 871.716 144.75 874.056C150.631 875.322 159.61 877.43 163.014 882.75C163.041 884.026 163.208 884.512 162.38 885.557C157.329 891.925 138.935 894.096 131.124 894.941L119.165 895.278C109.23 895.052 99.4677 893.612 89.9224 890.822C85.1699 889.433 80.6423 887.928 77.1402 884.25C76.9582 882.645 76.7081 882.119 77.7117 880.75C79.0107 878.978 81.8124 877.689 83.7845 876.881C92.0448 873.497 101.062 872.4 109.885 871.71Z"/>
	<path fill="#F8FDFE" transform="scale(0.488281 0.488281)" d="M424.663 132.687L465.494 160.874C461.632 163.277 452.727 161.569 448.201 161.259L428.788 160.089C418.354 159.489 407.934 158.802 397.477 159.063L306.884 158.296C303.174 158.175 294.477 159.113 291.526 157.222L335.25 149.307L395.177 138.208L414.25 134.778C417.705 134.198 421.374 133.903 424.663 132.687Z"/>
	<path fill="#72D5DC" transform="scale(0.488281 0.488281)" d="M511.515 58.9933C514.993 60.3855 518.025 63.5913 520.954 65.9484L537.208 79.0945L604.093 132.242C600.824 133.021 598.121 134.255 595.037 135.523C593.389 135.39 591.692 135.311 590.069 135.684C580.385 137.91 570.744 141.304 561.152 143.964L548 147.527C545.449 148.164 542.286 148.499 540.074 149.954L520.12 87.5L515.557 73.3035C514.414 69.707 513.483 66.1619 511.564 62.8858L511.515 58.9933Z"/>
	<path fill="#B5E8E8" transform="scale(0.488281 0.488281)" d="M428.934 129.814C432.501 126.242 436.747 123.063 440.558 119.731L463.848 99.128L494.25 72.325C499.5 67.6672 504.715 61.9969 510.608 58.1984L511.515 58.9933L511.564 62.8858C513.483 66.1619 514.414 69.707 515.557 73.3035L520.12 87.5L540.074 149.954C537.091 154.268 512.239 189.702 510.726 190.24L509.418 191.087C507.825 189.431 505.236 187.977 503.316 186.671L491.761 178.893L465.494 160.874L424.663 132.687L426.25 131.994C427.383 132.321 426.852 132.368 427.848 131.955L427.676 131.031L428.934 129.814Z"/>
	<path fill="#76E9FA" transform="scale(0.488281 0.488281)" d="M427.848 131.955L427.676 131.031L428.934 129.814C447.972 130.599 465.809 135.596 484.274 139.83L500.75 143.775C503.213 144.375 506.078 144.737 508.444 145.55L506.853 187.405L510.726 190.24L509.418 191.087C507.825 189.431 505.236 187.977 503.316 186.671L491.761 178.893L465.494 160.874L424.663 132.687L426.25 131.994C427.383 132.321 426.852 132.368 427.848 131.955Z"/>
	<path fill="#33B8E2" transform="scale(0.488281 0.488281)" d="M424.663 132.687L426.25 131.994C427.383 132.321 426.852 132.368 427.848 131.955C431.776 133.99 435.434 136.758 439.098 139.238L459.757 153.709L506.853 187.405L510.726 190.24L509.418 191.087C507.825 189.431 505.236 187.977 503.316 186.671L491.761 178.893L465.494 160.874L424.663 132.687Z"/>
	<path fill="#4EF3E9" transform="scale(0.488281 0.488281)" d="M511.564 62.8858C513.483 66.1619 514.414 69.707 515.557 73.3035L520.12 87.5L540.074 149.954C537.091 154.268 512.239 189.702 510.726 190.24L506.853 187.405L508.444 145.55L511.564 62.8858Z"/>
	<path fill="#18C7D2" transform="scale(0.488281 0.488281)" d="M264.84 162.55C266.743 160.97 270.586 160.907 273 160.509L291.526 157.222C294.477 159.113 303.174 158.175 306.884 158.296L397.477 159.063C399.167 159.224 409.112 159.22 409.838 159.955L408.028 161.614L407.982 161.601C396.667 168.498 385.831 177.395 375.204 185.354L323.331 224.553C316.593 229.774 309.944 235.909 302.955 240.698L295.936 243.919C293.102 245.426 289.445 246.422 286.394 247.49C285.451 247.82 283.9 248.586 282.946 248.681C282.147 248.761 280.428 248.178 279.619 248.015L271.6 246.469L220.977 237.493C215.687 237.54 208.971 235.267 203.678 234.198L206.485 231.396L264.84 162.55Z"/>
	<path fill="#76E9FA" transform="scale(0.488281 0.488281)" d="M264.84 162.55C266.743 160.97 270.586 160.907 273 160.509L291.526 157.222C294.477 159.113 303.174 158.175 306.884 158.296L397.477 159.063C399.167 159.224 409.112 159.22 409.838 159.955L408.028 161.614L407.982 161.601C402.75 161.631 396.194 164.283 391.089 165.587L367.708 171.169L317.083 182.525L300.125 186.088C296.877 186.76 293.556 187.159 290.496 188.484C290.148 186.547 286.023 183.233 284.517 181.737L264.84 162.55Z"/>
	<path fill="#72D5DC" transform="scale(0.488281 0.488281)" d="M264.84 162.55L284.517 181.737C286.023 183.233 290.148 186.547 290.496 188.484C291.455 191.641 291.485 195.215 291.82 198.5L293.725 217.665L293.25 219.027L244.906 231.809L231.757 234.717C228.13 235.439 224.355 235.947 220.977 237.493C215.687 237.54 208.971 235.267 203.678 234.198L206.485 231.396L264.84 162.55Z"/>
	<path fill="#B5E8E8" transform="scale(0.488281 0.488281)" d="M264.84 162.55L284.517 181.737C286.023 183.233 290.148 186.547 290.496 188.484C283.165 191.35 275.972 195.328 268.936 198.865L228.386 220.298C222.262 223.687 216.206 227.646 209.881 230.616C208.675 231.183 207.831 231.477 206.485 231.396L264.84 162.55Z"/>
	<path fill="#33B8E2" transform="scale(0.488281 0.488281)" d="M148.273 377.48C146.493 373.941 145.573 369.325 144.462 365.5L137.829 342.04L132.679 323.92C131.834 321.164 130.677 318.607 130.131 315.75L130.555 315.914L175.569 410.785C177.464 398.635 184.333 385.499 190.351 374.768C192.82 370.366 195.743 366.197 198.571 362.02C199.589 360.517 200.499 358.364 202.25 357.87L204.96 360.35C206.406 361.658 211.799 366.061 211.909 367.646C212.696 379.037 215.2 390.826 216.943 402.126L229.029 477.75L231.958 498.759C232.821 505.009 233.961 511.417 233.765 517.75C233.629 522.127 232.281 526.877 231.311 531.126L227.146 550.34L219.974 591.812C218.371 601.332 216.172 611.072 215.287 620.678C215.149 622.181 214.712 623.185 214.046 624.534L213.485 637.077C210.226 634.755 182.413 509.198 178.192 493.823L148.273 377.48Z"/>
	<path fill="#76E9FA" transform="scale(0.488281 0.488281)" d="M148.273 377.48C152.308 384.415 155.046 392.3 157.969 399.752C166.241 420.846 172.786 442.701 179.499 464.342C182.49 473.984 185.037 483.958 188.66 493.385C193.209 505.222 199.2 516.857 204.365 528.466C206.007 532.156 208.472 536.461 209.363 540.353C209.943 542.882 209.726 546.104 209.826 548.72L210.609 562.123L214.046 624.534L213.485 637.077C210.226 634.755 182.413 509.198 178.192 493.823L148.273 377.48Z"/>
	<path fill="#B5E8E8" transform="scale(0.488281 0.488281)" d="M124.55 298.316C140.025 303.296 155.055 309.667 170.123 315.726L215.605 333.833L300.286 367.214L343.997 384.653C350.859 387.387 358.927 392.187 366.196 393.187L397.162 392.915C425.832 420.978 462.116 438.64 498.352 454.709L509.922 460.052C511.3 460.706 513.022 461.958 514.517 462.075L514.973 462.055C514.225 463.722 514.462 465.544 514.456 467.332L514.404 478.737L513.049 556.029L512.493 568.789L511.813 570.631L436.894 457.494C436.867 456.937 435.79 455.41 435.478 454.842L433.184 451.421L399.209 464.569C392.85 467.038 386.095 470.262 379.5 471.915C379.15 471.45 378.79 471.047 378.572 470.504L368.645 451.683L335.124 393.495L277.442 431.063L201.033 347.958C193.486 354.673 186.62 362.958 181.322 371.536L171.533 389.183L124.796 298.703L124.55 298.316Z"/>
	<defs>
		<linearGradient id="gradient_0" gradientUnits="userSpaceOnUse" x1="660.50513" y1="135.19287" x2="631.87024" y2="238.26573">
			<stop offset="0" stop-color="#87F3FA"/>
			<stop offset="1" stop-color="#C4F6FA"/>
		</linearGradient>
	</defs>
	<path fill="url(#gradient_0)" transform="scale(0.488281 0.488281)" d="M604.093 132.242L604.541 132.899L676.046 146.209L731.733 156.596L743.75 158.826C745.868 159.211 748.24 159.412 750.15 160.444L794.98 207.27L807.873 221.128C810.733 224.154 813.981 227.195 816.395 230.568L813.655 230.883L746.418 243.05C747.446 245.446 749.139 247.341 750.537 249.516C753.176 253.622 755.843 257.865 757.918 262.282L749 266.888C747.392 267.779 745.716 269.012 743.999 269.629C742.225 269.298 740.503 267.906 739 266.923L728.977 260.138L701.385 241.643C693.02 238.224 684.267 236.319 675.533 234.131L645.336 226.369L537.215 198.959L513.091 193.673L513.07 192.12L511.5 192.504L509.418 191.087L510.726 190.24C512.239 189.702 537.091 154.268 540.074 149.954C542.286 148.499 545.449 148.164 548 147.527L561.152 143.964C570.744 141.304 580.385 137.91 590.069 135.684C591.692 135.311 593.389 135.39 595.037 135.523C598.121 134.255 600.824 133.021 604.093 132.242Z"/>
	<path fill="#33B8E2" transform="scale(0.488281 0.488281)" d="M604.093 132.242L604.541 132.899L517.696 188.813C517.336 188.227 517.444 188.572 517.488 187.75C521.998 182.995 528.676 179.181 534.08 175.398L574.5 148.529C581.313 144.117 588.471 140.319 595.037 135.523C598.121 134.255 600.824 133.021 604.093 132.242Z"/>
	<path fill="#18C7D2" transform="scale(0.488281 0.488281)" d="M540.074 149.954C542.286 148.499 545.449 148.164 548 147.527L561.152 143.964C570.744 141.304 580.385 137.91 590.069 135.684C591.692 135.311 593.389 135.39 595.037 135.523C588.471 140.319 581.313 144.117 574.5 148.529L534.08 175.398C528.676 179.181 521.998 182.995 517.488 187.75C517.444 188.572 517.336 188.227 517.696 188.813L513.07 192.12L511.5 192.504L509.418 191.087L510.726 190.24C512.239 189.702 537.091 154.268 540.074 149.954Z"/>
	<path fill="#F8FDFE" transform="scale(0.488281 0.488281)" d="M675.687 150.332C678.347 151.901 680.743 154.914 682.926 157.133L699.168 174.326L714.551 189.945L680 185.814L639 180.836L615.24 178.148C610.726 177.683 605.976 176.857 601.455 177.349L594.582 175.863L593.196 174.99C594.582 172.555 666.027 154.028 675.687 150.332Z"/>
	<path fill="#33B8E2" transform="scale(0.488281 0.488281)" d="M750.15 160.444L794.98 207.27L807.873 221.128C810.733 224.154 813.981 227.195 816.395 230.568L813.655 230.883L746.418 243.05L594.457 176.606L594.582 175.863L601.455 177.349C605.976 176.857 610.726 177.683 615.24 178.148L639 180.836L680 185.814L714.551 189.945L735.005 193.562C736.76 192.145 738.097 189.634 739.177 187.656C742.147 182.216 744.426 176.405 746.687 170.646C748.003 167.294 749.511 164.007 750.15 160.444Z"/>
	<path fill="#72D5DC" transform="scale(0.488281 0.488281)" d="M601.455 177.349C605.976 176.857 610.726 177.683 615.24 178.148L639 180.836L680 185.814L714.551 189.945L735.005 193.562L734.852 195.981L742.848 237.714L601.455 177.349Z"/>
	<path fill="#F8FDFE" transform="scale(0.488281 0.488281)" d="M203.678 234.198C208.971 235.267 215.687 237.54 220.977 237.493L271.6 246.469L279.619 248.015C280.428 248.178 282.147 248.761 282.946 248.681C283.9 248.586 285.451 247.82 286.394 247.49C289.445 246.422 293.102 245.426 295.936 243.919L302.955 240.698C304.115 241.235 305.241 241.779 306.452 242.193L308.402 243.151C319.787 244.886 331.141 249.889 342.029 253.598L408.395 276.61C407.382 279.826 407.253 283.499 406.853 286.843L404.483 307.25L397.676 364.661L395.291 382.254L394.538 382.951C396.744 384.006 400.555 383.173 402.986 382.973L520.76 379.423L527.747 379.753C527.307 380.51 527.611 380.246 526.87 380.587C530.72 383.014 536.088 383.604 540.493 384.793L586.808 395.994L603.241 399.737C606.541 400.495 610.177 401.059 613.317 402.319C616.292 400.995 619.409 401.83 622.601 402.29L579.398 428.098L579.393 428.142L514.973 462.055L514.517 462.075C513.022 461.958 511.3 460.706 509.922 460.052L498.352 454.709C462.116 438.64 425.832 420.978 397.162 392.915L366.196 393.187C358.927 392.187 350.859 387.387 343.997 384.653L300.286 367.214L215.605 333.833L170.123 315.726C155.055 309.667 140.025 303.296 124.55 298.316C124.296 297.811 124.189 297.294 124.045 296.75C127.849 292.751 132.424 289.444 136.774 286.066L151.519 274.514L203.678 234.198Z"/>
	<path fill="#18C7D2" transform="scale(0.488281 0.488281)" d="M283.472 250.512L328.046 281.359L228.711 296.266L226.559 295.797C229.702 293.886 234.865 293.211 238.468 292.113L275.708 279.917C279.502 278.643 285.461 277.43 288.834 275.367C289.717 274.827 289.201 274.49 288.915 273.7C286.9 268.126 285.721 262.199 284.269 256.455C283.974 255.29 282.981 252.838 283.017 251.758C283.031 251.316 283.32 250.928 283.472 250.512Z"/>
	<path fill="#72D5DC" transform="scale(0.488281 0.488281)" d="M228.711 296.266C220.218 298.045 210.781 297.132 202.111 298.015L282.259 250.089L283.472 250.512C283.32 250.928 283.031 251.316 283.017 251.758C282.981 252.838 283.974 255.29 284.269 256.455C285.721 262.199 286.9 268.126 288.915 273.7C289.201 274.49 289.717 274.827 288.834 275.367C285.461 277.43 279.502 278.643 275.708 279.917L238.468 292.113C234.865 293.211 229.702 293.886 226.559 295.797L228.711 296.266Z"/>
	<path fill="#B5E8E8" transform="scale(0.488281 0.488281)" d="M525.985 381.528C526.043 387.875 524.182 394.596 523.164 400.875L516.964 439C516.129 444.001 514.592 449.944 514.645 454.968L514.193 455.192C511.496 454.713 507.854 450.398 505.689 448.524L497.38 441.874L452.71 407.603C449.582 405.135 444.976 402.539 442.485 399.575L501 387.388L517.398 383.714C520.28 383.032 523.027 381.803 525.985 381.528Z"/>
	<path fill="#72D5DC" transform="scale(0.488281 0.488281)" d="M525.985 381.528L526.87 380.587C530.72 383.014 536.088 383.604 540.493 384.793L586.808 395.994L603.241 399.737C606.541 400.495 610.177 401.059 613.317 402.319L583.809 416.683L541.85 439.336C532.813 444.338 523.074 449.002 514.645 454.968C514.592 449.944 516.129 444.001 516.964 439L523.164 400.875C524.182 394.596 526.043 387.875 525.985 381.528Z"/>
	<path fill="#B5E8E8" transform="scale(0.488281 0.488281)" d="M308.402 243.151C319.787 244.886 331.141 249.889 342.029 253.598L408.395 276.61C407.382 279.826 407.253 283.499 406.853 286.843L404.483 307.25L397.676 364.661L395.291 382.254L394.538 382.951C387.794 375.287 382.377 365.989 377.343 357.133L361.25 328.66L346.13 302.419C339.205 289.846 332.467 276.75 324.604 264.75C319.649 257.188 313.626 250.494 308.402 243.151Z"/>
	<path fill="#76E9FA" transform="scale(0.488281 0.488281)" d="M397.477 159.063C407.934 158.802 418.354 159.489 428.788 160.089L448.201 161.259C452.727 161.569 461.632 163.277 465.494 160.874L491.761 178.893L503.316 186.671C505.236 187.977 507.825 189.431 509.418 191.087L511.5 192.504L513.07 192.12L513.091 193.673L537.215 198.959L645.336 226.369L675.533 234.131C684.267 236.319 693.02 238.224 701.385 241.643C700.031 242.935 698.939 244.24 697.856 245.766L630.483 375.5C630.156 375.823 629.92 376.281 629.5 376.47C628.911 376.735 626.891 376.476 626.099 376.478L613.951 376.505L584.987 377.395L547.942 378.474C539.196 378.68 529.388 378.174 520.76 379.423L402.986 382.973C400.555 383.173 396.744 384.006 394.538 382.951L395.291 382.254L397.676 364.661L404.483 307.25L406.853 286.843C407.253 283.499 407.382 279.826 408.395 276.61L342.029 253.598C331.141 249.889 319.787 244.886 308.402 243.151L306.452 242.193C305.241 241.779 304.115 241.235 302.955 240.698C309.944 235.909 316.593 229.774 323.331 224.553L375.204 185.354C385.831 177.395 396.667 168.498 407.982 161.601L408.028 161.614L409.838 159.955C409.112 159.22 399.167 159.224 397.477 159.063Z"/>
	<path fill="#B5E8E8" transform="scale(0.488281 0.488281)" d="M397.477 159.063C407.934 158.802 418.354 159.489 428.788 160.089L448.201 161.259C452.727 161.569 461.632 163.277 465.494 160.874L491.761 178.893L503.316 186.671C505.236 187.977 507.825 189.431 509.418 191.087L511.5 192.504L513.07 192.12L513.091 193.673C509.221 193.844 505.227 195.189 501.459 196.086L479.189 201.509L376.773 227.261C356.864 232.408 336.801 238.687 316.521 242.131C314.113 242.54 311.527 242.703 309.128 242.178C308.053 241.943 307.519 242.019 306.452 242.193C305.241 241.779 304.115 241.235 302.955 240.698C309.944 235.909 316.593 229.774 323.331 224.553L375.204 185.354C385.831 177.395 396.667 168.498 407.982 161.601L408.028 161.614L409.838 159.955C409.112 159.22 399.167 159.224 397.477 159.063Z"/>
	<path fill="#33B8E2" transform="scale(0.488281 0.488281)" d="M697.856 245.766L630.483 375.5C630.156 375.823 629.92 376.281 629.5 376.47C628.911 376.735 626.891 376.476 626.099 376.478L613.951 376.505L584.987 377.395L547.942 378.474C539.196 378.68 529.388 378.174 520.76 379.423L402.986 382.973C400.555 383.173 396.744 384.006 394.538 382.951L395.291 382.254L397.676 364.661L404.483 307.25L406.853 286.843C407.253 283.499 407.382 279.826 408.395 276.61L455.536 293.343L475.417 300.052C478.819 301.256 482.445 302.275 485.61 304.019L485.894 304.018L487.216 303.519C489.352 302.044 492.76 301.535 495.282 300.888L510 297.021L548.655 286.473L650.684 258.874L679.23 251.084C683.931 249.804 689.245 247.865 694.06 247.411L697.856 245.766Z"/>
	<path fill="#72D5DC" transform="scale(0.488281 0.488281)" d="M485.61 304.019L485.894 304.018C488.972 307.191 493.049 309.704 496.487 312.523C505.778 320.138 515.212 328.902 525.363 335.299L494.351 347.274L422.359 375.324L410.487 379.75C408.011 380.637 404.997 381.225 402.986 382.973C400.555 383.173 396.744 384.006 394.538 382.951L395.291 382.254L485.61 304.019Z"/>
	<path fill="#72D5DC" transform="scale(0.488281 0.488281)" d="M487.216 303.519C489.352 302.044 492.76 301.535 495.282 300.888L510 297.021L548.655 286.473L650.684 258.874L679.23 251.084C683.931 249.804 689.245 247.865 694.06 247.411C681.774 256.03 667.462 262.668 654.221 269.765L603.12 298.098L587 307.011C584.43 308.406 581.251 309.746 578.93 311.488C570.633 310.156 562.047 309.953 553.659 309.378L514.507 306.615C505.614 305.998 495.803 305.929 487.216 303.519Z"/>
	<path fill="#F8FDFE" transform="scale(0.488281 0.488281)" d="M408.395 276.61L455.536 293.343L475.417 300.052C478.819 301.256 482.445 302.275 485.61 304.019L395.291 382.254L397.676 364.661L404.483 307.25L406.853 286.843C407.253 283.499 407.382 279.826 408.395 276.61Z"/>
	<path fill="#33B8E2" transform="scale(0.488281 0.488281)" d="M870.116 411.242L895.069 417.322C909.937 420.577 954.358 427.633 961.412 440.689C963.221 444.037 963.203 446.869 962.009 450.457C960.38 455.352 957.22 459.221 953.901 463.05C941.397 477.473 923.473 488.143 907.296 498.011C890.947 507.984 853.265 526.322 850.551 547C850.107 550.388 851.038 553.52 852.49 556.55C856.87 565.694 865.55 572.992 873.656 578.796C883.36 585.744 893.899 591.735 903.962 598.165C918.908 607.714 945.007 622.772 939.113 644L938.874 644.879C935.836 655.574 926.788 663.973 918.58 670.915C908.18 679.71 896.955 687.215 885.769 694.953L852.059 718.31L824.494 737.262C813.747 744.718 800.983 752.832 793.141 763.42C790.836 766.532 789.003 770.346 791.121 774.036C792.728 776.837 795.864 779.221 798.645 780.782C804.978 784.336 812.194 786.499 818.965 789.062L850.604 801.336C856.969 803.851 864.156 806.418 869.792 810.318C872.021 811.86 875.131 814.222 874.429 817.259C873.915 819.482 871.588 820.914 869.75 821.974C865.006 824.711 859.293 826.429 854.131 828.266C841.323 832.823 825.064 838.172 815.045 847.544C813.684 848.817 811.635 850.597 811.176 852.503C810.638 854.737 811.616 856.697 812.81 858.53C822.152 872.872 869.867 879.05 873.516 890.5C873.24 892.052 872.892 892.738 871.519 893.629C865.608 897.467 853.729 897.014 846.838 897.033C827.751 897.088 808.85 895.674 789.833 894.231L761.398 892.314L692 888.492C667.076 887.694 641.798 887.473 617.022 890.656C609.625 891.606 591.143 893.815 588.603 902.073C587.774 904.769 589.101 907.603 590.651 909.732C593.63 913.825 597.509 917.137 601.46 920.26C613.424 929.717 627.191 935.786 641.446 940.823C613.206 942.552 583.897 940.446 556 935.987C545.188 934.258 533.579 932.342 523.216 928.768L524.209 926.396L537.317 894.565L547.619 871.197L587.422 782.086L593.652 767.569C594.755 764.846 595.745 760.713 597.604 758.544C599.547 756.278 602.199 754.425 604.537 752.581L617.211 742.842L651.295 716.766L664.079 761.117L667.522 773.078C668.128 775.202 668.593 777.564 669.6 779.535L671.051 784.945C671.619 776.168 673.904 766.761 676.021 758.25L701.376 669.674L706.138 653.538C706.603 651.858 707.079 648.44 708.231 647.242L781.831 596.407L801.516 691.75L870.116 411.242Z"/>
	<defs>
		<linearGradient id="gradient_1" gradientUnits="userSpaceOnUse" x1="860.87622" y1="588.64441" x2="599.35443" y2="428.32144">
			<stop offset="0" stop-color="#011843"/>
			<stop offset="1" stop-color="#014466"/>
		</linearGradient>
	</defs>
	<path fill="url(#gradient_1)" transform="scale(0.488281 0.488281)" d="M816.395 230.568L872.161 274.454L889.512 288.16C893.067 290.999 896.995 293.817 899.978 297.25C899.538 298.195 899.331 298.373 898.555 299.01L899.381 299.563C898.731 303.749 896.944 308.239 895.709 312.313L888.937 335.859L870.116 411.242L801.516 691.75L781.831 596.407L708.231 647.242C707.079 648.44 706.603 651.858 706.138 653.538L701.376 669.674L676.021 758.25C673.904 766.761 671.619 776.168 671.051 784.945L669.6 779.535C668.593 777.564 668.128 775.202 667.522 773.078L664.079 761.117L651.295 716.766L617.211 742.842L604.537 752.581C602.199 754.425 599.547 756.278 597.604 758.544C595.745 760.713 594.755 764.846 593.652 767.569L587.422 782.086L547.619 871.197L537.317 894.565L524.209 926.396L523.216 928.768L515.654 948.926C514.755 951.195 514.121 954.026 512.456 955.839L513.373 591.591L513.537 584.391C513.913 582.159 514.373 579.167 513.48 577.041C512.766 576.84 512.18 576.395 511.55 576.011L511.292 574.93C512.102 573.715 511.847 572.067 511.813 570.631L512.493 568.789L513.049 556.029L514.404 478.737L514.456 467.332C514.462 465.544 514.225 463.722 514.973 462.055L579.393 428.142L579.398 428.098L622.601 402.29C619.409 401.83 616.292 400.995 613.317 402.319C610.177 401.059 606.541 400.495 603.241 399.737L586.808 395.994L540.493 384.793C536.088 383.604 530.72 383.014 526.87 380.587C527.611 380.246 527.307 380.51 527.747 379.753L520.76 379.423C529.388 378.174 539.196 378.68 547.942 378.474L584.987 377.395L613.951 376.505L626.099 376.478C626.891 376.476 628.911 376.735 629.5 376.47C629.92 376.281 630.156 375.823 630.483 375.5L697.856 245.766C698.939 244.24 700.031 242.935 701.385 241.643L728.977 260.138L739 266.923C740.503 267.906 742.225 269.298 743.999 269.629C745.716 269.012 747.392 267.779 749 266.888L757.918 262.282C755.843 257.865 753.176 253.622 750.537 249.516C749.139 247.341 747.446 245.446 746.418 243.05L813.655 230.883L816.395 230.568Z"/>
	<path fill="#045576" transform="scale(0.488281 0.488281)" d="M697.058 415.323C698.693 410.939 702.523 407.176 705.679 403.821C708.761 406.115 711.997 408.554 714.001 411.893C710.58 411.041 706.1 408.565 702.78 410.784C700.732 412.152 699.212 414.064 697.058 415.323Z"/>
	<path fill="#0F6F86" transform="scale(0.488281 0.488281)" d="M714.001 411.893L745.162 439.747L798.135 368.988L783.097 416.28L777.979 432.443C777.093 435.376 776.331 439.26 774.781 441.887C772.722 445.379 767.531 449.047 764.528 451.818L732.668 480.765C726.768 486.066 719.508 491.548 714.58 497.75C713.938 498.558 713.746 499.272 713.492 500.25L684.828 609.689L677.154 639.392C675.253 646.54 672.592 654.274 671.892 661.628C670.991 671.081 671.434 680.937 671.226 690.446L670.221 754.243L670.191 769.25C670.253 771.886 670.582 774.636 670.375 777.264C670.305 778.168 670.105 778.764 669.6 779.535C668.593 777.564 668.128 775.202 667.522 773.078L664.079 761.117L651.295 716.766C650.652 713.254 649.309 709.734 648.333 706.294C644.995 694.533 640.701 682.743 638.119 670.808L644.315 628.256L660.229 547.192L671.147 507.018L692.528 428.529L696.679 416.094L696.804 415.66L697.058 415.323C699.212 414.064 700.732 412.152 702.78 410.784C706.1 408.565 710.58 411.041 714.001 411.893Z"/>
	<path fill="#4D878E" transform="scale(0.488281 0.488281)" d="M622.601 402.29L898.555 299.01C898.208 302.384 891.929 309.056 889.784 311.907L870.288 338.116L832.103 391.291L827.782 329.72L813.242 345.603L780.96 382.652L752.772 417.26L744.851 427.13C743.613 428.685 742.286 430.84 740.635 431.927L713.456 404.87C709.96 401.477 706.44 397.251 702.495 394.436L668.502 435.646L655.229 452.286C652.46 455.798 649.727 459.65 646.555 462.791L594.755 445.124C590.952 449.789 587.932 454.999 584.756 460.097L572.524 479.25L531.149 541.628L518.804 560.39C516.887 563.192 514.985 566.48 512.493 568.789L513.049 556.029L514.404 478.737L514.456 467.332C514.462 465.544 514.225 463.722 514.973 462.055L579.393 428.142L579.398 428.098L622.601 402.29Z"/>
	<path fill="#0F6F86" transform="scale(0.488281 0.488281)" d="M514.973 462.055L579.393 428.142C579.332 431.51 575.051 436.965 573.336 440.077L562.875 459.842L529.633 523.064L518.697 544.6C516.828 548.373 515.411 552.553 513.049 556.029L514.404 478.737L514.456 467.332C514.462 465.544 514.225 463.722 514.973 462.055Z"/>
	<path fill="#B5E8E8" transform="scale(0.488281 0.488281)" d="M816.395 230.568L872.161 274.454L889.512 288.16C893.067 290.999 896.995 293.817 899.978 297.25C899.538 298.195 899.331 298.373 898.555 299.01L622.601 402.29C619.409 401.83 616.292 400.995 613.317 402.319C610.177 401.059 606.541 400.495 603.241 399.737L586.808 395.994L540.493 384.793C536.088 383.604 530.72 383.014 526.87 380.587C527.611 380.246 527.307 380.51 527.747 379.753L520.76 379.423C529.388 378.174 539.196 378.68 547.942 378.474L584.987 377.395L613.951 376.505L626.099 376.478C626.891 376.476 628.911 376.735 629.5 376.47C629.92 376.281 630.156 375.823 630.483 375.5L697.856 245.766C698.939 244.24 700.031 242.935 701.385 241.643L728.977 260.138L739 266.923C740.503 267.906 742.225 269.298 743.999 269.629C745.716 269.012 747.392 267.779 749 266.888L757.918 262.282C755.843 257.865 753.176 253.622 750.537 249.516C749.139 247.341 747.446 245.446 746.418 243.05L813.655 230.883L816.395 230.568Z"/>
	<path fill="#33B8E2" transform="scale(0.488281 0.488281)" d="M757.918 262.282L758.924 263.89C764.288 267.209 823.552 309.181 823.824 309.786L751.518 298.921L738 297.138C736.083 296.887 733.224 296.833 731.5 296.11C731.171 295.972 730.981 295.62 730.721 295.375L731.618 294.38L743.999 269.629C745.716 269.012 747.392 267.779 749 266.888L757.918 262.282Z"/>
	<path fill="#4EF3E9" transform="scale(0.488281 0.488281)" d="M757.918 262.282L758.924 263.89L765.652 286.342L745.58 290.752C740.958 291.854 736.092 292.793 731.618 294.38L743.999 269.629C745.716 269.012 747.392 267.779 749 266.888L757.918 262.282Z"/>
	<path fill="#045576" transform="scale(0.488281 0.488281)" d="M513.48 577.041C515.917 575.257 518.082 571.238 519.816 568.729L543.212 532.206L559.853 507.114L583.161 474.417L597.991 451.568C602.519 453.915 607.871 455.057 612.702 456.662L651.552 468.871C657.042 462.756 661.936 455.974 667.117 449.582L686.393 426.971C689.391 423.49 692.959 418.088 696.804 415.66L696.679 416.094L692.528 428.529L671.147 507.018L660.229 547.192L644.315 628.256L638.119 670.808C640.701 682.743 644.995 694.533 648.333 706.294C649.309 709.734 650.652 713.254 651.295 716.766L617.211 742.842L604.537 752.581C602.199 754.425 599.547 756.278 597.604 758.544C595.745 760.713 594.755 764.846 593.652 767.569L587.422 782.086L547.619 871.197L537.317 894.565L524.209 926.396L523.216 928.768L515.654 948.926C514.755 951.195 514.121 954.026 512.456 955.839L513.373 591.591L513.537 584.391C513.913 582.159 514.373 579.167 513.48 577.041Z"/>
	<path fill="#002551" transform="scale(0.488281 0.488281)" d="M537.317 894.565C537.25 894.14 537.217 894.03 537.233 893.541C537.312 891.024 538.456 888.264 539.172 885.864L543.238 872.043L563.166 806.739L579.15 759.172L592.92 726.498L600.909 708.307C602.187 705.501 603.318 702.339 604.944 699.729C606.408 697.38 608.642 695.885 610.757 694.183L621 685.932L638.119 670.808C640.701 682.743 644.995 694.533 648.333 706.294C649.309 709.734 650.652 713.254 651.295 716.766L617.211 742.842L604.537 752.581C602.199 754.425 599.547 756.278 597.604 758.544C595.745 760.713 594.755 764.846 593.652 767.569L587.422 782.086L547.619 871.197L537.317 894.565Z"/>
	<path fill="#0F6F86" transform="scale(0.488281 0.488281)" d="M513.373 591.591L513.67 591.284C517.007 587.792 519.554 583.407 522.31 579.441L543.201 548.273L592.568 477.107L606.823 456.042L560.49 738.09L548.493 809.917L538.435 860.981L524.743 919.355C524.32 921.487 523.283 924.456 524.209 926.396L523.216 928.768L515.654 948.926C514.755 951.195 514.121 954.026 512.456 955.839L513.373 591.591Z"/>
	<path fill="#33B8E2" transform="scale(0.488281 0.488281)" d="M239.614 495.363C236.343 490.077 235.475 483.322 234.189 477.286L228.565 448.723L214.33 370.844L218.847 375.296L236.336 392.412L236.795 392.757L237.254 393.128C248.513 402.374 255.92 414.07 265.08 425.069C267.982 428.553 271.485 431.779 274.741 434.938C273.708 442.274 272.118 449.892 271.89 457.284L338.532 404.504L373.089 464.869L374.396 467.816C375.848 469.774 377.289 471.917 378.385 474.099C379.223 475.766 379.725 477.706 380.777 479.233L418.467 462.213C423.136 460.033 428.185 456.5 433 455.014C433.808 454.765 434.649 454.82 435.478 454.842C435.79 455.41 436.867 456.937 436.894 457.494L511.813 570.631C511.847 572.067 512.102 573.715 511.292 574.93L511.55 576.011C512.18 576.395 512.766 576.84 513.48 577.041C514.373 579.167 513.913 582.159 513.537 584.391L513.373 591.591L512.456 955.839C512.093 956.964 511.973 958.083 511.831 959.25C510.327 958.436 508.518 952.862 507.806 951.165L495.452 918.945C465.845 910.973 436.442 909.667 406.106 913.557C386.951 916.013 368.158 919.148 348.765 918.449C338.381 918.074 327.549 916.183 317.5 913.522C298.34 908.446 279.542 901.15 260.764 894.787L162.678 859.304L139.822 849.554C135.066 847.375 130.208 845.277 125.97 842.181C131.168 836.98 138.527 834.511 145.191 831.702C158.553 826.07 173.037 821.616 185.664 814.498C173.614 809.889 160.705 806.618 148.25 803.272L126.5 797.046C119.261 794.854 110.905 792.437 104.927 787.65C103.277 786.33 100.747 783.962 100.835 781.75C100.881 780.573 101.384 779.713 102.122 778.843C105.76 774.554 112.29 771.775 117.275 769.419L143.129 758.094L170.625 746.051C179.147 742.237 188.915 738.619 195.529 731.855C194.334 730.511 193.074 728.91 191.561 727.924C187.177 725.066 181.552 722.986 176.701 721.015L136.614 706.872C130.369 704.818 117.695 701.41 113.909 695.958C113.1 694.792 112.847 693.703 113.135 692.297C113.565 690.196 115.405 688.326 116.842 686.839C122.257 681.236 129.233 677.503 135.857 673.535C144.882 668.13 158.966 660.977 161.448 649.846C162.605 644.657 160.87 640.082 157.992 635.81L157.437 635C154.548 630.732 150.342 626.73 146.382 623.437C126.407 606.826 102.572 596.928 81.251 582.496C73.3408 577.142 63.6879 569.85 62.1341 559.75C61.1772 553.531 63.6303 548.115 67.2634 543.275C82.6783 522.737 117.941 510.518 141.835 503.31C153.7 499.73 165.875 495.511 178.192 493.823C182.413 509.198 210.226 634.755 213.485 637.077C213.705 637.615 213.946 638.033 214.25 638.525C216.167 628.85 220.399 619.383 223.461 610L242.224 552.959C240.724 550.546 240.997 546.493 240.899 543.7L240.38 522.823C240.056 513.838 238.849 504.313 239.614 495.363Z"/>
	<path fill="#1682BC" transform="scale(0.488281 0.488281)" d="M280.568 551.763C282.779 552.124 285.426 552.417 287.387 553.541L288.016 558.864C287.196 557.169 285.084 556.211 283.654 555.015C282.507 554.056 281.54 552.893 280.568 551.763Z"/>
	<path fill="#045576" transform="scale(0.488281 0.488281)" d="M242.224 552.959C240.724 550.546 240.997 546.493 240.899 543.7L240.38 522.823C240.056 513.838 238.849 504.313 239.614 495.363L260.292 527.382C266.006 535.682 272.405 545.711 280.568 551.763C281.54 552.893 282.507 554.056 283.654 555.015C285.084 556.211 287.196 557.169 288.016 558.864L290.851 609C291.791 620.12 292.571 631.46 295.169 642.336L242.224 552.959Z"/>
	<path fill="#76E9FA" transform="scale(0.488281 0.488281)" d="M322.635 688.072C322.465 683.885 321.546 679.557 320.92 675.415L316.924 651.595L300.716 571.968L296.062 550.125C295.079 545.374 294.302 539.716 292.403 535.252C288.418 525.88 282.533 516.893 277.625 507.955L257.378 470.619L249.678 457.122C248.181 454.562 246.261 451.913 245.225 449.14C242.743 442.499 241.73 434.326 240.428 427.339C238.752 418.347 236.735 409.214 235.785 400.122C235.565 398.018 235.001 394.054 236.336 392.412L236.795 392.757C236.775 393.346 236.533 394.864 236.707 395.351C237.433 397.384 241.003 400.397 242.492 402.109L256.291 419.157C258.357 421.753 261.2 424.45 262.641 427.43C263.851 429.932 264.198 433.447 264.579 436.2C265.8 445.001 265.244 455.426 268.25 463.706C270.404 469.639 273.646 475.404 276.343 481.125L294.467 519.033C297.623 525.621 301.114 532.233 303.324 539.214C304.526 543.011 305.003 547.035 305.717 550.942L309.563 573.403L319.791 633.13L326.914 667.867L346.545 766.79L353.715 806.222L355.065 815.388C355.319 817.495 355.325 819.956 356.07 821.948L356.987 838.607L356.25 841.416C353.499 838.281 351.874 832.736 350.788 828.75C348.146 819.056 346.636 808.957 344.519 799.131L327.534 714.5L324.342 696.5C323.87 693.793 323.659 690.604 322.635 688.072Z"/>
	<path fill="#33B8E2" transform="scale(0.488281 0.488281)" d="M236.795 392.757L237.254 393.128C248.513 402.374 255.92 414.07 265.08 425.069C267.982 428.553 271.485 431.779 274.741 434.938C273.708 442.274 272.118 449.892 271.89 457.284L338.532 404.504L373.089 464.869L374.396 467.816L370.686 514.75C370.237 521.377 370.146 528.197 369.221 534.75C368.636 538.891 369.13 543.395 368.384 547.515C368 549.64 368.293 551.622 367.745 553.75L367.652 554.289C367.484 554.959 367.105 555.366 366.736 555.923C364.635 559.095 363.051 562.84 361.19 566.188L346.75 592.628C344.296 597.153 340.093 602.762 338.612 607.598C338.172 609.035 338.416 611.164 338.468 612.659C338.615 616.878 339.18 621.102 339.612 625.3L342.091 650.878L352.262 763.76L356.294 808.25C356.491 811.863 357.186 815.906 356.873 819.5C356.789 820.464 356.48 821.095 356.07 821.948C355.325 819.956 355.319 817.495 355.065 815.388L353.715 806.222L346.545 766.79L326.914 667.867L319.791 633.13L309.563 573.403L305.717 550.942C305.003 547.035 304.526 543.011 303.324 539.214C301.114 532.233 297.623 525.621 294.467 519.033L276.343 481.125C273.646 475.404 270.404 469.639 268.25 463.706C265.244 455.426 265.8 445.001 264.579 436.2C264.198 433.447 263.851 429.932 262.641 427.43C261.2 424.45 258.357 421.753 256.291 419.157L242.492 402.109C241.003 400.397 237.433 397.384 236.707 395.351C236.533 394.864 236.775 393.346 236.795 392.757Z"/>
	<defs>
		<linearGradient id="gradient_2" gradientUnits="userSpaceOnUse" x1="338.53159" y1="730.60437" x2="532.4364" y2="694.85876">
			<stop offset="0" stop-color="#017FBB"/>
			<stop offset="1" stop-color="#03CDF2"/>
		</linearGradient>
	</defs>
	<path fill="url(#gradient_2)" transform="scale(0.488281 0.488281)" d="M374.396 467.816C375.848 469.774 377.289 471.917 378.385 474.099C379.223 475.766 379.725 477.706 380.777 479.233L418.467 462.213C423.136 460.033 428.185 456.5 433 455.014C433.808 454.765 434.649 454.82 435.478 454.842C435.79 455.41 436.867 456.937 436.894 457.494L511.813 570.631C511.847 572.067 512.102 573.715 511.292 574.93L511.55 576.011C512.18 576.395 512.766 576.84 513.48 577.041C514.373 579.167 513.913 582.159 513.537 584.391L513.373 591.591L512.456 955.839C512.093 956.964 511.973 958.083 511.831 959.25C510.327 958.436 508.518 952.862 507.806 951.165L495.452 918.945C494.492 914.855 492.568 910.92 491.065 907C484.989 891.153 477.552 876.688 469.864 861.601L435.6 791.724L429.867 778.067C428.621 774.888 427.212 771.766 427.014 768.32C419.442 760.648 411.424 753.557 403.213 746.58C398.352 742.45 393.576 738.171 388.362 734.487L360.284 833.06C359.874 835.002 358.446 841.733 357.164 842.922L356.987 838.607L356.07 821.948C356.48 821.095 356.789 820.464 356.873 819.5C357.186 815.906 356.491 811.863 356.294 808.25L352.262 763.76L342.091 650.878L339.612 625.3C339.18 621.102 338.615 616.878 338.468 612.659C338.416 611.164 338.172 609.035 338.612 607.598C340.093 602.762 344.296 597.153 346.75 592.628L361.19 566.188C363.051 562.84 364.635 559.095 366.736 555.923C367.105 555.366 367.484 554.959 367.652 554.289L367.745 553.75C368.293 551.622 368 549.64 368.384 547.515C369.13 543.395 368.636 538.891 369.221 534.75C370.146 528.197 370.237 521.377 370.686 514.75L374.396 467.816Z"/>
	<path fill="#1682BC" transform="scale(0.488281 0.488281)" d="M504.634 569.615C506.633 570.393 507.436 571.286 508.75 572.933C509.609 574.011 510.405 575.237 511.55 576.011C512.18 576.395 512.766 576.84 513.48 577.041C514.373 579.167 513.913 582.159 513.537 584.391C510.402 580.48 506.34 574.307 504.634 569.615Z"/>
	<path fill="#045576" transform="scale(0.488281 0.488281)" d="M436.894 457.494L511.813 570.631C511.847 572.067 512.102 573.715 511.292 574.93L511.55 576.011C510.405 575.237 509.609 574.011 508.75 572.933C507.436 571.286 506.633 570.393 504.634 569.615L491.333 547.656L465.529 505.415L445.392 472.226C442.557 467.519 438.614 462.734 436.894 457.494Z"/>
	<path fill="#76E9FA" transform="scale(0.488281 0.488281)" d="M439.705 552.75L440.049 552.995C441.59 556.148 442.599 559.669 443.874 562.951C446.815 570.522 449.764 578.079 453.503 585.303L488.325 645.283C491.657 650.989 495.837 656.74 498.652 662.68C499.074 663.569 499.112 664.363 499.061 665.329L488.605 843.891L487.809 855.805C485.892 851.657 484.845 846.433 483.686 841.989C476.346 813.84 474.236 784.574 470.047 755.853L449.391 614.754L442.898 573.724C441.786 566.774 440.303 559.76 439.705 552.75Z"/>
	<path fill="#045576" transform="scale(0.488281 0.488281)" d="M360.284 833.06C360.101 831.111 360.831 829.012 361.187 827.092C361.64 824.647 361.92 822.155 362.15 819.679L363.821 786.801L365.432 627.328L381.088 613.658L420.959 656.557L427.014 768.32C419.442 760.648 411.424 753.557 403.213 746.58C398.352 742.45 393.576 738.171 388.362 734.487L360.284 833.06Z"/>
</svg>
