<?xml version="1.0" encoding="utf-8" ?>
<svg xmlns="http://www.w3.org/2000/svg" xmlns:xlink="http://www.w3.org/1999/xlink" width="500" height="500">
	<path fill="#ED761B" transform="scale(0.488281 0.488281)" d="M-0 -0L1024 0L1024 1024L-0 1024L0 -0Z"/>
	<path fill="#E45113" transform="scale(0.488281 0.488281)" d="M437.67 904.623L438.5 905.546C451.425 906.206 584.53 906.792 586.848 905.623L590.328 922.507C590.932 925.661 591.288 929.574 592.546 932.534C592.986 933.57 594.017 934.388 594.927 935.009C596.209 935.885 598.206 936.497 599.75 936.373C603.69 936.059 607.95 934.9 611.845 934.17L635.877 929.798L741.546 911.778C743.903 914.313 755.109 914.563 758.712 914.97L829.5 922.392C842.63 924.049 858.176 925.465 870.455 930.634C872.895 931.661 874.978 932.941 876.658 934.991C876.467 936.769 875.442 937.512 874.045 938.632C871.186 940.925 866.759 942.081 863.25 943.019C853.385 945.656 843.097 947.112 833 948.549C787.857 954.974 742.284 957.087 696.791 959.505L465.75 963.54L406.827 962.815L303.75 957.45C266.374 955.041 228.668 952.436 191.702 946.2C184.801 945.036 158.018 940.396 154.829 935.4C154.251 934.495 154.447 933.791 154.438 932.75C160.402 924.975 194.992 921.653 204.678 920.376L251.526 915.491C260.389 914.785 269.469 914.616 278.272 913.429C279.341 913.285 279.729 913.004 280.509 912.306L389 930.119L417.939 934.92C420.045 935.259 424.109 936.483 426.083 936.197C427.023 936.06 428.771 935.027 429.563 934.482C430.429 933.887 431.432 933.028 431.91 932.086C433.191 929.564 433.578 925.796 434.121 923L437.67 904.623Z"/>
	<path fill="#010000" transform="scale(0.488281 0.488281)" d="M280.509 912.306L183.81 896.104C181.5 895.647 178.815 894.635 177.658 892.375C176.933 890.96 176.925 889.851 177.042 888.318L179.227 871.033L183.723 835.549L195.48 741L233.357 447.51L246.984 371C257.447 321.991 271.548 273.493 289.66 226.743L306.132 186.529L312.13 173.526C313.196 171.368 314.924 168.858 315.557 166.552C316.555 162.92 316.351 158.313 316.738 154.545L320.862 113.215C321.433 108.271 321.576 102.447 323.078 97.75C324.002 96.8307 324.488 96.1288 325.757 95.7506C330.752 94.2626 336.552 94.0858 341.75 93.5173L379.129 90.2669C474.971 83.5424 571.003 84.2341 666.65 93.639C672.99 94.2625 695.489 95.3647 700.038 98.1564C702.01 99.3668 702.453 101.537 702.685 103.676L705.893 145.034C706.3 150.598 706.232 156.858 707.313 162.292C707.868 165.085 709.523 167.92 710.692 170.509L717.611 185.862L735.345 229.617C747.027 260.7 757.579 292.424 766.262 324.485L777.762 372.409C787.414 414.642 793.623 457.652 799.577 500.533L818.046 657.495L830.475 762.271L841.693 847.842C843.463 860.949 846.07 874.268 846.931 887.463C847.04 889.145 846.856 890.202 845.911 891.597C845.006 892.933 843.944 893.777 842.396 894.25C839.363 895.176 835.883 895.455 832.75 895.983L813.589 899.256L741.546 911.778L635.877 929.798L611.845 934.17C607.95 934.9 603.69 936.059 599.75 936.373C598.206 936.497 596.209 935.885 594.927 935.009C594.017 934.388 592.986 933.57 592.546 932.534C591.288 929.574 590.932 925.661 590.328 922.507L586.848 905.623C584.53 906.792 451.425 906.206 438.5 905.546L437.67 904.623L434.121 923C433.578 925.796 433.191 929.564 431.91 932.086C431.432 933.028 430.429 933.887 429.563 934.482C428.771 935.027 427.023 936.06 426.083 936.197C424.109 936.483 420.045 935.259 417.939 934.92L389 930.119L280.509 912.306Z"/>
	<path fill="#463366" transform="scale(0.488281 0.488281)" d="M642.083 102.502L674.884 105.685C671.662 106.962 668.078 107.236 664.677 107.83L642.231 111.674C642.603 108.762 642.188 105.455 642.083 102.502Z"/>
	<path fill="#D41C2B" transform="scale(0.488281 0.488281)" d="M501.092 151.451L533.48 151.785C537.807 151.839 543.296 151.295 547.492 152.121C548.821 152.383 548.892 152.699 549.631 153.75C549.823 155.498 549.735 155.673 548.931 157.25C544.924 159.09 537.54 158.09 533.001 158.085L501.119 158.002L501.092 151.451Z"/>
	<path fill="#294F95" transform="scale(0.488281 0.488281)" d="M471.465 439.167C480.568 432.38 490.414 427.496 500.82 423.088L502.743 435.81C494.809 439.755 487.168 444.015 480.029 449.29C474.506 453.371 469.503 458.082 464.284 462.533L468.161 449.716C469.126 446.975 472.143 441.87 471.465 439.167Z"/>
	<path fill="#294F95" transform="scale(0.488281 0.488281)" d="M474.665 432.447C478.117 420.272 483.833 408.398 488.328 396.543L493.262 383.092C494.284 380.303 495.089 377.432 496.618 374.868C497.033 381.684 495.938 388.474 496.019 395.25C496.069 399.431 497.146 403.607 497.959 407.686C498.742 411.619 499.347 415.826 500.563 419.635C491.309 422.747 482.989 427.404 474.665 432.447Z"/>
	<path fill="#4583BE" transform="scale(0.488281 0.488281)" d="M670.463 222.864C657.166 213.491 645.035 200.976 635.621 187.789C634.049 185.587 631.674 182.829 630.902 180.229L650.151 176.706L659.832 198.395C661.861 202.665 671.015 219.044 670.463 222.864Z"/>
	<path fill="#294F95" transform="scale(0.488281 0.488281)" d="M459.292 473.949C470.387 458.906 487.082 447.671 503.26 438.856L505.814 452.257C488.941 458.798 474.851 470.113 463.731 484.286C460.394 488.539 457.626 493.28 454.232 497.458C453.86 495.035 455.057 492.522 455.702 490.197C457.051 485.333 459.178 478.934 459.292 473.949Z"/>
	<path fill="#294F95" transform="scale(0.488281 0.488281)" d="M674.453 231.247C688.897 241.544 703.918 251.16 719.464 259.718C723.196 261.773 727.048 263.831 731 265.434C732.112 265.884 735.19 266.451 735.949 267.223C736.43 267.713 737.044 270.614 737.335 271.517L743.05 289.153C735.952 286.516 729.045 282.788 722.38 279.217L688.968 259.373C687.653 258.515 683.679 256.454 683.024 255.338C683.788 253.641 682.158 250.705 681.516 249C679.3 243.115 676.347 237.163 674.453 231.247Z"/>
	<path fill="#4583BE" transform="scale(0.488281 0.488281)" d="M683.024 255.338C672.07 248.896 661.705 240.596 652.152 232.256C635.666 217.863 620.434 201.98 607.639 184.186L626.585 181.035C638.456 201.976 656.038 216.423 674.453 231.247C676.347 237.163 679.3 243.115 681.516 249C682.158 250.705 683.788 253.641 683.024 255.338Z"/>
	<path fill="#4583BE" transform="scale(0.488281 0.488281)" d="M380.654 180.059L392.465 182.662C372.738 221.662 334.899 242.828 297.766 262.418C294.959 263.949 292.238 265.538 289.159 266.462C290.152 262.885 291.099 259.273 292.353 255.776C292.564 255.188 293.047 253.359 293.403 252.949C293.955 252.312 296.459 251.317 297.293 250.884L309.671 244.499C332.359 231.952 356.469 216.006 371.974 194.814C375.316 190.246 378.013 185.057 380.654 180.059Z"/>
	<path fill="#E45113" transform="scale(0.488281 0.488281)" d="M689.499 264.998L724.591 285.171C730.843 288.374 737.82 292.054 744.64 293.846L754.44 328.543C737.652 321.382 721.228 314.489 705.231 305.596C704.239 305.045 700.924 303.602 700.505 302.9C700.564 300.153 699.435 296.839 698.71 294.199L693.332 277.106C691.911 273.05 690.025 269.309 689.499 264.998Z"/>
	<path fill="#463366" transform="scale(0.488281 0.488281)" d="M784.293 854.919L828.898 846.929C830.652 859.04 831.728 872.056 834.805 883.862L789.591 891.533C788.336 888.162 788.297 882.879 787.779 879.25C786.625 871.163 784.856 863.066 784.293 854.919Z"/>
	<path fill="#4583BE" transform="scale(0.488281 0.488281)" d="M433.495 123.893L455.797 126.102L455.511 201.25C455.242 201.48 455.039 201.825 454.704 201.939C453.95 202.195 451.189 201.742 450.247 201.703L433.384 200.941L433.495 123.893Z"/>
	<path fill="#4583BE" transform="scale(0.488281 0.488281)" d="M586.297 124.23L587.75 124.08L588.456 124.75L590.052 201.43L570.03 202.972C568.712 202.973 568.625 203.076 567.624 202.25L565.87 126.125L586.297 124.23Z"/>
	<path fill="#294F95" transform="scale(0.488281 0.488281)" d="M377.158 877.459L428.299 885.683L421.332 923.812L372.371 915.288C374.537 902.86 374.278 889.768 377.158 877.459Z"/>
	<path fill="#4583BE" transform="scale(0.488281 0.488281)" d="M396.412 183.162L412.768 186.229C394.028 228.707 332.047 264.113 292.266 285.395L280.704 291.476L287.28 271.617L288.034 271.402C290.732 270.57 293.468 268.781 295.971 267.47L311.767 259.073C327.624 250.468 343.783 241.263 357.827 229.86C373.771 216.916 386.856 201.362 396.412 183.162Z"/>
	<path fill="#F6B743" transform="scale(0.488281 0.488281)" d="M460.104 126.874L496.556 129.146L496.934 187.901L459.997 186.208L460.104 126.874Z"/>
	<path fill="#4583BE" transform="scale(0.488281 0.488281)" d="M548.166 190.718L554.455 190.519L554.511 284.1L554.61 313.265C554.63 319.117 554.923 325.171 554.394 331C554.073 334.526 553.024 338.066 551.751 341.359C544.858 359.192 530.036 372.296 512.883 379.991L506.915 382.099C506.946 380.225 506.66 369.305 507.143 368.481C507.373 368.089 511.813 366.321 512.5 365.974C529.983 357.144 541.002 344.573 542.428 324.49C543.321 311.9 542.616 298.922 542.585 286.289L542.469 215.988C542.466 212.598 541.665 192.876 543 191.051L548.166 190.718Z"/>
	<path fill="#4583BE" transform="scale(0.488281 0.488281)" d="M327.494 169.874L376.516 179.639C365.524 201.069 347.383 216.583 327.523 229.632L295.206 248.134L327.494 169.874Z"/>
	<path fill="#ED761B" transform="scale(0.488281 0.488281)" d="M558.948 127.224C560.195 127.074 560.193 126.804 561.25 127.608L562.909 185.955L501.098 187.943L501.072 161.911L524.236 161.995C529.167 162.011 548.61 163.15 551.25 161.083C552.933 159.765 554.352 157.875 554.535 155.689C554.703 153.688 554.162 151.544 552.723 150.082C551.245 148.582 548.941 148.284 546.944 148.066C542.054 147.531 536.704 147.91 531.771 147.891L501.276 147.731L501.229 129.334L558.948 127.224Z"/>
	<path fill="#E45113" transform="scale(0.488281 0.488281)" d="M641.855 116.81L691.32 108.135L695.613 163.697L644.569 173.283L641.855 116.81Z"/>
	<path fill="#ED761B" transform="scale(0.488281 0.488281)" d="M644.569 173.283L594.139 181.913L593.055 123.641L641.855 116.81L644.569 173.283Z"/>
	<path fill="#294F95" transform="scale(0.488281 0.488281)" d="M650.151 176.706L697.105 167.752L734.852 263.247C715.911 254.969 697.639 242.969 680.999 230.765C677.51 228.205 673.624 225.798 670.463 222.864C671.015 219.044 661.861 202.665 659.832 198.395L650.151 176.706Z"/>
	<path fill="#ED761B" transform="scale(0.488281 0.488281)" d="M700.505 302.9C691.599 298.715 682.959 292.988 674.571 287.838C655.539 276.152 636.985 263.432 620.212 248.636C605.489 235.649 592.533 221.431 579.765 206.586C581.422 205.986 583.717 206.184 585.487 206.092L594.362 205.404L594.25 186.634C595.365 186.397 602.389 184.745 603.211 185.05C603.989 185.339 609.282 193.879 610.238 195.084C617.077 203.711 624.51 211.957 632.163 219.871C649.177 237.465 669.019 251.764 689.499 264.998C690.025 269.309 691.911 273.05 693.332 277.106L698.71 294.199C699.435 296.839 700.564 300.153 700.505 302.9Z"/>
	<path fill="#4583BE" transform="scale(0.488281 0.488281)" d="M532.543 191.284L538.937 191.005L539.083 271.987L539.225 303.367C539.266 313.539 540.051 324.776 537.289 334.649C533.474 348.281 524.281 355.87 512.397 362.472L507.399 364.893L508.169 191.935L532.543 191.284Z"/>
	<path fill="#F6B743" transform="scale(0.488281 0.488281)" d="M417.13 186.913L429.026 188.639L429.036 204.991L437.897 205.204C429.729 217.389 419.086 228.818 408.834 239.235C400.696 247.505 392.365 255.679 383.43 263.092C353.403 288.003 320.176 306.637 284.703 322.543L270.513 329.622L277.613 302.5C277.929 301.326 278.664 296.82 279.341 296.052C280.151 295.133 283.985 293.792 285.355 293.117L304.64 283.298C322.225 273.909 338.87 263.632 355.165 252.151C379.312 235.139 404.932 214.511 417.13 186.913Z"/>
	<path fill="#294F95" transform="scale(0.488281 0.488281)" d="M642.231 111.674C633.519 113.761 623.899 114.389 615 115.632C573.445 121.436 530.603 125.249 488.619 123.324L455.018 120.78C446.805 119.907 438.487 118.634 430.25 118.212L429.281 119.75C420.801 119.237 412.132 117.526 403.747 116.125L344.408 104.995C345.747 104.078 368.083 102.425 371.473 102.149C433.076 97.1354 495.521 95.4993 557.307 97.5428L642.083 102.502C642.188 105.455 642.603 108.762 642.231 111.674Z"/>
	<path fill="#F6B743" transform="scale(0.488281 0.488281)" d="M333.287 107.75L429.36 124.909L429.089 183.5C427.755 184.386 425.688 183.686 424.095 183.454L327.857 165.73L333.287 107.75Z"/>
	<path fill="#5B5C9F" transform="scale(0.488281 0.488281)" d="M789.591 891.533L603.326 923.456L596.027 887.6L784.293 854.919C784.856 863.066 786.625 871.163 787.779 879.25C788.297 882.879 788.336 888.162 789.591 891.533Z"/>
	<path fill="#5B5C9F" transform="scale(0.488281 0.488281)" d="M372.371 915.288L190.341 884.851L195.002 847.853L377.158 877.459C374.278 889.768 374.537 902.86 372.371 915.288Z"/>
	<path fill="#4583BE" transform="scale(0.488281 0.488281)" d="M471.465 439.167C472.143 441.87 469.126 446.975 468.161 449.716L464.284 462.533C460.606 466.202 457.278 470.517 453.975 474.532C436.773 495.444 424.983 518.122 415.446 543.408C407.035 565.706 401.293 589.136 396.159 612.377L379.913 694.57L348.101 868.754L332.195 866.315L382.125 601.124C394.161 540.489 417.686 475.093 471.465 439.167Z"/>
	<path fill="#4583BE" transform="scale(0.488281 0.488281)" d="M510.368 436.724C527.168 442.063 542.293 452.557 554.901 464.75C576.872 485.997 592.702 513.634 603.731 541.881C619.22 581.546 626.769 623.092 635.214 664.644L650.374 741.608L661.491 794.5L672.458 846.676L675.486 861.5C676.046 864.19 676.888 866.997 676.939 869.75L675.361 870.236L658.936 873.241L652.725 844.222L631.782 734.75C622.488 684.103 614.325 632.906 600.516 583.25C595.427 564.948 589.938 546.433 582.344 528.991C567.624 495.178 547.281 465.742 511.676 451.705L510.368 436.724Z"/>
	<path fill="#4583BE" transform="scale(0.488281 0.488281)" d="M508.815 419.755C516.448 422.235 523.954 424.8 531.159 428.372C557.872 441.617 580.856 463.65 597.368 488.32C614.212 513.488 625.353 542.593 634.183 571.405C641.063 593.852 645.749 617.08 650.75 640.007L674.132 756.5L690.258 834.56L695.27 858.057C695.778 860.521 697.176 864.252 696.692 866.682L694.75 867.108L680.444 869.53C679.042 867.243 678.544 861.141 677.961 858.325L669.514 816.294L646.337 703.117L629.485 619.406C621.497 583.091 611.938 546.753 594.642 513.615C576.542 478.937 548.678 445.198 510.081 433.094L508.815 419.755Z"/>
	<path fill="#4583BE" transform="scale(0.488281 0.488281)" d="M459.292 473.949C459.178 478.934 457.051 485.333 455.702 490.197C455.057 492.522 453.86 495.035 454.232 497.458C450.859 503.999 447.646 510.646 444.954 517.5C443.894 520.199 442.504 523.07 442.186 525.968L442.853 526.5L377.094 873.738L351.53 869.306L363.102 807.566L388.998 665.534L398.76 617.498C402.541 599.485 406.549 581.194 412.155 563.654C420.077 538.871 429.923 514.546 444.563 492.934C448.993 486.396 453.8 479.629 459.292 473.949Z"/>
	<path fill="#294F95" transform="scale(0.488281 0.488281)" d="M442.186 525.968L442.452 525.655C444.324 523.348 445.46 520.448 446.805 517.817L453.029 506.284C465.721 484.063 482.35 465.967 506.062 455.48L509.011 465.472C509.436 466.863 510.406 469.076 510.358 470.527C510.306 472.13 508.827 474.882 508.369 476.564L505.464 489.793L490.082 566.693L458.465 727.074L438.144 834.502L429.052 882.174L377.094 873.738L442.853 526.5L442.186 525.968Z"/>
	<path fill="#4583BE" transform="scale(0.488281 0.488281)" d="M512.108 455.523C515.967 456.979 519.647 459.054 523.198 461.138C542.225 472.305 556.14 487.205 567.098 506.243C581.766 531.728 591.127 561.255 598.599 589.56L617.503 676L644.378 819.485L655.912 873.84L647.886 875.025L595.491 884.097L512.108 455.523Z"/>
	<path fill="#294F95" transform="scale(0.488281 0.488281)" d="M701.202 308.418L755.411 333.286C760.663 349.941 763.969 367.066 767.392 384.166L780.683 458.406L801.717 624.917L810.818 701.5L823.115 803.841L828.627 843.729L784.346 851.367L701.202 308.418Z"/>
	<path fill="#ED761B" transform="scale(0.488281 0.488281)" d="M437.67 904.623L513.145 507.127L586.848 905.623C584.53 906.792 451.425 906.206 438.5 905.546L437.67 904.623Z"/>
	<path fill="#4583BE" transform="scale(0.488281 0.488281)" d="M784.346 851.367L700.201 866.27L690.382 818.088L674.66 741.305L656.167 648.554C646.826 603.22 636.841 556.738 616.585 514.84C598.437 477.302 571.314 444.639 533.508 425.695C525.51 421.687 516.97 418.65 508.53 415.71C507.952 410.078 506.841 404.366 506.508 398.737C506.267 394.643 506.471 390.451 506.548 386.349C527.826 378.158 546.724 364.128 554.99 342.189C556.328 338.638 557.256 334.899 557.605 331.117C558.891 317.15 558.007 302.578 558 288.515L557.977 209.819L557.971 195.432C557.97 193.849 557.58 191.798 558.5 190.501C560.082 190.462 562.072 190.017 563.25 191.076L563.712 207.607C565.477 207.608 573.95 206.179 574.415 206.44C574.978 206.758 576.344 208.921 576.811 209.516L586.314 221.256C595.133 231.534 604.652 240.943 614.79 249.906C626.057 259.867 637.948 269.433 650.399 277.88C666.824 289.024 684.061 298.497 701.202 308.418L784.346 851.367Z"/>
	<path fill="#4583BE" transform="scale(0.488281 0.488281)" d="M474.665 432.447C473.437 433.872 470.66 435.351 469.062 436.499L458.066 444.888C443.361 456.852 430.884 471.395 420.408 487.157C394.509 526.123 384.258 571.759 375.415 616.968L362.301 686.924L336.915 821.403L328.746 865.686L195.72 843.835L205.743 762.549L220.745 639.542L246.849 445.401L261.314 369.131L267.163 343.187C267.641 341.281 268.2 337.56 269.235 335.92C269.899 334.869 273.342 333.231 274.458 332.603C286.584 325.786 299.703 320.852 312.112 314.544C348.01 296.296 380.319 273.437 409.065 245.228C421.324 233.198 433.694 219.56 442.966 205.062L459.497 206.308L459.822 190.396L497.467 192.103L496.618 374.868C495.089 377.432 494.284 380.303 493.262 383.092L488.328 396.543C483.833 408.398 478.117 420.272 474.665 432.447Z"/>
</svg>
