<?xml version="1.0" encoding="utf-8" ?>
<svg xmlns="http://www.w3.org/2000/svg" xmlns:xlink="http://www.w3.org/1999/xlink" width="500" height="500">
	<path fill="#59CBBB" transform="scale(0.488281 0.488281)" d="M-0 -0L1024 0L1024 1024L-0 1024L0 -0Z"/>
	<path fill="#2DA790" transform="scale(0.488281 0.488281)" d="M234.968 846.762L259.334 870.75L269.097 880.404C270.41 881.787 272.076 883.227 272.91 884.939L272.575 884.701C268.168 881.474 263.791 876.711 259.92 872.795L238.66 894.801C233.957 899.64 229.34 905.07 224.011 909.226C216.674 914.948 208.833 917.752 199.752 919.209C188.504 921.013 174.918 917.683 165.794 910.909C160.347 906.864 155.484 901.954 150.541 897.323C148.126 895.06 145.255 892.995 143.474 890.193C152.812 894.452 162.275 897.49 172.679 896.106L173.929 896.05C179.993 895.532 185.82 893.588 190.992 890.375C201.133 884.074 209.761 873.238 218.02 864.628C223.691 858.715 229.686 853.025 234.968 846.762Z"/>
	<path fill="#2DA790" transform="scale(0.488281 0.488281)" d="M841.211 176.954C845.888 178.895 850.564 184.451 854.222 187.986C867.804 201.109 879.887 215.531 889.557 231.801C895.442 241.703 900.279 252.45 904.657 263.094C925.38 313.471 923.925 370.161 903.107 420.19C882.779 469.041 841.476 510.754 792.428 530.73C735.522 553.907 671.376 553.554 614.666 529.52C612.629 528.657 610.657 527.328 608.536 526.746L458.502 678.239L470.981 713.561L426.306 759.276L413.501 772.219C410.946 774.793 408.069 777.328 405.977 780.292L413.752 811.212C411.363 815.073 406.937 818.788 403.706 822.015L384.14 841.541L337.012 889.535C328.398 898.351 320.159 908.358 310.485 915.991L293.009 899.544C290.572 897.189 287.968 894.131 285.173 892.224C283.495 891.08 282.077 892.022 280.418 891.024C277.389 890.199 275.059 887.108 272.91 884.939C272.076 883.227 270.41 881.787 269.097 880.404L259.334 870.75L234.968 846.762C237.09 843.823 240.014 841.145 242.522 838.519L258.6 822.056L305.368 774.626C317.485 762.578 330.255 750.551 341.364 737.573L419.922 658.54C422.488 655.087 426.387 651.977 429.428 648.89L454.294 623.901L553.56 524.75L572.924 505.306C574.692 503.561 577.989 501.207 579.254 499.253C579.591 498.733 579.753 497.184 579.914 496.517C580.2 496.067 580.822 495.724 581.25 495.405L582.25 496.093C586.399 499.196 591.308 501.051 596.053 503.076C612.759 510.208 629.956 515.35 647.919 518.081C702.453 526.374 758.788 513.271 803.339 480.455C847.999 447.558 878.126 398.968 886.341 343.886C893.583 295.326 884.183 246.866 859.676 204.227C854.17 194.646 847.769 185.825 841.211 176.954Z"/>
	<path fill="#EC7609" transform="scale(0.488281 0.488281)" d="M419.922 658.54L437.856 689.94L368.374 760.237L380.037 771.896C381.094 772.966 383.671 775.086 384.127 776.535C384.729 778.446 384.455 782.616 384.48 784.75C384.486 785.269 384.519 786.434 384.378 786.923C383.804 788.905 379.801 792.086 378.352 793.673L356.112 817.215L314.62 858.75L288.508 885.104C286.858 886.679 284.646 889.435 282.75 890.569C282.31 890.832 280.978 890.915 280.418 891.024C277.389 890.199 275.059 887.108 272.91 884.939C272.076 883.227 270.41 881.787 269.097 880.404L259.334 870.75L234.968 846.762C237.09 843.823 240.014 841.145 242.522 838.519L258.6 822.056L305.368 774.626C317.485 762.578 330.255 750.551 341.364 737.573L419.922 658.54Z"/>
	<path fill="#FCCF3F" transform="scale(0.488281 0.488281)" d="M135.964 883.304L135.245 882.593C127.334 874.507 123.126 861.436 123.525 850.25C124.231 830.515 139.687 819.442 153.01 807.202L105.799 761.898L126.304 741.545L146.444 761.958C152.729 754.327 160.453 747.363 167.548 740.463C170.366 737.723 173.558 735.022 176.022 731.975L153.231 709.433L172.132 690.047L194.537 712.416L226.675 679.996C225.159 677.613 221.987 675.251 219.908 673.25L203.991 658.312L223.359 640.195C226.269 641.569 229.976 646.48 232.371 648.794L267.332 683.09L512.135 437.559C506.246 430.752 501.596 422.558 497.412 414.61C481.04 383.512 472.864 349.025 473.005 313.901C473.234 256.964 496.99 203.715 537.247 163.899C577.134 124.449 631.952 103.205 687.796 103.573C739.997 103.918 791.576 125.929 828.222 163.018L812.326 179.828C809.324 182.93 805.211 186.183 802.977 189.851L802.48 190.099C795.092 183.32 787.692 176.556 779.422 170.852C749.325 150.095 711.488 139.819 675.082 141.418C630.066 143.396 585.333 165.431 555.051 198.456C523.267 233.119 506.959 279.054 509.539 326.02C509.919 332.954 511.267 340.242 512.641 347.055C519.997 383.54 539.287 417.813 567.227 442.54L572.783 447.287L135.964 883.304Z"/>
	<path fill="#F9FBF6" transform="scale(0.488281 0.488281)" d="M507.656 459.534C510.198 459.535 512.805 459.927 514.738 461.75C516.359 463.28 517.522 466.007 517.44 468.25C517.318 471.586 515.265 473.906 513.173 476.282C507.655 482.549 501.059 488.051 495.23 494.057L438.414 551.747L388.94 601.333L330.189 660.411L318.435 648.397L368.975 597.458L450.954 514.752L485.345 479.857C491.016 474.105 496.532 467.931 502.499 462.497C504.136 461.006 505.546 460.2 507.656 459.534Z"/>
	<path fill="#F79A21" transform="scale(0.488281 0.488281)" d="M135.964 883.304L572.783 447.287L567.227 442.54C539.287 417.813 519.997 383.54 512.641 347.055C511.267 340.242 509.919 332.954 509.539 326.02C506.959 279.054 523.267 233.119 555.051 198.456C585.333 165.431 630.066 143.396 675.082 141.418C711.488 139.819 749.325 150.095 779.422 170.852C787.692 176.556 795.092 183.32 802.48 190.099L802.977 189.851C805.211 186.183 809.324 182.93 812.326 179.828L828.222 163.018L841.211 176.954C847.769 185.825 854.17 194.646 859.676 204.227C884.183 246.866 893.583 295.326 886.341 343.886C878.126 398.968 847.999 447.558 803.339 480.455C758.788 513.271 702.453 526.374 647.919 518.081C629.956 515.35 612.759 510.208 596.053 503.076C591.308 501.051 586.399 499.196 582.25 496.093L581.25 495.405C580.822 495.724 580.2 496.067 579.914 496.517C579.753 497.184 579.591 498.733 579.254 499.253C577.989 501.207 574.692 503.561 572.924 505.306L553.56 524.75L454.294 623.901L429.428 648.89C426.387 651.977 422.488 655.087 419.922 658.54L341.364 737.573C330.255 750.551 317.485 762.578 305.368 774.626L258.6 822.056L242.522 838.519C240.014 841.145 237.09 843.823 234.968 846.762C229.686 853.025 223.691 858.715 218.02 864.628C209.761 873.238 201.133 884.074 190.992 890.375C185.82 893.588 179.993 895.532 173.929 896.05L172.679 896.106C162.275 897.49 152.812 894.452 143.474 890.193L135.964 883.304Z"/>
	<defs>
		<linearGradient id="gradient_0" gradientUnits="userSpaceOnUse" x1="380.65875" y1="700.58777" x2="372.84109" y2="692.896">
			<stop offset="0" stop-color="#8E380E"/>
			<stop offset="1" stop-color="#FFA720"/>
		</linearGradient>
	</defs>
	<path fill="url(#gradient_0)" transform="scale(0.488281 0.488281)" d="M334.589 741.796L416.744 659.422L495.945 580L549.668 525.972C559.453 516.126 569.075 505.17 579.914 496.517C579.753 497.184 579.591 498.733 579.254 499.253C577.989 501.207 574.692 503.561 572.924 505.306L553.56 524.75L454.294 623.901L429.428 648.89C426.387 651.977 422.488 655.087 419.922 658.54L341.364 737.573C330.255 750.551 317.485 762.578 305.368 774.626L258.6 822.056L242.522 838.519C240.014 841.145 237.09 843.823 234.968 846.762C229.686 853.025 223.691 858.715 218.02 864.628C209.761 873.238 201.133 884.074 190.992 890.375C185.82 893.588 179.993 895.532 173.929 896.05L172.679 896.106C179.716 893.539 186.914 891.104 192.851 886.362C198.337 881.98 203.252 876.485 208.125 871.443L237.606 840.13L300.987 775.505L334.589 741.796Z"/>
	<path fill="#EC7609" transform="scale(0.488281 0.488281)" d="M802.977 189.851C806.308 194.431 810.263 198.494 813.783 202.93C822.698 214.165 830.669 226.352 836.44 239.502C840.535 248.835 845.25 259.035 847.428 269.002L848.918 275.002L850.682 284.25C853.356 296.968 852.693 310.188 852.71 323.125C852.711 323.908 852.747 323.57 852.467 324.207C851.641 326.088 852.572 328.747 852.153 330.75C851.499 333.871 851.333 337.125 850.745 340.25C850.362 342.287 850.32 344.235 849.745 346.25L849.316 348.874C849.174 349.785 848.934 350.614 848.693 351.5C846.334 360.169 844.232 369.243 840.63 377.5L828.711 401.376C811.296 431.942 780.154 458.901 747.497 471.921L743.497 473.462C738.717 475.173 733.945 477.244 728.997 478.442C724.16 479.613 719.376 481.102 714.464 481.92L712.421 482.381L708.717 483.058L701.79 484.046C697.849 484.743 692.751 483.938 689.069 484.979C687.167 485.516 684.394 485.146 682.398 485.133C676.063 485.092 669.518 485.056 663.25 484.231C660.323 483.846 657.373 483.903 654.5 483.219C652.772 482.807 650.847 482.852 649.077 482.537C643.704 481.58 638.253 480.408 633.003 478.911C624.99 476.626 617.574 473.243 609.777 470.471C607.2 469.555 604.896 467.881 602.499 466.579C592.257 461.016 582.21 454.762 573.192 447.365C575.791 443.315 580.529 439.874 583.624 436.001C586.925 437.385 590.458 440.689 593.478 442.764C597.062 445.227 600.934 447.397 604.75 449.478C631.11 463.86 660.865 470.23 690.808 468.329C731.384 465.753 770.926 447.35 797.77 416.561C825.186 385.116 839.273 344.337 836.141 302.549C834.652 282.693 829.832 261.701 821.122 243.707C816.78 234.736 810.99 225.914 805.121 217.869C800.988 212.203 796.693 206.088 791.356 201.506C795.206 199.271 799.432 193.52 802.48 190.099L802.977 189.851Z"/>
	<path fill="#FCCF3F" transform="scale(0.488281 0.488281)" d="M583.544 435.48L582.471 434.589C549.85 405.459 527.171 365.238 525.522 320.873C523.936 278.243 539.112 238.638 568.071 207.424C596.296 177.001 636.686 158.967 678.117 157.581C720.881 156.15 760.21 172.425 791.178 201.462C788.34 206.162 782.76 210.744 778.866 214.706L749.27 244.494C742.405 251.419 735.827 259.123 728.649 265.655C732.156 270.075 735.456 274.625 738.009 279.675C745.64 295.146 746.83 312.762 741.368 329.134C736.594 343.441 723.997 357.216 710.556 363.81C698.395 369.776 684.028 371.723 670.75 369.175C665.358 368.14 660.349 366.813 655.445 364.265L654.106 363.857C652.617 366.6 650.108 368.509 647.877 370.627L638.886 379.626L587.775 431.931C586.525 433.168 585.217 434.89 583.544 435.48Z"/>
	<path fill="#F9FBF6" transform="scale(0.488281 0.488281)" d="M561.094 236.035C563.017 235.928 564.883 235.961 566.75 236.494C569.677 237.33 571.906 238.969 573.282 241.715C576.17 247.477 573.318 251.689 570.75 256.812C565.492 267.304 561.866 278.602 560.344 290.25C559.772 294.631 560.113 300.953 558.493 304.952C557.002 308.632 553.883 310.509 550.398 311.975L549.959 312.006L549.228 312.027C547.834 312.073 546.492 312.125 545.154 311.652C541.73 310.441 539.189 307.689 537.82 304.376C536.445 301.053 537.259 297.609 537.606 294.154C538.945 280.809 542.211 267.765 547.337 255.368C550.565 247.559 552.735 239.491 561.094 236.035Z"/>
	<path fill="#F9FBF6" transform="scale(0.488281 0.488281)" d="M627.48 179.529L630.75 179.538C633.903 179.964 637.377 181.971 639.173 184.608C640.867 187.096 641.621 189.926 640.905 192.891C639.133 200.225 632.935 201.022 626.842 203.217C613.809 207.912 601.481 215.978 591.462 225.493C587.761 229.007 584.485 233.679 580.186 236.417C577.207 236.952 574.024 236.715 571.292 235.338C569.128 234.247 567.368 232.379 566.74 229.992C565.888 226.754 566.764 222.94 568.397 220.109C570.662 216.183 574.061 213.077 577.299 209.962C590.788 196.982 609.343 184.821 627.48 179.529Z"/>
	<path fill="#2DA790" transform="scale(0.488281 0.488281)" d="M654.106 363.857C648.911 360.731 643.845 357.82 639.411 353.6C627.207 341.983 620.434 326.678 620.105 309.837C619.792 293.832 626.3 276.622 637.502 265.161C649.153 253.24 665.575 246.036 682.301 245.857C693.983 245.732 706.127 248.561 716.004 254.991C720.73 258.068 724.631 261.741 728.649 265.655C732.156 270.075 735.456 274.625 738.009 279.675L737.144 279.298C734.164 277.96 731.504 275.875 728.5 274.481C719.204 270.166 706.388 268.99 696.474 271.33C681.138 274.951 666.621 283.219 657.604 296.537C648.291 310.293 645.331 326.662 648.08 342.921C649.195 349.515 651.981 356.792 655.486 362.5L655.445 364.265L654.106 363.857Z"/>
	<path fill="#59CBBB" transform="scale(0.488281 0.488281)" d="M655.445 364.265L655.486 362.5C651.981 356.792 649.195 349.515 648.08 342.921C645.331 326.662 648.291 310.293 657.604 296.537C666.621 283.219 681.138 274.951 696.474 271.33C706.388 268.99 719.204 270.166 728.5 274.481C731.504 275.875 734.164 277.96 737.144 279.298L738.009 279.675C745.64 295.146 746.83 312.762 741.368 329.134C736.594 343.441 723.997 357.216 710.556 363.81C698.395 369.776 684.028 371.723 670.75 369.175C665.358 368.14 660.349 366.813 655.445 364.265Z"/>
</svg>
