<?xml version="1.0" encoding="utf-8" ?>
<svg xmlns="http://www.w3.org/2000/svg" xmlns:xlink="http://www.w3.org/1999/xlink" width="500" height="500">
	<path fill="#102F48" transform="scale(0.488281 0.488281)" d="M-0 -0L1024 0L1024 1024L-0 1024L0 -0Z"/>
	<path fill="#FCF9F8" transform="scale(0.488281 0.488281)" d="M507.669 80.3179C504.207 78.0829 501.207 75.4926 500.392 71.1949C499.791 68.024 500.645 64.8939 502.484 62.2835C504.372 59.6054 507.2 57.5139 510.5 57.0516C513.728 56.5993 516.451 57.2979 519.015 59.2958C521.743 61.4214 523.89 64.7878 524.25 68.2688C524.573 71.396 523.157 74.797 521.116 77.0942C519.861 78.5059 518.474 79.6496 516.882 80.6526C513.677 81.3337 510.823 81.1935 507.669 80.3179Z"/>
	<path fill="#96B9C4" transform="scale(0.488281 0.488281)" d="M507.669 80.3179C510.823 81.1935 513.677 81.3337 516.882 80.6526L517.014 189.165L507.545 189.139L507.669 80.3179Z"/>
	<path fill="#54BBB4" transform="scale(0.488281 0.488281)" d="M646.993 599.87L647.445 599.995L706.6 792.957L720.326 837.082C721.676 841.37 722.708 847.945 725.119 851.631L725.386 851.666L727.611 860C728.023 861.451 728.827 863.062 728.569 864.582L728.303 864.877L726.935 863.25C722.189 858.507 715.926 858.12 709.681 858.071L701.792 832.456C700.629 825.451 697.923 818.258 695.832 811.468L687.626 784.092L657.643 685.998L634.465 612.558L634.475 612.158C639.257 609.993 643.118 604.021 646.589 600.285L646.993 599.87Z"/>
	<path fill="#54BBB4" transform="scale(0.488281 0.488281)" d="M376.017 604.863C381.006 606.385 384.76 610.568 389.472 612.51L389.576 612.889L366.909 684.432L342.277 764.547L328.731 807.595C326.459 814.958 323.419 823.063 322.135 830.62L313.783 858.009L299.019 858.077L294.25 857.821C294.055 856.926 294.007 857.204 294.172 856.44C294.396 855.4 294.672 854.509 294.628 853.428L294.586 852.67C294.882 852.48 295.679 852.155 295.877 851.925C296.237 851.508 296.543 850.078 296.76 849.466L299.34 841.898L317.159 786.196L346.088 695.721L375.512 605.172L376.017 604.863Z"/>
	<path fill="#234D6E" transform="scale(0.488281 0.488281)" d="M507.545 189.139L517.014 189.165C522.116 189.08 531.037 187.815 535.512 190.25L579.5 212.465C585.936 215.621 593.813 218.389 599.654 222.452L607.378 222.577C603.871 226.465 599.7 232.134 595.223 234.769L580.523 234.488L556.506 234.41C552.482 234.394 548.098 234.717 544.125 234.256C540.077 233.786 535.799 234.045 531.714 234.036L510.406 234.009C492.342 234.003 473.783 233.266 455.77 234.414L445.905 234.452L445.499 234.543C440.604 234.188 435.39 234.709 430.495 235.067L419.675 222.624L449.521 222.407C442.521 221.48 434.575 222.122 427.464 222.031C433.672 217.872 441.321 214.772 448.086 211.524L479.299 196.34C483.489 194.282 488.869 190.328 493.25 189.255C497.312 188.26 503.294 189.08 507.545 189.139Z"/>
	<path fill="#080B17" transform="scale(0.488281 0.488281)" d="M449.521 222.407L599.654 222.452L607.378 222.577C603.871 226.465 599.7 232.134 595.223 234.769L580.523 234.488L556.506 234.41C552.482 234.394 548.098 234.717 544.125 234.256C540.077 233.786 535.799 234.045 531.714 234.036L510.406 234.009C492.342 234.003 473.783 233.266 455.77 234.414L445.905 234.452L445.499 234.543C440.604 234.188 435.39 234.709 430.495 235.067L419.675 222.624L449.521 222.407Z"/>
	<path fill="#EF9015" transform="scale(0.488281 0.488281)" d="M455.77 234.414C473.783 233.266 492.342 234.003 510.406 234.009L531.714 234.036C535.799 234.045 540.077 233.786 544.125 234.256C548.098 234.717 552.482 234.394 556.506 234.41L580.523 234.488L580.517 267.334C580.513 272.391 581.079 278.192 580.344 283.171L580.409 285.78L583.862 285.537L609.952 285.479L609.99 296.052L610.085 311.924L554.709 311.914L540.94 311.777L510.216 311.606L483.88 311.545L470.52 311.589L412.538 311.948L412.463 296.01L412.433 285.461L440.664 285.476L445.4 285.581L445.499 234.543L445.905 234.452L455.77 234.414Z"/>
	<path fill="#3A1B06" transform="scale(0.488281 0.488281)" d="M445.499 234.543L445.905 234.452L445.856 283.157L513.525 283.198L532.835 283.258C536.147 283.27 539.868 283.61 543.134 283.189L580.344 283.171L580.409 285.78L445.4 285.581L445.499 234.543Z"/>
	<path fill="#A9671C" transform="scale(0.488281 0.488281)" d="M455.77 234.414C473.783 233.266 492.342 234.003 510.406 234.009L531.714 234.036C535.799 234.045 540.077 233.786 544.125 234.256C548.098 234.717 552.482 234.394 556.506 234.41L580.523 234.488L580.517 267.334C580.513 272.391 581.079 278.192 580.344 283.171L543.134 283.189L543.284 234.521L455.77 234.414Z"/>
	<path fill="#6E3302" transform="scale(0.488281 0.488281)" d="M440.664 285.476L445.4 285.581L580.409 285.78L583.862 285.537L609.952 285.479L609.99 296.052L610.085 311.924L554.709 311.914L540.94 311.777L510.216 311.606L483.88 311.545L470.52 311.589L412.538 311.948L412.463 296.01L412.433 285.461L440.664 285.476Z"/>
	<path fill="#A9671C" transform="scale(0.488281 0.488281)" d="M440.664 285.476L445.4 285.581L580.409 285.78L583.862 285.537L609.952 285.479L609.99 296.052C604.18 295.355 597.422 296.013 591.534 296.011L550.784 296.003L412.463 296.01L412.433 285.461L440.664 285.476Z"/>
	<path fill="#080B17" transform="scale(0.488281 0.488281)" d="M805.301 889.56L805.459 889.971C806.652 893.842 806.626 904.221 804.799 907.75C803.28 910.684 799.961 913.452 797.311 915.312C788.688 921.366 778.269 925.455 768.338 928.83C730.646 941.644 689.477 947.137 650.073 951.217C601.946 956.199 553.06 958.585 504.672 958.237L459.964 956.888C407.88 955.069 355.59 951.043 304.419 940.818C281.005 936.139 257.484 931.149 235.938 920.487C230.544 917.818 222.704 913.41 220.907 907.148C220.075 904.248 220.447 900.45 220.421 897.438C220.398 894.726 219.827 891.493 221.156 889.119C232.44 900.475 251.537 905.276 266.602 909.165C301.845 918.264 338.539 922.41 374.75 925.508L506.273 931.098L639.5 926.657C681.08 923.803 723.478 919.767 763.828 908.905C777.347 905.265 793.498 901.28 803.742 891.132L805.301 889.56Z"/>
	<path fill="#234D6E" transform="scale(0.488281 0.488281)" d="M583.862 285.537L882.912 34.7047L855.43 102.07L816.764 195.597L755.194 345.094L692.992 494L657.084 577.682L650.693 592.177C649.637 594.498 647.82 597.505 647.445 599.995L646.993 599.87C646.388 596.922 644.954 593.861 643.954 590.985L638.342 573.953L612.862 494L576.566 381.112L554.709 311.914L610.085 311.924L609.99 296.052L609.952 285.479L583.862 285.537Z"/>
	<path fill="#234D6E" transform="scale(0.488281 0.488281)" d="M375.512 605.172C374.24 603.961 373.862 602.112 373.24 600.487L369.241 590.398L351.825 547.398L217.013 219L166.434 93.5621L152.643 59.5895C149.456 51.5056 146.585 43.1781 142.743 35.3857C150.06 40.6502 156.741 47.1132 163.611 52.9571L200.412 84.0819L267.215 139.965L314.486 180.09L335.266 196.928L403.978 254.573L432.833 278.638C435.47 280.931 438.298 282.882 440.664 285.476L412.433 285.461L412.463 296.01L412.538 311.948L470.52 311.589L376.017 604.863L375.512 605.172Z"/>
	<path fill="#FBC532" transform="scale(0.488281 0.488281)" d="M483.88 311.545L510.216 311.606L540.94 311.777L554.709 311.914L576.566 381.112L612.862 494L638.342 573.953L643.954 590.985C644.954 593.861 646.388 596.922 646.993 599.87L646.589 600.285C643.118 604.021 639.257 609.993 634.475 612.158L634.465 612.558L657.643 685.998C650.481 690.013 643.643 695.216 636.832 699.826L594.007 729.284L584.25 736.056C582.258 737.48 580.395 739.274 578.048 740.06L512.375 695.022L510.088 694.488L509.911 688.421C509.695 689.975 510.115 691.629 509.25 692.967C508.34 692.611 508.56 692.779 507.917 692.287L389.576 612.889L389.472 612.51C384.76 610.568 381.006 606.385 376.017 604.863L470.52 311.589L483.88 311.545Z"/>
	<path fill="#EF9015" transform="scale(0.488281 0.488281)" d="M510.216 311.606L540.94 311.777L543.127 321.342L510.345 321.128L510.216 311.606Z"/>
	<path fill="#AED9ED" transform="scale(0.488281 0.488281)" d="M540.94 311.777L554.709 311.914L576.566 381.112L612.862 494L638.342 573.953L643.954 590.985C644.954 593.861 646.388 596.922 646.993 599.87L646.589 600.285C643.118 604.021 639.257 609.993 634.475 612.158L543.127 321.342L540.94 311.777Z"/>
	<path fill="#EF9015" transform="scale(0.488281 0.488281)" d="M634.465 612.558L657.643 685.998C650.481 690.013 643.643 695.216 636.832 699.826L594.007 729.284L584.25 736.056C582.258 737.48 580.395 739.274 578.048 740.06L512.375 695.022L634.465 612.558Z"/>
	<path fill="#FBE69B" transform="scale(0.488281 0.488281)" d="M483.88 311.545L510.216 311.606L510.345 321.128L510.408 377.616L510.295 393.434C510.271 396.06 510.488 398.987 510.092 401.57L509.911 688.421C509.695 689.975 510.115 691.629 509.25 692.967C508.34 692.611 508.56 692.779 507.917 692.287L389.576 612.889L389.472 612.51C384.76 610.568 381.006 606.385 376.017 604.863L470.52 311.589L483.88 311.545Z"/>
	<path fill="#AED9ED" transform="scale(0.488281 0.488281)" d="M470.52 311.589L483.88 311.545L481.044 320.99L459.317 389.873L442.989 442.75L420.783 512.057L402.336 570.927L394.164 598.078C392.817 602.573 391.646 608.434 389.472 612.51C384.76 610.568 381.006 606.385 376.017 604.863L470.52 311.589Z"/>
	<path fill="#96B9C4" transform="scale(0.488281 0.488281)" d="M389.576 612.889L507.917 692.287C508.56 692.779 508.34 692.611 509.25 692.967C510.115 691.629 509.695 689.975 509.911 688.421L510.088 694.488L512.375 695.022L578.048 740.06C580.395 739.274 582.258 737.48 584.25 736.056L594.007 729.284L636.832 699.826C643.643 695.216 650.481 690.013 657.643 685.998L687.626 784.092L695.832 811.468C697.923 818.258 700.629 825.451 701.792 832.456L709.681 858.071C715.926 858.12 722.189 858.507 726.935 863.25L728.303 864.877L728.569 864.582C728.827 863.062 728.023 861.451 727.611 860L725.386 851.666C740.083 854.889 754.762 857.815 769.212 862.072C776.761 864.296 784.386 866.662 791.426 870.223C796.291 872.684 801.871 875.985 804.925 880.635C806.25 882.654 806.825 884.69 806.182 887.067L805.301 889.56L803.742 891.132C793.498 901.28 777.347 905.265 763.828 908.905C723.478 919.767 681.08 923.803 639.5 926.657L506.273 931.098L374.75 925.508C338.539 922.41 301.845 918.264 266.602 909.165C251.537 905.276 232.44 900.475 221.156 889.119C220.574 887.961 220.003 886.757 219.679 885.496C219.113 883.292 219.994 881.39 221.213 879.59C230.551 865.806 278.023 855.991 294.586 852.67L294.628 853.428C294.672 854.509 294.396 855.4 294.172 856.44C294.007 857.204 294.055 856.926 294.25 857.821L299.019 858.077L313.783 858.009L322.135 830.62C323.419 823.063 326.459 814.958 328.731 807.595L342.277 764.547L366.909 684.432L389.576 612.889Z"/>
	<path fill="#234D6E" transform="scale(0.488281 0.488281)" d="M313.783 858.009L412.622 857.929L509.526 858.034L608.041 858.002L709.681 858.071C715.926 858.12 722.189 858.507 726.935 863.25L728.303 864.877C729.024 866.293 729.683 867.812 730.634 869.083L732.196 869.303C732.775 871.866 732.446 874.999 732.441 877.638L732.389 894.453L289.941 894.062L289.939 869.155L353.277 869.379C348.571 868.037 341.336 868.953 336.376 868.937L292.002 868.839C292.427 866.377 292.709 860.94 294.115 858.996C294.626 858.29 298.02 858.191 299.019 858.077L313.783 858.009Z"/>
	<path fill="#AED9ED" transform="scale(0.488281 0.488281)" d="M313.783 858.009L412.622 857.929L509.526 858.034L608.041 858.002L709.681 858.071C715.926 858.12 722.189 858.507 726.935 863.25L728.303 864.877C729.024 866.293 729.683 867.812 730.634 869.083L353.277 869.379C348.571 868.037 341.336 868.953 336.376 868.937L292.002 868.839C292.427 866.377 292.709 860.94 294.115 858.996C294.626 858.29 298.02 858.191 299.019 858.077L313.783 858.009Z"/>
	<path fill="#4F3C1E" transform="scale(0.488281 0.488281)" d="M657.643 685.998L687.626 784.092L695.832 811.468C697.923 818.258 700.629 825.451 701.792 832.456L709.681 858.071L608.041 858.002L509.526 858.034C509.821 856.054 509.548 853.7 509.545 851.666L509.538 838.38L509.521 787.539L509.757 786.664C510.176 785.855 510.252 785.963 511.025 785.586C513.894 785.454 570.622 745.567 578.048 740.457L578.048 740.06C580.395 739.274 582.258 737.48 584.25 736.056L594.007 729.284L636.832 699.826C643.643 695.216 650.481 690.013 657.643 685.998Z"/>
	<path fill="#3A1B06" transform="scale(0.488281 0.488281)" d="M509.757 786.664C510.176 785.855 510.252 785.963 511.025 785.586C519.792 790.848 527.91 797.624 536.137 803.693L578.562 835.111L598.73 850.084C601.695 852.343 605.817 855.054 608.041 858.002L509.526 858.034C509.821 856.054 509.548 853.7 509.545 851.666L509.538 838.38L509.521 787.539L509.757 786.664Z"/>
	<path fill="#A9671C" transform="scale(0.488281 0.488281)" d="M657.643 685.998L687.626 784.092L695.832 811.468C697.923 818.258 700.629 825.451 701.792 832.456C692.48 824.394 682.351 817.194 672.604 809.667L609.178 762.317L588.816 747.729C585.311 745.261 581.852 742.427 578.048 740.457L578.048 740.06C580.395 739.274 582.258 737.48 584.25 736.056L594.007 729.284L636.832 699.826C643.643 695.216 650.481 690.013 657.643 685.998Z"/>
	<path fill="#C8AA62" transform="scale(0.488281 0.488281)" d="M389.576 612.889L507.917 692.287C508.56 692.779 508.34 692.611 509.25 692.967C510.115 691.629 509.695 689.975 509.911 688.421L510.088 694.488L512.375 695.022L578.048 740.06L578.048 740.457C570.622 745.567 513.894 785.454 511.025 785.586C510.252 785.963 510.176 785.855 509.757 786.664L509.521 787.539L509.538 838.38L509.545 851.666C509.548 853.7 509.821 856.054 509.526 858.034L412.622 857.929L313.783 858.009L322.135 830.62C323.419 823.063 326.459 814.958 328.731 807.595L342.277 764.547L366.909 684.432L389.576 612.889Z"/>
	<path fill="#A9671C" transform="scale(0.488281 0.488281)" d="M510.088 694.488L512.375 695.022L578.048 740.06L578.048 740.457C570.622 745.567 513.894 785.454 511.025 785.586C510.252 785.963 510.176 785.855 509.757 786.664L509.698 783.731L509.63 696.712L510.088 694.488Z"/>
	<path fill="#FBC532" transform="scale(0.488281 0.488281)" d="M389.576 612.889L507.917 692.287C508.56 692.779 508.34 692.611 509.25 692.967C510.115 691.629 509.695 689.975 509.911 688.421L510.088 694.488L509.63 696.712C501.213 702.258 451.738 740.767 448.025 740.598L366.909 684.432L389.576 612.889Z"/>
	<path fill="#A68A5C" transform="scale(0.488281 0.488281)" d="M448.025 740.974C450.473 741.742 452.355 743.435 454.46 744.84L467.653 753.844L509.698 783.731L509.757 786.664L509.521 787.539L509.538 838.38L509.545 851.666C509.548 853.7 509.821 856.054 509.526 858.034L412.622 857.929L313.783 858.009L322.135 830.62L448.025 740.974Z"/>
	<path fill="#8A6E4F" transform="scale(0.488281 0.488281)" d="M412.622 857.929C412.671 857.664 412.65 857.375 412.768 857.133C413.546 855.544 431.638 843.512 434.633 841.369L509.521 787.539L509.538 838.38L509.545 851.666C509.548 853.7 509.821 856.054 509.526 858.034L412.622 857.929Z"/>
</svg>
