<?xml version="1.0" encoding="utf-8" ?>
<svg xmlns="http://www.w3.org/2000/svg" xmlns:xlink="http://www.w3.org/1999/xlink" width="500" height="500">
	<path fill="#25B7A9" transform="scale(0.488281 0.488281)" d="M1023.5 1024L-0 1024L0 -0L1023.5 0C1024.98 3.26715 1024.04 10.539 1024.03 14.4145L1024.04 51.385L1024.05 175.891L1024.05 846.013L1024.04 981.31L1024.03 1011.98C1024.03 1015.32 1024.75 1020.44 1023.75 1023.45L1023.5 1024Z"/>
	<path fill="#F9FAF8" transform="scale(0.488281 0.488281)" d="M266.154 147.554C267.262 147.716 268.52 147.92 269.5 148.494C271.267 149.529 272.561 151.356 273 153.346C273.403 155.178 272.932 157.191 271.864 158.721C270.586 160.55 268.863 161.18 266.75 161.519C265.682 161.553 264.866 161.483 263.88 161.074C262.014 160.299 260.266 158.923 259.671 156.909C259.154 155.157 259.203 153.062 260.133 151.464C261.545 149.039 263.569 148.276 266.154 147.554Z"/>
	<path fill="#F9FAF8" transform="scale(0.488281 0.488281)" d="M908.876 438.25C910.308 437.96 911.642 438.137 913.019 438.608C914.53 439.125 916.76 440.971 917.268 442.519C918.01 444.784 917.759 447.572 916.64 449.666C915.5 451.8 913.687 452.6 911.468 453.25C910.388 453.353 909.291 453.316 908.25 452.961C905.999 452.194 904.319 450.358 903.455 448.188C902.737 446.383 902.737 444.246 903.608 442.489C904.707 440.272 906.597 439.007 908.876 438.25Z"/>
	<path fill="#F9FAF8" transform="scale(0.488281 0.488281)" d="M111.105 550.75L111.714 550.646C115.063 552.513 113.434 557.265 116.073 559.647C117.901 561.297 121.064 561.168 122.901 562.98C123.822 563.889 123.748 564.038 123.703 565.25C122.057 566.729 119.744 566.417 117.796 567.292C114.717 568.674 113.906 573.815 112.807 576.75L111.75 577.4C108.961 575.401 109.616 570.797 107.928 568.174C107.074 566.847 103.988 566.988 102.5 566.397C101.183 565.874 100.828 565.259 100.345 564L100.915 562.887L104.636 561.508C109.953 559.733 108.987 555.039 111.105 550.75Z"/>
	<path fill="#F9FAF8" transform="scale(0.488281 0.488281)" d="M853.487 804.25L854.093 804.1C857.493 803.796 858.691 808.397 859.583 811.011C859.673 811.274 860.135 812.871 860.232 812.964C861.066 813.768 864.453 813.944 865.819 814.96C867.304 816.067 867.902 816.935 868.219 818.75C867.037 821.254 864.21 821.722 861.732 822.623C861.561 822.686 859.808 823.247 859.741 823.342C857.814 826.077 859.269 829.429 855.663 831.75C855.299 831.842 854.863 831.974 854.488 831.958C849.496 831.751 850.933 826.227 849.359 823.477C848.966 822.79 842.887 821.186 841.637 819.921C840.698 818.973 841.021 818.513 841.017 817.25C842.513 814.84 844.094 814.362 846.677 813.459C846.982 813.352 848.613 812.881 848.74 812.756C849.001 812.501 849.597 810.494 849.781 810.024C850.734 807.587 851.421 805.946 853.487 804.25Z"/>
	<path fill="#F9FAF8" transform="scale(0.488281 0.488281)" d="M807.731 138.75C808.252 138.639 808.705 138.517 809.25 138.529C810.46 138.554 811.467 139.118 812.289 139.96C814.601 142.331 813.501 153.279 813.456 156.888C817.339 156.842 827.912 155.58 830.643 158.357C831.687 159.419 831.954 160.429 832.038 161.857C832.108 163.027 831.886 163.872 831.07 164.736C828.022 167.962 817.812 166.628 813.443 166.633C813.463 171.229 814.349 177.885 813.171 182.239C812.674 184.078 811.682 184.831 810.11 185.75C809.428 185.891 809.259 185.96 808.498 185.941C807.361 185.912 806.194 185.249 805.412 184.472C802.867 181.94 803.955 170.596 803.974 166.714C799.951 166.742 790.308 167.935 787.206 165.464C786.052 164.546 785.519 163.253 785.477 161.806C785.415 159.656 786.538 158.758 787.93 157.369C791.892 155.826 799.603 156.867 804.009 156.919L803.981 146.773C803.985 145.525 803.793 143.805 804.156 142.607C804.771 140.572 805.898 139.677 807.731 138.75Z"/>
	<path fill="#F9FAF8" transform="scale(0.488281 0.488281)" d="M163.508 826.75C164.49 826.493 165.489 826.531 166.5 826.501C167.468 826.899 168.501 827.321 169.212 828.119C172.125 831.392 170.955 840.647 170.94 844.911L181.198 844.867C182.804 844.866 184.931 844.689 186.458 845.248C187.781 845.732 189.03 847.422 189.438 848.726C189.855 850.06 189.665 851.957 189.006 853.181C186.471 857.89 175.665 854.408 171.107 856.024C171.073 860.492 171.942 867.6 170.488 871.75C169.932 873.337 168.668 874.048 167.25 874.773L166.016 874.936C164.27 875.097 163.024 874.748 161.738 873.526C158.657 870.599 159.815 860.424 159.712 855.954C155.313 855.987 146.476 857.171 142.92 854.483C141.823 853.653 141.188 852.495 141.02 851.134C140.83 849.601 141.244 847.938 142.319 846.8C145.349 843.593 155.599 844.978 159.878 845.019L159.923 835.87C159.938 834.371 159.713 832.301 160.133 830.861C160.723 828.835 161.77 827.847 163.508 826.75Z"/>
	<path fill="#150A3E" transform="scale(0.488281 0.488281)" d="M198.635 199.185C203.75 199.137 208.517 200.046 212.945 202.727C218.885 206.324 222.903 212.23 224.312 219.018C225.658 225.5 224.138 232.565 220.399 237.997C215.865 244.586 209.175 247.15 201.558 248.479C195.74 248.537 190.059 247.135 185.323 243.635C180.066 239.749 176.214 233.693 175.35 227.169C174.396 219.968 176.601 213.011 181.103 207.357C185.435 201.917 191.961 199.813 198.635 199.185Z"/>
	<path fill="#F9FAF8" transform="scale(0.488281 0.488281)" d="M198.252 210.617C200.793 210.453 203.696 210.75 206.007 211.869C209.176 213.403 211.495 216.142 212.616 219.467C213.797 222.97 213.709 226.381 211.98 229.703C210.025 233.459 206.377 235.459 202.473 236.551C200.101 236.591 197.762 236.715 195.5 235.863C192.165 234.608 189.17 232.031 187.848 228.666C186.603 225.495 186.704 221.35 188.162 218.25C190.25 213.811 193.797 212.011 198.252 210.617Z"/>
	<path fill="#150A3E" transform="scale(0.488281 0.488281)" d="M908.971 649.619C914.539 649.276 919.617 649.809 924.589 652.527C930.965 656.011 935.526 661.676 937.533 668.657C939.487 675.456 938.227 683.306 934.567 689.316C930.895 695.346 925.253 698.8 918.505 700.424C912.827 701.12 906.713 700.891 901.57 698.098C895.481 694.791 890.917 688.931 889.08 682.262C887.172 675.333 887.794 668.429 891.432 662.131C895.504 655.083 901.345 651.707 908.971 649.619Z"/>
	<path fill="#F9FAF8" transform="scale(0.488281 0.488281)" d="M911.785 661.641C914.225 661.784 916.517 661.918 918.75 663.041C922.038 664.693 924.611 667.632 925.734 671.152C926.86 674.685 926.7 678.767 924.799 682.024C922.619 685.757 919.086 687.767 915.009 688.777C912.448 688.96 909.353 688.758 907.127 687.405C903.719 685.334 900.956 681.737 900.176 677.783C899.481 674.261 900.073 670.631 902.08 667.646C904.474 664.082 907.697 662.504 911.785 661.641Z"/>
	<path fill="#0E8D96" transform="scale(0.488281 0.488281)" d="M294.523 906.301C304.476 910.099 313.972 912.835 324.655 913.743C338.272 914.9 352.574 913.995 366.273 913.965L443.246 913.949L680.896 913.856C690.784 913.766 700.201 913.467 709.945 911.585C713.402 910.917 716.829 909.797 720.192 908.772C720.91 908.553 722.834 907.739 723.483 907.797C724.17 908.284 724.678 908.611 725.527 908.811C729.858 909.828 735.813 909.255 740.383 909.615L795.263 913.79C803.861 914.683 812.567 916.026 821 917.933C823.691 918.541 828.411 919.184 830.412 921.091C831.455 922.084 831.41 922.683 831.439 924C830.817 924.633 830.282 925.149 829.478 925.549C826.177 927.191 822.25 927.736 818.662 928.5C799.944 932.482 780.558 933.483 761.513 934.88L670.064 939.824L589.5 941.037L552.75 941.771L482.219 941.115L305.818 935.087L231.746 928.833C221.65 927.514 211.366 926.344 201.6 923.354C199.463 922.7 197.078 922.102 195.952 920C200.875 913.185 259.356 909.565 270.382 908.836L286.446 907.813C288.785 907.651 291.807 907.782 293.918 906.675L294.523 906.301Z"/>
	<path fill="#0A6483" transform="scale(0.488281 0.488281)" d="M238.599 819.727C234.511 816.757 230.521 811.891 227.189 808.077C218.399 798.012 210.195 787.216 202.735 776.126C147.962 694.699 122.649 588.888 142.088 492C159.847 403.479 212.999 323.094 288.259 273.005C286.345 288.828 283.899 304.191 284.019 320.199C273.734 328.81 263.532 338.084 254.411 347.925C206.599 399.511 178.723 465.386 172.629 535.246C168.761 579.592 174.29 625.455 188.258 667.719C196.31 692.081 207.586 715.866 220.474 738.03C225.885 747.336 232.314 755.844 238.142 764.852C238.194 755.885 238.048 675.052 238.393 674.669L238.599 819.727Z"/>
	<path fill="#0A6483" transform="scale(0.488281 0.488281)" d="M736.724 268.585C747.227 275.069 756.824 283.677 766.018 291.883C821.005 340.959 860.718 410.063 877.647 481.629C899.866 575.558 884.094 679.17 833.117 761.47C819.949 782.729 804.89 802.954 786.748 820.213C786.008 814.682 786.55 808.326 786.531 802.705L786.548 764.214C786.98 763.822 787.378 763.462 787.743 763.004C796.849 751.552 804.301 737.848 811.217 724.975C819.784 709.027 827.799 692.048 833.702 674.932C849.273 629.783 853.182 582.124 849.386 534.782C844.68 476.083 822.665 420.428 788.629 372.637C775.214 353.802 759.547 335.551 741.923 320.54L741.902 349.594C741.421 345.545 741.692 341.126 741.638 337.035L741.445 309.75C741.18 295.996 739.062 282.117 736.724 268.585Z"/>
	<path fill="#89DECB" transform="scale(0.488281 0.488281)" d="M741.902 349.594L741.923 320.54C759.547 335.551 775.214 353.802 788.629 372.637C822.665 420.428 844.68 476.083 849.386 534.782C853.182 582.124 849.273 629.783 833.702 674.932C827.799 692.048 819.784 709.027 811.217 724.975C804.301 737.848 796.849 751.552 787.743 763.004C787.378 763.462 786.98 763.822 786.548 764.214L786.609 552.092L786.569 487.249C786.562 476.986 787.3 466.201 786.494 456C786.37 454.435 785.341 453.04 784.25 451.969C783.306 451.043 782.081 450.253 780.747 450.073C776.815 449.542 772.138 450.032 768.141 450.072L741.901 450.208L741.902 349.594Z"/>
	<path fill="#89DECB" transform="scale(0.488281 0.488281)" d="M284.019 320.199L284.158 450.204L256.871 450.177C252.981 450.182 248.395 449.732 244.6 450.4C242.997 450.683 241.684 451.371 240.5 452.482C239.741 453.194 238.905 454.162 238.624 455.178C237.731 458.407 238.155 462.515 238.15 465.882L238.144 485.117L238.393 674.669C238.048 675.052 238.194 755.885 238.142 764.852C232.314 755.844 225.885 747.336 220.474 738.03C207.586 715.866 196.31 692.081 188.258 667.719C174.29 625.455 168.761 579.592 172.629 535.246C178.723 465.386 206.599 399.511 254.411 347.925C263.532 338.084 273.734 328.81 284.019 320.199Z"/>
	<path fill="#150A3E" transform="scale(0.488281 0.488281)" d="M288.259 273.005C293.577 248.082 301.643 224.207 314.364 202.019C344.584 149.309 394.895 110.814 453.487 94.9333C511.559 79.194 573.625 88.2802 625.689 118.251C669.264 143.335 704.283 182.335 723.809 228.754C729.235 241.655 733.098 255.091 736.724 268.585C739.062 282.117 741.18 295.996 741.445 309.75L741.638 337.035C741.692 341.126 741.421 345.545 741.902 349.594L741.901 450.208L768.141 450.072C772.138 450.032 776.815 449.542 780.747 450.073C782.081 450.253 783.306 451.043 784.25 451.969C785.341 453.04 786.37 454.435 786.494 456C787.3 466.201 786.562 476.986 786.569 487.249L786.609 552.092L786.548 764.214L786.531 802.705C786.55 808.326 786.008 814.682 786.748 820.213C786.084 845.645 775.4 869.803 756.846 887.374C747.344 896.372 735.714 903.235 723.483 907.797C722.834 907.739 720.91 908.553 720.192 908.772C716.829 909.797 713.402 910.917 709.945 911.585C700.201 913.467 690.784 913.766 680.896 913.856L443.246 913.949L366.273 913.965C352.574 913.995 338.272 914.9 324.655 913.743C313.972 912.835 304.476 910.099 294.523 906.301C283.973 901.601 274.525 895.446 266.223 887.394C247.431 869.167 238.893 845.515 238.599 819.727L238.393 674.669L238.144 485.117L238.15 465.882C238.155 462.515 237.731 458.407 238.624 455.178C238.905 454.162 239.741 453.194 240.5 452.482C241.684 451.371 242.997 450.683 244.6 450.4C248.395 449.732 252.981 450.182 256.871 450.177L284.158 450.204L284.019 320.199C283.899 304.191 286.345 288.828 288.259 273.005Z"/>
	<path fill="#8B3C8E" transform="scale(0.488281 0.488281)" d="M681.491 504.109L691.692 504.067L686.219 509.572L681.514 514.218L681.491 504.109Z"/>
	<path fill="#AE56A3" transform="scale(0.488281 0.488281)" d="M250.773 504.055L268.547 504.113C265.975 507.655 262.656 510.818 259.671 514.023L250.796 523.545L250.773 504.055Z"/>
	<path fill="#A1525F" transform="scale(0.488281 0.488281)" d="M340.791 880.063L340.759 901.48L322.75 901.407C321.562 901.35 322.12 901.492 321.07 901C322.074 898.801 324.957 896.539 326.655 894.78L340.791 880.063Z"/>
	<path fill="#DC8A30" transform="scale(0.488281 0.488281)" d="M255.535 792.338L270.379 806.9L251.14 827.051L250.997 802.88C250.99 801.808 250.58 798.239 250.964 797.386C251.62 795.927 254.369 793.626 255.535 792.338Z"/>
	<path fill="#AE56A3" transform="scale(0.488281 0.488281)" d="M275.936 812.318L341.532 745.033L341.495 760.269L282.389 819.99C280.151 818.863 277.483 814.339 275.936 812.318Z"/>
	<path fill="#DC8A30" transform="scale(0.488281 0.488281)" d="M298.642 837.257L316.469 847.631L280.431 883.999C275.425 881.279 270.364 874.052 266.996 869.519L298.642 837.257Z"/>
	<path fill="#F9C428" transform="scale(0.488281 0.488281)" d="M298.642 837.257L341.528 793.12C341.522 796.079 341.99 821.529 341.471 822.595C340.956 823.654 338.473 825.616 337.551 826.545L324.95 839.259L316.469 847.631L298.642 837.257Z"/>
	<path fill="#622765" transform="scale(0.488281 0.488281)" d="M255.153 847.599L252.172 836.858L275.936 812.318C277.483 814.339 280.151 818.863 282.389 819.99L282.492 820.367L293.534 831.724L262.234 862.908C259.347 857.906 257.161 853.003 255.153 847.599Z"/>
	<path fill="#8B3C8E" transform="scale(0.488281 0.488281)" d="M365.582 345.852L365.992 407.664L389.013 407.508L388.856 427.827L388.631 450.527L365.82 450.522L365.692 427.332L365.582 345.852Z"/>
	<path fill="#AE56A3" transform="scale(0.488281 0.488281)" d="M366.06 427.531L366.105 415.416L388.505 415.227L388.435 427.887C384.825 428.378 368.714 428.885 366.06 427.531Z"/>
	<path fill="#622765" transform="scale(0.488281 0.488281)" d="M635.58 390.921L635.906 407.515L659.458 407.462L659.475 427.212L659.496 450.453L635.866 450.49L635.937 427.375L635.817 416.901L635.795 416.899L635.58 390.921Z"/>
	<path fill="#8B3C8E" transform="scale(0.488281 0.488281)" d="M635.817 416.901L636.25 415.044L659.159 414.801L659.105 427.181C657.009 427.866 653.821 427.457 651.587 427.45L635.937 427.375L635.817 416.901Z"/>
	<path fill="#AE56A3" transform="scale(0.488281 0.488281)" d="M710.778 849.394L738.396 820.319C750.28 808.257 763.439 796.516 773.546 782.891L773.608 805.332L773.586 814.188L759.923 826.088L754.876 828.753C743.385 835.701 731.117 841.105 718.727 846.236C716.344 847.223 713.284 849.03 710.778 849.394Z"/>
	<path fill="#8B3C8E" transform="scale(0.488281 0.488281)" d="M754.876 828.753C756.288 824.948 759.972 821.616 762.574 818.5L773.608 805.332L773.586 814.188L759.923 826.088L754.876 828.753Z"/>
	<path fill="#8B3C8E" transform="scale(0.488281 0.488281)" d="M702.32 504.029L733.204 504.44L696.578 541.685L681.661 557.302L681.826 524.009L702.32 504.029Z"/>
	<path fill="#8B3C8E" transform="scale(0.488281 0.488281)" d="M341.495 760.269L341.392 782.809L293.534 831.724L282.492 820.367L282.389 819.99L341.495 760.269Z"/>
	<path fill="#DC8A30" transform="scale(0.488281 0.488281)" d="M729.213 819.045L681.901 866.758L681.868 865.449L681.829 839.741C681.828 838.572 681.39 834.41 681.824 833.514C682.115 832.912 683.474 831.913 684 831.402L690.813 824.75L709.389 805.777L720.034 813.199C722.856 815.36 725.771 818.003 729.213 819.045Z"/>
	<path fill="#F9C428" transform="scale(0.488281 0.488281)" d="M279.525 504.1L307.613 504.039L264.684 548.36L250.778 562.897C250.153 560.131 250.57 556.628 250.573 553.776L250.603 533.409L279.525 504.1Z"/>
	<path fill="#DC8A30" transform="scale(0.488281 0.488281)" d="M773.245 826.25L773.595 826.812C773.272 842.651 765.344 858.453 755.54 870.555C742.013 887.255 723.049 897.465 701.75 899.79L701.433 899.641C701.538 898.613 702.186 898.365 702.934 897.673L731.593 868.864L773.245 826.25Z"/>
	<path fill="#AE56A3" transform="scale(0.488281 0.488281)" d="M250.566 675.486L250.514 660.791L341.554 567.446L341.544 582.789C338.902 584.595 336.697 587.072 334.434 589.324L321.199 603.201L283.985 641.782L261.864 665.08C258.969 668.046 256.145 671.326 253.071 674.098C252.296 674.796 251.628 675.411 250.566 675.486Z"/>
	<path fill="#622765" transform="scale(0.488281 0.488281)" d="M340.57 834.561L341.425 834.282L341.038 867.178L310.118 899.687L287.957 888.85L321.143 854.049C324.352 850.761 328.046 845.812 331.801 843.31L340.57 834.561Z"/>
	<path fill="#AE56A3" transform="scale(0.488281 0.488281)" d="M340.57 834.561C341.648 837.052 341.034 841.641 340.997 844.428L331.801 843.31L340.57 834.561Z"/>
	<path fill="#622765" transform="scale(0.488281 0.488281)" d="M754.876 828.753L759.923 826.088C759.403 827.692 758.595 828.929 757.523 830.209C752.98 835.633 747.718 840.605 742.77 845.666L717.281 871.518L702.943 886.015C698.099 891.04 692.041 898.212 685.756 901.268L684.591 901.788L683.478 902.337L683.441 877.812L710.778 849.394C713.284 849.03 716.344 847.223 718.727 846.236C731.117 841.105 743.385 835.701 754.876 828.753Z"/>
	<path fill="#AE56A3" transform="scale(0.488281 0.488281)" d="M250.878 765.046L250.896 753.407C250.898 752.371 250.607 750.342 250.902 749.483C251.422 747.967 253.748 746.092 254.901 744.926L264.434 735.153L341.253 656.645L341.871 657.418L341.646 658.004C340.734 661.202 341.364 666.08 341.367 669.457C341.367 669.889 341.542 672 341.372 672.314C340.529 673.877 337.825 676.027 336.542 677.367L320.43 693.966L272.315 743.594C265.487 750.581 258.614 759.101 250.878 765.046Z"/>
	<path fill="#8B3C8E" transform="scale(0.488281 0.488281)" d="M681.987 789.079C682.768 795.484 682.111 802.732 682.123 809.231C692.175 799.179 700.483 787.643 710.104 777.236L753.784 733.827L765.539 721.66C768.048 719.108 770.58 716.37 773.747 714.637L773.616 731.512L681.6 823.294L681.663 799.627C681.647 796.621 681.015 791.832 681.987 789.079Z"/>
	<path fill="#AE56A3" transform="scale(0.488281 0.488281)" d="M681.48 718.67L681.473 705.083C681.472 704.278 681.22 701.858 681.471 701.279C681.615 700.946 682.794 699.99 683.107 699.682L687.884 694.746L773.621 607.597L773.592 625.151C770.767 626.584 768.538 629.282 766.371 631.571L752.347 646.855L697.821 701.474L681.48 718.67Z"/>
	<path fill="#8B3C8E" transform="scale(0.488281 0.488281)" d="M681.48 718.67L697.821 701.474L752.347 646.855L766.371 631.571C768.538 629.282 770.767 626.584 773.592 625.151C773.584 628.355 774.445 642.132 772.767 643.928L681.452 735.773L681.48 718.67Z"/>
	<path fill="#AE56A3" transform="scale(0.488281 0.488281)" d="M681.987 789.079C683.216 787.268 685.227 785.662 686.793 784.091L696.768 773.892L773.869 695.424L773.747 714.637C770.58 716.37 768.048 719.108 765.539 721.66L753.784 733.827L710.104 777.236C700.483 787.643 692.175 799.179 682.123 809.231C682.111 802.732 682.768 795.484 681.987 789.079Z"/>
	<path fill="#F9C428" transform="scale(0.488281 0.488281)" d="M709.389 805.777L773.959 743.008L773.746 765.593C773.732 767.571 774.176 770.953 773.698 772.796C773.046 775.312 734.189 814.02 729.213 819.045C725.771 818.003 722.856 815.36 720.034 813.199L709.389 805.777Z"/>
	<path fill="#8B3C8E" transform="scale(0.488281 0.488281)" d="M250.878 765.046C258.614 759.101 265.487 750.581 272.315 743.594L320.43 693.966L336.542 677.367C337.825 676.027 340.529 673.877 341.372 672.314C341.542 672 341.367 669.889 341.367 669.457C341.364 666.08 340.734 661.202 341.646 658.004L341.871 657.418L341.828 684.094C341.81 686.974 342.385 691.669 341.471 694.332L250.977 786.809L250.878 765.046Z"/>
	<path fill="#8B3C8E" transform="scale(0.488281 0.488281)" d="M250.566 675.486C251.628 675.411 252.296 674.796 253.071 674.098C256.145 671.326 258.969 668.046 261.864 665.08L283.985 641.782L321.199 603.201L334.434 589.324C336.697 587.072 338.902 584.595 341.544 582.789L341.606 599.73C341.609 600.732 341.95 603.647 341.623 604.474C341.272 605.363 338.647 607.503 337.888 608.277L324.234 622.25L253.75 695.298L250.514 698.377L250.566 675.486Z"/>
	<path fill="#0E8D96" transform="scale(0.488281 0.488281)" d="M296.557 409.491L297.067 409.983C299.06 410.937 302.273 410.501 304.488 410.48L320.074 410.339L353.115 410.515L353.102 415.909L353.147 428.291L353.369 450.333L296.755 450.279L296.578 428.318L296.507 415.748L296.557 409.491Z"/>
	<path fill="#89DECB" transform="scale(0.488281 0.488281)" d="M296.557 409.491L297.067 409.983C299.06 410.937 302.273 410.501 304.488 410.48L320.074 410.339L353.115 410.515L353.102 415.909L353.147 428.291L296.578 428.318L296.507 415.748L296.557 409.491Z"/>
	<path fill="#0E8D96" transform="scale(0.488281 0.488281)" d="M296.557 409.491L297.067 409.983C299.06 410.937 302.273 410.501 304.488 410.48L320.074 410.339L353.115 410.515L353.102 415.909L296.507 415.748L296.557 409.491Z"/>
	<path fill="#0E8D96" transform="scale(0.488281 0.488281)" d="M671.887 409.105L695.114 409.017L708.978 409.129L729.101 409.473L729.102 414.38L729.075 427.893L729.082 450.069L671.955 449.976L671.991 427.986L671.953 414.348L671.887 409.105Z"/>
	<path fill="#89DECB" transform="scale(0.488281 0.488281)" d="M671.887 409.105L695.114 409.017L708.978 409.129L729.101 409.473L729.102 414.38L729.075 427.893L671.991 427.986L671.953 414.348L671.887 409.105Z"/>
	<path fill="#0E8D96" transform="scale(0.488281 0.488281)" d="M671.887 409.105L695.114 409.017L708.978 409.129L729.101 409.473L729.102 414.38L671.953 414.348L671.887 409.105Z"/>
	<path fill="#F9C428" transform="scale(0.488281 0.488281)" d="M255.535 792.338L315.012 731.755L332.565 713.733C335.373 710.864 338.415 707.233 341.656 704.901L341.667 734.63L270.379 806.9L255.535 792.338Z"/>
	<path fill="#F9C428" transform="scale(0.488281 0.488281)" d="M743.938 504.064C748.255 504.052 772.566 503.424 774.177 504.75C774.122 505.592 774.243 507.27 773.963 508C773.456 509.316 760.416 521.307 758.361 523.361L696.213 585.769L681.384 601.13L681.228 575.059C681.226 573.762 680.768 569.686 681.22 568.645C681.578 567.823 683.701 566.073 684.388 565.37L695.403 554.259L723.834 525.293C730.64 518.357 737.746 511.562 743.938 504.064Z"/>
	<path fill="#F9C428" transform="scale(0.488281 0.488281)" d="M341.642 527.168L341.843 530.75L341.77 549.666C341.759 551.708 342.208 555.119 341.728 557.027C341.544 557.762 259.511 640.598 251.25 649.116C250.989 649.038 250.759 648.879 250.519 648.75L250.518 619.63L341.642 527.168Z"/>
	<path fill="#F9C428" transform="scale(0.488281 0.488281)" d="M341.548 615.073L341.643 616.75L341.566 638.997C341.56 640.37 341.995 643.981 341.54 645.151C340.481 647.876 260.598 728.541 250.686 738.958L250.586 737.25L250.503 714.861C250.5 713.891 250.108 709.328 250.484 708.67C251.411 707.045 254.57 704.647 255.959 703.262L272.856 686.287L341.548 615.073Z"/>
	<path fill="#F9C428" transform="scale(0.488281 0.488281)" d="M773.21 654.25L773.962 654.523L774.046 657.061C774.096 660.124 774.42 684.868 774.012 685.548C773.144 686.995 770.7 688.768 769.445 690.046L751.784 707.947L682.25 777.212C681.736 777.201 682.03 777.247 681.389 776.976L681.415 746.879L773.21 654.25Z"/>
	<path fill="#8B3C8E" transform="scale(0.488281 0.488281)" d="M317.501 504.962C319.743 504.08 323.104 504.511 325.529 504.516L341.432 504.596L341.428 517.907L340.846 518.366C336.494 521.846 332.623 526.069 328.686 530.007L307.35 551.824L250.598 609.661L250.685 583.086C250.695 580.363 250.121 576.073 250.934 573.528C251.952 571.493 254.281 569.677 255.892 568.034L267.169 556.463L317.501 504.962Z"/>
	<path fill="#AE56A3" transform="scale(0.488281 0.488281)" d="M317.501 504.962L332.067 505.052L284.677 554.467L263.672 576.093C259.649 580.147 255.72 584.624 251.097 588.001C251.101 583.358 251.622 578.086 250.934 573.528C251.952 571.493 254.281 569.677 255.892 568.034L267.169 556.463L317.501 504.962Z"/>
	<path fill="#F9C428" transform="scale(0.488281 0.488281)" d="M773.957 563.657L773.946 596.741L681.158 690.457L681.149 690.244L681.232 665.037C681.243 663.339 680.768 659.552 681.278 658.056C681.913 656.197 765.74 572.394 773.957 563.657Z"/>
	<path fill="#8B3C8E" transform="scale(0.488281 0.488281)" d="M681.959 612.556L682.289 611.813C683.715 609.575 686.516 607.293 688.377 605.337L708.867 584.34L771.996 520.281C772.55 519.723 772.776 519.554 773.538 519.419C774.257 523.186 773.885 527.536 773.895 531.394L773.966 553.643L710.004 617.881L687.226 640.631C685.987 641.825 683.009 645.353 681.539 645.757L681.573 621.972C681.577 619.538 681.013 614.702 681.959 612.556Z"/>
	<path fill="#AE56A3" transform="scale(0.488281 0.488281)" d="M681.959 612.556L682.289 611.813C683.715 609.575 686.516 607.293 688.377 605.337L708.867 584.34L771.996 520.281C772.55 519.723 772.776 519.554 773.538 519.419L773.349 530.824C773.349 531.95 773.667 534.474 773.353 535.462C773.117 536.202 769.668 539.071 768.924 539.799L751.496 556.909L701.304 607.827C695.335 613.837 689.506 620.572 683.198 626.183L682.103 627.13C682.113 622.467 682.66 617.131 681.959 612.556Z"/>
	<path fill="#0A6483" transform="scale(0.488281 0.488281)" d="M418.437 253.164C424.54 244.272 431.203 235.872 439.25 228.639C453.745 215.611 472.38 206.668 491.511 203.116C520.235 197.782 549.881 203.461 573.984 220.146C586.219 228.615 599.656 241.152 607 254.293C587.184 246.269 566.514 239.62 545.141 237.505C533.233 236.327 521.134 236.477 509.178 236.416C491.789 236.328 475.321 236.925 458.253 240.694C450.426 242.423 442.882 244.555 435.318 247.206C429.905 249.102 424.564 251.486 419.035 253.004L418.437 253.164Z"/>
	<path fill="#F9FAF8" transform="scale(0.488281 0.488281)" d="M353.357 521.251L353.266 504.008L673.054 504.023C673.144 509.524 673.584 515.591 672.609 521.006L353.357 521.251Z"/>
	<path fill="#F9FAF8" transform="scale(0.488281 0.488281)" d="M250.511 474.08L250.491 462.002L774.077 462.4L774.046 470.267C740.063 474.382 706.437 474.509 672.273 474.546L581.06 474.506L342.077 474.472L250.511 474.08Z"/>
	<path fill="#E7A026" transform="scale(0.488281 0.488281)" d="M774.046 470.267L774.046 493.001L250.603 493.099L250.511 474.08L342.077 474.472L581.06 474.506L672.273 474.546C706.437 474.509 740.063 474.382 774.046 470.267Z"/>
	<path fill="#622765" transform="scale(0.488281 0.488281)" d="M670.95 790.416L671.192 901.447L352.407 901.783L353.039 830.146L359.046 838.727C370.288 854.653 386.976 865.918 406.385 869.078C410.57 869.759 414.972 869.682 419.209 869.763L441.924 869.819L505.927 869.776L580.299 869.842L602.775 869.848C607.935 869.836 613.31 869.993 618.425 869.31C626.718 868.203 634.801 864.424 641.498 859.483C654.58 849.831 663.867 835.22 667.846 819.492C668.714 816.063 668.991 812.501 669.448 809C669.667 807.32 670.212 805.67 670.342 804L670.892 791.021L670.95 790.416Z"/>
	<path fill="#AE56A3" transform="scale(0.488281 0.488281)" d="M365.582 345.852L365.5 317.461C365.487 311.356 365.273 305.184 365.777 299.097C368.595 265.043 384.518 231.77 408.547 207.62C435.408 180.623 472.916 164.377 511.106 164.326C550.425 164.273 587.974 179.976 615.708 207.804C640.437 232.617 656.264 264.184 659.171 299.32C660.209 311.86 659.449 324.988 659.435 337.584L659.458 407.462L635.906 407.515L635.58 390.921L635.594 333.748C635.607 322.306 636.373 310.398 635.412 299.025C633.101 271.683 619.294 245.171 600.09 225.912C576.569 202.323 545.454 188.764 512.119 188.859C478.84 188.953 447.205 202.379 423.835 226.104C416.202 233.853 409.833 242.811 404.497 252.27C396.567 266.328 391.646 281.346 389.847 297.384C388.238 311.734 389.116 326.909 389.099 341.361L389.013 407.508L365.992 407.664L365.582 345.852Z"/>
	<path fill="#3BCFE9" transform="scale(0.488281 0.488281)" d="M451.873 108.588C475.336 100.244 502.445 98.2395 527.098 100.165C534.545 100.746 542.364 101.473 549.553 103.542C565.457 106.051 580.781 111.264 595.511 117.658C633.687 134.231 664.848 158.731 689.332 192.438C713.12 225.187 726.696 265.932 729.303 306.226C730.214 320.3 729.434 334.829 729.357 348.939L729.111 408.997L729.101 409.473L708.978 409.129L695.114 409.017L671.887 409.105L671.738 339.748C671.784 325.945 672.527 311.61 671.384 297.862C668.186 259.399 651.177 224.817 623.651 197.894C594.311 169.195 553.371 151.044 512 151.688C469.393 152.352 427.019 169.729 397.364 200.608C371.563 227.474 356.523 263.309 353.705 300.263C352.697 313.475 353.283 327.159 353.226 340.426L353.115 410.515L320.074 410.339L304.488 410.48C302.273 410.501 299.06 410.937 297.067 409.983L296.557 409.491L296.485 335.752C296.486 318.925 296.432 302.388 298.763 285.68C302.63 257.973 312.049 231.704 325.527 207.25C331.974 195.551 340.615 184.217 349.407 174.193C377.078 142.647 411.604 120.401 451.873 108.588Z"/>
	<path fill="#F9FAF8" transform="scale(0.488281 0.488281)" d="M643.707 178.701C645.407 177.346 647.668 175.351 650.019 175.534C653.537 175.809 658.348 181.123 660.157 184.047C661.548 186.295 662.419 188.285 661.837 190.977C661.399 193.002 659.96 194.666 658.173 195.651L657.53 195.953C656.176 196.027 654.784 196.135 653.491 195.641C650.102 194.345 644.102 187.643 642.571 184.25C642.343 181.967 642.684 180.741 643.707 178.701Z"/>
	<path fill="#88E1F2" transform="scale(0.488281 0.488281)" d="M459.505 121.555C460.759 122.235 461.671 122.514 462.029 124C462.804 127.224 462.489 131.391 462.388 134.711C440.25 141.205 419.302 151.513 400.61 165.026C394.445 169.482 388.75 174.722 382.5 178.99L382.067 179.305C380.454 180.388 377.119 180.149 375.273 179.728C372.737 179.15 371.859 177.308 370.741 175.176L370.049 173.731C373.586 170.091 377.942 166.775 381.862 163.528C398.047 150.12 415.209 139.135 434.75 131.261C442.719 128.05 450.947 125.816 459 122.893L459.505 121.555Z"/>
	<path fill="#F9FAF8" transform="scale(0.488281 0.488281)" d="M666.026 201.697C668.337 201.492 670.48 201.002 672.411 202.616C676.578 206.1 679.679 212.717 682.371 217.405C694.691 238.857 703.263 262.485 706.951 287C708.011 294.049 708.364 301.393 708.797 308.51L708.978 409.129L695.114 409.017L695.515 337.108C695.502 316.294 695.682 296.504 691.15 276.017C688.182 262.601 684.126 249.648 678.15 237.245L671.047 223.954C668.549 219.742 662.605 212.959 662.413 208.141C662.295 205.182 664.079 203.622 666.026 201.697Z"/>
	<path fill="#F9FAF8" transform="scale(0.488281 0.488281)" d="M370.092 184.75L370.594 184.673C372.492 184.416 373.966 184.493 375.492 185.77C377.127 187.138 377.847 189.143 378.055 191.212C378.57 196.317 373.608 199.954 370.621 203.489L363.341 212.858C347.539 235.182 337.661 260.829 333.109 287.75C331.676 296.226 330.918 305.165 330.61 313.75L330.525 392.733L330.549 405.466C330.551 406.254 330.834 408.612 330.557 409.25C330.435 409.53 330.186 409.735 330 409.977L327.125 410.01L317.97 409.998L317.849 348.393C317.825 333.454 317.239 318.242 318.188 303.342C319.309 285.75 322.76 267.899 328.945 251.359C334.262 237.144 356.338 191.006 370.092 184.75Z"/>
	<path fill="#F9FAF8" transform="scale(0.488281 0.488281)" d="M451.873 108.588C454.906 110.539 458.451 112.927 459.308 116.668C459.669 118.242 459.55 119.953 459.505 121.555L459 122.893C450.947 125.816 442.719 128.05 434.75 131.261C415.209 139.135 398.047 150.12 381.862 163.528C377.942 166.775 373.586 170.091 370.049 173.731C363.348 180.667 356.758 187.598 350.928 195.305C327.238 226.622 314.22 264.452 311.242 303.428C310.205 317.007 310.628 330.809 310.592 344.424L310.196 410.057L297.067 409.983L296.557 409.491L296.485 335.752C296.486 318.925 296.432 302.388 298.763 285.68C302.63 257.973 312.049 231.704 325.527 207.25C331.974 195.551 340.615 184.217 349.407 174.193C377.078 142.647 411.604 120.401 451.873 108.588Z"/>
	<path fill="#F9FAF8" transform="scale(0.488281 0.488281)" d="M549.553 103.542C565.457 106.051 580.781 111.264 595.511 117.658C633.687 134.231 664.848 158.731 689.332 192.438C713.12 225.187 726.696 265.932 729.303 306.226C730.214 320.3 729.434 334.829 729.357 348.939L729.111 408.997L716.234 409.034L715.75 301.992C712.117 262.232 698.978 226.156 674.435 194.529C666.931 184.858 658.773 175.777 649.359 167.915C643.182 161.864 635.367 156.809 628.234 151.953C608.693 138.651 587.638 128.275 564.461 123.094C555.711 121.138 546.895 120.172 538.034 118.919C536.622 117.342 535.567 115.888 535.115 113.778C534.73 111.98 535.202 109.823 536.25 108.327C539.19 104.13 545.036 104.2 549.553 103.542Z"/>
	<path fill="#89DECB" transform="scale(0.488281 0.488281)" d="M418.437 253.164L419.035 253.004C424.564 251.486 429.905 249.102 435.318 247.206C442.882 244.555 450.426 242.423 458.253 240.694C475.321 236.925 491.789 236.328 509.178 236.416C521.134 236.477 533.233 236.327 545.141 237.505C566.514 239.62 587.184 246.269 607 254.293C614.865 264.704 620.038 279.535 622.116 292.293C623.395 300.152 623.154 308.105 623.158 316.037L623.18 345.71L623.357 450.21L401.415 450.339L401.466 349.139L401.465 319.15C401.474 311.418 401.316 303.846 402.474 296.172C404.702 281.396 409.877 265.494 418.437 253.164Z"/>
	<path fill="#AE56A3" transform="scale(0.488281 0.488281)" d="M353.357 521.251L672.609 521.006L670.95 790.416L670.892 791.021L670.342 804C670.212 805.67 669.667 807.32 669.448 809C668.991 812.501 668.714 816.063 667.846 819.492C663.867 835.22 654.58 849.831 641.498 859.483C634.801 864.424 626.718 868.203 618.425 869.31C613.31 869.993 607.935 869.836 602.775 869.848L580.299 869.842L505.927 869.776L441.924 869.819L419.209 869.763C414.972 869.682 410.57 869.759 406.385 869.078C386.976 865.918 370.288 854.653 359.046 838.727L353.039 830.146L353.357 521.251Z"/>
	<path fill="#622765" transform="scale(0.488281 0.488281)" d="M615.228 693.25C616.873 696.065 616.087 720.157 616.124 724.822L616.514 786.848C616.523 797.073 616.978 807.565 616.288 817.75L615.538 817.856C615.364 817.654 615.118 817.496 615.016 817.25C614.742 816.583 614.999 814.103 614.994 813.223L614.93 797.452L615.228 693.25Z"/>
	<path fill="#150A3E" transform="scale(0.488281 0.488281)" d="M602.036 726.25C603.426 725.906 604 725.591 605.25 726.566C606.144 727.263 606.435 728.442 606.545 729.5C606.925 733.176 606.668 737.179 606.711 740.886L606.897 763.241L606.974 788.608C606.978 792.833 607.257 797.301 606.944 801.5C606.806 803.351 606.455 804.018 605.25 805.405L604.64 805.626C603.045 806.034 602.839 805.82 601.449 805.057C600.782 804.207 600.568 803.784 600.467 802.678C600.046 798.076 600.388 793.171 600.382 788.539L600.36 760.491L600.368 739.439C600.372 736.136 600.04 732.463 600.47 729.199C600.659 727.767 601.145 727.345 602.036 726.25Z"/>
	<path fill="#150A3E" transform="scale(0.488281 0.488281)" d="M387.55 689.507L387.895 646.492C388.088 645.01 388.716 643.923 389.958 643.089C390.649 642.625 391.472 642.679 392.25 642.973C393.678 643.512 393.997 644.68 394.606 645.918L394.64 709.551C394.643 719.534 395.137 729.795 394.603 739.75C394.527 741.175 394.386 742.046 393.378 743.114C392.839 743.684 392.215 743.907 391.502 744.188C389.722 743.985 389.454 743.77 388.072 742.75C387.16 741.02 387.426 738.943 387.42 737.031L387.439 726.471L387.55 689.507Z"/>
	<path fill="#150A3E" transform="scale(0.488281 0.488281)" d="M634.158 645.75L635.506 645.605C636.175 646.053 637.106 646.6 637.475 647.359C638.838 650.159 637.961 727.623 637.944 739.244L637.909 756.106C637.903 758.428 638.344 762.075 637.523 764.25C636.986 765.671 636.151 766.056 634.901 766.75C633.061 766.44 632.927 766.161 631.635 764.913C630.696 760.801 631.184 756.078 631.207 751.866L631.328 728.947L631.488 648.5C632.217 646.967 632.69 646.602 634.158 645.75Z"/>
	<path fill="#D67EBB" transform="scale(0.488281 0.488281)" d="M387.55 689.507L372.924 689.513L373.067 600.013L388.178 599.993L388.366 621.051L407.486 621.073L407.098 669.933L413.302 669.987L413.381 689.635L395.06 689.577L395.12 659.655C395.122 655.979 395.981 649.194 394.606 645.918C393.997 644.68 393.678 643.512 392.25 642.973C391.472 642.679 390.649 642.625 389.958 643.089C388.716 643.923 388.088 645.01 387.895 646.492L387.55 689.507Z"/>
	<path fill="#8B3C8E" transform="scale(0.488281 0.488281)" d="M460.466 701.182C465.963 704.326 472.204 708.623 478.165 710.669L478.069 784.825L478.035 805.957C478.009 809.788 477.664 813.966 478.034 817.75C478.153 818.97 478.763 819.86 479.58 820.739C480.315 821.529 481.051 822 482.001 822.488L482.609 844.567L460.957 844.73L460.466 701.182Z"/>
	<path fill="#8B3C8E" transform="scale(0.488281 0.488281)" d="M605.834 602.087C614.575 625.342 615.352 656.207 604.978 679.04C599.229 691.694 591.008 703.419 579.627 711.636L579.546 844.892L558.673 844.662C558.966 844.358 559.389 844.139 559.554 843.75C559.797 843.175 559.557 840.864 559.558 840.094L559.555 828.396L559.331 730.356L559.136 708.803C559.125 707.787 558.743 704.071 559.075 703.351C559.316 702.827 562.965 700.765 563.714 700.278C567.509 697.807 571.176 695.179 574.52 692.116C584.14 683.305 592.146 671.637 596.622 659.348C600.744 648.033 603.521 636.211 604.704 624.204L605.491 611.139C605.548 608.159 604.8 604.853 605.834 602.087Z"/>
	<path fill="#622765" transform="scale(0.488281 0.488281)" d="M460.466 701.182L452.244 695.219C432.801 680.042 418.285 656.526 415.41 631.824C412.574 607.466 421.418 582.927 436.441 563.984C452.469 543.774 474.082 532.372 499.5 529.124C517.197 526.864 535.524 530.532 551.622 537.939C578.506 550.309 595.75 575.03 605.834 602.087C604.8 604.853 605.548 608.159 605.491 611.139L604.704 624.204C603.521 636.211 600.744 648.033 596.622 659.348C592.146 671.637 584.14 683.305 574.52 692.116C571.176 695.179 567.509 697.807 563.714 700.278C562.965 700.765 559.316 702.827 559.075 703.351C558.743 704.071 559.125 707.787 559.136 708.803L559.331 730.356L559.555 828.396L559.558 840.094C559.557 840.864 559.797 843.175 559.554 843.75C559.389 844.139 558.966 844.358 558.673 844.662L482.609 844.567L482.001 822.488L547.486 822.119L547.509 690.827C564.85 682.704 577.946 668.055 586.47 651.161C596.121 632.036 595.818 608.89 589.132 588.957C582.093 567.974 566.893 551.518 547.167 541.832C529.289 533.052 507.275 530.893 488.264 537.399C467.068 544.652 449.421 558.885 439.466 579.225C430.263 598.029 427.596 621.477 434.528 641.498C441.65 662.071 456.443 680.854 476.513 690.207L477.694 690.763C477.939 690.947 478.228 691.12 478.361 691.397C478.623 691.939 478.326 694.875 478.318 695.612L478.165 710.669C472.204 708.623 465.963 704.326 460.466 701.182Z"/>
	<path fill="#150A3E" transform="scale(0.488281 0.488281)" d="M478.165 710.669L478.318 695.612C478.326 694.875 478.623 691.939 478.361 691.397C478.228 691.12 477.939 690.947 477.694 690.763L476.513 690.207C456.443 680.854 441.65 662.071 434.528 641.498C427.596 621.477 430.263 598.029 439.466 579.225C449.421 558.885 467.068 544.652 488.264 537.399C507.275 530.893 529.289 533.052 547.167 541.832C566.893 551.518 582.093 567.974 589.132 588.957C595.818 608.89 596.121 632.036 586.47 651.161C577.946 668.055 564.85 682.704 547.509 690.827L547.486 822.119L482.001 822.488C481.051 822 480.315 821.529 479.58 820.739C478.763 819.86 478.153 818.97 478.034 817.75C477.664 813.966 478.009 809.788 478.035 805.957L478.069 784.825L478.165 710.669Z"/>
	<path fill="#AB6C21" transform="scale(0.488281 0.488281)" d="M490.003 793.859L535.63 793.905L535.524 811.085L489.991 811.077L490.003 793.859Z"/>
	<path fill="#F9C428" transform="scale(0.488281 0.488281)" d="M490.003 793.859L489.785 684.028C485.714 681.579 481.303 680.007 477.236 677.529C460.179 667.135 448.81 652.262 444.058 632.792C439.497 614.103 442.33 594.632 452.514 578.25C462.214 562.647 478.526 550.702 496.53 546.71C514.445 542.738 533.529 545.518 549.033 555.48C565.736 566.211 577.34 582.772 581.459 602.176C585.248 620.027 581.79 639.275 571.821 654.604C566.283 663.12 558.801 670.881 550.278 676.432C547.729 678.092 545.115 679.555 542.343 680.808C541.072 681.383 536.742 682.797 535.995 683.803C535.629 684.296 535.868 701.748 535.869 703.368L535.903 761.085L535.63 793.905L490.003 793.859Z"/>
	<path fill="#F9FAF8" transform="scale(0.488281 0.488281)" d="M514.18 716.75L515.06 716.692C516.987 716.708 518.939 717.744 520.035 719.31C521.139 720.885 520.968 723.622 520.976 725.445L521.008 737.256L521.001 766.252C520.989 771.935 521.725 778.944 520.125 784.422C519.605 786.203 518.242 786.986 516.75 787.857C515.29 788.001 514.09 788.189 512.75 787.412C511.303 786.573 510.185 784.964 509.75 783.374C509.238 781.501 509.483 779.23 509.479 777.289L509.455 764.664C509.434 750.838 508.75 736.664 509.487 722.891C509.555 721.618 509.661 720.281 510.344 719.165C511.224 717.725 512.652 717.219 514.18 716.75Z"/>
	<path fill="#F9FAF8" transform="scale(0.488281 0.488281)" d="M508.355 550.707C512.743 550.475 516.935 550.583 521.279 551.315C538.301 554.183 554.038 563.331 564.004 577.641C568.473 584.057 575.575 596.851 573.984 604.865C573.509 607.257 572.124 609.22 570.072 610.531C567.716 612.035 564.622 612.369 561.952 611.599C555.313 609.682 556.306 600.47 555.11 595.104C554.289 591.415 552.859 587.893 551.036 584.589C544.647 573.007 534.284 566.691 521.801 563.152C519.334 562.57 516.813 562.391 514.289 562.223C492.805 560.791 473.143 573.127 463.487 592.086C461.314 596.354 460.564 602.765 457 605.901C455.09 606.432 454.681 606.374 452.75 605.873C451.459 604.782 450.498 604.047 450.286 602.25C450.049 600.232 450.802 597.757 451.349 595.804C453.68 587.484 458.461 579.438 463.986 572.862C475.143 559.582 491.221 552.213 508.355 550.707Z"/>
	<path fill="#150A3E" transform="scale(0.488281 0.488281)" d="M509.544 586.179C514.768 585.7 520.623 587.161 525.031 589.973C530.8 593.653 535.057 599.692 536.477 606.385L536.653 607.25L537.291 610.75C537.854 616.738 535.187 623.552 531.475 628.157C526.64 634.155 520.795 637.018 513.183 637.816C507.04 638.266 501.143 637.009 496.113 633.36C490.245 629.104 486.642 622.654 485.653 615.51C484.732 608.853 486.347 602.161 490.415 596.783C495.335 590.281 501.596 587.182 509.544 586.179Z"/>
</svg>
