<?xml version="1.0" encoding="utf-8" ?>
<svg xmlns="http://www.w3.org/2000/svg" xmlns:xlink="http://www.w3.org/1999/xlink" width="500" height="500">
	<path fill="#F3CDCA" transform="scale(0.488281 0.488281)" d="M-0 -0L1024 0L1024 1024L-0 1024L0 -0Z"/>
	<path fill="#EE8B96" transform="scale(0.488281 0.488281)" d="M641.238 785.053L830.336 602.945C826.321 653.108 799.227 699.055 761.309 731.383C733.87 754.776 703.49 771.085 668.496 779.825C659.559 782.057 650.405 784.073 641.238 785.053Z"/>
	<path fill="#EE8B96" transform="scale(0.488281 0.488281)" d="M192.2 599.987L383.325 785.077C345.182 782.553 306 767.159 275.203 744.713C240.785 719.628 212.919 683.946 200.683 642.788C196.471 628.619 194.468 614.535 192.2 599.987Z"/>
	<path fill="#0A2266" transform="scale(0.488281 0.488281)" d="M192.2 599.987C177.377 585.381 162.025 570.811 148.891 554.64C126.526 527.102 109.755 492.363 102.708 457.557C99.6707 442.553 98.3426 426.62 98.2377 411.332C97.8218 350.718 121.636 289.013 164.412 245.7C178.868 231.064 194.424 218.127 212.062 207.471C248.096 185.702 291.236 174.216 333.228 173.969C394.614 173.608 455.224 196.532 501.138 237.254C502.175 238.174 510.045 245.37 510.44 245.247C511.273 244.989 513.672 242.453 514.433 241.795L528.149 230.21C540.257 220.581 553.073 211.809 566.75 204.547C592.824 190.703 620.986 180.357 650.208 175.717C711.459 165.993 775.763 182.714 826.088 218.563C837.402 226.622 848.008 235.994 857.885 245.755C900.449 287.819 926.185 347.625 926.397 407.56C926.615 469.229 904.95 528.4 861.097 572.436L830.336 602.945L641.238 785.053L511.607 909.21L383.325 785.077L192.2 599.987Z"/>
	<path fill="#086D8A" transform="scale(0.488281 0.488281)" d="M443.836 295.724C458.104 274.884 472.011 254.172 490.112 236.345L506.033 249.589C488.49 267.341 472.02 287.594 460.262 309.679C455.246 304.477 449.544 300.126 443.836 295.724Z"/>
	<path fill="#DB1C48" transform="scale(0.488281 0.488281)" d="M400.54 686.887L375.528 662.781L432.708 606.645L456.649 629.374L422.144 664.113C415.048 671.142 406.056 678.603 400.54 686.887Z"/>
	<path fill="#DB1C48" transform="scale(0.488281 0.488281)" d="M431.142 299.801C434.73 301.13 438.707 303.048 442.444 303.736L457.269 316.041C444.544 338.619 436.71 361.877 433.362 387.599C420.701 380.017 409.306 375.511 394.589 373.566C394.378 373.538 392.149 373.257 392.132 373.229L393.243 372.955C398.762 360.706 403.036 348.033 409.255 336.047C415.818 323.396 424.016 312.061 431.142 299.801Z"/>
	<path fill="#BC1C52" transform="scale(0.488281 0.488281)" d="M565.236 631.526L591.662 605.156L649.36 661.38L622.487 687.646L565.236 631.526Z"/>
	<path fill="#BC1C52" transform="scale(0.488281 0.488281)" d="M591.844 301.195L593.072 302.25L603.072 300.14C605.003 306.781 607.874 313.258 610.564 319.626L625.681 354.725C628.282 361.015 631.117 367.496 632.806 374.1C616.614 375.392 603.372 379.967 589.769 388.892C584.828 363.462 576.104 339.914 563.061 317.512C563.705 316.147 565.117 314.947 566.166 313.843L591.844 301.195Z"/>
	<path fill="#F9821E" transform="scale(0.488281 0.488281)" d="M558.943 321.641L559.21 322.057C569.283 337.528 576.105 356.528 580.849 374.295C588.66 403.546 586.337 434.661 571.052 461.138L555.413 445.562L511.987 402.606C521.927 371.919 536.798 345.095 558.943 321.641Z"/>
	<path fill="#F3CDCA" transform="scale(0.488281 0.488281)" d="M261.438 656.905L453.263 469.569L479.41 495.494C473.199 504.051 464.077 511.119 456.438 518.422L415.454 557.571L376.484 594.709L352.146 617.748C345.486 623.552 338.488 628.883 331 633.577C312.099 645.425 290.426 653.02 268.444 656.444C266.249 656.786 263.616 657.37 261.438 656.905Z"/>
	<path fill="#DB1C48" transform="scale(0.488281 0.488281)" d="M565.236 631.526L622.487 687.646L594.646 714.476L535.353 772.79L518.771 789.55C517.151 791.202 514.247 794.9 511.987 795.455L511.637 683.469C514.041 682.377 517.017 678.611 519.043 676.646L543.453 652.454L565.236 631.526Z"/>
	<path fill="#F15F69" transform="scale(0.488281 0.488281)" d="M456.649 629.374L496.946 668.737C501.705 673.477 507.762 678.003 511.637 683.469L511.987 795.455C508.772 793.671 505.413 789.541 502.766 786.911L484.453 768.734L400.54 686.887C406.056 678.603 415.048 671.142 422.144 664.113L456.649 629.374Z"/>
	<path fill="#F3CDCA" transform="scale(0.488281 0.488281)" d="M512.707 528.137L588.006 601.314L512.75 676.059L511.773 676.4L436.969 601.822C438.461 599.668 440.975 597.71 442.89 595.871L453.873 585.193L512.707 528.137Z"/>
	<path fill="#F3CDCA" transform="scale(0.488281 0.488281)" d="M604.197 501.963L618.62 477.945C630.361 456.628 638.309 432.22 638.256 407.73C638.243 401.692 637.542 395.542 636.559 389.59C636.054 386.537 634.542 382.751 634.715 379.727C651.106 376.458 670.317 381.822 684.039 390.985C700.738 402.135 712.608 417.883 716.585 437.747C720.184 455.724 716.304 474.023 705.994 489.07C701.356 495.84 693.901 501.901 688.047 507.693L649.665 546.083C640.703 538.626 632.743 530.21 624.334 522.174L610.838 509.086C608.589 506.854 605.893 504.627 604.197 501.963Z"/>
	<path fill="#F3CDCA" transform="scale(0.488281 0.488281)" d="M377.841 379.211L390.765 379.099L387.745 396.661C387.111 402.123 386.483 407.844 386.635 413.34C387.494 444.357 400.964 472.107 419.935 496.01C418.921 497.786 417.097 499.306 415.654 500.779L406.069 510.3L370.911 543.827L360.707 534.063L324.542 498.722L314.555 488.932C313.033 487.42 310.753 485.482 310.006 483.425C307.027 475.219 305.401 466.78 304.733 458.091C303.252 438.851 311.177 418.653 323.726 404.281C337.282 388.757 357.609 380.487 377.841 379.211Z"/>
	<path fill="#FCF5E2" transform="scale(0.488281 0.488281)" d="M566.166 313.843C569.848 310.171 574.019 306.959 578.023 303.647C609.902 277.279 648.514 262.921 690 263.201C729.512 263.467 767.913 281.195 795.389 309.251C823.619 338.078 839.236 375.754 838.942 416.176C838.765 440.668 832.233 465 820.467 486.451C817.626 491.631 814.537 497.206 810.87 501.838C811.77 496.944 813.744 492.193 814.82 487.274C817.99 472.778 818.882 456.419 817.221 441.672C812.256 397.609 786.625 360.101 752.65 332.781C749.648 329.872 745.823 327.484 742.402 325.061C732.411 317.985 722.236 311.707 711.019 306.725C674.446 290.479 629.58 286.754 591.844 301.195L566.166 313.843Z"/>
	<path fill="#F4B2C3" transform="scale(0.488281 0.488281)" d="M479.41 495.494L508.355 523.464L315.737 710.994L260.75 658.05C261.008 657.069 260.74 657.424 261.438 656.905C263.616 657.37 266.249 656.786 268.444 656.444C290.426 653.02 312.099 645.425 331 633.577C338.488 628.883 345.486 623.552 352.146 617.748L376.484 594.709L415.454 557.571L456.438 518.422C464.077 511.119 473.199 504.051 479.41 495.494Z"/>
	<path fill="#FCF5E2" transform="scale(0.488281 0.488281)" d="M233.684 523.886C232.561 523.096 231.621 522.253 230.632 521.301C225.621 516.475 220.342 511.359 216.028 505.901C195.707 480.191 184.722 444.749 184.171 412.173C183.543 375.05 199.119 337.482 224.922 310.908C252.953 282.04 290.283 262.609 331.065 262.02C362.769 261.562 394.582 272.557 421.53 288.695C429.048 293.198 436.114 297.59 442.444 303.736C438.707 303.048 434.73 301.13 431.142 299.801L427.245 299.094C421.964 297.393 416.44 296.501 411 295.464C372.704 288.165 332.955 296.025 298.546 313.692C261.291 332.819 232.518 365.833 219.826 405.883C211.26 432.912 210.545 459.895 217.838 487.271C220.221 496.215 223.166 505.036 227.48 513.25C229.36 516.831 232.404 520.067 233.684 523.886Z"/>
	<path fill="#EE8B96" transform="scale(0.488281 0.488281)" d="M233.684 523.886C232.404 520.067 229.36 516.831 227.48 513.25C223.166 505.036 220.221 496.215 217.838 487.271C210.545 459.895 211.26 432.912 219.826 405.883C232.518 365.833 261.291 332.819 298.546 313.692C332.955 296.025 372.704 288.165 411 295.464C416.44 296.501 421.964 297.393 427.245 299.094L426.609 299.479C425.066 300.307 406.374 299.188 402.382 299.466C391.564 300.222 380.558 301.678 370.133 304.75C332.67 315.787 302.024 344.514 287.992 380.938C277.696 407.663 276.295 437.038 288.141 463.543L298.412 482.219L259.047 508.444C251.026 513.828 242.688 520.097 234.035 524.341L233.684 523.886Z"/>
	<path fill="#55BDC3" transform="scale(0.488281 0.488281)" d="M511.425 899.459C508.58 898.116 504.854 893.461 502.504 891.195L476.286 865.848L320.545 715.686L370.37 667.335L511.471 804.578C510.931 808.781 511.179 813.069 511.218 817.299L511.325 835.926L511.425 899.459Z"/>
	<path fill="#1682A0" transform="scale(0.488281 0.488281)" d="M511.471 804.578C513.009 804.724 513.052 804.412 514.244 803.417C519.733 798.836 524.839 793.35 529.922 788.308L556.418 761.928L625.694 694.369C635.213 685.168 644.089 674.285 654.562 666.215L705.089 714.854L675.835 742.735L635.01 781.534L577.231 836.321L532.578 879.623L517.755 893.953C515.924 895.711 513.693 898.45 511.425 899.459L511.325 835.926L511.218 817.299C511.179 813.069 510.931 808.781 511.471 804.578Z"/>
	<path fill="#F15F69" transform="scale(0.488281 0.488281)" d="M427.245 299.094L431.142 299.801C424.016 312.061 415.818 323.396 409.255 336.047C403.036 348.033 398.762 360.706 393.243 372.955L392.132 373.229C368.976 371.756 344.115 376.859 326.275 392.64C309.657 407.34 299.124 428.437 298.051 450.607C297.594 460.053 298.782 469.11 301.206 478.229C302.203 481.98 303.199 486.113 305.898 489.019L365.211 547.98L310.9 599.829L234.035 524.341C242.688 520.097 251.026 513.828 259.047 508.444L298.412 482.219L288.141 463.543C276.295 437.038 277.696 407.663 287.992 380.938C302.024 344.514 332.67 315.787 370.133 304.75C380.558 301.678 391.564 300.222 402.382 299.466C406.374 299.188 425.066 300.307 426.609 299.479L427.245 299.094Z"/>
	<path fill="#55BDC3" transform="scale(0.488281 0.488281)" d="M206.337 505.44C208.586 507.02 211.039 510.593 213.016 512.639L232.751 532.604L267.893 567.49L305.622 604.646L255.697 652.398L174.939 573.061C159.251 557.075 144.942 539.338 133.841 519.827C114.519 485.869 104.806 447.102 105.232 408.074C105.882 348.436 129.285 288.999 172.221 247.102C184.902 234.728 199.112 223.079 214.259 213.869C245.423 194.92 283.624 183.379 319.917 180.759C328.405 180.146 337.031 180.472 345.532 180.592L345.75 181.263C335.45 182.483 325.168 183.272 314.96 185.25C300.028 188.143 284.786 192.385 270.75 198.275C238.64 211.749 209.981 234.178 188.396 261.425C159.216 298.257 143.478 349.83 149.181 396.685C153.543 432.523 170.076 467.473 194.755 493.818C198.33 497.635 201.972 502.08 206.094 505.269L206.337 505.44Z"/>
	<path fill="#1682A0" transform="scale(0.488281 0.488281)" d="M772.99 197.25C777.555 197.59 783.399 201.282 787.511 203.345C815.53 217.4 841.567 236.061 862.089 259.923C874.442 274.287 885.428 289.474 894.307 306.263C913.959 343.425 922.47 385.949 919.266 427.774C915.627 475.283 897.658 520.575 866.498 556.816C854.782 570.444 841.121 582.742 828.27 595.291L790.456 632.739L766.806 655.411L716.971 606.788L782.314 541.864L805.044 519.17C808.284 515.744 811.431 512.103 814.227 508.309C816.157 505.69 817.857 502.636 820.089 500.286C822.064 499.896 829.059 489.674 830.765 487.462C861.151 448.077 875.659 397.866 869.272 348.462C862.679 297.459 838.091 249.981 799.12 216.111C794.233 211.864 788.893 207.855 783.508 204.25C780.16 202.009 776.602 200.089 773.425 197.599L772.99 197.25Z"/>
	<path fill="#F9821E" transform="scale(0.488281 0.488281)" d="M485.636 437.109L511.255 411.914L536.282 436.022L572.652 471.345C576.282 474.93 602.478 501.637 604.197 501.963C605.893 504.627 608.589 506.854 610.838 509.086L624.334 522.174C632.743 530.21 640.703 538.626 649.665 546.083L652.855 549.496L692.674 588.195C700.461 598.226 710.405 607.004 719.454 615.886L755.129 650.864L763.487 658.889L709.434 710.468L457.634 465.197L485.636 437.109Z"/>
	<path fill="#F9B747" transform="scale(0.488281 0.488281)" d="M485.636 437.109L511.255 411.914L536.282 436.022L572.652 471.345C576.282 474.93 602.478 501.637 604.197 501.963C605.893 504.627 608.589 506.854 610.838 509.086L624.334 522.174C632.743 530.21 640.703 538.626 649.665 546.083L652.855 549.496L692.674 588.195C700.461 598.226 710.405 607.004 719.454 615.886L755.129 650.864L754.774 651.107C750.184 654.351 742.748 655.546 737.215 655.607C720.321 655.793 705.912 648.933 692.376 639.37C680.776 631.174 671.061 620.326 661.049 610.313L626.308 575.968L499.721 451.409L485.636 437.109Z"/>
	<path fill="#1682A0" transform="scale(0.488281 0.488281)" d="M345.532 180.592C356.07 180.545 367.022 182.443 377.362 184.335C407.491 189.848 436.099 200.58 462.231 216.654C471.973 222.646 480.995 229.47 490.112 236.345C472.011 254.172 458.104 274.884 443.836 295.724C419.388 277.109 392.513 264.467 362.411 258.314C347.785 255.325 332.521 254.042 317.666 256.083C275.276 261.909 235.914 284.292 210.016 318.6C205.666 324.362 201.332 330.147 197.726 336.415C181.226 365.093 174.319 399.562 178.981 432.339C181.676 451.282 187.322 469.539 196.04 486.603L202.586 498.436C203.988 500.782 205.638 502.754 206.337 505.44L206.094 505.269C201.972 502.08 198.33 497.635 194.755 493.818C170.076 467.473 153.543 432.523 149.181 396.685C143.478 349.83 159.216 298.257 188.396 261.425C209.981 234.178 238.64 211.749 270.75 198.275C284.786 192.385 300.028 188.143 314.96 185.25C325.168 183.272 335.45 182.483 345.75 181.263L345.532 180.592Z"/>
	<path fill="#F15F69" transform="scale(0.488281 0.488281)" d="M591.844 301.195C629.58 286.754 674.446 290.479 711.019 306.725C722.236 311.707 732.411 317.985 742.402 325.061C745.823 327.484 749.648 329.872 752.65 332.781C786.625 360.101 812.256 397.609 817.221 441.672C818.882 456.419 817.99 472.778 814.82 487.274C813.744 492.193 811.77 496.944 810.87 501.838C806.99 507.643 801.731 512.584 796.816 517.504L774.125 539.745L711.576 602.779C707.346 599.153 703.209 594.888 698.597 591.777L692.674 588.195L652.855 549.496L685.695 517.058C696.201 506.671 706.647 497.107 714.751 484.622C720.014 473.579 723.105 462.625 722.912 450.25C722.597 430.131 713.692 410.949 699.367 396.995C687.685 385.615 673.189 378.044 657.081 375.363C649.003 374.018 640.964 373.963 632.806 374.1C631.117 367.496 628.282 361.015 625.681 354.725L610.564 319.626C607.874 313.258 605.003 306.781 603.072 300.14L593.072 302.25L591.844 301.195Z"/>
	<path fill="#DB1C48" transform="scale(0.488281 0.488281)" d="M752.65 332.781C786.625 360.101 812.256 397.609 817.221 441.672C818.882 456.419 817.99 472.778 814.82 487.274C813.744 492.193 811.77 496.944 810.87 501.838C806.99 507.643 801.731 512.584 796.816 517.504L774.125 539.745L711.576 602.779C707.346 599.153 703.209 594.888 698.597 591.777L730.687 559.496C743.947 546.402 758.28 533.64 768.178 517.675C785.506 489.723 795.84 455.833 793.378 422.758C792.709 413.764 790.783 404.671 788.459 395.97C784.975 382.926 779.727 370.143 772.309 358.827L764.406 347.857L755.283 337.171C754.413 336.158 752.965 334.828 752.737 333.47L752.65 332.781Z"/>
	<path fill="#DB1C48" transform="scale(0.488281 0.488281)" d="M603.072 300.14C639.036 296.505 671.399 305.511 699.534 328.435C721.407 346.256 735.633 373.767 738.4 401.716C740.852 426.474 735.044 449.952 723.361 471.72C721.392 475.39 719.168 480.378 716.362 483.398C715.894 483.901 715.322 484.253 714.751 484.622C720.014 473.579 723.105 462.625 722.912 450.25C722.597 430.131 713.692 410.949 699.367 396.995C687.685 385.615 673.189 378.044 657.081 375.363C649.003 374.018 640.964 373.963 632.806 374.1C631.117 367.496 628.282 361.015 625.681 354.725L610.564 319.626C607.874 313.258 605.003 306.781 603.072 300.14Z"/>
	<path fill="#55BDC3" transform="scale(0.488281 0.488281)" d="M820.089 500.286C836.804 474.987 846.218 444.345 845.892 414C845.461 373.758 828.9 332.832 800.041 304.498C792.23 296.829 783.957 289.528 774.879 283.385C748.523 265.549 716.588 256.257 684.818 256.548C616.834 257.171 557.724 299.402 527.139 358.606C522.842 366.925 519.232 375.658 516.25 384.531L512.787 396.451C512.28 398.323 511.821 401.059 510.779 402.687C509.254 405.069 506.797 407.188 504.837 409.231L490.823 423.123L452.655 460.468C449.372 455.527 447.171 449.646 445.216 444.062C431.027 403.538 440.689 361.792 458.841 324.339C467.519 306.432 479.339 289.353 492.175 274.178C499.618 265.377 507.446 256.682 515.914 248.848C543.766 223.082 576.768 204.102 612.572 191.808C655.248 177.154 701.886 176.108 745.336 187.802C754.633 190.304 764.329 193.011 772.99 197.25L773.425 197.599C776.602 200.089 780.16 202.009 783.508 204.25C788.893 207.855 794.233 211.864 799.12 216.111C838.091 249.981 862.679 297.459 869.272 348.462C875.659 397.866 861.151 448.077 830.765 487.462C829.059 489.674 822.064 499.896 820.089 500.286Z"/>
</svg>
