<?xml version="1.0" encoding="utf-8" ?>
<svg xmlns="http://www.w3.org/2000/svg" xmlns:xlink="http://www.w3.org/1999/xlink" width="500" height="500">
	<path fill="#C2D231" transform="scale(0.488281 0.488281)" d="M-0 -0L1024 0L1024 1024L-0 1024L0 -0Z"/>
	<path fill="#A1B527" transform="scale(0.488281 0.488281)" d="M305.92 879.123C315.482 894.214 328.336 903.758 345.918 907.643C358.101 910.335 372.28 909.145 384.761 909.138L441.387 909.163L598.24 909.04L644.093 909.01C653.006 909.008 662.11 909.421 670.983 908.505C680.162 907.558 689.607 904.007 697.36 899.057C705.161 894.076 711.516 887.108 716.598 879.433C718.58 880.831 723.38 881.263 725.977 882.03C732.815 884.049 739.409 886.543 745.735 889.849C750.703 892.444 755.969 896.034 757.578 901.75C758.402 904.678 757.041 908.038 755.498 910.5C753.617 913.5 750.314 915.846 747.365 917.716C737.924 923.702 726.738 927.233 716.022 930.154C674.453 941.483 629.979 945.306 587.083 947.702L557.259 949.474C494.94 951.733 431.993 949.55 370.059 942.293C346.342 939.514 322.6 935.965 299.632 929.27C290.2 926.521 280.501 923.536 271.946 918.587C265.913 915.096 262.468 911.736 260.65 904.93C261.764 901.629 262.827 899.397 265.301 896.899C275.019 887.085 292.962 882.705 305.92 879.123Z"/>
	<path fill="#121C50" transform="scale(0.488281 0.488281)" d="M305.92 879.123C302.036 871.988 299.01 864.401 298.529 856.189C298.157 849.821 298.405 843.332 298.422 836.951L298.511 803.878L298.513 706.939L298.592 468.146L298.877 411.312L298.817 389.925C298.796 382.35 298.73 374.964 300.872 367.609C303.055 360.113 306.483 353.127 311.55 347.157C318.759 338.663 328.738 332.303 337.436 325.404L381.584 289.75C382.197 289.245 386.408 286.224 386.539 285.755C387.194 283.418 386.558 278.733 386.565 276.187L386.77 246.015C376.066 246.071 361.64 248.3 353.425 240.077C351.391 238.042 349.283 234.871 348.74 231.986C348.131 228.751 348.518 224.814 348.522 221.5L348.522 201.12L348.584 129.25C348.727 123.979 350.855 119.476 354.654 115.843C358.014 112.631 362.14 110.7 366.748 110.227C370.698 109.822 374.881 110.084 378.853 110.075L401.51 110.038L474.187 110.002L593.545 110.013L654.534 110.075C660.272 110.266 665.386 112.194 669.248 116.586C671.656 119.323 673.933 123.082 674.464 126.729C675.23 131.993 674.781 137.831 674.781 143.142L674.77 174.577L674.832 209.337C674.86 215.429 675.317 221.919 674.727 227.974C674.227 233.098 671.223 238.308 667.266 241.607C659.299 248.249 646.729 246.439 636.973 246.354L636.998 286.075L684.411 324.476L700.401 337.189C704.462 340.451 708.431 343.466 711.687 347.583C718.896 356.697 723.677 368.392 724.879 379.959C725.953 390.302 725.22 401.234 725.179 411.647L725.198 466.475L725.43 659.36L725.249 793.264L725.379 830.466C725.41 839.909 726.065 849.748 724.187 859.045C722.692 866.443 720.112 872.773 716.598 879.433C711.516 887.108 705.161 894.076 697.36 899.057C689.607 904.007 680.162 907.558 670.983 908.505C662.11 909.421 653.006 909.008 644.093 909.01L598.24 909.04L441.387 909.163L384.761 909.138C372.28 909.145 358.101 910.335 345.918 907.643C328.336 903.758 315.482 894.214 305.92 879.123Z"/>
	<path fill="#188661" transform="scale(0.488281 0.488281)" d="M596.052 246.456L622.955 246.42L622.945 277.118C622.948 282.017 622.251 288.275 623.498 292.96L596.992 293.018C595.365 290.917 596.104 283.977 596.098 281.124L596.052 246.456Z"/>
	<path fill="#086854" transform="scale(0.488281 0.488281)" d="M399.472 292.83C401.478 288.816 400.44 280.558 400.453 275.929L400.51 246.409L431.521 246.483L431.722 274.663C431.796 280.588 432.415 287.125 431.462 292.962L399.472 292.83Z"/>
	<path fill="#F1492A" transform="scale(0.488281 0.488281)" d="M655.491 731.991L711.191 731.998L711.134 805.299L655.912 805.143L655.606 805.075L655.491 731.991Z"/>
	<path fill="#B82314" transform="scale(0.488281 0.488281)" d="M312.944 731.236L368.005 731.5L368.001 805.939L312.932 805.895L312.944 731.236Z"/>
	<path fill="#188661" transform="scale(0.488281 0.488281)" d="M312.932 805.895L368.001 805.939C367.446 811.451 367.635 817.066 367.607 822.601L367.5 849.403L367.467 863.764C367.462 866.306 367.244 869.07 367.695 871.576C368.53 876.218 370.498 880.815 373.458 884.516C377.297 889.315 381.512 892.197 387.079 894.673C383.142 895.415 378.512 894.991 374.491 895.014C367.399 895.053 359.143 895.845 352.231 894.678L351.5 894.547C343.841 893.308 336.783 889.88 330.5 885.411C328.271 883.826 326.359 882.137 324.423 880.204C317.539 873.33 313.305 863.607 312.492 853.915C311.928 847.195 312.716 840.09 312.832 833.325L312.932 805.895Z"/>
	<path fill="#3DC39E" transform="scale(0.488281 0.488281)" d="M711.134 805.299L711.342 832.733C711.463 850.787 711.487 866.944 697.89 880.801C690.684 888.144 680.985 893.303 670.75 894.569L669.82 894.694C664.055 895.417 657.995 895.077 652.176 895.115C646.186 895.155 639.988 895.557 634.037 895.053C635.729 893.954 637.59 893.245 639.374 892.317C646.55 888.585 651.968 881.82 654.419 874.145L654.62 873.5C656.849 866.769 655.858 857.644 655.839 850.597L655.677 818.829C655.652 814.832 655.026 809.729 655.769 805.837L655.912 805.143L711.134 805.299Z"/>
	<path fill="#188661" transform="scale(0.488281 0.488281)" d="M431.521 246.483L563.12 246.481L563.014 293.004L431.462 292.962C432.415 287.125 431.796 280.588 431.722 274.663L431.521 246.483Z"/>
	<path fill="#3DC39E" transform="scale(0.488281 0.488281)" d="M596.992 293.018L623.498 292.96C631.939 301.378 641.349 308.481 650.608 315.957L680.73 340.607C686.411 345.214 692.704 349.311 697.871 354.484C700.837 357.454 703.217 360.742 705.172 364.454C710.741 375.034 710.931 384.826 710.948 396.488L711.126 441.544L655.331 441.568L654.978 441.444L655.042 383.346L655.054 367.779C655.047 365.736 655.349 362.745 654.592 360.859C651.843 354.002 644.742 347.361 639.851 341.874L622.483 322.287L605.835 303.661C603.138 300.651 599.359 297.255 597.38 293.744L596.992 293.018Z"/>
	<path fill="#188661" transform="scale(0.488281 0.488281)" d="M399.472 292.83L431.462 292.962L431.158 293.4C427.37 298.764 422.681 303.714 418.361 308.662L393.271 336.654C384.688 346.153 372.291 357.082 368.877 369.751C367.652 374.297 367.737 379.378 367.692 384.068L367.629 403.382L367.577 428.264C367.57 432.092 367.139 436.475 367.669 440.249L367.949 441.529L313.285 441.723L313.466 378.5C313.935 371.508 316.442 364.373 320.669 358.777C328.295 348.68 340.294 341.086 350.067 333.239L399.472 292.83Z"/>
	<path fill="#F1492A" transform="scale(0.488281 0.488281)" d="M654.978 441.444L655.331 441.568L711.126 441.544L711.253 519.091L707.265 519.123C699.837 520.214 691.442 519.511 683.908 519.527C674.455 519.547 664.697 520.043 655.276 519.464L604.565 519.37L604.384 519.077C604.859 515.23 604.511 510.983 604.509 507.079L604.478 483.969L604.394 455.438C604.375 450.997 604.942 445.808 603.973 441.512L654.978 441.444Z"/>
	<path fill="#F6A588" transform="scale(0.488281 0.488281)" d="M654.978 441.444L655.331 441.568C654.752 444.215 655.017 447.096 655.025 449.795L655.066 463.519L655.193 519.114L707.265 519.123C699.837 520.214 691.442 519.511 683.908 519.527C674.455 519.547 664.697 520.043 655.276 519.464L604.565 519.37L604.384 519.077C604.859 515.23 604.511 510.983 604.509 507.079L604.478 483.969L604.394 455.438C604.375 450.997 604.942 445.808 603.973 441.512L654.978 441.444Z"/>
	<path fill="#84D1B4" transform="scale(0.488281 0.488281)" d="M563.12 246.481L596.052 246.456L596.098 281.124C596.104 283.977 595.365 290.917 596.992 293.018L597.38 293.744C599.359 297.255 603.138 300.651 605.835 303.661L622.483 322.287L639.851 341.874C644.742 347.361 651.843 354.002 654.592 360.859C655.349 362.745 655.047 365.736 655.054 367.779L655.042 383.346L654.978 441.444L603.973 441.512L603.707 393.088L603.555 378.348C603.51 374.687 603.675 371.16 602.662 367.605C599.053 354.939 590.132 344.474 582.72 333.834L568.195 312.753C567.063 311.177 562.621 306.402 562.34 304.77C562.192 303.911 562.567 302.201 562.637 301.276L563.014 293.004L563.12 246.481Z"/>
	<path fill="#DEAE45" transform="scale(0.488281 0.488281)" d="M313.041 519.638L367.985 519.471L368.005 731.5L312.944 731.236L313.041 519.638Z"/>
	<path fill="#F1492A" transform="scale(0.488281 0.488281)" d="M526.663 124.378L630.053 124.4L650.41 124.39C651.596 124.39 655.213 124.052 656.25 124.482C656.742 124.686 657.697 125.488 658.11 125.892C659.046 126.806 659.939 128.236 660.16 129.542C660.683 132.62 660.298 136.354 660.296 139.5L660.31 158.843L660.176 225.5C660.087 227.483 659.529 228.859 658.034 230.2C656.929 231.192 655.745 231.895 654.25 232.028C647.096 232.665 639.348 232.097 632.139 232.097L586.349 232.084L537.972 232.016C530.085 231.998 521.673 232.563 513.838 231.859L512.991 231.777L512.837 212.546L512.989 212.176L513.007 141.027L512.957 124.512L526.663 124.378Z"/>
	<path fill="#F6A588" transform="scale(0.488281 0.488281)" d="M513.007 141.027L525.207 141.02L525.082 212.389C521.377 212.393 516.542 212.998 512.989 212.176L513.007 141.027Z"/>
	<path fill="#F6A588" transform="scale(0.488281 0.488281)" d="M546.455 140.917L564.786 140.954L564.616 212.256L546.529 212.342L546.455 140.917Z"/>
	<path fill="#F6A588" transform="scale(0.488281 0.488281)" d="M586.011 140.94L604.193 140.996L604.082 212.502L586.126 212.588L586.011 140.94Z"/>
	<path fill="#F6A588" transform="scale(0.488281 0.488281)" d="M625.494 141.009L643.824 141.023L643.647 212.572L625.432 212.648L625.494 141.009Z"/>
	<path fill="#B82314" transform="scale(0.488281 0.488281)" d="M512.991 231.777C509.38 231.37 505.574 231.657 501.93 231.678L482.253 231.792L405.599 231.784L368.397 231.859C367.181 231.812 365.479 231.724 364.516 230.903C363.441 229.987 363.071 229.11 362.939 227.75C362.289 221.053 362.71 213.788 362.66 207.038L362.697 159.105L362.725 136.56C362.733 134.243 362.282 129.856 363.039 127.75C363.195 127.315 363.897 126.309 364.25 125.934C365.63 124.471 367.034 124.362 368.947 124.232C376.058 123.747 383.423 124.12 390.557 124.115L430.622 124.058L526.663 124.378L512.957 124.512L513.007 141.027L512.989 212.176L512.837 212.546L512.991 231.777Z"/>
	<path fill="#F1492A" transform="scale(0.488281 0.488281)" d="M512.837 212.546L496.534 212.506L496.475 141.125L513.007 141.027L512.989 212.176L512.837 212.546Z"/>
	<path fill="#F1492A" transform="scale(0.488281 0.488281)" d="M419.132 140.989L436.987 140.962L436.892 212.275L419.458 212.141L419.132 140.989Z"/>
	<path fill="#F1492A" transform="scale(0.488281 0.488281)" d="M380.67 141.086L398.612 141.101L398.669 212.454L380.836 212.452L380.67 141.086Z"/>
	<path fill="#F1492A" transform="scale(0.488281 0.488281)" d="M457.379 140.974L475.538 140.969L475.579 212.142L457.459 212.136L457.379 140.974Z"/>
	<path fill="#F9D35D" transform="scale(0.488281 0.488281)" d="M707.265 519.123L711.253 519.091L711.191 731.998L655.491 731.991L606.037 731.957L605.528 731.463L604.565 519.37L655.276 519.464C664.697 520.043 674.455 519.547 683.908 519.527C691.442 519.511 699.837 520.214 707.265 519.123Z"/>
	<path fill="#FAE8A7" transform="scale(0.488281 0.488281)" d="M604.565 519.37L655.276 519.464L655.491 731.991L606.037 731.957L605.528 731.463L604.565 519.37Z"/>
	<path fill="#F1492A" transform="scale(0.488281 0.488281)" d="M367.949 441.529L603.973 441.512C604.942 445.808 604.375 450.997 604.394 455.438L604.478 483.969L604.509 507.079C604.511 510.983 604.859 515.23 604.384 519.077C598.543 520.032 591.636 519.359 585.685 519.358L546.765 519.342L428.407 519.211C408.426 519.211 387.918 518.36 367.985 519.471L313.041 519.638L313.285 441.723L367.949 441.529Z"/>
	<path fill="#B82314" transform="scale(0.488281 0.488281)" d="M367.949 441.529C366.945 448.967 367.908 457.631 367.929 465.215L367.985 519.471L313.041 519.638L313.285 441.723L367.949 441.529Z"/>
	<path fill="#3DC39E" transform="scale(0.488281 0.488281)" d="M431.462 292.962L563.014 293.004L562.637 301.276C562.567 302.201 562.192 303.911 562.34 304.77C562.621 306.402 567.063 311.177 568.195 312.753L582.72 333.834C590.132 344.474 599.053 354.939 602.662 367.605C603.675 371.16 603.51 374.687 603.555 378.348L603.707 393.088L603.973 441.512L367.949 441.529L367.669 440.249C367.139 436.475 367.57 432.092 367.577 428.264L367.629 403.382L367.692 384.068C367.737 379.378 367.652 374.297 368.877 369.751C372.291 357.082 384.688 346.153 393.271 336.654L418.361 308.662C422.681 303.714 427.37 298.764 431.158 293.4L431.462 292.962Z"/>
	<path fill="#3DC39E" transform="scale(0.488281 0.488281)" d="M605.528 731.463L606.037 731.957L655.491 731.991L655.606 805.075L655.912 805.143L655.769 805.837C655.026 809.729 655.652 814.832 655.677 818.829L655.839 850.597C655.858 857.644 656.849 866.769 654.62 873.5L654.419 874.145C651.968 881.82 646.55 888.585 639.374 892.317C637.59 893.245 635.729 893.954 634.037 895.053L630.514 895.116C623.314 895.889 615.215 895.348 607.954 895.269L577.019 895.274L456.208 895.321L411.265 895.115C403.582 895.116 394.607 896.023 387.079 894.673C381.512 892.197 377.297 889.315 373.458 884.516C370.498 880.815 368.53 876.218 367.695 871.576C367.244 869.07 367.462 866.306 367.467 863.764L367.5 849.403L367.607 822.601C367.635 817.066 367.446 811.451 368.001 805.939L368.005 731.5L605.528 731.463Z"/>
	<path fill="#84D1B4" transform="scale(0.488281 0.488281)" d="M655.606 805.075L655.912 805.143L655.769 805.837C655.026 809.729 655.652 814.832 655.677 818.829L655.839 850.597C655.858 857.644 656.849 866.769 654.62 873.5L654.419 874.145C651.968 881.82 646.55 888.585 639.374 892.317C637.59 893.245 635.729 893.954 634.037 895.053L630.514 895.116C622.72 894.191 613.978 894.972 606.08 894.973L605.99 805.5L655.606 805.075Z"/>
	<path fill="#F1492A" transform="scale(0.488281 0.488281)" d="M605.528 731.463L606.037 731.957L655.491 731.991L655.606 805.075L605.99 805.5L368.001 805.939L368.005 731.5L605.528 731.463Z"/>
	<path fill="#F6A588" transform="scale(0.488281 0.488281)" d="M606.037 731.957L655.491 731.991L655.606 805.075L605.99 805.5L606.037 731.957Z"/>
	<path fill="#F9D35D" transform="scale(0.488281 0.488281)" d="M604.384 519.077L604.565 519.37L605.528 731.463L368.005 731.5L367.985 519.471C387.918 518.36 408.426 519.211 428.407 519.211L546.765 519.342L585.685 519.358C591.636 519.359 598.543 520.032 604.384 519.077Z"/>
	<path fill="#F49939" transform="scale(0.488281 0.488281)" d="M504.348 538.708C509.184 538.166 514.824 538.176 519.667 538.641C542.527 540.835 566.047 552.226 580.647 570.193C589.796 581.452 596.907 595.655 599.364 609.997C600.206 614.911 600.146 619.923 600.044 624.891C599.66 643.598 594.221 664.09 583.085 679.387C567.696 700.525 545.239 713.025 519.618 716.873C498.958 719.112 474.667 709.931 458.555 697.305C439.163 682.109 427.566 659.421 424.592 635.154C421.839 612.686 428.626 589.162 442.674 571.492C454.819 556.217 472.247 545.048 491.264 540.546C495.522 539.538 500.001 539.18 504.348 538.708Z"/>
	<path fill="#F1492A" transform="scale(0.488281 0.488281)" d="M482.882 548.241L541.376 548.358L541.402 596.488L591.666 596.546L591.558 654.538L541.438 654.569L541.33 702.054L482.709 702.259L482.929 654.407L433.903 654.526L434.116 596.746L482.503 596.823C483.607 593.25 482.771 587.066 482.778 583.248L482.882 548.241Z"/>
	<path fill="#F9F0DE" transform="scale(0.488281 0.488281)" d="M490.364 556.062L534.117 555.996L534.013 603.979L584.457 603.963L584.503 647.213L534.112 647.277L534.071 693.25L533.906 694.393C533.687 694.585 533.525 694.875 533.25 694.97C531.229 695.663 526.334 694.945 523.964 694.938L490.206 694.925L490.014 647.02L441.5 647.293L441.506 604.093L490.328 604.071L490.364 556.062Z"/>
</svg>
