<?xml version="1.0" encoding="utf-8" ?>
<svg xmlns="http://www.w3.org/2000/svg" xmlns:xlink="http://www.w3.org/1999/xlink" width="500" height="500">
	<path fill="#46BBB8" transform="scale(0.488281 0.488281)" d="M1023.5 1024L-0 1024L0 -0L1023.5 0C1024.98 3.26715 1024.04 10.539 1024.03 14.4145L1024.04 51.385L1024.05 175.891L1024.05 846.013L1024.04 981.31L1024.03 1011.98C1024.03 1015.32 1024.75 1020.44 1023.75 1023.45L1023.5 1024Z"/>
	<path fill="#19065E" transform="scale(0.488281 0.488281)" d="M573.547 68.7313C586.338 68.3971 599.792 69.8334 612.322 72.3166C658.03 81.3748 698.5 108.69 724.358 147.447C729.998 155.9 735.295 164.664 739.457 173.948C742.044 179.717 744.035 185.912 745.959 191.932C755.193 220.829 758.009 251.848 751.973 281.698C745.971 311.387 730.917 339.25 711.37 362.206C705.711 368.851 699.748 375.444 693.126 381.137C684.173 388.834 674.523 394.695 664.751 401.156C662.504 405.313 660.878 409.938 659.057 414.304L649.188 437.874L623.456 498.059L582.21 594.069L570.931 620.999C569.327 624.794 567.163 628.683 565.893 632.572C565.259 634.511 565.595 637.584 565.571 639.658L565.46 656.547L551.49 656.616L551.286 820.994C567.563 820.943 583.831 822.242 600.045 823.534C631.069 826.006 662.108 829.629 692.5 836.482C705.668 839.451 718.735 842.701 731.265 847.813C740.293 851.496 753.346 857.58 756.988 867.484C758.179 870.721 757.485 875.969 757.487 879.473L757.48 898.937C757.499 902.493 758.332 908.958 756.697 912.12L756.337 912.75C754.877 915.356 752.96 917.55 750.673 919.466C746.503 922.957 741.138 925.575 736.204 927.807C723.255 933.664 709.575 937.091 695.75 940.145C648.922 950.491 600.115 954.279 552.25 955.74C500.04 957.334 448.485 955.818 396.488 950.852C366.378 947.302 336.172 942.585 307.115 933.745C296.929 930.646 284.803 926.938 276.471 920.091C272.674 916.97 269.754 913.517 269.376 908.446C268.759 900.168 269.189 891.515 269.177 883.201C269.168 877.097 268.463 869.967 269.529 864C269.904 861.902 271.295 859.916 272.703 858.37C280.011 850.353 291.588 846.491 301.571 843.056C342.415 829.001 387.32 824.255 430.25 821.354L474.216 818.853L474.209 701.756C459.953 709.439 447.086 712.91 431.134 714.561C430.508 715.474 430.194 716.405 429.784 717.428L422.024 736C420.206 740.469 418.544 745.917 415.735 749.861C414.438 751.683 412.762 753.038 410.691 753.873C408.085 754.925 405.239 755.443 402.446 754.818C399.361 754.128 396.085 752.327 393.201 751.039L376.787 743.841L314.25 717.494C306.007 714.08 298.059 710.071 294.591 701.233C289.155 687.376 297.726 673.049 303.038 660.355C297.539 655.157 293.008 648.266 289.187 641.767C278.203 623.086 272.157 603.121 271.077 581.467C270.335 566.597 272.049 551.606 276.405 537.355C279.186 528.254 283.072 519.421 286.672 510.62L299.672 478.618L339.185 383.139L402.071 228.48L418.957 187.98C423.336 177.379 427.484 166.598 432.601 156.329C438.791 143.905 446.618 132.575 455.915 122.29C478.502 97.3013 507.247 80.1254 540.224 72.7998C551.268 70.3463 562.272 69.2957 573.547 68.7313Z"/>
	<path fill="#1D45A6" transform="scale(0.488281 0.488281)" d="M474.262 606.709L477 606.546C478.397 606.703 478.797 607.933 479.493 609C483.12 614.56 487.185 618.65 492.493 622.574L492.25 622.884L486.875 622.975L468.496 623.002C468.489 620.587 467.795 608.443 468.849 607.138L474.262 606.709Z"/>
	<path fill="#331E6E" transform="scale(0.488281 0.488281)" d="M550.506 605.077L561.11 605.221C560.373 611.505 559.277 617.231 557.656 623.357L541.935 623.359L531.305 622.965C539.731 618.838 545.368 612.755 550.506 605.077Z"/>
	<path fill="#1D45A6" transform="scale(0.488281 0.488281)" d="M667.749 113.434L669.608 109.21L670.109 108.554L687.799 122.316L680.166 138.16C678.532 141.679 676.871 146.134 674.315 149.088L671.125 133.027L670.727 132.958L667.749 113.434Z"/>
	<path fill="#AC70A3" transform="scale(0.488281 0.488281)" d="M483.693 112.25C484.196 114.431 479.636 122.067 478.569 124.263C473.299 135.11 468.682 146.34 462.773 156.853L454.375 153.221C452.769 152.523 451.016 151.895 449.56 150.924C458.256 135.678 470.342 123.474 483.693 112.25Z"/>
	<path fill="#331E6E" transform="scale(0.488281 0.488281)" d="M522.433 631.071L556.375 630.973L556.007 646.887L522.493 646.994L522.433 631.071Z"/>
	<path fill="#F59558" transform="scale(0.488281 0.488281)" d="M432.87 229.545L417.902 223.312C418.493 220.017 420.727 216.132 422.04 212.974L430.655 191.518L446.87 198.127L432.87 229.545Z"/>
	<path fill="#108F6E" transform="scale(0.488281 0.488281)" d="M716.36 282.999L737.627 293.641L727.716 317.496L707.056 306.934L716.36 282.999Z"/>
	<path fill="#F59558" transform="scale(0.488281 0.488281)" d="M414.083 275.489L398.738 269.152L412.894 235.113C414.582 235.31 416.416 236.33 418.011 236.986L428.523 241.164L414.083 275.489Z"/>
	<path fill="#108F6E" transform="scale(0.488281 0.488281)" d="M741.3 221.871C743.629 231.04 743.983 241.829 743.742 251.267C743.64 255.277 743.678 259.566 742.843 263.5C741.694 268.912 739.229 274.555 737.635 279.899L726.156 273.77L718.003 269.62L741.3 221.871Z"/>
	<path fill="#1D45A6" transform="scale(0.488281 0.488281)" d="M522.493 646.994L469.014 647.023L468.996 631.191L522.433 631.071L522.493 646.994Z"/>
	<path fill="#108F6E" transform="scale(0.488281 0.488281)" d="M701.567 318.819L721.161 329.511C712.382 345.807 699.657 360.416 685.943 372.762L673.907 381.958L701.567 318.819Z"/>
	<path fill="#69F3E3" transform="scale(0.488281 0.488281)" d="M673.25 154.914C674.266 157.167 673.712 160.47 673.628 162.91C672.968 182.263 668.297 203.137 661.455 221.213L653.593 239.908L636.575 232.435L673.25 154.914Z"/>
	<path fill="#F59558" transform="scale(0.488281 0.488281)" d="M377.368 367.108L361.555 360.202L375.363 327.251L391.152 333.703L403.603 339.136L390.76 372.814L377.368 367.108Z"/>
	<path fill="#FCF5FA" transform="scale(0.488281 0.488281)" d="M391.152 333.703L403.603 339.136L390.76 372.814L377.368 367.108C381.534 355.64 385.265 344.452 391.152 333.703Z"/>
	<path fill="#F59558" transform="scale(0.488281 0.488281)" d="M394.593 321.707L379.559 315.079L393.969 280.519L409.343 286.765L421.844 292.264L407.567 327.308L394.593 321.707Z"/>
	<path fill="#FCF5FA" transform="scale(0.488281 0.488281)" d="M409.343 286.765L421.844 292.264L407.567 327.308L394.593 321.707L409.343 286.765Z"/>
	<path fill="#FCD7B0" transform="scale(0.488281 0.488281)" d="M316.744 469.022L333.361 476.543C329.221 483.627 326.584 491.443 323.47 499C318.387 511.337 312.491 524.42 309.161 537.327C307.167 536.913 305.012 535.746 303.067 535.051L291.182 531.123L316.744 469.022Z"/>
	<path fill="#22A8C7" transform="scale(0.488281 0.488281)" d="M568.443 462.811L616.498 485.176L607.364 506.25L606.695 506.906C602.741 506.207 597.871 503.043 594.094 501.291L559.796 485.156L568.443 462.811Z"/>
	<path fill="#22A8C7" transform="scale(0.488281 0.488281)" d="M654.757 252.014L707.282 276.985L697.426 298.114L645.766 273.795L654.757 252.014Z"/>
	<path fill="#D992C0" transform="scale(0.488281 0.488281)" d="M316.744 469.022L343.179 405.1L362.692 413.163L333.361 476.543L316.744 469.022Z"/>
	<path fill="#1D45A6" transform="scale(0.488281 0.488281)" d="M732.924 188.633L736.17 197.663C738.093 203.755 739.634 210.006 740.638 216.317C740.757 217.062 741.337 219.161 741.179 219.829C740.914 220.951 739.776 222.61 739.238 223.68L734.761 232.648L716.886 269.297L711.57 266.548L699.217 260.671L732.924 188.633Z"/>
	<path fill="#331E6E" transform="scale(0.488281 0.488281)" d="M371.492 695.514C380.017 698.84 388.306 703.015 396.634 706.814C403.707 710.041 411.317 712.984 418.011 716.925L413.502 727.261C411.633 731.711 409.493 739.824 404.868 741.804C400.632 741.962 396.229 739.676 392.425 737.99L373.252 729.306C368.721 727.362 363.857 725.87 359.456 723.673C360.335 720.489 362.149 717.126 363.45 714.066L371.492 695.514Z"/>
	<path fill="#108F6E" transform="scale(0.488281 0.488281)" d="M673.25 154.914C674.884 151.318 677.017 147.99 678.762 144.451L686.358 128.912C687.06 127.493 687.952 124.831 689.119 123.846C694.385 128.975 700.782 134.325 704.856 140.455L657.959 241.802L653.593 239.908L661.455 221.213C668.297 203.137 672.968 182.263 673.628 162.91C673.712 160.47 674.266 157.167 673.25 154.914Z"/>
	<path fill="#AC70A3" transform="scale(0.488281 0.488281)" d="M470.129 536.499L470.423 536.479C472.853 538.333 476.175 539.284 478.95 540.552L495.75 548C498.746 549.156 503.128 550.05 505.7 551.887C493.521 555.76 485.259 561.319 479.262 572.977C475.058 581.15 474.551 589.506 475.851 598.458C472.318 598.595 463.928 597.993 461.379 600.782C460.568 601.671 460.56 602.196 460.25 603.321C455.701 601.553 450.695 598.088 446.021 597.023C447.671 591.381 451.02 585.651 453.378 580.188C459.456 566.1 465.941 551.263 470.129 536.499Z"/>
	<path fill="#69F3E3" transform="scale(0.488281 0.488281)" d="M518.338 91.75L519.68 91.5727C519.679 93.7707 517.435 97.7417 516.526 99.9041L499.521 137C495.062 146.599 491.104 157.531 485.568 166.535L471.625 160.253L464.069 157.185L481.756 119.831C483.364 116.549 485.22 111.284 487.737 108.75C490.049 106.424 493.319 104.583 496.112 102.883C503.115 98.6192 510.78 94.9101 518.338 91.75Z"/>
	<path fill="#AC70A3" transform="scale(0.488281 0.488281)" d="M547.414 83.25L547.818 83.9629L505.959 175.24L492.715 169.502L486.914 166.857L511.331 114.215L517.662 99.6042C518.839 96.8327 519.957 93.3305 521.718 90.9136C523.164 88.9289 544.174 83.8524 547.414 83.25Z"/>
	<path fill="#108F6E" transform="scale(0.488281 0.488281)" d="M719.76 161.585L732.503 186.646L708.827 237.378L701.192 253.709C700.232 255.657 699.276 258.274 697.811 259.839L693.166 257.653L678.119 250.449C685.334 238.492 690.437 225.825 696.273 213.189L719.76 161.585Z"/>
	<path fill="#75429B" transform="scale(0.488281 0.488281)" d="M359.456 723.673L311.512 703.33C308.701 701.766 306.131 698.812 305.354 695.654C303.826 689.441 307.016 682.199 309.21 676.464C310.222 673.819 311.1 671.063 312.525 668.61L371.492 695.514L363.45 714.066C362.149 717.126 360.335 720.489 359.456 723.673Z"/>
	<path fill="#1D45A6" transform="scale(0.488281 0.488281)" d="M706.275 142.142L718.942 160.132L707.25 185.427L691.646 219.614C688.982 225.348 680.709 247.039 676.5 249.903L673.128 248.224L659.068 242.072L706.275 142.142Z"/>
	<path fill="#AC70A3" transform="scale(0.488281 0.488281)" d="M667.749 113.434L670.727 132.958C670.648 134.194 671.217 136.036 671.428 137.288L673.215 147.994C673.452 149.651 673.759 151.232 673.214 152.863C672.047 156.358 669.977 159.875 668.361 163.214L659.059 182.614C651.285 198.953 644.273 215.994 635.543 231.827C634.07 231.771 631.482 230.028 630.078 229.353L617.119 223.235L649.75 151.355L661.131 126.56C663.198 122.183 665.084 117.479 667.749 113.434Z"/>
	<path fill="#AC70A3" transform="scale(0.488281 0.488281)" d="M577.805 80.5559L599.966 82.2647L550.25 192.024C549.888 192.615 549.461 193.071 549 193.586L529.165 185.564L577.805 80.5559Z"/>
	<path fill="#69F3E3" transform="scale(0.488281 0.488281)" d="M572.267 80.7137L575.884 80.6896C576.212 81.8254 576.056 81.6811 575.602 82.7204L547.251 144.938L528.145 185.206L516.788 179.994L507.058 175.506L549.464 82.7876L572.267 80.7137Z"/>
	<path fill="#AC70A3" transform="scale(0.488281 0.488281)" d="M626.11 87.9431L646.421 95.71C645.664 99.4876 642.767 103.975 641.108 107.535L627.086 137.664L593.085 211.75C592.801 212.27 592.422 212.584 592 212.993L573.148 204.306C573.708 201.436 576.012 197.988 577.286 195.288L584.499 179.5L613.145 116.722L626.11 87.9431Z"/>
	<path fill="#69F3E3" transform="scale(0.488281 0.488281)" d="M600.907 82.3498L625.011 87.7979L572.894 202.316L572.25 203.441C569.171 203.919 553.943 195.922 550.328 194.187L600.907 82.3498Z"/>
	<path fill="#69F3E3" transform="scale(0.488281 0.488281)" d="M647.433 96.0441L668.777 107.862C668.075 110.606 666.369 113.358 665.157 115.942L657.401 132.422L625.25 202.556L619.109 215.906C618.144 218.06 617.283 220.989 615.721 222.75L593.442 213.454L647.433 96.0441Z"/>
	<path fill="#F59558" transform="scale(0.488281 0.488281)" d="M509.829 557.583C516.755 557.021 522.952 558.218 529.008 561.645C536.354 565.801 541.505 572.77 543.665 580.894C545.868 589.176 544.688 597.627 540.396 605.028C535.218 613.956 527.667 617.881 517.989 620.434C509.791 621.146 502.99 619.977 495.912 615.619C488.773 611.224 483.65 602.887 481.962 594.733C480.349 586.946 482.573 578.148 486.906 571.584C492.313 563.394 500.483 559.444 509.829 557.583Z"/>
	<path fill="#19065E" transform="scale(0.488281 0.488281)" d="M511.758 567.664C516.282 567.658 520.283 568.313 524.284 570.578C528.739 573.1 532.181 577.266 533.488 582.255L533.67 582.983L534.268 585.515C535.157 590.827 533.753 596.563 530.468 600.846C526.253 606.342 521.04 608.967 514.26 609.82C509.293 610.183 504.245 608.685 500.234 605.78C495.779 602.555 492.503 597.253 491.75 591.816C490.96 586.108 492.426 580.283 495.927 575.701C499.982 570.392 505.433 568.518 511.758 567.664Z"/>
	<path fill="#69F3E3" transform="scale(0.488281 0.488281)" d="M512.484 571.642C515.419 571.815 518.347 572.189 521 573.542C524.877 575.518 528.064 578.71 529.348 582.951C530.745 587.564 530.417 592.55 527.97 596.75C524.881 602.049 520.12 604.277 514.438 605.777C510.555 605.577 507.264 605.176 503.926 602.989C499.897 600.35 497.248 596.494 496.339 591.745C495.473 587.222 496.454 582.311 499.146 578.566C502.501 573.899 507.093 572.508 512.484 571.642Z"/>
	<path fill="#75429B" transform="scale(0.488281 0.488281)" d="M488.959 656.569L540.024 656.788L539.864 859.596C534.664 863.166 529.7 864.758 523.532 865.76L523.134 657.003L489.632 656.64L488.959 656.569Z"/>
	<path fill="#D992C0" transform="scale(0.488281 0.488281)" d="M403.603 339.136L499.657 381.573L487.433 414.623L390.76 372.814L403.603 339.136Z"/>
	<path fill="#A261B4" transform="scale(0.488281 0.488281)" d="M494.846 470.267L547.957 492.994L523.853 552.553L523.029 552.359C517.269 551.033 511.527 551.111 505.7 551.887C503.128 550.05 498.746 549.156 495.75 548L478.95 540.552C476.175 539.284 472.853 538.333 470.423 536.479C472.673 527.426 476.849 518.258 480.143 509.518L494.846 470.267Z"/>
	<path fill="#D992C0" transform="scale(0.488281 0.488281)" d="M446.87 198.127L458.676 203.186L551.886 244.705L540.423 276.337L446.144 235.281L432.87 229.545L446.87 198.127Z"/>
	<path fill="#FCF5FA" transform="scale(0.488281 0.488281)" d="M446.87 198.127L458.676 203.186L446.144 235.281L432.87 229.545L446.87 198.127Z"/>
	<path fill="#75429B" transform="scale(0.488281 0.488281)" d="M554.595 496.105L602.368 517.181L569.504 594.835C568.552 597.114 567.441 600.677 565.75 602.423C565.594 601.02 565.341 599.979 564.84 598.659C561.937 597.443 557.038 597.964 553.828 597.906C554.033 590.694 554.028 584.242 551.538 577.321C548.064 567.664 540.047 558.408 530.661 554.13L529.976 553.822L554.595 496.105Z"/>
	<path fill="#D992C0" transform="scale(0.488281 0.488281)" d="M421.844 292.264L518.252 334.171L504.786 369.729L407.567 327.308L421.844 292.264Z"/>
	<path fill="#75429B" transform="scale(0.488281 0.488281)" d="M460.082 606.452C461.06 611.209 460.41 617.131 460.399 622.017L460.188 656.273L473.98 656.335L474.001 691.703C460.828 699.903 445.916 705.039 430.317 705.543C427.868 705.622 424.505 705.952 422.17 705.331C421.306 705.101 420.562 704.748 419.75 704.384L371.037 681.977L356.259 675.214C353.722 674.023 350.776 672.91 348.465 671.314C351.411 670.807 354.62 671.161 357.611 671.216L374.053 671.11C402.125 669.773 430.214 660.144 451.533 641.478L458.298 635.11C458.452 634.968 459.844 633.831 459.901 633.654C460.342 632.268 459.894 628.926 459.893 627.371L460.082 606.452Z"/>
	<path fill="#75429B" transform="scale(0.488281 0.488281)" d="M438.313 942.563C405.514 941.232 371.851 936.743 339.75 929.996C328.313 927.592 317.198 925.2 306.078 921.52C298.759 919.098 288.999 915.845 283.541 910.311C282.944 909.705 281.954 908.854 281.512 908.156C280.223 906.119 281.024 889.065 281.029 885.573C294.894 894.852 312.53 899.09 328.595 902.794C371.761 912.747 416.716 916.742 460.931 918.552L466.686 919.148L453.832 932.002L446.256 940.441C445.79 940.929 444.698 942.312 444.125 942.546C443.068 942.978 439.623 942.559 438.313 942.563Z"/>
	<path fill="#D992C0" transform="scale(0.488281 0.488281)" d="M428.523 241.164L440.964 246.14L536.102 288.38C532.013 299.63 528.651 311.952 523.222 322.597L426.426 280.64L414.083 275.489L428.523 241.164Z"/>
	<path fill="#FCF5FA" transform="scale(0.488281 0.488281)" d="M428.523 241.164L440.964 246.14L433.506 265.5C431.612 270.491 429.539 276.298 426.426 280.64L414.083 275.489L428.523 241.164Z"/>
	<path fill="#69F3E3" transform="scale(0.488281 0.488281)" d="M444.216 160.676L647.755 248.882L638.564 270.819L435.317 180.615L444.216 160.676Z"/>
	<path fill="#69F3E3" transform="scale(0.488281 0.488281)" d="M356.677 372.055C365.076 374.471 373.299 378.722 381.322 382.182L422.379 399.8L562.783 460.226L553.872 482.89L348.088 394.549L356.677 372.055Z"/>
	<path fill="#331E6E" transform="scale(0.488281 0.488281)" d="M460.931 918.552C464.74 918.464 468.416 918.954 472.226 919.023L515.422 919.876L618.894 914.539C661.118 910.417 707.046 905.505 745.671 886.703L745.569 908.833C731.118 921.06 711.582 924.826 693.564 928.837C664.238 935.365 635.21 938.801 605.306 941.245C559.945 944.951 514.467 945.54 468.99 943.862L450.25 943.105C446.809 942.984 443.131 943.282 439.724 942.873C439.051 942.792 438.888 942.727 438.313 942.563C439.623 942.559 443.068 942.978 444.125 942.546C444.698 942.312 445.79 940.929 446.256 940.441L453.832 932.002L466.686 919.148L460.931 918.552Z"/>
	<path fill="#D992C0" transform="scale(0.488281 0.488281)" d="M523.532 865.76C511.303 866.68 495.76 867.775 485.047 860.681L485.117 756.5C485.093 747.808 483.783 658.939 485.087 656.656L488.959 656.569L489.632 656.64L523.134 657.003L523.532 865.76Z"/>
	<path fill="#BE4C2A" transform="scale(0.488281 0.488281)" d="M640.908 285.803L680.846 304.383L689.111 308.143C690.506 308.785 692.391 309.372 693.448 310.51L679.048 342.356L677.414 341.202C673.205 338.383 646.191 324.147 642.469 325.156C640.601 325.663 638.922 327.339 637.962 328.953C636.905 330.733 636.405 333.277 637.058 335.285C637.499 336.639 638.678 337.776 639.825 338.564C643.306 340.956 647.824 342.587 651.672 344.389L673.366 354.756L660.509 385.498L636.845 373.716C633.354 372.002 628.074 368.37 624.25 368.498C621.832 369.43 620.1 370.644 618.965 373.057C618.248 374.582 618.3 376.45 618.917 378C619.596 379.703 620.535 380.855 622.023 381.907C625.289 384.215 629.425 385.539 633.051 387.236L654.768 397.36L644.419 421.692C643.514 423.663 642.386 427.125 640.75 428.444L637.126 426.797L618 418.103C614.921 416.551 611.935 414.524 608.692 413.346C607.296 412.839 606.199 412.746 604.787 413.247C602.752 413.97 600.855 416.219 599.979 418.119C599.171 419.868 598.87 422.176 599.609 423.992C601.544 428.749 629.384 440.295 635.44 443.019L627.714 461.454C626.115 465.275 624.673 469.303 622.622 472.901L573.235 450.587L640.908 285.803Z"/>
	<path fill="#D992C0" transform="scale(0.488281 0.488281)" d="M369.196 416.119L494.846 470.267L480.143 509.518C476.849 518.258 472.673 527.426 470.423 536.479L470.129 536.499L346.229 482.04L369.196 416.119Z"/>
	<path fill="#EE8065" transform="scale(0.488281 0.488281)" d="M551.886 244.705L634.266 282.062L566.386 448.52L487.433 414.623L499.657 381.573L540.846 399.572C545.354 401.505 549.896 404.147 554.491 405.75C555.509 406.105 556.58 406.224 557.641 405.944C559.906 405.347 562.056 403.405 562.969 401.269C563.471 400.094 563.537 398.932 563.079 397.75C562.487 396.222 561.58 395.052 560.24 394.096C555.925 391.017 549.217 388.87 544.342 386.725L504.786 369.729L518.252 334.171L564.577 354.92C568.538 356.604 573.035 359.229 577.25 359.895C579.469 359.348 581.426 358.512 582.568 356.395C583.545 354.585 583.602 352.644 582.873 350.752C582.047 348.606 580.2 347.221 578.148 346.35L523.222 322.597C528.651 311.952 532.013 299.63 536.102 288.38L578.685 307.2C584.291 309.697 590.02 313.029 595.772 315.087C596.62 315.39 597.511 315.593 598.411 315.393C600.576 314.913 602.594 313.135 603.56 311.182C604.32 309.649 604.714 307.722 604.077 306.094C603.478 304.563 602.403 303.389 601.016 302.527C596.682 299.833 590.838 298.211 586.104 296.121L540.423 276.337L551.886 244.705Z"/>
	<path fill="#F59558" transform="scale(0.488281 0.488281)" d="M610.453 904.374C543.122 910.014 474.974 910.576 407.715 903.627C380.785 900.844 354.201 897.262 327.891 890.754C318.228 888.364 308.732 885.872 299.5 882.086C294.816 880.166 289.639 877.823 285.75 874.538C283.692 872.8 281.831 870.786 281.567 868C282.068 866.802 282.559 865.85 283.454 864.89C288.951 858.996 299.526 855.728 306.986 853.308C329.395 846.039 352.907 842.177 376.181 838.914C408.6 834.368 441.201 831.545 473.94 830.884L473.853 848.03C473.758 853.535 472.277 861.319 475.5 866.043C479.286 871.592 487.229 874.3 493.577 875.437C507.852 877.995 523.667 878.447 537.453 873.334C542.576 871.434 548.124 868.537 550.385 863.247L550.656 862.569C551.997 859.259 551.436 854.721 551.396 851.187L551.124 831.564L677.823 844.941C691.655 847.854 736.216 856.938 743.34 868.311C744.192 869.669 744.424 871.805 743.864 873.309C742.138 877.946 730.606 881.896 726.183 883.539C696.055 894.725 662.261 898.298 630.543 902.236L616.5 903.928C614.603 904.117 612.345 904.559 610.453 904.374Z"/>
	<path fill="#BE4C2A" transform="scale(0.488281 0.488281)" d="M677.823 844.941C691.655 847.854 736.216 856.938 743.34 868.311C744.192 869.669 744.424 871.805 743.864 873.309C742.138 877.946 730.606 881.896 726.183 883.539C696.055 894.725 662.261 898.298 630.543 902.236L616.5 903.928C614.603 904.117 612.345 904.559 610.453 904.374C609.72 903.939 609.13 903.711 608.275 903.628C596.217 902.469 583.769 902.852 571.625 902.257L495.894 898.221L677.3 845.141L677.823 844.941Z"/>
	<path fill="#D992C0" transform="scale(0.488281 0.488281)" d="M362.692 413.163L369.196 416.119L346.229 482.04L470.129 536.499C465.941 551.263 459.456 566.1 453.378 580.188C451.02 585.651 447.671 591.381 446.021 597.023C446.756 598.213 448.005 598.742 449.176 599.434C451.883 601.034 458.438 603.911 460.082 606.452L459.893 627.371C459.894 628.926 460.342 632.268 459.901 633.654C459.844 633.831 458.452 634.968 458.298 635.11L451.533 641.478C430.214 660.144 402.125 669.773 374.053 671.11L357.611 671.216C354.62 671.161 351.411 670.807 348.465 671.314C345.259 670.601 341.814 668.668 338.785 667.302L317.45 656.926C316.716 656.892 316.848 656.956 316.237 656.746C309.444 654.405 297.381 632.474 294.196 625.692C284.276 604.567 280.15 578.953 284.112 555.876C285.577 547.34 288.27 539.253 291.182 531.123L303.067 535.051C305.012 535.746 307.167 536.913 309.161 537.327C312.491 524.42 318.387 511.337 323.47 499C326.584 491.443 329.221 483.627 333.361 476.543L362.692 413.163Z"/>
	<path fill="#FCF5FA" transform="scale(0.488281 0.488281)" d="M362.692 413.163L369.196 416.119L346.229 482.04C345.349 485.97 343.454 489.684 341.902 493.38L335.478 509.629L328.193 529.375C326.651 533.803 325.345 538.562 323.445 542.836C321.777 549.196 319.445 555.338 317.921 561.741C312.895 582.871 314.911 603.236 320.43 623.974C317.132 620.774 313.992 614.736 311.835 610.646C303.587 595.003 300.892 577.465 303.509 560C304.66 552.313 306.862 544.734 309.161 537.327C312.491 524.42 318.387 511.337 323.47 499C326.584 491.443 329.221 483.627 333.361 476.543L362.692 413.163Z"/>
	<path fill="#A261B4" transform="scale(0.488281 0.488281)" d="M445.345 597.432L446.021 597.023C446.756 598.213 448.005 598.742 449.176 599.434C451.883 601.034 458.438 603.911 460.082 606.452L459.893 627.371C459.894 628.926 460.342 632.268 459.901 633.654C459.844 633.831 458.452 634.968 458.298 635.11L451.533 641.478C430.214 660.144 402.125 669.773 374.053 671.11L357.611 671.216C354.62 671.161 351.411 670.807 348.465 671.314C345.259 670.601 341.814 668.668 338.785 667.302L317.45 656.926C322.677 656.758 328.138 657.771 333.384 658.054C349.376 658.915 364.937 657.287 379.999 651.636C401.888 643.424 419.65 630.522 434.652 612.647C438.58 607.966 442.801 603.034 445.345 597.432Z"/>
	<path fill="#FCD7B0" transform="scale(0.488281 0.488281)" d="M346.229 482.04L470.129 536.499C465.941 551.263 459.456 566.1 453.378 580.188C451.02 585.651 447.671 591.381 446.021 597.023L445.345 597.432L400.556 577.31L359.5 559.021L335.084 548.353C331.194 546.591 327.103 545.041 323.445 542.836C325.345 538.562 326.651 533.803 328.193 529.375L335.478 509.629L341.902 493.38C343.454 489.684 345.349 485.97 346.229 482.04Z"/>
</svg>
