<?xml version="1.0" encoding="utf-8" ?>
<svg xmlns="http://www.w3.org/2000/svg" xmlns:xlink="http://www.w3.org/1999/xlink" width="500" height="500">
	<path fill="#F17369" transform="scale(0.488281 0.488281)" d="M-0 -0L1024 0L1024 1024L-0 1024L0 -0Z"/>
	<path fill="#FCFCFD" transform="scale(0.488281 0.488281)" d="M704.243 163.25L704.771 163.268C705.585 166.061 706.399 168.949 707.858 171.483C710.959 176.87 717.835 179.056 723.507 180.497L716 183.469C709.54 186.734 707.122 192.218 704.957 198.75L704.25 199.14L703.184 195.402C699.877 186.844 693.975 184.125 686.081 180.629C688.677 179.836 691.409 179.098 693.725 177.646C699.162 174.237 702.853 170.199 704.146 163.755L704.243 163.25Z"/>
	<path fill="#FCFCFD" transform="scale(0.488281 0.488281)" d="M324.047 143.924L324.506 145.25C328.218 155.151 333.917 159.031 343.312 163.149L337.75 165.047C331.672 167.564 326.989 174.436 324.517 180.294L324.25 180.939L323.895 181.547C323.148 181.465 322.408 178.862 322.002 178C318.335 170.23 313.439 166.311 305.695 162.915C315.529 157.968 319.515 153.91 324.047 143.924Z"/>
	<path fill="#FCFCFD" transform="scale(0.488281 0.488281)" d="M816.58 734.181C820.22 745.069 825.873 749.496 835.348 754.967L832 756.487C823.89 760.408 819.573 765.112 816.606 773.75L816.246 773.607L815.482 771.75C814.275 768.746 812.974 765.757 810.68 763.394C807.254 759.866 801.545 757.555 797.194 755.284C806.619 750.019 812.79 745.371 816.36 734.847L816.58 734.181Z"/>
	<path fill="#FCFCFD" transform="scale(0.488281 0.488281)" d="M197.647 703.664C199.635 707.761 201.38 713.744 204.59 716.983C207.937 720.362 215.051 722.24 219.412 724.459L217.247 725.379C213.517 726.999 207.042 729.149 204.307 732.037C201.624 734.87 199.984 740.66 198.57 744.25C198.343 744.756 198.051 745.185 197.75 745.65C196.239 741.792 194.46 735.343 191.786 732.214C188.796 728.716 181.524 726.663 177.428 724.371L183.083 721.787C191.884 717.735 194.446 712.391 197.647 703.664Z"/>
	<path fill="#EB5243" transform="scale(0.488281 0.488281)" d="M672.303 249.443C686.376 255.027 698.098 265.378 703.982 279.489C706.605 285.78 707.823 292.729 709.482 299.323C704.049 296.803 697.506 293.769 693.15 289.679C690.018 286.738 687.707 282.943 685.333 279.393C683.439 276.56 681.261 273.597 680.031 270.404C678.707 266.968 677.893 263.313 676.682 259.828C675.455 256.296 673.825 252.856 672.303 249.443Z"/>
	<path fill="#FCFCFD" transform="scale(0.488281 0.488281)" d="M255.743 207.25C256.071 207.924 256.178 208.406 256.308 209.159C257.317 215.046 258.734 220.879 262.065 225.921C268.46 235.601 278.207 238.221 288.942 240.507C282.479 242.04 275.342 243.784 269.75 247.546C259.281 254.589 257.968 265.067 255.819 276.485C254.573 269.597 253.596 263.443 250.059 257.233C243.966 246.536 234.265 243.33 223.017 240.28C229.254 239.151 236.386 237.589 241.752 234.061C250.931 228.024 253.884 217.36 255.743 207.25Z"/>
	<path fill="#FCFCFD" transform="scale(0.488281 0.488281)" d="M805.905 238.936C807.899 246.042 809.633 252.681 813.306 259.171C819.237 269.651 830.194 274.105 841.165 277.235C834.739 279.026 828.736 280.111 823.109 284.012C813.11 290.943 808.172 302.446 806.131 314.012C804.291 306.66 802.309 299.171 797.886 292.877C790.91 282.949 781.067 279.105 769.496 277.067C776.116 275.348 782.417 273.814 788.235 270.026C799.171 262.904 803.385 251.101 805.905 238.936Z"/>
	<path fill="#EB5243" transform="scale(0.488281 0.488281)" d="M759.136 769.011C751.253 760.574 742.889 757.482 731.697 755.826C762.329 714.715 785.731 670.738 799.745 621.25C803.185 609.102 805.714 596.706 808.076 584.312L809.712 575.043C809.796 574.55 809.895 572.89 810.139 572.51C811.086 571.035 813.942 569.065 815.318 567.84L828.504 555.879L864.504 521.755L884.16 542.286L858.62 567.12L842.718 583.443C840.569 585.457 838.29 587.319 835.829 588.94C834.74 589.657 831.893 590.87 831.15 591.761C830.35 592.718 828.55 606.035 827.99 608.419C823.808 626.221 819.732 644.002 813.729 661.31C804.971 686.559 793.198 711.03 780.021 734.25L764.853 760.09C763.401 762.511 760.864 765.361 759.92 767.918L760.298 768.367C762.151 770.268 765.248 771.722 767.472 773.285C773.019 777.181 778.83 783.498 782.031 789.5L782.412 790.206C788.069 800.833 788.85 812.917 785.25 824.338C781.856 835.106 773.757 843.565 763.719 848.523C755.263 852.7 742.3 853.029 733.081 851.791C732.346 851.693 727.962 850.838 727.807 850.998C727.56 851.25 726.998 852.764 726.806 853.182L723.434 860.449C720.58 866.306 717.111 871.857 713.394 877.2C705.652 888.331 695.849 899.363 685 907.517C668.478 919.934 648.998 926.943 628.744 930.343C622.138 931.452 615.535 931.813 608.884 932.476C608.983 936.642 609.454 941.14 608.193 945.153L607.956 945.919C606.267 951.177 602.779 956.407 597.782 959.021C591.384 962.369 583.775 962.67 577 960.37C573.107 959.048 569.661 956.704 566.056 954.778C560.183 965.87 555.713 976.397 542.656 980.539C533.834 983.338 524.944 982.951 516.648 978.492C511.818 975.895 506.848 972.237 503.95 967.5L503.603 966.947C501.955 964.282 500.83 961.428 499.804 958.478L498.971 958.582C493.7 959.216 488.081 959.309 482.874 958.205L481.944 958.019C476.831 956.954 472.224 954.628 467.907 951.75L467.146 951.253C460.553 946.84 456.995 940.737 453.985 933.633L458.094 934.636C466.091 936.363 473.666 934.009 480.332 929.619L480.933 929.217C481.511 933.144 482.087 936.777 483.961 940.339C487.873 947.778 494.057 953.483 502.232 955.869L503 956.087L504.578 956.542C512.012 958.36 520.752 956.155 527.076 952.131C535.515 946.762 539.378 938.174 541.341 928.661C547.739 932.421 554.399 935.09 561.988 934.428C568.528 933.857 574.95 930.672 579.109 925.566C583.753 919.865 584.612 913.133 583.853 906.113C590.346 907.139 597.141 906.866 603.664 906.452C642.623 903.978 679.188 882.057 698.998 848.308C701.879 843.398 704.483 838.332 706.725 833.098L710.295 823.971C710.632 823.116 710.961 821.674 711.694 821.169C713.764 822.652 715.829 824.231 718.149 825.304C726.257 829.054 735.176 830.257 743.741 827.093C752.109 824.002 760.233 816.993 763.828 808.775C767.873 799.528 767.737 787.213 763.918 777.9L763.54 777C762.324 774.063 760.894 771.644 759.136 769.011Z"/>
	<path fill="#81173D" transform="scale(0.488281 0.488281)" d="M277.589 826.653C268.896 820.412 262.412 812.948 259.462 802.495C256.67 792.6 258.138 781.838 263.283 772.984C269.538 762.222 278.589 757.673 290.211 754.665C284.438 744.259 276.604 734.647 270.295 724.48C255.903 701.287 243.677 676.613 234.094 651.058C226.853 631.75 221.158 612.165 216.698 592.034L213.075 574.944C212.94 574.274 212.57 570.957 212.285 570.616C211.291 569.426 208.561 568.161 207.228 567.1L197.577 558.665L160.152 521.441L209.016 472.23C202.931 469.224 197.294 466.281 192.321 461.563C180.823 450.657 174.308 434.799 174.057 419.055C173.823 404.397 179.543 390.054 189.821 379.597C203.151 366.035 221.635 358.666 240.532 358.566L242.686 349.502C246.666 337.65 254.935 329.146 266.69 324.879C271.997 322.953 277.561 321.77 282.84 319.745C289.015 317.377 295.07 313.711 300.525 309.994C317.372 298.514 329.957 283.747 340.585 266.478C345.038 259.242 349.07 251.793 354.018 244.869C363.271 231.922 376.223 219.111 389.437 210.243C396.567 205.457 404.173 201.655 411.864 197.881C408.276 194.532 405.403 190.844 403.46 186.298C399.65 177.382 399.833 167.505 403.37 158.548C407.263 148.687 415.142 140.765 424.911 136.681C436.427 131.867 447.974 131.878 459.501 136.525C460.608 135.421 461.274 132.259 461.84 130.726L466.911 117.812C474.385 100.791 485.638 85.7078 500.141 74.0791C504.025 70.9648 507.893 67.9364 512.56 66.0992C525.603 72.5212 535.685 83.3626 545.162 94.102C547.543 95.0922 549.309 96.6645 551.428 98.0878C561.429 104.804 569.022 112.91 575.492 123.013L580.898 133.187C596.044 133.748 605.924 139.791 616.185 150.512C619.239 151.748 622.64 152.835 625.41 154.632C632.371 159.148 637.901 167.066 641.144 174.611C645.407 184.531 648.258 198.887 643.898 209.195C643.218 210.803 642.403 212.234 641.428 213.676C647.246 217.804 652.657 221.912 657.447 227.25C663.446 233.935 667.878 241.682 672.303 249.443C673.825 252.856 675.455 256.296 676.682 259.828C677.893 263.313 678.707 266.968 680.031 270.404C681.261 273.597 683.439 276.56 685.333 279.393C687.707 282.943 690.018 286.738 693.15 289.679C697.506 293.769 704.049 296.803 709.482 299.323C717.502 303.975 725.538 308.547 734.047 312.265C744.383 316.782 755.374 320.186 764.865 326.425C769.521 329.486 773.464 333.096 777.113 337.296C777.704 337.977 781.544 343.026 782.044 343.149C789.268 345.646 798.264 351.467 802.018 358.378C802.393 359.069 802.407 359.185 802.624 359.831C810.852 363.536 818.296 366.437 825.226 372.564C827.964 374.985 830.653 377.717 833.057 380.475C833.799 381.327 835.672 384.202 836.59 384.588C839.218 385.648 841.045 387.535 843.155 389.343C852.525 397.373 859.672 406.528 864.466 418C869.021 428.896 870.821 441.589 868.704 453.25C866.104 467.565 858.457 480.009 847.814 489.777C845.262 492.118 842.277 493.972 839.77 496.341L864.504 521.755L828.504 555.879L815.318 567.84C813.942 569.065 811.086 571.035 810.139 572.51C809.895 572.89 809.796 574.55 809.712 575.043L808.076 584.312C805.714 596.706 803.185 609.102 799.745 621.25C785.731 670.738 762.329 714.715 731.697 755.826C742.889 757.482 751.253 760.574 759.136 769.011C760.894 771.644 762.324 774.063 763.54 777L763.918 777.9C767.737 787.213 767.873 799.528 763.828 808.775C760.233 816.993 752.109 824.002 743.741 827.093C735.176 830.257 726.257 829.054 718.149 825.304C715.829 824.231 713.764 822.652 711.694 821.169C710.961 821.674 710.632 823.116 710.295 823.971L706.725 833.098C704.483 838.332 701.879 843.398 698.998 848.308C679.188 882.057 642.623 903.978 603.664 906.452C597.141 906.866 590.346 907.139 583.853 906.113C584.612 913.133 583.753 919.865 579.109 925.566C574.95 930.672 568.528 933.857 561.988 934.428C554.399 935.09 547.739 932.421 541.341 928.661C539.378 938.174 535.515 946.762 527.076 952.131C520.752 956.155 512.012 958.36 504.578 956.542L503 956.087L502.232 955.869C494.057 953.483 487.873 947.778 483.961 940.339C482.087 936.777 481.511 933.144 480.933 929.217L480.332 929.619C473.666 934.009 466.091 936.363 458.094 934.636L453.985 933.633L453.977 933.599L450.119 931.609C444.859 932.171 439.029 931.432 433.81 930.728C417.767 928.562 403.244 923.981 389.4 915.46C377.328 908.029 367.525 899.627 358.481 888.686C356.391 886.157 353.878 883.855 353.102 880.594C346.428 873.681 340.85 866.401 335.459 858.467C323.355 857.912 311.883 856.79 300.99 851.035C292.206 846.393 280.652 836.436 277.589 826.653Z"/>
	<path fill="#F75D86" transform="scale(0.488281 0.488281)" d="M757.691 458.579C760.961 460.984 764.602 463.855 767.422 466.75L765.638 467.964C764.211 468.81 761.881 470.663 760.277 470.742L757.691 458.579Z"/>
	<path fill="#B16E89" transform="scale(0.488281 0.488281)" d="M269.026 447.193L266.245 463.546L257.75 463.482L257.333 462.75C262.136 457.785 265.794 453.324 269.026 447.193Z"/>
	<path fill="#EB5243" transform="scale(0.488281 0.488281)" d="M782.044 343.149C789.268 345.646 798.264 351.467 802.018 358.378C802.393 359.069 802.407 359.185 802.624 359.831L789.376 357.099L782.044 343.149Z"/>
	<path fill="#BA619D" transform="scale(0.488281 0.488281)" d="M210.067 422.138C219.771 426.166 228.457 431.926 239.212 432.443C236.813 435.182 234.251 437.557 230.682 438.628C227.286 439.648 223.124 438.63 220.145 436.854C214.665 433.59 211.628 428.185 210.067 422.138Z"/>
	<path fill="#DC80B4" transform="scale(0.488281 0.488281)" d="M559.058 150.317C563.82 145.89 569.324 143.878 575.483 142.198C579.825 141.014 584.43 141.205 588.75 142.352L589.606 142.573C598.166 144.854 605.741 150.101 610.195 157.843L612.231 161.622C609.339 160.807 607.637 159.12 605.274 157.362C596.918 151.143 584.384 147.547 574.025 148.098C568.907 148.37 564.101 149.568 559.058 150.317Z"/>
	<path fill="#EB5243" transform="scale(0.488281 0.488281)" d="M545.162 94.102C547.543 95.0922 549.309 96.6645 551.428 98.0878C561.429 104.804 569.022 112.91 575.492 123.013L580.898 133.187C575.394 133.717 570.313 134.549 565.088 136.407C562.764 128.045 559.936 119.515 555.923 111.793C552.701 105.593 548.783 100.04 545.162 94.102Z"/>
	<path fill="#26C0E4" transform="scale(0.488281 0.488281)" d="M450.523 921.845L454.5 921.957C457.385 921.821 459.637 920.451 462.181 919.264C469.067 916.05 474.167 912.765 479.454 907.203C483.542 902.904 486.695 898.431 489.88 893.467C490.484 892.526 491.867 891.096 492.209 890.143C492.624 888.989 492.129 885.649 492.105 884.271C493.298 881.84 495.607 879.193 497.75 877.55C499.327 876.34 500.689 876.823 502.52 877.025L494.736 894.343C490.162 904.913 484.571 921.173 472.775 925.466C467.538 927.372 460.751 927.615 455.564 925.351C453.734 924.552 451.967 923.214 450.523 921.845Z"/>
	<path fill="#30ACDD" transform="scale(0.488281 0.488281)" d="M497.664 904.803L497.923 908.11C496.402 913.036 495.614 917.654 495.477 922.813C495.406 925.497 495.7 928.661 495.138 931.252C494.605 932.886 494.505 934.412 495.131 936L495.251 936.438C495.823 937.849 498.482 939.883 499.986 940.262C502.539 940.907 505.929 940.596 508.461 940.056C510.442 939.41 512.41 938.701 514.121 937.485C520.051 933.267 524.188 926.697 524.791 919.371C525.044 916.295 524.715 913.255 525.26 910.196L525.347 909.75L529.133 916.932C531.16 920.563 534.487 924.548 533.278 928.942L533.04 929.75L532.275 932.562C530.318 938.697 525.804 944.131 520.06 947.054C514.964 949.647 508.799 949.882 503.426 948.058C497.588 946.077 492.935 941.391 490.447 935.808C489.182 932.968 487.94 928.72 488.057 925.54C488.15 922.985 492.579 916.746 493.801 914.185C495.253 911.141 496.446 907.948 497.664 904.803Z"/>
	<path fill="#EE9CCB" transform="scale(0.488281 0.488281)" d="M559.058 150.317C564.101 149.568 568.907 148.37 574.025 148.098C584.384 147.547 596.918 151.143 605.274 157.362C607.637 159.12 609.339 160.807 612.231 161.622L613.352 164.352L612.885 164.35C609.934 164.298 607.916 163.03 605.346 161.727C602.005 160.034 598.364 158.037 594.75 157.009C588.112 155.119 581.123 156.246 574.845 158.815C561.769 164.165 552.546 174.075 545.801 186.311C544.485 188.887 543.285 191.371 542.335 194.111L541.445 194.514C541.321 194.035 541.383 193.342 541.418 192.832C541.783 187.456 543.456 181.546 545.08 176.415C548.118 166.821 551.554 157.303 559.058 150.317Z"/>
	<path fill="#816075" transform="scale(0.488281 0.488281)" d="M712.3 321.327C715.585 322.552 718.297 325.502 721.007 327.707C731.827 336.506 741.873 346.144 751.97 355.762C754.348 358.027 757.971 360.651 759.819 363.208C751.539 367.4 745.265 372.284 738.511 378.639L712.3 321.327Z"/>
	<path fill="#EE9CCB" transform="scale(0.488281 0.488281)" d="M412.75 185.418C412.14 184.593 411.677 183.744 411.231 182.819C408.456 177.06 408.428 169.492 410.499 163.5C413.365 155.204 419.638 148.69 427.48 144.891C435.807 140.857 444.601 140.044 453.367 143.251C465.201 147.581 472.348 157.317 477.391 168.412L476.708 168.413C473.115 168.262 468.569 164.869 465.411 163.204C453.148 156.741 434.052 148.363 421.524 158.42C417.1 161.971 413.518 168.062 412.97 173.75C412.777 175.758 412.691 177.883 412.8 179.898C412.899 181.722 413.477 183.703 412.75 185.418Z"/>
	<path fill="#EB5243" transform="scale(0.488281 0.488281)" d="M277.589 826.653C281.673 828.446 285.571 829.972 290 830.675L290.719 830.796C294.503 831.379 299.058 831.232 302.75 830.202L303.51 830C309.097 828.468 313.597 825.252 317.657 821.244C322.974 834.177 328.061 846.536 335.459 858.467C323.355 857.912 311.883 856.79 300.99 851.035C292.206 846.393 280.652 836.436 277.589 826.653Z"/>
	<defs>
		<linearGradient id="gradient_0" gradientUnits="userSpaceOnUse" x1="484.9649" y1="901.66278" x2="471.40414" y2="885.55707">
			<stop offset="0" stop-color="#2DC5EC"/>
			<stop offset="1" stop-color="#1AE2F2"/>
		</linearGradient>
	</defs>
	<path fill="url(#gradient_0)" transform="scale(0.488281 0.488281)" d="M450.523 921.845C447.292 917.982 445.495 913.84 446.025 908.75C446.273 906.372 447.854 904.667 449.583 903.173C456.282 897.383 465.159 892.751 472.635 887.944C485.184 879.876 497.293 871.262 508.582 861.508L502.52 877.025C500.689 876.823 499.327 876.34 497.75 877.55C495.607 879.193 493.298 881.84 492.105 884.271C492.129 885.649 492.624 888.989 492.209 890.143C491.867 891.096 490.484 892.526 489.88 893.467C486.695 898.431 483.542 902.904 479.454 907.203C474.167 912.765 469.067 916.05 462.181 919.264C459.637 920.451 457.385 921.821 454.5 921.957L450.523 921.845Z"/>
	<path fill="#FCFCFD" transform="scale(0.488281 0.488281)" d="M480.678 885.25L482.75 885.497C483.79 886.464 484.133 886.654 484.503 888C483.285 889.968 480.928 891.532 479.062 892.875L468.904 900.058C464.573 903.377 460.616 907.331 456.01 910.25L454.616 910.328C453.875 909.841 453.086 909.418 452.604 908.648C452.175 907.964 451.912 907.677 452.219 906.873C452.988 904.859 454.748 903.534 456.368 902.212C461.404 898.103 466.966 894.684 472.298 890.985C475.074 889.06 477.549 886.594 480.678 885.25Z"/>
	<path fill="#EB5243" transform="scale(0.488281 0.488281)" d="M616.185 150.512C619.239 151.748 622.64 152.835 625.41 154.632C632.371 159.148 637.901 167.066 641.144 174.611C645.407 184.531 648.258 198.887 643.898 209.195C643.218 210.803 642.403 212.234 641.428 213.676C636.465 211.027 631.546 208.464 626.264 206.486C620.288 204.248 613.769 202.698 608.192 199.589C614.829 195.234 620.441 190.774 622.463 182.679L622.626 182C625.477 171.197 621.358 159.907 616.185 150.512Z"/>
	<path fill="#B16E89" transform="scale(0.488281 0.488281)" d="M712.3 321.327L703.529 306.763L727.398 318.465C744.192 325.946 760.839 330.68 772.95 345.513C775.413 348.529 777.938 351.889 779.226 355.59L779.602 356.836L759.819 363.208C757.971 360.651 754.348 358.027 751.97 355.762C741.873 346.144 731.827 336.506 721.007 327.707C718.297 325.502 715.585 322.552 712.3 321.327Z"/>
	<path fill="#EB5243" transform="scale(0.488281 0.488281)" d="M353.102 880.594C360.402 886.577 368.08 892.263 376.531 896.538C394.473 905.612 416.019 908.928 435.953 906.965C436.776 906.884 436.987 906.845 437.796 907.101C437.428 914.134 438.582 920.424 443.382 925.854C445.345 928.075 447.707 929.907 450.119 931.609C444.859 932.171 439.029 931.432 433.81 930.728C417.767 928.562 403.244 923.981 389.4 915.46C377.328 908.029 367.525 899.627 358.481 888.686C356.391 886.157 353.878 883.855 353.102 880.594Z"/>
	<path fill="#77CFE3" transform="scale(0.488281 0.488281)" d="M507.128 881.726C507.974 879.421 508.868 874.783 510.139 872.962L525.347 909.75L525.26 910.196C524.715 913.255 525.044 916.295 524.791 919.371C524.188 926.697 520.051 933.267 514.121 937.485C512.41 938.701 510.442 939.41 508.461 940.056C505.929 940.596 502.539 940.907 499.986 940.262C498.482 939.883 495.823 937.849 495.251 936.438L495.131 936C494.505 934.412 494.605 932.886 495.138 931.252C495.7 928.661 495.406 925.497 495.477 922.813C495.614 917.654 496.402 913.036 497.923 908.11L497.664 904.803L507.128 881.726Z"/>
	<path fill="#FCFCFD" transform="scale(0.488281 0.488281)" d="M497.923 908.11L498.102 907.58C498.661 905.89 499.018 904.309 499.25 902.546L502.895 898.495L500.781 916.925C500.373 921.172 501.368 927.971 499.713 931.713C498.281 932.427 498.095 932.425 496.497 932.25L495.138 931.252C495.7 928.661 495.406 925.497 495.477 922.813C495.614 917.654 496.402 913.036 497.923 908.11Z"/>
	<path fill="#26C0E4" transform="scale(0.488281 0.488281)" d="M507.128 881.726C507.974 879.421 508.868 874.783 510.139 872.962L525.347 909.75L525.26 910.196C524.715 913.255 525.044 916.295 524.791 919.371C524.188 926.697 520.051 933.267 514.121 937.485C512.41 938.701 510.442 939.41 508.461 940.056C509.376 937.855 510.534 935.584 511.091 933.266C512.308 928.199 511.99 922.939 511.981 917.766C511.963 906.937 511.584 896.722 509.915 886.003L509.785 885.048C509.47 883.084 508.625 882.749 507.128 881.726Z"/>
	<path fill="#DC80B4" transform="scale(0.488281 0.488281)" d="M210.067 422.138C209.069 416.439 210.217 410.271 213.552 405.466C217.332 400.021 223.566 396.209 230.094 395.199C233.849 394.618 237.885 394.826 241.537 395.83L242.445 396.073C250.731 398.408 257.755 405.078 261.798 412.515C264.831 418.095 266.779 424.07 266.42 430.462L265.771 430.308C260.787 424.264 253.667 423.019 246.303 421.889C244.946 416.811 243.283 412.951 238.452 410.229C236.215 408.968 233.669 408.833 231.25 409.532L230.584 410.319L231.199 410.453C235.261 411.378 238.455 413.325 240.7 416.904C242.465 419.719 243.113 423.324 242.364 426.574C241.856 428.778 240.58 430.687 239.212 432.443C228.457 431.926 219.771 426.166 210.067 422.138Z"/>
	<defs>
		<linearGradient id="gradient_1" gradientUnits="userSpaceOnUse" x1="407.17624" y1="207.45757" x2="430.10297" y2="236.31712">
			<stop offset="0" stop-color="#98777B"/>
			<stop offset="1" stop-color="#AA7195"/>
		</linearGradient>
	</defs>
	<path fill="url(#gradient_1)" transform="scale(0.488281 0.488281)" d="M478.624 170.747C482.074 178.373 484.227 186.381 485.815 194.585C473.395 196.705 460.674 199.155 448.637 202.936C420.617 211.739 393.529 227.455 371.591 246.863L358.483 259.403C355.385 262.675 352.533 266.242 349.248 269.324C354.223 258.239 361.786 248.417 369.912 239.455C382.803 225.238 397.253 212.933 415.446 206.036C422.93 203.199 430.95 202.002 437.864 197.808L439.603 198.863C441.268 199.881 443.251 201.132 445.25 201.283C445.753 201.321 446.829 201.157 447.25 200.919C450.838 198.894 454.916 193.825 457.971 190.833L478.624 170.747Z"/>
	<path fill="#DC80B4" transform="scale(0.488281 0.488281)" d="M545.801 186.311C552.546 174.075 561.769 164.165 574.845 158.815C581.123 156.246 588.112 155.119 594.75 157.009C598.364 158.037 602.005 160.034 605.346 161.727C607.916 163.03 609.934 164.298 612.885 164.35L613.352 164.352C615.804 170.59 616.253 177.543 613.431 183.778C611.543 187.949 607.812 191.015 603.5 192.454C599.938 193.643 595.783 193.163 592.48 191.451C588.458 189.366 585.59 185.793 584.442 181.422C583.662 178.455 583.926 175.129 585.466 172.439C586.916 169.903 588.951 168.081 591.803 167.319C593.455 166.877 595.118 167.29 596.571 168.145C597.933 168.946 598.836 170.207 599.75 171.46C600.252 169.773 599.981 168.359 599.202 166.819C597.936 164.318 595.939 162.718 593.212 161.992C590.686 161.32 587.624 161.951 585.413 163.286C580.794 166.075 578.23 171.071 577.2 176.219C576.294 180.752 577.745 185.233 579.267 189.444C579.011 189.663 579.057 189.684 578.648 189.701C577.503 189.748 576.062 188.773 575.006 188.347C572.293 187.252 569.59 186.063 566.75 185.332C562.016 184.112 557.633 184.349 552.847 184.706C550.131 184.908 548.33 185.189 545.801 186.311Z"/>
	<path fill="#9B7B6F" transform="scale(0.488281 0.488281)" d="M545.801 186.311C548.33 185.189 550.131 184.908 552.847 184.706C557.633 184.349 562.016 184.112 566.75 185.332C569.59 186.063 572.293 187.252 575.006 188.347C576.062 188.773 577.503 189.748 578.648 189.701C579.057 189.684 579.011 189.663 579.267 189.444L579.645 190.057C583.756 196.564 588.754 198.131 595.244 201.44C597.231 202.453 598.917 204.099 600.75 205.364C603.056 206.956 605.762 208.229 608.306 209.376C613.877 211.89 619.863 213.287 625.563 215.461C631.716 217.808 637.083 221.14 642.428 224.943C656.555 234.993 664.951 252.082 670.968 267.809C664.634 261.325 658.351 254.627 651.529 248.65C626.845 227.024 599.705 212.13 568.737 201.721L553.892 197.379L545.5 195.53C544.219 195.28 542.506 195.25 541.445 194.514L542.335 194.111C543.285 191.371 544.485 188.887 545.801 186.311Z"/>
	<path fill="#DC80B4" transform="scale(0.488281 0.488281)" d="M412.75 185.418C413.477 183.703 412.899 181.722 412.8 179.898C412.691 177.883 412.777 175.758 412.97 173.75C413.518 168.062 417.1 161.971 421.524 158.42C434.052 148.363 453.148 156.741 465.411 163.204C468.569 164.869 473.115 168.262 476.708 168.413L477.391 168.412L478.624 170.747L457.971 190.833C454.916 193.825 450.838 198.894 447.25 200.919C446.829 201.157 445.753 201.321 445.25 201.283C443.251 201.132 441.268 199.881 439.603 198.863L437.864 197.808C440.612 195.424 442.872 193.022 444.63 189.812C447.223 185.074 448.214 179.294 446.581 174.083C444.917 168.775 441.252 164.54 436.298 162.044C433.715 160.742 430.364 159.95 427.556 160.956C423.17 162.527 421.6 166.445 419.906 170.394C423.458 169.098 426.01 165.869 430.25 166.555C433.401 167.064 436.042 169.176 437.82 171.75C439.917 174.787 440.455 179.028 439.553 182.552C438.602 186.268 435.754 189.235 432.482 191.113C429.312 192.933 425.846 193.886 422.268 192.839C418.465 191.727 414.741 188.86 412.75 185.418Z"/>
	<path fill="#75AE2D" transform="scale(0.488281 0.488281)" d="M262.11 543.402L264.517 569.704C257.351 571.888 250.441 573.017 242.901 572.408C234.909 571.762 226.448 568.355 219.613 564.24C210.349 558.663 202.368 550.893 194.52 543.514C186.952 536.398 179.291 529.192 172.563 521.264L200.909 491.531C199.962 495.317 196.675 499.312 194.787 502.863C192.355 507.439 190.316 513.287 189.078 518.313C188.296 519.595 187.454 520.927 187.517 522.495C186.938 524.117 186.85 524.984 187.608 526.574C191.606 534.947 216.167 544.853 224.906 547.632C235.614 551.038 251.517 552.712 261.847 547.398L262.11 543.402Z"/>
	<path fill="#26C0E4" transform="scale(0.488281 0.488281)" d="M511.869 861.309L569.502 899.284C572.828 901.682 575.34 904.799 575.882 909C576.577 914.38 574.996 917.886 571.826 922.024C570.126 923.37 568.287 924.589 566.25 925.366C560.837 927.432 554.155 926.561 548.98 924.286C544.87 922.48 540.399 918.978 537.678 915.327C532.34 908.165 528.629 898.455 524.863 890.324C520.38 880.642 515.729 871.279 511.869 861.309Z"/>
	<path fill="#FCFCFD" transform="scale(0.488281 0.488281)" d="M548.21 904.519C549.981 905.627 551.747 906.569 553.039 908.25C552.806 909.452 552.456 910.218 551.5 911.04C550.816 911.628 549.902 912.01 549.025 911.851C547.337 911.545 545.571 909.935 544.425 908.732L548.21 904.519Z"/>
	<path fill="#92EBEE" transform="scale(0.488281 0.488281)" d="M527.834 889.836L522.082 880C521.255 878.335 520.491 877.151 520.639 875.25L521.75 874.896L524.185 876.977C525.428 878.169 526.473 879.634 527.52 880.998C527.801 883.451 528.74 887.615 527.834 889.836Z"/>
	<path fill="#77CFE3" transform="scale(0.488281 0.488281)" d="M527.52 880.998L548.21 904.519L544.425 908.732C538.232 904.214 531.664 896.435 527.834 889.836C528.74 887.615 527.801 883.451 527.52 880.998Z"/>
	<path fill="#DC80B4" transform="scale(0.488281 0.488281)" d="M757.722 442.55C757.256 441.532 756.874 440.477 756.611 439.387C754.328 429.94 757.456 417.46 762.417 409.291C766.748 402.159 774.866 396.575 782.935 394.706C788.953 393.313 796.782 394.249 802 397.587C806.96 400.761 810.723 406.298 811.748 412.127C812.627 417.129 811.933 423.557 808.968 427.75C806.197 431.669 801.852 434.802 797 435.365C792.873 435.844 787.783 434.534 784.608 431.75C781.524 429.046 779.843 424.257 779.681 420.25C779.424 413.855 783.558 410.175 787.691 406.028C785.732 406.817 783.676 407.572 782.014 408.903C778.678 411.575 775.914 415.589 775.53 419.931C775.015 425.749 777.281 430.513 781.002 434.814L781.447 435.32C772.936 436.671 765.787 439.923 757.722 442.55Z"/>
	<path fill="#75AE2D" transform="scale(0.488281 0.488281)" d="M801.933 475.581C809.107 478.036 814.41 483.134 819.782 488.279L834.523 502.852L853.642 521.293L822 551.055C814.99 557.822 807.376 566.894 798.75 571.558C793.962 574.147 789.073 574.788 783.721 574.483C782.076 574.389 780.56 574.069 778.96 573.688L778.054 573.479C771.986 572.031 766.708 568.519 761.932 564.622L762.29 555.745L762.717 558.75C770.63 561.341 782.314 561.731 790 558.245C792.295 557.205 794.449 555.915 796.502 554.455C801.024 551.238 828.703 528.961 829.864 525.485C830.729 522.892 831.947 517.637 831.359 515.016C830.59 511.584 824.926 506.486 822.622 503.648L808.639 485.614C806.475 482.662 804.031 479.756 802.375 476.478L801.933 475.581Z"/>
	<path fill="#816075" transform="scale(0.488281 0.488281)" d="M323.76 300.703C322.383 304.059 320.225 307.349 318.433 310.502L309.546 326.604C300.325 344.05 292.333 361.689 285.571 380.223C279.425 374.044 273.304 368.913 265.466 365.017C259.983 362.561 254.668 360.683 248.73 359.615C251.55 347.895 257.116 336.601 269.404 332.547C276.065 330.35 282.874 329.227 289.312 326.283C296.499 322.998 302.872 318.352 309.097 313.539C314.338 309.488 319.218 305.571 323.76 300.703Z"/>
	<path fill="#B16E89" transform="scale(0.488281 0.488281)" d="M279.856 336.679C281.582 336.742 283.581 336.745 285.248 337.225C287.378 337.838 289.79 339.529 290.75 341.571C291.36 342.867 291.555 343.814 291.041 345.186C289.884 348.265 285.837 349.692 283.051 350.809C280.365 351.306 277.972 351.734 275.371 350.625C273.956 350.021 272.194 348.332 271.716 346.828C271.071 344.796 271.365 342.031 272.56 340.25C274.365 337.559 276.901 337.226 279.856 336.679Z"/>
	<path fill="#BA619D" transform="scale(0.488281 0.488281)" d="M835.737 402.999C840.631 415.295 840.394 428.242 835.117 440.402C830.454 451.147 822.413 459.099 811.469 463.323C801.074 467.336 789.691 467.457 779.475 462.794C769.682 458.325 762.957 451.926 757.722 442.55C765.787 439.923 772.936 436.671 781.447 435.32C786.097 439.19 791.328 441.062 797.405 440.485C799.076 440.327 800.751 439.763 802.347 439.26L802.402 439.284C803.073 439.408 803.192 439.467 803.974 439.393C805.901 439.21 808.446 438.036 810.217 437.216C815.33 434.85 819.2 431.357 821.799 426.326C823.11 423.787 824.108 420.85 825.742 418.513C827.855 415.49 831.248 413.408 833.507 410.429L833.885 409.912C835.398 407.929 835.434 405.41 835.737 402.999Z"/>
	<path fill="#BA619D" transform="scale(0.488281 0.488281)" d="M186.036 400.411C189.199 409.803 196.008 414.848 204.504 419.329C205.931 427.729 208.739 435.374 216.068 440.455C220.519 443.541 226.087 445.125 231.428 443.991C236.13 442.993 240.342 439.621 242.925 435.646C246.015 430.891 245.503 427.091 246.303 421.889C253.667 423.019 260.787 424.264 265.771 430.308L266.42 430.462C265.101 437.786 262.935 444.862 258.169 450.73C252.123 458.173 242.511 463.678 232.889 464.551C226.307 465.147 220.004 464.906 213.703 462.739C201.614 458.581 192.807 449.584 187.411 438.176C181.793 426.298 181.684 412.705 186.036 400.411Z"/>
	<path fill="#EB5243" transform="scale(0.488281 0.488281)" d="M836.59 384.588C839.218 385.648 841.045 387.535 843.155 389.343C852.525 397.373 859.672 406.528 864.466 418C869.021 428.896 870.821 441.589 868.704 453.25C866.104 467.565 858.457 480.009 847.814 489.777C845.262 492.118 842.277 493.972 839.77 496.341L813.53 471.439C818.68 469.448 823.773 467.088 828.145 463.665C838.337 455.686 846.049 441.962 847.563 429.083L847.656 428.25C849.572 412.052 844.554 398.415 836.59 384.588Z"/>
	<path fill="#DC80B4" transform="scale(0.488281 0.488281)" d="M186.036 400.411C191.032 387.233 200.473 378.028 213.349 372.263C219.699 369.42 226.045 367.733 232.932 366.83C245.821 365.141 260.497 369.274 270.75 377.224C274.294 379.971 277.3 383.162 280.276 386.498C276.322 396.928 270.896 408.58 269.693 419.669C265.582 407.841 259.576 398.362 247.931 392.729C240.735 389.248 232.312 388.616 224.75 391.287C217.315 393.913 210.52 399.34 207.256 406.638C205.4 410.787 204.907 414.848 204.504 419.329C196.008 414.848 189.199 409.803 186.036 400.411Z"/>
	<path fill="#DC80B4" transform="scale(0.488281 0.488281)" d="M802.402 439.284C808.399 436.214 812.68 432.345 814.978 425.849C817.499 418.725 816.945 410.588 813.723 403.777C810.706 397.401 804.966 392.51 798.361 390.165C789.646 387.07 780.506 388.188 772.31 392.212C760.963 397.782 754.302 408.84 750.447 420.425L740.906 389.471C745.603 380.389 757.026 372.648 766.447 368.977C780.258 363.595 794.126 365.031 807.457 371.054C820.952 377.15 830.552 389.447 835.737 402.999C835.434 405.41 835.398 407.929 833.885 409.912L833.507 410.429C831.248 413.408 827.855 415.49 825.742 418.513C824.108 420.85 823.11 423.787 821.799 426.326C819.2 431.357 815.33 434.85 810.217 437.216C808.446 438.036 805.901 439.21 803.974 439.393C803.192 439.467 803.073 439.408 802.402 439.284Z"/>
	<path fill="#BA619D" transform="scale(0.488281 0.488281)" d="M599.902 848.647C597.542 849.713 594.395 850.733 592.308 852.25C594.286 852.598 598.333 850.571 600.301 849.908C621.344 842.823 640.1 832.582 658.224 819.814C676.016 807.279 692.52 792.36 708.978 778.129C712.599 774.999 715.989 771.643 719.318 768.208C720.267 767.229 722.38 764.453 723.501 763.991C725.051 763.354 730.923 764.12 732.826 764.441C740.798 765.786 747.613 769.002 752.366 775.718C756.757 781.921 759.106 789.669 757.734 797.25C756.45 804.346 752.94 810.69 746.945 814.873C741.132 818.929 734.159 820.332 727.243 818.907C721.846 817.796 717.061 814.691 714.112 809.997C711.517 805.869 710.492 801.619 711.568 796.857C712.19 794.102 713.659 791.511 716.141 790.049C719.452 788.1 723.746 787.674 727.429 788.672C730.031 789.377 732.361 791.51 733.633 793.849C734.997 796.355 735.048 798.494 734.934 801.25C734.05 803.269 733.187 804.36 731.091 805.179L729.366 805.75L729.5 806.399C731.463 807.078 733.497 806.93 735.383 805.989C737.938 804.715 739.64 801.951 740.343 799.266C741.361 795.377 740.489 791.768 738.361 788.43C735.721 784.287 731.498 781.268 726.642 780.287C721.141 779.175 713.835 780.913 709.299 784.064C704.585 787.339 702.491 792.244 699.108 796.581C697.073 799.191 693.833 801.515 691.319 803.716C661.48 829.833 626.928 848.209 587.831 855.756L587.027 855.244L588 854.25L587.003 853.625L588.5 853L589.255 852.75L590 852.378L591 852C591.867 851.517 592.493 850.873 593.484 850.625C594.253 850.433 594.776 850.03 595.5 849.75C596.832 849.234 597.842 848.956 599.079 848.124L599.455 847.857L599.902 848.647Z"/>
	<path fill="#816075" transform="scale(0.488281 0.488281)" d="M324.747 816.22L342.63 830.491C357.273 841.098 374.415 851.409 391.465 857.443C412.593 864.922 436.299 867.21 458.603 866.998L491.701 865.325C490.77 866.709 487.858 868.11 486.426 869.069L473.777 877.628L454 890.432C450.916 892.406 446.726 895.8 443.164 896.572L442.551 896.688C423.562 900.471 401.328 897.471 383.688 889.741C352.672 876.151 336.396 846.421 324.747 816.22Z"/>
	<path fill="#8FD541" transform="scale(0.488281 0.488281)" d="M762.479 523.103C763.003 519.07 762.562 514.572 762.457 510.5L760.483 480.263C764.194 477.916 768.149 475.867 772.354 474.565L773.25 474.297C774.439 473.934 775.624 473.526 776.883 473.535C781.121 473.567 785.466 474.787 789.723 475.073C793.771 475.345 797.99 474.466 801.933 475.581L802.375 476.478C804.031 479.756 806.475 482.662 808.639 485.614L822.622 503.648C824.926 506.486 830.59 511.584 831.359 515.016C831.947 517.637 830.729 522.892 829.864 525.485C828.703 528.961 801.024 551.238 796.502 554.455C794.449 555.915 792.295 557.205 790 558.245C782.314 561.731 770.63 561.341 762.717 558.75L762.29 555.745L762.489 526.422C764.418 525.965 766.777 526.474 768.75 526.675L779.479 527.439C787.665 527.695 795.779 527.594 803.925 526.764L819.151 524.738C821.174 524.401 823.592 524.359 824.91 522.75L824.573 521.922C822.671 520.864 817.914 521.725 815.758 521.913L791.153 523.804L771.111 523.797C768.705 523.734 765.43 524.028 763.136 523.321L762.479 523.103Z"/>
	<path fill="#FBF7E6" transform="scale(0.488281 0.488281)" d="M783.425 481.697C786.401 481.431 790.033 481.824 792.684 483.246C794.628 484.288 795.712 485.977 796.203 488.061C796.884 490.947 795.874 493.989 794.376 496.451C790.798 502.334 784.264 506.954 777.624 508.446C775.15 508.58 772.478 508.244 770.348 506.887C767.359 504.984 765.163 501.756 764.589 498.25C764.008 494.704 764.611 489.881 766.862 487.011C770.073 482.915 778.536 482.295 783.425 481.697Z"/>
	<path fill="#816075" transform="scale(0.488281 0.488281)" d="M702.662 805.75L703.52 806.023L705.906 811.857C705.118 814.106 702.576 816.521 700.94 818.225C691.971 827.567 681.11 835.882 669.891 842.357C664.632 845.393 658.973 847.565 653.698 850.536C656.428 850.322 659.587 848.977 662.235 848.183C674.809 844.412 685.707 840.408 696.778 833.151C691.643 843.689 685.031 854.216 676.964 862.748C661.59 879.009 641.643 890.419 619.66 894.837C611.765 896.424 603.815 896.918 595.787 897.153L582.212 896.24C581.434 896.169 578.967 896.215 578.356 895.881C577.006 895.141 575.501 893.45 574.25 892.459L566.425 886.822C555.842 879.957 544.364 874.148 534.008 867.018C540.3 866.525 546.91 866.974 553.233 866.984C563.206 867.001 573 866.633 582.927 865.598C595.428 864.294 607.7 860.93 619.557 856.869C632.178 852.545 644.647 847.371 656.288 840.831C673.224 831.317 688.549 819.035 702.662 805.75Z"/>
	<path fill="#8FD541" transform="scale(0.488281 0.488281)" d="M200.909 491.531C207.667 484.065 214.778 478.596 223.81 474.141C226.09 473.016 228.265 473.776 230.64 473.326C236.362 472.239 241.746 470.427 247.637 470.146C253.652 469.859 259.544 471.974 265.139 473.872L262.11 543.402L261.847 547.398C251.517 552.712 235.614 551.038 224.906 547.632C216.167 544.853 191.606 534.947 187.608 526.574C186.85 524.984 186.938 524.117 187.517 522.495C187.454 520.927 188.296 519.595 189.078 518.313C190.316 513.287 192.355 507.439 194.787 502.863C196.675 499.312 199.962 495.317 200.909 491.531Z"/>
	<path fill="#81173D" transform="scale(0.488281 0.488281)" d="M189.078 518.313C195.229 520.692 201.616 521.991 208.062 523.288C216.765 525.039 225.353 526.437 234.192 527.262L247.326 527.977C248.426 527.983 251.888 527.56 252.75 527.939C253.095 528.09 253.274 528.48 253.536 528.75C252.45 529.811 251.178 529.806 249.75 530.028L248.974 530.154C228.729 533.288 206.712 528.918 187.517 522.495C187.454 520.927 188.296 519.595 189.078 518.313Z"/>
	<path fill="#FCFCFD" transform="scale(0.488281 0.488281)" d="M230.543 480.536C232.607 480.428 234.573 480.274 236.465 481.25C238.307 482.2 239.503 483.679 240.024 485.688C240.631 488.032 239.786 490.852 238.405 492.75C234.595 497.984 226.488 502.208 220.294 503.474C218.632 503.425 217.021 503.271 215.445 502.698C213.439 501.969 211.823 500.206 211.017 498.25C210.118 496.068 210.678 493.419 211.68 491.367C214.633 485.321 224.539 482.456 230.543 480.536Z"/>
	<path fill="#8FD541" transform="scale(0.488281 0.488281)" d="M504.5 82.271L512.443 76.3913C514.952 77.4729 517.506 79.8587 519.678 81.5676C533.903 92.7627 544.628 107.358 551.349 124.135L556.945 140.851C540.995 154.512 535.069 173.577 531.531 193.688C519.487 191.622 506.385 191.375 494.25 192.929C492.262 183.455 489.542 174.342 485.898 165.371C480.921 155.674 475.943 148.573 468.241 140.832C475.389 117.607 485.416 98.0274 504.5 82.271Z"/>
	<path fill="#B7E564" transform="scale(0.488281 0.488281)" d="M504.5 82.271C516.532 94.7647 520.291 113.904 519.982 130.687C519.647 148.823 509.973 165.856 497.214 178.078L496.445 178.797L490.039 170.5C488.716 168.643 488.014 166.472 485.898 165.371C480.921 155.674 475.943 148.573 468.241 140.832C475.389 117.607 485.416 98.0274 504.5 82.271Z"/>
	<path fill="#FCFCFD" transform="scale(0.488281 0.488281)" d="M503.923 92.75L505.5 92.8863C506.906 94.0804 507.528 94.9837 508.296 96.6539C508.188 99.3652 502.068 105.142 500.359 107.905C497.04 113.27 493.501 119.638 491.605 125.658C490.249 129.966 491.164 135.718 488.496 139.5C487.55 140.841 486.278 141.181 484.75 141.515C483.979 141.431 484.105 141.482 483.279 141.208C482.008 140.788 480.982 139.598 480.501 138.374C479.831 136.67 480.196 134.753 480.443 133C481.319 126.782 483.277 121.062 485.848 115.351C489.293 107.696 495.588 95.9028 503.923 92.75Z"/>
	<defs>
		<linearGradient id="gradient_2" gradientUnits="userSpaceOnUse" x1="737.89478" y1="744.50812" x2="638.42804" y2="699.15466">
			<stop offset="0" stop-color="#896972"/>
			<stop offset="1" stop-color="#966D92"/>
		</linearGradient>
	</defs>
	<path fill="url(#gradient_2)" transform="scale(0.488281 0.488281)" d="M587.831 855.756C578.244 858.174 567.332 859.825 557.446 859.776C564.547 857.726 571.815 856.05 578.762 853.511C592.445 848.509 605.116 840.687 616.765 832.028C632.21 820.546 644.755 805.543 657.574 791.331C666.052 781.933 674.613 772.582 682.377 762.578C713.691 722.23 737.086 674.389 749.75 624.896C754.169 607.627 757.081 590.314 759.671 572.694C763.135 575.342 766.873 577.545 770.882 579.259C781.216 583.677 790.407 583.125 800.65 578.981C795.299 608.444 786.847 637.237 775.341 664.882C755.943 711.488 726.489 753.854 689.507 788.237C682.86 794.416 675.701 799.957 668.662 805.667C661.383 811.572 654.234 817.563 646.561 822.972C632.224 833.077 616.138 841.986 599.902 848.647L599.455 847.857L599.079 848.124C597.842 848.956 596.832 849.234 595.5 849.75C594.776 850.03 594.253 850.433 593.484 850.625C592.493 850.873 591.867 851.517 591 852L590 852.378L589.255 852.75L588.5 853L587.003 853.625L588 854.25L587.027 855.244L587.831 855.756Z"/>
	<defs>
		<linearGradient id="gradient_3" gradientUnits="userSpaceOnUse" x1="362.18091" y1="698.91522" x2="254.15715" y2="786.00867">
			<stop offset="0" stop-color="#747D7C"/>
			<stop offset="1" stop-color="#D95C8D"/>
		</linearGradient>
	</defs>
	<path fill="url(#gradient_3)" transform="scale(0.488281 0.488281)" d="M391.857 842.845C404.221 847.493 416.272 852.004 429.204 854.862C425.966 852.322 421.526 850.984 417.74 849.411L403.372 842.897C390.799 836.755 378.79 829.105 367.542 820.793C355.438 811.848 344.218 801.04 333.711 790.298C323.673 780.036 314.496 769.281 305.443 758.15L289.081 737.167C268.004 707.161 250.223 672.026 238.293 637.34L225.925 594.725C224.482 588.756 223.834 582.285 222.022 576.468C233.429 580.905 244.441 582.79 256.683 580.948C259.517 580.521 263.222 578.659 265.875 578.787C269.479 599.592 273.433 620.009 279.25 640.337C284.009 656.967 290.106 673.194 296.795 689.13C313.037 727.824 333.748 763.72 362.003 794.928C373.188 807.282 384.714 819.136 398.401 828.773C416.555 841.556 436.891 850.355 457.707 857.735C440.317 859.01 421.53 856.493 404.978 851.153C400.615 849.745 396.015 848.413 391.964 846.235C386.945 844.833 381.741 842.001 377.093 839.64C359.492 830.698 343.568 819.441 328.306 806.974C326.813 805.754 322.601 803.164 321.736 801.737C321.153 800.776 320.91 798.872 320.483 797.75C318.8 793.325 315.814 789.302 311.864 786.65C307.189 783.51 300.615 781.581 295.023 782.802C291.07 783.666 287.594 786.227 285.472 789.655C283.638 792.617 282.848 796.21 283.778 799.627C285.057 804.326 287.192 805.96 291.206 808.282C290.748 805.45 288.696 803.533 288.07 800.773C287.478 798.166 287.826 795.219 289.267 792.95C290.87 790.425 293.246 788.945 296.157 788.324C299.651 787.579 303.304 788.508 306.25 790.449C309.678 792.706 312.507 796.683 313.36 800.719C314.374 805.518 313.662 810.157 310.831 814.25C308.252 817.978 304.238 820.727 299.747 821.488L299 821.603C294.187 822.371 289.311 821.444 284.918 819.359C277.743 815.952 272.113 809.865 269.418 802.376C266.792 795.077 266.814 787.616 270.179 780.513C273.434 773.64 278.997 768.23 286.256 765.721C288.733 764.865 295.544 762.557 297.935 763.181C298.264 763.267 299.157 764.323 299.459 764.624C303.387 768.553 306.639 773.412 310.25 777.651C317.731 786.432 325.847 794.983 334.227 802.905C339.83 808.201 346.075 813.008 352.182 817.716C364.802 827.445 377.437 835.983 391.857 842.845Z"/>
	<path fill="#FCFCFD" transform="scale(0.488281 0.488281)" d="M287.121 772.02C288.155 771.938 289.474 771.74 290.5 771.916C291.899 772.157 292.438 772.929 293.25 773.969C293.383 774.665 293.759 775.32 293.285 775.924C292.311 777.164 290.178 777.995 288.798 778.852C284.239 781.684 281.706 785.248 278.887 789.75L277.75 790.475C275.798 790.45 275.166 790.533 273.423 789.554C272.922 788.435 272.99 787.756 273.295 786.61C275.025 780.103 281.514 775.148 287.121 772.02Z"/>
	<defs>
		<linearGradient id="gradient_4" gradientUnits="userSpaceOnUse" x1="717.39795" y1="710.58539" x2="306.00574" y2="327.48111">
			<stop offset="0" stop-color="#F78011"/>
			<stop offset="1" stop-color="#FFEC6F"/>
		</linearGradient>
	</defs>
	<path fill="url(#gradient_4)" transform="scale(0.488281 0.488281)" d="M396.636 798.248C395.673 797.927 394.312 796.722 393.463 796.11L385.384 789.849C357.645 767.393 335.269 738.699 317.493 707.909C291.966 663.694 276.397 612.642 271.821 561.802C269.499 536.01 270.071 510.068 272.355 484.307C274.527 459.805 278.347 435.411 284.74 411.639C293.872 377.68 307.199 343.037 326.013 313.202C337.919 294.324 352.835 276.444 368.903 260.978C380.681 249.642 393.928 238.734 408.158 230.61C430.811 217.676 454.894 208.641 480.593 203.979C488.566 202.532 496.581 201.282 504.693 200.98C522.902 200.304 542.223 202.957 559.75 207.803C590.344 216.262 620.224 232.164 644.034 253.154C653.879 261.833 662.586 271.82 670.883 281.96C684.433 298.519 696.858 316.355 707.361 335.007C715.907 347.777 721.512 363.074 726.987 377.375C754.297 448.705 759.772 525.957 744.922 600.792C735.243 649.573 716.716 694.111 689.089 735.433C671.601 761.589 651.373 785.034 624.985 802.589C592.603 824.131 551.816 837.561 512.75 837.296C499.999 837.21 487.316 835.376 474.843 832.818C451.461 828.023 428.719 818.817 408.372 806.38C404.544 804.04 399.848 801.396 396.636 798.248Z"/>
	<path fill="#FCA129" transform="scale(0.488281 0.488281)" d="M674.132 297.222L690.891 319.719C691.666 320.937 692.643 321.729 693.75 322.62C694.016 323.562 694.236 324.407 694.37 325.38C692.661 323.317 691.155 321.813 688.656 320.733L686.181 319.652C686.026 317 681.928 312.066 680.544 309.631C679.228 307.315 678.297 304.837 676.934 302.545C675.959 300.904 674.324 299.153 674.132 297.222Z"/>
	<path fill="#81173D" transform="scale(0.488281 0.488281)" d="M277.727 512.01L279.75 508.77C281.535 506.282 284.966 504.442 288 504.184C291.122 503.918 294.079 505.58 296.459 507.391C299.024 510.772 300.407 513.535 299.762 517.906C299.416 520.249 298.324 522.07 296.925 523.926L295.03 525.381C292.478 527.125 289.045 527.423 286.062 526.8C281.944 525.941 279.935 523.294 277.853 519.973C277.4 517.146 277.431 514.831 277.727 512.01Z"/>
	<path fill="#FCFCFD" transform="scale(0.488281 0.488281)" d="M286.215 508.75C287.341 508.381 288.568 508.233 289.75 508.419C291.834 508.747 293.339 510.145 294.519 511.842C295.766 513.635 295.907 515.862 295.351 517.941C294.69 520.409 293.3 521.409 291.209 522.72C290.007 522.899 288.714 523.085 287.5 522.896C285.69 522.614 283.971 521.206 282.94 519.75C281.814 518.159 281.657 515.664 282.082 513.815C282.666 511.28 284.038 510.004 286.215 508.75Z"/>
	<path fill="#81173D" transform="scale(0.488281 0.488281)" d="M683.596 685.099C687.672 683.083 690.056 681.85 694.619 683.321C697.362 684.204 698.376 685.886 700.472 687.596C701.968 691.294 702.74 695.02 701.184 698.871C700.008 701.781 697.457 704.335 694.5 705.435C692.969 706.005 691.31 706.119 689.695 706.225C687.322 705.97 685.483 705.558 683.533 704.099C680.354 701.72 679.565 698.01 679.029 694.315C679.767 690.615 681.382 688.054 683.596 685.099Z"/>
	<path fill="#FCFCFD" transform="scale(0.488281 0.488281)" d="M688.216 687.75C689.529 687.34 690.681 687.183 692.062 687.377C693.824 687.624 695.225 688.756 696.167 690.225C697.277 691.955 697.438 694.438 696.897 696.391C696.228 698.807 694.676 700.095 692.56 701.25C691.399 701.634 690.208 701.672 688.995 701.556C687.225 701.386 685.907 700.222 684.917 698.806C683.93 697.395 683.403 695.056 683.803 693.398C684.446 690.731 685.915 689.123 688.216 687.75Z"/>
	<path fill="#81173D" transform="scale(0.488281 0.488281)" d="M712.918 603.202C714.555 601.253 716.349 599.435 718.82 598.594C722.61 597.304 725.762 598.227 729.161 600.044C732.061 603.094 734.117 605.752 733.981 610.229C733.869 613.893 732.257 617.041 729.471 619.408C728.394 620.323 727.162 620.909 725.894 621.503L725.479 621.702C722.972 622.055 720.33 622.025 717.913 621.178C714.355 619.931 712.577 616.824 711.096 613.595C710.832 609.643 711.54 606.834 712.918 603.202Z"/>
	<path fill="#FCFCFD" transform="scale(0.488281 0.488281)" d="M720.131 602.75C721.283 602.389 722.462 602.357 723.656 602.529C725.464 602.789 727.093 604.106 728.044 605.631C729.312 607.662 729.669 609.888 729.048 612.177C728.389 614.607 727.087 615.976 724.978 617.25C723.602 617.696 722.423 617.758 720.981 617.545C719.162 617.276 717.622 615.921 716.633 614.421C715.43 612.595 715.125 609.868 715.753 607.788C716.472 605.411 718.047 603.943 720.131 602.75Z"/>
	<path fill="#81173D" transform="scale(0.488281 0.488281)" d="M722.574 505.303L722.949 504.919C724.326 503.453 725.521 502.006 727.381 501.137C731.201 499.353 734.244 499.9 738.013 501.339C741.03 503.977 743.207 506.548 743.507 510.789C743.729 513.934 743.314 517.851 741.095 520.25L737.966 523.204C736.208 523.839 734.553 524.42 732.665 524.496C728.558 524.66 725.944 523.013 722.986 520.337L722.348 519.109C720.123 514.274 720.833 510.118 722.574 505.303Z"/>
	<path fill="#FCFCFD" transform="scale(0.488281 0.488281)" d="M730.461 504.75C731.788 504.558 733.219 504.303 734.518 504.768C736.276 505.397 737.724 507.079 738.46 508.75C739.373 510.823 739.36 513.606 738.516 515.688C737.609 517.928 736.158 518.813 734.03 519.75C732.901 519.91 731.701 520.141 730.576 519.851C728.677 519.362 727.066 517.948 726.187 516.221C725.213 514.307 725.104 510.859 725.94 508.87C726.822 506.771 728.435 505.607 730.461 504.75Z"/>
	<path fill="#81173D" transform="scale(0.488281 0.488281)" d="M711.827 421.781C712.748 420.048 713.728 418.292 715.244 417.003C718.337 414.374 721.584 414.099 725.471 414.513C729.41 416.247 731.975 418.44 733.705 422.513C734.851 425.209 734.918 428.847 733.817 431.573C732.983 433.636 731.805 435.124 730.184 436.618C728.879 437.276 727.506 438.028 726.067 438.333C721.754 439.245 718.638 438.11 715.029 435.803L714.425 435.008C711.467 430.792 711.085 426.756 711.827 421.781Z"/>
	<path fill="#FCFCFD" transform="scale(0.488281 0.488281)" d="M720.98 418.75C722.238 418.52 723.82 418.309 725.057 418.695C726.916 419.276 728.589 421.065 729.473 422.75C730.447 424.609 730.632 426.789 729.984 428.769C729.122 431.407 727.672 432.467 725.289 433.705C723.727 433.924 722.279 433.99 720.75 433.5C718.947 432.921 717.633 431.469 716.792 429.822C715.777 427.835 715.557 425.273 716.371 423.173C717.237 420.935 718.881 419.727 720.98 418.75Z"/>
	<path fill="#81173D" transform="scale(0.488281 0.488281)" d="M499.111 817.39C499.299 815.498 499.411 813.476 500.27 811.75C501.715 808.846 504.092 807.052 507.117 806.022C510.673 804.811 514.796 805.093 518.145 806.793C521.484 808.489 523.347 811.547 524.551 814.976C525.209 819.148 525.237 822.898 522.622 826.448C520.788 828.938 517.879 830.49 514.847 830.93C511.333 831.44 507.526 830.903 504.614 828.75C501.292 826.293 499.732 822.771 499.251 818.757L499.111 817.39Z"/>
	<path fill="#FBF7E6" transform="scale(0.488281 0.488281)" d="M520.468 816.513C520.557 819.133 520.691 821.009 518.889 823.06C517.297 824.871 515.213 825.675 512.833 825.758C509.774 825.866 507.551 825.055 505.293 822.969C506.503 821.615 506.311 821.019 506.455 819.25L507.25 818.58L508.634 818.985C511.411 819.681 513.98 819.642 516.484 818.143C517.163 817.736 517.651 817.362 518.424 817.147C518.888 817.018 519.357 816.903 519.812 816.746L520.468 816.513Z"/>
	<path fill="#FCFCFD" transform="scale(0.488281 0.488281)" d="M505.293 822.969C504.849 822.376 504.448 821.785 504.137 821.108C503.181 819.027 503.039 816.373 503.961 814.25C504.759 812.41 506.385 810.768 508.241 809.994C510.197 809.18 512.77 809.072 514.723 809.927C517.821 811.282 519.134 813.552 520.468 816.513L519.812 816.746C519.357 816.903 518.888 817.018 518.424 817.147C517.651 817.362 517.163 817.736 516.484 818.143C513.98 819.642 511.411 819.681 508.634 818.985L507.25 818.58L506.455 819.25C506.311 821.019 506.503 821.615 505.293 822.969Z"/>
	<path fill="#81173D" transform="scale(0.488281 0.488281)" d="M604.112 784.911C602.977 781.764 602.433 778.145 603.3 774.865C604.388 770.753 606.765 767.342 610.581 765.332C614.539 763.246 618.938 763.998 623.033 765.207C627.708 768.292 630.004 771.106 631.205 776.694L631.661 779.063C630.852 783.574 629.858 787.139 625.832 789.932C622.335 792.358 617.824 793.259 613.642 792.352C609.351 791.421 606.348 788.496 604.112 784.911Z"/>
	<path fill="#F8DE7C" transform="scale(0.488281 0.488281)" d="M625.105 772.605C625.811 774.133 626.503 775.606 626.971 777.225C626.962 779.951 626.897 782.399 624.924 784.487C623.122 786.393 620.885 787.379 618.25 787.303C616.057 787.24 614.117 786.351 612.664 784.712L611.25 782.936C610.717 782.811 610.06 782.724 609.565 782.495C610.194 782.143 610.563 781.904 611.301 781.901C615.325 781.889 618.453 779.915 621.705 777.8C623.061 776.155 624.086 774.47 625.105 772.605Z"/>
	<path fill="#FBF7E6" transform="scale(0.488281 0.488281)" d="M625.105 772.605C625.811 774.133 626.503 775.606 626.971 777.225C626.509 778.41 626.627 778.759 625.5 779.441L621.705 777.8C623.061 776.155 624.086 774.47 625.105 772.605Z"/>
	<path fill="#FCFCFD" transform="scale(0.488281 0.488281)" d="M609.565 782.495L609.113 782.138C608.002 781.03 607.495 778.543 607.564 777C607.679 774.461 609.052 772.007 610.933 770.352C612.722 768.777 615.222 768.022 617.592 768.233C620.97 768.534 622.918 770.181 625.105 772.605C624.086 774.47 623.061 776.155 621.705 777.8C618.453 779.915 615.325 781.889 611.301 781.901C610.563 781.904 610.194 782.143 609.565 782.495Z"/>
	<path fill="#FCA129" transform="scale(0.488281 0.488281)" d="M715.029 435.803C718.638 438.11 721.754 439.245 726.067 438.333C727.506 438.028 728.879 437.276 730.184 436.618L736.587 478.245C737.961 484.12 737.172 490.592 738.143 496.5C738.377 497.918 738.395 499.952 738.013 501.339C734.244 499.9 731.201 499.353 727.381 501.137C725.521 502.006 724.326 503.453 722.949 504.919L722.574 505.303C721.582 502.86 722.088 499.514 721.941 496.886L720.688 481.144L717.639 456.054C716.608 449.296 715.023 442.664 715.029 435.803Z"/>
	<path fill="#FCA129" transform="scale(0.488281 0.488281)" d="M722.986 520.337C725.944 523.013 728.558 524.66 732.665 524.496C734.553 524.42 736.208 523.839 737.966 523.204C737.711 535.029 737.18 547.309 735.413 559C734.512 564.96 734.162 571.119 732.89 577L730.852 589.25L730.223 592.736L729.4 598L729.161 600.044C725.762 598.227 722.61 597.304 718.82 598.594C716.349 599.435 714.555 601.253 712.918 603.202C713.443 594.1 716.178 584.484 717.671 575.422C720.655 557.312 722.762 538.698 722.986 520.337Z"/>
	<path fill="#FCA129" transform="scale(0.488281 0.488281)" d="M711.096 613.595C712.577 616.824 714.355 619.931 717.913 621.178C720.33 622.025 722.972 622.055 725.479 621.702C724.525 628.003 722.438 634.22 720.413 640.25C717.808 648.01 715.078 655.747 711.803 663.25L710.839 665.706C709.385 669.939 707.264 675.054 705.087 678.969C703.534 681.761 702.754 685.303 700.472 687.596C698.376 685.886 697.362 684.204 694.619 683.321C690.056 681.85 687.672 683.083 683.596 685.099C684.573 681.1 687.055 677.257 688.796 673.535L697.665 653.145L706.162 628.299C707.657 623.513 708.774 618.037 711.096 613.595Z"/>
	<path fill="#FCC744" transform="scale(0.488281 0.488281)" d="M291.728 417.337C292.182 411.176 294.6 404.175 296.444 398.25C300.746 384.427 306.02 371.29 311.75 358C315.542 349.204 319.309 339.829 325.256 332.273C326.221 336.247 327.302 339.557 331.047 341.817C334.175 343.705 337.456 343.635 340.947 343.354C340.086 347.773 335.855 353.053 333.57 356.99L327.503 368.75C320.308 383.93 313.878 401.171 310.164 417.538C308.121 415.405 305.522 413.843 302.534 413.55C298.122 413.118 295.063 414.649 291.728 417.337Z"/>
	<path fill="#FCA129" transform="scale(0.488281 0.488281)" d="M623.033 765.207C629.636 759.546 635.56 752.64 641.25 746.065C649.658 736.348 658.046 726.128 665.25 715.475C669.896 708.604 673.919 700.784 679.029 694.315C679.565 698.01 680.354 701.72 683.533 704.099C685.483 705.558 687.322 705.97 689.695 706.225L691.25 706.755C689.963 710.009 687.708 712.796 685.856 715.75C680.391 724.468 674.631 732.874 668.316 741L653.374 759.052C652.17 760.586 650.586 761.786 649.451 763.379C646.525 767.49 641.268 772.21 637.25 775.31C635.383 776.751 633.785 777.988 631.661 779.063L631.205 776.694C630.004 771.106 627.708 768.292 623.033 765.207Z"/>
	<path fill="#FCC744" transform="scale(0.488281 0.488281)" d="M291.728 417.337C295.063 414.649 298.122 413.118 302.534 413.55C305.522 413.843 308.121 415.405 310.164 417.538C312.017 420.978 313.127 424.111 312.041 428.039C311.002 431.793 308.508 434.337 305.135 436.153L305.008 437.142L301.284 457.495C299.745 466.776 298.794 476.216 298.174 485.602L297.171 500.586C297.073 502.563 297.374 505.698 296.459 507.391C294.079 505.58 291.122 503.918 288 504.184C284.966 504.442 281.535 506.282 279.75 508.77L277.727 512.01C276.412 509.15 277.847 503.128 278.142 499.886L284.76 447.454C286.106 439.571 288.488 431.676 289.168 423.73L291.728 417.337Z"/>
	<path fill="#81173D" transform="scale(0.488281 0.488281)" d="M291.728 417.337C295.063 414.649 298.122 413.118 302.534 413.55C305.522 413.843 308.121 415.405 310.164 417.538C312.017 420.978 313.127 424.111 312.041 428.039C311.002 431.793 308.508 434.337 305.135 436.153L301.27 436.878C298.252 437.136 295.335 435.99 293.066 434.042C289.8 431.237 289.354 427.745 289.168 423.73L291.728 417.337Z"/>
	<path fill="#FCFCFD" transform="scale(0.488281 0.488281)" d="M299.554 417.75C300.5 417.697 301.405 417.619 302.331 417.874C304.358 418.435 305.971 419.816 306.919 421.68C307.91 423.629 308.055 425.785 307.332 427.855C306.415 430.481 304.552 431.527 302.143 432.623C300.716 432.634 299.136 432.68 297.779 432.17C296.231 431.587 294.758 429.839 294.216 428.297C293.414 426.021 293.353 423.511 294.551 421.358C295.7 419.293 297.319 418.3 299.554 417.75Z"/>
	<path fill="#FCC744" transform="scale(0.488281 0.488281)" d="M329.94 323.782L330.303 322.595C331.539 319.495 334.633 315.933 336.549 313.092C347.604 296.704 359.252 281.937 373.253 267.952C377.896 263.315 383.473 257.417 389.541 254.783C389.845 258.472 390.377 261.481 393.288 264.066C396.466 266.888 399.77 267.127 403.801 266.805C402.034 271.759 394.1 277.137 390.072 280.815L378.185 292.247C371.322 299.286 364.929 306.9 359.001 314.74C355.682 319.128 352.798 324.835 348.741 328.475C349.355 332.44 349.03 335.849 346.515 339.126C345.038 341.052 343.089 342.29 340.947 343.354C337.456 343.635 334.175 343.705 331.047 341.817C327.302 339.557 326.221 336.247 325.256 332.273C326.282 328.787 327.495 326.489 329.94 323.782Z"/>
	<path fill="#81173D" transform="scale(0.488281 0.488281)" d="M329.94 323.782C333.302 321.528 336.463 320.34 340.562 321.257C343.637 321.946 346.374 323.934 347.893 326.702L348.741 328.475C349.355 332.44 349.03 335.849 346.515 339.126C345.038 341.052 343.089 342.29 340.947 343.354C337.456 343.635 334.175 343.705 331.047 341.817C327.302 339.557 326.221 336.247 325.256 332.273C326.282 328.787 327.495 326.489 329.94 323.782Z"/>
	<path fill="#FCFCFD" transform="scale(0.488281 0.488281)" d="M336.546 324.565C337.886 324.628 339.187 324.704 340.45 325.202C341.987 325.809 343.582 327.284 344.191 328.843C344.911 330.688 344.854 333.267 344.019 335.059C342.917 337.42 341.151 338.57 338.75 339.345C337.731 339.449 336.641 339.578 335.654 339.237C333.617 338.533 331.59 336.789 330.83 334.75C330.156 332.941 330.092 330.875 330.884 329.086C332.043 326.467 334.026 325.624 336.546 324.565Z"/>
	<path fill="#FCC744" transform="scale(0.488281 0.488281)" d="M518.935 210.399C523.23 209.167 529.053 210.421 533.462 211.014C558.556 214.387 582.705 222.808 604.852 235.053C608.135 236.868 611.875 238.631 614.695 241.101C618.857 242.062 622.848 244.072 625.274 247.75C626.009 248.865 626.552 250.224 626.984 251.483C627.121 255.622 627.095 259.94 623.936 263.083C622.103 264.907 619.807 265.616 617.337 266.14C615.675 266.024 613.957 265.874 612.376 265.319C608.062 263.803 606.106 260.72 604.186 256.855C601.934 256.222 599.422 254.213 597.322 253.033L585.559 247.126C571.989 240.87 557.812 235.559 543.068 232.859C534.888 231.361 526.396 230.816 518.103 230.409C520.883 227.917 523.171 224.589 523.468 220.775C523.805 216.424 521.618 213.484 518.935 210.399Z"/>
	<path fill="#81173D" transform="scale(0.488281 0.488281)" d="M614.695 241.101C618.857 242.062 622.848 244.072 625.274 247.75C626.009 248.865 626.552 250.224 626.984 251.483C627.121 255.622 627.095 259.94 623.936 263.083C622.103 264.907 619.807 265.616 617.337 266.14C615.675 266.024 613.957 265.874 612.376 265.319C608.062 263.803 606.106 260.72 604.186 256.855C603.823 253.32 603.682 249.854 605.694 246.734C607.874 243.353 610.904 241.967 614.695 241.101Z"/>
	<path fill="#FCFCFD" transform="scale(0.488281 0.488281)" d="M613.65 246.25C614.619 246.05 615.77 245.939 616.75 246.093C618.72 246.404 620.53 248.018 621.551 249.648C622.733 251.535 623.012 253.936 622.427 256.085C621.696 258.774 619.878 260.002 617.552 261.278L617.12 261.306C615.98 261.407 614.738 261.633 613.631 261.246C611.74 260.584 610.042 259.074 609.177 257.286C608.21 255.288 608.008 252.657 608.826 250.563C609.694 248.342 611.509 247.069 613.65 246.25Z"/>
	<path fill="#FCC744" transform="scale(0.488281 0.488281)" d="M506.288 209.341C511.082 208.382 514.357 208.377 518.935 210.399C521.618 213.484 523.805 216.424 523.468 220.775C523.171 224.589 520.883 227.917 518.103 230.409C516.774 231.192 515.391 231.858 513.898 232.273C510.054 233.341 506.889 232.161 503.544 230.398L472.973 234.834L451.062 241.851C446.104 244.675 440.52 246.798 435.391 249.389L421.599 256.87C418.782 258.415 415.861 260.24 412.696 260.927C409.977 263.825 407.75 265.723 403.801 266.805C399.77 267.127 396.466 266.888 393.288 264.066C390.377 261.481 389.845 258.472 389.541 254.783C389.904 253.431 390.267 252.041 390.854 250.766C392.999 246.103 397.333 244.131 401.873 242.568L402.408 242.488L403.256 242.352C406.898 241.898 409.86 239.497 413.025 237.722L427.869 229.75C447.927 219.859 469.668 213.66 491.75 210.311C496.314 209.619 501.737 208.481 506.288 209.341Z"/>
	<path fill="#81173D" transform="scale(0.488281 0.488281)" d="M401.873 242.568C405.695 243.18 408.824 243.988 411.319 247.232C413.388 249.922 414.377 253.265 413.959 256.646C413.777 258.119 413.214 259.544 412.696 260.927C409.977 263.825 407.75 265.723 403.801 266.805C399.77 267.127 396.466 266.888 393.288 264.066C390.377 261.481 389.845 258.472 389.541 254.783C389.904 253.431 390.267 252.041 390.854 250.766C392.999 246.103 397.333 244.131 401.873 242.568Z"/>
	<path fill="#FCFCFD" transform="scale(0.488281 0.488281)" d="M400.312 247.75C401.58 247.569 402.91 247.356 404.172 247.683C405.976 248.151 407.449 249.849 408.326 251.426C409.473 253.487 409.496 255.975 408.726 258.176C407.923 260.475 406.325 261.404 404.25 262.457C402.884 262.633 401.312 262.765 399.957 262.441C398 261.972 396.47 260.436 395.578 258.7C394.647 256.889 394.502 254.501 395.245 252.581C396.176 250.174 397.997 248.699 400.312 247.75Z"/>
	<path fill="#81173D" transform="scale(0.488281 0.488281)" d="M506.288 209.341C511.082 208.382 514.357 208.377 518.935 210.399C521.618 213.484 523.805 216.424 523.468 220.775C523.171 224.589 520.883 227.917 518.103 230.409C516.774 231.192 515.391 231.858 513.898 232.273C510.054 233.341 506.889 232.161 503.544 230.398L501.067 227.75C499.394 225.537 498.95 222.11 499.327 219.438L499.436 218.75L499.624 217.606C500.467 213.752 503.051 211.327 506.288 209.341Z"/>
	<path fill="#FCFCFD" transform="scale(0.488281 0.488281)" d="M508.978 213.047C510.297 212.839 511.541 212.708 512.872 212.925C514.843 213.248 516.325 214.39 517.443 216C518.684 217.787 518.928 220.008 518.398 222.113C517.725 224.784 515.594 226.1 513.378 227.421C512.261 227.595 511.148 227.755 510.014 227.677C508.239 227.555 506.647 226.586 505.525 225.225C504.076 223.466 503.593 221.514 503.986 219.25C504.505 216.259 506.536 214.542 508.978 213.047Z"/>
	<path fill="#F8DE7C" transform="scale(0.488281 0.488281)" d="M455.091 221.85C458.219 218.901 464.984 217.864 469.264 218.065C471.753 218.181 473.212 219.256 474.782 221.127C476.894 223.641 477.182 226.077 477.017 229.25C475.879 231.364 473.559 232.696 472.973 234.834L451.062 241.851L443.986 240.671C442.36 240.23 441.361 239.517 440.617 238.013C439.64 236.035 440.002 233.918 440.719 231.92L440.97 231.25C441.197 230.619 441.392 229.996 441.728 229.409C443.38 226.523 446.268 224.565 449.449 223.841L455.091 221.85Z"/>
	<path fill="#FCFCFD" transform="scale(0.488281 0.488281)" d="M455.091 221.85C457.7 222.167 460.37 222.033 462.049 224.357C462.637 225.171 462.524 225.786 462.609 226.75C461.441 229.289 459.326 231.544 456.678 232.611C455.036 233.272 452.609 233.649 450.96 232.875C449.351 232.119 448.671 230.813 448.169 229.189C447.68 227.604 448.852 225.288 449.449 223.841L455.091 221.85Z"/>
	<defs>
		<linearGradient id="gradient_5" gradientUnits="userSpaceOnUse" x1="489.70395" y1="503.35211" x2="716.85205" y2="613.36108">
			<stop offset="0" stop-color="#FEBC34"/>
			<stop offset="1" stop-color="#FDD853"/>
		</linearGradient>
	</defs>
	<path fill="url(#gradient_5)" transform="scale(0.488281 0.488281)" d="M626.984 251.483L628.643 251.294C643.374 263.689 656.457 276.442 669.137 290.94C670.048 291.982 673.985 295.981 674.132 297.222C674.324 299.153 675.959 300.904 676.934 302.545C678.297 304.837 679.228 307.315 680.544 309.631C681.928 312.066 686.026 317 686.181 319.652L688.656 320.733C691.155 321.813 692.661 323.317 694.37 325.38L695.954 330.031C695.668 332.556 695.431 334.795 694.368 337.145L695.638 339.981C697.695 344.788 700.653 349.548 703.014 354.263C706.333 360.893 709.114 367.862 711.857 374.75C715.01 382.667 717.515 390.884 720.097 398.998C721.736 404.149 722.834 409.776 725.471 414.513C721.584 414.099 718.337 414.374 715.244 417.003C713.728 418.292 712.748 420.048 711.827 421.781C711.085 426.756 711.467 430.792 714.425 435.008L715.029 435.803C715.023 442.664 716.608 449.296 717.639 456.054L720.688 481.144L721.941 496.886C722.088 499.514 721.582 502.86 722.574 505.303C720.833 510.118 720.123 514.274 722.348 519.109L722.986 520.337C722.762 538.698 720.655 557.312 717.671 575.422C716.178 584.484 713.443 594.1 712.918 603.202C711.54 606.834 710.832 609.643 711.096 613.595C708.774 618.037 707.657 623.513 706.162 628.299L697.665 653.145L688.796 673.535C687.055 677.257 684.573 681.1 683.596 685.099C681.382 688.054 679.767 690.615 679.029 694.315C673.919 700.784 669.896 708.604 665.25 715.475C658.046 726.128 649.658 736.348 641.25 746.065C635.56 752.64 629.636 759.546 623.033 765.207C618.938 763.998 614.539 763.246 610.581 765.332C606.765 767.342 604.388 770.753 603.3 774.865C602.433 778.145 602.977 781.764 604.112 784.911L603.347 785.347C596.626 789.248 590.457 794.058 583.609 797.854C569.893 805.459 554.383 810.214 539 812.999C534.251 813.859 529.386 814.891 524.551 814.976C523.347 811.547 521.484 808.489 518.145 806.793C514.796 805.093 510.673 804.811 507.117 806.022C504.092 807.052 501.715 808.846 500.27 811.75C499.411 813.476 499.299 815.498 499.111 817.39C494.535 817.723 488.478 815.635 484 814.548C467.339 810.501 450.622 804.963 435.54 796.704C428.181 792.675 421.397 787.943 414.347 783.443C413.073 787.04 411.542 789.707 407.98 791.458C404.898 792.973 401.51 792.762 398.201 792.233L398.144 792.279C396.595 792.421 395.514 792.204 394.273 791.211L393.755 790.75L393.25 790.745L392.625 789.875C391.783 788.808 391.002 787.475 390.062 786.529C389.575 786.038 389.635 785.674 389.5 785C389.042 784.537 388.627 784.047 388.502 783.375L388.5 782.75C388.347 781.184 387.783 779.626 388.102 778.029C388.26 777.241 388.374 777.564 388.377 776.5C388.382 775.053 388.588 774.257 389.268 772.945L389.75 772C390.204 770.728 391.154 769.845 392.25 769L393 768.5C393.891 767.833 394.473 767.362 395.578 767.086C396.236 766.921 396.309 766.392 396.75 766.255C397.763 765.94 397.728 766.572 398.875 765.753C398.015 763.717 396.734 761.582 395.508 759.742L395 759L394 757.5L392.875 756.125C392.014 754.665 390.728 753.945 389.875 752.625C388.642 750.718 386.739 749.653 385.502 747.875C384.349 746.216 383.549 745.341 382.002 743.997C381.996 742.114 377.536 739.334 376.743 737.366C376.241 736.118 375.02 735.755 374.323 734.602C373.634 733.461 372.813 732.552 372 731.5C370.439 729.479 368.183 727.752 366.875 725.625C365.851 723.959 367.231 725.468 365.859 724.094L364.547 722.688L364 722L362.875 720.625C362.147 719.373 361.59 718.849 360.502 717.875L360.5 717.25L359.375 716.125C358.635 714.976 358.576 714.811 357.502 713.875C357.499 712.923 357.098 712.738 356.5 712L353.5 708C352.609 707.028 352.275 706.036 351.5 705L350.375 703.625L350 702.75C349.296 701.765 348.323 701.678 347.25 701.5C346.922 702.091 346.729 702.513 346.594 703.188C346.438 703.964 346.297 703.953 345.75 704.5L345.745 705.25L341.875 708.497L341 708.75C340.182 709.122 339.949 709.483 338.953 709.646L338.25 709.745L337.75 710.245L336.25 710C335.332 709.867 334.575 709.775 333.688 709.482L333 709.25C331.872 709.064 331.528 708.835 330.5 708.25L329.75 708.245L328.5 706.75L327.625 706.497C327.168 705.29 326.461 704.449 325.557 703.539L325.255 703.25L325.5 702.5L324.755 701.75L324.877 700C324.779 699.264 324.326 698.591 324.5 697.75L324.875 696.875C324.726 695.786 324.662 696.243 324.987 695.258L325.25 694.5C325.42 693.734 325.357 693.192 325.755 692.5L326.25 691.755C327.368 689.88 329.996 687.708 332.125 687.125L333.5 687C334.709 686.518 335.972 686.251 337.375 686.625C338.57 686.944 339.209 687.25 340.5 687.25C340.275 686.642 340.091 686.118 339.711 685.586C339.231 684.914 338.944 684.181 338.5 683.5L338.002 682.875L338 682.25C337.444 681.707 336.986 681.3 336.705 680.555C336.242 679.33 335.683 678.12 335 677C332.303 672.58 330.191 667.756 327.875 663.125C326.888 661.15 325.509 659.05 324.75 657C324.447 656.182 324.388 655.62 323.953 654.812L321 648.75L320.5 647.5C319.359 645.043 317.951 642.104 317.25 639.5C317.003 638.583 316.764 637.829 316.25 637L315.877 636.5C315.561 634.017 314.26 632.078 313.484 629.75C312.57 627.006 311.953 622.986 309.752 621.125L308.748 621.625C307.95 622.011 307.155 622.292 306.516 622.927L306.25 623.245L305.25 623C302.054 624.37 300.573 623.442 297.5 622.75L296.5 622.622L295.755 622.25L295.25 622.245L294.625 621.375C293.505 620.895 292.893 620.296 292.002 619.497L292 618.75C291.425 618.188 290.983 617.642 290.503 616.997L290.378 616C289.82 614.062 290.094 616.286 289.931 614.617L289.877 614C289.617 612.944 289.234 611.349 289.5 610.25L290.125 607.625L290.5 606.75L290.877 605.5L291.25 605L291.255 604.25C291.903 603.712 292.459 603.162 293.017 602.534C293.555 601.928 293.714 601.732 294.5 601.378L295.5 601C296.28 600.64 296.885 600.269 297.727 600.039L298.375 599.875C300.15 599.247 301.974 599.374 303.859 599.371L304.375 599.375L304.5 597.75L303.875 595.125C303.57 594.057 303.354 592.779 303 591.75C302.501 590.3 302.645 591.474 302.539 589.883C302.461 588.715 302.508 589.008 301.755 588.25L302 586.75C301.49 585.561 301.829 584.828 301.5 583.75C301.174 582.683 301.291 581.702 301 580.75C300.625 579.523 300.838 578.336 300.5 577.25C300.165 576.172 300.292 575.227 300 574.25C299.545 572.727 299.532 571.602 299.5 570C298.698 568.797 299 566.957 299 565.5C298.09 564.135 298.5 561.664 298.5 560C297.516 558.523 298 555.332 298 553.5L297.5 552.75C297.459 549.871 297.278 547.026 297.956 544.207C298.224 551.012 298.482 558.286 299.556 565L302.398 585.003L304.595 595.458C305 597.283 305.671 598.865 305.662 600.777C309.038 602.419 311.555 604.348 312.767 608.034C313.683 610.817 313.547 614.013 312.123 616.624C311.526 617.718 310.756 618.704 309.953 619.653C312.47 622.137 313.004 625.771 314.186 629L321.631 648.089L334.776 674.989C337.106 679.499 341.181 684.533 342.261 689.372C345.537 692.788 346.568 694.679 346.867 699.44C348.093 699.942 348.935 700.491 349.817 701.503C352.786 704.911 355.164 709.057 357.875 712.706L373.359 731.957C374.033 732.75 376.432 736.121 377.307 736.127L377.629 735.461C378.019 734.694 378.46 734.051 378.935 733.343L380.226 731.014C381.318 731.98 382.211 733.118 383.079 734.282C383.581 734.957 384.09 735.433 384.698 736.001L386.139 737.549C387.541 739.119 389.029 740.538 390.984 741.381C400.337 750.148 409.976 759.208 420.403 766.678C440.003 780.721 464.642 790.339 488.432 794.078C531.466 800.841 573.761 787.568 608.451 762.203C626.102 749.297 640.215 733.798 653.086 716.164C683.103 675.042 702.308 625.489 709.982 575.252C720.665 505.314 712.191 430.044 681.561 365.978C672.353 346.718 660.811 328.715 648.184 311.54L648.55 310.744L647.63 309.548C643.201 303.663 637.569 298.086 632.546 292.667C630.88 290.869 628.939 289.286 627.466 287.325C626.399 285.905 625.069 284.537 623.65 283.468L619.535 280.077C618.501 279.063 617.38 278.354 616.349 277.393C615.791 276.873 615.393 276.379 614.655 276.101L614.25 276C613.805 275.4 613.133 274.374 612.497 274.002C611.559 273.453 610.896 272.813 610 272.255L607.328 270.5C603.838 268.103 606.577 268.732 605.794 265.817C606.477 264.842 606.702 264.328 607.75 263.745C610.055 265.838 611.968 265.504 614.5 266.5C615.552 266.914 616.103 266.761 617 267.075C618.694 267.669 618.886 269.647 620.944 269.875C620.265 268.566 618.42 267.196 617.337 266.14C619.807 265.616 622.103 264.907 623.936 263.083C627.095 259.94 627.121 255.622 626.984 251.483Z"/>
	<path fill="#FBF7E6" transform="scale(0.488281 0.488281)" d="M662.195 302.25C663.245 302.071 663.915 301.983 664.977 302.261C666.979 302.785 668.7 305.466 669.73 307.104L670.18 307.829C670.882 308.934 671.738 310.025 671.963 311.349C672.203 312.759 671.859 314.068 671.11 315.251C670.342 316.463 670.07 316.209 668.75 316.526C667.698 316.48 666.751 316.366 665.75 316.04C662.947 315.125 660.482 312.009 659.25 309.449C658.576 308.047 658.31 306.217 658.961 304.75C659.646 303.206 660.779 302.904 662.195 302.25Z"/>
	<path fill="#81173D" transform="scale(0.488281 0.488281)" d="M346.867 699.44L345.703 702.766C344.657 705.368 342.557 707.332 339.947 708.351C337.302 709.383 334.242 709.134 331.694 707.944C328.945 706.66 326.89 704.337 325.947 701.453C325.094 698.843 325.379 695.702 326.577 693.25C327.801 690.743 330.079 688.679 332.77 687.853C336.219 686.793 339.188 687.868 342.261 689.372C345.537 692.788 346.568 694.679 346.867 699.44Z"/>
	<path fill="#FCFCFD" transform="scale(0.488281 0.488281)" d="M335.376 691.165C336.668 691.277 337.991 691.376 339.164 691.986C340.843 692.858 342.276 694.3 342.8 696.154C343.344 698.081 343.032 700.042 342.084 701.784C340.984 703.805 339.367 704.446 337.25 705.036C335.879 705.097 334.793 705.044 333.533 704.432C331.614 703.499 330.339 701.734 329.794 699.711C329.286 697.828 329.628 695.589 330.729 693.965C331.908 692.228 333.398 691.605 335.376 691.165Z"/>
	<path fill="#81173D" transform="scale(0.488281 0.488281)" d="M309.953 619.653C306.598 622.123 304.097 622.834 300 622.52C297.359 622.317 294.619 620.791 292.963 618.75C290.786 616.068 290.024 612.629 290.537 609.25C290.957 606.487 292.788 603.675 295.127 602.152C298.632 599.871 301.781 599.998 305.662 600.777C309.038 602.419 311.555 604.348 312.767 608.034C313.683 610.817 313.547 614.013 312.123 616.624C311.526 617.718 310.756 618.704 309.953 619.653Z"/>
	<path fill="#FCFCFD" transform="scale(0.488281 0.488281)" d="M299.745 604.25C301.03 604.106 302.054 604.036 303.315 604.388C305.349 604.957 307.102 606.356 308.071 608.25C308.962 609.992 308.987 612.058 308.399 613.897C307.662 616.206 306.015 617.212 303.957 618.25C302.42 618.649 300.814 618.866 299.25 618.42C297.51 617.923 295.713 615.921 295.044 614.298C294.243 612.352 294.237 609.7 295.21 607.815C296.224 605.849 297.749 604.998 299.745 604.25Z"/>
	<path fill="#81173D" transform="scale(0.488281 0.488281)" d="M679.869 342.75C678.621 341.967 677.265 341.065 676.25 339.988C673.299 336.858 672.189 333.147 672.324 328.935C672.404 326.451 673.838 324.235 675.69 322.647C678.904 319.891 682.15 319.48 686.181 319.652L688.656 320.733C691.155 321.813 692.661 323.317 694.37 325.38L695.954 330.031C695.668 332.556 695.431 334.795 694.368 337.145C691.717 340.562 689.405 342.662 684.914 343.278C683.149 343.52 681.575 343.166 679.869 342.75Z"/>
	<path fill="#FCFCFD" transform="scale(0.488281 0.488281)" d="M683.035 323.604C684.029 323.742 685.035 323.875 685.988 324.204C687.943 324.879 689.358 326.382 690.18 328.25C691.1 330.343 691.051 332.613 690.074 334.689C689.104 336.752 687.308 337.712 685.25 338.423C683.624 338.541 682.323 338.489 680.834 337.747C678.966 336.818 677.822 335.151 677.188 333.211C676.567 331.311 676.62 329.057 677.644 327.301C678.909 325.132 680.702 324.238 683.035 323.604Z"/>
	<path fill="#81173D" transform="scale(0.488281 0.488281)" d="M398.144 792.279C396.402 791.382 394.687 790.401 393.25 789.05C390.372 786.346 389.062 782.871 388.983 778.98C388.916 775.716 389.808 772.481 392.25 770.177C395.216 767.379 398.813 766.62 402.75 766.986C406.039 767.291 409.733 769.33 411.806 771.884C414.849 775.631 414.719 778.912 414.347 783.443C413.073 787.04 411.542 789.707 407.98 791.458C404.898 792.973 401.51 792.762 398.201 792.233L398.144 792.279Z"/>
	<path fill="#F8DE7C" transform="scale(0.488281 0.488281)" d="M410.229 780.589C409.765 781.747 409.222 782.986 408.412 783.952C406.932 785.715 404.909 786.759 402.622 786.965C400.031 787.199 397.419 786.356 395.535 784.557C393.555 782.666 393.071 780.656 393.084 778.002C394.778 780.219 396.351 782.704 399.33 783.123C402.64 783.587 405.293 783.378 408.097 781.613C408.743 781.206 409.511 780.833 410.229 780.589Z"/>
	<path fill="#FCFCFD" transform="scale(0.488281 0.488281)" d="M393.084 778.002C393.863 775.128 394.875 773.095 397.547 771.566C399.7 770.335 402.623 770.097 404.958 770.931C407.086 771.691 408.925 773.325 409.811 775.407C410.551 777.149 410.473 778.754 410.229 780.589C409.511 780.833 408.743 781.206 408.097 781.613C405.293 783.378 402.64 783.587 399.33 783.123C396.351 782.704 394.778 780.219 393.084 778.002Z"/>
	<path fill="#FCA129" transform="scale(0.488281 0.488281)" d="M694.368 337.145L695.638 339.981C697.695 344.788 700.653 349.548 703.014 354.263C706.333 360.893 709.114 367.862 711.857 374.75C715.01 382.667 717.515 390.884 720.097 398.998C721.736 404.149 722.834 409.776 725.471 414.513C721.584 414.099 718.337 414.374 715.244 417.003C713.728 418.292 712.748 420.048 711.827 421.781C709.743 417.446 708.686 412.387 707.123 407.807L696.837 380.411L686.185 356.766C684.145 352.413 680.571 347.429 679.869 342.75C681.575 343.166 683.149 343.52 684.914 343.278C689.405 342.662 691.717 340.562 694.368 337.145Z"/>
	<defs>
		<linearGradient id="gradient_6" gradientUnits="userSpaceOnUse" x1="611.9538" y1="765.78064" x2="410.64771" y2="269.89603">
			<stop offset="0" stop-color="#91132E"/>
			<stop offset="1" stop-color="#731F51"/>
		</linearGradient>
	</defs>
	<path fill="url(#gradient_6)" transform="scale(0.488281 0.488281)" d="M503.544 230.398C506.889 232.161 510.054 233.341 513.898 232.273C515.391 231.858 516.774 231.192 518.103 230.409C526.396 230.816 534.888 231.361 543.068 232.859C557.812 235.559 571.989 240.87 585.559 247.126L597.322 253.033C599.422 254.213 601.934 256.222 604.186 256.855C606.106 260.72 608.062 263.803 612.376 265.319C613.957 265.874 615.675 266.024 617.337 266.14C618.42 267.196 620.265 268.566 620.944 269.875C618.886 269.647 618.694 267.669 617 267.075C616.103 266.761 615.552 266.914 614.5 266.5C611.968 265.504 610.055 265.838 607.75 263.745C606.702 264.328 606.477 264.842 605.794 265.817C606.577 268.732 603.838 268.103 607.328 270.5L610 272.255C610.896 272.813 611.559 273.453 612.497 274.002C613.133 274.374 613.805 275.4 614.25 276L614.655 276.101C615.393 276.379 615.791 276.873 616.349 277.393C617.38 278.354 618.501 279.063 619.535 280.077L623.65 283.468C625.069 284.537 626.399 285.905 627.466 287.325C628.939 289.286 630.88 290.869 632.546 292.667C637.569 298.086 643.201 303.663 647.63 309.548L648.55 310.744L648.184 311.54C660.811 328.715 672.353 346.718 681.561 365.978C712.191 430.044 720.665 505.314 709.982 575.252C702.308 625.489 683.103 675.042 653.086 716.164C640.215 733.798 626.102 749.297 608.451 762.203C573.761 787.568 531.466 800.841 488.432 794.078C464.642 790.339 440.003 780.721 420.403 766.678C409.976 759.208 400.337 750.148 390.984 741.381C389.029 740.538 387.541 739.119 386.139 737.549L384.698 736.001C384.09 735.433 383.581 734.957 383.079 734.282C382.211 733.118 381.318 731.98 380.226 731.014L378.935 733.343C378.46 734.051 378.019 734.694 377.629 735.461L377.307 736.127C376.432 736.121 374.033 732.75 373.359 731.957L357.875 712.706C355.164 709.057 352.786 704.911 349.817 701.503C348.935 700.491 348.093 699.942 346.867 699.44C346.568 694.679 345.537 692.788 342.261 689.372C341.181 684.533 337.106 679.499 334.776 674.989L321.631 648.089L314.186 629C313.004 625.771 312.47 622.137 309.953 619.653C310.756 618.704 311.526 617.718 312.123 616.624C313.547 614.013 313.683 610.817 312.767 608.034C311.555 604.348 309.038 602.419 305.662 600.777C305.671 598.865 305 597.283 304.595 595.458L302.398 585.003L299.556 565C298.482 558.286 298.224 551.012 297.956 544.207L298.186 542.75C297.46 541.543 297.716 539.986 297.715 538.622C297.712 534.951 298.643 526.802 296.925 523.926C298.324 522.07 299.416 520.249 299.762 517.906C300.407 513.535 299.024 510.772 296.459 507.391C297.374 505.698 297.073 502.563 297.171 500.586L298.174 485.602C298.794 476.216 299.745 466.776 301.284 457.495L305.008 437.142L305.135 436.153C308.508 434.337 311.002 431.793 312.041 428.039C313.127 424.111 312.017 420.978 310.164 417.538C313.878 401.171 320.308 383.93 327.503 368.75L333.57 356.99C335.855 353.053 340.086 347.773 340.947 343.354C343.089 342.29 345.038 341.052 346.515 339.126C349.03 335.849 349.355 332.44 348.741 328.475C352.798 324.835 355.682 319.128 359.001 314.74C364.929 306.9 371.322 299.286 378.185 292.247L390.072 280.815C394.1 277.137 402.034 271.759 403.801 266.805C407.75 265.723 409.977 263.825 412.696 260.927C415.861 260.24 418.782 258.415 421.599 256.87L435.391 249.389C440.52 246.798 446.104 244.675 451.062 241.851L472.973 234.834L503.544 230.398Z"/>
	<path fill="#2C8AC2" transform="scale(0.488281 0.488281)" d="M350.774 365.598L351.152 364.64C354.867 356.477 359.858 348.72 364.701 341.187C383.676 311.676 406.449 287.25 437.127 269.624C443.917 265.723 451.178 261.676 458.579 259.079C457.318 261.317 455.217 262.773 453.343 264.483L445.502 272.179L379.47 336.853L360.699 356.094C357.837 359.057 354.445 363.838 350.774 365.598Z"/>
	<path fill="#CEF0F3" transform="scale(0.488281 0.488281)" d="M336.127 626.625C336.16 627.043 336.122 628.456 336.293 628.75C336.723 629.49 337.986 630.5 338.613 631.145C340.831 633.423 343.029 635.752 345.439 637.831C365.929 655.503 390.396 668.797 415.088 679.628C407.28 688.852 398.22 697.556 389.543 705.976C386.309 709.115 382.887 713.143 379.158 715.582C374.659 709.745 370.751 703.459 366.762 697.271C352.936 675.821 341.675 653.189 333.366 629.054L336.127 626.625Z"/>
	<path fill="#30ACDD" transform="scale(0.488281 0.488281)" d="M458.579 259.079C468.398 254.771 477.379 251.618 487.977 249.746C487.881 250.504 487.737 250.981 487.225 251.565C475.873 264.513 462.705 276.032 450.552 288.225L380.415 358.245L336.011 403.043L334.776 403.383C338.558 390.425 344.416 377.48 350.774 365.598C354.445 363.838 357.837 359.057 360.699 356.094L379.47 336.853L445.502 272.179L453.343 264.483C455.217 262.773 457.318 261.317 458.579 259.079Z"/>
	<path fill="#CEF0F3" transform="scale(0.488281 0.488281)" d="M564.516 717.5C569.737 718.114 574.97 719.274 580.159 720.146L616.665 726.414L627.51 727.856C629.513 728.026 632.325 727.772 634.109 728.656C606.261 760.832 566.313 785.203 523.235 788.352C513.59 789.057 503.945 788.986 494.373 787.5C496.3 784.262 499.852 781.349 502.479 778.619L564.516 717.5Z"/>
	<defs>
		<linearGradient id="gradient_7" gradientUnits="userSpaceOnUse" x1="619.27094" y1="610.22406" x2="657.55127" y2="719.03888">
			<stop offset="0" stop-color="#96CEE5"/>
			<stop offset="1" stop-color="#BBECF3"/>
		</linearGradient>
	</defs>
	<path fill="url(#gradient_7)" transform="scale(0.488281 0.488281)" d="M701.218 579.084C694.419 625.36 675.774 670.529 649.097 708.841C644.541 715.384 639.713 723.006 634.109 728.656C632.325 727.772 629.513 728.026 627.51 727.856L616.665 726.414L580.159 720.146C574.97 719.274 569.737 718.114 564.516 717.5L564.516 717.105C567.402 714.9 570.061 711.665 572.637 709.082L591.312 690.585L653.547 628.223L682.284 599.387L701.218 579.084Z"/>
	<path fill="#FCA129" transform="scale(0.488281 0.488281)" d="M503.544 230.398C506.889 232.161 510.054 233.341 513.898 232.273C515.391 231.858 516.774 231.192 518.103 230.409C526.396 230.816 534.888 231.361 543.068 232.859C557.812 235.559 571.989 240.87 585.559 247.126L597.322 253.033C599.422 254.213 601.934 256.222 604.186 256.855C606.106 260.72 608.062 263.803 612.376 265.319C613.957 265.874 615.675 266.024 617.337 266.14C618.42 267.196 620.265 268.566 620.944 269.875C618.886 269.647 618.694 267.669 617 267.075C616.103 266.761 615.552 266.914 614.5 266.5C611.968 265.504 610.055 265.838 607.75 263.745C606.702 264.328 606.477 264.842 605.794 265.817C606.577 268.732 603.838 268.103 607.328 270.5L610 272.255C610.896 272.813 611.559 273.453 612.497 274.002C613.133 274.374 613.805 275.4 614.25 276L614.655 276.101C615.393 276.379 615.791 276.873 616.349 277.393C617.38 278.354 618.501 279.063 619.535 280.077L623.65 283.468C625.069 284.537 626.399 285.905 627.466 287.325C628.939 289.286 630.88 290.869 632.546 292.667C637.569 298.086 643.201 303.663 647.63 309.548L648.55 310.744L648.184 311.54C638.908 300.899 629.274 289.883 618.632 280.603C592.849 258.123 558.043 242.518 523.828 240.195C479.929 237.215 437.359 253.678 404.505 282.575C343.092 336.592 312.735 415.952 307.592 496.351C305.183 534.015 309.227 571.754 318.897 608.16C322.132 620.336 325.647 632.404 330.322 644.118C339.767 667.787 351.883 689.563 366.538 710.397C372.39 718.718 378.263 727.093 384.976 734.75L390.984 741.381C389.029 740.538 387.541 739.119 386.139 737.549L384.698 736.001C384.09 735.433 383.581 734.957 383.079 734.282C382.211 733.118 381.318 731.98 380.226 731.014L378.935 733.343C378.46 734.051 378.019 734.694 377.629 735.461L377.307 736.127C376.432 736.121 374.033 732.75 373.359 731.957L357.875 712.706C355.164 709.057 352.786 704.911 349.817 701.503C348.935 700.491 348.093 699.942 346.867 699.44C346.568 694.679 345.537 692.788 342.261 689.372C341.181 684.533 337.106 679.499 334.776 674.989L321.631 648.089L314.186 629C313.004 625.771 312.47 622.137 309.953 619.653C310.756 618.704 311.526 617.718 312.123 616.624C313.547 614.013 313.683 610.817 312.767 608.034C311.555 604.348 309.038 602.419 305.662 600.777C305.671 598.865 305 597.283 304.595 595.458L302.398 585.003L299.556 565C298.482 558.286 298.224 551.012 297.956 544.207L298.186 542.75C297.46 541.543 297.716 539.986 297.715 538.622C297.712 534.951 298.643 526.802 296.925 523.926C298.324 522.07 299.416 520.249 299.762 517.906C300.407 513.535 299.024 510.772 296.459 507.391C297.374 505.698 297.073 502.563 297.171 500.586L298.174 485.602C298.794 476.216 299.745 466.776 301.284 457.495L305.008 437.142L305.135 436.153C308.508 434.337 311.002 431.793 312.041 428.039C313.127 424.111 312.017 420.978 310.164 417.538C313.878 401.171 320.308 383.93 327.503 368.75L333.57 356.99C335.855 353.053 340.086 347.773 340.947 343.354C343.089 342.29 345.038 341.052 346.515 339.126C349.03 335.849 349.355 332.44 348.741 328.475C352.798 324.835 355.682 319.128 359.001 314.74C364.929 306.9 371.322 299.286 378.185 292.247L390.072 280.815C394.1 277.137 402.034 271.759 403.801 266.805C407.75 265.723 409.977 263.825 412.696 260.927C415.861 260.24 418.782 258.415 421.599 256.87L435.391 249.389C440.52 246.798 446.104 244.675 451.062 241.851L472.973 234.834L503.544 230.398Z"/>
	<path fill="#2C8AC2" transform="scale(0.488281 0.488281)" d="M487.977 249.746C514.655 244.194 541.726 248.568 566.768 258.536C572.864 260.962 579.439 263.569 585.015 267.052L585.085 267.131L424.25 428.336L355.217 497.345L324.866 528.032C322.034 530.993 317.291 534.684 315.742 538.419L315.661 538.23C314.55 530.628 315.039 521.697 315.264 514.027C316.167 483.24 319.757 453.142 328.187 423.452C330.084 416.769 331.9 409.719 334.776 403.383L336.011 403.043L380.415 358.245L450.552 288.225C462.705 276.032 475.873 264.513 487.225 251.565C487.737 250.981 487.881 250.504 487.977 249.746Z"/>
	<path fill="#77CFE3" transform="scale(0.488281 0.488281)" d="M688.237 403.853L693.049 418.562L697.243 433.388C700.743 446.13 702.52 459.416 703.924 472.538C705.787 489.948 706.762 507.245 706.217 524.758C706.146 527.058 706.547 532.995 705.674 534.882L703.916 556.892L701.218 579.084L682.284 599.387L653.547 628.223L591.312 690.585L572.637 709.082C570.061 711.665 567.402 714.9 564.516 717.105L564.516 717.5L502.479 778.619C499.852 781.349 496.3 784.262 494.373 787.5C483.725 786.104 473.542 783.385 463.423 779.819C452.077 775.441 441.11 770.553 430.786 764.075C418.304 756.243 407.331 746.436 396.736 736.264L387.448 726.026L379.158 715.582C382.887 713.143 386.309 709.115 389.543 705.976C398.22 697.556 407.28 688.852 415.088 679.628L415.361 679.559L688.237 403.853Z"/>
	<path fill="#92EBEE" transform="scale(0.488281 0.488281)" d="M463.423 779.819L531.357 712.799C532.056 713.039 532.48 713.09 533.243 713.091L534 713.075C534.873 713.558 534.623 713.556 535.423 713.626L537.25 713.745C539.365 714.209 541.121 714.119 543.299 714.052L547.33 714.683C545.878 718.355 539.861 720.565 537.678 724.08C536.442 726.072 534.49 727.797 532.948 729.569L519.796 743.435L498.733 766.058C495.887 769.246 492.864 772.404 490.274 775.803C488.202 778.522 486.923 781.225 484.344 783.684L484.25 784.755C485.206 785.04 486.022 785.205 487 785.378C487.998 785.553 487.612 785.544 488.476 785.802C489.419 786.084 489.139 785.995 490.184 785.99C491.327 785.985 491.93 786.157 493 786.5C494.557 785.877 494.935 785.264 495.877 784C497.115 782.341 499.139 779.945 501.035 779.231L502.479 778.619C499.852 781.349 496.3 784.262 494.373 787.5C483.725 786.104 473.542 783.385 463.423 779.819Z"/>
	<path fill="#92EBEE" transform="scale(0.488281 0.488281)" d="M415.361 679.559C417.863 681.893 424.589 684.872 427.884 686.189L428.512 685.406L440.631 691.448L409.759 722.945L401.078 731.743C399.738 733.102 397.758 734.694 396.736 736.264L387.448 726.026L379.158 715.582C382.887 713.143 386.309 709.115 389.543 705.976C398.22 697.556 407.28 688.852 415.088 679.628L415.361 679.559Z"/>
	<path fill="#77CFE3" transform="scale(0.488281 0.488281)" d="M415.361 679.559C417.863 681.893 424.589 684.872 427.884 686.189C422.891 692.322 416.316 697.537 410.675 703.106C403.03 710.654 395.624 719.094 387.448 726.026L379.158 715.582C382.887 713.143 386.309 709.115 389.543 705.976C398.22 697.556 407.28 688.852 415.088 679.628L415.361 679.559Z"/>
	<path fill="#30ACDD" transform="scale(0.488281 0.488281)" d="M547.869 714.706C552.079 711.653 555.972 706.671 559.649 702.93L584.34 677.999L668.34 592.404L703.916 556.892L701.218 579.084L682.284 599.387L653.547 628.223L591.312 690.585L572.637 709.082C570.061 711.665 567.402 714.9 564.516 717.105L547.869 714.706Z"/>
	<path fill="#2C8AC2" transform="scale(0.488281 0.488281)" d="M688.237 403.853L693.049 418.562L675.414 436.855L649.74 462.5L501.076 612.08L464.75 648.856L451.81 661.543C450.676 662.667 448.46 664.372 447.808 665.736L435.188 678.464C433.033 680.653 430.308 682.946 428.512 685.406L427.884 686.189C424.589 684.872 417.863 681.893 415.361 679.559L688.237 403.853Z"/>
	<defs>
		<linearGradient id="gradient_8" gradientUnits="userSpaceOnUse" x1="551.97125" y1="461.07111" x2="594.23071" y2="699.09637">
			<stop offset="0" stop-color="#2B85C1"/>
			<stop offset="1" stop-color="#2DB0D5"/>
		</linearGradient>
	</defs>
	<path fill="url(#gradient_8)" transform="scale(0.488281 0.488281)" d="M697.243 433.388C700.743 446.13 702.52 459.416 703.924 472.538C705.787 489.948 706.762 507.245 706.217 524.758C706.146 527.058 706.547 532.995 705.674 534.882L530.888 711.709C528.517 712.366 522.186 710.604 519.532 710.216C505.651 708.182 491.584 706.066 477.936 702.786C465.369 699.767 453.309 695.734 441.107 691.516L453.282 678.74C455.091 677.539 456.695 675.622 458.246 674.083L467.808 664.545L506.633 625.198L573.441 557.355L624.75 506.322L674.723 455.984C682.186 448.523 689.37 440.368 697.243 433.388Z"/>
	<path fill="#77CFE3" transform="scale(0.488281 0.488281)" d="M585.085 267.131L598.225 275.15C603.887 278.913 609.036 283.295 614.251 287.642C618.284 291.003 623.214 294.898 626.411 299.08C628.93 301.852 631.934 304.651 634.073 307.709C637.517 311.667 641.442 315.757 644.119 320.268C662.914 346.145 677.686 373.63 688.237 403.853L415.361 679.559L415.088 679.628C390.396 668.797 365.929 655.503 345.439 637.831C343.029 635.752 340.831 633.423 338.613 631.145C337.986 630.5 336.723 629.49 336.293 628.75C336.122 628.456 336.16 627.043 336.127 626.625L333.366 629.054L328.684 613.881L324.486 598.734C320.496 585.297 318.051 569.783 317.401 555.787L315.742 538.419C317.291 534.684 322.034 530.993 324.866 528.032L355.217 497.345L424.25 428.336L585.085 267.131Z"/>
	<path fill="#2C8AC2" transform="scale(0.488281 0.488281)" d="M626.411 299.08C628.93 301.852 631.934 304.651 634.073 307.709C637.517 311.667 641.442 315.757 644.119 320.268C640.392 322.942 637.136 326.615 633.867 329.836L616.344 347.339L563.641 400.056L421.281 541.95L336.127 626.625L333.366 629.054L328.684 613.881L324.486 598.734C325.137 598.414 325.704 598.108 326.27 597.645C338.592 587.575 349.636 575.265 360.797 563.929L404.669 520.074L561.124 363.59L602.179 322.188L617.04 307.462C620.048 304.567 622.999 301.503 626.411 299.08Z"/>
	<path fill="#77CFE3" transform="scale(0.488281 0.488281)" d="M626.411 299.08C628.93 301.852 631.934 304.651 634.073 307.709C626.56 317.383 616.86 326.258 608.24 335.004L555.882 387.34L385.211 558.148L340.694 603.159L331.648 611.718C330.847 612.406 329.262 613.1 328.684 613.881L324.486 598.734C325.137 598.414 325.704 598.108 326.27 597.645C338.592 587.575 349.636 575.265 360.797 563.929L404.669 520.074L561.124 363.59L602.179 322.188L617.04 307.462C620.048 304.567 622.999 301.503 626.411 299.08Z"/>
	<path fill="#2C8AC2" transform="scale(0.488281 0.488281)" d="M585.085 267.131L598.225 275.15C603.887 278.913 609.036 283.295 614.251 287.642C618.284 291.003 623.214 294.898 626.411 299.08C622.999 301.503 620.048 304.567 617.04 307.462L602.179 322.188L561.124 363.59L404.669 520.074L360.797 563.929C349.636 575.265 338.592 587.575 326.27 597.645C325.704 598.108 325.137 598.414 324.486 598.734C320.496 585.297 318.051 569.783 317.401 555.787L315.742 538.419C317.291 534.684 322.034 530.993 324.866 528.032L355.217 497.345L424.25 428.336L585.085 267.131Z"/>
	<path fill="#77CFE3" transform="scale(0.488281 0.488281)" d="M585.085 267.131L598.225 275.15L548.247 325.285L510.583 363.24L475.583 397.75L341.145 532.74L326.212 547.71C323.556 550.393 320.758 554.052 317.401 555.787L315.742 538.419C317.291 534.684 322.034 530.993 324.866 528.032L355.217 497.345L424.25 428.336L585.085 267.131Z"/>
</svg>
