<?xml version="1.0" encoding="utf-8" ?>
<svg xmlns="http://www.w3.org/2000/svg" xmlns:xlink="http://www.w3.org/1999/xlink" width="500" height="500">
	<path fill="#32144E" transform="scale(0.488281 0.488281)" d="M-0 -0L1024 0L1024 1024L-0 1024L0 -0Z"/>
	<path fill="#FDB52D" transform="scale(0.488281 0.488281)" d="M774.192 915.398L776.219 921.567C777.975 925.239 782.21 927.044 785.849 928.176L786.56 928.392L782.477 930.064C777.705 932.524 776.167 936.567 774.604 941.342C773.986 939.501 773.408 937.448 772.434 935.764C769.831 931.262 765.331 929.861 760.707 928.453C763.074 927.88 765.721 927.361 767.866 926.163C772.018 923.844 773.085 919.65 774.192 915.398Z"/>
	<path fill="#FBAE35" transform="scale(0.488281 0.488281)" d="M89.0713 226.002C89.5779 229.79 90.3064 235.224 92.2858 238.478C94.6324 242.335 100.059 243.632 104.168 244.585C101.643 246.243 97.4252 246.363 94.5555 247.983C89.5172 250.828 91.2333 256.868 88.58 260.75C87.5336 256.321 86.6953 252.651 84.5869 248.565C80.789 246.396 76.467 245.949 72.222 245.145C75.7231 244.166 79.1111 243.572 82.2329 241.562C87.3048 238.296 87.9687 231.454 89.0713 226.002Z"/>
	<path fill="#FBAE35" transform="scale(0.488281 0.488281)" d="M265.58 83.4279C266.361 86.7031 267.304 90.11 269.091 92.9979C272.349 98.2651 277.247 99.5668 282.931 100.849C280.13 101.868 277.416 102.466 274.765 103.905C269.46 106.785 267.779 110.956 266.154 116.484L265.935 117.25C264.808 114.269 264.552 111.398 262.875 108.554C259.811 103.359 253.884 102.577 248.494 101.076C251.824 100.291 255.296 99.6494 258.206 97.75C263.139 94.5307 264.378 88.7955 265.58 83.4279Z"/>
	<path fill="#FDB52D" transform="scale(0.488281 0.488281)" d="M882.329 820.491C884.529 825.896 885.435 831.319 888.558 836.425C892.529 842.916 898.102 845.766 905.274 847.521C902.883 848.912 900.087 849.587 897.631 850.929C888.538 855.897 885.033 865.783 882.41 875.175C881.234 870.332 879.769 865.577 877.558 861.096C874.198 854.288 868.246 850.837 861.264 848.554L860.34 848.263C863.331 847.175 866.513 846.087 869.25 844.437C877.871 839.237 880.005 829.509 882.329 820.491Z"/>
	<path fill="#FBAE35" transform="scale(0.488281 0.488281)" d="M153.745 129.75C154.12 130.424 154.318 130.968 154.455 131.729C155.857 139.554 158.859 147.411 163.681 153.796C169.661 161.713 181.405 165.989 190.852 167.387C182.946 170.065 175.412 170.945 168.415 176.105C159.171 182.921 155.526 195.15 153.98 205.988C152.481 198.492 149.905 190.898 145.998 184.299C139.205 172.826 129.524 170.725 117.473 167.631C123.543 166.36 129.212 164.581 134.647 161.521C146.938 154.6 150.185 142.384 153.745 129.75Z"/>
	<path fill="#FBAE35" transform="scale(0.488281 0.488281)" d="M860.59 101.121C862.221 110.393 863.926 118.876 868.897 127.051C876.335 139.28 886.057 143.817 899.512 147.027C892.119 147.912 884.543 149.52 878.405 154.018C866.635 162.644 862.702 176.14 860.475 189.862C858.996 179.145 855.991 168.333 848.711 160.007C841.452 151.705 832.373 148.45 821.632 147.658C823.508 146.744 825.827 146.419 827.835 145.806C832.687 144.323 837.203 142.376 841.385 139.464C854.616 130.253 857.974 116.083 860.59 101.121Z"/>
	<path fill="#FDB52D" transform="scale(0.488281 0.488281)" d="M151.699 812.501C152.884 815.661 153.304 819.125 154.081 822.408C155.879 830.007 158.732 837.396 162.891 844.019C172.446 859.232 187.03 863.097 203.468 866.906C193.371 868.568 183.547 871.306 175.001 877.152C161.027 886.711 155.729 901.99 152.638 917.882L152.25 920.206C151.072 917.929 150.975 914.612 150.425 912.045C148.609 903.578 145.709 895.368 140.701 888.227C131.852 875.605 117.518 869.718 102.817 867.099C114.51 864.791 126.824 861.181 135.575 852.691C146.866 841.736 151.419 827.917 151.699 812.501Z"/>
	<path fill="#7569B0" transform="scale(0.488281 0.488281)" d="M869.6 652.056C878 654.449 887.476 656.282 896.186 656.645C888.417 676.194 879.904 695.11 869.582 713.462C843.323 760.152 808.494 800.368 766.743 833.84C739.463 855.711 709.425 874.452 677.285 888.318C577.871 931.205 463.818 934.487 362.945 894.311C261.922 854.075 178.602 774.872 135.553 674.697L130.707 662.561L150.134 662.465C153.001 662.417 156.785 662.739 159.399 661.6C169.954 684.923 181.279 708.233 196.213 729.141C225.479 770.932 262.33 808.802 305.993 835.661C317.673 842.685 329.473 849.809 341.734 855.785C366.912 868.056 393.435 878.136 420.654 884.803C480.422 899.443 544.953 899.219 604.66 884.381C633.004 877.337 659.549 867.353 685.69 854.399C696.516 849.035 707.551 843.336 717.626 836.647C722.583 834.541 727.964 829.981 732.427 826.841C750.851 813.877 768.614 799.266 784.472 783.228L803.399 762.282C804.632 761.395 805.98 759.434 806.982 758.25L814.645 748.639C837.682 718.78 855.526 687.015 869.6 652.056Z"/>
	<defs>
		<linearGradient id="gradient_0" gradientUnits="userSpaceOnUse" x1="524.83557" y1="683.88672" x2="480.34033" y2="103.66562">
			<stop offset="0" stop-color="#8283CA"/>
			<stop offset="1" stop-color="#72D7FC"/>
		</linearGradient>
	</defs>
	<path fill="url(#gradient_0)" transform="scale(0.488281 0.488281)" d="M130.707 662.561C124.543 647.957 120.203 632.553 116.231 617.234C95.8237 538.53 99.0057 454.838 126.005 378.088C161.888 276.086 239.765 188.468 337.51 141.82C434.735 95.4195 546.36 89.2474 647.943 125.379C750.687 161.924 834.309 238.714 880.847 337.154C919.554 419.032 932.024 515.533 911.988 604.25C907.971 622.035 902.298 639.484 896.186 656.645C887.476 656.282 878 654.449 869.6 652.056L876.02 634.388L880.164 622.129C908.631 524.445 896.116 418.496 847.137 329.471L847.149 329.321C841.88 317.865 834.167 307.176 827.017 296.832C807.001 267.876 784.246 240.944 757.263 218.164L729.698 196.878C650.967 141.318 550.895 117.165 455.605 133.488C428.086 138.203 400.327 145.142 374.286 155.25C337.209 169.643 302.09 190.611 271.265 215.639C258.328 226.143 245.011 237.713 234.24 250.477C222.501 263.432 211.049 276.901 200.925 291.157C163.355 344.064 138.936 406.158 132.003 470.75C129.573 493.398 129.575 516.511 130.646 539.247C131.698 561.553 135.884 584.181 141.051 605.875L145.428 622.345L159.399 661.6C156.785 662.739 153.001 662.417 150.134 662.465L130.707 662.561Z"/>
	<defs>
		<linearGradient id="gradient_1" gradientUnits="userSpaceOnUse" x1="856.28424" y1="646.09485" x2="729.08429" y2="197.19276">
			<stop offset="0" stop-color="#4552A5"/>
			<stop offset="1" stop-color="#4C96D3"/>
		</linearGradient>
	</defs>
	<path fill="url(#gradient_1)" transform="scale(0.488281 0.488281)" d="M662.671 284.15C667.676 278.685 672.112 272.024 676.601 266.089L706.943 226.053C710.441 221.327 725.679 198.628 729.698 196.878L757.263 218.164C784.246 240.944 807.001 267.876 827.017 296.832C834.167 307.176 841.88 317.865 847.149 329.321L847.137 329.471C896.116 418.496 908.631 524.445 880.164 622.129L876.02 634.388L875.767 634.052C874.595 635.067 873.506 639.444 873.094 641.094L873 641.5C871.645 641.659 870.1 640.594 868.837 640.078C863.241 637.794 857.615 634.731 852.248 631.913C850.477 630.983 848.454 630.251 846.75 629.255C843.817 627.541 840.614 625.31 837.497 624.003C832.542 621.923 828.14 618.606 823.256 616.407L799.5 604.255C795.359 602.416 789.382 600.452 786.101 597.367C787.668 592.736 788.348 587.582 789.214 582.774C792.236 565.996 793.824 548.796 793.879 531.75C794.056 476.998 778.948 420.276 749.45 374C736.048 352.976 720.044 334.371 702.514 316.739C690.327 304.365 676.805 294.133 662.671 284.15Z"/>
	<path fill="#7C9CE6" transform="scale(0.488281 0.488281)" d="M842.537 541.092C844.348 540.969 846.784 540.77 848.532 541.284C851.267 542.089 853.307 544.343 854.606 546.788C855.972 549.358 856.214 552.527 855.172 555.259C853.959 558.441 851.445 560.016 848.491 561.397C846.804 561.526 843.669 561.807 842.037 561.338C839.52 560.615 837.202 558.063 836.107 555.763C834.825 553.073 834.824 549.811 835.921 547.053C837.206 543.821 839.473 542.413 842.537 541.092Z"/>
	<path fill="#F8F9F8" transform="scale(0.488281 0.488281)" d="M791.869 304.062C794.727 303.908 797.337 304.016 800.065 305.017C804.051 306.479 806.878 309.858 808.392 313.75C809.968 317.798 809.85 322.589 807.951 326.5C805.775 330.982 801.834 332.955 797.334 334.433C794.079 334.979 790.788 335.089 787.756 333.569C783.97 331.671 780.792 328.093 779.659 323.977C778.521 319.843 779.332 314.97 781.516 311.36C784.063 307.149 787.293 305.312 791.869 304.062Z"/>
	<path fill="#373C8F" transform="scale(0.488281 0.488281)" d="M296.218 682.025C327.72 721.254 366.043 756.38 412.004 777.854C436.114 788.61 462.497 797.441 488.865 800.124L516.75 802.559C520.33 802.944 524.052 802.372 527.627 802.879C531.187 803.383 534.953 802.836 538.509 802.722C552.995 802.26 568.025 801.694 582.25 798.584C600 794.704 618.385 790.77 635.029 783.29C671.081 766.482 700.713 743.143 726.952 713.362C730.984 717.05 736.229 720.009 740.788 723.017L776.158 745.333C785.024 750.883 793.985 757.807 803.399 762.282L784.472 783.228C768.614 799.266 750.851 813.877 732.427 826.841C727.964 829.981 722.583 834.541 717.626 836.647C707.551 843.336 696.516 849.035 685.69 854.399C659.549 867.353 633.004 877.337 604.66 884.381C544.953 899.219 480.422 899.443 420.654 884.803C393.435 878.136 366.912 868.056 341.734 855.785C329.473 849.809 317.673 842.685 305.993 835.661C262.33 808.802 225.479 770.932 196.213 729.141C198.856 727.193 202.029 725.992 205 724.634L218.093 718.466L259.417 699.068C271.729 693.537 284.298 688.392 296.218 682.025Z"/>
	<path fill="#A4E7FE" transform="scale(0.488281 0.488281)" d="M614.745 831.25C615.85 831.122 616.922 831.19 618 831.501C619.768 832.012 621.403 833.553 622.176 835.2C623.172 837.323 623.152 839.902 622.243 842.053C621.272 844.351 619.455 845.433 617.25 846.348C616.083 846.46 614.774 846.538 613.652 846.148C611.645 845.451 609.684 843.441 608.939 841.462C608.142 839.341 608.402 836.795 609.497 834.834C610.726 832.634 612.416 831.91 614.745 831.25Z"/>
	<path fill="#A4E7FE" transform="scale(0.488281 0.488281)" d="M283.322 747.105C285.319 747.137 287.304 747.323 289.177 748.068C292.079 749.222 294.318 751.76 295.44 754.634C296.612 757.635 296.27 761.282 294.781 764.125C292.978 767.567 289.786 769.088 286.279 770.213C283.694 770.224 281.296 770.139 278.99 768.83C276.511 767.422 274.166 764.756 273.49 761.951C272.749 758.878 273.112 755.144 274.82 752.432C276.868 749.182 279.694 747.869 283.322 747.105Z"/>
	<defs>
		<linearGradient id="gradient_2" gradientUnits="userSpaceOnUse" x1="432.38168" y1="620.08203" x2="427.37253" y2="129.32297">
			<stop offset="0" stop-color="#464CA1"/>
			<stop offset="1" stop-color="#49B3E9"/>
		</linearGradient>
	</defs>
	<path fill="url(#gradient_2)" transform="scale(0.488281 0.488281)" d="M234.24 250.477C245.011 237.713 258.328 226.143 271.265 215.639C302.09 190.611 337.209 169.643 374.286 155.25C400.327 145.142 428.086 138.203 455.605 133.488C550.895 117.165 650.967 141.318 729.698 196.878C725.679 198.628 710.441 221.327 706.943 226.053L676.601 266.089C672.112 272.024 667.676 278.685 662.671 284.15C604.273 244.248 528.345 226.869 458.624 240.043C433.979 244.7 409.528 252.881 387.087 264.083C374.407 270.412 362.5 277.765 350.614 285.45C338.029 295.32 325.402 305.437 314.122 316.813C271.117 360.189 244.071 417.403 236.681 477.892C233.004 507.981 235.29 538.601 242.035 568.103C236.589 569.397 230.414 574.556 225.528 577.399L175 607.212L174.296 607.572C173.641 607.914 173.166 608.23 172.577 608.655C170.706 610.003 172.718 608.665 170.998 609.497L170 610.222L165.781 612.721C164.085 613.832 162.095 614.679 160.483 615.887C159.808 616.393 160.205 616.153 159.391 616.479C158.278 616.924 156.026 618.339 155.25 619.245L154.5 619.25L152.748 620.375L152.125 620.125C151.418 620.832 151.56 620.999 150.502 621.003L147.5 623L146.625 623.375C146.251 623.034 145.863 622.602 145.428 622.345L141.051 605.875C135.884 584.181 131.698 561.553 130.646 539.247C129.575 516.511 129.573 493.398 132.003 470.75C138.936 406.158 163.355 344.064 200.925 291.157C211.049 276.901 222.501 263.432 234.24 250.477Z"/>
	<path fill="#F8F9F8" transform="scale(0.488281 0.488281)" d="M439.834 152.75C440.57 152.662 440.685 152.614 441.501 152.691C443.091 152.839 444.848 154.122 445.612 155.494C446.404 156.918 446.477 158.488 445.895 160C445.348 161.421 443.948 162.103 442.685 162.75C441.691 162.926 440.806 163.104 439.791 162.926C437.808 162.577 436.983 161.335 436.033 159.75C435.921 158.426 435.8 157.24 436.336 155.987C437.055 154.306 438.203 153.432 439.834 152.75Z"/>
	<path fill="#F8F9F8" transform="scale(0.488281 0.488281)" d="M636.658 189.75C637.893 189.436 639.233 189.341 640.5 189.572C641.937 189.835 643.44 191.185 644.25 192.346C645.294 193.842 645.709 195.812 645.252 197.588C644.645 199.947 643.243 201.3 641.25 202.56C640.074 203.055 638.743 203.248 637.468 203.01C635.889 202.715 634.424 201.485 633.529 200.196C632.37 198.531 632.024 195.854 632.638 193.906C633.344 191.669 634.689 190.847 636.658 189.75Z"/>
	<path fill="#F8F9F8" transform="scale(0.488281 0.488281)" d="M221.552 332.974C222.827 332.947 224.211 332.88 225.449 333.228C227.182 333.715 228.673 335.046 229.554 336.598C230.615 338.469 230.628 340.515 229.948 342.5C229.01 345.238 226.925 346.518 224.485 347.799C223.171 347.894 221.774 347.835 220.5 347.463C218.777 346.959 217.138 345.336 216.36 343.756C215.473 341.953 215.297 339.986 216.052 338.113C217.137 335.417 219.014 334.163 221.552 332.974Z"/>
	<path fill="#F8F9F8" transform="scale(0.488281 0.488281)" d="M360.528 221.596C362.346 221.371 364.298 221.225 366.113 221.532C369.118 222.04 371.943 224.123 373.612 226.628C375.443 229.377 376.202 233.46 375.332 236.67C374.288 240.522 370.679 242.742 367.378 244.424C365.492 244.599 363.049 244.743 361.197 244.239C358.544 243.517 355.793 241.366 354.414 239C352.525 235.761 352.391 232.27 353.497 228.75C354.623 225.168 357.364 223.242 360.528 221.596Z"/>
	<path fill="#F8F9F8" transform="scale(0.488281 0.488281)" d="M183.173 491.077C185.702 490.784 188.328 490.679 190.75 491.598C194.418 492.989 197.214 496.062 198.674 499.641C200.002 502.898 200.084 507.402 198.677 510.651C196.859 514.849 193.251 517.096 189.152 518.673C186.074 519.155 183.475 519.073 180.623 517.793C176.927 516.133 174.358 512.863 173.092 509.095C171.952 505.702 172.27 501.491 173.902 498.324C175.932 494.382 179.104 492.492 183.173 491.077Z"/>
	<path fill="#0E2884" transform="scale(0.488281 0.488281)" d="M350.614 285.45C362.5 277.765 374.407 270.412 387.087 264.083C409.528 252.881 433.979 244.7 458.624 240.043C528.345 226.869 604.273 244.248 662.671 284.15C676.805 294.133 690.327 304.365 702.514 316.739C720.044 334.371 736.048 352.976 749.45 374C778.948 420.276 794.056 476.998 793.879 531.75C793.824 548.796 792.236 565.996 789.214 582.774C788.348 587.582 787.668 592.736 786.101 597.367C789.382 600.452 795.359 602.416 799.5 604.255L823.256 616.407C828.14 618.606 832.542 621.923 837.497 624.003C840.614 625.31 843.817 627.541 846.75 629.255C848.454 630.251 850.477 630.983 852.248 631.913C857.615 634.731 863.241 637.794 868.837 640.078C870.1 640.594 871.645 641.659 873 641.5L873.094 641.094C873.506 639.444 874.595 635.067 875.767 634.052L876.02 634.388L869.6 652.056C855.526 687.015 837.682 718.78 814.645 748.639L806.982 758.25C805.98 759.434 804.632 761.395 803.399 762.282C793.985 757.807 785.024 750.883 776.158 745.333L740.788 723.017C736.229 720.009 730.984 717.05 726.952 713.362C700.713 743.143 671.081 766.482 635.029 783.29C618.385 790.77 600 794.704 582.25 798.584C568.025 801.694 552.995 802.26 538.509 802.722C534.953 802.836 531.187 803.383 527.627 802.879C524.052 802.372 520.33 802.944 516.75 802.559L488.865 800.124C462.497 797.441 436.114 788.61 412.004 777.854C366.043 756.38 327.72 721.254 296.218 682.025C284.298 688.392 271.729 693.537 259.417 699.068L218.093 718.466L205 724.634C202.029 725.992 198.856 727.193 196.213 729.141C181.279 708.233 169.954 684.923 159.399 661.6L145.428 622.345C145.863 622.602 146.251 623.034 146.625 623.375L147.5 623L150.502 621.003C151.56 620.999 151.418 620.832 152.125 620.125L152.748 620.375L154.5 619.25L155.25 619.245C156.026 618.339 158.278 616.924 159.391 616.479C160.205 616.153 159.808 616.393 160.483 615.887C162.095 614.679 164.085 613.832 165.781 612.721L170 610.222L170.998 609.497C172.718 608.665 170.706 610.003 172.577 608.655C173.166 608.23 173.641 607.914 174.296 607.572L175 607.212L225.528 577.399C230.414 574.556 236.589 569.397 242.035 568.103C235.29 538.601 233.004 507.981 236.681 477.892C244.071 417.403 271.117 360.189 314.122 316.813C325.402 305.437 338.029 295.32 350.614 285.45Z"/>
	<path fill="#424FA1" transform="scale(0.488281 0.488281)" d="M786.101 597.367C789.382 600.452 795.359 602.416 799.5 604.255L823.256 616.407C828.14 618.606 832.542 621.923 837.497 624.003C840.614 625.31 843.817 627.541 846.75 629.255C848.454 630.251 850.477 630.983 852.248 631.913C857.615 634.731 863.241 637.794 868.837 640.078C870.1 640.594 871.645 641.659 873 641.5L873.094 641.094C873.506 639.444 874.595 635.067 875.767 634.052L876.02 634.388L869.6 652.056C855.526 687.015 837.682 718.78 814.645 748.639L806.982 758.25C805.98 759.434 804.632 761.395 803.399 762.282C793.985 757.807 785.024 750.883 776.158 745.333L740.788 723.017C736.229 720.009 730.984 717.05 726.952 713.362C732.015 708.136 736.477 701.816 740.766 695.934C762.16 666.591 778.038 632.844 786.101 597.367Z"/>
	<path fill="#F8F9F8" transform="scale(0.488281 0.488281)" d="M771.618 693.076C774.438 692.741 777.244 692.743 779.94 693.736C783.544 695.063 786.356 698.068 787.85 701.565C789.495 705.417 789.398 709.498 787.677 713.306C785.792 717.476 782.723 719.486 778.607 721.1C775.849 721.425 773.347 721.657 770.673 720.654C766.88 719.232 763.719 716.599 762.117 712.832C760.436 708.879 760.674 704.498 762.443 700.61C764.298 696.534 767.683 694.644 771.618 693.076Z"/>
	<path fill="#424FA1" transform="scale(0.488281 0.488281)" d="M145.428 622.345C145.863 622.602 146.251 623.034 146.625 623.375L147.5 623L150.502 621.003C151.56 620.999 151.418 620.832 152.125 620.125L152.748 620.375L154.5 619.25L155.25 619.245C156.026 618.339 158.278 616.924 159.391 616.479C160.205 616.153 159.808 616.393 160.483 615.887C162.095 614.679 164.085 613.832 165.781 612.721L170 610.222L170.998 609.497C172.718 608.665 170.706 610.003 172.577 608.655C173.166 608.23 173.641 607.914 174.296 607.572L175 607.212L225.528 577.399C230.414 574.556 236.589 569.397 242.035 568.103C247.829 591.177 255.329 614.002 266.383 635.135C275.049 651.703 285.495 666.781 296.218 682.025C284.298 688.392 271.729 693.537 259.417 699.068L218.093 718.466L205 724.634C202.029 725.992 198.856 727.193 196.213 729.141C181.279 708.233 169.954 684.923 159.399 661.6L145.428 622.345Z"/>
	<path fill="#7C9CE6" transform="scale(0.488281 0.488281)" d="M194.949 656.565C196.716 656.477 198.78 656.219 200.515 656.592C202.897 657.103 204.889 658.568 206.119 660.687C207.318 662.753 207.41 665.941 206.722 668.196C205.821 671.149 203.748 672.813 201.139 674.258C199.652 674.593 197.75 674.629 196.25 674.394C194.008 674.043 191.739 671.812 190.625 669.946C189.305 667.736 188.985 664.88 189.719 662.397C190.573 659.513 192.496 658.065 194.949 656.565Z"/>
	<path fill="#F7872A" transform="scale(0.488281 0.488281)" d="M565.335 249.041C580.456 252.526 595.49 256.784 609.869 262.677C661.57 283.87 705.728 321.621 735.282 368.855C772.259 427.954 782.979 501.845 767.335 569.483C750.901 640.536 707.687 702.101 645.611 740.663C625.529 753.138 603.231 763.318 580.424 769.557C535.549 781.834 488.157 779.923 443.186 769.219C405.64 760.283 371.974 743.703 342.241 719.101C337.126 714.868 331.797 710.554 327.086 705.878L329.5 705.227C353.046 714.853 376.098 723.78 401.242 728.537C409.674 730.133 418.02 730.895 426.576 731.248C427.753 731.296 432.882 731.149 433.363 731.516C433.744 731.807 434.573 733.671 434.872 734.181C435.975 736.06 437.24 737.842 438.536 739.591C443.352 746.093 451.092 751.65 458.035 755.677C472.656 764.157 492.101 766.867 508.409 762.497C522.715 758.663 535.513 751.313 546.11 740.979C548.671 738.481 550.995 734.312 554.003 732.546C558.693 729.792 565.362 728.271 570.5 726.284C584.932 720.705 599.361 713.885 612.706 706.033C614.561 704.942 617.346 703.732 618.913 702.328C619.43 701.866 619.496 701.673 619.8 701.142C619.215 698.619 618.893 696.411 619.287 693.83L619.426 693C619.789 690.733 620.371 688.781 621.48 686.75C623.669 682.741 628.337 679.524 632.664 678.357C636.961 677.199 641.17 678.313 644.906 680.502C658.163 669.574 668.322 656.125 678.017 642.088L683.505 633.758C684.256 632.519 685.049 630.595 685.972 629.536C686.87 628.505 691.27 627.08 692.728 626.296C696.282 624.387 699.697 622.259 702.942 619.863C709.064 615.342 714.142 609.714 718.061 603.193C724.597 592.32 727.742 579.808 727.649 567.164C727.623 563.584 727.61 559.928 726.749 556.438C724.233 548.531 722.471 540.636 718.043 533.475C711.562 522.993 699.1 512.023 686.84 509.269L686.126 509.113C691.664 481.799 693.181 453.325 689.4 425.696L689.148 425.129C686.008 423.559 683.154 420.455 680.817 417.864C672.533 408.845 665.607 398.336 663.027 386.182L662.835 385.25C661.742 380.148 661.888 375.196 662.155 370.014C663.556 362.88 665.451 356.905 670.995 351.896L671.079 351.499C671.194 350.453 670.969 349.99 670.434 349.104C665.976 341.731 661.782 334.171 656.908 327.062C641.437 304.496 623.052 286.677 600.837 270.817C590.626 263.526 579.218 256.103 567.635 251.224C566.419 250.711 566.126 250.056 565.335 249.041Z"/>
	<path fill="#E66D23" transform="scale(0.488281 0.488281)" d="M619.8 701.142C619.215 698.619 618.893 696.411 619.287 693.83L619.426 693C619.789 690.733 620.371 688.781 621.48 686.75C623.669 682.741 628.337 679.524 632.664 678.357C636.961 677.199 641.17 678.313 644.906 680.502C648.127 683.117 650.459 686.792 650.954 690.988C651.507 695.691 649.909 700.982 646.809 704.562C644.053 707.744 640.233 710.201 635.934 710.486C631.516 710.779 626.579 709.816 623.25 706.696C621.496 705.053 620.567 703.378 619.8 701.142Z"/>
	<path fill="#F7872A" transform="scale(0.488281 0.488281)" d="M633.831 683.128C635.328 683.278 636.889 683.303 637.931 684.563C638.901 685.738 638.855 686.313 638.872 687.75C636.065 692.931 630.436 698.34 625.744 701.9C625.234 702.197 624.313 702.461 623.75 702.672C622.622 702.117 622.596 701.978 622.204 700.75C621.233 697.704 621.202 691.428 623.102 688.75C625.648 685.164 629.737 683.942 633.831 683.128Z"/>
	<path fill="#E66D23" transform="scale(0.488281 0.488281)" d="M734.316 490.587C736.953 490.485 739.077 490.41 741.608 491.326L742.253 491.554C746.112 492.974 749.323 495.682 750.97 499.5C753.039 504.295 753.171 509.075 751.25 513.94C749.514 518.339 746.156 521.518 741.822 523.307C738.439 524.704 735.271 524.737 731.763 523.847L730.339 523.199C725.953 521.058 723.39 517.849 721.995 513.174C720.658 508.693 721.251 502.481 723.577 498.445C725.935 494.352 729.871 491.863 734.316 490.587Z"/>
	<path fill="#F7872A" transform="scale(0.488281 0.488281)" d="M734.17 497.084L736 497.017C737.698 497.082 738.232 496.996 739.388 498.25C738.838 502.806 735.974 511.048 733.25 514.728C732.032 516.374 731.655 516.349 729.75 516.562C727.536 515.78 725.812 513.665 724.829 511.574C723.836 509.46 723.881 507.033 724.722 504.881C726.408 500.57 730.159 498.714 734.17 497.084Z"/>
	<path fill="#FA9A29" transform="scale(0.488281 0.488281)" d="M671.079 351.499C672.258 350.403 673.434 349.602 674.849 348.83C679.723 346.173 685.4 346.676 690.531 348.183C692.778 347.189 694.721 347.99 696.989 348.844C708.571 353.211 716.264 362.841 721.023 373.94C726.985 387.843 728.617 402.155 730.471 417C732.469 432.993 734.014 449.003 734.273 465.127L734.249 483.956C734.236 485.776 733.821 488.913 734.316 490.587C729.871 491.863 725.935 494.352 723.577 498.445C721.251 502.481 720.658 508.693 721.995 513.174C723.39 517.849 725.953 521.058 730.339 523.199L731.763 523.847L726.749 556.438C724.233 548.531 722.471 540.636 718.043 533.475C711.562 522.993 699.1 512.023 686.84 509.269L686.126 509.113C691.664 481.799 693.181 453.325 689.4 425.696L689.148 425.129C686.008 423.559 683.154 420.455 680.817 417.864C672.533 408.845 665.607 398.336 663.027 386.182L662.835 385.25C661.742 380.148 661.888 375.196 662.155 370.014C663.556 362.88 665.451 356.905 670.995 351.896L671.079 351.499Z"/>
	<path fill="#E66D23" transform="scale(0.488281 0.488281)" d="M671.079 351.499C672.258 350.403 673.434 349.602 674.849 348.83C679.723 346.173 685.4 346.676 690.531 348.183C705.999 356.172 715.78 367.656 721.083 384.25C722.345 388.199 723.006 392.125 723.668 396.207C725.145 405.306 724.765 419.247 719.287 427.075C717.446 429.706 714.892 431.566 711.635 431.934C708.352 432.304 704.931 432.015 701.75 431.178L700.958 430.976C696.798 429.884 693.089 427.847 689.4 425.696L689.148 425.129C686.008 423.559 683.154 420.455 680.817 417.864C672.533 408.845 665.607 398.336 663.027 386.182L662.835 385.25C661.742 380.148 661.888 375.196 662.155 370.014C663.556 362.88 665.451 356.905 670.995 351.896L671.079 351.499Z"/>
	<path fill="#F7872A" transform="scale(0.488281 0.488281)" d="M671.016 352.957C673.862 358.92 675.74 365.65 677.553 372C682.576 389.595 685.639 407.225 689.148 425.129C686.008 423.559 683.154 420.455 680.817 417.864C680.989 416.327 679.894 414.871 679.206 413.549C677.61 410.48 675.893 407.436 674.498 404.268C669.549 393.031 665.532 379.124 667.106 366.767C667.712 362.015 669.26 357.394 671.016 352.957Z"/>
	<path fill="#FDB52D" transform="scale(0.488281 0.488281)" d="M503.411 242C515.774 241.455 528.491 242.26 540.744 243.963C541.904 244.125 544.95 244.198 545.866 244.751L565.335 249.041C566.126 250.056 566.419 250.711 567.635 251.224C579.218 256.103 590.626 263.526 600.837 270.817C623.052 286.677 641.437 304.496 656.908 327.062C661.782 334.171 665.976 341.731 670.434 349.104C670.969 349.99 671.194 350.453 671.079 351.499L670.995 351.896C665.451 356.905 663.556 362.88 662.155 370.014C661.888 375.196 661.742 380.148 662.835 385.25L663.027 386.182C665.607 398.336 672.533 408.845 680.817 417.864C683.154 420.455 686.008 423.559 689.148 425.129L689.4 425.696C693.181 453.325 691.664 481.799 686.126 509.113L686.84 509.269C699.1 512.023 711.562 522.993 718.043 533.475C722.471 540.636 724.233 548.531 726.749 556.438C727.61 559.928 727.623 563.584 727.649 567.164C727.742 579.808 724.597 592.32 718.061 603.193C714.142 609.714 709.064 615.342 702.942 619.863C699.697 622.259 696.282 624.387 692.728 626.296C691.27 627.08 686.87 628.505 685.972 629.536C685.049 630.595 684.256 632.519 683.505 633.758L678.017 642.088C668.322 656.125 658.163 669.574 644.906 680.502C641.17 678.313 636.961 677.199 632.664 678.357C628.337 679.524 623.669 682.741 621.48 686.75C620.371 688.781 619.789 690.733 619.426 693L619.287 693.83C618.893 696.411 619.215 698.619 619.8 701.142C619.496 701.673 619.43 701.866 618.913 702.328C617.346 703.732 614.561 704.942 612.706 706.033C599.361 713.885 584.932 720.705 570.5 726.284C565.362 728.271 558.693 729.792 554.003 732.546C550.995 734.312 548.671 738.481 546.11 740.979C535.513 751.313 522.715 758.663 508.409 762.497C492.101 766.867 472.656 764.157 458.035 755.677C451.092 751.65 443.352 746.093 438.536 739.591C437.24 737.842 435.975 736.06 434.872 734.181C434.573 733.671 433.744 731.807 433.363 731.516C432.882 731.149 427.753 731.296 426.576 731.248C418.02 730.895 409.674 730.133 401.242 728.537C376.098 723.78 353.046 714.853 329.5 705.227L327.086 705.878C306.697 686.985 289.359 663.189 275.794 639.008C282.302 642.13 289.958 644.054 296.867 646.179C339.553 659.308 384.148 660.957 427.891 652.387C438.374 650.333 448.378 646.968 458.398 643.334C493.123 630.743 524.532 612.304 551.666 587.111C562.425 577.121 572.53 566.322 580.689 554.061C581.776 552.427 583.788 550.15 583.396 548.221C594.898 544.523 604.124 539.456 611.575 529.597C620.224 518.152 625.269 502.928 623.19 488.567C622.197 481.711 621.062 474.796 617.205 468.868L615.98 467.179L616.384 466.583C617.551 460.476 618.054 454.184 618.686 448C622.252 413.091 618.072 378.437 604.183 346.058C598.819 333.553 592.653 321.412 584.978 310.147C570.138 288.365 550.277 269.773 528.124 255.629C520.216 250.58 512.146 245.498 503.411 242Z"/>
	<path fill="#FBAE35" transform="scale(0.488281 0.488281)" d="M545.866 244.751L565.335 249.041C566.126 250.056 566.419 250.711 567.635 251.224C579.218 256.103 590.626 263.526 600.837 270.817C623.052 286.677 641.437 304.496 656.908 327.062C661.782 334.171 665.976 341.731 670.434 349.104C670.969 349.99 671.194 350.453 671.079 351.499L670.995 351.896C665.451 356.905 663.556 362.88 662.155 370.014C659.88 366.892 658.361 363.125 656.638 359.667L647.231 342.045C631.978 316.463 612.776 295.202 590.342 275.75C580.641 267.338 569.594 260.187 558.865 253.158L552.062 248.881C549.896 247.666 548.059 247.015 546.253 245.163L545.866 244.751Z"/>
	<path fill="#E66D23" transform="scale(0.488281 0.488281)" d="M619.692 591.649C616.906 582.583 615.886 573.061 617.192 563.624C619.321 548.242 625.691 533.6 638.376 524.026C646.877 517.611 656.134 514.356 666.571 512.82C671.576 512.083 676.613 512.564 681.549 513.493C693.595 515.76 705.674 524.448 712.528 534.5C717.624 541.975 720.26 550.636 721.679 559.482C722.73 566.033 722.478 573.023 721.174 579.514C718.192 594.356 709.906 608.544 697.291 617.229C686.4 624.728 673.384 628.33 660.187 625.987C646.77 623.605 635.132 616.588 627.09 605.5L625.945 603.992C623.13 600.55 620.953 595.907 619.692 591.649Z"/>
	<path fill="#F7872A" transform="scale(0.488281 0.488281)" d="M619.692 591.649L619.759 591.145C620.289 586.829 619.753 582.448 620.327 578.154C622.929 558.68 631.454 541.279 647.057 529.052C653.701 523.846 660.02 521.509 667.976 519.219C663.848 530.683 658.833 541.569 653.652 552.584C645.328 570.279 636.257 587.369 625.945 603.992C623.13 600.55 620.953 595.907 619.692 591.649Z"/>
	<path fill="#E66D23" transform="scale(0.488281 0.488281)" d="M436.683 681.887C438.963 675.362 442.738 669.107 447.16 663.796C459.363 649.139 475.232 641.306 494.141 639.711C511.1 638.281 528.228 643.963 541.122 654.999C553.78 665.832 561.605 678.658 562.803 695.516C563.693 708.027 560.021 721.659 551.587 731.151C537.529 746.971 515.497 756.591 494.473 757.421C478.214 758.063 462.023 751.805 449.588 741.569C440.74 734.287 433.216 722.246 431.964 710.75L431.754 707.916C431.939 699.921 432.559 689.003 436.683 681.887Z"/>
	<path fill="#F7872A" transform="scale(0.488281 0.488281)" d="M436.683 681.887L437.023 681.517C437.917 680.518 438.548 679.644 439.153 678.448C441.401 674.008 445.902 670.234 449.842 667.311C457.559 661.585 465.363 657.075 474.569 654.124C485.924 650.483 497.601 649.403 509.358 651.579C522.661 654.041 534.024 661.318 544.227 669.872C541.429 672.71 537.024 675.16 533.747 677.513C508.102 695.922 475.215 707.881 443.476 708.1L431.754 707.916C431.939 699.921 432.559 689.003 436.683 681.887Z"/>
	<defs>
		<linearGradient id="gradient_3" gradientUnits="userSpaceOnUse" x1="503.2204" y1="622.28674" x2="342.15775" y2="293.11057">
			<stop offset="0" stop-color="#F8D19E"/>
			<stop offset="1" stop-color="white"/>
		</linearGradient>
	</defs>
	<path fill="url(#gradient_3)" transform="scale(0.488281 0.488281)" d="M275.794 639.008C251.574 597.25 239.429 548.225 240.543 500.063C242.188 428.958 275.11 361.482 326.103 312.725C337.565 301.766 350.466 292.461 363.857 284.021C404.756 258.243 454.615 240.852 503.411 242C512.146 245.498 520.216 250.58 528.124 255.629C550.277 269.773 570.138 288.365 584.978 310.147C592.653 321.412 598.819 333.553 604.183 346.058C618.072 378.437 622.252 413.091 618.686 448C618.054 454.184 617.551 460.476 616.384 466.583L615.98 467.179L617.205 468.868C621.062 474.796 622.197 481.711 623.19 488.567C625.269 502.928 620.224 518.152 611.575 529.597C604.124 539.456 594.898 544.523 583.396 548.221C583.788 550.15 581.776 552.427 580.689 554.061C572.53 566.322 562.425 577.121 551.666 587.111C524.532 612.304 493.123 630.743 458.398 643.334C448.378 646.968 438.374 650.333 427.891 652.387C384.148 660.957 339.553 659.308 296.867 646.179C289.958 644.054 282.302 642.13 275.794 639.008Z"/>
	<path fill="#E66D23" transform="scale(0.488281 0.488281)" d="M283.241 501.287C283.594 504.661 283.481 507.239 281.25 510.005C279.797 511.806 277.708 512.811 275.413 512.981C273.145 513.149 270.914 512.303 268.984 511.187C269.709 510.674 269.437 510.764 270.188 510.561C276.099 508.965 279.942 506.456 283.241 501.287Z"/>
	<path fill="#E66D23" transform="scale(0.488281 0.488281)" d="M474.665 272.106C475.583 274.367 476.163 277.481 475.078 279.786C474.105 281.854 471.672 283.785 469.5 284.438C467.683 284.984 466.167 284.997 464.5 284.03L462.604 282.687L464.5 281.995C469.871 280.076 472.104 276.962 474.665 272.106Z"/>
	<path fill="#E66D23" transform="scale(0.488281 0.488281)" d="M421.724 291.908C422.356 294.74 423.016 297.323 421.25 299.937C419.893 301.945 418.316 303.374 415.891 303.81C413.708 304.202 411.942 303.551 409.937 302.764C411.536 300.9 414.171 300.071 416.073 298.482C418.169 296.731 419.891 293.974 421.724 291.908Z"/>
	<path fill="#FDB52D" transform="scale(0.488281 0.488281)" d="M462.604 282.687C460.864 280.678 459.876 278.466 459.994 275.75C460.089 273.562 461.144 271.572 462.779 270.142C464.481 268.654 466.528 268.242 468.737 268.401C471.478 268.597 472.913 270.167 474.665 272.106C472.104 276.962 469.871 280.076 464.5 281.995L462.604 282.687Z"/>
	<path fill="#FBAE35" transform="scale(0.488281 0.488281)" d="M409.937 302.764L408.001 300.75C406.645 298.89 406.143 296.498 406.419 294.246C406.739 291.626 408.043 289.721 410.174 288.181C411.85 286.968 414.552 286.6 416.542 287.121C419.014 287.768 420.461 289.868 421.724 291.908C419.891 293.974 418.169 296.731 416.073 298.482C414.171 300.071 411.536 300.9 409.937 302.764Z"/>
	<path fill="#FA9A29" transform="scale(0.488281 0.488281)" d="M503.76 389.25C504.761 389.073 505.611 389.094 506.609 389.248C508.87 389.595 510.907 390.896 512.177 392.82C513.794 395.269 514.132 398.023 513.395 400.823C512.608 403.815 510.438 405.073 507.88 406.486C506.556 406.667 505.037 406.739 503.75 406.286C501.171 405.38 499.372 403.021 498.454 400.538C497.57 398.151 497.937 395.768 498.958 393.505C499.981 391.236 501.461 390.055 503.76 389.25Z"/>
	<path fill="#FBAE35" transform="scale(0.488281 0.488281)" d="M268.984 511.187C267.617 510.137 266.711 508.883 265.992 507.322C264.927 505.01 264.495 502.075 265.472 499.649C266.381 497.394 268.454 495.306 270.692 494.37C273.072 493.374 275.132 493.354 277.5 494.398C280.8 495.853 281.971 498.056 283.241 501.287C279.942 506.456 276.099 508.965 270.188 510.561C269.437 510.764 269.709 510.674 268.984 511.187Z"/>
	<path fill="#E66D23" transform="scale(0.488281 0.488281)" d="M393.883 632.773C392.383 632.368 390.933 631.89 389.609 631.053C386.421 629.038 384.415 625.683 383.638 622.046C382.885 618.525 383.319 613.823 385.429 610.838C387.466 607.957 390.473 606.247 393.918 605.696C398.526 604.957 402.41 607.049 405.959 609.713C400.359 610.108 397.158 611.457 393.462 615.816C391.361 618.294 390.122 622.03 390.39 625.273C390.601 627.811 391.727 629.465 393.319 631.366C393.714 631.838 394.213 632.151 393.883 632.773Z"/>
	<path fill="#FDB52D" transform="scale(0.488281 0.488281)" d="M405.959 609.713C408.442 612.432 409.983 616.543 409.863 620.25C409.748 623.842 407.804 627.383 405.056 629.637C402.231 631.955 398.304 633.787 394.555 633.028L393.883 632.773C394.213 632.151 393.714 631.838 393.319 631.366C391.727 629.465 390.601 627.811 390.39 625.273C390.122 622.03 391.361 618.294 393.462 615.816C397.158 611.457 400.359 610.108 405.959 609.713Z"/>
	<path fill="#E66D23" transform="scale(0.488281 0.488281)" d="M430.253 562.584C428.351 558.759 427.075 554.551 427.052 550.25C427.008 541.753 430.276 534.008 436.515 528.257C442.164 523.05 449.38 520.66 456.996 521.04C463.871 521.383 469.911 524.723 474.443 529.739L473.662 529.609C472.854 529.469 472.153 529.234 471.381 528.971C464.209 526.527 455.344 527.831 448.693 531.118C443.748 533.562 439.234 537.66 436.25 542.284L435.819 542.942C431.62 549.489 431.813 555.442 430.253 562.584Z"/>
	<path fill="#F7872A" transform="scale(0.488281 0.488281)" d="M498.243 343.156C496.535 340.326 495.387 337.252 494.675 334.026C492.8 325.528 494.138 316.724 499.036 309.406C503.142 303.27 510.405 297.93 517.75 296.651C526.746 295.083 534.756 297.029 542.149 302.256L541.157 302.378C537.795 302.768 534.355 302.383 530.977 302.672C520.887 303.535 512.362 308.432 505.995 316.229C500.981 322.37 498.311 329.26 498.528 337.219C498.58 339.125 498.968 341.386 498.243 343.156Z"/>
	<path fill="#E66D23" transform="scale(0.488281 0.488281)" d="M283.227 586.023C280.729 579.996 280.317 571.539 282.196 565.28L282.441 564.5L283.788 560.667C287.408 551.952 294.353 544.945 303.111 541.324C311.393 537.899 321.393 537.922 329.593 541.516C338.176 545.277 344.222 551.113 347.74 559.866L346.995 560.114C338.474 552.405 329.307 547.75 317.518 548.509C307.238 549.172 298.735 554.625 292.103 562.25C288.102 566.849 285.618 572.741 284.662 578.723C284.307 580.944 284.47 584.18 283.227 586.023Z"/>
	<path fill="#E66D23" transform="scale(0.488281 0.488281)" d="M516.633 510.645C514.886 504.483 513.947 498.676 513.957 492.248C513.981 477.396 520.113 462.536 530.643 452.05C540.741 441.995 554.653 436.301 568.875 436.409C584.112 436.525 596.126 443.199 606.561 453.862L605.934 453.838C603.683 453.531 601.06 451.789 598.922 450.892C590.062 447.175 581.724 445.575 572.118 446.506C556.041 448.064 541.182 457.463 531.072 469.75C523.891 478.477 519.223 489.053 517.821 500.249C517.398 503.623 517.769 507.464 516.633 510.645Z"/>
	<path fill="#FBAE35" transform="scale(0.488281 0.488281)" d="M430.253 562.584C431.813 555.442 431.62 549.489 435.819 542.942L436.25 542.284C439.234 537.66 443.748 533.562 448.693 531.118C455.344 527.831 464.209 526.527 471.381 528.971C472.153 529.234 472.854 529.469 473.662 529.609L474.443 529.739C477.475 532.824 479.285 536.4 480.563 540.5L480.81 541.273C482.953 548.353 481.117 557.058 477.617 563.4C474.356 569.309 468.314 573.505 462 575.545L461.247 575.802C454.843 577.861 446.972 576.338 441.136 573.277C436.388 570.786 432.875 567.21 430.253 562.584Z"/>
	<path fill="#E66D23" transform="scale(0.488281 0.488281)" d="M301.214 454.035C293.704 443.706 290.537 428.282 289.693 415.75C288.231 394.028 296.603 372.61 311.007 356.542C324.259 341.76 344.916 331.6 364.817 330.635C383.886 329.711 405.095 336.034 419.342 348.991L418.569 349.059C416.631 349.154 413.433 346.988 411.543 346.167C408.568 344.875 405.484 343.834 402.359 342.973C375.449 335.557 344.635 344.641 324.803 363.946C308.534 379.784 298.065 401.073 297.573 424C297.433 430.524 298.477 437.888 299.833 444.25C300.281 446.355 301.793 449.949 301.804 452C301.807 452.511 301.379 453.506 301.214 454.035Z"/>
	<path fill="#FBAE35" transform="scale(0.488281 0.488281)" d="M542.149 302.256C549.133 307.719 553.898 316.169 554.95 324.955C555.965 333.439 553.116 341.264 547.8 347.81C543.039 353.674 535.679 358.181 528.074 358.926C519.919 359.725 511.304 357.295 505.074 351.926C502.553 349.753 499.503 346.251 498.243 343.156C498.968 341.386 498.58 339.125 498.528 337.219C498.311 329.26 500.981 322.37 505.995 316.229C512.362 308.432 520.887 303.535 530.977 302.672C534.355 302.383 537.795 302.768 541.157 302.378L542.149 302.256Z"/>
	<path fill="#FA9A29" transform="scale(0.488281 0.488281)" d="M321.073 476.584C321.861 476.341 322.183 476.304 323.001 476.508C328.766 477.948 334.821 478.679 340.739 479.195C365.266 481.331 390.474 472.594 409.151 456.726C424.966 443.291 437.041 423.179 440.044 402.513C440.79 397.377 440.194 392.203 440.705 387.08C440.871 385.415 441.007 385.438 442.249 384.402C449.517 406.902 448.127 430.331 437.366 451.451C428.162 469.515 411.702 483.999 392.271 490.111C373.191 496.112 351.614 494.424 333.889 485.069C329.319 482.657 325.067 479.861 321.073 476.584Z"/>
	<path fill="#FBAE35" transform="scale(0.488281 0.488281)" d="M283.227 586.023C284.47 584.18 284.307 580.944 284.662 578.723C285.618 572.741 288.102 566.849 292.103 562.25C298.735 554.625 307.238 549.172 317.518 548.509C329.307 547.75 338.474 552.405 346.995 560.114L347.74 559.866C349.498 562.876 350.116 566.091 350.61 569.5L350.738 570.342C352.114 579.962 349.347 589.831 343.408 597.484C337.946 604.521 329.592 609.129 320.75 610.101C310.928 611.181 301.404 607.558 293.885 601.35C290.406 598.478 283.641 590.643 283.227 586.023Z"/>
	<path fill="#FBAE35" transform="scale(0.488281 0.488281)" d="M516.633 510.645C517.769 507.464 517.398 503.623 517.821 500.249C519.223 489.053 523.891 478.477 531.072 469.75C541.182 457.463 556.041 448.064 572.118 446.506C581.724 445.575 590.062 447.175 598.922 450.892C601.06 451.789 603.683 453.531 605.934 453.838L606.561 453.862C609.922 457.314 614.151 462.366 616.384 466.583L615.98 467.179L617.205 468.868C621.062 474.796 622.197 481.711 623.19 488.567C625.269 502.928 620.224 518.152 611.575 529.597C604.124 539.456 594.898 544.523 583.396 548.221C569.847 551.727 556.164 549.089 543.939 542.704L542.25 541.891C530.629 535.323 520.43 523.556 516.633 510.645Z"/>
	<path fill="#FA9A29" transform="scale(0.488281 0.488281)" d="M617.205 468.868C621.062 474.796 622.197 481.711 623.19 488.567C625.269 502.928 620.224 518.152 611.575 529.597C604.124 539.456 594.898 544.523 583.396 548.221C569.847 551.727 556.164 549.089 543.939 542.704C546.921 542.222 550.102 542.305 553.138 541.919C564.122 540.522 574.282 536.775 583.242 530.209C602.678 515.966 613.545 492.151 617.205 468.868Z"/>
	<path fill="#FBAE35" transform="scale(0.488281 0.488281)" d="M301.214 454.035C301.379 453.506 301.807 452.511 301.804 452C301.793 449.949 300.281 446.355 299.833 444.25C298.477 437.888 297.433 430.524 297.573 424C298.065 401.073 308.534 379.784 324.803 363.946C344.635 344.641 375.449 335.557 402.359 342.973C405.484 343.834 408.568 344.875 411.543 346.167C413.433 346.988 416.631 349.154 418.569 349.059L419.342 348.991C429.245 356.66 438.805 372.075 442.232 384.133L442.249 384.402C441.007 385.438 440.871 385.415 440.705 387.08C440.194 392.203 440.79 397.377 440.044 402.513C437.041 423.179 424.966 443.291 409.151 456.726C390.474 472.594 365.266 481.331 340.739 479.195C334.821 478.679 328.766 477.948 323.001 476.508C322.183 476.304 321.861 476.341 321.073 476.584C313.713 471.386 305.253 462.086 301.214 454.035Z"/>
</svg>
