<?xml version="1.0" encoding="utf-8" ?>
<svg xmlns="http://www.w3.org/2000/svg" xmlns:xlink="http://www.w3.org/1999/xlink" width="500" height="500">
	<path fill="#E8AA6C" transform="scale(0.488281 0.488281)" d="M-0 -0L1024 0L1024 1024L-0 1024L0 -0Z"/>
	<path fill="#9B251C" transform="scale(0.488281 0.488281)" d="M880.606 483.021L883.718 483.25L883.5 483.848C877.744 486.502 870.901 488.028 865.482 491.16L862.974 489.448C868.321 486.455 874.716 484.629 880.606 483.021Z"/>
	<path fill="#4A5A61" transform="scale(0.488281 0.488281)" d="M645.413 252.57C646.702 255.615 644.429 259.627 644.064 262.853C643.657 266.441 645.299 273.684 647.59 276.443C648.699 277.778 650.22 278.464 651.787 279.114C653.832 279.961 656.295 280.267 658.013 281.693C654.677 282.877 651.285 283.766 647.722 283.157L647 283.025C644.651 282.641 642.617 282.206 640.5 281.042C638.584 279.99 636.978 278.47 636.45 276.287C634.399 267.816 640.77 258.898 645.413 252.57Z"/>
	<path fill="#636B6B" transform="scale(0.488281 0.488281)" d="M649.549 248.166C649.961 255.515 650.295 269.302 656.219 274.42C658.788 276.639 661.763 276.812 665.007 276.351C666.888 276.083 668.108 274.814 669.426 273.552C666.872 278.002 662.77 280.124 658.013 281.693C656.295 280.267 653.832 279.961 651.787 279.114C650.22 278.464 648.699 277.778 647.59 276.443C645.299 273.684 643.657 266.441 644.064 262.853C644.429 259.627 646.702 255.615 645.413 252.57C646.62 250.746 647.838 249.522 649.549 248.166Z"/>
	<path fill="#060506" transform="scale(0.488281 0.488281)" d="M679.709 262.828C682.123 263.333 684.777 263.767 687.025 264.795C692.838 267.455 697.546 273.619 701.25 278.66L701.673 276.75C703.713 275.849 706.38 276.743 708.345 277.51C710.376 278.302 712.216 279.53 714.042 280.704C712.979 281.73 712.174 282.632 711.411 283.9L711.632 284.531C710.614 286.407 709.295 288.377 708.68 290.414C707.834 292.156 705.95 292.97 704.338 293.913C700.992 288.639 698.023 282.173 693.998 277.5C688.007 270.544 679.07 269.764 670.609 269.005L670.343 268.757L670.566 264.5C673.687 264.477 676.436 264.621 679.268 263.077L679.709 262.828Z"/>
	<path fill="#F0D79A" transform="scale(0.488281 0.488281)" d="M708.68 290.414C707.129 286.928 704.904 283.815 702.706 280.718L711.411 283.9L711.632 284.531C710.614 286.407 709.295 288.377 708.68 290.414Z"/>
	<path fill="#04101A" transform="scale(0.488281 0.488281)" d="M340.126 461.974L341.25 461.14C343.348 461.504 345.441 461.654 347.11 463.098C356.134 479.22 363.7 496.509 371.611 513.219L376.652 523.887C377.684 526.166 378.683 529.06 380.125 531.08C378.008 532.11 376.349 533.514 374.559 535.009L340.126 461.974Z"/>
	<path fill="#96998E" transform="scale(0.488281 0.488281)" d="M649.549 248.166C653.034 246.488 656.411 245.602 660.231 246.928C663.88 248.194 666.65 250.827 668.269 254.298C669.448 256.826 670.051 259.588 670.613 262.307C673.353 262.382 677.134 262.063 679.709 262.828L679.268 263.077C676.436 264.621 673.687 264.477 670.566 264.5L670.343 268.757L670.609 269.005C670.322 270.563 670.13 272.117 669.426 273.552C668.108 274.814 666.888 276.083 665.007 276.351C661.763 276.812 658.788 276.639 656.219 274.42C650.295 269.302 649.961 255.515 649.549 248.166Z"/>
	<path fill="#263E4B" transform="scale(0.488281 0.488281)" d="M686.915 299.596L699.434 295.106C701.693 296.359 703.483 297.955 705.397 299.66L706.317 299.394L711.512 312.5C712.502 314.923 713.993 317.697 714.082 320.339C710.159 323.718 702.508 325.584 697.58 327.54L695.302 328.369L694.924 328.935C691.127 330.092 687.714 332.205 683.991 333.589L681.25 333.391C677.95 331.083 676.007 322.827 674.797 318.987C673.679 315.999 671.853 311.296 673.056 308.25C674.807 303.815 682.794 301.43 686.915 299.596Z"/>
	<path fill="#04101A" transform="scale(0.488281 0.488281)" d="M674.797 318.987C673.679 315.999 671.853 311.296 673.056 308.25C674.807 303.815 682.794 301.43 686.915 299.596L692.496 317.777C693.543 321.168 695.002 324.831 695.302 328.369L694.924 328.935C691.127 330.092 687.714 332.205 683.991 333.589L681.25 333.391C677.95 331.083 676.007 322.827 674.797 318.987Z"/>
	<path fill="#D79255" transform="scale(0.488281 0.488281)" d="M141.529 776.85L164.701 786.194L164.227 786.266C160.045 786.847 155.606 786.528 151.376 786.532L133.282 787.255C128.597 787.66 123.298 787.971 119.69 791.25L119.75 792.453C121.318 793.678 123.021 793.926 124.921 794.365L112.765 795.455C110.827 794.722 105.194 795.428 102.891 795.439L72.5643 795.598C66.7697 795.641 60.8027 796 55.0281 795.598C52.3158 795.409 49.5792 794.154 47.8624 792C46.2198 789.939 45.624 787.608 45.9783 785C46.2836 782.753 47.9978 780.436 49.8355 779.186L50.3571 778.844C51.8269 777.824 52.9857 777.464 54.7722 777.299C62.1437 776.616 70.0041 777.352 77.4383 777.398L125.398 777.642C129.189 777.658 138.701 778.696 141.529 776.85Z"/>
	<path fill="#263E4B" transform="scale(0.488281 0.488281)" d="M700.259 251.865C699.619 247.12 696.009 211.564 696.684 209.75C696.843 209.322 697.228 209.016 697.5 208.649C699.018 208.585 700.234 209.354 701.5 210.108C706.82 213.275 711.858 218.04 716.414 222.226C729.053 233.838 741.28 248.037 750.037 262.869L746.318 265.205L744.605 266.21C741.932 264.35 735.946 263.313 732.725 263.886C729.645 264.435 726.415 266.164 723.58 267.486C716.746 263.634 705.382 264.142 700.962 257.073L700.259 251.865Z"/>
	<path fill="#1D2C38" transform="scale(0.488281 0.488281)" d="M700.259 251.865C701.172 251.6 701.289 251.461 702.246 251.693C705.074 252.379 708.134 252.445 711.018 252.887C717.714 253.915 724.483 255.165 730.858 257.5C734.774 258.935 737.697 259.952 740.471 263.207C742.281 263.702 744.893 264.017 746.318 265.205L744.605 266.21C741.932 264.35 735.946 263.313 732.725 263.886C729.645 264.435 726.415 266.164 723.58 267.486C716.746 263.634 705.382 264.142 700.962 257.073L700.259 251.865Z"/>
	<path fill="#060506" transform="scale(0.488281 0.488281)" d="M700.962 257.073C714.551 257.18 727.052 262.553 740.471 263.207C742.281 263.702 744.893 264.017 746.318 265.205L744.605 266.21C741.932 264.35 735.946 263.313 732.725 263.886C729.645 264.435 726.415 266.164 723.58 267.486C716.746 263.634 705.382 264.142 700.962 257.073Z"/>
	<path fill="#E97825" transform="scale(0.488281 0.488281)" d="M770.569 475.456C802.039 466.341 836.433 468.725 867.408 478.653C871.724 480.037 876.564 481.031 880.606 483.021C874.716 484.629 868.321 486.455 862.974 489.448L861.159 490.355C857.889 492.166 854.475 494.456 851.018 495.837C842.608 500.795 833.747 505.376 825.956 511.302L800.075 531.769L797.497 534.514C795.502 537.424 794.096 539.682 793.403 543.207L764.815 476.916C766.716 476.78 768.731 475.983 770.569 475.456Z"/>
	<path fill="#D79255" transform="scale(0.488281 0.488281)" d="M851.018 495.837L819.874 490.97C804.592 489.275 789.607 490.205 774.57 493.28L774.249 482.321C788.541 479.747 804.545 477.431 819.058 479.32C829.394 480.665 839.101 482.565 849.063 485.681C853.124 486.951 857.454 488.226 861.159 490.355C857.889 492.166 854.475 494.456 851.018 495.837Z"/>
	<path fill="#E64931" transform="scale(0.488281 0.488281)" d="M723.58 267.486C726.415 266.164 729.645 264.435 732.725 263.886C735.946 263.313 741.932 264.35 744.605 266.21C746.33 268.351 748.673 269.243 751 270.588C754.18 272.428 757.308 274.501 760.272 276.672C774.974 287.446 789.19 300.589 800.99 314.5C803.425 317.371 806.245 320.272 808.167 323.505C813.164 327.255 817.855 330.387 818.831 337C819.401 340.863 819.473 345.786 818.566 349.582C817.439 362.954 813.275 377.015 808.67 389.591C806.987 394.187 804.669 400.668 800.807 403.867L799.137 405.041C793.753 407.773 787.555 409.462 781.782 411.18L761.276 417.443C756.909 418.769 752.368 419.887 748.134 421.578C747.306 419.414 746.647 417.447 746.262 415.148L733.039 420.06L732.181 420.082L723.519 397.132C723.237 396.06 723.182 396.146 722.44 395.417L721.435 395.522L709.686 400.644L685.82 338.651L684.017 334.926L683.991 333.589C687.714 332.205 691.127 330.092 694.924 328.935L695.302 328.369L697.58 327.54C702.508 325.584 710.159 323.718 714.082 320.339C713.993 317.697 712.502 314.923 711.512 312.5L706.317 299.394C705.852 297.426 705.204 295.739 704.338 293.913C705.95 292.97 707.834 292.156 708.68 290.414C709.295 288.377 710.614 286.407 711.632 284.531L711.411 283.9C712.174 282.632 712.979 281.73 714.042 280.704C714.425 279.244 715.818 277.892 716.738 276.718L723.752 267.943L723.58 267.486Z"/>
	<path fill="#1D2C38" transform="scale(0.488281 0.488281)" d="M736.486 390.066C738.978 390.188 742.211 390.185 744.441 391.408C747.342 395.733 749.403 400.91 751.31 405.75C751.726 406.805 752.673 408.738 752.442 409.875C752.102 411.55 750.738 412.949 749.3 413.79L746.262 415.148L733.039 420.06L732.181 420.082L723.519 397.132C723.237 396.06 723.182 396.146 722.44 395.417L723.304 394.721L736.486 390.066Z"/>
	<path fill="#F0D79A" transform="scale(0.488281 0.488281)" d="M734.765 268.545C747.864 274.575 760.001 284.222 771.071 293.34C780.003 300.696 788.47 308.829 796.03 317.59C797.138 318.873 800.061 321.599 800.212 323.183L798.322 323.958L790.922 327.049L734.765 268.545Z"/>
	<path fill="#04101A" transform="scale(0.488281 0.488281)" d="M723.752 267.943C724.322 268.687 724.504 269.261 724.753 270.14C726.24 275.393 728.972 280.432 731.227 285.401C735.34 294.463 739.628 303.774 742.964 313.148C739.321 315.404 735.258 316.969 731.357 318.728L712.543 326.998C712.55 326.232 712.349 324.67 712.57 324C713.188 322.131 714.406 322.794 714.082 320.339C713.993 317.697 712.502 314.923 711.512 312.5L706.317 299.394C705.852 297.426 705.204 295.739 704.338 293.913C705.95 292.97 707.834 292.156 708.68 290.414C709.295 288.377 710.614 286.407 711.632 284.531L711.411 283.9C712.174 282.632 712.979 281.73 714.042 280.704C714.425 279.244 715.818 277.892 716.738 276.718L723.752 267.943Z"/>
	<path fill="#F0D79A" transform="scale(0.488281 0.488281)" d="M697.58 327.54C702.508 325.584 710.159 323.718 714.082 320.339C714.406 322.794 713.188 322.131 712.57 324C712.349 324.67 712.55 326.232 712.543 326.998C714.686 330.9 715.809 336.319 717.336 340.588L730.074 374.132C732.037 379.197 733.809 385.396 736.486 390.066L723.304 394.721L722.44 395.417L721.435 395.522L709.686 400.644L685.82 338.651L684.017 334.926L683.991 333.589C687.714 332.205 691.127 330.092 694.924 328.935L695.302 328.369L697.58 327.54Z"/>
	<path fill="#CCB584" transform="scale(0.488281 0.488281)" d="M695.302 328.369L697.58 327.54C699.439 335.472 704.429 343.099 707.725 350.546C711.864 359.899 714.939 369.731 718.223 379.408C719.946 384.481 722.067 389.506 723.304 394.721L722.44 395.417L721.435 395.522C719.376 393.893 708.979 364.003 707.112 359.229L694.924 328.935L695.302 328.369Z"/>
	<defs>
		<linearGradient id="gradient_0" gradientUnits="userSpaceOnUse" x1="720.25391" y1="364.95807" x2="684.24579" y2="364.05447">
			<stop offset="0" stop-color="#827E78"/>
			<stop offset="1" stop-color="#8A8F7D"/>
		</linearGradient>
	</defs>
	<path fill="url(#gradient_0)" transform="scale(0.488281 0.488281)" d="M683.991 333.589C687.714 332.205 691.127 330.092 694.924 328.935L707.112 359.229C708.979 364.003 719.376 393.893 721.435 395.522L709.686 400.644L685.82 338.651L684.017 334.926L683.991 333.589Z"/>
	<path fill="#04101A" transform="scale(0.488281 0.488281)" d="M793.936 391.936C792.165 388.913 785.301 385.612 782.137 383.658C773.59 378.381 765.674 372.988 757.693 366.853C754.136 364.119 749.95 361.381 747.658 357.432C747.405 355.828 747.4 354.834 748.212 353.379C750.491 349.291 756.847 346.497 760.798 344.292C770.824 338.694 781.176 332.568 791.863 328.407C795.338 327.054 798.73 326.549 802.25 325.548L802.149 324.25C803.264 323.142 806.528 323.55 808.167 323.505C813.164 327.255 817.855 330.387 818.831 337C819.401 340.863 819.473 345.786 818.566 349.582C817.439 362.954 813.275 377.015 808.67 389.591C806.987 394.187 804.669 400.668 800.807 403.867L799.137 405.041C797.445 403.415 796.755 401.504 795.936 399.342C794.907 396.626 794.001 394.926 793.936 391.936Z"/>
	<path fill="#060506" transform="scale(0.488281 0.488281)" d="M816.187 347.057C816.766 348.139 817.003 348.091 816.731 349.348L816.183 353.437C815.944 356.581 815.101 359.887 814.49 362.99C812.272 374.255 808.63 386.103 803.279 396.279C801.579 397.333 799.306 397.244 797.36 396.89L796.383 396.633C795.876 398.089 797.422 400.895 798.09 402.316L799.057 404.193C800.47 402.817 801.97 401.621 802.875 399.875C804.083 397.546 805.973 395.084 806.617 392.508C807.082 390.649 808.22 388.879 808.75 387L810.516 381.734C810.841 380.759 811.021 379.849 811.375 378.875L812.008 376.742C812.335 375.762 812.513 374.852 812.875 373.875L813.375 371.844C813.476 371.337 813.733 370.872 813.875 370.375C814.14 369.447 814.172 368.704 814.5 367.75C814.867 366.682 815.022 365.483 815.375 364.375C815.703 363.346 815.618 362.362 816 361.25L816.25 360L816.383 359.398C816.554 358.542 816.48 358.884 816.555 357.914C816.7 356.019 816.464 358.317 817 356.25C817.202 355.472 817.307 354.559 817.5 353.75C817.876 352.174 817.025 350.963 818 349.5L818.125 346.125C818.782 346.897 818.413 348.542 818.566 349.582C817.439 362.954 813.275 377.015 808.67 389.591C806.987 394.187 804.669 400.668 800.807 403.867L799.137 405.041C797.445 403.415 796.755 401.504 795.936 399.342C794.907 396.626 794.001 394.926 793.936 391.936L796.335 388.471C796.369 390.595 795.973 393.94 797.106 395.75C798.737 396.335 800.549 396.048 802.25 395.941C804.086 393.755 805.134 390.373 806.173 387.714C811.376 374.402 814.249 361.174 816.187 347.057Z"/>
	<path fill="#FEFEF8" transform="scale(0.488281 0.488281)" d="M796.335 388.471C796.157 373.567 798.075 359.047 800.101 344.317C800.624 340.511 800.786 333.691 802.862 330.438C803.466 329.491 803.851 329.08 805 328.987C807.639 328.772 811.456 331.109 813.176 332.949C817.26 337.319 816.489 341.508 816.187 347.057C814.249 361.174 811.376 374.402 806.173 387.714C805.134 390.373 804.086 393.755 802.25 395.941C800.549 396.048 798.737 396.335 797.106 395.75C795.973 393.94 796.369 390.595 796.335 388.471Z"/>
	<path fill="#1D2C38" transform="scale(0.488281 0.488281)" d="M115.772 338.581C116.807 335.022 119.025 332.027 121.474 329.303C125.185 328.1 131.868 328.972 135.892 328.984L189.143 329.842L255.817 330.749L285.264 379.543L291.034 389.273C291.786 390.563 292.64 392.604 293.604 393.692C293.871 393.993 295.483 394.516 295.896 394.695L306.298 398.865L381.091 425.465L365.791 435.288C362.697 437.398 359.548 439.934 356.146 441.482C356.346 442.336 356.569 442.733 357.138 443.399C354.472 445.367 351.072 447.028 350.496 450.497C350.15 451.951 350.052 452.741 350.349 454.25C353.357 456.368 357.109 457.046 360.382 458.677L359.75 459.516C360.239 460.968 360.573 462.334 361.495 463.574L347.11 463.098C345.441 461.654 343.348 461.504 341.25 461.14L340.126 461.974C339.567 461.273 338.76 460.717 337.998 460.25C335.898 458.964 324.612 453.177 322.762 453.292C321.444 453.374 316.328 458.778 315.317 459.767C315.002 460.076 314.812 460.649 314.374 460.695C313.922 460.742 299.439 453.351 297.507 452.444L215.375 414.33L175.626 395.913C175.167 395.727 174.167 395.218 173.717 395.161C173.104 395.085 171.839 395.529 171.158 395.669L162.705 397.626L127.797 406.404C125.703 409.387 124.405 413.346 122.974 416.69L113.592 439.586C111.666 440.477 109.086 440.693 107 441.144L94.8971 443.933L118.908 383.464L138.959 378.55L103.013 333.648L115.772 338.581Z"/>
	<path fill="#E64931" transform="scale(0.488281 0.488281)" d="M115.772 338.581C116.807 335.022 119.025 332.027 121.474 329.303C125.185 328.1 131.868 328.972 135.892 328.984L189.143 329.842L255.817 330.749L285.264 379.543L291.034 389.273C291.786 390.563 292.64 392.604 293.604 393.692C293.871 393.993 295.483 394.516 295.896 394.695L306.298 398.865L381.091 425.465L365.791 435.288C362.697 437.398 359.548 439.934 356.146 441.482L115.772 338.581Z"/>
	<path fill="#FEFEF8" transform="scale(0.488281 0.488281)" d="M151.501 338.75C154.214 338.198 157.276 338.8 160.024 338.964L179.772 340.296L258.352 345.599L266.881 370.094L151.501 338.75Z"/>
	<path fill="#E64931" transform="scale(0.488281 0.488281)" d="M460.03 355.341L481.037 335.646C493.934 324.391 508.21 313.364 523.519 305.59C525.782 304.441 528.595 302.524 531.204 302.733L630.665 308.744L650.716 312.015C658.952 313.419 667.47 314.74 674.797 318.987C676.007 322.827 677.95 331.083 681.25 333.391L683.991 333.589L684.017 334.926L685.82 338.651C677.427 340.837 670.304 346.396 662.092 349.107L646.901 356.985C644.181 358.416 641.082 359.68 638.701 361.62C633.081 362.767 627.85 366.104 623.358 369.576C615.845 372.662 607.973 378.146 600.099 379.7C595.361 380.635 589.995 380.214 585.171 380.2L559.805 380.11L494.654 380.027L455.368 380.185C451.273 380.311 409.791 409.234 402.883 413.47L357.138 443.399C356.569 442.733 356.346 442.336 356.146 441.482C359.548 439.934 362.697 437.398 365.791 435.288L381.091 425.465L306.298 398.865L295.896 394.695C295.483 394.516 293.871 393.993 293.604 393.692C292.64 392.604 291.786 390.563 291.034 389.273L285.264 379.543L255.817 330.749L258.527 330.957L272.136 331.018C272.966 331.021 275.334 330.777 275.947 331.034C277.256 331.585 279.422 334.168 280.484 335.245C283.902 338.712 312.376 369.777 314.485 370.176C315.374 370.344 316.698 370.207 317.624 370.216L418.734 370.139L436.719 370.411C437.582 370.442 440.103 370.275 440.75 370.574C441.258 370.81 441.557 371.352 441.947 371.754L443.067 372.962C444.565 370.443 446.67 368.451 448.683 366.342L460.03 355.341Z"/>
	<path fill="#9B251C" transform="scale(0.488281 0.488281)" d="M630.665 308.744L650.716 312.015C658.952 313.419 667.47 314.74 674.797 318.987C676.007 322.827 677.95 331.083 681.25 333.391L683.991 333.589L684.017 334.926C680.571 337.153 676.726 338.663 673.002 340.359L662.146 345.339C661.9 340.715 660.615 339.094 657.463 335.849C656.895 332.803 655.555 326.495 653.471 324.195C650.492 320.907 639.288 322.288 635.156 322.458C632.502 318.766 631.571 313.164 630.665 308.744Z"/>
	<path fill="#F9F0C7" transform="scale(0.488281 0.488281)" d="M545.058 317.679L539.323 312.899C564.339 313.886 589.071 317.195 613.745 321.205C621.508 322.467 630.055 323.142 637.537 325.501C644.489 327.693 651.7 331.384 657.463 335.849C660.615 339.094 661.9 340.715 662.146 345.339C657.898 348.615 652.193 350.799 647.383 353.191L605.742 374.437L601.92 370.741L586.542 356.852L545.058 317.679Z"/>
	<path fill="#F0D79A" transform="scale(0.488281 0.488281)" d="M645.569 352.363L647.383 353.191L605.742 374.437L601.92 370.741L603.203 370.787C607.185 370.946 610.824 369.416 614.5 368.044C625.177 364.06 635.755 358.143 645.569 352.363Z"/>
	<path fill="#F0D79A" transform="scale(0.488281 0.488281)" d="M545.058 317.679L539.323 312.899C564.339 313.886 589.071 317.195 613.745 321.205C621.508 322.467 630.055 323.142 637.537 325.501C644.489 327.693 651.7 331.384 657.463 335.849C660.615 339.094 661.9 340.715 662.146 345.339C657.898 348.615 652.193 350.799 647.383 353.191L645.569 352.363C647.987 351.061 652.527 348.038 653.96 345.692C654.734 344.426 654.53 342.712 654.023 341.408C652.025 336.268 646.924 333.682 642.174 331.627C636.153 329.021 629.638 327.375 623.22 326.094C601.853 321.827 579.917 319.859 558.217 318.137C554.627 317.853 548.299 316.385 545.058 317.679Z"/>
	<path fill="#04101A" transform="scale(0.488281 0.488281)" d="M255.817 330.749L258.527 330.957L263.823 338.185C264.272 338.823 265.514 340.194 265.714 340.904C274.754 350.207 282.274 361.881 289.495 372.678C292.521 377.203 295.59 382.711 299.337 386.65C300.974 388.371 302.525 388.98 304.703 389.798C310.238 391.878 316.156 393.315 321.803 395.1L359.5 407.02C367.511 409.521 376.188 413.392 384.358 414.958C389.183 412.817 393.672 409.441 398.162 406.666L433.123 385.032C438.158 382.208 443.436 379.029 448.877 377.131L450.13 376.529C447.504 375.709 445.382 374.396 443.067 372.962C444.565 370.443 446.67 368.451 448.683 366.342L460.03 355.341C469.512 359.616 478.701 362.462 489 363.997C503.883 366.217 520.199 365.027 535.268 365.026C546.287 365.026 557.83 365.78 568.783 364.799C571.345 364.569 573.852 364.156 576.272 363.25C579.858 361.907 583.939 359.709 586.542 356.852L601.92 370.741L605.742 374.437L647.383 353.191C652.193 350.799 657.898 348.615 662.146 345.339L673.002 340.359C676.726 338.663 680.571 337.153 684.017 334.926L685.82 338.651C677.427 340.837 670.304 346.396 662.092 349.107L646.901 356.985C644.181 358.416 641.082 359.68 638.701 361.62C633.081 362.767 627.85 366.104 623.358 369.576C615.845 372.662 607.973 378.146 600.099 379.7C595.361 380.635 589.995 380.214 585.171 380.2L559.805 380.11L494.654 380.027L455.368 380.185C451.273 380.311 409.791 409.234 402.883 413.47L357.138 443.399C356.569 442.733 356.346 442.336 356.146 441.482C359.548 439.934 362.697 437.398 365.791 435.288L381.091 425.465L306.298 398.865L295.896 394.695C295.483 394.516 293.871 393.993 293.604 393.692C292.64 392.604 291.786 390.563 291.034 389.273L285.264 379.543L255.817 330.749Z"/>
	<path fill="#263E4B" transform="scale(0.488281 0.488281)" d="M265.714 340.904C274.754 350.207 282.274 361.881 289.495 372.678C292.521 377.203 295.59 382.711 299.337 386.65C300.974 388.371 302.525 388.98 304.703 389.798C310.238 391.878 316.156 393.315 321.803 395.1L359.5 407.02C367.511 409.521 376.188 413.392 384.358 414.958C389.183 412.817 393.672 409.441 398.162 406.666L433.123 385.032C438.158 382.208 443.436 379.029 448.877 377.131L450.13 376.529L452.865 376.786C452.122 377.363 451.535 377.745 450.659 378.109C442.766 381.39 435.056 387.771 427.836 392.386L385.776 419.316L334.044 402.856C321.556 398.8 307.883 395.491 296.143 389.621C291.356 383.099 287.364 375.723 282.997 368.888L270.759 349.971C268.888 346.987 266.606 344.363 265.714 340.904Z"/>
	<path fill="#E97825" transform="scale(0.488281 0.488281)" d="M460.03 355.341C469.512 359.616 478.701 362.462 489 363.997C503.883 366.217 520.199 365.027 535.268 365.026C546.287 365.026 557.83 365.78 568.783 364.799C571.345 364.569 573.852 364.156 576.272 363.25C579.858 361.907 583.939 359.709 586.542 356.852L601.92 370.741L605.742 374.437C602.238 375.575 599.034 376.434 595.336 376.725C588.423 377.271 581.298 376.946 574.364 376.947L537.387 376.933L452.865 376.786L450.13 376.529C447.504 375.709 445.382 374.396 443.067 372.962C444.565 370.443 446.67 368.451 448.683 366.342L460.03 355.341Z"/>
	<path fill="#4A5A61" transform="scale(0.488281 0.488281)" d="M258.527 330.957L272.136 331.018C272.966 331.021 275.334 330.777 275.947 331.034C277.256 331.585 279.422 334.168 280.484 335.245C283.902 338.712 312.376 369.777 314.485 370.176C315.374 370.344 316.698 370.207 317.624 370.216L418.734 370.139L436.719 370.411C437.582 370.442 440.103 370.275 440.75 370.574C441.258 370.81 441.557 371.352 441.947 371.754L443.067 372.962C445.382 374.396 447.504 375.709 450.13 376.529L448.877 377.131C443.436 379.029 438.158 382.208 433.123 385.032L398.162 406.666C393.672 409.441 389.183 412.817 384.358 414.958C376.188 413.392 367.511 409.521 359.5 407.02L321.803 395.1C316.156 393.315 310.238 391.878 304.703 389.798C302.525 388.98 300.974 388.371 299.337 386.65C295.59 382.711 292.521 377.203 289.495 372.678C282.274 361.881 274.754 350.207 265.714 340.904C265.514 340.194 264.272 338.823 263.823 338.185L258.527 330.957Z"/>
	<path fill="#D79255" transform="scale(0.488281 0.488281)" d="M302.071 763.887C304.125 764.974 305.712 764.962 307.977 764.976L643.559 765.463L699.378 765.62L721.977 765.807C724.748 765.818 729.127 766.304 731.685 765.403C732.136 765.244 732.229 765.113 732.539 764.828C745.692 773.11 759.313 779.616 773.986 784.753C777.49 785.282 781.061 787.379 784.66 788.146L788.683 788.971L790.25 789.211L791.25 789.633C792.968 789.933 794.87 790.534 796.581 790.656L797.75 790.745C799.142 791.045 800.403 790.996 801.75 791.245C804.099 791.679 806.501 791.314 808.75 791.745C812.752 792.511 816.338 792.358 820.357 791.793C823.778 791.312 827.152 791.961 830.645 791.323C832.713 790.944 834.605 791.55 836.719 790.805C837.517 790.524 838.065 790.337 838.916 790.292C846.048 789.919 854.242 788.271 861.152 786.353C863.175 785.792 865.081 784.766 867.102 784.315L867.877 784.152C873.882 782.616 879.81 779.866 885.431 777.3L885.888 777.381C890.049 778.063 895.4 777.183 899.727 777.161L940.933 777.153C947.373 777.162 955.176 776.292 961.438 777.676C963.83 778.205 967.07 779.791 968.549 781.798C969.7 783.358 969.786 785.398 969.432 787.25C968.987 789.573 966.986 791.922 964.981 793.106L964 793.594L963.509 793.844C958.902 796.004 950.237 794.976 945.062 794.978L913.753 794.995C915.849 796.473 917.751 797.673 918.987 800L919.296 800.572C920.622 803.202 920.279 806.504 919.271 809.183C917.764 813.189 914.742 816.147 910.822 817.811C907.557 819.197 903.732 819.276 900.229 819.349L836.25 819.604L693.35 819.99L331.253 819.984L189.766 819.992L141.949 820.009L122.802 820.004C118.287 820.001 113.041 820.506 108.75 818.905C104.892 817.465 100.938 814.283 99.2844 810.472C98.3817 808.392 97.9981 805.591 98.8766 803.44C100.046 800.577 102.537 798.714 105.363 797.69C107.406 796.949 109.53 796.869 111.68 796.773C115.713 796.862 131.117 797.777 133.91 796L132.847 795.037L124.921 794.365C123.021 793.926 121.318 793.678 119.75 792.453L119.69 791.25C123.298 787.971 128.597 787.66 133.282 787.255L151.376 786.532C155.606 786.528 160.045 786.847 164.227 786.266L164.701 786.194C171.494 787.704 178.127 789.775 185 790.962C188.26 791.526 193.782 791.535 196.644 792.91C201.13 793.274 205.754 793.904 210.25 793.896C227.538 793.865 244.934 789.577 261.425 784.727C275.738 779.497 289.559 772.562 302.071 763.887Z"/>
	<defs>
		<linearGradient id="gradient_1" gradientUnits="userSpaceOnUse" x1="571.12378" y1="851.40247" x2="549.54755" y2="733.03741">
			<stop offset="0" stop-color="#3A333A"/>
			<stop offset="1" stop-color="#67443B"/>
		</linearGradient>
	</defs>
	<path fill="url(#gradient_1)" transform="scale(0.488281 0.488281)" d="M773.986 784.753C777.49 785.282 781.061 787.379 784.66 788.146L788.683 788.971L790.25 789.211L791.25 789.633C792.968 789.933 794.87 790.534 796.581 790.656L797.75 790.745C799.142 791.045 800.403 790.996 801.75 791.245C804.099 791.679 806.501 791.314 808.75 791.745C812.752 792.511 816.338 792.358 820.357 791.793C823.778 791.312 827.152 791.961 830.645 791.323C832.713 790.944 834.605 791.55 836.719 790.805C837.517 790.524 838.065 790.337 838.916 790.292C846.048 789.919 854.242 788.271 861.152 786.353C863.175 785.792 865.081 784.766 867.102 784.315L867.877 784.152C875.225 784.764 899.532 784.798 904.048 789.778L904.377 790.25C900.034 794.117 890.533 793.951 885.027 794.204C858.073 795.443 830.956 793.425 803.971 793.669L749.503 795.325L604.756 795.377L303.09 795.46L154.962 795.32L132.847 795.037L124.921 794.365C123.021 793.926 121.318 793.678 119.75 792.453L119.69 791.25C123.298 787.971 128.597 787.66 133.282 787.255L151.376 786.532C155.606 786.528 160.045 786.847 164.227 786.266L164.701 786.194C171.494 787.704 178.127 789.775 185 790.962C188.26 791.526 193.782 791.535 196.644 792.91C201.13 793.274 205.754 793.904 210.25 793.896C227.538 793.865 244.934 789.577 261.425 784.727C265.756 785.354 270.267 785.097 274.639 785.113L297.432 785.19L373.19 785.568L628.461 785.642C642.437 785.567 772.226 785.855 773.986 784.753Z"/>
	<defs>
		<linearGradient id="gradient_2" gradientUnits="userSpaceOnUse" x1="193.82893" y1="776.42224" x2="128.86951" y2="808.46649">
			<stop offset="0" stop-color="#4A2825"/>
			<stop offset="1" stop-color="#7A615F"/>
		</linearGradient>
	</defs>
	<path fill="url(#gradient_2)" transform="scale(0.488281 0.488281)" d="M164.701 786.194C171.494 787.704 178.127 789.775 185 790.962C188.26 791.526 193.782 791.535 196.644 792.91L196.361 793.407L197.266 793.493C197.939 793.559 198.48 793.666 199.142 793.818C200.34 794.094 201.53 794.093 202.752 794.125C201.13 794.67 197.491 794.502 195.75 794.255L195 794.756L170.79 794.907C166.059 794.891 159.428 794.061 154.962 795.32L132.847 795.037L124.921 794.365C123.021 793.926 121.318 793.678 119.75 792.453L119.69 791.25C123.298 787.971 128.597 787.66 133.282 787.255L151.376 786.532C155.606 786.528 160.045 786.847 164.227 786.266L164.701 786.194Z"/>
	<path fill="#D79255" transform="scale(0.488281 0.488281)" d="M302.071 763.887C304.125 764.974 305.712 764.962 307.977 764.976L643.559 765.463L699.378 765.62L721.977 765.807C724.748 765.818 729.127 766.304 731.685 765.403C732.136 765.244 732.229 765.113 732.539 764.828C745.692 773.11 759.313 779.616 773.986 784.753C772.226 785.855 642.437 785.567 628.461 785.642L373.19 785.568L297.432 785.19L274.639 785.113C270.267 785.097 265.756 785.354 261.425 784.727C275.738 779.497 289.559 772.562 302.071 763.887Z"/>
	<path fill="#1D2C38" transform="scale(0.488281 0.488281)" d="M758.24 479.55L764.815 476.916L793.403 543.207C794.096 539.682 795.502 537.424 797.497 534.514L800.075 531.769L825.956 511.302C833.747 505.376 842.608 500.795 851.018 495.837C854.475 494.456 857.889 492.166 861.159 490.355L862.974 489.448L865.482 491.16L882.578 497.873C919.685 515.224 948.763 546.775 962.805 585.304C964.992 591.305 966.887 597.694 967.868 604.011L969.033 609.884C972.22 630.493 973.43 652.555 968.286 672.96C966.06 682.913 963.335 692.624 959.25 701.993C947.117 729.82 926.075 752.205 900.607 768.36L885.431 777.3C879.81 779.866 873.882 782.616 867.877 784.152L867.102 784.315C865.081 784.766 863.175 785.792 861.152 786.353C854.242 788.271 846.048 789.919 838.916 790.292C838.065 790.337 837.517 790.524 836.719 790.805C834.605 791.55 832.713 790.944 830.645 791.323C827.152 791.961 823.778 791.312 820.357 791.793C816.338 792.358 812.752 792.511 808.75 791.745C806.501 791.314 804.099 791.679 801.75 791.245C800.403 790.996 799.142 791.045 797.75 790.745L796.581 790.656C794.87 790.534 792.968 789.933 791.25 789.633L790.25 789.211L788.683 788.971L784.66 788.146C781.061 787.379 777.49 785.282 773.986 784.753C759.313 779.616 745.692 773.11 732.539 764.828L715.748 751.674C686.334 725.539 667.853 686.377 665.647 647.244C664.163 620.928 669.831 594.405 681.639 570.873C685.861 562.458 690.642 554.317 696.918 547.266C704.514 541.964 713.477 538.665 722.562 537.027C734.111 534.945 745.513 538.6 754.958 545.197L758.538 547.393C760.595 548.601 762.09 548.778 764.463 548.116L766.931 547.29L767.398 547.183L766.292 545.046L744.293 494.163L741.799 487.859L742.582 486.925L744.036 486.175C747.101 484.319 750.723 482.992 754.005 481.528L758.24 479.55Z"/>
	<path fill="#060506" transform="scale(0.488281 0.488281)" d="M800.075 531.769L820.706 531.064L820.242 531.155C818.266 531.527 816.363 531.584 814.357 531.607L814.25 532C816.212 531.797 818.032 531.737 820 531.878L820.25 532.267C817.871 532.31 814.931 532.029 812.705 532.89L797.497 534.514L800.075 531.769Z"/>
	<path fill="#04101A" transform="scale(0.488281 0.488281)" d="M820.706 531.064C827.184 530.745 833.284 531.755 839.586 533.069C858.307 536.973 876.095 545.821 890.322 558.65C910.498 576.843 925.247 603.637 926.54 631.089C927.068 642.283 926.656 653.756 924.352 664.75C920.265 684.249 910.368 701.34 897.007 715.909L884.75 727.191C884.75 726.128 885.189 726.011 885.875 725.247C885.118 725.44 884.919 725.396 884.347 725.95C883.046 727.21 880.885 728.873 879.062 728.836L892.797 717.465C913.527 697.204 924.685 669.358 924.833 640.5C924.975 612.585 913.086 584.416 893.327 564.743C871.149 542.663 843.647 532.946 812.705 532.89C814.931 532.029 817.871 532.31 820.25 532.267L820 531.878C818.032 531.737 816.212 531.797 814.25 532L814.357 531.607C816.363 531.584 818.266 531.527 820.242 531.155L820.706 531.064Z"/>
	<path fill="#4A5A61" transform="scale(0.488281 0.488281)" d="M969.033 609.884C972.22 630.493 973.43 652.555 968.286 672.96L967.491 672.521L958.764 681.969C947.569 693.323 936.005 703.743 922.587 712.43C922.32 710.327 926.434 704.659 927.477 702.704C930.162 697.671 932.478 692.452 934.49 687.117C935.888 683.411 936.962 679.571 938.716 676.013C942.985 672.178 946.448 665.988 949.193 660.977C953.811 652.544 958.06 643.988 961.25 634.899C962.388 631.656 963.533 628.334 964.39 625.006C965.455 620.876 966.232 612.646 969.033 609.884Z"/>
	<path fill="#636B6B" transform="scale(0.488281 0.488281)" d="M861.159 490.355L862.974 489.448L865.482 491.16L882.578 497.873C919.685 515.224 948.763 546.775 962.805 585.304C964.992 591.305 966.887 597.694 967.868 604.011C966.745 606.065 966.388 608.375 965.798 610.619L962.69 622.594C961.247 628.099 959.48 633.441 957.457 638.759C954.653 646.133 950.965 653.284 946.996 660.094C944.585 664.233 941.811 668.241 939.657 672.514C939.675 669.633 940.539 666.575 941.032 663.731C941.76 659.525 942.245 655.274 942.573 651.018C944.65 624.086 938.85 598.453 925.187 575.14C912.001 552.641 891.17 534.059 867.436 523.255C859.705 519.737 851.61 517.305 843.405 515.177C840.38 515.007 837.254 513.91 834.311 513.194C831.531 512.518 828.691 512.123 825.956 511.302C833.747 505.376 842.608 500.795 851.018 495.837C854.475 494.456 857.889 492.166 861.159 490.355Z"/>
	<path fill="#09172A" transform="scale(0.488281 0.488281)" d="M861.159 490.355L862.974 489.448L865.482 491.16L882.578 497.873C878.686 500.458 873.821 501.831 869.522 503.654L843.405 515.177C840.38 515.007 837.254 513.91 834.311 513.194C831.531 512.518 828.691 512.123 825.956 511.302C833.747 505.376 842.608 500.795 851.018 495.837C854.475 494.456 857.889 492.166 861.159 490.355Z"/>
	<path fill="#636B6B" transform="scale(0.488281 0.488281)" d="M812.705 532.89C843.647 532.946 871.149 542.663 893.327 564.743C913.086 584.416 924.975 612.585 924.833 640.5C924.685 669.358 913.527 697.204 892.797 717.465L879.062 728.836L865.103 736.661C840.08 748.757 809.052 750.857 782.747 741.709C757.223 732.833 734.145 711.932 722.44 687.618C710.035 661.849 709.207 632.958 718.571 606.111C727.107 581.636 744.618 559.937 768.113 548.56L773.858 561.137L774.906 563.769C755.085 573.927 739.839 593.249 733.085 614.25L729.409 630.097C728.626 638.68 728.387 646.626 729.427 655.21C729.806 658.33 730.729 661.419 730.988 664.526L734.357 674.503C734.838 675.752 736.274 678.318 736.302 679.548C738.287 682.309 739.53 685.784 741.404 688.704C748.821 700.263 757.595 709.597 769.213 717.009C790.235 730.42 817.963 733.155 841.987 727.645C865.165 722.329 885.606 705.411 897.926 685.378C909.156 667.12 912.623 642.376 907.66 621.58C901.511 595.812 886.339 574.642 863.571 560.947C843.95 549.144 818.597 545.929 796.492 551.428L795.748 549.099L793.403 543.207C794.096 539.682 795.502 537.424 797.497 534.514L812.705 532.89Z"/>
	<defs>
		<linearGradient id="gradient_3" gradientUnits="userSpaceOnUse" x1="728.64868" y1="617.7243" x2="766.40485" y2="630.9267">
			<stop offset="0" stop-color="#000108"/>
			<stop offset="1" stop-color="#040D2E"/>
		</linearGradient>
	</defs>
	<path fill="url(#gradient_3)" transform="scale(0.488281 0.488281)" d="M727.987 623.775C728.123 621.781 728.783 619.72 729.277 617.783C735.667 592.679 751.906 574.143 773.858 561.137L774.906 563.769C755.085 573.927 739.839 593.249 733.085 614.25L729.409 630.097C728.626 638.68 728.387 646.626 729.427 655.21C729.806 658.33 730.729 661.419 730.988 664.526L734.357 674.503C734.838 675.752 736.274 678.318 736.302 679.548C736.282 682.451 737.975 683.769 738.92 686.354C739.336 687.492 739.431 687.184 740 688L740.911 689.75C741.876 691.645 743.373 693.212 744.427 695.089C743.456 694.606 742.572 694.015 741.659 693.431C740.823 692.79 739.799 690.689 739.205 689.74C735.493 683.809 731.848 676.907 730.243 670.063C725.487 655.638 724.723 638.591 727.987 623.775Z"/>
	<path fill="#09172A" transform="scale(0.488281 0.488281)" d="M795.748 549.099C800.462 547.379 805.768 546.862 810.75 546.486C827.981 545.183 843.41 548.063 859.046 555.308C880.716 565.349 898.539 585.826 906.752 608.125C915.171 630.986 914.007 658.363 903.529 680.374C893.629 701.172 873.389 719.869 851.576 727.421C828.264 735.492 799.132 735.147 776.739 724.25C766.129 719.087 756.773 711.565 748.931 702.795C746.337 699.894 743.597 696.823 741.659 693.431C742.572 694.015 743.456 694.606 744.427 695.089C743.373 693.212 741.876 691.645 740.911 689.75L740 688C739.431 687.184 739.336 687.492 738.92 686.354C737.975 683.769 736.282 682.451 736.302 679.548C738.287 682.309 739.53 685.784 741.404 688.704C748.821 700.263 757.595 709.597 769.213 717.009C790.235 730.42 817.963 733.155 841.987 727.645C865.165 722.329 885.606 705.411 897.926 685.378C909.156 667.12 912.623 642.376 907.66 621.58C901.511 595.812 886.339 574.642 863.571 560.947C843.95 549.144 818.597 545.929 796.492 551.428L795.748 549.099Z"/>
	<path fill="#04101A" transform="scale(0.488281 0.488281)" d="M696.918 547.266C704.514 541.964 713.477 538.665 722.562 537.027C734.111 534.945 745.513 538.6 754.958 545.197L751.009 543.966C745.056 541.818 739.063 541.985 732.83 541.998C729.596 542.004 725.243 547.29 723.162 549.482C697.806 576.19 686.462 608.908 687.521 645.5C688.465 678.111 702.438 710.123 726.378 732.445C736.11 741.519 746.67 749.597 758.784 755.277C779.929 765.191 804.621 766.746 827.6 765.923C859.105 764.795 889.452 749.761 910.795 726.889L922 713.083L922.587 712.43C936.005 703.743 947.569 693.323 958.764 681.969L967.491 672.521L968.286 672.96C966.06 682.913 963.335 692.624 959.25 701.993C947.117 729.82 926.075 752.205 900.607 768.36L885.431 777.3C879.81 779.866 873.882 782.616 867.877 784.152L867.102 784.315C865.081 784.766 863.175 785.792 861.152 786.353C854.242 788.271 846.048 789.919 838.916 790.292C838.065 790.337 837.517 790.524 836.719 790.805C834.605 791.55 832.713 790.944 830.645 791.323C827.152 791.961 823.778 791.312 820.357 791.793C816.338 792.358 812.752 792.511 808.75 791.745C806.501 791.314 804.099 791.679 801.75 791.245C800.403 790.996 799.142 791.045 797.75 790.745L796.581 790.656C794.87 790.534 792.968 789.933 791.25 789.633L790.25 789.211L788.683 788.971L784.66 788.146C781.061 787.379 777.49 785.282 773.986 784.753C759.313 779.616 745.692 773.11 732.539 764.828L715.748 751.674C686.334 725.539 667.853 686.377 665.647 647.244C664.163 620.928 669.831 594.405 681.639 570.873C685.861 562.458 690.642 554.317 696.918 547.266Z"/>
	<path fill="#F0D79A" transform="scale(0.488281 0.488281)" d="M796.492 551.428C818.597 545.929 843.95 549.144 863.571 560.947C886.339 574.642 901.511 595.812 907.66 621.58C912.623 642.376 909.156 667.12 897.926 685.378C885.606 705.411 865.165 722.329 841.987 727.645C817.963 733.155 790.235 730.42 769.213 717.009C757.595 709.597 748.821 700.263 741.404 688.704C739.53 685.784 738.287 682.309 736.302 679.548C736.274 678.318 734.838 675.752 734.357 674.503L730.988 664.526C730.729 661.419 729.806 658.33 729.427 655.21C728.387 646.626 728.626 638.68 729.409 630.097L733.085 614.25C739.839 593.249 755.085 573.927 774.906 563.769C776.86 566.838 778.256 570.464 779.782 573.774L787.796 591.389C779.67 595.75 773.486 600.928 768.503 608.75C760.152 621.859 756.502 638.797 760.179 654.063C763.298 667.017 769.302 678.606 779.777 687.16C793.947 698.732 810.5 702.581 828.53 700.628C843.854 698.968 857.958 690.041 867.451 678.108C876.512 666.717 882.001 650.573 880.18 635.977L879.476 631C876.611 615.457 866.753 600.199 853.56 591.504C841.741 583.714 825.921 579.518 811.902 582.438L809.678 582.95C808.089 581.187 807.004 576.721 806.055 574.444C802.987 567.085 798.489 559.072 796.492 551.428Z"/>
	<path fill="#060506" transform="scale(0.488281 0.488281)" d="M739.573 662.75C740.504 662.663 741.067 662.873 741.954 663.127C743.242 664.499 743.455 664.57 743.693 666.527C742.876 668.058 742.737 668.271 741.25 669.146L740.625 669.298C739.381 669.422 738.624 669.037 737.637 668.361C736.976 667.192 736.623 666.664 736.947 665.25C737.251 663.924 738.51 663.357 739.573 662.75Z"/>
	<path fill="#04101A" transform="scale(0.488281 0.488281)" d="M843.103 555.25L843.448 555.181C845.28 555.073 845.5 555.218 846.956 556.25C847.354 557.083 847.678 557.671 847.625 558.617C847.523 560.433 847.015 560.624 845.75 561.83C844.663 562.098 843.857 562.04 842.75 561.915C841.581 560.711 840.627 559.887 840.952 558C841.21 556.51 842 556.129 843.103 555.25Z"/>
	<path fill="#060506" transform="scale(0.488281 0.488281)" d="M744.664 596.75C745.859 596.309 747.01 596.496 748.25 596.592C749.364 597.678 750.019 598.027 750.049 599.75C750.073 601.108 749.171 601.873 748.301 602.75C746.98 603.014 745.704 603.44 744.5 602.496C743.504 601.715 742.934 600.804 742.986 599.5C743.038 598.174 743.809 597.608 744.664 596.75Z"/>
	<path fill="#09172A" transform="scale(0.488281 0.488281)" d="M852.758 713.75C854.179 713.194 854.808 713.315 856.25 713.592C857.355 714.677 858.263 715.257 858.054 717C857.865 718.573 856.859 719.196 855.75 720.112C854.214 720.482 853.99 720.53 852.5 720.04C851.598 719.08 851.074 718.382 851.081 717C851.088 715.56 851.844 714.729 852.758 713.75Z"/>
	<path fill="#09172A" transform="scale(0.488281 0.488281)" d="M888.826 597.75C890.022 597.324 890.742 597.314 892 597.449C893.542 598.426 893.625 598.573 894.363 600.25C893.938 602.051 893.597 602.534 892.203 603.75C890.499 604.361 890.391 604.33 888.643 603.833C887.702 602.732 886.928 602.113 887.016 600.5C887.091 599.115 887.896 598.605 888.826 597.75Z"/>
	<path fill="#060506" transform="scale(0.488281 0.488281)" d="M783.602 713.25C785.011 713.062 785.545 713.42 786.75 714.059C787.784 715.512 787.851 715.718 787.95 717.5C787.183 719.071 786.748 719.518 785.25 720.419C783.882 720.405 782.638 720.501 781.641 719.357C780.631 718.198 780.726 717.454 780.651 716C781.525 714.426 781.987 714.046 783.602 713.25Z"/>
	<path fill="#09172A" transform="scale(0.488281 0.488281)" d="M896.337 660.75L896.979 660.69C898.186 660.746 899.098 661.124 899.884 662.08C900.646 663.006 900.865 664.354 900.609 665.5C900.295 666.905 899.307 667.482 898.219 668.25C897.73 668.355 897.258 668.483 896.748 668.461C895.404 668.403 894.651 667.806 893.75 666.903C893.305 665.631 893.091 664.586 893.498 663.25C893.917 661.878 895.164 661.342 896.337 660.75Z"/>
	<path fill="#96998E" transform="scale(0.488281 0.488281)" d="M758.24 479.55L764.815 476.916L793.403 543.207L795.748 549.099L796.492 551.428C798.489 559.072 802.987 567.085 806.055 574.444C807.004 576.721 808.089 581.187 809.678 582.95L811.902 582.438C825.921 579.518 841.741 583.714 853.56 591.504C866.753 600.199 876.611 615.457 879.476 631L880.18 635.977C882.001 650.573 876.512 666.717 867.451 678.108C857.958 690.041 843.854 698.968 828.53 700.628C810.5 702.581 793.947 698.732 779.777 687.16C769.302 678.606 763.298 667.017 760.179 654.063C756.502 638.797 760.152 621.859 768.503 608.75C773.486 600.928 779.67 595.75 787.796 591.389L779.782 573.774C778.256 570.464 776.86 566.838 774.906 563.769L773.858 561.137L768.113 548.56L767.398 547.183L766.292 545.046L744.293 494.163L741.799 487.859L742.582 486.925L744.036 486.175C747.101 484.319 750.723 482.992 754.005 481.528L758.24 479.55Z"/>
	<path fill="#7B857F" transform="scale(0.488281 0.488281)" d="M821.208 610.575C830.807 611.224 836.497 613.837 842.854 621.25C843.473 621.972 843.953 622.701 844.458 623.5L844.837 624.085C846.396 626.52 847.528 629.028 848.475 631.75L848.72 632.431C851.243 639.703 849.776 648.127 846.376 654.833C842.999 661.495 837.085 667.14 829.87 669.344C821.428 671.923 812.607 671.575 804.745 667.312C797.374 663.315 792.111 655.89 789.917 647.891C787.739 639.948 789.911 631.45 794.11 624.577C795.568 622.191 797.203 620.286 799.288 618.433C802.267 625.709 806.336 639.615 814.017 642.815C816.12 643.691 819.358 644.026 821.456 642.971L822.193 642.558C825.323 640.929 827.339 638.968 828.653 635.663C829.409 633.76 829.002 632.498 828.632 630.548C827.355 623.834 823.902 616.843 821.208 610.575Z"/>
	<path fill="#F9F0C7" transform="scale(0.488281 0.488281)" d="M758.24 479.55L764.815 476.916L793.403 543.207L795.748 549.099L796.492 551.428C798.489 559.072 802.987 567.085 806.055 574.444C807.004 576.721 808.089 581.187 809.678 582.95L821.208 610.575C823.902 616.843 827.355 623.834 828.632 630.548C829.002 632.498 829.409 633.76 828.653 635.663C827.339 638.968 825.323 640.929 822.193 642.558L821.456 642.971C819.358 644.026 816.12 643.691 814.017 642.815C806.336 639.615 802.267 625.709 799.288 618.433L787.796 591.389L779.782 573.774C778.256 570.464 776.86 566.838 774.906 563.769L773.858 561.137L768.113 548.56L767.398 547.183L766.292 545.046L744.293 494.163L741.799 487.859L742.582 486.925L744.036 486.175C747.101 484.319 750.723 482.992 754.005 481.528L758.24 479.55Z"/>
	<path fill="#CCB584" transform="scale(0.488281 0.488281)" d="M742.582 486.925L744.036 486.175C747.886 490.976 749.912 497.173 752.346 502.786L766.632 536.846L792.697 591.163C799.815 606.325 805.972 622.676 814.327 637.159L814.721 637.854C815.585 639.347 816.97 641.421 818.709 641.973L822.193 642.558L821.456 642.971C819.358 644.026 816.12 643.691 814.017 642.815C806.336 639.615 802.267 625.709 799.288 618.433L787.796 591.389L779.782 573.774C778.256 570.464 776.86 566.838 774.906 563.769L773.858 561.137L768.113 548.56L767.398 547.183L766.292 545.046L744.293 494.163L741.799 487.859L742.582 486.925Z"/>
	<path fill="#04101A" transform="scale(0.488281 0.488281)" d="M685.82 338.651L709.686 400.644L721.435 395.522L722.44 395.417C723.182 396.146 723.237 396.06 723.519 397.132L732.181 420.082L733.039 420.06L746.262 415.148C746.647 417.447 747.306 419.414 748.134 421.578C750.907 430.817 755.026 439.821 758.795 448.687L770.569 475.456C768.731 475.983 766.716 476.78 764.815 476.916L758.24 479.55L754.005 481.528C750.723 482.992 747.101 484.319 744.036 486.175L742.582 486.925L741.799 487.859L744.293 494.163L766.292 545.046L767.398 547.183L766.931 547.29L764.463 548.116C762.09 548.778 760.595 548.601 758.538 547.393L754.958 545.197C745.513 538.6 734.111 534.945 722.562 537.027C713.477 538.665 704.514 541.964 696.918 547.266C690.642 554.317 685.861 562.458 681.639 570.873C669.831 594.405 664.163 620.928 665.647 647.244C667.853 686.377 686.334 725.539 715.748 751.674L732.539 764.828C732.229 765.113 732.136 765.244 731.685 765.403C729.127 766.304 724.748 765.818 721.977 765.807L699.378 765.62L643.559 765.463L307.977 764.976C305.712 764.962 304.125 764.974 302.071 763.887C289.559 772.562 275.738 779.497 261.425 784.727C244.934 789.577 227.538 793.865 210.25 793.896C205.754 793.904 201.13 793.274 196.644 792.91C193.782 791.535 188.26 791.526 185 790.962C178.127 789.775 171.494 787.704 164.701 786.194L141.529 776.85C123.028 767.155 104.867 754.347 91.0149 738.562C70.1236 714.755 55.6054 685.592 52.4646 653.836C51.2527 641.582 51.7914 629.803 52.6366 617.554C52.5214 615.71 53.0023 613.567 53.2348 611.727C54.0047 605.63 55.2576 599.715 56.9503 593.813L58.1316 589.541C59.507 583.17 62.3779 576.676 65.0938 570.76C70.4272 559.143 76.5144 547.775 84.3884 537.662C107.366 508.149 138.364 486.167 174.888 477.037C179.974 475.765 185.083 474.312 190.291 473.662C230.8 466.777 274.432 478.172 307.688 501.833C326.698 515.357 341.112 530.37 353.244 550.445L369.71 538.658L374.559 535.009C376.349 533.514 378.008 532.11 380.125 531.08C378.683 529.06 377.684 526.166 376.652 523.887L371.611 513.219C363.7 496.509 356.134 479.22 347.11 463.098L361.495 463.574C360.573 462.334 360.239 460.968 359.75 459.516L360.382 458.677C357.109 457.046 353.357 456.368 350.349 454.25C350.052 452.741 350.15 451.951 350.496 450.497C351.072 447.028 354.472 445.367 357.138 443.399L402.883 413.47C409.791 409.234 451.273 380.311 455.368 380.185L494.654 380.027L559.805 380.11L585.171 380.2C589.995 380.214 595.361 380.635 600.099 379.7C607.973 378.146 615.845 372.662 623.358 369.576C627.85 366.104 633.081 362.767 638.701 361.62C641.082 359.68 644.181 358.416 646.901 356.985L662.092 349.107C670.304 346.396 677.427 340.837 685.82 338.651Z"/>
	<path fill="#F0D79A" transform="scale(0.488281 0.488281)" d="M394.855 527.987C395.842 526.898 397.199 526.176 398.425 525.371L399.048 536.082C397.293 533.589 396.082 530.767 394.855 527.987Z"/>
	<path fill="#F0D79A" transform="scale(0.488281 0.488281)" d="M405.711 514.901C402.452 517.824 397.15 521.703 393 523.132L391.799 522.523C391.492 520.472 390.037 518.421 388.976 516.674C394.466 515.503 400.164 515.862 405.711 514.901Z"/>
	<path fill="#263E4B" transform="scale(0.488281 0.488281)" d="M490.105 544.447C488.849 545.238 488.188 545.392 486.74 545.75C481.022 547.165 474.931 549.863 469.922 552.971C467.914 554.217 465.924 555.586 464.147 557.147C462.492 558.601 460.263 561.687 458.113 561.809C461.958 555.136 468.558 550.074 475.746 547.522L476.362 547.307C480.875 545.686 485.353 544.968 490.105 544.447Z"/>
	<path fill="#F0D79A" transform="scale(0.488281 0.488281)" d="M565.505 420.6L575.75 421.041L576.363 422.577L576.47 428.334L565.961 434.969C565.138 430.425 565.556 425.234 565.505 420.6Z"/>
	<path fill="#F9F0C7" transform="scale(0.488281 0.488281)" d="M416.297 549.83L413.159 549.241C411.641 548.814 410.351 547.743 409.611 546.347C408.77 544.762 408.773 542.41 409.463 540.768C410.15 539.132 411.718 537.844 413.39 537.304C415.25 536.704 417.339 537.014 419.054 537.902C420.641 538.723 421.847 540.215 422.25 541.967C422.699 543.92 422.448 545.211 421.485 546.93C419.778 548.246 418.345 549.14 416.297 549.83Z"/>
	<path fill="#09172A" transform="scale(0.488281 0.488281)" d="M405.711 514.901C406.015 514.545 405.803 514.733 406.487 514.464C414.426 511.345 422.298 503.94 429.056 498.747C431.398 496.948 433.37 494.999 436.096 493.779C434.852 496.471 431.481 498.967 429.156 500.75L406.297 518.601C403.625 520.562 401.782 522.722 398.74 524.267L398.425 525.371C397.199 526.176 395.842 526.898 394.855 527.987L394.444 527.757C394.152 526.941 393.753 526.722 393.109 526.172C393.985 526.005 393.93 525.871 394.508 525.25L393.75 524.255L391.582 524.436L391.234 522.546L391.799 522.523L393 523.132C397.15 521.703 402.452 517.824 405.711 514.901Z"/>
	<path fill="#060506" transform="scale(0.488281 0.488281)" d="M264.914 648.231C264.273 648.798 264.188 649.03 263.945 649.899L263.75 650.703C259.664 651.923 254.932 649.681 250.75 651.584C248.348 652.676 246.999 652.893 244.451 652.349C242.246 651.878 239.474 651.714 237.815 650.002C237.128 649.293 237.199 647.455 237.292 646.5C237.411 645.263 237.892 644.199 239.002 643.568C240.082 642.954 241.888 642.798 243.078 643.034C250.344 644.474 255.869 648.199 263.613 647.776L264.131 647.741L264.914 648.231Z"/>
	<path fill="#C6CAB6" transform="scale(0.488281 0.488281)" d="M447.078 545.966C448.424 545.966 449.951 546.094 451.25 546.472C453.134 547.019 455.11 548.805 455.969 550.565C456.878 552.428 456.74 555.562 455.8 557.39C454.643 559.638 452.285 560.476 450.066 561.304C448.726 561.25 447.257 561.286 445.956 560.944C443.959 560.418 441.957 558.545 440.993 556.75C440.212 555.297 440.13 552.932 440.72 551.38C441.812 548.509 444.462 547.148 447.078 545.966Z"/>
	<path fill="#F9F0C7" transform="scale(0.488281 0.488281)" d="M446.006 549.555C448.186 548.824 448.582 548.738 450.809 549.25C451.448 550.367 451.921 550.552 451.6 551.849L450.543 551.814C449.024 550.41 447.504 551.451 446.006 549.555Z"/>
	<path fill="#F9F0C7" transform="scale(0.488281 0.488281)" d="M446.006 549.555C447.504 551.451 449.024 550.41 450.543 551.814L450.05 552.503C449.259 553.64 448.797 553.877 447.5 554.374L446.75 553.255L446.042 553.503C445.758 554.715 445.89 555.389 446.156 556.577L446.255 557L445.5 557.255L444.75 556.755C443.602 555.621 443.574 554.258 443.745 552.75C443.92 551.213 444.914 550.5 446.006 549.555Z"/>
	<path fill="#060506" transform="scale(0.488281 0.488281)" d="M565.881 680.587L566.329 680.601C567.767 680.632 568.864 680.491 570.253 680.125C569.036 680.833 567.822 681.368 566.581 682L565.921 682.409C563.856 683.394 561.334 682.363 559.25 683.086C556.991 683.869 550.362 683.536 547.933 683.098C547.146 682.956 546.69 683.083 545.923 683.185C541.304 683.801 535.92 683.277 531.234 683.28L497.526 683.285L446.505 683.314C438.21 683.313 429.15 684.073 421 682.939C418.713 682.621 414.313 683.46 412.5 682.255C411.249 682.251 411.093 682.374 410 681.755C409.548 681.499 409.004 681.402 408.514 681.256C407.824 681.05 407.326 680.658 406.745 680.25C407.612 680.249 407.69 680.397 408.443 680.76C409.91 681.465 411.116 681.265 412.673 681.045C413.662 680.636 416.807 681.007 417.972 681.008L436.485 680.982L542.147 680.73C549.812 680.68 558.386 681.8 565.881 680.587Z"/>
	<path fill="#9B251C" transform="scale(0.488281 0.488281)" d="M488.561 513.541C490.564 513.333 492.877 513.237 494.831 513.729C497.97 514.519 499.877 516.464 501.394 519.25C503.246 522.65 504.137 526.828 502.898 530.577C501.433 535.005 497.712 537.029 493.803 538.929C491.438 539.069 489.491 539.143 487.221 538.265C484.038 537.033 481.701 535.055 480.353 531.86C479.012 528.684 478.791 524.651 480.116 521.461C481.917 517.124 484.39 515.324 488.561 513.541Z"/>
	<path fill="#E64931" transform="scale(0.488281 0.488281)" d="M488.229 514.894L494.598 514.863C496.853 516.034 498.812 516.958 499.884 519.387C500.948 521.798 501.757 525.973 500.634 528.516C499.611 530.833 497.526 532.128 495.267 532.992C493.284 533.075 490.695 533.282 488.75 532.805C486.367 532.221 484.237 530.421 483.056 528.3C481.678 525.826 481.92 523.36 482.786 520.716C483.724 517.851 485.631 516.228 488.229 514.894Z"/>
	<path fill="#1D2C38" transform="scale(0.488281 0.488281)" d="M319.841 626.748L322.683 627.979C325.319 629.104 343.876 636.997 343.923 637.089L343.529 637.717C342.693 639.183 342.929 641.312 342.735 642.957L341.38 655.085L321.023 653.672L321.144 652.953L321.774 646.4L321.421 645.725C320.371 644.475 320.549 643.454 320.358 641.779C320.433 636.695 320.563 631.805 319.841 626.748Z"/>
	<path fill="#04101A" transform="scale(0.488281 0.488281)" d="M319.841 626.748L322.683 627.979L321.774 646.4L321.421 645.725C320.371 644.475 320.549 643.454 320.358 641.779C320.433 636.695 320.563 631.805 319.841 626.748Z"/>
	<path fill="#1D2C38" transform="scale(0.488281 0.488281)" d="M537.814 529.64L538.274 529.249C541.245 526.679 543.789 523.666 546.343 520.691L612.15 556.071L605.647 561.764L537.814 529.64Z"/>
	<path fill="#263E4B" transform="scale(0.488281 0.488281)" d="M644.081 557.241L644.192 557.661C643.171 559.688 641.473 563.481 639.705 564.779L551.801 515.521C552.814 513.772 554.021 510.854 555.75 509.918L558.779 511.573L559.978 510.285L577.164 519.835L624.598 545.728L637.57 552.381C639.66 553.402 642.691 554.452 644.492 555.881L644.081 557.241Z"/>
	<path fill="#04101A" transform="scale(0.488281 0.488281)" d="M559.978 510.285L577.164 519.835L624.598 545.728L637.57 552.381C639.66 553.402 642.691 554.452 644.492 555.881L644.081 557.241L558.779 511.573L559.978 510.285Z"/>
	<path fill="#3F3635" transform="scale(0.488281 0.488281)" d="M391.582 524.436L393.75 524.255L394.508 525.25C393.93 525.871 393.985 526.005 393.109 526.172C393.753 526.722 394.152 526.941 394.444 527.757L393.545 528.07C394.669 529.271 395.078 529.901 395.433 531.503C396.015 534.132 398.204 536.666 399.508 539C401.203 542.033 402.45 546.156 404.66 548.77L404.875 547.935C405.627 549.398 406.394 550.568 407.328 551.911C408.619 553.767 409.586 555.274 411.252 556.875L413.75 554.255L414.5 554.25L414.923 553.766L418.375 550.247L417.799 550.342C416.364 550.565 415.395 550.762 414.002 550.189L416.297 549.83C418.345 549.14 419.778 548.246 421.485 546.93L423.469 547.096L393.607 573.546L377.522 540.507C377.326 540.05 377.04 539.701 376.748 539.302L376 540.25L375.246 540.031L377.491 537.178C374.592 538.358 372.885 539.001 369.71 538.658L374.559 535.009C376.349 533.514 378.008 532.11 380.125 531.08C384.058 530.106 388.196 526.694 391.582 524.436Z"/>
	<path fill="#04101A" transform="scale(0.488281 0.488281)" d="M391.582 524.436L393.75 524.255L394.508 525.25C393.93 525.871 393.985 526.005 393.109 526.172C393.753 526.722 394.152 526.941 394.444 527.757L393.545 528.07C390.864 529.781 384.147 533.128 382.639 535.719L397.186 567.132L410.112 556.973C408.343 554.855 405.299 551.484 404.66 548.77L404.875 547.935C405.627 549.398 406.394 550.568 407.328 551.911C408.619 553.767 409.586 555.274 411.252 556.875L413.75 554.255L414.5 554.25L414.923 553.766L418.375 550.247L417.799 550.342C416.364 550.565 415.395 550.762 414.002 550.189L416.297 549.83C418.345 549.14 419.778 548.246 421.485 546.93L423.469 547.096L393.607 573.546L377.522 540.507C377.326 540.05 377.04 539.701 376.748 539.302L376 540.25L375.246 540.031L377.491 537.178C374.592 538.358 372.885 539.001 369.71 538.658L374.559 535.009C376.349 533.514 378.008 532.11 380.125 531.08C384.058 530.106 388.196 526.694 391.582 524.436Z"/>
	<path fill="#1D2C38" transform="scale(0.488281 0.488281)" d="M391.582 524.436L393.75 524.255L394.508 525.25C393.93 525.871 393.985 526.005 393.109 526.172L388.739 528.817C384.837 530.91 381.116 534.123 377.578 536.839L377.491 537.178C374.592 538.358 372.885 539.001 369.71 538.658L374.559 535.009C376.349 533.514 378.008 532.11 380.125 531.08C384.058 530.106 388.196 526.694 391.582 524.436Z"/>
	<path fill="#263E4B" transform="scale(0.488281 0.488281)" d="M580.932 461.433L668.529 512.677L663.853 521.25L662.986 522.038C659.698 521.014 655.81 517.654 652.831 515.774L622.771 496.733L577.076 469.99L580.932 461.433Z"/>
	<path fill="#3F3635" transform="scale(0.488281 0.488281)" d="M347.11 463.098L361.495 463.574C364.557 466.675 366.818 472.961 368.689 476.91L378.866 497.722L385.957 512.406C386.819 514.039 387.409 515.92 388.801 517.18L388.976 516.674C390.037 518.421 391.492 520.472 391.799 522.523L391.234 522.546L391.582 524.436C388.196 526.694 384.058 530.106 380.125 531.08C378.683 529.06 377.684 526.166 376.652 523.887L371.611 513.219C363.7 496.509 356.134 479.22 347.11 463.098Z"/>
	<path fill="#263E4B" transform="scale(0.488281 0.488281)" d="M625.896 444.157L626.161 443.719C625.705 443.267 625.335 442.895 624.753 442.603L623.247 441.875C624.104 441.815 624.748 441.894 625.57 442.106L627.375 442.502C631.35 443.074 636.441 446.1 640.108 447.89L673.399 465.125C677.87 467.711 681.919 471.397 683.166 476.597C685.098 484.653 678.412 495.652 674.35 502.469L577.602 448.127C578.112 446.3 579.54 444.659 580.624 443.12L641.979 476.31L657.527 485.563C660.5 487.343 663.851 489.618 667.118 490.773C668.919 491.41 671.327 491.341 673.115 490.657C675.183 489.865 677.092 488.168 677.835 486.053C679.259 482.002 677.884 477.723 675.937 474.106C675.187 472.713 674.225 471.481 673.25 470.241L670.204 469.435C669.359 468.29 668.487 467.045 667.328 466.196C663.563 463.44 658.54 461.618 654.326 459.545C644.877 454.898 634.631 450.003 625.896 444.157Z"/>
	<path fill="#263E4B" transform="scale(0.488281 0.488281)" d="M576.335 471.185L662.662 523.619L658.485 531.699L657.401 531.75C651.557 527.233 644.557 523.525 638.141 519.844L611.217 504.876L570.428 482.572L576.335 471.185Z"/>
	<path fill="#263E4B" transform="scale(0.488281 0.488281)" d="M569.716 483.543L640.024 523.008L652.77 530.164C654.435 531.144 656.525 532.028 657.866 533.413L651.477 544.148L563.288 494.817L569.716 483.543Z"/>
	<path fill="#263E4B" transform="scale(0.488281 0.488281)" d="M559.978 510.285L556.136 508.184L562.644 495.747L651.022 545.257C649.639 547.625 646.714 554.818 644.492 555.881C642.691 554.452 639.66 553.402 637.57 552.381L624.598 545.728L577.164 519.835L559.978 510.285Z"/>
	<path fill="#263E4B" transform="scale(0.488281 0.488281)" d="M576.667 449.041L673.941 503.29L669.091 511.906L615.742 480.594C603.572 472.959 589.735 466.916 578.263 458.317C575.78 460.64 573.823 465.669 572.059 468.719L552.25 503.525C550.494 506.618 548.699 511.422 546.247 513.889L542.074 511.589C542.371 509.713 543.728 507.766 544.638 506.11L550.851 495.252L576.667 449.041Z"/>
	<path fill="#F0D79A" transform="scale(0.488281 0.488281)" d="M181.383 551.531C185.004 549.691 189.358 548.844 193.338 548.102C207.474 545.468 221.374 546.116 235.097 550.509C236.664 551.011 242.655 552.684 243.388 554.048C242.671 557.674 242.55 561.377 241.551 564.912L227.387 585.671C220.656 583.8 213.791 582.262 206.76 582.621C203.551 582.785 200.377 583.392 197.253 584.127C196.621 584.276 193.743 585.264 193.499 585.173C193.084 585.019 189.643 578.378 189.14 577.488C186.974 573.652 185.342 569.901 183.826 565.771C181.622 561.807 181.819 556.019 181.383 551.531Z"/>
	<path fill="#96998E" transform="scale(0.488281 0.488281)" d="M206.64 614.127C212.569 613.685 217.838 615.139 222.75 618.459C228.584 622.402 232.634 628.569 233.863 635.509C235.024 642.067 233.13 648.627 229.214 653.945C224.811 659.924 219.298 663.062 211.974 664.202C206.163 664.78 200.211 663.639 195.25 660.483C189.794 657.011 185.962 651.315 184.608 645.007C183.181 638.359 184.298 631.107 188.099 625.426C192.468 618.898 199.086 615.469 206.64 614.127Z"/>
	<path fill="#263E4B" transform="scale(0.488281 0.488281)" d="M205.772 623.507C209.425 623.495 212.033 623.192 215.491 624.759C219.179 626.431 222.223 629.422 223.652 633.253C225.265 637.578 224.948 642.318 223.065 646.5C220.816 651.496 216.831 653.543 211.973 655.345C210.255 655.474 208.403 655.703 206.687 655.512C202.602 655.056 198.273 652.454 195.959 649.095C193.603 645.676 192.562 640.999 193.272 636.898L193.395 636.25C193.704 634.511 194.134 632.824 194.97 631.25C197.247 626.966 201.356 624.883 205.772 623.507Z"/>
	<path fill="#4A5A61" transform="scale(0.488281 0.488281)" d="M580.624 443.12L587.4 431.995C588.184 430.578 589.215 427.58 590.25 426.475C590.496 426.213 590.917 426.207 591.25 426.073L593.099 427.789L625.896 444.157C634.631 450.003 644.877 454.898 654.326 459.545C658.54 461.618 663.563 463.44 667.328 466.196C668.487 467.045 669.359 468.29 670.204 469.435L673.25 470.241C674.225 471.481 675.187 472.713 675.937 474.106C677.884 477.723 679.259 482.002 677.835 486.053C677.092 488.168 675.183 489.865 673.115 490.657C671.327 491.341 668.919 491.41 667.118 490.773C663.851 489.618 660.5 487.343 657.527 485.563L641.979 476.31L580.624 443.12Z"/>
	<path fill="#96998E" transform="scale(0.488281 0.488281)" d="M593.099 427.789L625.896 444.157C634.631 450.003 644.877 454.898 654.326 459.545C658.54 461.618 663.563 463.44 667.328 466.196C668.487 467.045 669.359 468.29 670.204 469.435L674.295 478.298L589.389 432.688L593.099 427.789Z"/>
	<path fill="#F0D79A" transform="scale(0.488281 0.488281)" d="M233.939 704.64L234.715 704.161L229.537 690.369L232.71 689.028C247.691 682.401 256.378 671.348 262.146 656.344L289.823 658.751C292.14 658.931 297.63 658.671 299.5 659.508C299.846 659.662 300.048 660.031 300.322 660.293C292.907 681.579 281.845 698.703 263.437 712.051C259.944 714.583 255.775 717.782 251.79 719.46L251.38 719.596L249.533 715.941C248.322 713.984 247.071 713.287 244.926 712.845L246.039 712C244.379 709.118 239.608 706.629 236.596 705.582L233.939 704.64Z"/>
	<path fill="#96998E" transform="scale(0.488281 0.488281)" d="M525.339 450.244L525.617 449.942C530.255 444.963 535.527 440.378 540.522 435.75C544.55 432.019 548.477 427.931 552.919 424.71C555.215 427.211 559.291 430.604 560.702 433.595C539.136 450.898 520.054 471.971 500 491.018L482.734 506.609L463.465 525.025L441.937 544.346L434.035 552.546L408.147 576.597C400.882 583.419 393.798 590.58 385.944 596.723C385.327 597.206 385.555 597.019 384.931 597.712L375.446 594.33C373.471 593.742 371.996 593.243 370.34 591.998L371.185 591.724C373.267 590.971 375.277 589.154 377.022 587.798L388.359 578.334C390.113 576.835 392.656 575.626 393.607 573.546L423.469 547.096L434.9 536.096L471.014 502.405L496.147 478.439C498.951 474.959 502.915 471.783 506.17 468.657L525.339 450.244Z"/>
	<path fill="#C6CAB6" transform="scale(0.488281 0.488281)" d="M471.014 502.405L471.766 503.697L472.246 503.259C472.839 502.756 473.237 502.567 473.955 502.319L435.928 537.108L434.9 536.096L471.014 502.405Z"/>
	<path fill="#CECFB0" transform="scale(0.488281 0.488281)" d="M525.339 450.244L525.688 451.133L521.75 455.255L522.385 455.875L502.397 475.389C499.969 477.682 497.685 480.369 495.061 482.416C488.674 489.751 480.941 495.623 473.955 502.319C473.237 502.567 472.839 502.756 472.246 503.259L471.766 503.697L471.014 502.405L496.147 478.439C498.951 474.959 502.915 471.783 506.17 468.657L525.339 450.244Z"/>
	<path fill="#CECFB0" transform="scale(0.488281 0.488281)" d="M434.9 536.096L435.928 537.108L418.398 554.534C414.253 558.422 375.501 592.512 375.446 594.33C373.471 593.742 371.996 593.243 370.34 591.998L371.185 591.724C373.267 590.971 375.277 589.154 377.022 587.798L388.359 578.334C390.113 576.835 392.656 575.626 393.607 573.546L423.469 547.096L434.9 536.096Z"/>
	<path fill="#E8AA6C" transform="scale(0.488281 0.488281)" d="M431.687 669.005L517.917 668.543L541.444 668.542C545.767 668.541 551.852 669.338 555.856 667.701C562.514 664.978 565.211 657.102 570.134 652.132C572.642 649.601 576.642 647.77 578.648 644.928C580.324 642.551 581.203 639.16 582.321 636.474L589.902 619.928C590.53 618.633 591.747 615.517 592.81 614.58C593.962 613.563 597.907 612.643 599.5 611.976C601.161 611.28 603.212 610.3 604.339 608.847C606.398 606.191 607.696 602.208 609.202 599.196C614.801 588 620.76 576.885 625.61 565.332C627.257 566.217 628.792 566.903 629.96 568.399C626.792 573.268 624.335 578.831 621.725 584.027L608.871 609.985C605.045 617.878 600.217 626.127 597.281 634.353L596.801 635.147C591.863 643.471 588.263 653.237 584.154 662.039C582.1 666.439 580.507 670.978 576.916 674.39C573.737 677.411 569.879 678.964 565.881 680.587C558.386 681.8 549.812 680.68 542.147 680.73L436.485 680.982L417.972 681.008C416.807 681.007 413.662 680.636 412.673 681.045C410.705 680.544 408.474 680.038 406.821 678.814C403.451 676.319 402.45 671.3 400.479 667.779C398.76 664.708 396.285 661.863 394.108 659.098C398.835 658.322 403.411 661.193 407.835 662.715C415.408 665.32 423.642 668.657 431.687 669.005Z"/>
	<path fill="#D79255" transform="scale(0.488281 0.488281)" d="M402.883 413.47L481.059 453.758C482.531 455.265 483.761 456.494 484.629 458.448L454.107 480.737C448.536 484.834 442.218 490.291 436.128 493.447C434.38 492.036 431.736 491.222 429.689 490.298L417.521 484.786C398.635 476.008 379.774 466.241 360.382 458.677C357.109 457.046 353.357 456.368 350.349 454.25C350.052 452.741 350.15 451.951 350.496 450.497C351.072 447.028 354.472 445.367 357.138 443.399L402.883 413.47Z"/>
	<path fill="#E97825" transform="scale(0.488281 0.488281)" d="M350.496 450.497C351.879 449.752 352.782 449.348 354.388 449.75L434.054 484.835C438.258 482.589 442.041 479.738 445.995 477.096L465.614 463.841C470.431 460.439 475.742 456.261 481.059 453.758C482.531 455.265 483.761 456.494 484.629 458.448L454.107 480.737C448.536 484.834 442.218 490.291 436.128 493.447C434.38 492.036 431.736 491.222 429.689 490.298L417.521 484.786C398.635 476.008 379.774 466.241 360.382 458.677C357.109 457.046 353.357 456.368 350.349 454.25C350.052 452.741 350.15 451.951 350.496 450.497Z"/>
	<path fill="#9B251C" transform="scale(0.488281 0.488281)" d="M685.82 338.651L709.686 400.644C706.765 401.814 701.956 403.276 700.546 406.303C699.532 408.481 700.191 411.054 701.065 413.169L704.613 420.985L576.913 420.798L576.363 422.577L575.75 421.041L565.505 420.6L563.5 420.346C561.437 420.129 559.433 420.147 557.705 418.826C555.84 417.4 556.058 415.653 555.866 413.512C557.687 411.747 561.607 410.642 564.036 410.03L564.92 409.814C570.244 408.481 576.151 408.62 581.618 408.583C597.733 408.475 619.125 410.646 633.491 402.175L630.647 400.496C625.968 398.223 622.579 393.52 620.946 388.672C618.508 381.439 620.175 376.165 623.358 369.576C627.85 366.104 633.081 362.767 638.701 361.62C641.082 359.68 644.181 358.416 646.901 356.985L662.092 349.107C670.304 346.396 677.427 340.837 685.82 338.651Z"/>
	<path fill="#E64931" transform="scale(0.488281 0.488281)" d="M662.092 349.107C666.537 358.946 671.646 371.756 667.488 382.413C665.071 388.606 661.139 394.849 654.794 397.522L652.644 398.383L656.096 393.844C659.091 388.898 660.301 383.351 658.802 377.719L658.539 376.75C657.713 373.632 656.602 371.006 654.551 368.473C651.096 364.205 646.45 362.338 641.124 361.829L638.701 361.62C641.082 359.68 644.181 358.416 646.901 356.985L662.092 349.107Z"/>
	<path fill="#CCB584" transform="scale(0.488281 0.488281)" d="M641.124 361.829C646.45 362.338 651.096 364.205 654.551 368.473C656.602 371.006 657.713 373.632 658.539 376.75L658.802 377.719C660.301 383.351 659.091 388.898 656.096 393.844L652.644 398.383C645.786 402.674 641.464 403.693 633.491 402.175L630.647 400.496C636.72 395.907 642.208 390.082 644.04 382.476L644.207 381.75C645.766 375.149 643.685 367.89 641.124 361.829Z"/>
	<path fill="#E8AA6C" transform="scale(0.488281 0.488281)" d="M623.358 369.576C627.85 366.104 633.081 362.767 638.701 361.62L641.124 361.829C643.685 367.89 645.766 375.149 644.207 381.75L644.04 382.476C642.208 390.082 636.72 395.907 630.647 400.496C625.968 398.223 622.579 393.52 620.946 388.672C618.508 381.439 620.175 376.165 623.358 369.576Z"/>
	<defs>
		<linearGradient id="gradient_4" gradientUnits="userSpaceOnUse" x1="480.70035" y1="651.54633" x2="530.25494" y2="527.31232">
			<stop offset="0" stop-color="#122532"/>
			<stop offset="1" stop-color="#2A4A58"/>
		</linearGradient>
	</defs>
	<path fill="url(#gradient_4)" transform="scale(0.488281 0.488281)" d="M537.814 529.64L605.647 561.764C602.66 564.328 596.982 568.122 595.194 571.488C596.375 577.2 598.43 582.892 597.025 588.75L596.855 589.603C596.362 591.696 595.287 593.768 594.026 595.5C589.038 602.356 582.775 608.394 577.231 614.803L560.654 634.604C557.754 637.94 554.652 642.009 550.742 644.204C540.477 649.967 529.541 651.555 517.997 652.33C504.317 653.249 490.247 652.269 477 648.582L444.262 638.193C444.559 636.64 444.713 635.203 444.758 633.623C444.596 631.685 444.256 629.967 443.54 628.148C440.379 620.11 433.428 618.365 426.241 615.222C425.781 611.507 422.615 609.575 420.277 606.801C418.379 604.549 416.797 602.113 415.563 599.439C413.868 595.766 413.163 592.57 414.697 588.705C415.473 586.753 416.842 585.106 418.523 583.858C422.108 581.196 426.847 579.612 430.833 577.579C438.743 573.545 446.154 569.108 454.386 565.676L455.129 566.145C454.367 568.496 452.954 570.721 451.956 573C450.354 576.66 449.252 580.056 448.289 583.91L447.675 586.592C445.176 600.89 449.398 613.75 457.476 625.5C459.531 628.489 462.197 631.252 464.962 633.594C473.626 640.932 487.218 646.761 498.755 645.595L499.75 645.484C508.069 644.599 515.924 641.959 522.846 637.198C532.252 630.727 542.413 619.826 544.064 607.995C545.651 596.626 545.817 586.458 541.996 575.5C537.337 562.141 525.713 551.786 512.402 547.474C508.762 546.295 504.445 546.187 501.078 544.574L500.646 544.361C509.384 544.721 517.055 546.936 525.126 550.144C527.692 546.729 529.956 543.181 531.953 539.402C533.666 536.159 534.963 532.929 537.385 530.125L537.814 529.64Z"/>
	<path fill="#04101A" transform="scale(0.488281 0.488281)" d="M577.737 572.072C580.038 571.95 582.463 571.855 584.75 572.2C587.654 572.639 591.012 574.811 592.714 577.183C594.877 580.197 595.791 584.056 595.256 587.701L595.127 588.5C594.96 589.596 594.747 590.487 594.308 591.516C592.338 596.14 589.218 599.235 584.595 601.124C581.786 601.18 578.857 601.383 576.219 600.254C572.188 598.528 568.023 595.106 566.733 590.723C565.679 587.141 566.79 582.206 568.421 579C570.396 575.115 573.733 573.291 577.737 572.072Z"/>
	<path fill="#FEFEF8" transform="scale(0.488281 0.488281)" d="M573.118 578.589L575.081 577.13C578.305 575.154 581.08 575.089 584.667 575.954C583.148 577.065 581.758 577.799 580 578.468L579.535 578.391C577.432 578.073 576.258 578.408 574.445 579.546L573.118 578.589Z"/>
	<path fill="#F9F0C7" transform="scale(0.488281 0.488281)" d="M573.118 578.589L574.445 579.546C571.46 583.088 574.981 588.647 571.183 591.565C570.881 590.896 570.683 590.268 570.546 589.545C569.699 585.082 570.613 582.249 573.118 578.589Z"/>
	<path fill="#CECFB0" transform="scale(0.488281 0.488281)" d="M584.667 575.954C587.643 577.49 589.442 579.083 590.949 582.09C592.191 585.131 592.386 587.915 591.114 591C589.907 593.924 588.024 595.706 585.347 597.287C582.624 597.969 580.454 598.173 577.692 597.604C574.362 596.098 572.969 594.754 571.183 591.565C574.981 588.647 571.46 583.088 574.445 579.546C576.258 578.408 577.432 578.073 579.535 578.391L580 578.468C581.758 577.799 583.148 577.065 584.667 575.954Z"/>
	<path fill="#1D2C38" transform="scale(0.488281 0.488281)" d="M583.274 582.057L583.054 583.013L583.678 583.538C584.493 584.174 585.128 584.435 586.088 584.764L586.064 586.557L586.148 587.75L585.343 588.486L584.985 588.46C583.136 589.192 581.43 589.938 579.71 590.942L578.365 588C580.358 585.487 580.028 583.561 583.274 582.057Z"/>
	<path fill="#C6CAB6" transform="scale(0.488281 0.488281)" d="M583.054 583.013L583.678 583.538C584.493 584.174 585.128 584.435 586.088 584.764L586.064 586.557C585.643 586.785 585.51 586.894 584.973 586.972C583.511 587.183 581.625 586.945 580.481 586C581.014 584.527 581.869 583.938 583.054 583.013Z"/>
	<path fill="#F9F0C7" transform="scale(0.488281 0.488281)" d="M579.71 590.942C581.43 589.938 583.136 589.192 584.985 588.46C585.694 589.223 586.202 589.353 586.16 590.437C586.07 592.791 585.782 594.972 585.347 597.287C582.624 597.969 580.454 598.173 577.692 597.604C577.625 596.961 577.566 596.395 577.672 595.75C577.939 594.125 578.401 591.989 579.71 590.942Z"/>
	<path fill="#09172A" transform="scale(0.488281 0.488281)" d="M490.105 544.447C492.128 543.249 497.424 543.891 499.947 543.88L500.646 544.361L501.078 544.574C504.445 546.187 508.762 546.295 512.402 547.474C525.713 551.786 537.337 562.141 541.996 575.5C545.817 586.458 545.651 596.626 544.064 607.995C542.413 619.826 532.252 630.727 522.846 637.198C515.924 641.959 508.069 644.599 499.75 645.484L498.755 645.595C487.218 646.761 473.626 640.932 464.962 633.594C462.197 631.252 459.531 628.489 457.476 625.5C449.398 613.75 445.176 600.89 447.675 586.592L448.289 583.91C449.252 580.056 450.354 576.66 451.956 573C452.954 570.721 454.367 568.496 455.129 566.145L454.386 565.676C455.844 564.546 456.655 562.893 458.113 561.809C460.263 561.687 462.492 558.601 464.147 557.147C465.924 555.586 467.914 554.217 469.922 552.971C474.931 549.863 481.022 547.165 486.74 545.75C488.188 545.392 488.849 545.238 490.105 544.447Z"/>
	<path fill="#7B857F" transform="scale(0.488281 0.488281)" d="M494.312 549.696C498.144 549.229 502.227 549.78 505.966 550.677C518.26 553.624 528.239 560.715 534.836 571.548C540.736 581.236 542.544 594.54 539.721 605.527L539.466 606.5C537.959 612.446 535.61 617.649 531.906 622.536C524.102 632.832 512.983 638.152 500.442 639.926C495.411 640.021 490.491 640.067 485.601 638.729L484.75 638.489C478.723 636.821 473.57 634.451 468.604 630.651C459.443 623.643 453.988 612.606 452.511 601.304C450.833 588.464 453.174 576.147 461.272 565.864C468.982 556.074 482.283 550.967 494.312 549.696Z"/>
	<path fill="#4A5A61" transform="scale(0.488281 0.488281)" d="M491.246 562.568C494.338 562.183 498.438 562.117 501.506 562.755L502.25 562.924C509.835 564.602 517.4 568.546 522.023 574.994L522.41 575.55C524.576 578.614 526.299 581.885 527.356 585.504C529.727 593.627 529.008 603.229 524.73 610.605C519.364 619.856 512.26 624.436 502.091 627.1C498.283 627.609 493.979 627.885 490.184 627.234L489.5 627.107C484.783 626.278 479.961 624.452 476.208 621.393L475.586 620.876C469.877 616.219 466.082 610.203 464.572 602.941C462.821 594.519 464.665 584.09 469.364 576.952C474.765 568.748 481.817 564.539 491.246 562.568Z"/>
	<path fill="#F0D79A" transform="scale(0.488281 0.488281)" d="M176.478 552.976C177.937 553.011 179.919 551.96 181.383 551.531C181.819 556.019 181.622 561.807 183.826 565.771L182.717 566.24C183.882 569.066 185.17 571.688 185.01 574.811C184.808 578.762 186.895 583.118 188.234 586.772C185.708 588.588 182.516 589.56 179.84 591.219C171.31 596.508 164.694 604.514 160.147 613.387L146.314 608.099L158.497 618.386C156.791 625.046 155.231 631.055 155.375 638C155.435 640.879 155.673 643.732 156.074 646.583C156.161 647.208 156.734 649.423 156.58 649.939C156.421 650.475 154.262 651.769 153.764 652.115C151.048 654.001 148.315 655.923 145.765 658.03L157.899 655.54C162.361 669.532 170.663 680.955 183.984 687.834L187.767 689.524L180.936 705.604C185.673 701.108 189.728 696.522 193.61 691.257C203.868 693.279 213.727 693.67 223.993 691.428C226.59 696.199 229.457 701.386 233.939 704.64L236.596 705.582C239.608 706.629 244.379 709.118 246.039 712L244.926 712.845C247.071 713.287 248.322 713.984 249.533 715.941L251.38 719.596C249.514 720.058 248.275 720.73 246.672 721.78C244.341 723.48 241.431 724.298 238.696 725.146C232.486 727.071 226.335 728.315 219.904 729.209C208.804 730.752 196.68 729.26 185.86 726.533C181.815 725.514 177.377 724.307 173.717 722.295C171.438 721.733 169.498 721.457 168.043 719.544C166.934 719.487 165.964 718.852 164.995 718.333C144.37 707.282 127.268 686.527 120.667 664.039C114.571 643.266 114.991 618.06 125.57 598.777L127.285 595.526C127.356 594.941 127.333 594.895 127.574 594.25C128.583 591.548 131.107 588.422 132.801 586.078C143.912 570.7 159.096 560.138 176.478 552.976Z"/>
	<path fill="#060506" transform="scale(0.488281 0.488281)" d="M128.586 662.25C129.661 661.942 129.736 661.959 130.75 662.237C131.908 663.893 131.997 664.227 132.121 666.25C130.926 667.46 129.122 667.852 127.543 668.377L125.75 668.441C124.818 667.336 124.74 667.18 124.543 665.75C125.611 664.123 126.98 663.306 128.586 662.25Z"/>
	<path fill="#09172A" transform="scale(0.488281 0.488281)" d="M127.285 595.526C130.107 597.335 133.815 599.195 135.958 601.75L135.75 602.976C134.339 603.803 133.73 603.849 132.119 603.323C129.872 602.589 127.433 600.245 125.57 598.777L127.285 595.526Z"/>
	<path fill="#1D2C38" transform="scale(0.488281 0.488281)" d="M176.478 552.976C177.937 553.011 179.919 551.96 181.383 551.531C181.819 556.019 181.622 561.807 183.826 565.771L182.717 566.24C182.032 564.503 181.462 562.889 180.25 561.444C178.217 559.021 177.986 555.773 176.478 552.976Z"/>
	<path fill="#09172A" transform="scale(0.488281 0.488281)" d="M244.926 712.845C247.071 713.287 248.322 713.984 249.533 715.941L251.38 719.596C249.514 720.058 248.275 720.73 246.672 721.78C245.09 719.981 243.775 718.578 243.008 716.25C243.285 714.272 243.569 714.202 244.926 712.845Z"/>
	<path fill="#09172A" transform="scale(0.488281 0.488281)" d="M168.043 719.544C168.876 717.389 169.411 715.594 171.25 714.073C172.614 713.911 173.794 713.695 174.972 714.597L176.477 716.25C176.197 718.645 175.041 720.332 173.717 722.295C171.438 721.733 169.498 721.457 168.043 719.544Z"/>
	<defs>
		<linearGradient id="gradient_5" gradientUnits="userSpaceOnUse" x1="223.00021" y1="531.56439" x2="195.58443" y2="744.51086">
			<stop offset="0" stop-color="#525B5F"/>
			<stop offset="1" stop-color="#717879"/>
		</linearGradient>
	</defs>
	<path fill="url(#gradient_5)" transform="scale(0.488281 0.488281)" d="M176.013 741.031C156.245 734.081 138.824 722.924 125.334 706.749C106.324 683.957 98.2969 654.057 101.152 624.745C103.824 597.32 118.93 571.992 140.115 554.798C162.574 536.568 191.399 527.554 220.223 530.618C237.81 533.349 253.72 539.148 268.264 549.665C272.528 552.749 277.156 557.762 281.941 559.811L278.538 563.102L273.804 569.791L274.274 570.074C279.715 573.244 286.059 574.655 291.559 577.767L288.546 585.042C288.433 586.587 287.67 588.263 287.165 589.74L268.924 581.31L272.08 573.03L266.481 568.079C263.993 568.395 261.372 567.859 258.881 567.64C254.156 567.226 247.641 566.801 242.999 567.756C242.162 567.928 241.536 567.959 240.682 567.928L241.73 565.394L241.551 564.912C242.55 561.377 242.671 557.674 243.388 554.048C242.655 552.684 236.664 551.011 235.097 550.509C221.374 546.116 207.474 545.468 193.338 548.102C189.358 548.844 185.004 549.691 181.383 551.531C179.919 551.96 177.937 553.011 176.478 552.976C159.096 560.138 143.912 570.7 132.801 586.078C131.107 588.422 128.583 591.548 127.574 594.25C127.333 594.895 127.356 594.941 127.285 595.526L125.57 598.777C114.991 618.06 114.571 643.266 120.667 664.039C127.268 686.527 144.37 707.282 164.995 718.333C165.964 718.852 166.934 719.487 168.043 719.544C169.498 721.457 171.438 721.733 173.717 722.295C177.377 724.307 181.815 725.514 185.86 726.533C196.68 729.26 208.804 730.752 219.904 729.209C226.335 728.315 232.486 727.071 238.696 725.146C241.431 724.298 244.341 723.48 246.672 721.78C248.275 720.73 249.514 720.058 251.38 719.596L251.79 719.46C255.775 717.782 259.944 714.583 263.437 712.051C281.845 698.703 292.907 681.579 300.322 660.293C301.834 660.604 303.165 660.376 304.679 660.159L317.51 660.601C315.363 667.008 313.48 673.487 310.748 679.683C300.294 703.394 281.65 723.651 258.391 735.265L245.348 740.736C226.769 746.393 208.889 748.001 189.645 744.564C185.042 743.742 180.515 742.282 176.013 741.031Z"/>
	<defs>
		<linearGradient id="gradient_6" gradientUnits="userSpaceOnUse" x1="270.64877" y1="561.20294" x2="149.83595" y2="712.06982">
			<stop offset="0" stop-color="#070E20"/>
			<stop offset="1" stop-color="#152D48"/>
		</linearGradient>
	</defs>
	<path fill="url(#gradient_6)" transform="scale(0.488281 0.488281)" d="M304.679 660.159C300.411 670.601 297.389 680.882 290.721 690.232C275.823 711.126 252.163 727.724 226.632 731.923C201.297 736.09 174.392 729.965 153.5 714.927C133.17 700.294 117.891 676.851 113.855 652C110.002 628.274 115.92 602.872 130.132 583.416C140.836 568.762 157.614 555.892 174.579 549.472C181.191 546.969 188.053 545.519 195 544.338C210.059 541.777 226.475 543.259 240.726 548.821C247.393 551.423 254.915 554.991 260.365 559.653C264.976 562.301 269.965 566.102 273.804 569.791L274.274 570.074C279.715 573.244 286.059 574.655 291.559 577.767L288.546 585.042C288.433 586.587 287.67 588.263 287.165 589.74L268.924 581.31L272.08 573.03L266.481 568.079C263.993 568.395 261.372 567.859 258.881 567.64C254.156 567.226 247.641 566.801 242.999 567.756C242.162 567.928 241.536 567.959 240.682 567.928L241.73 565.394L241.551 564.912C242.55 561.377 242.671 557.674 243.388 554.048C242.655 552.684 236.664 551.011 235.097 550.509C221.374 546.116 207.474 545.468 193.338 548.102C189.358 548.844 185.004 549.691 181.383 551.531C179.919 551.96 177.937 553.011 176.478 552.976C159.096 560.138 143.912 570.7 132.801 586.078C131.107 588.422 128.583 591.548 127.574 594.25C127.333 594.895 127.356 594.941 127.285 595.526L125.57 598.777C114.991 618.06 114.571 643.266 120.667 664.039C127.268 686.527 144.37 707.282 164.995 718.333C165.964 718.852 166.934 719.487 168.043 719.544C169.498 721.457 171.438 721.733 173.717 722.295C177.377 724.307 181.815 725.514 185.86 726.533C196.68 729.26 208.804 730.752 219.904 729.209C226.335 728.315 232.486 727.071 238.696 725.146C241.431 724.298 244.341 723.48 246.672 721.78C248.275 720.73 249.514 720.058 251.38 719.596L251.79 719.46C255.775 717.782 259.944 714.583 263.437 712.051C281.845 698.703 292.907 681.579 300.322 660.293C301.834 660.604 303.165 660.376 304.679 660.159Z"/>
	<path fill="#F0D79A" transform="scale(0.488281 0.488281)" d="M243.388 554.048C244.648 554.823 245.643 555.217 247.017 555.754L248.431 556.419C250.839 556.32 256.562 560.836 258.919 562.298L266.481 568.079C263.993 568.395 261.372 567.859 258.881 567.64C254.156 567.226 247.641 566.801 242.999 567.756C242.162 567.928 241.536 567.959 240.682 567.928L241.73 565.394L241.551 564.912C242.55 561.377 242.671 557.674 243.388 554.048Z"/>
	<path fill="#09172A" transform="scale(0.488281 0.488281)" d="M243.388 554.048C244.648 554.823 245.643 555.217 247.017 555.754L248.431 556.419C247.37 558.931 246.438 561.369 244.75 563.541L243 563.561L241.73 565.394L241.551 564.912C242.55 561.377 242.671 557.674 243.388 554.048Z"/>
	<path fill="#E64931" transform="scale(0.488281 0.488281)" d="M402.883 413.47C409.791 409.234 451.273 380.311 455.368 380.185L494.654 380.027L559.805 380.11L585.171 380.2C589.995 380.214 595.361 380.635 600.099 379.7C607.973 378.146 615.845 372.662 623.358 369.576C620.175 376.165 618.508 381.439 620.946 388.672C622.579 393.52 625.968 398.223 630.647 400.496L633.491 402.175C619.125 410.646 597.733 408.475 581.618 408.583C576.151 408.62 570.244 408.481 564.92 409.814L564.036 410.03C561.607 410.642 557.687 411.747 555.866 413.512C545.652 418.886 535.534 423.721 525.676 429.814C511.426 438.621 498.314 448.838 484.629 458.448C483.761 456.494 482.531 455.265 481.059 453.758L402.883 413.47Z"/>
	<path fill="#CCB584" transform="scale(0.488281 0.488281)" d="M369.71 538.658C372.885 539.001 374.592 538.358 377.491 537.178L375.246 540.031L376 540.25L376.748 539.302C377.04 539.701 377.326 540.05 377.522 540.507L393.607 573.546C392.656 575.626 390.113 576.835 388.359 578.334L377.022 587.798C375.277 589.154 373.267 590.971 371.185 591.724L370.34 591.998C371.996 593.243 373.471 593.742 375.446 594.33L384.931 597.712L426.241 615.222C433.428 618.365 440.379 620.11 443.54 628.148C444.256 629.967 444.596 631.685 444.758 633.623C444.713 635.203 444.559 636.64 444.262 638.193L440.325 649.095C438.054 655.279 435.962 664.004 431.687 669.005C423.642 668.657 415.408 665.32 407.835 662.715C403.411 661.193 398.835 658.322 394.108 659.098C390.092 654.966 382.577 655.852 377.246 655.608C375.409 656.251 370.569 655.571 368.425 655.549L369.074 648.014L343.923 637.089C343.876 636.997 325.319 629.104 322.683 627.979L319.841 626.748C320.563 631.805 320.433 636.695 320.358 641.779L319.283 653.305L306.384 652.453C304.633 652.509 303.265 652.316 301.583 651.831L264.914 648.231L264.131 647.741C265.177 637.419 264.289 628.041 262.179 617.93C263.935 617.033 265.161 616.249 266.455 614.75C265.317 611.704 263.549 612.673 260.892 612.97C260.532 613.01 260.112 613.293 259.812 613.091C258.622 612.292 256.049 606.829 255.053 605.361C249.564 597.27 241.566 591.97 232.934 587.743C235.789 581.445 236.476 573.475 240.682 567.928C241.536 567.959 242.162 567.928 242.999 567.756C247.641 566.801 254.156 567.226 258.881 567.64C261.372 567.859 263.993 568.395 266.481 568.079L272.08 573.03L268.924 581.31L287.165 589.74C287.67 588.263 288.433 586.587 288.546 585.042L291.559 577.767C286.059 574.655 279.715 573.244 274.274 570.074L273.804 569.791L278.538 563.102L281.941 559.811L284.066 559.13C286.409 558.703 288.131 558.547 290.5 558.923L291.447 559.058L292.05 559.152C293.809 557.373 296.763 558.177 299.049 558.402C303.008 558.792 306.914 559.303 310.797 560.186C317.014 561.599 326.528 565.638 332.729 563.773L333.25 563.602C337.194 562.334 340.578 559.916 344.01 557.659C347.219 555.548 350.744 553.392 353.244 550.445L369.71 538.658Z"/>
	<path fill="#04101A" transform="scale(0.488281 0.488281)" d="M273.492 607.75C274.385 607.65 274.321 607.554 275.017 607.739C277.023 608.272 282.192 610.134 283.25 611.81C281.513 612.26 278.852 612.814 277.152 612.062C275.13 611.168 274.425 609.621 273.492 607.75Z"/>
	<path fill="#E8AA6C" transform="scale(0.488281 0.488281)" d="M369.074 648.014C372.317 648.272 375.262 650.213 378.24 651.444C380.001 652.172 382.56 652.879 383.877 654.296L384.25 654.755C382.627 655.872 379.291 655.329 377.246 655.608C375.409 656.251 370.569 655.571 368.425 655.549L369.074 648.014Z"/>
	<path fill="#09172A" transform="scale(0.488281 0.488281)" d="M301.583 651.831C302.586 649.168 302.584 646.093 302.768 643.271C303.312 634.922 303.142 627.112 301.043 618.975L306.335 621.213C307.192 627.608 307.798 633.681 307.291 640.157C307.107 642.506 305.322 650.827 306.384 652.453C304.633 652.509 303.265 652.316 301.583 651.831Z"/>
	<path fill="#636B6B" transform="scale(0.488281 0.488281)" d="M306.335 621.213L319.841 626.748C320.563 631.805 320.433 636.695 320.358 641.779L319.283 653.305L306.384 652.453C305.322 650.827 307.107 642.506 307.291 640.157C307.798 633.681 307.192 627.608 306.335 621.213Z"/>
	<path fill="#F0D79A" transform="scale(0.488281 0.488281)" d="M369.71 538.658C372.885 539.001 374.592 538.358 377.491 537.178L375.246 540.031L376 540.25L376.748 539.302C377.04 539.701 377.326 540.05 377.522 540.507L393.607 573.546C392.656 575.626 390.113 576.835 388.359 578.334L377.022 587.798C375.277 589.154 373.267 590.971 371.185 591.724L370.34 591.998C371.996 593.243 373.471 593.742 375.446 594.33L384.931 597.712L426.241 615.222C433.428 618.365 440.379 620.11 443.54 628.148C444.256 629.967 444.596 631.685 444.758 633.623C444.713 635.203 444.559 636.64 444.262 638.193L440.325 649.095C434.222 647.213 427.981 643.807 422.084 641.26L386.953 626.405L323.994 600.153L302.06 590.962C297.574 589.09 292.756 587.449 288.546 585.042L291.559 577.767C286.059 574.655 279.715 573.244 274.274 570.074L273.804 569.791L278.538 563.102L281.941 559.811L284.066 559.13C286.409 558.703 288.131 558.547 290.5 558.923L291.447 559.058L292.05 559.152C293.809 557.373 296.763 558.177 299.049 558.402C303.008 558.792 306.914 559.303 310.797 560.186C317.014 561.599 326.528 565.638 332.729 563.773L333.25 563.602C337.194 562.334 340.578 559.916 344.01 557.659C347.219 555.548 350.744 553.392 353.244 550.445L369.71 538.658Z"/>
	<path fill="#F9F0C7" transform="scale(0.488281 0.488281)" d="M284.066 559.13C286.409 558.703 288.131 558.547 290.5 558.923L291.447 559.058L292.05 559.152L369.795 591.788L370.34 591.998C371.996 593.243 373.471 593.742 375.446 594.33L384.931 597.712L426.241 615.222C433.428 618.365 440.379 620.11 443.54 628.148C444.256 629.967 444.596 631.685 444.758 633.623C443.564 633.666 442.957 633.553 441.89 633.001C429.078 626.374 414.909 621.551 401.618 615.903L310.902 577.038L290.961 568.285C286.89 566.599 282.373 565.242 278.538 563.102L281.941 559.811L284.066 559.13Z"/>
	<path fill="#04101A" transform="scale(0.488281 0.488281)" d="M369.71 538.658C372.885 539.001 374.592 538.358 377.491 537.178L375.246 540.031L376 540.25L376.748 539.302C377.04 539.701 377.326 540.05 377.522 540.507L393.607 573.546C392.656 575.626 390.113 576.835 388.359 578.334L377.022 587.798C375.277 589.154 373.267 590.971 371.185 591.724L370.34 591.998L369.795 591.788L292.05 559.152C293.809 557.373 296.763 558.177 299.049 558.402C303.008 558.792 306.914 559.303 310.797 560.186C317.014 561.599 326.528 565.638 332.729 563.773L333.25 563.602C337.194 562.334 340.578 559.916 344.01 557.659C347.219 555.548 350.744 553.392 353.244 550.445L369.71 538.658Z"/>
	<path fill="#E8AA6C" transform="scale(0.488281 0.488281)" d="M377.522 540.507L393.607 573.546C392.656 575.626 390.113 576.835 388.359 578.334L377.022 587.798C375.277 589.154 373.267 590.971 371.185 591.724L370.34 591.998L369.795 591.788C368.379 586.497 367.435 581.075 365.801 575.844C363.59 568.764 360.503 562.39 356.82 555.981C358.162 554.14 360.605 552.655 362.405 551.25C367.011 547.654 372.249 542.905 377.522 540.507Z"/>
	<path fill="#1D2C38" transform="scale(0.488281 0.488281)" d="M190.291 473.662C230.8 466.777 274.432 478.172 307.688 501.833C326.698 515.357 341.112 530.37 353.244 550.445C350.744 553.392 347.219 555.548 344.01 557.659C340.578 559.916 337.194 562.334 333.25 563.602L332.729 563.773C326.528 565.638 317.014 561.599 310.797 560.186C306.914 559.303 303.008 558.792 299.049 558.402C296.763 558.177 293.809 557.373 292.05 559.152L291.447 559.058L290.5 558.923C288.131 558.547 286.409 558.703 284.066 559.13L281.941 559.811C277.156 557.762 272.528 552.749 268.264 549.665C253.72 539.148 237.81 533.349 220.223 530.618C191.399 527.554 162.574 536.568 140.115 554.798C118.93 571.992 103.824 597.32 101.152 624.745C98.2969 654.057 106.324 683.957 125.334 706.749C138.824 722.924 156.245 734.081 176.013 741.031C180.515 742.282 185.042 743.742 189.645 744.564C208.889 748.001 226.769 746.393 245.348 740.736C246.093 741.273 246.58 741.633 247.46 741.927C253.715 739.544 260.009 736.94 265.75 733.464C292.41 717.319 311.651 691.244 318.848 660.892L340.404 662.153C337.084 672.706 333.631 683.231 328.682 693.151C319.55 711.457 304.894 727.554 288.381 739.511C259.539 760.398 225.581 768.953 190.276 763.206C155.069 757.476 120.199 736.083 100.443 706.113C97.4033 701.502 94.7161 696.691 92.4164 691.668C90.4312 687.332 88.9606 682.59 86.1338 678.722L85.8119 678.289C81.4645 674.717 77.9318 669.926 74.6197 665.41C63.9371 650.845 56.2727 635.389 53.2972 617.5L52.6366 617.554C52.5214 615.71 53.0023 613.567 53.2348 611.727C54.0047 605.63 55.2576 599.715 56.9503 593.813L58.1316 589.541C59.507 583.17 62.3779 576.676 65.0938 570.76C70.4272 559.143 76.5144 547.775 84.3884 537.662C107.366 508.149 138.364 486.167 174.888 477.037C179.974 475.765 185.083 474.312 190.291 473.662Z"/>
	<path fill="#04101A" transform="scale(0.488281 0.488281)" d="M176.013 741.031C180.515 742.282 185.042 743.742 189.645 744.564C208.889 748.001 226.769 746.393 245.348 740.736C246.093 741.273 246.58 741.633 247.46 741.927C224.533 750.939 198.267 750.399 175.158 742.432L175.117 742.305L176.013 741.031Z"/>
	<path fill="#04101A" transform="scale(0.488281 0.488281)" d="M175.117 742.305C155.584 734.999 139.822 724.676 125.887 709.094C112.026 693.594 102.503 672.302 99.8466 651.697C98.8178 643.718 98.964 635.756 99.4381 627.744C101.071 600.146 116.026 573.975 136.36 555.87C152.932 541.114 173.962 531.634 195.993 528.872C204.175 527.847 212.245 528.153 220.444 528.629C244.237 530.882 266.449 543.449 284.066 559.13L281.941 559.811C277.156 557.762 272.528 552.749 268.264 549.665C253.72 539.148 237.81 533.349 220.223 530.618C191.399 527.554 162.574 536.568 140.115 554.798C118.93 571.992 103.824 597.32 101.152 624.745C98.2969 654.057 106.324 683.957 125.334 706.749C138.824 722.924 156.245 734.081 176.013 741.031L175.117 742.305Z"/>
	<path fill="#4A5A61" transform="scale(0.488281 0.488281)" d="M52.6366 617.554C52.5214 615.71 53.0023 613.567 53.2348 611.727C54.0047 605.63 55.2576 599.715 56.9503 593.813C59.3516 597.635 60.4888 602.392 62.25 606.562C66.561 616.768 71.9833 627.699 78.7812 636.483C80.7131 638.979 79.9977 647.648 80.3546 651.071C80.9083 656.382 81.8633 661.678 83.1415 666.86C84.0668 670.612 85.4672 674.436 85.8119 678.289C81.4645 674.717 77.9318 669.926 74.6197 665.41C63.9371 650.845 56.2727 635.389 53.2972 617.5L52.6366 617.554Z"/>
	<path fill="#4A5A61" transform="scale(0.488281 0.488281)" d="M58.1316 589.541C59.507 583.17 62.3779 576.676 65.0938 570.76C70.4272 559.143 76.5144 547.775 84.3884 537.662C107.366 508.149 138.364 486.167 174.888 477.037C179.974 475.765 185.083 474.312 190.291 473.662L191.13 474.247C194.485 476.459 200.598 477.623 204.502 479.056L225.154 487.386C251.259 498.903 275.776 514.975 297.096 533.915C300.111 536.595 306.113 541.176 307.29 545.137L307.413 545.75L306.5 546.332C300.955 544.214 295.867 540.424 291.011 537.05C285.667 533.338 280.29 529.762 274.645 526.523C238.388 505.72 196.747 503.073 158.391 519.991C126.485 534.066 100.416 560.312 88.0039 593.042C83.0209 606.182 80.337 620.746 79.7507 634.754C75.5173 626.633 70.7238 618.942 66.9212 610.582C63.9055 603.951 61.93 595.662 58.1316 589.541Z"/>
	<path fill="#E8AA6C" transform="scale(0.488281 0.488281)" d="M746.262 415.148C746.647 417.447 747.306 419.414 748.134 421.578C750.907 430.817 755.026 439.821 758.795 448.687L770.569 475.456C768.731 475.983 766.716 476.78 764.815 476.916L758.24 479.55L754.005 481.528C750.723 482.992 747.101 484.319 744.036 486.175L742.582 486.925L741.799 487.859L744.293 494.163L766.292 545.046L767.398 547.183L766.931 547.29L764.463 548.116C762.09 548.778 760.595 548.601 758.538 547.393L754.958 545.197C745.513 538.6 734.111 534.945 722.562 537.027C713.477 538.665 704.514 541.964 696.918 547.266C690.642 554.317 685.861 562.458 681.639 570.873C669.831 594.405 664.163 620.928 665.647 647.244C667.853 686.377 686.334 725.539 715.748 751.674L732.539 764.828C732.229 765.113 732.136 765.244 731.685 765.403C729.127 766.304 724.748 765.818 721.977 765.807L699.378 765.62L643.559 765.463L307.977 764.976C305.712 764.962 304.125 764.974 302.071 763.887C335.299 740.014 359.528 704.282 367.192 663.883L381.766 664.54L388.091 678.144C389.789 682.209 391.36 686.568 393.755 690.274C395.866 693.54 398.939 696.192 402.826 696.996L403.5 697.125C409.128 698.25 416.103 697.51 421.869 697.5L457.416 697.516L530.333 697.539C542.254 697.53 554.591 698.173 566.474 697.456C570.587 697.208 574.767 695.834 578.466 694.081C584.376 691.28 589.729 687.274 593.129 681.589C596.019 676.755 598.199 671.316 600.587 666.206L612.873 639.593L646.643 568.862L680.878 505.271L688.688 491.193C690.893 487.4 693.531 483.433 694.928 479.252C696.811 473.614 696.109 467.059 693.432 461.789C688.869 452.805 680.466 449.415 671.539 446.353C671.985 444.263 673.616 442.02 674.686 440.17L682.456 427.233L699.37 428.339C701.608 428.423 705.325 427.759 707.33 428.635C710.644 430.084 713.888 429.579 717.278 428.58L717.934 428.378C717.994 427.443 718.071 426.848 718.5 426.01C721.988 424.139 725.787 422.603 729.58 421.472L732.181 420.082L733.039 420.06L746.262 415.148Z"/>
	<path fill="#9B251C" transform="scale(0.488281 0.488281)" d="M691.446 548.848C684.442 553.521 675.178 558.051 667.353 561.123C670.046 555.592 673.586 550.557 677.06 545.5C693.529 521.528 715.861 501.132 741.799 487.859L744.293 494.163L724.875 510.413C717.108 517.578 710.161 525.555 703.332 533.599C699.201 538.465 694.85 543.427 691.446 548.848Z"/>
	<path fill="#E64931" transform="scale(0.488281 0.488281)" d="M744.293 494.163L766.292 545.046L767.398 547.183L766.931 547.29L764.463 548.116C762.09 548.778 760.595 548.601 758.538 547.393L754.958 545.197C745.513 538.6 734.111 534.945 722.562 537.027C713.477 538.665 704.514 541.964 696.918 547.266C695.017 547.673 693.25 548.115 691.446 548.848C694.85 543.427 699.201 538.465 703.332 533.599C710.161 525.555 717.108 517.578 724.875 510.413L744.293 494.163Z"/>
	<path fill="#9B251C" transform="scale(0.488281 0.488281)" d="M758.538 547.393C759.768 544.962 761.065 542.915 762.72 540.75L763.344 541.113C763.489 542.049 763.593 542.862 763.958 543.743C764.305 544.582 765.467 544.732 766.292 545.046L767.398 547.183L766.931 547.29L764.463 548.116C762.09 548.778 760.595 548.601 758.538 547.393Z"/>
	<path fill="#7B857F" transform="scale(0.488281 0.488281)" d="M746.262 415.148C746.647 417.447 747.306 419.414 748.134 421.578C750.907 430.817 755.026 439.821 758.795 448.687L770.569 475.456C768.731 475.983 766.716 476.78 764.815 476.916L758.24 479.55L754.005 481.528C750.723 482.992 747.101 484.319 744.036 486.175L742.582 486.925C738.896 475.001 732.738 463.293 728.017 451.68L721.532 435.421C720.887 433.791 720.058 430.572 719.059 429.258C718.771 428.88 718.309 428.671 717.934 428.378C717.994 427.443 718.071 426.848 718.5 426.01C721.988 424.139 725.787 422.603 729.58 421.472L732.181 420.082L733.039 420.06L746.262 415.148Z"/>
	<path fill="#CCB584" transform="scale(0.488281 0.488281)" d="M732.181 420.082L733.039 420.06L758.24 479.55L754.005 481.528L729.58 421.472L732.181 420.082Z"/>
	<path fill="#F0D79A" transform="scale(0.488281 0.488281)" d="M746.262 415.148C746.647 417.447 747.306 419.414 748.134 421.578C750.907 430.817 755.026 439.821 758.795 448.687L770.569 475.456C768.731 475.983 766.716 476.78 764.815 476.916L758.24 479.55L733.039 420.06L746.262 415.148Z"/>
</svg>
