<?xml version="1.0" encoding="utf-8" ?>
<svg xmlns="http://www.w3.org/2000/svg" xmlns:xlink="http://www.w3.org/1999/xlink" width="500" height="500">
	<path fill="#23A5AF" transform="scale(0.488281 0.488281)" d="M-0 -0L1024 0L1024 1024L-0 1024L0 -0Z"/>
	<path fill="#18A9AC" transform="scale(0.488281 0.488281)" d="M714.908 357.082C715.563 353.144 715.152 348.683 715.135 344.687L714.755 317.25L715.5 317.25L715.5 386.25C715.852 389.352 716.13 394.434 715.63 397.5C715.02 401.231 715.475 405.657 715.476 409.46C715.478 415.743 715.147 422.239 715.622 428.5C715.774 430.501 715.202 432.578 716 434.377L717 434.25C717.603 433.801 717.325 433.939 717.945 433.705C719.459 433.133 721.015 432.472 722.228 431.383C723.265 430.452 722.902 427.457 723 426C724.595 423.607 723.072 408.561 723.434 404.875C724.05 398.589 723.23 392.1 723.224 385.817L723.508 348.268L724.001 347.63L723.896 431.25L734.649 425.15L734.609 481.989L734.518 482.355C730.87 484.053 727.473 486.627 724.119 488.85L722.396 490.195L715.445 494.154C714.858 491.984 715.076 489.557 715.066 487.312L715.036 476.14L714.959 436.413L714.908 357.082Z"/>
	<path fill="#15AB94" transform="scale(0.488281 0.488281)" d="M714.959 436.413C717.44 434.891 721.03 432.627 723.802 431.812L723.699 461.237L723.512 479.542C723.493 482.381 723.116 486.181 724.119 488.85L722.396 490.195L715.445 494.154C714.858 491.984 715.076 489.557 715.066 487.312L715.036 476.14L714.959 436.413Z"/>
	<path fill="#123576" transform="scale(0.488281 0.488281)" d="M724.001 347.63L724.635 208.094C727.791 208.587 732.602 213.143 734.906 215.393L734.876 424.326L734.649 425.15L723.896 431.25L724.001 347.63Z"/>
	<path fill="#6FDFCD" transform="scale(0.488281 0.488281)" d="M673.586 197.664L673.81 162.451L714.493 140.755L714.374 291.077L714.543 335.373C714.586 342.382 714.048 350.146 714.908 357.082L714.959 436.413L715.036 476.14L715.066 487.312C715.076 489.557 714.858 491.984 715.445 494.154L715.458 494.366L673.633 519.014L673.574 460.528L673.512 344.292L673.586 197.664Z"/>
	<defs>
		<linearGradient id="gradient_0" gradientUnits="userSpaceOnUse" x1="104.29405" y1="508.48169" x2="242.40538" y2="295.68872">
			<stop offset="0" stop-color="#FB533B"/>
			<stop offset="1" stop-color="#FF6792"/>
		</linearGradient>
	</defs>
	<path fill="url(#gradient_0)" transform="scale(0.488281 0.488281)" d="M237.083 177.341C236.73 173.383 237.056 169.081 237.054 165.092L237.051 139.635L237.074 128.454C237.091 127.224 236.946 125.25 237.448 124.111C238.92 120.767 242.336 119.325 245.58 118.258C244.011 119.863 242.825 120.642 242.609 123C241.999 129.647 242.56 136.92 242.563 143.62L242.587 187.238L242.487 325.732L222.47 311.357L209.925 302.208L210.438 450.34L210.406 486.251C210.389 495.267 211.108 505.192 209.106 514L208.94 514.753C206.307 526.294 198.671 535.534 188.812 541.651C178.151 548.267 166.653 550.514 154.25 549.471C157.346 570.162 162.189 590.898 169.349 610.56C171.852 617.435 174.298 624.33 177.534 630.899L175.433 631.825C164.102 605.977 156.661 577.407 152.357 549.568C142.373 547.318 133.697 544.937 125.25 538.88C113.56 530.496 106.278 518.778 104.036 504.6C102.668 501.969 101.572 499.099 100.847 496.221C98.2348 485.862 99.729 475.734 105.296 466.644C113.525 453.206 126.457 448.078 141.108 444.524C146.617 423.807 153.534 403.487 163.164 384.306C165.631 379.391 168.025 374.16 171.018 369.544C171.431 368.836 171.917 368.127 172.048 367.3C172.432 364.884 172.112 361.895 172.107 359.414L172.067 344.25L172.002 286.499L171.999 273.73C172.007 271.657 171.753 268.713 172.692 266.814C174.398 263.367 176.344 261.784 179.925 260.664C183.401 259.443 185.849 258.817 189.391 260.47C194.863 263.022 195.815 267.434 199.875 270.939C205.965 276.197 213.333 280.063 219.323 285.434L233.195 271.535C233.808 270.931 236.875 268.382 237.047 267.748C237.381 266.52 237.041 263.976 237.039 262.645L237.023 249.201L237.083 177.341Z"/>
	<path fill="#0F0D48" transform="scale(0.488281 0.488281)" d="M171.018 369.544C171.431 368.836 171.917 368.127 172.048 367.3C172.432 364.884 172.112 361.895 172.107 359.414L172.067 344.25L172.002 286.499L171.999 273.73C172.007 271.657 171.753 268.713 172.692 266.814C174.398 263.367 176.344 261.784 179.925 260.664C179.279 261.358 177.921 262.457 177.517 263.25C176.772 264.711 177.314 270.688 177.319 272.528L177.387 304.003L177.258 451.591L173.422 449.446L173.131 393.743C173.007 385.93 173.732 377.213 172.324 369.537C171.453 369.445 171.888 369.443 171.018 369.544Z"/>
	<path fill="#123576" transform="scale(0.488281 0.488281)" d="M171.018 369.544C171.888 369.443 171.453 369.445 172.324 369.537C173.732 377.213 173.007 385.93 173.131 393.743L173.422 449.446C162.075 444.806 153.432 442.597 141.108 444.524C146.617 423.807 153.534 403.487 163.164 384.306C165.631 379.391 168.025 374.16 171.018 369.544Z"/>
	<path fill="#0F0D48" transform="scale(0.488281 0.488281)" d="M237.083 177.341C236.73 173.383 237.056 169.081 237.054 165.092L237.051 139.635L237.074 128.454C237.091 127.224 236.946 125.25 237.448 124.111C238.92 120.767 242.336 119.325 245.58 118.258C244.011 119.863 242.825 120.642 242.609 123C241.999 129.647 242.56 136.92 242.563 143.62L242.587 187.238L242.487 325.732L222.47 311.357L209.925 302.208L210.438 450.34L210.406 486.251C210.389 495.267 211.108 505.192 209.106 514L208.94 514.753C206.307 526.294 198.671 535.534 188.812 541.651C178.151 548.267 166.653 550.514 154.25 549.471C157.346 570.162 162.189 590.898 169.349 610.56C171.852 617.435 174.298 624.33 177.534 630.899L175.433 631.825C164.102 605.977 156.661 577.407 152.357 549.568C142.373 547.318 133.697 544.937 125.25 538.88C113.56 530.496 106.278 518.778 104.036 504.6L109.945 511.961C119.953 522.244 134.313 528.064 148.608 528.099C163.117 528.135 177.026 523.269 187.294 512.806C191.944 508.068 195.436 502.244 196.663 495.653C197.762 489.748 197.018 482.713 197.008 476.654L197.023 440.023L196.989 289.621L221.15 308.129C225.554 310.922 229.68 314.518 233.912 317.599C235.219 318.55 237.003 320.23 238.534 320.647C238.529 317.18 239.3 302.36 237.902 300.403L219.323 285.434L233.195 271.535C233.808 270.931 236.875 268.382 237.047 267.748C237.381 266.52 237.041 263.976 237.039 262.645L237.023 249.201L237.083 177.341Z"/>
	<path fill="#123576" transform="scale(0.488281 0.488281)" d="M237.083 177.341L237.902 300.403L219.323 285.434L233.195 271.535C233.808 270.931 236.875 268.382 237.047 267.748C237.381 266.52 237.041 263.976 237.039 262.645L237.023 249.201L237.083 177.341Z"/>
	<path fill="#123576" transform="scale(0.488281 0.488281)" d="M351.076 193.474C365.292 187.457 379.362 180.887 394.029 176.018C413.98 169.394 434.89 163.805 455.656 160.469C515.208 150.902 579.146 156.412 635.296 178.984L673.586 197.664L673.512 344.292L673.574 460.528L673.633 519.014L673.69 520.036L657.04 529.626L656.857 530.076C641.599 537.25 628.027 548.466 612.628 555.37L612.516 555.905L601.953 561.884C600.374 562.78 598.312 564.158 596.568 564.662L596.404 565.199L565.5 583.995C561.047 586.555 556.528 589.471 551.871 591.633L551.684 591.886L534.798 601.89L534.601 602.201L491.376 627.395L491.413 627.769C484.986 630.606 478.663 635.488 472.58 639.149L472.546 639.421L430.563 662.449L430.491 662.861L412.015 673.128L411.624 610.403C418.046 607.719 424.501 603.462 430.606 600.03L430.903 478.748L430.582 334.646L430.565 313.633L430.587 290.213C430.586 285.544 430.879 280.668 430.32 276.044L430.56 274.525C430.476 272.799 430.654 271.211 430.881 269.5C432.268 267.23 439.742 264.162 442.407 262.698L351.076 193.474Z"/>
	<path fill="#F54F4A" transform="scale(0.488281 0.488281)" d="M551.62 410.095L551.55 390.418L596.51 366.121L596.481 504.283C598.804 503.549 600.96 501.936 603.076 500.734C606.262 498.925 609.541 497.305 612.602 495.283L612.628 555.37L612.516 555.905L601.953 561.884C600.374 562.78 598.312 564.158 596.568 564.662L596.404 565.199L565.5 583.995C561.047 586.555 556.528 589.471 551.871 591.633L551.774 530.962L551.62 410.095Z"/>
	<path fill="#23A5AF" transform="scale(0.488281 0.488281)" d="M596.481 504.283C598.804 503.549 600.96 501.936 603.076 500.734C606.262 498.925 609.541 497.305 612.602 495.283L612.628 555.37L612.516 555.905L601.953 561.884C600.374 562.78 598.312 564.158 596.568 564.662C595.822 558.389 596.423 551.419 596.429 545.081L596.481 504.283Z"/>
	<path fill="#6FDFCD" transform="scale(0.488281 0.488281)" d="M534.481 419.547L551.62 410.095L551.774 530.962L551.871 591.633L551.684 591.886L534.798 601.89L534.601 602.201L491.376 627.395L491.413 627.769C484.986 630.606 478.663 635.488 472.58 639.149L472.394 567.308C472.758 570.162 472.546 573.301 472.557 576.191L490.963 565.187L491.048 463.611L491.094 462.977C491.69 456.913 491.042 450.136 491 444.001C491.907 443.873 493.311 442.816 494.127 442.356L503.829 436.75L534.481 419.547Z"/>
	<path fill="#23A5AF" transform="scale(0.488281 0.488281)" d="M551.774 530.962L551.871 591.633L551.684 591.886L534.798 601.89L534.556 540.623L551.774 530.962Z"/>
	<path fill="#23A5AF" transform="scale(0.488281 0.488281)" d="M491.094 462.977L491.376 627.395L491.413 627.769C484.986 630.606 478.663 635.488 472.58 639.149L472.394 567.308C472.758 570.162 472.546 573.301 472.557 576.191L490.963 565.187L491.048 463.611L491.094 462.977Z"/>
	<path fill="#087090" transform="scale(0.488281 0.488281)" d="M534.481 419.547L551.62 410.095L551.774 530.962L534.556 540.623C534.482 530.517 535.998 423.196 534.481 419.547Z"/>
	<path fill="#FCA954" transform="scale(0.488281 0.488281)" d="M612.602 495.283L612.726 310.536L657.438 285.819L657.291 352.124L657.74 353.285C663.443 351.083 668.601 347.889 673.512 344.292L673.574 460.528L673.633 519.014L673.69 520.036L657.04 529.626L656.857 530.076C641.599 537.25 628.027 548.466 612.628 555.37L612.602 495.283Z"/>
	<path fill="#23A5AF" transform="scale(0.488281 0.488281)" d="M673.574 460.528L673.633 519.014L673.69 520.036L657.04 529.626L657.016 470.027L673.574 460.528Z"/>
	<path fill="#123576" transform="scale(0.488281 0.488281)" d="M657.291 352.124L657.74 353.285C663.443 351.083 668.601 347.889 673.512 344.292L673.574 460.528L657.016 470.027L657.291 352.124Z"/>
	<path fill="#6FDFCD" transform="scale(0.488281 0.488281)" d="M472.377 245.407C475.311 242.299 479.251 240.329 483.019 238.377L482.894 447.98L491 444.001C491.042 450.136 491.69 456.913 491.094 462.977L491.048 463.611L490.963 565.187L472.557 576.191C472.546 573.301 472.758 570.162 472.394 567.308L472.58 639.149L472.546 639.421L430.563 662.449L430.491 662.861L412.015 673.128L411.624 610.403C418.046 607.719 424.501 603.462 430.606 600.03L430.903 478.748L430.582 334.646L430.565 313.633L430.587 290.213C430.586 285.544 430.879 280.668 430.32 276.044L430.56 274.525C430.476 272.799 430.654 271.211 430.881 269.5C432.268 267.23 439.742 264.162 442.407 262.698L472.377 245.407Z"/>
	<path fill="#23A5AF" transform="scale(0.488281 0.488281)" d="M411.624 610.403C418.046 607.719 424.501 603.462 430.606 600.03L430.903 478.748L430.563 662.449L430.491 662.861L412.015 673.128L411.624 610.403Z"/>
	<path fill="#087090" transform="scale(0.488281 0.488281)" d="M472.377 245.407C475.311 242.299 479.251 240.329 483.019 238.377L482.894 447.98L491 444.001C491.042 450.136 491.69 456.913 491.094 462.977L491.048 463.611L490.963 565.187L472.557 576.191C472.546 573.301 472.758 570.162 472.394 567.308L472.377 245.407Z"/>
	<path fill="#123576" transform="scale(0.488281 0.488281)" d="M245.58 118.258C247.732 117.552 250.06 116.395 252.242 117.502C255.721 119.266 259.069 123.216 262.161 125.698L284.61 143.278L351.076 193.474L442.407 262.698C439.742 264.162 432.268 267.23 430.881 269.5C430.654 271.211 430.476 272.799 430.56 274.525L430.32 276.044C430.879 280.668 430.586 285.544 430.587 290.213L430.565 313.633L430.582 334.646L430.903 478.748L430.606 600.03C424.501 603.462 418.046 607.719 411.624 610.403L412.015 673.128L411.882 673.546L369.023 697.137L368.736 697.438L354.484 704.988L354.22 705.565L309.072 731.649L308.995 731.903L294.873 739.474L294.594 739.477C290.554 742.375 286.003 744.624 281.686 747.092L251.682 763.879L250.574 765.105L249.986 764.87L235.118 773.071L234.643 772.498C233.106 775.801 198.001 793.726 191.821 797.826L191.927 798.438C188.252 798.07 182.475 803.615 178.605 804.504C177.784 797.346 178.487 789.294 178.496 782.023L178.571 734.177L178.381 642.491C177.218 639.218 179.565 633.918 177.534 630.899C174.298 624.33 171.852 617.435 169.349 610.56C162.189 590.898 157.346 570.162 154.25 549.471C166.653 550.514 178.151 548.267 188.812 541.651C198.671 535.534 206.307 526.294 208.94 514.753L209.106 514C211.108 505.192 210.389 495.267 210.406 486.251L210.438 450.34L209.925 302.208L222.47 311.357L242.487 325.732L242.587 187.238L242.563 143.62C242.56 136.92 241.999 129.647 242.609 123C242.825 120.642 244.011 119.863 245.58 118.258Z"/>
	<path fill="#0F0D48" transform="scale(0.488281 0.488281)" d="M342.645 370.951C346.925 373.665 351.114 379.1 353.518 383.5C358.318 392.288 361.062 402.064 358.615 412C357.585 416.182 356.226 419.503 354.274 423.347C350.177 431.414 343.709 437.775 336.324 442.836C328.136 448.448 319.45 451.83 309.601 453.169C294.893 455.168 278.722 449.972 266.989 441.072C257.073 433.55 248.071 419.738 246.516 407.34L246.359 406.011C251.816 415.143 258.75 421.157 268.346 425.67C282.848 432.49 299.211 433.041 314.242 427.563C326.535 423.083 337.156 414.769 342.648 402.657C347.512 391.932 346.718 381.693 342.645 370.951Z"/>
	<path fill="#6FDFCD" transform="scale(0.488281 0.488281)" d="M191.447 663.194L191.449 556.74L234.415 532.286L234.417 706.851L234.643 772.498C233.106 775.801 198.001 793.726 191.821 797.826L191.927 798.438C188.252 798.07 182.475 803.615 178.605 804.504C177.784 797.346 178.487 789.294 178.496 782.023L178.571 734.177L191.516 726.025L191.447 663.194Z"/>
	<path fill="#23A5AF" transform="scale(0.488281 0.488281)" d="M191.516 726.025L191.531 777.823L191.545 791.24C191.555 793.349 191.31 795.786 191.821 797.826L191.927 798.438C188.252 798.07 182.475 803.615 178.605 804.504C177.784 797.346 178.487 789.294 178.496 782.023L178.571 734.177L191.516 726.025Z"/>
	<path fill="#6FDFCD" transform="scale(0.488281 0.488281)" d="M252.128 697.038C252.675 691.709 252.247 685.882 252.246 680.511L252.227 646.107L252.166 541.732C252.148 524.504 251.231 506.835 252.162 489.655L293.515 465.637L294.566 465.992L295 466.49C297.476 469.208 301.519 471.486 304.602 473.595C305.071 473.916 307.427 475.251 307.607 475.637C307.979 476.431 307.589 480.475 307.585 481.559L307.532 503.11L307.447 639.085C307.441 656.773 307.861 663.516 308.484 663.594C308.625 663.21 308.631 662.745 308.906 662.442C309.62 661.655 311.437 660.863 312.391 660.332L320.187 656.042L353.25 637.978L353.97 638.25L354.156 642.503L354.121 685.719L354.136 698.56C354.157 700.625 353.924 703.011 354.484 704.988L354.22 705.565L309.072 731.649L308.995 731.903L294.873 739.474L294.594 739.477C290.554 742.375 286.003 744.624 281.686 747.092L251.682 763.879L250.574 765.105L249.986 764.87L235.118 773.071L234.643 772.498L234.417 706.851L252.128 697.038Z"/>
	<path fill="#23A5AF" transform="scale(0.488281 0.488281)" d="M294.541 674.434C299.172 673.287 305.042 669.996 309.087 667.453L309.072 731.649L308.995 731.903L294.873 739.474L294.594 739.477L294.541 674.434Z"/>
	<path fill="#23A5AF" transform="scale(0.488281 0.488281)" d="M234.417 706.851L252.128 697.038L251.979 742.642C251.977 749.61 252.454 756.96 251.682 763.879L250.574 765.105L249.986 764.87L235.118 773.071L234.643 772.498L234.417 706.851Z"/>
	<path fill="#087090" transform="scale(0.488281 0.488281)" d="M294.566 465.992L295 466.49C297.476 469.208 301.519 471.486 304.602 473.595C305.071 473.916 307.427 475.251 307.607 475.637C307.979 476.431 307.589 480.475 307.585 481.559L307.532 503.11L307.447 639.085C307.441 656.773 307.861 663.516 308.484 663.594L309.087 667.453C305.042 669.996 299.172 673.287 294.541 674.434L294.566 465.992Z"/>
	<path fill="#F96A68" transform="scale(0.488281 0.488281)" d="M308.484 663.594C308.625 663.21 308.631 662.745 308.906 662.442C309.62 661.655 311.437 660.863 312.391 660.332L320.187 656.042L353.25 637.978L353.97 638.25L354.156 642.503L354.121 685.719L354.136 698.56C354.157 700.625 353.924 703.011 354.484 704.988L354.22 705.565L309.072 731.649L309.087 667.453L308.484 663.594Z"/>
	<path fill="#FDA4A8" transform="scale(0.488281 0.488281)" d="M402.494 312.807L403.27 312.575C406.225 311.642 409.201 309.8 411.992 308.427L412.032 319.998L430.582 334.646L430.903 478.748L430.606 600.03C424.501 603.462 418.046 607.719 411.624 610.403L412.015 673.128L411.882 673.546L369.023 697.137L368.736 697.438L354.484 704.988C353.924 703.011 354.157 700.625 354.136 698.56L354.121 685.719L354.156 642.503L369.56 633.723L369.542 349.759L369.708 333.085L373.45 330.84C382.907 325.271 393.251 319.812 401.905 313.059L402.494 312.807Z"/>
	<path fill="#23A5AF" transform="scale(0.488281 0.488281)" d="M354.156 642.503L369.56 633.723L369.487 675.167C369.469 682.293 370.016 690.085 369.023 697.137L368.736 697.438L354.484 704.988C353.924 703.011 354.157 700.625 354.136 698.56L354.121 685.719L354.156 642.503Z"/>
	<path fill="#123576" transform="scale(0.488281 0.488281)" d="M412.032 319.998L430.582 334.646L430.903 478.748L430.606 600.03C424.501 603.462 418.046 607.719 411.624 610.403L412.032 319.998Z"/>
	<defs>
		<linearGradient id="gradient_1" gradientUnits="userSpaceOnUse" x1="219.8345" y1="392.54657" x2="360.1167" y2="193.48827">
			<stop offset="0" stop-color="#FD4F42"/>
			<stop offset="1" stop-color="#FF6B97"/>
		</linearGradient>
	</defs>
	<path fill="url(#gradient_1)" transform="scale(0.488281 0.488281)" d="M245.58 118.258C247.732 117.552 250.06 116.395 252.242 117.502C255.721 119.266 259.069 123.216 262.161 125.698L284.61 143.278L351.076 193.474L442.407 262.698C439.742 264.162 432.268 267.23 430.881 269.5C430.654 271.211 430.476 272.799 430.56 274.525L430.32 276.044C430.879 280.668 430.586 285.544 430.587 290.213L430.565 313.633L430.582 334.646L412.032 319.998L411.992 308.427C409.201 309.8 406.225 311.642 403.27 312.575L402.494 312.807L401.905 313.059C393.251 319.812 382.907 325.271 373.45 330.84L369.708 333.085L369.542 349.759L260.912 264.54L260.703 353.665C265.038 351.114 269.393 348.49 274.094 346.657C284.957 342.421 298.108 341.817 309.355 344.751C324.026 348.578 334.681 357.216 342.223 370.216L342.645 370.951C346.718 381.693 347.512 391.932 342.648 402.657C337.156 414.769 326.535 423.083 314.242 427.563C299.211 433.041 282.848 432.49 268.346 425.67C258.75 421.157 251.816 415.143 246.359 406.011C244.627 402.162 243.243 398.446 242.716 394.236C241.819 387.08 242.504 379.144 242.497 371.872L242.487 325.732L242.587 187.238L242.563 143.62C242.56 136.92 241.999 129.647 242.609 123C242.825 120.642 244.011 119.863 245.58 118.258Z"/>
	<path fill="#0F0D48" transform="scale(0.488281 0.488281)" d="M260.444 207.881L260.361 204.25C262.558 204.617 267.082 209.07 269 210.563L294.158 229.779L366.077 284.794L391.205 304.015C394.686 306.673 399.652 309.569 402.494 312.807L401.905 313.059C395.37 311.563 388.785 304.046 383.5 300.052L363.614 285.611L315.246 248.527C306.532 241.983 297.644 233.271 287.893 228.389L260.444 207.881Z"/>
	<path fill="#0F0D48" transform="scale(0.488281 0.488281)" d="M260.495 149.355L260.497 146.25L261 145.894L430.56 274.525L430.32 276.044C428.069 275.566 425.884 273.484 424.058 272.122L407.958 259.348L350.627 216.461L338.755 207.631C336.55 206.078 334.607 204.49 331.972 203.734L260.495 149.355Z"/>
	<path fill="#18A9AC" transform="scale(0.488281 0.488281)" d="M260.444 207.881L287.893 228.389L264.107 245.531L260.264 242.739L260.444 207.881Z"/>
	<path fill="#18A9AC" transform="scale(0.488281 0.488281)" d="M260.495 149.355L331.972 203.734L306.703 218.153L260.127 182.536L260.495 149.355Z"/>
	<path fill="#123576" transform="scale(0.488281 0.488281)" d="M331.972 203.734C334.607 204.49 336.55 206.078 338.755 207.631L350.627 216.461L407.958 259.348L424.058 272.122C425.884 273.484 428.069 275.566 430.32 276.044C430.879 280.668 430.586 285.544 430.587 290.213L430.565 313.633C418.23 301.891 402.999 292.468 389.542 282.003L306.703 218.153L331.972 203.734Z"/>
	<path fill="#123576" transform="scale(0.488281 0.488281)" d="M287.893 228.389C297.644 233.271 306.532 241.983 315.246 248.527L363.614 285.611L383.5 300.052C388.785 304.046 395.37 311.563 401.905 313.059C393.251 319.812 382.907 325.271 373.45 330.84C370.272 327.37 365.978 324.418 362.28 321.484L333.63 299.613L287.444 263.528L264.107 245.531L287.893 228.389Z"/>
	<path fill="#0F0D48" transform="scale(0.488281 0.488281)" d="M778.163 74.7873L790.981 66.5647L790.952 230.385C790.954 235.542 790.168 274.055 791.106 276.165C792.502 279.303 796.136 282.931 798.271 285.746L811.083 303.544C825.671 325.31 838.973 348.706 849.411 372.734C856.36 388.728 862.814 404.848 868.035 421.5L872.041 436.297C872.343 437.431 872.727 439.927 873.505 440.734C875.648 442.959 879.04 444.693 881.624 446.464L898.087 457.549C906.475 462.982 918.569 469.075 923.376 478.123L923.088 566.621L923.097 703.109L922.979 773.325L922.962 792.537C922.953 796.099 923.237 800.039 922.662 803.545C921.541 810.377 918.857 817.41 916.647 823.959C908.024 849.513 896.836 874.443 877.767 894.042C871.664 900.316 865.29 906.357 858.194 911.511C835.678 927.863 806.621 938.081 778.675 938.481C742.505 938.998 706.594 926.122 680.439 900.773C663.185 884.051 651.889 865.056 643.649 842.547C631.69 848.818 617.791 852.841 604.887 856.718C557.721 870.891 506.454 875.26 457.71 867.502C445.282 865.524 433.171 862.433 420.985 859.343L420.958 874.388C420.946 877.597 421.178 880.986 420.55 884.136C419.892 894.826 414.277 905.821 406.249 912.881C397.782 920.327 385.864 924.455 374.608 923.649C364.63 922.934 354.482 918.171 347.899 910.56C344.142 906.215 342.484 901.372 339.801 896.435C333.5 890.748 328.703 884.804 326.659 876.426C324.456 867.397 326.197 857.536 331.234 849.75C337.43 840.171 348.879 834.289 359.728 831.911C355.88 827.874 349.984 824.682 345.464 821.349L118.053 952.883L118.143 643.618L130.65 636.514L130.758 658.119L175.433 631.825L177.534 630.899C179.565 633.918 177.218 639.218 178.381 642.491L178.571 734.177L178.496 782.023C178.487 789.294 177.784 797.346 178.605 804.504C182.475 803.615 188.252 798.07 191.927 798.438L191.821 797.826C198.001 793.726 233.106 775.801 234.643 772.498L235.118 773.071L249.986 764.87L250.574 765.105L251.682 763.879L281.686 747.092C286.003 744.624 290.554 742.375 294.594 739.477L294.873 739.474L308.995 731.903L309.072 731.649L354.22 705.565L354.484 704.988L368.736 697.438L369.023 697.137L411.882 673.546L412.015 673.128L430.491 662.861L430.563 662.449L472.546 639.421L472.58 639.149C478.663 635.488 484.986 630.606 491.413 627.769L491.376 627.395L534.601 602.201L534.798 601.89L551.684 591.886L551.871 591.633C556.528 589.471 561.047 586.555 565.5 583.995L596.404 565.199L596.568 564.662C598.312 564.158 600.374 562.78 601.953 561.884L612.516 555.905L612.628 555.37C628.027 548.466 641.599 537.25 656.857 530.076L657.04 529.626L673.69 520.036L673.633 519.014L715.458 494.366L715.445 494.154L722.396 490.195L724.119 488.85C727.473 486.627 730.87 484.053 734.518 482.355L734.609 481.989L734.649 425.15L734.876 424.326L734.906 215.393L735.263 101.407C735.536 100.5 773.104 77.9434 778.163 74.7873Z"/>
	<path fill="#107377" transform="scale(0.488281 0.488281)" d="M722.396 490.195L722.556 592.985L716.231 597.006C715.56 588.471 716.169 579.447 716.168 570.852L716.011 518.915C715.961 510.879 716.469 502.325 715.458 494.366L715.445 494.154L722.396 490.195Z"/>
	<path fill="#1C1D56" transform="scale(0.488281 0.488281)" d="M778.034 397.643C780.626 395.91 783.151 394.181 785.978 392.847L785.139 523.033C784.898 533.279 785.873 543.826 785.121 554C785.021 555.353 785.112 556.158 784.1 557.149C782.583 558.632 781.289 559.976 779.338 560.881L778.608 456.104C777.726 450.62 778.421 443.873 778.394 438.268L778.003 398.1L778.034 397.643Z"/>
	<path fill="#F54F4A" transform="scale(0.488281 0.488281)" d="M369.023 697.137L411.882 673.546L412.135 715.472C408.713 709.833 404.067 704.361 397.344 702.685C392.546 701.489 386.719 703.156 382.67 705.793C380.856 706.974 379.332 708.361 377.885 709.969L377.559 787.668L368.364 791.758L368.736 697.438L369.023 697.137Z"/>
	<path fill="#F96A68" transform="scale(0.488281 0.488281)" d="M734.876 424.326L778.003 398.1L778.394 438.268C778.421 443.873 777.726 450.62 778.608 456.104L734.609 481.989L734.649 425.15L734.876 424.326Z"/>
	<path fill="#F5719E" transform="scale(0.488281 0.488281)" d="M791.918 663.489C792.523 664.878 792.463 666.264 792.5 667.75L796 667.755C797.136 666.997 798.163 667.255 799.5 667.255L800.253 668.161L798.916 668.584C803.199 669.784 805.879 669.408 810 671.893L810 665C810.505 662.119 810.604 659.18 810.793 656.248L810.753 769.584L810.426 770.784C808.257 768.629 806.509 765.984 804.399 763.737C800.325 759.399 795.806 756.147 790.543 753.413L779.638 750.253L780.177 749.76C780.828 747.573 780.483 744.578 780.488 742.269L780.491 726.658L780.457 668.112L791.536 669.034L791.918 663.489Z"/>
	<path fill="#AE9EC0" transform="scale(0.488281 0.488281)" d="M780.457 668.112L791.536 669.034C790.752 673.615 790.912 678.278 790.88 682.911L790.737 701.786L790.543 753.413L779.638 750.253L780.177 749.76C780.828 747.573 780.483 744.578 780.488 742.269L780.491 726.658L780.457 668.112Z"/>
	<path fill="#F54F4A" transform="scale(0.488281 0.488281)" d="M472.546 639.421C473.099 642.904 472.948 646.515 472.976 650.036L473.073 667.512L473.292 732.654C470.283 733.264 466.528 735.971 463.809 737.488L437.898 752.59C436.055 753.681 432.368 756.429 430.466 756.487L430.491 662.861L430.563 662.449L472.546 639.421Z"/>
	<path fill="#15AB94" transform="scale(0.488281 0.488281)" d="M234.643 772.498L235.118 773.071L235.519 869.056L202.571 888.567C199.896 890.108 195.208 893.542 192.277 893.868L191.927 798.438L191.821 797.826C198.001 793.726 233.106 775.801 234.643 772.498Z"/>
	<path fill="#15AB94" transform="scale(0.488281 0.488281)" d="M491.376 627.395L534.601 602.201L534.95 700.286C531.769 701.373 528.85 703.242 525.902 704.846L511.473 712.706C504.827 716.339 497.366 719.635 491.123 723.881L491.413 627.769L491.376 627.395Z"/>
	<path fill="#15AB94" transform="scale(0.488281 0.488281)" d="M294.594 739.477L294.873 739.474L294.819 834.746L250.312 860.974L250.574 765.105L251.682 763.879L281.686 747.092C286.003 744.624 290.554 742.375 294.594 739.477Z"/>
	<path fill="#F54F4A" transform="scale(0.488281 0.488281)" d="M309.072 731.649L354.22 705.565L354.531 776.459L354.566 794.008C354.571 796.545 354.924 799.591 354.374 802.058L309.278 826.415L308.995 731.903L309.072 731.649Z"/>
	<path fill="#15AB94" transform="scale(0.488281 0.488281)" d="M673.633 519.014L715.458 494.366C716.469 502.325 715.961 510.879 716.011 518.915L716.168 570.852C716.169 579.447 715.56 588.471 716.231 597.006L673.597 621.209L673.69 520.036L673.633 519.014Z"/>
	<path fill="#BB0B16" transform="scale(0.488281 0.488281)" d="M178.218 805.392L178.131 902.53L130.999 930.19L130.953 831.922L178.218 805.392Z"/>
	<path fill="#BB0B16" transform="scale(0.488281 0.488281)" d="M734.609 481.989L778.608 456.104L779.338 560.881C778.306 560.912 738.942 583.991 734.982 586.363L734.836 516.304L734.813 495.366C734.805 491.22 735.029 486.937 734.575 482.821L734.518 482.355L734.609 481.989Z"/>
	<path fill="#18A9AC" transform="scale(0.488281 0.488281)" d="M866.293 489.055L883.533 498.378L882.836 707.976L870.128 694.999C860.895 686.559 851.446 679.692 840.557 673.532C845.996 657.434 849.828 640.928 853.279 624.299C862.6 579.389 866.294 534.877 866.293 489.055Z"/>
	<path fill="#123576" transform="scale(0.488281 0.488281)" d="M791.027 278.713C795.364 283.273 799.122 289.146 802.773 294.292C822.43 321.995 839.133 351.566 852.086 382.998C853.968 387.565 856.238 392.112 857.838 396.778L862.848 410.339L866.563 421.998C868.13 426.808 870.835 433.708 870.269 438.75C867.91 438.14 864.641 435.362 862.5 434.002L831.979 413.89L791.02 388.361L791.027 278.713Z"/>
	<path fill="#BB0B16" transform="scale(0.488281 0.488281)" d="M596.404 565.199L596.521 665.193L551.909 690.247L534.95 700.286L534.601 602.201L534.798 601.89L551.684 591.886L551.871 591.633C556.528 589.471 561.047 586.555 565.5 583.995L596.404 565.199Z"/>
	<path fill="#1C1D56" transform="scale(0.488281 0.488281)" d="M551.684 591.886L551.909 690.247L534.95 700.286L534.601 602.201L534.798 601.89L551.684 591.886Z"/>
	<path fill="#F54F4A" transform="scale(0.488281 0.488281)" d="M657.04 529.626L673.69 520.036L673.597 621.209C668.362 625.342 661.977 628.058 656.57 632.034L612.886 656.288L612.516 555.905L612.628 555.37C628.027 548.466 641.599 537.25 656.857 530.076L657.04 529.626Z"/>
	<path fill="#1C1D56" transform="scale(0.488281 0.488281)" d="M657.04 529.626L673.69 520.036L673.597 621.209C668.362 625.342 661.977 628.058 656.57 632.034L656.857 530.076L657.04 529.626Z"/>
	<path fill="#123576" transform="scale(0.488281 0.488281)" d="M825.005 466.71L864.793 488.682C865.901 496.646 865.039 505.95 864.657 514C864.121 525.282 864.167 536.785 862.771 548L862.156 555.503L845.281 652.774L839.615 673.364C834.978 670.205 829.787 668.122 824.534 666.232L825.005 466.71Z"/>
	<path fill="#BB0B16" transform="scale(0.488281 0.488281)" d="M763.892 840.489C759.038 839.948 752.78 837.107 748.662 834.547C738.418 828.176 730.834 817.659 728.287 805.832C725.552 793.138 727.616 779.661 734.82 768.768C740.763 759.782 750.653 752.615 761.298 750.464L762.25 750.28C768.08 749.116 773.784 749.346 779.638 750.253L790.543 753.413C795.806 756.147 800.325 759.399 804.399 763.737C806.509 765.984 808.257 768.629 810.426 770.784L810.753 769.584L810.77 770.063C811.008 773.899 813.465 777.507 814.464 781.25C818.479 796.292 814.885 811.915 804.825 823.738C796.725 833.258 785.039 839.547 772.5 840.393L763.892 840.489Z"/>
	<path fill="#FCA954" transform="scale(0.488281 0.488281)" d="M382.589 801.112L382.678 732.609L382.716 718.144C382.72 716.799 382.394 714.311 382.731 713.068C382.852 712.624 383.242 712.302 383.498 711.919C388.094 709.553 395.365 708.645 400.45 710.149C401.263 710.389 402.809 710.905 403.142 711.706C403.89 713.503 403.445 717.198 403.447 719.22L403.425 738.5L403.425 818.507L403.463 870.455C403.267 874.98 402.117 879.637 400.08 883.689C395.505 892.79 386.311 900.064 376.633 903.07C366.251 906.294 354.85 904.722 345.334 899.686L339.801 896.435C333.5 890.748 328.703 884.804 326.659 876.426C324.456 867.397 326.197 857.536 331.234 849.75C337.43 840.171 348.879 834.289 359.728 831.911C355.88 827.874 349.984 824.682 345.464 821.349C348.094 818.712 352.553 816.78 355.775 814.852L368.376 807.35C372.729 804.725 377.381 801.429 382.589 801.112Z"/>
	<path fill="#123576" transform="scale(0.488281 0.488281)" d="M345.464 821.349C348.094 818.712 352.553 816.78 355.775 814.852L368.376 807.35C372.729 804.725 377.381 801.429 382.589 801.112L382.64 835.46C375.808 832.651 367.122 830.672 359.728 831.911C355.88 827.874 349.984 824.682 345.464 821.349Z"/>
	<path fill="#F54F4A" transform="scale(0.488281 0.488281)" d="M177.534 630.899C179.565 633.918 177.218 639.218 178.381 642.491L178.571 734.177L178.496 782.023C178.487 789.294 177.784 797.346 178.605 804.504L178.218 805.392L130.953 831.922L130.758 658.119L175.433 631.825L177.534 630.899Z"/>
	<defs>
		<linearGradient id="gradient_2" gradientUnits="userSpaceOnUse" x1="766.39667" y1="618.9502" x2="937.14856" y2="527.14362">
			<stop offset="0" stop-color="#FE984F"/>
			<stop offset="1" stop-color="#FAAC4F"/>
		</linearGradient>
	</defs>
	<path fill="url(#gradient_2)" transform="scale(0.488281 0.488281)" d="M791.918 663.489C791.548 661.478 791.815 658.964 791.81 656.884L791.78 643.32L791.733 592.39L791.583 395.536L908.525 471.442L908.883 756.664C905.706 749.171 903.448 741.53 899.659 734.255L892.979 722.657C892.076 721.224 890.124 719.152 889.569 717.655C889.105 716.407 889.551 712.719 889.551 711.307L889.56 686.876L889.725 551.944L889.627 513.66C889.608 507.404 890.137 500.534 889.402 494.358L845.145 469.622L831.664 461.975C828.475 460.157 824.887 457.94 821.168 457.585C818.435 457.324 814.789 458.256 812.75 460.172C811.787 461.076 811.046 462.444 810.888 463.758C810.175 469.711 810.812 476.45 810.826 482.477L810.895 522.031L810.793 656.248C810.604 659.18 810.505 662.119 810 665L810 671.893C805.879 669.408 803.199 669.784 798.916 668.584L800.253 668.161L799.5 667.255C798.163 667.255 797.136 666.997 796 667.755L792.5 667.75C792.463 666.264 792.523 664.878 791.918 663.489Z"/>
	<path fill="#F54F4A" transform="scale(0.488281 0.488281)" d="M778.163 74.7873L778.034 397.643L778.003 398.1L734.876 424.326L734.906 215.393L735.263 101.407C735.536 100.5 773.104 77.9434 778.163 74.7873Z"/>
	<path fill="#9B3983" transform="scale(0.488281 0.488281)" d="M779.66 842.552C790.874 842.194 800.569 836.606 808.211 828.548C814.012 822.431 818.339 815.013 820.259 806.765C821.746 800.373 821.743 793.879 821.866 787.352L822.143 761.966L822.159 678.5C854.224 691.969 879.619 717.125 892.778 749.365C906.176 782.188 904.464 819.364 890.75 851.781C877.982 881.961 851.405 905.575 821.248 917.541C813.141 920.758 804.719 923.274 796.126 924.808L779.827 926.981L779.66 842.552Z"/>
	<path fill="#6FDFCD" transform="scale(0.488281 0.488281)" d="M779.827 926.981L776.613 927.03C742.897 927.101 709.66 913.75 685.85 889.778C659.96 863.711 647.182 829.364 647.454 792.944C647.703 759.716 663.202 727.478 686.674 704.413C704.433 686.963 727.76 674.826 752.25 670.194C761.589 668.427 770.979 668.041 780.457 668.112L780.491 726.658L780.488 742.269C780.483 744.578 780.828 747.573 780.177 749.76L779.638 750.253C773.784 749.346 768.08 749.116 762.25 750.28L761.298 750.464C750.653 752.615 740.763 759.782 734.82 768.768C727.616 779.661 725.552 793.138 728.287 805.832C730.834 817.659 738.418 828.176 748.662 834.547C752.78 837.107 759.038 839.948 763.892 840.489C768.934 841.889 774.45 842.17 779.66 842.552L779.827 926.981Z"/>
	<path fill="#123576" transform="scale(0.488281 0.488281)" d="M530.913 737.91C534.917 732.921 538.691 727.453 542.093 722.036L548.466 711.193C549.507 709.326 550.53 707.008 552.146 705.569C556.29 701.878 563.152 699.239 568 696.508L615.476 670.156L669.72 639.179L700.091 622.75L785.514 573.669L785.581 656.037C774.177 656.075 763.022 656.411 751.758 658.381C723.497 663.326 696.308 678.31 676.191 698.605C653.791 721.201 640.139 751.379 637.236 783.026C636.761 788.195 636.951 793.559 636.975 798.75C637.024 808.896 638.166 818.959 640.25 828.894C641.136 833.118 643.633 838.379 643.649 842.547C631.69 848.818 617.791 852.841 604.887 856.718C557.721 870.891 506.454 875.26 457.71 867.502C445.282 865.524 433.171 862.433 420.985 859.343L420.958 874.388C420.946 877.597 421.178 880.986 420.55 884.136C419.483 874.268 420.919 863.815 420.908 853.95L420.569 777.915C434.049 768.955 448.618 761.101 462.798 753.295C469.471 749.621 477 744.5 484.306 742.484C488.216 738.433 492.039 735.127 497.23 732.837C503.724 729.972 513.056 728.52 519.872 731.171L520.5 731.424C524.749 733.071 527.567 734.888 530.913 737.91Z"/>
	<path fill="#0F0D48" transform="scale(0.488281 0.488281)" d="M537.121 747.391C543.616 750.002 549.502 753.425 552.281 760.21L553.104 762.5L553.358 763.228C555.163 768.729 554.092 776.543 551.411 781.595C547.504 788.955 541.337 794.823 533.261 797.292C523.943 800.14 513.546 799.896 504.91 795.046C499.808 792.181 494.904 787.709 491.92 782.674C500.303 786.671 509.818 787.771 518.75 784.925C526.36 782.5 532.491 776.872 536.028 769.786C539.594 762.641 539.581 754.893 537.121 747.391Z"/>
	<path fill="#FCA954" transform="scale(0.488281 0.488281)" d="M484.306 742.484C488.216 738.433 492.039 735.127 497.23 732.837C503.724 729.972 513.056 728.52 519.872 731.171L520.5 731.424C524.749 733.071 527.567 734.888 530.913 737.91C533.443 740.882 535.542 743.79 537.121 747.391C539.581 754.893 539.594 762.641 536.028 769.786C532.491 776.872 526.36 782.5 518.75 784.925C509.818 787.771 500.303 786.671 491.92 782.674C485.394 778.323 480.4 772.753 478.704 764.866C476.948 756.699 479.809 749.177 484.306 742.484Z"/>
</svg>
