<?xml version="1.0" encoding="utf-8" ?>
<svg xmlns="http://www.w3.org/2000/svg" xmlns:xlink="http://www.w3.org/1999/xlink" width="500" height="500">
	<path fill="#EB6F39" transform="scale(0.488281 0.488281)" d="M-0 -0L1024 0L1024 1024L-0 1024L0 -0Z"/>
	<path fill="#8D4B2E" transform="scale(0.488281 0.488281)" d="M694.956 199.901C702.349 211.478 708.692 224.059 714.498 236.5C729.115 267.825 741.436 302.375 744.595 337.013L746.251 374.7C747.107 385.397 749.153 396.209 752.56 406.39C756.459 418.042 762.42 428.652 770.624 437.806C777.485 445.461 785.345 452.125 792.098 459.884C813.564 484.551 822.482 521.307 815.488 553.104C807.364 590.039 782.081 620.044 750.67 639.98C735.022 649.91 716.737 656.826 698.663 660.737C717.983 646.546 732.366 629.947 741.267 607.454C742.942 603.221 745.164 598.036 745.752 593.514L745.875 591.5C748.508 587.17 750.146 581.918 751.673 577.105C757.002 560.31 759.107 540.013 755.817 522.585C751.193 498.096 739.89 473.696 727.398 452.258C725.744 449.419 723.463 444.264 720.853 442.493C724.32 433.731 725.552 425.662 724.33 416.219C722.412 401.41 712.084 388.806 700.694 379.96L703.569 356.663L710.719 355.789L710.538 354.948C710.948 352.747 709.47 348.729 708.989 346.5L702.361 317.09L696.75 292.378L685.408 251.095C684.616 248.273 684.563 244.772 682.967 242.327L683.107 231.585C684.088 227.078 686.127 222.696 687.804 218.405L694.956 199.901Z"/>
	<path fill="#733316" transform="scale(0.488281 0.488281)" d="M720.853 442.493C723.463 444.264 725.744 449.419 727.398 452.258C739.89 473.696 751.193 498.096 755.817 522.585C759.107 540.013 757.002 560.31 751.673 577.105C750.146 581.918 748.508 587.17 745.875 591.5C742.218 597.254 738.234 603.008 733.67 608.084C727.864 614.543 721.272 620.058 714.442 625.388C692.848 642.239 667.08 656.077 641.505 665.872L623.492 657.444L616.145 653.601C613.353 651.668 611.533 647.848 609.603 645.076C606.085 640.023 601.67 635.078 596.424 631.789C591.413 628.409 584.891 626.629 578.954 625.75C576.494 625.386 573.918 625.406 571.56 624.588L571.592 580.049C609.439 564.65 638.923 537.324 659.412 502.18C662.337 497.162 664.966 491.849 667.388 486.57L670.357 479.707C670.666 478.942 671.084 477.258 671.619 476.669C672.706 475.473 675.483 475.104 677.038 474.679C678.48 474.562 680.349 473.678 681.759 473.225L683.193 472.771C699.098 467.449 713.144 457.694 720.853 442.493Z"/>
	<path fill="#52200C" transform="scale(0.488281 0.488281)" d="M677.038 474.679C678.48 474.562 680.349 473.678 681.759 473.225C682.599 482.879 682.394 492.48 682.083 502.15C680.774 542.758 670.674 583.458 650.084 618.679C642.17 632.216 631.891 644.226 623.492 657.444L616.145 653.601C613.353 651.668 611.533 647.848 609.603 645.076C606.085 640.023 601.67 635.078 596.424 631.789C591.413 628.409 584.891 626.629 578.954 625.75C576.494 625.386 573.918 625.406 571.56 624.588L571.592 580.049C609.439 564.65 638.923 537.324 659.412 502.18C662.337 497.162 664.966 491.849 667.388 486.57L670.357 479.707C670.666 478.942 671.084 477.258 671.619 476.669C672.706 475.473 675.483 475.104 677.038 474.679Z"/>
	<path fill="#8D4B2E" transform="scale(0.488281 0.488281)" d="M330.235 201.46L337.468 219.836C338.889 223.571 340.554 227.44 341.406 231.342C341.979 234.237 342.345 238.056 343.499 240.751L348.489 257.922C349.015 259.772 349.318 262.325 350.104 264L350.563 264C354.763 260.613 360.072 258.382 364.919 256.049C380.646 248.476 397.429 241.648 414.385 237.421C389.318 264.457 366.696 295.638 350.914 329C343.606 344.449 337.466 360.761 334.836 377.724C333.623 385.549 333.794 393.622 334.092 401.518C334.969 424.732 338.997 445.972 345.585 468.23C346.151 469.207 346.466 469.705 346.63 470.829C346.905 472.724 347.972 474.417 348.971 476.024L349.285 476.581C354.06 485.191 357.645 494.323 362.661 502.879C378.429 529.777 401.364 554.091 428.438 569.786C436.551 574.489 444.886 577.933 453.387 581.777L453.109 624.974L453.019 625.339C446.593 626.022 438.291 628.518 432.573 631.57C427.783 634.045 423.548 636.902 419.75 640.77C417.099 643.47 414.734 646.654 412.566 649.75C410.902 652.125 409.889 654.59 407.085 655.723L407.074 655.921L382.737 666.897L359.824 656.187C330.82 641.131 302.954 620.948 281.68 596.015C281.552 596.635 281.483 596.773 281.565 597.494C281.896 600.404 284.102 604.577 285.209 607.359C294.052 629.582 307.192 648.379 324.403 664.928L300.772 655.767C283.96 648.312 267.81 637.603 253.844 625.686C227.355 603.081 207.687 571.177 204.921 536.059L204.807 534.512L204.603 530.875C204.24 521.065 206.16 510.863 208.991 501.5C214.735 482.508 225.301 465.861 238.971 451.53C246.532 443.605 254.427 436.289 260.784 427.282C267.022 418.444 271.373 408.707 274.734 398.471C281.921 376.583 281.673 351.774 284.137 329C288.277 290.734 299.609 253.53 318.595 220C322.096 213.818 325.603 206.866 330.235 201.46Z"/>
	<path fill="#AE9989" transform="scale(0.488281 0.488281)" d="M343.499 240.751L348.489 257.922C349.015 259.772 349.318 262.325 350.104 264C337.609 283.337 327.679 304.783 316.871 325.125C313.93 330.66 311.493 336.642 308.136 341.922C314.227 316.592 322.935 291.655 331.89 267.223C334.98 258.792 337.658 247.616 343.499 240.751Z"/>
	<path fill="#F7CAA3" transform="scale(0.488281 0.488281)" d="M307.214 390.95L316.146 380.945C318.033 384.46 318.691 390.152 319.704 394.077C325.618 419.291 334.065 444.717 345.226 468.097L345.585 468.23C346.151 469.207 346.466 469.705 346.63 470.829C346.905 472.724 347.972 474.417 348.971 476.024L344.583 475.749L340.827 475.253L339.088 474.746C323.244 469.861 310.767 458.536 303.139 443.943C298.881 434.434 295.662 422.362 298.206 411.976C300.116 404.178 303.025 397.793 307.214 390.95Z"/>
	<path fill="#FCE1C8" transform="scale(0.488281 0.488281)" d="M307.214 390.95L316.146 380.945C318.033 384.46 318.691 390.152 319.704 394.077C312.272 402.688 308.604 416.065 309.434 427.305C310.143 436.904 314.245 446.364 319.629 454.215C325.312 462.502 333.207 467.596 342.027 471.965L342.516 472.194C343.725 472.774 344.313 473.225 345.137 474.337C344.969 475.273 345.13 474.793 344.583 475.749L340.827 475.253L339.088 474.746C323.244 469.861 310.767 458.536 303.139 443.943C298.881 434.434 295.662 422.362 298.206 411.976C300.116 404.178 303.025 397.793 307.214 390.95Z"/>
	<path fill="#733316" transform="scale(0.488281 0.488281)" d="M281.68 596.015L280.898 594.93C278.993 591.598 278.029 586.554 277.049 582.807C271.172 560.349 268.832 535.796 273.562 512.91C277.761 492.592 286.01 474.379 295.469 456.062C297.307 452.502 299.772 446.157 303.139 443.943C310.767 458.536 323.244 469.861 339.088 474.746L340.827 475.253L344.583 475.749L348.971 476.024L349.285 476.581C354.06 485.191 357.645 494.323 362.661 502.879C378.429 529.777 401.364 554.091 428.438 569.786C436.551 574.489 444.886 577.933 453.387 581.777L453.109 624.974L453.019 625.339C446.593 626.022 438.291 628.518 432.573 631.57C427.783 634.045 423.548 636.902 419.75 640.77C417.099 643.47 414.734 646.654 412.566 649.75C410.902 652.125 409.889 654.59 407.085 655.723L407.074 655.921L382.737 666.897L359.824 656.187C330.82 641.131 302.954 620.948 281.68 596.015Z"/>
	<path fill="#52200C" transform="scale(0.488281 0.488281)" d="M340.827 475.253L344.583 475.749L348.971 476.024L349.285 476.581C354.06 485.191 357.645 494.323 362.661 502.879C378.429 529.777 401.364 554.091 428.438 569.786C436.551 574.489 444.886 577.933 453.387 581.777L453.109 624.974L453.019 625.339C446.593 626.022 438.291 628.518 432.573 631.57C427.783 634.045 423.548 636.902 419.75 640.77C417.099 643.47 414.734 646.654 412.566 649.75C410.902 652.125 409.889 654.59 407.085 655.723C406.004 655.257 405.136 654.494 404.241 653.742C394.963 645.938 386.807 635.756 379.61 626.058C368.857 611.566 358.67 595.632 352.059 578.804C344.796 560.317 340.984 539.827 339.45 520.075C338.536 508.312 338.949 496.532 339.554 484.774C339.686 482.224 339.243 477.108 340.827 475.253Z"/>
	<path fill="#FEFEFE" transform="scale(0.488281 0.488281)" d="M407.074 655.921L407.621 656.525L343.985 746.998L425.556 747.496C420.398 751.975 414.666 755.611 408.989 759.383L382.428 775.981L511.51 845.422C521.753 851.408 529.461 861.244 532.497 872.75C534.305 879.601 534.084 886.453 534.094 893.481L534.125 916.631L534.163 977.865C476.407 980.469 415.968 973.39 361.159 954.652C354.356 952.907 347.737 950.181 341.152 947.766C322.579 940.954 304.334 933.011 287.043 923.365C259.547 908.78 233.827 892.584 209.716 872.873L212.443 861.047C232.154 791.514 281.165 731.862 340.349 691.612C353.985 682.339 368.376 674.917 382.737 666.897L407.074 655.921Z"/>
	<path fill="#655C59" transform="scale(0.488281 0.488281)" d="M503.07 926.538L503.625 926.559L507.25 926.666C509.749 927.029 512.072 928.884 513.477 930.906C514.929 932.995 515.538 935.504 514.994 938.008C514.232 941.513 511.132 943.964 508.151 945.516C506.607 945.777 504.944 945.844 503.415 945.434C500.846 944.745 498.885 942.998 497.624 940.701C496.326 938.338 495.897 935.275 496.825 932.704C497.992 929.472 500.102 927.998 503.07 926.538Z"/>
	<path fill="#655C59" transform="scale(0.488281 0.488281)" d="M500.965 861.513C502.624 861.357 504.64 861.207 506.24 861.714C508.94 862.569 511.418 864.694 512.623 867.257C513.813 869.788 513.703 872.609 512.658 875.165C511.489 878.029 509.418 879.449 506.652 880.59C505.003 880.841 503.354 880.825 501.713 880.482C499.43 880.006 497.378 878.307 496.157 876.368C494.814 874.233 494.197 871.332 494.78 868.859C495.682 865.032 497.699 863.399 500.965 861.513Z"/>
	<path fill="#CCE8ED" transform="scale(0.488281 0.488281)" d="M287.043 923.365C294.992 912.367 299.463 899.893 303.964 887.207C312.038 864.449 317.845 841.242 323.803 817.872L327.595 802.008C328.196 799.553 328.652 796.429 329.902 794.25C329.84 798.491 328.42 802.577 327.745 806.75L326.058 821.357C325.011 832.056 324.208 842.677 324.659 853.435C325.605 876.004 331.235 898.778 340.547 919.335C343.77 926.452 347.119 933.519 351.358 940.102L357.356 948.934C358.651 950.732 360.328 952.603 361.159 954.652C354.356 952.907 347.737 950.181 341.152 947.766C322.579 940.954 304.334 933.011 287.043 923.365Z"/>
	<path fill="#FEFEFE" transform="scale(0.488281 0.488281)" d="M330.235 201.46L308.383 140.936L314.916 134.303C321.423 127.879 328.785 121.921 335.871 116.146C385.25 75.9052 447.824 49.535 512.088 49.985C576.888 50.4387 637.498 75.5746 687.126 116.603C697.199 124.93 706.367 134.04 715.521 143.337L694.956 199.901L687.804 218.405C686.127 222.696 684.088 227.078 683.107 231.585L682.967 242.327L679.138 263.522C668.134 257.836 657.426 252.377 645.882 247.788C600.305 229.667 548.238 221.553 499.259 223.587C480.533 224.364 462.448 226.833 443.997 229.954L438.085 231.102C431.103 232.936 423.131 234.231 416.461 236.869L415.406 237.431L414.385 237.421C397.429 241.648 380.646 248.476 364.919 256.049C360.072 258.382 354.763 260.613 350.563 264L350.104 264C349.318 262.325 349.015 259.772 348.489 257.922L343.499 240.751C342.345 238.056 341.979 234.237 341.406 231.342C340.554 227.44 338.889 223.571 337.468 219.836L330.235 201.46Z"/>
	<path fill="#E02F36" transform="scale(0.488281 0.488281)" d="M498.976 78.5279L517.087 78.4314C519.196 78.4389 522.095 78.0966 524.127 78.6279C525.815 79.0694 527.018 79.706 528.271 80.9417C529.084 81.7439 529.784 82.5675 530.1 83.6841C530.711 85.8412 530.403 88.4904 530.395 90.7289L530.311 104.898L544.009 104.546C547.145 104.491 550.873 103.789 553.378 106.033C556.116 108.485 556.405 111.087 556.461 114.562L556.559 130C556.555 131.492 556.846 134.06 556.451 135.443C556.199 136.326 554.648 138.128 553.964 138.775C553.217 139.482 552.12 140.246 551.115 140.471C548.955 140.953 546.208 140.664 543.994 140.655L529.922 140.576L529.955 155.088C529.952 157.572 530.281 160.648 529.488 163C528.575 165.706 526.055 167.286 523.609 168.439L518.597 168.673C512.672 168.717 499.387 170.412 495.018 165.722C494.438 165.098 493.793 164.259 493.596 163.423C493.109 161.358 493.447 158.403 493.444 156.251L493.496 140.543L478.532 140.576C475.007 140.574 471.263 141.106 468.25 138.892C466.463 137.579 465.571 135.138 465.411 132.998C465.034 127.956 465.363 122.711 465.38 117.648C465.389 115.235 465.005 111.983 465.673 109.704C465.988 108.63 466.463 107.67 467.25 106.864C468.173 105.919 469.766 104.99 471.059 104.703C473.221 104.225 476.064 104.535 478.297 104.547L493.304 104.722L493.346 90.0858C493.351 87.9812 493.032 84.8912 493.828 82.9115C494.73 80.668 496.926 79.5135 498.976 78.5279Z"/>
	<path fill="#49B1CB" transform="scale(0.488281 0.488281)" d="M341.406 231.342C350.13 226.671 358.52 222.025 367.631 218.063C445.485 184.207 537.373 178.704 618.708 203.274C636.497 208.648 654.945 215.669 671.367 224.376C675.452 226.542 679.095 229.339 683.107 231.585L682.967 242.327L679.138 263.522C668.134 257.836 657.426 252.377 645.882 247.788C600.305 229.667 548.238 221.553 499.259 223.587C480.533 224.364 462.448 226.833 443.997 229.954L438.085 231.102C431.103 232.936 423.131 234.231 416.461 236.869L415.406 237.431L414.385 237.421C397.429 241.648 380.646 248.476 364.919 256.049C360.072 258.382 354.763 260.613 350.563 264L350.104 264C349.318 262.325 349.015 259.772 348.489 257.922L343.499 240.751C342.345 238.056 341.979 234.237 341.406 231.342Z"/>
	<path fill="#FEFEFE" transform="scale(0.488281 0.488281)" d="M453.387 581.777L460.819 584.619C491.38 594.702 525.532 594.681 556.271 585.44C561.414 583.894 566.78 582.46 571.592 580.049L571.56 624.588C573.918 625.406 576.494 625.386 578.954 625.75C584.891 626.629 591.413 628.409 596.424 631.789C601.67 635.078 606.085 640.023 609.603 645.076C611.533 647.848 613.353 651.668 616.145 653.601L623.492 657.444L641.505 665.872C661.045 676.207 680.584 687.846 698.297 701.082C752.81 741.815 794.954 797.391 815.05 862.714L817.886 873.307C793.687 892.23 767.882 909.054 740.544 923.105C714.298 936.5 686.828 948.994 658.439 957.134C621.44 970.111 580.993 974.804 542.096 977.397L534.163 977.865L534.125 916.631L534.094 893.481C534.084 886.453 534.305 879.601 532.497 872.75C529.461 861.244 521.753 851.408 511.51 845.422L382.428 775.981L408.989 759.383C414.666 755.611 420.398 751.975 425.556 747.496L343.985 746.998L407.621 656.525L407.074 655.921L407.085 655.723C409.889 654.59 410.902 652.125 412.566 649.75C414.734 646.654 417.099 643.47 419.75 640.77C423.548 636.902 427.783 634.045 432.573 631.57C438.291 628.518 446.593 626.022 453.019 625.339L453.109 624.974L453.387 581.777Z"/>
	<path fill="#49B1CB" transform="scale(0.488281 0.488281)" d="M511.51 845.422C511.63 842.627 512.407 840.186 513.263 837.553L517.883 840.372C530.617 848.803 537.265 859.146 540.779 873.922C542.064 879.327 541.923 885.143 541.939 890.673L541.94 913.198L542.096 977.397L534.163 977.865L534.125 916.631L534.094 893.481C534.084 886.453 534.305 879.601 532.497 872.75C529.461 861.244 521.753 851.408 511.51 845.422Z"/>
	<path fill="#CCE8ED" transform="scale(0.488281 0.488281)" d="M600.829 836.095L632.906 835.879C627.37 833.059 622.451 829.748 620.445 823.484C618.841 818.478 620.243 811.811 622.75 807.381C625.02 803.369 629.142 800.029 633.614 798.797L635.5 798.382L636.11 798.253C641.363 797.225 646.903 798.495 651.341 801.423C655.652 804.267 658.493 808.753 659.342 813.826C660.327 819.714 659.39 824.669 655.785 829.488C653.802 832.138 651.321 833.669 648.995 835.904C654.057 835.942 661.516 835.091 666.27 836.375L600.829 836.095Z"/>
	<path fill="#E02F36" transform="scale(0.488281 0.488281)" d="M666.27 836.375L676.805 836.436L676.868 854.282L584.841 854.39L585.051 836.064L600.829 836.095L666.27 836.375Z"/>
	<path fill="#CCE8ED" transform="scale(0.488281 0.488281)" d="M658.439 957.134C659.682 954.381 661.913 951.906 663.447 949.265C668.283 940.943 673.07 932.712 677.214 924.014C689.866 897.451 698.405 866.639 699.325 837.166C699.625 827.557 698.804 817.661 698.387 808.057C698.032 799.848 698.206 791.342 697.278 783.195L697.224 782.75L697.75 782.727C698.236 786.695 699.394 790.858 700.271 794.774L705.455 817.436L712.855 849.549C716.814 867.408 720.823 885.192 728.085 902.074C730.288 907.195 732.737 912.761 735.97 917.317C737.439 919.387 739.249 920.838 740.544 923.105C714.298 936.5 686.828 948.994 658.439 957.134Z"/>
	<path fill="#F7CAA3" transform="scale(0.488281 0.488281)" d="M453.387 581.777L460.819 584.619C491.38 594.702 525.532 594.681 556.271 585.44C561.414 583.894 566.78 582.46 571.592 580.049L571.56 624.588C573.918 625.406 576.494 625.386 578.954 625.75C584.891 626.629 591.413 628.409 596.424 631.789C601.67 635.078 606.085 640.023 609.603 645.076C611.533 647.848 613.353 651.668 616.145 653.601L616.219 654.251C616.555 656.481 620.147 660.5 621.545 662.5L640.61 688.928L668.255 728.25C673.171 735.205 678.887 742.159 683.319 749.39L598.233 748.876L640.081 780.533L618.735 790.58L572.665 813.073L537.339 831.239C530.935 834.491 524.848 838.467 517.883 840.372L513.263 837.553C512.407 840.186 511.63 842.627 511.51 845.422L382.428 775.981L408.989 759.383C414.666 755.611 420.398 751.975 425.556 747.496L343.985 746.998L407.621 656.525L407.074 655.921L407.085 655.723C409.889 654.59 410.902 652.125 412.566 649.75C414.734 646.654 417.099 643.47 419.75 640.77C423.548 636.902 427.783 634.045 432.573 631.57C438.291 628.518 446.593 626.022 453.019 625.339L453.109 624.974L453.387 581.777Z"/>
	<path fill="#49B1CB" transform="scale(0.488281 0.488281)" d="M432.573 631.57C438.291 628.518 446.593 626.022 453.019 625.339L453.058 645.205L431.043 657.532C430.243 650.834 429.497 641.682 431.669 635.267C432.003 634.279 432.347 633.36 432.486 632.322L432.573 631.57Z"/>
	<path fill="#49B1CB" transform="scale(0.488281 0.488281)" d="M571.56 624.588C573.918 625.406 576.494 625.386 578.954 625.75C584.891 626.629 591.413 628.409 596.424 631.789C595.762 640.132 595.047 649.174 592.995 657.292L571.718 646.639L571.56 624.588Z"/>
	<path fill="#EBAD81" transform="scale(0.488281 0.488281)" d="M453.387 581.777L460.819 584.619C491.38 594.702 525.532 594.681 556.271 585.44C561.414 583.894 566.78 582.46 571.592 580.049L571.56 624.588L571.074 624.602C567.135 624.765 563.258 626.339 559.459 627.329C554.316 628.67 549.018 629.79 543.75 630.49C532.79 631.945 520.91 631.136 510.017 629.557C490.771 626.766 472.344 622.109 457.592 608.688L453.596 604.576C453.614 607.942 454.428 623.053 453.109 624.974L453.387 581.777Z"/>
	<path fill="#6AC5DD" transform="scale(0.488281 0.488281)" d="M432.573 631.57L432.486 632.322C432.347 633.36 432.003 634.279 431.669 635.267C429.497 641.682 430.243 650.834 431.043 657.532C431.036 660.127 431.904 662.636 432.489 665.147L437.462 683.233C447.043 713.689 459.44 742.695 473.802 771.186C484.441 792.293 495.832 812.886 509.688 832.084C531.478 806.407 548.518 777.581 562.512 747C571.418 727.536 579.282 707.736 585.433 687.221L592.995 657.292C595.047 649.174 595.762 640.132 596.424 631.789C601.67 635.078 606.085 640.023 609.603 645.076C611.533 647.848 613.353 651.668 616.145 653.601L616.219 654.251C616.555 656.481 620.147 660.5 621.545 662.5L640.61 688.928L668.255 728.25C673.171 735.205 678.887 742.159 683.319 749.39L598.233 748.876L640.081 780.533L618.735 790.58L572.665 813.073L537.339 831.239C530.935 834.491 524.848 838.467 517.883 840.372L513.263 837.553C512.407 840.186 511.63 842.627 511.51 845.422L382.428 775.981L408.989 759.383C414.666 755.611 420.398 751.975 425.556 747.496L343.985 746.998L407.621 656.525L407.074 655.921L407.085 655.723C409.889 654.59 410.902 652.125 412.566 649.75C414.734 646.654 417.099 643.47 419.75 640.77C423.548 636.902 427.783 634.045 432.573 631.57Z"/>
	<path fill="#FCE1C8" transform="scale(0.488281 0.488281)" d="M443.997 229.954C462.448 226.833 480.533 224.364 499.259 223.587C548.238 221.553 600.305 229.667 645.882 247.788C657.426 252.377 668.134 257.836 679.138 263.522L682.967 242.327C684.563 244.772 684.616 248.273 685.408 251.095L696.75 292.378L702.361 317.09L708.989 346.5C709.47 348.729 710.948 352.747 710.538 354.948L710.719 355.789L703.569 356.663L700.694 379.96C712.084 388.806 722.412 401.41 724.33 416.219C725.552 425.662 724.32 433.731 720.853 442.493C713.144 457.694 699.098 467.449 683.193 472.771L681.759 473.225C680.349 473.678 678.48 474.562 677.038 474.679C675.483 475.104 672.706 475.473 671.619 476.669C671.084 477.258 670.666 478.942 670.357 479.707L667.388 486.57C664.966 491.849 662.337 497.162 659.412 502.18C638.923 537.324 609.439 564.65 571.592 580.049C566.78 582.46 561.414 583.894 556.271 585.44C525.532 594.681 491.38 594.702 460.819 584.619L453.387 581.777C444.886 577.933 436.551 574.489 428.438 569.786C401.364 554.091 378.429 529.777 362.661 502.879C357.645 494.323 354.06 485.191 349.285 476.581L348.971 476.024C347.972 474.417 346.905 472.724 346.63 470.829C346.466 469.705 346.151 469.207 345.585 468.23C338.997 445.972 334.969 424.732 334.092 401.518C333.794 393.622 333.623 385.549 334.836 377.724C337.466 360.761 343.606 344.449 350.914 329C366.696 295.638 389.318 264.457 414.385 237.421L415.406 237.431L416.461 236.869C423.131 234.231 431.103 232.936 438.085 231.102L443.997 229.954Z"/>
	<path fill="#EBAD81" transform="scale(0.488281 0.488281)" d="M511.11 456.598C513.722 456.529 516.001 456.371 518.51 457.25L518.867 458.25C517.849 459.956 513.551 460.102 511.464 460.718C508.117 461.705 504.84 463.556 503.182 466.75C502.151 468.737 501.429 471.192 502.302 473.377C503.301 475.881 506.057 478.011 508.412 479.149C512.548 481.147 518.803 481.861 523.108 480.294C524.343 479.844 525.188 479.561 526.5 479.502L526.967 480.25L525.75 481.534C524.289 482.757 522.98 483.642 521.203 484.352L520.5 484.625L519.352 485.081C514.399 486.759 507.815 485.849 503.25 483.478C499.444 481.502 496.544 478.404 495.392 474.224C494.517 471.053 494.892 467.916 496.639 465.142C499.978 459.839 505.265 457.834 511.11 456.598Z"/>
	<path fill="#733316" transform="scale(0.488281 0.488281)" d="M600.597 352.706C604.669 353.135 608.951 353.343 612.914 354.391L613.207 354.836C616.03 356.691 619.441 357.43 622.438 359.004C631.684 363.861 641.404 371.195 647.523 379.724C645.953 379.485 642.574 376.679 641.062 375.683C627.158 366.528 612.231 358.422 594.908 360.799C584.63 362.21 576.196 366.277 567.029 370.922L563.016 364.979C570.084 360.372 578.667 356.022 587.055 354.506L588 354.341C590.605 353.855 593.004 353.628 595.65 353.506C597.008 353.443 598.759 353.58 600.012 352.999L600.597 352.706Z"/>
	<path fill="#733316" transform="scale(0.488281 0.488281)" d="M417.793 352.189L418.315 352.097C434.041 350.559 449.799 356.268 462.461 365.288L458.069 371.929C443.225 361.782 428.895 357.219 410.771 360.223C395.613 364.292 384.019 371.037 372.108 381.32L374.65 377.603C385.56 363.603 400.071 354.346 417.793 352.189Z"/>
	<path fill="#E02F36" transform="scale(0.488281 0.488281)" d="M468.146 521.918L467.75 520.189C470.282 519.388 473.745 519.868 476.39 519.9L493.863 519.998L555.75 519.639L556.334 520.5L555.882 521.596C532.935 531.411 504.868 533.189 480.75 526.541C476.373 525.334 472.359 523.558 468.146 521.918Z"/>
	<path fill="#733316" transform="scale(0.488281 0.488281)" d="M682.104 359.246L682.122 359.156C689.184 358.234 696.689 358.459 703.569 356.663L700.694 379.96C698.307 401.362 692.041 422.734 685.178 443.102C683.365 448.482 681.72 454.818 678.798 459.712L678.317 459.792C684.977 432.948 686.316 405.204 685.083 377.638C684.818 371.718 684.854 365.611 683.989 359.75L682.104 359.246Z"/>
	<path fill="#EB6F39" transform="scale(0.488281 0.488281)" d="M468.146 521.918C472.359 523.558 476.373 525.334 480.75 526.541C504.868 533.189 532.935 531.411 555.882 521.596L551.831 529.992C545.523 540.457 535.193 547.911 523.297 550.773C510.895 553.757 497.152 551.788 486.265 545.057C478.261 540.109 470.272 531.303 468.146 521.918Z"/>
	<path fill="#52200C" transform="scale(0.488281 0.488281)" d="M598.149 389.633C603.053 389.456 607.267 390.529 611.266 393.433C616.386 397.151 619.791 402.361 620.531 408.671C621.227 414.605 619.987 420.431 616.166 425.156C611.906 430.424 606.566 433.032 599.908 433.831C595.623 433.789 591.846 433.058 588.095 430.858C583.128 427.943 579.472 422.823 578.251 417.193C576.924 411.074 577.897 404.493 581.44 399.248C585.453 393.307 591.389 390.854 598.149 389.633Z"/>
	<path fill="#FEFEFE" transform="scale(0.488281 0.488281)" d="M602.733 396.75C604.122 396.28 605.847 396.24 607.292 396.492C609.359 396.851 611.282 398.368 612.447 400.056C613.771 401.974 614.432 404.601 613.82 406.892C613.087 409.636 611.011 411.046 608.747 412.5C607.223 412.856 605.396 413.23 603.852 412.872C601.857 412.41 600.197 411.202 599.108 409.483C597.782 407.39 597.025 404.781 597.683 402.317C598.392 399.658 600.425 398 602.733 396.75Z"/>
	<path fill="#F7CAA3" transform="scale(0.488281 0.488281)" d="M406.214 455.61C412.921 455.069 420.25 455.789 426.25 459.067C430.778 461.54 435.078 466.225 436.295 471.348C437.26 475.409 436.164 479.321 433.94 482.755C429.524 489.576 422.983 492.228 415.434 493.943C408.365 494.434 401.555 493.891 395.25 490.451C390.603 487.916 386.342 483.737 385.023 478.453C384.007 474.388 385.357 469.417 387.621 465.959C391.819 459.546 399.055 456.926 406.214 455.61Z"/>
	<path fill="#F7CAA3" transform="scale(0.488281 0.488281)" d="M607.623 455.595C614.868 454.887 622.627 455.724 629.031 459.425C633.067 461.757 637.159 466.539 638.301 471.071C639.398 475.42 638.096 481.019 635.668 484.687C632.034 490.177 626.069 492.509 619.935 493.975C612.852 495.356 604.539 494.335 598.255 490.75C593.641 488.118 589.756 483.788 588.329 478.599C587.268 474.742 587.909 469.479 590.017 466.039C593.939 459.639 600.65 457.09 607.623 455.595Z"/>
	<path fill="#52200C" transform="scale(0.488281 0.488281)" d="M422.004 389.141C426.649 388.772 430.837 389.737 434.909 392.032C440.101 394.958 443.941 400.157 445.326 405.944C446.806 412.132 446.378 418.744 442.846 424.201C439 430.141 433.499 432.634 426.851 434.054C420.944 434.136 415.96 433.322 410.973 429.935C406.29 426.754 402.783 421.553 401.756 415.985C400.664 410.063 401.835 403.692 405.316 398.734C409.327 393.022 415.295 390.309 422.004 389.141Z"/>
	<path fill="#FEFEFE" transform="scale(0.488281 0.488281)" d="M414.689 396.528C415.832 396.667 417.03 396.79 418.119 397.18C419.865 397.804 421.791 399.327 422.543 401.06C423.518 403.305 423.663 406.199 422.611 408.437C421.304 411.219 419.128 412.116 416.381 413.093C415.097 413.022 413.731 412.81 412.5 412.434C410.576 411.847 408.82 410.071 408.03 408.25C407.218 406.376 407.192 403.615 408.068 401.75C409.463 398.777 411.683 397.511 414.689 396.528Z"/>
	<defs>
		<linearGradient id="gradient_0" gradientUnits="userSpaceOnUse" x1="683.01038" y1="427.07019" x2="722.44928" y2="434.80719">
			<stop offset="0" stop-color="#E6AF88"/>
			<stop offset="1" stop-color="#F7D1B2"/>
		</linearGradient>
	</defs>
	<path fill="url(#gradient_0)" transform="scale(0.488281 0.488281)" d="M700.694 379.96C712.084 388.806 722.412 401.41 724.33 416.219C725.552 425.662 724.32 433.731 720.853 442.493C713.144 457.694 699.098 467.449 683.193 472.771L681.759 473.225C680.349 473.678 678.48 474.562 677.038 474.679L675.995 473.951C675.378 474.324 674.95 474.375 674.25 474.5C674.185 472.256 675.564 470.359 675.677 468.131C675.81 465.482 677.181 462.214 678.317 459.792L678.798 459.712C681.72 454.818 683.365 448.482 685.178 443.102C692.041 422.734 698.307 401.362 700.694 379.96Z"/>
	<path fill="#95644A" transform="scale(0.488281 0.488281)" d="M438.085 231.102L443.997 229.954C496.472 276.382 564.464 313.755 636.5 309.418C650.924 308.549 666.414 304.744 679.9 299.608C683.185 298.356 686.587 296.982 689.737 295.416C691.827 294.378 694.44 292.627 696.75 292.378L702.361 317.09L708.989 346.5C709.47 348.729 710.948 352.747 710.538 354.948L710.719 355.789L703.569 356.663C696.689 358.459 689.184 358.234 682.122 359.156L682.104 359.246C678.062 359.791 673.587 359.457 669.502 359.442C650.49 359.371 632.019 357.188 613.207 354.836L612.914 354.391C608.951 353.343 604.669 353.135 600.597 352.706L597.651 352.162C548.381 342.645 500.084 318.682 461.428 286.815C443.992 272.441 428.08 256.198 415.406 237.431L416.461 236.869C423.131 234.231 431.103 232.936 438.085 231.102Z"/>
	<path fill="#52200C" transform="scale(0.488281 0.488281)" d="M416.461 236.869C417.388 237.13 417.855 237.347 418.547 238.055C421.982 241.564 425.063 245.53 428.357 249.185C434.098 255.557 440.133 261.634 446.6 267.272C484.656 300.448 530.235 326.366 579.035 339.833C609.209 348.161 639.972 351.839 671.149 353.469L698.217 354.484C702.272 354.605 706.5 355.038 710.538 354.948L710.719 355.789L703.569 356.663C696.689 358.459 689.184 358.234 682.122 359.156L682.104 359.246C678.062 359.791 673.587 359.457 669.502 359.442C650.49 359.371 632.019 357.188 613.207 354.836L612.914 354.391C608.951 353.343 604.669 353.135 600.597 352.706L597.651 352.162C548.381 342.645 500.084 318.682 461.428 286.815C443.992 272.441 428.08 256.198 415.406 237.431L416.461 236.869Z"/>
	<path fill="#AE9989" transform="scale(0.488281 0.488281)" d="M438.085 231.102L443.997 229.954C496.472 276.382 564.464 313.755 636.5 309.418C650.924 308.549 666.414 304.744 679.9 299.608C683.185 298.356 686.587 296.982 689.737 295.416C691.827 294.378 694.44 292.627 696.75 292.378L702.361 317.09L702.057 317.347L701.696 317.696C699.372 319.565 694.317 320.73 691.414 321.696C669.026 329.146 647.017 331.423 623.508 330.569C567.476 328.533 512.138 300.177 470.563 263.796C459.007 253.684 448.535 242.331 438.085 231.102Z"/>
	<path fill="#95644A" transform="scale(0.488281 0.488281)" d="M443.997 229.954C462.448 226.833 480.533 224.364 499.259 223.587C548.238 221.553 600.305 229.667 645.882 247.788C657.426 252.377 668.134 257.836 679.138 263.522L682.967 242.327C684.563 244.772 684.616 248.273 685.408 251.095L696.75 292.378C694.44 292.627 691.827 294.378 689.737 295.416C686.587 296.982 683.185 298.356 679.9 299.608C666.414 304.744 650.924 308.549 636.5 309.418C564.464 313.755 496.472 276.382 443.997 229.954Z"/>
</svg>
