<?xml version="1.0" encoding="utf-8" ?>
<svg xmlns="http://www.w3.org/2000/svg" xmlns:xlink="http://www.w3.org/1999/xlink" width="500" height="500">
	<path fill="#EFDBB3" transform="scale(0.488281 0.488281)" d="M-0 -0L1024 0L1024 1024L-0 1024L0 -0Z"/>
	<path fill="#F09524" transform="scale(0.488281 0.488281)" d="M790.938 487.75L793.25 487.524C795.14 488.211 796.834 489.037 797.846 490.878C798.539 492.14 798.702 493.921 798.255 495.291C797.615 497.256 795.981 498.253 794.25 499.146C793.484 499.4 792.565 499.595 791.75 499.48C790.373 499.286 788.671 498.229 787.875 497.086C786.824 495.576 786.533 493.597 787.1 491.825C787.736 489.84 789.284 488.81 790.938 487.75Z"/>
	<path fill="#F09524" transform="scale(0.488281 0.488281)" d="M819.981 358.75L822.75 358.511C824.333 358.658 825.737 359.771 826.63 361.039C827.618 362.441 828.015 364.66 827.43 366.312C826.811 368.063 824.799 369.122 823.199 369.75C821.88 370.018 820.524 369.949 819.25 369.481C817.793 368.947 816.54 367.909 815.878 366.495C815.291 365.241 815.297 363.509 815.85 362.239C816.609 360.497 818.333 359.493 819.981 358.75Z"/>
	<path fill="#E75F41" transform="scale(0.488281 0.488281)" d="M215.642 312.75C216.575 312.496 217.787 312.366 218.75 312.453C220.33 312.595 221.864 313.51 222.836 314.755C223.99 316.234 224.425 318.062 223.925 319.898C223.336 322.058 222.048 323.269 220.25 324.466C219.275 324.868 218.077 324.994 217.032 324.819C215.421 324.55 213.67 323.23 212.772 321.902C211.758 320.401 211.596 318.124 212.171 316.415C212.822 314.476 213.996 313.752 215.642 312.75Z"/>
	<path fill="#17A6A9" transform="scale(0.488281 0.488281)" d="M219.258 503.581C220.239 503.662 221.309 503.727 222.25 504.028C223.9 504.555 226.022 506.59 226.493 508.28C226.886 509.691 226.748 512.273 226.041 513.573C224.873 515.719 222.972 516.701 220.75 517.44C219.582 517.505 218.717 517.513 217.618 517.06C215.361 516.128 213.824 514.347 213.056 512.053C212.59 510.66 212.808 508.459 213.549 507.198C214.802 505.063 216.987 504.183 219.258 503.581Z"/>
	<path fill="#0A959A" transform="scale(0.488281 0.488281)" d="M791.108 276.491C792.519 276.47 794.121 276.366 795.478 276.797C797.643 277.485 799.374 279.289 800.364 281.28C801.627 283.821 801.618 285.776 800.586 288.399C799.507 291.14 797.507 292.235 794.933 293.373C793.886 293.452 792.842 293.503 791.796 293.363C789.148 293.006 786.894 291.412 785.365 289.229C784.265 287.659 784.06 284.724 784.644 282.917C785.753 279.488 787.955 277.946 791.108 276.491Z"/>
	<path fill="#C23A39" transform="scale(0.488281 0.488281)" d="M786.307 402.621C787.62 402.781 789.02 403.034 790.25 403.54C792.55 404.487 794.487 406.83 795.25 409.161C795.944 411.28 796.002 413.677 794.968 415.697C793.486 418.591 790.834 419.728 787.878 420.596L787.355 420.509C785.569 420.248 783.981 420.073 782.408 419.109C780.116 417.705 778.905 415.757 778.342 413.156C777.864 410.95 778.196 408.4 779.489 406.5C781.263 403.892 783.397 403.33 786.307 402.621Z"/>
	<path fill="#76CDA9" transform="scale(0.488281 0.488281)" d="M235.442 393.102C237.835 392.973 240.191 392.802 242.5 393.604C245.578 394.673 247.884 397.234 249.202 400.147C250.401 402.797 250.335 405.635 249.312 408.316C247.775 412.345 244.785 414.266 240.998 415.913C239.211 415.994 237.247 416.204 235.509 415.698C232.369 414.785 229.601 412.47 228.149 409.536C226.725 406.661 226.199 403.533 227.412 400.484C228.977 396.551 231.656 394.689 235.442 393.102Z"/>
	<path fill="#E75F41" transform="scale(0.488281 0.488281)" d="M649.191 869.622L764.483 854.099L767.709 908.333L645.8 923.692C643.701 923.255 639.821 924.329 637.515 924.619L605.268 928.624C601.297 929.144 595.009 930.877 591.197 930.213L589.273 916.169L583.754 878.922L636.971 871.312L639.438 870.976L646.739 869.865L649.191 869.622Z"/>
	<path fill="#E75F41" transform="scale(0.488281 0.488281)" d="M259.761 853.771L302.002 859.311L345.658 865.181L363.682 867.817C366.21 868.172 369.621 868.239 372.012 869.052L374.095 869.06C377.017 869.703 380.443 870.474 383.427 870.43L385.039 870.974L441.291 878.759L435.893 917.33L434.323 929.977C430.058 930.42 424.371 928.891 420.059 928.39L388.783 924.891C385.539 924.489 380.687 923.245 377.489 923.655L256.391 907.873L259.761 853.771Z"/>
	<path fill="#F3C168" transform="scale(0.488281 0.488281)" d="M589.273 916.169L591.197 930.213C595.009 930.877 601.297 929.144 605.268 928.624L637.515 924.619C639.821 924.329 643.701 923.255 645.8 923.692C646.28 924.026 646.698 924.477 647.241 924.694C648.497 925.195 651.817 925.01 653.299 925.11L674.353 926.312L759.674 932.291C769.496 933.308 779.37 934.149 789 936.449C791.912 937.145 795.622 937.819 798.149 939.452C799.299 940.195 799.283 940.493 799.565 941.75C799.366 942.23 799.377 942.285 798.99 942.75C797.966 943.98 795.958 944.752 794.491 945.25C788.63 947.241 782.066 948.137 775.964 949.095C746.615 953.705 716.973 955.051 687.355 956.599L549.041 960.52C462.568 960.896 375.837 960.781 289.628 953.133L249.544 948.146C243.862 947.229 233.503 946.222 229 942.466C228.1 941.715 227.696 941.144 227.514 940C233.645 929.108 332.209 925.877 348.37 925.321C352.621 925.175 374.617 925.48 376.863 924.082L377.489 923.655C380.687 923.245 385.539 924.489 388.783 924.891L420.059 928.39C424.371 928.891 430.058 930.42 434.323 929.977L435.893 917.33L588.75 917.306L589.273 916.169Z"/>
	<path fill="#0C4564" transform="scale(0.488281 0.488281)" d="M321.077 95.2321C432.952 79.1715 547.775 79.3155 660.141 90.1445L691.087 93.449C693.801 93.7932 698.134 93.7387 700.517 95.0292C701.661 97.1837 701.752 99.6065 702.061 101.991L703.586 112.873L710.104 157.844L620.215 178.978L614.928 179.906L609.178 181.024C607.167 173.412 606.82 164.83 605.808 157.021L600.301 114.631L577.275 117.876L561.299 119.516L510.91 121.525L444.089 117.737C441.763 117.073 438.934 117.079 436.5 116.804L420.623 114.836L416.535 152.957C416.107 157.422 415.093 178.879 413.041 181.265L405.963 180.191L402.124 179.288L346 167.505L328.884 163.452C324.649 162.354 320.036 160.74 315.673 160.535L318.286 118.895C318.678 111.464 318.381 103.157 319.861 95.9289L321.077 95.2321Z"/>
	<path fill="#F3C168" transform="scale(0.488281 0.488281)" d="M315.673 160.535L318.286 118.895C318.678 111.464 318.381 103.157 319.861 95.9289L321.077 95.2321C323.885 97.3841 330.855 98.1468 334.407 98.9997C362.931 105.848 391.536 111.049 420.623 114.836L416.535 152.957C416.107 157.422 415.093 178.879 413.041 181.265L405.963 180.191L402.124 179.288L346 167.505L328.884 163.452C324.649 162.354 320.036 160.74 315.673 160.535Z"/>
	<path fill="#F3C168" transform="scale(0.488281 0.488281)" d="M700.517 95.0292C701.661 97.1837 701.752 99.6065 702.061 101.991L703.586 112.873L710.104 157.844L620.215 178.978L614.928 179.906L609.178 181.024C607.167 173.412 606.82 164.83 605.808 157.021L600.301 114.631C628.269 111.64 656.452 105.928 683.842 99.5815C688.966 98.3942 695.974 97.5758 700.517 95.0292Z"/>
	<path fill="#17A6A9" transform="scale(0.488281 0.488281)" d="M420.623 114.836L436.5 116.804C438.934 117.079 441.763 117.073 444.089 117.737L510.91 121.525L510.462 187.453L509.01 187.608L509.001 357.705L509.135 397.708C509.149 400.379 509.896 405.518 509.251 407.945C509.127 408.408 508.061 409.555 507.756 409.972L503.133 416.424C498.355 423.221 494.141 430.209 489.966 437.381C476.231 460.979 464.216 485.378 453.958 510.697C429.871 570.149 413.538 632.825 401.008 695.633L387.395 773.013L377.71 831.515C375.691 843.945 373.275 856.523 372.012 869.052C369.621 868.239 366.21 868.172 363.682 867.817L345.658 865.181L302.002 859.311L259.761 853.771L292.759 329.103L295.272 301.282L315.673 160.535C320.036 160.74 324.649 162.354 328.884 163.452L346 167.505L402.124 179.288L405.963 180.191L413.041 181.265C415.093 178.879 416.107 157.422 416.535 152.957L420.623 114.836Z"/>
	<path fill="#015155" transform="scale(0.488281 0.488281)" d="M388.379 411.75L388.936 412.286L318.77 532.75L318.562 532.188C331.552 504.616 346.351 477.59 362.267 451.621C370.54 438.121 378.98 424.501 388.379 411.75Z"/>
	<path fill="#0C4564" transform="scale(0.488281 0.488281)" d="M414.538 186.385L432.673 188.143C433.991 188.302 434.691 188.274 435.795 189.095L433.522 201.695L414.445 199.455L414.566 186.921L414.538 186.385Z"/>
	<path fill="#0A959A" transform="scale(0.488281 0.488281)" d="M402.124 179.288L405.963 180.191L405.693 180.849C403.544 186.22 402.998 192.095 402.026 197.763C400.976 203.88 399.627 210.017 397.965 216C387.736 252.831 369.504 287.073 337.75 309.77C329.905 315.377 320.952 319.994 312.131 323.839L293.5 330.402L293.078 329.606L292.759 329.103L295.272 301.282C304.075 297.998 312.643 294.2 320.75 289.42C346.862 274.022 369.37 252.097 384.212 225.582C392.297 211.137 398.02 195.293 402.124 179.288Z"/>
	<path fill="#F3C168" transform="scale(0.488281 0.488281)" d="M444.089 117.737L510.91 121.525L510.462 187.453L509.01 187.608L436.9 183.856L444.089 117.737Z"/>
	<path fill="#F09524" transform="scale(0.488281 0.488281)" d="M452.435 153.75L452.93 153.621C454.989 153.235 457.733 153.311 459.5 154.465C460.002 155.295 460.551 155.671 460.315 156.672C459.872 158.56 458.444 159.203 456.891 160.076L454.399 160.401C452.539 160.568 451.349 160.294 449.918 159.058C449.314 157.671 449.189 157.476 449.427 156C450.335 154.679 451.025 154.39 452.435 153.75Z"/>
	<path fill="#F09524" transform="scale(0.488281 0.488281)" d="M486.896 161.899C486.605 162.347 486.54 162.554 486.102 162.854C483.753 164.463 476.747 165.207 474.059 164.647C472.57 164.338 470.885 163.671 470.111 162.284C469.706 161.558 470.039 161.015 470.203 160.25C474.156 156.522 480.03 157.459 485.096 157.361L486.896 161.899Z"/>
	<path fill="#FCFEFD" transform="scale(0.488281 0.488281)" d="M485.096 157.361C485.393 152.825 486.213 149.95 489.841 146.909C490.701 146.188 491.445 145.814 492.5 145.483L493.01 145.318C495.446 144.598 498.294 144.852 500.5 146.116C503.317 147.732 505.256 150.351 505.998 153.5C506.708 156.516 506.211 159.169 504.496 161.75C502.886 164.173 500.172 166.336 497.25 166.87C494.596 167.355 492.138 166.774 490.009 165.131C488.813 164.208 487.846 163.062 486.896 161.899L485.096 157.361Z"/>
	<path fill="#0C4564" transform="scale(0.488281 0.488281)" d="M494.208 150.25C495.052 150.123 494.768 150.121 495.723 150.195C497.389 150.323 498.86 150.923 499.858 152.3C501.091 154.004 501.112 155.215 500.817 157.25C499.781 158.965 498.932 159.775 497.182 160.75C496.317 161.037 495.69 161.046 494.796 160.982C493.384 160.88 492.038 160.082 491.224 158.883C489.927 156.974 490.207 154.862 490.675 152.75C491.802 151.287 492.462 150.829 494.208 150.25Z"/>
	<path fill="#F09524" transform="scale(0.488281 0.488281)" d="M315.673 160.535C320.036 160.74 324.649 162.354 328.884 163.452L346 167.505L402.124 179.288C398.02 195.293 392.297 211.137 384.212 225.582C369.37 252.097 346.862 274.022 320.75 289.42C312.643 294.2 304.075 297.998 295.272 301.282L315.673 160.535Z"/>
	<path fill="#17A6A9" transform="scale(0.488281 0.488281)" d="M577.275 117.876L600.301 114.631L605.808 157.021C606.82 164.83 607.167 173.412 609.178 181.024L614.928 179.906L620.215 178.978L710.104 157.844L728.47 300.522L730.739 328.602L764.483 854.099L649.191 869.622L646.739 869.865L639.438 870.976L636.971 871.312L583.754 878.922L589.273 916.169L588.75 917.306L435.893 917.33L441.291 878.759L385.039 870.974L383.427 870.43C380.443 870.474 377.017 869.703 374.095 869.06L372.012 869.052C373.275 856.523 375.691 843.945 377.71 831.515L387.395 773.013L401.008 695.633C413.538 632.825 429.871 570.149 453.958 510.697C464.216 485.378 476.231 460.979 489.966 437.381C494.141 430.209 498.355 423.221 503.133 416.424L507.756 409.972C508.061 409.555 509.127 408.408 509.251 407.945C509.896 405.518 509.149 400.379 509.135 397.708L509.001 357.705L509.01 187.608L510.462 187.453L510.91 121.525L561.299 119.516L577.275 117.876Z"/>
	<path fill="#0C4564" transform="scale(0.488281 0.488281)" d="M606.571 183.048C607.811 184.421 607.673 186.255 607.918 188L609.464 197.948L596.288 200.802C594.512 201.131 592.525 201.773 590.745 201.531L588.551 191.287C588.221 189.932 587.468 188.107 588 186.786L606.571 183.048Z"/>
	<defs>
		<linearGradient id="gradient_0" gradientUnits="userSpaceOnUse" x1="644.79071" y1="411.29663" x2="651.9632" y2="406.78595">
			<stop offset="0" stop-color="#003841"/>
			<stop offset="1" stop-color="#025F67"/>
		</linearGradient>
	</defs>
	<path fill="url(#gradient_0)" transform="scale(0.488281 0.488281)" d="M628.831 379.392L607.255 351.75L607.75 351.255L624.947 371.047C626.82 373.232 630.26 376.471 631.409 379.057C634.652 382.504 637.263 386.691 640.126 390.464C658.29 414.405 674.009 441.216 687.609 468L687.25 468.728L628.831 379.392Z"/>
	<path fill="#F3C168" transform="scale(0.488281 0.488281)" d="M561.299 119.516L577.275 117.876L583.77 165.568C584.626 171.31 584.928 178.35 586.719 183.851L561.902 186.512L561.299 119.516Z"/>
	<path fill="#0A959A" transform="scale(0.488281 0.488281)" d="M614.928 179.906L620.215 178.978C622.464 186.962 624.632 194.722 627.738 202.434C642.57 239.253 668.648 269.598 703.33 288.938L728.47 300.522L730.739 328.602L729.792 329.241C727.06 329.464 723.849 327.872 721.271 326.977C683.819 313.968 654.351 285.389 636.73 250.248C631.254 239.327 627.302 227.998 623.791 216.318L619.462 199.671L616.486 185.936C616.11 184.195 616.184 182.254 615.349 180.667L614.928 179.906Z"/>
	<path fill="#E75F41" transform="scale(0.488281 0.488281)" d="M510.91 121.525L561.299 119.516L561.902 186.512L538.946 187.216L536.482 187.431L511.502 187.561L510.462 187.453L510.91 121.525Z"/>
	<path fill="#C23A39" transform="scale(0.488281 0.488281)" d="M524.255 153.75L524.721 153.671C529.581 153.046 535.215 153.496 540.165 153.492C542.165 153.491 545.104 153.157 547 153.608C547.369 153.696 548.306 154.578 548.663 154.843C549.167 156.038 549.696 157.205 549.05 158.5C548.335 159.934 547.645 160.057 546.25 160.595L544.827 160.75C540.796 161.044 536.613 160.877 532.566 160.89C529.997 160.898 527.069 161.181 524.559 160.688C523.671 160.513 523.117 160.075 522.438 159.51C521.901 158.249 521.364 157.131 521.967 155.75C522.536 154.447 523.047 154.289 524.255 153.75Z"/>
	<path fill="#F09524" transform="scale(0.488281 0.488281)" d="M620.215 178.978L710.104 157.844L728.47 300.522L703.33 288.938C668.648 269.598 642.57 239.253 627.738 202.434C624.632 194.722 622.464 186.962 620.215 178.978Z"/>
	<path fill="#FCFEFD" transform="scale(0.488281 0.488281)" d="M511.502 187.561L536.482 187.431L538.946 187.216L538.569 275.081L538.52 302.557C538.507 308.278 538.891 314.199 537.873 319.844C536.83 325.626 533.415 331.626 529.308 335.783C526.006 339.126 521.936 342.05 517.366 343.328C515.431 343.869 513.213 344.134 511.412 344.993L511.532 406.843L511.951 407.174C514.716 409.443 516.64 412.655 518.763 415.508C528.134 428.104 536.009 441.373 543.19 455.327C556.252 480.705 568.019 506.987 577.815 533.809C589.473 565.731 598.546 598.627 607.076 631.5C622.566 691.199 634.167 751.434 642.139 812.585L649.075 868L649.191 869.622L646.739 869.865L639.438 870.976L636.971 871.312C634.79 859.3 633.859 846.742 632.253 834.625L623.5 775.25L604.505 671C588.902 595.365 568.541 519.402 533.693 450.127L519.03 423.127C517.266 419.858 514.852 413.343 512.037 411.093L511.567 411.95C511.132 412.233 510.335 412.634 510.014 413.029C505.222 420.669 501.323 428.833 497.255 436.871L473.733 487.868C433.906 583.856 413.504 686.546 397.074 788.75L390.094 834.681L385.039 870.974L383.427 870.43C380.443 870.474 377.017 869.703 374.095 869.06L372.012 869.052C373.275 856.523 375.691 843.945 377.71 831.515L387.395 773.013L401.008 695.633C413.538 632.825 429.871 570.149 453.958 510.697C464.216 485.378 476.231 460.979 489.966 437.381C494.141 430.209 498.355 423.221 503.133 416.424L507.756 409.972C508.061 409.555 509.127 408.408 509.251 407.945C509.896 405.518 509.149 400.379 509.135 397.708L509.001 357.705L509.01 187.608L510.462 187.453L511.502 187.561Z"/>
	<path fill="#17A6A9" transform="scale(0.488281 0.488281)" d="M639.438 870.976L619.425 735.779L606.593 669.496C593.247 604.2 576.119 539.181 549.207 478.033C540.96 459.295 531.595 441.331 521.561 423.5L521.75 422.829C529.023 433.391 535.06 444.985 541.066 456.305C567.289 505.727 584.685 558.368 599.431 612.141C612.021 658.054 622.618 704.629 630.657 751.563L640.481 819.812L646.739 869.865L639.438 870.976Z"/>
	<path fill="#17A6A9" transform="scale(0.488281 0.488281)" d="M374.095 869.06L388.88 777C408.965 653.876 434.817 527.653 502.75 420.907L503.09 421.5C465.283 489.722 441.575 564.386 423.657 640L394.73 790.516L386.166 847.703C385.182 855.216 383.736 862.861 383.427 870.43C380.443 870.474 377.017 869.703 374.095 869.06Z"/>
	<path fill="#17A6A9" transform="scale(0.488281 0.488281)" d="M511.502 187.561L536.482 187.431L536.349 272.767L536.387 299.612C536.39 305.726 536.625 311.924 535.933 318.008C535.52 321.645 534.245 325.08 532.441 328.25C527.858 336.305 520.117 340.46 511.435 342.729L511.502 187.561Z"/>
	<path fill="#17A6A9" transform="scale(0.488281 0.488281)" d="M511.567 411.95L512.037 411.093C514.852 413.343 517.266 419.858 519.03 423.127L533.693 450.127C568.541 519.402 588.902 595.365 604.505 671L623.5 775.25L632.253 834.625C633.859 846.742 634.79 859.3 636.971 871.312L583.754 878.922L513.745 434.664L509.774 434.718C510.372 429.623 510.52 424.632 510.525 419.505C510.527 417.442 510.83 414.952 510.014 413.029C510.335 412.634 511.132 412.233 511.567 411.95Z"/>
	<path fill="#FCFEFD" transform="scale(0.488281 0.488281)" d="M511.567 411.95C512.4 414.986 512.223 418.421 512.373 421.558C512.585 425.992 513.034 430.285 513.745 434.664L509.774 434.718C510.372 429.623 510.52 424.632 510.525 419.505C510.527 417.442 510.83 414.952 510.014 413.029C510.335 412.634 511.132 412.233 511.567 411.95Z"/>
	<path fill="#17A6A9" transform="scale(0.488281 0.488281)" d="M510.014 413.029C510.83 414.952 510.527 417.442 510.525 419.505C510.52 424.632 510.372 429.623 509.774 434.718L441.291 878.759L385.039 870.974L390.094 834.681L397.074 788.75C413.504 686.546 433.906 583.856 473.733 487.868L497.255 436.871C501.323 428.833 505.222 420.669 510.014 413.029Z"/>
	<path fill="#EFDBB3" transform="scale(0.488281 0.488281)" d="M513.745 434.664L583.754 878.922L589.273 916.169L588.75 917.306L435.893 917.33L441.291 878.759L509.774 434.718L513.745 434.664Z"/>
</svg>
