<?xml version="1.0" encoding="utf-8" ?>
<svg xmlns="http://www.w3.org/2000/svg" xmlns:xlink="http://www.w3.org/1999/xlink" width="500" height="500">
	<path fill="#010409" transform="scale(0.488281 0.488281)" d="M516.611 1024L-0 1024L0 -0L1024 0L1024 517.442L1024 1024L516.611 1024Z"/>
	<path fill="#3C485C" transform="scale(0.488281 0.488281)" d="M594.319 165.402L623.652 165.086C633.258 165.054 643.576 164.389 653.066 165.85C663.213 167.412 673.739 172.249 681.386 179.134C692.125 188.804 698.294 203.35 698.901 217.675L699.019 260.444L699.083 340.22L699.04 595.784L699.015 747.986L699.03 792.991C699.032 800.938 699.59 809.42 698.651 817.299C697.495 826.995 692.284 837.056 685.65 844.147C676.79 853.616 664.704 860.136 651.5 860.515L509.004 860.649L509.028 846.499L606.752 846.381L634.22 846.355C639.72 846.34 645.637 846.693 651.054 845.674C658.605 844.254 666.529 840.512 672.257 835.392C680.595 827.94 686.533 816.897 687.018 805.609L687.13 766.802L687.153 692.658L687.198 441.81L687.275 289.726L687.31 244.666C687.313 236.548 687.855 227.937 686.964 219.881C685.848 209.79 681.735 199.869 674.808 192.383C666.836 183.767 655.138 178.302 643.493 177.112C634.245 176.168 624.377 177.077 615.034 176.77L614.651 176.231C615.905 172.538 617.732 169.086 619.421 165.578L594.319 165.402Z"/>
	<path fill="#545F7F" transform="scale(0.488281 0.488281)" d="M509.004 860.649L416.615 860.577L391.295 860.571C382.557 860.554 374.367 860.6 365.797 858.562C356.39 856.324 347.117 851.076 340.275 844.257C331.115 835.127 325.514 823.429 323.828 810.634C322.929 803.809 323.293 796.492 323.25 789.598L323.109 754.369L323.019 634.938L323.36 238.35L323.388 219.25C323.401 214.886 323.269 210.349 324.115 206.056C326.086 196.05 331.853 187.182 339.001 180.094C347.142 172.022 355.859 167.737 367.125 165.828C373.984 164.665 382.021 165.406 389.028 165.392L432.189 165.305L594.319 165.402L619.421 165.578C617.732 169.086 615.905 172.538 614.651 176.231L615.034 176.77L614.012 176.893C609.669 176.216 605.039 176.396 600.643 176.325L578.037 176.115L502.519 176.127L425.465 176.18C410.345 176.144 394.455 175.113 379.44 176.814C370.453 177.833 361.615 180.376 354.235 185.765C342.945 194.01 339.317 206.625 337.354 219.845C335.813 230.222 335.944 240.753 335.9 251.214C335.886 254.562 335.437 258.569 335.902 261.853L335.712 302.923L335.48 376.708L335.41 589.741L335.651 735.527L335.662 777.39C335.646 785.498 335.161 793.965 335.96 802.032C336.948 812.002 341.191 822.615 347.909 830.139C355.748 838.919 365.593 844.429 377.25 846.084L378.075 846.206C386.043 847.299 394.59 846.688 402.604 846.461L509.028 846.499L509.004 860.649Z"/>
	<defs>
		<linearGradient id="gradient_0" gradientUnits="userSpaceOnUse" x1="610.3819" y1="186.1295" x2="226.28445" y2="747.57446">
			<stop offset="0" stop-color="#F5E0A3"/>
			<stop offset="1" stop-color="#F8F8FC"/>
		</linearGradient>
	</defs>
	<path fill="url(#gradient_0)" transform="scale(0.488281 0.488281)" d="M335.902 261.853C335.437 258.569 335.886 254.562 335.9 251.214C335.944 240.753 335.813 230.222 337.354 219.845C339.317 206.625 342.945 194.01 354.235 185.765C361.615 180.376 370.453 177.833 379.44 176.814C394.455 175.113 410.345 176.144 425.465 176.18L502.519 176.127L578.037 176.115L600.643 176.325C605.039 176.396 609.669 176.216 614.012 176.893L610.321 184.128L585.106 233.529L632.458 233.6L650.188 233.581C653.607 233.579 657.265 233.198 660.5 234.416L661.247 234.689C662.865 235.301 664.171 236.066 665.545 237.107C664.195 238.33 664.011 240.204 663.521 241.887C662.28 246.16 659.92 253.327 655.508 254.907L655.455 249.146L642.537 249.078L621.363 249.328L535.269 249.395L368.181 249.305L368.501 615.717L368.505 618.725L367.929 617.214C362.128 623.949 359.398 633.459 353.387 640.261L353.442 766.289C352.555 772.75 352.946 779.548 352.927 786.069C352.907 792.513 352.271 799.803 353.75 806.059L353.943 806.921C356.658 818.602 366.243 828.856 376.25 834.89C380.417 837.402 384.998 839.468 389.505 841.289C393.28 842.813 399.811 843.719 402.604 846.461C394.59 846.688 386.043 847.299 378.075 846.206L377.25 846.084C365.593 844.429 355.748 838.919 347.909 830.139C341.191 822.615 336.948 812.002 335.96 802.032C335.161 793.965 335.646 785.498 335.662 777.39L335.651 735.527L335.41 589.741L335.48 376.708L335.712 302.923L335.902 261.853Z"/>
	<path fill="#010409" transform="scale(0.488281 0.488281)" d="M473.348 196.146L527.216 196.433L543.374 196.438C545.96 196.441 549.333 196.087 551.75 197.098C553.966 198.026 555.665 199.865 556.534 202.091C557.425 204.375 557.566 207.73 556.514 209.967C555.006 213.175 552.338 214.688 549.125 215.791C534.338 216.633 519.072 215.964 504.229 215.994L483.634 216.01C479.948 216.006 475.664 216.467 472.153 215.341C469.559 214.51 467.474 212.655 466.377 210.168C465.217 207.54 465.209 204.615 466.365 201.989C467.745 198.852 470.307 197.401 473.348 196.146Z"/>
	<path fill="#2D315B" transform="scale(0.488281 0.488281)" d="M472.596 201.25L473.953 200.894C476.345 200.507 479.236 200.904 481.688 200.951L495.854 200.987L530.786 200.998C536.54 201.003 542.489 200.654 548.208 201.072C549.423 201.16 550.258 201.332 551.25 202.093C552.3 203.925 552.902 205.02 552.519 207.25C552.217 209.009 551.33 209.702 550.009 210.75C548.958 210.966 548.075 211.06 546.994 211.067L496.545 211.033L481.292 211.022C478.874 211.017 476.016 211.301 473.66 210.934C472.635 210.774 471.784 210.161 471.112 209.397C469.968 208.096 469.842 206.417 470.012 204.75C470.18 203.103 471.349 202.159 472.596 201.25Z"/>
	<path fill="#FEFEFD" transform="scale(0.488281 0.488281)" d="M335.902 261.853C335.437 258.569 335.886 254.562 335.9 251.214C335.944 240.753 335.813 230.222 337.354 219.845C339.317 206.625 342.945 194.01 354.235 185.765C361.615 180.376 370.453 177.833 379.44 176.814C394.455 175.113 410.345 176.144 425.465 176.18L502.519 176.127L578.037 176.115L600.643 176.325C605.039 176.396 609.669 176.216 614.012 176.893L610.321 184.128L468.898 184.317L412.404 184.172C403.843 184.229 394.261 183.562 385.832 184.924C377.768 186.227 370.537 189.69 364.687 195.445C362.727 197.373 360.994 199.23 359.441 201.5L358.971 202.166C343.676 224.152 348.929 252.914 346.843 277.959C345.983 288.278 343.479 297.66 341.116 307.64C340.31 311.042 340.354 315.931 337.5 318.079L336.25 318.245L336.119 277.75C336.121 272.621 336.638 266.891 335.902 261.853Z"/>
	<path fill="#3C485C" transform="scale(0.488281 0.488281)" d="M585.106 233.529L632.458 233.6L650.188 233.581C653.607 233.579 657.265 233.198 660.5 234.416L661.247 234.689C662.865 235.301 664.171 236.066 665.545 237.107C664.195 238.33 664.011 240.204 663.521 241.887C662.28 246.16 659.92 253.327 655.508 254.907L655.455 249.146L642.537 249.078L621.363 249.328L535.269 249.395L368.181 249.305L368.501 615.717L368.505 618.725L367.929 617.214C362.128 623.949 359.398 633.459 353.387 640.261L353.264 556.445L353.367 383.919L353.12 293.314L353.074 262.673C353.079 257.259 352.726 251.54 353.176 246.158C353.449 242.897 354.604 240.255 356.888 237.891C358.796 235.916 361.965 233.88 364.75 233.612C371.77 232.937 379.447 233.56 386.529 233.562L434.355 233.583L585.106 233.529Z"/>
	<path fill="#2D315B" transform="scale(0.488281 0.488281)" d="M585.106 233.529L632.458 233.6L650.188 233.581C653.607 233.579 657.265 233.198 660.5 234.416L661.247 234.689C662.865 235.301 664.171 236.066 665.545 237.107C664.195 238.33 664.011 240.204 663.521 241.887C662.28 246.16 659.92 253.327 655.508 254.907L655.455 249.146L642.537 249.078C636.174 248.062 628.491 248.837 621.98 248.848L577.137 248.944L585.106 233.529Z"/>
	<path fill="#AF8AAC" transform="scale(0.488281 0.488281)" d="M368.501 615.717L368.181 249.305L535.269 249.395L576.845 249.376L545.392 305.61L431.75 506.268L392.334 575.08L376.457 602.694C374.131 606.705 371.552 612.361 368.501 615.717Z"/>
	<path fill="#9B6394" transform="scale(0.488281 0.488281)" d="M535.269 249.395L621.363 249.328L642.537 249.078L655.455 249.146L655.508 254.907L655.436 269.229C655.137 271.158 654.989 272.576 653.782 274.136C651.482 277.111 649.817 281.524 647.969 284.927L634.301 309.706L579.879 407.263L473.174 595.577L379.695 756.413C376.231 756.423 372.423 756.117 369.005 756.553C367.499 753.79 368.446 745.708 368.445 742.397L368.468 696.965L368.505 618.725L368.501 615.717C371.552 612.361 374.131 606.705 376.457 602.694L392.334 575.08L431.75 506.268L545.392 305.61L576.845 249.376L535.269 249.395Z"/>
	<path fill="#85507F" transform="scale(0.488281 0.488281)" d="M535.269 249.395L621.363 249.328L516.483 437L432.071 586.305L387.613 663.773L374.378 687.284C372.491 690.507 370.869 694.09 368.468 696.965L368.505 618.725L368.501 615.717C371.552 612.361 374.131 606.705 376.457 602.694L392.334 575.08L431.75 506.268L545.392 305.61L576.845 249.376L535.269 249.395Z"/>
	<path fill="#EBCA70" transform="scale(0.488281 0.488281)" d="M614.012 176.893L615.034 176.77C624.377 177.077 634.245 176.168 643.493 177.112C655.138 178.302 666.836 183.767 674.808 192.383C681.735 199.869 685.848 209.79 686.964 219.881C687.855 227.937 687.313 236.548 687.31 244.666L687.275 289.726L687.198 441.81L687.153 692.658L687.13 766.802L687.018 805.609C686.533 816.897 680.595 827.94 672.257 835.392C666.529 840.512 658.605 844.254 651.054 845.674C645.637 846.693 639.72 846.34 634.22 846.355L606.752 846.381L509.028 846.499L402.604 846.461C399.811 843.719 393.28 842.813 389.505 841.289C384.998 839.468 380.417 837.402 376.25 834.89C366.243 828.856 356.658 818.602 353.943 806.921L353.75 806.059C352.271 799.803 352.907 792.513 352.927 786.069C352.946 779.548 352.555 772.75 353.442 766.289L353.387 640.261C359.398 633.459 362.128 623.949 367.929 617.214L368.505 618.725L368.468 696.965L368.445 742.397C368.446 745.708 367.499 753.79 369.005 756.553C371.071 757.194 373.608 756.932 375.769 756.938L386.883 756.961L432.723 756.942L654.794 756.514L655.436 269.229L655.508 254.907C659.92 253.327 662.28 246.16 663.521 241.887C664.011 240.204 664.195 238.33 665.545 237.107C664.171 236.066 662.865 235.301 661.247 234.689L660.5 234.416C657.265 233.198 653.607 233.579 650.188 233.581L632.458 233.6L585.106 233.529L610.321 184.128L614.012 176.893Z"/>
	<path fill="#AF8AAC" transform="scale(0.488281 0.488281)" d="M509.921 785.459C514.339 785.368 527.736 783.727 530.962 786.745C531.672 787.41 532.261 788.362 532.431 789.325C533.044 792.784 532.592 797.076 532.593 800.606L532.534 822.5C532.483 823.858 532.087 825.24 531.125 826.25C530.511 826.895 529.821 827.286 528.985 827.531C526.19 828.674 522.012 828.121 519.002 828.119C514.183 828.115 508.829 828.572 504.06 828.03L502.994 828.533L500.75 828.111C498.062 827.618 496 826.928 493.893 825.097C490.843 822.445 489.116 819.328 488.987 815.25L488.96 801.879C488.98 799.624 488.749 797.019 489.426 794.869C490.098 792.735 491.67 790.543 493.25 788.983C497.496 784.789 504.41 785.547 509.921 785.459Z"/>
	<path fill="#151544" transform="scale(0.488281 0.488281)" d="M501.813 823.998L528.482 824.027C528.739 824.641 529.166 825.21 529.254 825.87C529.331 826.447 528.807 826.872 528.985 827.531C526.19 828.674 522.012 828.121 519.002 828.119C514.183 828.115 508.829 828.572 504.06 828.03C503.627 827.27 503.388 826.808 503.294 825.916L503.255 825.25L501.813 823.998Z"/>
	<path fill="#DDAECE" transform="scale(0.488281 0.488281)" d="M497.774 822.611C496.04 820.889 494.44 818.967 493.977 816.489C493.498 813.925 493.739 810.885 493.717 808.272C493.683 804.139 492.713 796.841 495.399 793.45C497.1 791.301 499.259 790.357 501.912 789.976L510.816 790.052C507.238 800.647 503.696 813.164 497.774 822.611Z"/>
	<path fill="#010409" transform="scale(0.488281 0.488281)" d="M509.921 785.459C514.339 785.368 527.736 783.727 530.962 786.745C531.672 787.41 532.261 788.362 532.431 789.325C533.044 792.784 532.592 797.076 532.593 800.606L532.534 822.5C532.483 823.858 532.087 825.24 531.125 826.25C530.511 826.895 529.821 827.286 528.985 827.531C528.807 826.872 529.331 826.447 529.254 825.87C529.166 825.21 528.739 824.641 528.482 824.027L528.449 789.521L512.572 789.52C509.046 789.532 505.386 789.318 501.912 789.976C499.259 790.357 497.1 791.301 495.399 793.45C492.713 796.841 493.683 804.139 493.717 808.272C493.739 810.885 493.498 813.925 493.977 816.489C494.44 818.967 496.04 820.889 497.774 822.611C499.132 823.215 500.36 823.679 501.813 823.998L503.255 825.25L503.294 825.916C503.388 826.808 503.627 827.27 504.06 828.03L502.994 828.533L500.75 828.111C498.062 827.618 496 826.928 493.893 825.097C490.843 822.445 489.116 819.328 488.987 815.25L488.96 801.879C488.98 799.624 488.749 797.019 489.426 794.869C490.098 792.735 491.67 790.543 493.25 788.983C497.496 784.789 504.41 785.547 509.921 785.459Z"/>
	<path fill="#151544" transform="scale(0.488281 0.488281)" d="M655.508 254.907C659.92 253.327 662.28 246.16 663.521 241.887C664.011 240.204 664.195 238.33 665.545 237.107C669.133 240.459 670.192 242.526 670.389 247.459L670.479 294.263L670.475 384.38L670.362 664.893C670.367 674.772 671.151 769.806 669.898 772.011L509.815 771.934L509.921 785.459C504.41 785.547 497.496 784.789 493.25 788.983C491.67 790.543 490.098 792.735 489.426 794.869C488.749 797.019 488.98 799.624 488.96 801.879L488.987 815.25C489.116 819.328 490.843 822.445 493.893 825.097C496 826.928 498.062 827.618 500.75 828.111L502.994 828.533L509.331 828.51L509.418 840.929C509.426 842.733 509.728 844.82 509.028 846.499L402.604 846.461C399.811 843.719 393.28 842.813 389.505 841.289C384.998 839.468 380.417 837.402 376.25 834.89C366.243 828.856 356.658 818.602 353.943 806.921L353.75 806.059C352.271 799.803 352.907 792.513 352.927 786.069C352.946 779.548 352.555 772.75 353.442 766.289L353.387 640.261C359.398 633.459 362.128 623.949 367.929 617.214L368.505 618.725L368.468 696.965L368.445 742.397C368.446 745.708 367.499 753.79 369.005 756.553C371.071 757.194 373.608 756.932 375.769 756.938L386.883 756.961L432.723 756.942L654.794 756.514L655.436 269.229L655.508 254.907Z"/>
	<path fill="#F7E6AF" transform="scale(0.488281 0.488281)" d="M353.442 766.289C356.059 769.583 358.078 771.299 362.419 771.759L509.815 771.934L509.921 785.459C504.41 785.547 497.496 784.789 493.25 788.983C491.67 790.543 490.098 792.735 489.426 794.869C488.749 797.019 488.98 799.624 488.96 801.879L488.987 815.25C489.116 819.328 490.843 822.445 493.893 825.097C496 826.928 498.062 827.618 500.75 828.111L502.994 828.533L509.331 828.51L509.418 840.929C509.426 842.733 509.728 844.82 509.028 846.499L402.604 846.461C399.811 843.719 393.28 842.813 389.505 841.289C384.998 839.468 380.417 837.402 376.25 834.89C366.243 828.856 356.658 818.602 353.943 806.921L353.75 806.059C352.271 799.803 352.907 792.513 352.927 786.069C352.946 779.548 352.555 772.75 353.442 766.289Z"/>
	<path fill="#85507F" transform="scale(0.488281 0.488281)" d="M369.005 756.553C372.423 756.117 376.231 756.423 379.695 756.413L473.174 595.577L579.879 407.263L634.301 309.706L647.969 284.927C649.817 281.524 651.482 277.111 653.782 274.136C654.989 272.576 655.137 271.158 655.436 269.229L654.794 756.514L432.723 756.942L386.883 756.961L375.769 756.938C373.608 756.932 371.071 757.194 369.005 756.553Z"/>
	<path fill="#24A0BC" transform="scale(0.488281 0.488281)" d="M693.069 185.082C696.651 186.56 699.927 191.198 702.75 193.896L769.25 260.885L831.813 324.03L979.427 472.553L1024 517.442L1024 1024L516.611 1024L383.265 891.548L356.481 865.279C354.99 863.797 351.729 861.463 350.75 859.755C350.578 859.455 350.623 858.029 350.592 857.605C359.711 861.743 367.427 864.027 377.438 864.7C384.39 865.167 391.482 864.905 398.452 864.905L434.26 864.885L544.215 864.84L620.253 864.822L643.064 864.777C648.391 864.757 654.344 865.006 659.533 863.736C664.923 862.417 669.82 860.811 674.734 858.181C687.602 851.294 697.233 839.171 701.202 825.156C703.467 817.157 703.241 808.978 703.276 800.75L703.363 774.394L703.537 704.255L703.541 386.301L703.506 271.491L703.481 235.231C703.473 228.814 703.841 222.124 703.338 215.736C702.428 204.182 698.53 195.124 693.069 185.082Z"/>
	<path fill="#39C0D9" transform="scale(0.488281 0.488281)" d="M516.611 1024L-0 1024L0 -0L1024 0L1024 517.442L979.427 472.553L831.813 324.03L769.25 260.885L702.75 193.896C699.927 191.198 696.651 186.56 693.069 185.082C690.124 181.978 687.629 178.63 684.464 175.693C674.421 166.373 660.92 161.153 647.293 160.775L588.316 160.729L458.204 160.61L397.818 160.633C387.047 160.656 374.737 159.611 364.171 161.614C353.691 163.601 343.563 169.53 335.947 176.877C326.227 186.252 319.167 199.708 318.993 213.4L318.931 334.189L318.973 624.811L318.983 752.43L318.985 789.575C318.989 797.312 318.529 805.267 319.624 812.935C321.488 825.995 328.032 838.076 337.25 847.423C341.184 851.413 345.796 854.734 350.592 857.605C350.623 858.029 350.578 859.455 350.75 859.755C351.729 861.463 354.99 863.797 356.481 865.279L383.265 891.548L516.611 1024Z"/>
</svg>
