<?xml version="1.0" encoding="utf-8" ?>
<svg xmlns="http://www.w3.org/2000/svg" xmlns:xlink="http://www.w3.org/1999/xlink" width="500" height="500">
	<path fill="#0ACECF" transform="scale(0.488281 0.488281)" d="M-0 -0L1024 0L1024 1024L-0 1024L0 -0Z"/>
	<path fill="#179BB6" transform="scale(0.488281 0.488281)" d="M526.043 774.825L551.719 774.533L604.368 775.736C646.819 778.176 688.827 785.254 729.983 795.761C756.649 802.568 786.652 810.93 808.907 827.758C817.536 834.283 826.724 843.17 828.322 854.438C828.82 857.95 828.635 861.675 827.672 865.076C827.113 867.052 826.53 868.764 825.659 870.629L825.357 871.286C815.16 893.005 777.394 907.733 755.902 915.342C728.767 924.949 700.287 930.985 671.972 935.878C611.112 946.395 549.444 949.949 487.75 949.01C441.05 948.299 394.595 945.326 348.5 937.475C313.988 931.597 279.591 924.201 247.862 908.899C232.178 901.334 215.22 892.159 204.078 878.479C197.274 870.125 193.422 860.726 194.518 849.827C195.881 836.276 204.764 826.025 214.533 817.334L226.888 832.511C233.55 839.936 240.958 846.679 248.675 852.986C282.104 880.31 328.352 892.614 371.041 888.266C415.95 883.692 457.478 860.423 486.604 826.196C500.606 809.742 512.406 791.567 526.043 774.825Z"/>
	<defs>
		<linearGradient id="gradient_0" gradientUnits="userSpaceOnUse" x1="659.39587" y1="646.32263" x2="367.60516" y2="363.74149">
			<stop offset="0" stop-color="#4A1632"/>
			<stop offset="1" stop-color="#6E1549"/>
		</linearGradient>
	</defs>
	<path fill="url(#gradient_0)" transform="scale(0.488281 0.488281)" d="M214.533 817.334C198.884 794.391 187.062 768.96 182.986 741.264C177.601 704.68 183.69 666.228 202.257 633.969C208.503 623.118 216.413 613.018 223.857 602.957L300.602 500.975L457.652 293.425L503.665 233.227L527.606 201.665C536.601 189.944 545.145 178.651 556.182 168.733C581.902 145.622 613.857 129.02 648.323 124.042C692.843 117.613 741.136 129.44 777.117 156.621C813.166 183.852 838.573 222.251 844.789 267.46C849.487 301.627 844.668 335.989 829.946 367.256C818.94 390.632 801.385 410.928 785.911 431.477L732.371 502.85L648.29 614.925L603.75 672.488L526.043 774.825C512.406 791.567 500.606 809.742 486.604 826.196C457.478 860.423 415.95 883.692 371.041 888.266C328.352 892.614 282.104 880.31 248.675 852.986C240.958 846.679 233.55 839.936 226.888 832.511L214.533 817.334Z"/>
	<path fill="#F1D9D8" transform="scale(0.488281 0.488281)" d="M775.034 173.259C807.291 198.413 827.073 235.211 832.026 275.594C833.225 285.366 833.375 296.9 831.86 306.603C830.503 298.474 829.823 290.333 828.172 282.226C821.749 250.694 807.255 221.124 784.566 198.062L783.717 196.907C783.031 193.549 781.647 190.223 780.488 187C779.194 183.402 778.004 179.491 776.07 176.19C775.449 175.13 775.189 174.477 775.034 173.259Z"/>
	<path fill="#FEFEFE" transform="scale(0.488281 0.488281)" d="M404.719 387.065C404.878 384.72 409.654 379.369 411.242 377.255L505.598 254.234L535.532 215.3C541.293 207.726 546.715 199.751 552.943 192.554C580.871 160.278 621.787 139.787 664.391 136.753C704.133 133.923 744.804 147.241 775.034 173.259C775.189 174.477 775.449 175.13 776.07 176.19C778.004 179.491 779.194 183.402 780.488 187C781.647 190.223 783.031 193.549 783.717 196.907C752.917 168.023 715.286 149.894 672.406 151.135C633.92 152.249 597.597 167.89 571.162 196.23C565.344 202.467 560.675 209.104 555.469 215.805L527.703 251.815L450.015 352.272L426.797 382.462C422.346 388.357 418.002 395.398 412.791 400.616L404.719 387.065Z"/>
	<path fill="#F16E95" transform="scale(0.488281 0.488281)" d="M593.545 560.221L625.585 575.223L653.597 585.041L653.251 585.381C648.165 590.536 644.114 597.404 639.736 603.229L615.536 634.635L517.289 762.886L492.59 794.919C486.442 803.016 480.47 811.343 473.645 818.895C443.121 852.671 401.611 873.572 355.822 874.378C313.452 875.124 273.632 858.223 243.417 828.814C231.108 816.834 221.15 803.41 213.069 788.255C209.358 781.293 205.667 773.58 203.601 765.928L225.416 785.505C259.248 811.424 303.406 826.001 346.109 820.139C368.932 817.007 391.388 808.314 409.321 793.726C426.616 779.657 438.972 761.371 452.334 743.772L483.853 702.742L593.545 560.221Z"/>
	<path fill="#F1D9D8" transform="scale(0.488281 0.488281)" d="M215.635 638.889C217.975 634.312 220.87 630.036 223.864 625.867L280.015 551.758L359.865 445.559L393.595 400.553C395.595 397.961 400.409 390.362 403.203 389.129C410.756 404.148 421.961 417.823 432.522 430.798C467.757 471.699 507.367 506.554 552.648 535.956L577 550.997C582.412 554.066 588.396 556.786 593.545 560.221L483.853 702.742L452.334 743.772C438.972 761.371 426.616 779.657 409.321 793.726C391.388 808.314 368.932 817.007 346.109 820.139C303.406 826.001 259.248 811.424 225.416 785.505L203.601 765.928L197.495 744.879C191.843 717.233 194.807 687.01 204.945 660.717C207.862 653.151 211.142 645.666 215.635 638.889Z"/>
	<path fill="#FEFEFE" transform="scale(0.488281 0.488281)" d="M215.635 638.889C217.975 634.312 220.87 630.036 223.864 625.867L280.015 551.758L359.865 445.559L393.595 400.553C395.595 397.961 400.409 390.362 403.203 389.129C410.756 404.148 421.961 417.823 432.522 430.798C421.219 443.599 411.2 457.967 401.007 471.669L351.601 538.017L298.153 609.516L276.261 638.368C267.995 649.213 259.631 659.642 253.568 671.945C244.774 689.792 240.951 709.685 242.227 729.522C243.625 751.265 252.269 770.839 264.839 788.376C271.572 797.77 281.003 804.739 290.613 810.883C286.336 810.424 281.842 808.11 277.971 806.33C262.81 799.363 247.381 790.333 236.786 777.146C214.671 749.623 203.652 715.38 207.685 680.081C209.094 667.747 212.045 656.521 215.184 644.574C215.724 642.516 215.868 641.021 215.635 638.889Z"/>
	<path fill="#FA4339" transform="scale(0.488281 0.488281)" d="M412.791 400.616C418.002 395.398 422.346 388.357 426.797 382.462L450.015 352.272L527.703 251.815L555.469 215.805C560.675 209.104 565.344 202.467 571.162 196.23C597.597 167.89 633.92 152.249 672.406 151.135C715.286 149.894 752.917 168.023 783.717 196.907L784.566 198.062C807.255 221.124 821.749 250.694 828.172 282.226C829.823 290.333 830.503 298.474 831.86 306.603C830.569 327.215 824.693 347.375 815.31 365.732C802.53 390.736 783.32 412.472 766.495 434.853L673.69 557.753C670.748 561.696 655.716 580.476 655.299 583.186C654.805 583.773 654.248 584.651 653.597 585.041L625.585 575.223L593.545 560.221C588.396 556.786 582.412 554.066 577 550.997L552.648 535.956C507.367 506.554 467.757 471.699 432.522 430.798C421.961 417.823 410.756 404.148 403.203 389.129C403.578 388.047 403.898 387.822 404.719 387.065L412.791 400.616Z"/>
	<path fill="#050405" transform="scale(0.488281 0.488281)" d="M403.203 389.129C403.578 388.047 403.898 387.822 404.719 387.065L412.791 400.616C423.414 417.254 436.613 432.68 450.032 447.119C479.523 478.851 512.723 506.744 548.799 530.704C563.66 540.574 578.785 549.961 594.64 558.164L626.237 572.931L655.299 583.186C654.805 583.773 654.248 584.651 653.597 585.041L625.585 575.223L593.545 560.221C588.396 556.786 582.412 554.066 577 550.997L552.648 535.956C507.367 506.554 467.757 471.699 432.522 430.798C421.961 417.823 410.756 404.148 403.203 389.129Z"/>
	<path fill="#FEFEFE" transform="scale(0.488281 0.488281)" d="M663.592 174.691L668.666 175.306C674.024 176.431 678.715 180.055 681.58 184.67C684.179 188.856 685.401 193.709 684.212 198.588L684.038 199.25C683.593 201.007 683.082 202.644 682.271 204.269C680.574 207.666 678.132 210.479 674.702 212.23C671.647 213.79 667.936 214.483 664.659 215.471L650.698 220.389C627.907 229.676 608.409 246.822 593.012 265.727L573.246 291.244L531.628 344.947L513.561 368.28C509.927 373.082 506.433 378.764 502.228 383.033C500.032 385.263 497.794 386.477 494.845 387.451L493.532 387.69C489.249 388.349 484.701 387.18 481.25 384.566C477.444 381.683 474.083 376.322 473.539 371.58C473.097 367.731 473.511 364.286 475.416 360.891C479.348 353.883 485.082 347.426 490.032 341.09L511.65 313.132L580.483 224.456C597.246 203.908 618.163 189.612 642.936 180.343C649.665 177.825 656.415 175.408 663.592 174.691Z"/>
	<path fill="#CB2422" transform="scale(0.488281 0.488281)" d="M594.64 558.164L596.375 556.27L623.831 520.209L699.084 421.583L746.156 360.009C754.206 349.337 762.848 339.096 769.718 327.583C779.277 311.565 785.925 293.869 789.697 275.611C793.714 256.161 792.279 235.577 788.576 216.212L786.065 204.79C785.581 202.846 784.718 200.77 784.595 198.778L784.566 198.062C807.255 221.124 821.749 250.694 828.172 282.226C829.823 290.333 830.503 298.474 831.86 306.603C830.569 327.215 824.693 347.375 815.31 365.732C802.53 390.736 783.32 412.472 766.495 434.853L673.69 557.753C670.748 561.696 655.716 580.476 655.299 583.186L626.237 572.931L594.64 558.164Z"/>
</svg>
