<?xml version="1.0" encoding="utf-8" ?>
<svg xmlns="http://www.w3.org/2000/svg" xmlns:xlink="http://www.w3.org/1999/xlink" width="500" height="500">
	<path fill="#33346F" transform="scale(0.488281 0.488281)" d="M-0 -0L1024 0L1024 1024L-0 1024L0 -0Z"/>
	<path fill="#1B2655" transform="scale(0.488281 0.488281)" d="M264.364 261.469C268.608 257.718 269.96 256.586 275.614 256.483C275.529 259.332 275.968 263.855 275.031 266.454L264.364 261.469Z"/>
	<path fill="#BF222E" transform="scale(0.488281 0.488281)" d="M881.076 213.219C884.945 216.356 887.72 220.454 888.443 225.5L888.489 233.166L885.048 230.983L876.074 224.048L876.017 222.993C878.168 220.447 879.625 216.247 881.076 213.219Z"/>
	<path fill="#1FA2C9" transform="scale(0.488281 0.488281)" d="M228.428 422.08L231.305 425.547L191.5 453.088L140.574 490.152L128.692 498.964C126.502 500.65 123.661 503.465 121.103 504.346C123.372 501.553 127.474 499.103 130.358 496.865L161.394 473.363L228.428 422.08Z"/>
	<path fill="#1FA2C9" transform="scale(0.488281 0.488281)" d="M820.407 599.599L941.75 506.367C941.396 508.065 936.463 511.56 934.981 512.802L909.743 533.472L847.702 585.573L832.529 598.152C830.025 600.212 826.527 602.555 824.479 605.003L823.925 605.008L820.418 599.931L820.407 599.599Z"/>
	<path fill="#1FA2C9" transform="scale(0.488281 0.488281)" d="M403.443 819.581L435.907 797.842L436.835 804.087C436.64 804.565 436.57 805.116 436.25 805.521C435.67 806.255 433.762 807.25 432.944 807.789L423.823 813.51L389.433 836.887L312.557 893.064C300.97 902.084 289.982 912.368 278 920.796C278.785 918.677 289.538 910.323 291.918 908.296L370.183 844.531L393.325 827.279C396.64 824.786 400.39 822.363 403.443 819.581Z"/>
	<path fill="#D72B37" transform="scale(0.488281 0.488281)" d="M829.4 224.272L847.588 216.072C852.395 213.784 857.546 210.904 862.779 209.769C869.805 208.245 875.087 209.49 881.076 213.219C879.625 216.247 878.168 220.447 876.017 222.993L876.074 224.048L864.428 241.272C862.914 242.987 861.382 245.097 859.564 246.478C854.259 240.146 845.858 234.783 839.053 230.132L829.4 224.272Z"/>
	<path fill="#D72B37" transform="scale(0.488281 0.488281)" d="M839.053 230.132L861.745 221.393C867.056 219.576 871.132 220.555 876.017 222.993L876.074 224.048L864.428 241.272C862.914 242.987 861.382 245.097 859.564 246.478C854.259 240.146 845.858 234.783 839.053 230.132Z"/>
	<path fill="#1FA2C9" transform="scale(0.488281 0.488281)" d="M782.582 548.672L831.144 512.154L916.753 447.084L944.342 425.257C949.544 421.042 955.013 415.88 960.75 412.489L960.936 412.855L790.066 558.625C787.73 555.638 784.257 552.026 782.582 548.672Z"/>
	<path fill="#1FA2C9" transform="scale(0.488281 0.488281)" d="M263.86 461.854L272.114 470.491L271.576 471.574L65 621.987L64.5911 621.75L263.86 461.854Z"/>
	<path fill="#1B2655" transform="scale(0.488281 0.488281)" d="M339.465 279.842C345.888 274.435 371.966 250.2 380.071 251.049C381.268 251.175 382.247 251.95 382.958 252.914C384.459 254.948 384.876 257.852 385.385 260.292C388.767 276.503 385.466 293.384 383.317 309.51L390.469 313.825L386.502 317.356L364.627 306.286C361.391 304.808 357.934 302.874 354.428 302.21L350.035 291.195C349.881 290.623 348.591 289.42 348.163 288.918C345.419 285.694 342.529 282.762 339.465 279.842Z"/>
	<path fill="#F7E0B5" transform="scale(0.488281 0.488281)" d="M350.035 291.195L383.317 309.51L390.469 313.825L386.502 317.356L364.627 306.286C361.391 304.808 357.934 302.874 354.428 302.21L350.035 291.195Z"/>
	<path fill="#F7E0B5" transform="scale(0.488281 0.488281)" d="M250.846 641.128L252.06 649.07C244.039 651.158 234.108 658.835 229.865 665.969C224.428 675.109 221.974 684.185 224.735 694.649C224.979 695.573 225.219 696.312 225.75 697.117C226.258 699.143 226.772 701.117 227.637 703.024L196.349 715.003C191.808 703.305 186.674 692.202 179.904 681.595L250.846 641.128Z"/>
	<path fill="#1B2655" transform="scale(0.488281 0.488281)" d="M500.621 101.371L501.265 101.25L501.127 161.565L500.162 162.236C493.148 165.616 486.296 168.978 479.854 173.401C470.924 169.327 460.23 167.323 450.671 165.165L424.384 159.119C421.111 158.213 416.69 157.49 414.509 154.75L414.75 153.276C421.521 144.502 439.288 141.263 449.738 139.715C448.32 136.59 446.956 133.859 446.705 130.385L500.451 134.692L500.451 117.721L500.621 101.371Z"/>
	<path fill="#7A0F1F" transform="scale(0.488281 0.488281)" d="M511.462 50.1399C514.105 50.6665 516.22 51.9815 517.686 54.2975C524.275 64.7049 522.527 80.9583 522.882 92.6723C522.917 93.8431 522.659 97.0701 523.049 98C523.183 98.3175 524.124 98.7363 524.425 98.845L523.275 99.7632L523.489 121.46L523.892 135.14C523.379 141.992 523.701 149.076 523.715 155.949C523.718 157.639 523.266 160.98 524.082 162.403C522.783 166.257 523.474 172.122 524.378 176.076C524.715 182.035 524.822 189.082 520.75 193.982L518.951 195.635L518.361 195.709L517.644 195.807C516.927 195.9 516.71 195.939 516.093 196.352C514.663 197.308 513.971 197.476 512.25 197.255L511.543 195.25C512.266 194.672 512.059 194.748 512.746 194.446L514.18 193.867L511.26 194.372C509.94 194.003 508.603 193.57 507.419 192.863C503.833 190.722 502.73 186.92 501.678 183.182L499.905 182.099L500.162 162.236L501.127 161.565L501.265 101.25L500.621 101.371C500.452 100.499 500.722 99.4551 500.837 98.5715L501.375 98.2277C501.426 87.8754 500.689 76.6687 502.335 66.4474C502.99 62.3826 503.723 58.3903 505.774 54.7549C507.14 52.334 508.79 50.8906 511.462 50.1399Z"/>
	<path fill="#530B23" transform="scale(0.488281 0.488281)" d="M514.18 193.867C515.382 193.738 517.034 192.545 517.938 191.781C522.661 187.782 523.191 182.228 523.641 176.5L524.378 176.076C524.715 182.035 524.822 189.082 520.75 193.982L518.951 195.635L518.361 195.709L517.644 195.807C516.927 195.9 516.71 195.939 516.093 196.352C514.663 197.308 513.971 197.476 512.25 197.255L511.543 195.25C512.266 194.672 512.059 194.748 512.746 194.446L514.18 193.867Z"/>
	<path fill="#BF222E" transform="scale(0.488281 0.488281)" d="M511.329 53.2896C513.231 57.31 512.562 63.2356 512.645 67.6409C512.848 78.3387 513.699 90.4845 511.936 101C510.219 111.237 512.455 122.285 511.422 132.603C510.018 123.435 511.311 113.301 511.045 104C510.568 87.3343 508.931 69.8922 511.329 53.2896Z"/>
	<path fill="#D72B37" transform="scale(0.488281 0.488281)" d="M500.837 98.5715L501.375 98.2277C501.426 87.8754 500.689 76.6687 502.335 66.4474C502.99 62.3826 503.723 58.3903 505.774 54.7549C507.14 52.334 508.79 50.8906 511.462 50.1399L511.329 53.2896C508.931 69.8922 510.568 87.3343 511.045 104C511.311 113.301 510.018 123.435 511.422 132.603L511.26 194.372C509.94 194.003 508.603 193.57 507.419 192.863C503.833 190.722 502.73 186.92 501.678 183.182L499.905 182.099L500.162 162.236L501.127 161.565L501.265 101.25L500.621 101.371C500.452 100.499 500.722 99.4551 500.837 98.5715Z"/>
	<path fill="#7A0F1F" transform="scale(0.488281 0.488281)" d="M501.127 161.565L501.678 183.182L499.905 182.099L500.162 162.236L501.127 161.565Z"/>
	<path fill="#1B2655" transform="scale(0.488281 0.488281)" d="M824.479 605.003C827.607 609.307 829.63 614.558 831.579 619.493C837.957 635.643 841.381 652.067 841.411 669.461C841.419 673.551 841.576 677.857 840.943 681.905L841.951 682.585C844.213 683.744 846.98 684.824 848.921 686.456L845.824 693.201L845.422 693.519L838.472 689.948L838.039 690.075C834.388 688.679 830.704 686.219 827.299 684.264C817.477 678.626 807.412 671.655 797.035 667.139L793.178 663.041L786.228 651.763C783.547 648.559 779.024 645.801 775.619 643.393L823.925 605.008L824.479 605.003Z"/>
	<path fill="#F7E0B5" transform="scale(0.488281 0.488281)" d="M786.228 651.763L840.943 681.905L841.951 682.585C844.213 683.744 846.98 684.824 848.921 686.456L845.824 693.201L845.422 693.519L838.472 689.948L838.039 690.075C834.388 688.679 830.704 686.219 827.299 684.264C817.477 678.626 807.412 671.655 797.035 667.139L793.178 663.041L786.228 651.763Z"/>
	<path fill="#8F644B" transform="scale(0.488281 0.488281)" d="M841.951 682.585C844.213 683.744 846.98 684.824 848.921 686.456L845.824 693.201L845.422 693.519L838.472 689.948L841.951 682.585Z"/>
	<path fill="#1B2655" transform="scale(0.488281 0.488281)" d="M782.582 548.672C784.257 552.026 787.73 555.638 790.066 558.625L789.902 558.899C798.73 569.367 807.768 578.951 815.305 590.467C817.175 593.324 819.409 596.32 820.407 599.599L820.418 599.931L823.925 605.008L775.619 643.393L771.071 640.561L770.604 639.01C770.717 634.641 771.429 630.329 771.496 625.942C771.73 610.787 768.456 594.976 762.081 581.211C760.724 577.167 758.296 573.41 755.676 570.071L781.457 548.831L782.582 548.672Z"/>
	<path fill="#1585CB" transform="scale(0.488281 0.488281)" d="M770.604 639.01C779.962 629.443 792.39 621.299 803.02 613.134C808.657 608.804 814.32 603.499 820.418 599.931L823.925 605.008L775.619 643.393L771.071 640.561L770.604 639.01Z"/>
	<path fill="#1585CB" transform="scale(0.488281 0.488281)" d="M782.582 548.672C784.257 552.026 787.73 555.638 790.066 558.625L789.902 558.899L762.081 581.211C760.724 577.167 758.296 573.41 755.676 570.071L781.457 548.831L782.582 548.672Z"/>
	<path fill="#F5A013" transform="scale(0.488281 0.488281)" d="M339.855 112.955L339.947 109.5C341.846 108.21 348.704 108.487 351.234 108.335L385.482 106.282L470.224 100.404L500.837 98.5715C500.722 99.4551 500.452 100.499 500.621 101.371L500.451 117.721L500.451 134.692L446.705 130.385L339.944 121.707L339.855 112.955Z"/>
	<path fill="#DB7711" transform="scale(0.488281 0.488281)" d="M339.855 112.955L499.364 122.8C500.349 121.351 500.003 119.433 500.451 117.721L500.451 134.692L446.705 130.385L339.944 121.707L339.855 112.955Z"/>
	<path fill="#F5A013" transform="scale(0.488281 0.488281)" d="M524.425 98.845L578.785 102.287L655.344 107.595L676.612 108.99C679.068 109.139 683.861 108.89 686.018 110.006C687.184 113.338 686.449 118.44 686.395 122.006L653.84 124.565L523.892 135.14L523.489 121.46L523.275 99.7632L524.425 98.845Z"/>
	<path fill="#DB7711" transform="scale(0.488281 0.488281)" d="M686.018 110.006C687.184 113.338 686.449 118.44 686.395 122.006L653.84 124.565L523.892 135.14L523.489 121.46C523.905 121.984 524.245 122.314 524.75 122.737L615.7 117.553L674.347 113.645C676.89 113.407 684.299 113.791 685.964 112.5L686.018 110.006Z"/>
	<path fill="#1FA2C9" transform="scale(0.488281 0.488281)" d="M705.064 270.153C704.248 267.854 704.387 264.807 704.381 262.388C704.365 255.351 704.947 248.343 706.246 241.42C708.726 228.208 712.456 214.369 719.895 202.998C721.701 200.237 723.984 197.038 726.823 195.265C728.634 194.134 730.43 193.459 732.495 194.012C738.361 195.724 742.605 203.198 745.376 208.297C753.844 223.875 756.921 243.992 756.294 261.528L753.867 283.869L752.323 293.609C750.193 301.247 746.944 308.597 739.639 312.556C737.284 313.832 734.81 314.673 732.229 315.354L731.815 315.357C727.991 315.41 723.963 315.115 720.514 313.334C711.443 308.649 709.93 298.796 707.295 290.003C706.345 286.29 706.092 282.816 705.978 279.006C705.796 276.103 705.858 272.958 705.064 270.153Z"/>
	<path fill="#0E6592" transform="scale(0.488281 0.488281)" d="M732.495 194.012C738.361 195.724 742.605 203.198 745.376 208.297C753.844 223.875 756.921 243.992 756.294 261.528L753.867 283.869L752.323 293.609C750.193 301.247 746.944 308.597 739.639 312.556C737.284 313.832 734.81 314.673 732.229 315.354C732.84 314.493 732.939 314.061 732.974 312.999L732.991 289.319L733.067 237.877L733.004 210.488C732.984 205.054 733.267 199.397 732.495 194.012Z"/>
	<path fill="#1FA2C9" transform="scale(0.488281 0.488281)" d="M275.614 256.483C278.099 235.049 284.107 207.83 300.253 192.493L301.59 192.968C308.391 195.627 313.082 204.913 315.792 211.188C324.124 230.478 327.203 251.242 327.762 272.125L326.835 290.544C324.656 299.506 320.403 308.66 312.121 313.567C309.175 315.313 306.343 316.092 302.987 316.618C300.253 316.614 297.972 316.304 295.329 315.682C292.873 314.738 290.417 313.781 288.25 312.255C280.742 306.969 277.868 297.826 276.37 289.231L275.413 277.46L275.031 266.454C275.968 263.855 275.529 259.332 275.614 256.483Z"/>
	<path fill="#0E6592" transform="scale(0.488281 0.488281)" d="M301.59 192.968C308.391 195.627 313.082 204.913 315.792 211.188C324.124 230.478 327.203 251.242 327.762 272.125L326.835 290.544C324.656 299.506 320.403 308.66 312.121 313.567C309.175 315.313 306.343 316.092 302.987 316.618C300.253 316.614 297.972 316.304 295.329 315.682L297.232 313.407C303.419 305.767 304.754 295.974 305.681 286.506C307.278 270.204 306.39 253.937 305.328 237.639L301.59 192.968Z"/>
	<path fill="#F7E0B5" transform="scale(0.488281 0.488281)" d="M756.294 261.528L794.338 241.818C805.762 235.894 817.438 228.914 829.4 224.272L839.053 230.132C845.858 234.783 854.259 240.146 859.564 246.478L859.479 246.95L859.296 249.649L858.24 252.093C857.176 255.347 856.227 259.784 854.437 262.654C844.377 268.138 835.271 276.178 826.338 283.333L800.133 303.949L789.2 312.372C787.784 313.419 785.906 315.1 784.196 315.543C783.099 311.146 781.701 307.33 779.256 303.478L778.489 303.762C778.085 302.53 777.246 301.201 776.655 300.031C770.813 291.487 763.141 287.613 753.867 283.869L756.294 261.528Z"/>
	<path fill="#8F644B" transform="scale(0.488281 0.488281)" d="M776.655 300.031L859.479 246.95L859.296 249.649L858.24 252.093L779.256 303.478L778.489 303.762C778.085 302.53 777.246 301.201 776.655 300.031Z"/>
	<path fill="#F7E0B5" transform="scale(0.488281 0.488281)" d="M858.24 252.093C857.176 255.347 856.227 259.784 854.437 262.654C844.377 268.138 835.271 276.178 826.338 283.333L800.133 303.949L789.2 312.372C787.784 313.419 785.906 315.1 784.196 315.543C783.099 311.146 781.701 307.33 779.256 303.478L858.24 252.093Z"/>
	<path fill="#1FA2C9" transform="scale(0.488281 0.488281)" d="M250.846 641.128L250.672 639.75C248.511 616.367 254.29 591.749 263.186 570.257C266.936 561.199 271.404 552.019 277.75 544.475L278.61 544.75L279.763 547.061C294.411 566.387 307.513 610.584 304.336 634.898C303.769 638.183 303.821 641.639 303.711 644.97L303.315 651.271C302.382 659.034 301.457 667.333 294.75 672.436C290.575 675.613 285.355 676.909 280.262 677.614C274.489 677.587 268.215 676.919 263.27 673.631C256.642 669.225 254.001 661.889 252.684 654.426L252.06 649.07L250.846 641.128Z"/>
	<path fill="#0E6592" transform="scale(0.488281 0.488281)" d="M279.763 547.061C294.411 566.387 307.513 610.584 304.336 634.898C303.769 638.183 303.821 641.639 303.711 644.97L303.315 651.271C302.382 659.034 301.457 667.333 294.75 672.436C290.575 675.613 285.355 676.909 280.262 677.614L279.763 547.061Z"/>
	<path fill="#F7E0B5" transform="scale(0.488281 0.488281)" d="M415.148 575.929C416.283 577.447 416.081 578.956 416.206 580.802L419.189 634.419L419.496 640.364L333.754 679.758C332.6 677.97 332.555 676.564 332.474 674.482L332.306 673.924C327.743 659.325 318.492 652.49 305.46 645.574L303.711 644.97C303.821 641.639 303.769 638.183 304.336 634.898L406.724 579.973L414.659 575.972L415.148 575.929Z"/>
	<path fill="#8F644B" transform="scale(0.488281 0.488281)" d="M419.189 634.419L419.496 640.364L333.754 679.758C332.6 677.97 332.555 676.564 332.474 674.482C336.147 673.457 339.511 671.553 342.941 669.921L359.787 661.981L419.189 634.419Z"/>
	<path fill="#FEEDC7" transform="scale(0.488281 0.488281)" d="M415.148 575.929C416.283 577.447 416.081 578.956 416.206 580.802L415.632 583.669L415.109 583.835C408.747 585.928 402.288 590.21 396.444 593.484L368.994 608.827L325.621 632.854C319.638 636.237 313.211 639.425 307.499 643.202C306.414 643.919 306.03 644.435 305.46 645.574L303.711 644.97C303.821 641.639 303.769 638.183 304.336 634.898L406.724 579.973L414.659 575.972L415.148 575.929Z"/>
	<path fill="#F5A013" transform="scale(0.488281 0.488281)" d="M303.711 644.97L305.46 645.574C318.492 652.49 327.743 659.325 332.306 673.924L332.474 674.482C332.555 676.564 332.6 677.97 333.754 679.758C336.298 686.331 334.769 694.833 332.885 701.422C331.518 703.77 329.886 706.714 329.295 709.377C325.112 715.256 320.908 719.779 314.798 723.683C300.35 732.915 282.09 735.213 265.5 731.482C251.281 728.284 238.397 720.401 230.594 707.937C229.762 706.135 228.812 704.621 227.637 703.024C226.772 701.117 226.258 699.143 225.75 697.117C225.219 696.312 224.979 695.573 224.735 694.649C221.974 684.185 224.428 675.109 229.865 665.969C234.108 658.835 244.039 651.158 252.06 649.07L252.684 654.426C254.001 661.889 256.642 669.225 263.27 673.631C268.215 676.919 274.489 677.587 280.262 677.614C285.355 676.909 290.575 675.613 294.75 672.436C301.457 667.333 302.382 659.034 303.315 651.271L303.711 644.97Z"/>
	<path fill="#B66215" transform="scale(0.488281 0.488281)" d="M225.75 697.117C227.805 699.086 229.26 701.883 231.076 704.112C237.105 711.514 245.138 716.803 254.032 720.15C269.094 725.819 288.948 726.564 303.746 719.602C318.556 712.636 328.437 701.653 331.206 685.25C331.694 682.36 331.12 677.399 332.2 674.945L332.474 674.482C332.555 676.564 332.6 677.97 333.754 679.758C336.298 686.331 334.769 694.833 332.885 701.422C331.518 703.77 329.886 706.714 329.295 709.377C325.112 715.256 320.908 719.779 314.798 723.683C300.35 732.915 282.09 735.213 265.5 731.482C251.281 728.284 238.397 720.401 230.594 707.937C229.762 706.135 228.812 704.621 227.637 703.024C226.772 701.117 226.258 699.143 225.75 697.117Z"/>
	<path fill="#7A0F1F" transform="scale(0.488281 0.488281)" d="M303.315 651.271L306.491 653.83C310.644 657.449 313.124 662.786 314.563 668L314.813 668.876C316.656 675.526 316.198 682.842 312.75 688.909C308.262 696.804 300.134 701.599 291.55 703.812C279.865 706.823 264.537 705.922 254.087 699.545C247.939 695.793 242.361 689.638 240.723 682.518C239.239 676.073 240.942 668.242 244.486 662.788C246.63 659.489 249.675 656.902 252.684 654.426C254.001 661.889 256.642 669.225 263.27 673.631C268.215 676.919 274.489 677.587 280.262 677.614C285.355 676.909 290.575 675.613 294.75 672.436C301.457 667.333 302.382 659.034 303.315 651.271Z"/>
	<path fill="#F7E0B5" transform="scale(0.488281 0.488281)" d="M419.496 640.364L426.342 719L427.116 727.086C427.166 727.645 427.17 729.425 427.422 729.82L430.945 764.169L352.223 783.283L348.748 784.174L347.804 780.289C346.158 775.541 345.11 770.477 343.77 765.625C342.612 761.436 340.876 756.948 340.478 752.618L340.152 752.547C340.051 748.039 337.95 742.687 336.791 738.307L329.295 709.377C329.886 706.714 331.518 703.77 332.885 701.422C334.769 694.833 336.298 686.331 333.754 679.758L419.496 640.364Z"/>
	<path fill="#8F644B" transform="scale(0.488281 0.488281)" d="M329.295 709.377C329.886 706.714 331.518 703.77 332.885 701.422C333.496 711.98 337.598 722.658 340.09 732.936C341.525 738.854 342.361 745.845 344.552 751.488L340.478 752.618L340.152 752.547C340.051 748.039 337.95 742.687 336.791 738.307L329.295 709.377Z"/>
	<path fill="#BF222E" transform="scale(0.488281 0.488281)" d="M344.552 751.488L427.422 729.82L430.945 764.169L352.223 783.283L348.748 784.174L347.804 780.289C346.158 775.541 345.11 770.477 343.77 765.625C342.612 761.436 340.876 756.948 340.478 752.618L344.552 751.488Z"/>
	<path fill="#7A0F1F" transform="scale(0.488281 0.488281)" d="M344.552 751.488L352.223 783.283L348.748 784.174L347.804 780.289C346.158 775.541 345.11 770.477 343.77 765.625C342.612 761.436 340.876 756.948 340.478 752.618L344.552 751.488Z"/>
	<path fill="#1B2655" transform="scale(0.488281 0.488281)" d="M523.892 135.14L653.84 124.565L653.507 125.5C656.411 126.985 660.595 126.896 663.791 127.178L684.75 128.998L751.409 136.924C750.077 140.805 748.901 146.136 744.957 148.164C738.782 151.338 730.318 152.302 723.5 153.53L695.5 158.487L582.229 177.994C582.507 178.88 582.743 179.017 583.349 179.697C585.32 181.905 586.175 184.455 586.971 187.25L587.225 188.116C588.735 193.524 587.778 198.445 588.126 203.823C611.062 213.216 624.673 236.464 633.933 258.207C637.548 266.695 640.217 275.66 642.264 284.647C643.732 291.093 644.67 297.627 646.517 303.982L636.161 309.432L631.744 311.301L610.359 320.762C609.192 318.942 609.617 314.718 609.528 312.435L608.508 299.047C606.406 281.092 602.416 263.492 596.54 246.396C585.372 213.899 566.686 182.659 534.764 167.136L524.082 162.403C523.266 160.98 523.718 157.639 523.715 155.949C523.701 149.076 523.379 141.992 523.892 135.14Z"/>
	<path fill="#1B2655" transform="scale(0.488281 0.488281)" d="M352.223 783.283L430.945 764.169L435.439 794.596C435.588 795.59 435.946 796.858 435.907 797.842L403.443 819.581L402.486 819.545C401.485 819.479 400.762 819.398 399.777 819.67C394.875 821.02 390.079 822.992 385.209 824.496L342.75 836.45C332.255 838.954 321.519 840.569 310.865 842.234C270.25 848.579 227.643 850.492 186.836 844.771C171.189 842.578 154.094 839.379 140 831.951C134.887 829.257 129.961 825.772 126.513 821.046L126.094 820.451C123.745 817.164 122.137 814.325 121.263 810.371C139.858 811.673 158.358 810.658 176.928 809.476C234.882 805.787 291.929 795.731 348.748 784.174L352.223 783.283Z"/>
	<path fill="#FEFEFD" transform="scale(0.488281 0.488281)" d="M512.09 754.974L515.839 755.27C526.655 756.535 537.055 758.358 547.347 762.048C560.246 767.664 572.519 774.208 581.752 785.132C584.932 788.895 587.422 793.518 590.783 797.03L586.083 819.323C577.476 857.106 565.038 896.605 541.511 927.977C535.532 935.949 529.358 943.231 521.021 948.838C518.532 950.14 516.211 951.03 513.517 951.805C510.737 951.287 508.276 950.54 505.84 949.075C498.344 944.569 492.127 937.684 486.691 930.925C462.432 900.762 449.751 861.73 440.614 824.641C439.873 822.21 439.7 819.395 439.284 816.879L436.835 804.087L435.907 797.842C435.946 796.858 435.588 795.59 435.439 794.596L443.57 783.41C455.59 769.719 472.913 760.285 490.817 756.936C497.807 755.628 505.002 755.394 512.09 754.974Z"/>
	<path fill="#9A1B26" transform="scale(0.488281 0.488281)" d="M512.09 754.974L515.839 755.27L512.75 755.346C511.919 756.835 512.352 758.605 512.427 760.293C512.592 764.006 512.429 767.879 512.955 771.547C491.902 771.215 474.136 776.215 458.676 791.207C448.929 800.659 444.046 811.829 440.614 824.641C439.873 822.21 439.7 819.395 439.284 816.879L436.835 804.087L435.907 797.842C435.946 796.858 435.588 795.59 435.439 794.596L443.57 783.41C455.59 769.719 472.913 760.285 490.817 756.936C497.807 755.628 505.002 755.394 512.09 754.974Z"/>
	<path fill="#A5D0D7" transform="scale(0.488281 0.488281)" d="M512.955 771.547C512.429 767.879 512.592 764.006 512.427 760.293C512.352 758.605 511.919 756.835 512.75 755.346L515.839 755.27C526.655 756.535 537.055 758.358 547.347 762.048C560.246 767.664 572.519 774.208 581.752 785.132C584.932 788.895 587.422 793.518 590.783 797.03L586.083 819.323C577.476 857.106 565.038 896.605 541.511 927.977C535.532 935.949 529.358 943.231 521.021 948.838C518.532 950.14 516.211 951.03 513.517 951.805L512.955 771.547Z"/>
	<path fill="#7A0F1F" transform="scale(0.488281 0.488281)" d="M512.955 771.547C512.429 767.879 512.592 764.006 512.427 760.293C512.352 758.605 511.919 756.835 512.75 755.346L515.839 755.27C526.655 756.535 537.055 758.358 547.347 762.048C560.246 767.664 572.519 774.208 581.752 785.132C584.932 788.895 587.422 793.518 590.783 797.03L586.083 819.323C583.038 813.888 580.018 808.297 576.159 803.388C565.523 789.859 549.305 779.682 532.788 775.055C526.24 773.22 519.681 772.385 512.955 771.547Z"/>
	<path fill="#BF222E" transform="scale(0.488281 0.488281)" d="M174.845 684.522C176.421 683.393 178.203 682.522 179.904 681.595C186.674 692.202 191.808 703.305 196.349 715.003L227.637 703.024C228.812 704.621 229.762 706.135 230.594 707.937C238.397 720.401 251.281 728.284 265.5 731.482C282.09 735.213 300.35 732.915 314.798 723.683C320.908 719.779 325.112 715.256 329.295 709.377L336.791 738.307C337.95 742.687 340.051 748.039 340.152 752.547L340.478 752.618C340.876 756.948 342.612 761.436 343.77 765.625C345.11 770.477 346.158 775.541 347.804 780.289L348.748 784.174C291.929 795.731 234.882 805.787 176.928 809.476C158.358 810.658 139.858 811.673 121.263 810.371C115.929 809.808 110.665 808.949 105.5 807.488C92.2503 803.739 80.2935 796.81 73.4767 784.428C69.286 776.816 68.4222 767.915 70.8555 759.608C76.0955 741.721 91.5686 731.958 106.995 723.597L174.845 684.522Z"/>
	<path fill="#D72B37" transform="scale(0.488281 0.488281)" d="M121.263 810.371C115.929 809.808 110.665 808.949 105.5 807.488C92.2503 803.739 80.2935 796.81 73.4767 784.428C69.286 776.816 68.4222 767.915 70.8555 759.608C76.0955 741.721 91.5686 731.958 106.995 723.597L109.341 728.871L108.803 729.328C106.028 731.63 102.984 733.016 99.9244 734.854C90.3464 740.606 81.3671 748.052 80.0827 759.922C79.1734 768.325 81.5958 776.122 87.0944 782.557C96.6163 793.7 112.654 798.075 126.75 798.907C147.393 800.126 168.182 798.659 188.783 797.362L304.942 786.367L333.75 782.454C338.421 781.758 343.081 780.542 347.804 780.289L348.748 784.174C291.929 795.731 234.882 805.787 176.928 809.476C158.358 810.658 139.858 811.673 121.263 810.371Z"/>
	<path fill="#F7E0B5" transform="scale(0.488281 0.488281)" d="M218.178 778.247L198.276 720.607L230.594 707.937C238.397 720.401 251.281 728.284 265.5 731.482C282.09 735.213 300.35 732.915 314.798 723.683C320.908 719.779 325.112 715.256 329.295 709.377L336.791 738.307C337.95 742.687 340.051 748.039 340.152 752.547C312.311 760.698 283.114 766.092 254.616 771.457L229.081 776.181C225.663 776.803 221.378 777.069 218.178 778.247Z"/>
	<path fill="#F7E0B5" transform="scale(0.488281 0.488281)" d="M174.845 684.522C176.421 683.393 178.203 682.522 179.904 681.595C186.674 692.202 191.808 703.305 196.349 715.003L227.637 703.024C228.812 704.621 229.762 706.135 230.594 707.937L198.276 720.607L218.178 778.247L212.35 779.09L136.704 791.141C134.32 787.663 132.875 782.458 131.181 778.527L118.78 750.147C117.815 748.691 117.236 746.999 116.561 745.39L109.341 728.871L106.995 723.597L174.845 684.522Z"/>
	<path fill="#8F644B" transform="scale(0.488281 0.488281)" d="M174.845 684.522C176.421 683.393 178.203 682.522 179.904 681.595C186.674 692.202 191.808 703.305 196.349 715.003L227.637 703.024C228.812 704.621 229.762 706.135 230.594 707.937L198.276 720.607L218.178 778.247L212.35 779.09C211.01 773.143 208.984 767.285 207.162 761.469L193.221 722.503L118.78 750.147C117.815 748.691 117.236 746.999 116.561 745.39L191.274 717.039C188.458 708.967 184.955 700.724 180.724 693.297C178.992 690.256 177.238 687.096 174.845 684.522Z"/>
	<path fill="#F7E0B5" transform="scale(0.488281 0.488281)" d="M174.845 684.522C177.238 687.096 178.992 690.256 180.724 693.297C184.955 700.724 188.458 708.967 191.274 717.039L116.561 745.39L109.341 728.871L106.995 723.597L174.845 684.522Z"/>
	<path fill="#1B2655" transform="scale(0.488281 0.488281)" d="M797.035 667.139C807.412 671.655 817.477 678.626 827.299 684.264C830.704 686.219 834.388 688.679 838.039 690.075L838.472 689.948L845.422 693.519L845.824 693.201L848.921 686.456L917.305 724.76C925.845 729.556 933.248 734.622 940.919 740.66L940.963 740.636L942.99 741.154C946.111 742.13 949.795 745.226 952.722 746.91L993.87 771.196C1002.83 777.081 1007.77 788.004 1009.81 798.159C1011.08 804.504 1010.83 811.327 1009.56 817.641C1008.55 822.617 1006.47 827.336 1003.75 831.605L1003.34 832.255C996.384 843.186 983.485 847.951 971.347 850.599C962.432 852.545 953.366 853.327 944.25 853.245C916.16 852.993 887.612 848.581 859.729 845.384L771.084 833.251L711 823.043C694.92 819.95 678.7 816.7 662.953 812.173C656.013 841.232 647.661 869.387 636.757 897.219C627.565 920.679 616.797 943.787 601.461 963.956C595.827 971.367 590.042 978.738 582.014 983.691C578.42 985.908 574.634 987.65 570.5 988.575L569.945 988.707C561.934 990.456 552.874 987.125 546.299 982.67C535.177 975.135 526.162 961.087 521.021 948.838C529.358 943.231 535.532 935.949 541.511 927.977C565.038 896.605 577.476 857.106 586.083 819.323L590.783 797.03L595.204 767.139L632.26 776.146C632.747 770.69 634.42 765.228 635.731 759.924C637.818 753.902 640.259 749.283 644.05 744.16C647.293 745.061 651.191 745.748 654.221 747.123L674.322 753.117L674.392 753.336C677.725 754.144 681.279 754.77 684.472 756.013L684.878 755.966L697.398 705.774C704.182 714.397 714.386 721.397 724.826 724.869C737.486 728.679 751.931 730.307 764.882 727.048L770.5 725.544C781.437 722.485 789.398 717.026 795.068 707.09C795.653 704.499 797.039 701.716 797.861 699.146C799.986 692.721 801.439 684.746 800.331 677.957C799.745 674.368 798.207 670.591 797.035 667.139Z"/>
	<path fill="#BF222E" transform="scale(0.488281 0.488281)" d="M644.05 744.16C647.293 745.061 651.191 745.748 654.221 747.123L674.322 753.117L674.392 753.336C677.725 754.144 681.279 754.77 684.472 756.013L680.91 771.857C680.111 776.919 678.72 781.851 676.96 786.66L666.283 784.207C663.314 782.928 659.054 782.484 655.863 781.736L632.26 776.146C632.747 770.69 634.42 765.228 635.731 759.924C637.818 753.902 640.259 749.283 644.05 744.16Z"/>
	<path fill="#7A0F1F" transform="scale(0.488281 0.488281)" d="M674.392 753.336C677.725 754.144 681.279 754.77 684.472 756.013L680.91 771.857C680.111 776.919 678.72 781.851 676.96 786.66L666.283 784.207L669.856 769.06L674.392 753.336Z"/>
	<path fill="#D72B37" transform="scale(0.488281 0.488281)" d="M635.731 759.924L669.856 769.06L666.283 784.207C663.314 782.928 659.054 782.484 655.863 781.736L632.26 776.146C632.747 770.69 634.42 765.228 635.731 759.924Z"/>
	<path fill="#D72B37" transform="scale(0.488281 0.488281)" d="M680.91 771.857C681.366 772.616 681.472 773.218 682.358 773.524L684.34 774.028L686.946 774.604L764.75 787.079C808.58 793.929 853.305 800.304 897.75 800.573C906.549 800.626 915.387 800.368 924 798.364C928.194 797.389 932.437 796.027 936.454 794.492C938.943 793.541 942.821 790.924 945.414 791.021L939.179 795.686C928.573 803.019 916.575 807.433 903.898 809.604C892.83 811.499 881.258 811.613 870.059 811.599C842.471 811.564 815.08 808.523 787.75 805.034L713.75 793.989L676.96 786.66C678.72 781.851 680.111 776.919 680.91 771.857Z"/>
	<path fill="#9A1B26" transform="scale(0.488281 0.488281)" d="M697.398 705.774C704.182 714.397 714.386 721.397 724.826 724.869C737.486 728.679 751.931 730.307 764.882 727.048L802.546 774.255L802.382 776.867L810.279 778.263L892.278 793.17L907.932 751.972L909.706 747.147C910.376 742.407 913 736.574 914.497 731.967L917.305 724.76C925.845 729.556 933.248 734.622 940.919 740.66L940.963 740.636C946.787 747.404 952.138 753.423 954.751 762.161C956.925 768.386 956.808 774.201 954.018 780.242C952.095 784.406 949.085 788.193 945.467 791.007L945.414 791.021C942.821 790.924 938.943 793.541 936.454 794.492C932.437 796.027 928.194 797.389 924 798.364C915.387 800.368 906.549 800.626 897.75 800.573C853.305 800.304 808.58 793.929 764.75 787.079L686.946 774.604L684.34 774.028L682.358 773.524C681.472 773.218 681.366 772.616 680.91 771.857L684.472 756.013L684.878 755.966L697.398 705.774Z"/>
	<path fill="#D72B37" transform="scale(0.488281 0.488281)" d="M917.305 724.76C925.845 729.556 933.248 734.622 940.919 740.66L940.963 740.636C946.787 747.404 952.138 753.423 954.751 762.161C952.744 760.151 951.19 757.854 949.016 755.941C938.512 746.697 925.485 740.61 914.497 731.967L917.305 724.76Z"/>
	<path fill="#F7E0B5" transform="scale(0.488281 0.488281)" d="M697.398 705.774C704.182 714.397 714.386 721.397 724.826 724.869C737.486 728.679 751.931 730.307 764.882 727.048L802.546 774.255L802.382 776.867L684.878 755.966L697.398 705.774Z"/>
	<path fill="#785141" transform="scale(0.488281 0.488281)" d="M797.035 667.139C807.412 671.655 817.477 678.626 827.299 684.264C830.704 686.219 834.388 688.679 838.039 690.075L838.472 689.948L845.422 693.519L845.824 693.201L848.921 686.456L917.305 724.76L914.497 731.967C913 736.574 910.376 742.407 909.706 747.147L907.932 751.972L892.278 793.17L810.279 778.263L802.382 776.867L802.546 774.255L764.882 727.048L770.5 725.544C781.437 722.485 789.398 717.026 795.068 707.09C795.653 704.499 797.039 701.716 797.861 699.146C799.986 692.721 801.439 684.746 800.331 677.957C799.745 674.368 798.207 670.591 797.035 667.139Z"/>
	<path fill="#BE9C75" transform="scale(0.488281 0.488281)" d="M797.035 667.139C807.412 671.655 817.477 678.626 827.299 684.264C830.704 686.219 834.388 688.679 838.039 690.075L827.938 711.801L797.861 699.146C799.986 692.721 801.439 684.746 800.331 677.957C799.745 674.368 798.207 670.591 797.035 667.139Z"/>
	<path fill="#BE9C75" transform="scale(0.488281 0.488281)" d="M795.068 707.09C798.861 708.548 823.804 718.232 824.813 719.586L807.785 760.234C806.005 764.802 803.682 769.5 802.546 774.255L764.882 727.048L770.5 725.544C781.437 722.485 789.398 717.026 795.068 707.09Z"/>
	<path fill="#BE9C75" transform="scale(0.488281 0.488281)" d="M848.921 686.456L917.305 724.76L914.497 731.967C913 736.574 910.376 742.407 909.706 747.147C905.782 745.903 902.198 744.003 898.46 742.309L883.176 735.566L835.847 714.437L845.158 694.314L845.422 693.519L845.824 693.201L848.921 686.456Z"/>
	<path fill="#F7E0B5" transform="scale(0.488281 0.488281)" d="M848.921 686.456L917.305 724.76L914.497 731.967L913.879 731.755C910.027 729.985 906.232 727.401 902.521 725.313L882.637 714.342C871.225 708.019 859.054 702.316 848.013 695.405C846.947 694.738 846.294 694.417 845.824 693.201L848.921 686.456Z"/>
	<path fill="#BE9C75" transform="scale(0.488281 0.488281)" d="M810.279 778.263C813.728 767.356 818.593 756.601 822.917 746C826.095 738.212 828.93 730.012 832.978 722.634L878.054 740.319C887.852 744.017 898.684 747.173 907.932 751.972L892.278 793.17L810.279 778.263Z"/>
	<path fill="#D72B37" transform="scale(0.488281 0.488281)" d="M479.854 173.401C486.296 168.978 493.148 165.616 500.162 162.236L499.905 182.099L501.678 183.182C502.73 186.92 503.833 190.722 507.419 192.863C508.603 193.57 509.94 194.003 511.26 194.372L514.18 193.867L512.746 194.446C512.059 194.748 512.266 194.672 511.543 195.25L512.25 197.255C513.971 197.476 514.663 197.308 516.093 196.352C516.71 195.939 516.927 195.9 517.644 195.807L518.361 195.709L518.951 195.635C516.263 197.713 513.942 198.486 510.551 198.615L510.063 273.877L510.032 294.069C510.031 296.905 510.399 300.251 509.987 303.019C511.445 306.712 511.071 314.509 510.539 318.535L510.375 416.963L510.132 417.034C511.164 422.467 510.675 429.036 510.553 434.591L510.512 437.988L510.567 450.989C510.571 452.602 510.865 454.453 510.089 455.908L510.399 455.971L510.582 591.882L510.947 592.047C511.136 595.578 511.987 600.573 511.173 603.948L511.461 604.041L512.09 754.974C505.002 755.394 497.807 755.628 490.817 756.936C472.913 760.285 455.59 769.719 443.57 783.41L435.439 794.596L430.945 764.169L427.422 729.82C427.17 729.425 427.166 727.645 427.116 727.086L426.342 719L419.496 640.364L419.189 634.419L416.206 580.802C416.081 578.956 416.283 577.447 415.148 575.929L414.659 575.972L406.724 579.973C404.308 576.444 396.392 573.639 392.529 571.434L356.43 548.569C326.305 527.47 298.691 502.777 274.035 475.5C272.814 474.149 272.092 473.345 271.576 471.574L272.114 470.491L263.86 461.854L231.305 425.547L228.428 422.08L183.987 358.031C163.737 324.753 145.99 289.304 135.824 251.576C133.812 244.11 130.745 233.5 132.787 225.832L132.955 225.25C133.414 223.604 133.893 222.019 134.696 220.5C137.422 215.346 141.719 212.006 147.296 210.309C158.685 206.844 169.473 213.419 179.186 218.445L197.63 228.037L233.591 245.85L257.752 258.145C259.51 259.033 262.52 261.104 264.364 261.469L275.031 266.454L275.413 277.46L276.37 289.231C277.868 297.826 280.742 306.969 288.25 312.255C290.417 313.781 292.873 314.738 295.329 315.682C297.972 316.304 300.253 316.614 302.987 316.618C306.343 316.092 309.175 315.313 312.121 313.567C320.403 308.66 324.656 299.506 326.835 290.544L327.762 272.125C331.982 274.307 335.756 276.881 339.465 279.842C342.529 282.762 345.419 285.694 348.163 288.918C348.591 289.42 349.881 290.623 350.035 291.195L354.428 302.21C357.934 302.874 361.391 304.808 364.627 306.286L386.502 317.356L390.469 313.825L395.768 316.642L417.128 327.761L419.367 304.609C420.836 291.622 423.652 278.673 426.822 266.001C435.87 229.837 449.93 197.14 479.854 173.401Z"/>
	<path fill="#BF222E" transform="scale(0.488281 0.488281)" d="M449.775 675.463C450.596 677.729 450.399 679.648 450.255 682C449.296 682.324 448.505 682.388 447.5 682.5L447.105 682.065C445.644 679.407 444.743 679.349 442.587 677.419C440.776 675.798 439.978 673.392 439.957 671.013C439.941 669.294 440.347 668.888 441.563 667.719C442.002 670.255 442.225 673.807 444.415 675.476C445.626 676.399 446.288 676.332 447.75 676.428L449.775 675.463Z"/>
	<path fill="#7A0F1F" transform="scale(0.488281 0.488281)" d="M499.905 182.099L501.678 183.182C502.73 186.92 503.833 190.722 507.419 192.863C508.603 193.57 509.94 194.003 511.26 194.372L514.18 193.867L512.746 194.446C512.059 194.748 512.266 194.672 511.543 195.25L512.25 197.255C513.971 197.476 514.663 197.308 516.093 196.352C516.71 195.939 516.927 195.9 517.644 195.807L518.361 195.709L518.951 195.635C516.263 197.713 513.942 198.486 510.551 198.615C508.393 197.897 506.47 197.182 504.781 195.599C500.844 191.907 500.157 187.179 499.905 182.099Z"/>
	<path fill="#9A1B26" transform="scale(0.488281 0.488281)" d="M164.088 251.431C160.876 250.624 157.425 248.542 154.5 246.951C150.883 244.984 146.59 242.837 143.445 240.181C142.214 239.141 142.128 237.216 142.06 235.75L143 235.431C149.789 237.576 157.752 241.496 162.706 246.631L163.364 247.671L164.088 251.431Z"/>
	<path fill="#FEFEFD" transform="scale(0.488281 0.488281)" d="M441.563 667.719C439.646 649.779 437.785 631.716 437.537 613.663C437.47 608.718 437.084 603.443 437.713 598.554C439.248 603.391 439.685 608.985 440.505 614L445.559 645.5L448.522 664C449.082 667.461 450.291 671.98 449.775 675.463L447.75 676.428C446.288 676.332 445.626 676.399 444.415 675.476C442.225 673.807 442.002 670.255 441.563 667.719Z"/>
	<path fill="#9A1B26" transform="scale(0.488281 0.488281)" d="M461.396 738.927C461.494 741.537 461.449 743.839 460.355 746.25C458.472 747.963 456.951 748.839 454.366 748.969C452.654 749.056 450.825 748.685 449.605 747.4C448.449 746.181 448.222 743.701 447.987 742.074L446.17 723.635C444.956 712.276 442.098 700.747 442.481 689.3C443.817 686.876 445.232 684.669 447.571 683.117C448.864 682.817 449.366 682.953 450.582 683.464C452.682 684.257 453.925 685.296 454.95 687.336C457.238 691.887 457.075 698.938 457.654 704.02L461.396 738.927Z"/>
	<path fill="#FEFEFD" transform="scale(0.488281 0.488281)" d="M459.435 740.868L459.257 741.566C458.629 743.454 457.476 744.505 455.75 745.375C453.821 745.417 453.438 745.548 451.75 744.485C449.823 741.584 449.721 736.699 449.25 733.297L446.018 707C445.382 702.031 443.658 695.935 444.032 690.971C444.165 689.2 445.027 687.532 446.5 686.507C447.731 685.649 449.245 686.163 450.582 686.464C451.316 687.128 452.142 687.839 452.544 688.764C453.741 691.513 453.842 695.481 454.244 698.451L457.684 726.509C458.193 731.138 458.113 736.402 459.435 740.868Z"/>
	<path fill="#1B2655" transform="scale(0.488281 0.488281)" d="M272.114 470.491C300.541 498.124 330.039 523.342 362.999 545.485L401.083 568.583L410.5 573.42C411.929 574.115 413.702 574.7 414.659 575.972L406.724 579.973C404.308 576.444 396.392 573.639 392.529 571.434L356.43 548.569C326.305 527.47 298.691 502.777 274.035 475.5C272.814 474.149 272.092 473.345 271.576 471.574L272.114 470.491Z"/>
	<path fill="#F7E0B5" transform="scale(0.488281 0.488281)" d="M197.63 228.037L233.591 245.85L257.752 258.145C259.51 259.033 262.52 261.104 264.364 261.469L275.031 266.454L275.413 277.46C266.475 282.996 259.586 288.326 255.207 298.214L253.844 301.614C251.286 310.404 250.016 319.285 252.161 328.344L254.504 333.958L222.202 357.437L219.034 353.048C201.907 331.756 188.822 306.254 177.353 281.583C172.818 271.829 168.287 262.14 164.6 252.023L164.088 251.431L163.364 247.671L162.706 246.631C166.682 243.095 173.042 240.774 177.869 238.36L197.63 228.037Z"/>
	<path fill="#8F644B" transform="scale(0.488281 0.488281)" d="M219.034 353.048C223.277 350.645 227.322 347.03 231.259 344.106C238.249 338.913 245.495 333.947 252.161 328.344L254.504 333.958L222.202 357.437L219.034 353.048Z"/>
	<path fill="#F7E0B5" transform="scale(0.488281 0.488281)" d="M197.63 228.037L233.591 245.85L257.752 258.145C259.51 259.033 262.52 261.104 264.364 261.469L275.031 266.454L275.413 277.46C266.475 282.996 259.586 288.326 255.207 298.214L253.844 301.614L164.6 252.023L164.088 251.431L163.364 247.671L162.706 246.631C166.682 243.095 173.042 240.774 177.869 238.36L197.63 228.037Z"/>
	<path fill="#785141" transform="scale(0.488281 0.488281)" d="M163.364 247.671L255.207 298.214L253.844 301.614L164.6 252.023L164.088 251.431L163.364 247.671Z"/>
	<path fill="#F7E0B5" transform="scale(0.488281 0.488281)" d="M329.112 372.278C332.946 368.824 336.738 364.958 340.93 361.96L414.807 411.44L414.543 434.969L414.2 505.814L414.327 535.099C414.399 538.99 414.054 543.524 414.789 547.329C395.624 534.536 378.521 519.069 361.395 503.74L273.743 419.314C293.635 405.689 310.31 387.282 329.112 372.278Z"/>
	<path fill="#BE9C75" transform="scale(0.488281 0.488281)" d="M329.112 372.278C332.946 368.824 336.738 364.958 340.93 361.96L414.807 411.44L414.543 434.969C412.716 434.434 411.167 432.904 409.67 431.75L401.867 425.76L377.5 407.467L329.112 372.278Z"/>
	<path fill="#8F644B" transform="scale(0.488281 0.488281)" d="M327.762 272.125C331.982 274.307 335.756 276.881 339.465 279.842C342.529 282.762 345.419 285.694 348.163 288.918C348.591 289.42 349.881 290.623 350.035 291.195L354.428 302.21C357.934 302.874 361.391 304.808 364.627 306.286L386.502 317.356L390.469 313.825L395.768 316.642L417.128 327.761L416.719 335.677L414.874 405.645L414.807 411.44L340.93 361.96C336.738 364.958 332.946 368.824 329.112 372.278C310.31 387.282 293.635 405.689 273.743 419.314C272.575 418.265 271.581 417.018 270.552 415.834C266.344 411.873 262.513 407.275 258.628 402.986C245.569 388.568 233.706 373.109 222.202 357.437L254.504 333.958L252.161 328.344C250.016 319.285 251.286 310.404 253.844 301.614L255.207 298.214C259.586 288.326 266.475 282.996 275.413 277.46L276.37 289.231C277.868 297.826 280.742 306.969 288.25 312.255C290.417 313.781 292.873 314.738 295.329 315.682C297.972 316.304 300.253 316.614 302.987 316.618C306.343 316.092 309.175 315.313 312.121 313.567C320.403 308.66 324.656 299.506 326.835 290.544L327.762 272.125Z"/>
	<path fill="#BE9C75" transform="scale(0.488281 0.488281)" d="M354.428 302.21C357.934 302.874 361.391 304.808 364.627 306.286L386.502 317.356L341.5 354.037C340.991 353.882 340.531 353.737 340.048 353.512C342.862 351.203 345.544 348.887 347.731 345.958C354.628 336.725 358.454 322.768 356.714 311.272L356.587 310.5C356.197 308.039 355.495 305.699 354.795 303.313L354.428 302.21Z"/>
	<path fill="#B66215" transform="scale(0.488281 0.488281)" d="M314.143 353.627C323.049 352.31 332.341 348.383 339.024 342.25C345.299 336.492 350.703 329.652 352.905 321.271C354.454 315.375 354.563 309.36 354.795 303.313C355.495 305.699 356.197 308.039 356.587 310.5L356.714 311.272C358.454 322.768 354.628 336.725 347.731 345.958C345.544 348.887 342.862 351.203 340.048 353.512C338.013 353.348 335.209 355.518 333.45 356.535C334.08 357.646 334.9 358.597 334.888 359.889L323.444 369.572C320.136 366.408 313.601 367.372 309.422 367.455C306.549 367.511 303.847 367.4 301 367.064C293.243 366.145 284.289 363.897 277.872 359.309C270.876 355.616 264.78 350.88 260.544 344.091C263.804 346.399 266.767 348.852 270.35 350.705C281.352 356.395 294.393 357.356 306.431 355.273C308.951 354.837 311.642 353.873 314.143 353.627Z"/>
	<path fill="#BE9C75" transform="scale(0.488281 0.488281)" d="M277.872 359.309C283.15 359.879 288.201 362.603 293.514 363.535C308.06 366.085 320.35 362.556 333.45 356.535C334.08 357.646 334.9 358.597 334.888 359.889L323.444 369.572C320.136 366.408 313.601 367.372 309.422 367.455C306.549 367.511 303.847 367.4 301 367.064C293.243 366.145 284.289 363.897 277.872 359.309Z"/>
	<path fill="#DB7711" transform="scale(0.488281 0.488281)" d="M327.762 272.125C331.982 274.307 335.756 276.881 339.465 279.842C342.529 282.762 345.419 285.694 348.163 288.918C348.591 289.42 349.881 290.623 350.035 291.195L354.428 302.21L354.795 303.313C354.563 309.36 354.454 315.375 352.905 321.271C350.703 329.652 345.299 336.492 339.024 342.25C332.341 348.383 323.049 352.31 314.143 353.627C313.416 349.211 312.269 345.081 310.848 340.846L310.955 340.645L309.728 340.312C304.919 332.387 301.804 326.039 302.987 316.618C306.343 316.092 309.175 315.313 312.121 313.567C320.403 308.66 324.656 299.506 326.835 290.544L327.762 272.125Z"/>
	<path fill="#7A0F1F" transform="scale(0.488281 0.488281)" d="M326.835 290.544C332.857 296.622 337.292 302.804 337.454 311.75C337.585 318.93 334.213 325.977 329.137 330.932C324.193 335.758 317.687 339.12 310.955 340.645L309.728 340.312C304.919 332.387 301.804 326.039 302.987 316.618C306.343 316.092 309.175 315.313 312.121 313.567C320.403 308.66 324.656 299.506 326.835 290.544Z"/>
	<path fill="#F5A013" transform="scale(0.488281 0.488281)" d="M255.207 298.214C259.586 288.326 266.475 282.996 275.413 277.46L276.37 289.231C277.868 297.826 280.742 306.969 288.25 312.255C290.417 313.781 292.873 314.738 295.329 315.682C297.972 316.304 300.253 316.614 302.987 316.618C301.804 326.039 304.919 332.387 309.728 340.312L310.955 340.645L310.848 340.846C312.269 345.081 313.416 349.211 314.143 353.627C311.642 353.873 308.951 354.837 306.431 355.273C294.393 357.356 281.352 356.395 270.35 350.705C266.767 348.852 263.804 346.399 260.544 344.091C258.128 342.432 255.821 336.634 254.504 333.958L252.161 328.344C250.016 319.285 251.286 310.404 253.844 301.614L255.207 298.214Z"/>
	<path fill="#9A1B26" transform="scale(0.488281 0.488281)" d="M310.848 340.846L301 342.134C291.322 342.459 281.051 339.337 273.947 332.559C268.976 327.816 265.457 321.21 265.303 314.25C265.074 303.907 269.529 296.537 276.37 289.231C277.868 297.826 280.742 306.969 288.25 312.255C290.417 313.781 292.873 314.738 295.329 315.682C297.972 316.304 300.253 316.614 302.987 316.618C301.804 326.039 304.919 332.387 309.728 340.312L310.955 340.645L310.848 340.846Z"/>
	<path fill="#BE9C75" transform="scale(0.488281 0.488281)" d="M395.768 316.642L417.128 327.761L416.719 335.677L414.874 405.645L346.163 357.62L390.095 321.443L395.768 316.642Z"/>
	<path fill="#F7E0B5" transform="scale(0.488281 0.488281)" d="M395.768 316.642L417.128 327.761L416.719 335.677C411.136 333.433 405.562 330.107 400.261 327.232C396.915 325.417 393.088 323.793 390.095 321.443L395.768 316.642Z"/>
	<path fill="#F7E0B5" transform="scale(0.488281 0.488281)" d="M254.504 333.958C255.821 336.634 258.128 342.432 260.544 344.091C264.78 350.88 270.876 355.616 277.872 359.309C284.289 363.897 293.243 366.145 301 367.064C303.847 367.4 306.549 367.511 309.422 367.455C313.601 367.372 320.136 366.408 323.444 369.572L270.552 415.834C266.344 411.873 262.513 407.275 258.628 402.986C245.569 388.568 233.706 373.109 222.202 357.437L254.504 333.958Z"/>
	<path fill="#FEFEFD" transform="scale(0.488281 0.488281)" d="M509.987 303.019C511.445 306.712 511.071 314.509 510.539 318.535L510.375 416.963L510.132 417.034C511.164 422.467 510.675 429.036 510.553 434.591L510.512 437.988L510.567 450.989C510.571 452.602 510.865 454.453 510.089 455.908L510.399 455.971L510.582 591.882L510.947 592.047C511.136 595.578 511.987 600.573 511.173 603.948L448.827 611.238L435.897 528.523C427.121 464.212 419.209 387.981 461.548 333.061C471.056 320.728 484.534 309.042 499.75 304.633C503.011 303.688 506.622 303.431 509.987 303.019Z"/>
	<path fill="#A5D0D7" transform="scale(0.488281 0.488281)" d="M510.553 434.591L510.512 437.988C503.794 437.796 496.987 438.473 490.299 439.038C480.582 439.858 471.095 440.924 461.495 442.666L443.122 446.336C442.531 445.218 442.563 445.149 442.75 443.89C445.444 442.483 449.5 442.025 452.473 441.36C466.825 438.15 481.238 436.57 495.874 435.439C500.59 435.075 505.372 435.194 510.064 434.652L510.553 434.591Z"/>
	<path fill="#1FA2C9" transform="scale(0.488281 0.488281)" d="M510.539 318.535L510.375 416.963L510.132 417.034C501.972 416.763 493.497 417.565 485.391 418.47C471.227 420.05 457.292 422.531 443.458 425.942L445.858 408.829C449.712 386.967 456.282 364.311 469.43 346.086C479.845 331.649 492.727 321.391 510.539 318.535Z"/>
	<path fill="#1FA2C9" transform="scale(0.488281 0.488281)" d="M510.089 455.908L510.399 455.971L510.582 591.882C493.198 591.475 476.259 593.778 459.215 597.028L447.962 522.755C445.672 503.44 443.724 484.198 443.298 464.736C465.169 458.814 487.474 456.395 510.089 455.908Z"/>
	<path fill="#9A1B26" transform="scale(0.488281 0.488281)" d="M524.082 162.403L534.764 167.136C566.686 182.659 585.372 213.899 596.54 246.396C602.416 263.492 606.406 281.092 608.508 299.047L609.528 312.435C609.617 314.718 609.192 318.942 610.359 320.762L631.744 311.301L636.161 309.432L646.517 303.982L705.064 270.153C705.858 272.958 705.796 276.103 705.978 279.006C706.092 282.816 706.345 286.29 707.295 290.003C709.93 298.796 711.443 308.649 720.514 313.334C723.963 315.115 727.991 315.41 731.815 315.357L732.229 315.354C734.81 314.673 737.284 313.832 739.639 312.556C746.944 308.597 750.193 301.247 752.323 293.609L753.867 283.869C763.141 287.613 770.813 291.487 776.655 300.031C777.246 301.201 778.085 302.53 778.489 303.762L779.256 303.478C781.701 307.33 783.099 311.146 784.196 315.543C785.906 315.1 787.784 313.419 789.2 312.372L800.133 303.949L826.338 283.333C835.271 276.178 844.377 268.138 854.437 262.654C856.227 259.784 857.176 255.347 858.24 252.093L859.296 249.649L859.479 246.95L859.564 246.478C861.382 245.097 862.914 242.987 864.428 241.272L876.074 224.048L885.048 230.983L888.489 233.166L888.539 234.777C902.993 231.7 915.293 226.885 928.982 235.651C932.444 237.868 935.821 240.989 937.992 244.5C944.931 255.719 944.457 265.552 943.147 278.197C942.23 287.055 940.629 295.872 938.67 304.557C932.454 332.113 922.202 357.86 909.645 383.105C898.322 405.868 885.267 428.003 870.25 448.538C850.464 475.596 828.169 501.048 804.938 525.199L787.043 542.332C785.295 544.011 782.087 546.461 781.457 548.831L755.676 570.071C758.296 573.41 760.724 577.167 762.081 581.211C768.456 594.976 771.73 610.787 771.496 625.942C771.429 630.329 770.717 634.641 770.604 639.01L771.071 640.561L775.619 643.393C779.024 645.801 783.547 648.559 786.228 651.763L793.178 663.041L797.035 667.139C798.207 670.591 799.745 674.368 800.331 677.957C801.439 684.746 799.986 692.721 797.861 699.146C797.039 701.716 795.653 704.499 795.068 707.09C789.398 717.026 781.437 722.485 770.5 725.544L764.882 727.048C751.931 730.307 737.486 728.679 724.826 724.869C714.386 721.397 704.182 714.397 697.398 705.774L684.878 755.966L684.472 756.013C681.279 754.77 677.725 754.144 674.392 753.336L674.322 753.117L654.221 747.123C651.191 745.748 647.293 745.061 644.05 744.16C640.259 749.283 637.818 753.902 635.731 759.924C634.42 765.228 632.747 770.69 632.26 776.146L595.204 767.139L590.783 797.03C587.422 793.518 584.932 788.895 581.752 785.132C572.519 774.208 560.246 767.664 547.347 762.048C537.055 758.358 526.655 756.535 515.839 755.27L512.09 754.974L511.461 604.041L511.173 603.948C511.987 600.573 511.136 595.578 510.947 592.047L510.582 591.882L510.399 455.971L510.089 455.908C510.865 454.453 510.571 452.602 510.567 450.989L510.512 437.988L510.553 434.591C510.675 429.036 511.164 422.467 510.132 417.034L510.375 416.963L510.539 318.535C511.071 314.509 511.445 306.712 509.987 303.019C510.399 300.251 510.031 296.905 510.032 294.069L510.063 273.877L510.551 198.615C513.942 198.486 516.263 197.713 518.951 195.635L520.75 193.982C524.822 189.082 524.715 182.035 524.378 176.076C523.474 172.122 522.783 166.257 524.082 162.403Z"/>
	<path fill="#7A0F1F" transform="scale(0.488281 0.488281)" d="M876.074 224.048L885.048 230.983L888.489 233.166L888.539 234.777L888.221 238.328L887.75 235.601C880.878 238.061 874.006 242.716 867.5 246.162C864.978 247.498 862.178 249.451 859.296 249.649L859.479 246.95L859.564 246.478C861.382 245.097 862.914 242.987 864.428 241.272L876.074 224.048Z"/>
	<path fill="#9A1B26" transform="scale(0.488281 0.488281)" d="M876.074 224.048L885.048 230.983L874.856 236.474C871.409 238.376 868.473 240.758 864.428 241.272L876.074 224.048Z"/>
	<path fill="#BE9C75" transform="scale(0.488281 0.488281)" d="M784.196 315.543C785.906 315.1 787.784 313.419 789.2 312.372L800.133 303.949L826.338 283.333C835.271 276.178 844.377 268.138 854.437 262.654C842.957 295.275 823.862 325.641 805.757 354.903C805.041 356.148 804.389 357.465 803.405 358.522C801.037 356.156 798.085 354.301 795.407 352.301L778.223 340.362L781.107 334.818C783.763 328.181 784.748 322.663 784.196 315.543Z"/>
	<path fill="#785141" transform="scale(0.488281 0.488281)" d="M781.107 334.818C786.458 339.941 792.634 344.163 798.454 348.73C800.746 350.528 803.936 352.656 805.757 354.903C805.041 356.148 804.389 357.465 803.405 358.522C801.037 356.156 798.085 354.301 795.407 352.301L778.223 340.362L781.107 334.818Z"/>
	<path fill="#BE9C75" transform="scale(0.488281 0.488281)" d="M778.223 340.362L795.407 352.301C798.085 354.301 801.037 356.156 803.405 358.522C793.994 373.551 782.344 387.405 770.769 400.804C765.335 407.094 759.935 413.735 754.122 419.666L718.351 386.431L740.181 363.904L747.641 362.537C760.644 359.108 771.309 352.113 778.223 340.362Z"/>
	<path fill="#BE9C75" transform="scale(0.488281 0.488281)" d="M631.744 311.301C636.782 318.727 644.772 325.17 651.399 331.163L672.75 350.755C675.941 353.719 679.621 356.574 682.359 359.957C679.627 361.381 676.484 363.458 673.578 364.4L672.935 364.757L610.074 402.507L609.964 339.605L609.818 326.807C609.775 324.757 609.169 322.809 610.025 320.881L610.359 320.762L631.744 311.301Z"/>
	<path fill="#F7E0B5" transform="scale(0.488281 0.488281)" d="M631.744 311.301C636.782 318.727 644.772 325.17 651.399 331.163L672.75 350.755C675.941 353.719 679.621 356.574 682.359 359.957C679.627 361.381 676.484 363.458 673.578 364.4C667.813 359.749 619.518 321.738 616.921 322.038C614.755 322.288 612.941 325.463 610.171 324.991L610.025 320.881L610.359 320.762L631.744 311.301Z"/>
	<defs>
		<linearGradient id="gradient_0" gradientUnits="userSpaceOnUse" x1="716.70197" y1="352.96045" x2="669.08722" y2="378.577">
			<stop offset="0" stop-color="#794F3D"/>
			<stop offset="1" stop-color="#916647"/>
		</linearGradient>
	</defs>
	<path fill="url(#gradient_0)" transform="scale(0.488281 0.488281)" d="M705.064 270.153C705.858 272.958 705.796 276.103 705.978 279.006C692.891 284.749 681.123 291.17 675.706 305.344C674.606 308.221 674.009 311.45 673.673 314.504C673.529 317.221 673.161 320.219 673.493 322.917C674.473 330.868 678.552 338.653 683.868 344.51C686.34 347.233 689.938 350.595 693.158 352.361L697.524 354.957C706.297 359.407 716.231 362.375 726 363.518C730.751 364.074 735.41 363.989 740.181 363.904L718.351 386.431L754.122 419.666C752.973 421.122 751.82 422.45 750.472 423.725L748.86 424.864C745.126 423.335 741.833 420.286 738.661 417.836L712.202 396.431L709.956 394.684C701.659 388.78 693.956 382.068 686.11 375.587C684.063 373.896 680.362 371.614 678.91 369.577C678.627 369.18 678.592 368.655 678.433 368.194L678.233 368.058L677.659 367.426C676.599 366.615 674.2 365.156 672.935 364.757L673.578 364.4C676.484 363.458 679.627 361.381 682.359 359.957C679.621 356.574 675.941 353.719 672.75 350.755L651.399 331.163C644.772 325.17 636.782 318.727 631.744 311.301L636.161 309.432L646.517 303.982L705.064 270.153Z"/>
	<path fill="#F7E0B5" transform="scale(0.488281 0.488281)" d="M715.659 390.15L741.31 414.75C744.201 417.534 748.127 420.507 750.472 423.725L748.86 424.864C745.126 423.335 741.833 420.286 738.661 417.836L712.202 396.431L715.659 390.15Z"/>
	<path fill="#F7E0B5" transform="scale(0.488281 0.488281)" d="M678.433 368.194L685.598 362.87C688.885 364.589 692.383 369.002 695.175 371.582L712.694 387.431L715.659 390.15L712.202 396.431L709.956 394.684C701.659 388.78 693.956 382.068 686.11 375.587C684.063 373.896 680.362 371.614 678.91 369.577C678.627 369.18 678.592 368.655 678.433 368.194Z"/>
	<path fill="#F7E0B5" transform="scale(0.488281 0.488281)" d="M697.524 354.957C706.297 359.407 716.231 362.375 726 363.518C730.751 364.074 735.41 363.989 740.181 363.904L718.351 386.431L690.251 359.857L697.524 354.957Z"/>
	<path fill="#F7E0B5" transform="scale(0.488281 0.488281)" d="M705.064 270.153C705.858 272.958 705.796 276.103 705.978 279.006C692.891 284.749 681.123 291.17 675.706 305.344C674.606 308.221 674.009 311.45 673.673 314.504C673.529 317.221 673.161 320.219 673.493 322.917C674.473 330.868 678.552 338.653 683.868 344.51C686.34 347.233 689.938 350.595 693.158 352.361C690.873 353.488 688.789 355.232 686.725 356.726L636.161 309.432L646.517 303.982L705.064 270.153Z"/>
	<path fill="#BF222E" transform="scale(0.488281 0.488281)" d="M524.082 162.403L534.764 167.136C534.234 167.832 533.635 168.158 533.802 169.069C534.277 171.659 535.484 174.343 536.273 176.866L541.147 193.819L565.99 303.868L572.313 333.807C573.034 337.689 574.157 341.957 574.337 345.9C574.398 347.226 573.967 348.413 573.481 349.623C569.361 342.283 564.478 335.34 558.981 328.961C551.421 320.188 541.192 311.434 530.358 307.113C523.653 304.439 517.13 303.514 509.987 303.019C510.399 300.251 510.031 296.905 510.032 294.069L510.063 273.877L510.551 198.615C513.942 198.486 516.263 197.713 518.951 195.635L520.75 193.982C524.822 189.082 524.715 182.035 524.378 176.076C523.474 172.122 522.783 166.257 524.082 162.403Z"/>
	<path fill="#DB7711" transform="scale(0.488281 0.488281)" d="M673.673 314.504C674.009 311.45 674.606 308.221 675.706 305.344C681.123 291.17 692.891 284.749 705.978 279.006C706.092 282.816 706.345 286.29 707.295 290.003C709.93 298.796 711.443 308.649 720.514 313.334C723.963 315.115 727.991 315.41 731.815 315.357L732.229 315.354C734.81 314.673 737.284 313.832 739.639 312.556C746.944 308.597 750.193 301.247 752.323 293.609L753.867 283.869C763.141 287.613 770.813 291.487 776.655 300.031C777.246 301.201 778.085 302.53 778.489 303.762L779.256 303.478C781.701 307.33 783.099 311.146 784.196 315.543C784.748 322.663 783.763 328.181 781.107 334.818L778.223 340.362C771.309 352.113 760.644 359.108 747.641 362.537L740.181 363.904C735.41 363.989 730.751 364.074 726 363.518C716.231 362.375 706.297 359.407 697.524 354.957L693.158 352.361C689.938 350.595 686.34 347.233 683.868 344.51C678.552 338.653 674.473 330.868 673.493 322.917C673.161 320.219 673.529 317.221 673.673 314.504Z"/>
	<path fill="#530B23" transform="scale(0.488281 0.488281)" d="M752.323 293.609C758.32 297.657 763.116 304.089 764.501 311.25C765.631 317.084 764.62 322.33 761.233 327.203C756.059 334.646 747.373 338.919 738.594 340.307L733.247 340.655C732.365 340.194 732.764 340.492 732.059 339.75L732.4 317.204C732.51 316.224 732.295 316.177 731.815 315.357L732.229 315.354C734.81 314.673 737.284 313.832 739.639 312.556C746.944 308.597 750.193 301.247 752.323 293.609Z"/>
	<path fill="#B66215" transform="scale(0.488281 0.488281)" d="M778.489 303.762L779.256 303.478C781.701 307.33 783.099 311.146 784.196 315.543C784.748 322.663 783.763 328.181 781.107 334.818L778.223 340.362C771.309 352.113 760.644 359.108 747.641 362.537L740.181 363.904C735.41 363.989 730.751 364.074 726 363.518C716.231 362.375 706.297 359.407 697.524 354.957L693.158 352.361C689.938 350.595 686.34 347.233 683.868 344.51C678.552 338.653 674.473 330.868 673.493 322.917C673.161 320.219 673.529 317.221 673.673 314.504L674.025 315.402C674.928 317.793 675.052 320.35 676.003 322.766C680.699 334.698 690.264 342.842 701.653 348.21C710.82 352.53 722.924 355.859 733.08 355.294C743.049 354.327 752.893 351.708 761.316 346.086C769.529 340.604 777.108 333.171 779.057 323.101L779.215 322.25C780.489 315.643 779.769 310.286 778.489 303.762Z"/>
	<path fill="#F5A013" transform="scale(0.488281 0.488281)" d="M673.673 314.504C674.009 311.45 674.606 308.221 675.706 305.344C681.123 291.17 692.891 284.749 705.978 279.006C706.092 282.816 706.345 286.29 707.295 290.003C709.93 298.796 711.443 308.649 720.514 313.334C723.963 315.115 727.991 315.41 731.815 315.357C732.295 316.177 732.51 316.224 732.4 317.204L732.059 339.75C732.764 340.492 732.365 340.194 733.247 340.655L733.049 340.953C732.201 345.445 733.038 350.683 733.08 355.294C722.924 355.859 710.82 352.53 701.653 348.21C690.264 342.842 680.699 334.698 676.003 322.766C675.052 320.35 674.928 317.793 674.025 315.402L673.673 314.504Z"/>
	<path fill="#7A0F1F" transform="scale(0.488281 0.488281)" d="M707.295 290.003C709.93 298.796 711.443 308.649 720.514 313.334C723.963 315.115 727.991 315.41 731.815 315.357C732.295 316.177 732.51 316.224 732.4 317.204L732.059 339.75C732.764 340.492 732.365 340.194 733.247 340.655L733.049 340.953L728 340.505C717.714 339.408 706.998 335.367 700.384 327.055C696.867 322.635 694.478 316.737 695.265 311.02L695.383 310.25C696.629 301.668 701.221 295.86 707.295 290.003Z"/>
	<path fill="#BF222E" transform="scale(0.488281 0.488281)" d="M511.461 604.041C521.06 604.079 530.419 605.044 539.948 606.056C551.09 607.238 562.815 608.712 573.736 611.281L547.347 762.048C537.055 758.358 526.655 756.535 515.839 755.27L512.09 754.974L511.461 604.041Z"/>
	<path fill="#BE9C75" transform="scale(0.488281 0.488281)" d="M605.508 639.187L654.62 663.847L674.646 674.336C678.405 676.306 682.394 678.102 685.956 680.397L685.95 680.5L688.82 680.956L691.701 692.868C692.437 694.438 694.553 699.988 695.79 700.798C696.41 702.302 697.496 704.148 697.398 705.774L684.878 755.966L684.472 756.013C681.279 754.77 677.725 754.144 674.392 753.336L674.322 753.117L654.221 747.123C651.191 745.748 647.293 745.061 644.05 744.16C640.259 749.283 637.818 753.902 635.731 759.924C634.42 765.228 632.747 770.69 632.26 776.146L595.204 767.139L599.122 731.633C599.989 729.698 599.643 724.219 599.858 721.753L605.508 639.187Z"/>
	<path fill="#7A0F1F" transform="scale(0.488281 0.488281)" d="M599.122 731.633L644.05 744.16C640.259 749.283 637.818 753.902 635.731 759.924C634.42 765.228 632.747 770.69 632.26 776.146L595.204 767.139L599.122 731.633Z"/>
	<path fill="#F7E0B5" transform="scale(0.488281 0.488281)" d="M685.95 680.5L688.82 680.956L691.701 692.868C692.437 694.438 694.553 699.988 695.79 700.798C696.41 702.302 697.496 704.148 697.398 705.774L684.878 755.966L684.472 756.013C681.279 754.77 677.725 754.144 674.392 753.336L674.322 753.117L654.221 747.123L685.95 680.5Z"/>
	<path fill="#8F644B" transform="scale(0.488281 0.488281)" d="M691.701 692.868C692.437 694.438 694.553 699.988 695.79 700.798C696.41 702.302 697.496 704.148 697.398 705.774L684.878 755.966L684.472 756.013C681.279 754.77 677.725 754.144 674.392 753.336L674.322 753.117L691.701 692.868Z"/>
	<path fill="#BE9C75" transform="scale(0.488281 0.488281)" d="M672.935 364.757C674.2 365.156 676.599 366.615 677.659 367.426L678.233 368.058L678.433 368.194C678.592 368.655 678.627 369.18 678.91 369.577C680.362 371.614 684.063 373.896 686.11 375.587C693.956 382.068 701.659 388.78 709.956 394.684L712.202 396.431L738.661 417.836C741.833 420.286 745.126 423.335 748.86 424.864C747.418 426.958 745.153 428.942 743.39 430.789L731.77 442.535L662.005 505.271C644.938 519.675 627.726 534.479 609.499 547.389L610.068 409.478L610.074 402.507L672.935 364.757Z"/>
	<path fill="#785141" transform="scale(0.488281 0.488281)" d="M672.935 364.757C674.2 365.156 676.599 366.615 677.659 367.426L678.233 368.058C676.13 369.891 673.619 371.074 671.25 372.524L660.474 379.25L610.068 409.478L610.074 402.507L672.935 364.757Z"/>
	<path fill="#A5D0D7" transform="scale(0.488281 0.488281)" d="M509.987 303.019C517.13 303.514 523.653 304.439 530.358 307.113C541.192 311.434 551.421 320.188 558.981 328.961C564.478 335.34 569.361 342.283 573.481 349.623C586.078 375.344 592.864 403.94 594.474 432.5C596.244 463.896 592.156 496.123 587.854 527.16L573.736 611.281C562.815 608.712 551.09 607.238 539.948 606.056C530.419 605.044 521.06 604.079 511.461 604.041L511.173 603.948C511.987 600.573 511.136 595.578 510.947 592.047L510.582 591.882L510.399 455.971L510.089 455.908C510.865 454.453 510.571 452.602 510.567 450.989L510.512 437.988L510.553 434.591C510.675 429.036 511.164 422.467 510.132 417.034L510.375 416.963L510.539 318.535C511.071 314.509 511.445 306.712 509.987 303.019Z"/>
	<path fill="#1FA2C9" transform="scale(0.488281 0.488281)" d="M510.553 434.591C529.588 434.247 549.674 436.19 568.25 440.313C573.21 441.414 578.557 442.369 583.283 444.216L583.422 445.75L582.5 446.845C574.207 446.024 565.621 443.446 557.359 441.969C542.138 439.249 525.973 437.852 510.512 437.988L510.553 434.591Z"/>
	<path fill="#0E6592" transform="scale(0.488281 0.488281)" d="M510.539 318.535C527.436 319.771 540.779 328.048 551.753 340.781C571.773 364.007 578.859 397.282 582.191 426.927C559.507 419.251 534.117 417.921 510.375 416.963L510.539 318.535Z"/>
	<path fill="#0E6592" transform="scale(0.488281 0.488281)" d="M510.399 455.971C534.677 454.865 558.44 458.796 582.019 464.187L565.046 598.004L510.947 592.047L510.582 591.882L510.399 455.971Z"/>
	<path fill="#1B2655" transform="scale(0.488281 0.488281)" d="M888.539 234.777C902.993 231.7 915.293 226.885 928.982 235.651C932.444 237.868 935.821 240.989 937.992 244.5C944.931 255.719 944.457 265.552 943.147 278.197C942.23 287.055 940.629 295.872 938.67 304.557C932.454 332.113 922.202 357.86 909.645 383.105C898.322 405.868 885.267 428.003 870.25 448.538C850.464 475.596 828.169 501.048 804.938 525.199L787.043 542.332C785.295 544.011 782.087 546.461 781.457 548.831L755.676 570.071C758.296 573.41 760.724 577.167 762.081 581.211C768.456 594.976 771.73 610.787 771.496 625.942C771.429 630.329 770.717 634.641 770.604 639.01L771.071 640.561L775.619 643.393C779.024 645.801 783.547 648.559 786.228 651.763L793.178 663.041L797.035 667.139C798.207 670.591 799.745 674.368 800.331 677.957C801.439 684.746 799.986 692.721 797.861 699.146C797.039 701.716 795.653 704.499 795.068 707.09C789.398 717.026 781.437 722.485 770.5 725.544L764.882 727.048C751.931 730.307 737.486 728.679 724.826 724.869C714.386 721.397 704.182 714.397 697.398 705.774C697.496 704.148 696.41 702.302 695.79 700.798C694.553 699.988 692.437 694.438 691.701 692.868L688.82 680.956L685.95 680.5L685.956 680.397C682.394 678.102 678.405 676.306 674.646 674.336L654.62 663.847L605.508 639.187L605.964 632.66L608.833 582.156L609.25 576.446L610.427 576.213C620.668 571.21 630.307 565.282 639.98 559.276C667.358 542.275 692.807 522.497 717.354 501.662C746.011 477.338 772.033 450.113 796.046 421.234C811.602 402.524 826.929 382.653 839.905 362.045C846.903 350.931 852.938 339.158 858.974 327.5C873.341 299.756 885.629 269.711 888.221 238.328L888.539 234.777Z"/>
	<path fill="#F7E0B5" transform="scale(0.488281 0.488281)" d="M608.833 582.156L609.25 576.446L610.427 576.213C623.532 581.461 636.24 588.952 648.769 595.51L716.795 631.836C717.177 633.289 717.531 634.527 717.41 636.051C715.959 636.342 714.536 636.535 713.183 637.15C702.027 632.646 691.399 625.549 680.798 619.812L628.866 592.641L614.321 585.13C612.605 584.272 610.009 583.675 608.833 582.156Z"/>
	<path fill="#BE9C75" transform="scale(0.488281 0.488281)" d="M608.833 582.156C610.009 583.675 612.605 584.272 614.321 585.13L628.866 592.641L680.798 619.812C691.399 625.549 702.027 632.646 713.183 637.15L712.831 637.438C710.051 639.662 706.858 641.266 704.052 643.434C695.316 650.186 690.731 658.531 689.418 669.46L689.185 676.135L688.86 678.883C688.753 679.628 688.752 680.213 688.82 680.956L685.95 680.5L685.956 680.397C682.394 678.102 678.405 676.306 674.646 674.336L654.62 663.847L605.508 639.187L605.964 632.66L608.833 582.156Z"/>
	<path fill="#8F644B" transform="scale(0.488281 0.488281)" d="M605.964 632.66C615.223 636.438 624.33 641.986 633.284 646.52C651.973 655.983 671.367 665.151 689.185 676.135L688.86 678.883C688.753 679.628 688.752 680.213 688.82 680.956L685.95 680.5L685.956 680.397C682.394 678.102 678.405 676.306 674.646 674.336L654.62 663.847L605.508 639.187L605.964 632.66Z"/>
	<path fill="#F5A013" transform="scale(0.488281 0.488281)" d="M743.598 562.279C748.658 562.761 751.982 564.983 755.01 569L755.676 570.071C758.296 573.41 760.724 577.167 762.081 581.211C768.456 594.976 771.73 610.787 771.496 625.942C771.429 630.329 770.717 634.641 770.604 639.01L771.071 640.561L775.619 643.393C779.024 645.801 783.547 648.559 786.228 651.763L793.178 663.041L797.035 667.139C798.207 670.591 799.745 674.368 800.331 677.957C801.439 684.746 799.986 692.721 797.861 699.146C797.039 701.716 795.653 704.499 795.068 707.09C789.398 717.026 781.437 722.485 770.5 725.544L764.882 727.048C751.931 730.307 737.486 728.679 724.826 724.869C714.386 721.397 704.182 714.397 697.398 705.774C697.496 704.148 696.41 702.302 695.79 700.798C694.553 699.988 692.437 694.438 691.701 692.868L688.82 680.956C688.752 680.213 688.753 679.628 688.86 678.883L689.185 676.135L689.418 669.46C690.731 658.531 695.316 650.186 704.052 643.434C706.858 641.266 710.051 639.662 712.831 637.438L713.183 637.15C714.536 636.535 715.959 636.342 717.41 636.051C717.531 634.527 717.177 633.289 716.795 631.836C716.282 627.556 716.679 623.033 716.97 618.75C717.836 606.03 720.545 592.658 726.047 581.079C729.901 572.967 734.768 565.387 743.598 562.279Z"/>
	<path fill="#B66215" transform="scale(0.488281 0.488281)" d="M793.178 663.041L797.035 667.139C798.207 670.591 799.745 674.368 800.331 677.957C801.439 684.746 799.986 692.721 797.861 699.146C797.039 701.716 795.653 704.499 795.068 707.09C789.398 717.026 781.437 722.485 770.5 725.544L764.882 727.048C751.931 730.307 737.486 728.679 724.826 724.869C725.582 722.491 725.497 720.232 725.498 717.768C737.731 721.203 751.572 722.102 763.987 719.134C774.461 716.63 783.407 711.726 789.063 702.297C796.708 689.553 796.732 676.979 793.178 663.041Z"/>
	<path fill="#B73A04" transform="scale(0.488281 0.488281)" d="M769.282 647.278C776.827 651.584 781.846 658.463 784.138 666.808L785.076 672C785.75 677.304 785.497 682.184 784.512 687.427C783.33 693.718 779.589 699.569 774.199 703.088C762.607 710.658 745.341 711.606 732.172 708.461C722.935 706.256 712.69 701.368 707.613 692.965C706.938 691.846 706.441 690.72 705.985 689.5L705.734 688.841C702.785 680.43 704.783 666.73 708.777 658.833C710.916 654.604 713.662 650.876 718.087 648.866L719.185 648.347L719.561 651.101C718.599 652.14 715.277 655.858 715.182 657.306L714.744 657.943C710.481 664.5 710.376 676.726 711.907 684.045C713.061 689.566 716.58 694.389 721.343 697.338C731.519 703.642 746.11 705.117 757.572 702.271L758.5 702.032C762.102 701.124 765.543 699.878 768.699 697.874C772.813 695.262 775.9 691.774 776.945 686.943C778.952 677.664 778.517 665.167 773.175 657.035C771.644 654.945 769.333 653.114 768.627 650.579L769.282 647.278Z"/>
	<path fill="#1B2655" transform="scale(0.488281 0.488281)" d="M744.019 680.504C747.782 680.318 751.53 679.366 754.678 677.241C763.273 671.44 766.778 660.225 768.627 650.579C769.333 653.114 771.644 654.945 773.175 657.035C778.517 665.167 778.952 677.664 776.945 686.943C775.9 691.774 772.813 695.262 768.699 697.874C765.543 699.878 762.102 701.124 758.5 702.032L757.572 702.271C746.11 705.117 731.519 703.642 721.343 697.338C716.58 694.389 713.061 689.566 711.907 684.045C710.376 676.726 710.481 664.5 714.744 657.943L715.182 657.306C715.277 655.858 718.599 652.14 719.561 651.101C722.081 660.702 725.348 672.111 734.474 677.535C737.219 679.168 740.786 680.654 744.019 680.504Z"/>
	<path fill="#33346F" transform="scale(0.488281 0.488281)" d="M715.182 657.306C715.277 655.858 718.599 652.14 719.561 651.101C722.081 660.702 725.348 672.111 734.474 677.535C737.219 679.168 740.786 680.654 744.019 680.504C744.056 685.702 744.764 692.187 743.848 697.231L743.167 697.771C736.531 696.918 730.016 696.02 724.1 692.666C714.459 687.201 713.825 674.477 714.902 664.706C715.118 662.751 716.164 659.964 715.512 658.105L715.182 657.306Z"/>
	<path fill="#0E6592" transform="scale(0.488281 0.488281)" d="M743.598 562.279C748.658 562.761 751.982 564.983 755.01 569L755.676 570.071C758.296 573.41 760.724 577.167 762.081 581.211C768.456 594.976 771.73 610.787 771.496 625.942C771.429 630.329 770.717 634.641 770.604 639.01L771.071 640.561C769.879 642.649 769.669 644.939 769.282 647.278L768.627 650.579C766.778 660.225 763.273 671.44 754.678 677.241C751.53 679.366 747.782 680.318 744.019 680.504C740.786 680.654 737.219 679.168 734.474 677.535C725.348 672.111 722.081 660.702 719.561 651.101L719.185 648.347L717.41 636.051C717.531 634.527 717.177 633.289 716.795 631.836C716.282 627.556 716.679 623.033 716.97 618.75C717.836 606.03 720.545 592.658 726.047 581.079C729.901 572.967 734.768 565.387 743.598 562.279Z"/>
	<path fill="#1FA2C9" transform="scale(0.488281 0.488281)" d="M716.795 631.836C716.282 627.556 716.679 623.033 716.97 618.75C717.836 606.03 720.545 592.658 726.047 581.079C729.901 572.967 734.768 565.387 743.598 562.279L744.019 680.504C740.786 680.654 737.219 679.168 734.474 677.535C725.348 672.111 722.081 660.702 719.561 651.101L719.185 648.347L717.41 636.051C717.531 634.527 717.177 633.289 716.795 631.836Z"/>
</svg>
