<?xml version="1.0" encoding="utf-8" ?>
<svg xmlns="http://www.w3.org/2000/svg" xmlns:xlink="http://www.w3.org/1999/xlink" width="500" height="500">
	<path fill="#E9E7B2" transform="scale(0.488281 0.488281)" d="M-0 -0L1024 0L1024 1024L-0 1024L0 -0Z"/>
	<path fill="#590254" transform="scale(0.488281 0.488281)" d="M504.486 267.917L504.873 267.958L516.333 305.887C513.802 307.634 510.677 309.045 507.777 310.054L498.052 271.019C500.381 270.404 502.626 269.456 504.486 267.917Z"/>
	<path fill="#0B1850" transform="scale(0.488281 0.488281)" d="M453.669 618.299C466.792 633.761 477.202 650.644 485.582 669.107C486.089 672.305 486.382 675.628 486.454 678.864C486.469 679.575 486.659 681.119 486.428 681.75C486.225 682.304 485.627 682.976 485.321 683.524C476.058 661.314 463.687 640.09 448.726 621.231L450.169 620.322L453.669 618.299Z"/>
	<path fill="#0B1850" transform="scale(0.488281 0.488281)" d="M346.389 700.087C351.478 698.185 356.239 695.679 361.47 694.083C379.759 688.504 399.798 692.313 417.975 696.285C421.617 697.989 426.618 706.608 428.307 710.334C410.387 703.784 391.591 699.011 372.331 700.773C365.243 701.421 358.862 703.05 352.053 705.003L349.699 705.654L349.031 704.508C347.835 702.954 347.156 701.948 346.389 700.087Z"/>
	<path fill="#590254" transform="scale(0.488281 0.488281)" d="M298.517 557.81C316.543 574.102 333.291 593.102 345.963 613.873C348.666 618.304 351.721 622.816 353.002 627.892C350.861 629.493 348.035 629.046 345.532 630.427C328.554 622.873 309.45 619.522 290.935 620.082L290.63 619.987C290.424 618.428 289.785 617.08 289.179 615.646C292.468 615.009 296.438 615.258 299.812 615.326C316.373 615.657 331.393 619.414 346.915 624.901C340.362 613.656 332.924 602.429 324.819 592.25C315.94 581.1 305.879 570.79 295.858 560.67C296.617 559.624 297.611 558.732 298.517 557.81Z"/>
	<defs>
		<linearGradient id="gradient_0" gradientUnits="userSpaceOnUse" x1="660.64209" y1="675.66473" x2="733.49457" y2="637.29004">
			<stop offset="0" stop-color="#06004C"/>
			<stop offset="1" stop-color="#052152"/>
		</linearGradient>
	</defs>
	<path fill="url(#gradient_0)" transform="scale(0.488281 0.488281)" d="M641.069 602.187C657.856 601.795 672.978 605.226 688.357 611.978C693.171 614.092 698.356 616.4 702.569 619.588L717.75 632.167C720.343 634.472 723.223 638.141 726.074 639.935L735.274 650.206L745.368 663.28C745.914 663.995 747.671 666.855 748.359 667.201C749.479 667.763 751.544 667.997 752.808 668.328L760.998 670.831C772.629 674.766 785.049 681.868 794.297 689.936L794.583 690.295C798.327 694.852 803.505 698.074 807.127 702.75C805.57 702.364 803.632 699.858 802.39 698.737C800.375 696.917 798.106 695.24 795.648 694.073C781.976 682.63 766.616 673.729 749.468 668.812L769.894 704.605C769.141 706.132 768.51 707.727 767.269 708.925L741.932 666.753L741.012 665L721.853 642.318C719.203 639.09 715.614 636.281 712.372 633.662C707.423 629.665 702.537 625.878 696.95 622.802C680.303 614.007 662.942 608.464 643.983 608.455C640.388 608.453 636.621 608.236 633.077 608.903C629.841 609.528 626.24 609.906 623.089 608.771L628.47 603.808L641.069 602.187Z"/>
	<path fill="#034C5E" transform="scale(0.488281 0.488281)" d="M282.878 512.8L283.44 484.574C283.459 481.946 282.789 476.471 283.687 474.25C283.87 473.799 284.3 473.493 284.607 473.115C299.746 486.447 309.961 503.901 311.184 524.258C311.943 536.899 307.364 548.253 298.826 557.426L298.725 557.502C298.498 556.547 297.992 556.126 297.367 555.393L279.092 536.343C281.12 528.371 282.981 521.991 283.055 513.644L282.878 512.8Z"/>
	<path fill="#016A60" transform="scale(0.488281 0.488281)" d="M283.055 513.644C285.216 515.696 286.636 518.16 288.207 520.664C294.105 530.065 297.492 541.036 297.839 552.155C297.875 553.324 297.652 554.269 297.367 555.393L279.092 536.343C281.12 528.371 282.981 521.991 283.055 513.644Z"/>
	<path fill="#058A54" transform="scale(0.488281 0.488281)" d="M393.446 285.261C398.149 289.545 402.794 294.05 406.679 299.105C417.615 313.338 423.041 330.659 423.844 348.461C424.855 370.863 417.92 389.796 405.37 408.015L404.351 408.633C402.675 407.071 401.193 405.49 399.759 403.703C402.179 383.787 404.464 364.281 404.5 344.172C404.521 332.374 403.959 320.461 401.251 308.933C399.311 300.669 395.827 293.305 393.446 285.261Z"/>
	<path fill="#AA1F61" transform="scale(0.488281 0.488281)" d="M623.089 608.771C626.24 609.906 629.841 609.528 633.077 608.903C620.438 621.905 608.642 635.501 597.725 649.996L581.08 673.651L578.213 678.824C573.804 685.006 570.141 692.142 566.591 698.853C554.096 722.467 545.143 747.021 537.744 772.623C531.298 794.927 526.103 817.307 523.842 840.447L523.25 841.89L516.894 842.046L520.352 814.072C522.164 803.044 524.865 792.318 527.623 781.5C533.874 756.981 541.639 733.772 552.965 711.086L566.452 686.5L576.76 668.099C577.802 666.12 579.488 663.766 579.889 661.567C578.777 661.953 577.712 662.125 576.557 662.325C579.534 658.014 583.087 653.961 586.328 649.837C597.829 635.205 609.896 621.892 623.089 608.771Z"/>
	<path fill="#023050" transform="scale(0.488281 0.488281)" d="M626.486 477.642C618.745 472.181 612.646 464.904 608.596 456.327C601.774 441.88 601.692 426.185 607.177 411.321C614.094 392.574 629.785 378.736 645.688 367.448C655.138 360.74 665.458 354.47 676.005 349.649C675.92 350.197 675.98 350.788 675.75 351.293C675.073 352.779 670.461 355.505 668.962 356.803C660.487 364.145 651.538 371.807 644.206 380.312C630.018 396.772 620.837 421.358 624.441 443.12C625.657 450.465 628.977 458.562 632.355 465.185C630.886 469.32 629.182 474.161 626.486 477.642Z"/>
	<path fill="#AA1F61" transform="scale(0.488281 0.488281)" d="M353.002 627.892C373.099 637.59 389.72 651.853 405.353 667.504C408.219 670.373 412.543 673.993 414.625 677.452C421.759 684.333 427.727 692.146 433.66 700.052C444.029 713.868 453.697 728.518 461.792 743.781C469.97 759.203 476.809 775.834 482.768 792.231C483.862 795.244 492.559 824.01 492.822 824.233C492.982 824.369 493.222 824.362 493.421 824.427L493.385 842.046L488.632 842.065L481.48 842.024C472.117 795.932 455.615 749.053 428.307 710.334C426.618 706.608 421.617 697.989 417.975 696.285L417.755 695.334C417.408 694.426 416.216 693.296 415.584 692.5L408.526 683.823C390.539 662.9 370.584 642.805 345.532 630.427C348.035 629.046 350.861 629.493 353.002 627.892Z"/>
	<path fill="#C83C6E" transform="scale(0.488281 0.488281)" d="M414.625 677.452C421.759 684.333 427.727 692.146 433.66 700.052C444.029 713.868 453.697 728.518 461.792 743.781C469.97 759.203 476.809 775.834 482.768 792.231C483.862 795.244 492.559 824.01 492.822 824.233C492.982 824.369 493.222 824.362 493.421 824.427L493.385 842.046L488.632 842.065C488.251 836.792 486.594 831.48 485.225 826.399L479.928 807.826L472.215 782.271C468.77 772.44 464.459 763.4 460.042 754C454.464 742.13 448.876 730.387 442.048 719.167L433.103 705.427C430.858 701.835 428.913 697.993 426.517 694.5C423.192 689.654 418.917 685.369 415.701 680.455C415.101 679.538 414.817 678.518 414.625 677.452Z"/>
	<path fill="#F48C4B" transform="scale(0.488281 0.488281)" d="M516.894 842.046L523.25 841.89L523.842 840.447L524.102 841.882C528.361 843.131 535.533 842.188 540.081 842.178L580.541 842.052L580.57 867.432L570.474 867.387L570.404 897.667C569.279 887.915 570.088 877.299 570.063 867.448L539.967 867.39L443.013 867.492L433.683 867.504L433.929 842.029L481.48 842.024L488.632 842.065L493.385 842.046L500.914 842.091L511.506 842.07L516.894 842.046Z"/>
	<path fill="#0EAA6A" transform="scale(0.488281 0.488281)" d="M122.625 729.742L117.811 731.239C120.93 717.003 126.065 703.82 132.271 690.68C146.948 659.608 167.03 633.348 193.833 611.889C209.288 599.515 228.456 591.162 248.522 593.548C259.211 594.819 270.92 598.572 279.25 605.608C282.656 608.485 285.417 612.138 288.18 615.616L280.171 616.928L255.538 623.678L253.41 624.417C250.631 625.675 247.715 626.428 244.887 627.541L226.608 635.699L209.406 644.526C207.413 645.592 205.37 647.261 203.25 647.995C199.714 649.219 194.898 648.298 191.068 649.153L191.767 650.697L192.22 650.476C193.64 649.978 196.104 650.208 197.561 650.597L198.015 651.057C190.589 651.684 184.158 652.703 176.969 654.675C169.629 656.447 160.267 658.18 154.146 662.818C153.533 665.547 149.781 669.729 148.218 672.344L138.127 691.007C133.435 699.309 127.67 707.661 124.923 716.886C124.305 718.962 124.279 721.378 124.687 723.499C124.098 724.487 123.701 725.369 123.281 726.431L122.913 727.295C122.559 728.222 122.558 728.776 122.625 729.742Z"/>
	<path fill="#56EAAE" transform="scale(0.488281 0.488281)" d="M208.301 615.564C210.296 613.942 213.074 613.109 215.46 612.204C227.067 607.803 240.156 606.022 252.528 607.342C259.587 608.094 266.763 609.784 273.445 612.187C275.411 612.894 277.52 613.488 278.928 615.124C279.409 615.682 279.799 616.296 280.171 616.928L255.538 623.678L253.41 624.417C239.912 618.759 224.478 616.804 209.934 617.086C205.234 617.588 200.055 617.881 195.596 619.541L195.498 618.786C198.507 616.416 204.795 617.364 208.301 615.564Z"/>
	<path fill="#023050" transform="scale(0.488281 0.488281)" d="M208.301 615.564C220.624 615.009 232.353 615.896 244.25 619.326C248.096 620.435 252.117 621.552 255.538 623.678L253.41 624.417C239.912 618.759 224.478 616.804 209.934 617.086C205.234 617.588 200.055 617.881 195.596 619.541L195.498 618.786C198.507 616.416 204.795 617.364 208.301 615.564Z"/>
	<path fill="#15C481" transform="scale(0.488281 0.488281)" d="M195.596 619.541C200.055 617.881 205.234 617.588 209.934 617.086C204 628.384 197.972 638.884 190.111 648.979L191.068 649.153L191.767 650.697L192.22 650.476C193.64 649.978 196.104 650.208 197.561 650.597L198.015 651.057C190.589 651.684 184.158 652.703 176.969 654.675C169.629 656.447 160.267 658.18 154.146 662.818C155.307 660.421 156.925 659.614 159.113 658.309C159.406 656.006 163.442 652.518 165.011 650.631C171.365 642.996 177.259 635.479 184.633 628.754L191.5 623.04C192.914 621.954 194.605 621.045 195.596 619.541Z"/>
	<path fill="#023050" transform="scale(0.488281 0.488281)" d="M190.111 648.979L191.068 649.153L191.767 650.697L192.22 650.476C193.64 649.978 196.104 650.208 197.561 650.597L198.015 651.057C190.589 651.684 184.158 652.703 176.969 654.675C169.629 656.447 160.267 658.18 154.146 662.818C155.307 660.421 156.925 659.614 159.113 658.309C165.642 655.394 172.089 653.085 179.06 651.429C182.682 650.568 186.631 650.249 190.111 648.979Z"/>
	<path fill="#56EAAE" transform="scale(0.488281 0.488281)" d="M209.934 617.086C224.478 616.804 239.912 618.759 253.41 624.417C250.631 625.675 247.715 626.428 244.887 627.541L226.608 635.699L209.406 644.526C207.413 645.592 205.37 647.261 203.25 647.995C199.714 649.219 194.898 648.298 191.068 649.153L190.111 648.979C197.972 638.884 204 628.384 209.934 617.086Z"/>
	<path fill="#E45C25" transform="scale(0.488281 0.488281)" d="M443.013 867.492L539.967 867.39C528.159 883.104 516.254 898.341 502.154 912.088C496.525 917.576 490.363 923.376 483.71 927.613C479.644 930.202 475.463 932.412 471.01 934.26C469.006 935.092 466.779 935.569 464.899 936.662C455.968 931.459 449.935 925.109 445.318 915.856C442.707 908.232 443.053 900.305 443.028 892.369L443.013 867.492Z"/>
	<defs>
		<linearGradient id="gradient_1" gradientUnits="userSpaceOnUse" x1="493.85184" y1="379.18643" x2="441.37558" y2="359.05765">
			<stop offset="0" stop-color="#059553"/>
			<stop offset="1" stop-color="#066E5A"/>
		</linearGradient>
	</defs>
	<path fill="url(#gradient_1)" transform="scale(0.488281 0.488281)" d="M516.333 305.887L524.244 302.082L525.015 302.996C523.869 304.168 523.104 305.661 522.085 306.957C518.287 311.783 514.957 316.88 511.581 322L486.602 362.045L473.039 389.031C465.989 403.841 458.749 419.831 455.559 435.98C454.983 438.898 454.121 442.1 454.279 445.087L454.743 447.706L454.699 447.871C454.022 449.261 453.59 450.682 453.464 452.223C447.623 445.713 441.915 439.435 437.676 431.696C430.073 417.814 425.661 401.94 430.391 386.316C434.206 373.714 442.575 361.888 451.389 352.288C467.873 334.335 486.311 321.335 507.777 310.054C510.677 309.045 513.802 307.634 516.333 305.887Z"/>
	<path fill="#590254" transform="scale(0.488281 0.488281)" d="M626.48 477.835C627.681 478.961 628.537 479.792 629.196 481.315C615.976 498.552 604.868 517.826 594.737 537.001C584.402 556.562 574.719 577.04 566.994 597.788C554.686 630.842 546.374 665.449 539.477 700L531.75 743.912C535.119 737.263 537.246 729.799 540.344 722.975C550.023 701.659 561.895 680.654 576.557 662.325C577.712 662.125 578.777 661.953 579.889 661.567C579.488 663.766 577.802 666.12 576.76 668.099L566.452 686.5L552.965 711.086C541.639 733.772 533.874 756.981 527.623 781.5C524.865 792.318 522.164 803.044 520.352 814.072L516.894 842.046L511.506 842.07L514.297 738.971C514.726 734.413 516.008 729.719 516.915 725.22L525.713 688.013C546.131 612.303 577.905 539.872 626.48 477.835Z"/>
	<path fill="#15C481" transform="scale(0.488281 0.488281)" d="M454.699 447.871L454.743 447.706L454.279 445.087C454.121 442.1 454.983 438.898 455.559 435.98C458.749 419.831 465.989 403.841 473.039 389.031L486.602 362.045L511.581 322C514.957 316.88 518.287 311.783 522.085 306.957C523.104 305.661 523.869 304.168 525.015 302.996C526.306 308.264 526.606 313.89 527.457 319.261C530.301 337.23 533.487 355.941 533.972 374.135C534.095 378.733 533.979 383.356 533.569 387.937C533.326 390.647 532.192 394.241 532.572 396.861L530.539 402.33L525.474 413.094C520.37 419.673 514.976 426.088 508.501 431.38C499.428 438.796 487.362 444.405 476.237 447.929L466.232 450.667C464.235 451.135 461.874 451.391 460.107 452.462L459.877 451.937C457.628 450.943 456.336 449.623 454.699 447.871Z"/>
	<defs>
		<linearGradient id="gradient_2" gradientUnits="userSpaceOnUse" x1="707.80115" y1="335.41006" x2="725.20984" y2="448.67361">
			<stop offset="0" stop-color="#00806E"/>
			<stop offset="1" stop-color="#006C73"/>
		</linearGradient>
	</defs>
	<path fill="url(#gradient_2)" transform="scale(0.488281 0.488281)" d="M676.005 349.649L676.03 349.56C695.371 339.536 716.904 333.629 738.325 330.188C750.497 328.233 762.641 326.953 774.985 327.169C786.63 327.372 798.004 328.827 809.476 330.729C808.294 331.377 807.43 331.712 806.117 331.982C801.086 333.017 796.021 335.024 791.128 336.606C781.199 339.814 771.279 343.093 761.643 347.111C755.881 349.514 749.542 353.226 743.539 354.787C741.646 353.642 739.668 353.862 737.52 353.881C731.62 353.931 725.573 354.568 719.761 355.561L727.106 340.264C722.635 345.491 719.672 351.316 715.748 356.899C715.622 357.079 715.552 357.348 715.344 357.42C711.95 363.381 708.756 369.74 707.25 376.474C690.443 390.345 675.008 405.181 661.684 422.485L660.459 424.125L638.813 454.818C636.55 458.125 634.093 461.571 632.355 465.185C628.977 458.562 625.657 450.465 624.441 443.12C620.837 421.358 630.018 396.772 644.206 380.312C651.538 371.807 660.487 364.145 668.962 356.803C670.461 355.505 675.073 352.779 675.75 351.293C675.98 350.788 675.92 350.197 676.005 349.649Z"/>
	<path fill="#023050" transform="scale(0.488281 0.488281)" d="M661.15 392.943C661.825 392.215 663.193 376.703 664.153 373.75C664.387 374.583 664.408 374.316 664.31 375.069L663.236 389.312L661.684 422.485L660.459 424.125C659.881 420.348 660.1 416.441 660.157 412.63L661.15 392.943Z"/>
	<path fill="#15C481" transform="scale(0.488281 0.488281)" d="M638.813 454.818C637.602 452.894 636.562 451.055 635.685 448.946L635.34 448.102L633.714 443.499C631.371 434.756 635.161 426.354 639.469 418.884C643.973 411.073 649.712 403.64 656.009 397.195C657.442 395.729 659.166 393.468 661.15 392.943L660.157 412.63C660.1 416.441 659.881 420.348 660.459 424.125L638.813 454.818Z"/>
	<path fill="#15C481" transform="scale(0.488281 0.488281)" d="M663.236 389.312C674.601 378.96 685.973 370.112 699.541 362.75C702.88 360.938 711.621 356.297 715.344 357.42C711.95 363.381 708.756 369.74 707.25 376.474C690.443 390.345 675.008 405.181 661.684 422.485L663.236 389.312Z"/>
	<path fill="#016A60" transform="scale(0.488281 0.488281)" d="M316.112 66.7708C314.689 65.2515 313.499 63.6859 312.32 61.9719C320.057 62.3515 327.796 62.6835 335.471 63.7998C354.995 66.6398 373.937 72.0593 392.491 78.6338C433.42 93.1366 474.058 114.758 503.578 147.246C520.452 165.818 533.937 189.29 532.794 215.161C531.898 235.419 522.453 251.579 507.734 264.926C506.657 265.903 505.534 266.637 504.873 267.958L504.486 267.917C502.322 264.584 500.891 260.719 499.361 257.062L493.251 242.919L476.496 210.25L465.946 192.759C464.554 190.407 462.301 187.31 461.826 184.598C461.063 180.249 461.626 175.135 461.465 170.685C461.099 160.583 460.207 150.492 458.247 140.571L457.573 139.666L457.26 140.857L457.225 140.847L456.937 139C455.026 136.307 451.49 134.194 448.876 132.173L417.497 110.293C414.027 108.052 410.513 105.127 406.679 103.633C405.595 103.093 403.284 98.8826 402.261 97.6482C400.751 95.8257 398.887 94.2889 397.093 92.754C398.573 95.2912 400.038 97.8142 401.045 100.583L401.212 101.052C391.24 95.6138 379.17 92.0897 368.25 89.0328L367.519 89.75L369.796 92.8476C364.556 90.9019 359.455 87.4815 354.583 84.6709L331.166 72.5704C326.477 70.404 321.146 67.8654 316.112 66.7708Z"/>
	<path fill="#0EAA6A" transform="scale(0.488281 0.488281)" d="M458.247 140.571L459.114 140.336C474.187 152.027 487.106 167.133 494.885 184.561L494.822 183.996L493.865 155.777C500.756 175.75 501.699 197.718 499.06 218.527C498.004 226.846 496.563 235.168 493.251 242.919L476.496 210.25L465.946 192.759C464.554 190.407 462.301 187.31 461.826 184.598C461.063 180.249 461.626 175.135 461.465 170.685C461.099 160.583 460.207 150.492 458.247 140.571Z"/>
	<path fill="#058A54" transform="scale(0.488281 0.488281)" d="M696.95 622.802C702.537 625.878 707.423 629.665 712.372 633.662C715.614 636.281 719.203 639.09 721.853 642.318L741.012 665L741.932 666.753L767.269 708.925L768.002 710.977L768.394 711.1C768.549 712.373 768.483 712.646 769.318 713.591C764.269 722.747 762.186 734.088 760.357 744.297C759.778 747.526 758.764 751.548 759.021 754.801C778.991 776.616 793.263 803.082 806.545 829.289L808.29 835.052C798.536 824.499 790.483 812.597 779.838 802.739L737.286 765.662C726.514 756.601 715.34 748.122 705.414 738.086C699.735 732.343 694.661 725.833 689.831 719.36C677.255 702.504 662.952 683.5 666.332 661.286C668.986 643.845 683.614 632.516 696.95 622.802Z"/>
	<path fill="#023050" transform="scale(0.488281 0.488281)" d="M699.967 671.822C695.445 681.605 694.932 692.533 693.611 703.051C691.209 691.884 693.57 681.114 697.667 670.621C701.847 659.912 708.523 648.215 719.492 643.336C710.433 651.453 704.299 660.41 699.967 671.822Z"/>
	<path fill="#023050" transform="scale(0.488281 0.488281)" d="M741.012 665L741.932 666.753C732.538 679.294 727.476 693.113 724.133 708.307L722.159 722.412C721.672 726.843 721.633 731.709 720.272 735.963C719.438 725.602 720.344 715.552 721.761 705.296C724.748 692.519 728.713 675.915 739.35 667.106C740.167 666.429 740.566 666.009 741.012 665Z"/>
	<path fill="#0EAA6A" transform="scale(0.488281 0.488281)" d="M721.853 642.318L741.012 665C740.566 666.009 740.167 666.429 739.35 667.106C728.713 675.915 724.748 692.519 721.761 705.296C713.381 695.087 707.874 682.354 699.967 671.822C704.299 660.41 710.433 651.453 719.492 643.336C719.971 643.432 721.35 642.562 721.853 642.318Z"/>
	<path fill="#0EAA6A" transform="scale(0.488281 0.488281)" d="M741.932 666.753L767.269 708.925L768.002 710.977L768.394 711.1C768.549 712.373 768.483 712.646 769.318 713.591C764.269 722.747 762.186 734.088 760.357 744.297C759.778 747.526 758.764 751.548 759.021 754.801C758.486 759.896 758.258 764.898 756.662 769.795C755.261 764.284 755.874 757.523 756.469 751.886C753.608 749 751.096 745.33 748.616 742.106C740.149 731.101 732.889 719.045 724.133 708.307C727.476 693.113 732.538 679.294 741.932 666.753Z"/>
	<defs>
		<linearGradient id="gradient_3" gradientUnits="userSpaceOnUse" x1="764.80121" y1="740.64954" x2="757.70618" y2="738.37115">
			<stop offset="0" stop-color="#00213E"/>
			<stop offset="1" stop-color="#083449"/>
		</linearGradient>
	</defs>
	<path fill="url(#gradient_3)" transform="scale(0.488281 0.488281)" d="M768.002 710.977L768.394 711.1C768.549 712.373 768.483 712.646 769.318 713.591C764.269 722.747 762.186 734.088 760.357 744.297C759.778 747.526 758.764 751.548 759.021 754.801C758.486 759.896 758.258 764.898 756.662 769.795C755.261 764.284 755.874 757.523 756.469 751.886C758.018 737.862 760.06 723.03 768.002 710.977Z"/>
	<path fill="#058A54" transform="scale(0.488281 0.488281)" d="M288.18 615.616L289.179 615.646C289.785 617.08 290.424 618.428 290.63 619.987L290.935 620.082C294.688 626.855 297.369 633.191 298.817 640.814C300.991 651.785 298.893 663.071 292.715 672.45C288.172 679.347 280.563 684.927 273.331 688.709C262.288 694.484 249.467 698.072 237.527 701.512L170.522 717.725C154.482 721.273 138.239 724.572 122.625 729.742C122.558 728.776 122.559 728.222 122.913 727.295L123.281 726.431C123.701 725.369 124.098 724.487 124.687 723.499C124.279 721.378 124.305 718.962 124.923 716.886C127.67 707.661 133.435 699.309 138.127 691.007L148.218 672.344C149.781 669.729 153.533 665.547 154.146 662.818C160.267 658.18 169.629 656.447 176.969 654.675C184.158 652.703 190.589 651.684 198.015 651.057L197.561 650.597C196.104 650.208 193.64 649.978 192.22 650.476L191.767 650.697L191.068 649.153C194.898 648.298 199.714 649.219 203.25 647.995C205.37 647.261 207.413 645.592 209.406 644.526L226.608 635.699L244.887 627.541C247.715 626.428 250.631 625.675 253.41 624.417L255.538 623.678L280.171 616.928L288.18 615.616Z"/>
	<path fill="#0B1850" transform="scale(0.488281 0.488281)" d="M208.088 650.47C208.755 649.972 209.366 649.752 210.135 649.447C214.536 659.115 215.272 668.166 213.766 678.634C212.961 684.183 211.369 689.861 209.25 695.045L208.91 694.5C209.985 689.99 211.35 685.387 211.855 680.778C213.235 669.592 212.133 660.974 208.088 650.47Z"/>
	<path fill="#0B1850" transform="scale(0.488281 0.488281)" d="M247.928 630.578C248.706 630.124 248.826 629.813 249.741 630.002C256.379 642.503 256.502 652.916 255.282 666.628C253.215 674.179 251.874 681.368 247.75 688.207L247.45 687.5C250.122 681.414 252.153 675.269 253.512 668.758L253.666 667.796C255.895 654.783 253.336 642.431 247.928 630.578Z"/>
	<path fill="#0EAA6A" transform="scale(0.488281 0.488281)" d="M163.641 699.499C163.556 694.696 162.78 690.213 161.087 685.708L160.755 684.835C162.606 682.648 165.206 680.778 167.364 678.859C177.549 669.797 188.499 662.242 200 654.959C202.167 653.587 205.653 650.683 208.088 650.47C212.133 660.974 213.235 669.592 211.855 680.778C203.834 682.483 195.837 686.035 188.362 689.323L164.5 700.456L163.641 699.499Z"/>
	<path fill="#0EAA6A" transform="scale(0.488281 0.488281)" d="M290.63 619.987L290.935 620.082C294.688 626.855 297.369 633.191 298.817 640.814C295.491 642.753 292.757 646.544 289.987 649.25C282.459 656.603 273.253 661.316 263.503 665.013C261.583 665.741 257.569 667.746 255.656 667.393L255.282 666.628C256.502 652.916 256.379 642.503 249.741 630.002C263.683 626.003 275.955 621.072 290.63 619.987Z"/>
	<path fill="#0EAA6A" transform="scale(0.488281 0.488281)" d="M210.135 649.447L209.911 648.743C213.13 646.345 217.61 644.736 221.258 642.916L238.746 634.335C241.7 632.95 244.703 631.191 247.928 630.578C253.336 642.431 255.895 654.783 253.666 667.796L253.512 668.758L214.75 679.707C213.965 679.108 214.292 679.466 213.766 678.634C215.272 668.166 214.536 659.115 210.135 649.447Z"/>
	<path fill="#0B1850" transform="scale(0.488281 0.488281)" d="M288.18 615.616L289.179 615.646C289.785 617.08 290.424 618.428 290.63 619.987C275.955 621.072 263.683 626.003 249.741 630.002C248.826 629.813 248.706 630.124 247.928 630.578C244.703 631.191 241.7 632.95 238.746 634.335L221.258 642.916C217.61 644.736 213.13 646.345 209.911 648.743L210.135 649.447C209.366 649.752 208.755 649.972 208.088 650.47C205.653 650.683 202.167 653.587 200 654.959C188.499 662.242 177.549 669.797 167.364 678.859C165.206 680.778 162.606 682.648 160.755 684.835L161.087 685.708C162.78 690.213 163.556 694.696 163.641 699.499C163.471 703.13 162.642 706.63 161.788 710.148C161.643 707.567 161.612 705.144 161.844 702.563C156.663 704.598 151.648 707.357 146.64 709.805C140.51 712.8 134.006 715.018 129.25 720.121L128.674 719.997L129.117 718.21L128.98 717.407L124.687 723.499C124.279 721.378 124.305 718.962 124.923 716.886C127.67 707.661 133.435 699.309 138.127 691.007L148.218 672.344C149.781 669.729 153.533 665.547 154.146 662.818C160.267 658.18 169.629 656.447 176.969 654.675C184.158 652.703 190.589 651.684 198.015 651.057L197.561 650.597C196.104 650.208 193.64 649.978 192.22 650.476L191.767 650.697L191.068 649.153C194.898 648.298 199.714 649.219 203.25 647.995C205.37 647.261 207.413 645.592 209.406 644.526L226.608 635.699L244.887 627.541C247.715 626.428 250.631 625.675 253.41 624.417L255.538 623.678L280.171 616.928L288.18 615.616Z"/>
	<path fill="#56EAAE" transform="scale(0.488281 0.488281)" d="M152.935 681.456C154.67 681.766 155.549 682.188 156.949 683.25C156.751 685.639 150.939 691.069 149.11 692.859L148.476 691.96C148.78 689.584 149.576 687.672 150.493 685.5C151.181 683.871 151.607 682.665 152.935 681.456Z"/>
	<path fill="#0EAA6A" transform="scale(0.488281 0.488281)" d="M129.117 718.21L158.739 686.026C160.851 691.557 161.576 696.703 161.844 702.563C156.663 704.598 151.648 707.357 146.64 709.805C140.51 712.8 134.006 715.018 129.25 720.121L128.674 719.997L129.117 718.21Z"/>
	<path fill="#56EAAE" transform="scale(0.488281 0.488281)" d="M198.015 651.057L198 652.041L180.296 664.243C172.801 669.948 165.808 676.342 158.789 682.617C157.437 681.805 156.074 680.846 154.582 680.337L153.265 679.866C158.385 669.503 170.506 663.823 176.969 654.675C184.158 652.703 190.589 651.684 198.015 651.057Z"/>
	<path fill="#15C481" transform="scale(0.488281 0.488281)" d="M154.146 662.818C160.267 658.18 169.629 656.447 176.969 654.675C170.506 663.823 158.385 669.503 153.265 679.866L154.582 680.337C153.813 680.682 153.327 680.682 152.935 681.456C151.607 682.665 151.181 683.871 150.493 685.5C149.576 687.672 148.78 689.584 148.476 691.96L149.11 692.859L128.98 717.407L124.687 723.499C124.279 721.378 124.305 718.962 124.923 716.886C127.67 707.661 133.435 699.309 138.127 691.007L148.218 672.344C149.781 669.729 153.533 665.547 154.146 662.818Z"/>
	<path fill="#15C481" transform="scale(0.488281 0.488281)" d="M702.569 619.588C707.623 617.331 712.653 615.003 718 613.51C729.937 610.177 743.344 610.799 754.94 615.236C779.207 624.523 795.421 643.202 805.677 666.549C812.193 681.383 816.141 696.882 819.14 712.759C822.851 732.411 824.886 752.038 824.434 772.049C824.362 775.23 823.804 778.468 823.523 781.644C822.501 793.173 820.69 804.462 818.126 815.745L813.877 831.727C813.266 833.912 812.799 836.891 811.834 838.896L811.453 839.45C810.493 838.246 808.666 836.505 808.29 835.052L806.545 829.289C793.263 803.082 778.991 776.616 759.021 754.801C758.764 751.548 759.778 747.526 760.357 744.297C762.186 734.088 764.269 722.747 769.318 713.591C768.483 712.646 768.549 712.373 768.394 711.1L768.002 710.977L767.269 708.925C768.51 707.727 769.141 706.132 769.894 704.605L749.468 668.812C766.616 673.729 781.976 682.63 795.648 694.073C798.106 695.24 800.375 696.917 802.39 698.737C803.632 699.858 805.57 702.364 807.127 702.75C803.505 698.074 798.327 694.852 794.583 690.295L794.297 689.936C785.049 681.868 772.629 674.766 760.998 670.831L752.808 668.328C751.544 667.997 749.479 667.763 748.359 667.201C747.671 666.855 745.914 663.995 745.368 663.28L735.274 650.206L726.074 639.935C723.223 638.141 720.343 634.472 717.75 632.167L702.569 619.588Z"/>
	<path fill="#0B1850" transform="scale(0.488281 0.488281)" d="M769.894 704.605C770.857 706.44 772.844 709.229 773.113 711.214L773.521 711.573C776.855 714.469 780.629 716.715 783.903 719.713C791.991 727.12 798.696 735.726 805.754 744.07L824.569 772.595C821.772 770.437 819.708 767.358 817.515 764.614C812.676 758.56 808.325 752.188 803.046 746.496L802.916 747.036C802.232 749.791 800.562 752.481 800.25 755.255C799.616 760.885 800.303 766.882 799.983 772.584C799.868 774.646 799.912 776.897 798.716 778.649C801.415 790.945 804.676 802.918 805.825 815.502L805.365 815.218C802.013 789.678 792.346 763.826 782.289 740.239C778.409 731.142 774.585 722 769.318 713.591C768.483 712.646 768.549 712.373 768.394 711.1L768.002 710.977L767.269 708.925C768.51 707.727 769.141 706.132 769.894 704.605Z"/>
	<path fill="#56EAAE" transform="scale(0.488281 0.488281)" d="M798.716 778.649C793.064 758.004 785.26 736.861 775.395 717.847L803.046 746.496L802.916 747.036C802.232 749.791 800.562 752.481 800.25 755.255C799.616 760.885 800.303 766.882 799.983 772.584C799.868 774.646 799.912 776.897 798.716 778.649Z"/>
	<path fill="#56EAAE" transform="scale(0.488281 0.488281)" d="M769.894 704.605L749.468 668.812C766.616 673.729 781.976 682.63 795.648 694.073C798.844 703.287 800.99 712.984 803.1 722.5C804.587 729.204 807.324 737.247 805.754 744.07C798.696 735.726 791.991 727.12 783.903 719.713C780.629 716.715 776.855 714.469 773.521 711.573L773.113 711.214C772.844 709.229 770.857 706.44 769.894 704.605Z"/>
	<path fill="#56EAAE" transform="scale(0.488281 0.488281)" d="M726.074 639.935C734.115 636.45 745.103 634.222 753.75 635.916L754.502 636.052C765.575 638.151 774.958 647.984 781.008 656.969C787.439 666.521 791.007 678.981 794.297 689.936C785.049 681.868 772.629 674.766 760.998 670.831L752.808 668.328C751.544 667.997 749.479 667.763 748.359 667.201C747.671 666.855 745.914 663.995 745.368 663.28L735.274 650.206L726.074 639.935Z"/>
	<path fill="#0EAA6A" transform="scale(0.488281 0.488281)" d="M769.318 713.591C774.585 722 778.409 731.142 782.289 740.239C792.346 763.826 802.013 789.678 805.365 815.218L805.825 815.502C807.25 819.697 807.384 824.956 806.545 829.289C793.263 803.082 778.991 776.616 759.021 754.801C758.764 751.548 759.778 747.526 760.357 744.297C762.186 734.088 764.269 722.747 769.318 713.591Z"/>
	<path fill="#15C481" transform="scale(0.488281 0.488281)" d="M568.486 345.032C550.878 332.421 538.377 313.052 531.01 292.867C524.526 275.102 526.621 256.709 534.512 239.747C562.611 179.346 624.088 145.114 684.01 123.144C676.251 132.597 671.476 145.01 667.825 156.551C662.048 158.51 656.756 161.449 651.441 164.406C640.803 170.324 630.691 177.066 621.36 184.909C619.88 186.153 616.975 188.086 616.046 189.748L615.708 190.551L614.533 191.211C612.174 203.513 610.184 215.704 609.758 228.248C609.583 233.42 609.799 238.667 610.195 243.823C610.347 245.794 611.375 251.092 610.92 252.801C610.503 254.368 608.751 256.742 607.917 258.174L599.89 272.15L585.281 301.317C579.846 313.019 574.817 324.956 570.746 337.207C569.97 339.542 568.495 342.576 568.486 345.032Z"/>
	<path fill="#56EAAE" transform="scale(0.488281 0.488281)" d="M569.909 251.628L570.731 251.702L582.289 231.279C589.613 219.379 597.939 208.356 607.218 197.918C608.957 195.962 611.958 191.817 614.533 191.211C612.174 203.513 610.184 215.704 609.758 228.248C609.583 233.42 609.799 238.667 610.195 243.823C610.347 245.794 611.375 251.092 610.92 252.801C610.503 254.368 608.751 256.742 607.917 258.174L599.89 272.15L585.281 301.317C578.082 293.711 569.354 262.54 567.902 251.688L567.727 251.433C566.843 248.579 566.565 245.107 566.134 242.143C564.769 232.758 564.505 223.432 564.343 213.963C564.271 209.722 563.687 204.719 564.697 200.597L569.909 251.628Z"/>
	<defs>
		<linearGradient id="gradient_4" gradientUnits="userSpaceOnUse" x1="686.64069" y1="384.70486" x2="753.44391" y2="429.9649">
			<stop offset="0" stop-color="#00284E"/>
			<stop offset="1" stop-color="#003B52"/>
		</linearGradient>
	</defs>
	<path fill="url(#gradient_4)" transform="scale(0.488281 0.488281)" d="M809.476 330.729L813.5 331.398L813.9 332L813.174 332.469C807.253 336.405 802.305 342.551 797.877 348.074C783.425 366.101 772.718 385.177 763.695 406.364C758.135 419.418 754.321 434.831 743.819 444.941C739.939 445.988 736.3 448.337 732.829 450.324C721.981 456.535 710.056 465.231 703.656 476.253L698.766 486.271C687.09 490.696 676.359 493.766 663.73 493.939C650.737 494.117 638.597 490.511 629.196 481.315C628.537 479.792 627.681 478.961 626.48 477.835L626.486 477.642C629.182 474.161 630.886 469.32 632.355 465.185C634.093 461.571 636.55 458.125 638.813 454.818L660.459 424.125L661.684 422.485C675.008 405.181 690.443 390.345 707.25 376.474C708.756 369.74 711.95 363.381 715.344 357.42C715.552 357.348 715.622 357.079 715.748 356.899C719.672 351.316 722.635 345.491 727.106 340.264L719.761 355.561C725.573 354.568 731.62 353.931 737.52 353.881C739.668 353.862 741.646 353.642 743.539 354.787C749.542 353.226 755.881 349.514 761.643 347.111C771.279 343.093 781.199 339.814 791.128 336.606C796.021 335.024 801.086 333.017 806.117 331.982C807.43 331.712 808.294 331.377 809.476 330.729Z"/>
	<path fill="#15C481" transform="scale(0.488281 0.488281)" d="M719.761 355.561C725.573 354.568 731.62 353.931 737.52 353.881C739.668 353.862 741.646 353.642 743.539 354.787L711.933 372.823L719.761 355.561Z"/>
	<path fill="#034C5E" transform="scale(0.488281 0.488281)" d="M768.06 351.25L769.202 351.173L769.508 351.75L761.012 362.5C758.242 365.759 754.876 369.126 751.162 371.292C746.098 374.245 739.963 375.721 734.276 376.914C727.148 378.409 720.011 379.53 712.75 380.131C711.446 380.054 712.081 380.18 710.844 379.75C712.977 376.796 717.329 374.37 720.377 372.364C734.946 362.773 750.715 354.343 768.06 351.25Z"/>
	<path fill="#034C5E" transform="scale(0.488281 0.488281)" d="M745.372 379.25L747.476 379.134L747.59 379.75C734.831 396.804 718.174 410.046 698.019 417.348C688.62 420.753 678.505 422.873 668.75 425.031L666.928 425.25C667.148 424.674 667.147 424.621 667.512 424C669.515 420.593 672.837 417.134 675.473 414.194C682.176 406.72 689.48 399.705 696.759 392.797C698.83 390.831 701.907 387.11 704.377 385.964C705.009 385.67 707.143 385.793 707.91 385.735L715.425 384.839L745.372 379.25Z"/>
	<path fill="#034C5E" transform="scale(0.488281 0.488281)" d="M720.305 417.75L721.401 417.654L721.735 418.137L715.53 427C708.983 435.587 700.87 443.828 691.877 449.852C676.23 460.333 657.232 465.149 638.75 467.563C637.801 467.525 637.775 467.726 637.081 467C639.388 462.746 642.316 458.72 644.963 454.668C649.582 447.6 654.226 440.534 659.697 434.088C660.492 433.152 661.897 430.992 662.885 430.38C663.681 429.886 666.434 429.868 667.428 429.749L677.906 427.975C692.172 425.283 706.453 422.091 720.305 417.75Z"/>
	<path fill="#034C5E" transform="scale(0.488281 0.488281)" d="M242.522 854.821C242.659 852.578 241.849 849.921 241.547 847.67L239.809 831.611C238.263 812.281 240.227 792.63 244.188 773.691C249.14 750.01 259.555 726.931 274.673 707.978C279.746 701.618 285.722 695.071 292.607 690.642C301.779 684.743 314.071 680.662 325 683.013C335.202 685.207 340.961 691.642 346.389 700.087C347.156 701.948 347.835 702.954 349.031 704.508L349.699 705.654L352.053 705.003C359.458 707.781 365.954 710.64 369.504 718.264C374.488 728.971 373.016 743.748 368.805 754.492C363.422 768.226 352.659 779.681 341.758 789.294C323.475 805.418 302.187 818.827 281.902 832.291C268.925 840.904 256.1 849.068 244.75 859.871L243.841 859.75C243.72 859.039 243.48 858.206 243.535 857.49L242.522 854.821Z"/>
	<path fill="#0B1850" transform="scale(0.488281 0.488281)" d="M242.522 854.821L280.667 778.113C272.07 779.505 264.527 782.518 257.134 787.134C254.051 789.059 251.211 791.478 248.206 793.552C250.952 789.916 254.333 786.256 258.128 783.705C265.072 779.037 272.939 774.694 281.307 773.329C282.238 773.177 283.115 773.185 283.873 772.544C285.154 771.461 286.522 768.483 287.463 767L296.524 753.121L308.328 737.253C299.183 734.993 290.224 734.127 280.891 735.967C276.083 736.915 271.423 738.629 266.677 739.866C278.106 733.479 291.435 729.764 304.604 732.329L305.25 732.46C306.748 732.736 308.106 732.877 309.438 733.683L310.25 734.202C311.899 734.079 314.212 730.647 315.37 729.304C322.067 721.539 329.107 714.499 337.261 708.289C327.169 704.53 314.251 700.782 303.393 702.176L297.683 702.566L300.598 701.638C307.014 700.021 313.436 699.238 320.016 700.364C326.986 701.556 333.559 703.611 340.422 705.131C342.756 705.648 345.202 705.261 347.398 706.251C341.501 708.968 336.194 712.47 331.558 717.057C335.242 725.925 338.808 734.753 341.551 743.969C342.321 746.556 343.689 750.26 343.402 752.976L330.509 718.292C323.024 725.472 316.256 733.28 309.8 741.388C308.028 743.613 305.442 746.246 304.325 748.817C307.038 759.72 309.805 771.407 308.75 782.729L308.112 782.5C307.289 777.235 307.197 771.911 306.474 766.628C305.741 761.271 304.35 756.053 302.825 750.878C299.266 754.852 296.41 760.127 293.479 764.626C279.371 786.288 266.668 809.384 255.266 832.581L248.26 847.211C246.757 850.602 245.604 854.424 243.535 857.49L242.522 854.821Z"/>
	<path fill="#0EAA6A" transform="scale(0.488281 0.488281)" d="M349.699 705.654L352.053 705.003C359.458 707.781 365.954 710.64 369.504 718.264C374.488 728.971 373.016 743.748 368.805 754.492C363.422 768.226 352.659 779.681 341.758 789.294C323.475 805.418 302.187 818.827 281.902 832.291C268.925 840.904 256.1 849.068 244.75 859.871L243.841 859.75C243.72 859.039 243.48 858.206 243.535 857.49C245.604 854.424 246.757 850.602 248.26 847.211L255.266 832.581C266.668 809.384 279.371 786.288 293.479 764.626C296.41 760.127 299.266 754.852 302.825 750.878C304.35 756.053 305.741 761.271 306.474 766.628C307.197 771.911 307.289 777.235 308.112 782.5L308.75 782.729C309.805 771.407 307.038 759.72 304.325 748.817C305.442 746.246 308.028 743.613 309.8 741.388C316.256 733.28 323.024 725.472 330.509 718.292L343.402 752.976C343.689 750.26 342.321 746.556 341.551 743.969C338.808 734.753 335.242 725.925 331.558 717.057C336.194 712.47 341.501 708.968 347.398 706.251L349.699 705.654Z"/>
	<path fill="#E9E7B2" transform="scale(0.488281 0.488281)" d="M629.196 481.315C638.597 490.511 650.737 494.117 663.73 493.939C676.359 493.766 687.09 490.696 698.766 486.271C695.298 499.607 694.205 512.963 697.323 526.504C698.625 532.994 700.716 539.026 703.284 545.118L703.634 546.49C704.605 547.678 705.721 548.848 706.41 550.226C683.231 565.216 660.499 581.967 640.837 601.393L641.066 602.085L641.069 602.187L628.47 603.808L623.089 608.771C609.896 621.892 597.829 635.205 586.328 649.837C583.087 653.961 579.534 658.014 576.557 662.325C561.895 680.654 550.023 701.659 540.344 722.975C537.246 729.799 535.119 737.263 531.75 743.912L539.477 700C546.374 665.449 554.686 630.842 566.994 597.788C574.719 577.04 584.402 556.562 594.737 537.001C604.868 517.826 615.976 498.552 629.196 481.315Z"/>
	<path fill="#AA1F61" transform="scale(0.488281 0.488281)" d="M703.634 546.49C704.605 547.678 705.721 548.848 706.41 550.226C683.231 565.216 660.499 581.967 640.837 601.393L641.066 602.085L641.069 602.187L628.47 603.808C633.255 598.904 638.544 594.494 643.739 590.041L679.984 561.793C687.483 556.438 695.298 550.441 703.634 546.49Z"/>
	<path fill="#034C5E" transform="scale(0.488281 0.488281)" d="M581.08 673.651C589.906 679.702 597.821 686.144 604.789 694.308C622.628 688.869 643.333 683.925 660.812 693.2C677.03 701.806 684.713 720.288 689.613 737.091C698.314 766.932 700.448 797.872 700.497 828.796C700.52 842.832 700.322 857.191 697.955 871.062C696.932 870.192 695.127 868.991 694.4 867.92L653.909 833.645C633.747 816.364 613.916 799.187 596.693 778.864C590.47 771.521 584.318 763.988 579.638 755.544C574.421 746.129 571.436 735.552 574.656 724.92C578.63 711.802 587.426 702.857 599.298 696.471L578.213 678.824L581.08 673.651Z"/>
	<path fill="#0B1850" transform="scale(0.488281 0.488281)" d="M581.08 673.651C589.906 679.702 597.821 686.144 604.789 694.308L616.309 712.174C616.881 712.958 617.557 714.208 618.274 714.819L637.543 746.114C647.601 741.705 657.247 739.456 667.945 743.579C673.144 745.583 677.843 748.622 682.199 752.064C683.581 753.156 685.315 754.369 686.25 755.85C684.447 755.307 682.604 753.427 681.018 752.326C675.282 748.348 669.154 745.58 662.25 744.401L661.56 744.276C653.752 742.955 646.02 745.379 638.818 748.154C643.575 755.025 647.684 762.241 651.915 769.444C652.774 770.906 655.073 773.914 655.261 775.511C655.439 776.591 655.606 777.36 656.078 778.337L656.425 779.103C656.924 780.075 657.359 780.034 658 780.75C658.461 781.264 658.527 782.147 658.755 782.75C659.835 785.599 661.628 788.048 662.99 790.738C664.513 793.744 665.941 797.673 667.845 800.362C668.333 801.052 668.47 801.343 668.741 802.091C668.997 802.794 669.31 803.677 669.961 804.143L670.582 804.426C672.816 807.904 674.676 812.835 675.685 816.856C674.519 816.451 674.137 815.519 673.512 814.5L660.646 791.51L646.194 767.513C645.318 766.058 642.485 759.895 641.184 759.289C638.22 764.75 636.316 770.081 635.204 776.166C633.395 786.056 635.125 794.373 638.921 803.503C634.947 798.65 631.33 792.988 630.474 786.632L630.396 786C628.927 775.165 633.465 764.116 638.881 754.983L616.021 716.859L610.429 726.087C606.045 734.614 601.397 746.831 604.506 756.374C605.06 758.074 605.343 759.764 605.647 761.524C603.902 759.051 602.767 755.95 601.821 753.097C601.085 750.881 600.763 748.584 600.698 746.25C600.393 735.341 605.624 722.615 613.178 714.851L613.776 714.242C610.069 707.654 605.358 701.057 599.298 696.471L578.213 678.824L581.08 673.651Z"/>
	<path fill="#0EAA6A" transform="scale(0.488281 0.488281)" d="M604.789 694.308C622.628 688.869 643.333 683.925 660.812 693.2C677.03 701.806 684.713 720.288 689.613 737.091C698.314 766.932 700.448 797.872 700.497 828.796C700.52 842.832 700.322 857.191 697.955 871.062C696.932 870.192 695.127 868.991 694.4 867.92C693.746 862.543 691.341 857.13 689.377 852.099L682.804 834.85C680.574 829.065 678.599 822.285 675.685 816.856C674.676 812.835 672.816 807.904 670.582 804.426L669.961 804.143C669.31 803.677 668.997 802.794 668.741 802.091C668.47 801.343 668.333 801.052 667.845 800.362C665.941 797.673 664.513 793.744 662.99 790.738C661.628 788.048 659.835 785.599 658.755 782.75C658.527 782.147 658.461 781.264 658 780.75C657.359 780.034 656.924 780.075 656.425 779.103L656.078 778.337C655.606 777.36 655.439 776.591 655.261 775.511C655.073 773.914 652.774 770.906 651.915 769.444C647.684 762.241 643.575 755.025 638.818 748.154C646.02 745.379 653.752 742.955 661.56 744.276L662.25 744.401C669.154 745.58 675.282 748.348 681.018 752.326C682.604 753.427 684.447 755.307 686.25 755.85C685.315 754.369 683.581 753.156 682.199 752.064C677.843 748.622 673.144 745.583 667.945 743.579C657.247 739.456 647.601 741.705 637.543 746.114L618.274 714.819C617.557 714.208 616.881 712.958 616.309 712.174L604.789 694.308Z"/>
	<path fill="#034C5E" transform="scale(0.488281 0.488281)" d="M616.309 712.174C622.863 706.794 630.201 703.49 638.312 701.151C643.631 699.618 649.721 699.482 655.077 700.815C658.408 701.643 661.854 702.294 664.934 703.864C662.12 703.795 659.292 702.925 656.523 702.399C644.875 700.183 632.581 704.36 623.018 710.916C621.329 712.074 619.721 713.369 618.274 714.819C617.557 714.208 616.881 712.958 616.309 712.174Z"/>
	<path fill="#023050" transform="scale(0.488281 0.488281)" d="M655.261 775.511L657.902 779.474C667.509 779.917 674.897 782.485 681.476 789.782C688.972 798.097 693.467 809.513 697.685 819.75L697.182 819.924C690.291 806.138 683.269 788.885 667.484 783.426C664.943 782.547 662.276 782.337 659.618 782.053L667.313 797.049C668.447 799.297 670.062 801.991 670.582 804.426L669.961 804.143C669.31 803.677 668.997 802.794 668.741 802.091C668.47 801.343 668.333 801.052 667.845 800.362C665.941 797.673 664.513 793.744 662.99 790.738C661.628 788.048 659.835 785.599 658.755 782.75C658.527 782.147 658.461 781.264 658 780.75C657.359 780.034 656.924 780.075 656.425 779.103L656.078 778.337C655.606 777.36 655.439 776.591 655.261 775.511Z"/>
	<path fill="#058A54" transform="scale(0.488281 0.488281)" d="M448.726 621.231C438.351 625.166 427.577 626.714 416.491 625.698C396.371 623.853 374.831 611.951 362.111 596.366C355.637 588.433 351.212 578.52 348.796 568.602C343.573 547.163 344.624 524.627 343.581 502.718C342.778 485.826 340.57 469.559 342.178 452.58L346.451 454.258C356.886 457.616 367.012 462.043 376.968 466.599C388.207 471.742 399.143 476.947 409.578 483.633C420.902 490.889 431.195 499.607 440.527 509.266C445.168 514.071 449.694 519.15 453.827 524.393C456.087 527.26 458.191 531.147 460.831 533.581C465.852 543.416 468.642 553.209 471.401 563.83L473.442 584.968C470.663 599.022 467.084 610.119 454.199 618.006L453.669 618.299L450.169 620.322L448.726 621.231Z"/>
	<path fill="#0EAA6A" transform="scale(0.488281 0.488281)" d="M444.784 607.82C443.341 607.655 441.899 607.463 440.5 607.058C434.829 605.417 429.278 602.255 424.2 599.294C403.063 586.968 388.119 570.336 376.069 549.254L376.463 548.131C389.995 552.295 403.933 556.838 417.952 558.934C418.908 559.077 418.552 558.994 419.483 559.509L419.09 558.245L420.099 557.062L441.579 597.057C444.577 603.217 448.754 610.014 450.116 616.718C447.688 615.094 446.258 610.423 444.784 607.82Z"/>
	<path fill="#0B1850" transform="scale(0.488281 0.488281)" d="M420.099 557.062L441.579 597.057C444.577 603.217 448.754 610.014 450.116 616.718C447.688 615.094 446.258 610.423 444.784 607.82L419.483 559.509L419.09 558.245L420.099 557.062Z"/>
	<path fill="#023050" transform="scale(0.488281 0.488281)" d="M354.778 496.693L344.566 456L345 455.442L347.07 456.895L347.755 456.145L374.607 485.584C377.018 485.807 379.072 486.988 381.233 488.003L394.49 494.489L395.337 494.565L395.743 496.897L395.779 496.892L396.471 496.25C405.583 500.224 414.422 506.962 421.806 513.486C422.412 515.288 421.736 518.11 421.566 520.042L422.569 520.33C422.212 528.339 422.114 536.539 420.783 544.451C420.332 547.136 419.676 549.707 419.038 552.349C418.972 552.622 418.523 554.01 418.577 554.27C418.731 555.025 419.702 556.334 420.099 557.062L419.09 558.245L419.483 559.509C418.552 558.994 418.908 559.077 417.952 558.934C403.933 556.838 389.995 552.295 376.463 548.131C376.084 547.83 375.658 547.585 375.25 547.324L375.898 546.642L374.883 546.25C368.308 533.686 363.138 519.407 358.469 505.995C357.596 503.489 356.015 500.799 355.874 498.174C355.151 497.7 354.494 497.398 353.68 497.124L352.75 496.816L354.778 496.693Z"/>
	<path fill="#56EAAE" transform="scale(0.488281 0.488281)" d="M374.607 485.584C377.018 485.807 379.072 486.988 381.233 488.003L394.49 494.489L395.358 516.175C392.991 514.059 391.007 509.913 389.216 507.16C384.458 499.85 379.955 492.499 374.607 485.584Z"/>
	<path fill="#0EAA6A" transform="scale(0.488281 0.488281)" d="M354.778 496.693L344.566 456L345 455.442L347.07 456.895L383.799 502.55L354.778 496.693Z"/>
	<path fill="#56EAAE" transform="scale(0.488281 0.488281)" d="M395.779 496.892L396.471 496.25C405.583 500.224 414.422 506.962 421.806 513.486C422.412 515.288 421.736 518.11 421.566 520.042C421.582 530.859 419.775 542.382 417.591 552.94L402.922 527.708C401.45 525.304 397.495 520.978 396.962 518.538C396.464 516.255 396.636 513.269 396.526 510.909L395.779 496.892Z"/>
	<path fill="#0EAA6A" transform="scale(0.488281 0.488281)" d="M355.874 498.174C362.977 500.219 370.479 502.186 377.75 503.538C379.118 503.793 383.98 503.885 385.003 504.482C386.463 505.334 388.6 509.854 389.63 511.391L417.526 556.468L375.898 546.642L374.883 546.25C368.308 533.686 363.138 519.407 358.469 505.995C357.596 503.489 356.015 500.799 355.874 498.174Z"/>
	<path fill="#15C481" transform="scale(0.488281 0.488281)" d="M346.451 454.258C356.886 457.616 367.012 462.043 376.968 466.599C388.207 471.742 399.143 476.947 409.578 483.633C420.902 490.889 431.195 499.607 440.527 509.266C445.168 514.071 449.694 519.15 453.827 524.393C456.087 527.26 458.191 531.147 460.831 533.581C465.852 543.416 468.642 553.209 471.401 563.83L473.442 584.968C470.663 599.022 467.084 610.119 454.199 618.006L453.669 618.299L450.169 620.322C449.594 619.403 450.025 617.808 450.116 616.718C448.754 610.014 444.577 603.217 441.579 597.057L420.099 557.062C419.702 556.334 418.731 555.025 418.577 554.27C418.523 554.01 418.972 552.622 419.038 552.349C419.676 549.707 420.332 547.136 420.783 544.451C422.114 536.539 422.212 528.339 422.569 520.33L421.566 520.042C421.736 518.11 422.412 515.288 421.806 513.486C414.422 506.962 405.583 500.224 396.471 496.25L395.779 496.892L395.743 496.897L395.337 494.565L394.49 494.489L381.233 488.003C379.072 486.988 377.018 485.807 374.607 485.584L347.755 456.145L346.451 454.258Z"/>
	<path fill="#56EAAE" transform="scale(0.488281 0.488281)" d="M422.569 520.33L423.135 514.256C438.26 531.558 447.048 553.334 445.447 576.519C444.974 583.357 443.177 590.405 441.579 597.057L420.099 557.062C419.702 556.334 418.731 555.025 418.577 554.27C418.523 554.01 418.972 552.622 419.038 552.349C419.676 549.707 420.332 547.136 420.783 544.451C422.114 536.539 422.212 528.339 422.569 520.33Z"/>
	<path fill="#A3C288" transform="scale(0.488281 0.488281)" d="M539.967 867.39L570.063 867.448C570.088 877.299 569.279 887.915 570.404 897.667C570.441 903.334 570.445 909.077 568.485 914.488C603.007 916.097 639.835 917.943 673.008 928.242C678.791 930.038 686.939 932.426 690.986 937.152C691.884 938.201 692.579 939.552 692.456 940.974C692.24 943.46 690.052 945.539 688.099 946.831C683.811 949.666 677.917 951.392 672.995 952.782C662.727 955.681 652.297 957.486 641.75 959.017C585.986 967.111 529.47 967.649 473.246 966.458C432.698 965.599 390.322 964.499 350.753 955.024C343.862 953.374 329.446 949.969 326.128 943.237C325.661 942.288 325.561 940.993 326.004 940.016C328.925 933.576 342.61 930.073 348.812 928.514C380.13 920.644 413.18 918.15 445.318 915.856C449.935 925.109 455.968 931.459 464.899 936.662C466.779 935.569 469.006 935.092 471.01 934.26C475.463 932.412 479.644 930.202 483.71 927.613C490.363 923.376 496.525 917.576 502.154 912.088C516.254 898.341 528.159 883.104 539.967 867.39Z"/>
	<path fill="#CA4021" transform="scale(0.488281 0.488281)" d="M539.967 867.39L570.063 867.448C570.088 877.299 569.279 887.915 570.404 897.667C570.441 903.334 570.445 909.077 568.485 914.488C564.477 924.881 556.551 933.733 546.324 938.346C535.082 943.418 520.851 942.143 508.779 942.12C495.299 942.094 480.682 943.22 467.948 938.098L464.899 936.662C466.779 935.569 469.006 935.092 471.01 934.26C475.463 932.412 479.644 930.202 483.71 927.613C490.363 923.376 496.525 917.576 502.154 912.088C516.254 898.341 528.159 883.104 539.967 867.39Z"/>
	<path fill="#023050" transform="scale(0.488281 0.488281)" d="M316.112 66.7708C321.146 67.8654 326.477 70.404 331.166 72.5704L354.583 84.6709C359.455 87.4815 364.556 90.9019 369.796 92.8476L367.519 89.75L368.25 89.0328C379.17 92.0897 391.24 95.6138 401.212 101.052L401.045 100.583C400.038 97.8142 398.573 95.2912 397.093 92.754C398.887 94.2889 400.751 95.8257 402.261 97.6482C403.284 98.8826 405.595 103.093 406.679 103.633C410.513 105.127 414.027 108.052 417.497 110.293L448.876 132.173C451.49 134.194 455.026 136.307 456.937 139L457.225 140.847L457.26 140.857L457.573 139.666L458.247 140.571C460.207 150.492 461.099 160.583 461.465 170.685C461.626 175.135 461.063 180.249 461.826 184.598C462.301 187.31 464.554 190.407 465.946 192.759L476.496 210.25L493.251 242.919L499.361 257.062C500.891 260.719 502.322 264.584 504.486 267.917C502.626 269.456 500.381 270.404 498.052 271.019C483.519 274.842 469.563 276.109 454.606 273.668C434.643 270.409 411.824 263.424 396.239 250.05C389.145 243.962 383.234 236.022 378.767 227.848C373.863 218.874 370.65 208.676 367.991 198.833L356.093 149.5C347.53 119.528 334.388 92.0377 316.112 66.7708Z"/>
	<path fill="#0EAA6A" transform="scale(0.488281 0.488281)" d="M369.796 92.8476L367.519 89.75L368.25 89.0328C379.17 92.0897 391.24 95.6138 401.212 101.052C403.461 103.195 404.95 106.398 406.529 109.061L418.233 130.417C414.262 128.22 410.149 122.743 406.659 119.613C397.794 111.665 388.196 105.001 378.378 98.3154C375.86 96.601 372.692 93.7191 369.796 92.8476Z"/>
	<path fill="#034C5E" transform="scale(0.488281 0.488281)" d="M339.975 82.2812C342.864 83.8956 346.038 84.9246 348.924 86.5677C364.243 95.2879 379.816 104.602 393.695 115.491C402.85 122.675 411.702 131.179 420.024 139.316L382.464 123.547L370.1 118.673C368.295 117.936 365.909 117.16 364.487 115.794C360.861 112.309 357.915 106.665 354.979 102.518L339.975 82.2812Z"/>
	<path fill="#0EAA6A" transform="scale(0.488281 0.488281)" d="M401.212 101.052L401.045 100.583C400.038 97.8142 398.573 95.2912 397.093 92.754C398.887 94.2889 400.751 95.8257 402.261 97.6482C403.284 98.8826 405.595 103.093 406.679 103.633C410.513 105.127 414.027 108.052 417.497 110.293L448.876 132.173C451.49 134.194 455.026 136.307 456.937 139L457.225 140.847L457.26 140.857L458.935 181.865C451.711 169.796 442.734 157.819 433.53 147.169C429.962 143.04 425.581 139.452 422.311 135.115L422.506 134.314C421.536 132.811 419.958 130.991 418.233 130.417L406.529 109.061C404.95 106.398 403.461 103.195 401.212 101.052Z"/>
	<path fill="#023050" transform="scale(0.488281 0.488281)" d="M401.212 101.052L401.045 100.583C400.038 97.8142 398.573 95.2912 397.093 92.754C398.887 94.2889 400.751 95.8257 402.261 97.6482C403.284 98.8826 405.595 103.093 406.679 103.633C410.822 110.953 415.567 117.855 419.256 125.439C420.63 128.264 422.176 131.144 422.506 134.314C421.536 132.811 419.958 130.991 418.233 130.417L406.529 109.061C404.95 106.398 403.461 103.195 401.212 101.052Z"/>
	<path fill="#034C5E" transform="scale(0.488281 0.488281)" d="M394.508 172.25C400.397 173.734 406.267 176.489 412 178.55L439.735 188.476L462.75 197.431L487.18 241.4C475.571 238.255 463.783 232.802 453.209 227.097C433.237 216.322 416.316 200.772 402.11 183.219C399.595 180.111 395.642 176.069 394.508 172.25Z"/>
	<path fill="#034C5E" transform="scale(0.488281 0.488281)" d="M365.983 118.923L415.754 142.204C418.85 143.684 423.091 144.607 425.748 146.669C428.402 148.729 430.693 152.255 432.861 154.881C442.043 166.005 450.737 177.357 458.44 189.563L401.048 169.143C397.666 167.892 391.918 166.736 389.215 164.65C388.103 163.792 386.236 159.043 385.564 157.72C379.189 145.186 373.822 131.398 366.361 119.517L365.983 118.923Z"/>
	<path fill="#023050" transform="scale(0.488281 0.488281)" d="M90.9814 448.952C93.711 447.444 97.389 446.707 100.399 445.843C116.349 441.265 132.809 439.165 149.382 439.018C154.773 438.971 160.314 438.803 165.673 439.444C173.89 439.302 182.216 440.125 190.391 440.928C222.388 444.07 259.408 452.008 284.607 473.115C284.3 473.493 283.87 473.799 283.687 474.25C282.789 476.471 283.459 481.946 283.44 484.574L282.878 512.8L283.055 513.644C282.981 521.991 281.12 528.371 279.092 536.343L297.367 555.393C297.992 556.126 298.498 556.547 298.725 557.502L298.517 557.81C297.611 558.732 296.617 559.624 295.858 560.67C292.932 563.987 289.376 566.754 285.548 568.965C273.642 575.842 258.926 577.09 245.465 577.049C235.577 577.019 225.316 576.246 215.746 573.635C203.504 570.296 191.61 564.663 182.25 555.966C159.64 534.956 149.255 505.485 128.751 482.74C123.005 476.365 116.837 470.175 110.167 464.771L98.1876 455.809C95.9148 454.259 90.925 451.808 89.6317 449.539L90.9814 448.952Z"/>
	<path fill="#034C5E" transform="scale(0.488281 0.488281)" d="M144.839 469.245C151.628 469.225 158.588 469.144 165.297 470.289C169.642 471.031 173.905 472.615 178.088 473.989L167.871 476.268C165.496 476.834 157.925 479.585 155.801 478.756C148.939 476.077 142.811 472.989 136.325 469.505L144.839 469.245Z"/>
	<path fill="#034C5E" transform="scale(0.488281 0.488281)" d="M246.553 518.214L250.589 518.065C252.899 518.066 257.137 522.517 258.948 524.112L270.315 533.967L290.165 554.131L281.933 551.25L283.25 551C284.621 551.603 285.877 552.161 287.375 552.375C286.78 551.384 285.911 550.752 285.048 549.998C283.927 549.945 284.293 549.834 283.352 550.223L282.75 550.5L271.67 544.739L240.403 527.008C236.28 524.637 231.36 522.86 227.672 519.849L242.876 518.402L246.553 518.214Z"/>
	<path fill="#034C5E" transform="scale(0.488281 0.488281)" d="M181.706 476.25C185.178 476.998 189.325 479.868 192.5 481.528C211.131 491.266 230.749 501.91 247.343 514.885C238.569 514.115 230.602 514.95 221.951 516.385L214.737 512.485L197.2 501.932L210.75 499.599C212.179 499.212 213.956 499.057 214.693 497.75C211.88 495.515 199.974 498.044 196.25 498.443C195.084 498.568 194.16 498.676 193.011 498.355C190.109 497.543 186.987 495.576 184.29 494.207C176.45 490.228 168.805 485.721 160.658 482.386L181.706 476.25Z"/>
	<path fill="#016A60" transform="scale(0.488281 0.488281)" d="M90.9814 448.952C93.711 447.444 97.389 446.707 100.399 445.843C116.349 441.265 132.809 439.165 149.382 439.018C154.773 438.971 160.314 438.803 165.673 439.444C173.89 439.302 182.216 440.125 190.391 440.928C222.388 444.07 259.408 452.008 284.607 473.115C284.3 473.493 283.87 473.799 283.687 474.25C282.789 476.471 283.459 481.946 283.44 484.574L282.878 512.8L283.055 513.644C282.981 521.991 281.12 528.371 279.092 536.343C273.709 530.905 267.841 525.709 261.899 520.894C258.572 518.198 254.022 515.472 251.23 512.256C250.48 511.391 250.119 510.181 249.776 509.108L249.243 510.2C248.918 509.17 248.725 508.717 248.875 507.625L247.975 509.062L247.44 509.352C244.729 508.372 242.046 506.005 239.636 504.347C233.359 500.028 226.796 495.034 219.936 491.759L216.477 489.62C210.515 485.937 206.235 478.518 201.336 473.468C193.336 465.22 184.994 457.42 176.104 450.141C175.757 450.14 167.133 444.954 165.519 444.3C167.601 446.022 169.778 447.602 171.361 449.815C177.202 453.626 182.549 459.308 187.801 463.944C191.283 466.401 194.363 469.957 197.358 472.987C201.661 477.339 206.075 481.646 209.996 486.349C208.997 485.967 209.255 486.139 208.517 485.641C195.291 476.724 180.219 470.478 165.159 465.39C157.25 462.719 149.343 459.9 141.262 457.794C132.952 455.627 124.525 454.197 116.098 452.598L100.786 450.359C97.6362 450.009 93.9433 450.085 90.9814 448.952Z"/>
	<path fill="#15C481" transform="scale(0.488281 0.488281)" d="M187.801 463.944L187.384 464.143C185.824 464.56 183.197 462.503 181.762 461.721C169.811 455.202 155.871 452.106 143.096 447.493C152.436 447.328 162.24 447.691 171.361 449.815C177.202 453.626 182.549 459.308 187.801 463.944Z"/>
	<path fill="#15C481" transform="scale(0.488281 0.488281)" d="M240.185 476.224C242.892 476.791 245.381 479.02 247.695 480.497C261.159 489.092 273.958 499.412 282.878 512.8L283.055 513.644C282.981 521.991 281.12 528.371 279.092 536.343C273.709 530.905 267.841 525.709 261.899 520.894C258.572 518.198 254.022 515.472 251.23 512.256C250.48 511.391 250.119 510.181 249.776 509.108C248.131 497.703 245.001 486.687 240.185 476.224Z"/>
	<path fill="#15C481" transform="scale(0.488281 0.488281)" d="M176.104 450.141C179.445 450.504 182.404 451.714 185.603 452.624C203.536 457.72 220.334 464.964 236.923 473.441L236.728 472.455L235.225 467.277C236.379 469.157 237.457 471.034 238.428 473.017C238.897 473.975 239.382 475.534 240.185 476.224C245.001 486.687 248.131 497.703 249.776 509.108L249.243 510.2C248.918 509.17 248.725 508.717 248.875 507.625L247.975 509.062L247.44 509.352C244.729 508.372 242.046 506.005 239.636 504.347C233.359 500.028 226.796 495.034 219.936 491.759L216.477 489.62C210.515 485.937 206.235 478.518 201.336 473.468C193.336 465.22 184.994 457.42 176.104 450.141Z"/>
	<path fill="#0B1850" transform="scale(0.488281 0.488281)" d="M236.923 473.441L236.728 472.455L235.225 467.277C236.379 469.157 237.457 471.034 238.428 473.017C238.897 473.975 239.382 475.534 240.185 476.224C245.001 486.687 248.131 497.703 249.776 509.108L249.243 510.2C248.918 509.17 248.725 508.717 248.875 507.625L247.975 509.062C244.807 496.845 242.032 485.038 236.923 473.441Z"/>
	<path fill="#15C481" transform="scale(0.488281 0.488281)" d="M121.425 247.74C129.069 244.735 137.288 242.707 145.248 240.732C174.351 233.509 204.091 231.946 233.979 232.98C271.943 234.293 310.88 239.954 345.928 255.152C363.362 262.712 379.319 272.497 393.446 285.261C395.827 293.305 399.311 300.669 401.251 308.933C403.959 320.461 404.521 332.374 404.5 344.172C404.464 364.281 402.179 383.787 399.759 403.703C401.193 405.49 402.675 407.071 404.351 408.633C402.955 410.143 401.715 411.64 399.894 412.649C394.859 405.11 389.626 397.052 383.454 390.4C369.075 372.405 352.468 354.959 334.861 340.083L332.871 338.131C310.123 318.146 283.305 300.812 256.236 287.292C255.532 286.414 254.099 285.878 253.104 285.338C250.43 286.76 246.696 286.944 243.723 287.481L220.5 291.56L200.646 295.816C198.898 293.399 196.06 291.269 193.741 289.385C187.09 283.986 179.821 279.248 172.311 275.136C163.04 270.059 153.695 266.332 143.711 262.995C140.144 261.803 134.986 259.635 131.389 260.676L115.473 249.423C117.201 248.451 119.495 248.174 121.425 247.74Z"/>
	<path fill="#56EAAE" transform="scale(0.488281 0.488281)" d="M326.621 281.238C330.64 282.759 334.177 285.688 337.678 288.151C356.271 301.229 374.244 319.362 383.724 340.306C389.655 353.411 391.529 367.589 391.246 381.839C391.177 385.342 391.29 388.972 390.876 392.444C380.347 379.407 369.551 366.73 357.713 354.858L347.904 345.307C346.455 344.016 342.972 341.847 342.124 340.249C341.708 339.464 341.661 336.973 341.504 336L338.995 322.975C335.864 309.15 332.167 294.306 326.621 281.238Z"/>
	<path fill="#023050" transform="scale(0.488281 0.488281)" d="M238.039 255.492L220.932 242.75L221.5 242.453C224.571 244.053 227.847 245.36 230.848 247.055C235.608 249.744 239.888 253.083 244.085 256.561C249.983 256.413 255.899 257.471 261.719 258.355C276.483 260.595 292.175 263.648 305.853 269.813L317.607 275.75C319.833 276.976 321.943 278.501 324.456 279.035L324.131 277.023C325.372 278.126 325.527 279.976 326.621 281.238C332.167 294.306 335.864 309.15 338.995 322.975L341.504 336C341.661 336.973 341.708 339.464 342.124 340.249C342.972 341.847 346.455 344.016 347.904 345.307L357.713 354.858C369.551 366.73 380.347 379.407 390.876 392.444L399.759 403.703C401.193 405.49 402.675 407.071 404.351 408.633C402.955 410.143 401.715 411.64 399.894 412.649C394.859 405.11 389.626 397.052 383.454 390.4C369.075 372.405 352.468 354.959 334.861 340.083L332.871 338.131C310.123 318.146 283.305 300.812 256.236 287.292C255.532 286.414 254.099 285.878 253.104 285.338C250.43 286.76 246.696 286.944 243.723 287.481L220.5 291.56L200.646 295.816C198.898 293.399 196.06 291.269 193.741 289.385C187.09 283.986 179.821 279.248 172.311 275.136C163.04 270.059 153.695 266.332 143.711 262.995C140.144 261.803 134.986 259.635 131.389 260.676L115.473 249.423C117.201 248.451 119.495 248.174 121.425 247.74L121.353 248.328L180.553 255.813L180.538 255.262C182.765 254.115 187.347 254.528 189.94 254.433L218.255 254.161L238.039 255.492Z"/>
	<path fill="#56EAAE" transform="scale(0.488281 0.488281)" d="M180.553 255.813L180.538 255.262C182.765 254.115 187.347 254.528 189.94 254.433L218.255 254.161L238.039 255.492C250.038 266.274 261.215 276.876 270.989 289.8C242.284 274.497 212.345 262.959 180.553 255.813Z"/>
	<path fill="#0EAA6A" transform="scale(0.488281 0.488281)" d="M121.425 247.74L121.353 248.328L120.047 248.585L119.829 249.25C131.498 251.548 143.649 251.94 155.426 254.025C178.053 258.031 199.981 263.607 221.513 271.711L253.104 285.338C250.43 286.76 246.696 286.944 243.723 287.481L220.5 291.56L200.646 295.816C198.898 293.399 196.06 291.269 193.741 289.385C187.09 283.986 179.821 279.248 172.311 275.136C163.04 270.059 153.695 266.332 143.711 262.995C140.144 261.803 134.986 259.635 131.389 260.676L115.473 249.423C117.201 248.451 119.495 248.174 121.425 247.74Z"/>
	<path fill="#56EAAE" transform="scale(0.488281 0.488281)" d="M244.085 256.561C249.983 256.413 255.899 257.471 261.719 258.355C276.483 260.595 292.175 263.648 305.853 269.813L317.607 275.75C319.833 276.976 321.943 278.501 324.456 279.035C327.549 286.518 328.903 294.402 330.834 302.217L339.594 338.531C327.822 328.173 316.106 318.238 303.173 309.321L288.27 299.687C285.251 297.862 278.36 295.3 276.443 292.609C266.865 279.171 256.49 267.455 244.085 256.561Z"/>
	<path fill="#058A54" transform="scale(0.488281 0.488281)" d="M131.389 260.676C134.986 259.635 140.144 261.803 143.711 262.995C153.695 266.332 163.04 270.059 172.311 275.136C179.821 279.248 187.09 283.986 193.741 289.385C196.06 291.269 198.898 293.399 200.646 295.816L220.5 291.56L243.723 287.481C246.696 286.944 250.43 286.76 253.104 285.338C254.099 285.878 255.532 286.414 256.236 287.292C283.305 300.812 310.123 318.146 332.871 338.131L334.861 340.083C352.468 354.959 369.075 372.405 383.454 390.4C389.626 397.052 394.859 405.11 399.894 412.649L400.171 414.766L395.178 419.43C374.061 436.919 338.518 440.712 312.2 438.204C296.245 436.683 279.935 431.217 266.242 422.923C254.086 415.559 243.157 406.314 234.216 395.239C226.51 385.692 220.004 374.264 214.265 363.456L200.187 336.207C193.27 323.955 184.934 312.479 175.937 301.672C162.115 286.518 147.546 273.264 131.389 260.676Z"/>
	<path fill="#0EAA6A" transform="scale(0.488281 0.488281)" d="M252.939 342.043L334.861 340.083C352.468 354.959 369.075 372.405 383.454 390.4C381.575 391.662 379.649 391.926 377.476 392.35C367.551 394.284 355.466 393.235 345.611 391.323C316.258 385.625 286.713 370.386 262.998 352.286C259.667 349.744 254.54 346.478 252.208 343.017L252.939 342.043Z"/>
	<path fill="#0EAA6A" transform="scale(0.488281 0.488281)" d="M253.104 285.338C254.099 285.878 255.532 286.414 256.236 287.292C283.305 300.812 310.123 318.146 332.871 338.131L334.861 340.083L252.939 342.043L218.25 344.366C219.806 343.136 245.17 341.034 248.773 340.57C237.121 331.195 226.676 320.673 215.98 310.258C211.525 305.921 206.543 301.91 202.446 297.256L189.72 299.441C187.228 299.879 184.362 300.698 181.853 300.191L200.646 295.816L220.5 291.56L243.723 287.481C246.696 286.944 250.43 286.76 253.104 285.338Z"/>
	<path fill="#023050" transform="scale(0.488281 0.488281)" d="M253.104 285.338C254.099 285.878 255.532 286.414 256.236 287.292L202.446 297.256L189.72 299.441C187.228 299.879 184.362 300.698 181.853 300.191L200.646 295.816L220.5 291.56L243.723 287.481C246.696 286.944 250.43 286.76 253.104 285.338Z"/>
	<path fill="#034C5E" transform="scale(0.488281 0.488281)" d="M248.773 340.57L303.043 337.192L332.871 338.131L334.861 340.083L252.939 342.043L218.25 344.366C219.806 343.136 245.17 341.034 248.773 340.57Z"/>
	<path fill="#C83C6E" transform="scale(0.488281 0.488281)" d="M568.486 345.032C569.841 345.969 571.129 346.773 572.619 347.478L572.875 347.431L574.685 348.181L547.752 437.938C533.906 493.293 526.051 549.421 519.8 606.064L515.742 649.773C514.133 667.975 512.534 686.165 512.554 704.458L513.33 731.409C513.423 733.195 513.162 737.183 514.008 738.615L514.297 738.971L511.506 842.07L500.914 842.091L493.385 842.046L493.421 824.427L488.047 692.25C487.714 688.94 486.701 686.499 485.321 683.524C485.627 682.976 486.225 682.304 486.428 681.75C486.659 681.119 486.469 679.575 486.454 678.864C486.382 675.628 486.089 672.305 485.582 669.107C477.202 650.644 466.792 633.761 453.669 618.299L454.199 618.006C467.084 610.119 470.663 599.022 473.442 584.968L471.401 563.83C468.642 553.209 465.852 543.416 460.831 533.581C458.616 525.587 454.392 517.699 451.058 510.093C442.528 490.631 433.265 471.382 422.957 452.797L400.171 414.766L399.894 412.649C401.715 411.64 402.955 410.143 404.351 408.633L405.37 408.015C415.65 421.692 425.521 436.217 434.009 451.061L445.521 472.756C448.037 465.558 449.835 459.031 453.464 452.223C453.59 450.682 454.022 449.261 454.699 447.871C456.336 449.623 457.628 450.943 459.877 451.937L460.107 452.462C461.874 451.391 464.235 451.135 466.232 450.667L476.237 447.929C487.362 444.405 499.428 438.796 508.501 431.38C514.976 426.088 520.37 419.673 525.474 413.094L530.539 402.33L532.572 396.861L535.465 423.5C535.81 427.461 535.495 431.96 536.417 435.776L568.486 345.032Z"/>
	<defs>
		<linearGradient id="gradient_5" gradientUnits="userSpaceOnUse" x1="510.98648" y1="484.83154" x2="539.82599" y2="491.01697">
			<stop offset="0" stop-color="#740950"/>
			<stop offset="1" stop-color="#5A035F"/>
		</linearGradient>
	</defs>
	<path fill="url(#gradient_5)" transform="scale(0.488281 0.488281)" d="M568.486 345.032C569.841 345.969 571.129 346.773 572.619 347.478C570.605 350.537 569.395 354.126 567.983 357.5L559.465 380.5C548.881 410.475 540.9 441.115 533.249 471.935L518.352 536.759L507.849 602.595L503.236 641.203C501.805 635.485 501.434 629.454 501.434 623.576C504.495 587.819 509.92 552.728 517.19 517.587L524.72 484.29C525.947 479.122 527.947 473.59 528.376 468.314C528.744 463.795 528.102 458.969 527.874 454.428L525.474 413.094L530.539 402.33L532.572 396.861L535.465 423.5C535.81 427.461 535.495 431.96 536.417 435.776L568.486 345.032Z"/>
	<path fill="#AA1F61" transform="scale(0.488281 0.488281)" d="M532.572 396.861L535.465 423.5C535.81 427.461 535.495 431.96 536.417 435.776C534.923 440.81 534.211 445.78 533.412 450.953L530.539 402.33L532.572 396.861Z"/>
	<path fill="#590254" transform="scale(0.488281 0.488281)" d="M471.401 563.83C481.499 589.972 486.129 618.161 489.89 645.799L493.811 675.25L499.751 780.866L500.914 842.091L493.385 842.046L493.421 824.427L488.047 692.25C487.714 688.94 486.701 686.499 485.321 683.524C485.627 682.976 486.225 682.304 486.428 681.75C486.659 681.119 486.469 679.575 486.454 678.864C486.382 675.628 486.089 672.305 485.582 669.107C477.202 650.644 466.792 633.761 453.669 618.299L454.199 618.006C467.084 610.119 470.663 599.022 473.442 584.968L471.401 563.83Z"/>
	<path fill="#E9E7B2" transform="scale(0.488281 0.488281)" d="M473.442 584.968L481.435 631.703L484.508 654.5C485.072 659.326 485.766 664.238 485.582 669.107C477.202 650.644 466.792 633.761 453.669 618.299L454.199 618.006C467.084 610.119 470.663 599.022 473.442 584.968Z"/>
	<path fill="#E9E7B2" transform="scale(0.488281 0.488281)" d="M525.474 413.094L527.874 454.428C528.102 458.969 528.744 463.795 528.376 468.314C527.947 473.59 525.947 479.122 524.72 484.29L517.19 517.587C509.92 552.728 504.495 587.819 501.434 623.576C499.612 619.48 499.094 614.404 497.968 610.031L491.51 587C483.992 561.467 474.847 536.112 463.747 511.904L452.77 489.131C451.705 487.008 448.372 482.247 448.871 480.064C447.352 478.093 445.637 475.277 445.521 472.756C448.037 465.558 449.835 459.031 453.464 452.223C453.59 450.682 454.022 449.261 454.699 447.871C456.336 449.623 457.628 450.943 459.877 451.937L460.107 452.462C461.874 451.391 464.235 451.135 466.232 450.667L476.237 447.929C487.362 444.405 499.428 438.796 508.501 431.38C514.976 426.088 520.37 419.673 525.474 413.094Z"/>
	<path fill="#0B1850" transform="scale(0.488281 0.488281)" d="M454.699 447.871C456.336 449.623 457.628 450.943 459.877 451.937L460.107 452.462C453.674 459.567 451.175 470.927 448.871 480.064C447.352 478.093 445.637 475.277 445.521 472.756C448.037 465.558 449.835 459.031 453.464 452.223C453.59 450.682 454.022 449.261 454.699 447.871Z"/>
	<defs>
		<linearGradient id="gradient_6" gradientUnits="userSpaceOnUse" x1="805.0448" y1="461.07574" x2="842.06549" y2="564.84705">
			<stop offset="0" stop-color="#01284E"/>
			<stop offset="1" stop-color="#013B53"/>
		</linearGradient>
	</defs>
	<path fill="url(#gradient_6)" transform="scale(0.488281 0.488281)" d="M743.819 444.941L744.746 444.815C748.357 444.243 752.196 442.146 755.823 441.15C765.522 438.485 775.481 436.521 785.456 435.226C826.443 429.906 869.547 437.081 907.933 451.619C914.235 454.005 920.321 456.736 926.325 459.784C928.765 461.023 931.572 462.208 933.81 463.755L934.439 464.238L940.628 467.272C920.237 475.221 901.449 486.377 885.626 501.631C876.81 510.13 869.073 519.478 861.776 529.292C853.377 540.588 845.454 552.647 834.904 562.087C821.475 574.104 805.612 580.391 788.078 583.517C772.89 586.226 757.903 585.582 743.702 579.348C729.259 573.008 716.411 562.28 706.41 550.226C705.721 548.848 704.605 547.678 703.634 546.49L703.284 545.118C700.716 539.026 698.625 532.994 697.323 526.504C694.205 512.963 695.298 499.607 698.766 486.271L703.656 476.253C710.056 465.231 721.981 456.535 732.829 450.324C736.3 448.337 739.939 445.988 743.819 444.941Z"/>
	<path fill="#15C481" transform="scale(0.488281 0.488281)" d="M840.448 454.565C853.535 455.298 865.003 457.307 876.511 463.867L828.871 472.388L840.448 454.565Z"/>
	<path fill="#034C5E" transform="scale(0.488281 0.488281)" d="M900.66 466.216L904.25 466.123L904.503 466.75L894.281 473.933C878.319 483.335 862.408 483.616 844.888 479.04L835.309 475.592C846.341 473.545 857.131 470.637 868.262 468.991C878.941 467.412 889.9 467.122 900.66 466.216Z"/>
	<path fill="#15C481" transform="scale(0.488281 0.488281)" d="M780.85 462.648L787.515 452.996C786.518 456.196 785.05 458.927 783.515 461.88C796.728 458.902 809.402 455.976 823 455.175C827.247 454.925 831.819 454.506 836.034 455.113C834.501 457.071 832.998 459.039 831.737 461.186C830.707 462.94 826.13 472.549 824.892 473.483C824.006 474.151 820.885 474.695 819.721 475.054L805.941 479.545C793.604 483.792 782.065 489.485 770.558 495.557L769.756 495.926L768.832 495.022C768.815 492.565 769.834 489.86 770.492 487.5C772.938 478.723 776.529 470.653 780.85 462.648Z"/>
	<path fill="#034C5E" transform="scale(0.488281 0.488281)" d="M780.85 462.648L787.515 452.996C786.518 456.196 785.05 458.927 783.515 461.88L770.236 494.78L770.558 495.557L769.756 495.926L768.832 495.022C768.815 492.565 769.834 489.86 770.492 487.5C772.938 478.723 776.529 470.653 780.85 462.648Z"/>
	<path fill="#034C5E" transform="scale(0.488281 0.488281)" d="M828.213 477.028C829.917 476.905 832.386 478.668 834.024 479.4C838.043 481.198 842.067 482.795 846.267 484.132C854.543 486.766 862.95 487.899 871.6 488.301C857.007 499.865 840.116 508.227 821.274 509.153C805.183 509.123 791.148 504.752 777.256 496.743L828.213 477.028Z"/>
	<path fill="#034C5E" transform="scale(0.488281 0.488281)" d="M772.008 500.311C783.258 507.344 794.28 513.486 806.94 517.652L822.051 521.837C806.53 531.678 789.218 539.245 770.879 541.54C753.109 543.896 737.672 539.501 720.571 535.526C736.509 522.007 754.095 510.973 772.008 500.311Z"/>
	<path fill="#058A54" transform="scale(0.488281 0.488281)" d="M743.819 444.941L744.746 444.815C748.357 444.243 752.196 442.146 755.823 441.15C765.522 438.485 775.481 436.521 785.456 435.226C826.443 429.906 869.547 437.081 907.933 451.619C914.235 454.005 920.321 456.736 926.325 459.784C928.765 461.023 931.572 462.208 933.81 463.755L934.439 464.238C932.299 464.916 929.935 464.478 927.721 464.329L914.359 463.347C901.679 462.566 889.168 463.046 876.511 463.867C865.003 457.307 853.535 455.298 840.448 454.565L854.841 438.163L855.527 437.247C849.737 439.922 844.488 445.366 840.292 450.137C839.339 451.221 837.186 454.556 836.034 455.113C831.819 454.506 827.247 454.925 823 455.175C809.402 455.976 796.728 458.902 783.515 461.88C785.05 458.927 786.518 456.196 787.515 452.996L780.85 462.648C776.529 470.653 772.938 478.723 770.492 487.5C769.834 489.86 768.815 492.565 768.832 495.022C766.928 499.019 759.808 501.654 755.986 504.087C742.98 512.366 730.444 521.107 718.558 530.938L717.369 531.461C716.728 533.186 714.683 534.437 713.279 535.593C710.245 538.091 705.165 541.738 703.284 545.118C700.716 539.026 698.625 532.994 697.323 526.504C694.205 512.963 695.298 499.607 698.766 486.271L703.656 476.253C710.056 465.231 721.981 456.535 732.829 450.324C736.3 448.337 739.939 445.988 743.819 444.941Z"/>
	<path fill="#023050" transform="scale(0.488281 0.488281)" d="M723.82 493.164C725.866 490.168 727.143 486.621 729.083 483.523C734.274 475.233 740.2 468.136 746.82 460.978C745.767 464.007 742.234 467.429 740.25 469.982C736.719 474.526 732.794 480.066 730.651 485.393L730.482 485.832C722.949 499.944 718.207 514.864 718.558 530.938L717.369 531.461C716.337 517.46 718.361 506.059 723.82 493.164Z"/>
	<path fill="#0EAA6A" transform="scale(0.488281 0.488281)" d="M697.323 526.504C700.379 524.558 702.523 518.118 704.346 514.876C707.65 509.001 711.489 503.653 716.073 498.7C718.088 496.524 720.123 494.205 722.75 492.764L723.82 493.164C718.361 506.059 716.337 517.46 717.369 531.461C716.728 533.186 714.683 534.437 713.279 535.593C710.245 538.091 705.165 541.738 703.284 545.118C700.716 539.026 698.625 532.994 697.323 526.504Z"/>
	<path fill="#15C481" transform="scale(0.488281 0.488281)" d="M730.482 485.832C734.736 483.775 738.597 480.721 742.77 478.446C755.029 471.766 767.405 466.442 780.85 462.648C776.529 470.653 772.938 478.723 770.492 487.5C769.834 489.86 768.815 492.565 768.832 495.022C766.928 499.019 759.808 501.654 755.986 504.087C742.98 512.366 730.444 521.107 718.558 530.938C718.207 514.864 722.949 499.944 730.482 485.832Z"/>
	<path fill="#023050" transform="scale(0.488281 0.488281)" d="M686.585 122.127C694.437 118.802 703.279 116.704 711.558 114.691C738.637 108.104 765.797 104.7 793.584 102.922L790.459 106.612L768.977 137.487C756.904 156.03 746.135 175.622 737.773 196.122C732.812 208.285 728.682 220.705 725.238 233.377C720.48 250.889 716.62 269.113 709.196 285.727C700.24 305.771 686.22 322.697 667.362 334.103C652.605 343.029 637.138 348.632 620.197 351.675C604.587 354.479 589.572 353.89 574.685 348.181L572.875 347.431L572.619 347.478C571.129 346.773 569.841 345.969 568.486 345.032C568.495 342.576 569.97 339.542 570.746 337.207C574.817 324.956 579.846 313.019 585.281 301.317L599.89 272.15L607.917 258.174C608.751 256.742 610.503 254.368 610.92 252.801C611.375 251.092 610.347 245.794 610.195 243.823C609.799 238.667 609.583 233.42 609.758 228.248C610.184 215.704 612.174 203.513 614.533 191.211L615.708 190.551L616.046 189.748C616.975 188.086 619.88 186.153 621.36 184.909C630.691 177.066 640.803 170.324 651.441 164.406C656.756 161.449 662.048 158.51 667.825 156.551C671.476 145.01 676.251 132.597 684.01 123.144L686.585 122.127Z"/>
	<path fill="#56EAAE" transform="scale(0.488281 0.488281)" d="M672.059 153.501C687.479 148.158 702.134 140.698 717.379 134.836C723.913 132.324 730.895 128.932 737.998 128.99C731.513 132.686 723.884 136.509 718.184 141.238L717.802 141.437C712.812 144.118 708.029 147.98 703.47 151.333C688.754 162.159 674.124 173.7 662.476 187.856C665.677 176.645 667.494 164.212 672.042 153.507L672.059 153.501Z"/>
	<path fill="#15C481" transform="scale(0.488281 0.488281)" d="M686.585 122.127C694.437 118.802 703.279 116.704 711.558 114.691C738.637 108.104 765.797 104.7 793.584 102.922L790.459 106.612C786.666 107.914 784.175 110.386 780.864 112.497C777.543 112.112 770.733 113.364 767.852 115.25C757.279 118.87 747.973 124.129 737.998 128.99C730.895 128.932 723.913 132.324 717.379 134.836C702.134 140.698 687.479 148.158 672.059 153.501C674.935 142.606 681.158 131.929 686.585 122.127Z"/>
	<path fill="#56EAAE" transform="scale(0.488281 0.488281)" d="M615.708 190.551L616.046 189.748C616.975 188.086 619.88 186.153 621.36 184.909C630.691 177.066 640.803 170.324 651.441 164.406C656.756 161.449 662.048 158.51 667.825 156.551L661.94 173.361L657.699 187.266C656.893 189.928 656.458 192.688 654.49 194.75C646.213 203.422 638.663 213.079 631.475 222.669L620.19 238.659C618.676 240.911 616.33 245.679 614.282 247.189C612.768 228.694 613.17 208.975 615.708 190.551Z"/>
	<path fill="#0EAA6A" transform="scale(0.488281 0.488281)" d="M767.852 115.25C770.733 113.364 777.543 112.112 780.864 112.497C775.443 117.511 769.86 122.167 764.751 127.523C753.005 139.835 742.207 153.753 731.776 167.187C730.02 169.45 724.937 174.692 724.65 177.3C706.99 186.037 686.043 188.048 666.656 188.991L719.366 144.196C730.409 136.934 741 129.998 752.679 123.718L762.318 118.456C763.889 117.692 767.144 116.794 767.852 115.25Z"/>
	<path fill="#0EAA6A" transform="scale(0.488281 0.488281)" d="M581.72 319.845C588.196 301.457 598.022 283.925 607.784 267.133C608.356 266.148 609.99 262.782 610.831 262.222C612.477 261.128 625.236 260.555 628.235 260.19C642.513 258.451 656.137 254.885 670.002 251.196C669.692 254.3 665.392 258.808 663.419 261.231C655.755 270.641 647.778 280.064 638.365 287.796C625.099 298.693 610.278 309.096 594.411 315.793C590.515 317.438 585.93 319.361 581.72 319.845Z"/>
	<path fill="#0EAA6A" transform="scale(0.488281 0.488281)" d="M719.453 181.723C719.665 182.556 719.852 182.525 719.385 183.309C709.092 200.611 695.968 216.4 684.198 232.733C680.998 237.174 677.082 241.478 674.388 246.227C669.272 248.441 663.99 249.74 658.629 251.189C643.525 255.272 628.304 257.035 612.696 257.553C624.617 237.218 639.55 217.704 655.381 200.245C657.206 198.231 660.696 193.656 663.157 192.709C664.337 192.255 666.494 192.427 667.807 192.363L677.974 191.684C692.566 190.19 705.897 187.398 719.453 181.723Z"/>
	<path fill="#058A54" transform="scale(0.488281 0.488281)" d="M780.864 112.497C784.175 110.386 786.666 107.914 790.459 106.612L768.977 137.487C756.904 156.03 746.135 175.622 737.773 196.122C732.812 208.285 728.682 220.705 725.238 233.377C720.48 250.889 716.62 269.113 709.196 285.727C700.24 305.771 686.22 322.697 667.362 334.103C652.605 343.029 637.138 348.632 620.197 351.675C604.587 354.479 589.572 353.89 574.685 348.181L572.875 347.431L572.067 346L581.72 319.845C585.93 319.361 590.515 317.438 594.411 315.793C610.278 309.096 625.099 298.693 638.365 287.796C647.778 280.064 655.755 270.641 663.419 261.231C665.392 258.808 669.692 254.3 670.002 251.196C687.635 245.677 703.424 238.344 718.615 227.779C716.404 228.205 713.889 229.808 711.845 230.813L699.223 236.873C691.181 240.491 682.813 243.623 674.388 246.227C677.082 241.478 680.998 237.174 684.198 232.733C695.968 216.4 709.092 200.611 719.385 183.309C719.852 182.525 719.665 182.556 719.453 181.723L725.474 177.804L724.65 177.3C724.937 174.692 730.02 169.45 731.776 167.187C742.207 153.753 753.005 139.835 764.751 127.523C769.86 122.167 775.443 117.511 780.864 112.497Z"/>
</svg>
