<?xml version="1.0" encoding="utf-8" ?>
<svg xmlns="http://www.w3.org/2000/svg" xmlns:xlink="http://www.w3.org/1999/xlink" width="500" height="500">
	<path fill="#6D5C9C" transform="scale(0.488281 0.488281)" d="M381.599 1024L-0 1024L0 -0L1024 0L1024 459.972L1024 1024L381.599 1024Z"/>
	<path fill="#3F2E5D" transform="scale(0.488281 0.488281)" d="M291.665 350.557C298.52 353.751 303.857 352.272 310.939 352.795L310.528 371.747C307.803 369.548 305.356 366.583 302.936 364.04C298.923 359.824 294.628 355.603 291.665 350.557Z"/>
	<path fill="#F6C225" transform="scale(0.488281 0.488281)" d="M584.385 216.052L584.523 131.854L584.492 102.578C584.486 97.1549 583.614 89.9309 585.185 84.7979L585.445 84C586.696 79.7947 588.206 76.4376 590.996 73C596.889 65.7402 603.758 62.7714 612.942 61.9125L613.161 72.8508C613.169 74.5483 612.878 76.7239 613.421 78.3275L612.972 78.3689C608.008 79.0561 603.091 81.1589 600.035 85.281C598.187 87.7742 597.494 90.3834 597.203 93.42C596.756 98.0693 597.054 102.976 597.056 107.66L597.08 133.994L596.959 216.13L584.385 216.052Z"/>
	<path fill="#F6C225" transform="scale(0.488281 0.488281)" d="M378.431 215.99L378.12 128.291L378.011 102.771C378.001 97.9934 377.666 92.8534 378.265 88.1214C378.851 83.502 380.814 78.7737 383.495 75C388.644 67.7524 395.905 63.6171 404.593 62.1479L406.144 62.9851C406.863 66.6158 407.592 74.4957 406.448 77.9572L406.232 78.2187C401.333 79.1938 396.612 81.6054 393.75 85.8459C392.6 87.5493 391.701 89.4427 391.483 91.5C390.968 96.3658 391.223 101.492 391.215 106.385L391.197 132.255L391.14 216.044L378.431 215.99Z"/>
	<path fill="#F1F3ED" transform="scale(0.488281 0.488281)" d="M406.232 78.2187C406.494 78.5662 406.855 78.858 407.019 79.2612C407.653 80.8175 407.029 85.7185 407.031 87.7474L406.976 125.643L407.111 216.06L391.14 216.044L391.197 132.255L391.215 106.385C391.223 101.492 390.968 96.3658 391.483 91.5C391.701 89.4427 392.6 87.5493 393.75 85.8459C396.612 81.6054 401.333 79.1938 406.232 78.2187Z"/>
	<path fill="#F28669" transform="scale(0.488281 0.488281)" d="M335.543 308.165L335.52 233.314C335.543 228.682 337.597 223.463 341.006 220.289C348.499 213.314 361.652 215.489 371.124 215.774C368.67 219.01 366.739 221.893 366.008 226C364.706 233.311 365.609 241.881 365.653 249.378L365.838 307.736L335.543 308.165Z"/>
	<path fill="#ECA322" transform="scale(0.488281 0.488281)" d="M404.593 62.1479C414.208 61.703 421.723 63.3266 429.02 70.0028C429.411 70.3608 429.769 70.6925 430.196 71.007C434.052 73.7321 437.968 77.9452 441.352 81.3074C440.394 81.2701 440.003 81.4562 439.246 80.8243C439.745 82.6317 440.799 83.2093 441.914 84.5749C446.428 90.1078 450.894 96.619 452.026 103.75L452.162 104.56C452.849 109 452.594 113.71 452.634 118.207L452.844 140.75L452.439 215.917L445.368 215.979L437.662 215.997L425.49 216.083L407.111 216.06L406.976 125.643L407.031 87.7474C407.029 85.7185 407.653 80.8175 407.019 79.2612C406.855 78.858 406.494 78.5662 406.232 78.2187L406.448 77.9572C407.592 74.4957 406.863 66.6158 406.144 62.9851L404.593 62.1479Z"/>
	<path fill="#3F2E5D" transform="scale(0.488281 0.488281)" d="M430.196 71.007C434.052 73.7321 437.968 77.9452 441.352 81.3074C440.394 81.2701 440.003 81.4562 439.246 80.8243C439.745 82.6317 440.799 83.2093 441.914 84.5749C446.428 90.1078 450.894 96.619 452.026 103.75L452.162 104.56C452.849 109 452.594 113.71 452.634 118.207L452.844 140.75L452.439 215.917L445.368 215.979L437.662 215.997L437.663 127.056L437.623 100.249C437.614 95.5043 437.995 90.3483 437.231 85.6758C436.319 80.1058 433.519 75.428 430.196 71.007Z"/>
	<path fill="#CCD8D4" transform="scale(0.488281 0.488281)" d="M406.448 77.9572C412.253 78.1153 417.171 78.9503 421.366 83.4385C424.018 86.2764 424.88 89.1325 425.303 92.9198C425.785 97.2261 425.424 101.914 425.417 106.255L425.359 132.672L425.49 216.083L407.111 216.06L406.976 125.643L407.031 87.7474C407.029 85.7185 407.653 80.8175 407.019 79.2612C406.855 78.858 406.494 78.5662 406.232 78.2187L406.448 77.9572Z"/>
	<path fill="#E9704A" transform="scale(0.488281 0.488281)" d="M437.662 215.997L445.368 215.979C447.295 218.424 449.099 220.702 450.488 223.5L450.777 224.048C452.869 228.303 452.104 296.442 451.93 307.523L427.339 307.506L365.838 307.736L365.653 249.378C365.609 241.881 364.706 233.311 366.008 226C366.739 221.893 368.67 219.01 371.124 215.774L378.431 215.99L391.14 216.044L407.111 216.06L425.49 216.083L437.662 215.997Z"/>
	<path fill="#CCD8D4" transform="scale(0.488281 0.488281)" d="M612.942 61.9125C623.359 62.7393 629.538 65.2257 636.663 73.0909C644.25 78.1208 649.751 85.2561 656.391 91.3207L656.537 216.232L647.612 216.153L641.909 216.047C638.776 216.304 632.054 216.901 629.278 215.684C627.577 217.077 602.134 216.423 597.915 216.077L596.959 216.13L597.08 133.994L597.056 107.66C597.054 102.976 596.756 98.0693 597.203 93.42C597.494 90.3834 598.187 87.7742 600.035 85.281C603.091 81.1589 608.008 79.0561 612.972 78.3689L613.421 78.3275C612.878 76.7239 613.169 74.5483 613.161 72.8508L612.942 61.9125Z"/>
	<path fill="#F1F3ED" transform="scale(0.488281 0.488281)" d="M596.959 216.13L597.08 133.994L597.056 107.66C597.054 102.976 596.756 98.0693 597.203 93.42C597.494 90.3834 598.187 87.7742 600.035 85.281C603.091 81.1589 608.008 79.0561 612.972 78.3689L612.266 215.961L597.915 216.077L596.959 216.13Z"/>
	<path fill="#ECA322" transform="scale(0.488281 0.488281)" d="M612.942 61.9125C623.359 62.7393 629.538 65.2257 636.663 73.0909C644.25 78.1208 649.751 85.2561 656.391 91.3207L656.537 216.232L647.612 216.153L641.909 216.047C638.776 216.304 632.054 216.901 629.278 215.684L629.094 135.181L629.036 105.993C629.02 101.154 629.427 95.8093 628.799 91.028C628.433 88.2386 627.587 85.9393 625.75 83.7828C622.491 79.9569 618.24 78.6376 613.421 78.3275C612.878 76.7239 613.169 74.5483 613.161 72.8508L612.942 61.9125Z"/>
	<path fill="#3F2E5D" transform="scale(0.488281 0.488281)" d="M636.663 73.0909C644.25 78.1208 649.751 85.2561 656.391 91.3207L656.537 216.232L647.612 216.153L641.909 216.047L641.987 125.882L642.012 99.7078C642.009 95.0572 642.399 90.0313 641.66 85.4417C640.912 80.8022 638.995 77.0868 636.663 73.0909Z"/>
	<path fill="#5C3B72" transform="scale(0.488281 0.488281)" d="M452.439 215.917L452.844 140.75L452.634 118.207C452.594 113.71 452.849 109 452.162 104.56L452.026 103.75C450.894 96.619 446.428 90.1078 441.914 84.5749C440.799 83.2093 439.745 82.6317 439.246 80.8243C440.003 81.4562 440.394 81.2701 441.352 81.3074C445.353 84.5998 448.883 88.5394 452.626 92.1244L476.496 115.171L535.467 173.621L570.203 207.905C572.901 210.574 576.8 212.967 578.952 216.01L584.385 216.052L596.959 216.13L597.915 216.077C602.134 216.423 627.577 217.077 629.278 215.684C632.054 216.901 638.776 216.304 641.909 216.047L647.612 216.153C649.196 218.911 650.802 221.563 652.048 224.5L652.33 225.151C653.481 228.041 653.063 231.894 653.06 234.993L653.054 252.724L652.988 307.537L568.581 307.582L537.003 307.65L497.958 307.654L482.482 307.587L451.93 307.523C452.104 296.442 452.869 228.303 450.777 224.048L450.488 223.5C449.099 220.702 447.295 218.424 445.368 215.979L452.439 215.917Z"/>
	<path fill="#3F2E5D" transform="scale(0.488281 0.488281)" d="M482.274 229.362C489.33 234.94 496.749 240.842 497.92 250.453L497.958 307.654L482.482 307.587L482.584 257.36C482.626 248.187 483.33 238.468 482.274 229.362Z"/>
	<path fill="#DB5738" transform="scale(0.488281 0.488281)" d="M452.439 215.917C460.838 215.568 470.038 214.177 476.693 220.563C479.341 223.104 480.673 226.146 482.274 229.362C483.33 238.468 482.626 248.187 482.584 257.36L482.482 307.587L451.93 307.523C452.104 296.442 452.869 228.303 450.777 224.048L450.488 223.5C449.099 220.702 447.295 218.424 445.368 215.979L452.439 215.917Z"/>
	<path fill="#F28669" transform="scale(0.488281 0.488281)" d="M537.003 307.65L536.96 254.115L536.947 239.719C536.95 237.085 536.726 234.137 537.199 231.542C537.886 227.774 539.579 224.293 542.25 221.536C547.987 215.616 555.314 215.997 562.855 216.011C565.001 218.402 567.44 220.952 568.242 224.161C569.324 228.49 568.925 233.555 568.931 238.004L568.912 260.188C568.901 275.377 569.607 290.967 568.718 306.118L568.581 307.582L537.003 307.65Z"/>
	<path fill="#E9704A" transform="scale(0.488281 0.488281)" d="M629.278 215.684C632.054 216.901 638.776 216.304 641.909 216.047L647.612 216.153C649.196 218.911 650.802 221.563 652.048 224.5L652.33 225.151C653.481 228.041 653.063 231.894 653.06 234.993L653.054 252.724L652.988 307.537L568.581 307.582L568.718 306.118C569.607 290.967 568.901 275.377 568.912 260.188L568.931 238.004C568.925 233.555 569.324 228.49 568.242 224.161C567.44 220.952 565.001 218.402 562.855 216.011L578.952 216.01L584.385 216.052L596.959 216.13L597.915 216.077C602.134 216.423 627.577 217.077 629.278 215.684Z"/>
	<path fill="#5C3B72" transform="scale(0.488281 0.488281)" d="M324.071 589.036L335.538 608.288L345.66 621.381L360.3 636.577C377.974 652.036 396.435 664.018 418.304 672.694C423.024 674.566 428.419 676.913 433.45 677.733L433.139 697.054L433.185 700.54L433.082 730.343C433.069 736.364 432.311 743.745 434.014 749.51C436.814 758.134 441.197 761.89 448.297 766.929L493.522 767.44L531.014 767.554L531.204 818.677C531.245 828.975 531.883 839.76 530.619 849.996C526.939 879.792 511.843 908.937 490.882 930.221C463.334 958.194 425.679 973.359 386.5 973.345C362.035 973.337 337.47 966.405 316.186 954.406C310.041 950.942 304.465 946.841 298.519 943.124C295.609 940.602 293.013 938.077 290.616 935.041C290.55 934.778 290.231 934.658 290.019 934.49C282.979 928.91 275.992 923.277 269.652 916.897C257.035 904.202 246.464 888.981 238.173 873.146C213.152 825.359 210.998 766.984 226.958 716C240.786 671.829 269.26 633.085 304.696 603.819C310.622 598.925 317.313 592.559 324.071 589.036Z"/>
	<path fill="#3F2E5D" transform="scale(0.488281 0.488281)" d="M448.297 766.929L493.522 767.44L493.593 786.997L472.852 786.908C472.325 786.897 471.374 786.975 470.894 786.867C470.215 786.715 468.892 785.653 468.302 785.25C464.379 782.57 461.114 778.687 457.628 775.459C454.528 772.589 451.227 769.977 448.297 766.929Z"/>
	<path fill="#3F2E5D" transform="scale(0.488281 0.488281)" d="M345.66 621.381L360.3 636.577C377.974 652.036 396.435 664.018 418.304 672.694C423.024 674.566 428.419 676.913 433.45 677.733L433.139 697.054L411.625 685.355C391.216 673.184 375.49 657.64 360.564 639.38C359.959 639.246 359.369 639.001 358.75 638.979C357.882 638.948 355.693 640.392 354.896 640.86L343.803 647.551C303.219 673.508 272.184 716.934 261.857 764.048C258.867 777.691 257.319 791.668 257.637 805.635C257.775 811.704 258.983 817.681 258.597 823.772C256.316 817.274 255.202 810.126 254.382 803.308C252.475 787.45 253.067 771.725 255.625 755.972C261.234 721.422 277.17 688.374 300.083 661.923C313.191 646.791 329.445 633.083 345.66 621.381Z"/>
	<path fill="#2EBAAC" transform="scale(0.488281 0.488281)" d="M324.071 589.036L335.538 608.288L345.66 621.381C329.445 633.083 313.191 646.791 300.083 661.923C277.17 688.374 261.234 721.422 255.625 755.972C253.067 771.725 252.475 787.45 254.382 803.308C255.202 810.126 256.316 817.274 258.597 823.772C265.53 858.006 287.917 889.517 316.865 908.679C344.779 927.157 378.074 933.942 410.966 927.325C432.823 922.928 452.518 912.551 468.355 896.856C472.933 892.319 476.638 886.823 481.263 882.431C486.707 873.007 490.279 863.613 492.656 853C494.102 846.539 493.942 840.074 493.93 833.494L493.823 810.626L493.593 786.997L493.522 767.44L531.014 767.554L531.204 818.677C531.245 828.975 531.883 839.76 530.619 849.996C526.939 879.792 511.843 908.937 490.882 930.221C463.334 958.194 425.679 973.359 386.5 973.345C362.035 973.337 337.47 966.405 316.186 954.406C310.041 950.942 304.465 946.841 298.519 943.124C295.609 940.602 293.013 938.077 290.616 935.041C290.55 934.778 290.231 934.658 290.019 934.49C282.979 928.91 275.992 923.277 269.652 916.897C257.035 904.202 246.464 888.981 238.173 873.146C213.152 825.359 210.998 766.984 226.958 716C240.786 671.829 269.26 633.085 304.696 603.819C310.622 598.925 317.313 592.559 324.071 589.036Z"/>
	<path fill="#0D8376" transform="scale(0.488281 0.488281)" d="M493.522 767.44L531.014 767.554L531.204 818.677C531.245 828.975 531.883 839.76 530.619 849.996C526.939 879.792 511.843 908.937 490.882 930.221C463.334 958.194 425.679 973.359 386.5 973.345C362.035 973.337 337.47 966.405 316.186 954.406C310.041 950.942 304.465 946.841 298.519 943.124C295.609 940.602 293.013 938.077 290.616 935.041C296.08 937.917 301.026 941.758 306.508 944.68C319.392 951.547 333.833 957.464 348.175 960.368C358.936 962.547 369.606 963.098 380.545 963.087C416.798 963.049 453.2 947.697 478.805 921.996C487.988 912.779 495.79 901.854 501.747 890.296C506.77 880.549 511.323 869.726 513.444 858.917C515.827 846.771 515.649 834.604 515.777 822.287L515.862 780.637C508.092 779.498 501.163 778.731 493.855 782.091L493.823 810.626L493.593 786.997L493.522 767.44Z"/>
	<path fill="#0D8376" transform="scale(0.488281 0.488281)" d="M481.263 882.431C479.889 886.944 476.842 890.997 473.989 894.716C466.746 904.156 458.429 912.594 448.777 919.576C423.949 937.535 390.927 945.204 360.677 940.153C323.767 933.991 289.954 912.745 268.25 882.191C242.101 845.379 231.867 798.681 239.385 754.209C241.876 739.471 245.643 724.888 251.207 710.999C268.089 668.855 298.84 634.407 335.538 608.288L345.66 621.381C329.445 633.083 313.191 646.791 300.083 661.923C277.17 688.374 261.234 721.422 255.625 755.972C253.067 771.725 252.475 787.45 254.382 803.308C255.202 810.126 256.316 817.274 258.597 823.772C265.53 858.006 287.917 889.517 316.865 908.679C344.779 927.157 378.074 933.942 410.966 927.325C432.823 922.928 452.518 912.551 468.355 896.856C472.933 892.319 476.638 886.823 481.263 882.431Z"/>
	<path fill="#85BF4A" transform="scale(0.488281 0.488281)" d="M482.482 307.587L497.958 307.654L537.003 307.65L568.581 307.582L652.988 307.537L666.328 307.685C667.312 310.16 668.724 311.94 670.378 313.977C674.241 315.37 676.513 317.246 678.291 320.953C679.016 322.464 679.296 323.869 679.582 325.5L679.705 326.143C680.793 332.235 680.646 342.634 676.857 347.699C675.405 349.639 673.491 351.173 671.48 352.494C674.149 352.536 677.168 352.301 679.764 352.909L713.353 352.953L713.06 392.025L712.836 478.124C712.772 498.703 713.582 519.712 711.117 540.158C706.672 577.015 687.347 612.511 661.248 638.479C645.901 653.749 626.965 665.977 606.923 674.088C600.95 676.505 594.474 678.983 588.06 679.859L588.034 700.94L587.987 729.406C587.967 735.94 588.152 742.505 587.392 749.005C586.133 754.996 582.485 760.765 577.257 764.137C569.794 768.95 558.694 767.541 550.235 767.569L531.014 767.554L493.522 767.44L448.297 766.929C441.197 761.89 436.814 758.134 434.014 749.51C432.311 743.745 433.069 736.364 433.082 730.343L433.185 700.54L433.139 697.054L433.45 677.733C428.419 676.913 423.024 674.566 418.304 672.694C396.435 664.018 377.974 652.036 360.3 636.577L345.66 621.381L335.538 608.288L324.071 589.036C317.436 574.929 312.915 560.868 310.86 545.358C309.994 538.824 310.26 531.952 310.202 525.365L310.043 493.714L310.025 391.936L310.528 371.747L310.939 352.795C303.857 352.272 298.52 353.751 291.665 350.557C288.556 347.513 285.337 343.797 285.014 339.25C284.799 336.214 284.943 333.051 284.965 330.005C285.007 324.257 284.803 320.177 288.796 315.595C291.601 312.377 295.885 309.906 300 308.897C303.487 308.043 307.837 308.484 311.427 308.468L335.543 308.165L365.838 307.736L427.339 307.506L451.93 307.523L482.482 307.587Z"/>
	<path fill="#624D13" transform="scale(0.488281 0.488281)" d="M581.405 462.338C579.428 461.687 577.631 460.796 575.891 459.645C572.156 457.174 569.787 453.149 569.124 448.735C568.402 443.927 569.345 439.451 572.224 435.483C574.643 432.148 578.8 429.202 582.947 428.614C588.965 427.761 596.2 428.475 602.332 428.476C609.027 428.477 617.15 427.643 623.692 428.706C626.423 429.15 629.063 430.339 631.25 432.02C636.229 435.848 637.281 440.668 638.09 446.55C637.541 445.298 637.063 444.123 636.704 442.803C636.057 440.428 633.742 437.957 631.592 436.832C630.207 436.107 628.433 435.647 626.876 435.538C619.048 434.986 610.798 435.458 602.926 435.484C597.995 435.501 591.205 434.731 586.573 436.468L584.75 437.297L584.239 437.538C580.866 439.244 577.767 443.481 576.71 447.02C575.626 450.648 575.856 454.813 577.891 458.084C578.855 459.632 580.161 461.014 581.405 462.338Z"/>
	<path fill="#624D13" transform="scale(0.488281 0.488281)" d="M580.43 504.751L577.385 503.166C573.579 500.787 570.484 496.645 569.549 492.25C568.49 487.271 569.154 482.034 572.001 477.765C574.429 474.125 578.549 471.553 582.861 470.859C588.171 470.006 594.284 470.84 599.678 470.861L615.333 470.872C618.275 470.877 621.448 470.675 624.347 471.165C626.844 471.588 629.298 472.696 631.305 474.234C635.261 477.265 637.151 481.265 637.686 486.128C636.091 482.168 634.999 480.23 631.251 478.077L602.782 477.892C597.851 477.916 592.416 477.433 587.599 478.445C585.399 478.908 583.421 480.031 581.769 481.548C578.49 484.56 576.674 489.892 576.597 494.25C576.531 497.993 577.955 501.484 580.39 504.286L580.43 504.751Z"/>
	<path fill="#624D13" transform="scale(0.488281 0.488281)" d="M580.909 547.331C576.165 545.529 572.436 541.857 570.424 537.185C568.895 533.637 568.709 527.758 570.269 524.207C572.194 519.824 575.783 516.213 580.329 514.582L580.993 514.356C584.169 513.241 587.607 513.416 590.934 513.396L604.549 513.344L617.342 513.347C620.35 513.354 623.684 513.131 626.486 514.391L627.229 514.75C629.858 515.959 632.049 517.134 634.024 519.308C637.194 522.795 638.104 527.13 637.952 531.688C637.265 528.128 636.69 524.576 633.425 522.461C630.266 520.414 624.561 520.988 620.955 520.974L605.06 520.954C599.711 520.96 592.655 520.183 587.518 521.603C583.545 522.701 580.654 525.106 578.682 528.734C576.681 532.415 575.963 536.622 577.218 540.657C577.948 543.003 579.201 545.043 580.865 546.83L580.909 547.331Z"/>
	<path fill="#9A722B" transform="scale(0.488281 0.488281)" d="M580.909 547.331L580.865 546.83C579.201 545.043 577.948 543.003 577.218 540.657C575.963 536.622 576.681 532.415 578.682 528.734C580.654 525.106 583.545 522.701 587.518 521.603C592.655 520.183 599.711 520.96 605.06 520.954L620.955 520.974C624.561 520.988 630.266 520.414 633.425 522.461C636.69 524.576 637.265 528.128 637.952 531.688C637.092 537.077 635.228 542.191 630.59 545.483C629 546.611 626.649 547.645 624.71 547.945C617.104 549.119 608.416 548.258 600.657 548.221C594.807 548.193 588.257 548.787 582.5 547.884C581.909 547.791 581.447 547.576 580.909 547.331Z"/>
	<path fill="#9A722B" transform="scale(0.488281 0.488281)" d="M581.405 462.338C580.161 461.014 578.855 459.632 577.891 458.084C575.856 454.813 575.626 450.648 576.71 447.02C577.767 443.481 580.866 439.244 584.239 437.538L584.75 437.297L586.573 436.468C591.205 434.731 597.995 435.501 602.926 435.484C610.798 435.458 619.048 434.986 626.876 435.538C628.433 435.647 630.207 436.107 631.592 436.832C633.742 437.957 636.057 440.428 636.704 442.803C637.063 444.123 637.541 445.298 638.09 446.55C637.305 452.496 636.087 457.471 630.922 461.215C629.782 462.041 628.648 462.668 627.25 462.912C624.394 463.41 621.206 463.204 618.301 463.21L603.779 463.187C597.093 463.159 589.589 463.774 583 462.955C582.39 462.879 581.938 462.617 581.405 462.338Z"/>
	<path fill="#9A722B" transform="scale(0.488281 0.488281)" d="M580.43 504.751L580.39 504.286C577.955 501.484 576.531 497.993 576.597 494.25C576.674 489.892 578.49 484.56 581.769 481.548C583.421 480.031 585.399 478.908 587.599 478.445C592.416 477.433 597.851 477.916 602.782 477.892L631.251 478.077C634.999 480.23 636.091 482.168 637.686 486.128C638.65 489.847 637.114 495.063 635.257 498.339C633.485 501.464 630.336 504.497 626.757 505.356C622.829 506.298 617.294 505.674 613.205 505.718L592.252 505.9C588.817 505.918 583.475 506.366 580.43 504.751Z"/>
	<path fill="#50852D" transform="scale(0.488281 0.488281)" d="M310.939 352.795L355.173 352.9L355.066 392.001L310.025 391.936L310.528 371.747L310.939 352.795Z"/>
	<path fill="#639D38" transform="scale(0.488281 0.488281)" d="M669.561 391.846L713.06 392.025L712.836 478.124C712.772 498.703 713.582 519.712 711.117 540.158C706.672 577.015 687.347 612.511 661.248 638.479C645.901 653.749 626.965 665.977 606.923 674.088C600.95 676.505 594.474 678.983 588.06 679.859C569.633 683.868 551.808 685.316 533.039 685.555C528.373 685.615 523.349 686.037 518.75 685.317L515.299 684.945L525.004 683.399C569.976 675.615 612.108 653.682 638.678 615.622C655.739 591.183 666.253 563.42 668.54 533.633C669.373 522.791 669.074 511.801 669.108 500.927L669.284 448.417L669.448 410.005C669.469 404.215 670.188 397.662 669.199 392.008L669.561 391.846Z"/>
	<path fill="#85BF4A" transform="scale(0.488281 0.488281)" d="M433.45 677.733C446.812 681.623 460.423 683.343 474.25 684.546C487.76 685.722 501.767 686.125 515.299 684.945L518.75 685.317C523.349 686.037 528.373 685.615 533.039 685.555C551.808 685.316 569.633 683.868 588.06 679.859L588.034 700.94L587.987 729.406C587.967 735.94 588.152 742.505 587.392 749.005C586.133 754.996 582.485 760.765 577.257 764.137C569.794 768.95 558.694 767.541 550.235 767.569L531.014 767.554L493.522 767.44L448.297 766.929C441.197 761.89 436.814 758.134 434.014 749.51C432.311 743.745 433.069 736.364 433.082 730.343L433.185 700.54L433.139 697.054L433.45 677.733Z"/>
	<path fill="#50852D" transform="scale(0.488281 0.488281)" d="M539.424 749.012L587.392 749.005C586.133 754.996 582.485 760.765 577.257 764.137C569.794 768.95 558.694 767.541 550.235 767.569L531.014 767.554L493.522 767.44L448.297 766.929C441.197 761.89 436.814 758.134 434.014 749.51L539.424 749.012Z"/>
	<path fill="#50852D" transform="scale(0.488281 0.488281)" d="M433.45 677.733C446.812 681.623 460.423 683.343 474.25 684.546C487.76 685.722 501.767 686.125 515.299 684.945L518.75 685.317C523.349 686.037 528.373 685.615 533.039 685.555C551.808 685.316 569.633 683.868 588.06 679.859L588.034 700.94L587.987 729.406C587.967 735.94 588.152 742.505 587.392 749.005L539.424 749.012L539.412 700.626L459.67 700.284C455.181 700.263 435.679 699.234 433.185 700.54L433.139 697.054L433.45 677.733Z"/>
	<path fill="#639D38" transform="scale(0.488281 0.488281)" d="M539.412 700.626C544.646 701.379 550.228 701.02 555.518 701.016L588.034 700.94L587.987 729.406C587.967 735.94 588.152 742.505 587.392 749.005L539.424 749.012L539.412 700.626Z"/>
	<path fill="#B5D585" transform="scale(0.488281 0.488281)" d="M355.173 352.9L355.494 352.805C369.243 353.596 383.346 352.926 397.131 352.897C404.551 352.881 413.17 353.755 420.463 352.786L420.793 352.924L420.931 392.049L421.136 489.637L421.061 527.573C421.052 536.994 420.884 546.513 421.725 555.905C424.906 591.402 440.723 626.039 466.087 651.166L490.579 671.702C479.876 668.617 469.247 665.282 459.013 660.846C423.002 645.236 390.993 619.853 372.033 585C364.309 570.803 359.325 555.481 356.866 539.519C354.29 522.803 355.418 505.066 355.425 488.172L355.152 392.358L355.066 392.001L355.173 352.9Z"/>
	<path fill="#639D38" transform="scale(0.488281 0.488281)" d="M355.173 352.9L355.494 352.805C369.243 353.596 383.346 352.926 397.131 352.897C404.551 352.881 413.17 353.755 420.463 352.786L420.793 352.924L420.931 392.049L374.014 392.057C370.207 392.037 357.986 391.093 355.152 392.358L355.066 392.001L355.173 352.9Z"/>
	<path fill="#85BF4A" transform="scale(0.488281 0.488281)" d="M482.482 307.587L497.958 307.654L537.003 307.65L568.581 307.582L652.988 307.537L666.328 307.685C667.312 310.16 668.724 311.94 670.378 313.977C674.241 315.37 676.513 317.246 678.291 320.953C679.016 322.464 679.296 323.869 679.582 325.5L679.705 326.143C680.793 332.235 680.646 342.634 676.857 347.699C675.405 349.639 673.491 351.173 671.48 352.494C674.149 352.536 677.168 352.301 679.764 352.909L713.353 352.953L713.06 392.025L669.561 391.846L669.199 392.008L420.931 392.049L420.793 352.924L420.463 352.786C413.17 353.755 404.551 352.881 397.131 352.897C383.346 352.926 369.243 353.596 355.494 352.805L355.173 352.9L310.939 352.795C303.857 352.272 298.52 353.751 291.665 350.557C288.556 347.513 285.337 343.797 285.014 339.25C284.799 336.214 284.943 333.051 284.965 330.005C285.007 324.257 284.803 320.177 288.796 315.595C291.601 312.377 295.885 309.906 300 308.897C303.487 308.043 307.837 308.484 311.427 308.468L335.543 308.165L365.838 307.736L427.339 307.506L451.93 307.523L482.482 307.587Z"/>
	<path fill="#639D38" transform="scale(0.488281 0.488281)" d="M482.482 307.587L497.958 307.654L537.003 307.65L568.581 307.582L652.988 307.537L666.328 307.685C667.312 310.16 668.724 311.94 670.378 313.977L428.25 312.42C427.337 311.136 427.449 309.06 427.339 307.506L451.93 307.523L482.482 307.587Z"/>
	<path fill="#B5D585" transform="scale(0.488281 0.488281)" d="M355.494 352.805C355.041 347.849 355.331 342.71 355.367 337.733C355.41 331.861 354.104 322.761 358.25 318.046C362.642 313.051 371.516 314.41 377.547 314.354L399.587 314.162C403.89 314.134 408.812 313.713 413.012 314.704C414.528 315.062 416.278 316.082 417.397 317.151C418.808 318.5 419.987 320.684 420.348 322.601C421.001 326.065 420.676 330.065 420.681 333.607L420.636 350.75L420.463 352.786C413.17 353.755 404.551 352.881 397.131 352.897C383.346 352.926 369.243 353.596 355.494 352.805Z"/>
	<path fill="#50852D" transform="scale(0.488281 0.488281)" d="M671.48 352.494C674.149 352.536 677.168 352.301 679.764 352.909L713.353 352.953L713.06 392.025L669.561 391.846L669.199 392.008L420.931 392.049L420.793 352.924L671.48 352.494Z"/>
	<path fill="#335D1F" transform="scale(0.488281 0.488281)" d="M669.561 391.846L669.649 352.872L679.764 352.909L713.353 352.953L713.06 392.025L669.561 391.846Z"/>
	<path fill="#5C3B72" transform="scale(0.488281 0.488281)" d="M656.391 91.3207L739.848 174.649L907.825 343.015L985.973 421.318L1011.62 447.276C1015.7 451.414 1020.34 455.49 1024 459.972L1024 1024L381.599 1024L327.35 971.372L312.697 957.402C307.873 952.916 302.259 948.597 298.519 943.124C304.465 946.841 310.041 950.942 316.186 954.406C337.47 966.405 362.035 973.337 386.5 973.345C425.679 973.359 463.334 958.194 490.882 930.221C511.843 908.937 526.939 879.792 530.619 849.996C531.883 839.76 531.245 828.975 531.204 818.677L531.014 767.554L550.235 767.569C558.694 767.541 569.794 768.95 577.257 764.137C582.485 760.765 586.133 754.996 587.392 749.005C588.152 742.505 587.967 735.94 587.987 729.406L588.034 700.94L588.06 679.859C594.474 678.983 600.95 676.505 606.923 674.088C626.965 665.977 645.901 653.749 661.248 638.479C687.347 612.511 706.672 577.015 711.117 540.158C713.582 519.712 712.772 498.703 712.836 478.124L713.06 392.025L713.353 352.953L679.764 352.909C677.168 352.301 674.149 352.536 671.48 352.494C673.491 351.173 675.405 349.639 676.857 347.699C680.646 342.634 680.793 332.235 679.705 326.143L679.582 325.5C679.296 323.869 679.016 322.464 678.291 320.953C676.513 317.246 674.241 315.37 670.378 313.977C668.724 311.94 667.312 310.16 666.328 307.685L652.988 307.537L653.054 252.724L653.06 234.993C653.063 231.894 653.481 228.041 652.33 225.151L652.048 224.5C650.802 221.563 649.196 218.911 647.612 216.153L656.537 216.232L656.391 91.3207Z"/>
	<path fill="#3F2E5D" transform="scale(0.488281 0.488281)" d="M686.286 230.971C692.114 232.391 696.85 236.679 699.935 241.75C701.358 244.088 702.487 247.009 702.907 249.721C704.027 256.968 703.453 264.831 703.459 272.163L703.418 308.305L686.669 308.008L686.286 230.971Z"/>
	<path fill="#639D38" transform="scale(0.488281 0.488281)" d="M666.328 307.685C672.928 307.779 680.152 307.258 686.669 308.008L703.418 308.305C713.06 308.383 720.835 307.869 728.264 315.314C731.742 318.8 733.565 322.659 735.108 327.297C735.587 334.61 734.53 341.02 729.472 346.706C724.564 352.223 720.24 352.601 713.353 352.953L679.764 352.909C677.168 352.301 674.149 352.536 671.48 352.494C673.491 351.173 675.405 349.639 676.857 347.699C680.646 342.634 680.793 332.235 679.705 326.143L679.582 325.5C679.296 323.869 679.016 322.464 678.291 320.953C676.513 317.246 674.241 315.37 670.378 313.977C668.724 311.94 667.312 310.16 666.328 307.685Z"/>
	<path fill="#DB5738" transform="scale(0.488281 0.488281)" d="M656.537 216.232C665.324 216.263 674.391 214.962 681.021 221.998C683.452 224.576 685.021 227.695 686.286 230.971L686.669 308.008C680.152 307.258 672.928 307.779 666.328 307.685L652.988 307.537L653.054 252.724L653.06 234.993C653.063 231.894 653.481 228.041 652.33 225.151L652.048 224.5C650.802 221.563 649.196 218.911 647.612 216.153L656.537 216.232Z"/>
	<defs>
		<linearGradient id="gradient_0" gradientUnits="userSpaceOnUse" x1="745.19183" y1="659.85846" x2="309.67645" y2="652.97833">
			<stop offset="0" stop-color="#37254A"/>
			<stop offset="1" stop-color="#533D7B"/>
		</linearGradient>
	</defs>
	<path fill="url(#gradient_0)" transform="scale(0.488281 0.488281)" d="M735.108 327.297C742.549 332.057 748.427 337.544 750.591 346.515C752.102 352.78 751.117 358.486 747.595 363.909C744.715 368.343 740.133 371.748 734.875 372.74L728.02 373.561L728.004 477.5L728.06 520.534C728.07 529.497 728.368 538.599 727.659 547.537C724.514 587.184 707.876 625.003 680.1 653.6C664.207 669.962 644.674 683.469 623.617 692.282C618.168 694.563 612.595 696.792 606.885 698.328C605.959 698.578 603.182 698.972 603.003 699.308C602.935 699.433 603.005 701.111 603.005 701.38L603.015 709.44L603.043 741.608C603.05 755.337 605.995 771.534 593 780.569C588.294 783.841 584.357 785.231 578.663 785.295L547.425 785.134L547.311 828.874C547.183 842.407 547.513 856.546 544.313 869.75L542.553 877.446L538.45 889.772L534.519 899.512L533.56 902.019C533.051 903.465 532.096 904.558 531.558 906.052C530.546 908.863 528.796 911.948 527.255 914.5C522.174 922.918 516.846 931.232 510.328 938.659C492.124 959.401 467.447 973.334 441.189 981.036C406.874 991.103 370.498 985.966 338 972.233C331.204 969.361 325.31 965.574 318.817 962.142C321.318 964.406 326.231 968.268 327.35 971.372L312.697 957.402C307.873 952.916 302.259 948.597 298.519 943.124C304.465 946.841 310.041 950.942 316.186 954.406C337.47 966.405 362.035 973.337 386.5 973.345C425.679 973.359 463.334 958.194 490.882 930.221C511.843 908.937 526.939 879.792 530.619 849.996C531.883 839.76 531.245 828.975 531.204 818.677L531.014 767.554L550.235 767.569C558.694 767.541 569.794 768.95 577.257 764.137C582.485 760.765 586.133 754.996 587.392 749.005C588.152 742.505 587.967 735.94 587.987 729.406L588.034 700.94L588.06 679.859C594.474 678.983 600.95 676.505 606.923 674.088C626.965 665.977 645.901 653.749 661.248 638.479C687.347 612.511 706.672 577.015 711.117 540.158C713.582 519.712 712.772 498.703 712.836 478.124L713.06 392.025L713.353 352.953C720.24 352.601 724.564 352.223 729.472 346.706C734.53 341.02 735.587 334.61 735.108 327.297Z"/>
</svg>
