<?xml version="1.0" encoding="utf-8" ?>
<svg xmlns="http://www.w3.org/2000/svg" xmlns:xlink="http://www.w3.org/1999/xlink" width="500" height="500">
	<path fill="#1C1716" transform="scale(0.488281 0.488281)" d="M-0 -0L1024 0L1024 1024L-0 1024L0 -0Z"/>
	<path transform="scale(0.488281 0.488281)" d="M315.557 584.514L415.376 582.529L403.636 604.022L301.408 606.655C301.649 605.107 303.468 603.031 304.35 601.693C307.921 596.275 312.469 590.746 315.344 584.956L315.557 584.514Z"/>
	<path transform="scale(0.488281 0.488281)" d="M777.748 124.436L819.423 115.334L655.379 389.588L617.324 390.447L777.748 124.436Z"/>
	<path transform="scale(0.488281 0.488281)" d="M777.429 422.694C787.582 423.906 797.878 423.304 808.077 423.033C817.469 422.784 826.948 422.79 836.306 421.924L800.381 455.375L758.826 495.122L703.28 547.198L543.108 698.824L515.083 724.827L493.496 746.035L399.136 835.597L330.347 901.936L275.836 953.285L246.284 981.308C242.293 985.094 237.811 990.439 233.233 993.388L282.267 924.765L311.123 888.277L321.37 873.876C322.958 871.589 324.978 869.363 325.377 866.544L777.429 422.694Z"/>
	<path fill="#F6B023" transform="scale(0.488281 0.488281)" d="M315.557 584.514L279.614 585.12L575.522 81.8776L635.002 81.9241C629.479 88.6044 625.101 96.4849 620.424 103.772L598.096 138.087L533.651 237.635L492.746 299.963L524.468 287.382C520.287 295.864 513.507 304.036 508.215 311.928L469.144 369.547L357.267 535.004C355.91 536.616 354.867 538.29 353.791 540.093L497.299 537.578L480.466 562.932C479.352 564.623 477.261 568.972 475.724 570.082C475.068 569.547 475.174 569.462 474.248 569.451L472.938 569.75L457.114 572.669L432.945 578.301C427.311 579.595 420.729 580.426 415.376 582.529L315.557 584.514Z"/>
	<defs>
		<linearGradient id="gradient_0" gradientUnits="userSpaceOnUse" x1="799.46179" y1="550.01556" x2="255.13744" y2="517.771">
			<stop offset="0" stop-color="#FFC122"/>
			<stop offset="1" stop-color="#FAE225"/>
		</linearGradient>
	</defs>
	<path fill="url(#gradient_0)" transform="scale(0.488281 0.488281)" d="M792.07 99.0511L793.135 98.782L777.748 124.436L617.324 390.447L655.379 389.588L772.5 388.33L802.879 387.918C805.326 387.912 809.278 387.355 811.439 388.14L777.429 422.694L325.377 866.544L224.625 966.181L403.636 604.022L415.376 582.529C420.729 580.426 427.311 579.595 432.945 578.301L457.114 572.669L472.938 569.75L474.248 569.451C475.174 569.462 475.068 569.547 475.724 570.082L267.011 910.38L714.224 431.955L525.975 434.529L792.07 99.0511Z"/>
	<path fill="#CC1820" transform="scale(0.488281 0.488281)" d="M635.002 81.9241L800.139 81.9888L791.079 92.2406L788.643 95.4046C785.133 98.9598 782.046 103.045 778.815 106.858L758.314 131.647L708.661 193.29L586.8 347.861L515.467 439.979L699.796 437.634L280.25 893.102L279.965 892.5L506.741 532.133L357.267 535.004L469.144 369.547L508.215 311.928C513.507 304.036 520.287 295.864 524.468 287.382L492.746 299.963L533.651 237.635L598.096 138.087L620.424 103.772C625.101 96.4849 629.479 88.6044 635.002 81.9241Z"/>
</svg>
