<?xml version="1.0" encoding="utf-8" ?>
<svg xmlns="http://www.w3.org/2000/svg" xmlns:xlink="http://www.w3.org/1999/xlink" width="500" height="500">
	<path fill="#09A2B1" transform="scale(0.488281 0.488281)" d="M-0 -0L1024 0L1024 1024L-0 1024L0 -0Z"/>
	<path fill="#077AA5" transform="scale(0.488281 0.488281)" d="M828.443 217.125C833.457 217.054 846.543 215.507 850.002 218.762C851.688 220.349 851.658 221.224 851.697 223.5L851.697 321.459C849.221 323.11 846.647 324.72 844.336 326.597L834.267 335.461C832.738 336.815 830.58 338.879 828.512 339.175L828.443 217.125Z"/>
	<path fill="#D52932" transform="scale(0.488281 0.488281)" d="M798.46 200.054L813.443 200.049C815.939 200.059 819.051 199.758 821.456 200.351C823.029 200.739 824.548 201.594 825.674 202.758C829.265 206.471 828.469 212.387 828.443 217.125L828.512 339.175C824.984 343.076 820.698 346.168 815.25 346.52C807.902 346.994 803.836 343.449 798.1 339.495L798.46 200.054Z"/>
	<path fill="#28BCF0" transform="scale(0.488281 0.488281)" d="M201.325 799.848L343.453 799.84L343.436 829C342.907 829.508 342.687 829.735 341.984 829.994L341.255 830.45C336.951 833.065 332.143 834.445 327.804 837.299L327.081 837.765C323.623 840.069 320.179 843.859 317.537 847.064L254.284 847.045L236.642 847.053C233.449 847.055 229.897 847.343 226.75 846.915C225.201 846.704 223.754 845.871 222.604 844.827C218.706 841.287 219.007 834.158 218.934 829.395C215.231 829.392 205.442 830.296 203.03 827.86C200.737 825.542 201.106 821.001 201.096 817.967L201.325 799.848Z"/>
	<path fill="#077AA5" transform="scale(0.488281 0.488281)" d="M218.934 829.395L305.502 829.528L328.321 829.551C332.751 829.557 337.636 829.17 341.984 829.994L341.255 830.45C336.951 833.065 332.143 834.445 327.804 837.299L327.081 837.765C323.623 840.069 320.179 843.859 317.537 847.064L254.284 847.045L236.642 847.053C233.449 847.055 229.897 847.343 226.75 846.915C225.201 846.704 223.754 845.871 222.604 844.827C218.706 841.287 219.007 834.158 218.934 829.395Z"/>
	<path fill="#077AA5" transform="scale(0.488281 0.488281)" d="M365.973 830.087C369.444 829.175 373.602 829.545 377.205 829.517L398.301 829.436L479.641 829.469L503.635 829.54C507.433 829.555 511.895 829.115 515.604 829.878L606.916 830.057L631.88 830.065C636.11 830.07 640.645 829.747 644.847 830.143C646.231 830.273 647.311 830.787 648.25 831.816C649.309 832.976 649.951 834.407 649.855 836C649.742 837.863 648.289 839.292 646.902 840.372C643.65 842.905 639.884 844.666 636.735 847.401L390.667 847.385C395.428 851.484 400.43 855.215 404.585 859.971C410.725 866.998 414.259 877.516 414.884 886.709C415.737 899.27 411.442 910.583 403.16 919.93C396.394 927.567 385.604 932.837 375.434 933.469C360.578 934.392 349.591 927.753 339.007 918.153C336.677 916.039 334.571 913.679 332.75 911.118L331.333 909.263L339.379 912.252L344.4 913.18C355.254 914.146 366.89 910.871 375.09 903.617C383.572 896.112 390.432 885.067 390.975 873.468C391.631 859.454 386.164 848.369 376.954 838.135C373.465 835.629 369.001 833.062 365.973 830.087Z"/>
	<path fill="#088554" transform="scale(0.488281 0.488281)" d="M376.954 838.135C385.548 842.575 391.532 852.782 394.335 861.691C397.877 872.948 396.728 884.378 391.295 894.852C386.649 903.808 377.821 911.48 368.172 914.534C358.714 917.529 348.221 916.854 339.379 912.252L344.4 913.18C355.254 914.146 366.89 910.871 375.09 903.617C383.572 896.112 390.432 885.067 390.975 873.468C391.631 859.454 386.164 848.369 376.954 838.135Z"/>
	<path fill="#077AA5" transform="scale(0.488281 0.488281)" d="M920.166 345.837C923.372 346.91 925.934 348.632 928.536 350.75L929.222 351.3C936.704 357.429 940.951 367.883 941.766 377.348C942.718 388.412 938.179 400.608 931.074 409.043C923.807 417.671 912.944 423.044 901.719 423.845C897.716 424.131 893.938 423.909 890 423.159L889.04 422.983C882.272 421.711 875.224 418.238 869.993 413.75C868.431 412.409 866.387 410.057 864.577 409.174C862.526 408.175 856.186 408.847 854.242 409.997C852.317 411.136 851.177 413.089 850.959 415.25C850.625 418.569 850.908 422.151 850.921 425.504L851.001 444.751L851.15 509.057L851.25 597.286L851.42 620.754C851.442 625.055 851.129 629.598 851.722 633.851L846.114 641.157C843.725 643.782 840.499 645.866 836.855 645.955C834.267 646.019 832.085 644.962 830.283 643.145C828.808 641.658 827.779 639.928 827.467 637.836C826.925 634.195 827.333 629.873 827.344 626.171L827.385 603.092L827.495 517.692L827.77 430.403L827.726 408.195C827.719 403.61 827.476 398.81 827.948 394.25C828.089 392.888 828.639 391.336 829.498 390.25C831.791 387.352 834.296 386.974 837.757 386.671L840.395 388.345C847.003 398.289 856.965 405.304 868.624 408.035L869.574 408.25C873.693 409.209 878.366 409.327 882.568 408.869C894.963 407.515 905.148 400.807 912.85 391.274C919.791 382.684 924.566 369.477 923.173 358.419L923.045 357.5C922.505 353.479 921.354 349.7 920.166 345.837Z"/>
	<path fill="#077AA5" transform="scale(0.488281 0.488281)" d="M916.686 649.008C925.452 651.499 932.014 659.335 936.267 667.042C941.92 677.285 942.853 688.27 939.46 699.438C936.389 709.547 929.155 718.363 919.806 723.294C911.156 727.857 901.468 728.976 892 726.627C886.257 725.203 881.132 722.998 876.42 719.331C870.339 714.6 863.477 702.293 854.221 707.75C851.709 709.23 850.101 711.72 849.531 714.536L849.341 715.75L849.232 716.426C848.691 720.109 848.954 724.039 848.947 727.756L848.923 747.461L848.756 814.862L848.627 830.577C848.616 833.372 848.867 836.585 848.362 839.323C847.967 841.464 846.252 844.139 844.566 845.496C842.692 847.003 840.56 847.595 838.196 847.816C834.145 848.194 829.837 847.928 825.756 847.902L802.55 847.734L732.815 847.557L716.699 847.457C714.787 847.448 711.772 847.035 710.021 847.634C708.768 848.062 708.134 849.198 707.51 850.25C708.214 852.459 713.002 855.753 714.844 857.496C727.453 869.424 734.774 885.494 730.629 903C728.025 913.995 721.497 923.277 711.982 929.423C703.368 934.987 692.039 937.149 681.962 934.99L680.5 934.636C669.555 931.947 659.09 924.597 653.108 914.935C652.66 914.211 652.366 913.398 652.052 912.612C656.106 913.994 660.158 915.305 664.428 915.833C674.998 917.138 687.041 913.196 695.25 906.448C703.943 899.301 709.196 888.741 710.144 877.594C711.17 865.54 707.257 852.676 696.691 845.803C693.895 843.984 689.977 842.617 687.901 839.968C686.614 838.325 686.231 836.226 686.6 834.183C687.009 831.915 689.318 830.365 691.406 829.813C693.811 829.178 696.726 829.445 699.202 829.438L715.248 829.434L785.965 829.395L806.165 829.367C809.799 829.36 813.762 829.673 817.342 829.113C819.326 828.802 820.968 828.031 822.595 826.868C825.149 825.044 826.519 822.311 827.074 819.272C827.671 816.008 827.343 812.343 827.334 809.016L827.312 790.285L827.368 718.975L827.295 703.129C827.284 700.43 827.018 697.407 827.514 694.75C827.96 692.359 829.892 690.077 831.883 688.778C837.006 685.435 843.223 686.951 847.366 691.124C849.794 693.569 851.563 696.621 854.25 698.826C857.987 701.893 863.928 704.334 868.625 705.363C879.601 707.767 891.391 705.102 900.761 699.074C909.606 693.385 916.286 683.165 918.427 672.926L918.614 672C920.326 663.75 919.022 656.946 916.686 649.008Z"/>
	<path fill="#FA9D37" transform="scale(0.488281 0.488281)" d="M750.742 517.62L827.495 517.692L827.385 603.092L827.344 626.171C827.333 629.873 826.925 634.195 827.467 637.836C827.779 639.928 828.808 641.658 830.283 643.145C832.085 644.962 834.267 646.019 836.855 645.955C840.499 645.866 843.725 643.782 846.114 641.157L851.722 633.851C859.178 626.572 867.861 623.015 878.345 623.082C889.65 623.155 900.185 627.239 908.028 635.494C911.871 639.537 914.309 644.002 916.686 649.008C919.022 656.946 920.326 663.75 918.614 672L918.427 672.926C916.286 683.165 909.606 693.385 900.761 699.074C891.391 705.102 879.601 707.767 868.625 705.363C863.928 704.334 857.987 701.893 854.25 698.826C851.563 696.621 849.794 693.569 847.366 691.124C843.223 686.951 837.006 685.435 831.883 688.778C829.892 690.077 827.96 692.359 827.514 694.75C827.018 697.407 827.284 700.43 827.295 703.129L827.368 718.975L827.312 790.285L827.334 809.016C827.343 812.343 827.671 816.008 827.074 819.272C826.519 822.311 825.149 825.044 822.595 826.868C820.968 828.031 819.326 828.802 817.342 829.113C813.762 829.673 809.799 829.36 806.165 829.367L785.965 829.395L715.248 829.434L699.202 829.438C696.726 829.445 693.811 829.178 691.406 829.813C689.318 830.365 687.009 831.915 686.6 834.183C686.231 836.226 686.614 838.325 687.901 839.968C689.977 842.617 693.895 843.984 696.691 845.803C707.257 852.676 711.17 865.54 710.144 877.594C709.196 888.741 703.943 899.301 695.25 906.448C687.041 913.196 674.998 917.138 664.428 915.833C660.158 915.305 656.106 913.994 652.052 912.612L652.06 912.579C648.5 910.794 644.938 908.898 641.803 906.418C633.269 899.666 628.425 890.425 626.873 879.75L626.526 876.821C625.922 865.36 629.062 855.922 636.735 847.401C639.884 844.666 643.65 842.905 646.902 840.372C648.289 839.292 649.742 837.863 649.855 836C649.951 834.407 649.309 832.976 648.25 831.816C647.311 830.787 646.231 830.273 644.847 830.143C640.645 829.747 636.11 830.07 631.88 830.065L606.916 830.057L515.604 829.878L515.744 800.714L647.023 801.185C638.128 796.122 630.99 790.314 626.647 780.787L626.345 780.115C624.827 776.834 623.665 773.368 622.954 769.818C620.567 757.907 623.199 745.278 629.897 735.2C636.281 725.594 646.76 718.738 658.066 716.494L658.974 716.319C664.395 715.235 670.438 715.025 675.891 715.996C688.79 718.292 700.185 724.893 707.659 735.801C714.182 745.323 717.108 757.895 714.841 769.269C713.625 775.369 710.972 782.321 707.191 787.333C702.653 793.351 696.067 797.624 689.886 801.757L798.543 801.984L798.495 517.966L751.3 517.672L750.742 517.62Z"/>
	<path fill="#61D6F9" transform="scale(0.488281 0.488281)" d="M313.608 489.158C316.008 491.62 318.444 494.247 321.506 495.892C327.37 499.041 334.225 499.058 334.412 507.75C334.467 510.317 333.578 512.757 331.75 514.561C329.985 516.304 327.864 517.215 325.628 518.174C323.269 519.827 320.753 521.281 318.55 523.142C310.316 530.103 304.843 539.308 302.954 549.969C301.079 560.555 303.498 573.703 309.25 582.893C309.627 583.495 309.756 583.613 310.168 584.084C314.542 594.166 323.502 601.651 333.546 605.696C336.674 606.956 339.86 607.563 343.122 608.345L343.453 799.84L201.325 799.848L201.331 710.162C201.166 711.007 201.025 711.748 200.545 712.481C195.63 719.98 185.183 725.226 176.541 726.622C163.37 728.749 150.433 725.421 139.5 717.955C134.231 714.358 130.271 709.571 126.968 704.177C124.185 702.878 121.339 701.573 118.8 699.833C109.909 693.739 103.37 683.595 101.429 672.995C99.3354 661.561 101.569 649.345 108.345 639.795C113.986 631.843 123.943 625.548 133.56 624.002L134.5 623.859C137.964 623.314 141.611 623.281 145.108 623.512C155.25 624.182 165.533 628.697 171.784 636.908C174.062 639.9 175.813 643.467 178.385 646.206C181.044 649.038 184.266 650.495 188.125 650.528C191.696 650.558 195.084 649.352 197.562 646.734C199.671 644.506 200.563 641.841 200.902 638.846C201.393 634.505 201.029 629.842 201.03 625.459L201.02 600.412L201.063 517.964L201.07 489.862L313.608 489.158Z"/>
	<path fill="#FBF8F5" transform="scale(0.488281 0.488281)" d="M223.196 548.056C224.923 548.319 226.669 548.586 228.25 549.373C230.019 550.254 231.716 551.988 232.25 553.922C233.551 558.63 232.6 565.741 232.593 570.75C232.58 581.22 233.129 592.075 232.493 602.5C232.415 603.787 232.029 605.149 231.374 606.267C229.751 609.034 227.115 609.791 224.178 610.424C222.895 610.319 221.567 610.225 220.347 609.785C218.43 609.093 216.667 607.519 215.813 605.666C214.547 602.918 214.291 556.797 215.509 553.906C216.872 550.672 220.143 549.18 223.196 548.056Z"/>
	<path fill="#077AA5" transform="scale(0.488281 0.488281)" d="M126.968 704.177C138.379 708.067 150.088 708.015 161.039 702.572C164.811 700.696 168.122 697.966 170.972 694.888C172.876 692.831 174.321 690.421 176.203 688.367C180.201 684.002 186.457 681.823 192.178 683.914C195.897 685.273 198.924 688.383 200.449 692C202.495 696.856 201.378 704.924 201.331 710.162C201.166 711.007 201.025 711.748 200.545 712.481C195.63 719.98 185.183 725.226 176.541 726.622C163.37 728.749 150.433 725.421 139.5 717.955C134.231 714.358 130.271 709.571 126.968 704.177Z"/>
	<path fill="#FA9D37" transform="scale(0.488281 0.488281)" d="M313.608 489.158C316.008 491.62 318.444 494.247 321.506 495.892C327.37 499.041 334.225 499.058 334.412 507.75C334.467 510.317 333.578 512.757 331.75 514.561C329.985 516.304 327.864 517.215 325.628 518.174L201.063 517.964L201.07 489.862L313.608 489.158Z"/>
	<path fill="#594098" transform="scale(0.488281 0.488281)" d="M865.873 315.806C872.2 314.442 877.855 314.007 884.25 315.33C896.032 317.768 907.098 324.422 913.967 334.44C916.399 337.987 918.407 341.919 920.166 345.837C921.354 349.7 922.505 353.479 923.045 357.5L923.173 358.419C924.566 369.477 919.791 382.684 912.85 391.274C905.148 400.807 894.963 407.515 882.568 408.869C878.366 409.327 873.693 409.209 869.574 408.25L868.624 408.035C856.965 405.304 847.003 398.289 840.395 388.345L837.757 386.671C834.296 386.974 831.791 387.352 829.498 390.25C828.639 391.336 828.089 392.888 827.948 394.25C827.476 398.81 827.719 403.61 827.726 408.195L827.77 430.403L827.495 517.692L750.742 517.62L688.044 517.538C692.503 523.275 698.413 527.778 703.386 533.068C712.593 542.862 716.479 557.51 714.858 570.68C713.401 582.521 707.391 592.478 698.067 599.79C692.668 604.024 686.112 606.855 679.5 608.539L678.528 608.792C666.811 611.776 654.333 608.858 644.187 602.666C633.97 596.429 627.165 586.246 624.314 574.733L624.161 574.062C622.667 568.445 622.618 561.916 623.516 556.203C624.694 548.711 627.709 541.057 632.673 535.25C637.13 530.037 643.19 526.858 647.632 521.541C648.629 520.348 649.728 519.298 650.027 517.724L587.363 517.628L587.507 489.974C587.362 482.752 587.047 475.382 587.611 468.173C588.798 453.002 592.715 437.581 598.43 423.5C613.478 386.428 644.894 355.463 681.812 339.977C710.699 327.859 742.017 323.859 772.75 330.945C781.445 332.95 789.856 336.13 798.1 339.495C803.836 343.449 807.902 346.994 815.25 346.52C820.698 346.168 824.984 343.076 828.512 339.175C830.58 338.879 832.738 336.815 834.267 335.461L844.336 326.597C846.647 324.72 849.221 323.11 851.697 321.459C856.323 318.913 860.786 317.19 865.873 315.806Z"/>
	<path fill="#402267" transform="scale(0.488281 0.488281)" d="M865.873 315.806C872.2 314.442 877.855 314.007 884.25 315.33C896.032 317.768 907.098 324.422 913.967 334.44C916.399 337.987 918.407 341.919 920.166 345.837C921.354 349.7 922.505 353.479 923.045 357.5L923.173 358.419C924.566 369.477 919.791 382.684 912.85 391.274C905.148 400.807 894.963 407.515 882.568 408.869C878.366 409.327 873.693 409.209 869.574 408.25L868.624 408.035C856.965 405.304 847.003 398.289 840.395 388.345C844.927 390.059 848.966 393.102 853.576 394.868L854.378 395.171C863.997 398.88 874.343 398.853 883.911 394.988C894.915 390.542 902.805 382.69 907.373 371.75C911.202 362.579 911.69 350.649 907.761 341.406C902.273 328.498 890.813 319.405 876.811 317.295C873.863 316.85 869.041 317.302 866.469 316.108L865.873 315.806Z"/>
	<path fill="#402267" transform="scale(0.488281 0.488281)" d="M587.507 489.974L623.58 489.762C628.52 489.726 634.393 488.957 639.229 489.812C642.922 490.464 646.874 492.542 649.489 495.227C652.69 498.516 654.453 502.633 654.397 507.25C654.364 509.893 653.342 514.704 651.506 516.75C651.043 517.266 650.619 517.443 650.027 517.724L587.363 517.628L587.507 489.974Z"/>
	<path fill="#402267" transform="scale(0.488281 0.488281)" d="M624.161 574.062C626.66 576.776 628.21 579.773 630.321 582.72C635.742 590.288 646.448 597.093 655.75 598.409C666.444 599.923 678.684 597.531 687.385 590.888L688 590.413C692.695 586.841 696.738 582.11 699.325 576.799L699.651 576.121C701.621 572.076 703.031 567.81 703.496 563.319L703.576 562.5C704.252 556.07 703.441 550.644 701.561 544.5C699.144 536.601 694.888 530.404 689.304 524.415C687.382 522.353 685.05 520.247 683.684 517.77L683.348 517.138C681.638 514.096 680.681 511.639 680.53 508.146C680.305 502.957 682.411 498.441 686.059 494.75C688.616 492.164 692.028 490.308 695.617 489.685C698.536 489.177 702.136 489.644 705.103 489.709L722.972 489.846L798.035 489.695L798.02 424.295L797.992 405.948C797.989 402.595 797.698 398.914 798.295 395.626L798.418 395C799.338 389.98 801.406 385.812 805.162 382.274C809.238 378.435 814.711 376.846 820.203 376.98C827.421 377.157 833.016 381.616 837.757 386.671C834.296 386.974 831.791 387.352 829.498 390.25C828.639 391.336 828.089 392.888 827.948 394.25C827.476 398.81 827.719 403.61 827.726 408.195L827.77 430.403L827.495 517.692L750.742 517.62L688.044 517.538C692.503 523.275 698.413 527.778 703.386 533.068C712.593 542.862 716.479 557.51 714.858 570.68C713.401 582.521 707.391 592.478 698.067 599.79C692.668 604.024 686.112 606.855 679.5 608.539L678.528 608.792C666.811 611.776 654.333 608.858 644.187 602.666C633.97 596.429 627.165 586.246 624.314 574.733L624.161 574.062Z"/>
	<path fill="#0CC886" transform="scale(0.488281 0.488281)" d="M485.156 518.073L515.492 517.983L515.234 602.363L515.311 626.283C515.332 630.201 515.73 634.593 515.255 638.471C514.917 641.228 513.794 643.775 511.886 645.814C510.759 647.018 509.328 647.985 507.99 648.939C508.65 648.963 509.27 648.971 509.917 648.793C517.351 646.75 519.631 639.385 523.561 633.75C529.064 625.859 538.718 621.247 547.968 619.664C552.312 619.995 557.065 619.718 561.25 620.896C573.144 624.246 581.823 629.778 588.478 640.343C591.735 645.514 593.653 651.486 594.534 657.5L594.663 658.342C596.282 669.502 592.304 681.748 585.528 690.583C579.295 698.708 569.562 704.009 559.5 705.558L558.696 705.695C554.162 706.428 549.21 706.227 544.75 705.202C538.334 703.727 532.469 701.018 527.334 696.848C525.399 695.277 523.479 693.276 521.362 691.997L520.891 691.179C518.388 686.944 514.554 682.669 509.631 681.394C511.602 683.221 513.376 684.755 514.505 687.25L514.789 687.85C516.26 691.258 515.674 696.572 515.694 700.287L515.784 723.447L515.744 800.714L515.604 829.878C511.895 829.115 507.433 829.555 503.635 829.54L479.641 829.469L398.301 829.436L377.205 829.517C373.602 829.545 369.444 829.175 365.973 830.087C369.001 833.062 373.465 835.629 376.954 838.135C386.164 848.369 391.631 859.454 390.975 873.468C390.432 885.067 383.572 896.112 375.09 903.617C366.89 910.871 355.254 914.146 344.4 913.18L339.379 912.252L331.333 909.263C331.338 909.058 330.022 908.308 329.807 908.168C324.646 904.818 319.785 901.64 316.32 896.378L315.845 895.638C313.077 891.444 311.157 886.86 310.029 881.961L309.824 881.045L309.608 880.144C306.966 868.447 311.319 856.797 317.537 847.064C320.179 843.859 323.623 840.069 327.081 837.765L327.804 837.299C332.143 834.445 336.951 833.065 341.255 830.45L341.984 829.994C342.687 829.735 342.907 829.508 343.436 829L343.453 799.84L343.122 608.345C356.422 609.185 366.609 608.233 378 600.468C380.186 598.977 381.956 597.313 383.81 595.427C393.051 586.023 397.756 572.599 397.448 559.5C397.164 547.363 392.425 534.537 383.944 525.75C381.326 523.037 378.194 520.888 375.437 518.324L485.156 518.073Z"/>
	<path fill="#088554" transform="scale(0.488281 0.488281)" d="M485.156 518.073L515.492 517.983L515.234 602.363L515.311 626.283C515.332 630.201 515.73 634.593 515.255 638.471C514.917 641.228 513.794 643.775 511.886 645.814C510.759 647.018 509.328 647.985 507.99 648.939L507.126 649.134C505.245 649.798 504.14 650.113 502.071 650.13C497.158 650.171 492.698 648.652 489.235 645.044C487.178 642.9 485.383 639.732 485.077 636.733C484.609 632.135 484.971 627.137 484.961 622.503L484.937 594.684L485.156 518.073Z"/>
	<path fill="#088554" transform="scale(0.488281 0.488281)" d="M365.973 830.087L364.649 829.375L363.698 820.75C363.565 814.899 364.869 809.357 369.232 805.169C371.631 802.866 374.645 800.955 377.95 800.378C381.6 799.741 385.782 800.105 389.504 800.123L410.212 800.189L485.455 800.071L484.983 722.797L484.945 702.828C484.949 699.244 484.394 694.57 485.678 691.208C487.566 686.268 491.86 682.348 496.689 680.403C501.18 678.595 505.377 679.486 509.631 681.394C511.602 683.221 513.376 684.755 514.505 687.25L514.789 687.85C516.26 691.258 515.674 696.572 515.694 700.287L515.784 723.447L515.744 800.714L515.604 829.878C511.895 829.115 507.433 829.555 503.635 829.54L479.641 829.469L398.301 829.436L377.205 829.517C373.602 829.545 369.444 829.175 365.973 830.087Z"/>
	<path fill="#FDDF68" transform="scale(0.488281 0.488281)" d="M587.363 517.628L650.027 517.724C649.728 519.298 648.629 520.348 647.632 521.541C643.19 526.858 637.13 530.037 632.673 535.25C627.709 541.057 624.694 548.711 623.516 556.203C622.618 561.916 622.667 568.445 624.161 574.062L624.314 574.733C627.165 586.246 633.97 596.429 644.187 602.666C654.333 608.858 666.811 611.776 678.528 608.792L679.5 608.539C686.112 606.855 692.668 604.024 698.067 599.79C707.391 592.478 713.401 582.521 714.858 570.68C716.479 557.51 712.593 542.862 703.386 533.068C698.413 527.778 692.503 523.275 688.044 517.538L750.742 517.62L751.3 517.672L798.495 517.966L798.543 801.984L689.886 801.757C696.067 797.624 702.653 793.351 707.191 787.333C710.972 782.321 713.625 775.369 714.841 769.269C717.108 757.895 714.182 745.323 707.659 735.801C700.185 724.893 688.79 718.292 675.891 715.996C670.438 715.025 664.395 715.235 658.974 716.319L658.066 716.494C646.76 718.738 636.281 725.594 629.897 735.2C623.199 745.278 620.567 757.907 622.954 769.818C623.665 773.368 624.827 776.834 626.345 780.115L626.647 780.787C630.99 790.314 638.128 796.122 647.023 801.185L515.744 800.714L515.784 723.447L515.694 700.287C515.674 696.572 516.26 691.258 514.789 687.85L514.505 687.25C513.376 684.755 511.602 683.221 509.631 681.394C514.554 682.669 518.388 686.944 520.891 691.179L521.362 691.997C523.479 693.276 525.399 695.277 527.334 696.848C532.469 701.018 538.334 703.727 544.75 705.202C549.21 706.227 554.162 706.428 558.696 705.695L559.5 705.558C569.562 704.009 579.295 698.708 585.528 690.583C592.304 681.748 596.282 669.502 594.663 658.342L594.534 657.5C593.653 651.486 591.735 645.514 588.478 640.343C581.823 629.778 573.144 624.246 561.25 620.896C557.065 619.718 552.312 619.995 547.968 619.664C538.718 621.247 529.064 625.859 523.561 633.75C519.631 639.385 517.351 646.75 509.917 648.793C509.27 648.971 508.65 648.963 507.99 648.939C509.328 647.985 510.759 647.018 511.886 645.814C513.794 643.775 514.917 641.228 515.255 638.471C515.73 634.593 515.332 630.201 515.311 626.283L515.234 602.363L515.492 517.983L549.237 517.607L587.363 517.628Z"/>
	<path fill="#088554" transform="scale(0.488281 0.488281)" d="M547.968 619.664C562.344 617.91 575.077 620.062 586.659 629.12C597.288 637.432 603.711 649.569 605.322 662.891C605.915 667.79 605.403 672.691 604.507 677.506C602.289 689.424 595.066 700.556 584.984 707.339C579.339 711.137 573.513 713.628 566.75 714.582L565.887 714.713C554.332 716.38 542.1 713.417 532.833 706.266C527.723 702.323 524.199 697.733 521.362 691.997C523.479 693.276 525.399 695.277 527.334 696.848C532.469 701.018 538.334 703.727 544.75 705.202C549.21 706.227 554.162 706.428 558.696 705.695L559.5 705.558C569.562 704.009 579.295 698.708 585.528 690.583C592.304 681.748 596.282 669.502 594.663 658.342L594.534 657.5C593.653 651.486 591.735 645.514 588.478 640.343C581.823 629.778 573.144 624.246 561.25 620.896C557.065 619.718 552.312 619.995 547.968 619.664Z"/>
	<path fill="#FBF8F5" transform="scale(0.488281 0.488281)" d="M534.571 530.058C541.81 529.232 549.992 530.004 557.342 530.002C568.08 530 579.243 529.359 589.936 530.065C591.424 530.164 592.794 530.442 594.008 531.366C595.826 532.75 597.079 534.739 597.25 537.053C597.426 539.431 596.72 542.153 595.076 543.927C594.099 544.981 592.685 545.802 591.25 545.969C587.012 546.464 582.263 546.105 577.98 546.111L545.551 546.162L545.791 573.276C545.821 577.831 546.399 583.068 545.399 587.5C545.142 588.638 544.456 589.622 543.702 590.495C542.366 592.044 540.034 593 538 593.024C535.262 593.058 532.723 592.631 530.784 590.54C529.848 589.529 529.278 588.355 529.081 586.991C528.372 582.076 528.939 576.443 528.939 571.425L529.042 535.47C530.656 533.104 532.291 531.727 534.571 530.058Z"/>
	<path fill="#EB4E50" transform="scale(0.488281 0.488281)" d="M642.363 176.187C638.729 173.624 635.373 171.019 632.6 167.504C626.329 159.557 623.507 148.503 624.794 138.507C625.878 130.084 628.662 122.657 633.871 115.88C640.894 106.742 650.922 101.422 662.25 99.8447C669.449 98.842 677.062 99.6016 683.843 102.26C696.003 107.026 703.124 116.239 708.187 127.902C717.724 131.357 723.618 138.097 727.81 147.057C729.429 150.519 730.497 154.219 731.026 158L731.158 158.894C731.741 163.076 731.535 167.137 730.634 171.25L730.473 172.043C728.698 180.436 722.065 189.961 714.827 194.509C711.974 196.302 707.839 197.326 705.499 199.481L798.46 200.054L798.1 339.495C789.856 336.13 781.445 332.95 772.75 330.945C742.017 323.859 710.699 327.859 681.812 339.977C644.894 355.463 613.478 386.428 598.43 423.5C592.715 437.581 588.798 453.002 587.611 468.173C587.047 475.382 587.362 482.752 587.507 489.974L587.363 517.628L549.237 517.607L516.017 517.568L516.408 490.015L515.934 377.899C511.598 376.032 507.003 375.459 502.462 377.178C496.652 379.377 493.591 384.361 490.765 389.539C488.219 392.324 485.701 394.845 482.61 397.029C473.246 403.644 462.11 406.27 450.754 404.268C440.026 402.377 430.306 396.02 424.159 387.074C419.36 382.23 415.981 373.137 414.559 366.595C412.185 355.677 415.538 342.944 421.616 333.75C427.346 325.082 437.324 318.434 447.526 316.504L448.5 316.328C457.131 314.71 467.771 315.166 475.542 319.654C481.592 322.341 485.785 326.47 490.022 331.441C491.272 325.655 490.91 319.024 490.921 313.124L490.879 286.5L490.913 199.936L516.026 199.753L548.991 199.568L606.904 199.551L626.734 199.625C630.962 199.696 635.458 200.103 639.666 199.644C642.38 199.347 645.058 198.177 647.195 196.485C650.587 193.8 651.672 190.743 652.143 186.58C648.734 184.231 643.659 180.133 642.363 176.187Z"/>
	<path fill="#077AA5" transform="scale(0.488281 0.488281)" d="M642.363 176.187C646.024 178.283 650.356 180.161 651.658 184.538L652.143 186.58C648.734 184.231 643.659 180.133 642.363 176.187Z"/>
	<path fill="#077AA5" transform="scale(0.488281 0.488281)" d="M708.187 127.902C717.724 131.357 723.618 138.097 727.81 147.057C729.429 150.519 730.497 154.219 731.026 158L731.158 158.894C731.741 163.076 731.535 167.137 730.634 171.25L730.473 172.043C728.698 180.436 722.065 189.961 714.827 194.509C711.974 196.302 707.839 197.326 705.499 199.481C701.163 199.903 696.254 200.529 692.25 198.445C688.508 196.497 685.581 192.611 684.399 188.59C681.522 178.795 689.932 177.446 695.75 172.864C699.352 170.028 702.634 166.111 704.904 162.129C711.131 151.206 711.376 139.83 708.187 127.902Z"/>
	<path fill="#D52932" transform="scale(0.488281 0.488281)" d="M587.507 489.974L587.363 517.628L549.237 517.607L516.017 517.568L516.408 490.015L587.507 489.974Z"/>
	<path fill="#FA9D37" transform="scale(0.488281 0.488281)" d="M490.913 199.936L516.026 199.753L516.092 297.949L516.071 324.88C516.07 329.538 515.652 334.573 516.378 339.151C514.453 340.371 512.752 341.259 510.511 341.769C504.906 343.047 499.585 341.036 494.981 337.947L490.022 331.441C491.272 325.655 490.91 319.024 490.921 313.124L490.879 286.5L490.913 199.936Z"/>
	<path fill="#61D6F9" transform="scale(0.488281 0.488281)" d="M546.813 316.664C558.451 313.768 570.114 315.633 580.407 321.764C590.459 327.752 597.456 336.623 600.357 348.018C603.531 360.485 601.93 372.982 595.112 384.015C589.119 393.714 579.355 400.358 568.277 402.792C557.149 405.237 545.618 403.21 536.071 396.938C528.179 391.752 523.626 382.98 515.934 377.899C511.598 376.032 507.003 375.459 502.462 377.178C496.652 379.377 493.591 384.361 490.765 389.539C488.219 392.324 485.701 394.845 482.61 397.029C473.246 403.644 462.11 406.27 450.754 404.268C440.026 402.377 430.306 396.02 424.159 387.074C419.36 382.23 415.981 373.137 414.559 366.595C412.185 355.677 415.538 342.944 421.616 333.75C427.346 325.082 437.324 318.434 447.526 316.504L448.5 316.328C457.131 314.71 467.771 315.166 475.542 319.654C481.592 322.341 485.785 326.47 490.022 331.441L494.981 337.947C499.585 341.036 504.906 343.047 510.511 341.769C512.752 341.259 514.453 340.371 516.378 339.151C520.557 335.817 523.832 331.337 527.448 327.415C532.812 321.598 539.192 318.442 546.813 316.664Z"/>
	<path fill="#28BCF0" transform="scale(0.488281 0.488281)" d="M475.542 319.654C481.592 322.341 485.785 326.47 490.022 331.441L494.981 337.947C493.801 338.032 493.574 338.048 492.525 337.392C488.03 334.584 485.051 329.771 481.31 326.079C480.11 324.894 476.458 322.442 475.823 321.145C475.601 320.691 475.635 320.151 475.542 319.654Z"/>
	<path fill="#28BCF0" transform="scale(0.488281 0.488281)" d="M546.813 316.664C558.451 313.768 570.114 315.633 580.407 321.764C590.459 327.752 597.456 336.623 600.357 348.018C603.531 360.485 601.93 372.982 595.112 384.015C589.119 393.714 579.355 400.358 568.277 402.792C557.149 405.237 545.618 403.21 536.071 396.938C528.179 391.752 523.626 382.98 515.934 377.899C511.598 376.032 507.003 375.459 502.462 377.178C496.652 379.377 493.591 384.361 490.765 389.539C488.219 392.324 485.701 394.845 482.61 397.029C473.246 403.644 462.11 406.27 450.754 404.268C440.026 402.377 430.306 396.02 424.159 387.074C426.86 387.723 429.64 390.051 432.081 391.483C436.621 394.144 441.744 396.194 446.955 397.037C461.782 399.436 473.69 395.381 483.881 384.011C489.132 378.152 493.108 370.632 501.962 369.958C508.361 369.47 515.025 371.125 519.548 375.926C523.225 379.829 525.897 384.301 530.115 387.794C536.548 393.12 547.033 395.314 555.25 394.528C564.795 393.615 573.311 388.62 579.334 381.273C586.52 372.507 589.212 362.996 587.928 351.776C586.033 335.216 573.436 323.933 557.995 319.548C554.598 318.584 549.439 318.754 546.813 316.664Z"/>
	<path fill="#FDB32E" transform="scale(0.488281 0.488281)" d="M119.543 394.136C113.18 389.982 107.873 384.789 104.152 378.136C98.4689 367.976 97.3373 357.04 100.529 345.846C103.606 335.051 110.694 325.846 120.6 320.455C135.809 312.178 156.815 313.335 169.499 325.75C175.352 331.478 176.947 340.402 185.819 342.653C188.809 343.411 192.734 342.577 195.359 341.021C197.962 339.478 200.148 336.664 200.739 333.661C201.384 330.384 200.953 326.484 200.929 323.13L200.788 302.917L200.602 229.444L200.651 215.126C200.67 212.223 200.46 208.765 201.278 205.967C201.991 203.527 204.279 201.117 206.754 200.439C209.288 199.746 212.521 199.994 215.155 199.987L229.876 199.96L292.327 199.905C302.404 199.909 313.235 200.691 323.22 199.772C325.237 199.587 327.005 199.033 328.75 198.003C332.033 196.064 334.739 193.205 335.557 189.38C337.522 180.198 327.246 176.527 321.532 171.928C318.782 169.714 316.459 166.927 314.605 163.93C308.252 153.664 306.811 142.326 309.718 130.64C312.337 120.113 319.172 111.134 328.469 105.614C338.747 99.5117 350.653 98.0388 362.197 101.069C375.256 104.497 383.306 112.285 389.953 123.689C399.594 128.303 408.072 138.188 411.835 148.156C413.027 151.317 413.643 154.667 414.194 157.984C414.943 162.494 414.806 167.823 413.7 172.25L413.479 173.171C411.43 181.482 406.092 189.244 399.47 194.614C397.351 196.333 394.647 197.748 392.761 199.698L490.913 199.936L490.879 286.5L490.921 313.124C490.91 319.024 491.272 325.655 490.022 331.441C485.785 326.47 481.592 322.341 475.542 319.654C467.771 315.166 457.131 314.71 448.5 316.328L447.526 316.504C437.324 318.434 427.346 325.082 421.616 333.75C415.538 342.944 412.185 355.677 414.559 366.595C415.981 373.137 419.36 382.23 424.159 387.074C430.306 396.02 440.026 402.377 450.754 404.268C462.11 406.27 473.246 403.644 482.61 397.029C485.701 394.845 488.219 392.324 490.765 389.539C493.591 384.361 496.652 379.377 502.462 377.178C507.003 375.459 511.598 376.032 515.934 377.899L516.408 490.015L516.017 517.568L549.237 517.607L515.492 517.983L485.156 518.073L375.437 518.324C378.194 520.888 381.326 523.037 383.944 525.75C392.425 534.537 397.164 547.363 397.448 559.5C397.756 572.599 393.051 586.023 383.81 595.427C381.956 597.313 380.186 598.977 378 600.468C366.609 608.233 356.422 609.185 343.122 608.345C339.86 607.563 336.674 606.956 333.546 605.696C323.502 601.651 314.542 594.166 310.168 584.084C309.756 583.613 309.627 583.495 309.25 582.893C303.498 573.703 301.079 560.555 302.954 549.969C304.843 539.308 310.316 530.103 318.55 523.142C320.753 521.281 323.269 519.827 325.628 518.174C327.864 517.215 329.985 516.304 331.75 514.561C333.578 512.757 334.467 510.317 334.412 507.75C334.225 499.058 327.37 499.041 321.506 495.892C318.444 494.247 316.008 491.62 313.608 489.158L201.07 489.862L200.994 409.391C193.956 415.744 187.564 420.775 178.034 423.07C164.981 426.212 151.573 424.607 140.051 417.518C133.641 413.575 128.381 408.151 123.925 402.118C121.986 399.492 120.324 397.417 119.543 394.136Z"/>
	<path fill="#077AA5" transform="scale(0.488281 0.488281)" d="M389.953 123.689C399.594 128.303 408.072 138.188 411.835 148.156C413.027 151.317 413.643 154.667 414.194 157.984C414.943 162.494 414.806 167.823 413.7 172.25L413.479 173.171C411.43 181.482 406.092 189.244 399.47 194.614C397.351 196.333 394.647 197.748 392.761 199.698C391.114 200.071 389.007 199.873 387.301 199.888C383.676 199.919 379.433 200.295 376 198.963C372.505 197.606 369.475 194.979 368.019 191.479C363.662 181.012 375.806 177.507 381.721 172.319C385.534 168.973 388.414 164.672 390.442 160.045C395.832 147.749 394.743 135.83 389.953 123.689Z"/>
	<path fill="#FBF8F5" transform="scale(0.488281 0.488281)" d="M224.403 213.673L257.827 213.445C262.567 213.417 268.117 212.81 272.75 213.535C274.156 213.755 275.465 214.631 276.447 215.64C278.031 217.27 278.795 219.544 278.763 221.792C278.725 224.488 277.92 226.4 275.933 228.25C274.87 229.24 273.361 230.095 271.915 230.337C268.173 230.962 263.547 230.459 259.728 230.433L233.905 230.204L233.978 249.75L234.006 270.076C234.003 274 234.591 278.832 233.108 282.536C232.25 284.681 230.367 286.319 228.25 287.162C225.923 288.088 223.113 287.826 220.877 286.754C219.118 285.912 217.525 284.16 216.967 282.278C215.719 278.061 216.53 271.925 216.536 267.498L216.768 231.626C216.811 228.153 215.947 220.591 217.75 217.778C219.366 215.256 221.587 214.283 224.403 213.673Z"/>
	<path fill="#077AA5" transform="scale(0.488281 0.488281)" d="M119.543 394.136C130.509 399.944 140.816 402.678 153.117 398.851C159.624 396.827 165.8 393.29 170.451 388.248C176.016 382.216 176.042 374.231 186.27 373.431C189.212 373.201 191.615 373.43 194.25 374.821C197.291 376.427 199.503 379.099 200.566 382.375C201.478 385.184 201.1 388.96 201.088 391.937L200.994 409.391C193.956 415.744 187.564 420.775 178.034 423.07C164.981 426.212 151.573 424.607 140.051 417.518C133.641 413.575 128.381 408.151 123.925 402.118C121.986 399.492 120.324 397.417 119.543 394.136Z"/>
	<path fill="#FA9D37" transform="scale(0.488281 0.488281)" d="M490.765 389.539C493.591 384.361 496.652 379.377 502.462 377.178C507.003 375.459 511.598 376.032 515.934 377.899L516.408 490.015L516.017 517.568L549.237 517.607L515.492 517.983L485.156 518.073L375.437 518.324C374.756 517.91 374.098 517.517 373.5 516.984C371.164 514.901 369.417 511.927 369.324 508.75C369.036 498.901 375.567 498.674 382.205 494.365C384.413 492.931 386.291 490.829 388.117 488.943C390.556 489.976 393.642 489.621 396.273 489.63L411.891 489.709L491.046 489.504L490.765 389.539Z"/>
	<path fill="#0CC886" transform="scale(0.488281 0.488281)" d="M313.608 489.158C308.834 483.199 305.018 476.553 303.507 468.999C302.714 465.035 302.32 461.417 302.534 457.348C303.161 445.448 309.128 433.866 318.036 426.069C327.832 417.493 339.39 413.569 352.375 414.511C366.526 415.745 377.873 420.457 387.134 431.623C395.357 441.536 398.981 453.756 397.66 466.554C396.791 474.974 393.117 482.235 388.117 488.943C386.291 490.829 384.413 492.931 382.205 494.365C375.567 498.674 369.036 498.901 369.324 508.75C369.417 511.927 371.164 514.901 373.5 516.984C374.098 517.517 374.756 517.91 375.437 518.324C378.194 520.888 381.326 523.037 383.944 525.75C392.425 534.537 397.164 547.363 397.448 559.5C397.756 572.599 393.051 586.023 383.81 595.427C381.956 597.313 380.186 598.977 378 600.468C366.609 608.233 356.422 609.185 343.122 608.345C339.86 607.563 336.674 606.956 333.546 605.696C323.502 601.651 314.542 594.166 310.168 584.084C309.756 583.613 309.627 583.495 309.25 582.893C303.498 573.703 301.079 560.555 302.954 549.969C304.843 539.308 310.316 530.103 318.55 523.142C320.753 521.281 323.269 519.827 325.628 518.174C327.864 517.215 329.985 516.304 331.75 514.561C333.578 512.757 334.467 510.317 334.412 507.75C334.225 499.058 327.37 499.041 321.506 495.892C318.444 494.247 316.008 491.62 313.608 489.158Z"/>
	<path fill="#088554" transform="scale(0.488281 0.488281)" d="M352.375 414.511C366.526 415.745 377.873 420.457 387.134 431.623C395.357 441.536 398.981 453.756 397.66 466.554C396.791 474.974 393.117 482.235 388.117 488.943C386.291 490.829 384.413 492.931 382.205 494.365C375.567 498.674 369.036 498.901 369.324 508.75C369.417 511.927 371.164 514.901 373.5 516.984C374.098 517.517 374.756 517.91 375.437 518.324C378.194 520.888 381.326 523.037 383.944 525.75C392.425 534.537 397.164 547.363 397.448 559.5C397.756 572.599 393.051 586.023 383.81 595.427C381.956 597.313 380.186 598.977 378 600.468C366.609 608.233 356.422 609.185 343.122 608.345C339.86 607.563 336.674 606.956 333.546 605.696C323.502 601.651 314.542 594.166 310.168 584.084L317.905 590.633C328.038 597.785 339.581 600.371 351.75 597.997C362.287 595.942 372.836 589.436 378.863 580.429C388.899 565.431 388.623 543.599 376.449 529.754C371.157 523.735 360.021 519.465 358.434 511.166L358.32 510.512C356.197 499.053 366.723 494.25 373.935 488.179C376.71 485.843 379.078 483.001 380.799 479.804C386.204 469.767 387.437 456.101 383.996 445.25C380.579 434.472 374.524 425.982 364.589 420.364C360.666 418.145 356.373 416.628 352.375 414.511Z"/>
</svg>
