<?xml version="1.0" encoding="utf-8" ?>
<svg xmlns="http://www.w3.org/2000/svg" xmlns:xlink="http://www.w3.org/1999/xlink" width="500" height="500">
	<path fill="#E36F81" transform="scale(0.488281 0.488281)" d="M-0 -0L1024 0L1024 1024L-0 1024L0 -0Z"/>
	<path fill="#9A3D60" transform="scale(0.488281 0.488281)" d="M94.0738 904.785C101.055 909.829 107.011 913.215 115.42 915.294C124.415 917.518 135.865 916.275 145.148 916.235L185.035 916.279L376.805 916.383L736.911 916.388L846.946 916.436L882.477 916.508C888.684 916.522 895.081 916.872 901.268 916.497C908.978 916.028 917.394 912.94 923.894 908.887L928.599 905.84C932.511 906.679 937.299 905.83 941.363 906.118C948.11 906.596 954.781 910.225 959.038 915.43C963.205 920.524 965.597 927.701 964.82 934.252C964.043 940.802 960.525 946.809 955.324 950.832C951.006 954.172 945.93 955.866 940.5 955.975L872.903 955.974L739.379 955.965L339.015 955.971L155.384 955.978L104.338 956.003C96.8443 956.004 88.0246 956.883 80.6784 955.759L80 955.644C77.7601 955.278 75.7424 954.637 73.7102 953.618C67.939 950.724 62.9922 944.359 61.1136 938.25C59.1575 931.889 60.0363 924.432 63.0795 918.566C66.1273 912.692 71.8739 907.901 78.2146 906.025L78.9199 905.823C83.6485 904.401 89.1479 904.897 94.0738 904.785Z"/>
	<path fill="#031140" transform="scale(0.488281 0.488281)" d="M94.0738 904.785L90.3308 901.152C83.1671 893.935 77.9109 883.577 76.4715 873.5L76.3335 872.576C75.1865 864.473 75.7665 855.9 75.8086 847.722L75.8851 808.901L75.9718 655.605L75.9999 483.912L75.9989 433.115C75.9902 423.735 75.3332 413.796 76.3779 404.5L76.4723 403.599C77.7936 391.583 84.5292 379.428 93.9453 371.897C101.084 366.189 110.373 362.537 119.46 361.585C126.407 360.857 134.01 361.568 141.044 361.536L141.144 324.556C141.171 316.224 140.766 307.56 141.636 299.274C143.192 284.469 150.971 269.401 161.5 259.029C169.004 251.638 178.171 246.274 188.109 242.843C195.682 240.229 202.77 239.276 210.75 239.124C214.557 239.052 218.452 239.377 222.187 238.505L259.469 227.895L309.031 213.956L600.443 130.691L715.16 98.0225C716.117 97.7809 721.969 96.6519 722.345 96.2168C722.37 96.1875 722.474 94.3422 722.492 94.1255C722.748 91.0234 723.398 87.7972 726.243 85.9878C731.11 82.8925 738.845 81.7663 744.486 80.1269L764.493 74.4726C767.048 73.7906 769.982 72.6326 772.628 72.5202C775.218 72.4102 778.529 73.6938 780.313 75.5725C782.865 78.2593 783.753 83.0247 784.755 86.5002L790.058 106.366C790.469 108.205 791.672 111.908 791.347 113.654C790.803 116.571 787.847 119.689 785.25 120.933C780.954 122.99 775.371 123.957 770.767 125.239C764.817 126.896 742.107 134.536 737.04 132.555C735.424 131.923 731.849 127.655 731.427 127.592C731.018 127.531 728.897 128.408 728.392 128.57L718.083 131.779L677.837 143.334L533.337 185.091L401.001 222.537L348.019 238.344L382.345 238.642L474.515 238.999L703.892 238.528L784.007 238.564L807.391 238.546C812.243 238.548 817.258 238.295 822.056 239.088C838.029 241.728 851.906 248.058 862.951 260.25C872.427 270.709 878.679 283.562 880.332 297.643C881.324 306.093 880.817 315.074 880.842 323.577L880.919 361.792C888.862 361.652 897.646 360.765 905.5 361.695C915.346 362.861 925.856 368.54 932.882 375.397C941.293 383.605 946.07 394.559 947.693 406.075C948.591 412.447 948.15 419.422 948.203 425.86L948.345 465.671L948.427 595.688L948.448 779.103L948.485 836.523C948.511 846.762 949.138 857.47 948.432 867.666C947.727 877.845 942.967 889.232 936.823 897.299C934.399 900.482 931.572 903.178 928.599 905.84L923.894 908.887C917.394 912.94 908.978 916.028 901.268 916.497C895.081 916.872 888.684 916.522 882.477 916.508L846.946 916.436L736.911 916.388L376.805 916.383L185.035 916.279L145.148 916.235C135.865 916.275 124.415 917.518 115.42 915.294C107.011 913.215 101.055 909.829 94.0738 904.785Z"/>
	<path fill="#AEC8F1" transform="scale(0.488281 0.488281)" d="M732.917 103.841L730.185 92.3933L774.038 79.8638C776.437 82.6765 777.277 87.7037 778.189 91.188L732.917 103.841Z"/>
	<path fill="#4694E9" transform="scale(0.488281 0.488281)" d="M778.189 91.188L783.858 113.697L739.112 125.31L732.917 103.841L778.189 91.188Z"/>
	<path fill="#31D7D5" transform="scale(0.488281 0.488281)" d="M724.65 110.25C725.72 110.024 725.551 109.911 726.649 110.409L727.939 114.107L688.5 125.147L631.87 141.25L583.53 155.342L464.124 189.267L326.535 228.837L296.64 237.507C292.562 238.757 288.368 240.781 284.25 241.717C279.655 242.76 273.132 241.707 268.375 241.501L265.25 241.314C268.565 239.429 273.023 238.735 276.723 237.692L303.874 230.267L378.073 209.095L724.65 110.25Z"/>
	<path fill="#BDE7D9" transform="scale(0.488281 0.488281)" d="M90.0661 864.747L90.0504 863.562L90.0555 724.71L89.6866 551.411L89.6736 454.878L89.6119 423.775C89.6036 418.307 89.2339 412.551 89.8092 407.115C90.6821 398.869 94.2571 391.448 100.093 385.585C105.676 379.976 112.795 376.228 120.731 375.395C128.02 374.629 135.761 375.088 143.094 375.089L183.267 375.1L314.293 375.142L742.844 375.006L855.116 375.241L886.386 375.25C892.256 375.254 899.016 374.649 904.754 375.804C912.329 377.328 918.577 380.742 923.989 386.245C929.165 391.508 932.605 398.868 933.322 406.217C933.834 411.469 933.44 417.085 933.411 422.386L933.226 453.604L933.059 549.89L933.021 863.995L919.434 863.971C918.425 861.818 918.739 859.494 918.741 857.164L918.792 842.939L918.868 801.468L918.99 538.52L919.092 455.007C919.145 440.339 919.925 425.275 919.113 410.64C918.942 407.557 917.983 405.142 916.727 402.353C914.21 397.4 909.376 393.82 904.25 391.914L903.621 391.671C899.352 390.144 892.833 390.952 888.285 390.945L858.651 390.916L752.416 390.951L307.329 391.044L185.311 391.027L145.901 391.02C139.601 391.021 132.986 390.624 126.718 391.09C124.027 391.29 121.676 391.768 119.25 392.991C113.617 395.83 108.719 401.149 106.784 407.182C105.378 411.567 105.67 416.707 105.661 421.275L105.643 440.816L105.642 489.392L105.379 621.294L105.891 721.733L106.003 816.157L106.081 846.082C106.103 852.282 105.932 858.626 106.484 864.803L90.0661 864.747Z"/>
	<path fill="#E36F81" transform="scale(0.488281 0.488281)" d="M292.642 314.751L640.37 314.752L740.538 314.868L802.357 314.63C804.524 314.55 805.736 314.52 807.392 316.059C808.257 316.864 808.993 317.77 809.25 318.945C810.103 322.854 809.47 328.156 809.462 332.211L809.372 361.601L731.25 361.287L212.952 361.338L212.959 336.306C212.965 331.98 212.53 327.185 213.384 322.954C213.747 321.158 214.509 319.506 215.75 318.142C217.181 316.57 219.199 315.4 221.305 315.062C227.922 314 235.909 314.834 242.714 314.82L292.642 314.751Z"/>
	<defs>
		<linearGradient id="gradient_0" gradientUnits="userSpaceOnUse" x1="510.63748" y1="361.32306" x2="511.0452" y2="252.34787">
			<stop offset="0" stop-color="#E6801A"/>
			<stop offset="1" stop-color="#F7BA36"/>
		</linearGradient>
	</defs>
	<path fill="url(#gradient_0)" transform="scale(0.488281 0.488281)" d="M185.892 361.438L163.881 361.405C161.521 361.4 157.88 361.897 155.686 361.121L155.534 325.935C155.533 316.611 155.178 307.297 156.504 298.044C158.437 284.562 167.429 271.414 178.268 263.461C185.897 257.863 195.842 254.031 205.283 253.268C220.496 252.039 236.439 252.96 251.726 252.916L344.999 252.781L615.118 252.684L760.634 252.784L797.989 252.658C805.259 252.606 813.24 251.922 820.41 253.083C834.399 255.349 847.494 262.619 855.819 274.25C860.438 280.702 863.99 288.116 865.517 295.938C866.957 303.312 866.164 312.015 866.175 319.544L866.18 362.217L839.892 362.124L823.088 362.595L823.293 334.579C823.332 327.664 824.447 318.241 821.719 311.767C819.746 307.084 816.039 303.476 811.283 301.668L810.5 301.384C808.062 300.482 805.856 300.509 803.297 300.504L403.753 300.681L278.811 300.668L241.825 300.695C234.76 300.703 227.316 300.266 220.304 301.071C214.997 301.68 209.57 304.551 205.901 308.391C202.854 311.58 200.776 315.79 199.89 320.097C199.014 324.352 199.483 329.437 199.464 333.812L199.407 361.427L185.892 361.438Z"/>
	<path fill="#EB422D" transform="scale(0.488281 0.488281)" d="M185.892 361.438L185.816 335.083C185.766 320.748 184.372 307.76 195.549 296.75C200.444 291.928 207.434 288.364 214.293 287.641C220.676 286.969 227.655 287.477 234.108 287.481L274.291 287.521L411.925 287.901L678.5 288.003L802.975 288.074L809.467 288.461C818.315 289.157 826.503 294.797 832.1 301.436C836.219 306.322 838.62 312.745 839.54 319L839.666 319.784C840.375 324.526 839.976 329.661 839.975 334.474L839.892 362.124L823.088 362.595L823.293 334.579C823.332 327.664 824.447 318.241 821.719 311.767C819.746 307.084 816.039 303.476 811.283 301.668L810.5 301.384C808.062 300.482 805.856 300.509 803.297 300.504L403.753 300.681L278.811 300.668L241.825 300.695C234.76 300.703 227.316 300.266 220.304 301.071C214.997 301.68 209.57 304.551 205.901 308.391C202.854 311.58 200.776 315.79 199.89 320.097C199.014 324.352 199.483 329.437 199.464 333.812L199.407 361.427L185.892 361.438Z"/>
	<defs>
		<linearGradient id="gradient_1" gradientUnits="userSpaceOnUse" x1="940.12823" y1="454.94461" x2="76.692818" y2="842.26147">
			<stop offset="0" stop-color="#31AF89"/>
			<stop offset="1" stop-color="#53CAAC"/>
		</linearGradient>
	</defs>
	<path fill="url(#gradient_1)" transform="scale(0.488281 0.488281)" d="M90.0661 864.747L106.484 864.803C105.932 858.626 106.103 852.282 106.081 846.082L106.003 816.157L105.891 721.733L105.379 621.294L105.642 489.392L105.643 440.816L105.661 421.275C105.67 416.707 105.378 411.567 106.784 407.182C108.719 401.149 113.617 395.83 119.25 392.991C121.676 391.768 124.027 391.29 126.718 391.09C132.986 390.624 139.601 391.021 145.901 391.02L185.311 391.027L307.329 391.044L752.416 390.951L858.651 390.916L888.285 390.945C892.833 390.952 899.352 390.144 903.621 391.671L904.25 391.914C909.376 393.82 914.21 397.4 916.727 402.353C917.983 405.142 918.942 407.557 919.113 410.64C919.925 425.275 919.145 440.339 919.092 455.007L918.99 538.52L918.868 801.468L918.792 842.939L918.741 857.164C918.739 859.494 918.425 861.818 919.434 863.971L933.021 863.995C932.402 870.453 931.421 876.143 928.425 881.963L928.396 881.982C925.845 887.336 921.594 892.674 916.554 895.864C914.265 897.313 911.848 898.523 909.303 899.454C906.371 900.527 903.345 901.282 900.222 901.49C893.308 901.95 886.161 901.563 879.213 901.557L838.463 901.507L714.999 901.439L290.704 901.532L170.295 901.605L138.184 901.732C132.518 901.755 125.305 902.545 119.828 901.17L119.25 901.015C113.256 899.461 108.031 896.733 103.268 892.785C94.6066 885.604 91.1038 875.608 90.0661 864.747Z"/>
	<path fill="#031140" transform="scale(0.488281 0.488281)" d="M161.921 422.013C164.808 424.228 166.54 427.602 166.962 431.225C167.485 435.71 166.392 440.273 163.513 443.807C160.752 447.196 157.027 449.513 152.614 449.914C148.783 450.262 143.757 449.063 140.739 446.54L139.943 445.7C141.122 446.092 142.224 446.777 143.402 447.212C147.161 448.6 152.175 448.255 155.75 446.425C159.775 444.365 163.095 440.795 164.409 436.433C166.129 430.724 164.642 427.078 161.921 422.013Z"/>
	<path fill="#031140" transform="scale(0.488281 0.488281)" d="M428.857 425.34C430.644 429.422 431.427 433.553 429.769 437.837C428.161 441.994 425.162 445.498 421.003 447.254C417.268 448.831 413.306 448.934 409.536 447.361C406.486 446.088 403.902 444.007 402.047 441.282C406.232 444.613 410.359 446.248 415.79 445.564C420.021 445.032 423.956 441.886 426.316 438.473C429.198 434.303 429.666 430.181 428.857 425.34Z"/>
	<path fill="#EB422D" transform="scale(0.488281 0.488281)" d="M398.241 430.212C398.519 427.664 398.964 425.423 400.127 423.098C401.86 419.635 405.286 416.941 408.964 415.794C413.77 414.295 418.183 415.231 422.529 417.51C420.032 421.621 417.874 426.342 414.154 429.469L400.689 430.352C399.743 430.471 399.159 430.42 398.241 430.212Z"/>
	<path fill="#E4211F" transform="scale(0.488281 0.488281)" d="M161.695 421.967L161.921 422.013C164.642 427.078 166.129 430.724 164.409 436.433C163.095 440.795 159.775 444.365 155.75 446.425C152.175 448.255 147.161 448.6 143.402 447.212C142.224 446.777 141.122 446.092 139.943 445.7C137.519 443.916 136.428 441.643 135.208 439.002C141.659 440.178 146.907 438.109 152.186 434.513C156.589 431.514 160.656 427.338 161.695 421.967Z"/>
	<path fill="#EB422D" transform="scale(0.488281 0.488281)" d="M135.208 439.002C134.818 437.349 134.457 435.78 134.415 434.072C134.309 429.698 135.873 425.273 139.028 422.173C142.378 418.882 147.215 417.227 151.851 417.436C155.533 417.601 159.187 419.276 161.695 421.967C160.656 427.338 156.589 431.514 152.186 434.513C146.907 438.109 141.659 440.178 135.208 439.002Z"/>
	<path fill="#E4211F" transform="scale(0.488281 0.488281)" d="M398.241 430.212C399.159 430.42 399.743 430.471 400.689 430.352L414.154 429.469C417.874 426.342 420.032 421.621 422.529 417.51C425.487 419.874 427.152 421.907 428.857 425.34C429.666 430.181 429.198 434.303 426.316 438.473C423.956 441.886 420.021 445.032 415.79 445.564C410.359 446.248 406.232 444.613 402.047 441.282C399.44 437.613 398.496 434.636 398.241 430.212Z"/>
	<path fill="#031140" transform="scale(0.488281 0.488281)" d="M410.394 864.677C405.403 862.794 401.447 860.297 399.202 855.203C397.275 850.83 397.139 846.441 398.912 841.994C400.523 837.955 403.689 834.745 407.743 833.16C411.957 831.513 416.982 831.372 421.097 833.393C425.281 835.448 428.354 839.198 429.799 843.603C431.2 847.875 430.676 852.239 428.517 856.169C426.056 860.651 422.264 863.438 417.339 864.734L415.396 865.157L410.394 864.677Z"/>
	<path fill="#042454" transform="scale(0.488281 0.488281)" d="M413.72 833.676C415.551 833.869 417.305 834.001 418.987 834.802L419.5 835.057L420.039 835.305C423.345 836.886 426.465 840.43 427.547 843.959C428.483 847.013 428.058 851.093 426.448 853.837C423.852 858.265 420.24 860.671 415.337 862.006C414.058 862.011 412.906 861.905 411.648 861.663L411 861.534C410.158 861.37 409.3 861.224 408.5 860.902C405.422 859.664 402.984 857.076 401.624 854.093L401.364 853.503L401.097 852.951C399.873 850.188 400.037 845.203 401.176 842.405L401.466 841.75C401.804 840.975 402.123 840.286 402.635 839.605C405.561 835.715 409.028 834.248 413.72 833.676Z"/>
	<path fill="#E4211F" transform="scale(0.488281 0.488281)" d="M150.416 828.642C153.447 828.811 156.205 829.254 158.929 830.7C163.301 833.022 166.26 837.129 167.574 841.854C168.769 846.148 167.315 851.088 164.949 854.75C161.856 859.538 157.779 861.293 152.445 862.411C149.084 862.667 145.486 861.995 142.585 860.214C138.812 857.898 136.477 854.202 135.552 849.922C134.49 845.008 135.31 839.579 138.2 835.407C141.054 831.288 145.666 829.471 150.416 828.642Z"/>
	<path fill="#E36F81" transform="scale(0.488281 0.488281)" d="M147.69 830.617C152.163 830.283 155.71 830.56 159.82 832.496C153.744 833.509 147.931 834.231 142.836 838.008L142.365 838.363L136.068 845.648C136.432 843.269 137.136 840.176 138.295 838.071C140.358 834.324 143.721 831.907 147.69 830.617Z"/>
	<path fill="#119C73" transform="scale(0.488281 0.488281)" d="M903.538 411.918L904.745 413.25L904.676 414.047C904.48 416.843 904.759 419.908 904.762 422.736L904.5 447.25L904.622 449C904.9 453.021 904.307 456.963 904.622 461C904.961 465.339 904.879 471.468 904.245 475.75C904.055 477.034 904.023 478.223 904.122 479.5C904.309 481.891 903.998 484.597 903.997 487.031L903.993 505.043L903.987 564.362L903.987 749.314L903.99 800.352C903.99 808.192 903.308 816.639 904.066 824.375C904.268 826.431 903.863 828.09 904.386 830.167C904.925 832.311 905.07 842.396 904 844L904.061 844.562L904 870.25L904.255 869.5L904.875 869.125L905.375 870.253C906.352 869.8 907.331 869.26 908.378 869L909.25 867.755L910.5 867.75C910.751 866.522 910.777 865.493 910.755 864.25L911.25 863.755L912 865.25C912.65 865.25 912.361 865.342 912.875 865.003L913.255 865.25C913.328 864.208 913.554 863.794 913.003 862.875L913.003 862.503L913.595 862.395C914.394 862.236 914.085 862.338 914.755 862C914.591 861.097 914.334 860.706 913.755 860L914.5 859.255L915.255 859.75L915.75 859.255C916.764 860.235 917.1 860.685 917.472 862.018L917.835 863L918.59 863.921L919.434 863.971L933.021 863.995C932.402 870.453 931.421 876.143 928.425 881.963L928.396 881.982C922.319 882.978 916.656 885.613 910.5 886.358C903.581 887.195 896.317 886.888 889.353 886.928L853.018 887.015L739.374 887.095L376.174 886.079L199.911 886.018L149.351 886.013C141.789 886.009 133.109 886.853 125.719 885.728L125 885.607C123.704 885.399 122.479 885.191 121.254 884.695C115.634 882.418 111.041 877.752 108.814 872.12L106.426 864.904L160.557 865.041L325.905 865.104L381.947 865.134L399.247 865.181C402.758 865.185 406.517 865.433 409.966 864.768L410.394 864.677L415.396 865.157C418.01 865.927 421.649 865.594 424.391 865.592L455.496 865.497C457.525 865.488 462.324 866.067 464.081 865.46C465.338 865.025 467.002 862.923 467.953 861.984L477.178 852.843C477.517 856.54 476.066 871.946 478.109 873.908C478.766 874.539 479.601 874.953 480.492 875.026C486.017 875.482 491.637 875.257 497.182 875.25L524.703 875.205L609.561 875.192L903.417 875.443L903.538 411.918Z"/>
	<path fill="#042454" transform="scale(0.488281 0.488281)" d="M271.285 463.711C313.583 460.908 358.865 475.676 391.314 503.016C428.579 534.413 452.302 577.966 456.503 626.714C460.543 673.603 446.139 720.664 415.539 756.594C384.274 793.305 340.758 816.128 292.622 819.81C246.908 822.749 201.686 807.771 166.893 777.748C130.919 746.706 110.78 702.635 107.46 655.521C104.075 607.497 119.152 559.057 150.946 522.599C174.32 495.796 206.416 476.14 241.065 467.922C250.997 465.567 261.121 464.424 271.285 463.711Z"/>
	<path fill="#FBCF4C" transform="scale(0.488281 0.488281)" d="M385.005 516.669C403.616 532.375 418.659 552.373 428.513 574.63C425.71 579.333 423.063 586.296 418.831 589.833C414.894 580.949 410.947 572.236 405.605 564.081L390.243 542.371L390.251 542.338C388.386 539.787 385.789 536.833 382.737 535.846L382.195 534.728C383.089 532.894 383.711 531.242 384.088 529.231L384.25 528.334C385.014 524.42 384.995 520.635 385.005 516.669Z"/>
	<defs>
		<linearGradient id="gradient_2" gradientUnits="userSpaceOnUse" x1="267.55002" y1="692.28986" x2="237.73396" y2="481.65179">
			<stop offset="0" stop-color="#FDCF76"/>
			<stop offset="1" stop-color="#FFFFC4"/>
		</linearGradient>
	</defs>
	<path fill="url(#gradient_2)" transform="scale(0.488281 0.488281)" d="M120.482 645.858L120.444 645.349C119.942 635.792 121.098 626.139 122.609 616.724C127.654 585.309 140.374 555.852 161.596 531.847C190.054 499.655 228.842 480.262 271.805 477.656C311.819 475.229 354.996 490.025 385.005 516.669C384.995 520.635 385.014 524.42 384.25 528.334L384.088 529.231C383.711 531.242 383.089 532.894 382.195 534.728C379.94 531.797 377.296 529.212 374.272 527.086C371.781 524.332 368.272 522.101 365.249 519.948C356.913 514.012 348.081 508.451 338.701 504.332C335.462 503.326 332.408 501.579 329.182 500.43C324.478 498.754 319.643 497.723 314.877 496.28C308.93 494.163 300.482 492.752 294.21 492.485C286.154 491.435 277.603 491.876 269.492 492.236L249.575 495.609C241.18 497.865 232.898 499.822 224.965 503.467C215.283 506.547 205.834 512.905 197.537 518.655C194.126 521.019 189.999 523.709 187.243 526.788C184.822 528.625 182.951 530.326 181.077 532.732C171.57 541.766 162.871 553.366 156.604 564.89C151.607 573.301 148.15 581.846 144.66 590.92C142.881 595.998 140.806 601.298 139.917 606.608L137.521 622.779C135.747 629.087 134.861 636.264 134.906 642.825C134.931 645.789 134.614 649.332 135.355 652.179C137.022 657.709 137.354 664.067 138.425 669.806C138.969 675.638 140.647 681.287 142.365 686.869C143.879 691.623 145.122 696.549 146.885 701.212L149.877 708.125L149.776 709.353L149.427 708.755L148.375 706.747L148.141 706.294C147.484 704.982 146.938 703.651 146.5 702.25C145.214 702.502 144.312 702.708 143.226 703.464C141.684 704.538 139.828 704.368 138.06 704.027L135.783 703.591C134.952 703.436 134.696 703.207 133.995 702.825L132.854 702.306C132.294 703.798 133.83 706.667 134.5 708.25L135.404 710.075L135.223 711.443C133.19 708.06 131.875 703.651 130.563 699.927C124.497 682.714 120.583 664.147 120.482 645.858Z"/>
	<path fill="#F0A939" transform="scale(0.488281 0.488281)" d="M269.492 492.236C277.603 491.876 286.154 491.435 294.21 492.485C300.482 492.752 308.93 494.163 314.877 496.28C319.643 497.723 324.478 498.754 329.182 500.43C332.408 501.579 335.462 503.326 338.701 504.332C348.081 508.451 356.913 514.012 365.249 519.948C368.272 522.101 371.781 524.332 374.272 527.086C377.296 529.212 379.94 531.797 382.195 534.728L382.737 535.846C385.789 536.833 388.386 539.787 390.251 542.338L390.243 542.371L405.605 564.081C410.947 572.236 414.894 580.949 418.831 589.833C423.063 586.296 425.71 579.333 428.513 574.63C446.381 615.459 448.087 660.188 431.716 701.845C415.126 744.061 382.589 775.202 341.227 793.041C303.321 809.39 260.359 810.255 221.977 794.75C184.235 779.504 151.79 749.997 135.511 712.403C135.224 711.739 135.287 711.994 135.223 711.443L135.404 710.075L134.5 708.25C133.83 706.667 132.294 703.798 132.854 702.306L133.995 702.825C134.696 703.207 134.952 703.436 135.783 703.591L138.06 704.027C139.828 704.368 141.684 704.538 143.226 703.464C144.312 702.708 145.214 702.502 146.5 702.25C146.938 703.651 147.484 704.982 148.141 706.294L148.375 706.747L149.427 708.755L149.776 709.353L149.877 708.125L146.885 701.212C145.122 696.549 143.879 691.623 142.365 686.869C140.647 681.287 138.969 675.638 138.425 669.806C137.354 664.067 137.022 657.709 135.355 652.179C134.614 649.332 134.931 645.789 134.906 642.825C134.861 636.264 135.747 629.087 137.521 622.779L139.917 606.608C140.806 601.298 142.881 595.998 144.66 590.92C148.15 581.846 151.607 573.301 156.604 564.89C162.871 553.366 171.57 541.766 181.077 532.732C182.951 530.326 184.822 528.625 187.243 526.788C189.999 523.709 194.126 521.019 197.537 518.655C205.834 512.905 215.283 506.547 224.965 503.467C232.898 499.822 241.18 497.865 249.575 495.609L269.492 492.236Z"/>
	<path fill="#74522A" transform="scale(0.488281 0.488281)" d="M427.636 625.658C428.834 635.751 430.04 647.132 428.043 657.161C428.263 652.254 427.441 650.499 424.308 646.622C424.607 645.807 424.844 645.113 424.974 644.25C425.514 640.671 425.861 632.997 423.613 630.266L427.636 625.658Z"/>
	<path fill="#74522A" transform="scale(0.488281 0.488281)" d="M407.687 710.963L409.5 710.559L410.514 711.38L411.339 711.851C404.207 725.894 392.327 739.732 380.559 750.159L378.183 749.323C379.497 748.318 380.546 747.068 381.713 745.906L381.993 745.63L382.777 745.604C384.849 744.328 385.753 741.665 387.197 739.75C389.834 736.253 392.978 733.045 395.78 729.668L394.31 723.396C395.796 721.932 397.415 720.981 399.198 719.927C400.255 719.422 401.294 718.97 402.206 718.221L402.745 717.75C403.583 717.17 403.884 717.214 404.498 716.294C405.051 715.464 405.593 714.758 406.245 714C407.092 713.015 407.304 712.19 407.687 710.963Z"/>
	<path fill="#8E6E33" transform="scale(0.488281 0.488281)" d="M407.687 710.963L409.5 710.559L410.514 711.38C409.006 712.586 408.813 713.614 407.973 715.218C407.247 716.607 405.879 717.806 404.837 718.983L401.25 723.423C399.364 725.533 397.265 727.22 395.78 729.668L394.31 723.396C395.796 721.932 397.415 720.981 399.198 719.927C400.255 719.422 401.294 718.97 402.206 718.221L402.745 717.75C403.583 717.17 403.884 717.214 404.498 716.294C405.051 715.464 405.593 714.758 406.245 714C407.092 713.015 407.304 712.19 407.687 710.963Z"/>
	<path fill="#042454" transform="scale(0.488281 0.488281)" d="M314.877 496.28C319.643 497.723 324.478 498.754 329.182 500.43C332.408 501.579 335.462 503.326 338.701 504.332C338.915 505.533 339.034 506.693 339.683 507.75L340.75 506.915L341.407 507.5C341.052 508.096 341.038 508.189 340.461 508.75C338.994 510.176 336.395 511.451 334.35 511.506C330.65 511.605 318.107 512.634 315.614 509.892C313.455 507.519 314.714 499.564 314.877 496.28Z"/>
	<path fill="#042454" transform="scale(0.488281 0.488281)" d="M156.604 564.89C159.237 566.753 161.196 568.262 161.695 571.581C162.256 575.316 162.699 586.11 160.264 588.977C158.916 590.564 157.049 591.017 155.059 591.093L145.507 591.116C144.911 591.122 145.147 591.174 144.66 590.92C148.15 581.846 151.607 573.301 156.604 564.89Z"/>
	<path fill="#042454" transform="scale(0.488281 0.488281)" d="M249.575 495.609C250.33 498.673 250.835 506.106 249.139 508.775C248.295 510.103 246.733 511.212 245.161 511.463C241.611 512.03 230.588 512.417 227.706 510.293C225.59 508.734 225.372 505.84 224.965 503.467C232.898 499.822 241.18 497.865 249.575 495.609Z"/>
	<path fill="#042454" transform="scale(0.488281 0.488281)" d="M142.365 686.869C147.026 686.333 155.076 684.828 158.933 687.972C160.647 689.368 161.416 690.645 161.581 692.872C161.913 697.342 162.643 705.985 160.069 709.573C157.656 711.128 155.092 711.576 152.25 711.538C151.151 710.513 150.574 709.428 149.877 708.125L146.885 701.212C145.122 696.549 143.879 691.623 142.365 686.869Z"/>
	<path fill="#042454" transform="scale(0.488281 0.488281)" d="M269.492 492.236C277.603 491.876 286.154 491.435 294.21 492.485C294.269 496.73 295.477 505.916 292.639 509.079C291.301 510.571 288.879 511.415 286.928 511.475C283.334 511.583 273.914 512.558 271.35 509.871C268.052 506.414 269.463 496.829 269.492 492.236Z"/>
	<path fill="#042454" transform="scale(0.488281 0.488281)" d="M139.917 606.608C144.843 606.413 155.611 604.585 159.42 608.103C161.895 610.389 161.863 613.096 161.913 616.269C161.963 619.508 162.742 626.053 160.531 628.502C157.615 631.732 151.299 631.045 147.307 631.025C144.539 631.011 141.932 631.279 139.912 629.061C138.37 627.368 137.893 624.963 137.521 622.779L139.917 606.608Z"/>
	<path fill="#042454" transform="scale(0.488281 0.488281)" d="M382.737 535.846C383.157 537.675 383.413 539.479 383.46 541.359C383.525 543.941 382.725 546.586 380.84 548.423C377.059 552.108 371.468 551.667 366.602 551.514C363.767 551.424 360.966 550.964 359.005 548.716C356.584 545.94 356.353 538.992 356.617 535.362C356.806 532.779 357.632 530.159 359.713 528.478C363.395 525.503 369.873 526.746 374.272 527.086C377.296 529.212 379.94 531.797 382.195 534.728L382.737 535.846Z"/>
	<path fill="#042454" transform="scale(0.488281 0.488281)" d="M318.348 527.112C322.902 527.033 328.3 526.272 332.75 527.144C334.529 527.492 336.028 528.486 337.032 530C339.178 533.235 339.175 542.404 338.269 546.105C337.651 548.625 335.279 550.102 333.181 551.27C329.415 551.986 321.696 552.103 318.01 551.148C316.366 550.723 315.259 549.422 314.444 548C312.836 545.191 312.989 534.881 313.979 531.799C314.784 529.293 316.096 528.341 318.348 527.112Z"/>
	<path fill="#042454" transform="scale(0.488281 0.488281)" d="M317.915 566.75C321.575 565.746 329.178 565.851 332.905 566.55C334.406 566.831 336.269 568.649 337 569.969C338.685 573.012 338.558 583.488 337.628 586.82C337.012 589.027 334.94 590.154 333.094 591.264C329.015 591.714 322.26 592.136 318.331 591.143C316.509 590.682 315.033 589.389 314.148 587.75C312.53 584.754 312.884 574.065 314.017 570.787C314.74 568.694 316.014 567.723 317.915 566.75Z"/>
	<path fill="#042454" transform="scale(0.488281 0.488281)" d="M231.365 526.589C235.315 526.527 241.311 525.689 245.018 526.796C247.376 527.5 248.879 529.248 249.917 531.396C251.168 533.987 250.969 543.754 249.982 546.5C248.955 549.359 247.213 550.31 244.556 551.479C240.611 551.526 234.105 552.419 230.474 551.157C228.623 550.513 226.999 549.171 226.167 547.388C224.728 544.306 224.929 534.035 226.246 530.887C227.287 528.401 229.015 527.637 231.365 526.589Z"/>
	<path fill="#042454" transform="scale(0.488281 0.488281)" d="M318.325 606.07L331.84 605.935C333.842 606.139 335.552 607 336.75 608.665C339.164 612.021 338.741 621.696 337.916 625.654C337.424 628.012 335.296 629.559 333.385 630.73C329.516 631.364 324.03 631.363 320.12 630.895C317.75 630.611 316.066 629.908 314.662 627.862C312.776 625.114 312.944 614.206 313.825 610.949C314.51 608.421 316.154 607.304 318.325 606.07Z"/>
	<path fill="#042454" transform="scale(0.488281 0.488281)" d="M231.938 606.148C236.027 606.09 242.602 605.154 246.353 606.728C248.106 607.464 249.746 609.485 250.236 611.315C251.067 614.427 251.193 624.696 249.591 627.454C248.393 629.517 246.332 630.35 244.136 630.909C239.912 630.952 233.661 631.77 229.677 630.446C228.21 629.958 226.681 628.222 226.135 626.806C224.797 623.337 224.763 613.158 226.364 609.82C227.334 607.796 229.974 606.804 231.938 606.148Z"/>
	<path fill="#042454" transform="scale(0.488281 0.488281)" d="M231.939 566.155C236.16 566.118 241.011 565.68 245.135 566.522C246.983 566.899 248.276 568.181 249.242 569.718L249.561 570.25C249.849 570.722 250.152 571.198 250.299 571.74C251.118 574.761 251.183 585.334 249.489 587.951C248.279 589.822 246.09 590.456 244.047 590.93L229.985 590.911C228.334 589.808 226.494 588.725 225.75 586.782C225.18 585.293 225.386 583.332 225.387 581.752C225.389 578.298 224.75 572.766 226.448 569.692C227.612 567.585 229.773 566.827 231.939 566.155Z"/>
	<path fill="#042454" transform="scale(0.488281 0.488281)" d="M273.852 527.115L284.093 526.849C285.658 526.832 287.916 526.613 289.385 527.107C291.126 527.692 292.459 528.671 293.376 530.276C295.138 533.363 295.241 543.279 294.206 546.7C293.482 549.095 291.608 550.236 289.537 551.372C285.25 551.668 279.441 552.02 275.25 551.356C273.346 551.055 271.175 549.432 270.143 547.837C268.175 544.795 268.781 535.02 269.665 531.516C270.283 529.065 271.733 528.277 273.852 527.115Z"/>
	<path fill="#042454" transform="scale(0.488281 0.488281)" d="M275.944 606.172C280.016 606.133 286.294 605.375 290.011 606.79C291.923 607.519 293.119 609.011 293.908 610.832C295.2 613.816 294.933 624.11 293.544 627.074C292.368 629.585 290.47 630.215 287.996 631.068C284.363 631.478 277.491 631.832 274.042 630.554C272.204 629.872 270.608 628.385 269.836 626.586C268.555 623.598 268.551 612.737 270.05 609.75C271.169 607.521 273.705 606.681 275.944 606.172Z"/>
	<path fill="#042454" transform="scale(0.488281 0.488281)" d="M319.81 686.195C323.863 686.139 332.796 684.947 335.75 687.948C339.489 691.747 338.008 700.783 337.855 705.838C336.436 708.671 334.765 710.3 331.813 711.482C327.993 711.766 321.171 712.597 317.583 711.169C316.123 710.588 314.311 708.589 313.835 707.099C312.887 704.131 312.727 692.385 314.214 689.772C315.477 687.552 317.441 686.765 319.81 686.195Z"/>
	<path fill="#042454" transform="scale(0.488281 0.488281)" d="M187.832 566.151C191.411 566.093 199.039 565.114 202.137 566.537C203.701 567.255 204.936 568.566 205.547 570.173C206.839 573.575 207.27 584.34 205.526 587.5C204.277 589.762 201.58 590.386 199.265 590.894C195.095 590.948 188.74 591.776 185.005 589.878C183.39 589.058 181.895 587.455 181.369 585.708C180.382 582.435 180.413 572.775 182.137 569.876C183.446 567.675 185.464 566.793 187.832 566.151Z"/>
	<path fill="#042454" transform="scale(0.488281 0.488281)" d="M319.014 645.561C323.004 645.444 327.737 645.012 331.657 645.572C333.718 645.866 335.726 647.457 336.809 649.18C338.707 652.196 338.615 661.948 337.71 665.446C336.982 668.258 335.092 669.54 332.669 670.854C328.456 671.055 322.063 671.804 317.981 670.76C316.498 670.381 315.088 669.025 314.382 667.711C312.799 664.76 312.735 653.34 313.77 650.055C314.524 647.663 316.93 646.563 319.014 645.561Z"/>
	<path fill="#042454" transform="scale(0.488281 0.488281)" d="M362.427 566.081C366.573 565.798 372.705 565.24 376.725 566.13C378.085 566.432 379.548 567.577 380.284 568.751C382.591 572.435 382.883 581.833 381.731 585.922C381.031 588.407 378.187 589.79 376.084 590.804C371.766 591.401 367.136 591.688 362.828 590.797C361.027 590.425 359.242 589.33 358.255 587.763C356.088 584.321 356.268 575.102 357.244 571.296C357.969 568.469 360.005 567.337 362.427 566.081Z"/>
	<path fill="#042454" transform="scale(0.488281 0.488281)" d="M274.795 566.156C279.065 566.081 285.713 565.191 289.667 566.533C291.376 567.114 292.762 568.631 293.47 570.259C294.972 573.714 295.167 583.804 293.593 587.237C292.613 589.374 290.548 590.141 288.494 590.926C284.471 591.2 277.548 591.829 273.792 590.61C272.148 590.076 270.883 588.747 270.086 587.252C268.469 584.22 268.543 573.612 269.91 570.285C270.818 568.073 272.725 567.065 274.795 566.156Z"/>
	<path fill="#042454" transform="scale(0.488281 0.488281)" d="M187.243 526.788C191.651 526.667 200.618 525.165 204.013 528.298C207.162 531.205 206.63 535.131 206.631 539.035C206.633 542.415 207.135 546.397 204.674 549.076C201.817 552.186 196.418 551.529 192.585 551.501C188.878 551.475 185.617 551.719 182.876 548.739C179.676 545.261 180.729 537.213 181.077 532.732C182.951 530.326 184.822 528.625 187.243 526.788Z"/>
	<path fill="#042454" transform="scale(0.488281 0.488281)" d="M276.957 645.707C280.766 645.618 287.348 644.686 290.75 646.547C292.506 647.508 293.438 649.067 293.953 650.957C294.834 654.196 294.923 665.105 293.17 667.744C291.703 669.953 289.387 670.4 286.96 670.962C283.463 671.126 279.199 671.465 275.8 670.678L275.25 670.538L273.625 670.084C271.947 669.407 270.368 667.987 269.75 666.263C268.568 662.965 268.505 653.051 270.25 649.859C271.718 647.173 274.145 646.326 276.957 645.707Z"/>
	<path fill="#042454" transform="scale(0.488281 0.488281)" d="M232.921 686.192C236.818 686.136 242.93 685.375 246.476 686.876C248.181 687.598 249.813 689.593 250.252 691.392C250.99 694.414 251.147 705.332 249.497 707.75C247.81 710.224 245.835 710.786 243.023 711.283C239.764 711.268 231.123 711.988 228.565 710.41C227.201 709.568 225.977 708.122 225.629 706.526C224.867 703.037 224.408 692.117 226.491 689.259C228.155 686.976 230.265 686.56 232.921 686.192Z"/>
	<path fill="#042454" transform="scale(0.488281 0.488281)" d="M187.509 606.112C191.707 606.024 198.688 605.175 202.524 606.75C204.253 607.46 205.53 609.431 206.12 611.139C207.164 614.165 207.175 624.693 205.588 627.461C204.363 629.596 202.345 630.222 200.097 630.792L189.556 630.945C188.371 630.926 186.69 631.049 185.595 630.542C183.68 629.657 182.181 628.352 181.528 626.298C180.45 622.9 180.312 612.661 182.055 609.581C183.259 607.454 185.283 606.73 187.509 606.112Z"/>
	<path fill="#042454" transform="scale(0.488281 0.488281)" d="M188.763 686.215C192.551 686.148 198.974 685.337 202.395 686.77C204.061 687.468 205.838 689.648 206.259 691.399C207.09 694.853 207.12 705.099 205.25 708.139C203.834 710.443 201.055 710.908 198.63 711.42C195.192 711.505 189.031 712.334 186.043 710.989C184.028 710.082 182.215 708.439 181.567 706.291C180.655 703.269 180.606 691.809 182.464 689.237C184.15 686.904 186.036 686.559 188.763 686.215Z"/>
	<path fill="#042454" transform="scale(0.488281 0.488281)" d="M362.554 645.6C366.624 645.603 373.192 644.755 377.01 646.026C378.637 646.567 380.247 647.846 381.008 649.392C382.625 652.679 382.563 662.458 381.27 665.894C380.328 668.395 378.447 669.419 376.094 670.368C371.866 671.09 365.396 671.716 361.312 670.319C359.188 669.593 357.664 667.394 356.942 665.361C355.815 662.183 356.047 652.011 357.599 648.99C358.682 646.879 360.406 646.261 362.554 645.6Z"/>
	<path fill="#042454" transform="scale(0.488281 0.488281)" d="M188.677 645.644C192.518 645.643 198.651 644.966 202.141 646.4C203.756 647.064 205.534 648.804 206.147 650.456C207.13 653.108 207.006 663.787 205.851 666.239L205.586 666.75C205.292 667.339 205.03 667.91 204.639 668.445C203.27 670.321 201.345 670.521 199.187 670.769C195.232 670.831 188.943 671.584 185.315 670.096C183.772 669.463 182.071 667.609 181.521 666.038C180.365 662.734 180.411 652.287 182.144 649.289C183.525 646.901 186.204 646.267 188.677 645.644Z"/>
	<path fill="#042454" transform="scale(0.488281 0.488281)" d="M361.896 606.085C366.277 605.764 372.476 605.311 376.73 606.252C378.601 606.666 380.359 607.772 381.362 609.426C383.124 612.335 383.078 621.684 382.165 624.997C381.388 627.813 379.243 629.226 376.82 630.546L376.145 630.636C372.322 631.175 366.726 631.529 362.919 630.777C361.067 630.411 359.078 629.02 358.071 627.449C355.821 623.936 355.892 614.955 357.055 611.016C357.848 608.331 359.529 607.326 361.896 606.085Z"/>
	<path fill="#042454" transform="scale(0.488281 0.488281)" d="M231.424 645.632C235.385 645.512 242.115 644.678 245.75 646.073C247.836 646.874 249.364 648.249 250.153 650.361C251.185 653.127 251.15 664.649 249.675 667.292C248.458 669.473 246.276 670.262 244.019 670.924C239.773 670.975 233.734 671.75 229.719 670.43C228.067 669.887 226.797 668.565 226.073 667.015C224.582 663.823 224.577 653.13 225.848 649.91C226.82 647.446 229.136 646.527 231.424 645.632Z"/>
	<path fill="#042454" transform="scale(0.488281 0.488281)" d="M274.807 686.132C279.424 686.076 284.623 685.588 289.15 686.514C290.821 686.855 292.23 688.028 293.077 689.494C294.943 692.722 295.107 703.308 293.814 706.823C292.918 709.262 290.799 710.373 288.56 711.353C284.722 711.698 277.93 712.282 274.326 711.178C272.276 710.549 270.494 709.095 269.577 707.157C268.295 704.449 268.462 693.666 269.504 690.83C270.365 688.49 272.65 687.081 274.807 686.132Z"/>
	<path fill="#042454" transform="scale(0.488281 0.488281)" d="M135.355 652.179L137.123 648.564C138.081 647.084 139.331 646.14 141.099 645.852C145.375 645.157 155.88 644.617 159.25 647.46C160.635 648.629 161.462 650.102 161.55 651.915C161.738 655.797 162.817 665.716 160.066 668.552C157.014 671.698 151.493 671.163 147.5 671.01L143.75 670.651C141.96 670.427 140.175 670.269 138.425 669.806C137.354 664.067 137.022 657.709 135.355 652.179Z"/>
	<path fill="#A28538" transform="scale(0.488281 0.488281)" d="M375.586 686.188L377.134 685.5C377.697 684.58 378.242 683.702 378.921 682.861C383.867 676.734 389.79 666.623 391.541 658.859L391.708 658.098C394.003 648.432 393.155 637.368 392.814 627.479L391.8 601.587L390.837 562.631L390.243 542.371L405.605 564.081C410.947 572.236 414.894 580.949 418.831 589.833L419.292 591.401C421.565 594.642 423.935 603.095 424.254 607.026L427.636 625.658L423.613 630.266C425.861 632.997 425.514 640.671 424.974 644.25C424.844 645.113 424.607 645.807 424.308 646.622C427.441 650.499 428.263 652.254 428.043 657.161L426.465 669.505C425.554 675.081 424.065 681.166 421.933 686.399L421.867 686.419C418.959 694.956 416.07 704.118 411.339 711.851L410.514 711.38L409.5 710.559L407.687 710.963C407.304 712.19 407.092 713.015 406.245 714C405.593 714.758 405.051 715.464 404.498 716.294C403.884 717.214 403.583 717.17 402.745 717.75L402.206 718.221C401.294 718.97 400.255 719.422 399.198 719.927C397.415 720.981 395.796 721.932 394.31 723.396L395.78 729.668C392.978 733.045 389.834 736.253 387.197 739.75C385.753 741.665 384.849 744.328 382.777 745.604L381.993 745.63L381.713 745.906C380.546 747.068 379.497 748.318 378.183 749.323L380.559 750.159C375.093 755.775 367.916 761.089 361.245 765.25L345.06 774.512C342.647 775.758 340.014 777.348 337.393 778.088C329.852 781.892 321.867 783.782 313.875 786.302C306.918 787.948 298.765 790.086 291.594 789.669C285.997 790.178 279.131 790.996 273.61 789.945C264.837 790.245 255.509 789.094 247.143 786.355L224.618 778.997L206.435 770.323L196.098 763.406C194.453 762.792 192.184 760.538 190.825 759.396C183.403 753.164 176.529 746.42 170.118 739.159C169.965 738.516 168.079 736.595 167.59 735.99L159.468 725.392C167.431 725.775 175.56 725.307 183.41 726.788C189.247 725.187 198.349 725.515 204.233 726.917C211.043 725.967 220.434 725.985 227.251 726.939C231.292 725.539 235.869 725.925 240.097 725.953C242.503 725.968 245.203 725.797 247.432 726.853C248.356 727.291 249.164 727.988 249.942 728.642C256.306 728.402 263.767 727.615 270.024 728.538C271.602 727.088 273.431 726.163 275.585 725.916C280.59 725.342 288.947 724.706 292.993 728.028C299.719 727.398 308.265 725.94 314.94 726.784L315.783 726.512C320.897 724.83 327.139 725.52 332.503 725.587L339.065 722.161C344.415 719.459 349.047 715.285 353.076 710.885C354.423 709.414 355.95 707.899 356.579 705.972L356.524 702.501C356.47 698.429 355.35 691.212 358.534 688.249C362.162 684.873 370.896 686.099 375.586 686.188Z"/>
	<path fill="#042454" transform="scale(0.488281 0.488281)" d="M196.098 763.406C198.92 763.175 202.606 763.148 204.867 765.151C205.724 765.91 206.461 766.827 206.584 768L206.435 770.323L196.098 763.406Z"/>
	<path fill="#9D7831" transform="scale(0.488281 0.488281)" d="M423.613 630.266C425.861 632.997 425.514 640.671 424.974 644.25C424.844 645.113 424.607 645.807 424.308 646.622C419.807 644.764 414.476 645.344 409.668 645.302L409.485 644.402L412.5 644.25L412.255 642L412.75 641.255C412.654 638.728 414.201 637.556 414.518 635.062L414.738 633.5L415.245 632.75C414.659 632.309 414.902 632.391 414.228 632.243L411.336 631.65C415.398 631.653 419.884 632.069 423.613 630.266Z"/>
	<path fill="#042454" transform="scale(0.488281 0.488281)" d="M419.292 591.401C414.714 592.056 410.176 591.827 405.597 591.347C402.717 588.785 400.884 586.151 400.568 582.178C400.081 576.053 401.514 568.753 405.605 564.081C410.947 572.236 414.894 580.949 418.831 589.833L419.292 591.401Z"/>
	<path fill="#042454" transform="scale(0.488281 0.488281)" d="M313.875 786.302C312.934 781.95 312.267 776.872 312.614 772.416C312.831 769.618 313.507 766.141 315.873 764.316C318.553 762.249 329.144 762.649 332.593 763.084C334.41 763.314 335.781 764.549 336.723 766.056C338.758 769.312 338.132 774.528 337.393 778.088C329.852 781.892 321.867 783.782 313.875 786.302Z"/>
	<path fill="#042454" transform="scale(0.488281 0.488281)" d="M224.618 778.997C225.143 774.532 224.384 768.128 228.221 764.984C231.176 762.563 240.849 763.058 244.75 763.518C246.702 763.747 248.126 764.965 249.25 766.511C251.707 769.891 251.12 777.901 250.311 781.737C249.873 783.816 248.859 785.129 247.143 786.355L224.618 778.997Z"/>
	<path fill="#042454" transform="scale(0.488281 0.488281)" d="M314.94 726.784L315.783 726.512C320.897 724.83 327.139 725.52 332.503 725.587C334.819 726.714 336.506 727.637 337.502 730.124C338.946 733.731 338.816 741.953 337.199 745.549C336.576 746.934 335.092 748.642 333.698 749.268C330.795 750.574 320.085 750.669 317.282 749.226C315.222 748.165 313.996 746.325 313.356 744.137C312.11 739.881 312.188 731.461 314.432 727.616L314.94 726.784Z"/>
	<path fill="#042454" transform="scale(0.488281 0.488281)" d="M183.41 726.788C189.247 725.187 198.349 725.515 204.233 726.917C206.348 729.767 206.555 731.724 206.612 735.193C206.612 738.018 207.082 742.139 205.974 744.75C205.011 747.018 203.315 748.658 200.96 749.418C196.918 750.723 188.176 750.947 184.538 748.738C182.529 747.517 181.37 745.607 180.949 743.311C179.959 737.916 180.184 731.307 183.41 726.788Z"/>
	<path fill="#042454" transform="scale(0.488281 0.488281)" d="M270.024 728.538C271.602 727.088 273.431 726.163 275.585 725.916C280.59 725.342 288.947 724.706 292.993 728.028C294.629 731.898 295.835 741.141 294.137 745.081C293.331 746.953 291.28 748.681 289.366 749.324C286.174 750.397 276.4 750.884 273.356 749.468C271.192 748.461 269.944 746.248 269.267 744.052C267.914 739.663 268.351 732.762 270.024 728.538Z"/>
	<path fill="#042454" transform="scale(0.488281 0.488281)" d="M227.251 726.939C231.292 725.539 235.869 725.925 240.097 725.953C242.503 725.968 245.203 725.797 247.432 726.853C248.356 727.291 249.164 727.988 249.942 728.642C251.098 732.608 251.47 742.649 249.57 746.371C248.621 748.231 246.979 749.563 244.998 750.176C241.298 751.323 232.407 751.126 228.969 749.069C227.134 747.971 225.922 746.07 225.495 744L224.984 738.847C225.043 734.507 224.842 730.748 227.251 726.939Z"/>
	<path fill="#042454" transform="scale(0.488281 0.488281)" d="M356.579 705.972L356.524 702.501C356.47 698.429 355.35 691.212 358.534 688.249C362.162 684.873 370.896 686.099 375.586 686.188C377.146 686.423 378.783 686.5 379.898 687.75C382.81 691.014 382.34 701.249 381.616 705.207C381.213 707.41 380.042 708.66 378.216 709.874C374.969 712.031 365.818 712.148 361.989 711.165C359.239 710.458 357.991 708.21 356.579 705.972Z"/>
	<path fill="#042454" transform="scale(0.488281 0.488281)" d="M378.183 749.323L376.345 749.906C372.56 750.96 362.951 751.421 359.664 749.273C357.715 747.998 356.666 745.936 356.162 743.732C355.411 740.451 355.394 731.485 357.453 728.736C358.81 726.924 361.422 725.943 363.603 725.707C367.864 725.246 376.461 724.467 379.75 727.554C383.165 730.76 382.009 741.076 381.993 745.63L381.713 745.906C380.546 747.068 379.497 748.318 378.183 749.323Z"/>
	<path fill="#042454" transform="scale(0.488281 0.488281)" d="M411.336 631.65C409.874 631.608 408.361 631.59 406.932 631.25C404.877 630.76 403.244 629.349 402.25 627.503C399.973 623.277 400.001 614.961 401.604 610.5C402.312 608.53 404.102 606.692 406.058 605.924C407.51 605.355 409.359 605.493 410.912 605.477C415.522 605.431 419.879 605.413 424.254 607.026L427.636 625.658L423.613 630.266C419.884 632.069 415.398 631.653 411.336 631.65Z"/>
	<path fill="#042454" transform="scale(0.488281 0.488281)" d="M273.61 789.945C271.998 788.718 270.655 787.609 269.734 785.767C267.821 781.941 267.646 772.133 269.202 768.152C269.872 766.439 271.552 764.634 273.306 764.013C276.879 762.746 287.535 762.854 290.776 764.697C292.35 765.592 293.901 767.479 294.291 769.281C295.068 772.869 295.162 782.224 294.066 785.552C293.581 787.023 292.49 788.421 291.594 789.669C285.997 790.178 279.131 790.996 273.61 789.945Z"/>
	<path fill="#042454" transform="scale(0.488281 0.488281)" d="M409.668 645.302C414.476 645.344 419.807 644.764 424.308 646.622C427.441 650.499 428.263 652.254 428.043 657.161L426.465 669.505C421.059 671.486 411.483 672.191 405.908 670.704C403.475 670.055 402.204 668.534 401.001 666.433C400.686 661.774 399.472 652.026 402.496 648.21C404.378 645.833 406.825 645.545 409.668 645.302Z"/>
	<path fill="#9D7831" transform="scale(0.488281 0.488281)" d="M401.001 666.433C402.204 668.534 403.475 670.055 405.908 670.704C411.483 672.191 421.059 671.486 426.465 669.505C425.554 675.081 424.065 681.166 421.933 686.399L421.867 686.419C418.959 694.956 416.07 704.118 411.339 711.851L410.514 711.38L409.5 710.559L407.687 710.963C407.304 712.19 407.092 713.015 406.245 714C405.593 714.758 405.051 715.464 404.498 716.294C403.884 717.214 403.583 717.17 402.745 717.75L402.206 718.221C401.294 718.97 400.255 719.422 399.198 719.927C401.045 718.016 403.745 715.999 403.745 713.25L402.497 712.115C399.543 711.885 396.69 711.846 394.481 709.75C391.463 700.126 393.584 689.567 396.693 680.216C397.589 677.522 398.721 674.739 399.421 671.997C399.933 669.988 400.006 668.329 401.001 666.433Z"/>
	<path fill="#042454" transform="scale(0.488281 0.488281)" d="M407.687 710.963L403.75 710.761C402.3 709.82 401.313 709.092 400.75 707.379C399.466 703.469 398.743 693.922 400.673 690.264C401.86 688.016 403.751 686.249 406.313 685.733C409.547 685.082 419.224 684.843 421.867 686.419C418.959 694.956 416.07 704.118 411.339 711.851L410.514 711.38L409.5 710.559L407.687 710.963Z"/>
	<path fill="#031140" transform="scale(0.488281 0.488281)" d="M477.178 852.843L478.044 410.585L496.918 410.585L531.356 410.651L639.654 410.606L805.865 410.618L895.805 410.656C898.359 410.706 901.37 410.416 903.538 411.918L903.417 875.443L609.561 875.192L524.703 875.205L497.182 875.25C491.637 875.257 486.017 875.482 480.492 875.026C479.601 874.953 478.766 874.539 478.109 873.908C476.066 871.946 477.517 856.54 477.178 852.843Z"/>
	<path fill="#468B8B" transform="scale(0.488281 0.488281)" d="M481.964 848.015C481.047 839.912 481.666 831.187 481.706 823.027L481.797 777.983L481.886 616.379L618.416 616.464L604.359 637.58C597.122 637.547 589.404 636.986 582.239 637.912C559.319 638.691 537.611 649.488 522.114 666.219C503.219 686.619 494.1 713.64 495.309 741.297C496.268 763.23 505.93 787.174 520.245 803.769L481.964 848.015Z"/>
	<path fill="#1C6569" transform="scale(0.488281 0.488281)" d="M618.416 616.464L898.665 616.389L898.637 870.49L482.066 870.537L481.964 848.015L520.245 803.769C531.556 816.417 548.036 826.447 564.906 829.335C572.805 830.687 580.619 830.515 588.592 830.517L617.144 830.511L711.955 830.656L780.539 830.797L802.194 830.857C807.616 830.857 813.389 831 818.752 830.159C830.468 828.323 842.432 822.508 852.013 815.687C869.963 802.908 882.501 783.534 886.662 762C888.014 755.003 887.529 747.567 887.534 740.456C887.54 731.104 887.893 721.72 886.553 712.44C883.852 693.737 874.013 676.559 860.692 663.413C858.069 660.824 855.436 658.104 852.452 655.929C841.029 647.605 828.248 641.558 814.249 639.073C804.63 637.366 794.466 638.03 784.72 638.034L742.425 638.055L582.239 637.912C589.404 636.986 597.122 637.547 604.359 637.58L618.416 616.464Z"/>
	<path fill="#031140" transform="scale(0.488281 0.488281)" d="M582.239 637.912L742.425 638.055L784.72 638.034C794.466 638.03 804.63 637.366 814.249 639.073C828.248 641.558 841.029 647.605 852.452 655.929C855.436 658.104 858.069 660.824 860.692 663.413C874.013 676.559 883.852 693.737 886.553 712.44C887.893 721.72 887.54 731.104 887.534 740.456C887.529 747.567 888.014 755.003 886.662 762C882.501 783.534 869.963 802.908 852.013 815.687C842.432 822.508 830.468 828.323 818.752 830.159C813.389 831 807.616 830.857 802.194 830.857L780.539 830.797L711.955 830.656L617.144 830.511L588.592 830.517C580.619 830.515 572.805 830.687 564.906 829.335C548.036 826.447 531.556 816.417 520.245 803.769C505.93 787.174 496.268 763.23 495.309 741.297C494.1 713.64 503.219 686.619 522.114 666.219C537.611 649.488 559.319 638.691 582.239 637.912Z"/>
	<path fill="#FBE071" transform="scale(0.488281 0.488281)" d="M507.009 697.447C511.452 685.736 519.319 675.21 528.177 666.477C540.889 653.945 558.468 644.947 576.266 642.674C584.677 641.6 593.361 642.007 601.827 642.073L595.658 652.905C585.496 653.78 575.861 655.129 566.186 658.498C552.173 663.377 539.2 672.635 528.25 682.497C524.589 685.794 512.855 697.445 508.5 697.797C507.991 697.838 507.506 697.564 507.009 697.447Z"/>
	<path fill="#FBCF4C" transform="scale(0.488281 0.488281)" d="M601.827 642.073L707.396 641.994C704.77 646.117 701.185 649.739 698.065 653.5L683.396 671.364L649.647 712.145C642.036 694.925 629.57 680.6 611.655 673.712C595.238 667.4 576.991 668.479 561.043 675.635C544.477 683.067 532.597 696.691 526.26 713.563C524.367 718.601 523.101 723.911 522.465 729.25C520.447 746.198 524.832 763.918 535.317 777.51L539.629 782.799C536.568 786.867 533.13 790.517 529.806 794.362C528.01 796.44 526.056 799.358 523.815 800.875C517.579 794.085 512.626 786.354 508.853 777.96C496.951 751.475 496.764 724.396 507.009 697.447C507.506 697.564 507.991 697.838 508.5 697.797C512.855 697.445 524.589 685.794 528.25 682.497C539.2 672.635 552.173 663.377 566.186 658.498C575.861 655.129 585.496 653.78 595.658 652.905L601.827 642.073Z"/>
	<path fill="#031140" transform="scale(0.488281 0.488281)" d="M539.629 782.799L535.317 777.51C524.832 763.918 520.447 746.198 522.465 729.25C523.101 723.911 524.367 718.601 526.26 713.563C532.597 696.691 544.477 683.067 561.043 675.635C576.991 668.479 595.238 667.4 611.655 673.712C629.57 680.6 642.036 694.925 649.647 712.145C656.081 728.959 656.184 747.888 648.75 764.415C641.301 780.976 628.084 794.074 611 800.492C595.017 806.496 577.356 806.013 561.791 798.934C553.156 795.007 546.162 789.609 539.629 782.799Z"/>
	<path fill="#119C73" transform="scale(0.488281 0.488281)" d="M629.778 731.059L648.677 722.903C651.618 742.71 648.888 759.857 636.735 776.158C626.772 789.523 612.408 797.573 596 799.967C580.098 802.288 564.482 797.524 551.779 787.925C538.902 778.196 529.868 764.112 527.241 748.157C534.168 747.407 540.647 746.39 547.368 744.544C550.201 755.677 556.608 765.989 566.67 771.949C571.617 774.879 576.569 776.717 582.25 777.595L583.02 777.725C593.835 779.493 605.048 776.559 613.917 770.208C618.39 767.004 622.329 762.571 624.84 757.666L625.026 757.539C630.443 750.222 630.175 739.645 629.778 731.059Z"/>
	<path fill="#31D7D5" transform="scale(0.488281 0.488281)" d="M527.241 748.157C526.322 743.022 526.133 737.17 526.778 731.982C527.978 722.327 530.305 713.83 535.051 705.25C542.986 690.905 556.65 680.738 572.279 676.251C587.461 671.893 603.766 674.065 617.512 681.731C633.487 690.64 643.688 705.614 648.677 722.903L629.778 731.059C630.175 739.645 630.443 750.222 625.026 757.539L624.84 757.666C622.329 762.571 618.39 767.004 613.917 770.208C605.048 776.559 593.835 779.493 583.02 777.725L582.25 777.595C576.569 776.717 571.617 774.879 566.67 771.949C556.608 765.989 550.201 755.677 547.368 744.544C540.647 746.39 534.168 747.407 527.241 748.157Z"/>
	<path fill="#031140" transform="scale(0.488281 0.488281)" d="M547.368 744.544C545.16 735.082 546.419 724.877 550.994 716.302C556.544 705.898 566.516 698.649 577.651 695.25C588.031 692.081 598.416 693.15 607.962 698.25C619.358 704.338 625.229 713.623 628.867 725.723L627.641 727.153C624.632 715.56 619.225 706.44 608.714 700.14C599.592 694.673 588.137 693.354 577.957 696.148C567.864 698.918 557.793 706.547 552.777 715.781C547.748 725.036 547.649 733.752 549.212 743.802C551.546 750.75 554.423 756.052 558.82 761.922L558.826 762.096C560.389 765.555 564.155 768.531 567.327 770.483C574.751 775.052 587.363 778.387 595.97 776.371C603.229 774.672 613.399 769.711 618.569 764.296C620.318 762.464 621.967 759.206 624.153 758.014L624.84 757.666C622.329 762.571 618.39 767.004 613.917 770.208C605.048 776.559 593.835 779.493 583.02 777.725L582.25 777.595C576.569 776.717 571.617 774.879 566.67 771.949C556.608 765.989 550.201 755.677 547.368 744.544Z"/>
	<path fill="#1C6569" transform="scale(0.488281 0.488281)" d="M549.212 743.802C547.649 733.752 547.748 725.036 552.777 715.781C557.793 706.547 567.864 698.918 577.957 696.148C588.137 693.354 599.592 694.673 608.714 700.14C619.225 706.44 624.632 715.56 627.641 727.153C627.673 728.83 627.999 730.519 628.244 732.179L617.13 734.276C616.354 729.41 615.298 723.544 612.39 719.495L611.92 718.864C610.602 716.508 608.049 713.954 605.888 712.345C599.993 707.958 592.171 705.268 584.787 706.318L584 706.443C581.407 706.836 578.983 707.518 576.668 708.773C570.536 711.365 565.008 717.382 562.504 723.5C560.229 729.057 559.704 734.391 559.904 740.315L549.212 743.802Z"/>
	<path fill="#042454" transform="scale(0.488281 0.488281)" d="M576.668 708.773C578.983 707.518 581.407 706.836 584 706.443L584.787 706.318C592.171 705.268 599.993 707.958 605.888 712.345C608.049 713.954 610.602 716.508 611.92 718.864L612.39 719.495C615.298 723.544 616.354 729.41 617.13 734.276L628.244 732.179C627.999 730.519 627.673 728.83 627.641 727.153L628.867 725.723L629.778 731.059C630.175 739.645 630.443 750.222 625.026 757.539L624.84 757.666L624.153 758.014C621.967 759.206 620.318 762.464 618.569 764.296C613.399 769.711 603.229 774.672 595.97 776.371C587.363 778.387 574.751 775.052 567.327 770.483C564.155 768.531 560.389 765.555 558.826 762.096L558.82 761.922C554.423 756.052 551.546 750.75 549.212 743.802L559.904 740.315C559.704 734.391 560.229 729.057 562.504 723.5C565.008 717.382 570.536 711.365 576.668 708.773Z"/>
	<path fill="#014A5A" transform="scale(0.488281 0.488281)" d="M559.904 740.315C560.618 744.156 561.651 747.831 562.612 751.61C562.878 752.655 563.514 754.735 563.269 755.736C563.064 756.579 561.619 758.377 561.089 759.164C560.42 760.158 559.635 761.048 558.82 761.922C554.423 756.052 551.546 750.75 549.212 743.802L559.904 740.315Z"/>
	<path fill="#E0E2E0" transform="scale(0.488281 0.488281)" d="M614.184 730.302C615.287 738.262 614.43 745.59 609.443 752.177C604.906 758.171 598.696 761.45 591.256 762.308C584.18 763.124 576.695 760.752 571.287 756.129C565.769 751.412 563.55 745.655 562.33 738.63C566.112 739.42 568.654 742.284 572.311 743.343C583.075 746.459 595.293 744.779 605.113 739.516C607.783 738.085 610.027 736 612.674 734.544L613.553 734.07C614.381 732.919 614.194 731.654 614.184 730.302Z"/>
	<path fill="#FDFEFC" transform="scale(0.488281 0.488281)" d="M575.508 711.858C583.08 708.376 589.039 707.4 597.06 710.339C603.952 712.865 607.943 717.146 611.746 723.25L614.184 730.302C614.194 731.654 614.381 732.919 613.553 734.07L612.674 734.544C610.027 736 607.783 738.085 605.113 739.516C595.293 744.779 583.075 746.459 572.311 743.343C568.654 742.284 566.112 739.42 562.33 738.63C562.018 735.728 562.08 732.839 562.63 729.966C564.165 721.962 569.01 716.38 575.508 711.858Z"/>
	<path fill="#F0A939" transform="scale(0.488281 0.488281)" d="M707.396 641.994L765.491 641.97C779.185 641.969 793.82 640.959 807.401 642.497C825.368 644.531 844.034 653.277 856.831 666.019C868.774 677.911 878.081 693.331 881.272 710.011C882.947 718.769 883.021 727.465 883.001 736.344C882.983 743.946 883.22 751.83 882.168 759.368C879.943 775.318 871.194 791.231 859.844 802.515C848.926 813.368 834.707 821.885 819.553 825.134C809.571 827.274 798.671 826.451 788.493 826.453L746.191 826.475L579.75 826.468C559.201 826.317 539.868 817.284 525.527 802.697L523.815 800.875C526.056 799.358 528.01 796.44 529.806 794.362C533.13 790.517 536.568 786.867 539.629 782.799C546.162 789.609 553.156 795.007 561.791 798.934C577.356 806.013 595.017 806.496 611 800.492C628.084 794.074 641.301 780.976 648.75 764.415C656.184 747.888 656.081 728.959 649.647 712.145L683.396 671.364L698.065 653.5C701.185 649.739 704.77 646.117 707.396 641.994Z"/>
	<path fill="#031140" transform="scale(0.488281 0.488281)" d="M793.51 670.206C809.638 669.473 824.655 673.638 837.562 683.504C851.629 694.256 861.274 710.622 863.528 728.185C865.65 744.72 862.444 762.109 852.047 775.521C839.583 791.599 823.643 799.84 803.665 802.421C786.764 802.763 769.523 798.8 756.103 788.034C742.541 777.154 734.168 761.416 732.37 744.17C730.562 726.838 735.747 707.504 746.986 694.016C758.832 679.799 775.22 671.84 793.51 670.206Z"/>
	<path fill="#31D7D5" transform="scale(0.488281 0.488281)" d="M736.735 728.817C738.069 721.86 739.98 715.419 743 709C749.913 694.309 763.143 682.92 778.39 677.562C793.384 672.294 809.347 673.374 823.609 680.233C839.205 687.735 850.719 701.331 856.36 717.598C854.762 719.037 852.651 719.71 850.694 720.539L840.362 724.734C835.931 712.771 828.158 702.553 816.25 697.163C807.728 693.306 798.086 692.771 789 694.845L788.147 695.035C776.881 697.621 766.897 705.367 760.966 715.231C758.602 719.162 756.928 723.553 756.106 728.069C753.947 728.202 751.762 728.286 749.64 728.731C746.608 729.368 739.719 732.545 737.086 731.913C737.021 730.852 736.965 729.859 736.735 728.817Z"/>
	<path fill="#11B5A9" transform="scale(0.488281 0.488281)" d="M856.36 717.598C861.365 733.78 860.682 750.459 852.746 765.571C845.483 779.401 832.017 790.554 817.063 795.165C807.667 798.063 796.15 798.85 786.5 796.59C768.753 792.434 755.438 784.511 745.427 768.879C739.228 759.2 736.47 748.107 736.472 736.683C736.473 734.13 736.307 731.33 736.735 728.817C736.965 729.859 737.021 730.852 737.086 731.913C739.719 732.545 746.608 729.368 749.64 728.731C751.762 728.286 753.947 728.202 756.106 728.069C755.203 732.651 755.131 737.715 756.239 742.265C759.076 753.914 765.025 765.228 775.194 772.097C784.651 778.485 796.445 781.477 807.745 779.19C818.923 776.928 828.481 769.941 834.723 760.479C841.915 749.578 842.873 737.308 840.362 724.734L850.694 720.539C852.651 719.71 854.762 719.037 856.36 717.598Z"/>
	<path fill="#031140" transform="scale(0.488281 0.488281)" d="M756.106 728.069C756.928 723.553 758.602 719.162 760.966 715.231C766.897 705.367 776.881 697.621 788.147 695.035L789 694.845C798.086 692.771 807.728 693.306 816.25 697.163C828.158 702.553 835.931 712.771 840.362 724.734C842.873 737.308 841.915 749.578 834.723 760.479C828.481 769.941 818.923 776.928 807.745 779.19C796.445 781.477 784.651 778.485 775.194 772.097C765.025 765.228 759.076 753.914 756.239 742.265C755.131 737.715 755.203 732.651 756.106 728.069Z"/>
	<path fill="#014A5A" transform="scale(0.488281 0.488281)" d="M766.154 759.81C764.833 758.341 763.604 756.466 762.623 754.748C758.18 746.969 755.28 735.931 757.663 727.074C759.423 728.711 764.386 729.627 766.749 730.486C767.244 730.665 768.272 730.898 768.64 731.269C768.106 736.408 767.838 741.925 769.348 746.937C768.561 749.558 767.855 750.267 765.346 751.601L762.908 752.822C763.896 754.919 764.795 756.881 766.227 758.726L766.154 759.81Z"/>
	<path fill="#042454" transform="scale(0.488281 0.488281)" d="M838.283 731.17C840.53 738.151 838.957 746.401 835.712 752.811C830.578 762.954 822.236 770.236 811.338 773.64C798.588 777.622 787.283 774.263 775.93 768.114L773.431 766.59C771.05 765.063 766.862 762.594 766.154 759.81L766.227 758.726C764.795 756.881 763.896 754.919 762.908 752.822L765.346 751.601C767.855 750.267 768.561 749.558 769.348 746.937C770.338 747.734 771.166 749.394 771.974 750.453C774.786 754.138 778.114 758.392 782.133 760.8C789.339 765.12 797.595 768.125 806.037 765.863L807 765.599C809.836 764.835 812.721 763.896 815.266 762.394C821.268 758.851 826.408 750.001 828.03 743.375L828.17 742.75C829.108 738.727 828.453 734.65 827.736 730.651L837.5 732.224L838.283 731.17Z"/>
	<path fill="#468B8B" transform="scale(0.488281 0.488281)" d="M757.663 727.074C760.136 715.673 767.049 707.031 776.805 700.804C785.753 695.092 798.071 693.481 808.338 695.904C818.886 698.393 826.786 707.089 832.334 715.93C835.69 720.545 836.889 725.769 838.283 731.17L837.5 732.224L827.736 730.651L821.896 718.894C817.329 713.661 812.755 710.425 806 708.504L805.118 708.245C797.894 706.244 789.967 707.899 783.555 711.546C775.863 715.921 771.241 722.985 768.64 731.269C768.272 730.898 767.244 730.665 766.749 730.486C764.386 729.627 759.423 728.711 757.663 727.074Z"/>
	<path fill="#014A5A" transform="scale(0.488281 0.488281)" d="M821.896 718.894C822.71 717.244 822.37 714.51 822.397 712.647C825.452 712.755 828.716 715.267 831.78 715.858L832.334 715.93C835.69 720.545 836.889 725.769 838.283 731.17L837.5 732.224L827.736 730.651L821.896 718.894Z"/>
	<path fill="#031140" transform="scale(0.488281 0.488281)" d="M768.64 731.269C771.241 722.985 775.863 715.921 783.555 711.546C789.967 707.899 797.894 706.244 805.118 708.245L806 708.504C812.755 710.425 817.329 713.661 821.896 718.894L827.736 730.651C828.453 734.65 829.108 738.727 828.17 742.75L828.03 743.375C826.408 750.001 821.268 758.851 815.266 762.394C812.721 763.896 809.836 764.835 807 765.599L806.037 765.863C797.595 768.125 789.339 765.12 782.133 760.8C778.114 758.392 774.786 754.138 771.974 750.453C771.166 749.394 770.338 747.734 769.348 746.937C767.838 741.925 768.106 736.408 768.64 731.269Z"/>
	<path fill="#E4B88E" transform="scale(0.488281 0.488281)" d="M816.745 719.86C821.422 724.883 824.168 730.709 823.965 737.74C823.743 745.422 820.787 752.015 815.069 757.124C810.23 761.447 802.995 763.088 796.638 762.587C789.963 762.06 783.225 758.648 778.941 753.488C776.543 750.6 774.433 746.581 773.708 742.894C775.332 744.194 776.727 745.824 778.404 747.017C781.876 749.486 786.7 751.007 790.955 751.134C797.207 751.321 802.966 749.065 807.489 744.741C814.727 737.819 816.555 729.528 816.745 719.86Z"/>
	<path fill="#FDFEFC" transform="scale(0.488281 0.488281)" d="M773.708 742.894C773.005 740.305 772.529 737.837 772.822 735.142C773.572 728.242 776.417 721.925 781.974 717.585C787.788 713.046 794.744 711.072 802.11 712.027C807.613 712.741 813.319 715.407 816.745 719.86C816.555 729.528 814.727 737.819 807.489 744.741C802.966 749.065 797.207 751.321 790.955 751.134C786.7 751.007 781.876 749.486 778.404 747.017C776.727 745.824 775.332 744.194 773.708 742.894Z"/>
	<defs>
		<linearGradient id="gradient_3" gradientUnits="userSpaceOnUse" x1="722.43994" y1="425.64175" x2="818.93628" y2="645.05219">
			<stop offset="0" stop-color="#143156"/>
			<stop offset="1" stop-color="#024559"/>
		</linearGradient>
	</defs>
	<path fill="url(#gradient_3)" transform="scale(0.488281 0.488281)" d="M744.963 414.938L899.455 414.446L898.931 611.637L664.376 611.907L592.964 612.054L571.654 612.059C567.992 612.053 564.046 612.328 560.423 611.901L481.998 611.944L482.318 414.967L744.963 414.938Z"/>
	<path fill="#031140" transform="scale(0.488281 0.488281)" d="M682.047 514.542L815.743 514.858L856.473 514.843C862.109 514.846 868.249 514.251 873.816 514.864L873.911 541.98L664.126 542.251L664.103 542.325C654.612 542.845 644.869 542.443 635.356 542.449L579.881 542.491L533.351 542.812C525.999 542.849 518.434 543.219 511.1 542.775C508.736 542.631 507.126 542.34 505.361 540.697C503.405 538.877 502.876 536.589 502.8 534.015C502.664 529.389 501.58 520.559 505.177 517.04C506.594 515.653 508.534 514.803 510.5 514.642C516.631 514.139 523.144 514.517 529.305 514.514L566.22 514.496L682.047 514.542Z"/>
	<path fill="#525F7F" transform="scale(0.488281 0.488281)" d="M868.78 519.25L869.703 519.625C870.247 525.169 870.453 532.781 869.56 538.25L868.623 537.75C868.572 531.764 867.994 525.152 868.78 519.25Z"/>
	<path fill="#525F7F" transform="scale(0.488281 0.488281)" d="M510.037 538.863L508.845 538.862C508.111 538.377 507.298 537.781 506.893 536.975C505.645 534.489 505.82 522.945 507.04 520.5C507.644 519.292 508.766 519.064 509.945 518.668L510.037 538.863Z"/>
	<path fill="#FE8936" transform="scale(0.488281 0.488281)" d="M509.945 518.668C514.475 519.458 520.074 518.891 524.711 518.891L555.463 518.875L679.632 518.565L678.758 520.245C673.961 525.602 670.656 532.922 666.356 538.817L559.791 539.026L526.094 539.003C520.908 538.996 515.167 539.475 510.037 538.863L509.945 518.668Z"/>
	<path fill="#E4211F" transform="scale(0.488281 0.488281)" d="M679.632 518.565L771.62 519.083L841.153 518.862L857.697 518.791C859.427 518.784 862.515 518.38 864.017 519.044L864.071 538.529L666.356 538.817C670.656 532.922 673.961 525.602 678.758 520.245L679.632 518.565Z"/>
	<path fill="#031140" transform="scale(0.488281 0.488281)" d="M636.91 587.453L552.581 587.259L525.731 587.339C520.89 587.361 515.845 587.665 511.023 587.264C508.84 587.082 507.752 586.919 506.017 585.487C503.966 583.794 502.933 581.911 502.76 579.25C502.421 574.049 501.696 564.777 505.506 560.75C506.63 559.562 507.975 558.969 509.604 558.826C514.795 558.37 520.328 558.777 525.545 558.811L554.874 558.909L654.664 559L874.035 559.009L874.045 587.026L636.91 587.453Z"/>
	<path fill="#525F7F" transform="scale(0.488281 0.488281)" d="M509.989 563.043C509.825 569.37 509.074 576.735 509.982 582.953L508.806 582.723C508.076 582.108 507.718 581.692 507.368 580.777C506.517 578.546 506.546 566.232 507.697 564.195C508.092 563.497 509.261 563.306 509.989 563.043Z"/>
	<path fill="#FE8936" transform="scale(0.488281 0.488281)" d="M509.989 563.043L652.501 562.962C647.676 568.861 642.91 576.186 639.736 583.09L509.982 582.953C509.074 576.735 509.825 569.37 509.989 563.043Z"/>
	<path fill="#E4211F" transform="scale(0.488281 0.488281)" d="M652.501 562.962L864.452 562.978L864.312 582.989L639.736 583.09C642.91 576.186 647.676 568.861 652.501 562.962Z"/>
	<path fill="#031140" transform="scale(0.488281 0.488281)" d="M691.479 499.914L551.683 500.02L517.984 500.016C515.333 500.011 510.55 500.606 508.072 499.954C507.523 499.809 506.703 498.972 506.293 498.586C503.592 496.042 502.864 493.804 502.734 490.166C502.569 485.572 501.574 477.138 505.15 473.75C505.675 473.254 507.095 471.876 507.747 471.668C509.856 470.994 513.874 471.515 516.217 471.514L540.916 471.507L656.268 471.596L874.008 471.853L873.979 499.646L691.479 499.914Z"/>
	<path fill="#525F7F" transform="scale(0.488281 0.488281)" d="M509.412 495.048C508.336 494.675 507.636 494.034 506.75 493.341C505.544 490.753 505.691 481.06 506.502 478.25C506.996 476.541 508.088 476.235 509.525 475.528L509.412 495.048Z"/>
	<path fill="#E4211F" transform="scale(0.488281 0.488281)" d="M706.762 475.827L864.541 475.97L864.475 496.046L693.841 496.011C697.365 489.024 702.018 482.059 706.762 475.827Z"/>
	<path fill="#FE8936" transform="scale(0.488281 0.488281)" d="M509.525 475.528L706.762 475.827C702.018 482.059 697.365 489.024 693.841 496.011L546.777 496.048L518.373 496.015C516.395 496.013 512.284 496.558 510.5 496.005C510.038 495.862 509.775 495.367 509.412 495.048L509.525 475.528Z"/>
	<path fill="#525F7F" transform="scale(0.488281 0.488281)" d="M560.423 611.901L481.998 611.944L482.318 414.967L744.963 414.938L735 430.496L730.281 430.912L873.989 430.609L874.002 455.979L717.661 456.281L717.629 456.35C717.341 458.532 715.622 460.541 714.443 462.357L708.737 471.479L656.268 471.596L540.916 471.507L516.217 471.514C513.874 471.515 509.856 470.994 507.747 471.668C507.095 471.876 505.675 473.254 505.15 473.75C501.574 477.138 502.569 485.572 502.734 490.166C502.864 493.804 503.592 496.042 506.293 498.586C506.703 498.972 507.523 499.809 508.072 499.954C510.55 500.606 515.333 500.011 517.984 500.016L551.683 500.02L691.479 499.914C688.401 504.629 684.588 509.558 682.047 514.542L566.22 514.496L529.305 514.514C523.144 514.517 516.631 514.139 510.5 514.642C508.534 514.803 506.594 515.653 505.177 517.04C501.58 520.559 502.664 529.389 502.8 534.015C502.876 536.589 503.405 538.877 505.361 540.697C507.126 542.34 508.736 542.631 511.1 542.775C518.434 543.219 525.999 542.849 533.351 542.812L579.881 542.491L635.356 542.449C644.869 542.443 654.612 542.845 664.103 542.325C663.752 544.313 662.521 545.707 661.432 547.349C659.202 550.714 655.936 555.16 654.664 559L554.874 558.909L525.545 558.811C520.328 558.777 514.795 558.37 509.604 558.826C507.975 558.969 506.63 559.562 505.506 560.75C501.696 564.777 502.421 574.049 502.76 579.25C502.933 581.911 503.966 583.794 506.017 585.487C507.752 586.919 508.84 587.082 511.023 587.264C515.845 587.665 520.89 587.361 525.731 587.339L552.581 587.259L636.91 587.453L621.995 611.566L579.847 611.693C573.554 611.713 566.59 611.061 560.423 611.901Z"/>
	<path fill="#031140" transform="scale(0.488281 0.488281)" d="M730.281 430.912L873.989 430.609L874.002 455.979L717.661 456.281L717.629 456.35C706.022 457.087 694.025 456.4 682.361 456.38L611.157 456.275L542.686 456.388C531.675 456.423 520.209 457.095 509.25 456.464C507.872 456.384 506.565 455.886 505.5 454.999C503.681 453.485 503.068 451.454 502.938 449.163C502.685 444.725 501.886 436.432 505.167 432.973C506.411 431.66 507.924 430.8 509.75 430.673C516.133 430.229 523.142 430.925 529.604 430.937L577.784 430.948L730.281 430.912Z"/>
	<path fill="#4E3852" transform="scale(0.488281 0.488281)" d="M509.547 435.039L510.009 452.528C508.795 452.358 508.601 452.172 507.625 451.402C506.79 448.136 506.554 439.964 507.51 436.75C507.881 435.504 508.454 435.478 509.547 435.039Z"/>
	<path fill="#E4211F" transform="scale(0.488281 0.488281)" d="M732.677 434.565L864.4 434.521L864.277 452.534L720.802 452.503L732.677 434.565Z"/>
	<path fill="#FE8936" transform="scale(0.488281 0.488281)" d="M509.547 435.039C510.001 434.756 510.167 434.608 510.759 434.491C512.132 434.217 514.108 434.456 515.55 434.454L526.356 434.45L568.329 434.447L732.677 434.565L720.802 452.503L510.009 452.528L509.547 435.039Z"/>
</svg>
