<?xml version="1.0" encoding="utf-8" ?>
<svg xmlns="http://www.w3.org/2000/svg" xmlns:xlink="http://www.w3.org/1999/xlink" width="500" height="500">
	<path fill="#86C9D0" transform="scale(0.488281 0.488281)" d="M-0 -0L1024 0L1024 1024L-0 1024L0 -0Z"/>
	<path fill="#08D7CC" transform="scale(0.488281 0.488281)" d="M815.012 699.303C817.816 703.922 820.33 706.418 824.548 709.691L807.079 726.063C808.854 717.468 810.866 707.037 815.012 699.303Z"/>
	<path fill="#0DA2DF" transform="scale(0.488281 0.488281)" d="M868.903 757.745L885.705 791.848C888.819 798.333 892.981 805.389 894.122 812.567C894.995 818.051 893.314 824.347 889.917 828.773C884.933 835.266 878.525 837.357 870.715 838.465C866.156 838.502 861.842 837.676 857.757 835.647C852.04 832.808 847.914 827.597 845.959 821.562C844.637 817.478 844.196 812.972 845.001 808.75C846.555 800.605 851.293 792.671 854.971 785.295L868.903 757.745Z"/>
	<path fill="#0DA2DF" transform="scale(0.488281 0.488281)" d="M815.012 699.303C813.882 695.991 812.927 692.831 813.005 689.287C813.211 679.884 819.67 669.296 823.731 661.025L838.676 630.963L855.055 664.812C857.967 671.129 861.681 677.731 863.263 684.545C864.161 688.412 864.002 692.381 862.765 696.157C860.74 702.34 857.027 707.737 851 710.527C844.346 713.606 834.505 713.76 827.688 711.051L824.548 709.691C820.33 706.418 817.816 703.922 815.012 699.303Z"/>
	<path fill="#0DA2DF" transform="scale(0.488281 0.488281)" d="M182.617 759.468C185.732 764.89 188.087 771.127 190.747 776.801L201.853 800.786C204.176 805.925 207.345 811.868 207.976 817.5C208.687 823.843 205.97 830.796 201.945 835.601C197.216 841.245 190.874 843.897 183.684 844.556C180.333 844.54 177.478 844.285 174.27 843.157C167.594 840.81 162.765 836.358 159.79 830.003C157.794 825.74 156.727 820.076 157.673 815.375C158.925 809.146 162.782 802.774 165.496 797.032L175.552 775.229C177.981 769.99 180.599 764.886 182.617 759.468Z"/>
	<path fill="#0DA2DF" transform="scale(0.488281 0.488281)" d="M888.898 537.9C894.757 547.643 899.516 558.402 904.402 568.671C908.027 576.291 913.06 584.719 914.491 593.065L914.604 593.75C915.646 599.736 913.806 606.888 910.366 611.833C905.745 618.475 898.425 621.182 890.753 622.527C886.683 622.438 882.984 622.138 879.187 620.555C872.943 617.953 867.686 612.7 865.25 606.379C863.427 601.649 863.001 596.13 864.035 591.172C865.664 583.355 870.443 575.615 873.995 568.5L888.898 537.9Z"/>
	<path fill="#0DA2DF" transform="scale(0.488281 0.488281)" d="M118.552 539.076C123.646 548.38 127.888 558.553 132.364 568.182C136.037 576.083 142.131 585.639 143.462 594.201L143.579 595L143.812 596.516C144.564 602.948 142.578 610.614 138.368 615.577C133.103 621.784 126.066 624.359 118.159 625.038L114 624.547C107.213 623.568 101.324 620.104 97.25 614.581C93.5232 609.529 91.3431 603.062 92.3115 596.756L92.4392 596C93.8454 587.263 99.2765 578.236 103.157 570.327L118.552 539.076Z"/>
	<path fill="#E70909" transform="scale(0.488281 0.488281)" d="M761.761 689.458L782.032 735.589C789.036 751.335 797.899 768.203 800.118 785.422C801.167 793.555 800.147 801.766 797.032 809.346C792.985 819.193 785.182 826.933 775.371 831.008C771.226 832.73 767.019 833.422 762.599 834.062L762.057 833.927C762.63 830.389 762.382 826.634 762.39 823.055L762.407 804.161L762.017 721.393L761.824 702.186C761.712 697.989 761.246 693.633 761.761 689.458Z"/>
	<path fill="#F0352A" transform="scale(0.488281 0.488281)" d="M208.004 701.911L205.055 703.327C194.451 708.217 181.897 708.323 171.026 704.196C161.776 700.685 154.204 693.311 150.255 684.25C147.485 677.894 146.702 670.771 147.847 663.929C149.64 653.208 156.128 641.873 160.427 631.873L185.489 572.868L197.21 596.952L197.41 597.478C199.879 603.822 203.094 609.949 205.93 616.143L216.349 639.582C219.68 646.839 223.479 654.006 225.544 661.75L225.783 662.604C228.159 671.519 225.485 681.871 220.832 689.611C217.64 694.92 213.155 698.591 208.004 701.911Z"/>
	<path fill="#F0352A" transform="scale(0.488281 0.488281)" d="M193.433 280.171C192.361 274.005 193.389 266.646 194.081 260.438C197.477 229.974 213.651 202.512 237.495 183.488C260.32 165.277 292.014 156.273 321.056 159.796C341.176 162.237 359.696 168.861 376.576 180.15C380.511 182.782 383.982 185.863 387.75 188.693L388.521 187.575L388.478 188.157C387.836 198.2 389.333 207.78 391.225 217.6C366.339 223.928 344.813 242.876 331.785 264.559L326.981 273.489L193.73 273.97L193.433 280.171Z"/>
	<path fill="#F0352A" transform="scale(0.488281 0.488281)" d="M389.789 174.454C391.279 166.007 393.672 157.498 396.753 149.488C407.853 120.623 431.778 96.2925 460.002 83.8806C491.005 70.2466 525.345 69.1829 556.971 81.5244C588.418 93.7962 611.895 116.778 625.471 147.586C612.995 156.896 601.904 169.606 593.514 182.688C591.831 185.312 590.033 189.297 587.985 191.5C587.607 191.906 586.128 192.135 585.593 192.257L576.982 187.103C559.057 177.4 537.528 172.654 517.166 174.164C507.637 174.87 498.748 177.046 489.638 179.781L488.97 179.166C487.953 178.423 486.829 178.617 485.687 178.797C469.707 181.305 452.203 187.245 437.994 194.98C431.339 198.603 425.079 203.057 418.767 207.242C410.597 195.395 401.829 183.356 390.124 174.697L389.789 174.454Z"/>
	<path fill="#039974" transform="scale(0.488281 0.488281)" d="M826.916 335.824C835.176 335.862 843.712 335.503 851.932 336.242C873.571 338.186 893.401 348.342 908.591 363.675C925.68 380.924 934.777 404.039 934.729 428.25C934.681 452.992 924.596 477.592 906.75 494.867C900.398 501.016 893.271 505.787 885.5 509.955C877.041 514.493 867.745 518.262 858.25 519.935C844.996 522.272 830.81 521.445 817.401 521.424L772.445 521.204L759.639 493.197L746.244 521.31L678.915 521.488L672.964 546.678C671.618 552.256 670.565 560.76 666.813 565.25C666.467 564.73 665.867 564.051 665.641 563.489C664.356 560.283 671.391 534.245 672.531 529.372C672.986 527.425 674.427 523.383 673.75 521.621L670.764 521.492L669.901 520.477L685.775 456.092C706.51 456.204 727.604 456.829 747.923 452.027C775.617 445.482 801.573 430.161 816.667 405.387C829.482 384.355 832.687 359.639 826.916 335.824Z"/>
	<path fill="#039974" transform="scale(0.488281 0.488281)" d="M241.166 521.661L200.449 521.676C189.683 521.809 178.955 522.023 168.266 520.482C145.282 517.17 123.193 503.621 109.363 485.03C93.8311 464.151 88.0471 438.441 91.9035 412.824C95.489 389.007 109.37 367.887 128.634 353.764C151.28 337.163 179.268 333.076 206.568 337.224C204.825 367.011 217.801 396.87 237.351 418.808C257.094 440.964 288.099 454.404 317.5 455.988L378.531 456.407L363.892 522.072C360.614 521.318 356.591 521.708 353.219 521.692L330.481 521.683L247.964 521.59L241.166 521.661Z"/>
	<path fill="#0CB783" transform="scale(0.488281 0.488281)" d="M582.009 814.358C582.574 814.434 583.443 814.647 583.997 814.567C583.985 822.915 584.54 831.733 583.558 840.009L661.485 840.009L661.41 828.913L663.015 829.078L662.952 839.765C664.808 840.371 667.48 840.043 669.455 840.043L682.834 840.038L734.966 840.073C742.1 841.104 750.249 840.445 757.483 840.468L804.634 840.543C804.091 841.431 804.328 841.162 803.636 841.862C790.542 855.11 776.131 866.722 761.038 877.599C688.628 929.782 599.154 954.415 510.401 954.511C439.855 954.588 370.885 938.243 308.174 905.869C274.092 888.275 243.739 867.226 216.593 840.093L311.751 839.687L457.647 839.717C461.471 849.551 467.374 855.406 477.038 859.626C481.213 861.45 485.958 861.793 490 863.501C490.782 863.831 491.209 864.636 491.627 865.325C492.782 864.368 491.982 864.479 492.583 863.599C492.969 863.035 500.109 861.692 501.385 861.258C510.853 858.036 520.721 850.236 522.679 839.971L582.045 839.961L582.009 814.358Z"/>
	<path fill="#FAFBFB" transform="scale(0.488281 0.488281)" d="M634.465 884.75C638.416 883.767 644.136 884.478 648.258 884.47L679.587 884.43L689.914 884.404C691.322 884.397 693.406 884.119 694.75 884.451C696.111 884.788 696.287 885.623 696.928 886.75C696.486 888.281 696.44 888.484 695.25 889.523C690.155 890.083 684.934 889.865 679.812 889.873L656.003 889.877L642.6 889.849C640.453 889.841 637.945 890.073 635.843 889.688C634.219 889.391 634.155 889.035 633.269 887.75C633.211 886.035 633.352 886.089 634.465 884.75Z"/>
	<path fill="#FAFBFB" transform="scale(0.488281 0.488281)" d="M534.323 884.75C537.355 884.104 540.63 884.381 543.725 884.377L560.157 884.378L601 884.317C603.308 884.38 603.755 884.604 605.256 886.243C605.329 887.989 605.278 888.003 604.25 889.428L536.5 889.538C534.827 889.424 534.463 889.283 533.384 888C533.327 886.279 533.368 886.187 534.323 884.75Z"/>
	<path fill="#FAFBFB" transform="scale(0.488281 0.488281)" d="M281.15 861.75C283.461 861.266 286.229 861.56 288.591 861.559L304.21 861.549L364.5 861.619C365.932 862.478 365.943 862.425 366.47 864C366.061 865.524 365.99 865.562 364.75 866.551L363.646 866.783C360.511 867.211 356.882 866.896 353.703 866.904L332.909 866.927L299.45 866.94C293.941 866.937 288.287 867.196 282.792 866.882C281.574 866.813 280.758 866.683 279.75 865.929C279.64 865.526 279.445 864.911 279.467 864.5C279.535 863.169 280.287 862.614 281.15 861.75Z"/>
	<path fill="#FAFBFB" transform="scale(0.488281 0.488281)" d="M596.969 861.75C599.333 861.213 602.085 861.471 604.521 861.469L617.894 861.461L669.432 861.443L715.703 861.441C722.802 861.437 730.477 860.805 737.5 861.525C739.186 861.697 739.704 862.457 740.75 863.687C740.889 865.241 740.708 865.211 739.75 866.477C738.767 866.807 738.034 866.98 736.984 866.991L622.565 866.905C618.89 866.902 598.535 867.467 597.25 866.771C596.84 866.549 596.583 866.119 596.25 865.793C596.072 863.886 596.173 863.5 596.969 861.75Z"/>
	<path fill="#FAFBFB" transform="scale(0.488281 0.488281)" d="M589.364 908.25L624.292 908.311L633.312 908.4C634.031 908.439 635.406 908.35 636 908.597C636.527 908.816 636.929 909.26 637.393 909.592C637.917 911.05 637.657 911.073 636.984 912.5C636.338 913.005 635.893 913.218 635.063 913.277C630.558 913.601 625.846 913.339 621.322 913.338L596.449 913.323L518.673 913.316L485.761 913.443C481.625 913.456 476.551 914.022 472.51 913.366C471.135 913.142 471.087 912.822 470.305 911.75C470.331 910.198 470.439 910.1 471.357 908.83C474.037 907.835 478.558 908.409 481.511 908.409L503.563 908.395L589.364 908.25Z"/>
	<path fill="#FAFBFB" transform="scale(0.488281 0.488281)" d="M322.998 884.25C331.08 883.409 340.004 884.114 348.161 884.117L401.212 884.146L462.403 884.196C473.119 884.208 484.347 883.573 495 884.512C496.238 885.505 496.238 885.443 496.509 887C495.805 888.467 495.741 888.414 494.25 889.106C486.887 890.153 478.16 889.377 470.676 889.379L419.199 889.351L355.494 889.406C344.809 889.421 333.504 890.184 322.907 889.25C321.556 888.366 321.578 888.287 321.043 886.75C321.523 885.138 321.583 885.188 322.998 884.25Z"/>
	<path fill="#08D7CC" transform="scale(0.488281 0.488281)" d="M625.471 147.586C631.277 162.512 634.411 178.529 634.644 194.557C640.671 189.03 646.732 183.554 653.5 178.93C674.091 164.865 697.994 158.361 722.828 159.414C751.698 160.638 781.002 174.231 800.545 195.482C819.526 216.122 831.664 244.685 831.492 272.972C831.461 277.11 831.556 281.34 831.143 285.457C829.345 303.382 822.973 320.093 814.58 335.895L826.916 335.824C832.687 359.639 829.482 384.355 816.667 405.387C801.573 430.161 775.617 445.482 747.923 452.027C727.604 456.829 706.51 456.204 685.775 456.092C686.087 453.845 686.688 451.093 685.283 449.094L684.914 448.681C681.985 450.344 681.043 453.237 680.025 456.268C666.957 457.309 653.258 456.551 640.126 456.568L620.077 456.549C615.837 456.532 611.462 456.727 607.261 456.127L611.313 440.252C612.154 436.957 613.354 433.39 613.578 430C613.685 428.385 613.747 426.246 613.006 424.75C612.786 424.305 612.575 424.139 612.25 423.818C609.919 425.065 608.991 428.16 608.279 430.55C605.778 438.941 604.797 448.309 601.817 456.468C591.946 457.154 581.894 456.904 572 456.855C569.44 456.843 564.317 457.386 562.248 456.069C561.927 454.209 561.838 452.324 560.5 450.893C559.159 451.306 558.341 452.576 557.667 453.75L556.579 456.165L527.5 456.109L526.674 455.13C527.783 450.758 530.18 444.252 529.814 439.75C529.674 438.023 528.958 436.17 528.424 434.523C527.295 435.996 525.94 437.566 525.139 439.245C522.854 444.025 521.982 450.994 520.756 456.222L466.66 456.671C467.223 454.333 468.223 450.887 467.72 448.497C467.422 447.079 467.004 445.858 465.75 445.039C463.12 448.028 462.316 452.955 461.325 456.715L427.784 456.622C422.724 456.605 415.966 457.376 411.14 456.06L416.406 431.767C415.405 430.556 414.43 429.258 413.29 428.175C408.912 436.751 407.75 446.835 405.771 456.185L383.896 456.385C384.789 451.51 384.606 448.975 381.683 444.714L378.531 456.407L317.5 455.988C288.099 454.404 257.094 440.964 237.351 418.808C217.801 396.87 204.825 367.011 206.568 337.224L211.637 338.331C200.556 320.442 194.2 301.225 193.433 280.171L193.73 273.97L326.981 273.489L331.785 264.559C344.813 242.876 366.339 223.928 391.225 217.6C389.333 207.78 387.836 198.2 388.478 188.157L388.521 187.575C388.277 183.279 389.201 178.706 389.789 174.454L390.124 174.697C401.829 183.356 410.597 195.395 418.767 207.242C425.079 203.057 431.339 198.603 437.994 194.98C452.203 187.245 469.707 181.305 485.687 178.797C486.829 178.617 487.953 178.423 488.97 179.166L489.638 179.781C498.748 177.046 507.637 174.87 517.166 174.164C537.528 172.654 559.057 177.4 576.982 187.103L585.593 192.257C586.128 192.135 587.607 191.906 587.985 191.5C590.033 189.297 591.831 185.312 593.514 182.688C601.904 169.606 612.995 156.896 625.471 147.586Z"/>
	<path fill="#FAFBFB" transform="scale(0.488281 0.488281)" d="M274.243 375.049L278 375.522C280.106 376.034 282.233 378.134 283.092 380.064C283.953 381.999 283.666 384.679 282.808 386.578C281.51 389.449 279.217 390.584 276.424 391.709C274.704 391.663 273.163 391.574 271.581 390.832C269.387 389.802 267.727 387.914 267.007 385.591C266.415 383.685 266.76 380.978 267.785 379.26C269.247 376.81 271.597 375.737 274.243 375.049Z"/>
	<path fill="#FAFBFB" transform="scale(0.488281 0.488281)" d="M347.591 324.093C349.132 324.012 350.815 323.868 352.339 324.184C355.28 324.794 357.699 326.562 359.258 329.104C360.932 331.835 361.379 335.082 360.454 338.143C359.269 342.068 356.556 344.036 353.051 345.806C351.101 345.984 349.395 346.089 347.5 345.515C344.219 344.522 341.794 342.344 340.31 339.263C339.085 336.719 339.089 332.989 340.205 330.406C341.633 327.1 344.39 325.415 347.591 324.093Z"/>
	<path fill="#FAFBFB" transform="scale(0.488281 0.488281)" d="M452.228 264.58C454.191 264.49 456.061 264.553 457.937 265.216C460.98 266.292 463.402 268.646 464.706 271.583C466.116 274.76 466.246 278.136 464.81 281.33C463.176 284.966 460.09 286.848 456.525 288.26C454.375 288.517 452.056 288.527 450.024 287.677C446.823 286.339 444.289 283.396 443.187 280.146C442.066 276.841 442.507 273.602 444.093 270.507C445.889 267.006 448.664 265.776 452.228 264.58Z"/>
	<path fill="#FAFBFB" transform="scale(0.488281 0.488281)" d="M307.975 318.139L310.5 317.917C314.829 317.746 318.653 318.411 321.88 321.556C324.753 324.358 326.49 329.332 326.34 333.33C326.092 339.938 322.255 346.597 315.829 348.799C312.113 350.073 308.076 350.641 304.564 352.445C299.691 354.949 295.874 358.752 291.875 362.415C290.049 363.677 288.213 364.894 286 365.343C284.031 365.741 281.941 365.669 280.25 364.48C278.3 363.109 277.408 361.381 276.973 359.095C275.372 350.68 279.659 340.549 284.312 333.723C289.983 325.402 298.134 320.003 307.975 318.139Z"/>
	<path fill="#FAFBFB" transform="scale(0.488281 0.488281)" d="M400.385 267.659C406.083 267.175 412.195 267.029 417.766 268.442C423.14 269.805 429.05 273.284 431.862 278.242C433.736 281.547 434.012 284.835 432.96 288.46C428.383 304.222 411.123 299.235 399.25 301.511C393.646 302.586 388.973 305.107 384.1 307.925C380.184 310.687 375.818 314.995 371.27 316.513C368.909 317.302 365.063 318.037 362.778 316.604C360.946 315.457 360.254 313.968 359.833 311.89C358.304 304.326 362.632 294.769 366.945 288.712C375.148 277.191 386.568 270.047 400.385 267.659Z"/>
	<path fill="#E70909" transform="scale(0.488281 0.488281)" d="M625.471 147.586C631.277 162.512 634.411 178.529 634.644 194.557L634.459 194.928C632.968 197.781 630.665 200.136 628.78 202.728C625.698 206.964 622.864 211.597 620.68 216.359C619.438 219.07 618.31 221.742 618.755 224.75L619.5 225.482C626.263 224.514 633.335 220.597 640.071 218.847C663.93 212.651 690.108 215.31 710.228 230.314C714.948 233.833 719.47 238.22 722.901 243C729.134 251.683 734.568 262.112 735.109 273.031L831.492 272.972C831.461 277.11 831.556 281.34 831.143 285.457C829.345 303.382 822.973 320.093 814.58 335.895L796.101 335.996C793.662 329.466 789.179 322.664 784.39 317.619C772.777 305.38 754.985 297.783 738.172 297.522C731.416 297.417 722.47 297.765 717.453 302.816L716.786 303.505L716.201 290.597C713.678 273.124 702.516 255.833 688.397 245.492C677.339 237.394 661.322 232.208 647.615 234.428C639.682 235.713 631.478 238.666 626.693 245.422L626.3 245.987C624.437 241.67 623.11 237.199 621.071 232.921C612.927 215.838 600.867 203.033 585.593 192.257C586.128 192.135 587.607 191.906 587.985 191.5C590.033 189.297 591.831 185.312 593.514 182.688C601.904 169.606 612.995 156.896 625.471 147.586Z"/>
	<path fill="#E70909" transform="scale(0.488281 0.488281)" d="M389.789 174.454L390.124 174.697C401.829 183.356 410.597 195.395 418.767 207.242C425.079 203.057 431.339 198.603 437.994 194.98C452.203 187.245 469.707 181.305 485.687 178.797C486.829 178.617 487.953 178.423 488.97 179.166L489.638 179.781C480.817 183.116 472.27 186.598 464.257 191.632C447.36 202.247 433.175 220.207 425.005 238.218L422.07 245.965C404.745 241.781 385.151 245.175 369.952 254.457C357.691 261.944 347.286 273.228 340.827 286.077C338.846 290.018 337.199 294.032 336.034 298.288C335.958 298.567 335.243 301.445 335.211 301.466C334.985 301.611 334.687 301.348 334.424 301.291C317.358 297.587 299.712 301.476 285.218 310.903C271.03 320.131 262.847 334.12 259.43 350.5C258.954 352.783 258.406 355.093 258.429 357.434C258.246 358.621 258.231 359.059 257.5 360.051C247.34 353.302 236.775 347.381 225.419 342.876C221.002 341.124 215.725 340.482 211.637 338.331C200.556 320.442 194.2 301.225 193.433 280.171L193.73 273.97L326.981 273.489L331.785 264.559C344.813 242.876 366.339 223.928 391.225 217.6C389.333 207.78 387.836 198.2 388.478 188.157L388.521 187.575C388.277 183.279 389.201 178.706 389.789 174.454Z"/>
	<path fill="#F0352A" transform="scale(0.488281 0.488281)" d="M634.644 194.557C640.671 189.03 646.732 183.554 653.5 178.93C674.091 164.865 697.994 158.361 722.828 159.414C751.698 160.638 781.002 174.231 800.545 195.482C819.526 216.122 831.664 244.685 831.492 272.972L735.109 273.031C734.568 262.112 729.134 251.683 722.901 243C719.47 238.22 714.948 233.833 710.228 230.314C690.108 215.31 663.93 212.651 640.071 218.847C633.335 220.597 626.263 224.514 619.5 225.482L618.755 224.75C618.31 221.742 619.438 219.07 620.68 216.359C622.864 211.597 625.698 206.964 628.78 202.728C630.665 200.136 632.968 197.781 634.459 194.928L634.644 194.557Z"/>
	<path fill="#017B63" transform="scale(0.488281 0.488281)" d="M796.101 335.996L814.58 335.895L826.916 335.824C832.687 359.639 829.482 384.355 816.667 405.387C801.573 430.161 775.617 445.482 747.923 452.027C727.604 456.829 706.51 456.204 685.775 456.092C686.087 453.845 686.688 451.093 685.283 449.094L684.914 448.681C681.985 450.344 681.043 453.237 680.025 456.268C666.957 457.309 653.258 456.551 640.126 456.568L620.077 456.549C615.837 456.532 611.462 456.727 607.261 456.127L611.313 440.252C612.154 436.957 613.354 433.39 613.578 430C613.685 428.385 613.747 426.246 613.006 424.75C612.786 424.305 612.575 424.139 612.25 423.818C609.919 425.065 608.991 428.16 608.279 430.55C605.778 438.941 604.797 448.309 601.817 456.468C591.946 457.154 581.894 456.904 572 456.855C569.44 456.843 564.317 457.386 562.248 456.069C561.927 454.209 561.838 452.324 560.5 450.893C559.159 451.306 558.341 452.576 557.667 453.75L556.579 456.165L527.5 456.109L526.674 455.13C527.783 450.758 530.18 444.252 529.814 439.75C529.674 438.023 528.958 436.17 528.424 434.523C527.295 435.996 525.94 437.566 525.139 439.245C522.854 444.025 521.982 450.994 520.756 456.222L466.66 456.671C467.223 454.333 468.223 450.887 467.72 448.497C467.422 447.079 467.004 445.858 465.75 445.039C463.12 448.028 462.316 452.955 461.325 456.715L427.784 456.622C422.724 456.605 415.966 457.376 411.14 456.06L416.406 431.767C415.405 430.556 414.43 429.258 413.29 428.175C408.912 436.751 407.75 446.835 405.771 456.185L383.896 456.385C384.789 451.51 384.606 448.975 381.683 444.714L378.531 456.407L317.5 455.988C288.099 454.404 257.094 440.964 237.351 418.808C217.801 396.87 204.825 367.011 206.568 337.224L211.637 338.331C215.725 340.482 221.002 341.124 225.419 342.876C236.775 347.381 247.34 353.302 257.5 360.051C258.231 359.059 258.246 358.621 258.429 357.434C258.354 364.97 259.651 372.254 261.909 379.428C267.341 396.69 281.18 410.822 297.012 418.99C313.164 427.322 333.708 429.106 351 423.505C363.613 419.42 375.513 412.11 383.823 401.7C387.658 396.895 390.398 391.837 393.164 386.378C398.438 398.613 408.274 409.782 419.983 416.25C435.797 424.985 453.988 426.669 471.25 421.548C484.278 417.683 497.224 408.435 503.744 396.364L505.741 392.699C509.571 398.505 513.14 403.687 518.27 408.482C528.774 418.3 544.975 424.954 559.478 424.357C577.968 423.597 593.475 415.742 605.875 402.137C609.197 406.062 612.562 409.903 616.575 413.149C627.183 421.728 640.485 424.888 653.94 423.375C669.353 421.641 681.181 412.847 690.613 401.061C700.121 412.215 713.12 420.116 727.5 423.092C737.939 425.253 748.809 424.205 758.8 420.532C774.643 414.707 787.451 402.81 794.528 387.482C802.18 370.908 802.43 353.019 796.101 335.996Z"/>
	<path fill="#A5E0EB" transform="scale(0.488281 0.488281)" d="M601.817 456.468C604.797 448.309 605.778 438.941 608.279 430.55C608.991 428.16 609.919 425.065 612.25 423.818C612.575 424.139 612.786 424.305 613.006 424.75C613.747 426.246 613.685 428.385 613.578 430C613.354 433.39 612.154 436.957 611.313 440.252L607.261 456.127C611.462 456.727 615.837 456.532 620.077 456.549L640.126 456.568C653.258 456.551 666.957 457.309 680.025 456.268C681.043 453.237 681.985 450.344 684.914 448.681L685.283 449.094C686.688 451.093 686.087 453.845 685.775 456.092L669.901 520.477L670.764 521.492L673.75 521.621C674.427 523.383 672.986 527.425 672.531 529.372C671.391 534.245 664.356 560.283 665.641 563.489C665.867 564.051 666.467 564.73 666.813 565.25C670.565 560.76 671.618 552.256 672.964 546.678L678.915 521.488L746.244 521.31L759.639 493.197L772.445 521.204L787.773 555.528C792.197 565.548 797.339 575.797 799.19 586.663C799.921 590.953 799.584 595.529 798.661 599.75C796.318 610.462 790.872 619.196 781.621 625.322C779.123 626.977 776.263 628.254 773.451 629.273L758.316 682.861C759.725 685.048 760.811 687.027 761.761 689.458C761.246 693.633 761.712 697.989 761.824 702.186L762.017 721.393L762.407 804.161L762.39 823.055C762.382 826.634 762.63 830.389 762.057 833.927L762.599 834.062L762.98 840.056L745.234 839.926C741.894 839.905 738.27 839.58 734.966 840.073L682.834 840.038L669.455 840.043C667.48 840.043 664.808 840.371 662.952 839.765L663.015 829.078L661.41 828.913L661.485 840.009L583.558 840.009C584.54 831.733 583.985 822.915 583.997 814.567C583.443 814.647 582.574 814.434 582.009 814.358L582.045 839.961L522.679 839.971C520.721 850.236 510.853 858.036 501.385 861.258C500.109 861.692 492.969 863.035 492.583 863.599C491.982 864.479 492.782 864.368 491.627 865.325C491.209 864.636 490.782 863.831 490 863.501C485.958 861.793 481.213 861.45 477.038 859.626C467.374 855.406 461.471 849.551 457.647 839.717L311.751 839.687L295.158 821.165L290.03 823.243C280.315 826.743 269.588 825.924 260.344 821.513C251 817.055 244.113 808.718 240.73 799.003C236.14 785.822 239.967 775.053 245.757 763.153C230.657 743.871 218.111 724.28 208.004 701.911C213.155 698.591 217.64 694.92 220.832 689.611C225.485 681.871 228.159 671.519 225.783 662.604L225.544 661.75C223.479 654.006 219.68 646.839 216.349 639.582L205.93 616.143C203.094 609.949 199.879 603.822 197.41 597.478L197.21 596.952C197.388 596.526 197.681 596.131 197.743 595.673C197.873 594.724 197.348 592.827 197.242 591.776L196.564 582.948C196.146 576.111 196.234 568.835 196.546 561.987C197.16 548.491 199.555 535.226 202.713 522.125L241.16 522.033L241.166 521.661L247.964 521.59L330.481 521.683L353.219 521.692C356.591 521.708 360.614 521.318 363.892 522.072L378.531 456.407L381.683 444.714C384.606 448.975 384.789 451.51 383.896 456.385L405.771 456.185C407.75 446.835 408.912 436.751 413.29 428.175C414.43 429.258 415.405 430.556 416.406 431.767L411.14 456.06C415.966 457.376 422.724 456.605 427.784 456.622L461.325 456.715C462.316 452.955 463.12 448.028 465.75 445.039C467.004 445.858 467.422 447.079 467.72 448.497C468.223 450.887 467.223 454.333 466.66 456.671L520.756 456.222C521.982 450.994 522.854 444.025 525.139 439.245C525.94 437.566 527.295 435.996 528.424 434.523C528.958 436.17 529.674 438.023 529.814 439.75C530.18 444.252 527.783 450.758 526.674 455.13L527.5 456.109L556.579 456.165L557.667 453.75C558.341 452.576 559.159 451.306 560.5 450.893C561.838 452.324 561.927 454.209 562.248 456.069C564.317 457.386 569.44 456.843 572 456.855C581.894 456.904 591.946 457.154 601.817 456.468Z"/>
	<path fill="#C7E7F7" transform="scale(0.488281 0.488281)" d="M521.891 561.013L522.176 553.926C523.776 557.44 524.681 560.934 525.768 564.617C526.276 566.338 526.994 569.133 528.311 570.397L527.677 571.098C526.965 571.899 526.538 572.652 526.064 573.606C524.76 573.862 523.397 573.774 522.07 573.782L522.123 573.471C522.865 569.39 522.242 565.121 521.891 561.013Z"/>
	<path fill="#FAFBFB" transform="scale(0.488281 0.488281)" d="M474.448 672.139L476.578 671.685C478.435 670.842 480.279 664.116 481.002 662.002L482.283 658.706L482.502 658.003L482.755 657.25C482.941 656.564 483.022 655.927 483.252 655.237L483.502 654.503L483.755 653.5C484.449 652.16 484.15 653.383 484.4 651.957C485.012 648.461 486.209 644.976 487.028 641.509C487.891 637.852 488.115 632.711 490.441 629.749C490.861 630.818 491.403 632.09 491.466 633.25C491.636 636.387 490.41 640.195 489.717 643.25C488.007 650.782 486.443 658.941 483.315 666.034L475.253 681.714C474.717 678.458 474.385 675.44 474.448 672.139Z"/>
	<path fill="#FAFBFB" transform="scale(0.488281 0.488281)" d="M380.769 523.523C381.556 525.546 381.733 527.337 381.467 529.5C380.767 535.194 378.635 541.293 377.211 546.877C375.298 554.382 373.95 563.174 370.698 570.188C370.049 571.589 367.351 578.023 366.388 578.595C366.479 575.293 366.418 571.913 367.042 568.664C368.246 563.895 370.548 559.312 371.84 554.532C374.377 545.149 376.02 535.14 379.121 525.953C379.503 524.821 379.745 524.219 380.769 523.523Z"/>
	<defs>
		<linearGradient id="gradient_0" gradientUnits="userSpaceOnUse" x1="552.14746" y1="547.14911" x2="562.35254" y2="553.35089">
			<stop offset="0" stop-color="#DDEEF5"/>
			<stop offset="1" stop-color="#FFFBFA"/>
		</linearGradient>
	</defs>
	<path fill="url(#gradient_0)" transform="scale(0.488281 0.488281)" d="M550.206 561.065L552 561.322C555.666 558.813 559.666 539.264 561.205 534.401C562.312 530.904 563.801 527.471 565.16 524.062L565.952 524.035L566.376 525.921L561.131 546.552C559.461 553.127 557.905 559.919 555.185 566.161C553.334 570.406 550.684 574.702 548.54 578.865C548.607 574.36 549.44 569.34 548.425 564.964L550.206 561.065Z"/>
	<path fill="#FAFBFB" transform="scale(0.488281 0.488281)" d="M439.758 522.25C440.72 522.261 440.186 522.196 441.344 522.552C441.442 524.953 441.694 527.502 441.146 529.858L437.492 544.5C435.316 554.397 433.733 566.549 428.456 575.25C427.79 575.308 427.605 575.068 427.036 574.75C426.228 564.388 431.777 553.906 434.539 544.16C435.672 540.161 436.192 536.029 437.124 531.99C437.882 528.701 439.043 525.546 439.758 522.25Z"/>
	<path fill="#C7E7F7" transform="scale(0.488281 0.488281)" d="M365.282 562.827L372.817 532.171C373.392 529.748 373.935 523.986 375.414 522.148C375.862 521.591 379.21 521.869 380.075 521.878L380.769 523.523C379.745 524.219 379.503 524.821 379.121 525.953C376.02 535.14 374.377 545.149 371.84 554.532C370.548 559.312 368.246 563.895 367.042 568.664L365.911 565.25L366.75 564.5C367.856 563.798 367.831 563.515 368.255 562.25L367.355 560.85L366.561 561.106L365.991 563.013L365.282 562.827Z"/>
	<defs>
		<linearGradient id="gradient_1" gradientUnits="userSpaceOnUse" x1="497.58398" y1="553.61652" x2="488.74115" y2="548.78802">
			<stop offset="0" stop-color="#FFF8F7"/>
			<stop offset="1" stop-color="#DCF1F8"/>
		</linearGradient>
	</defs>
	<path fill="url(#gradient_1)" transform="scale(0.488281 0.488281)" d="M503.098 521.785C504.216 525.793 500.983 534.053 499.914 538.128C497.78 546.259 495.975 554.717 493.185 562.647C491.942 566.182 490.124 569.728 488.298 573.001L486.017 576.419L487.31 566.389C488.075 564.791 488.431 562.83 489.058 561.135C491.346 554.95 493.47 548.624 495.166 542.249C495.913 539.442 496.245 536.53 497.086 533.75C498.223 529.996 500.235 526.786 500.869 522.875L500.962 522.25L503.098 521.785Z"/>
	<path fill="#039974" transform="scale(0.488281 0.488281)" d="M474.027 669.875C473.358 669.232 472.985 668.537 472.506 667.75C472.157 660.954 475.154 653.068 476.81 646.511C478.914 638.177 480.441 629.274 483.869 621.379C484.077 623.224 484.128 625.34 484.718 627.098L484.921 627.594C485.42 633.942 483.098 639.91 481.582 646.023C479.593 654.042 478.401 662.766 474.027 669.875Z"/>
	<path fill="#C7E7F7" transform="scale(0.488281 0.488281)" d="M484.921 627.594L485.407 627.359L485.625 628.875L486.255 629.25C486.888 628.829 487.245 628.534 487.755 628L487.75 626L486.755 625.5L487.071 624.641C487.948 622.171 487.824 619.596 488.25 617.048C488.855 613.433 489.997 609.773 490.868 606.209C490.931 613.782 491.632 622.297 490.441 629.749C488.115 632.711 487.891 637.852 487.028 641.509C486.209 644.976 485.012 648.461 484.4 651.957C484.15 653.383 484.449 652.16 483.755 653.5L483.502 654.503L483.252 655.237C483.022 655.927 482.941 656.564 482.755 657.25L482.502 658.003L482.283 658.706L481.002 662.002C480.279 664.116 478.435 670.842 476.578 671.685L474.448 672.139L474.027 669.875C478.401 662.766 479.593 654.042 481.582 646.023C483.098 639.91 485.42 633.942 484.921 627.594Z"/>
	<path fill="#FAFBFB" transform="scale(0.488281 0.488281)" d="M415.431 694.799C417.352 691.926 418.348 688.011 419.367 684.724L424.662 665.057L429.32 648.091C430.104 644.883 430.838 636.806 433.037 634.903C434.454 636.808 434.31 638.34 433.977 640.629C432.747 649.103 430.438 657.622 428.383 665.936C426.474 673.658 424.783 681.144 421.981 688.602C420.527 692.473 419.021 696.311 416.25 699.437L415.525 698.75L415.431 694.799Z"/>
	<path fill="#C7E7F7" transform="scale(0.488281 0.488281)" d="M428.032 635.244C428.741 633.753 428.804 633.359 430.25 632.464L430.933 633.151C431.541 633.755 432.166 634.121 432.816 634.643L433.037 634.903C430.838 636.806 430.104 644.883 429.32 648.091L424.662 665.057L419.367 684.724C418.348 688.011 417.352 691.926 415.431 694.799C415.045 692.984 414.92 691.039 413.727 689.563L414.167 688.758C417.638 682.591 418.758 674.382 420.364 667.511L428.032 635.244Z"/>
	<path fill="#FAFBFB" transform="scale(0.488281 0.488281)" d="M452.829 621.493C454.088 620.166 454.764 617.623 455.326 615.909C457.025 610.733 457.856 605.452 459.205 600.191C460.666 594.493 463.184 588.07 463.559 582.218C463.653 580.753 463.69 579.01 464.445 577.71C465.3 576.238 465.194 574.685 466.569 573.454L467.113 573L467.64 572.204L468.905 572.991C469.133 581.254 465.997 590.186 463.947 598.173C461.84 606.379 459.856 614.552 456.952 622.521C455.827 625.608 454.661 629.13 452.876 631.88L452.156 631.75C451.168 627.967 451.361 625.132 452.829 621.493Z"/>
	<path fill="#C7E7F7" transform="scale(0.488281 0.488281)" d="M461.946 561.91C462.501 558.826 463.739 556.285 465.144 553.52C466.105 559.567 466.94 564.88 467.092 571C468.337 571.732 468.525 571.625 468.905 572.991L467.64 572.204L467.113 573L466.569 573.454C465.194 574.685 465.3 576.238 464.445 577.71C463.69 579.01 463.653 580.753 463.559 582.218C463.184 588.07 460.666 594.493 459.205 600.191C457.856 605.452 457.025 610.733 455.326 615.909C454.764 617.623 454.088 620.166 452.829 621.493C451.807 620.443 451.341 619.849 450.853 618.42C453.732 613.009 454.615 607.401 455.803 601.455L458.923 586.882C460.042 581.81 461.811 576.516 462.431 571.381C462.78 568.492 462.102 564.881 461.946 561.91Z"/>
	<path fill="#FAFBFB" transform="scale(0.488281 0.488281)" d="M589.488 572.309C590.059 573.418 590.391 574.381 590.282 575.653C589.703 582.39 587.153 589.518 585.529 596.077C583.501 604.263 581.879 612.803 579.292 620.823C577.179 627.377 573.883 634.2 570.197 639.989C570.059 636.205 569.755 632.423 570.657 628.71C570.832 627.765 570.918 627.228 571.628 626.535C575.369 622.884 576.57 615.948 577.988 611C580.095 603.647 582.257 596.561 583.851 589.053L586.625 577.386C586.914 576.34 587.108 574.657 587.577 573.75C587.753 573.41 589.111 572.593 589.488 572.309Z"/>
	<path fill="#039974" transform="scale(0.488281 0.488281)" d="M450.853 618.42L449.5 619.451C448.662 618.928 448.524 618.791 448.257 617.847C447.187 614.062 449.563 606.946 450.459 603.135L457.358 574.778C458.455 570.528 459.228 565.683 461.172 561.75L461.946 561.91C462.102 564.881 462.78 568.492 462.431 571.381C461.811 576.516 460.042 581.81 458.923 586.882L455.803 601.455C454.615 607.401 453.732 613.009 450.853 618.42Z"/>
	<path fill="#FAFBFB" transform="scale(0.488281 0.488281)" d="M650.858 566.489L651.587 571.166C651.709 571.896 651.916 572.27 652.225 572.915C654.293 577.239 643.251 615.879 640.854 622.385C639.375 626.401 637.771 630.751 635.681 634.486L632.115 640.984L632.488 627.629L632.424 626.656C632.899 624.728 633.885 622.816 634.657 620.985C634.926 621.896 634.877 622.374 634.628 623.262C634.392 624.106 634.227 624.877 634.125 625.753C634.992 624.861 635.523 624.158 636.003 623.003C636.559 621.661 637.001 620.847 637.943 619.757L638.243 619.417C639.823 615.971 640.598 612.209 641.664 608.585C643.648 601.848 645.517 595.119 646.837 588.21C647.608 584.168 648.003 579.321 649.314 575.469C650.292 572.593 649.382 568.904 650.858 566.489Z"/>
	<path fill="#C7E7F7" transform="scale(0.488281 0.488281)" d="M583.425 562.127L583.562 558.57C584.724 558.488 585.639 558.522 586.782 558.75C587.638 560.99 587.013 564.202 587.524 566.695C587.901 567.891 588.214 569.386 588.764 570.494L589.488 572.309C589.111 572.593 587.753 573.41 587.577 573.75C587.108 574.657 586.914 576.34 586.625 577.386L583.851 589.053C582.257 596.561 580.095 603.647 577.988 611C576.57 615.948 575.369 622.884 571.628 626.535C570.918 627.228 570.832 627.765 570.657 628.71L570.33 626.169C572.655 621.32 573.504 616.228 574.671 611.014L578.648 593.906C580.235 587.202 582.561 580.071 583.51 573.278C584.014 569.67 583.608 565.751 583.425 562.127Z"/>
	<path fill="#C7E7F7" transform="scale(0.488281 0.488281)" d="M588.764 570.494C586.933 571.111 586.192 572.318 584.237 571.997L584.243 568.75L584.75 568.255L585.875 568.753L587.524 566.695C587.901 567.891 588.214 569.386 588.764 570.494Z"/>
	<path fill="#039974" transform="scale(0.488281 0.488281)" d="M529.437 689.197C528.595 688.452 528.12 687.711 527.545 686.75C527.188 679.563 530.199 671.833 531.853 664.828C534.897 651.946 537.198 638.296 542.217 626.048C542.525 629.194 543.265 632.696 543.062 635.837C542.814 639.678 541.299 643.537 540.752 647.384L540.69 647.846L535.515 669.025C533.851 675.969 532.387 682.659 529.437 689.197Z"/>
	<path fill="#039974" transform="scale(0.488281 0.488281)" d="M509.961 623.037C509.237 623.895 508.805 624.192 507.75 624.574C506.837 623.949 506.749 623.963 506.628 622.893C506.16 618.779 519.188 564.621 521.891 561.013C522.242 565.121 522.865 569.39 522.123 573.471L522.07 573.782L514.64 605.5C513.237 611.309 512.257 617.511 509.961 623.037Z"/>
	<path fill="#039974" transform="scale(0.488281 0.488281)" d="M398.688 564.4L399.784 575.763C399.699 579.867 398.346 584.611 397.441 588.618L392.188 610.732C390.958 615.702 390.156 621.41 388.099 626.103C387.659 627.106 387.021 627.749 386.25 628.503L384.844 628.165L384.593 627.74C384.075 626.503 384.308 624.803 384.505 623.5C385.6 616.226 388.057 608.787 389.75 601.589L398.688 564.4Z"/>
	<path fill="#039974" transform="scale(0.488281 0.488281)" d="M585.147 688.529C584.47 688.049 584.112 687.634 583.591 687C583.209 683.331 584.151 680.041 585.003 676.5L588.518 662.537L598.673 624.839C599.174 628.359 599.788 631.934 599.518 635.5C599.212 639.553 597.73 643.986 596.767 647.953C594.229 658.409 591.07 669.126 589.229 679.709L589.151 680.175C588.109 683.299 587.125 685.847 585.147 688.529Z"/>
	<path fill="#039974" transform="scale(0.488281 0.488281)" d="M570.33 626.169L569.836 625.951L568.893 625.583C568.688 625.191 568.492 624.881 568.375 624.461C567.864 622.626 568.399 619.785 568.72 617.921C569.83 611.49 571.593 605.093 573.069 598.731L580.487 567.441C581.192 564.665 581.397 560.706 582.726 558.25L583.425 562.127C583.608 565.751 584.014 569.67 583.51 573.278C582.561 580.071 580.235 587.202 578.648 593.906L574.671 611.014C573.504 616.228 572.655 621.32 570.33 626.169Z"/>
	<path fill="#C7E7F7" transform="scale(0.488281 0.488281)" d="M645.983 558.922L646.25 555.24L647.25 554.974C649.41 556.695 650.548 562.492 650.918 565.293C651.011 566.005 650.997 565.763 650.858 566.489C649.382 568.904 650.292 572.593 649.314 575.469C648.003 579.321 647.608 584.168 646.837 588.21C645.517 595.119 643.648 601.848 641.664 608.585C640.598 612.209 639.823 615.971 638.243 619.417L637.943 619.757C637.001 620.847 636.559 621.661 636.003 623.003C635.523 624.158 634.992 624.861 634.125 625.753C634.227 624.877 634.392 624.106 634.628 623.262C634.877 622.374 634.926 621.896 634.657 620.985C634.434 618.987 636.29 614.077 636.788 611.999L642.898 586.433C644.113 581.443 645.756 576.245 646.484 571.174C647.022 567.427 646.178 562.748 645.983 558.922Z"/>
	<path fill="#039974" transform="scale(0.488281 0.488281)" d="M413.727 689.563L412.996 689.403C412.685 688.955 412.164 688.298 412.005 687.75C410.887 683.899 414.904 672.044 415.949 667.5L421.67 642.637C423.229 635.769 424.667 628.84 427.088 622.212C427.808 626.466 427.842 630.938 428.032 635.244L420.364 667.511C418.758 674.382 417.638 682.591 414.167 688.758L413.727 689.563Z"/>
	<path fill="#039974" transform="scale(0.488281 0.488281)" d="M632.424 626.656C631.867 626.394 631.421 626.097 630.914 625.75C630.297 624.072 630.131 622.959 630.354 621.175C630.952 616.378 632.371 611.595 633.433 606.882L641.252 574.6C642.562 569.395 643.236 563.721 645.211 558.75L645.983 558.922C646.178 562.748 647.022 567.427 646.484 571.174C645.756 576.245 644.113 581.443 642.898 586.433L636.788 611.999C636.29 614.077 634.434 618.987 634.657 620.985C633.885 622.816 632.899 624.728 632.424 626.656Z"/>
	<path fill="#FAFBFB" transform="scale(0.488281 0.488281)" d="M404.658 576.75C405.458 576.839 405.629 577.127 406.25 577.61C407.193 584.406 403.992 593.976 402.343 600.655C399.03 614.075 396.179 629.494 389.25 641.589L388.25 641.482C387.558 638.515 387.388 635.486 387.13 632.456L388.25 630.919C390.135 628.46 390.77 625.838 391.768 622.959L392.273 621.5L393.516 617.926L395.553 611.009C397.022 606.336 399.199 600.394 398.936 595.468L398.907 595C399.468 594.182 399.253 593.471 399.255 592.5C400.007 591.368 399.753 590.331 399.755 589L400.25 588.255C400.292 587.403 400.286 586.719 400.648 585.93C402.2 582.547 401.576 579.215 404.658 576.75Z"/>
	<path fill="#FAFBFB" transform="scale(0.488281 0.488281)" d="M589.151 680.175L589.868 680.696C589.224 682.424 588.437 684.187 588.134 686.011C588.557 686.872 588.827 687.035 589.478 687.682L589.755 688C589.755 686.937 589.624 686.946 590.255 686C590.255 684.809 590.072 684.524 590.755 683.5C590.755 682.437 590.624 682.446 591.255 681.5C591.255 680.488 591.106 680.509 591.724 679.671C592.674 678.385 592.818 677.095 593.112 675.573C593.402 674.069 593.443 670.062 594.255 669.25C594.255 668.23 594.002 668.003 594.755 667.25L594.848 666.72L595.755 663.25L596.003 662.625L596.363 661.165L597.255 657.75L597.503 657.125L598.113 654.376C598.253 653.682 598.534 653.157 598.755 652.5C599.089 651.507 599.255 650.799 599.255 649.75L599.755 649.25L599.848 648.72C600.002 647.94 600.255 647.254 600.503 646.503L600.737 645.753C601.091 644.69 600.887 645.28 601.41 644.236C601.813 643.431 601.832 643.12 601.755 642.25L602.255 641.5C602.257 639.75 601.807 636.908 602.779 635.5C603.167 628.975 603.927 622.951 605.75 616.661L606.33 616.503C606.188 622.788 604.822 629.499 603.963 635.75C604.644 636.312 605.308 636.792 606.063 637.25C606.162 642.205 603.925 648.085 602.71 652.931C598.42 670.035 595.08 686.24 586.198 701.72C585.378 698.031 585.474 693.106 585.591 689.324L585.147 688.529C587.125 685.847 588.109 683.299 589.151 680.175Z"/>
	<path fill="#FAFBFB" transform="scale(0.488281 0.488281)" d="M540.69 647.846C541.312 650.757 540.26 653 539.524 655.773L537.145 665.451L533.298 681.691C532.541 684.384 531.065 686.83 530.345 689.525C529.808 691.538 529.957 693.685 530 695.75L530.75 695C530.508 693.548 530.556 693.366 531.125 692.003C531.369 692.401 531.697 692.781 531.755 693.25C532.777 691.717 533.41 690.055 533.755 688.25L534.255 687.75C534.255 686.64 533.941 686.064 534.755 685.25C534.755 684.003 534.545 683.565 535.255 682.5C535.255 681.437 535.124 681.446 535.755 680.5L535.793 679.578C535.835 678.695 536.033 678.092 536.255 677.25L536.371 676.642C536.739 674.789 537.406 672.915 538.003 671.125L538.255 670.25L538.521 669.398C538.754 668.58 538.805 668.079 538.755 667.25L539.255 666.75L539.255 665.75L539.755 665.25L539.755 664.25L540.255 663.75C540.255 662.619 540.099 662.484 540.755 661.5C540.755 660.309 540.572 660.024 541.255 659C541.255 657.937 541.124 657.946 541.755 657C541.755 655.937 541.624 655.946 542.255 655L542.293 654.312C542.399 653.014 542.812 651.222 543.255 650C543.737 648.67 543.665 647.369 543.715 645.982C543.753 644.949 543.696 645.524 544.003 644.503C544.331 643.41 544.274 642.374 544.255 641.25L544.755 640.75C544.973 639.651 544.951 638.554 545.755 637.75L546.144 635.889C546.292 635.153 546.246 634.551 546.266 633.806C546.313 632.031 546.538 630.238 546.401 628.463C546.087 624.409 544.43 617.42 546.32 613.75C547.445 617.284 547.308 621.467 547.626 625.166C547.919 628.569 548.637 631.816 548.43 635.25C549.998 637.051 550.114 637.202 549.902 639.696C549.379 645.858 547.076 652.264 545.536 658.254C542.47 670.181 540.202 682.298 534.805 693.422C533.81 695.473 533.052 697.667 531.75 699.547L531.042 699.75C529.622 698.382 529.558 696.629 529.52 694.767C529.493 693.456 529.923 690.276 529.437 689.197C532.387 682.659 533.851 675.969 535.515 669.025L540.69 647.846Z"/>
	<defs>
		<linearGradient id="gradient_2" gradientUnits="userSpaceOnUse" x1="613.66248" y1="540.86682" x2="630.23376" y2="554.54755">
			<stop offset="0" stop-color="#DEF0F6"/>
			<stop offset="1" stop-color="#FFFAFA"/>
		</linearGradient>
	</defs>
	<path fill="url(#gradient_2)" transform="scale(0.488281 0.488281)" d="M611.977 565.017C613.896 560.347 614.819 555.221 615.92 550.313L620.7 529.936C621.215 527.814 621.605 523.554 622.904 521.843C623.411 521.175 625.853 521.461 626.731 521.45L627.222 521.704L630.4 522.157C630.764 526.664 616.848 575.554 613.658 578.912L613.227 579.269C612.08 577.35 612.633 574.092 612.641 571.832C612.483 571.469 612.543 571.688 612.571 571.1C612.679 568.875 612.58 567.177 611.977 565.017Z"/>
	<path fill="#C7E7F7" transform="scale(0.488281 0.488281)" d="M611.977 565.017C613.896 560.347 614.819 555.221 615.92 550.313L620.7 529.936C621.215 527.814 621.605 523.554 622.904 521.843C623.411 521.175 625.853 521.461 626.731 521.45L627.222 521.704C627.403 524.935 625.985 527.753 624.929 530.737L620.984 543C620.13 546.143 619.831 549.355 619.05 552.506L615.526 565C615.071 566.864 614.747 568.355 614.75 570.292L614.162 570.981L613.514 569.815C613.1 570.451 613.102 570.969 612.997 571.708L612.641 571.832C612.483 571.469 612.543 571.688 612.571 571.1C612.679 568.875 612.58 567.177 611.977 565.017Z"/>
	<defs>
		<linearGradient id="gradient_3" gradientUnits="userSpaceOnUse" x1="521.54779" y1="604.13361" x2="514.88672" y2="602.29688">
			<stop offset="0" stop-color="#FBF8F5"/>
			<stop offset="1" stop-color="#BDE7FB"/>
		</linearGradient>
	</defs>
	<path fill="url(#gradient_3)" transform="scale(0.488281 0.488281)" d="M522.07 573.782C523.397 573.774 524.76 573.862 526.064 573.606C526.538 572.652 526.965 571.899 527.677 571.098L528.311 570.397C529.046 572.497 529.099 574.453 528.875 576.647C528.004 585.171 524.84 594.22 522.652 602.518C520.839 609.391 519.508 616.369 517.153 623.09C515.466 627.904 513.179 632.542 510.968 637.133L509.877 639.377L510.089 628.815C510.137 626.846 510.422 624.976 509.961 623.037C512.257 617.511 513.237 611.309 514.64 605.5L522.07 573.782Z"/>
	<path fill="#0DA2DF" transform="scale(0.488281 0.488281)" d="M387.317 769.478C391.664 774.742 394.893 781.248 398.16 787.237C400.903 792.265 403.855 797.153 406.157 802.407L407.165 804.914C408.399 809.105 406.967 814.623 404.648 818.192C401.433 823.138 396.557 825.484 390.937 826.586C386.721 826.548 383.376 826.385 379.522 824.411C375.408 822.304 371.713 818.481 370.369 814C369.432 810.877 369.276 807.229 370.138 804.078C371.355 799.63 374.19 794.994 376.285 790.879L387.317 769.478Z"/>
	<path fill="#0DA2DF" transform="scale(0.488281 0.488281)" d="M661.41 828.913C659.387 828.566 657.407 828.231 655.469 827.525C649.932 825.508 645.458 821.29 643.184 815.847C641.84 812.631 641.268 808.193 641.84 804.734C642.904 798.299 647.269 791.131 650.101 785.232C654.395 776.285 658.794 767.41 662.461 758.183L681.401 798.733C683.625 804.743 683.868 810.9 680.948 816.75C678.376 821.903 674.075 825.634 668.679 827.61C667.033 828.213 665.334 828.286 663.695 828.84L663.015 829.078L661.41 828.913Z"/>
	<path fill="#0DA2DF" transform="scale(0.488281 0.488281)" d="M474.687 688.75L475.699 688.687C481.007 695.19 484.67 704.349 488.421 711.904C491.485 718.077 495.944 725.336 497.163 732.144C498.058 737.141 496.392 743.242 493.329 747.25C488.996 752.919 483.001 755.103 476.176 755.985C471.598 755.579 467.767 754.902 463.729 752.506C458.36 749.322 454.758 744.208 453.42 738.145C452.89 735.743 452.682 732.687 453.192 730.263C454.259 725.199 457.76 719.76 460.138 715.188C464.784 706.259 469.363 697.3 474.687 688.75Z"/>
	<path fill="#0DA2DF" transform="scale(0.488281 0.488281)" d="M303.159 568.25L303.887 568.572C309.23 577.523 313.252 587.468 317.656 596.908C321.114 604.324 326.671 613.659 328.077 621.674C329.017 627.027 327.03 633.17 323.916 637.5C319.22 644.027 312.148 646.41 304.555 647.568C299.699 647.299 294.765 646.439 290.5 643.993C284.877 640.768 280.838 635.585 279.289 629.237C278.393 625.563 278.412 621.845 279.409 618.188C281.384 610.947 285.789 603.692 289.047 596.906C293.608 587.409 297.894 577.35 303.159 568.25Z"/>
	<path fill="#0DA2DF" transform="scale(0.488281 0.488281)" d="M241.166 521.661L247.964 521.59C251.246 527.23 253.74 533.281 256.664 539.109C261.122 547.995 267.397 557.84 269.838 567.475C270.786 571.22 270.95 575.994 269.986 579.762C268.391 586.001 264.231 591.447 258.647 594.639C256.823 595.682 255 596.423 253 597.039L252.229 597.283C245.468 599.298 237.183 597.735 231.184 594.223C226.043 591.213 222.349 586.052 220.422 580.5L220.16 579.758C216.612 569.158 223.846 557.474 228.391 548.222L238.589 527.924C239.266 526.583 241.292 523.424 241.16 522.033L241.166 521.661Z"/>
	<path fill="#0DA2DF" transform="scale(0.488281 0.488281)" d="M582.009 814.358C575.159 813.402 568.297 812.057 562.25 808.496C559.587 806.928 557.118 805.056 556.338 801.92C555.451 798.356 555.988 793.507 556.514 789.884C559.016 772.663 566.844 757.076 576.287 742.661C578.274 739.628 580.382 736.712 583.021 734.204C587.417 738.293 590.421 743.228 593.519 748.329C601.601 761.639 609.891 779.125 610.483 795C610.608 798.359 611.05 803.082 608.578 805.75C604.958 809.658 599.535 811.709 594.5 813.027C590.991 813.946 587.635 814.533 583.997 814.567C583.443 814.647 582.574 814.434 582.009 814.358Z"/>
	<path fill="#E70909" transform="scale(0.488281 0.488281)" d="M675.856 748.253L674.588 747.803C673.983 745.22 674.362 742.025 674.355 739.337L674.359 721.773L674.408 651.043L674.123 623.84C674.092 620.729 673.199 615.223 674.632 612.542L701.675 672.518C705.597 681.851 710.084 691.15 712.541 701L712.792 701.97C715.237 711.556 713.305 721.386 708.283 729.75C702.862 738.777 693.3 744.705 683.198 747.087L675.856 748.253Z"/>
	<path fill="#F0352A" transform="scale(0.488281 0.488281)" d="M457.647 839.717C457.508 836.816 457.706 834.765 458.75 831.995C461.102 825.754 464.6 819.621 467.549 813.631L484.049 780.027L488.257 770.999C488.833 769.699 489.314 768.066 490.353 767.075L490.807 766.737C494.141 768.23 498.694 780.497 500.498 784.313C506.327 796.639 512.805 808.748 517.644 821.507C519.882 827.408 522.207 833.634 522.679 839.971C520.721 850.236 510.853 858.036 501.385 861.258C500.109 861.692 492.969 863.035 492.583 863.599C491.982 864.479 492.782 864.368 491.627 865.325C491.209 864.636 490.782 863.831 490 863.501C485.958 861.793 481.213 861.45 477.038 859.626C467.374 855.406 461.471 849.551 457.647 839.717Z"/>
	<path fill="#F0352A" transform="scale(0.488281 0.488281)" d="M362.064 633.555C364.492 637.71 366.084 642.81 368.089 647.215L384.685 683.685C388.213 691.607 393.792 701.711 394.462 710.45C394.932 716.572 392.532 722.428 388.58 727.055C382.255 734.459 373.737 736.317 364.467 737.029C358.999 736.955 353.762 736.313 348.75 734.027C341.329 730.642 335.918 725.01 333.054 717.357C331.115 712.176 331.116 706.815 332.319 701.452C334.038 693.788 338.512 685.738 341.73 678.514L362.064 633.555Z"/>
	<path fill="#F0352A" transform="scale(0.488281 0.488281)" d="M675.856 748.253L675.826 748.268C667.573 748.947 658.783 747.471 651.406 743.668C642.313 738.981 632.681 730.25 629.545 720.246L629.336 719.542L629.158 718.993C625.98 708.212 641.599 674.207 646.064 663.918L672.263 607.726C673.37 608.841 673.998 611.077 674.632 612.542C673.199 615.223 674.092 620.729 674.123 623.84L674.408 651.043L674.359 721.773L674.355 739.337C674.362 742.025 673.983 745.22 674.588 747.803L675.856 748.253Z"/>
	<path fill="#F0352A" transform="scale(0.488281 0.488281)" d="M758.316 682.861C759.725 685.048 760.811 687.027 761.761 689.458C761.246 693.633 761.712 697.989 761.824 702.186L762.017 721.393L762.407 804.161L762.39 823.055C762.382 826.634 762.63 830.389 762.057 833.927C755.768 835.052 747.905 833.143 742.231 830.467C731.043 825.19 722.697 815.645 718.633 803.975C716.141 796.818 715.504 788.383 716.831 780.921C717.743 775.79 719.703 770.873 721.489 766L730.997 742.568L758.316 682.861Z"/>
	<path fill="#039974" transform="scale(0.488281 0.488281)" d="M405.771 456.185C407.75 446.835 408.912 436.751 413.29 428.175C414.43 429.258 415.405 430.556 416.406 431.767L411.14 456.06C415.966 457.376 422.724 456.605 427.784 456.622L461.325 456.715L450.115 503.279C448.754 509.062 446.427 515.637 445.913 521.47C443.37 522.39 438.315 521.651 435.478 521.601C434.334 523.072 433.851 527.945 433.372 530L428.37 550.909C427.42 554.75 426.67 558.979 425.148 562.618C424.306 564.631 422.893 566.473 421.615 568.231C421.506 565.611 421.29 562.922 421.782 560.333L430.571 521.79L424.265 521.632L423.433 520.581L422.5 521.987C421.08 522.037 419.67 522.143 418.26 521.931L380.075 521.878C379.21 521.869 375.862 521.591 375.414 522.148C373.935 523.986 373.392 529.748 372.817 532.171L365.282 562.827C364.315 564.523 363.595 566.478 361.75 567.197C359.75 564.086 361.982 557.903 362.77 554.428L367.375 534.676C368.282 530.91 369.603 526.856 369.765 522.98C367.699 522.929 365.79 523.015 363.892 522.072L378.531 456.407L381.683 444.714C384.606 448.975 384.789 451.51 383.896 456.385L405.771 456.185Z"/>
	<path fill="#FAFBFB" transform="scale(0.488281 0.488281)" d="M418.26 521.931L424.57 493.62C425.449 489.856 426.046 485.592 427.473 482C428.312 479.89 429.466 478.351 431.048 476.75L431.925 476.75C432.551 478.056 433.087 479.26 433.025 480.75C432.825 485.521 430.861 491.09 429.672 495.759L423.433 520.581L422.5 521.987C421.08 522.037 419.67 522.143 418.26 521.931Z"/>
	<path fill="#FAFBFB" transform="scale(0.488281 0.488281)" d="M405.771 456.185C407.75 446.835 408.912 436.751 413.29 428.175C414.43 429.258 415.405 430.556 416.406 431.767L411.14 456.06C409.786 462.556 401.67 501.009 398.584 503.082L398 503.424C396.664 503.039 396.484 502.78 395.519 501.75C395.209 496.726 397.397 490.952 398.573 486.011L405.771 456.185Z"/>
	<path fill="#FAFBFB" transform="scale(0.488281 0.488281)" d="M378.531 456.407L381.683 444.714C384.606 448.975 384.789 451.51 383.896 456.385L376.832 489.028L371.793 510.203C370.904 513.866 369.16 518.453 369.686 522.146L369.765 522.98C367.699 522.929 365.79 523.015 363.892 522.072L378.531 456.407Z"/>
	<path fill="#0DA2DF" transform="scale(0.488281 0.488281)" d="M245.757 763.153L277.884 695.301C279.627 697.143 280.676 700.379 281.805 702.685L290.043 719.514L308.188 757.354C310.643 762.637 313.609 767.997 315.499 773.5C317.261 778.633 317.648 783.218 317.53 788.609C317.331 797.756 313.01 807.304 306.39 813.564C303.024 816.747 299.32 819.127 295.158 821.165L290.03 823.243C280.315 826.743 269.588 825.924 260.344 821.513C251 817.055 244.113 808.718 240.73 799.003C236.14 785.822 239.967 775.053 245.757 763.153Z"/>
	<path fill="#F0352A" transform="scale(0.488281 0.488281)" d="M746.244 521.31L759.639 493.197L772.445 521.204L787.773 555.528C792.197 565.548 797.339 575.797 799.19 586.663C799.921 590.953 799.584 595.529 798.661 599.75C796.318 610.462 790.872 619.196 781.621 625.322C779.123 626.977 776.263 628.254 773.451 629.273C763.442 632.589 753.382 632.452 743.625 628.343C734.29 624.412 726.272 616.312 722.521 606.9C719.741 599.924 719.087 592.277 720.238 584.885C721.339 577.812 724.655 570.909 727.355 564.329L746.244 521.31Z"/>
	<path fill="#039974" transform="scale(0.488281 0.488281)" d="M520.756 456.222C521.982 450.994 522.854 444.025 525.139 439.245C525.94 437.566 527.295 435.996 528.424 434.523C528.958 436.17 529.674 438.023 529.814 439.75C530.18 444.252 527.783 450.758 526.674 455.13L527.5 456.109L556.579 456.165L557.667 453.75C558.341 452.576 559.159 451.306 560.5 450.893C561.838 452.324 561.927 454.209 562.248 456.069L546.182 521.461C544.544 522.309 542.506 522.254 540.709 521.76C538.856 520.936 533.71 521.514 531.595 521.515L503.192 521.562L503.098 521.785L500.962 522.25L500.869 522.875C500.235 526.786 498.223 529.996 497.086 533.75C496.245 536.53 495.913 539.442 495.166 542.249C493.47 548.624 491.346 554.95 489.058 561.135C488.431 562.83 488.075 564.791 487.31 566.389C487.157 564.798 486.51 564.653 485.327 563.643C484.598 564.353 483.812 564.925 483 565.534L482.05 565.25C481.583 559.3 484.242 552.017 485.614 546.156L490.853 522.5L490.25 521.801L485.657 521.975C483.994 522.624 482.159 522.4 480.5 521.898C477.559 521.26 474.115 521.595 471.1 521.594L451.05 521.475C449.983 522.698 449.766 522.959 448.25 523.487C446.719 522.905 446.735 522.891 445.913 521.47C446.427 515.637 448.754 509.062 450.115 503.279L461.325 456.715C462.316 452.955 463.12 448.028 465.75 445.039C467.004 445.858 467.422 447.079 467.72 448.497C468.223 450.887 467.223 454.333 466.66 456.671L520.756 456.222Z"/>
	<path fill="#C7E7F7" transform="scale(0.488281 0.488281)" d="M485.327 563.643C488.113 557.727 489.027 550.967 490.463 544.618L496.008 521.512L503.192 521.562L503.098 521.785L500.962 522.25L500.869 522.875C500.235 526.786 498.223 529.996 497.086 533.75C496.245 536.53 495.913 539.442 495.166 542.249C493.47 548.624 491.346 554.95 489.058 561.135C488.431 562.83 488.075 564.791 487.31 566.389C487.157 564.798 486.51 564.653 485.327 563.643Z"/>
	<path fill="#FAFBFB" transform="scale(0.488281 0.488281)" d="M480.5 521.898L489.834 480.944C491.178 475.482 492.055 469.452 493.987 464.186C494.779 462.027 495.913 460.272 497.5 458.631C498.612 459.183 498.528 459.254 498.875 460.399C499.271 461.705 499.307 463.15 499.14 464.498C498.03 473.476 494.932 482.978 492.732 491.804L485.657 521.975C483.994 522.624 482.159 522.4 480.5 521.898Z"/>
	<path fill="#FAFBFB" transform="scale(0.488281 0.488281)" d="M520.756 456.222C521.982 450.994 522.854 444.025 525.139 439.245C525.94 437.566 527.295 435.996 528.424 434.523C528.958 436.17 529.674 438.023 529.814 439.75C530.18 444.252 527.783 450.758 526.674 455.13C524.939 462.091 516.545 500.201 513.089 503.176C511.848 503.15 511.722 502.979 510.693 502.25C509.693 498.639 511.708 493.338 512.507 489.725L520.756 456.222Z"/>
	<path fill="#FAFBFB" transform="scale(0.488281 0.488281)" d="M556.579 456.165L557.667 453.75C558.341 452.576 559.159 451.306 560.5 450.893C561.838 452.324 561.927 454.209 562.248 456.069L546.182 521.461C544.544 522.309 542.506 522.254 540.709 521.76L556.579 456.165Z"/>
	<path fill="#FAFBFB" transform="scale(0.488281 0.488281)" d="M461.325 456.715C462.316 452.955 463.12 448.028 465.75 445.039C467.004 445.858 467.422 447.079 467.72 448.497C468.223 450.887 467.223 454.333 466.66 456.671L451.05 521.475C449.983 522.698 449.766 522.959 448.25 523.487C446.719 522.905 446.735 522.891 445.913 521.47C446.427 515.637 448.754 509.062 450.115 503.279L461.325 456.715Z"/>
	<path fill="#039974" transform="scale(0.488281 0.488281)" d="M601.817 456.468C604.797 448.309 605.778 438.941 608.279 430.55C608.991 428.16 609.919 425.065 612.25 423.818C612.575 424.139 612.786 424.305 613.006 424.75C613.747 426.246 613.685 428.385 613.578 430C613.354 433.39 612.154 436.957 611.313 440.252L607.261 456.127C611.462 456.727 615.837 456.532 620.077 456.549L640.126 456.568C653.258 456.551 666.957 457.309 680.025 456.268C681.043 453.237 681.985 450.344 684.914 448.681L685.283 449.094C686.688 451.093 686.087 453.845 685.775 456.092L669.901 520.477C669.272 521.553 669.649 521.037 668.75 522.009L665.5 521.955L664.674 521.009C662.673 522.267 657.898 521.58 655.384 521.583L626.731 521.45C625.853 521.461 623.411 521.175 622.904 521.843C621.605 523.554 621.215 527.814 620.7 529.936L615.92 550.313C614.819 555.221 613.896 560.347 611.977 565.017C611.3 565.576 611.04 565.721 610.25 566.003L609.212 564.75C609.905 550.912 615.436 537.045 617.942 523.439L613.107 521.59L585.534 521.65C580.644 521.661 575.407 522.036 570.569 521.437L570.03 522.066L569.397 522.296C568.366 522.622 567.464 522.672 566.394 522.75C566.301 523.776 566.53 524.947 566.376 525.921L565.952 524.035L565.16 524.062C563.801 527.471 562.312 530.904 561.205 534.401C559.666 539.264 555.666 558.813 552 561.322L550.206 561.065L548.425 564.964C547.753 565.639 547.373 566.037 546.5 566.453L546.14 565.886C543.682 561.236 553.627 528.108 555.366 521.701L546.182 521.461L562.248 456.069C564.317 457.386 569.44 456.843 572 456.855C581.894 456.904 591.946 457.154 601.817 456.468Z"/>
	<path fill="#C7E7F7" transform="scale(0.488281 0.488281)" d="M550.206 561.065C550.738 556.733 552.465 551.982 553.545 547.724L559.874 521.522C561.726 521.47 563.433 521.588 565.265 521.855C566.92 522.089 568.367 522.294 570.03 522.066L569.397 522.296C568.366 522.622 567.464 522.672 566.394 522.75C566.301 523.776 566.53 524.947 566.376 525.921L565.952 524.035L565.16 524.062C563.801 527.471 562.312 530.904 561.205 534.401C559.666 539.264 555.666 558.813 552 561.322L550.206 561.065Z"/>
	<path fill="#FAFBFB" transform="scale(0.488281 0.488281)" d="M565.265 521.855L569.28 503.509C570.724 496.812 571.996 486.573 577.146 481.774C577.7 483.83 578.583 486.34 578.577 488.464C578.566 492.313 576.395 497.413 575.404 501.188L570.569 521.437L570.03 522.066C568.367 522.294 566.92 522.089 565.265 521.855Z"/>
	<path fill="#FAFBFB" transform="scale(0.488281 0.488281)" d="M613.107 521.59L622.419 482.188C623.547 477.44 624.306 471.382 626.41 467C627.281 465.186 628.79 463.87 630.25 462.533C631.233 463.115 630.994 462.734 631.283 463.808C632.474 468.232 629.204 476.843 628.136 481.29L621.991 507.044C620.626 512.491 618.907 517.91 617.942 523.439L613.107 521.59Z"/>
	<path fill="#FAFBFB" transform="scale(0.488281 0.488281)" d="M680.025 456.268C681.043 453.237 681.985 450.344 684.914 448.681L685.283 449.094C686.688 451.093 686.087 453.845 685.775 456.092L669.901 520.477C669.272 521.553 669.649 521.037 668.75 522.009L665.5 521.955L664.674 521.009L680.025 456.268Z"/>
	<path fill="#FAFBFB" transform="scale(0.488281 0.488281)" d="M601.817 456.468C604.797 448.309 605.778 438.941 608.279 430.55C608.991 428.16 609.919 425.065 612.25 423.818C612.575 424.139 612.786 424.305 613.006 424.75C613.747 426.246 613.685 428.385 613.578 430C613.354 433.39 612.154 436.957 611.313 440.252L607.261 456.127L598.392 493.292C597.19 498.223 596.431 504.084 594.478 508.697C594.108 509.571 593.55 510.186 592.909 510.869L591.25 510.959C590.255 509.827 589.494 509.108 589.556 507.5C589.716 503.295 591.684 497.921 592.728 493.724L601.817 456.468Z"/>
</svg>
