<?xml version="1.0" encoding="utf-8" ?>
<svg xmlns="http://www.w3.org/2000/svg" xmlns:xlink="http://www.w3.org/1999/xlink" width="500" height="500">
	<path fill="#AA9F61" transform="scale(0.488281 0.488281)" d="M-0 -0L1024 0L1024 1024L-0 1024L0 -0Z"/>
	<path fill="#111117" transform="scale(0.488281 0.488281)" d="M493.935 46.7172L495.107 46.649C538.092 45.3903 580.393 49.4823 622.25 59.5353C699.733 78.1448 773.467 118.57 831.353 173.239C919.503 256.49 974.318 373.134 977.634 494.795C978.492 526.263 976.843 557.957 971.618 589.025C962.66 642.286 943.963 693.388 917.808 740.572C899.373 773.828 877.487 804.876 851.303 832.499C768.321 920.044 650.334 974.291 529.375 977.536C412.308 982.711 292.816 941.014 205.27 862.845C185.678 845.351 167.082 826.498 150.569 806.053C88.1683 728.795 52.0535 634.129 46.6941 535.004C42.7176 461.455 56.9828 385.842 87.7605 318.908C107.719 275.503 134.714 235.122 166.649 199.651C237.234 121.253 334.554 69.0972 438.5 52.0514C456.809 49.0489 475.422 47.6885 493.935 46.7172Z"/>
	<path fill="#4F624E" transform="scale(0.488281 0.488281)" d="M512.527 923.726L492.39 923.207C410.762 919.416 331.566 891.114 266.25 841.841C244.002 825.057 223.693 805.711 204.949 785.132C193.842 772.938 183.888 759.807 174.502 746.256C123.502 672.624 98.0612 582.873 102.263 493.443C103.753 461.714 108.202 430.707 116.869 400.111C132.585 344.625 161.385 291.786 198.662 247.882C212.336 231.776 227.39 217.044 243.027 202.864C304.357 147.249 386.161 111.91 468.324 103.438C482.825 101.943 497.989 100.631 512.572 101.345L512.573 112.516C430.144 113.333 350.586 137.667 283.041 185.25C262.091 200.009 242.957 216.897 225.015 235.155C153.337 308.1 111.779 410.667 112.814 512.924C113.167 547.788 117.462 583.432 126.553 617.138C145.214 686.331 182.81 749.683 234.031 799.73C274.092 838.872 322.944 868.898 375.5 888.013C387.14 892.247 398.999 896.316 411.017 899.342C444.499 907.772 478.122 911.244 512.558 911.808L512.527 923.726Z"/>
	<path fill="#321C13" transform="scale(0.488281 0.488281)" d="M512.572 101.345C544.209 101.636 575.333 104.639 606.2 111.863C620.68 115.252 634.934 120.059 648.907 125.109C706.794 146.029 760.225 178.658 803.463 222.704C835.919 255.767 862.425 293.291 882.567 335C887.136 344.461 891.75 354.039 895.575 363.829C914.349 411.89 923.518 463.394 923.023 514.933C922.836 534.368 921.663 554.019 918.744 573.25C907.612 646.587 876.524 716.253 829.281 773.385C818.58 786.326 806.721 798.23 794.74 809.974C735.789 867.758 654.827 906.714 573.525 919.291C553.36 922.41 532.908 923.459 512.527 923.726L512.558 911.808C527.421 911.47 542.243 911.217 557.023 909.405C627.188 900.804 694.295 873.484 750.808 831.127C761.738 822.935 772.457 814.534 782.433 805.183C810.534 778.842 835.413 748.815 855.262 715.759C860.855 706.445 865.707 696.771 870.51 687.032C895.074 637.223 909.898 582.391 911.427 526.75C912.158 500.139 910.928 473.325 906.625 447.038C893.933 369.501 857.376 296.448 803.512 239.374C747.697 180.233 671.957 136.863 592.07 120.747C565.625 115.412 539.48 113.308 512.573 112.516L512.572 101.345Z"/>
	<path fill="#111117" transform="scale(0.488281 0.488281)" d="M512.573 112.516C539.48 113.308 565.625 115.412 592.07 120.747C671.957 136.863 747.697 180.233 803.512 239.374C857.376 296.448 893.933 369.501 906.625 447.038C910.928 473.325 912.158 500.139 911.427 526.75C909.898 582.391 895.074 637.223 870.51 687.032C865.707 696.771 860.855 706.445 855.262 715.759C835.413 748.815 810.534 778.842 782.433 805.183C772.457 814.534 761.738 822.935 750.808 831.127C694.295 873.484 627.188 900.804 557.023 909.405C542.243 911.217 527.421 911.47 512.558 911.808C478.122 911.244 444.499 907.772 411.017 899.342C398.999 896.316 387.14 892.247 375.5 888.013C322.944 868.898 274.092 838.872 234.031 799.73C182.81 749.683 145.214 686.331 126.553 617.138C117.462 583.432 113.167 547.788 112.814 512.924C111.779 410.667 153.337 308.1 225.015 235.155C242.957 216.897 262.091 200.009 283.041 185.25C350.586 137.667 430.144 113.333 512.573 112.516Z"/>
	<path fill="#4F624E" transform="scale(0.488281 0.488281)" d="M512.544 907.046C454.459 907.067 396.115 894.349 343.58 869.353C303.427 850.248 267.191 824.37 235.355 793.44C161.389 721.58 119.171 620.405 117.789 517.512C116.765 441.27 137.685 366.25 178.577 301.795C193.93 277.595 211.873 255.636 231.869 235.146C287.137 178.514 360.358 139.691 437.944 124.674C462.675 119.887 487.365 117.766 512.51 117.478L512.5 130.058C490.392 130.725 468.576 131.902 446.732 135.646C366.45 149.406 289.845 190.275 233.958 249.558C190.437 295.723 157.585 353.902 141.986 415.5C132.451 453.151 129.262 492.135 130.561 530.881C131.2 549.949 133.989 569.13 137.727 587.818C153.099 664.674 191.714 736.708 249.246 790.309C320.234 856.447 415.055 895.475 512.542 893.941L512.544 907.046Z"/>
	<path fill="#321C13" transform="scale(0.488281 0.488281)" d="M512.51 117.478C540.064 117.792 567.605 120.481 594.57 126.306C650.351 138.357 705.467 163.664 750.797 198.403C767.966 211.561 784.017 226.431 799.126 241.89C806.063 248.988 812.429 256.694 818.737 264.348C876.479 334.415 907.865 424.47 906.778 515.195C906.592 530.707 905.876 546.238 903.855 561.631C892.06 651.458 849.22 733.646 784.487 796.709C713.403 865.961 611.776 907.545 512.544 907.046L512.542 893.941C582.245 894.45 652.211 873.027 711.34 836.634C733.139 823.216 754.199 807.483 772.57 789.612C790.274 772.389 807.466 753.314 821.9 733.25C866.31 671.517 892.678 594.779 893.66 518.701C894.152 480.65 889.764 442.911 879.438 406.235C862.139 344.799 828.555 289.01 784.018 243.472C777.475 236.782 770.396 230.595 763.348 224.447C702.574 171.437 625.433 138.667 545.139 131.272C534.314 130.275 523.361 130.17 512.5 130.058L512.51 117.478Z"/>
	<path fill="#111117" transform="scale(0.488281 0.488281)" d="M512.5 130.058C523.361 130.17 534.314 130.275 545.139 131.272C625.433 138.667 702.574 171.437 763.348 224.447C770.396 230.595 777.475 236.782 784.018 243.472C828.555 289.01 862.139 344.799 879.438 406.235C889.764 442.911 894.152 480.65 893.66 518.701C892.678 594.779 866.31 671.517 821.9 733.25C807.466 753.314 790.274 772.389 772.57 789.612C754.199 807.483 733.139 823.216 711.34 836.634C652.211 873.027 582.245 894.45 512.542 893.941C415.055 895.475 320.234 856.447 249.246 790.309C191.714 736.708 153.099 664.674 137.727 587.818C133.989 569.13 131.2 549.949 130.561 530.881C129.262 492.135 132.451 453.151 141.986 415.5C157.585 353.902 190.437 295.723 233.958 249.558C289.845 190.275 366.45 149.406 446.732 135.646C468.576 131.902 490.392 130.725 512.5 130.058Z"/>
	<path fill="#4F624E" transform="scale(0.488281 0.488281)" d="M512.455 889.446C491.103 888.485 470.438 887.572 449.26 884.135C374.764 872.047 303.326 835.819 249.347 783.035C178.305 713.563 136.37 618.947 135.337 519.298C134.985 485.449 138.149 451.619 146.265 418.69C162.192 354.071 197.667 292.989 244.213 245.615C257.094 232.505 271.592 220.752 286.361 209.851C294.821 203.606 303.31 197.301 312.258 191.764C372.46 154.511 441.856 135.391 512.514 134.722L512.454 148.361C493.935 148.607 475.593 149.494 457.25 152.259C397.352 161.288 341.031 185.544 292.583 221.792C278.444 232.37 264.667 243.899 252.309 256.531C210.08 299.699 177.502 354.974 161.5 413.25C152.092 447.514 148.007 483.839 148.491 519.326C148.799 541.928 151.772 564.901 156.351 587C163.48 621.401 174.66 653.984 191.37 684.984C209.582 718.768 233.321 749.246 260.792 775.969C282.773 797.352 308.143 815.395 334.952 830.176C389.729 860.375 449.79 876.362 512.45 876.032L512.455 889.446Z"/>
	<path fill="#321C13" transform="scale(0.488281 0.488281)" d="M512.514 134.722C535.718 135.168 558.158 136.915 581.013 141.146C657.529 155.312 730.552 194.639 784.546 250.675C854.348 323.117 890.98 420.146 888.887 520.417C887.79 572.976 875.07 623.653 852.66 671.103C847.566 681.889 842.303 692.682 836.174 702.923C816.973 735.007 791.711 765.145 764.725 790.975C754.281 800.971 742.328 809.989 730.552 818.352C678.144 855.568 618.176 878.369 554.5 886.631C540.745 888.415 526.471 889.795 512.598 889.464L512.455 889.446L512.45 876.032C566.509 875.463 622.367 862.33 670.795 838.293C705.382 821.126 737.141 798.195 765 771.525C833.716 705.741 873.638 611.669 875.386 516.812C877.129 422.223 840.937 329.06 775.12 260.937C728.345 212.523 667.38 176.177 601.949 159.607C572.544 152.16 542.735 148.858 512.454 148.361L512.514 134.722Z"/>
	<path fill="#111117" transform="scale(0.488281 0.488281)" d="M512.454 148.361C542.735 148.858 572.544 152.16 601.949 159.607C667.38 176.177 728.345 212.523 775.12 260.937C840.937 329.06 877.129 422.223 875.386 516.812C873.638 611.669 833.716 705.741 765 771.525C737.141 798.195 705.382 821.126 670.795 838.293C622.367 862.33 566.509 875.463 512.45 876.032C449.79 876.362 389.729 860.375 334.952 830.176C308.143 815.395 282.773 797.352 260.792 775.969C233.321 749.246 209.582 718.768 191.37 684.984C174.66 653.984 163.48 621.401 156.351 587C151.772 564.901 148.799 541.928 148.491 519.326C148.007 483.839 152.092 447.514 161.5 413.25C177.502 354.974 210.08 299.699 252.309 256.531C264.667 243.899 278.444 232.37 292.583 221.792C341.031 185.544 397.352 161.288 457.25 152.259C475.593 149.494 493.935 148.607 512.454 148.361Z"/>
	<path fill="#4F624E" transform="scale(0.488281 0.488281)" d="M512.15 870.97C506.362 870.472 500.388 870.694 494.567 870.433C483.002 869.916 471.426 868.914 459.965 867.267C383.128 856.219 312.395 819.74 257.25 765.272C248.484 756.614 240.608 747.263 232.869 737.695C182.179 675.016 153.892 596.088 153.499 515.372C153.331 480.752 157.655 445.527 166.983 412.16C182.626 356.204 214.562 301.533 255.43 260.313C311.546 203.715 385.972 166.471 465.047 156.206C480.823 154.158 496.633 153.549 512.526 153.488L512.509 166.641C491.923 167.005 471.194 168.503 450.914 172.193C377.159 185.613 310.91 222.483 258.986 276.354C248.592 287.138 239.083 299.4 230.421 311.609C188.574 370.599 165.767 442.919 167.178 515.304C168.725 594.639 194.955 670.819 245.492 732.396C255.254 744.291 266.281 755.473 277.41 766.107C296.948 784.775 319.929 800.63 343.551 813.641C353.832 819.303 364.228 824.854 375 829.529C410.789 845.063 448.574 854.052 487.5 856.485C495.689 856.997 503.922 857.63 512.134 857.459L512.15 870.97Z"/>
	<path fill="#321C13" transform="scale(0.488281 0.488281)" d="M512.526 153.488C607.806 153.676 699.602 192.06 766.818 259.549C822.132 315.088 858.471 388.462 868.152 466.386C870.094 482.016 870.519 497.879 870.484 513.618C870.364 567.233 857.784 621.119 833.884 669.169C820.705 695.664 804.162 720.073 785.159 742.698C778.336 750.823 771.427 758.99 763.908 766.481C707.021 823.156 629.521 859.95 549.774 868.73C539.073 869.908 528.089 871.082 517.318 871.071L512.15 870.97L512.134 857.459C518.119 856.787 524.27 856.753 530.288 856.392L560.25 853.462C622.186 844.402 684.298 817.732 731.761 776.623C740.61 768.959 749.577 761.344 757.75 752.953C814.72 694.466 850.282 617.126 855.967 535.533C857.934 507.305 856.819 477.758 851.758 449.875C846.733 422.193 837.937 395.652 826.474 370C820.269 356.113 813.484 342.268 805.429 329.35C795.858 313.998 784.502 299.547 772.654 285.894C720.119 225.357 648.016 185.109 569 171.678C556.757 169.598 544.411 168.032 532.014 167.268L512.509 166.641L512.526 153.488Z"/>
	<path fill="#111117" transform="scale(0.488281 0.488281)" d="M512.509 166.641L532.014 167.268C544.411 168.032 556.757 169.598 569 171.678C648.016 185.109 720.119 225.357 772.654 285.894C784.502 299.547 795.858 313.998 805.429 329.35C813.484 342.268 820.269 356.113 826.474 370C837.937 395.652 846.733 422.193 851.758 449.875C856.819 477.758 857.934 507.305 855.967 535.533C850.282 617.126 814.72 694.466 757.75 752.953C749.577 761.344 740.61 768.959 731.761 776.623C684.298 817.732 622.186 844.402 560.25 853.462L530.288 856.392C524.27 856.753 518.119 856.787 512.134 857.459C503.922 857.63 495.689 856.997 487.5 856.485C448.574 854.052 410.789 845.063 375 829.529C364.228 824.854 353.832 819.303 343.551 813.641C319.929 800.63 296.948 784.775 277.41 766.107C266.281 755.473 255.254 744.291 245.492 732.396C194.955 670.819 168.725 594.639 167.178 515.304C165.767 442.919 188.574 370.599 230.421 311.609C239.083 299.4 248.592 287.138 258.986 276.354C310.91 222.483 377.159 185.613 450.914 172.193C471.194 168.503 491.923 167.005 512.509 166.641Z"/>
	<path fill="#4F624E" transform="scale(0.488281 0.488281)" d="M512.413 852.373L510.116 852.426C438.316 852.011 368.186 828.698 310.318 786.295C296.79 776.382 283.625 765.562 271.879 753.568C245.693 726.83 223.557 696.89 206.938 663.27C183.494 615.846 171.483 560.836 172.108 508C173.132 421.409 207.449 333.498 269.75 272.523C287.936 254.723 307.858 238.395 329.37 224.75C383.521 190.401 448.242 171.035 512.497 171.7L512.395 185.1C491.643 185.388 470.374 187.069 450 191.049C385.778 203.593 324.066 236.424 278.456 283.372C230.607 332.625 198.88 395.62 189.003 463.75C186.419 481.577 185.744 499.627 186.023 517.618C187.369 604.369 222.814 687.125 285.131 747.592C344.757 805.448 427.507 839.315 510.75 838.914L512.516 838.806L512.413 852.373Z"/>
	<path fill="#321C13" transform="scale(0.488281 0.488281)" d="M512.497 171.7C541.866 172.359 570.482 175.75 598.984 183.192C657.584 198.493 713.905 230.83 755.807 274.682C771.592 291.203 786.427 309.203 798.842 328.416C802.823 334.578 806.196 341.166 809.75 347.582C831.963 387.684 846.073 431.171 850.599 476.85C852.165 492.643 852.205 508.731 851.821 524.591C850.04 598.087 821.038 670.946 774.383 727.457C766.368 737.165 758.204 746.574 749.071 755.26C697.727 804.093 633.019 837.785 562.661 848.308C546.022 850.797 529.2 851.593 512.413 852.373L512.516 838.806C519.076 837.74 526.708 838.175 533.41 837.788C543.481 837.206 553.665 835.772 563.623 834.221C623.579 824.883 681.519 796.31 727.107 756.542C775.74 714.118 811.245 656.929 827.75 594.546C833.289 573.611 836.224 552.155 837.645 530.576C842.54 456.225 820.91 382.92 778.057 322.139C770.641 311.621 762.532 301.91 754.029 292.269C740.734 277.194 725.775 264.216 709.762 252.134C695.392 241.29 680.321 231.261 664.395 222.817C633.327 206.344 598.155 194.892 563.477 189.197C546.414 186.395 529.56 186.194 512.395 185.1L512.497 171.7Z"/>
	<path fill="#111117" transform="scale(0.488281 0.488281)" d="M512.395 185.1C529.56 186.194 546.414 186.395 563.477 189.197C598.155 194.892 633.327 206.344 664.395 222.817C680.321 231.261 695.392 241.29 709.762 252.134C725.775 264.216 740.734 277.194 754.029 292.269C762.532 301.91 770.641 311.621 778.057 322.139C820.91 382.92 842.54 456.225 837.645 530.576C836.224 552.155 833.289 573.611 827.75 594.546C811.245 656.929 775.74 714.118 727.107 756.542C681.519 796.31 623.579 824.883 563.623 834.221C553.665 835.772 543.481 837.206 533.41 837.788C526.708 838.175 519.076 837.74 512.516 838.806L510.75 838.914C427.507 839.315 344.757 805.448 285.131 747.592C222.814 687.125 187.369 604.369 186.023 517.618C185.744 499.627 186.419 481.577 189.003 463.75C198.88 395.62 230.607 332.625 278.456 283.372C324.066 236.424 385.778 203.593 450 191.049C470.374 187.069 491.643 185.388 512.395 185.1Z"/>
	<path fill="#321C13" transform="scale(0.488281 0.488281)" d="M512.085 189.993C537.194 190.298 562.163 192.958 586.601 198.857C644.95 212.942 701.132 244.262 743.083 287.32C754.43 298.967 764.71 312.054 774.056 325.343C780.92 335.103 787.591 345.027 793.366 355.482C820.467 404.548 834.568 460.826 833.763 516.84C832.748 587.5 807.955 656.354 763.772 711.484C753.71 724.039 742.415 735.545 730.89 746.749C718.488 758.806 704.843 768.99 690.5 778.57C647.552 807.255 600.26 825.035 549.007 831.485C537.42 832.943 525.601 834.181 513.92 834.012L512.462 833.987L512.44 820.592C542.3 819.945 572.143 815.755 600.742 807.004C648.139 792.502 694.841 763.973 729.843 728.837C739.523 719.121 748.266 708.65 756.708 697.858C762.18 690.863 767.601 683.918 772.389 676.421C784.469 657.505 793.764 637.563 801.344 616.467C805.752 604.197 809.814 592.007 812.75 579.289C817.762 557.578 819.891 534.289 819.77 512C819.65 489.784 817.776 467.612 813.137 445.857C801.006 388.964 771.224 334.476 729.892 293.588C672.653 236.963 592.81 203.107 512.048 203.518L512.085 189.993Z"/>
	<path fill="#4F624E" transform="scale(0.488281 0.488281)" d="M512.462 833.987C494.931 833.067 477.689 832.365 460.302 829.636C416.892 822.822 373.375 806.187 336.537 782.16C318.571 770.443 302.269 756.881 286.974 741.882C227.228 683.294 191.748 601.709 190.974 517.848C190.822 501.46 191.345 485.011 193.526 468.75C202.614 400.968 233.314 336.274 281.32 287.418C328.604 239.299 390.552 206.478 457.067 194.691C475.131 191.49 493.753 190.154 512.085 189.993L512.048 203.518C495.803 204.098 479.64 205.016 463.579 207.678C396.896 218.728 332.8 252.33 286.588 301.811C242.581 348.931 214.737 410.049 206.876 473.949C204.701 491.629 204.437 509.477 205.099 527.261C208.081 607.367 244.538 685.015 303.271 739.386C360.049 791.947 435.353 820.16 512.44 820.592L512.462 833.987Z"/>
	<path fill="#111117" transform="scale(0.488281 0.488281)" d="M512.048 203.518C592.81 203.107 672.653 236.963 729.892 293.588C771.224 334.476 801.006 388.964 813.137 445.857C817.776 467.612 819.65 489.784 819.77 512C819.891 534.289 817.762 557.578 812.75 579.289C809.814 592.007 805.752 604.197 801.344 616.467C793.764 637.563 784.469 657.505 772.389 676.421C767.601 683.918 762.18 690.863 756.708 697.858C748.266 708.65 739.523 719.121 729.843 728.837C694.841 763.973 648.139 792.502 600.742 807.004C572.143 815.755 542.3 819.945 512.44 820.592C435.353 820.16 360.049 791.947 303.271 739.386C244.538 685.015 208.081 607.367 205.099 527.261C204.437 509.477 204.701 491.629 206.876 473.949C214.737 410.049 242.581 348.931 286.588 301.811C332.8 252.33 396.896 218.728 463.579 207.678C479.64 205.016 495.803 204.098 512.048 203.518Z"/>
	<path fill="#321C13" transform="scale(0.488281 0.488281)" d="M512.1 208.494C590.37 208.451 669.75 240.381 725.22 295.846C745.355 315.978 763.447 339.322 777.183 364.314C784.959 378.462 791.232 393.177 796.803 408.312C802.317 423.292 807.021 438.286 809.992 454C813.66 473.4 815.039 493.695 815.022 513.406C814.96 584.451 789.729 652.351 744.076 706.75C737.99 714.002 731.165 720.785 724.463 727.463C677.194 774.562 612.809 805.562 546.582 813.448C535.956 814.714 525.218 815.863 514.5 815.681L512.51 815.558L512.46 802.056C588.678 801.397 660.957 770.862 715.314 717.384C769.405 664.168 801.454 590.682 802.019 514.648C802.373 466.983 790.876 416.937 767.91 375C753.451 348.596 734.974 325.143 713.842 303.783C662.34 251.723 584.945 221.778 512.127 221.472L512.1 208.494Z"/>
	<path fill="#4F624E" transform="scale(0.488281 0.488281)" d="M512.51 815.558C433.584 815.027 355.292 784.214 299.358 728.152C279.328 708.075 261.118 684.577 247.295 659.785C221.679 613.844 209.467 561.061 209.514 508.644C209.584 431.686 241.471 353.442 296.052 299.087C352.678 242.693 431.876 208.308 512.1 208.494L512.127 221.472C498.706 222.017 485.27 222.651 471.968 224.641C405.66 234.562 344.089 267.142 298.563 316.306C259.51 358.48 233.92 413.326 226.022 470.25C223.413 489.05 222.871 508.339 223.603 527.297C226.512 602.603 261.974 675.38 317.191 726.184C326.689 734.923 336.436 743.332 347.031 750.726C394.963 784.177 454.103 802.131 512.46 802.056L512.51 815.558Z"/>
	<path fill="#111117" transform="scale(0.488281 0.488281)" d="M512.127 221.472C584.945 221.778 662.34 251.723 713.842 303.783C734.974 325.143 753.451 348.596 767.91 375C790.876 416.937 802.373 466.983 802.019 514.648C801.454 590.682 769.405 664.168 715.314 717.384C660.957 770.862 588.678 801.397 512.46 802.056C454.103 802.131 394.963 784.177 347.031 750.726C336.436 743.332 326.689 734.923 317.191 726.184C261.974 675.38 226.512 602.603 223.603 527.297C222.871 508.339 223.413 489.05 226.022 470.25C233.92 413.326 259.51 358.48 298.563 316.306C344.089 267.142 405.66 234.562 471.968 224.641C485.27 222.651 498.706 222.017 512.127 221.472Z"/>
	<path fill="#4F624E" transform="scale(0.488281 0.488281)" d="M512.414 796.931C497.945 795.805 483.605 795.658 469.188 793.503C408.326 784.408 352.817 755.706 309.653 711.956C257.826 659.425 227.493 585.751 228.156 511.886C228.835 436.171 257.163 362.957 311.623 309.625C363.928 258.404 438.496 225.935 512.12 226.523L512.212 239.92C441.187 240.237 370.534 268.985 320.321 319.514C291.038 348.981 267.927 385.924 255.038 425.5C245.345 455.261 241.34 485.988 241.479 517.17C241.785 585.975 272.359 655.754 321.029 704.027C345.34 728.14 375.539 749.609 407.194 762.965C440.115 776.856 476.852 783.271 512.464 783.655L512.414 796.931Z"/>
	<path fill="#321C13" transform="scale(0.488281 0.488281)" d="M512.12 226.523C525.75 227.055 539.372 227.812 552.883 229.814C618.045 239.47 676.536 270.399 721.241 318.721C760.023 360.64 786.033 413.318 794.328 470C797.08 488.806 797.683 508.253 796.936 527.233C794.116 598.839 759.362 671.035 706.776 719.381C662.402 760.177 604.82 789.015 544.564 795.485C534.31 796.586 523.849 797.461 513.526 797.025L512.414 796.931L512.464 783.655C533.387 783.429 554.167 781.537 574.587 776.752C602.659 770.175 629.713 757.792 654 742.431C668.084 733.523 681.543 723.871 693.703 712.429C703.921 702.815 714.227 692.717 723.079 681.807C758.47 638.184 781.701 580.704 783.39 524.285C783.945 505.763 783.396 487.57 780.466 469.25C771.782 414.969 745.836 363.634 708.118 323.724C668.665 281.976 613.889 253.17 557.25 243.724C542.353 241.24 527.289 240.351 512.212 239.92L512.12 226.523Z"/>
	<path fill="#111117" transform="scale(0.488281 0.488281)" d="M512.464 783.655C476.852 783.271 440.115 776.856 407.194 762.965C375.539 749.609 345.34 728.14 321.029 704.027C272.359 655.754 241.785 585.975 241.479 517.17C241.34 485.988 245.345 455.261 255.038 425.5C267.927 385.924 291.038 348.981 320.321 319.514C370.534 268.985 441.187 240.237 512.212 239.92C527.289 240.351 542.353 241.24 557.25 243.724C613.889 253.17 668.665 281.976 708.118 323.724C745.836 363.634 771.782 414.969 780.466 469.25C783.396 487.57 783.945 505.763 783.39 524.285C781.701 580.704 758.47 638.184 723.079 681.807C714.227 692.717 703.921 702.815 693.703 712.429C681.543 723.871 668.084 733.523 654 742.431C629.713 757.792 602.659 770.175 574.587 776.752C554.167 781.537 533.387 783.429 512.464 783.655Z"/>
	<path fill="#4F624E" transform="scale(0.488281 0.488281)" d="M512.402 778.906C502.561 778.074 492.677 778.1 482.849 776.865C462.116 774.259 440.709 770.018 421 762.97C387.68 751.055 355.16 729.938 329.908 705.237C318.464 694.043 307.632 682.386 298.112 669.487C265.327 625.067 246.697 569.817 246.214 514.593C245.602 444.743 272.648 374.775 321.944 324.944C371.899 274.448 441.002 245.171 512.074 244.783L512.116 257.138C509.193 257.148 505.777 256.85 502.927 257.38C438.418 259.374 372.247 289.055 328.133 336.203C281.025 386.551 256.039 453.155 258.602 522.066C260.312 568.054 274.652 613.335 300.107 651.75C312.498 670.45 327.64 687.495 344.091 702.697C375.622 731.835 415.602 751.057 457.312 760.268C475.317 764.243 493.972 766.563 512.431 765.997L512.402 778.906Z"/>
	<path fill="#321C13" transform="scale(0.488281 0.488281)" d="M512.074 244.783C566.515 245.504 617.077 260.925 662.219 291.539C675.582 300.601 688.536 310.629 699.814 322.221C721.639 344.654 740.522 370.897 753.932 399.227C771.279 435.875 779.589 476.706 778.963 517.143C778.162 568.956 760.453 622.205 730.389 664.447C719.986 679.064 707.679 692.602 694.786 705.052C647.287 750.917 580.256 780.243 513.781 778.954L512.402 778.906L512.431 765.997C529.712 765.234 547.031 763.987 564 760.423C611.17 750.515 655.299 726.077 689.36 692.049C700.511 680.908 710.783 669.315 719.859 656.393C749.805 613.761 765.449 562.612 765.452 510.589C765.457 443.244 737.582 378.293 690.083 330.849C650.77 291.584 598.022 266.442 543.019 259.311C529.788 257.596 516.253 257.372 502.927 257.38C505.777 256.85 509.193 257.148 512.116 257.138L512.074 244.783Z"/>
	<path fill="#111117" transform="scale(0.488281 0.488281)" d="M512.431 765.997C493.972 766.563 475.317 764.243 457.312 760.268C415.602 751.057 375.622 731.835 344.091 702.697C327.64 687.495 312.498 670.45 300.107 651.75C274.652 613.335 260.312 568.054 258.602 522.066C256.039 453.155 281.025 386.551 328.133 336.203C372.247 289.055 438.418 259.374 502.927 257.38C516.253 257.372 529.788 257.596 543.019 259.311C598.022 266.442 650.77 291.584 690.083 330.849C737.582 378.293 765.457 443.244 765.452 510.589C765.449 562.612 749.805 613.761 719.859 656.393C710.783 669.315 700.511 680.908 689.36 692.049C655.299 726.077 611.17 750.515 564 760.423C547.031 763.987 529.712 765.234 512.431 765.997Z"/>
	<path fill="#4F624E" transform="scale(0.488281 0.488281)" d="M512.382 761.204L506.433 761.059C466.963 759.825 426.987 749.952 392.29 730.896C380.682 724.521 369.972 717.023 359.529 708.901C350.548 701.915 341.731 694.291 333.943 685.994C322.593 673.902 311.685 660.825 302.653 646.871C274.469 603.331 261.807 552.373 263.518 500.75C265.668 435.903 295.54 372.885 342.731 328.756C377.827 295.939 423.484 273.771 470.765 265.521C484.39 263.143 498.258 261.49 512.118 261.954L512.462 284.446C499.296 284.805 485.939 285.309 472.919 287.385C426.147 294.843 380.374 318.983 347.872 353.366C304.995 398.724 281.998 458.322 284.064 520.764C286.069 581.384 313.79 639.302 357.909 680.567C364.704 686.922 372.375 692.617 380 697.94C417.707 724.259 464.38 739.737 510.608 738.026L512.322 737.95L512.382 761.204Z"/>
	<path fill="#321C13" transform="scale(0.488281 0.488281)" d="M512.118 261.954C521.329 262.266 530.6 262.404 539.756 263.514C599.277 270.73 653.846 298.778 694.697 342.524C738.724 389.672 763.136 455.18 760.779 519.66C758.368 585.64 730.259 648.283 681.905 693.324C647.441 725.427 604.731 747.552 558.5 756.686C543.572 759.635 527.622 761.6 512.382 761.204L512.322 737.95C516.161 737.225 520.584 737.457 524.527 737.153L549.688 734.244C594.726 726.821 636.997 705.285 669.897 673.784C711.266 634.176 737.908 575.333 739.024 517.904C739.8 477.972 730.619 437.425 711.093 402.458C701.124 384.607 688.564 368.451 674.379 353.769C640.011 318.193 593.822 293.757 544.75 286.611C534.012 285.047 523.294 284.627 512.462 284.446L512.118 261.954Z"/>
	<path fill="#111117" transform="scale(0.488281 0.488281)" d="M512.462 284.446C523.294 284.627 534.012 285.047 544.75 286.611C593.822 293.757 640.011 318.193 674.379 353.769C688.564 368.451 701.124 384.607 711.093 402.458C730.619 437.425 739.8 477.972 739.024 517.904C737.908 575.333 711.266 634.176 669.897 673.784C636.997 705.285 594.726 726.821 549.688 734.244L524.527 737.153C520.584 737.457 516.161 737.225 512.322 737.95L510.608 738.026C464.38 739.737 417.707 724.259 380 697.94C372.375 692.617 364.704 686.922 357.909 680.567C313.79 639.302 286.069 581.384 284.064 520.764C281.998 458.322 304.995 398.724 347.872 353.366C380.374 318.983 426.147 294.843 472.919 287.385C485.939 285.309 499.296 284.805 512.462 284.446Z"/>
	<path fill="#F2B135" transform="scale(0.488281 0.488281)" d="M641.502 397.631L662.204 379.377C670.377 389.308 678.147 399.373 684.745 410.438C705.361 445.009 716.296 487.577 712.232 527.831C706.826 581.378 681.699 631.988 639.5 665.961C595.996 700.984 542.637 716.294 487.24 710.326C444.96 705.772 402.182 684.893 372.126 655.088C373.518 652.581 376.348 650.361 378.425 648.374L391.934 635.499L392.364 635.498C394.148 637.666 396.855 639.453 399.036 641.236C407.53 648.181 416.759 654.634 426.406 659.873C437.927 666.13 449.725 671.48 462.302 675.267C495.075 685.137 530.086 684.385 562.75 674.543C605.273 661.732 642.174 631.589 663.039 592.344C689.671 542.253 691.127 479.732 663.001 429.781C659.873 424.226 656.582 418.722 652.92 413.5C651.234 411.096 641.929 399.662 641.615 398.281L641.502 397.631Z"/>
	<path fill="#E54E24" transform="scale(0.488281 0.488281)" d="M372.126 655.088C369.191 653.107 365.915 648.733 363.536 646.033C356.339 637.866 349.376 629.421 343.473 620.259C320.323 584.325 309.561 541.123 312.316 498.517C314.862 459.14 329.738 419.649 353.944 388.399C362.418 377.459 372.162 367.695 382.566 358.597C421.988 324.122 476.626 308.059 528.438 311.724C579.811 315.358 628.488 340.675 662.204 379.377L641.502 397.631L641.085 397.766C630.272 386.987 619.21 377.106 606.5 368.556C578.676 349.838 545.009 339.842 511.504 339.896C466.682 339.967 422.228 357.827 390.6 389.75C356.908 423.756 340.008 468.788 340.434 516.385C340.771 554.177 354.662 590.417 378.1 619.823C382.097 624.838 386.292 630.145 390.907 634.603L391.934 635.499L378.425 648.374C376.348 650.361 373.518 652.581 372.126 655.088Z"/>
	<path fill="#EE8C17" transform="scale(0.488281 0.488281)" d="M641.502 397.631L641.615 398.281C641.929 399.662 651.234 411.096 652.92 413.5C656.582 418.722 659.873 424.226 663.001 429.781C691.127 479.732 689.671 542.253 663.039 592.344C642.174 631.589 605.273 661.732 562.75 674.543C530.086 684.385 495.075 685.137 462.302 675.267C449.725 671.48 437.927 666.13 426.406 659.873C416.759 654.634 407.53 648.181 399.036 641.236C396.855 639.453 394.148 637.666 392.364 635.498C396.367 630.936 401.787 626.991 406.246 622.836L443.491 587.733C461.138 603.34 481.928 611.672 505.294 613.404C532.866 615.447 560.317 605.266 580.931 587.083C600.346 569.959 613.345 545.859 614.923 519.88C616.531 493.396 608.638 465.415 590.78 445.325C594.038 440.906 599.444 436.841 603.482 433.057L630.114 408.131C633.635 404.899 638.24 401.546 641.085 397.766L641.502 397.631Z"/>
	<path fill="#CF3219" transform="scale(0.488281 0.488281)" d="M391.934 635.499L390.907 634.603C386.292 630.145 382.097 624.838 378.1 619.823C354.662 590.417 340.771 554.177 340.434 516.385C340.008 468.788 356.908 423.756 390.6 389.75C422.228 357.827 466.682 339.967 511.504 339.896C545.009 339.842 578.676 349.838 606.5 368.556C619.21 377.106 630.272 386.987 641.085 397.766C638.24 401.546 633.635 404.899 630.114 408.131L603.482 433.057C599.444 436.841 594.038 440.906 590.78 445.325C570.492 423.578 544.706 410.117 514.663 409.099C487.616 408.182 459.766 419.442 440.304 438.038C421.357 456.142 409.571 482.531 409.047 508.75C408.522 535.021 417.818 561.474 436.172 580.485L443.491 587.733L406.246 622.836C401.787 626.991 396.367 630.936 392.364 635.498L391.934 635.499Z"/>
	<path fill="#111117" transform="scale(0.488281 0.488281)" d="M443.491 587.733L436.172 580.485C417.818 561.474 408.522 535.021 409.047 508.75C409.571 482.531 421.357 456.142 440.304 438.038C459.766 419.442 487.616 408.182 514.663 409.099C544.706 410.117 570.492 423.578 590.78 445.325C608.638 465.415 616.531 493.396 614.923 519.88C613.345 545.859 600.346 569.959 580.931 587.083C560.317 605.266 532.866 615.447 505.294 613.404C481.928 611.672 461.138 603.34 443.491 587.733Z"/>
	<path fill="#F7D78E" transform="scale(0.488281 0.488281)" d="M504.111 418.205L504.234 418.171C526.736 415.402 551.212 423.373 569.114 436.847C588.486 451.426 602.429 473.78 605.636 497.982C609.067 523.879 602.933 547.376 587.016 568.162C570.764 589.386 547.287 601.509 521.124 604.929C496.198 607.166 470.888 599.621 451.613 583.498C431.937 567.041 419.894 545.055 417.726 519.395C415.722 495.663 423 470.662 438.495 452.441C455.357 432.612 478.136 420.399 504.111 418.205Z"/>
	<path fill="#FBFBFB" transform="scale(0.488281 0.488281)" d="M510.676 488.667L515.75 489.014C522.088 489.821 528.198 493.767 531.944 498.881C535.25 503.394 536.562 509.72 535.696 515.205L535.565 516C535.006 519.734 533.763 522.931 531.511 526C527.537 531.413 521.968 534.417 515.462 535.549C509.172 535.585 503.517 535.328 498.218 531.434C493.082 527.66 489.393 521.658 488.583 515.3C487.797 509.125 489.557 502.582 493.555 497.75C498.256 492.069 503.441 489.505 510.676 488.667Z"/>
</svg>
