<?xml version="1.0" encoding="utf-8" ?>
<svg xmlns="http://www.w3.org/2000/svg" xmlns:xlink="http://www.w3.org/1999/xlink" width="500" height="500">
	<path fill="#DF3B20" transform="scale(0.488281 0.488281)" d="M-0 -0L1024 0L1024 1024L-0 1024L0 -0Z"/>
	<path fill="#7E1F16" transform="scale(0.488281 0.488281)" d="M880.415 393.476L880.547 423.148C896.847 432.672 909.38 444.606 914.336 463.389C915.911 469.359 915.977 476.001 914.675 482.019L914.475 482.975C912.044 494.183 905.633 503.155 896.5 509.924L552.032 761.945L448.5 836.46L422.925 854.75C415.608 860.011 408.497 865.222 400.38 869.221C383.29 877.642 362.03 879.896 343.278 877.259C332.694 875.77 323.221 872.845 313.747 867.83C306.01 863.733 298.751 858.618 291.371 853.914L241.486 821.582L151.31 763.173L124.359 745.696C121.334 743.545 118.194 740.478 115.981 737.5C112.899 733.351 110.798 728.987 109.41 724L109.176 723.184C106.738 714.195 108.437 703.963 113.102 696C120.168 683.938 133.194 675.473 144.571 667.939C144.274 673.533 143.918 680.034 144.672 685.566C146.064 695.774 150.971 705.404 157.733 713.095C163.522 719.678 170.505 723.836 177.75 728.581L196.672 741.113L246.5 773.933L285.585 800.156C293.336 805.339 300.9 810.938 309.237 815.157C318.082 819.633 327.821 822.29 337.723 822.87C355.455 823.908 373.39 821.332 389.101 812.669C397.609 807.977 405.355 801.835 413.228 796.175L453.95 766.783L538.779 704.686L642.605 628.563L793.349 518.337L833.475 489.25C841.508 483.523 850.439 477.944 857.75 471.351C868.735 461.444 877.401 447.894 879.37 433C881.088 420 879.722 406.568 880.415 393.476Z"/>
	<path fill="#010101" transform="scale(0.488281 0.488281)" d="M144.571 667.939C145.304 660.326 144.656 651.994 144.637 644.3L144.499 595.856L143.983 584.921C143.943 575.542 148.488 565.226 155.146 558.616C161.118 552.688 169.046 547.692 175.863 542.748L211.065 517.183L343.143 421.509L532.081 284.547L593.252 240.737C604.396 232.811 615.514 223.999 627.333 217.144C641.948 208.668 659.159 203.986 676.052 203.992C687.518 203.997 699.524 206.866 709.969 211.558C718.403 215.346 726.323 221.01 734.261 225.766L784.132 255.905L834.241 285.981C845.243 292.617 858.371 299.097 867.48 308.249C872.474 313.268 876.876 318.881 879.004 325.729C881.865 334.937 880.467 346.858 880.458 356.487L880.415 393.476C879.722 406.568 881.088 420 879.37 433C877.401 447.894 868.735 461.444 857.75 471.351C850.439 477.944 841.508 483.523 833.475 489.25L793.349 518.337L642.605 628.563L538.779 704.686L453.95 766.783L413.228 796.175C405.355 801.835 397.609 807.977 389.101 812.669C373.39 821.332 355.455 823.908 337.723 822.87C327.821 822.29 318.082 819.633 309.237 815.157C300.9 810.938 293.336 805.339 285.585 800.156L246.5 773.933L196.672 741.113L177.75 728.581C170.505 723.836 163.522 719.678 157.733 713.095C150.971 705.404 146.064 695.774 144.672 685.566C143.918 680.034 144.274 673.533 144.571 667.939Z"/>
	<path fill="#0E1829" transform="scale(0.488281 0.488281)" d="M876.983 393.467C877.891 397.773 877.679 402.496 877.781 406.9C877.99 415.854 878.341 425.702 876.676 434.513C875.616 440.128 873.807 444.872 871.234 449.996C867.266 457.895 861.609 465.067 854.76 470.675C845.88 477.947 836.124 484.538 826.791 491.232L787.682 519.535L749.431 547.972L690.123 590.932L627.388 637.175L540.305 700.463L514.284 720.158L446.601 768.946L416.717 790.511C403.989 799.728 391.698 809.896 376.561 814.851C355.088 821.88 330.495 822.238 310.036 811.808C300.596 806.996 291.711 800.471 282.833 794.674L224.743 755.787L187.83 731.671C180.248 726.735 171.624 722.14 164.866 716.128C157.58 709.646 152.176 701.976 149.191 692.629C146.58 684.45 146.978 676.145 146.98 667.676C146.981 662.819 146.661 657.73 147.534 652.939C149.677 659.147 151.809 665.029 155.596 670.479C158.982 675.351 163.279 679.749 167.94 683.416C176.376 690.055 185.656 695.277 194.624 701.135L246.344 734.667L274.787 753.169C288.095 762.044 302.441 773.019 317.772 777.987C342.131 785.881 369.435 781.656 391.918 770.071C404.56 763.557 415.216 754.629 426.503 746.117L458.5 722.495L606.245 613.349L779.422 486.304L821.386 455.539C832.194 447.718 843.356 440.182 853.299 431.264C864.788 420.958 872.29 407.973 876.983 393.467Z"/>
	<path fill="#17314E" transform="scale(0.488281 0.488281)" d="M147.534 652.939L147.702 602.217C148.112 602.498 147.936 602.319 148.24 602.877C152.039 609.845 156.27 615.98 162.521 620.992C169.781 626.811 178.255 631.582 186.054 636.668L239.344 670.74L278 695.524C289.496 703.018 300.796 711.31 313.576 716.525C327.555 722.228 344.522 724.999 359.56 723.128C364.874 722.467 370.132 721.779 375.281 720.254C383.879 717.708 392.525 714.076 400.024 709.112C406.617 704.747 412.708 699.502 419.072 694.796L463.547 661.941L598.535 561.905L800.943 412.806L835.842 387.394L858.548 371.308C865.82 365.597 872.568 359.501 877.01 351.278L876.983 393.467C872.29 407.973 864.788 420.958 853.299 431.264C843.356 440.182 832.194 447.718 821.386 455.539L779.422 486.304L606.245 613.349L458.5 722.495L426.503 746.117C415.216 754.629 404.56 763.557 391.918 770.071C369.435 781.656 342.131 785.881 317.772 777.987C302.441 773.019 288.095 762.044 274.787 753.169L246.344 734.667L194.624 701.135C185.656 695.277 176.376 690.055 167.94 683.416C163.279 679.749 158.982 675.351 155.596 670.479C151.809 665.029 149.677 659.147 147.534 652.939Z"/>
	<path fill="#4672A2" transform="scale(0.488281 0.488281)" d="M670.087 208.198C682.815 207.627 694.322 209.37 706.086 214.237C715.843 218.274 724.562 224.629 733.588 230.041L783.758 260.159L829.011 287.372C839.325 293.453 850.89 299.16 860.185 306.696C868.447 313.393 875.906 322.868 876.856 333.797C877.585 342.179 874.455 350.686 869.057 357.033C859.021 368.834 843.794 377.362 831.365 386.542L767 434.017L547.885 595.146L441.721 673.981L417.116 692.08C410.851 696.771 404.814 701.702 398.156 705.848C385.027 714.023 371.442 718.161 356.125 719.494C342.467 719.795 330.058 718.749 317.209 713.776C304.701 708.935 293.799 701.573 282.5 694.518L239.442 667.156L194.085 637.998C184.589 631.909 174.395 626.12 165.532 619.165C156.176 611.824 148.885 599.784 147.617 587.887C146.758 579.828 149.85 570.895 155.037 564.712C161.778 556.677 171.556 550.696 180 544.563L211.106 521.989L334.402 432.784L519.212 298.896L590.438 247.434C602.808 238.636 615.096 229.194 628.073 221.331C640.746 213.653 655.396 209.472 670.087 208.198Z"/>
	<path fill="#010101" transform="scale(0.488281 0.488281)" d="M843.585 303.405C849.389 305.071 854.44 311.591 857.249 316.731C860.471 322.629 861.518 328.094 859.58 334.645C857.729 340.903 853.866 345.921 848.866 350.003C840.722 356.651 831.682 362.416 823.243 368.715L788.225 395.151L753.981 419.898L668.879 483.301L565.236 559.697L433.759 657.395L400.374 682.511C395.003 686.489 389.71 690.904 383.838 694.123C366.206 703.787 342.823 704.058 323.928 698.261C310.514 694.146 298.204 684.032 286.461 676.505L246.168 650.913L196.443 619.343C188.691 614.357 180.393 609.642 173.074 604.055C169.267 601.148 166.269 597.505 164.072 593.266C162.63 590.483 161.826 587.594 161.367 584.5L161.246 583.729C160.299 576.995 162.809 569.707 166.862 564.385C167.983 562.914 169.233 561.402 170.934 560.616C166.146 566.922 162.239 574.803 162.975 582.928C163.657 590.464 167.939 597.705 173.712 602.479C178.769 606.661 185.085 610.001 190.592 613.647L241.429 646.162L290.668 677.419C300.176 683.462 309.636 690.772 320.09 695.084C330.853 699.524 344.528 701.56 356.14 700.263C366.156 699.143 376.589 696.831 385.131 691.26C395.592 684.435 405.52 676.19 415.56 668.709L473.303 625.635L633.017 506.844L681.294 471.575L755.331 416.184L822.303 366.902L837.863 355.512C843.013 351.85 848.628 348.326 852.603 343.325C856.56 338.346 858.805 331.483 857.99 325.141C856.801 315.879 850.541 309.001 843.585 303.405Z"/>
	<defs>
		<linearGradient id="gradient_0" gradientUnits="userSpaceOnUse" x1="570.76318" y1="625.76978" x2="452.2027" y2="289.80096">
			<stop offset="0" stop-color="#B1B6A4"/>
			<stop offset="1" stop-color="#E4E6D7"/>
		</linearGradient>
	</defs>
	<path fill="url(#gradient_0)" transform="scale(0.488281 0.488281)" d="M170.934 560.616L170.995 560.649C181.07 552.146 192.296 544.881 203.034 537.253L244.073 507.736L353.5 428.961L430.886 372.926L478.934 338.598L594.34 254.829L619.471 237.382C630.244 229.932 640.251 222.462 652.927 218.436C667.163 213.915 682.691 213.567 697.048 217.796C712.828 222.445 726.627 232.878 740.596 241.297L808.621 282.443C820.039 289.344 831.276 297.078 843.144 303.182L843.585 303.405C850.541 309.001 856.801 315.879 857.99 325.141C858.805 331.483 856.56 338.346 852.603 343.325C848.628 348.326 843.013 351.85 837.863 355.512L822.303 366.902L755.331 416.184L681.294 471.575L633.017 506.844L473.303 625.635L415.56 668.709C405.52 676.19 395.592 684.435 385.131 691.26C376.589 696.831 366.156 699.143 356.14 700.263C344.528 701.56 330.853 699.524 320.09 695.084C309.636 690.772 300.176 683.462 290.668 677.419L241.429 646.162L190.592 613.647C185.085 610.001 178.769 606.661 173.712 602.479C167.939 597.705 163.657 590.464 162.975 582.928C162.239 574.803 166.146 566.922 170.934 560.616Z"/>
	<path fill="#010101" transform="scale(0.488281 0.488281)" d="M487.107 345.88C489.094 344.317 491.151 342.353 493.41 341.236C500.347 345.446 508.975 349.639 514.443 355.687C510.044 360.84 503.544 365.205 498 369.078C496.217 370.323 494.134 372.114 492.053 372.767L474.031 361.68C472.885 361.017 472.345 360.328 471.592 359.25L471.609 357.75C474.686 354.743 478.428 352.195 481.897 349.651C481.018 352.288 475.296 355.524 473.015 357.882L491.709 370.382L512.417 354.922C507.318 349.739 499.304 346.012 493.079 342.311C491.618 343.418 489.462 345.511 487.677 345.851L487.107 345.88Z"/>
	<path fill="#DF3B20" transform="scale(0.488281 0.488281)" d="M487.107 345.88L487.677 345.851C489.462 345.511 491.618 343.418 493.079 342.311C499.304 346.012 507.318 349.739 512.417 354.922L491.709 370.382L473.015 357.882C475.296 355.524 481.018 352.288 481.897 349.651L487.107 345.88Z"/>
	<path fill="#010101" transform="scale(0.488281 0.488281)" d="M270.949 519.563C274.072 519.411 276.665 519.677 279.601 520.832C285.669 523.219 291.375 527.847 296.931 531.284L320.991 545.298C324.054 547.034 330.653 550.473 331.515 554.209L331.618 554.75C331.969 556.517 332.032 558.002 331.742 559.79L331.617 560.5C331.484 561.308 331.374 562.028 330.949 562.75C327.373 568.818 319.015 573.199 312.542 575.117C308.773 575.76 304.505 575.907 300.806 574.843L300 574.596L298.008 573.911C294.618 572.394 291.388 570.097 288.209 568.164L272.187 558.545C266.662 555.238 259.6 552.216 254.807 548.024C253.355 546.754 252.382 544.974 251.74 543.176C250.68 540.204 250.155 535.202 251.742 532.308C254.918 526.519 264.802 521.511 270.949 519.563Z"/>
	<path fill="#506F7D" transform="scale(0.488281 0.488281)" d="M257.49 528.185C261.921 524.811 268.092 520.044 274 520.845C276.358 521.164 278.738 521.841 280.873 522.899C288.817 526.837 296.533 532.416 304.189 536.96C311.428 541.258 319.958 544.999 326.521 550.222C322.827 552.732 316.28 556.054 311.913 556.857C309.777 557.249 306.084 557.433 304.028 556.691C301.091 555.632 298.374 553.775 295.725 552.152L280.619 542.584C272.867 537.753 264.904 533.566 257.49 528.185Z"/>
	<path fill="#314A5A" transform="scale(0.488281 0.488281)" d="M326.521 550.222C327.514 551.202 328.539 552.356 328.884 553.75C329.423 555.922 328.879 557.894 327.592 559.649C323.703 564.954 315.77 569.511 309.356 570.313C306.028 570.728 302.66 570.404 299.504 569.256C296.483 568.157 293.603 566.238 290.849 564.6L277.469 556.602C270.889 552.694 262.774 549.038 256.964 544.065C254.739 542.16 253.891 539.491 253.667 536.654C253.374 532.942 255.158 530.854 257.49 528.185C264.904 533.566 272.867 537.753 280.619 542.584L295.725 552.152C298.374 553.775 301.091 555.632 304.028 556.691C306.084 557.433 309.777 557.249 311.913 556.857C316.28 556.054 322.827 552.732 326.521 550.222Z"/>
	<path fill="#010101" transform="scale(0.488281 0.488281)" d="M363.722 451.139C365.962 451.092 368.379 451.319 370.454 452.2C376.24 454.654 381.946 459.043 387.327 462.343C396.752 468.124 406.759 473.612 415.75 480.032C418.736 482.164 420.922 484.617 421.405 488.378C421.789 491.368 420.349 494.107 418.589 496.405C413.436 503.135 405.639 506.99 397.424 508.058L391.733 507.421C386.907 506.502 382.378 503.42 378.184 500.971L358.267 489.013C353.635 486.227 348.523 483.745 344.124 480.639C342.504 479.496 340.869 478.166 339.808 476.462C337.997 473.555 339.387 468.612 340.241 465.568L350.438 458.429C354.784 455.379 358.489 452.496 363.722 451.139Z"/>
	<path fill="#314A5A" transform="scale(0.488281 0.488281)" d="M417.192 482.946C417.811 484.148 418.389 485.263 418.397 486.648C418.414 489.294 416.653 491.987 414.916 493.844C410.164 498.922 402.002 503.642 394.989 503.483C392.4 503.424 389.682 502.503 387.372 501.406C380.094 497.95 373.07 493.043 366.133 488.897C358.579 484.383 348.684 480.27 342.682 473.931C342.596 472.237 342.448 470.491 342.67 468.804C343.077 465.719 345.014 464.098 347.401 462.263L376.257 479.926C382.328 483.71 388.427 488.475 395.5 490.115L396.02 490.241C401.527 491.46 408.681 489.714 413.376 486.75C415.07 485.681 416.195 484.677 417.192 482.946Z"/>
	<path fill="#506F7D" transform="scale(0.488281 0.488281)" d="M347.401 462.263C352.229 458.605 360.072 451.665 366.559 452.552C369.351 452.934 372.281 454.812 374.678 456.256L386.046 463.242C396.504 469.626 407.441 475.53 417.192 482.946C416.195 484.677 415.07 485.681 413.376 486.75C408.681 489.714 401.527 491.46 396.02 490.241L395.5 490.115C388.427 488.475 382.328 483.71 376.257 479.926L347.401 462.263Z"/>
	<path fill="#010101" transform="scale(0.488281 0.488281)" d="M317.985 484.556C319.694 484.462 321.766 484.188 323.395 484.805C328.299 486.663 332.89 490.204 337.407 492.888L368.726 511.862C371.839 513.928 375.263 516.549 375.874 520.5C376.392 523.849 376.075 527.061 373.866 529.75C368.396 536.406 359.866 541.473 351.298 542.203C347.335 541.664 344.224 541.064 340.629 539.215C333.72 535.662 327.237 531.119 320.492 527.242C312.803 522.823 303.854 518.915 296.939 513.434C295.192 512.05 293.693 510.506 293.082 508.306C292.356 505.695 292.303 502.135 293.719 499.733C295.506 496.701 298.934 495.248 301.75 493.41C307.395 489.726 311.366 486.522 317.985 484.556Z"/>
	<path fill="#314A5A" transform="scale(0.488281 0.488281)" d="M372.071 516.479C373.123 517.822 373.065 519.532 373.024 521.172C372.944 524.439 370.685 526.813 368.364 528.858C363.05 533.541 355.667 537.746 348.389 537.077C343.323 536.611 337.863 532.915 333.567 530.366L318.061 521.25L303.402 512.731C301.233 511.401 298.365 509.874 296.885 507.773C295.544 505.869 295.405 503.197 295.981 501C296.584 498.695 299.623 496.565 301.542 495.296C309.09 500.851 317.755 505.246 325.797 510.061C333.041 514.398 340.371 520.196 348.218 523.255C350.817 524.268 354.536 524.304 357.286 523.842C360.843 523.245 369.289 520.02 371.684 517.161L372.071 516.479Z"/>
	<path fill="#506F7D" transform="scale(0.488281 0.488281)" d="M301.542 495.296C307.364 490.889 312.326 486.997 319.707 485.657L320.519 485.504C324.472 485.29 352.486 503.564 357.764 506.772C362.04 509.369 367.978 512.013 371.436 515.576C371.795 515.946 371.847 516.083 372.071 516.479L371.684 517.161C369.289 520.02 360.843 523.245 357.286 523.842C354.536 524.304 350.817 524.268 348.218 523.255C340.371 520.196 333.041 514.398 325.797 510.061C317.755 505.246 309.09 500.851 301.542 495.296Z"/>
	<path fill="#010101" transform="scale(0.488281 0.488281)" d="M415.76 542.584C418.797 542.43 421.31 542.895 424.139 544.02C427.514 545.362 430.714 547.469 433.828 549.321L448.942 558.328C455.475 562.228 463.576 565.965 469.272 570.922C471.784 573.109 473.341 575.097 473.552 578.5C473.883 583.849 473.267 587.43 469.548 591.523C464.245 597.36 456.547 598.713 449.085 599.134C445.832 598.998 442.574 598.73 439.451 597.739C436.347 596.754 433.402 594.39 430.656 592.63L416.884 584.137C410.553 580.353 403.394 577.059 397.417 572.771C395.431 571.345 393.184 569.481 392.117 567.25C390.76 564.413 390.9 561.069 392.147 558.222C394.256 553.408 410.551 544.501 415.76 542.584Z"/>
	<path fill="#314A5A" transform="scale(0.488281 0.488281)" d="M469.829 573.412C470.926 575.338 471.15 576.697 471.082 578.906C470.974 582.422 469.305 585.566 466.727 587.932C461.402 592.819 454.226 594.936 447.106 594.669C444.271 594.563 441.771 594.036 439.172 592.837C432.949 589.966 427.08 585.821 421.158 582.352L407.04 574.138C403.352 572.029 398.875 569.902 396.083 566.649C394.469 564.768 393.723 562.748 394.028 560.25C394.422 557.024 397.933 554.526 400.4 552.775C409.059 561.001 421.338 566.861 431.527 573.104C436.278 576.015 441.122 579.867 446.25 581.984C447.948 582.686 449.547 582.951 451.382 582.913C457.637 582.782 464.197 580.047 468.403 575.378C468.963 574.756 469.414 574.138 469.829 573.412Z"/>
	<path fill="#506F7D" transform="scale(0.488281 0.488281)" d="M400.4 552.775C405.505 549.205 412.984 542.789 419.523 544.012C426.686 545.352 434.509 551.539 440.761 555.208C450.34 560.829 461.544 566.024 469.829 573.412C469.414 574.138 468.963 574.756 468.403 575.378C464.197 580.047 457.637 582.782 451.382 582.913C449.547 582.951 447.948 582.686 446.25 581.984C441.122 579.867 436.278 576.015 431.527 573.104C421.338 566.861 409.059 561.001 400.4 552.775Z"/>
	<path fill="#010101" transform="scale(0.488281 0.488281)" d="M462.102 509.114C464.898 509.157 467.049 509.561 469.632 510.651C478.051 514.204 486.422 520.224 494.296 524.959C501.014 528.999 509.285 532.935 515.143 538.047C517.492 540.097 518.24 543.428 518.398 546.429C518.543 549.184 517.688 551.425 515.859 553.455C509.15 560.905 501.141 565.16 491.125 565.74C488.365 565.907 485.285 565.55 482.839 564.213L453.149 546.478C448.343 543.536 442.719 540.694 438.395 537.132C436.977 535.963 435.6 534.259 435.162 532.434C434.554 529.9 435.164 526.066 436.617 523.866C437.99 521.788 440.794 520.207 442.821 518.823C448.949 514.637 454.614 510.376 462.102 509.114Z"/>
	<path fill="#314A5A" transform="scale(0.488281 0.488281)" d="M512.494 537.865L513.161 538.432C514.682 539.805 514.929 542.302 514.9 544.25C514.855 547.204 512.97 549.054 510.98 551.013C504.853 557.047 497.077 561.824 488.25 561.496C486.552 561.433 485.026 560.755 483.529 560.002C478.666 557.553 474.143 554.427 469.446 551.683L448.038 539.062C445.569 537.578 440.761 535.194 439.144 532.811C437.713 530.704 438.08 528.706 438.56 526.353C439.108 523.664 440.721 522.127 442.936 520.667C453.406 526.23 463.434 533.103 473.597 539.25C478.515 542.224 483.338 545.502 488.75 547.5L489.493 547.779C492.975 548.975 498.288 546.381 501.354 544.75C504.828 542.901 509.739 540.652 512.494 537.865Z"/>
	<path fill="#506F7D" transform="scale(0.488281 0.488281)" d="M442.936 520.667C448.804 516.58 457.163 509.232 464.75 510.609C467.683 511.141 470.909 512.951 473.511 514.376L488.263 523.009C496.362 527.861 504.728 532.501 512.494 537.865C509.739 540.652 504.828 542.901 501.354 544.75C498.288 546.381 492.975 548.975 489.493 547.779L488.75 547.5C483.338 545.502 478.515 542.224 473.597 539.25C463.434 533.103 453.406 526.23 442.936 520.667Z"/>
	<path fill="#010101" transform="scale(0.488281 0.488281)" d="M512.579 472.65C519.813 471.415 525.13 474.78 531.14 478.199L544.285 485.655C552.242 489.962 562.113 493.408 564.622 503.013C565.437 506.136 565.315 510.531 563.414 513.25C561.856 515.478 559.397 517.315 557.317 519.043C551.331 524.015 546.494 527.701 538.619 528.905C535.97 529.023 533.319 529.161 530.701 528.638C526.771 527.852 523.184 525.531 519.812 523.475L507.794 516.134C502.453 512.933 496.229 509.892 491.36 506.051C489.884 504.888 488.311 503.492 487.382 501.833C485.713 498.85 486.518 493.652 487.602 490.551C489.151 486.123 494.219 484.525 497.778 482.044C502.65 478.646 507.175 475.197 512.579 472.65Z"/>
	<path fill="#4672A2" transform="scale(0.488281 0.488281)" d="M560.056 497.374L561.243 500.75C561.926 503.282 562.147 506.858 560.654 509.156C556.766 515.142 545.713 523.07 538.68 524.356C536.286 524.794 533.257 524.779 530.922 524.097C522.91 521.754 515.696 516.075 508.706 511.684C503.819 508.614 498.677 505.814 494.023 502.399C491.694 500.69 489.958 498.997 489.617 496C489.093 491.399 489.429 490.252 492.447 486.771C497.78 492.372 506.051 495.907 512.726 499.755C518.283 502.959 523.868 506.86 529.835 509.258C532.472 510.317 535.406 510.783 538.239 510.852C544.78 511.01 551.909 506.397 556.45 501.973C557.926 500.536 559.058 499.187 560.056 497.374Z"/>
	<path fill="#1CBFF9" transform="scale(0.488281 0.488281)" d="M492.447 486.771C496.396 483.642 500.574 481.004 504.78 478.25C507.473 476.487 509.982 474.644 513 473.48L513.636 473.213C516.483 472.115 520.628 473.716 523.25 474.951C529.277 477.792 534.978 481.591 540.753 484.907L553.721 492.258C556.158 493.695 558.572 494.867 560.056 497.374C559.058 499.187 557.926 500.536 556.45 501.973C551.909 506.397 544.78 511.01 538.239 510.852C535.406 510.783 532.472 510.317 529.835 509.258C523.868 506.86 518.283 502.959 512.726 499.755C506.051 495.907 497.78 492.372 492.447 486.771Z"/>
	<path fill="#010101" transform="scale(0.488281 0.488281)" d="M415.935 415.618C418.275 415.516 420.448 415.394 422.685 416.242C429.424 418.795 435.82 423.802 441.969 427.595C448.538 431.646 455.501 435.417 461.825 439.816C464.696 441.813 467.001 444.941 467.468 448.5C467.914 451.898 467.675 455.34 465.516 458.128C463.675 460.503 461.015 462.35 458.643 464.155C452.815 468.59 448.418 471.979 441.002 472.992C436.907 472.751 433.18 472.315 429.352 470.713C420.757 467.118 412.522 461.225 404.546 456.397C400.542 453.974 395.444 451.609 391.922 448.59C390.582 447.442 389.806 445.722 389.185 444.107C388.183 441.499 388.009 436.903 389.172 434.33L389.455 433.75L390.38 431.905C392.439 428.52 396.52 426.553 399.75 424.437C405.038 420.973 409.613 416.971 415.935 415.618Z"/>
	<path fill="#4672A2" transform="scale(0.488281 0.488281)" d="M463.318 442.817L463.425 443.126L464.164 445.112C464.939 447.792 464.749 450.955 463.279 453.341C459.913 458.806 449.108 466.29 442.84 467.75C439.816 468.454 436.752 468.476 433.766 467.595C427.639 465.788 421.782 461.62 416.35 458.282L401 449.041C396.88 446.451 393.07 444.117 391.992 439.036C391.243 435.509 391.416 433.361 393.391 430.277C398.622 435.112 405.037 438.442 411.111 442.103C418.062 446.293 425.65 451.542 433.503 453.789C436.255 454.576 439.06 454.583 441.896 454.457C448.952 454.144 455.94 451.375 460.737 446.117L463.318 442.817Z"/>
	<path fill="#1CBFF9" transform="scale(0.488281 0.488281)" d="M393.391 430.277C396.565 427.435 399.947 425.342 403.5 423.023C408.593 419.698 412.472 416.134 418.92 416.441C420.817 416.532 422.234 416.975 423.964 417.75L424.631 418.036C430.4 420.596 435.946 424.913 441.325 428.269L455.65 437.105C458.288 438.753 461.378 440.342 463.318 442.817L460.737 446.117C455.94 451.375 448.952 454.144 441.896 454.457C439.06 454.583 436.255 454.576 433.503 453.789C425.65 451.542 418.062 446.293 411.111 442.103C405.037 438.442 398.622 435.112 393.391 430.277Z"/>
	<path fill="#010101" transform="scale(0.488281 0.488281)" d="M374.191 576.074C378.918 575.329 383.106 576.23 387.25 578.57L403.596 588.612C410.269 592.596 418.247 596.33 424.087 601.431C425.778 602.908 427.73 604.955 428.222 607.209C429.147 611.448 428.881 617.618 426.379 621.285C421.47 628.48 409.646 632.968 401.367 634.349C398.353 634.736 394.699 634.732 391.791 633.814L391 633.547L388.873 632.813C380.332 629.129 372.189 623.349 364.148 618.628C360.24 616.334 355.446 614.332 352 611.437C350.356 610.055 349.013 608.162 348.285 606.136C347.02 602.614 346.98 596.656 348.637 593.25C350.879 588.64 355.815 586.23 360.002 583.642C364.602 580.798 369.04 577.826 374.191 576.074Z"/>
	<path fill="#7E1F16" transform="scale(0.488281 0.488281)" d="M423.594 603.463L423.89 604.24C424.926 607.198 425.36 612.462 423.844 615.236L423.544 615.75C421.084 620.078 415.323 623.968 411.02 626.319C405.083 629.564 397.696 630.874 391.118 628.814C387.293 627.617 384.03 625.407 380.632 623.345L366.614 614.848C362.521 612.404 358.016 610.333 354.158 607.544C352.989 606.699 351.564 605.547 351.03 604.155C349.429 599.982 350.313 595.015 352.502 591.305C359.925 597.28 368.705 601.795 376.867 606.714C381.634 609.587 386.557 613.343 391.751 615.29C395.09 616.542 398.934 616.947 402.481 616.474C405.298 616.099 421.454 606.383 423.188 604.162L423.594 603.463Z"/>
	<path fill="#DF3B20" transform="scale(0.488281 0.488281)" d="M352.502 591.305C356.11 587.371 360.592 584.958 365.142 582.27C368.97 580.009 372.692 577.483 377.276 577.247C379.807 577.117 382.455 577.718 384.747 578.783C390.928 581.653 396.946 586.398 402.81 589.949C408.938 593.66 417.212 596.905 422.369 601.75C422.907 602.256 423.265 602.803 423.594 603.463L423.188 604.162C421.454 606.383 405.298 616.099 402.481 616.474C398.934 616.947 395.09 616.542 391.751 615.29C386.557 613.343 381.634 609.587 376.867 606.714C368.705 601.795 359.925 597.28 352.502 591.305Z"/>
	<path fill="#010101" transform="scale(0.488281 0.488281)" d="M463.134 375.412L634.252 479.956L602.497 502.594C601.773 503.022 601.023 503.316 600.25 503.641C597.511 502.658 594.987 500.897 592.502 499.391L578.686 490.77L548.641 472.183L456.226 416.1L441.255 407.266C438.971 405.918 435.784 404.453 433.914 402.584C432.658 401.328 432.999 399.388 433.077 397.75C433.309 397.183 433.488 396.682 433.948 396.25C437.095 393.293 441.869 390.881 445.481 388.374L463.134 375.412Z"/>
	<path fill="#314A5A" transform="scale(0.488281 0.488281)" d="M446.258 389.7C448.811 392.02 451.851 393.666 454.741 395.524L471.2 405.661L513.284 431.552L567.494 465.061C577.979 471.603 588.982 480.198 600.616 484.407C607.295 482.316 614.143 477.85 619.517 473.351C622.638 475.055 625.62 477.483 628.545 479.529L600.523 500.015L434.664 397.808L446.258 389.7Z"/>
	<path fill="#506F7D" transform="scale(0.488281 0.488281)" d="M446.258 389.7L463.696 377.406L619.517 473.351C614.143 477.85 607.295 482.316 600.616 484.407C588.982 480.198 577.979 471.603 567.494 465.061L513.284 431.552L471.2 405.661L454.741 395.524C451.851 393.666 448.811 392.02 446.258 389.7Z"/>
	<path fill="#010101" transform="scale(0.488281 0.488281)" d="M626.321 270.71L626.418 270.682C639.256 269.63 652.347 270.762 665 272.938C688.409 276.964 711.521 285.322 730.103 300.478C746.004 313.449 757.778 330.245 759.779 351.028C761.519 369.094 755.174 386.311 743.503 400C722.719 424.377 686.362 435.03 655.484 437.664L654.929 437.744C648.757 438.463 642.185 438.283 635.979 438.158C606.465 437.564 573.957 429.332 550.649 410.479C535.548 398.266 524.444 381.276 522.517 361.638C520.622 342.323 525.247 324.661 537.807 309.68C559.485 283.823 593.906 273.551 626.321 270.71Z"/>
	<path fill="#17314E" transform="scale(0.488281 0.488281)" d="M754.438 343.334L756.25 344.755C759.138 354.968 757.579 367.164 754.16 377.098L753.868 377.96C746.896 398.133 729.064 412.609 710.375 421.567C704.2 424.527 697.392 426.474 690.829 428.367C657.902 437.868 620.135 438.956 587.549 427.354C563.757 418.882 542.428 405.313 531.563 381.627C529.342 376.785 527.659 371.72 526.584 366.5C526.241 364.832 525.778 362.348 526.263 360.682C526.457 360.013 526.544 359.957 526.888 359.463C527.879 362.091 528.504 364.796 529.642 367.389C532.956 374.939 537.75 381.641 543.52 387.508C567.46 411.848 606.497 421.45 639.676 421.523C656.813 421.56 673.161 419.044 689.662 414.412C707.394 409.435 724.164 402.26 737.37 388.966C744.865 381.422 751.041 370.645 753.203 360.18C754.367 354.546 754.431 349.055 754.438 343.334Z"/>
	<path fill="#4672A2" transform="scale(0.488281 0.488281)" d="M526.888 359.463L526.307 356.67C523.661 341.517 527.468 327.692 536.315 315.244C553.414 291.188 582.88 278.579 611.221 273.932C647.855 267.926 692.349 275.268 722.791 297.403C733.511 305.197 744.871 315.707 750.395 328C752.639 332.994 753.605 337.956 754.438 343.334C754.431 349.055 754.367 354.546 753.203 360.18C751.041 370.645 744.865 381.422 737.37 388.966C724.164 402.26 707.394 409.435 689.662 414.412C673.161 419.044 656.813 421.56 639.676 421.523C606.497 421.45 567.46 411.848 543.52 387.508C537.75 381.641 532.956 374.939 529.642 367.389C528.504 364.796 527.879 362.091 526.888 359.463Z"/>
	<path fill="#010101" transform="scale(0.488281 0.488281)" d="M668.561 393.031C670.886 392.888 673.329 393.042 675.503 393.952C678.294 395.119 681.138 397.313 682.285 400.193C683.265 402.656 683.189 405.132 681.968 407.498C680.162 411 677.015 412.49 673.408 413.506C670.384 413.594 667.746 413.415 664.925 412.137C662.1 410.857 659.96 408.675 659.03 405.689C658.282 403.287 658.744 400.362 660.106 398.25C662.028 395.272 665.301 393.936 668.561 393.031Z"/>
	<path fill="#ECEFED" transform="scale(0.488281 0.488281)" d="M668.18 394.055C670.485 393.904 672.824 393.971 674.985 394.89C677.351 395.897 679.852 398.015 680.75 400.486C681.247 401.855 681.197 403.177 680.586 404.5C679.109 407.703 676.152 408.776 673.054 409.788C671.181 409.92 668.871 409.773 667.07 409.207C664.586 408.426 661.603 406.562 660.478 404.128C659.869 402.811 659.756 401.089 660.403 399.765C661.95 396.601 665.071 395.18 668.18 394.055Z"/>
	<path fill="#010101" transform="scale(0.488281 0.488281)" d="M697.572 305.555C700.658 305.599 703.04 306.141 705.775 307.611C708.511 309.082 711.011 311.988 711.832 315.021C712.351 316.936 712.068 318.917 710.983 320.571C708.805 323.891 705.37 325.101 701.694 325.925C698.512 326.017 695.283 325.411 692.444 323.95C689.945 322.665 688.169 320.516 687.363 317.822C686.761 315.81 686.916 313.317 688.028 311.5C690.243 307.883 693.702 306.638 697.572 305.555Z"/>
	<path fill="#ECEFED" transform="scale(0.488281 0.488281)" d="M697.253 306.579C699.836 306.629 702.092 306.828 704.489 307.891C706.558 308.808 708.967 311.189 709.684 313.383C710.126 314.735 710.163 315.974 709.473 317.25C707.84 320.27 704.538 321.237 701.497 322.17C699.107 322.138 696.763 322.153 694.491 321.297C692.086 320.391 689.404 318.773 688.421 316.276C687.905 314.967 688.046 313.592 688.67 312.349C690.336 309.027 693.951 307.606 697.253 306.579Z"/>
	<path fill="#010101" transform="scale(0.488281 0.488281)" d="M719.938 352.077C722.682 351.966 725.412 351.761 727.999 352.876C730.919 354.134 734.18 357.259 735.242 360.329C735.894 362.213 735.601 364.631 734.617 366.349C732.69 369.713 729.908 371.003 726.315 371.976C723.229 372.396 720.302 372.291 717.409 371.041C714.629 369.839 711.953 367.301 710.941 364.399C710.006 361.72 710.732 359.548 712.083 357.182C713.788 354.197 716.754 352.937 719.938 352.077Z"/>
	<path fill="#ECEFED" transform="scale(0.488281 0.488281)" d="M719.076 353.088C722.39 352.812 725.878 352.701 728.892 354.306C730.833 355.34 732.484 357.127 733.126 359.25C733.637 360.942 733.603 362.456 732.724 364.024C731.197 366.751 728.742 367.654 725.886 368.469C723.437 368.546 721.155 368.603 718.797 367.845C716.056 366.963 713.383 365.025 712.163 362.344C711.515 360.917 711.439 359.897 712.123 358.449C713.542 355.441 716.167 354.237 719.076 353.088Z"/>
	<path fill="#010101" transform="scale(0.488281 0.488281)" d="M588.508 382.077C590.932 381.985 593.126 381.935 595.465 382.745C598.877 383.927 601.889 386.953 603.292 390.263C603.976 391.875 603.85 394.239 603.125 395.838C601.475 399.476 597.934 401.02 594.453 402.344C591.241 402.584 588.463 402.537 585.46 401.136C582.683 399.841 579.996 397.441 579.07 394.433C578.379 392.188 578.675 389.504 579.865 387.476C581.709 384.336 585.12 382.887 588.508 382.077Z"/>
	<path fill="#ECEFED" transform="scale(0.488281 0.488281)" d="M588.224 383.077C590.822 382.907 593.649 383 596.027 384.191C598.187 385.272 600.461 387.248 601.041 389.687C601.413 391.247 601.097 392.67 600.257 394.009C598.572 396.696 595.724 397.67 592.804 398.392C590.37 398.521 588.047 398.526 585.75 397.591C583.68 396.749 581.106 394.914 580.287 392.75C579.762 391.364 579.933 389.541 580.645 388.25C582.348 385.162 584.996 384.004 588.224 383.077Z"/>
	<path fill="#010101" transform="scale(0.488281 0.488281)" d="M557.454 337.164C559.917 336.903 562.454 337.097 564.724 338.167C567.856 339.643 570.414 342.108 571.394 345.5C571.995 347.578 572.257 349.865 571.135 351.814C569.073 355.393 565.052 356.675 561.282 357.504C558.352 357.549 555.03 357.014 552.5 355.444C549.764 353.746 547.367 350.995 546.763 347.75C546.417 345.893 546.849 343.991 547.91 342.437C550.103 339.224 553.8 337.903 557.454 337.164Z"/>
	<path fill="#ECEFED" transform="scale(0.488281 0.488281)" d="M556.164 338.057C558.922 337.965 561.437 337.773 564 339.013C566.526 340.235 568.947 342.524 569.797 345.249C570.253 346.711 569.986 348.004 569.188 349.264C567.475 351.97 564.524 352.72 561.632 353.479C559.731 353.535 557.719 353.687 555.861 353.214C553.183 352.533 550.368 351.413 549.047 348.803C548.111 346.951 547.875 345.264 548.75 343.351C550.087 340.431 553.383 339.124 556.164 338.057Z"/>
	<path fill="#010101" transform="scale(0.488281 0.488281)" d="M614.776 290.622C617.548 290.429 620.138 290.479 622.696 291.701C625.812 293.19 629.338 296.219 630.314 299.634C630.996 302.018 630.309 304.875 629.007 306.925C627.098 309.932 624.072 310.792 620.796 311.512C617.73 311.466 614.842 311.133 612 309.936C608.784 308.581 606.27 306.281 605.084 302.941C604.34 300.847 604.571 298.308 605.651 296.359C607.472 293.075 611.439 291.746 614.776 290.622Z"/>
	<path fill="#ECEFED" transform="scale(0.488281 0.488281)" d="M614.781 291.587C617.254 291.449 619.64 291.364 621.962 292.37C624.326 293.395 627.018 295.594 627.812 298.135C628.239 299.504 628.113 301.226 627.444 302.5C625.963 305.325 623.333 306.261 620.447 307.094L619.577 307.097C617.078 307.125 614.91 307.164 612.52 306.236C610.18 305.326 607.812 303.424 606.828 301.061C606.287 299.762 606.258 298.042 606.859 296.753C608.33 293.597 611.74 292.54 614.781 291.587Z"/>
	<path fill="#010101" transform="scale(0.488281 0.488281)" d="M636.332 314.211C649.037 313.617 661.14 315.795 671.595 323.367C678.885 328.647 686.212 338.279 687.454 347.398C688.356 354.018 686.173 360.573 682.139 365.811C674.728 375.434 661.659 379.337 650.121 380.912C635.702 382.239 620.636 380.297 608.801 371.285C603.093 366.938 598.355 360.383 597.567 353.097C596.668 344.79 599.402 335.473 604.803 329.062C612.755 319.623 624.298 315.228 636.332 314.211Z"/>
	<path fill="#9D4D0F" transform="scale(0.488281 0.488281)" d="M682.1 340.765C683.316 348.577 683.312 355.117 678.435 361.75C672.293 370.101 661.697 374.426 651.714 375.761C638.084 377.584 623.634 375.702 612.507 367.02C607.296 362.954 603.123 356.897 602.214 350.23C602.127 349.594 602.181 349.117 602.257 348.485C604.948 352.615 607.278 356.09 611.259 359.094C621.562 366.867 636.433 369.943 649.12 368.174C658.777 366.828 667.878 363.831 674.958 356.792C679.67 352.108 682.129 347.518 682.1 340.765Z"/>
	<path fill="#F1CC28" transform="scale(0.488281 0.488281)" d="M602.257 348.485C601.002 343.116 601.274 337.839 604.036 332.917C608.639 324.717 617.417 319.516 626.274 317.094C639.456 313.489 655.785 315.118 667.621 322.114C675.149 326.564 679.903 332.227 682.1 340.765C682.129 347.518 679.67 352.108 674.958 356.792C667.878 363.831 658.777 366.828 649.12 368.174C636.433 369.943 621.562 366.867 611.259 359.094C607.278 356.09 604.948 352.615 602.257 348.485Z"/>
	<path fill="#ECEFED" transform="scale(0.488281 0.488281)" d="M637.994 332.143C640.399 331.828 643.437 331.581 645.817 332.196C648.009 332.763 650.045 334.211 651.084 336.25C651.765 337.585 651.992 338.797 651.528 340.25C650.526 343.388 648.469 344.381 645.632 345.671C642.922 346.003 640.035 346.043 637.407 345.175C635.232 344.457 632.857 342.563 632.028 340.369C631.623 339.297 631.722 338.044 632.126 336.988C633.127 334.372 635.637 333.287 637.994 332.143Z"/>
</svg>
