<?xml version="1.0" encoding="utf-8" ?>
<svg xmlns="http://www.w3.org/2000/svg" xmlns:xlink="http://www.w3.org/1999/xlink" width="500" height="500">
	<path fill="#378DBA" transform="scale(0.488281 0.488281)" d="M-0 -0L1024 0L1024 1024L-0 1024L0 -0Z"/>
	<path fill="#FEFEFE" transform="scale(0.488281 0.488281)" d="M918.316 614.002C919.503 618.441 919.621 623.563 920.059 628.147L935.703 629.473L920.224 631.033C919.104 634.757 919.445 639.751 918.858 643.75L918.241 644.27L917.271 631.037C912.225 630.999 907.344 630.431 902.406 629.414L917.306 628.238L918.316 614.002Z"/>
	<path fill="#FEFEFE" transform="scale(0.488281 0.488281)" d="M130.089 323C131.346 328.743 131.013 335.032 131.135 340.897L146.75 341.736L146.673 342.25L131.037 343.583L130.329 358.47L129.75 358.324L128.791 343.391C122.909 343.074 116.55 343.63 110.789 342.48L128.832 340.95L130.089 323Z"/>
	<path fill="#FEFEFE" transform="scale(0.488281 0.488281)" d="M110.355 648.515C111.716 653.31 111.717 658.991 112.058 663.981L127.971 665.442C122.614 666.564 117.282 666.614 111.834 666.755L110.91 678.75C110.632 679.547 110.835 679.149 110.25 679.917L109.008 666.658C103.605 666.644 98.5599 666.365 93.2136 665.506C98.5255 664.524 103.806 664.379 109.189 664.185L110.355 648.515Z"/>
	<path fill="#FEFEFE" transform="scale(0.488281 0.488281)" d="M540.108 91.75C542.025 94.6893 541.861 103.324 542.068 106.871L559.063 108.502C553.427 109.553 547.723 109.818 542.004 110.031L540.839 123.75L540.263 125.25C538.773 120.691 538.992 114.872 538.765 110.068L523.079 108.154L538.568 106.707C538.776 101.829 538.77 96.4635 540.108 91.75Z"/>
	<path fill="#B0BACC" transform="scale(0.488281 0.488281)" d="M366.305 897.106C368.495 897.113 370.444 897.176 372.5 898.006C375.683 899.292 378.14 902.056 379.383 905.204C380.833 908.879 380.481 912.248 378.73 915.759C376.916 919.394 373.748 920.957 370.129 922.247C367.22 922.322 364.811 922.232 362.126 920.97C358.845 919.428 356.824 916.692 355.75 913.297C354.796 910.279 355.351 906.292 356.887 903.571C358.939 899.934 362.384 898.083 366.305 897.106Z"/>
	<path fill="#88A7BB" transform="scale(0.488281 0.488281)" d="M147.223 430.602C149.46 430.459 151.507 430.604 153.613 431.45C156.926 432.782 159.653 435.417 160.91 438.766C162.269 442.387 162.296 446.118 160.559 449.64C158.754 453.299 154.921 455.358 151.204 456.487C148.694 456.578 146.59 456.648 144.217 455.691C140.832 454.326 138.269 451.572 137.035 448.138C135.795 444.69 136.409 440.371 138.086 437.198C140.076 433.434 143.398 431.85 147.223 430.602Z"/>
	<path fill="#B0BACC" transform="scale(0.488281 0.488281)" d="M658.855 905.139C661.756 905.245 664.763 905.507 667.25 907.167C670.027 909.02 672 912.101 672.663 915.353C673.385 918.891 673.054 922.1 671.078 925.137C668.562 929.004 665.218 930.564 660.833 931.465C658.752 931.454 656.718 931.173 654.75 930.464C651.604 929.332 649.111 926.811 647.685 923.833C646.238 920.808 646.007 917.323 647.184 914.166L647.448 913.5C647.757 912.695 648.036 911.954 648.554 911.25C651.346 907.456 654.391 905.975 658.855 905.139Z"/>
	<path fill="#FEFEFE" transform="scale(0.488281 0.488281)" d="M348.076 141.955L351.363 151.011C355.771 161.649 363.97 165.354 374.128 169.409L366.156 172.669C362.63 174.327 358.866 176.287 356.166 179.166C352.074 183.53 349.903 190.654 347.925 196.189C345.992 192.722 344.767 188.977 343.144 185.369C338.966 176.081 330.234 172.872 321.449 169.043C325.657 167.789 329.972 165.906 333.847 163.841C341.352 159.841 345.491 150.457 347.873 142.638L348.076 141.955Z"/>
	<path fill="#FEFEFE" transform="scale(0.488281 0.488281)" d="M900.671 365.648L906.572 376.584C907.459 378.317 908.398 380.678 909.707 382.122C911.049 383.602 913.503 384.765 915.219 385.779L927.004 392.541C921.763 395.119 914.594 398.266 910.427 402.419C906.408 406.426 903.026 414.753 900.389 419.864L892.417 406.375C891.649 405.106 890.703 402.935 889.726 401.952C888.866 401.087 886.205 400.036 885.047 399.371L873.42 392.42L883.8 385.907C886.111 384.539 889.014 383.143 890.876 381.184C894.656 377.206 897.76 370.415 900.671 365.648Z"/>
	<path fill="#FEFEFE" transform="scale(0.488281 0.488281)" d="M679.886 812.384C688.375 809.049 692.099 805.621 695.754 797.203L699.897 785.461C702.54 793.896 705.634 806.135 713.953 810.525C716.314 811.771 727.773 815.982 728.565 817.082C723.423 819.333 714.626 822.137 710.75 826.012C707.301 829.46 705.712 833.986 703.923 838.398C702.612 841.629 701.502 845.154 699.91 848.242C697.606 842.516 695.287 834.308 691.644 829.404C688.512 825.188 682.523 821.919 677.805 819.838C674.731 818.232 671.197 817.156 667.938 815.985C668.517 815.407 670.456 815.17 671.278 814.956L679.886 812.384Z"/>
	<path fill="#AD2222" transform="scale(0.488281 0.488281)" d="M826.97 250.148C830.063 247.514 832.35 238.96 833.802 235.104C842.789 211.243 850.565 187.189 856.141 162.289L860.802 140.25C861.445 137.004 861.549 132.339 863.093 129.473C863.635 128.468 863.819 128.084 863.868 126.944C863.932 125.485 864.137 124.146 864.412 122.714C864.752 170.086 863.025 219.037 847.595 264.239C840.983 259.639 832.946 255.454 826.97 250.148Z"/>
	<path fill="#EB3C42" transform="scale(0.488281 0.488281)" d="M707.087 146.238C719.22 140.772 731.435 135.495 744.024 131.154C781.478 118.239 821.803 110.967 861.393 109.862C860.705 110.938 860.763 110.865 859.493 111.158C848.143 113.773 837.201 117.302 826.076 120.731L755.314 146.038C744.039 150.679 732.053 155.26 721.381 161.149L707.087 146.238Z"/>
	<path fill="#C22129" transform="scale(0.488281 0.488281)" d="M864.065 110.49L864.38 110.488L864.412 122.714C864.137 124.146 863.932 125.485 863.868 126.944C863.819 128.084 863.635 128.468 863.093 129.473C861.549 132.339 861.445 137.004 860.802 140.25L856.141 162.289C850.565 187.189 842.789 211.243 833.802 235.104C832.35 238.96 830.063 247.514 826.97 250.148L826.453 250.108L816.994 243.181C813.885 240.849 810.889 238.312 807.526 236.35L807.511 236.037C808.103 233.712 810.267 230.958 811.508 228.828L819.624 214.123L842.332 166.514L859.019 123.5L862.135 115.719C863.081 113.639 863.823 112.934 864.065 110.49Z"/>
	<path fill="#EB3C42" transform="scale(0.488281 0.488281)" d="M781.354 215.515C784.571 210.621 788.608 205.995 792.197 201.353L815.75 171.192L844.25 134.591C850.605 126.482 856.897 117.885 864.065 110.49C863.823 112.934 863.081 113.639 862.135 115.719L859.019 123.5L842.332 166.514L819.624 214.123L811.508 228.828C810.267 230.958 808.103 233.712 807.511 236.037L781.354 215.515Z"/>
	<path fill="#88A7BB" transform="scale(0.488281 0.488281)" d="M895.327 498.211C901.611 497.647 908.1 499.74 913.268 503.253C920.07 507.877 924.604 515.558 925.978 523.592C927.282 531.214 925.622 539.679 920.959 545.945C915.127 553.783 907.383 557.111 897.898 558.453C891.959 558.64 885.864 557.244 880.678 554.341L880 553.953L878.303 552.901C871.331 547.615 867 539.46 866.189 530.813C865.511 523.587 867.927 515.502 872.587 509.904C878.671 502.596 885.963 499.123 895.327 498.211Z"/>
	<path fill="#AD2222" transform="scale(0.488281 0.488281)" d="M780.804 215.297L781.354 215.515L807.511 236.037L807.526 236.35C810.889 238.312 813.885 240.849 816.994 243.181L826.453 250.108L826.97 250.148C832.946 255.454 840.983 259.639 847.595 264.239L838.492 288.85L831.073 304.39C829.929 306.698 828.864 309.446 827.17 311.401L800.073 293.68L784.465 282.388L779.553 279.028C784.863 272.736 790.249 265.188 794.033 257.878L793.984 257.546C790.037 255.296 786.203 251.833 782.573 249.043C776.632 244.478 770.398 240.017 764.807 235.029C766.269 232.414 769.255 229.673 771.19 227.348L780.804 215.297Z"/>
	<path fill="#C22129" transform="scale(0.488281 0.488281)" d="M794.033 257.878L813.036 271.12L813.027 271.481C810.213 274.545 808.378 278.718 806.356 282.328C804.256 286.079 801.777 289.731 800.073 293.68L784.465 282.388L779.553 279.028C784.863 272.736 790.249 265.188 794.033 257.878Z"/>
	<path fill="#F9A42A" transform="scale(0.488281 0.488281)" d="M826.453 250.108L826.97 250.148C832.946 255.454 840.983 259.639 847.595 264.239L838.492 288.85L813.027 271.481L813.036 271.12C815.297 267.708 826.306 253.219 826.453 250.108Z"/>
	<path fill="#FDD053" transform="scale(0.488281 0.488281)" d="M780.804 215.297L781.354 215.515L807.511 236.037L807.526 236.35C810.889 238.312 813.885 240.849 816.994 243.181L826.453 250.108C826.306 253.219 815.297 267.708 813.036 271.12L794.033 257.878L793.984 257.546C790.037 255.296 786.203 251.833 782.573 249.043C776.632 244.478 770.398 240.017 764.807 235.029C766.269 232.414 769.255 229.673 771.19 227.348L780.804 215.297Z"/>
	<path fill="#F79328" transform="scale(0.488281 0.488281)" d="M807.526 236.35C810.889 238.312 813.885 240.849 816.994 243.181L826.453 250.108C826.306 253.219 815.297 267.708 813.036 271.12L794.033 257.878L793.984 257.546L807.526 236.35Z"/>
	<path fill="#88A7BB" transform="scale(0.488281 0.488281)" d="M767.351 718.136C770.938 717.708 775.293 717.577 778.844 718.218C781.758 718.744 784.571 719.222 787.366 720.263C798.354 724.354 807.35 732.891 812.223 743.562C817.458 755.027 816.761 767.782 812.201 779.342C808.397 788.986 802.285 794.432 793.121 798.654C788.914 800.593 784.591 801.63 780.094 802.664C773.979 803.457 769.053 803.509 763 802.062C752.247 799.491 743.406 793.036 737.75 783.49C731.932 773.671 729.246 761.104 732.221 749.91L732.471 749C735.277 738.277 740.976 730.375 750.316 724.315C755.689 720.829 761.043 719.141 767.351 718.136Z"/>
	<path fill="#F45A56" transform="scale(0.488281 0.488281)" d="M861.393 109.862L863.733 109.585L864.38 110.488L864.065 110.49C856.897 117.885 850.605 126.482 844.25 134.591L815.75 171.192L792.197 201.353C788.608 205.995 784.571 210.621 781.354 215.515L780.804 215.297L721.454 161.508L721.381 161.149C732.053 155.26 744.039 150.679 755.314 146.038L826.076 120.731C837.201 117.302 848.143 113.773 859.493 111.158C860.763 110.865 860.705 110.938 861.393 109.862Z"/>
	<path fill="#88A7BB" transform="scale(0.488281 0.488281)" d="M291.046 379.733L247.852 368.723L243.128 352.716C236.376 322.364 242.615 289.522 259.39 263.451C276.926 236.199 304.758 218.647 336.195 211.909C367.76 205.143 401.924 212.678 428.779 230.249C448.86 243.386 464.378 262.628 474.121 284.425C476.18 289.031 478.471 294.026 479.513 298.961L479.841 299.114C481.798 305.992 483.671 312.962 484.971 320L486.389 329.316C486.6 331.209 486.51 333.367 487.184 335.133L456.746 372.814L446.87 386.244C446.223 387.138 444.848 389.635 443.949 390.12L407.135 389.974L358.468 394.308C356.567 393.086 354.539 393.112 352.378 392.719L341.883 390.638L291.916 379.824L291.046 379.733Z"/>
	<path fill="#3CADD7" transform="scale(0.488281 0.488281)" d="M691.059 498.731C703.373 486.224 714.833 472.434 725.906 458.825L774.605 394.689C807.546 435.871 825.837 485.122 825.541 538.118C825.504 544.849 825.776 552.07 824.993 558.75C824.566 562.392 824.384 566.165 823.68 569.75C821.577 580.46 820.416 590.983 817.157 601.5C812.173 617.581 806.626 632.847 798.18 647.5C793.67 655.324 789.101 663.23 783.766 670.528C765.271 695.826 740.886 716.714 714 732.641C705.958 737.405 696.935 742.865 688.134 745.985C686.437 711.706 674.826 680.424 657.633 651C654.97 646.443 652.527 641.745 649.603 637.347L638.298 649.318C636.744 650.843 635.253 652.588 633.169 653.331L632.514 653.577L632.057 653.733C631.51 634.84 630.462 615.216 626.8 596.643L620.854 565.525C622.988 562.991 626.455 560.694 629 558.51L644.434 544.856C660.689 530.137 676.293 514.95 691.059 498.731Z"/>
	<path fill="#5FC5E6" transform="scale(0.488281 0.488281)" d="M691.059 498.731C693.197 511.312 692.267 525.373 690.634 538C689.756 544.78 689.073 551.793 687.663 558.482C681.966 585.501 669.435 609.691 653.633 632.119L649.603 637.347L638.298 649.318C636.744 650.843 635.253 652.588 633.169 653.331L632.514 653.577L632.057 653.733C631.51 634.84 630.462 615.216 626.8 596.643L620.854 565.525C622.988 562.991 626.455 560.694 629 558.51L644.434 544.856C660.689 530.137 676.293 514.95 691.059 498.731Z"/>
	<path fill="#5FC5E6" transform="scale(0.488281 0.488281)" d="M734.881 589.195L734.983 589.176C745.638 588.573 757.298 592.945 765.369 599.85C774.818 607.933 781.223 619.961 781.955 632.5C782.772 646.481 778.788 658.674 769.25 669.137C760.624 678.6 749.314 683.633 736.579 684.083C726.188 684.023 717.445 681.592 709 675.554C705.094 672.761 700.459 668.408 697.758 664.409C690.535 653.715 687.26 641.941 689.322 629.023C690.873 619.306 694.773 611.25 701.411 603.938C709.96 594.524 722.379 589.782 734.881 589.195Z"/>
	<path fill="#F9A42A" transform="scale(0.488281 0.488281)" d="M359.854 610.009L366.915 616.422C367.308 617.237 367.98 617.93 367.633 618.831C366.968 620.556 365.407 622.19 364.277 623.642C361.387 627.356 358.544 631.204 355.3 634.615L363.365 641.887C368.519 645.701 373.306 650.735 377.891 655.235C382.553 660.637 386.468 665.731 389.954 671.985L403.823 656.703L420.479 674.163C420.413 681.244 420.392 688.441 419.67 695.488C419.052 701.522 417.809 707.454 416.833 713.434C414.051 725.508 410.546 736.377 405.71 747.789C402.214 755.395 398.668 762.927 394.364 770.121C381.919 790.92 365.666 809.27 348.048 825.809C340.214 833.265 331.827 841.209 322.863 847.278C317.002 852.923 308.627 857.8 301.865 862.341C253.802 894.624 199.724 916.146 144.961 934.152C145.296 921.894 147.128 909.254 148.726 897.099C155.126 848.385 166.791 800.156 187.666 755.489C197.392 737.665 206.992 720.042 219.183 703.722C226.423 694.029 234.502 685.282 242.729 676.449C261.373 657.209 284.124 641.919 307.807 629.653L359.854 610.009Z"/>
	<path fill="#F79328" transform="scale(0.488281 0.488281)" d="M322.863 847.278L321.809 847.195L322.25 847C323.04 846.282 322.618 846.195 323.502 845.503C324.25 844.916 324.757 845.105 325.454 844.22L326.002 843.503L326.75 843.5L328.502 841.503L329.25 841.5L330.002 840.625C330.225 840.357 330.703 839.701 331.002 839.503C331.376 839.255 331.883 839.257 332.25 839C333.291 838.271 333.764 837.003 334.934 836.296C336.512 835.342 337.82 833.88 339.056 832.51L339.502 832.003C341.192 831.997 343.456 828.004 345.318 827.069C346.244 826.603 345.842 826.971 346.548 826.126C349.873 822.147 354.017 818.375 357.75 814.755C359.31 813.243 361.288 811.807 362.5 810C364.264 807.37 367.111 804.887 369.371 802.627L369.75 802.255L369.755 801.75C370.665 800.955 371.451 800.155 372.25 799.255L372.255 798.75C372.755 798.222 373.272 797.776 373.837 797.322C373.99 797.199 374.515 796.808 374.625 796.625C375.143 795.761 376.091 794.819 376.502 794.003C376.998 793.017 377.159 792.886 378.003 792.125C378.342 790.949 378.584 790.986 379.5 790.25C379.768 789.454 379.911 789.079 380.518 788.472L381.002 788.003C381.608 786.999 381.792 786.801 382.75 786L382.755 785.25L383.502 784.503C384.189 783.248 385.146 782.91 385.502 781.503C386.148 780.92 386.48 780.554 386.878 779.765C387.37 778.786 387.094 779.179 387.784 778.315L388.25 777.755C388.903 776.783 388.05 777.684 388.891 776.843L389.25 776.5L389.255 775.75C389.873 775.217 390.22 774.684 390.637 773.994L391.255 773L391.875 772.375C393.333 770.188 391.437 772.443 392.629 771.047L393.002 770.625L393.377 770L393.75 769.5L394.002 768.625L394.377 768L395.502 766.003C395.882 765.44 395.947 765.061 396.255 764.5L396.75 763.755L396.755 763.25L397.502 762.625L397.877 762C398.158 761.577 398.654 761.021 398.75 760.5L398.755 759.75L399.5 759.25L399.877 758L400.25 757.5C400.543 756.912 400.684 756.227 401.002 755.625L401.877 754C402.22 752.809 402.022 752.977 402.75 752L402.755 751.25C403.227 750.56 403.67 749.896 404.002 749.125L404.255 748.5L404.875 747.875L404.755 747L405.5 745.75L405.877 745L406.25 744.5L406.255 743.5L406.75 743L406.755 742.25L407.375 741.875L407.255 740.75C408.04 740.12 408.016 739.9 408.377 739L408.255 738.25L409.375 736.875L409.255 736C410.099 735.147 410.621 733.686 410.877 732.5L411 731.75L411.377 731L411.5 730.25L411.877 729.5L412 728.75C412.242 728.023 412.285 727.423 412.5 726.75L412.877 726L413.255 724.25L413.75 723C413.877 722.271 414.124 721.686 414.25 721C414.42 720.073 414.706 719.297 414.89 718.375L415.25 716.5L415.5 715.25C415.832 714.285 415.987 714.032 415.877 713L415.755 712.25L416.375 711.875L416.377 710.5L416.255 709.75L416.875 709.375L417 707.25L417.375 706.375C417.536 705.514 417.156 704.973 417.479 703.995C417.839 702.909 417.703 703.614 417.89 702.487C418.096 701.248 418.385 700.045 418.385 698.781L418.377 696.5L418.75 696L418.877 695C419.069 693.662 418.939 692.349 418.877 691L419.25 690.5L419.255 689.75C419.703 684.989 419.011 680.191 419.377 675.5L419.5 674.75L418.034 672.891C415.933 669.85 412.98 667.431 410.401 664.781C408.234 662.555 406.606 659.762 403.75 658.245C403.034 658.781 402.418 659.217 401.925 659.976C399.633 663.501 395.763 666.081 393.465 669.603C392.729 670.732 391.705 671.497 390.912 672.568C381.87 684.782 369.176 693.766 356.887 702.463L325.517 723.495C319.392 727.321 312.806 730.703 306.947 734.923L306.324 735.377C308.602 724.933 312.277 714.794 315.886 704.75C323.314 684.071 331.708 663.05 345.305 645.553C347.527 642.693 350.005 639.256 353 637.173C353.571 637.316 354.007 637.465 354.529 637.746C357.08 639.115 360.091 641.07 362.872 641.77L363.365 641.887C368.519 645.701 373.306 650.735 377.891 655.235C382.553 660.637 386.468 665.731 389.954 671.985L403.823 656.703L420.479 674.163C420.413 681.244 420.392 688.441 419.67 695.488C419.052 701.522 417.809 707.454 416.833 713.434C414.051 725.508 410.546 736.377 405.71 747.789C402.214 755.395 398.668 762.927 394.364 770.121C381.919 790.92 365.666 809.27 348.048 825.809C340.214 833.265 331.827 841.209 322.863 847.278Z"/>
	<path fill="#FCDF6B" transform="scale(0.488281 0.488281)" d="M357.745 658.75C359.4 658.482 360.76 658.406 362.255 659.292C363.919 660.278 364.377 662.021 364.904 663.75C364.711 665.112 364.509 666.057 363.771 667.238C361.201 671.353 357.256 675.042 354.005 678.663L329.008 705.533L324.274 710.13C325.754 706.136 328.56 702.216 330.8 698.604L344.924 676.592C348.338 671.338 351.498 665.417 355.381 660.526C356.083 659.641 356.751 659.243 357.745 658.75Z"/>
	<path fill="#FDD053" transform="scale(0.488281 0.488281)" d="M280.957 819.654C278.936 822.207 274.252 824.644 271.466 826.39C259.815 833.689 248.114 840.079 235.813 846.211L236.307 846.948L237.666 847.16C238.524 848.45 239.167 848.998 240.473 849.771C241.742 850.523 242.675 851.18 243.151 852.692C243.558 853.985 244.411 855.288 244.619 856.581C244.861 858.089 245.735 859.494 246.641 860.727C246.736 860.857 248.083 862.342 248.111 862.503C248.331 863.743 247.309 863.073 248.255 864.742L249.375 864.875C251.093 863.933 253.2 863.244 254.664 861.947L255.125 861.503C256.216 861.498 257.564 860.566 258.5 860L260.375 858.875L264.5 856.5L266.375 855.375C268.413 854.288 271.38 851.475 273.66 851.75C269.325 853.949 265.203 856.811 260.979 859.25C251.56 864.689 241.899 869.823 231.96 874.25L201.258 886.293C196.403 888.037 191.127 889.393 186.439 891.484C183.125 892.962 179.548 893.849 176.064 894.847L175.943 891.624L175.755 888.5C176.782 886.954 176.512 885.296 176.317 883.531L176.255 883C177.113 881.708 177.042 880.83 176.878 879.336C176.774 878.391 176.691 878.072 177.002 877.125C177.292 876.247 177.393 876.006 177.393 875.008C177.393 874.266 177.326 873.483 177.5 872.75C177.685 871.968 177.886 871.599 177.886 870.758C177.886 869.832 177.828 870.194 177.985 869.32C178.198 868.139 178.617 866.76 178.385 865.578L178.255 865L178.75 864.255C178.732 863.307 178.674 862.156 179 861.25C179.476 859.928 179.386 861.09 179.386 859.758L179.377 859C179.556 857.782 179.71 856.752 179.755 855.5C180.336 854.625 180.232 855.025 180.321 854.151C180.432 853.066 180.95 852.119 180.877 851L180.755 850.25L181.667 849.25C181.542 848.441 181.52 848.07 181.789 847.275C182.016 846.605 182.211 846.049 182.25 845.334L182.25 844.666C182.392 843.966 182.763 843.561 182.853 842.755C182.96 841.795 182.853 842.233 183.087 841.358L184.398 835.268L184.555 834.75L184.79 833.5C185.002 832.705 185.273 832.044 185.406 831.219C185.527 830.461 185.461 830.648 185.638 830.016L193.595 801.567C196.962 790.805 201.698 780.139 206.218 769.814C231.265 712.596 278.444 660.759 337.222 637.564C330.291 647.585 323.805 657.02 318.337 667.972L317.26 667.656C313.815 670.305 310.012 672.451 306.511 675.029C298.911 680.625 291.544 686.766 284.685 693.25C242.269 733.344 216.885 788.57 208.585 846.002L207.856 850.25L207.151 855.658C228.489 850.344 247.858 839.536 266.5 828.281L271.821 824.978L277.5 821.255C278.783 820.255 279.381 820 280.957 819.654Z"/>
	<defs>
		<linearGradient id="gradient_0" gradientUnits="userSpaceOnUse" x1="354.02338" y1="784.82349" x2="230.78899" y2="753.08228">
			<stop offset="0" stop-color="#FFD506"/>
			<stop offset="1" stop-color="#FDE99D"/>
		</linearGradient>
	</defs>
	<path fill="url(#gradient_0)" transform="scale(0.488281 0.488281)" d="M271.821 824.978L266.5 828.281C247.858 839.536 228.489 850.344 207.151 855.658L207.856 850.25L208.585 846.002C216.885 788.57 242.269 733.344 284.685 693.25C291.544 686.766 298.911 680.625 306.511 675.029C310.012 672.451 313.815 670.305 317.26 667.656L318.337 667.972C306.426 694.772 297.664 722.591 293.005 751.573C295.912 752.101 300.89 749.04 303.632 747.649C315.723 741.516 328.276 734.223 339.434 726.524L376.918 698.398C368.555 717.977 358.766 738.245 346.537 755.696C335.061 772.074 320.558 787.215 305.464 800.301L290.653 812.465C287.485 814.883 283.991 817.093 280.957 819.654C279.381 820 278.783 820.255 277.5 821.255L271.821 824.978Z"/>
	<path fill="#499CC4" transform="scale(0.488281 0.488281)" d="M291.046 379.733L291.916 379.824L341.883 390.638L352.378 392.719C354.539 393.112 356.567 393.086 358.468 394.308L407.135 389.974L443.949 390.12L429.503 410.488L359.749 534.922L362.822 537.608L402.048 576.879L370.158 612.193C369.14 613.57 368.14 615.239 366.915 616.422L359.854 610.009L307.807 629.653C284.124 641.919 261.373 657.209 242.729 676.449C234.502 685.282 226.423 694.029 219.183 703.722C206.992 720.042 197.392 737.665 187.666 755.489C182.701 750.476 178.544 743.854 174.626 738C165.433 724.263 157.018 709.677 150.491 694.468C129.707 646.037 128.469 588.648 147.979 539.708C159.398 511.063 176.703 487.031 199.106 465.987C211.313 454.52 225.416 443.819 240.887 437.163C242.384 436.561 243.503 435.541 244.734 434.529L254.437 430.415C253.522 428.458 252.211 426.703 250.995 424.925L250.968 423.918L279.898 391.129L287.219 383.918C288.53 382.714 290.468 381.426 291.046 379.733Z"/>
	<path fill="#3CADD7" transform="scale(0.488281 0.488281)" d="M215.18 545.643L259.955 518.734C261.351 521.185 261.559 524.029 262.255 526.741L266.947 543.86C274.431 567.389 284.511 589.034 296.198 610.735C299.549 616.957 302.978 624.482 307.807 629.653C284.124 641.919 261.373 657.209 242.729 676.449C241.933 673.431 239.449 669.81 238.175 666.852L229.201 643.378C221.83 621.17 216.649 597.515 215.432 574.118L215.213 546.179L215.18 545.643Z"/>
	<path fill="#5FC5E6" transform="scale(0.488281 0.488281)" d="M300.431 491.857C303.208 494.202 305.546 497.169 307.954 499.884C313.639 506.293 319.281 513.385 325.525 519.228L351.231 544.052L359.749 534.922L362.822 537.608L402.048 576.879L370.158 612.193C369.14 613.57 368.14 615.239 366.915 616.422L359.854 610.009L307.807 629.653C302.978 624.482 299.549 616.957 296.198 610.735C284.511 589.034 274.431 567.389 266.947 543.86L262.255 526.741C261.559 524.029 261.351 521.185 259.955 518.734L300.431 491.857Z"/>
	<path fill="#3CADD7" transform="scale(0.488281 0.488281)" d="M359.749 534.922L362.822 537.608L402.048 576.879L370.158 612.193C369.14 613.57 368.14 615.239 366.915 616.422L359.854 610.009L324.35 574.599L351.231 544.052L359.749 534.922Z"/>
	<path fill="#378DBA" transform="scale(0.488281 0.488281)" d="M359.749 534.922L362.822 537.608L362.502 538.013C360.386 540.637 357.833 542.777 355.559 545.25L342.808 560.152C338.915 564.648 334.304 569.317 331.11 574.32C341.134 585.686 352.519 596.745 363.75 606.924C365.802 608.783 368.15 610.281 370.158 612.193C369.14 613.57 368.14 615.239 366.915 616.422L359.854 610.009L324.35 574.599L351.231 544.052L359.749 534.922Z"/>
	<path fill="#EB3C42" transform="scale(0.488281 0.488281)" d="M291.046 379.733L291.916 379.824L341.883 390.638L352.378 392.719C354.539 393.112 356.567 393.086 358.468 394.308L407.135 389.974L443.949 390.12L429.503 410.488L359.749 534.922L351.231 544.052L325.525 519.228C319.281 513.385 313.639 506.293 307.954 499.884C305.546 497.169 303.208 494.202 300.431 491.857L259.955 518.734L215.18 545.643L147.256 586.186L153.107 577.89L221.745 481.488C221.585 476.759 224.183 472.218 226.139 468.011L237.851 444.5C238.962 442.131 240.394 439.753 240.887 437.163C242.384 436.561 243.503 435.541 244.734 434.529L254.437 430.415C253.522 428.458 252.211 426.703 250.995 424.925L250.968 423.918L279.898 391.129L287.219 383.918C288.53 382.714 290.468 381.426 291.046 379.733Z"/>
	<path fill="#88A7BB" transform="scale(0.488281 0.488281)" d="M254.437 430.415C260.106 428.292 265.547 425.759 271.566 424.839C256.181 437.275 244.016 453.567 231.69 468.93C228.371 473.067 225.285 477.555 221.745 481.488C221.585 476.759 224.183 472.218 226.139 468.011L237.851 444.5C238.962 442.131 240.394 439.753 240.887 437.163C242.384 436.561 243.503 435.541 244.734 434.529L254.437 430.415Z"/>
	<path fill="#AD2222" transform="scale(0.488281 0.488281)" d="M407.135 389.974L443.949 390.12L429.503 410.488L393.1 410.417L407.135 389.974Z"/>
	<path fill="#499CC4" transform="scale(0.488281 0.488281)" d="M291.046 379.733L291.916 379.824L341.883 390.638L352.378 392.719C354.539 393.112 356.567 393.086 358.468 394.308C335.581 398.251 312.824 403.117 291.732 413.25C284.714 416.622 278.177 420.759 271.566 424.839C265.547 425.759 260.106 428.292 254.437 430.415C253.522 428.458 252.211 426.703 250.995 424.925L250.968 423.918L279.898 391.129L287.219 383.918C288.53 382.714 290.468 381.426 291.046 379.733Z"/>
	<path fill="#F79328" transform="scale(0.488281 0.488281)" d="M165.648 570.86C166.714 568.181 169.996 565.449 171.9 563.233L197.408 534.502L245.334 479.274C254.027 469.034 262.07 457.998 271.595 448.526C291.228 429.002 317.104 420.084 343.79 415.045C359.744 412.033 376.486 410.384 392.734 410.423L325.525 519.228C319.281 513.385 313.639 506.293 307.954 499.884C305.546 497.169 303.208 494.202 300.431 491.857L259.955 518.734L215.18 545.643L147.256 586.186L153.107 577.89L153.709 577.887C156.474 577.748 163.745 573.035 165.648 570.86Z"/>
	<path fill="#AD2222" transform="scale(0.488281 0.488281)" d="M165.648 570.86L185.202 558.616L279.405 501.551L291.392 494.858C294.07 493.357 296.731 491.558 299.733 490.797L300.431 491.857L259.955 518.734L215.18 545.643L147.256 586.186L153.107 577.89L153.709 577.887C156.474 577.748 163.745 573.035 165.648 570.86Z"/>
	<path fill="#3CADD7" transform="scale(0.488281 0.488281)" d="M626.8 596.643C630.462 615.216 631.51 634.84 632.057 653.733L632.514 653.577L633.169 653.331C635.253 652.588 636.744 650.843 638.298 649.318L649.603 637.347C652.527 641.745 654.97 646.443 657.633 651C674.826 680.424 686.437 711.706 688.134 745.985L687.955 746.323C688.878 761.342 688.093 775.849 685.124 790.642L682.162 803.036C681.312 805.969 679.745 809.333 679.886 812.384L671.278 814.956C670.456 815.17 668.517 815.407 667.938 815.985C671.197 817.156 674.731 818.232 677.805 819.838C675.821 826.364 672.493 832.723 669.368 838.78C653.509 869.518 629.097 894.734 598.5 910.95C556.996 932.945 507.458 935.744 462.923 921.954C422.416 909.412 387.185 883.174 362.47 848.867C357.668 842.202 352.842 835.325 349.093 828L348.048 825.809C365.666 809.27 381.919 790.92 394.364 770.121C398.668 762.927 402.214 755.395 405.71 747.789C410.546 736.377 414.051 725.508 416.833 713.434C417.809 707.454 419.052 701.522 419.67 695.488C420.392 688.441 420.413 681.244 420.479 674.163L403.823 656.703L444.247 613.276L446.267 615.415L472.71 641.489L496.925 665.261L491.542 669.814L514.733 692.53L603.914 616.169L604.252 615.756L616.016 605.854C619.179 603.312 624.87 600.098 626.8 596.643Z"/>
	<path fill="#5FC5E6" transform="scale(0.488281 0.488281)" d="M403.823 656.703L444.247 613.276L446.267 615.415L472.71 641.489L496.925 665.261L491.542 669.814L514.733 692.53L536.06 712.763L525.669 731.654C519.804 732.325 513.801 734.669 508.018 736.043C494.602 739.232 480.891 742.08 467.148 743.367L465.869 743.264C460.855 741.666 455.091 737.206 450.576 734.435L416.833 713.434C417.809 707.454 419.052 701.522 419.67 695.488C420.392 688.441 420.413 681.244 420.479 674.163L403.823 656.703Z"/>
	<path fill="#0C5793" transform="scale(0.488281 0.488281)" d="M403.823 656.703L444.247 613.276L446.267 615.415L472.71 641.489L496.925 665.261L491.542 669.814C483.84 677.011 476.703 684.909 469.556 692.652L458.48 704.44C457.401 705.539 455.962 707.431 454.612 708.044L429.385 682.542L420.479 674.163L403.823 656.703Z"/>
	<path fill="#378DBA" transform="scale(0.488281 0.488281)" d="M403.823 656.703L444.247 613.276L446.267 615.415L446.28 615.965C446.318 616.86 446.334 617.945 446.748 618.759C447.913 621.05 450.854 623.512 452.637 625.388C458.33 631.377 464.027 637.399 470.189 642.915L445.741 665.643C440.291 670.718 433.37 676.208 429.385 682.542L420.479 674.163L403.823 656.703Z"/>
	<path fill="#E56724" transform="scale(0.488281 0.488281)" d="M626.8 596.643C630.462 615.216 631.51 634.84 632.057 653.733L632.514 653.577L633.169 653.331C635.253 652.588 636.744 650.843 638.298 649.318L649.603 637.347C652.527 641.745 654.97 646.443 657.633 651C674.826 680.424 686.437 711.706 688.134 745.985L687.955 746.323C656.238 759.856 623.471 769.991 589.5 776.091C582.148 777.411 574.068 779.439 566.596 778.969L566.08 778.942L460.572 867.357C460.116 868.508 455.621 871.773 454.481 872.759L508.881 762.924L525.669 731.654L536.06 712.763L514.733 692.53L603.914 616.169L604.252 615.756L616.016 605.854C619.179 603.312 624.87 600.098 626.8 596.643Z"/>
	<path fill="#C22129" transform="scale(0.488281 0.488281)" d="M626.8 596.643C630.462 615.216 631.51 634.84 632.057 653.733C631.935 690.014 624.731 723.194 598.082 749.611L566.08 778.942L460.572 867.357C461.724 863.464 466.286 859.654 469.128 856.8L480.855 844.99L539.375 785.822L567.835 757.436C580.861 744.443 594.457 731.767 602.247 714.747C613.489 690.187 612.227 659.409 607.725 633.336C606.772 627.815 605.874 621.418 603.914 616.169L604.252 615.756L616.016 605.854C619.179 603.312 624.87 600.098 626.8 596.643Z"/>
	<path fill="#5FC5E6" transform="scale(0.488281 0.488281)" d="M632.057 653.733L632.514 653.577L633.169 653.331C635.253 652.588 636.744 650.843 638.298 649.318L649.603 637.347C652.527 641.745 654.97 646.443 657.633 651C674.826 680.424 686.437 711.706 688.134 745.985L687.955 746.323C656.238 759.856 623.471 769.991 589.5 776.091C582.148 777.411 574.068 779.439 566.596 778.969L566.08 778.942L598.082 749.611C624.731 723.194 631.935 690.014 632.057 653.733Z"/>
	<path fill="#FEFEFE" transform="scale(0.488281 0.488281)" d="M707.087 146.238L721.381 161.149L721.454 161.508L780.804 215.297L771.19 227.348C769.255 229.673 766.269 232.414 764.807 235.029C770.398 240.017 776.632 244.478 782.573 249.043C786.203 251.833 790.037 255.296 793.984 257.546L794.033 257.878C790.249 265.188 784.863 272.736 779.553 279.028L784.465 282.388L800.073 293.68L827.17 311.401L774.605 394.689L725.906 458.825C714.833 472.434 703.373 486.224 691.059 498.731C676.293 514.95 660.689 530.137 644.434 544.856L629 558.51C626.455 560.694 622.988 562.991 620.854 565.525L626.8 596.643C624.87 600.098 619.179 603.312 616.016 605.854L604.252 615.756L603.914 616.169L514.733 692.53L491.542 669.814L496.925 665.261L472.71 641.489L446.267 615.415L444.247 613.276L403.823 656.703L389.954 671.985C386.468 665.731 382.553 660.637 377.891 655.235C373.306 650.735 368.519 645.701 363.365 641.887L355.3 634.615C358.544 631.204 361.387 627.356 364.277 623.642C365.407 622.19 366.968 620.556 367.633 618.831C367.98 617.93 367.308 617.237 366.915 616.422C368.14 615.239 369.14 613.57 370.158 612.193L402.048 576.879L362.822 537.608L359.749 534.922L429.503 410.488L443.949 390.12C444.848 389.635 446.223 387.138 446.87 386.244L456.746 372.814L487.184 335.133C486.51 333.367 486.6 331.209 486.389 329.316L484.971 320C483.671 312.962 481.798 305.992 479.841 299.114L505.087 297.913C510.018 297.823 515.047 297.542 519.942 298.228L601.606 219.377L664.307 172.004L685.071 158.329L707.087 146.238Z"/>
	<path fill="#499CC4" transform="scale(0.488281 0.488281)" d="M479.841 299.114L505.087 297.913C510.018 297.823 515.047 297.542 519.942 298.228L487.184 335.133C486.51 333.367 486.6 331.209 486.389 329.316L484.971 320C483.671 312.962 481.798 305.992 479.841 299.114Z"/>
	<path fill="#EB3C42" transform="scale(0.488281 0.488281)" d="M764.276 234.938L764.807 235.029C770.398 240.017 776.632 244.478 782.573 249.043C786.203 251.833 790.037 255.296 793.984 257.546L794.033 257.878C790.249 265.188 784.863 272.736 779.553 279.028L746.618 253.493C750.533 249.826 754.046 245.873 757.601 241.862C759.647 239.554 761.607 236.519 764.276 234.938Z"/>
	<path fill="#F45A56" transform="scale(0.488281 0.488281)" d="M707.087 146.238L721.381 161.149L721.454 161.508L780.804 215.297L771.19 227.348C769.255 229.673 766.269 232.414 764.807 235.029L764.276 234.938C761.607 236.519 759.647 239.554 757.601 241.862C754.046 245.873 750.533 249.826 746.618 253.493C721.283 233.556 696.883 210.345 675.854 185.889L664.307 172.004L685.071 158.329L707.087 146.238Z"/>
	<path fill="#EB3C42" transform="scale(0.488281 0.488281)" d="M664.307 172.004L685.071 158.329L697.585 172.175L684 180.592C681.383 182.171 677.999 183.729 675.854 185.889L664.307 172.004Z"/>
	<path fill="#FCDF6B" transform="scale(0.488281 0.488281)" d="M707.087 146.238L721.381 161.149L721.454 161.508L780.804 215.297L771.19 227.348C769.255 229.673 766.269 232.414 764.807 235.029L764.276 234.938L698.109 172.587L697.585 172.175L685.071 158.329L707.087 146.238Z"/>
	<path fill="#FDD053" transform="scale(0.488281 0.488281)" d="M707.087 146.238L721.381 161.149L721.454 161.508C717.039 162.566 712.318 165.472 708.219 167.489C704.89 169.127 701.173 170.502 698.109 172.587L697.585 172.175L685.071 158.329L707.087 146.238Z"/>
	<path fill="#F45A56" transform="scale(0.488281 0.488281)" d="M402.048 576.879C407.548 571.442 412.465 565.179 417.694 559.456L464.869 507.055C471.853 499.296 478.765 490.133 486.689 483.391C491.529 479.273 499.485 476.19 505.887 476.755C513.93 477.577 520.422 480.212 525.635 486.555C530.697 492.713 532.866 500.195 531.948 508.085C531.335 513.361 529.796 518.184 526.867 522.643C522.629 529.095 515.92 534.849 510.767 540.665L460.052 596.021C454.854 601.798 449.052 607.171 444.247 613.276L403.823 656.703L389.954 671.985C386.468 665.731 382.553 660.637 377.891 655.235C373.306 650.735 368.519 645.701 363.365 641.887L355.3 634.615C358.544 631.204 361.387 627.356 364.277 623.642C365.407 622.19 366.968 620.556 367.633 618.831C367.98 617.93 367.308 617.237 366.915 616.422C368.14 615.239 369.14 613.57 370.158 612.193L402.048 576.879Z"/>
	<path fill="#EB3C42" transform="scale(0.488281 0.488281)" d="M402.048 576.879C407.548 571.442 412.465 565.179 417.694 559.456L464.869 507.055C471.853 499.296 478.765 490.133 486.689 483.391C491.529 479.273 499.485 476.19 505.887 476.755L504.75 477.255C506.159 480.613 509.355 483.355 510.996 486.819C504.302 485.054 498.734 484.659 492.576 488.25C488.057 490.886 485.039 494.715 481.631 498.564L470.211 511.281L417.303 569.474L373.195 617.405C371.273 619.668 368.702 622.486 367.935 625.405L368.629 625.95C375.906 631.74 381.507 639.178 388.193 645.528L377.891 655.235C373.306 650.735 368.519 645.701 363.365 641.887L355.3 634.615C358.544 631.204 361.387 627.356 364.277 623.642C365.407 622.19 366.968 620.556 367.633 618.831C367.98 617.93 367.308 617.237 366.915 616.422C368.14 615.239 369.14 613.57 370.158 612.193L402.048 576.879Z"/>
	<path fill="#C22129" transform="scale(0.488281 0.488281)" d="M505.887 476.755C513.93 477.577 520.422 480.212 525.635 486.555C530.697 492.713 532.866 500.195 531.948 508.085C531.335 513.361 529.796 518.184 526.867 522.643C522.629 529.095 515.92 534.849 510.767 540.665L460.052 596.021C454.854 601.798 449.052 607.171 444.247 613.276L403.823 656.703L389.954 671.985C386.468 665.731 382.553 660.637 377.891 655.235L388.193 645.528L443.67 586.65L490.49 537.132C497.932 529.15 505.89 521.383 512.853 512.988C514.925 510.492 517.721 507.153 518.06 503.812C518.852 495.981 515.749 492.499 510.996 486.819C509.355 483.355 506.159 480.613 504.75 477.255L505.887 476.755Z"/>
	<path fill="#EB3C42" transform="scale(0.488281 0.488281)" d="M583.209 356.052C582.112 351.17 581.455 346.005 581.372 341C581.06 322.159 587.807 304.225 601.107 290.75C613.619 278.074 630.773 271.35 648.537 271.281C664.905 271.218 682.792 277.203 694.633 288.897C699.445 293.368 703.269 298.313 707.129 303.618C716.486 322.051 719.593 339.419 713.019 359.44C707.106 377.45 694.082 392.574 677.121 401.056C666.315 406.46 653.685 408.387 641.694 407.328C638.06 407.006 634.428 406.029 630.855 405.313L619.852 400.773C600.571 391.155 589.864 376.098 583.209 356.052Z"/>
	<path fill="#F45A56" transform="scale(0.488281 0.488281)" d="M642.677 277.182C653.39 275.733 665.617 278.124 675.073 283.25L664 288.421C662.426 289.167 660.729 290.241 659 290.556C657.173 290.889 655.125 290.346 653.272 290.328C646.939 290.265 640.543 291.324 634.656 293.699C626.723 296.899 617.47 301.68 611.946 308.424C606.956 314.517 604.012 322.451 600.947 329.618L598.733 335.885C597.677 338.68 590.944 347.628 588.25 348.78C587.918 348.105 587.617 347.498 587.477 346.75C584.595 331.351 590.251 311.768 599.607 299.446C610.296 285.37 625.775 279.419 642.677 277.182Z"/>
	<path fill="#AD2222" transform="scale(0.488281 0.488281)" d="M694.633 288.897C699.445 293.368 703.269 298.313 707.129 303.618C716.486 322.051 719.593 339.419 713.019 359.44C707.106 377.45 694.082 392.574 677.121 401.056C666.315 406.46 653.685 408.387 641.694 407.328C638.06 407.006 634.428 406.029 630.855 405.313L619.852 400.773C600.571 391.155 589.864 376.098 583.209 356.052L587.664 350.905C590.341 363.523 595.654 373.852 605.19 382.624C616.814 393.317 633.255 399.773 649.107 398.938C665.926 398.052 680.286 391.692 691.554 378.989C697.239 372.58 702.348 364.95 705.322 356.867C711.32 340.567 709.59 318.88 701.979 303.276C700.446 300.134 698.696 297.12 696.816 294.174C695.983 292.871 694.526 291.228 694.567 289.644L694.633 288.897Z"/>
	<path fill="#D6D8D5" transform="scale(0.488281 0.488281)" d="M643.426 295.667C654.909 294.635 665.759 296.832 675.206 303.679C685.472 311.121 691.251 320.814 693.097 333.377C694.749 344.624 691.883 356.1 685.083 365.207C677.714 375.077 667.849 380.978 655.733 382.727C645.027 384.35 633.03 381.563 624.127 375.442C614.693 368.956 607.902 358.125 605.945 346.864C603.898 335.09 607.052 322.338 614.083 312.688C620.866 303.377 632.232 297.48 643.426 295.667Z"/>
	<path fill="#29551D" transform="scale(0.488281 0.488281)" d="M644.867 303.638C648.105 303.249 652.242 303.171 655.453 303.817C660.317 304.796 665.029 306.281 669.257 308.95C677.486 314.145 683.395 322.008 685.483 331.561C687.579 341.146 686.118 350.665 680.714 358.94C674.827 367.956 666.224 372.841 655.887 375.062C651.688 375.811 646.597 375.885 642.457 374.803C637.394 373.481 632.646 371.794 628.299 368.796C620.854 363.66 615.103 355.101 613.63 346.105C611.983 336.05 614.203 326.312 620.087 318.011C626.194 309.396 634.694 305.402 644.867 303.638Z"/>
	<path fill="#87923B" transform="scale(0.488281 0.488281)" d="M644.018 311.145C650.986 310.402 657.394 311.176 663.5 314.929C669.513 318.625 674.85 324.826 676.457 331.811L676.61 332.5L676.993 334.022C678.515 340.827 676.662 348.329 672.957 354.141C668.288 361.467 661.516 365.475 653.124 367.385C648.326 367.897 643.549 367.859 638.927 366.296C631.619 363.826 625.555 358.202 622.316 351.232C619.277 344.689 618.681 335.947 621.186 329.126L621.424 328.5C622.145 326.577 622.99 324.785 624.126 323.066C628.909 315.83 635.751 312.85 644.018 311.145Z"/>
	<path fill="#A0A548" transform="scale(0.488281 0.488281)" d="M644.297 321.188C647.369 321.39 649.909 322.02 652.406 323.914C655.207 326.037 657.294 330.045 657.573 333.531C657.917 337.824 657.017 341.348 654.102 344.585C651.429 347.553 647.938 348.322 644.145 348.597C641.46 348.009 638.553 347.491 636.25 345.901C633.348 343.898 630.715 340.321 630.222 336.767C629.783 333.599 631.193 329.764 633.087 327.25C636.027 323.35 639.578 321.848 644.297 321.188Z"/>
	<path fill="#D6D8D5" transform="scale(0.488281 0.488281)" d="M784.465 282.388L800.073 293.68L827.17 311.401L774.605 394.689L725.906 458.825C714.833 472.434 703.373 486.224 691.059 498.731C676.293 514.95 660.689 530.137 644.434 544.856L629 558.51C626.455 560.694 622.988 562.991 620.854 565.525L626.8 596.643C624.87 600.098 619.179 603.312 616.016 605.854L604.252 615.756L603.914 616.169L514.733 692.53L491.542 669.814L496.925 665.261L472.71 641.489L489.342 624.947L512.75 602.523C564.004 553.108 614.337 502.382 660.951 448.527L686.154 419.055C691.348 412.785 696.568 406.628 700.939 399.738L696.579 402.635C691.371 405.749 684.965 407.808 679.105 409.339C668.683 412.06 657.078 413.858 646.426 411.29C642.57 410.361 634.112 408.859 631.427 405.987L630.855 405.313C634.428 406.029 638.06 407.006 641.694 407.328C653.685 408.387 666.315 406.46 677.121 401.056C694.082 392.574 707.106 377.45 713.019 359.44C719.593 339.419 716.486 322.051 707.129 303.618L707.94 303.912C709.527 304.561 710.481 306.28 711.441 307.619C714.25 311.54 717.005 315.412 718.86 319.892C722.167 327.879 723.04 335.606 723.071 344.191C723.087 348.369 723.217 352.658 722.68 356.81C721.643 364.832 718.998 372.118 715.904 379.545L784.465 282.388Z"/>
	<path fill="#900A12" transform="scale(0.488281 0.488281)" d="M620.854 565.525L626.8 596.643C624.87 600.098 619.179 603.312 616.016 605.854L604.252 615.756L594.608 586.867L620.854 565.525Z"/>
	<path fill="#AD2222" transform="scale(0.488281 0.488281)" d="M594.608 586.867L604.252 615.756L603.914 616.169L514.733 692.53L491.542 669.814L496.925 665.261L594.608 586.867Z"/>
</svg>
