<?xml version="1.0" encoding="utf-8" ?>
<svg xmlns="http://www.w3.org/2000/svg" xmlns:xlink="http://www.w3.org/1999/xlink" width="500" height="500">
	<path fill="#DEB73E" transform="scale(0.488281 0.488281)" d="M-0 -0L1024 0L1024 1024L-0 1024L0 -0Z"/>
	<path fill="#07AABC" transform="scale(0.488281 0.488281)" d="M102.173 635.599C103.705 626.474 105.553 617.635 108.92 608.984C112.488 599.816 117.767 590.649 122.502 582.001C142.357 545.736 168.113 514.92 198.36 486.838C202.938 482.587 207.618 478.306 212.735 474.711C214.55 473.437 216.345 472.009 218.495 471.381L217.419 484.177C209.655 487.854 202.391 496.402 196.389 502.541C190.366 508.702 184.134 514.802 178.523 521.343C154.392 549.474 134.855 581.71 119.09 615.169C115.734 622.291 111.47 629.632 108.911 637.062C107.548 641.019 107.286 644.952 106.924 649.092C104.136 644.941 106.019 639.564 102.173 635.599Z"/>
	<path fill="#07AABC" transform="scale(0.488281 0.488281)" d="M286.315 352.863C286.755 350.25 288.08 347.519 289.093 345.068L295.435 330.421L311.832 292.72L326.229 256.87C333.234 238.105 339.615 219.287 348.606 201.332C353.549 191.46 359.343 181.882 365.476 172.703C369.211 167.113 373.067 161.32 377.684 156.427C389.439 143.97 402.631 140.624 419.309 140.095C425.654 140.59 431.068 142.306 437.069 144.254C439.487 145.039 442.361 145.727 444.548 147.033C435.488 146.927 426.213 146.174 417.25 147.818C400.126 150.959 387.339 161.459 377.513 175.412C369.937 186.17 364.198 197.491 358.421 209.263L339.648 251.125L323.672 292.621C318.688 305.008 311.858 316.807 307.583 329.443L307.315 330.195L286.315 352.863Z"/>
	<path fill="#5D2524" transform="scale(0.488281 0.488281)" d="M849.297 131.388C861.151 144.406 873.189 160.288 878.473 177.25C883.945 194.818 884.632 214.601 886.665 232.874L896.353 323.139L906.535 425.75L909.7 459.581C910.139 464.507 911.012 469.665 911.009 474.602C909.442 472.069 908.382 468.851 907.212 466.096L900.541 450C896.785 440.922 891.602 431.468 889.389 421.889C887.602 414.153 887.44 405.795 886.712 397.888L882.826 357.25L870.314 247.374C866.93 219.227 865.354 190.424 859.013 162.75C856.565 152.065 852.697 141.789 849.297 131.388Z"/>
	<path fill="#569114" transform="scale(0.488281 0.488281)" d="M419.309 140.095C458.435 138.487 496.635 144.961 531.347 163.756C540.746 168.845 550.321 174.869 558.25 182.071C571.646 194.238 580.629 207.888 589.448 223.516L589.364 227.673L591.282 229.671C594.708 248.302 602.277 265.306 608.57 283.024C597.018 299.524 586.239 317.617 578.387 336.177C578.167 331.022 580.147 325.192 580.33 319.859C580.65 310.554 579.12 301.252 579.431 291.882C577.469 295.417 576.319 299.402 574.964 303.2L568.039 321.628C567.023 324.086 566.093 326.833 564.709 329.101C565.736 323.31 568.171 317.559 569.823 311.91C572.955 301.202 575.619 288.923 575.427 277.75C575.316 271.3 573.902 264.642 572.366 258.398C571.272 253.953 570.223 249.444 568.031 245.399C565.991 235.808 562.502 227.028 557.468 218.616C542.692 193.928 518.64 178.781 493.635 166.14C477.879 158.175 461.705 151.35 444.548 147.033C442.361 145.727 439.487 145.039 437.069 144.254C431.068 142.306 425.654 140.59 419.309 140.095Z"/>
	<path fill="#02856D" transform="scale(0.488281 0.488281)" d="M589.364 227.673L591.282 229.671C594.708 248.302 602.277 265.306 608.57 283.024C597.018 299.524 586.239 317.617 578.387 336.177C578.167 331.022 580.147 325.192 580.33 319.859C580.65 310.554 579.12 301.252 579.431 291.882C580.763 288.155 581.03 283.672 581.495 279.75L583.817 260.535L589.364 227.673Z"/>
	<path fill="#C3701E" transform="scale(0.488281 0.488281)" d="M98.0614 697.248C100.416 707.674 101.422 717.904 104.889 728.132C117.236 764.555 147.647 791.959 179.336 812.027C210.297 831.634 244.847 846.947 280.5 855.538C289.514 857.71 299.204 859.981 308.457 860.514C328.317 862.305 347.609 860.868 366.901 855.523C373.011 853.83 379.033 851.499 384.965 849.262C417.859 833.204 445.154 805.091 463.789 773.768C468.323 766.148 472.068 758.183 475.817 750.163C479.78 748.633 483.387 746.247 487 744.037L509.768 729.38C507.184 742.814 504.579 757.946 506.586 771.643C506.313 788.172 508.568 803.542 513.267 819.392C514.08 824.075 515.92 828.481 517.625 832.898C524.232 850.019 533.349 864.807 548.648 875.438C551.737 877.584 555.296 879.426 558.764 880.866C559.222 883.103 559.577 885.196 561.299 886.829C563.524 888.94 566.485 890.442 569.229 891.765C579.122 896.536 589.367 898.037 600.272 897.467C614.552 896.719 629.653 892.33 643.25 888.131C674.877 878.366 705.52 865.501 734.655 849.773C747.848 842.651 760.751 835.26 772.954 826.517C798.087 808.509 819.944 787.782 840.542 764.811C848.228 766.141 855.965 769.753 863.083 772.864C879.348 779.973 898.788 788.426 909.391 803.352C915.192 811.518 918.079 820.05 916.304 830.071C913.817 844.114 901.279 855.507 889.997 863.162C862.944 881.52 829.704 892.096 798.437 900.606C744.469 915.294 689.161 922.961 633.49 927.421C573.539 932.223 513.723 933.121 453.624 930.775C395.877 928.521 337.736 923.623 280.927 912.695C236.713 904.189 191.254 892.566 150.912 872.137C136.441 864.809 120.29 855.409 110.951 841.703C106.096 834.578 104.118 825.639 105.884 817.166C107.999 807.025 116.493 797.97 125.031 792.653L129.819 789.786C113.101 767.259 102.031 741.188 98.7843 713.235C98.1733 707.974 98.1797 702.546 98.0614 697.248Z"/>
	<path fill="#3F0B16" transform="scale(0.488281 0.488281)" d="M298.506 876.903C300.272 875.736 302.957 876.201 305.007 876.355C308.306 876.602 312.24 875.747 315.595 875.494C328.04 874.557 340.715 872.187 352.5 868.001C361.109 864.942 369.421 860.796 377.605 856.75L378.889 857.206C355.492 873.568 326.601 878.488 298.506 876.903Z"/>
	<path fill="#5D2524" transform="scale(0.488281 0.488281)" d="M98.0614 697.248C100.416 707.674 101.422 717.904 104.889 728.132C117.236 764.555 147.647 791.959 179.336 812.027C210.297 831.634 244.847 846.947 280.5 855.538C289.514 857.71 299.204 859.981 308.457 860.514C328.317 862.305 347.609 860.868 366.901 855.523C373.011 853.83 379.033 851.499 384.965 849.262C383.717 852.64 382.797 855.295 379.347 857.02L378.889 857.206L377.605 856.75C369.421 860.796 361.109 864.942 352.5 868.001C340.715 872.187 328.04 874.557 315.595 875.494C312.24 875.747 308.306 876.602 305.007 876.355C302.957 876.201 300.272 875.736 298.506 876.903C296.438 877.143 294.154 876.777 292.076 876.613C275.487 875.306 259.744 871.275 244 866.023C212.011 855.352 181.77 839.812 156.177 817.635C146.4 809.164 138.193 799.582 129.819 789.786C113.101 767.259 102.031 741.188 98.7843 713.235C98.1733 707.974 98.1797 702.546 98.0614 697.248Z"/>
	<path fill="#02856D" transform="scale(0.488281 0.488281)" d="M684.931 114.786C701.954 105.875 719.72 98.6438 738.156 93.2214C760.328 86.6998 784.781 82.2403 807.365 89.4112C824.898 94.9781 836.597 106.7 844.894 122.926L849.297 131.388C852.697 141.789 856.565 152.065 859.013 162.75C865.354 190.424 866.93 219.227 870.314 247.374L882.826 357.25L886.712 397.888C887.44 405.795 887.602 414.153 889.389 421.889C891.602 431.468 896.785 440.922 900.541 450L907.212 466.096C908.382 468.851 909.442 472.069 911.009 474.602C912.094 479.564 914.381 483.58 916.006 488.302L921.661 507.021C938.268 570.169 925.038 639.115 892.388 694.98C877.866 719.828 860.165 743.745 840.542 764.811C819.944 787.782 798.087 808.509 772.954 826.517C760.751 835.26 747.848 842.651 734.655 849.773C705.52 865.501 674.877 878.366 643.25 888.131C629.653 892.33 614.552 896.719 600.272 897.467C589.367 898.037 579.122 896.536 569.229 891.765C566.485 890.442 563.524 888.94 561.299 886.829C559.577 885.196 559.222 883.103 558.764 880.866C555.296 879.426 551.737 877.584 548.648 875.438C533.349 864.807 524.232 850.019 517.625 832.898C515.92 828.481 514.08 824.075 513.267 819.392C508.568 803.542 506.313 788.172 506.586 771.643L510.001 752.016C512.073 741.997 514.775 732.319 517.663 722.516C521.098 710.862 524.876 699.323 530.189 688.371L550.203 647.347C553.691 640.711 557.026 633.73 561.333 627.587L594.747 572.442L605.184 554.812C605.94 552.222 607.882 551.262 609.705 549.493C611.783 547.476 613.341 545.549 614.721 542.999L618.392 545.886C624.886 550.996 633.335 557.003 642.127 555.857L646.96 554.721L655.815 575.668C657.48 579.529 659.456 583.48 660.659 587.508L660.935 587.531C663.323 587.712 666.154 587.181 668.564 586.954L683.103 585.644L721.466 583.512L785.985 580.975C791.006 580.022 796.772 580.264 801.93 579.967L831.699 577.74C837.071 577.262 842.658 577.091 847.951 576.045L868.039 573.607C869.596 575.493 871.08 577.717 873.25 578.907C874.631 578.879 875.802 578.733 876.866 577.75C877.952 576.747 878.246 575.421 878.507 574.033C882.199 568.331 885.952 562.81 887.483 556.078L887.696 555.107C888.931 549.628 888.024 544.189 888.801 538.729L888.938 537.82L905.632 564.79C908.878 548.695 911.023 532.627 911.026 516.172C911.027 511.677 911.298 506.859 909.795 502.559C905.823 491.2 900.849 480.269 896.031 469.252L883.995 441.35C878.051 428.253 871.162 415.045 867.63 401.023L860.306 365.114L849.75 304.85L840.766 240.75L834.886 200.163C832.117 181.586 829.099 163.372 824.277 145.201C821.228 133.713 817.929 120.65 809.623 111.713C802.272 102.383 791.508 96.8147 779.75 95.507C760.666 93.3847 739.367 99.3808 721.38 105.314C713.152 108.027 704.536 110.987 696.731 114.755C695.531 114.716 694.662 114.685 693.503 115.002L692.25 115.255L691.75 115.755L691.125 116.002L690.641 116.252C689.742 116.702 690.483 116.344 689.25 116.755L687.056 117.752L685.625 118.502L684.75 118.755C683.734 119.094 684.497 118.885 683.5 119.377L683.062 119.527C681.677 120.051 680.904 120.796 679.369 121.105C678.287 121.324 679.139 121.131 678 121.877L677 122.255L676.25 122.755L675.503 123.002L672.503 124.502C671.515 124.957 670.639 125.57 669.625 126.002C668.848 126.334 668.196 126.785 667.5 127.255C666.652 127.828 665.955 128.064 665 128.377C664.165 128.167 663.956 128.064 663.22 127.526C664.47 126.245 666.278 125.458 667.8 124.532C673.41 121.118 679.591 118.738 685.199 115.387L684.931 114.786Z"/>
	<path fill="#07AABC" transform="scale(0.488281 0.488281)" d="M888.938 537.82L905.632 564.79C899.362 587.169 890.329 609.616 879.354 630.131L858.069 593.628C854.758 587.888 851.817 581.414 847.951 576.045L868.039 573.607C869.596 575.493 871.08 577.717 873.25 578.907C874.631 578.879 875.802 578.733 876.866 577.75C877.952 576.747 878.246 575.421 878.507 574.033C882.199 568.331 885.952 562.81 887.483 556.078L887.696 555.107C888.931 549.628 888.024 544.189 888.801 538.729L888.938 537.82Z"/>
	<path fill="#A6ECC4" transform="scale(0.488281 0.488281)" d="M847.951 576.045C851.817 581.414 854.758 587.888 858.069 593.628L879.354 630.131C876.146 636.895 871.785 643.311 867.67 649.566C859.029 662.701 849.511 675.78 839.25 687.695L785.985 580.975C791.006 580.022 796.772 580.264 801.93 579.967L831.699 577.74C837.071 577.262 842.658 577.091 847.951 576.045Z"/>
	<path fill="#4EE6AD" transform="scale(0.488281 0.488281)" d="M721.466 583.512L785.985 580.975L839.25 687.695L793.203 734.559L721.466 583.512Z"/>
	<path fill="#A6ECC4" transform="scale(0.488281 0.488281)" d="M721.466 583.512L793.203 734.559L746.547 775.124C743.502 770.034 741.403 764.032 738.933 758.607L722.535 722.5L660.935 587.531C663.323 587.712 666.154 587.181 668.564 586.954L683.103 585.644L721.466 583.512Z"/>
	<path fill="#5D2524" transform="scale(0.488281 0.488281)" d="M921.661 507.021C938.268 570.169 925.038 639.115 892.388 694.98C877.866 719.828 860.165 743.745 840.542 764.811C819.944 787.782 798.087 808.509 772.954 826.517C760.751 835.26 747.848 842.651 734.655 849.773C705.52 865.501 674.877 878.366 643.25 888.131C629.653 892.33 614.552 896.719 600.272 897.467C589.367 898.037 579.122 896.536 569.229 891.765C566.485 890.442 563.524 888.94 561.299 886.829C559.577 885.196 559.222 883.103 558.764 880.866C562.871 881.832 567.695 881.867 571.915 881.855C592.763 881.797 612.896 876.045 632.5 869.5C657.038 861.308 681.673 850.693 704.176 837.826C722.634 827.272 739.912 815.079 756.923 802.374C779.014 785.874 799.971 768.186 819.357 748.558C860.717 706.683 896.514 653.962 913.472 597.234C917.973 582.177 921.424 567.101 922.944 551.437C923.801 542.613 924.335 533.298 923.615 524.473C923.161 518.909 921.655 513.288 921.655 507.739L921.661 507.021Z"/>
	<path fill="#07AABC" transform="scale(0.488281 0.488281)" d="M614.721 542.999L618.392 545.886C624.886 550.996 633.335 557.003 642.127 555.857L646.96 554.721L655.815 575.668C657.48 579.529 659.456 583.48 660.659 587.508L660.935 587.531L722.535 722.5L738.933 758.607C741.403 764.032 743.502 770.034 746.547 775.124L717.988 795.39C712.702 798.984 706.765 803.432 700.939 806.023C693.094 811.373 684.476 815.656 676 819.901L646.919 834.116C630.335 842.705 610.579 849.657 592.092 852.335C578.293 853.901 564.286 854.549 550.75 850.779C538.93 847.487 528.273 841.535 520.715 831.673C517.807 827.878 515.598 823.551 513.267 819.392C508.568 803.542 506.313 788.172 506.586 771.643L510.001 752.016C512.073 741.997 514.775 732.319 517.663 722.516C521.098 710.862 524.876 699.323 530.189 688.371L550.203 647.347C553.691 640.711 557.026 633.73 561.333 627.587L594.747 572.442L605.184 554.812C605.94 552.222 607.882 551.262 609.705 549.493C611.783 547.476 613.341 545.549 614.721 542.999Z"/>
	<path fill="#047C7E" transform="scale(0.488281 0.488281)" d="M614.721 542.999L618.392 545.886C624.886 550.996 633.335 557.003 642.127 555.857L646.96 554.721L655.815 575.668C657.48 579.529 659.456 583.48 660.659 587.508C657.501 588.638 653.028 588.544 649.653 588.84L635.383 590.723C630.395 585.746 625.937 580.046 621.365 574.683C615.816 568.173 610.036 561.877 605.184 554.812C605.94 552.222 607.882 551.262 609.705 549.493C611.783 547.476 613.341 545.549 614.721 542.999Z"/>
	<path fill="#A6ECC4" transform="scale(0.488281 0.488281)" d="M594.747 572.442L700.939 806.023C693.094 811.373 684.476 815.656 676 819.901L646.919 834.116L561.333 627.587L594.747 572.442Z"/>
	<path fill="#07AABC" transform="scale(0.488281 0.488281)" d="M561.333 627.587L646.919 834.116C630.335 842.705 610.579 849.657 592.092 852.335C578.293 853.901 564.286 854.549 550.75 850.779C538.93 847.487 528.273 841.535 520.715 831.673C517.807 827.878 515.598 823.551 513.267 819.392C508.568 803.542 506.313 788.172 506.586 771.643L510.001 752.016C512.073 741.997 514.775 732.319 517.663 722.516C521.098 710.862 524.876 699.323 530.189 688.371L550.203 647.347C553.691 640.711 557.026 633.73 561.333 627.587Z"/>
	<path fill="#4EE6AD" transform="scale(0.488281 0.488281)" d="M530.189 688.371L592.092 852.335C578.293 853.901 564.286 854.549 550.75 850.779C538.93 847.487 528.273 841.535 520.715 831.673C517.807 827.878 515.598 823.551 513.267 819.392C508.568 803.542 506.313 788.172 506.586 771.643L510.001 752.016C512.073 741.997 514.775 732.319 517.663 722.516C521.098 710.862 524.876 699.323 530.189 688.371Z"/>
	<path fill="#B24013" transform="scale(0.488281 0.488281)" d="M696.731 114.755C704.536 110.987 713.152 108.027 721.38 105.314C739.367 99.3808 760.666 93.3847 779.75 95.507C791.508 96.8147 802.272 102.383 809.623 111.713C817.929 120.65 821.228 133.713 824.277 145.201C829.099 163.372 832.117 181.586 834.886 200.163L840.766 240.75L849.75 304.85L860.306 365.114L867.63 401.023C871.162 415.045 878.051 428.253 883.995 441.35L896.031 469.252C900.849 480.269 905.823 491.2 909.795 502.559C911.298 506.859 911.027 511.677 911.026 516.172C911.023 532.627 908.878 548.695 905.632 564.79L888.938 537.82L888.801 538.729C888.024 544.189 888.931 549.628 887.696 555.107L887.483 556.078C885.952 562.81 882.199 568.331 878.507 574.033C878.246 575.421 877.952 576.747 876.866 577.75C875.802 578.733 874.631 578.879 873.25 578.907C871.08 577.717 869.596 575.493 868.039 573.607L847.951 576.045C842.658 577.091 837.071 577.262 831.699 577.74L801.93 579.967C796.772 580.264 791.006 580.022 785.985 580.975L721.466 583.512L683.103 585.644L668.564 586.954C666.154 587.181 663.323 587.712 660.935 587.531L660.659 587.508C659.456 583.48 657.48 579.529 655.815 575.668L646.96 554.721L642.127 555.857C633.335 557.003 624.886 550.996 618.392 545.886L614.721 542.999L605.855 534.975C604.161 533.321 602.33 531.017 600.139 530.1C598.358 527.378 595.107 524.737 592.853 522.325C585.605 514.571 578.415 504.23 578.505 493.227L577.965 491.514C577.484 489.144 576.493 485.553 577.737 483.496L578.204 481.394C577.131 475.899 577.957 468.54 578.614 462.997C578.641 457.668 578.582 452.76 577.406 447.521C570.585 426.848 568.674 402.86 569.9 381.134L570.98 368.75C571.401 365.325 572.242 361.825 571.506 358.399L578.387 336.177C586.239 317.617 597.018 299.524 608.57 283.024C602.277 265.306 594.708 248.302 591.282 229.671L589.364 227.673L589.448 223.516C591.204 214.472 594.863 205.755 598.34 197.262C603.153 186.102 609.022 174.956 616.412 165.286C633.45 142.989 659.51 126.156 684.931 114.786L685.199 115.387C679.591 118.738 673.41 121.118 667.8 124.532C666.278 125.458 664.47 126.245 663.22 127.526C663.956 128.064 664.165 128.167 665 128.377C665.955 128.064 666.652 127.828 667.5 127.255C668.196 126.785 668.848 126.334 669.625 126.002C670.639 125.57 671.515 124.957 672.503 124.502L675.503 123.002L676.25 122.755L677 122.255L678 121.877C679.139 121.131 678.287 121.324 679.369 121.105C680.904 120.796 681.677 120.051 683.062 119.527L683.5 119.377C684.497 118.885 683.734 119.094 684.75 118.755L685.625 118.502L687.056 117.752L689.25 116.755C690.483 116.344 689.742 116.702 690.641 116.252L691.125 116.002L691.75 115.755L692.25 115.255L693.503 115.002C694.662 114.685 695.531 114.716 696.731 114.755Z"/>
	<path fill="#4EE6AD" transform="scale(0.488281 0.488281)" d="M592.2 391.277C594.296 394.532 595.719 398 597.118 401.595C594.461 404.078 592.073 406.576 589.792 409.409L592.2 391.277Z"/>
	<path fill="#02856D" transform="scale(0.488281 0.488281)" d="M760.13 302.566C765.568 306.247 770.376 310.81 775.25 315.188C778.532 318.137 782.075 320.979 785.171 324.113C781.837 326.372 777.212 328.381 774.304 330.997L774.11 331.091C771.646 324.856 767.857 318.489 764.665 312.6C762.944 309.426 760.831 306.14 760.13 302.566Z"/>
	<path fill="#02856D" transform="scale(0.488281 0.488281)" d="M610.236 345.463L628.763 377.5C630.426 380.454 632.627 383.37 634.009 386.43C626.855 388.649 618.937 390.952 612.451 394.758L603.471 399.201L597.118 401.595C595.719 398 594.296 394.532 592.2 391.277C593.242 384.159 595.766 377.225 598.361 370.549C601.723 361.898 605.509 353.461 610.236 345.463Z"/>
	<path fill="#07AABC" transform="scale(0.488281 0.488281)" d="M785.171 324.113C799.494 336.702 813.896 349.447 826.983 363.334C829.652 366.166 833.022 369.22 835.15 372.475C835.928 373.665 836.283 374.965 836.39 376.373C837.09 385.643 836.919 395.317 836.769 404.607C836.622 413.742 836.508 422.82 835.111 431.867C832.936 430.397 830.391 428.262 827.985 427.297L818.363 420.167C817.118 415.527 814.628 411.144 812.489 406.868L801.87 386.038L774.304 330.997C777.212 328.381 781.837 326.372 785.171 324.113Z"/>
	<path fill="#48A787" transform="scale(0.488281 0.488281)" d="M610.236 345.463C612.618 340.389 615.916 335.461 618.883 330.702C626.415 318.621 634.414 307.836 644.177 297.411L680.009 371.026L680.024 371.393L661.843 378.713C660.023 379.412 655.763 380.496 654.619 382.028L654.524 382.369L634.009 386.43C632.627 383.37 630.426 380.454 628.763 377.5L610.236 345.463Z"/>
	<path fill="#A6ECC4" transform="scale(0.488281 0.488281)" d="M774.11 331.091L774.304 330.997L801.87 386.038L812.489 406.868C814.628 411.144 817.118 415.527 818.363 420.167C799.556 409.881 781.969 399.916 761.223 393.787C757.201 392.599 753.009 391.096 748.852 390.513L730.276 351.772C731.939 349.409 751.117 342.005 755.434 340.024L774.11 331.091Z"/>
	<path fill="#48A787" transform="scale(0.488281 0.488281)" d="M684.327 256.05L693.466 246.262L760.13 302.566C760.831 306.14 762.944 309.426 764.665 312.6C767.857 318.489 771.646 324.856 774.11 331.091L755.434 340.024C751.117 342.005 731.939 349.409 730.276 351.772L729.905 351.523C729.107 348.826 727.328 346.16 726.077 343.611L719.264 329.25L694.51 277.5C691.156 270.404 687.239 263.319 684.327 256.05Z"/>
	<path fill="#02856D" transform="scale(0.488281 0.488281)" d="M684.327 256.05C687.239 263.319 691.156 270.404 694.51 277.5L719.264 329.25L726.077 343.611C727.328 346.16 729.107 348.826 729.905 351.523L680.009 371.026L644.177 297.411C648.627 291.648 654.556 286.584 659.733 281.444L684.327 256.05Z"/>
	<defs>
		<linearGradient id="gradient_0" gradientUnits="userSpaceOnUse" x1="778.53253" y1="402.90039" x2="783.12256" y2="218.24304">
			<stop offset="0" stop-color="#B96248"/>
			<stop offset="1" stop-color="#FB8981"/>
		</linearGradient>
	</defs>
	<path fill="url(#gradient_0)" transform="scale(0.488281 0.488281)" d="M712.474 215.443C720.861 218.505 728.803 223.861 736.147 228.837C762.002 246.356 784.96 267.807 806.45 290.394L826.718 313.04L838.329 330.081C849.852 348.343 856.44 367.413 861.126 388.386C862.905 396.348 865.028 404.459 865.602 412.627C862.599 408.798 862.214 402.85 860.562 398.25C857.873 390.76 853.865 384.151 848.863 378.005C842.108 369.704 834.111 362.607 826.334 355.306L793.835 325.334L696.913 242.818L712.474 215.443Z"/>
	<defs>
		<linearGradient id="gradient_1" gradientUnits="userSpaceOnUse" x1="669.92072" y1="301.98929" x2="603.92609" y2="274.42108">
			<stop offset="0" stop-color="#E77F49"/>
			<stop offset="1" stop-color="#F7938D"/>
		</linearGradient>
	</defs>
	<path fill="url(#gradient_1)" transform="scale(0.488281 0.488281)" d="M712.141 138.901C716.108 138.905 718.906 139.093 722.554 140.803C723.83 143.425 724.723 145.567 725.11 148.5L725.23 149.352C726.654 160.77 722.482 174.617 719.171 185.541C716.701 189.093 715.505 193.844 713.813 197.827C710.152 206.447 705.65 216.297 700.556 224.087C695.607 233.433 689.351 241.065 682.604 249.118L649.161 285.25C622.001 313.353 599.484 349.077 586.04 385.75C582.823 394.528 579.636 403.639 578.11 412.886C576.172 424.63 577.597 435.795 577.406 447.521C570.585 426.848 568.674 402.86 569.9 381.134L570.98 368.75C571.401 365.325 572.242 361.825 571.506 358.399L578.387 336.177C586.239 317.617 597.018 299.524 608.57 283.024C613.005 276.428 618.576 270.141 623.802 264.158C632.154 254.598 640.536 245.501 650.246 237.308C654.426 233.37 659.233 230.022 663.902 226.687C669.566 222.642 675.592 217.442 682.774 216.866L685.282 207.62C687.301 203.734 688.381 198.848 689.688 194.664L698.679 162.352C699.689 157.92 700.071 153.042 701.505 148.75C703.3 143.377 707.387 141.155 712.141 138.901Z"/>
	<path fill="#F7B404" transform="scale(0.488281 0.488281)" d="M729.905 351.523L730.276 351.772L748.852 390.513C745.825 390.43 742.922 389.829 739.958 389.262C746.047 392.846 753.8 394.227 760.488 396.565L789.592 408.241C798.972 412.513 808.116 417.31 816.903 422.7C821.036 425.235 825.131 428.811 829.476 430.831L834.62 434.094C832.781 442.94 832.863 452.676 831.969 461.724L827.494 495.79C826.867 500.626 826.757 507.672 824.882 512.071C812.791 499.973 796.687 489.849 781.973 481.292C776.858 478.318 771.415 475.757 766.426 472.609L766.065 472.378C759.578 469.132 752.527 466.71 745.668 464.358C730.503 459.158 715.443 455.372 699.596 452.947L673.917 451.698C644.382 453.066 607.24 456.299 586.075 479.75C582.489 483.724 580.075 488.109 578.505 493.227L577.965 491.514C577.484 489.144 576.493 485.553 577.737 483.496L578.204 481.394C577.131 475.899 577.957 468.54 578.614 462.997C580.062 460.698 580.35 455.708 580.694 453C582.363 439.872 582.31 421.628 590.972 410.807C594.462 406.447 599.223 402.808 603.471 399.201L612.451 394.758C618.937 390.952 626.855 388.649 634.009 386.43L654.524 382.369L654.619 382.028C655.763 380.496 660.023 379.412 661.843 378.713L680.024 371.393L680.009 371.026L729.905 351.523Z"/>
	<path fill="#943E1B" transform="scale(0.488281 0.488281)" d="M654.619 382.028C664.574 381.616 674.051 380.473 684.077 381.235L693.752 381.871C692.45 381.987 689.849 381.873 689 382.769L661.103 383.709C660.097 383.42 660.504 383.465 659.469 383.448L658.75 383.45L658.755 382.75L654.524 382.369L654.619 382.028Z"/>
	<path fill="#B24013" transform="scale(0.488281 0.488281)" d="M634.009 386.43L654.524 382.369L658.755 382.75L658.75 383.45L659.469 383.448C660.504 383.465 660.097 383.42 661.103 383.709C650.711 384.925 640.522 386.625 630.425 389.435C624.415 391.107 618.548 393.452 612.451 394.758C618.937 390.952 626.855 388.649 634.009 386.43Z"/>
	<path fill="#A6ECC4" transform="scale(0.488281 0.488281)" d="M680.024 371.393C681.597 374.561 683.236 377.784 684.077 381.235C674.051 380.473 664.574 381.616 654.619 382.028C655.763 380.496 660.023 379.412 661.843 378.713L680.024 371.393Z"/>
	<defs>
		<linearGradient id="gradient_2" gradientUnits="userSpaceOnUse" x1="664.60223" y1="457.30353" x2="658.69781" y2="439.59641">
			<stop offset="0" stop-color="#F09C05"/>
			<stop offset="1" stop-color="#D74F07"/>
		</linearGradient>
	</defs>
	<path fill="url(#gradient_2)" transform="scale(0.488281 0.488281)" d="M578.204 481.394C579.662 478.831 581.172 476.778 583.044 474.521L586.131 471.168C609.39 449.51 645.962 442.933 676.709 442.526C687.828 442.379 698.634 443.375 709.702 443.751L707.991 444.432C706.561 443.734 705.005 444.034 703.466 444.136L703.245 445.25C704.048 445.386 704.708 445.313 705.5 445.377C706.777 445.482 705.722 445.602 707.047 445.385C708.099 445.213 708.315 445.535 709.25 446C710.582 445.705 711.407 445.8 712.725 446.013L712.909 446.836L702.23 446.034L699.596 452.947L673.917 451.698C673.024 449.494 671.977 449.728 670.833 448.25C670.485 447.8 670.218 446.53 670.01 445.947C639.721 446.531 605.287 453.708 583.56 476.323C582.587 477.336 581.917 478.039 581.245 479.25L579.627 481.514C579.083 482.243 578.386 482.864 577.737 483.496L578.204 481.394Z"/>
	<path fill="#FEE709" transform="scale(0.488281 0.488281)" d="M670.01 445.947L702.23 446.034L699.596 452.947L673.917 451.698C673.024 449.494 671.977 449.728 670.833 448.25C670.485 447.8 670.218 446.53 670.01 445.947Z"/>
	<defs>
		<linearGradient id="gradient_3" gradientUnits="userSpaceOnUse" x1="623.42804" y1="449.24896" x2="625.90967" y2="486.32684">
			<stop offset="0" stop-color="#FFC707"/>
			<stop offset="1" stop-color="#F1A414"/>
		</linearGradient>
	</defs>
	<path fill="url(#gradient_3)" transform="scale(0.488281 0.488281)" d="M577.737 483.496C578.386 482.864 579.083 482.243 579.627 481.514L581.245 479.25C581.917 478.039 582.587 477.336 583.56 476.323C605.287 453.708 639.721 446.531 670.01 445.947C670.218 446.53 670.485 447.8 670.833 448.25C671.977 449.728 673.024 449.494 673.917 451.698C644.382 453.066 607.24 456.299 586.075 479.75C582.489 483.724 580.075 488.109 578.505 493.227L577.965 491.514C577.484 489.144 576.493 485.553 577.737 483.496Z"/>
	<path fill="#F5E887" transform="scale(0.488281 0.488281)" d="M702.23 446.034L712.909 446.836C728.812 449.51 743.689 454.758 758.676 460.607C761.908 461.868 766.328 463.09 769.086 465.103C768.347 467.298 767.653 470.692 766.065 472.378C759.578 469.132 752.527 466.71 745.668 464.358C730.503 459.158 715.443 455.372 699.596 452.947L702.23 446.034Z"/>
	<path fill="#07AABC" transform="scale(0.488281 0.488281)" d="M729.905 351.523L730.276 351.772L748.852 390.513C745.825 390.43 742.922 389.829 739.958 389.262C724.55 385.09 709.672 382.843 693.752 381.871L684.077 381.235C683.236 377.784 681.597 374.561 680.024 371.393L680.009 371.026L729.905 351.523Z"/>
	<path fill="#F5E887" transform="scale(0.488281 0.488281)" d="M717.141 389.57C720.228 389.329 723.448 390.06 726.5 390.499C739.454 392.361 753.14 396.299 764.947 402.06C770.181 404.614 775.072 407.976 780.013 411.056L771.716 451.443C771.157 453.798 770.812 458.224 769.25 460.027L767.885 459.643C750.342 452.458 733.77 444.503 715 440.876L702.935 439.571L710.073 391.245C712.308 390.866 714.425 390.447 716.592 389.75L717.141 389.57Z"/>
	<path fill="#B24013" transform="scale(0.488281 0.488281)" d="M673.917 451.698L699.596 452.947C715.443 455.372 730.503 459.158 745.668 464.358C752.527 466.71 759.578 469.132 766.065 472.378L766.426 472.609C771.415 475.757 776.858 478.318 781.973 481.292C796.687 489.849 812.791 499.973 824.882 512.071C831.79 520.385 839.932 527.672 846.95 535.956C849.495 538.961 851.895 542.127 854.139 545.363C858.199 551.219 871.579 572.935 878.507 574.033C878.246 575.421 877.952 576.747 876.866 577.75C875.802 578.733 874.631 578.879 873.25 578.907C871.08 577.717 869.596 575.493 868.039 573.607L847.951 576.045C842.658 577.091 837.071 577.262 831.699 577.74L801.93 579.967C796.772 580.264 791.006 580.022 785.985 580.975L721.466 583.512L683.103 585.644L668.564 586.954C666.154 587.181 663.323 587.712 660.935 587.531L660.659 587.508C659.456 583.48 657.48 579.529 655.815 575.668L646.96 554.721L642.127 555.857C633.335 557.003 624.886 550.996 618.392 545.886L614.721 542.999L605.855 534.975C604.161 533.321 602.33 531.017 600.139 530.1C598.358 527.378 595.107 524.737 592.853 522.325C585.605 514.571 578.415 504.23 578.505 493.227C580.075 488.109 582.489 483.724 586.075 479.75C607.24 456.299 644.382 453.066 673.917 451.698Z"/>
	<path fill="#047C7E" transform="scale(0.488281 0.488281)" d="M813.574 513.124C818.904 516.216 823.467 521.087 827.816 525.409C842.566 540.066 855.973 556.68 868.039 573.607L847.951 576.045L825.676 535.736C821.71 528.463 816.341 520.885 813.574 513.124Z"/>
	<path fill="#047C7E" transform="scale(0.488281 0.488281)" d="M662.797 459.089C684.74 458.899 707.684 460.297 728.658 467.319C729.04 469.113 729.166 470.236 730.666 471.435L730.498 471.965C726.256 472.582 721.775 475.015 717.787 476.61C713.081 478.493 707.846 479.98 703.559 482.706C695.372 485.718 687.676 490.737 679.834 494.612C678.023 492.646 676.858 488.97 675.75 486.499L668.408 470.077C666.707 466.341 665.138 462.477 662.797 459.089Z"/>
	<path fill="#A6ECC4" transform="scale(0.488281 0.488281)" d="M728.658 467.319L746.577 474C768.664 483.096 790.199 494.56 808.948 509.445L765.635 511.892C761.378 512.316 756.469 512.42 752.351 513.48L751.983 513.385C751.205 510.571 748.911 507.163 747.573 504.5L730.498 471.965L730.666 471.435C729.166 470.236 729.04 469.113 728.658 467.319Z"/>
	<path fill="#4EE6AD" transform="scale(0.488281 0.488281)" d="M703.559 482.706C707.846 479.98 713.081 478.493 717.787 476.61C721.775 475.015 726.256 472.582 730.498 471.965L747.573 504.5C748.911 507.163 751.205 510.571 751.983 513.385L693.548 523.651L682.959 501.164L679.838 495.041L679.834 494.612C687.676 490.737 695.372 485.718 703.559 482.706Z"/>
	<path fill="#44C7A1" transform="scale(0.488281 0.488281)" d="M679.834 494.612C687.676 490.737 695.372 485.718 703.559 482.706C701.765 485.461 699.059 487.508 696.627 489.686C692.238 493.619 687.662 497.617 682.959 501.164L679.838 495.041L679.834 494.612Z"/>
	<path fill="#48A787" transform="scale(0.488281 0.488281)" d="M620.699 466.257C634.842 462.94 648.254 460.157 662.797 459.089C665.138 462.477 666.707 466.341 668.408 470.077L675.75 486.499C676.858 488.97 678.023 492.646 679.834 494.612L679.838 495.041L682.959 501.164L693.548 523.651L693.482 523.932C686.42 525.094 679.425 527.202 672.485 528.96C667.007 530.348 660.847 531.459 655.687 533.746C654.371 527.922 650.458 522.654 647.274 517.701C645.588 515.905 644.109 512.985 642.884 510.836L634.122 493.915C629.537 484.841 624.227 475.795 620.699 466.257Z"/>
	<path fill="#A6ECC4" transform="scale(0.488281 0.488281)" d="M647.274 517.701C654.193 509.403 662.631 502.818 672.323 498.032C674.656 496.88 677.255 495.409 679.838 495.041L682.959 501.164L693.548 523.651L693.482 523.932C686.42 525.094 679.425 527.202 672.485 528.96C667.007 530.348 660.847 531.459 655.687 533.746C654.371 527.922 650.458 522.654 647.274 517.701Z"/>
	<path fill="#BE5412" transform="scale(0.488281 0.488281)" d="M618.392 545.886C616.749 540.907 613.004 538.531 609.678 534.739C600.682 524.479 587.996 511.161 584.832 497.524C583.917 493.581 584.526 490.437 586.701 487.027C593.244 476.769 609.237 468.922 620.699 466.257C624.227 475.795 629.537 484.841 634.122 493.915L642.884 510.836C644.109 512.985 645.588 515.905 647.274 517.701C650.458 522.654 654.371 527.922 655.687 533.746C656.093 539.922 655.67 546.126 651.342 551.03C650.042 552.503 648.617 553.678 646.96 554.721L642.127 555.857C633.335 557.003 624.886 550.996 618.392 545.886Z"/>
	<path fill="#48A787" transform="scale(0.488281 0.488281)" d="M808.948 509.445L813.574 513.124C816.341 520.885 821.71 528.463 825.676 535.736L847.951 576.045C842.658 577.091 837.071 577.262 831.699 577.74L801.93 579.967C796.772 580.264 791.006 580.022 785.985 580.975L752.351 513.48C756.469 512.42 761.378 512.316 765.635 511.892L808.948 509.445Z"/>
	<path fill="#02856D" transform="scale(0.488281 0.488281)" d="M751.983 513.385L752.351 513.48L785.985 580.975L721.466 583.512L683.103 585.644L668.564 586.954C666.154 587.181 663.323 587.712 660.935 587.531L660.659 587.508C659.456 583.48 657.48 579.529 655.815 575.668L646.96 554.721C648.617 553.678 650.042 552.503 651.342 551.03C655.67 546.126 656.093 539.922 655.687 533.746C660.847 531.459 667.007 530.348 672.485 528.96C679.425 527.202 686.42 525.094 693.482 523.932L693.548 523.651L751.983 513.385Z"/>
	<path fill="#48A787" transform="scale(0.488281 0.488281)" d="M655.687 533.746C660.847 531.459 667.007 530.348 672.485 528.96C679.425 527.202 686.42 525.094 693.482 523.932L721.466 583.512L683.103 585.644L668.564 586.954C666.154 587.181 663.323 587.712 660.935 587.531L660.659 587.508C659.456 583.48 657.48 579.529 655.815 575.668L646.96 554.721C648.617 553.678 650.042 552.503 651.342 551.03C655.67 546.126 656.093 539.922 655.687 533.746Z"/>
	<path fill="#4EE6AD" transform="scale(0.488281 0.488281)" d="M696.731 114.755C704.536 110.987 713.152 108.027 721.38 105.314C739.367 99.3808 760.666 93.3847 779.75 95.507C791.508 96.8147 802.272 102.383 809.623 111.713C817.929 120.65 821.228 133.713 824.277 145.201C829.099 163.372 832.117 181.586 834.886 200.163L840.766 240.75L849.75 304.85L860.306 365.114L867.63 401.023C871.162 415.045 878.051 428.253 883.995 441.35L896.031 469.252C900.849 480.269 905.823 491.2 909.795 502.559C911.298 506.859 911.027 511.677 911.026 516.172C911.023 532.627 908.878 548.695 905.632 564.79L888.938 537.82L888.801 538.729C888.024 544.189 888.931 549.628 887.696 555.107L887.483 556.078C885.952 562.81 882.199 568.331 878.507 574.033C871.579 572.935 858.199 551.219 854.139 545.363C851.895 542.127 849.495 538.961 846.95 535.956C839.932 527.672 831.79 520.385 824.882 512.071C826.757 507.672 826.867 500.626 827.494 495.79L831.969 461.724C832.863 452.676 832.781 442.94 834.62 434.094C843.684 438.331 851.211 447.529 857.354 455.129C859.145 457.345 860.695 459.917 862.775 461.859L865.283 449.877L866.455 434.397C866.723 427.135 866.291 419.856 865.602 412.627C865.028 404.459 862.905 396.348 861.126 388.386C856.44 367.413 849.852 348.343 838.329 330.081L826.718 313.04L806.45 290.394C784.96 267.807 762.002 246.356 736.147 228.837C728.803 223.861 720.861 218.505 712.474 215.443C711.209 215.25 710.018 215.246 709.104 214.25C713.003 205.569 718.112 195.01 719.171 185.541C722.482 174.617 726.654 160.77 725.23 149.352L725.11 148.5C724.723 145.567 723.83 143.425 722.554 140.803C718.906 139.093 716.108 138.905 712.141 138.901C707.387 141.155 703.3 143.377 701.505 148.75C700.071 153.042 699.689 157.92 698.679 162.352L689.688 194.664C688.381 198.848 687.301 203.734 685.282 207.62L682.774 216.866C675.592 217.442 669.566 222.642 663.902 226.687C659.233 230.022 654.426 233.37 650.246 237.308C640.536 245.501 632.154 254.598 623.802 264.158C618.576 270.141 613.005 276.428 608.57 283.024C602.277 265.306 594.708 248.302 591.282 229.671L589.364 227.673L589.448 223.516C591.204 214.472 594.863 205.755 598.34 197.262C603.153 186.102 609.022 174.956 616.412 165.286C633.45 142.989 659.51 126.156 684.931 114.786L685.199 115.387C679.591 118.738 673.41 121.118 667.8 124.532C666.278 125.458 664.47 126.245 663.22 127.526C663.956 128.064 664.165 128.167 665 128.377C665.955 128.064 666.652 127.828 667.5 127.255C668.196 126.785 668.848 126.334 669.625 126.002C670.639 125.57 671.515 124.957 672.503 124.502L675.503 123.002L676.25 122.755L677 122.255L678 121.877C679.139 121.131 678.287 121.324 679.369 121.105C680.904 120.796 681.677 120.051 683.062 119.527L683.5 119.377C684.497 118.885 683.734 119.094 684.75 118.755L685.625 118.502L687.056 117.752L689.25 116.755C690.483 116.344 689.742 116.702 690.641 116.252L691.125 116.002L691.75 115.755L692.25 115.255L693.503 115.002C694.662 114.685 695.531 114.716 696.731 114.755Z"/>
	<path fill="#07AABC" transform="scale(0.488281 0.488281)" d="M684.931 114.786L685.199 115.387C679.591 118.738 673.41 121.118 667.8 124.532C666.278 125.458 664.47 126.245 663.22 127.526C663.956 128.064 664.165 128.167 665 128.377C665.955 128.064 666.652 127.828 667.5 127.255C668.196 126.785 668.848 126.334 669.625 126.002C670.639 125.57 671.515 124.957 672.503 124.502L675.503 123.002L676.25 122.755L677 122.255L678 121.877C679.139 121.131 678.287 121.324 679.369 121.105C680.904 120.796 681.677 120.051 683.062 119.527L683.5 119.377C684.497 118.885 683.734 119.094 684.75 118.755L685.625 118.502L687.056 117.752L689.25 116.755C690.483 116.344 689.742 116.702 690.641 116.252L691.125 116.002L691.75 115.755L692.25 115.255L693.503 115.002C694.662 114.685 695.531 114.716 696.731 114.755C679.289 122.234 663.188 130.246 647.339 140.787C638.323 146.784 629.911 152.992 622.656 161.115C612.851 172.095 605.924 184.59 600.141 198.04C596.373 207.839 591.586 219.056 591.282 229.671L589.364 227.673L589.448 223.516C591.204 214.472 594.863 205.755 598.34 197.262C603.153 186.102 609.022 174.956 616.412 165.286C633.45 142.989 659.51 126.156 684.931 114.786Z"/>
	<path fill="#07AABC" transform="scale(0.488281 0.488281)" d="M650.246 237.308C644.177 225.471 634.045 211.198 636.693 197.188C639.458 182.567 664.813 166.256 676.696 158.029L681.697 174.676C682.945 178.411 688.755 191.782 688.07 194.922C687.194 198.935 685.802 203.073 685.334 207.136L685.282 207.62L682.774 216.866C675.592 217.442 669.566 222.642 663.902 226.687C659.233 230.022 654.426 233.37 650.246 237.308Z"/>
	<path fill="#C3701E" transform="scale(0.488281 0.488281)" d="M834.62 434.094C843.684 438.331 851.211 447.529 857.354 455.129C859.145 457.345 860.695 459.917 862.775 461.859L865.283 449.877C871.795 462.845 877.779 476.707 881.149 490.862C884.151 503.473 885.351 516.189 887.154 528.976C887.574 531.952 888.438 534.853 888.938 537.82L888.801 538.729C888.024 544.189 888.931 549.628 887.696 555.107L887.483 556.078C885.952 562.81 882.199 568.331 878.507 574.033C871.579 572.935 858.199 551.219 854.139 545.363C851.895 542.127 849.495 538.961 846.95 535.956C839.932 527.672 831.79 520.385 824.882 512.071C826.757 507.672 826.867 500.626 827.494 495.79L831.969 461.724C832.863 452.676 832.781 442.94 834.62 434.094Z"/>
	<path fill="#047C7E" transform="scale(0.488281 0.488281)" d="M862.775 461.859L865.283 449.877C871.795 462.845 877.779 476.707 881.149 490.862C884.151 503.473 885.351 516.189 887.154 528.976C887.574 531.952 888.438 534.853 888.938 537.82L888.801 538.729C888.024 544.189 888.931 549.628 887.696 555.107L887.483 556.078C885.952 562.81 882.199 568.331 878.507 574.033C878.944 570.978 878.608 567.423 878.544 564.327C878.333 554.09 876.931 543.765 875.958 533.57L872.64 501.489C871.783 493.289 871.167 485.084 869.286 477.036C868.047 471.737 865.798 466.383 862.775 461.859Z"/>
	<path fill="#07AABC" transform="scale(0.488281 0.488281)" d="M712.141 138.901C714.581 136.632 717.899 134.947 720.713 133.144C731.762 126.066 743.819 118.352 756.804 115.556C759.145 115.053 761.38 114.573 763.785 114.481C776.129 114.011 787.331 118.395 796.298 126.788C807.94 142.525 811.377 163.253 813.905 182.234L818.266 226.359L821.473 260.631C823.116 277.966 826.253 295.652 826.718 313.04L806.45 290.394C784.96 267.807 762.002 246.356 736.147 228.837C728.803 223.861 720.861 218.505 712.474 215.443C711.209 215.25 710.018 215.246 709.104 214.25C713.003 205.569 718.112 195.01 719.171 185.541C722.482 174.617 726.654 160.77 725.23 149.352L725.11 148.5C724.723 145.567 723.83 143.425 722.554 140.803C718.906 139.093 716.108 138.905 712.141 138.901Z"/>
	<defs>
		<linearGradient id="gradient_4" gradientUnits="userSpaceOnUse" x1="724.90002" y1="180.3313" x2="716.70532" y2="178.38271">
			<stop offset="0" stop-color="#600012"/>
			<stop offset="1" stop-color="#40041B"/>
		</linearGradient>
	</defs>
	<path fill="url(#gradient_4)" transform="scale(0.488281 0.488281)" d="M722.554 140.803C725.971 142.493 727.996 144.377 729.299 148.063C730.71 152.055 730.245 156.686 729.834 160.816C727.93 179.97 720.3 198.05 712.474 215.443C711.209 215.25 710.018 215.246 709.104 214.25C713.003 205.569 718.112 195.01 719.171 185.541C722.482 174.617 726.654 160.77 725.23 149.352L725.11 148.5C724.723 145.567 723.83 143.425 722.554 140.803Z"/>
	<path fill="#035A63" transform="scale(0.488281 0.488281)" d="M307.315 330.195L307.583 329.443C311.858 316.807 318.688 305.008 323.672 292.621L339.648 251.125L358.421 209.263C364.198 197.491 369.937 186.17 377.513 175.412C387.339 161.459 400.126 150.959 417.25 147.818C426.213 146.174 435.488 146.927 444.548 147.033C461.705 151.35 477.879 158.175 493.635 166.14C518.64 178.781 542.692 193.928 557.468 218.616C562.502 227.028 565.991 235.808 568.031 245.399C570.223 249.444 571.272 253.953 572.366 258.398C573.902 264.642 575.316 271.3 575.427 277.75C575.619 288.923 572.955 301.202 569.823 311.91C568.171 317.559 565.736 323.31 564.709 329.101C566.093 326.833 567.023 324.086 568.039 321.628L574.964 303.2C576.319 299.402 577.469 295.417 579.431 291.882C579.12 301.252 580.65 310.554 580.33 319.859C580.147 325.192 578.167 331.022 578.387 336.177L571.506 358.399C572.242 361.825 571.401 365.325 570.98 368.75L569.9 381.134C568.674 402.86 570.585 426.848 577.406 447.521C578.582 452.76 578.641 457.668 578.614 462.997C577.957 468.54 577.131 475.899 578.204 481.394L577.737 483.496C576.493 485.553 577.484 489.144 577.965 491.514L578.505 493.227C578.415 504.23 585.605 514.571 592.853 522.325C595.107 524.737 598.358 527.378 600.139 530.1C602.33 531.017 604.161 533.321 605.855 534.975L614.721 542.999C613.341 545.549 611.783 547.476 609.705 549.493C607.882 551.262 605.94 552.222 605.184 554.812L594.747 572.442L561.333 627.587C557.026 633.73 553.691 640.711 550.203 647.347L530.189 688.371C524.876 699.323 521.098 710.862 517.663 722.516C514.775 732.319 512.073 741.997 510.001 752.016L506.586 771.643C504.579 757.946 507.184 742.814 509.768 729.38L487 744.037C483.387 746.247 479.78 748.633 475.817 750.163C472.068 758.183 468.323 766.148 463.789 773.768C445.154 805.091 417.859 833.204 384.965 849.262C379.033 851.499 373.011 853.83 366.901 855.523C347.609 860.868 328.317 862.305 308.457 860.514C299.204 859.981 289.514 857.71 280.5 855.538C244.847 846.947 210.297 831.634 179.336 812.027C147.647 791.959 117.236 764.555 104.889 728.132C101.422 717.904 100.416 707.674 98.0614 697.248C97.4795 676.298 99.0466 656.304 102.173 635.599C106.019 639.564 104.136 644.941 106.924 649.092C107.286 644.952 107.548 641.019 108.911 637.062C111.47 629.632 115.734 622.291 119.09 615.169C134.855 581.71 154.392 549.474 178.523 521.343C184.134 514.802 190.366 508.702 196.389 502.541C202.391 496.402 209.655 487.854 217.419 484.177L218.495 471.381L218.621 469.372L219.107 460C221.235 439.086 232.898 419.92 244.684 403.088C251.12 393.897 257.554 385.079 265.051 376.7C269.23 372.028 273.29 367.18 278.206 363.261L286.315 352.863L307.315 330.195Z"/>
	<path fill="#BE5412" transform="scale(0.488281 0.488281)" d="M406.069 560.245C415.496 563.212 423.681 565.973 432.388 570.935C435.62 572.778 438.873 574.587 441.485 577.278C435.546 584.722 429.34 591.882 422.542 598.561C415.612 605.37 408.466 612.546 398.208 613.458C395.567 613.692 392.676 613.377 390.067 612.963L389.037 612.198L388.339 611.135C387.855 610.259 387.041 608.881 386.799 607.931C386.038 604.942 388.401 598.45 389.338 595.489C389.558 593.792 391.567 590.556 392.334 588.879L406.069 560.245Z"/>
	<path fill="#C3701E" transform="scale(0.488281 0.488281)" d="M441.872 484.979C448.741 487.828 457.339 490.667 462.476 496.176C462.751 496.489 463.702 497.802 464 497.914C465.778 498.588 470.638 495.139 472.776 494.555C474.174 494.173 476.02 494.525 477.449 494.688C473.359 501.769 469.322 508.942 466.43 516.613C460.015 533.626 456.749 551.91 449.687 568.703C443.839 563.007 436.701 556.941 429.104 553.764L424.238 551.678L422.68 551.107C421.086 550.411 419.491 550.199 417.86 549.649L417.002 549.355C430.586 530.817 436.022 506.813 441.872 484.979Z"/>
	<path fill="#5D2524" transform="scale(0.488281 0.488281)" d="M564.709 329.101C566.093 326.833 567.023 324.086 568.039 321.628L574.964 303.2C576.319 299.402 577.469 295.417 579.431 291.882C579.12 301.252 580.65 310.554 580.33 319.859C580.147 325.192 578.167 331.022 578.387 336.177L571.506 358.399C563.892 380.821 554.643 402.317 545.257 424.025L508.776 504.11L495.672 530.285C493.768 533.816 491.948 537.789 489.543 541.01C490.336 524.662 494.883 509.161 499.25 493.516C506.767 466.587 515.854 440.662 526.208 414.694L538.981 383.704L553.691 354.565C557.806 346.239 561.329 337.744 564.709 329.101Z"/>
	<path fill="#047C7E" transform="scale(0.488281 0.488281)" d="M390.067 612.963L390.179 613.375C391.013 615.643 393.04 617.709 395.267 618.652C399.914 620.62 405.582 620.056 410.178 618.198C416.189 615.767 421.399 610.783 425.974 606.324L443.862 587.491C448.532 582.351 454.615 576.952 457.375 570.508C466.294 549.683 469.986 527.081 479.806 506.601C479.326 514.936 477.953 523.174 477.7 531.504C477.416 540.823 478.468 550.072 478.913 559.362C479.246 568.937 482.525 649.337 480.716 651.906C480.311 651.713 479.947 651.365 479.5 651.328C478.589 651.253 476.819 651.805 475.865 651.977L467.752 653.462L441.43 657.826C435.469 658.847 429.451 660.156 423.434 660.736L423.026 660.907L374.613 669.761C368.633 670.877 361.642 671.415 355.917 673.289C357.556 669.257 360.112 665.396 362.183 661.548L375.659 637.141C380.329 629.068 385.552 620.859 389.037 612.198L390.067 612.963Z"/>
	<path fill="#48A787" transform="scale(0.488281 0.488281)" d="M423.434 660.736L478.913 559.362C479.246 568.937 482.525 649.337 480.716 651.906C480.311 651.713 479.947 651.365 479.5 651.328C478.589 651.253 476.819 651.805 475.865 651.977L467.752 653.462L441.43 657.826C435.469 658.847 429.451 660.156 423.434 660.736Z"/>
	<path fill="#DEB73E" transform="scale(0.488281 0.488281)" d="M571.506 358.399C572.242 361.825 571.401 365.325 570.98 368.75L569.9 381.134C568.674 402.86 570.585 426.848 577.406 447.521C578.582 452.76 578.641 457.668 578.614 462.997C577.957 468.54 577.131 475.899 578.204 481.394L577.737 483.496C576.493 485.553 577.484 489.144 577.965 491.514L578.505 493.227C578.415 504.23 585.605 514.571 592.853 522.325C595.107 524.737 598.358 527.378 600.139 530.1C602.33 531.017 604.161 533.321 605.855 534.975L614.721 542.999C613.341 545.549 611.783 547.476 609.705 549.493C607.882 551.262 605.94 552.222 605.184 554.812L594.747 572.442L561.333 627.587C557.026 633.73 553.691 640.711 550.203 647.347L530.189 688.371C524.876 699.323 521.098 710.862 517.663 722.516C514.775 732.319 512.073 741.997 510.001 752.016L506.586 771.643C504.579 757.946 507.184 742.814 509.768 729.38L487 744.037C483.387 746.247 479.78 748.633 475.817 750.163C483.452 732.241 489.917 712.469 492.986 693.18C498.586 657.978 494.821 622.695 492.224 587.432L490.434 563.495C489.841 556.021 489.096 548.513 489.543 541.01C491.948 537.789 493.768 533.816 495.672 530.285L508.776 504.11L545.257 424.025C554.643 402.317 563.892 380.821 571.506 358.399Z"/>
	<defs>
		<linearGradient id="gradient_5" gradientUnits="userSpaceOnUse" x1="543.8847" y1="642.78345" x2="561.6004" y2="651.27197">
			<stop offset="0" stop-color="#047763"/>
			<stop offset="1" stop-color="#027175"/>
		</linearGradient>
	</defs>
	<path fill="url(#gradient_5)" transform="scale(0.488281 0.488281)" d="M600.139 530.1C602.33 531.017 604.161 533.321 605.855 534.975L614.721 542.999C613.341 545.549 611.783 547.476 609.705 549.493C607.882 551.262 605.94 552.222 605.184 554.812L594.747 572.442L561.333 627.587C557.026 633.73 553.691 640.711 550.203 647.347L530.189 688.371C524.876 699.323 521.098 710.862 517.663 722.516C514.775 732.319 512.073 741.997 510.001 752.016L506.586 771.643C504.579 757.946 507.184 742.814 509.768 729.38L519.049 698.746C531.695 662.967 549.591 629.849 568.942 597.322L589.972 563.223C593.311 557.797 597.573 551.884 599.988 546.009C600.593 544.538 600.339 542.553 600.326 540.993L600.139 530.1Z"/>
	<path fill="#48A787" transform="scale(0.488281 0.488281)" d="M102.173 635.599C106.019 639.564 104.136 644.941 106.924 649.092C106.947 663.32 108.649 676.117 113.402 689.589C114.133 693.549 115.712 697.347 117.25 701.057C122.237 713.085 129.372 723.281 136.833 733.82C148.471 748.93 161.035 761.959 176.868 772.779C191.041 783.762 207.582 792.387 223.448 800.609L289.044 684.343L289.908 684.016C296.885 683.617 304.277 681.788 311.172 680.529L339.974 675.651C344.938 674.836 350.414 673.396 355.423 673.639L355.917 673.289C361.642 671.415 368.633 670.877 374.613 669.761L423.026 660.907L423.434 660.736C429.451 660.156 435.469 658.847 441.43 657.826L467.752 653.462L475.865 651.977C476.819 651.805 478.589 651.253 479.5 651.328C479.947 651.365 480.311 651.713 480.716 651.906C480.405 659.313 479.952 667.082 478.026 674.26C478.777 681.609 476.992 689.296 475.555 696.5C468.343 732.675 451.922 765.804 428.72 794.374C416.708 809.163 401.968 821.267 385.815 831.264C378.707 835.663 371.49 839.808 363.712 842.928C353.962 846.84 343.171 848.986 332.894 851.079C326.584 852.365 319.154 853.068 313.343 855.965C311.401 856.933 309.741 858.795 308.457 860.514C299.204 859.981 289.514 857.71 280.5 855.538C244.847 846.947 210.297 831.634 179.336 812.027C147.647 791.959 117.236 764.555 104.889 728.132C101.422 717.904 100.416 707.674 98.0614 697.248C97.4795 676.298 99.0466 656.304 102.173 635.599Z"/>
	<path fill="#44C7A1" transform="scale(0.488281 0.488281)" d="M423.434 660.736C429.451 660.156 435.469 658.847 441.43 657.826L467.752 653.462L475.865 651.977C476.819 651.805 478.589 651.253 479.5 651.328C479.947 651.365 480.311 651.713 480.716 651.906C480.405 659.313 479.952 667.082 478.026 674.26C473.715 686.081 469.467 698.24 463.939 709.556C451.356 735.311 435.066 757.911 414.72 778.059C400.468 792.173 385 804.359 366.734 812.868C356.653 817.565 343.821 821.308 332.633 821.592L423.026 660.907L423.434 660.736Z"/>
	<path fill="#07AABC" transform="scale(0.488281 0.488281)" d="M423.026 660.907L332.633 821.592L312.25 822.359C299.831 822.357 287.129 820.636 274.962 818.226C263.581 815.483 252.641 812.284 241.674 808.149L223.448 800.609L289.044 684.343L289.908 684.016C296.885 683.617 304.277 681.788 311.172 680.529L339.974 675.651C344.938 674.836 350.414 673.396 355.423 673.639L355.917 673.289C361.642 671.415 368.633 670.877 374.613 669.761L423.026 660.907Z"/>
	<path fill="#A6ECC4" transform="scale(0.488281 0.488281)" d="M289.908 684.016C296.885 683.617 304.277 681.788 311.172 680.529L339.974 675.651C344.938 674.836 350.414 673.396 355.423 673.639L298.482 776.362L282.373 804.849C279.952 809.127 276.716 813.686 274.962 818.226C263.581 815.483 252.641 812.284 241.674 808.149L223.448 800.609L289.044 684.343L289.908 684.016Z"/>
	<path fill="#B24013" transform="scale(0.488281 0.488281)" d="M346.396 481.39C361.671 478.624 375.978 476.777 391.544 476.932C408.974 477.692 425.157 479.874 441.872 484.979C436.022 506.813 430.586 530.817 417.002 549.355L417.86 549.649C419.491 550.199 421.086 550.411 422.68 551.107L424.238 551.678L429.104 553.764C436.701 556.941 443.839 563.007 449.687 568.703C449.027 570.043 448.266 572.187 446.868 572.881L446.577 572.972C444.143 573.754 443.009 575.32 441.485 577.278C438.873 574.587 435.62 572.778 432.388 570.935C423.681 565.973 415.496 563.212 406.069 560.245L392.334 588.879C391.567 590.556 389.558 593.792 389.338 595.489C388.401 598.45 386.038 604.942 386.799 607.931C387.041 608.881 387.855 610.259 388.339 611.135L389.037 612.198C385.552 620.859 380.329 629.068 375.659 637.141L362.183 661.548C360.112 665.396 357.556 669.257 355.917 673.289L355.423 673.639C350.414 673.396 344.938 674.836 339.974 675.651L311.172 680.529C304.277 681.788 296.885 683.617 289.908 684.016L289.044 684.343L223.448 800.609C207.582 792.387 191.041 783.762 176.868 772.779C161.035 761.959 148.471 748.93 136.833 733.82C129.372 723.281 122.237 713.085 117.25 701.057C115.712 697.347 114.133 693.549 113.402 689.589C108.649 676.117 106.947 663.32 106.924 649.092C107.286 644.952 107.548 641.019 108.911 637.062C111.47 629.632 115.734 622.291 119.09 615.169C134.855 581.71 154.392 549.474 178.523 521.343C184.134 514.802 190.366 508.702 196.389 502.541C202.391 496.402 209.655 487.854 217.419 484.177C217.42 489.05 217.302 493.975 218.3 498.772L218.379 500.037C219.91 506.605 221.474 513.671 226.737 518.318C223.501 523.057 220.539 528.204 218.213 533.457L241.903 518.665L241.338 519.392C239.929 521.131 237.256 522.31 235.358 523.503L235.875 523.753L236.414 523.424L239.275 521.879C239.938 521.547 240.388 521.096 241 520.755L241.625 520.503L242.408 520.065C243.634 519.391 244.136 519.127 245.534 519.318L309.36 491.963L346.396 481.39Z"/>
	<path fill="#E59706" transform="scale(0.488281 0.488281)" d="M378.665 543.521C391.022 544.447 405.413 544.475 417.002 549.355L417.86 549.649C419.491 550.199 421.086 550.411 422.68 551.107L424.238 551.678L429.104 553.764C436.701 556.941 443.839 563.007 449.687 568.703C449.027 570.043 448.266 572.187 446.868 572.881L446.577 572.972C441.35 569.204 436.218 565.354 430.553 562.25C424.628 559.004 418.486 556.756 412.1 554.622C409.598 553.417 405.511 553.189 402.75 552.814C385.023 550.401 368.019 551.259 350.366 553.79L350.099 548.728L366.604 546.895C369.502 546.635 372.773 546.869 375.56 546.059C378.034 544.902 379.939 545.5 382.494 545.513C385.08 545.525 387.975 545.179 390.5 545.75C391.191 545.906 391.646 546.024 392.359 545.954C394.071 545.787 395.784 545.924 397.5 546L397.5 545.567L394.511 545.489C391.776 544.893 389.02 544.94 386.25 544.5C384.473 544.218 382.475 544.889 380.732 544.278L380.002 543.999L379.224 543.729L378.665 543.521Z"/>
	<path fill="#B8770D" transform="scale(0.488281 0.488281)" d="M378.665 543.521C391.022 544.447 405.413 544.475 417.002 549.355L417.86 549.649C419.491 550.199 421.086 550.411 422.68 551.107L424.238 551.678L429.104 553.764C436.701 556.941 443.839 563.007 449.687 568.703C449.027 570.043 448.266 572.187 446.868 572.881L446.577 572.972C441.35 569.204 436.218 565.354 430.553 562.25C424.628 559.004 418.486 556.756 412.1 554.622L416.27 550.26C412.619 548.608 407.344 548.039 403.359 547.568C394.076 546.47 384.898 546.132 375.56 546.059C378.034 544.902 379.939 545.5 382.494 545.513C385.08 545.525 387.975 545.179 390.5 545.75C391.191 545.906 391.646 546.024 392.359 545.954C394.071 545.787 395.784 545.924 397.5 546L397.5 545.567L394.511 545.489C391.776 544.893 389.02 544.94 386.25 544.5C384.473 544.218 382.475 544.889 380.732 544.278L380.002 543.999L379.224 543.729L378.665 543.521Z"/>
	<defs>
		<linearGradient id="gradient_6" gradientUnits="userSpaceOnUse" x1="275.14142" y1="596.63" x2="267.73752" y2="571.24023">
			<stop offset="0" stop-color="#F9AC0A"/>
			<stop offset="1" stop-color="#FAED0E"/>
		</linearGradient>
	</defs>
	<path fill="url(#gradient_6)" transform="scale(0.488281 0.488281)" d="M350.099 548.728L350.366 553.79C329.708 557.398 309.871 563.33 290.141 570.339C266.057 578.895 241.751 589.478 220.121 603.205C210.715 609.174 202.65 616.446 193.62 622.803L193.193 622.229L194.416 619C194.839 617.884 195.235 616.705 195.944 615.729C197.29 613.874 200.134 612.785 202.105 611.702C204.349 610.47 206.465 608.931 208.519 607.41C236.032 587.048 267.696 572.406 300.126 561.719C309.591 558.6 319.167 555.446 328.847 553.056L350.099 548.728Z"/>
	<path fill="#047C7E" transform="scale(0.488281 0.488281)" d="M193.331 636.709C191.459 641.999 187.77 647.232 184.894 652.091L165.511 684.25C162.101 689.821 157.972 695.531 155.278 701.461L154.858 701.459C149.471 701.057 143.037 700.683 138.211 698.018C136.158 696.884 135.808 695.185 135.232 693.081C137.457 692.643 139.976 692.112 141.693 690.52C147.158 685.452 151.562 678.242 156.547 672.597C162.936 665.364 169.867 658.705 176.821 652.024C182.232 646.825 187.575 641.531 193.331 636.709Z"/>
	<path fill="#C3701E" transform="scale(0.488281 0.488281)" d="M348.041 544.561C356.569 542.944 365.473 542.557 374.133 542.295C375.602 542.669 377.27 542.954 378.665 543.521L379.224 543.729L380.002 543.999L380.732 544.278C382.475 544.889 384.473 544.218 386.25 544.5C389.02 544.94 391.776 544.893 394.511 545.489L397.5 545.567L397.5 546C395.784 545.924 394.071 545.787 392.359 545.954C391.646 546.024 391.191 545.906 390.5 545.75C387.975 545.179 385.08 545.525 382.494 545.513C379.939 545.5 378.034 544.902 375.56 546.059C372.773 546.869 369.502 546.635 366.604 546.895L350.099 548.728L328.847 553.056C319.167 555.446 309.591 558.6 300.126 561.719C267.696 572.406 236.032 587.048 208.519 607.41C206.465 608.931 204.349 610.47 202.105 611.702C200.134 612.785 197.29 613.874 195.944 615.729C195.235 616.705 194.839 617.884 194.416 619L193.193 622.229L193.62 622.803L191.6 624.413C192.528 620.1 193.838 617.81 193.139 613.253L197.045 569.25L198.492 556.826C198.683 555.414 199.305 553.676 199.282 552.3C199.274 551.777 199.142 551.569 198.951 551.142L201.294 549.431L197.001 611.084L240.074 581.95C260.279 569.813 283.122 560.513 305.704 553.894L348.041 544.561Z"/>
	<path fill="#A6ECC4" transform="scale(0.488281 0.488281)" d="M202.544 628.457C227.327 607.643 255.304 593.063 285.46 581.597C283.423 586.501 280.561 591.111 277.996 595.757L266.116 616.799L265.483 617.19L235.376 622.868L212.096 627.187C209.033 627.695 205.642 628.744 202.544 628.457Z"/>
	<path fill="#DEB73E" transform="scale(0.488281 0.488281)" d="M240.942 522.079L240.88 546.572L240.066 570.799C239.965 574.218 239.319 578.661 240.074 581.95L197.001 611.084L201.294 549.431C213.897 539.528 226.855 529.764 240.942 522.079Z"/>
	<path fill="#4EE6AD" transform="scale(0.488281 0.488281)" d="M285.46 581.597L285.534 581.485C294.83 577.261 304.997 574.213 314.775 571.287C328.986 567.034 342.85 563.295 357.486 560.755L334.014 604.97L266.116 616.799L277.996 595.757C280.561 591.111 283.423 586.501 285.46 581.597Z"/>
	<path fill="#DEB73E" transform="scale(0.488281 0.488281)" d="M218.213 533.457L241.903 518.665L241.338 519.392C239.929 521.131 237.256 522.31 235.358 523.503L235.875 523.753L236.414 523.424L239.275 521.879C239.938 521.547 240.388 521.096 241 520.755L241.625 520.503L242.408 520.065C243.634 519.391 244.136 519.127 245.534 519.318L240.942 522.079C226.855 529.764 213.897 539.528 201.294 549.431L198.951 551.142C199.142 551.569 199.274 551.777 199.282 552.3C199.305 553.676 198.683 555.414 198.492 556.826L197.045 569.25L193.139 613.253C193.838 617.81 192.528 620.1 191.6 624.413C188.882 625.975 186.617 628.561 184.311 630.673C170.31 643.497 158.759 657.742 147.846 673.228C146.511 675.123 140.281 684.936 139.155 684.95L138.811 683.626L137.929 683.991C137.62 684.894 137.494 685.443 137.484 686.407C137.469 687.884 136.621 689.193 135.95 690.468L135.029 691.026C134.875 688.262 135.793 685.235 136.391 682.55C138.807 671.704 142.816 661.326 145.815 650.644L161.28 591.4C162.486 588.744 163.593 585.998 165.174 583.54C167.556 576.757 173.388 570.756 178.146 565.522C184.402 561.279 189.905 555.063 195.899 550.304L218.213 533.457Z"/>
	<path fill="#BE5412" transform="scale(0.488281 0.488281)" d="M218.213 533.457L241.903 518.665L241.338 519.392C239.929 521.131 237.256 522.31 235.358 523.503L235.875 523.753L236.414 523.424L239.275 521.879C239.938 521.547 240.388 521.096 241 520.755L241.625 520.503L242.408 520.065C243.634 519.391 244.136 519.127 245.534 519.318L240.942 522.079C226.855 529.764 213.897 539.528 201.294 549.431L198.951 551.142L195.82 553.522C188.342 559.636 180.61 565.839 174.628 573.485C172.617 576.054 171.135 578.957 169.199 581.562C163.473 592.509 160.943 603.581 157.984 615.46L151.309 640.857L142.372 671.335C140.285 675.221 140.46 679.737 138.811 683.626L137.929 683.991C137.62 684.894 137.494 685.443 137.484 686.407C137.469 687.884 136.621 689.193 135.95 690.468L135.029 691.026C134.875 688.262 135.793 685.235 136.391 682.55C138.807 671.704 142.816 661.326 145.815 650.644L161.28 591.4C162.486 588.744 163.593 585.998 165.174 583.54C167.556 576.757 173.388 570.756 178.146 565.522C184.402 561.279 189.905 555.063 195.899 550.304L218.213 533.457Z"/>
	<path fill="#E59706" transform="scale(0.488281 0.488281)" d="M142.372 671.335C143.493 670.939 144.732 666.082 145.375 664.747L145.73 665.88L146.656 666.019L147.248 664.747C147.567 663.821 147.568 662.87 148.118 662C149.799 659.339 152.691 656.737 154.635 654.095C166.205 638.37 176.827 624.378 193.139 613.253C193.838 617.81 192.528 620.1 191.6 624.413C188.882 625.975 186.617 628.561 184.311 630.673C170.31 643.497 158.759 657.742 147.846 673.228C146.511 675.123 140.281 684.936 139.155 684.95L138.811 683.626C140.46 679.737 140.285 675.221 142.372 671.335Z"/>
	<path fill="#F5E887" transform="scale(0.488281 0.488281)" d="M245.534 519.318L309.36 491.963L305.704 553.894C283.122 560.513 260.279 569.813 240.074 581.95C239.319 578.661 239.965 574.218 240.066 570.799L240.88 546.572L240.942 522.079L245.534 519.318Z"/>
	<path fill="#48A787" transform="scale(0.488281 0.488281)" d="M202.544 628.457C205.642 628.744 209.033 627.695 212.096 627.187L235.376 622.868L265.483 617.19L234.516 670.75L225.25 686.967C223.833 689.432 221.929 692.036 220.842 694.651L220.718 694.936C215.017 695.243 209.292 696.348 203.64 697.145L181.474 699.72L164.522 700.965C161.59 701.104 158.057 700.71 155.278 701.461C157.972 695.531 162.101 689.821 165.511 684.25L184.894 652.091C187.77 647.232 191.459 641.999 193.331 636.709L202.544 628.457Z"/>
	<path fill="#02856D" transform="scale(0.488281 0.488281)" d="M334.014 604.97L289.908 684.016L289.044 684.343L220.842 694.651C221.929 692.036 223.833 689.432 225.25 686.967L234.516 670.75L265.483 617.19L266.116 616.799L334.014 604.97Z"/>
	<path fill="#48A787" transform="scale(0.488281 0.488281)" d="M357.486 560.755C369.837 558.943 382.098 557.361 394.609 558.219C398.319 558.474 402.631 558.735 406.069 560.245L392.334 588.879C391.567 590.556 389.558 593.792 389.338 595.489C388.401 598.45 386.038 604.942 386.799 607.931C387.041 608.881 387.855 610.259 388.339 611.135L389.037 612.198C385.552 620.859 380.329 629.068 375.659 637.141L362.183 661.548C360.112 665.396 357.556 669.257 355.917 673.289L355.423 673.639C350.414 673.396 344.938 674.836 339.974 675.651L311.172 680.529C304.277 681.788 296.885 683.617 289.908 684.016L334.014 604.97L357.486 560.755Z"/>
	<path fill="#A6ECC4" transform="scale(0.488281 0.488281)" d="M357.486 560.755C369.837 558.943 382.098 557.361 394.609 558.219C398.319 558.474 402.631 558.735 406.069 560.245L392.334 588.879C391.567 590.556 389.558 593.792 389.338 595.489L334.014 604.97L357.486 560.755Z"/>
	<path fill="#A6ECC4" transform="scale(0.488281 0.488281)" d="M217.419 484.177C217.42 489.05 217.302 493.975 218.3 498.772L218.379 500.037C219.91 506.605 221.474 513.671 226.737 518.318C223.501 523.057 220.539 528.204 218.213 533.457L195.899 550.304C189.905 555.063 184.402 561.279 178.146 565.522C173.388 570.756 167.556 576.757 165.174 583.54C163.593 585.998 162.486 588.744 161.28 591.4L145.815 650.644C142.816 661.326 138.807 671.704 136.391 682.55C135.793 685.235 134.875 688.262 135.029 691.026L135.232 693.081C135.808 695.185 136.158 696.884 138.211 698.018C143.037 700.683 149.471 701.057 154.858 701.459L136.833 733.82C129.372 723.281 122.237 713.085 117.25 701.057C115.712 697.347 114.133 693.549 113.402 689.589C108.649 676.117 106.947 663.32 106.924 649.092C107.286 644.952 107.548 641.019 108.911 637.062C111.47 629.632 115.734 622.291 119.09 615.169C134.855 581.71 154.392 549.474 178.523 521.343C184.134 514.802 190.366 508.702 196.389 502.541C202.391 496.402 209.655 487.854 217.419 484.177Z"/>
	<path fill="#07AABC" transform="scale(0.488281 0.488281)" d="M178.146 565.522L178.441 564.497C179.257 562.413 180.898 560.349 182.056 558.423L190.799 543.908L216.85 501.293C217.292 500.627 217.653 500.354 218.379 500.037C219.91 506.605 221.474 513.671 226.737 518.318C223.501 523.057 220.539 528.204 218.213 533.457L195.899 550.304C189.905 555.063 184.402 561.279 178.146 565.522Z"/>
	<path fill="#07AABC" transform="scale(0.488281 0.488281)" d="M113.402 689.589C114.711 687.614 115.347 685.096 116.21 682.894L120.616 672.783L150.904 611.539L156.488 600C157.886 597.001 159.056 593.902 161.28 591.4L145.815 650.644C142.816 661.326 138.807 671.704 136.391 682.55C135.793 685.235 134.875 688.262 135.029 691.026L135.232 693.081C135.808 695.185 136.158 696.884 138.211 698.018C143.037 700.683 149.471 701.057 154.858 701.459L136.833 733.82C129.372 723.281 122.237 713.085 117.25 701.057C115.712 697.347 114.133 693.549 113.402 689.589Z"/>
	<path fill="#F7B404" transform="scale(0.488281 0.488281)" d="M346.396 481.39C361.671 478.624 375.978 476.777 391.544 476.932C408.974 477.692 425.157 479.874 441.872 484.979C436.022 506.813 430.586 530.817 417.002 549.355C405.413 544.475 391.022 544.447 378.665 543.521C377.27 542.954 375.602 542.669 374.133 542.295C365.473 542.557 356.569 542.944 348.041 544.561L305.704 553.894L309.36 491.963L346.396 481.39Z"/>
	<path fill="#DEB73E" transform="scale(0.488281 0.488281)" d="M309.36 491.963L346.396 481.39L347.018 529.25C347.241 534.211 347.053 539.699 348.041 544.561L305.704 553.894L309.36 491.963Z"/>
	<path fill="#E59706" transform="scale(0.488281 0.488281)" d="M391.544 476.932C408.974 477.692 425.157 479.874 441.872 484.979C436.022 506.813 430.586 530.817 417.002 549.355C405.413 544.475 391.022 544.447 378.665 543.521C377.27 542.954 375.602 542.669 374.133 542.295C377.717 541.546 381.231 541.136 384.095 538.619C385.954 536.986 386.913 534.768 387.443 532.389C389.043 525.21 388.949 516.998 389.403 509.654L391.544 476.932Z"/>
	<path fill="#4EE6AD" transform="scale(0.488281 0.488281)" d="M220.842 694.651L289.044 684.343L223.448 800.609C207.582 792.387 191.041 783.762 176.868 772.779C161.035 761.959 148.471 748.93 136.833 733.82L154.858 701.459L155.278 701.461C158.057 700.71 161.59 701.104 164.522 700.965L181.474 699.72L203.64 697.145C209.292 696.348 215.017 695.243 220.718 694.936L220.842 694.651Z"/>
	<path fill="#A6ECC4" transform="scale(0.488281 0.488281)" d="M155.278 701.461C158.057 700.71 161.59 701.104 164.522 700.965L181.474 699.72L203.64 697.145C209.292 696.348 215.017 695.243 220.718 694.936C218.214 702.089 213.215 709.052 209.415 715.633L189.061 751.82C185.073 758.728 180.216 765.569 176.868 772.779C161.035 761.959 148.471 748.93 136.833 733.82L154.858 701.459L155.278 701.461Z"/>
	<path fill="#B24013" transform="scale(0.488281 0.488281)" d="M307.315 330.195L307.583 329.443C311.858 316.807 318.688 305.008 323.672 292.621L339.648 251.125L358.421 209.263C364.198 197.491 369.937 186.17 377.513 175.412C387.339 161.459 400.126 150.959 417.25 147.818C426.213 146.174 435.488 146.927 444.548 147.033C461.705 151.35 477.879 158.175 493.635 166.14C518.64 178.781 542.692 193.928 557.468 218.616C562.502 227.028 565.991 235.808 568.031 245.399C569.011 254.68 569.343 263.54 568.176 272.837C563.502 310.078 541.663 344.715 524.916 377.664L509.625 408.722C507.282 413.641 505.297 418.808 502.675 423.578C502.434 428.61 502.851 433.662 501.839 438.624C500.141 446.945 496.312 455.187 492.931 462.951C488.233 473.741 483.475 484.56 477.449 494.688C476.02 494.525 474.174 494.173 472.776 494.555C470.638 495.139 465.778 498.588 464 497.914C463.702 497.802 462.751 496.489 462.476 496.176C457.339 490.667 448.741 487.828 441.872 484.979C425.157 479.874 408.974 477.692 391.544 476.932C375.978 476.777 361.671 478.624 346.396 481.39L309.36 491.963L245.534 519.318C244.136 519.127 243.634 519.391 242.408 520.065L241.625 520.503L241 520.755C240.388 521.096 239.938 521.547 239.275 521.879L236.414 523.424L235.875 523.753L235.358 523.503C237.256 522.31 239.929 521.131 241.338 519.392L241.903 518.665L218.213 533.457C220.539 528.204 223.501 523.057 226.737 518.318C221.474 513.671 219.91 506.605 218.379 500.037L218.3 498.772C217.302 493.975 217.42 489.05 217.419 484.177L218.495 471.381L218.621 469.372L219.107 460C221.235 439.086 232.898 419.92 244.684 403.088C251.12 393.897 257.554 385.079 265.051 376.7C269.23 372.028 273.29 367.18 278.206 363.261L286.315 352.863L307.315 330.195Z"/>
	<path fill="#BE5412" transform="scale(0.488281 0.488281)" d="M218.621 469.372L220.648 467.317L219.456 484C219.367 487.925 220.065 492.97 219.305 496.75C219.132 497.611 218.787 498.061 218.3 498.772C217.302 493.975 217.42 489.05 217.419 484.177L218.495 471.381L218.621 469.372Z"/>
	<path fill="#4EE6AD" transform="scale(0.488281 0.488281)" d="M262.462 434.714L253.907 416.757C257.688 411.635 262.436 407.454 267.068 403.127C272.348 398.194 277.535 393.205 283.775 389.485C277.624 399.904 273.33 411.96 268.352 422.997C266.634 426.807 265.064 431.452 262.462 434.714Z"/>
	<path fill="#2F6833" transform="scale(0.488281 0.488281)" d="M300.181 378.466L274.424 436.204C271.4 442.443 268.503 449.708 264.403 455.284C262.704 450.24 261.128 439.91 262.462 434.714C265.064 431.452 266.634 426.807 268.352 422.997C273.33 411.96 277.624 399.904 283.775 389.485C288.392 385.124 294.669 381.589 300.181 378.466Z"/>
	<path fill="#44C7A1" transform="scale(0.488281 0.488281)" d="M459.099 413.335L464.25 440.809C465.632 449.781 466.799 459.093 465.821 468.166C465.039 475.416 462.789 482.347 460.024 489.068C458.039 489.549 449.329 484.701 446.837 483.683C439.139 480.539 430.698 478.715 422.556 477.154C431.856 462.999 439.83 447.537 447.975 432.674L454.049 421.5C455.59 418.598 456.858 415.784 459.099 413.335Z"/>
	<path fill="#EBEEC1" transform="scale(0.488281 0.488281)" d="M264.324 457.937L283.913 468.915C290.466 472.799 297.121 477.419 304.089 480.499C307.813 482.517 311.882 484.655 315.309 487.143C290.573 495.734 264.354 504.789 241.941 518.557L241.903 518.665L218.213 533.457C220.539 528.204 223.501 523.057 226.737 518.318C230.038 512.702 233.912 507.436 237.494 502L252.75 478.034C256.905 471.495 261.251 465.078 264.324 457.937Z"/>
	<path fill="#ED857B" transform="scale(0.488281 0.488281)" d="M426.974 307.836L427.399 307.622C438.895 301.646 442.936 286.896 448.087 275.823C450.461 290.144 457.08 302.53 462.477 315.888L484.854 371.2C488.723 381.123 494.031 392.201 495.321 402.797C495.833 406.995 495.263 411.553 494.804 415.74C492.818 433.884 486.875 449.648 479.428 466.204C474.927 476.209 470.066 486.433 464.076 495.642L463.05 495.502C462.884 494.933 462.993 495.202 462.67 494.613C461.987 493.371 461.536 492.397 461.226 491.013C462.16 489.625 462.925 488.01 463.627 486.487C467.426 478.251 469.611 470.095 469.931 461.001C470.234 452.422 468.827 443.685 467.419 435.244C464.06 415.104 458.71 395.227 452.071 375.926L439.049 341.667L426.974 307.836Z"/>
	<path fill="#A6ECC4" transform="scale(0.488281 0.488281)" d="M431.38 359.227L440.638 354.221L459.099 413.335C456.858 415.784 455.59 418.598 454.049 421.5L447.975 432.674C439.83 447.537 431.856 462.999 422.556 477.154C419.003 476.139 415.109 475.842 411.454 475.335C395.842 473.169 379.617 473.965 363.985 475.438C365.294 471.659 368.467 467.48 370.526 464L384 441L414.093 388.486L429.289 361.423L431.38 359.227Z"/>
	<path fill="#ED857B" transform="scale(0.488281 0.488281)" d="M424.817 267.986L425.044 267.086C425.828 264.491 427.304 261.837 428.382 259.32L435.966 241.876L446.285 216.609C448.036 212.41 449.701 207.673 452.136 203.845C454.224 200.563 457.617 197.877 461.101 196.173C464.275 194.621 467.512 193.779 470.947 194.979L471.478 195.178C472.484 196.44 472.867 197.085 472.774 198.75C472.522 203.259 469.726 208.694 468.239 212.987L454.672 249.556C449.551 263.286 444.456 278.262 437.319 291.065C435.372 294.559 432.871 297.33 429.75 299.797C423.333 304.87 415.088 308.252 407.81 311.916L378.607 326.607C349.052 341.129 319.978 357.302 292.306 375.17C281.953 381.854 271.403 388.523 261.908 396.403C254.317 402.701 246.904 410.403 240.87 418.197C229.449 432.947 223.24 448.288 220.725 466.706L220.648 467.317L218.621 469.372L219.107 460C221.235 439.086 232.898 419.92 244.684 403.088C251.12 393.897 257.554 385.079 265.051 376.7C269.23 372.028 273.29 367.18 278.206 363.261L286.315 352.863L307.315 330.195C311.746 328.215 315.826 323.39 319.968 320.565C325.218 316.985 330.943 314.133 336.388 310.857L388.111 285.82L421.283 270.97C422.873 270.181 423.839 269.467 424.817 267.986Z"/>
	<path fill="#FAF5FE" transform="scale(0.488281 0.488281)" d="M424.817 267.986L425.044 267.086C425.828 264.491 427.304 261.837 428.382 259.32L435.966 241.876L446.285 216.609C448.036 212.41 449.701 207.673 452.136 203.845C454.224 200.563 457.617 197.877 461.101 196.173C464.275 194.621 467.512 193.779 470.947 194.979L470.504 195.162C468.225 196.087 465.831 196.548 463.561 197.445C456.71 200.152 453.558 203.964 450.758 210.551L426.378 269.204C425.729 270.861 425.003 272.05 423.646 273.232C421.609 275.007 418.603 276.277 416.206 277.518L394.5 287.482C376.184 295.526 358.061 303.492 340.461 313.028C328.406 319.56 316.817 326.342 306.549 335.52L297.448 344.31C294.735 347.135 280.969 362.994 278.206 363.261L286.315 352.863L307.315 330.195C311.746 328.215 315.826 323.39 319.968 320.565C325.218 316.985 330.943 314.133 336.388 310.857L388.111 285.82L421.283 270.97C422.873 270.181 423.839 269.467 424.817 267.986Z"/>
	<path fill="#44C7A1" transform="scale(0.488281 0.488281)" d="M425.387 308.784L438.36 348.857L440.638 354.221L431.38 359.227L429.289 361.423L414.093 388.486L384 441L370.526 464C368.467 467.48 365.294 471.659 363.985 475.438C347.532 478.022 330.994 481.442 315.309 487.143C311.882 484.655 307.813 482.517 304.089 480.499C297.121 477.419 290.466 472.799 283.913 468.915L264.324 457.937L264.403 455.284C268.503 449.708 271.4 442.443 274.424 436.204L300.181 378.466L392.196 326.446C396.218 323.274 401.637 321.088 406.196 318.726L425.387 308.784Z"/>
	<path fill="#4EE6AD" transform="scale(0.488281 0.488281)" d="M283.913 468.915L315.456 442.338C320.462 438.317 325.778 433.769 331.434 430.697L315.706 458.569C311.539 465.739 307.101 472.74 304.089 480.499C297.121 477.419 290.466 472.799 283.913 468.915Z"/>
	<path fill="#047C7E" transform="scale(0.488281 0.488281)" d="M425.387 308.784L438.36 348.857L440.638 354.221L431.38 359.227L429.289 361.423C426.702 362.267 424.731 363.717 422.451 365.145L409.263 374.114L361.397 408.805C352.169 415.664 342.798 424.081 332.629 429.428C334.374 425.059 336.995 420.8 339.281 416.688L351.27 395.781L379.611 347.883L392.196 326.446C396.218 323.274 401.637 321.088 406.196 318.726L425.387 308.784Z"/>
	<path fill="#07AABC" transform="scale(0.488281 0.488281)" d="M431.38 359.227C432.875 355.995 435.939 351.411 438.36 348.857L440.638 354.221L431.38 359.227Z"/>
	<path fill="#07AABC" transform="scale(0.488281 0.488281)" d="M332.629 429.428C342.798 424.081 352.169 415.664 361.397 408.805L409.263 374.114L422.451 365.145C424.731 363.717 426.702 362.267 429.289 361.423L414.093 388.486L384 441L370.526 464C368.467 467.48 365.294 471.659 363.985 475.438C347.532 478.022 330.994 481.442 315.309 487.143C311.882 484.655 307.813 482.517 304.089 480.499C307.101 472.74 311.539 465.739 315.706 458.569L331.434 430.697L332.629 429.428Z"/>
	<path fill="#A6ECC4" transform="scale(0.488281 0.488281)" d="M307.315 330.195L307.583 329.443C311.858 316.807 318.688 305.008 323.672 292.621L339.648 251.125L358.421 209.263C364.198 197.491 369.937 186.17 377.513 175.412C387.339 161.459 400.126 150.959 417.25 147.818C426.213 146.174 435.488 146.927 444.548 147.033C461.705 151.35 477.879 158.175 493.635 166.14C518.64 178.781 542.692 193.928 557.468 218.616C562.502 227.028 565.991 235.808 568.031 245.399C569.011 254.68 569.343 263.54 568.176 272.837C563.502 310.078 541.663 344.715 524.916 377.664L509.625 408.722C507.282 413.641 505.297 418.808 502.675 423.578C500.334 400.831 490.952 380.151 483.538 358.825L455.247 290.273C452.981 285.618 451.528 279.293 451.832 274.16C452.292 266.378 455.833 258.587 458.456 251.32L471.567 216.93C473.222 212.737 476.595 206.481 476.881 202C477.052 199.334 475.212 196.839 473.675 194.873L471.478 195.178L470.947 194.979C467.512 193.779 464.275 194.621 461.101 196.173C457.617 197.877 454.224 200.563 452.136 203.845C449.701 207.673 448.036 212.41 446.285 216.609L435.966 241.876L428.382 259.32C427.304 261.837 425.828 264.491 425.044 267.086L424.817 267.986C423.839 269.467 422.873 270.181 421.283 270.97L388.111 285.82L336.388 310.857C330.943 314.133 325.218 316.985 319.968 320.565C315.826 323.39 311.746 328.215 307.315 330.195Z"/>
	<path fill="#4EE6AD" transform="scale(0.488281 0.488281)" d="M455.247 290.273C455.477 288.826 455.843 287.574 456.396 286.224C460.735 275.625 467.411 265.71 472.821 255.61C480.131 241.961 486.577 227.514 494.839 214.4C495.592 213.204 496.697 211.554 498 210.898C499.209 210.29 499.85 210.322 501.084 210.854C502.859 211.62 504.905 213.77 506.383 215.058C515.656 223.144 523.973 233.568 527.524 245.5L527.765 246.291C534.493 269.791 504.702 324.073 492.801 344.86L483.538 358.825L455.247 290.273Z"/>
	<path fill="#44C7A1" transform="scale(0.488281 0.488281)" d="M336.388 310.857L336.407 310.343C336.767 307.413 338.938 303.744 340.128 300.964L347.434 283.248C355.743 261.991 363.021 240.432 372.537 219.652C379.212 205.078 386.572 189.186 399.781 179.362C408.592 172.81 419.405 171.052 430.09 172.752C435.765 173.656 441.559 175.884 446.855 178.054C455.838 181.734 467.797 186.828 473.675 194.873L471.478 195.178L470.947 194.979C467.512 193.779 464.275 194.621 461.101 196.173C457.617 197.877 454.224 200.563 452.136 203.845C449.701 207.673 448.036 212.41 446.285 216.609L435.966 241.876L428.382 259.32C427.304 261.837 425.828 264.491 425.044 267.086L424.817 267.986C423.839 269.467 422.873 270.181 421.283 270.97L388.111 285.82L336.388 310.857Z"/>
</svg>
