<?xml version="1.0" encoding="utf-8" ?>
<svg xmlns="http://www.w3.org/2000/svg" xmlns:xlink="http://www.w3.org/1999/xlink" width="500" height="500">
	<path fill="#59A9A7" transform="scale(0.488281 0.488281)" d="M-0 -0L1024 0L1024 1024L-0 1024L0 -0Z"/>
	<path fill="#FCAB21" transform="scale(0.488281 0.488281)" d="M799.582 340.507L799.935 340.507C807.043 353.875 817.427 366.066 823.525 379.849L747.981 417.765L734.389 383.012L734.473 382.525C753.893 373.411 770.743 361.533 788.135 349.177C791.91 346.494 796.701 344.169 799.582 340.507Z"/>
	<path fill="#BF2E25" transform="scale(0.488281 0.488281)" d="M799.935 340.507C801.881 338.396 804.216 336.696 806.355 334.785L818.044 323.786C837.14 304.717 851.934 282.784 862.25 257.833L869.073 239.696C871.064 233.625 872.322 225.162 875.654 219.885L852.685 361.461L823.525 379.849C817.427 366.066 807.043 353.875 799.935 340.507Z"/>
	<path fill="#E4513B" transform="scale(0.488281 0.488281)" d="M875.522 184.558C877.356 183.344 879.326 183.128 881.465 182.956C881.222 188.643 879.961 194.568 879.073 200.209C878.048 206.709 877.247 213.505 875.654 219.885C872.322 225.162 871.064 233.625 869.073 239.696L862.25 257.833C851.934 282.784 837.14 304.717 818.044 323.786L806.355 334.785C804.216 336.696 801.881 338.396 799.935 340.507L799.582 340.507L752.347 266.001C761.586 259.706 771.79 254.449 781.299 248.532L837.889 211.771C850.635 203.098 863.561 194.273 875.522 184.558Z"/>
	<path fill="#EF7B13" transform="scale(0.488281 0.488281)" d="M379.161 687.473L457.74 697.727L467.672 743.457L481.005 810.161L390.364 799.754C389.44 799.519 388.556 799.393 387.614 799.264C388.776 799.114 388.269 799.31 389.162 798.75L383.918 735.176L384.531 735.151L379.161 687.473Z"/>
	<path fill="#BF2E25" transform="scale(0.488281 0.488281)" d="M379.161 687.473L457.74 697.727L467.672 743.457L450.446 742.182L407.516 738.18C400.013 737.407 391.878 736.85 384.531 735.151L379.161 687.473Z"/>
	<path fill="#BF2E25" transform="scale(0.488281 0.488281)" d="M373.704 905.486C379.215 891.313 383.782 876.255 386.316 861.25C389.725 841.064 389.81 820.894 389.525 800.5L390.364 799.754L481.005 810.161L493.794 916.463L442.802 912.575L427.673 911.171C424.784 910.893 421.751 910.82 418.947 910.072L418.331 910.131L373.704 905.486Z"/>
	<path fill="#A6231E" transform="scale(0.488281 0.488281)" d="M418.331 910.131C417.893 908.914 417.504 907.718 417.536 906.407C417.731 898.362 419.415 890.017 420.265 882L422.255 855.25L422.846 855.003C423.565 866.227 422.041 878.109 421.261 889.323L420.007 903.707C419.759 905.755 419.687 908.14 418.947 910.072L418.331 910.131Z"/>
	<path fill="#BF2E25" transform="scale(0.488281 0.488281)" d="M816.743 496.625C847.296 514.961 877.603 532.939 911.727 543.975L835.61 599.711L829.045 604.906L775.491 650.95L767.36 658.412L718.104 706.44L692.551 663.468C694.095 669.882 698.265 676.394 700.934 682.5L712.626 710.928C703.875 718.758 695.826 727.358 687.785 735.906C674.428 750.103 661.951 764.369 650.138 779.88C648.897 763.158 644.654 747.309 639.174 731.516C632.191 711.392 623.075 691.746 612.88 673.047C623.693 663.817 633.678 653.018 643.85 643.074L707.074 582.175C728.652 562.166 751.447 543.132 775.095 525.63L816.743 496.625Z"/>
	<path fill="#A6231E" transform="scale(0.488281 0.488281)" d="M829.045 604.906C827.504 601.705 826.821 598.183 825.104 594.927C816.77 579.123 803.139 565.442 789.802 553.75L790.25 553.275C796.641 558.349 803.136 563.157 809.201 568.642C816.43 575.179 822.753 582.265 828.75 589.923C831.18 593.026 833.951 596.119 835.61 599.711L829.045 604.906Z"/>
	<path fill="#A6231E" transform="scale(0.488281 0.488281)" d="M767.36 658.412C764.638 644.582 757.342 631.114 749.82 619.344C746.007 613.378 741.94 607.295 737.267 601.963L736.856 601.5L737.25 600.843C746.321 609.73 754.598 620.142 761.738 630.631C766.327 637.373 770.516 644.488 775.491 650.95L767.36 658.412Z"/>
	<path fill="#FCAB21" transform="scale(0.488281 0.488281)" d="M210.791 496.198L244.24 510.278L326 540.089C339.527 544.469 353.176 549.223 367.038 552.432L367.646 552.664L430.818 567.603L439.262 612.262L457.74 697.727L379.161 687.473L378.785 687.152L307 672.541L234.645 653.064L192.076 640.014C186.823 638.238 181.39 636.722 176.276 634.583L197.093 544.6L210.791 496.198Z"/>
	<path fill="#E4513B" transform="scale(0.488281 0.488281)" d="M210.791 496.198L244.24 510.278L326 540.089C339.527 544.469 353.176 549.223 367.038 552.432L367.646 552.664C367.309 557.056 367.728 561.537 367.951 565.932L369.134 586.639C369.414 590.78 369.225 595.399 370.007 599.446L197.093 544.6L210.791 496.198Z"/>
	<path fill="#EF7B13" transform="scale(0.488281 0.488281)" d="M367.646 552.664L430.818 567.603L439.262 612.262L457.74 697.727L379.161 687.473L378.785 687.152L370.007 599.446C369.225 595.399 369.414 590.78 369.134 586.639L367.951 565.932C367.728 561.537 367.309 557.056 367.646 552.664Z"/>
	<path fill="#BF2E25" transform="scale(0.488281 0.488281)" d="M367.646 552.664L430.818 567.603L439.262 612.262L370.007 599.446C369.225 595.399 369.414 590.78 369.134 586.639L367.951 565.932C367.728 561.537 367.309 557.056 367.646 552.664Z"/>
	<path fill="#EF7B13" transform="scale(0.488281 0.488281)" d="M646.373 420.884C649.518 419.199 653.402 418.023 656.757 416.757L674.878 409.837L709.363 394.723L725.551 386.791C728.152 385.482 731.536 383.116 734.389 383.012L747.981 417.765L726.404 426.898L728.052 429.42L759.419 456.195L816.743 496.625L775.095 525.63C751.447 543.132 728.652 562.166 707.074 582.175L643.85 643.074C633.678 653.018 623.693 663.817 612.88 673.047L577.709 614.415L548.711 575.448L485.091 501.876L577.288 479.553L567.55 444.97L623.672 428.489C631.06 426.106 638.984 424.091 646.018 420.823L646.373 420.884Z"/>
	<path fill="#BF2E25" transform="scale(0.488281 0.488281)" d="M728.052 429.42L759.419 456.195C736.444 470.268 714.571 487.55 693.712 504.552C663.671 529.038 635.02 554.832 607.836 582.463L577.709 614.415L548.711 575.448C587.176 535.393 629.767 500.077 674.432 467.183L728.052 429.42Z"/>
	<path fill="#EF7B13" transform="scale(0.488281 0.488281)" d="M646.373 420.884C649.518 419.199 653.402 418.023 656.757 416.757L674.878 409.837L709.363 394.723L725.551 386.791C728.152 385.482 731.536 383.116 734.389 383.012L747.981 417.765L726.404 426.898L728.052 429.42L674.432 467.183C629.767 500.077 587.176 535.393 548.711 575.448L485.091 501.876L577.288 479.553L567.55 444.97L623.672 428.489C631.06 426.106 638.984 424.091 646.018 420.823L646.373 420.884Z"/>
	<path fill="#FCAB21" transform="scale(0.488281 0.488281)" d="M646.018 420.823L646.373 420.884C650.602 431.743 654.135 443.13 656.079 454.644L577.288 479.553L567.55 444.97L623.672 428.489C631.06 426.106 638.984 424.091 646.018 420.823Z"/>
	<path fill="#BF2E25" transform="scale(0.488281 0.488281)" d="M646.373 420.884C649.518 419.199 653.402 418.023 656.757 416.757L674.878 409.837L709.363 394.723L725.551 386.791C728.152 385.482 731.536 383.116 734.389 383.012L747.981 417.765L726.404 426.898L656.079 454.644C654.135 443.13 650.602 431.743 646.373 420.884Z"/>
	<path fill="#FADE87" transform="scale(0.488281 0.488281)" d="M261.361 362.822L375.547 410.956L376.02 411.211L417.935 426.779L418.097 403.048C426.717 406.18 524.05 370.777 538.949 365.437L567.55 444.97L577.288 479.553L485.091 501.876L423.4 514.319L430.818 567.603L367.646 552.664L367.038 552.432C353.176 549.223 339.527 544.469 326 540.089L244.24 510.278L210.791 496.198C211.964 493.842 212.556 490.66 213.352 488.121L218.972 470.866L242.432 407.601L261.361 362.822Z"/>
	<path fill="#FCAB21" transform="scale(0.488281 0.488281)" d="M369.52 458.467L419.888 474.893L423.4 514.319L430.818 567.603L367.646 552.664L367.038 552.432C368.092 550.118 367.301 545.256 367.222 542.61L366.981 524.282L369.52 458.467Z"/>
	<path fill="#E4513B" transform="scale(0.488281 0.488281)" d="M261.361 362.822L375.547 410.956L376.02 411.211C374.992 414.193 374.562 417.479 373.983 420.578L370.916 442.554C370.391 447.735 369.52 453.272 369.52 458.467L242.432 407.601L261.361 362.822Z"/>
	<path fill="#E4513B" transform="scale(0.488281 0.488281)" d="M418.097 403.048C426.717 406.18 524.05 370.777 538.949 365.437L567.55 444.97L577.288 479.553L485.091 501.876L423.4 514.319L419.888 474.893L369.52 458.467C369.52 453.272 370.391 447.735 370.916 442.554L373.983 420.578C374.562 417.479 374.992 414.193 376.02 411.211L417.935 426.779L418.097 403.048Z"/>
	<path fill="#BF2E25" transform="scale(0.488281 0.488281)" d="M376.02 411.211L417.935 426.779L419.577 471.601C433.758 470.996 448.156 468.87 462.183 466.767L529.181 454.309L554.728 448.077C558.813 447.028 563.378 445.287 567.55 444.97L577.288 479.553L485.091 501.876L423.4 514.319L419.888 474.893L369.52 458.467C369.52 453.272 370.391 447.735 370.916 442.554L373.983 420.578C374.562 417.479 374.992 414.193 376.02 411.211Z"/>
	<path fill="#E4513B" transform="scale(0.488281 0.488281)" d="M176.276 634.583C181.39 636.722 186.823 638.238 192.076 640.014L234.645 653.064L307 672.541L378.785 687.152L379.161 687.473L384.531 735.151L383.918 735.176L389.162 798.75C388.269 799.31 388.776 799.114 387.614 799.264C388.556 799.393 389.44 799.519 390.364 799.754L389.525 800.5C389.81 820.894 389.725 841.064 386.316 861.25C383.782 876.255 379.215 891.313 373.704 905.486L340.429 900.929C335.204 900.233 329.921 899.166 324.652 898.991C328.123 883.197 329.712 867.029 330.96 850.933C331.523 843.676 332.35 836.056 332.177 828.785C330.545 832.452 329.806 837.439 328.918 841.398L324.431 860L313.479 896.853C309.606 895.66 305.345 895.289 301.344 894.611L282.062 891.196L264.384 888.043C258.981 886.959 253.629 885.618 248.138 885.063C251.772 873.269 253.393 860.584 255.423 848.434C257.349 836.908 259.791 824.904 260.472 813.237L234.469 882.361C228.463 880.216 221.541 879.304 215.331 877.824L174.893 868.327C174.719 866.846 176.19 864.102 176.683 862.621L180.17 850.571C185.435 831.788 190.825 812.452 194.273 793.25L193.75 792.959L193.458 793.983L186.303 815.512C181.343 829.497 175.813 842.978 169.312 856.329C168.039 858.944 166.508 863.338 164.56 865.374L118.23 851.084C124.36 840.228 128.782 828.809 133.104 817.148C141.621 794.171 148.089 770.975 153.289 747.035L166.753 682.368L176.276 634.583Z"/>
	<path fill="#FCAB21" transform="scale(0.488281 0.488281)" d="M176.276 634.583C181.39 636.722 186.823 638.238 192.076 640.014L234.645 653.064L307 672.541L378.785 687.152L379.161 687.473L384.531 735.151L383.918 735.176L389.162 798.75C388.269 799.31 388.776 799.114 387.614 799.264C325.357 791.472 264.046 778.556 203.511 762.173L168.831 752.225C163.664 750.627 158.203 749.277 153.289 747.035L166.753 682.368L176.276 634.583Z"/>
	<path fill="#E4513B" transform="scale(0.488281 0.488281)" d="M176.276 634.583C181.39 636.722 186.823 638.238 192.076 640.014L234.645 653.064L307 672.541L378.785 687.152L379.161 687.473L384.531 735.151L383.918 735.176C328.791 727.402 274.446 714.141 220.991 698.761L166.753 682.368L176.276 634.583Z"/>
	<path fill="#E4513B" transform="scale(0.488281 0.488281)" d="M336.998 232.428C360.666 203.154 389.164 176.219 421.142 156.165C467.521 127.08 519.278 111.663 573.934 109.647C590.68 109.029 607.555 109.91 624.236 111.342C643.928 113.033 663.751 115.503 683.043 119.917C710.301 124.369 737.475 132.003 763.858 140.035C773.422 142.946 783.606 145.515 792.823 149.356L792.182 149.411C787.52 149.771 782.863 149.451 778.197 149.607L734.405 151.918C708.36 154.262 682.477 157.636 657.003 163.664C608.657 175.105 561.52 195.407 522.667 226.766C509.821 237.135 497.812 249.199 486.998 261.649C478.38 271.57 470.289 282.154 462.992 293.079C460.86 296.271 458.04 299.897 456.551 303.4C462.405 307.088 469.129 310.417 474.555 314.634L474.645 315.023C478.103 316.088 481.819 319.744 484.881 321.856C483.036 324.711 480.464 327.232 478.25 329.821L468.676 341.75L460.16 353.794C458.915 355.58 457.683 357.764 456.211 359.322L438.948 386.638C433.511 393.434 428.745 399.283 419.97 401.636C418.983 401.901 419.396 401.76 418.371 402.319L418.097 403.048L417.935 426.779L376.02 411.211L375.547 410.956L261.361 362.822C264.954 353.817 269.739 344.878 274.033 336.178C284.91 314.141 296.381 292.451 309.619 271.726C311.91 267.241 314.996 262.925 317.784 258.726L336.998 232.428Z"/>
	<path fill="#BF2E25" transform="scale(0.488281 0.488281)" d="M474.645 315.023C478.103 316.088 481.819 319.744 484.881 321.856C483.036 324.711 480.464 327.232 478.25 329.821L468.676 341.75L460.16 353.794C458.915 355.58 457.683 357.764 456.211 359.322L448.812 355.073L474.645 315.023Z"/>
	<path fill="#BF2E25" transform="scale(0.488281 0.488281)" d="M399.897 327.079L421.496 283.561C422.592 283.468 452.338 301.29 456.057 303.534C453.249 310.739 448.209 317.709 444.69 324.683L438.138 338.594C436.879 341.465 435.925 344.671 434.16 347.254L399.883 327.51L399.897 327.079Z"/>
	<path fill="#FCAB21" transform="scale(0.488281 0.488281)" d="M309.619 271.726L365.312 307.119L390.068 321.783C393.27 323.538 396.523 325.722 399.897 327.079L399.883 327.51L434.16 347.254L434.546 347.608L448.461 355.11L448.812 355.073L456.211 359.322L438.948 386.638C433.511 393.434 428.745 399.283 419.97 401.636C418.983 401.901 419.396 401.76 418.371 402.319L418.097 403.048L417.935 426.779L376.02 411.211L375.547 410.956L261.361 362.822C264.954 353.817 269.739 344.878 274.033 336.178C284.91 314.141 296.381 292.451 309.619 271.726Z"/>
	<path fill="#EF7B13" transform="scale(0.488281 0.488281)" d="M399.883 327.51L434.16 347.254L434.546 347.608L448.461 355.11L448.812 355.073L456.211 359.322L438.948 386.638C433.511 393.434 428.745 399.283 419.97 401.636C418.983 401.901 419.396 401.76 418.371 402.319L418.097 403.048L417.935 426.779L376.02 411.211L375.547 410.956C376.912 408.07 377 403.481 377.584 400.247L381.032 384.188C385.712 364.968 391.937 345.629 399.883 327.51Z"/>
	<path fill="#FCAB21" transform="scale(0.488281 0.488281)" d="M434.546 347.608L448.461 355.11L440.328 370.997C437.68 376.396 435.152 383.202 431.393 387.848L430.89 388.457C428.829 390.999 426.325 393.775 423.046 394.652C421.784 394.991 421.063 395.188 419.891 394.5C419.87 389.548 421.669 384.345 423.024 379.615C425.295 371.688 427.675 363.869 430.697 356.188C431.814 353.35 432.755 350.071 434.546 347.608Z"/>
	<path fill="#FCAB21" transform="scale(0.488281 0.488281)" d="M336.998 232.428C360.666 203.154 389.164 176.219 421.142 156.165C467.521 127.08 519.278 111.663 573.934 109.647C590.68 109.029 607.555 109.91 624.236 111.342C643.928 113.033 663.751 115.503 683.043 119.917L682.413 120.102C675.932 121.954 669.153 123.044 662.565 124.52L633.277 131.774C608.84 138.112 584.471 145.793 561.451 156.25C533.11 169.123 506.309 186.698 483.142 207.473C460.256 227.997 440.84 251.604 424.801 277.816C424.512 278.288 421.709 283.017 421.601 283.047C421.516 283.071 418.961 281.648 418.75 281.531L336.998 232.428Z"/>
	<path fill="#83131E" transform="scale(0.488281 0.488281)" d="M792.823 149.356C799.949 150.931 806.86 153.558 813.723 156.006L838.809 165.043L866.476 175.737C871.086 177.631 876.359 179.485 880.522 182.224L881.465 182.956C879.326 183.128 877.356 183.344 875.522 184.558C863.561 194.273 850.635 203.098 837.889 211.771L781.299 248.532C771.79 254.449 761.586 259.706 752.347 266.001L799.582 340.507C796.701 344.169 791.91 346.494 788.135 349.177C770.743 361.533 753.893 373.411 734.473 382.525L734.389 383.012C731.536 383.116 728.152 385.482 725.551 386.791L709.363 394.723L674.878 409.837L656.757 416.757C653.402 418.023 649.518 419.199 646.373 420.884L646.018 420.823C638.984 424.091 631.06 426.106 623.672 428.489L567.55 444.97L538.949 365.437C524.05 370.777 426.717 406.18 418.097 403.048L418.371 402.319C419.396 401.76 418.983 401.901 419.97 401.636C428.745 399.283 433.511 393.434 438.948 386.638L456.211 359.322C457.683 357.764 458.915 355.58 460.16 353.794L468.676 341.75L478.25 329.821C480.464 327.232 483.036 324.711 484.881 321.856C481.819 319.744 478.103 316.088 474.645 315.023L474.555 314.634C469.129 310.417 462.405 307.088 456.551 303.4C458.04 299.897 460.86 296.271 462.992 293.079C470.289 282.154 478.38 271.57 486.998 261.649C497.812 249.199 509.821 237.135 522.667 226.766C561.52 195.407 608.657 175.105 657.003 163.664C682.477 157.636 708.36 154.262 734.405 151.918L778.197 149.607C782.863 149.451 787.52 149.771 792.182 149.411L792.823 149.356Z"/>
	<path fill="#BF2E25" transform="scale(0.488281 0.488281)" d="M484.881 321.856L508.735 298.497C516.662 291.181 524.935 283.778 533.959 277.844C536.29 279.234 541.62 278.369 544.416 278.265L563.537 277.933C571.14 278.14 578.898 279.647 586.385 280.923L620.851 286.169C629.18 287.042 637.752 287.483 646.128 287.342C654.552 287.201 663.144 286.508 671.551 286.775C668.283 288.856 664.678 290.457 661.247 292.257L635.905 304.839L518.937 357.085L497.542 365.76C492.777 367.722 488.142 369.888 483.189 371.359C468.866 376.792 453.839 383.063 438.948 386.638L456.211 359.322C457.683 357.764 458.915 355.58 460.16 353.794L468.676 341.75L478.25 329.821C480.464 327.232 483.036 324.711 484.881 321.856Z"/>
	<path fill="#A6231E" transform="scale(0.488281 0.488281)" d="M484.881 321.856L508.735 298.497C516.662 291.181 524.935 283.778 533.959 277.844C536.29 279.234 541.62 278.369 544.416 278.265L563.537 277.933L531.217 308.701C517.925 322.529 505.973 337.321 494.895 352.965C490.807 358.738 485.865 364.798 483.189 371.359C468.866 376.792 453.839 383.063 438.948 386.638L456.211 359.322C457.683 357.764 458.915 355.58 460.16 353.794L468.676 341.75L478.25 329.821C480.464 327.232 483.036 324.711 484.881 321.856Z"/>
	<path fill="#FCAB21" transform="scale(0.488281 0.488281)" d="M792.823 149.356C799.949 150.931 806.86 153.558 813.723 156.006L838.809 165.043L866.476 175.737C871.086 177.631 876.359 179.485 880.522 182.224L881.465 182.956C879.326 183.128 877.356 183.344 875.522 184.558L702.464 215.178C666.599 223.146 630.337 231.641 596.016 244.999C574.577 253.343 552.737 264.521 533.959 277.844C524.935 283.778 516.662 291.181 508.735 298.497L484.881 321.856C481.819 319.744 478.103 316.088 474.645 315.023L474.555 314.634C469.129 310.417 462.405 307.088 456.551 303.4C458.04 299.897 460.86 296.271 462.992 293.079C470.289 282.154 478.38 271.57 486.998 261.649C497.812 249.199 509.821 237.135 522.667 226.766C561.52 195.407 608.657 175.105 657.003 163.664C682.477 157.636 708.36 154.262 734.405 151.918L778.197 149.607C782.863 149.451 787.52 149.771 792.182 149.411L792.823 149.356Z"/>
	<path fill="#EF7B13" transform="scale(0.488281 0.488281)" d="M474.555 314.634C476.532 313.852 478.337 310.958 479.749 309.297L492.051 295.251C501.022 285.781 510.354 276.523 520.452 268.25C540.274 252.01 563.217 238.324 586.65 227.996C597.045 223.414 607.908 219.615 618.621 215.838C644.271 206.795 670.815 200.937 697.518 196.005L778.073 184.199C801.524 181.694 824.306 179.482 847.939 179.499C854.613 179.504 861.148 179.567 867.802 180.146C871.089 180.432 874.445 180.513 877.438 182.054C878.627 182.666 879.228 182.377 880.522 182.224L881.465 182.956C879.326 183.128 877.356 183.344 875.522 184.558L702.464 215.178C666.599 223.146 630.337 231.641 596.016 244.999C574.577 253.343 552.737 264.521 533.959 277.844C524.935 283.778 516.662 291.181 508.735 298.497L484.881 321.856C481.819 319.744 478.103 316.088 474.645 315.023L474.555 314.634Z"/>
	<path fill="#E4513B" transform="scale(0.488281 0.488281)" d="M752.347 266.001L799.582 340.507C796.701 344.169 791.91 346.494 788.135 349.177C770.743 361.533 753.893 373.411 734.473 382.525L734.389 383.012C731.536 383.116 728.152 385.482 725.551 386.791L709.363 394.723L674.878 409.837L656.757 416.757C653.402 418.023 649.518 419.199 646.373 420.884L646.018 420.823C638.984 424.091 631.06 426.106 623.672 428.489L567.55 444.97L538.949 365.437L608.493 337.753L692.039 298.708L752.347 266.001Z"/>
	<path fill="#FADE87" transform="scale(0.488281 0.488281)" d="M752.347 266.001L799.582 340.507C796.701 344.169 791.91 346.494 788.135 349.177C770.743 361.533 753.893 373.411 734.473 382.525C731.979 379.304 730.266 374.266 728.477 370.519L717.781 348.834L702.324 318.954C698.808 312.327 694.77 305.69 692.039 298.708L752.347 266.001Z"/>
	<path fill="#FADE87" transform="scale(0.488281 0.488281)" d="M608.493 337.753L637.883 401.405C640.626 407.654 644.218 414.288 646.018 420.823C638.984 424.091 631.06 426.106 623.672 428.489L567.55 444.97L538.949 365.437L608.493 337.753Z"/>
</svg>
