<?xml version="1.0" encoding="utf-8" ?>
<svg xmlns="http://www.w3.org/2000/svg" xmlns:xlink="http://www.w3.org/1999/xlink" width="500" height="500">
	<path fill="#62CEDC" transform="scale(0.488281 0.488281)" d="M0 835.438L-0 -0L1024 0L1024 834.756L1024.03 978.387C1024.03 983.851 1024.87 1021.44 1023.5 1024L1022.12 1024L583.344 1024L-0 1024L0 835.438Z"/>
	<path fill="#8FD9E3" transform="scale(0.488281 0.488281)" d="M983.907 659.955C984.62 662.132 984.221 664.467 984.08 666.722C983.821 670.883 984.298 677.027 982.703 680.802L982.283 681.615C979.822 678.311 976.586 674.892 975.034 671.089C976.932 669.272 977.074 666.892 977.584 664.418C978.009 663.498 978.372 663.213 979.234 662.761L983.907 659.955Z"/>
	<path fill="#D05115" transform="scale(0.488281 0.488281)" d="M536.482 135.581L555.954 135.673L556.037 173.947L536.476 173.948L536.482 135.581Z"/>
	<path fill="#BA2927" transform="scale(0.488281 0.488281)" d="M529.413 135.662L536.482 135.581L536.476 173.948L516.43 173.919C515.282 171.913 515.924 166.468 515.929 163.978L516.02 135.864L529.413 135.662Z"/>
	<path fill="#612937" transform="scale(0.488281 0.488281)" d="M509.65 194.893L509.879 131.718L508.98 130.843C507.357 129.195 506.819 128.077 506.938 125.748C507.052 123.531 507.979 121.842 509.707 120.455C511.066 119.363 512.699 118.94 514.426 119.146C516.303 119.37 517.652 120.203 518.785 121.699C520.111 123.45 520.298 125.293 519.917 127.41C519.665 128.814 518.198 129.979 517.038 130.761L516.295 131.25C516.239 132.802 515.812 134.265 516.75 135.539L529.413 135.662L516.02 135.864L515.929 163.978C515.924 166.468 515.282 171.913 516.43 173.919C515.61 175.685 515.944 178.127 515.941 180.074L515.961 193.985L515.785 239.546C514.577 238.786 513.265 238.37 511.929 237.896L509.524 237.99L509.65 194.893Z"/>
	<path fill="#D05115" transform="scale(0.488281 0.488281)" d="M588.752 135.648L605.29 135.476L585.593 155.547L605.896 174.065L573.798 173.951L556.037 173.947L555.954 135.673L588.752 135.648Z"/>
	<path fill="#F5A139" transform="scale(0.488281 0.488281)" d="M555.954 135.673L588.752 135.648L573.919 135.827L573.798 173.951L556.037 173.947L555.954 135.673Z"/>
	<path fill="#D05115" transform="scale(0.488281 0.488281)" d="M93.2025 664.519C94.0973 665.689 95.1996 666.874 95.7351 668.256C95.1794 672.325 94.966 677.876 95.5353 681.936L96.4257 724.058L97.3123 749.131C97.4473 753.324 97.1006 758.792 98.2653 762.775L99.0287 835.427L87.0668 835.552L87.4286 762.579L88.4402 723.698L89.5687 681.658C90.4042 677.724 90.426 672.955 90.6773 668.915L93.2025 664.519Z"/>
	<path fill="#81CB4A" transform="scale(0.488281 0.488281)" d="M49.924 671.592C62.3751 677.726 75.6292 681.372 89.5687 681.658L88.4402 723.698L80.25 723.517C62.1461 722.556 44.0695 714.314 31.9489 700.945C34.8084 693.526 40.1776 687.124 44.6454 680.625C46.5949 677.789 48.8881 674.906 49.924 671.592Z"/>
	<path fill="#219041" transform="scale(0.488281 0.488281)" d="M31.9489 700.945C44.0695 714.314 62.1461 722.556 80.25 723.517L88.4402 723.698L87.4286 762.579L75.8891 761.252C62.1682 759.508 45.4763 754.056 36.8092 742.687C30.2174 734.04 28.301 721.937 29.7493 711.314L29.8681 710.5C30.3066 707.193 31.0531 704.154 31.9489 700.945Z"/>
	<path fill="#219041" transform="scale(0.488281 0.488281)" d="M934.398 679.997C944.719 680.075 955.347 678.379 965.139 675.121C968.535 673.991 971.711 672.401 975.034 671.089C976.586 674.892 979.822 678.311 982.283 681.615L992.771 696.089C998.104 704.718 999.617 714.572 997.193 724.457C994.352 736.045 985.787 745.732 975.66 751.701C969.107 755.563 961.383 758.124 953.75 758.493C948.339 758.755 943.1 758.094 937.721 757.916L936.512 719.853L934.398 679.997Z"/>
	<path fill="#5EA73D" transform="scale(0.488281 0.488281)" d="M934.398 679.997C944.719 680.075 955.347 678.379 965.139 675.121C968.535 673.991 971.711 672.401 975.034 671.089C976.586 674.892 979.822 678.311 982.283 681.615L992.771 696.089C991.28 702.23 988.584 708.732 983.022 712.294C979.772 714.376 975.894 715.516 972.219 716.594C960.909 719.912 948.239 721.735 936.512 719.853L934.398 679.997Z"/>
	<path fill="#FBFAF9" transform="scale(0.488281 0.488281)" d="M132.15 75.6046C141.995 74.7354 150.506 75.9517 158.601 82.0218C166.901 88.2462 172.235 96.0948 173.716 106.455C177.13 105.461 180.353 104.596 183.937 104.525C191.363 104.377 197.765 107.016 203.052 112.22C209.818 118.88 210.996 126.395 211.064 135.438L160.25 135.482L78.702 135.915C79.1394 129.919 80.0428 125.277 83.939 120.541C88.3004 115.24 93.7215 113.03 100.36 112.356L101.054 112.291C101.522 105.123 102.813 99.1489 106.671 92.9374C112.599 83.3941 121.417 78.0938 132.15 75.6046Z"/>
	<path fill="#81CB4A" transform="scale(0.488281 0.488281)" d="M93.5165 613.06C99.1402 613.091 104.494 612.754 110.017 611.628C113.557 610.906 117.114 609.76 120.5 608.499C122.614 607.712 124.701 606.375 126.918 606.862L126.968 607.383L151.496 649.216L151.278 650.517C149.436 655.638 146.672 658.613 142.193 661.695L141.947 663.081L141 662.206C131.784 664.986 123.759 667.907 114.099 669.205C109.903 669.769 105.56 669.672 101.336 669.559C99.5415 669.511 97.5932 669.687 96.0984 668.55L95.7351 668.256C95.1996 666.874 94.0973 665.689 93.2025 664.519L90.6773 668.915C90.426 672.955 90.4042 677.724 89.5687 681.658C75.6292 681.372 62.3751 677.726 49.924 671.592C48.1879 669.296 47.7377 666.41 47.1791 663.66L46.9872 663.66C43.4883 661.512 39.5632 659.17 38.0386 655.133C37.3616 653.339 37.4023 651.812 38.032 650C39.4167 646.016 42.6835 642.037 44.9896 638.5L56.6141 619.292C58.553 616.088 61.134 612.824 62.591 609.396L62.9708 608.464C72.4502 611.591 83.5019 614.479 93.5165 613.06Z"/>
	<path fill="#A44D03" transform="scale(0.488281 0.488281)" d="M62.9708 608.464C72.4502 611.591 83.5019 614.479 93.5165 613.06C94.4009 614.931 94.3245 621.357 93.7164 623.423L93.1609 623.587C84.3875 623.489 74.6973 620.195 67.6481 614.964C65.2545 613.188 63.4042 611.518 62.9708 608.464Z"/>
	<path fill="#894906" transform="scale(0.488281 0.488281)" d="M47.1791 663.66C56.5395 666.996 64.9883 669.281 74.9343 670.222C80.2228 670.723 85.6451 670.84 90.6773 668.915C90.426 672.955 90.4042 677.724 89.5687 681.658C75.6292 681.372 62.3751 677.726 49.924 671.592C48.1879 669.296 47.7377 666.41 47.1791 663.66Z"/>
	<path fill="#5EA73D" transform="scale(0.488281 0.488281)" d="M93.5165 613.06C99.1402 613.091 104.494 612.754 110.017 611.628C113.557 610.906 117.114 609.76 120.5 608.499C122.614 607.712 124.701 606.375 126.918 606.862L126.968 607.383L151.496 649.216L151.278 650.517C149.436 655.638 146.672 658.613 142.193 661.695L141.947 663.081L141 662.206C131.784 664.986 123.759 667.907 114.099 669.205C109.903 669.769 105.56 669.672 101.336 669.559C99.5415 669.511 97.5932 669.687 96.0984 668.55L95.7351 668.256C95.1996 666.874 94.0973 665.689 93.2025 664.519L93.1609 623.587L93.7164 623.423C94.3245 621.357 94.4009 614.931 93.5165 613.06Z"/>
	<path fill="#894906" transform="scale(0.488281 0.488281)" d="M93.5165 613.06C99.1402 613.091 104.494 612.754 110.017 611.628C113.557 610.906 117.114 609.76 120.5 608.499C122.614 607.712 124.701 606.375 126.918 606.862L126.968 607.383C119.775 616.787 110.373 621.581 98.593 623.073C96.9908 623.276 95.3291 623.489 93.7164 623.423C94.3245 621.357 94.4009 614.931 93.5165 613.06Z"/>
	<path fill="#FBFAF9" transform="scale(0.488281 0.488281)" d="M810.067 125.679C813.303 125.187 817.424 125.333 820.673 125.803L821.5 125.933C827.772 126.887 833.604 129.051 838.993 132.401C846.327 136.96 853.145 144.634 856.537 152.631C858.067 156.237 858.844 160.126 859.745 163.925L862.263 163.303C872.738 160.854 883.393 162.456 892.555 168.17C902.292 174.242 908.362 182.918 911.083 194C911.966 197.597 912.063 201.092 912.207 204.781L842.909 204.536L736.923 204.38C737.085 195.737 738.745 186.978 744.122 179.977C750.978 171.049 759.553 167.822 770.408 166.436C771.797 157.714 773.577 150.726 778.952 143.545C786.729 133.155 797.34 127.462 810.067 125.679Z"/>
	<path fill="#5EA73D" transform="scale(0.488281 0.488281)" d="M95.7351 668.256L96.0984 668.55C97.5932 669.687 99.5415 669.511 101.336 669.559C105.56 669.672 109.903 669.769 114.099 669.205C123.759 667.907 131.784 664.986 141 662.206L141.947 663.081C145.825 666.739 147.697 673.081 150.803 677.509L151.471 676.047L159.15 663.483L159.894 662.714C161.805 664.02 163.272 667.702 164.356 669.792L173.016 686.39C174.473 689.136 175.745 692.379 177.895 694.628L178.025 695.368C178.883 699.668 181.84 703.591 183.143 707.78C183.839 710.02 183.109 712.618 183.992 714.739C186.3 720.284 195.187 728.409 191.466 734.75C190.573 736.272 189.333 737.453 188.629 739.098C190.325 742.894 192.278 746.237 194.787 749.557L183.939 769.033L183.935 790.187C183.946 795.55 184.776 802.957 183.227 808.021C181.84 808.2 180.781 808.397 179.5 809.019C177.766 811.661 178.717 830.986 178.724 835.516L163.814 835.615L156.538 835.619C150.931 834.866 144.401 835.461 138.702 835.442L99.0287 835.427L98.2653 762.775C97.1006 758.792 97.4473 753.324 97.3123 749.131L96.4257 724.058L95.5353 681.936C94.966 677.876 95.1794 672.325 95.7351 668.256Z"/>
	<path fill="#704E0D" transform="scale(0.488281 0.488281)" d="M159.979 715.385C162.196 715.488 164.662 715.725 166.854 715.38C171.058 714.717 174.777 711.452 177.89 708.764C176.118 713.332 174.561 717.233 169.75 719.437C166.804 720.786 163.283 721.581 160.05 721.65L159.979 715.385Z"/>
	<path fill="#704E0D" transform="scale(0.488281 0.488281)" d="M159.939 742.53C168.893 742.525 175.835 741.528 184.361 738.697C184.753 739.793 184.803 739.329 184.301 740.423C182.276 744.836 174.214 748.148 169.734 749.527C167.48 750.22 162.458 750.04 161.275 752.082L160.946 751.51L160.537 750.75C159.309 748.558 159.879 745.02 159.939 742.53Z"/>
	<path fill="#81CB4A" transform="scale(0.488281 0.488281)" d="M159.15 663.483C159.405 663.744 159.784 663.925 159.916 664.265C160.512 665.807 160.02 670.559 160.048 672.389L160.154 706.464L159.979 715.385C152.913 714.332 148.134 712.763 142.686 707.977C141.618 706.261 139.79 704.241 139.188 702.371C138.845 701.302 138.759 700.089 139.074 699C139.657 696.984 141.157 694.826 142.225 693.021C144.985 688.356 148.757 683.222 150.583 678.149L150.803 677.509L151.471 676.047L159.15 663.483Z"/>
	<path fill="#81CB4A" transform="scale(0.488281 0.488281)" d="M142.686 707.977C148.134 712.763 152.913 714.332 159.979 715.385L160.05 721.65L159.859 722.068L159.599 742.439C155.15 742.665 151.079 742.605 146.75 741.504C142.945 740.535 139.435 739.082 135.893 737.408C132.936 735.175 129.451 732.61 128.714 728.743C127.959 724.784 130.369 721.612 132.533 718.588C132.987 718.63 140.235 710.453 142.333 709.562L142.686 707.977Z"/>
	<path fill="#92650A" transform="scale(0.488281 0.488281)" d="M142.686 707.977C148.134 712.763 152.913 714.332 159.979 715.385L160.05 721.65L159.859 722.068C156.115 721.666 152.771 720.598 149.621 718.501C146.455 716.394 143.162 713.428 142.333 709.562L142.686 707.977Z"/>
	<path fill="#81CB4A" transform="scale(0.488281 0.488281)" d="M135.893 737.408C139.435 739.082 142.945 740.535 146.75 741.504C151.079 742.605 155.15 742.665 159.599 742.439L159.939 742.53C159.879 745.02 159.309 748.558 160.537 750.75L160.946 751.51L161.275 752.082C161.38 754.909 161.739 758.026 161.426 760.824L160.849 760.585C160.825 759.312 160.712 758.44 160.255 757.25L160.089 759.385L159.204 759.406L158.057 772.513L156.251 772.474C147.599 772.023 136.443 770.963 129.061 766.054C126.984 764.673 125.322 762.712 123.656 760.877L123.428 759.795C122.098 751.421 133.617 745.706 135.795 737.974L135.893 737.408Z"/>
	<path fill="#894906" transform="scale(0.488281 0.488281)" d="M135.893 737.408C139.435 739.082 142.945 740.535 146.75 741.504C151.079 742.605 155.15 742.665 159.599 742.439L159.939 742.53C159.879 745.02 159.309 748.558 160.537 750.75L160.946 751.51L161.275 752.082C161.38 754.909 161.739 758.026 161.426 760.824L160.849 760.585C160.825 759.312 160.712 758.44 160.255 757.25L160.089 759.385L159.204 759.406L159.537 750.979C156.713 750.599 153.675 750.387 150.938 749.575C144.191 747.575 139.27 744.148 135.795 737.974L135.893 737.408Z"/>
	<path fill="#219041" transform="scale(0.488281 0.488281)" d="M96.4257 724.058C105.202 724.055 113.492 723.204 122.062 721.27C125.526 720.489 129.024 718.852 132.533 718.588C130.369 721.612 127.959 724.784 128.714 728.743C129.451 732.61 132.936 735.175 135.893 737.408L135.795 737.974C133.617 745.706 122.098 751.421 123.428 759.795L98.2653 762.775C97.1006 758.792 97.4473 753.324 97.3123 749.131L96.4257 724.058Z"/>
	<path fill="#5EA73D" transform="scale(0.488281 0.488281)" d="M95.7351 668.256L96.0984 668.55C97.5932 669.687 99.5415 669.511 101.336 669.559C105.56 669.672 109.903 669.769 114.099 669.205C123.759 667.907 131.784 664.986 141 662.206L141.947 663.081C145.825 666.739 147.697 673.081 150.803 677.509L150.583 678.149C148.757 683.222 144.985 688.356 142.225 693.021C141.157 694.826 139.657 696.984 139.074 699C138.759 700.089 138.845 701.302 139.188 702.371C139.79 704.241 141.618 706.261 142.686 707.977L142.333 709.562C140.235 710.453 132.987 718.63 132.533 718.588C129.024 718.852 125.526 720.489 122.062 721.27C113.492 723.204 105.202 724.055 96.4257 724.058L95.5353 681.936C94.966 677.876 95.1794 672.325 95.7351 668.256Z"/>
	<path fill="#894906" transform="scale(0.488281 0.488281)" d="M95.7351 668.256L96.0984 668.55C97.5932 669.687 99.5415 669.511 101.336 669.559C105.56 669.672 109.903 669.769 114.099 669.205C123.759 667.907 131.784 664.986 141 662.206L141.947 663.081C138.02 670.888 130.045 674.644 122.059 677.288C116.468 679.139 110.583 680.239 104.75 680.985C101.746 681.369 98.4723 681.305 95.5353 681.936C94.966 677.876 95.1794 672.325 95.7351 668.256Z"/>
	<path fill="#62CEDC" transform="scale(0.488281 0.488281)" d="M159.204 759.406L160.089 759.385L160.255 757.25C160.712 758.44 160.825 759.312 160.849 760.585L161.426 760.824L162.249 772.937C165.132 773.005 167.95 773.064 170.816 772.686L171.75 772.557C176.205 771.963 179.768 770.551 183.939 769.033L183.935 790.187C183.946 795.55 184.776 802.957 183.227 808.021C181.84 808.2 180.781 808.397 179.5 809.019C177.766 811.661 178.717 830.986 178.724 835.516L163.814 835.615L156.538 835.619C150.931 834.866 144.401 835.461 138.702 835.442L99.0287 835.427L98.2653 762.775L123.428 759.795L123.656 760.877C125.322 762.712 126.984 764.673 129.061 766.054C136.443 770.963 147.599 772.023 156.251 772.474L158.057 772.513L159.204 759.406Z"/>
	<path fill="#219041" transform="scale(0.488281 0.488281)" d="M123.656 760.877C125.322 762.712 126.984 764.673 129.061 766.054C136.443 770.963 147.599 772.023 156.251 772.474L158.057 772.513L157.588 794.198L148.189 793.029C139.882 791.393 129.815 787.619 125.095 780.148C120.944 773.578 122.082 767.931 123.656 760.877Z"/>
	<path fill="#62CEDC" transform="scale(0.488281 0.488281)" d="M159.204 759.406L160.089 759.385L160.255 757.25C160.712 758.44 160.825 759.312 160.849 760.585L161.426 760.824L162.249 772.937C165.132 773.005 167.95 773.064 170.816 772.686L171.75 772.557C176.205 771.963 179.768 770.551 183.939 769.033L183.935 790.187C183.946 795.55 184.776 802.957 183.227 808.021C181.84 808.2 180.781 808.397 179.5 809.019C177.766 811.661 178.717 830.986 178.724 835.516L163.814 835.615L156.538 835.619L157.588 794.198L158.057 772.513L159.204 759.406Z"/>
	<path fill="#A44D03" transform="scale(0.488281 0.488281)" d="M159.204 759.406L160.089 759.385L160.255 757.25C160.712 758.44 160.825 759.312 160.849 760.585L161.426 760.824L162.249 772.937L163.462 794.041L163.814 835.615L156.538 835.619L157.588 794.198L158.057 772.513L159.204 759.406Z"/>
	<path fill="#219041" transform="scale(0.488281 0.488281)" d="M183.939 769.033L183.935 790.187C177.076 792.189 170.609 793.487 163.462 794.041L162.249 772.937C165.132 773.005 167.95 773.064 170.816 772.686L171.75 772.557C176.205 771.963 179.768 770.551 183.939 769.033Z"/>
	<path fill="#8FD9E3" transform="scale(0.488281 0.488281)" d="M65.1507 578.359C61.637 573.679 59.2342 566.625 57.0202 561.198C46.8814 536.347 39.4266 511.602 38.192 484.573C35.7745 431.649 58.4843 376.561 101.695 344.764C108.54 339.727 115.287 335.116 123.049 331.567C134.664 326.256 147.102 324.139 159.052 319.94C169.743 316.183 179.342 310.422 187.368 302.394C202.888 286.871 207.272 266.257 215.54 246.797C220.677 234.705 227.601 223.373 236.48 213.668C265.591 181.851 313.67 172.662 352.215 192.456C364.269 198.646 373.405 207.719 384.42 215.317C394.687 222.398 407.015 226.995 419.563 227.018C439.042 227.055 453.376 215.825 469.942 207.591C478.475 203.35 487.377 200.015 496.587 197.577C500.888 196.438 505.185 195.09 509.65 194.893L509.524 237.99L511.929 237.896L511.992 270.484L512.056 316.201L511.505 316.477C511.079 320.522 511.928 325.091 511.104 328.946L372.438 328.378C371.078 333.274 372.051 340.954 372.085 346.172L386.964 346.092L386.988 354.054L511.248 353.481L511.565 374.662C511.588 377.158 512.046 380.522 511.573 382.932L510.921 383.155L510.84 401.435C510.819 405.033 510.458 408.825 511.058 412.375L510.515 412.468L510.489 429.042C505.794 429.876 500.128 433.712 495.999 436.161L451.312 464.59L396.023 499.8C383.541 507.952 369.788 514.794 357.974 523.882L357.907 524.183L357.669 527.455L357.989 527.974L357.86 543.087L357.918 562.393L357.91 650.42L357.954 664.404L357.833 728.658C356.461 731.488 357.368 744.718 357.366 748.611L357.342 807.558C355.597 807.659 352.794 807.404 351.345 808.305L351.49 835.155L226.498 835.157C223.134 833.993 219.746 832.701 216.25 831.992C205.341 829.778 195.7 831.561 185.561 835.624L178.724 835.516C178.717 830.986 177.766 811.661 179.5 809.019C180.781 808.397 181.84 808.2 183.227 808.021C184.776 802.957 183.946 795.55 183.935 790.187L183.939 769.033L194.787 749.557C192.278 746.237 190.325 742.894 188.629 739.098C189.333 737.453 190.573 736.272 191.466 734.75C195.187 728.409 186.3 720.284 183.992 714.739C183.109 712.618 183.839 710.02 183.143 707.78C181.84 703.591 178.883 699.668 178.025 695.368L177.895 694.628C175.745 692.379 174.473 689.136 173.016 686.39L164.356 669.792C163.272 667.702 161.805 664.02 159.894 662.714L159.15 663.483L151.471 676.047L150.803 677.509C147.697 673.081 145.825 666.739 141.947 663.081L142.193 661.695C146.672 658.613 149.436 655.638 151.278 650.517L151.496 649.216L126.968 607.383L126.918 606.862C124.701 606.375 122.614 607.712 120.5 608.499C117.114 609.76 113.557 610.906 110.017 611.628C104.494 612.754 99.1402 613.091 93.5165 613.06C83.5019 614.479 72.4502 611.591 62.9708 608.464C62.4044 607.897 62.6525 608.088 62.007 607.66C59.9021 606.264 57.531 605.075 56.6605 602.547C55.0395 597.838 58.5697 592.495 60.5615 588.377L65.1507 578.359Z"/>
	<path fill="#5EA73D" transform="scale(0.488281 0.488281)" d="M93.4038 519.443L93.9497 517.75L94.4219 517.61C97.2444 521.918 99.3431 527.125 101.603 531.774L114.509 558.529L125.054 580.637C128.152 587.01 131.45 593.018 133.461 599.861C132.605 601.143 131.726 602.469 130.578 603.512C129.435 604.55 127.662 605.546 126.918 606.862C124.701 606.375 122.614 607.712 120.5 608.499C117.114 609.76 113.557 610.906 110.017 611.628C104.494 612.754 99.1402 613.091 93.5165 613.06C83.5019 614.479 72.4502 611.591 62.9708 608.464C62.4044 607.897 62.6525 608.088 62.007 607.66C59.9021 606.264 57.531 605.075 56.6605 602.547C55.0395 597.838 58.5697 592.495 60.5615 588.377L65.1507 578.359L84.0624 538.908C87.0126 532.652 89.7611 525.248 93.4038 519.443Z"/>
	<path fill="#81CB4A" transform="scale(0.488281 0.488281)" d="M65.1507 578.359L84.0624 538.908C87.0126 532.652 89.7611 525.248 93.4038 519.443C93.7033 520.066 93.8219 520.221 93.9393 521C94.293 523.349 93.6778 526.673 93.6039 529.102L93.5247 545.749L93.5549 590.938C93.5582 598.236 93.9592 605.791 93.5165 613.06C83.5019 614.479 72.4502 611.591 62.9708 608.464C62.4044 607.897 62.6525 608.088 62.007 607.66C59.9021 606.264 57.531 605.075 56.6605 602.547C55.0395 597.838 58.5697 592.495 60.5615 588.377L65.1507 578.359Z"/>
	<path fill="#FBFAF9" transform="scale(0.488281 0.488281)" d="M280.802 209.157C287.9 208.792 294.072 209.606 300.532 212.826C311.128 218.109 317.656 226.487 321.329 237.582C325.868 235.789 330.578 234.576 335.492 235.315L336.25 235.441C340.951 236.201 344.678 238.681 347.883 242.105C354.062 248.704 353.533 257.607 353.312 265.992L307.25 265.883L231.152 265.854C230.718 260.36 230.486 254.958 234.233 250.445C238.153 245.725 242.647 244.838 248.382 244.145C248.593 236.917 250.519 230.306 254.843 224.406C261.253 215.66 270.278 210.846 280.802 209.157Z"/>
	<path fill="#EF5E48" transform="scale(0.488281 0.488281)" d="M509.524 237.99L511.929 237.896L511.992 270.484L512.056 316.201L511.505 316.477C511.079 320.522 511.928 325.091 511.104 328.946L372.438 328.378C374.307 326.197 377.671 324.528 380.111 322.942L395.656 312.719L481.806 256.302L509.524 237.99Z"/>
	<path fill="#FBFAF9" transform="scale(0.488281 0.488281)" d="M511.505 316.477L509.5 316.168C504.774 315.442 501.071 314.136 497.529 310.77C492.759 306.239 490.056 299.842 489.974 293.279C489.899 287.236 492.504 281.598 496.705 277.331C501 272.968 505.802 270.529 511.992 270.484L512.056 316.201L511.505 316.477Z"/>
	<path fill="#4CBDB6" transform="scale(0.488281 0.488281)" d="M307.499 515.11L306.997 395.087L366.352 395.133L366.334 402.228L366.328 436.082L386.867 436.028L386.843 461.658L366.618 474.48L314.13 507.695C314.865 510.04 315.396 512.962 316.479 515.107L307.499 515.11Z"/>
	<path fill="#4CBDB6" transform="scale(0.488281 0.488281)" d="M151.496 649.216C152.633 646.96 152.036 641.696 152.045 639.085L152.15 613.27L152.055 456.326L205.02 456.209L205.005 514.982L161.61 514.956L161.741 542.99L178.186 542.836L178.265 564.978L177.895 694.628C175.745 692.379 174.473 689.136 173.016 686.39L164.356 669.792C163.272 667.702 161.805 664.02 159.894 662.714L159.15 663.483L151.471 676.047L150.803 677.509C147.697 673.081 145.825 666.739 141.947 663.081L142.193 661.695C146.672 658.613 149.436 655.638 151.278 650.517L151.496 649.216Z"/>
	<path fill="#62CEDC" transform="scale(0.488281 0.488281)" d="M151.278 650.517C152.167 652.955 151.844 655.73 151.827 658.297L151.471 676.047L150.803 677.509C147.697 673.081 145.825 666.739 141.947 663.081L142.193 661.695C146.672 658.613 149.436 655.638 151.278 650.517Z"/>
	<path fill="#4CBDB6" transform="scale(0.488281 0.488281)" d="M227.897 515.001C227.905 496.416 226.769 350.916 227.773 348.68L276.951 348.714L276.857 515.049L227.897 515.001Z"/>
	<path fill="#BA2927" transform="scale(0.488281 0.488281)" d="M205.005 514.982L227.897 515.001L276.857 515.049L307.499 515.11L316.479 515.107L316.926 515.995L322.958 530.997L329.171 526.931L357.25 526.918L357.907 524.183L357.669 527.455L357.989 527.974L357.86 543.087L357.918 562.393L357.25 564.484L178.265 564.978L178.186 542.836L161.741 542.99L161.61 514.956L205.005 514.982Z"/>
	<path fill="#DF493F" transform="scale(0.488281 0.488281)" d="M178.186 542.836L357.382 543.052C357.36 538.357 356.79 532.919 357.521 528.313L357.669 527.455L357.989 527.974L357.86 543.087L357.918 562.393L357.25 564.484L178.265 564.978L178.186 542.836Z"/>
	<path fill="#EF5E48" transform="scale(0.488281 0.488281)" d="M386.988 354.054L511.248 353.481L511.565 374.662C511.588 377.158 512.046 380.522 511.573 382.932L510.921 383.155L510.84 401.435C510.819 405.033 510.458 408.825 511.058 412.375L510.515 412.468L510.489 429.042C505.794 429.876 500.128 433.712 495.999 436.161L451.312 464.59L396.023 499.8C383.541 507.952 369.788 514.794 357.974 523.882L357.907 524.183L357.25 526.918L329.171 526.931L322.958 530.997L316.926 515.995L316.479 515.107C315.396 512.962 314.865 510.04 314.13 507.695L366.618 474.48L386.843 461.658L386.867 436.028L386.988 354.054Z"/>
	<path fill="#1C648A" transform="scale(0.488281 0.488281)" d="M418.176 439.904C417.359 431.704 418.006 422.812 418.005 414.545L418.046 362.508L489.488 362.491L489.519 396.022C488.445 397.979 485.991 399.13 484.131 400.237L484.135 378.119C484.129 375.362 484.665 371.48 483.611 368.918L483.604 400C482.339 400.893 481.124 400.725 479.598 400.839L479.686 402.75C477.962 404.558 476.404 405.028 474.18 405.866L473.987 406.028C468.753 409.568 461.76 412.162 457.015 416.199C455.189 417.688 453.106 418.647 451.015 419.706L437.545 428.515C435.068 430.178 432.4 432.344 429.661 433.507C427.652 435.743 421.569 440.467 418.731 441.25L418.176 439.904Z"/>
	<path fill="#FBFAF9" transform="scale(0.488281 0.488281)" d="M457.015 416.199L456.989 406.106L473.987 406.028C468.753 409.568 461.76 412.162 457.015 416.199Z"/>
	<path fill="#FBFAF9" transform="scale(0.488281 0.488281)" d="M429.661 433.507L423.015 432.917L422.99 406.184L450.936 406.215L451.015 419.706L437.545 428.515C435.068 430.178 432.4 432.344 429.661 433.507Z"/>
	<path fill="#FBFAF9" transform="scale(0.488281 0.488281)" d="M479.598 400.839L457.094 400.752C456.296 398.306 456.828 394.643 456.832 392.006L456.88 368.601L474.495 368.544C477.418 368.54 480.774 368.178 483.611 368.918L483.604 400C482.339 400.893 481.124 400.725 479.598 400.839Z"/>
	<path fill="#FBFAF9" transform="scale(0.488281 0.488281)" d="M423.452 368.868L450.921 368.782L450.566 400.779L423.43 400.952L423.452 368.868Z"/>
	<path fill="#576F92" transform="scale(0.488281 0.488281)" d="M483.611 368.918C484.665 371.48 484.129 375.362 484.135 378.119L484.131 400.237C485.991 399.13 488.445 397.979 489.519 396.022C491.429 395.595 493.686 393.442 495.341 392.33C500.055 389.161 505.654 385.28 510.921 383.155L510.84 401.435C510.819 405.033 510.458 408.825 511.058 412.375L510.515 412.468L510.489 429.042C505.794 429.876 500.128 433.712 495.999 436.161L451.312 464.59L396.023 499.8C383.541 507.952 369.788 514.794 357.974 523.882L357.907 524.183L357.25 526.918L329.171 526.931L322.958 530.997L316.926 515.995L316.479 515.107C315.396 512.962 314.865 510.04 314.13 507.695L366.618 474.48L386.843 461.658L416.71 442.878C418.168 441.808 417.955 441.567 418.176 439.904L418.731 441.25C421.569 440.467 427.652 435.743 429.661 433.507C432.4 432.344 435.068 430.178 437.545 428.515L451.015 419.706C453.106 418.647 455.189 417.688 457.015 416.199C461.76 412.162 468.753 409.568 473.987 406.028L474.18 405.866C476.404 405.028 477.962 404.558 479.686 402.75L479.598 400.839C481.124 400.725 482.339 400.893 483.604 400L483.611 368.918Z"/>
	<path fill="#8D0D20" transform="scale(0.488281 0.488281)" d="M329.171 526.931L358.027 508.708L357.974 523.882L357.907 524.183L357.25 526.918L329.171 526.931Z"/>
	<path fill="#F5B158" transform="scale(0.488281 0.488281)" d="M358.027 508.708C361.776 507.24 366.001 503.866 369.434 501.634L389.004 489.21L466.898 439.878C481.219 430.708 495.525 420.463 510.515 412.468L510.489 429.042C505.794 429.876 500.128 433.712 495.999 436.161L451.312 464.59L396.023 499.8C383.541 507.952 369.788 514.794 357.974 523.882L358.027 508.708Z"/>
	<path fill="#EF5E48" transform="scale(0.488281 0.488281)" d="M178.265 564.978L357.25 564.484L357.918 562.393L357.91 650.42L357.954 664.404L357.833 728.658C356.461 731.488 357.368 744.718 357.366 748.611L357.342 807.558C355.597 807.659 352.794 807.404 351.345 808.305L351.49 835.155L226.498 835.157C223.134 833.993 219.746 832.701 216.25 831.992C205.341 829.778 195.7 831.561 185.561 835.624L178.724 835.516C178.717 830.986 177.766 811.661 179.5 809.019C180.781 808.397 181.84 808.2 183.227 808.021C184.776 802.957 183.946 795.55 183.935 790.187L183.939 769.033L194.787 749.557C192.278 746.237 190.325 742.894 188.629 739.098C189.333 737.453 190.573 736.272 191.466 734.75C195.187 728.409 186.3 720.284 183.992 714.739C183.109 712.618 183.839 710.02 183.143 707.78C181.84 703.591 178.883 699.668 178.025 695.368L177.895 694.628L178.265 564.978Z"/>
	<path fill="#CA3A38" transform="scale(0.488281 0.488281)" d="M178.724 835.516C178.717 830.986 177.766 811.661 179.5 809.019C180.781 808.397 181.84 808.2 183.227 808.021C183.997 808.433 184.468 808.529 185.345 808.55L234.337 808.534L314.353 808.609L340.861 808.491C344 808.475 348.401 809.05 351.345 808.305L351.49 835.155L226.498 835.157C223.134 833.993 219.746 832.701 216.25 831.992C205.341 829.778 195.7 831.561 185.561 835.624L178.724 835.516Z"/>
	<path fill="#1C648A" transform="scale(0.488281 0.488281)" d="M204.444 709.991L336.618 710.184L336.585 788.423L204.233 788.029L204.444 709.991Z"/>
	<path fill="#FBFAF9" transform="scale(0.488281 0.488281)" d="M230.941 715.743L235.662 715.784L235.595 746.019L215.972 746.064C214.377 746.077 212.906 746.098 211.343 745.75C210.605 743.254 211.048 739.783 211.045 737.175L211.051 715.821L230.941 715.743Z"/>
	<path fill="#FBFAF9" transform="scale(0.488281 0.488281)" d="M242.472 715.678L267.122 715.692L267.027 745.994L242.446 745.991L242.472 715.678Z"/>
	<path fill="#FBFAF9" transform="scale(0.488281 0.488281)" d="M305.593 715.615L330.435 715.606L330.403 746.034L305.56 746.03L305.593 715.615Z"/>
	<path fill="#FBFAF9" transform="scale(0.488281 0.488281)" d="M242.527 751.386L266.372 751.359C267.413 761.625 267.012 772.023 266.993 782.359L242.505 782.261L242.527 751.386Z"/>
	<path fill="#FBFAF9" transform="scale(0.488281 0.488281)" d="M273.67 715.555L298.958 715.546L298.827 745.947L281.681 746.054C279.357 746.058 275.908 746.5 273.728 745.811L273.67 715.555Z"/>
	<path fill="#FBFAF9" transform="scale(0.488281 0.488281)" d="M211.145 751.203L235.689 751.046L235.712 782.506L211.04 782.445L211.145 751.203Z"/>
	<path fill="#FBFAF9" transform="scale(0.488281 0.488281)" d="M305.585 751.193L330.489 751.087L330.489 782.472L305.503 782.446L305.585 751.193Z"/>
	<path fill="#FBFAF9" transform="scale(0.488281 0.488281)" d="M273.714 751.223L298.72 751.203C299.463 753.658 298.975 757.347 298.98 759.929L299.002 782.458L273.578 782.4L273.714 751.223Z"/>
	<path fill="#1C648A" transform="scale(0.488281 0.488281)" d="M204.823 597.098L336.679 597.494L336.565 676.173L204.578 676.202L204.823 597.098Z"/>
	<path fill="#FBFAF9" transform="scale(0.488281 0.488281)" d="M211.983 603.455L235.933 603.486L235.721 633.835L212.011 633.923L211.983 603.455Z"/>
	<path fill="#FBFAF9" transform="scale(0.488281 0.488281)" d="M211.886 639.317L235.637 639.408L235.575 670.308L211.831 670.326L211.886 639.317Z"/>
	<path fill="#FBFAF9" transform="scale(0.488281 0.488281)" d="M242.51 603.386L267.295 603.436L267.14 633.799L242.522 634.017L242.51 603.386Z"/>
	<path fill="#FBFAF9" transform="scale(0.488281 0.488281)" d="M305.657 603.456L330.519 603.438L330.49 633.96L305.675 633.977L305.657 603.456Z"/>
	<path fill="#FBFAF9" transform="scale(0.488281 0.488281)" d="M242.556 639.457L267.314 639.445L267.36 670.345L242.536 670.199L242.556 639.457Z"/>
	<path fill="#FBFAF9" transform="scale(0.488281 0.488281)" d="M273.634 603.352L299.032 603.339L299.038 633.501L273.721 633.943L273.634 603.352Z"/>
	<path fill="#FBFAF9" transform="scale(0.488281 0.488281)" d="M305.599 639.469L330.543 639.484C331.69 649.423 330.865 660.11 330.819 670.128L305.521 670.089L305.599 639.469Z"/>
	<path fill="#FBFAF9" transform="scale(0.488281 0.488281)" d="M273.627 639.476L299.152 639.473L299.31 670.314L273.551 670.205L273.627 639.476Z"/>
	<path fill="#8FD9E3" transform="scale(0.488281 0.488281)" d="M515.961 193.985C525.246 193.532 534.529 193.327 543.797 194.25C574.002 197.26 605.194 209.743 627.81 230.21C634.791 236.527 640.983 243.541 646.031 251.5C650.989 259.316 654.735 267.981 658.988 276.194C666.029 289.791 675.22 303.296 687.344 312.894C696.396 320.061 706.585 324.394 717.905 326.389C725.429 327.714 733.162 327.999 740.723 329.168C756.217 331.564 771.358 336.797 784.301 345.76C802.911 358.647 813.646 378.843 822.354 399.089C828.173 412.62 834.105 426.913 843.968 438.1C851.083 446.169 859.569 452.375 869.349 456.806C879.027 461.19 889.474 463.888 899.311 467.978C946.726 487.691 972.16 535.27 980.624 583.735C982.956 597.085 982.975 610.523 982.765 624.025C982.691 628.815 983.059 634.445 981.666 639.052C984.462 643.551 988.468 648.388 987.347 654C986.884 656.319 985.38 658.185 983.907 659.955L979.234 662.761C978.372 663.213 978.009 663.498 977.584 664.418C977.074 666.892 976.932 669.272 975.034 671.089C971.711 672.401 968.535 673.991 965.139 675.121C955.347 678.379 944.719 680.075 934.398 679.997L936.512 719.853L937.721 757.916L938.447 835.494L925.561 835.504L899.755 835.603L887.618 835.716L874.698 835.643L867.931 835.585L850.464 835.544L850.5 806.09L666.095 806.318L666.005 805.551L666.077 664.621L666.032 650.574L511.434 650.655L511.065 650.634L357.91 650.42L357.918 562.393L357.86 543.087L357.989 527.974L357.669 527.455L357.907 524.183L357.974 523.882C369.788 514.794 383.541 507.952 396.023 499.8L451.312 464.59L495.999 436.161C500.128 433.712 505.794 429.876 510.489 429.042L510.515 412.468L511.058 412.375C510.458 408.825 510.819 405.033 510.84 401.435L510.921 383.155L511.573 382.932C512.046 380.522 511.588 377.158 511.565 374.662L511.248 353.481L386.988 354.054L386.964 346.092L372.085 346.172C372.051 340.954 371.078 333.274 372.438 328.378L511.104 328.946C511.928 325.091 511.079 320.522 511.505 316.477L512.056 316.201L511.992 270.484L511.929 237.896C513.265 238.37 514.577 238.786 515.785 239.546L515.961 193.985Z"/>
	<path fill="#62CEDC" transform="scale(0.488281 0.488281)" d="M870.12 663.318L869.7 661.796L868.25 661.309C863.632 662.766 860.119 667.312 856.5 670.452L856.038 670.064C863.137 662.234 869.315 653.751 876.025 645.609C877.746 643.52 879.604 640.492 881.75 638.896C882.362 638.441 883.108 638.248 883.822 638.029C881.842 641.131 879.029 644.226 877.954 647.75L877.654 648.708C877.084 650.795 877.504 653.499 878.75 655.259C880.203 657.309 882.446 659.174 884.77 660.145C885.876 664.791 886.799 666.845 890.649 669.95L882.662 681.97L872.363 656.656L870.445 663.367L870.12 663.318Z"/>
	<path fill="#81CB4A" transform="scale(0.488281 0.488281)" d="M931.709 519.926C932.325 526.869 931.966 534.085 931.986 541.059L932.079 580.169L932.176 600.316C932.22 603.957 932.774 608.677 931.911 612.196L931.71 612.714L931.484 612.851L930.443 613.589C928.569 614.755 926.569 614.596 924.464 614.454C919.979 614.152 915.446 613.097 911.172 611.736C908.568 610.907 905.927 609.622 903.238 609.157L902.312 609.011C899.66 606.638 896.881 605.542 895.045 602.25C894.948 600.576 894.784 598.734 895.317 597.119C896.285 594.19 898.039 591.353 899.364 588.564L908.421 569.48L922.465 539C925.379 532.665 928.189 525.931 931.709 519.926Z"/>
	<path fill="#81CB4A" transform="scale(0.488281 0.488281)" d="M902.312 609.011L903.238 609.157C905.927 609.622 908.568 610.907 911.172 611.736C915.446 613.097 919.979 614.152 924.464 614.454C926.569 614.596 928.569 614.755 930.443 613.589L931.484 612.851L931.71 612.714L931.616 623.55L930.243 623.685L929.192 670.494C929.221 673.493 929.631 677.843 928.696 680.644C915.386 680.42 902.155 676.559 890.649 669.95C886.799 666.845 885.876 664.791 884.77 660.145C882.446 659.174 880.203 657.309 878.75 655.259C877.504 653.499 877.084 650.795 877.654 648.708L877.954 647.75C879.029 644.226 881.842 641.131 883.822 638.029L884.011 637.998C891.739 630.089 896.511 618.929 902.351 609.579L902.312 609.011Z"/>
	<path fill="#A44D03" transform="scale(0.488281 0.488281)" d="M902.312 609.011L903.238 609.157C905.927 609.622 908.568 610.907 911.172 611.736C915.446 613.097 919.979 614.152 924.464 614.454C926.569 614.596 928.569 614.755 930.443 613.589L931.484 612.851L931.71 612.714L931.616 623.55L930.243 623.685C927.783 623.566 925.461 623.207 923.061 622.688C914.421 620.82 907.211 617.153 902.351 609.579L902.312 609.011Z"/>
	<path fill="#894906" transform="scale(0.488281 0.488281)" d="M884.77 660.145C888.197 661.474 891.501 663.204 894.955 664.416C905.914 668.261 917.547 670.613 929.192 670.494C929.221 673.493 929.631 677.843 928.696 680.644C915.386 680.42 902.155 676.559 890.649 669.95C886.799 666.845 885.876 664.791 884.77 660.145Z"/>
	<path fill="#5EA73D" transform="scale(0.488281 0.488281)" d="M870.445 663.367L872.363 656.656L882.662 681.97L895.989 715.89L901.092 729.82L904.413 737.067C899.101 739.112 893.78 740.592 888.34 742.224C883.76 743.597 879.211 745.155 874.512 746.067L870.449 746.044L869.431 746.598L868.47 746.676C865.303 745.991 862.075 744.561 859 743.512L842.193 737.658C841.514 734.828 841.965 731.27 842.497 728.435L848.319 712.543C850.255 709.947 851.656 706.572 853.015 703.644L860.091 687.469C863.488 679.465 867.323 671.556 870.12 663.318L870.445 663.367Z"/>
	<path fill="#628619" transform="scale(0.488281 0.488281)" d="M901.092 729.82L904.413 737.067C899.101 739.112 893.78 740.592 888.34 742.224C883.76 743.597 879.211 745.155 874.512 746.067L870.449 746.044L870.077 738.841L901.092 729.82Z"/>
	<path fill="#81CB4A" transform="scale(0.488281 0.488281)" d="M870.12 663.318L870.445 663.367C871.131 665.804 870.448 668.573 870.398 671.124L870.14 690.966L870.082 723.883C870.083 728.615 870.579 733.986 869.944 738.653L870.077 738.841L870.449 746.044L869.431 746.598L868.47 746.676C865.303 745.991 862.075 744.561 859 743.512L842.193 737.658C841.514 734.828 841.965 731.27 842.497 728.435L848.319 712.543C850.255 709.947 851.656 706.572 853.015 703.644L860.091 687.469C863.488 679.465 867.323 671.556 870.12 663.318Z"/>
	<path fill="#7A960E" transform="scale(0.488281 0.488281)" d="M842.497 728.435C847.729 731.371 853.837 733.006 859.473 735.047C862.782 736.245 866.483 738.119 869.944 738.653L870.077 738.841L870.449 746.044L869.431 746.598L868.47 746.676C865.303 745.991 862.075 744.561 859 743.512L842.193 737.658C841.514 734.828 841.965 731.27 842.497 728.435Z"/>
	<path fill="#4CBDB6" transform="scale(0.488281 0.488281)" d="M788.837 515.121L788.851 429.866L826.393 429.86L826.149 515.107L788.837 515.121Z"/>
	<defs>
		<linearGradient id="gradient_0" gradientUnits="userSpaceOnUse" x1="945.82361" y1="625.64142" x2="922.00568" y2="833.48499">
			<stop offset="0" stop-color="#AF6000"/>
			<stop offset="1" stop-color="#D64121"/>
		</linearGradient>
	</defs>
	<path fill="url(#gradient_0)" transform="scale(0.488281 0.488281)" d="M931.616 623.55L933.471 623.701L934.097 651C934.289 657.299 934.889 663.904 934.336 670.189C934.031 673.439 933.984 676.752 934.398 679.997L936.512 719.853L937.721 757.916L938.447 835.494L925.561 835.504L925.937 757.774C919.97 759.046 914.15 759.37 908.053 759.054L909.357 754.029C910.349 747.511 908.139 742.277 904.413 737.067L901.092 729.82L895.989 715.89L882.662 681.97L890.649 669.95C902.155 676.559 915.386 680.42 928.696 680.644C929.631 677.843 929.221 673.493 929.192 670.494L930.243 623.685L931.616 623.55Z"/>
	<path fill="#219041" transform="scale(0.488281 0.488281)" d="M895.989 715.89C906.544 719.08 916.021 720.504 927.039 719.992L925.937 757.774C919.97 759.046 914.15 759.37 908.053 759.054L909.357 754.029C910.349 747.511 908.139 742.277 904.413 737.067L901.092 729.82L895.989 715.89Z"/>
	<path fill="#81CB4A" transform="scale(0.488281 0.488281)" d="M890.649 669.95C902.155 676.559 915.386 680.42 928.696 680.644C926.595 693.345 927.908 707.092 927.039 719.992C916.021 720.504 906.544 719.08 895.989 715.89L882.662 681.97L890.649 669.95Z"/>
	<path fill="#5EA73D" transform="scale(0.488281 0.488281)" d="M931.709 519.926L932.369 518.263C933.084 518.569 932.833 518.324 933.175 518.977L950.453 556.02C956.461 568.714 963.427 581.411 968.488 594.5C969.542 597.225 970.496 599.823 969.161 602.603C967.957 605.112 965.539 606.774 963.366 608.402L981.666 639.052C984.462 643.551 988.468 648.388 987.347 654C986.884 656.319 985.38 658.185 983.907 659.955L979.234 662.761C978.372 663.213 978.009 663.498 977.584 664.418C977.074 666.892 976.932 669.272 975.034 671.089C971.711 672.401 968.535 673.991 965.139 675.121C955.347 678.379 944.719 680.075 934.398 679.997C933.984 676.752 934.031 673.439 934.336 670.189C934.889 663.904 934.289 657.299 934.097 651L933.471 623.701L931.616 623.55L931.71 612.714L931.911 612.196C932.774 608.677 932.22 603.957 932.176 600.316L932.079 580.169L931.986 541.059C931.966 534.085 932.325 526.869 931.709 519.926Z"/>
	<path fill="#894906" transform="scale(0.488281 0.488281)" d="M931.911 612.196L932.426 612.557C935.869 614.87 939.273 614.002 943.094 613.215L964.381 606.846C957.007 617.997 945.877 621.049 933.471 623.701L931.616 623.55L931.71 612.714L931.911 612.196Z"/>
	<path fill="#704E0D" transform="scale(0.488281 0.488281)" d="M934.336 670.189C948.542 669.924 963.293 668.318 976.745 663.61L977.584 664.418C977.074 666.892 976.932 669.272 975.034 671.089C971.711 672.401 968.535 673.991 965.139 675.121C955.347 678.379 944.719 680.075 934.398 679.997C933.984 676.752 934.031 673.439 934.336 670.189Z"/>
	<path fill="#DF493F" transform="scale(0.488281 0.488281)" d="M511.929 237.896C513.265 238.37 514.577 238.786 515.785 239.546L651.468 328.609L511.398 328.986L511.104 328.946C511.928 325.091 511.079 320.522 511.505 316.477L512.056 316.201L511.992 270.484L511.929 237.896Z"/>
	<path fill="#F1EBE4" transform="scale(0.488281 0.488281)" d="M511.992 270.484C518.501 271.222 523.744 273.607 527.873 278.929C529.521 281.053 530.725 283.461 531.585 286L531.835 286.726C533.859 292.875 532.997 300.22 529.928 305.858C527.395 310.513 522.785 313.929 517.687 315.289C515.816 315.789 513.995 316.121 512.056 316.201L511.992 270.484Z"/>
	<path fill="#62CEDC" transform="scale(0.488281 0.488281)" d="M904.413 737.067C908.139 742.277 910.349 747.511 909.357 754.029L908.053 759.054C914.15 759.37 919.97 759.046 925.937 757.774L925.561 835.504L899.755 835.603L887.618 835.716L874.698 835.643L867.931 835.585L850.464 835.544L850.5 806.09L850.628 787.206C848.413 785.211 845.942 783.461 843.884 781.304C836.975 774.065 834.958 765.936 832.306 756.615C832.845 755.143 833.589 754.086 834.525 752.835L842.193 737.658L859 743.512C862.075 744.561 865.303 745.991 868.47 746.676L869.431 746.598L870.449 746.044L874.512 746.067C879.211 745.155 883.76 743.597 888.34 742.224C893.78 740.592 899.101 739.112 904.413 737.067Z"/>
	<path fill="#704E0D" transform="scale(0.488281 0.488281)" d="M874.051 786.495C876.842 785.593 879.676 782.752 881.982 780.935L899.483 767.25C901.449 765.796 903.874 763.362 906.322 762.958C900.499 779.846 890.476 792.12 874.274 800.166C873.302 796.173 874.023 790.661 874.051 786.495Z"/>
	<path fill="#D05115" transform="scale(0.488281 0.488281)" d="M870.449 746.044L874.512 746.067C874.379 752.035 874.862 758.757 874.074 764.622L874.051 786.495C874.023 790.661 873.302 796.173 874.274 800.166C874.852 804.714 874.61 809.447 874.627 814.027L874.698 835.643L867.931 835.585L867.984 799.389L868.156 785.358L868.47 746.676L869.431 746.598L870.449 746.044Z"/>
	<path fill="#894906" transform="scale(0.488281 0.488281)" d="M870.449 746.044L874.512 746.067C874.379 752.035 874.862 758.757 874.074 764.622C873.375 760.573 873.824 755.84 873.81 751.708L870.75 750.093C870.05 748.868 869.733 747.951 869.431 746.598L870.449 746.044Z"/>
	<path fill="#CEE8EC" transform="scale(0.488281 0.488281)" d="M850.628 787.206C856.172 791.314 861.904 796.139 867.984 799.389L867.931 835.585L850.464 835.544L850.5 806.09L850.628 787.206Z"/>
	<path fill="#5EA73D" transform="scale(0.488281 0.488281)" d="M904.413 737.067C908.139 742.277 910.349 747.511 909.357 754.029L908.053 759.054L906.322 762.958C903.874 763.362 901.449 765.796 899.483 767.25L881.982 780.935C879.676 782.752 876.842 785.593 874.051 786.495L874.074 764.622C874.862 758.757 874.379 752.035 874.512 746.067C879.211 745.155 883.76 743.597 888.34 742.224C893.78 740.592 899.101 739.112 904.413 737.067Z"/>
	<path fill="#81CB4A" transform="scale(0.488281 0.488281)" d="M842.193 737.658L859 743.512C862.075 744.561 865.303 745.991 868.47 746.676L868.156 785.358L867.984 799.389C861.904 796.139 856.172 791.314 850.628 787.206C848.413 785.211 845.942 783.461 843.884 781.304C836.975 774.065 834.958 765.936 832.306 756.615C832.845 755.143 833.589 754.086 834.525 752.835L842.193 737.658Z"/>
	<path fill="#704E0D" transform="scale(0.488281 0.488281)" d="M850.628 787.206C848.413 785.211 845.942 783.461 843.884 781.304C836.975 774.065 834.958 765.936 832.306 756.615C832.845 755.143 833.589 754.086 834.525 752.835C844.593 764.752 856.532 775.043 868.156 785.358L867.984 799.389C861.904 796.139 856.172 791.314 850.628 787.206Z"/>
	<path fill="#BA2927" transform="scale(0.488281 0.488281)" d="M372.438 328.378L511.104 328.946L511.398 328.986L651.468 328.609C652.586 329.178 653.67 329.379 653.973 330.75L654.001 346.061C649.236 346.067 643.065 345.417 638.454 346.268L638.299 361.03L615.242 361.226C611.776 361.262 606.71 360.729 603.594 362.162L604.386 362.435C605.311 362.763 604.992 362.563 605.51 362.967L534.419 363.057C533.243 360.088 534.277 356.512 533.082 353.456L511.248 353.481L386.988 354.054L386.964 346.092L372.085 346.172C372.051 340.954 371.078 333.274 372.438 328.378Z"/>
	<path fill="#CA3A38" transform="scale(0.488281 0.488281)" d="M386.964 346.092L511.1 346.413L511.385 346.374L598.189 346.44L625.418 346.506C629.576 346.508 634.368 346.972 638.454 346.268L638.299 361.03L615.242 361.226C611.776 361.262 606.71 360.729 603.594 362.162L604.386 362.435C605.311 362.763 604.992 362.563 605.51 362.967L534.419 363.057C533.243 360.088 534.277 356.512 533.082 353.456L511.248 353.481L386.988 354.054L386.964 346.092Z"/>
	<path fill="#4CBDB6" transform="scale(0.488281 0.488281)" d="M638.285 434.94L675.274 434.943L675.242 403.465L760.043 403.492L759.916 515.146L702.052 515.093L707.872 502.581C706.778 501.098 704.037 499.82 702.424 498.856L687.781 490.25L638.16 460.154L638.285 434.94Z"/>
	<defs>
		<linearGradient id="gradient_1" gradientUnits="userSpaceOnUse" x1="591.24261" y1="470.69897" x2="647.10571" y2="395.76056">
			<stop offset="0" stop-color="#276273"/>
			<stop offset="1" stop-color="#0E5984"/>
		</linearGradient>
	</defs>
	<path fill="url(#gradient_1)" transform="scale(0.488281 0.488281)" d="M511.248 353.481L533.082 353.456C534.277 356.512 533.243 360.088 534.419 363.057L605.51 362.967C604.992 362.563 605.311 362.763 604.386 362.435L603.594 362.162C606.71 360.729 611.776 361.262 615.242 361.226L638.299 361.03L638.285 434.94L638.16 460.154L687.781 490.25L702.424 498.856C704.037 499.82 706.778 501.098 707.872 502.581L702.052 515.093C700.665 518.712 698.77 522.022 696.764 525.325L666.271 507.383L511.058 412.375C510.458 408.825 510.819 405.033 510.84 401.435L510.921 383.155L511.573 382.932C512.046 380.522 511.588 377.158 511.565 374.662L511.248 353.481Z"/>
	<path fill="#CEE8EC" transform="scale(0.488281 0.488281)" d="M551.186 406.379L566.976 406.384L566.939 416.316L551.186 406.379Z"/>
	<path fill="#CEE8EC" transform="scale(0.488281 0.488281)" d="M578.244 406.259L600.244 406.155L600.317 428.688C600.319 430.735 600.857 434.973 599.75 436.576L596.624 435.003L573.002 419.913L573.088 406.325L578.244 406.259Z"/>
	<path fill="#DF493F" transform="scale(0.488281 0.488281)" d="M511.248 353.481L533.082 353.456C534.277 356.512 533.243 360.088 534.419 363.057L534.583 397.339C527.226 392.436 519.498 386.804 511.573 382.932C512.046 380.522 511.588 377.158 511.565 374.662L511.248 353.481Z"/>
	<path fill="#CEE8EC" transform="scale(0.488281 0.488281)" d="M540.526 369.009L567.08 369.012L567.029 401.332L540.516 401.112L540.526 369.009Z"/>
	<path fill="#CEE8EC" transform="scale(0.488281 0.488281)" d="M572.96 368.988L600.011 369.004L600.009 401.261L572.949 401.258L572.96 368.988Z"/>
	<path fill="#DF493F" transform="scale(0.488281 0.488281)" d="M605.51 362.967C604.992 362.563 605.311 362.763 604.386 362.435L603.594 362.162C606.71 360.729 611.776 361.262 615.242 361.226L638.299 361.03L638.285 434.94L638.16 460.154L605.914 440.453L605.56 363.565L605.51 362.967Z"/>
	<path fill="#DF493F" transform="scale(0.488281 0.488281)" d="M666.271 507.383L696.764 525.325C698.77 522.022 700.665 518.712 702.052 515.093L759.916 515.146L788.837 515.121L826.149 515.107L858.599 515.063L858.599 543.865L847.355 543.758L847.457 566.963L847.911 671.199L848.022 697.62C848.032 702.551 847.763 707.641 848.319 712.543L842.497 728.435C841.965 731.27 841.514 734.828 842.193 737.658L834.525 752.835C833.589 754.086 832.845 755.143 832.306 756.615C834.958 765.936 836.975 774.065 843.884 781.304C845.942 783.461 848.413 785.211 850.628 787.206L850.5 806.09L666.095 806.318L666.005 805.551L666.077 664.621L666.032 650.574L666.017 564.541L666.038 542.672L666 528.449L666.365 527.947L666.195 523.945L666.271 507.383Z"/>
	<path fill="#BA2927" transform="scale(0.488281 0.488281)" d="M666.271 507.383L696.764 525.325C698.77 522.022 700.665 518.712 702.052 515.093L759.916 515.146L788.837 515.121L826.149 515.107L858.599 515.063L858.599 543.865L847.355 543.758L847.457 566.963C843.526 567.481 838.801 566.993 834.796 566.991L805.126 566.978L702.239 567.079L675.536 567.131C673.195 567.135 668.544 567.775 666.476 566.75L666.017 564.541L666.038 542.672L666 528.449L666.365 527.947L666.195 523.945L666.271 507.383Z"/>
	<path fill="#CA3A38" transform="scale(0.488281 0.488281)" d="M666.365 527.947L666.494 528.903C667.075 533.596 666.573 538.83 666.519 543.578L847.355 543.758L847.457 566.963C843.526 567.481 838.801 566.993 834.796 566.991L805.126 566.978L702.239 567.079L675.536 567.131C673.195 567.135 668.544 567.775 666.476 566.75L666.017 564.541L666.038 542.672L666 528.449L666.365 527.947Z"/>
	<path fill="#1C648A" transform="scale(0.488281 0.488281)" d="M689.38 711.328L825.474 711.891L825.017 788.979L689.457 789.922L689.38 711.328Z"/>
	<path fill="#CEE8EC" transform="scale(0.488281 0.488281)" d="M695.41 717.456L720.638 717.473L720.59 746.925L695.461 746.924L695.41 717.456Z"/>
	<path fill="#CEE8EC" transform="scale(0.488281 0.488281)" d="M695.423 753.039L720.607 753.026L720.575 783.059L695.389 783.037L695.423 753.039Z"/>
	<path fill="#CEE8EC" transform="scale(0.488281 0.488281)" d="M727.151 717.489L753.249 717.508L753.199 746.925L727.309 746.916L727.151 717.489Z"/>
	<path fill="#CEE8EC" transform="scale(0.488281 0.488281)" d="M727.013 753.053L753.147 753.051L753.07 782.981L727.021 782.993L727.013 753.053Z"/>
	<path fill="#CEE8EC" transform="scale(0.488281 0.488281)" d="M792.583 717.713L819.026 717.633L819.004 747.395L792.542 747.345L792.583 717.713Z"/>
	<path fill="#CEE8EC" transform="scale(0.488281 0.488281)" d="M759.794 717.563L786.483 717.576L786.487 747.361L759.888 747.181L759.794 717.563Z"/>
	<path fill="#CEE8EC" transform="scale(0.488281 0.488281)" d="M759.878 753.402L786.321 753.433L786.388 783.454L759.862 783.295L759.878 753.402Z"/>
	<path fill="#CEE8EC" transform="scale(0.488281 0.488281)" d="M792.473 753.306L818.968 753.296L818.988 783.492L792.48 783.475L792.473 753.306Z"/>
	<path fill="#1C648A" transform="scale(0.488281 0.488281)" d="M688.996 594.549L825.483 594.424L825.067 675.897L689.182 676.06L688.996 594.549Z"/>
	<path fill="#CEE8EC" transform="scale(0.488281 0.488281)" d="M695.011 640.036L720.529 640L720.518 669.452L694.978 669.309L695.011 640.036Z"/>
	<path fill="#CEE8EC" transform="scale(0.488281 0.488281)" d="M792.803 639.925L818.614 639.826C819.42 640.962 818.923 666.367 818.925 669.507L792.839 669.498L792.803 639.925Z"/>
	<path fill="#CEE8EC" transform="scale(0.488281 0.488281)" d="M727.365 639.937L753.525 639.839L753.522 669.486L727.32 669.432L727.365 639.937Z"/>
	<path fill="#CEE8EC" transform="scale(0.488281 0.488281)" d="M759.995 639.939L786.209 639.914L786.255 668.75C785.998 668.989 785.823 669.376 785.484 669.466C783.884 669.888 780.775 669.464 779.046 669.464L759.952 669.457L759.995 639.939Z"/>
	<path fill="#CEE8EC" transform="scale(0.488281 0.488281)" d="M695.208 601.368L720.768 601.392L720.724 633.88L695.541 633.927C694.667 632.061 695.248 628.022 695.244 625.794L695.208 601.368Z"/>
	<path fill="#CEE8EC" transform="scale(0.488281 0.488281)" d="M760.059 601.402L786.203 601.411L786.129 633.946L760.117 633.859L760.059 601.402Z"/>
	<path fill="#CEE8EC" transform="scale(0.488281 0.488281)" d="M795.16 601.25L818.876 601.273L818.75 633.507L817.25 633.913L792.908 633.851L792.838 609.966C792.834 607.562 792.231 603.49 793.25 601.365L795.16 601.25Z"/>
	<path fill="#CEE8EC" transform="scale(0.488281 0.488281)" d="M727.117 601.204L753.6 601.203L753.547 633.809L727.131 633.838L727.117 601.204Z"/>
	<path fill="#FBCD7A" transform="scale(0.488281 0.488281)" d="M511.058 412.375L666.271 507.383L666.195 523.945L666.365 527.947L666 528.449L666.038 542.672L666.017 564.541L666.032 650.574L511.434 650.655L511.065 650.634L357.91 650.42L357.918 562.393L357.86 543.087L357.989 527.974L357.669 527.455L357.907 524.183L357.974 523.882C369.788 514.794 383.541 507.952 396.023 499.8L451.312 464.59L495.999 436.161C500.128 433.712 505.794 429.876 510.489 429.042L510.515 412.468L511.058 412.375Z"/>
	<path fill="#FBFAF9" transform="scale(0.488281 0.488281)" d="M512.039 634.501L477.15 634.648L477.2 625.034L485.669 625.051L485.969 551.021L537.082 550.903C538.295 555.376 537.488 561.515 537.486 566.267L537.381 601.736C536.313 609.333 537.745 617.216 536.797 624.811L534.464 625.118C529.502 624.532 523.954 625.022 518.931 625.027C517.096 625.029 514.655 625.41 513.077 624.5L512.883 620.207C512.225 622.836 512.512 625.105 512.433 627.75C512.367 630 511.958 632.252 512.039 634.501Z"/>
	<path fill="#0A99A8" transform="scale(0.488281 0.488281)" d="M489.474 593.848L510.164 593.836L510.364 624.945L489.497 624.98L489.474 593.848Z"/>
	<path fill="#0A99A8" transform="scale(0.488281 0.488281)" d="M512.883 620.207L512.995 593.878L528.578 593.853C530.194 593.851 533.018 593.487 534.454 594.116L534.464 625.118C529.502 624.532 523.954 625.022 518.931 625.027C517.096 625.029 514.655 625.41 513.077 624.5L512.883 620.207Z"/>
	<path fill="#0A99A8" transform="scale(0.488281 0.488281)" d="M489.174 555.048L510.136 555.052L510.262 590.783L489.395 590.76L489.174 555.048Z"/>
	<path fill="#0A99A8" transform="scale(0.488281 0.488281)" d="M512.987 555.003L534.481 554.981L534.483 590.932L512.988 590.901L512.987 555.003Z"/>
	<path fill="#FBFAF9" transform="scale(0.488281 0.488281)" d="M396.064 551.25L448.829 551.074L448.936 625.352L461.033 625.393L461.022 634.383L447.875 634.443L383.862 634.442L383.985 625.111L394.283 625.046L394.101 574.512C394.083 567.002 393.528 558.998 394.25 551.551L396.064 551.25Z"/>
	<path fill="#0A99A8" transform="scale(0.488281 0.488281)" d="M423.431 594.035L445.288 594.005L445.329 625.137L423.454 625.212L423.431 594.035Z"/>
	<path fill="#0A99A8" transform="scale(0.488281 0.488281)" d="M397.996 594.011L420.203 593.994L420.144 625.237L398.01 625.157L397.996 594.011Z"/>
	<path fill="#0A99A8" transform="scale(0.488281 0.488281)" d="M397.982 555.336L420.035 555.374L420.09 591.015L397.982 591.029L397.982 555.336Z"/>
	<path fill="#0A99A8" transform="scale(0.488281 0.488281)" d="M423.061 555.325L445.484 555.266L445.42 591.021L423.258 591.036L423.061 555.325Z"/>
	<path fill="#F5B158" transform="scale(0.488281 0.488281)" d="M511.419 542.541L666.038 542.672L666.017 564.541L666.032 650.574L511.434 650.655C511.43 646.365 510.488 638.335 512.039 634.501C511.958 632.252 512.367 630 512.433 627.75C512.512 625.105 512.225 622.836 512.883 620.207L513.077 624.5C514.655 625.41 517.096 625.029 518.931 625.027C523.954 625.022 529.502 624.532 534.464 625.118L536.797 624.811C537.745 617.216 536.313 609.333 537.381 601.736L537.486 566.267C537.488 561.515 538.295 555.376 537.082 550.903C535.542 549.944 532.229 550.398 530.395 550.405L511.949 550.503C511.122 548.859 511.472 544.513 511.419 542.541Z"/>
	<path fill="#F1EBE4" transform="scale(0.488281 0.488281)" d="M534.464 625.118L536.797 624.811C537.745 617.216 536.313 609.333 537.381 601.736L537.464 625.094L548.036 625.168L548.051 634.455L512.039 634.501C511.958 632.252 512.367 630 512.433 627.75C512.512 625.105 512.225 622.836 512.883 620.207L513.077 624.5C514.655 625.41 517.096 625.029 518.931 625.027C523.954 625.022 529.502 624.532 534.464 625.118Z"/>
	<path fill="#F1EBE4" transform="scale(0.488281 0.488281)" d="M601.438 625.078L603.434 624.437L603.889 620.297L604.136 624.495C605.739 625.454 608.959 625.014 610.88 625.015L626.465 625.023L629.648 624.957L630.623 625.052L638.475 625.136L638.403 634.36L567.568 634.437L567.721 625.17L574.954 625.152L578.175 624.989L595.314 624.958C596.921 624.953 600.034 624.561 601.438 625.078Z"/>
	<path fill="#FBFAF9" transform="scale(0.488281 0.488281)" d="M574.954 625.152L574.979 551.202L629.612 551.062L629.648 624.957L626.465 625.023L610.88 625.015C608.959 625.014 605.739 625.454 604.136 624.495L603.889 620.297L603.434 624.437L601.438 625.078C600.034 624.561 596.921 624.953 595.314 624.958L578.175 624.989L574.954 625.152Z"/>
	<path fill="#0A99A8" transform="scale(0.488281 0.488281)" d="M603.889 620.297L604.012 593.866L626.497 593.879L626.465 625.023L610.88 625.015C608.959 625.014 605.739 625.454 604.136 624.495L603.889 620.297Z"/>
	<path fill="#0A99A8" transform="scale(0.488281 0.488281)" d="M578.175 624.989L578.285 593.863L601.418 593.888L601.438 625.078C600.034 624.561 596.921 624.953 595.314 624.958L578.175 624.989Z"/>
	<path fill="#0A99A8" transform="scale(0.488281 0.488281)" d="M604.015 555.088L626.534 555.036L626.503 590.989L603.925 590.981L604.015 555.088Z"/>
	<path fill="#0A99A8" transform="scale(0.488281 0.488281)" d="M578.353 555.049L600.903 555.057C601.793 557.877 601.274 562.534 601.29 565.548L601.324 590.912L578.336 590.957L578.353 555.049Z"/>
	<path fill="#F5B158" transform="scale(0.488281 0.488281)" d="M511.058 412.375L666.271 507.383L666.195 523.945L666.365 527.947L666 528.449L666.038 542.672L511.419 542.541L510.993 542.56L357.86 543.087L357.989 527.974L357.669 527.455L357.907 524.183L357.974 523.882C369.788 514.794 383.541 507.952 396.023 499.8L451.312 464.59L495.999 436.161C500.128 433.712 505.794 429.876 510.489 429.042L510.515 412.468L511.058 412.375Z"/>
	<path fill="#F0D6BA" transform="scale(0.488281 0.488281)" d="M514.765 443.857C523.553 444.76 530.704 448.217 536.25 455.261C541.398 461.799 544.233 470.821 543.093 479.118C541.874 487.997 537.085 496.282 529.906 501.639C524.278 505.838 517.803 506.969 510.929 506.967L510.847 443.837L514.765 443.857Z"/>
	<path fill="#F5A139" transform="scale(0.488281 0.488281)" d="M511.058 412.375L666.271 507.383L666.195 523.945C663.883 523.144 661.51 521.347 659.337 520.129L635.406 505.75L558.158 457.879C545.886 450.131 534.168 441.843 521.466 434.76C517.899 432.771 514.332 430.437 510.489 429.042L510.515 412.468L511.058 412.375Z"/>
	<path fill="#F1EBE4" transform="scale(0.488281 0.488281)" d="M357.989 527.974C363.019 527.409 368.421 527.929 373.5 527.943L404.706 527.972L510.943 528.045L631.291 528.076L655.859 528.108C658.773 528.115 663.278 527.551 666 528.449L666.038 542.672L511.419 542.541L510.993 542.56L357.86 543.087L357.989 527.974Z"/>
	<path fill="#FBCD7A" transform="scale(0.488281 0.488281)" d="M357.974 523.882C369.788 514.794 383.541 507.952 396.023 499.8L451.312 464.59L495.999 436.161C500.128 433.712 505.794 429.876 510.489 429.042C510.482 431.853 509.572 441.645 511 443.435L514.765 443.857L510.847 443.837L510.929 506.967L510.943 528.045L404.706 527.972L373.5 527.943C368.421 527.929 363.019 527.409 357.989 527.974L357.669 527.455L357.907 524.183L357.974 523.882Z"/>
	<path fill="#F1EBE4" transform="scale(0.488281 0.488281)" d="M510.929 506.967C508.649 506.739 506.219 506.619 504 506.047C496.038 503.999 489.366 498.799 485.327 491.658C481.447 484.801 479.993 475.426 482.213 467.835L482.469 467C483.98 461.951 486.23 457.639 489.822 453.75C495.299 447.82 502.752 444.066 510.847 443.837L510.929 506.967Z"/>
	<path fill="#0BAF7C" transform="scale(0.488281 0.488281)" d="M357.91 650.42L511.065 650.634L511.434 650.655L666.032 650.574L666.077 664.621L666.005 805.551L666.095 806.318L850.5 806.09L850.464 835.544L867.931 835.585L874.698 835.643L887.618 835.716L899.755 835.603L925.561 835.504L938.447 835.494L1023.36 835.567L1024 834.756L1024.03 978.387C1024.03 983.851 1024.87 1021.44 1023.5 1024L1022.12 1024L583.344 1024L-0 1024L0 835.438C4.33724 835.448 9.19269 834.998 13.4653 835.506L87.0668 835.552L99.0287 835.427L138.702 835.442C144.401 835.461 150.931 834.866 156.538 835.619L163.814 835.615L178.724 835.516L185.561 835.624C195.7 831.561 205.341 829.778 216.25 831.992C219.746 832.701 223.134 833.993 226.498 835.157L351.49 835.155L351.345 808.305C352.794 807.404 355.597 807.659 357.342 807.558L357.366 748.611C357.368 744.718 356.461 731.488 357.833 728.658L357.954 664.404L357.91 650.42Z"/>
	<defs>
		<linearGradient id="gradient_2" gradientUnits="userSpaceOnUse" x1="520.65155" y1="875.22607" x2="520.8446" y2="899.7818">
			<stop offset="0" stop-color="#087266"/>
			<stop offset="1" stop-color="#05656B"/>
		</linearGradient>
	</defs>
	<path fill="url(#gradient_2)" transform="scale(0.488281 0.488281)" d="M471.362 823.024L507.503 823.041L512.333 823.316L553.152 823.509L567.147 823.524L582.88 823.497L582.954 835.873L582.865 838.159L582.855 844.701L583.507 844.738L608.524 844.718L608.4 862.884L608.403 866.951L627.485 866.902L627.504 876.98L710.835 877.017L734.917 877.029C739.149 877.03 743.796 876.652 747.962 877.213C750.418 877.544 751.986 878.285 753.782 879.988C755.934 882.03 757.513 885.188 757.436 888.213C757.357 891.289 755.303 894.543 753 896.5C751.936 897.405 750.679 898.185 749.424 898.79L663.921 899.411L554.609 899.562L381.068 899.484L320.25 899.591L302.878 899.646C299.786 899.651 296.104 899.982 293.109 899.26C290.197 898.558 287.676 896.217 286.234 893.678C284.577 890.759 284.239 887.266 285.328 884.078C286.222 881.46 288.357 878.678 290.937 877.554L291.421 877.355C295.018 875.757 300.625 876.245 304.55 876.211L328.782 876.147L397.454 876.049L397.464 868.438L409.713 868.462C411.263 868.461 413.044 868.786 414.362 867.857L414.263 863.181L414.088 844.506L437.36 844.501L437.44 839.23L437.394 835.046L437.426 823.086L471.362 823.024Z"/>
	<path fill="#FBFAF9" transform="scale(0.488281 0.488281)" d="M511.98 867.022L511.963 886.975L397.467 887.039L397.454 876.049L397.464 868.438L409.713 868.462C411.263 868.461 413.044 868.786 414.362 867.857C417.152 867.112 420.441 867.42 423.324 867.407L437.773 867.275L511.98 867.022Z"/>
	<path fill="#F0D6BA" transform="scale(0.488281 0.488281)" d="M608.403 866.951L627.485 866.902L627.504 876.98L627.534 886.834L511.963 886.975L511.98 867.022L608.403 866.951Z"/>
	<path fill="#F0D6BA" transform="scale(0.488281 0.488281)" d="M512.333 823.316L553.152 823.509L567.147 823.524L582.88 823.497L582.954 835.873L582.865 838.159L582.855 844.701L583.507 844.738L608.524 844.718L608.4 862.884L608.403 866.951L511.98 867.022L511.973 862.964L512.06 843.943L512.05 839.482L512.484 839.014L512.333 823.316Z"/>
	<path fill="#FBCD7A" transform="scale(0.488281 0.488281)" d="M582.865 838.159L582.855 844.701C575.189 843.372 566.76 844.008 558.975 844.019L512.06 843.943L512.05 839.482L512.484 839.014L569.759 839.014L578.957 838.982C579.531 838.98 581.517 839.179 582 838.969C582.362 838.811 582.577 838.429 582.865 838.159Z"/>
	<path fill="#FBCD7A" transform="scale(0.488281 0.488281)" d="M511.973 862.964C520.161 861.617 530.051 862.61 538.405 862.632L584.623 862.795L608.4 862.884L608.403 866.951L511.98 867.022L511.973 862.964Z"/>
	<path fill="#F0D6BA" transform="scale(0.488281 0.488281)" d="M512.333 823.316L553.152 823.509L567.147 823.524L582.88 823.497L582.954 835.873L582.865 838.159C582.577 838.429 582.362 838.811 582 838.969C581.517 839.179 579.531 838.98 578.957 838.982L569.759 839.014L512.484 839.014L512.333 823.316Z"/>
	<path fill="#FBFAF9" transform="scale(0.488281 0.488281)" d="M471.362 823.024L507.503 823.041L512.333 823.316L512.484 839.014L512.05 839.482L512.06 843.943L511.973 862.964L511.98 867.022L437.773 867.275L423.324 867.407C420.441 867.42 417.152 867.112 414.362 867.857L414.263 863.181L414.088 844.506L437.36 844.501L437.44 839.23L437.394 835.046L437.426 823.086L471.362 823.024Z"/>
	<path fill="#F0D6BA" transform="scale(0.488281 0.488281)" d="M437.44 839.23L512.05 839.482L512.06 843.943L437.36 844.501L437.44 839.23Z"/>
	<path fill="#F0D6BA" transform="scale(0.488281 0.488281)" d="M414.263 863.181L511.973 862.964L511.98 867.022L437.773 867.275L423.324 867.407C420.441 867.42 417.152 867.112 414.362 867.857L414.263 863.181Z"/>
	<path fill="#FBFAF9" transform="scale(0.488281 0.488281)" d="M471.362 823.024L507.503 823.041L512.333 823.316L512.484 839.014L512.05 839.482L437.44 839.23L437.394 835.046L437.426 823.086L471.362 823.024Z"/>
	<path fill="#0F9778" transform="scale(0.488281 0.488281)" d="M850.5 806.09L850.464 835.544L867.931 835.585L874.698 835.643L887.618 835.716L899.755 835.603L925.561 835.504L938.447 835.494L1023.36 835.567L1024 834.756L1024.03 978.387C1024.03 983.851 1024.87 1021.44 1023.5 1024L1022.12 1024C1020.71 1022.83 1015.5 1023.48 1013.4 1023.48L997.43 1023.42C993.507 1023.39 989.407 1023.51 985.556 1022.65L985 1022.52C979.247 1021.24 973.329 1018.36 967.793 1016.27L928.815 1001.1L859.939 973.954L776.065 940.093L745.25 928.942L706.623 914.506L684.602 906.92C677.73 904.675 670.355 902.682 663.921 899.411L749.424 898.79C750.679 898.185 751.936 897.405 753 896.5C755.303 894.543 757.357 891.289 757.436 888.213C757.513 885.188 755.934 882.03 753.782 879.988C751.986 878.285 750.418 877.544 747.962 877.213C743.796 876.652 739.149 877.03 734.917 877.029L710.835 877.017L627.504 876.98L627.485 866.902L608.403 866.951L608.4 862.884L608.524 844.718L583.507 844.738L582.855 844.701L582.865 838.159L582.954 835.873L665.977 835.781L666.095 806.318L850.5 806.09Z"/>
	<path fill="#BA2927" transform="scale(0.488281 0.488281)" d="M850.5 806.09L850.464 835.544L665.977 835.781L666.095 806.318L850.5 806.09Z"/>
	<path fill="#F5A139" transform="scale(0.488281 0.488281)" d="M887.618 835.716L899.755 835.603C915.135 838.306 928.437 846.16 937.55 859.021C944.144 868.328 947.822 878.248 949.238 889.511L949.62 900.303C952.366 899.179 954.776 898.277 957.75 897.907L958.606 897.793C963.408 897.222 968.703 898.813 972.477 901.843C975.609 904.358 978.123 908.467 978.507 912.51C978.932 916.985 977.381 921.274 974.468 924.677C971.415 928.244 966.82 930.366 962.173 930.609L954.497 930.621L765.217 930.733L758.405 930.45C754.51 929.94 749.524 926.648 747.25 923.582C744.935 920.462 743.679 915.545 744.272 911.693L744.392 911C745.024 907.191 746.815 904.475 749.054 901.443C751.266 899.595 753.342 898.069 756.172 897.257C762.515 895.439 767.565 897.905 773.019 900.867C772.952 895.665 773.346 890.615 775.945 885.978C779.128 880.299 784.374 875.983 790.692 874.279C797.917 872.329 805.47 873.83 811.87 877.478L812.504 877.845C813.093 875.231 813.705 872.859 815.052 870.5C818.242 864.911 823.628 860.342 829.884 858.616L830.75 858.387C838.485 856.253 844.766 857.843 851.682 861.536L854.7 856.577C861.991 845.162 874.731 838.476 887.618 835.716Z"/>
	<path fill="#F1752F" transform="scale(0.488281 0.488281)" d="M765.217 930.733C765.857 921.903 770.708 914.299 777.25 908.508C781.543 904.708 788.348 901.748 794.12 902.094L796.5 902.383L797.152 902.473C804.274 903.527 809.203 907.796 813.521 913.228C813.704 913.458 814.777 915 814.926 915.06C815.319 915.218 818.126 914.694 818.721 914.65C821.286 914.465 823.895 914.524 826.466 914.524C829.548 909.81 833.032 905.904 838.75 904.637L840 904.398L840.637 904.274C846.118 903.278 850.422 905.028 855.17 907.446C859.122 898.799 863.174 891.973 872.481 888.441C878.325 886.223 885.136 885.854 891.197 887.272L891.998 887.452C899.033 889.128 905.744 893.989 909.378 900.25L912.501 906.584C917.437 902.499 922.697 899.471 929.373 900.066C937.857 900.821 944.437 904.763 949.637 911.49L951.017 913.5L951.421 914.097C954.759 919.141 955.099 924.751 954.497 930.621L765.217 930.733Z"/>
	<path fill="#F5B158" transform="scale(0.488281 0.488281)" d="M357.91 650.42L511.065 650.634L511.434 650.655L666.032 650.574L666.077 664.621L666.005 805.551L666.095 806.318L665.977 835.781L582.954 835.873L582.88 823.497L567.147 823.524L553.152 823.509L512.333 823.316L507.503 823.041L471.362 823.024L437.426 823.086L437.394 835.046L351.49 835.155L351.345 808.305C352.794 807.404 355.597 807.659 357.342 807.558L357.366 748.611C357.368 744.718 356.461 731.488 357.833 728.658L357.954 664.404L357.91 650.42Z"/>
	<path fill="#F1EBE4" transform="scale(0.488281 0.488281)" d="M357.91 650.42L511.065 650.634L511.434 650.655L666.032 650.574L666.077 664.621L511.418 664.353L511.038 664.53L357.954 664.404L357.91 650.42Z"/>
	<path fill="#FBFAF9" transform="scale(0.488281 0.488281)" d="M574.963 681.009L629.604 680.981L629.808 765.953L574.848 766.091L574.963 681.009Z"/>
	<path fill="#0A99A8" transform="scale(0.488281 0.488281)" d="M625.558 724.25C625.86 724.408 626.175 724.768 626.43 725L626.431 757.028L604.75 757.034L603.753 756.29L603.87 724.359L625.558 724.25Z"/>
	<path fill="#0A99A8" transform="scale(0.488281 0.488281)" d="M578.158 724.234L601.439 724.267L601.42 756.483L600.25 757.151L578.204 757.266L578.158 724.234Z"/>
	<path fill="#0A99A8" transform="scale(0.488281 0.488281)" d="M603.943 684.548L626.472 684.578L626.457 721.538L603.888 721.612L603.943 684.548Z"/>
	<path fill="#0A99A8" transform="scale(0.488281 0.488281)" d="M578.351 684.509L601.249 684.526L601.329 721.611L578.273 721.668L578.351 684.509Z"/>
	<path fill="#EF5E48" transform="scale(0.488281 0.488281)" d="M510.829 669.877C530.226 669.988 549.328 670.683 567.494 678.378L567.59 805.543L593.753 805.589L647.461 805.6L660.5 805.639C662.192 805.654 664.38 805.973 666.005 805.551L666.095 806.318L665.977 835.781L582.954 835.873L582.88 823.497L567.147 823.524L553.152 823.509L553.436 694.314C537.822 688.919 523.042 687.354 506.634 687.587L505.874 687.387C507.44 686.905 509.371 686.909 511.007 686.744L510.829 669.877Z"/>
	<path fill="#004265" transform="scale(0.488281 0.488281)" d="M505.874 687.387L506.634 687.587C523.042 687.354 537.822 688.919 553.436 694.314L553.152 823.509L512.333 823.316L507.503 823.041L471.362 823.024L471.103 695.418L471.129 693.537C472.765 692.155 475.819 691.743 477.875 691.25C487.211 689.011 496.33 688.084 505.874 687.387Z"/>
	<path fill="#1C648A" transform="scale(0.488281 0.488281)" d="M527.567 752.25C529.632 751.796 532.702 752.536 534.826 752.792C534.869 756.688 535.497 761.623 534.791 765.399C534.536 766.762 534.033 766.757 532.902 767.426L530.792 767.981C529.305 768.354 528.601 768.657 527.25 767.846C527.165 765.808 528.608 764.78 528.979 762.9C529.432 760.602 529.512 756.256 528.133 754.329C527.59 753.57 527.673 753.172 527.567 752.25Z"/>
	<path fill="#1C648A" transform="scale(0.488281 0.488281)" d="M471.103 695.418L471.276 696.195C471.678 698.165 471.467 700.427 471.439 702.434C483.492 699.87 494.652 699.018 507.004 699.45L507.503 823.041L471.362 823.024L471.103 695.418Z"/>
	<path fill="#004265" transform="scale(0.488281 0.488281)" d="M495.79 757.25C497.236 757.109 498.09 756.745 499.381 757.5L499.25 765.392L498.75 765.533C497.472 765.74 496.669 765.733 495.697 764.933C495.588 762.361 495.366 759.801 495.79 757.25Z"/>
	<path fill="#FBFAF9" transform="scale(0.488281 0.488281)" d="M473.002 756.129L488 756.061C488.936 756.789 489.369 756.944 489.607 758.169C490.001 760.2 489.492 761.673 488.326 763.25C484.031 764.68 477.55 763.831 472.993 763.757L473.002 756.129Z"/>
	<path fill="#FBCD7A" transform="scale(0.488281 0.488281)" d="M357.954 664.404L511.038 664.53L510.928 669.25C506.96 670.048 502.64 668.974 498.734 669.922L510.829 669.877L511.007 686.744C509.371 686.909 507.44 686.905 505.874 687.387C496.33 688.084 487.211 689.011 477.875 691.25C475.819 691.743 472.765 692.155 471.129 693.537L471.103 695.418L471.362 823.024L437.426 823.086L437.394 835.046L351.49 835.155L351.345 808.305C352.794 807.404 355.597 807.659 357.342 807.558L357.366 748.611C357.368 744.718 356.461 731.488 357.833 728.658L357.954 664.404Z"/>
	<path fill="#FBFAF9" transform="scale(0.488281 0.488281)" d="M444.769 757.475C445.768 760.419 445.465 763.76 445.476 766.844L386.692 766.84L386.648 757.455L394.311 757.46L394.041 682.027L433.698 681.922C436.713 681.925 444.563 681.077 446.932 682.5C446.992 683.547 447.075 684.546 446.883 685.587C446.715 686.498 445.994 686.606 445.25 687.063L444.79 688.915L444.57 709.066C444.568 712.498 444.19 716.475 444.798 719.837C444.95 721.002 445.06 721.525 444.703 722.669L444.496 743.836C444.497 748.312 444.184 753.037 444.769 757.475Z"/>
	<path fill="#0A99A8" transform="scale(0.488281 0.488281)" d="M397.993 686.205L419.629 686.221L419.74 719.877L397.954 719.882L397.993 686.205Z"/>
	<path fill="#0A99A8" transform="scale(0.488281 0.488281)" d="M444.798 719.837L422.868 719.85L422.8 686.157C426.581 686.151 442.129 685.297 444.66 686.75L444.79 688.915L444.57 709.066C444.568 712.498 444.19 716.475 444.798 719.837Z"/>
	<path fill="#0A99A8" transform="scale(0.488281 0.488281)" d="M444.769 757.475L422.971 757.485L422.936 722.697L444.703 722.669L444.496 743.836C444.497 748.312 444.184 753.037 444.769 757.475Z"/>
	<path fill="#0A99A8" transform="scale(0.488281 0.488281)" d="M398.036 722.736L419.86 722.691L419.902 757.5L398.003 757.52L398.036 722.736Z"/>
	<path fill="#F1752F" transform="scale(0.488281 0.488281)" d="M498.734 669.922L510.829 669.877L511.007 686.744C509.371 686.909 507.44 686.905 505.874 687.387C496.33 688.084 487.211 689.011 477.875 691.25C475.819 691.743 472.765 692.155 471.129 693.537L471.103 695.418L471.362 823.024L437.426 823.086L437.394 835.046L351.49 835.155L351.345 808.305C352.794 807.404 355.597 807.659 357.342 807.558L357.366 748.611C357.368 744.718 356.461 731.488 357.833 728.658C358.707 736.627 357.878 745.675 357.87 753.746L357.814 807.856L454.606 807.624L454.969 677.994C469.594 673.33 483.351 670.553 498.734 669.922Z"/>
	<path fill="#4EC180" transform="scale(0.488281 0.488281)" d="M185.561 835.624C195.7 831.561 205.341 829.778 216.25 831.992C219.746 832.701 223.134 833.993 226.498 835.157C240.912 843.163 251.949 852.704 256.662 869.116C258.608 875.895 258.532 883.066 257.897 890.014L258.649 890.298C260.854 891.142 262.508 891.999 264.335 893.55C272.095 893.386 278.86 893.475 284.865 899.128L287.178 901.534C291.327 901.685 294.488 903.458 298.212 905.073L309.65 909.823L333.714 919.58L498 988.506L583.344 1024L-0 1024L0 835.438C4.33724 835.448 9.19269 834.998 13.4653 835.506L87.0668 835.552L99.0287 835.427L138.702 835.442C144.401 835.461 150.931 834.866 156.538 835.619L163.814 835.615L178.724 835.516L185.561 835.624Z"/>
	<path fill="#0F9778" transform="scale(0.488281 0.488281)" d="M46.6301 924.266C50.9795 928.676 55.3307 930.954 61.6636 930.912L62.3857 930.863L270.103 930.549C275.62 931.083 279.312 929.922 284.022 927.242L290.015 930.801C292.034 932.252 294.174 934.607 294.519 937.177C294.931 940.25 294.462 942.989 292.583 945.478C290.676 948.003 287.459 950.185 284.25 950.447C280.333 950.767 276.198 950.46 272.261 950.455L249.561 950.438L175.298 950.382L103.007 950.321C91.5765 950.316 79.5054 951.204 68.1554 950.199C64.4323 949.869 61.9433 948.907 59.032 946.499C57.6965 945.395 50.8593 946.114 48.75 946.016C45.5673 945.868 42.7083 944.25 40.6055 941.907C38.6996 939.783 38.168 937.432 38.4772 934.614C38.9633 930.184 43.4953 926.916 46.6301 924.266Z"/>
	<path fill="#F5A139" transform="scale(0.488281 0.488281)" d="M185.561 835.624C195.7 831.561 205.341 829.778 216.25 831.992C219.746 832.701 223.134 833.993 226.498 835.157C240.912 843.163 251.949 852.704 256.662 869.116C258.608 875.895 258.532 883.066 257.897 890.014L258.649 890.298C260.854 891.142 262.508 891.999 264.335 893.55C272.095 893.386 278.86 893.475 284.865 899.128L287.178 901.534C289.953 906.799 291.68 912.145 289.898 918.06C288.796 921.716 286.752 924.626 284.022 927.242C279.312 929.922 275.62 931.083 270.103 930.549L62.3857 930.863L61.6636 930.912C55.3307 930.954 50.9795 928.676 46.6301 924.266C44.5151 920.774 43.143 917.614 43.4257 913.468C43.6832 909.691 46.5969 905.322 49.4212 902.903C55.4639 897.728 61.808 898.087 69.2074 898.75C69.7073 893.603 70.8057 889.414 73.5371 885C78.5394 876.917 85.5656 873.318 94.5068 871.221C92.9291 869.961 90.8478 869.29 89 868.5L77.2449 863.552L32.3209 844.089C26.0326 841.27 19.5559 838.735 13.4653 835.506L87.0668 835.552L99.0287 835.427L138.702 835.442C144.401 835.461 150.931 834.866 156.538 835.619L163.814 835.615L178.724 835.516L185.561 835.624Z"/>
	<path fill="#0F9778" transform="scale(0.488281 0.488281)" d="M99.0287 835.427L138.702 835.442C144.401 835.461 150.931 834.866 156.538 835.619L163.814 835.615L178.724 835.516L185.561 835.624C178.691 839.515 171.98 843.694 167.13 850.061C165.285 852.484 164.035 855.193 162.569 857.842C153.307 853.521 144.277 852.472 134.507 856.096C128.647 858.271 122.94 862.396 118.847 867.099C117.908 868.177 114.203 874.234 113.663 874.456C113.601 874.481 109.912 873.052 109.5 872.916C104.554 871.288 99.6648 870.908 94.5068 871.221C92.9291 869.961 90.8478 869.29 89 868.5L77.2449 863.552L32.3209 844.089C26.0326 841.27 19.5559 838.735 13.4653 835.506L87.0668 835.552L99.0287 835.427Z"/>
	<path fill="#F1752F" transform="scale(0.488281 0.488281)" d="M62.3857 930.863C62.914 930.356 63.2387 929.233 63.6105 928.578C64.6525 926.742 66.4253 924.859 68.3842 923.999L68.9879 923.75C73.0039 922.021 76.6157 921.84 80.899 922.443L81.777 922.57L83.0402 916.5C84.731 910.643 88.4484 905.741 93.8513 902.845C99.5967 899.766 106.128 899.273 112.352 901.214C119.387 903.407 123.373 907.988 126.746 914.237C131.103 908.627 136.106 903.877 142.886 901.341C150.532 898.481 158.935 900.977 165.946 904.236L168.903 897.829C172.952 890.852 179.917 885.679 187.75 883.78C194.963 882.031 202.904 883.194 209.256 887.024L210 887.479C214.133 889.943 217.609 894.081 219.843 898.305L220.143 898.882C221.213 900.915 221.872 903.088 222.593 905.263C228.082 902.147 233.344 900.231 239.768 901.299L240.5 901.429C248.706 902.848 257.292 908.363 259.801 916.673C260.518 919.047 260.668 921.837 262.044 923.953C263.895 926.798 267.312 928.722 270.103 930.549L62.3857 930.863Z"/>
</svg>
