<?xml version="1.0" encoding="utf-8" ?>
<svg xmlns="http://www.w3.org/2000/svg" xmlns:xlink="http://www.w3.org/1999/xlink" width="500" height="500">
	<path fill="#AA598D" transform="scale(0.488281 0.488281)" d="M-0 -0L1024 0L1024 1024L-0 1024L0 -0Z"/>
	<path fill="#D7CF2B" transform="scale(0.488281 0.488281)" d="M303.304 168.019C311.213 161.967 321.33 157.297 330.105 152.566C357.41 137.846 386.597 127.609 416.75 120.474C465.735 108.884 515.857 105.985 565.807 112.665C612.916 118.964 657.957 132.56 700.211 154.319C708.243 158.455 717.222 162.65 724.453 168.075L303.304 168.019Z"/>
	<path fill="#3B498D" transform="scale(0.488281 0.488281)" d="M780.074 878.976C790.716 879.838 801.054 881.851 811.5 883.987C827.059 887.169 843.743 891.323 858 898.516C863.157 901.117 865.962 903.824 867.778 909.329C867.309 910.772 866.808 912.228 865.96 913.5C856.137 928.24 794.925 938.483 776.477 941.578C730.443 949.304 683.833 953.452 637.254 956.062L477.814 959.143L356 954.066C318.854 951.559 282.053 948.033 245.308 941.894C225.255 938.544 204.924 934.754 185.637 928.218C178.289 925.727 170.376 922.866 164.047 918.289C161.498 916.445 158.354 913.553 157.956 910.25C157.597 907.27 158.704 904.619 160.566 902.338C170.535 890.129 224.304 877.714 240.67 876.363C235.918 884.6 231.205 896.541 233.957 906.157C235.782 912.534 240.468 917.453 246.25 920.492C250.306 922.625 253.808 923.073 258.301 923.203L296.376 923.351L362.411 923.511L592.064 923.547L726 923.664L761.326 923.827L774.607 923.927C776.998 923.934 779.537 924.124 781.827 923.309C784.254 922.445 786.45 920.116 787.411 917.75C788.407 915.3 788.305 911.87 788.363 909.25C788.485 903.797 789.272 897.609 786.963 892.553L780.074 878.976Z"/>
	<path fill="#091B62" transform="scale(0.488281 0.488281)" d="M303.304 168.019L724.453 168.075L789.496 168.299L808.937 168.234C813.641 168.218 818.434 167.97 823.05 169.031C831.062 170.873 838.964 175.494 844.622 181.422C849.798 186.845 853.417 193.88 855.004 201.203C856.924 210.067 855.907 220.779 855.921 229.891L855.956 275.905L856.025 299.849C865.999 313.677 872.725 330.866 879.101 346.625C886.233 364.254 892.679 382.36 897.53 400.766C911.824 454.992 915.051 512.693 906.062 568.073C892.889 649.237 852.149 723.751 793.303 780.751C782.35 791.361 770.923 802.094 758.536 811.022L749.666 817.31L780.074 878.976L786.963 892.553C789.272 897.609 788.485 903.797 788.363 909.25C788.305 911.87 788.407 915.3 787.411 917.75C786.45 920.116 784.254 922.445 781.827 923.309C779.537 924.124 776.998 923.934 774.607 923.927L761.326 923.827L726 923.664L592.064 923.547L362.411 923.511L296.376 923.351L258.301 923.203C253.808 923.073 250.306 922.625 246.25 920.492C240.468 917.453 235.782 912.534 233.957 906.157C231.205 896.541 235.918 884.6 240.67 876.363L271.513 815.112L255.148 803.333C238.933 790.344 222.911 775.887 209.02 760.426C155.615 700.984 123.507 624.946 114.819 545.709C108.381 486.985 115.936 426.497 135.024 370.698C140.208 355.543 145.917 340.713 152.94 326.304L161.475 309.213C163.438 305.347 165.306 301.157 168.026 297.765L168.088 232.383C168.078 221.55 167.187 209.827 168.573 199.118C169.143 194.711 170.956 190.025 173.275 186.226C178.416 177.806 186.48 171.829 196 169.4C201.86 167.905 207.844 168.109 213.845 168.096L236.441 168.069L303.304 168.019Z"/>
	<path fill="#157AB4" transform="scale(0.488281 0.488281)" d="M379.44 759.07L379.34 775.147C377.044 775.814 373.194 775.309 370.723 775.277C370.631 772.373 370.363 767.733 371.403 765.024C372.752 761.508 376.254 760.369 379.44 759.07Z"/>
	<path fill="#FFD402" transform="scale(0.488281 0.488281)" d="M684.135 790.243L722.871 790.449L730.462 805.75L730 806.386L726.625 806.488L685.788 806.496L678.75 790.916L679.25 790.283L684.135 790.243Z"/>
	<path fill="#F88822" transform="scale(0.488281 0.488281)" d="M320.716 789.733L347.529 789.565L337.676 807.969L319.755 807.909L292.729 807.933L294.302 805.076C298.137 798.164 301.199 793.303 309.26 791.068L310 790.87C313.488 789.891 317.115 789.895 320.716 789.733Z"/>
	<path fill="#FFD402" transform="scale(0.488281 0.488281)" d="M626.141 790.002L673.224 790.129L680.794 806.534L630.148 806.562L626.141 790.002Z"/>
	<path fill="#FFD402" transform="scale(0.488281 0.488281)" d="M571.812 789.926L620.097 789.852L624.864 806.778L573.6 806.89L571.812 789.926Z"/>
	<path fill="#FBAB11" transform="scale(0.488281 0.488281)" d="M464.182 789.681L509.643 789.641L509.222 802.557C509.158 804.051 509.385 806.024 508.427 807.25L505.625 807.366L458.936 807.436L464.182 789.681Z"/>
	<path fill="#FBAB11" transform="scale(0.488281 0.488281)" d="M412.229 789.616L458.888 789.753L455.828 801.444C455.378 803.142 455.029 806.04 453.892 807.351L451.125 807.428L403.864 807.456L412.229 789.616Z"/>
	<path fill="#F88822" transform="scale(0.488281 0.488281)" d="M264.757 866.55L307.604 866.56L297.33 885.626L295.567 888.465L272.077 888.529C268.765 888.533 264.614 889.09 261.5 888.102C260.22 887.105 259.489 886.073 258.863 884.559C256.928 879.874 262.705 870.958 264.757 866.55Z"/>
	<path fill="#FFD402" transform="scale(0.488281 0.488281)" d="M563.059 789.74L566.034 789.811C567.096 790.919 566.996 792.832 567.162 794.29L568.607 806.957L519.375 807.022L513.994 807.027L514.57 789.771L563.059 789.74Z"/>
	<path fill="#FBAB11" transform="scale(0.488281 0.488281)" d="M291.108 811.636L335.66 811.571L324.047 833.25C321.976 834.854 315.049 834.068 312.214 834.068L280.262 834.063L291.108 811.636Z"/>
	<path fill="#F88822" transform="scale(0.488281 0.488281)" d="M352.075 789.692L406.107 789.741L406.381 790.053L398.524 807.508L397.25 807.755L342.527 807.615L352.075 789.692Z"/>
	<path fill="#F88822" transform="scale(0.488281 0.488281)" d="M713.078 866.633L759.415 866.469L770.924 888.561L721.985 888.517L713.078 866.633Z"/>
	<path fill="#FFD402" transform="scale(0.488281 0.488281)" d="M278.104 838.476L321.601 838.516L309.354 862.95L266.681 863.015L278.104 838.476Z"/>
	<path fill="#FFD402" transform="scale(0.488281 0.488281)" d="M688.369 810.916L732.542 810.798L744.193 834.41L699.125 834.433L688.369 810.916Z"/>
	<path fill="#FFD402" transform="scale(0.488281 0.488281)" d="M700.803 838.552L731.137 838.503C735.952 838.497 741.357 838.013 746.104 838.66L757.772 862.958L711.93 863.038L700.803 838.552Z"/>
	<path fill="#FFD402" transform="scale(0.488281 0.488281)" d="M458.191 811.264L508.668 811.041L508.264 827.482C508.196 829.423 508.52 832.281 507.5 833.899L503.811 833.962L452.311 833.953L458.191 811.264Z"/>
	<path fill="#FFD402" transform="scale(0.488281 0.488281)" d="M444.642 811.25L453.58 811.25L447.625 834.087L402.125 834.088L392.236 834.06L402.36 811.469L444.642 811.25Z"/>
	<path fill="#FFD402" transform="scale(0.488281 0.488281)" d="M622.74 810.745C623.855 810.707 624.68 810.715 625.75 811.049L632.112 834.027L584.437 834.008L576.065 833.996L573.913 810.86L622.74 810.745Z"/>
	<path fill="#FFD402" transform="scale(0.488281 0.488281)" d="M631.147 810.969L683.102 810.969L693.789 834.205L637.061 834.095L631.147 810.969Z"/>
	<path fill="#FBAB11" transform="scale(0.488281 0.488281)" d="M340.506 811.475L396.942 811.418C393.577 818.717 390.917 826.979 386.96 833.905L385.25 834.084L328.627 834.041L340.506 811.475Z"/>
	<path fill="#FFD402" transform="scale(0.488281 0.488281)" d="M513.91 811.012L568.949 810.939L570.524 827.784C570.63 829.015 571.236 831.933 570.971 832.988C570.871 833.391 570.49 833.664 570.25 834.003L513.028 833.967L513.91 811.012Z"/>
	<path fill="#F88822" transform="scale(0.488281 0.488281)" d="M378.805 866.614L422.876 866.799C427.838 866.791 434.937 865.88 439.668 866.959L436.513 880.75C435.98 883.157 435.665 886.024 434.6 888.25L432.75 888.453L370.566 888.407L378.805 866.614Z"/>
	<path fill="#F88822" transform="scale(0.488281 0.488281)" d="M312.491 866.533L373.808 866.634L368.691 880.835C367.803 883.278 367.057 886.114 365.583 888.25L363.125 888.369L300.82 888.484L312.491 866.533Z"/>
	<path fill="#F88822" transform="scale(0.488281 0.488281)" d="M578.515 866.591L640.316 866.797L645.37 888.384L580.128 888.412L578.515 866.591Z"/>
	<path fill="#F88822" transform="scale(0.488281 0.488281)" d="M511.867 866.577L574.41 866.595L575.534 888.448L511.672 888.469L511.867 866.577Z"/>
	<path fill="#FFD402" transform="scale(0.488281 0.488281)" d="M390.359 838.552L446.79 838.526C444.893 844.048 443.584 849.97 442.217 855.659C441.743 857.63 441.303 861.49 440 862.914L437.625 862.954L380.143 862.971L390.359 838.552Z"/>
	<path fill="#F88822" transform="scale(0.488281 0.488281)" d="M644.841 866.62L708.159 866.735L717.026 888.504L650.203 888.533L644.841 866.62Z"/>
	<path fill="#F88822" transform="scale(0.488281 0.488281)" d="M444.249 866.546L507.437 866.62L507.232 881.765C507.2 883.769 507.485 886.419 506.75 888.275L503.47 888.407L439.211 888.488L444.249 866.546Z"/>
	<path fill="#FFD402" transform="scale(0.488281 0.488281)" d="M576.376 838.466L633.091 838.448L639.528 863.002L578.508 862.998L576.376 838.466Z"/>
	<path fill="#FFD402" transform="scale(0.488281 0.488281)" d="M451.219 838.491L507.953 838.497C507.898 842.087 508.314 861.397 507 862.956L503.125 863.016L445.383 862.977C444.91 861.139 450.319 842.146 451.219 838.491Z"/>
	<path fill="#FFD402" transform="scale(0.488281 0.488281)" d="M326.342 838.485L385.248 838.546L378.75 854.184C377.585 857.063 376.686 860.304 374.963 862.881L373.25 863.033L314.35 862.978L326.342 838.485Z"/>
	<path fill="#FFD402" transform="scale(0.488281 0.488281)" d="M637.872 838.506L695.782 838.481L707.186 863.003L644.26 863.011L637.872 838.506Z"/>
	<path fill="#FFD402" transform="scale(0.488281 0.488281)" d="M512.949 838.522L571.764 838.477L573.36 855.931C573.57 858.095 574.451 861.275 573.25 863.015L512.073 863.008L512.949 838.522Z"/>
	<path fill="#FCFDFD" transform="scale(0.488281 0.488281)" d="M805.014 565.989L839.783 565.984L839.833 596.456C839.832 602.544 840.587 609.971 838.902 615.837C837.739 619.886 835.32 623.671 832.35 626.632C825.055 633.907 817.259 633.691 807.784 633.579L805.035 633.509L805.014 565.989Z"/>
	<path fill="#3B498D" transform="scale(0.488281 0.488281)" d="M473.114 746.652C469.217 747.197 465.008 746.894 461.055 746.914L439.877 747.006L439.957 649.808L473.289 649.886L473.114 746.652Z"/>
	<path fill="#AA598D" transform="scale(0.488281 0.488281)" d="M247.018 896.119C249.51 898.068 252.119 900.093 255.196 900.998L255.876 901.188C260.282 902.485 265.427 901.994 270 901.996L290.846 902.015L361.235 902.179L677.861 902.381L774.714 902.338L774.503 909.588C769.461 910.081 763.95 909.627 758.864 909.609L729.091 909.597L626.827 909.486L339.167 909.355L282.459 909.159L264.75 909.135C262.1 909.135 258.113 909.665 255.791 908.321L255.25 907.975C250.291 904.843 248.772 901.458 247.018 896.119Z"/>
	<path fill="#1AA5B2" transform="scale(0.488281 0.488281)" d="M395.288 759.291L510.292 759.5L542.269 759.588C547.748 759.615 553.804 759.205 559.226 759.914L618.22 759.72L635.672 759.713C638.863 759.707 642.467 759.404 645.62 759.852C647.668 760.143 649.41 760.68 650.94 762.127C652.817 763.903 653.371 766.345 653.25 768.866C653.158 770.776 652.359 772.825 650.93 774.126C649.93 775.037 648.841 775.656 647.5 775.885C644.292 776.432 640.507 776.068 637.226 776.085L615.758 776.159L547.435 776.094L390.297 775.555L390.35 763.875C390.359 762.408 390.15 760.775 390.75 759.407L395.288 759.291Z"/>
	<path fill="#30CFE1" transform="scale(0.488281 0.488281)" d="M366.021 633.495L237.767 633.489L219.13 633.496C208.48 633.494 200.125 634.095 192.069 625.911C188.511 622.297 185.866 617.461 184.817 612.495C183.861 607.974 184.461 602.271 184.452 597.616L184.447 565.592L374.726 565.916L374.062 565.965L288.714 566.046L307.975 587.563C316.432 596.313 326.091 604.777 335.734 612.222L354.262 625.612C357.968 628.088 362.883 630.402 366.021 633.495Z"/>
	<path fill="#0C5990" transform="scale(0.488281 0.488281)" d="M473.289 649.886L547.137 649.983L584.987 650.002L584.993 716.094L584.991 735.658C584.99 738.986 585.271 742.667 584.886 745.952C584.453 746.264 584.33 746.402 583.74 746.545C581.808 747.013 578.592 746.586 576.49 746.584L556.31 746.562L473.114 746.652L473.289 649.886Z"/>
	<path fill="#1AA5B2" transform="scale(0.488281 0.488281)" d="M547.137 649.983L584.987 650.002L584.993 716.094L584.991 735.658C584.99 738.986 585.271 742.667 584.886 745.952C580.911 746.423 576.494 746.015 572.468 746.014L547.098 746.109L547.137 649.983Z"/>
	<path fill="#137175" transform="scale(0.488281 0.488281)" d="M279.143 554.037L184.4 554.049L184.317 311.586L184.114 239.399L184.098 216.932C184.103 212.438 183.9 207.834 184.389 203.366C184.902 198.666 187.464 194.31 190.763 191.011C193.508 188.267 197.321 186.075 201.111 185.193C206.362 183.97 212.533 184.536 217.905 184.521L247.383 184.453C243.939 192.808 241.608 200.768 242.008 209.913C239.515 209.992 237.298 210.109 234.879 210.806L234.218 210.993C228.161 212.769 222.277 217.203 219.197 222.75C217.259 226.241 216.336 230.027 216.094 233.992C215.147 249.524 215.967 265.653 215.97 281.259L216.015 375.788L215.992 466.987L215.98 494.278C215.979 500.243 215.167 507.3 216.91 513C218.346 517.696 221.895 522.43 226.32 524.712L227 525.047L227.732 525.416C233.18 528.083 240.57 527.089 246.557 527.008C247.053 527.001 250.063 526.787 250.33 526.952C250.532 527.078 251.471 528.955 251.669 529.291C255.909 536.466 260.453 538.791 268.375 540.42C271.849 544.92 275.133 550.015 279.143 554.037Z"/>
	<path fill="#A5DEE4" transform="scale(0.488281 0.488281)" d="M374.726 565.916L805.014 565.989L805.035 633.509L366.021 633.495C362.883 630.402 357.968 628.088 354.262 625.612L335.734 612.222C326.091 604.777 316.432 596.313 307.975 587.563L288.714 566.046L374.062 565.965L374.726 565.916Z"/>
	<path fill="#091B62" transform="scale(0.488281 0.488281)" d="M508.72 581.117C513.378 580.884 517.488 580.988 521.559 583.656C525.345 586.136 528.684 590.847 529.479 595.327L529.589 596C530.274 599.829 529.723 603.275 527.948 606.75C525.324 611.889 521.208 614.455 515.922 616.163C512.399 616.717 509.098 616.619 505.779 615.21C500.628 613.022 497.088 609.248 495.202 604.004C493.644 599.673 494.63 594.581 496.631 590.571C499.194 585.437 503.484 582.832 508.72 581.117Z"/>
	<path fill="#1AA5B2" transform="scale(0.488281 0.488281)" d="M247.383 184.453L359.208 184.363L650.335 184.414L771.051 184.62L802.742 184.795C808.343 184.832 814.526 184.321 820 185.377L820.646 185.49C826.135 186.511 831.895 190.687 835.009 195.25C837.398 198.751 839.209 203.174 839.556 207.429C840.566 219.827 839.703 232.98 839.656 245.444L839.354 320.25L839.878 554.054L279.143 554.037C275.133 550.015 271.849 544.92 268.375 540.42L315.317 540.719L348.652 540.875C354.29 540.888 362.515 541.848 367.8 539.731C373.969 537.259 377.993 533.236 380.605 527.17L380.894 526.484L560.508 526.414L560.468 536.708C560.471 538.163 560.208 540.189 560.975 541.5C561.693 542.728 562.09 542.962 563.451 543.118C568.05 543.645 573.233 543.166 577.88 543.143L606.646 543.048L705.976 543.018C714.221 543.027 766.841 544.005 769.25 542.996C769.615 542.843 769.866 542.499 770.174 542.25C771.861 538.311 770.967 531.754 770.941 527.425L784.5 527.424C790.722 527.466 796.647 528.418 801.765 523.95C804.896 521.218 807.398 517.256 807.503 513L807.566 453.93L807.586 329.136L807.614 262.595C807.616 252.524 808.507 241.485 807.424 231.5C806.875 226.441 803.937 220.837 800.383 217.267C796.397 213.262 790.846 210.17 785.161 209.657C779.573 209.152 773.547 209.576 767.909 209.585L733.656 209.671L623.838 209.819L386.727 209.868L242.008 209.913C241.608 200.768 243.939 192.808 247.383 184.453Z"/>
	<path fill="#D7CF2B" transform="scale(0.488281 0.488281)" d="M271.513 815.112L255.148 803.333C238.933 790.344 222.911 775.887 209.02 760.426C155.615 700.984 123.507 624.946 114.819 545.709C108.381 486.985 115.936 426.497 135.024 370.698C140.208 355.543 145.917 340.713 152.94 326.304L161.475 309.213C163.438 305.347 165.306 301.157 168.026 297.765L167.999 389.995L168.163 525.624L168.062 584.024C168.028 594.397 166.983 605.729 168.591 615.93C169.96 624.607 174.418 632.377 180.682 638.45C186.493 644.082 193.917 648.009 201.923 649.364C209.538 650.652 218.107 649.961 225.838 649.963L268.002 649.948L423.549 649.91L423.483 746.518L388.867 746.328C383.567 746.301 377.039 745.56 371.908 746.609C368.256 747.355 364.334 749.383 361.75 752.079C355.53 758.566 355.654 766.195 355.876 774.561L325.446 774.531C318.232 774.53 310.25 773.78 303.25 775.655C297.954 777.073 292.848 779.964 288.974 783.841C285.023 787.796 282.445 793.113 279.941 798.034L271.513 815.112Z"/>
	<path fill="#D7CF2B" transform="scale(0.488281 0.488281)" d="M856.025 299.849C865.999 313.677 872.725 330.866 879.101 346.625C886.233 364.254 892.679 382.36 897.53 400.766C911.824 454.992 915.051 512.693 906.062 568.073C892.889 649.237 852.149 723.751 793.303 780.751C782.35 791.361 770.923 802.094 758.536 811.022L749.666 817.31L737.701 791.696C735.991 788.099 734.361 783.376 731.488 780.593C730.19 779.335 728.561 778.539 726.765 778.288C721.27 777.518 714.944 778.095 709.362 778.022L665.417 777.884L665.477 764.765C665.488 759.082 666.274 753.754 661.75 749.407C660.446 748.154 658.563 746.886 656.75 746.584C651.454 745.702 644.672 746.49 639.246 746.494L598.406 746.546L598.412 650.148L752.305 650.131L798.666 650.087C806.275 650.078 814.789 650.835 822.262 649.654C829.977 648.435 837.271 645.041 842.929 639.603C849.245 633.532 854.173 624.86 855.535 616.155C856.996 606.811 855.954 595.879 855.926 586.374L855.89 528.85L856.025 299.849Z"/>
	<path fill="#091B62" transform="scale(0.488281 0.488281)" d="M242.008 209.913L386.727 209.868L623.838 209.819L733.656 209.671L767.909 209.585C773.547 209.576 779.573 209.152 785.161 209.657C790.846 210.17 796.397 213.262 800.383 217.267C803.937 220.837 806.875 226.441 807.424 231.5C808.507 241.485 807.616 252.524 807.614 262.595L807.586 329.136L807.566 453.93L807.503 513C807.398 517.256 804.896 521.218 801.765 523.95C796.647 528.418 790.722 527.466 784.5 527.424L770.941 527.425C770.967 531.754 771.861 538.311 770.174 542.25C769.866 542.499 769.615 542.843 769.25 542.996C766.841 544.005 714.221 543.027 705.976 543.018L606.646 543.048L577.88 543.143C573.233 543.166 568.05 543.645 563.451 543.118C562.09 542.962 561.693 542.728 560.975 541.5C560.208 540.189 560.471 538.163 560.468 536.708L560.508 526.414L380.894 526.484L380.605 527.17C377.993 533.236 373.969 537.259 367.8 539.731C362.515 541.848 354.29 540.888 348.652 540.875L315.317 540.719L268.375 540.42C260.453 538.791 255.909 536.466 251.669 529.291C251.471 528.955 250.532 527.078 250.33 526.952C250.063 526.787 247.053 527.001 246.557 527.008C240.57 527.089 233.18 528.083 227.732 525.416L227 525.047L226.32 524.712C221.895 522.43 218.346 517.696 216.91 513C215.167 507.3 215.979 500.243 215.98 494.278L215.992 466.987L216.015 375.788L215.97 281.259C215.967 265.653 215.147 249.524 216.094 233.992C216.336 230.027 217.259 226.241 219.197 222.75C222.277 217.203 228.161 212.769 234.218 210.993L234.879 210.806C237.298 210.109 239.515 209.992 242.008 209.913Z"/>
	<path fill="#30CFE1" transform="scale(0.488281 0.488281)" d="M771.273 514.602C776.602 511.666 781.607 507.408 786.397 503.661L801.065 493.022L801.069 504.866C801.051 509.442 801.764 514.348 798.303 517.938C796.958 519.333 795.565 520.197 793.694 520.684C791.43 521.273 788.751 521.017 786.405 521.017L771.386 520.984L771.273 514.602Z"/>
	<path fill="#F14255" transform="scale(0.488281 0.488281)" d="M741.222 425.357L764.616 425.123L764.509 476.192L741.223 476.219L741.222 425.357Z"/>
	<path fill="#27B490" transform="scale(0.488281 0.488281)" d="M741.079 364.927L764.57 364.835L764.616 418.156L741.421 418.127L741.079 364.927Z"/>
	<path fill="#F14255" transform="scale(0.488281 0.488281)" d="M741.101 483.44L764.579 483.503L764.444 536.667L741.155 536.67L741.101 483.44Z"/>
	<path fill="#0EA0E5" transform="scale(0.488281 0.488281)" d="M560.417 436.464L560.469 520.082L494.311 519.851C496.706 519.074 498.434 517.098 500.461 515.659L516.373 504.363L546.436 484.117L556.05 477.554C557.132 476.787 558.665 475.975 559.57 475.052C559.774 474.845 559.985 474.626 560.103 474.36C560.652 473.122 560.105 468.878 560.107 467.222C560.114 457.299 559.593 447.011 560.362 437.137L560.417 436.464Z"/>
	<defs>
		<linearGradient id="gradient_0" gradientUnits="userSpaceOnUse" x1="223.82655" y1="466.22812" x2="259.50903" y2="509.08505">
			<stop offset="0" stop-color="#0E95E0"/>
			<stop offset="1" stop-color="#08B2F8"/>
		</linearGradient>
	</defs>
	<path fill="url(#gradient_0)" transform="scale(0.488281 0.488281)" d="M222.848 466.159L248.581 447.987L248.738 520.516C244.125 520.536 237.615 521.249 233.194 520.317C231 519.854 228.568 517.897 227.007 516.373C221.192 510.691 222.679 502.146 222.667 494.697L222.848 466.159Z"/>
	<path fill="#30CFE1" transform="scale(0.488281 0.488281)" d="M222.844 403.001L248.609 385.398L248.581 447.987L222.848 466.159L222.844 403.001Z"/>
	<path fill="#30CFE1" transform="scale(0.488281 0.488281)" d="M719.72 358.05C721.917 356.072 724.581 354.439 726.969 352.682L744.568 340.061L801.024 299.952L801.013 360.379C797.698 362.222 794.831 364.624 791.798 366.88C785.115 371.85 778.509 377.158 771.422 381.522L771.31 358.108C765.374 357.382 758.795 357.948 752.787 357.98L719.72 358.05Z"/>
	<path fill="#0EA0E5" transform="scale(0.488281 0.488281)" d="M771.422 381.522C778.509 377.158 785.115 371.85 791.798 366.88C794.831 364.624 797.698 362.222 801.013 360.379L801.065 493.022L786.397 503.661C781.607 507.408 776.602 511.666 771.273 514.602L771.422 381.522Z"/>
	<path fill="#0EA0E5" transform="scale(0.488281 0.488281)" d="M740.547 287.746C746.382 284.512 752.025 279.648 757.509 275.728L800.997 244.861L801.024 299.952L744.568 340.061L726.969 352.682C724.581 354.439 721.917 356.072 719.72 358.05L702.654 358.338L585.08 358.141C588.345 354.419 593.444 351.762 597.501 348.942L627.056 328.617L664.32 302.51C667.118 313.018 672.381 320.874 681.916 326.386C684.975 328.154 688.22 329.343 691.568 330.446L697.845 331.924C702.06 332.046 706.599 331.942 710.675 330.797L711.5 330.554C718.69 328.485 724.515 324.867 729.75 319.551C739 310.159 740.647 300.408 740.547 287.746Z"/>
	<path fill="#30CFE1" transform="scale(0.488281 0.488281)" d="M691.568 330.446L697.845 331.924C702.431 337.512 705.257 345.174 704.478 352.534C704.353 353.71 703.876 354.699 703.376 355.75L702.95 356.659L702.628 357.329L702.461 357.921L652.851 358.048C658.513 353.093 665.328 349.245 671.468 344.903C678.134 340.189 684.621 334.661 691.568 330.446Z"/>
	<path fill="#F47168" transform="scale(0.488281 0.488281)" d="M741.223 476.219L567 476.662L566.96 425.383L741.222 425.357L741.223 476.219Z"/>
	<path fill="#FCFDFD" transform="scale(0.488281 0.488281)" d="M599.916 440.75C601.042 440.501 602.352 440.354 603.5 440.505C605.544 440.772 607.416 442.21 608.477 443.924C609.682 445.869 610.024 448.706 609.308 450.894C608.434 453.567 606.377 454.756 603.997 455.933C602.71 455.996 601.462 455.944 600.194 455.681C597.928 455.21 596.415 453.873 595.286 451.901C594.274 450.135 594.171 447.711 594.808 445.792C595.618 443.352 597.668 441.771 599.916 440.75Z"/>
	<path fill="#FCFDFD" transform="scale(0.488281 0.488281)" d="M572.734 431.75C574.646 431.528 574.833 431.557 576.551 432.423C577.802 434.26 577.616 465.127 576.942 468.75C575.645 469.65 574.244 469.352 572.75 469.26L572.1 468.25L572.059 443.996C572.071 440.54 571.313 434.879 572.734 431.75Z"/>
	<path fill="#0EA0E5" transform="scale(0.488281 0.488281)" d="M223.426 233.742C223.429 229.489 225.848 225.058 228.75 222.055C231.168 219.553 234.85 217.157 238.34 216.548C240.692 216.137 243.427 216.392 245.812 216.403L259.881 216.471L311.36 216.598L385.078 216.566C380.877 220.565 375.353 223.526 370.567 226.815L328.631 255.072L252.697 306.906L233.477 320.353C230.096 322.733 226.664 325.569 223.01 327.472L223.071 265.62C223.074 255.28 222.184 243.971 223.426 233.742Z"/>
	<path fill="#30CFE1" transform="scale(0.488281 0.488281)" d="M223.426 233.742C223.429 229.489 225.848 225.058 228.75 222.055C231.168 219.553 234.85 217.157 238.34 216.548C240.692 216.137 243.427 216.392 245.812 216.403L259.881 216.471L311.36 216.598L314.75 217.04C314.2 218.621 310.105 220.964 308.622 221.995L288.304 235.785L244.735 265.554L223.479 279.724L223.571 249.097C223.578 244.091 223.977 238.69 223.426 233.742Z"/>
	<path fill="#4FC787" transform="scale(0.488281 0.488281)" d="M741.421 418.127L566.494 418.073L566.714 364.882L741.079 364.927L741.421 418.127Z"/>
	<path fill="#FCFDFD" transform="scale(0.488281 0.488281)" d="M600.478 383.492C601.695 383.466 603.007 383.402 604.179 383.778C606.404 384.492 608.022 385.996 608.983 388.103C609.907 390.131 610.049 392.487 609.231 394.583C608.318 396.923 606.654 397.701 604.475 398.704C602.878 398.686 601.029 398.767 599.487 398.328C597.614 397.794 595.784 396.012 594.992 394.259C594.238 392.591 594.197 390.134 594.884 388.438C595.885 385.968 598.191 384.584 600.478 383.492Z"/>
	<path fill="#FCFDFD" transform="scale(0.488281 0.488281)" d="M574.398 370.25L574.757 370.219C576.226 370.351 576.506 370.517 577.515 371.5C578.608 375.036 578.016 379.683 578.018 383.434C578.023 391.037 579.006 400.422 577.486 407.75C576.212 409.383 576.157 409.283 574.25 409.683C572.795 409.316 572.233 408.832 571.15 407.861C570.113 403.929 570.643 399.126 570.677 395.054L570.981 372.75C572.058 371.501 572.909 370.945 574.398 370.25Z"/>
	<path fill="#F47168" transform="scale(0.488281 0.488281)" d="M741.155 536.67L567.071 536.549L566.955 482.96L741.101 483.44L741.155 536.67Z"/>
	<path fill="#FCFDFD" transform="scale(0.488281 0.488281)" d="M600.563 498.75C601.977 498.49 603.14 498.506 604.5 498.981C606.36 499.63 608.031 501.382 608.795 503.176C609.719 505.345 609.655 507.735 608.621 509.85C607.454 512.236 605.704 513.291 603.25 514.062C601.861 514.289 600.325 514.198 599.028 513.61C597 512.69 595.474 510.738 594.859 508.614C594.253 506.521 594.725 504.211 595.799 502.35C596.944 500.366 598.426 499.416 600.563 498.75Z"/>
	<path fill="#FCFDFD" transform="scale(0.488281 0.488281)" d="M574.588 491.75L576.005 491.58L576.998 492.5C577.65 495.102 577.442 497.799 577.448 500.467L577.444 514.379C577.437 519.23 578.1 525.334 577.05 529.982L575.75 530.594C574.836 530.668 573.915 530.563 573 530.507C571.93 528.838 572.51 523.826 572.509 521.586L572.508 503.145C572.51 499.709 572.256 496.085 572.75 492.695L574.588 491.75Z"/>
	<path fill="#0EA0E5" transform="scale(0.488281 0.488281)" d="M560.411 363.009L560.469 427.012L560.417 436.464L560.362 437.137C559.593 447.011 560.114 457.299 560.107 467.222C560.105 468.878 560.652 473.122 560.103 474.36C559.985 474.626 559.774 474.845 559.57 475.052C558.665 475.975 557.132 476.787 556.05 477.554L546.436 484.117L516.373 504.363L500.461 515.659C498.434 517.098 496.706 519.074 494.311 519.851L451.278 519.888L381.434 520.084L381.477 494.894L382.318 494.42C387.234 491.563 391.937 487.667 396.594 484.374L423.875 465.356L521.36 397.911L551.101 377.205L557.976 372.465C558.377 372.185 559.847 371.34 560.062 371.007C560.671 370.066 559.65 365.338 560.186 363.655L560.411 363.009Z"/>
	<path fill="#30CFE1" transform="scale(0.488281 0.488281)" d="M451.278 519.888C448.709 519.186 445.769 519.461 443.107 519.465L428.374 519.509L458.047 498.587L511.383 461.75L545.242 437.254C549.929 433.896 555.183 429.192 560.469 427.012L560.417 436.464L560.362 437.137C559.593 447.011 560.114 457.299 560.107 467.222C560.105 468.878 560.652 473.122 560.103 474.36C559.985 474.626 559.774 474.845 559.57 475.052C558.665 475.975 557.132 476.787 556.05 477.554L546.436 484.117L516.373 504.363L500.461 515.659C498.434 517.098 496.706 519.074 494.311 519.851L451.278 519.888Z"/>
	<path fill="#0EA0E5" transform="scale(0.488281 0.488281)" d="M425.243 216.464L504.442 216.426L459.343 247.846L385.019 299.094L351.954 321.332C348.447 323.737 343.464 326.255 340.803 329.476L289.907 329.546L276.045 329.539C273.105 329.54 270.052 329.343 267.164 329.975C262.8 330.929 258.497 333.73 255.38 336.879C252.545 339.745 250.308 343.335 249.36 347.276C248.25 351.896 248.63 357.306 248.62 362.027L248.609 385.398L222.844 403.001L222.859 352.947L223.01 327.472C226.664 325.569 230.096 322.733 233.477 320.353L252.697 306.906L328.631 255.072L370.567 226.815C375.353 223.526 380.877 220.565 385.078 216.566L425.243 216.464Z"/>
	<path fill="#30CFE1" transform="scale(0.488281 0.488281)" d="M385.078 216.566L425.243 216.464L222.859 352.947L223.01 327.472C226.664 325.569 230.096 322.733 233.477 320.353L252.697 306.906L328.631 255.072L370.567 226.815C375.353 223.526 380.877 220.565 385.078 216.566Z"/>
	<path fill="#FCFDFD" transform="scale(0.488281 0.488281)" d="M340.493 335.79L353.691 335.829C359.678 335.861 365.106 335.23 369.714 339.849C372.251 342.392 374.22 345.446 374.819 349.042C375.634 353.93 375.03 359.922 375.023 364.919L375.008 397.941L374.798 515.464C374.74 520.682 374.842 525.841 370.927 529.894C369.46 531.413 367.496 532.804 365.415 533.316C361.288 534.33 355.995 533.756 351.716 533.726L326.311 533.532L284.848 533.653L272.909 533.661C270.892 533.644 268.488 533.83 266.524 533.365C264.194 532.813 261.929 531.29 260.198 529.689C256.312 526.097 255.148 522.133 255.044 517.014L255.266 413.775L254.985 369.96C254.968 363.722 254.349 356.869 255.089 350.736C255.536 347.036 257.314 343.868 259.901 341.22C262.143 338.925 264.922 336.909 268.103 336.196C270.534 335.651 273.41 335.913 275.888 335.908L289.622 335.894L340.493 335.79Z"/>
	<path fill="#091B62" transform="scale(0.488281 0.488281)" d="M334.344 506.926L353.466 506.799C354.882 506.782 358.542 506.387 359.75 507.031C360.24 507.292 360.926 508.187 361.349 508.603C361.486 510.352 361.601 510.605 360.688 512.189C358.335 513.81 355.557 513.355 352.838 513.304L340.182 513.15L292.453 513.295L278.28 513.434C276.01 513.452 273.115 513.83 271 513.004C269.621 512.466 269.317 511.58 268.75 510.317C269.006 508.638 269.036 508.49 270.186 507.25C272.643 506.68 275.198 506.88 277.709 506.88L290.96 506.898L334.344 506.926Z"/>
	<path fill="#091B62" transform="scale(0.488281 0.488281)" d="M340.514 352.724C344.584 352.663 358.485 351.53 361.324 353.25C362.1 354.437 362.6 354.948 362.25 356.453C361.958 357.707 361 358.341 360 358.995C353.945 360.211 346.316 359.392 340.081 359.367L293.764 359.003L277.734 359.007C275.639 359.006 272.418 359.406 270.5 358.63C269.117 358.071 269.091 357.795 268.516 356.5C268.877 354.778 268.923 354.513 270.125 353.25C272.908 352.667 275.915 352.896 278.757 352.889L292.128 352.869L340.514 352.724Z"/>
	<path fill="#A5DEE4" transform="scale(0.488281 0.488281)" d="M340.493 335.79L353.691 335.829C359.678 335.861 365.106 335.23 369.714 339.849C372.251 342.392 374.22 345.446 374.819 349.042C375.634 353.93 375.03 359.922 375.023 364.919L375.008 397.941L374.798 515.464C374.74 520.682 374.842 525.841 370.927 529.894C369.46 531.413 367.496 532.804 365.415 533.316C361.288 534.33 355.995 533.756 351.716 533.726L326.311 533.532C327.092 532.738 327.459 532.32 328.544 531.963C329.545 531.635 330.392 531.317 331.34 530.859L332 530.536C334.534 529.324 336.628 527.693 338.231 525.349C340.619 521.859 341.06 517.199 340.182 513.15L352.838 513.304C355.557 513.355 358.335 513.81 360.688 512.189C361.601 510.605 361.486 510.352 361.349 508.603C360.926 508.187 360.24 507.292 359.75 507.031C358.542 506.387 354.882 506.782 353.466 506.799L334.344 506.926L340.886 506.557L340.652 497.613L291.686 497.652L278.792 497.642C276.579 497.64 273.986 497.997 271.918 497.131C270.203 496.698 269.798 496.175 268.862 494.75C269.009 492.979 269.114 492.87 270.25 491.489C272.146 490.678 273.802 490.646 275.845 490.577C282.346 489.658 289.736 490.371 296.375 490.37L340.732 490.379L340.987 379.147L288.559 379.17L277.409 379.157C275.816 379.154 273.502 379.462 272.003 378.896L271.418 378.656C269.782 378.022 269.672 377.899 268.66 376.458C268.549 374.353 268.636 374.396 269.83 372.82C272.224 371.649 275.334 372.092 277.974 372.1L294.644 372.165L340.138 372.058L340.081 359.367C346.316 359.392 353.945 360.211 360 358.995C361 358.341 361.958 357.707 362.25 356.453C362.6 354.948 362.1 354.437 361.324 353.25C358.485 351.53 344.584 352.663 340.514 352.724L340.493 335.79Z"/>
	<path fill="#091B62" transform="scale(0.488281 0.488281)" d="M275.845 490.577L276.498 490.641C284.654 491.357 293.195 490.878 301.393 490.867L343.251 490.816L355.373 490.716C356.536 490.708 358.874 490.415 359.884 490.75C360.387 490.917 360.795 491.292 361.25 491.563C361.964 493.209 361.979 493.26 361.555 495C360.137 496.559 359.739 497.053 357.5 497.217L271.918 497.131C270.203 496.698 269.798 496.175 268.862 494.75C269.009 492.979 269.114 492.87 270.25 491.489C272.146 490.678 273.802 490.646 275.845 490.577Z"/>
	<path fill="#091B62" transform="scale(0.488281 0.488281)" d="M340.138 372.058L353.35 371.963C355.057 371.958 357.571 371.623 359.151 372.093C360.29 372.432 360.845 373.043 361.672 373.854C362.117 375.391 362.1 375.717 361.75 377.284C360.279 378.467 360.036 378.573 358.196 378.771C349.931 379.66 340.729 378.659 332.378 378.655L271.418 378.656C269.782 378.022 269.672 377.899 268.66 376.458C268.549 374.353 268.636 374.396 269.83 372.82C272.224 371.649 275.334 372.092 277.974 372.1L294.644 372.165L340.138 372.058Z"/>
	<path fill="#30CFE1" transform="scale(0.488281 0.488281)" d="M650.928 216.406L734.182 216.482L769.759 216.412C775.113 216.407 781.773 215.674 786.968 216.83C789.959 217.495 792.674 219.269 794.839 221.385C799.762 226.197 801.009 230.895 801.026 237.543L800.997 244.861L757.509 275.728C752.025 279.648 746.382 284.512 740.547 287.746C740.647 300.408 739 310.159 729.75 319.551C724.515 324.867 718.69 328.485 711.5 330.554L710.675 330.797C706.599 331.942 702.06 332.046 697.845 331.924L691.568 330.446C688.22 329.343 684.975 328.154 681.916 326.386C672.381 320.874 667.118 313.018 664.32 302.51L627.056 328.617L597.501 348.942C593.444 351.762 588.345 354.419 585.08 358.141C580.4 358.107 565.624 356.72 562.53 359.583C561.38 360.646 560.814 361.514 560.411 363.009L560.186 363.655C559.65 365.338 560.671 370.066 560.062 371.007C559.847 371.34 558.377 372.185 557.976 372.465L551.101 377.205L521.36 397.911L423.875 465.356L396.594 484.374C391.937 487.667 387.234 491.563 382.318 494.42L381.477 494.894L381.535 462.601L381.517 435.356C385.827 433.12 389.724 429.75 393.706 426.962L421.25 407.556L514.514 341.94L588.852 290.4L628.926 262.25L670.844 233.333L694.625 216.548L651.532 216.457L650.928 216.406Z"/>
	<path fill="#091B62" transform="scale(0.488281 0.488281)" d="M664.32 302.51L663.913 300.751C662.059 290.612 663.656 279.786 669.573 271.219C675.036 263.31 685.24 256.141 694.809 254.413C705.505 252.482 716.239 254.762 725.135 261.065C734.353 267.595 738.568 276.888 740.547 287.746C740.647 300.408 739 310.159 729.75 319.551C724.515 324.867 718.69 328.485 711.5 330.554L710.675 330.797C706.599 331.942 702.06 332.046 697.845 331.924L691.568 330.446C688.22 329.343 684.975 328.154 681.916 326.386C672.381 320.874 667.118 313.018 664.32 302.51Z"/>
	<path fill="#F47168" transform="scale(0.488281 0.488281)" d="M701.209 260.115C710.589 260.626 718.762 263.23 725.289 270.33C731.121 276.673 734.437 285.569 733.954 294.198C733.495 302.413 729.47 310.867 723.301 316.361C716.741 322.202 708.09 325.587 699.25 324.948C696.003 324.713 692.846 323.853 689.958 322.354C691.852 321.952 693.824 322.19 695.75 321.98C699.863 321.532 703.757 320.05 707.329 318.001C714.931 313.64 721.357 305.463 723.496 296.995C725.389 289.504 724.402 280.389 720.263 273.75C715.949 266.829 709.164 261.932 701.209 260.115Z"/>
	<path fill="#FB976D" transform="scale(0.488281 0.488281)" d="M689.958 322.354C687.159 321.378 684.256 319.767 681.912 317.942C675.282 312.776 671.082 304.825 670.163 296.5C669.215 287.9 671.973 278.396 677.525 271.75C683.717 264.337 691.717 260.925 701.209 260.115C709.164 261.932 715.949 266.829 720.263 273.75C724.402 280.389 725.389 289.504 723.496 296.995C721.357 305.463 714.931 313.64 707.329 318.001C703.757 320.05 699.863 321.532 695.75 321.98C693.824 322.19 691.852 321.952 689.958 322.354Z"/>
	<path fill="#FCFDFD" transform="scale(0.488281 0.488281)" d="M686.567 275.029C688.143 274.993 689.983 274.838 691.514 275.245C693.915 275.884 695.865 277.839 696.963 280C698.206 282.444 698.196 285.043 697.266 287.589C696.013 291.017 693.626 292.454 690.446 293.91C688.908 294.013 687.503 293.951 686 293.565C683.455 292.911 681.434 291.27 680.127 288.992C678.933 286.913 678.696 284.367 679.456 282.094C680.704 278.358 683.161 276.644 686.567 275.029Z"/>
	<path fill="#0EA0E5" transform="scale(0.488281 0.488281)" d="M650.928 216.406L734.182 216.482C728.269 221.993 721.002 226.488 714.389 231.143L669.519 261.55L633.033 287.555L586.073 319.874L450.451 414.324L400.02 449.573C393.883 453.81 387.954 458.85 381.535 462.601L381.517 435.356C385.827 433.12 389.724 429.75 393.706 426.962L421.25 407.556L514.514 341.94L588.852 290.4L628.926 262.25L670.844 233.333L694.625 216.548L651.532 216.457L650.928 216.406Z"/>
	<path fill="#30CFE1" transform="scale(0.488281 0.488281)" d="M504.442 216.426L544.117 216.452L597.356 216.534L650.928 216.406L651.532 216.457L694.625 216.548L670.844 233.333L628.926 262.25L588.852 290.4L514.514 341.94L421.25 407.556L393.706 426.962C389.724 429.75 385.827 433.12 381.517 435.356L381.753 365.901L381.736 358.67C381.713 355.037 381.958 351.095 381.276 347.531C380.198 341.893 376.797 337.967 372.866 334.086C370.814 332.696 368.701 331.417 366.343 330.619L365.52 330.353C362.271 329.26 359.063 329.483 355.68 329.467L340.803 329.476C343.464 326.255 348.447 323.737 351.954 321.332L385.019 299.094L459.343 247.846L504.442 216.426Z"/>
	<path fill="#0EA0E5" transform="scale(0.488281 0.488281)" d="M504.442 216.426L544.117 216.452L597.356 216.534C593.361 220.227 588.366 223.15 583.899 226.25L554.858 246.212L467.035 306.975L409.19 347.391L393.194 358.399C389.44 361.01 385.864 363.86 381.753 365.901L381.736 358.67C381.713 355.037 381.958 351.095 381.276 347.531C380.198 341.893 376.797 337.967 372.866 334.086C370.814 332.696 368.701 331.417 366.343 330.619L365.52 330.353C362.271 329.26 359.063 329.483 355.68 329.467L340.803 329.476C343.464 326.255 348.447 323.737 351.954 321.332L385.019 299.094L459.343 247.846L504.442 216.426Z"/>
	<path fill="#30CFE1" transform="scale(0.488281 0.488281)" d="M504.442 216.426L544.117 216.452L372.866 334.086C370.814 332.696 368.701 331.417 366.343 330.619L365.52 330.353C362.271 329.26 359.063 329.483 355.68 329.467L340.803 329.476C343.464 326.255 348.447 323.737 351.954 321.332L385.019 299.094L459.343 247.846L504.442 216.426Z"/>
</svg>
