<?xml version="1.0" encoding="utf-8" ?>
<svg xmlns="http://www.w3.org/2000/svg" xmlns:xlink="http://www.w3.org/1999/xlink" width="500" height="500">
	<path fill="#38BDDC" transform="scale(0.488281 0.488281)" d="M-0 -0L1024 0L1024 1024L-0 1024L0 -0Z"/>
	<path fill="#1C357F" transform="scale(0.488281 0.488281)" d="M554.102 120.327L554.501 120.453L554.309 171.458L542.327 171.567L531.929 171.513L532.064 126.342L553.9 126.047L554.102 120.327Z"/>
	<path fill="#1C357F" transform="scale(0.488281 0.488281)" d="M326.601 132.656C350.242 108.781 384.635 98.0432 417.456 96.5791L417.441 98.2845L419.034 107.357C397.427 109.195 375.814 113.555 356.705 124.346C348.317 129.082 340.884 135.039 333.677 141.394L326.601 132.656Z"/>
	<path fill="#EE823D" transform="scale(0.488281 0.488281)" d="M315.841 770.933C314.782 766.134 315.534 759.542 315.524 754.565L315.848 713.262L315.871 724.185L316.813 724.528C320.819 726.032 324.65 728.406 328.577 730.178C337.992 734.426 347.369 737.662 357.435 739.977L357.474 770.996L315.841 770.933Z"/>
	<path fill="#3B4CA0" transform="scale(0.488281 0.488281)" d="M326.601 132.656C325.411 131.832 324.12 129.711 323.181 128.556L314.071 117.657C343.034 91.0427 378.455 77.309 417.593 75.4746L417.456 96.5791C384.635 98.0432 350.242 108.781 326.601 132.656Z"/>
	<path fill="#3B4CA0" transform="scale(0.488281 0.488281)" d="M476.847 126.11C479.164 125.823 480.966 125.816 483.253 126.31L532.064 126.342L531.929 171.513L485.554 171.431L473.87 171.451L469.545 171.438L469.5 126.073L476.847 126.11Z"/>
	<path fill="#6072D8" transform="scale(0.488281 0.488281)" d="M476.847 126.11C479.164 125.823 480.966 125.816 483.253 126.31C483.967 127.423 485.037 128.807 485.387 130.082C486.142 132.835 485.559 137.605 485.557 140.571L485.554 171.431L473.87 171.451L469.545 171.438L469.5 126.073L476.847 126.11Z"/>
	<path fill="#3B4CA0" transform="scale(0.488281 0.488281)" d="M469.5 126.073L476.847 126.11C474.077 128.653 473.849 129.594 473.713 133.228L473.87 171.451L469.545 171.438L469.5 126.073Z"/>
	<path fill="#D36088" transform="scale(0.488281 0.488281)" d="M554.309 171.458L576.433 171.494C579.859 171.511 583.81 171.142 587.158 171.947C591.504 172.993 595.409 175.285 598.562 178.435C601.553 181.424 604.057 185.37 604.836 189.557C605.307 192.092 605.095 195.02 605.103 197.604L605.15 211.634L605.439 263.929L581.417 263.871C578.148 263.866 574.216 263.429 571.014 263.904L563.036 263.611C565.16 262.121 568.992 259.228 569.631 256.644C570.269 254.061 569.947 251.017 569.931 248.362L569.828 233.243L569.843 207.372C569.842 202.27 570.143 196.96 569.43 191.903C569.076 189.396 567.918 186.809 566.466 184.75C560.957 176.936 551.434 173.099 542.327 171.567L554.309 171.458Z"/>
	<path fill="#F6B324" transform="scale(0.488281 0.488281)" d="M647.455 449.585L708.081 449.954L708.344 536.593C693.893 528.145 676.421 522.479 660.055 519.31C655.912 518.508 651.75 517.395 647.538 517.064L647.455 449.585Z"/>
	<path fill="#3B4CA0" transform="scale(0.488281 0.488281)" d="M593.158 60.3335C598.698 66.3559 602.524 73.3425 603.634 81.5L603.757 82.3579C604.963 91.3921 601.536 100.913 595.964 107.969C590.604 114.756 582.897 118.955 574.328 119.932C569.885 120.438 565.121 120.268 560.649 120.212C558.749 120.189 556.253 119.817 554.501 120.453L554.102 120.327L553.9 126.047L532.064 126.342L483.253 126.31C480.966 125.816 479.164 125.823 476.847 126.11L469.5 126.073L469.509 119.923C466.653 119.589 463.525 119.826 460.641 119.838L442.957 119.93C439.151 119.934 435.054 120.167 431.391 118.97C425.129 116.924 421.902 112.974 419.034 107.357L417.441 98.2845L464.352 98.1244L526.663 98.3908L545.365 98.3935C550.007 98.3845 555.237 98.6402 559.716 97.3264L560.5 97.0824C567.283 95.0741 574.026 91.6981 579.27 86.869C586.8 79.9342 592.678 70.7802 593.158 60.3335Z"/>
	<path fill="#141240" transform="scale(0.488281 0.488281)" d="M469.509 119.923C477.165 120.463 485.064 120.106 492.742 120.102L535.284 120.012L547.347 119.992C549.466 119.989 552.084 119.717 554.102 120.327L553.9 126.047L532.064 126.342L483.253 126.31C480.966 125.816 479.164 125.823 476.847 126.11L469.5 126.073L469.509 119.923Z"/>
	<path fill="#6072D8" transform="scale(0.488281 0.488281)" d="M417.593 75.4746C417.566 71.5342 417.183 67.0704 418.118 63.2413C419.312 58.3507 423.149 54.2474 427.468 51.8536C429.536 50.7074 431.565 50.1323 433.917 49.9551C439.143 49.5614 444.662 49.9157 449.911 49.9339L479.063 49.98L541.781 50.0366L563.136 50.092C568.079 50.1131 573.678 49.7737 578.439 51.2171L579.25 51.4799C585.114 53.2971 588.848 56.0633 593.158 60.3335C592.678 70.7802 586.8 79.9342 579.27 86.869C574.026 91.6981 567.283 95.0741 560.5 97.0824L559.716 97.3264C555.237 98.6402 550.007 98.3845 545.365 98.3935L526.663 98.3908L464.352 98.1244L417.441 98.2845L417.456 96.5791L417.593 75.4746Z"/>
	<path fill="#C8D1FC" transform="scale(0.488281 0.488281)" d="M434.428 59.75C439.329 58.6916 446 59.4889 451.073 59.4922L488.75 59.5109L535.917 59.3589L549.157 59.3304C551.4 59.3416 553.965 59.152 556.15 59.5966C557.846 59.9416 559.65 61.5715 560.473 63.0559C561.343 64.6256 561.604 66.4636 560.993 68.1683C560.274 70.1748 558.577 71.0559 556.791 71.9824C550.443 73.4208 542.075 72.5281 535.5 72.5408L493.205 72.5618L453.715 72.5448C447.976 72.5336 441.482 73.1253 435.817 72.4007C433.947 72.1616 432.397 71.0985 431.313 69.5785C430.14 67.9342 430.05 66.073 430.534 64.1559C431.101 61.9161 432.511 60.8454 434.428 59.75Z"/>
	<path fill="#40A565" transform="scale(0.488281 0.488281)" d="M605.592 284.788C609.89 285.822 614.582 289.416 618.303 291.757C644.053 307.959 663.704 330.496 679.514 356.237C692.167 376.839 700.334 399.804 704.946 423.482C706.628 432.122 708.135 441.136 708.081 449.954L647.455 449.585C647.835 418.278 641.493 384.666 626.481 357C609.332 325.397 583.3 302.987 549.292 291.252C542.644 288.957 535.681 288.323 529.09 286.24L525.215 285.024L556.375 284.686L605.592 284.788Z"/>
	<path fill="#FDD31E" transform="scale(0.488281 0.488281)" d="M315.925 452.824C316.08 451.942 316.126 450.942 316.703 450.216C316.817 450.073 335.259 449.996 356.963 449.957L357.435 739.977C347.369 737.662 337.992 734.426 328.577 730.178C324.65 728.406 320.819 726.032 316.813 724.528L315.871 724.185L315.848 713.262L315.925 452.824Z"/>
	<path fill="#FCEB89" transform="scale(0.488281 0.488281)" d="M356.963 449.957C366.133 449.254 375.524 449.671 384.72 449.707C390.084 449.727 396.281 449.182 401.549 450.034L401.682 744.566L401.565 744.866L401.083 771.005L357.474 770.996L357.435 739.977L356.963 449.957Z"/>
	<path fill="#EF93B5" transform="scale(0.488281 0.488281)" d="M357.435 739.977C371.734 743.205 386.859 745.321 401.565 744.866L401.083 771.005L357.474 770.996L357.435 739.977Z"/>
	<path fill="#D06421" transform="scale(0.488281 0.488281)" d="M647.538 517.064C651.75 517.395 655.912 518.508 660.055 519.31C676.421 522.479 693.893 528.145 708.344 536.593L708.412 771.438L647.932 771.439C648.384 768.679 648.152 765.697 648.153 762.904L648.149 747.698L648.19 695.123L648.44 524.26C648.411 522.318 648.572 520.689 647.542 518.965L647.538 517.064Z"/>
	<path fill="#358AB6" transform="scale(0.488281 0.488281)" d="M688.031 929.353L688.759 929.636C690.706 930.344 693.263 930.223 695.352 930.361L707.031 931.281C719.844 932.418 778.7 937.242 784.558 947.5C784.891 948.084 785.118 948.63 784.848 949.266C783.211 953.116 776.81 955.122 773.089 956.328C764.213 959.203 754.703 960.62 745.5 962.014L696.245 967.409L533.5 974.158C464.35 974.904 394.895 973.469 326 967.154C308.998 965.596 292.042 963.859 275.25 960.714C266.907 959.152 257.545 957.306 249.843 953.674L249.319 953.43C247.268 952.457 246.066 951.582 245.086 949.5C245.59 947.226 246.862 945.926 248.869 944.725C254.336 941.453 261.59 940.187 267.815 938.847C292.523 933.528 317.468 931.962 342.547 929.65C352.561 936.122 362.345 940.226 374.25 941.524C380.203 942.173 386.262 941.91 392.244 941.883L419.049 941.809L514.136 941.665L612.349 941.824L642.051 941.947C647.996 941.97 654.213 942.321 660.113 941.542C670.707 940.143 679.523 935.564 688.031 929.353Z"/>
	<path fill="#EF93B5" transform="scale(0.488281 0.488281)" d="M469.545 171.438L473.87 171.451L485.554 171.431L531.929 171.513L542.327 171.567C551.434 173.099 560.957 176.936 566.466 184.75C567.918 186.809 569.076 189.396 569.43 191.903C570.143 196.96 569.842 202.27 569.843 207.372L569.828 233.243L569.931 248.362C569.947 251.017 570.269 254.061 569.631 256.644C568.992 259.228 565.16 262.121 563.036 263.611L571.014 263.904C574.216 263.429 578.148 263.866 581.417 263.871L605.439 263.929L605.592 284.788L556.375 284.686L525.215 285.024L417.272 285.077C416.497 278.351 416.967 270.768 417.252 263.974L417.413 209.567L417.439 195.429C417.459 192.549 417.285 189.419 418.208 186.659L418.446 186C419.527 182.853 421.126 180.358 423.498 178.002C426.246 175.273 429.912 172.997 433.658 171.987C437.58 170.93 442.274 171.438 446.345 171.432L469.545 171.438Z"/>
	<path fill="#FAB7D7" transform="scale(0.488281 0.488281)" d="M445.514 178.601C447.311 178.525 449.232 178.367 450.999 178.752C453.277 179.248 454.471 180.468 455.75 182.327C456.48 186.179 456.131 190.193 456.081 194.097L456.034 211.283L455.983 239.914C455.972 244.059 456.747 250.474 455.4 254.36C454.423 257.178 452.115 258.403 449.53 259.507L448.546 259.527C446.081 259.546 443.112 259.003 441.399 257.085C440.48 256.057 439.752 254.44 439.563 253.074C438.403 244.717 439.134 235.163 439.086 226.667C439.006 212.601 438.399 198.237 439.198 184.206C441.182 181.087 442.182 180.106 445.514 178.601Z"/>
	<path fill="#3B4CA0" transform="scale(0.488281 0.488281)" d="M563.036 263.611L571.014 263.904C574.216 263.429 578.148 263.866 581.417 263.871L605.439 263.929L605.592 284.788L556.375 284.686L525.215 285.024L417.272 285.077C416.497 278.351 416.967 270.768 417.252 263.974L563.036 263.611Z"/>
	<path fill="#1A805D" transform="scale(0.488281 0.488281)" d="M647.932 771.439L708.412 771.438L708.681 843.688L708.794 872.185C708.813 881.651 709.092 891.378 706.598 900.592C703.777 911.015 697.776 919.679 690.25 927.287L688.031 929.353C679.523 935.564 670.707 940.143 660.113 941.542C654.213 942.321 647.996 941.97 642.051 941.947L612.349 941.824L514.136 941.665L419.049 941.809L392.244 941.883C386.262 941.91 380.203 942.173 374.25 941.524C362.345 940.226 352.561 936.122 342.547 929.65L337.451 925.293C322.695 910.92 316.284 894.75 316.023 874.342C317.281 875.957 317.868 878.169 318.773 880.009C320.545 883.612 323.019 886.571 325.887 889.343C333.502 896.706 342.656 900.845 353.026 902.573C360.323 903.788 368.578 903.039 376.015 903.038L418.797 903.035L505.492 903.016L552.672 902.954C579.55 902.194 604.214 889.22 622.383 869.889C637.798 853.487 645.765 831.816 647.822 809.644C648.264 804.888 648.071 799.977 648.091 795.2L647.932 771.439Z"/>
	<path fill="#40A565" transform="scale(0.488281 0.488281)" d="M315.841 770.933L357.474 770.996L401.083 771.005L404.756 771.009L647.932 771.439L648.091 795.2C648.071 799.977 648.264 804.888 647.822 809.644C645.765 831.816 637.798 853.487 622.383 869.889C604.214 889.22 579.55 902.194 552.672 902.954L505.492 903.016L418.797 903.035L376.015 903.038C368.578 903.039 360.323 903.788 353.026 902.573C342.656 900.845 333.502 896.706 325.887 889.343C323.019 886.571 320.545 883.612 318.773 880.009C317.868 878.169 317.281 875.957 316.023 874.342C315.649 871.605 315.944 868.399 315.928 865.619L315.919 846.316L315.841 770.933Z"/>
	<path fill="#88CE79" transform="scale(0.488281 0.488281)" d="M357.474 770.996L401.083 771.005L400.827 843.55L400.924 862.189C400.944 865.457 401.24 869.037 400.789 872.269C400.412 874.972 399.216 877.508 397.509 879.624C395.663 881.911 392.786 884.299 389.728 884.523C386.249 884.777 382.601 884.592 379.105 884.584C372.023 884.567 366.669 885.144 361.123 879.835C359.311 878.1 357.84 875.351 357.566 872.829C357.196 869.416 357.496 865.639 357.499 862.192L357.544 840.941L357.474 770.996Z"/>
	<path fill="#88CE79" transform="scale(0.488281 0.488281)" d="M417.272 285.077L525.215 285.024L529.09 286.24C535.681 288.323 542.644 288.957 549.292 291.252C583.3 302.987 609.332 325.397 626.481 357C641.493 384.666 647.835 418.278 647.455 449.585L401.839 449.918L401.549 450.034C396.281 449.182 390.084 449.727 384.72 449.707C375.524 449.671 366.133 449.254 356.963 449.957C335.259 449.996 316.817 450.073 316.703 450.216C316.126 450.942 316.08 451.942 315.925 452.824C315.753 445.449 316.903 437.309 317.888 430C320.622 409.707 325.749 389.981 334.841 371.549C350.059 340.698 371.186 316.34 399.093 296.381C404.534 292.49 411.009 287.216 417.272 285.077Z"/>
	<path fill="#CDDDA8" transform="scale(0.488281 0.488281)" d="M356.963 449.957C357.512 438.776 358.266 427.706 360.49 416.7C367.515 381.937 386.774 348.777 412.962 324.987C431.472 308.171 454.149 294.977 478.735 289.635C469.616 295.826 460.96 302.214 452.956 309.819C427.23 334.262 411.888 365.392 405.288 400.011C402.83 412.904 401.967 425.302 401.841 438.397C401.805 442.11 401.404 446.248 401.839 449.918L401.549 450.034C396.281 449.182 390.084 449.727 384.72 449.707C375.524 449.671 366.133 449.254 356.963 449.957Z"/>
	<path fill="#F6B324" transform="scale(0.488281 0.488281)" d="M647.455 449.585L647.538 517.064L647.542 518.965C648.572 520.689 648.411 522.318 648.44 524.26L648.19 695.123L648.149 747.698L648.153 762.904C648.152 765.697 648.384 768.679 647.932 771.439L404.756 771.009L401.083 771.005L401.565 744.866L401.682 744.566L401.549 450.034L401.839 449.918L647.455 449.585Z"/>
	<path fill="#EE823D" transform="scale(0.488281 0.488281)" d="M647.542 518.965C648.572 520.689 648.411 522.318 648.44 524.26L648.19 695.123L648.149 747.698L648.153 762.904C648.152 765.697 648.384 768.679 647.932 771.439L404.756 771.009L401.083 771.005L401.565 744.866L401.682 744.566L402.748 744.724L406.654 744.469C420.06 742.987 433.62 741.348 446.766 738.263C465.489 733.868 483.436 726.774 500.5 717.947C560.454 686.933 608.233 634.322 632.434 571.207C636.7 560.082 640.297 548.68 643.226 537.133C644.699 531.33 645.529 525.211 647.356 519.533L647.542 518.965Z"/>
	<path fill="#E48570" transform="scale(0.488281 0.488281)" d="M401.682 744.566L402.748 744.724L404.865 745.145C405.27 747.744 404.895 750.629 404.842 753.271L404.756 771.009L401.083 771.005L401.565 744.866L401.682 744.566Z"/>
	<path fill="#FDD31E" transform="scale(0.488281 0.488281)" d="M647.455 449.585L647.538 517.064C635.267 516.638 623.624 515.339 611.25 516.182C562.595 519.498 514.519 541.451 479.014 574.676C436.759 614.22 408.595 671.326 406.647 729.5L406.654 744.469L402.748 744.724L401.682 744.566L401.549 450.034L401.839 449.918L647.455 449.585Z"/>
</svg>
