<?xml version="1.0" encoding="utf-8" ?>
<svg xmlns="http://www.w3.org/2000/svg" xmlns:xlink="http://www.w3.org/1999/xlink" width="500" height="500">
	<path fill="#4F959D" transform="scale(0.488281 0.488281)" d="M-0 -0L1024 0L1024 1024L-0 1024L0 -0Z"/>
	<path fill="#2D6168" transform="scale(0.488281 0.488281)" d="M795.547 206.226C795.775 207.594 795.836 208.634 796.606 209.82L812.359 209.826C814.934 209.806 819.269 209.093 821.196 211.031C823.422 213.27 822.723 217.32 822.704 220.274L822.807 330.534L822.926 734.846L822.994 832.744L823.404 885C823.288 892.95 820.934 900.958 815.055 906.561C810.598 910.808 805.352 913.609 799.25 914.561L798.494 914.683C793.035 915.485 786.894 914.985 781.358 914.987L747.598 914.968L633.287 914.907L392.891 914.948L329.853 914.901C317.963 914.875 304.638 915.978 293 913.631L292.14 913.468C283.114 911.709 273.049 905.957 267.847 898.209C265.412 894.583 261.961 888.989 261.858 884.57L770.541 883.408C778.461 882.537 786.007 877.635 790.849 871.453C794.798 866.412 796.536 860.243 796.813 853.926L796.677 803.164L796.719 717.856L796.416 443.458L796.209 281.611L796.067 232.564C796.037 225.549 796.753 217.555 795.816 210.64L795.547 206.226Z"/>
	<path fill="#010102" transform="scale(0.488281 0.488281)" d="M261.858 884.57C254.778 883.707 248.232 881.857 242.279 877.796C234.923 872.779 228.906 864.421 227.322 855.541C226.42 850.486 226.726 845.041 226.713 839.918L226.667 814.869L226.613 726.488L226.602 407.152L226.725 256.691L226.883 208.913C226.918 201.011 226.572 192.874 227.017 185C227.094 183.637 227.55 181.812 228.475 180.75C228.957 180.196 229.732 179.639 230.443 179.494C233.465 178.878 236.704 179.129 239.779 179.144L255.903 179.262C257.78 167.003 260.08 154.062 267.953 144.027C270.91 140.258 275.243 136.025 280.25 135.58C288.978 134.804 298.535 135.58 307.33 135.586L366.607 135.624L606.858 135.643L670.932 135.779L694.249 135.782C699.524 135.784 706.04 135.09 711 136.963C722.303 141.232 730.13 157.796 732.886 168.708C733.223 170.042 733.959 176.852 734.508 177.49C734.661 177.667 734.977 177.489 735.211 177.488L745.15 177.46L778.428 177.381C782.423 177.373 788.177 176.673 792.007 177.619C792.829 177.822 793.672 178.377 794.25 178.985C796.628 181.484 795.557 201.67 795.547 206.226L795.816 210.64C796.753 217.555 796.037 225.549 796.067 232.564L796.209 281.611L796.416 443.458L796.719 717.856L796.677 803.164L796.813 853.926C796.536 860.243 794.798 866.412 790.849 871.453C786.007 877.635 778.461 882.537 770.541 883.408L261.858 884.57Z"/>
	<path fill="#EF6C50" transform="scale(0.488281 0.488281)" d="M704.939 149.75C705.547 149.467 706.107 149.262 706.8 149.326C709.509 149.577 712.125 152.621 713.659 154.706C722.964 167.357 724.6 189.446 722.166 204.474C720.725 213.372 718.037 227.511 710.25 233.113L708.75 233.428C706.672 232.385 705.085 230.644 703.687 228.812C693.448 215.389 690.95 194.177 693.276 177.933C694.573 168.874 697.191 155.538 704.939 149.75Z"/>
	<path fill="#C23226" transform="scale(0.488281 0.488281)" d="M282.36 148.75C284.107 148.572 284.885 148.395 286.52 149.178C291.252 151.443 294.268 158.235 296.018 162.949C302.728 181.026 302.521 205.972 294.251 223.479C292.431 227.331 289.927 232.04 285.75 233.545C284.556 233.663 283.103 233.768 281.971 233.306C278.674 231.961 275.717 227.498 274.227 224.401C265.765 206.81 265.657 181.684 271.987 163.408C273.836 158.069 276.991 151.349 282.36 148.75Z"/>
	<path fill="#EF6C50" transform="scale(0.488281 0.488281)" d="M645.829 753.77C651.854 757.632 660.559 760.446 667.501 762.228C689.515 767.88 710.068 764.841 729.499 753.339C727.485 757.067 723.702 760.861 720.933 764.164C716.538 769.405 712.047 774.609 707.01 779.25C688.434 796.363 665.163 808.935 642.704 820.109C625.226 828.473 607.571 835.035 588.971 840.398C583.597 841.947 578.241 843.786 572.682 844.56C580.968 839.71 588.929 834.848 596.444 828.824C620.612 809.447 637.074 783.309 645.829 753.77Z"/>
	<path fill="#C23226" transform="scale(0.488281 0.488281)" d="M683.854 215.084C685.77 221.87 688.296 228.17 691.472 234.458L302.024 234.615C305.652 228.746 309.306 222.06 310.227 215.097C318.397 215.65 326.699 215.445 334.887 215.478L375.097 215.621L515.544 215.696L640.731 215.591L670.151 215.515C674.32 215.5 679.881 216.129 683.854 215.084Z"/>
	<path fill="#CDAD8B" transform="scale(0.488281 0.488281)" d="M282.491 247.334L586.431 247.042L672.526 247.025L697.499 247.076C701.555 247.082 706.084 247.476 710.094 246.908C714.162 246.331 718.108 243.303 720.91 240.391C732.76 228.078 735.457 206.631 735.661 190.389L751.316 190.085L751.019 271.77L721.078 278.154L696.281 283.036C691.645 283.899 683.809 284.324 679.963 286.892C666.255 289.756 651.68 290.464 637.75 292.045L597.416 296.086C591.645 296.59 585.539 297.56 579.764 297.522L581.021 296.52L581.755 296.207C581.136 295.749 580.732 295.422 579.974 295.223C576.472 294.306 571.755 294.527 568.095 294.272L534.203 292.113C468.082 287.231 402.474 278.76 337.5 265.524L305.838 258.905C298.921 257.351 291.797 255.874 285.135 253.425L282.491 247.334Z"/>
	<path fill="#C23226" transform="scale(0.488281 0.488281)" d="M781.617 190.25L782.52 190.75L782.383 321.823L782.753 621.015L782.907 779.822L782.887 828.136C782.897 836.33 783.401 844.819 782.834 852.982C782.517 857.538 781.255 861.75 777.975 865.091C775.402 867.713 772.097 869.197 768.471 869.568C759.823 870.455 750.319 869.674 741.598 869.65L686.586 869.533L518.875 869.918L517.25 869.786C517.433 869.246 517.255 869.416 517.892 869.27L542.52 864.807C559.464 861.622 576.647 858.206 593.245 853.51C639.9 840.313 686.959 817.641 721.552 783.113C741.266 763.436 757.733 738.804 763.099 711.112C764.12 705.843 763.687 699.878 763.734 694.509L763.879 665.75L763.899 562.297L764.553 190.465L781.617 190.25Z"/>
	<path fill="#EF6C50" transform="scale(0.488281 0.488281)" d="M310.227 215.097C315.863 192.879 312.959 168.252 302.722 147.866L689.991 147.911C678.727 168.201 677.945 193.074 683.854 215.084C679.881 216.129 674.32 215.5 670.151 215.515L640.731 215.591L515.544 215.696L375.097 215.621L334.887 215.478C326.699 215.445 318.397 215.65 310.227 215.097Z"/>
	<path fill="#FAE2C4" transform="scale(0.488281 0.488281)" d="M751.019 271.77L750.63 563.748L750.565 655.126L750.515 684.161C750.503 688.789 750.851 693.776 750.401 698.36C749.627 706.236 745.245 715.863 741.483 722.813C734.458 735.788 722.341 746.927 708.01 751.092C685.591 757.608 659.034 746.938 639.52 736.282C637.894 741.884 635.64 747.369 633.496 752.79C625.864 772.089 615.636 790.444 601.394 805.697C593.569 814.078 584.839 821.877 575.184 828.104C546.862 846.367 513.533 855.003 480.68 860.725C442.438 867.385 403.983 869.698 365.25 871.042L292.939 871.257L272.069 871.371C268.185 871.4 263.908 871.763 260.074 871.16C255.723 870.476 250.48 868.142 247.316 865.054C243.568 861.396 240.85 856.394 240.393 851.143C239.696 843.141 240.172 834.726 240.169 826.686L240.194 780.958L240.185 641.267L240.537 191.633L255.434 191.649C255.541 206.727 257.596 224.339 266.612 236.948C270.659 242.607 275.474 246.211 282.491 247.334L285.135 253.425C291.797 255.874 298.921 257.351 305.838 258.905L337.5 265.524C402.474 278.76 468.082 287.231 534.203 292.113L568.095 294.272C571.755 294.527 576.472 294.306 579.974 295.223C580.732 295.422 581.136 295.749 581.755 296.207L581.021 296.52L579.764 297.522C585.539 297.56 591.645 296.59 597.416 296.086L637.75 292.045C651.68 290.464 666.255 289.756 679.963 286.892C683.809 284.324 691.645 283.899 696.281 283.036L721.078 278.154L751.019 271.77Z"/>
	<path fill="#010102" transform="scale(0.488281 0.488281)" d="M297.736 771.75C300.606 771.097 304.382 772.386 307.266 772.905L321.547 775.15L389.47 782.246C433.477 785.12 478.135 785.514 522.198 783.292L573.696 780.11C581.178 779.608 588.988 778.432 596.444 778.514C601.572 778.57 606.554 779.934 611.311 781.737L604.621 784.222C592.188 789.202 576.434 788.566 563.184 789.737L476.989 793.694C429.451 794.308 382.388 792.338 335.384 784.871C324.317 783.113 313.088 781.462 302.178 778.892C299.639 778.294 297.408 778.104 295.96 775.75C296.233 773.685 296.527 773.349 297.736 771.75Z"/>
	<path fill="#010102" transform="scale(0.488281 0.488281)" d="M677.59 449.688C678.312 449.428 679.695 449.527 680.5 449.473C681.993 450.218 682.073 450.28 682.858 451.75C682.658 453.296 682.73 453.968 681.542 455.091C679.59 456.936 673.755 457.141 671.168 457.514L639.629 461.53C570.13 469.909 499.775 475.478 429.75 472.482C387.49 470.673 345.245 465.571 303.62 458.139C300.919 457.734 298.309 457.695 296.25 455.768C295.886 454.381 296.003 453.738 296.334 452.392C296.723 451.96 297.015 451.417 297.5 451.097C298.731 450.285 301.377 451 302.717 451.218L316.09 453.466L371.12 459.777C446.553 466.545 521.483 464.269 596.827 457.913L677.59 449.688Z"/>
	<path fill="#010102" transform="scale(0.488281 0.488281)" d="M675.847 527.675C677.638 527.401 679.195 527.325 681 527.49C682.422 528.466 682.811 528.885 683.419 530.5C683.15 531.769 683.132 532.601 682 533.429C679.799 535.037 674.423 535.272 671.649 535.728L639.378 540.556C571.048 549.93 501.472 555.213 432.5 552.466C390.382 550.788 348.312 545.793 306.889 538.022C304.003 537.48 298.096 537.047 296.278 534.699C296.051 532.78 296.065 532.719 297.036 531.047C300.597 529.141 308.4 531.648 312.41 532.304L329.095 534.704L408.999 541.979C498.084 546.753 587.668 540.765 675.847 527.675Z"/>
	<path fill="#010102" transform="scale(0.488281 0.488281)" d="M675.86 369.192C677.646 369.077 679.755 368.531 681.25 369.714C682.639 370.814 682.454 372.213 682.429 373.75L680.75 375.345C674.81 377.17 667.988 377.606 661.832 378.485L621.434 383.704C566.84 390.112 511.848 394.138 456.848 393.389C405.894 392.695 355.272 387.894 305.111 378.967C302.337 378.49 299.492 378.149 296.844 377.171C295.822 375.728 295.657 375.607 295.641 373.75C296.032 373.316 297.324 371.572 297.75 371.411C299.363 370.801 304.053 372.152 305.788 372.464L325.092 375.277L409.637 382.187C498.279 387.147 587.934 380.702 675.86 369.192Z"/>
	<path fill="#010102" transform="scale(0.488281 0.488281)" d="M679.584 607.206C680.567 607.314 681.398 607.561 682.153 608.25C683.305 609.3 683.34 610.322 683.414 611.75C683.006 612.632 682.955 613.089 682.12 613.658C678.023 616.452 643.667 620.467 637.003 621.364C559.232 631.837 479.381 636.901 401.037 630.757C368.466 628.202 336.019 623.396 303.88 617.59C301.184 617.065 298.029 616.914 296.133 614.75C296.042 613.414 295.774 612.408 296.75 611.302C296.883 611.151 297.939 610.347 298.202 610.25C299.363 609.823 303.55 610.839 304.8 611.043L323.795 613.895C414.064 626.802 507.26 626.174 597.897 617.39L679.584 607.206Z"/>
	<path fill="#010102" transform="scale(0.488281 0.488281)" d="M677.362 688.686C678.784 688.468 679.629 688.599 681 688.914C682.376 689.976 682.732 690.459 683.289 692.106C683.048 693.483 683.055 694.416 681.837 695.33C679.834 696.833 674.847 697.139 672.371 697.562L641.983 702.245L540.799 711.772C488.218 714.951 434.778 715.712 382.25 710.977C356.328 708.641 330.415 704.335 304.911 699.228C302.149 698.516 298.228 698.664 296.25 696.419C295.941 695.013 296.018 694.362 296.472 693C297.386 692.102 297.666 691.583 299.022 691.513C300.904 691.415 303.155 692.209 305 692.595L314.438 694.31L344.579 698.395C369.098 701.423 393.724 702.751 418.396 703.739C504.579 707.189 592.141 702.197 677.362 688.686Z"/>
	<path fill="#010102" transform="scale(0.488281 0.488281)" d="M679.963 286.892C681.53 288.104 681.988 288.369 682.783 290.25C682.525 292.33 682.592 292.616 681.134 294.25C676.063 296.127 669.707 296.397 664.334 297.133L634.008 301.158C532.131 313.901 429.172 315.755 327.337 301.37L306.737 298.357C303.48 297.85 299.801 297.758 296.75 296.483C295.976 295.425 295.504 294.662 295.757 293.279C296.005 291.932 296.695 291.405 297.75 290.647C301.729 290.656 305.782 291.583 309.721 292.158L327.44 294.463L385.25 299.469C449.795 303.729 515.303 302.49 579.764 297.522C585.539 297.56 591.645 296.59 597.416 296.086L637.75 292.045C651.68 290.464 666.255 289.756 679.963 286.892Z"/>
</svg>
