<?xml version="1.0" encoding="utf-8" ?>
<svg xmlns="http://www.w3.org/2000/svg" xmlns:xlink="http://www.w3.org/1999/xlink" width="500" height="500">
	<path fill="#145478" transform="scale(0.488281 0.488281)" d="M-0 -0L1024 0L1024 1024L-0 1024L0 -0Z"/>
	<path fill="#B22626" transform="scale(0.488281 0.488281)" d="M728.393 214.44L731.979 215.076C731.675 215.468 731.245 215.788 731.066 216.25C730.776 217.005 731.143 219.629 731.164 220.525L731.463 235.406L729.999 236.082L728.956 235.892L728.393 214.44Z"/>
	<path fill="#FC9441" transform="scale(0.488281 0.488281)" d="M393.652 229.856L393.945 214.516L401.228 217.1L401.338 233.964L396.354 231.915L393.652 229.856Z"/>
	<path fill="#E63E2B" transform="scale(0.488281 0.488281)" d="M728.393 214.44C726.171 210.444 726.305 202.877 727.294 198.427C727.538 197.332 728.173 196.764 729 196.078C730.251 195.774 730.411 195.423 731.58 196.122C734.171 197.67 735.34 200.488 735.912 203.319C736.591 206.676 736.524 210.552 734.379 213.429C733.742 214.283 732.978 214.751 731.979 215.076L728.393 214.44Z"/>
	<path fill="#FEFDF5" transform="scale(0.488281 0.488281)" d="M730.911 199.75L731.984 199.542L733.017 200.25C734.418 202.818 734.025 205.74 733.975 208.587C732.78 207.337 729.952 204.977 729.806 203.25C729.677 201.736 730.068 200.934 730.911 199.75Z"/>
	<path fill="#FC9441" transform="scale(0.488281 0.488281)" d="M229.559 369.616L230.008 344.881C231.58 344.562 235.798 346.269 237.491 346.765L237.524 371.16L230.111 370.946L229.559 369.616Z"/>
	<path fill="#111340" transform="scale(0.488281 0.488281)" d="M370.234 331.815C371.53 332.405 372.824 333.076 374.196 333.469C372.977 342.316 370.221 351.27 367.869 359.889L361.86 382.388C359.665 389.786 357.005 397.185 355.601 404.783C353.799 406.044 352.032 407.358 350.086 408.39C350.171 401.813 353.403 393.745 355.149 387.338L370.234 331.815Z"/>
	<path fill="#111340" transform="scale(0.488281 0.488281)" d="M401.479 234.337C401.961 234.641 402.578 234.798 402.924 235.25C403.877 236.493 404.627 240.375 405.223 242.009L422.23 293.488C427.027 308.613 432.102 323.804 435.709 339.267C435.972 340.396 436.192 341.611 436.089 342.769C435.014 342.917 434.582 342.72 433.573 342.386L433.477 341.381L432.504 339.823L405.867 254.25C404.623 252.076 404.106 250.664 403.447 248.216L403.537 248.059C403.388 245.47 403.373 244.166 401.509 242.283C401.296 239.584 401.311 237.037 401.479 234.337Z"/>
	<path fill="#111340" transform="scale(0.488281 0.488281)" d="M237.932 376.594L237.974 372.75L238.507 372.361C240.475 373.938 241.555 375.907 242.7 378.108C245.436 383.368 247.457 388.923 249.75 394.379L260.502 420.291L288.36 487.62L282.985 492.088C282.27 488.332 279.999 482.246 278.169 478.926C277.612 477.915 277.242 477.26 277.043 476.105C277.565 475.544 277.754 475.181 278.072 474.5C277.882 473.472 277.762 472.456 277.204 471.55C276.753 470.816 275.766 470.884 274.973 470.71L250.176 407.68C249.168 406.87 248.697 406.042 248.372 404.787L248.255 404.25L246.733 403.873C246.651 403.828 240.738 385.244 240.295 383.843C239.285 381.379 238.383 379.242 237.932 376.594Z"/>
	<path fill="#103F7A" transform="scale(0.488281 0.488281)" d="M240.295 383.843C240.778 384.183 241.984 384.815 242.291 385.25C243.34 386.735 244.208 389.573 244.864 391.314C246.874 396.654 248.789 402.144 250.176 407.68C249.168 406.87 248.697 406.042 248.372 404.787L248.255 404.25L246.733 403.873C246.651 403.828 240.738 385.244 240.295 383.843Z"/>
	<path fill="#111340" transform="scale(0.488281 0.488281)" d="M195.221 479.271L201.208 482.142C199.738 488.026 197.415 493.704 195.617 499.5L179.042 552.309L143.683 666.643L131.75 704.919C130.378 709.268 127.891 714.598 127.68 719.102L119.651 727.94C119.179 724.447 122.135 718.166 123.25 714.644L131.817 687.562L174.123 550.743L188.887 502.109C191.123 494.495 193.838 487.114 195.221 479.271Z"/>
	<path fill="#145478" transform="scale(0.488281 0.488281)" d="M374.196 333.469L392.012 337.233L391.932 381.105L355.601 404.783C357.005 397.185 359.665 389.786 361.86 382.388L367.869 359.889C370.221 351.27 372.977 342.316 374.196 333.469Z"/>
	<path fill="#FDA94D" transform="scale(0.488281 0.488281)" d="M729.999 236.082L731.463 235.406C736.338 237.68 742.009 238.907 747.155 240.525L798.479 255.834C796.052 256.553 793.842 258.057 791.657 259.311L779.9 266.165L747.186 285.465C744.231 287.183 740.419 290.271 737.207 291.162C736.249 291.731 735.621 292.052 734.509 292.183L734.658 253.551C734.538 250.994 734.126 248.767 732.952 246.472C731.257 243.387 727.984 239.403 727.912 235.905L728.956 235.892L729.999 236.082Z"/>
	<path fill="#FEFDF5" transform="scale(0.488281 0.488281)" d="M727.912 235.905L728.956 235.892L729.999 236.082C733.19 238.246 736.44 242.456 737.376 246.32C738.299 250.135 737.596 255.738 737.557 259.71L737.207 291.162C736.249 291.731 735.621 292.052 734.509 292.183L734.658 253.551C734.538 250.994 734.126 248.767 732.952 246.472C731.257 243.387 727.984 239.403 727.912 235.905Z"/>
	<path fill="#FC9441" transform="scale(0.488281 0.488281)" d="M391.932 381.105L391.557 414.571C391.571 418.147 391.966 422.16 391.514 425.682C394.063 426.497 397.353 427.703 399.991 426.594L400.857 426.104L401.507 426.015L401.507 431.75C401 432.028 400.485 432.355 399.951 432.574C399.204 432.866 398.307 432.944 397.523 433.124C394.876 433.729 391.849 433.136 389.162 432.844C381.63 432.027 374.105 430.544 366.726 428.851C364.958 430.697 363.068 431.762 361.028 433.233C355.889 436.939 349.839 440.741 345.358 445.174L306.079 435.738L350.086 408.39C352.032 407.358 353.799 406.044 355.601 404.783L391.932 381.105Z"/>
	<path fill="#E63E2B" transform="scale(0.488281 0.488281)" d="M391.557 414.571C391.571 418.147 391.966 422.16 391.514 425.682C394.063 426.497 397.353 427.703 399.991 426.594L400.857 426.104L401.507 426.015L401.507 431.75C401 432.028 400.485 432.355 399.951 432.574C399.204 432.866 398.307 432.944 397.523 433.124C394.876 433.729 391.849 433.136 389.162 432.844C381.63 432.027 374.105 430.544 366.726 428.851C361.64 427.715 353.877 426.951 350.032 423.25L350.478 422.25C355.554 418.405 366.093 418.029 372.248 417.273L391.557 414.571Z"/>
	<path fill="#111340" transform="scale(0.488281 0.488281)" d="M399.951 432.574C397.516 432.58 394.477 431.686 392.75 429.867C391.631 428.688 391.618 427.209 391.514 425.682C394.063 426.497 397.353 427.703 399.991 426.594L400.857 426.104L401.507 426.015L401.507 431.75C401 432.028 400.485 432.355 399.951 432.574Z"/>
	<path fill="#81CACB" transform="scale(0.488281 0.488281)" d="M150.614 863.525L197.151 910.289L223.004 934.775C217.423 934.368 211.307 931.804 206 930.046L176.763 920.323L111.026 899.218L86.1669 891.219C91.4944 887.673 98.3916 885.561 104.292 883.037L150.614 863.525Z"/>
	<path fill="#145478" transform="scale(0.488281 0.488281)" d="M201.208 482.142L218.349 488.794L223.134 490.857L166.015 641.057L149.066 682.944C145.976 690.493 141.878 698.593 139.926 706.493L139.763 707.136L139.67 707.524L133.583 713.362L127.68 719.102C127.891 714.598 130.378 709.268 131.75 704.919L143.683 666.643L179.042 552.309L195.617 499.5C197.415 493.704 199.738 488.026 201.208 482.142Z"/>
	<path fill="#111340" transform="scale(0.488281 0.488281)" d="M218.349 488.794L223.134 490.857L166.015 641.057L149.066 682.944C145.976 690.493 141.878 698.593 139.926 706.493L139.763 707.136L139.67 707.524L133.583 713.362L133.208 712.661C133.818 706.881 137.681 700.111 139.778 694.677L160.688 641.338L186.772 571.899L218.349 488.794Z"/>
	<path fill="#111340" transform="scale(0.488281 0.488281)" d="M611.731 113.726L612.545 112.431C617.609 104.744 628.029 98.7949 636.958 96.9873L637.913 96.8004C642.355 95.8901 647.227 95.5539 651.727 96.2323L652.5 96.3581C655.416 96.8023 658.112 97.4785 660.942 98.2961C669.323 101.283 675.045 103.803 681.584 109.968C683.263 111.46 684.563 112.802 685.748 114.716L685.975 130.894C685.989 133.547 685.7 136.625 686.255 139.188C680.316 148.18 671.53 152.457 661.141 154.553L646.458 157.002C633.796 157.21 618.843 155.362 609.268 146.212C609.712 144.577 609.389 141.812 609.416 140.072C609.536 132.227 608.78 123.255 610.028 115.561L611.731 113.726Z"/>
	<path fill="#8E1A2A" transform="scale(0.488281 0.488281)" d="M611.731 113.726L612.545 112.431C617.609 104.744 628.029 98.7949 636.958 96.9873L637.913 96.8004C642.355 95.8901 647.227 95.5539 651.727 96.2323L652.5 96.3581C655.416 96.8023 658.112 97.4785 660.942 98.2961C669.323 101.283 675.045 103.803 681.584 109.968C681.79 113.112 681.765 114.633 679.683 117.09C675.786 121.688 670.384 123.84 664.892 125.879L653.362 127.75C640.227 129.205 624.351 128.766 613.613 120.133C611.916 118.009 611.868 116.31 611.731 113.726Z"/>
	<path fill="#B22626" transform="scale(0.488281 0.488281)" d="M611.731 113.726L612.545 112.431C617.609 104.744 628.029 98.7949 636.958 96.9873L637.913 96.8004C642.355 95.8901 647.227 95.5539 651.727 96.2323L652.5 96.3581C655.416 96.8023 658.112 97.4785 660.942 98.2961C669.323 101.283 675.045 103.803 681.584 109.968C681.79 113.112 681.765 114.633 679.683 117.09C675.786 121.688 670.384 123.84 664.892 125.879C664.533 125.046 664.576 125.357 664.533 124.524C664.269 119.423 663.799 115.115 661.455 110.479C658.837 105.3 651.998 101.229 646.564 99.6453C640.006 97.7347 632.534 100.67 626.767 103.809C622.896 105.915 618.209 109.287 616.063 113.172C614.899 115.278 614.291 117.83 613.613 120.133C611.916 118.009 611.868 116.31 611.731 113.726Z"/>
	<path fill="#FDF8DF" transform="scale(0.488281 0.488281)" d="M686.255 139.188C687.582 147.801 687.006 157.466 687.259 166.25L688.466 206.317C676.47 217.935 662.756 221.233 646.546 222.452C632.267 221.58 620.508 220.301 609.111 210.906C608.195 203.153 609.003 194.469 609.007 186.609C609.013 173.271 608.223 159.461 609.268 146.212C618.843 155.362 633.796 157.21 646.458 157.002L661.141 154.553C671.53 152.457 680.316 148.18 686.255 139.188Z"/>
	<path fill="#81CACB" transform="scale(0.488281 0.488281)" d="M609.268 146.212C618.843 155.362 633.796 157.21 646.458 157.002L646.305 200.115C646.25 207.224 645.352 215.462 646.546 222.452C632.267 221.58 620.508 220.301 609.111 210.906C608.195 203.153 609.003 194.469 609.007 186.609C609.013 173.271 608.223 159.461 609.268 146.212Z"/>
	<defs>
		<linearGradient id="gradient_0" gradientUnits="userSpaceOnUse" x1="540.97833" y1="59.042114" x2="637.73358" y2="126.8466">
			<stop offset="0" stop-color="#0D597A"/>
			<stop offset="1" stop-color="#4997A0"/>
		</linearGradient>
	</defs>
	<path fill="url(#gradient_0)" transform="scale(0.488281 0.488281)" d="M610.028 115.561C607.942 115.592 606.449 114.444 604.724 113.422C600.919 111.167 596.659 108.262 592.002 109.161C584.682 110.574 578.524 116.243 571.045 117.989L570.121 118.196C561.736 120.123 552.569 119.058 544.953 115.016C537.804 111.221 530.877 104.851 528.508 96.8842L528.294 96.1341C525.946 88.0758 527.712 79.4135 531.697 72.181L532.164 71.3496C533 69.8257 533.827 69.0749 534.829 67.752C536.298 65.8138 537.523 64.215 539.537 62.6792L544.858 58.9044L545.503 58.5303C548.992 56.4802 552.645 55.2873 556.579 54.4215C566.974 52.1337 578.548 53.0192 587.655 58.9595C597.005 65.0579 601.444 72.4523 603.625 83.3029L611.395 85.9819L616.75 82.5048C623.438 78.2541 632.144 75.3284 640.134 77.3216L640.75 77.4896C642.407 77.9249 643.943 78.4354 645.488 79.1776C654.153 83.3394 657.839 89.417 660.942 98.2961C658.112 97.4785 655.416 96.8023 652.5 96.3581L651.727 96.2323C647.227 95.5539 642.355 95.8901 637.913 96.8004L636.958 96.9873C628.029 98.7949 617.609 104.744 612.545 112.431L611.731 113.726L610.028 115.561Z"/>
	<defs>
		<linearGradient id="gradient_1" gradientUnits="userSpaceOnUse" x1="370.05219" y1="242.48846" x2="426.88089" y2="416.02466">
			<stop offset="0" stop-color="#FFFFE7"/>
			<stop offset="1" stop-color="#FFFFFB"/>
		</linearGradient>
	</defs>
	<path fill="url(#gradient_1)" transform="scale(0.488281 0.488281)" d="M393.652 229.856L396.354 231.915L401.338 233.964L401.479 234.337C401.311 237.037 401.296 239.584 401.509 242.283C403.373 244.166 403.388 245.47 403.537 248.059L403.447 248.216C404.106 250.664 404.623 252.076 405.867 254.25L432.504 339.823L433.477 341.381C431.466 342.656 428.167 343.013 425.791 342.843C425.859 344.634 425.551 347.789 426.303 349.344L426.362 359.183L421.81 361.947L404.012 372.911L404.288 405.536C404.353 410.957 404.875 416.869 404.379 422.25C404.286 423.257 403.739 423.901 403.047 424.601L401.507 426.015L400.857 426.104L399.991 426.594C397.353 427.703 394.063 426.497 391.514 425.682C391.966 422.16 391.571 418.147 391.557 414.571L391.932 381.105L392.012 337.233L374.196 333.469C372.824 333.076 371.53 332.405 370.234 331.815C367.935 330.456 365.901 329.253 364.079 327.25L364.179 325.75C366.383 324.122 367.533 325.052 369.75 324.085L391.589 239.911C392.761 236.492 393.288 233.432 393.652 229.856Z"/>
	<path fill="#145478" transform="scale(0.488281 0.488281)" d="M404.012 372.911L403.982 340.747C410.315 342.956 418.106 343.023 424.777 343.122L425.791 342.843C425.859 344.634 425.551 347.789 426.303 349.344L426.362 359.183L421.81 361.947L404.012 372.911Z"/>
	<path fill="#111340" transform="scale(0.488281 0.488281)" d="M424.777 343.122L425.791 342.843C425.859 344.634 425.551 347.789 426.303 349.344L426.362 359.183L421.81 361.947L420.714 350.214C420.465 348.157 419.891 345.777 420.418 343.75L424.777 343.122Z"/>
	<path fill="#81CACB" transform="scale(0.488281 0.488281)" d="M393.652 229.856L396.354 231.915C398.218 240.424 397.388 250.205 397.736 258.92L399.527 331.321L391.686 329.036L392.112 266.975L392.708 247.188C392.82 244.609 393.65 240.271 392.75 237.895L392.251 240.353L391.589 239.911C392.761 236.492 393.288 233.432 393.652 229.856Z"/>
	<path fill="#81CACB" transform="scale(0.488281 0.488281)" d="M392.012 337.233L399.814 339.084L400.295 406.338L400.29 419.801C400.277 421.244 399.935 423.563 400.229 424.932C400.322 425.365 400.648 425.713 400.857 426.104L399.991 426.594C397.353 427.703 394.063 426.497 391.514 425.682C391.966 422.16 391.571 418.147 391.557 414.571L391.932 381.105L392.012 337.233Z"/>
	<path fill="#145478" transform="scale(0.488281 0.488281)" d="M392.251 240.353L392.75 237.895C393.65 240.271 392.82 244.609 392.708 247.188L392.112 266.975L391.686 329.036L371.149 324.461L392.251 240.353Z"/>
	<path fill="#145478" transform="scale(0.488281 0.488281)" d="M401.509 242.283C403.373 244.166 403.388 245.47 403.537 248.059L403.447 248.216C404.106 250.664 404.623 252.076 405.867 254.25L432.504 339.823L427.385 338.459L405.049 258.95C404.698 257.741 405.039 258.221 404.186 257.495L426.211 337.962L411.432 334.357C409.201 333.858 405.956 333.59 403.967 332.522L401.509 242.283Z"/>
	<path fill="#145478" transform="scale(0.488281 0.488281)" d="M223.134 490.857L226.477 492.476L224.767 597.497L224.003 636.117C224.004 640.369 223.572 645.226 224.198 649.406C194.739 666.33 165.444 685.302 139.67 707.524L139.763 707.136L139.926 706.493C141.878 698.593 145.976 690.493 149.066 682.944L166.015 641.057L223.134 490.857Z"/>
	<path fill="#FDF8DF" transform="scale(0.488281 0.488281)" d="M229.559 369.616L230.111 370.946L237.524 371.16C237.591 372.922 237.496 374.883 237.932 376.594C238.383 379.242 239.285 381.379 240.295 383.843C240.738 385.244 246.651 403.828 246.733 403.873L248.255 404.25L248.372 404.787C248.697 406.042 249.168 406.87 250.176 407.68L274.973 470.71C275.766 470.884 276.753 470.816 277.204 471.55C277.762 472.456 277.882 473.472 278.072 474.5C277.754 475.181 277.565 475.544 277.043 476.105C277.242 477.26 277.612 477.915 278.169 478.926C279.999 482.246 282.27 488.332 282.985 492.088L277.336 497.292L276.437 499.042L276.41 500.727L275.062 501.049L263.492 508.622C262.062 509.625 260.095 510.733 259.468 512.394C258.399 514.982 258.974 518.962 259.001 521.819L259.491 547.394L260.468 630.238L285.305 620.731C285.02 621.314 284.958 621.737 284.391 622.077C270.083 630.644 257.114 643.249 244.459 654.113C244.559 660.989 244.186 713.569 245.72 716.227L247.038 716.537L247.769 716.903C248.75 717.38 249.687 717.573 250.75 717.791C251.575 719.107 252.743 722.194 252.402 723.749C252.316 724.139 252.159 724.317 251.948 724.636C246.466 728.716 239.316 730.875 232.5 730.961C226.744 731.034 222.524 728.483 218.582 724.558C217.015 722.924 217.37 720.341 217.386 718.25C218.821 716.38 221.438 716.932 222.986 715.27C223.631 714.578 223.388 711.893 223.403 710.871L223.661 709.645C223.06 704.899 223.532 699.309 223.735 694.538C224.413 691.874 223.933 688.048 223.949 685.198L224.212 664.877C224.546 663.348 224.332 661.305 224.357 659.723C224.41 656.283 224.58 652.832 224.198 649.406C223.572 645.226 224.004 640.369 224.003 636.117L224.767 597.497L226.477 492.476L223.134 490.857L218.349 488.794L201.208 482.142L195.221 479.271C193.135 478.184 191.377 476.88 189.531 475.446C192.801 472.969 196.181 471.053 200.353 470.924L201 470.913C202.547 469.125 203.376 465.848 204.139 463.602L210.178 443.594L224.365 391.247L229.559 369.616Z"/>
	<path fill="#103F7A" transform="scale(0.488281 0.488281)" d="M240.586 442.193C240.99 443.328 241.387 444.376 241.92 445.454C243.16 447.961 243.238 451.763 243.585 454.544L245.513 470C245.686 472.201 245.338 476.031 246.42 477.892L246.416 477.91L241.033 479.947L240.586 442.193Z"/>
	<path fill="#145478" transform="scale(0.488281 0.488281)" d="M277.043 476.105C277.242 477.26 277.612 477.915 278.169 478.926C279.999 482.246 282.27 488.332 282.985 492.088L277.336 497.292L276.437 499.042L271.096 479.94L277.043 476.105Z"/>
	<path fill="#145478" transform="scale(0.488281 0.488281)" d="M246.733 403.873L248.255 404.25L248.372 404.787C248.697 406.042 249.168 406.87 250.176 407.68L274.973 470.71L266.318 471.32L246.733 403.873Z"/>
	<path fill="#111340" transform="scale(0.488281 0.488281)" d="M238.43 394.409C239.39 397.022 239.17 399.128 239.606 401.75L241.629 412.547C245.5 433.493 248.287 454.599 253.641 475.245L246.42 477.892C245.338 476.031 245.686 472.201 245.513 470L243.585 454.544C243.238 451.763 243.16 447.961 241.92 445.454C241.387 444.376 240.99 443.328 240.586 442.193L238.43 394.409Z"/>
	<path fill="#145478" transform="scale(0.488281 0.488281)" d="M238.43 394.409C237.872 390.487 237.547 384.965 238.242 381.04L264.371 471.637L253.641 475.245C248.287 454.599 245.5 433.493 241.629 412.547L239.606 401.75C239.17 399.128 239.39 397.022 238.43 394.409Z"/>
	<path fill="#145478" transform="scale(0.488281 0.488281)" d="M228.52 380.541C229.361 388.826 227.839 398.031 227.614 406.402L226.552 464.258L226.437 475.314C226.43 476.829 226.693 478.47 225.956 479.799L204.067 471.1L228.52 380.541Z"/>
	<defs>
		<linearGradient id="gradient_2" gradientUnits="userSpaceOnUse" x1="282.41196" y1="576.1275" x2="175.85904" y2="538.33783">
			<stop offset="0" stop-color="#5BC0C3"/>
			<stop offset="1" stop-color="#A9D9E0"/>
		</linearGradient>
	</defs>
	<path fill="url(#gradient_2)" transform="scale(0.488281 0.488281)" d="M230.456 372.372C231.849 378.948 230.941 386.726 231.208 393.488L231.487 510.282L231.961 723.884L218.582 724.558C217.015 722.924 217.37 720.341 217.386 718.25C218.821 716.38 221.438 716.932 222.986 715.27C223.631 714.578 223.388 711.893 223.403 710.871L223.661 709.645C223.06 704.899 223.532 699.309 223.735 694.538C224.413 691.874 223.933 688.048 223.949 685.198L224.212 664.877C224.546 663.348 224.332 661.305 224.357 659.723C224.41 656.283 224.58 652.832 224.198 649.406C223.572 645.226 224.004 640.369 224.003 636.117L224.767 597.497L226.477 492.476C226.398 489.074 227.49 482.671 225.956 479.799C226.693 478.47 226.43 476.829 226.437 475.314L226.552 464.258L227.614 406.402C227.839 398.031 229.361 388.826 228.52 380.541C228.12 378.495 229.816 374.409 230.456 372.372Z"/>
	<path fill="#145478" transform="scale(0.488281 0.488281)" d="M260.468 630.238L243.491 638.565L240.957 492.158C242.477 490.61 247.348 489.441 249.489 488.583L269.224 480.304L275.062 501.049L263.492 508.622C262.062 509.625 260.095 510.733 259.468 512.394C258.399 514.982 258.974 518.962 259.001 521.819L259.491 547.394L260.468 630.238Z"/>
	<path fill="#E9672E" transform="scale(0.488281 0.488281)" d="M609.111 210.906C620.508 220.301 632.267 221.58 646.546 222.452L646.976 297.494L643.987 299.181L630.5 307.009C628.091 308.374 625.268 310.23 622.541 310.817C619.177 314.071 614.318 316.534 610.261 318.838L588.653 330.899L542 358.599L527.777 366.924C525.634 368.232 522.82 369.66 521.121 371.492C521.147 373.427 520.852 376.059 521.557 377.855L520.49 378.067L427.115 349.604L426.303 349.344C425.551 347.789 425.859 344.634 425.791 342.843C428.167 343.013 431.466 342.656 433.477 341.381L433.573 342.386C434.582 342.72 435.014 342.917 436.089 342.769L436.912 343.74L503.961 306.16C508.547 302.578 514.732 299.743 519.803 296.799L552.486 278.211L609.032 245.378L609.111 210.906Z"/>
	<path fill="#8E1A2A" transform="scale(0.488281 0.488281)" d="M577.674 281.379L577.795 282.078C578.345 285.39 577.681 289.513 580.5 291.729C581.388 290.894 581.584 290.286 582.149 289.25C582.534 288.544 583.016 287.863 583.524 287.241L583.509 304.25C582.954 305.491 582.098 306 581.027 306.75C579.405 306.932 579.533 306.948 578.25 305.933C577.401 303.872 577.416 301.53 577.272 299.327C576.879 293.341 577.28 287.354 577.674 281.379Z"/>
	<path fill="#FDA94D" transform="scale(0.488281 0.488281)" d="M609.032 245.378L609 274.398L595.97 274C592.844 276.978 589.748 280.304 586.184 282.75C585.424 282.687 584.993 282.628 584.27 282.344L583.524 287.241C583.016 287.863 582.534 288.544 582.149 289.25C581.584 290.286 581.388 290.894 580.5 291.729C577.681 289.513 578.345 285.39 577.795 282.078L577.674 281.379L577.897 275.978L552.486 278.211L609.032 245.378Z"/>
	<path fill="#E9672E" transform="scale(0.488281 0.488281)" d="M578.074 271.51C578.343 270.723 578.403 269.767 579.175 269.332C581.953 267.764 587.73 269.786 590.604 270.84L593.009 271.798C589.791 273.269 585.518 273.585 582.003 274.016L579.626 271.688L579.007 270.991L578.074 271.51Z"/>
	<path fill="#B22626" transform="scale(0.488281 0.488281)" d="M578.074 271.51L579.007 270.991L579.626 271.688L582.003 274.016C582.475 276.9 583.505 279.538 584.27 282.344L583.524 287.241C583.016 287.863 582.534 288.544 582.149 289.25C581.584 290.286 581.388 290.894 580.5 291.729C577.681 289.513 578.345 285.39 577.795 282.078L577.674 281.379L577.897 275.978L578.074 271.51Z"/>
	<path fill="#8E1A2A" transform="scale(0.488281 0.488281)" d="M609.111 210.906C620.508 220.301 632.267 221.58 646.546 222.452L646.976 297.494L643.987 299.181L608.978 287.254L609 274.398L609.032 245.378L609.111 210.906Z"/>
	<path fill="#FDA94D" transform="scale(0.488281 0.488281)" d="M503.961 306.16C507.781 306.522 512.444 304.77 516.25 304.013L544.952 298.087L486.045 339.314C504.152 333.932 521.381 325.092 538.192 316.582L549.5 310.538C551.201 309.608 553.464 308.005 555.321 307.504C556.45 307.2 558.137 307.569 559.333 307.663L567.775 308.114L489.936 355.78C502.057 352.151 513.781 346.31 525.077 340.645L553.2 326.512C559.937 323.04 567.622 318.04 574.839 315.804C581.334 313.792 588.733 313.364 595.492 312.74L622.541 310.817C619.177 314.071 614.318 316.534 610.261 318.838L588.653 330.899L542 358.599L527.777 366.924C525.634 368.232 522.82 369.66 521.121 371.492C521.147 373.427 520.852 376.059 521.557 377.855L520.49 378.067L427.115 349.604L426.303 349.344C425.551 347.789 425.859 344.634 425.791 342.843C428.167 343.013 431.466 342.656 433.477 341.381L433.573 342.386C434.582 342.72 435.014 342.917 436.089 342.769L436.912 343.74L503.961 306.16Z"/>
	<path fill="#103F7A" transform="scale(0.488281 0.488281)" d="M433.477 341.381L433.573 342.386C434.582 342.72 435.014 342.917 436.089 342.769L436.912 343.74L427.115 349.604L426.303 349.344C425.551 347.789 425.859 344.634 425.791 342.843C428.167 343.013 431.466 342.656 433.477 341.381Z"/>
	<path fill="#E9672E" transform="scale(0.488281 0.488281)" d="M688.466 206.317L688.495 223L716.226 231.809C719.751 232.917 724.805 233.908 727.912 235.905C727.984 239.403 731.257 243.387 732.952 246.472C734.126 248.767 734.538 250.994 734.658 253.551L734.509 292.183C732.891 294.264 729.741 295.696 727.5 297.055L710.477 307.035L674.5 328.509L574.903 388.868C556.807 399.91 537.823 410.272 520.503 422.482C519.985 418.041 520.424 413.033 520.432 408.536L520.49 378.067L521.557 377.855C520.852 376.059 521.147 373.427 521.121 371.492C522.82 369.66 525.634 368.232 527.777 366.924L542 358.599L588.653 330.899L610.261 318.838C614.318 316.534 619.177 314.071 622.541 310.817C625.268 310.23 628.091 308.374 630.5 307.009L643.987 299.181L646.976 297.494L646.546 222.452C662.756 221.233 676.47 217.935 688.466 206.317Z"/>
	<path fill="#4A062F" transform="scale(0.488281 0.488281)" d="M598.245 343.75C598.834 344.903 598.578 346.53 598.582 347.827L598.633 360.126L594.802 362.25C594.146 361.191 594.452 359.477 594.452 358.215L594.445 345.814L598.245 343.75Z"/>
	<path fill="#4A062F" transform="scale(0.488281 0.488281)" d="M726.908 268.75L727.949 268.592L728.495 269L728.541 280.448C728.542 281.619 728.79 283.321 728.267 284.389C727.942 285.052 725.98 285.404 725.25 285.638C724.579 285.713 724.985 285.741 724.092 285.25L724.102 271C724.668 269.748 725.755 269.356 726.908 268.75Z"/>
	<path fill="#4A062F" transform="scale(0.488281 0.488281)" d="M664.111 304.25C664.684 304.36 664.37 304.241 664.984 304.75L664.989 319.134C664.084 320.33 662.309 321.046 661.006 321.75L660.252 321.275L660.395 306.477L664.111 304.25Z"/>
	<path fill="#FDC578" transform="scale(0.488281 0.488281)" d="M688.466 206.317L688.495 223L716.226 231.809C719.751 232.917 724.805 233.908 727.912 235.905C727.984 239.403 731.257 243.387 732.952 246.472C734.126 248.767 734.538 250.994 734.658 253.551L521.557 377.855C520.852 376.059 521.147 373.427 521.121 371.492C522.82 369.66 525.634 368.232 527.777 366.924L542 358.599L588.653 330.899L610.261 318.838C614.318 316.534 619.177 314.071 622.541 310.817C625.268 310.23 628.091 308.374 630.5 307.009L643.987 299.181L646.976 297.494L646.546 222.452C662.756 221.233 676.47 217.935 688.466 206.317Z"/>
	<path fill="#FDA94D" transform="scale(0.488281 0.488281)" d="M688.495 223L716.226 231.809C719.751 232.917 724.805 233.908 727.912 235.905C727.984 239.403 731.257 243.387 732.952 246.472L688.351 272.908L688.495 223Z"/>
	<path fill="#E63E2B" transform="scale(0.488281 0.488281)" d="M688.466 206.317L688.495 223L688.351 272.908L646.976 297.494L646.546 222.452C662.756 221.233 676.47 217.935 688.466 206.317Z"/>
	<path fill="#0CB8BD" transform="scale(0.488281 0.488281)" d="M467.074 824.043C495.575 829.048 523.916 832.165 552.797 833.74C568.183 834.579 583.626 835.227 599.033 834.774C605.035 834.598 612.427 834.925 618.207 833.524C624.461 833.535 630.39 832.708 636.593 832.035L669.948 827.077C665.569 830.678 659.488 833.474 654.499 836.263L612.488 858.577L478.116 928.795L439.989 948.551L429.573 954.028C428.611 954.524 427.178 955.514 426.059 955.437L311.481 919.558L467.074 824.043Z"/>
	<path fill="#81CACB" transform="scale(0.488281 0.488281)" d="M859.189 545.717C884.26 563.857 911.909 578.415 941.285 588.249L875.046 600.602C871.217 601.478 865.209 602.234 861.829 604.152L936.382 609.284L824.481 649.461L812.468 654.179C810.271 655.009 807.672 655.663 805.745 656.995L889.945 651.544C902.7 650.595 915.651 648.591 928.461 649.01L724.708 737.099L853.566 722.451L618.207 833.524C612.427 834.925 605.035 834.598 599.033 834.774C583.626 835.227 568.183 834.579 552.797 833.74C523.916 832.165 495.575 829.048 467.074 824.043C487.355 809.911 509.334 797.975 530.171 784.633L731.004 659.333L792.028 621.798L811.168 610.219C815.54 607.524 819.933 604.938 823.739 601.453C839.859 586.691 849.629 565.087 859.189 545.717Z"/>
	<path fill="#E63E2B" transform="scale(0.488281 0.488281)" d="M883.731 490.762L885.274 489.387L859.189 545.717C849.629 565.087 839.859 586.691 823.739 601.453C819.933 604.938 815.54 607.524 811.168 610.219L792.028 621.798L731.004 659.333L530.171 784.633C509.334 797.975 487.355 809.911 467.074 824.043L311.481 919.558L311.091 919.729C304.439 922.725 298.001 927.484 291.681 931.21L248.564 957.367L235.46 946.009C231.231 942.431 227.593 937.86 223.004 934.775L197.151 910.289L330.578 838.345L330.869 838.303C335.465 834.939 341.323 832.4 346.354 829.639L374.136 813.88L408.988 792.225L458.438 761.643L503.828 732.683L662.515 633.653L795.548 549.746L861.478 506.171L875 496.559C877.383 494.801 880.889 491.279 883.731 490.762Z"/>
	<defs>
		<linearGradient id="gradient_3" gradientUnits="userSpaceOnUse" x1="591.23071" y1="769.33521" x2="552.79004" y2="716.49475">
			<stop offset="0" stop-color="#271F3E"/>
			<stop offset="1" stop-color="#10134B"/>
		</linearGradient>
	</defs>
	<path fill="url(#gradient_3)" transform="scale(0.488281 0.488281)" d="M883.731 490.762L885.274 489.387L859.189 545.717C849.629 565.087 839.859 586.691 823.739 601.453C819.933 604.938 815.54 607.524 811.168 610.219L792.028 621.798L731.004 659.333L530.171 784.633C509.334 797.975 487.355 809.911 467.074 824.043L311.481 919.558L311.091 919.729C304.439 922.725 298.001 927.484 291.681 931.21L248.564 957.367L235.46 946.009C231.231 942.431 227.593 937.86 223.004 934.775L197.151 910.289L330.578 838.345L330.869 838.303L371.67 865.481L468.495 805.242L547.917 755.982L638 699.549L717.823 651.065L756.228 627.482L814.72 591.984L826.752 584.45C828.754 583.196 831.231 582.036 832.994 580.473C834.549 579.095 835.715 576.658 836.8 574.864L845.33 559.952L883.731 490.762Z"/>
	<path fill="#B22626" transform="scale(0.488281 0.488281)" d="M330.869 838.303L371.67 865.481L235.46 946.009C231.231 942.431 227.593 937.86 223.004 934.775L197.151 910.289L330.578 838.345L330.869 838.303Z"/>
	<path fill="#FDF8DF" transform="scale(0.488281 0.488281)" d="M798.479 255.834L799.965 256.271C800.923 261.635 800.162 268.399 800.123 273.917L796.474 276.042C796.501 279.024 795.991 283.53 797.247 286.19L798.179 286.162L799.75 285.012C802.682 285.842 828.619 293.798 829.452 294.63C829.694 294.871 829.812 295.21 829.991 295.5L829.205 296.524C828.988 298.282 828.795 299.976 828.815 301.748L829.713 306.511C830.312 309.659 830.474 313.926 832.94 316.081L832.424 317.387L765.987 358.265L684.367 408.342L538.896 495.747L478.826 531.853L457.413 542.791C451.49 545.94 445.645 549.147 439.492 551.841C437.325 552.789 434.856 554.141 432.538 554.573L433.012 532.041C431.127 530.923 428.3 530.576 426.155 530.036L409.425 525.962L318.203 505.852L277.336 497.292L282.985 492.088L288.36 487.62C290.696 486.141 293.015 484.996 295.535 483.878L295.277 445.723L295.196 443.021C297.358 440.098 302.86 437.63 306.079 435.738L345.358 445.174C349.839 440.741 355.889 436.939 361.028 433.233C363.068 431.762 364.958 430.697 366.726 428.851C374.105 430.544 381.63 432.027 389.162 432.844C391.849 433.136 394.876 433.729 397.523 433.124C398.307 432.944 399.204 432.866 399.951 432.574C400.485 432.355 401 432.028 401.507 431.75L401.507 426.015L403.047 424.601C403.739 423.901 404.286 423.257 404.379 422.25C404.875 416.869 404.353 410.957 404.288 405.536L404.012 372.911L421.81 361.947L426.362 359.183L426.303 349.344L427.115 349.604L520.49 378.067L520.432 408.536C520.424 413.033 519.985 418.041 520.503 422.482C537.823 410.272 556.807 399.91 574.903 388.868L674.5 328.509L710.477 307.035L727.5 297.055C729.741 295.696 732.891 294.264 734.509 292.183C735.621 292.052 736.249 291.731 737.207 291.162C740.419 290.271 744.231 287.183 747.186 285.465L779.9 266.165L791.657 259.311C793.842 258.057 796.052 256.553 798.479 255.834Z"/>
	<path fill="#111340" transform="scale(0.488281 0.488281)" d="M771.03 289.25L771.844 289.344L771.849 307.553L763.25 312.579C762.67 312.595 762.988 312.654 762.339 312.25L762.439 294.263L771.03 289.25Z"/>
	<path fill="#111340" transform="scale(0.488281 0.488281)" d="M511.376 446.747C512.051 448.323 511.637 451.058 511.596 452.796L511.471 466.182C509.434 468.81 505.35 470.895 502.552 472.764L502.538 451.433L511.376 446.747Z"/>
	<path fill="#332245" transform="scale(0.488281 0.488281)" d="M790.208 277.75L790.741 277.984L790.304 295.543L780.75 301.59C780.283 301.543 780.582 301.603 779.899 301.25L779.994 284.092L790.208 277.75Z"/>
	<path fill="#332245" transform="scale(0.488281 0.488281)" d="M492.108 458.25C492.437 458.355 492.721 458.568 493.014 458.75L493.029 478.907L484.343 483.75C484.027 483.626 483.744 483.427 483.454 483.25L483.465 462.398L492.108 458.25Z"/>
	<path fill="#332245" transform="scale(0.488281 0.488281)" d="M469.845 469.25L471.377 469.059C472.402 475.799 471.74 483.547 471.794 490.409L463.75 494.975L462.42 495.25L461.979 472.799L469.845 469.25Z"/>
	<path fill="#CD9886" transform="scale(0.488281 0.488281)" d="M511.376 446.747L754.236 299.898C754.221 305.784 754.658 312.118 754.036 317.947L702.284 349.963L563.27 434.438L527.56 456.253C522.488 459.311 515.848 462.282 511.471 466.182L511.596 452.796C511.637 451.058 512.051 448.323 511.376 446.747Z"/>
	<path fill="#81CACB" transform="scale(0.488281 0.488281)" d="M295.277 445.723L384.47 465.459C398.061 468.423 411.932 472.377 425.75 473.98C433.218 474.847 440.744 474.819 448.173 473.66C441.974 484.219 439.476 496.159 437.358 508.083L434.755 523.322C434.073 524.218 433.399 524.798 432.5 525.472L295.895 495.113L295.535 483.878L295.277 445.723Z"/>
	<path fill="#111340" transform="scale(0.488281 0.488281)" d="M305.068 458.805L310.046 460.357L308.75 480.481L307.93 480.881C306.618 480.747 305.331 480.776 304.25 479.939L305.068 458.805Z"/>
	<path fill="#332245" transform="scale(0.488281 0.488281)" d="M323.103 462.818L358.011 470.881L356.986 492.422L321.067 484.049L323.103 462.818Z"/>
	<path fill="#332245" transform="scale(0.488281 0.488281)" d="M374.758 474.204L419.5 484.464L418.315 505.862L417.25 506.222L372.017 495.602C371.684 493.917 372.317 491.43 372.536 489.693L374.758 474.204Z"/>
	<path fill="#FDA94D" transform="scale(0.488281 0.488281)" d="M426.303 349.344L427.115 349.604L520.49 378.067L520.432 408.536C520.424 413.033 519.985 418.041 520.503 422.482C519.595 422.876 519.476 423.031 518.448 422.938L517.691 423.196C515.649 423.962 513.711 425.616 511.916 426.861L501.325 434.139C493.028 439.676 484.456 445.019 475.598 449.613C458.891 458.276 436.19 463.617 417.322 461.813C409.821 461.096 402.219 458.47 394.914 456.682L345.358 445.174C349.839 440.741 355.889 436.939 361.028 433.233C363.068 431.762 364.958 430.697 366.726 428.851C374.105 430.544 381.63 432.027 389.162 432.844C391.849 433.136 394.876 433.729 397.523 433.124C398.307 432.944 399.204 432.866 399.951 432.574C400.485 432.355 401 432.028 401.507 431.75L401.507 426.015L403.047 424.601C403.739 423.901 404.286 423.257 404.379 422.25C404.875 416.869 404.353 410.957 404.288 405.536L404.012 372.911L421.81 361.947L426.362 359.183L426.303 349.344Z"/>
	<path fill="#E9672E" transform="scale(0.488281 0.488281)" d="M426.308 383.487L426.142 394.783L410.109 391.741C415.937 389.728 420.747 385.917 426.308 383.487Z"/>
	<path fill="#8E1A2A" transform="scale(0.488281 0.488281)" d="M426.303 349.344L427.115 349.604L520.49 378.067L520.432 408.536C520.424 413.033 519.985 418.041 520.503 422.482C519.595 422.876 519.476 423.031 518.448 422.938L426.142 394.783L426.308 383.487L426.362 359.183L426.303 349.344Z"/>
	<path fill="#E63E2B" transform="scale(0.488281 0.488281)" d="M798.179 286.162L799.75 285.012C802.682 285.842 828.619 293.798 829.452 294.63C829.694 294.871 829.812 295.21 829.991 295.5L829.205 296.524C828.988 298.282 828.795 299.976 828.815 301.748L829.713 306.511C830.312 309.659 830.474 313.926 832.94 316.081L832.424 317.387L765.987 358.265L684.367 408.342L538.896 495.747L478.826 531.853L457.413 542.791C451.49 545.94 445.645 549.147 439.492 551.841C437.325 552.789 434.856 554.141 432.538 554.573L433.012 532.041C431.127 530.923 428.3 530.576 426.155 530.036L409.425 525.962L318.203 505.852L277.336 497.292L282.985 492.088L288.36 487.62C290.696 486.141 293.015 484.996 295.535 483.878L295.895 495.113L432.5 525.472C433.399 524.798 434.073 524.218 434.755 523.322L701.096 362.327L773.594 318.391C782.436 312.831 791.943 307.815 800.086 301.257L800.083 290.014C799.895 288.064 799.688 287.425 798.179 286.162Z"/>
	<path fill="#FD503E" transform="scale(0.488281 0.488281)" d="M798.179 286.162L799.75 285.012C802.682 285.842 828.619 293.798 829.452 294.63C829.694 294.871 829.812 295.21 829.991 295.5L829.205 296.524L810.1 308.24L752.682 343.684L718.058 364.271L650.57 406.216L586.29 444.864L521.31 484.568L468.915 513.603L446.75 525.618C442.96 527.648 437.226 531.683 433.012 532.041C431.127 530.923 428.3 530.576 426.155 530.036L409.425 525.962L318.203 505.852L277.336 497.292L282.985 492.088L288.36 487.62C290.696 486.141 293.015 484.996 295.535 483.878L295.895 495.113L432.5 525.472C433.399 524.798 434.073 524.218 434.755 523.322L701.096 362.327L773.594 318.391C782.436 312.831 791.943 307.815 800.086 301.257L800.083 290.014C799.895 288.064 799.688 287.425 798.179 286.162Z"/>
	<path fill="#FDF8DF" transform="scale(0.488281 0.488281)" d="M277.336 497.292L318.203 505.852L409.425 525.962L426.155 530.036C428.3 530.576 431.127 530.923 433.012 532.041L432.538 554.573C431.861 557.743 432.075 561.167 432.039 564.404L431.833 581.984L430.904 642.266L430.746 665.078L430.526 665.296C427.506 667.116 423.818 669.874 420.49 670.934C419.002 672.485 419.39 673.733 418.634 675.654C407.298 683.598 394.982 690.234 382.946 697.05C350.157 715.616 316.231 732.1 281.192 746L250.585 757.12C253.78 761.418 256.593 765.971 259.934 770.169C272.923 786.49 288.128 801.429 303.761 815.2L323.425 831.878C325.091 833.24 330.046 836.44 330.578 838.345L197.151 910.289L150.614 863.525C138.12 849.237 124.86 835.584 113.487 820.321C108.843 814.088 104.784 807.503 100.769 800.855C97.2291 795.602 94.974 788.295 94.4087 782.001C92.4679 760.395 106.634 743.483 119.651 727.94L127.68 719.102L133.583 713.362L139.67 707.524C165.444 685.302 194.739 666.33 224.198 649.406C224.58 652.832 224.41 656.283 224.357 659.723C224.332 661.305 224.546 663.348 224.212 664.877L223.949 685.198C223.933 688.048 224.413 691.874 223.735 694.538C223.532 699.309 223.06 704.899 223.661 709.645L223.403 710.871C223.388 711.893 223.631 714.578 222.986 715.27C221.438 716.932 218.821 716.38 217.386 718.25C217.37 720.341 217.015 722.924 218.582 724.558C222.524 728.483 226.744 731.034 232.5 730.961C239.316 730.875 246.466 728.716 251.948 724.636C252.159 724.317 252.316 724.139 252.402 723.749C252.743 722.194 251.575 719.107 250.75 717.791C249.687 717.573 248.75 717.38 247.769 716.903L247.038 716.537L245.72 716.227C244.186 713.569 244.559 660.989 244.459 654.113C257.114 643.249 270.083 630.644 284.391 622.077C284.958 621.737 285.02 621.314 285.305 620.731L260.468 630.238L259.491 547.394L259.001 521.819C258.974 518.962 258.399 514.982 259.468 512.394C260.095 510.733 262.062 509.625 263.492 508.622L275.062 501.049L276.41 500.727L276.437 499.042L277.336 497.292Z"/>
	<path fill="#FDC578" transform="scale(0.488281 0.488281)" d="M182.838 702.221C183.751 699.889 188.404 696.514 190.25 694.757L224.212 664.877L223.949 685.198C223.933 688.048 224.413 691.874 223.735 694.538C215.451 697.548 206.431 699.068 197.83 700.985C194.274 701.778 190.348 703.105 186.75 703.462C185.649 703.571 184.521 703.31 183.478 702.973L182.838 702.221Z"/>
	<path fill="#FDA94D" transform="scale(0.488281 0.488281)" d="M183.478 702.973C184.521 703.31 185.649 703.571 186.75 703.462C190.348 703.105 194.274 701.778 197.83 700.985C206.431 699.068 215.451 697.548 223.735 694.538C223.532 699.309 223.06 704.899 223.661 709.645L223.403 710.871C223.388 711.893 223.631 714.578 222.986 715.27C221.438 716.932 218.821 716.38 217.386 718.25C217.37 720.341 217.015 722.924 218.582 724.558C222.524 728.483 226.744 731.034 232.5 730.961C239.316 730.875 246.466 728.716 251.948 724.636C252.159 724.317 252.316 724.139 252.402 723.749C252.743 722.194 251.575 719.107 250.75 717.791C249.687 717.573 248.75 717.38 247.769 716.903L247.038 716.537C250.678 715.14 257.393 715.796 261.5 715.543L285.344 713.655L308.383 711.381C312.737 710.9 317.865 709.631 322.191 710.328C300.695 720.373 278.342 729.01 256.032 737.07L183.864 760.527L139.934 771.947C131.283 774.056 122.262 775.66 113.819 778.472C129.063 757.567 145.841 736.557 164.767 718.884C165.866 717.702 167.132 716.79 168.418 715.826L182.838 702.221L183.478 702.973Z"/>
	<path fill="#E63E2B" transform="scale(0.488281 0.488281)" d="M183.478 702.973C184.521 703.31 185.649 703.571 186.75 703.462C190.348 703.105 194.274 701.778 197.83 700.985C206.431 699.068 215.451 697.548 223.735 694.538C223.532 699.309 223.06 704.899 223.661 709.645L223.403 710.871C223.388 711.893 223.631 714.578 222.986 715.27C221.438 716.932 218.821 716.38 217.386 718.25C217.37 720.341 217.015 722.924 218.582 724.558C222.524 728.483 226.744 731.034 232.5 730.961C239.316 730.875 246.466 728.716 251.948 724.636C251.961 725.504 251.819 725.977 251.352 726.75C248.885 730.832 243.248 733.481 238.893 734.823C232.034 736.936 224.157 737.422 217.018 738.062C198.326 739.737 179.841 739.844 161.095 739.47C158.157 739.412 151.951 740.242 149.624 738.971C149.455 737.289 149.661 736.331 150.25 734.755C152.105 733.763 155.134 733.86 157.274 733.643L175.414 732.093C188.428 731.119 201.714 729.175 214.75 729.298L215.106 728.75L164.75 724.614C163.887 723.092 164.584 720.641 164.767 718.884C165.866 717.702 167.132 716.79 168.418 715.826L182.838 702.221L183.478 702.973Z"/>
	<path fill="#FDC578" transform="scale(0.488281 0.488281)" d="M182.838 702.221L183.478 702.973C182.086 704.533 181.859 705.691 181.934 707.75C183.436 707.993 184.979 707.709 186.5 707.721L196.337 708.093C205.403 708.502 214.614 709.637 223.661 709.645L223.403 710.871C212.167 710.945 201.174 711.842 190 712.926C182.759 713.628 175.534 714.225 168.418 715.826L182.838 702.221Z"/>
	<path fill="#E63E2B" transform="scale(0.488281 0.488281)" d="M183.478 702.973C184.521 703.31 185.649 703.571 186.75 703.462C190.348 703.105 194.274 701.778 197.83 700.985C206.431 699.068 215.451 697.548 223.735 694.538C223.532 699.309 223.06 704.899 223.661 709.645C214.614 709.637 205.403 708.502 196.337 708.093L186.5 707.721C184.979 707.709 183.436 707.993 181.934 707.75C181.859 705.691 182.086 704.533 183.478 702.973Z"/>
	<path fill="#E9672E" transform="scale(0.488281 0.488281)" d="M285.305 620.731L286.629 619.457L286.569 659.353L334.907 673.02L338.454 673.767L363.008 681.252C366.885 682.492 371.139 683.529 374.811 685.284L322.191 710.328C317.865 709.631 312.737 710.9 308.383 711.381L285.344 713.655L261.5 715.543C257.393 715.796 250.678 715.14 247.038 716.537L245.72 716.227C244.186 713.569 244.559 660.989 244.459 654.113C257.114 643.249 270.083 630.644 284.391 622.077C284.958 621.737 285.02 621.314 285.305 620.731Z"/>
	<path fill="#111340" transform="scale(0.488281 0.488281)" d="M100.769 800.855L250.585 757.12C253.78 761.418 256.593 765.971 259.934 770.169C272.923 786.49 288.128 801.429 303.761 815.2L323.425 831.878C325.091 833.24 330.046 836.44 330.578 838.345L197.151 910.289L150.614 863.525C138.12 849.237 124.86 835.584 113.487 820.321C108.843 814.088 104.784 807.503 100.769 800.855Z"/>
	<path fill="#81CACB" transform="scale(0.488281 0.488281)" d="M277.336 497.292L318.203 505.852L409.425 525.962L426.155 530.036C428.3 530.576 431.127 530.923 433.012 532.041L432.538 554.573C431.861 557.743 432.075 561.167 432.039 564.404L431.833 581.984L430.904 642.266L430.746 665.078L430.526 665.296C427.506 667.116 423.818 669.874 420.49 670.934C420.064 669.217 419.771 668.66 418.202 667.75L414.181 666.1L385.453 680.01L374.811 685.284C371.139 683.529 366.885 682.492 363.008 681.252L338.454 673.767L334.907 673.02L286.569 659.353L286.629 619.457L285.305 620.731L260.468 630.238L259.491 547.394L259.001 521.819C258.974 518.962 258.399 514.982 259.468 512.394C260.095 510.733 262.062 509.625 263.492 508.622L275.062 501.049L276.41 500.727L276.437 499.042L277.336 497.292Z"/>
	<path fill="#8E1A2A" transform="scale(0.488281 0.488281)" d="M272.71 537.374L340.5 554.502L388.125 565.764C397.197 568.036 407.441 569.5 415.463 574.392C416.656 576.908 416.964 579.785 417.498 582.5L419.851 594.911L278.144 561.387L272.71 537.374Z"/>
	<path fill="#8E1A2A" transform="scale(0.488281 0.488281)" d="M338.454 673.767L338.412 631.275C338.392 625.556 337.578 618.468 338.509 612.875C338.863 610.748 340.127 608.821 341.61 607.305C343.692 605.175 346.012 604.096 348.747 603.101C352.677 603.504 356.196 604.543 360 605.539C367.821 607.588 375.111 608.981 380.44 615.75C382.471 618.33 384.565 622.32 385.243 625.581C386.215 630.254 385.514 636.131 385.505 640.969L385.453 680.01L374.811 685.284C371.139 683.529 366.885 682.492 363.008 681.252L338.454 673.767Z"/>
	<path fill="#8E1A2A" transform="scale(0.488281 0.488281)" d="M286.629 619.457C286.61 611.721 284.645 599.072 290.671 593.217C292.557 591.385 295.423 589.918 298.106 590.076C301.412 590.271 304.945 591.384 308.136 592.211C315.927 594.232 323.58 595.802 328.921 602.385C331.34 605.366 333.614 609.404 334.374 613.197C335.493 618.785 334.706 626.019 334.725 631.731L334.907 673.02L286.569 659.353L286.629 619.457Z"/>
	<path fill="#8E1A2A" transform="scale(0.488281 0.488281)" d="M277.336 497.292L318.203 505.852L409.425 525.962L426.155 530.036C428.3 530.576 431.127 530.923 433.012 532.041L432.538 554.573C427.763 554.29 422.23 552.257 417.547 551.09L385.783 543.258L259.468 512.394C260.095 510.733 262.062 509.625 263.492 508.622L275.062 501.049L276.41 500.727L276.437 499.042L277.336 497.292Z"/>
	<path fill="#332245" transform="scale(0.488281 0.488281)" d="M828.815 301.748L928.498 294.552L917.069 360.132L914.233 375.515C913.592 378.378 913.023 381.639 911.802 384.317L891.698 465.982C890.86 469.3 886.76 488.219 885.274 489.387L883.731 490.762C880.889 491.279 877.383 494.801 875 496.559L861.478 506.171L795.548 549.746L662.515 633.653L503.828 732.683L458.438 761.643L408.988 792.225L374.136 813.88L346.354 829.639C341.323 832.4 335.465 834.939 330.869 838.303L330.578 838.345C330.046 836.44 325.091 833.24 323.425 831.878L303.761 815.2C288.128 801.429 272.923 786.49 259.934 770.169C256.593 765.971 253.78 761.418 250.585 757.12L281.192 746C316.231 732.1 350.157 715.616 382.946 697.05C394.982 690.234 407.298 683.598 418.634 675.654C419.39 673.733 419.002 672.485 420.49 670.934C423.818 669.874 427.506 667.116 430.526 665.296L430.746 665.078L430.904 642.266L431.833 581.984L432.039 564.404C432.075 561.167 431.861 557.743 432.538 554.573C434.856 554.141 437.325 552.789 439.492 551.841C445.645 549.147 451.49 545.94 457.413 542.791L478.826 531.853L538.896 495.747L684.367 408.342L765.987 358.265L832.424 317.387L832.94 316.081C830.474 313.926 830.312 309.659 829.713 306.511L828.815 301.748Z"/>
	<path fill="#FFF384" transform="scale(0.488281 0.488281)" d="M864.908 443.25C865.746 443.295 865.285 443.197 866.25 443.692C866.372 444.634 866.514 445.61 866.4 446.558C866.123 448.866 864.442 449.771 862.75 451.085L862.216 451.322L861.532 451L861.372 446.75C861.496 445.301 863.807 444.031 864.908 443.25Z"/>
	<path fill="#FFF384" transform="scale(0.488281 0.488281)" d="M503.947 668.25C504.623 668.337 504.272 668.214 504.944 668.75C504.912 670.05 504.969 671.534 504.632 672.794C504.11 674.746 501.882 675.848 500.255 676.75C499.365 675.39 499.827 672.848 499.893 671.259C501.047 670.032 502.547 669.18 503.947 668.25Z"/>
	<path fill="#FFF384" transform="scale(0.488281 0.488281)" d="M572.039 626.25L573.412 626.25L573.633 630.25C573.47 632.307 571.426 633.137 569.88 634.25L568.864 634.216C568.514 632.562 568.749 630.919 568.882 629.25C569.647 627.793 570.724 627.149 572.039 626.25Z"/>
	<path fill="#FFF384" transform="scale(0.488281 0.488281)" d="M613.007 600.75C613.601 600.664 614.033 600.694 614.625 600.75L614.845 605.25C614.612 606.949 613.034 607.572 611.75 608.529L610.492 609.039C609.7 607.918 609.729 605.187 609.992 603.75C610.3 602.072 611.699 601.578 613.007 600.75Z"/>
	<path fill="#FFF384" transform="scale(0.488281 0.488281)" d="M721.572 531.75C722.491 531.477 722.029 531.479 722.958 531.75L722.954 536C722.027 537.808 720.887 538.595 719.25 539.755C718.322 539.706 718.812 539.826 717.824 539.25L717.562 535.5C717.779 533.944 720.346 532.634 721.572 531.75Z"/>
	<path fill="#FFF384" transform="scale(0.488281 0.488281)" d="M781.045 494.25C781.749 494.342 781.356 494.228 782.165 494.75L782.097 499.25C781.411 500.779 779.621 501.649 778.25 502.542L777.726 502.327C776.801 500.995 777.123 498.886 777.105 497.25C778.018 495.754 779.567 495.092 781.045 494.25Z"/>
	<path fill="#FFF384" transform="scale(0.488281 0.488281)" d="M592.966 613.75L594.011 614.023L594.097 619.8L589.844 622.25L589.146 621.977L589.106 616.73C589.948 615.379 591.622 614.597 592.966 613.75Z"/>
	<path fill="#FFF384" transform="scale(0.488281 0.488281)" d="M549.658 639.75L550.884 639.75L550.96 645.338L547.351 648.25L546.506 648.513L545.999 648L546.075 642.75C547.104 641.406 548.245 640.663 549.658 639.75Z"/>
	<path fill="#FFF384" transform="scale(0.488281 0.488281)" d="M761.422 506.75C762.184 506.815 761.777 506.7 762.59 507.25L762.539 512C761.686 513.516 760.129 514.439 758.75 515.445C758.116 515.25 758.512 515.415 757.668 514.75L757.531 509.667C758.658 508.484 760.069 507.658 761.422 506.75Z"/>
	<path fill="#FFF384" transform="scale(0.488281 0.488281)" d="M635.365 586.25L636.425 586.523L636.504 592.122L632.75 594.855C632.251 594.747 631.942 594.516 631.513 594.25L631.521 589.25C632.513 587.857 633.938 587.129 635.365 586.25Z"/>
	<path fill="#FFF384" transform="scale(0.488281 0.488281)" d="M741.362 518.75C742.24 518.649 741.753 518.61 742.796 519.059L742.981 524.47L739.25 526.85L738.394 526.806C737.418 525.853 737.613 523.047 737.517 521.61C738.548 520.398 740.038 519.609 741.362 518.75Z"/>
	<path fill="#FFF384" transform="scale(0.488281 0.488281)" d="M801.042 481.75L801.997 482.023C802.049 483.686 802.252 485.523 801.948 487.161C801.755 488.198 798.72 489.808 797.75 490.469L796.853 489.752C796.532 488.133 796.557 486.892 796.75 485.257C797.77 483.67 799.489 482.761 801.042 481.75Z"/>
	<path fill="#FFF384" transform="scale(0.488281 0.488281)" d="M820.603 469.75C820.94 469.854 821.232 470.068 821.533 470.25L821.56 474.5C821.336 476.053 818.479 477.488 817.25 478.365L816.242 478.252C815.553 476.762 815.915 475.089 816.051 473.5C817.271 471.749 818.836 470.853 820.603 469.75Z"/>
	<path fill="#FFF384" transform="scale(0.488281 0.488281)" d="M681.134 556.25L681.811 556.75L682.03 562.452L677.75 564.947L676.606 564.669C676.546 563.332 676.266 561.45 676.617 560.165C677.128 558.296 679.585 557.069 681.134 556.25Z"/>
	<path fill="#FFF384" transform="scale(0.488281 0.488281)" d="M658.091 570.75C658.837 570.59 658.398 570.632 659.415 570.75L659.212 576.443C658.17 577.741 656.603 578.676 655.25 579.641L654.602 579.664C653.688 578.263 654.01 576.139 654.044 574.5C655.09 572.9 656.591 571.896 658.091 570.75Z"/>
	<path fill="#FFF384" transform="scale(0.488281 0.488281)" d="M527.59 653.75L528.269 653.84C528.874 655.403 528.423 657.581 528.278 659.25C527.485 660.805 525.702 661.618 524.25 662.503L523.464 662.247C522.764 660.875 523.103 658.802 523.152 657.25C524.27 655.521 525.852 654.758 527.59 653.75Z"/>
	<path fill="#FFF384" transform="scale(0.488281 0.488281)" d="M701.91 543.75L703.388 543.75L703.42 549.537L699.457 552.25L698.15 552.25C698.036 550.507 697.881 548.728 698.338 547.02C698.801 545.288 700.472 544.579 701.91 543.75Z"/>
	<path fill="#FEFDF5" transform="scale(0.488281 0.488281)" d="M398.986 730.25L400.504 730.071L401.564 730.985C401.929 731.775 402.244 732.431 402.245 733.318C402.247 736.974 400.929 740.166 398.389 742.75C397.538 743.044 397.131 743.005 396.25 742.949C395.32 741.829 394.884 740.884 394.83 739.402C394.694 735.7 396.544 732.873 398.986 730.25Z"/>
	<path fill="#FFF384" transform="scale(0.488281 0.488281)" d="M360.21 750.25L362 749.967C363.511 750.726 363.973 751.113 364.825 752.573C365.008 754.301 365.125 755.825 364.573 757.5C363.694 760.169 361.717 762.141 359.25 763.38C357.508 763.535 356.454 763.923 354.904 763.056C354.184 761.419 353.928 760.104 354.314 758.323C355.119 754.611 357.087 752.29 360.21 750.25Z"/>
	<path fill="#8E1A2A" transform="scale(0.488281 0.488281)" d="M420.49 670.934C423.818 669.874 427.506 667.116 430.526 665.296L430.113 682.039C430.069 683.922 429.611 686.743 430.438 688.384L423.46 693.422C421.692 687.942 418.466 681.397 418.634 675.654C419.39 673.733 419.002 672.485 420.49 670.934Z"/>
	<path fill="#E63E2B" transform="scale(0.488281 0.488281)" d="M430.746 665.078L917.069 360.132L914.233 375.515C913.592 378.378 913.023 381.639 911.802 384.317L430.438 688.384C429.611 686.743 430.069 683.922 430.113 682.039L430.526 665.296L430.746 665.078Z"/>
	<path fill="#FDF8DF" transform="scale(0.488281 0.488281)" d="M828.815 301.748L928.498 294.552L917.069 360.132L430.746 665.078L430.904 642.266L431.833 581.984L432.039 564.404C432.075 561.167 431.861 557.743 432.538 554.573C434.856 554.141 437.325 552.789 439.492 551.841C445.645 549.147 451.49 545.94 457.413 542.791L478.826 531.853L538.896 495.747L684.367 408.342L765.987 358.265L832.424 317.387L832.94 316.081C830.474 313.926 830.312 309.659 829.713 306.511L828.815 301.748Z"/>
	<path fill="#FEFDF5" transform="scale(0.488281 0.488281)" d="M663.496 441.456C664.281 440.939 664.858 440.543 665.76 440.25L665.785 464.484C664.989 465.046 664.373 465.318 663.477 465.672L663.496 441.456Z"/>
	<path fill="#FEFDF5" transform="scale(0.488281 0.488281)" d="M594.052 483.792L596.261 482.75L596.25 506.802C595.45 507.129 594.542 507.41 593.805 507.857L594.052 483.792Z"/>
	<path fill="#FEFDF5" transform="scale(0.488281 0.488281)" d="M616.905 469.542L618.881 468.337L619.27 468.5C619.276 475.213 618.434 483.182 619.577 489.731L619.759 492.999L616.843 494.586L616.905 469.542Z"/>
	<path fill="#FEFDF5" transform="scale(0.488281 0.488281)" d="M500.988 538.843L503.25 537.291L503.769 537.547L503.75 563.755C502.788 564.504 502.129 564.799 500.947 565.095L500.988 538.843Z"/>
	<path fill="#332245" transform="scale(0.488281 0.488281)" d="M821.619 347.265L821.947 343.5C826.6 339.623 832.765 336.656 837.877 333.305L837.684 357.437C834.561 359.733 831.271 361.724 827.97 363.75C826.197 364.838 824.179 366.399 822.14 366.83L821.687 365.615C822.402 360.157 822.42 352.707 821.619 347.265Z"/>
	<path fill="#E9672E" transform="scale(0.488281 0.488281)" d="M832.94 316.081C837.439 316.691 841.843 318.571 846.109 320.086L865.944 326.957L885.882 334.65C889.123 335.874 892.57 336.733 895.63 338.37C896.041 339.68 895.849 340.135 895.557 341.5C894.473 342.737 893.541 343.26 892.055 343.944L845.936 327.111C843.334 326.091 837.962 324.868 836.041 323.181C834.345 321.692 834.583 318.729 832.424 317.387L832.94 316.081Z"/>
	<path fill="#332245" transform="scale(0.488281 0.488281)" d="M711.216 412.378C711.926 411.068 713.316 410.44 714.539 409.666L724.665 403.471C726.087 402.627 728.129 401.074 729.699 400.601L730.272 400.577L730.386 418.072C730.397 419.925 730.823 423.08 730.089 424.725L716.861 433.021C715.362 433.968 713.188 435.762 711.437 435.987L711.216 412.378Z"/>
	<path fill="#332245" transform="scale(0.488281 0.488281)" d="M780.153 369.367C783.08 367.349 786.234 365.778 789.25 363.909C792.134 362.123 794.735 359.746 797.952 358.605L797.972 381.513C794.223 384.601 789.703 387.011 785.604 389.64C783.995 390.672 781.868 392.45 780.052 392.926C779.16 393.777 778.978 393.774 777.75 393.998L777.471 380.868L777.41 380.279C776.731 378.131 777.373 373.54 777.385 371.135C778.214 370.919 779.405 369.866 780.153 369.367Z"/>
	<path fill="#FEFDF5" transform="scale(0.488281 0.488281)" d="M780.153 369.367L780.052 392.926C779.16 393.777 778.978 393.774 777.75 393.998L777.471 380.868L777.41 380.279C776.731 378.131 777.373 373.54 777.385 371.135C778.214 370.919 779.405 369.866 780.153 369.367Z"/>
	<path fill="#332245" transform="scale(0.488281 0.488281)" d="M777.41 380.279C776.851 385.094 777.198 390.316 777.149 395.183L757.476 407.757L757.656 383.172L777.385 371.135C777.373 373.54 776.731 378.131 777.41 380.279Z"/>
	<path fill="#332245" transform="scale(0.488281 0.488281)" d="M686.373 451.603C685.328 453.627 669.366 462.642 666.385 464.442L666.322 439.272L678.988 431.621C681.144 430.276 683.534 428.234 686.001 427.634L686.373 451.603Z"/>
	<path fill="#332245" transform="scale(0.488281 0.488281)" d="M616.843 494.586C615.245 496.21 612.559 497.406 610.558 498.593L596.898 506.778L596.969 481.846C603.029 477.718 610.225 472.51 616.905 469.542L616.843 494.586Z"/>
	<path fill="#332245" transform="scale(0.488281 0.488281)" d="M573.958 495.967C575.52 493.7 590.881 484.641 594.052 483.792L593.805 507.857C592.894 510.634 584.594 514.577 581.879 516.25C579.931 517.45 578.019 518.856 576 519.922C575.421 520.228 574.871 520.403 574.25 520.6L573.761 518.609C574.73 511.416 573.976 503.268 573.958 495.967Z"/>
	<path fill="#332245" transform="scale(0.488281 0.488281)" d="M643.223 454.415L643.549 453.25L654.993 446.224C657.737 444.552 660.479 442.566 663.496 441.456L663.477 465.672C659.718 469.146 654.015 471.939 649.626 474.748C647.733 475.959 645.218 477.992 643.057 478.569L643.223 454.415Z"/>
	<path fill="#332245" transform="scale(0.488281 0.488281)" d="M524.265 546.709L524.159 550.25C524.136 550.379 523.915 551.062 523.75 551.22C522.472 552.444 520.03 553.469 518.442 554.446L504.319 563.157L504.373 536.971L524.319 524.95C524.256 532.026 523.564 539.702 524.265 546.709Z"/>
	<path fill="#332245" transform="scale(0.488281 0.488281)" d="M500.947 565.095L481.064 577.683L481.143 551.519C483.073 549.607 486.174 548.178 488.536 546.753L500.988 538.843L500.947 565.095Z"/>
	<path fill="#332245" transform="scale(0.488281 0.488281)" d="M753.73 385.25L754.56 385.523L754.797 409.275L734.75 421.681C733.977 421.942 734.386 421.904 733.52 421.75L733.508 397.526L753.73 385.25Z"/>
	<path fill="#332245" transform="scale(0.488281 0.488281)" d="M818.792 346.376L818.907 346.367C819.009 345.444 819.069 345.054 819.655 344.29C820.238 343.53 820.384 343.718 821.259 343.611L821.619 347.265C822.42 352.707 822.402 360.157 821.687 365.615L821.335 366.5L821.124 367.666L818.859 368.424C817.671 370.096 815.221 371.196 813.486 372.265C809.174 374.921 804.658 377.414 800.531 380.343L797.972 381.513L797.952 358.605C798.782 357.892 799.523 357.499 800.522 357.058C801.919 355.383 804.314 354.243 806.156 353.099L818.116 345.681L818.792 346.376Z"/>
	<path fill="#FEFDF5" transform="scale(0.488281 0.488281)" d="M797.952 358.605C798.782 357.892 799.523 357.499 800.522 357.058L800.531 380.343L797.972 381.513L797.952 358.605Z"/>
	<path fill="#FEFDF5" transform="scale(0.488281 0.488281)" d="M818.792 346.376L818.907 346.367C819.009 345.444 819.069 345.054 819.655 344.29C820.238 343.53 820.384 343.718 821.259 343.611L821.619 347.265C822.42 352.707 822.402 360.157 821.687 365.615L821.335 366.5L821.124 367.666L818.859 368.424L818.792 346.376Z"/>
	<path fill="#332245" transform="scale(0.488281 0.488281)" d="M640.394 455.209L642.245 453.947L643.223 454.415L643.057 478.569C642.199 479.269 641.462 479.634 640.434 480.038C634.381 484.928 626.4 488.882 619.759 492.999L619.577 489.731C620.64 482.82 619.869 474.667 619.918 467.613L640.394 455.209Z"/>
	<path fill="#FEFDF5" transform="scale(0.488281 0.488281)" d="M640.394 455.209L642.245 453.947L643.223 454.415L643.057 478.569C642.199 479.269 641.462 479.634 640.434 480.038L640.394 455.209Z"/>
	<path fill="#332245" transform="scale(0.488281 0.488281)" d="M570.839 496.943L573 495.611L573.958 495.967C573.976 503.268 574.73 511.416 573.761 518.609L573.601 519.086C573.388 519.845 573.429 520.474 573.465 521.25C572.615 521.798 571.787 522.261 570.872 522.692C566.957 525.792 561.926 528.18 557.65 530.836C555.649 532.08 552.671 534.571 550.384 534.941L550.447 509.387L570.839 496.943Z"/>
	<path fill="#FEFDF5" transform="scale(0.488281 0.488281)" d="M570.839 496.943L573 495.611L573.958 495.967C573.976 503.268 574.73 511.416 573.761 518.609L573.601 519.086C573.388 519.845 573.429 520.474 573.465 521.25C572.615 521.798 571.787 522.261 570.872 522.692L570.839 496.943Z"/>
	<path fill="#332245" transform="scale(0.488281 0.488281)" d="M711.216 412.378L711.437 435.987C710.523 436.948 710.117 436.9 708.922 437.334L708.531 437.52C707.696 439.54 691.932 448.766 689.021 450.535C688.196 450.831 687.063 451.078 686.373 451.603L686.001 427.634C686.404 427.683 688.248 426.226 688.706 425.916L688.903 425.366L700.947 417.924C703.395 416.436 705.863 414.65 708.575 413.724C709.109 413.75 710.666 412.677 711.216 412.378Z"/>
	<path fill="#FEFDF5" transform="scale(0.488281 0.488281)" d="M688.706 425.916L689.021 450.535C688.196 450.831 687.063 451.078 686.373 451.603L686.001 427.634C686.404 427.683 688.248 426.226 688.706 425.916Z"/>
	<path fill="#FEFDF5" transform="scale(0.488281 0.488281)" d="M711.216 412.378L711.437 435.987C710.523 436.948 710.117 436.9 708.922 437.334L708.531 437.52L708.575 413.724C709.109 413.75 710.666 412.677 711.216 412.378Z"/>
	<path fill="#332245" transform="scale(0.488281 0.488281)" d="M547.472 511.437C548.305 510.609 549.456 510.019 550.447 509.387L550.384 534.941C549.673 535.989 548.522 536.464 547.439 537.057L532.68 545.96C531.194 546.832 529.136 548.402 527.398 548.547C527.109 548.5 526.691 549.551 526.448 549.709C526.033 549.977 525.483 549.922 525 550.028C524.483 549.031 524.436 547.816 524.265 546.709C523.564 539.702 524.256 532.026 524.319 524.95L527.524 523.363C533.924 519.528 540.654 514.311 547.472 511.437Z"/>
	<path fill="#FEFDF5" transform="scale(0.488281 0.488281)" d="M547.472 511.437C548.305 510.609 549.456 510.019 550.447 509.387L550.384 534.941C549.673 535.989 548.522 536.464 547.439 537.057L547.472 511.437Z"/>
	<path fill="#FEFDF5" transform="scale(0.488281 0.488281)" d="M524.319 524.95L527.524 523.363L527.398 548.547C527.109 548.5 526.691 549.551 526.448 549.709C526.033 549.977 525.483 549.922 525 550.028C524.483 549.031 524.436 547.816 524.265 546.709C523.564 539.702 524.256 532.026 524.319 524.95Z"/>
	<path fill="#FDA94D" transform="scale(0.488281 0.488281)" d="M845.936 327.111L892.055 343.944L845.772 374.292L845.936 327.111Z"/>
	<path fill="#BAB9B9" transform="scale(0.488281 0.488281)" d="M829.713 306.511L890.308 301.99C900.311 301.486 910.679 300.713 920.684 301.127L900.513 310.564L874.284 322.636C871.598 323.937 868.245 325.06 865.944 326.957L846.109 320.086C841.843 318.571 837.439 316.691 832.94 316.081C830.474 313.926 830.312 309.659 829.713 306.511Z"/>
</svg>
