<?xml version="1.0" encoding="utf-8" ?>
<svg xmlns="http://www.w3.org/2000/svg" xmlns:xlink="http://www.w3.org/1999/xlink" width="500" height="500">
	<path fill="#F9FBEE" transform="scale(0.488281 0.488281)" d="M-0 -0L1024 0L1024 1024L-0 1024L0 -0Z"/>
	<path fill="#0F203D" transform="scale(0.488281 0.488281)" d="M619.731 103.368L742 150.408L785.828 167.331C790.19 169.044 796.859 170.753 800.703 173.345C803.06 174.935 804.894 178.102 806.557 180.392L816.369 194.099L836.175 221.636L910.957 325.5L939.316 364.835L957.695 390.582L806.69 521.388C804.087 519.222 801.867 515.645 799.732 512.991L787.989 498.794L740.992 443.361L750.522 919.71L373.75 919.583L274.913 919.891L285.003 443.01C277.465 453.227 268.02 462.558 259.503 471.979L231.443 502.276L214.093 521.184L67.1667 390.393L224.664 171.875L376 114.576L398.585 106.21C399.538 105.867 403.88 103.928 404.696 104.063C406.051 104.286 410.137 107.676 411.558 108.553C416.15 111.389 420.885 114.039 425.761 116.358C447.803 126.839 470.86 132.133 495.047 134.463C530.774 137.905 569.331 131.048 601.307 114.666C607.752 111.364 614.12 107.989 619.731 103.368Z"/>
	<path fill="#F59015" transform="scale(0.488281 0.488281)" d="M203.041 443.804L203.422 443.765L229.655 465.967C232.214 468.063 235.132 471.112 237.967 472.725L214.024 499.87C211.728 499.243 181.165 470.486 176.996 466.746C179.353 465.368 181.331 462.825 183.395 461.01C189.951 455.246 196.766 449.891 203.041 443.804Z"/>
	<path fill="#F59015" transform="scale(0.488281 0.488281)" d="M820.555 442.121C821.016 443.181 821.32 443.516 822.276 444.141C824.997 445.919 827.518 448.3 830.106 450.297C836.307 455.084 842.845 459.959 849.607 463.913L822.453 487.174C817.986 490.996 813.413 495.516 808.5 498.727L785.039 471.662C787.882 468.673 791.323 466.157 794.5 463.529C802.848 456.623 811.948 449.869 819.772 442.422L820.555 442.121Z"/>
	<path fill="#F59015" transform="scale(0.488281 0.488281)" d="M644.037 868.988L733.97 869.104L734.354 904.15L645.892 903.976L644.037 868.988Z"/>
	<path fill="#F9B428" transform="scale(0.488281 0.488281)" d="M106.587 361.564L203.041 443.804C196.766 449.891 189.951 455.246 183.395 461.01C181.331 462.825 179.353 465.368 176.996 466.746L87.2737 387.61L106.587 361.564Z"/>
	<path fill="#F9B428" transform="scale(0.488281 0.488281)" d="M917.204 360.204L937.243 388.007L849.607 463.913C842.845 459.959 836.307 455.084 830.106 450.297C827.518 448.3 824.997 445.919 822.276 444.141C821.32 443.516 821.016 443.181 820.555 442.121L917.204 360.204Z"/>
	<path fill="#F9B428" transform="scale(0.488281 0.488281)" d="M290.193 869.018L644.037 868.988L645.892 903.976L290.01 903.984L290.193 869.018Z"/>
	<path fill="#39802F" transform="scale(0.488281 0.488281)" d="M644.037 868.988C640.885 767.897 646.972 665.267 670.26 566.634C677.686 535.182 686.404 504.45 697.772 474.177C705.797 452.807 714.258 429.87 726.508 410.531L733.97 869.104L644.037 868.988Z"/>
	<path fill="#DB1F13" transform="scale(0.488281 0.488281)" d="M789.98 184.773C796.57 190.727 801.795 199.281 806.977 206.5L828.018 235.729L917.204 360.204L820.555 442.121L819.772 442.422C811.948 449.869 802.848 456.623 794.5 463.529C791.323 466.157 787.882 468.673 785.039 471.662L726.527 404.266C725.912 395.252 726.207 386.111 726.343 377.083C726.891 340.71 731.122 305.197 741.89 270.368C752.209 238.797 768.241 209.871 789.98 184.773Z"/>
	<path fill="#A70B08" transform="scale(0.488281 0.488281)" d="M726.527 404.266C725.912 395.252 726.207 386.111 726.343 377.083C726.891 340.71 731.122 305.197 741.89 270.368C742.61 290.023 744.345 310.107 748.75 329.312C755.549 358.956 768.893 386.384 787.94 410.091C795.896 419.992 805.033 428.92 814.316 437.558L819.772 442.422C811.948 449.869 802.848 456.623 794.5 463.529C791.323 466.157 787.882 468.673 785.039 471.662L726.527 404.266Z"/>
	<path fill="#DB1F13" transform="scale(0.488281 0.488281)" d="M234.626 184.395C252.738 205.282 265.798 232.752 275.438 258.503C276.875 262.34 279.273 267.277 279.956 271.277C286.951 289.702 291.275 309.108 294.527 328.5C296.732 341.653 298.72 354.957 299.52 368.282L300.004 400.571L237.967 472.725C235.132 471.112 232.214 468.063 229.655 465.967L203.422 443.765L203.041 443.804L106.587 361.564L145.729 307.03L196.079 237.216L220.698 202.697L228.76 191.428C230.553 188.959 232.222 186.306 234.626 184.395Z"/>
	<path fill="#A70B08" transform="scale(0.488281 0.488281)" d="M279.956 271.277C286.951 289.702 291.275 309.108 294.527 328.5C296.732 341.653 298.72 354.957 299.52 368.282L300.004 400.571L237.967 472.725C235.132 471.112 232.214 468.063 229.655 465.967L203.422 443.765C205.827 439.922 210.604 436.143 213.746 432.712L236.248 406.583C258.12 378.684 274.963 344.234 278.279 308.606L279.832 280.755C279.936 277.721 279.427 274.862 279.869 271.824L279.956 271.277Z"/>
	<path fill="#509C3C" transform="scale(0.488281 0.488281)" d="M617.937 121.278L619.25 119.805C627.054 122.307 634.387 126.782 642.452 128.492L665.446 137.124L789.98 184.773C768.241 209.871 752.209 238.797 741.89 270.368C731.122 305.197 726.891 340.71 726.343 377.083C726.207 386.111 725.912 395.252 726.527 404.266L726.508 410.531C714.258 429.87 705.797 452.807 697.772 474.177C686.404 504.45 677.686 535.182 670.26 566.634C646.972 665.267 640.885 767.897 644.037 868.988L290.193 869.018C290.891 863.195 290.448 856.832 290.545 850.93L291.223 812.356L293.59 688.841L298.717 491.568L300.004 400.571L299.52 368.282C298.72 354.957 296.732 341.653 294.527 328.5C291.275 309.108 286.951 289.702 279.956 271.277C279.273 267.277 276.875 262.34 275.438 258.503C265.798 232.752 252.738 205.282 234.626 184.395C239.097 182.052 244.115 180.398 248.834 178.626L271.088 170.231L360.009 136.244L382.826 127.757L405.508 119.92L408.231 122.915C422.396 129.729 436.463 136.428 451.643 140.75C494.03 152.818 543.176 151.463 584.777 136.749C596.253 132.69 607.308 127.173 617.937 121.278Z"/>
	<path fill="#F9FBEE" transform="scale(0.488281 0.488281)" d="M617.937 121.278L619.25 119.805C627.054 122.307 634.387 126.782 642.452 128.492L665.446 137.124C663.177 146.576 657.599 157.242 652.937 165.832C639.97 189.726 622.561 210.434 601.627 227.75C584.891 241.594 568.352 251.863 547.325 258.02C515.995 267.192 478.527 262.724 450 247.034C408.399 224.153 373.14 182.168 360.009 136.244L382.826 127.757L405.508 119.92L408.231 122.915C422.396 129.729 436.463 136.428 451.643 140.75C494.03 152.818 543.176 151.463 584.777 136.749C596.253 132.69 607.308 127.173 617.937 121.278Z"/>
	<path fill="#F9B428" transform="scale(0.488281 0.488281)" d="M617.937 121.278L619.25 119.805C627.054 122.307 634.387 126.782 642.452 128.492C640.338 136.657 636.741 144.644 632.811 152.079C613.817 188.013 580.279 222.88 540.635 234.957C514.436 242.938 487.907 239.489 463.845 226.645C425.13 205.979 395.547 169.663 382.826 127.757L405.508 119.92L408.231 122.915C410.779 130.377 413.796 137.476 417.63 144.382C433.727 173.373 459.531 200.367 492.32 209.656C514.011 215.801 534.1 211.849 553.499 200.859C577.737 187.128 599.314 162.086 611.383 137.197C613.831 132.15 616.429 126.687 617.937 121.278Z"/>
	<path fill="#A70B08" transform="scale(0.488281 0.488281)" d="M408.231 122.915C422.396 129.729 436.463 136.428 451.643 140.75C494.03 152.818 543.176 151.463 584.777 136.749C596.253 132.69 607.308 127.173 617.937 121.278C616.429 126.687 613.831 132.15 611.383 137.197C599.314 162.086 577.737 187.128 553.499 200.859C534.1 211.849 514.011 215.801 492.32 209.656C459.531 200.367 433.727 173.373 417.63 144.382C413.796 137.476 410.779 130.377 408.231 122.915Z"/>
</svg>
