<?xml version="1.0" encoding="utf-8" ?>
<svg xmlns="http://www.w3.org/2000/svg" xmlns:xlink="http://www.w3.org/1999/xlink" width="500" height="500">
	<path fill="#95A992" transform="scale(0.488281 0.488281)" d="M-0 -0L1024 0L1024 1024L-0 1024L0 -0Z"/>
	<path fill="#F77916" transform="scale(0.488281 0.488281)" d="M291.961 301.012L291.854 307.647C289.632 308.548 288.824 310.978 287.918 313.101C287.181 314.826 286.307 316.645 285.993 318.5C285.593 320.857 285.858 323.216 284.881 325.445L283.321 323.971C283.816 319.719 285.136 315.551 286.476 311.5C287.712 307.761 289.554 304.135 291.961 301.012Z"/>
	<path fill="#F05A15" transform="scale(0.488281 0.488281)" d="M281.856 343.034L284.584 346.938L278.857 366.682L277.976 365.939C277.734 363.484 278.529 360.903 278.995 358.5L281.856 343.034Z"/>
	<path fill="#F0A549" transform="scale(0.488281 0.488281)" d="M257.515 412.612L262.073 418.05L259.413 423.239C258.786 422.01 258.139 420.826 257.75 419.496L256.998 419.497C256.395 420.219 255.954 420.945 255.479 421.753L249.69 431.266C248.45 433.184 248.278 434.478 246.281 435.847L245.822 434.549C250.052 428.096 255.4 420.004 257.515 412.612Z"/>
	<path fill="#FCC153" transform="scale(0.488281 0.488281)" d="M246.281 435.847C248.278 434.478 248.45 433.184 249.69 431.266L255.479 421.753C255.954 420.945 256.395 420.219 256.998 419.497L257.75 419.496C258.139 420.826 258.786 422.01 259.413 423.239L249.206 440.321L246.281 435.847Z"/>
	<path fill="#F0A549" transform="scale(0.488281 0.488281)" d="M813.023 539.301C816.834 543.999 820.933 548.055 825.383 552.144L818.873 554.539L808.788 545.119L813.023 539.301Z"/>
	<path fill="#FCC153" transform="scale(0.488281 0.488281)" d="M208.276 481.009L211.59 485.818C206.569 490.496 201.74 495.874 196.273 499.975L189.733 499.575L208.276 481.009Z"/>
	<path fill="#F0A549" transform="scale(0.488281 0.488281)" d="M264.497 400.881C265.143 397.983 266.568 394.993 267.627 392.223L272.29 379.623C273.76 381.197 275.149 382.722 276.402 384.482C274.871 391.504 272.502 398.98 269.043 405.305L264.497 400.881Z"/>
	<path fill="#F77916" transform="scale(0.488281 0.488281)" d="M746.907 412.067L750.475 430.897L744.273 439.049C744.015 433.791 741.588 426.347 739.398 421.538L746.907 412.067Z"/>
	<path fill="#F77916" transform="scale(0.488281 0.488281)" d="M766.948 479.736C770.196 487.623 773.8 494.499 778.894 501.394L774.025 506.602L761.8 485.632L766.948 479.736Z"/>
	<path fill="#F77916" transform="scale(0.488281 0.488281)" d="M754.164 445.347L761.628 467.821L756.746 473.295L751.384 460.165C750.406 457.616 749.732 455.014 748.418 452.607L754.164 445.347Z"/>
	<path fill="#F9E7BB" transform="scale(0.488281 0.488281)" d="M778.894 501.394C780.408 500.7 781.766 500.113 783.434 500.665C785.098 501.216 786.309 502.449 787.072 504C787.86 505.601 787.799 507.853 787.49 509.571L784.423 513.585L775.623 523.469L774.967 523.952C771.965 522.742 768.742 518.924 766.446 516.554L766.463 516.125L774.025 506.602L778.894 501.394Z"/>
	<path fill="#F77916" transform="scale(0.488281 0.488281)" d="M179.721 508.264C180.995 509.665 181.948 510.749 183.702 511.517L144.266 549.917L142.403 548.716L141.691 548.487C141.069 547.418 140.651 546.762 140.548 545.5C142.065 542.773 145.015 540.292 147.219 538.083L165.746 520.804C170.475 516.686 175.578 512.999 179.721 508.264Z"/>
	<path fill="#93042E" transform="scale(0.488281 0.488281)" d="M761.8 485.632L774.025 506.602L766.463 516.125C763.609 513.411 761.355 509.211 758.969 505.98C756.72 502.308 754.206 498.504 752.52 494.546L761.8 485.632Z"/>
	<path fill="#F9E7BB" transform="scale(0.488281 0.488281)" d="M761.628 467.821C763.066 467.153 763.859 466.853 765.5 467.051C767.273 468.369 768.691 469.795 769.11 472.056C769.712 475.314 768.601 477.025 766.948 479.736L761.8 485.632L752.52 494.546L751.108 495.26C749.972 494.82 749.279 494.028 748.679 492.991L748.263 492.25L747.615 492.005L746.75 491.667C745.753 491.293 745.158 491.169 744.46 490.318L742.069 487.66C743.396 486.494 744.74 485.452 745.64 483.905L756.746 473.295L761.628 467.821Z"/>
	<path fill="#93042E" transform="scale(0.488281 0.488281)" d="M787.49 509.571C789.788 512.086 791.644 514.935 793.766 517.593C797.312 522.034 801.025 526.067 803.359 531.322C802.588 532.722 801.88 534.139 800.85 535.37C798.012 538.791 794.618 542.382 792.277 546.139L790.944 545.439L783.015 534.34L775.623 523.469L784.423 513.585L787.49 509.571Z"/>
	<path fill="#F77916" transform="scale(0.488281 0.488281)" d="M787.49 509.571C789.788 512.086 791.644 514.935 793.766 517.593C797.312 522.034 801.025 526.067 803.359 531.322C802.588 532.722 801.88 534.139 800.85 535.37C793.921 529.099 790.345 520.496 784.423 513.585L787.49 509.571Z"/>
	<path fill="#F0A549" transform="scale(0.488281 0.488281)" d="M311.498 220.601C317.007 220.967 322.729 222.518 328.029 224.013C346.058 229.098 363.006 238.3 379.463 247.094C389.459 252.435 400.043 257.941 409.254 264.529C406.181 266 401.32 266.379 398.839 268.282C393.014 265.829 388.795 262.889 382.323 261.813L359.586 255.825L359.884 254.987C359.175 253.825 356.851 253.287 355.548 252.751C351.762 251.192 348.096 249.421 344.5 247.464C336.511 243.116 329.194 238.101 322.145 232.37C319.938 230.244 315.082 223.343 312.69 222.676L311.498 220.601Z"/>
	<path fill="#F77916" transform="scale(0.488281 0.488281)" d="M640.26 335.78C658.974 326.902 676.952 316.153 696.367 308.827C701.999 306.702 708.368 304.113 714.483 304.498C714.946 304.749 715.502 304.876 715.874 305.25C716.418 305.797 717.161 308.168 717.497 309C719.182 313.164 721.057 317.549 722.281 321.869L722.672 323.483C714.002 331.12 705.055 335.873 694.552 340.599C692.457 341.541 682.841 344.713 681.955 345.675L663.36 352.316C659.37 353.658 653.489 354.559 650.124 356.858L649.92 357.301L649.642 357.437C649.21 354.37 646.271 350.243 644.756 347.461L641.801 340.387L640.26 335.78Z"/>
	<path fill="#FCC153" transform="scale(0.488281 0.488281)" d="M640.26 335.78C658.974 326.902 676.952 316.153 696.367 308.827C701.999 306.702 708.368 304.113 714.483 304.498C711.756 308.202 706.436 310.548 702.494 312.804C690.231 319.824 677.502 326.28 664.435 331.674L641.801 340.387L640.26 335.78Z"/>
	<defs>
		<linearGradient id="gradient_0" gradientUnits="userSpaceOnUse" x1="713.83594" y1="487.56122" x2="734.78387" y2="425.82773">
			<stop offset="0" stop-color="#F5CF77"/>
			<stop offset="1" stop-color="#FFEDC2"/>
		</linearGradient>
	</defs>
	<path fill="url(#gradient_0)" transform="scale(0.488281 0.488281)" d="M750.475 430.897C752.748 431.262 753.717 431.591 755.091 433.645C756.36 435.543 757.302 437.931 756.808 440.245C756.472 441.816 755.445 443.225 754.622 444.576L754.164 445.347L748.418 452.607C749.732 455.014 750.406 457.616 751.384 460.165L756.746 473.295L745.64 483.905C744.74 485.452 743.396 486.494 742.069 487.66L740.632 488.725L727.372 502.027L712.863 500.846C710.409 500.698 707.728 500.326 705.298 500.594L702.337 499.927L699.541 499.948C696.9 495.61 695.947 490.181 693.094 485.969L692.789 484.57L691.929 482.097C692.883 481.619 692.886 481.728 693.51 480.75C692.698 477.043 690.502 473.217 688.904 469.778L712.838 472.985L728.31 456.014C729.209 455.365 729.952 454.407 730.709 453.595L736.168 448.585C739.181 445.758 741.762 442.319 744.273 439.049L750.475 430.897Z"/>
	<path fill="#F77916" transform="scale(0.488281 0.488281)" d="M736.847 464.023L743.104 478.68L726.085 475.545C729.147 471.276 733.247 467.847 736.847 464.023Z"/>
	<path fill="#93042E" transform="scale(0.488281 0.488281)" d="M748.418 452.607C749.732 455.014 750.406 457.616 751.384 460.165L756.746 473.295L745.64 483.905L743.104 478.68L736.847 464.023L748.418 452.607Z"/>
	<path fill="#F77916" transform="scale(0.488281 0.488281)" d="M692.789 484.57C693.333 483.791 693.66 483.008 694.059 482.146L695.494 482.405C699.126 482.942 703.063 483.272 706.588 484.313C708.114 484.507 709.621 484.656 711.108 485.053C711.902 485.265 712.316 485.172 713.098 484.984L713.42 485.136L740.632 488.725L727.372 502.027L712.863 500.846C710.409 500.698 707.728 500.326 705.298 500.594L702.337 499.927L699.541 499.948C696.9 495.61 695.947 490.181 693.094 485.969L692.789 484.57Z"/>
	<path fill="#FCC153" transform="scale(0.488281 0.488281)" d="M692.789 484.57C693.333 483.791 693.66 483.008 694.059 482.146L695.494 482.405C699.126 482.942 703.063 483.272 706.588 484.313C708.114 484.507 709.621 484.656 711.108 485.053C711.902 485.265 712.316 485.172 713.098 484.984L713.42 485.136C708.677 486.314 703.45 491.454 699.219 494.144C700.358 496.035 701.527 497.865 702.337 499.927L699.541 499.948C696.9 495.61 695.947 490.181 693.094 485.969L692.789 484.57Z"/>
	<path fill="#F05A15" transform="scale(0.488281 0.488281)" d="M695.494 482.405C699.126 482.942 703.063 483.272 706.588 484.313L698.536 490.975L698.061 490.765L694.648 483.037L695.494 482.405Z"/>
	<defs>
		<linearGradient id="gradient_1" gradientUnits="userSpaceOnUse" x1="698.60468" y1="470.54507" x2="709.16492" y2="391.22885">
			<stop offset="0" stop-color="#F7C967"/>
			<stop offset="1" stop-color="#FFF7CF"/>
		</linearGradient>
	</defs>
	<path fill="url(#gradient_1)" transform="scale(0.488281 0.488281)" d="M745.061 395.857C747.716 399.75 749.789 403.645 748.694 408.558C748.379 409.97 747.857 410.968 746.907 412.067L739.398 421.538C741.588 426.347 744.015 433.791 744.273 439.049C741.762 442.319 739.181 445.758 736.168 448.585L730.709 453.595C729.952 454.407 729.209 455.365 728.31 456.014L712.838 472.985L688.904 469.778L688.34 469.409L685.887 468.95L686.563 468.69C688.268 468.121 688.937 466.331 690.171 465.172C690.974 464.419 692.77 463.769 693.767 463.221C691.726 462.068 689.5 461.522 687.498 460.25C686.892 459.398 686.673 458.855 686.585 457.827L686.514 456.841C684.02 451.794 683.361 444.693 682.243 439.162L680.975 438.99C676.347 436.945 670.385 435.91 665.491 434.342C665.779 430.469 665.905 426.429 664.106 422.908L663.777 422.478L664.529 421.497C666.101 417.407 669.233 414.304 670.542 409.879C670.456 409.202 671.151 408.229 671.463 407.603C672.574 413.301 673.537 419.06 676.237 424.255L678.361 425.336C684.554 426.361 691.126 429.153 697.089 431.194L710.995 435.946L720.615 426.492L726.672 420.759L727.631 419.426L735.201 410.826L745.061 395.857Z"/>
	<path fill="#CC380B" transform="scale(0.488281 0.488281)" d="M727.26 435.819L727.616 442.856L722.631 440.998C722.674 439.952 726.345 436.762 727.26 435.819Z"/>
	<path fill="#F77916" transform="scale(0.488281 0.488281)" d="M691.9 442.019L701.386 444.419C698.442 446.925 695.463 449.854 692.157 451.845L691.9 442.019Z"/>
	<path fill="#CC380B" transform="scale(0.488281 0.488281)" d="M670.542 409.879C671.53 414.777 672.759 419.613 674.665 424.244C671.396 423.425 667.623 422.809 664.529 421.497C666.101 417.407 669.233 414.304 670.542 409.879Z"/>
	<path fill="#CC380B" transform="scale(0.488281 0.488281)" d="M682.243 439.162L691.9 442.019L692.157 451.845L686.514 456.841C684.02 451.794 683.361 444.693 682.243 439.162Z"/>
	<path fill="#93042E" transform="scale(0.488281 0.488281)" d="M739.398 421.538C741.588 426.347 744.015 433.791 744.273 439.049C741.762 442.319 739.181 445.758 736.168 448.585L730.709 453.595L727.616 442.856L727.26 435.819C728.157 433.269 731.904 430.487 733.619 428.18L735.655 426.203L739.398 421.538Z"/>
	<path fill="#F77916" transform="scale(0.488281 0.488281)" d="M688.34 469.409C689.28 467.163 691.858 465.749 694 464.862C701.648 461.696 708.127 455.002 714.395 449.652L728.31 456.014L712.838 472.985L688.904 469.778L688.34 469.409Z"/>
	<path fill="#93042E" transform="scale(0.488281 0.488281)" d="M681.955 345.675C682.841 344.713 692.457 341.541 694.552 340.599C705.055 335.873 714.002 331.12 722.672 323.483L737.439 372.462C738.741 373.495 740.4 374.66 741.327 376.048C742.503 377.81 742.757 380.49 743.1 382.564L745.061 395.857L735.201 410.826L727.631 419.426L726.672 420.759L720.615 426.492L710.995 435.946L697.089 431.194C691.126 429.153 684.554 426.361 678.361 425.336L676.237 424.255C673.537 419.06 672.574 413.301 671.463 407.603C671.106 404.54 670.643 401.354 669.694 398.413C668.381 394.338 666.556 390.721 665.692 386.475L661.747 378.141L649.92 357.301L650.124 356.858C653.489 354.559 659.37 353.658 663.36 352.316L681.955 345.675Z"/>
	<path fill="#771238" transform="scale(0.488281 0.488281)" d="M727.631 419.426L727.132 418.319C726.693 416.515 727.841 412.63 728.077 410.648C728.999 402.937 728.542 392.26 731.716 385.25L732.919 384.895L735.201 410.826L727.631 419.426Z"/>
	<path fill="#F77916" transform="scale(0.488281 0.488281)" d="M732.919 384.895L733.535 378.28C733.965 375.491 735.227 374.105 737.439 372.462C738.741 373.495 740.4 374.66 741.327 376.048C742.503 377.81 742.757 380.49 743.1 382.564L745.061 395.857L735.201 410.826L732.919 384.895Z"/>
	<path fill="#F05A15" transform="scale(0.488281 0.488281)" d="M683.055 347.014C687.151 345.694 693.285 343.153 697.266 345.291C704.847 349.36 708.589 362.298 710.734 370.141C713.885 381.662 716.214 393.756 717.863 405.585L719.543 419.5C719.733 421.599 719.5 424.722 720.615 426.492L710.995 435.946L697.089 431.194C706.53 409.834 704.994 384.143 697.072 362.523C694.954 356.744 691.853 351.239 686.004 348.581C685.218 348.224 684.478 347.893 683.739 347.44L683.055 347.014Z"/>
	<path fill="#CC380B" transform="scale(0.488281 0.488281)" d="M649.92 357.301L650.124 356.858C653.489 354.559 659.37 353.658 663.36 352.316L681.955 345.675L682.418 346.945L683.055 347.014L683.739 347.44C684.478 347.893 685.218 348.224 686.004 348.581C691.853 351.239 694.954 356.744 697.072 362.523C704.994 384.143 706.53 409.834 697.089 431.194C691.126 429.153 684.554 426.361 678.361 425.336L676.237 424.255C673.537 419.06 672.574 413.301 671.463 407.603C671.106 404.54 670.643 401.354 669.694 398.413C668.381 394.338 666.556 390.721 665.692 386.475L661.747 378.141L649.92 357.301Z"/>
	<path fill="#F77916" transform="scale(0.488281 0.488281)" d="M665.692 386.475C667.755 388.814 668.816 391.226 670.159 393.979C674.765 403.426 677.273 414.912 678.361 425.336L676.237 424.255C673.537 419.06 672.574 413.301 671.463 407.603C671.106 404.54 670.643 401.354 669.694 398.413C668.381 394.338 666.556 390.721 665.692 386.475Z"/>
	<path fill="#93042E" transform="scale(0.488281 0.488281)" d="M649.92 357.301L650.124 356.858C653.489 354.559 659.37 353.658 663.36 352.316L681.955 345.675L682.418 346.945C673.22 350.721 668.124 353.456 664.235 362.987C662.95 366.137 662.424 369.449 662.181 372.825C662.052 374.624 662.41 376.432 661.747 378.141L649.92 357.301Z"/>
	<path fill="#F05A15" transform="scale(0.488281 0.488281)" d="M296.046 244.387C296.993 238.749 298.513 233.503 301.557 228.614C303.931 224.803 307.013 221.684 311.498 220.601L312.69 222.676C315.082 223.343 319.938 230.244 322.145 232.37C329.194 238.101 336.511 243.116 344.5 247.464C348.096 249.421 351.762 251.192 355.548 252.751C356.851 253.287 359.175 253.825 359.884 254.987L359.586 255.825L382.323 261.813C388.795 262.889 393.014 265.829 398.839 268.282C399.949 268.898 401.058 269.598 402.228 270.09C405.435 273.999 409.601 277.476 411.781 282.083C413.268 285.225 413.721 288.95 414.27 292.354C414.853 295.974 415.616 299.572 415.642 303.25C415.258 303.885 415.159 304.105 414.504 304.494L414.344 304.912L396.85 307.244C381.082 310.159 364.775 311.176 354.874 325.801C349.491 333.752 345.712 344.825 344.681 354.363C341.589 354.492 338.578 355.488 335.598 356.275C327.563 358 319.869 361.086 312.193 363.955L302.906 352.034L291.505 335.651C290.604 333.724 289.379 332.901 287.702 331.702C286.214 330.638 286.203 327.153 284.881 325.445C285.858 323.216 285.593 320.857 285.993 318.5C286.307 316.645 287.181 314.826 287.918 313.101C288.824 310.978 289.632 308.548 291.854 307.647L291.961 301.012L296.046 244.387Z"/>
	<path fill="#F9D68C" transform="scale(0.488281 0.488281)" d="M312.69 222.676C315.082 223.343 319.938 230.244 322.145 232.37C329.194 238.101 336.511 243.116 344.5 247.464C348.096 249.421 351.762 251.192 355.548 252.751C356.851 253.287 359.175 253.825 359.884 254.987L359.586 255.825C343.624 251.961 328.557 246.057 318.124 232.764C315.699 229.523 314.026 226.477 312.69 222.676Z"/>
	<path fill="#93042E" transform="scale(0.488281 0.488281)" d="M296.046 244.387C302.87 245.228 308.394 246.057 312.918 251.864C319.278 260.026 316.444 275.498 315.045 285.097L305.575 338.74C304.877 342.423 304.685 348.889 302.906 352.034L291.505 335.651C290.604 333.724 289.379 332.901 287.702 331.702C286.214 330.638 286.203 327.153 284.881 325.445C285.858 323.216 285.593 320.857 285.993 318.5C286.307 316.645 287.181 314.826 287.918 313.101C288.824 310.978 289.632 308.548 291.854 307.647L291.961 301.012L296.046 244.387Z"/>
	<path fill="#F9E7BB" transform="scale(0.488281 0.488281)" d="M284.881 325.445C285.858 323.216 285.593 320.857 285.993 318.5C286.307 316.645 287.181 314.826 287.918 313.101C288.824 310.978 289.632 308.548 291.854 307.647L291.505 335.651C290.604 333.724 289.379 332.901 287.702 331.702C286.214 330.638 286.203 327.153 284.881 325.445Z"/>
	<path fill="#CC380B" transform="scale(0.488281 0.488281)" d="M382.323 261.813C388.795 262.889 393.014 265.829 398.839 268.282C399.949 268.898 401.058 269.598 402.228 270.09C405.435 273.999 409.601 277.476 411.781 282.083C413.268 285.225 413.721 288.95 414.27 292.354C414.853 295.974 415.616 299.572 415.642 303.25C415.258 303.885 415.159 304.105 414.504 304.494L414.344 304.912L396.85 307.244C381.082 310.159 364.775 311.176 354.874 325.801C349.491 333.752 345.712 344.825 344.681 354.363C341.589 354.492 338.578 355.488 335.598 356.275L341.74 327.827L346.426 303C348.007 294.81 349.292 286.427 352.842 278.801C355.135 273.874 358.828 269.639 363.891 267.486C366.283 266.469 368.852 266.009 371.281 265.105L372.042 264.817C376.146 263.465 380.077 263.411 384.349 263.473L382.323 261.813Z"/>
	<path fill="#93042E" transform="scale(0.488281 0.488281)" d="M382.323 261.813C388.795 262.889 393.014 265.829 398.839 268.282C399.949 268.898 401.058 269.598 402.228 270.09C405.435 273.999 409.601 277.476 411.781 282.083C413.268 285.225 413.721 288.95 414.27 292.354C414.853 295.974 415.616 299.572 415.642 303.25C415.258 303.885 415.159 304.105 414.504 304.494L414.344 304.912L396.85 307.244L395.868 306.73C396.262 300.66 397.197 294.285 396.246 288.235L396.121 287.5C395.753 285.196 395.325 282.94 394.488 280.75C391.769 273.635 385.527 268.518 378.291 266.463C376.441 265.938 374.258 266.055 372.568 265.166L372.042 264.817C376.146 263.465 380.077 263.411 384.349 263.473L382.323 261.813Z"/>
	<path fill="#F77916" transform="scale(0.488281 0.488281)" d="M382.323 261.813C388.795 262.889 393.014 265.829 398.839 268.282C399.949 268.898 401.058 269.598 402.228 270.09C405.435 273.999 409.601 277.476 411.781 282.083C413.268 285.225 413.721 288.95 414.27 292.354C414.853 295.974 415.616 299.572 415.642 303.25C415.258 303.885 415.159 304.105 414.504 304.494C414.187 297.111 411.758 287.703 407.999 281.357C402.768 272.527 394.253 266.019 384.349 263.473L382.323 261.813Z"/>
	<path fill="#F0A549" transform="scale(0.488281 0.488281)" d="M409.254 264.529C427.325 258.194 443.762 249.019 458.634 236.893C474.986 223.56 489.641 208.231 507.216 196.388C517.076 189.745 531.837 183.035 543.982 185.71C549.384 186.9 553.721 190.422 556.77 194.955C558.08 196.904 558.921 199.111 560.221 201.085L560.459 201.44C561.429 208.611 560.131 215.79 558.339 222.73C555.309 234.468 550.708 245.99 543.327 255.7C538.184 262.467 532.14 268.02 525.762 273.565C517.418 280.818 508.423 287.293 498.578 292.365C472.831 305.627 443.621 310.072 415.225 313.769L393.769 316.206C380.651 317.607 367.326 318.746 358.595 330.029C353.86 336.148 350.155 345.367 348.126 352.81C347.031 353.832 346.426 353.84 345.054 354.218L344.681 354.363C345.712 344.825 349.491 333.752 354.874 325.801C364.775 311.176 381.082 310.159 396.85 307.244L414.344 304.912L414.504 304.494C415.159 304.105 415.258 303.885 415.642 303.25C415.616 299.572 414.853 295.974 414.27 292.354C413.721 288.95 413.268 285.225 411.781 282.083C409.601 277.476 405.435 273.999 402.228 270.09C401.058 269.598 399.949 268.898 398.839 268.282C401.32 266.379 406.181 266 409.254 264.529Z"/>
	<path fill="#F9E7BB" transform="scale(0.488281 0.488281)" d="M409.254 264.529C427.325 258.194 443.762 249.019 458.634 236.893C474.986 223.56 489.641 208.231 507.216 196.388C517.076 189.745 531.837 183.035 543.982 185.71C549.384 186.9 553.721 190.422 556.77 194.955C558.08 196.904 558.921 199.111 560.221 201.085L560.459 201.44C561.429 208.611 560.131 215.79 558.339 222.73C555.309 234.468 550.708 245.99 543.327 255.7C538.184 262.467 532.14 268.02 525.762 273.565C517.418 280.818 508.423 287.293 498.578 292.365C472.831 305.627 443.621 310.072 415.225 313.769L393.769 316.206C380.651 317.607 367.326 318.746 358.595 330.029C353.86 336.148 350.155 345.367 348.126 352.81C347.031 353.832 346.426 353.84 345.054 354.218L344.681 354.363C345.712 344.825 349.491 333.752 354.874 325.801C364.775 311.176 381.082 310.159 396.85 307.244L414.344 304.912L417.55 304.578C453.627 300.373 490.301 291.244 519.403 268.493C525.031 264.093 530.763 259.334 535.197 253.695C541.658 245.477 545.667 234.814 548.191 224.75C549.406 219.906 550.331 214.647 549.666 209.656L549.532 208.75C549.131 205.898 548.419 202.693 546.813 200.25C544.496 196.728 540.972 194.224 536.82 193.417L536.25 193.315C531.128 192.369 526.11 194.18 521.493 196.261C502.043 205.023 486.581 221.972 470.511 235.564C462.576 242.275 454.042 248.889 445.25 254.429C431.931 262.822 417.854 268.244 402.228 270.09C401.058 269.598 399.949 268.898 398.839 268.282C401.32 266.379 406.181 266 409.254 264.529Z"/>
	<path fill="#A1294E" transform="scale(0.488281 0.488281)" d="M665.491 434.342C670.385 435.91 676.347 436.945 680.975 438.99L682.243 439.162C683.361 444.693 684.02 451.794 686.514 456.841L686.585 457.827C686.673 458.855 686.892 459.398 687.498 460.25C689.5 461.522 691.726 462.068 693.767 463.221C692.77 463.769 690.974 464.419 690.171 465.172C688.937 466.331 688.268 468.121 686.563 468.69L685.887 468.95L688.34 469.409L688.904 469.778C690.502 473.217 692.698 477.043 693.51 480.75C692.886 481.728 692.883 481.619 691.929 482.097L692.789 484.57L693.094 485.969C695.947 490.181 696.9 495.61 699.541 499.948L702.337 499.927L705.298 500.594C707.728 500.326 710.409 500.698 712.863 500.846L727.372 502.027L740.632 488.725L742.069 487.66L744.46 490.318C745.158 491.169 745.753 491.293 746.75 491.667L747.615 492.005L748.263 492.25L748.679 492.991C749.279 494.028 749.972 494.82 751.108 495.26L752.52 494.546C754.206 498.504 756.72 502.308 758.969 505.98C761.355 509.211 763.609 513.411 766.463 516.125L766.446 516.554C768.742 518.924 771.965 522.742 774.967 523.952L775.623 523.469L783.015 534.34L790.944 545.439L792.277 546.139C794.618 542.382 798.012 538.791 800.85 535.37C801.88 534.139 802.588 532.722 803.359 531.322C804.568 530.408 805.631 529.099 807.25 529.305C809.702 529.617 812.002 531.219 813.349 533.25C814.121 534.413 814.232 536.138 813.849 537.466C813.664 538.111 813.328 538.71 813.023 539.301L808.788 545.119L818.873 554.539L825.383 552.144C830.03 551.232 832.026 550.345 836.236 553.265C838.325 554.714 840.212 557.675 840.386 560.25C840.473 561.523 840.179 561.869 839.506 562.852L834.765 565.373L821.985 569.955C807.528 574.741 793.977 580.008 780.541 587.225C783.937 594.274 786.544 603.052 783.761 610.725C780.587 619.474 773.231 627.537 767.233 634.488L765.903 636.475L738.649 671.465L735.274 667.102C734.059 665.767 733.287 663.636 732.493 662L728.045 652.819L710.146 615.902C706.209 608.252 701.504 601.251 696.473 594.292C692.322 588.551 687.941 583.099 684.574 576.82C681.731 571.517 679.606 565.692 677.338 560.121L663.267 526.248L645.793 489.819C641.787 482.247 636.894 475.075 633.376 467.25C632.597 465.518 630.786 463.488 630.724 461.629C630.694 460.729 630.674 460.47 630.265 459.688C631.366 457.754 634.183 455.665 635.843 454.006L648.584 440.798L652.063 437.127C654.362 439.306 656.046 439.633 659.206 439.578C660.885 439.548 661.665 439.161 663.07 438.395L663.66 438.109L664.011 437.932C664.048 437.103 665.133 435.179 665.491 434.342Z"/>
	<path fill="#771238" transform="scale(0.488281 0.488281)" d="M746.456 594.817C746.451 592.062 746.082 589.456 748.049 587.25C749.552 587.037 749.746 587.378 751.011 588.137C749.584 590.43 748.212 592.755 746.456 594.817Z"/>
	<path fill="#771238" transform="scale(0.488281 0.488281)" d="M648.584 440.798L652.063 437.127C654.362 439.306 656.046 439.633 659.206 439.578C660.885 439.548 661.665 439.161 663.07 438.395L663.66 438.109L664.011 437.932C663.384 439.453 662.866 441.086 661.201 441.75C658.229 442.936 651.424 442.198 648.584 440.798Z"/>
	<path fill="#771238" transform="scale(0.488281 0.488281)" d="M732.25 585.12C729.415 584.636 727.526 583.891 725.589 581.639C722.85 578.454 721.404 574.955 721.719 570.764L722.817 569.917C723.725 573.313 724.65 576.853 727.206 579.434C727.838 580.072 731.591 582.547 731.53 582.793L730.619 583.31L732.229 584.345L732.25 585.12Z"/>
	<path fill="#93042E" transform="scale(0.488281 0.488281)" d="M745.986 573.547L746.363 572.287C746.397 573.465 746.481 574.592 746.19 575.746L747 575.75L747.687 576.25C746.424 579.571 743.658 582.508 740.429 584.086C737.993 585.276 734.884 585.712 732.25 585.12L732.229 584.345L730.619 583.31L731.53 582.793C733.481 583.486 735.944 583.697 737.911 582.988C742.76 581.242 744.069 577.896 745.986 573.547Z"/>
	<path fill="#771238" transform="scale(0.488281 0.488281)" d="M690.667 515.843C690.235 516.617 689.813 517.525 689.093 518.075C687.376 519.388 684.352 519.244 682.3 518.833C678.605 518.092 676.488 516.168 674.639 512.997C672.665 509.611 672.819 506.442 673.739 502.75L674.79 502.564C674.733 506.642 675.547 510.914 678.603 513.898C681.222 516.455 683.658 517.033 687.25 516.745C688.411 516.652 689.579 516.234 690.667 515.843Z"/>
	<path fill="#771238" transform="scale(0.488281 0.488281)" d="M672.043 486.536L671.721 486.605C669.619 487.096 667.77 487.423 665.598 487.182C662.702 486.861 660.034 485.028 658.269 482.773L657.869 482.25C656.102 480.004 653.52 475.705 654.101 472.774C654.467 470.925 655.202 469.162 656.08 467.504C655.863 472.648 656.673 476.848 660.39 480.75C662.544 483.012 665.553 484.648 668.741 484.583C669.8 484.562 670.578 484.443 671.582 484.099L671.25 485.255L671.781 485.965L672.043 486.536Z"/>
	<path fill="#771238" transform="scale(0.488281 0.488281)" d="M675.5 480.117L691.929 482.097L692.789 484.57L693.094 485.969L692.601 486.371L692.25 485.745L691.626 485.448L690.744 486.099L689.763 485.886C684.679 484.838 676.731 484.346 672.043 486.536L671.781 485.965L671.25 485.255L671.582 484.099C673.222 482.904 674.323 481.77 675.5 480.117Z"/>
	<path fill="#F0A549" transform="scale(0.488281 0.488281)" d="M680.975 438.99L682.243 439.162C683.361 444.693 684.02 451.794 686.514 456.841L686.585 457.827C686.673 458.855 686.892 459.398 687.498 460.25C689.5 461.522 691.726 462.068 693.767 463.221C692.77 463.769 690.974 464.419 690.171 465.172C688.937 466.331 688.268 468.121 686.563 468.69L680.805 449.604C679.904 445.975 680.508 442.654 680.975 438.99Z"/>
	<path fill="#771238" transform="scale(0.488281 0.488281)" d="M751.011 588.137C752.995 586.155 754.86 584.953 757.561 584.188C753.545 588.224 749.874 591.898 749.83 597.986C749.823 599.039 749.96 600.035 750.124 601.071C752.177 604.819 754.159 608.109 758.592 609.315C760.436 609.816 762.594 609.715 764.5 609.791L767.25 609.972C768.205 609.531 768.873 609.13 769.636 608.387C774.337 603.811 774.253 598.373 774.504 592.238L775.446 592.769C775.545 596.489 776.105 601.08 774.614 604.557L774.42 605.044C773.106 608.099 769.753 610.637 766.72 611.737C762.797 613.16 759.165 613.08 755.399 611.25C751.579 609.394 749.179 606.025 747.582 602.194C746.745 599.671 746.566 597.437 746.456 594.817C748.212 592.755 749.584 590.43 751.011 588.137Z"/>
	<path fill="#771238" transform="scale(0.488281 0.488281)" d="M720.126 542.137L721.133 542.768C721.077 545.237 718.595 548.969 716.9 550.773C714.555 553.268 711.323 554.98 707.878 555.076C703.486 555.198 700.338 554.279 697.188 551.146C694.021 547.995 691.684 543.499 691.753 538.965C691.799 535.884 692.441 532.815 694.922 530.723C696.698 529.225 699.562 529.176 701.763 529.374C698.55 531.336 696.244 533.145 695.256 536.905C694.248 540.743 695.134 544.314 697.251 547.599C697.962 548.701 698.891 549.574 699.862 550.44C701.66 551.626 703.048 552.257 705.131 552.769L705.734 552.927C707.108 551.243 708.455 551.268 709.638 549.55L709.733 549.284C712.647 547.831 714.135 546.487 717.418 546.781L717.752 546.316C718.737 544.752 718.894 544.429 718.427 542.637L720.126 542.137Z"/>
	<path fill="#10736E" transform="scale(0.488281 0.488281)" d="M709.638 549.55L709.733 549.284C712.647 547.831 714.135 546.487 717.418 546.781C714.745 550.078 712.259 552.459 707.875 552.874L705.734 552.927C707.108 551.243 708.455 551.268 709.638 549.55Z"/>
	<path fill="#108482" transform="scale(0.488281 0.488281)" d="M674.79 502.564C675.071 502.349 675.465 501.503 675.6 501.25C676.051 500.399 676.426 499.523 677.016 498.75C678.708 496.529 681.706 494.413 684.581 494.25C688.847 494.008 691.541 496.999 694.509 499.593C690.67 499.506 685.333 498.754 682.25 501.499C681.333 502.315 680.535 503.503 680.465 504.75C680.36 506.625 680.858 508.007 682.25 509.288C684.541 511.396 689.685 511.555 692.612 511.616L693.024 513L690.667 515.843C689.579 516.234 688.411 516.652 687.25 516.745C683.658 517.033 681.222 516.455 678.603 513.898C675.547 510.914 674.733 506.642 674.79 502.564Z"/>
	<path fill="#108482" transform="scale(0.488281 0.488281)" d="M761.286 582.797C757.701 586.294 754.536 589.417 754.434 594.739C754.37 598.085 755.135 600.923 757.769 603.231C758.48 603.853 759.073 604.08 760.007 603.91C764.682 603.056 767.04 596.275 770.824 593.515C771.283 597.56 772.456 602.826 769.761 606.274C768.459 607.939 766.345 608.856 764.5 609.791C762.594 609.715 760.436 609.816 758.592 609.315C754.159 608.109 752.177 604.819 750.124 601.071C749.96 600.035 749.823 599.039 749.83 597.986C749.874 591.898 753.545 588.224 757.561 584.188C758.742 583.519 759.995 583.184 761.286 582.797Z"/>
	<path fill="#108482" transform="scale(0.488281 0.488281)" d="M656.08 467.504L656.16 467.445C657.086 465.015 658.152 462.819 660.373 461.316C662.22 460.066 665.299 459.022 667.537 459.667C671.168 460.714 672.916 463.397 674.599 466.574C671.35 465.909 667.511 464.611 664.5 466.592C663.118 467.501 661.788 468.788 661.503 470.5C661.198 472.338 661.497 473.716 662.75 475.106C665.735 478.421 671.323 479.247 675.5 480.117C674.323 481.77 673.222 482.904 671.582 484.099C670.578 484.443 669.8 484.562 668.741 484.583C665.553 484.648 662.544 483.012 660.39 480.75C656.673 476.848 655.863 472.648 656.08 467.504Z"/>
	<path fill="#108482" transform="scale(0.488281 0.488281)" d="M701.763 529.374C705.672 528.93 709.568 528.639 713.068 530.768C708.929 531.976 703.591 534.096 701.27 538.048C700.356 539.606 700.44 540.652 700.683 542.343C701.79 544.048 702.711 545.18 704.765 545.666C705.965 545.949 706.756 545.741 707.869 545.303C711.292 544.01 714.847 543.324 718.427 542.637C718.894 544.429 718.737 544.752 717.752 546.316L717.418 546.781C714.135 546.487 712.647 547.831 709.733 549.284L709.638 549.55C708.455 551.268 707.108 551.243 705.734 552.927L705.131 552.769C703.048 552.257 701.66 551.626 699.862 550.44C698.891 549.574 697.962 548.701 697.251 547.599C695.134 544.314 694.248 540.743 695.256 536.905C696.244 533.145 698.55 531.336 701.763 529.374Z"/>
	<path fill="#4A6C6F" transform="scale(0.488281 0.488281)" d="M718.427 542.637C718.894 544.429 718.737 544.752 717.752 546.316L717.418 546.781C714.135 546.487 712.647 547.831 709.733 549.284L709.638 549.55C707.212 549.521 704.948 550.016 702.984 548.524L703.357 548.406L704.75 548.274L706.5 547.878L707.25 548C709.67 547.026 711.167 546.325 713.255 544.75C711.784 545.17 710.359 545.652 708.812 545.449L707.869 545.303C711.292 544.01 714.847 543.324 718.427 542.637Z"/>
	<path fill="#108482" transform="scale(0.488281 0.488281)" d="M722.817 569.917C723.527 567.365 724.243 565.026 726.118 563.069C728.036 561.068 730.151 559.815 732.95 559.8C730.117 562.498 727.795 564.556 727.594 568.75C727.532 570.041 727.979 572.27 728.895 573.25C729.986 574.416 730.543 574.435 732.038 574.378C736.141 574.22 738.716 570.479 742.118 568.713C743.895 570.244 745.16 571.304 745.986 573.547C744.069 577.896 742.76 581.242 737.911 582.988C735.944 583.697 733.481 583.486 731.53 582.793C731.591 582.547 727.838 580.072 727.206 579.434C724.65 576.853 723.725 573.313 722.817 569.917Z"/>
	<path fill="#F9E7BB" transform="scale(0.488281 0.488281)" d="M694.509 499.593C696.2 499.803 697.834 500.035 699.541 499.948L702.337 499.927L705.298 500.594L705.322 501.28C705.487 505.111 707.563 508.279 705.207 511.712C703.582 512.158 702.18 512.051 700.511 511.943L700.167 512.114L692.612 511.616C689.685 511.555 684.541 511.396 682.25 509.288C680.858 508.007 680.36 506.625 680.465 504.75C680.535 503.503 681.333 502.315 682.25 501.499C685.333 498.754 690.67 499.506 694.509 499.593Z"/>
	<path fill="#F9E7BB" transform="scale(0.488281 0.488281)" d="M742.564 556.05L748.399 555.005L753.61 555.35C754.961 557.087 753.935 562.846 753.86 565.287C750.095 566.348 745.575 566.903 742.118 568.713C738.716 570.479 736.141 574.22 732.038 574.378C730.543 574.435 729.986 574.416 728.895 573.25C727.979 572.27 727.532 570.041 727.594 568.75C727.795 564.556 730.117 562.498 732.95 559.8C733.423 559.808 735.024 558.927 735.553 558.698L742.564 556.05Z"/>
	<path fill="#F9E7BB" transform="scale(0.488281 0.488281)" d="M675.5 480.117C671.323 479.247 665.735 478.421 662.75 475.106C661.497 473.716 661.198 472.338 661.503 470.5C661.788 468.788 663.118 467.501 664.5 466.592C667.511 464.611 671.35 465.909 674.599 466.574L685.887 468.95L688.34 469.409L688.904 469.778C690.502 473.217 692.698 477.043 693.51 480.75C692.886 481.728 692.883 481.619 691.929 482.097L675.5 480.117Z"/>
	<path fill="#F9E7BB" transform="scale(0.488281 0.488281)" d="M803.359 531.322C804.568 530.408 805.631 529.099 807.25 529.305C809.702 529.617 812.002 531.219 813.349 533.25C814.121 534.413 814.232 536.138 813.849 537.466C813.664 538.111 813.328 538.71 813.023 539.301L808.788 545.119L818.873 554.539L825.383 552.144C830.03 551.232 832.026 550.345 836.236 553.265C838.325 554.714 840.212 557.675 840.386 560.25C840.473 561.523 840.179 561.869 839.506 562.852L834.765 565.373L821.985 569.955C807.528 574.741 793.977 580.008 780.541 587.225C778.12 588.637 775.646 589.98 773.414 591.681L770.824 593.515C767.04 596.275 764.682 603.056 760.007 603.91C759.073 604.08 758.48 603.853 757.769 603.231C755.135 600.923 754.37 598.085 754.434 594.739C754.536 589.417 757.701 586.294 761.286 582.797L767.566 578.438L756.035 565.301L753.86 565.287C753.935 562.846 754.961 557.087 753.61 555.35L748.399 555.005L751.732 554.433L751.566 553.046C755.159 551.602 759.613 545.67 762.403 542.83L790.944 545.439L792.277 546.139C794.618 542.382 798.012 538.791 800.85 535.37C801.88 534.139 802.588 532.722 803.359 531.322Z"/>
	<path fill="#F77916" transform="scale(0.488281 0.488281)" d="M802.19 553.379C804.551 554.985 806.919 556.509 808.941 558.542L793.693 564.349C794.141 561.637 800.185 555.733 802.19 553.379Z"/>
	<path fill="#93042E" transform="scale(0.488281 0.488281)" d="M808.788 545.119L818.873 554.539L808.941 558.542C806.919 556.509 804.551 554.985 802.19 553.379L808.788 545.119Z"/>
	<path fill="#F9D68C" transform="scale(0.488281 0.488281)" d="M803.359 531.322C804.568 530.408 805.631 529.099 807.25 529.305C809.702 529.617 812.002 531.219 813.349 533.25C814.121 534.413 814.232 536.138 813.849 537.466C813.664 538.111 813.328 538.71 813.023 539.301L808.788 545.119L802.19 553.379C800.185 555.733 794.141 561.637 793.693 564.349L780.96 570.921C778.062 572.449 774.882 574.83 771.671 575.473L767.566 578.438L756.035 565.301L753.86 565.287C753.935 562.846 754.961 557.087 753.61 555.35L748.399 555.005L751.732 554.433L751.566 553.046C755.159 551.602 759.613 545.67 762.403 542.83L790.944 545.439L792.277 546.139C794.618 542.382 798.012 538.791 800.85 535.37C801.88 534.139 802.588 532.722 803.359 531.322Z"/>
	<path fill="#F05A15" transform="scale(0.488281 0.488281)" d="M756.035 565.301L756.698 565.339L779.775 564.427C777.002 567.963 773.881 571.565 771.671 575.473L767.566 578.438L756.035 565.301Z"/>
	<path fill="#F77916" transform="scale(0.488281 0.488281)" d="M762.403 542.83L790.944 545.439L792.277 546.139L785.741 555.412L751.732 554.433L751.566 553.046C755.159 551.602 759.613 545.67 762.403 542.83Z"/>
	<path fill="#F9D68C" transform="scale(0.488281 0.488281)" d="M740.632 488.725L742.069 487.66L744.46 490.318C745.158 491.169 745.753 491.293 746.75 491.667L747.615 492.005L748.263 492.25L748.679 492.991C749.279 494.028 749.972 494.82 751.108 495.26L752.52 494.546C754.206 498.504 756.72 502.308 758.969 505.98C761.355 509.211 763.609 513.411 766.463 516.125L766.446 516.554C768.742 518.924 771.965 522.742 774.967 523.952L775.623 523.469L783.015 534.34L790.944 545.439L762.403 542.83C759.613 545.67 755.159 551.602 751.566 553.046L751.732 554.433L748.399 555.005L742.564 556.05L739.174 553.023C735.397 549.595 732.505 544.99 729.659 540.802L720.126 542.137L718.427 542.637C714.847 543.324 711.292 544.01 707.869 545.303C706.756 545.741 705.965 545.949 704.765 545.666C702.711 545.18 701.79 544.048 700.683 542.343C700.44 540.652 700.356 539.606 701.27 538.048C703.591 534.096 708.929 531.976 713.068 530.768L718.531 529.446C716.378 523.748 711.901 518.618 708.593 513.501L707.701 512.49C705.211 512.49 702.603 512.676 700.167 512.114L700.511 511.943C702.18 512.051 703.582 512.158 705.207 511.712C707.563 508.279 705.487 505.111 705.322 501.28L705.298 500.594C707.728 500.326 710.409 500.698 712.863 500.846L727.372 502.027L740.632 488.725Z"/>
	<path fill="#F77916" transform="scale(0.488281 0.488281)" d="M775.623 523.469L783.015 534.34L768.336 532.355L774.967 523.952L775.623 523.469Z"/>
	<path fill="#F77916" transform="scale(0.488281 0.488281)" d="M752.52 494.546C754.206 498.504 756.72 502.308 758.969 505.98L740.975 504.683L750.609 495.773L751.108 495.26L752.52 494.546Z"/>
	<path fill="#FCC153" transform="scale(0.488281 0.488281)" d="M707.701 512.49L720.533 513.119C725.324 514.184 730.75 514.191 735.666 514.796L729.06 521.093C726.767 523.117 720.813 526.251 720.488 529.439L718.531 529.446C716.378 523.748 711.901 518.618 708.593 513.501L707.701 512.49Z"/>
	<path fill="#F05A15" transform="scale(0.488281 0.488281)" d="M707.701 512.49L720.533 513.119C719.723 515.032 717.287 518.346 715.531 519.4C713.783 517.354 712.117 515.15 709.973 513.506L708.593 513.501L707.701 512.49Z"/>
	<path fill="#FCC153" transform="scale(0.488281 0.488281)" d="M729.659 540.802C732.758 540.83 736.13 540.884 739.181 541.421C741.552 541.45 744.562 541.855 746.843 541.328C749.164 541.542 751.372 542.182 753.683 542.353C756.546 542.566 759.595 542.25 762.403 542.83C759.613 545.67 755.159 551.602 751.566 553.046L751.732 554.433L748.399 555.005L742.564 556.05L739.174 553.023C735.397 549.595 732.505 544.99 729.659 540.802Z"/>
	<path fill="#F0A549" transform="scale(0.488281 0.488281)" d="M739.996 552.054L740.73 552.656C744.347 553.5 747.95 552.585 751.566 553.046L751.732 554.433L748.399 555.005L742.564 556.05L739.174 553.023L739.996 552.054Z"/>
	<path fill="#F77916" transform="scale(0.488281 0.488281)" d="M729.659 540.802C732.758 540.83 736.13 540.884 739.181 541.421C741.552 541.45 744.562 541.855 746.843 541.328L749.084 542.25C746.333 545.578 742.686 548.785 740.73 552.656L739.996 552.054L739.174 553.023C735.397 549.595 732.505 544.99 729.659 540.802Z"/>
	<path fill="#FCC153" transform="scale(0.488281 0.488281)" d="M729.659 540.802C732.758 540.83 736.13 540.884 739.181 541.421L734.75 541.375L734.405 542L739.996 552.054L739.174 553.023C735.397 549.595 732.505 544.99 729.659 540.802Z"/>
	<path fill="#F77916" transform="scale(0.488281 0.488281)" d="M735.666 514.796C737.988 513.823 741.32 514.716 743.823 515.035C750.776 515.919 758.337 517.619 765.308 517.637C761.803 522.104 758.891 526.5 756.245 531.529L720.488 529.439C720.813 526.251 726.767 523.117 729.06 521.093L735.666 514.796Z"/>
	<path fill="#F9E7BB" transform="scale(0.488281 0.488281)" d="M839.506 562.852C845.111 565.682 849.593 570.915 854.391 574.919L869.697 587.413C872.657 589.864 875.688 592.109 878.062 595.169L880.868 597.196C882.263 597.91 883.64 598.508 884.836 599.532C885.543 599.998 886.716 601.023 887.514 601.163C889.292 601.093 890.041 601.586 891.566 602.417L923 621.511C939.913 632.894 958.068 647.418 964.372 667.694C966.234 673.684 967.138 680.217 967.443 686.481L967.616 696.529C967.624 697.428 967.407 699.127 967.688 699.948C967.451 701.885 967.065 703.453 966.308 705.252L965.828 704.893L964.456 703.865C963.61 703.322 960.771 701.817 959.827 701.788C957.964 701.732 953.615 703.876 951.683 704.428C944.824 706.386 937.702 707.893 930.682 709.183C912.069 712.603 893.043 713.197 874.188 711.894C860.39 710.939 846.823 708.569 833.27 705.92C808.45 701.07 784.022 694.319 760.831 684.13C753.213 680.783 745.358 677.284 738.499 672.535L738.649 671.465L765.903 636.475L767.233 634.488C773.231 627.537 780.587 619.474 783.761 610.725C786.544 603.052 783.937 594.274 780.541 587.225C793.977 580.008 807.528 574.741 821.985 569.955L834.765 565.373L839.506 562.852Z"/>
	<path fill="#F05A15" transform="scale(0.488281 0.488281)" d="M839.506 562.852C845.111 565.682 849.593 570.915 854.391 574.919L869.697 587.413C872.657 589.864 875.688 592.109 878.062 595.169L880.868 597.196C882.263 597.91 883.64 598.508 884.836 599.532C871.968 620.595 850.67 633.204 827 638.984C813.02 642.397 797.894 642.758 783.804 639.685C778.137 638.449 772.693 636.412 767.233 634.488C773.231 627.537 780.587 619.474 783.761 610.725C786.544 603.052 783.937 594.274 780.541 587.225C793.977 580.008 807.528 574.741 821.985 569.955L834.765 565.373L839.506 562.852Z"/>
	<path fill="#93042E" transform="scale(0.488281 0.488281)" d="M839.506 562.852C845.111 565.682 849.593 570.915 854.391 574.919L869.697 587.413C872.657 589.864 875.688 592.109 878.062 595.169L880.868 597.196C867.077 593.514 852.458 588.456 839.91 581.625C833.633 578.208 827.788 574.112 821.985 569.955L834.765 565.373L839.506 562.852Z"/>
	<path fill="#F0A549" transform="scale(0.488281 0.488281)" d="M839.506 562.852C845.111 565.682 849.593 570.915 854.391 574.919L869.697 587.413C872.657 589.864 875.688 592.109 878.062 595.169C874.369 594.148 870.667 591.41 867.46 589.335L846.688 574.988C842.64 572.043 837.898 569.283 834.765 565.373L839.506 562.852Z"/>
	<path fill="#299B8D" transform="scale(0.488281 0.488281)" d="M887.514 601.163C889.292 601.093 890.041 601.586 891.566 602.417L923 621.511C939.913 632.894 958.068 647.418 964.372 667.694C966.234 673.684 967.138 680.217 967.443 686.481L967.616 696.529C967.624 697.428 967.407 699.127 967.688 699.948C967.451 701.885 967.065 703.453 966.308 705.252L965.828 704.893L964.456 703.865C963.61 703.322 960.771 701.817 959.827 701.788C957.964 701.732 953.615 703.876 951.683 704.428C944.824 706.386 937.702 707.893 930.682 709.183C912.069 712.603 893.043 713.197 874.188 711.894C860.39 710.939 846.823 708.569 833.27 705.92C808.45 701.07 784.022 694.319 760.831 684.13C753.213 680.783 745.358 677.284 738.499 672.535L738.649 671.465L765.903 636.475C773.531 648.208 786.858 657.018 798.626 664.095C833.248 684.916 876.889 697.59 916.99 687.274C926.756 684.762 937.157 680.515 942.406 671.305C945.645 665.62 945.657 659.331 943.8 653.18C941.886 646.839 938.113 641.56 933.975 636.502C921.382 621.111 904.685 610.66 887.514 601.163Z"/>
	<defs>
		<linearGradient id="gradient_2" gradientUnits="userSpaceOnUse" x1="659.77875" y1="751.17682" x2="759.9317" y2="601.30261">
			<stop offset="0" stop-color="#48092C"/>
			<stop offset="1" stop-color="#72163B"/>
		</linearGradient>
	</defs>
	<path fill="url(#gradient_2)" transform="scale(0.488281 0.488281)" d="M630.265 459.688C630.674 460.47 630.694 460.729 630.724 461.629C630.786 463.488 632.597 465.518 633.376 467.25C636.894 475.075 641.787 482.247 645.793 489.819L663.267 526.248L677.338 560.121C679.606 565.692 681.731 571.517 684.574 576.82C687.941 583.099 692.322 588.551 696.473 594.292C701.504 601.251 706.209 608.252 710.146 615.902L728.045 652.819L732.493 662C733.287 663.636 734.059 665.767 735.274 667.102L738.649 671.465L738.499 672.535C745.358 677.284 753.213 680.783 760.831 684.13C784.022 694.319 808.45 701.07 833.27 705.92C846.823 708.569 860.39 710.939 874.188 711.894C893.043 713.197 912.069 712.603 930.682 709.183C937.702 707.893 944.824 706.386 951.683 704.428C953.615 703.876 957.964 701.732 959.827 701.788C960.771 701.817 963.61 703.322 964.456 703.865L965.828 704.893L966.308 705.252C967.065 703.453 967.451 701.885 967.688 699.948L968.64 700.44C969.32 703.971 968.85 707.622 968.464 711.171C967.7 718.182 966.534 724.875 963.783 731.413L963.822 731.679C963.535 735.09 962.301 738.505 961.23 741.75C958.168 751.028 954.629 758.563 947 764.995L941.08 769.325C933.104 772.511 925.276 774.844 916.869 776.648C887.772 782.889 858.914 783.95 829.285 783.575C811.577 783.351 793.63 782.927 776.043 780.746C722.208 774.068 672.332 753.083 626.361 725.069L606.788 711.799L606.059 711.339L453.041 614.299C454.916 613.287 456.835 611.164 458.508 609.75L470.867 599.381L496.043 577.525C503.056 571.381 510.323 563.989 518.047 558.847L517.987 558.637C522.547 555.863 527.009 551.152 531.065 547.631L557.6 524.748L595.413 491.736L627.841 462.147C627.996 461.625 629.788 460.162 630.265 459.688Z"/>
	<path fill="#BA8766" transform="scale(0.488281 0.488281)" d="M496.043 577.525C511.104 583.326 526.015 589.499 540.157 597.324C565.054 611.101 587.211 629.253 608.769 647.672L651.344 683.32C673.618 700.219 697.866 713.167 724.72 721.154L724.972 721.347C727.017 730.982 732.836 740.302 738.55 748.182C740.277 750.563 742.426 752.811 743.938 755.309C720.982 749.964 698.866 742.285 677.766 731.764C660.52 723.166 644.58 712.593 628.416 702.174L556.991 655.423L506.014 622.332C494.304 614.861 481.837 607.893 470.867 599.381L496.043 577.525Z"/>
	<path fill="#10736E" transform="scale(0.488281 0.488281)" d="M724.72 721.154C724.314 717.61 724.828 713.974 725.287 710.452C726.593 700.414 729.56 691.713 733.643 682.476C735.116 679.144 736.476 675.568 738.499 672.535C745.358 677.284 753.213 680.783 760.831 684.13C784.022 694.319 808.45 701.07 833.27 705.92C846.823 708.569 860.39 710.939 874.188 711.894C893.043 713.197 912.069 712.603 930.682 709.183C937.702 707.893 944.824 706.386 951.683 704.428C953.615 703.876 957.964 701.732 959.827 701.788C960.771 701.817 963.61 703.322 964.456 703.865L965.828 704.893L966.308 705.252C967.065 703.453 967.451 701.885 967.688 699.948L968.64 700.44C969.32 703.971 968.85 707.622 968.464 711.171C967.7 718.182 966.534 724.875 963.783 731.413L963.822 731.679C959.832 737.102 954.923 740.918 949.469 744.797C933.619 756.07 915.94 762.398 896.807 765.269C883.446 767.274 869.597 767.408 856.104 767.451C818.887 767.569 779.907 765.289 743.938 755.309C742.426 752.811 740.277 750.563 738.55 748.182C732.836 740.302 727.017 730.982 724.972 721.347L724.72 721.154Z"/>
	<path fill="#F9E7BB" transform="scale(0.488281 0.488281)" d="M967.688 699.948L968.64 700.44C969.32 703.971 968.85 707.622 968.464 711.171C967.7 718.182 966.534 724.875 963.783 731.413L963.822 731.679C959.832 737.102 954.923 740.918 949.469 744.797C933.619 756.07 915.94 762.398 896.807 765.269C883.446 767.274 869.597 767.408 856.104 767.451C818.887 767.569 779.907 765.289 743.938 755.309C742.426 752.811 740.277 750.563 738.55 748.182C732.836 740.302 727.017 730.982 724.972 721.347C730.017 722.574 734.924 724.929 739.884 726.517C749.223 729.506 758.888 731.896 768.478 733.931C794.366 739.424 821.729 740.5 848.113 740.682C869.399 740.83 891.137 740.808 911.949 735.833C931.301 731.207 955.275 723.256 966.308 705.252C967.065 703.453 967.451 701.885 967.688 699.948Z"/>
	<path fill="#49082B" transform="scale(0.488281 0.488281)" d="M630.265 459.688C630.674 460.47 630.694 460.729 630.724 461.629C630.786 463.488 632.597 465.518 633.376 467.25C636.894 475.075 641.787 482.247 645.793 489.819L663.267 526.248L677.338 560.121C679.606 565.692 681.731 571.517 684.574 576.82C687.941 583.099 692.322 588.551 696.473 594.292C701.504 601.251 706.209 608.252 710.146 615.902L728.045 652.819L732.493 662C733.287 663.636 734.059 665.767 735.274 667.102L738.649 671.465L738.499 672.535C736.476 675.568 735.116 679.144 733.643 682.476C729.56 691.713 726.593 700.414 725.287 710.452C724.828 713.974 724.314 717.61 724.72 721.154C697.866 713.167 673.618 700.219 651.344 683.32L608.769 647.672C587.211 629.253 565.054 611.101 540.157 597.324C526.015 589.499 511.104 583.326 496.043 577.525C503.056 571.381 510.323 563.989 518.047 558.847L517.987 558.637C522.547 555.863 527.009 551.152 531.065 547.631L557.6 524.748L595.413 491.736L627.841 462.147C627.996 461.625 629.788 460.162 630.265 459.688Z"/>
	<path fill="#771238" transform="scale(0.488281 0.488281)" d="M630.265 459.688C630.674 460.47 630.694 460.729 630.724 461.629C630.786 463.488 632.597 465.518 633.376 467.25C636.894 475.075 641.787 482.247 645.793 489.819L663.267 526.248L677.338 560.121C679.606 565.692 681.731 571.517 684.574 576.82C687.941 583.099 692.322 588.551 696.473 594.292C701.504 601.251 706.209 608.252 710.146 615.902L728.045 652.819L732.493 662C733.287 663.636 734.059 665.767 735.274 667.102C732.695 667.924 731.946 668.999 730.144 670.935C718.608 661.1 707.419 650.172 699.026 637.478C691.004 625.343 685.161 610.429 681.138 596.489C677.757 584.774 675.056 572.491 670.078 561.333C667.389 555.305 663.126 550.42 660.051 544.689L652.827 532.619L652.362 531.945L638.83 511.44L613.103 477.449L628.306 462.992L627.841 462.147C627.996 461.625 629.788 460.162 630.265 459.688Z"/>
	<path fill="#BC5005" transform="scale(0.488281 0.488281)" d="M557.6 524.748L595.413 491.736L595.858 492.09C602.893 497.603 610.607 502.219 617.602 507.91C635.233 522.254 651.011 539.265 662.168 559.161C667.282 568.28 671.588 578.309 672.943 588.75C674.384 599.851 672.404 610.693 669.74 621.442C668.674 625.745 667.637 630.487 665.853 634.549L647.467 625.12L641.665 621.748C638.48 614.028 633.531 606.366 629.51 599C619.258 580.218 607.77 561.728 591.593 547.407C581.687 538.636 569.175 531.105 557.6 524.748Z"/>
	<path fill="#124341" transform="scale(0.488281 0.488281)" d="M557.6 524.748C569.175 531.105 581.687 538.636 591.593 547.407C607.77 561.728 619.258 580.218 629.51 599C633.531 606.366 638.48 614.028 641.665 621.748L647.467 625.12L665.853 634.549L660.831 651.07L651.344 683.32L608.769 647.672C587.211 629.253 565.054 611.101 540.157 597.324C526.015 589.499 511.104 583.326 496.043 577.525C503.056 571.381 510.323 563.989 518.047 558.847L517.987 558.637C522.547 555.863 527.009 551.152 531.065 547.631L557.6 524.748Z"/>
	<path fill="#4A6C6F" transform="scale(0.488281 0.488281)" d="M647.467 625.12L665.853 634.549L660.831 651.07C658.096 646.922 656.253 642.063 653.948 637.657C651.829 633.607 648.735 629.484 647.467 625.12Z"/>
	<path fill="#993803" transform="scale(0.488281 0.488281)" d="M557.6 524.748C569.175 531.105 581.687 538.636 591.593 547.407C607.77 561.728 619.258 580.218 629.51 599C633.531 606.366 638.48 614.028 641.665 621.748L518.047 558.847L517.987 558.637C522.547 555.863 527.009 551.152 531.065 547.631L557.6 524.748Z"/>
	<path fill="#4A6C6F" transform="scale(0.488281 0.488281)" d="M453.041 614.299L606.059 711.339L606.788 711.799L626.361 725.069C672.332 753.083 722.208 774.068 776.043 780.746C793.63 782.927 811.577 783.351 829.285 783.575C858.914 783.95 887.772 782.889 916.869 776.648C925.276 774.844 933.104 772.511 941.08 769.325C945.507 773.639 950.689 778.056 950.908 784.75C951.047 789.025 948.527 793.169 945.75 796.229C937.141 805.716 923.59 810.773 911.804 814.963C888.742 823.16 864.147 828.197 840 831.966C807.229 837.081 773.848 839.885 740.719 841.34C691.481 843.502 641.969 843.088 592.854 838.707L463.989 823.376L234.367 781.13L169.621 767.288C152.678 763.546 135.098 759.982 118.7 754.262C112.662 752.155 107.28 749.639 102.515 745.272C106.539 745.693 110.426 746.901 114.401 747.612C120.461 748.696 126.602 749.244 132.741 749.654C195.419 753.837 260.171 739.615 316.828 713.142L337.024 702.54C341.149 700.139 345.126 697.426 349.38 695.266L349.929 694.991L453.041 614.299Z"/>
	<path fill="#95A992" transform="scale(0.488281 0.488281)" d="M453.041 614.299L606.059 711.339C601.536 712.079 594.893 710.271 590.29 709.687L561.031 706.291L514.546 702.371L349.929 694.991L453.041 614.299Z"/>
	<path fill="#F9E7BB" transform="scale(0.488281 0.488281)" d="M644.756 347.461C646.271 350.243 649.21 354.37 649.642 357.437L649.92 357.301L661.747 378.141L665.692 386.475C666.556 390.721 668.381 394.338 669.694 398.413C670.643 401.354 671.106 404.54 671.463 407.603C671.151 408.229 670.456 409.202 670.542 409.879C669.233 414.304 666.101 417.407 664.529 421.497L663.777 422.478L664.106 422.908C665.905 426.429 665.779 430.469 665.491 434.342C665.133 435.179 664.048 437.103 664.011 437.932L663.66 438.109L663.07 438.395C661.665 439.161 660.885 439.548 659.206 439.578C656.046 439.633 654.362 439.306 652.063 437.127L648.584 440.798L635.843 454.006C634.183 455.665 631.366 457.754 630.265 459.688C629.788 460.162 627.996 461.625 627.841 462.147L595.413 491.736L557.6 524.748L531.065 547.631C527.009 551.152 522.547 555.863 517.987 558.637L518.047 558.847C510.323 563.989 503.056 571.381 496.043 577.525L470.867 599.381L458.508 609.75C456.835 611.164 454.916 613.287 453.041 614.299L349.929 694.991L349.38 695.266C345.126 697.426 341.149 700.139 337.024 702.54L316.828 713.142C260.171 739.615 195.419 753.837 132.741 749.654C126.602 749.244 120.461 748.696 114.401 747.612C110.426 746.901 106.539 745.693 102.515 745.272L95.7847 742.954C83.8605 738.943 72.3872 731.779 66.8228 720.041C65.4165 717.075 63.5019 711.674 64.6479 708.422C62.3412 705.817 59.3861 688.247 59.5077 684.505C56.8349 669.571 55.4459 653.792 56.6838 638.637C58.5378 626.056 65.9838 615.692 73.7732 605.933C78.1403 600.461 82.8834 595.278 87.8873 590.382C92.8649 585.511 122.678 559.286 127.383 558.751C131.98 556.337 137.978 552.123 141.691 548.487L142.403 548.716L144.266 549.917L183.702 511.517L196.816 513.86C211.893 516.435 228.25 522.676 241.924 529.433L237.676 535.716C233.883 542.934 232.621 550.095 235.077 558C237.864 566.973 244.084 575.246 250.503 581.956L254.414 585.508C257.068 587.399 259.278 590.087 261.523 592.44L272.753 604.604C274.639 606.782 276.554 609.548 278.813 611.324L280.156 612.174C280.585 614.384 284.297 617.778 285.794 619.749L296.1 634.227C301.512 642.158 306.406 650.406 310.915 658.881C324.511 651.019 337.945 642.644 350.502 633.186L382.249 606.8C370.984 596.891 362.142 582.195 356.384 568.457L416.826 523.563L493.503 468.719C491.033 477.373 488.254 485.461 491.647 494.405C499.782 487.877 507.428 483.926 516.823 479.623C518.688 471.202 518.503 461.444 518.484 452.822L518.544 452.278C519.321 451.38 520.571 450.788 521.587 450.186L521.694 449.375C523.764 448.828 526.131 447.097 528 445.986C534.43 442.167 540.476 437.797 546.622 433.549L602.266 393.691C610.211 387.408 618.183 381.036 625.332 373.839C630.694 368.441 635.939 362.556 639.95 356.069C641.588 353.419 642.749 350.558 644.443 347.937L644.756 347.461Z"/>
	<path fill="#108482" transform="scale(0.488281 0.488281)" d="M664.106 422.908C665.905 426.429 665.779 430.469 665.491 434.342C665.133 435.179 664.048 437.103 664.011 437.932L663.66 438.109L663.07 438.395C661.665 439.161 660.885 439.548 659.206 439.578C656.046 439.633 654.362 439.306 652.063 437.127C654.083 434.946 656.176 432.756 657.983 430.392C659.955 427.812 661.607 425.025 664.106 422.908Z"/>
	<path fill="#4A6C6F" transform="scale(0.488281 0.488281)" d="M644.756 347.461C646.271 350.243 649.21 354.37 649.642 357.437C647.957 361.949 646.134 366.256 643.607 370.37C634.823 384.671 621.775 397.387 609.624 408.832C590.844 426.519 571.094 442.837 550.562 458.453L535.793 469.508C532.82 471.729 529.751 474.369 526.378 475.922L520.947 478.009L516.823 479.623C518.688 471.202 518.503 461.444 518.484 452.822L518.544 452.278C519.321 451.38 520.571 450.788 521.587 450.186L521.694 449.375C523.764 448.828 526.131 447.097 528 445.986C534.43 442.167 540.476 437.797 546.622 433.549L602.266 393.691C610.211 387.408 618.183 381.036 625.332 373.839C630.694 368.441 635.939 362.556 639.95 356.069C641.588 353.419 642.749 350.558 644.443 347.937L644.756 347.461Z"/>
	<path fill="#F05A15" transform="scale(0.488281 0.488281)" d="M521.587 450.186L520.947 478.009L516.823 479.623C518.688 471.202 518.503 461.444 518.484 452.822L518.544 452.278C519.321 451.38 520.571 450.788 521.587 450.186Z"/>
	<path fill="#299B8D" transform="scale(0.488281 0.488281)" d="M493.503 468.719C491.033 477.373 488.254 485.461 491.647 494.405L444.353 537.647L418.957 563.187L396.784 589.358C392.177 595.127 387.848 601.991 382.249 606.8C370.984 596.891 362.142 582.195 356.384 568.457L416.826 523.563L493.503 468.719Z"/>
	<path fill="#10736E" transform="scale(0.488281 0.488281)" d="M278.813 611.324L280.156 612.174C280.585 614.384 284.297 617.778 285.794 619.749L296.1 634.227C301.512 642.158 306.406 650.406 310.915 658.881C283.824 673.366 255.606 684.791 226 693.04C180.583 705.693 130.914 710.519 85.1202 696.747C76.5342 694.165 66.2847 690.565 59.5077 684.505C56.8349 669.571 55.4459 653.792 56.6838 638.637L57.4877 638.775C60.2699 645.379 63.9263 651.028 69.602 655.527L70.25 656.034C87.9706 670.125 115.836 673.254 137.67 672.996C152.834 672.817 167.893 670.018 182.528 666.212C208.973 659.336 234.307 648.834 256.531 632.754C264.69 626.851 271.843 620.044 278.867 612.869L278.813 611.324Z"/>
	<defs>
		<linearGradient id="gradient_3" gradientUnits="userSpaceOnUse" x1="325.36801" y1="505.22491" x2="427.61368" y2="634.91187">
			<stop offset="0" stop-color="#730134"/>
			<stop offset="1" stop-color="#9A3753"/>
		</linearGradient>
	</defs>
	<path fill="url(#gradient_3)" transform="scale(0.488281 0.488281)" d="M64.6479 708.422L70.8911 714.085C80.4224 721.417 92.3189 725.308 103.981 727.688C132.187 733.441 161.99 731.273 190.328 727.514C240.421 720.869 289.606 703.211 333.549 678.43C349.113 669.652 364.749 659.869 379.246 649.425C407.048 629.396 433.054 606.619 459.044 584.321L546.122 508.396L616.016 445.616C633.839 428.808 651.124 411.831 666.028 392.326L666.3 392.563C667.752 396.942 669.707 401.969 669.403 406.656C669.26 408.857 668.063 411.048 667.147 413.019C665.083 417.458 662.885 422.003 659.888 425.898C656.616 430.15 652.828 434.095 649.25 438.094C635.957 452.951 621.475 466.272 606.75 479.672L572.134 511.02L518.25 557.67L517.987 558.637L518.047 558.847C510.323 563.989 503.056 571.381 496.043 577.525L470.867 599.381L458.508 609.75C456.835 611.164 454.916 613.287 453.041 614.299L349.929 694.991L349.38 695.266C345.126 697.426 341.149 700.139 337.024 702.54L316.828 713.142C260.171 739.615 195.419 753.837 132.741 749.654C126.602 749.244 120.461 748.696 114.401 747.612C110.426 746.901 106.539 745.693 102.515 745.272L95.7847 742.954C83.8605 738.943 72.3872 731.779 66.8228 720.041C65.4165 717.075 63.5019 711.674 64.6479 708.422Z"/>
	<path fill="#F9E7BB" transform="scale(0.488281 0.488281)" d="M183.702 511.517L196.816 513.86C211.893 516.435 228.25 522.676 241.924 529.433L237.676 535.716C233.883 542.934 232.621 550.095 235.077 558C237.864 566.973 244.084 575.246 250.503 581.956L254.414 585.508C257.068 587.399 259.278 590.087 261.523 592.44L272.753 604.604C274.639 606.782 276.554 609.548 278.813 611.324L278.867 612.869C271.843 620.044 264.69 626.851 256.531 632.754C234.307 648.834 208.973 659.336 182.528 666.212C167.893 670.018 152.834 672.817 137.67 672.996C115.836 673.254 87.9706 670.125 70.25 656.034L69.602 655.527C63.9263 651.028 60.2699 645.379 57.4877 638.775L56.6838 638.637C58.5378 626.056 65.9838 615.692 73.7732 605.933C78.1403 600.461 82.8834 595.278 87.8873 590.382C92.8649 585.511 122.678 559.286 127.383 558.751C131.98 556.337 137.978 552.123 141.691 548.487L142.403 548.716L144.266 549.917L183.702 511.517Z"/>
	<path fill="#F05A15" transform="scale(0.488281 0.488281)" d="M183.702 511.517L196.816 513.86C211.893 516.435 228.25 522.676 241.924 529.433L237.676 535.716C233.883 542.934 232.621 550.095 235.077 558C237.864 566.973 244.084 575.246 250.503 581.956L245.623 583.915C239.888 585.937 233.552 586.937 227.533 587.67C206.93 590.177 185.719 587.487 166.979 578.344C158.402 574.159 147.648 567.724 144.379 558.122C143.388 555.212 143.638 552.188 142.595 549.239L142.403 548.716L144.266 549.917L183.702 511.517Z"/>
	<path fill="#CC380B" transform="scale(0.488281 0.488281)" d="M196.816 513.86C211.893 516.435 228.25 522.676 241.924 529.433L237.676 535.716C222.876 527.239 206.819 523.18 190.556 518.786C192.419 516.91 194.862 515.702 196.816 513.86Z"/>
	<path fill="#771238" transform="scale(0.488281 0.488281)" d="M183.702 511.517L196.816 513.86C194.862 515.702 192.419 516.91 190.556 518.786C182.957 524.93 153.338 551.198 144.751 550.036L144.266 549.917L183.702 511.517Z"/>
	<path fill="#299B8D" transform="scale(0.488281 0.488281)" d="M56.6838 638.637C58.5378 626.056 65.9838 615.692 73.7732 605.933C78.1403 600.461 82.8834 595.278 87.8873 590.382C92.8649 585.511 122.678 559.286 127.383 558.751C110.819 572.076 94.3735 588.109 83.132 606.271C79.606 611.967 76.1715 618.224 75.4443 625C74.8544 630.497 76.0405 635.329 79.657 639.617C86.7954 648.08 100.199 650.736 110.683 651.42C125.505 652.386 140.702 650.253 155.062 646.679C185.303 639.151 214.241 624.685 237.647 603.983C243.7 598.629 250.037 592.312 254.414 585.508C257.068 587.399 259.278 590.087 261.523 592.44L272.753 604.604C274.639 606.782 276.554 609.548 278.813 611.324L278.867 612.869C271.843 620.044 264.69 626.851 256.531 632.754C234.307 648.834 208.973 659.336 182.528 666.212C167.893 670.018 152.834 672.817 137.67 672.996C115.836 673.254 87.9706 670.125 70.25 656.034L69.602 655.527C63.9263 651.028 60.2699 645.379 57.4877 638.775L56.6838 638.637Z"/>
	<path fill="#A1294E" transform="scale(0.488281 0.488281)" d="M560.459 201.44C563.658 204.84 565.752 209.885 567.947 214L582.243 241.323C583.598 243.917 587.419 248.794 587.542 251.595L588.743 251.041C596.708 259.084 603.347 267.679 609.937 276.868C619.829 290.66 628.692 305.251 635.035 321.031C636.921 325.724 639.137 330.858 640.26 335.78L641.801 340.387L644.756 347.461L644.443 347.937C642.749 350.558 641.588 353.419 639.95 356.069C635.939 362.556 630.694 368.441 625.332 373.839C618.183 381.036 610.211 387.408 602.266 393.691L546.622 433.549C540.476 437.797 534.43 442.167 528 445.986C526.131 447.097 523.764 448.828 521.694 449.375L521.587 450.186C520.571 450.788 519.321 451.38 518.544 452.278L518.484 452.822C518.503 461.444 518.688 471.202 516.823 479.623C507.428 483.926 499.782 487.877 491.647 494.405C488.254 485.461 491.033 477.373 493.503 468.719L416.826 523.563L356.384 568.457C362.142 582.195 370.984 596.891 382.249 606.8L350.502 633.186C337.945 642.644 324.511 651.019 310.915 658.881C306.406 650.406 301.512 642.158 296.1 634.227L285.794 619.749C284.297 617.778 280.585 614.384 280.156 612.174L278.813 611.324C276.554 609.548 274.639 606.782 272.753 604.604L261.523 592.44C259.278 590.087 257.068 587.399 254.414 585.508L250.503 581.956C244.084 575.246 237.864 566.973 235.077 558C232.621 550.095 233.883 542.934 237.676 535.716L241.924 529.433C228.25 522.676 211.893 516.435 196.816 513.86L183.702 511.517C181.948 510.749 180.995 509.665 179.721 508.264C179.881 506.883 180.548 505.554 181.368 504.44C183.561 501.459 186.099 499.972 189.733 499.575L196.273 499.975C201.74 495.874 206.569 490.496 211.59 485.818L208.276 481.009L207.754 479.448C207.362 477.875 207.316 476.329 208.272 474.966C210.753 471.43 214.028 470.76 218.014 470.056L237.034 446.308C236.42 445.373 235.611 444.125 235.332 443.03C234.837 441.091 235.83 438.869 236.974 437.324C238.268 435.575 240.764 433.266 243.047 433.072C244.472 432.95 244.85 433.671 245.822 434.549L246.281 435.847L249.206 440.321L259.413 423.239L262.073 418.05L257.515 412.612C256.835 411.118 256.27 409.683 256.41 408C256.611 405.581 258.134 402.592 260.056 401.098C261.635 399.872 262.696 400.526 264.497 400.881L269.043 405.305C272.502 398.98 274.871 391.504 276.402 384.482C275.149 382.722 273.76 381.197 272.29 379.623L270.086 375.284C270.576 373.518 271.024 371.545 271.895 369.926C273.236 367.436 275.415 366.687 277.976 365.939L278.857 366.682L284.584 346.938L281.856 343.034C280.453 340.364 278.544 337.319 278.54 334.225C278.534 329.53 280.228 327.233 283.321 323.971L284.881 325.445C286.203 327.153 286.214 330.638 287.702 331.702C289.379 332.901 290.604 333.724 291.505 335.651L302.906 352.034L312.193 363.955C319.869 361.086 327.563 358 335.598 356.275C338.578 355.488 341.589 354.492 344.681 354.363L345.054 354.218C346.426 353.84 347.031 353.832 348.126 352.81C350.155 345.367 353.86 336.148 358.595 330.029C367.326 318.746 380.651 317.607 393.769 316.206L415.225 313.769C443.621 310.072 472.831 305.627 498.578 292.365C508.423 287.293 517.418 280.818 525.762 273.565C532.14 268.02 538.184 262.467 543.327 255.7C550.708 245.99 555.309 234.468 558.339 222.73C560.131 215.79 561.429 208.611 560.459 201.44Z"/>
	<path fill="#299B8D" transform="scale(0.488281 0.488281)" d="M328.79 424.895C330.897 422.54 334.589 421.167 337.702 420.959C340.958 420.741 344.217 421.503 346.685 423.735C349.237 426.043 350.131 428.899 350.145 432.266C350.158 435.57 349.071 438.354 346.711 440.708C344.486 442.925 342.084 443.752 338.99 443.723C335.611 443.69 331.467 441.945 329.066 439.515L328.316 438.585C332.126 438.255 340.904 438.505 343.62 435.592C344.781 434.346 345.063 432.66 344.933 431.011C344.77 428.945 343.945 427.065 342.322 425.737C339.135 423.131 332.723 424.577 328.79 424.895Z"/>
	<path fill="#299B8D" transform="scale(0.488281 0.488281)" d="M259.832 524.769C264.134 524.567 269.547 526.844 272.628 529.75C274.782 531.782 276.436 535.018 276.556 538.01C276.667 540.773 275.628 543.377 273.75 545.403C271.582 547.742 268.688 548.798 265.552 548.71C261.968 548.61 258.803 547.059 256.455 544.344C255.055 542.724 252.039 538.16 252.1 536.106C255.284 538.46 260.071 542.417 264.146 542.534C265.397 542.569 266.727 541.987 267.591 541.089C268.977 539.648 269.592 537.464 269.416 535.502C268.968 530.504 263.532 527.339 259.832 524.769Z"/>
	<path fill="#299B8D" transform="scale(0.488281 0.488281)" d="M306.404 460.942C309.461 458.649 314.27 457.627 318.037 458.066C320.675 458.374 323.241 459.748 324.81 461.914C327.215 465.233 328.161 469.212 327.235 473.234C326.454 476.628 323.78 479.833 320.739 481.46C318.439 482.692 315.055 483.174 312.497 482.411C309.475 481.51 305.9 477.37 303.936 474.984C307.619 475.17 316.02 475.974 318.75 473.467C320.367 471.982 321.113 470.162 321.162 467.989C321.203 466.201 320.767 464.969 319.501 463.688C316.274 460.422 310.608 461.012 306.404 460.942Z"/>
	<path fill="#299B8D" transform="scale(0.488281 0.488281)" d="M277.964 494.839C281.382 492.237 289.53 491.838 293.837 492.441C297.193 492.91 299.865 494.186 301.924 496.912C303.77 499.356 305.282 503.66 304.724 506.723C304.121 510.041 302.375 513.152 299.5 514.993C296.799 516.721 293.416 517.158 290.309 516.396C286.031 515.346 281.715 511.806 278.976 508.411C283.381 508.908 292.001 511.686 295.75 508.973C297.138 507.969 298.034 506.124 298.146 504.431C298.279 502.425 297.565 500.506 296.239 499.014C292.108 494.367 283.706 495.017 277.964 494.839Z"/>
	<path fill="#299B8D" transform="scale(0.488281 0.488281)" d="M342.486 388.789C344.564 385.762 349.126 383.676 352.5 382.398L353.231 382.115C356.571 380.892 361.222 381.102 364.386 382.728C367.083 384.115 369.237 386.768 370.122 389.656C371.084 392.798 370.668 396.551 369.082 399.418C367.221 402.782 363.644 405.664 359.839 406.472C355.798 407.331 350.957 406.225 347.654 403.822C346.784 403.189 346.045 402.413 345.329 401.618L352.513 400.23C356.134 399.669 360.483 399.809 363.08 396.83C364.105 395.655 364.727 393.853 364.464 392.285C364.193 390.665 362.975 389.014 361.592 388.168C355.499 384.44 348.784 387.459 342.486 388.789Z"/>
	<path fill="#299B8D" transform="scale(0.488281 0.488281)" d="M360.55 348.884C361.336 346.269 366.521 342.644 368.912 341.3C372.409 339.335 377.355 338.652 381.197 339.868C384.094 340.784 386.341 342.579 387.719 345.306C389.246 348.327 389.775 352.603 388.607 355.812C387.298 359.41 384.245 362.188 380.796 363.702C377.267 365.252 373.3 365.078 369.77 363.652C368.105 362.98 366.749 362.046 365.331 360.964C369.731 359.624 375.908 359.07 379.198 355.633C380.362 354.417 381.218 352.459 380.985 350.75C380.73 348.879 379.471 347.237 377.877 346.28C373.287 343.524 365.344 347.711 360.55 348.884Z"/>
	<path fill="#F9E7BB" transform="scale(0.488281 0.488281)" d="M237.034 446.308C236.42 445.373 235.611 444.125 235.332 443.03C234.837 441.091 235.83 438.869 236.974 437.324C238.268 435.575 240.764 433.266 243.047 433.072C244.472 432.95 244.85 433.671 245.822 434.549L246.281 435.847L249.206 440.321L257.86 452.697L266.276 464.779L299.404 461.237L306.404 460.942C310.608 461.012 316.274 460.422 319.501 463.688C320.767 464.969 321.203 466.201 321.162 467.989C321.113 470.162 320.367 471.982 318.75 473.467C316.02 475.974 307.619 475.17 303.936 474.984L287.317 475.631C285.072 478.869 282.806 483.047 280.025 485.791L274.898 492.552C272.925 491.843 271.442 489.76 270.113 488.17L262.527 479.237C259.22 479.307 255.598 480.309 252.304 480.801L230.991 483.657L227.991 486.717L221.187 475.647C220.856 474.916 220.811 474.54 220.777 473.709C220.673 471.159 219.374 472.091 218.014 470.056L237.034 446.308Z"/>
	<path fill="#F05A15" transform="scale(0.488281 0.488281)" d="M243.093 469.85L249.039 462.483C250.225 464.141 251.563 465.797 252.547 467.582L243.093 469.85Z"/>
	<path fill="#F77916" transform="scale(0.488281 0.488281)" d="M280.025 485.791L274.159 476.933L287.317 475.631C285.072 478.869 282.806 483.047 280.025 485.791Z"/>
	<path fill="#93042E" transform="scale(0.488281 0.488281)" d="M237.034 446.308C238.531 447.753 240.149 449.28 240.849 451.301L249.039 462.483L243.093 469.85L230.991 483.657L227.991 486.717L221.187 475.647C220.856 474.916 220.811 474.54 220.777 473.709C220.673 471.159 219.374 472.091 218.014 470.056L237.034 446.308Z"/>
	<path fill="#FCC153" transform="scale(0.488281 0.488281)" d="M237.034 446.308C238.531 447.753 240.149 449.28 240.849 451.301L221.187 475.647C220.856 474.916 220.811 474.54 220.777 473.709C220.673 471.159 219.374 472.091 218.014 470.056L237.034 446.308Z"/>
	<path fill="#F9E7BB" transform="scale(0.488281 0.488281)" d="M257.515 412.612C256.835 411.118 256.27 409.683 256.41 408C256.611 405.581 258.134 402.592 260.056 401.098C261.635 399.872 262.696 400.526 264.497 400.881L269.043 405.305L278.729 417.311L279.791 417.649L280.389 417.588C288.843 416.663 296.67 413.371 304.795 411.189L320.488 425.494L321.329 425.027L321.463 426.212L328.79 424.895C332.723 424.577 339.135 423.131 342.322 425.737C343.945 427.065 344.77 428.945 344.933 431.011C345.063 432.66 344.781 434.346 343.62 435.592C340.904 438.505 332.126 438.255 328.316 438.585L313.409 440.267L304.358 451.993L298.781 460.264L299.404 461.237L266.276 464.779L257.86 452.697L249.206 440.321L259.413 423.239L262.073 418.05L257.515 412.612Z"/>
	<path fill="#F77916" transform="scale(0.488281 0.488281)" d="M271.813 429.119L277.78 435.612L266.828 438.902L271.813 429.119Z"/>
	<path fill="#F77916" transform="scale(0.488281 0.488281)" d="M304.358 451.993L298.656 442.156L313.409 440.267L304.358 451.993Z"/>
	<path fill="#93042E" transform="scale(0.488281 0.488281)" d="M259.413 423.239L262.073 418.05L271.813 429.119L266.828 438.902L259.097 451.79L257.86 452.697L249.206 440.321L259.413 423.239Z"/>
	<path fill="#F77916" transform="scale(0.488281 0.488281)" d="M259.097 451.79C264.231 451.376 269.182 450.405 274.231 449.431C278.304 448.646 282.682 447.889 286.472 446.162L298.781 460.264L299.404 461.237L266.276 464.779L257.86 452.697L259.097 451.79Z"/>
	<path fill="#F77916" transform="scale(0.488281 0.488281)" d="M279.791 417.649L280.389 417.588C288.843 416.663 296.67 413.371 304.795 411.189L320.488 425.494L321.329 425.027L321.463 426.212C310.759 427.905 300.266 428.718 289.742 431.62L278.729 417.311L279.791 417.649Z"/>
	<path fill="#F9E7BB" transform="scale(0.488281 0.488281)" d="M218.014 470.056C219.374 472.091 220.673 471.159 220.777 473.709C220.811 474.54 220.856 474.916 221.187 475.647L227.991 486.717L230.991 483.657L252.304 480.801C255.598 480.309 259.22 479.307 262.527 479.237L270.113 488.17C271.442 489.76 272.925 491.843 274.898 492.552L274.56 494.655L277.964 494.839C283.706 495.017 292.108 494.367 296.239 499.014C297.565 500.506 298.279 502.425 298.146 504.431C298.034 506.124 297.138 507.969 295.75 508.973C292.001 511.686 283.381 508.908 278.976 508.411C273.868 508.992 267.688 508.085 262.503 507.819L252.268 520.365C253.856 521.424 258.092 524.668 259.832 524.769C263.532 527.339 268.968 530.504 269.416 535.502C269.592 537.464 268.977 539.648 267.591 541.089C266.727 541.987 265.397 542.569 264.146 542.534C260.071 542.417 255.284 538.46 252.1 536.106C249.239 533.46 245.358 531.271 241.924 529.433C228.25 522.676 211.893 516.435 196.816 513.86L183.702 511.517C181.948 510.749 180.995 509.665 179.721 508.264C179.881 506.883 180.548 505.554 181.368 504.44C183.561 501.459 186.099 499.972 189.733 499.575L196.273 499.975C201.74 495.874 206.569 490.496 211.59 485.818L208.276 481.009L207.754 479.448C207.362 477.875 207.316 476.329 208.272 474.966C210.753 471.43 214.028 470.76 218.014 470.056Z"/>
	<path fill="#93042E" transform="scale(0.488281 0.488281)" d="M211.59 485.818L218.951 496.25L218.5 496.817L217.957 496.872C214.348 497.292 213.241 499.52 211.177 502.189L210.912 502.532L196.273 499.975C201.74 495.874 206.569 490.496 211.59 485.818Z"/>
	<path fill="#F77916" transform="scale(0.488281 0.488281)" d="M228.5 509.23L227.572 508.338L227.75 507.979L262.503 507.819L252.268 520.365L228.5 509.23Z"/>
	<path fill="#F77916" transform="scale(0.488281 0.488281)" d="M230.991 483.657L252.304 480.801C255.598 480.309 259.22 479.307 262.527 479.237L270.113 488.17C271.442 489.76 272.925 491.843 274.898 492.552L274.56 494.655L233.764 495.502C231.547 492.779 229.371 489.966 227.991 486.717L230.991 483.657Z"/>
	<defs>
		<linearGradient id="gradient_4" gradientUnits="userSpaceOnUse" x1="270.25488" y1="402.5065" x2="363.05676" y2="328.60669">
			<stop offset="0" stop-color="#F8DA9A"/>
			<stop offset="1" stop-color="#FAF2B9"/>
		</linearGradient>
	</defs>
	<path fill="url(#gradient_4)" transform="scale(0.488281 0.488281)" d="M281.856 343.034C280.453 340.364 278.544 337.319 278.54 334.225C278.534 329.53 280.228 327.233 283.321 323.971L284.881 325.445C286.203 327.153 286.214 330.638 287.702 331.702C289.379 332.901 290.604 333.724 291.505 335.651L302.906 352.034L312.193 363.955C319.869 361.086 327.563 358 335.598 356.275C338.578 355.488 341.589 354.492 344.681 354.363L345.054 354.218C346.426 353.84 347.031 353.832 348.126 352.81L360.55 348.884C365.344 347.711 373.287 343.524 377.877 346.28C379.471 347.237 380.73 348.879 380.985 350.75C381.218 352.459 380.362 354.417 379.198 355.633C375.908 359.07 369.731 359.624 365.331 360.964L350 365.029C348.641 365.359 346.12 366.31 344.792 366.229L339.923 381.499C339.187 384.197 338.191 387.003 338.017 389.807C339.602 389.632 340.968 389.276 342.486 388.789C348.784 387.459 355.499 384.44 361.592 388.168C362.975 389.014 364.193 390.665 364.464 392.285C364.727 393.853 364.105 395.655 363.08 396.83C360.483 399.809 356.134 399.669 352.513 400.23L345.329 401.618L330.942 404.197C329.855 407.217 328.538 412.723 326.342 415.066C324.657 418.25 322.491 421.636 321.329 425.027L320.488 425.494L304.795 411.189C296.67 413.371 288.843 416.663 280.389 417.588L279.791 417.649L278.729 417.311L269.043 405.305C272.502 398.98 274.871 391.504 276.402 384.482C275.149 382.722 273.76 381.197 272.29 379.623L270.086 375.284C270.576 373.518 271.024 371.545 271.895 369.926C273.236 367.436 275.415 366.687 277.976 365.939L278.857 366.682L284.584 346.938L281.856 343.034Z"/>
	<path fill="#F05A15" transform="scale(0.488281 0.488281)" d="M286.948 396.2C288.989 398.155 291.441 400.153 293.162 402.373L284.037 405.456C285.344 402.565 286.138 399.263 286.948 396.2Z"/>
	<path fill="#F77916" transform="scale(0.488281 0.488281)" d="M326.342 415.066L317.803 407.441L330.942 404.197C329.855 407.217 328.538 412.723 326.342 415.066Z"/>
	<path fill="#F77916" transform="scale(0.488281 0.488281)" d="M338.017 389.807L336 390.087C332.834 387.86 330.188 384.462 327.657 381.547C325.613 379.193 323.309 376.828 321.571 374.24C329.102 370.793 336.817 368.393 344.792 366.229L339.923 381.499C339.187 384.197 338.191 387.003 338.017 389.807Z"/>
	<path fill="#93042E" transform="scale(0.488281 0.488281)" d="M276.402 384.482L286.948 396.2C286.138 399.263 285.344 402.565 284.037 405.456L279.791 417.649L278.729 417.311L269.043 405.305C272.502 398.98 274.871 391.504 276.402 384.482Z"/>
	<path fill="#F77916" transform="scale(0.488281 0.488281)" d="M309.335 377.063L325.404 392.897L308.75 397.26L306.75 397.579L292.316 383.224C297.863 381.372 303.459 380.111 308.698 377.396L309.335 377.063Z"/>
	<path fill="#93042E" transform="scale(0.488281 0.488281)" d="M284.584 346.938C285.834 348.469 287.18 349.979 288.243 351.646L301.351 368.239C299.079 369.067 296.58 369.76 294.534 371.062C293.32 375.062 292.474 378.933 292.109 383.103L282.683 371.617L278.857 366.682L284.584 346.938Z"/>
	<path fill="#FCC153" transform="scale(0.488281 0.488281)" d="M284.584 346.938C285.834 348.469 287.18 349.979 288.243 351.646L282.683 371.617L278.857 366.682L284.584 346.938Z"/>
	<path fill="#771238" transform="scale(0.488281 0.488281)" d="M280.156 612.174C281.659 611.732 282.849 609.851 283.777 608.619C287.728 603.379 290.965 597.798 294.171 592.085L332.926 519.09L346.75 491.118C348.476 487.796 350.046 484.15 352.047 481C352.933 479.605 353.116 478.862 354.751 478.523C344.299 507.118 344.737 540.202 356.384 568.457C362.142 582.195 370.984 596.891 382.249 606.8L350.502 633.186C337.945 642.644 324.511 651.019 310.915 658.881C306.406 650.406 301.512 642.158 296.1 634.227L285.794 619.749C284.297 617.778 280.585 614.384 280.156 612.174Z"/>
	<path fill="#F0A549" transform="scale(0.488281 0.488281)" d="M587.542 251.595L588.743 251.041C596.708 259.084 603.347 267.679 609.937 276.868C619.829 290.66 628.692 305.251 635.035 321.031C636.921 325.724 639.137 330.858 640.26 335.78L641.801 340.387L644.756 347.461L644.443 347.937C642.749 350.558 641.588 353.419 639.95 356.069C635.939 362.556 630.694 368.441 625.332 373.839C618.183 381.036 610.211 387.408 602.266 393.691L546.622 433.549C540.476 437.797 534.43 442.167 528 445.986C526.131 447.097 523.764 448.828 521.694 449.375L521.587 450.186C520.571 450.788 519.321 451.38 518.544 452.278L518.484 452.822C518.503 461.444 518.688 471.202 516.823 479.623C507.428 483.926 499.782 487.877 491.647 494.405C488.254 485.461 491.033 477.373 493.503 468.719L416.826 523.563L356.384 568.457C344.737 540.202 344.299 507.118 354.751 478.523C355.438 478.08 357.066 473.501 357.533 472.5C359.527 468.22 362.099 464.045 364.875 460.235C373.527 448.357 384.809 437.641 396.828 429.214C409.671 420.209 423.342 412.603 437.546 405.979C466.693 392.387 498.638 382.118 520.903 357.586C529.759 347.829 537.78 337.269 544.777 326.103L571.583 279.667L582.995 258C584.257 255.829 585.554 253.176 587.542 251.595Z"/>
	<path fill="#F77916" transform="scale(0.488281 0.488281)" d="M416.826 523.563C416.863 519.954 417.432 516.645 418.2 513.129C419.692 506.295 422.817 499.864 426.048 493.703C440.637 465.879 465.203 442.854 487.765 421.383C496.607 412.968 505.674 404.745 513.812 395.625C518.724 390.121 523.774 384.586 528.088 378.599L534.197 369.452C535.591 367.213 536.597 364.43 538.862 362.981L528.181 395.33C524.446 408.431 523.234 422.382 522.377 435.941C522.102 440.304 521.489 445.033 521.694 449.375L521.587 450.186C520.571 450.788 519.321 451.38 518.544 452.278L518.484 452.822C518.503 461.444 518.688 471.202 516.823 479.623C507.428 483.926 499.782 487.877 491.647 494.405C488.254 485.461 491.033 477.373 493.503 468.719L416.826 523.563Z"/>
	<path fill="#10736E" transform="scale(0.488281 0.488281)" d="M506.062 460.09C508.537 458.42 515.949 452.245 518.544 452.278L518.484 452.822C518.503 461.444 518.688 471.202 516.823 479.623C507.428 483.926 499.782 487.877 491.647 494.405C488.254 485.461 491.033 477.373 493.503 468.719L506.062 460.09Z"/>
	<path fill="#108482" transform="scale(0.488281 0.488281)" d="M506.062 460.09C508.537 458.42 515.949 452.245 518.544 452.278L518.484 452.822C517.447 454.64 515.533 458.325 513.804 459.464C512.912 460.052 510.645 460.462 509.558 460.735C508.265 461.059 507.229 460.593 506.062 460.09Z"/>
	<path fill="#299B8D" transform="scale(0.488281 0.488281)" d="M587.542 251.595L588.743 251.041C596.708 259.084 603.347 267.679 609.937 276.868C619.829 290.66 628.692 305.251 635.035 321.031C636.921 325.724 639.137 330.858 640.26 335.78L641.801 340.387L644.756 347.461L644.443 347.937C642.749 350.558 641.588 353.419 639.95 356.069C635.939 362.556 630.694 368.441 625.332 373.839C618.183 381.036 610.211 387.408 602.266 393.691L546.622 433.549C540.476 437.797 534.43 442.167 528 445.986C526.131 447.097 523.764 448.828 521.694 449.375C521.489 445.033 522.102 440.304 522.377 435.941C523.234 422.382 524.446 408.431 528.181 395.33L538.862 362.981C540.522 360.309 541.628 356.659 542.885 353.74L551.53 334.015L569.543 295.542L582.75 266.147C584.588 261.586 586.931 256.493 587.542 251.595Z"/>
</svg>
