<?xml version="1.0" encoding="utf-8" ?>
<svg xmlns="http://www.w3.org/2000/svg" xmlns:xlink="http://www.w3.org/1999/xlink" width="500" height="500">
	<path fill="#0A9980" transform="scale(0.488281 0.488281)" d="M-0 -0L1024 0L1024 1024L-0 1024L0 -0Z"/>
	<path fill="#1F2A69" transform="scale(0.488281 0.488281)" d="M204.42 853.389L249.539 853.359L249.446 862.889C245.758 863.841 240.511 863.206 236.587 863.221L204.356 863.204L204.42 853.389Z"/>
	<path fill="#EBA849" transform="scale(0.488281 0.488281)" d="M605.488 734.677L605.06 729.75C605.11 726.925 606.019 724.07 608.168 722.143C609.67 720.796 611.221 720.249 613.247 720.478C617.194 720.923 620.14 724.84 622.508 727.666C625.35 732.018 628.867 737.285 627.86 742.75C627.362 745.458 625.939 747.847 623.565 749.307C621.906 750.327 620.07 750.802 618.162 750.294C613.543 749.065 609.758 744.854 607.625 740.75C606.656 738.886 605.928 736.721 605.488 734.677Z"/>
	<path fill="#EBA849" transform="scale(0.488281 0.488281)" d="M839.218 695.75C841.403 695.407 842.91 695.611 845.005 696.345C850.515 698.274 853.697 703.357 856.134 708.363C857.843 711.872 858.902 715.502 857.429 719.315C856.473 721.79 855.111 723.12 852.755 724.25C850.46 724.629 848.851 724.573 846.676 723.691C841.353 721.532 837.51 715.924 835.35 710.769C833.997 707.54 833.284 702.537 834.834 699.228C835.702 697.376 837.414 696.473 839.218 695.75Z"/>
	<path fill="#EBA849" transform="scale(0.488281 0.488281)" d="M782.574 736.75C785.155 736.57 787.675 737.081 789.956 738.349C795.013 741.161 799.097 746.972 800.541 752.514C801.414 755.866 801.825 760.002 799.825 763.054C798.758 764.682 797.588 765.134 795.75 765.569C793.509 765.655 791.801 765.457 789.75 764.495C784.429 762.001 780.071 756.385 778.14 750.874C776.809 747.074 775.676 743.589 777.738 739.84C778.757 737.987 780.662 737.312 782.574 736.75Z"/>
	<path fill="#EBA849" transform="scale(0.488281 0.488281)" d="M809.887 645.25C811.065 645.006 812.457 644.865 813.636 645.134C818.156 646.164 822.731 650.869 825.116 654.74C827.696 658.928 829.874 664.232 828.472 669.188C827.677 672.001 826.023 673.16 823.552 674.501C822.193 674.598 820.582 674.71 819.25 674.367C814.174 673.058 809.334 667.36 807.045 662.853C805.009 658.845 803.526 654.334 805.159 649.931C806.054 647.517 807.575 646.248 809.887 645.25Z"/>
	<path fill="#EBA849" transform="scale(0.488281 0.488281)" d="M665.026 816.75C666.099 816.579 667.26 816.355 668.345 816.502C672.282 817.033 676.041 820.587 678.411 823.539C681.43 827.301 685.227 833.8 684.488 838.75C683.977 842.174 682.304 844.089 679.561 846.009L679.237 846.083C677.099 846.593 675.164 846.971 673.001 846.315C668.879 845.064 666.035 841.36 664.004 837.75C661.369 833.064 659.113 826.584 660.876 821.244C661.667 818.846 662.821 817.866 665.026 816.75Z"/>
	<path fill="#94F7F2" transform="scale(0.488281 0.488281)" d="M808.6 785.25C810.214 785.014 811.677 784.897 813.277 785.313C817.898 786.513 821.862 790.096 824.255 794.135C826.657 798.188 828.798 803.778 827.287 808.52C826.403 811.298 824.708 812.688 822.221 814.008L821.819 814.084L821.145 814.186C818.881 814.56 817.481 814.288 815.37 813.366C810.435 811.211 806.568 806.283 804.75 801.31C803.38 797.563 802.538 792.628 804.36 788.915C805.353 786.892 806.511 785.992 808.6 785.25Z"/>
	<path fill="#EBA849" transform="scale(0.488281 0.488281)" d="M578.228 806.75C579.509 806.423 580.934 806.307 582.25 806.518C585.638 807.059 589.078 811.718 590.804 814.41C593.478 818.581 597.116 825.444 595.827 830.459C594.931 833.948 593.152 835.538 590.146 837.353C588.533 837.551 586.597 837.742 585.023 837.269C580.77 835.991 577.8 831.934 575.754 828.219C572.939 823.106 571.43 818.207 573.225 812.493C574.131 809.608 575.554 808.082 578.228 806.75Z"/>
	<path fill="#EBA849" transform="scale(0.488281 0.488281)" d="M607.234 855.75C608.537 855.53 609.545 855.414 610.846 855.726C615.572 856.856 618.746 860.703 621.222 864.624C624.075 869.143 626.285 874.515 624.905 879.881C624.1 883.01 622.283 884.44 619.601 886.036C618.059 886.451 616.088 886.651 614.535 886.218C610.13 884.993 606.911 881.198 604.933 877.255C602.46 872.323 600.562 865.864 602.568 860.452C603.446 858.083 604.994 856.768 607.234 855.75Z"/>
	<path fill="#EBA849" transform="scale(0.488281 0.488281)" d="M750.939 688.25C752.203 688.014 753.703 687.887 754.947 688.24C760.461 689.804 765.277 695.77 767.73 700.78C769.725 704.856 770.777 709.553 769.056 713.934C768.102 716.363 766.245 717.783 763.907 718.75C762.299 719.111 760.635 719.146 759.082 718.549C753.581 716.435 749.806 709.762 747.518 704.661C746.002 701.283 744.255 696.68 745.809 693.075C746.839 690.685 748.569 689.195 750.939 688.25Z"/>
	<path fill="#94F7F2" transform="scale(0.488281 0.488281)" d="M748.258 819.75C749.588 819.491 751.152 819.312 752.471 819.667C757.281 820.96 761.487 825.885 763.75 830.086C765.823 833.935 767.301 838.679 765.902 843C764.873 846.178 762.454 847.827 759.634 849.32L759.301 849.337C757.869 849.439 756.115 849.757 754.716 849.377C750.567 848.25 747.06 844.161 745.114 840.467C742.814 836.1 741.205 830.451 742.887 825.589C743.85 822.809 745.683 821.016 748.258 819.75Z"/>
	<path fill="#EBA849" transform="scale(0.488281 0.488281)" d="M637.245 767.25C637.976 767.117 638.748 766.942 639.5 767.026C643.691 767.495 647.99 772.01 650.509 775.153C653.98 779.48 656.734 785.071 655.891 790.75C655.351 794.392 653.486 796.368 650.599 798.442C649.335 798.741 647.948 799.126 646.658 798.794C641.387 797.438 637.528 792.656 635.086 788.072C632.532 783.278 630.887 777.688 632.712 772.333C633.56 769.844 634.951 768.434 637.245 767.25Z"/>
	<path fill="#94F7F2" transform="scale(0.488281 0.488281)" d="M628.903 900.25C630.153 899.851 631.707 899.819 633 900.018C637.026 900.636 641.427 905.053 643.494 908.407C645.95 912.395 648.118 918.314 646.735 923.007C645.709 926.488 643.745 928.073 640.734 929.855C639.124 930.025 637.048 930.349 635.473 929.939C631.57 928.922 627.935 925.368 626.061 921.897C623.682 917.492 622.259 911.194 623.823 906.25C624.721 903.41 626.277 901.601 628.903 900.25Z"/>
	<path fill="#94F7F2" transform="scale(0.488281 0.488281)" d="M867.431 745.054C869.276 745.014 871.428 745.161 873.195 745.712C877.872 747.17 881.236 751.208 883.344 755.449C885.2 759.183 886.829 764.864 885.235 768.94C884.122 771.788 882.26 772.925 879.611 774.214C877.999 774.381 876.283 774.642 874.679 774.309C870.024 773.341 866.52 769.7 864.208 765.736C861.814 761.628 859.994 755.959 861.601 751.25C862.685 748.072 864.552 746.547 867.431 745.054Z"/>
	<path fill="#EBA849" transform="scale(0.488281 0.488281)" d="M545.393 772.471L544.815 769.273C544.34 766.241 544.783 762.665 546.722 760.168C547.937 758.605 549.997 757.334 552 757.21C555.57 756.99 558.058 759.284 560.654 761.364C564.215 765.933 569.718 773.14 569.195 779.25C568.95 782.113 567.527 785.226 565.156 786.926C563.356 788.216 561.421 788.755 559.227 788.377C555.091 787.665 551.775 784.412 549.497 781.078C547.714 778.467 546.408 775.452 545.393 772.471Z"/>
	<path fill="#EBA849" transform="scale(0.488281 0.488281)" d="M722.225 771.75C722.893 771.556 723.389 771.488 724.084 771.459C727.69 771.309 730.731 773.738 733.239 776.102C737.683 780.29 742.478 787.465 742.317 793.789C742.213 797.89 740.177 800.235 737.362 802.836C735.615 803.568 733.57 803.88 731.684 803.539C728.158 802.902 724.782 798.907 722.884 796.038C719.615 791.098 716.137 783.472 717.7 777.4C718.397 774.69 719.848 773.097 722.225 771.75Z"/>
	<path fill="#94F7F2" transform="scale(0.488281 0.488281)" d="M690.177 862.25C691.185 862.069 691.897 861.961 692.926 862.145C697.213 862.913 702.464 867.99 704.872 871.529C707.347 875.164 709.177 880.251 708.201 884.672C707.318 888.668 705.08 890.85 701.667 892.896C699.701 893.243 697.745 893.423 695.802 892.826C691.379 891.464 687.902 886.649 686.023 882.639C683.739 877.764 682.785 872.112 684.92 867.008C685.906 864.65 687.847 863.136 690.177 862.25Z"/>
	<path fill="#EBA849" transform="scale(0.488281 0.488281)" d="M693.407 724.25C694.31 724.069 695.107 724.085 696.011 724.23C701.441 725.099 706.098 729.948 709.156 734.264C711.568 737.669 714.152 743.192 713.273 747.377C712.484 751.137 710.437 753.532 707.254 755.547C705.22 755.889 703.483 756.249 701.5 755.46C695.872 753.218 691.685 746.399 689.556 741.02C687.822 736.64 686.839 732.534 688.924 728.096C689.926 725.963 691.224 725.009 693.407 724.25Z"/>
	<path fill="#BA4806" transform="scale(0.488281 0.488281)" d="M333.993 768.405C348.629 769.648 362.13 777.023 371.58 788.186C380.194 798.36 384.673 811.611 385.18 824.834C379.702 824.115 373.666 824.826 368.123 824.892L333.894 825.086L333.993 768.405Z"/>
	<path fill="#9E290C" transform="scale(0.488281 0.488281)" d="M333.894 825.086L368.123 824.892C373.666 824.826 379.702 824.115 385.18 824.834C385.649 847.077 387.913 871.233 371.094 888.532C360.717 899.207 348.522 903.288 334.034 904.487L333.915 845.298L333.894 825.086Z"/>
	<path fill="#F57626" transform="scale(0.488281 0.488281)" d="M281.958 807.888C284.505 798.396 288.647 790.492 295.687 783.494C303.26 775.964 314.064 770.365 324.669 768.723C327.677 768.258 330.947 768.404 333.993 768.405L333.894 825.086L333.915 845.298L334.034 904.487C321.379 903.724 309.295 900.673 299.431 892.276C287.213 881.874 281.91 868.85 280.619 853.17L280.867 819.494C280.928 815.502 281.052 811.788 281.958 807.888Z"/>
	<path fill="#BA4806" transform="scale(0.488281 0.488281)" d="M280.867 819.494L280.979 836.68C280.978 838.153 280.582 840.798 280.971 842.062C281.369 843.353 285.035 847.16 286.154 848.236C288.431 850.423 290.949 852.143 293.592 853.844C305.884 861.752 319.777 864.607 333.656 868.199C333.683 860.872 332.883 852.492 333.915 845.298L334.034 904.487C321.379 903.724 309.295 900.673 299.431 892.276C287.213 881.874 281.91 868.85 280.619 853.17L280.867 819.494Z"/>
	<path fill="#1BB5AA" transform="scale(0.488281 0.488281)" d="M210.639 268.903L211.084 602.412C208.314 598.837 206.249 594.065 204.22 590.008C198.838 579.243 194.577 567.943 190.618 556.589C182.776 534.095 176.984 510.918 173.75 487.314C165.155 424.574 172.421 358.097 196.016 299.208C199.957 289.373 204.225 277.313 210.639 268.903Z"/>
	<path fill="#615A87" transform="scale(0.488281 0.488281)" d="M210.639 268.903C211.462 264.845 210.984 259.911 210.984 255.772C210.984 245.503 210.589 235.139 211.774 224.922C214.971 197.37 232.076 168.663 253.716 151.635C279.678 131.207 309.341 121.989 342.28 124.692C348.043 125.165 353.664 126.629 359.391 127.324C366.292 129.173 373.437 131.301 379.954 134.25C402.615 144.504 423.373 162.984 435.782 184.544C441.692 194.813 446.105 205.741 451.065 216.473C453.093 220.861 454.932 225.568 457.457 229.696L438.711 239.521L421.801 248.753C410.282 225.244 403.347 200.267 381.836 183.402C365.454 170.559 342.842 163.063 321.948 165.799C308.386 167.575 295.081 172.2 283.975 180.357C271.198 189.74 260.979 202.67 255.583 217.63C253.123 224.45 251.924 231.25 250.856 238.395C250.151 243.923 250.31 249.589 250.297 255.153L250.305 279.889L250.27 360.307L250.046 547.257L250.002 660.07L249.627 807.935L281.958 807.888C281.052 811.788 280.928 815.502 280.867 819.494L280.619 853.17L249.799 853.506C249.79 855.784 250.386 861.022 249.446 862.889L249.539 853.359L204.42 853.389L203.128 853.486L162.553 853.471C156.544 853.483 149.064 854.368 143.266 853.24C139.507 852.508 135.639 850.036 132.955 847.364C128.261 842.693 125.913 836.363 126.047 829.75C126.164 823.934 129.106 817.519 133.289 813.509C135.987 810.921 139.808 809.035 143.458 808.261C150.845 806.693 159.605 807.59 167.17 807.567L211.568 807.48L211.505 662.274L211.489 622.132C211.473 615.749 212.043 608.717 211.084 602.412L210.639 268.903Z"/>
	<path fill="#1F2A69" transform="scale(0.488281 0.488281)" d="M231.754 235.788C234.666 210.109 246.622 185.005 267.104 168.684C288.617 151.542 315.122 142.79 342.711 146.041C368.45 149.073 393.379 162.854 409.347 183.361C422.524 200.285 429.417 220.423 438.711 239.521L421.801 248.753C410.282 225.244 403.347 200.267 381.836 183.402C365.454 170.559 342.842 163.063 321.948 165.799C308.386 167.575 295.081 172.2 283.975 180.357C271.198 189.74 260.979 202.67 255.583 217.63C253.123 224.45 251.924 231.25 250.856 238.395C244.942 238.366 238.04 239.007 232.25 238.057L231.754 235.788Z"/>
	<path fill="#403871" transform="scale(0.488281 0.488281)" d="M231.754 235.788L232.25 238.057C238.04 239.007 244.942 238.366 250.856 238.395C250.151 243.923 250.31 249.589 250.297 255.153L250.305 279.889L250.27 360.307L250.046 547.257L250.002 660.07L249.627 807.935L281.958 807.888C281.052 811.788 280.928 815.502 280.867 819.494L280.619 853.17L249.799 853.506C249.79 855.784 250.386 861.022 249.446 862.889L249.539 853.359L204.42 853.389L203.128 853.486L162.553 853.471C156.544 853.483 149.064 854.368 143.266 853.24C139.507 852.508 135.639 850.036 132.955 847.364C128.261 842.693 125.913 836.363 126.047 829.75C126.164 823.934 129.106 817.519 133.289 813.509C135.987 810.921 139.808 809.035 143.458 808.261C150.845 806.693 159.605 807.59 167.17 807.567L211.568 807.48L211.851 841.981L231.516 841.723L231.614 426.613L231.776 304.537L231.549 258.724C231.537 251.231 230.977 243.217 231.754 235.788Z"/>
	<path fill="#1BB5AA" transform="scale(0.488281 0.488281)" d="M359.391 127.324C372.227 120.654 386.455 115.665 400.189 111.21C468.97 88.8996 546.026 87.3268 615.179 109.148C701.007 136.232 775.514 197.489 817.012 277.644C857.56 355.963 867.395 447.67 840.353 532.009C823.112 585.78 790.01 634.906 746.252 670.695C744.034 674.686 741.974 676.864 737.655 678.538C734.113 681.807 729.63 684.249 725.541 686.777C713.008 694.522 699.746 701.555 686.187 707.292L683.25 710.019C681.6 711.31 679.854 711.868 677.75 711.535C672.886 710.764 669.304 705.078 666.825 701.285L622.508 727.666C620.14 724.84 617.194 720.923 613.247 720.478C611.221 720.249 609.67 720.796 608.168 722.143C606.019 724.07 605.11 726.925 605.06 729.75L605.488 734.677C599.899 738.29 593.941 741.139 588.129 744.354L572.145 753.869C568.255 756.222 564.201 758.503 560.654 761.364C558.058 759.284 555.57 756.99 552 757.21C549.997 757.334 547.937 758.605 546.722 760.168C544.783 762.665 544.34 766.241 544.815 769.273L545.393 772.471C530.742 782.327 510.976 784.005 493.769 784.062C470.423 784.14 447.404 779.907 425 773.554C371.792 758.466 324.626 732.238 283.385 695.398C273.783 686.821 265.412 676.946 256.684 667.512C254.6 665.258 252.737 662.736 250.546 660.595L250.002 660.07L250.046 547.257L250.27 360.307L250.305 279.889L250.297 255.153C250.31 249.589 250.151 243.923 250.856 238.395C251.924 231.25 253.123 224.45 255.583 217.63C260.979 202.67 271.198 189.74 283.975 180.357C295.081 172.2 308.386 167.575 321.948 165.799C342.842 163.063 365.454 170.559 381.836 183.402C403.347 200.267 410.282 225.244 421.801 248.753L438.711 239.521L457.457 229.696C454.932 225.568 453.093 220.861 451.065 216.473C446.105 205.741 441.692 194.813 435.782 184.544C423.373 162.984 402.615 144.504 379.954 134.25C373.437 131.301 366.292 129.173 359.391 127.324Z"/>
	<path fill="#EBA849" transform="scale(0.488281 0.488281)" d="M737.655 678.538C736.172 678.079 734.617 677.577 733.295 676.75C728.15 673.534 723.722 665.762 722.607 659.89C722.036 656.88 721.934 653.464 723.867 650.919C725.092 649.307 726.401 648.208 728.464 647.999C731.415 647.7 734.627 649.232 736.802 651.12C742.554 656.116 745.793 663.208 746.252 670.695C744.034 674.686 741.974 676.864 737.655 678.538Z"/>
	<path fill="#EBA849" transform="scale(0.488281 0.488281)" d="M666.825 701.285C664.648 696.615 662.292 691.308 664.38 686.163C665.195 684.157 666.783 682.834 668.75 682.009C670.889 681.112 673.228 681.691 675.234 682.672C680.476 685.234 684.918 691.228 686.63 696.741C687.856 700.694 687.366 703.452 686.187 707.292L683.25 710.019C681.6 711.31 679.854 711.868 677.75 711.535C672.886 710.764 669.304 705.078 666.825 701.285Z"/>
	<path fill="#EBA849" transform="scale(0.488281 0.488281)" d="M585.964 675.75C587.249 675.438 588.64 675.724 589.867 676.162C595.248 678.084 600.408 685.148 602.64 690.256C604.153 693.72 604.623 696.837 603.062 700.41C601.962 702.927 599.884 704.751 597.367 705.75C595.79 706.063 594.453 706.083 592.904 705.573C588.207 704.027 584.518 699.195 582.406 694.863C580.262 690.465 578.638 685.531 580.533 680.75C581.553 678.177 583.513 676.796 585.964 675.75Z"/>
	<path fill="#EBA849" transform="scale(0.488281 0.488281)" d="M613.257 579.75C613.867 579.628 614.375 579.527 615 579.612C620.003 580.292 623.843 584.193 626.672 588.08C629.549 592.034 632.468 598.249 631.386 603.25C630.671 606.554 627.543 608.375 624.874 609.959C623.328 610.128 621.325 610.22 619.866 609.623C614.473 607.417 610.576 599.958 608.463 594.848C607.11 591.576 606.372 587.647 607.94 584.305C609.095 581.844 610.756 580.628 613.257 579.75Z"/>
	<path fill="#EBA849" transform="scale(0.488281 0.488281)" d="M704.112 602.25C705.262 601.936 706.563 601.825 707.75 602.001C711.554 602.566 715.695 606.51 717.904 609.427C721.004 613.522 723.837 619.258 722.911 624.5C722.294 627.993 719.889 629.882 717.12 631.769C715.674 631.997 714.203 632.206 712.757 631.877C707.83 630.755 703.679 625.045 701.504 620.75C699.475 616.743 697.597 611.791 699.209 607.341C700.167 604.695 701.584 603.376 704.112 602.25Z"/>
	<path fill="#EBA849" transform="scale(0.488281 0.488281)" d="M673.211 547.75C674.264 547.617 675.165 547.513 676.213 547.757C681.209 548.921 685.17 553.443 687.861 557.591C690.279 561.318 692.373 566.434 691.266 570.921C690.393 574.456 688.421 576.035 685.374 577.818C683.546 578.012 681.989 578.052 680.25 577.365C674.807 575.217 670.381 567.83 668.227 562.666C666.867 559.406 666.187 555.561 667.704 552.225C668.821 549.769 670.751 548.605 673.211 547.75Z"/>
	<path fill="#EBA849" transform="scale(0.488281 0.488281)" d="M736.782 517.25C738.095 516.927 739.379 516.79 740.696 517.154C745.868 518.581 750.216 524.009 752.77 528.523C754.919 532.322 756.877 537.85 755.555 542.204C754.659 545.155 752.942 546.293 750.353 547.742C749.078 547.909 747.793 548.063 746.52 547.793C741.941 546.822 738.183 542.174 735.796 538.382C733.187 534.239 730.423 528.223 731.75 523.288C732.561 520.272 734.105 518.692 736.782 517.25Z"/>
	<path fill="#EBA849" transform="scale(0.488281 0.488281)" d="M491.23 651.75C492.635 651.518 493.757 651.434 495.126 651.919C500.662 653.877 505.147 659.933 507.487 665.11C509.228 668.961 510.328 673.447 508.618 677.5C507.685 679.711 505.731 681.349 503.562 682.25C501.832 682.602 500.318 682.57 498.641 681.955C492.683 679.771 489.049 672.934 486.668 667.392C485.312 664.238 484.041 660.076 485.502 656.75C486.737 653.938 488.483 652.876 491.23 651.75Z"/>
	<path fill="#EBA849" transform="scale(0.488281 0.488281)" d="M524.387 711.25C525.817 710.98 526.988 711.186 528.338 711.663C533.709 713.56 537.94 719.867 540.382 724.768C542.12 728.256 543.352 732.228 541.943 736.054C540.903 738.878 538.268 740.469 535.678 741.674C533.541 741.999 531.967 741.959 529.96 741.063C525.053 738.873 521.006 732.463 519.25 727.531C517.926 723.811 517.263 719.195 519.182 715.531C520.306 713.386 522.085 711.912 524.387 711.25Z"/>
	<path fill="#EBA849" transform="scale(0.488281 0.488281)" d="M702.128 457.25C703.305 456.944 704.336 457.145 705.5 457.405C710.375 458.498 714.49 463.31 717.06 467.373C719.164 470.698 721.741 476.671 720.707 480.645C719.812 484.083 718.326 486.111 715.25 487.848C713.299 488.261 711.381 488.27 709.494 487.518C703.835 485.262 699.251 477.723 697.095 472.25C695.776 468.901 695.255 464.558 696.913 461.221C697.978 459.077 699.924 457.922 702.128 457.25Z"/>
	<path fill="#EBA849" transform="scale(0.488281 0.488281)" d="M644.023 636.25C645.212 636.051 646.048 635.893 647.249 636.14C651.474 637.009 655.445 641.52 657.818 644.915C660.59 648.881 663.984 654.86 662.896 659.804C662.065 663.581 660.135 665.365 656.953 667.422C655.101 667.668 653.089 667.936 651.309 667.218C646.553 665.298 642.465 658.387 640.396 653.924C638.584 650.014 637.295 645.353 639.029 641.177C640.042 638.737 641.655 637.304 644.023 636.25Z"/>
	<path fill="#EBA849" transform="scale(0.488281 0.488281)" d="M554.306 614.75C555.404 614.689 556.564 614.784 557.615 615.127C563.132 616.929 567.216 622.336 569.676 627.357C571.508 631.095 573.617 636.095 571.958 640.25C570.655 643.511 568.752 644.935 565.616 646.279C563.77 646.202 561.937 646.173 560.25 645.335C554.92 642.686 550.612 635.572 548.75 630.074C547.522 626.449 546.823 622.473 548.739 618.955C550.03 616.585 551.771 615.471 554.306 614.75Z"/>
	<path fill="#EBA849" transform="scale(0.488281 0.488281)" d="M579.695 524.25C580.747 523.935 581.9 523.84 583 523.912C587.455 524.204 591.347 527.898 593.927 531.25C596.918 535.137 600.782 541.675 599.924 546.75C599.297 550.462 597.185 552.795 594.2 554.877C592.264 555.356 590.685 555.372 588.766 554.75C584.278 553.295 580.204 547.363 578.036 543.376C575.758 539.187 573.359 534.082 574.966 529.278C575.799 526.786 577.434 525.417 579.695 524.25Z"/>
	<path fill="#EBA849" transform="scale(0.488281 0.488281)" d="M639.745 490.75C640.767 490.466 641.944 490.35 643 490.502C647.508 491.154 652.097 496.559 654.442 500.22C657.192 504.513 660.15 510.532 658.765 515.75C657.854 519.184 655.985 520.574 653.102 522.364C651.356 522.748 649.747 523.011 648 522.456C643.322 520.968 639.355 514.145 637.25 509.99C635.107 505.761 632.904 500.75 634.622 495.999C635.494 493.589 637.514 491.858 639.745 490.75Z"/>
	<path fill="#EBA849" transform="scale(0.488281 0.488281)" d="M522.58 556.75C523.537 556.602 524.251 556.536 525.208 556.766C530.903 558.137 535.229 563.685 538.085 568.527C540.226 572.158 542.533 576.94 541.222 581.23C540.171 584.672 537.994 586.326 534.984 588.07C533.395 588.207 531.349 588.289 529.838 587.75C524.609 585.882 520.061 579.282 517.941 574.4C516.314 570.654 514.813 565.727 516.587 561.75C517.773 559.092 519.917 557.66 522.58 556.75Z"/>
	<path fill="#EBA849" transform="scale(0.488281 0.488281)" d="M457.065 590.027C458.026 589.978 458.943 589.937 459.897 590.097C465.222 590.987 469.378 596.452 472.188 600.721C474.917 604.865 477.709 610.144 476.33 615.25C475.437 618.558 473.068 620.166 470.231 621.706C468.845 621.808 467.422 621.971 466.053 621.65C461.34 620.542 457.525 616.217 455.233 612.151C452.712 607.675 449.531 600.721 451.297 595.546C452.274 592.683 454.486 591.292 457.065 590.027Z"/>
	<path fill="#EBA849" transform="scale(0.488281 0.488281)" d="M773.507 582.75C775.105 582.421 776.38 582.643 777.896 583.194C784.844 585.718 790.134 592.938 793.069 599.474C794.645 602.981 796.052 607.532 794.434 611.25C793.248 613.976 791.437 615.164 788.75 616.186C786.464 616.54 784.898 616.247 782.815 615.232C776.043 611.931 770.417 602.16 768.033 595.242C767.015 592.287 767.271 589.12 768.74 586.365C769.793 584.389 771.458 583.436 773.507 582.75Z"/>
	<path fill="#EBA849" transform="scale(0.488281 0.488281)" d="M650.961 376.25C651.843 375.91 652.605 375.834 653.541 375.871C656.993 376.011 659.615 378.04 661.881 380.474C666.305 385.227 681.035 405.341 680.383 411.5C679.994 415.175 678.351 417.025 675.679 419.33C674.091 420.033 672.289 420.558 670.539 420.263C665.075 419.342 661.156 413.744 658.308 409.432C654.038 402.969 650.277 396.188 647.883 388.799C647.146 386.525 646.372 382.948 647.145 380.621C647.851 378.495 649.141 377.434 650.961 376.25Z"/>
	<path fill="#EBA849" transform="scale(0.488281 0.488281)" d="M593.62 408.75C594.47 408.552 595.179 408.482 596.052 408.586C600.159 409.073 603.61 413.479 605.968 416.565C611.258 423.489 617.954 432.217 621.25 440.22C622.034 442.125 622.71 444.169 622.353 446.25C621.702 450.04 619.348 451.899 616.492 454.081C614.522 454.848 612.501 455.44 610.381 454.927C606.781 454.057 603.389 449.749 601.443 446.744C597.354 440.428 586.966 421.314 588.766 414.248C589.489 411.409 591.139 410.073 593.62 408.75Z"/>
	<path fill="#EBA849" transform="scale(0.488281 0.488281)" d="M474.439 472.75C475.335 472.573 476.338 472.441 477.25 472.47C479.198 472.531 481.287 474.122 482.558 475.476C485.537 478.65 487.928 482.724 490.409 486.306C494.479 492.185 499.147 498.118 502.002 504.694C502.939 506.85 503.811 509.058 503.582 511.459C503.205 515.406 500.413 517.508 497.533 519.745C495.998 520.249 494.275 520.702 492.649 520.461C489.211 519.952 486.084 516.664 484.117 513.993C478.745 506.697 474.04 497.446 471.25 488.824C470.304 485.901 469.296 482.472 469.813 479.388L469.934 478.75L470.365 476.843C471.072 474.771 472.593 473.734 474.439 472.75Z"/>
	<path fill="#EBA849" transform="scale(0.488281 0.488281)" d="M411.446 507.75C413.686 507.125 415.802 507.967 417.75 509.041C422.567 511.695 425.864 516.495 428.968 520.87C434.403 528.531 439.244 535.804 441.735 544.942C440.542 549.002 439.554 550.923 436.1 553.634C434.112 554.51 432.082 554.979 429.911 554.624C425.555 553.911 422.075 549.411 419.751 545.94C415.655 539.821 405.291 519.186 407.632 512.142C408.362 509.946 409.437 508.802 411.446 507.75Z"/>
	<path fill="#EBA849" transform="scale(0.488281 0.488281)" d="M532.286 440.75C532.742 440.658 533.008 440.582 533.505 440.599C537.665 440.738 541.377 444.535 543.75 447.632L550.323 457.125C554.364 462.86 562.66 472.447 561.333 479.913C560.703 483.457 558.544 485.459 555.669 487.395C553.47 488.064 550.862 488.571 548.619 487.779C546.556 487.051 544.61 484.999 543.216 483.388C537.373 476.633 532.733 467.235 529.374 458.994C527.53 454.47 525.839 449.45 527.993 444.726C528.976 442.569 530.094 441.586 532.286 440.75Z"/>
	<path fill="#EBA849" transform="scale(0.488281 0.488281)" d="M457.457 229.696L470.024 223.371C473.832 221.427 478.132 217.942 482.599 219.643C486.306 221.054 489.036 225.22 490.494 228.75C491.797 231.906 492.859 235.831 491.327 239.099L490.893 239.965L500.526 258.417L429.933 296.587C427.101 298.122 424.648 299.785 422.217 301.908C417.761 294.977 414.169 286.284 410.622 278.793C408.882 277.674 407.02 276.586 405.806 274.866C403.549 271.667 401.777 267.196 402.758 263.246C404.782 255.093 414.842 252.944 421.22 249.109L421.801 248.753L438.711 239.521L457.457 229.696Z"/>
	<path fill="#403871" transform="scale(0.488281 0.488281)" d="M410.622 278.793L411.831 279.077C413.689 279.457 414.951 279.547 416.777 278.885C422.028 276.982 427.398 273.512 432.377 270.905L467.433 252.303C475.12 248.169 483.652 244.745 490.893 239.965L500.526 258.417L429.933 296.587C427.101 298.122 424.648 299.785 422.217 301.908C417.761 294.977 414.169 286.284 410.622 278.793Z"/>
	<path fill="#94F7F2" transform="scale(0.488281 0.488281)" d="M505.364 256.667C511.626 254.314 518.949 253.844 525.576 253.137C555.494 249.944 584.623 253.776 612.192 266.243C634.516 276.338 658.21 293.558 670.98 314.954L663.991 318.73L630.012 337.039L615.464 344.655L611.389 336.641C599.631 315.3 582.711 297.602 563.104 283.336C555.1 277.513 546.784 272.11 537.793 267.922C527.354 263.059 516.381 259.893 505.364 256.667Z"/>
	<path fill="#A4E0A5" transform="scale(0.488281 0.488281)" d="M630.012 337.039C613.553 304.751 584.667 277.347 551.166 263.317C545.566 260.972 539.798 259.002 533.94 257.406C531.241 256.671 528.06 256.314 525.5 255.354C526.38 255.027 527.316 255.389 528.25 255.446L538.692 255.88C549.581 256.865 560.478 257.906 571.185 260.2C601.343 266.663 627.488 280.962 649.526 302.455C654.709 307.511 659.359 313.175 663.991 318.73L630.012 337.039Z"/>
	<path fill="#A4E0A5" transform="scale(0.488281 0.488281)" d="M429.933 296.587C421.1 312.095 414.112 329.171 411.078 346.822C407.726 366.324 409.361 387.907 414.528 406.925C418.231 420.552 423.693 433.258 430.046 445.822L418.176 452.573L380.157 473.608L375.007 476.495C366.119 461.103 363.064 442.451 363.852 424.778C365.923 378.311 387.882 333.244 422.217 301.908C424.648 299.785 427.101 298.122 429.933 296.587Z"/>
	<path fill="#94F7F2" transform="scale(0.488281 0.488281)" d="M429.933 296.587C421.1 312.095 414.112 329.171 411.078 346.822C407.726 366.324 409.361 387.907 414.528 406.925C418.231 420.552 423.693 433.258 430.046 445.822L418.176 452.573C403.768 430.112 396.98 402.329 396.918 375.816C396.897 367.079 397.379 358.176 399.224 349.607C401.427 339.37 405.145 329.889 409.114 320.231C381.879 357.83 366.757 403.784 374.047 450.342C375.205 457.737 377.022 466.858 380.157 473.608L375.007 476.495C366.119 461.103 363.064 442.451 363.852 424.778C365.923 378.311 387.882 333.244 422.217 301.908C424.648 299.785 427.101 298.122 429.933 296.587Z"/>
	<path fill="#BA4806" transform="scale(0.488281 0.488281)" d="M670.98 314.954C678.688 310.364 684.981 306.012 694.362 308.459C699.206 309.723 704.004 312.452 706.68 316.829C709.719 321.799 710.684 328.083 709.2 333.724C707.582 339.87 703.377 343.23 698.05 346.122L634.516 380.017L493.548 457.509L411.397 502.846L391.301 514.582C386.642 517.375 382 520.367 377 522.523C372.465 524.478 367.92 524.456 363.25 522.944C357.962 521.232 354.104 517.554 351.695 512.593C349.37 507.802 348.679 501.801 350.567 496.75C354.843 485.311 365.873 482.682 375.007 476.495L380.157 473.608L418.176 452.573L430.046 445.822L615.464 344.655L630.012 337.039L663.991 318.73L670.98 314.954Z"/>
	<path fill="#F57626" transform="scale(0.488281 0.488281)" d="M505.364 256.667C516.381 259.893 527.354 263.059 537.793 267.922C546.784 272.11 555.1 277.513 563.104 283.336C582.711 297.602 599.631 315.3 611.389 336.641L615.464 344.655L430.046 445.822C423.693 433.258 418.231 420.552 414.528 406.925C409.361 387.907 407.726 366.324 411.078 346.822C414.112 329.171 421.1 312.095 429.933 296.587L500.526 258.417C502.093 257.538 503.634 257.125 505.364 256.667Z"/>
</svg>
