<?xml version="1.0" encoding="utf-8" ?>
<svg xmlns="http://www.w3.org/2000/svg" xmlns:xlink="http://www.w3.org/1999/xlink" width="500" height="500">
	<path fill="#EA4F1D" transform="scale(0.488281 0.488281)" d="M-0 -0L1024 0L1024 1024L-0 1024L0 -0Z"/>
	<path fill="#F8A70D" transform="scale(0.488281 0.488281)" d="M508.987 235.949L508.215 236.231L486.462 225.599L486.394 199.85L492.199 202.699L492.992 203.006C496.782 204.591 500.41 206.49 504.016 208.454C505.586 209.31 507.633 210.84 509.424 211.005L508.987 235.949Z"/>
	<path fill="#A64807" transform="scale(0.488281 0.488281)" d="M529.65 199.918L530.25 201.549L531.064 201.357C531.921 201.173 532.562 201.125 533.425 201.154C534.245 202.797 533.91 205.428 533.939 207.245L534.111 223.575C527.548 228.172 519.601 231.173 512.488 234.832C511.389 235.397 510.233 235.864 508.987 235.949L509.424 211.005C512.312 210.157 515.209 208.449 517.916 207.142L529.409 201.872L529.65 199.918Z"/>
	<path fill="#F8A70D" transform="scale(0.488281 0.488281)" d="M337.91 304.67C337.924 303.3 337.609 300.089 338.262 298.961C341.119 294.023 351.699 289.985 356.558 287.695C356.524 291.605 355.363 299.369 358.316 302.211C362.227 305.975 369.285 306.94 374.497 307.052C381.378 306.491 386.771 305.32 391.925 300.443C392.796 296.982 392.285 292.477 392.274 288.874C396.672 290.016 404.797 293.81 407.04 297.75C407.89 299.243 408.292 301.566 407.948 303.25C407.827 303.841 407.713 303.952 407.433 304.4C399.979 311.229 392.035 315.105 382.182 317.257C376.44 318.122 370.819 318.586 365.045 317.694C354.487 316.063 345.617 312.157 337.91 304.67Z"/>
	<path fill="#29474D" transform="scale(0.488281 0.488281)" d="M390.983 110.318C394.328 107.205 398.099 105.296 402.202 103.372C412.24 98.6645 423.877 95.2311 435.059 95.685C460.1 96.7014 482.639 111.309 499.156 129.413C516.667 148.606 527.226 174.159 529.65 199.918L529.409 201.872L517.916 207.142C515.209 208.449 512.312 210.157 509.424 211.005C509.846 190.287 501.26 169.474 489.38 152.811C474.131 131.424 451.232 112.506 424.75 107.865C412.628 105.74 402.674 107.165 390.983 110.318Z"/>
	<path fill="#38C0CA" transform="scale(0.488281 0.488281)" d="M390.983 110.318C402.674 107.165 412.628 105.74 424.75 107.865C451.232 112.506 474.131 131.424 489.38 152.811C501.26 169.474 509.846 190.287 509.424 211.005C507.633 210.84 505.586 209.31 504.016 208.454C500.41 206.49 496.782 204.591 492.992 203.006C491.337 188.807 485.459 174.453 477.071 162.973C464.65 145.972 445.329 132.172 424.279 128.933C419.72 131.265 415.18 133.5 411.083 136.61C401.719 143.715 396.906 153.636 393.279 164.516C392.53 167.934 392.277 171.324 392.178 174.817C391.887 185.027 391.355 286.686 392.274 288.874C392.285 292.477 392.796 296.982 391.925 300.443C386.771 305.32 381.378 306.491 374.497 307.052C369.285 306.94 362.227 305.975 358.316 302.211C355.363 299.369 356.524 291.605 356.558 287.695L356.455 206.165L356.427 177.532C356.422 167.788 356.062 158.106 358.655 148.607C363.508 130.829 375.464 119.259 390.983 110.318Z"/>
	<path fill="#0E768D" transform="scale(0.488281 0.488281)" d="M374.302 175.094C374.361 171.463 374.594 168.002 375.363 164.442C377.793 153.194 384.129 141.005 394.097 134.709C402.289 129.535 414.758 126.848 424.279 128.933C419.72 131.265 415.18 133.5 411.083 136.61C401.719 143.715 396.906 153.636 393.279 164.516C392.53 167.934 392.277 171.324 392.178 174.817C391.887 185.027 391.355 286.686 392.274 288.874C392.285 292.477 392.796 296.982 391.925 300.443C386.771 305.32 381.378 306.491 374.497 307.052L374.302 175.094Z"/>
	<path fill="#82110D" transform="scale(0.488281 0.488281)" d="M846.059 677.656C851.599 679.936 857.022 682.965 862.435 685.582L916.617 713.096L965.849 737.884C974.511 742.241 984.854 746.315 992.629 752.13L962.953 767.612L904.37 796.812L685.369 909.395L663.668 920.602C660.984 921.999 656.431 924.973 653.622 925.387C652.098 925.611 649.122 924.745 647.5 924.566L626.75 922.59L569.484 917.384L530.102 913.793L512.016 911.903L512.105 911.661C514.308 911.053 516.72 909.365 518.783 908.278L533.674 900.481L594.931 868.744L777.171 774.701L846.052 738.952L846.059 677.656Z"/>
	<path fill="#485C5D" transform="scale(0.488281 0.488281)" d="M846.074 577.435L846.059 677.656L846.052 738.952L777.171 774.701L594.931 868.744L533.674 900.481L518.783 908.278C516.72 909.365 514.308 911.053 512.105 911.661L512.005 745.882C524.229 741.798 536.084 734.374 547.613 728.541L611.749 696.368L729.177 636.48L846.074 577.435Z"/>
	<path fill="#9CAA9F" transform="scale(0.488281 0.488281)" d="M178.79 541.278L304.253 605.05L418.119 663.844L486 698.939L503.5 707.994C506.07 709.311 509.156 711.35 511.91 712.015L512.464 712.065C510.972 715.036 511.964 737.097 511.989 741.887L512.005 745.882L512.105 911.661L512.016 911.903C509.919 912.153 506.688 910.148 504.762 909.232L482.78 898.089L414.138 863.467L303.5 807.115L178.985 743.316L179.048 569.94L178.79 541.278Z"/>
	<path fill="#485C5D" transform="scale(0.488281 0.488281)" d="M178.79 541.278L304.253 605.05L418.119 663.844L486 698.939L503.5 707.994C506.07 709.311 509.156 711.35 511.91 712.015L512.464 712.065C510.972 715.036 511.964 737.097 511.989 741.887L179.048 569.94L178.79 541.278Z"/>
	<path fill="#F6E9DF" transform="scale(0.488281 0.488281)" d="M407.798 318.322L503.653 269.761L589.972 313.11L757.82 398.682L779.826 410.406L851.365 446.446C857.028 449.283 887.889 463.603 889.902 466.489L890.049 519.508L845.954 542.242L846.074 577.435L729.177 636.48L611.749 696.368L547.613 728.541C536.084 734.374 524.229 741.798 512.005 745.882L511.989 741.887C511.964 737.097 510.972 715.036 512.464 712.065L511.91 712.015C509.156 711.35 506.07 709.311 503.5 707.994L486 698.939L418.119 663.844L304.253 605.05L178.79 541.278L135.252 519.235L135.083 464.488L135.215 463.204C139.111 459.926 145.014 457.631 149.581 455.267L188.866 435.639L337.87 361.598L337.91 304.67C345.617 312.157 354.487 316.063 365.045 317.694C370.819 318.586 376.44 318.122 382.182 317.257C392.035 315.105 399.979 311.229 407.433 304.4C408.16 308.911 407.813 313.757 407.798 318.322Z"/>
	<path fill="#82110D" transform="scale(0.488281 0.488281)" d="M323.948 390.392L326.906 395.779C333.39 405.483 347.147 409.568 357.994 411.685C365.516 413.153 374.706 413.175 382.325 412.226C387.174 411.622 391.852 410.925 396.518 409.394C404.68 406.716 413.634 402.061 418.271 394.541C419.436 392.652 420.031 390.559 421.04 388.603L421.426 387.866C421.462 394.811 420.413 399.912 415.25 405.009C413.179 407.054 410.739 408.69 408.289 410.236C397.819 416.171 386.673 418.343 374.701 418.492C359.671 418.679 340.049 415.723 328.908 404.593C324.546 400.235 323.911 396.32 323.948 390.392Z"/>
	<path fill="#F8A70D" transform="scale(0.488281 0.488281)" d="M407.978 367.772C413.945 371.463 419.099 375.134 420.719 382.43C421.121 384.243 421.373 386.011 421.426 387.866L421.04 388.603C420.031 390.559 419.436 392.652 418.271 394.541C413.634 402.061 404.68 406.716 396.518 409.394C391.852 410.925 387.174 411.622 382.325 412.226C374.706 413.175 365.516 413.153 357.994 411.685C347.147 409.568 333.39 405.483 326.906 395.779L323.948 390.392C323.972 387.319 324.169 384.699 325.169 381.743C327.026 376.254 332.805 370.477 337.975 368.013L337.88 381.16C337.933 385.52 337.391 389.958 340.626 393.374C348.013 401.171 364.267 404.254 374.5 404.405C377.053 404.443 380.447 404.495 382.902 403.874C390.389 401.805 398.721 399.308 404.352 393.638C408.738 389.222 408.005 384.675 408.01 378.96L407.978 367.772Z"/>
	<path fill="#AE9A8E" transform="scale(0.488281 0.488281)" d="M407.857 327.269L476.719 337.262L489.042 339.029C492.147 339.362 495.94 339.398 498.89 340.451C502.149 341.614 505.627 344.528 508.555 346.418C513.402 349.548 518.503 352.595 523.709 355.085C519.419 357.6 514.787 359.734 510.339 361.967C507.036 363.626 503.557 365.631 500.027 366.721C497.419 365.077 490.436 365.203 487.25 364.792L449.5 359.843C435.655 358.02 421.826 355.482 407.896 354.411L407.857 327.269Z"/>
	<path fill="#15A5B4" transform="scale(0.488281 0.488281)" d="M437.371 593.02L437.931 592.537C441.123 589.87 445.428 588.298 449.269 586.791C462.345 581.663 476.111 579.498 489.992 578.01C506.408 576.25 523.31 575.605 539.75 577.396C550.216 578.537 561.081 580.965 570.983 584.512C574.832 585.891 578.889 587.114 581.532 590.391C575.39 593.709 569.131 597.478 562.688 600.144C557.406 602.33 551.818 603.8 546.29 605.215C524.192 609.321 501.872 609.995 479.583 606.842C464.807 604.542 450.512 600.208 437.371 593.02Z"/>
	<path fill="#38C0CA" transform="scale(0.488281 0.488281)" d="M479.583 606.842L481.122 605.25C484.034 602.742 488.848 601.571 492.551 600.77C504.259 598.238 516.793 597.753 528.688 599.218C534.363 599.916 542.584 600.398 546.29 605.215C524.192 609.321 501.872 609.995 479.583 606.842Z"/>
	<path fill="#EE780A" transform="scale(0.488281 0.488281)" d="M407.433 304.4C408.16 308.911 407.813 313.757 407.798 318.322L407.857 327.269L407.896 354.411L407.978 367.772L408.01 378.96C408.005 384.675 408.738 389.222 404.352 393.638C398.721 399.308 390.389 401.805 382.902 403.874C380.447 404.495 377.053 404.443 374.5 404.405C364.267 404.254 348.013 401.171 340.626 393.374C337.391 389.958 337.933 385.52 337.88 381.16L337.975 368.013L337.87 361.598L337.91 304.67C345.617 312.157 354.487 316.063 365.045 317.694C370.819 318.586 376.44 318.122 382.182 317.257C392.035 315.105 399.979 311.229 407.433 304.4Z"/>
	<path fill="#A64807" transform="scale(0.488281 0.488281)" d="M407.433 304.4C408.16 308.911 407.813 313.757 407.798 318.322L407.857 327.269L407.896 354.411L407.978 367.772L408.01 378.96C408.005 384.675 408.738 389.222 404.352 393.638C398.721 399.308 390.389 401.805 382.902 403.874C382.618 403.583 382.222 403.369 382.048 403C381.479 401.79 382.052 390.379 382.056 388.268L382.182 317.257C392.035 315.105 399.979 311.229 407.433 304.4Z"/>
	<path fill="#38C0CA" transform="scale(0.488281 0.488281)" d="M471.302 542.483L498.536 540.033C543.069 538.063 587.709 543.535 626.32 567.329L581.532 590.391C578.889 587.114 574.832 585.891 570.983 584.512C561.081 580.965 550.216 578.537 539.75 577.396C523.31 575.605 506.408 576.25 489.992 578.01C476.111 579.498 462.345 581.663 449.269 586.791C445.428 588.298 441.123 589.87 437.931 592.537L437.371 593.02L400.967 573.844L471.302 542.483Z"/>
	<path fill="#D9C9B9" transform="scale(0.488281 0.488281)" d="M563.909 335.486C565.166 335.209 566.205 335.742 567.327 336.25L601.346 353.369L663.152 384.52L769.108 438.427L805.438 456.654L825.739 466.327L789.49 484.328L564.022 369.88L564.322 347.102C564.343 343.62 565.01 338.782 563.909 335.486Z"/>
	<path fill="#9A8980" transform="scale(0.488281 0.488281)" d="M523.709 355.085L563.909 335.486C565.01 338.782 564.343 343.62 564.322 347.102L564.022 369.88L561.546 370.097L281.388 512.316L245.899 494.626L410.13 411.679L500.027 366.721C503.557 365.631 507.036 363.626 510.339 361.967C514.787 359.734 519.419 357.6 523.709 355.085Z"/>
	<path fill="#D9C9B9" transform="scale(0.488281 0.488281)" d="M135.083 464.488L197.341 497.44L263.763 531.75L390.021 597.119L470.516 638.88L497.428 652.967C502.165 655.407 507.018 658.236 512.016 660.072L511.91 712.015C509.156 711.35 506.07 709.311 503.5 707.994L486 698.939L418.119 663.844L304.253 605.05L178.79 541.278L135.252 519.235L135.083 464.488Z"/>
	<path fill="#0E768D" transform="scale(0.488281 0.488281)" d="M281.388 512.316L561.546 370.097L560.526 423.126C560.365 436.492 560.546 450.846 557.815 463.957C554.13 481.649 543.581 496.967 530.389 508.996C518.041 520.254 502.931 527.03 487.941 533.986C482.564 536.482 476.031 538.959 471.302 542.483L400.967 573.844C395.876 571.827 390.785 568.556 385.891 566.008L357.098 551.269L309.476 526.593L281.388 512.316Z"/>
	<path fill="#F6E9DF" transform="scale(0.488281 0.488281)" d="M435.739 516.264L434.51 515.608C430.967 513.294 428.343 508.798 427.588 504.672C426.096 496.517 429.954 487.186 434.513 480.589C438.847 474.319 446.283 467.883 454 466.618C458.553 465.872 462.674 467.209 466.271 470.035C470.074 473.022 474.021 476.894 474.564 481.927C472.752 479.099 470.861 476.989 468.05 475.135L464.251 475.268C457.187 475.643 450.131 481.567 445.759 486.777C439.993 493.648 436.33 503.538 437.14 512.561L437.985 517.273L435.739 516.264Z"/>
	<path fill="#29474D" transform="scale(0.488281 0.488281)" d="M435.739 516.264C435.058 514.922 434.347 513.506 433.917 512.062C431.973 505.536 434.902 497.152 438.214 491.496C442.673 483.883 450.26 475.872 459.106 473.75C462.5 472.936 465.104 473.255 468.05 475.135L464.251 475.268C457.187 475.643 450.131 481.567 445.759 486.777C439.993 493.648 436.33 503.538 437.14 512.561L437.985 517.273L435.739 516.264Z"/>
	<path fill="#072838" transform="scale(0.488281 0.488281)" d="M468.05 475.135C470.861 476.989 472.752 479.099 474.564 481.927L475.337 484.895C477.326 492.887 473.538 503.089 469.197 509.762C465.163 515.964 459.042 521.578 451.58 522.951C448.024 523.605 444.478 523.503 441.421 521.359C439.832 520.244 438.808 519.016 437.985 517.273L437.14 512.561C436.33 503.538 439.993 493.648 445.759 486.777C450.131 481.567 457.187 475.643 464.251 475.268L468.05 475.135Z"/>
	<defs>
		<linearGradient id="gradient_0" gradientUnits="userSpaceOnUse" x1="590.14996" y1="596.80389" x2="672.93158" y2="422.19638">
			<stop offset="0" stop-color="#0D7992"/>
			<stop offset="1" stop-color="#1ACFD8"/>
		</linearGradient>
	</defs>
	<path fill="url(#gradient_0)" transform="scale(0.488281 0.488281)" d="M564.022 369.88L789.49 484.328L626.32 567.329C587.709 543.535 543.069 538.063 498.536 540.033L471.302 542.483C476.031 538.959 482.564 536.482 487.941 533.986C502.931 527.03 518.041 520.254 530.389 508.996C543.581 496.967 554.13 481.649 557.815 463.957C560.546 450.846 560.365 436.492 560.526 423.126L561.546 370.097L564.022 369.88Z"/>
	<path fill="#9A8980" transform="scale(0.488281 0.488281)" d="M512.016 660.072L889.902 466.489L890.049 519.508L845.954 542.242L846.074 577.435L729.177 636.48L611.749 696.368L547.613 728.541C536.084 734.374 524.229 741.798 512.005 745.882L511.989 741.887C511.964 737.097 510.972 715.036 512.464 712.065L511.91 712.015L512.016 660.072Z"/>
	<path fill="#29474D" transform="scale(0.488281 0.488281)" d="M845.954 542.242L846.074 577.435L729.177 636.48L611.749 696.368L547.613 728.541C536.084 734.374 524.229 741.798 512.005 745.882L511.989 741.887C511.964 737.097 510.972 715.036 512.464 712.065C516.619 711.138 521.176 708.17 525.041 706.246L556.08 690.362L619.936 657.365L772 579.491L845.954 542.242Z"/>
</svg>
