<?xml version="1.0" encoding="utf-8" ?>
<svg xmlns="http://www.w3.org/2000/svg" xmlns:xlink="http://www.w3.org/1999/xlink" width="500" height="500">
	<path fill="#FEFEFE" transform="scale(0.488281 0.488281)" d="M-0 -0L1024 0L1024 1024L-0 1024L0 -0Z"/>
	<path fill="#F56448" transform="scale(0.488281 0.488281)" d="M886.512 482.974L908.686 549.68L916.635 572.909L953.765 685.372L968.963 730.663C970.354 735.07 972.399 739.686 973.323 744.189C974.059 747.778 973.541 750.754 971.912 753.993C968.964 759.856 964.634 765.603 960.663 770.827C946.006 790.106 928.148 806.346 909.515 821.667L844.895 640.497L845.137 640.089L828.765 588.532C826.836 582.086 824.289 575.65 822.981 569.058C841.853 552.96 859.256 531.882 871.602 510.384L879.729 495.431C881.755 491.399 883.598 487.085 886.206 483.397L886.512 482.974Z"/>
	<path fill="#F5A42A" transform="scale(0.488281 0.488281)" d="M886.512 482.974L908.686 549.68C906.179 553.086 904.729 557.18 902.965 561L895.928 575.149C888.414 589.734 879.135 603.4 868.75 616.089C861.711 624.689 853.931 633.219 845.137 640.089L828.765 588.532C826.836 582.086 824.289 575.65 822.981 569.058C841.853 552.96 859.256 531.882 871.602 510.384L879.729 495.431C881.755 491.399 883.598 487.085 886.206 483.397L886.512 482.974Z"/>
	<path fill="#F24521" transform="scale(0.488281 0.488281)" d="M139.084 476.342C142.389 479.566 143.423 484.613 144.945 488.878L149.9 501.014C160.166 523.108 175.172 545.293 194.416 560.469C196.585 562.18 199.863 565.28 202.395 566.121L202.445 566.415L185.169 624.054L181.546 636.207C180.934 638.25 180.477 640.639 179.401 642.482L179.612 642.866L164.459 685.402L136.657 764.998L122.974 803.307C120.796 809.391 117.934 815.419 116.442 821.71C99.0341 808.336 82.8316 792.73 67.8629 776.687C62.9334 771.404 56.9866 765.706 53.6512 759.249C51.7025 755.476 50.4693 750.527 51.1938 746.277C52.341 739.546 55.63 732.488 57.7898 725.978L69.3228 689.804L114.26 551.728L139.084 476.342Z"/>
	<path fill="#F47508" transform="scale(0.488281 0.488281)" d="M139.084 476.342C142.389 479.566 143.423 484.613 144.945 488.878L149.9 501.014C160.166 523.108 175.172 545.293 194.416 560.469C196.585 562.18 199.863 565.28 202.395 566.121L202.445 566.415L185.169 624.054L181.546 636.207C180.934 638.25 180.477 640.639 179.401 642.482C166.945 633.377 156.509 621.405 147.25 609.153C139.024 598.267 131.513 586.811 125.262 574.671L118.75 560.851C117.424 557.76 116.419 554.355 114.26 551.728L139.084 476.342Z"/>
	<path fill="#FA8E08" transform="scale(0.488281 0.488281)" d="M235.162 174.718C249.387 183.548 263.505 191.795 278.502 199.277C287.029 203.531 296.036 207.848 305.088 210.84L291.213 257.243L268.721 335.447L227.163 479.039L210.163 539.547C207.703 548.231 205.818 557.793 202.395 566.121C199.863 565.28 196.585 562.18 194.416 560.469C175.172 545.293 160.166 523.108 149.9 501.014L144.945 488.878C143.423 484.613 142.389 479.566 139.084 476.342L235.162 174.718Z"/>
	<path fill="#F6D054" transform="scale(0.488281 0.488281)" d="M715.92 211.88C741.334 203.381 766.15 191.346 788.05 175.947L886.512 482.974L886.206 483.397C883.598 487.085 881.755 491.399 879.729 495.431L871.602 510.384C859.256 531.882 841.853 552.96 822.981 569.058L822.706 569.001L715.92 211.88Z"/>
	<path fill="#F56448" transform="scale(0.488281 0.488281)" d="M822.706 569.001L822.981 569.058C824.289 575.65 826.836 582.086 828.765 588.532L845.137 640.089L844.895 640.497L909.515 821.667L876.851 845.399C856.454 858.951 834.696 870.419 812.631 880.988C794.458 889.693 775.576 898.109 756.283 903.98L715.082 675.483L714.711 675.113C709.11 674.19 703.365 673.34 697.88 671.854C690.364 669.818 683.219 666.934 676.002 664.055L665.093 588.75C676.65 595.504 690.881 597.335 703.941 599.111C707.777 599.687 711.874 599.579 715.756 599.753C740.601 600.872 765.551 595.997 788.921 587.863L789.03 587.663C801.241 583.282 812.266 576.629 822.706 569.001Z"/>
	<path fill="#F24521" transform="scale(0.488281 0.488281)" d="M844.895 640.497L909.515 821.667L876.851 845.399L812.86 661.926L812.964 661.638C824.465 655.761 835.127 648.975 844.895 640.497Z"/>
	<path fill="#F5A42A" transform="scale(0.488281 0.488281)" d="M822.706 569.001L822.981 569.058C824.289 575.65 826.836 582.086 828.765 588.532L845.137 640.089L844.895 640.497C835.127 648.975 824.465 655.761 812.964 661.638L812.86 661.926L812.035 662.221C806.879 664.1 801.988 666.515 796.75 668.273C776.548 675.055 754.754 677.701 733.489 676.966L715.082 675.483L714.711 675.113C709.11 674.19 703.365 673.34 697.88 671.854C690.364 669.818 683.219 666.934 676.002 664.055L665.093 588.75C676.65 595.504 690.881 597.335 703.941 599.111C707.777 599.687 711.874 599.579 715.756 599.753C740.601 600.872 765.551 595.997 788.921 587.863L789.03 587.663C801.241 583.282 812.266 576.629 822.706 569.001Z"/>
	<path fill="#F47508" transform="scale(0.488281 0.488281)" d="M665.093 588.75C676.65 595.504 690.881 597.335 703.941 599.111L714.711 675.113C709.11 674.19 703.365 673.34 697.88 671.854C690.364 669.818 683.219 666.934 676.002 664.055L665.093 588.75Z"/>
	<path fill="#FA8E08" transform="scale(0.488281 0.488281)" d="M822.706 569.001L822.981 569.058C824.289 575.65 826.836 582.086 828.765 588.532L845.137 640.089L844.895 640.497C835.127 648.975 824.465 655.761 812.964 661.638C809.78 653.807 807.483 645.553 804.995 637.477L794.785 605.127C792.944 599.446 791.332 593.315 788.921 587.863L789.03 587.663C801.241 583.282 812.266 576.629 822.706 569.001Z"/>
	<path fill="#F24521" transform="scale(0.488281 0.488281)" d="M202.445 566.415C210.98 571.806 219.842 577.217 229 581.5C230.855 582.368 233.544 583.933 235.532 584.288L235.773 584.134C239.817 586.942 246.136 588.616 250.812 590.074C279.367 598.982 312.92 602.016 342.513 596.691L354.96 594.018C356.661 593.614 358.841 592.814 360.498 593.453L352.372 642.445L350.359 654.934C349.857 657.818 349.02 660.947 349.002 663.864L348.27 664.021C337.483 668.808 325.169 673.333 313.569 675.382L301.892 733.914L282.809 833.062L273.726 876.859C271.92 885.417 269.059 895.027 268.729 903.74C225.56 888.321 184.635 868.814 146.383 843.423C135.926 837.496 125.85 829.177 116.442 821.71C117.934 815.419 120.796 809.391 122.974 803.307L136.657 764.998L164.459 685.402L179.612 642.866L179.401 642.482C180.477 640.639 180.934 638.25 181.546 636.207L185.169 624.054L202.445 566.415Z"/>
	<path fill="#DA3224" transform="scale(0.488281 0.488281)" d="M179.612 642.866L211.108 662.629C210.315 668.15 207.494 673.921 205.626 679.202L194.069 712L158.89 811.001L149.497 836.362C148.686 838.394 147.808 841.778 146.383 843.423C135.926 837.496 125.85 829.177 116.442 821.71C117.934 815.419 120.796 809.391 122.974 803.307L136.657 764.998L164.459 685.402L179.612 642.866Z"/>
	<path fill="#F47508" transform="scale(0.488281 0.488281)" d="M202.445 566.415C210.98 571.806 219.842 577.217 229 581.5C230.855 582.368 233.544 583.933 235.532 584.288L235.773 584.134C239.817 586.942 246.136 588.616 250.812 590.074C279.367 598.982 312.92 602.016 342.513 596.691L354.96 594.018C356.661 593.614 358.841 592.814 360.498 593.453L352.372 642.445L350.359 654.934C349.857 657.818 349.02 660.947 349.002 663.864L348.27 664.021C337.483 668.808 325.169 673.333 313.569 675.382L306.028 676.938C279.163 681.312 250.781 678.82 225.336 669.04C220.82 667.304 215.316 665.482 211.389 662.654L211.108 662.629L179.612 642.866L179.401 642.482C180.477 640.639 180.934 638.25 181.546 636.207L185.169 624.054L202.445 566.415Z"/>
	<path fill="#F24521" transform="scale(0.488281 0.488281)" d="M202.445 566.415C210.98 571.806 219.842 577.217 229 581.5C230.855 582.368 233.544 583.933 235.532 584.288L211.389 662.654L211.108 662.629L179.612 642.866L179.401 642.482C180.477 640.639 180.934 638.25 181.546 636.207L185.169 624.054L202.445 566.415Z"/>
	<path fill="#F6D054" transform="scale(0.488281 0.488281)" d="M681.644 223.171L715.92 211.88L822.706 569.001C812.266 576.629 801.241 583.282 789.03 587.663L788.921 587.863C765.551 595.997 740.601 600.872 715.756 599.753C711.874 599.579 707.777 599.687 703.941 599.111C690.881 597.335 676.65 595.504 665.093 588.75C664.265 586.839 664.323 585.023 664.193 582.973L621.419 236.989L654.23 230.249C663.248 229.063 672.926 225.827 681.644 223.171Z"/>
	<path fill="#F5A42A" transform="scale(0.488281 0.488281)" d="M621.419 236.989L654.23 230.249L688.775 491.529L699.691 570.203L702.519 589.874C702.971 592.907 703.182 596.15 703.941 599.111C690.881 597.335 676.65 595.504 665.093 588.75C664.265 586.839 664.323 585.023 664.193 582.973L621.419 236.989Z"/>
	<path fill="#F5A42A" transform="scale(0.488281 0.488281)" d="M681.644 223.171L715.92 211.88L822.706 569.001C812.266 576.629 801.241 583.282 789.03 587.663L701.808 294.138L686.209 238.899L683.43 228.005C683.22 227.086 683.004 224.726 682.536 224C682.317 223.659 681.942 223.447 681.644 223.171Z"/>
	<defs>
		<linearGradient id="gradient_0" gradientUnits="userSpaceOnUse" x1="382.73819" y1="419.58987" x2="260.70917" y2="403.16269">
			<stop offset="0" stop-color="#E7AA00"/>
			<stop offset="1" stop-color="#FF8A06"/>
		</linearGradient>
	</defs>
	<path fill="url(#gradient_0)" transform="scale(0.488281 0.488281)" d="M305.088 210.84C313.779 214.302 322.421 217.548 331.405 220.185C334.111 220.979 337.656 222.34 340.46 222.373L340.818 222.7L399.599 236.539L360.498 593.453C358.841 592.814 356.661 593.614 354.96 594.018L342.513 596.691C312.92 602.016 279.367 598.982 250.812 590.074C246.136 588.616 239.817 586.942 235.773 584.134L235.532 584.288C233.544 583.933 230.855 582.368 229 581.5C219.842 577.217 210.98 571.806 202.445 566.415L202.395 566.121C205.818 557.793 207.703 548.231 210.163 539.547L227.163 479.039L268.721 335.447L291.213 257.243L305.088 210.84Z"/>
	<path fill="#F47508" transform="scale(0.488281 0.488281)" d="M305.088 210.84C313.779 214.302 322.421 217.548 331.405 220.185C334.111 220.979 337.656 222.34 340.46 222.373L340.818 222.7C340.218 223.148 339.815 223.538 339.534 224.249C337.939 228.29 336.853 232.613 335.52 236.753L325.189 270.651L288.903 397.041L253.465 522L235.773 584.134L235.532 584.288C233.544 583.933 230.855 582.368 229 581.5C219.842 577.217 210.98 571.806 202.445 566.415L202.395 566.121C205.818 557.793 207.703 548.231 210.163 539.547L227.163 479.039L268.721 335.447L291.213 257.243L305.088 210.84Z"/>
	<path fill="#F56448" transform="scale(0.488281 0.488281)" d="M360.498 593.453L361.254 594.133C366.176 598.66 369.986 604.074 375.25 608.443C395.259 625.05 423.386 630.6 448.75 630.035C464.744 629.679 479.914 625.487 494.974 620.457L495.464 672.187L495.562 686.131C495.581 688.687 495.321 691.632 495.842 694.124L495.509 694.487L496.916 941.5C498.069 942.275 498.924 942.304 500.262 942.502C432.111 942.091 363.531 932.261 298.071 913.429L268.729 903.74C269.059 895.027 271.92 885.417 273.726 876.859L282.809 833.062L301.892 733.914L313.569 675.382C325.169 673.333 337.483 668.808 348.27 664.021L349.002 663.864C349.02 660.947 349.857 657.818 350.359 654.934L352.372 642.445L360.498 593.453Z"/>
	<path fill="#DA3224" transform="scale(0.488281 0.488281)" d="M348.27 664.021L342.863 688.845L310.813 851.948L300.969 900.925C300.104 904.864 299.734 909.811 298.071 913.429L268.729 903.74C269.059 895.027 271.92 885.417 273.726 876.859L282.809 833.062L301.892 733.914L313.569 675.382C325.169 673.333 337.483 668.808 348.27 664.021Z"/>
	<path fill="#F5A42A" transform="scale(0.488281 0.488281)" d="M360.498 593.453L361.254 594.133C366.176 598.66 369.986 604.074 375.25 608.443C395.259 625.05 423.386 630.6 448.75 630.035C464.744 629.679 479.914 625.487 494.974 620.457L495.464 672.187L495.562 686.131C495.581 688.687 495.321 691.632 495.842 694.124L495.509 694.487C480.382 699.929 465.924 704.392 449.668 704.979C421.735 705.988 392.778 698.647 369.973 682.126C362.348 676.602 355.853 670.266 349.002 663.864C349.02 660.947 349.857 657.818 350.359 654.934L352.372 642.445L360.498 593.453Z"/>
	<path fill="#F56448" transform="scale(0.488281 0.488281)" d="M664.193 582.973C664.323 585.023 664.265 586.839 665.093 588.75L676.002 664.055C683.219 666.934 690.364 669.818 697.88 671.854C703.365 673.34 709.11 674.19 714.711 675.113L715.082 675.483L756.283 903.98L724.389 914.369C670.332 929.012 615.736 938.102 559.794 941.127C547.684 941.781 534.855 943.014 522.747 942.422C520.59 942.795 517.709 942.451 515.485 942.457L500.262 942.502C498.924 942.304 498.069 942.275 496.916 941.5L495.509 694.487L495.842 694.124C495.321 691.632 495.581 688.687 495.562 686.131L495.464 672.187L494.974 620.457L495.423 620.165C502.742 618.273 510.001 614.358 516.833 611.185L527.968 616.99C557.906 629.001 590.419 634.782 621.51 623.203C638.71 616.797 654.605 605.437 662.984 588.75C664.007 586.713 664.09 585.241 664.193 582.973Z"/>
	<path fill="#DA3224" transform="scale(0.488281 0.488281)" d="M495.842 694.124C502.236 691.983 508.31 688.289 513.954 684.67L527.765 691.38L527.997 691.664L527.838 867.413L528.015 918.208C528.052 925.753 528.95 934.519 527.904 941.904L522.747 942.422C520.59 942.795 517.709 942.451 515.485 942.457L500.262 942.502C498.924 942.304 498.069 942.275 496.916 941.5L495.509 694.487L495.842 694.124Z"/>
	<path fill="#DA3224" transform="scale(0.488281 0.488281)" d="M676.002 664.055C683.219 666.934 690.364 669.818 697.88 671.854C703.365 673.34 709.11 674.19 714.711 675.113L715.082 675.483L756.283 903.98L724.389 914.369L723.638 913.925L676.002 664.055Z"/>
	<path fill="#F5A42A" transform="scale(0.488281 0.488281)" d="M664.193 582.973C664.323 585.023 664.265 586.839 665.093 588.75L676.002 664.055L675.655 664.441C672.209 668.327 669.815 672.807 666.12 676.617C649.333 693.932 623.903 706.325 599.762 707.921C581.538 709.125 563.186 704.947 546.115 698.875L527.997 691.664L527.765 691.38L513.954 684.67C508.31 688.289 502.236 691.983 495.842 694.124C495.321 691.632 495.581 688.687 495.562 686.131L495.464 672.187L494.974 620.457L495.423 620.165C502.742 618.273 510.001 614.358 516.833 611.185L527.968 616.99C557.906 629.001 590.419 634.782 621.51 623.203C638.71 616.797 654.605 605.437 662.984 588.75C664.007 586.713 664.09 585.241 664.193 582.973Z"/>
	<path fill="#F47508" transform="scale(0.488281 0.488281)" d="M495.423 620.165C502.742 618.273 510.001 614.358 516.833 611.185L527.968 616.99L527.765 691.38L513.954 684.67C508.31 688.289 502.236 691.983 495.842 694.124C495.321 691.632 495.581 688.687 495.562 686.131L495.464 672.187L494.974 620.457L495.423 620.165Z"/>
	<path fill="#F5A42A" transform="scale(0.488281 0.488281)" d="M252.219 75.7265C252.623 74.8828 252.955 74.0443 253.652 73.3973C256.091 71.1368 278.093 72.1783 282.629 72.1844L661.706 72.3669L742.965 72.421L762.416 72.4313C764.326 72.4366 767.445 72.012 769.25 72.4912C771.135 72.9916 771.318 74.3041 772.124 75.8997C771.77 78.6649 772.915 82.1516 773.499 84.8707L777.456 102.555L782.638 127.337L783.293 130.645L790.658 163.243L792.831 172.007L788.05 175.947C766.15 191.346 741.334 203.381 715.92 211.88L681.644 223.171C672.926 225.827 663.248 229.063 654.23 230.249L621.419 236.989L527.437 245.414L493.987 245.406L399.599 236.539L340.818 222.7L340.46 222.373C337.656 222.34 334.111 220.979 331.405 220.185C322.421 217.548 313.779 214.302 305.088 210.84C296.036 207.848 287.029 203.531 278.502 199.277C263.505 191.795 249.387 183.548 235.162 174.718L232.111 171.943C230.456 169.859 231.492 167.541 231.961 165.195C232.855 163.787 233.205 159.865 233.642 158L239.753 131.408L240.019 129.689L252.219 75.7265Z"/>
	<path fill="#DA3224" transform="scale(0.488281 0.488281)" d="M346.902 163.555C352.219 165.039 357.925 165.94 363.36 166.997L395.444 172.723C507.026 191.06 624.81 182.64 732 146.522L766.448 134.255C771.867 132.143 777.563 130.185 782.638 127.337L783.293 130.645C781.374 133.587 772.508 136.257 768.996 137.738C728.361 154.876 685.866 168.174 642.75 177.465C606.574 185.261 569.626 188.752 532.693 189.811C503.339 190.652 473.373 190.023 444.194 186.47L381.944 176.222L346.578 168.062C334.676 166.12 322.599 161.953 311.117 158.287L268.359 143.744L239.753 131.408L240.019 129.689C252.214 135.518 265.39 139.853 278.25 144.002L318.085 156.112L337.295 161.173C340.419 161.956 343.889 162.468 346.902 163.555Z"/>
	<path fill="#F47508" transform="scale(0.488281 0.488281)" d="M252.219 75.7265C281.977 96.6792 316.692 107.946 351.58 116.938L346.902 163.555C343.889 162.468 340.419 161.956 337.295 161.173L318.085 156.112L278.25 144.002C265.39 139.853 252.214 135.518 240.019 129.689L252.219 75.7265Z"/>
	<path fill="#F47508" transform="scale(0.488281 0.488281)" d="M231.961 165.195C232.855 163.787 233.205 159.865 233.642 158L239.753 131.408L268.359 143.744L311.117 158.287C322.599 161.953 334.676 166.12 346.578 168.062L342.399 208.591L342.092 208.507L340.46 222.373C337.656 222.34 334.111 220.979 331.405 220.185C322.421 217.548 313.779 214.302 305.088 210.84C296.036 207.848 287.029 203.531 278.502 199.277C263.505 191.795 249.387 183.548 235.162 174.718L232.111 171.943C230.456 169.859 231.492 167.541 231.961 165.195Z"/>
	<path fill="#DA3224" transform="scale(0.488281 0.488281)" d="M231.961 165.195C240.791 171.616 251.378 175.911 261.38 180.17L314.491 200.257L342.092 208.507L340.46 222.373C337.656 222.34 334.111 220.979 331.405 220.185C322.421 217.548 313.779 214.302 305.088 210.84C296.036 207.848 287.029 203.531 278.502 199.277C263.505 191.795 249.387 183.548 235.162 174.718L232.111 171.943C230.456 169.859 231.492 167.541 231.961 165.195Z"/>
	<path fill="#F24521" transform="scale(0.488281 0.488281)" d="M790.658 163.243L792.831 172.007L788.05 175.947C766.15 191.346 741.334 203.381 715.92 211.88L681.644 223.171C672.926 225.827 663.248 229.063 654.23 230.249L621.419 236.989L527.437 245.414L493.987 245.406L399.599 236.539L340.818 222.7L340.46 222.373L342.092 208.507L342.399 208.591L344.15 209.067C394.546 222.056 446.3 228.284 498.284 229.112C571.69 230.282 645.515 220.57 715.112 196.76C740.863 187.95 767.266 177.212 790.658 163.243Z"/>
	<path fill="#F5A42A" transform="scale(0.488281 0.488281)" d="M772.124 75.8997C771.77 78.6649 772.915 82.1516 773.499 84.8707L777.456 102.555L782.638 127.337C777.563 130.185 771.867 132.143 766.448 134.255L732 146.522C624.81 182.64 507.026 191.06 395.444 172.723L363.36 166.997C357.925 165.94 352.219 165.039 346.902 163.555L351.58 116.938L405.686 127.268C440.252 132.595 475.154 134.556 510.097 134.593C581.359 134.67 652.665 126.3 719.775 101.229C733.521 96.0936 746.931 90.0446 759.818 83.0197C763.924 80.7817 768.35 78.6636 772.124 75.8997Z"/>
	<path fill="#DA3224" transform="scale(0.488281 0.488281)" d="M252.219 75.7265C252.623 74.8828 252.955 74.0443 253.652 73.3973C256.091 71.1368 278.093 72.1783 282.629 72.1844L661.706 72.3669L742.965 72.421L762.416 72.4313C764.326 72.4366 767.445 72.012 769.25 72.4912C771.135 72.9916 771.318 74.3041 772.124 75.8997C768.35 78.6636 763.924 80.7817 759.818 83.0197C746.931 90.0446 733.521 96.0936 719.775 101.229C652.665 126.3 581.359 134.67 510.097 134.593C475.154 134.556 440.252 132.595 405.686 127.268L351.58 116.938C316.692 107.946 281.977 96.6792 252.219 75.7265Z"/>
	<path fill="#F6D054" transform="scale(0.488281 0.488281)" d="M399.599 236.539L493.987 245.406L527.437 245.414L621.419 236.989L664.193 582.973C664.09 585.241 664.007 586.713 662.984 588.75C654.605 605.437 638.71 616.797 621.51 623.203C590.419 634.782 557.906 629.001 527.968 616.99L516.833 611.185C510.001 614.358 502.742 618.273 495.423 620.165L494.974 620.457C479.914 625.487 464.744 629.679 448.75 630.035C423.386 630.6 395.259 625.05 375.25 608.443C369.986 604.074 366.176 598.66 361.254 594.133L360.498 593.453L399.599 236.539Z"/>
	<path fill="#F5A42A" transform="scale(0.488281 0.488281)" d="M493.987 245.406L527.437 245.414L527.968 616.99L516.833 611.185C510.001 614.358 502.742 618.273 495.423 620.165L493.987 245.406Z"/>
	<path fill="#F6D054" transform="scale(0.488281 0.488281)" d="M527.437 245.414L621.419 236.989L664.193 582.973C664.09 585.241 664.007 586.713 662.984 588.75C654.605 605.437 638.71 616.797 621.51 623.203C590.419 634.782 557.906 629.001 527.968 616.99L527.437 245.414Z"/>
</svg>
