<?xml version="1.0" encoding="utf-8" ?>
<svg xmlns="http://www.w3.org/2000/svg" xmlns:xlink="http://www.w3.org/1999/xlink" width="500" height="500">
	<path fill="#35A9AC" transform="scale(0.488281 0.488281)" d="M-0 -0L1024 0L1024 1024L-0 1024L0 -0Z"/>
	<defs>
		<linearGradient id="gradient_0" gradientUnits="userSpaceOnUse" x1="594.62109" y1="241.57669" x2="670.84387" y2="122.96531">
			<stop offset="0" stop-color="#60396F"/>
			<stop offset="1" stop-color="#8C5496"/>
		</linearGradient>
	</defs>
	<path fill="url(#gradient_0)" transform="scale(0.488281 0.488281)" d="M443.867 112.041C447.921 107.475 453.062 103.55 457.977 99.9528C479.417 84.2624 506.347 75.0964 532.834 73.5763C588.21 70.3982 642.233 97.4943 682.492 133.814C712.226 160.639 736.496 191.94 759.013 224.913L786.663 267.291C791.796 275.824 798.175 284.738 801.871 293.961C798.715 290.933 795.229 286.473 791.443 284.345C788.74 282.825 785.868 282.327 782.861 281.828C774.84 267.513 765.279 253.735 755.831 240.329C727.788 200.539 696.61 162.547 657.313 133.348C617.595 103.835 567.844 81.9668 517.444 89.8257C501.26 92.3495 484.393 98.1579 470.614 107.096C456.193 116.451 444.082 129.361 433.896 143.103C433.887 135.581 436.748 127.718 439.964 121C441.43 117.936 443.694 115.449 443.867 112.041Z"/>
	<path fill="#FCB8BC" transform="scale(0.488281 0.488281)" d="M423.349 490.853C423.667 490.587 426.766 490.498 427.37 490.446C435.552 489.737 442.965 489.525 451.156 490.151L455.286 490.536L492.961 574.255L494.315 580.604C496.33 588.132 499.704 595.363 502.893 602.456L494.959 604.213L492.998 601.02C481.365 599.86 470.643 601.888 459.486 605.033C457.185 605.682 453.957 606.26 451.891 607.459L451.628 607.32L438.72 583.302C424.534 587.917 410.883 593.08 397.633 599.957L401.845 587.907C405.509 580.69 405.221 567.896 404.585 559.962C403.336 544.355 397.773 530.218 387.534 518.288C382.986 512.989 377.67 508.417 372.355 503.914L373.407 503.544C377.273 501.295 382.762 500.158 387.051 498.785C399.126 495.479 410.833 492.133 423.349 490.853Z"/>
	<path fill="#C94944" transform="scale(0.488281 0.488281)" d="M373.407 503.544C377.045 505.346 380.479 508.324 383.481 511.05C392.651 519.378 399.179 528.762 403.163 540.504C405.341 546.925 406.391 553.301 407.207 559.997C408.637 571.712 406.454 583.216 402.741 594.274C411.459 590.121 420.181 585.679 429.2 582.213C436.439 579.431 443.99 577.387 451.5 575.484C464.847 572.1 479.604 569.989 492.961 574.255L494.315 580.604L493.496 580.936C492.821 580.046 493.13 580.404 492.323 579.552C491.576 578.763 490.43 577.341 489.478 576.915C487.074 575.839 482.558 576.136 479.9 576.067C466.112 576.372 452.006 579.832 438.72 583.302C424.534 587.917 410.883 593.08 397.633 599.957L401.845 587.907C405.509 580.69 405.221 567.896 404.585 559.962C403.336 544.355 397.773 530.218 387.534 518.288C382.986 512.989 377.67 508.417 372.355 503.914L373.407 503.544Z"/>
	<path fill="#EA9A09" transform="scale(0.488281 0.488281)" d="M438.72 583.302C452.006 579.832 466.112 576.372 479.9 576.067C482.558 576.136 487.074 575.839 489.478 576.915C490.43 577.341 491.576 578.763 492.323 579.552C493.13 580.404 492.821 580.046 493.496 580.936L494.315 580.604C496.33 588.132 499.704 595.363 502.893 602.456L494.959 604.213L492.998 601.02C481.365 599.86 470.643 601.888 459.486 605.033C457.185 605.682 453.957 606.26 451.891 607.459L451.628 607.32L438.72 583.302Z"/>
	<path fill="#671539" transform="scale(0.488281 0.488281)" d="M479.9 576.067C482.558 576.136 487.074 575.839 489.478 576.915C490.43 577.341 491.576 578.763 492.323 579.552C493.13 580.404 492.821 580.046 493.496 580.936L494.315 580.604C496.33 588.132 499.704 595.363 502.893 602.456L494.959 604.213L492.998 601.02C488.643 592.774 483.324 584.733 479.9 576.067Z"/>
	<path fill="#6A3677" transform="scale(0.488281 0.488281)" d="M860.017 379.535L889.739 435.621C901.06 457.782 912.374 480.051 919.701 503.923C925.116 521.568 928.094 539.704 928.961 558.131C929.882 577.721 928.201 596.197 922.975 615.138C916.07 640.163 902.67 666.457 884.387 685.076C881.312 685.853 878.661 688.307 876.033 690.007C866.787 695.99 856.704 699.733 845.622 699.609C834.879 699.489 823.954 695.407 816.399 687.707C831.931 678.826 846.533 668.996 858.208 655.196C861.298 651.542 863.883 647.429 866.599 643.497C868.504 640.738 872.472 635.83 873.264 632.701L873.43 631.934L873.176 631.142C874.863 629.892 876.144 627.597 877.28 625.839C880.971 620.126 884.175 613.962 886.569 607.591C890.382 597.448 891.911 586.943 892.792 576.201C896.323 533.166 882.553 492.524 866.033 453.467L841.96 398.968L860.017 379.535Z"/>
	<path fill="#FCD149" transform="scale(0.488281 0.488281)" d="M451.891 607.459C453.957 606.26 457.185 605.682 459.486 605.033C470.643 601.888 481.365 599.86 492.998 601.02L494.959 604.213L502.893 602.456C512.433 622.378 526.334 639.974 539.223 657.786L564.938 694.224C590.694 734.482 610.478 783.199 593.68 830.878L583.873 852.429L571.043 853.448C559.773 853.933 547.715 853.827 536.607 851.924L536.13 852.048L535.418 851.896C516.25 848.445 496.744 843.825 478.867 835.985C473.761 833.745 468.456 831.477 463.754 828.47C484.486 818.808 504.514 806.302 520.747 790.065C524.776 786.035 529.086 781.653 531.917 776.671C536.636 768.366 539.497 757.753 536.857 748.336C532.83 733.968 525.337 721.755 517.38 709.267L486.628 663.806L451.891 607.459Z"/>
	<path fill="#6A3677" transform="scale(0.488281 0.488281)" d="M502.893 602.456C512.433 622.378 526.334 639.974 539.223 657.786L564.938 694.224C590.694 734.482 610.478 783.199 593.68 830.878L583.873 852.429L571.043 853.448C559.773 853.933 547.715 853.827 536.607 851.924C556.89 835.071 574.069 815.592 581.033 789.619C584.656 776.108 586.032 761.33 583.428 747.5C581.478 737.141 577.382 727.814 572.541 718.522C561.069 696.506 545.299 678.064 530.501 658.336C517.376 640.839 505.882 623.13 494.959 604.213L502.893 602.456Z"/>
	<path fill="#F4F0E3" transform="scale(0.488281 0.488281)" d="M433.896 143.103C444.082 129.361 456.193 116.451 470.614 107.096C484.393 98.1579 501.26 92.3495 517.444 89.8257C567.844 81.9668 617.595 103.835 657.313 133.348C696.61 162.547 727.788 200.539 755.831 240.329C765.279 253.735 774.84 267.513 782.861 281.828L753.414 278.505L749.439 278.794C736.629 278.554 722.572 281.613 710.068 284.231C696.245 254.994 675.743 229.164 653.959 205.503L617.237 168.577L581.092 136.819C556.189 130.363 527.823 135.452 505.811 148.526C484.131 161.402 467.936 183.086 461.812 207.589L459.797 218.319C447.319 201.742 439.172 179.933 434.924 159.741C433.937 155.047 433.477 150.239 432.692 145.503L433.896 143.103Z"/>
	<path fill="#EA9A09" transform="scale(0.488281 0.488281)" d="M587.911 138.299C600.419 140.892 612.343 146.632 623.436 152.81C646.612 165.717 665.903 181.679 685.077 199.853L706.077 220.429C723.15 238.551 738.804 258.36 753.414 278.505L749.439 278.794L746.75 278.412C742.043 269.911 735.112 261.877 728.973 254.344C712.576 234.224 694.934 215.677 675.839 198.129C661.949 185.366 648.083 173.437 632.171 163.232L606.406 147.807L595.75 142.602C593.049 141.351 590.158 140.296 587.911 138.299Z"/>
	<path fill="#FCD149" transform="scale(0.488281 0.488281)" d="M581.092 136.819C583.444 137.145 585.637 137.431 587.882 138.248L587.911 138.299C590.158 140.296 593.049 141.351 595.75 142.602L606.406 147.807L632.171 163.232C648.083 173.437 661.949 185.366 675.839 198.129C694.934 215.677 712.576 234.224 728.973 254.344C735.112 261.877 742.043 269.911 746.75 278.412L749.439 278.794C736.629 278.554 722.572 281.613 710.068 284.231C696.245 254.994 675.743 229.164 653.959 205.503L617.237 168.577L581.092 136.819Z"/>
	<path fill="#76DB9C" transform="scale(0.488281 0.488281)" d="M459.797 218.319L461.812 207.589C467.936 183.086 484.131 161.402 505.811 148.526C527.823 135.452 556.189 130.363 581.092 136.819L617.237 168.577L653.959 205.503C675.743 229.164 696.245 254.994 710.068 284.231C700.351 286.187 691.071 289.095 681.824 292.638C659.773 298.778 638.339 312.414 620.132 326.043C612.413 331.822 604.823 337.719 598.067 344.631L597.708 344.562L582.581 360.39L570.825 374.615L548.923 350.904L521.856 320.839C498.403 293.726 478.978 264.747 460.346 234.201L460.25 232.832L460.044 218.694L459.797 218.319Z"/>
	<path fill="#3D9C59" transform="scale(0.488281 0.488281)" d="M460.044 218.694L460.409 219.06C463.224 221.953 465.491 225.37 467.995 228.53L484.877 249.757C502.489 271.286 522.116 292.285 543.5 310.055C555.364 319.915 567.847 328.575 581.219 336.273C584.72 338.288 588.394 340.094 592.059 341.79C593.818 342.604 596.197 343.357 597.708 344.562L582.581 360.39L570.825 374.615L548.923 350.904L521.856 320.839C498.403 293.726 478.978 264.747 460.346 234.201L460.25 232.832L460.044 218.694Z"/>
	<path fill="#76DB9C" transform="scale(0.488281 0.488281)" d="M397.633 599.957C410.883 593.08 424.534 587.917 438.72 583.302L451.628 607.32L451.891 607.459L486.628 663.806L517.38 709.267C525.337 721.755 532.83 733.968 536.857 748.336C539.497 757.753 536.636 768.366 531.917 776.671C529.086 781.653 524.776 786.035 520.747 790.065C504.514 806.302 484.486 818.808 463.754 828.47L463.358 828.466C449.068 833.495 434.22 834.913 419.484 830.824C401.301 825.779 384.918 815.386 369.998 804.082C342.969 783.606 320.236 759.634 300.839 731.839C292.386 719.726 284.944 706.979 277.664 694.142C291.348 675.223 308.39 656.655 327.301 642.855L351.497 626.852C352.977 626.149 355.809 625.979 357.484 625.68C360.593 625.125 363.539 624.357 366.533 623.355C378.175 619.462 391.992 611.32 397.633 599.957Z"/>
	<path fill="#3D9C59" transform="scale(0.488281 0.488281)" d="M397.633 599.957C410.883 593.08 424.534 587.917 438.72 583.302L451.628 607.32C428.914 614.716 407.188 624.726 386.344 636.328C369.491 645.708 352.513 656.378 338.505 669.75C334.888 673.203 330.426 676.956 328.165 681.469C325.671 686.447 325.133 691.67 326.944 696.893C329.191 703.371 333.628 709.918 337.448 715.59C353.186 738.956 372.659 758.952 393.492 777.765C401.926 785.381 410.43 793.114 419.5 799.972C433.553 810.598 448.457 819.188 463.358 828.466C449.068 833.495 434.22 834.913 419.484 830.824C401.301 825.779 384.918 815.386 369.998 804.082C342.969 783.606 320.236 759.634 300.839 731.839C292.386 719.726 284.944 706.979 277.664 694.142C291.348 675.223 308.39 656.655 327.301 642.855L351.497 626.852C352.977 626.149 355.809 625.979 357.484 625.68C360.593 625.125 363.539 624.357 366.533 623.355C378.175 619.462 391.992 611.32 397.633 599.957Z"/>
	<path fill="#256D76" transform="scale(0.488281 0.488281)" d="M443.867 112.041C443.694 115.449 441.43 117.936 439.964 121C436.748 127.718 433.887 135.581 433.896 143.103L432.692 145.503C433.477 150.239 433.937 155.047 434.924 159.741C439.172 179.933 447.319 201.742 459.797 218.319L460.044 218.694L460.25 232.832L460.346 234.201C478.978 264.747 498.403 293.726 521.856 320.839L548.923 350.904L570.825 374.615L559.113 390.335L542.778 420.606C539.703 429.494 535.919 438.352 535.593 447.914C535.428 452.772 536.196 457.914 535.741 462.7C537.511 467.361 538.653 472.133 541.024 476.563C546.864 487.47 555.736 497.547 562.997 507.597C569.87 517.109 576.145 527.32 583.404 536.515C585.399 539.082 587.535 540.878 590.105 542.848C590.017 538.431 589.728 533.867 590.312 529.482C590.552 527.673 590.516 525.089 591.392 523.514L591.732 522.953C591.656 522.665 591.507 522.193 591.491 521.867C591.389 519.776 592.794 516.637 593.474 514.644C599.04 498.324 608.191 481.331 618.996 467.846C626.405 479.69 631.585 493.54 636.973 506.42L656.991 552.955C666.101 573.766 675.507 597.166 689.827 615.014C700.275 628.037 714.449 639.053 730.996 642.78C737.384 644.219 744.248 644.66 750.664 643.214L751.553 643.021C757.606 641.647 762.814 638.653 768.474 636.28L782.163 644.533C797.714 652.449 819.396 654.485 836.272 650.28C844.181 648.309 852.038 644.76 859.059 640.629C862.19 638.787 865.309 636.771 868.199 634.577C869.454 633.625 871.233 631.506 872.685 631.178L873.176 631.142L873.43 631.934L873.264 632.701C872.472 635.83 868.504 640.738 866.599 643.497C863.883 647.429 861.298 651.542 858.208 655.196C846.533 668.996 831.931 678.826 816.399 687.707C823.954 695.407 834.879 699.489 845.622 699.609C856.704 699.733 866.787 695.99 876.033 690.007C878.661 688.307 881.312 685.853 884.387 685.076C879.057 691.426 873.311 697.349 867.004 702.738L853.42 713.593C850.943 717.53 846.491 721.055 842.935 724.064C825.668 738.679 806.485 750.978 786.783 762.002C772.212 770.154 757.315 778.079 740.917 781.811C729.602 784.386 717.429 784.771 705.891 783.747C687.529 782.118 668.658 773.592 655.243 760.916C639.821 746.344 628.039 728.989 616.479 711.327L566.335 628.663L476.86 495.13L443.313 446.222C440.249 442.057 437.42 437.632 434.122 433.66C422.08 408.702 410.676 382.738 396.335 359.029C387.709 344.769 377.703 331.793 367.83 318.408C358.287 293.737 356.649 266.88 363.572 241.235C368.719 222.165 379.265 204.76 393.301 190.908C396.166 188.08 399.153 184.914 402.651 182.917C409.408 156.052 423.499 130.934 443.867 112.041Z"/>
	<path fill="#461B42" transform="scale(0.488281 0.488281)" d="M443.867 112.041C443.694 115.449 441.43 117.936 439.964 121C436.748 127.718 433.887 135.581 433.896 143.103L432.692 145.503C412.753 175.258 405.528 210.326 412.426 245.536C416.379 265.719 423.409 284.325 431.871 302.998C447.253 336.94 467.017 367.849 487.836 398.65C502.62 420.522 518.206 442.969 535.741 462.7C537.511 467.361 538.653 472.133 541.024 476.563C546.864 487.47 555.736 497.547 562.997 507.597C569.87 517.109 576.145 527.32 583.404 536.515C585.399 539.082 587.535 540.878 590.105 542.848C590.017 538.431 589.728 533.867 590.312 529.482C590.552 527.673 590.516 525.089 591.392 523.514L591.732 522.953L612.038 565.932L637.257 611.803C656.436 644.603 680.889 683.38 718.641 696.542C747.864 706.73 778.258 699.903 805.331 686.654C825.269 676.896 843.024 664.75 858.49 648.75L867.74 638.546C869.572 636.369 871.336 633.848 873.43 631.934L873.264 632.701C872.472 635.83 868.504 640.738 866.599 643.497C863.883 647.429 861.298 651.542 858.208 655.196C846.533 668.996 831.931 678.826 816.399 687.707C823.954 695.407 834.879 699.489 845.622 699.609C856.704 699.733 866.787 695.99 876.033 690.007C878.661 688.307 881.312 685.853 884.387 685.076C879.057 691.426 873.311 697.349 867.004 702.738L853.42 713.593C850.876 714.498 848.38 716.309 846.048 717.679C842.447 719.793 838.847 721.792 835.075 723.581C811.17 734.917 782.203 742.36 755.838 736.677C727.878 730.65 704.314 713.389 684.675 693.248C671.81 680.053 660.553 665.283 649.76 650.373L577.327 540.712L522.899 463.162L453.457 365.234C440.563 345.095 428.953 324.028 419.335 302.128C406.613 273.162 397.12 241.71 398.468 209.75C398.848 200.722 400.739 191.723 402.651 182.917C409.408 156.052 423.499 130.934 443.867 112.041Z"/>
	<path fill="#EA9A09" transform="scale(0.488281 0.488281)" d="M618.996 467.846C626.405 479.69 631.585 493.54 636.973 506.42L656.991 552.955C666.101 573.766 675.507 597.166 689.827 615.014C700.275 628.037 714.449 639.053 730.996 642.78C737.384 644.219 744.248 644.66 750.664 643.214L751.553 643.021C757.606 641.647 762.814 638.653 768.474 636.28L782.163 644.533C797.714 652.449 819.396 654.485 836.272 650.28C844.181 648.309 852.038 644.76 859.059 640.629C862.19 638.787 865.309 636.771 868.199 634.577C869.454 633.625 871.233 631.506 872.685 631.178L873.176 631.142L873.43 631.934C871.336 633.848 869.572 636.369 867.74 638.546L858.49 648.75C843.024 664.75 825.269 676.896 805.331 686.654C778.258 699.903 747.864 706.73 718.641 696.542C680.889 683.38 656.436 644.603 637.257 611.803L612.038 565.932L591.732 522.953C591.656 522.665 591.507 522.193 591.491 521.867C591.389 519.776 592.794 516.637 593.474 514.644C599.04 498.324 608.191 481.331 618.996 467.846Z"/>
	<path fill="#C9BE9A" transform="scale(0.488281 0.488281)" d="M432.692 145.503C433.477 150.239 433.937 155.047 434.924 159.741C439.172 179.933 447.319 201.742 459.797 218.319L460.044 218.694L460.25 232.832L460.346 234.201C478.978 264.747 498.403 293.726 521.856 320.839L548.923 350.904L570.825 374.615L559.113 390.335L542.778 420.606C539.703 429.494 535.919 438.352 535.593 447.914C535.428 452.772 536.196 457.914 535.741 462.7C518.206 442.969 502.62 420.522 487.836 398.65C467.017 367.849 447.253 336.94 431.871 302.998C423.409 284.325 416.379 265.719 412.426 245.536C405.528 210.326 412.753 175.258 432.692 145.503Z"/>
	<path fill="#EA9A09" transform="scale(0.488281 0.488281)" d="M460.346 234.201C478.978 264.747 498.403 293.726 521.856 320.839L548.923 350.904L570.825 374.615L559.113 390.335L542.778 420.606L526.028 398.13C512.24 378.338 499.954 357.451 489.237 335.846C476.45 310.068 465.808 282.694 461.789 254.056C460.946 248.054 459.275 240.175 460.346 234.201Z"/>
	<path fill="#3D9C59" transform="scale(0.488281 0.488281)" d="M753.414 278.505L782.861 281.828C785.868 282.327 788.74 282.825 791.443 284.345C795.229 286.473 798.715 290.933 801.871 293.961L842.794 350.577C847.212 357.298 852.564 364.421 855.418 371.943L860.017 379.535L841.96 398.968L866.033 453.467C882.553 492.524 896.323 533.166 892.792 576.201C891.911 586.943 890.382 597.448 886.569 607.591C884.175 613.962 880.971 620.126 877.28 625.839C876.144 627.597 874.863 629.892 873.176 631.142L872.685 631.178C871.233 631.506 869.454 633.625 868.199 634.577C865.309 636.771 862.19 638.787 859.059 640.629C852.038 644.76 844.181 648.309 836.272 650.28C819.396 654.485 797.714 652.449 782.163 644.533L768.474 636.28C762.814 638.653 757.606 641.647 751.553 643.021L750.664 643.214C744.248 644.66 737.384 644.219 730.996 642.78C714.449 639.053 700.275 628.037 689.827 615.014C675.507 597.166 666.101 573.766 656.991 552.955L636.973 506.42C631.585 493.54 626.405 479.69 618.996 467.846C608.191 481.331 599.04 498.324 593.474 514.644C592.794 516.637 591.389 519.776 591.491 521.867C591.507 522.193 591.656 522.665 591.732 522.953L591.392 523.514C590.516 525.089 590.552 527.673 590.312 529.482C589.728 533.867 590.017 538.431 590.105 542.848C587.535 540.878 585.399 539.082 583.404 536.515C576.145 527.32 569.87 517.109 562.997 507.597C555.736 497.547 546.864 487.47 541.024 476.563C538.653 472.133 537.511 467.361 535.741 462.7C536.196 457.914 535.428 452.772 535.593 447.914C535.919 438.352 539.703 429.494 542.778 420.606L559.113 390.335L570.825 374.615L582.581 360.39L597.708 344.562L598.067 344.631C604.823 337.719 612.413 331.822 620.132 326.043C638.339 312.414 659.773 298.778 681.824 292.638C691.071 289.095 700.351 286.187 710.068 284.231C722.572 281.613 736.629 278.554 749.439 278.794L753.414 278.505Z"/>
	<path fill="#A12C22" transform="scale(0.488281 0.488281)" d="M720.724 385.367C725.496 382.026 732.887 379.881 738.346 377.812C751.754 372.731 765.706 367.756 779.765 364.9C793.418 362.127 807.401 361.271 821.298 361.486L822.005 362.867L781.551 368.746C764.586 371.877 747.71 379.022 732.243 386.462C726.212 389.364 719.817 392.271 714.266 396.002C710.414 398.591 706.985 401.921 703.301 404.754C698.945 408.104 694.121 410.996 689.208 413.452C684.752 415.679 680.101 417.192 675.299 418.481C672.525 419.225 667.941 419.36 665.609 420.868C662.378 422.959 659.296 426.015 656.374 428.535C646.678 436.902 637.658 445.931 629.174 455.52C625.867 459.257 622.1 463.19 619.322 467.325L618.996 467.846C608.191 481.331 599.04 498.324 593.474 514.644C592.794 516.637 591.389 519.776 591.491 521.867C591.507 522.193 591.656 522.665 591.732 522.953L591.392 523.514C590.516 525.089 590.552 527.673 590.312 529.482C589.728 533.867 590.017 538.431 590.105 542.848C587.535 540.878 585.399 539.082 583.404 536.515C583.794 532.848 583.639 529.13 584.131 525.465C586.012 511.479 591.67 498.187 598.586 486C601.5 480.865 605.337 475.855 607.909 470.615L608.338 469.722C613.771 464.055 618.22 456.909 623.233 450.81C632.116 440.002 643.027 429.77 653.923 421.027L648.508 420.324C633.567 418.021 620.433 413.558 608.25 404.438C604.925 401.948 600.853 398.782 598.518 395.3C597.641 393.992 597.846 393.772 598.195 392.331C601.891 396.228 605.516 399.877 609.797 403.147C624.742 414.563 645.554 418.968 663.985 416.355C677.401 414.453 691.739 408.748 701.775 399.507C704.925 396.607 707.498 393.249 710.058 389.836C712.443 389.073 719.492 387.359 720.724 385.367Z"/>
	<path fill="#EA9A09" transform="scale(0.488281 0.488281)" d="M821.298 361.486C834.06 362.593 844.722 364.425 855.418 371.943L860.017 379.535L841.96 398.968L841.014 397.234C832.687 395.414 823.132 396.508 814.75 397.376C808.804 397.991 802.149 398.433 796.496 400.455L781.551 368.746L822.005 362.867L821.298 361.486Z"/>
	<path fill="#461B42" transform="scale(0.488281 0.488281)" d="M821.298 361.486C834.06 362.593 844.722 364.425 855.418 371.943L860.017 379.535L841.96 398.968L841.014 397.234L829.183 375.06C826.903 371.002 824.779 366.603 822.005 362.867L821.298 361.486Z"/>
	<path fill="#C94944" transform="scale(0.488281 0.488281)" d="M570.825 374.615L582.581 360.39C584.234 371.145 590.054 381.703 596.63 390.223C596.831 390.483 598.234 392.182 598.195 392.331C597.846 393.772 597.641 393.992 598.518 395.3C600.853 398.782 604.925 401.948 608.25 404.438C620.433 413.558 633.567 418.021 648.508 420.324L653.923 421.027C643.027 429.77 632.116 440.002 623.233 450.81C618.22 456.909 613.771 464.055 608.338 469.722C607.336 462.387 606.287 455.104 603.277 448.263C598.452 437.299 589.156 427.74 581.702 418.425L559.113 390.335L570.825 374.615Z"/>
	<path fill="#C9BE9A" transform="scale(0.488281 0.488281)" d="M597.708 344.562L598.067 344.631C597.657 351.194 597.197 359.914 601.792 365.25C605.252 369.268 610.875 372.04 615.616 374.323C631.247 381.85 649.182 387.088 666.586 387.932C680.288 388.597 697.956 387.881 708.687 378.189C713.558 373.789 718.233 366.281 719.484 359.776C719.4 370.77 715.783 380.512 710.058 389.836C707.498 393.249 704.925 396.607 701.775 399.507C691.739 408.748 677.401 414.453 663.985 416.355C645.554 418.968 624.742 414.563 609.797 403.147C605.516 399.877 601.891 396.228 598.195 392.331C598.234 392.182 596.831 390.483 596.63 390.223C590.054 381.703 584.234 371.145 582.581 360.39L597.708 344.562Z"/>
	<path fill="#E9816E" transform="scale(0.488281 0.488281)" d="M559.113 390.335L581.702 418.425C589.156 427.74 598.452 437.299 603.277 448.263C606.287 455.104 607.336 462.387 608.338 469.722L607.909 470.615C605.337 475.855 601.5 480.865 598.586 486C591.67 498.187 586.012 511.479 584.131 525.465C583.639 529.13 583.794 532.848 583.404 536.515C576.145 527.32 569.87 517.109 562.997 507.597C555.736 497.547 546.864 487.47 541.024 476.563C538.653 472.133 537.511 467.361 535.741 462.7C536.196 457.914 535.428 452.772 535.593 447.914C535.919 438.352 539.703 429.494 542.778 420.606L559.113 390.335Z"/>
	<path fill="#F4F0E3" transform="scale(0.488281 0.488281)" d="M598.067 344.631C604.823 337.719 612.413 331.822 620.132 326.043C638.339 312.414 659.773 298.778 681.824 292.638L683.473 293.324C701.639 308.244 716.823 327.842 719.336 351.933L719.484 359.776C718.233 366.281 713.558 373.789 708.687 378.189C697.956 387.881 680.288 388.597 666.586 387.932C649.182 387.088 631.247 381.85 615.616 374.323C610.875 372.04 605.252 369.268 601.792 365.25C597.197 359.914 597.657 351.194 598.067 344.631Z"/>
	<path fill="#FCB8BC" transform="scale(0.488281 0.488281)" d="M753.414 278.505L782.861 281.828C785.868 282.327 788.74 282.825 791.443 284.345C795.229 286.473 798.715 290.933 801.871 293.961L842.794 350.577C847.212 357.298 852.564 364.421 855.418 371.943C844.722 364.425 834.06 362.593 821.298 361.486C807.401 361.271 793.418 362.127 779.765 364.9C765.706 367.756 751.754 372.731 738.346 377.812C732.887 379.881 725.496 382.026 720.724 385.367C719.492 387.359 712.443 389.073 710.058 389.836C715.783 380.512 719.4 370.77 719.484 359.776L719.336 351.933C716.823 327.842 701.639 308.244 683.473 293.324L681.824 292.638C691.071 289.095 700.351 286.187 710.068 284.231C722.572 281.613 736.629 278.554 749.439 278.794L753.414 278.505Z"/>
	<path fill="#C94944" transform="scale(0.488281 0.488281)" d="M683.473 293.324C686.484 294.235 688.852 296.274 691.356 298.106C702.112 305.973 711.684 317.095 717.937 328.878C725.287 342.727 728.721 362.279 723.976 377.457L720.724 385.367C719.492 387.359 712.443 389.073 710.058 389.836C715.783 380.512 719.4 370.77 719.484 359.776L719.336 351.933C716.823 327.842 701.639 308.244 683.473 293.324Z"/>
	<path fill="#76DB9C" transform="scale(0.488281 0.488281)" d="M796.496 400.455C802.149 398.433 808.804 397.991 814.75 397.376C823.132 396.508 832.687 395.414 841.014 397.234L841.96 398.968L866.033 453.467C882.553 492.524 896.323 533.166 892.792 576.201C891.911 586.943 890.382 597.448 886.569 607.591C884.175 613.962 880.971 620.126 877.28 625.839C876.144 627.597 874.863 629.892 873.176 631.142L872.685 631.178C871.233 631.506 869.454 633.625 868.199 634.577C865.309 636.771 862.19 638.787 859.059 640.629C852.038 644.76 844.181 648.309 836.272 650.28C819.396 654.485 797.714 652.449 782.163 644.533L768.474 636.28L768.481 636.171C766.387 633.798 763.195 631.821 760.691 629.854L745.694 617.589C725.83 600.245 709.65 578.055 697.131 554.994C682.12 527.345 671.084 496.888 668.887 465.35C694.74 438.93 727.065 418.835 762.555 408.151C773.698 404.796 785.146 402.909 796.496 400.455Z"/>
	<path fill="#FCD149" transform="scale(0.488281 0.488281)" d="M796.496 400.455C802.149 398.433 808.804 397.991 814.75 397.376C823.132 396.508 832.687 395.414 841.014 397.234L841.96 398.968L866.033 453.467C882.553 492.524 896.323 533.166 892.792 576.201C891.911 586.943 890.382 597.448 886.569 607.591C884.175 613.962 880.971 620.126 877.28 625.839C876.144 627.597 874.863 629.892 873.176 631.142L872.685 631.178C871.233 631.506 869.454 633.625 868.199 634.577C865.309 636.771 862.19 638.787 859.059 640.629C852.038 644.76 844.181 648.309 836.272 650.28C819.396 654.485 797.714 652.449 782.163 644.533L768.474 636.28L768.481 636.171L768.895 635.989C780.965 630.385 792.642 623.607 804.063 616.787C811.709 612.221 820.3 607.36 826.787 601.228C833.67 594.722 839.23 586.631 842.516 577.731C845.62 569.323 847.883 560.325 847.799 551.309C847.713 542.064 846.491 532.494 844.372 523.5C841.062 509.444 835.803 495.738 830.764 482.23L796.496 400.455Z"/>
	<path fill="#256D76" transform="scale(0.488281 0.488281)" d="M167.389 305.515C170.55 301.887 175.274 299.082 179.251 296.363C201 281.494 226.8 271.553 253.204 269.628C289.236 267.001 322.996 278.198 350.286 301.946L367.83 318.408C377.703 331.793 387.709 344.769 396.335 359.029C410.676 382.738 422.08 408.702 434.122 433.66L455.286 490.536L451.156 490.151C442.965 489.525 435.552 489.737 427.37 490.446C426.766 490.498 423.667 490.587 423.349 490.853C410.833 492.133 399.126 495.479 387.051 498.785C382.762 500.158 377.273 501.295 373.407 503.544L372.355 503.914C377.67 508.417 382.986 512.989 387.534 518.288C397.773 530.218 403.336 544.355 404.585 559.962C405.221 567.896 405.509 580.69 401.845 587.907L397.633 599.957C391.992 611.32 378.175 619.462 366.533 623.355C363.539 624.357 360.593 625.125 357.484 625.68C355.809 625.979 352.977 626.149 351.497 626.852L327.301 642.855C308.39 656.655 291.348 675.223 277.664 694.142C284.944 706.979 292.386 719.726 300.839 731.839C320.236 759.634 342.969 783.606 369.998 804.082C384.918 815.386 401.301 825.779 419.484 830.824C434.22 834.913 449.068 833.495 463.358 828.466L463.754 828.47C468.456 831.477 473.761 833.745 478.867 835.985C496.744 843.825 516.25 848.445 535.418 851.896L536.13 852.048L536.607 851.924C547.715 853.827 559.773 853.933 571.043 853.448L583.873 852.429C574.748 867.092 563.07 880.475 549.655 891.406C543.292 896.591 536.373 901.156 529.58 905.755C528.722 907.296 527.885 908.266 526.609 909.474C507.001 928.044 485.639 942.027 461.598 954.147C436.341 966.879 411.497 976.615 382.688 975.675C365.839 975.125 349.23 971.292 334 964.031C322.483 958.54 312.345 950.583 302.342 942.744C279.251 924.649 257.123 904.353 237.161 882.849C204.484 847.647 175.861 808.183 151.674 766.719C105.464 687.503 72.8288 597.637 76.0901 504.73C77.3938 467.59 85.5379 430.544 102.716 397.489C107.44 388.4 113.27 378.484 120.824 371.474C123.945 364.455 126.445 357.359 129.996 350.5C136.67 337.607 146.053 325.659 156.299 315.425C159.749 311.979 163.379 308.292 167.389 305.515Z"/>
	<path fill="#461B42" transform="scale(0.488281 0.488281)" d="M120.824 371.474C123.945 364.455 126.445 357.359 129.996 350.5C136.67 337.607 146.053 325.659 156.299 315.425C159.749 311.979 163.379 308.292 167.389 305.515L166.969 306.34C165.998 308.146 164.117 309.703 162.671 311.172L156.411 318C143.23 333.482 132.039 352.028 129.312 372.434C128.674 377.207 127.992 395.113 130.457 398.792C129.15 409.139 126.981 419.188 126.533 429.671C125.495 453.934 127.799 477.567 132.109 501.406C143.112 562.275 167.823 619.616 198.309 673.094C198.439 675.46 198.256 677.838 198.661 680.181C199.561 685.38 201.593 690.546 203.223 695.558C196.781 687.962 191.003 679.284 185.486 671L161.905 632.33C150.109 610.859 140.516 588.059 132.44 564.946C116.5 519.325 106.164 471.043 110.402 422.478C111.93 404.979 115.945 388.28 120.824 371.474Z"/>
	<path fill="#C9BE9A" transform="scale(0.488281 0.488281)" d="M130.457 398.792C135.61 377.48 142.192 358.362 154.492 340.02C154.187 353.208 153.876 366.493 154.768 379.665C155.578 391.626 157.432 403.496 159.494 415.295C160.322 420.033 160.629 425.806 162.387 430.243L162.034 433.396C164.067 437.026 165.113 441.923 166.41 445.921L172.748 464.126C178.288 479.364 184.827 493.772 192.102 508.239C199.243 522.439 207.082 536.791 217.229 549.098L220.172 553.952L250.802 585.176L242.235 594.434C234.309 603.204 225.49 612.335 219.518 622.575L209.614 638.962C203.828 650.074 200.735 660.884 198.309 673.094C167.823 619.616 143.112 562.275 132.109 501.406C127.799 477.567 125.495 453.934 126.533 429.671C126.981 419.188 129.15 409.139 130.457 398.792Z"/>
	<path fill="#EA9A09" transform="scale(0.488281 0.488281)" d="M162.034 433.396C164.067 437.026 165.113 441.923 166.41 445.921L172.748 464.126C178.288 479.364 184.827 493.772 192.102 508.239C199.243 522.439 207.082 536.791 217.229 549.098L220.172 553.952L250.802 585.176L242.235 594.434C234.309 603.204 225.49 612.335 219.518 622.575L209.614 638.962C205.505 631.314 202.225 622.968 198.728 615.008C184.128 581.773 172.659 547.04 165.728 511.37C160.699 485.49 157.738 459.604 162.034 433.396Z"/>
	<path fill="#3D9C59" transform="scale(0.488281 0.488281)" d="M220.172 553.952L250.802 585.176L242.235 594.434C238.3 589.649 235.51 583.996 232.548 578.584C228.126 570.506 223.748 562.45 220.172 553.952Z"/>
	<path fill="#461B42" transform="scale(0.488281 0.488281)" d="M256.304 735.63C262.251 720.954 268.26 707.053 277.664 694.142C284.944 706.979 292.386 719.726 300.839 731.839C320.236 759.634 342.969 783.606 369.998 804.082C384.918 815.386 401.301 825.779 419.484 830.824C434.22 834.913 449.068 833.495 463.358 828.466L463.754 828.47C468.456 831.477 473.761 833.745 478.867 835.985C496.744 843.825 516.25 848.445 535.418 851.896L536.13 852.048L536.607 851.924C547.715 853.827 559.773 853.933 571.043 853.448L583.873 852.429C574.748 867.092 563.07 880.475 549.655 891.406C543.292 896.591 536.373 901.156 529.58 905.755C525.993 907.151 522.685 909.421 519.211 911.088C510.431 915.299 501.299 918.819 491.954 921.565C454.861 932.461 417.478 929.079 383.504 910.382C320.395 875.652 273.233 819.59 236.053 759L219.577 729.813C216.216 723.315 212.777 717.023 210.733 709.965C217.122 717.788 222.814 726.752 228.563 735.057C233.345 741.967 238.794 749.458 245.491 754.637C246.118 754.899 247.109 754.796 247.75 754.511C251.145 752.998 254.671 739.662 256.304 735.63Z"/>
	<path fill="#EA9A09" transform="scale(0.488281 0.488281)" d="M256.304 735.63C262.251 720.954 268.26 707.053 277.664 694.142C284.944 706.979 292.386 719.726 300.839 731.839C320.236 759.634 342.969 783.606 369.998 804.082C384.918 815.386 401.301 825.779 419.484 830.824C434.22 834.913 449.068 833.495 463.358 828.466L463.754 828.47C468.456 831.477 473.761 833.745 478.867 835.985C496.744 843.825 516.25 848.445 535.418 851.896L536.13 852.048C530.297 857.49 523 862.33 516.295 866.597C506.131 873.067 495.405 878.666 483.868 882.25C466.086 887.774 445.63 888.036 427.512 883.944C369.705 870.888 325.288 827.431 289.792 782.381C277.835 767.205 266.625 751.965 256.304 735.63Z"/>
	<path fill="#76DB9C" transform="scale(0.488281 0.488281)" d="M167.389 305.515C170.55 301.887 175.274 299.082 179.251 296.363C201 281.494 226.8 271.553 253.204 269.628C289.236 267.001 322.996 278.198 350.286 301.946L367.83 318.408C377.703 331.793 387.709 344.769 396.335 359.029C410.676 382.738 422.08 408.702 434.122 433.66L455.286 490.536L451.156 490.151C442.965 489.525 435.552 489.737 427.37 490.446C426.766 490.498 423.667 490.587 423.349 490.853C410.833 492.133 399.126 495.479 387.051 498.785C382.762 500.158 377.273 501.295 373.407 503.544L372.355 503.914C377.67 508.417 382.986 512.989 387.534 518.288C397.773 530.218 403.336 544.355 404.585 559.962C405.221 567.896 405.509 580.69 401.845 587.907L397.633 599.957C391.992 611.32 378.175 619.462 366.533 623.355C363.539 624.357 360.593 625.125 357.484 625.68C355.809 625.979 352.977 626.149 351.497 626.852L327.301 642.855C308.39 656.655 291.348 675.223 277.664 694.142C268.26 707.053 262.251 720.954 256.304 735.63C254.671 739.662 251.145 752.998 247.75 754.511C247.109 754.796 246.118 754.899 245.491 754.637C238.794 749.458 233.345 741.967 228.563 735.057C222.814 726.752 217.122 717.788 210.733 709.965C210.773 709.373 204.121 697.38 203.223 695.558C201.593 690.546 199.561 685.38 198.661 680.181C198.256 677.838 198.439 675.46 198.309 673.094C200.735 660.884 203.828 650.074 209.614 638.962L219.518 622.575C225.49 612.335 234.309 603.204 242.235 594.434L250.802 585.176L220.172 553.952L217.229 549.098C207.082 536.791 199.243 522.439 192.102 508.239C184.827 493.772 178.288 479.364 172.748 464.126L166.41 445.921C165.113 441.923 164.067 437.026 162.034 433.396L162.387 430.243C160.629 425.806 160.322 420.033 159.494 415.295C157.432 403.496 155.578 391.626 154.768 379.665C153.876 366.493 154.187 353.208 154.492 340.02C142.192 358.362 135.61 377.48 130.457 398.792C127.992 395.113 128.674 377.207 129.312 372.434C132.039 352.028 143.23 333.482 156.411 318L162.671 311.172C164.117 309.703 165.998 308.146 166.969 306.34L167.389 305.515Z"/>
	<path fill="#FCD149" transform="scale(0.488281 0.488281)" d="M170.535 400.94C175.859 433.253 182.689 464.331 194.518 495L207.163 526.529C210.466 534.106 214.395 541.313 217.229 549.098C207.082 536.791 199.243 522.439 192.102 508.239C184.827 493.772 178.288 479.364 172.748 464.126L166.41 445.921C165.113 441.923 164.067 437.026 162.034 433.396L162.387 430.243C164.187 420.752 166.136 409.586 170.535 400.94Z"/>
	<defs>
		<linearGradient id="gradient_1" gradientUnits="userSpaceOnUse" x1="304.76892" y1="598.43976" x2="395.46042" y2="530.26373">
			<stop offset="0" stop-color="#FEFDE3"/>
			<stop offset="1" stop-color="#FEF6ED"/>
		</linearGradient>
	</defs>
	<path fill="url(#gradient_1)" transform="scale(0.488281 0.488281)" d="M275.623 561.371C293.683 543.747 314.826 529.083 337.174 517.404C341.949 514.909 367.905 502.523 372.355 503.914C377.67 508.417 382.986 512.989 387.534 518.288C397.773 530.218 403.336 544.355 404.585 559.962C405.221 567.896 405.509 580.69 401.845 587.907L397.633 599.957C391.992 611.32 378.175 619.462 366.533 623.355C363.539 624.357 360.593 625.125 357.484 625.68C355.809 625.979 352.977 626.149 351.497 626.852C348.002 627.102 344.429 627.509 340.928 627.316C320.899 624.873 306.872 615.084 291.717 602.426C281.151 593.599 271.423 584.104 262.221 573.857L275.623 561.371Z"/>
	<path fill="#C9BE9A" transform="scale(0.488281 0.488281)" d="M275.623 561.371C298.131 583.248 328.031 605.938 360.969 605.498C370.528 605.37 381.728 602.419 389.482 596.633C393.606 593.555 397.134 590.138 401.845 587.907L397.633 599.957C391.992 611.32 378.175 619.462 366.533 623.355C363.539 624.357 360.593 625.125 357.484 625.68C355.809 625.979 352.977 626.149 351.497 626.852C348.002 627.102 344.429 627.509 340.928 627.316C320.899 624.873 306.872 615.084 291.717 602.426C281.151 593.599 271.423 584.104 262.221 573.857L275.623 561.371Z"/>
	<path fill="#C94944" transform="scale(0.488281 0.488281)" d="M250.802 585.176L262.221 573.857C271.423 584.104 281.151 593.599 291.717 602.426C306.872 615.084 320.899 624.873 340.928 627.316C344.429 627.509 348.002 627.102 351.497 626.852L327.301 642.855C308.39 656.655 291.348 675.223 277.664 694.142C268.26 707.053 262.251 720.954 256.304 735.63C254.671 739.662 251.145 752.998 247.75 754.511C247.109 754.796 246.118 754.899 245.491 754.637C238.794 749.458 233.345 741.967 228.563 735.057C222.814 726.752 217.122 717.788 210.733 709.965C210.773 709.373 204.121 697.38 203.223 695.558C201.593 690.546 199.561 685.38 198.661 680.181C198.256 677.838 198.439 675.46 198.309 673.094C200.735 660.884 203.828 650.074 209.614 638.962L219.518 622.575C225.49 612.335 234.309 603.204 242.235 594.434L250.802 585.176Z"/>
	<path fill="#A12C22" transform="scale(0.488281 0.488281)" d="M340.928 627.316C344.429 627.509 348.002 627.102 351.497 626.852L327.301 642.855C308.39 656.655 291.348 675.223 277.664 694.142C268.26 707.053 262.251 720.954 256.304 735.63C254.671 739.662 251.145 752.998 247.75 754.511C247.109 754.796 246.118 754.899 245.491 754.637C246.721 752.554 245.984 747.253 246.154 744.75C246.328 742.198 246.896 739.649 247.54 737.179C251.558 721.745 258.582 708.648 267.188 695.297L286.169 672.088C297.842 659 311.053 647.403 325.274 637.157L338.07 628.713C339.029 628.037 339.806 627.668 340.928 627.316Z"/>
	<path fill="#E9816E" transform="scale(0.488281 0.488281)" d="M219.518 622.575C232.097 648.39 248.242 673.664 267.188 695.297C258.582 708.648 251.558 721.745 247.54 737.179C246.896 739.649 246.328 742.198 246.154 744.75C245.984 747.253 246.721 752.554 245.491 754.637C238.794 749.458 233.345 741.967 228.563 735.057C222.814 726.752 217.122 717.788 210.733 709.965C210.773 709.373 204.121 697.38 203.223 695.558C201.593 690.546 199.561 685.38 198.661 680.181C198.256 677.838 198.439 675.46 198.309 673.094C200.735 660.884 203.828 650.074 209.614 638.962L219.518 622.575Z"/>
	<path fill="#F4F0E3" transform="scale(0.488281 0.488281)" d="M167.389 305.515C170.55 301.887 175.274 299.082 179.251 296.363C201 281.494 226.8 271.553 253.204 269.628C289.236 267.001 322.996 278.198 350.286 301.946L367.83 318.408C377.703 331.793 387.709 344.769 396.335 359.029C410.676 382.738 422.08 408.702 434.122 433.66L455.286 490.536L451.156 490.151C442.965 489.525 435.552 489.737 427.37 490.446C426.766 490.498 423.667 490.587 423.349 490.853C410.833 492.133 399.126 495.479 387.051 498.785C383.574 487.864 377.749 477.114 373.168 466.564L330.155 374.212L319.983 353.878C317.51 349.202 314.247 344.648 312.6 339.611C309.875 337.321 306.399 336.128 303.078 334.958C290.273 330.444 276.774 329.313 263.296 330.52C234.848 333.067 206.076 347.375 187.842 369.49C180.426 378.484 173.704 389.632 170.535 400.94C166.136 409.586 164.187 420.752 162.387 430.243C160.629 425.806 160.322 420.033 159.494 415.295C157.432 403.496 155.578 391.626 154.768 379.665C153.876 366.493 154.187 353.208 154.492 340.02C142.192 358.362 135.61 377.48 130.457 398.792C127.992 395.113 128.674 377.207 129.312 372.434C132.039 352.028 143.23 333.482 156.411 318L162.671 311.172C164.117 309.703 165.998 308.146 166.969 306.34L167.389 305.515Z"/>
	<path fill="#FCD149" transform="scale(0.488281 0.488281)" d="M312.6 339.611C318.528 342.207 324.522 346.492 329.645 350.409C346.713 363.456 359.59 379.607 371.898 397C392.396 425.965 409.824 458.056 423.349 490.853C410.833 492.133 399.126 495.479 387.051 498.785C383.574 487.864 377.749 477.114 373.168 466.564L330.155 374.212L319.983 353.878C317.51 349.202 314.247 344.648 312.6 339.611Z"/>
	<defs>
		<linearGradient id="gradient_2" gradientUnits="userSpaceOnUse" x1="204.97931" y1="485.43359" x2="382.37219" y2="337.53781">
			<stop offset="0" stop-color="#76295C"/>
			<stop offset="1" stop-color="#905591"/>
		</linearGradient>
	</defs>
	<path fill="url(#gradient_2)" transform="scale(0.488281 0.488281)" d="M167.389 305.515C170.55 301.887 175.274 299.082 179.251 296.363C201 281.494 226.8 271.553 253.204 269.628C289.236 267.001 322.996 278.198 350.286 301.946L367.83 318.408C377.703 331.793 387.709 344.769 396.335 359.029C410.676 382.738 422.08 408.702 434.122 433.66L455.286 490.536L451.156 490.151L419.032 423.26C397.091 380.423 372.242 334.717 331.799 306.553C304.609 287.619 272.777 280.167 240.137 286.221C206.021 292.548 174.372 311.239 154.492 340.02C142.192 358.362 135.61 377.48 130.457 398.792C127.992 395.113 128.674 377.207 129.312 372.434C132.039 352.028 143.23 333.482 156.411 318L162.671 311.172C164.117 309.703 165.998 308.146 166.969 306.34L167.389 305.515Z"/>
</svg>
