<?xml version="1.0" encoding="utf-8" ?>
<svg xmlns="http://www.w3.org/2000/svg" xmlns:xlink="http://www.w3.org/1999/xlink" width="500" height="500">
	<path fill="#2BA7A5" transform="scale(0.488281 0.488281)" d="M-0 -0L1024 0L1024 1024L-0 1024L0 -0Z"/>
	<path fill="#176E86" transform="scale(0.488281 0.488281)" d="M885.75 476.565C902.788 492.101 923.741 505.907 936.542 525.462C939.863 530.536 942.815 536.293 943.129 542.458C943.619 552.069 939.349 560.79 932.916 567.75C924.464 576.894 914.309 583.989 904.06 590.952L864.056 616.285L712.5 699.083L564.407 768.354L504.5 792.541L470.968 805.595C454.304 811.938 437.521 817.944 419.497 818.509C405.831 818.937 391.721 817.476 378.836 812.694C365.68 807.811 353.873 800.114 341.765 793.154L273.608 750.245C240.397 727.886 207.758 704.158 178.661 676.562C172.208 670.441 165.967 664.08 160.156 657.346C156.477 653.084 152.172 648.891 150.204 643.49C163.739 656.928 178.164 668.556 193.161 680.285C232.466 711.023 274.41 737.902 317.314 763.286L342.106 777.724C350.136 782.219 358.455 786.653 367.44 788.903L375.093 790.009C381.746 790.498 387.974 789.393 394.363 787.651C403.181 785.246 411.735 781.472 420.271 778.235L494 747.562L717.28 640.845L806.416 590.25L835.392 572.203C843.705 566.895 852.184 561.409 859.54 554.809C867.571 547.604 874.349 538.533 878.288 528.452C880.83 521.947 881.892 514.977 882.869 508.096L885.75 476.565Z"/>
	<path fill="#C76183" transform="scale(0.488281 0.488281)" d="M385.018 720.286L512.97 670.574C595.46 634.993 674.697 593.165 752.501 548.359C798.268 522.002 844.255 494.946 886.168 462.674L885.75 476.565L882.869 508.096C881.892 514.977 880.83 521.947 878.288 528.452C874.349 538.533 867.571 547.604 859.54 554.809C852.184 561.409 843.705 566.895 835.392 572.203L806.416 590.25L717.28 640.845L494 747.562L420.271 778.235C411.735 781.472 403.181 785.246 394.363 787.651C387.974 789.393 381.746 790.498 375.093 790.009L367.44 788.903C370.585 786.605 372.746 783.672 374.275 780.121C377.464 774.414 378.783 767.511 380.051 761.158C382.745 747.667 384.163 734.005 385.018 720.286Z"/>
	<path fill="#F7C8C9" transform="scale(0.488281 0.488281)" d="M141.184 464.896C145.44 454.199 153.883 446.563 162.826 439.75C171.117 433.434 180.27 427.677 189.345 422.532L190.752 423.375C188.69 426.333 185.127 428.224 182.257 430.344C173.398 436.888 156.384 448.521 158.722 461.355C159.598 466.163 161.756 469.98 164.838 473.732C173.732 484.557 186.371 493.622 197.44 502.124L244.259 536.057L309.066 576.754L354.376 600.934C357.206 602.526 359.858 604.362 362.497 606.25C362.888 606.53 364.784 608.118 365.159 608.13C369.503 612.653 373.108 617.632 376.273 623.045C381.03 634.224 382.268 646.103 383.432 658.091C385.438 678.753 385.641 699.549 385.018 720.286C384.163 734.005 382.745 747.667 380.051 761.158C378.783 767.511 377.464 774.414 374.275 780.121C372.746 783.672 370.585 786.605 367.44 788.903C358.455 786.653 350.136 782.219 342.106 777.724L317.314 763.286C274.41 737.902 232.466 711.023 193.161 680.285C178.164 668.556 163.739 656.928 150.204 643.49C149.104 641.62 147.444 639.995 146.121 638.265C144.055 635.565 142.236 632.729 140.67 629.711C136.404 621.491 134.128 612.533 132.353 603.5C129.536 589.168 128.414 574.76 127.894 560.187C127.022 550.946 127.474 541.47 127.975 532.22C129.228 509.089 132.567 486.543 141.184 464.896Z"/>
	<path fill="#FEF7FA" transform="scale(0.488281 0.488281)" d="M141.184 464.896C145.44 454.199 153.883 446.563 162.826 439.75C171.117 433.434 180.27 427.677 189.345 422.532L190.752 423.375C188.69 426.333 185.127 428.224 182.257 430.344C173.398 436.888 156.384 448.521 158.722 461.355C159.598 466.163 161.756 469.98 164.838 473.732C173.732 484.557 186.371 493.622 197.44 502.124L244.259 536.057L309.066 576.754L354.376 600.934C357.206 602.526 359.858 604.362 362.497 606.25C362.888 606.53 364.784 608.118 365.159 608.13C369.503 612.653 373.108 617.632 376.273 623.045C381.03 634.224 382.268 646.103 383.432 658.091C385.438 678.753 385.641 699.549 385.018 720.286C384.163 734.005 382.745 747.667 380.051 761.158C378.783 767.511 377.464 774.414 374.275 780.121C373.837 778.193 374.681 776.387 375.158 774.535C375.716 772.371 375.951 769.993 376.242 767.777C377.377 759.133 377.791 750.335 378.065 741.628C378.345 739.958 378.439 738.372 378.454 736.681C378.677 712.447 377.774 688.043 375.208 663.94C373.709 649.854 372.319 632.918 365.065 620.376C363.031 616.858 360.439 613.635 357.159 611.198C347.561 604.064 335.963 599.33 325.339 593.905L282.25 570.241C247.447 549.378 214.931 525.049 183.082 500.006L161.686 482.678C154.626 476.962 147.568 471.367 141.184 464.896Z"/>
	<path fill="#DE7C9E" transform="scale(0.488281 0.488281)" d="M127.894 560.187C133.654 564.087 139.05 569.14 144.412 573.593L170.75 594.81C203.418 620.278 237.411 644.554 272.649 666.347L328.155 700.339L361.844 720.075C366.804 722.969 374.091 726.024 378.087 730.081L378.065 741.628C377.791 750.335 377.377 759.133 376.242 767.777C375.951 769.993 375.716 772.371 375.158 774.535C374.681 776.387 373.837 778.193 374.275 780.121C372.746 783.672 370.585 786.605 367.44 788.903C358.455 786.653 350.136 782.219 342.106 777.724L317.314 763.286C274.41 737.902 232.466 711.023 193.161 680.285C178.164 668.556 163.739 656.928 150.204 643.49C149.104 641.62 147.444 639.995 146.121 638.265C144.055 635.565 142.236 632.729 140.67 629.711C136.404 621.491 134.128 612.533 132.353 603.5C129.536 589.168 128.414 574.76 127.894 560.187Z"/>
	<path fill="#DE7C9E" transform="scale(0.488281 0.488281)" d="M880.776 389.805C883.942 407.403 885.384 424.443 885.896 442.295C886.089 449.054 886.52 455.923 886.168 462.674C844.255 494.946 798.268 522.002 752.501 548.359C674.697 593.165 595.46 634.993 512.97 670.574L385.018 720.286C385.641 699.549 385.438 678.753 383.432 658.091C382.268 646.103 381.03 634.224 376.273 623.045C406.814 615.613 436.014 602.32 465.097 590.615C547.257 557.549 627.87 520.715 706 478.965L805.5 422.021C819.323 413.992 832.96 404.009 847.736 397.901C858.59 393.414 869.309 391.721 880.776 389.805Z"/>
	<path fill="#FDDFCF" transform="scale(0.488281 0.488281)" d="M189.345 422.532L189.346 422.502L222.069 403.973L283.836 372.318L439.5 301.966L581 248.512C600.092 241.956 620.017 232.983 640.392 231.986C657.417 231.152 672.28 236.267 687.747 242.857C697.745 247.116 707.363 252.523 717 257.54C748.717 274.05 779.184 292.536 809.275 311.818C825.15 321.991 842.605 332.219 856.557 344.927C864.612 352.263 870.932 360.173 875.014 370.369L880.776 389.805C869.309 391.721 858.59 393.414 847.736 397.901C832.96 404.009 819.323 413.992 805.5 422.021L706 478.965C627.87 520.715 547.257 557.549 465.097 590.615C436.014 602.32 406.814 615.613 376.273 623.045C373.108 617.632 369.503 612.653 365.159 608.13C364.784 608.118 362.888 606.53 362.497 606.25C359.858 604.362 357.206 602.526 354.376 600.934L309.066 576.754L244.259 536.057L197.44 502.124C186.371 493.622 173.732 484.557 164.838 473.732C161.756 469.98 159.598 466.163 158.722 461.355C156.384 448.521 173.398 436.888 182.257 430.344C185.127 428.224 188.69 426.333 190.752 423.375L189.345 422.532Z"/>
	<path fill="#FB8DAA" transform="scale(0.488281 0.488281)" d="M365.159 608.13C365.969 608.13 365.782 608.031 366.392 608.315C368.789 609.432 370.974 610.727 373.616 611.223C379.749 612.376 387.769 611.148 393.75 609.525C402.933 607.033 411.653 602.938 420.416 599.3L461.451 582.085L625.358 510.337L755.905 440.75L807 411.986C830.257 398.881 853.197 385.79 875.014 370.369L880.776 389.805C869.309 391.721 858.59 393.414 847.736 397.901C832.96 404.009 819.323 413.992 805.5 422.021L706 478.965C627.87 520.715 547.257 557.549 465.097 590.615C436.014 602.32 406.814 615.613 376.273 623.045C373.108 617.632 369.503 612.653 365.159 608.13Z"/>
	<path fill="#F7C8C9" transform="scale(0.488281 0.488281)" d="M641.512 273.114C644.303 272.561 648.198 272.752 651.04 273.12C655.693 273.724 660.296 275.066 664.478 277.205C674.368 282.262 683.598 289.587 693.16 295.368L749.442 328.583L774.408 344.118C780.248 347.963 787.208 352.095 791.444 357.759C793.906 361.05 794.004 363.892 793.401 367.87C792.625 372.992 790.255 378.448 785.916 381.506C783.277 383.366 779.529 384.43 776.5 385.536L759.833 391.847L718.88 410.823L615.335 463.313L507.712 515.99L444.33 545.697C430.572 551.979 416.635 558.72 402.421 563.867C393.907 566.95 387.093 566.734 378.286 565.029C374.22 563.866 370.392 562.641 366.5 560.976L354.707 554.851L269.433 498.604L245.776 482.665C240.562 479.194 234.795 475.977 230.131 471.794C227.683 469.599 225.165 466.025 224.556 462.75C223.795 458.654 226.074 454.156 228.482 450.972C231.213 447.36 236.635 444.713 240.482 442.389C252.924 434.875 265.892 428.376 278.857 421.83C343.461 389.209 408.935 358.554 476.27 331.945L507.431 320.51L598.688 287.241L626.571 277.438C631.421 275.798 636.405 273.736 641.512 273.114Z"/>
</svg>
