<svg width="1719" height="1720" xmlns="http://www.w3.org/2000/svg" xmlns:xlink="http://www.w3.org/1999/xlink" xml:space="preserve" overflow="hidden"><defs><linearGradient x1="2494.89" y1="1771.74" x2="1691.94" y2="830.055" gradientUnits="userSpaceOnUse" spreadMethod="reflect" id="fill0"><stop offset="0" stop-color="#707578"/><stop offset="0.5" stop-color="#88939B"/><stop offset="1" stop-color="#A0B2BE"/></linearGradient><linearGradient x1="1703.96" y1="1426.6" x2="2540.86" y2="1242.19" gradientUnits="userSpaceOnUse" spreadMethod="reflect" id="fill1"><stop offset="0" stop-color="#404145"/><stop offset="0.5" stop-color="#4D4E50"/><stop offset="1" stop-color="#5A5B5B"/></linearGradient><linearGradient x1="2440.26" y1="1335.72" x2="2204.53" y2="1285.08" gradientUnits="userSpaceOnUse" spreadMethod="reflect" id="fill2"><stop offset="0" stop-color="#A93A00"/><stop offset="0.5" stop-color="#BA4803"/><stop offset="1" stop-color="#CB5606"/></linearGradient><linearGradient x1="2136.86" y1="1608.27" x2="2131.96" y2="1556.47" gradientUnits="userSpaceOnUse" spreadMethod="reflect" id="fill3"><stop offset="0" stop-color="#C65204"/><stop offset="0.5" stop-color="#D85F07"/><stop offset="1" stop-color="#EB6D0A"/></linearGradient><linearGradient x1="2024.19" y1="1386.01" x2="2006.69" y2="1535.77" gradientUnits="userSpaceOnUse" spreadMethod="reflect" id="fill4"><stop offset="0" stop-color="#73644A"/><stop offset="0.5" stop-color="#B3A78C"/><stop offset="1" stop-color="#F3EBCF"/></linearGradient><linearGradient x1="1959.01" y1="1124.03" x2="1833.86" y2="1362.66" gradientUnits="userSpaceOnUse" spreadMethod="reflect" id="fill5"><stop offset="0" stop-color="#76613A"/><stop offset="0.5" stop-color="#B1A282"/><stop offset="1" stop-color="#ECE4CA"/></linearGradient><linearGradient x1="2159.58" y1="1150.62" x2="2119.24" y2="1408.06" gradientUnits="userSpaceOnUse" spreadMethod="reflect" id="fill6"><stop offset="0" stop-color="#665536"/><stop offset="0.5" stop-color="#B1A68B"/><stop offset="1" stop-color="#FCF7E0"/></linearGradient></defs><g transform="translate(-1340 -377)"><path d="M1990.5 2096.91 1340.91 2096.91 1340.91 377.906 3058.91 377.906 3058.91 1009.66 3058.91 2096.91 1990.5 2096.91Z" fill="#705238" fill-rule="evenodd"/><path d="M1695.95 730.109C1725.94 711.113 1758.65 695.118 1789.72 677.909L1852.45 643.591C1868.66 634.605 1885.34 622.54 1903.39 617.873 1928.72 611.324 1956.18 614.552 1981.95 616.538 1968.19 630.443 1949.55 639.358 1933.04 649.631L1827.75 715.686 1807 728.787C1801.6 732.079 1795.82 735.033 1790.83 738.949 1785.94 739.115 1780.48 738.113 1775.54 737.676L1738.88 733.946 1715.43 731.775C1709 731.325 1702.21 731.74 1695.95 730.109Z" fill="#E2E3E3" fill-rule="evenodd"/><path d="M2798.24 1456.86 2798.4 1528.78C2798.44 1547.53 2799.56 1567.04 2798.12 1585.71 2795.36 1621.56 2779.8 1655.72 2755.47 1682.09 2747.87 1690.33 2739.32 1698.57 2730.06 1704.92 2708.37 1719.79 2684.5 1732.27 2662.18 1746.31L2587.33 1792.38C2572.36 1801.62 2557.82 1811.74 2542.31 1820.05 2538.49 1822.1 2535.2 1823.4 2530.85 1823.86L2535.5 1819.85C2562.01 1795.25 2579.35 1764.04 2584.02 1727.9 2588.1 1696.4 2584.89 1664 2586.16 1632.3L2797.78 1505.37 2798.24 1456.86Z" fill="#5F676C" fill-rule="evenodd"/><path d="M1981.79 615.955 2086.78 625.16 2410.83 653.426 2550.12 665.507 2621.29 671.656C2644.74 673.994 2666.07 676.087 2688.41 684.159 2700.14 689.047 2711.34 694.401 2721.88 701.549 2749.52 720.285 2772.4 749.805 2785.17 780.508 2790.23 792.68 2792.8 805.02 2795.9 817.73L2590.32 947.344 2589.82 953.955C2588.15 934.193 2588.15 916.455 2581.61 897.389 2567.28 855.605 2538.07 822.343 2498.48 802.906 2470.33 791.748 2439.09 793.144 2409.25 790.554L2276.71 779.937 1965.43 753.841 1790.89 738.836C1795.88 734.905 1801.64 731.94 1807.05 728.635L1827.77 715.484 1932.94 649.176C1949.44 638.862 1968.06 629.914 1981.79 615.955Z" fill="#CDD1D3" fill-rule="evenodd"/><path d="M2590.27 954 2590.78 947.395 2796.48 817.907C2799.78 847.29 2798.67 876.897 2798.67 906.439L2798.67 1033.11 2798.51 1456.84 2798.05 1505.24 2586.85 1631.91 2590.27 954Z" fill="#93A1AC" fill-rule="evenodd"/><path d="M2803.81 757.884C2813.13 764.299 2821.46 774.319 2829.52 782.326L2881.57 834.225 3058.89 1009.96 3058.89 2096.88 1990.05 2096.88 1769.36 1877.79 1710.53 1818.61C1704.67 1812.62 1696.24 1806.23 1691.89 1799.18 1710.02 1804.94 1726.6 1812.17 1745.45 1816.04 1770.71 1821.23 1797.07 1820.92 1822.73 1822.52L1949.66 1831.11 2177.46 1850.8 2344.03 1870.66 2400.11 1878.07C2410.15 1879.31 2420.42 1880.96 2430.53 1881.23 2459.72 1882.01 2488.31 1879.36 2515.5 1867.92 2535.49 1859.51 2554.22 1846.04 2572.76 1834.79L2683.72 1766.12 2721.62 1742.56C2734.04 1735.02 2747.04 1727.64 2757.94 1717.94 2780.6 1697.77 2799.97 1671.77 2811.37 1643.58 2818.69 1625.47 2823.85 1607.09 2825.13 1587.51 2826.04 1573.52 2825.38 1559.18 2825.27 1545.15L2825.02 1477.18 2825.08 1220.27 2825.4 964.462 2825.49 883.849C2825.52 865.714 2826.16 847.363 2824.49 829.297 2822.15 803.993 2813.69 781.054 2803.81 757.884Z" fill="#D97018" fill-rule="evenodd"/><path d="M1990.5 2096.91 1340.91 2096.91 1340.91 377.906 3058.91 377.906 3058.91 1009.66 2881.66 833.867 2829.64 781.953C2821.58 773.944 2813.25 763.92 2803.93 757.504 2798.67 747.464 2793.4 737.401 2786.89 728.096 2764.45 696.028 2731.53 670.006 2694 658.277 2665.87 649.487 2634.74 649.35 2605.53 646.781L2461.55 634.382 2214.93 611.411 2143.99 605.554 2016.2 594.302C1991.09 592.037 1965.47 588.151 1940.28 587.919 1913.94 587.677 1885.05 592.373 1861.6 604.766L1744.69 670.074 1692.88 699.021C1672.42 710.309 1651.76 720.188 1634.38 736.158 1610.11 758.454 1592.48 787.506 1582.96 818.963 1578.4 834.04 1575.99 849.521 1575.39 865.247L1575.38 918.012 1575.56 1011.86 1575.78 1307.08 1575.64 1524.94 1575.76 1593.08C1575.81 1609.74 1575.53 1626.51 1576.94 1643.11 1578.92 1666.34 1586.64 1690.23 1597.67 1710.7 1613.75 1740.52 1637.46 1766.95 1666.31 1784.9 1674.79 1790.17 1683.85 1794.12 1692.46 1799.11 1696.82 1806.17 1705.25 1812.56 1711.1 1818.55L1769.91 1877.74 1990.5 2096.91Z" fill="#FDB12C" fill-rule="evenodd"/><path d="M1696.25 729.9C1702.51 731.537 1709.29 731.12 1715.72 731.572L1739.14 733.752 1775.75 737.496C1780.69 737.935 1786.14 738.94 1791.03 738.774L1965.55 753.78 2276.82 779.876 2409.36 790.494C2439.2 793.083 2470.44 791.688 2498.59 802.846 2538.17 822.283 2567.38 855.546 2581.71 897.331 2588.25 916.397 2588.25 934.136 2589.92 953.899L2586.5 1632.48C2585.23 1664.15 2588.43 1696.5 2584.37 1727.98 2579.7 1764.08 2562.41 1795.25 2535.97 1819.82L2531.34 1823.83 2515.01 1834C2492.62 1846.35 2467.06 1852.22 2441.56 1851.89 2425.46 1851.67 2409.62 1849.29 2393.67 1847.38L2318.23 1837.96 2096.61 1813.18 1904.55 1799.02 1827.42 1794.75C1792.37 1793.05 1759.02 1792.9 1724.97 1783.08 1681.43 1770.52 1643.72 1738.39 1622.06 1698.9 1612.09 1680.74 1604.82 1659.91 1603.15 1639.18 1600.82 1610.15 1602.52 1579.91 1602.48 1550.73L1602.46 1376.08 1602.61 1018.59 1602.72 930.079C1602.62 898.139 1599.58 863.406 1608.6 832.47 1618.03 800.09 1637.05 769.727 1664.15 749.343 1674.11 741.851 1685.34 735.881 1696.25 729.9Z" fill="#FEFEFE" fill-rule="evenodd"/><path d="M1782.73 837.84C1794.82 835.563 1809.12 837.996 1821.4 839.074L1860 842.116 2014.4 855.206 2276.07 876.263 2352.09 882.472C2367.18 883.616 2382.86 883.891 2397.81 886.139 2411.37 888.177 2425.52 894.231 2437.03 901.539 2467.19 920.684 2487.98 952.177 2496.09 986.769 2498.15 995.562 2498.8 1004.86 2499.7 1013.85 2501.72 1033.87 2502.26 1053.27 2502.42 1073.38L2502.43 1167.83 2502.58 1496.8 2502.74 1608.24 2502.84 1641.73C2502.84 1648.8 2503.24 1656.29 2502.19 1663.29 2498.97 1684.83 2492.11 1704.17 2478.64 1721.53 2459.76 1745.87 2434.97 1760.14 2404.43 1763.96 2390.2 1766.43 2374.12 1763.43 2359.81 1761.92L2297.56 1755.31 1963.38 1726 1869.77 1719.85C1846.27 1718.73 1822.09 1719.1 1798.86 1715.34 1780.88 1712.44 1762.86 1703.94 1748.05 1693.58 1715.98 1671.16 1694.11 1639.07 1686.95 1600.47L1686.25 1596.46C1683.99 1580.63 1684.74 1564.18 1684.74 1548.23L1684.69 1481.09 1684.53 1246.08 1684.2 1026.91 1684.12 977.969C1683.98 964.233 1683.43 950.641 1685.03 936.967 1687.35 916.958 1695.21 896.44 1707.46 880.375 1726.14 855.869 1752.64 842.042 1782.73 837.84Z" fill="url(#fill0)" fill-rule="evenodd"/><path d="M2417.76 942.895C2422.87 945.32 2427.12 949.708 2431.2 953.571 2447.61 969.119 2461.18 988.168 2468.75 1009.58 2471.86 1018.38 2474.33 1028.11 2474.79 1037.45L2474.91 1074.97 2474.77 1140.06 2474.78 1347.79 2474.78 1535.25 2474.72 1595.89C2474.7 1607.24 2475.13 1618.81 2474.41 1630.12 2473.51 1644.31 2470.29 1658.32 2464.16 1671.18 2455.79 1688.73 2445.16 1702.73 2429.04 1713.88 2422.05 1718.71 2414.45 1721.91 2406.35 1724.37 2402.22 1725.62 2398.18 1725.98 2393.88 1725.88 2378.09 1725.5 2362.15 1723.21 2346.4 1721.9L2235.42 1711.75 2106.49 1700.25 1938.8 1684.79 1854.33 1679.68C1843.3 1679.08 1832.18 1679.18 1821.18 1677.92 1811.26 1676.79 1803.52 1674.2 1794.36 1670.42 1792.57 1669.69 1790.55 1669.58 1788.92 1668.51 1783.88 1665.21 1779.19 1660.31 1774.61 1656.35 1772.85 1654.82 1770.62 1653.51 1769.91 1651.27 1781.67 1657.78 1792.61 1662.35 1805.92 1664.61 1820.77 1668.29 1838.53 1667.29 1853.82 1668.15L1949.91 1674.53 2173.38 1695.6 2246.73 1701.2 2327.37 1708.41C2341.64 1709.72 2356.51 1711.94 2370.83 1711.92 2382.17 1711.91 2393.86 1708.03 2403.5 1702.21 2417.77 1693.58 2428.34 1679.62 2435.66 1664.85 2442.04 1652.29 2446.19 1638.5 2446.83 1624.38L2447.04 1576.25 2447.03 1489.4 2447.09 1230.07 2447.03 1082.31 2447.05 1036.67C2447.04 1024.92 2447.33 1013.26 2445.6 1001.6 2442.39 979.836 2432.6 959.084 2417.76 942.895Z" fill="url(#fill1)" fill-rule="evenodd"/><path d="M1769.25 1651.98C1765.21 1648.65 1760.58 1646.34 1756.61 1642.87 1742.14 1630.21 1731.09 1611.6 1725.58 1593.29 1723.01 1584.74 1721.4 1576 1721.04 1567.08L1720.92 1447.9 1720.97 1218.65 1721.24 1045.83 1721.19 991.519C1721.18 981.219 1720.76 970.706 1721.48 960.44 1722.49 945.991 1726.34 931.364 1733.22 918.565 1743.56 899.325 1762.06 883.721 1783.13 877.597 1793.35 874.628 1804.62 874.65 1815.18 875.157L1909.99 882.928 2136.04 901.817 2291.96 914.762 2346.56 919.042C2357.24 919.895 2368.45 920.199 2378.98 922.189 2388.79 924.041 2400.31 928.425 2408.04 934.734 2411.04 937.185 2414.35 941.282 2417.79 942.909L2418.52 943.18C2433.39 959.378 2443.2 980.143 2446.43 1001.92 2448.15 1013.59 2447.87 1025.26 2447.88 1037.01L2447.86 1082.67 2447.92 1230.52 2447.86 1490.01 2447.87 1576.92 2447.66 1625.07C2447.01 1639.2 2442.86 1652.99 2436.47 1665.57 2432.64 1668.22 2429.99 1673.66 2427.38 1677.55L2422.33 1684.26C2418.89 1688.68 2414.28 1694.26 2409.43 1697.17L2399.27 1703.9C2400.98 1701.56 2403.39 1699.26 2404.49 1696.57 2405.78 1693.42 2407.15 1690.79 2407.18 1687.31 2407.19 1685.67 2407.17 1684.71 2407.58 1683.08 2408.84 1678.05 2407.26 1672.52 2408.25 1667.46 2408.59 1665.71 2408.46 1662.45 2409.1 1660.99 2409.84 1659.3 2411.73 1657.38 2412.84 1655.83 2415.81 1651.63 2418.93 1646.66 2420.81 1641.89 2422.15 1638.45 2423.23 1635.41 2423.99 1631.79 2424.26 1630.46 2424.5 1629.36 2424.56 1628 2425.25 1610.23 2424.03 1592.63 2423.93 1574.86L2423.91 1436.17 2425.39 1393.34C2425.54 1386.47 2427.54 1379.11 2424.16 1372.75 2426.41 1358.14 2425.37 1341.88 2425.42 1327.06L2425.95 1325.49C2427.6 1320.18 2426.76 1310.96 2425.6 1305.61 2424.77 1301.81 2425.67 1297.69 2425.68 1293.86 2425.68 1292 2424.97 1290.24 2424.8 1288.4 2424.44 1284.45 2424.89 1280.23 2424.71 1276.23 2424.64 1274.75 2423.98 1273.61 2423.95 1272.08 2423.87 1269.23 2424.22 1266.08 2423.41 1263.33 2422.91 1261.64 2423.25 1259.71 2423.38 1257.97 2423.66 1259.64 2423.92 1261.17 2424.43 1262.79L2424.72 1263.8C2425.03 1264.85 2425.42 1265.79 2425.87 1266.78 2425.28 1260.67 2423.47 1254.76 2423.01 1248.62 2421.58 1229.62 2422.77 1209.62 2422.73 1190.53L2422.16 1086.49 2422.01 1043.6C2421.95 1032.28 2422.39 1020.95 2419.82 1009.84 2415.52 991.214 2405.26 973.51 2390.39 961.34 2382.07 954.529 2373.1 949.299 2362.34 947.463 2353.5 945.954 2344.27 945.68 2335.33 944.946L2288.37 941.054 2115.47 926.869 1905.46 908.791 1852.9 904.489C1839.26 903.367 1824.12 901.199 1810.47 902.779 1791.91 904.927 1775.16 914.527 1763.59 929.139 1755.72 939.078 1751.39 950.667 1748.34 962.819 1744.69 977.398 1746.55 995.924 1746.52 1011.06L1746.46 1083.98 1746.84 1407.25 1746.82 1517.47C1746.81 1536.35 1745.65 1556.29 1747.4 1575.08 1749.01 1592.36 1755.6 1610.77 1764.72 1625.46 1771.63 1636.59 1780.83 1645.73 1790.89 1654.02 1794.99 1657.39 1802.6 1660.98 1805.34 1665.33 1791.99 1663.06 1781.03 1658.49 1769.25 1651.98Z" fill="#CDD1D3" fill-rule="evenodd"/><path d="M1806.06 1664.59C1803.33 1660.24 1795.74 1656.66 1791.65 1653.28 1781.6 1645 1772.42 1635.86 1765.53 1624.74 1756.43 1610.06 1749.85 1591.66 1748.25 1574.39 1746.5 1555.61 1747.66 1535.68 1747.67 1516.81L1747.69 1406.65 1747.3 1083.56 1747.37 1010.67C1747.39 995.548 1745.54 977.032 1749.18 962.462 1752.22 950.316 1756.55 938.733 1764.4 928.8 1775.95 914.196 1792.66 904.601 1811.19 902.455 1824.81 900.876 1839.92 903.042 1853.53 904.163L1905.99 908.463 2115.57 926.531 2288.12 940.708 2334.99 944.599C2343.91 945.332 2353.12 945.606 2361.95 947.114 2372.68 948.948 2381.63 954.176 2389.93 960.983 2404.77 973.147 2415.01 990.84 2419.31 1009.46 2421.87 1020.56 2421.43 1031.89 2421.49 1043.2L2421.64 1086.06 2422.21 1190.04C2422.25 1209.13 2421.06 1229.11 2422.49 1248.1 2422.95 1254.24 2424.76 1260.15 2425.35 1266.26 2424.9 1265.27 2424.51 1264.33 2424.19 1263.28L2423.9 1262.27C2423.4 1260.65 2423.13 1259.12 2422.85 1257.45 2422.72 1259.19 2422.39 1261.11 2422.89 1262.8 2423.7 1265.56 2423.35 1268.7 2423.42 1271.55 2423.46 1273.08 2424.12 1274.22 2424.18 1275.7 2424.36 1279.7 2423.91 1283.91 2424.27 1287.87 2424.44 1289.71 2425.15 1291.46 2425.15 1293.32 2425.14 1297.15 2424.24 1301.26 2425.07 1305.07 2426.23 1310.41 2427.07 1319.62 2425.43 1324.93L2424.89 1326.51C2424.84 1341.31 2425.89 1357.57 2423.63 1372.17 2427.01 1378.52 2425.01 1385.88 2424.87 1392.75L2423.39 1435.55 2423.41 1574.17C2423.51 1591.92 2424.72 1609.51 2424.03 1627.28 2423.98 1628.64 2423.74 1629.74 2423.46 1631.06 2422.71 1634.68 2421.64 1637.73 2420.29 1641.16 2418.42 1645.93 2415.31 1650.89 2412.34 1655.09 2411.24 1656.64 2409.34 1658.57 2408.61 1660.25 2407.97 1661.71 2408.1 1664.96 2407.75 1666.72 2406.77 1671.78 2408.35 1677.3 2407.09 1682.33 2406.68 1683.95 2406.7 1684.91 2406.69 1686.56 2406.66 1690.04 2405.29 1692.67 2404 1695.81 2402.91 1698.5 2400.51 1700.8 2398.79 1703.14L2408.94 1696.41C2413.77 1693.5 2418.38 1687.92 2421.81 1683.51L2426.85 1676.8C2429.46 1672.91 2432.1 1667.48 2435.92 1664.82 2428.59 1679.59 2418.02 1693.55 2403.75 1702.18 2394.11 1708.01 2382.41 1711.88 2371.07 1711.9 2356.75 1711.92 2341.88 1709.69 2327.6 1708.39L2246.95 1701.17 2173.58 1695.58 1950.07 1674.5 1853.97 1668.12C1838.68 1667.27 1820.91 1668.26 1806.06 1664.59Z" fill="#93A1AC" fill-rule="evenodd"/><path d="M2337.03 1088.9 2337.6 1089.34C2344.71 1094.69 2350.77 1102.22 2356.31 1109.16 2368.45 1124.35 2379.23 1141.07 2387.71 1158.57 2392.01 1167.44 2395.38 1176.67 2399.1 1185.77 2408.51 1208.74 2416.88 1232.48 2420.38 1257.16L2424.71 1326.81C2424.66 1341.61 2425.7 1357.86 2423.45 1372.46 2420 1406.19 2413.27 1441.54 2401.36 1473.36 2383.2 1521.9 2351.86 1565.76 2311.75 1598.56 2279.94 1624.58 2238.51 1644.79 2198.16 1653.17 2167.39 1659.56 2135.45 1660.23 2104.28 1656.98 2042.83 1650.58 1989.52 1622.25 1940.2 1586.6L1921.75 1573.02C1918.64 1570.71 1914.8 1568.32 1912.35 1565.32L1911.91 1564.7 1912.61 1564.96C1916.1 1566.29 1918.81 1568.52 1922.13 1570.05L1945.69 1580.4C1971.03 1591.88 2000.77 1601.01 2028.57 1602.84 2045.95 1604.63 2063.2 1604.09 2080.59 1602.76 2121.16 1598.31 2158.01 1585.17 2193.45 1565.04L2213.95 1553.26 2214.92 1548.73C2223.65 1542.06 2232.65 1535.79 2240.89 1528.49 2270.53 1502.21 2297.27 1468.13 2312.37 1431.34 2327.83 1393.65 2336.69 1352.95 2336.29 1312.09 2335.84 1266.37 2324.34 1221.79 2306.84 1179.76L2288.65 1141.56C2285.82 1136.06 2282.12 1130.52 2279.85 1124.81L2279.3 1123.38 2332.13 1089.94 2331.32 1087.89C2333.25 1088.94 2333.77 1089.41 2336.01 1089.46L2337.03 1088.9Z" fill="#5F676C" fill-rule="evenodd"/><path d="M2337.11 1088.91 2337.68 1089.34 2337.97 1089.99C2341.66 1098.1 2347.19 1105.61 2351.68 1113.31 2358.09 1124.28 2363.86 1135.74 2368.95 1147.39 2401.05 1220.81 2408.52 1310.02 2380.82 1386.01 2370.62 1414 2355.67 1439.52 2336.71 1462.46 2330.44 1470.03 2323.46 1478.31 2315.78 1484.5 2301.85 1499.94 2282.37 1512.53 2264.69 1523.15 2259.09 1526.52 2253.06 1530.68 2246.89 1532.9 2255.57 1524.32 2267.89 1517.97 2277.91 1510.91 2292.03 1500.96 2304.64 1490.04 2317.07 1478.05 2325.03 1468.31 2333.78 1459.35 2341.34 1449.23 2367 1414.91 2383.75 1373.33 2389.64 1330.84 2393.4 1303.72 2394.65 1274.67 2391.68 1247.4 2386.74 1202.08 2371.03 1155.98 2348.31 1116.66 2343.24 1107.87 2338.29 1098 2332.23 1089.95L2331.43 1087.9C2333.35 1088.94 2333.86 1089.42 2336.09 1089.46L2337.11 1088.91Z" fill="url(#fill2)" fill-rule="evenodd"/><path d="M2332.38 1089.9C2338.48 1097.97 2343.46 1107.86 2348.57 1116.67 2371.45 1156.07 2387.26 1202.27 2392.23 1247.7 2395.22 1275.02 2393.96 1304.14 2390.18 1331.32 2384.25 1373.91 2367.39 1415.58 2341.55 1449.98 2333.94 1460.11 2325.13 1469.09 2317.11 1478.86 2304.6 1490.88 2291.91 1501.82 2277.69 1511.8 2267.6 1518.87 2255.2 1525.24 2246.46 1533.83L2213.89 1553.9 2214.87 1549.37C2223.62 1542.68 2232.65 1536.41 2240.91 1529.09 2270.62 1502.78 2297.43 1468.65 2312.57 1431.8 2328.07 1394.05 2336.95 1353.29 2336.55 1312.38 2336.1 1266.58 2324.57 1221.94 2307.03 1179.85L2288.79 1141.59C2285.95 1136.08 2282.24 1130.54 2279.97 1124.81L2279.42 1123.38 2332.38 1089.9Z" fill="#D97018" fill-rule="evenodd"/><path d="M1886.11 1029.83C1947.66 977.153 2030.06 945.673 2111.56 951.618 2188.62 957.239 2263.07 999.394 2313.04 1057.39L2336.92 1088.79 2335.9 1089.35C2333.66 1089.3 2333.15 1088.83 2331.22 1087.78L2332.02 1089.83 2279.22 1123.27 2279.76 1124.7C2282.03 1130.42 2285.73 1135.96 2288.56 1141.46L2306.74 1179.66C2324.24 1221.69 2335.74 1266.27 2336.18 1312 2336.58 1352.85 2327.73 1393.55 2312.27 1431.25 2297.17 1468.04 2270.45 1502.13 2240.82 1528.4 2232.58 1535.71 2223.58 1541.97 2214.86 1548.65L2213.89 1553.17 2193.39 1564.95C2157.97 1585.09 2121.14 1598.23 2080.58 1602.68 2063.19 1604.01 2045.96 1604.55 2028.58 1602.75 2000.8 1600.93 1971.06 1591.8 1945.73 1580.32L1922.18 1569.96C1918.86 1568.44 1916.15 1566.21 1912.66 1564.88L1911.96 1564.62 1894.85 1552.68C1892.26 1550.87 1889.06 1549.34 1887.88 1546.4 1883.04 1542.14 1877.53 1538.67 1872.56 1534.51 1858.09 1522.37 1844.74 1509.25 1832.41 1494.94 1789.71 1445.37 1764.36 1382.14 1757.61 1317.26 1755.18 1293.93 1755.64 1270.46 1757.33 1247.1L1756.59 1246.95C1756.28 1245.47 1756.17 1244.58 1756.43 1243.06 1758.43 1231.67 1759.37 1220.21 1761.87 1208.83 1772.2 1161.71 1795.38 1117.91 1829.21 1083.43 1837.3 1075.19 1847.02 1069.18 1855.16 1061.31 1859.06 1057.54 1862.32 1053.05 1866.03 1049.09 1872.37 1042.33 1879.3 1036.11 1886.11 1029.83Z" fill="#FEFEFE" fill-rule="evenodd"/><path d="M1887.93 1546.87C1917.26 1566.7 1950.98 1582.73 1985.38 1591.6 2000.53 1595.5 2015.84 1597.67 2031.35 1599.54L2075.68 1599.64 2075.42 1601.78 2080.93 1602.66C2063.52 1603.98 2046.25 1604.51 2028.85 1602.73 2001.02 1600.93 1971.24 1591.87 1945.87 1580.49L1922.28 1570.23C1918.96 1568.71 1916.24 1566.5 1912.75 1565.18L1912.05 1564.93 1894.91 1553.09C1892.32 1551.3 1889.11 1549.79 1887.93 1546.87Z" fill="#D97018" fill-rule="evenodd"/><path d="M2186.63 1562.24C2188.09 1562.18 2192.48 1561.57 2193.66 1562.05L2193.91 1565.5C2158.28 1585.44 2121.24 1598.46 2080.45 1602.87L2074.91 1601.99 2075.17 1599.85C2082.16 1598.75 2089.16 1598.36 2096.13 1597.05 2129.12 1590.83 2158.13 1579.64 2186.63 1562.24Z" fill="url(#fill3)" fill-rule="evenodd"/><path d="M1968.07 1432.69C1969.95 1425.47 1973.82 1418.11 1978.37 1412.26 1988.65 1399.05 2003.97 1392.73 2020.11 1390.89 2013.88 1397.78 2009.52 1404.38 2006.02 1413.04 2005.74 1413.74 2003.1 1420.69 2003.1 1420.69 1999.01 1442.81 1999.23 1466.88 2012.02 1486.33 2014.25 1489.71 2017.29 1492.36 2019.49 1495.69 2023.09 1498.23 2026.66 1501.13 2030.74 1502.81 2038.56 1507.45 2048.52 1508.31 2057.15 1505.81L2065.94 1502.2C2065.33 1508.81 2055.27 1518.72 2050.18 1522.79 2042.66 1528.8 2028.92 1531.93 2019.55 1530.57 2007.77 1528.86 1993.45 1520.94 1986.06 1511.15L1985.88 1510.65C1974.67 1499.88 1968.38 1481.22 1965.97 1466.16 1964.22 1455.28 1964.56 1443.15 1968.07 1432.69Z" fill="url(#fill4)" fill-rule="evenodd"/><path d="M1885.83 1029.82C1947.42 977.153 2029.87 945.675 2111.42 951.62 2188.53 957.241 2263.03 999.392 2313.03 1057.38L2336.92 1088.78 2335.9 1089.34C2333.66 1089.29 2333.15 1088.82 2331.21 1087.77 2327.5 1084.81 2324.25 1078.79 2321.26 1074.95L2302.52 1052.68C2267.23 1014.23 2221.76 984.738 2172.19 968.485 2104.54 946.301 2027.3 952.93 1963.78 985.123 1936.79 997.676 1913.89 1012.27 1890.54 1030.74L1868.24 1051.61C1892.45 1039.8 1915.75 1029.92 1942.19 1024.12 2015.15 1009.02 2091.7 1024.33 2153.8 1065.28 2158.39 1068.31 2185.18 1086.68 2186.21 1089.96 2206.76 1105.94 2223.61 1127.26 2239.62 1147.53L2247.12 1158.23C2254.59 1167.94 2260.57 1179.28 2266.21 1190.14 2295.55 1246.67 2309.06 1313.13 2300.95 1376.56 2296.38 1412.33 2287.03 1445.51 2269.46 1477.14 2265.69 1483.95 2261.36 1492.03 2256.25 1497.9 2245.23 1515.38 2228.53 1534.35 2212.63 1547.6L2214.79 1548.6 2213.81 1553.12 2193.31 1564.9 2193.05 1561.42C2191.88 1560.94 2187.51 1561.55 2186.06 1561.61 2197.85 1553.15 2209.31 1544.45 2219.83 1534.43 2227.72 1526.92 2234.7 1518.7 2242.08 1510.72 2242.33 1509.28 2245.25 1506.16 2246.2 1504.85L2256.28 1489.96C2262.18 1480.72 2267.48 1471.12 2272.25 1461.25 2283.05 1438.86 2289.95 1414.16 2294.3 1389.73 2309.4 1305.15 2285.08 1219.79 2236.45 1150.17 2229.01 1139.43 2220.14 1128.96 2211.1 1119.49 2205.61 1113.74 2199.44 1108.38 2194.4 1102.24L2158.51 1073.81C2107.57 1039.15 2046.54 1019.18 1984.48 1021.96 1969.24 1022.64 1954.43 1025.12 1939.46 1027.94 1912.73 1035.82 1887.18 1045.09 1863.43 1059.98 1831.42 1080.04 1806.43 1110.02 1788.55 1142.97 1776.13 1165.87 1768.34 1189.74 1762.45 1215.01 1760.02 1225.4 1757.37 1236.38 1756.97 1247.08L1756.23 1246.93C1755.92 1245.45 1755.8 1244.55 1756.07 1243.04 1758.07 1231.65 1759.01 1220.19 1761.51 1208.81 1771.85 1161.69 1795.04 1117.89 1828.9 1083.43 1836.99 1075.18 1846.72 1069.17 1854.87 1061.3 1858.76 1057.54 1862.02 1053.04 1865.74 1049.09 1872.08 1042.33 1879.02 1036.11 1885.83 1029.82Z" fill="#D97018" fill-rule="evenodd"/><path d="M2193.91 1561.45 2212.83 1547.87 2214.91 1548.86 2213.96 1553.3 2194.15 1564.87 2193.91 1561.45Z" fill="#F88903" fill-rule="evenodd"/><path d="M2020.4 1390.89C2030.07 1391.68 2038.02 1393.11 2046.47 1398.15 2056.87 1404.88 2066.68 1415.39 2071.33 1427.09 2076.25 1435.52 2078.21 1445.35 2079.47 1454.91 2081.27 1468.48 2077.8 1488.02 2069.53 1499.15 2068.69 1500.28 2067.88 1500.8 2066.6 1501.33L2066.45 1501.92 2057.62 1505.52C2048.95 1508.01 2038.94 1507.15 2031.08 1502.53 2026.98 1500.85 2023.4 1497.96 2019.78 1495.42 2017.56 1492.1 2014.51 1489.46 2012.27 1486.08 1999.42 1466.69 1999.2 1442.67 2003.3 1420.61 2003.31 1420.61 2005.96 1413.68 2006.24 1412.99 2009.76 1404.35 2014.14 1397.76 2020.4 1390.89Z" fill="#080909" fill-rule="evenodd"/><path d="M2066.55 1500.89C2065.12 1497.42 2059.21 1495.43 2055.99 1493.24 2040.01 1482.38 2031.17 1468.96 2027.5 1449.75 2026.26 1443.24 2025.76 1436.61 2025.99 1429.98 2026.1 1426.42 2025.89 1422.71 2028.9 1420.22 2031.78 1417.84 2036.12 1417.17 2039.74 1416.97 2047.73 1416.54 2054.45 1417.68 2061.43 1421.82 2064.95 1423.91 2067.08 1426.49 2071.3 1426.83 2076.24 1435.24 2078.2 1445.04 2079.47 1454.59 2081.28 1468.12 2077.79 1487.61 2069.49 1498.72 2068.65 1499.84 2067.83 1500.36 2066.55 1500.89Z" fill="#454543" fill-rule="evenodd"/><path d="M1850.13 1166.99C1851.19 1159.55 1857.27 1149.32 1860.46 1144.15 1870.59 1127.73 1883.48 1120.19 1897.26 1120.89 1887.37 1132.54 1881.08 1152 1878.78 1172.29L1878.53 1174.68 1876.52 1213.53C1877.7 1247.42 1879.7 1281.86 1895.29 1305.93 1902.52 1317.09 1912.84 1325.08 1922.7 1324.02 1929.68 1323.26 1937.08 1317.75 1942.59 1310.44 1947.3 1303.86 1950 1294.19 1952.94 1285.22 1951.99 1295.85 1949.82 1308.63 1946.9 1318.16 1940.92 1337.68 1928.54 1356.64 1916.21 1362.34L1914.7 1363.01 1908.78 1365.27C1895.15 1368.26 1881.22 1359.27 1870.72 1344.42 1853.09 1319.48 1843.14 1281.71 1840.58 1242.98 1838.31 1219.59 1842.22 1186.46 1850.13 1166.99Z" fill="url(#fill5)" fill-rule="evenodd"/><path d="M2089.43 1222.55C2090.71 1216.18 2091.96 1209.74 2093.81 1203.78 2100.34 1182.66 2110.19 1165.98 2123.63 1159.32L2125.13 1158.61C2131.81 1155.35 2139.63 1154.98 2146.43 1157.43 2134.51 1169.32 2130.34 1185.04 2125.9 1206.9 2124.22 1227.3 2124.25 1246.98 2124.29 1267.55 2124.78 1299.95 2127.04 1322.02 2141.03 1345.33 2148.24 1357.34 2156.9 1364.81 2167.04 1364.09 2174.66 1363.54 2180.6 1358.68 2186.62 1351.03 2189.02 1347.9 2190.98 1342.73 2192.91 1338.69 2192.51 1344.33 2191.42 1349.37 2189.89 1354.35L2189.23 1356.47C2185.11 1369.96 2180.33 1379.24 2173.39 1388.43L2172.5 1389.61C2169.47 1393.67 2166.54 1396.51 2162.9 1398.71 2152.29 1405.12 2140.38 1404.03 2130.25 1395.74 2110.91 1379.9 2097.48 1346.45 2090.39 1312.04 2084.79 1282.28 2084.41 1252.6 2089.43 1222.55Z" fill="url(#fill6)" fill-rule="evenodd"/><path d="M2146.03 1157.84C2162.34 1164 2176.31 1182.21 2185.42 1206.73L2188.46 1215.8C2197.7 1240.87 2201 1282 2197.61 1310.76 2196.46 1320.48 2194.8 1330.31 2192.46 1339.36 2190.54 1343.41 2188.57 1348.58 2186.17 1351.72 2180.17 1359.38 2174.23 1364.25 2166.62 1364.79 2156.49 1365.52 2147.84 1358.04 2140.64 1346.01 2126.67 1322.67 2124.41 1300.57 2123.92 1268.12 2123.88 1247.52 2123.85 1227.81 2125.53 1207.38 2129.97 1185.49 2134.13 1169.75 2146.03 1157.84Z" fill="#080909" fill-rule="evenodd"/><path d="M2188.45 1215.76C2197.69 1240.86 2201 1282.04 2197.61 1310.83 2196.46 1320.56 2194.79 1330.41 2192.46 1339.47 2190.53 1343.52 2188.56 1348.7 2186.16 1351.84 2181.69 1344.27 2175.31 1340.53 2170.05 1334.93 2156.19 1320.21 2147.54 1295.5 2143.67 1268.38 2141.23 1251.21 2140.75 1239.98 2146.03 1224.12 2155.43 1213.31 2163.3 1213.62 2174.04 1216.7 2177.65 1217.74 2181.61 1219.71 2185.24 1219.43 2187.21 1219.28 2187.17 1218.18 2188.45 1215.76Z" fill="#454543" fill-rule="evenodd"/><path d="M1897.54 1120.85C1913.5 1121.69 1924.95 1134 1935.72 1154.01 1940.71 1163.27 1945.53 1175.09 1948.12 1187.05 1958.37 1218.43 1956.95 1251.32 1952.83 1285 1949.91 1293.96 1947.23 1303.62 1942.56 1310.19 1937.08 1317.49 1929.73 1323 1922.8 1323.75 1913.01 1324.81 1902.76 1316.84 1895.58 1305.68 1880.1 1281.64 1878.11 1247.24 1876.94 1213.38L1878.93 1174.58 1879.18 1172.2C1881.47 1151.92 1887.72 1132.48 1897.54 1120.85Z" fill="#080909" fill-rule="evenodd"/><path d="M1942.54 1310.84C1933.61 1302.9 1925.28 1295.13 1918.5 1281.76 1908.97 1262.99 1902.07 1239.25 1899.43 1214.53 1898.69 1207.65 1897.57 1200.1 1898.05 1193.05 1898.46 1187.04 1900.54 1181.74 1903.37 1178.47 1911.97 1168.52 1928.54 1173.65 1937.51 1179.43 1940.62 1181.43 1943.66 1185.48 1946.9 1186.43L1948.12 1186.72C1958.37 1218.36 1956.95 1251.51 1952.83 1285.46 1949.9 1294.49 1947.22 1304.22 1942.54 1310.84Z" fill="#454543" fill-rule="evenodd"/><path d="M1964.4 984.729C1971.1 986.657 1983.79 981.491 1991.17 980.26 2004.3 978.065 2017.71 977.257 2031.01 976.973 2061.77 976.318 2092.01 982.293 2120.93 992.553 2187.5 1016.17 2243.17 1062.15 2278.92 1123.54L2240.08 1147.92C2224.07 1127.56 2207.24 1106.14 2186.7 1090.08 2185.67 1086.78 2158.9 1068.32 2154.31 1065.28 2092.24 1024.12 2015.74 1008.75 1942.83 1023.92 1916.4 1029.74 1893.11 1039.67 1868.92 1051.54L1891.21 1030.57C1914.55 1012.01 1937.43 997.343 1964.4 984.729Z" fill="#FCD156" fill-rule="evenodd"/><path d="M1963.91 984.587C2027.53 952.347 2104.89 945.708 2172.65 967.924 2222.29 984.202 2267.84 1013.74 2303.18 1052.25L2321.96 1074.55C2324.95 1078.39 2328.2 1084.42 2331.92 1087.39L2332.73 1089.44 2279.81 1122.93 2280.35 1124.36C2282.63 1130.08 2286.33 1135.63 2289.17 1141.14L2307.39 1179.39C2324.93 1221.49 2336.45 1266.13 2336.9 1311.92 2337.3 1352.83 2328.42 1393.59 2312.93 1431.33 2297.8 1468.18 2271.02 1502.32 2241.33 1528.63 2233.07 1535.94 2224.05 1542.21 2215.31 1548.9L2213.15 1547.9C2229.07 1534.63 2245.8 1515.63 2256.84 1498.13 2261.96 1492.25 2266.29 1484.16 2270.07 1477.34 2287.67 1445.66 2297.03 1412.43 2301.61 1376.61 2309.73 1313.08 2296.2 1246.52 2266.82 1189.91 2261.17 1179.03 2255.18 1167.68 2247.69 1157.95L2240.19 1147.23 2279.11 1122.93C2243.28 1061.74 2187.49 1015.92 2120.78 992.385 2091.79 982.16 2061.5 976.204 2030.66 976.858 2017.34 977.14 2003.89 977.946 1990.73 980.134 1983.35 981.36 1970.63 986.509 1963.91 984.587Z" fill="#FDB12C" fill-rule="evenodd"/></g></svg>