<?xml version="1.0" encoding="utf-8" ?>
<svg xmlns="http://www.w3.org/2000/svg" xmlns:xlink="http://www.w3.org/1999/xlink" width="500" height="500">
	<path fill="#FEFEFE" transform="scale(0.488281 0.488281)" d="M-0 -0L1024 0L1024 1024L-0 1024L0 -0Z"/>
	<path fill="#0A0E46" transform="scale(0.488281 0.488281)" d="M443.935 153.047L445.304 122.527C445.436 118.404 445.111 113.791 445.68 109.75C445.834 108.657 446.352 107.692 446.999 106.808C447.813 105.696 448.987 104.774 450.297 104.327C453.674 103.175 458.007 103.012 461.547 102.545L481.166 99.7693C481.405 100.37 481.594 100.556 481.467 101.203C480.566 105.79 480.818 110.914 480.614 115.595L479.563 148.036L479.017 148.509L443.935 153.047Z"/>
	<path fill="#11968D" transform="scale(0.488281 0.488281)" d="M186.177 643.819L223.989 660.16L224.063 660.457C220.98 663.903 216.094 666.867 212.411 669.737L189.22 687.86L188.754 687.796L147.193 675.116L186.177 643.819Z"/>
	<path fill="#0A0E46" transform="scale(0.488281 0.488281)" d="M341.904 526.858C346.834 529.901 351.482 533.534 356.11 537.02C361.117 540.791 366.462 544.733 370.96 549.103C368.673 551.973 365.526 554.091 362.766 556.488L333.942 579.357C331.219 581.47 327.135 583.895 324.962 586.44L324.439 586.468C322.079 584.168 318.812 582.316 316.09 580.43C308.124 574.909 299.982 569.52 291.355 565.088L341.904 526.858Z"/>
	<path fill="#CF1F68" transform="scale(0.488281 0.488281)" d="M443.935 153.047L479.017 148.509L478.477 175.165L478.229 175.287C479.139 179.875 478.362 184.875 478.564 189.545C479.168 201.034 478.544 212.806 478.443 224.325C478.421 226.795 477.73 233.505 479.112 235.263L478.451 235.532C470.28 236.086 461.88 237.765 453.779 239.058C449.393 239.758 444.7 240.063 440.412 241.135L442.001 194.031L442.56 179.552L443.935 153.047Z"/>
	<path fill="#0A0E46" transform="scale(0.488281 0.488281)" d="M442.56 179.552L478.229 175.287C479.139 179.875 478.362 184.875 478.564 189.545L442.001 194.031L442.56 179.552Z"/>
	<path fill="#E35924" transform="scale(0.488281 0.488281)" d="M443.935 153.047L479.017 148.509L478.477 175.165L478.229 175.287L442.56 179.552L443.935 153.047Z"/>
	<path fill="#202159" transform="scale(0.488281 0.488281)" d="M641.007 76.8812L645.095 76.2461L643.532 125.391L638.98 126.146L627.416 127.787L623.877 128.313L611.547 130.143L607.442 130.737L595.771 132.325L592.346 132.752L579.94 134.474L577.914 134.697L576.896 135.022L574.389 135.059C573.441 132.767 574.592 127.072 574.83 124.408L577.014 98.9725C577.365 94.67 578.159 90.2763 577.67 85.9686L580.082 85.6779L594.464 83.5723L597.59 83.2447L609.93 81.309L614.274 80.7297L625.982 79.0797L628.635 78.7085L641.007 76.8812Z"/>
	<path fill="#0A0E46" transform="scale(0.488281 0.488281)" d="M609.93 81.309L614.274 80.7297L611.547 130.143L607.442 130.737L609.93 81.309Z"/>
	<path fill="#202159" transform="scale(0.488281 0.488281)" d="M614.274 80.7297L625.982 79.0797L623.604 118.08C623.505 120.816 622.75 125.892 623.877 128.313L611.547 130.143L614.274 80.7297Z"/>
	<path fill="#202159" transform="scale(0.488281 0.488281)" d="M641.007 76.8812L645.095 76.2461L643.532 125.391L638.98 126.146L627.416 127.787L623.877 128.313C622.75 125.892 623.505 120.816 623.604 118.08L625.982 79.0797L628.635 78.7085L641.007 76.8812Z"/>
	<path fill="#0A0E46" transform="scale(0.488281 0.488281)" d="M625.982 79.0797L628.635 78.7085L629.84 79.5158L627.416 127.787L623.877 128.313C622.75 125.892 623.505 120.816 623.604 118.08L625.982 79.0797Z"/>
	<path fill="#0A0E46" transform="scale(0.488281 0.488281)" d="M641.007 76.8812L645.095 76.2461L643.532 125.391L638.98 126.146L641.007 76.8812Z"/>
	<path fill="#202159" transform="scale(0.488281 0.488281)" d="M594.464 83.5723L597.59 83.2447C597.869 83.5798 598.274 83.8416 598.428 84.25C598.763 85.139 598.22 88.3898 598.136 89.5122L596.772 108.3L595.771 132.325L592.346 132.752L579.94 134.474L577.914 134.697L576.896 135.022L574.389 135.059C573.441 132.767 574.592 127.072 574.83 124.408L577.014 98.9725C577.365 94.67 578.159 90.2763 577.67 85.9686L580.082 85.6779L594.464 83.5723Z"/>
	<path fill="#253676" transform="scale(0.488281 0.488281)" d="M581.559 87.0282L582.804 87.5519L579.94 134.474L577.914 134.697L581.559 87.0282Z"/>
	<path fill="#0A0E46" transform="scale(0.488281 0.488281)" d="M577.67 85.9686L580.082 85.6779C580.599 86.1107 581.136 86.5002 581.559 87.0282L577.914 134.697L576.896 135.022L574.389 135.059C573.441 132.767 574.592 127.072 574.83 124.408L577.014 98.9725C577.365 94.67 578.159 90.2763 577.67 85.9686Z"/>
	<path fill="#0A0E46" transform="scale(0.488281 0.488281)" d="M594.464 83.5723L597.59 83.2447C597.869 83.5798 598.274 83.8416 598.428 84.25C598.763 85.139 598.22 88.3898 598.136 89.5122L596.772 108.3L595.771 132.325L592.346 132.752L591.66 132.326C590.91 126.494 592.057 119.322 592.474 113.391L594.464 83.5723Z"/>
	<path fill="#CF1F68" transform="scale(0.488281 0.488281)" d="M186.177 643.819L291.355 565.088C299.982 569.52 308.124 574.909 316.09 580.43C318.812 582.316 322.079 584.168 324.439 586.468L276.03 621.897L236.807 650.745L229.389 656.374C227.673 657.776 226.146 659.477 223.989 660.16L186.177 643.819Z"/>
	<path fill="#0A0E46" transform="scale(0.488281 0.488281)" d="M147.193 675.116L188.754 687.796L188.137 688.556C187.126 689.769 185.844 690.527 184.713 691.607C181.394 694.777 177.999 697.99 175.094 701.545C158.547 721.798 150.867 748.989 153.157 775.003C154.74 792.99 160.593 811.426 169.927 826.921C172.677 831.487 175.674 836.049 178.958 840.25L184.913 847.309C186.21 848.733 188.003 850.162 188.346 852.109L188.489 852.822C167.703 846.03 148.272 832.945 134.081 816.343C116.28 795.517 107.092 770.071 109.358 742.649C111.584 715.706 126.932 692.165 147.193 675.116Z"/>
	<path fill="#202159" transform="scale(0.488281 0.488281)" d="M707.624 67.2335C711.089 66.6603 717.355 64.6858 720.386 66.7542C722.013 67.8639 723.254 69.5308 723.494 71.5C723.908 74.8916 723.599 78.5579 723.497 81.9776L722.783 99.9795L720.25 162.368L719.722 173.957C719.631 176.008 719.264 178.272 719.931 180.248L718.25 180.983L717.588 185.045L717.442 181.5L716.75 180.976C713.512 181.23 709.538 181.39 706.508 182.575L705.464 182.271L702.041 182.853L692.385 183.883L687.451 184.443L675.61 185.608L673.116 186.101L670.493 186.262L671.451 161.966L672.495 148.012L673.083 147.674C672.849 144.626 673.407 141.304 673.597 138.243C673.956 132.487 674.183 126.69 674.913 120.968L670.552 121.635L659.57 123.138L654.881 123.815L643.532 125.391L645.095 76.2461L656.961 74.4842L661.412 73.8287L672.606 72.2736L677.128 71.7095L707.624 67.2335Z"/>
	<path fill="#E96497" transform="scale(0.488281 0.488281)" d="M705.025 156.924L705.935 157.764L705.46 174.166C705.432 176.76 705.119 179.71 705.464 182.271L702.041 182.853L692.385 183.883L687.451 184.443L675.61 185.608L673.116 186.101L670.493 186.262L671.451 161.966C674.869 160.859 679.054 160.646 682.611 160.134L705.025 156.924Z"/>
	<path fill="#F9C438" transform="scale(0.488281 0.488281)" d="M707.026 116.342C707.623 125.059 705.724 134.025 706.643 142.695C703.44 144.096 699.285 144.094 695.828 144.591L673.083 147.674C672.849 144.626 673.407 141.304 673.597 138.243C673.956 132.487 674.183 126.69 674.913 120.968L675.704 120.666L686.962 119.302L691.453 118.645L703.49 116.812L707.026 116.342Z"/>
	<path fill="#253676" transform="scale(0.488281 0.488281)" d="M677.128 71.7095L707.624 67.2335C708.507 67.9814 708.753 67.8363 708.836 69.0627C709.127 73.3627 708.361 78.2338 708.11 82.5742L706.949 111.023C706.942 112.054 706.628 115.649 707.026 116.342L703.49 116.812L691.453 118.645L686.962 119.302L675.704 120.666C677.495 110.962 677.317 100.304 677.543 90.443C676.941 89.1393 676.876 87.9057 676.755 86.5C677.904 84.7704 677.246 80.1889 677.255 78C677.915 77.1704 677.942 76.8415 678 75.75C678.071 74.4123 677.996 72.7726 677.128 71.7095Z"/>
	<path fill="#0A0E46" transform="scale(0.488281 0.488281)" d="M677.128 71.7095L707.624 67.2335C708.507 67.9814 708.753 67.8363 708.836 69.0627C709.127 73.3627 708.361 78.2338 708.11 82.5742L706.949 111.023C706.942 112.054 706.628 115.649 707.026 116.342L703.49 116.812L706.107 69.8897L693.51 71.5572L691.453 118.645L686.962 119.302C686.76 107.561 688.13 95.3676 688.916 83.6255C689.091 81.0044 690.334 74.3706 689.401 72.3042L678.549 73.8505L677.622 89.8158L677.543 90.443C676.941 89.1393 676.876 87.9057 676.755 86.5C677.904 84.7704 677.246 80.1889 677.255 78C677.915 77.1704 677.942 76.8415 678 75.75C678.071 74.4123 677.996 72.7726 677.128 71.7095Z"/>
	<path fill="#253676" transform="scale(0.488281 0.488281)" d="M677.543 90.443L677.622 89.8158L678.549 73.8505L689.401 72.3042C690.334 74.3706 689.091 81.0044 688.916 83.6255C688.13 95.3676 686.76 107.561 686.962 119.302L675.704 120.666C677.495 110.962 677.317 100.304 677.543 90.443Z"/>
	<path fill="#202159" transform="scale(0.488281 0.488281)" d="M672.606 72.2736L677.128 71.7095C677.996 72.7726 678.071 74.4123 678 75.75C677.942 76.8415 677.915 77.1704 677.255 78C677.246 80.1889 677.904 84.7704 676.755 86.5C676.876 87.9057 676.941 89.1393 677.543 90.443C677.317 100.304 677.495 110.962 675.704 120.666L674.913 120.968L670.552 121.635L659.57 123.138L654.881 123.815L643.532 125.391L645.095 76.2461L656.961 74.4842L661.412 73.8287L672.606 72.2736Z"/>
	<path fill="#0A0E46" transform="scale(0.488281 0.488281)" d="M672.606 72.2736L677.128 71.7095C677.996 72.7726 678.071 74.4123 678 75.75C677.942 76.8415 677.915 77.1704 677.255 78C677.246 80.1889 677.904 84.7704 676.755 86.5C676.876 87.9057 676.941 89.1393 677.543 90.443C677.317 100.304 677.495 110.962 675.704 120.666L674.913 120.968L670.552 121.635L672.606 72.2736Z"/>
	<path fill="#202159" transform="scale(0.488281 0.488281)" d="M656.961 74.4842L661.412 73.8287L659.57 123.138L654.881 123.815L643.532 125.391L645.095 76.2461L656.961 74.4842Z"/>
	<path fill="#0A0E46" transform="scale(0.488281 0.488281)" d="M656.961 74.4842L661.412 73.8287L659.57 123.138L654.881 123.815L656.961 74.4842Z"/>
	<path fill="#0A0E46" transform="scale(0.488281 0.488281)" d="M317.515 754.943L317.909 755C319.138 757.314 321.284 762.803 323.563 764.088L323.503 764.912C329.842 766.404 335.861 769.355 341.892 771.775L365.567 781.141C359.265 787.438 353.062 794.114 348.051 801.5C336.312 818.801 330.464 840.031 330.542 860.873C330.649 889.161 342.367 919.475 362.673 939.415L373.032 948.747L372.581 949.84C357.084 946.239 340.285 936.119 328.437 925.774C307.248 907.273 292.13 879.319 290.307 851.052C270.36 857.863 250.528 860.521 229.544 860.504L228.357 859.75C229.858 857.434 235.841 855.642 238.539 854.145C241.057 852.748 243.212 851.221 245.5 849.476C258.588 839.489 267.601 824.774 275.491 810.573C278.381 805.372 280.915 799.859 284.149 794.868L284.685 794.049L284.715 793.149C288.197 789.605 291.033 785.111 294.125 781.184C301.365 771.993 308.88 762.871 317.515 754.943Z"/>
	<path fill="#5E813E" transform="scale(0.488281 0.488281)" d="M317.515 754.943L317.909 755C319.138 757.314 321.284 762.803 323.563 764.088L323.503 764.912C309.458 777.6 299.089 794.478 293.87 812.649C291.721 820.132 290.755 827.606 289.495 835.25C289.344 836.166 289.558 836.348 288.656 836.5C288.135 822.233 287.873 808.066 284.685 794.049L284.715 793.149C288.197 789.605 291.033 785.111 294.125 781.184C301.365 771.993 308.88 762.871 317.515 754.943Z"/>
	<path fill="#253676" transform="scale(0.488281 0.488281)" d="M569.891 87.3404C570.907 86.5719 576.167 86.2055 577.67 85.9686C578.159 90.2763 577.365 94.67 577.014 98.9725L574.83 124.408C574.592 127.072 573.441 132.767 574.389 135.059L576.896 135.022C575.936 141.035 575.621 147.049 575.078 153.105C574.817 156.019 574.763 159.182 574.039 162.02C573.417 165.772 571.561 172.477 572.942 176.088L572.419 176.327L567.993 223.115L567.972 223.377L479.112 235.263C477.73 233.505 478.421 226.795 478.443 224.325C478.544 212.806 479.168 201.034 478.564 189.545C478.362 184.875 479.139 179.875 478.229 175.287L478.477 175.165L479.017 148.509L479.563 148.036L480.614 115.595C480.818 110.914 480.566 105.79 481.467 101.203C481.594 100.556 481.405 100.37 481.166 99.7693C482.015 98.9175 491.113 98.1902 492.657 97.9743L497.605 97.2801L510.216 95.5279L513.132 95.2216L527.654 93.1816L531.156 92.7716C531.906 92.2691 533.764 92.2934 534.683 92.1778L544.246 90.8843L548.638 90.2519L560.785 88.5297L569.891 87.3404Z"/>
	<path fill="#0A0E46" transform="scale(0.488281 0.488281)" d="M510.216 95.5279L513.132 95.2216L514.499 95.75L511.439 144.16L507.45 144.727L510.216 95.5279Z"/>
	<path fill="#0A0E46" transform="scale(0.488281 0.488281)" d="M527.654 93.1816L531.156 92.7716L531.9 93.5L528.452 141.884L523.986 142.598L527.654 93.1816Z"/>
	<path fill="#253676" transform="scale(0.488281 0.488281)" d="M544.246 90.8843L548.638 90.2519L545.264 139.673L540.864 140.262L528.452 141.884L531.9 93.5L531.156 92.7716C531.906 92.2691 533.764 92.2934 534.683 92.1778L544.246 90.8843Z"/>
	<path fill="#0A0E46" transform="scale(0.488281 0.488281)" d="M544.246 90.8843L548.638 90.2519L545.264 139.673L540.864 140.262C539.566 138.134 543.641 96.9606 544.246 90.8843Z"/>
	<path fill="#253676" transform="scale(0.488281 0.488281)" d="M497.605 97.2801L510.216 95.5279L507.45 144.727L494.484 146.39L490.821 146.708C487.149 147.31 483.284 148.016 479.563 148.036L480.614 115.595C480.818 110.914 480.566 105.79 481.467 101.203C481.594 100.556 481.405 100.37 481.166 99.7693C482.015 98.9175 491.113 98.1902 492.657 97.9743L497.605 97.2801Z"/>
	<path fill="#0A0E46" transform="scale(0.488281 0.488281)" d="M492.657 97.9743L497.605 97.2801L494.484 146.39L490.821 146.708C490.533 146.442 490.156 146.139 490.034 145.75C489.644 144.51 490.311 140.631 490.397 139.153L492.044 113.924C492.41 108.746 493.354 103.12 492.657 97.9743Z"/>
	<path fill="#253676" transform="scale(0.488281 0.488281)" d="M481.166 99.7693C482.015 98.9175 491.113 98.1902 492.657 97.9743C493.354 103.12 492.41 108.746 492.044 113.924L490.397 139.153C490.311 140.631 489.644 144.51 490.034 145.75C490.156 146.139 490.533 146.442 490.821 146.708C487.149 147.31 483.284 148.016 479.563 148.036L480.614 115.595C480.818 110.914 480.566 105.79 481.467 101.203C481.594 100.556 481.405 100.37 481.166 99.7693Z"/>
	<path fill="#253676" transform="scale(0.488281 0.488281)" d="M569.891 87.3404C570.907 86.5719 576.167 86.2055 577.67 85.9686C578.159 90.2763 577.365 94.67 577.014 98.9725L574.83 124.408C574.592 127.072 573.441 132.767 574.389 135.059C571.225 136.676 565.604 136.761 561.976 137.278L556.955 138.156L545.264 139.673L548.638 90.2519L560.785 88.5297L569.891 87.3404Z"/>
	<path fill="#0A0E46" transform="scale(0.488281 0.488281)" d="M560.785 88.5297L569.891 87.3404L570.179 88.0772L569.75 88.7584L565.144 89.3713L561.976 137.278L556.955 138.156L559.847 103.788C560.231 98.7694 561.286 93.5328 560.785 88.5297Z"/>
	<path fill="#253676" transform="scale(0.488281 0.488281)" d="M548.638 90.2519L560.785 88.5297C561.286 93.5328 560.231 98.7694 559.847 103.788L556.955 138.156L545.264 139.673L548.638 90.2519Z"/>
	<path fill="#F9C438" transform="scale(0.488281 0.488281)" d="M574.389 135.059L576.896 135.022C575.936 141.035 575.621 147.049 575.078 153.105C574.817 156.019 574.763 159.182 574.039 162.02C573.417 165.772 571.561 172.477 572.942 176.088L572.419 176.327L478.564 189.545C478.362 184.875 479.139 179.875 478.229 175.287L478.477 175.165L479.017 148.509L479.563 148.036C483.284 148.016 487.149 147.31 490.821 146.708L494.484 146.39L507.45 144.727L511.439 144.16L523.986 142.598L528.452 141.884L540.864 140.262L545.264 139.673L556.955 138.156L561.976 137.278C565.604 136.761 571.225 136.676 574.389 135.059Z"/>
	<path fill="#253676" transform="scale(0.488281 0.488281)" d="M574.039 162.02C573.417 165.772 571.561 172.477 572.942 176.088L572.419 176.327L478.564 189.545C478.362 184.875 479.139 179.875 478.229 175.287L478.477 175.165L574.039 162.02Z"/>
	<path fill="#E96497" transform="scale(0.488281 0.488281)" d="M478.564 189.545L572.419 176.327L567.993 223.115L567.972 223.377L479.112 235.263C477.73 233.505 478.421 226.795 478.443 224.325C478.544 212.806 479.168 201.034 478.564 189.545Z"/>
	<path fill="#CF1F68" transform="scale(0.488281 0.488281)" d="M670.552 121.635L674.913 120.968C674.183 126.69 673.956 132.487 673.597 138.243C673.407 141.304 672.849 144.626 673.083 147.674L672.495 148.012L671.451 161.966L670.493 186.262L661.502 187.489L657.361 188.018L649.611 188.912C648.464 197.189 648.381 205.709 647.924 214.057C647.486 222.063 646.602 230.583 646.969 238.555L646.506 239.019L645.535 266.98L644.984 281.474C644.898 287.517 641.917 324.813 643.341 327.28L642.884 327.362L597.019 333.147L597.08 322.84L556.042 328.536L561.567 277.524L561.963 277.465C562.199 259.389 567.198 241.427 567.972 223.377L567.993 223.115L572.419 176.327L572.942 176.088C571.561 172.477 573.417 165.772 574.039 162.02C574.763 159.182 574.817 156.019 575.078 153.105C575.621 147.049 575.936 141.035 576.896 135.022L577.914 134.697L579.94 134.474L592.346 132.752L595.771 132.325L607.442 130.737L611.547 130.143L623.877 128.313L627.416 127.787L638.98 126.146L643.532 125.391L654.881 123.815L659.57 123.138L670.552 121.635Z"/>
	<path fill="#0A0E46" transform="scale(0.488281 0.488281)" d="M645.535 266.98L644.984 281.474L597.483 287.49C597.506 282.752 597.217 277.78 597.862 273.085C603.997 272.922 610.176 271.653 616.25 270.8L645.535 266.98Z"/>
	<path fill="#E35924" transform="scale(0.488281 0.488281)" d="M642.029 239.524L646.506 239.019L645.535 266.98L616.25 270.8C610.176 271.653 603.997 272.922 597.862 273.085L597.461 272.823L597.613 245.75C598.638 244.475 601.08 244.561 602.722 244.33L613.044 243.119L617.917 242.519L627.396 241.268L631.229 240.793L642.029 239.524Z"/>
	<path fill="#0A0E46" transform="scale(0.488281 0.488281)" d="M567.993 223.115L598.123 219.365C598.106 215.548 597.203 197.124 598.624 195.179L603.07 194.776C603.849 199.375 603.058 205.133 603.031 209.862L602.722 244.33C601.08 244.561 598.638 244.475 597.613 245.75L597.461 272.823L561.963 277.465C562.199 259.389 567.198 241.427 567.972 223.377L567.993 223.115Z"/>
	<path fill="#202159" transform="scale(0.488281 0.488281)" d="M643.411 189.611L649.611 188.912C648.464 197.189 648.381 205.709 647.924 214.057C647.486 222.063 646.602 230.583 646.969 238.555L646.506 239.019L642.029 239.524L631.229 240.793L627.396 241.268L617.917 242.519L613.044 243.119L602.722 244.33L603.031 209.862C603.058 205.133 603.849 199.375 603.07 194.776C603.613 194.177 613.115 193.443 614.473 193.286L619.489 192.727L627.759 191.543L631.099 191.202L643.411 189.611Z"/>
	<path fill="#0A0E46" transform="scale(0.488281 0.488281)" d="M627.759 191.543L631.099 191.202L632.844 191.568L631.229 240.793L627.396 241.268L626.705 240.822C626.107 235.562 626.845 229.816 627.004 224.513L627.759 191.543Z"/>
	<path fill="#0A0E46" transform="scale(0.488281 0.488281)" d="M643.411 189.611L649.611 188.912C648.464 197.189 648.381 205.709 647.924 214.057C647.486 222.063 646.602 230.583 646.969 238.555L646.506 239.019L642.029 239.524L643.411 189.611Z"/>
	<path fill="#202159" transform="scale(0.488281 0.488281)" d="M619.489 192.727L627.759 191.543L627.004 224.513C626.845 229.816 626.107 235.562 626.705 240.822L627.396 241.268L617.917 242.519L619.489 192.727Z"/>
	<path fill="#202159" transform="scale(0.488281 0.488281)" d="M614.473 193.286L619.489 192.727L617.917 242.519L613.044 243.119L602.722 244.33L603.031 209.862C603.058 205.133 603.849 199.375 603.07 194.776C603.613 194.177 613.115 193.443 614.473 193.286Z"/>
	<path fill="#0A0E46" transform="scale(0.488281 0.488281)" d="M614.473 193.286L619.489 192.727L617.917 242.519L613.044 243.119L614.473 193.286Z"/>
	<path fill="#CF1F68" transform="scale(0.488281 0.488281)" d="M670.552 121.635L674.913 120.968C674.183 126.69 673.956 132.487 673.597 138.243C673.407 141.304 672.849 144.626 673.083 147.674L672.495 148.012L671.451 161.966L670.493 186.262L661.502 187.489L657.361 188.018L649.611 188.912L643.411 189.611L631.099 191.202L627.759 191.543L619.489 192.727L614.473 193.286C613.115 193.443 603.613 194.177 603.07 194.776L598.624 195.179C597.203 197.124 598.106 215.548 598.123 219.365L567.993 223.115L572.419 176.327L572.942 176.088C571.561 172.477 573.417 165.772 574.039 162.02C574.763 159.182 574.817 156.019 575.078 153.105C575.621 147.049 575.936 141.035 576.896 135.022L577.914 134.697L579.94 134.474L592.346 132.752L595.771 132.325L607.442 130.737L611.547 130.143L623.877 128.313L627.416 127.787L638.98 126.146L643.532 125.391L654.881 123.815L659.57 123.138L670.552 121.635Z"/>
	<path fill="#0A0E46" transform="scale(0.488281 0.488281)" d="M574.039 162.02L672.495 148.012L671.451 161.966L572.942 176.088C571.561 172.477 573.417 165.772 574.039 162.02Z"/>
	<path fill="#E35924" transform="scale(0.488281 0.488281)" d="M670.552 121.635L674.913 120.968C674.183 126.69 673.956 132.487 673.597 138.243C673.407 141.304 672.849 144.626 673.083 147.674L672.495 148.012L574.039 162.02C574.763 159.182 574.817 156.019 575.078 153.105C575.621 147.049 575.936 141.035 576.896 135.022L577.914 134.697L579.94 134.474L592.346 132.752L595.771 132.325L607.442 130.737L611.547 130.143L623.877 128.313L627.416 127.787L638.98 126.146L643.532 125.391L654.881 123.815L659.57 123.138L670.552 121.635Z"/>
	<path fill="#E96497" transform="scale(0.488281 0.488281)" d="M324.962 586.44C342.097 598.82 357.523 612.824 372.292 627.91C385.127 641.019 397.535 654.913 408.117 669.924L408.096 670.161L421.489 690.9L376.566 725.467C374.142 727.829 371.243 729.818 368.456 731.725C378.739 737.204 390.674 742.764 399.7 750.1C396.47 753.613 392.47 756.63 388.858 759.762L373.13 773.931C370.797 776.088 367.727 778.408 365.877 780.955L365.567 781.141L341.892 771.775C335.861 769.355 329.842 766.404 323.503 764.912L323.563 764.088C321.284 762.803 319.138 757.314 317.909 755L317.515 754.943C316.333 751.806 313.914 748.599 312.151 745.724C303.683 731.914 294.496 718.53 283.511 706.579C268.647 690.41 252.646 676.417 233.714 665.197C231.014 663.597 227.221 660.59 224.063 660.457L223.989 660.16C226.146 659.477 227.673 657.776 229.389 656.374L236.807 650.745L276.03 621.897L324.439 586.468L324.962 586.44Z"/>
	<path fill="#CF1F68" transform="scale(0.488281 0.488281)" d="M364.709 709.947L364.804 709.905L376.378 725.203L376.566 725.467C374.142 727.829 371.243 729.818 368.456 731.725C362.506 734.916 356.97 738.895 351.41 742.713C341.589 749.457 332.438 756.141 323.563 764.088C321.284 762.803 319.138 757.314 317.909 755L364.709 709.947Z"/>
	<path fill="#11968D" transform="scale(0.488281 0.488281)" d="M368.456 731.725C378.739 737.204 390.674 742.764 399.7 750.1C396.47 753.613 392.47 756.63 388.858 759.762L373.13 773.931C370.797 776.088 367.727 778.408 365.877 780.955L365.567 781.141L341.892 771.775C335.861 769.355 329.842 766.404 323.503 764.912L323.563 764.088C332.438 756.141 341.589 749.457 351.41 742.713C356.97 738.895 362.506 734.916 368.456 731.725Z"/>
	<path fill="#F9C438" transform="scale(0.488281 0.488281)" d="M324.962 586.44C342.097 598.82 357.523 612.824 372.292 627.91C385.127 641.019 397.535 654.913 408.117 669.924L408.096 670.161L421.489 690.9L376.566 725.467L376.378 725.203L364.804 709.905L364.709 709.947C361.537 704.767 356.783 699.742 352.965 694.948C330.777 667.089 305.402 642.198 276.03 621.897L324.439 586.468L324.962 586.44Z"/>
	<path fill="#BF2D2D" transform="scale(0.488281 0.488281)" d="M408.096 670.161L421.489 690.9L376.566 725.467L376.378 725.203L364.804 709.905C368.384 705.767 373.559 702.004 377.63 698.276L408.096 670.161Z"/>
	<path fill="#253676" transform="scale(0.488281 0.488281)" d="M479.112 235.263L567.972 223.377C567.198 241.427 562.199 259.389 561.963 277.465L561.567 277.524L556.042 328.536L551.334 370.711C550.834 375.499 549.908 380.672 549.969 385.472L506.172 391.776C496.819 393.191 486.4 395.748 476.967 395.567C470.069 395.624 463.128 394.17 456.415 392.66C448.87 390.963 441.511 389.089 434.292 386.292L435.986 340.481L438.065 293.496L440.412 241.135C444.7 240.063 449.393 239.758 453.779 239.058C461.88 237.765 470.28 236.086 478.451 235.532L479.112 235.263Z"/>
	<path fill="#0A0E46" transform="scale(0.488281 0.488281)" d="M440.412 241.135C444.7 240.063 449.393 239.758 453.779 239.058C461.88 237.765 470.28 236.086 478.451 235.532L478.413 274.608C478.385 278.689 479.064 284.68 477.999 288.484L438.065 293.496L440.412 241.135Z"/>
	<path fill="#E96497" transform="scale(0.488281 0.488281)" d="M477.999 288.484L561.567 277.524L556.042 328.536L478.033 339.113L477.612 339.181L435.986 340.481L438.065 293.496L477.999 288.484Z"/>
	<path fill="#CF1F68" transform="scale(0.488281 0.488281)" d="M477.999 288.484L478.033 339.113L477.612 339.181L435.986 340.481L438.065 293.496L477.999 288.484Z"/>
	<path fill="#9EC991" transform="scale(0.488281 0.488281)" d="M556.042 328.536L551.334 370.711C550.834 375.499 549.908 380.672 549.969 385.472L506.172 391.776C496.819 393.191 486.4 395.748 476.967 395.567C470.069 395.624 463.128 394.17 456.415 392.66C448.87 390.963 441.511 389.089 434.292 386.292L435.986 340.481L477.612 339.181L478.033 339.113L556.042 328.536Z"/>
	<path fill="#11968D" transform="scale(0.488281 0.488281)" d="M477.612 339.181C478.216 341.628 477.885 344.347 477.829 346.864L477.549 359.963L476.967 395.567C470.069 395.624 463.128 394.17 456.415 392.66C448.87 390.963 441.511 389.089 434.292 386.292L435.986 340.481L477.612 339.181Z"/>
	<path fill="#253676" transform="scale(0.488281 0.488281)" d="M476.967 395.567C486.4 395.748 496.819 393.191 506.172 391.776L549.969 385.472L546.356 424.448L542.698 470.345C539.462 496.083 532.005 522.066 520.069 545.142C514.072 556.734 506.722 567.552 498.946 578.012L498.567 578.012C480.068 558.596 458.483 540.624 437.063 524.525C430.655 519.709 424.26 514.616 417.433 510.405L417.383 510.17L386.405 489.846C406.775 470.275 421.746 446.632 429.064 419.175C431.954 408.33 433.38 397.45 434.292 386.292C441.511 389.089 448.87 390.963 456.415 392.66C463.128 394.17 470.069 395.624 476.967 395.567Z"/>
	<path fill="#0A0E46" transform="scale(0.488281 0.488281)" d="M434.292 386.292C441.511 389.089 448.87 390.963 456.415 392.66C463.128 394.17 470.069 395.624 476.967 395.567C475.472 406.394 473.771 417.386 470.66 427.886C462.893 454.099 448.244 478.203 429.558 498.038C425.688 502.145 421.685 506.521 417.383 510.17L386.405 489.846C406.775 470.275 421.746 446.632 429.064 419.175C431.954 408.33 433.38 397.45 434.292 386.292Z"/>
	<path fill="#9EC991" transform="scale(0.488281 0.488281)" d="M341.904 526.858C348.698 522.385 355.121 516.516 361.405 511.316C369.868 504.313 378.561 497.55 386.405 489.846L417.383 510.17L417.433 510.405C424.26 514.616 430.655 519.709 437.063 524.525C458.483 540.624 480.068 558.596 498.567 578.012L498.946 578.012C507.272 587.502 517.399 595.05 524.291 605.898L510.663 618.64L482.308 641.738C477.541 645.658 472.15 651.419 466.753 654.269L460.943 659.277L421.489 690.9L408.096 670.161L408.117 669.924C397.535 654.913 385.127 641.019 372.292 627.91C357.523 612.824 342.097 598.82 324.962 586.44C327.135 583.895 331.219 581.47 333.942 579.357L362.766 556.488C365.526 554.091 368.673 551.973 370.96 549.103C366.462 544.733 361.117 540.791 356.11 537.02C351.482 533.534 346.834 529.901 341.904 526.858Z"/>
	<path fill="#11968D" transform="scale(0.488281 0.488281)" d="M341.904 526.858C348.698 522.385 355.121 516.516 361.405 511.316C369.868 504.313 378.561 497.55 386.405 489.846L417.383 510.17L417.433 510.405C414.451 512.24 411.798 514.905 409.158 517.207L394.91 529.638C387.258 536.201 378.856 542.314 371.492 549.132L370.96 549.103C366.462 544.733 361.117 540.791 356.11 537.02C351.482 533.534 346.834 529.901 341.904 526.858Z"/>
	<path fill="#5E813E" transform="scale(0.488281 0.488281)" d="M498.567 578.012L498.946 578.012C507.272 587.502 517.399 595.05 524.291 605.898L510.663 618.64L482.308 641.738C477.541 645.658 472.15 651.419 466.753 654.269L460.943 659.277C458.93 655.107 457.131 650.777 454.84 646.75C452.325 642.331 449.245 638.14 446.363 633.949L446.421 633.745C449.286 632.366 452.639 628.288 455.018 626.01L485.593 594.122C489.695 589.602 496.152 583.614 498.567 578.012Z"/>
	<path fill="#253676" transform="scale(0.488281 0.488281)" d="M370.96 549.103L371.492 549.132C375.417 553.742 380.258 557.789 384.63 561.995L404.855 582.468C411.841 589.954 418.777 597.494 425.152 605.513L446.421 633.745L446.363 633.949C449.245 638.14 452.325 642.331 454.84 646.75C457.131 650.777 458.93 655.107 460.943 659.277L421.489 690.9L408.096 670.161L408.117 669.924C397.535 654.913 385.127 641.019 372.292 627.91C357.523 612.824 342.097 598.82 324.962 586.44C327.135 583.895 331.219 581.47 333.942 579.357L362.766 556.488C365.526 554.091 368.673 551.973 370.96 549.103Z"/>
	<path fill="#0A0E46" transform="scale(0.488281 0.488281)" d="M446.363 633.949C449.245 638.14 452.325 642.331 454.84 646.75C457.131 650.777 458.93 655.107 460.943 659.277L421.489 690.9L408.096 670.161L408.117 669.924L446.363 633.949Z"/>
	<path fill="#253676" transform="scale(0.488281 0.488281)" d="M224.063 660.457C227.221 660.59 231.014 663.597 233.714 665.197C252.646 676.417 268.647 690.41 283.511 706.579C294.496 718.53 303.683 731.914 312.151 745.724C313.914 748.599 316.333 751.806 317.515 754.943C308.88 762.871 301.365 771.993 294.125 781.184C291.033 785.111 288.197 789.605 284.715 793.149L284.685 794.049L284.149 794.868C280.915 799.859 278.381 805.372 275.491 810.573C267.601 824.774 258.588 839.489 245.5 849.476C243.212 851.221 241.057 852.748 238.539 854.145C235.841 855.642 229.858 857.434 228.357 859.75L229.544 860.504C215.567 860.181 201.668 857.42 188.489 852.822L188.346 852.109C188.003 850.162 186.21 848.733 184.913 847.309L178.958 840.25C175.674 836.049 172.677 831.487 169.927 826.921C160.593 811.426 154.74 792.99 153.157 775.003C150.867 748.989 158.547 721.798 175.094 701.545C177.999 697.99 181.394 694.777 184.713 691.607C185.844 690.527 187.126 689.769 188.137 688.556L188.754 687.796L189.22 687.86L212.411 669.737C216.094 666.867 220.98 663.903 224.063 660.457Z"/>
	<path fill="#9EC991" transform="scale(0.488281 0.488281)" d="M224.063 660.457C227.221 660.59 231.014 663.597 233.714 665.197C252.646 676.417 268.647 690.41 283.511 706.579C294.496 718.53 303.683 731.914 312.151 745.724C313.914 748.599 316.333 751.806 317.515 754.943C308.88 762.871 301.365 771.993 294.125 781.184C291.033 785.111 288.197 789.605 284.715 793.149L280.284 777.947C268.846 745.94 245.984 718.801 216.776 701.485C207.861 696.2 198.54 692.299 189.22 687.86L212.411 669.737C216.094 666.867 220.98 663.903 224.063 660.457Z"/>
	<path fill="#0A0E46" transform="scale(0.488281 0.488281)" d="M556.042 328.536L597.08 322.84L597.019 333.147L642.884 327.362L639.868 383.509L639.566 383.635L637.993 417.049C637.696 422.933 637.09 429.204 637.523 435.073L636.954 435.546L635.245 471.75C634.889 477.18 633.339 484.444 634.078 489.693L633.494 490.031C633.288 497.34 631.528 505.099 629.929 512.242C622.754 544.281 608.093 576.144 583.588 598.746C583.078 599.217 582.721 599.383 582.044 599.509L582.131 599.996L539.965 637.302L539.591 637.209L510.663 618.64L524.291 605.898C517.399 595.05 507.272 587.502 498.946 578.012C506.722 567.552 514.072 556.734 520.069 545.142C532.005 522.066 539.462 496.083 542.698 470.345L546.356 424.448L549.969 385.472C549.908 380.672 550.834 375.499 551.334 370.711L556.042 328.536Z"/>
	<path fill="#11968D" transform="scale(0.488281 0.488281)" d="M551.681 579.224L582.044 599.509L582.131 599.996L539.965 637.302L539.591 637.209L510.663 618.64L524.291 605.898L551.681 579.224Z"/>
	<path fill="#11968D" transform="scale(0.488281 0.488281)" d="M596.215 440.636L636.954 435.546L635.245 471.75C634.889 477.18 633.339 484.444 634.078 489.693L633.494 490.031C630.026 489.905 626.381 490.413 622.878 490.466C613.2 490.613 602.926 490.46 593.364 488.874L596.215 440.636Z"/>
	<path fill="#CF1F68" transform="scale(0.488281 0.488281)" d="M639.566 383.635L637.993 417.049C637.696 422.933 637.09 429.204 637.523 435.073L636.954 435.546L596.215 440.636L596.617 389.102L639.566 383.635Z"/>
	<path fill="#5E813E" transform="scale(0.488281 0.488281)" d="M556.042 328.536L597.08 322.84L597.019 333.147L596.909 366.876C596.901 369.96 597.708 376.588 596.511 379.281L549.969 385.472C549.908 380.672 550.834 375.499 551.334 370.711L556.042 328.536Z"/>
	<defs>
		<linearGradient id="gradient_0" gradientUnits="userSpaceOnUse" x1="913.96277" y1="647.73138" x2="437.66672" y2="499.91284">
			<stop offset="0" stop-color="#1F174E"/>
			<stop offset="1" stop-color="#253A7A"/>
		</linearGradient>
	</defs>
	<path fill="url(#gradient_0)" transform="scale(0.488281 0.488281)" d="M855.668 163.511C858.768 162.628 862.43 162.352 865.637 162.573C867.533 164.207 869.386 165.412 869.582 168.094C870.094 175.13 868.825 182.698 868.502 189.767L865.175 247.124L862.213 318.5C860.869 355.872 859.645 393.455 863.602 430.703C865.989 453.17 871.014 475.362 878.286 496.75L902.051 562C909.306 583.112 915.623 603.903 915.713 626.445C915.835 656.638 904.881 686.684 884.474 709.118C871.151 723.766 854.307 735.535 835.868 742.786C824.26 747.351 811.75 750.265 799.5 752.505L772.454 756.683C748.822 761.447 724.999 768.135 702.609 777.089C681.298 785.612 661.313 796.56 642.8 810.142C629.861 819.635 617.955 830.666 605.917 841.256L562.927 879.213C551.147 889.915 539.579 900.762 527.009 910.55C504.295 928.238 479.677 941.592 451.717 948.876C439.537 952.05 426.997 954.317 414.409 954.86C402.533 955.372 390.83 954.16 379.237 951.598C377.408 951.194 374.168 950.808 372.581 949.84L373.032 948.747L362.673 939.415C342.367 919.475 330.649 889.161 330.542 860.873C330.464 840.031 336.312 818.801 348.051 801.5C353.062 794.114 359.265 787.438 365.567 781.141L365.877 780.955C367.727 778.408 370.797 776.088 373.13 773.931L388.858 759.762C392.47 756.63 396.47 753.613 399.7 750.1C390.674 742.764 378.739 737.204 368.456 731.725C371.243 729.818 374.142 727.829 376.566 725.467L421.489 690.9L460.943 659.277L466.753 654.269C472.15 651.419 477.541 645.658 482.308 641.738L510.663 618.64L539.591 637.209L539.965 637.302L582.131 599.996L582.044 599.509C582.721 599.383 583.078 599.217 583.588 598.746C608.093 576.144 622.754 544.281 629.929 512.242C631.528 505.099 633.288 497.34 633.494 490.031L634.078 489.693C633.339 484.444 634.889 477.18 635.245 471.75L636.954 435.546L637.523 435.073C637.09 429.204 637.696 422.933 637.993 417.049L639.566 383.635L639.868 383.509L642.884 327.362L643.341 327.28C641.917 324.813 644.898 287.517 644.984 281.474L645.535 266.98L646.506 239.019L646.969 238.555C646.602 230.583 647.486 222.063 647.924 214.057C648.381 205.709 648.464 197.189 649.611 188.912L657.361 188.018L661.502 187.489L670.493 186.262L673.116 186.101L675.61 185.608L687.451 184.443L692.385 183.883L702.041 182.853L705.464 182.271L706.508 182.575C709.538 181.39 713.512 181.23 716.75 180.976L717.442 181.5L717.588 185.045L718.25 180.983L719.931 180.248L722.528 179.772L734.257 178.267L738.353 177.757L747.003 176.502L751.309 175.878L763.005 174.393L768.507 173.865C769.271 173.213 773.431 173.154 774.629 173.11L780.135 172.281L794.505 170.59L818.154 167.834C819.032 167.239 822.988 167.181 824.244 167.027L844.888 164.773C846.9 163.748 851.297 163.961 853.817 163.175L855.668 163.511Z"/>
	<path fill="#0A0E46" transform="scale(0.488281 0.488281)" d="M853.817 163.175L855.668 163.511C856.135 164.371 856.443 164.993 856.441 165.997C856.422 174.697 854.925 183.711 854.253 192.39C853.799 198.261 854.273 205.299 852.866 210.96L852.019 211.862L853.817 163.175Z"/>
	<path fill="#253676" transform="scale(0.488281 0.488281)" d="M844.888 164.773C846.9 163.748 851.297 163.961 853.817 163.175L852.019 211.862L851.953 212.511C848.7 212.587 845.519 213.175 842.313 213.698L844.888 164.773Z"/>
	<path fill="#9EC991" transform="scale(0.488281 0.488281)" d="M399.7 750.1L400.019 750.241C410.738 757.176 421.154 764.142 431.087 772.2C447.876 785.818 462.811 801.544 475.911 818.712C491.37 838.974 503.33 861.227 508.656 886.334L511.71 904.295C501.426 912.01 489.485 918.884 477.789 924.196C474.381 925.744 470.673 927.651 467.012 928.441C471.25 904.464 469.205 879.971 459.531 857.467C446.511 827.179 420.542 805.672 391.385 791.536C383.116 787.527 374.408 784.367 365.877 780.955C367.727 778.408 370.797 776.088 373.13 773.931L388.858 759.762C392.47 756.63 396.47 753.613 399.7 750.1Z"/>
	<path fill="#E96497" transform="scale(0.488281 0.488281)" d="M785.124 740.768L776.462 717.849C772.43 705.707 768.678 693.002 766.722 680.338C761.955 649.472 766.364 618.435 780.537 590.5C795.27 561.461 819.931 536.904 849.382 522.833C855.982 519.679 862.9 517.458 869.832 515.171L882.234 548.663C889.145 567.287 895.94 585.99 899.449 605.603C901.22 615.501 902.289 625.711 901.109 635.75C897.683 664.892 885.414 692.121 862.219 710.896C845.658 724.301 825.942 732.493 805.25 737.022L785.124 740.768Z"/>
	<path fill="#E96497" transform="scale(0.488281 0.488281)" d="M466.753 654.269C472.15 651.419 477.541 645.658 482.308 641.738L510.663 618.64L539.591 637.209L539.965 637.302L571.441 662.818C593.423 682.447 614.006 705.156 631.077 729.193C642.886 745.821 652.789 762.357 660.138 781.457L647.008 789.412C639.066 794.585 631.74 800.457 624.355 806.371C621.063 809.008 617.525 811.361 614.425 814.221L566.268 856.973L511.71 904.295L508.656 886.334C503.33 861.227 491.37 838.974 475.911 818.712C462.811 801.544 447.876 785.818 431.087 772.2C421.154 764.142 410.738 757.176 400.019 750.241L399.7 750.1C390.674 742.764 378.739 737.204 368.456 731.725C371.243 729.818 374.142 727.829 376.566 725.467L421.489 690.9L460.943 659.277L466.753 654.269Z"/>
	<path fill="#CF1F68" transform="scale(0.488281 0.488281)" d="M466.753 654.269L495.963 673.757L495.948 673.869L450.973 708.606L400.019 750.241L399.7 750.1C390.674 742.764 378.739 737.204 368.456 731.725C371.243 729.818 374.142 727.829 376.566 725.467L421.489 690.9L460.943 659.277L466.753 654.269Z"/>
	<path fill="#F9C438" transform="scale(0.488281 0.488281)" d="M495.948 673.869C505.781 680.062 514.672 687.832 523.536 695.312C562.39 728.104 594.27 767.292 614.425 814.221L566.268 856.973C560.753 843.578 555.455 830.298 548.536 817.536C536.799 795.888 522.202 776.881 505.721 758.665C488.948 740.125 471.115 723.437 450.973 708.606L495.948 673.869Z"/>
	<path fill="#253676" transform="scale(0.488281 0.488281)" d="M466.753 654.269C472.15 651.419 477.541 645.658 482.308 641.738L510.663 618.64L539.591 637.209L539.965 637.302L571.441 662.818C593.423 682.447 614.006 705.156 631.077 729.193C642.886 745.821 652.789 762.357 660.138 781.457L647.008 789.412C639.066 794.585 631.74 800.457 624.355 806.371C621.063 809.008 617.525 811.361 614.425 814.221C594.27 767.292 562.39 728.104 523.536 695.312C514.672 687.832 505.781 680.062 495.948 673.869L495.963 673.757L466.753 654.269Z"/>
	<path fill="#0A0E46" transform="scale(0.488281 0.488281)" d="M466.753 654.269C472.15 651.419 477.541 645.658 482.308 641.738L510.663 618.64L539.591 637.209C534.367 642.865 527.9 647.522 522 652.46C513.451 659.614 505.069 667.332 495.963 673.757L466.753 654.269Z"/>
	<path fill="#253676" transform="scale(0.488281 0.488281)" d="M854.151 462.333L869.832 515.171C862.9 517.458 855.982 519.679 849.382 522.833C819.931 536.904 795.27 561.461 780.537 590.5C766.364 618.435 761.955 649.472 766.722 680.338C768.678 693.002 772.43 705.707 776.462 717.849L785.124 740.768L763.75 744.335C761.847 744.712 755.955 746.491 754.279 745.947C732.659 750.971 712.116 757.602 691.634 766.159C680.899 770.644 670.1 775.394 660.138 781.457C652.789 762.357 642.886 745.821 631.077 729.193C614.006 705.156 593.423 682.447 571.441 662.818L539.965 637.302L582.131 599.996L582.044 599.509C582.721 599.383 583.078 599.217 583.588 598.746C608.093 576.144 622.754 544.281 629.929 512.242C631.528 505.099 633.288 497.34 633.494 490.031L634.078 489.693L854.151 462.333Z"/>
	<path fill="#9EC991" transform="scale(0.488281 0.488281)" d="M582.131 599.996C586.931 602.075 591.89 607.197 595.917 610.559L623.482 633.886L754.279 745.947C732.659 750.971 712.116 757.602 691.634 766.159C680.899 770.644 670.1 775.394 660.138 781.457C652.789 762.357 642.886 745.821 631.077 729.193C614.006 705.156 593.423 682.447 571.441 662.818L539.965 637.302L582.131 599.996Z"/>
	<path fill="#9EC991" transform="scale(0.488281 0.488281)" d="M824.244 167.027L844.888 164.773L842.313 213.698C845.519 213.175 848.7 212.587 851.953 212.511C852.662 221.206 851.385 231.109 850.831 239.876L849.518 240.603C851.464 243.356 850.468 250.674 850.437 254.303L848.451 300.881L847.414 355.788L847.566 409.999C848.689 427.159 849.423 445.714 854.151 462.333L634.078 489.693C633.339 484.444 634.889 477.18 635.245 471.75L636.954 435.546L637.523 435.073C637.09 429.204 637.696 422.933 637.993 417.049L639.566 383.635L639.868 383.509L642.884 327.362L643.341 327.28C641.917 324.813 644.898 287.517 644.984 281.474L645.535 266.98L646.506 239.019L646.969 238.555C646.602 230.583 647.486 222.063 647.924 214.057C648.381 205.709 648.464 197.189 649.611 188.912L657.361 188.018L661.502 187.489L670.493 186.262L673.116 186.101L675.61 185.608L687.451 184.443L692.385 183.883L702.041 182.853L705.464 182.271L706.508 182.575C709.538 181.39 713.512 181.23 716.75 180.976L717.442 181.5L717.588 185.045L718.25 180.983L719.931 180.248L722.528 179.772L734.257 178.267L738.353 177.757L747.003 176.502L751.309 175.878L763.005 174.393L768.507 173.865C769.271 173.213 773.431 173.154 774.629 173.11L780.135 172.281L794.505 170.59L818.154 167.834C819.032 167.239 822.988 167.181 824.244 167.027Z"/>
	<path fill="#E96497" transform="scale(0.488281 0.488281)" d="M639.868 383.509L847.414 355.788L847.566 409.999L812.91 413.616L694.881 428.35L654.21 433.299C648.907 433.929 642.822 435.374 637.523 435.073C637.09 429.204 637.696 422.933 637.993 417.049L639.566 383.635L639.868 383.509Z"/>
	<path fill="#253676" transform="scale(0.488281 0.488281)" d="M848.451 300.881L847.414 355.788L639.868 383.509L642.884 327.362L643.341 327.28L848.451 300.881Z"/>
	<path fill="#E96497" transform="scale(0.488281 0.488281)" d="M645.535 266.98L849.518 240.603C851.464 243.356 850.468 250.674 850.437 254.303L848.451 300.881L643.341 327.28C641.917 324.813 644.898 287.517 644.984 281.474L645.535 266.98Z"/>
	<path fill="#253676" transform="scale(0.488281 0.488281)" d="M645.535 266.98L849.518 240.603C851.464 243.356 850.468 250.674 850.437 254.303L711.262 272.743L662.164 279.013C656.679 279.771 650.272 279.977 644.984 281.474L645.535 266.98Z"/>
	<path fill="#F9C438" transform="scale(0.488281 0.488281)" d="M824.244 167.027L844.888 164.773L842.313 213.698C845.519 213.175 848.7 212.587 851.953 212.511C852.662 221.206 851.385 231.109 850.831 239.876L849.518 240.603L645.535 266.98L646.506 239.019L646.969 238.555C646.602 230.583 647.486 222.063 647.924 214.057C648.381 205.709 648.464 197.189 649.611 188.912L657.361 188.018L661.502 187.489L670.493 186.262L673.116 186.101L675.61 185.608L687.451 184.443L692.385 183.883L702.041 182.853L705.464 182.271L706.508 182.575C709.538 181.39 713.512 181.23 716.75 180.976L717.442 181.5L717.588 185.045L718.25 180.983L719.931 180.248L722.528 179.772L734.257 178.267L738.353 177.757L747.003 176.502L751.309 175.878L763.005 174.393L768.507 173.865C769.271 173.213 773.431 173.154 774.629 173.11L780.135 172.281L794.505 170.59L818.154 167.834C819.032 167.239 822.988 167.181 824.244 167.027Z"/>
	<path fill="#253676" transform="scale(0.488281 0.488281)" d="M824.244 167.027L844.888 164.773L842.313 213.698L837.908 214.293L826.974 215.757L822.87 216.26L812.309 217.669L807.483 218.264L796.967 219.539L791.97 220.191L793.563 178.569C794.189 175.903 793.299 173.084 794.505 170.59L818.154 167.834C819.032 167.239 822.988 167.181 824.244 167.027Z"/>
	<path fill="#0A0E46" transform="scale(0.488281 0.488281)" d="M794.505 170.59L818.154 167.834C816.883 169.248 816.569 169.597 814.661 170.082C813.663 176.695 813.597 183.618 813.328 190.3L812.309 217.669L807.483 218.264L810.092 170.513C807.111 170.803 803.315 170.959 800.5 171.807L798.369 172.172L796.967 219.539L791.97 220.191L793.563 178.569C794.189 175.903 793.299 173.084 794.505 170.59Z"/>
	<path fill="#253676" transform="scale(0.488281 0.488281)" d="M818.154 167.834C819.032 167.239 822.988 167.181 824.244 167.027C824.866 172.028 824.141 177.139 823.81 182.151L822.374 205.019C822.173 208.554 821.636 212.409 822.115 215.921L822.87 216.26L812.309 217.669L813.328 190.3C813.597 183.618 813.663 176.695 814.661 170.082C816.569 169.597 816.883 169.248 818.154 167.834Z"/>
	<path fill="#253676" transform="scale(0.488281 0.488281)" d="M824.244 167.027L844.888 164.773L842.313 213.698L837.908 214.293L826.974 215.757L822.87 216.26L822.115 215.921C821.636 212.409 822.173 208.554 822.374 205.019L823.81 182.151C824.141 177.139 824.866 172.028 824.244 167.027Z"/>
	<path fill="#0A0E46" transform="scale(0.488281 0.488281)" d="M824.244 167.027L844.888 164.773L842.313 213.698L837.908 214.293L837.625 213.822C836.459 211.087 837.77 202.851 837.996 199.708L840.079 166.808L829.18 168.487L826.974 215.757L822.87 216.26L822.115 215.921C821.636 212.409 822.173 208.554 822.374 205.019L823.81 182.151C824.141 177.139 824.866 172.028 824.244 167.027Z"/>
	<path fill="#253676" transform="scale(0.488281 0.488281)" d="M706.508 182.575C709.538 181.39 713.512 181.23 716.75 180.976L717.442 181.5L717.588 185.045L715.513 230.251L704.986 231.572L700.015 232.25L690.101 233.543L684.598 234.239L675.866 235.313L672.346 235.791L659.511 237.256L655.384 237.76C652.572 238.164 649.818 238.598 646.969 238.555C646.602 230.583 647.486 222.063 647.924 214.057C648.381 205.709 648.464 197.189 649.611 188.912L657.361 188.018L661.502 187.489L670.493 186.262L673.116 186.101L675.61 185.608L687.451 184.443L692.385 183.883L702.041 182.853L705.464 182.271L706.508 182.575Z"/>
	<path fill="#0A0E46" transform="scale(0.488281 0.488281)" d="M675.61 185.608L677.25 185.809C678.58 188.696 677.254 197.042 677.104 200.404L675.866 235.313L672.346 235.791L671.871 235.573L671.025 235.25L673.116 186.101L675.61 185.608Z"/>
	<path fill="#0A0E46" transform="scale(0.488281 0.488281)" d="M687.451 184.443L692.385 183.883L690.101 233.543L684.598 234.239L687.451 184.443Z"/>
	<path fill="#253676" transform="scale(0.488281 0.488281)" d="M670.493 186.262L673.116 186.101L671.025 235.25L671.871 235.573L672.346 235.791L659.511 237.256L661.502 187.489L670.493 186.262Z"/>
	<path fill="#253676" transform="scale(0.488281 0.488281)" d="M657.361 188.018L661.502 187.489L659.511 237.256L655.384 237.76C652.572 238.164 649.818 238.598 646.969 238.555C646.602 230.583 647.486 222.063 647.924 214.057C648.381 205.709 648.464 197.189 649.611 188.912L657.361 188.018Z"/>
	<path fill="#0A0E46" transform="scale(0.488281 0.488281)" d="M657.361 188.018L661.502 187.489L659.511 237.256L655.384 237.76C653.983 234.044 657.22 195.292 657.361 188.018Z"/>
	<path fill="#253676" transform="scale(0.488281 0.488281)" d="M706.508 182.575C709.538 181.39 713.512 181.23 716.75 180.976L717.442 181.5L717.588 185.045L715.513 230.251L704.986 231.572L700.015 232.25L690.101 233.543L692.385 183.883L702.041 182.853L705.464 182.271L706.508 182.575Z"/>
	<path fill="#0A0E46" transform="scale(0.488281 0.488281)" d="M705.464 182.271L706.508 182.575L704.986 231.572L700.015 232.25L702.041 182.853L705.464 182.271Z"/>
	<path fill="#253676" transform="scale(0.488281 0.488281)" d="M706.508 182.575C709.538 181.39 713.512 181.23 716.75 180.976L717.442 181.5L717.588 185.045L715.513 230.251L704.986 231.572L706.508 182.575Z"/>
	<path fill="#253676" transform="scale(0.488281 0.488281)" d="M780.135 172.281L794.505 170.59C793.299 173.084 794.189 175.903 793.563 178.569L791.97 220.191L781.615 221.42L776.466 222.121L765.386 223.561L760.487 224.259L749.704 225.662L745.031 226.304L735.983 227.622L730.956 228.276L720.606 229.62L715.513 230.251L717.588 185.045L718.25 180.983L719.931 180.248L722.528 179.772L734.257 178.267L738.353 177.757L747.003 176.502L751.309 175.878L763.005 174.393L768.507 173.865C769.271 173.213 773.431 173.154 774.629 173.11L780.135 172.281Z"/>
	<path fill="#0A0E46" transform="scale(0.488281 0.488281)" d="M763.005 174.393L768.507 173.865L768.691 174.75C768.366 175.083 767.904 175.324 767.716 175.75C766.824 177.774 767.153 183.388 767.031 185.729L765.386 223.561L760.487 224.259L763.005 174.393Z"/>
	<path fill="#0A0E46" transform="scale(0.488281 0.488281)" d="M774.629 173.11L780.135 172.281C781.088 172.436 781.95 172.621 782.919 172.544L783.556 174.025L781.615 221.42L776.466 222.121L778.821 174.75L777.75 174.288C776.98 173.938 776.601 173.715 775.728 173.719L775.148 173.756L774.629 173.11Z"/>
	<path fill="#253676" transform="scale(0.488281 0.488281)" d="M780.135 172.281L794.505 170.59C793.299 173.084 794.189 175.903 793.563 178.569L791.97 220.191L781.615 221.42L783.556 174.025L782.919 172.544C781.95 172.621 781.088 172.436 780.135 172.281Z"/>
	<path fill="#253676" transform="scale(0.488281 0.488281)" d="M780.135 172.281L794.505 170.59C793.299 173.084 794.189 175.903 793.563 178.569C793.544 176.811 793.859 174.612 793 173.091L783.556 174.025L782.919 172.544C781.95 172.621 781.088 172.436 780.135 172.281Z"/>
	<path fill="#253676" transform="scale(0.488281 0.488281)" d="M751.309 175.878L763.005 174.393L760.487 224.259L749.704 225.662L751.309 175.878Z"/>
	<path fill="#253676" transform="scale(0.488281 0.488281)" d="M747.003 176.502L751.309 175.878L749.704 225.662L745.031 226.304L735.983 227.622L730.956 228.276L720.606 229.62L715.513 230.251L717.588 185.045L718.25 180.983L719.931 180.248L722.528 179.772L734.257 178.267L738.353 177.757L747.003 176.502Z"/>
	<path fill="#0A0E46" transform="scale(0.488281 0.488281)" d="M734.257 178.267L738.353 177.757L735.983 227.622L730.956 228.276C730.883 218.672 731.827 208.875 732.414 199.285C732.832 192.448 732.616 184.913 734.257 178.267Z"/>
	<path fill="#0A0E46" transform="scale(0.488281 0.488281)" d="M719.931 180.248L722.528 179.772L720.606 229.62L715.513 230.251L717.588 185.045L718.25 180.983L719.931 180.248Z"/>
	<path fill="#253676" transform="scale(0.488281 0.488281)" d="M747.003 176.502L751.309 175.878L749.704 225.662L745.031 226.304L735.983 227.622L738.353 177.757L747.003 176.502Z"/>
	<path fill="#0A0E46" transform="scale(0.488281 0.488281)" d="M747.003 176.502L751.309 175.878L749.704 225.662L745.031 226.304L747.003 176.502Z"/>
</svg>
