<?xml version="1.0" encoding="utf-8" ?>
<svg xmlns="http://www.w3.org/2000/svg" xmlns:xlink="http://www.w3.org/1999/xlink" width="500" height="500">
	<path fill="#C12E2D" transform="scale(0.488281 0.488281)" d="M-0 -0L1024 0L1024 1024L-0 1024L0 -0Z"/>
	<path fill="#831D1D" transform="scale(0.488281 0.488281)" d="M834.29 853.838C839.218 854.35 843.905 856.013 848.543 857.686C856.371 860.51 867.312 864.35 872.404 871.25C873.944 873.338 874.375 875.522 873.996 878.077C873.349 882.435 869.785 885.653 866.314 887.967C852.752 897.011 834.1 900.905 818.397 904.196L774.041 912.147C635.706 932.635 494.974 930.663 355.876 919.623L265.365 910.548C243.324 907.829 221.302 904.872 199.552 900.331C188.417 898.006 158.755 891.929 152.212 881.675C151.281 880.216 151.114 878.257 151.627 876.619C152.908 872.533 157.539 869.677 161.25 868.029L169.278 865.267C172.939 872.676 176.681 878.296 183.864 882.77C189.055 886.003 194.454 888.191 200.531 888.993C213.603 890.718 227.086 891.213 240.25 892.138L289 895.949L476.466 910.193L570.269 917.039L598.005 919.287C601.949 919.639 606.881 920.661 610.75 920.363C615.217 920.019 620.046 918.158 624.409 917.076L652.865 910.297L811.516 871.724C819.069 869.96 825.479 867.018 830.201 860.664C831.808 858.501 832.874 856.113 834.29 853.838Z"/>
	<path fill="#242325" transform="scale(0.488281 0.488281)" d="M169.278 865.267C167.237 860.072 166.061 855.256 166.152 849.633L168.175 805.459L172.25 714.935L176.542 605.5L183.25 471.574L189.228 346.532L195.987 218.664L197.268 192.634C197.539 186.59 197.364 180.191 198.901 174.308C201.308 165.095 206.847 157.006 215.241 152.361C216.816 151.49 218.379 150.857 220.146 150.505C224.157 149.706 228.422 149.464 232.495 148.985L253.886 146.288L342.75 134.829L453.681 119.673L602.509 100.365L613 98.6169C615.502 98.2895 618.069 98.3474 620.5 99.0512C626.082 100.667 631.514 103.015 636.962 105.036L658 112.498L752 145.473L816.553 168.154C823.519 170.727 831.107 172.422 837.712 175.824C843.558 178.836 848.75 184.234 851.808 190.041C854.964 196.035 856.404 202.727 856.424 209.482L854.494 259.854L850.162 387.5L841.484 644.842L837.723 781.33L836.73 818.5L836.2 838.501C835.993 843.801 835.891 848.734 834.29 853.838C832.874 856.113 831.808 858.501 830.201 860.664C825.479 867.018 819.069 869.96 811.516 871.724L652.865 910.297L624.409 917.076C620.046 918.158 615.217 920.019 610.75 920.363C606.881 920.661 601.949 919.639 598.005 919.287L570.269 917.039L476.466 910.193L289 895.949L240.25 892.138C227.086 891.213 213.603 890.718 200.531 888.993C194.454 888.191 189.055 886.003 183.864 882.77C176.681 878.296 172.939 872.676 169.278 865.267Z"/>
	<path fill="#FECD1A" transform="scale(0.488281 0.488281)" d="M187.747 848.84L188.5 848.163C190.855 849.378 193.256 850.845 195.331 852.497C198.435 854.969 200.875 858.196 203.691 860.974C205.453 862.712 209.114 865.302 209.942 867.533C204.927 867.543 199.579 866.671 195.5 863.566C190.613 859.845 188.576 854.722 187.747 848.84Z"/>
	<path fill="#FDDE8B" transform="scale(0.488281 0.488281)" d="M187.994 842.298L216.679 195.016C217.309 186.339 219.033 179.109 225.996 173.334C228.626 171.152 231.874 169.602 235.25 169.028L265.258 165.444L339.792 155.961L543.431 130.6L586.562 125.497C593.779 124.674 602.071 122.825 609.235 123.758L610 123.873C615.494 124.664 619.315 126.549 623.471 130.084C618.314 133.603 611.79 138.267 609.096 144.08L608.727 144.357C602.504 142.945 596.696 141.971 590.28 142.296L564.695 144.648L515.347 149.685L413.059 160.934L300.781 173.219L247.446 178.859C245.35 179.166 243.478 179.759 241.678 180.897C235.936 184.525 230.994 190.552 229.498 197.25C228.159 203.243 228.175 209.835 227.831 215.971L226.192 249.476L220.71 371.75L215.223 495.25L210.519 589.25L206.995 683.326L204.261 751.751L200.759 843.947L187.994 842.298Z"/>
	<path fill="#F3760E" transform="scale(0.488281 0.488281)" d="M623.471 130.084C627.48 134.751 629.706 139.764 629.85 145.973C630.135 158.278 629.097 170.852 628.595 183.164L626.632 239.817L619.47 444.414L608.838 762.966L606.528 833.525L605.253 875.15C604.775 881.914 602.323 888.741 597.04 893.25C594.028 895.821 590.242 897.708 586.234 897.361L400.305 882.85L310.653 875.543L237.978 869.822L218.416 868.389C215.773 868.184 212.444 868.279 209.942 867.533C209.114 865.302 205.453 862.712 203.691 860.974C200.875 858.196 198.435 854.969 195.331 852.497C193.256 850.845 190.855 849.378 188.5 848.163L187.747 848.84C187.35 846.904 187.859 844.297 187.994 842.298L200.759 843.947L200.901 844.469L339.945 854.562C342.798 855.118 345.858 854.881 348.75 855.056L362.896 856.163L408.369 859.091L513.5 867.078L549.563 870.23C555.062 870.695 562.446 872.111 567.868 871.188L568.5 871.064C571.301 870.539 573.457 868.848 575.456 866.891C578.03 864.372 579.987 861.135 580.38 857.5C581.732 845.006 581.324 831.937 581.649 819.352L583.611 761.655L588.785 627.616L589.789 582.06L598.633 309.478L602.488 205.631L604.236 168.716C604.461 163.722 604.012 158.117 605.051 153.25C605.698 150.217 607.397 147.148 608.727 144.357L609.096 144.08C611.79 138.267 618.314 133.603 623.471 130.084Z"/>
	<path fill="#D6490B" transform="scale(0.488281 0.488281)" d="M609.096 144.08C610.753 145.464 610.89 147.189 611.113 149.227C611.804 155.564 610.912 162.607 610.657 168.987L609.185 207.095L604.592 341.53L593.498 678.882L589.986 796.61L588.303 853.25C587.878 860.109 586.742 865.815 582.163 871.22C579.339 874.554 575.646 877.578 571.142 877.904C564.936 878.353 557.994 877.306 551.777 876.786L524.75 874.714L461.986 870.367L419 866.708L289.5 857.197C264.749 855.535 239.445 855.13 214.875 851.804C209.779 851.114 205.781 849.47 202 845.888C201.535 845.448 201.225 845.006 200.901 844.469L339.945 854.562C342.798 855.118 345.858 854.881 348.75 855.056L362.896 856.163L408.369 859.091L513.5 867.078L549.563 870.23C555.062 870.695 562.446 872.111 567.868 871.188L568.5 871.064C571.301 870.539 573.457 868.848 575.456 866.891C578.03 864.372 579.987 861.135 580.38 857.5C581.732 845.006 581.324 831.937 581.649 819.352L583.611 761.655L588.785 627.616L589.789 582.06L598.633 309.478L602.488 205.631L604.236 168.716C604.461 163.722 604.012 158.117 605.051 153.25C605.698 150.217 607.397 147.148 608.727 144.357L609.096 144.08Z"/>
	<path fill="#F39113" transform="scale(0.488281 0.488281)" d="M485.352 459.955C487.039 457.781 488.026 455.1 489.168 452.611L494.518 440.871L516.697 391.543L561.559 293.5L602.488 205.631L598.633 309.478L589.789 582.06L588.785 627.616L583.611 761.655L581.649 819.352C581.324 831.937 581.732 845.006 580.38 857.5C579.987 861.135 578.03 864.372 575.456 866.891C573.457 868.848 571.301 870.539 568.5 871.064L567.868 871.188C562.446 872.111 555.062 870.695 549.563 870.23L513.5 867.078L408.369 859.091L362.896 856.163L348.75 855.056C345.858 854.881 342.798 855.118 339.945 854.562C342.618 854.638 345.29 854.938 347.631 853.453C356.074 848.093 364.969 844.123 373 837.956C375.885 835.741 378.969 833.254 381.048 830.236C383.522 830.827 386.778 830.612 389.342 830.681C399.622 830.955 409.929 830.141 420.055 828.375C424.535 827.594 429.339 826.828 433.585 825.176C436.17 822.939 439.876 822.239 443.058 821.078C455.476 816.548 467.53 809.354 478.5 802.028C512.914 779.046 538.772 749.442 556.101 711.813C580.346 659.167 579.532 595.92 556.25 543.183C551.449 532.307 544.886 521.793 538.131 512.017C533.991 506.025 529.601 500.048 524.907 494.481L515.13 483.848C513.633 482.325 510.523 479.865 509.906 477.83L509.698 477.039C509.127 476.019 507.328 474.892 506.406 474.139C499.882 468.807 492.522 464.365 485.352 459.955Z"/>
	<path fill="#131011" transform="scale(0.488281 0.488281)" d="M536.776 810.119C541.675 809.583 546 809.878 550.49 812.121C555.812 814.778 560.006 819.88 561.767 825.54C563.523 831.181 562.884 837.333 560.05 842.5C556.974 848.108 552.212 851.626 546.186 853.462C541.47 854.113 536.888 853.697 532.538 851.648C527.096 849.084 523.031 843.978 521.118 838.332C519.351 833.116 519.778 825.785 522.485 820.978C525.787 815.116 530.506 811.968 536.776 810.119Z"/>
	<path fill="#353435" transform="scale(0.488281 0.488281)" d="M538.022 814.14C540.705 813.901 544.224 813.684 546.75 814.691L546.75 815C545.326 814.479 543.949 814.583 542.459 814.606C543.126 814.79 542.88 814.668 543.446 815.029C544.176 815.493 544.829 815.994 545.671 816.247L546.247 816.375L546.95 816.543L547.497 816.663L547.25 817.033L545.423 816.673L545.138 817.25C546.173 819.102 546.931 820.92 547.683 822.899C548.628 825.385 548.901 828.329 548.529 830.98C547.905 835.421 545.283 838.508 541.849 841.128L538.975 842.376C536.426 843.306 533.15 843.398 530.677 842.22C527.46 840.687 525.277 838.226 524.224 834.793C522.856 830.33 524.169 825.365 526.576 821.5C529.366 817.02 533.097 815.369 538.022 814.14Z"/>
	<path fill="#F1F1EF" transform="scale(0.488281 0.488281)" d="M535.094 819.75C536.142 819.568 537.024 819.542 538.053 819.824C539.893 820.327 541.812 821.927 542.582 823.682C543.233 825.168 543.167 827.457 542.549 828.942C541.594 831.236 539.973 832.24 537.75 833.112C536.641 833.506 535.604 833.48 534.5 833.056C532.789 832.4 531.221 831.123 530.426 829.446C529.659 827.826 529.713 825.861 530.368 824.211C531.265 821.949 532.907 820.648 535.094 819.75Z"/>
	<path fill="#131011" transform="scale(0.488281 0.488281)" d="M509.698 477.039C519.874 484.627 528.808 494.342 536.548 504.356C557.228 531.111 570.719 563.116 575.634 596.579C583.694 651.46 570.06 708.723 536.71 753.231C517.67 778.643 493.503 798.983 465.098 813.238C455.247 818.182 444.369 822.721 433.585 825.176C436.17 822.939 439.876 822.239 443.058 821.078C455.476 816.548 467.53 809.354 478.5 802.028C512.914 779.046 538.772 749.442 556.101 711.813C580.346 659.167 579.532 595.92 556.25 543.183C551.449 532.307 544.886 521.793 538.131 512.017C533.991 506.025 529.601 500.048 524.907 494.481L515.13 483.848C513.633 482.325 510.523 479.865 509.906 477.83L509.698 477.039Z"/>
	<path fill="#315C66" transform="scale(0.488281 0.488281)" d="M653.792 135.75L654.439 135.58C656.702 135.116 662.053 137.412 664.361 138.184L775.568 176.76L821.5 192.467C827.046 194.463 833.201 195.991 838.291 198.988L830.211 414.25L827.476 512.779L824.006 607.687L818.873 760.98L816.621 837.602C816.458 840.013 815.95 841.627 814.706 843.688C813.16 846.248 811.219 848.412 808.575 849.855C805.187 851.703 800.805 852.306 797.057 853.126L775.647 857.737L675 881.117L649.552 887.013L637.589 889.96C635.466 890.482 632.985 891.352 630.809 890.923C628.624 890.493 626.536 888.912 625.396 887.01C624.433 885.407 624.429 883.403 624.414 881.598L626.167 821.265L630.34 698.038L635.803 541.559L639.327 441.941L646.216 217.368L647.933 156.339L648.306 145.236C648.368 143.733 648.235 141.74 648.703 140.308C649.435 138.074 651.9 136.795 653.792 135.75Z"/>
	<path fill="#242325" transform="scale(0.488281 0.488281)" d="M655.56 619.6L656.105 615.629L656.25 615.112C658.982 617.363 661.793 623.689 663.717 626.823L691.257 672.454L761.651 786.771C770.233 800.472 780.849 813.24 788.548 827.356L653.801 853.868C652.883 853.285 651.984 852.693 651.248 851.883C650.336 850.879 649.628 849.886 649.495 848.5C648.623 839.43 649.799 829.228 650.126 820.069L651.212 777.06L655.56 619.6Z"/>
	<path fill="#123043" transform="scale(0.488281 0.488281)" d="M668.014 220.951L669.689 168.807L814.507 220.367L808.493 408.076L806.632 461.174L806.077 482.707C805.967 486.97 806.146 491.424 805.461 495.638C802.018 490.314 799.331 484.179 796.386 478.551L774.109 434.635L691.642 269.929C683.488 253.773 676.819 236.784 668.014 220.951Z"/>
	<path fill="#10212D" transform="scale(0.488281 0.488281)" d="M668.014 220.951C676.819 236.784 683.488 253.773 691.642 269.929L774.109 434.635L796.386 478.551C799.331 484.179 802.018 490.314 805.461 495.638L793.975 826.287C792.279 826.632 790.253 827.297 788.548 827.356C780.849 813.24 770.233 800.472 761.651 786.771L691.257 672.454L663.717 626.823C661.793 623.689 658.982 617.363 656.25 615.112L656.105 615.629L655.56 619.6L668.014 220.951Z"/>
	<path fill="#FBB21E" transform="scale(0.488281 0.488281)" d="M200.759 843.947L204.261 751.751L206.995 683.326L210.519 589.25L215.223 495.25L220.71 371.75L226.192 249.476L227.831 215.971C228.175 209.835 228.159 203.243 229.498 197.25C230.994 190.552 235.936 184.525 241.678 180.897C243.478 179.759 245.35 179.166 247.446 178.859L300.781 173.219L413.059 160.934L515.347 149.685L564.695 144.648L590.28 142.296C596.696 141.971 602.504 142.945 608.727 144.357C607.397 147.148 605.698 150.217 605.051 153.25C604.012 158.117 604.461 163.722 604.236 168.716L602.488 205.631L561.559 293.5L516.697 391.543L494.518 440.871L489.168 452.611C488.026 455.1 487.039 457.781 485.352 459.955C492.522 464.365 499.882 468.807 506.406 474.139C507.328 474.892 509.127 476.019 509.698 477.039L509.906 477.83C510.523 479.865 513.633 482.325 515.13 483.848L524.907 494.481C529.601 500.048 533.991 506.025 538.131 512.017C544.886 521.793 551.449 532.307 556.25 543.183C579.532 595.92 580.346 659.167 556.101 711.813C538.772 749.442 512.914 779.046 478.5 802.028C467.53 809.354 455.476 816.548 443.058 821.078C439.876 822.239 436.17 822.939 433.585 825.176C429.339 826.828 424.535 827.594 420.055 828.375C409.929 830.141 399.622 830.955 389.342 830.681C386.778 830.612 383.522 830.827 381.048 830.236C378.969 833.254 375.885 835.741 373 837.956C364.969 844.123 356.074 848.093 347.631 853.453C345.29 854.938 342.618 854.638 339.945 854.562L200.901 844.469L200.759 843.947Z"/>
	<path fill="#FECD1A" transform="scale(0.488281 0.488281)" d="M224.962 570.612C225.486 573.23 225.304 576.807 226.652 579.021L226.888 579.445L223.852 592.066C223.28 591.734 222.77 591.352 222.237 590.961L223.209 578.012C223.351 576.01 223.24 573.749 223.936 571.858L224.196 572.107L224.962 570.612Z"/>
	<path fill="#FDDE8B" transform="scale(0.488281 0.488281)" d="M536.891 206.843C539.86 212.996 543.542 217.361 550.114 219.763L550.645 219.931L510.429 303.808L509.772 277.797C509.51 273.739 508.394 268.971 508.625 264.971C508.746 262.874 510.11 260.552 510.989 258.665L517.627 244.941C523.729 232.387 528.966 218.316 536.891 206.843Z"/>
	<path fill="#131011" transform="scale(0.488281 0.488281)" d="M536.891 206.843C535.284 199.241 535.649 192.498 540.012 185.761C543.437 180.472 549.126 176.721 555.328 175.624C560.564 174.697 565.958 175.764 570.25 178.932C575.179 182.571 577.465 187.967 578.304 193.932C579.19 200.235 577.535 206.884 573.638 211.942C570.215 216.385 565.669 219.724 559.983 220.479C556.921 220.885 553.623 220.82 550.645 219.931L550.114 219.763C543.542 217.361 539.86 212.996 536.891 206.843Z"/>
	<path fill="#242325" transform="scale(0.488281 0.488281)" d="M553.723 180.82C558.93 180.049 562.273 179.035 566.947 182.409C570.741 185.148 573.235 189.588 573.779 194.211C574.437 199.798 572.158 205.847 568.618 210.102C565.946 213.313 562.024 216.145 557.75 216.516C554.689 216.781 551.726 216.403 548.932 215.13L548.396 214.895C544.406 213.014 541.952 208.908 540.359 205L540.093 204.373C538.93 201.494 539.1 197.92 540.351 195.094L540.899 194.014L542.726 189.456C545.042 184.664 548.92 182.51 553.723 180.82Z"/>
	<path fill="#353435" transform="scale(0.488281 0.488281)" d="M553.723 180.82C556.57 180.977 557.913 180.742 560.095 182.907C562.718 185.509 563.762 189.639 563.588 193.225C563.431 196.444 561.164 199.774 558.735 201.798C556.515 203.65 553.332 205.185 550.382 204.94L548.75 204.627L548.237 204.514C545.836 203.935 543.957 202.092 542.653 200.059C541.574 198.377 541.32 195.953 540.899 194.014L542.726 189.456C545.042 184.664 548.92 182.51 553.723 180.82Z"/>
	<path fill="#BABBBA" transform="scale(0.488281 0.488281)" d="M551.641 184.75C553.122 184.32 553.987 184.428 555.476 184.643C556.645 185.554 557.427 185.893 557.701 187.5C557.93 188.838 557.487 190.911 556.753 192.06C555.708 193.695 554.591 194.228 552.75 194.617L550.722 194.588C548.642 194.489 547.981 193.889 546.638 192.449C546.507 191.665 546.407 190.991 546.658 190.213C547.492 187.621 549.374 186.068 551.641 184.75Z"/>
	<path fill="#242325" transform="scale(0.488281 0.488281)" d="M233.907 789.58C238.374 788.973 242.243 789.284 246.266 791.483C252.392 794.832 256.973 801.016 258.664 807.752C260.177 813.775 258.808 819.692 255.497 824.87C251.957 830.406 247.098 832.993 240.883 834.434C236.42 834.617 233.422 834.456 229.311 832.514C223.526 829.781 218.651 824.278 216.635 818.184C214.859 812.817 215.538 806.061 218.192 801.093C221.581 794.749 227.252 791.568 233.907 789.58Z"/>
	<path fill="#353435" transform="scale(0.488281 0.488281)" d="M223.418 801.981L223.855 801.538C224.428 801.089 224.752 801.024 225.293 800.421C226.505 799.071 227.844 797.603 229.625 797.003L230.5 796.755C231.864 796.287 233.075 796.102 234.533 796.354L235.17 796.501L236.25 796.755L237.125 797.253L237.255 795.75C237.167 794.114 237.215 792.88 237.551 791.25C239.159 791.137 240.315 791.243 241.845 791.793C245.128 792.974 247.258 795.795 248.69 798.855C245.59 798.848 242.593 798.682 239.663 799.846L239.147 800.068L240.552 804.055C243.253 805.243 245.904 806.292 247.007 809.3C247.888 811.703 247.455 814.461 246.475 816.75C244.768 820.736 240.437 823.914 236.469 825.348C233.994 826.243 229.978 827.278 227.514 825.919C224.202 824.09 222.132 820.077 221.042 816.615C219.343 811.223 220.883 806.773 223.418 801.981Z"/>
	<path fill="#888D8E" transform="scale(0.488281 0.488281)" d="M225.217 802.199L225.657 801.605C227.256 799.527 229.36 797.672 232.067 797.432C235.369 797.139 236.656 798.022 239.147 800.068L240.552 804.055L240.366 805.277C239.93 807.61 238.699 808.988 236.725 810.248C234.443 811.704 231.412 812.033 228.797 811.363C226.795 810.851 225.576 809.429 224.535 807.75C224.408 805.692 224.62 804.171 225.217 802.199Z"/>
	<path fill="#FDDE8B" transform="scale(0.488281 0.488281)" d="M223.936 571.858L225.458 531.266L228.032 468.448L229.613 414.041L233.199 336.63L236.675 246.478C237.265 233.142 237.09 219.285 238.826 206.051C239.375 201.87 241.303 197.552 243.853 194.216C245.62 191.904 248.474 189.41 251.255 188.416C254.149 187.382 257.543 187.146 260.578 186.785L276.25 185.045L317.944 180.112L312.114 202.181L285.416 303.5L248.259 455.319L232.509 529L228.5 548.879C227.056 555.769 225.367 562.87 224.994 569.909L224.962 570.612L224.196 572.107L223.936 571.858Z"/>
	<path fill="#131011" transform="scale(0.488281 0.488281)" d="M268.044 202.641C272.657 202.671 276.241 203.356 279.99 206.202C284.813 209.863 287.508 215.255 288.313 221.224C289.175 227.616 287.052 234.897 283.066 239.956C279.159 244.914 273.793 247.122 267.702 247.894C263.189 247.633 259.449 247.129 255.56 244.525C250.951 241.439 248.302 236.255 247.288 230.906C246.128 224.785 247.727 217.807 251.397 212.793C255.774 206.813 260.73 203.836 268.044 202.641Z"/>
	<path fill="#242325" transform="scale(0.488281 0.488281)" d="M267.431 207.929C271.272 207.386 274.001 208.038 277.121 210.367C280.797 213.11 282.751 217.525 283.342 222C283.991 226.917 283.043 232.748 280.003 236.75C277.013 240.687 272.638 242.921 267.759 243.402C263.496 243.821 259.205 242.288 255.985 239.485C253.144 237.012 251.166 232.932 250.988 229.183C250.74 223.947 251.955 219.132 255.29 215.019L256.223 213.75C259.269 210.084 262.706 208.225 267.431 207.929Z"/>
	<path fill="#353435" transform="scale(0.488281 0.488281)" d="M255.29 215.019L256.223 213.75C259.269 210.084 262.706 208.225 267.431 207.929C270.715 209.389 273.551 211.253 274.96 214.75C275.793 216.816 275.955 219.552 275.063 221.61C273.493 225.234 270.56 228.613 266.75 229.913C264.416 230.709 261.475 230.866 259.241 229.684C257.244 228.629 255.367 226.779 254.693 224.594C253.897 222.015 255.21 217.804 255.29 215.019Z"/>
	<path fill="#BABBBA" transform="scale(0.488281 0.488281)" d="M263.076 213.471C264.304 213.456 265.954 213.331 266.927 214.18C268.638 215.672 269.187 216.662 269.331 218.979C268.207 221.662 267.356 222.544 264.685 223.75C263.548 223.996 262.41 223.965 261.25 223.994C260.103 223.51 259.42 223.231 258.691 222.183C257.943 221.109 257.579 219.117 257.979 217.831C258.671 215.606 261.151 214.381 263.076 213.471Z"/>
	<path fill="#242325" transform="scale(0.488281 0.488281)" d="M403.809 192.204C426.245 189.514 448.578 197.243 466.25 210.718C486.93 226.486 500.769 251.245 504.195 276.957C508.55 309.643 499.377 342.27 479.386 368.434C461.248 392.173 436.804 407.376 407.124 411.438C400.434 411.821 393.822 412.138 387.146 411.327C370.989 409.364 354.46 402.08 341.87 391.837C320.526 374.469 307.416 349.5 304.766 322.169C301.633 289.867 310.757 256.425 331.564 231.29C349.662 209.428 375.423 194.926 403.809 192.204Z"/>
	<path fill="#353435" transform="scale(0.488281 0.488281)" d="M402.283 198.695C421.34 196.645 441.067 202.849 456.211 214.377C476.377 229.727 488.138 252.914 491.366 277.75C495.19 307.182 486.561 337.49 468.446 360.877C455.375 377.751 436.903 391.276 416.294 397.187C410.45 398.862 404.635 399.667 398.616 400.415C393.381 400.675 387.505 400.923 382.321 400.113C367.525 397.8 353.999 392.778 342.279 383.25C321.643 366.475 312.095 343.091 309.1 317.25C305.915 289.761 314.649 260.581 331.609 238.895C344.014 223.032 360.839 209.748 380.061 203.25C387.362 200.782 394.661 199.623 402.283 198.695Z"/>
	<path fill="#BABBBA" transform="scale(0.488281 0.488281)" d="M401.471 216.708C416.887 215.888 432.868 220.769 445.293 229.965C463.115 243.154 471.94 262.856 474.981 284.274C478.145 306.55 470.397 332.291 457.008 350.089C442.173 369.809 422.938 380.933 398.713 384.459C394.961 384.511 391.077 384.726 387.354 384.234C373.57 382.41 361.366 377.718 350.49 368.903C334.137 355.649 325.762 335.836 323.699 315.267C321.171 290.06 329.634 265.441 345.572 246.052C359.99 228.513 379.071 218.951 401.471 216.708Z"/>
	<path fill="#5C6667" transform="scale(0.488281 0.488281)" d="M359.283 362.786C346.95 354.757 337.293 337.588 334.181 323.463C329.438 301.937 334.207 277.578 346.234 259.181C356.26 243.845 373.654 230.907 391.778 227.203C405.986 224.299 423.354 227.323 435.549 235.298C430.567 235.436 425.744 235.263 420.75 235.766C402.147 237.639 386.319 244.704 373.413 258.413C364.415 267.97 357.233 280.932 353.892 293.612C352.4 299.272 351.731 305.207 350.933 311C350.249 315.963 349.409 321.135 349.623 326.154C350.025 335.613 351.396 345.041 354.934 353.883C356.129 356.871 358.487 359.742 359.283 362.786Z"/>
	<path fill="#888D8E" transform="scale(0.488281 0.488281)" d="M435.549 235.298C446.824 240.851 455.739 254.862 459.693 266.451C466.895 287.559 464.432 311.531 454.575 331.36C444.915 350.793 430.676 365.017 409.781 371.813C395.601 376.426 380.018 374.611 366.84 367.867C365.034 366.943 360.113 364.478 359.283 362.786C358.487 359.742 356.129 356.871 354.934 353.883C351.396 345.041 350.025 335.613 349.623 326.154C349.409 321.135 350.249 315.963 350.933 311C351.731 305.207 352.4 299.272 353.892 293.612C357.233 280.932 364.415 267.97 373.413 258.413C386.319 244.704 402.147 237.639 420.75 235.766C425.744 235.263 430.567 235.436 435.549 235.298Z"/>
	<path fill="#131011" transform="scale(0.488281 0.488281)" d="M404.158 251.69C414.828 250.724 425.913 254.505 434.336 260.98C444.898 269.1 450.808 282.094 452.251 295.121C453.744 308.595 448.572 324.025 440.016 334.477C431.245 345.191 418.929 352.382 405.123 353.777C394.599 354.515 384.021 351.471 375.694 344.927C365.638 337.023 358.803 324.462 357.388 311.761C355.794 297.468 360.264 282.272 369.262 271.044C378.124 259.987 390.06 253.181 404.158 251.69Z"/>
	<path fill="#D6490B" transform="scale(0.488281 0.488281)" d="M402.923 256.863C413.719 256.007 424.169 259.176 432.455 266.253C439.001 271.844 441.589 277.807 445.176 285.334C449.233 298.79 448.136 311.475 441.408 323.895C435.134 335.477 424.78 343.894 412.083 347.436L411.196 347.675C404.545 349.121 397.761 349.289 391.201 347.326C380.613 344.159 372.3 336.559 367.155 326.892C361.073 315.466 360.991 302.51 364.619 290.333C366.43 284.762 369.15 279.351 372.769 274.733C380.289 265.141 390.703 258.405 402.923 256.863Z"/>
	<path fill="#C12E2D" transform="scale(0.488281 0.488281)" d="M445.176 285.334C449.233 298.79 448.136 311.475 441.408 323.895C435.134 335.477 424.78 343.894 412.083 347.436L411.196 347.675C408.376 345.192 404.782 345.342 402.175 343.135C400.826 341.992 400.852 340.842 400.732 339.197C402.101 335.945 406.963 334.085 409.972 332.534C412.86 331.046 415.591 329.49 418.263 327.638C421.928 325.099 425.326 322.041 428.239 318.67C431.73 314.63 434.852 310.141 437.25 305.366C439.245 301.394 440.934 297.336 442.215 293.08C442.661 291.599 443.158 287.442 444 286.381C444.326 285.97 444.784 285.683 445.176 285.334Z"/>
	<path fill="#F3760E" transform="scale(0.488281 0.488281)" d="M364.619 290.333C366.43 284.762 369.15 279.351 372.769 274.733C380.289 265.141 390.703 258.405 402.923 256.863L406.144 256.915C407.71 257.02 408.319 257.525 409.574 258.357C414.623 261.699 417.964 264.658 419.551 270.75C421.694 278.974 419.569 288.275 415.25 295.431C410.514 303.276 402.428 309.721 393.438 311.764C387.306 313.157 380.028 312.675 374.547 309.385C367.995 305.452 366.259 297.212 364.619 290.333Z"/>
	<path fill="#FBB21E" transform="scale(0.488281 0.488281)" d="M392.003 278.64L393.22 278.774C396.042 279.157 398.119 280.284 399.762 282.66C401.398 285.027 402.217 288.505 401.382 291.312L401.063 292.25C400.772 293.119 400.495 293.997 399.95 294.75C397.842 297.66 395.581 298.323 392.213 298.77C390.621 298.439 389.015 298.11 387.565 297.34C385.173 296.069 383.525 293.538 382.879 290.943C382.285 288.56 383.071 285.38 384.373 283.337C386.326 280.272 388.557 279.337 392.003 278.64Z"/>
	<path fill="#353435" transform="scale(0.488281 0.488281)" d="M226.888 579.445C231.303 565.167 236.199 551.36 243.284 538.144C266.77 494.336 307.749 457.586 355.727 443.254C389.52 433.159 423.479 434.054 456.602 446.4C466.577 450.119 476.004 454.9 485.352 459.955C492.522 464.365 499.882 468.807 506.406 474.139C507.328 474.892 509.127 476.019 509.698 477.039L509.906 477.83C510.523 479.865 513.633 482.325 515.13 483.848L524.907 494.481C529.601 500.048 533.991 506.025 538.131 512.017C544.886 521.793 551.449 532.307 556.25 543.183C579.532 595.92 580.346 659.167 556.101 711.813C538.772 749.442 512.914 779.046 478.5 802.028C467.53 809.354 455.476 816.548 443.058 821.078C439.876 822.239 436.17 822.939 433.585 825.176C429.339 826.828 424.535 827.594 420.055 828.375C409.929 830.141 399.622 830.955 389.342 830.681C386.778 830.612 383.522 830.827 381.048 830.236L352.126 826.256C340.023 823.841 328.034 819.081 317.089 813.465C290.711 799.93 268.911 780.06 252.497 755.361C244.213 742.894 236.971 729.465 231.658 715.449C216.806 676.267 215.675 632.775 223.852 592.066L226.888 579.445Z"/>
	<path fill="#131011" transform="scale(0.488281 0.488281)" d="M533.484 528.25L533.913 528.375C537.439 533.991 540.124 540.311 542.923 546.324C549.352 560.132 553.572 575.506 556.193 590.479C557.698 599.08 559.036 607.999 559.475 616.724C560.782 642.693 555.821 670.035 546.84 694.376C529.991 740.044 497.83 779.001 453.095 799.356C421.745 813.621 387.704 815.566 354 810.574C341.549 808.73 329.187 806.151 317.38 801.704L312.562 799.846L312.75 799.384C355.054 812.418 402.605 815.892 444.259 798.582C488.36 780.254 522.559 743.304 540.381 699.25C556.962 658.263 560.513 613.066 549.001 570.25C545.071 555.631 539.3 542.151 533.484 528.25Z"/>
	<path fill="#BABBBA" transform="scale(0.488281 0.488281)" d="M367.412 790.6C361.897 790.243 356.353 788.866 351 787.568C338.342 784.5 326.165 779.842 314.748 773.549C280.635 754.746 256.733 721.594 246.25 684.451C233.099 637.856 240.351 586.337 263.996 544.278C284.485 507.835 319.941 478.579 360.395 467.365C395.102 457.745 431.393 462.967 462.563 480.751L461.907 480.786C459.508 480.794 454.702 477.199 452.237 475.993L450.183 482.33C447.241 483.203 444.896 483.663 441.821 483.763C440.262 483.814 439.17 484.126 437.745 484.75C438.463 485.641 439.116 485.73 440.17 486.08C443.851 487.302 447.698 489.532 451.081 491.389L451.281 492.239C421.421 477.014 389.599 473.1 357.435 483.565C319.272 495.982 289.958 523.093 271.972 558.683C252.375 597.461 248.809 645.776 262.41 687.038L270.685 707.592C287.789 744.335 321.955 771.681 359.603 785.232L362.715 786.25C361.169 786.697 360.283 786.185 358.875 785.625L358.169 785.348L357.748 785.173L357.67 786.136C357.597 786.97 357.469 787.601 357.125 788.375C358.283 788.506 359.131 788.691 360.25 789C361.216 789.266 362.207 789.212 363.25 789.5C364.16 789.751 365.274 789.768 366.25 790L367.868 790.131L367.412 790.6Z"/>
	<defs>
		<linearGradient id="gradient_0" gradientUnits="userSpaceOnUse" x1="298.43619" y1="520.38141" x2="377.11887" y2="612.93298">
			<stop offset="0" stop-color="#535555"/>
			<stop offset="1" stop-color="#666D6D"/>
		</linearGradient>
	</defs>
	<path fill="url(#gradient_0)" transform="scale(0.488281 0.488281)" d="M270.685 707.592L262.41 687.038C248.809 645.776 252.375 597.461 271.972 558.683C289.958 523.093 319.272 495.982 357.435 483.565C389.599 473.1 421.421 477.014 451.281 492.239L451.768 492.686C455.057 495.62 459.9 497.874 463.563 500.501C470.383 505.392 476.297 511 482.372 516.75L482 517.035C474.235 510.901 464.259 506.039 454.869 502.994C441.721 503.083 428.949 505.63 416.71 510.485C415.045 511.146 412.596 511.708 411.302 512.96L410.73 513.544C397.243 512.755 384.819 513.342 371.813 517.287C366.426 518.921 361.358 521.216 356.129 523.256L355.437 523.731C353.248 525.207 350.718 526.21 348.441 527.559C344.53 529.876 340.767 532.491 337.16 535.254C312.352 554.255 296.128 581.946 289.8 612.352C287.51 623.353 287.075 634.473 287.52 645.68C287.677 649.622 288.372 653.501 288.5 657.438C286.161 659.958 284.738 663.783 283.306 666.898C277.956 678.533 273.094 691.24 271.525 704.024C271.374 705.261 271.036 706.402 270.685 707.592Z"/>
	<path fill="#5C6667" transform="scale(0.488281 0.488281)" d="M356.129 523.256C356.204 522.665 356.166 522.5 356.442 521.985C357.504 520.006 360.123 517.971 361.73 516.38C371.545 506.661 382.783 500.669 396.195 497.275C411.505 493.401 429.103 495.556 444.227 499.425C447.854 500.353 451.625 501.05 454.869 502.994C441.721 503.083 428.949 505.63 416.71 510.485C415.045 511.146 412.596 511.708 411.302 512.96L410.73 513.544C397.243 512.755 384.819 513.342 371.813 517.287C366.426 518.921 361.358 521.216 356.129 523.256Z"/>
	<path fill="#888D8E" transform="scale(0.488281 0.488281)" d="M451.281 492.239L451.081 491.389C447.698 489.532 443.851 487.302 440.17 486.08C439.116 485.73 438.463 485.641 437.745 484.75C439.17 484.126 440.262 483.814 441.821 483.763C444.896 483.663 447.241 483.203 450.183 482.33L452.237 475.993C454.702 477.199 459.508 480.794 461.907 480.786L462.563 480.751C468.631 483.625 474.326 488.058 479.512 492.28C501.153 509.897 518.087 533.544 527.514 559.87C544.704 607.873 541.19 658.565 519.33 704.357C501.768 741.146 467.106 770.701 428.873 784.058C409.877 790.695 387.645 794.258 367.606 790.808L367.412 790.6L367.868 790.131L366.25 790C365.274 789.768 364.16 789.751 363.25 789.5C362.207 789.212 361.216 789.266 360.25 789C359.131 788.691 358.283 788.506 357.125 788.375C357.469 787.601 357.597 786.97 357.67 786.136L357.748 785.173L358.169 785.348L358.875 785.625C360.283 786.185 361.169 786.697 362.715 786.25L359.603 785.232C321.955 771.681 287.789 744.335 270.685 707.592C271.036 706.402 271.374 705.261 271.525 704.024C273.094 691.24 277.956 678.533 283.306 666.898C284.738 663.783 286.161 659.958 288.5 657.438C293.311 685.846 306.304 711.669 329.431 729.511C348.707 744.381 373.756 752.523 398.162 749.193C416.123 746.743 432.939 739.74 447.742 729.293C475.027 710.036 492.461 678.909 497.82 646.25C503.031 614.497 496.63 580.763 477.573 554.459C461.557 532.352 437.548 517.956 410.73 513.544L411.302 512.96C412.596 511.708 415.045 511.146 416.71 510.485C428.949 505.63 441.721 503.083 454.869 502.994C464.259 506.039 474.235 510.901 482 517.035L482.372 516.75C476.297 511 470.383 505.392 463.563 500.501C459.9 497.874 455.057 495.62 451.768 492.686L451.281 492.239Z"/>
	<path fill="#242325" transform="scale(0.488281 0.488281)" d="M356.129 523.256C361.358 521.216 366.426 518.921 371.813 517.287C384.819 513.342 397.243 512.755 410.73 513.544C437.548 517.956 461.557 532.352 477.573 554.459C496.63 580.763 503.031 614.497 497.82 646.25C492.461 678.909 475.027 710.036 447.742 729.293C432.939 739.74 416.123 746.743 398.162 749.193C373.756 752.523 348.707 744.381 329.431 729.511C306.304 711.669 293.311 685.846 288.5 657.438C288.372 653.501 287.677 649.622 287.52 645.68C287.075 634.473 287.51 623.353 289.8 612.352C296.128 581.946 312.352 554.255 337.16 535.254C340.767 532.491 344.53 529.876 348.441 527.559C350.718 526.21 353.248 525.207 355.437 523.731L356.129 523.256Z"/>
	<path fill="#FBB21E" transform="scale(0.488281 0.488281)" d="M472.895 556.393C491.296 581.516 498.048 612.826 493.395 643.492C488.655 674.738 472.396 704.946 446.625 723.762L437.425 729.879L438.013 726.975L450.98 717.671C474.636 698.456 489.281 666.773 492.215 636.821C494.787 610.563 488.918 579.461 471.793 558.576L472.895 556.393Z"/>
	<path fill="#FBB21E" transform="scale(0.488281 0.488281)" d="M302.552 684.15C294.394 666.81 291.939 644.479 293.724 625.526C296.667 594.283 312.132 563.222 336.534 543.269C356.971 526.559 382.062 516.771 408.685 519.681C434.405 522.493 456.818 536.443 472.895 556.393L471.793 558.576C468.942 555.432 466.043 552.083 462.633 549.531C452.112 541.656 437.339 538.795 424.5 538.112C396.911 536.644 370.207 549.364 350.222 567.652C329.53 586.588 316.215 610.71 308.513 637.5C305.726 647.193 303.421 657.55 303.058 667.648C302.863 673.089 303.326 678.766 302.552 684.15Z"/>
	<path fill="#FDDE8B" transform="scale(0.488281 0.488281)" d="M302.552 684.15C303.326 678.766 302.863 673.089 303.058 667.648C303.421 657.55 305.726 647.193 308.513 637.5C316.215 610.71 329.53 586.588 350.222 567.652C370.207 549.364 396.911 536.644 424.5 538.112C437.339 538.795 452.112 541.656 462.633 549.531C466.043 552.083 468.942 555.432 471.793 558.576C488.918 579.461 494.787 610.563 492.215 636.821C489.281 666.773 474.636 698.456 450.98 717.671L438.013 726.975L437.425 729.879C416.301 742.472 391.611 747.518 367.504 741.373C365.013 740.738 362.125 740.076 359.848 738.864L355.688 737.497C330.846 727.76 313.062 708.329 302.552 684.15Z"/>
	<path fill="#FBB21E" transform="scale(0.488281 0.488281)" d="M359.848 738.864L361.5 738.226L363 738.615C389.567 745.019 414.73 741.249 438.013 726.975L437.425 729.879C416.301 742.472 391.611 747.518 367.504 741.373C365.013 740.738 362.125 740.076 359.848 738.864Z"/>
	<path fill="#131011" transform="scale(0.488281 0.488281)" d="M394.194 570.692C406.164 570.029 418.187 573.083 427.851 580.351C440.855 590.131 448.436 605.035 450.569 620.981C452.785 637.555 447.617 656.201 437.35 669.341C426.722 682.943 413.286 691.287 396.121 693.332C383.149 693.861 371.924 691.059 361.484 683.065C349.391 673.806 341.637 659.12 339.789 644.085C337.491 625.385 342.38 607.18 354.167 592.414C364.515 579.45 377.831 572.544 394.194 570.692Z"/>
	<path fill="#5C6667" transform="scale(0.488281 0.488281)" d="M382.441 585.59C387.49 585.15 392.2 585.136 396.678 587.847C400.756 590.315 403.238 594.454 404.307 599.009C405.981 606.142 404.451 613.96 400.486 620.093C395.154 628.34 387.125 633.361 377.622 635.388C374.781 635.709 371.151 635.926 368.361 635.196L367.75 635.024C366.291 634.626 364.832 634.243 363.485 633.534C359.8 631.596 357.222 628.142 356.013 624.215C354.011 617.715 355.747 610.351 358.91 604.5C364.044 595.001 372.144 588.631 382.441 585.59Z"/>
</svg>
