<?xml version="1.0" encoding="utf-8" ?>
<svg xmlns="http://www.w3.org/2000/svg" xmlns:xlink="http://www.w3.org/1999/xlink" width="500" height="500">
	<path fill="#FEFEFE" transform="scale(0.488281 0.488281)" d="M-0 -0L1024 0L1024 1024L-0 1024L0 -0Z"/>
	<path fill="#F8A81B" transform="scale(0.488281 0.488281)" d="M227.549 568.646L243.656 568.367L254.139 604.788L263.843 628.007L277.613 652.857L283.94 662.506C284.977 664.016 286.7 666.128 287.294 667.84C280.87 671.861 273.763 673.184 266.431 674.525L266.308 674.475C262.082 674.012 257.362 674.416 253.107 674.534L225.198 675.997C188.072 678.693 150.783 683.172 114.252 690.359L46.7948 705.918C56.7158 701.023 66.027 694.991 75.4785 689.264L123.197 658.119C142.841 643.998 161.484 628.48 179.606 612.475L212.397 582.136C217.003 577.991 221.803 573.286 226.965 569.84L227.75 569.327L227.549 568.646Z"/>
	<path fill="#FCD060" transform="scale(0.488281 0.488281)" d="M254.139 604.788L263.843 628.007C243.525 635.647 222.75 640.693 202.097 647.172L155.163 661.79C150.804 663.158 145.099 666.162 140.584 666.347C142.457 664.309 148.732 662.723 151.5 661.505L175.341 650.091L223.5 623.515C233.697 617.306 243.537 610.274 254.139 604.788Z"/>
	<path fill="#F8A81B" transform="scale(0.488281 0.488281)" d="M569.069 235.532L569.437 234.878C570.45 232.993 570.883 230.722 571.68 228.719C573.571 223.969 576.011 219.444 578.812 215.171C589.65 198.636 604.594 185.335 618.07 171.037C632.38 155.852 645.658 139.607 657.98 122.777C671.178 104.754 682.612 85.5911 694.337 66.608L702.479 53.1352C703.878 50.7277 705.151 47.898 706.917 45.7528C696.196 89.5247 684.147 132.672 679.19 177.622C677.698 191.147 677.166 204.844 676.945 218.444C676.801 227.346 677.07 236.443 676.2 245.301C675.536 252.069 674.387 259.038 672.129 265.472C671.193 268.139 668.179 272.337 668.154 274.791C667.367 275.834 666.662 276.764 665.63 277.587L665.207 277.438L661.1 282.848L628.408 265.05L628.446 266.86L605.409 257.838C605.503 256.839 605.375 256.485 605.062 255.558C593.264 250.479 579.73 247.487 567.249 244.446C567.698 241.592 568.097 238.236 569.069 235.532Z"/>
	<path fill="#FCD060" transform="scale(0.488281 0.488281)" d="M605.062 255.558L606.435 255.227L661.967 147.385C659.228 158.031 655.045 168.399 651.791 178.912C648.76 188.702 627.392 261.928 628.408 265.05L628.446 266.86L605.409 257.838C605.503 256.839 605.375 256.485 605.062 255.558Z"/>
	<path fill="#ED6F0E" transform="scale(0.488281 0.488281)" d="M465.446 780.228L495.447 784.129L526.644 784.503C537.91 783.842 549.786 783.573 560.793 780.9C562.621 784.002 566.847 789.915 566.765 793.463C566.185 802.513 563.231 811.915 560.504 820.5L549.337 853.437L538.066 889.746C526.153 931.447 518.198 974.294 512.481 1017.25L505.183 971.075C499.863 942.364 492.983 914.093 484.834 886.06L466.689 830.392L456.208 791.17L465.446 780.228Z"/>
	<path fill="#F8A81B" transform="scale(0.488281 0.488281)" d="M495.447 784.129L526.644 784.503L512.556 891.802L495.447 784.129Z"/>
	<path fill="#F8A81B" transform="scale(0.488281 0.488281)" d="M361.529 282.998C358.918 279.767 355.772 276.387 353.858 272.683C351.977 269.042 350.947 264.409 350.087 260.43C348.004 250.799 348.101 240.621 347.491 230.811L344.486 193.5C341.834 167.374 337.472 141.73 332.499 115.963C327.968 92.4859 323.004 68.6682 315.979 45.7918L330.651 70.0103C342.607 89.4047 354.87 108.918 368.52 127.172L404.327 170.82L434.058 203.546C441.123 211.91 450.121 221.594 454.225 231.817L455.451 234.874L455.905 226.943C455.971 230.324 455.929 233.767 456.194 237.137C456.377 239.457 457.305 242.328 457.124 244.609L418.853 256.185L417.673 257.514L418.007 258.436L416.736 258.949C413.072 258.095 410.392 259.822 407.078 261.16L394.623 266.018L374.12 276.61C370.358 278.738 366.464 281.769 362.511 283.407L361.529 282.998Z"/>
	<path fill="#FCD060" transform="scale(0.488281 0.488281)" d="M394.623 266.018L357.67 146.675L418.853 256.185L417.673 257.514L418.007 258.436L416.736 258.949C413.072 258.095 410.392 259.822 407.078 261.16L394.623 266.018Z"/>
	<path fill="#F8A81B" transform="scale(0.488281 0.488281)" d="M662.216 741.84L663.754 741.306C666.495 744.359 669.052 747.644 671.997 750.503C673.808 752.26 676.297 753.74 677.757 755.796L677.978 756.293C678.425 757.119 680.077 758.4 680.28 759.052C680.386 759.393 679.787 761.487 679.701 761.917L678.08 770.61C674.938 789.662 676.397 810.401 678.07 829.548C681.726 871.375 690.538 912.314 701.302 952.815L708.707 980.829L690.413 950.641L662.953 908.791C647.296 886.605 630.417 864.778 612.102 844.738L583.281 815.287C579.411 810.931 575.81 806.296 572.449 801.54C570.568 798.879 568.951 795.876 566.765 793.463C566.847 789.915 562.621 784.002 560.793 780.9C573.462 779.354 586.335 775.787 598.504 772.064L607.215 768.854C610.546 767.065 614.694 765.712 618.245 764.25C621.388 762.956 624.405 761.281 627.602 760.145C631.744 758.823 635.883 756.438 639.757 754.471C647.432 750.576 654.941 746.446 662.216 741.84Z"/>
	<path fill="#FCD060" transform="scale(0.488281 0.488281)" d="M607.215 768.854C610.546 767.065 614.694 765.712 618.245 764.25C621.388 762.956 624.405 761.281 627.602 760.145C629.865 765.095 631.467 770.363 633.297 775.487L646.595 817L659.851 862.057L665.668 880.568L665.583 880.747L607.215 768.854Z"/>
	<path fill="#ED6F0E" transform="scale(0.488281 0.488281)" d="M227.549 568.646C221.474 568.359 215.04 566.271 209.229 564.558C191.968 559.469 175.389 552.474 158.525 546.255L122.061 534.208L67 520.033L15.3045 511.064L47.0802 506.586C78.859 501.454 110.482 493.751 141 483.484L181.046 468.592C196.745 462.538 214.027 455.504 230.953 454.385C234.428 454.612 240.876 454.191 243.863 455.424C241.184 465.477 239.271 476.444 238.916 486.839L238.394 493.469L238.393 529.443L240.579 552.03C241.235 557.374 241.908 563.256 243.656 568.367L227.549 568.646Z"/>
	<path fill="#F8A81B" transform="scale(0.488281 0.488281)" d="M238.393 529.443C236.286 528.713 233.837 528.436 231.654 527.923L216.748 524.518C199.209 520.67 181.581 517.49 163.741 515.373L117.781 511.15C121.464 510.495 125.357 510.566 129.097 510.422L147.194 509.419C172.175 507.37 196.966 504.351 221.357 498.436L231.678 495.808C233.603 495.301 235.983 494.912 237.705 493.896L238.394 493.469L238.393 529.443Z"/>
	<path fill="#ED6F0E" transform="scale(0.488281 0.488281)" d="M787.445 456.665C794.079 453.43 801.194 455.659 808 457.385L829.305 463.779L860.751 475.82C880.893 483.243 901.742 489.93 922.556 495.16L978.056 506.647L999.06 509.852C1001.42 510.176 1006.03 510.099 1007.92 511.307C1003.98 512.314 999.904 512.623 995.895 513.25L975.6 516.943C946.027 522.93 917.113 529.605 888.414 539.074L847.347 553.79C834.671 558.457 822.108 563.519 808.825 566.233C804.718 567.072 800.332 568.101 796.13 568.129L782.135 561.391C784.25 550.791 785.329 539.801 785.549 528.997L785.772 523.058L785.825 499.355L785.671 495.452C785.347 483.343 783.127 471.144 781.03 459.244L787.445 456.665Z"/>
	<path fill="#F8A81B" transform="scale(0.488281 0.488281)" d="M785.671 495.452L786.036 495.883C787.828 497.448 794.295 498.03 796.75 498.529C821.119 503.486 845.949 506.323 870.734 508.247L906.663 510.741C896.163 512.647 885.269 513.063 874.656 514.355L798.512 525.939C795.072 526.629 788.314 527.131 785.549 528.997L785.772 523.058L785.825 499.355L785.671 495.452Z"/>
	<path fill="#F8A81B" transform="scale(0.488281 0.488281)" d="M770.419 602.029C775.683 589.705 778.593 575.503 781.814 562.503C786.536 564.037 791.44 566.617 795.988 568.733C817.533 581.782 833.985 600.297 852.189 617.398C865.438 629.846 879.159 641.095 893.479 652.279C915.705 669.636 940.195 684.168 964.276 698.746C970.809 702.701 978.274 705.686 984.496 709.992C963.989 702.579 942.654 697.287 921.328 692.852C894.711 687.317 867.936 683.199 840.892 680.45L791.29 676.52C778.969 675.855 766.449 675.783 754.179 674.485C752.975 674.357 752.556 674.178 751.608 673.484C748.315 670.006 743.966 667.151 740.164 664.239C747.906 653.354 754.363 640.176 760.007 628.066L770.419 602.029Z"/>
	<path fill="#FCD060" transform="scale(0.488281 0.488281)" d="M770.419 602.029L877.546 664.77C873.118 663.58 868.896 661.715 864.592 660.14L836.849 649.936C816.85 642.881 796.884 637.498 776.28 632.573C771.207 631.36 764.604 630.383 760.007 628.066L770.419 602.029Z"/>
	<path fill="#F8A81B" transform="scale(0.488281 0.488281)" d="M230.953 454.385C230.685 453.585 230.147 453.249 229.404 452.88C223.634 450.009 218.455 445.851 213.338 441.96C200.082 431.881 187.901 420.774 175.438 409.757L138.296 378.603C116.556 361.29 93.6123 345.034 70.1217 330.185L44.4375 314.933C47.689 315.208 51.2645 316.716 54.4934 317.486L84.8392 324.819L144.25 336.978C168.415 341.255 192.769 344.366 217.259 346.021C230.955 346.946 245.453 346.039 258.963 348.368C266.33 349.639 272.423 351.319 278.677 355.596L284.282 360.16L273.381 378.356L266.326 391.784L255.91 415.369L243.863 455.424C240.876 454.191 234.428 454.612 230.953 454.385Z"/>
	<path fill="#FCD060" transform="scale(0.488281 0.488281)" d="M255.91 415.369L138.75 357.338L139 357.107L266.326 391.784L255.91 415.369Z"/>
	<path fill="#F8A81B" transform="scale(0.488281 0.488281)" d="M741.661 356.168C749.052 352.029 755.809 346.654 764.259 345.127C776.204 342.968 788.244 343.352 800.328 343.4L841.692 342.597C889.129 339.435 935.973 327.568 981.576 314.744C950.778 332.424 920.537 350.234 892.11 371.635C876.384 383.474 861.65 397.35 847.136 410.641C829.274 426.999 810.116 447.937 786.774 455.988C784.829 456.354 782.625 457.647 780.785 458.446C780.221 453.983 778.905 449.356 777.807 444.984C775.834 437.129 773.579 429.314 770.417 421.847C770.001 419.524 768.383 416.598 767.398 414.439L755.921 388.032L745.238 369.137C743.155 365.522 741.081 361.552 738.398 358.35C739.376 357.486 740.553 356.856 741.661 356.168Z"/>
	<path fill="#FCD060" transform="scale(0.488281 0.488281)" d="M755.921 388.032C759.546 388.203 763.378 388.619 767 388.39C772.204 388.06 777.889 386.651 782.959 385.417L812.502 377.293L858.348 365.548C864.807 363.984 871.486 361.467 878.1 360.864L767.398 414.439L755.921 388.032Z"/>
	<path fill="#F8A81B" transform="scale(0.488281 0.488281)" d="M357.804 735.243C370.291 743.027 383.177 751.323 396.633 757.304L416.43 766.153C432.396 772.542 448.753 776.354 465.446 780.228L456.208 791.17C452.669 794.714 449.644 799.33 446.613 803.338L431.055 823.004L391.15 868.924C375.371 888.073 360.897 908.295 347.18 928.952L326.419 962.663C322.92 968.672 319.88 975.142 315.765 980.749C321.846 960.384 326.032 939.373 330.022 918.51L343.838 831.591L348.199 789.613L350.275 770.066C350.509 767.771 351.252 764.482 350.746 762.312L350.554 761.756C351.78 759.369 352.064 755.634 352.713 752.962C354.167 746.983 355.625 741.007 357.804 735.243Z"/>
	<path fill="#FCD060" transform="scale(0.488281 0.488281)" d="M396.633 757.304L416.43 766.153C414.374 771.643 410.932 776.951 408.244 782.184L385.992 824.464L363.71 867.312L355.155 884.397C355.885 880.3 357.697 876.229 358.957 872.25L366.55 847.799L383.764 792.196L396.633 757.304Z"/>
	<path fill="#ED6F0E" transform="scale(0.488281 0.488281)" d="M711.698 700.531C722.138 690.162 731.813 677.542 739.671 665.144L751.004 673.926C773.073 695.449 783.184 723.857 795.781 751.184C803.067 766.99 810.993 782.77 819.772 797.804C829.708 814.821 840.91 831.205 852.232 847.33L861.795 860.202C863.248 862.128 865.235 864.252 866.232 866.448C844.452 848.939 821.326 832.281 797.295 817.982L751.931 793.937C727.311 781.708 699.653 772.822 677.757 755.796C676.297 753.74 673.808 752.26 671.997 750.503C669.052 747.644 666.495 744.359 663.754 741.306L689.043 722.07L711.698 700.531Z"/>
	<path fill="#F8A81B" transform="scale(0.488281 0.488281)" d="M689.043 722.07L711.698 700.531C719.753 706.379 726.4 714.572 733.197 721.795L756.75 747.292L794.137 791.5L793.75 792.245C790.952 790.151 788.571 787.403 786 785.027L775.624 776.26C766.964 769.478 757.607 763.574 748.516 757.393C734.393 747.791 720.569 737.994 705.478 729.904C700.137 727.042 694.806 724.005 689.043 722.07Z"/>
	<path fill="#ED6F0E" transform="scale(0.488281 0.488281)" d="M278.866 355.049C272.877 350.637 268.387 345.102 264.305 338.924C254.911 324.705 247.684 308.774 239.939 293.611L201.418 222C188.263 199.607 173.591 178.266 158.189 157.373C179.287 174.73 202.313 190.998 226.12 204.451L298.215 241.099C315.176 249.609 333.421 258.396 348.283 270.274C353.336 274.314 357.148 278.824 361.023 283.968L332.612 305.517L307.411 330.774L284.732 359.273C282.852 357.884 280.91 356.158 278.866 355.049Z"/>
	<path fill="#F8A81B" transform="scale(0.488281 0.488281)" d="M307.411 330.774C302.991 326.301 299.276 320.272 295.605 315.136L280.228 294.171L246.131 249.239L220.354 219.334C222.21 220.103 224.14 222.381 225.684 223.741L235.591 231.936L282.408 269.12L332.612 305.517L307.411 330.774Z"/>
	<path fill="#ED6F0E" transform="scale(0.488281 0.488281)" d="M668.154 274.791C672.358 270.973 676.549 266.938 681.141 263.597C706.876 244.869 738.752 237.336 766.59 222.431C802.494 203.207 836.401 180.023 869.153 155.877C841.474 189.679 815.818 226.213 797.343 265.937C787.269 287.599 780.809 311.56 767.517 331.599C763.928 337.01 759.518 343.745 754.3 347.712C750.217 350.816 745.089 353.198 740.559 355.629C739.416 356.14 738.812 356.483 737.519 356.456L719.285 333.389L708.15 321.313L692.3 305.63L662.154 283.073L665.364 278.106L665.63 277.587C666.662 276.764 667.367 275.834 668.154 274.791Z"/>
	<path fill="#F8A81B" transform="scale(0.488281 0.488281)" d="M692.3 305.63L792.35 230.809L719.285 333.389L708.15 321.313L692.3 305.63Z"/>
	<path fill="#ED6F0E" transform="scale(0.488281 0.488281)" d="M287.294 667.84L306.9 691.477L331.549 715.616L357.804 735.243C355.625 741.007 354.167 746.983 352.713 752.962C352.064 755.634 351.78 759.369 350.554 761.756C304.588 777.023 260.743 797.365 219.496 822.769C197.833 836.112 176.57 850.877 157.108 867.282C165.23 857.18 172.466 846.444 179.714 835.711C197.381 809.548 213.684 781.997 227.75 753.72L255.29 694.67L266.308 674.475L266.431 674.525C273.763 673.184 280.87 671.861 287.294 667.84Z"/>
	<path fill="#F8A81B" transform="scale(0.488281 0.488281)" d="M306.9 691.477L331.549 715.616C329.651 716.757 327.865 718.514 326.073 719.848L312.526 729.748L277.988 756.556L211.507 813.533L211.132 813.5L306.9 691.477Z"/>
	<path fill="#ED6F0E" transform="scale(0.488281 0.488281)" d="M455.905 226.943C456.786 211.448 462.645 196.379 467.883 181.899L479.567 149.099L494.842 98.7382C500.917 75.6128 504.884 52.2944 508.59 28.6963C509.982 19.8299 510.773 10.7937 512.54 2.00103C516.999 39.2353 523.412 76.1069 533.549 112.246L545.576 149.69L558.798 187.234C563.979 202.625 569.286 219.12 569.069 235.532C568.097 238.236 567.698 241.592 567.249 244.446C553.956 241.307 540.567 239.799 526.947 239.193L494.729 239.498C482.065 239.928 469.523 242.134 457.124 244.609C457.305 242.328 456.377 239.457 456.194 237.137C455.929 233.767 455.971 230.324 455.905 226.943Z"/>
	<path fill="#F8A81B" transform="scale(0.488281 0.488281)" d="M494.729 239.498L497.75 238.796C498.375 237.131 498.303 235.033 498.466 233.25L499.612 223.249L504.139 186.024C507.141 162.915 510.374 140.044 511.727 116.75L512.25 116.56L526.947 239.193L494.729 239.498Z"/>
	<path fill="#FDE410" transform="scale(0.488281 0.488281)" d="M494.729 239.498L526.947 239.193C540.567 239.799 553.956 241.307 567.249 244.446C579.73 247.487 593.264 250.479 605.062 255.558C605.375 256.485 605.503 256.839 605.409 257.838L628.446 266.86L628.408 265.05L661.1 282.848L665.207 277.438L665.63 277.587L665.364 278.106L662.154 283.073L692.3 305.63L708.15 321.313L719.285 333.389L737.519 356.456C738.812 356.483 739.416 356.14 740.559 355.629L741.661 356.168C740.553 356.856 739.376 357.486 738.398 358.35C741.081 361.552 743.155 365.522 745.238 369.137L755.921 388.032L767.398 414.439C768.383 416.598 770.001 419.524 770.417 421.847C773.579 429.314 775.834 437.129 777.807 444.984C778.905 449.356 780.221 453.983 780.785 458.446C782.625 457.647 784.829 456.354 786.774 455.988L787.445 456.665L781.03 459.244C783.127 471.144 785.347 483.343 785.671 495.452L785.825 499.355L785.772 523.058L785.549 528.997C785.329 539.801 784.25 550.791 782.135 561.391L796.13 568.129L795.988 568.733C791.44 566.617 786.536 564.037 781.814 562.503C778.593 575.503 775.683 589.705 770.419 602.029L760.007 628.066C754.363 640.176 747.906 653.354 740.164 664.239C743.966 667.151 748.315 670.006 751.608 673.484L751.004 673.926L739.671 665.144C731.813 677.542 722.138 690.162 711.698 700.531L689.043 722.07L663.754 741.306L662.216 741.84C654.941 746.446 647.432 750.576 639.757 754.471C635.883 756.438 631.744 758.823 627.602 760.145C624.405 761.281 621.388 762.956 618.245 764.25C614.694 765.712 610.546 767.065 607.215 768.854L598.504 772.064C586.335 775.787 573.462 779.354 560.793 780.9C549.786 783.573 537.91 783.842 526.644 784.503L495.447 784.129L465.446 780.228C448.753 776.354 432.396 772.542 416.43 766.153L396.633 757.304C383.177 751.323 370.291 743.027 357.804 735.243L331.549 715.616L306.9 691.477L287.294 667.84C286.7 666.128 284.977 664.016 283.94 662.506L277.613 652.857L263.843 628.007L254.139 604.788L243.656 568.367C241.908 563.256 241.235 557.374 240.579 552.03L238.393 529.443L238.394 493.469L238.916 486.839C239.271 476.444 241.184 465.477 243.863 455.424L255.91 415.369L266.326 391.784L273.381 378.356L284.282 360.16L278.677 355.596L278.866 355.049C280.91 356.158 282.852 357.884 284.732 359.273L307.411 330.774L332.612 305.517L361.023 283.968L361.529 282.998L362.511 283.407C366.464 281.769 370.358 278.738 374.12 276.61L394.623 266.018L407.078 261.16C410.392 259.822 413.072 258.095 416.736 258.949L418.007 258.436L417.673 257.514L418.853 256.185L457.124 244.609C469.523 242.134 482.065 239.928 494.729 239.498Z"/>
	<path fill="#FCFA5B" transform="scale(0.488281 0.488281)" d="M783.93 494.378C784.731 495.649 784.913 496.448 785.141 497.922C785.27 498.752 785.218 498.441 785.638 499.403L785.825 499.355L785.772 523.058C785.11 523.333 785.451 523.258 784.75 523.291L784.355 519.786L783.93 494.378Z"/>
	<path fill="#FCFA5B" transform="scale(0.488281 0.488281)" d="M706.512 322.605L708.15 321.313L719.285 333.389L737.519 356.456C738.812 356.483 739.416 356.14 740.559 355.629L741.661 356.168C740.553 356.856 739.376 357.486 738.398 358.35L737.083 359.872C728.444 346.497 717.161 334.417 706.512 322.605Z"/>
	<path fill="#FCFA5B" transform="scale(0.488281 0.488281)" d="M628.408 265.05L661.1 282.848L665.207 277.438L665.63 277.587L665.364 278.106L662.154 283.073L692.3 305.63L708.15 321.313L706.512 322.605C689.757 305.812 671.644 291.395 651.273 279.19L636.399 271.082C634.025 269.854 631.396 268.804 629.17 267.345L628.446 266.86L628.408 265.05Z"/>
	<path fill="#FCFA5B" transform="scale(0.488281 0.488281)" d="M738.398 358.35C741.081 361.552 743.155 365.522 745.238 369.137L755.921 388.032L767.398 414.439C768.383 416.598 770.001 419.524 770.417 421.847C773.579 429.314 775.834 437.129 777.807 444.984C778.905 449.356 780.221 453.983 780.785 458.446C782.625 457.647 784.829 456.354 786.774 455.988L787.445 456.665L781.03 459.244C783.127 471.144 785.347 483.343 785.671 495.452L785.825 499.355L785.638 499.403C785.218 498.441 785.27 498.752 785.141 497.922C784.913 496.448 784.731 495.649 783.93 494.378C783.644 494.23 783.537 492.016 783.473 491.5C780.779 469.829 776.929 447.912 770.246 427.071C765.412 414.48 760.391 401.964 754.215 389.956L737.083 359.872L738.398 358.35Z"/>
	<path fill="#FCFA5B" transform="scale(0.488281 0.488281)" d="M494.729 239.498L526.947 239.193C540.567 239.799 553.956 241.307 567.249 244.446C579.73 247.487 593.264 250.479 605.062 255.558C605.375 256.485 605.503 256.839 605.409 257.838C594.631 254.953 584.244 250.927 573.311 248.413C534.616 239.512 492.273 239.209 453.562 248.044C441.357 250.83 429.93 254.829 418.007 258.436L417.673 257.514L418.853 256.185L457.124 244.609C469.523 242.134 482.065 239.928 494.729 239.498Z"/>
	<path fill="#FCFA5B" transform="scale(0.488281 0.488281)" d="M394.623 266.018L407.078 261.16C410.392 259.822 413.072 258.095 416.736 258.949C402.923 264.6 389.174 270.124 376.102 277.412C370.237 280.682 364.825 284.867 359.308 288.689C350.361 294.886 341.509 301.013 333.236 308.123C328.453 312.234 324.007 316.937 319.575 321.421C308.846 332.277 299.106 343.412 290.152 355.797C284.592 363.488 280.031 371.537 274.867 379.441C261.963 402.821 252.838 427.421 246.33 453.264L242.002 474.52C241.714 476.399 241.033 486.402 240.317 487.543L238.916 486.839C239.271 476.444 241.184 465.477 243.863 455.424L255.91 415.369L266.326 391.784L273.381 378.356L284.282 360.16L278.677 355.596L278.866 355.049C280.91 356.158 282.852 357.884 284.732 359.273L307.411 330.774L332.612 305.517L361.023 283.968L361.529 282.998L362.511 283.407C366.464 281.769 370.358 278.738 374.12 276.61L394.623 266.018Z"/>
	<path fill="#FCFA5B" transform="scale(0.488281 0.488281)" d="M660.43 740.165L689.065 718.712C707.516 702.314 724.202 683.968 737.855 663.363C741.608 657.699 744.668 651.522 747.942 645.576C769.578 606.283 781.749 564.587 784.355 519.786L784.75 523.291C785.451 523.258 785.11 523.333 785.772 523.058L785.549 528.997C785.329 539.801 784.25 550.791 782.135 561.391L796.13 568.129L795.988 568.733C791.44 566.617 786.536 564.037 781.814 562.503C778.593 575.503 775.683 589.705 770.419 602.029L760.007 628.066C754.363 640.176 747.906 653.354 740.164 664.239C743.966 667.151 748.315 670.006 751.608 673.484L751.004 673.926L739.671 665.144C731.813 677.542 722.138 690.162 711.698 700.531L689.043 722.07L663.754 741.306L662.216 741.84C661.628 741.149 661.137 740.716 660.43 740.165Z"/>
	<path fill="#FCFA5B" transform="scale(0.488281 0.488281)" d="M238.916 486.839L240.317 487.543C239.751 495.476 239.034 503.564 239.133 511.522C239.651 552.851 248.837 594.178 267.25 631.272C277.4 651.721 290.328 670.233 305.25 687.46C326.499 711.992 352.874 731.85 381.25 747.402C416.049 766.474 454.198 779.477 493.991 782.285C495.737 782.408 497.671 782.244 499.375 782.621C502.284 783.265 506.009 782.839 509.051 782.859C522.762 782.95 537.284 782.68 550.75 780.376C552.049 780.154 553.174 780.183 554.5 779.878C559.625 778.698 565.161 778.29 570.376 777.237C579.23 775.447 587.876 772.913 596.554 770.435L613.25 764.359C629.688 757.592 645.361 749.592 660.43 740.165C661.137 740.716 661.628 741.149 662.216 741.84C654.941 746.446 647.432 750.576 639.757 754.471C635.883 756.438 631.744 758.823 627.602 760.145C624.405 761.281 621.388 762.956 618.245 764.25C614.694 765.712 610.546 767.065 607.215 768.854L598.504 772.064C586.335 775.787 573.462 779.354 560.793 780.9C549.786 783.573 537.91 783.842 526.644 784.503L495.447 784.129L465.446 780.228C448.753 776.354 432.396 772.542 416.43 766.153L396.633 757.304C383.177 751.323 370.291 743.027 357.804 735.243L331.549 715.616L306.9 691.477L287.294 667.84C286.7 666.128 284.977 664.016 283.94 662.506L277.613 652.857L263.843 628.007L254.139 604.788L243.656 568.367C241.908 563.256 241.235 557.374 240.579 552.03L238.393 529.443L238.394 493.469L238.916 486.839Z"/>
	<path fill="#ED6F0E" transform="scale(0.488281 0.488281)" d="M504.554 286.848C508.177 286.457 511.919 286.774 515.559 286.894L532.914 287.799C579.452 292.146 622.443 309.848 658.824 339.044C672.744 350.215 686.017 364.149 695.987 378.956C704.483 391.967 712.406 404.687 718.79 418.906C737.687 460.994 742.951 511.278 733.55 556.459C721.31 615.293 685.201 667.62 634.892 700.36C584.342 733.256 522.422 742.872 463.671 730.318C433.624 723.898 404.692 711.488 379.23 694.332C376.415 693.338 372.605 689.649 370.2 687.806C335.378 661.11 310.031 623.611 296.351 582.059C293.234 572.591 290.323 562.593 289.02 552.696C287.108 544.314 286.573 534.99 285.914 526.408C285.052 515.201 285.556 504.1 286.545 492.925C290.783 445.051 309.929 401 341.205 364.652C374.446 326.021 421.152 299.693 471.153 290.473C482.146 288.446 493.422 287.672 504.554 286.848Z"/>
	<path fill="#F8A81B" transform="scale(0.488281 0.488281)" d="M289.02 552.696C296.184 544.388 303.419 536.302 312.596 530.125C323.248 522.955 337.152 519.154 349.875 518.22C356.41 517.74 363.086 518.108 369.516 519.362C372.172 519.88 374.817 520.013 377.448 520.733C397.289 526.16 414.251 537.788 425.95 554.75C439.858 574.915 445.077 599.787 440.466 623.836C435.983 647.216 421.152 669.106 401.432 682.306L379.23 694.332C376.415 693.338 372.605 689.649 370.2 687.806C335.378 661.11 310.031 623.611 296.351 582.059C293.234 572.591 290.323 562.593 289.02 552.696Z"/>
	<path fill="#F8A81B" transform="scale(0.488281 0.488281)" d="M504.554 286.848C508.177 286.457 511.919 286.774 515.559 286.894L532.914 287.799C579.452 292.146 622.443 309.848 658.824 339.044C672.744 350.215 686.017 364.149 695.987 378.956C692.78 385.682 689.857 392.384 685.923 398.75C674.155 417.789 655.564 432.864 634.424 440.25C629.554 441.951 624.551 443.25 619.537 444.449C617.151 445.019 613.721 445.304 611.57 446.384C621.668 457.027 628.816 466.95 632.12 481.5C633.492 487.543 633.467 493.911 632.863 500.057C631.363 515.328 622.692 530.753 610.703 540.323C597.39 550.95 581.024 554.832 564.281 552.753C549.167 550.876 533.232 541.718 523.953 529.686C514.31 517.182 510.179 500.418 512.284 484.827C514.687 467.03 525.165 453.132 539.068 442.416C530.598 438.641 522.288 434.224 514.868 428.629C494.153 413.008 482.296 389.937 478.878 364.536C475.962 342.873 481.998 319.565 493.645 301.284C496.918 296.146 500.893 291.684 504.554 286.848Z"/>
</svg>
