<?xml version="1.0" encoding="utf-8" ?>
<svg xmlns="http://www.w3.org/2000/svg" xmlns:xlink="http://www.w3.org/1999/xlink" width="500" height="500">
	<path fill="#5FA89A" transform="scale(0.488281 0.488281)" d="M-0 -0L1024 0L1024 1024L-0 1024L0 -0Z"/>
	<path fill="#24162C" transform="scale(0.488281 0.488281)" d="M592.793 98.6925C594.566 98.0661 598.245 98.3858 599.902 99.1981L600.5 99.5154C605.251 101.98 609.089 106.331 612.899 110.018L632.538 129.019C636.018 132.358 639.49 136.165 643.39 139C646.597 141.33 651.415 142.658 655.087 144.385L682.968 158.249C704.451 169.922 725.069 184.361 743.072 200.926C747.622 205.112 752.361 209.251 756.344 213.99C761.081 219.629 765.1 225.96 769.186 232.078L791.032 267.699C815.676 311.585 835.183 358.687 851.877 406.105C871.944 463.103 888.125 521.969 901.785 580.815C913.181 629.906 923.304 679.104 929.933 729.09C931.832 743.408 933.77 757.724 934.54 772.156C935.155 783.69 935.233 795.089 931.825 806.25C931.409 807.611 930.918 808.856 931.058 810.31C931.692 816.88 933.825 823.901 935.209 830.376L941.75 863.659C942.498 867.727 943.76 872.163 943.566 876.304C943.44 878.984 942.379 881.741 940.957 884C938.404 888.053 932.083 891.289 928.006 893.589C915.601 900.587 902.569 906.036 889.239 910.987C879.851 914.475 870.257 917.836 860.509 920.173C854.862 921.527 848.426 921.81 843.75 917.767C842.197 916.425 841.1 914.609 840.25 912.761C837.159 906.037 834.915 898.601 832.372 891.65L818.495 855.911C817.393 853.248 816.242 848.574 814.614 846.436C814.072 845.724 811.093 844.49 810.188 843.964C800.176 838.149 794.702 828.706 790.296 818.291C782.081 798.874 779.131 777.292 774.863 756.75L756.049 665C752.87 648.997 750.265 632.406 746.115 616.657C745.877 620.552 746.515 624.666 746.806 628.566L748.349 651.027L751.567 745.927C751.512 758.999 751.257 772.009 749.621 784.999C749.114 789.029 748.76 793.108 747.794 797.061C747.374 798.778 747.049 800.588 746.442 802.25C745.849 803.873 744.82 805.468 744.436 807.145C743.504 811.213 744.13 817.051 744.06 821.268C743.816 836.123 744.278 851.314 743.233 866.111C742.883 871.054 741.304 874.716 737.396 877.875C733.767 880.807 729.12 882.568 724.846 884.325L705.442 891.848C680.149 901.214 654.009 907.329 627.5 912.015C565.444 922.986 501.252 924.051 438.548 918.138C390.979 913.304 340.664 905.706 297.765 883.408C292.155 880.493 285.98 877.602 281.03 873.652L280.375 820.369L280.192 807.065C280.169 805.413 280.477 803.433 280.249 801.853C279.791 798.675 276.876 794.726 275.612 791.605C272.009 782.713 271.249 772.527 271.031 763.015L271.407 739.059L273.758 661.567C274.069 651.85 275.022 641.945 274.795 632.25C274.672 632.314 274.498 632.324 274.427 632.443C273.559 633.891 273.26 637.935 272.849 639.742L264.564 677.207L249.371 753.339L242.378 789.201C240.316 799.584 238.413 810.708 234.473 820.562C231.775 827.309 227.824 833.692 222.613 838.788C219.695 841.642 214.52 844.127 212.258 847.258C211.171 848.761 210.546 850.785 209.887 852.515L187.86 907.753C185.821 912.57 183.923 919.643 180.618 923.625C178.406 924.953 175.747 924.813 173.294 924.2C148.271 917.956 122.371 907.066 100.198 893.952C93.7232 890.122 85.1522 885.331 81.3924 878.561C79.8855 875.848 79.2955 873.139 79.5001 870.059C79.9402 863.433 82.6158 856.173 84.155 849.67L94.9428 804.922L94.0846 803.681C91.6453 800.303 90.8415 797.767 90.2392 793.63C89.1456 786.118 89.8503 778.423 90.3149 770.881C91.7945 746.863 95.8239 723.424 99.6015 699.701C109.705 636.253 123.782 573.528 140.468 511.5L157.504 450.5C172.168 402.071 189.934 354.326 211.423 308.5C225.197 279.127 240.871 249.851 260.539 223.952C284.949 191.808 319.618 169.104 355.5 151.551L372.091 143.768C375.242 142.408 380.753 141.215 383.274 139.197C386.095 136.939 388.697 133.134 391.204 130.419L409.775 111.826C414.932 107 421.175 100.113 428.5 99.0439C432.435 98.4694 436.848 99.6818 440.74 100.238L460.288 102.813L494.274 105.78C527.661 107.375 559.794 103.182 592.793 98.6925Z"/>
	<path fill="#952122" transform="scale(0.488281 0.488281)" d="M593.386 109.75C594.195 109.872 593.759 109.742 594.657 110.25L591.55 123.794C591.396 119.451 590.667 114.504 591.323 110.25L593.386 109.75Z"/>
	<path fill="#DB503C" transform="scale(0.488281 0.488281)" d="M602.62 679.326L612.783 695.638L598.362 699.57L588.376 701.882L602.62 679.326Z"/>
	<path fill="#DB503C" transform="scale(0.488281 0.488281)" d="M425.098 678.75L425.967 678.548C429.081 681.411 431.729 687.337 434.029 691L442.614 703.495L433.841 701.318L414.08 695.552L425.098 678.75Z"/>
	<path fill="#952122" transform="scale(0.488281 0.488281)" d="M875.667 899.175C873.731 899.574 871.737 900.386 869.843 900.985L846.775 838.3L853.208 836.058L875.667 899.175Z"/>
	<path fill="#DB503C" transform="scale(0.488281 0.488281)" d="M425.397 112.265C425.601 114.856 426.746 120.224 426.133 122.554C425.888 123.488 395.402 156.316 393 157.935L392.029 156.75L389.501 149.593L425.397 112.265Z"/>
	<path fill="#952122" transform="scale(0.488281 0.488281)" d="M434.451 110.529L450.536 113.567L449.468 151.75L449.008 152.125L448 151.934C445.734 149.713 444.387 146.466 443.07 143.601C438.253 133.12 435.419 122.006 434.451 110.529Z"/>
	<path fill="#952122" transform="scale(0.488281 0.488281)" d="M585.425 111.25L586.735 111.094L587.385 111.75C587.516 123.229 588.317 134.231 582.809 144.75C581.791 146.695 579.629 151.312 577.75 152.444C577.013 152.888 575.606 153.125 574.75 153.398L572.994 153.25C572.043 149.593 572.611 144.351 572.58 140.496L572.316 113.093L585.425 111.25Z"/>
	<path fill="#DB503C" transform="scale(0.488281 0.488281)" d="M599.15 111.793L635.221 151.191L632.142 159.519L630.911 162.25L630.25 162.438L626.961 158.691L606.203 133.924C603.87 131.077 600.193 127.465 598.562 124.276C598.37 123.9 598.523 121.906 598.535 121.5L599.15 111.793Z"/>
	<path fill="#DB503C" transform="scale(0.488281 0.488281)" d="M295.715 800.932L304.461 806.969L305.505 869.524L296.156 864.254L295.715 800.932Z"/>
	<path fill="#DB503C" transform="scale(0.488281 0.488281)" d="M597.455 129.897L629.029 166.747C629.307 168.894 624.64 175.847 623.432 178.038L622.497 179.495L621.75 179.491L593.391 143.72L597.455 129.897Z"/>
	<path fill="#952122" transform="scale(0.488281 0.488281)" d="M525.249 117.711C526.646 117.577 527.368 117.234 528.602 118L528.52 158.109L516.375 158.54L513.5 158.447C512.352 156.809 513.02 123.448 513.022 118.488L525.249 117.711Z"/>
	<path fill="#952122" transform="scale(0.488281 0.488281)" d="M493.352 117.402L509.186 118.444L508.999 158.594L493.316 158.049L493.352 117.402Z"/>
	<path fill="#DB503C" transform="scale(0.488281 0.488281)" d="M108.546 808.633L118.331 813.523L102.765 874.875C102.478 875.821 102.41 875.916 101.75 876.57L94.9144 871.332C94.754 867.279 96.3637 862.337 97.2817 858.362L101.629 839.258L108.546 808.633Z"/>
	<path fill="#952122" transform="scale(0.488281 0.488281)" d="M454.392 113.874L470.493 115.573L469.505 155.814L453.296 153.134L454.392 113.874Z"/>
	<path fill="#952122" transform="scale(0.488281 0.488281)" d="M688.046 818.122L698.656 814.253L697.055 877.608C693.888 878.617 690.489 880.242 687.244 880.811C686.635 870.676 686.854 860.307 687.07 850.156L687.815 830.806C688.018 827.626 689.272 820.913 688.046 818.122Z"/>
	<path fill="#DB503C" transform="scale(0.488281 0.488281)" d="M426.735 127.918L431.137 142.583L410.577 165.986C408.37 168.518 404.098 174.766 401.25 176.008L400.441 174.75C398.013 170.969 396.205 166.445 394.305 162.355L426.735 127.918Z"/>
	<path fill="#952122" transform="scale(0.488281 0.488281)" d="M474.518 115.892L489.988 117.043L489.514 157.847C484.529 157.341 477.733 157.558 473.062 156.092L474.518 115.892Z"/>
	<path fill="#DB503C" transform="scale(0.488281 0.488281)" d="M913.566 810.75L914.382 810.844C915.978 815.097 916.819 819.749 917.844 824.171L923.475 852.25C924.844 859.744 926.644 867.242 927.596 874.792C926.119 876.301 924.748 877.602 922.947 878.714C921.962 879.323 921.883 879.678 920.75 879.414L920.25 877.731L903.973 815.347L913.566 810.75Z"/>
	<path fill="#952122" transform="scale(0.488281 0.488281)" d="M546.654 116.25C547.741 116.151 547.569 116.214 548.414 116.75L548.311 156.486L534.75 157.871L533 157.897C531.559 156.283 532.291 121.709 532.288 117.165L546.654 116.25Z"/>
	<path fill="#952122" transform="scale(0.488281 0.488281)" d="M565.685 114.214C566.439 113.95 567.153 114.082 567.943 114.118C569.118 116.898 568.482 122.868 568.526 125.971L568.895 153.986L556.553 155.402L553 155.886C552.795 155.674 552.505 155.519 552.385 155.25C551.833 154.01 552.043 119.639 551.996 115.599L565.685 114.214Z"/>
	<path fill="#DB503C" transform="scale(0.488281 0.488281)" d="M591.561 147.84L620.195 183.058C619.051 187.172 614.42 192.332 611.806 195.75L610.75 196.573C607.055 193.406 603.776 187.286 600.929 183.201L583.998 159.125L591.561 147.84Z"/>
	<path fill="#DB503C" transform="scale(0.488281 0.488281)" d="M514.395 677.936L534.931 709.935C533.972 710.539 531.178 710.382 529.964 710.452L515.125 711.111L493.464 710.899L514.395 677.936Z"/>
	<path fill="#952122" transform="scale(0.488281 0.488281)" d="M727.984 798.25C728.649 798.347 728.297 798.225 728.982 798.75L727.975 865.723L717.993 869.75L717.257 869.618C716.796 867.403 717.105 865.002 717.188 862.752L717.532 850.993L718.977 803.357L727.984 798.25Z"/>
	<path fill="#DB503C" transform="scale(0.488281 0.488281)" d="M149.69 900.282L139.305 896.165L139.271 895.627C139.671 892.705 141.4 889.087 142.314 886.215C144.572 879.115 159.353 831.613 161.74 829.75L164.157 830.309L169.881 832.23C164.929 841.944 162.995 854.069 160.106 864.578L149.69 900.282Z"/>
	<path fill="#DB503C" transform="scale(0.488281 0.488281)" d="M443.492 162.097C446.274 165.013 449.006 167.972 452.181 170.471L452.783 170.94L439.356 195.419L433.182 206.943C432.264 208.628 431.411 210.678 430 212.002L428.665 211.026L416.584 199.267L443.492 162.097Z"/>
	<path fill="#DB503C" transform="scale(0.488281 0.488281)" d="M432.746 145.94L440.591 158.994L422.861 183.724L417.011 192.034C416.105 193.319 415.356 194.802 414 195.628L412.75 194.296L403.338 180.353L432.746 145.94Z"/>
	<path fill="#DB503C" transform="scale(0.488281 0.488281)" d="M581.567 162.138L607.808 200.382L596.546 211.174L595.25 212.402L594.25 212.216L571.778 171.49L581.567 162.138Z"/>
	<path fill="#DB503C" transform="scale(0.488281 0.488281)" d="M853.208 836.058L860.791 833.426C861.717 833.057 863.111 832.248 864.064 832.363L885.316 895.536L875.667 899.175L853.208 836.058Z"/>
	<path fill="#DB503C" transform="scale(0.488281 0.488281)" d="M688.046 818.122C689.272 820.913 688.018 827.626 687.815 830.806L687.07 850.156C686.854 860.307 686.635 870.676 687.244 880.811L675.98 884.42L674.175 823.028C678.296 820.844 683.588 819.638 688.046 818.122Z"/>
	<path fill="#952122" transform="scale(0.488281 0.488281)" d="M714.139 806.75L714.586 806.966C715.098 809.456 714.592 812.433 714.506 815L713.979 831.153L713.081 871.743L702.25 875.491L700.962 875.171C700.106 869.718 700.912 863.082 701.053 857.519L702.478 812.312L714.139 806.75Z"/>
	<path fill="#DB503C" transform="scale(0.488281 0.488281)" d="M568.674 173.793C571.669 178.151 573.97 183.423 576.483 188.109L591.09 215.655C588.815 218.73 582.227 221.884 578.816 223.902L574.103 226.669L557.916 180.189C559.276 179.052 561.233 178.379 562.799 177.527C564.831 176.423 566.757 175.085 568.674 173.793Z"/>
	<path fill="#DB503C" transform="scale(0.488281 0.488281)" d="M456.273 173.147L467.664 179.672L458.99 201.839L452.519 219C451.723 221.065 450.912 224.497 449.25 225.991L447.668 225.032L433.673 214.96L456.273 173.147Z"/>
	<path fill="#DB503C" transform="scale(0.488281 0.488281)" d="M552.755 181.75L554.272 181.701L564.752 211.838C566.544 217.334 568.674 222.951 569.842 228.61L556.136 234.276L551.049 236.025L541.212 185.626L552.755 181.75Z"/>
	<path fill="#952122" transform="scale(0.488281 0.488281)" d="M842.578 840.25L843.75 840.56L867.014 901.735L855.811 905.25L854.528 905.357C853.011 902.959 852.268 899.692 851.331 897.002L846.325 883.135L838.126 861.847C835.958 856.238 833.958 850.445 831.468 844.975L831.118 844.216L842.578 840.25Z"/>
	<path fill="#DB503C" transform="scale(0.488281 0.488281)" d="M471.118 181.145C475.229 183.191 479.852 184.435 484.248 185.717L476.633 218.742C475.457 224.381 474.825 230.765 473.047 236.184L468.843 234.486C464.488 232.861 456.92 230.611 453.33 227.626L471.118 181.145Z"/>
	<path fill="#DB503C" transform="scale(0.488281 0.488281)" d="M487.871 186.306L501.07 188.06L498.264 240.69L491.883 239.897L477.137 236.807L487.871 186.306Z"/>
	<path fill="#DB503C" transform="scale(0.488281 0.488281)" d="M535.51 186.696C536.649 186.449 536.656 186.377 537.671 186.922L546.708 237.324L535.469 239.402L525.991 240.67L523.928 188.02L535.51 186.696Z"/>
	<path fill="#DB503C" transform="scale(0.488281 0.488281)" d="M504.638 188.156L520.521 188.303L521.531 225.063C521.62 230.103 522.227 235.774 521.538 240.75L519.625 241.05L502.008 240.984L504.638 188.156Z"/>
	<path fill="#DB503C" transform="scale(0.488281 0.488281)" d="M898.903 817.25L900.3 817.17L917.197 881.874C914.069 883.401 909.477 886.461 906.118 886.866L905.382 885.25L885.482 823.581C886.608 822.642 888.276 822.131 889.615 821.533L898.903 817.25Z"/>
	<path fill="#DB503C" transform="scale(0.488281 0.488281)" d="M715.514 352.106L719.649 438.505C718.361 437.451 717.564 435.413 716.773 433.967L711.139 423.702L692.569 390.563C693.903 387.172 696.317 383.904 698.154 380.736L715.514 352.106Z"/>
	<path fill="#DB503C" transform="scale(0.488281 0.488281)" d="M880.945 825.25L881.415 825.322C883.047 826.053 900.274 882.143 902.01 888.814L889.411 894.129L867.254 830.914L880.945 825.25Z"/>
	<path fill="#DB503C" transform="scale(0.488281 0.488281)" d="M308.046 809.033L326.999 818.305L325.016 875.75C325.014 876.763 324.996 876.926 324.5 877.874C320.557 876.951 312.665 873.527 309.538 870.931L308.046 809.033Z"/>
	<path fill="#DB503C" transform="scale(0.488281 0.488281)" d="M122.33 815.343L138.097 821.292C137.459 826.281 134.756 832.056 133.326 837.004L119.59 884.25C119.31 885.376 119.556 885.397 118.5 886.042L105.465 879.038L122.33 815.343Z"/>
	<path fill="#DB503C" transform="scale(0.488281 0.488281)" d="M141.525 822.808L157.737 828.275L136.57 892.386C136.162 893.436 136.272 893.819 135.25 894.38L122.811 888.264L141.525 822.808Z"/>
	<path fill="#DB503C" transform="scale(0.488281 0.488281)" d="M330.578 819.207L350.05 825.61L345.456 883.039L345.392 884.5L344.75 884.996L328.478 879.456L330.578 819.207Z"/>
	<path fill="#DB503C" transform="scale(0.488281 0.488281)" d="M645.486 831.25L646.238 831.467C647.159 835.868 647.137 840.895 647.41 845.4L648.858 870.495L649.71 884.188C649.849 886.385 650.325 889.109 649.911 891.244L631.978 895.213L626.889 835.737L645.486 831.25Z"/>
	<path fill="#DB503C" transform="scale(0.488281 0.488281)" d="M669.338 824.25L670.315 824.601L672.12 885.35L655.012 889.953L654.043 889.25L650.45 829.999L669.338 824.25Z"/>
	<path fill="#DB503C" transform="scale(0.488281 0.488281)" d="M354.129 826.707L373.123 831.511L368.284 891.23L349.38 886.303L354.129 826.707Z"/>
	<path fill="#DB503C" transform="scale(0.488281 0.488281)" d="M377.106 832.488L397.688 837.183L391.353 894.75L390.486 895.504L371.749 892.021L377.106 832.488Z"/>
	<path fill="#DB503C" transform="scale(0.488281 0.488281)" d="M622.73 836.75L623.235 837.095L628.218 895.844L608.75 899.424L607.678 898.883L602.875 840.673L622.73 836.75Z"/>
	<path fill="#DB503C" transform="scale(0.488281 0.488281)" d="M425.714 842.088L446.546 845.134L441.87 902.606L420.976 900.292C420.431 897.12 421.434 892.657 421.678 889.319L425.714 842.088Z"/>
	<path fill="#DB503C" transform="scale(0.488281 0.488281)" d="M401.314 837.854L421.926 841.741L416.372 899.789L395.359 896.361C394.769 893.206 396.323 887.357 396.673 883.917L401.314 837.854Z"/>
	<path fill="#DB503C" transform="scale(0.488281 0.488281)" d="M545.58 847.25C546.512 847.24 546.033 847.127 546.969 847.75L551.504 904.942L533.432 905.403L527.687 905.435L527.512 848.017L545.58 847.25Z"/>
	<path fill="#DB503C" transform="scale(0.488281 0.488281)" d="M476.455 847.437L496.347 848.221L496.128 890.299L496.065 901.154C496.057 902.647 496.328 904.069 495.497 905.337L492.46 905.334L471.641 904.52L476.455 847.437Z"/>
	<path fill="#DB503C" transform="scale(0.488281 0.488281)" d="M598.158 841.25L599.063 841.75L604.17 900.004L583.75 902.435L582.616 901.979L577.415 844.174L598.158 841.25Z"/>
	<path fill="#DB503C" transform="scale(0.488281 0.488281)" d="M450.626 845.421L472.633 847.064L467.892 904.516L445.793 902.926L450.626 845.421Z"/>
	<path fill="#DB503C" transform="scale(0.488281 0.488281)" d="M571.933 844.75C572.445 844.734 572.881 844.889 573.374 845.017L578.623 902.95L557.75 904.489C556.721 904.513 556.588 904.504 555.623 904L550.916 847.015L571.933 844.75Z"/>
	<path fill="#DB503C" transform="scale(0.488281 0.488281)" d="M499.972 848.043L523.515 848.107L523.888 905.281L499.911 905.484L499.972 848.043Z"/>
	<path fill="#69D0D7" transform="scale(0.488281 0.488281)" d="M572.721 157.75L573.906 157.677L573.842 158.25C570.1 161.508 566.342 164.86 562.163 167.551C554.021 172.796 544.535 176.033 535.141 178.175C511.716 183.517 483.992 179.909 463.483 167.104C459.487 164.402 455.943 161.031 452.388 157.786C456.25 157.672 461.118 159.404 465.011 160.12C470.936 161.211 476.904 161.994 482.909 162.487C513.391 164.988 542.643 162.998 572.721 157.75Z"/>
	<path fill="#DB503C" transform="scale(0.488281 0.488281)" d="M306.951 336.041C310.165 340.065 312.65 345.731 315.318 350.234L338.352 389.842C336.543 393.965 333.827 397.97 331.536 401.864L317.609 425.259L305.512 445.886C305.373 432.798 306.566 419.82 307.07 406.755L307.527 362.684C307.518 354.166 307.898 345.285 307.034 336.813L306.951 336.041Z"/>
	<path fill="#E8E6D4" transform="scale(0.488281 0.488281)" d="M723.272 482.705C723.785 486.187 723.693 489.944 723.892 493.477L725.116 519.033L728.532 590.655L716.545 572.276L692.807 532.877L723.272 482.705Z"/>
	<path fill="#952122" transform="scale(0.488281 0.488281)" d="M164.157 830.309L165.125 829.753L167 830.378L167.837 830.578L168.75 831C169.413 831.22 170.014 831.249 170.75 831.5L172 831.75L173.852 832.102C174.738 832.279 174.327 832.204 175.252 832.56C176.177 832.916 176.861 832.975 177.821 833.089C179.551 833.295 180.457 834.628 182.17 834.08L182.632 834.274C183.271 834.523 183.833 834.618 184.5 834.75L185.104 834.88L186.564 835.076C188.386 835.263 186.184 834.993 188.25 835.5C189.115 835.712 189.854 835.751 190.75 836L192.837 836.163C192.334 836.83 192.69 836.552 191.63 836.778C193.312 837.05 195.647 837.119 197.134 837.907L171.318 907.421C167.931 906.268 163.022 905.343 160.025 903.557L159.535 903.661L158.677 902.961L158.247 903.254C155.352 902.616 152.479 901.31 149.69 900.282L160.106 864.578C162.995 854.069 164.929 841.944 169.881 832.23L164.157 830.309Z"/>
	<path fill="#1A1A30" transform="scale(0.488281 0.488281)" d="M164.157 830.309L165.125 829.753L167 830.378L167.837 830.578L168.75 831C169.413 831.22 170.014 831.249 170.75 831.5L172 831.75L173.852 832.102C174.738 832.279 174.327 832.204 175.252 832.56C176.177 832.916 176.861 832.975 177.821 833.089C179.551 833.295 180.457 834.628 182.17 834.08L182.632 834.274C183.271 834.523 183.833 834.618 184.5 834.75L185.104 834.88L186.564 835.076C188.386 835.263 186.184 834.993 188.25 835.5C189.115 835.712 189.854 835.751 190.75 836L192.837 836.163C192.334 836.83 192.69 836.552 191.63 836.778C188.246 836.198 184.537 835.797 181.275 834.742L160.025 903.557L159.535 903.661L158.677 902.961L179.755 834.319L169.881 832.23L164.157 830.309Z"/>
	<path fill="#952122" transform="scale(0.488281 0.488281)" d="M169.881 832.23L179.755 834.319L158.677 902.961L158.247 903.254C155.352 902.616 152.479 901.31 149.69 900.282L160.106 864.578C162.995 854.069 164.929 841.944 169.881 832.23Z"/>
	<path fill="#E8E6D4" transform="scale(0.488281 0.488281)" d="M302.709 474.438L336.985 532.992L308.026 576.304L292.914 597.944L302.709 474.438Z"/>
	<path fill="#DB503C" transform="scale(0.488281 0.488281)" d="M646.656 608.958C650.83 614.155 654.073 620.525 657.615 626.201L680.216 662.677C664.576 672.305 649.634 681.068 632.623 688.213L617.309 694.187C615.516 692.58 614.195 689.949 612.892 687.928L605.27 675.611L646.656 608.958Z"/>
	<path fill="#DB503C" transform="scale(0.488281 0.488281)" d="M383.191 609.164L423.595 674.289L410.183 694.492L394.877 688.747C378.167 682.207 362.789 674.309 347.614 664.765L383.191 609.164Z"/>
	<path fill="#DB503C" transform="scale(0.488281 0.488281)" d="M558.67 607.323L600.71 676.041L583.522 703.016L557.885 707.799L539.92 709.935L516.98 674.465L558.67 607.323Z"/>
	<path fill="#DB503C" transform="scale(0.488281 0.488281)" d="M470.799 606.483L512.687 674.278L489.436 710.58L473.381 708.771L450.545 705.211C450.11 705.104 448.857 704.91 448.489 704.658C447.518 703.991 446.046 701.273 445.308 700.24L428.443 674.147L470.799 606.483Z"/>
	<path fill="#F1A145" transform="scale(0.488281 0.488281)" d="M689.884 394.434L720.183 448.84C720.682 449.792 721.215 450.698 721.482 451.75C722.821 457.035 722.25 463.74 722.608 469.227C722.706 470.741 723.414 474.385 723.065 475.637C722.868 476.341 721.896 477.57 721.494 478.236L717.438 484.959L690.471 529.163L687.873 525.276L662.674 483.818C658.321 476.729 652.77 469.107 649.492 461.523L689.884 394.434Z"/>
	<path fill="#DB503C" transform="scale(0.488281 0.488281)" d="M690.395 536.657C696.346 544.967 701.256 554.573 706.601 563.32L727.964 596.726C728.368 597.369 728.589 597.884 728.661 598.642L729.713 617.213C719.007 633.008 702.307 646.702 687.069 657.987L683.824 660.35C682.685 659.388 681.816 657.609 680.99 656.333L675.049 646.985L649.113 605.095L690.395 536.657Z"/>
	<path fill="#F1A145" transform="scale(0.488281 0.488281)" d="M427.589 537.041C432.78 543.56 436.825 551.797 441.208 558.929L468.812 603.57L426.75 669.576L425.788 669.852L385.512 605.099L427.589 537.041Z"/>
	<path fill="#F1A145" transform="scale(0.488281 0.488281)" d="M340.771 393.972C345.729 400.437 349.681 408.266 353.957 415.229L382.04 460.553L341.453 525.7L339.214 529.286L317.304 492.516C313.113 485.413 309.162 476.715 303.937 470.415L303.565 469.982L304.146 459.055C304.3 457.147 304.254 455.047 305.245 453.357L340.771 393.972Z"/>
	<path fill="#DB503C" transform="scale(0.488281 0.488281)" d="M558.551 321.75C561.105 323.11 563.727 328.901 565.339 331.532L582.844 360.644L600.212 388.875L559.427 457.036C556.828 453.92 554.818 449.692 552.751 446.174L541.58 427.462C533.947 414.618 525.346 401.964 518.361 388.789L545.832 342.972C549.932 336.091 553.755 328.084 558.551 321.75Z"/>
	<path fill="#F1A145" transform="scale(0.488281 0.488281)" d="M516.001 392.862L556.673 460.668L515.331 528.035L474.466 460.633L516.001 392.862Z"/>
	<path fill="#E8E6D4" transform="scale(0.488281 0.488281)" d="M472.022 464.886L512.792 532.191L470.966 599.112L429.802 532.638L472.022 464.886Z"/>
	<path fill="#DB503C" transform="scale(0.488281 0.488281)" d="M645.581 321.467C650.273 327.39 654.138 335.3 658.075 341.858L687.507 390.661C686.959 392.717 685.191 394.999 684.078 396.838L675.99 410.026L647.725 456.75L646.643 457.36L605.37 389.175L645.581 321.467Z"/>
	<path fill="#DB503C" transform="scale(0.488281 0.488281)" d="M384.751 321.703C388.253 326.057 391.056 331.528 393.992 336.306L413.375 368.446L421.481 382C422.999 384.449 424.786 386.829 426.056 389.41L384.62 457.227L343.337 389.741L384.751 321.703Z"/>
	<path fill="#F1A145" transform="scale(0.488281 0.488281)" d="M428.513 393.206L469.221 460.396C469.448 461.294 469.367 461.125 468.942 461.877L427.925 528.885C426.039 526.4 424.569 523.3 422.965 520.599L414.231 506.254C405.049 491.315 395.047 476.461 386.952 460.898L428.513 393.206Z"/>
	<path fill="#F1A145" transform="scale(0.488281 0.488281)" d="M602.437 392.821L644.8 461.729L603.959 527.75C603.271 528.303 603.668 528.092 602.75 528.343L561.768 460.778L602.437 392.821Z"/>
	<path fill="#F1A145" transform="scale(0.488281 0.488281)" d="M514.965 535.981L556.557 603.726C554.103 609.392 549.767 614.99 546.515 620.317L515.062 670.813L473.26 602.817L514.965 535.981Z"/>
	<path fill="#E8E6D4" transform="scale(0.488281 0.488281)" d="M646.729 465.75C648.732 466.796 683.494 525.685 688.037 532.959L646.949 601.41L605.005 532.162L646.729 465.75Z"/>
	<path fill="#DB503C" transform="scale(0.488281 0.488281)" d="M472.864 319.896L513.715 388.704C512.956 391.227 510.755 394.101 509.353 396.398L497.759 414.984L472.211 457.372L430.89 389.237L472.864 319.896Z"/>
	<path fill="#E8E6D4" transform="scale(0.488281 0.488281)" d="M558.728 464.75C561.991 466.498 596.27 525.143 600.802 532.438L559.21 600.176L517.32 531.716L558.728 464.75Z"/>
	<path fill="#F1A145" transform="scale(0.488281 0.488281)" d="M602.855 535.862L644.698 605.305L603.074 672.39L561.341 603.987C561.996 601.658 564.071 599.108 565.387 597.018L574.199 582.83L602.855 535.862Z"/>
	<path fill="#E8E6D4" transform="scale(0.488281 0.488281)" d="M384.342 464.747L425.417 533.146L383.192 601.463L341.293 532.664L384.342 464.747Z"/>
	<path fill="#DB503C" transform="scale(0.488281 0.488281)" d="M339.017 536.629C342.143 540.883 344.69 545.801 347.401 550.343L360.754 572.305L374.205 594.461C376.334 597.948 379.391 601.812 380.818 605.603L344.381 662.631L337.713 658.171L318.684 643.822C309.101 635.901 300.272 627.181 291.846 618.057L292.3 608.512C292.361 607.791 292.294 606.133 292.563 605.5C293.39 603.556 295.358 601.296 296.545 599.5L309.428 580.797L339.017 536.629Z"/>
	<path fill="#69D0D7" transform="scale(0.488281 0.488281)" d="M639.412 153.191L666.153 167.601C655.065 202.378 628.916 233.381 599.135 253.95C565.874 276.922 526.055 285.991 486.25 278.488C458.721 273.299 431.044 259.523 409.861 241.192C395.94 229.145 384.495 215.249 374.123 200.112C367.741 190.091 361.758 179.451 357.557 168.313L386.14 153.76L394.524 173.5C409.956 203.975 434.817 228.175 467.717 238.982C501.648 250.127 541.762 248.433 573.74 232.145C605.971 215.727 628.357 187.331 639.412 153.191Z"/>
	<path fill="#E8E6D4" transform="scale(0.488281 0.488281)" d="M289.212 669.924L291.078 623.218C291.407 623.223 301.069 633.365 302.195 634.46C359.088 689.815 440.967 716.608 519.412 715.478C534.229 715.264 549.28 713.585 563.907 711.291C580.36 708.711 596.683 705.285 612.566 700.21C644.906 689.877 676.187 672.941 702.316 651.235C712.688 642.619 721.46 632.772 730.813 623.14L733.178 670.637C731.958 673.338 725.932 676.827 723.418 678.675C695.808 698.968 665.498 714.863 633.485 726.96C579.322 747.427 520.757 754.8 463.25 746.811C446.954 744.547 430.957 740.592 415.147 736.106C399.348 731.623 383.536 726.616 368.551 719.845C339.533 706.735 313.44 690.619 289.212 669.924Z"/>
	<path fill="#69D0D7" transform="scale(0.488281 0.488281)" d="M733.178 670.637L734.543 701.739C734.681 706.432 735.292 711.634 734.991 716.291C735.74 741.111 735.424 765.842 732.064 790.483C714.694 803.304 696.378 810.892 676.087 817.772C658.657 823.681 640.794 828.545 622.784 832.322C559.588 845.574 495.406 847.226 431.5 838.526C406.92 835.179 382.365 830.403 358.5 823.592C340.406 818.428 320.144 812.858 304.369 802.372C295.007 796.149 290.633 789.118 288.32 778.25C286.326 768.879 287.142 758.527 287.264 749L288.151 711.887C287.915 710.67 288.192 708.877 288.235 707.609L288.572 697.667L289.212 669.924C313.44 690.619 339.533 706.735 368.551 719.845C383.536 726.616 399.348 731.623 415.147 736.106C430.957 740.592 446.954 744.547 463.25 746.811C520.757 754.8 579.322 747.427 633.485 726.96C665.498 714.863 695.808 698.968 723.418 678.675C725.932 676.827 731.958 673.338 733.178 670.637Z"/>
	<path fill="#5FA89A" transform="scale(0.488281 0.488281)" d="M733.178 670.637L734.543 701.739C734.681 706.432 735.292 711.634 734.991 716.291C679.546 754.864 611.623 776.491 544.56 781.516C477.464 786.544 410.401 776.144 349.831 746.218C336.418 739.592 322.826 732.178 310.588 723.564C302.953 718.19 295.759 712.163 288.686 706.077C288.657 707.71 288.873 709.928 288.342 711.469L288.151 711.887C287.915 710.67 288.192 708.877 288.235 707.609L288.572 697.667L289.212 669.924C313.44 690.619 339.533 706.735 368.551 719.845C383.536 726.616 399.348 731.623 415.147 736.106C430.957 740.592 446.954 744.547 463.25 746.811C520.757 754.8 579.322 747.427 633.485 726.96C665.498 714.863 695.808 698.968 723.418 678.675C725.932 676.827 731.958 673.338 733.178 670.637Z"/>
	<path fill="#E8E6D4" transform="scale(0.488281 0.488281)" d="M670.717 169.803C697.055 183.904 724.897 201.427 744.603 224.226C734.838 242.568 729.25 263.399 725.056 283.628C721.236 302.054 718.445 320.487 716.991 339.25C716.913 340.262 716.893 341.297 716.497 342.25C714.623 346.766 711.116 351.46 708.577 355.732L689.956 386.634L645.757 313.546L602.511 385.085L558.734 313.065L516.032 384.609L473.13 312.838C471.736 314.31 470.782 316.387 469.751 318.134L463.388 328.775L428.671 385.239C426.31 382.366 424.451 378.916 422.486 375.754L410.963 356.78L385.068 314.147C382.88 315.759 380.855 320.402 379.367 322.906L366.621 344.254L341.168 385.547C338.051 382.468 335.601 376.555 333.315 372.674L315.677 342.968L309.311 332.265C308.238 330.452 306.647 328.302 305.945 326.325C305.177 324.161 305.565 320.792 305.352 318.443L303.344 301.131C299.53 274.837 292.568 248.202 280.534 224.412C292.745 210.878 307.026 199.636 322.042 189.403C332.068 182.572 342.372 176.022 353.371 170.847C358.027 180.916 362.712 190.817 368.593 200.25C388.812 232.686 418.853 259.064 454.265 273.71C491.547 289.129 534.875 289.793 572.215 274.06C609.739 258.248 641.83 227.312 661.049 191.578C664.809 184.588 667.722 177.142 670.717 169.803Z"/>
	<path fill="#69D0D7" transform="scale(0.488281 0.488281)" d="M161.89 825.099C145.846 819.222 130.243 814.137 114.773 806.733C112.948 805.86 107.615 803.816 106.664 802.038L106.25 801.14C104.861 798.241 104.316 795.567 103.996 792.386C103.167 784.137 104.66 775.344 105.549 767.132L115.996 697.799C128.296 626.899 144.11 556.925 163.947 487.75C182.184 424.158 203.401 361.918 232.825 302.538C245.601 276.756 259.389 250.986 277.78 228.708L278.219 229.752C284.408 244.648 289.956 259.934 293.632 275.663C301.198 308.036 302.906 341.714 301.866 374.849C300.035 433.227 289.479 490.669 276.843 547.543C274.956 561.987 270.837 576.762 267.643 591L249.295 673.256L232.165 759.75C228.74 777.382 226.074 796.097 220.613 813.215C218.73 819.119 215.391 823.883 210.444 827.633C208.148 829.373 203.396 833.159 200.66 833.728C199.508 833.967 197.471 833.52 196.275 833.349L161.89 825.099Z"/>
	<path fill="#5FA89A" transform="scale(0.488281 0.488281)" d="M161.89 825.099C164.35 823.033 166.383 820.574 168.546 818.213C181.938 803.603 189.977 785.824 196.442 767.259C206.248 739.096 211.715 709.358 216.589 680L226.673 604.195C229.549 571.387 229.67 538.676 234.501 506C240.363 466.342 250.824 427.671 265.381 390.336C270.412 377.431 275.502 364.849 282.59 352.907C274.749 389.357 270.588 424.922 272.039 462.221L275.357 515.316C275.531 520.211 275.106 544.701 276.477 546.985L276.843 547.543C274.956 561.987 270.837 576.762 267.643 591L249.295 673.256L232.165 759.75C228.74 777.382 226.074 796.097 220.613 813.215C218.73 819.119 215.391 823.883 210.444 827.633C208.148 829.373 203.396 833.159 200.66 833.728C199.508 833.967 197.471 833.52 196.275 833.349L161.89 825.099Z"/>
	<path fill="#69D0D7" transform="scale(0.488281 0.488281)" d="M743.722 531.499C724.11 448.354 712.574 359.579 732.077 275.309C735.729 259.529 740.085 242.766 747.315 228.223C767.805 258.273 785.587 289.528 800.978 322.5L824.92 380.332C846.216 435.557 862.95 492.175 877.563 549.5L906.89 683.845L917.436 756.585C918.6 768.784 920.294 781.9 918.036 794.048C917.28 798.117 915.887 804.402 912.412 806.814C906.959 810.597 898.577 814.226 892.23 816.344C887.664 819.097 881.941 820.788 876.988 822.769L829.604 839.853L819.75 833.888C811.094 828.051 805.915 819.401 802.414 809.753C798.007 797.606 796.091 784.604 793.395 772L776.81 689.037L758.694 599.69L743.722 531.499Z"/>
	<path fill="#5FA89A" transform="scale(0.488281 0.488281)" d="M743.722 531.499L744.09 530.937C745.034 529.367 745.106 526.94 745.305 525.156L746.583 510.94C749.133 477.129 749.705 443.934 748.904 410.048L746.387 356.241C750.654 365.514 754.956 374.738 758.502 384.322C766.421 405.73 772.12 427.973 777.355 450.162C786.449 488.715 792.607 527.902 797.733 567.166L807.304 644.781L815.665 695.026L823.732 739.139C826.291 751.509 829.191 763.999 834.621 775.47C839.953 786.733 848.786 795.041 858.833 802.165C864.073 805.881 869.499 809.315 875.552 811.562C878.635 812.707 881.68 813.654 884.894 814.366C887.351 814.91 889.998 815.135 892.23 816.344C887.664 819.097 881.941 820.788 876.988 822.769L829.604 839.853L819.75 833.888C811.094 828.051 805.915 819.401 802.414 809.753C798.007 797.606 796.091 784.604 793.395 772L776.81 689.037L758.694 599.69L743.722 531.499Z"/>
</svg>
