<?xml version="1.0" encoding="utf-8" ?>
<svg xmlns="http://www.w3.org/2000/svg" xmlns:xlink="http://www.w3.org/1999/xlink" width="500" height="500">
	<path fill="#859737" transform="scale(0.488281 0.488281)" d="M-0 -0L1024 0L1024 1024L-0 1024L0 -0Z"/>
	<defs>
		<linearGradient id="gradient_0" gradientUnits="userSpaceOnUse" x1="183.37245" y1="529.297" x2="768.09369" y2="525.17474">
			<stop offset="0" stop-color="#4E6228"/>
			<stop offset="1" stop-color="#5E7921"/>
		</linearGradient>
	</defs>
	<path fill="url(#gradient_0)" transform="scale(0.488281 0.488281)" d="M771.988 865.769C770.724 871.877 768.571 876.533 763.227 880.143C759.536 882.636 756.087 883.175 751.75 883.667L620.743 896.258L404.847 918.055L289.592 930.014L242.76 935.078C234.564 935.869 224.777 937.736 216.679 936.124C207.18 934.233 198.24 928.376 192.765 920.395L192.25 919.629C187.619 912.855 185.558 906.205 185.215 898.039L185.031 840.047L185.024 730.774L184.966 400.501L184.955 228.599L184.954 180.178C184.954 172.47 184.182 163.867 185.276 156.289L185.399 155.5C186.535 147.891 189.682 140.204 194.635 134.25C204.482 122.416 216.947 122.731 230.967 121.323C228.646 124.262 226.397 127.426 225.609 131.164C224.993 132.54 224.584 133.886 224.496 135.405C224.232 139.953 224.668 144.777 224.757 149.349L224.958 174.08L225.035 263.678L225.085 731.802L225.024 828.219L224.961 861.549C224.946 868.132 223.719 877.461 225.919 883.648C226.254 884.591 226.699 885.426 227.188 886.295L289.915 897.648C292.253 901.723 294.571 904.49 298.1 907.594L298.703 907.849C300.398 908.616 302.011 909.586 303.928 909.533C310.29 909.356 316.898 908.208 323.25 907.555L359.5 904.065L469.989 893.841L771.988 865.769Z"/>
	<path fill="#5A8560" transform="scale(0.488281 0.488281)" d="M227.188 886.295L289.915 897.648C292.253 901.723 294.571 904.49 298.1 907.594C293.931 907.722 289.821 906.26 285.836 905.156L272 901.645L238.147 893.402C232.804 892.116 230.14 891.097 227.188 886.295Z"/>
	<path fill="#6C9284" transform="scale(0.488281 0.488281)" d="M299.984 110.556L301.789 110.439C295.176 114.388 290.171 119.535 288.233 127.19L287.699 129.483L287.511 165.78L287.542 228.586L288.712 464.902L288.937 779.037L288.867 847.982L288.791 876.845C288.778 883.184 287.753 891.669 289.915 897.648L227.188 886.295C226.699 885.426 226.254 884.591 225.919 883.648C223.719 877.461 224.946 868.132 224.961 861.549L225.024 828.219L225.085 731.802L225.035 263.678L224.958 174.08L224.757 149.349C224.668 144.777 224.232 139.953 224.496 135.405C224.584 133.886 224.993 132.54 225.609 131.164C226.397 127.426 228.646 124.262 230.967 121.323L232.301 120.326C234.351 118.469 236.481 117.224 239.155 116.51C243.285 115.406 248.198 115.537 252.5 115.067L299.984 110.556Z"/>
	<path fill="#588B8A" transform="scale(0.488281 0.488281)" d="M299.984 110.556L301.789 110.439C295.176 114.388 290.171 119.535 288.233 127.19L287.699 129.483C286.22 127.975 286.891 126.667 286.513 124.689L286.368 123.975L286.512 123.604L286.759 122.989C288.19 119.365 289.904 117.166 292.477 114.303C293.925 113.303 295.246 112.38 296.945 111.858C298.086 111.508 298.946 111.144 299.984 110.556Z"/>
	<path fill="#ECE9D7" transform="scale(0.488281 0.488281)" d="M301.789 110.439L398.5 114.3L624.509 123.368L758.883 128.182L792.866 129.389C799.376 129.558 806.32 129.242 812.757 130.048C817.682 130.665 821.669 132.703 825.109 136.226C829.123 140.336 831.409 145.299 831.828 151.04C832.478 159.93 831.814 169.192 831.788 178.126L831.871 229.132L831.913 403.704L831.84 678.191L831.601 783.076L831.56 840.598C831.429 846.991 829.507 852.159 824.816 856.66C822.209 859.162 819.271 860.809 815.784 861.762C811.575 862.911 806.631 862.781 802.268 863.16L771.988 865.769L469.989 893.841L359.5 904.065L323.25 907.555C316.898 908.208 310.29 909.356 303.928 909.533C302.011 909.586 300.398 908.616 298.703 907.849L298.1 907.594C294.571 904.49 292.253 901.723 289.915 897.648C287.753 891.669 288.778 883.184 288.791 876.845L288.867 847.982L288.937 779.037L288.712 464.902L287.542 228.586L287.511 165.78L287.699 129.483L288.233 127.19C290.171 119.535 295.176 114.388 301.789 110.439Z"/>
	<path fill="#D3CAB2" transform="scale(0.488281 0.488281)" d="M322.055 133.009C330.476 132.65 339.204 133.622 347.643 133.933L404.75 136.212L584.499 142.585L728.467 147.712L770.473 149.048C778.824 149.282 787.814 148.936 796.048 150.272L796.75 150.393L797.462 150.506C802.813 151.418 807.91 155.303 810.88 159.731C811.737 161.008 812.499 162.393 813.107 163.806C813.893 165.632 814.497 167.755 814.582 169.75L814.56 190.001L814.243 235.287L814.1 323.477L814.525 683.069L814.215 787.071L814.126 814.587C814.122 819.242 814.778 824.958 813.75 829.463L813.618 830C813.152 832.069 812.313 833.798 811.331 835.674C808.963 840.196 804.407 843.552 799.696 845.224C795.195 846.822 790.165 846.828 785.435 847.266L761.396 849.542L332.75 888.125C326.178 888.403 321.071 887.725 316.134 882.997C313.29 880.272 310.344 875.364 309.939 871.392C309.238 864.523 309.553 857.365 309.534 850.461L309.477 815.588L309.374 704.059L309.255 333.5C308.429 332.262 308.755 330.722 308.755 329.25L308.083 328.761L308.6 328.44C309.062 328.135 310.957 326.866 311.171 326.387C311.443 325.78 311.178 323.3 311.18 322.554L311.218 306.869L311.248 196.9L311.085 163.954L311.325 151.75C311.408 149.275 311.201 146.685 311.723 144.253L311.84 143.75C312.127 142.475 312.486 141.25 313.103 140.089C315.033 136.452 318.224 134.208 322.055 133.009Z"/>
	<path fill="#3B993D" transform="scale(0.488281 0.488281)" d="M571.01 220.415C569.539 221.518 567.658 222.255 565.901 222.749C559.366 224.585 552.898 224.506 546.972 220.914C541.264 217.455 537.1 211.483 535.445 205.067L535.25 204.285C533.476 197.471 534.658 189.711 537.871 183.486C540.847 177.721 546.037 172.71 552.343 170.854C557.45 169.35 564.004 169.974 568.604 172.624C564.071 171.669 560.441 171.552 556.472 174.138C551.741 177.219 548.365 181.938 546.57 187.25L546.306 188.014C544.014 194.968 545.261 203.125 548.554 209.543C550.979 214.269 555.889 219.851 561.189 221.269C564.479 222.149 567.834 221.27 571.01 220.415Z"/>
	<path fill="#5A8560" transform="scale(0.488281 0.488281)" d="M573.951 841.206C572.676 842.208 571.4 843.178 569.95 843.914C564.184 846.842 554.773 848.282 548.488 846.006C543.056 844.04 539.073 838.949 536.807 833.806C533.207 825.636 533.509 814.881 536.736 806.662C539.558 799.474 544.459 793.987 551.69 790.993C558.249 788.277 564.306 789.332 570.611 791.978C565.269 792.163 559.808 791.844 555.104 794.75L554.609 795.051C548.922 798.589 545.404 804.681 543.932 811.095C542.988 815.212 542.726 819.871 543.618 824L543.729 824.678C544.768 829.98 548.28 836.629 552.861 839.709L554.497 840.563C556.155 841.393 557.442 841.963 559.25 842.382L559.847 842.534C563.229 843.332 567.705 843.158 571.003 842.106L573.951 841.206Z"/>
	<path fill="#92FB86" transform="scale(0.488281 0.488281)" d="M571.01 220.415C567.834 221.27 564.479 222.149 561.189 221.269C555.889 219.851 550.979 214.269 548.554 209.543C545.261 203.125 544.014 194.968 546.306 188.014L546.57 187.25C548.365 181.938 551.741 177.219 556.472 174.138C560.441 171.552 564.071 171.669 568.604 172.624C572.617 174.167 575.529 176.978 577.869 180.509L578.281 181.121C580.092 183.863 581.208 186.853 582.086 190L582.331 190.86C583.296 194.439 583.273 198.375 582.621 202C581.466 208.416 578.114 215.573 572.634 219.445L571.01 220.415Z"/>
	<path fill="#ECE9D7" transform="scale(0.488281 0.488281)" d="M565.066 178.25C567.323 177.703 569.174 177.99 571.25 179.005C575.444 181.056 578.903 184.727 580.327 189.244L580.551 190C581.578 193.284 581.699 196.327 581.454 199.75C581.097 204.725 579.413 208.145 575.75 211.389C574.654 211.757 573.957 212.018 572.781 211.831C569.045 211.237 564.603 205.379 562.899 202.323C560.363 197.776 558.305 190.499 559.801 185.348L559.988 184.75L560.463 183.231C561.381 180.636 562.603 179.404 565.066 178.25Z"/>
	<path fill="#92FB86" transform="scale(0.488281 0.488281)" d="M570.611 791.978C576.51 794.291 581.337 798.798 583.849 804.693C586.495 810.901 586.86 817.17 585.583 823.75L585.439 824.514C584.319 830.154 579.587 838.374 574.217 841.134L573.951 841.206L571.003 842.106C567.705 843.158 563.229 843.332 559.847 842.534L559.25 842.382C557.442 841.963 556.155 841.393 554.497 840.563L552.861 839.709C548.28 836.629 544.768 829.98 543.729 824.678L543.618 824C542.726 819.871 542.988 815.212 543.932 811.095C545.404 804.681 548.922 798.589 554.609 795.051L555.104 794.75C559.808 791.844 565.269 792.163 570.611 791.978Z"/>
	<path fill="#ECE9D7" transform="scale(0.488281 0.488281)" d="M562.987 796.096C565.321 795.769 567.908 795.614 570.25 796.029C574.638 796.806 578.183 799.382 580.62 803.066C584.281 808.598 585.099 814.608 583.687 821.011C582.369 826.988 579.161 830.583 574.174 833.81L573.767 833.918C571.361 834.606 568.744 834.817 566.25 834.465C562.142 833.884 558.531 831.709 556.219 828.262C552.865 823.264 552.125 816.25 553.458 810.438C554.887 804.206 557.561 799.638 562.987 796.096Z"/>
	<path fill="#958871" transform="scale(0.488281 0.488281)" d="M672.296 748.458C672.073 749.066 671.829 749.574 671.477 750.123C667.635 756.124 659.584 762.235 652.577 763.491C643.119 765.187 633.293 765.726 623.719 766.534L587.943 769.772L526.698 775.636L446.773 781.671L397.167 785.572L383.539 786.693C380.771 786.94 377.698 787.417 374.926 787.14C372.16 786.864 369.942 784.599 368.25 782.517C366.922 780.884 366.126 779.25 365.995 777.126C365.569 770.163 365.938 762.948 365.941 755.964L365.989 714.482L365.972 587.581L365.936 357.46L365.895 311.596L365.885 301.792C365.885 300.8 365.628 298.902 365.927 297.985C366.316 296.792 374.545 293.01 376.147 292.164C382.703 288.7 390.002 283.85 396.993 281.561L397.289 600.265L397.272 699.269L397.275 730.133C397.279 736.1 396.981 742.315 397.532 748.25C397.987 753.151 400.519 757.885 403.99 761.327C407.835 765.14 412.219 766.856 417.5 767.599L418.375 767.729C425.577 768.718 433.754 767.098 441 766.509L474.5 763.89L591 754.467L645.25 750.188L672.296 748.458Z"/>
	<path fill="#09040F" transform="scale(0.488281 0.488281)" d="M396.993 281.561C397.282 274.118 399.12 268.456 404.75 263.342C408.377 260.047 413.518 258.062 418.384 257.604C422.699 257.199 427.382 257.563 431.727 257.597L460.196 258.035L528.338 258.914L630.046 260.559L671.495 261.235L691.5 261.63C698.03 262.065 704.328 264.981 708.539 270.045C711.215 273.264 713.285 277.251 713.493 281.5L713.502 311.165L713.485 371.177L713.474 554.189L713.375 675.714L713.29 710.728C713.288 716.659 713.797 723.181 713.148 729.057C712.505 734.87 708.989 740.036 704.373 743.543C698.346 748.123 691.145 747.295 684 747.713C680.113 747.94 676.187 748.486 672.296 748.458L645.25 750.188L591 754.467L474.5 763.89L441 766.509C433.754 767.098 425.577 768.718 418.375 767.729L417.5 767.599C412.219 766.856 407.835 765.14 403.99 761.327C400.519 757.885 397.987 753.151 397.532 748.25C396.981 742.315 397.279 736.1 397.275 730.133L397.272 699.269L397.289 600.265L396.993 281.561Z"/>
	<defs>
		<linearGradient id="gradient_1" gradientUnits="userSpaceOnUse" x1="444.27548" y1="514.5639" x2="395.07736" y2="513.61627">
			<stop offset="0" stop-color="#7A2415"/>
			<stop offset="1" stop-color="#592914"/>
		</linearGradient>
	</defs>
	<path fill="url(#gradient_1)" transform="scale(0.488281 0.488281)" d="M437.363 760.844L445.147 763.319C437.078 763.514 427.869 765.725 419.951 764.64L419 764.502C412.678 763.618 407.18 760.582 403.328 755.421C400.265 751.316 399.404 746.648 399.171 741.672L398.989 707.027L398.979 644.052L398.919 449.163L398.883 328.069L398.94 296.451C398.953 291.143 398.481 285.248 399.275 280.023L399.404 279.25C400.008 275.454 401.407 272.315 403.72 269.25C406.554 265.496 409.873 263.354 414.528 262.666C410.914 266.314 407.316 269.439 406.391 274.75L406.274 275.381C405.504 279.958 406.025 285.278 406.07 289.945L406.454 320.687L407.016 434.974L407.012 655.534L406.936 720.659L406.937 738.968C406.941 742.123 406.663 745.634 407.139 748.75C407.448 750.77 408.68 752.781 409.893 754.386C412.832 758.274 417.439 760.698 422.25 761.299C426.768 761.863 431.529 761.406 436.06 761.134C436.817 761.088 436.529 761.119 437.363 760.844Z"/>
	<path fill="#8D2F1A" transform="scale(0.488281 0.488281)" d="M414.528 262.666C420.778 260.337 428.532 261.32 435.131 261.438L434.529 261.847C430.851 264.414 428.567 268.142 427.816 272.607C427.124 276.722 427.609 281.439 427.601 285.639L427.556 312.945L427.464 413.597L428.014 623.658L428.133 702.153L428.228 744.311C428.365 748.544 429.252 752.512 431.793 755.977C433.263 757.982 435.241 759.578 437.363 760.844C436.529 761.119 436.817 761.088 436.06 761.134C431.529 761.406 426.768 761.863 422.25 761.299C417.439 760.698 412.832 758.274 409.893 754.386C408.68 752.781 407.448 750.77 407.139 748.75C406.663 745.634 406.941 742.123 406.937 738.968L406.936 720.659L407.012 655.534L407.016 434.974L406.454 320.687L406.07 289.945C406.025 285.278 405.504 279.958 406.274 275.381L406.391 274.75C407.316 269.439 410.914 266.314 414.528 262.666Z"/>
	<path fill="#CA8330" transform="scale(0.488281 0.488281)" d="M709.1 715.01C709.485 717.577 709.382 720.519 709.301 723.108C709.107 729.315 708.56 734.7 703.541 739.069C701.303 741.017 698.809 742.29 695.862 742.653C684.042 744.107 671.652 743.976 659.751 744.878L555.743 752.731L475.987 759.373C465.91 760.143 454.561 762.264 444.55 761.406C440.155 761.029 436.861 758.727 434.135 755.382C432.032 752.802 430.802 749.598 430.626 746.277C430.049 735.376 430.584 724.144 430.622 713.217L430.838 648.837L430.987 455.382L431.025 330.103L431.077 294.178C431.089 287.827 430.559 280.932 431.427 274.662C432.006 270.473 434.479 266.804 437.951 264.448C440.06 263.017 442.541 262.125 445.096 261.998C459.789 261.264 475.018 262.208 489.761 262.394L587.218 264.25L633.659 265.344L650.548 265.553C653.747 265.593 657.063 265.423 660.221 265.964L661.01 266.595C662.071 266.622 663.362 266.416 664.25 267C662.909 266.925 660.849 266.508 659.703 267.122C657.879 268.099 655.563 267.9 653.531 267.982L640.198 268.488L562.25 271.183L502 273.223L477 273.947C471.375 274.071 465.189 273.548 459.695 274.881C456.659 275.617 453.092 278.054 451.945 281.045C451.194 283.007 451.389 285.17 451.372 287.246L451.356 298.808L451.481 334.862L451.451 455.402L451.193 644.96L451.274 714.926C451.335 719.025 451.033 723.111 452.75 726.937C454.903 731.736 458.673 735.271 463.61 737.088C465.077 737.628 466.436 737.81 467.995 737.769L494.75 735.805L555.919 731.913L630.289 728.255L708.88 723.516L708.785 717.116L709.1 715.01Z"/>
	<defs>
		<linearGradient id="gradient_2" gradientUnits="userSpaceOnUse" x1="519.97913" y1="749.84143" x2="635.64557" y2="273.18881">
			<stop offset="0" stop-color="#D69C43"/>
			<stop offset="1" stop-color="#FCC561"/>
		</linearGradient>
	</defs>
	<path fill="url(#gradient_2)" transform="scale(0.488281 0.488281)" d="M660.221 265.964L682.25 265.963C686.497 265.953 691.366 265.444 695.5 266.397L696.099 266.525C700.42 267.526 704.731 271.223 706.944 274.993C708.421 277.511 709.404 280.314 709.472 283.25L709.384 371.015L709.337 548.561L709.209 662.949L709.113 698.25C709.1 703.744 709.523 709.566 709.1 715.01L708.785 717.116L708.88 723.516L630.289 728.255L555.919 731.913L494.75 735.805L467.995 737.769C466.436 737.81 465.077 737.628 463.61 737.088C458.673 735.271 454.903 731.736 452.75 726.937C451.033 723.111 451.335 719.025 451.274 714.926L451.193 644.96L451.451 455.402L451.481 334.862L451.356 298.808L451.372 287.246C451.389 285.17 451.194 283.007 451.945 281.045C453.092 278.054 456.659 275.617 459.695 274.881C465.189 273.548 471.375 274.071 477 273.947L502 273.223L562.25 271.183L640.198 268.488L653.531 267.982C655.563 267.9 657.879 268.099 659.703 267.122C660.849 266.508 662.909 266.925 664.25 267C663.362 266.416 662.071 266.622 661.01 266.595L660.221 265.964Z"/>
	<path fill="#09040F" transform="scale(0.488281 0.488281)" d="M563.295 315.647L591.641 315.47L591.575 355.549L558.364 355.545L560.105 353.968L585.71 353.579L589.5 353.485C590.661 351.725 590.07 322.581 590.083 317.984L575.734 317.967L559.765 318.034L558.824 316.25C560.402 316.238 561.758 316 563.295 315.647Z"/>
	<path fill="#09040F" transform="scale(0.488281 0.488281)" d="M558.364 355.545L553.031 355.444L553.06 315.635L563.295 315.647C561.758 316 560.402 316.238 558.824 316.25L559.765 318.034L560.105 353.968L558.364 355.545Z"/>
	<path fill="#4F4E49" transform="scale(0.488281 0.488281)" d="M575.734 317.967L590.083 317.984C590.07 322.581 590.661 351.725 589.5 353.485L585.71 353.579C582.428 353.202 578.863 353.464 575.548 353.466L575.734 317.967Z"/>
	<path fill="#272728" transform="scale(0.488281 0.488281)" d="M559.765 318.034L575.734 317.967L575.548 353.466C578.863 353.464 582.428 353.202 585.71 353.579L560.105 353.968L559.765 318.034Z"/>
	<path fill="#CA8330" transform="scale(0.488281 0.488281)" d="M507.084 444.355L507.372 606.357L507.384 657.158C507.383 664.554 506.698 672.559 507.331 679.899C507.473 681.546 509.592 683.779 510.785 684.947C512.247 686.378 513.808 687.386 515.5 688.497L515.952 688.824C516.845 689.435 517.558 689.506 518.614 689.502C523.753 689.485 528.963 688.878 534.099 688.587L570.343 686.392L589.304 685.328C592.564 685.153 596.125 685.249 599.311 684.663L599.756 684.562L632.984 682.885C633.739 681.562 633.929 680.032 634.233 678.556C634.734 677.622 635.212 677.197 635.979 676.486C637.046 682.333 634.914 690.986 633.17 696.453L606.25 698.294L553.75 700.741L514.75 703.557L501.214 704.562C498.658 704.738 495.155 705.258 492.673 704.411C491.338 703.956 489.61 702.212 489.115 700.942C488.078 698.281 488.628 693.677 488.605 690.769L488.612 662.535L488.993 538.381L489.003 486.536L489.087 458C489.155 456.27 489.481 454.559 490.319 453.029C493.223 447.724 497.545 446.932 502.963 445.404L507.084 444.355Z"/>
	<path fill="#09040F" transform="scale(0.488281 0.488281)" d="M507.084 444.355C507.247 439.574 507.208 435.545 511.066 432.082C512.425 430.863 513.793 430.069 515.622 429.823C518.787 429.397 522.216 429.633 525.424 429.601L544.546 429.43L588.828 428.829C600.552 428.716 612.532 428.932 624.212 428.025L624.518 435.213C629.034 438.953 634.528 442.124 638.615 446.268L636.989 469.242L636.635 469.18L636.061 469.478L635.461 469.184L637.2 450.238C631.785 447.778 627.023 444.014 622.185 440.603C620.53 439.437 617.701 437.047 615.754 436.599C614.281 436.26 611.554 436.685 609.925 436.719L589.701 437.328L525.01 439.121C523.916 439.325 522.941 439.426 521.957 439.972C523.729 443.913 528.256 445.61 531.709 447.899L542.955 455.531C543.57 461.533 543.093 467.896 543.017 473.933L542.25 511.004C542.054 516.782 541.451 522.615 541.488 528.392C538.995 536.722 539.807 545.183 539.019 553.723C538.901 560.276 537.055 567.153 535.799 573.597C534.32 581.178 533.184 589.014 531.021 596.433C529.475 601.731 526.904 607.194 526.043 612.614C525.741 614.51 526.112 615.363 527.224 616.875L527.639 616.985C529.134 619.514 530.264 622.108 530.748 625.008C531.316 628.415 533.167 633.344 535.595 635.803C537.475 641.557 539.925 647.872 542.823 653.168C544.001 655.32 543.684 658.018 543.767 660.426C543.97 666.358 543.471 672.714 544.377 678.556L577.676 677.562L610.5 676.126C618.372 675.71 626.691 675.821 634.437 674.356L636.068 675.694L635.979 676.486C635.212 677.197 634.734 677.622 634.233 678.556C633.929 680.032 633.739 681.562 632.984 682.885L599.756 684.562L599.311 684.663C596.125 685.249 592.564 685.153 589.304 685.328L570.343 686.392L534.099 688.587C528.963 688.878 523.753 689.485 518.614 689.502C517.558 689.506 516.845 689.435 515.952 688.824L515.5 688.497C513.808 687.386 512.247 686.378 510.785 684.947C509.592 683.779 507.473 681.546 507.331 679.899C506.698 672.559 507.383 664.554 507.384 657.158L507.372 606.357L507.084 444.355Z"/>
	<path fill="#8D2F1A" transform="scale(0.488281 0.488281)" d="M577.676 677.562C574.707 678.248 571.206 677.519 568.372 678.407C560.072 681.008 551.477 678.944 543.377 681.16C542.517 681.396 542.542 681.258 541.75 680.939L541.613 679.75C540.473 678.585 531.817 679.75 529.605 679.568C526.453 679.308 522.55 677.491 520.652 674.878C519.659 673.511 519.544 671.636 519.505 670L519.47 627.418L519.085 515.586L519.077 467.11C519.09 459.654 518.362 451.255 519.504 443.943C519.818 441.93 520.347 441.183 521.957 439.972C523.729 443.913 528.256 445.61 531.709 447.899L542.955 455.531C543.57 461.533 543.093 467.896 543.017 473.933L542.25 511.004C542.054 516.782 541.451 522.615 541.488 528.392C538.995 536.722 539.807 545.183 539.019 553.723C538.901 560.276 537.055 567.153 535.799 573.597C534.32 581.178 533.184 589.014 531.021 596.433C529.475 601.731 526.904 607.194 526.043 612.614C525.741 614.51 526.112 615.363 527.224 616.875L527.639 616.985C529.134 619.514 530.264 622.108 530.748 625.008C531.316 628.415 533.167 633.344 535.595 635.803C537.475 641.557 539.925 647.872 542.823 653.168C544.001 655.32 543.684 658.018 543.767 660.426C543.97 666.358 543.471 672.714 544.377 678.556L577.676 677.562Z"/>
	<path fill="#FBEC66" transform="scale(0.488281 0.488281)" d="M660.221 265.964L682.25 265.963C686.497 265.953 691.366 265.444 695.5 266.397L696.099 266.525C700.42 267.526 704.731 271.223 706.944 274.993C708.421 277.511 709.404 280.314 709.472 283.25L709.384 371.015L709.337 548.561L709.209 662.949L709.113 698.25C709.1 703.744 709.523 709.566 709.1 715.01L708.785 717.116C704.88 709.314 701.132 702.229 699.512 693.552C696.317 676.442 695.789 658.775 694.988 641.433L693.197 555.693L693.565 346.205L693.546 303.722L693.519 293.514C693.513 291.405 693.766 289.232 692.964 287.25C691.893 286.332 690.901 285.824 689.5 285.644C686.558 285.267 683.37 285.469 680.388 285.393L661.903 285.065L613.335 284.186L452.765 281.944L451.945 281.045C453.092 278.054 456.659 275.617 459.695 274.881C465.189 273.548 471.375 274.071 477 273.947L502 273.223L562.25 271.183L640.198 268.488L653.531 267.982C655.563 267.9 657.879 268.099 659.703 267.122C660.849 266.508 662.909 266.925 664.25 267C663.362 266.416 662.071 266.622 661.01 266.595L660.221 265.964Z"/>
	<path fill="#EE362A" transform="scale(0.488281 0.488281)" d="M525.01 439.121L589.701 437.328L609.925 436.719C611.554 436.685 614.281 436.26 615.754 436.599C617.701 437.047 620.53 439.437 622.185 440.603C627.023 444.014 631.785 447.778 637.2 450.238L635.461 469.184L636.061 469.478L636.635 469.18L636.989 469.242L636.507 600.764L636.527 631.162C636.547 637.516 636.065 644.447 637.401 650.66C638.104 653.93 636.88 658.908 636.677 662.327C636.423 666.617 637.049 671.545 636.068 675.694L634.437 674.356C626.691 675.821 618.372 675.71 610.5 676.126L577.676 677.562L544.377 678.556C543.471 672.714 543.97 666.358 543.767 660.426C543.684 658.018 544.001 655.32 542.823 653.168C539.925 647.872 537.475 641.557 535.595 635.803C533.167 633.344 531.316 628.415 530.748 625.008C530.264 622.108 529.134 619.514 527.639 616.985L527.224 616.875C526.112 615.363 525.741 614.51 526.043 612.614C526.904 607.194 529.475 601.731 531.021 596.433C533.184 589.014 534.32 581.178 535.799 573.597C537.055 567.153 538.901 560.276 539.019 553.723C539.807 545.183 538.995 536.722 541.488 528.392C541.451 522.615 542.054 516.782 542.25 511.004L543.017 473.933C543.093 467.896 543.57 461.533 542.955 455.531L531.709 447.899C528.256 445.61 523.729 443.913 521.957 439.972C522.941 439.426 523.916 439.325 525.01 439.121Z"/>
	<path fill="#C11613" transform="scale(0.488281 0.488281)" d="M521.957 439.972C522.941 439.426 523.916 439.325 525.01 439.121C526.129 443.345 543.655 450.49 543.833 453C543.869 453.506 543.146 454.962 542.955 455.531L531.709 447.899C528.256 445.61 523.729 443.913 521.957 439.972Z"/>
	<path fill="#ECE9D7" transform="scale(0.488281 0.488281)" d="M601.721 452.766L634.531 452.437L628.377 532C627.769 534.553 627.802 537.148 627.381 539.75C627.147 541.199 627.714 542.437 626.81 543.75L626.69 542.25C626.902 540.187 626.886 537.562 627.294 535.558C628.554 529.355 628.451 522.213 628.892 515.832L630.946 491.07L633.106 455.066L563.318 456.086L550.85 456.339C549.317 456.376 547.315 456.713 545.932 456.022L545.591 454.5L546.135 453.686L601.721 452.766Z"/>
	<path fill="#ECE9D7" transform="scale(0.488281 0.488281)" d="M535.157 633.524L531.67 623.534L596.651 620.317C605.202 620.018 614.443 618.706 622.908 619.235C624.546 623.118 625.562 627.135 627.106 630.987C628.34 634.063 629.661 636.473 630.486 639.742L630.551 639.918L630.361 640.529C628.585 639.47 626.356 631.651 625.722 629.393L625.546 628.753L535.157 633.524Z"/>
	<defs>
		<linearGradient id="gradient_3" gradientUnits="userSpaceOnUse" x1="645.6839" y1="560.91846" x2="625.8161" y2="558.58154">
			<stop offset="0" stop-color="#090911"/>
			<stop offset="1" stop-color="#151023"/>
		</linearGradient>
	</defs>
	<path fill="url(#gradient_3)" transform="scale(0.488281 0.488281)" d="M635.461 469.184L636.061 469.478L636.635 469.18L636.989 469.242L636.507 600.764L636.527 631.162C636.547 637.516 636.065 644.447 637.401 650.66C638.104 653.93 636.88 658.908 636.677 662.327C636.423 666.617 637.049 671.545 636.068 675.694L634.437 674.356C635.166 667.275 634.566 659.627 636.427 652.744C636.991 650.656 632.492 642.357 631.48 639.795C631.471 638.659 630.483 636.528 630.108 635.376L625.185 621.458C623.719 617.811 622.025 615.618 621.714 611.454L635.461 469.184Z"/>
	<path fill="#C11613" transform="scale(0.488281 0.488281)" d="M541.488 528.392L540.806 551.007L541.178 553.75C546.289 554.68 552.628 553.471 557.872 553.167L596.185 551.024L616.181 549.682C619.056 549.512 622.5 548.949 625.307 549.413C625.325 554.747 624.718 560.074 623.843 565.25C623.626 566.535 623.963 567.969 623.75 569.255L621.861 584C620.913 590.156 621.085 596.584 619.876 602.75L619.137 610.787C617.159 611.065 613.965 610.818 612.25 611.546C611.135 612.02 609.486 611.79 608.275 611.796L599.84 611.795C598.914 611.789 598.113 611.685 597.255 612.046C594.452 613.225 589.403 611.865 586.25 612.348C581.832 613.026 577.33 612.71 572.8 612.812C572.099 612.828 571.855 613.16 571.25 613.255C568.148 613.743 564.419 613.23 561.237 613.316C560.348 613.34 559.602 613.76 558.706 613.782C554.504 613.882 550.338 613.56 546.25 614.255C542.992 614.809 539.576 614.13 536.25 614.755C534.424 615.098 530.164 614.123 528.75 614.782C528.62 614.842 527.847 615.907 527.817 615.968C527.664 616.272 527.662 616.654 527.639 616.985L527.224 616.875C526.112 615.363 525.741 614.51 526.043 612.614C526.904 607.194 529.475 601.731 531.021 596.433C533.184 589.014 534.32 581.178 535.799 573.597C537.055 567.153 538.901 560.276 539.019 553.723C539.807 545.183 538.995 536.722 541.488 528.392Z"/>
</svg>
