<?xml version="1.0" encoding="utf-8" ?>
<svg xmlns="http://www.w3.org/2000/svg" xmlns:xlink="http://www.w3.org/1999/xlink" width="500" height="500">
	<path fill="#814278" transform="scale(0.488281 0.488281)" d="M-0 -0L1024 0L1024 1024L-0 1024L0 -0Z"/>
	<path fill="#73310B" transform="scale(0.488281 0.488281)" d="M281.339 266.407C277.25 264.241 272.266 263.113 268 261.119C253.094 254.151 241.052 243.385 231.765 229.872C216.244 207.29 210.838 181.411 215.876 154.447C220.974 127.158 235.68 104.466 258.622 88.8362C278.284 75.441 304.075 69.4372 327.5 74.0123C347.324 77.884 367.465 90.5747 378.733 107.43C382.95 112.778 386.271 118.857 389.285 124.949C390.603 127.613 391.678 132.126 393.596 134.248C447.323 109.558 505.532 102.666 563.503 114.332C571.644 115.97 579.532 118.262 587.502 120.556C590.828 121.513 594.936 122.355 598.042 123.845L598.772 124.249C600.345 126.381 603.035 125.636 604.734 127.328C603.753 127.375 603.986 127.483 603.312 127.23L592.25 123.5C590.875 122.942 589.707 122.952 588.226 122.887L587.779 122.809C582.133 121.786 576.379 119.785 570.771 118.406C563.117 116.525 555.265 115.244 547.473 114.081C506.161 107.91 461.696 112.007 422.061 125.152C412.507 128.321 403.506 132.445 394.261 136.357C384.498 141.202 375.017 146.669 365.97 152.75C362.105 155.348 358.55 158.357 354.601 160.836C350.873 162.876 347.704 165.743 344.414 168.407C326.811 182.665 312.826 201.451 301.592 221C299.735 224.233 296.94 227.979 295.75 231.413L294.726 231.368C295.932 228.269 297.875 225.209 299.446 222.262C312.838 198.784 329.924 178.317 350.781 161.135L361.691 152.729C362.551 152.227 363.373 151.512 364.18 150.92L389.274 136.59L384.788 126.307C384.4 126.137 382.99 123.242 382.691 122.718L376.831 113.48C371.398 105.739 364.221 98.404 356.531 92.9066C340.032 81.1128 318.229 77.4756 298.427 80.9239C273.388 85.2843 252.817 99.3495 238.381 120.019C236.421 121.072 235.723 122.181 234.507 124C221.808 142.999 218.466 167.196 222.631 189.5C226.898 212.348 239.928 233.807 259.454 246.78C264.302 250.001 269.563 252.876 275 254.949C278.021 256.102 281.051 257.231 284.304 257.523L281.339 266.407Z"/>
	<path fill="#CF7F29" transform="scale(0.488281 0.488281)" d="M238.381 120.019C252.817 99.3495 273.388 85.2843 298.427 80.9239C318.229 77.4756 340.032 81.1128 356.531 92.9066C364.221 98.404 371.398 105.739 376.831 113.48L382.691 122.718C382.99 123.242 384.4 126.137 384.788 126.307L389.274 136.59L364.18 150.92C363.373 151.512 362.551 152.227 361.691 152.729L350.781 161.135C329.924 178.317 312.838 198.784 299.446 222.262C297.875 225.209 295.932 228.269 294.726 231.368L295.75 231.413C295.318 232.39 294.9 233.335 294.352 234.253C290.204 241.209 287.095 249.903 284.304 257.523C281.051 257.231 278.021 256.102 275 254.949C269.563 252.876 264.302 250.001 259.454 246.78C239.928 233.807 226.898 212.348 222.631 189.5C218.466 167.196 221.808 142.999 234.507 124C235.723 122.181 236.421 121.072 238.381 120.019Z"/>
	<path fill="#E1AF5E" transform="scale(0.488281 0.488281)" d="M309.346 84.2123C316.615 83.8981 324.061 84.3527 331.115 86.2698C350.164 91.4471 366.545 103.686 377.61 119.969C381.022 124.99 383.762 130.454 386.75 135.733L386.25 136.303C383.857 133.367 382.181 129.777 380.016 126.654C376.028 120.902 370.471 115.591 365.142 111.06C348.681 97.0667 327.763 90.6404 306.378 92.5361C305.28 92.3721 303.333 92.8022 302.192 92.9411C296.857 93.5902 291.557 95.0602 286.486 96.8093C267.668 103.301 252.663 115.709 242.049 132.499C239.451 136.608 237.588 140.814 235.459 145.156C236.808 133.696 243.604 121.675 250.903 112.925C265.507 95.4188 287.009 86.2826 309.346 84.2123Z"/>
	<path fill="#A14D14" transform="scale(0.488281 0.488281)" d="M238.381 120.019L238.235 120.52C236.742 125.46 233.56 130.042 231.765 135.012C226.819 148.709 223.257 165.478 225.216 180.056C226.346 188.467 229.141 196.131 233.084 203.621C236.791 210.664 242.561 217.186 248.428 222.524C247.294 216.419 246.037 210.269 245.434 204.086C243.286 182.074 247.081 161.98 259.807 143.623C270.371 128.384 285.565 118.074 303.933 114.868C317.622 112.479 332.092 117.083 343.213 125.022C352.481 131.639 358.853 141.062 364.18 150.92C363.373 151.512 362.551 152.227 361.691 152.729C351.026 137.829 337.978 125.369 319.167 122.231C305.406 119.936 292.714 123.23 281.464 131.32C268.839 140.398 259.408 154.478 256.843 169.896C254.28 185.294 257.809 202.94 267.141 215.567C273.57 224.266 282.569 231.272 292.76 234.97L294.726 231.368L295.75 231.413C295.318 232.39 294.9 233.335 294.352 234.253C290.204 241.209 287.095 249.903 284.304 257.523C281.051 257.231 278.021 256.102 275 254.949C269.563 252.876 264.302 250.001 259.454 246.78C239.928 233.807 226.898 212.348 222.631 189.5C218.466 167.196 221.808 142.999 234.507 124C235.723 122.181 236.421 121.072 238.381 120.019Z"/>
	<path fill="#FCDFA3" transform="scale(0.488281 0.488281)" d="M294.726 231.368L292.76 234.97C282.569 231.272 273.57 224.266 267.141 215.567C257.809 202.94 254.28 185.294 256.843 169.896C259.408 154.478 268.839 140.398 281.464 131.32C292.714 123.23 305.406 119.936 319.167 122.231C337.978 125.369 351.026 137.829 361.691 152.729L350.781 161.135C329.924 178.317 312.838 198.784 299.446 222.262C297.875 225.209 295.932 228.269 294.726 231.368Z"/>
	<path fill="#F9CB77" transform="scale(0.488281 0.488281)" d="M299.446 222.262C296.313 219.104 293.345 215.37 291.245 211.444L290.831 210.658C288.996 207.213 287.583 203.696 286.894 199.841C285.204 190.368 287.161 181.013 292.679 173.119L293.103 172.521C298.814 164.294 307.696 158.467 317.25 155.642C328.903 152.196 340.477 155.531 350.781 161.135C329.924 178.317 312.838 198.784 299.446 222.262Z"/>
	<path fill="#73310B" transform="scale(0.488281 0.488281)" d="M272.604 316.673C272.234 313.734 273.066 309.887 273.451 306.945C274.093 302.046 274.504 297.058 275.51 292.221C276.106 300.256 274.682 308.41 275.222 316.579C275.86 326.216 276.71 335.987 278.75 345.441C285.205 375.359 300.627 401.774 323.75 421.827C345.997 441.119 375.658 453.439 404.031 460.334C410.988 462.024 417.99 462.983 425.006 464.298C435.318 476.33 447.19 486.401 461.531 493.35C468.771 496.859 476.352 499.327 484.062 501.566C491.541 502.408 498.772 504.058 506.366 504.547C529.812 506.057 551.386 499.391 571.302 487.581C574.239 485.028 577.747 482.916 580.797 480.455C588.569 474.182 594.44 467.153 600.079 458.995C607.051 457.591 614.432 457.305 621.502 456.129C640.176 453.021 658.085 447.175 675.135 438.958C698.295 427.797 720.49 409.371 733.766 387.111C738.142 379.774 741.257 372.081 744.062 364.036L745.331 366.258C746.382 363.599 746.811 360.885 748.1 358.314C746.841 389.18 732.502 422.225 712.987 445.956C707.388 452.766 700.754 458.91 694.269 464.866L670.4 483.753L671.032 484.965L669.25 484.534L649.01 496.386L643.488 499.147C592.995 523.205 533.023 529.849 477.75 524.616C458.901 522.832 440.386 519.919 422.151 514.729C405.209 510.371 388.541 503.628 372.777 496.098L357.75 487.677C355.562 486.14 354.808 485.299 352.055 485.51L352.844 484.5C348.967 480.928 343.806 478.264 339.605 474.966C330.157 467.551 321.96 458.879 314.228 449.723C282.627 412.302 268.562 365.31 272.604 316.673Z"/>
	<path fill="#A14D14" transform="scale(0.488281 0.488281)" d="M744.062 364.036L745.331 366.258C743.838 370.576 742.996 375.093 741.661 379.466C739.941 385.103 737.703 390.728 735.336 396.126C720.993 428.838 691.973 454.412 660.281 469.717C633.385 482.706 601.15 490.503 571.302 487.581C574.239 485.028 577.747 482.916 580.797 480.455C588.569 474.182 594.44 467.153 600.079 458.995C607.051 457.591 614.432 457.305 621.502 456.129C640.176 453.021 658.085 447.175 675.135 438.958C698.295 427.797 720.49 409.371 733.766 387.111C738.142 379.774 741.257 372.081 744.062 364.036Z"/>
	<path fill="#A14D14" transform="scale(0.488281 0.488281)" d="M272.604 316.673C272.234 313.734 273.066 309.887 273.451 306.945C274.093 302.046 274.504 297.058 275.51 292.221C276.106 300.256 274.682 308.41 275.222 316.579C275.86 326.216 276.71 335.987 278.75 345.441C285.205 375.359 300.627 401.774 323.75 421.827C345.997 441.119 375.658 453.439 404.031 460.334C410.988 462.024 417.99 462.983 425.006 464.298C435.318 476.33 447.19 486.401 461.531 493.35C468.771 496.859 476.352 499.327 484.062 501.566C483.31 501.86 482.665 502.136 481.843 502.154C429.641 503.243 374.902 487.42 334.217 454.003C324.303 445.859 315.05 436.677 307.263 426.468C302.788 420.602 298.934 414.056 295.405 407.584C284.789 388.114 276.905 366.769 274.811 344.535L274.651 343C274.319 341.369 274.454 339.816 274.16 338.25C273.669 335.63 273.718 333.22 273.745 330.5C271.945 327.791 274.123 321.044 272.924 317.535L272.604 316.673Z"/>
	<path fill="#BD671F" transform="scale(0.488281 0.488281)" d="M629.451 137.206L629.89 136.572C631.075 134.784 631.755 132.556 632.695 130.613C634.702 126.462 636.829 122.425 639.25 118.499C652.065 97.7117 671.764 81.8175 695.76 76.2319C718.432 70.9543 742.288 74.5599 762.116 86.8643C786.347 101.901 802.786 123.745 809.023 151.781C814.468 176.258 809.846 202.52 796.462 223.75C785.317 241.429 768.282 255.12 748.629 262.135C744.857 263.481 740.751 264.136 736.877 265.196L733.734 257.278C727.42 236.991 716.739 215.877 703.87 198.96C698.369 191.73 692.104 185.15 685.746 178.68C684.721 178.274 682.869 176.095 681.972 175.285L673.725 168.324C665.674 161.82 656.943 156.232 648.162 150.78C647.997 150.351 646.258 149.141 645.838 148.786L645.309 148.333C639.937 145.181 634.829 141.63 629.102 139.115L629.451 137.206Z"/>
	<path fill="#E1AF5E" transform="scale(0.488281 0.488281)" d="M714.259 86.2178L726.169 87.1248C748.955 90.7001 767.609 104.628 780.991 123.061C789.564 134.867 795.241 150.067 797.126 164.518C797.553 167.794 798.203 170.864 797.686 174.171C796.179 169.915 795.404 165.378 794.024 161.062C789.585 147.175 782.7 134.271 773.118 123.256L772.241 122.173C757.84 105.697 737.274 93.6038 715.103 92.6021C693.681 91.6342 675.025 98.7345 659.25 113.181L659.173 112.5C669.375 99.1922 686.904 90.7041 702.986 87.3198C706.71 86.5361 710.47 86.417 714.259 86.2178Z"/>
	<path fill="#A14D14" transform="scale(0.488281 0.488281)" d="M647.42 146.804L648.195 147.221L655.473 152.174C663.216 135.311 674.419 123.319 692.062 116.799C707.024 111.27 723.798 112.092 738.231 118.812L746.559 123.294C760.534 131.59 771.75 147.877 775.753 163.531L777.652 173.931C779.74 189.561 773.988 205.776 765.711 218.791C763.064 222.954 758.992 226.201 755.249 229.338C770.938 223.571 783.069 215.291 795.659 204.406C789.913 222.78 775.209 239.785 758.253 248.679C750.985 252.492 743.4 255.029 735.415 256.856C733.579 250.963 731.535 244.684 728.58 239.248C739.183 236.674 749.867 228.644 756.501 220.136C766.571 207.223 770.447 191.122 768.528 175C767.918 169.88 766.672 164.689 764.758 159.895C758.242 143.571 745.506 130.734 729.376 123.823C716.798 118.433 703.625 118.145 690.906 123.27C676.773 128.966 665.349 140.44 659.425 154.388L668.882 160.939C677.018 167.331 685.813 174.315 692.46 182.31C689.766 182.232 688.339 180.064 686.502 178.27L685.746 178.68C684.721 178.274 682.869 176.095 681.972 175.285L673.725 168.324C665.674 161.82 656.943 156.232 648.162 150.78C647.997 150.351 646.258 149.141 645.838 148.786L645.309 148.333C645.125 147.488 644.524 146.762 643.747 146.375C643.098 146.051 642.9 146.174 642.374 145.589C641.928 145.095 642.111 145.19 641.52 144.894C640.358 144.314 639.256 143.828 638.17 143.08C637.64 142.714 637.392 142.426 636.779 142.196C635.712 141.795 634.772 141.133 633.828 140.5L634.375 140.248C636.261 141.133 638.346 141.874 640.075 143.026C641.689 144.102 644.896 146.543 646.718 146.753L647.42 146.804Z"/>
	<path fill="#73310B" transform="scale(0.488281 0.488281)" d="M629.451 137.206L629.89 136.572C631.075 134.784 631.755 132.556 632.695 130.613C634.702 126.462 636.829 122.425 639.25 118.499C652.065 97.7117 671.764 81.8175 695.76 76.2319C718.432 70.9543 742.288 74.5599 762.116 86.8643C786.347 101.901 802.786 123.745 809.023 151.781C814.468 176.258 809.846 202.52 796.462 223.75C785.317 241.429 768.282 255.12 748.629 262.135C744.857 263.481 740.751 264.136 736.877 265.196L733.734 257.278C727.42 236.991 716.739 215.877 703.87 198.96C698.369 191.73 692.104 185.15 685.746 178.68L686.502 178.27C688.339 180.064 689.766 182.232 692.46 182.31C705.413 196.63 714.979 212.476 723.914 229.495C725.224 232.331 726.603 236.941 728.58 239.248C731.535 244.684 733.579 250.963 735.415 256.856C743.4 255.029 750.985 252.492 758.253 248.679C775.209 239.785 789.913 222.78 795.659 204.406C802.989 185.322 804.433 164.3 797.807 144.682C789.976 121.495 773.295 99.6214 750.995 88.7153C732.265 79.5547 710.057 77.3644 690.234 84.2619C663.266 93.6458 646.194 113.886 634.028 138.93C635.425 140.286 638.053 141.228 639.804 142.146C642.459 143.538 644.922 145.155 647.42 146.804L646.718 146.753C644.896 146.543 641.689 144.102 640.075 143.026C638.346 141.874 636.261 141.133 634.375 140.248L633.828 140.5C634.772 141.133 635.712 141.795 636.779 142.196C637.392 142.426 637.64 142.714 638.17 143.08C639.256 143.828 640.358 144.314 641.52 144.894C642.111 145.19 641.928 145.095 642.374 145.589C642.9 146.174 643.098 146.051 643.747 146.375C644.524 146.762 645.125 147.488 645.309 148.333C639.937 145.181 634.829 141.63 629.102 139.115L629.451 137.206Z"/>
	<path fill="#E1AF5E" transform="scale(0.488281 0.488281)" d="M668.882 160.939L659.425 154.388C665.349 140.44 676.773 128.966 690.906 123.27C703.625 118.145 716.798 118.433 729.376 123.823C745.506 130.734 758.242 143.571 764.758 159.895C766.672 164.689 767.918 169.88 768.528 175C770.447 191.122 766.571 207.223 756.501 220.136C749.867 228.644 739.183 236.674 728.58 239.248C726.603 236.941 725.224 232.331 723.914 229.495C714.979 212.476 705.413 196.63 692.46 182.31C685.813 174.315 677.018 167.331 668.882 160.939Z"/>
	<path fill="#DA9B53" transform="scale(0.488281 0.488281)" d="M668.882 160.939C675.659 156.83 683.627 152.786 691.5 151.416L692.194 151.28C696.909 150.397 702.457 150.614 707.088 151.808L707.763 151.972C718.538 154.656 726.928 162.55 732.481 171.87C735.851 177.527 737.553 183.78 738.712 190.194C739.494 194.522 739.136 199.467 738.217 203.75C736.54 211.565 731.681 224.232 724.984 228.901C724.451 229.273 724.419 229.266 723.914 229.495C714.979 212.476 705.413 196.63 692.46 182.31C685.813 174.315 677.018 167.331 668.882 160.939Z"/>
	<path fill="#64265A" transform="scale(0.488281 0.488281)" d="M206.304 839.66L206.774 840.344C211.516 847.312 215.401 854.68 220.654 861.353C237.555 882.819 257.726 899.803 281 913.954C298.657 924.69 317.316 933.265 337.666 937.33C360.73 941.937 386.708 942.329 407.005 928.75L414.387 923.046C423.144 915.788 429.647 905.943 434.525 895.764C447.972 899.129 462.202 900.492 476 901.493C500.378 903.263 525.463 903.394 549.779 900.75C561.616 899.463 573.27 896.428 585.041 895.232C593.788 914.18 605.868 927.478 625.847 934.722C657.724 946.281 696.279 937.224 725.994 923.169C754.55 909.664 780.09 889.502 799.506 864.559L814.803 842.759C818.994 844.872 824.355 845.773 828.833 847.265C842.009 851.655 855.849 856.784 867.5 864.466C872.262 867.606 876.818 871.284 879.604 876.365C881.684 880.16 882.011 884.135 880.762 888.266C877.685 898.446 866.858 904.879 858.034 909.59C833.563 922.657 804.854 929.656 777.933 935.579C697.83 953.202 616.046 957.698 534.259 958.667C459.269 959.556 383.587 956.999 309.141 947.445C274.407 942.987 238.965 936.41 205.448 926.19C195.527 923.164 185.883 919.397 176.5 914.976C165.603 909.842 152.956 903.4 147.166 892.202C144.972 887.957 144.093 882.812 145.705 878.195L145.966 877.5C146.547 875.922 147.222 874.524 148.127 873.103L148.517 872.5C149.769 870.535 151.342 868.876 153.003 867.252C166.815 853.738 188.557 846.586 206.304 839.66Z"/>
	<path fill="#CF7F29" transform="scale(0.488281 0.488281)" d="M394.261 136.357C403.506 132.445 412.507 128.321 422.061 125.152C461.696 112.007 506.161 107.91 547.473 114.081C555.265 115.244 563.117 116.525 570.771 118.406C576.379 119.785 582.133 121.786 587.779 122.809L588.226 122.887C589.707 122.952 590.875 122.942 592.25 123.5L603.312 127.23C603.986 127.483 603.753 127.375 604.734 127.328C603.035 125.636 600.345 126.381 598.772 124.249C609.433 127.324 619.402 132.618 629.451 137.206L629.102 139.115C634.829 141.63 639.937 145.181 645.309 148.333L645.838 148.786C646.258 149.141 647.997 150.351 648.162 150.78C656.943 156.232 665.674 161.82 673.725 168.324L681.972 175.285C682.869 176.095 684.721 178.274 685.746 178.68C692.104 185.15 698.369 191.73 703.87 198.96C716.739 215.877 727.42 236.991 733.734 257.278L736.877 265.196C739.812 273.354 741.709 282.03 743.501 290.5C746.971 306.906 749.394 324.491 748.364 341.306C748.415 343.809 749.214 357.06 748.1 358.314C746.811 360.885 746.382 363.599 745.331 366.258L744.062 364.036C741.257 372.081 738.142 379.774 733.766 387.111C720.49 409.371 698.295 427.797 675.135 438.958C658.085 447.175 640.176 453.021 621.502 456.129C614.432 457.305 607.051 457.591 600.079 458.995C594.44 467.153 588.569 474.182 580.797 480.455C577.747 482.916 574.239 485.028 571.302 487.581C551.386 499.391 529.812 506.057 506.366 504.547C498.772 504.058 491.541 502.408 484.062 501.566C476.352 499.327 468.771 496.859 461.531 493.35C447.19 486.401 435.318 476.33 425.006 464.298C417.99 462.983 410.988 462.024 404.031 460.334C375.658 453.439 345.997 441.119 323.75 421.827C300.627 401.774 285.205 375.359 278.75 345.441C276.71 335.987 275.86 326.216 275.222 316.579C274.682 308.41 276.106 300.256 275.51 292.221C275.699 283.937 278.862 274.283 281.339 266.407L284.304 257.523C287.095 249.903 290.204 241.209 294.352 234.253C294.9 233.335 295.318 232.39 295.75 231.413C296.94 227.979 299.735 224.233 301.592 221C312.826 201.451 326.811 182.665 344.414 168.407C347.704 165.743 350.873 162.876 354.601 160.836C358.55 158.357 362.105 155.348 365.97 152.75C375.017 146.669 384.498 141.202 394.261 136.357Z"/>
	<path fill="#A14D14" transform="scale(0.488281 0.488281)" d="M744.062 364.036L748.364 341.306C748.415 343.809 749.214 357.06 748.1 358.314C746.811 360.885 746.382 363.599 745.331 366.258L744.062 364.036Z"/>
	<path fill="#A14D14" transform="scale(0.488281 0.488281)" d="M588.226 122.887C589.707 122.952 590.875 122.942 592.25 123.5L603.312 127.23C603.986 127.483 603.753 127.375 604.734 127.328C603.035 125.636 600.345 126.381 598.772 124.249C609.433 127.324 619.402 132.618 629.451 137.206L629.102 139.115L588.226 122.887Z"/>
	<path fill="#E1AF5E" transform="scale(0.488281 0.488281)" d="M648.162 150.78C656.943 156.232 665.674 161.82 673.725 168.324L681.972 175.285C682.869 176.095 684.721 178.274 685.746 178.68C692.104 185.15 698.369 191.73 703.87 198.96C716.739 215.877 727.42 236.991 733.734 257.278L732.972 257.062C730.757 253.532 729.121 249.59 727.205 245.886L720.339 233.537C708.485 212.279 694.76 192.866 677.24 175.897C672.335 171.146 667.181 166.795 661.867 162.514L651.191 154.22C650.608 153.754 648.781 152.613 648.451 152.023C648.244 151.652 648.259 151.194 648.162 150.78Z"/>
	<path fill="#F9CB77" transform="scale(0.488281 0.488281)" d="M456.346 127.644C478.352 120.074 503.453 115.658 526.758 117.173C547.115 118.497 568.526 124.602 586.805 133.573L597.497 139.413C595.187 139.834 592.243 138.527 590.003 137.866L575.155 133.633C564.334 130.873 553.159 128.829 542.104 127.286C528.1 125.331 514.365 124.935 500.256 124.979C487.332 125.019 473.523 125.518 460.774 127.747C459.08 128.043 458.029 128.072 456.346 127.644Z"/>
	<path fill="#73310B" transform="scale(0.488281 0.488281)" d="M632.922 217.372C640.856 225.772 644.142 236.411 648.92 246.622C637.141 235.706 623.889 224.848 607.689 221.56L606.75 221.375L603.321 220.76C594.231 219.668 586.418 221.787 579.294 227.514C583.764 219.392 588.933 211.352 597.534 207.139C603.948 203.997 611.072 204.489 617.64 206.87L623.438 209.352C626.858 211.813 629.88 214.46 632.922 217.372Z"/>
	<path fill="#DA9B53" transform="scale(0.488281 0.488281)" d="M667.641 341.206C681.169 340.677 696.678 342.478 707.616 351.262C711.522 354.399 714.988 358.668 715.371 363.854C715.724 368.646 713.574 373.467 710.415 376.969C702.322 385.94 688.136 388.487 676.623 389.228C664.451 390.271 647.256 386.932 637.5 379.059C633.482 375.817 629.289 370.648 629.111 365.25C628.983 361.34 631.241 357.593 633.713 354.742C641.636 345.605 656.103 342.078 667.641 341.206Z"/>
	<path fill="#A14D14" transform="scale(0.488281 0.488281)" d="M596.841 251.183C602.893 250.495 610.671 253.133 615.68 256.405C624.206 261.976 630.914 272.265 632.922 282.214C635.04 292.705 633.919 303.314 627.647 312.259C621.392 321.179 612.539 325.322 602.03 327.073C597.665 327.131 593.668 327.069 589.456 325.833C580.837 323.303 572.401 317.244 568.113 309.272L567.803 308.688C563.271 300.331 561.681 289.683 564.141 280.416L564.394 279.5C565.701 274.638 567.656 270.679 570.435 266.5L571.538 264.908C578.076 256.733 586.593 252.483 596.841 251.183Z"/>
	<path fill="#000100" transform="scale(0.488281 0.488281)" d="M592.659 259.623C598.209 259.353 602.903 260.168 607.819 262.973C614.308 266.676 618.452 273.384 620.27 280.486C622.375 288.715 621.574 296.843 617.147 304.227C613.085 311 606.746 314.711 599.241 316.505C593.495 316.63 588.386 316.188 583.301 313.151C576.317 308.98 571.984 301.987 570.142 294.21C568.399 286.85 569.456 278.437 573.585 272.033C578.065 265.086 584.669 261.208 592.659 259.623Z"/>
	<path fill="white" transform="scale(0.488281 0.488281)" d="M593.156 288.25C593.668 288.173 593.711 288.134 594.305 288.232C595.768 288.472 596.942 289.465 597.601 290.75C598.221 291.96 598.247 293.42 597.75 294.681C597.155 296.192 596.173 296.77 594.75 297.378C594.341 297.424 593.912 297.493 593.5 297.433C592.04 297.218 590.97 296.548 590.277 295.22C589.6 293.921 589.379 292.355 589.988 291C590.641 289.549 591.819 288.938 593.156 288.25Z"/>
	<path fill="white" transform="scale(0.488281 0.488281)" d="M602.134 267.575C604.068 267.455 606.096 267.232 607.948 267.925C610.604 268.919 612.891 271.222 613.997 273.824C615.014 276.218 614.788 279.789 613.751 282.135C612.331 285.344 610.08 286.647 606.983 287.938C605.296 288.036 603.388 288.265 601.743 287.815C599.263 287.138 597.319 285.225 596.024 283.073C594.478 280.503 594.223 277.34 595.102 274.5C596.208 270.924 598.99 269.152 602.134 267.575Z"/>
	<path fill="#E1AF5E" transform="scale(0.488281 0.488281)" d="M456.346 127.644C458.029 128.072 459.08 128.043 460.774 127.747C473.523 125.518 487.332 125.019 500.256 124.979C514.365 124.935 528.1 125.331 542.104 127.286C553.159 128.829 564.334 130.873 575.155 133.633L590.003 137.866C592.243 138.527 595.187 139.834 597.497 139.413C611.332 147.17 625.004 157.541 634.904 170.009C637.241 172.953 640.007 176.035 640.992 179.75C642.844 186.734 638.222 209.102 634.43 215.615C634.021 216.319 633.511 216.821 632.922 217.372C629.88 214.46 626.858 211.813 623.438 209.352L623.236 208.687C622.402 206.766 619.215 204.799 617.602 203.4C603.902 191.519 589.46 181.949 573.042 174.176C513.065 145.781 439.531 143.688 377.253 165.864C395.831 150.609 417.083 140.56 439.647 132.74C444.984 130.891 450.801 128.642 456.346 127.644Z"/>
	<defs>
		<linearGradient id="gradient_0" gradientUnits="userSpaceOnUse" x1="429.82819" y1="436.1814" x2="597.74542" y2="350.63065">
			<stop offset="0" stop-color="#E0B267"/>
			<stop offset="1" stop-color="#FFFFCE"/>
		</linearGradient>
	</defs>
	<path fill="url(#gradient_0)" transform="scale(0.488281 0.488281)" d="M461.547 316.277C484.572 303.004 511.427 299.35 537.034 306.25C563.385 313.351 586.892 330.474 600.534 354.295C605.19 362.425 608.439 370.802 610.88 379.821C612.224 382.685 612.628 385.505 613.339 388.539C615.824 399.134 616.649 409.989 614.745 420.75C613.515 427.704 611.818 434.141 609.417 440.801C607.047 447.375 602.891 452.762 600.079 458.995C594.44 467.153 588.569 474.182 580.797 480.455C577.747 482.916 574.239 485.028 571.302 487.581C551.386 499.391 529.812 506.057 506.366 504.547C498.772 504.058 491.541 502.408 484.062 501.566C476.352 499.327 468.771 496.859 461.531 493.35C447.19 486.401 435.318 476.33 425.006 464.298C412.568 446.029 405.115 425.739 406.88 403.331C409.32 372.357 425.059 345.383 448.455 325.335C452.689 322.488 456.853 318.218 461.547 316.277Z"/>
	<path fill="#73310B" transform="scale(0.488281 0.488281)" d="M509.403 396.015L514.965 396.009C514.948 404.73 513.43 436.845 516.962 442.5C518.406 444.812 520.47 446.943 523.233 447.521L523.75 447.62C526.59 448.243 529.93 448.297 532.8 447.743C548.826 444.647 561.36 432.616 569.675 419.144C572.06 415.28 573.728 410.928 576.254 407.203C574.307 413.499 571.826 419.314 568.596 425.062C559.918 440.501 546.9 453.325 529.483 458.097C513.74 462.41 495.69 460.685 481.53 452.487C464.915 442.866 454.634 424.644 449.849 406.5L450.25 406.014C451.741 409.175 452.936 412.416 454.606 415.5C460.708 426.765 469.138 436.925 480.218 443.557C486.024 447.033 495.092 451.19 501.99 449.253L502.5 449.096C503.947 448.666 505.08 448.228 506.217 447.189C507.577 445.947 508.261 444.728 508.616 442.919C509.71 437.338 509.066 430.605 509.079 424.898L509.403 396.015Z"/>
	<defs>
		<linearGradient id="gradient_1" gradientUnits="userSpaceOnUse" x1="466.35321" y1="368.50772" x2="560.88953" y2="341.88309">
			<stop offset="0" stop-color="#0F0F02"/>
			<stop offset="1" stop-color="#381B01"/>
		</linearGradient>
	</defs>
	<path fill="url(#gradient_1)" transform="scale(0.488281 0.488281)" d="M509.403 396.015C497.126 391.261 486.465 384.73 477.101 375.378C470.009 368.296 459.429 355.915 459.622 345.25C459.717 339.943 463.042 335.329 466.82 331.9C478.632 321.181 502.379 318.35 517.5 319.197C530.477 319.923 548.662 323.939 557.695 334.163C559.918 336.679 561.432 339.177 562.062 342.5L562.19 343.144C563.52 350.615 557.195 361.292 552.894 367.156C542.987 380.664 529.649 388.645 514.965 396.009L509.403 396.015Z"/>
	<path fill="#69573F" transform="scale(0.488281 0.488281)" d="M528.608 325.628C533.838 326.882 538.459 328.311 543.455 330.265C547.713 331.932 553.138 335.351 554.936 339.75C555.732 341.696 555.215 343.512 554.378 345.352C552.806 348.807 550.202 351.735 547.713 354.556C547.343 352.439 547.884 350.209 547.607 347.988C549.081 347.294 549.761 345.602 550.525 344.25C550.562 342.716 550.792 341.044 550.209 339.597C549.63 337.611 548.941 336.046 547.371 334.634C540.903 328.816 526.992 327.891 518.617 328.016L518.684 327.531L522.5 326.255L523.245 326.75C525.517 326.795 526.579 326.808 528.608 325.628Z"/>
	<path fill="#483E33" transform="scale(0.488281 0.488281)" d="M474.093 337.44C474.783 335.691 476.677 333.975 478.174 332.827C481.683 330.134 485.839 328.653 490.04 327.452C502.565 323.873 515.786 324.276 528.608 325.628C526.579 326.808 525.517 326.795 523.245 326.75L522.5 326.255L518.684 327.531L505.221 328.848L492.872 331.795C492.202 332.119 491.608 332.206 491.25 332.878L492.236 333.355L490.25 333.755L490.719 333.776C491.944 333.84 492.795 333.908 493.912 334.486C490.008 335.279 485.979 335.08 482.023 335.657C479.429 336.035 476.594 337.374 474.093 337.44Z"/>
	<defs>
		<linearGradient id="gradient_2" gradientUnits="userSpaceOnUse" x1="525.91455" y1="340.36533" x2="528.96936" y2="332.63077">
			<stop offset="0" stop-color="#7E7766"/>
			<stop offset="1" stop-color="#A69B8B"/>
		</linearGradient>
	</defs>
	<path fill="url(#gradient_2)" transform="scale(0.488281 0.488281)" d="M518.684 327.531L518.617 328.016C526.992 327.891 540.903 328.816 547.371 334.634C548.941 336.046 549.63 337.611 550.209 339.597C550.792 341.044 550.562 342.716 550.525 344.25C549.761 345.602 549.081 347.294 547.607 347.988C547.299 347.392 546.966 346.87 546.52 346.368C537.242 335.919 522.369 334.633 509.225 333.93L493.912 334.486C492.795 333.908 491.944 333.84 490.719 333.776L490.25 333.755L492.236 333.355L491.25 332.878C491.608 332.206 492.202 332.119 492.872 331.795L505.221 328.848L518.684 327.531Z"/>
	<path fill="#69573F" transform="scale(0.488281 0.488281)" d="M493.912 334.486C492.795 333.908 491.944 333.84 490.719 333.776L490.25 333.755L492.236 333.355L491.25 332.878C491.608 332.206 492.202 332.119 492.872 331.795C493.974 332.369 493.91 332.561 495.188 332.336C497.564 331.918 500.224 332.179 502.635 332.239C503.413 332.88 503.147 332.505 503.502 333.31C505.399 333.465 507.37 333.505 509.225 333.93L493.912 334.486Z"/>
	<defs>
		<linearGradient id="gradient_3" gradientUnits="userSpaceOnUse" x1="525.70667" y1="339.3494" x2="530.91278" y2="326.87338">
			<stop offset="0" stop-color="#ADAFA6"/>
			<stop offset="1" stop-color="#FFFFED"/>
		</linearGradient>
	</defs>
	<path fill="url(#gradient_3)" transform="scale(0.488281 0.488281)" d="M518.684 327.531L518.617 328.016C526.992 327.891 540.903 328.816 547.371 334.634C548.941 336.046 549.63 337.611 550.209 339.597L550.132 339.707C550.084 340.911 550.018 341.971 549.75 343.152C549.295 342.292 548.812 341.423 548.093 340.75C546.515 339.274 544.059 338.178 542.114 337.23C532.821 332.704 522.186 331.236 511.949 331.06L504.75 331.012C504.539 329.952 504.796 329.803 505.221 328.848L518.684 327.531Z"/>
	<defs>
		<linearGradient id="gradient_4" gradientUnits="userSpaceOnUse" x1="474.09894" y1="352.11603" x2="545.97888" y2="359.25031">
			<stop offset="0" stop-color="#231E0C"/>
			<stop offset="1" stop-color="#644226"/>
		</linearGradient>
	</defs>
	<path fill="url(#gradient_4)" transform="scale(0.488281 0.488281)" d="M509.225 333.93C522.369 334.633 537.242 335.919 546.52 346.368C546.966 346.87 547.299 347.392 547.607 347.988C547.884 350.209 547.343 352.439 547.713 354.556C546.681 356.137 545.192 357.541 543.993 359.011C540.196 363.663 535.689 368.912 530.721 372.348L529.926 372.89C527.168 374.791 524.283 376.583 521.103 377.69C516.852 379.171 513.755 378.94 509.792 376.92C497.905 370.862 488.752 361.118 481.215 350.286C478.44 346.298 475.557 342.11 474.093 337.44C476.594 337.374 479.429 336.035 482.023 335.657C485.979 335.08 490.008 335.279 493.912 334.486L509.225 333.93Z"/>
	<path fill="#E1AF5E" transform="scale(0.488281 0.488281)" d="M461.547 316.277L462.237 316.277C464.308 316.206 467.32 314.163 469.191 313.207L469.755 314C469.412 314.849 469.699 314.475 468.97 314.984C465.599 317.339 461.442 319.772 458.571 322.696C457.269 324.022 455.341 324.873 453.81 325.945C451.806 327.347 449.894 329.045 448.16 330.769C444.915 333.995 442.552 338.21 440.142 342.064C435.081 350.156 430.077 359.063 426.858 368.068C422.027 381.583 419.495 396.668 421.618 411C424.786 432.392 435.618 451.865 452.973 465.047C472.318 479.742 500.373 487.424 524.521 483.924C552.511 479.866 577.319 468.07 594.331 444.75C606.243 428.421 614.395 406.273 610.996 385.804C610.667 383.824 610.411 381.801 610.88 379.821C612.224 382.685 612.628 385.505 613.339 388.539C615.824 399.134 616.649 409.989 614.745 420.75C613.515 427.704 611.818 434.141 609.417 440.801C607.047 447.375 602.891 452.762 600.079 458.995C594.44 467.153 588.569 474.182 580.797 480.455C577.747 482.916 574.239 485.028 571.302 487.581C551.386 499.391 529.812 506.057 506.366 504.547C498.772 504.058 491.541 502.408 484.062 501.566C476.352 499.327 468.771 496.859 461.531 493.35C447.19 486.401 435.318 476.33 425.006 464.298C412.568 446.029 405.115 425.739 406.88 403.331C409.32 372.357 425.059 345.383 448.455 325.335C452.689 322.488 456.853 318.218 461.547 316.277Z"/>
	<defs>
		<linearGradient id="gradient_5" gradientUnits="userSpaceOnUse" x1="276.86356" y1="332.53394" x2="476.59814" y2="296.07962">
			<stop offset="0" stop-color="#A54E15"/>
			<stop offset="1" stop-color="#BE6A22"/>
		</linearGradient>
	</defs>
	<path fill="url(#gradient_5)" transform="scale(0.488281 0.488281)" d="M295.75 231.413C296.94 227.979 299.735 224.233 301.592 221C312.826 201.451 326.811 182.665 344.414 168.407C347.704 165.743 350.873 162.876 354.601 160.836C367.806 174.044 375.595 191.79 381.288 209.325C382.738 213.791 383.476 218.714 385.183 223.042C392.102 214.489 399.993 206.782 411.527 205.595C418.971 204.829 426.285 206.588 432.063 211.47C437.071 215.702 440.5 220.786 443.942 226.29C451.465 235.305 458.707 247.924 462.904 258.858L468.505 272.297C468.677 272.814 469.055 273.243 469.255 273.75L469.413 274.67L469.755 275.5C470.283 276.88 470.514 278.274 470.913 279.67L471.255 280.5C472.103 282.624 472.692 284.593 473.121 286.84L474.744 292.86C474.987 294.071 474.794 293.298 475.255 294.5C476.115 296.741 476.488 299.214 477.255 301.5L477.502 302.67C477.695 303.497 478.018 304.204 478.255 305C478.483 305.765 478.42 306.187 478.755 307C478.137 307.683 477.55 308.05 476.75 308.5L476.002 308.502L474.25 309.255L473.502 309.502L473.033 309.682C471.662 310.195 470.559 310.601 469.25 311.255L468.502 311.502L467 312.255L461.25 315.255L460.625 315.503L455 319.377C452.703 321.136 449.704 322.632 448.455 325.335C425.059 345.383 409.32 372.357 406.88 403.331C405.115 425.739 412.568 446.029 425.006 464.298C417.99 462.983 410.988 462.024 404.031 460.334C375.658 453.439 345.997 441.119 323.75 421.827C300.627 401.774 285.205 375.359 278.75 345.441C276.71 335.987 275.86 326.216 275.222 316.579C274.682 308.41 276.106 300.256 275.51 292.221C275.699 283.937 278.862 274.283 281.339 266.407L284.304 257.523C287.095 249.903 290.204 241.209 294.352 234.253C294.9 233.335 295.318 232.39 295.75 231.413Z"/>
	<path fill="#73310B" transform="scale(0.488281 0.488281)" d="M385.183 223.042C392.102 214.489 399.993 206.782 411.527 205.595C418.971 204.829 426.285 206.588 432.063 211.47C437.071 215.702 440.5 220.786 443.942 226.29C443.208 226.233 443.482 226.306 442.806 226.054C436.687 223.778 430.999 222.143 424.413 222.014C405.118 221.636 388.631 231.878 375.274 244.828C377.434 236.93 380.678 229.873 385.183 223.042Z"/>
	<path fill="#DA9B53" transform="scale(0.488281 0.488281)" d="M349.741 342.207C359.047 341.926 369.046 343.224 377.528 347.234C383.048 349.844 389.336 354.282 391.25 360.41C392.377 364.019 392.177 367.872 390.359 371.22C386.964 377.471 379.491 381.33 372.931 383.316C367.591 384.933 362.464 385.807 356.917 386.435C344.949 386.752 331.361 384.54 321.75 376.799C318.033 373.805 314.947 369.678 314.613 364.75C314.34 360.737 316.349 356.795 318.933 353.868C326.272 345.554 339.211 342.911 349.741 342.207Z"/>
	<path fill="#A14D14" transform="scale(0.488281 0.488281)" d="M422.755 251.655C424.976 251.569 427.296 251.342 429.473 251.871C435.571 253.35 440.983 255.705 445.874 259.685C448.546 261.86 451.009 264.334 452.758 267.331C456.173 273.182 457.783 278.276 458.583 285C459.072 289.109 458.782 293.628 457.661 297.626L457.405 298.5C456.288 302.404 454.658 306.226 452.328 309.573C445.75 319.023 438.162 324.318 426.756 326.492C423.164 326.799 419.354 326.827 415.835 325.971C408.213 324.117 400.372 319.182 396.268 312.383C393.356 307.557 391.11 302.47 390.199 296.857C388.419 285.885 391.819 273.811 398.387 264.934C404.288 256.957 413.207 253.144 422.755 251.655Z"/>
	<path fill="#000100" transform="scale(0.488281 0.488281)" d="M423.169 259.099C429.195 258.421 434.813 259.209 440.039 262.573C446.303 266.606 449.655 272.84 451.347 279.955C453.186 287.687 451.704 296.697 447.422 303.391C443.063 310.208 437.087 313.494 429.354 315.263C423.256 315.718 417.415 314.878 412.219 311.506C406.215 307.612 401.739 299.842 400.415 292.89C399.002 285.474 400.223 277.215 404.558 270.924C409.088 264.349 415.429 260.608 423.169 259.099Z"/>
	<path fill="white" transform="scale(0.488281 0.488281)" d="M423.127 288.75L424.053 288.495C425.561 288.237 427.317 288.466 428.431 289.579C429.575 290.722 429.716 292.218 429.513 293.75C429.291 295.424 428.037 296.304 426.75 297.199C426.346 297.378 426.213 297.464 425.719 297.527C424.264 297.713 422.669 297.462 421.603 296.392C420.496 295.281 420.251 293.503 420.502 292C420.779 290.342 421.855 289.636 423.127 288.75Z"/>
	<path fill="white" transform="scale(0.488281 0.488281)" d="M433.576 267.03C435.664 266.877 437.493 266.752 439.5 267.435C442.421 268.429 444.675 271.135 445.877 273.897C446.848 276.13 446.95 279.384 446.011 281.646C444.508 285.27 442.114 286.928 438.557 288.331L438.085 288.326C436.257 288.347 434.445 288.478 432.663 287.968C430.087 287.232 427.702 285.155 426.426 282.812C425.115 280.406 424.879 276.331 425.851 273.806C427.301 270.039 430.088 268.512 433.576 267.03Z"/>
	<path fill="#73310B" transform="scale(0.488281 0.488281)" d="M649.01 496.386L669.25 484.534L671.032 484.965L671.305 485.255L676.958 487.731C685.452 490.294 693.761 496.244 701.096 501.089C741.095 527.509 773.315 564.302 795.967 606.5C810.865 634.253 821.321 665.16 826.484 696.25L830.291 726.093C831.334 732.783 833.93 739.513 835.38 746.187C839.851 766.757 837.219 786.647 831.184 806.592C827.298 819.434 820.907 830.899 814.803 842.759L799.506 864.559C780.09 889.502 754.55 909.664 725.994 923.169C696.279 937.224 657.724 946.281 625.847 934.722C605.868 927.478 593.788 914.18 585.041 895.232C573.27 896.428 561.616 899.463 549.779 900.75C525.463 903.394 500.378 903.263 476 901.493C462.202 900.492 447.972 899.129 434.525 895.764C429.647 905.943 423.144 915.788 414.387 923.046L407.005 928.75C386.708 942.329 360.73 941.937 337.666 937.33C317.316 933.265 298.657 924.69 281 913.954C257.726 899.803 237.555 882.819 220.654 861.353C215.401 854.68 211.516 847.312 206.774 840.344L206.304 839.66L193.791 813.802C185.947 793.436 183.223 771.506 186.283 749.903C187.496 741.337 189.439 732.963 193.154 725.099C195.202 720.761 194.965 716.065 195.377 711.354C195.858 705.859 196.472 700.276 197.519 694.859C201.073 676.464 205.396 658.209 211.841 640.586C216.478 627.907 222.302 615.677 228.59 603.746C232.953 595.467 237.445 587.228 242.785 579.529C266.312 545.61 295.52 512.858 332.642 493.524C336.488 491.52 340.396 489.988 344.385 488.329C346.963 487.256 349.279 486.015 352.055 485.51C354.808 485.299 355.562 486.14 357.75 487.677L372.777 496.098C388.541 503.628 405.209 510.371 422.151 514.729C440.386 519.919 458.901 522.832 477.75 524.616C533.023 529.849 592.995 523.205 643.488 499.147L649.01 496.386Z"/>
	<path fill="#BD671F" transform="scale(0.488281 0.488281)" d="M736.965 656.497C756.95 656.327 775.016 660.621 791.958 671.541C796.075 674.195 799.657 678.1 803.808 680.488L805.371 682.419C806.477 684.231 809.106 687.127 811.282 687.523L812.271 687.568C813.088 688.227 814.72 703.141 815.085 705.329C805.145 693.993 792.096 684.15 778.149 678.283C751.126 666.914 723.123 668.163 696.201 679.23C695.159 677.534 695.365 671.785 695.196 669.566C695.821 668.798 698.208 667.96 699.191 667.488C711.184 661.723 723.828 658.312 736.965 656.497Z"/>
	<path fill="#CF7F29" transform="scale(0.488281 0.488281)" d="M397.823 756.474C400.977 760.658 403.457 765.439 406.018 770C418.286 791.846 426.152 815.308 427.959 840.395C428.377 846.2 428.833 852.255 427.972 858.043L427.897 858.508C425.768 863.709 418.458 868.366 413.5 870.486C405.629 873.852 395.872 873.786 387.645 871.706C385.459 871.153 382.769 869.833 380.561 869.993L380.539 869.679L380.746 869.324C387.211 856.079 386.69 838.585 382.646 824.756C392.276 818.157 399.801 812.337 403.678 800.845C407.522 789.449 406.347 780.058 402.305 768.911C401.35 766.276 400.548 763.455 399.177 761C398.348 759.513 398.084 758.716 397.884 757.033L397.823 756.474Z"/>
	<path fill="#A14D14" transform="scale(0.488281 0.488281)" d="M441.99 849.182C449.253 851.406 456.452 853.895 463.858 855.63C489.97 861.75 517.614 862.69 544.108 858.623C555.994 856.798 567.493 853.713 579.03 850.392C578.939 861.111 579.654 870.714 581.757 881.239C569.975 883.711 558.446 886.02 546.445 887.34C511.056 891.231 473.946 889.19 439.09 882.23C441.395 871.113 441.945 860.48 441.99 849.182Z"/>
	<path fill="#BD671F" transform="scale(0.488281 0.488281)" d="M649.01 496.386L649.37 496.788C655.594 503.627 662.951 509.346 668.926 516.473C692.185 544.224 709.574 578.24 722.101 612L736.965 656.497C723.828 658.312 711.184 661.723 699.191 667.488C698.208 667.96 695.821 668.798 695.196 669.566C694.238 654.482 691.373 639.318 688.127 624.574C681.499 594.47 672.2 565.694 658.57 538C656.219 533.224 653.658 525.961 650.198 522.096C647.425 519.837 644.784 503.432 643.488 499.147L649.01 496.386Z"/>
	<path fill="#CF7F29" transform="scale(0.488281 0.488281)" d="M649.01 496.386L669.25 484.534L671.032 484.965L671.305 485.255L676.958 487.731L686.24 493.277C695.486 499.278 704.435 505.622 712.977 512.596C766.046 555.922 798.101 616.914 811.463 683.429L812.271 687.568L811.282 687.523C809.106 687.127 806.477 684.231 805.371 682.419L803.808 680.488C799.657 678.1 796.075 674.195 791.958 671.541C775.016 660.621 756.95 656.327 736.965 656.497L722.101 612C709.574 578.24 692.185 544.224 668.926 516.473C662.951 509.346 655.594 503.627 649.37 496.788L649.01 496.386Z"/>
	<path fill="#E1AF5E" transform="scale(0.488281 0.488281)" d="M675.513 491.733C679.745 493.62 683.218 496.61 686.971 499.285L701.626 509.711L714.683 520.605C721.154 525.642 727.032 532.222 732.684 538.173C739.471 545.318 746.188 552.591 752.114 560.479C773.122 588.444 788.04 621.614 798.105 655L803.384 673.737C804.04 676.229 805.146 678.96 805.343 681.523L805.371 682.419L803.808 680.488C801.884 669.017 797.307 657.083 793.135 646.232C782.559 618.721 768.789 591.106 751.49 567.165C742.132 554.215 731.025 541.77 719.677 530.52C713.241 524.139 706.689 517.537 699.738 511.724C691.729 505.027 683.032 498.979 675.513 491.733Z"/>
	<path fill="#A14D14" transform="scale(0.488281 0.488281)" d="M210.487 723.422C221.435 739.608 233.918 753.932 247.067 768.332C250.015 771.56 253.662 776.593 257.444 778.563L257.808 778.249C258.327 780.032 259.857 781.34 261.095 782.664L271.444 792.798C298.322 818.423 325.522 842.545 358.294 860.531C364.752 864.075 373.133 868.849 380.539 869.679L380.561 869.993C382.769 869.833 385.459 871.153 387.645 871.706C395.872 873.786 405.629 873.852 413.5 870.486C418.458 868.366 425.768 863.709 427.897 858.508C428.117 872.583 422.288 889.329 414.263 900.75C404.94 914.019 391.543 921.747 375.696 924.407C356.201 927.679 336.472 923.15 318.17 916.519C304.213 911.463 290.263 904.768 278.173 896.098C240.419 869.021 208.154 831.654 200.567 784.479C197.886 767.805 198.709 750.877 204.826 735.014C206.322 731.135 208.048 726.807 210.487 723.422Z"/>
	<path fill="#E1AF5E" transform="scale(0.488281 0.488281)" d="M220.561 765.614C223.811 765.287 227.379 765.115 230.491 766.254C236.161 768.33 241.046 773.57 243.347 779.076C245.136 783.358 245.758 789.056 243.901 793.41C242.393 796.95 239.414 798.748 236.05 800.199C232.532 800.749 228.978 800.156 225.69 798.836C220.321 796.682 215.595 792.077 213.336 786.766C211.335 782.061 210.673 776.768 212.763 771.98C214.307 768.443 217.18 766.987 220.561 765.614Z"/>
	<path fill="#E1AF5E" transform="scale(0.488281 0.488281)" d="M257.808 778.249C258.327 780.032 259.857 781.34 261.095 782.664L271.444 792.798C298.322 818.423 325.522 842.545 358.294 860.531C364.752 864.075 373.133 868.849 380.539 869.679L380.561 869.993C377.162 877.023 372.86 883.72 366.629 888.584C356.088 896.811 343.876 899.081 330.844 897.332C326.839 896.794 322.795 895.412 319 894.043C301.196 887.619 284.807 874.308 273.346 859.405C260.686 842.944 250.338 816.711 253.339 795.659C254.19 789.685 255.839 784.338 257.444 778.563L257.808 778.249Z"/>
	<path fill="#DA9B53" transform="scale(0.488281 0.488281)" d="M364.191 702.784C368.444 679.874 379.654 656.27 391.077 636.169C396.487 626.649 402.604 616.527 409.937 608.384C410.534 618.79 411.133 629.284 412.834 639.578C419.726 681.276 439.93 717.672 471.488 745.693C496.993 768.34 528.381 784.862 559.75 797.81L578.971 805.033C581.441 805.903 584.617 806.511 586.897 807.671C582.736 822.093 580.254 835.434 579.03 850.392C567.493 853.713 555.994 856.798 544.108 858.623C517.614 862.69 489.97 861.75 463.858 855.63C456.452 853.895 449.253 851.406 441.99 849.182L441.07 835.035C439.492 819.782 435.162 804.712 429.52 790.5C415.546 755.302 393.517 726.53 364.191 702.784Z"/>
	<path fill="#CF7F29" transform="scale(0.488281 0.488281)" d="M646.385 729.898C668.453 705.499 700.452 683.67 734.39 682.011C738.875 681.792 743.544 681.77 748 682.303C770.399 684.981 792.846 695.58 807.137 713.397C821.292 731.043 827.027 755.345 824.525 777.56C823.688 784.998 821.632 791.963 819.528 799.118C816.524 802.565 815.074 807.362 812.388 811.205C803.273 824.246 791.793 836.644 779.018 846.157C774.22 844.301 769.648 840.959 765.134 838.438L765.112 838.123C756.798 835 749.41 829.692 742 824.902C726.641 814.975 711.512 804.674 697.276 793.179L683.74 782.313C681.146 780.145 678.609 777.294 675.711 775.605L674.369 773.525L674.134 773.603C670.886 771.64 668.553 768.543 666.044 765.756C656.282 754.91 650.064 744.056 646.385 729.898Z"/>
	<path fill="#F9CB77" transform="scale(0.488281 0.488281)" d="M796.52 768.147C798.108 768.002 799.68 768.204 801.25 768.446C804.714 768.979 807.607 771.148 809.54 774.043C811.776 777.392 812.959 781.857 812.189 785.842L812.049 786.5C811.691 788.227 810.967 789.831 809.905 791.25C806.9 795.262 802.84 796.646 798.121 797.416C795.928 797.341 793.93 797.082 791.843 796.372C788.069 795.087 784.774 792.29 783.095 788.655L782.845 788.09C782.578 787.498 782.315 786.924 782.164 786.288C781.22 782.32 782.413 777.573 784.742 774.304C787.536 770.381 791.955 768.817 796.52 768.147Z"/>
	<path fill="#F9CB77" transform="scale(0.488281 0.488281)" d="M773.387 720.55C776.698 720.464 779.439 720.461 782.529 721.907C787.04 724.017 790.467 728.383 792.005 733.055C793.437 737.402 792.525 742.026 790.364 745.96C787.944 750.366 784.157 752.668 779.459 754.012C775.808 754.287 772.619 754.099 769.221 752.63C765.41 750.982 762.254 747.564 760.879 743.656C759.3 739.167 759.255 734.028 761.506 729.75C764.138 724.747 768.104 722.15 773.387 720.55Z"/>
	<path fill="#F9CB77" transform="scale(0.488281 0.488281)" d="M732.807 694.665C737.181 694.925 740.714 695.401 744.388 698.03C748.055 700.654 750.86 705.642 751.413 710.103C752.143 715.982 750.842 721.162 747.001 725.781C743.281 730.254 738.909 731.681 733.364 732.265C729.613 732.092 726.34 731.446 723.079 729.42C718.613 726.644 716.042 722.134 714.941 717.114C713.81 711.961 715.204 706.513 718.25 702.267C721.865 697.227 726.931 695.437 732.807 694.665Z"/>
	<path fill="#FCDFA3" transform="scale(0.488281 0.488281)" d="M674.369 773.525C688.373 760.62 705.268 751.211 724.783 752.112C737.034 752.677 748.856 757.873 757.061 767.122C768.036 779.494 772.032 797.517 770.887 813.673C770.329 821.548 768.464 830.92 765.112 838.123C756.798 835 749.41 829.692 742 824.902C726.641 814.975 711.512 804.674 697.276 793.179L683.74 782.313C681.146 780.145 678.609 777.294 675.711 775.605L674.369 773.525Z"/>
	<defs>
		<linearGradient id="gradient_6" gradientUnits="userSpaceOnUse" x1="256.89426" y1="793.55518" x2="372.17966" y2="718.64801">
			<stop offset="0" stop-color="#CD6F1B"/>
			<stop offset="1" stop-color="#E1983B"/>
		</linearGradient>
	</defs>
	<path fill="url(#gradient_6)" transform="scale(0.488281 0.488281)" d="M210.487 723.422C221.355 704.542 237.827 690.078 259.107 684.302L271.29 681.845C301.131 677.48 329.439 689.547 352.733 707.301C370.058 720.506 386.772 737.614 397.823 756.474L397.884 757.033C398.084 758.716 398.348 759.513 399.177 761C400.548 763.455 401.35 766.276 402.305 768.911C406.347 780.058 407.522 789.449 403.678 800.845C399.801 812.337 392.276 818.157 382.646 824.756C386.69 838.585 387.211 856.079 380.746 869.324L380.539 869.679C373.133 868.849 364.752 864.075 358.294 860.531C325.522 842.545 298.322 818.423 271.444 792.798L261.095 782.664C259.857 781.34 258.327 780.032 257.808 778.249L257.444 778.563C253.662 776.593 250.015 771.56 247.067 768.332C233.918 753.932 221.435 739.608 210.487 723.422Z"/>
	<path fill="#F9CB77" transform="scale(0.488281 0.488281)" d="M245.056 720.633C247.75 720.764 250.222 720.958 252.75 722.034C258.3 724.399 262.273 729.589 264.496 735.039C265.944 738.588 266.978 743.756 265.334 747.416L265.052 748L264.206 749.665C261.408 754.009 257.867 755.594 253.058 756.694C248.914 756.446 245.234 755.33 241.75 753.014C236.417 749.471 232.559 743.969 231.454 737.635C230.733 733.507 231.004 729.989 233.503 726.548C236.356 722.619 240.444 721.342 245.056 720.633Z"/>
	<path fill="#F9CB77" transform="scale(0.488281 0.488281)" d="M288.472 699.156C292.293 699.207 295.406 699.777 298.822 701.623L299.5 701.999L300.503 702.569C305.653 705.929 309.278 712.279 310.443 718.216C311.272 722.438 310.743 727.143 308.222 730.719C305.67 734.338 302.383 735.667 298.175 736.475C295.646 736.469 293.54 736.128 291.141 735.325C285.565 733.46 280.791 728.532 278.189 723.369L277.833 722.647C277.023 721.028 276.422 719.481 276.022 717.71C275.032 713.329 275.373 708.797 277.997 705C280.588 701.249 284.12 699.824 288.472 699.156Z"/>
	<path fill="#FCDFA3" transform="scale(0.488281 0.488281)" d="M257.808 778.249C264.184 765.575 275.362 755.363 289 750.987L292.75 749.959L293.646 749.723C299.772 748.184 307.369 748.499 313.5 749.894C336.819 755.203 356.002 773.779 368.621 793.434C374.715 802.928 379.773 813.831 382.646 824.756C386.69 838.585 387.211 856.079 380.746 869.324L380.539 869.679C373.133 868.849 364.752 864.075 358.294 860.531C325.522 842.545 298.322 818.423 271.444 792.798L261.095 782.664C259.857 781.34 258.327 780.032 257.808 778.249Z"/>
	<path fill="#A14D14" transform="scale(0.488281 0.488281)" d="M790.565 855.351L773.884 874.25C754.086 894.2 729.603 908.787 703.015 917.631C688.877 922.334 674.317 925.464 659.364 925.549C642.021 925.647 625.548 920.997 613.03 908.459C598.475 893.881 593.943 871.761 593.971 851.825C594.02 817.131 608.641 781.34 627.939 753.031C633.525 744.837 639.345 736.92 646.385 729.898C650.064 744.056 656.282 754.91 666.044 765.756C668.553 768.543 670.886 771.64 674.134 773.603L674.369 773.525L675.711 775.605C678.609 777.294 681.146 780.145 683.74 782.313L697.276 793.179C711.512 804.674 726.641 814.975 742 824.902C749.41 829.692 756.798 835 765.112 838.123L765.134 838.438C769.648 840.959 774.22 844.301 779.018 846.157C791.793 836.644 803.273 824.246 812.388 811.205C815.074 807.362 816.524 802.565 819.528 799.118C815.176 819.512 802.816 838.815 790.565 855.351Z"/>
	<path fill="#BD671F" transform="scale(0.488281 0.488281)" d="M765.134 838.438C769.648 840.959 774.22 844.301 779.018 846.157L779.018 846.443C772.568 850.778 766.617 855.432 759.868 859.356C757.518 860.722 755.339 862.344 752.667 862.994C757.711 855.168 761.826 847.139 765.134 838.438Z"/>
	<path fill="#E1AF5E" transform="scale(0.488281 0.488281)" d="M674.134 773.603L674.369 773.525L675.711 775.605C666.063 793.697 658.991 814.769 664.982 835.275C668.088 845.907 673.856 855.893 683.018 862.383C694.96 870.842 709.497 874.903 724.072 872.465C729.814 871.504 735.54 870.069 741.049 868.174C744.454 867.003 747.829 865.359 751.315 864.517C746.902 870.897 741.758 876.816 736.09 882.116C721.993 895.299 704.645 904.389 685 903.496C671.823 902.897 659.183 896.225 650.433 886.524C640.449 875.455 636.773 859.579 637.551 844.989C639.031 817.229 653.658 791.753 674.134 773.603Z"/>
	<path fill="#F9CB77" transform="scale(0.488281 0.488281)" d="M675.711 775.605C678.609 777.294 681.146 780.145 683.74 782.313L697.276 793.179C711.512 804.674 726.641 814.975 742 824.902C749.41 829.692 756.798 835 765.112 838.123L765.134 838.438C761.826 847.139 757.711 855.168 752.667 862.994L751.315 864.517C747.829 865.359 744.454 867.003 741.049 868.174C735.54 870.069 729.814 871.504 724.072 872.465C709.497 874.903 694.96 870.842 683.018 862.383C673.856 855.893 668.088 845.907 664.982 835.275C658.991 814.769 666.063 793.697 675.711 775.605Z"/>
	<path fill="#A14D14" transform="scale(0.488281 0.488281)" d="M352.055 485.51C354.808 485.299 355.562 486.14 357.75 487.677L372.777 496.098C388.541 503.628 405.209 510.371 422.151 514.729C415.312 538.998 411.11 564.077 409.758 589.261C409.438 595.217 408.843 602.263 409.991 608.11L409.937 608.384C402.604 616.527 396.487 626.649 391.077 636.169C379.654 656.27 368.444 679.874 364.191 702.784C359.862 699.022 354.731 695.927 349.77 693.092L354.195 633.75C359.277 589.036 369.103 544.514 382.675 501.634C380.904 503.565 380.398 506.038 379.339 508.376L374.844 517.876C362.003 545.084 352.103 573.368 344.596 602.5C338.035 627.962 333.637 653.631 329.316 679.53C318.777 675.598 308.612 671.642 297.398 670.096C269.943 666.309 244.235 672.62 222 689.084C217.648 692.307 213.991 696.345 210.217 700.21L213.786 677.003L218.005 657.5C228.057 619.668 243.841 583.082 268.377 552.267C274.272 544.864 280.737 538.374 287.473 531.769C297.324 522.109 307.208 513.378 318.476 505.388C329.188 497.793 340.761 492.067 352.055 485.51Z"/>
	<path fill="#BD671F" transform="scale(0.488281 0.488281)" d="M352.055 485.51C354.808 485.299 355.562 486.14 357.75 487.677L372.777 496.098C359.618 506.121 349.187 518.938 339.785 532.438C320.894 559.558 308.033 587.892 298.948 619.659C296.218 629.205 293.503 639.112 292.14 648.959L291.745 652.027C285.028 651.873 278.201 651.532 271.5 652.136C254.659 653.655 238.353 659.466 224.24 668.721C221.017 670.171 216.209 676.902 213.786 677.003L218.005 657.5C228.057 619.668 243.841 583.082 268.377 552.267C274.272 544.864 280.737 538.374 287.473 531.769C297.324 522.109 307.208 513.378 318.476 505.388C329.188 497.793 340.761 492.067 352.055 485.51Z"/>
	<defs>
		<linearGradient id="gradient_7" gradientUnits="userSpaceOnUse" x1="263.67905" y1="566.72186" x2="280.02957" y2="577.60034">
			<stop offset="0" stop-color="#EB9B16"/>
			<stop offset="1" stop-color="#FBB918"/>
		</linearGradient>
	</defs>
	<path fill="url(#gradient_7)" transform="scale(0.488281 0.488281)" d="M225.732 652.341C229.083 640.216 232.26 628.25 236.793 616.48C249.558 583.338 270.91 550.437 297.715 526.989C312.415 514.131 328.976 503.808 345.5 493.519C347.342 492.372 351.649 489.002 353.634 488.668C354.276 488.559 354.933 488.76 355.582 488.806C341.906 497.36 328.649 506.089 316.218 516.427C280.61 546.039 256.08 583.483 237.613 625.554L229.617 645.683C228.115 650.083 227.105 654.831 225.25 659.077C224.632 657.205 225.444 654.281 225.732 652.341Z"/>
	<path fill="#FCDFA3" transform="scale(0.488281 0.488281)" d="M643.488 499.147C644.784 503.432 647.425 519.837 650.198 522.096C656.929 542.341 661.75 563.274 665.533 584.25C671.866 619.366 674.83 655.69 672.563 691.367L654.749 704.977C647.478 710.286 640.987 716.957 634.951 723.602C613.714 746.985 595.406 777.117 586.897 807.671C584.617 806.511 581.441 805.903 578.971 805.033L559.75 797.81C528.381 784.862 496.993 768.34 471.488 745.693C439.93 717.672 419.726 681.276 412.834 639.578C411.133 629.284 410.534 618.79 409.937 608.384L409.991 608.11C408.843 602.263 409.438 595.217 409.758 589.261C411.11 564.077 415.312 538.998 422.151 514.729C440.386 519.919 458.901 522.832 477.75 524.616C533.023 529.849 592.995 523.205 643.488 499.147Z"/>
	<path fill="#CF7F29" transform="scale(0.488281 0.488281)" d="M643.488 499.147C644.784 503.432 647.425 519.837 650.198 522.096C656.929 542.341 661.75 563.274 665.533 584.25C671.866 619.366 674.83 655.69 672.563 691.367L654.749 704.977C653.837 693.779 650.567 682.095 646.998 671.481C636.79 641.124 620.216 610.566 596.676 588.498C572.152 565.507 541.114 550.621 507 552.013C480.633 553.089 454.02 565.889 434.388 583.076C425.696 590.685 417.757 599.56 409.991 608.11C408.843 602.263 409.438 595.217 409.758 589.261C411.11 564.077 415.312 538.998 422.151 514.729C440.386 519.919 458.901 522.832 477.75 524.616C533.023 529.849 592.995 523.205 643.488 499.147Z"/>
</svg>
