<?xml version="1.0" encoding="utf-8" ?>
<svg xmlns="http://www.w3.org/2000/svg" xmlns:xlink="http://www.w3.org/1999/xlink" width="500" height="500">
	<path fill="#F1625A" transform="scale(0.488281 0.488281)" d="M-0 -0L1024 0L1024 1024L-0 1024L0 -0Z"/>
	<path fill="#2D1B34" transform="scale(0.488281 0.488281)" d="M426.138 327.955C434.492 305.645 450.152 287.438 472 277.434L477.524 274.956L340.314 135.85L339.692 135.984C333.481 137.265 328.021 137.005 322.626 133.25C318.466 130.354 315.222 125.29 314.556 120.22C313.722 113.863 315.142 107.75 319.283 102.747C322.609 98.7293 328.047 95.4988 333.301 95.0811C339.012 94.6273 344.285 96.6124 348.528 100.458C352.516 104.074 354.923 109.249 355 114.631C355.052 118.234 354.289 121.403 353.265 124.829L496.852 269.667C503.035 269.065 509.145 268.439 515.37 268.566C517.368 268.607 527.009 270.113 528.185 269.709C528.409 269.632 529.668 268.084 529.845 267.892L535.412 262.075L672.5 124.284C670.403 117.797 669.894 112.704 673.003 106.387C675.366 101.587 679.345 97.8372 684.485 96.2182C690.179 94.4249 696.632 95.2282 701.833 98.0696C706.316 100.519 709.886 105.617 711.288 110.465C712.864 115.917 712.044 121.048 709.291 125.974C706.544 130.889 701.681 134.826 696.257 136.322C692.286 137.418 688.627 136.982 684.68 136.149L547.437 275.19C563.483 282.444 578.185 293.243 587.413 308.5C591.188 314.741 593.705 321.289 596.34 328.054C593.907 328.655 591.283 328.184 588.976 328.805C584.1 329.399 578.93 329.096 574.011 329.115L547.198 329.196L472.85 329.098L461.469 329.057L432.666 328.84C431.001 328.005 428.172 328.771 426.138 327.955Z"/>
	<path fill="#33B0CB" transform="scale(0.488281 0.488281)" d="M340.663 102.534C344.531 104.865 347.241 107.59 348.321 112.181C349.264 116.187 348.378 120.251 346.063 123.606C343.888 126.758 341.141 128.896 337.5 130.089L336.978 130.265C334.498 131.021 330.49 130.766 328.25 129.432C327.077 128.734 325.945 127.847 324.948 126.914L327.393 126.638C332.45 125.982 337.179 123.147 340.115 118.957C342.388 115.715 342.468 111.018 341.66 107.247L340.663 102.534Z"/>
	<path fill="#66CAE2" transform="scale(0.488281 0.488281)" d="M678.294 121.046C677.523 118.682 677.058 116.169 677.332 113.681C677.782 109.602 679.692 106.335 683.004 103.861C686.724 101.082 690.229 101.25 694.569 101.785C694.381 104.152 694.192 106.434 693.628 108.75L693.489 109.333C692.527 113.113 689.465 115.503 686.218 117.364L678.294 121.046Z"/>
	<path fill="#10BBBC" transform="scale(0.488281 0.488281)" d="M324.948 126.914C323.917 125.85 323.054 124.76 322.341 123.453C320.499 120.074 319.724 115.509 321.017 111.781C322.295 108.099 325.258 104.74 328.756 103.01C332.844 100.989 336.463 101.155 340.663 102.534L341.66 107.247C342.468 111.018 342.388 115.715 340.115 118.957C337.179 123.147 332.45 125.982 327.393 126.638L324.948 126.914Z"/>
	<path fill="#33B0CB" transform="scale(0.488281 0.488281)" d="M694.569 101.785C699.111 103.782 702.602 106.181 704.509 111C705.96 114.667 705.703 118.478 704.055 122.037C702.486 125.426 699.067 128.885 695.512 130.188C692.59 131.258 688.725 130.737 685.979 129.38C682.398 127.609 680.038 124.55 678.294 121.046L686.218 117.364C689.465 115.503 692.527 113.113 693.489 109.333L693.628 108.75C694.192 106.434 694.381 104.152 694.569 101.785Z"/>
	<path fill="#FDFAFA" transform="scale(0.488281 0.488281)" d="M676.572 129.29L679.634 132.483L585.75 226.827L555.858 257.001C550.628 262.268 545.471 268.102 539.75 272.806C538.361 272.482 537.022 272.352 536.019 271.25C538.671 266.72 544.601 262.021 548.367 258.215L582.98 223.66L676.572 129.29Z"/>
	<path fill="#FDFAFA" transform="scale(0.488281 0.488281)" d="M348.994 130.25C349.413 130.342 349.883 130.305 350.25 130.527C352.938 132.152 355.917 136.054 358.25 138.372L391.954 172.695L489.476 270.5L489.396 271.25L486.75 272.075L485.719 272.504C484.807 272.249 484.955 272.41 484.36 271.906C478.439 266.897 473.013 260.964 467.528 255.471L437.848 225.655L350.231 136.958C349.143 135.823 346.603 133.709 346.445 132.25L348.994 130.25Z"/>
	<path fill="#33B0CB" transform="scale(0.488281 0.488281)" d="M519.361 275.855C541.577 278.605 563.046 287.769 577.17 305.79C582.258 312.282 586.806 320.851 588.976 328.805C584.1 329.399 578.93 329.096 574.011 329.115L547.198 329.196C546.84 318.001 540.409 304.345 534.515 295C532.362 291.587 529.872 288.498 527.17 285.505C524.682 282.748 520.4 279.407 519.361 275.855Z"/>
	<path fill="#66CAE2" transform="scale(0.488281 0.488281)" d="M432.666 328.84C438.287 314.71 447.131 302.721 459.084 293.26C475.585 280.2 498.369 273.353 519.361 275.855C520.4 279.407 524.682 282.748 527.17 285.505C529.872 288.498 532.362 291.587 534.515 295C540.409 304.345 546.84 318.001 547.198 329.196L472.85 329.098L461.469 329.057L432.666 328.84Z"/>
	<path fill="#FDFAFA" transform="scale(0.488281 0.488281)" d="M461.469 329.057C462.459 324.727 463.281 320.321 465.337 316.351L465.701 315.63C471.086 305.124 482.492 295.836 493.631 292.236C495.6 291.599 497.96 290.655 500.01 290.478C488.084 297.466 477.928 307.735 474.412 321.485C473.783 323.943 473.071 326.573 472.85 329.098L461.469 329.057Z"/>
	<path fill="#C33C37" transform="scale(0.488281 0.488281)" d="M330.343 825.914L331.25 825.024L349.5 824.979C352.427 824.978 355.959 824.559 358.776 825.388C359.522 825.342 360.003 825.271 360.707 825.552C362.024 826.079 364.143 825.78 365.568 825.783C369.435 825.79 373.542 825.468 377.25 826.255L378.734 826.298L379.491 827.508L640.718 827.439L671.461 871.247L694.101 904.341C695.344 906.188 696.847 909.823 698.331 911.226C698.524 911.409 698.799 911.492 699.058 911.554L755.175 911.556L742.151 880.961C762.303 883.973 784.238 888.204 802.937 896.42C806.708 898.077 812.412 901.209 813.738 905.397C814.364 907.375 813.923 909.131 812.904 910.876C811.519 913.25 809.074 915.022 806.736 916.372C798.386 921.195 787.945 923.783 778.61 925.969C734.917 936.2 689.194 939.728 644.5 942.694C555.998 948.568 467.164 949.119 378.674 942.561L291.875 933.881C272.672 931.129 254.007 928.479 235.385 922.862C228.531 920.795 220.616 918.303 214.573 914.388C212.513 913.053 209.443 910.635 209.041 908.043C208.698 905.827 209.179 903.879 210.426 902.055C218.599 890.103 264.784 882.277 279.35 879.816L306.543 827.526L307.502 826.503C309.207 825.107 327.117 825.695 330.343 825.914Z"/>
	<path fill="#2D1B34" transform="scale(0.488281 0.488281)" d="M330.343 825.914L331.25 825.024L349.5 824.979C352.427 824.978 355.959 824.559 358.776 825.388C359.522 825.342 360.003 825.271 360.707 825.552C362.024 826.079 364.143 825.78 365.568 825.783C369.435 825.79 373.542 825.468 377.25 826.255L378.734 826.298L379.491 827.508L351.521 871.365L325.814 912.045L261.849 911.984L279.35 879.816L306.543 827.526L307.502 826.503C309.207 825.107 327.117 825.695 330.343 825.914Z"/>
	<path fill="#273656" transform="scale(0.488281 0.488281)" d="M330.343 825.914L331.25 825.024L349.5 824.979C352.427 824.978 355.959 824.559 358.776 825.388C355.677 830.439 352.974 836.065 349.36 840.741L322.312 840.725L330.343 825.914Z"/>
	<path fill="#547D9E" transform="scale(0.488281 0.488281)" d="M322.312 840.725L349.36 840.741L315.862 894.506L294.247 894.564L322.312 840.725Z"/>
	<path fill="#F1625A" transform="scale(0.488281 0.488281)" d="M379.491 827.508L640.718 827.439L671.461 871.247L598.536 866.32L462.264 864.971L384.836 868.78L363.789 870.784C359.802 871.166 355.505 871.883 351.521 871.365L379.491 827.508Z"/>
	<defs>
		<linearGradient id="gradient_0" gradientUnits="userSpaceOnUse" x1="748.39056" y1="914.10498" x2="281.93948" y2="252.99275">
			<stop offset="0" stop-color="#291421"/>
			<stop offset="1" stop-color="#322957"/>
		</linearGradient>
	</defs>
	<path fill="url(#gradient_0)" transform="scale(0.488281 0.488281)" d="M596.34 328.054L769.461 328.005L816.991 327.981C824.139 327.958 832.76 326.993 839.767 328.193C848.474 329.684 856.785 333.675 863.097 339.906C868.881 345.616 873.327 352.988 875.056 360.984C876.088 365.759 875.848 370.819 875.862 375.678L875.877 397.059L875.739 668.363L875.851 750.474L875.915 776.71C875.919 781.796 876.221 787.1 875.6 792.144C874.569 800.512 870.47 808.823 864.549 814.783C859.22 820.146 852.528 824.347 845.114 826.097C838.91 827.562 832.48 827.252 826.151 827.26L802.37 827.274L718.917 827.192L742.151 880.961L755.175 911.556L699.058 911.554C698.799 911.492 698.524 911.409 698.331 911.226C696.847 909.823 695.344 906.188 694.101 904.341L671.461 871.247L640.718 827.439L379.491 827.508L378.734 826.298L377.25 826.255C373.542 825.468 369.435 825.79 365.568 825.783C364.143 825.78 362.024 826.079 360.707 825.552C360.003 825.271 359.522 825.342 358.776 825.388C355.959 824.559 352.427 824.978 349.5 824.979L331.25 825.024L330.343 825.914C327.117 825.695 309.207 825.107 307.502 826.503L306.543 827.526C304.784 826.268 287.263 827.219 284.093 827.239L216.206 827.407L195.872 827.428C191.744 827.429 187.437 827.69 183.338 827.166L182.5 827.05L178.75 826.466C168.231 823.996 158.41 816.836 152.857 807.572C149.728 802.351 147.695 796.231 147.428 790.134L147.332 756.736L147.356 690.777L147.384 497.152L147.335 402.75L147.33 376.409C147.332 370.952 146.774 364.697 148.213 359.422L148.471 358.5C149.587 354.364 151.164 350.313 153.508 346.702C159.029 338.197 166.889 332.137 176.694 329.457C185.87 326.949 196.594 328.009 206.07 328.004L243.242 327.99L386.763 328.004L415.25 328.075C418.143 328.099 423.017 328.886 425.717 328.12L426.138 327.955C428.172 328.771 431.001 328.005 432.666 328.84L461.469 329.057L472.85 329.098L547.198 329.196L574.011 329.115C578.93 329.096 584.1 329.399 588.976 328.805C591.283 328.184 593.907 328.655 596.34 328.054Z"/>
	<path fill="#FCCDA0" transform="scale(0.488281 0.488281)" d="M699.345 361.482L699.279 348.75L713.527 348.702L713.507 361.86L699.345 361.482Z"/>
	<path fill="#B25818" transform="scale(0.488281 0.488281)" d="M698.812 785.137L713.957 785.148L714.02 807.21L698.504 807.165L698.812 785.137Z"/>
	<path fill="#273656" transform="scale(0.488281 0.488281)" d="M674.542 841.591L674.442 841.573L665.101 826.963L697.677 826.955L704.701 841.197L683.301 841.215C680.803 841.218 676.757 840.674 674.542 841.591Z"/>
	<path fill="#33B0CB" transform="scale(0.488281 0.488281)" d="M704.701 841.197L720.432 874.359C723.502 880.861 727.057 887.38 729.424 894.164L709.24 894.138L674.542 841.591C676.757 840.674 680.803 841.218 683.301 841.215L704.701 841.197Z"/>
	<path fill="#FCCDA0" transform="scale(0.488281 0.488281)" d="M718.012 361.658L717.855 348.85L802.915 348.874L827.641 348.88C831.647 348.883 836.149 348.49 840.1 349.028C843.057 349.431 845.978 351.113 848.547 352.561C845.3 354.634 841.975 357.696 839.875 360.934L718.012 361.658Z"/>
	<path fill="#F1625A" transform="scale(0.488281 0.488281)" d="M699.345 361.482L713.507 361.86L713.957 785.148L698.812 785.137L699.345 361.482Z"/>
	<path fill="#B25818" transform="scale(0.488281 0.488281)" d="M848.547 352.561C851.912 355.402 854.166 358.331 854.452 362.874C854.956 370.87 854.541 379.174 854.543 387.196L854.543 435.683L854.553 585.165L854.595 720.33L854.612 764.714C854.61 772.075 855.025 779.725 854.49 787.044C854.14 791.816 852.348 796.136 849.13 799.687C845.646 803.531 840.852 806.824 835.5 806.961L747.996 807.108C743.157 807.111 721.517 808.003 719.037 806.904L719.02 784.531L719.662 785.242C722.49 785.879 726.262 785.443 729.187 785.446L748.403 785.46L792.091 785.472L816.445 785.391C818.892 785.286 821.506 785.037 823.791 784.127C830.142 781.6 834.97 775.565 836.63 768.993C837.537 765.405 837.441 761.729 837.466 758.058L837.523 742.379L837.535 692.887L837.819 489.027L837.965 407.553C837.999 394.201 837.304 380.453 838.064 367.145C838.19 364.942 839.034 362.944 839.875 360.934C841.975 357.696 845.3 354.634 848.547 352.561Z"/>
	<path fill="#B25818" transform="scale(0.488281 0.488281)" d="M168.823 771.293C172.647 777.492 176.067 780.932 182.491 784.461C185.581 785.652 188.675 786.805 192.006 787.051C198.07 787.499 204.309 787.235 210.397 787.223L241.673 787.18L342.251 786.973L559.308 786.472L693.667 785.534L693.771 807.144L567.058 807.484L290.736 807.567L221.551 807.535L200.5 807.523C196.571 807.523 191.387 808.108 187.672 806.82L187 806.569C181.558 804.686 177.551 801.728 174.02 797.19C168.714 790.372 167.744 779.67 168.823 771.293Z"/>
	<defs>
		<linearGradient id="gradient_1" gradientUnits="userSpaceOnUse" x1="311.27222" y1="816.79504" x2="450.99344" y2="286.05344">
			<stop offset="0" stop-color="#FBBD65"/>
			<stop offset="1" stop-color="#FAC99B"/>
		</linearGradient>
	</defs>
	<path fill="url(#gradient_1)" transform="scale(0.488281 0.488281)" d="M168.823 771.293C168.688 770.795 168.609 770.567 168.563 770C167.982 762.874 168.538 755.301 168.536 748.111L168.534 702.004L168.503 557.351L168.447 428.918L168.343 387.829C168.324 380.652 167.832 373.138 168.48 366C168.834 362.1 171.191 358.43 173.868 355.676C177.409 352.033 181.826 349.233 186.967 348.73C192.444 348.193 198.33 348.591 203.845 348.59L235.944 348.612L339.546 348.619L550.427 348.583L693.52 348.629L693.54 361.484L356.607 361.782L249.616 361.669L216.144 361.644C209.824 361.648 203.28 361.321 196.995 361.87C193.319 362.19 189.952 364.289 187.38 366.882C185.564 368.713 184.454 370.638 183.478 373L183.185 373.691C181.875 377.088 182.478 381.849 182.479 385.497L182.476 404.974L182.471 476.221L182.491 784.461C176.067 780.932 172.647 777.492 168.823 771.293Z"/>
	<path fill="#EE8C20" transform="scale(0.488281 0.488281)" d="M718.012 361.658L839.875 360.934C839.034 362.944 838.19 364.942 838.064 367.145C837.304 380.453 837.999 394.201 837.965 407.553L837.819 489.027L837.535 692.887L837.523 742.379L837.466 758.058C837.441 761.729 837.537 765.405 836.63 768.993C834.97 775.565 830.142 781.6 823.791 784.127C821.506 785.037 818.892 785.286 816.445 785.391L792.091 785.472L748.403 785.46L729.187 785.446C726.262 785.443 722.49 785.879 719.662 785.242L719.02 784.531L718.012 361.658Z"/>
	<path fill="#B25818" transform="scale(0.488281 0.488281)" d="M810.641 512.032C816.603 515.572 820.256 522.266 821.952 528.859C823.986 536.767 822.335 547.108 818.122 554.075C813.432 561.831 805.478 568.978 796.47 571.138C792.039 572.201 786.355 571.727 782 570.643L781.217 570.454C776.353 569.248 771.045 566.782 767.881 562.762C775.448 563.667 782.471 564.015 789.748 561.337C799.44 557.77 807.121 550.354 811.19 540.876C815.332 531.227 814.407 521.605 810.641 512.032Z"/>
	<path fill="#B25818" transform="scale(0.488281 0.488281)" d="M808.409 414.836C814.039 418.347 819.036 425.891 820.555 432.266C822.732 441.4 819.14 451.574 814.3 459.245C809.691 466.551 802.991 471.691 794.471 473.606C787.786 475.109 779.747 474.765 773.934 470.834C771.822 469.406 769.37 467.297 767.862 465.242C776.911 465.946 785.234 465.803 793.232 461.039C801.304 456.23 808.085 447.98 810.448 438.788L810.646 438C812.783 430.038 811.03 422.416 808.409 414.836Z"/>
	<path fill="#B25818" transform="scale(0.488281 0.488281)" d="M810.11 611.994C815.493 615.348 819.414 623.363 820.861 629.43C823.081 638.742 821.542 649.208 816.53 657.389C811.23 666.042 802.508 672.872 792.55 675.181L790.5 675.572L789.782 675.702C786.035 676.334 782.184 675.962 778.5 675.153L777.665 674.976C771.543 673.617 764.412 669.065 760.795 663.891C760.379 663.297 760.581 662.66 760.604 661.962C769.315 665.272 777.724 667.245 786.875 664.268C796.774 661.047 804.63 654.574 809.279 645.244C814.544 634.676 813.826 622.879 810.11 611.994Z"/>
	<defs>
		<linearGradient id="gradient_2" gradientUnits="userSpaceOnUse" x1="777.89288" y1="725.95038" x2="779.01477" y2="703.86713">
			<stop offset="0" stop-color="#231E24"/>
			<stop offset="1" stop-color="#2C1A30"/>
		</linearGradient>
	</defs>
	<path fill="url(#gradient_2)" transform="scale(0.488281 0.488281)" d="M739.285 705.229L791.953 705.337C801.444 705.316 811.169 704.827 820.622 705.416C821.847 705.492 822.979 705.604 824.04 706.265C826.542 707.823 828.487 709.982 828.912 713C829.321 715.907 828.755 719.119 826.828 721.409C824.824 723.792 822.664 724.739 819.625 724.976L762.136 724.938C754.489 724.937 745.701 725.832 738.173 724.921C736.169 724.679 734.099 723.833 732.455 722.68C730.502 721.312 728.83 719.266 728.448 716.86C727.995 714.013 728.702 710.892 730.553 708.654C732.864 705.861 735.924 705.45 739.285 705.229Z"/>
	<path fill="#8A3516" transform="scale(0.488281 0.488281)" d="M738.213 709.173L821.75 709.539C822.494 710.012 823.145 710.432 823.649 711.175C824.702 712.728 824.973 715.697 824.305 717.446C823.544 719.438 821.424 720.869 819.49 721.458C809.997 721.514 739.361 722.444 735.889 720.704C734.623 720.069 733.327 718.275 732.872 717C732.285 715.355 732.63 713.695 733.447 712.205C734.525 710.237 736.161 709.734 738.213 709.173Z"/>
	<path fill="#2D1B34" transform="scale(0.488281 0.488281)" d="M736.984 680.198L792.408 680.184L810.576 680.125C813.712 680.121 817.119 679.879 820.23 680.263C822.016 680.484 823.521 680.926 825 681.971C827.134 683.48 828.296 685.285 828.696 687.883C829.128 690.685 828.871 694.039 827.053 696.339C825.308 698.545 823.333 699.343 820.625 699.739L763.035 699.808C754.515 699.803 744.66 700.735 736.272 699.433C734.906 699.22 733.444 698.518 732.311 697.75C730.149 696.284 728.842 694.409 728.371 691.828C727.88 689.131 728.301 685.8 730.07 683.619C731.978 681.267 734.089 680.607 736.984 680.198Z"/>
	<path fill="#8A3516" transform="scale(0.488281 0.488281)" d="M736.122 684.144L819.117 684.334C820.842 684.45 822.241 684.658 823.297 686.202C824.149 687.448 824.701 690.069 824.335 691.537C823.815 693.627 822.855 694.575 821.121 695.75C816.057 697.029 809.51 696.386 804.236 696.408L770.558 696.372L749.094 696.286C745.367 696.266 741.175 696.539 737.5 696.004C735.721 695.744 734.373 694.886 733.37 693.411C732.303 691.841 732.063 689.74 732.555 687.917C733.141 685.746 734.3 685.114 736.122 684.144Z"/>
	<path fill="#2D1B34" transform="scale(0.488281 0.488281)" d="M735.907 730.63L794.201 730.506L811.604 730.519C814.975 730.521 819.118 730.13 822.341 731.122C825.297 732.031 827.573 733.433 828.926 736.322C830.14 738.913 829.864 742.232 828.891 744.861C827.791 747.836 825.454 749.348 822.669 750.572L766.281 750.487L747.852 750.457C744.459 750.449 740.7 750.75 737.362 750.178L736.75 750.063C734.15 749.603 732.091 748.701 730.363 746.608C728.649 744.534 728.109 741.882 728.517 739.25C728.934 736.556 730.81 733.632 733.093 732.129L735.907 730.63Z"/>
	<path fill="#8A3516" transform="scale(0.488281 0.488281)" d="M738.178 734.233L800.62 734.332C805.248 734.367 818.215 733.461 821.784 735.191C823.148 735.852 824.488 737.579 824.867 739C825.282 740.556 825.104 742.406 824.211 743.757C823.14 745.376 821.698 745.948 819.899 746.411L764.161 746.478L747 746.576C744.12 746.59 740.844 746.865 738 746.514C736.92 746.381 736.28 746.091 735.377 745.491C734.04 744.603 733.017 742.795 732.708 741.25C732.393 739.667 732.637 738.1 733.553 736.757C734.76 734.986 736.185 734.555 738.178 734.233Z"/>
	<path fill="#2D1B34" transform="scale(0.488281 0.488281)" d="M767.862 465.242C758.478 461.381 751.915 458.492 745.834 449.754C740.598 442.232 738.035 432.389 739.794 423.298C741.644 413.734 747.43 405.036 755.513 399.562C763.104 394.421 772.847 392.975 781.791 394.783C794.222 397.296 801.615 404.638 808.409 414.836C811.03 422.416 812.783 430.038 810.646 438L810.448 438.788C808.085 447.98 801.304 456.23 793.232 461.039C785.234 465.803 776.911 465.946 767.862 465.242Z"/>
	<path fill="#66CAE2" transform="scale(0.488281 0.488281)" d="M748.94 443.381C746.312 437.954 745.047 432.272 745.634 426.25C746.422 418.161 750.682 410.37 757.046 405.334C762.167 401.282 770.065 398.98 776.567 399.766C780.548 400.248 784.095 401.01 787.705 402.848C795.131 406.629 800.686 412.619 803.3 420.55C805.775 427.913 805.157 436.3 801.75 443.273C798.345 450.243 791.949 455.402 784.667 457.855C777.275 460.344 768.945 459.848 761.982 456.25C756.755 453.549 751.424 448.819 748.94 443.381Z"/>
	<path fill="#10BBBC" transform="scale(0.488281 0.488281)" d="M760.665 410.915C760.812 409.773 760.896 409.795 761.75 409L761.755 408C761.571 407.001 761.358 407.148 761.52 406.112C764.478 405.341 767.412 404.383 770.5 404.573C771.605 405.244 772.51 405.423 773.746 405.714C768.632 406.51 764.962 408.141 760.665 410.915Z"/>
	<path fill="#FDFAFA" transform="scale(0.488281 0.488281)" d="M773.746 405.714C774.972 405.757 776.3 405.765 777.428 406.296C778.625 406.86 779.772 407.813 780.25 409.079C780.783 410.49 780.442 411.463 779.908 412.75C776.488 415.42 772.25 416.487 768.922 419.392C766.374 421.617 764.324 426.061 761.772 427.667C760.139 428.695 757.904 428.516 756.091 428.33C754.623 427.353 754.021 426.796 753.615 425C752.82 421.486 754.155 418.858 756.223 416.14L760.665 410.915C764.962 408.141 768.632 406.51 773.746 405.714Z"/>
	<path fill="#33B0CB" transform="scale(0.488281 0.488281)" d="M748.94 443.381C749.938 443.158 750.6 443.032 751.487 442.5C750.995 440.507 750.125 438.189 750.23 436.135C750.291 434.953 750.683 434.951 751.5 434.177C752.816 435.039 753.463 436.309 754.438 437.5C756.353 439.84 758.588 441.964 761.284 443.368L761.861 443.661L764.5 444.89C769.416 446.782 775.023 446.247 779.783 444.108C785.169 441.688 789.902 437.324 791.953 431.696L792.162 431.097C794.52 424.517 791.64 417.838 789.451 411.653C794.009 414.103 798.056 417.589 802.136 420.75L803.3 420.55C805.775 427.913 805.157 436.3 801.75 443.273C798.345 450.243 791.949 455.402 784.667 457.855C777.275 460.344 768.945 459.848 761.982 456.25C756.755 453.549 751.424 448.819 748.94 443.381Z"/>
	<path fill="#2D1B34" transform="scale(0.488281 0.488281)" d="M767.881 562.762C759.781 559.692 753.126 556.068 747.834 549.018C741.749 540.912 738.662 530.81 740.213 520.699C741.617 511.541 747.676 502.283 755.22 496.945C762.708 491.646 773.957 488.954 783 490.828C796.034 493.529 803.686 501.261 810.641 512.032C814.407 521.605 815.332 531.227 811.19 540.876C807.121 550.354 799.44 557.77 789.748 561.337C782.471 564.015 775.448 563.667 767.881 562.762Z"/>
	<path fill="#EC5173" transform="scale(0.488281 0.488281)" d="M752.368 543.968C750.911 541.869 749.543 539.411 748.511 537.07C745.486 530.203 745.129 521.738 748.022 514.75C751.137 507.225 758.212 500.876 765.82 498.111C773.556 495.298 781.629 495.439 789.099 498.952C796.952 502.646 802.507 509.453 805.36 517.55C808.321 523.345 807.566 531.24 805.495 537.256C802.835 544.987 797.315 550.512 790.03 553.963C783.151 557.222 774.153 558.336 766.913 555.593C761.486 553.537 755.007 549.308 752.368 543.968Z"/>
	<path fill="#FCCDA0" transform="scale(0.488281 0.488281)" d="M772.471 500.546C773.73 500.422 775.065 500.394 776.325 500.515C778.955 500.765 780.699 502.204 782.353 504.134C782.496 506.133 782.599 507.365 781.069 508.932C778.994 511.057 775.471 511.322 772.905 512.729C768.332 515.237 765.102 519.605 761.903 523.589C761.552 523.835 761 524.273 760.554 524.429C759.316 524.863 757.196 524.63 756.044 524.034C754.798 523.39 753.752 521.998 753.303 520.688C752.41 518.087 754.233 514.002 755.507 511.745C759.047 505.475 765.834 502.334 772.471 500.546Z"/>
	<path fill="#BD3C5C" transform="scale(0.488281 0.488281)" d="M752.368 543.968L753.138 543.361L753.375 541.75C754.296 538.825 754.034 535.513 754.071 532.388C756.261 534.607 758.464 537.163 761.08 538.878C766.102 542.17 772.45 543.254 778.303 541.935C783.703 540.717 788.637 537.538 791.57 532.778C795.868 525.801 794.505 517.436 792.666 509.93C795.196 511.556 802.072 517.498 804.667 517.573L805.36 517.55C808.321 523.345 807.566 531.24 805.495 537.256C802.835 544.987 797.315 550.512 790.03 553.963C783.151 557.222 774.153 558.336 766.913 555.593C761.486 553.537 755.007 549.308 752.368 543.968Z"/>
	<path fill="#2D1B34" transform="scale(0.488281 0.488281)" d="M760.604 661.962C754.895 659.008 749.722 655.17 745.911 649.936C740.357 642.308 737.728 631.905 739.256 622.56C740.784 613.217 746.272 604.45 753.966 598.919C761.977 593.16 772.848 590.392 782.583 592.122C795.028 594.333 803.106 601.978 810.11 611.994C813.826 622.879 814.544 634.676 809.279 645.244C804.63 654.574 796.774 661.047 786.875 664.268C777.724 667.245 769.315 665.272 760.604 661.962Z"/>
	<defs>
		<linearGradient id="gradient_3" gradientUnits="userSpaceOnUse" x1="784.90845" y1="638.69183" x2="756.58179" y2="605.19946">
			<stop offset="0" stop-color="#C4CDCB"/>
			<stop offset="1" stop-color="#A8E4D7"/>
		</linearGradient>
	</defs>
	<path fill="url(#gradient_3)" transform="scale(0.488281 0.488281)" d="M757.365 652.859C751.587 648.721 746.628 640.821 745.519 633.781L745.404 633C744.198 625.494 745.333 618.978 749.445 612.5C754.46 604.6 761.829 599.615 771.005 597.79C778.499 596.3 787.421 598.287 793.645 602.684C800.453 607.495 804.876 614.199 806.254 622.406C808.09 629.493 806.55 637.484 802.918 643.756C798.647 651.135 792.213 656.277 784 658.614L783.177 658.859C778.939 660.042 773.954 659.719 769.703 658.75L768.904 658.579C765.171 657.734 760.173 655.481 757.365 652.859Z"/>
	<path fill="#FDFAFA" transform="scale(0.488281 0.488281)" d="M770.708 602.61L772.056 602.506C775.139 602.383 778.786 602.527 781.092 604.908C782.379 606.237 782.516 607.483 782.493 609.25C780.666 612.157 775.578 613.926 772.724 615.921C769.632 618.082 766.725 620.567 763.79 622.936L761.495 624.75C760.647 625.227 759.807 625.261 758.899 624.974C757.477 624.525 755.313 622.633 754.781 621.212C754.012 619.155 754.347 616.548 755.321 614.613C758.584 608.136 764.082 604.958 770.708 602.61Z"/>
	<path fill="#62BC6F" transform="scale(0.488281 0.488281)" d="M757.365 652.859C757.523 651.051 755.598 648.306 754.832 646.641C753.664 644.101 752.511 641.19 752.133 638.42C751.921 636.871 751.796 636.706 752.75 635.478C755.597 635.419 757.753 637.967 760.225 639.382C765.813 642.583 772.887 644.327 779.234 642.524C784.578 641.005 789.805 637.179 792.493 632.25C795.47 626.789 795.504 620.315 793.646 614.505L793.432 613.858C795.344 614.781 797.395 615.681 799.129 616.913C801.118 618.326 803.406 621.699 805.644 622.328L806.254 622.406C808.09 629.493 806.55 637.484 802.918 643.756C798.647 651.135 792.213 656.277 784 658.614L783.177 658.859C778.939 660.042 773.954 659.719 769.703 658.75L768.904 658.579C765.171 657.734 760.173 655.481 757.365 652.859Z"/>
	<path fill="#EE8C20" transform="scale(0.488281 0.488281)" d="M182.491 784.461L182.471 476.221L182.476 404.974L182.479 385.497C182.478 381.849 181.875 377.088 183.185 373.691L183.478 373C184.454 370.638 185.564 368.713 187.38 366.882C189.952 364.289 193.319 362.19 196.995 361.87C203.28 361.321 209.824 361.648 216.144 361.644L249.616 361.669L356.607 361.782L693.54 361.484L693.667 785.534L559.308 786.472L342.251 786.973L241.673 787.18L210.397 787.223C204.309 787.235 198.07 787.499 192.006 787.051C188.675 786.805 185.581 785.652 182.491 784.461Z"/>
	<path fill="#B25818" transform="scale(0.488281 0.488281)" d="M655.705 413.414C664.009 416.361 670.387 426.758 673.968 434.348C675.846 438.327 677.214 443.513 677.448 447.944C678.397 465.87 677.561 484.262 677.55 502.233L677.489 608.383L677.468 679.758L677.36 704.075C677.304 709.835 677.583 715.9 676.166 721.51C672.185 737.26 662.607 750.421 648.685 758.92C644.144 761.693 634.597 767.735 629.271 766.498L628.793 766.374L633 763.994C646.887 755.758 659.198 742.032 663.199 726.09C665.403 717.307 664.575 707.649 664.562 698.645L664.51 664.578L664.522 548.254L664.591 473.318C664.619 461.104 665.741 448.121 664.445 436C663.555 427.668 659.961 420.497 655.705 413.414Z"/>
	<path fill="#2D1B34" transform="scale(0.488281 0.488281)" d="M628.793 766.374C621.138 770.251 612.026 771.66 603.541 772.223C596.412 772.695 589.178 772.461 582.032 772.475L545.468 772.527L429.415 772.507L322.036 772.498L286.998 772.477C280.527 772.467 273.873 772.743 267.425 772.284C248.306 770.923 230.438 763.052 217.865 748.272C209.892 738.899 204.378 727.53 202.57 715.315C201.749 709.768 201.927 704.01 201.916 698.416L201.929 673.557L201.98 593.1L201.921 493.844L201.884 462.847C201.878 456.502 201.561 449.934 202.14 443.616C203.63 427.341 211.076 412.724 223.699 402.257C232.803 394.709 243.604 390.349 255.285 388.863C261.652 388.054 268.43 388.467 274.86 388.463L308.511 388.467L422.532 388.518L551.514 388.479L591.767 388.447C598.71 388.442 606.007 387.959 612.901 388.654C625.516 389.925 638.511 395.426 647.75 404.127C650.699 406.904 653.188 410.253 655.705 413.414C659.961 420.497 663.555 427.668 664.445 436C665.741 448.121 664.619 461.104 664.591 473.318L664.522 548.254L664.51 664.578L664.562 698.645C664.575 707.649 665.403 717.307 663.199 726.09C659.198 742.032 646.887 755.758 633 763.994L628.793 766.374Z"/>
	<path fill="#8F2972" transform="scale(0.488281 0.488281)" d="M557.393 724.146L557.537 724.563L557.48 759.986C556.223 759.64 554.305 759.839 552.985 759.812L541.685 759.795L499.867 759.768L499.963 724.403C504.454 723.927 509.457 724.366 513.996 724.384L544.038 724.482C548.149 724.492 553.44 725.11 557.393 724.146Z"/>
	<path fill="#0C8382" transform="scale(0.488281 0.488281)" d="M379.511 723.486L440.573 723.91L440.55 759.561L379.422 759.674L379.511 723.486Z"/>
	<path fill="#0C8382" transform="scale(0.488281 0.488281)" d="M319.616 713.93L319.978 723.457L320.008 760.479L287.678 760.437C280.112 760.419 272.225 760.816 264.719 759.819C252.806 758.236 241.602 752.57 232.966 744.271L237.15 744.95C243.279 745.348 249.76 743.032 254.25 738.852C260.861 732.698 262.38 725.432 262.586 716.761C267.898 719.277 273.188 721.781 279 722.919C283.941 723.887 289.322 723.495 294.356 723.506L319.617 723.51L319.616 713.93Z"/>
	<path fill="#0C8382" transform="scale(0.488281 0.488281)" d="M557.332 402.172C566.855 401.512 576.467 402.281 586 402.093C597.303 401.869 610.003 400.333 621.026 403.294C627.338 404.989 633.122 408.444 638.02 412.719C646.934 420.501 652.849 431.242 653.643 443.163C654.153 450.829 653.865 458.643 653.842 466.324L653.755 503.963L653.782 619.64L653.753 684.505C653.788 695.935 654.831 708.516 653.265 719.803C652.189 727.56 648.136 735.394 642.995 741.25C634.263 751.196 621.844 757.769 608.75 759.585L607.905 759.707C600.654 760.669 592.787 760.113 585.46 760.1L557.48 759.986L557.537 724.563L582.768 724.533C587.197 724.519 591.922 724.844 596.291 724.184C602.988 723.172 608.582 718.738 612.557 713.426C616.624 707.99 619.406 701.771 620.313 695C620.906 690.574 620.611 685.801 620.631 681.328L620.751 656.731L620.972 568.02L620.7 481.936L620.564 457.146C620.531 452.368 620.837 447.278 620.166 442.557L620.042 441.75C619.353 437.028 618.146 432.579 616.234 428.203C610.913 416.029 600.977 408.992 589 404.064C584.173 402.078 579.538 402.523 574.431 402.496L557.946 402.629L557.332 402.172Z"/>
	<path fill="#66CAE2" transform="scale(0.488281 0.488281)" d="M232.966 744.271L231.635 743.036C220.685 732.38 215.28 719.002 215.089 703.829L215.279 532.357L215.128 474.218C215.138 464.993 214.254 454.517 215.823 445.438C217.578 435.282 223.053 425.59 230.237 418.313C238.317 410.13 249.092 404.018 260.656 402.65C268.275 401.748 276.77 402.458 284.464 402.436L319.688 402.319L319.661 436.911L294.015 437.424C287.645 437.612 280.475 437.257 274.256 438.794C267.83 440.383 262.18 444.42 257.539 449.008C252.693 453.799 249.729 459.743 248.327 466.385C247.261 471.432 247.488 476.648 247.454 481.778L247.341 503.81L247.035 576.873C247.04 579.42 246.788 582.338 247.348 584.811C245.687 589.78 244.434 593.962 243.979 599.212L254.46 582.529C256.695 579.091 258.744 575.449 261.592 572.471L262.586 716.761C262.38 725.432 260.861 732.698 254.25 738.852C249.76 743.032 243.279 745.348 237.15 744.95L232.966 744.271Z"/>
	<path fill="#FDFAFA" transform="scale(0.488281 0.488281)" d="M440.923 402.309L499.971 402.178L499.96 443.994L500.077 444.933L440.746 449.218C436.494 450.131 431.947 451.324 427.599 451.557C425.943 451.639 424.351 451.717 422.697 451.575C418.895 451.249 414.563 452.576 410.75 452.979L384 455.392C383.375 455.448 379.443 455.522 379.107 455.797L320.001 464.173L320.123 495.638L319.989 496.072C314.856 498.996 310.053 503.395 305.553 507.25C295.902 515.52 286.661 524.13 278.595 533.982L263.138 553.967L247.348 584.811C246.788 582.338 247.04 579.42 247.035 576.873L247.341 503.81L247.454 481.778C247.488 476.648 247.261 471.432 248.327 466.385C249.729 459.743 252.693 453.799 257.539 449.008C262.18 444.42 267.83 440.383 274.256 438.794C280.475 437.257 287.645 437.612 294.015 437.424L319.661 436.911L319.688 402.319L379.349 402.358L440.923 402.309Z"/>
	<path fill="#EC5173" transform="scale(0.488281 0.488281)" d="M319.688 402.319L379.349 402.358L379.495 437.494L319.661 436.911L319.688 402.319Z"/>
	<path fill="#62BC6F" transform="scale(0.488281 0.488281)" d="M379.349 402.358L440.923 402.309L440.961 440.024L379.495 437.494L379.349 402.358Z"/>
	<path fill="#66CAE2" transform="scale(0.488281 0.488281)" d="M263.138 553.967C262.61 545.937 264.428 536.908 265.655 529C267.844 514.888 269.206 498.295 277.025 486C286.803 470.623 303.572 467.861 320.001 464.173L320.123 495.638L319.989 496.072C314.856 498.996 310.053 503.395 305.553 507.25C295.902 515.52 286.661 524.13 278.595 533.982L263.138 553.967Z"/>
	<path fill="#FCDF4E" transform="scale(0.488281 0.488281)" d="M440.923 402.309L499.971 402.178L499.96 443.994L440.961 440.024L440.923 402.309Z"/>
	<path fill="#30407C" transform="scale(0.488281 0.488281)" d="M320.001 464.173L379.107 455.797C379.306 458.688 378.891 461.786 379.358 464.612L379.309 464.882L379.511 723.486L379.422 759.674L320.008 760.479L319.978 723.457L319.616 713.93L319.617 723.51L294.356 723.506C289.322 723.495 283.941 723.887 279 722.919C273.188 721.781 267.898 719.277 262.586 716.761L261.592 572.471C258.744 575.449 256.695 579.091 254.46 582.529L243.979 599.212C244.434 593.962 245.687 589.78 247.348 584.811L263.138 553.967L278.595 533.982C286.661 524.13 295.902 515.52 305.553 507.25C310.053 503.395 314.856 498.996 319.989 496.072L320.123 495.638L320.001 464.173Z"/>
	<path fill="#F28C8F" transform="scale(0.488281 0.488281)" d="M320.001 464.173L379.107 455.797C379.306 458.688 378.891 461.786 379.358 464.612L379.309 464.882C365.243 469.972 351.227 476.163 338.388 483.853L326.556 491.526C324.512 492.889 322.364 494.647 320.123 495.638L320.001 464.173Z"/>
	<path fill="#273656" transform="scale(0.488281 0.488281)" d="M319.978 723.457L379.511 723.486L379.422 759.674L320.008 760.479L319.978 723.457Z"/>
	<path fill="#33B0CB" transform="scale(0.488281 0.488281)" d="M319.989 496.072L319.616 713.93L319.617 723.51L294.356 723.506C289.322 723.495 283.941 723.887 279 722.919C273.188 721.781 267.898 719.277 262.586 716.761L261.592 572.471C258.744 575.449 256.695 579.091 254.46 582.529L243.979 599.212C244.434 593.962 245.687 589.78 247.348 584.811L263.138 553.967L278.595 533.982C286.661 524.13 295.902 515.52 305.553 507.25C310.053 503.395 314.856 498.996 319.989 496.072Z"/>
	<path fill="#FCDF4E" transform="scale(0.488281 0.488281)" d="M440.746 449.218L500.077 444.933L499.963 724.403L499.867 759.768L440.55 759.561L440.573 723.91L379.511 723.486L379.309 464.882L379.358 464.612C378.891 461.786 379.306 458.688 379.107 455.797C379.443 455.522 383.375 455.448 384 455.392L410.75 452.979C414.563 452.576 418.895 451.249 422.697 451.575C424.351 451.717 425.943 451.639 427.599 451.557C431.947 451.324 436.494 450.131 440.746 449.218Z"/>
	<path fill="#B2A12D" transform="scale(0.488281 0.488281)" d="M440.61 662.247L440.929 724.027L499.963 724.403L499.867 759.768L440.55 759.561L440.573 723.91L440.61 662.247Z"/>
	<path fill="#62BC6F" transform="scale(0.488281 0.488281)" d="M427.599 451.557C431.947 451.324 436.494 450.131 440.746 449.218L440.61 662.247L440.573 723.91L379.511 723.486L379.309 464.882L379.358 464.612C378.891 461.786 379.306 458.688 379.107 455.797C379.443 455.522 383.375 455.448 384 455.392L410.75 452.979C414.563 452.576 418.895 451.249 422.697 451.575C424.351 451.717 425.943 451.639 427.599 451.557Z"/>
	<path fill="#FCCDA0" transform="scale(0.488281 0.488281)" d="M379.107 455.797C379.443 455.522 383.375 455.448 384 455.392L410.75 452.979C414.563 452.576 418.895 451.249 422.697 451.575C424.351 451.717 425.943 451.639 427.599 451.557L379.358 464.612C378.891 461.786 379.306 458.688 379.107 455.797Z"/>
	<path fill="#10BBBC" transform="scale(0.488281 0.488281)" d="M499.971 402.178L557.332 402.172L557.946 402.629L574.431 402.496C579.538 402.523 584.173 402.078 589 404.064C600.977 408.992 610.913 416.029 616.234 428.203C618.146 432.579 619.353 437.028 620.042 441.75L620.166 442.557C620.837 447.278 620.531 452.368 620.564 457.146L620.7 481.936L620.972 568.02L620.751 656.731L620.631 681.328C620.611 685.801 620.906 690.574 620.313 695C619.406 701.771 616.624 707.99 612.557 713.426C608.582 718.738 602.988 723.172 596.291 724.184C591.922 724.844 587.197 724.519 582.768 724.533L557.537 724.563L557.393 724.146C553.44 725.11 548.149 724.492 544.038 724.482L513.996 724.384C509.457 724.366 504.454 723.927 499.963 724.403L500.077 444.933L499.96 443.994L499.971 402.178Z"/>
	<path fill="#D74799" transform="scale(0.488281 0.488281)" d="M499.971 402.178L557.332 402.172L557.946 402.629L557.393 724.146C553.44 725.11 548.149 724.492 544.038 724.482L513.996 724.384C509.457 724.366 504.454 723.927 499.963 724.403L500.077 444.933L499.96 443.994L499.971 402.178Z"/>
</svg>
