<?xml version="1.0" encoding="utf-8" ?>
<svg xmlns="http://www.w3.org/2000/svg" xmlns:xlink="http://www.w3.org/1999/xlink" width="500" height="500">
	<path fill="#EA584F" transform="scale(0.488281 0.488281)" d="M-0 -0L1024 0L1024 1024L-0 1024L0 -0Z"/>
	<path fill="#CF453F" transform="scale(0.488281 0.488281)" d="M608.094 842.028C629.561 841.938 651.154 843.668 672.567 845.052L781.57 855.623C802.216 858.6 822.608 861.961 842.75 867.493C854.037 870.593 866.022 874.032 876.177 879.997L877 880.486C880.251 882.391 884.535 885.564 885.707 889.323C886.265 891.112 885.484 893.039 884.519 894.549C881.858 898.712 877.769 901.068 873.511 903.295C865.822 907.317 857.346 909.843 849 912.112L817 919.445L777.17 925.352L648.836 936.761C548.494 942.204 448.324 941.658 348.08 934.595L291.039 930.487L256.5 926.469C230.409 923.339 204.771 919.392 179.336 912.616C168.794 909.808 156.415 906.485 147.409 900.181L146.808 899.75C144.447 898.078 142.629 896.54 141.009 894.118C140.005 892.619 139.399 890.981 139.838 889.167C140.681 885.679 144.759 882.03 147.693 880.226L148.347 879.836C157.288 874.429 168.024 870.817 178.086 868.15C219.702 857.121 263.307 851.939 306.109 848.014L415.26 841.413C411.584 848.86 407.004 855.848 402.731 862.963C396.506 873.324 389.451 883.914 393.481 896.591C395.183 901.944 399.233 906.489 404.273 908.939C407.36 910.44 410.331 911.248 413.758 911.399L447.325 911.296L503.897 911.062L572.171 911.369L611.5 911.44C613.597 911.379 615.699 911.043 617.669 910.303C622.785 908.38 627.184 904.276 629.35 899.25C632.452 892.053 631.303 883.723 628.287 876.703C623.018 864.438 613.542 854.329 608.094 842.028Z"/>
	<path fill="#4A0B4E" transform="scale(0.488281 0.488281)" d="M415.26 841.413L415.416 840.99C415.878 839.702 416.285 838.369 416.424 837.002C416.837 832.928 416.524 828.519 416.53 824.416L416.537 800.054L416.505 720.351C407.448 715.576 398.248 711.45 389.62 705.857C343.594 676.024 311.591 629.907 295.412 577.764L291.53 563.977C283.19 560.046 275.388 553.827 272.319 544.785C269.148 535.446 270.487 523.23 270.512 513.343C270.526 508.019 270.126 502.283 270.881 497.038C271.297 494.152 272.223 491.35 273.53 488.747C278.587 478.672 288.956 471.715 298.358 466.086L273.718 466.431C268.428 466.438 262.415 466.992 257.246 465.71C253.581 464.801 250.015 462.964 247.173 460.463C242.016 455.925 238.772 450.379 237.944 443.5L237.824 442.543C237.19 437.256 237.56 431.672 237.567 426.348L237.625 396.912L237.754 297.155L237.641 265.473C237.611 259.782 237.873 253.901 237.392 248.234C232.096 245.546 227.703 242.248 225.701 236.37C224.032 231.47 224.626 225.485 224.641 220.349C224.662 213.654 223.619 204.646 226.638 198.555C229.367 193.049 233.963 189.014 239.895 187.251C243.463 186.19 247.215 186.507 250.899 186.501L268.686 186.504L354.8 186.539L369.342 186.539C370.166 186.539 372.86 186.804 373.447 186.539C373.659 186.443 374.65 184.942 374.812 184.729L380.289 177.592C386.596 169.552 393.309 162.223 400.888 155.379C453.036 108.287 530.538 99.3198 591.822 133.927C606.806 142.388 619.675 152.95 631.661 165.245C635.306 168.985 638.752 172.919 642.01 177L647.653 184.419C648.029 184.928 648.931 186.517 649.349 186.745C650.398 187.316 661.695 186.867 663.65 186.874L727.12 187.069L727.082 176.454C719.208 171.044 713.795 165.804 711.824 156.025C710.146 147.704 711.666 138.279 716.51 131.25C721.217 124.42 728.901 120.048 737.023 118.719C744.791 117.448 753.425 119.954 759.75 124.57C766.273 129.331 770.964 137.403 771.957 145.407C773.052 154.236 770.091 162.544 764.57 169.337C763.22 170.998 761.776 172.387 760.102 173.723C759.827 173.943 757.544 175.568 757.499 175.737C757.31 176.436 757.517 178.108 757.523 178.898L757.583 186.788C769.908 186.625 782.986 184.437 792.499 194.25C798.913 200.867 797.627 210.252 797.669 218.688L797.635 234.613C797.436 238.769 794.762 242.621 791.75 245.331C790.734 246.245 785.709 249.063 785.488 250.02C784.95 252.344 785.455 256.192 785.461 258.65L785.494 280.003L785.703 389.915L785.791 422.682C785.797 428.731 786.259 435.416 785.331 441.383C784.29 448.076 780.973 454.743 775.916 459.292C772.565 462.307 768.199 464.448 763.771 465.308C760.159 466.009 755.725 465.527 752.016 465.482L729.556 465.168C739.04 471.852 751.029 480.652 753.316 492.828L753.537 494.25L753.66 495.028C754.557 501.271 754.003 508.281 754.005 514.627C754.007 522.293 754.835 531.108 753.329 538.58C752.545 542.471 750.672 546.314 748.289 549.474C745.459 553.229 741.704 556.308 737.743 558.8C736.317 559.697 731.476 561.717 730.737 562.967C730.279 563.74 730.147 567.226 729.956 568.329C729.045 573.589 728.064 578.86 726.661 584.013C718.772 612.988 703.617 640.87 683.746 663.345C670.903 677.872 656.796 689.968 640.559 700.563C634.312 704.638 627.892 708.45 621.269 711.881L610.333 717.203C609.683 717.511 607.7 718.2 607.349 718.615C607.253 718.728 607.347 718.911 607.346 719.059L607.243 742.983L607.291 808.877L607.349 828.873C607.362 832.419 607.136 836.24 607.565 839.75C607.665 840.569 607.856 841.241 608.094 842.028C613.542 854.329 623.018 864.438 628.287 876.703C631.303 883.723 632.452 892.053 629.35 899.25C627.184 904.276 622.785 908.38 617.669 910.303C615.699 911.043 613.597 911.379 611.5 911.44L572.171 911.369L503.897 911.062L447.325 911.296L413.758 911.399C410.331 911.248 407.36 910.44 404.273 908.939C399.233 906.489 395.183 901.944 393.481 896.591C389.451 883.914 396.506 873.324 402.731 862.963C407.004 855.848 411.584 848.86 415.26 841.413Z"/>
	<path fill="#FEA277" transform="scale(0.488281 0.488281)" d="M246.413 259.077L246.548 248.973L257.946 248.964L257.862 264.284L257.572 264.505C256.071 263.659 253.963 263.271 252.326 262.632C250.061 261.748 248.318 260.537 246.413 259.077Z"/>
	<path fill="#58DEDC" transform="scale(0.488281 0.488281)" d="M734.101 177.966L749.523 177.985L749.505 188.027L734.179 187.999L734.101 177.966Z"/>
	<defs>
		<linearGradient id="gradient_0" gradientUnits="userSpaceOnUse" x1="574.28198" y1="746.54242" x2="600.48077" y2="727.62891">
			<stop offset="0" stop-color="#266F91"/>
			<stop offset="1" stop-color="#1E84A3"/>
		</linearGradient>
	</defs>
	<path fill="url(#gradient_0)" transform="scale(0.488281 0.488281)" d="M576.573 728.592L598.593 721.798L598.657 745.71C591.647 748.841 584.598 751.271 576.981 752.425C576.174 750.409 576.621 747.363 576.631 745.145L576.573 728.592Z"/>
	<path fill="#E5E623" transform="scale(0.488281 0.488281)" d="M657.958 199.983L655.298 195.656C658.81 194.809 663.86 195.464 667.593 195.468L698.048 195.5L749.938 195.528C759.208 195.504 768.758 195.021 778 195.514C779.982 195.619 782.072 196.395 783.75 197.438C785.056 198.251 786.037 199.181 787.005 200.362C786.137 200.783 785.948 200.754 784.975 200.642C770.54 198.975 755.302 199.937 740.725 199.939L657.958 199.983Z"/>
	<path fill="#1ABDF6" transform="scale(0.488281 0.488281)" d="M748.451 128.292C755.441 131.419 760.066 135.639 762.838 142.973C764.836 148.26 763.862 154.14 761.456 159.111C758.929 164.332 755.239 167.776 749.72 169.615C744.117 171.482 737.624 171.261 732.342 168.567C730.288 167.519 728.512 166.194 726.722 164.761L727.212 163.958C728.396 162.375 730.639 162.408 732.5 162.093C737.52 161.243 741.986 158.999 745.002 154.776C749.371 148.662 749.965 140.451 748.773 133.2C748.501 131.548 748.461 129.965 748.451 128.292Z"/>
	<defs>
		<linearGradient id="gradient_1" gradientUnits="userSpaceOnUse" x1="297.3829" y1="240.11661" x2="300.34003" y2="191.56201">
			<stop offset="0" stop-color="#BAE300"/>
			<stop offset="1" stop-color="#EAEE21"/>
		</linearGradient>
	</defs>
	<path fill="url(#gradient_1)" transform="scale(0.488281 0.488281)" d="M239.526 238.937L236.408 236.472C234.654 234.892 233.59 233.116 233.497 230.75L233.461 213.005C233.463 210.05 233.045 206.438 233.759 203.59C234.135 202.089 235.303 200.466 236.357 199.363C238.371 197.256 240.798 195.681 243.699 195.172C247.258 194.546 251.6 194.988 255.22 194.994L279.36 194.999L368.291 194.993L365.539 199.317L284.644 199.504L258.645 199.475C254.254 199.474 249.609 199.184 245.25 199.512C243.842 199.619 242.609 200.301 241.605 201.276C240.712 202.144 240.086 203.324 239.762 204.521C239.173 206.698 239.492 209.593 239.493 211.866L239.553 227.062L239.526 238.937Z"/>
	<path fill="#58DEDC" transform="scale(0.488281 0.488281)" d="M726.722 164.761C725.224 163.413 723.91 161.828 722.852 160.108C719.753 155.072 718.849 148.662 720.417 142.969C722.011 137.181 725.956 132.316 731.218 129.464C736.852 126.409 742.43 126.526 748.451 128.292C748.461 129.965 748.501 131.548 748.773 133.2C749.965 140.451 749.371 148.662 745.002 154.776C741.986 158.999 737.52 161.243 732.5 162.093C730.639 162.408 728.396 162.375 727.212 163.958L726.722 164.761Z"/>
	<path fill="#306F7B" transform="scale(0.488281 0.488281)" d="M672.608 579.297L721.36 567.055L717.944 583.23L701.516 589.131C689.187 592.973 676.564 595.704 663.834 597.809L662.736 597.272L672.608 579.297Z"/>
	<path fill="#58DEDC" transform="scale(0.488281 0.488281)" d="M403.202 897.017L619.75 897.089L620.404 897.75L618.322 899.883C616.157 901.094 614.023 902.42 611.48 902.472L573.145 902.114L487.993 902.084L437.632 902.404C429.677 902.449 421.154 903.093 413.25 902.387C408.935 902.002 406.24 899.845 403.202 897.017Z"/>
	<path fill="#D2793E" transform="scale(0.488281 0.488281)" d="M257.946 248.964L347.893 248.613C347.045 252.998 345.923 257.553 345.585 262C344.971 270.084 345.796 278.216 345.4 286.279C344.653 283.936 344.912 281.054 344.898 278.593L344.988 264.001L257.862 264.284L257.946 248.964Z"/>
	<path fill="#588702" transform="scale(0.488281 0.488281)" d="M239.553 227.062C243.346 226.602 247.479 226.945 251.325 226.944L274.542 226.95L353.296 227.052L349.433 240.136C346.457 240.797 342.564 240.382 339.489 240.387L317.294 240.384L270.851 240.301L244.362 240.103C242.561 240.013 241.14 239.754 239.526 238.937L239.553 227.062Z"/>
	<path fill="#588702" transform="scale(0.488281 0.488281)" d="M669.694 226.431L743.58 226.233L761.772 226.111C764.933 226.084 768.548 226.383 771.631 225.711C778.939 224.118 785.24 213.809 788.897 207.831C788.924 212.525 790.092 235.186 787.617 237.721C786.023 239.353 784.35 240.01 782.112 240.277C778.052 240.761 773.741 240.482 769.641 240.493L747.3 240.513L673.982 240.476L669.694 226.431Z"/>
	<path fill="#FEC78F" transform="scale(0.488281 0.488281)" d="M246.413 259.077C248.318 260.537 250.061 261.748 252.326 262.632C253.963 263.271 256.071 263.659 257.572 264.505L257.527 392.049L257.5 423.848C257.496 427.22 258.286 433.274 257.123 436.281L246.413 436.176L246.413 259.077Z"/>
	<path fill="#D2793E" transform="scale(0.488281 0.488281)" d="M349.184 435.63C350.119 444.847 351.807 450.82 358.194 457.798L291.306 458.037L271.026 458.035C267.512 458.033 263.576 458.396 260.132 457.867C257.103 457.402 254.275 455.596 252.05 453.557C249.812 451.506 248.413 449.341 247.43 446.5L247.186 445.841C246.156 442.847 246.434 439.308 246.413 436.176L257.123 436.281C260.173 436.795 263.696 436.451 266.825 436.455L285.135 436.471L348.5 436.446L349.184 435.63Z"/>
	<defs>
		<linearGradient id="gradient_2" gradientUnits="userSpaceOnUse" x1="574.34979" y1="822.30139" x2="609.4165" y2="816.69354">
			<stop offset="0" stop-color="#2490A4"/>
			<stop offset="1" stop-color="#25A9B7"/>
		</linearGradient>
	</defs>
	<path fill="url(#gradient_2)" transform="scale(0.488281 0.488281)" d="M576.981 752.425C584.598 751.271 591.647 748.841 598.657 745.71L598.629 804.652L598.666 826.944C598.679 833.141 598.162 840.023 600.158 845.957C604.615 859.206 616.069 869.307 620.59 882.5L620.856 883.26C621.387 884.828 621.604 885.855 621.398 887.497C618.908 889.006 603.945 888.175 600.082 888.194C595.953 881.731 592.47 874.872 588.711 868.188C584.997 861.583 580.069 854.51 578.039 847.189L577.855 846.5C576.549 841.831 576.603 836.886 576.564 832.074L576.524 814.007L576.6 767.787C576.603 763.76 577.594 756.241 576.082 752.618L576.981 752.425Z"/>
	<path fill="#7DB103" transform="scale(0.488281 0.488281)" d="M787.005 200.362C788.945 203.045 789.174 204.538 788.897 207.831C785.24 213.809 778.939 224.118 771.631 225.711C768.548 226.383 764.933 226.084 761.772 226.111L743.58 226.233L669.694 226.431L657.958 199.983L740.725 199.939C755.302 199.937 770.54 198.975 784.975 200.642C785.948 200.754 786.137 200.783 787.005 200.362Z"/>
	<path fill="#2F8D91" transform="scale(0.488281 0.488281)" d="M425.592 789.633L425.638 723.588C434.033 726.681 442.425 729.624 451.136 731.713C492.427 741.613 535.702 739.124 576.573 728.592L576.631 745.145C576.621 747.363 576.174 750.409 576.981 752.425L576.082 752.618C567.416 754.871 557.885 755.691 549 756.597C523.826 759.166 498.353 759.514 473.271 755.746C462.905 754.189 452.637 751.641 442.522 748.931L425.95 743.666L425.84 773.823C425.818 778.959 426.204 784.546 425.592 789.633Z"/>
	<path fill="#7DB103" transform="scale(0.488281 0.488281)" d="M239.553 227.062L239.493 211.866C239.492 209.593 239.173 206.698 239.762 204.521C240.086 203.324 240.712 202.144 241.605 201.276C242.609 200.301 243.842 199.619 245.25 199.512C249.609 199.184 254.254 199.474 258.645 199.475L284.644 199.504L365.539 199.317L353.296 227.052L274.542 226.95L251.325 226.944C247.479 226.945 243.346 226.602 239.553 227.062Z"/>
	<path fill="#58DEDC" transform="scale(0.488281 0.488281)" d="M669.388 490.83C671.796 493.108 673.654 494.896 674.257 498.281C673.475 501.651 671.879 503.598 669 505.493C660.492 511.094 648.282 512.402 638.35 513.233C620.92 514.69 603.201 514.128 585.722 514.078L506.797 513.871L429.15 513.994L397.072 513.837C387.938 513.656 378.448 513.387 369.506 511.338C363.027 509.854 352.975 506.543 349.259 500.688C348.354 499.262 348.429 497.873 348.547 496.25C349.431 494.55 350.284 493.251 351.633 491.886C354.63 496.617 359.449 497.944 364.669 499.111C376.12 501.669 388.105 501.505 399.771 501.507C404.732 501.507 410.155 501.12 415.044 501.941L625.182 501.912C625.253 501.746 630.419 501.253 631.317 501.16C641.059 500.151 650.851 497.981 660.122 494.833C663.302 493.752 666.631 492.791 669.388 490.83Z"/>
	<path fill="#FEC78F" transform="scale(0.488281 0.488281)" d="M357.952 435.905L353.344 267.234C353.496 260.885 355.097 254.204 356.467 248C363.842 214.603 380.393 186.254 405.284 162.954C433.969 136.103 474.77 120.305 514.1 121.592C551.892 122.829 592.32 136.967 618.602 165.054C619.362 169.074 623.527 173.013 625.397 176.814L624.553 176.371C621.736 174.789 619.084 171.585 616.587 169.48C611.042 164.807 605.145 160.157 599.059 156.203C563.301 132.968 519.16 125.003 477.617 135.046C438.881 144.41 406.128 167.672 385.228 201.781C376.678 215.735 370.857 230.289 366.45 246C364.676 252.323 362.724 258.871 361.76 265.379C361.054 270.143 361.741 275.353 361.87 280.167L362.059 299.243L364.327 392.697L365.629 419.657C365.914 424.322 366.514 429.037 366.545 433.702C363.601 434.118 360.649 434.58 357.952 435.905Z"/>
	<path fill="#D2793E" transform="scale(0.488281 0.488281)" d="M677.843 264.826L675.216 249.034L777.48 248.995L777.611 380.535L777.539 418.848C777.515 425.44 778.053 432.636 777.101 439.159C776.41 443.898 774.37 448.825 770.978 452.273C768.76 454.529 766.077 456.144 762.931 456.661C759.215 457.272 755.217 456.993 751.448 457.006L730.474 457.041L665.055 457.077L665.477 456.544C670.276 450.38 672.364 444.29 672.917 436.553L726.686 436.54C734.844 436.534 744.054 437.366 752.066 436.25C755.409 435.784 758.661 434.532 761.249 432.327C763.313 430.569 764.372 428.198 764.484 425.5L764.563 390.494L764.584 320.828L764.992 282.722C765.023 279.561 765.829 273.684 764.927 270.75C764.68 269.945 763.866 268.862 763.265 268.272C761.485 266.524 759.321 265.602 756.886 265.177C754.39 264.743 751.392 264.998 748.838 264.988L733.75 264.98L677.843 264.826Z"/>
	<defs>
		<linearGradient id="gradient_3" gradientUnits="userSpaceOnUse" x1="485.97354" y1="607.89557" x2="486.54114" y2="572.42938">
			<stop offset="0" stop-color="#2E7782"/>
			<stop offset="1" stop-color="#2E8C8F"/>
		</linearGradient>
	</defs>
	<path fill="url(#gradient_3)" transform="scale(0.488281 0.488281)" d="M304.716 579.14L300.937 567.986C314.215 571.858 327.074 575.68 340.688 578.264C374.599 584.7 408.913 586.942 443.318 588.614C506.904 591.704 571.236 591.254 634.623 584.937L672.608 579.297L662.736 597.272L663.834 597.809L662.315 598L634.168 601.761L569.768 607.25C517.355 610.268 465.179 609.004 412.847 605.198C386.386 603.273 358.944 601.542 333.339 594.267C325.709 592.099 318.97 589.116 312.086 585.185C310.196 582.938 307.22 580.688 304.716 579.14Z"/>
	<path fill="#B3EFE6" transform="scale(0.488281 0.488281)" d="M351.633 491.886C357.791 486.742 365.815 483.43 372.847 479.602L385.112 473.025C387.727 471.648 390.664 469.931 393.553 469.25C397.387 468.346 402.605 468.936 406.615 468.926L436.007 468.894L556.123 468.903L608.953 468.779L622.921 468.733C625.485 468.727 628.499 468.447 631 469.025C636.612 470.32 642.743 474.838 647.687 477.785L669.388 490.83C666.631 492.791 663.302 493.752 660.122 494.833C650.851 497.981 641.059 500.151 631.317 501.16C630.419 501.253 625.253 501.746 625.182 501.912L415.044 501.941C410.155 501.12 404.732 501.507 399.771 501.507C388.105 501.505 376.12 501.669 364.669 499.111C359.449 497.944 354.63 496.617 351.633 491.886Z"/>
	<path fill="#2F8D91" transform="scale(0.488281 0.488281)" d="M663.834 597.809C676.564 595.704 689.187 592.973 701.516 589.131L717.944 583.23C711.713 602.039 703.987 620.167 693.185 636.838C674.356 665.892 646.997 688.64 616.228 704.129C588.944 717.864 558.611 725.61 528.25 728.115C497.675 730.638 467.476 728.462 438.221 718.755C423.952 714.021 410.796 708.469 397.894 700.621C393.554 697.98 388.786 695.173 384.987 691.781C389.163 691.949 393.512 693.657 397.583 694.645L421.266 699.981C430.295 701.803 439.557 702.567 448.743 703.089C471.863 704.405 495.144 702.69 517.817 697.954C564.178 688.269 606.031 666.196 637.854 630.74C647.029 620.517 654.808 609.478 662.315 598L663.834 597.809Z"/>
	<path fill="#D2793E" transform="scale(0.488281 0.488281)" d="M618.602 165.054C648.512 191.414 667.41 231.02 669.87 270.811C670.93 287.975 669.518 305.883 668.809 323.053L665.759 399.445L664.938 426.837C664.797 431.965 665.298 438.292 663.699 443.139L663.456 443.906C661.644 449.347 656.343 454.998 651.254 457.467C648.438 458.833 644.904 459.922 641.75 460L580.462 459.874L447.178 459.794L398.198 459.91L382.959 459.972C380.883 459.974 378.086 460.311 376.102 459.665C369.418 457.49 363.234 452.17 360.345 445.768C358.878 442.515 358.327 439.434 357.952 435.905C360.649 434.58 363.601 434.118 366.545 433.702C374.402 433.08 382.635 433.524 390.546 433.453L440.069 433.315L540.349 433.727L572.43 433.841C579.388 433.853 587.361 434.59 594.099 432.818L595 432.567C601.84 430.704 607.897 427.402 613.39 422.95C627.98 411.125 636.717 393.573 642.585 376.107C649.112 356.684 652.614 337.382 654.499 317C656.712 293.061 657.485 267.543 652.898 243.88C650.075 229.322 645.245 215.66 639.313 202.108C635.7 193.855 631.202 183.759 625.397 176.814C623.527 173.013 619.362 169.074 618.602 165.054Z"/>
	<path fill="#33A697" transform="scale(0.488281 0.488281)" d="M278.995 512.136C280.518 514.176 282.234 516.164 284.15 517.851C294.37 526.852 308.809 533.35 321.827 536.857C348.369 544.007 376.946 544.887 404.255 546.494C464.428 550.036 524.276 550.848 584.471 547.161C616.441 545.203 648.678 541.136 679.954 534.18C696.521 530.495 713.536 526.486 728.519 518.205C735.012 514.616 740.028 510.217 744.933 504.672L744.93 517.912C745 527.697 747.01 539.162 739.485 546.705C733.704 552.501 724.784 556.107 717.259 558.951C701.392 564.948 684.401 568.422 667.703 571.187C644.59 575.014 621.52 577.271 598.148 578.763L485.372 581.065C448.863 580.16 412.212 578.728 375.929 574.377C354.946 571.861 333.947 568.656 313.663 562.577C303.772 559.612 291.909 556.11 284.62 548.404C277.772 541.164 278.96 533.693 279.027 524.547L278.995 512.136Z"/>
	<path fill="#49C3B5" transform="scale(0.488281 0.488281)" d="M278.995 512.136C280.518 514.176 282.234 516.164 284.15 517.851C294.37 526.852 308.809 533.35 321.827 536.857C348.369 544.007 376.946 544.887 404.255 546.494C464.428 550.036 524.276 550.848 584.471 547.161C616.441 545.203 648.678 541.136 679.954 534.18C696.521 530.495 713.536 526.486 728.519 518.205C735.012 514.616 740.028 510.217 744.933 504.672L744.93 517.912C744.236 519.484 743.975 519.555 742.61 520.595C741.056 521.779 739.723 523.555 738.25 524.881C735.706 527.169 732.888 529.094 729.974 530.87C714.317 540.414 696.77 545.544 679 549.497C651.615 555.589 623.763 558.265 595.84 560.444C556.719 563.498 518.017 564.881 478.75 563.968L437.5 562.048L367 556.133C356.558 554.801 345.803 553.463 335.549 551.048C321.956 547.846 309.051 543.936 296.678 537.331C290.531 534.049 284.955 530.549 280.25 525.448L279.027 524.547L278.995 512.136Z"/>
	<path fill="#FDA82F" transform="scale(0.488281 0.488281)" d="M677.843 264.826L733.75 264.98L748.838 264.988C751.392 264.998 754.39 264.743 756.886 265.177C759.321 265.602 761.485 266.524 763.265 268.272C763.866 268.862 764.68 269.945 764.927 270.75C765.829 273.684 765.023 279.561 764.992 282.722L764.584 320.828L764.563 390.494L764.484 425.5C764.372 428.198 763.313 430.569 761.249 432.327C758.661 434.532 755.409 435.784 752.066 436.25C744.054 437.366 734.844 436.534 726.686 436.54L672.917 436.553L677.116 331.75L678.508 287.025C678.538 279.633 678.77 272.174 677.843 264.826Z"/>
	<path fill="#FDA82F" transform="scale(0.488281 0.488281)" d="M257.862 264.284L344.988 264.001L344.898 278.593C344.912 281.054 344.653 283.936 345.4 286.279L349.184 435.63L348.5 436.446L285.135 436.471L266.825 436.455C263.696 436.451 260.173 436.795 257.123 436.281C258.286 433.274 257.496 427.22 257.5 423.848L257.527 392.049L257.572 264.505L257.862 264.284Z"/>
	<path fill="#58DEDC" transform="scale(0.488281 0.488281)" d="M278.995 512.136L278.707 502.279C278.923 494.265 282.963 488.766 288.649 483.505C293.955 478.596 300.373 474.914 306.621 471.361C309.318 469.828 312.397 467.792 315.445 467.083C316.824 466.763 318.611 466.979 320.049 466.971L330.25 466.918L377.76 467.127C370.95 471.714 363.07 475.276 355.896 479.312C350.483 482.358 345.002 485.539 342.003 491.25C340.105 494.864 339.598 498.87 340.904 502.772C342.9 508.732 349.291 512.762 354.732 515.191C365.699 520.087 377.811 521.451 389.673 522.286C402.44 523.185 415.766 522.482 428.582 522.489L501.309 522.587L586.485 522.647C601.607 522.631 617.029 523.202 632.111 522.264C643.775 521.539 655.6 520.536 666.582 516.215C672.736 513.793 679.801 509.324 682.407 502.944L682.675 502.25C683.559 500.023 683.967 498.688 683.29 496.322L683.036 495.5L682.549 493.866C679.778 485.764 670.826 481.39 663.942 477.362L647.232 468.197L651.176 467.031C655.904 465.853 662.008 466.505 666.911 466.498L698.053 466.532L710.51 466.433C712.777 466.44 714.961 466.21 716.926 467.54C724.922 472.955 733.955 478.517 740.145 486.032C744.996 491.922 745.732 497.387 744.933 504.672C740.028 510.217 735.012 514.616 728.519 518.205C713.536 526.486 696.521 530.495 679.954 534.18C648.678 541.136 616.441 545.203 584.471 547.161C524.276 550.848 464.428 550.036 404.255 546.494C376.946 544.887 348.369 544.007 321.827 536.857C308.809 533.35 294.37 526.852 284.15 517.851C282.234 516.164 280.518 514.176 278.995 512.136Z"/>
	<path fill="#49C3B5" transform="scale(0.488281 0.488281)" d="M425.592 789.633C426.204 784.546 425.818 778.959 425.84 773.823L425.95 743.666L442.522 748.931C452.637 751.641 462.905 754.189 473.271 755.746C498.353 759.514 523.826 759.166 549 756.597C557.885 755.691 567.416 754.871 576.082 752.618C577.594 756.241 576.603 763.76 576.6 767.787L576.524 814.007L576.564 832.074C576.603 836.886 576.549 841.831 577.855 846.5L578.039 847.189C580.069 854.51 584.997 861.583 588.711 868.188C592.47 874.872 595.953 881.731 600.082 888.194L465.595 888.189L423.751 888.283L409.657 888.389C407.214 888.403 404.353 888.753 402.041 887.966C400.946 885.521 403.313 880.759 404.429 878.466C409.554 867.942 416.632 858.392 421.867 847.91C423.392 844.858 424.859 841.589 425.369 838.194C426.067 833.544 425.54 828.049 425.55 823.321L425.592 789.633Z"/>
	<path fill="#58DEDC" transform="scale(0.488281 0.488281)" d="M425.592 789.633C426.204 784.546 425.818 778.959 425.84 773.823L425.95 743.666L442.522 748.931L441.979 813.147C441.963 822.793 442.633 832.89 441.787 842.466C441.59 844.703 441.126 846.605 440.159 848.638L419.194 887.807L402.041 887.966C400.946 885.521 403.313 880.759 404.429 878.466C409.554 867.942 416.632 858.392 421.867 847.91C423.392 844.858 424.859 841.589 425.369 838.194C426.067 833.544 425.54 828.049 425.55 823.321L425.592 789.633Z"/>
	<path fill="#49C3B5" transform="scale(0.488281 0.488281)" d="M304.716 579.14C307.22 580.688 310.196 582.938 312.086 585.185C318.97 589.116 325.709 592.099 333.339 594.267C358.944 601.542 386.386 603.273 412.847 605.198C465.179 609.004 517.355 610.268 569.768 607.25L634.168 601.761L662.315 598C654.808 609.478 647.029 620.517 637.854 630.74C606.031 666.196 564.178 688.269 517.817 697.954C495.144 702.69 471.863 704.405 448.743 703.089C439.557 702.567 430.295 701.803 421.266 699.981L397.583 694.645C393.512 693.657 389.163 691.949 384.987 691.781C378.288 688.178 369.834 681.204 364.739 675.425C358.402 670.541 352.365 662.96 347.359 656.727C333.963 640.048 322.472 622.722 313.654 603.161C311.172 597.654 308.519 591.881 307.268 585.959L304.716 579.14Z"/>
	<path fill="#FEFFFE" transform="scale(0.488281 0.488281)" d="M304.716 579.14C307.22 580.688 310.196 582.938 312.086 585.185C322.943 611.853 339.605 636.109 358.066 658.042L371.365 672.936C373.273 675.007 376.62 677.747 377.788 680.23L369.06 673.637C368.464 672.466 366.185 670.98 365.154 670.086L355.254 661.055C346.132 652.02 337.772 641.672 330.381 631.199C324.335 622.632 319.255 612.754 315.027 603.174C312.637 597.759 310.722 590.669 307.268 585.959L304.716 579.14Z"/>
	<path fill="#FDA82F" transform="scale(0.488281 0.488281)" d="M366.545 433.702C366.514 429.037 365.914 424.322 365.629 419.657L364.327 392.697L362.059 299.243L361.87 280.167C361.741 275.353 361.054 270.143 361.76 265.379C362.724 258.871 364.676 252.323 366.45 246C370.857 230.289 376.678 215.735 385.228 201.781C406.128 167.672 438.881 144.41 477.617 135.046C519.16 125.003 563.301 132.968 599.059 156.203C605.145 160.157 611.042 164.807 616.587 169.48C619.084 171.585 621.736 174.789 624.553 176.371L625.397 176.814C631.202 183.759 635.7 193.855 639.313 202.108C645.245 215.66 650.075 229.322 652.898 243.88C657.485 267.543 656.712 293.061 654.499 317C652.614 337.382 649.112 356.684 642.585 376.107C636.717 393.573 627.98 411.125 613.39 422.95C607.897 427.402 601.84 430.704 595 432.567L594.099 432.818C587.361 434.59 579.388 433.853 572.43 433.841L540.349 433.727L440.069 433.315L390.546 433.453C382.635 433.524 374.402 433.08 366.545 433.702Z"/>
	<path fill="#FEFFFE" transform="scale(0.488281 0.488281)" d="M406.654 206.581C407.863 206.39 408.99 206.285 410.216 206.409C412.958 206.685 415.266 208.436 416.837 210.646C418.098 212.418 418.416 214.557 417.864 216.647C416.817 220.608 413.914 222.752 410.54 224.673C408.912 224.929 407.472 225.107 405.851 224.703C403.64 224.153 401.851 223.095 400.682 221.085C399.525 219.098 399.059 216.831 399.677 214.582C400.751 210.673 403.368 208.585 406.654 206.581Z"/>
	<path fill="#FEFFFE" transform="scale(0.488281 0.488281)" d="M432.425 168.585C435.404 168.453 438.22 168.205 441.02 169.461C444.381 170.97 446.825 173.71 447.999 177.211C449.491 181.665 448.057 186.728 446.019 190.75C441.866 198.946 435.148 204.287 426.474 207.103C423.076 207.735 419.676 207.672 416.523 206.118C413.807 204.779 411.543 202.145 410.651 199.25C409.202 194.549 410.797 188.266 413.001 184C417.185 175.905 423.86 171.211 432.425 168.585Z"/>
</svg>
