<?xml version="1.0" encoding="utf-8" ?>
<svg xmlns="http://www.w3.org/2000/svg" xmlns:xlink="http://www.w3.org/1999/xlink" width="500" height="500">
	<path fill="#EEB9B9" transform="scale(0.488281 0.488281)" d="M-0 -0L1024 0L1024 1024L-0 1024L0 -0Z"/>
	<defs>
		<linearGradient id="gradient_0" gradientUnits="userSpaceOnUse" x1="441.49265" y1="495.13861" x2="600.3269" y2="674.65491">
			<stop offset="0" stop-color="#B38688"/>
			<stop offset="1" stop-color="#B17C99"/>
		</linearGradient>
	</defs>
	<path fill="url(#gradient_0)" transform="scale(0.488281 0.488281)" d="M923.772 331.608L924.081 332.034C929.092 338.794 936.877 343.744 941.22 350.878C921.688 371.959 899.357 390.41 880.276 411.91L857.08 439.484L842.946 457.987C839.257 462.88 836.006 468.012 831.25 471.986C820.606 480.881 808.204 488.354 796.985 496.563L705.201 563.203L505.059 708.569L424.465 766.837L320.148 842.469L299.955 858.099C296.156 861.159 292.326 864.769 288.25 867.419C287.196 868.105 285.6 868.859 284.329 868.923C281.462 869.067 277.775 867.596 275.078 866.628C274.569 866.446 272.319 865.438 272.055 865.494C270.777 865.763 267.37 868.798 266.222 869.67L245.825 885.597L194.19 925.011L89.426 807.088L98.0572 797.696L161.78 868.987L174.904 883.967C177.914 887.451 180.813 891.121 184.368 894.069C186.16 893.522 187.996 891.687 189.458 890.544L199.837 882.333L236.514 853.61L259.565 835.947C261.097 834.81 264.351 831.856 265.976 831.43C266.362 831.329 266.668 831.826 267.014 832.022C270.342 833.904 274.858 837.266 278.697 837.594C282.503 837.92 288.501 830 291.342 827.381C311.199 809.08 333.995 793.641 355.863 777.851L443.97 714.089L686.865 535.349L774.523 470.083L822.35 434.473L844.403 417.538C851.844 411.38 857.079 402.826 859.25 393.396C859.603 391.863 859.786 388.301 860.504 387.082C860.928 386.362 862.529 385.358 863.24 384.75L871.394 377.692L923.772 331.608Z"/>
	<path fill="#2B0877" transform="scale(0.488281 0.488281)" d="M98.0572 797.696C95.1405 794.896 92.501 791.494 89.7966 788.456C86.6993 784.976 83.308 781.63 80.7477 777.726L150.6 704.771L149.569 702.776C148.482 700.688 147.838 698.864 147.581 696.5C146.619 687.669 152.571 683.566 158.658 678.59C166.652 672.056 174.11 664.555 181.534 657.38L215.292 624.696L334.894 508.415L632.103 217.558L644.603 205.151C646.693 203.084 648.891 200.486 651.298 198.796C655.076 196.145 659.494 193.894 663.492 191.521L689.982 176.122C691.737 175.119 695.727 173.737 697.018 172.424C697.924 171.503 698.803 169.62 699.489 168.5L704.645 159.972L731.625 116.321C734.09 112.484 736.544 107.324 739.571 104.024C740.484 103.029 741.86 102.297 743.25 102.483C745.499 102.783 747.818 106.389 749.26 108.067L760.831 121.024L773.131 134.538L845.901 213.277L854.913 223.211C855.681 224.047 857.872 225.951 858.204 226.952L870.605 239.943L882.337 252.879L911.51 284.598C915.92 289.428 921.759 294.787 925.288 300.215C929.669 304.077 933.421 308.848 937.43 313.109C938.524 314.752 939.358 315.497 939.385 317.5C937.085 320.822 933.31 323.15 930.238 325.733C928.024 327.596 926.031 329.828 923.772 331.608L871.394 377.692L863.24 384.75C862.529 385.358 860.928 386.362 860.504 387.082C859.786 388.301 859.603 391.863 859.25 393.396C857.079 402.826 851.844 411.38 844.403 417.538L822.35 434.473L774.523 470.083L686.865 535.349L443.97 714.089L355.863 777.851C333.995 793.641 311.199 809.08 291.342 827.381C288.501 830 282.503 837.92 278.697 837.594C274.858 837.266 270.342 833.904 267.014 832.022C266.668 831.826 266.362 831.329 265.976 831.43C264.351 831.856 261.097 834.81 259.565 835.947L236.514 853.61L199.837 882.333L189.458 890.544C187.996 891.687 186.16 893.522 184.368 894.069C180.813 891.121 177.914 887.451 174.904 883.967L161.78 868.987L98.0572 797.696Z"/>
	<path fill="#46599D" transform="scale(0.488281 0.488281)" d="M284.288 795.053C290.985 795.155 298.955 796.586 305.524 795.19C309.995 794.239 314.295 792.771 318.526 791.061C322.375 789.505 326.265 787.532 330.46 787.284L301.488 810.67L284.288 795.053Z"/>
	<path fill="#BA3437" transform="scale(0.488281 0.488281)" d="M741.798 409.416C752.899 426.473 763.855 443.358 772.455 461.857L762.703 469.108C754.37 451.078 743.55 434.013 731.917 417.972C733.713 414.996 739.071 411.887 741.798 409.416Z"/>
	<path fill="#46599D" transform="scale(0.488281 0.488281)" d="M911.935 330.75L912.917 331.023L860.519 377.964L859.994 376.75L857.343 351.514L911.935 330.75Z"/>
	<path fill="#E7643B" transform="scale(0.488281 0.488281)" d="M585.2 274.644L598.929 285.855C593.592 288.74 589.195 293.149 584.675 297.145L569.033 311.08C566.255 313.687 563.147 317.491 559.953 319.466C557.283 315.787 552.603 312.585 549.141 309.585L585.2 274.644Z"/>
	<path fill="#FCEFB6" transform="scale(0.488281 0.488281)" d="M598.929 285.855L609.677 294.454L573.843 331.231L573.167 331.023L559.967 319.999L559.953 319.466C563.147 317.491 566.255 313.687 569.033 311.08L584.675 297.145C589.195 293.149 593.592 288.74 598.929 285.855Z"/>
	<path fill="#46599D" transform="scale(0.488281 0.488281)" d="M279.806 797.391L297.819 813.478C290.489 819.352 284.53 826.188 278.173 833.048C265.939 825.371 250.76 818.062 240.776 807.575C247.326 807.406 254.051 806.796 260.391 805.076C267.19 803.232 273.386 800.203 279.806 797.391Z"/>
	<path fill="#7691D3" transform="scale(0.488281 0.488281)" d="M154.53 695.057C154.644 691.048 156.596 689.614 159.402 686.978L172.983 674.708C181.493 686.988 191.198 698.373 200.587 709.981L230.161 744.917C237.033 752.758 243.848 760.805 251.324 768.08C248.392 769.778 244.426 771.812 241 772.094C235.368 772.557 230.159 768.964 225.84 765.727C212.283 755.568 200.932 741.459 190.939 727.894C184.049 718.541 177.905 708.605 168.746 701.22C165.309 698.449 161.911 695.784 157.263 696.282C156.325 696.382 155.35 695.532 154.53 695.057Z"/>
	<path fill="#46599D" transform="scale(0.488281 0.488281)" d="M835.893 329.585L847.161 342.705C848.81 344.73 850.981 346.967 852.086 349.344C854.19 353.868 854.467 359.687 854.804 364.594C855.083 368.666 855.476 372.839 855.347 376.92C855.035 386.808 852.019 401.299 844.435 408.372L830.335 419.593L826.756 407.127C822.184 389.998 812.083 374.486 802.161 360.047L835.893 329.585Z"/>
	<path fill="#526BB0" transform="scale(0.488281 0.488281)" d="M154.53 695.057C155.35 695.532 156.325 696.382 157.263 696.282C161.911 695.784 165.309 698.449 168.746 701.22C177.905 708.605 184.049 718.541 190.939 727.894C200.932 741.459 212.283 755.568 225.84 765.727C230.159 768.964 235.368 772.557 241 772.094C244.426 771.812 248.392 769.778 251.324 768.08L279.806 797.391C273.386 800.203 267.19 803.232 260.391 805.076C254.051 806.796 247.326 807.406 240.776 807.575C237.266 805.061 234.166 801.899 231.096 798.876C224.441 792.325 218.302 785.403 212.337 778.223C200.534 764.015 190.295 749.159 179.462 734.258C175.423 728.703 153.978 701.016 154.53 695.057Z"/>
	<path fill="#18A02E" transform="scale(0.488281 0.488281)" d="M737.753 121.041L737.678 121.957C737.179 126.591 733.135 132.642 731.06 136.987L718.471 163.478C715.974 168.625 713.224 173.627 710.995 178.903C717.406 186.76 724.485 193.925 731.512 201.223L760.381 229.782C758.118 229.731 757.687 228.578 756.25 227L755.906 227.5C757.232 228.804 758.593 230.01 759.507 231.644C760.934 234.199 763.759 236.665 765.78 238.802L779.705 253.148L805.261 279.481L829.784 305.922C833.259 309.56 836.697 313.46 840.469 316.791C843.449 319.422 846.659 321.066 850.5 322.049L853.914 322.711C859.283 323.678 865.403 322.904 870.75 322.168C884.812 320.234 898.71 316.328 912.056 311.537C916.993 309.764 922.174 308.132 926.713 305.466L934.725 314.073L934.331 314.85C930.095 316.861 925.369 318.184 921 319.949L882.065 335.245C875.266 337.756 868.431 341.1 861.452 342.958L860.75 343.138C859.896 343.364 859.141 343.536 858.25 343.57C855.51 343.677 853.406 343.84 851.187 342.15C848.853 340.373 846.812 337.463 844.9 335.234L834.516 323.332L804.189 289.415C799.227 283.99 794.403 278.194 789.106 273.111L788.402 272.442C785.652 268.539 781.845 264.938 778.633 261.356L753.446 233.994L734.843 213.962C731.611 210.555 728.424 206.832 724.835 203.815C721.124 198.709 715.726 193.914 711.393 189.263L701.479 179.05L701.161 177.568C704.419 173.698 707.063 169.293 709.806 165.048L725.575 139.539C729.423 133.199 733.105 126.844 737.753 121.041Z"/>
	<path fill="#BA3437" transform="scale(0.488281 0.488281)" d="M731.508 417.9L731.917 417.972C743.55 434.013 754.37 451.078 762.703 469.108L753.762 476.044L715.322 504.546L683.209 454.323L723.174 423.871L723.505 423.983C726.619 422.734 729.034 420.117 731.508 417.9Z"/>
	<path fill="#EEB9B9" transform="scale(0.488281 0.488281)" d="M731.508 417.9L731.917 417.972C743.55 434.013 754.37 451.078 762.703 469.108L753.762 476.044L723.505 423.983C726.619 422.734 729.034 420.117 731.508 417.9Z"/>
	<path fill="#B3CDD4" transform="scale(0.488281 0.488281)" d="M800.474 361.835C806.305 370.096 811.934 378.433 816.464 387.5C820.375 395.328 823.274 403.397 826.036 411.681L827.957 421.01L774.004 460.984L743.024 407.592C745.783 406.128 748.51 403.454 750.99 401.517L777.118 380.372C784.785 374.189 793.332 368.589 800.474 361.835Z"/>
	<path fill="#E7643B" transform="scale(0.488281 0.488281)" d="M590.323 269.578L600.097 259.644C619.142 272.168 635.806 287.509 651.937 303.532L701.243 356.842C715.582 373.596 730.044 390.684 741.798 409.416C739.071 411.887 733.713 414.996 731.917 417.972L731.508 417.9C729.034 420.117 726.619 422.734 723.505 423.983L723.174 423.871C721.767 420.962 719.527 418.24 717.682 415.566L702.121 395.075C673.857 359.308 644.184 324.441 609.677 294.454L598.929 285.855L585.2 274.644L590.323 269.578Z"/>
	<path fill="#FBFEFE" transform="scale(0.488281 0.488281)" d="M590.323 269.578C598.187 274.229 604.7 280.112 613.013 284.253C614.704 285.096 616.672 285.773 617.904 287.25C616.938 288.317 615.976 288.948 614.76 289.677L661.272 334.782L699.387 377.92C708.575 388.187 717.221 398.186 725.448 409.26C727.403 411.892 730.194 414.952 731.508 417.9C729.034 420.117 726.619 422.734 723.505 423.983L723.174 423.871C721.767 420.962 719.527 418.24 717.682 415.566L702.121 395.075C673.857 359.308 644.184 324.441 609.677 294.454L598.929 285.855L585.2 274.644L590.323 269.578Z"/>
	<path fill="#4EB940" transform="scale(0.488281 0.488281)" d="M926.713 305.466C922.174 308.132 916.993 309.764 912.056 311.537C898.71 316.328 884.812 320.234 870.75 322.168C865.403 322.904 859.283 323.678 853.914 322.711L850.5 322.049C846.659 321.066 843.449 319.422 840.469 316.791C836.697 313.46 833.259 309.56 829.784 305.922L805.261 279.481L779.705 253.148L765.78 238.802C763.759 236.665 760.934 234.199 759.507 231.644C758.593 230.01 757.232 228.804 755.906 227.5L756.25 227C757.687 228.578 758.118 229.731 760.381 229.782L760.771 230.042C765.977 233.605 770.427 238.226 775.691 241.818C794.427 254.602 814.095 265.109 836.028 271.238C844.606 273.635 854.931 275.769 863.812 274.141C870.574 272.901 878.425 270.381 882.428 264.395C883.541 262.731 883.995 260.997 884.27 259.028L910.907 287.761C915.102 292.391 919.22 297.822 923.885 301.939L926.713 305.466Z"/>
	<path fill="#18A02E" transform="scale(0.488281 0.488281)" d="M157.692 714.089C189.864 753.441 214.886 803.013 260.91 828.406L203.369 873.11L189.971 883.658C188.364 884.931 186.249 887.1 184.363 887.811C175.971 877.104 166.374 867.1 157.28 856.984L106.053 799.996L93.8406 786.1C91.8193 783.809 88.9039 781.177 87.5169 778.5C88.0551 777.785 88.514 777.177 89.1795 776.572L97.7472 783.592L116.273 801.724L151.449 841.431L173.475 866.949C176.035 869.919 178.986 874.716 182.154 876.848C186.78 869.263 190.784 861.483 193.064 852.849C195.153 844.934 195.57 836.195 195.589 828.047C195.629 810.671 193.395 793.416 187.521 777C184.243 767.842 179.572 758.828 175.05 750.22L166.292 734.74C164.34 730.984 162.833 726.944 161.141 723.06C159.889 720.186 158.269 717.758 157.766 714.598L157.692 714.089Z"/>
	<path fill="#7691D3" transform="scale(0.488281 0.488281)" d="M188.07 687.803C186.889 686.872 185.666 684.884 184.714 683.682L176.163 672.145L547.607 311.123C550.186 313.119 556.32 318.986 559.279 319.406L559.953 319.466L559.967 319.999C556.494 322.026 553.403 325.69 550.453 328.435L533.089 344.575L464.779 410.201L410.75 462.598L357.75 515.442L295.264 576.939L238.172 634.821L218.837 655.281C216.071 658.452 214.36 662.846 212.532 666.622L188.07 687.803Z"/>
	<path fill="#E7643B" transform="scale(0.488281 0.488281)" d="M609.677 294.454C644.184 324.441 673.857 359.308 702.121 395.075L717.682 415.566C719.527 418.24 721.767 420.962 723.174 423.871L683.209 454.323C675.286 445.112 668.704 434.566 661.1 425.045C637.738 395.789 612.467 367.269 585.402 341.389C582.061 338.194 577.923 333.247 573.843 331.231L609.677 294.454Z"/>
	<path fill="#70CF47" transform="scale(0.488281 0.488281)" d="M89.1795 776.572L154.247 708.594L157.692 714.089L157.766 714.598C158.269 717.758 159.889 720.186 161.141 723.06C162.833 726.944 164.34 730.984 166.292 734.74L175.05 750.22C179.572 758.828 184.243 767.842 187.521 777C193.395 793.416 195.629 810.671 195.589 828.047C195.57 836.195 195.153 844.934 193.064 852.849C190.784 861.483 186.78 869.263 182.154 876.848C178.986 874.716 176.035 869.919 173.475 866.949L151.449 841.431L116.273 801.724L97.7472 783.592L89.1795 776.572Z"/>
	<path fill="#FBFEFE" transform="scale(0.488281 0.488281)" d="M155.215 731.469C159.068 731.322 161.234 733.017 164.415 734.919C161.271 738.193 157.42 740.796 153.968 743.741C149.779 747.316 146.012 751.34 142.454 755.536L123.954 779.698C121.32 783.328 118.698 788.335 115.397 791.295L114.532 790.692C110.923 786.436 106.617 782.871 103.308 778.347C104.352 775.847 108.946 772.162 110.948 770.17C122.756 758.425 134.87 746.601 147.862 736.173C150.182 734.31 152.59 732.86 155.215 731.469Z"/>
	<path fill="#FBFEFE" transform="scale(0.488281 0.488281)" d="M212.532 666.622C214.36 662.846 216.071 658.452 218.837 655.281L238.172 634.821L295.264 576.939L357.75 515.442L410.75 462.598L464.779 410.201L533.089 344.575L550.453 328.435C553.403 325.69 556.494 322.026 559.967 319.999L573.167 331.023L572.993 331.506C565.684 337.74 558.993 345.057 552.161 351.821L504.651 399.461L283.295 611.601C264.773 628.58 246.825 646.794 226.186 661.243C223.649 663.019 219.928 666.052 217.023 666.847C216.387 665.763 216.663 666.298 216.183 665.25L212.532 666.622Z"/>
	<path fill="#7691D3" transform="scale(0.488281 0.488281)" d="M662.829 217.549C658.689 215.5 654.553 211.862 650.713 209.196C652.863 207.171 655.024 204.977 657.455 203.292C664.08 198.7 671.58 195.133 678.538 191.057L690.993 183.583C693.356 182.148 695.803 180.319 698.476 179.608L709.933 191.635L710.666 192.216L718.949 201.126L718.984 201.118L787.568 275.354L835.893 329.585L802.161 360.047L798.219 354.912L778.242 330.544C776.96 328.334 774.887 326.285 773.235 324.321L763.291 312.554C743.863 289.943 722.942 268.265 700.715 248.375L669.974 222.647L662.829 217.549Z"/>
	<path fill="#FBFEFE" transform="scale(0.488281 0.488281)" d="M662.829 217.549C664.193 215.434 665.857 213.693 667.702 211.994C676.368 204.012 687.36 198.553 698.372 194.686C701.021 193.756 703.817 192.413 706.66 192.53C702.977 196.053 698.457 198.337 694.264 201.169C685.434 207.131 676.781 214.412 669.974 222.647L662.829 217.549Z"/>
	<path fill="#70CF47" transform="scale(0.488281 0.488281)" d="M737.753 121.041C739.916 116.989 742.247 112.523 745.259 109.058L758.884 122.683L773.412 138.357L843.047 213.857L859.888 231.911L869.657 242.755L879.1 253.095L884.27 259.028C883.995 260.997 883.541 262.731 882.428 264.395C878.425 270.381 870.574 272.901 863.812 274.141C854.931 275.769 844.606 273.635 836.028 271.238C814.095 265.109 794.427 254.602 775.691 241.818C770.427 238.226 765.977 233.605 760.771 230.042L760.381 229.782L731.512 201.223C724.485 193.925 717.406 186.76 710.995 178.903C713.224 173.627 715.974 168.625 718.471 163.478L731.06 136.987C733.135 132.642 737.179 126.591 737.678 121.957L737.753 121.041Z"/>
	<path fill="#FBFEFE" transform="scale(0.488281 0.488281)" d="M747.541 130.75L748.114 130.571C749.649 130.331 750.043 130.976 751.153 131.857C751.549 133.092 751.638 133.427 751.274 134.716C749.407 141.338 745.545 148.026 742.843 154.401C740.189 160.663 738.014 167.816 734.827 173.783C733.395 176.462 731.648 178.101 728.75 179.035C727.195 179.217 726.383 179.15 725.075 178.25C724.713 177.337 724.439 176.544 724.395 175.552C724.202 171.189 726.91 166.205 728.701 162.33C733.703 151.511 739.298 139.459 747.541 130.75Z"/>
	<path fill="#FBFEFE" transform="scale(0.488281 0.488281)" d="M743.024 407.592C717.893 371.762 689.966 338.823 659.071 307.823C641.132 289.823 622.867 272.689 601.726 258.455L649.162 210.896C652.005 212.314 654.458 214.379 657.056 216.192L676.891 231.304C701.281 251.251 724.078 273.068 745.267 296.383L762.828 316.178C767.001 321.109 771.064 326.481 775.606 331.056L776.136 331.584L797.126 357.215L800.474 361.835C793.332 368.589 784.785 374.189 777.118 380.372L750.99 401.517C748.51 403.454 745.783 406.128 743.024 407.592Z"/>
	<path fill="#526BB0" transform="scale(0.488281 0.488281)" d="M681.393 454.975C685.83 460.314 689.645 466.323 693.488 472.102L714.483 505.145L671.983 536.109L444.912 702.887L361.342 764.849C351.269 772.192 341.247 781.11 330.46 787.284C326.265 787.532 322.375 789.505 318.526 791.061C314.295 792.771 309.995 794.239 305.524 795.19C298.955 796.586 290.985 795.155 284.288 795.053C280.162 792.07 276.467 788.226 272.824 784.677L255.145 766.367L625.369 495.941C626.668 494.983 627.308 494.164 628.099 492.752L662.879 468.361C668.997 464.066 675.813 459.9 681.393 454.975Z"/>
	<path fill="#6ED3C0" transform="scale(0.488281 0.488281)" d="M572.993 331.506L587.51 345.671L610.044 368.768C635.671 395.484 660.349 424.506 681.393 454.975C675.813 459.9 668.997 464.066 662.879 468.361L628.099 492.752C627.308 494.164 626.668 494.983 625.369 495.941L255.145 766.367L229.676 738.118L188.07 687.803L212.532 666.622L216.183 665.25C216.663 666.298 216.387 665.763 217.023 666.847C219.928 666.052 223.649 663.019 226.186 661.243C246.825 646.794 264.773 628.58 283.295 611.601L504.651 399.461L552.161 351.821C558.993 345.057 565.684 337.74 572.993 331.506Z"/>
	<path fill="#FBFEFE" transform="scale(0.488281 0.488281)" d="M228.699 665.25C229.741 664.969 230.206 665.073 231.25 665.24C232.296 666.307 233.102 666.821 233.05 668.5C233.004 669.981 232.277 670.365 231.25 671.225C230.069 671.475 229.674 671.28 228.5 670.926C227.514 669.891 227.212 669.42 227 668C227.295 666.693 227.816 666.202 228.699 665.25Z"/>
	<path fill="#FBFEFE" transform="scale(0.488281 0.488281)" d="M256.365 646.25C257.823 646.113 258.983 646.276 260.143 647.25C261.293 648.216 261.317 649.37 261.472 650.75C260.548 652.391 260.366 652.737 258.684 653.75L257.974 653.885C256.698 653.972 255.294 653.787 254.401 652.75C253.274 651.441 253.496 650.579 253.514 649C254.262 647.483 254.89 647.044 256.365 646.25Z"/>
	<path fill="#7691D3" transform="scale(0.488281 0.488281)" d="M229.676 738.118C231.802 737.437 233.61 736.03 235.546 734.937L249 726.944L305.579 692.628L409.825 628.823L504.25 570.349L586.791 518.286L611.326 502.998C616.84 499.49 622.256 495.697 628.099 492.752C627.308 494.164 626.668 494.983 625.369 495.941L255.145 766.367L229.676 738.118Z"/>
	<path fill="#FBFEFE" transform="scale(0.488281 0.488281)" d="M555.722 389.207C560.012 388.931 564.507 389.258 568.704 390.195C584.75 393.777 599.098 404.838 607.932 418.56C615.621 430.501 620.007 446.784 616.733 460.826L616.507 461.75C614.924 468.415 612.218 475.108 608.127 480.648C598.139 494.171 581.329 501.439 565.121 503.805L564.968 503.86C550.831 505.994 532.841 502.253 521.75 492.962C508.906 482.202 504.644 466.421 503.094 450.351C501.743 436.352 507.038 421.677 516.049 410.961C526.727 398.262 539.059 390.594 555.722 389.207Z"/>
	<path fill="#E7643B" transform="scale(0.488281 0.488281)" d="M542.013 473.25C543.131 473.004 544.317 472.95 545.452 473.171C547.02 473.476 548.764 474.861 549.571 476.21C550.588 477.909 550.718 479.754 550.141 481.622C549.115 484.94 546.034 486.812 543.124 488.271C541.975 488.426 540.957 488.441 539.828 488.168C538.297 487.798 536.917 486.949 536.108 485.573C535.084 483.831 534.953 481.666 535.562 479.75C536.576 476.558 539.079 474.564 542.013 473.25Z"/>
	<path fill="#E7643B" transform="scale(0.488281 0.488281)" d="M581.313 409.988C582.498 410.165 583.705 410.338 584.789 410.878C586.74 411.849 587.708 413.259 588.429 415.25C588.398 417.492 587.623 418.968 586.485 420.875C581.947 428.476 575.442 435.327 570.101 442.43C565.72 448.258 561.697 455.136 556.797 460.474C554.943 462.494 553.646 463.134 550.942 463.25C549.417 462.875 547.927 462.471 546.529 461.734C544.778 460.813 543.64 459.357 543.139 457.428C542.167 453.687 543.951 449.748 545.711 446.526C549.826 438.994 556.309 432.68 562.116 426.441C567.41 420.752 573.592 412.251 581.313 409.988Z"/>
</svg>
