<?xml version="1.0" encoding="utf-8" ?>
<svg xmlns="http://www.w3.org/2000/svg" xmlns:xlink="http://www.w3.org/1999/xlink" width="500" height="500">
	<path fill="#C2D07A" transform="scale(0.488281 0.488281)" d="M-0 -0L1024 0L1024 1024L-0 1024L0 -0Z"/>
	<path fill="#0A7C65" transform="scale(0.488281 0.488281)" d="M798.593 174.282L822.578 187.538C816.314 212.838 803.04 233.793 780.285 247.443C774.233 251.073 768.028 253.465 761.305 255.536L752.066 231.72C759.709 228.76 766.846 225.455 773.359 220.407C788.379 208.765 796.145 192.803 798.593 174.282Z"/>
	<path fill="#30948B" transform="scale(0.488281 0.488281)" d="M169.943 706.022L197.439 726.993C184.735 752.402 176.069 784.102 145.997 793.914C134.983 797.508 123.784 797.466 112.791 793.858C121.636 790.745 131.146 783.267 137.17 776.17C147.55 763.944 152.537 746.76 158.669 732.135L169.943 706.022Z"/>
	<path fill="#0A7C65" transform="scale(0.488281 0.488281)" d="M199.743 171.65L199.894 169.5L200.39 169.25C206.157 174.407 212.005 179.377 218.344 183.829C221.104 185.767 224.538 188.23 227.892 188.925C226.727 185.087 225.788 181.377 225.165 177.413C234.02 186.197 246.684 194.172 258.074 199.15C260.314 200.129 262.686 201.379 265.118 201.726C272.122 205.226 278.616 207.849 286.263 209.562L274.575 230.311L264.384 255.294C253.086 250.603 243.313 245.947 233.782 238.08C213.23 221.118 202.285 197.87 199.743 171.65Z"/>
	<path fill="#CD8D07" transform="scale(0.488281 0.488281)" d="M225.165 177.413C234.02 186.197 246.684 194.172 258.074 199.15C260.314 200.129 262.686 201.379 265.118 201.726C272.122 205.226 278.616 207.849 286.263 209.562L274.575 230.311C272.416 230.091 269.869 229.081 267.802 228.376C255.326 224.12 244.909 216.509 237.252 205.714C233.493 200.414 230.727 194.738 227.892 188.925C226.727 185.087 225.788 181.377 225.165 177.413Z"/>
	<path fill="#0A7C65" transform="scale(0.488281 0.488281)" d="M222.793 623.043L250.101 646.903L233.765 667.723L210.473 703.596L197.439 726.993L169.943 706.022L169.662 705.711C171.947 702.056 173.579 697.868 175.496 694C177.514 689.929 180.14 685.83 181.485 681.501L181.468 681.221C184.541 677.584 186.932 671.925 189.45 667.773L204.482 645.026L204.946 644.998C206.273 642.236 208.831 639.478 210.746 637.053C214.577 632.203 218.261 627.565 222.585 623.132L222.793 623.043Z"/>
	<path fill="#CD8D07" transform="scale(0.488281 0.488281)" d="M181.485 681.501L210.473 703.596L197.439 726.993L169.943 706.022L169.662 705.711C171.947 702.056 173.579 697.868 175.496 694C177.514 689.929 180.14 685.83 181.485 681.501Z"/>
	<path fill="#CD8D07" transform="scale(0.488281 0.488281)" d="M222.793 623.043L250.101 646.903L233.765 667.723L204.946 644.998C206.273 642.236 208.831 639.478 210.746 637.053C214.577 632.203 218.261 627.565 222.585 623.132L222.793 623.043Z"/>
	<path fill="#30948B" transform="scale(0.488281 0.488281)" d="M839.659 681.568L839.892 681.667C842.434 686.593 845.653 691.128 848.411 695.934C849.972 698.654 851.228 702.617 853.539 704.703L852.927 705.567C861.065 726.536 871.008 747.336 883.654 765.985C887.025 770.955 890.57 776.308 894.606 780.75C899.573 786.216 905.084 789.976 910.72 794.587C902.872 796.747 894.249 797.838 886.147 796.694C881.95 796.101 878.082 795.245 874.058 793.913C859.598 789.125 846.821 777.577 839.61 764.31C833.258 752.623 829.271 739.774 823.238 727.891L811.062 704.72L839.659 681.568Z"/>
	<path fill="#CD8D07" transform="scale(0.488281 0.488281)" d="M839.659 681.568L839.892 681.667C842.434 686.593 845.653 691.128 848.411 695.934C849.972 698.654 851.228 702.617 853.539 704.703L852.927 705.567C842.691 711.926 831.914 719.499 823.238 727.891L811.062 704.72L839.659 681.568Z"/>
	<path fill="#CA391C" transform="scale(0.488281 0.488281)" d="M690.495 741.304C694.763 739.642 700.566 739.596 705.13 738.738C715.093 736.865 725.362 734.365 734.847 730.745L743.5 727.046C745.197 726.219 747.394 724.492 749.21 724.888C747.508 747.306 744.822 769.525 736.461 790.572C733.128 798.962 728.726 807.531 721.75 813.494C717.916 816.772 713.054 818.326 708.025 817.941C704.022 817.634 700.542 816.062 697.245 813.839L696.722 813.397C685.028 803.272 684.711 783.779 683.865 769.528L684.023 761.513L685.035 742.11C686.869 742.02 688.689 741.626 690.495 741.304Z"/>
	<path fill="#CA391C" transform="scale(0.488281 0.488281)" d="M438.73 899.883C442.115 906.487 444.252 913.249 446.483 920.293C448.817 929.981 449.752 939.225 450.06 949.184L285.946 949.491C285.89 934.3 287.877 920.723 292.076 906.155C296.332 909.112 300.191 912.529 304.639 915.25C326.321 928.513 351.659 933.506 376.787 930.705C398.107 928.329 425.112 916.991 438.73 899.883Z"/>
	<path fill="#CA391C" transform="scale(0.488281 0.488281)" d="M726.773 897.762C734.166 913.946 739.371 931.542 739.604 949.446L571.537 949.545C571.596 939.69 571.882 930.324 574.367 920.719L581.734 904.811C589.202 910.484 596.786 915.933 605.25 920.039C621.822 928.078 643.187 930.788 661.455 929.346C683.879 927.575 709.023 918.164 723.904 900.57C724.6 899.747 725.231 898.993 726.073 898.311L726.773 897.762Z"/>
	<path fill="#2DA98B" transform="scale(0.488281 0.488281)" d="M660.725 121.906C671.709 101.786 690.038 87.25 712.039 80.8446C733.633 74.5579 758.2 77.7713 777.735 88.7077C798.821 100.512 814.951 120.22 821.338 143.677L824.168 158.468C825.398 167.961 824.33 178.181 822.578 187.538L798.593 174.282C798.923 167.857 798.939 161.022 797.619 154.701C794.14 138.034 783.501 122.591 769.166 113.385C755.012 104.296 738.154 101.582 721.776 105.231C703.091 109.393 689.928 120.769 679.92 136.625C674.337 131.157 667.195 126.247 660.725 121.906Z"/>
	<path fill="#2DA98B" transform="scale(0.488281 0.488281)" d="M212.524 556.072L230.191 545.258C232.102 544.166 234.832 542.13 237.028 542.035C246.317 549.313 254.689 557.988 262.643 566.677C265.754 570.075 269.336 575.448 272.983 578.124L272.964 578.495L252.519 593.989L276.039 620.096C266.728 628.078 257.634 637.228 250.101 646.903L222.793 623.043L222.585 623.132C216.655 617.828 209.846 613.14 203.373 608.501C193.173 601.191 182.744 594.027 171.945 587.624C184.655 575.863 197.974 565.46 212.524 556.072Z"/>
	<path fill="#F3AC27" transform="scale(0.488281 0.488281)" d="M212.524 556.072L230.191 545.258C232.102 544.166 234.832 542.13 237.028 542.035C246.317 549.313 254.689 557.988 262.643 566.677C265.754 570.075 269.336 575.448 272.983 578.124L272.964 578.495L252.519 593.989L252.107 593.989C240.409 579.644 227.017 567.485 212.524 556.072Z"/>
	<path fill="#0A7C65" transform="scale(0.488281 0.488281)" d="M252.107 593.989L252.519 593.989L276.039 620.096C266.728 628.078 257.634 637.228 250.101 646.903L222.793 623.043C231.136 612.271 242.386 603.471 252.107 593.989Z"/>
	<path fill="#2DA98B" transform="scale(0.488281 0.488281)" d="M784.312 538.26L810.296 553.875L851.527 585.568L815.982 612.706C811.015 616.65 805.346 620.511 800.826 624.924L800.618 624.963L773.683 648.64C765.319 639.058 757.698 628.941 748.061 620.534L773.504 593.999L773.504 593.589C770.449 591.927 767.352 588.175 764.743 585.816C761.37 582.766 757.25 579.973 754.349 576.505L784.312 538.26Z"/>
	<path fill="#0A7C65" transform="scale(0.488281 0.488281)" d="M773.504 593.999L794.864 617.388C796.635 619.486 799.649 622.468 800.618 624.963L773.683 648.64C765.319 639.058 757.698 628.941 748.061 620.534L773.504 593.999Z"/>
	<path fill="#F3AC27" transform="scale(0.488281 0.488281)" d="M784.312 538.26L810.296 553.875L773.504 593.589C770.449 591.927 767.352 588.175 764.743 585.816C761.37 582.766 757.25 579.973 754.349 576.505L784.312 538.26Z"/>
	<path fill="#2DA98B" transform="scale(0.488281 0.488281)" d="M171.945 587.624C182.744 594.027 193.173 601.191 203.373 608.501C209.846 613.14 216.655 617.828 222.585 623.132C218.261 627.565 214.577 632.203 210.746 637.053C208.831 639.478 206.273 642.236 204.946 644.998L204.482 645.026L189.45 667.773C186.932 671.925 184.541 677.584 181.468 681.221L181.485 681.501C180.14 685.83 177.514 689.929 175.496 694C173.579 697.868 171.947 702.056 169.662 705.711L159.15 698.083C156.876 695.789 153.197 693.638 150.489 691.782C136.509 682.203 120.879 673.286 105.443 666.33C109.406 658.948 114.618 652.037 119.782 645.472C128.54 631.954 139.54 618.895 150.723 607.308C152.995 604.39 156.148 601.878 158.864 599.359C163.14 595.392 167.378 591.254 171.945 587.624Z"/>
	<path fill="#F3AC27" transform="scale(0.488281 0.488281)" d="M171.945 587.624C182.744 594.027 193.173 601.191 203.373 608.501C209.846 613.14 216.655 617.828 222.585 623.132C218.261 627.565 214.577 632.203 210.746 637.053C208.831 639.478 206.273 642.236 204.946 644.998L204.482 645.026C195.156 637.445 185.943 629.911 176.043 623.085L150.723 607.308C152.995 604.39 156.148 601.878 158.864 599.359C163.14 595.392 167.378 591.254 171.945 587.624Z"/>
	<path fill="#F3AC27" transform="scale(0.488281 0.488281)" d="M119.782 645.472C137.203 649.417 154.231 661.829 168.606 672.04C172.852 675.056 176.967 678.624 181.468 681.221L181.485 681.501C180.14 685.83 177.514 689.929 175.496 694C173.579 697.868 171.947 702.056 169.662 705.711L159.15 698.083C156.876 695.789 153.197 693.638 150.489 691.782C136.509 682.203 120.879 673.286 105.443 666.33C109.406 658.948 114.618 652.037 119.782 645.472Z"/>
	<path fill="#64C3BC" transform="scale(0.488281 0.488281)" d="M918.453 668.036C921.531 671.34 923.706 676.012 925.936 679.955C933.843 693.931 940.857 708.861 944.767 724.492C946.251 730.428 947.48 737.113 947.348 743.25C947.278 746.509 946.898 749.826 946.167 753C945.087 757.683 943.644 762.109 941.596 766.464C937.002 775.037 930.656 783.904 922.275 789.112C918.538 791.433 914.699 792.816 910.72 794.587C905.084 789.976 899.573 786.216 894.606 780.75C890.57 776.308 887.025 770.955 883.654 765.985C871.008 747.336 861.065 726.536 852.927 705.567L853.539 704.703L858.382 701.551C863.869 697.309 870.266 693.779 876.226 690.222C889.943 682.036 903.823 674.478 918.453 668.036Z"/>
	<path fill="#2DA98B" transform="scale(0.488281 0.488281)" d="M858.382 701.551C876.84 727.094 897.981 759.786 931.639 765.362L941.596 766.464C937.002 775.037 930.656 783.904 922.275 789.112C918.538 791.433 914.699 792.816 910.72 794.587C905.084 789.976 899.573 786.216 894.606 780.75C890.57 776.308 887.025 770.955 883.654 765.985C871.008 747.336 861.065 726.536 852.927 705.567L853.539 704.703L858.382 701.551Z"/>
	<path fill="#64C3BC" transform="scale(0.488281 0.488281)" d="M105.443 666.33C120.879 673.286 136.509 682.203 150.489 691.782C153.197 693.638 156.876 695.789 159.15 698.083L169.662 705.711L169.943 706.022L158.669 732.135C152.537 746.76 147.55 763.944 137.17 776.17C131.146 783.267 121.636 790.745 112.791 793.858L112.488 793.785C99.7303 789.87 90.1825 779.968 83.8138 768.615C81.939 765.135 80.6988 761.333 79.6298 757.54C70.8173 726.264 90.7131 692.553 105.443 666.33Z"/>
	<path fill="#2DA98B" transform="scale(0.488281 0.488281)" d="M159.15 698.083L169.662 705.711L169.943 706.022L158.669 732.135C152.537 746.76 147.55 763.944 137.17 776.17C131.146 783.267 121.636 790.745 112.791 793.858L112.488 793.785C99.7303 789.87 90.1825 779.968 83.8138 768.615C92.321 767.938 101.928 765.583 109.75 762.185C129.148 753.758 140.422 736.215 149.644 718.106C152.993 711.528 156.407 704.94 159.15 698.083Z"/>
	<path fill="#ED602D" transform="scale(0.488281 0.488281)" d="M581.734 904.811L596.625 879.735C608.753 862.339 625.263 850.242 646.25 846.346C656.169 844.505 664.755 845.487 674.348 848.199C696.463 855.598 715.692 875.377 725.922 895.975L726.773 897.762L726.073 898.311C725.231 898.993 724.6 899.747 723.904 900.57C709.023 918.164 683.879 927.575 661.455 929.346C643.187 930.788 621.822 928.078 605.25 920.039C596.786 915.933 589.202 910.484 581.734 904.811Z"/>
	<path fill="#ED602D" transform="scale(0.488281 0.488281)" d="M351.855 848.17C371.031 844.366 390.352 850.235 406.342 860.995C420.219 870.332 431.561 884.91 438.73 899.883C425.112 916.991 398.107 928.329 376.787 930.705C351.659 933.506 326.321 928.513 304.639 915.25C300.191 912.529 296.332 909.112 292.076 906.155C293.925 899.77 296.639 893.751 299.898 887.965C306.708 875.878 317.03 863.864 329.201 856.939C336.342 852.876 343.981 850.39 351.855 848.17Z"/>
	<path fill="#F3AC27" transform="scale(0.488281 0.488281)" d="M679.92 136.625C689.928 120.769 703.091 109.393 721.776 105.231C738.154 101.582 755.012 104.296 769.166 113.385C783.501 122.591 794.14 138.034 797.619 154.701C798.939 161.022 798.923 167.857 798.593 174.282C796.145 192.803 788.379 208.765 773.359 220.407C766.846 225.455 759.709 228.76 752.066 231.72L740.442 209.905C735.968 204.39 732.446 197.33 728.346 191.429C719.023 178.009 708.705 165.246 697.611 153.255L679.92 136.625Z"/>
	<path fill="#C2D07A" transform="scale(0.488281 0.488281)" d="M697.611 153.255C703.101 141.726 711.027 133.359 723.222 128.912C732.54 125.513 744.17 126.626 752.965 131.009C763.011 136.017 771.095 144.708 774.552 155.5C777.785 165.592 776.998 177.434 772.087 186.865L771.669 187.654L771.267 188.433C766.377 197.721 757.041 205.551 746.987 208.599C744.831 209.253 742.682 209.67 740.442 209.905C735.968 204.39 732.446 197.33 728.346 191.429C719.023 178.009 708.705 165.246 697.611 153.255Z"/>
	<path fill="#2DA98B" transform="scale(0.488281 0.488281)" d="M851.527 585.568C855.584 589.001 859.352 592.849 863.145 596.573C865.657 599.04 869.109 601.936 870.53 605.18L903.528 645.022C906.063 647.745 918.416 665.364 918.453 668.036C903.823 674.478 889.943 682.036 876.226 690.222C870.266 693.779 863.869 697.309 858.382 701.551L853.539 704.703C851.228 702.617 849.972 698.654 848.411 695.934C845.653 691.128 842.434 686.593 839.892 681.667L839.659 681.568L811.062 704.72L788.662 668.427L773.683 648.64L800.618 624.963L800.826 624.924C805.346 620.511 811.015 616.65 815.982 612.706L851.527 585.568Z"/>
	<path fill="#F3AC27" transform="scale(0.488281 0.488281)" d="M851.527 585.568C855.584 589.001 859.352 592.849 863.145 596.573C865.657 599.04 869.109 601.936 870.53 605.18L816.968 645.503L816.507 645.503L800.826 624.924C805.346 620.511 811.015 616.65 815.982 612.706L851.527 585.568Z"/>
	<path fill="#F3AC27" transform="scale(0.488281 0.488281)" d="M903.528 645.022C906.063 647.745 918.416 665.364 918.453 668.036C903.823 674.478 889.943 682.036 876.226 690.222C870.266 693.779 863.869 697.309 858.382 701.551L853.539 704.703C851.228 702.617 849.972 698.654 848.411 695.934C845.653 691.128 842.434 686.593 839.892 681.667C853.353 671.936 867.188 663.11 881.846 655.303C888.948 651.519 895.933 647.747 903.528 645.022Z"/>
	<path fill="#0A7C65" transform="scale(0.488281 0.488281)" d="M800.618 624.963L800.826 624.924L816.507 645.503L816.968 645.503L839.659 681.568L811.062 704.72L788.662 668.427L773.683 648.64L800.618 624.963Z"/>
	<path fill="#CD8D07" transform="scale(0.488281 0.488281)" d="M800.618 624.963L800.826 624.924L816.507 645.503L788.662 668.427L773.683 648.64L800.618 624.963Z"/>
	<path fill="#2DA98B" transform="scale(0.488281 0.488281)" d="M199.743 171.65C199.304 169.186 199.517 166.331 199.507 163.82C199.477 155.721 200.441 147.966 202.557 140.141C208.496 118.188 222.595 98.2889 242.416 86.8688C262.582 75.2507 286.899 71.6572 309.469 77.8297C333.789 84.481 352.989 100.356 365.354 122.148L345.491 138.029L327.402 154.905L310.642 174.184C301.603 185.52 293.885 197.269 286.263 209.562C278.616 207.849 272.122 205.226 265.118 201.726C262.686 201.379 260.314 200.129 258.074 199.15C246.684 194.172 234.02 186.197 225.165 177.413C225.788 181.377 226.727 185.087 227.892 188.925C224.538 188.23 221.104 185.767 218.344 183.829C212.005 179.377 206.157 174.407 200.39 169.25L199.894 169.5L199.743 171.65Z"/>
	<path fill="#F3AC27" transform="scale(0.488281 0.488281)" d="M225.165 177.413L224.817 176.096C221.038 159.675 225.63 141.983 234.836 128.15C244.133 114.18 259.217 104.843 275.5 101.404C283.968 99.6165 292.595 100.082 300.95 102.19C321.747 107.438 334.735 120.031 345.491 138.029L327.402 154.905C322.896 142.967 316.134 133.711 304.312 128.288C300.598 126.584 296.779 125.547 292.75 124.914L292.006 124.79C287.762 124.137 282.917 124.273 278.75 125.278L277.797 125.5C267.231 128.021 257.752 135.033 252.108 144.322C246.418 153.69 244.634 165.172 247.386 175.835C249.502 184.031 253.748 190.754 259.673 196.751C261.399 198.499 263.446 199.95 265.118 201.726C262.686 201.379 260.314 200.129 258.074 199.15C246.684 194.172 234.02 186.197 225.165 177.413Z"/>
	<path fill="#C2D07A" transform="scale(0.488281 0.488281)" d="M265.118 201.726C263.446 199.95 261.399 198.499 259.673 196.751C253.748 190.754 249.502 184.031 247.386 175.835C244.634 165.172 246.418 153.69 252.108 144.322C257.752 135.033 267.231 128.021 277.797 125.5L278.75 125.278C282.917 124.273 287.762 124.137 292.006 124.79L292.75 124.914C296.779 125.547 300.598 126.584 304.312 128.288C316.134 133.711 322.896 142.967 327.402 154.905L310.642 174.184C301.603 185.52 293.885 197.269 286.263 209.562C278.616 207.849 272.122 205.226 265.118 201.726Z"/>
	<path fill="#0A7C65" transform="scale(0.488281 0.488281)" d="M684.023 761.513L683.865 769.528C684.711 783.779 685.028 803.272 696.722 813.397L697.245 813.839C690.871 826.267 683.544 837.681 674.348 848.199C664.755 845.487 656.169 844.505 646.25 846.346C625.263 850.242 608.753 862.339 596.625 879.735L581.734 904.811L574.367 920.719C562.068 923.92 549.77 926.859 537.126 928.357C506.174 932.026 476.493 928.037 446.483 920.293C444.252 913.249 442.115 906.487 438.73 899.883C431.561 884.91 420.219 870.332 406.342 860.995C390.352 850.235 371.031 844.366 351.855 848.17C341.361 837.892 334.092 826.366 326.775 813.727C332.944 809.037 337.367 804.423 339.818 796.917L340.108 796C342.571 788.392 340.921 777.322 340.631 769.246L340.345 763.403L352.652 764.093L353.912 768.213C368.127 806.715 402.039 837.755 438.818 854.537C482.291 874.374 534.541 874.654 578.879 857.335C608.439 845.789 632.167 823.598 651.699 799.198C660.669 787.992 669.301 775.771 675.094 762.585L684.023 761.513Z"/>
	<path fill="#2DA98B" transform="scale(0.488281 0.488281)" d="M684.023 761.513L683.865 769.528C682.049 773.748 679.275 777.893 677.041 781.933C660.393 812.044 636.766 839.833 606.997 857.637C598.223 862.885 588.839 866.752 579.267 870.263C542.419 883.783 501.097 886.205 463 876.416C449.622 872.978 436.335 867.329 424.125 860.914C395.909 846.089 371.466 825.556 354.39 798.396C350.494 792.199 346.986 785.851 344.225 779.065C343.089 776.275 342.79 772.517 341.206 770.072L340.631 769.246L340.345 763.403L352.652 764.093L353.912 768.213C368.127 806.715 402.039 837.755 438.818 854.537C482.291 874.374 534.541 874.654 578.879 857.335C608.439 845.789 632.167 823.598 651.699 799.198C660.669 787.992 669.301 775.771 675.094 762.585L684.023 761.513Z"/>
	<path fill="#ED602D" transform="scale(0.488281 0.488281)" d="M639.628 508.104L682.414 490.254L695.304 508.973L702.071 519.712C708.167 519.045 714.109 518.649 720.25 519.086C728.087 519.642 735.776 521.406 743.481 522.834C752.59 525.307 761.497 528.282 770.202 531.948C774.794 533.882 779.635 536.786 784.312 538.26L754.349 576.505C757.25 579.973 761.37 582.766 764.743 585.816C767.352 588.175 770.449 591.927 773.504 593.589L773.504 593.999L748.061 620.534L738.747 612.657C747.584 650.035 751.413 686.431 749.263 724.857L749.21 724.888C747.394 724.492 745.197 726.219 743.5 727.046L734.847 730.745C725.362 734.365 715.093 736.865 705.13 738.738C700.566 739.596 694.763 739.642 690.495 741.304C688.689 741.626 686.869 742.02 685.035 742.11L684.966 741.404C687.096 686.615 682.61 631.133 665.528 578.75C660.758 564.123 654.838 550.113 648.88 535.953C650.027 534.82 651.725 534.18 653.167 533.487L639.628 508.104Z"/>
	<path fill="#0A7C65" transform="scale(0.488281 0.488281)" d="M719.608 555.459C723.276 557.409 726.817 560.249 730.693 561.727C736.916 565.023 743.065 568.354 748.844 572.396C750.552 573.591 752.808 574.842 754.08 576.505L735.404 598.95L719.608 555.459Z"/>
	<path fill="#CD8D07" transform="scale(0.488281 0.488281)" d="M754.08 576.505L754.349 576.505C757.25 579.973 761.37 582.766 764.743 585.816C767.352 588.175 770.449 591.927 773.504 593.589L773.504 593.999L748.061 620.534L738.747 612.657C737.13 608.625 735.877 603.248 735.404 598.95L754.08 576.505Z"/>
	<path fill="#2DA98B" transform="scale(0.488281 0.488281)" d="M702.071 519.712C708.167 519.045 714.109 518.649 720.25 519.086C728.087 519.642 735.776 521.406 743.481 522.834L735.06 549.163C733.715 553.292 732.532 557.811 730.693 561.727C726.817 560.249 723.276 557.409 719.608 555.459L702.071 519.712Z"/>
	<path fill="#CA391C" transform="scale(0.488281 0.488281)" d="M648.88 535.953C650.027 534.82 651.725 534.18 653.167 533.487L653.375 533.514C658.462 542.438 662.113 553.339 665.7 563.029C680.228 602.271 688.243 645.581 690.221 687.334L690.495 741.304C688.689 741.626 686.869 742.02 685.035 742.11L684.966 741.404C687.096 686.615 682.61 631.133 665.528 578.75C660.758 564.123 654.838 550.113 648.88 535.953Z"/>
	<path fill="#CA391C" transform="scale(0.488281 0.488281)" d="M639.628 508.104L682.414 490.254L695.304 508.973C684.161 517.111 672.357 523.707 659.973 529.763C657.864 530.794 654.886 531.754 653.375 533.514L653.167 533.487L639.628 508.104Z"/>
	<path fill="#64C3BC" transform="scale(0.488281 0.488281)" d="M743.481 522.834C752.59 525.307 761.497 528.282 770.202 531.948C774.794 533.882 779.635 536.786 784.312 538.26L754.349 576.505L754.08 576.505C752.808 574.842 750.552 573.591 748.844 572.396C743.065 568.354 736.916 565.023 730.693 561.727C732.532 557.811 733.715 553.292 735.06 549.163L743.481 522.834Z"/>
	<path fill="#ED602D" transform="scale(0.488281 0.488281)" d="M341.707 489.662L384.958 508.039L379.15 519.324C376.857 524.344 373.94 529.663 372.818 535.082L361.935 564.656C343.537 622.31 337.682 682.098 339.481 742.394L340.345 763.403L340.631 769.246C340.921 777.322 342.571 788.392 340.108 796L339.818 796.917C337.367 804.423 332.944 809.037 326.775 813.727C323.782 815.229 320.062 815.97 316.75 816.324C310.26 817.016 303.71 814.37 298.75 810.268C294.761 806.968 292.035 802.554 290.088 797.799C287.435 791.318 286.216 783.741 284.838 776.888C281.829 761.924 279.346 747.031 277.767 731.843L277.72 731.799C274.918 704.174 275.751 674.882 280.143 647.471L288.185 608.948L276.039 620.096L252.519 593.989L272.964 578.495L272.983 578.124C269.336 575.448 265.754 570.075 262.643 566.677C254.689 557.988 246.317 549.313 237.028 542.035C238.773 540.279 242.115 539.087 244.363 537.968C254.298 533.024 264.405 528.601 274.952 525.123C291.331 519.989 309.017 514.233 326.333 514.433C328.396 512.053 329.967 508.276 331.545 505.5C334.667 500.008 337.875 494.693 341.707 489.662Z"/>
	<path fill="#0A7C65" transform="scale(0.488281 0.488281)" d="M286.453 568.805L305.55 557.88L290.807 599.569L272.964 578.495L272.983 578.124L286.453 568.805Z"/>
	<path fill="#CD8D07" transform="scale(0.488281 0.488281)" d="M252.519 593.989L272.964 578.495L290.807 599.569C290.214 602.652 289.488 606.079 288.185 608.948L276.039 620.096L252.519 593.989Z"/>
	<path fill="#30948B" transform="scale(0.488281 0.488281)" d="M274.952 525.123C291.331 519.989 309.017 514.233 326.333 514.433L326.19 515.084L305.55 557.88L286.453 568.805L286.491 568.219C287.294 554.279 284.516 535.907 274.952 525.123Z"/>
	<path fill="#CA391C" transform="scale(0.488281 0.488281)" d="M341.707 489.662L384.958 508.039L379.15 519.324L377.038 520.003L369.795 534.092L326.19 515.084L326.333 514.433C328.396 512.053 329.967 508.276 331.545 505.5C334.667 500.008 337.875 494.693 341.707 489.662Z"/>
	<path fill="#64C3BC" transform="scale(0.488281 0.488281)" d="M237.028 542.035C238.773 540.279 242.115 539.087 244.363 537.968C254.298 533.024 264.405 528.601 274.952 525.123C284.516 535.907 287.294 554.279 286.491 568.219L286.453 568.805L272.983 578.124C269.336 575.448 265.754 570.075 262.643 566.677C254.689 557.988 246.317 549.313 237.028 542.035Z"/>
	<path fill="#CA391C" transform="scale(0.488281 0.488281)" d="M369.795 534.092L377.038 520.003L379.15 519.324C376.857 524.344 373.94 529.663 372.818 535.082L361.935 564.656C343.537 622.31 337.682 682.098 339.481 742.394L340.345 763.403L340.631 769.246C340.921 777.322 342.571 788.392 340.108 796L339.818 796.917C337.367 804.423 332.944 809.037 326.775 813.727C323.782 815.229 320.062 815.97 316.75 816.324C310.26 817.016 303.71 814.37 298.75 810.268C294.761 806.968 292.035 802.554 290.088 797.799C287.435 791.318 286.216 783.741 284.838 776.888C281.829 761.924 279.346 747.031 277.767 731.843L332.816 740.961L333.298 698.248C335.744 641.66 346.097 585.823 369.795 534.092Z"/>
	<path fill="#ED602D" transform="scale(0.488281 0.488281)" d="M365.354 122.148C399.719 97.5551 442.347 79.1525 484.847 75.9835L484.956 186.635C475.226 187.714 465.402 188.636 455.776 190.437C409.739 199.051 360.099 219.535 330.102 257.019C319.078 270.794 311.926 286.066 307.612 303.103L304.134 325.212L248.357 325.178L256.225 280.393L264.384 255.294L274.575 230.311L286.263 209.562C293.885 197.269 301.603 185.52 310.642 174.184L327.402 154.905L345.491 138.029L365.354 122.148Z"/>
	<path fill="#CA391C" transform="scale(0.488281 0.488281)" d="M256.225 280.393L307.612 303.103L304.134 325.212L248.357 325.178L256.225 280.393Z"/>
	<path fill="#ED602D" transform="scale(0.488281 0.488281)" d="M484.847 75.9835C484.882 74.9515 484.895 74.4273 485.5 73.5723C499.704 72.6014 514.047 71.7765 528.273 72.8332C531.649 73.084 535.225 73.0419 538.537 73.75L538.952 75.4457C544.818 75.5886 550.737 76.807 556.5 77.861C584.38 82.9603 611.314 93.2469 636.147 106.803C644.65 111.445 652.462 116.927 660.725 121.906C667.195 126.247 674.337 131.157 679.92 136.625L697.611 153.255C708.705 165.246 719.023 178.009 728.346 191.429C732.446 197.33 735.968 204.39 740.442 209.905L752.066 231.72L761.305 255.536L767.694 277.459L773.508 325.818C769.259 324.805 764.344 324.63 759.986 324.257C746.408 323.092 732.819 322.964 719.201 322.895L712.617 298.655C706.15 281.286 697.727 265.246 685.772 250.951C678.468 242.218 669.388 234.679 660.171 228.045C624.896 202.656 581.374 190.498 538.507 186.559L484.956 186.635L484.847 75.9835Z"/>
	<path fill="#CA391C" transform="scale(0.488281 0.488281)" d="M767.694 277.459L773.508 325.818C769.259 324.805 764.344 324.63 759.986 324.257C746.408 323.092 732.819 322.964 719.201 322.895L712.617 298.655C719.192 296.345 726.664 295.5 733.445 293.441C742.016 290.838 750.685 287.402 758.5 283.017C761.334 281.427 763.902 279.408 766.798 277.914L767.694 277.459Z"/>
	<path fill="#2DA98B" transform="scale(0.488281 0.488281)" d="M484.847 75.9835C484.882 74.9515 484.895 74.4273 485.5 73.5723C499.704 72.6014 514.047 71.7765 528.273 72.8332C531.649 73.084 535.225 73.0419 538.537 73.75L538.952 75.4457C538.111 79.9719 538.615 85.1146 538.643 89.7455L538.889 118.022L538.507 186.559L484.956 186.635L484.847 75.9835Z"/>
	<path fill="#0A7C65" transform="scale(0.488281 0.488281)" d="M339.481 742.394C346.66 743.663 354.339 743.789 361.62 744.027L394.956 744.494L473.861 744.49L517.266 745.173L591.721 744.764L644.58 744.006C657.978 743.599 671.674 743.156 684.966 741.404L685.035 742.11L684.023 761.513L675.094 762.585C669.301 775.771 660.669 787.992 651.699 799.198C632.167 823.598 608.439 845.789 578.879 857.335C534.541 874.654 482.291 874.374 438.818 854.537C402.039 837.755 368.127 806.715 353.912 768.213L352.652 764.093L340.345 763.403L339.481 742.394Z"/>
	<path fill="#C2D07A" transform="scale(0.488281 0.488281)" d="M623.361 764.896L666.311 763.407C662.55 770.713 657.576 777.689 652.938 784.465C632.425 814.437 608.073 836.962 574.103 850.969C533.81 867.582 486.664 866.764 446.602 849.935C415.836 837.012 388.035 815.12 370.637 786.399C366.388 779.385 363.165 772.008 360.093 764.419L387.56 764.924C403.731 795.25 435.239 816.705 467.567 826.474C502.777 837.113 545.146 834.291 577.72 816.771C599.137 805.252 620.106 787.306 630.72 765.034C628.317 765.036 625.737 765.234 623.361 764.896Z"/>
	<path fill="#F8F8EE" transform="scale(0.488281 0.488281)" d="M387.56 764.924L557.895 764.766L603.422 764.855C609.748 764.854 617.184 764.086 623.361 764.896C625.737 765.234 628.317 765.036 630.72 765.034C620.106 787.306 599.137 805.252 577.72 816.771C545.146 834.291 502.777 837.113 467.567 826.474C435.239 816.705 403.731 795.25 387.56 764.924Z"/>
	<path fill="#2DA98B" transform="scale(0.488281 0.488281)" d="M384.958 508.039L385.45 508.09C387.316 508.403 389.209 509.375 391 509.998L400.323 512.817C413.866 516.701 427.197 520.371 441.077 522.886C489.893 531.732 541.289 532.236 589.912 521.809L619.966 514.093C625.047 512.58 630.477 510.164 635.634 509.292L639.628 508.104L653.167 533.487C651.725 534.18 650.027 534.82 648.88 535.953C654.838 550.113 660.758 564.123 665.528 578.75C682.61 631.133 687.096 686.615 684.966 741.404C671.674 743.156 657.978 743.599 644.58 744.006L591.721 744.764L517.266 745.173L473.861 744.49L394.956 744.494L361.62 744.027C354.339 743.789 346.66 743.663 339.481 742.394C337.682 682.098 343.537 622.31 361.935 564.656L372.818 535.082C373.94 529.663 376.857 524.344 379.15 519.324L384.958 508.039Z"/>
	<path fill="#023346" transform="scale(0.488281 0.488281)" d="M491.945 559.137C497.525 555.287 501.209 551.737 508.5 551.162C518.356 550.385 524.822 552.714 532.331 559.031C537.386 565.295 541.166 572.42 540.23 580.715C539.288 589.065 535.579 596.717 528.79 601.867C522.502 606.636 514.25 607.962 506.588 606.599C499.032 605.256 492.549 601.581 488.225 595.163C483.996 588.886 482.305 580.701 483.937 573.272C485.134 567.823 487.956 563.027 491.945 559.137Z"/>
	<path fill="#F3AC27" transform="scale(0.488281 0.488281)" d="M508.459 558.573C511.433 558.388 514.959 558.134 517.798 559.103L518.5 559.363L521.5 560.616C526.738 563.369 530.563 568.503 532.058 574.203C533.47 579.586 532.298 585.411 529.394 590.087C526.114 595.367 521.355 598.155 515.422 599.502L509.75 599.51C504.203 599.016 498.826 595.855 495.408 591.509C492.216 587.451 490.483 581.922 491.266 576.769L491.395 576C491.82 573.361 492.535 571.19 493.836 568.842C497.045 563.045 502.347 560.22 508.459 558.573Z"/>
	<path fill="#023346" transform="scale(0.488281 0.488281)" d="M509.886 685.691C516.117 685.266 522.578 686.371 527.746 690.109C533.943 694.592 538.842 701.732 540.064 709.35C541.249 716.732 539.333 723.952 534.992 730C529.869 737.137 523.215 740.883 514.607 742.335C508.105 743.104 500.253 741.018 495.126 736.931L494.5 736.419C488.742 731.778 485.112 725.505 484.085 718.146C482.964 710.119 484.786 702.819 489.75 696.355C495.003 689.514 501.535 686.664 509.886 685.691Z"/>
	<path fill="#F3AC27" transform="scale(0.488281 0.488281)" d="M510.957 693.166C514.872 692.749 519.354 694.071 522.722 696.035C527.678 698.925 530.971 704.038 532.18 709.575C533.322 714.807 532.24 720.901 529.235 725.32C525.501 730.812 520.261 733.344 513.927 734.537C509.933 734.584 506.09 734.166 502.484 732.285C497.757 729.819 494.073 725.552 492.552 720.413L492.363 719.75C491.234 716.03 490.991 712.044 492.157 708.283L492.415 707.5C493.193 705.088 494.091 702.988 495.68 700.983C499.649 695.975 504.826 694.003 510.957 693.166Z"/>
	<path fill="#023346" transform="scale(0.488281 0.488281)" d="M508.01 618.64C511.254 618.22 515.039 618.297 518.181 619.227L519 619.484C521.962 620.383 524.715 621.558 527.324 623.238C533.995 627.534 538.474 634.633 540.017 642.356C541.509 649.819 539.364 657.9 534.997 664.036C530.298 670.64 523.885 674.04 516.117 675.41C509.822 676.028 503.619 675.445 498.029 672.272C491.345 668.477 486.507 661.618 484.542 654.258L484.347 653.509L483.98 652.094C482.355 644.866 484.411 636.418 488.501 630.344C493.155 623.432 500.027 620.111 508.01 618.64Z"/>
	<path fill="#F3AC27" transform="scale(0.488281 0.488281)" d="M508.594 626.082C513.195 626.143 516.838 625.759 521.127 628.044C526.377 630.84 530.398 636.066 532.039 641.761C533.587 647.129 532.652 653.13 529.788 657.896C526.724 662.995 521.697 665.984 516.067 667.443C511.092 668.098 506.177 667.499 501.748 665.007C496.746 662.192 493.481 657.746 492.099 652.226C490.715 646.697 491.223 640.559 494.349 635.687C497.649 630.545 502.661 627.278 508.594 626.082Z"/>
	<path fill="#0A7C65" transform="scale(0.488281 0.488281)" d="M384.958 508.039L385.45 508.09C387.316 508.403 389.209 509.375 391 509.998L400.323 512.817C413.866 516.701 427.197 520.371 441.077 522.886C489.893 531.732 541.289 532.236 589.912 521.809L619.966 514.093C625.047 512.58 630.477 510.164 635.634 509.292L639.628 508.104L653.167 533.487C651.725 534.18 650.027 534.82 648.88 535.953L648.624 535.853C640.823 538.58 633.352 541.9 625.413 544.337C607.156 549.942 588.056 554.174 569.083 556.369L532.331 559.031C524.822 552.714 518.356 550.385 508.5 551.162C501.209 551.737 497.525 555.287 491.945 559.137C488.468 558.421 484.516 558.531 480.944 558.339L462.75 557.016C437.436 554.574 413.037 549.458 388.929 541.367C383.663 539.6 377.591 537.891 372.818 535.082C373.94 529.663 376.857 524.344 379.15 519.324L384.958 508.039Z"/>
	<path fill="#88281C" transform="scale(0.488281 0.488281)" d="M635.634 509.292L639.628 508.104L653.167 533.487C651.725 534.18 650.027 534.82 648.88 535.953L648.624 535.853L635.634 509.292Z"/>
	<path fill="#64C3BC" transform="scale(0.488281 0.488281)" d="M484.956 186.635L538.507 186.559C581.374 190.498 624.896 202.656 660.171 228.045C669.388 234.679 678.468 242.218 685.772 250.951C697.727 265.246 706.15 281.286 712.617 298.655L719.201 322.895C732.819 322.964 746.408 323.092 759.986 324.257C764.344 324.63 769.259 324.805 773.508 325.818C783.097 327.199 791.57 330.517 797.52 338.524C798.551 339.912 799.368 341.424 800.154 342.959C806.001 356.626 804.472 368.879 798.999 382.404C793.324 396.425 784.643 408.806 774.893 420.276C757.641 440.569 737.205 457.62 714.801 471.972C704.367 478.656 693.344 484.428 682.414 490.254L639.628 508.104L635.634 509.292C630.477 510.164 625.047 512.58 619.966 514.093L589.912 521.809C541.289 532.236 489.893 531.732 441.077 522.886C427.197 520.371 413.866 516.701 400.323 512.817L391 509.998C389.209 509.375 387.316 508.403 385.45 508.09L384.958 508.039L341.707 489.662C307.648 472.044 275.935 451.226 250.07 422.598C243.408 415.225 236.799 407.458 231.563 398.988C223.207 385.469 216.154 368.587 220.2 352.453C221.13 348.744 222.185 345.421 223.647 341.868C225.033 339.067 226.803 336.596 228.992 334.373C233.97 329.317 241.116 325.218 248.357 325.178L304.134 325.212L307.612 303.103C311.926 286.066 319.078 270.794 330.102 257.019C360.099 219.535 409.739 199.051 455.776 190.437C465.402 188.636 475.226 187.714 484.956 186.635Z"/>
	<path fill="#F8F8EE" transform="scale(0.488281 0.488281)" d="M616.585 248.689C620.319 248.029 625.61 248.288 629.362 248.806C641.257 250.447 651.898 254.166 661.794 261.096C675.791 270.896 686.903 287.366 689.862 304.323C693.133 323.062 690.399 340.715 679.276 356.385C667.543 372.918 650.861 382.609 631.041 385.869C613.672 387.795 596.82 383.233 582.907 372.619C567.425 360.808 557.842 343.631 555.419 324.333C553.223 306.843 557.613 288.772 568.508 274.798C580.81 259.019 596.94 251.137 616.585 248.689Z"/>
	<path fill="#023346" transform="scale(0.488281 0.488281)" d="M619.025 267.702C631.04 266.818 643.635 270.286 653.254 277.594C664.182 285.895 670.087 297.902 672.113 311.25L672.359 312.935C673.767 325.557 670.003 339.037 661.989 348.907C653.563 359.284 641.4 366.192 628.082 367.546C615.058 368.285 602.742 365.349 592.445 357.133C582.427 349.138 574.877 336.076 573.518 323.25C571.983 308.755 575.573 295.456 584.976 284.212C593.697 273.782 605.77 268.861 619.025 267.702Z"/>
	<path fill="#F8F8EE" transform="scale(0.488281 0.488281)" d="M617.742 331.75C618.806 331.556 620.033 331.368 621.102 331.581C622.725 331.906 624.271 333.126 625.088 334.549C626.107 336.322 626.304 338.736 625.615 340.654C624.922 342.58 623.506 343.499 621.75 344.34C620.511 344.465 619.133 344.679 617.895 344.499C616.411 344.283 615.105 343.229 614.313 341.989C613.069 340.038 612.836 338.046 613.643 335.877C614.386 333.882 615.953 332.726 617.742 331.75Z"/>
	<path fill="#F8F8EE" transform="scale(0.488281 0.488281)" d="M630.787 286.634C634.277 286.59 637.577 287.008 640.728 288.621C646.022 291.331 650.563 296.426 652.23 302.209C653.801 307.654 653.015 313.63 650.031 318.445C646.434 324.248 641.361 327.079 634.938 328.572C629.587 328.658 625.388 328.034 620.772 325.15C616.252 322.326 612.665 316.985 611.568 311.795C610.444 306.475 611.922 300.137 614.986 295.72C618.909 290.063 624.25 287.76 630.787 286.634Z"/>
	<path fill="#F8F8EE" transform="scale(0.488281 0.488281)" d="M399.184 248.225C414.24 248.723 427.304 251.889 439.982 260.383C454.052 269.811 464.21 285.644 467.358 302.22C470.974 321.257 466.929 341.99 455.852 358.003C445.581 372.851 429.52 382.21 412 385.638C408.185 386.385 404.399 386.572 400.528 386.789C383.458 386.093 367.43 381.146 354.466 369.571C340.002 356.656 332.142 339.593 331.14 320.253C330.232 302.715 336.744 284.759 348.526 271.79C361.972 256.99 379.318 249.17 399.184 248.225Z"/>
	<path fill="#023346" transform="scale(0.488281 0.488281)" d="M393.851 267.679L393.93 267.653C406.295 266.557 418.091 268.703 428.493 275.663C438.876 282.611 447.003 294.927 449.3 307.21C451.732 320.217 449.742 333.979 442.071 344.985C433.436 357.373 422.3 365.128 407.413 367.851C394.732 369.756 381.138 366.723 370.672 359.212C358.959 350.806 351.933 338.484 349.824 324.335C348.042 312.381 351.491 297.789 358.735 288.051C367.513 276.251 379.403 269.732 393.851 267.679Z"/>
	<path fill="#F8F8EE" transform="scale(0.488281 0.488281)" d="M397.924 333.25C398.976 333.027 400.18 332.918 401.25 333.08C403.1 333.359 405.011 334.846 405.902 336.461C406.589 337.705 406.711 339.031 406.28 340.384C405.493 342.854 404.007 344.073 401.75 345.148C400.756 345.423 399.478 345.606 398.459 345.448C396.784 345.189 395.317 344.199 394.386 342.804C393.068 340.828 393.228 338.654 393.75 336.456C394.995 334.731 396.008 334.137 397.924 333.25Z"/>
	<path fill="#F8F8EE" transform="scale(0.488281 0.488281)" d="M404.429 287.109C408.77 286.613 413.814 287.464 417.623 289.598C422.641 292.411 426.514 297.106 428.046 302.691C429.57 308.246 428.587 313.678 425.559 318.545C422.173 323.99 417.538 326.932 411.422 328.426C409.351 328.684 407.335 328.879 405.25 328.644C399.975 328.049 394.866 324.79 391.643 320.647C388.262 316.301 386.564 311.397 387.328 305.879L387.461 305C387.937 301.745 389.048 298.551 390.884 295.799C394.228 290.787 398.629 288.341 404.429 287.109Z"/>
	<path fill="#F8F8EE" transform="scale(0.488281 0.488281)" d="M475.925 362.09L476.35 361.684L477.066 361.016C484.291 354.132 497.234 350.899 507.015 350.52C517.452 350.115 528.367 351.251 538.112 355.224C541.006 356.404 544.002 357.682 546.301 359.844L546.723 360.25L547.65 361.11C551.233 361.92 554.759 364.19 557.88 366.082C570.063 373.467 581.424 383.833 589.061 395.948C598.017 410.157 602.358 428.314 598.548 444.865C594.261 463.488 580.55 479.092 564.539 488.874C541.526 502.935 513.829 506.211 487.767 499.821C466.047 494.495 445.504 481.761 433.837 462.237C425.983 449.093 423.06 432.738 426.844 417.812C432.488 395.548 448.599 377.596 468.114 366.073C470.373 364.738 473.41 362.738 475.925 362.09Z"/>
	<defs>
		<linearGradient id="gradient_0" gradientUnits="userSpaceOnUse" x1="510.6123" y1="437.05801" x2="516.52246" y2="351.13913">
			<stop offset="0" stop-color="#012A41"/>
			<stop offset="1" stop-color="#074854"/>
		</linearGradient>
	</defs>
	<path fill="url(#gradient_0)" transform="scale(0.488281 0.488281)" d="M475.925 362.09L476.35 361.684L477.066 361.016C484.291 354.132 497.234 350.899 507.015 350.52C517.452 350.115 528.367 351.251 538.112 355.224C541.006 356.404 544.002 357.682 546.301 359.844L546.723 360.25L547.65 361.11C548.131 368.434 541.444 375.731 536.863 380.969L526.508 392.019L519.719 398.366C519.04 398.989 517.538 400.06 517.053 400.802C516.656 401.41 517.023 427.628 517.02 430.187C528.494 428.854 538.651 427.09 548.865 421.357C551.411 419.929 553.976 418.296 556.25 416.464C557.876 415.155 560.507 411.988 562.5 411.612C563.279 412.719 563.174 413.108 562.941 414.473C562.154 419.084 556.736 424.009 552.958 426.513C536.412 437.482 512.754 440.445 493.613 436.256C483.052 433.944 469.191 428.696 463.32 419.031C462.087 417.001 461.483 414.595 461.826 412.25L462.5 411.543C465.581 413.224 468.01 416.508 470.969 418.572C482.348 426.508 494.483 428.909 508.039 430.075L508.555 429.841L508.592 400.4C498.392 394.681 489.986 387.728 482.775 378.452C480.338 375.318 477.744 371.827 476.534 368C475.929 366.088 475.904 364.076 475.925 362.09Z"/>
	<defs>
		<linearGradient id="gradient_1" gradientUnits="userSpaceOnUse" x1="510.01331" y1="331.5426" x2="519.25934" y2="528.73804">
			<stop offset="0" stop-color="#16786A"/>
			<stop offset="1" stop-color="#188E7C"/>
		</linearGradient>
	</defs>
	<path fill="url(#gradient_1)" transform="scale(0.488281 0.488281)" d="M719.201 322.895C732.819 322.964 746.408 323.092 759.986 324.257C764.344 324.63 769.259 324.805 773.508 325.818C783.097 327.199 791.57 330.517 797.52 338.524C798.551 339.912 799.368 341.424 800.154 342.959C806.001 356.626 804.472 368.879 798.999 382.404C793.324 396.425 784.643 408.806 774.893 420.276C757.641 440.569 737.205 457.62 714.801 471.972C704.367 478.656 693.344 484.428 682.414 490.254L639.628 508.104L635.634 509.292C630.477 510.164 625.047 512.58 619.966 514.093L589.912 521.809C541.289 532.236 489.893 531.732 441.077 522.886C427.197 520.371 413.866 516.701 400.323 512.817L391 509.998C389.209 509.375 387.316 508.403 385.45 508.09L384.958 508.039L341.707 489.662C307.648 472.044 275.935 451.226 250.07 422.598C243.408 415.225 236.799 407.458 231.563 398.988C223.207 385.469 216.154 368.587 220.2 352.453C221.13 348.744 222.185 345.421 223.647 341.868C225.033 339.067 226.803 336.596 228.992 334.373C233.97 329.317 241.116 325.218 248.357 325.178L304.134 325.212C303.183 336.173 302.515 347.083 303.111 358.091C304.717 387.802 313.657 417.399 328.425 443.209L339.304 460.41C341.154 463.084 343.34 465.606 345.038 468.371C350.057 471.943 356.07 474.516 361.642 477.096C385.306 488.056 410.424 496.074 435.873 501.71C504.218 516.846 576.716 510.512 642.156 486.018C657.358 480.328 673.082 473.884 686.827 465.176C688.474 461.891 690.818 458.765 692.74 455.612C696.74 449.053 700.683 442.395 704.116 435.518C716.397 410.914 722.708 382.241 722.394 354.75C722.272 344.063 720.895 333.429 719.201 322.895Z"/>
	<path fill="#2DA98B" transform="scale(0.488281 0.488281)" d="M719.201 322.895C732.819 322.964 746.408 323.092 759.986 324.257C764.344 324.63 769.259 324.805 773.508 325.818C783.097 327.199 791.57 330.517 797.52 338.524C798.551 339.912 799.368 341.424 800.154 342.959C799.011 348.569 798.58 353.823 796.567 359.268C794.177 365.735 790.705 371.757 787.157 377.64C778.781 391.528 768.33 403.188 756.741 414.445C742.756 428.027 727.496 440.31 711.228 451.057C703.756 455.994 695.176 461.937 686.827 465.176C688.474 461.891 690.818 458.765 692.74 455.612C696.74 449.053 700.683 442.395 704.116 435.518C716.397 410.914 722.708 382.241 722.394 354.75C722.272 344.063 720.895 333.429 719.201 322.895Z"/>
	<path fill="#2DA98B" transform="scale(0.488281 0.488281)" d="M248.357 325.178L304.134 325.212C303.183 336.173 302.515 347.083 303.111 358.091C304.717 387.802 313.657 417.399 328.425 443.209L339.304 460.41C341.154 463.084 343.34 465.606 345.038 468.371C341.032 466.997 337.195 464.759 333.484 462.742C325.09 458.179 316.866 452.893 309.054 447.396C283.46 429.387 261.512 409.426 243.322 383.778C233.936 370.544 226.514 358.116 223.647 341.868C225.033 339.067 226.803 336.596 228.992 334.373C233.97 329.317 241.116 325.218 248.357 325.178Z"/>
</svg>
