<?xml version="1.0" encoding="utf-8" ?>
<svg xmlns="http://www.w3.org/2000/svg" xmlns:xlink="http://www.w3.org/1999/xlink" width="500" height="500">
	<path fill="#EAF6F7" transform="scale(0.488281 0.488281)" d="M-0 -0L1024 0L1024 1024L-0 1024L0 -0Z"/>
	<path fill="#189A30" transform="scale(0.488281 0.488281)" d="M616.472 880.188C626.808 870.703 637.536 864.929 651.886 865.567C653.733 865.649 655.443 865.97 657.25 866.36L658.179 866.552C671.036 869.289 683.128 880.422 689.988 891.25L693.898 898.854L694.484 898.538C706.224 892.367 723.035 890.661 735.737 894.667C745.179 897.644 753.476 904.131 758.018 913C761.4 919.606 762.447 926.535 762.664 933.862C761.003 933.596 759.019 932.556 757.436 931.899L747.934 928.125L724.542 920.046C697.032 911.158 667.495 904.519 638.823 900.705C635.621 898.831 632.738 896.033 629.966 893.573C625.329 889.458 620.308 885.06 616.472 880.188Z"/>
	<path fill="#80BC27" transform="scale(0.488281 0.488281)" d="M333.216 861.648C343.347 850.622 356.627 842.158 372 841.495C388.245 840.796 404.524 845.028 416.645 856.356C421.541 860.931 425.113 866.167 428.65 871.807C424.759 879.054 418.78 885.234 412.638 890.628L396.449 903.583L382.056 904.509C379.394 902.256 374.65 900.873 371.405 899.564C355.58 893.179 338.478 889.158 323.082 881.952C323.689 881.032 323.489 881.499 323.762 880.448C325.649 873.19 328.682 867.584 333.216 861.648Z"/>
	<path fill="#3BB432" transform="scale(0.488281 0.488281)" d="M333.216 861.648C342.482 863.284 351.235 866.421 360.25 869.001C368.856 871.464 377.734 873.069 386.23 875.889C395.12 878.838 405.651 884.431 412.638 890.628L396.449 903.583L382.056 904.509C379.394 902.256 374.65 900.873 371.405 899.564C355.58 893.179 338.478 889.158 323.082 881.952C323.689 881.032 323.489 881.499 323.762 880.448C325.649 873.19 328.682 867.584 333.216 861.648Z"/>
	<path fill="#189A30" transform="scale(0.488281 0.488281)" d="M696.492 563.741C700.749 561.309 706.472 559.823 711.114 558.004L738.991 546.058C747.61 557.86 761.912 567.446 776.448 569.693C792.584 572.187 810.059 570.027 823.375 559.985C828.5 556.12 833.006 551.042 836.745 545.841C842.674 547.682 848.349 548.44 854.389 549.618C850.282 567.665 839.264 581.941 823.588 591.775C803.744 604.222 777.834 608.405 755.057 603.117C739.385 599.478 723.945 591.404 711.995 580.641C706.222 575.442 701.403 569.725 696.492 563.741Z"/>
	<path fill="#05662B" transform="scale(0.488281 0.488281)" d="M175.644 531.177L176.132 531.109C181.176 530.38 186.581 527.958 191.528 527.78C194.975 531.002 198.413 534.442 202.248 537.199C216.26 547.273 235.332 553.478 252.662 552.875C266.252 552.402 280.686 549.404 293.521 544.872C300.365 552.368 307.698 558.943 316.405 564.216C320.064 566.432 324.466 568.285 327.852 570.814C312.608 581.487 295.459 589.818 277.028 593.073C254.017 597.138 226.368 593.054 207.008 579.367C189.924 567.289 179.182 551.851 175.644 531.177Z"/>
	<path fill="#3BB432" transform="scale(0.488281 0.488281)" d="M931.86 429.798C941.657 449.44 943.914 474.851 936.959 495.698C930.362 515.474 916.675 533.236 897.75 542.611C888.193 547.345 876.449 550.28 865.75 550.429C861.919 550.482 858.192 549.827 854.389 549.618C848.349 548.44 842.674 547.682 836.745 545.841C833.006 551.042 828.5 556.12 823.375 559.985C810.059 570.027 792.584 572.187 776.448 569.693C761.912 567.446 747.61 557.86 738.991 546.058L711.114 558.004C706.472 559.823 700.749 561.309 696.492 563.741C685.623 566.769 674.309 563.584 663.355 563.48C659.276 563.441 655.359 564.438 651.318 564.658C652.862 562.405 656.531 561.327 658.997 560.268C665.675 557.403 672.496 554.997 679.42 552.798L713.812 542.006C717.801 540.545 723.233 539.01 726.101 535.811C738.968 531.056 751.289 525.186 763.031 518.067C768.797 514.571 774.469 511.108 779.125 506.164C769.631 509.292 760.517 513.936 751.052 517.342C747.666 518.561 744.053 520.082 740.484 520.622C735.014 522.875 729.491 524.508 723.685 525.621L718.639 526.855C712.803 520.834 705.681 516.214 703.356 507.587C702.321 503.746 703.226 499.795 705.125 496.387C707.967 491.288 713.482 487.065 717.221 482.499C722.604 475.924 727.116 468.599 731.501 461.334C741.607 460.285 752.579 458.946 762.584 461.306C771.942 463.514 779.777 468.805 787.131 474.763L795.25 481.962C797.727 484.19 800.514 486.283 802.323 489.119L813.244 496.787C823.027 503.12 834.612 508.469 846.068 510.767C866.391 514.844 886.28 509.049 903.173 497.569C920.111 486.059 929.274 467.596 931.133 447.527C931.653 441.918 930.634 435.625 931.768 430.197L931.86 429.798Z"/>
	<path fill="#6C2E0C" transform="scale(0.488281 0.488281)" d="M723.685 525.621L728.595 520.496C738.874 508.735 747.885 493.496 749.107 477.568C749.563 471.62 748.898 465.601 748.483 459.665L749.94 463.514C755.083 480.324 751.385 500.818 743.11 516.004L740.484 520.622C735.014 522.875 729.491 524.508 723.685 525.621Z"/>
	<path fill="#6C2E0C" transform="scale(0.488281 0.488281)" d="M801.418 489.33L801.739 490.591C787.009 514.653 763.568 532.931 738.991 546.058L711.114 558.004C706.472 559.823 700.749 561.309 696.492 563.741C685.623 566.769 674.309 563.584 663.355 563.48C659.276 563.441 655.359 564.438 651.318 564.658C652.862 562.405 656.531 561.327 658.997 560.268C665.675 557.403 672.496 554.997 679.42 552.798L713.812 542.006C717.801 540.545 723.233 539.01 726.101 535.811C738.968 531.056 751.289 525.186 763.031 518.067C768.797 514.571 774.469 511.108 779.125 506.164C782.923 503.576 786.725 500.971 790.296 498.074C793.917 495.136 797.344 491.623 801.418 489.33Z"/>
	<path fill="#3BB432" transform="scale(0.488281 0.488281)" d="M147.417 359.819C142.83 350.295 140.478 338.606 139.608 328.145C137.082 297.777 147.09 267.042 166.901 243.859C185.316 222.31 212.06 208.128 240.389 205.917C240.55 200.298 241.323 194.518 242.676 189.061C250.381 157.974 269.405 131.713 296.879 115.154C325.004 98.2019 358.826 94.5085 390.454 102.29L389.932 102.653C387.497 103.92 382.179 103.46 379.337 103.773C375.441 104.202 371.492 104.993 367.686 105.921C335.975 113.651 308.028 137.377 295.713 167.669C287.618 187.583 285.821 210.61 290.999 231.472C292.452 237.325 294.689 242.646 296.577 248.333C275.232 242.311 253.371 243.81 233.847 254.855C216.274 264.795 199.906 283.542 194.426 303.188C192.457 310.25 191.7 317.894 192.557 325.174L193.096 325.961C192.109 327.171 190.542 328.645 189.849 330.003C185.057 336.068 181.14 342.738 178.078 349.835C176.976 352.391 176.271 355.582 174.845 357.915C165.043 356.979 156.977 357.73 147.417 359.819Z"/>
	<path fill="#80BC27" transform="scale(0.488281 0.488281)" d="M390.454 102.29L402.738 104.714C413.105 81.7462 431.051 62.52 453.207 50.5858C483.407 34.3188 519.096 31.2675 551.834 41.0292L551.434 41.2342C548.732 42.5147 545.437 42.1312 542.5 42.616C530.837 44.541 519.605 46.9991 508.704 51.75C492.068 58.9996 476.317 72.0926 465.13 86.3402C451.625 103.54 442.837 124.244 442.441 146.336C442.393 149.03 441.968 152.627 442.46 155.241C442.567 155.813 442.752 156.02 443.04 156.454L429.327 163.687C411.979 174.749 398.215 190.933 391.862 210.664C366.385 210.205 346.567 218.928 327.564 235.655C311.824 251.636 301.783 273.918 301.979 296.53C302.06 305.821 303.965 314.623 306.774 323.447L305.993 323.131C303.613 322.123 301.404 320.166 299.25 318.731C295.845 316.462 292.167 314.504 288.487 312.719C267.621 302.604 241.427 300.554 219.601 308.873C209.278 312.807 200.942 318.192 193.096 325.961L192.557 325.174C191.7 317.894 192.457 310.25 194.426 303.188C199.906 283.542 216.274 264.795 233.847 254.855C253.371 243.81 275.232 242.311 296.577 248.333C294.689 242.646 292.452 237.325 290.999 231.472C285.821 210.61 287.618 187.583 295.713 167.669C308.028 137.377 335.975 113.651 367.686 105.921C371.492 104.993 375.441 104.202 379.337 103.773C382.179 103.46 387.497 103.92 389.932 102.653L390.454 102.29Z"/>
	<path fill="#8FDE44" transform="scale(0.488281 0.488281)" d="M327.564 235.655C321.226 225.004 316.603 211.839 317.074 199.307C317.703 182.544 324.427 166.664 336.984 155.329C350.68 142.965 367.841 137.36 386.25 138.504C404.617 139.645 417.643 150.429 429.327 163.687C411.979 174.749 398.215 190.933 391.862 210.664C366.385 210.205 346.567 218.928 327.564 235.655Z"/>
	<path fill="#8FDE44" transform="scale(0.488281 0.488281)" d="M551.834 41.0292C556.643 42.1271 561.441 44.2971 565.959 46.25C588.594 56.0335 607.187 71.727 620.344 92.6536L620.86 93.4758C649.965 81.3288 685.502 81.7346 714.621 93.6795C744.644 105.995 769.804 129.456 782.323 159.589C785.247 166.627 787.603 174.002 789.148 181.469C789.908 185.142 790.048 189.693 791.391 193.122C797.098 193.638 802.807 194.15 808.414 195.387C833.648 200.959 855.608 214.577 872.205 234.381C891.496 257.399 901.33 288.693 898.584 318.611C896.44 341.974 888.531 363.499 874.809 382.566C869 380.339 862.238 379.857 856.082 379.283L855.866 378.61C849.338 358.753 835.676 344.071 817.143 334.9L822.909 323.91C829.792 307.746 831.098 289.502 824.609 273C822.093 266.601 818.668 260.96 814.525 255.5C811.638 251.694 807.983 247.759 804.241 244.772C799.216 240.76 794.142 237.314 788.235 234.696C770.441 226.811 751.243 227.461 733.327 234.342C735.587 228.005 737.605 222.007 738.538 215.305C741.343 195.162 737.478 177.392 725.445 161L721.355 156.093C707.453 141.619 689.013 132.868 668.78 132.568C648.068 132.261 629.285 140.962 614.577 155.145C613.164 142.012 608.821 129.883 600.909 119.209C588.309 102.213 570.051 92.5209 549.329 89.6143C528.611 86.7082 509.138 92.7786 492.5 105.05C478.713 115.22 466.753 132.245 463.552 149.224C461.919 149.589 454.106 151.105 453.41 152.161L443.04 156.454C442.752 156.02 442.567 155.813 442.46 155.241C441.968 152.627 442.393 149.03 442.441 146.336C442.837 124.244 451.625 103.54 465.13 86.3402C476.317 72.0926 492.068 58.9996 508.704 51.75C519.605 46.9991 530.837 44.541 542.5 42.616C545.437 42.1312 548.732 42.5147 551.434 41.2342L551.834 41.0292Z"/>
	<path fill="#80BC27" transform="scale(0.488281 0.488281)" d="M274.981 929.902C273.74 923.025 273.085 916.433 274.876 909.561C277.561 899.255 284.319 890.143 293.598 884.85C302.527 879.756 313.314 879.292 323.082 881.952C338.478 889.158 355.58 893.179 371.405 899.564C374.65 900.873 379.394 902.256 382.056 904.509L396.449 903.583C376.291 919.862 356.572 934.477 346.794 959.522C358.02 954.997 369.464 951.509 381 947.897C384.16 946.907 388.905 944.716 392.047 944.688C395.448 946.868 404.996 946.024 409.115 946.076C421.811 946.237 435.164 945.56 447.798 946.722C443.945 954.188 440.357 961.544 438.052 969.642C462.927 966.08 487.254 961.167 509.481 948.806C515.057 945.427 520.874 942.305 526.101 938.392C527.922 937.029 529.564 935.515 531.188 933.927C531.58 933.545 531.825 932.906 532.355 932.773C532.565 932.72 532.7 933.033 532.872 933.163L534.847 934.651C542.817 940.646 550.624 946.004 559.817 949.969C585.591 961.087 612.032 960.538 639.371 957.899L609.634 930.485C616.142 932.116 622.917 932.804 629.555 933.728L671.16 938.168L692.943 939.172L671.112 923.664L647.467 907.682L638.823 900.705C667.495 904.519 697.032 911.158 724.542 920.046L747.934 928.125L757.436 931.899C759.019 932.556 761.003 933.596 762.664 933.862C778.536 941.437 799.702 948.823 807.965 965.651C809.452 969.128 809.871 972.676 808.722 976.326C807.182 981.223 803.589 984.889 799.06 987.162C795.252 989.074 791.448 989.647 787.25 989.784L748.55 989.922L680.092 989.909L465.6 989.917L305.43 989.934L256.778 989.803L240.741 989.667C235.936 989.621 231.248 989.806 226.619 988.281C221.489 986.59 216.479 982.966 214.253 977.919C212.573 974.107 212.982 970.014 214.625 966.25C216.745 961.39 223.17 956.922 227.39 954.007C242.204 943.777 258.158 936.255 274.981 929.902Z"/>
	<path fill="#189A30" transform="scale(0.488281 0.488281)" d="M274.981 929.902C273.74 923.025 273.085 916.433 274.876 909.561C277.561 899.255 284.319 890.143 293.598 884.85C302.527 879.756 313.314 879.292 323.082 881.952C338.478 889.158 355.58 893.179 371.405 899.564C374.65 900.873 379.394 902.256 382.056 904.509C354.953 907.589 327.489 913.703 301.285 921.225L285.908 926.109C282.344 927.376 278.648 929.012 274.981 929.902Z"/>
	<path fill="#8FDE44" transform="scale(0.488281 0.488281)" d="M638.823 900.705C667.495 904.519 697.032 911.158 724.542 920.046L747.934 928.125L757.436 931.899C759.019 932.556 761.003 933.596 762.664 933.862C778.536 941.437 799.702 948.823 807.965 965.651C802.666 967.517 796.889 967.807 791.323 968.223L766.395 969.518L699.5 971.183L609.674 973.307C594.721 973.652 579.596 974.052 564.765 971.837C553.014 970.081 541.89 966.7 531 961.996C523.223 958.637 515.641 954.69 509.481 948.806C515.057 945.427 520.874 942.305 526.101 938.392C527.922 937.029 529.564 935.515 531.188 933.927C531.58 933.545 531.825 932.906 532.355 932.773C532.565 932.72 532.7 933.033 532.872 933.163L534.847 934.651C542.817 940.646 550.624 946.004 559.817 949.969C585.591 961.087 612.032 960.538 639.371 957.899L609.634 930.485C616.142 932.116 622.917 932.804 629.555 933.728L671.16 938.168L692.943 939.172L671.112 923.664L647.467 907.682L638.823 900.705Z"/>
	<path fill="#B6EE59" transform="scale(0.488281 0.488281)" d="M463.552 149.224C466.753 132.245 478.713 115.22 492.5 105.05C509.138 92.7786 528.611 86.7082 549.329 89.6143C570.051 92.5209 588.309 102.213 600.909 119.209C608.821 129.883 613.164 142.012 614.577 155.145C629.285 140.962 648.068 132.261 668.78 132.568C689.013 132.868 707.453 141.619 721.355 156.093L725.445 161C737.478 177.392 741.343 195.162 738.538 215.305C737.605 222.007 735.587 228.005 733.327 234.342C751.243 227.461 770.441 226.811 788.235 234.696C794.142 237.314 799.216 240.76 804.241 244.772C807.983 247.759 811.638 251.694 814.525 255.5C818.668 260.96 822.093 266.601 824.609 273C831.098 289.502 829.792 307.746 822.909 323.91L817.143 334.9C812.35 332.798 807.064 331.541 802.479 329.102C791.809 321.575 774.738 319.945 762.219 322.062C745.263 324.929 732.489 332.023 720.677 344.623C719.169 346.232 716.694 350.31 714.76 350.954L716.669 337.343L716.796 336.937C717.856 332.581 717.407 326.316 717.087 321.871C715.991 306.617 713.521 292.321 705.806 278.83C701.841 270.114 693.699 261.504 686.01 255.967C674.49 247.67 660.725 243.862 646.636 244.553C641.588 244.801 636.591 245.823 631.61 246.636L629.993 237.25C626.646 223.402 617.248 211.085 605.113 203.75C590.559 194.952 575.874 194.834 559.77 198.857C553.181 184.546 544.874 173.241 532.03 163.92C511.297 148.874 488.363 145.2 463.552 149.224Z"/>
	<path fill="#3CD045" transform="scale(0.488281 0.488281)" d="M714.76 350.954C716.694 350.31 719.169 346.232 720.677 344.623C732.489 332.023 745.263 324.929 762.219 322.062C774.738 319.945 791.809 321.575 802.479 329.102C807.064 331.541 812.35 332.798 817.143 334.9C835.676 344.071 849.338 358.753 855.866 378.61L856.082 379.283C862.238 379.857 869 380.339 874.809 382.566C897.456 388.406 916.75 403.034 928.57 423.301C929.662 425.174 931.364 427.697 931.86 429.798L931.768 430.197C930.634 435.625 931.653 441.918 931.133 447.527C929.274 467.596 920.111 486.059 903.173 497.569C886.28 509.049 866.391 514.844 846.068 510.767C834.612 508.469 823.027 503.12 813.244 496.787L802.323 489.119C800.514 486.283 797.727 484.19 795.25 481.962L787.131 474.763C779.777 468.805 771.942 463.514 762.584 461.306C752.579 458.946 741.607 460.285 731.501 461.334C715.672 463.932 696.317 465.629 680.935 460.289C675.404 458.369 670.279 455.306 665.5 451.971C656.259 445.522 649.36 434.911 646.827 423.955C645.001 416.054 646.637 407.966 651.016 401.186L651.466 400.5C653.487 397.388 656.239 394.679 659.306 392.6L660.063 392.092L665.604 388.91L666.991 388.459C667.331 386.145 668.428 383.753 669.602 381.75C674.858 372.78 684.269 367.987 693.93 365.325C698.193 364.15 702.582 364.087 706.821 365.405L707.361 365.593C709.807 361.007 713.278 355.905 714.76 350.954Z"/>
	<path fill="#3BB432" transform="scale(0.488281 0.488281)" d="M714.76 350.954C716.694 350.31 719.169 346.232 720.677 344.623C732.489 332.023 745.263 324.929 762.219 322.062C774.738 319.945 791.809 321.575 802.479 329.102C795.375 328.946 787.988 328.503 780.916 329.31C768.102 330.772 753.846 336.894 744.446 345.796C736.507 353.314 730.609 361.82 727.883 372.5L727.639 373.432C726.855 376.525 726.48 379.711 726.407 382.9C726.347 385.532 726.672 388.351 725.871 390.881C723.79 389.125 721.735 387.431 719.381 386.048C713.046 382.323 704.98 381.241 697.851 383.195L697 383.441C692.524 384.68 689.667 386.464 686.169 389.371C679.715 387.394 674.629 387.568 668.036 388.654L666.991 388.459C667.331 386.145 668.428 383.753 669.602 381.75C674.858 372.78 684.269 367.987 693.93 365.325C698.193 364.15 702.582 364.087 706.821 365.405L707.361 365.593C709.807 361.007 713.278 355.905 714.76 350.954Z"/>
	<path fill="#B6EE59" transform="scale(0.488281 0.488281)" d="M725.871 390.881C728.879 393.993 731.997 397.1 734.463 400.672C737.407 404.935 739.517 409.593 741.888 414.174C740.296 398.052 740.605 383.952 751.217 370.75C758.92 361.166 770.802 354.019 783.147 352.768C793.567 351.713 805.034 355.378 813.106 362.002C821.499 368.89 828.316 379.781 829.357 390.75C829.595 393.249 829.669 395.993 829.425 398.492C829.254 400.245 828.069 403.513 828.446 405.08C837.762 400.984 848.347 400.374 857.924 404.083C866.38 407.358 872.245 413.769 875.782 421.983C878.386 428.029 878.794 433.615 877.687 440.071C876.373 444.744 874.265 448.625 870.484 451.712C866.477 454.983 860.379 457.77 855.15 457.175C846.64 456.205 844.613 447.261 840.01 441.407C836.858 437.398 832.389 434.549 827.25 434.07C818.135 433.22 811.351 439.95 805.016 445.418C805.048 442.452 805.341 439.066 804.776 436.165C803.84 431.359 800.421 426.889 796.355 424.28C784.748 416.828 767.661 418.633 755.179 422.911C751.701 424.103 747.809 426.486 744.358 427.222C740.073 424.402 735.205 421.935 730.13 420.964L729.25 420.802C719.048 418.753 709.231 420.589 699.605 424.149C695.524 425.658 690.452 428.377 686.023 427.852C683.813 427.59 682.02 425.924 680.777 424.19C677.303 419.348 675.837 414.053 676.882 408.169C678.272 400.343 680.835 395.247 686.169 389.371C689.667 386.464 692.524 384.68 697 383.441L697.851 383.195C704.98 381.241 713.046 382.323 719.381 386.048C721.735 387.431 723.79 389.125 725.871 390.881Z"/>
	<path fill="#B66D3C" transform="scale(0.488281 0.488281)" d="M567.661 356.292C567.161 359.808 567.372 363.446 568.615 366.798C571.031 373.316 576.96 377.681 583.139 380.313C601.79 388.257 621.418 381.737 638.854 373.822C642.557 372.14 645.523 372.612 649.5 372.521C652.684 372.447 656.099 371.989 659.25 371.537C676.637 369.048 692.912 361.39 705.594 349.191C707.893 346.979 710.291 344.717 712.341 342.271C713.549 340.83 714.513 339.101 715.966 337.898L716.669 337.343L714.76 350.954C713.278 355.905 709.807 361.007 707.361 365.593L706.821 365.405C702.582 364.087 698.193 364.15 693.93 365.325C684.269 367.987 674.858 372.78 669.602 381.75C668.428 383.753 667.331 386.145 666.991 388.459L665.604 388.91L660.063 392.092L659.306 392.6C656.239 394.679 653.487 397.388 651.466 400.5L651.016 401.186C646.637 407.966 645.001 416.054 646.827 423.955C649.36 434.911 656.259 445.522 665.5 451.971C670.279 455.306 675.404 458.369 680.935 460.289C696.317 465.629 715.672 463.932 731.501 461.334C727.116 468.599 722.604 475.924 717.221 482.499C713.482 487.065 707.967 491.288 705.125 496.387C703.226 499.795 702.321 503.746 703.356 507.587C705.681 516.214 712.803 520.834 718.639 526.855L723.685 525.621C729.491 524.508 735.014 522.875 740.484 520.622C744.053 520.082 747.666 518.561 751.052 517.342C760.517 513.936 769.631 509.292 779.125 506.164C774.469 511.108 768.797 514.571 763.031 518.067C751.289 525.186 738.968 531.056 726.101 535.811C723.233 539.01 717.801 540.545 713.812 542.006L679.42 552.798C672.496 554.997 665.675 557.403 658.997 560.268C656.531 561.327 652.862 562.405 651.318 564.658C640.248 567.778 631.088 574.282 622.102 581.27C610.265 590.475 598.768 601.175 589.524 613.012C584.484 619.464 580.387 626.293 576.369 633.396L574.25 634.421C570.362 636.239 567.299 638.861 564.03 641.584C556.143 648.153 548.431 656.627 543.692 665.795L543.481 666.225C544.762 648.764 547.362 631.882 545.556 614.33C544.79 606.889 543.188 599.468 541.525 592.18L537.285 576.25C536.553 573.526 535.486 570.786 535.85 567.942L535.293 567.779L505.533 506.218C499.7 495.145 494.769 482.991 490.486 471.235C488.214 464.998 486.394 458.075 483.485 452.147L497.479 443.815C516.623 429.323 535.64 411.539 547.893 390.705C552.766 382.418 556.339 373.697 560.773 365.233C563.568 362.796 565.471 359.26 567.661 356.292Z"/>
	<path fill="#EAF6F7" transform="scale(0.488281 0.488281)" d="M648.128 536.254C637.284 538.815 626.263 541.239 615.822 545.205C604.321 549.574 593.287 556.132 583.66 563.753C576.779 569.2 570.488 575.565 564.107 581.587C568.474 562.441 574.988 542.69 586.533 526.553C591.995 518.919 598.43 512.302 604.915 505.553C612.546 514.474 623.007 519.79 634.057 523.434C635.475 523.902 643.189 525.588 643.597 526.111C644.118 526.777 644.582 528.974 644.92 529.862C645.767 532.087 646.926 534.204 648.128 536.254Z"/>
	<path fill="#92461C" transform="scale(0.488281 0.488281)" d="M595.312 487.496C599.138 485.374 602.49 481.805 605.826 478.956L605.738 479.615C605.448 481.59 605.194 482.506 603.875 484C591.493 498.025 578.899 512.406 568.512 528C563.896 534.928 559.495 541.939 556.509 549.75C553.295 558.158 551.675 567.235 551.234 576.206C550.97 581.563 551.649 587.155 552.057 592.5L554.029 617.575L574.485 598.16C581.862 591.197 588.948 584.319 597.053 578.16C618.807 561.63 643.078 551.431 669.689 545.701L706.006 539.7L726.101 535.811C723.233 539.01 717.801 540.545 713.812 542.006L679.42 552.798C672.496 554.997 665.675 557.403 658.997 560.268C656.531 561.327 652.862 562.405 651.318 564.658C640.248 567.778 631.088 574.282 622.102 581.27C610.265 590.475 598.768 601.175 589.524 613.012C584.484 619.464 580.387 626.293 576.369 633.396L574.25 634.421C570.362 636.239 567.299 638.861 564.03 641.584C556.143 648.153 548.431 656.627 543.692 665.795L543.481 666.225C544.762 648.764 547.362 631.882 545.556 614.33C544.79 606.889 543.188 599.468 541.525 592.18L537.285 576.25C536.553 573.526 535.486 570.786 535.85 567.942L535.293 567.779L505.533 506.218L510.154 507.208C527.685 510.211 545.174 502.916 558.869 492.286C563.354 488.804 567.373 484.548 572 481.302L573.838 482.383C576.611 484.457 579.695 485.61 583 486.553L583.847 486.805C587.522 487.82 591.526 487.546 595.312 487.496Z"/>
	<path fill="#EAF6F7" transform="scale(0.488281 0.488281)" d="M505.533 506.218L510.154 507.208C527.685 510.211 545.174 502.916 558.869 492.286C563.354 488.804 567.373 484.548 572 481.302L573.838 482.383C576.611 484.457 579.695 485.61 583 486.553L583.847 486.805C587.522 487.82 591.526 487.546 595.312 487.496C584.099 497.391 572.835 507.322 563.166 518.781C554.865 528.619 548.023 539.613 542.362 551.147C539.916 556.132 536.69 562.429 535.85 567.942L535.293 567.779L505.533 506.218Z"/>
	<path fill="#189A30" transform="scale(0.488281 0.488281)" d="M630.888 408.198L638.074 399.635C645.739 391.986 654.907 388.855 665.604 388.91L660.063 392.092L659.306 392.6C656.239 394.679 653.487 397.388 651.466 400.5L651.016 401.186C646.637 407.966 645.001 416.054 646.827 423.955C649.36 434.911 656.259 445.522 665.5 451.971C670.279 455.306 675.404 458.369 680.935 460.289C696.317 465.629 715.672 463.932 731.501 461.334C727.116 468.599 722.604 475.924 717.221 482.499C713.482 487.065 707.967 491.288 705.125 496.387C703.226 499.795 702.321 503.746 703.356 507.587C705.681 516.214 712.803 520.834 718.639 526.855L648.128 536.254C646.926 534.204 645.767 532.087 644.92 529.862C644.582 528.974 644.118 526.777 643.597 526.111C643.189 525.588 635.475 523.902 634.057 523.434C623.007 519.79 612.546 514.474 604.915 505.553L605.591 504.427C607.057 501.433 610.462 498.385 612.822 495.989C618.482 490.243 624.66 484.716 629.847 478.547C625.98 473.849 623.313 469.585 620.795 464.059L605.826 478.956C602.49 481.805 599.138 485.374 595.312 487.496C591.526 487.546 587.522 487.82 583.847 486.805L583 486.553C579.695 485.61 576.611 484.457 573.838 482.383C577.493 481.362 582.062 482.263 585.939 481.678L586.75 481.547L592.235 480.411C598.01 478.826 611.82 468.964 614.252 463.74C616.309 459.323 615.546 452.174 616.606 447.244C617.052 445.164 617.559 442.876 618.57 441C619.548 439.185 621.137 437.415 621.75 435.458C622.553 432.894 622.65 430.094 623.191 427.464C624.617 420.52 627.395 414.331 630.888 408.198Z"/>
	<path fill="#EBA217" transform="scale(0.488281 0.488281)" d="M629.847 478.547L638.696 486.462C628.587 493.934 617.554 500.386 605.591 504.427C607.057 501.433 610.462 498.385 612.822 495.989C618.482 490.243 624.66 484.716 629.847 478.547Z"/>
	<path fill="#0B892A" transform="scale(0.488281 0.488281)" d="M567.661 356.292C567.161 359.808 567.372 363.446 568.615 366.798C571.031 373.316 576.96 377.681 583.139 380.313C601.79 388.257 621.418 381.737 638.854 373.822C642.557 372.14 645.523 372.612 649.5 372.521C652.684 372.447 656.099 371.989 659.25 371.537C676.637 369.048 692.912 361.39 705.594 349.191C707.893 346.979 710.291 344.717 712.341 342.271C713.549 340.83 714.513 339.101 715.966 337.898L716.669 337.343L714.76 350.954C713.278 355.905 709.807 361.007 707.361 365.593L706.821 365.405C702.582 364.087 698.193 364.15 693.93 365.325C684.269 367.987 674.858 372.78 669.602 381.75C668.428 383.753 667.331 386.145 666.991 388.459L665.604 388.91C654.907 388.855 645.739 391.986 638.074 399.635L630.888 408.198C627.395 414.331 624.617 420.52 623.191 427.464C622.65 430.094 622.553 432.894 621.75 435.458C621.137 437.415 619.548 439.185 618.57 441C617.559 442.876 617.052 445.164 616.606 447.244C615.546 452.174 616.309 459.323 614.252 463.74C611.82 468.964 598.01 478.826 592.235 480.411L586.75 481.547L585.939 481.678C582.062 482.263 577.493 481.362 573.838 482.383L572 481.302C567.373 484.548 563.354 488.804 558.869 492.286C545.174 502.916 527.685 510.211 510.154 507.208L505.533 506.218C499.7 495.145 494.769 482.991 490.486 471.235C488.214 464.998 486.394 458.075 483.485 452.147L497.479 443.815C516.623 429.323 535.64 411.539 547.893 390.705C552.766 382.418 556.339 373.697 560.773 365.233C563.568 362.796 565.471 359.26 567.661 356.292Z"/>
	<path fill="#05662B" transform="scale(0.488281 0.488281)" d="M497.479 443.815C498.278 446.904 501.497 450.08 503.929 452.082C512.565 459.19 537.111 461.119 547.996 459.771C552.001 459.276 555.88 458.644 559.75 457.445C586.828 449.053 608.845 429.389 621.577 404.328C623.806 399.939 625.826 395.484 627.613 390.896C628.73 388.027 629.626 384.861 631.06 382.147L630.929 398C630.853 401.25 630.395 404.435 630.812 407.681L630.888 408.198C627.395 414.331 624.617 420.52 623.191 427.464C622.65 430.094 622.553 432.894 621.75 435.458C621.137 437.415 619.548 439.185 618.57 441C617.559 442.876 617.052 445.164 616.606 447.244C615.546 452.174 616.309 459.323 614.252 463.74C611.82 468.964 598.01 478.826 592.235 480.411L586.75 481.547L585.939 481.678C582.062 482.263 577.493 481.362 573.838 482.383L572 481.302C567.373 484.548 563.354 488.804 558.869 492.286C545.174 502.916 527.685 510.211 510.154 507.208L505.533 506.218C499.7 495.145 494.769 482.991 490.486 471.235C488.214 464.998 486.394 458.075 483.485 452.147L497.479 443.815Z"/>
	<path fill="#189A30" transform="scale(0.488281 0.488281)" d="M193.096 325.961C200.942 318.192 209.278 312.807 219.601 308.873C241.427 300.554 267.621 302.604 288.487 312.719C292.167 314.504 295.845 316.462 299.25 318.731C301.404 320.166 303.613 322.123 305.993 323.131L306.774 323.447L320.982 341.063C344.32 337.121 370.844 340.634 390.442 354.63L396.972 359.636C400.539 363.129 404.304 366.579 407.451 370.46C417.502 382.858 423.164 397.524 423.483 413.5L422.917 427.262C420.888 441.352 416.807 455.99 410.084 468.599C406.789 473.55 403.801 478.739 399.815 483.174L395.904 486.134L396.114 480.819L396.21 480.778C397.888 472.641 397.269 464.807 396.879 456.581C382.86 463.624 366.974 467.605 351.5 469.68C342.685 470.862 332.845 471.521 324.017 470.192C310.969 468.229 299.551 465.038 288.339 457.859L283.863 462.609C281.063 465.037 277.682 468.094 274.271 469.571L273.933 498.341C259.435 495.893 245.84 489.55 234.422 480.25C231.62 477.968 228.636 475.697 226.397 472.841L219.76 476.846C224.96 488.563 239.241 498.845 251.003 503.503C259.066 506.696 266.17 508.711 274.776 510.035C279.758 522.318 285.081 534.492 293.521 544.872C280.686 549.404 266.252 552.402 252.662 552.875C235.332 553.478 216.26 547.273 202.248 537.199C198.413 534.442 194.975 531.002 191.528 527.78C186.581 527.958 181.176 530.38 176.132 531.109L175.644 531.177C159.602 532.773 145.184 530.739 130.505 523.865C110.101 514.311 93.7626 496.666 86.25 475.393C78.3004 452.882 80.1965 428.788 90.5487 407.395C98.3424 391.289 112.198 377.036 127.75 368.262C133.959 364.759 140.706 362.173 147.417 359.819C156.977 357.73 165.043 356.979 174.845 357.915C176.271 355.582 176.976 352.391 178.078 349.835C181.14 342.738 185.057 336.068 189.849 330.003C190.542 328.645 192.109 327.171 193.096 325.961Z"/>
	<path fill="#0B892A" transform="scale(0.488281 0.488281)" d="M130.61 476.487C135.29 478.947 139.226 483.336 144.375 485.07L145 485.255C147.699 486.596 150.987 488.093 153.997 488.578L155.5 488.755C156.429 489.002 156.804 489.303 157.825 489.283L158.75 489.255C159.955 490.05 161.795 489.753 163.25 489.755C165.014 490.919 171.13 490.254 173.5 490.255C174.753 489.42 176.963 489.755 178.5 489.755C179.566 489.044 180.256 489.255 181.5 489.255L182.25 488.755C182.99 488.772 183.661 488.792 184.392 488.644L187.502 488.002L189.502 487.502L191.502 487.002L193.502 486.502L194.25 486.255C194.924 486.073 195.562 485.993 196.237 485.768L200.002 484.502C200.715 484.302 201.066 484.23 201.767 483.879L202.502 483.502L210.251 480.394L218.5 476.255C219.185 475.957 219.631 475.878 220.211 475.379C220.796 474.875 220.604 474.916 221.502 474.502C222.476 474.055 223.197 473.468 224.125 473.002C225.108 472.509 224.448 473.081 225.289 472.24L225.75 471.755L226.875 471.752L227.125 470.125L227.453 470.5L227.532 471.25L230.465 472.272C246.338 476.87 259.428 477.812 274.271 469.571L273.933 498.341C259.435 495.893 245.84 489.55 234.422 480.25C231.62 477.968 228.636 475.697 226.397 472.841L219.76 476.846C213.517 479.657 207.492 482.77 201.06 485.159C188.158 489.952 172.574 492.634 158.859 490.401C149.857 488.936 136.148 484.218 130.61 476.487Z"/>
	<path fill="#3CD045" transform="scale(0.488281 0.488281)" d="M220.287 435.917C217.69 431.972 214.98 427.669 210.719 425.352C207.785 423.757 203.907 422.835 200.572 423.104C187.579 424.15 186.205 439.006 174.871 442.025L174.25 442.18L173.246 442.429C168.19 443.365 162.386 441.897 158.232 438.981C152.976 435.293 149.168 429.407 147.968 423.103L147.813 422.25C147.14 418.686 147.092 414.298 148.126 410.797L148.374 410L148.892 408.234C151.079 401.363 156.932 394.788 163.397 391.567C169.892 388.332 177.396 388.09 184.172 390.634C191.202 393.274 196.959 398.295 201.985 403.749C204.468 406.443 206.522 409.319 209.208 411.848C214.061 418.39 216.624 426.941 221.223 433.63C223.86 426.765 227.44 420.866 232.662 415.637C239.944 408.346 249.143 404.934 259.387 405.008C275.279 405.122 286.906 414.951 297.392 425.682L297.516 423.218C298.021 417.101 301.335 412.049 306.036 408.302C313.432 402.406 323.951 399.368 333.336 400.527C342.341 401.639 347.654 406.541 352.894 413.423L357.402 398.461C363.917 396.675 370.188 395.405 376.447 398.791C380.064 400.747 383.181 404.776 384.183 408.745C385.552 414.173 382.872 419.763 380.027 424.25C373.269 434.907 361.933 441.501 349.766 444.067C327.798 448.7 301.472 442.551 280.329 435.941L271.11 432.753C270.615 432.564 268.443 431.521 268.053 431.56C267.584 431.608 263.077 436.613 262.174 437.363C252.072 445.747 237.553 449.495 225.969 441.571C223.875 440.139 221.583 438.138 220.287 435.917Z"/>
	<path fill="#8FDE44" transform="scale(0.488281 0.488281)" d="M209.208 411.848L205.625 399.5C202.346 384.45 205.129 368.779 213.406 355.819C221.76 342.739 234.758 332.358 250.147 329.149C260.556 326.979 271.667 328.744 280.538 334.694C293.629 343.473 299.731 357.323 302.729 372.278C312.348 365.694 323.39 359.967 335.46 362.303C342.852 363.733 349.267 367.719 353.399 374.053C358.186 381.39 359.15 390.047 357.402 398.461L352.894 413.423C347.654 406.541 342.341 401.639 333.336 400.527C323.951 399.368 313.432 402.406 306.036 408.302C301.335 412.049 298.021 417.101 297.516 423.218L297.392 425.682C286.906 414.951 275.279 405.122 259.387 405.008C249.143 404.934 239.944 408.346 232.662 415.637C227.44 420.866 223.86 426.765 221.223 433.63C216.624 426.941 214.061 418.39 209.208 411.848Z"/>
	<path fill="#3BB432" transform="scale(0.488281 0.488281)" d="M463.552 149.224C488.363 145.2 511.297 148.874 532.03 163.92C544.874 173.241 553.181 184.546 559.77 198.857C575.874 194.834 590.559 194.952 605.113 203.75C617.248 211.085 626.646 223.402 629.993 237.25L631.61 246.636C636.591 245.823 641.588 244.801 646.636 244.553C660.725 243.862 674.49 247.67 686.01 255.967C693.699 261.504 701.841 270.114 705.806 278.83C713.521 292.321 715.991 306.617 717.087 321.871C717.407 326.316 717.856 332.581 716.796 336.937L716.669 337.343L715.966 337.898C714.513 339.101 713.549 340.83 712.341 342.271C710.291 344.717 707.893 346.979 705.594 349.191C692.912 361.39 676.637 369.048 659.25 371.537C656.099 371.989 652.684 372.447 649.5 372.521C645.523 372.612 642.557 372.14 638.854 373.822C621.418 381.737 601.79 388.257 583.139 380.313C576.96 377.681 571.031 373.316 568.615 366.798C567.372 363.446 567.161 359.808 567.661 356.292C565.471 359.26 563.568 362.796 560.773 365.233C559.057 363.924 557.487 362.568 555.418 361.863L555.06 362.209L547.231 367.501C541.736 369.849 536.556 372.769 530.947 374.911C513.001 381.764 492.018 383.211 473.015 380.971C472.835 364.37 475.904 348.492 482.607 333.241L483.125 331.123L474.585 330.538L468.44 329.06C466.71 331.375 465.832 334.735 464.874 337.447C460.049 351.109 457.278 364.939 455.229 379.246C451.173 378.327 447.112 377.304 443.176 375.956C440.103 374.903 437.182 373.166 433.966 372.685C431.733 372.354 413.283 355.96 410.167 353.407C407.952 355.173 405.764 356.444 403.26 357.739L396.972 359.636L390.442 354.63C370.844 340.634 344.32 337.121 320.982 341.063L306.774 323.447C303.965 314.623 302.06 305.821 301.979 296.53C301.783 273.918 311.824 251.636 327.564 235.655C346.567 218.928 366.385 210.205 391.862 210.664C398.215 190.933 411.979 174.749 429.327 163.687L443.04 156.454L453.41 152.161C454.106 151.105 461.919 149.589 463.552 149.224Z"/>
	<path fill="#3CD045" transform="scale(0.488281 0.488281)" d="M446.734 285.558C442.186 282.481 437.345 276.247 431.517 275.831C424.444 275.327 412.14 288.321 405.067 291.666C400.58 293.788 396.367 294.321 391.475 294.006C384.876 293.582 378.384 290.072 374.2 285.013C370.004 279.939 367.468 272.935 368.326 266.327C369.602 256.492 376.172 248.215 383.885 242.369C392.81 235.603 402.294 234.581 413.035 236.073L417.009 237.749C423.868 241.582 429.529 245.675 434.075 252.202C435.413 254.123 436.86 257.132 438.635 258.599C440.978 267.893 443.51 276.53 446.734 285.558Z"/>
	<path fill="#189A30" transform="scale(0.488281 0.488281)" d="M705.806 278.83C713.521 292.321 715.991 306.617 717.087 321.871C717.407 326.316 717.856 332.581 716.796 336.937L716.669 337.343L715.966 337.898C714.513 339.101 713.549 340.83 712.341 342.271C710.291 344.717 707.893 346.979 705.594 349.191C692.912 361.39 676.637 369.048 659.25 371.537C656.099 371.989 652.684 372.447 649.5 372.521C645.523 372.612 642.557 372.14 638.854 373.822C621.418 381.737 601.79 388.257 583.139 380.313C576.96 377.681 571.031 373.316 568.615 366.798C567.372 363.446 567.161 359.808 567.661 356.292C565.471 359.26 563.568 362.796 560.773 365.233C559.057 363.924 557.487 362.568 555.418 361.863L555.06 362.209L547.231 367.501C541.736 369.849 536.556 372.769 530.947 374.911C513.001 381.764 492.018 383.211 473.015 380.971C472.835 364.37 475.904 348.492 482.607 333.241L483.125 331.123C489.852 329.851 496.42 329.183 503.013 327.14C506.761 325.979 510.76 323.327 514.412 322.592L514.671 322.945C519.17 328.913 524.895 333.149 531.186 337.039C542.661 344.135 555.094 349.112 568.324 351.745C572.867 351.531 578.688 357.364 582.397 359.756C585.139 361.524 588.05 363.036 591.003 364.418C597.472 367.446 604.347 369.701 611.437 370.678C633.38 373.701 654.035 364.678 671.05 351.476C682.159 342.856 691.357 331.633 696.783 318.615C702.013 306.068 704.056 292.224 705.806 278.83Z"/>
	<path fill="#0B892A" transform="scale(0.488281 0.488281)" d="M568.644 352.117C568.712 353.848 568.556 354.658 567.853 356.241L567.661 356.292C565.471 359.26 563.568 362.796 560.773 365.233C559.057 363.924 557.487 362.568 555.418 361.863C558.903 357.834 564.668 355.686 568.644 352.117Z"/>
	<path fill="#3CD045" transform="scale(0.488281 0.488281)" d="M455.585 294.341C459.873 286.617 463.112 278.709 469.425 272.26C475.79 265.759 484.229 262.591 493.286 262.663C502.96 262.741 512.355 265.793 519.198 272.838C527.679 281.57 528.107 293.526 527.883 304.931C532.593 295.153 538.635 284.788 548.696 279.702C557.148 275.429 568.186 275.328 577.031 278.407C586.901 281.842 591.964 289.861 596.367 298.698C599.625 295.469 601.888 288.788 603.769 284.51C606.078 283.839 607.368 281.44 609.074 279.76C613.179 275.714 618.012 272.51 623.75 271.514L624.475 271.375C629.392 270.497 634.137 271.975 638.201 274.761C641.396 276.951 644.203 280.334 646.379 283.51L646.807 284.124C650.209 289.108 652.126 295.005 653.193 300.885C653.841 304.459 653.687 308.775 652.666 312.25L652.433 313.064C650.818 318.532 647.333 323.913 642.167 326.65L641.5 326.988L640.787 327.361C632.823 331.43 622.924 331.496 614.191 331.475C593.391 331.427 572.126 328.407 551.978 323.192L511.89 311.343C499.382 308.233 486.341 307.442 474.054 303.348C468.372 301.455 459.895 298.415 455.585 294.341Z"/>
	<path fill="#8FDE44" transform="scale(0.488281 0.488281)" d="M438.635 258.599C435.601 238.809 437.57 219.17 449.627 202.542C457.64 191.492 470.506 184.79 483.846 182.851C488.942 182.11 494.492 182.266 499.529 183.319C512.829 186.1 525.627 194.674 533.148 206.056C538.969 214.864 542.299 224.621 544.088 234.964C548.864 231.515 553.277 229.065 559 227.43L559.852 227.181C568.436 224.781 578.84 226.281 586.554 230.638C596.209 236.091 603.023 244.787 605.766 255.534C608.379 265.777 606.641 274.604 603.769 284.51C601.888 288.788 599.625 295.469 596.367 298.698C591.964 289.861 586.901 281.842 577.031 278.407C568.186 275.328 557.148 275.429 548.696 279.702C538.635 284.788 532.593 295.153 527.883 304.931C528.107 293.526 527.679 281.57 519.198 272.838C512.355 265.793 502.96 262.741 493.286 262.663C484.229 262.591 475.79 265.759 469.425 272.26C463.112 278.709 459.873 286.617 455.585 294.341C452.465 291.476 449.497 288.793 446.734 285.558C443.51 276.53 440.978 267.893 438.635 258.599Z"/>
	<path fill="#0B892A" transform="scale(0.488281 0.488281)" d="M443.04 156.454L453.41 152.161L453.013 152.632C449.134 157.146 444.57 161.044 440.551 165.444C427.197 180.067 418.442 196.418 415.718 216.162C414.766 223.068 415.186 231.043 417.009 237.749L413.035 236.073C410.683 234.099 408.303 233.136 405.35 232.352L399.812 231.225C389.943 229.505 380.077 232.586 372.071 238.32C362.824 244.942 355.279 256.39 353.458 267.682L353.331 268.5L353.203 269.27C352.334 274.801 352.448 281.275 353.761 286.716L353.964 287.583C356.698 298.942 364.554 307.96 374.437 313.87C379.643 316.983 385.006 318.701 391 319.556L391.904 319.692C405.481 321.673 423.811 317.818 434.87 309.441C437.015 307.816 439.483 304.703 441.835 303.71C443.853 312.203 448.202 318.5 455.612 323.142C459.566 325.619 464.1 327.389 468.44 329.06C466.71 331.375 465.832 334.735 464.874 337.447C460.049 351.109 457.278 364.939 455.229 379.246C451.173 378.327 447.112 377.304 443.176 375.956C440.103 374.903 437.182 373.166 433.966 372.685C431.733 372.354 413.283 355.96 410.167 353.407C407.952 355.173 405.764 356.444 403.26 357.739L396.972 359.636L390.442 354.63C370.844 340.634 344.32 337.121 320.982 341.063L306.774 323.447C303.965 314.623 302.06 305.821 301.979 296.53C301.783 273.918 311.824 251.636 327.564 235.655C346.567 218.928 366.385 210.205 391.862 210.664C398.215 190.933 411.979 174.749 429.327 163.687L443.04 156.454Z"/>
	<path fill="#863B18" transform="scale(0.488281 0.488281)" d="M455.229 379.246C457.278 364.939 460.049 351.109 464.874 337.447C465.832 334.735 466.71 331.375 468.44 329.06L474.585 330.538L483.125 331.123L482.607 333.241C475.904 348.492 472.835 364.37 473.015 380.971C492.018 383.211 513.001 381.764 530.947 374.911C536.556 372.769 541.736 369.849 547.231 367.501L555.06 362.209L555.418 361.863C557.487 362.568 559.057 363.924 560.773 365.233C556.339 373.697 552.766 382.418 547.893 390.705C535.64 411.539 516.623 429.323 497.479 443.815L483.485 452.147C486.394 458.075 488.214 464.998 490.486 471.235C494.769 482.991 499.7 495.145 505.533 506.218L535.293 567.779L535.85 567.942C535.486 570.786 536.553 573.526 537.285 576.25L541.525 592.18C543.188 599.468 544.79 606.889 545.556 614.33C547.362 631.882 544.762 648.764 543.481 666.225L543.692 665.795C548.431 656.627 556.143 648.153 564.03 641.584C567.299 638.861 570.362 636.239 574.25 634.421L576.369 633.396L567.497 653.866C560.837 675.338 559.701 696.467 560.3 718.78C561.462 762.102 570.245 804.914 590.516 843.507C597.612 857.016 606.173 868.961 616.472 880.188C620.308 885.06 625.329 889.458 629.966 893.573C632.738 896.033 635.621 898.831 638.823 900.705L647.467 907.682L671.112 923.664L692.943 939.172L671.16 938.168L629.555 933.728C622.917 932.804 616.142 932.116 609.634 930.485L639.371 957.899C612.032 960.538 585.591 961.087 559.817 949.969C550.624 946.004 542.817 940.646 534.847 934.651L532.872 933.163C532.7 933.033 532.565 932.72 532.355 932.773C531.825 932.906 531.58 933.545 531.188 933.927C529.564 935.515 527.922 937.029 526.101 938.392C520.874 942.305 515.057 945.427 509.481 948.806C487.254 961.167 462.927 966.08 438.052 969.642C440.357 961.544 443.945 954.188 447.798 946.722C435.164 945.56 421.811 946.237 409.115 946.076C404.996 946.024 395.448 946.868 392.047 944.688C388.905 944.716 384.16 946.907 381 947.897C369.464 951.509 358.02 954.997 346.794 959.522C356.572 934.477 376.291 919.862 396.449 903.583L412.638 890.628C418.78 885.234 424.759 879.054 428.65 871.807L432.54 864.231C439.468 849.808 444.878 834.44 449.727 819.205C457.265 795.517 463.452 770.893 466.152 746.127C467.711 731.835 467.887 717.36 467.632 702.994C467.331 685.98 465.993 668.537 460.219 652.41C448.078 618.5 416.855 597.544 383.477 587.752C364.767 582.263 345.658 579.193 327.852 570.814C324.466 568.285 320.064 566.432 316.405 564.216C307.698 558.943 300.365 552.368 293.521 544.872C285.081 534.492 279.758 522.318 274.776 510.035C266.17 508.711 259.066 506.696 251.003 503.503C239.241 498.845 224.96 488.563 219.76 476.846L226.397 472.841C228.636 475.697 231.62 477.968 234.422 480.25C245.84 489.55 259.435 495.893 273.933 498.341L274.271 469.571C277.682 468.094 281.063 465.037 283.863 462.609L288.339 457.859C299.551 465.038 310.969 468.229 324.017 470.192C332.845 471.521 342.685 470.862 351.5 469.68C366.974 467.605 382.86 463.624 396.879 456.581C397.269 464.807 397.888 472.641 396.21 480.778L396.114 480.819L395.904 486.134L399.815 483.174C403.801 478.739 406.789 473.55 410.084 468.599C416.807 455.99 420.888 441.352 422.917 427.262L423.483 413.5C423.164 397.524 417.502 382.858 407.451 370.46C404.304 366.579 400.539 363.129 396.972 359.636L403.26 357.739C405.764 356.444 407.952 355.173 410.167 353.407C413.283 355.96 431.733 372.354 433.966 372.685C437.182 373.166 440.103 374.903 443.176 375.956C447.112 377.304 451.173 378.327 455.229 379.246Z"/>
	<path fill="#B6EE59" transform="scale(0.488281 0.488281)" d="M392.047 944.688L454.84 932.224L447.798 946.722C435.164 945.56 421.811 946.237 409.115 946.076C404.996 946.024 395.448 946.868 392.047 944.688Z"/>
	<path fill="#6C2E0C" transform="scale(0.488281 0.488281)" d="M547.231 367.501L555.06 362.209C553.745 366.71 551.012 371.537 548.649 375.63C538.637 392.974 523.747 408.753 506.093 418.396L489.5 426.6C486.087 428.342 482.412 431.113 478.75 432.119L478.138 431.735L478.102 430.009C478.745 429.797 478.522 429.943 478.987 429.539C481.342 427.493 484.122 426.043 486.75 424.38L497.231 417.289C512.503 406.496 526.786 394.138 538.501 379.533C541.59 375.681 544.853 371.845 547.231 367.501Z"/>
	<path fill="#92461C" transform="scale(0.488281 0.488281)" d="M439.214 900.25L439.733 900.219L440.275 900.878C438.695 904.002 436.712 907.485 435.802 910.862C435.05 913.65 435.76 915.255 437.232 917.56L437.662 918.223C435.753 919.116 433.008 919.3 430.899 919.656L417.75 922.053C408.598 924 399.253 926.216 390.536 929.658C385.287 931.731 380.206 934.518 375.155 937.037L373.543 937.706L373.141 937.133C387.288 925.816 400.899 913.802 417.698 906.475C424.543 903.489 431.872 901.541 439.214 900.25Z"/>
	<path fill="#0B892A" transform="scale(0.488281 0.488281)" d="M473.015 380.971C492.018 383.211 513.001 381.764 530.947 374.911C536.556 372.769 541.736 369.849 547.231 367.501C544.853 371.845 541.59 375.681 538.501 379.533C526.786 394.138 512.503 406.496 497.231 417.289L486.75 424.38C484.122 426.043 481.342 427.493 478.987 429.539C478.522 429.943 478.745 429.797 478.102 430.009C476.899 427.786 476.571 424.318 476.11 421.832C473.606 408.326 473.074 394.668 473.015 380.971Z"/>
	<path fill="#6C2E0C" transform="scale(0.488281 0.488281)" d="M455.229 379.246C457.278 364.939 460.049 351.109 464.874 337.447C465.832 334.735 466.71 331.375 468.44 329.06L474.585 330.538C472.351 339.891 469.922 348.956 468.426 358.497L465.751 378.546C465.591 380.08 465.751 384.481 465.13 385.618C464.449 386.865 462.813 387.944 462.012 389.227C459.881 392.642 458.588 396.861 457.266 400.641C455.874 404.621 456.062 409.303 456.039 413.467C456.014 417.94 455.9 422.49 456.253 426.952C456.511 430.21 457.347 433.389 456.64 436.63L459.851 449.742C443.822 447.743 434.131 437.727 422.917 427.262L423.483 413.5C423.164 397.524 417.502 382.858 407.451 370.46C404.304 366.579 400.539 363.129 396.972 359.636L403.26 357.739C405.764 356.444 407.952 355.173 410.167 353.407C413.283 355.96 431.733 372.354 433.966 372.685C437.182 373.166 440.103 374.903 443.176 375.956C447.112 377.304 451.173 378.327 455.229 379.246Z"/>
	<path fill="#0B892A" transform="scale(0.488281 0.488281)" d="M433.966 372.685C437.182 373.166 440.103 374.903 443.176 375.956C447.112 377.304 451.173 378.327 455.229 379.246L453.272 390.85L433.966 372.685Z"/>
	<path fill="#0B892A" transform="scale(0.488281 0.488281)" d="M403.26 357.739C416.089 372.114 428.769 386.111 438.61 402.79L451.809 427.061C453.437 430.199 454.855 433.594 456.64 436.63L459.851 449.742C443.822 447.743 434.131 437.727 422.917 427.262L423.483 413.5C423.164 397.524 417.502 382.858 407.451 370.46C404.304 366.579 400.539 363.129 396.972 359.636L403.26 357.739Z"/>
	<path fill="#EAF6F7" transform="scale(0.488281 0.488281)" d="M422.917 427.262C434.131 437.727 443.822 447.743 459.851 449.742L468.841 487.056C470.201 491.732 471.329 496.868 473.037 501.395C479.454 523.128 486.825 544.395 492.035 566.5C496.206 584.196 500.482 604.777 494.259 622.463C488.049 605.564 471.359 591.55 456.471 582.355L449.454 578.379L433.236 572.31C424.325 545.847 410.07 523.071 393.414 500.916L395.205 490.642L395.904 486.134L399.815 483.174C403.801 478.739 406.789 473.55 410.084 468.599C416.807 455.99 420.888 441.352 422.917 427.262Z"/>
	<path fill="#EBA217" transform="scale(0.488281 0.488281)" d="M399.815 483.174C417.658 503.322 433.872 526.137 444.935 550.767C449.576 561.099 453.008 571.601 456.471 582.355L449.454 578.379C445.979 567.89 440.463 557.557 434.953 548C427.365 534.837 418.981 522.18 409.974 509.948L399.885 496.769C398.369 494.831 396.169 492.888 395.205 490.642L395.904 486.134L399.815 483.174Z"/>
	<path fill="#92461C" transform="scale(0.488281 0.488281)" d="M395.205 490.642C396.169 492.888 398.369 494.831 399.885 496.769L409.974 509.948C418.981 522.18 427.365 534.837 434.953 548C440.463 557.557 445.979 567.89 449.454 578.379L433.236 572.31C424.325 545.847 410.07 523.071 393.414 500.916L395.205 490.642Z"/>
	<path fill="#05662B" transform="scale(0.488281 0.488281)" d="M422.917 427.262C434.131 437.727 443.822 447.743 459.851 449.742L468.841 487.056C470.201 491.732 471.329 496.868 473.037 501.395C463.846 499.957 454.971 495.685 446.773 491.454C439.469 487.683 431.915 483.888 425.008 479.438C419.839 476.106 415.04 472.234 410.084 468.599C416.807 455.99 420.888 441.352 422.917 427.262Z"/>
	<path fill="#A2572D" transform="scale(0.488281 0.488281)" d="M283.863 462.609L288.339 457.859C299.551 465.038 310.969 468.229 324.017 470.192C332.845 471.521 342.685 470.862 351.5 469.68C366.974 467.605 382.86 463.624 396.879 456.581C397.269 464.807 397.888 472.641 396.21 480.778L396.114 480.819L395.904 486.134L395.205 490.642L393.414 500.916C410.07 523.071 424.325 545.847 433.236 572.31L449.454 578.379L456.471 582.355C471.359 591.55 488.049 605.564 494.259 622.463C492.65 625.393 492.072 629.439 491.244 632.676C489.686 638.765 487.71 645.48 484.572 650.941C480.554 639.228 477.181 627.951 469.438 618C439.936 580.082 389.107 576.747 346.859 562.976C336.367 559.557 326.177 556.184 316.969 549.889C299.073 537.656 285.418 517.088 281.925 495.502L281.653 493.75C281.353 492.646 281.358 491.869 281.169 490.75C280.987 489.678 280.911 488.27 280.677 487.25C280.276 485.5 280.489 483.679 279.991 482.002C279.682 480.961 279.737 480.031 279.926 478.965L280.243 477C280.067 474.14 279.236 471.332 279.607 468.324C279.75 467.164 282.203 465.428 283.125 464.625C283.534 465.232 283.381 465.769 283.377 466.5C283.369 468.175 283.639 469.957 283.442 471.609L283.255 473C283.407 474.215 284.092 475.069 283.957 476.44C283.789 478.161 284.513 478.911 285.424 480.249C284.896 477.316 284.544 474.451 284.485 471.472C284.432 468.758 284.891 465.107 283.863 462.609Z"/>
	<path fill="#EAF6F7" transform="scale(0.488281 0.488281)" d="M393.414 500.916C410.07 523.071 424.325 545.847 433.236 572.31C416.918 567.053 400.506 563.622 383.604 560.891C372.09 559.031 360.246 557.893 349.021 554.617C367.738 540.726 386.106 523.761 393.414 500.916Z"/>
	<path fill="#05662B" transform="scale(0.488281 0.488281)" d="M300.057 516.566C308.716 516.566 317.232 516.414 325.813 515.1C345.663 512.059 368.224 503.402 384.5 491.516C388.777 488.392 392.169 484.334 396.114 480.819L395.904 486.134L395.205 490.642L393.414 500.916C386.106 523.761 367.738 540.726 349.021 554.617C344.124 552.578 339.142 550.999 334.359 548.644C320.057 541.601 308.266 530.174 300.057 516.566Z"/>
	<path fill="#0B892A" transform="scale(0.488281 0.488281)" d="M283.863 462.609L288.339 457.859C299.551 465.038 310.969 468.229 324.017 470.192C332.845 471.521 342.685 470.862 351.5 469.68C366.974 467.605 382.86 463.624 396.879 456.581C397.269 464.807 397.888 472.641 396.21 480.778L396.114 480.819C392.169 484.334 388.777 488.392 384.5 491.516C368.224 503.402 345.663 512.059 325.813 515.1C317.232 516.414 308.716 516.566 300.057 516.566C293.029 505.043 287.974 493.562 285.424 480.249C284.896 477.316 284.544 474.451 284.485 471.472C284.432 468.758 284.891 465.107 283.863 462.609Z"/>
	<path fill="#A2572D" transform="scale(0.488281 0.488281)" d="M589.883 920.67C595.141 928.957 601.937 935.579 608.779 942.547C595.682 942.642 582.727 941.195 570.335 936.789C556.171 931.753 539.194 921.294 532.658 907.275L532.352 906.608C531.359 904.499 530.678 902.387 529.991 900.166C528.731 906.228 526.912 911.748 523.203 916.794C512.338 931.575 493.464 938.855 475.865 941.433C479.761 923.95 485.098 906.608 484.434 888.5C484.147 880.683 482.578 872.996 481.386 865.289C479.616 853.851 478.115 842.41 477.813 830.833C477.313 811.678 479.549 792.907 481.616 773.929C484.631 746.239 487.674 718.261 495.601 691.489C497.847 683.905 500.258 676.049 503.694 668.909C504.459 667.319 505.832 665.194 507.634 664.69C508.979 664.314 510.544 664.589 511.744 665.262C515.23 667.214 516.636 674.781 517.794 678.529L519.94 671.378C521.776 662.896 523.569 654.685 524.202 645.977C525.969 621.671 521.181 595.444 513.545 572.428L490.641 513.113L480.357 481.331C477.902 472.75 474.774 463.546 473.352 454.75C473.214 453.893 473.168 453.108 472.928 452.266L471.926 447.75C471.743 446.391 471.282 445.202 471.075 443.868L470.727 441.75L470.464 440.377L470.239 438.75C469.85 437.222 469.691 435.679 469.278 434.157C468.981 433.064 468.996 432.074 468.78 431L468.385 429.921C468.266 428.938 468.495 428.446 468.151 427.431C467.872 426.603 467.86 426.869 467.867 426.116C467.886 424.016 467.547 422.088 467.381 420.02L467.243 418.5C466.966 416.958 466.992 415.49 466.743 414C466.261 411.108 466.784 407.988 466.238 405.254C465.716 402.635 465.639 400.434 465.713 397.709C465.769 395.623 466.226 393.545 466.245 391.365C466.27 388.525 465.648 385.067 466.368 382.334C466.798 380.698 466.398 379.186 466.806 377.574L475.098 332.516L475.25 331.835C476.801 331.728 478.011 332.097 479.499 332.061C480.819 332.028 480.659 332.146 481.658 332.878C481.112 333.815 480.838 334.511 480.502 335.502L479.755 337.5L479.559 337.992C479.273 338.749 479.384 338.449 479.25 339.5L478.877 340L478.255 342L478.002 342.625L478 343.25C477.811 344.28 477.808 343.723 477.377 344.5C477.015 345.154 477.098 345.839 476.877 346.5L476.502 347.125C476.112 348.066 476.187 348.825 476 349.75C475.943 350.033 475.338 350.876 475.255 351C475.375 352.372 474.695 352.885 474.877 354C474.179 355.122 474.549 356.198 473.755 357L474 358.25L473.255 359.25L473.377 360C473.449 360.85 473.379 361.827 472.877 362.5L472.901 363.437C472.915 364.317 472.786 364.69 472.502 365.503C472.243 366.247 472.252 366.673 472.377 367.437C472.612 368.873 472.316 370.504 472.377 372C472.43 373.282 472.269 374.39 472.002 375.625C471.751 376.79 471.875 377.696 472.078 378.837C472.279 379.964 472.259 380.679 472 381.75C471.783 382.646 471.812 383.11 471.877 384L471.862 384.703C471.862 385.807 471.821 385.175 472.064 386.151C472.737 388.863 472.141 392.17 472.377 395L472.854 405.781C472.854 406.612 473.077 406.768 473.255 407.5C473.46 408.344 473.337 409.153 473.285 410C473.205 411.307 473.602 411.379 473.877 412.5C474.071 413.286 473.848 414.443 473.755 415.25L474.255 416L474.366 418.124C474.389 418.933 474.685 419.522 475 420.25L474.755 421.75L475.255 422.25L475.293 423.062C475.357 423.981 475.604 424.214 475.755 425L475.801 425.734C475.872 426.607 476.075 427.006 476.5 427.75L476.413 428.67L476.755 429.5C476.923 430.077 476.879 430.634 477.084 431.234C477.369 432.067 477.299 432.885 477.584 433.718C477.979 434.873 477.843 436.049 478.255 437.25C478.511 437.996 478.576 438.62 478.655 439.404C478.831 441.144 478.554 439.384 479.255 441L479.413 442.248L479.755 443.25L481.338 448.231C481.616 449.065 481.763 449.885 481.913 450.748L483.439 452.177L483.485 452.147C486.394 458.075 488.214 464.998 490.486 471.235C494.769 482.991 499.7 495.145 505.533 506.218L535.293 567.779L535.85 567.942C535.486 570.786 536.553 573.526 537.285 576.25L541.525 592.18C543.188 599.468 544.79 606.889 545.556 614.33C547.362 631.882 544.762 648.764 543.481 666.225L543.692 665.795C548.431 656.627 556.143 648.153 564.03 641.584C567.299 638.861 570.362 636.239 574.25 634.421L576.369 633.396L567.497 653.866C560.837 675.338 559.701 696.467 560.3 718.78C561.462 762.102 570.245 804.914 590.516 843.507C597.612 857.016 606.173 868.961 616.472 880.188C620.308 885.06 625.329 889.458 629.966 893.573C632.738 896.033 635.621 898.831 638.823 900.705L647.467 907.682L671.112 923.664C664.19 925.719 653.959 924.114 646.828 923.002C622.141 919.154 597.685 906.956 580.948 888.109C578.153 884.961 576.017 881.099 573.527 877.687L581.009 900C583.328 906.007 587.122 912.206 588.689 918.36L588.819 918.905L589.883 920.67Z"/>
	<path fill="#B66D3C" transform="scale(0.488281 0.488281)" d="M589.883 920.67C586.213 920.612 582.611 920.199 579 919.534C558.891 915.83 539.268 901.082 527.778 884.492C512.093 861.846 507.503 834.014 506.366 807C505.612 789.071 506.533 771.007 509.73 753.334C511.286 744.729 514.018 728.271 521.5 723.1C522.916 722.936 524.312 722.794 525.679 723.304C532.175 725.729 537.088 737.087 539.765 743.064C540.284 730.739 542.221 718.473 544.32 706.333C547.013 690.754 550.178 673.718 556.99 659.361C558.624 655.917 561.209 649.304 565 647.949L565.578 648.75C564.863 651.591 565.21 654.83 565.245 657.75C565.626 657.003 565.823 656.235 566.025 655.423C566.212 654.669 566.909 654.353 567.497 653.866C560.837 675.338 559.701 696.467 560.3 718.78C561.462 762.102 570.245 804.914 590.516 843.507C597.612 857.016 606.173 868.961 616.472 880.188C620.308 885.06 625.329 889.458 629.966 893.573C632.738 896.033 635.621 898.831 638.823 900.705L647.467 907.682L671.112 923.664C664.19 925.719 653.959 924.114 646.828 923.002C622.141 919.154 597.685 906.956 580.948 888.109C578.153 884.961 576.017 881.099 573.527 877.687L581.009 900C583.328 906.007 587.122 912.206 588.689 918.36L588.819 918.905L589.883 920.67Z"/>
	<path fill="#A2572D" transform="scale(0.488281 0.488281)" d="M588.819 918.905C588.251 918.364 587.75 917.876 587.273 917.25C584.788 913.987 582.698 910.16 580.499 906.681C576.954 901.074 573.391 895.543 570.588 889.512C560.875 868.614 557.571 846.035 555.726 823.272C554.958 813.803 553.798 802.907 555.275 793.525C562.768 822.053 566.636 851.934 584.385 876.536C588.283 881.938 592.968 887.492 598.22 891.645C612.467 902.911 628.528 909.483 646.953 907.736L647.467 907.682L671.112 923.664C664.19 925.719 653.959 924.114 646.828 923.002C622.141 919.154 597.685 906.956 580.948 888.109C578.153 884.961 576.017 881.099 573.527 877.687L581.009 900C583.328 906.007 587.122 912.206 588.689 918.36L588.819 918.905Z"/>
</svg>
