<?xml version="1.0" encoding="utf-8" ?>
<svg xmlns="http://www.w3.org/2000/svg" xmlns:xlink="http://www.w3.org/1999/xlink" width="500" height="500">
	<path fill="#F18100" transform="scale(0.488281 0.488281)" d="M-0 -0L1024 0L1024 1024L-0 1024L0 -0Z"/>
	<path fill="#43184D" transform="scale(0.488281 0.488281)" d="M255.029 803.471L156.153 803.486L156.209 751.701L156.056 642.855L156.037 325.537C156.02 318.102 155.151 233.887 155.645 232.822C155.85 232.379 212.505 207.96 218.406 205.342L319.282 161.513L341.557 151.804C344.21 150.617 348.072 149.406 350.285 147.553C352.083 146.048 353.658 143.484 355.086 141.575L364.511 128.673L398.888 81.9653L596.066 82.0805L616.435 82.0406C617.753 82.0264 621.582 81.5391 622.695 81.9626C623.585 82.3011 660.055 128.286 664.066 133.393L671.796 143.345C672.996 144.964 674.672 147.852 676.331 148.85C679.121 150.529 683.323 151.782 686.402 153.164L717.204 166.764L828.471 215.947L853.089 226.635C858.23 228.861 864.155 230.732 868.614 234.122L868.659 800.918L768.013 800.539L766.942 800.512L766.965 924.095L766.971 943.316C764.988 944.357 682.609 943.527 674.734 943.529L255.09 943.453L255.201 923.961L255.029 803.471Z"/>
	<path fill="#4B3465" transform="scale(0.488281 0.488281)" d="M768.071 738.921C768.604 743.455 768.362 748.041 768.26 752.596L851.04 752.47L851.017 781.109L797.943 781.481L777.449 781.494C774.717 781.495 770.574 781.002 768.014 781.881L768.071 738.921Z"/>
	<path fill="#FFFEFE" transform="scale(0.488281 0.488281)" d="M562.124 243.206C579.743 217.596 600.703 193.888 620.078 169.591L638.034 146.834C641.794 141.99 645.279 136.665 649.768 132.467L658.783 143.672L581.227 257.959C574.538 253.778 568.29 248.162 562.124 243.206Z"/>
	<path fill="#FFFEFE" transform="scale(0.488281 0.488281)" d="M375.608 132.411L462.984 242.453L442.211 257.753L366.596 145.333L375.608 132.411Z"/>
	<path fill="#4B3465" transform="scale(0.488281 0.488281)" d="M254.872 797.16L254.554 785.008L173.962 785.985L173.994 749.015L218.14 749.119L243.246 749.472C246.726 749.501 251.017 750.012 254.394 749.25L254.943 747.137L254.872 797.16Z"/>
	<path fill="#E8E8EB" transform="scale(0.488281 0.488281)" d="M614.074 110.724L625.425 100.435L649.768 132.467C645.279 136.665 641.794 141.99 638.034 146.834L620.078 169.591C600.703 193.888 579.743 217.596 562.124 243.206L550.362 234.569L522.788 214.651C520.197 212.695 516.083 210.141 514.324 207.489L614.074 110.724Z"/>
	<path fill="#E8E8EB" transform="scale(0.488281 0.488281)" d="M375.608 132.411L399.705 98.2501L412.645 111.111L476.659 174.268L500.988 198.288C503.978 201.373 507.561 204.583 510.106 208.026L510.01 208.54L473.516 234.721L462.984 242.453L375.608 132.411Z"/>
	<path fill="#250825" transform="scale(0.488281 0.488281)" d="M412.645 111.111L413.228 110.755C415.809 109.313 546.708 109.973 560.18 109.985L593.102 109.989C599.519 109.977 607.909 108.972 614.074 110.724L514.324 207.489C513.1 208.203 512.169 208.731 510.695 208.297L510.106 208.026C507.561 204.583 503.978 201.373 500.988 198.288L476.659 174.268L412.645 111.111Z"/>
	<path fill="#DF2E15" transform="scale(0.488281 0.488281)" d="M510.106 208.026L510.695 208.297C512.169 208.731 513.1 208.203 514.324 207.489C516.083 210.141 520.197 212.695 522.788 214.651L550.362 234.569L562.124 243.206C568.29 248.162 574.538 253.778 581.227 257.959L538.389 322.963C536.534 327.771 532.467 332.532 529.551 336.816L513.956 359.407L511.548 363.604L483.641 320.973L442.211 257.753L462.984 242.453L473.516 234.721L510.01 208.54L510.106 208.026Z"/>
	<path fill="#5CA07F" transform="scale(0.488281 0.488281)" d="M462.984 242.453L473.516 234.721C482.707 241.938 490.473 251.838 498.834 260.058L483.641 320.973L442.211 257.753L462.984 242.453Z"/>
	<path fill="#B31916" transform="scale(0.488281 0.488281)" d="M510.106 208.026L510.695 208.297C512.169 208.731 513.1 208.203 514.324 207.489C516.083 210.141 520.197 212.695 522.788 214.651L550.362 234.569L562.124 243.206C568.29 248.162 574.538 253.778 581.227 257.959L538.389 322.963C536.534 327.771 532.467 332.532 529.551 336.816L513.956 359.407C513.57 356.203 513.827 352.785 513.862 349.556L513.957 332.725L513.936 253.029C513.946 239.072 514.683 224.693 513.89 210.78C513.85 210.073 513.638 209.62 513.25 209.042L510.01 208.54L510.106 208.026Z"/>
	<path fill="#5CA07F" transform="scale(0.488281 0.488281)" d="M550.362 234.569L562.124 243.206C568.29 248.162 574.538 253.778 581.227 257.959L538.389 322.963L524.662 260.976C525.094 259.167 528.236 256.553 529.546 255.144C536.076 248.115 542.88 240.558 550.362 234.569Z"/>
	<path fill="#FBB50A" transform="scale(0.488281 0.488281)" d="M491.311 406.108C493.415 402.9 495.594 399.813 498.008 396.829C499.445 395.053 502.358 392.605 503.161 390.565L364.611 293.388L383.338 268.254L336.157 256.801C336.156 253.526 337.598 249.252 338.371 246.006L343.044 226.272L360.529 154.583L382.307 186.527L469.745 318.613L492.481 352.918C498.379 362.016 504.111 372.058 511.012 380.4L664.143 152.12L684.071 253.452C680.439 255.392 675.508 256.434 671.567 257.759L641.335 267.727C642.38 270.432 645.693 273.542 647.521 275.934L660.508 293.096L485.176 415.887C486.646 412.393 489.172 409.216 491.311 406.108Z"/>
	<path fill="#5CA07F" transform="scale(0.488281 0.488281)" d="M850.545 247.501C851.37 250.389 850.931 254.189 850.932 257.216L850.936 277.26L850.904 360.57L850.905 733.742L767.982 733.52L768.071 738.921L768.014 781.881L768.013 800.539L766.942 800.512L766.497 538.123L766.46 460.362C766.454 440.927 765.974 421.438 767.827 402.068C769.764 381.811 774.319 361.182 781.307 342.062C792.42 311.652 807.901 282.181 832.343 260.34C837.758 255.502 843.924 250.573 850.545 247.501Z"/>
	<path fill="#366454" transform="scale(0.488281 0.488281)" d="M766.965 924.095L501.563 924.048L501.2 429.275L684.748 299.781L671.514 279.952L707.522 267.001L689.465 175.532L731.818 194.232L803.422 226.13L839.869 241.776C842.519 242.932 848.639 244.722 850.245 246.955L850.545 247.501C843.924 250.573 837.758 255.502 832.343 260.34C807.901 282.181 792.42 311.652 781.307 342.062C774.319 361.182 769.764 381.811 767.827 402.068C765.974 421.438 766.454 440.927 766.46 460.362L766.497 538.123L766.942 800.512L766.965 924.095Z"/>
	<path fill="#43184D" transform="scale(0.488281 0.488281)" d="M522.927 803.005C523.387 808.854 524.509 813.938 529.331 817.909C532.711 820.692 537.381 822.252 541.75 821.7C546.845 821.056 550.702 818.264 553.75 814.245L555.177 812.113C554.916 814.368 554.513 816.231 553.39 818.227C551.059 822.373 547.08 824.873 542.563 826.053C538.249 827.18 533.446 826.908 529.575 824.539C525.584 822.096 522.793 817.615 521.75 813.095C520.906 809.436 520.905 806.293 522.927 803.005Z"/>
	<path fill="#4B3465" transform="scale(0.488281 0.488281)" d="M555.196 522.991C555.4 524.942 555.261 526.489 554.323 528.234C551.807 532.917 546.737 536.627 541.669 538.056C537.382 539.265 532.075 538.709 528.25 536.394C524.603 534.187 521.777 530.06 520.839 525.918C519.985 522.151 520.489 518.096 522.558 514.804C522.86 520.397 523.675 525.232 528.026 529.233C531.392 532.329 535.681 533.913 540.25 533.74C544.957 533.562 549.284 531.233 552.25 527.607L555.196 522.991Z"/>
	<path fill="#43184D" transform="scale(0.488281 0.488281)" d="M522.516 658.949C522.567 664.462 523.585 668.904 527.75 672.908C531.213 676.236 535.957 678.251 540.786 678.02C545.071 677.816 549.252 675.286 552.026 672.115C553.283 670.679 554.276 669.065 555.261 667.438L555.247 667.851C554.863 672.376 552.107 676.889 548.5 679.576C545.076 682.128 540.546 683.9 536.258 683.186L535.5 683.048C533.476 682.694 531.483 682.181 529.678 681.163C525.609 678.867 521.865 674.303 520.749 669.732C519.902 666.258 520.604 661.935 522.516 658.949Z"/>
	<path fill="#F18100" transform="scale(0.488281 0.488281)" d="M522.516 658.949C524.429 653.712 527.02 649.633 532.328 647.225C536.779 645.206 541.253 644.725 545.83 646.575C550.102 648.3 553.372 651.759 555.083 656C556.421 659.316 556.293 662.312 555.583 665.75L555.261 667.438C554.276 669.065 553.283 670.679 552.026 672.115C549.252 675.286 545.071 677.816 540.786 678.02C535.957 678.251 531.213 676.236 527.75 672.908C523.585 668.904 522.567 664.462 522.516 658.949Z"/>
	<path fill="#DF2E15" transform="scale(0.488281 0.488281)" d="M536.949 653.072C538.789 652.987 540.475 652.844 542.25 653.413C544.631 654.175 546.24 655.596 547.35 657.831C548.466 660.078 548.544 662.693 547.606 665.03C546.62 667.489 544.348 668.967 542.035 670.008C540.729 670.053 539.216 670.211 537.941 669.882C535.166 669.167 532.865 667.592 531.552 664.991C530.407 662.723 530.37 660.471 531.285 658.112C532.25 655.621 534.624 654.106 536.949 653.072Z"/>
	<path fill="#F18100" transform="scale(0.488281 0.488281)" d="M522.927 803.005C525.195 797.44 527.388 792.622 533.295 790.016L534.75 789.446L535.432 789.179C538.597 788.025 542.379 788.31 545.5 789.41L546.196 789.643C549.997 790.967 553.337 794.067 554.981 797.75C557.202 802.725 556.815 806.369 555.347 811.371L555.177 812.113L553.75 814.245C550.702 818.264 546.845 821.056 541.75 821.7C537.381 822.252 532.711 820.692 529.331 817.909C524.509 813.938 523.387 808.854 522.927 803.005Z"/>
	<path fill="#DF2E15" transform="scale(0.488281 0.488281)" d="M536.466 796.556C538.292 796.444 540.416 796.166 542.177 796.77C543.838 797.341 545.706 798.282 546.515 799.909L546.75 800.407C547.874 802.538 548.685 804.864 547.872 807.31C546.813 810.497 544.816 811.751 542.066 813.349C540.689 813.468 539.333 813.585 537.965 813.32C535.313 812.805 532.841 811.382 531.464 808.968C530.308 806.939 530.404 804.613 530.97 802.429C531.704 799.597 534.056 797.923 536.466 796.556Z"/>
	<path fill="#F18100" transform="scale(0.488281 0.488281)" d="M522.558 514.804C524.219 509.38 525.927 504.879 531.246 502.056C532.89 501.184 534.435 500.759 536.25 500.437L536.966 500.305C541.205 499.566 545.181 500.271 548.687 502.809C552.734 505.738 555.405 509.798 556.145 514.769C556.553 517.505 555.822 520.336 555.196 522.991L552.25 527.607C549.284 531.233 544.957 533.562 540.25 533.74C535.681 533.913 531.392 532.329 528.026 529.233C523.675 525.232 522.86 520.397 522.558 514.804Z"/>
	<path fill="#DF2E15" transform="scale(0.488281 0.488281)" d="M536.528 507.57L540.5 507.415C543.106 507.614 545.406 509.577 546.851 511.634C548.022 513.3 548.436 516.368 547.874 518.312C546.82 521.958 545.05 523.456 541.787 525.245C540.437 525.514 538.862 525.563 537.5 525.343C535.047 524.947 532.949 523.345 531.618 521.298C530.185 519.094 530.002 516.267 530.63 513.75C531.323 510.969 534.185 508.902 536.528 507.57Z"/>
	<path fill="#FBB50A" transform="scale(0.488281 0.488281)" d="M589.947 454.047L589.989 431.648L719.626 431.463L719.568 454.193L589.947 454.047Z"/>
	<path fill="#E8E8EB" transform="scale(0.488281 0.488281)" d="M589.947 454.047L719.568 454.193L719.486 471.128L719.506 485.029L719.502 513.828C719.494 519.839 720.164 526.851 718.787 532.681C717.537 537.98 715.04 542.66 711.237 546.565C707.185 550.724 701.845 553.174 696.745 555.768L675.12 566.288C668.869 569.281 659.666 575.281 652.804 575.262C650.751 575.256 648.667 575.063 646.727 574.362C640.129 571.978 633.789 567.875 627.574 564.593C618.216 559.652 605.935 555.315 598.497 547.747C594.939 544.127 592.236 539.883 590.859 534.969C589.124 528.778 589.778 521.412 589.786 515L589.872 484.969L589.855 471.073L589.947 454.047Z"/>
	<path fill="#FBB50A" transform="scale(0.488281 0.488281)" d="M589.855 471.073L719.486 471.128L719.506 485.029L589.872 484.969L589.855 471.073Z"/>
	<path fill="#DF2E15" transform="scale(0.488281 0.488281)" d="M589.947 454.047L719.568 454.193L719.486 471.128L589.855 471.073L589.947 454.047Z"/>
	<path fill="#366454" transform="scale(0.488281 0.488281)" d="M173.889 276.712L173.565 245.871L336.967 174.684L314.436 270.137C318.822 271.941 323.717 272.783 328.309 273.943L353.05 279.768L339.558 301.191C344.569 305.856 351.256 309.592 356.985 313.384L378.146 327.869L468.259 390.19L483.75 400.984C486.206 402.753 488.522 404.881 491.311 406.108C489.172 409.216 486.646 412.393 485.176 415.887C482.757 418.745 481.682 422.475 481.412 426.163C480.908 433.053 481.177 440.129 481.157 447.04L481.079 484.604L480.976 602.778L480.974 815.387L481.127 924.043L255.201 923.961L255.029 803.471C254.518 801.913 254.896 798.886 254.872 797.16L254.943 747.137L254.992 730.544L173.894 730.558L173.889 276.712Z"/>
	<path fill="#5CA07F" transform="scale(0.488281 0.488281)" d="M173.889 276.712L173.978 247.291C182.309 252.971 190.388 259.04 197.406 266.327C216.224 285.869 228.831 310.746 237.914 336.06C242.507 348.859 246.414 361.676 248.951 375.05C251.188 386.847 253.183 398.653 254.193 410.63C255.499 426.116 254.996 441.904 254.997 457.437L254.986 528.744L254.992 730.544L173.894 730.558L173.889 276.712Z"/>
</svg>
