<?xml version="1.0" encoding="utf-8" ?>
<svg xmlns="http://www.w3.org/2000/svg" xmlns:xlink="http://www.w3.org/1999/xlink" width="500" height="500">
	<path fill="#F35A39" transform="scale(0.488281 0.488281)" d="M-0 -0L1024 0L1024 1024L-0 1024L0 -0Z"/>
	<path fill="#E53B34" transform="scale(0.488281 0.488281)" d="M921.963 342.648C924.443 345.487 925.862 349.371 927.324 352.803C931.672 363.003 934.648 373.503 936.063 384.5C936.469 387.652 937.114 391.327 936.864 394.491C936.76 395.809 936.313 396.239 935.551 397.278C932.145 386.895 929.641 376.345 925.857 366.041C924.609 362.643 923.532 359.083 921.798 355.897C921.394 351.665 922.218 347.037 921.963 342.648Z"/>
	<path fill="#E53B34" transform="scale(0.488281 0.488281)" d="M882.498 266.357C885.568 269.454 888.012 273.055 890.613 276.538C899.589 288.56 906.043 301.139 912.287 314.72C912.938 316.136 912.947 317.149 912.804 318.689C911.202 316.713 909.658 314.549 907.861 312.75C905.019 309.904 901.977 307.622 899.456 304.435C897.101 304.206 894.28 302.309 892.085 301.349L882.931 297.732C882.442 293.146 882.745 288.386 882.653 283.768C882.608 281.542 882.169 278.948 883.207 276.922C881.837 274.319 882.481 269.354 882.498 266.357Z"/>
	<path fill="#0B8C88" transform="scale(0.488281 0.488281)" d="M882.931 297.732C882.442 293.146 882.745 288.386 882.653 283.768C882.608 281.542 882.169 278.948 883.207 276.922L899.456 304.435C897.101 304.206 894.28 302.309 892.085 301.349L882.931 297.732Z"/>
	<path fill="#232F52" transform="scale(0.488281 0.488281)" d="M854.069 241.992L854.883 242.187C857.498 242.762 860.808 242.371 863.491 242.353L882.483 242.205L882.498 266.357C882.481 269.354 881.837 274.319 883.207 276.922C882.169 278.948 882.608 281.542 882.653 283.768C882.745 288.386 882.442 293.146 882.931 297.732C882.933 300.532 882.137 311.057 883.55 312.913L883.081 313.076L882.799 313.664C882.392 314.662 882.397 315.431 882.355 316.492C880.22 317.662 858.461 316.866 854.32 316.907L854.084 263.607L854.069 241.992Z"/>
	<path fill="#E53B34" transform="scale(0.488281 0.488281)" d="M137.754 825.498C140.316 826.649 142.796 827.761 145.5 828.545L146.296 828.786C150.674 830.034 155.789 829.489 160.314 829.481L194.422 829.39C199.387 829.376 205.537 828.7 210.358 829.667L245.878 859.517C233.359 860.647 220.383 859.982 207.81 859.98C199.005 859.979 189.425 860.731 180.706 859.645L179.75 859.522C175.095 858.957 170.813 857.878 166.494 856.008C152.78 850.071 143.073 839.314 137.754 825.498Z"/>
	<path fill="#0B1938" transform="scale(0.488281 0.488281)" d="M882.931 297.732L892.085 301.349C894.28 302.309 897.101 304.206 899.456 304.435C901.977 307.622 905.019 309.904 907.861 312.75C909.658 314.549 911.202 316.713 912.804 318.689C917.462 326.269 920.503 333.847 921.963 342.648C922.218 347.037 921.394 351.665 921.798 355.897C920.491 359.884 919.593 363.89 917.947 367.772C912.881 379.718 902.621 390.081 891.064 395.934L882.488 399.369L882.483 384.286L882.502 355.959L883.141 346.49C881.827 344.447 882.434 340.07 882.679 337.655L883.081 313.076L883.55 312.913C882.137 311.057 882.933 300.532 882.931 297.732Z"/>
	<path fill="#7B8D9E" transform="scale(0.488281 0.488281)" d="M883.55 312.913C894.382 318.464 902.406 325.258 906.324 337.217C908.098 342.633 908.442 347.87 907.687 353.5L907.559 354.498C906.185 364.899 900.266 372.891 892.1 379.123C889.133 381.387 885.993 383.029 882.483 384.286L882.502 355.959L883.141 346.49C881.827 344.447 882.434 340.07 882.679 337.655L883.081 313.076L883.55 312.913Z"/>
	<path fill="#0B1938" transform="scale(0.488281 0.488281)" d="M882.679 337.655C885.72 336.527 889.04 335.773 892.124 337.315C894.331 338.418 895.682 340.343 896.353 342.656C896.981 344.822 896.529 347.925 895.304 349.808C894.265 351.404 892.777 352.839 890.887 353.332C889.247 353.759 887.522 353.287 886.215 352.25C884.434 350.838 883.88 348.557 883.141 346.49C881.827 344.447 882.434 340.07 882.679 337.655Z"/>
	<path fill="#232F52" transform="scale(0.488281 0.488281)" d="M854.32 316.907C858.461 316.866 880.22 317.662 882.355 316.492C882.397 315.431 882.392 314.662 882.799 313.664L883.081 313.076L882.679 337.655C882.434 340.07 881.827 344.447 883.141 346.49L882.502 355.959L882.483 384.286L882.488 399.369L882.506 427.84C882.512 433.71 882.76 439.637 882.012 445.467C880.047 446.66 875.793 446.07 873.497 446.075C867.119 446.091 860.366 446.532 854.027 445.953C853.074 438.804 853.964 430.406 854.019 423.155L854.369 379.128L854.181 356.955L854.32 316.907Z"/>
	<path fill="#1A5B93" transform="scale(0.488281 0.488281)" d="M854.32 316.907C858.461 316.866 880.22 317.662 882.355 316.492C882.397 315.431 882.392 314.662 882.799 313.664L883.081 313.076L882.679 337.655C882.434 340.07 881.827 344.447 883.141 346.49L882.502 355.959L854.449 355.89C854.472 363.419 855.21 371.688 854.369 379.128L854.181 356.955L854.32 316.907Z"/>
	<path fill="#F7B635" transform="scale(0.488281 0.488281)" d="M811.695 287.415L854.084 263.607L854.32 316.907L854.181 356.955L809.618 357.142C804.134 357.167 797.263 356.451 791.91 357.281L791.987 330.026L791.987 298.861L811.695 287.415Z"/>
	<path fill="#E53B34" transform="scale(0.488281 0.488281)" d="M926.772 772.034L927.222 772.454C929.54 774.503 932.229 776.069 934.454 778.25C940.832 784.503 945.098 793.71 945.849 802.594C947.116 817.585 946.41 833.374 936.237 845.377C929.052 853.853 918.877 859.956 907.655 860.836C900.108 861.428 892.184 860.977 884.603 860.973L841.041 860.922L797.797 860.868L780.503 860.681C777.14 860.589 773.634 860.666 770.352 859.881L800.136 834.025L799.948 833.306L801.599 832.879C810.488 831.581 820.626 832.439 829.638 832.444L884.303 832.522L898.765 832.524C901.454 832.518 904.37 832.737 907.017 832.188C911.539 831.249 915.85 828.575 919.221 825.488C922.487 822.496 924.956 818.82 926.155 814.522C927.27 810.528 926.945 805.931 926.945 801.813C926.944 792.321 926.106 782.378 926.708 772.958L926.772 772.034Z"/>
	<defs>
		<linearGradient id="gradient_0" gradientUnits="userSpaceOnUse" x1="795.50836" y1="767.68542" x2="924.07196" y2="817.1134">
			<stop offset="0" stop-color="#F4321C"/>
			<stop offset="1" stop-color="#D62829"/>
		</linearGradient>
	</defs>
	<path fill="url(#gradient_0)" transform="scale(0.488281 0.488281)" d="M887.703 748.535C897.096 747.653 907.183 747.001 915.168 752.829L915.646 753.163C921.896 757.638 925.214 764.71 926.772 772.034L926.708 772.958C926.106 782.378 926.944 792.321 926.945 801.813C926.945 805.931 927.27 810.528 926.155 814.522C924.956 818.82 922.487 822.496 919.221 825.488C915.85 828.575 911.539 831.249 907.017 832.188C904.37 832.737 901.454 832.518 898.765 832.524L884.303 832.522L829.638 832.444C820.626 832.439 810.488 831.581 801.599 832.879L801.827 793.929L801.418 793.846L801.505 773.951C801.759 765.58 800.942 756.843 801.872 748.546L887.703 748.535Z"/>
	<path fill="#EBD0C6" transform="scale(0.488281 0.488281)" d="M801.505 773.951C803.842 773.652 806.461 773.472 808.691 772.706C814.164 770.828 819.653 765.915 825.75 768.859C826.03 769.239 826.407 769.565 826.589 770C827.017 771.021 826.651 774.008 826.663 775.297L826.637 798.926C823.554 798.975 818.903 799.502 815.975 798.651C813.977 798.07 812.309 796.507 810.5 795.531C807.78 794.063 804.851 793.881 801.827 793.929L801.418 793.846L801.505 773.951Z"/>
	<path fill="#088DB8" transform="scale(0.488281 0.488281)" d="M887.179 765.602C892.564 765.436 897.439 765.765 901.957 769.109C906.538 772.501 908.972 777.841 909.63 783.422C910.316 789.235 910.284 797.781 906.396 802.509C902.948 806.703 897.464 808.431 892.258 809.083L887.921 808.801C881.275 807.964 876.285 804.738 872.351 799.464C869.09 795.092 867.485 789.519 868.31 784.109L868.449 783.25C868.956 780.004 870.029 777.023 871.889 774.287C875.647 768.76 880.89 766.814 887.179 765.602Z"/>
	<path fill="#5ED1D8" transform="scale(0.488281 0.488281)" d="M889.453 769.705C890.564 769.537 890.058 769.574 891.241 769.566C892.265 769.56 893.974 769.305 894.67 770.003C893.325 771.375 891.742 772.659 890 773.485L889.392 772.901L888.736 773.207L889.197 773.85C889.252 775.868 886.526 779.718 885.819 781.874C884.399 786.208 883.884 790.627 883.289 795.129C883.026 797.117 883.054 800.778 881.842 802.294C879.534 801.526 878.238 800.011 876.574 798.328L876.48 788.422L877.57 784L877.25 783.517C875.151 789.084 874.543 792.693 875.26 798.555C873.589 796.27 872.043 793.459 871.511 790.648L871.398 790L871.149 788.672C870.572 784.637 872.484 779.729 874.935 776.573C875.992 775.212 880.005 771.046 881.598 770.596C883.865 769.956 887.056 769.994 889.453 769.705Z"/>
	<path fill="#11C0B0" transform="scale(0.488281 0.488281)" d="M650.031 856.4C655.798 854.7 661.35 852.01 666.781 849.445L690.999 837.138C695.226 846.626 700.348 852.903 710.295 856.6C713.024 857.615 715.872 858.116 718.75 858.48L719.651 858.6C724.65 859.214 729.872 858.936 734.904 858.954L761.884 859.224C764.089 859.292 768.127 858.753 770.046 859.831C752.199 873.414 734.055 886.292 714.516 897.386C671.953 921.553 622.878 937.907 574.423 944.25C541.046 948.619 506.818 950.164 473.226 947.403C461.025 946.4 448.823 944.456 436.764 942.406C367.819 930.688 301.961 902.403 246.479 859.754C249.25 859.036 252.9 859.47 255.768 859.459L275.047 859.277L378.356 858.023L378.751 858.055C381.957 860.425 386.252 861.912 389.94 863.44C401.931 868.409 414.528 872.413 427 875.999C441.094 880.051 455.673 882.216 470.223 883.811C505.391 887.668 541.628 886.779 576.428 880.172C590.584 877.484 604.744 873.415 618.426 868.91C628.961 865.441 640.305 861.77 650.031 856.4Z"/>
	<path fill="#11C0B0" transform="scale(0.488281 0.488281)" d="M882.488 399.369L891.064 395.934C902.621 390.081 912.881 379.718 917.947 367.772C919.593 363.89 920.491 359.884 921.798 355.897C923.532 359.083 924.609 362.643 925.857 366.041C929.641 376.345 932.145 386.895 935.551 397.278L935.922 399.434C938.828 408.767 940.495 418.612 942.171 428.239C946.182 451.281 948.444 473.386 948.615 496.781L948.066 540.4C944.727 595.251 930.04 649.497 904.5 698.19C899.268 708.167 893.695 719.259 886.762 728.147C885.573 722.568 884.659 716.945 882.899 711.503C878.43 697.69 869.965 686.276 859.861 676.104C846.28 664.019 830.587 656.034 812.359 654.142L801.908 654.045L799.507 654.009L799.543 637.123L798.111 636.842L799.476 636.445C800.219 634.394 799.658 630.363 799.598 628.127L798.518 627.812L799.034 627.202C799.218 625.972 799.337 624.758 799.885 623.625L800.196 623.089L799.918 622.184L801.037 622.434C802.538 623.453 804.818 623.174 806.581 623.201L806.966 572.648L806.772 565.39L805.765 564.765L806.75 564.151C807.82 559.391 807.028 552.948 807.02 548.022L806.937 512.32C806.876 510.347 806.793 508.453 806.473 506.504C804.886 503.533 805.292 500.088 803.89 497.062C803.891 496.507 803.916 496.355 803.771 495.739C802.829 491.731 800.185 487.304 798.487 483.531C792.424 470.06 786.386 457.171 777.782 445.117C775.027 441.258 772.163 437.081 768.154 434.412C766.981 433.631 766.014 432.739 764.995 431.769L853.25 444.175L853.501 444.909C853.807 445.773 853.609 445.483 854.027 445.953C860.366 446.532 867.119 446.091 873.497 446.075C875.793 446.07 880.047 446.66 882.012 445.467C882.76 439.637 882.512 433.71 882.506 427.84L882.488 399.369Z"/>
	<path fill="#0B8C88" transform="scale(0.488281 0.488281)" d="M882.488 399.369L891.064 395.934C902.621 390.081 912.881 379.718 917.947 367.772C919.593 363.89 920.491 359.884 921.798 355.897C923.532 359.083 924.609 362.643 925.857 366.041C929.641 376.345 932.145 386.895 935.551 397.278L935.922 399.434L935.55 400.032C935.116 400.75 934.82 401.477 934.5 402.25C927.527 419.095 915.327 432.869 898.344 439.824L886.267 443.812C884.817 444.232 883.215 444.517 882.012 445.467C882.76 439.637 882.512 433.71 882.506 427.84L882.488 399.369Z"/>
	<path fill="#0FAAA0" transform="scale(0.488281 0.488281)" d="M764.995 431.769L853.25 444.175L853.501 444.909C853.807 445.773 853.609 445.483 854.027 445.953C860.366 446.532 867.119 446.091 873.497 446.075C875.793 446.07 880.047 446.66 882.012 445.467C883.215 444.517 884.817 444.232 886.267 443.812C893.204 475.462 894.999 509.032 891.625 541.25C891.127 546 891.009 551.006 890.101 555.687C884.522 551.269 878.917 546.385 872.566 543.072C868.544 534.239 864.354 526.971 857.786 519.754C847.161 508.08 832.557 500.496 817.042 498.035C812.722 497.35 808.255 497.266 803.89 497.062C803.891 496.507 803.916 496.355 803.771 495.739C802.829 491.731 800.185 487.304 798.487 483.531C792.424 470.06 786.386 457.171 777.782 445.117C775.027 441.258 772.163 437.081 768.154 434.412C766.981 433.631 766.014 432.739 764.995 431.769Z"/>
	<path fill="#EBD0C6" transform="scale(0.488281 0.488281)" d="M803.89 497.062C808.255 497.266 812.722 497.35 817.042 498.035C832.557 500.496 847.161 508.08 857.786 519.754C864.354 526.971 868.544 534.239 872.566 543.072C878.917 546.385 884.522 551.269 890.101 555.687L901.313 566.047C899.717 597.195 891.483 625.276 875.824 652.287C871.05 660.523 865.433 668.397 859.861 676.104C846.28 664.019 830.587 656.034 812.359 654.142L801.908 654.045L799.507 654.009L799.543 637.123L798.111 636.842L799.476 636.445C800.219 634.394 799.658 630.363 799.598 628.127L798.518 627.812L799.034 627.202C799.218 625.972 799.337 624.758 799.885 623.625L800.196 623.089L799.918 622.184L801.037 622.434C802.538 623.453 804.818 623.174 806.581 623.201L806.966 572.648L806.772 565.39L805.765 564.765L806.75 564.151C807.82 559.391 807.028 552.948 807.02 548.022L806.937 512.32C806.876 510.347 806.793 508.453 806.473 506.504C804.886 503.533 805.292 500.088 803.89 497.062Z"/>
	<path fill="#C3252D" transform="scale(0.488281 0.488281)" d="M847.073 572.127L865.883 572.095L865.73 573.266C863.351 590.145 855.311 602.929 841.816 613.13C837.279 616.014 832.615 617.962 827.688 620.058C840.68 606.734 845.611 590.264 847.073 572.127Z"/>
	<path fill="#C3252D" transform="scale(0.488281 0.488281)" d="M824.692 513.108C832.289 515.304 839.338 518.76 845.452 523.829C858.851 534.937 864.265 549.058 865.948 565.877L847.175 565.794C846.865 552.501 843.254 538.451 836.108 527.156C832.863 522.026 828.775 517.568 824.692 513.108Z"/>
	<path fill="#C3252D" transform="scale(0.488281 0.488281)" d="M806.966 572.648L842.478 572.607C840.923 588.177 837.235 605.626 824.374 616.052C819.387 620.094 813.04 622.847 806.581 623.201L806.966 572.648Z"/>
	<path fill="#C3252D" transform="scale(0.488281 0.488281)" d="M806.937 512.32C816.299 513.085 822.651 517.521 828.542 524.5C838.005 535.708 841.021 551.353 842.417 565.504L806.772 565.39L805.765 564.765L806.75 564.151C807.82 559.391 807.028 552.948 807.02 548.022L806.937 512.32Z"/>
	<path fill="#C3252D" transform="scale(0.488281 0.488281)" d="M803.89 497.062C808.255 497.266 812.722 497.35 817.042 498.035C832.557 500.496 847.161 508.08 857.786 519.754C864.354 526.971 868.544 534.239 872.566 543.072C878.396 562.449 878.465 580.946 868.721 599.059C859.684 615.858 844.453 629.266 826 634.607C821.494 635.911 817.031 636.759 812.35 637.068L799.543 637.123L798.111 636.842L799.476 636.445C800.219 634.394 799.658 630.363 799.598 628.127C817.928 628.059 833.5 624.689 847.756 612.517C860.096 601.981 867.369 588.078 868.709 571.925C869.981 556.593 864.638 540.375 854.631 528.695C842.131 514.107 825.147 508.023 806.473 506.504C804.886 503.533 805.292 500.088 803.89 497.062Z"/>
	<path fill="#0B8C88" transform="scale(0.488281 0.488281)" d="M872.566 543.072C878.917 546.385 884.522 551.269 890.101 555.687L901.313 566.047C899.717 597.195 891.483 625.276 875.824 652.287C871.05 660.523 865.433 668.397 859.861 676.104C846.28 664.019 830.587 656.034 812.359 654.142L801.908 654.045L799.507 654.009L799.543 637.123L812.35 637.068C817.031 636.759 821.494 635.911 826 634.607C844.453 629.266 859.684 615.858 868.721 599.059C878.465 580.946 878.396 562.449 872.566 543.072Z"/>
	<path fill="#0B1938" transform="scale(0.488281 0.488281)" d="M799.543 637.123L812.35 637.068L812.359 654.142L801.908 654.045L799.507 654.009L799.543 637.123Z"/>
	<defs>
		<linearGradient id="gradient_1" gradientUnits="userSpaceOnUse" x1="629.32227" y1="888.65509" x2="471.85989" y2="733.83911">
			<stop offset="0" stop-color="#00123C"/>
			<stop offset="1" stop-color="#133563"/>
		</linearGradient>
	</defs>
	<path fill="url(#gradient_1)" transform="scale(0.488281 0.488281)" d="M384.052 687.271C387.314 690.345 390.523 693.47 394.526 695.571C395.72 702.63 406.053 708.309 411.132 713.04L416.038 717.044L416.021 707.036L424.213 706.91L539.567 707.537L680.027 707.448C686.903 707.445 723.044 706.538 725.909 707.914C722.757 716.013 720.755 724.608 719.345 733.179L719.405 747.528C721.515 748.553 724.802 748.268 727.146 748.364L801.59 748.485L801.872 748.546C800.942 756.843 801.759 765.58 801.505 773.951L801.418 793.846L801.827 793.929L801.599 832.879L799.948 833.306L800.136 834.025L770.352 859.881L770.046 859.831C768.127 858.753 764.089 859.292 761.884 859.224L734.904 858.954C729.872 858.936 724.65 859.214 719.651 858.6L718.75 858.48C715.872 858.116 713.024 857.615 710.295 856.6C700.348 852.903 695.226 846.626 690.999 837.138L666.781 849.445C661.35 852.01 655.798 854.7 650.031 856.4C640.305 861.77 628.961 865.441 618.426 868.91C604.744 873.415 590.584 877.484 576.428 880.172C541.628 886.779 505.391 887.668 470.223 883.811C455.673 882.216 441.094 880.051 427 875.999C414.528 872.413 401.931 868.409 389.94 863.44C386.252 861.912 381.957 860.425 378.751 858.055L405.256 857.974C404.533 856.163 401.901 854.826 400.348 853.694L384.697 842.636L365.983 828.833L371.172 826.044C376.957 822.305 382.024 816.227 383.458 809.38L383.585 808.75C384.139 806.283 384.08 803.996 384.042 801.481C383.483 799.76 383.895 796.509 383.89 794.646L383.904 774.89L384.052 687.271Z"/>
	<path fill="#ED7E2A" transform="scale(0.488281 0.488281)" d="M670.086 813.252L677.433 822.324L660.606 822.316C663.457 818.982 666.81 816.154 670.086 813.252Z"/>
	<path fill="#E5963A" transform="scale(0.488281 0.488281)" d="M424.612 792.738L424.855 788.75C427.089 787.793 431.146 788.327 433.595 788.314L451.781 787.989L435.355 803.33C431.976 806.496 428.657 810.06 424.875 812.741L424.842 805.615C424.865 801.375 425.154 796.942 424.612 792.738Z"/>
	<path fill="#0B1938" transform="scale(0.488281 0.488281)" d="M416.452 780.991L423.941 780.953L424.612 792.738C425.154 796.942 424.865 801.375 424.842 805.615C424.405 806.572 424.395 806.589 424.431 807.551L424.048 831C422.797 831.721 421.291 831.759 419.882 831.942L416.5 831.946L416.031 831.25L416.098 796.953C416.111 791.929 415.482 785.894 416.452 780.991Z"/>
	<path fill="#E5963A" transform="scale(0.488281 0.488281)" d="M533.692 787.469L562.724 787.318L526.945 822.746L498.249 823.005L533.692 787.469Z"/>
	<path fill="#F35A39" transform="scale(0.488281 0.488281)" d="M565.842 807.42L580.35 792.808C581.85 791.306 584.078 788.5 585.861 787.544C586.413 787.248 589.593 787.524 590.352 787.521L605.889 787.442C608.629 787.429 613.325 786.756 615.858 787.56L589.366 814.181L583.189 820.619C582.791 821.037 581.506 822.656 581.077 822.848C580.272 823.207 576.849 822.87 575.824 822.875L557.311 822.965L555.238 822.902L551.75 822.946L551.099 822.25L565.842 807.42Z"/>
	<path fill="#E5963A" transform="scale(0.488281 0.488281)" d="M565.842 807.42L566 822.476C562.585 822.53 558.551 822.197 555.238 822.902L551.75 822.946L551.099 822.25L565.842 807.42Z"/>
	<path fill="#F7B635" transform="scale(0.488281 0.488281)" d="M478.178 787.687L509.193 787.483L509.175 787.779L471.855 823.018L440.857 823.42L478.178 787.687Z"/>
	<path fill="#F35A39" transform="scale(0.488281 0.488281)" d="M664.972 793.671C662.195 796.685 636.945 822.085 635.671 822.526C634.147 823.053 630.169 822.547 628.429 822.555L604.836 822.953L639.743 786.513L665.401 786.512L664.972 793.671Z"/>
	<path fill="#0B8C88" transform="scale(0.488281 0.488281)" d="M690.611 831.548C693.763 832.559 697.032 833.757 700.314 834.261C706.792 835.255 713.787 834.339 720.232 833.485L799.948 833.306L800.136 834.025L770.352 859.881L770.046 859.831C768.127 858.753 764.089 859.292 761.884 859.224L734.904 858.954C729.872 858.936 724.65 859.214 719.651 858.6L718.75 858.48C715.872 858.116 713.024 857.615 710.295 856.6C700.348 852.903 695.226 846.626 690.999 837.138L666.781 849.445C661.35 852.01 655.798 854.7 650.031 856.4C647.361 855.774 644.352 856.206 641.613 856.282L627.25 856.492L577.556 856.42C574.205 856.435 568.709 855.652 565.591 856.511L452.866 856.463C444.185 849.035 435.372 841.246 428.643 831.955L690.611 831.548Z"/>
	<path fill="#F7B635" transform="scale(0.488281 0.488281)" d="M704.912 746.61C709.413 746.5 715.08 746.11 719.405 747.528C721.515 748.553 724.802 748.268 727.146 748.364L801.59 748.485L801.872 748.546C800.942 756.843 801.759 765.58 801.505 773.951L801.418 793.846L801.827 793.929L801.599 832.879L799.948 833.306L720.232 833.485C713.787 834.339 706.792 835.255 700.314 834.261C697.032 833.757 693.763 832.559 690.611 831.548C685.561 829.045 681.692 826.015 677.433 822.324L670.086 813.252C666.617 808.096 665.652 799.673 664.972 793.671L665.401 786.512C665.617 784.413 666.183 782.376 666.678 780.328C668.614 772.877 671.878 767.506 676.862 761.705L684.407 754.976C687.659 752.811 690.927 750.503 694.583 749.072C697.876 747.783 701.453 747.281 704.912 746.61Z"/>
	<path fill="#5ED1D8" transform="scale(0.488281 0.488281)" d="M705.884 774.12C709.813 773.528 713.994 773.843 717.383 776.076C721.441 778.75 723.745 782.716 724.693 787.433C725.556 791.724 724.64 797.448 722.122 801.031C718.828 805.719 714.708 807.863 709.196 808.943C705.243 809.066 701.624 808.355 698.188 806.325C694.224 803.983 691.101 799.832 690.123 795.311C689.188 790.991 690.359 785.705 692.77 782.04C695.955 777.199 700.45 775.324 705.884 774.12Z"/>
	<path fill="#ED7E2A" transform="scale(0.488281 0.488281)" d="M727.146 748.364L801.59 748.485L801.872 748.546C800.942 756.843 801.759 765.58 801.505 773.951L801.418 793.846L801.827 793.929L801.599 832.879L799.948 833.306L720.232 833.485C721.806 832.186 724.189 831.363 726 830.397C728.12 829.267 730.026 827.811 732 826.454C739.514 821.289 745.067 813.306 747.9 804.69C753.586 787.393 747.497 767.052 733.023 755.972C730.628 754.139 723.538 750.929 722.455 748.75L727.146 748.364Z"/>
	<path fill="#FCFCFD" transform="scale(0.488281 0.488281)" d="M801.418 793.846C796.665 794.315 793.531 797.381 789.182 798.616C785.655 799.618 781.544 798.77 778.038 798.099C777.631 793.681 776.798 772.458 778.296 769.294C785.814 766.408 794.602 771.49 801.505 773.951L801.418 793.846Z"/>
	<path fill="#0FAAA0" transform="scale(0.488281 0.488281)" d="M384.052 687.271C387.314 690.345 390.523 693.47 394.526 695.571C395.72 702.63 406.053 708.309 411.132 713.04L416.038 717.044L416.021 707.036L424.213 706.91L424.333 722.027C424.327 724.339 423.892 727.768 424.654 729.916C425.564 736.136 425.109 743.808 424.842 750.137C423.811 751.365 424.309 757.44 423.845 759.5L423.75 760.755C422.426 761.743 420.39 761.272 418.802 761.349C418.083 761.383 418.241 761.438 417.418 761.864L426.7 762.069C428.625 762.503 429.563 762.922 431.25 763.901C432.812 764.808 434.641 765.379 436.253 766.238C440.915 768.721 445.297 771.639 449.09 775.333C450.208 776.422 452.001 777.887 452.655 779.311C452.797 779.622 452.883 780.133 452.949 780.438L426.919 780.525C424.504 780.523 418.438 779.829 416.452 780.991C415.482 785.894 416.111 791.929 416.098 796.953L416.031 831.25L416.5 831.946L419.882 831.942L428.643 831.955C435.372 841.246 444.185 849.035 452.866 856.463L565.591 856.511C568.709 855.652 574.205 856.435 577.556 856.42L627.25 856.492L641.613 856.282C644.352 856.206 647.361 855.774 650.031 856.4C640.305 861.77 628.961 865.441 618.426 868.91C604.744 873.415 590.584 877.484 576.428 880.172C541.628 886.779 505.391 887.668 470.223 883.811C455.673 882.216 441.094 880.051 427 875.999C414.528 872.413 401.931 868.409 389.94 863.44C386.252 861.912 381.957 860.425 378.751 858.055L405.256 857.974C404.533 856.163 401.901 854.826 400.348 853.694L384.697 842.636L365.983 828.833L371.172 826.044C376.957 822.305 382.024 816.227 383.458 809.38L383.585 808.75C384.139 806.283 384.08 803.996 384.042 801.481C383.483 799.76 383.895 796.509 383.89 794.646L383.904 774.89L384.052 687.271Z"/>
	<path fill="#11C0B0" transform="scale(0.488281 0.488281)" d="M416.021 707.036L424.213 706.91L424.333 722.027C424.327 724.339 423.892 727.768 424.654 729.916C425.564 736.136 425.109 743.808 424.842 750.137C423.811 751.365 424.309 757.44 423.845 759.5L423.75 760.755C422.426 761.743 420.39 761.272 418.802 761.349C418.083 761.383 418.241 761.438 417.418 761.864L426.7 762.069C428.625 762.503 429.563 762.922 431.25 763.901C432.812 764.808 434.641 765.379 436.253 766.238C440.915 768.721 445.297 771.639 449.09 775.333C450.208 776.422 452.001 777.887 452.655 779.311C452.797 779.622 452.883 780.133 452.949 780.438L426.919 780.525C424.504 780.523 418.438 779.829 416.452 780.991C415.482 785.894 416.111 791.929 416.098 796.953L416.031 831.25L416.5 831.946L419.882 831.942L428.643 831.955C435.372 841.246 444.185 849.035 452.866 856.463L565.591 856.511C563.675 857.875 561.24 858.359 559 858.987L545.818 862.168C522.74 866.796 500.484 868.991 476.968 868.992C461.604 868.993 446.927 868.282 431.749 865.727C425.076 864.603 418.3 862.962 411.887 860.812C409.823 860.12 407.288 859.464 405.614 858.038C407.278 857.809 408.701 857.585 410.25 856.92C411.476 854.025 410.916 849.282 410.923 846.102L410.947 821.63L410.952 751.476L411.132 713.04L416.038 717.044L416.021 707.036Z"/>
	<path fill="#0B1938" transform="scale(0.488281 0.488281)" d="M416.021 707.036L424.213 706.91L424.333 722.027C424.327 724.339 423.892 727.768 424.654 729.916C425.564 736.136 425.109 743.808 424.842 750.137C423.811 751.365 424.309 757.44 423.845 759.5L423.75 760.755C422.426 761.743 420.39 761.272 418.802 761.349C418.083 761.383 418.241 761.438 417.418 761.864L416.229 761.295L416.038 717.044L416.021 707.036Z"/>
	<path fill="#0B8C88" transform="scale(0.488281 0.488281)" d="M384.052 687.271C387.314 690.345 390.523 693.47 394.526 695.571C395.72 702.63 406.053 708.309 411.132 713.04L410.952 751.476L410.947 821.63L410.923 846.102C410.916 849.282 411.476 854.025 410.25 856.92C408.701 857.585 407.278 857.809 405.614 858.038L405.256 857.974C404.533 856.163 401.901 854.826 400.348 853.694L384.697 842.636L365.983 828.833L371.172 826.044C376.957 822.305 382.024 816.227 383.458 809.38L383.585 808.75C384.139 806.283 384.08 803.996 384.042 801.481C383.483 799.76 383.895 796.509 383.89 794.646L383.904 774.89L384.052 687.271Z"/>
	<path fill="#232F52" transform="scale(0.488281 0.488281)" d="M424.213 706.91L539.567 707.537L680.027 707.448C686.903 707.445 723.044 706.538 725.909 707.914C722.757 716.013 720.755 724.608 719.345 733.179L719.405 747.528C715.08 746.11 709.413 746.5 704.912 746.61C701.453 747.281 697.876 747.783 694.583 749.072C690.927 750.503 687.659 752.811 684.407 754.976L676.862 761.705C671.878 767.506 668.614 772.877 666.678 780.328C662.753 779.82 658.501 780.085 654.538 780.095L635.386 780.145L573.976 780.011L452.949 780.438C452.883 780.133 452.797 779.622 452.655 779.311C452.001 777.887 450.208 776.422 449.09 775.333C445.297 771.639 440.915 768.721 436.253 766.238C434.641 765.379 432.812 764.808 431.25 763.901C429.563 762.922 428.625 762.503 426.7 762.069L417.418 761.864C418.241 761.438 418.083 761.383 418.802 761.349C420.39 761.272 422.426 761.743 423.75 760.755L423.845 759.5C424.309 757.44 423.811 751.365 424.842 750.137C425.109 743.808 425.564 736.136 424.654 729.916C423.892 727.768 424.327 724.339 424.333 722.027L424.213 706.91Z"/>
	<path fill="#ED7E2A" transform="scale(0.488281 0.488281)" d="M567.876 748.042C569.181 749.942 569.666 751.758 570.143 753.994L561.991 753.956L567.876 748.042Z"/>
	<path fill="#ED7E2A" transform="scale(0.488281 0.488281)" d="M548.918 715.262C552.523 714.643 556.421 714.938 560.075 714.936L578.236 714.947L556.875 736.365C555.098 730.91 552.19 725.395 551.544 719.671C551.296 717.477 550.623 716.619 548.918 715.262Z"/>
	<path fill="#E5963A" transform="scale(0.488281 0.488281)" d="M548.918 715.262C550.623 716.619 551.296 717.477 551.544 719.671C552.19 725.395 555.098 730.91 556.875 736.365L543.591 749.582C542.356 750.811 540.55 753.174 539.112 754.039C538.513 754.399 533.847 754.039 532.923 754.039L510.819 754.041C518.048 745.682 526.185 737.976 533.923 730.084C538.69 725.222 543.502 719.332 548.918 715.262Z"/>
	<path fill="#E5963A" transform="scale(0.488281 0.488281)" d="M424.654 729.916C427.305 727.383 438.544 715.264 440.573 714.532C441.851 714.07 445.456 714.54 446.927 714.542L469.623 714.58L424.932 755.995L424.842 750.137C425.109 743.808 425.564 736.136 424.654 729.916Z"/>
	<path fill="#ED7E2A" transform="scale(0.488281 0.488281)" d="M684.407 754.976L668.445 755.036L708.899 714.594L718.52 714.602C718.495 720.445 718.157 726.502 719.016 732.292L719.14 733.082C715.475 738.268 709.629 742.364 704.912 746.61C701.453 747.281 697.876 747.783 694.583 749.072C690.927 750.503 687.659 752.811 684.407 754.976Z"/>
	<path fill="#ED7E2A" transform="scale(0.488281 0.488281)" d="M656.256 714.687L686.309 714.484L645.728 752.38C645.306 752.729 644.539 753.564 644.071 753.75C642.3 754.454 638.635 753.998 636.719 754.001L617.583 754.004L656.256 714.687Z"/>
	<path fill="#F35A39" transform="scale(0.488281 0.488281)" d="M567.876 748.042L592.806 723.426C594.971 721.245 598.696 716.348 601.351 714.986C602.175 714.564 606.046 714.969 607.195 714.965L632.904 714.873L605.951 741.715C602.16 745.496 597.772 751.142 593.252 753.947L570.143 753.994C569.666 751.758 569.181 749.942 567.876 748.042Z"/>
	<path fill="#E5963A" transform="scale(0.488281 0.488281)" d="M495.18 714.689L525.26 714.607L484.45 753.997L454.037 754.1L495.18 714.689Z"/>
	<path fill="#0B8C88" transform="scale(0.488281 0.488281)" d="M570.909 761.468L641.74 761.45L664.028 761.477C668.264 761.488 672.65 761.273 676.862 761.705C671.878 767.506 668.614 772.877 666.678 780.328C662.753 779.82 658.501 780.085 654.538 780.095L635.386 780.145L573.976 780.011C574.066 776.939 574.444 772.892 573.843 769.897C573.287 767.125 571.817 764.204 570.909 761.468Z"/>
	<path fill="#0FAAA0" transform="scale(0.488281 0.488281)" d="M426.7 762.069L570.909 761.468C571.817 764.204 573.287 767.125 573.843 769.897C574.444 772.892 574.066 776.939 573.976 780.011L452.949 780.438C452.883 780.133 452.797 779.622 452.655 779.311C452.001 777.887 450.208 776.422 449.09 775.333C445.297 771.639 440.915 768.721 436.253 766.238C434.641 765.379 432.812 764.808 431.25 763.901C429.563 762.922 428.625 762.503 426.7 762.069Z"/>
	<path fill="#F7B635" transform="scale(0.488281 0.488281)" d="M172.57 596.169L314.485 596.161L319.418 596.367L377.511 596.481L377.471 649.436L377.471 664.25C377.476 667.456 377.295 670.889 377.917 674.037C378.915 679.09 381.353 683 384.052 687.271L383.904 774.89L383.89 794.646C383.895 796.509 383.483 799.76 384.042 801.481C384.08 803.996 384.139 806.283 383.585 808.75L383.458 809.38C382.024 816.227 376.957 822.305 371.172 826.044L365.983 828.833L384.697 842.636L400.348 853.694C401.901 854.826 404.533 856.163 405.256 857.974L378.751 858.055L378.356 858.023L275.047 859.277L255.768 859.459C252.9 859.47 249.25 859.036 246.479 859.754L245.878 859.517L210.358 829.667C205.537 828.7 199.387 829.376 194.422 829.39L160.314 829.481C155.789 829.489 150.674 830.034 146.296 828.786L145.5 828.545C142.796 827.761 140.316 826.649 137.754 825.498C128.764 819.312 123.517 811.945 121.513 801.164L121.641 702.654C122.821 697.489 121.918 690.11 121.926 684.734L122.023 634.194C122.042 626.911 121.113 618.053 122.511 611C123.126 607.896 124.812 604.803 126.903 602.455C131.022 597.83 135.283 596.708 141.167 596.473L172.57 596.169Z"/>
	<path fill="#E53B34" transform="scale(0.488281 0.488281)" d="M318.938 715.132L266.002 750.09L265.989 644.798L318.633 680.587L318.655 680.87C318.561 686.05 317.6 712.277 319.128 714.739L318.938 715.132Z"/>
	<path fill="#E53B34" transform="scale(0.488281 0.488281)" d="M251.583 645.25L252.45 645.133C252.634 645.339 252.894 645.496 253.002 645.75C253.265 646.364 253.003 648.892 253.003 649.733L253.008 665.179L253.031 750.659L223.293 731.274L202.036 717.207L202.074 677.969L251.583 645.25Z"/>
	<path fill="#E3E2E0" transform="scale(0.488281 0.488281)" d="M319.418 596.367L377.511 596.481L377.471 649.436L377.471 664.25C377.476 667.456 377.295 670.889 377.917 674.037C378.915 679.09 381.353 683 384.052 687.271L383.904 774.89L383.89 794.646C383.895 796.509 383.483 799.76 384.042 801.481L309.343 801.082C312.42 800.565 315.942 800.843 319.073 800.833L319.019 780.035L319.393 779.927C318.504 775.812 319.306 770.308 319.303 766.048L319.241 734.3C319.237 727.97 319.581 721.418 318.938 715.132L319.128 714.739C317.6 712.277 318.561 686.05 318.655 680.87L318.633 680.587C319.911 677.703 319.054 670.688 319.062 667.402L319.105 637.557C319.112 631.917 318.864 626.148 319.372 620.528L319.135 620.434C319.77 618.173 319.404 614.985 319.413 612.61L319.418 596.367Z"/>
	<path fill="#ED7E2A" transform="scale(0.488281 0.488281)" d="M319.372 620.528L338.343 620.424C341.261 620.42 345.074 620.015 347.902 620.691C350.484 621.309 353.325 622.984 355.194 624.862C356.877 626.554 358.186 628.864 358.418 631.273C358.983 637.143 358.5 643.514 358.506 649.428L358.527 688.547L358.512 741.808C358.51 750.23 358.953 758.85 358.514 767.25C358.325 770.852 356.392 774.214 353.686 776.546C352.262 777.772 350.406 778.923 348.555 779.338C345.232 780.083 341.254 779.803 337.834 779.831L319.393 779.927C318.504 775.812 319.306 770.308 319.303 766.048L319.241 734.3C319.237 727.97 319.581 721.418 318.938 715.132L319.128 714.739C317.6 712.277 318.561 686.05 318.655 680.87L318.633 680.587C319.911 677.703 319.054 670.688 319.062 667.402L319.105 637.557C319.112 631.917 318.864 626.148 319.372 620.528Z"/>
	<path fill="#E53B34" transform="scale(0.488281 0.488281)" d="M318.655 680.87C323.758 684.085 335.096 689.506 336.621 695.658C337.175 697.896 336.993 700.268 335.725 702.25C332.313 707.581 324.448 711.469 319.128 714.739C317.6 712.277 318.561 686.05 318.655 680.87Z"/>
	<path fill="#FCFCFD" transform="scale(0.488281 0.488281)" d="M172.57 596.169L314.485 596.161L319.418 596.367L319.413 612.61C319.404 614.985 319.77 618.173 319.135 620.434L213.088 620.488L190.741 620.468C188.779 620.458 185.317 619.906 183.596 620.382C182.058 620.808 179.828 622.517 178.689 623.646C176.933 625.388 175.785 627.322 175.363 629.75L175.253 630.36C174.305 636.325 175.024 643.447 175.041 649.516L175.291 692.352L175.181 743.981C175.166 752.195 174.528 761.017 175.319 769.157C175.484 770.855 176.266 772.565 177.25 773.941C179.229 776.706 183.081 779.922 186.591 780.368L319.019 780.035L319.073 800.833C315.942 800.843 312.42 800.565 309.343 801.082L384.042 801.481C384.08 803.996 384.139 806.283 383.585 808.75L383.458 809.38C382.024 816.227 376.957 822.305 371.172 826.044L365.983 828.833L384.697 842.636L400.348 853.694C401.901 854.826 404.533 856.163 405.256 857.974L378.751 858.055L378.356 858.023L275.047 859.277L255.768 859.459C252.9 859.47 249.25 859.036 246.479 859.754L245.878 859.517L210.358 829.667C205.537 828.7 199.387 829.376 194.422 829.39L160.314 829.481C155.789 829.489 150.674 830.034 146.296 828.786L145.5 828.545C142.796 827.761 140.316 826.649 137.754 825.498C128.764 819.312 123.517 811.945 121.513 801.164L121.641 702.654C122.821 697.489 121.918 690.11 121.926 684.734L122.023 634.194C122.042 626.911 121.113 618.053 122.511 611C123.126 607.896 124.812 604.803 126.903 602.455C131.022 597.83 135.283 596.708 141.167 596.473L172.57 596.169Z"/>
	<path fill="#232F52" transform="scale(0.488281 0.488281)" d="M147.171 728.022C148.356 728.033 149.6 728.164 150.75 728.457C152.914 729.007 155.04 730.771 156.134 732.699C157.354 734.851 157.682 737.407 156.836 739.75C155.701 742.897 153.329 744.146 150.464 745.473C148.681 745.548 146.931 745.471 145.25 744.797C143.004 743.896 140.971 741.753 140.232 739.452C139.595 737.47 139.838 734.575 140.816 732.723C142.184 730.133 144.488 728.874 147.171 728.022Z"/>
	<path fill="#232F52" transform="scale(0.488281 0.488281)" d="M148.099 764.097C149.468 764.248 150.997 764.355 152.258 764.952C154.412 765.973 156.253 768.193 156.968 770.451C157.784 773.032 157.636 775.709 156.292 778.08C154.771 780.767 152.228 781.776 149.425 782.654C147.766 782.54 146.037 781.994 144.575 781.203C142.569 780.118 141.047 778.611 140.482 776.355C139.778 773.543 139.883 770.98 141.51 768.5C143.188 765.943 145.181 764.779 148.099 764.097Z"/>
	<path fill="#232F52" transform="scale(0.488281 0.488281)" d="M147.71 618.069C149.418 618.026 151.367 618.182 152.925 618.928C155.205 620.02 156.673 621.765 157.396 624.172C158.096 626.497 157.55 629.535 156.32 631.586C154.778 634.157 152.496 635.204 149.714 635.976C147.893 635.783 146.212 635.589 144.566 634.729C142.429 633.614 140.782 631.802 140.167 629.433C139.586 627.194 139.857 624.756 140.99 622.75C142.554 619.98 144.739 618.904 147.71 618.069Z"/>
	<path fill="#232F52" transform="scale(0.488281 0.488281)" d="M146.511 654.022C148.052 653.947 149.576 653.948 151.081 654.338C153.28 654.908 155.112 656.631 156.246 658.553C157.575 660.802 157.67 663.265 156.994 665.75C156.13 668.928 153.81 670.475 151.062 671.964C149.29 672.224 147.502 672.354 145.75 671.857C143.503 671.218 141.395 669.234 140.489 667.105C139.462 664.693 139.743 662.197 140.675 659.829C141.873 656.783 143.586 655.356 146.511 654.022Z"/>
	<path fill="#232F52" transform="scale(0.488281 0.488281)" d="M147.119 690.512C148.807 690.466 150.821 690.636 152.386 691.321C154.396 692.2 156.583 694.45 157.259 696.553C157.919 698.603 157.689 701.575 156.749 703.531C155.428 706.277 153.13 707.47 150.402 708.504C149.124 708.545 147.437 708.745 146.209 708.355C143.903 707.621 142.02 706.163 140.973 703.969C139.86 701.636 139.44 698.58 140.391 696.127C141.577 693.07 144.27 691.637 147.119 690.512Z"/>
	<path fill="#232F52" transform="scale(0.488281 0.488281)" d="M121.513 801.164L170.009 801.127L249.919 801.092L291.738 801.117C297.229 801.123 303.975 801.908 309.343 801.082L384.042 801.481C384.08 803.996 384.139 806.283 383.585 808.75L383.458 809.38C382.024 816.227 376.957 822.305 371.172 826.044L365.983 828.833L384.697 842.636L400.348 853.694C401.901 854.826 404.533 856.163 405.256 857.974L378.751 858.055L378.356 858.023L275.047 859.277L255.768 859.459C252.9 859.47 249.25 859.036 246.479 859.754L245.878 859.517L210.358 829.667C205.537 828.7 199.387 829.376 194.422 829.39L160.314 829.481C155.789 829.489 150.674 830.034 146.296 828.786L145.5 828.545C142.796 827.761 140.316 826.649 137.754 825.498C128.764 819.312 123.517 811.945 121.513 801.164Z"/>
	<path fill="#0B8C88" transform="scale(0.488281 0.488281)" d="M335.364 829.808C345.263 828.295 356.141 831.267 365.983 828.833L384.697 842.636L400.348 853.694C401.901 854.826 404.533 856.163 405.256 857.974L378.751 858.055L378.356 858.023L275.047 859.277L255.768 859.459C252.9 859.47 249.25 859.036 246.479 859.754L245.878 859.517L210.358 829.667C220.383 829.049 230.636 829.47 240.685 829.475L295.228 829.518L323.245 829.552C326.997 829.563 331.722 829.046 335.364 829.808Z"/>
	<path fill="#086F72" transform="scale(0.488281 0.488281)" d="M335.364 829.808C345.263 828.295 356.141 831.267 365.983 828.833L384.697 842.636L400.348 853.694C401.901 854.826 404.533 856.163 405.256 857.974L378.751 858.055L378.356 858.023C375.045 855.535 371.062 853.665 367.5 851.527C356.585 844.978 344.775 838.449 335.364 829.808Z"/>
	<path fill="#11C0B0" transform="scale(0.488281 0.488281)" d="M121.641 702.654L121.359 702.179C117.964 696.133 115.368 689.411 112.652 683.038L101.407 655.517C90.002 624.172 82.0149 591.822 78.1646 558.647C76.4559 543.925 76.0582 529.04 75.9518 514.232L76.1657 485.647C77.7557 455.039 83.0887 424.413 91.2445 394.889C101.884 356.375 118.139 318.061 139.036 283.979C176.85 222.306 231.479 169.914 294.346 134.259C363.537 95.018 443.506 74.5237 523.128 76.6405C559.81 77.6157 596.797 83.5882 632.117 93.3778C706.486 113.991 777.203 156.719 829.711 213.268L845.693 231.138C848.619 234.585 851.833 238.054 854.069 241.992L854.084 263.607L811.695 287.415L791.987 298.861C787.953 299.833 783.457 299.451 779.328 299.47L757.25 299.499L722.585 299.502L671.624 299.674C666.591 300.269 661.024 299.952 655.972 299.745L636.489 299.817L636.599 299.23C637.561 293.799 640.141 288.359 641.763 283.073C646.192 268.634 648.075 252.987 646.339 237.953C642.748 206.84 628.037 180.13 603.686 160.31C601.976 158.918 600.563 157.913 598.503 157.09L598.462 157.104L584.393 144.752C567.059 133.219 550.87 126.729 530.025 125.443C510.645 125.252 492.923 130.004 476.196 139.806C471.896 138.783 467.313 139.685 463 140.308L449.399 142.38C430.488 145.556 411.389 149.644 393.117 155.509C362.982 165.182 333.449 179.455 306.484 195.983C258.711 225.264 217.623 266.353 188.303 314.158L175.682 335.997L168.387 349.326C166.797 352.238 165.129 355.616 162.744 357.959L162.437 358.97C160.52 356.548 158.705 353.991 156.25 352.083C154.357 352.103 154.224 352.297 152.75 353.345C149.523 359.092 149.206 369.96 148.836 376.583L135.976 381.143C132.672 382.282 128.453 382.982 126.655 386.25C126.97 388.462 128.328 389.894 130.087 391.199C131.642 392.352 133.432 393.227 135.149 394.115C136.957 394.893 147.133 398.894 147.516 400.071C148.021 401.627 147.658 404.002 147.609 405.655L147.503 406.585L147.25 411.889L146.387 411.949L145.721 410.903C144.99 412.094 144.654 412.977 144.283 414.345C142.397 421.282 139.863 428.028 138.306 435.062C128.661 478.632 127.141 526.433 135.25 570.406C136.825 578.945 137.97 588.377 141.167 596.473C135.283 596.708 131.022 597.83 126.903 602.455C124.812 604.803 123.126 607.896 122.511 611C121.113 618.053 122.042 626.911 122.023 634.194L121.926 684.734C121.918 690.11 122.821 697.489 121.641 702.654Z"/>
	<path fill="#0B8C88" transform="scale(0.488281 0.488281)" d="M135.149 394.115C136.957 394.893 147.133 398.894 147.516 400.071C148.021 401.627 147.658 404.002 147.609 405.655L147.503 406.585L147.25 411.889L146.387 411.949L145.721 410.903L131.629 400.016L135.149 394.115Z"/>
	<path fill="#0FAAA0" transform="scale(0.488281 0.488281)" d="M584.393 144.752C589.29 144.193 594.875 146.143 599.642 147.3C622.077 152.748 643.003 159.903 664.245 168.979C668.396 170.753 673.105 172.121 676.789 174.767C676.801 175.583 676.88 175.173 676.496 175.986L677.287 175.808C680.743 176.539 683.847 178.865 686.903 180.574C690.372 181.357 693.34 183.338 696.398 185.077L710.868 193.752C725.023 202.972 739.574 212.932 752.586 223.733C759.647 229.593 766.067 236.197 772.551 242.675C781.575 251.69 790.276 260.659 798.378 270.529C802.842 275.966 807.844 281.544 811.695 287.415L791.987 298.861C787.953 299.833 783.457 299.451 779.328 299.47L757.25 299.499L722.585 299.502L671.624 299.674C666.591 300.269 661.024 299.952 655.972 299.745L636.489 299.817L636.599 299.23C637.561 293.799 640.141 288.359 641.763 283.073C646.192 268.634 648.075 252.987 646.339 237.953C642.748 206.84 628.037 180.13 603.686 160.31C601.976 158.918 600.563 157.913 598.503 157.09L598.462 157.104L584.393 144.752Z"/>
	<path fill="#FCFCFD" transform="scale(0.488281 0.488281)" d="M704.623 278.631C701.806 276.21 699.587 273.553 699.029 269.75C698.524 266.307 699.332 262.526 701.493 259.75C703.582 257.066 706.362 255.471 709.75 255.09C713.045 254.719 716.711 255.786 719.235 257.937C722.813 260.987 723.912 264.164 724.217 268.728C723.132 272.933 721.613 276.546 717.669 278.806C714.479 280.633 710.819 280.731 707.36 279.703C706.408 279.42 705.518 279.063 704.623 278.631Z"/>
	<path fill="#0B8C88" transform="scale(0.488281 0.488281)" d="M709.504 259.049C711.091 259.081 712.631 259.143 714.13 259.717C716.256 260.531 718.268 262.112 719.127 264.272C719.906 266.23 719.835 269.323 719 271.25C717.816 273.985 715.831 275.101 713.213 276.213L712.756 276.211L711.995 276.182C710.927 276.151 709.792 276.167 708.75 275.904C706.804 275.413 704.678 273.425 703.844 271.638C702.766 269.327 702.748 266.528 703.715 264.185C704.806 261.541 707.002 260.168 709.504 259.049Z"/>
	<path fill="#0B8C88" transform="scale(0.488281 0.488281)" d="M724.217 268.728L724.75 266.143C726.973 266.748 730.502 271.184 732.241 272.936L746.701 288.009C750.041 291.436 754.856 295.367 757.25 299.499L722.585 299.502C718.676 294.008 712.338 289.537 707.951 284.25C706.393 282.372 705.504 280.932 704.623 278.631C705.518 279.063 706.408 279.42 707.36 279.703C710.819 280.731 714.479 280.633 717.669 278.806C721.613 276.546 723.132 272.933 724.217 268.728Z"/>
	<path fill="#086F72" transform="scale(0.488281 0.488281)" d="M702.973 193.932C711.007 201.443 718.828 206.082 728.704 210.774C720.871 211.118 714.43 213.404 706.865 214.972L711.757 240.359L688.579 228.041C685.259 231.854 683.253 234.956 681.889 239.886C677.853 233.64 674.184 225.549 671.699 218.543C672.836 217.89 676.284 214.796 677.178 214.713C677.355 214.697 679.141 215.835 679.376 215.969C683.351 218.241 687.237 220.676 691.351 222.688C692.072 223.04 693.055 223.746 693.826 223.6L689.063 205.651C694.207 202.274 698.476 198.096 702.973 193.932Z"/>
	<path fill="#FCFCFD" transform="scale(0.488281 0.488281)" d="M676.496 175.986L677.287 175.808C680.743 176.539 683.847 178.865 686.903 180.574L687.436 181.356C690.048 185.092 694.67 187.713 696.473 192L695.126 192.716C696.992 192.852 701.832 192.682 702.973 193.932C698.476 198.096 694.207 202.274 689.063 205.651L693.826 223.6C693.055 223.746 692.072 223.04 691.351 222.688C687.237 220.676 683.351 218.241 679.376 215.969C679.141 215.835 677.355 214.697 677.178 214.713C676.284 214.796 672.836 217.89 671.699 218.543L660.021 224.631L664.577 207.02C663.982 205.297 661.39 203.519 660.035 202.266L650.685 193.06L668.918 191.704C672.374 187.842 674.157 180.724 676.496 175.986Z"/>
	<path fill="#086F72" transform="scale(0.488281 0.488281)" d="M677.287 175.808C680.743 176.539 683.847 178.865 686.903 180.574L687.436 181.356C690.048 185.092 694.67 187.713 696.473 192L695.126 192.716L684.958 192.252C683.468 191.759 678.26 178.007 677.287 175.808Z"/>
	<path fill="#0B1938" transform="scale(0.488281 0.488281)" d="M791.987 298.861L791.987 330.026L791.91 357.281C797.263 356.451 804.134 357.167 809.618 357.142L854.181 356.955L854.369 379.128L854.019 423.155C853.964 430.406 853.074 438.804 854.027 445.953C853.609 445.483 853.807 445.773 853.501 444.909L853.25 444.175L764.995 431.769C766.014 432.739 766.981 433.631 768.154 434.412C772.163 437.081 775.027 441.258 777.782 445.117C786.386 457.171 792.424 470.06 798.487 483.531C800.185 487.304 802.829 491.731 803.771 495.739C803.916 496.355 803.891 496.507 803.89 497.062C805.292 500.088 804.886 503.533 806.473 506.504C806.793 508.453 806.876 510.347 806.937 512.32L807.02 548.022C807.028 552.948 807.82 559.391 806.75 564.151L805.765 564.765L806.772 565.39L806.966 572.648L806.581 623.201C804.818 623.174 802.538 623.453 801.037 622.434L799.918 622.184L800.196 623.089L799.885 623.625C799.337 624.758 799.218 625.972 799.034 627.202L798.518 627.812L799.598 628.127C799.658 630.363 800.219 634.394 799.476 636.445L798.111 636.842L799.543 637.123L799.507 654.009L801.908 654.045L812.359 654.142C830.587 656.034 846.28 664.019 859.861 676.104C869.965 686.276 878.43 697.69 882.899 711.503C884.659 716.945 885.573 722.568 886.762 728.147L887.703 748.535L801.872 748.546L801.59 748.485L727.146 748.364C724.802 748.268 721.515 748.553 719.405 747.528L719.345 733.179C720.755 724.608 722.757 716.013 725.909 707.914C723.044 706.538 686.903 707.445 680.027 707.448L539.567 707.537L424.213 706.91L416.021 707.036L416.038 717.044L411.132 713.04C406.053 708.309 395.72 702.63 394.526 695.571C390.523 693.47 387.314 690.345 384.052 687.271C381.353 683 378.915 679.09 377.917 674.037C377.295 670.889 377.476 667.456 377.471 664.25L377.471 649.436L377.511 596.481L377.478 477.055C377.524 472.683 377.281 467.62 378.931 463.52C381.345 458.765 384.015 454.508 388.25 451.153C396.013 445.003 405.027 445.002 414.42 444.939L431.27 444.85C433.2 444.842 436.012 445.32 437.617 444.25L437.831 439.908L437.958 444.25C438.917 444.903 438.424 444.806 439.306 444.75L527.417 444.733L535.53 444.836L548.091 444.528L548.384 444.569C553.028 445.63 558.886 444.906 563.679 444.855L598.718 444.897C603.855 444.901 610.08 445.565 615.083 444.582L615.168 384.776C611.363 384.555 607.886 384.472 604.955 381.648C603.63 380.371 601.921 378.09 601.943 376.189L601.892 357.383L632.622 357.448L632.573 384.839L635.51 385.06L655.945 384.96L671.682 384.856L671.527 357.437L671.516 330.057L671.624 299.674L722.585 299.502L757.25 299.499L779.328 299.47C783.457 299.451 787.953 299.833 791.987 298.861Z"/>
	<path fill="#5ED1D8" transform="scale(0.488281 0.488281)" d="M679.231 530.631L703.904 530.538C706.304 530.866 707.605 532.448 708.904 534.314C709.851 535.673 709.806 538.265 709.85 539.925C709.967 544.402 710.462 549.88 709.501 554.25C708.839 557.26 706.591 559.295 704.154 560.96C700.39 561.895 696.206 561.325 692.33 561.296C688.174 561.265 683.591 561.632 679.5 561.053C677.686 560.796 676.26 559.58 675.321 558.045C672.949 554.167 674.022 546.338 674.072 541.876C674.096 539.801 673.88 536.863 674.622 534.916C675.485 532.653 677.082 531.531 679.231 530.631Z"/>
	<path fill="#E5963A" transform="scale(0.488281 0.488281)" d="M690.279 578.134C693.735 577.91 697.343 578.267 700.467 579.87C704.909 582.148 708.226 586.441 709.544 591.236C710.883 596.104 710.462 601.225 707.826 605.602C704.774 610.669 700.363 613.216 694.77 614.513C690.041 614.605 686.385 614.545 682.205 611.974C677.96 609.364 674.864 605.117 673.812 600.235C672.768 595.394 673.955 589.481 676.926 585.483C680.408 580.799 684.617 578.936 690.279 578.134Z"/>
	<path fill="#E53B34" transform="scale(0.488281 0.488281)" d="M689.433 628.089C693.585 627.888 697.592 628.437 701.29 630.456C705.881 632.962 709.412 637.263 710.646 642.376C711.867 647.433 710.885 653.454 708.053 657.817C704.776 662.867 700.471 664.837 694.836 666.143C691.918 666.441 688.927 666.357 686.084 665.575C681.251 664.245 677.345 660.854 674.93 656.517C672.765 652.628 671.945 647.582 673.169 643.294L673.406 642.5C674.02 640.389 674.741 638.472 675.957 636.622C679.107 631.83 683.949 629.271 689.433 628.089Z"/>
	<defs>
		<linearGradient id="gradient_2" gradientUnits="userSpaceOnUse" x1="584.65485" y1="739.6792" x2="618.87286" y2="572.33459">
			<stop offset="0" stop-color="#0D7E81"/>
			<stop offset="1" stop-color="#009282"/>
		</linearGradient>
	</defs>
	<path fill="url(#gradient_2)" transform="scale(0.488281 0.488281)" d="M426.368 698.487L488.301 698.278L623.107 698.489L686.994 698.506L704.305 698.48C707.672 698.47 711.225 698.699 714.55 698.162L715.25 698.038C719.97 697.255 724.515 694.859 728.227 691.865C732.219 688.646 736.019 683.969 737.453 678.968C739.05 673.397 738.106 665.634 738.147 659.729L738.389 615.635C738.425 608.334 737.948 600.579 738.7 593.333L738.753 592.869C747.412 610.305 759.98 622.397 777.288 631.284C784.224 634.222 790.715 635.651 798.111 636.842L799.543 637.123L799.507 654.009C791.675 654.786 784.866 656.868 777.29 658.698C754.102 667.592 736.405 684.375 726.278 707.136L725.932 707.918L725.909 707.914C723.044 706.538 686.903 707.445 680.027 707.448L539.567 707.537L424.213 706.91L416.021 707.036C416.847 703.324 422.682 702.637 423.942 699.25L419.466 698.938C421.69 698.562 424.109 698.61 426.368 698.487Z"/>
	<path fill="#11C0B0" transform="scale(0.488281 0.488281)" d="M777.288 631.284C784.224 634.222 790.715 635.651 798.111 636.842L799.543 637.123L799.507 654.009C791.675 654.786 784.866 656.868 777.29 658.698C774.735 651.158 770.893 643.609 767.297 636.522C770.626 634.775 773.702 632.453 777.288 631.284Z"/>
	<path fill="#FCFCFD" transform="scale(0.488281 0.488281)" d="M799.507 654.009L801.908 654.045L801.538 716.075L801.552 738.091C801.554 741.443 801.226 745.169 801.59 748.485L727.146 748.364C724.802 748.268 721.515 748.553 719.405 747.528L719.345 733.179C720.755 724.608 722.757 716.013 725.909 707.914L725.932 707.918L726.278 707.136C736.405 684.375 754.102 667.592 777.29 658.698C784.866 656.868 791.675 654.786 799.507 654.009Z"/>
	<path fill="#EBD0C6" transform="scale(0.488281 0.488281)" d="M801.908 654.045L812.359 654.142C830.587 656.034 846.28 664.019 859.861 676.104C869.965 686.276 878.43 697.69 882.899 711.503C884.659 716.945 885.573 722.568 886.762 728.147L887.703 748.535L801.872 748.546L801.59 748.485C801.226 745.169 801.554 741.443 801.552 738.091L801.538 716.075L801.908 654.045Z"/>
	<defs>
		<linearGradient id="gradient_3" gradientUnits="userSpaceOnUse" x1="689.20959" y1="396.11896" x2="758.10333" y2="526.96838">
			<stop offset="0" stop-color="#12AEA9"/>
			<stop offset="1" stop-color="#05C5AB"/>
		</linearGradient>
	</defs>
	<path fill="url(#gradient_3)" transform="scale(0.488281 0.488281)" d="M649.958 444.71L649.973 415.62C678.891 413.657 707.222 418.219 735.33 424.603L764.995 431.769C766.014 432.739 766.981 433.631 768.154 434.412C772.163 437.081 775.027 441.258 777.782 445.117C786.386 457.171 792.424 470.06 798.487 483.531C800.185 487.304 802.829 491.731 803.771 495.739C803.916 496.355 803.891 496.507 803.89 497.062C783.445 498.528 764.906 505.906 751.283 521.651C746.237 527.482 742.709 533.892 739.347 540.785C737.957 534.642 738.849 526.361 738.819 519.988L738.589 476.844C738.56 471.887 739.261 465.508 737.833 460.768L737.584 460C736.514 456.468 735.099 453.737 732.5 451.102C729.711 448.274 725.934 445.933 722 445.168C715.115 443.83 706.513 444.718 699.47 444.702L649.958 444.71Z"/>
	<path fill="#FCFCFD" transform="scale(0.488281 0.488281)" d="M765.651 442.556C767.52 442.468 769.879 442.182 771.66 442.817C774.432 443.806 776.806 446.34 777.971 448.999C779.228 451.869 779.071 455.26 777.79 458.098C776.238 461.532 773.697 463.286 770.26 464.566C768.359 464.618 766.146 464.822 764.33 464.187C761.419 463.169 758.795 460.603 757.645 457.758C756.284 454.387 756.116 452.446 757.573 449.067C759.136 445.444 762.216 443.938 765.651 442.556Z"/>
	<path fill="#0FAAA0" transform="scale(0.488281 0.488281)" d="M765.711 447.25C767.146 447.072 768.643 446.857 770.065 447.22C771.549 447.6 772.851 448.63 773.589 449.973C774.557 451.733 774.705 453.724 774.08 455.625C773.405 457.677 772.13 458.678 770.25 459.556C768.736 459.918 767.513 460.15 765.989 459.653C764.433 459.146 763.185 457.977 762.44 456.539C761.506 454.737 761.239 452.724 761.916 450.786C762.602 448.825 763.908 448.073 765.711 447.25Z"/>
	<path fill="#FCFCFD" transform="scale(0.488281 0.488281)" d="M803.89 497.062C805.292 500.088 804.886 503.533 806.473 506.504C806.793 508.453 806.876 510.347 806.937 512.32L807.02 548.022C807.028 552.948 807.82 559.391 806.75 564.151L805.765 564.765L806.772 565.39L806.966 572.648L806.581 623.201C804.818 623.174 802.538 623.453 801.037 622.434L799.918 622.184L800.196 623.089L799.885 623.625C799.337 624.758 799.218 625.972 799.034 627.202L798.518 627.812L799.598 628.127C799.658 630.363 800.219 634.394 799.476 636.445L798.111 636.842C790.715 635.651 784.224 634.222 777.288 631.284C759.98 622.397 747.412 610.305 738.753 592.869C738.03 588.978 736.349 585.249 735.533 581.348C733.526 571.757 733.992 560.978 736.201 551.456C737.041 547.837 738.351 544.361 739.347 540.785C742.709 533.892 746.237 527.482 751.283 521.651C764.906 505.906 783.445 498.528 803.89 497.062Z"/>
	<path fill="#E53B34" transform="scale(0.488281 0.488281)" d="M745.527 572.119L763.433 572.323C763.669 572.326 763.972 572.165 764.14 572.331C764.315 572.505 764.169 572.823 764.185 573.069C764.685 580.885 766.505 588.643 769.123 596.016C772.649 605.944 778.335 613.423 785.881 620.654C780.093 619.048 775.109 616.263 770.25 612.772C756.031 602.557 748.363 589.243 745.527 572.119Z"/>
	<path fill="#E53B34" transform="scale(0.488281 0.488281)" d="M785.474 513.574C786.398 513.455 786.626 513.413 787.53 513.75L784.75 516.026C771 528.414 765.258 547.43 764.389 565.457L747.375 565.41L745.785 565.25C745.327 563.499 745.943 561.306 746.238 559.543C747.438 552.358 749.922 545.519 753.611 539.238C760.902 526.825 771.416 517.273 785.474 513.574Z"/>
	<path fill="#E53B34" transform="scale(0.488281 0.488281)" d="M799.918 622.184C789.47 618.769 782.093 613.461 776.998 603.562C771.906 593.673 770.305 583.318 768.917 572.441L801.197 572.524L801.037 622.434L799.918 622.184Z"/>
	<path fill="#E53B34" transform="scale(0.488281 0.488281)" d="M798.995 513.75C800.05 513.471 800.007 513.308 801.078 513.75L801.127 565.293L771.25 565.358C770.306 565.381 770.016 565.349 769.093 565C768.763 562.425 769.322 559.605 769.717 557.049C770.995 548.769 773.572 540.36 777.275 532.832C782.091 523.045 788.715 517.296 798.995 513.75Z"/>
	<path fill="#C3252D" transform="scale(0.488281 0.488281)" d="M803.89 497.062C805.292 500.088 804.886 503.533 806.473 506.504C787.731 506.764 771.725 513.066 758.672 526.75C748.385 537.534 741.738 553.865 742.12 568.828C742.538 585.176 750.567 599.13 762.319 610.078C771.886 618.99 785.475 626.008 798.518 627.812L799.598 628.127C799.658 630.363 800.219 634.394 799.476 636.445L798.111 636.842C790.715 635.651 784.224 634.222 777.288 631.284C759.98 622.397 747.412 610.305 738.753 592.869C738.03 588.978 736.349 585.249 735.533 581.348C733.526 571.757 733.992 560.978 736.201 551.456C737.041 547.837 738.351 544.361 739.347 540.785C742.709 533.892 746.237 527.482 751.283 521.651C764.906 505.906 783.445 498.528 803.89 497.062Z"/>
	<path fill="#0B8C88" transform="scale(0.488281 0.488281)" d="M791.987 298.861L791.987 330.026L791.91 357.281C797.263 356.451 804.134 357.167 809.618 357.142L854.181 356.955L854.369 379.128L854.019 423.155C853.964 430.406 853.074 438.804 854.027 445.953C853.609 445.483 853.807 445.773 853.501 444.909L853.25 444.175L764.995 431.769L735.33 424.603C707.222 418.219 678.891 413.657 649.973 415.62L649.958 444.71L632.149 444.829C629.436 444.837 626.159 445.206 623.562 444.426C622.86 443.12 623.174 441.157 623.182 439.709L623.273 428.648L623.575 384.805L632.573 384.839L635.51 385.06L655.945 384.96L671.682 384.856L671.527 357.437L671.516 330.057L671.624 299.674L722.585 299.502L757.25 299.499L779.328 299.47C783.457 299.451 787.953 299.833 791.987 298.861Z"/>
	<path fill="#0FAAA0" transform="scale(0.488281 0.488281)" d="M623.575 384.805L632.573 384.839L635.51 385.06L635.529 444.393L623.562 444.426C622.86 443.12 623.174 441.157 623.182 439.709L623.273 428.648L623.575 384.805Z"/>
	<path fill="#0B1938" transform="scale(0.488281 0.488281)" d="M768.731 384.752C776.004 384.679 784.39 383.802 791.519 385.082L796.189 388.255L801.979 391.72L801.801 411.569L762.75 411.491C760.682 409.373 761.37 405.505 761.371 402.679L761.43 384.926L768.731 384.752Z"/>
	<path fill="#086F72" transform="scale(0.488281 0.488281)" d="M768.731 384.752C776.004 384.679 784.39 383.802 791.519 385.082L796.189 388.255C794.699 392.897 795.149 398.957 795.045 403.845L768.94 403.601L768.731 384.752Z"/>
	<path fill="#ED7E2A" transform="scale(0.488281 0.488281)" d="M854.181 356.955L854.369 379.128L854.019 423.155L801.979 391.72L796.189 388.255L791.519 385.082L791.607 384.603C792.242 381.928 791.873 378.336 791.881 375.573L791.91 357.281C797.263 356.451 804.134 357.167 809.618 357.142L854.181 356.955Z"/>
	<path fill="#E53B34" transform="scale(0.488281 0.488281)" d="M791.987 298.861L791.987 330.026L791.91 357.281L791.881 375.573C791.873 378.336 792.242 381.928 791.607 384.603L791.519 385.082C784.39 383.802 776.004 384.679 768.731 384.752L761.43 384.926L671.682 384.856L671.527 357.437L671.516 330.057L671.624 299.674L722.585 299.502L757.25 299.499L779.328 299.47C783.457 299.451 787.953 299.833 791.987 298.861Z"/>
	<path fill="#C3252D" transform="scale(0.488281 0.488281)" d="M671.527 357.437L791.633 357.451C791.536 366.269 790.723 375.858 791.607 384.603L791.519 385.082C784.39 383.802 776.004 384.679 768.731 384.752L761.43 384.926L671.682 384.856L671.527 357.437Z"/>
	<path fill="#F35A39" transform="scale(0.488281 0.488281)" d="M791.987 298.861L791.987 330.026L671.516 330.057L671.624 299.674L722.585 299.502L757.25 299.499L779.328 299.47C783.457 299.451 787.953 299.833 791.987 298.861Z"/>
	<path fill="#5ED1D8" transform="scale(0.488281 0.488281)" d="M437.831 439.908L437.958 444.25C438.917 444.903 438.424 444.806 439.306 444.75L527.417 444.733L535.53 444.836L548.091 444.528L548.384 444.569C553.028 445.63 558.886 444.906 563.679 444.855C565.368 451.508 567.824 457.863 570.157 464.303C571.671 468.48 572.951 472.83 574.841 476.849L595.955 476.839C599.572 476.841 603.538 476.474 607.089 477.083L630.975 477.08C635.968 477.061 641.43 476.521 646.285 477.77L646.589 477.835C647.959 478.981 650.547 480.932 650.708 482.821C651.712 494.591 650.911 507.002 650.888 518.831L650.806 588.628L650.751 640.176C650.737 648.194 651.546 657.359 650.379 665.258C647.723 668.146 646.764 669.523 642.605 669.707L488.067 669.902C484.827 672.742 480.352 674.605 476.5 676.535L448.998 689.316C441.464 692.409 433.685 694.883 426.368 698.487C424.109 698.61 421.69 698.562 419.466 698.938L423.942 699.25C422.682 702.637 416.847 703.324 416.021 707.036L416.038 717.044L411.132 713.04C406.053 708.309 395.72 702.63 394.526 695.571C390.523 693.47 387.314 690.345 384.052 687.271C381.353 683 378.915 679.09 377.917 674.037C377.295 670.889 377.476 667.456 377.471 664.25L377.471 649.436L377.511 596.481L377.478 477.055C377.524 472.683 377.281 467.62 378.931 463.52C381.345 458.765 384.015 454.508 388.25 451.153C396.013 445.003 405.027 445.002 414.42 444.939L431.27 444.85C433.2 444.842 436.012 445.32 437.617 444.25L437.831 439.908Z"/>
	<path fill="#FCFCFD" transform="scale(0.488281 0.488281)" d="M486.827 619.24L486.947 556.677L486.971 537.839C486.983 534.509 486.476 530.03 488.129 527.045C489.248 525.024 491.751 522.704 494.042 522.159C495.384 521.839 497.281 521.788 498.604 522.258C502.339 523.583 506.005 526.503 509.497 528.426L545.171 548.286L562.987 558.784C566.467 560.755 570.687 562.48 573.857 564.872C575.042 565.766 575.91 567.38 576.325 568.789C576.973 570.983 576.812 573.394 576.136 575.546C574.3 577.787 572.055 579.406 569.713 581.077L523.433 610.884C518.443 614.086 500.193 627.211 495.75 627.524C493.205 627.702 491.165 627.009 489.246 625.328C487.428 623.736 487.004 621.536 486.827 619.24Z"/>
	<path fill="#232F52" transform="scale(0.488281 0.488281)" d="M437.831 439.908L437.958 444.25C438.917 444.903 438.424 444.806 439.306 444.75L527.417 444.733L535.53 444.836L548.091 444.528L548.384 444.569C553.028 445.63 558.886 444.906 563.679 444.855C565.368 451.508 567.824 457.863 570.157 464.303C571.671 468.48 572.951 472.83 574.841 476.849L595.955 476.839C599.572 476.841 603.538 476.474 607.089 477.083C590.076 478.034 572.654 477.319 555.591 477.294L464.631 477.271L433.096 477.289C427.909 477.297 422.201 476.84 417.065 477.477C414.996 477.734 412.846 478.903 411.426 480.429C409.959 482.005 408.698 484.142 408.509 486.31C407.766 494.809 408.312 503.762 408.273 512.325L408.078 564.192L407.958 630.957C407.942 641.473 407.349 652.263 407.855 662.75C407.935 664.404 408.428 665.686 409.127 667.167C412.562 670.596 414.91 669.998 419.484 669.997L488.067 669.902C484.827 672.742 480.352 674.605 476.5 676.535L448.998 689.316C441.464 692.409 433.685 694.883 426.368 698.487C424.109 698.61 421.69 698.562 419.466 698.938L423.942 699.25C422.682 702.637 416.847 703.324 416.021 707.036L416.038 717.044L411.132 713.04C406.053 708.309 395.72 702.63 394.526 695.571C390.523 693.47 387.314 690.345 384.052 687.271C381.353 683 378.915 679.09 377.917 674.037C377.295 670.889 377.476 667.456 377.471 664.25L377.471 649.436L377.511 596.481L377.478 477.055C377.524 472.683 377.281 467.62 378.931 463.52C381.345 458.765 384.015 454.508 388.25 451.153C396.013 445.003 405.027 445.002 414.42 444.939L431.27 444.85C433.2 444.842 436.012 445.32 437.617 444.25L437.831 439.908Z"/>
	<defs>
		<linearGradient id="gradient_4" gradientUnits="userSpaceOnUse" x1="404.36902" y1="706.80548" x2="414.81061" y2="693.47638">
			<stop offset="0" stop-color="#0E7E7B"/>
			<stop offset="1" stop-color="#099995"/>
		</linearGradient>
	</defs>
	<path fill="url(#gradient_4)" transform="scale(0.488281 0.488281)" d="M394.526 695.571C403.099 699.305 410.265 699.021 419.466 698.938L423.942 699.25C422.682 702.637 416.847 703.324 416.021 707.036L416.038 717.044L411.132 713.04C406.053 708.309 395.72 702.63 394.526 695.571Z"/>
	<path fill="#0FAAA0" transform="scale(0.488281 0.488281)" d="M646.589 477.835C647.959 478.981 650.547 480.932 650.708 482.821C651.712 494.591 650.911 507.002 650.888 518.831L650.806 588.628L650.751 640.176C650.737 648.194 651.546 657.359 650.379 665.258C647.723 668.146 646.764 669.523 642.605 669.707L488.067 669.902L419.484 669.997C414.91 669.998 412.562 670.596 409.127 667.167C419.487 664.197 428.284 656.71 437.134 650.79L474.326 625.315C477.22 623.296 482.964 618.074 486.25 617.491L486.827 619.24C487.004 621.536 487.428 623.736 489.246 625.328C491.165 627.009 493.205 627.702 495.75 627.524C500.193 627.211 518.443 614.086 523.433 610.884L569.713 581.077C572.055 579.406 574.3 577.787 576.136 575.546C576.812 573.394 576.973 570.983 576.325 568.789C575.91 567.38 575.042 565.766 573.857 564.872C570.687 562.48 566.467 560.755 562.987 558.784L545.171 548.286C548.777 546.815 552.612 543.521 555.858 541.341L579.799 525.103L642.847 481.902C644.378 480.741 645.454 479.366 646.589 477.835Z"/>
	<path fill="#0FAAA0" transform="scale(0.488281 0.488281)" d="M476.196 139.806C492.923 130.004 510.645 125.252 530.025 125.443C550.87 126.729 567.059 133.219 584.393 144.752L598.462 157.104L598.503 157.09C600.563 157.913 601.976 158.918 603.686 160.31C628.037 180.13 642.748 206.84 646.339 237.953C648.075 252.987 646.192 268.634 641.763 283.073C640.141 288.359 637.561 293.799 636.599 299.23L636.489 299.817L655.972 299.745C661.024 299.952 666.591 300.269 671.624 299.674L671.516 330.057L671.527 357.437L671.682 384.856L655.945 384.96L635.51 385.06L632.573 384.839L632.622 357.448L601.892 357.383L601.943 376.189C601.921 378.09 603.63 380.371 604.955 381.648C607.886 384.472 611.363 384.555 615.168 384.776L615.083 444.582C610.08 445.565 603.855 444.901 598.718 444.897L563.679 444.855C558.886 444.906 553.028 445.63 548.384 444.569L548.091 444.528L535.53 444.836L527.417 444.733L439.306 444.75C438.424 444.806 438.917 444.903 437.958 444.25L437.831 439.908L437.617 444.25C436.012 445.32 433.2 444.842 431.27 444.85L414.42 444.939C405.027 445.002 396.013 445.003 388.25 451.153C384.015 454.508 381.345 458.765 378.931 463.52C377.281 467.62 377.524 472.683 377.478 477.055L377.511 596.481L319.418 596.367L314.485 596.161L172.57 596.169L141.167 596.473C137.97 588.377 136.825 578.945 135.25 570.406C127.141 526.433 128.661 478.632 138.306 435.062C139.863 428.028 142.397 421.282 144.283 414.345C144.654 412.977 144.99 412.094 145.721 410.903L146.387 411.949L147.25 411.889L147.503 406.585L147.609 405.655C147.658 404.002 148.021 401.627 147.516 400.071C147.133 398.894 136.957 394.893 135.149 394.115C133.432 393.227 131.642 392.352 130.087 391.199C128.328 389.894 126.97 388.462 126.655 386.25C128.453 382.982 132.672 382.282 135.976 381.143L148.836 376.583C149.206 369.96 149.523 359.092 152.75 353.345C154.224 352.297 154.357 352.103 156.25 352.083C158.705 353.991 160.52 356.548 162.437 358.97L162.744 357.959C165.129 355.616 166.797 352.238 168.387 349.326L175.682 335.997L188.303 314.158C217.623 266.353 258.711 225.264 306.484 195.983C333.449 179.455 362.982 165.182 393.117 155.509C411.389 149.644 430.488 145.556 449.399 142.38L463 140.308C467.313 139.685 471.896 138.783 476.196 139.806Z"/>
	<path fill="#0B1938" transform="scale(0.488281 0.488281)" d="M229.474 325.006L229.095 306.984L252.387 307.092L236.682 325.032L229.474 325.006Z"/>
	<path fill="#FCFCFD" transform="scale(0.488281 0.488281)" d="M252.387 307.092C253.768 306.15 255.341 306.48 256.995 306.469L268.398 306.564L284.438 306.68L269.966 324.969L253.455 324.981C248.351 325.818 241.855 325.5 236.682 325.032L252.387 307.092Z"/>
	<path fill="#0B1938" transform="scale(0.488281 0.488281)" d="M268.398 306.564L284.438 306.68L269.966 324.969L253.455 324.981L268.398 306.564Z"/>
	<path fill="#0B8C88" transform="scale(0.488281 0.488281)" d="M469.684 305.74C487.207 317.002 506.9 324.356 527.982 323.914C527.954 333.925 528.718 344.671 527.602 354.596L479.199 316.095C476.699 313.937 469.915 308.875 469.684 305.74Z"/>
	<path fill="#0B1938" transform="scale(0.488281 0.488281)" d="M529.88 323.446L535.093 323.388L535.387 358.126L535.527 432.515L535.53 444.836L527.417 444.733L527.475 425.68L527.602 354.596C528.718 344.671 527.954 333.925 527.982 323.914L529.88 323.446Z"/>
	<path fill="#FCFCFD" transform="scale(0.488281 0.488281)" d="M328.315 242.958C327.636 242.042 326.994 241.239 326.66 240.128C326.39 239.231 326.793 239.054 327.25 238.314C331.14 235.744 337.071 236.424 341.58 236.376C342.648 232.641 343.989 228.408 345.887 225C346.657 223.618 346.979 223.11 348.5 222.656C350.427 223.506 351.071 224.689 352.169 226.433C356.259 229.341 359.734 233.253 363.494 236.593C366.859 237.025 369.584 236.976 371.908 239.75L371.892 240.45C368.158 244.13 364.087 247.427 359.77 250.406C360.749 254.737 362.68 259.603 362.629 264C362.215 264.624 362.223 264.985 361.406 265.099C357.31 265.669 350.062 258.426 348.985 258.578C348.376 258.664 346.495 260.032 345.873 260.4C342.229 262.56 339.162 264.999 334.903 265.913C334.299 264.435 334.052 263.127 333.843 261.548L333.341 261.723C329.834 257.191 328.822 248.612 328.315 242.958Z"/>
	<path fill="#086F72" transform="scale(0.488281 0.488281)" d="M352.169 226.433C356.259 229.341 359.734 233.253 363.494 236.593L355.514 235.991L352.169 226.433Z"/>
	<path fill="#086F72" transform="scale(0.488281 0.488281)" d="M328.315 242.958L336.28 249.867L333.843 261.548L333.341 261.723C329.834 257.191 328.822 248.612 328.315 242.958Z"/>
	<path fill="#086F72" transform="scale(0.488281 0.488281)" d="M371.892 240.45L372.454 241.072C378.756 247.987 387.224 254.408 394.594 260.206C390.273 262.953 385.932 265.286 382.084 268.731C378.243 272.17 375.37 276.212 372.224 280.234C372.001 280.519 371.842 280.934 371.496 281.039C370.096 281.463 366.722 281.018 365.128 281.013C359.042 280.993 352.945 280.865 346.869 281.253C342.852 276.778 337.542 271.332 334.903 265.913C339.162 264.999 342.229 262.56 345.873 260.4C346.495 260.032 348.376 258.664 348.985 258.578C350.062 258.426 357.31 265.669 361.406 265.099C362.223 264.985 362.215 264.624 362.629 264C362.68 259.603 360.749 254.737 359.77 250.406C364.087 247.427 368.158 244.13 371.892 240.45Z"/>
	<path fill="#FCFCFD" transform="scale(0.488281 0.488281)" d="M284.438 306.68L300.913 306.583L317.119 306.743C321.21 306.57 328.639 305.763 332.373 307.059C333.908 306.219 335.647 306.506 337.371 306.501L349.65 306.69L336.622 324.468C335.028 325.154 333.199 324.959 331.493 324.942L318.863 324.939L302.598 324.94C301.825 324.623 299.909 324.901 298.97 324.904L286.417 324.945C284.545 325.454 282.284 325.247 280.349 325.269C276.88 325.308 273.41 325.461 269.966 324.969L284.438 306.68Z"/>
	<path fill="#0B1938" transform="scale(0.488281 0.488281)" d="M300.913 306.583L317.119 306.743L302.598 324.94C301.825 324.623 299.909 324.901 298.97 324.904L286.417 324.945L300.913 306.583Z"/>
	<path fill="#FCFCFD" transform="scale(0.488281 0.488281)" d="M317.119 306.743C321.21 306.57 328.639 305.763 332.373 307.059L318.863 324.939L302.598 324.94L317.119 306.743Z"/>
	<path fill="#0B1938" transform="scale(0.488281 0.488281)" d="M332.373 307.059C333.908 306.219 335.647 306.506 337.371 306.501L349.65 306.69L336.622 324.468C335.028 325.154 333.199 324.959 331.493 324.942L318.863 324.939L332.373 307.059Z"/>
	<path fill="#086F72" transform="scale(0.488281 0.488281)" d="M154.623 424.778L168.892 407.761L182.467 412.684C185.132 413.687 188.575 415.321 191.471 415.156C193.404 415.046 194.083 414.31 195.25 412.939C195.615 410.022 193.803 407.401 192.338 404.93L183.57 390.419C184.356 388.164 186.16 385.959 187.544 384.019L195.245 373.134C197.434 373.775 214.023 381.422 214.923 382.901L205.787 406.126C203.701 411.585 201.802 417.186 199.024 422.339L166.764 436.3C165.455 435.469 164.483 433.895 163.439 432.741C160.968 430.007 157.833 426.563 154.623 424.778Z"/>
	<path fill="#FCFCFD" transform="scale(0.488281 0.488281)" d="M135.149 394.115C133.432 393.227 131.642 392.352 130.087 391.199C128.328 389.894 126.97 388.462 126.655 386.25C128.453 382.982 132.672 382.282 135.976 381.143L148.836 376.583C149.206 369.96 149.523 359.092 152.75 353.345C154.224 352.297 154.357 352.103 156.25 352.083C158.705 353.991 160.52 356.548 162.437 358.97L162.744 357.959L173.611 363.018C177.279 364.578 181.286 365.865 184.54 368.19C187.736 367.589 190.982 366.759 194.25 367.032C195.24 367.843 195.743 368.157 196.003 369.5C196.203 370.537 195.593 372.198 195.245 373.134L187.544 384.019C186.16 385.959 184.356 388.164 183.57 390.419L192.338 404.93C193.803 407.401 195.615 410.022 195.25 412.939C194.083 414.31 193.404 415.046 191.471 415.156C188.575 415.321 185.132 413.687 182.467 412.684L168.892 407.761L154.623 424.778C153.962 425.197 153.467 425.453 152.664 425.544C151.189 425.713 150.122 425.305 149.061 424.317C146.62 422.046 147.847 409.555 147.609 405.655C147.658 404.002 148.021 401.627 147.516 400.071C147.133 398.894 136.957 394.893 135.149 394.115Z"/>
	<path fill="#086F72" transform="scale(0.488281 0.488281)" d="M162.744 357.959L173.611 363.018C177.279 364.578 181.286 365.865 184.54 368.19L171.283 371.138C167.704 367.784 164.93 363.166 162.437 358.97L162.744 357.959Z"/>
	<path fill="#1A5B93" transform="scale(0.488281 0.488281)" d="M437.951 337.423C447.97 345.267 456.704 355.016 465.532 364.152L487.597 386.272L513.427 411.452C518.129 416.031 523.311 420.604 527.475 425.68L527.417 444.733L439.306 444.75C438.424 444.806 438.917 444.903 437.958 444.25L437.831 439.908L437.951 337.423Z"/>
	<path fill="#1A5B93" transform="scale(0.488281 0.488281)" d="M331.375 463.556L378.931 463.52C377.281 467.62 377.524 472.683 377.478 477.055L377.511 596.481L319.418 596.367L314.485 596.161C316.324 596.143 318.889 596.606 320.316 595.454L320.375 588.9C319.024 575.127 312.129 568.001 302.089 559.645C303.521 559.252 304.946 559.126 306.377 559.55C308.237 560.101 310.147 559.519 312.034 559.851C314.581 560.3 317.409 560.353 319.891 561.021C322.716 561.782 325.848 562.336 328.75 562.743L329.149 561.996L244.293 476.969L241.086 474.292C240.031 473.342 238.058 471.357 237.59 470.042C237.059 468.547 237.371 465.242 237.293 463.537L331.375 463.556Z"/>
	<path fill="#FCFCFD" transform="scale(0.488281 0.488281)" d="M339.866 513.065C342.184 512.932 344.724 512.965 346.921 513.805C350.074 515.01 352.8 518.102 353.943 521.229C355.175 524.599 354.944 528.551 353.316 531.75C351.365 535.581 348.23 537.258 344.287 538.469C341.633 538.567 339.421 538.477 337 537.27C333.381 535.467 330.733 532.491 329.608 528.595C328.718 525.509 329.495 521.549 331.175 518.823C333.258 515.443 336.192 514.043 339.866 513.065Z"/>
	<path fill="#1A5B93" transform="scale(0.488281 0.488281)" d="M338.945 517.555C340.554 517.314 342.132 517.194 343.75 517.465C345.88 517.822 347.769 519.219 348.894 521.039C350.276 523.275 350.56 525.314 349.908 527.841C349.122 530.882 347.288 532.418 344.679 533.962C343.204 534.254 341.99 534.322 340.5 534.055C338.224 533.645 336.196 531.95 334.979 530.026C333.835 528.218 333.22 525.649 333.774 523.552C334.573 520.524 336.366 519.107 338.945 517.555Z"/>
	<path fill="#0B1938" transform="scale(0.488281 0.488281)" d="M331.375 463.556L378.931 463.52C377.281 467.62 377.524 472.683 377.478 477.055L244.293 476.969L241.086 474.292C240.031 473.342 238.058 471.357 237.59 470.042C237.059 468.547 237.371 465.242 237.293 463.537L331.375 463.556Z"/>
	<path fill="#232F52" transform="scale(0.488281 0.488281)" d="M172.57 596.169C170.534 596.118 167.533 596.561 165.875 595.399C157.399 589.459 151.331 580.659 149.687 570.332C146.527 550.481 157.002 533.782 167.988 518.272C174.925 508.478 185.64 495.365 198.33 493.611C203.85 492.848 208.99 493.661 214 496.026C223.576 500.547 232.536 508.562 241.183 514.756L302.089 559.645C312.129 568.001 319.024 575.127 320.375 588.9L320.316 595.454C318.889 596.606 316.324 596.143 314.485 596.161L172.57 596.169Z"/>
	<path fill="#FCFCFD" transform="scale(0.488281 0.488281)" d="M167.154 552.028C168.612 551.986 170.146 551.91 171.574 552.253C174.269 552.902 176.584 554.826 177.897 557.25C179.118 559.503 179.478 562.731 178.56 565.149C177.241 568.626 174.806 570.228 171.568 571.729C169.642 571.946 167.645 571.855 165.778 571.289C163.39 570.564 161.346 568.592 160.227 566.394C159.184 564.344 159.035 560.368 159.893 558.241C161.268 554.829 163.899 553.293 167.154 552.028Z"/>
	<path fill="#FCFCFD" transform="scale(0.488281 0.488281)" d="M283.577 561.576C285.37 561.35 287.471 561.206 289.223 561.674C292.492 562.546 295.242 565.094 296.683 568.098C297.967 570.775 297.857 574.099 296.726 576.815C295.276 580.299 292.716 582.114 289.363 583.599C287.62 583.908 285.721 583.995 283.977 583.644C281.188 583.083 278.671 581.291 277.144 578.886C275.541 576.361 274.884 573.029 275.635 570.11C276.697 565.98 280.047 563.508 283.577 561.576Z"/>
	<path fill="#FCFCFD" transform="scale(0.488281 0.488281)" d="M240.701 560.672C242.77 560.86 244.589 561.125 246.434 562.143C249.694 563.942 251.761 566.554 252.774 570.124C253.63 573.144 253.039 576.523 251.366 579.164C249.126 582.702 245.822 584.126 241.94 585.149C239.498 585.115 237.13 584.809 235 583.516C232.112 581.764 229.753 578.779 229.068 575.431C228.397 572.148 229.206 568.528 231.172 565.824C233.608 562.474 236.707 561.256 240.701 560.672Z"/>
	<path fill="#FCFCFD" transform="scale(0.488281 0.488281)" d="M200.591 504.082C203.444 503.934 206.209 504.233 208.75 505.659C211.532 507.219 213.832 510.111 214.721 513.181C215.668 516.45 215.109 519.837 213.44 522.751C211.44 526.242 208.518 527.879 204.753 528.928C202.76 529.051 200.45 528.939 198.572 528.225C195.634 527.11 193.044 524.292 191.805 521.453C190.404 518.241 190.359 515.123 191.669 511.854C193.372 507.609 196.612 505.744 200.591 504.082Z"/>
	<path fill="#F7B635" transform="scale(0.488281 0.488281)" d="M269.966 324.969C273.41 325.461 276.88 325.308 280.349 325.269C282.284 325.247 284.545 325.454 286.417 324.945L298.97 324.904C299.909 324.901 301.825 324.623 302.598 324.94L318.863 324.939L331.493 324.942L331.5 374.634L331.471 374.865C331.46 378.223 332.037 382.832 331.171 386.013L331.573 386.117L331.493 398.077L331.082 398.067C331.414 401.625 331.728 406.465 331.134 409.983L331.432 410.025L331.375 463.556L237.293 463.537L229.911 463.651L229.474 325.006L236.682 325.032C241.855 325.5 248.351 325.818 253.455 324.981L269.966 324.969Z"/>
	<path fill="#E3E2E0" transform="scale(0.488281 0.488281)" d="M331.171 386.013L257.846 386.175L257.884 374.647L331.5 374.634L331.471 374.865C331.46 378.223 332.037 382.832 331.171 386.013Z"/>
	<path fill="#E3E2E0" transform="scale(0.488281 0.488281)" d="M331.134 409.983L257.485 410.058L257.473 398.06L331.082 398.067C331.414 401.625 331.728 406.465 331.134 409.983Z"/>
	<path fill="#ED7E2A" transform="scale(0.488281 0.488281)" d="M410.915 307.039C412.444 305.635 423.332 306.513 425.947 306.544L438 306.632L438.595 307.5C438.398 308.403 438.265 309.225 437.887 310.068C439.304 313.356 438.696 321.322 438.162 324.98L437.951 337.423L437.831 439.908L437.617 444.25C436.012 445.32 433.2 444.842 431.27 444.85L414.42 444.939C405.027 445.002 396.013 445.003 388.25 451.153C384.015 454.508 381.345 458.765 378.931 463.52L331.375 463.556L331.432 410.025L331.134 409.983C331.728 406.465 331.414 401.625 331.082 398.067L331.493 398.077L331.573 386.117L331.171 386.013C332.037 382.832 331.46 378.223 331.471 374.865L331.5 374.634L331.493 324.942C333.199 324.959 335.028 325.154 336.622 324.468L349.65 306.69C354.688 306.079 360.336 306.445 365.422 306.634C369.413 306.631 376.935 305.694 380.381 307.059C381.518 306.4 383.485 306.655 384.817 306.652L395.874 306.711C400.454 306.864 406.503 306.147 410.915 307.039Z"/>
	<path fill="#0B1938" transform="scale(0.488281 0.488281)" d="M380.381 307.059C381.518 306.4 383.485 306.655 384.817 306.652L395.874 306.711C400.454 306.864 406.503 306.147 410.915 307.039C406.569 312.685 401.688 318.316 398.106 324.466C396.782 325.311 395.041 325.017 393.526 325.019L381.497 325.01C376.79 325.545 371.766 325.16 367.028 325.004L380.381 307.059Z"/>
	<path fill="#FCFCFD" transform="scale(0.488281 0.488281)" d="M380.381 307.059C381.518 306.4 383.485 306.655 384.817 306.652L395.874 306.711L381.497 325.01C376.79 325.545 371.766 325.16 367.028 325.004L380.381 307.059Z"/>
	<path fill="#FCFCFD" transform="scale(0.488281 0.488281)" d="M349.65 306.69C354.688 306.079 360.336 306.445 365.422 306.634C369.413 306.631 376.935 305.694 380.381 307.059L367.028 325.004L351.516 324.885C347.788 325.261 339.968 325.873 336.622 324.468L349.65 306.69Z"/>
	<path fill="#0B1938" transform="scale(0.488281 0.488281)" d="M365.422 306.634C369.413 306.631 376.935 305.694 380.381 307.059L367.028 325.004L351.516 324.885L365.422 306.634Z"/>
	<path fill="#0B1938" transform="scale(0.488281 0.488281)" d="M410.915 307.039C412.444 305.635 423.332 306.513 425.947 306.544L438 306.632L438.595 307.5C438.398 308.403 438.265 309.225 437.887 310.068C439.304 313.356 438.696 321.322 438.162 324.98C435.055 324.956 430.996 325.387 428.071 324.431C426.473 325.312 424.451 325 422.676 325.004L411.973 324.959C408.806 325.28 400.759 325.881 398.106 324.466C401.688 318.316 406.569 312.685 410.915 307.039Z"/>
	<path fill="#FCFCFD" transform="scale(0.488281 0.488281)" d="M437.887 310.068C439.304 313.356 438.696 321.322 438.162 324.98C435.055 324.956 430.996 325.387 428.071 324.431L437.887 310.068Z"/>
	<path fill="#FCFCFD" transform="scale(0.488281 0.488281)" d="M410.915 307.039C412.444 305.635 423.332 306.513 425.947 306.544L411.973 324.959C408.806 325.28 400.759 325.881 398.106 324.466C401.688 318.316 406.569 312.685 410.915 307.039Z"/>
	<path fill="#E5E1C2" transform="scale(0.488281 0.488281)" d="M331.471 374.865L402.527 374.872L402.515 386.06L354.086 385.947C346.881 385.934 338.643 385.169 331.573 386.117L331.171 386.013C332.037 382.832 331.46 378.223 331.471 374.865Z"/>
	<path fill="#E5E1C2" transform="scale(0.488281 0.488281)" d="M331.493 398.077L402.636 398.452L402.622 410.028L331.432 410.025L331.134 409.983C331.728 406.465 331.414 401.625 331.082 398.067L331.493 398.077Z"/>
	<path fill="#FCFCFD" transform="scale(0.488281 0.488281)" d="M476.196 139.806C492.923 130.004 510.645 125.252 530.025 125.443C550.87 126.729 567.059 133.219 584.393 144.752L598.462 157.104L598.503 157.09C600.563 157.913 601.976 158.918 603.686 160.31C628.037 180.13 642.748 206.84 646.339 237.953C648.075 252.987 646.192 268.634 641.763 283.073C640.141 288.359 637.561 293.799 636.599 299.23L636.489 299.817L655.972 299.745C661.024 299.952 666.591 300.269 671.624 299.674L671.516 330.057L671.527 357.437L671.682 384.856L655.945 384.96L635.51 385.06L632.573 384.839L632.622 357.448L601.892 357.383L601.943 376.189C601.921 378.09 603.63 380.371 604.955 381.648C607.886 384.472 611.363 384.555 615.168 384.776L615.083 444.582C610.08 445.565 603.855 444.901 598.718 444.897L563.679 444.855C558.886 444.906 553.028 445.63 548.384 444.569L548.091 444.528L535.53 444.836L535.527 432.515L535.387 358.126L535.093 323.388L529.88 323.446L527.982 323.914C506.9 324.356 487.207 317.002 469.684 305.74C467.084 303.304 464.026 301.297 461.322 298.959C455.672 294.072 450.501 288.345 446.192 282.252C431.229 261.096 425.681 232.598 430.192 207.268C433.645 187.873 443.142 169.273 457.012 155.265C462.858 149.361 469.4 144.538 476.196 139.806Z"/>
	<path fill="#E53B34" transform="scale(0.488281 0.488281)" d="M529.534 284.047L519.231 283.665C503.59 281.906 489.594 272.87 479.933 260.75C470.783 249.271 465.952 233.027 467.789 218.412C469.567 204.267 474.881 192.285 485.062 182.105C497.658 169.511 512.471 164.542 529.994 164.498L530.016 182.434C530.028 185.004 530.458 188.487 529.75 190.888C528.078 191.004 526.362 191.034 524.728 191.402L529.989 191.37L529.972 211.033L530.644 211.589L530.978 235.964L530.345 236.444L530.096 256.65L524.215 256.645L524.661 256.741C526.401 257.103 528.048 257.202 529.82 257.239L529.846 283.25C531.279 283.923 532.548 283.457 534.098 283.566L529.534 284.047Z"/>
	<path fill="#232F52" transform="scale(0.488281 0.488281)" d="M524.728 191.402L529.989 191.37L529.972 211.033L530.644 211.589L530.978 235.964L530.345 236.444L530.096 256.65L524.215 256.645C518.308 256.185 512.393 253.847 507.686 250.27C500.429 244.755 495.909 236.238 494.816 227.25C493.798 218.883 496.501 210.302 501.724 203.727C507.678 196.231 515.334 192.496 524.728 191.402Z"/>
	<path fill="#FCFCFD" transform="scale(0.488281 0.488281)" d="M530.345 236.444L526.979 236.401C523.026 236.231 519.933 234.606 517.348 231.642C514.93 228.871 514.231 225.828 514.49 222.25C514.749 218.67 516.55 215.641 519.307 213.369C522.536 210.709 526.044 210.75 529.972 211.033L530.644 211.589L530.978 235.964L530.345 236.444Z"/>
	<path fill="#E3E2E0" transform="scale(0.488281 0.488281)" d="M530.025 125.443C550.87 126.729 567.059 133.219 584.393 144.752L598.462 157.104L598.503 157.09C602.713 162.318 606.876 167.461 610.37 173.214C622.388 193.006 627.014 214.659 624.49 237.634C621.663 263.365 607.671 287.184 587.572 303.288C577.304 311.516 565.038 317.428 552.25 320.483C546.558 321.843 540.862 322.526 535.093 323.388L529.88 323.446L529.534 284.047L534.098 283.566C532.548 283.457 531.279 283.923 529.846 283.25L529.82 257.239C528.048 257.202 526.401 257.103 524.661 256.741L524.215 256.645L530.096 256.65L530.345 236.444L530.978 235.964L530.644 211.589L529.972 211.033L529.989 191.37L524.728 191.402C526.362 191.034 528.078 191.004 529.75 190.888C530.458 188.487 530.028 185.004 530.016 182.434L529.994 164.498L530.025 125.443Z"/>
	<path fill="#C3252D" transform="scale(0.488281 0.488281)" d="M529.994 164.498C544.904 165.191 560.2 172.114 570.321 183.159C581.117 194.939 587.232 211.379 586.362 227.391C585.451 244.184 578.308 258.257 565.75 269.419C558.153 276.172 544.528 283.299 534.098 283.566C532.548 283.457 531.279 283.923 529.846 283.25L529.82 257.239C528.048 257.202 526.401 257.103 524.661 256.741L524.215 256.645L530.096 256.65L530.345 236.444L530.978 235.964L530.644 211.589L529.972 211.033L529.989 191.37L524.728 191.402C526.362 191.034 528.078 191.004 529.75 190.888C530.458 188.487 530.028 185.004 530.016 182.434L529.994 164.498Z"/>
	<path fill="#0B1938" transform="scale(0.488281 0.488281)" d="M529.989 191.37C539.72 192.801 547.3 196.267 553.304 204.269C556.513 208.545 558.215 213.522 559.077 218.75L559.208 219.504C560.54 227.779 558.445 236.92 553.362 243.626C548.218 250.415 539.475 255.577 531.024 256.557L530.096 256.65L530.345 236.444L530.978 235.964L530.644 211.589L529.972 211.033L529.989 191.37Z"/>
	<path fill="#E3E2E0" transform="scale(0.488281 0.488281)" d="M530.644 211.589C533.949 212.673 536.356 214.496 538.021 217.599C539.611 220.562 540.003 224.28 538.993 227.5C537.885 231.035 535.512 234.024 532.12 235.563C531.565 235.815 531.611 235.775 530.978 235.964L530.644 211.589Z"/>
	<path fill="#0B8C88" transform="scale(0.488281 0.488281)" d="M598.503 157.09C600.563 157.913 601.976 158.918 603.686 160.31C628.037 180.13 642.748 206.84 646.339 237.953C648.075 252.987 646.192 268.634 641.763 283.073C640.141 288.359 637.561 293.799 636.599 299.23L636.489 299.817L655.972 299.745C661.024 299.952 666.591 300.269 671.624 299.674L671.516 330.057L671.527 357.437L671.682 384.856L655.945 384.96L635.51 385.06L632.573 384.839L632.622 357.448L601.892 357.383L601.943 376.189C601.921 378.09 603.63 380.371 604.955 381.648C607.886 384.472 611.363 384.555 615.168 384.776L615.083 444.582C610.08 445.565 603.855 444.901 598.718 444.897L563.679 444.855C558.886 444.906 553.028 445.63 548.384 444.569L548.091 444.528L535.53 444.836L535.527 432.515L535.387 358.126L535.093 323.388C540.862 322.526 546.558 321.843 552.25 320.483C565.038 317.428 577.304 311.516 587.572 303.288C607.671 287.184 621.663 263.365 624.49 237.634C627.014 214.659 622.388 193.006 610.37 173.214C606.876 167.461 602.713 162.318 598.503 157.09Z"/>
	<path fill="#0B1938" transform="scale(0.488281 0.488281)" d="M601.503 346.112L587.915 346.116C585.404 346.17 582.469 346.531 580.007 346.166C578.432 345.932 578.423 345.502 577.564 344.25C577.371 342.299 577.349 340.741 577.795 338.826C578.114 338.555 578.35 338.134 578.75 338.014C580.08 337.614 583.08 338.014 584.553 338.015L601.76 338.018C601.911 340.062 602.476 344.349 601.503 346.112Z"/>
	<path fill="#232F52" transform="scale(0.488281 0.488281)" d="M601.76 338.018C601.338 335.613 601.555 332.875 601.54 330.42L601.489 317.122C601.478 314.195 600.973 310.195 602.111 307.508L602.35 306.995C603.11 305.296 604.049 304.051 605.395 302.748C606.115 302.051 607.98 300.336 608.932 300.075C610.927 299.529 614.061 299.762 616.207 299.723L632.92 299.792C632.876 305.514 632.306 311.793 632.885 317.456L632.622 357.448L601.892 357.383C601.937 354.078 602.614 349.161 601.503 346.112C602.476 344.349 601.911 340.062 601.76 338.018Z"/>
	<path fill="#11C0B0" transform="scale(0.488281 0.488281)" d="M535.387 358.126C539.796 358.788 542.775 360.369 545.421 364C550.142 370.481 552.778 378.739 555.348 386.273C559.962 399.797 563.78 413.492 566.887 427.44C568.134 433.035 568.722 438.93 570.323 444.411L548.384 444.569L548.091 444.528L535.53 444.836L535.527 432.515L535.387 358.126Z"/>
	<path fill="#088DB8" transform="scale(0.488281 0.488281)" d="M535.527 432.515C539.599 436.36 544.612 440.177 548.091 444.528L535.53 444.836L535.527 432.515Z"/>
	<path fill="#E5963A" transform="scale(0.488281 0.488281)" d="M636.489 299.817L655.972 299.745C661.024 299.952 666.591 300.269 671.624 299.674L671.516 330.057L671.527 357.437L671.682 384.856L655.945 384.96L635.51 385.06L632.573 384.839L632.622 357.448L632.885 317.456C632.306 311.793 632.876 305.514 632.92 299.792L636.489 299.817Z"/>
	<path fill="#232F52" transform="scale(0.488281 0.488281)" d="M655.972 299.745C661.024 299.952 666.591 300.269 671.624 299.674L671.516 330.057L671.527 357.437L655.976 357.413L655.972 299.745Z"/>
	<path fill="#ED7E2A" transform="scale(0.488281 0.488281)" d="M632.885 317.456L632.933 318.093L632.927 357.381L655.976 357.413L671.527 357.437L671.682 384.856L655.945 384.96L635.51 385.06L632.573 384.839L632.622 357.448L632.885 317.456Z"/>
	<path fill="#0B1938" transform="scale(0.488281 0.488281)" d="M655.976 357.413L671.527 357.437L671.682 384.856L655.945 384.96L655.976 357.413Z"/>
</svg>
