<?xml version="1.0" encoding="utf-8" ?>
<svg xmlns="http://www.w3.org/2000/svg" xmlns:xlink="http://www.w3.org/1999/xlink" width="500" height="500">
	<path fill="#FEFDFC" transform="scale(0.488281 0.488281)" d="M-0 -0L1024 0L1024 1024L-0 1024L0 -0Z"/>
	<path fill="#368E73" transform="scale(0.488281 0.488281)" d="M645.66 89.4984C657.153 97.3009 667.314 105.494 677.223 115.241C677.205 116.485 676.125 117.774 675.473 118.85L669.867 128.235L659.315 145.293L655.34 149.812C653.562 151.898 651.779 153.98 650.257 156.266C648.875 158.343 647.539 161.027 645.846 162.82C638.5 152.621 629.084 144.772 619.446 136.861C622.218 133.009 624.53 128.265 626.57 123.993L626.948 123.993C628.637 119.855 631.188 115.809 633.235 111.803C636.94 104.554 640.463 95.7703 645.66 89.4984Z"/>
	<path fill="#BDB1B7" transform="scale(0.488281 0.488281)" d="M626.57 123.993L626.948 123.993C631.865 127.936 636.94 131.672 641.527 136.003C646.276 140.487 650.454 145.445 655.34 149.812C653.562 151.898 651.779 153.98 650.257 156.266C648.875 158.343 647.539 161.027 645.846 162.82C638.5 152.621 629.084 144.772 619.446 136.861C622.218 133.009 624.53 128.265 626.57 123.993Z"/>
	<path fill="#368E73" transform="scale(0.488281 0.488281)" d="M659.6 831.482C660.915 831.068 662.092 830.747 663.466 830.563C670.938 842.921 675.787 857.343 680.556 870.939C682.039 875.167 683.145 879.888 685.022 883.926C691.249 903.716 695.131 924.534 697.595 945.111C684.589 950.681 670.148 954.089 656.416 957.384C655.472 955.908 655.398 953.74 655.147 952.012L653.734 942.389L647.2 906.422C644.31 894.043 640.661 881.668 638.492 869.146C639.499 868.713 640.4 868.267 641.311 867.65C652.81 859.859 656.952 844.207 659.6 831.482Z"/>
	<path fill="#E75A76" transform="scale(0.488281 0.488281)" d="M143.022 339.06C150.738 348.382 160.446 356.645 169.295 364.93L193.513 388.112L202.546 395.967C203.221 396.58 204.956 397.866 205.362 398.616C205.535 398.937 205.395 399.343 205.412 399.707C201.334 398.999 197.484 398.407 193.338 398.486C180.308 408.042 176.585 426.183 174.243 441.24C172.59 451.868 172.382 462.451 172.543 473.183L122.104 467.356C118.644 466.917 112.149 467.095 109.268 465.496C110.152 454.217 112.331 442.85 114.466 431.75C120.662 399.535 129.773 369.129 143.022 339.06Z"/>
	<path fill="#4EC19E" transform="scale(0.488281 0.488281)" d="M436.117 96.6966L432.19 80.1799C437.138 76.854 442.504 74.3322 447.909 71.8462C460.488 66.0609 473.311 61.7316 486.877 58.9605C541.377 47.8277 599.152 58.7394 645.66 89.4984C640.463 95.7703 636.94 104.554 633.235 111.803C631.188 115.809 628.637 119.855 626.948 123.993L626.57 123.993C624.53 128.265 622.218 133.009 619.446 136.861C607.078 127.686 593.325 120.792 579.076 115.072C551.854 105.036 522.98 103.69 494.537 108.823L476.045 113.723C465.864 117.634 457.051 122.195 448.103 128.442L444.005 119.667C443.366 117.97 442.427 116.359 441.587 114.752C438.546 110.335 437.461 101.955 436.117 96.6966Z"/>
	<path fill="#FEFDFC" transform="scale(0.488281 0.488281)" d="M441.587 114.752C474.489 92.1592 516.75 84.5332 555.815 91.7692C578.007 95.8799 600.225 104.295 618.55 117.665C621.073 119.506 624.544 121.65 626.57 123.993C624.53 128.265 622.218 133.009 619.446 136.861C607.078 127.686 593.325 120.792 579.076 115.072C551.854 105.036 522.98 103.69 494.537 108.823L476.045 113.723C465.864 117.634 457.051 122.195 448.103 128.442L444.005 119.667C443.366 117.97 442.427 116.359 441.587 114.752Z"/>
	<path fill="#FEFDFC" transform="scale(0.488281 0.488281)" d="M445.292 749.935C455.241 756.139 468.477 757.045 479.891 758.267C485.002 758.814 490.504 759.632 495.629 759.493L496.09 759.5C500.665 760.482 506.28 760.299 510.981 760.398C538.207 760.973 565.135 757.619 591.819 752.432C592.777 759.069 595.114 765.731 597.601 771.942C596.229 772.288 594.917 772.588 593.505 772.741L592.994 776.343L592.954 776.752L591.096 806.615L591.827 807C593.108 816.601 592.103 826.431 594.237 835.945C591.771 841.854 590.69 846.949 591.619 853.426L592.339 853.926L611.475 835.203C611.86 845.997 614.313 855.886 622.563 863.41C627.082 867.532 632.408 869.396 638.492 869.146C640.661 881.668 644.31 894.043 647.2 906.422L653.734 942.389L655.147 952.012C655.398 953.74 655.472 955.908 656.416 957.384C582.928 973.621 505.333 976.709 431.25 962.501C411.936 958.797 393.191 953.667 374.442 947.808L387.722 903.836C390.39 894.553 393.898 885.533 397.181 876.457C408.101 846.265 420.757 816.197 436.885 788.372C439.576 783.728 442.336 778.025 446.075 774.192L446.36 773.706C446.744 773.175 447.426 772.614 447.881 772.162C448.207 771.321 448.518 770.678 448.48 769.75C448.368 766.948 446.916 763.478 446.301 760.664C445.525 757.116 445.414 753.553 445.292 749.935Z"/>
	<defs>
		<linearGradient id="gradient_0" gradientUnits="userSpaceOnUse" x1="522.34833" y1="786.18787" x2="519.63702" y2="764.66467">
			<stop offset="0" stop-color="#D3B7AB"/>
			<stop offset="1" stop-color="#B4BCC3"/>
		</linearGradient>
	</defs>
	<path fill="url(#gradient_0)" transform="scale(0.488281 0.488281)" d="M447.881 772.162L448.312 772.249C452.635 773.15 456.696 774.586 461.103 775.34C470.241 776.904 479.601 777.574 488.844 778.265C512.187 780.011 535.385 779.852 558.709 777.743C564.959 777.178 571.293 776.563 577.477 775.495C582.385 774.648 588.603 772.653 593.505 772.741L592.994 776.343L592.954 776.752C564.322 783.875 534.062 785.108 504.689 783.464C489.202 782.597 473.462 781.061 458.358 777.419C454.282 776.436 450.367 774.922 446.36 773.706C446.744 773.175 447.426 772.614 447.881 772.162Z"/>
	<path fill="#368E73" transform="scale(0.488281 0.488281)" d="M591.096 806.615L591.827 807C593.108 816.601 592.103 826.431 594.237 835.945C591.771 841.854 590.69 846.949 591.619 853.426L592.339 853.926C594.516 857.305 595.87 880.72 596.385 885.784L602.642 943.344C578.99 954.259 554.555 958.45 528.671 959.634C492.5 961.29 456.195 956.421 422.153 943.942L410.446 939.461C408.92 938.831 407.067 938.307 406.038 937C406.135 935.357 406.201 933.766 406.586 932.161C445.264 948.386 484.876 955.675 526.76 953.94C539.233 953.423 551.744 952.49 564 949.989C575.175 947.708 585.851 944.154 596.587 940.382C594.309 930.065 593.813 918.685 592.945 908.143C590.16 874.298 589.247 840.531 591.096 806.615Z"/>
	<path fill="#FEFDFC" transform="scale(0.488281 0.488281)" d="M445.292 749.935C455.241 756.139 468.477 757.045 479.891 758.267C485.002 758.814 490.504 759.632 495.629 759.493L496.09 759.5C500.665 760.482 506.28 760.299 510.981 760.398C538.207 760.973 565.135 757.619 591.819 752.432C592.777 759.069 595.114 765.731 597.601 771.942C596.229 772.288 594.917 772.588 593.505 772.741C588.603 772.653 582.385 774.648 577.477 775.495C571.293 776.563 564.959 777.178 558.709 777.743C535.385 779.852 512.187 780.011 488.844 778.265C479.601 777.574 470.241 776.904 461.103 775.34C456.696 774.586 452.635 773.15 448.312 772.249L447.881 772.162C448.207 771.321 448.518 770.678 448.48 769.75C448.368 766.948 446.916 763.478 446.301 760.664C445.525 757.116 445.414 753.553 445.292 749.935Z"/>
	<path fill="#4EC19E" transform="scale(0.488281 0.488281)" d="M387.722 903.836C390.39 894.553 393.898 885.533 397.181 876.457C408.101 846.265 420.757 816.197 436.885 788.372C439.576 783.728 442.336 778.025 446.075 774.192C445.085 778.383 442.396 782.332 440.669 786.293C437.106 794.458 433.9 802.579 431.314 811.113C422.028 841.767 414.799 872.987 409.93 904.656L406.586 932.161C406.201 933.766 406.135 935.357 406.038 937C407.067 938.307 408.92 938.831 410.446 939.461L422.153 943.942C456.195 956.421 492.5 961.29 528.671 959.634C554.555 958.45 578.99 954.259 602.642 943.344L596.385 885.784C595.87 880.72 594.516 857.305 592.339 853.926L611.475 835.203C611.86 845.997 614.313 855.886 622.563 863.41C627.082 867.532 632.408 869.396 638.492 869.146C640.661 881.668 644.31 894.043 647.2 906.422L653.734 942.389L655.147 952.012C655.398 953.74 655.472 955.908 656.416 957.384C582.928 973.621 505.333 976.709 431.25 962.501C411.936 958.797 393.191 953.667 374.442 947.808L387.722 903.836Z"/>
	<path fill="#F3899A" transform="scale(0.488281 0.488281)" d="M436.117 96.6966C437.461 101.955 438.546 110.335 441.587 114.752C442.427 116.359 443.366 117.97 444.005 119.667C417.536 135.698 396.379 168.024 388.999 197.75C384.586 215.524 385.611 234.866 388.953 252.732C390.455 260.76 392.326 268.853 395.848 276.263C392.191 284.984 386.844 292.701 377.75 296.39C367.873 300.397 356.494 298.797 346.928 294.6C337.772 290.582 329.781 284.499 323.476 276.747C324.441 293.067 326.642 314.838 339.815 326.345C343.126 329.237 346.676 330.956 350.712 332.545C343.542 346.26 337.665 360.311 342.578 376.031C343.109 377.73 343.712 379.636 344.687 381.116C348.754 389.738 355.336 395.754 363.615 400.298C361.071 401.848 345.304 400.085 341.306 400.047C317.062 399.817 293.14 401.391 268.997 403.408C264.927 403.747 257.425 403.24 254.069 405.284L254.393 405.797L205.749 399.903L205.412 399.707C205.395 399.343 205.535 398.937 205.362 398.616C204.956 397.866 203.221 396.58 202.546 395.967L193.513 388.112L169.295 364.93C160.446 356.645 150.738 348.382 143.022 339.06L160.581 302.888C204.342 223.198 274.665 159.591 357.964 123.244C383.235 112.217 409.708 104.426 436.117 96.6966Z"/>
	<path fill="#E75A76" transform="scale(0.488281 0.488281)" d="M752.447 649.768C761.011 646.675 769.463 642.298 777.618 638.259C818.109 618.205 855.152 592.027 886.237 559.14C892.797 552.199 899.31 545.006 905.25 537.528C909.071 532.717 912.697 526.172 917.291 522.164L917.63 521.877C917.123 534.195 916.601 546.594 915.153 558.844C906.563 631.504 880.124 701.45 836.12 760.077C820.923 780.324 803.227 799.179 784.622 816.319C754.607 843.97 721.14 865.227 685.022 883.926C683.145 879.888 682.039 875.167 680.556 870.939C675.787 857.343 670.938 842.921 663.466 830.563C662.092 830.747 660.915 831.068 659.6 831.482C656.952 844.207 652.81 859.859 641.311 867.65C640.4 868.267 639.499 868.713 638.492 869.146C632.408 869.396 627.082 867.532 622.563 863.41C614.313 855.886 611.86 845.997 611.475 835.203L592.339 853.926L591.619 853.426C590.69 846.949 591.771 841.854 594.237 835.945C592.103 826.431 593.108 816.601 591.827 807L591.096 806.615L592.954 776.752L592.994 776.343L593.505 772.741C594.917 772.588 596.229 772.288 597.601 771.942C595.114 765.731 592.777 759.069 591.819 752.432L592.387 752.145C597.753 751.492 605.261 750.424 609.981 747.838C610.455 744.635 612.196 741.42 613.504 738.467L620.793 722.133L637.879 681.168L684.081 671.254L697.952 666.685C715.908 659.898 732.648 648.794 745.808 634.867C747.716 638.103 748.927 641.816 750.478 645.244C751.025 646.455 752.355 648.538 752.447 649.768Z"/>
	<path fill="#F2B186" transform="scale(0.488281 0.488281)" d="M745.808 634.867C747.716 638.103 748.927 641.816 750.478 645.244C751.025 646.455 752.355 648.538 752.447 649.768L762.64 665.631C768.091 674.43 772.949 682.698 770.715 693.47C768.195 705.619 759.63 717.838 752.703 727.925C740.752 745.326 727.778 761.296 714.298 777.485C709.547 783.19 704.857 789.03 699.582 794.26C698.024 795.805 696.198 797.985 694.327 799.098L693.076 799.745C694.103 804.785 694.199 809.548 691.346 814.038C689.552 816.86 686.75 818.813 683.475 819.465C680.156 820.126 676.764 820.225 673.472 819.36C670.763 823.991 668.102 827.699 663.466 830.563C662.092 830.747 660.915 831.068 659.6 831.482C656.952 844.207 652.81 859.859 641.311 867.65C640.4 868.267 639.499 868.713 638.492 869.146C632.408 869.396 627.082 867.532 622.563 863.41C614.313 855.886 611.86 845.997 611.475 835.203L592.339 853.926L591.619 853.426C590.69 846.949 591.771 841.854 594.237 835.945C592.103 826.431 593.108 816.601 591.827 807L591.096 806.615L592.954 776.752L592.994 776.343L593.505 772.741C594.917 772.588 596.229 772.288 597.601 771.942C595.114 765.731 592.777 759.069 591.819 752.432L592.387 752.145C597.753 751.492 605.261 750.424 609.981 747.838C610.455 744.635 612.196 741.42 613.504 738.467L620.793 722.133L637.879 681.168L684.081 671.254L697.952 666.685C715.908 659.898 732.648 648.794 745.808 634.867Z"/>
	<path fill="#DAF2FA" transform="scale(0.488281 0.488281)" d="M659.283 805.135C658.734 802.037 658.66 798.462 659.9 795.515C661.551 791.589 664.824 788.728 668.75 787.158C673.132 785.406 677.91 785.965 682.155 787.739C675.649 788.641 666.816 788.071 662.337 793.984C661.294 795.361 660.198 797.286 659.943 799C659.638 801.048 660.044 803.166 659.283 805.135Z"/>
	<defs>
		<linearGradient id="gradient_1" gradientUnits="userSpaceOnUse" x1="667.97723" y1="825.479" x2="657.52362" y2="818.25037">
			<stop offset="0" stop-color="#D88B56"/>
			<stop offset="1" stop-color="#C97B60"/>
		</linearGradient>
	</defs>
	<path fill="url(#gradient_1)" transform="scale(0.488281 0.488281)" d="M660.232 808.406C663.107 813.521 667.15 817.579 673.001 819.253L673.472 819.36C670.763 823.991 668.102 827.699 663.466 830.563C662.092 830.747 660.915 831.068 659.6 831.482C661.528 827.332 663.576 823.335 665.012 818.977C663.759 816.864 661.903 815.272 660.566 813.25C659.507 811.649 659.932 810.18 660.232 808.406Z"/>
	<path fill="#C6DCB6" transform="scale(0.488281 0.488281)" d="M682.155 787.739L685.663 789.845L687.87 791.959C689.761 794.102 691.903 796.481 692.483 799.361L693.076 799.745C694.103 804.785 694.199 809.548 691.346 814.038C689.552 816.86 686.75 818.813 683.475 819.465C680.156 820.126 676.764 820.225 673.472 819.36L673.001 819.253C667.15 817.579 663.107 813.521 660.232 808.406L659.283 805.135C660.044 803.166 659.638 801.048 659.943 799C660.198 797.286 661.294 795.361 662.337 793.984C666.816 788.071 675.649 788.641 682.155 787.739Z"/>
	<path fill="#4EC19E" transform="scale(0.488281 0.488281)" d="M687.87 791.959C689.761 794.102 691.903 796.481 692.483 799.361L691.622 800.056C691.644 801.058 691.58 800.754 691.751 801.513C692.46 804.669 692.726 808.252 691.141 811.188C689.025 815.108 685.577 816.672 681.5 817.847C680.631 818.098 680.694 818.145 679.755 818.25C673.722 818.923 669.33 816.649 664.951 812.801C668.867 811.858 671.969 810.76 675.21 808.316C678.819 805.594 685.063 801.118 686.886 796.941C687.529 795.468 687.652 793.557 687.87 791.959Z"/>
	<path fill="#D5835C" transform="scale(0.488281 0.488281)" d="M745.808 634.867C747.716 638.103 748.927 641.816 750.478 645.244C751.025 646.455 752.355 648.538 752.447 649.768L762.64 665.631C768.091 674.43 772.949 682.698 770.715 693.47C768.195 705.619 759.63 717.838 752.703 727.925C740.752 745.326 727.778 761.296 714.298 777.485C709.547 783.19 704.857 789.03 699.582 794.26C698.024 795.805 696.198 797.985 694.327 799.098L693.076 799.745L692.483 799.361C691.903 796.481 689.761 794.102 687.87 791.959L685.663 789.845C697.013 786.276 706.478 774.275 713.869 765.515L729.825 745.679C738.164 734.375 745.56 721.843 750.979 708.876C753.661 702.459 756.351 695.903 755.221 688.816L755.084 688C753.847 680.427 749.855 673.678 743.797 668.913C733.689 660.962 721.094 663.105 709.517 665.61C706.877 666.181 704.216 667.167 701.537 667.453C700.497 667.564 699.561 667.75 698.542 667.996L697.952 666.685C715.908 659.898 732.648 648.794 745.808 634.867Z"/>
	<path fill="#E75A76" transform="scale(0.488281 0.488281)" d="M684.081 671.254L697.952 666.685L698.542 667.996L698.994 668.518C706.299 676.818 715.736 683.213 724.388 690.002L669.67 776.406C664.644 783.837 660.128 791.991 654.357 798.862C653.021 800.453 650.65 803.197 648.5 803.515C647.412 803.676 646.162 803.712 645.113 803.369C637.173 804.31 629.225 807.569 622.224 811.344C611.499 817.945 601.558 825.531 594.237 835.945C592.103 826.431 593.108 816.601 591.827 807L591.096 806.615L592.954 776.752L592.994 776.343L593.505 772.741C594.917 772.588 596.229 772.288 597.601 771.942C595.114 765.731 592.777 759.069 591.819 752.432L592.387 752.145C597.753 751.492 605.261 750.424 609.981 747.838C610.455 744.635 612.196 741.42 613.504 738.467L620.793 722.133L637.879 681.168L684.081 671.254Z"/>
	<path fill="#368E73" transform="scale(0.488281 0.488281)" d="M609.981 747.838C610.8 747.802 611.796 747.473 612.428 748.085C613.594 749.213 614.125 751.251 614.705 752.764C616.206 756.686 617.411 761.003 619.413 764.693L645.113 803.369C637.173 804.31 629.225 807.569 622.224 811.344C611.499 817.945 601.558 825.531 594.237 835.945C592.103 826.431 593.108 816.601 591.827 807L591.096 806.615L592.954 776.752L592.994 776.343L593.505 772.741C594.917 772.588 596.229 772.288 597.601 771.942C595.114 765.731 592.777 759.069 591.819 752.432L592.387 752.145C597.753 751.492 605.261 750.424 609.981 747.838Z"/>
	<path fill="#E1BDAC" transform="scale(0.488281 0.488281)" d="M609.981 747.838C610.8 747.802 611.796 747.473 612.428 748.085C613.594 749.213 614.125 751.251 614.705 752.764C616.206 756.686 617.411 761.003 619.413 764.693C614.855 766.942 610.015 768.401 605.159 769.861C603.088 770.483 600.551 770.945 598.619 771.869L597.601 771.942C595.114 765.731 592.777 759.069 591.819 752.432L592.387 752.145C597.753 751.492 605.261 750.424 609.981 747.838Z"/>
	<path fill="#4EC19E" transform="scale(0.488281 0.488281)" d="M599.189 774.886L622.224 811.344C611.499 817.945 601.558 825.531 594.237 835.945C592.103 826.431 593.108 816.601 591.827 807L591.096 806.615L592.954 776.752L592.994 776.343C595.075 776.586 597.258 775.584 599.189 774.886Z"/>
	<path fill="#4EC19E" transform="scale(0.488281 0.488281)" d="M567.959 439.044C578.103 444.681 585.23 454.533 587.745 465.965L587.756 466.252L588.442 468.68C598.517 473.9 609.873 477.518 620.5 481.539C623.907 482.828 628.481 483.986 631.544 485.874C638.345 487.257 644.806 489.314 651.346 491.619C655.143 492.957 659.583 494.357 662.834 496.775C668.165 500.739 672.679 506.999 676.318 512.483L716.87 585.671L718.897 588.394C722.54 590.756 725.593 596.632 727.75 600.349L738.296 618.45C740.086 621.595 741.751 625.21 744.421 627.676L747.836 622.629L753.193 626.104L745.808 634.867C732.648 648.794 715.908 659.898 697.952 666.685L684.081 671.254L637.879 681.168L620.793 722.133L613.504 738.467C612.196 741.42 610.455 744.635 609.981 747.838C605.261 750.424 597.753 751.492 592.387 752.145L591.819 752.432C565.135 757.619 538.207 760.973 510.981 760.398C506.28 760.299 500.665 760.482 496.09 759.5L495.629 759.493C490.504 759.632 485.002 758.814 479.891 758.267C468.477 757.045 455.241 756.139 445.292 749.935L424.356 696.835L422.006 691.205C419.61 690.516 415.297 689.422 413.57 687.726L413.998 686.738L410.931 679.659L407.796 677.692C393.789 671.049 379.767 663.928 367.698 654.103C367.616 650.687 380.551 605.913 382.159 604.177L385.716 604.168L399.979 553.152C403.575 541.438 406.774 529.613 412.514 518.722C416.644 510.886 423.641 502.079 431.137 497.359C439.71 491.961 450.166 489.056 459.767 486.088C461.799 483.222 466.267 479.119 469.338 477.423C473.857 476.344 478.287 473.585 482.318 471.344L483.275 469.831C489.473 459.39 494.681 448.644 506 442.797C507.317 442.327 508.478 441.835 509.709 441.175C510.816 445.208 511.081 449.577 511.654 453.719C513.701 468.502 515.036 486.028 522.535 499.245C522.999 500.063 523.244 500.793 523.503 501.69L524.494 502.022L525.503 502.393C529.512 500.551 533.904 496.018 537.175 493.004C546.048 484.829 554.129 475.911 560.516 465.644C563.237 461.269 566.017 456.154 567.167 451.1C568.015 447.378 567.806 442.876 567.959 439.044Z"/>
	<path fill="#253C44" transform="scale(0.488281 0.488281)" d="M499.483 659.75C500.566 659.432 501.458 659.285 502.595 659.36C505.023 659.522 507.012 660.829 508.478 662.75C509.992 664.733 510.471 667.59 509.927 670C509.343 672.586 506.671 674.096 504.544 675.242C503.546 675.372 502.469 675.551 501.465 675.42C499.104 675.112 496.982 673.685 495.643 671.75C494.379 669.923 494.156 667.364 494.73 665.252C495.488 662.462 497.035 661.098 499.483 659.75Z"/>
	<path fill="#253C44" transform="scale(0.488281 0.488281)" d="M507.835 590.543C509.056 590.505 510.159 590.75 511.316 591.118C513.417 591.785 515.186 593.07 516.151 595.095C517.205 597.308 517.211 599.762 516.199 601.99C515.023 604.58 512.622 605.841 510.112 606.835C508.527 606.809 506.544 606.775 505.083 606.142C503.172 605.313 501.708 603.529 501.056 601.576C500.308 599.339 500.4 596.929 501.515 594.825C502.926 592.164 505.128 591.38 507.835 590.543Z"/>
	<path fill="#FEFDFC" transform="scale(0.488281 0.488281)" d="M512.909 525.315L521.367 525.459L524.627 534.974L522.941 555.589L498.071 556.896C502.1 550.837 505.17 543.714 508.195 537.097C510.233 533.436 511.496 529.251 512.909 525.315Z"/>
	<path fill="#368E73" transform="scale(0.488281 0.488281)" d="M592.387 752.145C592.65 746.681 594.155 741.152 595.081 735.762L599.372 707.771C602.644 684.014 603.559 660.234 603.767 636.282L603.629 595.973L603.871 584.045C603.943 582.918 603.823 581.276 604.142 580.25C604.307 579.718 604.936 578.96 605.244 578.461C606.834 585.739 608.744 592.438 612.247 599.048C620.485 611.948 633.245 621.02 647.562 626.348C649.245 626.847 652.283 628.129 653.941 627.545L655.341 632.404L637.879 681.168L620.793 722.133L613.504 738.467C612.196 741.42 610.455 744.635 609.981 747.838C605.261 750.424 597.753 751.492 592.387 752.145Z"/>
	<path fill="#FEFDFC" transform="scale(0.488281 0.488281)" d="M567.959 439.044C578.103 444.681 585.23 454.533 587.745 465.965L587.756 466.252L588.442 468.68C591.659 491.801 590.698 514.575 586.784 537.529C578.781 534.08 570.769 529.086 562.543 526.411L571.358 537.5L571.929 539C569.95 541.589 566.667 543.459 563.956 545.223C555.678 550.61 547.38 555.136 537.968 558.234L536.25 558.958C533.658 557.693 526.617 539.232 524.627 534.974L521.367 525.459L512.909 525.315C512.714 524.983 510.727 524.537 510.243 524.388C508.664 523.097 507.615 522.046 506.663 520.222C505.804 518.576 506.401 514.159 506.963 512.418C506.773 512.048 506.646 511.635 506.5 511.245L505.75 511.745C504.748 511.764 504.101 511.773 503.125 511.498L503.255 510.5C502.306 510.014 501.211 509.841 500.177 509.587C492.543 510.323 485.221 512.771 478.139 515.624C476.852 516.142 474.303 516.826 473.364 517.799L468.645 519.557C469.123 518.127 468.735 516.251 468.652 514.745C468.493 511.872 468.282 508.825 468.612 505.963C470.016 493.804 477.011 482.149 482.318 471.344L483.275 469.831C489.473 459.39 494.681 448.644 506 442.797C507.317 442.327 508.478 441.835 509.709 441.175C510.816 445.208 511.081 449.577 511.654 453.719C513.701 468.502 515.036 486.028 522.535 499.245C522.999 500.063 523.244 500.793 523.503 501.69L524.494 502.022L525.503 502.393C529.512 500.551 533.904 496.018 537.175 493.004C546.048 484.829 554.129 475.911 560.516 465.644C563.237 461.269 566.017 456.154 567.167 451.1C568.015 447.378 567.806 442.876 567.959 439.044Z"/>
	<path fill="#B9684C" transform="scale(0.488281 0.488281)" d="M509.709 441.175C510.816 445.208 511.081 449.577 511.654 453.719C513.701 468.502 515.036 486.028 522.535 499.245C522.999 500.063 523.244 500.793 523.503 501.69L516.532 499.508C513.867 495.754 512.359 490.973 511.032 486.595C506.922 473.035 504.691 456.92 506 442.797C507.317 442.327 508.478 441.835 509.709 441.175Z"/>
	<defs>
		<linearGradient id="gradient_2" gradientUnits="userSpaceOnUse" x1="559.96442" y1="512.46918" x2="512.03558" y2="534.03082">
			<stop offset="0" stop-color="#A40029"/>
			<stop offset="1" stop-color="#E43941"/>
		</linearGradient>
	</defs>
	<path fill="url(#gradient_2)" transform="scale(0.488281 0.488281)" d="M500.177 509.587C504.063 509.297 507.784 509.207 511.468 507.854C513.249 507.2 514.871 506.836 516.76 506.74L517.265 507.096C520.627 509.374 524.774 509.737 528.69 510.479C528.944 510.527 529.75 510.561 529.879 510.831C541.489 512.525 552.999 519.868 562.543 526.411L571.358 537.5L570.615 537.371C568.859 535.566 566.69 534.057 564.761 532.431C554.425 523.716 543.015 517.422 530.051 513.547L526.705 514.082C525.56 513.249 524.509 512.437 523.5 511.435L522.771 511.984L522.884 512.498C523.401 514.982 524.182 519.44 522.67 521.647C521.399 523.502 515.862 523.315 513.689 523.469L510.25 523.4C509.489 522.679 508.279 521.636 507.899 520.653C507.287 519.076 507.348 515.316 507.872 513.703C508.198 512.7 508.149 513.266 507.969 512.122L506.963 512.418C506.773 512.048 506.646 511.635 506.5 511.245L505.75 511.745C504.748 511.764 504.101 511.773 503.125 511.498L503.255 510.5C502.306 510.014 501.211 509.841 500.177 509.587Z"/>
	<path fill="#E75A76" transform="scale(0.488281 0.488281)" d="M513.689 523.469C515.862 523.315 521.399 523.502 522.67 521.647C524.182 519.44 523.401 514.982 522.884 512.498L522.771 511.984L523.5 511.435C524.509 512.437 525.56 513.249 526.705 514.082L530.051 513.547C543.015 517.422 554.425 523.716 564.761 532.431C566.69 534.057 568.859 535.566 570.615 537.371L571.358 537.5L571.929 539C569.95 541.589 566.667 543.459 563.956 545.223C555.678 550.61 547.38 555.136 537.968 558.234L536.25 558.958C533.658 557.693 526.617 539.232 524.627 534.974L521.367 525.459L512.909 525.315C512.714 524.983 510.727 524.537 510.243 524.388C508.664 523.097 507.615 522.046 506.663 520.222C505.804 518.576 506.401 514.159 506.963 512.418L507.969 512.122C508.149 513.266 508.198 512.7 507.872 513.703C507.348 515.316 507.287 519.076 507.899 520.653C508.279 521.636 509.489 522.679 510.25 523.4L513.689 523.469Z"/>
	<path fill="#BA102F" transform="scale(0.488281 0.488281)" d="M513.689 523.469C515.862 523.315 521.399 523.502 522.67 521.647C524.182 519.44 523.401 514.982 522.884 512.498L522.771 511.984L523.5 511.435C524.509 512.437 525.56 513.249 526.705 514.082C525.73 517.195 525.637 520.669 523.927 523.489L524.203 523.912C525.28 525.211 527.618 526.037 529.079 526.999C534.54 530.593 541.681 537.948 541.469 544.896C541.323 549.654 539.823 553.919 537.968 558.234L536.25 558.958C533.658 557.693 526.617 539.232 524.627 534.974L521.367 525.459L512.909 525.315C512.714 524.983 510.727 524.537 510.243 524.388C508.664 523.097 507.615 522.046 506.663 520.222C505.804 518.576 506.401 514.159 506.963 512.418L507.969 512.122C508.149 513.266 508.198 512.7 507.872 513.703C507.348 515.316 507.287 519.076 507.899 520.653C508.279 521.636 509.489 522.679 510.25 523.4L513.689 523.469Z"/>
	<path fill="#FEFDFC" transform="scale(0.488281 0.488281)" d="M631.544 485.874C638.345 487.257 644.806 489.314 651.346 491.619C655.143 492.957 659.583 494.357 662.834 496.775C668.165 500.739 672.679 506.999 676.318 512.483L716.87 585.671L718.897 588.394C722.54 590.756 725.593 596.632 727.75 600.349L738.296 618.45C740.086 621.595 741.751 625.21 744.421 627.676L747.836 622.629L753.193 626.104L745.808 634.867C732.648 648.794 715.908 659.898 697.952 666.685L684.081 671.254L637.879 681.168L655.341 632.404L653.941 627.545C652.283 628.129 649.245 626.847 647.562 626.348C633.245 621.02 620.485 611.948 612.247 599.048C608.744 592.438 606.834 585.739 605.244 578.461C601.987 554.88 604.899 531.638 612 508.986C613.5 504.202 614.853 498.642 617.617 494.41C621.082 489.103 625.639 487.056 631.544 485.874Z"/>
	<path fill="#C7DCE5" transform="scale(0.488281 0.488281)" d="M612.247 599.048L615.333 580.617L621.239 548.907C622.648 541.004 623.791 533.012 625.75 525.219C627.508 518.229 629.91 511.637 632.25 504.837C632.734 506.145 630.68 512.01 630.343 513.87C629.537 518.32 629.152 522.733 629.033 527.25C628.549 545.655 632.492 564.642 641.099 580.983C645.031 588.447 650.007 595.325 654.975 602.123C659.25 607.971 663.97 615.079 670.065 619.106C668.608 619.534 665.863 619.935 664.662 620.707C662.951 621.18 660.484 622.248 658.767 621.651C657.042 622.23 655.916 622.841 655.031 624.5C654.524 625.449 654.18 626.5 653.941 627.545C652.283 628.129 649.245 626.847 647.562 626.348C633.245 621.02 620.485 611.948 612.247 599.048Z"/>
	<path fill="#95BDD1" transform="scale(0.488281 0.488281)" d="M647.562 626.348C648.029 625.326 647.718 624.691 647.36 623.641C646.095 619.924 644.063 616.542 642.652 612.897C640.027 606.11 637.755 598.956 636.054 591.879C635.517 589.643 634.552 586.828 634.646 584.54C638.19 592.688 641.671 601.227 647.316 608.205C651.089 612.87 655.34 616.628 658.767 621.651C657.042 622.23 655.916 622.841 655.031 624.5C654.524 625.449 654.18 626.5 653.941 627.545C652.283 628.129 649.245 626.847 647.562 626.348Z"/>
	<path fill="#3D6D8D" transform="scale(0.488281 0.488281)" d="M718.897 588.394C722.54 590.756 725.593 596.632 727.75 600.349L738.296 618.45C740.086 621.595 741.751 625.21 744.421 627.676L747.836 622.629L753.193 626.104L745.808 634.867C732.648 648.794 715.908 659.898 697.952 666.685L684.081 671.254L637.879 681.168L655.341 632.404L653.941 627.545C654.18 626.5 654.524 625.449 655.031 624.5C655.916 622.841 657.042 622.23 658.767 621.651C660.484 622.248 662.951 621.18 664.662 620.707C665.863 619.935 668.608 619.534 670.065 619.106C678.936 616.103 687.87 612.275 695.779 607.238C704.122 601.925 711.671 595.12 718.897 588.394Z"/>
	<path fill="#FEFDFC" transform="scale(0.488281 0.488281)" d="M747.836 622.629L753.193 626.104L745.808 634.867C732.648 648.794 715.908 659.898 697.952 666.685L684.081 671.254L681.553 665.178L688.563 663.615C693.359 662.804 698.47 660.528 702.891 658.532C718.486 651.492 733.568 640.985 744.421 627.676L747.836 622.629Z"/>
	<path fill="#28516F" transform="scale(0.488281 0.488281)" d="M664.662 620.707C665.929 621.563 666.407 623.198 667.041 624.547L671.867 634.132L688.563 663.615L681.553 665.178C679.044 665.52 674.844 666.549 672.484 665.866C665.393 655.843 660.53 643.537 655.341 632.404L653.941 627.545C654.18 626.5 654.524 625.449 655.031 624.5C655.916 622.841 657.042 622.23 658.767 621.651C660.484 622.248 662.951 621.18 664.662 620.707Z"/>
	<path fill="#F3899A" transform="scale(0.488281 0.488281)" d="M655.341 632.404C660.53 643.537 665.393 655.843 672.484 665.866C674.844 666.549 679.044 665.52 681.553 665.178L684.081 671.254L637.879 681.168L655.341 632.404Z"/>
	<path fill="#4EC19E" transform="scale(0.488281 0.488281)" d="M482.318 471.344C477.011 482.149 470.016 493.804 468.612 505.963C468.282 508.825 468.493 511.872 468.652 514.745C468.735 516.251 469.123 518.127 468.645 519.557L473.364 517.799C474.303 516.826 476.852 516.142 478.139 515.624C485.221 512.771 492.543 510.323 500.177 509.587C501.211 509.841 502.306 510.014 503.255 510.5L503.125 511.498C504.101 511.773 504.748 511.764 505.75 511.745L506.5 511.245C506.646 511.635 506.773 512.048 506.963 512.418C506.401 514.159 505.804 518.576 506.663 520.222C507.615 522.046 508.664 523.097 510.243 524.388C510.727 524.537 512.714 524.983 512.909 525.315C511.496 529.251 510.233 533.436 508.195 537.097C505.17 543.714 502.1 550.837 498.071 556.896C494.776 560.493 492.612 566.163 490.65 570.599C479.271 596.323 476.382 622.816 477.601 650.717C478.825 678.732 483.783 706.413 489.79 733.75C491.681 742.352 494.501 750.876 496.09 759.5L495.629 759.493C490.504 759.632 485.002 758.814 479.891 758.267C468.477 757.045 455.241 756.139 445.292 749.935L424.356 696.835L422.006 691.205C419.61 690.516 415.297 689.422 413.57 687.726L413.998 686.738L410.931 679.659L407.796 677.692C393.789 671.049 379.767 663.928 367.698 654.103C367.616 650.687 380.551 605.913 382.159 604.177L385.716 604.168L399.979 553.152C403.575 541.438 406.774 529.613 412.514 518.722C416.644 510.886 423.641 502.079 431.137 497.359C439.71 491.961 450.166 489.056 459.767 486.088C461.799 483.222 466.267 479.119 469.338 477.423C473.857 476.344 478.287 473.585 482.318 471.344Z"/>
	<path fill="#253C44" transform="scale(0.488281 0.488281)" d="M407.796 677.692L400.602 645.175C399.643 638.501 398.829 631.732 398.54 624.995C398.455 623.027 397.944 621.332 399.161 619.711L400.669 620.099L412.132 657.891C414.732 666.171 418.496 674.877 420.004 683.373L422.006 691.205C419.61 690.516 415.297 689.422 413.57 687.726L413.998 686.738L410.931 679.659L407.796 677.692Z"/>
	<path fill="#BDB1B7" transform="scale(0.488281 0.488281)" d="M410.931 679.659L420.004 683.373L422.006 691.205C419.61 690.516 415.297 689.422 413.57 687.726L413.998 686.738L410.931 679.659Z"/>
	<path fill="#1F6552" transform="scale(0.488281 0.488281)" d="M495.629 759.493L490.312 743.099L479.286 696.891C472.28 662.725 468.825 628.119 477.124 593.811C480.943 578.022 488.725 561.842 497.45 548.219C499.358 545.238 501.486 541.214 504.594 539.413C505.093 539.124 505.488 538.929 505.927 538.541C506.723 537.839 507.148 537.383 508.195 537.097C505.17 543.714 502.1 550.837 498.071 556.896C494.776 560.493 492.612 566.163 490.65 570.599C479.271 596.323 476.382 622.816 477.601 650.717C478.825 678.732 483.783 706.413 489.79 733.75C491.681 742.352 494.501 750.876 496.09 759.5L495.629 759.493Z"/>
	<path fill="#E75A76" transform="scale(0.488281 0.488281)" d="M473.364 517.799C474.303 516.826 476.852 516.142 478.139 515.624C485.221 512.771 492.543 510.323 500.177 509.587C501.211 509.841 502.306 510.014 503.255 510.5L503.125 511.498C504.101 511.773 504.748 511.764 505.75 511.745L506.5 511.245C506.646 511.635 506.773 512.048 506.963 512.418C506.401 514.159 505.804 518.576 506.663 520.222C507.615 522.046 508.664 523.097 510.243 524.388L509.841 524.766C502.672 538.059 491.927 547.499 481.029 557.654C480.11 557.22 480.387 557.501 480.019 557.04C477.612 554.319 475.785 550.768 474.123 547.551C470.428 541.706 467.923 535.073 466.383 528.361C467.541 526.45 469.321 523.951 468.809 521.66C468.627 520.844 468.582 520.387 468.645 519.557L473.364 517.799Z"/>
	<path fill="#BA102F" transform="scale(0.488281 0.488281)" d="M473.364 517.799L473.674 518.404L472.5 519.255L474 519.378L474.25 519.769L473.856 520.087C471.47 522.057 469.451 525.53 469.265 528.684C468.873 535.298 473.515 541.102 474.123 547.551C470.428 541.706 467.923 535.073 466.383 528.361C467.541 526.45 469.321 523.951 468.809 521.66C468.627 520.844 468.582 520.387 468.645 519.557L473.364 517.799Z"/>
	<path fill="#BA102F" transform="scale(0.488281 0.488281)" d="M480.019 557.04L480.667 556.709C481.355 553.474 483.529 550.269 485.287 547.469C490.037 539.904 495.603 531.661 503.022 526.515C505.355 524.897 507.016 524.24 509.841 524.766C502.672 538.059 491.927 547.499 481.029 557.654C480.11 557.22 480.387 557.501 480.019 557.04Z"/>
	<path fill="#3D6D8D" transform="scale(0.488281 0.488281)" d="M367.698 654.103C367.616 650.687 380.551 605.913 382.159 604.177L385.716 604.168C385.621 605.53 385.05 608.359 385.88 609.34C389.345 613.434 394.901 616.449 399.161 619.711C397.944 621.332 398.455 623.027 398.54 624.995C398.829 631.732 399.643 638.501 400.602 645.175L407.796 677.692C393.789 671.049 379.767 663.928 367.698 654.103Z"/>
	<path fill="#FEFDFC" transform="scale(0.488281 0.488281)" d="M385.716 604.168L399.979 553.152C403.575 541.438 406.774 529.613 412.514 518.722C416.644 510.886 423.641 502.079 431.137 497.359C439.71 491.961 450.166 489.056 459.767 486.088L459.499 486.521L441.306 512.929L418.655 548.625C409.897 563.112 401.544 576.259 398.813 593.242C397.307 602.612 400.177 610.967 400.669 620.099L399.161 619.711C394.901 616.449 389.345 613.434 385.88 609.34C385.05 608.359 385.621 605.53 385.716 604.168Z"/>
	<path fill="#F2B186" transform="scale(0.488281 0.488281)" d="M494.537 108.823C522.98 103.69 551.854 105.036 579.076 115.072C593.325 120.792 607.078 127.686 619.446 136.861C629.084 144.772 638.5 152.621 645.846 162.82C645.329 165.203 644.437 171.26 645.149 173.636C645.834 175.92 648.695 179.319 649.999 181.445C652.758 185.946 655.432 190.603 657.779 195.335C660.481 200.781 663.186 206.307 665.12 212.08C672.395 233.798 673.191 257.254 671.355 279.894C671.173 282.138 670.277 295.371 669.027 296.243L668.502 296.466C668.948 299.669 669.542 303.031 669.419 306.275C669.325 308.74 668.322 312.26 668.68 314.562C666.505 324.583 661.076 334.044 652.166 339.549C648.183 342.01 643.88 343.569 639.236 344.214C638.38 344.333 633.342 344.434 633.112 344.621C632.73 344.933 631.847 347.246 631.597 347.775L625.537 359.989C616.059 377.566 604.541 393.367 589.507 406.562C583.355 411.961 576.056 417.358 568.409 420.437L568.002 432.728C567.986 434.669 568.354 437.183 567.959 439.044C567.806 442.876 568.015 447.378 567.167 451.1C566.017 456.154 563.237 461.269 560.516 465.644C554.129 475.911 546.048 484.829 537.175 493.004C533.904 496.018 529.512 500.551 525.503 502.393L524.494 502.022L523.503 501.69C523.244 500.793 522.999 500.063 522.535 499.245C515.036 486.028 513.701 468.502 511.654 453.719C511.081 449.577 510.816 445.208 509.709 441.175C508.478 441.835 507.317 442.327 506 442.797C494.681 448.644 489.473 459.39 483.275 469.831L482.318 471.344C478.287 473.585 473.857 476.344 469.338 477.423C448.407 477.791 423.951 470.152 407.044 457.896C404.491 456.046 402.256 454.049 400.039 451.806C397.349 449.084 390.811 442.356 390.823 438.585C390.793 438.079 388.728 435.768 388.296 435.175C386.256 432.374 384.483 429.637 383.015 426.482C379.753 419.473 378.766 411.284 378.4 403.645C373.064 403.444 368.538 402.288 363.615 400.298C355.336 395.754 348.754 389.738 344.687 381.116C343.712 379.636 343.109 377.73 342.578 376.031C337.665 360.311 343.542 346.26 350.712 332.545C346.676 330.956 343.126 329.237 339.815 326.345C326.642 314.838 324.441 293.067 323.476 276.747C329.781 284.499 337.772 290.582 346.928 294.6C356.494 298.797 367.873 300.397 377.75 296.39C386.844 292.701 392.191 284.984 395.848 276.263C392.326 268.853 390.455 260.76 388.953 252.732C385.611 234.866 384.586 215.524 388.999 197.75C396.379 168.024 417.536 135.698 444.005 119.667L448.103 128.442C457.051 122.195 465.864 117.634 476.045 113.723L494.537 108.823Z"/>
	<path fill="#010002" transform="scale(0.488281 0.488281)" d="M449.15 273.064L451.326 273.5L449.93 278.69C448.836 278.081 447.598 277.233 446.369 276.977C445.763 276.851 445.69 276.96 444.972 276.663C443.869 276.206 442.576 274.849 442.16 273.75C444.294 274.634 446.537 274.009 448.613 273.264L449.15 273.064Z"/>
	<path fill="#B9684C" transform="scale(0.488281 0.488281)" d="M520.05 317.311L516.283 326.873C515.877 327.976 515.062 329.589 515.059 330.75C515.055 332.023 515.678 333.056 516.683 333.817C519.68 336.087 524.808 334.538 528.25 334.402L528.194 335.154L525.841 336.989C522.479 337.963 519.862 338.26 516.447 337.386C514.311 336.839 513.232 335.773 512.161 333.934C511.425 327.894 516.662 321.878 520.05 317.311Z"/>
	<path fill="#1C0C1F" transform="scale(0.488281 0.488281)" d="M449.15 273.064C446.934 269.637 443.845 267.074 441.564 263.584L451.252 269.661C451.133 268.071 450.561 266.567 450.511 265C450.432 262.534 450.63 259.985 450.749 257.521C451.673 259.02 451.979 260.342 452.34 262.062C452.545 263.042 452.728 262.932 453.5 263.5C454.833 263.198 455.114 263.257 456.003 262.25C455.439 260.949 454.604 259.477 454.497 258.073C455.383 258.671 457.982 260.879 458.852 261.014C459.388 261.098 461.179 260.451 461.77 260.316C467.343 259.043 472.273 259.103 477.554 261.59C481.829 263.604 485.563 267.495 487.176 271.94C482.964 267.338 477.941 263.691 471.436 263.429C465.58 263.193 460.395 264.399 455.976 268.5L455.5 268.953L454 268.973L451.326 273.5L449.15 273.064Z"/>
	<path fill="#010002" transform="scale(0.488281 0.488281)" d="M568.7 270.885C570.494 266.778 574.318 263.489 578.484 261.937C580.359 261.239 583.075 260.416 585.093 260.645C586.243 260.776 589.82 262.071 590.621 261.859C591.833 261.538 592.441 258.56 594.005 259C593.66 260.858 592.046 262.781 593 264.401C595.28 264.452 595.4 264.341 597.25 262.983C597.117 264.054 596.627 264.638 596.011 265.5L596.75 266.51C600.341 266.696 602.724 264.734 606.049 264.161C604.409 266.299 602.888 268.494 600.635 270.034L604.487 279.527L611.871 279.096C608.897 280.633 606.158 282.191 602.75 282.459L602.579 283.14C602.351 283.969 602.048 284.658 601.677 285.426C601.283 280.834 599.628 276.24 596.763 272.597C593.332 268.233 589.068 265.359 583.437 264.742C577.534 264.096 572.962 267.319 568.7 270.885Z"/>
	<path fill="#BA102F" transform="scale(0.488281 0.488281)" d="M504.392 373.028L494.983 361.91C513.547 371.098 534.146 370.369 553.425 363.844L562.016 360.35L549.694 373.425C546.591 372.911 543.388 372.191 540.25 372.03C536.368 371.83 532.426 372.177 528.535 372.133C520.421 372.04 512.463 372.008 504.392 373.028Z"/>
	<path fill="#1C0C1F" transform="scale(0.488281 0.488281)" d="M581.058 232.576L585.273 232.582C596.448 233.783 604.22 242.308 610.666 250.688C608.493 250.078 606.028 248.194 604 247.112C600.492 245.24 596.989 243.679 593.215 242.43L591.885 242.102C580.367 239.513 571.865 243.029 562.207 249.052L565.016 243.144C568.552 237.057 574.522 234.29 581.058 232.576Z"/>
	<path fill="#1C0C1F" transform="scale(0.488281 0.488281)" d="M463.577 232.556C468.161 232.366 472.085 232.459 476.41 234.199C483.723 237.142 487.277 242.834 490.271 249.781C481.776 243.788 475.637 240.938 465.038 240.54C455.045 241.79 448.024 246.085 440.243 252.245L440.65 251.508C445.93 242.168 453.128 235.387 463.577 232.556Z"/>
	<path fill="#B9684C" transform="scale(0.488281 0.488281)" d="M418.253 287.665C419.186 292.639 420.005 299.693 422.443 304.115C422.374 307.53 421.979 311.103 422.128 314.5C422.268 317.683 422.817 320.817 422.851 324.01L422.291 323.665C416.576 320.208 412.876 315.247 410.651 308.942C409.107 304.567 408.395 297.737 410.586 293.417C411.775 291.072 413.434 289.676 415.944 288.925C416.754 288.683 417.239 288.611 417.908 288.041L418.253 287.665Z"/>
	<path fill="#E75A76" transform="scale(0.488281 0.488281)" d="M504.392 373.028C512.463 372.008 520.421 372.04 528.535 372.133C532.426 372.177 536.368 371.83 540.25 372.03C543.388 372.191 546.591 372.911 549.694 373.425C544.209 378.37 536.768 383.537 529.177 383.954C519.226 384.501 511.333 379.479 504.392 373.028Z"/>
	<path fill="#FEFDFC" transform="scale(0.488281 0.488281)" d="M568.7 270.885C572.962 267.319 577.534 264.096 583.437 264.742C589.068 265.359 593.332 268.233 596.763 272.597C599.628 276.24 601.283 280.834 601.677 285.426C601.509 292.998 601.473 299.898 595.539 305.594C592.09 308.905 588.187 310.245 583.529 310.84L582.462 310.249C585.948 309.548 589.133 308.28 591.808 305.876C596.052 302.062 598.165 296.119 598.323 290.5C598.494 284.451 596.185 277.879 591.883 273.582C589.313 271.015 586.426 269.798 582.781 269.901C578 270.036 574.713 272.802 571.662 276.151L571.75 276.946C573.443 276.398 575.002 276.089 576.696 276.848C578.168 277.508 579.288 279.423 579.675 280.918C580.354 283.541 579.623 286.419 578.196 288.667C576.996 290.558 575.445 291.954 573.25 292.467C571.499 291.573 570.051 290.515 568.519 289.288C568.919 293.99 569.573 298.803 571.644 303.103C573.777 307.533 576.499 308.828 580.838 310.457C577.93 310.999 575.197 310.269 572.664 308.797C568.268 306.242 565.023 301.577 563.638 296.767C561.758 290.242 562.417 282.882 565.271 276.721C566.15 274.823 567.42 273.28 568.395 271.465L568.7 270.885Z"/>
	<path fill="#FEFDFC" transform="scale(0.488281 0.488281)" d="M451.326 273.5L454 268.973L455.5 268.953L455.976 268.5C460.395 264.399 465.58 263.193 471.436 263.429C477.941 263.691 482.964 267.338 487.176 271.94L487.439 272.565C487.768 273.321 488.183 273.976 488.608 274.679C490.678 278.101 492.238 283.958 491.647 288C491.558 288.605 491.442 288.765 491.201 289.25C491.028 288.067 490.902 286.869 490.601 285.711C489.925 280.278 487.797 274.262 483.4 270.736C480.727 268.592 477.343 267.996 474 268.595C471.181 269.1 468.805 271.633 467.072 273.754C469.546 275.522 471.905 276.942 472.52 280.155C473.002 282.669 472.873 285.432 471.405 287.625C470.539 288.921 469.033 289.824 467.5 290.053C466.038 290.272 464.467 290.198 463.298 289.204L460.545 286.536C460.444 290.394 460.26 293.988 461.255 297.75L461.471 298.592C462.602 302.803 464.851 306.801 468.76 308.951L470.788 309.983L469.25 310.403C465.744 309.566 462.389 308.77 459.615 306.336C451.85 299.526 450.623 288.322 449.93 278.69L451.326 273.5Z"/>
	<path fill="#1C0C1F" transform="scale(0.488281 0.488281)" d="M580.838 310.457C576.499 308.828 573.777 307.533 571.644 303.103C569.573 298.803 568.919 293.99 568.519 289.288C570.051 290.515 571.499 291.573 573.25 292.467C575.445 291.954 576.996 290.558 578.196 288.667C579.623 286.419 580.354 283.541 579.675 280.918C579.288 279.423 578.168 277.508 576.696 276.848C575.002 276.089 573.443 276.398 571.75 276.946L571.662 276.151C574.713 272.802 578 270.036 582.781 269.901C586.426 269.798 589.313 271.015 591.883 273.582C596.185 277.879 598.494 284.451 598.323 290.5C598.165 296.119 596.052 302.062 591.808 305.876C589.133 308.28 585.948 309.548 582.462 310.249L580.838 310.457Z"/>
	<path fill="#1C0C1F" transform="scale(0.488281 0.488281)" d="M470.788 309.983L468.76 308.951C464.851 306.801 462.602 302.803 461.471 298.592L461.255 297.75C460.26 293.988 460.444 290.394 460.545 286.536L463.298 289.204C464.467 290.198 466.038 290.272 467.5 290.053C469.033 289.824 470.539 288.921 471.405 287.625C472.873 285.432 473.002 282.669 472.52 280.155C471.905 276.942 469.546 275.522 467.072 273.754C468.805 271.633 471.181 269.1 474 268.595C477.343 267.996 480.727 268.592 483.4 270.736C487.797 274.262 489.925 280.278 490.601 285.711C490.569 293.144 490.2 299.21 484.612 304.905C481.182 308.401 477.325 310.067 472.457 310.016L470.788 309.983Z"/>
	<path fill="#D5835C" transform="scale(0.488281 0.488281)" d="M607.36 236.581C609.647 237.048 612.21 237.466 614.294 238.566C617.679 240.353 620.929 245.451 623.023 248.617C628.534 256.951 632.644 265.196 635.268 274.839C638.484 286.659 637.789 298.562 635.914 310.481C638.242 306.562 639.868 302.548 641.58 298.338L645.794 285.785C646.545 283.397 647.325 279.373 649.25 277.833C654.923 278.075 658.815 280.022 662.629 284.34C665.727 287.849 667.237 292.041 668.502 296.466C668.948 299.669 669.542 303.031 669.419 306.275C669.325 308.74 668.322 312.26 668.68 314.562C666.505 324.583 661.076 334.044 652.166 339.549C648.183 342.01 643.88 343.569 639.236 344.214C638.38 344.333 633.342 344.434 633.112 344.621C632.73 344.933 631.847 347.246 631.597 347.775L625.537 359.989C616.059 377.566 604.541 393.367 589.507 406.562C583.355 411.961 576.056 417.358 568.409 420.437L568.002 432.728C567.986 434.669 568.354 437.183 567.959 439.044C567.806 442.876 568.015 447.378 567.167 451.1C566.017 456.154 563.237 461.269 560.516 465.644C554.129 475.911 546.048 484.829 537.175 493.004C533.904 496.018 529.512 500.551 525.503 502.393L524.494 502.022L523.503 501.69C523.244 500.793 522.999 500.063 522.535 499.245C515.036 486.028 513.701 468.502 511.654 453.719C511.081 449.577 510.816 445.208 509.709 441.175L509.37 434.898L509.243 434.819L508.765 424.355L522.021 428.201L534.775 430.414C536.604 430.653 538.751 431.18 540.581 430.93C546.537 430.114 554.015 424.477 558.983 421.245C574.134 411.388 586.606 397.102 596.813 382.357C613.482 358.277 626.184 330.528 632.133 301.763C636.427 281.002 628.674 263.704 616.347 247.431C613.771 244.03 609.946 240.764 607.775 237.277L607.36 236.581Z"/>
	<path fill="#B9684C" transform="scale(0.488281 0.488281)" d="M645.794 285.785C649.234 285.75 652.311 287.907 654.744 290.222C656.542 291.933 657.31 294.202 658.058 296.5L658.308 297.254C660.128 303.003 659.732 310.117 656.935 315.476C654.152 320.81 650.588 324.769 644.75 326.562L644.546 326.124L645.347 325.606C646.792 324.626 648.104 322.926 648.441 321.182C649.589 315.248 646.017 310.486 644.052 305.25C643.178 302.921 642.759 300.555 641.58 298.338L645.794 285.785Z"/>
	<path fill="#F2B186" transform="scale(0.488281 0.488281)" d="M509.37 434.898L509.408 434.435C509.509 433.123 509.499 432.045 509.275 430.75L509.942 430.579C512.679 433.369 515.311 436.181 518.5 438.465C525.282 443.324 532.641 447.402 541 448.565L541.784 448.686C545.282 449.198 548.934 449.092 552.466 449.126C548.277 462.939 542.763 475.468 534.701 487.501C531.67 492.023 526.389 497.115 524.494 502.022L523.503 501.69C523.244 500.793 522.999 500.063 522.535 499.245C515.036 486.028 513.701 468.502 511.654 453.719C511.081 449.577 510.816 445.208 509.709 441.175L509.37 434.898Z"/>
	<path fill="#672847" transform="scale(0.488281 0.488281)" d="M494.537 108.823C522.98 103.69 551.854 105.036 579.076 115.072C593.325 120.792 607.078 127.686 619.446 136.861C629.084 144.772 638.5 152.621 645.846 162.82C645.329 165.203 644.437 171.26 645.149 173.636C645.834 175.92 648.695 179.319 649.999 181.445C652.758 185.946 655.432 190.603 657.779 195.335C660.481 200.781 663.186 206.307 665.12 212.08C672.395 233.798 673.191 257.254 671.355 279.894C671.173 282.138 670.277 295.371 669.027 296.243L668.502 296.466C667.237 292.041 665.727 287.849 662.629 284.34C658.815 280.022 654.923 278.075 649.25 277.833C647.325 279.373 646.545 283.397 645.794 285.785L641.58 298.338C639.868 302.548 638.242 306.562 635.914 310.481C637.789 298.562 638.484 286.659 635.268 274.839C632.644 265.196 628.534 256.951 623.023 248.617C620.929 245.451 617.679 240.353 614.294 238.566C612.21 237.466 609.647 237.048 607.36 236.581C581.841 228.297 556.982 218.413 533.255 205.843C515.755 196.573 498.256 185.498 483.888 171.765C464.043 184.387 446.104 202.009 435.393 223.16C430.523 232.779 427.304 243.15 424.995 253.656C421.279 270.568 422.991 287.066 422.443 304.115C420.005 299.693 419.186 292.639 418.253 287.665L416.609 277.813C412.152 277.859 408.406 277.673 405.12 281.25C400.427 286.359 399.166 294.176 399.729 300.865C400.784 313.414 404.795 324.408 414.744 332.661L422.434 338.081L422.438 338.19L425.388 339.375C427.963 341.128 428.837 345.48 429.858 348.335C430.768 350.879 431.885 353.326 433.109 355.734C448.891 386.767 476.073 412.051 508.765 424.355L509.243 434.819L509.37 434.898L509.709 441.175C508.478 441.835 507.317 442.327 506 442.797C494.681 448.644 489.473 459.39 483.275 469.831L482.318 471.344C478.287 473.585 473.857 476.344 469.338 477.423C448.407 477.791 423.951 470.152 407.044 457.896C404.491 456.046 402.256 454.049 400.039 451.806C397.349 449.084 390.811 442.356 390.823 438.585C390.793 438.079 388.728 435.768 388.296 435.175C386.256 432.374 384.483 429.637 383.015 426.482C379.753 419.473 378.766 411.284 378.4 403.645C373.064 403.444 368.538 402.288 363.615 400.298C355.336 395.754 348.754 389.738 344.687 381.116C343.712 379.636 343.109 377.73 342.578 376.031C337.665 360.311 343.542 346.26 350.712 332.545C346.676 330.956 343.126 329.237 339.815 326.345C326.642 314.838 324.441 293.067 323.476 276.747C329.781 284.499 337.772 290.582 346.928 294.6C356.494 298.797 367.873 300.397 377.75 296.39C386.844 292.701 392.191 284.984 395.848 276.263C392.326 268.853 390.455 260.76 388.953 252.732C385.611 234.866 384.586 215.524 388.999 197.75C396.379 168.024 417.536 135.698 444.005 119.667L448.103 128.442C457.051 122.195 465.864 117.634 476.045 113.723L494.537 108.823Z"/>
	<path fill="#983F69" transform="scale(0.488281 0.488281)" d="M476.045 113.723L494.537 108.823C499.737 119.623 507.86 130.221 515.522 139.395L528.283 153.839C530.017 155.656 534.391 158.767 535.166 160.721C514.768 156.586 496.05 146.544 482.998 130C479.079 125.032 476.528 120.063 476.045 113.723Z"/>
	<path fill="#983F69" transform="scale(0.488281 0.488281)" d="M442.444 133.498C445.883 133.308 447.896 133.357 451.026 134.903L451.25 135.574L439.91 149.578C434.386 157.917 431.755 167.081 430.219 176.858C429.598 180.816 428.952 185.663 429.824 189.584C430.005 190.399 428.526 192.589 428.071 193.418C422.081 204.341 417.764 215.551 412.438 226.747C411.65 218.499 411.879 210.113 412.684 201.878C412.897 200.283 413.408 198.601 413.161 197C408.815 204.773 404.311 212.548 401.035 220.846C400.938 200.599 400.98 181.81 410.591 163.266C417.782 149.391 427.229 138.379 442.444 133.498Z"/>
	<path fill="#41102C" transform="scale(0.488281 0.488281)" d="M344.687 381.116L345.056 380.899C348.127 380.578 353.774 384.726 357.013 385.75C365.746 388.511 376.68 387.584 384.823 383.336L385.5 382.974C387.951 381.688 389.972 380.095 392.119 378.371C391.778 381.194 391.531 383.878 391.898 386.713C392.669 392.673 396.664 398.545 401.397 402.118C409.451 408.198 420.031 410.127 429.922 408.676C436.33 407.735 441.018 405.761 446.637 402.688L437.526 388.428C430.615 375.569 425.122 360.322 422.626 345.935C422.281 343.944 421.423 340.52 422.162 338.669L422.438 338.19L425.388 339.375C427.963 341.128 428.837 345.48 429.858 348.335C430.768 350.879 431.885 353.326 433.109 355.734C448.891 386.767 476.073 412.051 508.765 424.355L509.243 434.819L509.37 434.898L509.709 441.175C508.478 441.835 507.317 442.327 506 442.797C494.681 448.644 489.473 459.39 483.275 469.831L482.318 471.344C478.287 473.585 473.857 476.344 469.338 477.423C448.407 477.791 423.951 470.152 407.044 457.896C404.491 456.046 402.256 454.049 400.039 451.806C397.349 449.084 390.811 442.356 390.823 438.585C390.793 438.079 388.728 435.768 388.296 435.175C386.256 432.374 384.483 429.637 383.015 426.482C379.753 419.473 378.766 411.284 378.4 403.645C373.064 403.444 368.538 402.288 363.615 400.298C355.336 395.754 348.754 389.738 344.687 381.116Z"/>
	<path fill="#F3899A" transform="scale(0.488281 0.488281)" d="M390.823 438.585C401.986 449.344 415.807 456.371 431.612 456.01C438.987 455.841 444.462 453.366 450.725 449.815C457.835 457.137 464.863 462.764 474.411 466.65C477.31 467.83 480.42 468.589 483.275 469.831L482.318 471.344C478.287 473.585 473.857 476.344 469.338 477.423C448.407 477.791 423.951 470.152 407.044 457.896C404.491 456.046 402.256 454.049 400.039 451.806C397.349 449.084 390.811 442.356 390.823 438.585Z"/>
	<path fill="#41102C" transform="scale(0.488281 0.488281)" d="M579.076 115.072C593.325 120.792 607.078 127.686 619.446 136.861C629.084 144.772 638.5 152.621 645.846 162.82C645.329 165.203 644.437 171.26 645.149 173.636C645.834 175.92 648.695 179.319 649.999 181.445C652.758 185.946 655.432 190.603 657.779 195.335C660.481 200.781 663.186 206.307 665.12 212.08C672.395 233.798 673.191 257.254 671.355 279.894C671.173 282.138 670.277 295.371 669.027 296.243L668.502 296.466C667.237 292.041 665.727 287.849 662.629 284.34C658.815 280.022 654.923 278.075 649.25 277.833C647.325 279.373 646.545 283.397 645.794 285.785L641.58 298.338C639.868 302.548 638.242 306.562 635.914 310.481C637.789 298.562 638.484 286.659 635.268 274.839C632.644 265.196 628.534 256.951 623.023 248.617C620.929 245.451 617.679 240.353 614.294 238.566C612.21 237.466 609.647 237.048 607.36 236.581C581.841 228.297 556.982 218.413 533.255 205.843C515.755 196.573 498.256 185.498 483.888 171.765C464.043 184.387 446.104 202.009 435.393 223.16C430.523 232.779 427.304 243.15 424.995 253.656C421.279 270.568 422.991 287.066 422.443 304.115C420.005 299.693 419.186 292.639 418.253 287.665L416.609 277.813L416.326 275.5C415.908 273.128 416.026 270.865 415.767 268.5C415.425 265.381 415.137 261.735 415.609 258.627L417.59 241.266C422.161 214.836 437.899 192.218 458.01 175.036C465.538 168.604 473.975 162.942 482.043 157.206C481.646 155.399 478.907 152.528 477.855 150.83L499.781 168.534C511.207 177.089 523.872 184.623 536.853 190.56C558.953 200.667 582.249 206.287 605.281 213.632L615.858 216.708C618.977 217.474 622.419 217.395 624.947 219.547C629.54 225.662 633.314 231.803 638.533 237.487C636.03 230.031 630.686 223.94 625.912 217.791C621.134 211.764 616.384 205.53 611.146 199.893C602.224 190.291 592.344 181.805 582.971 172.69C587.929 175.169 592.53 178.461 597.093 181.603C607.929 189.064 619.296 198.517 627.971 208.459C631.797 212.845 634.986 217.71 638.302 222.473C636.744 208.206 630.941 195.74 624.635 183C615.669 164.887 605.588 148.137 592.854 132.412C590.639 129.677 588.276 126.945 585.702 124.543C583.404 122.399 579.101 119.721 577.557 117.054C577.164 116.375 577.302 116.528 577.527 115.713L579.076 115.072Z"/>
	<path fill="#F3899A" transform="scale(0.488281 0.488281)" d="M669.867 128.235C687.754 136.734 705.176 145.225 722.068 155.66C781.177 192.172 830.642 243.695 864.679 304.268C876.684 325.632 886.527 348.162 894.724 371.226C906.143 403.356 913.21 437.363 916.139 471.336C917.583 488.086 917.811 505.005 917.739 521.811L917.63 521.877L917.291 522.164C912.697 526.172 909.071 532.717 905.25 537.528C899.31 545.006 892.797 552.199 886.237 559.14C855.152 592.027 818.109 618.205 777.618 638.259C769.463 642.298 761.011 646.675 752.447 649.768C752.355 648.538 751.025 646.455 750.478 645.244C748.927 641.816 747.716 638.103 745.808 634.867L753.193 626.104L747.836 622.629L744.421 627.676C741.751 625.21 740.086 621.595 738.296 618.45L727.75 600.349C725.593 596.632 722.54 590.756 718.897 588.394L716.87 585.671L676.318 512.483C672.679 506.999 668.165 500.739 662.834 496.775C659.583 494.357 655.143 492.957 651.346 491.619C644.806 489.314 638.345 487.257 631.544 485.874C628.481 483.986 623.907 482.828 620.5 481.539C609.873 477.518 598.517 473.9 588.442 468.68L587.756 466.252L587.745 465.965C585.23 454.533 578.103 444.681 567.959 439.044C568.354 437.183 567.986 434.669 568.002 432.728L568.409 420.437C576.056 417.358 583.355 411.961 589.507 406.562C604.541 393.367 616.059 377.566 625.537 359.989L631.597 347.775C631.847 347.246 632.73 344.933 633.112 344.621C633.342 344.434 638.38 344.333 639.236 344.214C643.88 343.569 648.183 342.01 652.166 339.549C661.076 334.044 666.505 324.583 668.68 314.562C668.322 312.26 669.325 308.74 669.419 306.275C669.542 303.031 668.948 299.669 668.502 296.466L669.027 296.243C670.277 295.371 671.173 282.138 671.355 279.894C673.191 257.254 672.395 233.798 665.12 212.08C663.186 206.307 660.481 200.781 657.779 195.335C655.432 190.603 652.758 185.946 649.999 181.445C648.695 179.319 645.834 175.92 645.149 173.636C644.437 171.26 645.329 165.203 645.846 162.82C647.539 161.027 648.875 158.343 650.257 156.266C651.779 153.98 653.562 151.898 655.34 149.812L659.315 145.293L669.867 128.235Z"/>
	<path fill="#28516F" transform="scale(0.488281 0.488281)" d="M716.87 585.671C718.787 584.548 720.512 583.359 722.75 583.038C728.197 584.629 742.067 611.641 745.377 617.687C746.253 619.286 747.29 620.887 747.836 622.629L744.421 627.676C741.751 625.21 740.086 621.595 738.296 618.45L727.75 600.349C725.593 596.632 722.54 590.756 718.897 588.394L716.87 585.671Z"/>
	<path fill="#41102C" transform="scale(0.488281 0.488281)" d="M659.315 145.293C661.879 149.567 665.171 153.477 667.902 157.68C677.904 173.074 686.239 189.384 690.616 207.343C693.536 219.328 694.362 231.445 693.48 243.738C692.969 250.862 690.946 257.863 691.056 265.059C691.319 282.227 709.22 291.392 723.744 294.963C735.591 297.875 747.84 297.197 758.397 290.695C762.705 288.041 765.978 283.698 768.509 279.401C768.584 290.462 768.214 303.017 761.935 312.648L761.793 312.72C757.382 321.733 750.501 327.329 741.61 331.53C750.247 337.943 755.447 346.04 757.087 356.807C758.804 368.072 755.638 378.812 748.902 387.859C741.653 397.594 731.136 403.102 719.25 404.831C714.392 405.537 709.789 404.869 705.044 403.835C706.208 415.837 703.273 426.152 695.528 435.5C687.619 445.046 674.948 452.236 662.5 453.465C651.878 454.514 643.611 452.396 634.099 447.926C623.948 458.644 611.799 466.197 596.633 466.573L587.756 466.252L587.745 465.965C585.23 454.533 578.103 444.681 567.959 439.044C568.354 437.183 567.986 434.669 568.002 432.728L568.409 420.437C576.056 417.358 583.355 411.961 589.507 406.562C604.541 393.367 616.059 377.566 625.537 359.989L631.597 347.775C631.847 347.246 632.73 344.933 633.112 344.621C633.342 344.434 638.38 344.333 639.236 344.214C643.88 343.569 648.183 342.01 652.166 339.549C661.076 334.044 666.505 324.583 668.68 314.562C668.322 312.26 669.325 308.74 669.419 306.275C669.542 303.031 668.948 299.669 668.502 296.466L669.027 296.243C670.277 295.371 671.173 282.138 671.355 279.894C673.191 257.254 672.395 233.798 665.12 212.08C663.186 206.307 660.481 200.781 657.779 195.335C655.432 190.603 652.758 185.946 649.999 181.445C648.695 179.319 645.834 175.92 645.149 173.636C644.437 171.26 645.329 165.203 645.846 162.82C647.539 161.027 648.875 158.343 650.257 156.266C651.779 153.98 653.562 151.898 655.34 149.812L659.315 145.293Z"/>
	<path fill="#672847" transform="scale(0.488281 0.488281)" d="M659.315 145.293C661.879 149.567 665.171 153.477 667.902 157.68C677.904 173.074 686.239 189.384 690.616 207.343C693.536 219.328 694.362 231.445 693.48 243.738C692.969 250.862 690.946 257.863 691.056 265.059C691.319 282.227 709.22 291.392 723.744 294.963C735.591 297.875 747.84 297.197 758.397 290.695C762.705 288.041 765.978 283.698 768.509 279.401C768.584 290.462 768.214 303.017 761.935 312.648L761.793 312.72C759.483 313.372 755.777 319.098 753.507 320.985C749.275 324.501 743.746 327.005 738.5 328.509L737.631 328.763C734.233 329.722 730.764 329.781 727.283 330.23L727.815 330.428C732.248 332.112 735.66 335.194 738.38 339.072L738.782 339.637C742.793 345.417 744.035 353.088 742.813 359.964C741.537 367.145 736.618 374.769 730.537 378.854L729.5 379.496L728.95 379.856C725.991 381.772 722.88 383.106 719.5 384.079L718.68 384.322C712.705 386.036 702.869 386.706 697.305 383.756C692.793 381.364 689.383 376.141 686.844 371.852C686.348 372.623 686.565 374.544 686.533 375.485C686.442 378.119 686.269 380.436 685.648 383L685.457 383.827C684.069 389.602 680.313 395.383 675.152 398.495C666.021 403.999 654.523 404.006 644.369 401.986C661.471 386.066 668.657 358.103 669.416 335.424L669.518 320.192C669.509 318.319 669.78 316.15 668.68 314.562C668.322 312.26 669.325 308.74 669.419 306.275C669.542 303.031 668.948 299.669 668.502 296.466L669.027 296.243C670.277 295.371 671.173 282.138 671.355 279.894C673.191 257.254 672.395 233.798 665.12 212.08C663.186 206.307 660.481 200.781 657.779 195.335C655.432 190.603 652.758 185.946 649.999 181.445C648.695 179.319 645.834 175.92 645.149 173.636C644.437 171.26 645.329 165.203 645.846 162.82C647.539 161.027 648.875 158.343 650.257 156.266C651.779 153.98 653.562 151.898 655.34 149.812L659.315 145.293Z"/>
	<path fill="#983F69" transform="scale(0.488281 0.488281)" d="M654.921 161.25C656.047 160.954 656.974 160.819 658.146 160.864C659.944 160.934 661.266 161.321 662.451 162.75C665.119 165.968 666.883 170.112 668.787 173.813C675.903 187.639 680.826 200.409 683.011 215.893C683.714 220.872 684.367 226.239 683.809 231.25C682.795 230.508 682.236 228.339 681.745 227.126C677.108 215.303 672.882 202.884 666.575 191.83C661.557 183.035 655.154 175.536 648.709 167.798C650.553 165.219 652.168 162.932 654.921 161.25Z"/>
	<path fill="#E75A76" transform="scale(0.488281 0.488281)" d="M172.543 473.183C172.382 462.451 172.59 451.868 174.243 441.24C176.585 426.183 180.308 408.042 193.338 398.486C197.484 398.407 201.334 398.999 205.412 399.707L205.749 399.903L254.393 405.797L254.069 405.284C257.425 403.24 264.927 403.747 268.997 403.408C293.14 401.391 317.062 399.817 341.306 400.047C345.304 400.085 361.071 401.848 363.615 400.298C368.538 402.288 373.064 403.444 378.4 403.645C378.766 411.284 379.753 419.473 383.015 426.482C384.483 429.637 386.256 432.374 388.296 435.175C388.728 435.768 390.793 438.079 390.823 438.585C390.811 442.356 397.349 449.084 400.039 451.806C402.256 454.049 404.491 456.046 407.044 457.896C423.951 470.152 448.407 477.791 469.338 477.423C466.267 479.119 461.799 483.222 459.767 486.088C450.166 489.056 439.71 491.961 431.137 497.359C423.641 502.079 416.644 510.886 412.514 518.722C406.774 529.613 403.575 541.438 399.979 553.152L385.716 604.168L382.159 604.177C380.551 605.913 367.616 650.687 367.698 654.103C379.767 663.928 393.789 671.049 407.796 677.692L410.931 679.659L413.998 686.738L413.57 687.726C415.297 689.422 419.61 690.516 422.006 691.205L424.356 696.835L445.292 749.935C445.414 753.553 445.525 757.116 446.301 760.664C446.916 763.478 448.368 766.948 448.48 769.75C448.518 770.678 448.207 771.321 447.881 772.162C447.426 772.614 446.744 773.175 446.36 773.706L446.075 774.192C442.336 778.025 439.576 783.728 436.885 788.372C420.757 816.197 408.101 846.265 397.181 876.457C393.898 885.533 390.39 894.553 387.722 903.836C384.596 902.633 381.282 901.871 378.106 900.79L361.48 894.275C298.675 867.296 242.769 826.298 199.276 773.43C132.228 691.93 98.508 581.944 108.627 476.878C106.213 476.648 103.758 476.013 101.97 474.25C100.686 472.984 100.488 472.234 100.465 470.487C100.436 468.25 101.533 467.128 103 465.568C105.124 464.861 107.093 465.247 109.268 465.496C112.149 467.095 118.644 466.917 122.104 467.356L172.543 473.183Z"/>
	<path fill="#D5835C" transform="scale(0.488281 0.488281)" d="M403.067 682.952L413.57 687.726C415.297 689.422 419.61 690.516 422.006 691.205L424.356 696.835C422.505 700.278 421.276 703.968 419.468 707.44C415.022 715.979 407.416 726.003 399.259 731.309C392.782 735.522 385.324 737.664 377.654 735.825C362.19 732.118 342.531 703.42 334.716 690.424C337.027 691.311 338.014 693.28 339.583 695.052C341.404 697.108 343.554 699.049 345.624 700.855C352.247 706.634 359.559 711.884 367.783 715.134C373.546 717.411 379.908 718.355 385.754 715.763C396.369 711.056 405.053 697.591 409.224 687.117L405.5 685.245C404.738 684.854 404.124 684.502 403.283 684.303L402.75 684.202L402.394 683.481L403.067 682.952Z"/>
	<path fill="#F2B186" transform="scale(0.488281 0.488281)" d="M300.422 581.403C302.726 583.816 305.461 586.302 307.348 589.053C313.025 594.836 318.042 601.388 323.359 607.512L354.57 642.769C358.62 647.256 362.516 653.003 367.148 656.753L367.698 654.103C379.767 663.928 393.789 671.049 407.796 677.692L410.931 679.659L413.998 686.738L413.57 687.726L403.067 682.952L402.394 683.481L402.75 684.202L403.283 684.303C404.124 684.502 404.738 684.854 405.5 685.245L409.224 687.117C405.053 697.591 396.369 711.056 385.754 715.763C379.908 718.355 373.546 717.411 367.783 715.134C359.559 711.884 352.247 706.634 345.624 700.855C343.554 699.049 341.404 697.108 339.583 695.052C338.014 693.28 337.027 691.311 334.716 690.424C328.996 683.154 323.888 675.012 318.95 667.189L289.813 616.926L281.352 601.108C279.658 597.885 278.14 594.424 275.954 591.503C278.031 589.6 281.205 588.985 283.881 588.404L294.802 583.833L300.422 581.403Z"/>
	<path fill="#B9684C" transform="scale(0.488281 0.488281)" d="M300.422 581.403C302.726 583.816 305.461 586.302 307.348 589.053L283.881 588.404L294.802 583.833L300.422 581.403Z"/>
	<path fill="#FEFDFC" transform="scale(0.488281 0.488281)" d="M367.698 654.103C379.767 663.928 393.789 671.049 407.796 677.692L410.931 679.659L413.998 686.738L413.57 687.726L403.067 682.952L400.001 681.526L398.75 680.873C387.005 675.977 375.131 670.534 365.156 662.455C365.829 660.871 366.731 659.142 367.037 657.445L367.148 656.753L367.698 654.103Z"/>
	<path fill="#E75A76" transform="scale(0.488281 0.488281)" d="M172.543 473.183C172.382 462.451 172.59 451.868 174.243 441.24C176.585 426.183 180.308 408.042 193.338 398.486C197.484 398.407 201.334 398.999 205.412 399.707L205.749 399.903L254.393 405.797L254.069 405.284C257.425 403.24 264.927 403.747 268.997 403.408C293.14 401.391 317.062 399.817 341.306 400.047C345.304 400.085 361.071 401.848 363.615 400.298C368.538 402.288 373.064 403.444 378.4 403.645C378.766 411.284 379.753 419.473 383.015 426.482C384.483 429.637 386.256 432.374 388.296 435.175C388.728 435.768 390.793 438.079 390.823 438.585C390.811 442.356 397.349 449.084 400.039 451.806C402.256 454.049 404.491 456.046 407.044 457.896C423.951 470.152 448.407 477.791 469.338 477.423C466.267 479.119 461.799 483.222 459.767 486.088C450.166 489.056 439.71 491.961 431.137 497.359C423.641 502.079 416.644 510.886 412.514 518.722C406.774 529.613 403.575 541.438 399.979 553.152L385.716 604.168L382.159 604.177C380.551 605.913 367.616 650.687 367.698 654.103L367.148 656.753C362.516 653.003 358.62 647.256 354.57 642.769L323.359 607.512C318.042 601.388 313.025 594.836 307.348 589.053C305.461 586.302 302.726 583.816 300.422 581.403L294.802 583.833L283.881 588.404C281.205 588.985 278.031 589.6 275.954 591.503C274.883 591.889 275.449 591.763 274.25 591.854L257.605 562.192L255.279 558.156C239.641 553.836 224.683 546.8 210.81 538.425L194.41 527.659L158.75 525.011C156.032 524.773 150.4 524.747 148.196 523.307C147.273 522.704 146.063 521.126 145.37 520.232C142.944 517.1 144.43 510.183 144.948 506.482C141.462 505.903 137.763 505.419 134.427 504.215C126.144 501.223 122.894 492.147 119.588 484.779L116.706 477.001L108.627 476.878C106.213 476.648 103.758 476.013 101.97 474.25C100.686 472.984 100.488 472.234 100.465 470.487C100.436 468.25 101.533 467.128 103 465.568C105.124 464.861 107.093 465.247 109.268 465.496C112.149 467.095 118.644 466.917 122.104 467.356L172.543 473.183Z"/>
	<path fill="#9CD8E5" transform="scale(0.488281 0.488281)" d="M284.284 547.875C285.819 550.021 287.012 552.248 288.221 554.582L295.384 565.701L303.972 579.25C303.193 580.458 301.714 580.806 300.422 581.403L294.802 583.833L283.881 588.404C281.205 588.985 278.031 589.6 275.954 591.503C274.883 591.889 275.449 591.763 274.25 591.854L257.605 562.192L255.279 558.156C259.164 557.551 262.767 556.939 266.292 555.095L284.284 547.875Z"/>
	<path fill="#4EC19E" transform="scale(0.488281 0.488281)" d="M294.802 583.833C291.209 579.509 290.699 575.239 289.883 569.871L295.384 565.701L303.972 579.25C303.193 580.458 301.714 580.806 300.422 581.403L294.802 583.833Z"/>
	<path fill="#4EC19E" transform="scale(0.488281 0.488281)" d="M284.284 547.875C285.819 550.021 287.012 552.248 288.221 554.582C277.92 555.816 267.304 558.528 257.605 562.192L255.279 558.156C259.164 557.551 262.767 556.939 266.292 555.095L284.284 547.875Z"/>
	<path fill="#C6DCB6" transform="scale(0.488281 0.488281)" d="M308.694 431.308C316.439 429.909 322.918 429.356 329.737 434.184C335.357 438.164 339.597 444.088 340.67 450.986C342.063 459.944 337.725 468.77 332.469 475.75C328.125 481.52 323.073 485.448 317.885 490.321L291.457 487.235L293.558 485.274L305.61 461.952C305.541 458.761 307.009 455.756 307.622 452.642C309.041 445.429 309.25 438.638 308.694 431.308Z"/>
	<path fill="#E75A76" transform="scale(0.488281 0.488281)" d="M305.61 461.952C308.397 457.569 311.143 453.063 314.443 449.044C315.283 448.021 316.165 446.752 317.5 446.407C319.237 445.957 320.66 446.355 322.122 447.344C323.946 448.579 325.332 451.377 325.505 453.518C325.923 458.664 322.262 464.211 318.864 467.825C312.493 474.601 302.22 481.863 293.558 485.274L305.61 461.952Z"/>
	<path fill="#DAF2FA" transform="scale(0.488281 0.488281)" d="M172.543 473.183C172.382 462.451 172.59 451.868 174.243 441.24C176.585 426.183 180.308 408.042 193.338 398.486C197.484 398.407 201.334 398.999 205.412 399.707L205.749 399.903L254.393 405.797L290.587 410.191C293.85 410.507 297.485 410.334 299.723 413.123C303.752 418.144 307.361 424.97 308.694 431.308C309.25 438.638 309.041 445.429 307.622 452.642C307.009 455.756 305.541 458.761 305.61 461.952L293.558 485.274L291.457 487.235C281.955 487.574 271.514 485.514 262 484.534L191.207 476.418L179.015 474.763C177.641 474.592 174.707 474.527 173.5 473.999C173.116 473.831 172.862 473.455 172.543 473.183Z"/>
	<path fill="#FEFDFC" transform="scale(0.488281 0.488281)" d="M205.749 399.903L254.393 405.797L290.587 410.191L290.241 410.764C287.963 414.919 283.531 418.281 279.312 420.298C264.302 427.476 246.875 426.453 231.473 421.052C223.023 418.09 216.953 412.95 210.926 406.473C209.016 404.42 206.986 402.453 205.749 399.903Z"/>
	<path fill="#C7DCE5" transform="scale(0.488281 0.488281)" d="M108.627 476.878C106.213 476.648 103.758 476.013 101.97 474.25C100.686 472.984 100.488 472.234 100.465 470.487C100.436 468.25 101.533 467.128 103 465.568C105.124 464.861 107.093 465.247 109.268 465.496C112.149 467.095 118.644 466.917 122.104 467.356L172.543 473.183C172.862 473.455 173.116 473.831 173.5 473.999C174.707 474.527 177.641 474.592 179.015 474.763L191.207 476.418L262 484.534C271.514 485.514 281.955 487.574 291.457 487.235L317.885 490.321L363.281 495.253C368.097 495.736 374.663 495.472 379.19 496.84C380.269 497.166 381.309 498.057 381.91 499C382.744 500.31 382.585 501.782 382.487 503.25C381.63 504.999 380.867 505.83 379.25 506.912C376.936 507.277 374.99 507.06 372.765 506.329L368.515 511.167L359.144 521.951C357.278 523.947 355.197 526.326 352.778 527.648L341.018 526.479C340.569 531.167 340.715 537.494 336.865 540.838C332.993 544.201 325.093 542.367 320.362 541.861L280.847 537.757L279.441 538.25C279.818 541.637 281.29 545.318 283.929 547.602L284.284 547.875L266.292 555.095C262.767 556.939 259.164 557.551 255.279 558.156C239.641 553.836 224.683 546.8 210.81 538.425L194.41 527.659L158.75 525.011C156.032 524.773 150.4 524.747 148.196 523.307C147.273 522.704 146.063 521.126 145.37 520.232C142.944 517.1 144.43 510.183 144.948 506.482C141.462 505.903 137.763 505.419 134.427 504.215C126.144 501.223 122.894 492.147 119.588 484.779L116.706 477.001L108.627 476.878Z"/>
	<path fill="#95BDD1" transform="scale(0.488281 0.488281)" d="M116.706 477.001L193.5 485.846L280.48 495.674L336.722 502.011L353.17 503.909C359.653 504.489 366.41 504.897 372.765 506.329L368.515 511.167L119.588 484.779L116.706 477.001Z"/>
	<path fill="#9CD8E5" transform="scale(0.488281 0.488281)" d="M119.588 484.779L368.515 511.167L359.144 521.951C357.278 523.947 355.197 526.326 352.778 527.648L341.018 526.479L144.948 506.482C141.462 505.903 137.763 505.419 134.427 504.215C126.144 501.223 122.894 492.147 119.588 484.779Z"/>
	<path fill="#672847" transform="scale(0.488281 0.488281)" d="M144.948 506.482L341.018 526.479C340.569 531.167 340.715 537.494 336.865 540.838C332.993 544.201 325.093 542.367 320.362 541.861L280.847 537.757L279.441 538.25C279.818 541.637 281.29 545.318 283.929 547.602L284.284 547.875L266.292 555.095C262.767 556.939 259.164 557.551 255.279 558.156C239.641 553.836 224.683 546.8 210.81 538.425L194.41 527.659L158.75 525.011C156.032 524.773 150.4 524.747 148.196 523.307C147.273 522.704 146.063 521.126 145.37 520.232C142.944 517.1 144.43 510.183 144.948 506.482Z"/>
	<path fill="#B9684C" transform="scale(0.488281 0.488281)" d="M250.585 535.249L279.947 537.56C280.775 537.628 280.53 537.443 280.847 537.757L279.441 538.25C279.818 541.637 281.29 545.318 283.929 547.602L284.284 547.875L266.292 555.095C266.75 552.606 266.479 549.374 266.541 546.806C261.716 542.354 255.687 539.396 250.585 535.249Z"/>
	<path fill="#F2B186" transform="scale(0.488281 0.488281)" d="M194.41 527.659C190.992 525.027 182.923 519.182 182.172 514.699C182.004 513.691 182.486 513.146 182.898 512.25C184.153 511.329 184.053 511.211 185.571 511.437C189.342 512 192.645 513.004 195.998 514.838L218.562 527.312C222.477 529.32 226.538 531.549 230.835 532.618C237.275 534.221 244.334 533.412 250.585 535.249C255.687 539.396 261.716 542.354 266.541 546.806C266.479 549.374 266.75 552.606 266.292 555.095C262.767 556.939 259.164 557.551 255.279 558.156C239.641 553.836 224.683 546.8 210.81 538.425L194.41 527.659Z"/>
</svg>
