<?xml version="1.0" encoding="utf-8" ?>
<svg xmlns="http://www.w3.org/2000/svg" xmlns:xlink="http://www.w3.org/1999/xlink" width="500" height="500">
	<path fill="#EE604D" transform="scale(0.488281 0.488281)" d="M-0 -0L1024 0L1024 1024L-0 1024L0 -0Z"/>
	<path fill="#BC1F1D" transform="scale(0.488281 0.488281)" d="M733.424 637.556L763.918 637.934L781.433 638.108L818.118 638.356L860.275 638.181C866.279 638.031 873.127 637.422 879.043 638.172L891.484 638.373L893.74 638.338L936.25 638.436L955.03 638.207C958.721 638.198 962.596 637.954 966.25 638.47C967.134 639.477 967.473 640.116 967.48 641.5C967.485 642.244 967.273 643.023 967.133 643.75L966.95 644.728L966.81 645.426C963.76 650.132 958.78 653.187 953.303 654.353C949.995 655.057 946.05 654.915 942.675 654.755L941.645 661.75L941.51 662.481C940.524 667.466 937.08 671.868 932.867 674.601C930.165 676.354 927.484 677.148 924.352 677.612L912.53 708.992C884.162 774.983 841.021 832.411 785.784 878.248L785.187 878.349L748.335 678.405C744.557 678.092 740.639 677.977 736.926 677.215C737.209 676.691 737.105 677.003 737.133 676.25L735.25 674.9C728.612 669.293 725.803 663.127 724.936 654.509L712.945 654.319C710.122 653.587 706.878 653.624 703.968 653.387C696.248 652.758 691.621 650.699 686.132 645.157C685.322 643.897 685.538 642.977 685.526 641.5C688.982 637.518 711.329 637.501 716.931 637.684C721.24 637.825 729.494 639.149 733.424 637.556Z"/>
	<path fill="#757A7C" transform="scale(0.488281 0.488281)" d="M776.132 681.692L880.435 681.878C880.518 685.356 881.401 690.25 878.684 692.939C876.746 694.857 874.665 695.533 872 695.572L814.196 695.797L794.272 695.956C790.696 695.988 786.801 696.337 783.25 695.955C781.592 695.776 780.196 694.559 779.079 693.399C775.745 689.939 776 686.135 776.132 681.692Z"/>
	<path fill="#757A7C" transform="scale(0.488281 0.488281)" d="M733.424 637.556L763.918 637.934L781.433 638.108L818.118 638.356L860.275 638.181C866.279 638.031 873.127 637.422 879.043 638.172L891.484 638.373L893.74 638.338L936.25 638.436L955.03 638.207C958.721 638.198 962.596 637.954 966.25 638.47C967.134 639.477 967.473 640.116 967.48 641.5C967.485 642.244 967.273 643.023 967.133 643.75L966.95 644.728L966.81 645.426C963.76 650.132 958.78 653.187 953.303 654.353C949.995 655.057 946.05 654.915 942.675 654.755L941.645 661.75L941.51 662.481C940.524 667.466 937.08 671.868 932.867 674.601C930.165 676.354 927.484 677.148 924.352 677.612L880.503 677.419L880.435 681.878L776.132 681.692C776.179 680.216 776.257 679.467 775.486 678.146L748.335 678.405C744.557 678.092 740.639 677.977 736.926 677.215C737.209 676.691 737.105 677.003 737.133 676.25L735.25 674.9C728.612 669.293 725.803 663.127 724.936 654.509L712.945 654.319C710.122 653.587 706.878 653.624 703.968 653.387C696.248 652.758 691.621 650.699 686.132 645.157C685.322 643.897 685.538 642.977 685.526 641.5C688.982 637.518 711.329 637.501 716.931 637.684C721.24 637.825 729.494 639.149 733.424 637.556Z"/>
	<path fill="#585B5E" transform="scale(0.488281 0.488281)" d="M775.486 678.146C776.161 677.618 775.933 677.883 776.416 677.144L776.75 676.608L849.705 676.795L870.473 676.804C873.578 676.831 877.56 676.465 880.503 677.419L880.435 681.878L776.132 681.692C776.179 680.216 776.257 679.467 775.486 678.146Z"/>
	<path fill="#BFBDBE" transform="scale(0.488281 0.488281)" d="M733.424 637.556L763.918 637.934L781.433 638.108L818.118 638.356L860.275 638.181C866.279 638.031 873.127 637.422 879.043 638.172L891.484 638.373L893.74 638.338L936.25 638.436L955.03 638.207C958.721 638.198 962.596 637.954 966.25 638.47C967.134 639.477 967.473 640.116 967.48 641.5C967.485 642.244 967.273 643.023 967.133 643.75L966.95 644.728L966.81 645.426C963.76 650.132 958.78 653.187 953.303 654.353C949.995 655.057 946.05 654.915 942.675 654.755L724.936 654.509L712.945 654.319C710.122 653.587 706.878 653.624 703.968 653.387C696.248 652.758 691.621 650.699 686.132 645.157C685.322 643.897 685.538 642.977 685.526 641.5C688.982 637.518 711.329 637.501 716.931 637.684C721.24 637.825 729.494 639.149 733.424 637.556Z"/>
	<defs>
		<linearGradient id="gradient_0" gradientUnits="userSpaceOnUse" x1="844.3877" y1="593.64691" x2="808.43335" y2="689.66052">
			<stop offset="0" stop-color="#BBC8C8"/>
			<stop offset="1" stop-color="#D9D2D5"/>
		</linearGradient>
	</defs>
	<path fill="url(#gradient_0)" transform="scale(0.488281 0.488281)" d="M733.424 637.556L763.918 637.934L781.433 638.108L818.118 638.356L860.275 638.181C866.279 638.031 873.127 637.422 879.043 638.172L891.484 638.373L893.74 638.338L936.25 638.436L955.03 638.207C958.721 638.198 962.596 637.954 966.25 638.47C967.134 639.477 967.473 640.116 967.48 641.5C967.485 642.244 967.273 643.023 967.133 643.75L966.95 644.728L966.81 645.426L686.132 645.157C685.322 643.897 685.538 642.977 685.526 641.5C688.982 637.518 711.329 637.501 716.931 637.684C721.24 637.825 729.494 639.149 733.424 637.556Z"/>
	<path fill="#BC1F1D" transform="scale(0.488281 0.488281)" d="M219.803 864.559L203.521 848.688L180.439 823.331C135.021 769.429 101.878 702.34 85.868 633.697C67.6117 555.421 68.0658 471.787 90.4734 394.359C101.47 356.36 118.524 318.843 139.492 285.301C182.422 216.625 241.995 162.088 314.075 125.253C338.508 112.766 365.03 101.855 391.812 95.6759C387.785 101.543 382.866 107.953 380.942 114.871C370.394 116.667 362.114 124.471 356.089 132.922C344.195 149.603 338.912 170.634 337.167 190.817C336.107 200.005 336.112 209.335 336.343 218.569C336.867 239.462 339.762 259.339 345.54 279.426L352.382 301.102L360.814 325.433C361.889 328.289 363.248 333.761 365.578 335.661C366.923 340.961 367.698 346.588 368.438 352.003C368.663 353.648 369.337 355.636 368.544 357.107L366.048 358.084C366.024 358.689 366.038 359.325 365.948 359.923C370.245 379.168 380.511 398.362 390.847 414.968C396.586 424.189 402.71 433.362 410.144 441.31C415.272 446.793 420.619 452.152 426.308 457.056C429.711 459.99 433.554 462.684 436.779 465.771L434.199 492.44C433.789 496.114 433.75 500.951 432.478 504.399L422.853 499.502L416.511 530.588C412.511 532.393 407.295 533.652 403.019 534.716C387.924 538.534 372.513 543.821 358.089 549.614C355.138 550.799 350.578 552.042 348.439 554.301L347.74 554.809C344.327 557.122 338.201 558.075 334.237 559.403L319.619 564.909C309.965 568.784 300.564 573.39 292.113 579.511C271.743 594.265 256.936 617.134 251.183 641.513L219.803 864.559Z"/>
	<path fill="#E8A05E" transform="scale(0.488281 0.488281)" d="M345.54 279.426L352.382 301.102L360.814 325.433C361.889 328.289 363.248 333.761 365.578 335.661C366.923 340.961 367.698 346.588 368.438 352.003C368.663 353.648 369.337 355.636 368.544 357.107L366.048 358.084C366.024 358.689 366.038 359.325 365.948 359.923C365.658 359.422 365.366 359.044 365 358.602L359.187 360.273C349.828 362.332 340.272 360.666 332.25 355.382C322.561 349.001 315.546 337.806 313.295 326.49C311.14 315.652 312.706 303.077 319.097 293.839C325.7 284.296 334.719 281.536 345.54 279.426Z"/>
	<path fill="#DF862E" transform="scale(0.488281 0.488281)" d="M352.382 301.102L360.814 325.433C358.321 326.859 358.154 329.674 357.19 332.148C356.168 334.774 354.975 337.482 353.091 339.612C351.152 341.806 348.472 343.365 345.523 343.54C341.182 343.797 337.078 341.997 333.889 339.14C330.016 335.672 327.772 330.001 327.533 324.862C327.243 318.617 328.638 311.744 333.135 307.135C338.343 301.799 344.866 302.104 351.733 302.049L352.382 301.102Z"/>
	<path fill="#2D636B" transform="scale(0.488281 0.488281)" d="M436.779 465.771C438.989 467.187 444.342 470.17 445.731 472.16C455.999 477.251 465.989 482.324 477.211 485.029C499.831 490.481 521.737 483.797 541.323 472.329C544.342 470.561 547.073 468.338 550.065 466.508L557.218 502.945L563.312 499.481L571.146 530.145C574.656 531.376 578.47 532.457 581.815 534.081C590.997 536.837 600.177 540.533 609.164 543.901C617.664 547.087 626.757 550.058 634.737 554.41L676.305 573.936C682.875 577.072 689.201 580.541 694.896 585.115C706.653 594.559 715.441 607.846 723.285 620.544C726.699 626.071 730.583 631.725 733.424 637.556C729.494 639.149 721.24 637.825 716.931 637.684C711.329 637.501 688.982 637.518 685.526 641.5C685.538 642.977 685.322 643.897 686.132 645.157C691.621 650.699 696.248 652.758 703.968 653.387C706.878 653.624 710.122 653.587 712.945 654.319L724.936 654.509C725.803 663.127 728.612 669.293 735.25 674.9L737.133 676.25C737.105 677.003 737.209 676.691 736.926 677.215C740.639 677.977 744.557 678.092 748.335 678.405L785.187 878.349C783.246 881.077 779.206 883.427 776.5 885.456C761.858 896.435 746.709 906.548 730.931 915.813L710.771 926.615C708.489 927.711 705.792 929.361 703.336 929.9C691.348 935.869 678.987 940.944 666.46 945.662C659.719 948.201 652.791 951.023 645.813 952.847C593.529 969.022 539.041 976.608 484.37 973.898C474.99 973.433 465.402 973.095 456.102 971.779C416.826 967.91 377.156 957.227 340.656 942.381C329.335 937.849 318.209 932.254 307.397 926.63C305.158 925.466 300.853 923.93 299.261 922.049C297.072 921.861 294.372 919.888 292.419 918.787L270.366 904.979C252.58 893.067 235.019 879.647 219.803 864.559L251.183 641.513C256.936 617.134 271.743 594.265 292.113 579.511C300.564 573.39 309.965 568.784 319.619 564.909L334.237 559.403C338.201 558.075 344.327 557.122 347.74 554.809L348.439 554.301C350.578 552.042 355.138 550.799 358.089 549.614C372.513 543.821 387.924 538.534 403.019 534.716C407.295 533.652 412.511 532.393 416.511 530.588L422.853 499.502L432.478 504.399C433.75 500.951 433.789 496.114 434.199 492.44L436.779 465.771Z"/>
	<path fill="#1F272E" transform="scale(0.488281 0.488281)" d="M486.413 800.124C488.721 800.295 491.113 800.507 493.147 801.727C496.068 803.478 498.868 806.972 499.594 810.34C500.328 813.739 499.743 817.448 497.808 820.368C495.249 824.229 492.022 825.441 487.671 826.295C484.938 826.076 482.571 825.78 480.19 824.31C476.915 822.288 474.647 819.39 473.917 815.551C473.301 812.311 474.216 808.46 476.127 805.789C478.64 802.277 482.25 800.696 486.413 800.124Z"/>
	<path fill="#1F272E" transform="scale(0.488281 0.488281)" d="M488.917 912.111C491.721 912.385 493.793 912.678 496.283 914.102C499.557 915.974 501.718 919.189 502.564 922.835C503.242 925.756 502.774 929.132 501.147 931.681C498.497 935.833 494.692 937.394 490.124 938.424C487.209 938.58 483.941 937.791 481.515 936.146C478.564 934.144 476.929 931.653 476.339 928.156C475.747 924.641 476.423 920.835 478.551 917.929C481.21 914.295 484.582 912.791 488.917 912.111Z"/>
	<path fill="#151415" transform="scale(0.488281 0.488281)" d="M568.663 744.677C568.488 742.655 568.255 740.252 568.719 738.263C569.528 734.79 572.055 731.393 575.032 729.48C579.081 726.877 583.084 726.436 587.709 727.511C592.618 729.026 596.13 731.454 598.549 736.113C600.138 739.172 600.165 741.89 599.475 745.18L618.841 744.935C620.631 744.911 623.934 744.386 625.508 744.977C626.044 745.178 626.676 745.793 627.075 746.195C628.461 747.593 629.421 749.759 629.411 751.75C629.402 753.416 628.671 754.833 627.484 755.974C625.29 758.083 621.849 757.733 619.038 757.573L618.101 757.5L567.489 757.592L556.329 757.64C554.458 757.652 552.271 757.414 550.498 758C547.786 757.971 543.377 758.36 541.317 756.438C539.743 754.97 539.071 753.258 539.012 751.119C538.965 749.404 539.49 747.631 540.75 746.412C543.816 743.447 563.253 744.661 568.663 744.677Z"/>
	<path fill="#DF862E" transform="scale(0.488281 0.488281)" d="M587.709 727.511C592.618 729.026 596.13 731.454 598.549 736.113C600.138 739.172 600.165 741.89 599.475 745.18L597.692 749.911C593.576 749.91 572.605 750.672 570.516 749.485L570.119 748.418L572.5 748.083C574.97 745.606 579.179 746.049 582.303 744.485C585.496 742.888 588.11 739.875 589.03 736.391C589.496 734.626 589.277 732.969 588.485 731.359C587.877 730.122 587.702 729.336 587.7 727.959L587.709 727.511Z"/>
	<path fill="#FCBB79" transform="scale(0.488281 0.488281)" d="M568.663 744.677C568.488 742.655 568.255 740.252 568.719 738.263C569.528 734.79 572.055 731.393 575.032 729.48C579.081 726.877 583.084 726.436 587.709 727.511L587.7 727.959C587.702 729.336 587.877 730.122 588.485 731.359C589.277 732.969 589.496 734.626 589.03 736.391C588.11 739.875 585.496 742.888 582.303 744.485C579.179 746.049 574.97 745.606 572.5 748.083L570.119 748.418L568.663 744.677Z"/>
	<path fill="#FDFDFC" transform="scale(0.488281 0.488281)" d="M550.498 758C552.271 757.414 554.458 757.652 556.329 757.64L567.489 757.592L618.101 757.5C619.398 759.136 618.919 761.943 618.931 764.036C618.962 769.394 619.388 775.166 618.83 780.481C618.49 783.726 616.925 786.331 614.41 788.384C609.999 791.984 604.502 791.286 599.182 791.237L585.576 791.067L568.964 791.046C566.02 791.033 562.471 791.376 559.61 790.68C556.311 789.879 553.541 787.703 551.75 784.859C549.18 780.779 550.212 771.522 550.177 766.629C550.157 763.813 549.872 760.743 550.498 758Z"/>
	<path fill="#E0DFDE" transform="scale(0.488281 0.488281)" d="M550.498 758C552.271 757.414 554.458 757.652 556.329 757.64L567.489 757.592L618.101 757.5C619.398 759.136 618.919 761.943 618.931 764.036C618.962 769.394 619.388 775.166 618.83 780.481C618.49 783.726 616.925 786.331 614.41 788.384C609.999 791.984 604.502 791.286 599.182 791.237L585.576 791.067L585.553 758.121L550.498 758Z"/>
	<path fill="#FDFDFC" transform="scale(0.488281 0.488281)" d="M634.737 554.41L676.305 573.936L671.99 597.574L668.405 631.671C668.002 635.86 666.705 641.465 667.097 645.563L661.813 743.002L641.171 745.078C625.503 698.132 622.935 648.443 627.473 599.5C628.854 584.608 630.576 568.815 634.737 554.41Z"/>
	<path fill="#BFBDBE" transform="scale(0.488281 0.488281)" d="M667.097 645.563C668.589 648.022 668.56 650.802 668.971 653.589L670.505 662.231L677.323 698.587L718.241 869.728L727.085 903.5C728.182 907.415 729.072 912.216 730.931 915.813L710.771 926.615C708.489 927.711 705.792 929.361 703.336 929.9C691.348 935.869 678.987 940.944 666.46 945.662C659.719 948.201 652.791 951.023 645.813 952.847L667.385 801.751C655.474 784.715 647.001 764.969 641.171 745.078L661.813 743.002L667.097 645.563Z"/>
	<path fill="#BC1F1D" transform="scale(0.488281 0.488281)" d="M667.385 801.751L669.789 803.767C672.507 801.099 672.868 791.636 673.413 787.858L676.534 769.004L703.336 929.9C691.348 935.869 678.987 940.944 666.46 945.662C659.719 948.201 652.791 951.023 645.813 952.847L667.385 801.751Z"/>
	<path fill="#E0DFDE" transform="scale(0.488281 0.488281)" d="M676.305 573.936C682.875 577.072 689.201 580.541 694.896 585.115C706.653 594.559 715.441 607.846 723.285 620.544C726.699 626.071 730.583 631.725 733.424 637.556C729.494 639.149 721.24 637.825 716.931 637.684C711.329 637.501 688.982 637.518 685.526 641.5C685.538 642.977 685.322 643.897 686.132 645.157C691.621 650.699 696.248 652.758 703.968 653.387C706.878 653.624 710.122 653.587 712.945 654.319L724.936 654.509C725.803 663.127 728.612 669.293 735.25 674.9L737.133 676.25C737.105 677.003 737.209 676.691 736.926 677.215C740.639 677.977 744.557 678.092 748.335 678.405L785.187 878.349C783.246 881.077 779.206 883.427 776.5 885.456C761.858 896.435 746.709 906.548 730.931 915.813C729.072 912.216 728.182 907.415 727.085 903.5L718.241 869.728L677.323 698.587L670.505 662.231L668.971 653.589C668.56 650.802 668.589 648.022 667.097 645.563C666.705 641.465 668.002 635.86 668.405 631.671L671.99 597.574L676.305 573.936Z"/>
	<path fill="#585B5E" transform="scale(0.488281 0.488281)" d="M712.945 654.319L724.936 654.509C725.803 663.127 728.612 669.293 735.25 674.9L737.133 676.25C737.105 677.003 737.209 676.691 736.926 677.215C730.173 676.433 719.932 673.353 714.917 668.587C711.695 665.525 712.895 658.509 712.945 654.319Z"/>
	<path fill="#FDFDFC" transform="scale(0.488281 0.488281)" d="M436.779 465.771C438.989 467.187 444.342 470.17 445.731 472.16C455.999 477.251 465.989 482.324 477.211 485.029C499.831 490.481 521.737 483.797 541.323 472.329C544.342 470.561 547.073 468.338 550.065 466.508L557.218 502.945L563.312 499.481L571.146 530.145C574.656 531.376 578.47 532.457 581.815 534.081C581.831 557.35 577.515 579.428 571.223 601.734C567.124 616.267 562.586 630.649 556.757 644.592C540.931 682.445 518.551 716.809 492.295 748.191C488.774 742.134 483.665 736.371 479.518 730.671L461.735 703.969C436.776 663.723 418.063 617.089 408.532 570.682C406.087 558.779 404.566 546.758 403.019 534.716C407.295 533.652 412.511 532.393 416.511 530.588L422.853 499.502L432.478 504.399C433.75 500.951 433.789 496.114 434.199 492.44L436.779 465.771Z"/>
	<path fill="#151415" transform="scale(0.488281 0.488281)" d="M493.257 710.25L496 709.994C497.543 710.056 499.171 710.99 500.055 712.25C500.856 713.392 501.008 714.681 500.661 716.02C500.179 717.883 498.767 718.639 497.26 719.669C496.183 719.864 495.041 720.133 493.947 719.895C492.354 719.55 491.319 718.862 490.502 717.459C489.78 716.218 489.749 714.803 490.184 713.468C490.77 711.671 491.709 711.097 493.257 710.25Z"/>
	<path fill="#151415" transform="scale(0.488281 0.488281)" d="M492.967 652.25C494.027 652.044 494.961 652.037 496.027 652.25C497.496 652.544 498.92 653.536 499.678 654.839C500.496 656.244 500.521 657.756 499.919 659.25C499.292 660.805 498.213 661.415 496.75 662.045C495.868 662.272 494.886 662.557 493.973 662.393C492.575 662.143 490.955 661.052 490.194 659.857C489.412 658.63 489.387 657.1 489.792 655.743C490.381 653.773 491.221 653.157 492.967 652.25Z"/>
	<path fill="#151415" transform="scale(0.488281 0.488281)" d="M493.12 599.75C493.684 599.641 494.412 599.455 495 599.491C496.672 599.59 498.325 600.36 499.342 601.719C500.339 603.053 500.686 604.352 500.355 606.007C499.962 607.98 498.337 609.026 496.75 609.985C495.786 610.345 495.028 610.418 494.002 610.222C492.297 609.896 490.892 608.469 490.052 607C489.414 605.882 489.444 604.504 489.804 603.3C490.365 601.421 491.461 600.631 493.12 599.75Z"/>
	<path fill="#E8A05E" transform="scale(0.488281 0.488281)" d="M436.779 465.771C438.989 467.187 444.342 470.17 445.731 472.16C455.999 477.251 465.989 482.324 477.211 485.029C499.831 490.481 521.737 483.797 541.323 472.329C544.342 470.561 547.073 468.338 550.065 466.508L557.218 502.945L526.872 519.384L511.266 528.074C506.418 530.871 501.238 533.984 495.726 535.247C493.16 535.835 490.441 535.162 488.02 534.241C480.084 531.224 472.28 526.111 464.79 522.059L432.478 504.399C433.75 500.951 433.789 496.114 434.199 492.44L436.779 465.771Z"/>
	<path fill="#1F272E" transform="scale(0.488281 0.488281)" d="M565.33 527.64C566.26 527.585 566.274 527.765 567.023 528.25C569.082 533.847 568.605 541.322 568.774 547.263C569.306 566.032 570.197 587.048 566.249 605.451C558.909 604.417 551.166 600.849 544.226 598.199L519.902 588.89C516.451 587.474 511.434 584.457 507.785 583.998C506.83 583.878 504.183 584.794 503.091 585.01C495.885 586.437 489.411 586.655 482.665 583.336C481.677 582.85 480.714 583.552 479.724 583.956L464.032 591.139C452.679 596.173 440.811 600.991 428.916 604.548C426.763 605.192 422.61 606.945 420.483 606.25L420.082 604.123C419.486 595.531 416.514 532.94 419.488 528.25C428.563 525.64 458.084 537.334 467 541.474C468.877 542.345 478.165 547.695 479.281 547.678C482.065 547.636 488.542 537.749 493.423 537.145C494.227 537.045 495.497 536.922 496.275 537.188C497.712 537.679 499.537 539.841 500.726 540.901L509.278 547.893C511.386 547.395 513.592 545.978 515.514 544.952L525.987 539.564C538.456 533.723 551.776 529.945 565.33 527.64Z"/>
	<path fill="#FDFDFC" transform="scale(0.488281 0.488281)" d="M348.439 554.301C352.061 567.781 355.458 581.154 357.484 595C366.218 654.657 357.952 718.033 335.633 773.93L320.271 806.611L340.656 942.381C329.335 937.849 318.209 932.254 307.397 926.63C305.158 925.466 300.853 923.93 299.261 922.049C297.072 921.861 294.372 919.888 292.419 918.787L270.366 904.979C252.58 893.067 235.019 879.647 219.803 864.559L251.183 641.513C256.936 617.134 271.743 594.265 292.113 579.511C300.564 573.39 309.965 568.784 319.619 564.909L334.237 559.403C338.201 558.075 344.327 557.122 347.74 554.809L348.439 554.301Z"/>
	<path fill="#E0DFDE" transform="scale(0.488281 0.488281)" d="M270.366 904.979C272.81 901.01 273.243 893.489 274.096 888.815L279.494 859.944L298.563 762.038L305.491 725.916C307.108 717.468 308.985 708.98 309.949 700.429C310.597 694.673 310.468 688.786 310.521 682.999C310.658 667.777 309.751 652.195 310.712 637.03C312.09 638.921 312.189 645.569 312.596 648.276L315.7 666.25L329.959 743.224L333.017 761.694C333.507 764.989 333.533 770.332 335.146 773.14L335.633 773.93L320.271 806.611L340.656 942.381C329.335 937.849 318.209 932.254 307.397 926.63C305.158 925.466 300.853 923.93 299.261 922.049C297.072 921.861 294.372 919.888 292.419 918.787L270.366 904.979Z"/>
	<path fill="#BC1F1D" transform="scale(0.488281 0.488281)" d="M299.261 922.049L318.975 776.719L320.271 806.611L340.656 942.381C329.335 937.849 318.209 932.254 307.397 926.63C305.158 925.466 300.853 923.93 299.261 922.049Z"/>
	<path fill="#BC1F1D" transform="scale(0.488281 0.488281)" d="M391.812 95.6759C412.079 70.2278 439.623 54.7972 471.523 49.1955C503.761 43.5343 539.345 48.7176 568.5 63.5642C578.649 68.7321 587.729 75.1156 597.04 81.6213C613.189 84.3388 629.885 90.2562 645.32 95.6317C732.967 126.157 812.538 184.54 866.435 260.33C935.685 357.708 964.814 481.485 944.782 599.492L936.69 638.093L907.795 638.068C903.39 638.069 898.049 637.549 893.74 638.338L891.484 638.373L879.043 638.172C873.127 637.422 866.279 638.031 860.275 638.181L818.118 638.356L781.433 638.108L763.918 637.934L733.424 637.556C730.583 631.725 726.699 626.071 723.285 620.544C715.441 607.846 706.653 594.559 694.896 585.115C689.201 580.541 682.875 577.072 676.305 573.936L634.737 554.41C626.757 550.058 617.664 547.087 609.164 543.901C600.177 540.533 590.997 536.837 581.815 534.081C578.47 532.457 574.656 531.376 571.146 530.145L563.312 499.481L557.218 502.945L550.065 466.508C547.073 468.338 544.342 470.561 541.323 472.329C521.737 483.797 499.831 490.481 477.211 485.029C465.989 482.324 455.999 477.251 445.731 472.16C444.342 470.17 438.989 467.187 436.779 465.771C433.554 462.684 429.711 459.99 426.308 457.056C420.619 452.152 415.272 446.793 410.144 441.31C402.71 433.362 396.586 424.189 390.847 414.968C380.511 398.362 370.245 379.168 365.948 359.923C366.038 359.325 366.024 358.689 366.048 358.084L368.544 357.107C369.337 355.636 368.663 353.648 368.438 352.003C367.698 346.588 366.923 340.961 365.578 335.661C363.248 333.761 361.889 328.289 360.814 325.433L352.382 301.102L345.54 279.426C339.762 259.339 336.867 239.462 336.343 218.569C336.112 209.335 336.107 200.005 337.167 190.817C338.912 170.634 344.195 149.603 356.089 132.922C362.114 124.471 370.394 116.667 380.942 114.871C382.866 107.953 387.785 101.543 391.812 95.6759Z"/>
	<path fill="#FDFDFC" transform="scale(0.488281 0.488281)" d="M850.341 530.873C852.301 531.114 854.465 531.18 856.321 531.848C857.497 538.11 853.934 543.104 852.105 548.968C850.778 549.633 849.589 549.475 848.134 549.486C849.135 543.399 848.992 537.264 848.928 531.12L850.341 530.873Z"/>
	<path fill="#E0DFDE" transform="scale(0.488281 0.488281)" d="M842.009 536.415C844.169 533.6 845.287 532.017 848.928 531.12C848.992 537.264 849.135 543.399 848.134 549.486L833.64 549.431C835.856 544.69 838.926 540.608 842.009 536.415Z"/>
	<path fill="#DF862E" transform="scale(0.488281 0.488281)" d="M789.161 549.305L789.242 548.08C789.816 539.702 790.242 529.102 797.197 523.377C802.246 519.221 808.381 518.517 814.674 519.17C826.153 520.359 835.003 527.901 842.009 536.415C838.926 540.608 835.856 544.69 833.64 549.431L818.025 549.441L790.639 549.579L789.161 549.305Z"/>
	<path fill="#DF862E" transform="scale(0.488281 0.488281)" d="M850.341 530.873C845.993 521.243 841.401 513.39 839.232 502.866C838.701 500.293 838.018 496.982 838.881 494.454C839.773 491.842 842.1 489.544 844.573 488.402C851.824 485.051 860.079 487.049 867.122 489.894C876.04 493.496 886.059 500.554 889.814 509.671C891.193 513.019 891.454 515.419 889.987 518.75C887.791 523.735 879.584 526.751 874.84 528.304C869.033 530.206 862.459 531.934 856.321 531.848C854.465 531.18 852.301 531.114 850.341 530.873Z"/>
	<path fill="#E8A05E" transform="scale(0.488281 0.488281)" d="M639.707 281.001C649.167 280.826 656.658 281.661 663.756 288.661C672.075 296.864 675.124 309.046 675.109 320.403C675.093 331.845 671.997 342.493 663.737 350.684C656.019 358.337 644.473 361.956 633.75 361.76C630.026 361.693 626.621 360.841 623.337 359.073C623.805 352.78 625.867 346.293 627.163 340.106C628.098 334.774 628.714 329.397 629.103 324C629.26 321.835 629.688 320.081 628.773 318.067C629.674 314.066 631.439 309.915 632.738 306.005L639.707 281.001Z"/>
	<path fill="#DF862E" transform="scale(0.488281 0.488281)" d="M632.738 306.005L633.75 306.241C636.064 304.737 638.85 302.542 641.78 303.044C645.223 303.635 648.144 307.431 649.871 310.16C652.799 314.787 654.284 322.101 652.991 327.396C651.729 332.566 649.066 337.364 644.396 340.147C639.704 342.943 634.066 343.75 628.832 342.209L627.536 341.75L627.163 340.106C628.098 334.774 628.714 329.397 629.103 324C629.26 321.835 629.688 320.081 628.773 318.067C629.674 314.066 631.439 309.915 632.738 306.005Z"/>
	<path fill="#80DDEB" transform="scale(0.488281 0.488281)" d="M789.161 549.305L790.639 549.579L818.025 549.441L818.118 638.356L781.433 638.108L763.918 637.934L763.741 593.019C763.725 584.84 763.14 576.137 764.052 568.015C764.327 565.563 765.387 562.92 766.599 560.77C769.188 556.178 773.591 551.916 778.781 550.571L779.5 550.394C782.708 549.581 785.869 549.466 789.161 549.305Z"/>
	<path fill="#ACEFF8" transform="scale(0.488281 0.488281)" d="M852.105 548.968L852.714 549.201C854.192 549.721 856.324 549.406 857.878 549.378C864.217 549.262 871.106 548.293 877.044 550.855C882.945 553.402 887.26 557.067 889.877 563.094C890.62 564.804 891.268 566.631 891.408 568.5C891.985 576.189 891.508 584.247 891.507 591.966L891.484 638.373L879.043 638.172C873.127 637.422 866.279 638.031 860.275 638.181L818.118 638.356L818.025 549.441L833.64 549.431L848.134 549.486C849.589 549.475 850.778 549.633 852.105 548.968Z"/>
	<path fill="#FDFDFC" transform="scale(0.488281 0.488281)" d="M860.275 638.181L860.373 599.885C860.378 593.472 859.615 586.087 860.525 579.843C860.806 577.909 861.733 576.487 863.091 575.115C865.023 573.166 867.192 572.055 870 572.079C872.615 572.102 875.612 573.145 877.288 575.25C878.249 576.457 878.745 577.973 878.912 579.492C879.709 586.763 879.203 594.434 879.147 601.755L879.043 638.172C873.127 637.422 866.279 638.031 860.275 638.181Z"/>
	<path fill="#FCBB79" transform="scale(0.488281 0.488281)" d="M391.812 95.6759C412.079 70.2278 439.623 54.7972 471.523 49.1955C503.761 43.5343 539.345 48.7176 568.5 63.5642C578.649 68.7321 587.729 75.1156 597.04 81.6213C603.662 87.7083 609.987 93.7126 615.749 100.643C631.372 119.431 644.128 144.474 648.677 168.666C656.441 198.136 652.73 230.372 645.585 259.567C643.842 266.689 642.166 274.091 639.707 281.001L632.738 306.005C631.439 309.915 629.674 314.066 628.773 318.067C629.688 320.081 629.26 321.835 629.103 324C628.714 329.397 628.098 334.774 627.163 340.106C625.867 346.293 623.805 352.78 623.337 359.073C612.261 399.705 585.499 442.705 550.065 466.508C547.073 468.338 544.342 470.561 541.323 472.329C521.737 483.797 499.831 490.481 477.211 485.029C465.989 482.324 455.999 477.251 445.731 472.16C444.342 470.17 438.989 467.187 436.779 465.771C433.554 462.684 429.711 459.99 426.308 457.056C420.619 452.152 415.272 446.793 410.144 441.31C402.71 433.362 396.586 424.189 390.847 414.968C380.511 398.362 370.245 379.168 365.948 359.923C366.038 359.325 366.024 358.689 366.048 358.084L368.544 357.107C369.337 355.636 368.663 353.648 368.438 352.003C367.698 346.588 366.923 340.961 365.578 335.661C363.248 333.761 361.889 328.289 360.814 325.433L352.382 301.102L345.54 279.426C339.762 259.339 336.867 239.462 336.343 218.569C336.112 209.335 336.107 200.005 337.167 190.817C338.912 170.634 344.195 149.603 356.089 132.922C362.114 124.471 370.394 116.667 380.942 114.871C382.866 107.953 387.785 101.543 391.812 95.6759Z"/>
	<path fill="#DF862E" transform="scale(0.488281 0.488281)" d="M545.097 289.975C545.036 287.198 546.924 284.47 548.75 282.476C553.605 277.176 559.775 275.375 566.747 275.203C572.903 275.051 579.797 276.738 584.326 281.174C586.662 283.461 589.434 287.57 589.46 290.915L589.41 291.48C588.132 289.348 586.53 287.534 584.679 285.887C578.702 280.568 570.965 279.484 563.237 280.026C555.401 280.575 550.13 284.196 545.097 289.975Z"/>
	<path fill="#DF862E" transform="scale(0.488281 0.488281)" d="M398.726 294.558C398.435 292.515 399.548 289.574 400.496 287.75C403.717 281.55 408.48 277.497 415.213 275.578L416 275.361C420.622 274.033 425.805 274.117 430.422 275.432C436.373 277.128 441.05 281.146 443.85 286.663C444.724 288.385 445.491 290.021 444.869 291.864C440.835 286.189 435.545 282.135 428.5 281.031C420.448 279.77 412.205 280.804 405.561 285.837C402.536 288.128 400.37 291.17 398.726 294.558Z"/>
	<path fill="#DF862E" transform="scale(0.488281 0.488281)" d="M504.156 311.75L530.113 361.436L516.296 368.564C512.32 370.615 508.174 373.008 503.872 374.25C498.265 375.869 494.229 373.105 489.564 370.469L473.891 361.077C481.476 362.485 488.835 364.929 496.458 366.169C499.111 366.6 502.385 367.042 504.852 365.758L505.5 365.396C508.239 363.919 510.664 362.105 512.633 359.665C513.849 358.158 514.581 356.198 514.497 354.25C514.367 351.211 513.114 347.771 512.334 344.798L506.566 322.286C505.793 319.217 504.449 315.646 504.206 312.528L504.156 311.75Z"/>
	<path fill="#DF862E" transform="scale(0.488281 0.488281)" d="M539.687 393.373C542.262 392.345 544.462 391.197 546.791 389.702C535.008 402.452 516.396 413.701 498.672 414.43C480.228 415.189 463.402 404.729 450.349 392.654L447.656 390.026L457.466 394.772C459.715 394.561 462.25 395.59 464.411 396.182C467.984 397.16 471.578 398.018 475.231 398.645C497.847 402.531 517.875 399.726 539.687 393.373Z"/>
	<path fill="#E8A05E" transform="scale(0.488281 0.488281)" d="M457.466 394.772C459.715 394.561 462.25 395.59 464.411 396.182C467.984 397.16 471.578 398.018 475.231 398.645C497.847 402.531 517.875 399.726 539.687 393.373C538.063 396.282 536.093 397.489 533.021 398.568C511.825 406.016 487.188 409.202 466.129 399.39C463.171 398.012 460.125 396.676 457.466 394.772Z"/>
	<path fill="#1F272E" transform="scale(0.488281 0.488281)" d="M425.8 237.717L451.457 237.486L451.418 259.833C438.365 253.001 421.989 249.752 407.303 251.748L406.5 251.866C403.66 252.258 401.236 252.93 398.554 253.885C390.182 257.914 384.927 263.166 379.537 270.645C380.626 264.687 383.06 258.488 386.607 253.561C392.691 245.113 402.436 240.479 412.497 238.815L425.8 237.717Z"/>
	<path fill="#1F272E" transform="scale(0.488281 0.488281)" d="M537.238 237.484C553.522 237.495 573.044 235.868 588.091 242.774C600.287 248.372 608.4 258.057 613.055 270.654L607.979 265.28C603.47 260.97 598.258 257.323 592.446 255.006C575.405 248.21 553.372 252.67 537.08 259.76L537.238 237.484Z"/>
	<path fill="#FDFDFC" transform="scale(0.488281 0.488281)" d="M398.726 294.558C400.37 291.17 402.536 288.128 405.561 285.837C412.205 280.804 420.448 279.77 428.5 281.031C435.545 282.135 440.835 286.189 444.869 291.864C447.069 296.461 449.206 301.079 447.499 306.268C446.066 310.625 442.618 314.539 438.516 316.605C433.571 319.095 414.828 319.451 409.698 317.463L408.5 316.88L407.799 316.533C403.45 314.268 399.266 309.243 397.786 304.551C396.707 301.131 397.707 297.829 398.726 294.558Z"/>
	<path fill="#151415" transform="scale(0.488281 0.488281)" d="M421.95 289.25C423.714 288.811 425.746 289.299 427.369 290.048C430.62 291.549 433.044 294.608 434.159 297.966C435.19 301.073 434.86 304.773 433.315 307.665C431.361 311.323 428.372 312.952 424.491 314.053C422.473 314.095 420.642 314.013 418.765 313.188C415.571 311.785 413.054 309.379 411.831 306.078C410.96 303.73 411.258 300.174 412.371 297.923C414.291 294.041 417.926 290.725 421.95 289.25Z"/>
	<path fill="#FDFDFC" transform="scale(0.488281 0.488281)" d="M417.102 293.75L417.652 294.312C417.576 295.74 417.653 296.103 416.841 297.25C416.97 298.186 416.882 298.336 417.5 299.105C418.991 297.602 419.546 296.672 421.75 296.629C423.265 298.142 423.301 298.119 423.402 300.25C423.235 300.557 423.051 300.941 422.788 301.176C421.562 302.271 420.256 301.904 418.75 301.85L415.593 299.25C415.211 297.229 415.878 298.331 416.376 296.931C416.772 295.818 416.405 295.112 417.102 293.75Z"/>
	<path fill="#FDFDFC" transform="scale(0.488281 0.488281)" d="M545.097 289.975C550.13 284.196 555.401 280.575 563.237 280.026C570.965 279.484 578.702 280.568 584.679 285.887C586.53 287.534 588.132 289.348 589.41 291.48C591.358 296.222 592.778 300.709 591.459 305.83C590.344 310.162 587.26 314.144 583.315 316.275C578.102 319.089 570.936 318.606 565.153 318.62C561.744 318.628 557.914 318.788 554.624 317.796L554 317.593C549.505 316.169 545.765 313.48 543.261 309.437C541.208 306.122 540.376 302.514 541.303 298.686L541.48 298C542.224 295.023 543.593 292.615 545.097 289.975Z"/>
	<path fill="#151415" transform="scale(0.488281 0.488281)" d="M563.162 289.56C565.237 289.278 567.503 289.165 569.486 289.963C572.45 291.156 574.96 293.869 576.184 296.787C577.381 299.642 577.386 303.649 576.1 306.476C574.317 310.396 571.497 312.14 567.617 313.683L566.902 313.808C563.808 314.245 560.273 312.993 557.883 311.051C554.238 308.088 554.106 304.359 553.649 300.039C555.786 294.975 558.315 292.07 563.162 289.56Z"/>
	<path fill="#FDFDFC" transform="scale(0.488281 0.488281)" d="M559.741 296.25C561.268 296.028 562.257 295.989 563.75 296.407C564.884 297.398 565.023 297.57 565.479 299C565.025 300.43 564.877 300.611 563.75 301.61L562.719 301.959C561.146 301.683 560.98 301.668 559.836 300.571C559.545 298.865 559.478 298.836 560.315 297.337L559.531 296.904L559.741 296.25Z"/>
	<path fill="#E8A05E" transform="scale(0.488281 0.488281)" d="M395.349 168.457C399.232 165.445 403.026 162.683 407.416 160.446C408.45 159.919 409.33 159.237 410.499 159.326C422.43 169.432 434.413 178.457 447.958 186.291C474.009 201.358 504.057 211.416 532.983 219.195C531.796 220.277 530.679 221.014 529.186 221.633C524.073 223.751 517.828 224.394 512.32 224.495C493.589 224.842 475.687 218.714 458.618 211.498C441.111 204.097 424.855 196.018 409.298 184.992C405.442 182.259 399.979 178.972 398.214 174.48C397.514 172.701 396.917 170.721 395.833 169.135L395.349 168.457Z"/>
	<path fill="#151415" transform="scale(0.488281 0.488281)" d="M337.167 190.817C338.912 170.634 344.195 149.603 356.089 132.922C362.114 124.471 370.394 116.667 380.942 114.871C383.263 116.949 384.783 119.642 386.428 122.258L394.751 135.492C398.451 140.771 402.968 145.003 407.638 149.391L407.634 149.508C414.973 154.794 422.322 159.955 430.25 164.334C456.786 178.993 489.114 188.32 519.06 192.497L541.315 194.63C515.893 183.017 493.332 163.198 476.181 141.409C483.984 146.466 491.535 151.76 499.697 156.261C536.918 176.786 578.54 186.045 620.606 177.02L648.677 168.666C656.441 198.136 652.73 230.372 645.585 259.567C643.842 266.689 642.166 274.091 639.707 281.001L632.738 306.005C631.439 309.915 629.674 314.066 628.773 318.067C626.893 323.853 625.409 330.244 622.439 335.569L625.853 234.014L532.983 219.195C504.057 211.416 474.009 201.358 447.958 186.291C434.413 178.457 422.43 169.432 410.499 159.326C409.33 159.237 408.45 159.919 407.416 160.446C403.026 162.683 399.232 165.445 395.349 168.457C390.481 172.22 385.751 176.064 381.729 180.75C370.067 194.337 365.539 212.099 363.326 229.488C361.755 241.831 361.525 254.409 361.518 266.839C361.505 289.922 363.134 312.722 365.578 335.661C363.248 333.761 361.889 328.289 360.814 325.433L352.382 301.102L345.54 279.426C339.762 259.339 336.867 239.462 336.343 218.569C336.112 209.335 336.107 200.005 337.167 190.817Z"/>
	<path fill="#1F272E" transform="scale(0.488281 0.488281)" d="M391.812 95.6759C412.079 70.2278 439.623 54.7972 471.523 49.1955C503.761 43.5343 539.345 48.7176 568.5 63.5642C578.649 68.7321 587.729 75.1156 597.04 81.6213C603.662 87.7083 609.987 93.7126 615.749 100.643C631.372 119.431 644.128 144.474 648.677 168.666L620.606 177.02C578.54 186.045 536.918 176.786 499.697 156.261C491.535 151.76 483.984 146.466 476.181 141.409C493.332 163.198 515.893 183.017 541.315 194.63L519.06 192.497C489.114 188.32 456.786 178.993 430.25 164.334C422.322 159.955 414.973 154.794 407.634 149.508L407.638 149.391C402.968 145.003 398.451 140.771 394.751 135.492L386.428 122.258C384.783 119.642 383.263 116.949 380.942 114.871C382.866 107.953 387.785 101.543 391.812 95.6759Z"/>
</svg>
