<?xml version="1.0" encoding="utf-8" ?>
<svg xmlns="http://www.w3.org/2000/svg" xmlns:xlink="http://www.w3.org/1999/xlink" width="500" height="500">
	<path fill="#70A8AC" transform="scale(0.488281 0.488281)" d="M-0 -0L1024 0L1024 1024L-0 1024L0 -0Z"/>
	<path fill="#5F8496" transform="scale(0.488281 0.488281)" d="M808.531 827.887L809.064 828.205C810.722 828.982 812.982 828.975 814.79 829.203L823.583 830.569C835.578 832.558 878.107 839.688 882.871 851.044C883.685 852.983 883.285 854.922 882.339 856.727C877.731 865.524 850.774 872.24 841.59 874.303C772.945 889.722 701.942 894.184 631.825 897.326L433.5 898.619C373.718 896.911 313.947 893.403 254.61 885.742C228.755 882.404 203.041 878.543 177.865 871.597C168.676 869.061 158.338 866.186 150.25 860.986C147.639 859.307 144.904 857.362 144.149 854.16C143.592 851.801 144.346 849.748 145.649 847.808C149.807 841.617 159.339 838.67 166.251 836.78C168.889 836.059 171.905 835.506 174.348 834.294C181.506 839.51 191.194 843.805 200.094 844.444C212.626 845.344 225.743 844.722 238.329 844.768L314.111 844.903L542.267 844.936L706.211 844.566L751.031 844.498C758.582 844.498 766.926 845.174 774.389 844.228C787.783 842.532 798.493 836.75 808.531 827.887Z"/>
	<path fill="#55161F" transform="scale(0.488281 0.488281)" d="M174.348 834.294L170.561 831.014C159.305 820.403 153.416 806.497 153.026 791.116L152.866 683.52L152.455 443.097L152.375 328.619L152.415 292.668C152.433 286.78 152.022 280.464 152.64 274.623C153.735 264.276 158 254.531 165.223 247.01C171.937 240.019 181.516 234.751 191.171 233.346C195.605 232.701 200.376 232.88 204.861 232.781L205.311 222.075L205.435 221.25L206.39 216.016C209.485 203.237 218.452 191.83 229.665 185.118C237.099 180.669 245.844 177.811 254.502 177.359L299.633 177.155L384.756 177.144L643.896 177.151L767.043 177.129L798.823 177.141C805.952 177.148 814.157 176.392 821.062 178.223L822 178.477C831.521 180.968 839.788 185.488 846.783 192.451C854.668 200.301 859.997 210.425 862.058 221.382C863.792 230.598 863.048 240.565 863.05 249.945L863.078 291.6L863.345 448.743L867.725 452.75C870.073 455.356 871.468 458.776 871.857 462.25C872.791 470.596 872.101 479.75 872.118 488.179L872.204 540.01L872.362 589.105C872.396 596.753 873.072 605.057 872.371 612.648C871.726 619.633 867.189 624.28 862.074 628.485C861.609 632.044 861.92 635.921 861.923 639.53L861.946 660.402L862.201 731.473C862.252 736.271 862.389 741.155 861.698 745.918C859.427 761.58 851.333 775.721 839.208 785.866C835.719 788.785 830.931 790.291 827.734 793.16C826.956 793.858 826.454 795.982 826.155 796.974C824.999 800.805 824.126 804.518 822.434 808.173C818.926 815.75 814.361 821.932 808.531 827.887C798.493 836.75 787.783 842.532 774.389 844.228C766.926 845.174 758.582 844.498 751.031 844.498L706.211 844.566L542.267 844.936L314.111 844.903L238.329 844.768C225.743 844.722 212.626 845.344 200.094 844.444C191.194 843.805 181.506 839.51 174.348 834.294Z"/>
	<path fill="#05393C" transform="scale(0.488281 0.488281)" d="M791.533 629.384L816.935 629.403L816.705 654.676L791.475 655.042L791.533 629.384Z"/>
	<path fill="#124A4D" transform="scale(0.488281 0.488281)" d="M748.956 654.872L748.845 629.337L791.533 629.384L791.475 655.042L748.956 654.872Z"/>
	<path fill="#942516" transform="scale(0.488281 0.488281)" d="M691.957 629.963L740.909 629.638L740.603 654.534L691.974 655.042L691.957 629.963Z"/>
	<path fill="#E58126" transform="scale(0.488281 0.488281)" d="M827.432 630.011L850.705 630.005L850.543 700.151L850.629 725.528C850.676 732.848 850.945 740.123 849.549 747.344C848.045 755.12 844.518 761.496 840.084 767.961C836.695 772.75 832.708 776.43 827.812 779.638L827.432 630.011Z"/>
	<path fill="#267170" transform="scale(0.488281 0.488281)" d="M748.956 654.872L791.475 655.042L791.434 714.442L791.419 734.948C791.402 741.041 791.474 747.023 790.108 753L789.952 753.744C788.123 762.191 781.378 771.35 774.115 775.963C766.743 780.646 758.356 781.802 749.771 781.456L749.326 780.639L748.956 654.872Z"/>
	<path fill="#3F7629" transform="scale(0.488281 0.488281)" d="M769.83 243.358C781.484 242.33 792.886 246.984 801.772 254.348C810.086 261.238 815.79 270.964 816.94 281.802L817.113 449.838L766.437 449.856L755.152 449.829C753.529 449.826 751.567 450.048 750.048 449.493L790.515 449.538L790.587 269.432C789.702 260.998 784.892 253.755 778.072 248.91C775.48 247.069 772.598 245.654 770.144 243.624L769.83 243.358Z"/>
	<path fill="#124A4D" transform="scale(0.488281 0.488281)" d="M791.475 655.042L816.705 654.676L816.517 747.169L816.539 773.972C816.537 780.814 816.959 787.842 815.39 794.552C812.956 804.965 808.096 812.828 800.519 820.309C794.545 826.208 785.832 831.083 777.473 832.359C771.088 833.333 764.032 832.775 757.581 832.744L730.334 833.114C739.218 828.538 744.729 822.057 747.726 812.469C750.846 802.489 748.078 790.965 749.326 780.639L749.771 781.456C758.356 781.802 766.743 780.646 774.115 775.963C781.378 771.35 788.123 762.191 789.952 753.744L790.108 753C791.474 747.023 791.402 741.041 791.419 734.948L791.434 714.442L791.475 655.042Z"/>
	<path fill="#E58126" transform="scale(0.488281 0.488281)" d="M797.827 188.826C803.24 188.7 809.023 188.21 814.395 188.941C822.618 190.059 831.233 195.178 837.131 200.848C845.453 208.849 850.829 218.669 850.974 230.415L850.982 448.963L826.523 448.994L826.454 336.352L826.454 300.454C826.447 294.352 826.854 287.869 826.22 281.808C825.521 275.124 823.526 269.08 820.792 262.958C821.115 262.52 821.302 262.339 821.437 261.742C822.22 258.278 821.515 253.126 821.517 249.5C821.521 241.894 822.449 233.035 821.297 225.574C820.363 219.526 817.917 213.76 814.945 208.453C810.413 200.692 804.593 194.651 797.827 188.826Z"/>
	<path fill="#AF3B1B" transform="scale(0.488281 0.488281)" d="M660.932 295.03C670.172 293.635 680.527 294.524 689.897 294.487L702.697 294.47C705.234 294.479 708.064 294.26 710.543 294.799C715.31 295.837 720.155 298.09 724.147 300.841C732.437 306.554 737.391 313.869 740.069 323.5L740.302 324.298C741.628 329.106 741.148 334.754 741.147 339.727L741.138 363.146L741.061 449.85L618.745 449.916L691.965 449.735L691.952 372.408L691.956 350.211C691.945 345.018 692.117 339.697 691.368 334.545C690.389 327.811 687.824 320.506 683.997 314.853C678.125 305.514 670.511 300.149 660.932 295.03Z"/>
	<path fill="#FEC376" transform="scale(0.488281 0.488281)" d="M224.744 232.928L216.936 232.918L216.945 229.296C217.098 218.108 221.177 208.206 229.251 200.437C235.644 194.285 244.607 190.279 253.39 189.264C260.208 188.476 267.506 188.936 274.385 188.928L312.419 188.907L438.285 188.867L685.869 188.932L758.819 188.917L797.827 188.826C804.593 194.651 810.413 200.692 814.945 208.453L814.321 208.36C812.756 208.029 811.209 206.991 809.63 206.474C805.414 205.091 800.82 203.968 796.421 203.357C784.249 201.666 770.91 202.697 758.581 202.677L685.605 202.592L508.677 202.583L342.838 202.544L288.568 202.506C278.898 202.501 268.975 202.053 259.331 202.623C254.178 202.928 248.666 205.105 244.264 207.726C235.438 212.981 227.121 222.574 224.735 232.75L224.744 232.928Z"/>
	<path fill="#60A240" transform="scale(0.488281 0.488281)" d="M734.34 243.41L756.771 243.173C761.091 243.154 765.53 242.928 769.83 243.358L770.144 243.624C772.598 245.654 775.48 247.069 778.072 248.91C784.892 253.755 789.702 260.998 790.587 269.432L790.515 449.538L750.048 449.493C749.106 447.596 749.556 444.491 749.557 442.385L749.554 425.149L749.51 355.181C749.511 344.756 750.486 333.28 748.713 323.065L749.378 321.973C750.085 311.908 749.843 301.751 749.901 291.664C749.947 283.588 750.69 274.738 749.162 266.793C748.201 261.791 745.926 256.851 742.95 252.713L742.429 252C740.072 248.725 737.206 246.215 734.34 243.41Z"/>
	<path fill="#F07F55" transform="scale(0.488281 0.488281)" d="M164.018 314.513L164.149 270.332C165.523 274.746 166.758 278.811 169.446 282.662C173.323 288.217 180.486 293.392 187.227 294.505L188 294.621C192.13 295.277 196.498 294.971 200.671 294.969L221.138 294.946L294.049 294.929L543.408 294.964L622.231 294.959C635.013 294.953 648.214 294.107 660.932 295.03C670.511 300.149 678.125 305.514 683.997 314.853L164.018 314.513Z"/>
	<path fill="#F59C21" transform="scale(0.488281 0.488281)" d="M224.744 232.928L224.735 232.75C227.121 222.574 235.438 212.981 244.264 207.726C248.666 205.105 254.178 202.928 259.331 202.623C268.975 202.053 278.898 202.501 288.568 202.506L342.838 202.544L508.677 202.583L685.605 202.592L758.581 202.677C770.91 202.697 784.249 201.666 796.421 203.357C800.82 203.968 805.414 205.091 809.63 206.474C811.209 206.991 812.756 208.029 814.321 208.36L814.945 208.453C817.917 213.76 820.363 219.526 821.297 225.574C822.449 233.035 821.521 241.894 821.517 249.5C821.515 253.126 822.22 258.278 821.437 261.742C821.302 262.339 821.115 262.52 820.792 262.958C817.684 257.224 814.27 252.005 809.597 247.4C801.504 239.425 791.246 234.544 779.973 233.25C773.164 232.468 765.886 232.952 759.028 232.945L718.879 232.92L597.505 232.541L352 232.576L224.744 232.928Z"/>
	<path fill="#8DC44A" transform="scale(0.488281 0.488281)" d="M748.713 323.065C744.404 307.238 734.199 294.239 718.033 289.25C710.936 287.06 703.497 287.536 696.164 287.551L672.19 287.583L616.65 287.599L323.982 287.549L233.895 287.508L205.526 287.497C200.615 287.489 195.391 287.813 190.516 287.334C186.655 286.955 183.141 285.51 180.368 282.762C176.175 278.605 173.45 272.459 173.444 266.514C173.437 260.093 176.132 254.021 180.75 249.553C184.121 246.291 188.54 244.041 193.25 243.659C200.024 243.11 207.037 243.433 213.846 243.398L252.218 243.191L384.545 243.093L627.893 243.082L734.34 243.41C737.206 246.215 740.072 248.725 742.429 252L742.95 252.713C745.926 256.851 748.201 261.791 749.162 266.793C750.69 274.738 749.947 283.588 749.901 291.664C749.843 301.751 750.085 311.908 749.378 321.973L748.713 323.065Z"/>
	<path fill="#AF3B1B" transform="scale(0.488281 0.488281)" d="M691.974 655.042L740.603 654.534L740.247 760.151L740.377 790.068C740.414 795.643 740.856 801.486 740.102 807L739.993 807.829C739.095 813.966 733.486 821.956 728.434 825.531C723.609 828.944 717.439 831.531 711.529 831.829C699.282 832.447 686.709 831.866 674.436 831.826L603.426 831.657L380.223 831.68L249.09 831.784L216.989 831.914C211.17 831.951 204.574 832.631 198.885 831.518L197.411 831.198L196.445 831.006C186.914 829.046 177.584 822.308 172.327 814.174C167.772 807.129 165.626 800.255 164.92 791.959L500.833 791.901L601.811 791.934L634.59 791.944C640.584 791.943 646.712 792.192 652.687 791.813C659.679 791.369 666.792 789.9 672.711 785.955L673.5 785.42C677.376 782.831 681.015 779.282 683.706 775.466L684.25 774.676C687.651 769.818 690.163 764.242 691.187 758.377C692.063 753.366 691.91 748.24 691.91 743.171L691.913 723.497L691.974 655.042Z"/>
	<path fill="#F59C21" transform="scale(0.488281 0.488281)" d="M806.234 458.75L852.25 458.611C855 458.696 856.655 459.273 858.558 461.34C860 462.906 860.485 464.252 860.662 466.363C861.333 474.393 860.85 482.81 860.861 490.889L860.757 540.373L860.571 586.891C860.547 594.44 860.957 602.235 860.458 609.75C860.277 612.474 859.072 614.687 856.985 616.43C855.307 617.831 853.456 618.842 851.25 618.953L801.06 619.003L699.22 618.978L636.537 618.966C626.533 618.959 615.532 619.868 605.683 618.621C601.657 618.112 597.9 617.388 594 616.276C581.32 612.94 569.276 605.558 559.984 596.392C544.455 581.074 536.238 561.283 536.122 539.504C536.004 517.375 544.043 498.631 559.591 482.913C570.661 471.721 583.917 464.293 599.328 460.887C610.993 458.309 622.865 458.934 634.736 458.94L671.343 458.94L806.234 458.75Z"/>
	<path fill="#FEFEFD" transform="scale(0.488281 0.488281)" d="M784.55 466.75L787.75 466.98C788.872 467.777 789.189 468.206 789.656 469.5C789.483 469.936 789.183 470.882 788.83 471.25C788.569 471.522 787.761 472.147 787.371 472.324C784.484 473.638 758.063 472.843 753.066 472.845L645.003 472.887L623.788 472.942C619.597 472.963 615.193 472.735 611.04 473.319L610.25 473.44C599.783 474.988 588.418 479.668 580.05 486.188C566.627 496.647 556.552 513.456 554.581 530.483C554.04 535.162 554.049 539.679 554.154 544.378L554.296 545.444L553.75 545.326C551.121 537.683 549.565 529.973 550.781 521.87C552.831 508.221 558.728 497.417 568.461 487.602C578.139 477.842 590.655 471.115 604.102 468.181C611.562 466.553 619.761 467.044 627.375 466.994L660.793 466.878L784.55 466.75Z"/>
	<path fill="#55161F" transform="scale(0.488281 0.488281)" d="M619.346 500.223C629.087 500.584 637.161 502.754 644.75 509.119C653.541 516.493 658.566 526.106 659.374 537.583C660.072 547.495 656.004 558.483 649.552 565.962C641.998 574.718 632.545 578.19 621.26 579.023C617.441 579.057 613.623 578.946 609.891 578.054C600.14 575.725 591.047 569.423 585.75 560.833C580.494 552.31 578.177 540.67 580.703 530.839L580.93 530C582.582 523.662 585.569 518.52 589.9 513.642C597.686 504.871 607.852 500.919 619.346 500.223Z"/>
	<path fill="#D4D4CF" transform="scale(0.488281 0.488281)" d="M617.112 572.673C615.189 572.636 613.416 572.429 611.548 571.955C602.712 569.713 595.126 563.485 590.641 555.604C586.499 548.327 584.714 538.923 587.178 530.805L587.433 530C588.091 527.862 588.872 525.916 589.986 523.976C594.767 515.644 602.325 509.989 611.614 507.566L612.5 507.341C614.82 506.734 616.842 506.488 619.234 506.459C628.168 506.35 636.524 509.444 642.928 515.75C649.732 522.45 652.571 531.365 652.563 540.698C652.604 549.437 649.358 557.341 643.214 563.601C636.905 570.029 628.45 572.926 619.5 572.915L617.114 572.707L617.112 572.673Z"/>
	<path fill="#B1B1B0" transform="scale(0.488281 0.488281)" d="M617.112 572.673L617.009 571.516C616.562 571.064 616.129 570.655 615.601 570.3C611.928 567.832 609.088 564.588 606.731 560.87L606.816 560.595C608.884 561.266 610.842 562.34 612.971 562.799C617.053 563.679 623.271 563.209 627.202 561.8C632.91 559.755 638.088 554.874 640.701 549.401C643.535 543.463 644.459 536.728 642.237 530.448L641.983 529.75C640.876 526.593 639.026 523.934 637.747 520.842C641.438 523.728 646.647 529.418 648.882 533.602C650.101 535.884 650.648 538.318 652.281 540.356L652.563 540.698C652.604 549.437 649.358 557.341 643.214 563.601C636.905 570.029 628.45 572.926 619.5 572.915L617.114 572.707L617.112 572.673Z"/>
	<path fill="#FEFEFD" transform="scale(0.488281 0.488281)" d="M611.144 520.079C614.108 519.778 617.888 519.462 620.664 520.695L621.25 520.972C624.848 522.608 627.845 525.16 629.511 528.833C631.365 532.918 631.539 537.168 629.801 541.313C627.805 546.075 624.474 548.416 619.869 550.37C616.955 550.704 613.723 550.961 610.906 549.982C606.782 548.547 603.38 545.435 601.56 541.463C599.689 537.379 599.543 533.388 601.23 529.21C603.127 524.512 606.684 522.015 611.144 520.079Z"/>
	<path fill="#D65A2F" transform="scale(0.488281 0.488281)" d="M164.018 314.513L683.997 314.853C687.824 320.506 690.389 327.811 691.368 334.545C692.117 339.697 691.945 345.018 691.956 350.211L691.952 372.408L691.965 449.735L618.745 449.916C593.578 450.252 570.106 458.64 552.268 476.886C536.092 493.433 527.175 513.46 526.373 536.609C526.261 561.189 533.62 584.833 551.308 602.517C567.405 618.609 586.555 628.114 609.425 629.822C619.012 630.538 629.01 629.979 638.635 629.968L691.957 629.963L691.974 655.042L691.913 723.497L691.91 743.171C691.91 748.24 692.063 753.366 691.187 758.377C690.163 764.242 687.651 769.818 684.25 774.676L683.706 775.466C681.015 779.282 677.376 782.831 673.5 785.42L672.711 785.955C666.792 789.9 659.679 791.369 652.687 791.813C646.712 792.192 640.584 791.943 634.59 791.944L601.811 791.934L500.833 791.901L164.92 791.959L164.018 314.513Z"/>
	<path fill="#FEFEFD" transform="scale(0.488281 0.488281)" d="M178.696 694.25C179.792 693.925 180.852 693.773 182 693.867C183.447 693.985 185.027 694.951 185.839 696.152C187.607 698.767 187.565 723.813 186.653 727.631C186.157 729.704 184.971 730.653 183.25 731.764C181.893 732.142 180.765 732.346 179.361 732.032C177.161 731.541 175.957 729.554 174.772 727.814C173.706 722.223 174.481 715.16 174.481 709.424C174.481 706.256 173.906 701.752 174.693 698.717C175.237 696.623 176.923 695.289 178.696 694.25Z"/>
	<path fill="#FEFEFD" transform="scale(0.488281 0.488281)" d="M178.875 338.75C180.008 338.551 181.162 338.328 182.281 338.714C183.765 339.226 185.523 340.899 186.15 342.339C186.924 344.119 186.74 346.736 186.765 348.654L186.868 360.887L186.956 405.257L186.91 579.546L186.954 664.25C186.917 666.033 186.737 667.898 185.903 669.5C185.114 671.014 183.772 671.522 182.25 672.056C181.451 672.159 180.854 672.218 180.062 672.163C178.42 672.051 177.034 671.503 175.992 670.179C174.933 668.834 174.602 667.522 174.53 665.837L174.037 584.241L173.993 443.125L174.218 368.141L174.368 352.308C174.404 349.783 174.16 346.752 174.658 344.29C175.177 341.722 176.734 340.088 178.875 338.75Z"/>
	<path fill="#AF3B1B" transform="scale(0.488281 0.488281)" d="M691.974 655.042L634.497 654.95C618.715 654.984 602.2 656.081 586.748 652.284C576.165 649.684 565.387 644.082 556.452 637.895C538.488 625.455 523.862 603.542 520.25 581.909C518.339 570.465 519.168 557.525 522.992 546.574C523.629 544.751 524.238 542.318 525.407 540.819C526.112 539.914 525.973 537.842 526.373 536.609C526.261 561.189 533.62 584.833 551.308 602.517C567.405 618.609 586.555 628.114 609.425 629.822C619.012 630.538 629.01 629.979 638.635 629.968L691.957 629.963L691.974 655.042Z"/>
</svg>
