<?xml version="1.0" encoding="utf-8" ?>
<svg xmlns="http://www.w3.org/2000/svg" xmlns:xlink="http://www.w3.org/1999/xlink" width="500" height="500">
	<path fill="#2C3551" transform="scale(0.488281 0.488281)" d="M-0 -0L1024 0L1024 1024L-0 1024L0 -0Z"/>
	<path fill="#74B7CE" transform="scale(0.488281 0.488281)" d="M801.574 651.694L802.378 651.987C803.463 652.403 803.887 653.034 804.75 653.755C805.515 654.394 805.836 654.419 806.5 655.255C806.857 654.541 806.994 653.983 807.255 653.25C807.548 652.427 808.029 652.004 808.606 651.376C807.977 656.608 805.11 661.247 802.407 665.676C801.033 663.114 800.084 660.054 799.524 657.214C800.37 655.394 801.013 653.62 801.574 651.694Z"/>
	<defs>
		<linearGradient id="gradient_0" gradientUnits="userSpaceOnUse" x1="749.79163" y1="346.35101" x2="757.75507" y2="343.79453">
			<stop offset="0" stop-color="#52A1C2"/>
			<stop offset="1" stop-color="#73BAD1"/>
		</linearGradient>
	</defs>
	<path fill="url(#gradient_0)" transform="scale(0.488281 0.488281)" d="M760.843 337.12C760.929 339.692 760.375 342.514 762.138 344.438C758.59 346.616 754.572 348.504 751.341 351.101C750.654 349.306 749.453 347.558 748.653 345.765C752.213 342.367 756.729 339.808 760.843 337.12Z"/>
	<path fill="#B3DCE4" transform="scale(0.488281 0.488281)" d="M774.643 627.772C777.156 628.1 779.82 628.362 782.25 629.073C787.412 630.582 792.49 633.749 797.154 636.418C800.197 638.159 803.704 639.947 805.907 642.75C807.797 645.156 808.615 648.366 808.606 651.376C808.029 652.004 807.548 652.427 807.255 653.25C806.994 653.983 806.857 654.541 806.5 655.255C805.836 654.419 805.515 654.394 804.75 653.755C803.887 653.034 803.463 652.403 802.378 651.987L801.574 651.694L801.126 651.245L800.404 650.568C799.7 649.903 799.017 649.294 798.209 648.75C795.911 647.201 793.346 645.971 790.982 644.508C786.89 641.977 781.809 637.996 776.962 637.187C774.773 636.822 772.169 637.581 770.021 638.055C770.937 634.693 773.176 630.988 774.643 627.772Z"/>
	<path fill="#5DB2C1" transform="scale(0.488281 0.488281)" d="M804.487 354.177C808.548 360.681 812.053 366.596 810.029 374.526C809.503 376.587 808.806 378.453 807.371 380.057C805.066 382.631 801.675 384.53 798.802 386.447L782.774 396.766C781.232 397.81 779.767 398.699 778.054 399.435L775.67 394.193L781.32 389.644L791.811 382.61C795.163 380.335 799.27 377.972 800.706 373.974C802.228 369.738 799.378 365.033 797.505 361.365C798.743 361.358 799.532 361.574 800.532 360.75C802.726 358.943 804.166 357.054 804.487 354.177Z"/>
	<path fill="#217B9E" transform="scale(0.488281 0.488281)" d="M781.32 389.644L782.774 396.766C781.232 397.81 779.767 398.699 778.054 399.435L775.67 394.193L781.32 389.644Z"/>
	<path fill="#B3DCE4" transform="scale(0.488281 0.488281)" d="M760.843 337.12C766.385 333.022 772.067 327.997 779.484 328.99C786.161 329.883 790.689 334.351 794.479 339.56L804.487 354.177C804.166 357.054 802.726 358.943 800.532 360.75C799.532 361.574 798.743 361.358 797.505 361.365C793.218 354.406 787.487 341.572 779.402 339.029C773.407 337.144 767.171 341.664 762.138 344.438C760.375 342.514 760.929 339.692 760.843 337.12Z"/>
	<path fill="#3298B1" transform="scale(0.488281 0.488281)" d="M747.091 677.139L763.507 686.38C766.028 687.777 769.049 689.906 771.921 690.421C773.019 690.618 774.132 690.452 775.197 690.162C777.715 689.477 779.919 688.286 781.75 686.407C784.394 683.695 786.136 679.93 788.053 676.7L799.524 657.214C800.084 660.054 801.033 663.114 802.407 665.676L795.774 677.329C791.942 684.098 787.166 695.211 779.153 697.468C773.71 699.001 768.543 696.062 763.836 693.675C756.98 690.196 749.937 685.636 742.797 682.958L747.091 677.139Z"/>
	<path fill="#060E28" transform="scale(0.488281 0.488281)" d="M762.138 344.438C767.171 341.664 773.407 337.144 779.402 339.029C787.487 341.572 793.218 354.406 797.505 361.365C799.378 365.033 802.228 369.738 800.706 373.974C799.27 377.972 795.163 380.335 791.811 382.61L781.32 389.644L775.67 394.193C771.247 383.711 766.148 373.884 760.23 364.173C757.478 359.658 754.865 355.073 751.341 351.101C754.572 348.504 758.59 346.616 762.138 344.438Z"/>
	<path fill="#060E28" transform="scale(0.488281 0.488281)" d="M770.021 638.055C772.169 637.581 774.773 636.822 776.962 637.187C781.809 637.996 786.89 641.977 790.982 644.508C793.346 645.971 795.911 647.201 798.209 648.75C799.017 649.294 799.7 649.903 800.404 650.568L801.126 651.245L801.574 651.694C801.013 653.62 800.37 655.394 799.524 657.214L788.053 676.7C786.136 679.93 784.394 683.695 781.75 686.407C779.919 688.286 777.715 689.477 775.197 690.162C774.132 690.452 773.019 690.618 771.921 690.421C769.049 689.906 766.028 687.777 763.507 686.38L747.091 677.139C748.001 674.713 749.787 672.368 751.157 670.164L758.965 657.305L765.034 646.75C766.62 643.828 767.896 640.642 770.021 638.055Z"/>
	<path fill="#5DB2C1" transform="scale(0.488281 0.488281)" d="M630.368 187.209C640.64 186.494 654.726 185.977 663.029 193.435C664.817 195.04 666.037 197.141 666.915 199.351C669.937 206.958 671.199 215.737 672.919 223.722L683.819 279.017C681.095 278.425 677.908 275.783 675.545 274.302L653.029 260.077C646.114 255.956 638.794 251.982 631.491 248.581L631.425 194.033L630.368 187.209Z"/>
	<path fill="#5DB2C1" transform="scale(0.488281 0.488281)" d="M340.877 279.043C340.629 278.059 340.511 277.011 340.522 275.996C340.573 271.451 341.854 266.612 342.747 262.15L349.865 231.26C352.494 220.389 354.507 208.398 358.57 198C359.484 195.662 360.822 193.496 362.644 191.75C364.57 189.905 367.265 188.783 369.745 187.895C372.24 187.001 375.012 185.939 377.637 185.57C383.187 184.792 389.337 185.454 394.939 185.638C394.658 188.384 394.532 191.232 393.774 193.894C392.865 201.633 393.269 209.722 393.276 217.52L393.468 248.028L340.877 279.043Z"/>
	<path fill="#217B9E" transform="scale(0.488281 0.488281)" d="M687.759 737.813C685.691 754.282 680.858 770.409 676.977 786.5L670.606 811.653C669.435 816.059 668.508 820.744 666.708 824.937C665.567 827.593 663.847 829.843 661.55 831.612C657.515 834.719 652.785 835.991 647.75 835.328C643.104 834.717 638.795 832.369 636.038 828.577C634.909 827.023 634.053 825.229 633.181 823.522L632.595 822.28C632.722 818.753 632.175 814.943 631.95 811.403L628.201 772.422C649.303 763.359 668.831 750.674 687.759 737.813Z"/>
	<path fill="#217B9E" transform="scale(0.488281 0.488281)" d="M333.075 732.536C353.166 748.186 373.415 761.984 396.517 772.899L394.482 813.561L394.548 824.52C392.372 828.243 390.282 832.481 386.655 834.997C383.295 837.328 377.477 838.328 373.479 837.336L372.5 837.06C370.229 836.436 368.288 835.393 366.467 833.881C363.725 831.604 361.679 828.786 360.318 825.5C358.332 820.704 357.139 815.273 355.788 810.25L349.546 788.196L338.748 751.821C336.933 745.876 333.619 738.655 333.075 732.536Z"/>
	<path fill="#ED8C2C" transform="scale(0.488281 0.488281)" d="M408.768 910.457L614.802 910.483C613.904 915.084 613.226 919.907 611.755 924.367C609.759 930.415 605.701 934.308 600.05 937.028C598.465 937.791 596.915 938.132 595.16 938.19L558.825 938.141L466.93 938.109L439.795 938.172C435.449 938.186 429.144 938.979 425.136 937.357L424.5 937.077C423.183 936.513 421.952 935.935 420.758 935.13C412.314 929.434 410.514 919.81 408.768 910.457Z"/>
	<path fill="#ED8C2C" transform="scale(0.488281 0.488281)" d="M410.088 112.55C411.782 105.813 412.362 98.8412 416.042 92.75C418.512 88.6622 422.615 85.1805 427.345 84.127C431.951 83.101 438.373 83.9465 443.187 83.9422L483.817 83.9274L559.99 83.9818C571.846 83.9911 584.303 83.2064 596.1 84.0303C598.662 84.2093 601.271 85.3914 603.414 86.7575C611.938 92.1908 613.671 103.537 615.734 112.562L410.088 112.55Z"/>
	<path fill="#ED8C2C" transform="scale(0.488281 0.488281)" d="M621.808 877.12L617.22 898.861L614.802 910.483L408.768 910.457L406.412 898.822L401.941 877.194L621.808 877.12Z"/>
	<path fill="#F7F1DA" transform="scale(0.488281 0.488281)" d="M406.412 898.822L617.22 898.861L614.802 910.483L408.768 910.457L406.412 898.822Z"/>
	<path fill="#ED8C2C" transform="scale(0.488281 0.488281)" d="M410.088 112.55L615.734 112.562L618 124.77L623.21 148.872L402.211 148.881L407.576 124.578L410.088 112.55Z"/>
	<path fill="#F7F1DA" transform="scale(0.488281 0.488281)" d="M410.088 112.55L615.734 112.562L618 124.77L407.576 124.578L410.088 112.55Z"/>
	<path fill="#ED8C2C" transform="scale(0.488281 0.488281)" d="M428.514 829.385L431.385 829.934C436.513 833.691 444.312 835.279 450.313 837.273C452.202 837.901 454.461 838.317 456.102 839.433L568.104 839.497L589.571 839.451L591.844 839.105L613.388 830.656C614.896 830.181 616.486 830.058 618.05 829.859L632.32 829.944L629.838 839.476L624.459 864.621L621.808 877.12L401.941 877.194L399.714 864.969L396.22 839.494L394.989 830.054L428.514 829.385Z"/>
	<path fill="#F7F1DA" transform="scale(0.488281 0.488281)" d="M618.05 829.859L632.32 829.944L629.838 839.476L591.844 839.105L613.388 830.656C614.896 830.181 616.486 830.058 618.05 829.859Z"/>
	<path fill="#F7F1DA" transform="scale(0.488281 0.488281)" d="M428.514 829.385L431.385 829.934C436.513 833.691 444.312 835.279 450.313 837.273C452.202 837.901 454.461 838.317 456.102 839.433L441.656 839.47L396.22 839.494L394.989 830.054L428.514 829.385Z"/>
	<path fill="#BB4121" transform="scale(0.488281 0.488281)" d="M456.102 839.433L568.104 839.497L589.571 839.451L556.207 849.541C539.323 853.597 521.899 856.665 504.463 855.929C490.913 855.356 477.64 852.463 464.697 848.529C459.465 846.938 454.443 844.938 449.389 842.864C446.791 841.798 444.057 840.942 441.656 839.47L456.102 839.433Z"/>
	<path fill="#F7F1DA" transform="scale(0.488281 0.488281)" d="M399.714 864.969L624.459 864.621L621.808 877.12L401.941 877.194L399.714 864.969Z"/>
	<path fill="#BB4121" transform="scale(0.488281 0.488281)" d="M396.517 772.899C407.181 777.652 418.029 782.298 429.189 785.769C471.402 798.901 518.067 801.096 561.5 792.933C581.855 789.107 602.014 782.794 621.325 775.358C623.571 774.493 626.107 773.604 628.201 772.422L631.95 811.403C632.175 814.943 632.722 818.753 632.595 822.28L633.181 823.522L632.32 829.944L618.05 829.859C616.486 830.058 614.896 830.181 613.388 830.656L591.844 839.105L589.571 839.451L568.104 839.497L456.102 839.433C454.461 838.317 452.202 837.901 450.313 837.273C444.312 835.279 436.513 833.691 431.385 829.934L428.514 829.385L394.989 830.054L394.548 824.52L394.482 813.561L396.517 772.899Z"/>
	<path fill="#ED8C2C" transform="scale(0.488281 0.488281)" d="M394.482 813.561C398.91 815.949 403.124 818.317 407.745 820.355L421.249 826.05C423.547 827.003 426.555 827.877 428.514 829.385L394.989 830.054L394.548 824.52L394.482 813.561Z"/>
	<path fill="#ED8C2C" transform="scale(0.488281 0.488281)" d="M631.95 811.403C632.175 814.943 632.722 818.753 632.595 822.28L633.181 823.522L632.32 829.944L618.05 829.859C616.486 830.058 614.896 830.181 613.388 830.656C611.106 829.824 608.13 830.16 605.696 830.143C600.367 830.105 594.961 830.31 589.657 829.756L631.95 811.403Z"/>
	<path fill="#ED8C2C" transform="scale(0.488281 0.488281)" d="M632.595 822.28L633.181 823.522L632.32 829.944L618.05 829.859C622.016 826.456 627.885 824.489 632.595 822.28Z"/>
	<path fill="#B7996F" transform="scale(0.488281 0.488281)" d="M431.385 829.934L537.808 829.873L570.683 829.951C575.912 829.979 581.722 829.517 586.883 830.311L589.657 829.756C594.961 830.31 600.367 830.105 605.696 830.143C608.13 830.16 611.106 829.824 613.388 830.656L591.844 839.105L589.571 839.451L568.104 839.497L456.102 839.433C454.461 838.317 452.202 837.901 450.313 837.273C444.312 835.279 436.513 833.691 431.385 829.934Z"/>
	<path fill="#D5BF9F" transform="scale(0.488281 0.488281)" d="M589.657 829.756C594.961 830.31 600.367 830.105 605.696 830.143C608.13 830.16 611.106 829.824 613.388 830.656L591.844 839.105L589.571 839.451L568.104 839.497L565.25 838.788C568.26 837.194 571.891 836.203 575.102 835.036L586.883 830.311L589.657 829.756Z"/>
	<path fill="#ED8C2C" transform="scale(0.488281 0.488281)" d="M402.211 148.881L623.21 148.872L625.586 160.7L629.581 181.595L630.368 187.209L631.425 194.033L631.491 248.581L625.073 245.867C582.132 228.201 535.254 218.988 488.75 223.129C455.963 226.049 423.752 235.363 393.468 248.028L393.276 217.52C393.269 209.722 392.865 201.633 393.774 193.894C394.532 191.232 394.658 188.384 394.939 185.638L395.656 181.597L399.718 160.535C400.931 156.875 401.457 152.672 402.211 148.881Z"/>
	<path fill="#F7F1DA" transform="scale(0.488281 0.488281)" d="M395.656 181.597L629.581 181.595L630.368 187.209L631.425 194.033L393.774 193.894C394.532 191.232 394.658 188.384 394.939 185.638L395.656 181.597Z"/>
	<path fill="#ED8C2C" transform="scale(0.488281 0.488281)" d="M402.211 148.881L623.21 148.872L625.586 160.7L629.581 181.595L395.656 181.597L399.718 160.535C400.931 156.875 401.457 152.672 402.211 148.881Z"/>
	<path fill="#F7F1DA" transform="scale(0.488281 0.488281)" d="M402.211 148.881L623.21 148.872L625.586 160.7L399.718 160.535C400.931 156.875 401.457 152.672 402.211 148.881Z"/>
	<path fill="#022151" transform="scale(0.488281 0.488281)" d="M785.346 598.051L774.643 627.772C773.176 630.988 770.937 634.693 770.021 638.055C767.896 640.642 766.62 643.828 765.034 646.75L758.965 657.305L751.157 670.164C749.787 672.368 748.001 674.713 747.091 677.139L742.797 682.958L728.723 700.552C722.357 707.993 715.108 715.088 707.831 721.631C701.394 727.42 694.332 732.261 687.759 737.813C668.831 750.674 649.303 763.359 628.201 772.422C626.107 773.604 623.571 774.493 621.325 775.358C602.014 782.794 581.855 789.107 561.5 792.933C518.067 801.096 471.402 798.901 429.189 785.769C418.029 782.298 407.181 777.652 396.517 772.899C373.415 761.984 353.166 748.186 333.075 732.536C327.63 727.034 321.053 722.479 315.438 717.072C295.968 698.322 279.213 677.703 265.169 654.592C261.257 648.153 241.823 611.614 243.003 606.788C250.729 603.546 259.155 600.751 267.352 599.1L270.498 606.5C289.577 650.751 319.65 690.366 359.26 718.169C378.274 731.515 399.715 742.168 421.264 750.696C482.709 775.015 554.45 771.431 614.58 745.221C658.373 726.132 698.289 695.273 725.772 655.897C738.182 638.116 747.921 618.643 755.88 598.524L785.346 598.051Z"/>
	<defs>
		<linearGradient id="gradient_1" gradientUnits="userSpaceOnUse" x1="425.36047" y1="697.88947" x2="645.32788" y2="263.71255">
			<stop offset="0" stop-color="#1B5F88"/>
			<stop offset="1" stop-color="#2382A5"/>
		</linearGradient>
	</defs>
	<path fill="url(#gradient_1)" transform="scale(0.488281 0.488281)" d="M393.468 248.028C423.752 235.363 455.963 226.049 488.75 223.129C535.254 218.988 582.132 228.201 625.073 245.867L631.491 248.581C638.794 251.982 646.114 255.956 653.029 260.077L675.545 274.302C677.908 275.783 681.095 278.425 683.819 279.017C689.249 281.611 694.199 285.897 698.808 289.727C714.825 303.04 729.654 318.697 741.821 335.619C744.119 338.815 746.927 342.249 748.653 345.765C749.453 347.558 750.654 349.306 751.341 351.101C754.865 355.073 757.478 359.658 760.23 364.173C766.148 373.884 771.247 383.711 775.67 394.193L778.054 399.435C788.136 424.785 794.227 451.144 796.848 478.27L810.587 478.002C817.983 477.875 824.537 477.25 830.447 482.763C833.664 485.764 835.002 489.575 835.11 493.892C835.705 501.411 835.37 509.137 835.378 516.683C835.385 523.748 836.339 532.933 834.213 539.685L834.056 540.213C833.025 543.488 829.942 546.045 826.98 547.559C824.204 548.978 820.889 549.072 817.839 549.159L802.82 549.247C800.14 549.219 796.855 548.783 794.256 549.377C793.013 566.186 789.445 581.798 785.346 598.051L755.88 598.524C758.981 591.086 761.065 582.959 763.077 575.178C768.605 553.802 771.672 532.338 771.458 510.245C771.864 482.179 766.677 454.708 757.714 428.181C743.802 387.009 718.922 348.558 686.702 319.328C678.237 311.648 669.063 304.923 659.723 298.365C648.84 290.723 637.739 283.689 625.795 277.813C609.529 269.811 591.761 262.875 574.166 258.472C553.717 253.355 533.327 251.448 512.302 251.459C482.636 251.474 454.661 255.344 426.482 264.945C374.666 282.6 329.141 317.81 298.127 362.814C293.226 369.925 288.093 377.1 284.271 384.87C279.585 392.137 275.989 401.109 272.484 409C250.995 457.369 245.349 510.631 256.566 562.416L267.352 599.1C259.155 600.751 250.729 603.546 243.003 606.788C240.887 603.044 239.546 597.867 238.179 593.743C224.508 552.473 220.221 507.94 227.403 465L230.078 451.05C230.521 448.945 230.816 446.557 231.799 444.628C233.835 436.311 235.846 427.971 238.563 419.844C252.162 379.158 275.005 341.832 304.645 310.875C315.77 299.255 327.681 288.286 340.877 279.043L393.468 248.028Z"/>
	<path fill="#165894" transform="scale(0.488281 0.488281)" d="M794.858 540.967L795.708 514.356L816.036 514.411C819.883 514.385 824.133 513.956 827.928 514.581L827.896 528.384C827.88 530.906 828.088 533.704 827.601 536.176C827.377 537.31 827.086 538.094 826.25 538.929C825.335 539.844 824.276 540.449 823.007 540.718C820.069 541.342 816.483 540.971 813.479 540.979L794.858 540.967Z"/>
	<path fill="#3298B1" transform="scale(0.488281 0.488281)" d="M794.18 486.841L812.5 486.796C815.132 486.815 818.247 486.532 820.771 487.25C822.611 487.774 824.362 488.947 825.706 490.287C826.354 490.934 827.718 492.263 827.968 493.102C828.296 494.202 827.978 496.754 827.981 498.009L827.973 513.513L827.963 513.995L795.787 513.98L794.18 486.841Z"/>
	<path fill="#74B7CE" transform="scale(0.488281 0.488281)" d="M393.468 248.028C423.752 235.363 455.963 226.049 488.75 223.129C535.254 218.988 582.132 228.201 625.073 245.867L631.491 248.581C638.794 251.982 646.114 255.956 653.029 260.077L675.545 274.302C677.908 275.783 681.095 278.425 683.819 279.017C689.249 281.611 694.199 285.897 698.808 289.727C714.825 303.04 729.654 318.697 741.821 335.619C744.119 338.815 746.927 342.249 748.653 345.765C749.453 347.558 750.654 349.306 751.341 351.101C754.865 355.073 757.478 359.658 760.23 364.173C766.148 373.884 771.247 383.711 775.67 394.193L778.054 399.435C788.136 424.785 794.227 451.144 796.848 478.27L810.587 478.002C817.983 477.875 824.537 477.25 830.447 482.763C833.664 485.764 835.002 489.575 835.11 493.892L835.075 520.969C833.046 518.826 830.639 515.85 827.928 514.581L827.963 513.995L827.973 513.513L827.981 498.009C827.978 496.754 828.296 494.202 827.968 493.102C827.718 492.263 826.354 490.934 825.706 490.287C824.362 488.947 822.611 487.774 820.771 487.25C818.247 486.532 815.132 486.815 812.5 486.796L794.18 486.841C790.484 459.172 784.445 431.679 772.828 406.15C762.777 384.061 750.812 362.156 736.367 342.624C704.84 299.991 660.291 265.661 610.538 247.103C541.188 221.236 465.055 223.257 397.584 254.054C375.057 264.336 353.096 277.373 333.851 293.001C300.436 320.136 272.754 357.075 255.149 396.25C251.385 404.625 247.803 413.32 244.899 422.032C243.538 426.116 242.626 430.415 241.125 434.429L241.125 432.625C241.235 432.12 241.524 431.663 241.625 431.156L242.125 429.125C242.609 427.818 242.416 428.719 242.633 427.633C242.725 427.17 242.778 426.423 243 426C243.614 424.832 243.468 425.052 243.255 423.75L243.875 423.375L243.877 422C242.45 420.992 241.519 419.958 240.431 418.59L240.026 418.074C239.226 420.207 238.255 422.406 237.778 424.635L232.347 445.305L231.799 444.628C233.835 436.311 235.846 427.971 238.563 419.844C252.162 379.158 275.005 341.832 304.645 310.875C315.77 299.255 327.681 288.286 340.877 279.043L393.468 248.028Z"/>
	<defs>
		<linearGradient id="gradient_2" gradientUnits="userSpaceOnUse" x1="444.72604" y1="758.06042" x2="578.07782" y2="259.32294">
			<stop offset="0" stop-color="#DA532B"/>
			<stop offset="1" stop-color="#E57E50"/>
		</linearGradient>
	</defs>
	<path fill="url(#gradient_2)" transform="scale(0.488281 0.488281)" d="M284.271 384.87C288.093 377.1 293.226 369.925 298.127 362.814C329.141 317.81 374.666 282.6 426.482 264.945C454.661 255.344 482.636 251.474 512.302 251.459C533.327 251.448 553.717 253.355 574.166 258.472C591.761 262.875 609.529 269.811 625.795 277.813C637.739 283.689 648.84 290.723 659.723 298.365C669.063 304.923 678.237 311.648 686.702 319.328C718.922 348.558 743.802 387.009 757.714 428.181C766.677 454.708 771.864 482.179 771.458 510.245C771.672 532.338 768.605 553.802 763.077 575.178C761.065 582.959 758.981 591.086 755.88 598.524C747.921 618.643 738.182 638.116 725.772 655.897C698.289 695.273 658.373 726.132 614.58 745.221C554.45 771.431 482.709 775.015 421.264 750.696C399.715 742.168 378.274 731.515 359.26 718.169C319.65 690.366 289.577 650.751 270.498 606.5L267.352 599.1L256.566 562.416C245.349 510.631 250.995 457.369 272.484 409C275.989 401.109 279.585 392.137 284.271 384.87Z"/>
	<path fill="#010F3D" transform="scale(0.488281 0.488281)" d="M753.681 501.066C755.155 501.008 756.835 501.122 758.25 501.575C760.862 502.411 763.068 504.861 764.035 507.363C764.957 509.747 764.517 512.653 763.46 514.924C762.07 517.909 759.854 518.738 756.889 519.744C755.339 519.576 753.794 519.365 752.345 518.762C749.451 517.557 747.408 515.533 746.237 512.603C745.382 510.461 745.751 508.297 746.75 506.269C748.241 503.244 750.611 502.101 753.681 501.066Z"/>
	<path fill="#010F3D" transform="scale(0.488281 0.488281)" d="M258.649 503.952L279.167 503.986L279.079 517.379L258.72 517.405L258.649 503.952Z"/>
	<path fill="#022151" transform="scale(0.488281 0.488281)" d="M299.038 623.047C300.695 622.969 302.611 622.752 304.224 623.175C306.53 623.78 308.547 625.463 309.75 627.487C311.122 629.794 311.19 632.366 310.356 634.868C309.274 638.12 306.253 639.938 303.383 641.419C301.719 641.596 299.486 641.827 297.903 641.235C295.523 640.344 293.468 638.346 292.464 636.026C291.434 633.648 291.287 631.26 292.31 628.854C293.674 625.647 296 624.322 299.038 623.047Z"/>
	<path fill="#010F3D" transform="scale(0.488281 0.488281)" d="M720.725 622.612C722.373 622.773 723.907 622.979 725.409 623.725C727.807 624.915 729.864 627.375 730.595 629.946C731.32 632.499 730.991 635.529 729.452 637.75C727.709 640.267 725.283 641.16 722.426 641.764C720.715 641.585 718.915 641.364 717.368 640.562C714.75 639.204 712.516 636.751 711.708 633.877C711.167 631.952 711.587 630.066 712.603 628.383C714.622 625.037 716.991 623.518 720.725 622.612Z"/>
	<path fill="#010F3D" transform="scale(0.488281 0.488281)" d="M638.496 703.564C642.696 706.424 645.27 709.409 646.154 714.576C646.549 716.883 646.332 719.584 644.949 721.558C642.593 724.919 636.863 726.88 633.272 728.572L632.654 728.458L621.913 712.485L638.496 703.564Z"/>
	<path fill="#B7996F" transform="scale(0.488281 0.488281)" d="M711.888 410.364L711.628 409.812C709.758 406.72 707.135 402.489 706.122 399C705.901 398.239 705.678 397.665 705.257 396.984C704.525 395.801 704.828 394.623 704.861 393.25L705.75 392.755C706.797 394.104 707.558 395.738 709.142 396.4L722.253 424.412C731.365 445.136 737.144 466.471 740.611 488.809C741.783 496.365 743.61 505.306 741.623 512.798L741.319 514.247C740.751 511.13 740.635 507.889 740.241 504.738L737.117 484.791C732.389 459.06 723.784 434.12 712.164 410.716L711.888 410.364Z"/>
	<path fill="#022151" transform="scale(0.488281 0.488281)" d="M383.062 698.735L398.847 708.392L387.764 727.494L372.626 718.655C372.365 717.547 375.285 713.411 376.041 712.107C378.564 707.757 380.949 703.299 383.062 698.735Z"/>
	<path fill="#010F3D" transform="scale(0.488281 0.488281)" d="M519.638 738.299L519.867 738.511C520.94 739.699 520.493 742.728 520.491 744.371L520.473 759.555L501.501 759.892L501.501 738.407L519.638 738.299Z"/>
	<path fill="#BB4121" transform="scale(0.488281 0.488281)" d="M294.716 381.063L294.767 380.899C309.833 355.46 330.465 332.324 353.291 313.648C359.161 308.845 365.971 303.197 373.163 300.524L385.299 319.784C382.877 322.352 379.807 324.29 377.008 326.426L362.725 337.932C344.78 353.448 330.022 371.574 316.927 391.284C314.671 394.607 312.387 397.857 310.657 401.496C305.9 399.925 300.945 396.465 296.802 393.686C294.941 392.438 292.815 391.267 291.419 389.5L292.006 388.57C292.179 386.841 292.293 385.531 293.229 384C293.679 383.265 294.063 382.78 294.38 381.956L294.716 381.063Z"/>
	<path fill="#010F3D" transform="scale(0.488281 0.488281)" d="M292.006 388.57L297.566 379.245L316.927 391.284C314.671 394.607 312.387 397.857 310.657 401.496C305.9 399.925 300.945 396.465 296.802 393.686C294.941 392.438 292.815 391.267 291.419 389.5L292.006 388.57Z"/>
	<path fill="#BB4121" transform="scale(0.488281 0.488281)" d="M379.405 297.122C380.895 294.326 383.784 293.277 386.36 291.646C401.66 281.966 419.78 274.39 437.104 269.077C474.429 257.628 515.934 254.334 554.474 261.324C581.192 266.17 607.937 276.062 631.859 288.876C660.586 304.264 685.631 326.165 706.503 351.048C713.001 358.794 719.613 366.961 725.056 375.5C727.892 379.949 730.17 384.724 732.698 389.348C742.641 407.533 750.434 426.325 756.388 446.164L761.298 465.62L760.625 466.375C760.374 465.426 760.12 464.543 760.031 463.562C759.957 462.747 759.816 462.815 759.255 462.25L759.5 460.75C759.074 459.757 759.154 459.102 758.875 458.125C758.132 455.524 758.756 458.577 758.367 456.633C758.275 456.17 758.222 455.423 758 455L757.5 454.25L757.375 452.625C757.241 452.117 756.97 451.648 756.867 451.133C756.781 450.703 756.725 449.882 756.5 449.5L756.003 448.875C755.997 447.445 755.457 445.607 755 444.25C754.835 443.759 754.595 443.294 754.447 442.797L753.25 439L752.878 438.5C752.693 437.054 752.143 435.884 751.75 434.5L751.5 433.5C750.864 432.276 751.081 433.251 750.859 432.141C750.58 430.744 749.908 429.724 749.578 428.406C749.425 427.793 749.198 427.696 748.755 427.25L749 426.25C748.604 425.736 748.059 425.132 747.878 424.5C747.492 423.155 747.269 422.339 746.75 421C746.427 420.166 746.563 420.056 745.986 419.186L745.503 418.498C745.5 417.622 745.377 417.289 745 416.5L744.25 415C743.992 414.333 744.035 414.03 743.635 413.359L743.255 412.75L742.878 412L742.503 411.498C742.495 409.312 740.7 407.219 739.875 405.248C739.614 404.625 739.544 404.294 739.125 403.732C738.668 403.119 738.724 403.301 738.378 402.5C738.105 401.87 738.121 401.583 737.604 401.062C736.867 400.321 737.572 400.405 737.375 399.625C737.211 398.972 736.505 397.979 736.094 397.43L735.003 395.998C734.761 395.514 734.637 394.975 734.378 394.5L734.003 393.875L733.75 393L733.378 392.5C733.069 391.945 733.041 391.524 732.625 390.969L731.503 389.498C731.108 388.513 730.954 388.138 730.255 387.25C730.094 388.159 730.049 389.076 730.122 390C730.178 390.705 730.328 391.305 729.997 391.998L729.622 392.5C729.298 393.077 729.178 393.683 728.805 394.291C727.777 395.964 727.091 396.436 725.192 396.917L723.356 397.75C720.652 398.874 718.271 399.32 715.5 398.118C711.929 396.568 710.758 393.912 709.356 390.549L708.755 388.25L708.5 389L707.967 389.029L707.103 388.701C691.582 365.922 674.432 346.644 652.377 329.974L634.553 317.622L623.544 310.891C620.572 309.99 617.699 308.127 614.889 306.769L598.857 299.511C574.021 289.276 547.594 283.814 520.813 282.51L503.767 282.561C492.004 283.175 480.343 284.135 468.75 286.319C452.528 289.375 437.072 294.446 421.822 300.699L404.227 308.773C401.996 309.847 399.366 311.572 397.024 312.241C393.084 314.54 388.748 316.793 385.299 319.784L373.163 300.524C375.344 299.724 377.402 298.298 379.405 297.122Z"/>
	<path fill="#010F3D" transform="scale(0.488281 0.488281)" d="M504.389 279.535L504.464 279.123C505.385 273.517 504.684 266.788 504.623 261.065L519.952 261.164L519.596 279.54L513.203 279.634L504.389 279.535Z"/>
	<path fill="#010F3D" transform="scale(0.488281 0.488281)" d="M623.544 310.891L628.956 299.232C629.801 297.348 630.572 294.968 631.83 293.352C636.807 295.181 640.972 297.659 645.393 300.552C641.895 305.672 636.543 311.811 634.553 317.622L623.544 310.891Z"/>
	<path fill="#010F3D" transform="scale(0.488281 0.488281)" d="M709.356 390.549C709.531 386.881 709.835 385.037 712.764 382.517C715.022 380.574 718.442 378.999 721.503 379.287C723.995 379.521 726.17 381.468 727.616 383.371C729.092 385.315 729.495 387.711 729.183 390.112C728.801 393.049 727.19 394.872 725.192 396.917L723.356 397.75C720.652 398.874 718.271 399.32 715.5 398.118C711.929 396.568 710.758 393.912 709.356 390.549Z"/>
	<path fill="#010F3D" transform="scale(0.488281 0.488281)" d="M379.405 297.122L386.109 293.608L397.024 312.241C393.084 314.54 388.748 316.793 385.299 319.784L373.163 300.524C375.344 299.724 377.402 298.298 379.405 297.122Z"/>
	<path fill="#D5BF9F" transform="scale(0.488281 0.488281)" d="M520.813 282.51C547.594 283.814 574.021 289.276 598.857 299.511L614.889 306.769C617.699 308.127 620.572 309.99 623.544 310.891L634.553 317.622L652.377 329.974C674.432 346.644 691.582 365.922 707.103 388.701L709.142 396.4C707.558 395.738 706.797 394.104 705.75 392.755L704.861 393.25C704.828 394.623 704.525 395.801 705.257 396.984C705.678 397.665 705.901 398.239 706.122 399C707.135 402.489 709.758 406.72 711.628 409.812L711.888 410.364L712.164 410.716C711.354 412.398 711.628 414.254 711.269 416.056C710.372 420.559 709.465 425.285 707.61 429.5C706.499 432.025 705.274 435.294 702.5 436.477L700.96 436.921L700.077 437.436C697.211 430.667 694.427 423.855 690.911 417.388C667.799 374.88 629.9 341.259 585.084 323.148C535.828 303.243 480.9 304.924 432.26 325.709C395.026 341.62 362.785 369.097 340.982 403.245C333.637 414.749 327.729 427.241 322.663 439.894C315.394 458.047 311.271 478.089 309.934 497.578L309.512 510.492C309.497 512.449 309.815 515.02 309.435 516.913C309.081 518.529 308.647 520.088 308.75 521.755L308.002 522.003C307.552 522.581 307.327 522.975 307.002 523.625C306.136 525.362 304.25 527.268 303.061 528.879C302.054 530.243 300.842 531.517 299.537 532.597C298.864 533.154 298.405 533.637 297.862 534.308L290.002 543.003L289.5 543C289.491 540.993 289.692 538.742 289.084 536.817C289.089 539.172 289.558 544.266 288.494 546.292C287.968 547.294 286.844 548.087 286.406 548.976L286.133 549.88C284.995 541.448 283.646 533.238 283.163 524.718C281.227 490.641 287.232 456.373 300.035 424.75L310.657 401.496C312.387 397.857 314.671 394.607 316.927 391.284C330.022 371.574 344.78 353.448 362.725 337.932L377.008 326.426C379.807 324.29 382.877 322.352 385.299 319.784C388.748 316.793 393.084 314.54 397.024 312.241C399.366 311.572 401.996 309.847 404.227 308.773L421.822 300.699C437.072 294.446 452.528 289.375 468.75 286.319C480.343 284.135 492.004 283.175 503.767 282.561L520.813 282.51Z"/>
	<defs>
		<linearGradient id="gradient_3" gradientUnits="userSpaceOnUse" x1="503.84198" y1="282.35559" x2="491.37973" y2="556.3197">
			<stop offset="0" stop-color="#B59874"/>
			<stop offset="1" stop-color="#C8B4A0"/>
		</linearGradient>
	</defs>
	<path fill="url(#gradient_3)" transform="scale(0.488281 0.488281)" d="M520.813 282.51C547.594 283.814 574.021 289.276 598.857 299.511L614.889 306.769C617.699 308.127 620.572 309.99 623.544 310.891L634.553 317.622L652.377 329.974C674.432 346.644 691.582 365.922 707.103 388.701L709.142 396.4C707.558 395.738 706.797 394.104 705.75 392.755L704.861 393.25C704.828 394.623 704.525 395.801 705.257 396.984C705.678 397.665 705.901 398.239 706.122 399C707.135 402.489 709.758 406.72 711.628 409.812L711.888 410.364L710.995 410.754L710.663 410.997L710.589 410.466C710.24 408.95 709.08 407.94 707.75 407.245L707.102 406.954L706.682 407.5L706.548 406.493C706.186 404.452 704.525 402.65 703.35 401.002L697.686 393.163C677.745 366.582 655.471 344.454 626.992 327.01C577.225 296.526 519.302 285.788 462.318 299.561C446.351 303.421 431.012 308.549 416.226 315.739C378.843 333.917 347.093 364.05 325.419 399.396C312.277 420.829 302.861 445.272 296.639 469.613L293.36 485.143C293.012 486.874 293.057 488.724 292.552 490.398C292.202 491.558 292.42 492.696 292.049 493.855C291.273 496.277 291.312 499.693 290.816 502.25C290.513 503.81 291.179 505.104 290.259 506.5C290.257 508.456 290.751 513.002 289.755 514.5C289.754 516.67 290.345 521.86 289.255 523.5C289.254 526.051 289.99 533.142 288.755 535L289.084 536.817C289.089 539.172 289.558 544.266 288.494 546.292C287.968 547.294 286.844 548.087 286.406 548.976L286.133 549.88C284.995 541.448 283.646 533.238 283.163 524.718C281.227 490.641 287.232 456.373 300.035 424.75L310.657 401.496C312.387 397.857 314.671 394.607 316.927 391.284C330.022 371.574 344.78 353.448 362.725 337.932L377.008 326.426C379.807 324.29 382.877 322.352 385.299 319.784C388.748 316.793 393.084 314.54 397.024 312.241C399.366 311.572 401.996 309.847 404.227 308.773L421.822 300.699C437.072 294.446 452.528 289.375 468.75 286.319C480.343 284.135 492.004 283.175 503.767 282.561L520.813 282.51Z"/>
	<path fill="#F7F1DA" transform="scale(0.488281 0.488281)" d="M712.164 410.716C723.784 434.12 732.389 459.06 737.117 484.791L740.241 504.738C740.635 507.889 740.751 511.13 741.319 514.247C744.397 568.273 720.269 623.68 684.758 663.535C671.408 678.518 655.457 692.752 638.496 703.564L621.913 712.485C614.009 716.325 606.12 720.192 597.875 723.26C580.614 729.682 562.236 733.688 544 736.035L519.638 738.299L501.501 738.407C480.66 737.212 458.785 733.347 439 726.51C424.973 721.663 411.958 715.252 398.847 708.392L383.062 698.735C340.324 668.952 307.409 626.919 292.232 576.783C289.554 567.937 287.94 558.929 286.133 549.88L286.406 548.976C286.844 548.087 287.968 547.294 288.494 546.292C289.558 544.266 289.089 539.172 289.084 536.817C289.692 538.742 289.491 540.993 289.5 543L290.002 543.003L297.862 534.308C298.405 533.637 298.864 533.154 299.537 532.597C300.842 531.517 302.054 530.243 303.061 528.879C304.25 527.268 306.136 525.362 307.002 523.625C307.327 522.975 307.552 522.581 308.002 522.003L308.75 521.755C308.647 520.088 309.081 518.529 309.435 516.913C309.769 539.399 315.024 562.387 323.208 583.25C342.472 632.357 380.398 671.617 428.833 692.467C439.746 697.165 451.016 701.457 462.567 704.313C505.247 714.868 548.553 711.152 589.2 694.802C638.239 675.076 678.498 635.447 699.081 586.751C718.751 540.216 719.063 484.121 700.077 437.436L700.96 436.921L702.5 436.477C705.274 435.294 706.499 432.025 707.61 429.5C709.465 425.285 710.372 420.559 711.269 416.056C711.628 414.254 711.354 412.398 712.164 410.716Z"/>
	<path fill="#010F3D" transform="scale(0.488281 0.488281)" d="M309.435 516.913C309.815 515.02 309.497 512.449 309.512 510.492L309.934 497.578C311.271 478.089 315.394 458.047 322.663 439.894C327.729 427.241 333.637 414.749 340.982 403.245C362.785 369.097 395.026 341.62 432.26 325.709C480.9 304.924 535.828 303.243 585.084 323.148C629.9 341.259 667.799 374.88 690.911 417.388C694.427 423.855 697.211 430.667 700.077 437.436C719.063 484.121 718.751 540.216 699.081 586.751C678.498 635.447 638.239 675.076 589.2 694.802C548.553 711.152 505.247 714.868 462.567 704.313C451.016 701.457 439.746 697.165 428.833 692.467C380.398 671.617 342.472 632.357 323.208 583.25C315.024 562.387 309.769 539.399 309.435 516.913Z"/>
	<defs>
		<linearGradient id="gradient_4" gradientUnits="userSpaceOnUse" x1="447.54288" y1="332.01324" x2="576.12573" y2="690.74713">
			<stop offset="0" stop-color="#06285C"/>
			<stop offset="1" stop-color="#073F76"/>
		</linearGradient>
	</defs>
	<path fill="url(#gradient_4)" transform="scale(0.488281 0.488281)" d="M507.477 320.767L508.074 320.741C548.369 319.227 589.55 332.979 622.68 355.383C629.947 360.298 637.35 365.597 643.75 371.622C679.631 405.4 704.455 451.22 706.062 501.131C706.677 520.245 705.141 539.907 700.492 558.5C692.666 589.796 675.98 619.18 653.88 642.633C618.652 680.017 567.062 701.011 516.119 702.493C466.591 702.818 415.208 684.976 378.75 650.871C342.373 616.842 319.171 569.065 317.532 519C315.944 470.497 335.87 418.713 369.153 383.387C377.304 374.735 386.203 366.224 395.718 359.091C428.122 334.801 467.172 321.934 507.477 320.767Z"/>
	<path fill="#165894" transform="scale(0.488281 0.488281)" d="M427.685 355.759L450.758 396.626L446.944 398.896C423.713 411.525 407.084 429.874 394.497 452.967L392.204 450.29L359.111 431.581C357.738 430.332 354.977 429.189 354.479 427.5L356.398 424.466C360.361 416.625 365.736 409.38 371.239 402.557C382.979 387.999 397 374.796 412.674 364.536C416.335 362.14 420.212 359.357 424.223 357.621L427.685 355.759Z"/>
	<path fill="white" transform="scale(0.488281 0.488281)" d="M427.685 355.759L450.758 396.626L446.944 398.896L424.223 357.621L427.685 355.759Z"/>
	<path fill="white" transform="scale(0.488281 0.488281)" d="M356.398 424.466L380.943 438.664C385.501 441.287 390.397 443.78 394.559 446.998C394.506 448.588 393.305 449.204 392.204 450.29L359.111 431.581C357.738 430.332 354.977 429.189 354.479 427.5L356.398 424.466Z"/>
	<path fill="#165894" transform="scale(0.488281 0.488281)" d="M493.406 335.002C493.458 334.042 493.468 333.886 494 333.03L520.179 332.85C523.718 332.849 528.819 332.158 532.123 333.418L532.931 334.75C552.797 337.084 572.612 342.503 590.704 351.04C592.838 352.047 596.006 353.128 597.801 354.636L598.167 355.133C599.501 355.839 600.813 356.621 602.236 357.132L585.671 386.544C583.335 390.725 581.01 396.18 577.968 399.815C576.784 399.119 575.606 398.615 574.335 398.113L556.355 390.175C550.054 387.724 543.668 386.171 537.075 384.768C531.814 383.769 526.27 383.678 520.927 383.503L494.381 383.532L493.585 383.733C489.441 384.749 485.11 385.156 480.92 386.135C470.208 388.637 460.774 392.239 450.758 396.626L427.685 355.759C430.025 353.939 433.23 352.719 435.907 351.436C449.332 345.003 463.771 339.948 478.41 337.133C481.236 336.589 484.142 336.023 487.006 335.75C489.17 335.543 491.332 335.744 493.406 335.002Z"/>
	<path fill="#F7F1DA" transform="scale(0.488281 0.488281)" d="M493.406 335.002C493.458 334.042 493.468 333.886 494 333.03L520.179 332.85C523.718 332.849 528.819 332.158 532.123 333.418L532.07 360.217C532.075 365.019 532.476 370.212 531.977 374.965C527.489 375.596 522.327 375.107 517.76 375.118L493.859 375.085C492.984 373.646 493.563 367.722 493.558 365.816L493.406 335.002Z"/>
	<path fill="#165894" transform="scale(0.488281 0.488281)" d="M532.123 333.418L532.931 334.75C552.797 337.084 572.612 342.503 590.704 351.04C592.838 352.047 596.006 353.128 597.801 354.636L598.167 355.133C599.501 355.839 600.813 356.621 602.236 357.132L585.671 386.544C583.335 390.725 581.01 396.18 577.968 399.815C576.784 399.119 575.606 398.615 574.335 398.113L556.355 390.175C550.054 387.724 543.668 386.171 537.075 384.768C531.814 383.769 526.27 383.678 520.927 383.503L494.381 383.532L494.424 375.515L517.24 375.175L517.76 375.118C522.327 375.107 527.489 375.596 531.977 374.965C532.476 370.212 532.075 365.019 532.07 360.217L532.123 333.418Z"/>
	<path fill="white" transform="scale(0.488281 0.488281)" d="M598.167 355.133C599.501 355.839 600.813 356.621 602.236 357.132L585.671 386.544C583.335 390.725 581.01 396.18 577.968 399.815C576.784 399.119 575.606 398.615 574.335 398.113L598.167 355.133Z"/>
	<path fill="#010F3D" transform="scale(0.488281 0.488281)" d="M531.977 374.965L532.267 374.429C533.014 372.54 532.595 369.463 532.594 367.429L532.57 351.252C532.564 349.489 532.033 346.795 533.25 345.516L536.5 345.491C537.782 347.153 537.107 352.865 537.113 355.097L537.075 384.768C531.814 383.769 526.27 383.678 520.927 383.503L494.381 383.532L494.424 375.515L517.24 375.175L517.76 375.118C522.327 375.107 527.489 375.596 531.977 374.965Z"/>
	<path fill="#165894" transform="scale(0.488281 0.488281)" d="M598.446 671.789L598.412 672.007C586.76 679.026 572.467 683.559 559.34 686.939C524.967 695.79 489.957 693.742 456.181 683.461C441.129 678.879 427.02 673.171 413.5 665.039C373.021 640.688 341.91 600.441 330.508 554.447C327.791 543.487 326.03 531.711 326.007 520.413C325.944 489.35 336.993 456.421 352.906 430.048L358.657 433.799C358.652 432.857 358.793 432.445 359.111 431.581L392.204 450.29L394.497 452.967C394.487 454.117 394.403 454.312 393.822 455.311C387.473 464.668 383.518 478.8 381.382 489.872L379.939 498.219C379.829 498.902 379.786 500.41 379.494 501C379.26 501.473 378.35 502.191 377.954 502.603L377.756 521.769C377.755 523.743 377.301 527.219 378.061 528.989L379.159 529.75C379.779 533.283 380.201 537.091 381.269 540.505C383.546 548.328 385.777 555.908 389.083 563.382C390.291 566.115 391.525 569.224 393.32 571.625C394.406 573.077 394.76 575.002 395.549 576.631C397.062 579.753 398.994 582.75 400.875 585.663C412.014 602.905 428.57 617.903 446.695 627.492C442.274 636.449 436.898 645.196 431.843 653.82C430.243 656.551 425.811 662.005 426.25 665.046L428.268 666.751L429.428 666.504L430.364 666.785L452.552 631.322C454.713 631.321 459.38 634.348 461.621 635.244C468.246 637.891 475.025 640.151 481.951 641.872C484.843 642.59 487.75 643.501 490.75 643.522L491.092 638.481L491.25 634.551C493.49 633.217 499.185 633.874 501.92 633.843L529.904 633.728L529.596 643.979L533.75 643.425L534.422 644C534.407 647.605 534.058 651.602 534.57 655.153C535.234 651.562 534.914 647.336 535.001 643.662C545.477 641.868 555.791 638.586 565.415 634.073C568.478 632.637 571.828 631.2 574.316 628.874L598.446 671.789Z"/>
	<path fill="#010F3D" transform="scale(0.488281 0.488281)" d="M359.111 431.581L392.204 450.29L394.497 452.967C394.487 454.117 394.403 454.312 393.822 455.311L358.657 433.799C358.652 432.857 358.793 432.445 359.111 431.581Z"/>
	<path fill="white" transform="scale(0.488281 0.488281)" d="M390.211 571.75C390.73 571.621 391.22 571.564 391.75 571.504L393.546 575.049L356.75 597.117C355.847 597.758 356.347 597.561 355.25 597.707C354.589 596.423 353.74 595.243 354.003 593.75C357.912 590.586 362.682 588.089 367.022 585.521L390.211 571.75Z"/>
	<path fill="#010F3D" transform="scale(0.488281 0.488281)" d="M336.902 528.956L378.061 528.989L379.159 529.75C379.779 533.283 380.201 537.091 381.269 540.505L340.051 540.864C339.087 537.082 338.442 533.004 337.061 529.362L336.902 528.956Z"/>
	<path fill="#010F3D" transform="scale(0.488281 0.488281)" d="M529.596 643.979L533.75 643.425L534.422 644C534.407 647.605 534.058 651.602 534.57 655.153L534.399 685.97L494.56 686.122C494.439 683.588 493.752 679.407 494.573 677.106L528.458 676.997L529.596 643.979Z"/>
	<path fill="#F7F1DA" transform="scale(0.488281 0.488281)" d="M336.902 528.956L335.995 528.25L335.944 493.963L377.986 493.999L377.954 502.603L377.756 521.769C377.755 523.743 377.301 527.219 378.061 528.989L336.902 528.956Z"/>
	<path fill="#F7F1DA" transform="scale(0.488281 0.488281)" d="M491.092 638.481L491.25 634.551C493.49 633.217 499.185 633.874 501.92 633.843L529.904 633.728L529.596 643.979L528.458 676.997L494.573 677.106L492.5 676.938C491.063 675.016 491.409 643.803 491.092 638.481Z"/>
	<path fill="#022151" transform="scale(0.488281 0.488281)" d="M602.236 357.132C606.858 358.178 612.105 361.834 616.08 364.407C637.18 378.066 654.926 395.228 668.361 416.513C673.665 424.916 678.788 433.136 682.935 442.197C693.22 464.67 696.546 489.229 696.001 513.7C695.868 519.689 695.911 525.786 695.389 531.75C694.773 538.798 693.225 546.13 691.667 553.037C687.736 570.46 681.076 586.25 672.334 601.787C665.578 613.793 658.082 625.054 648.558 635.075C637.315 646.904 623.587 657.26 609.797 665.936C607.462 667.406 605.002 669.272 602.302 669.906L598.446 671.789L574.316 628.874C571.828 631.2 568.478 632.637 565.415 634.073C555.791 638.586 545.477 641.868 535.001 643.662C534.914 647.336 535.234 651.562 534.57 655.153C534.058 651.602 534.407 647.605 534.422 644L533.75 643.425L529.596 643.979L529.904 633.728L501.92 633.843C499.185 633.874 493.49 633.217 491.25 634.551L491.092 638.481L490.75 643.522C487.75 643.501 484.843 642.59 481.951 641.872C475.025 640.151 468.246 637.891 461.621 635.244C459.38 634.348 454.713 631.321 452.552 631.322L430.364 666.785L429.428 666.504L428.268 666.751L426.25 665.046C425.811 662.005 430.243 656.551 431.843 653.82C436.898 645.196 442.274 636.449 446.695 627.492C428.57 617.903 412.014 602.905 400.875 585.663C398.994 582.75 397.062 579.753 395.549 576.631C394.76 575.002 394.406 573.077 393.32 571.625C391.525 569.224 390.291 566.115 389.083 563.382C385.777 555.908 383.546 548.328 381.269 540.505C380.201 537.091 379.779 533.283 379.159 529.75L378.061 528.989C377.301 527.219 377.755 523.743 377.756 521.769L377.954 502.603C378.35 502.191 379.26 501.473 379.494 501C379.786 500.41 379.829 498.902 379.939 498.219L381.382 489.872C383.518 478.8 387.473 464.668 393.822 455.311C394.403 454.312 394.487 454.117 394.497 452.967C407.084 429.874 423.713 411.525 446.944 398.896L450.758 396.626C460.774 392.239 470.208 388.637 480.92 386.135C485.11 385.156 489.441 384.749 493.585 383.733L494.381 383.532L520.927 383.503C526.27 383.678 531.814 383.769 537.075 384.768C543.668 386.171 550.054 387.724 556.355 390.175L574.335 398.113C575.606 398.615 576.784 399.119 577.968 399.815C581.01 396.18 583.335 390.725 585.671 386.544L602.236 357.132Z"/>
	<path fill="#060E28" transform="scale(0.488281 0.488281)" d="M517.929 550.162C518.003 548.375 517.631 544.877 518.75 543.581L519.997 543.987L519.899 570.958C519.885 573.448 520.403 578.356 519 580.433L518.151 580.25L517.929 550.162Z"/>
	<path fill="#010F3D" transform="scale(0.488281 0.488281)" d="M495.593 527.098C500.159 530.832 503.901 532.654 509.901 532.61L509.691 542.48C504.741 540.249 497.979 535.812 495.546 530.75C494.841 529.282 495.137 528.605 495.593 527.098Z"/>
	<path fill="#F86543" transform="scale(0.488281 0.488281)" d="M509.901 532.61L513.272 532.556L513.353 543.845C513.304 557.286 513.791 570.29 510.927 583.5C508.826 570.171 509.295 555.958 509.691 542.48L509.901 532.61Z"/>
	<path fill="white" transform="scale(0.488281 0.488281)" d="M446.695 627.492L450.892 629.474L429.428 666.504L428.268 666.751L426.25 665.046C425.811 662.005 430.243 656.551 431.843 653.82C436.898 645.196 442.274 636.449 446.695 627.492Z"/>
	<path fill="white" transform="scale(0.488281 0.488281)" d="M628.881 572.066L653.495 586.301C658.583 589.159 664.259 591.768 668.91 595.25C668.604 596.602 668.085 597.67 667.457 598.888L626.803 576.179L628.881 572.066Z"/>
	<path fill="#F86543" transform="scale(0.488281 0.488281)" d="M509.547 489.398C509.349 478.089 508.457 393.061 510.417 389.404C510.797 388.696 511.287 388.791 512 388.605L512.918 389.25L513.826 432.03L513.859 489.706L509.547 489.398Z"/>
	<path fill="#010F3D" transform="scale(0.488281 0.488281)" d="M513.826 432.03C513.853 428.53 513.305 423.777 514.708 420.601C516.81 415.845 518.225 411.375 520.874 406.744L520.82 457.912L520.586 474.829C520.533 478.693 520.336 482.799 521.2 486.586L517.75 490.239L513.859 489.706L513.826 432.03Z"/>
	<path fill="#010F3D" transform="scale(0.488281 0.488281)" d="M513.272 532.556L516.5 531.894C521.45 530.52 525.917 527.437 528.478 522.936C532.252 516.304 531.627 510.935 529.723 503.894L608.756 427.323L617.264 436.593C618.306 437.639 619.512 438.646 620.183 439.978L539.383 516.831L539.453 517.547C540.106 524.859 537.922 531.32 533.169 536.937C530.643 539.921 525.375 543.5 521.5 544.025C520.747 544.127 520.648 544.077 519.997 543.987L518.75 543.581C517.631 544.877 518.003 548.375 517.929 550.162C517.617 548.169 518.166 545.744 517 544.102L513.353 543.845L513.272 532.556Z"/>
	<path fill="#F7F1DA" transform="scale(0.488281 0.488281)" d="M596.439 413.726L617.998 394.17L630.158 406.535L626.362 410.544L608.756 427.323L529.723 503.894C531.627 510.935 532.252 516.304 528.478 522.936C525.917 527.437 521.45 530.52 516.5 531.894L513.272 532.556L509.901 532.61C503.901 532.654 500.159 530.832 495.593 527.098C492.54 523.442 490.726 520.578 489.597 515.961L454.734 480.506L435.947 461.366C432.186 457.377 428.365 453.634 425.75 448.76C425.622 447.071 425.93 446.423 426.667 444.967L420.053 437.057L426.83 429.976C429.465 431.059 432.263 432.08 434.684 433.598C439.704 436.745 444.318 441.061 448.911 444.817L491.755 482.715L499.139 489.624C499.585 490.046 500.895 491.566 501.385 491.755C501.493 491.797 508.475 489.569 509.547 489.398L513.859 489.706L517.75 490.239L521.2 486.586L596.439 413.726Z"/>
	<path fill="#010F3D" transform="scale(0.488281 0.488281)" d="M426.667 444.967C441.243 460.987 457.4 475.769 472.972 490.819L485.806 503.476C486.783 504.455 488.844 505.994 489.509 507.087C489.844 507.638 489.455 514.607 489.597 515.961L454.734 480.506L435.947 461.366C432.186 457.377 428.365 453.634 425.75 448.76C425.622 447.071 425.93 446.423 426.667 444.967Z"/>
	<path fill="#F86543" transform="scale(0.488281 0.488281)" d="M507.767 496.588C510.38 496.318 513.581 496.094 516.091 496.975C520.26 498.437 524.094 501.694 525.78 505.836C527.372 509.745 527.155 513.684 525.469 517.5C523.29 522.43 519.68 524.96 514.864 526.903C511.219 527.354 507.547 527.281 504.147 525.758C500.491 524.12 497.825 520.671 496.429 516.999C494.943 513.087 495.263 508.497 497.121 504.75C499.289 500.379 503.322 498.053 507.767 496.588Z"/>
	<path fill="#165894" transform="scale(0.488281 0.488281)" d="M602.236 357.132C606.858 358.178 612.105 361.834 616.08 364.407C637.18 378.066 654.926 395.228 668.361 416.513C673.665 424.916 678.788 433.136 682.935 442.197C693.22 464.67 696.546 489.229 696.001 513.7C695.868 519.689 695.911 525.786 695.389 531.75C694.773 538.798 693.225 546.13 691.667 553.037C687.736 570.46 681.076 586.25 672.334 601.787C665.578 613.793 658.082 625.054 648.558 635.075C637.315 646.904 623.587 657.26 609.797 665.936C607.462 667.406 605.002 669.272 602.302 669.906L598.446 671.789L574.316 628.874L574.393 628.208C575.316 627.14 576.41 626.886 577.7 626.461L579.5 626.121C582.186 625.388 585.197 622.672 587.5 621.005C602.085 610.445 617.171 595.74 625.299 579.422L625.515 578.982L647.612 591.469L657.643 597.238C660.21 598.743 663.501 600.953 666.5 601.092L667.75 599.908L667.457 598.888C668.085 597.67 668.604 596.602 668.91 595.25C664.259 591.768 658.583 589.159 653.495 586.301L628.881 572.066C632.337 566.261 634.896 560.197 636.906 553.759C646.693 522.411 645.082 484.913 629.792 455.529L667.75 432.358C669.303 431.336 669.697 431.073 670.005 429.263L668.968 428.337L628.505 452.414L625.769 448.626L620.183 439.978C619.512 438.646 618.306 437.639 617.264 436.593L608.756 427.323L626.362 410.544L630.158 406.535L617.998 394.17L596.439 413.726C593.097 409.873 587.767 406.45 583.54 403.631C581.635 402.362 579.586 401.472 577.968 399.815C581.01 396.18 583.335 390.725 585.671 386.544L602.236 357.132Z"/>
	<path fill="white" transform="scale(0.488281 0.488281)" d="M574.316 628.874L574.393 628.208C575.316 627.14 576.41 626.886 577.7 626.461L602.302 669.906L598.446 671.789L574.316 628.874Z"/>
	<path fill="white" transform="scale(0.488281 0.488281)" d="M625.769 448.626C629.304 447.109 632.907 444.58 636.242 442.605C646.366 436.61 656.52 429.777 667.168 424.808L669.108 427.25L668.968 428.337L628.505 452.414L625.769 448.626Z"/>
	<path fill="#022151" transform="scale(0.488281 0.488281)" d="M626.362 410.544C629.127 413.469 631.8 416.445 633.775 419.974L617.264 436.593L608.756 427.323L626.362 410.544Z"/>
	<path fill="#010F3D" transform="scale(0.488281 0.488281)" d="M689.974 528.44C691.55 525.563 690.616 512.925 690.61 509.03C690.608 507.634 690.295 505.508 691 504.34C692.206 504.861 692.551 505.312 693.25 506.411C693.708 510.52 693.446 514.814 693.416 518.948L693.002 539.17L653.124 539.123C651.944 536.193 650.977 531.253 649.129 528.909L671.467 528.622C676.964 528.677 684.73 529.786 689.974 528.44Z"/>
	<path fill="#F7F1DA" transform="scale(0.488281 0.488281)" d="M649.129 528.909L648.454 528.602C647.308 526.441 647.957 521.786 647.958 519.158L647.999 493.999L690.056 494.003L689.974 528.44C684.73 529.786 676.964 528.677 671.467 528.622L649.129 528.909Z"/>
</svg>
