<?xml version="1.0" encoding="utf-8" ?>
<svg xmlns="http://www.w3.org/2000/svg" xmlns:xlink="http://www.w3.org/1999/xlink" width="500" height="500">
	<path fill="#0F956D" transform="scale(0.488281 0.488281)" d="M-0 -0L1024 0L1024 1024L-0 1024L0 -0Z"/>
	<path fill="#DEC075" transform="scale(0.488281 0.488281)" d="M224.838 872.937L224.798 871.885L224.689 534.312L224.716 424.869L225.368 357.622C226.478 338.324 229.259 318.991 233.881 300.209C246.545 248.744 274.533 200.319 312 162.881C365.266 109.657 437.517 78.6118 512.96 78.5168L513.084 127.432L513.089 141.133C513.089 143.47 513.303 146.055 512.918 148.351C499.85 148.558 486.904 149.148 473.981 151.25C428.222 158.694 384.918 180.163 352.411 213.405L349.409 216.627L349.178 216.985C344.708 223.71 338.515 229.591 333.753 236.244C317.297 259.236 306.159 284.705 299.681 312.195C296.395 326.143 294.379 340.589 293.594 354.895L293.475 374.566L293.544 410.656L293.81 502.304L294.014 873.024L281.402 873.006L224.838 872.937Z"/>
	<defs>
		<linearGradient id="gradient_0" gradientUnits="userSpaceOnUse" x1="263.573" y1="561.21265" x2="344.4935" y2="556.40698">
			<stop offset="0" stop-color="#AD5D1D"/>
			<stop offset="1" stop-color="#A77A2B"/>
		</linearGradient>
	</defs>
	<path fill="url(#gradient_0)" transform="scale(0.488281 0.488281)" d="M349.409 216.627L349.178 216.985C344.708 223.71 338.515 229.591 333.753 236.244C317.297 259.236 306.159 284.705 299.681 312.195C296.395 326.143 294.379 340.589 293.594 354.895L293.475 374.566L293.544 410.656L293.81 502.304L294.014 873.024L281.402 873.006L281.399 372.01C282.821 326.491 298.603 281.485 325.293 244.706C332.52 234.747 340.419 225.058 349.409 216.627Z"/>
	<path fill="#056142" transform="scale(0.488281 0.488281)" d="M735.567 186.539C738.364 186.717 743.536 191.83 745.677 193.724C755.816 202.695 766.007 212.243 774.96 222.413C810.23 262.478 834.857 310.815 845.234 363.22C847.436 374.341 848.708 385.956 848.971 397.282L849.059 448.625L849.118 546.286L849.514 833.14L849.532 929.801L849.533 951.364C849.533 953.414 850.014 956.658 849.503 958.549L849.254 959.066L451.187 959.098L321.692 959.077L279.298 959.068C272.619 959.066 265.669 959.449 259.018 959.048C257.095 958.932 256.434 957.669 255.125 956.361C249.677 950.911 217.177 916.456 213.098 915.018C212.154 913.712 212.505 911.554 212.498 909.968L212.47 896.038L212.428 872.729L224.838 872.937L281.402 873.006L294.014 873.024L513.624 872.947L726.592 872.645L741.754 872.8L799.15 872.827L799.203 737.486L799.19 512.927L799.265 416.576C799.369 384.327 800.726 352.191 794.776 320.318C788.307 285.669 776.614 252.135 759.095 221.459C752.09 209.194 744.077 197.796 735.567 186.539Z"/>
	<path fill="#AF7E1C" transform="scale(0.488281 0.488281)" d="M212.47 896.038L813.467 896.063L813.438 881.699C813.439 879.544 813.11 876.66 813.664 874.6L813.862 873.918L813.905 914.954L213.098 915.018C212.154 913.712 212.505 911.554 212.498 909.968L212.47 896.038Z"/>
	<path fill="#D4A325" transform="scale(0.488281 0.488281)" d="M741.754 872.8L799.15 872.827L813.232 872.796L813.862 873.918L813.664 874.6C813.11 876.66 813.439 879.544 813.438 881.699L813.467 896.063L212.47 896.038L212.428 872.729L224.838 872.937L281.402 873.006L294.014 873.024L513.624 872.947L726.592 872.645L741.754 872.8Z"/>
	<defs>
		<linearGradient id="gradient_1" gradientUnits="userSpaceOnUse" x1="237.31882" y1="430.59393" x2="633.01691" y2="620.86023">
			<stop offset="0" stop-color="#8388A4"/>
			<stop offset="1" stop-color="#989DA5"/>
		</linearGradient>
	</defs>
	<path fill="url(#gradient_1)" transform="scale(0.488281 0.488281)" d="M512.918 148.351L513.407 148.389L513.446 164.925L513.514 375.051L513.522 388.591L513.624 872.947L294.014 873.024L293.81 502.304L293.544 410.656L293.475 374.566L293.594 354.895C294.379 340.589 296.395 326.143 299.681 312.195C306.159 284.705 317.297 259.236 333.753 236.244C338.515 229.591 344.708 223.71 349.178 216.985L349.409 216.627L352.411 213.405C384.918 180.163 428.222 158.694 473.981 151.25C486.904 149.148 499.85 148.558 512.918 148.351Z"/>
	<path fill="#ACA7BA" transform="scale(0.488281 0.488281)" d="M310.754 684.582L313.038 684.517L312.998 691.504L308.764 691.398C306.51 690.955 304.049 691.049 301.75 690.961C300.504 689.721 301.01 686.841 300.996 685.06C304.087 685.072 307.214 685.2 310.271 684.674L310.754 684.582Z"/>
	<path fill="#5A5B75" transform="scale(0.488281 0.488281)" d="M407.513 841.023L500.43 840.877L500.497 847.384L407.549 847.35L407.513 841.023Z"/>
	<path fill="#40466A" transform="scale(0.488281 0.488281)" d="M313.04 840.506L400.974 840.948L400.955 847.22C395.534 848.383 388.076 847.503 382.397 847.51L337.691 847.555L313.086 847.657C309.394 847.674 304.705 848.241 301.13 847.401L301.067 845.507L302.957 843.488C303.728 842.737 305.399 840.923 306.31 840.511C307.39 840.023 311.628 840.507 313.04 840.506Z"/>
	<path fill="#477989" transform="scale(0.488281 0.488281)" d="M312.947 611.178L313.038 684.517L310.754 684.582L300.802 684.583L300.903 623.31L312.947 611.178Z"/>
	<path fill="#477989" transform="scale(0.488281 0.488281)" d="M300.085 389.008C303.811 389.693 309.778 389.613 313.494 388.904L313.893 389.095C312.881 391.935 313.416 395.917 313.405 398.981L313.356 420.54L313.008 476.018C308.219 480.226 304.987 487.011 299.896 490.618L300.085 389.008Z"/>
	<path fill="#40466A" transform="scale(0.488281 0.488281)" d="M427.284 375.166C436.05 375.118 497.555 374.074 500.652 375.448C501.359 379.57 500.905 384.783 500.531 388.969L464.762 389.105L410.657 389.077L407.078 388.973L401.018 389.021L401.189 382.895L401.072 382.345C401.234 381.433 401.376 380.554 401.679 379.676C402.211 378.135 402.383 376.936 402.413 375.304C404.29 374.858 407.204 375.209 409.179 375.193L427.284 375.166Z"/>
	<path fill="#ACA7BA" transform="scale(0.488281 0.488281)" d="M401.189 382.895C402.85 382.097 405.117 382.424 406.958 382.43L407.078 388.973L401.018 389.021L401.189 382.895Z"/>
	<path fill="#5A5B75" transform="scale(0.488281 0.488281)" d="M402.413 375.304C404.29 374.858 407.204 375.209 409.179 375.193L427.284 375.166L426.339 375.391C424.173 375.865 421.661 375.642 419.433 375.642L406.833 375.599L406.958 382.43C405.117 382.424 402.85 382.097 401.189 382.895L401.072 382.345C401.234 381.433 401.376 380.554 401.679 379.676C402.211 378.135 402.383 376.936 402.413 375.304Z"/>
	<path fill="#568A9A" transform="scale(0.488281 0.488281)" d="M500.652 375.448C501.359 379.57 500.905 384.783 500.531 388.969L464.762 389.105L410.657 389.077L410.482 382.493L500.616 382.758L500.652 375.448Z"/>
	<path fill="#40466A" transform="scale(0.488281 0.488281)" d="M300.085 389.008L300.125 374.915L402.413 375.304C402.383 376.936 402.211 378.135 401.679 379.676C401.376 380.554 401.234 381.433 401.072 382.345L401.189 382.895L401.018 389.021L313.893 389.095L313.494 388.904C309.778 389.613 303.811 389.693 300.085 389.008Z"/>
	<path fill="#477989" transform="scale(0.488281 0.488281)" d="M313.494 388.904L313.556 382.623L367.82 382.806C378.742 382.856 390.233 383.65 401.072 382.345L401.189 382.895L401.018 389.021L313.893 389.095L313.494 388.904Z"/>
	<path fill="#568A9A" transform="scale(0.488281 0.488281)" d="M313.008 476.018L312.982 514.937L312.984 521.516L313.063 521.98L312.975 531.105L313.067 610.412L312.947 611.178L300.903 623.31C300.273 619.405 300.493 615.178 300.451 611.224L300.207 589.663L299.84 529.361L299.235 493.013C299.254 492.069 299.506 491.458 299.896 490.618C304.987 487.011 308.219 480.226 313.008 476.018Z"/>
	<path fill="#ACA7BA" transform="scale(0.488281 0.488281)" d="M312.984 521.516L304.007 521.401L303.968 514.99L312.982 514.937L312.984 521.516Z"/>
	<defs>
		<linearGradient id="gradient_2" gradientUnits="userSpaceOnUse" x1="292.07712" y1="759.53809" x2="389.5647" y2="773.24091">
			<stop offset="0" stop-color="#537E95"/>
			<stop offset="1" stop-color="#448C96"/>
		</linearGradient>
	</defs>
	<path fill="url(#gradient_2)" transform="scale(0.488281 0.488281)" d="M312.998 691.504L384.221 691.889L397.334 691.886C397.992 691.886 400.329 691.672 400.734 691.881C401.036 692.037 401.215 692.362 401.455 692.602L406.942 692.92L407.401 700.063L401.413 699.914L398.611 700.373L312.985 700.469L313.137 767.728L313.04 840.506C311.628 840.507 307.39 840.023 306.31 840.511C305.399 840.923 303.728 842.737 302.957 843.488L301.067 845.507C299.663 841.671 300.498 835.257 300.478 831.052L300.44 794.112L300.8 691.659C303.305 691.132 306.195 691.406 308.764 691.398L312.998 691.504Z"/>
	<path fill="#D1D2DD" transform="scale(0.488281 0.488281)" d="M401.455 692.602L406.942 692.92L407.401 700.063L401.413 699.914L401.455 692.602Z"/>
	<path fill="#83F1D1" transform="scale(0.488281 0.488281)" d="M313.893 389.095L401.018 389.021L400.977 389.337C399.994 389.469 399.151 389.573 398.328 390.174C396.197 391.732 394.289 394.079 392.448 395.964L381.209 407.319L325.656 463.153L317.886 471.068C316.327 472.722 314.849 474.687 313.008 476.018L313.356 420.54L313.405 398.981C313.416 395.917 312.881 391.935 313.893 389.095Z"/>
	<path fill="#83F1D1" transform="scale(0.488281 0.488281)" d="M313.137 767.728L312.985 700.469L398.611 700.373L313.569 787.361L313.53 774.73C313.517 772.42 313.72 769.968 313.137 767.728Z"/>
	<path fill="#83F1D1" transform="scale(0.488281 0.488281)" d="M418.854 289.228L485.102 354.825L356.985 355.124C360.464 349.689 365.943 345.043 370.379 340.363L397.933 311.44C404.852 304.203 411.415 295.876 418.854 289.228Z"/>
	<path fill="#7CEFD1" transform="scale(0.488281 0.488281)" d="M407.438 839.696L408.107 838.785C409.708 835.888 411.739 833.596 414.021 831.182L469.652 775.615L489.016 756C492.381 752.641 495.996 748.533 499.991 745.949L500.494 840.586L407.476 840.573L407.438 839.696Z"/>
	<path fill="#83F1D1" transform="scale(0.488281 0.488281)" d="M425.887 282.39L426.001 281.816C426.651 279.883 429.29 277.723 430.72 276.269L443.532 263.28L482.661 223.223L493.742 211.091C495.978 208.615 498.143 205.858 501.05 204.165L501.217 322.351L501.389 347.241C501.404 348.871 501.928 352.834 501.459 354.25C501.347 354.59 500.986 354.788 500.75 355.056C499.821 354.898 499.256 354.81 498.417 354.356C495.635 355.625 488.178 355.403 485.102 354.825L418.854 289.228L418.488 288.595C420.893 288.422 423.868 284.264 425.542 282.457L425.887 282.39Z"/>
	<path fill="#6D6E89" transform="scale(0.488281 0.488281)" d="M425.542 282.457L425.887 282.39L498.417 354.356C495.635 355.625 488.178 355.403 485.102 354.825L418.854 289.228L418.488 288.595C420.893 288.422 423.868 284.264 425.542 282.457Z"/>
	<path fill="#83F1D1" transform="scale(0.488281 0.488281)" d="M367.57 224.012L367.609 223.254C395.292 198.031 428.985 179.34 465.603 170.954C477.33 168.268 489.186 166.951 501.155 165.967L501.087 174.947L501.05 204.165C498.143 205.858 495.978 208.615 493.742 211.091L482.661 223.223L443.532 263.28L430.72 276.269C429.29 277.723 426.651 279.883 426.001 281.816L425.887 282.39L425.542 282.457C423.868 284.264 420.893 288.422 418.488 288.595C413.589 284.623 409.097 279.242 404.614 274.745C406.223 272.038 408.712 269.634 410.815 267.286L410.468 266.517C406.305 263.656 402.105 258.422 398.473 254.79L367.57 224.012Z"/>
	<path fill="#7CEFD1" transform="scale(0.488281 0.488281)" d="M501.087 174.947L501.05 204.165C498.143 205.858 495.978 208.615 493.742 211.091L482.661 223.223L443.532 263.28L430.72 276.269C429.29 277.723 426.651 279.883 426.001 281.816L425.887 282.39L425.542 282.457C423.868 284.264 420.893 288.422 418.488 288.595C413.589 284.623 409.097 279.242 404.614 274.745C406.223 272.038 408.712 269.634 410.815 267.286L410.468 266.517C413 265.185 414.787 262.675 416.74 260.629L427.498 249.588L471.499 204.334C481.178 194.347 490.568 184.072 501.087 174.947Z"/>
	<path fill="#5A5B75" transform="scale(0.488281 0.488281)" d="M410.815 267.286L420.868 277.543C422.384 279.082 424.377 280.673 425.542 282.457C423.868 284.264 420.893 288.422 418.488 288.595C413.589 284.623 409.097 279.242 404.614 274.745C406.223 272.038 408.712 269.634 410.815 267.286Z"/>
	<path fill="#83F1D1" transform="scale(0.488281 0.488281)" d="M360.274 230.652C362.103 228.195 365.173 225.936 367.57 224.012L398.473 254.79C402.105 258.422 406.305 263.656 410.468 266.517L410.815 267.286C408.712 269.634 406.223 272.038 404.614 274.745C409.097 279.242 413.589 284.623 418.488 288.595L418.854 289.228C411.415 295.876 404.852 304.203 397.933 311.44L370.379 340.363C365.943 345.043 360.464 349.689 356.985 355.124L326.77 355.044L300.308 355.11C300.534 347.841 302.322 340.345 303.964 333.266C312.973 294.423 333.55 259.901 360.274 230.652Z"/>
	<path fill="#6D6E89" transform="scale(0.488281 0.488281)" d="M360.274 230.652C362.103 228.195 365.173 225.936 367.57 224.012L398.473 254.79C402.105 258.422 406.305 263.656 410.468 266.517L410.815 267.286C408.712 269.634 406.223 272.038 404.614 274.745L404.077 274.48C402.702 272.594 400.657 270.888 398.992 269.227L389.581 259.804C380.004 250.121 370.77 239.343 360.274 230.652Z"/>
	<path fill="#7CEFD1" transform="scale(0.488281 0.488281)" d="M404.077 274.48L404.614 274.745C409.097 279.242 413.589 284.623 418.488 288.595L418.854 289.228C411.415 295.876 404.852 304.203 397.933 311.44L370.379 340.363C365.943 345.043 360.464 349.689 356.985 355.124L326.77 355.044C331.022 347.907 338.489 341.355 344.325 335.359L384.849 293.894C391.054 287.617 398.761 281.426 404.077 274.48Z"/>
	<path fill="#4CE09C" transform="scale(0.488281 0.488281)" d="M407.442 691.86L500.076 691.976L500.056 700.323L499.991 745.949C495.996 748.533 492.381 752.641 489.016 756L469.652 775.615L414.021 831.182C411.739 833.596 409.708 835.888 408.107 838.785L407.438 839.696L407.522 833.195L407.401 700.063L406.942 692.92L407.442 691.86Z"/>
	<path fill="#568A9A" transform="scale(0.488281 0.488281)" d="M407.442 691.86L500.076 691.976L500.056 700.323L408.503 700.252L408.884 793.764L408.784 818.195C408.76 822.553 409.318 829.193 407.522 833.195L407.401 700.063L406.942 692.92L407.442 691.86Z"/>
	<path fill="#4CE09C" transform="scale(0.488281 0.488281)" d="M398.611 700.373L401.413 699.914L407.401 700.063L407.522 833.195L407.438 839.696L407.476 840.573L407.513 841.023L407.31 841.664C407.042 842.584 407.13 846.469 406.607 846.742C405.011 847.575 402.679 846.787 400.955 847.22L400.974 840.948L313.04 840.506L313.137 767.728C313.72 769.968 313.517 772.42 313.53 774.73L313.569 787.361L398.611 700.373Z"/>
	<path fill="#FCFAFD" transform="scale(0.488281 0.488281)" d="M401.413 699.914L407.401 700.063L407.522 833.195L407.438 839.696L407.476 840.573L407.513 841.023L407.31 841.664C407.042 842.584 407.13 846.469 406.607 846.742C405.011 847.575 402.679 846.787 400.955 847.22L400.974 840.948L401.072 745.927L401.081 717.162C401.093 711.472 400.808 705.57 401.413 699.914Z"/>
	<path fill="#7CEFD1" transform="scale(0.488281 0.488281)" d="M407.078 388.973L410.657 389.077L464.762 389.105L500.531 388.969L500.277 418.896L500.108 514.499L500.022 521.625C493.146 521.67 485.156 520.891 478.423 521.901L407.123 521.98L401.457 522.049L401.305 530.336L401.474 531.027L401.061 531.545L390.043 531.202L312.975 531.105L313.063 521.98L312.984 521.516L312.982 514.937L313.008 476.018C314.849 474.687 316.327 472.722 317.886 471.068L325.656 463.153L381.209 407.319L392.448 395.964C394.289 394.079 396.197 391.732 398.328 390.174C399.151 389.573 399.994 389.469 400.977 389.337L401.018 389.021L407.078 388.973Z"/>
	<path fill="#4CE09C" transform="scale(0.488281 0.488281)" d="M409.96 510.335L500.277 418.896L500.108 514.499C490.651 514.643 409.357 515.311 408 514.778C407.727 514.671 407.532 514.426 407.298 514.249L407.517 512.461C408.576 511.941 409.175 511.191 409.96 510.335Z"/>
	<path fill="#7CEFD1" transform="scale(0.488281 0.488281)" d="M407.078 388.973C407.592 392.826 407.36 396.892 407.37 400.785L407.402 420.079L407.33 486.811L407.3 503.379C407.301 506.296 407.026 509.606 407.517 512.461L407.298 514.249C407.532 514.426 407.727 514.671 408 514.778C409.357 515.311 490.651 514.643 500.108 514.499L500.022 521.625C493.146 521.67 485.156 520.891 478.423 521.901L407.123 521.98L401.457 522.049L401.305 530.336L401.474 531.027L401.061 531.545L390.043 531.202L312.975 531.105L313.063 521.98L312.984 521.516L312.982 514.937L313.008 476.018C314.849 474.687 316.327 472.722 317.886 471.068L325.656 463.153L381.209 407.319L392.448 395.964C394.289 394.079 396.197 391.732 398.328 390.174C399.151 389.573 399.994 389.469 400.977 389.337L401.018 389.021L407.078 388.973Z"/>
	<path fill="#FCFAFD" transform="scale(0.488281 0.488281)" d="M407.078 388.973C407.592 392.826 407.36 396.892 407.37 400.785L407.402 420.079L407.33 486.811L407.3 503.379C407.301 506.296 407.026 509.606 407.517 512.461L407.298 514.249C407.532 514.426 407.727 514.671 408 514.778C409.357 515.311 490.651 514.643 500.108 514.499L500.022 521.625C493.146 521.67 485.156 520.891 478.423 521.901L407.123 521.98L401.457 522.049L401.305 530.336L401.474 531.027L401.061 531.545L390.043 531.202L312.975 531.105L313.063 521.98L312.984 521.516L312.982 514.937L401.082 514.95L400.977 389.337L401.018 389.021L407.078 388.973Z"/>
	<path fill="#4BC4AB" transform="scale(0.488281 0.488281)" d="M313.063 521.98L399.603 521.946L401.457 522.049L401.305 530.336L401.474 531.027L401.061 531.545L390.043 531.202L312.975 531.105L313.063 521.98Z"/>
	<path fill="#477989" transform="scale(0.488281 0.488281)" d="M399.603 521.946L401.457 522.049L401.305 530.336C399.359 531.947 393.42 531.134 390.697 531.104L399.603 521.946Z"/>
	<path fill="#4CE09C" transform="scale(0.488281 0.488281)" d="M401.457 522.049L407.123 521.98L478.423 521.901L500.139 522L500.04 531.102L500.06 600.375L500.127 684.463L500.025 691.524L431.987 691.483C427.342 691.477 410.237 690.603 407.442 691.86L406.942 692.92L401.455 692.602C401.215 692.362 401.036 692.037 400.734 691.881C400.329 691.672 397.992 691.886 397.334 691.886L384.221 691.889L312.998 691.504L313.038 684.517L312.947 611.178L313.067 610.412L312.975 531.105L390.043 531.202L401.061 531.545L401.474 531.027L401.305 530.336L401.457 522.049Z"/>
	<path fill="#FCFAFD" transform="scale(0.488281 0.488281)" d="M401.474 531.027C403.399 531.039 405.853 530.583 407.407 531.726C407.435 545.667 407.011 681.749 408.079 683.918C410.785 684.762 414.018 684.385 416.832 684.371L432.1 684.347C438.734 684.36 446.35 685.149 452.88 684.338L500.127 684.463L500.025 691.524L431.987 691.483C427.342 691.477 410.237 690.603 407.442 691.86L406.942 692.92L401.455 692.602C401.215 692.362 401.036 692.037 400.734 691.881C400.329 691.672 397.992 691.886 397.334 691.886L384.221 691.889L312.998 691.504L313.038 684.517L401.061 684.395L401.061 531.545L401.474 531.027Z"/>
	<path fill="#7CEFD1" transform="scale(0.488281 0.488281)" d="M312.975 531.105L390.043 531.202L342.114 580.404L322.328 601.05C319.336 604.137 316.367 607.675 313.067 610.412L312.975 531.105Z"/>
	<path fill="#83F1D1" transform="scale(0.488281 0.488281)" d="M401.457 522.049L407.123 521.98L478.423 521.901L500.139 522L500.04 531.102L500.06 600.375L500.127 684.463L452.88 684.338C446.35 685.149 438.734 684.36 432.1 684.347L416.832 684.371C414.018 684.385 410.785 684.762 408.079 683.918C407.011 681.749 407.435 545.667 407.407 531.726C405.853 530.583 403.399 531.039 401.474 531.027L401.305 530.336L401.457 522.049Z"/>
	<path fill="#4BC4AB" transform="scale(0.488281 0.488281)" d="M407.496 531.193L430.89 530.988C435.561 530.989 440.512 530.613 445.133 531.131L409.566 531.269L408.951 683.233L408.079 683.918C407.011 681.749 407.435 545.667 407.407 531.726L407.496 531.193Z"/>
	<path fill="#0F956D" transform="scale(0.488281 0.488281)" d="M401.457 522.049L407.123 521.98L478.423 521.901L500.139 522L500.04 531.102L445.133 531.131C440.512 530.613 435.561 530.989 430.89 530.988L407.496 531.193L407.407 531.726C405.853 530.583 403.399 531.039 401.474 531.027L401.305 530.336L401.457 522.049Z"/>
	<path fill="#D1D2DD" transform="scale(0.488281 0.488281)" d="M401.457 522.049L407.123 521.98L407.496 531.193L407.407 531.726C405.853 530.583 403.399 531.039 401.474 531.027L401.305 530.336L401.457 522.049Z"/>
	<path fill="#4CE09C" transform="scale(0.488281 0.488281)" d="M452.88 684.338C452.042 683.57 420.182 683.904 416.544 683.779C425.389 676.777 433.257 668.11 441.334 660.2L500.06 600.375L500.127 684.463L452.88 684.338Z"/>
	<defs>
		<linearGradient id="gradient_3" gradientUnits="userSpaceOnUse" x1="400.59473" y1="476.43216" x2="814.41504" y2="627.60657">
			<stop offset="0" stop-color="#425072"/>
			<stop offset="1" stop-color="#4D6275"/>
		</linearGradient>
	</defs>
	<path fill="url(#gradient_3)" transform="scale(0.488281 0.488281)" d="M512.96 78.5168C525.977 78.9129 539.056 79.4426 551.961 81.3074C614.475 90.3408 675.213 120.355 718.626 166.604L735.567 186.539C744.077 197.796 752.09 209.194 759.095 221.459C776.614 252.135 788.307 285.669 794.776 320.318C800.726 352.191 799.369 384.327 799.265 416.576L799.19 512.927L799.203 737.486L799.15 872.827L741.754 872.8L726.592 872.645L513.624 872.947L513.522 388.591L513.514 375.051L513.446 164.925L513.407 148.389L512.918 148.351C513.303 146.055 513.089 143.47 513.089 141.133L513.084 127.432L512.96 78.5168Z"/>
	<path fill="#568A9A" transform="scale(0.488281 0.488281)" d="M526.044 165.417L528.34 165.728L527.458 166.5L527.908 235.571L527.958 236.095L519.364 244.657L519.778 165.614L526.044 165.417Z"/>
	<path fill="#0D763A" transform="scale(0.488281 0.488281)" d="M521.475 699.895L528.134 699.958L528.488 700.046L529.05 827.084L528.92 827.355L521.048 835.185L521.475 699.895Z"/>
	<path fill="#477989" transform="scale(0.488281 0.488281)" d="M527.958 236.095L528.244 352.965L526.886 355.008L519.415 355.444L519.141 280.987L519.049 258.258C519.036 253.799 518.702 249.068 519.364 244.657L527.958 236.095Z"/>
	<path fill="#056142" transform="scale(0.488281 0.488281)" d="M522.038 529.997L529.009 530.014L528.619 624.11L528.684 651.939C528.695 657.223 528.962 662.815 528.403 668.048L528.056 669.104C526.092 671.098 523.861 673.847 521.492 675.301C520.828 669.495 521.251 663.404 521.247 657.547L521.344 621.841L522.038 529.997Z"/>
	<path fill="#182749" transform="scale(0.488281 0.488281)" d="M624.044 785.324L624.149 784.49C624.239 783.715 624.275 783.025 624.255 782.25L624.75 781.755C625.632 783.597 625.163 787.082 625.163 789.157L624.958 841.079L686.219 841.135C689.819 841.966 693.886 841.624 697.58 841.631L719.204 841.71L719.326 847.414L520.043 847.48L520.517 841.057L528.968 841.007L579.88 840.971L617.982 840.925L620.245 841.053L621.582 841.009L623.75 841.047C624.358 839.22 623.918 836.832 623.82 834.902L623.564 823.83L624.044 785.324Z"/>
	<path fill="#182749" transform="scale(0.488281 0.488281)" d="M513.514 375.051L719.522 375.068L719.492 380.556L715.335 381.168C710.957 381.811 706.488 381.589 702.074 381.613L682.014 381.723C679.085 381.743 675.883 381.532 672.992 381.905L648.59 381.979L623.048 381.587L621.837 382.267L621.782 388.25C621.065 386.243 622.326 383.642 621.109 381.75L618.128 381.391L617.562 423.778C617.018 421.785 616.921 419.533 616.662 417.477C616.982 414.574 616.636 411.44 616.649 408.5L616.913 389.502L566.694 389.592C559.951 388.706 530.569 390.915 527.181 388.414C526.015 387.552 524.688 387.809 523.25 387.755L522.354 386L521.627 387.934L513.522 388.591L513.514 375.051Z"/>
	<path fill="#056142" transform="scale(0.488281 0.488281)" d="M522.354 386L522.771 383.25C523.097 382.847 523.292 382.285 523.75 382.041C524.806 381.478 531.673 382.038 533.17 382.037L591.521 381.965L607.526 381.939C611.042 381.927 614.674 382.144 618.128 381.391L617.562 423.778C617.018 421.785 616.921 419.533 616.662 417.477C616.982 414.574 616.636 411.44 616.649 408.5L616.913 389.502L566.694 389.592C559.951 388.706 530.569 390.915 527.181 388.414C526.015 387.552 524.688 387.809 523.25 387.755L522.354 386Z"/>
	<path fill="#043D48" transform="scale(0.488281 0.488281)" d="M672.992 381.905C675.883 381.532 679.085 381.743 682.014 381.723L702.074 381.613C706.488 381.589 710.957 381.811 715.335 381.168L719.492 380.556L719.204 841.71L697.58 841.631C693.886 841.624 689.819 841.966 686.219 841.135L710.651 841.141L710.847 707.441L710.992 700.61L711.058 692.125L710.799 684.633C710.377 681.469 710.662 677.975 710.656 674.763L710.65 656.744L710.713 593.91L710.939 529.902L710.964 522.344C706.692 522.198 701.282 522.584 697.212 521.397L696.237 521.088L661.906 521.081L623.063 520.941C621.835 520.531 619.892 520.555 618.571 520.405L617.456 521.066C618.258 527.648 617.923 535.065 617.557 541.699C616.627 538.065 617.094 533.552 617.08 529.788L529.009 530.014L522.038 529.997C522.128 527.446 521.824 523.256 522.966 521.012L522.652 520.003L523.5 519.03L552.381 518.917L617.649 519.205L618.197 519.178L620.349 519.241L620.771 517.784C621.426 516.171 621.119 515.136 621.209 513.397L621.86 504.746L622.75 505.245C623.024 501.956 622.111 486.714 623.36 485.132L623.621 421.263C624.656 416.967 623.183 412.074 624.25 407.755L625.024 408.827C625.006 418.955 624.157 512.446 624.961 513.601L670.138 513.477L710.893 513.335L710.892 504.763L710.922 389.541L710.986 382.006L672.992 381.905Z"/>
	<path fill="#C7DEDC" transform="scale(0.488281 0.488281)" d="M620.349 519.241L620.771 517.784C621.426 516.171 621.119 515.136 621.209 513.397L621.86 504.746L622.75 505.245C623.024 501.956 622.111 486.714 623.36 485.132L623.462 514.792C632.623 514.612 708.771 513.749 710.829 515.136C710.811 516.24 710.869 517.169 710.488 518.22L710.802 519.082C708.183 519.433 705.036 519.113 702.356 519.113L684.255 519.117L620.349 519.241Z"/>
	<path fill="#0D763A" transform="scale(0.488281 0.488281)" d="M522.966 521.012L522.652 520.003L523.5 519.03L552.381 518.917L617.649 519.205L618.197 519.178L620.349 519.241L684.255 519.117L702.356 519.113C705.036 519.113 708.183 519.433 710.802 519.082L710.648 520.75C706.221 521.654 700.787 521.074 696.237 521.088L661.906 521.081L623.063 520.941C621.835 520.531 619.892 520.555 618.571 520.405L617.456 521.066C618.258 527.648 617.923 535.065 617.557 541.699C616.627 538.065 617.094 533.552 617.08 529.788L529.009 530.014L522.038 529.997C522.128 527.446 521.824 523.256 522.966 521.012Z"/>
	<path fill="#182749" transform="scale(0.488281 0.488281)" d="M522.966 521.012L523.814 521.152L528.738 521.769L529.009 530.014L522.038 529.997C522.128 527.446 521.824 523.256 522.966 521.012Z"/>
	<path fill="#FCFAFD" transform="scale(0.488281 0.488281)" d="M522.966 521.012L522.652 520.003L523.5 519.03L552.381 518.917L617.649 519.205L618.197 519.178L620.349 519.241L684.255 519.117L702.356 519.113C705.036 519.113 708.183 519.433 710.802 519.082L710.648 520.75C706.221 521.654 700.787 521.074 696.237 521.088L661.906 521.081L623.063 520.941C621.835 520.531 619.892 520.555 618.571 520.405L617.456 521.066L523.814 521.152L522.966 521.012Z"/>
	<path fill="#0EA632" transform="scale(0.488281 0.488281)" d="M623.048 381.587L648.59 381.979C647.118 383.447 642.709 387.208 642.562 389.167L642.597 389.612C639.124 389.634 627.385 388.699 625.066 390.027C624.583 395.618 624.39 402.329 625.122 407.876L625.024 408.827L624.25 407.755C623.183 412.074 624.656 416.967 623.621 421.263L623.36 485.132C622.111 486.714 623.024 501.956 622.75 505.245L621.86 504.746L621.209 513.397C621.119 515.136 621.426 516.171 620.771 517.784L620.349 519.241L618.197 519.178L617.649 519.205L552.381 518.917C556.469 518.378 561.034 518.713 565.175 518.681L587.25 518.279L538.136 518.036L527.714 518.132C526.155 518.169 524.181 518.514 522.75 517.88L522.444 515.013L522.092 513.054C523.427 512.616 524.858 509.829 525.837 508.667C526.733 507.603 527.878 506.749 528.977 505.908L529.001 505.058L616.662 417.477C616.921 419.533 617.018 421.785 617.562 423.778L618.128 381.391L621.109 381.75C622.326 383.642 621.065 386.243 621.782 388.25L621.837 382.267L623.048 381.587Z"/>
	<path fill="#CEDCE0" transform="scale(0.488281 0.488281)" d="M623.048 381.587L648.59 381.979C647.118 383.447 642.709 387.208 642.562 389.167L642.597 389.612C639.124 389.634 627.385 388.699 625.066 390.027C624.583 395.618 624.39 402.329 625.122 407.876L625.024 408.827L624.25 407.755C623.183 412.074 624.656 416.967 623.621 421.263L623.36 485.132C622.111 486.714 623.024 501.956 622.75 505.245L621.86 504.746L621.209 513.397C621.119 515.136 621.426 516.171 620.771 517.784L620.349 519.241L618.197 519.178L617.649 519.205L552.381 518.917C556.469 518.378 561.034 518.713 565.175 518.681L587.25 518.279L538.136 518.036L527.714 518.132C526.155 518.169 524.181 518.514 522.75 517.88L522.444 515.013L522.092 513.054C523.427 512.616 524.858 509.829 525.837 508.667C526.733 507.603 527.878 506.749 528.977 505.908L528.997 513.426L615.942 513.763L616.585 513.817C616.876 509.961 616.534 506.009 617.401 502.225L617.527 501.718C617.967 500.18 617.626 497.748 617.631 496.071L617.67 482.629L617.777 445.808C617.793 438.502 618.067 431.065 617.562 423.778L618.128 381.391L621.109 381.75C622.326 383.642 621.065 386.243 621.782 388.25L621.837 382.267L623.048 381.587Z"/>
	<path fill="#056142" transform="scale(0.488281 0.488281)" d="M528.977 505.908L528.997 513.426L615.942 513.763L616.585 513.817C616.876 509.961 616.534 506.009 617.401 502.225L617.527 501.718L617.807 513.611L617.25 514.844L522.444 515.013L522.092 513.054C523.427 512.616 524.858 509.829 525.837 508.667C526.733 507.603 527.878 506.749 528.977 505.908Z"/>
	<path fill="#056142" transform="scale(0.488281 0.488281)" d="M623.048 381.587L648.59 381.979C647.118 383.447 642.709 387.208 642.562 389.167L642.597 389.612C639.124 389.634 627.385 388.699 625.066 390.027C624.583 395.618 624.39 402.329 625.122 407.876L625.024 408.827L624.25 407.755C623.183 412.074 624.656 416.967 623.621 421.263L623.533 392.924C623.52 389.547 624.082 384.749 623.048 381.587Z"/>
	<path fill="#1DB847" transform="scale(0.488281 0.488281)" d="M522.354 386L523.25 387.755C524.688 387.809 526.015 387.552 527.181 388.414C530.569 390.915 559.951 388.706 566.694 389.592L616.913 389.502L616.649 408.5C616.636 411.44 616.982 414.574 616.662 417.477L529.001 505.058L528.977 505.908C527.878 506.749 526.733 507.603 525.837 508.667C524.858 509.829 523.427 512.616 522.092 513.054C521.227 505.138 521.568 496.956 521.41 489L521.037 431.308L521.069 403.961C521.092 398.745 520.68 393.065 521.627 387.934L522.354 386Z"/>
	<path fill="#0D763A" transform="scale(0.488281 0.488281)" d="M522.354 386L523.25 387.755C524.688 387.809 526.015 387.552 527.181 388.414C530.569 390.915 559.951 388.706 566.694 389.592L528.656 389.924L529.001 505.058L528.977 505.908C527.878 506.749 526.733 507.603 525.837 508.667C524.858 509.829 523.427 512.616 522.092 513.054C521.227 505.138 521.568 496.956 521.41 489L521.037 431.308L521.069 403.961C521.092 398.745 520.68 393.065 521.627 387.934L522.354 386Z"/>
	<path fill="#0EA632" transform="scale(0.488281 0.488281)" d="M529.009 530.014L617.08 529.788C617.094 533.552 616.627 538.065 617.557 541.699L617.649 575.382L616.399 575.297C612.846 578.525 609.898 582.47 606.771 586.104L594.878 599.151L551.656 644.436L535.853 660.943C533.498 663.305 531.126 666.12 528.403 668.048C528.962 662.815 528.695 657.223 528.684 651.939L528.619 624.11L529.009 530.014Z"/>
	<path fill="#0EA632" transform="scale(0.488281 0.488281)" d="M648.59 381.979L672.992 381.905L710.986 382.006L710.922 389.541L710.892 504.763L710.893 513.335L670.138 513.477L624.961 513.601C624.157 512.446 625.006 418.955 625.024 408.827L625.122 407.876C624.39 402.329 624.583 395.618 625.066 390.027C627.385 388.699 639.124 389.634 642.597 389.612L642.562 389.167C642.709 387.208 647.118 383.447 648.59 381.979Z"/>
	<path fill="#1DB847" transform="scale(0.488281 0.488281)" d="M625.066 390.027L641.793 389.933L625.122 407.876C624.39 402.329 624.583 395.618 625.066 390.027Z"/>
	<path fill="#0A524A" transform="scale(0.488281 0.488281)" d="M648.59 381.979L672.992 381.905L710.986 382.006L710.922 389.541L642.597 389.612L642.562 389.167C642.709 387.208 647.118 383.447 648.59 381.979Z"/>
	<path fill="#1DB847" transform="scale(0.488281 0.488281)" d="M670.138 513.477L710.537 471.601C710.81 482.265 709.554 493.69 710.823 504.243L710.892 504.763L710.893 513.335L670.138 513.477Z"/>
	<path fill="#4CE09C" transform="scale(0.488281 0.488281)" d="M660.65 230.174C686.651 257.96 704.615 289.387 716.386 325.58C718.177 331.086 719.84 336.741 721.053 342.406C721.901 346.365 722.268 351.381 723.736 355.079L538.698 354.825L660.65 230.174Z"/>
	<path fill="#1DB847" transform="scale(0.488281 0.488281)" d="M658.069 692.287L711.058 692.125L710.992 700.61L710.847 707.441L710.651 841.141L686.219 841.135L624.958 841.079L625.163 789.157C625.163 787.082 625.632 783.597 624.75 781.755L624.255 782.25C624.275 783.025 624.239 783.715 624.149 784.49L624.044 785.324C623.522 782.662 623.968 779.082 623.966 776.334L623.96 754.845L623.066 700.965L623.068 699.648L623.049 692.522L658.069 692.287Z"/>
	<path fill="#4CE09C" transform="scale(0.488281 0.488281)" d="M658.069 692.287L711.058 692.125L710.992 700.61L710.847 707.441C708.105 709.04 705.803 711.596 703.548 713.82L692.295 725.14L667.88 749.517C663.309 754.2 629.958 790.768 626 791.971C625.572 791.045 625.531 790.217 625.447 789.209L625.163 789.157C625.163 787.082 625.632 783.597 624.75 781.755L624.255 782.25C624.275 783.025 624.239 783.715 624.149 784.49L624.044 785.324C623.522 782.662 623.968 779.082 623.966 776.334L623.96 754.845L623.066 700.965L623.068 699.648L623.049 692.522L658.069 692.287Z"/>
	<path fill="#056142" transform="scale(0.488281 0.488281)" d="M658.069 692.287L711.058 692.125L710.992 700.61L651.53 700.621C652.106 698.007 656.323 694.568 658.069 692.287Z"/>
	<path fill="#0A524A" transform="scale(0.488281 0.488281)" d="M623.049 692.522L658.069 692.287C656.323 694.568 652.106 698.007 651.53 700.621L651.392 700.932C649.385 703.985 646.516 706.613 643.948 709.209L631.677 721.628C629.422 723.962 627.515 726.754 625.41 729.251L625.447 789.209L625.163 789.157C625.163 787.082 625.632 783.597 624.75 781.755L624.255 782.25C624.275 783.025 624.239 783.715 624.149 784.49L624.044 785.324C623.522 782.662 623.968 779.082 623.966 776.334L623.96 754.845L623.066 700.965L623.068 699.648L623.049 692.522Z"/>
	<path fill="#1DB847" transform="scale(0.488281 0.488281)" d="M625.41 729.251L624.986 700.496L651.392 700.932C649.385 703.985 646.516 706.613 643.948 709.209L631.677 721.628C629.422 723.962 627.515 726.754 625.41 729.251Z"/>
	<path fill="#1DB847" transform="scale(0.488281 0.488281)" d="M617.908 699.93L623.068 699.648L623.066 700.965L623.96 754.845L623.966 776.334C623.968 779.082 623.522 782.662 624.044 785.324L623.564 823.83L623.82 834.902C623.918 836.832 624.358 839.22 623.75 841.047L621.582 841.009L620.245 841.053L617.982 840.925L579.88 840.971L528.968 841.007L520.517 841.057L521.048 835.185L528.92 827.355L529.05 827.084L528.488 700.046L617.908 699.93Z"/>
	<path fill="#CEDCE0" transform="scale(0.488281 0.488281)" d="M617.908 699.93L623.068 699.648L623.066 700.965L623.96 754.845L623.966 776.334C623.968 779.082 623.522 782.662 624.044 785.324L623.564 823.83L623.82 834.902C623.918 836.832 624.358 839.22 623.75 841.047L621.582 841.009L620.245 841.053L617.982 840.925L617.941 805.258L617.908 699.93Z"/>
	<path fill="#FCFAFD" transform="scale(0.488281 0.488281)" d="M620.245 841.053L620.195 782.068L620.476 761.981C620.539 757.876 620.269 753.558 620.984 749.509L621.666 745.892L622.02 758.529L621.56 812.601L621.643 831.397C621.704 834.217 622.716 838.496 621.582 841.009L620.245 841.053Z"/>
	<defs>
		<linearGradient id="gradient_4" gradientUnits="userSpaceOnUse" x1="622.5" y1="701.5" x2="622.5" y2="840.5">
			<stop offset="0" stop-color="#11C4A6"/>
			<stop offset="1" stop-color="#BBD6E1"/>
		</linearGradient>
	</defs>
	<path fill="url(#gradient_4)" transform="scale(0.488281 0.488281)" d="M623.066 700.965L623.96 754.845L623.966 776.334C623.968 779.082 623.522 782.662 624.044 785.324L623.564 823.83L623.82 834.902C623.918 836.832 624.358 839.22 623.75 841.047L621.582 841.009C622.716 838.496 621.704 834.217 621.643 831.397L621.56 812.601L622.02 758.529L622.489 757.576L623.066 700.965Z"/>
	<path fill="#4CE09C" transform="scale(0.488281 0.488281)" d="M529.05 827.084L616.972 737.049L616.801 803.524L579.88 840.971L528.968 841.007L520.517 841.057L521.048 835.185L528.92 827.355L529.05 827.084Z"/>
	<path fill="#0EA632" transform="scale(0.488281 0.488281)" d="M521.048 835.185L528.92 827.355L528.968 841.007L520.517 841.057L521.048 835.185Z"/>
	<path fill="#4CE09C" transform="scale(0.488281 0.488281)" d="M528.34 165.728C546.52 168.197 565.057 171.852 582.087 178.867C600.691 185.785 619.156 196.268 635.055 208.16C641.62 213.07 647.749 218.58 653.95 223.938C656.34 225.916 658.582 227.854 660.65 230.174L538.698 354.825L526.886 355.008L528.244 352.965L527.958 236.095L527.908 235.571L527.458 166.5L528.34 165.728Z"/>
	<path fill="#40466A" transform="scale(0.488281 0.488281)" d="M653.95 223.938C656.34 225.916 658.582 227.854 660.65 230.174L538.698 354.825L526.886 355.008L528.244 352.965L653.95 223.938Z"/>
	<path fill="#7CEFD1" transform="scale(0.488281 0.488281)" d="M528.34 165.728C546.52 168.197 565.057 171.852 582.087 178.867C578.675 183.985 573.52 188.339 569.202 192.75L541.013 222.185C536.87 226.491 531.435 230.832 527.908 235.571L527.458 166.5L528.34 165.728Z"/>
	<path fill="#1DB847" transform="scale(0.488281 0.488281)" d="M618.571 520.405C619.892 520.555 621.835 520.531 623.063 520.941L661.906 521.081L696.237 521.088L697.212 521.397C701.282 522.584 706.692 522.198 710.964 522.344L710.939 529.902L710.713 593.91L710.65 656.744L710.656 674.763C710.662 677.975 710.377 681.469 710.799 684.633L711.058 692.125L658.069 692.287L623.049 692.522L623.068 699.648L617.908 699.93L528.488 700.046L528.134 699.958L521.475 699.895L521.599 692.001L521.596 684.477L521.492 675.301C523.861 673.847 526.092 671.098 528.056 669.104L528.403 668.048C531.126 666.12 533.498 663.305 535.853 660.943L551.656 644.436L594.878 599.151L606.771 586.104C609.898 582.47 612.846 578.525 616.399 575.297L617.649 575.382L617.557 541.699C617.923 535.065 618.258 527.648 617.456 521.066L618.571 520.405Z"/>
	<path fill="#0D763A" transform="scale(0.488281 0.488281)" d="M661.906 521.081L696.237 521.088L697.212 521.397C701.282 522.584 706.692 522.198 710.964 522.344L710.939 529.902L655.597 529.672C656.852 527.526 659.178 526.326 660.283 524.139C660.83 523.054 660.536 523.429 661.294 522.51C661.959 521.706 661.671 522.348 661.906 521.081Z"/>
	<path fill="#056142" transform="scale(0.488281 0.488281)" d="M618.571 520.405C619.892 520.555 621.835 520.531 623.063 520.941L661.906 521.081C661.671 522.348 661.959 521.706 661.294 522.51C660.536 523.429 660.83 523.054 660.283 524.139C659.178 526.326 656.852 527.526 655.597 529.672L655.253 529.889L625.133 560.264L624.962 587.896L625.082 634.31L625.121 666.162C625.145 671.165 624.757 676.65 625.452 681.588L625.068 684.399L624.032 684.44L622.5 684.245C620.922 683.591 622.67 678.924 621.5 677.255C619.588 678.525 621.709 682.516 620.494 684.542L619.452 684.082C619.415 681.226 619.883 677.005 619.095 674.337C618.913 673.719 618.846 673.314 618.807 672.672L618.755 671.75L617.905 674.083L617.994 629.145L617.649 575.382L617.557 541.699C617.923 535.065 618.258 527.648 617.456 521.066L618.571 520.405Z"/>
	<path fill="#0EA632" transform="scale(0.488281 0.488281)" d="M625.133 560.264L624.971 529.521L655.253 529.889L625.133 560.264Z"/>
	<path fill="#C7DEDC" transform="scale(0.488281 0.488281)" d="M618.571 520.405C619.892 520.555 621.835 520.531 623.063 520.941L623.502 636.13L623.842 672.75C623.939 676.561 623.55 680.68 624.032 684.44L622.5 684.245C620.922 683.591 622.67 678.924 621.5 677.255C619.588 678.525 621.709 682.516 620.494 684.542L619.452 684.082C619.415 681.226 619.883 677.005 619.095 674.337C618.913 673.719 618.846 673.314 618.807 672.672L618.755 671.75L617.905 674.083L617.994 629.145L617.649 575.382L617.557 541.699C617.923 535.065 618.258 527.648 617.456 521.066L618.571 520.405Z"/>
	<path fill="#CEDCE0" transform="scale(0.488281 0.488281)" d="M617.994 629.145C618.339 628.678 618.793 628.275 619.028 627.744C619.273 627.191 619.021 624.934 619.02 624.247L619.255 613.5L619.255 611.75L619.75 611.255C620.417 613.223 620.076 616.008 620.073 618.099L620.024 631.75L620.878 631.875C621.417 627.284 621.266 622.662 621.262 618.047C621.261 616.577 620.773 612.732 621.75 611.755C623.03 615.655 621.057 635.886 622.5 637.122C623.346 636.441 623.041 636.799 623.502 636.13L623.842 672.75C623.939 676.561 623.55 680.68 624.032 684.44L622.5 684.245C620.922 683.591 622.67 678.924 621.5 677.255C619.588 678.525 621.709 682.516 620.494 684.542L619.452 684.082C619.415 681.226 619.883 677.005 619.095 674.337C618.913 673.719 618.846 673.314 618.807 672.672L618.755 671.75L617.905 674.083L617.994 629.145Z"/>
	<path fill="#4CE09C" transform="scale(0.488281 0.488281)" d="M710.713 593.91L710.65 656.744L710.656 674.763C710.662 677.975 710.377 681.469 710.799 684.633L625.068 684.399L625.452 681.588C628.693 676.779 633.062 672.684 637.083 668.528L656.058 649.238L710.713 593.91Z"/>
	<path fill="#1DB847" transform="scale(0.488281 0.488281)" d="M528.403 668.048C531.126 666.12 533.498 663.305 535.853 660.943L551.656 644.436L594.878 599.151L606.771 586.104C609.898 582.47 612.846 578.525 616.399 575.297L617.649 575.382L617.994 629.145L617.905 674.083L618.755 671.75L618.807 672.672C618.846 673.314 618.913 673.719 619.095 674.337C619.883 677.005 619.415 681.226 619.452 684.082L620.494 684.542C621.709 682.516 619.588 678.525 621.5 677.255C622.67 678.924 620.922 683.591 622.5 684.245L624.032 684.44L625.068 684.399L710.799 684.633L711.058 692.125L658.069 692.287L623.049 692.522L623.068 699.648L617.908 699.93L528.488 700.046L528.134 699.958L521.475 699.895L521.599 692.001L521.596 684.477L521.492 675.301C523.861 673.847 526.092 671.098 528.056 669.104L528.403 668.048Z"/>
	<path fill="#0D763A" transform="scale(0.488281 0.488281)" d="M521.492 675.301C523.861 673.847 526.092 671.098 528.056 669.104L527.962 684.457L521.596 684.477L521.492 675.301Z"/>
	<path fill="#D1D2DD" transform="scale(0.488281 0.488281)" d="M617.905 674.083L618.755 671.75L618.807 672.672C618.846 673.314 618.913 673.719 619.095 674.337C619.883 677.005 619.415 681.226 619.452 684.082L620.494 684.542C621.709 682.516 619.588 678.525 621.5 677.255C622.67 678.924 620.922 683.591 622.5 684.245L624.032 684.44L625.068 684.399L710.799 684.633L711.058 692.125L658.069 692.287L623.049 692.522L623.068 699.648L617.908 699.93L528.488 700.046L528.134 699.958L521.475 699.895L521.599 692.001L521.596 684.477L527.962 684.457L591.389 684.49L609.348 684.479C612.066 684.473 615.403 684.864 617.977 684.037L617.905 674.083Z"/>
	<path fill="#0A524A" transform="scale(0.488281 0.488281)" d="M521.599 692.001L528.153 692.046L617.981 692.257L623.049 692.522L623.068 699.648L617.908 699.93L528.488 700.046L528.134 699.958L521.475 699.895L521.599 692.001Z"/>
	<path fill="#ACA7BA" transform="scale(0.488281 0.488281)" d="M617.981 692.257L623.049 692.522L623.068 699.648L617.908 699.93L617.981 692.257Z"/>
	<path fill="#043D48" transform="scale(0.488281 0.488281)" d="M521.599 692.001L528.153 692.046C528.193 694.522 528.542 697.545 528.134 699.958L521.475 699.895L521.599 692.001Z"/>
	<path fill="#DEC075" transform="scale(0.488281 0.488281)" d="M512.96 78.5168C525.977 78.9129 539.056 79.4426 551.961 81.3074C614.475 90.3408 675.213 120.355 718.626 166.604L735.567 186.539C744.077 197.796 752.09 209.194 759.095 221.459C776.614 252.135 788.307 285.669 794.776 320.318C800.726 352.191 799.369 384.327 799.265 416.576L799.19 512.927L799.203 737.486L799.15 872.827L741.754 872.8L726.592 872.645L726.908 683.054L726.911 512.952L726.761 415.648L726.597 386.717C726.557 381.17 726.926 375.355 726.165 369.859L723.736 355.079C722.268 351.381 721.901 346.365 721.053 342.406C719.84 336.741 718.177 331.086 716.386 325.58C704.615 289.387 686.651 257.96 660.65 230.174C658.582 227.854 656.34 225.916 653.95 223.938C647.749 218.58 641.62 213.07 635.055 208.16C619.156 196.268 600.691 185.785 582.087 178.867C565.057 171.852 546.52 168.197 528.34 165.728L526.044 165.417C522.044 164.741 517.51 165 513.446 164.925L513.407 148.389L512.918 148.351C513.303 146.055 513.089 143.47 513.089 141.133L513.084 127.432L512.96 78.5168Z"/>
	<path fill="#6D3E21" transform="scale(0.488281 0.488281)" d="M513.407 148.389C566.884 150.104 616.665 169.296 657.436 204.127C664.464 210.131 671.042 216.928 677.353 223.675C706.587 254.934 727.696 296.703 736.484 338.5C738.689 348.986 740.58 359.842 741.345 370.545C741.873 377.927 741.539 385.541 741.529 392.945L741.505 430.637L741.45 524.901L741.754 872.8L726.592 872.645L726.908 683.054L726.911 512.952L726.761 415.648L726.597 386.717C726.557 381.17 726.926 375.355 726.165 369.859L723.736 355.079C722.268 351.381 721.901 346.365 721.053 342.406C719.84 336.741 718.177 331.086 716.386 325.58C704.615 289.387 686.651 257.96 660.65 230.174C658.582 227.854 656.34 225.916 653.95 223.938C647.749 218.58 641.62 213.07 635.055 208.16C619.156 196.268 600.691 185.785 582.087 178.867C565.057 171.852 546.52 168.197 528.34 165.728L526.044 165.417C522.044 164.741 517.51 165 513.446 164.925L513.407 148.389Z"/>
</svg>
