<?xml version="1.0" encoding="utf-8" ?>
<svg xmlns="http://www.w3.org/2000/svg" xmlns:xlink="http://www.w3.org/1999/xlink" width="500" height="500">
	<path fill="#8395D7" transform="scale(0.488281 0.488281)" d="M-0 -0L1024 0L1024 1024L-0 1024L0 -0Z"/>
	<path fill="#F08535" transform="scale(0.488281 0.488281)" d="M205.982 879.325L223.193 879.529L222.185 884.142L220.87 893.359C214.851 890.4 207.164 887.434 201.996 883.25C201.503 881.885 201.551 881.985 202.156 880.655C203.403 879.731 204.499 879.578 205.982 879.325Z"/>
	<path fill="#FEFEFE" transform="scale(0.488281 0.488281)" d="M555.464 95.9091C556.93 99.1146 557.718 102.814 559.713 105.75C562.013 109.137 564.863 109.558 568.595 110.353C566.657 111.554 562.855 112.981 561.891 115.04L561.647 115.608C560.274 118.6 559.39 121.588 558.498 124.75L557.834 126.348C556.587 125.28 555.981 123.109 555.271 121.621C554.116 119.2 552.658 116.587 550.887 114.57C550.129 113.707 547.759 112.057 547.652 111.075C552.357 106.439 553.784 102.135 555.464 95.9091Z"/>
	<path fill="#FEFEFE" transform="scale(0.488281 0.488281)" d="M197.534 207.125C200.674 207.486 203.037 208.243 205.222 210.684C212.263 218.548 211.189 231.189 210.811 241L210.25 241.376L209.25 238.877C207.61 234.581 205.428 230.401 202.672 226.715C199.757 222.818 193.523 218.514 192.25 213.903C191.826 212.369 192.018 211.083 192.894 209.75C194 208.068 195.69 207.592 197.534 207.125Z"/>
	<path fill="#EA594F" transform="scale(0.488281 0.488281)" d="M136.677 588.028C138.703 587.939 140.73 588.014 142.668 588.684C145.549 589.68 147.946 591.809 149.245 594.573C150.645 597.552 150.653 600.841 149.331 603.861C147.827 607.298 144.607 609.023 141.309 610.416C139.226 610.391 137.204 610.792 135.171 610.109C132.342 609.158 130.02 607.188 128.806 604.461C127.387 601.272 127.35 597.954 128.684 594.736C130.253 590.952 133.029 589.438 136.677 588.028Z"/>
	<path fill="#F9A733" transform="scale(0.488281 0.488281)" d="M823.579 817.273C823.466 813.464 824.145 809.819 826.083 806.486C828.315 802.648 831.824 799.873 836.142 798.777C840.141 797.763 844.733 798.475 848.25 800.566C852.686 803.205 854.775 807.828 856.109 812.577L823.579 817.273Z"/>
	<path fill="#161C7B" transform="scale(0.488281 0.488281)" d="M910.054 843.364L943.643 843.451C948.727 843.435 954.675 842.801 959.676 843.499C960.617 843.63 960.79 843.679 961.5 844.375C962.437 845.293 962.63 846.261 962.886 847.5C962.513 848.891 962.107 850.048 960.75 850.772C957.872 852.306 914.231 851.407 906.84 851.425L910.054 843.364Z"/>
	<path fill="#161C7B" transform="scale(0.488281 0.488281)" d="M725.927 827.578L783.527 828.121L768.076 838.429C765.504 840.084 761.773 841.833 759.719 843.999L718.49 830.116C720.822 828.804 723.28 827.945 725.927 827.578Z"/>
	<path fill="#F9A733" transform="scale(0.488281 0.488281)" d="M886.207 656.064C889.523 655.898 892.384 655.861 895.458 657.385C898.733 659.009 900.741 661.81 901.846 665.231C902.993 668.783 902.649 673.01 900.909 676.312C899.009 679.918 895.991 681.7 892.282 682.967C889.637 683.048 887.25 683.154 884.749 682.101C880.986 680.517 878.332 677.445 876.895 673.656C875.627 670.31 875.828 665.862 877.456 662.64C879.331 658.931 882.5 657.399 886.207 656.064Z"/>
	<path fill="#F9A733" transform="scale(0.488281 0.488281)" d="M461.131 97.2388C467.669 98.5491 471.669 100.981 475.372 106.604C477.674 110.1 478.617 113.454 478.758 117.575C478.379 118.716 477.947 119.79 477.297 120.808C475.137 124.19 471.926 126.543 467.998 127.432C463.105 128.541 457.741 127.732 453.554 124.882C449.804 122.329 447.093 118.53 446.289 114.035C445.629 110.346 446.664 106.119 448.916 103.124C451.984 99.0418 456.321 97.8266 461.131 97.2388Z"/>
	<path fill="#EA594F" transform="scale(0.488281 0.488281)" d="M872.339 262.553C875.481 262.442 877.777 262.544 880.754 263.697C885.048 265.361 888.355 268.646 890.115 272.913C891.845 277.107 891.749 281.676 889.739 285.744C887.326 290.625 883.179 293.077 878.215 294.666C874.617 294.985 871.083 294.591 867.795 293.04C863.546 291.036 860.558 287.387 859.063 282.968C857.778 279.172 858.21 275.283 860.067 271.752C862.664 266.816 867.23 264.218 872.339 262.553Z"/>
	<path fill="#FEFEFE" transform="scale(0.488281 0.488281)" d="M856.109 812.577L916.582 804.562C917.106 806.777 917.667 808.713 918.629 810.792L918.887 811.338L793.655 829.137C793.742 827.197 792.341 824.915 791.474 823.264C795.316 821.023 800.56 820.681 804.922 820.044L823.579 817.273L856.109 812.577Z"/>
	<path fill="#F9A733" transform="scale(0.488281 0.488281)" d="M90.3672 663.568C94.4315 663.172 98.3403 663.4 102.139 665.027C106.99 667.106 110.986 670.729 112.871 675.75C114.563 680.257 114.028 684.681 111.853 688.92C109.027 694.428 104.371 697.106 98.6796 698.93C94.1547 699.504 89.4843 699.073 85.3613 697.007C80.9755 694.81 77.3946 690.652 75.926 685.971C74.4019 681.114 75.0978 676.454 77.6167 672.037C80.3067 667.321 85.4121 665.031 90.3672 663.568Z"/>
	<path fill="#FEFEFE" transform="scale(0.488281 0.488281)" d="M827.266 444.541C830.828 444.385 833.255 444.679 835.963 447.25C838.005 449.188 839.281 452.181 839.266 454.988C839.243 459.527 837.712 463.729 835.824 467.787C830.646 478.915 822.091 488.542 813.519 497.176L808.035 502.401C805.591 487.989 805.732 474.579 811.455 460.862C814.786 452.878 819.125 447.86 827.266 444.541Z"/>
	<path fill="#FEFEFE" transform="scale(0.488281 0.488281)" d="M916.338 735.695C919.519 735.101 924.478 735.344 927.678 735.805L928.5 735.933C933.904 736.726 940.697 738.364 944.075 743.088C945.723 745.394 946.22 747.758 945.717 750.532L945.573 751.25C945.364 752.33 945.16 753.342 944.629 754.32C941.605 759.894 934.628 762.988 928.75 764.418C916.202 767.47 902.213 766 889.355 766.705C880.379 767.196 871.58 768.672 862.717 770.094C850.86 771.995 839.027 774.206 827.519 777.679L802.994 785.388C809.583 780.678 817.655 777.358 824.764 773.432L840.053 764.176C853.197 757.075 866.888 751.18 880.834 745.851C892.554 741.373 903.782 737.134 916.338 735.695Z"/>
	<path fill="#FEFEFE" transform="scale(0.488281 0.488281)" d="M211.832 277.149C207.295 273.664 201.269 271.062 195.973 268.899C174.728 260.225 149.469 257.336 131.92 241.339C127.147 236.988 121.64 230.789 121.509 223.987C121.455 221.175 122.451 218.646 124.471 216.692C127.602 213.664 131.634 212.606 135.877 212.664C144.921 212.788 154.219 216.739 162.191 220.716C182.908 231.05 199.418 244.77 215.496 261.173C225.878 271.656 232.372 282.721 238.426 296.089C240.06 299.696 242.09 303.388 243.009 307.239C240.649 304.179 238.743 300.777 236.319 297.782C229.64 289.529 220.61 282.986 211.832 277.149Z"/>
	<path fill="#EA594F" transform="scale(0.488281 0.488281)" d="M461.131 97.2388C460.55 94.7456 459.414 92.227 459.041 89.7305C458.069 83.2366 460.106 76.0411 463.537 70.5482C468.311 62.9036 475.647 58.5492 484.297 56.4822C492.443 54.5355 502.555 56.7493 509.473 61.25C516.618 65.8991 521.601 73.3625 523.255 81.7363C525.018 90.6595 522.874 99.3586 517.713 106.772C512.866 113.734 505.266 118.682 496.873 120.12C490.597 121.195 484.585 119.964 478.758 117.575C478.617 113.454 477.674 110.1 475.372 106.604C471.669 100.981 467.669 98.5491 461.131 97.2388Z"/>
	<path fill="#F08535" transform="scale(0.488281 0.488281)" d="M821.677 324.149C824.333 323.649 828.027 323.914 830.703 324.334L831.5 324.467C835.377 325.084 839.303 326.199 842.688 328.245C850.616 333.035 856.843 340.772 858.954 349.878L859.149 350.75L859.708 353.441C861.043 361.657 858.732 370.281 853.912 376.994C848.206 384.939 841.179 388.806 831.659 390.45C823.15 390.61 815.847 390.051 808.569 385.158C801.687 380.531 795.519 372.381 793.987 364.113L793.836 363.25L793.668 362.342C792.103 353.569 793.92 344.525 799.168 337.25C804.679 329.609 812.529 325.637 821.677 324.149Z"/>
	<path fill="#FEFEFE" transform="scale(0.488281 0.488281)" d="M765.356 564.92C785.572 538.67 811.857 516.863 842.302 503.448C848.696 500.631 855.183 497.694 862.181 496.825C867.126 496.211 872.738 496.604 876.79 499.789C879.568 501.972 881.011 505.207 881.378 508.656C882.492 519.102 874.583 529.407 868.191 536.819C848.729 559.388 821.247 569.033 794.675 580.392C782.678 585.436 770.047 591.591 759.362 599.019C752.64 603.692 746.575 609.156 740.49 614.606C742.503 608.346 744.359 601.975 746.956 595.926C751.688 584.901 758.221 574.532 765.356 564.92Z"/>
	<path fill="#6D6FC4" transform="scale(0.488281 0.488281)" d="M878.553 915.28L878.983 915.597C880.765 916.692 883.517 917.124 885.527 917.8L906.288 924.554C910.056 925.734 916.836 927.069 919.938 929.403L709.984 966.028L674.178 972.188L659.798 974.663C656.026 975.341 651.819 976.359 647.97 976.058C644.956 975.822 641.755 974.366 638.962 973.25L622.177 965.868C619.071 964.513 615.049 963.389 612.3 961.548L611.958 961.286C612.66 961.234 613.154 961.171 613.831 961.401C614.512 961.632 615.04 961.623 615.753 961.625L614.552 960.955L614.61 960.327C615.867 960.845 617.369 961.586 618.75 961.452C621.208 961.212 623.811 960.353 626.233 959.806L639.857 956.94L689.25 947.434L839.76 921.457L863.483 917.36C868.381 916.505 873.567 915.324 878.553 915.28Z"/>
	<path fill="#6D6FC4" transform="scale(0.488281 0.488281)" d="M248.019 878.537L261.919 880.62L311.624 890.108L377.75 902.335L406.897 907.674C412.598 908.689 418.813 909.503 424.343 911.196C427.064 912.029 429.383 913.706 431.464 915.605L465.395 934.705C467.478 935.415 469.129 936.795 471.017 937.882C473.49 939.305 479.292 941.299 480.646 943.735L479.554 944.509C480.457 947.5 490.636 951.864 493.623 953.767L486 954.698C481.098 954.825 476.098 953.941 471.25 953.287L446.273 949.655L351.817 935.226L265.14 922.392L242.25 918.973C239.263 918.48 235.892 918.262 233 917.41C227.97 915.928 222.907 912.493 218.366 909.85C210.272 905.139 200.577 900.237 193.711 893.914C202.978 894.543 211.932 894.53 221.205 893.838L220.87 893.359L222.185 884.142L222.585 885.351L242.667 885.535L243.912 883.823L248.019 878.537Z"/>
	<path fill="#161C7B" transform="scale(0.488281 0.488281)" d="M465.395 934.705C467.478 935.415 469.129 936.795 471.017 937.882C473.49 939.305 479.292 941.299 480.646 943.735L479.554 944.509C477.447 943.745 474.712 943.715 472.482 943.463C466.97 942.842 461.081 942.542 455.734 941.092L456.989 936.231C459.403 935.684 461.772 937.166 464.205 936.75L465.395 934.705Z"/>
	<path fill="#F6D8D6" transform="scale(0.488281 0.488281)" d="M423.235 927.475C433.627 931.404 445.023 932.389 455.449 935.942C456.258 936.218 455.936 936.117 456.989 936.231L455.734 941.092C454.837 940.7 452.708 940.913 451.605 940.81L425.909 939.083L425.153 936.812L423.235 927.475Z"/>
	<path fill="#F6D8D6" transform="scale(0.488281 0.488281)" d="M222.185 884.142L222.585 885.351L242.667 885.535L241.89 887.458C240.744 892.158 240.534 896.36 241.17 901.154L241.802 904.009C234.795 901.044 228.439 896.216 221.205 893.838L220.87 893.359L222.185 884.142Z"/>
	<path fill="#FDDB8B" transform="scale(0.488281 0.488281)" d="M431.464 915.605L465.395 934.705L464.205 936.75C461.772 937.166 459.403 935.684 456.989 936.231C455.936 936.117 456.258 936.218 455.449 935.942C445.023 932.389 433.627 931.404 423.235 927.475C423.372 925.992 424.403 925.072 425.326 923.987C426.826 923.739 427.739 922.508 428.767 921.478L431.464 915.605Z"/>
	<path fill="#F9A733" transform="scale(0.488281 0.488281)" d="M241.17 901.154L425.153 936.812L425.909 939.083C415.963 939.004 405.49 936.07 395.736 934.139L352.043 925.635L271.912 910.904L247.377 906.346C245.244 905.872 243.645 905.18 241.802 904.009L241.17 901.154Z"/>
	<path fill="#EA594F" transform="scale(0.488281 0.488281)" d="M248.019 878.537L261.919 880.62L311.624 890.108L377.75 902.335L406.897 907.674C412.598 908.689 418.813 909.503 424.343 911.196C427.064 912.029 429.383 913.706 431.464 915.605L428.767 921.478C427.739 922.508 426.826 923.739 425.326 923.987C424.403 925.072 423.372 925.992 423.235 927.475L425.153 936.812L241.17 901.154C240.534 896.36 240.744 892.158 241.89 887.458L242.667 885.535L243.912 883.823L248.019 878.537Z"/>
	<path fill="#F08535" transform="scale(0.488281 0.488281)" d="M248.019 878.537L261.919 880.62L311.624 890.108L377.75 902.335L406.897 907.674C412.598 908.689 418.813 909.503 424.343 911.196C427.064 912.029 429.383 913.706 431.464 915.605L428.767 921.478C427.739 922.508 426.826 923.739 425.326 923.987C421.693 920.889 399.099 917.3 393 916.084L305.425 899.626L241.89 887.458L242.667 885.535L243.912 883.823L248.019 878.537Z"/>
	<path fill="#F9A733" transform="scale(0.488281 0.488281)" d="M242.667 885.535L243.912 883.823C246.833 884.942 250.066 884.848 253.136 885.35L275.796 889.261L351.911 903.971L392.975 911.561C402.278 913.338 411.903 915.029 421.001 917.627C423.591 918.367 425.175 919.194 427.406 920.682L428.767 921.478C427.739 922.508 426.826 923.739 425.326 923.987C421.693 920.889 399.099 917.3 393 916.084L305.425 899.626L241.89 887.458L242.667 885.535Z"/>
	<defs>
		<linearGradient id="gradient_0" gradientUnits="userSpaceOnUse" x1="386.44141" y1="1007.7961" x2="345.32147" y2="804.3476">
			<stop offset="0" stop-color="#4A59BA"/>
			<stop offset="1" stop-color="#7374C9"/>
		</linearGradient>
	</defs>
	<path fill="url(#gradient_0)" transform="scale(0.488281 0.488281)" d="M136.022 849.863C144.573 849.637 152.975 850.506 161.5 851.003L188.209 851.852L338.297 853.275L383.727 852.798C390.528 852.673 398.203 853.222 404.854 852.085C415.021 851.116 425.458 851.71 435.649 852.127L438.815 853.462L438.237 853.817C433.021 856.967 426.915 859.476 421.218 861.694C419.917 862.201 414.688 863.694 414.137 864.503L472.076 887.603L539.588 914.336L586.603 932.681L604.506 939.949C608.395 941.557 612.567 943.053 616.153 945.258L611.038 950.897L604.855 955.347C606.876 956.285 613.486 958.709 614.61 960.327L614.552 960.955L615.753 961.625C615.04 961.623 614.512 961.632 613.831 961.401C613.154 961.171 612.66 961.234 611.958 961.286C610.187 961.146 607.469 959.685 605.757 959.03L584.27 950.074L489 912.004L420.5 884.996C410.104 880.914 399.329 877.332 389.152 872.75C387.528 872.019 386.304 871.497 384.485 871.432C375.488 871.109 365.774 872.437 356.756 873.007L303.038 876.882C289.542 878.208 275.46 880.81 261.919 880.62L248.019 878.537L243.912 883.823L242.667 885.535L222.585 885.351L222.185 884.142L223.193 879.529L205.982 879.325C201.48 876.608 194.703 875.393 189.633 873.812L126.717 855.654L115.412 852.274C113.988 851.812 112.769 851.005 111.25 850.846C107.548 850.459 103.383 850.871 99.6368 850.887L74.75 850.99C71.746 851.011 66.6895 851.715 63.9972 850.591L136.022 849.863Z"/>
	<path fill="#FEFEFE" transform="scale(0.488281 0.488281)" d="M223.193 879.529L248.019 878.537L243.912 883.823L242.667 885.535L222.585 885.351L222.185 884.142L223.193 879.529Z"/>
	<path fill="#F08535" transform="scale(0.488281 0.488281)" d="M188.157 583.098C185.108 581.136 181.573 579.798 178.288 578.26C173.501 576.018 168.697 573.605 164.186 570.845C133.116 551.837 107.624 524.932 93.827 490.878C87.0209 474.079 83.1921 455.04 84.7782 436.889C85.908 423.959 89.6512 411.249 94.7256 399.342C102.068 382.115 113.25 367.201 126.544 354.133C134.069 346.736 143.535 339.081 153.403 335.098L152.996 336.003C150.469 341.454 146.932 346.206 144.784 351.937C135.349 377.104 139.986 406.396 148.666 431.231C159.053 460.947 177.947 489.917 207.127 503.852C215.236 507.725 223.078 510.002 231.882 511.749L188.157 583.098Z"/>
	<path fill="#FEFEFE" transform="scale(0.488281 0.488281)" d="M620.364 802.579C623.812 801.733 627.827 800.499 631.378 800.91C635.244 801.358 639.304 802.991 642.964 804.279L661.5 810.981L715.555 829.408L718.49 830.116L759.719 843.999C756.13 847.38 751.145 849.854 747 852.515L727.996 865.115L668.861 905.347L637.541 927.682C630.029 933.266 622.724 938.513 616.153 945.258C612.567 943.053 608.395 941.557 604.506 939.949L586.603 932.681L539.588 914.336L472.076 887.603L414.137 864.503C414.688 863.694 419.917 862.201 421.218 861.694C426.915 859.476 433.021 856.967 438.237 853.817L438.815 853.462C446.931 857.682 454.626 862.367 463.021 866.088C490.218 878.144 520.263 880.501 548.831 871.438C553.537 869.945 558.052 868.055 562.243 865.422L565.669 863.433C566.685 863.901 566.338 863.856 567.37 863.932C572.872 864.336 578.633 863.795 582.917 859.899C585.042 857.967 585.831 855.809 586.001 853.008C589.256 853.082 592.371 854.99 595.699 854.897C600.401 854.765 603.56 850.866 606.667 847.836C607.714 846.816 608.498 845.628 609.972 845.409L612.963 841.006L613.799 840.045C615.196 842.269 618.476 842.924 620.817 843.895C622.952 844.781 625.441 844.779 627.606 843.941C628.871 843.452 630.001 842.67 631.135 841.938C631.854 841.474 631.524 841.63 632.278 841.395C633.517 840.416 634.534 839.145 635.055 837.639C637.614 830.246 630.286 820.809 626.731 814.657C624.444 810.701 622.285 806.726 620.364 802.579Z"/>
	<path fill="#161C7B" transform="scale(0.488281 0.488281)" d="M613.799 840.045C615.196 842.269 618.476 842.924 620.817 843.895C622.952 844.781 625.441 844.779 627.606 843.941C628.871 843.452 630.001 842.67 631.135 841.938C631.854 841.474 631.524 841.63 632.278 841.395C635.258 847.299 638.981 854.32 640.513 860.75L640 861.49C639.144 861.603 638.596 861.689 637.75 861.457C634.398 860.539 630.472 857.439 627.402 855.608L609.972 845.409L612.963 841.006L613.799 840.045Z"/>
	<path fill="#8395D7" transform="scale(0.488281 0.488281)" d="M671.987 865.75L673.686 865.75C674.733 866.896 674.863 866.818 674.843 868.345C671.614 870.464 666.345 871.165 662.625 872.19L639.5 878.481L588.433 892.43C587.298 892.664 587.328 892.72 586.336 892.14C586.014 890.792 585.717 890.549 586.387 889.357C590.796 887.515 595.65 886.501 600.253 885.219L625.184 878.387L671.987 865.75Z"/>
	<path fill="#F8B071" transform="scale(0.488281 0.488281)" d="M530.129 754.185C534.239 758.514 538.362 763.007 541.626 768.023L552.544 769.481L579.572 777.069L600.345 782.751C603.574 783.743 607.866 784.928 610.423 787.16C614.073 790.347 616.973 796.497 619.389 800.75L620.364 802.579C622.285 806.726 624.444 810.701 626.731 814.657C630.286 820.809 637.614 830.246 635.055 837.639C634.534 839.145 633.517 840.416 632.278 841.395C631.524 841.63 631.854 841.474 631.135 841.938C630.001 842.67 628.871 843.452 627.606 843.941C625.441 844.779 622.952 844.781 620.817 843.895C618.476 842.924 615.196 842.269 613.799 840.045L612.963 841.006L609.972 845.409C608.498 845.628 607.714 846.816 606.667 847.836C603.56 850.866 600.401 854.765 595.699 854.897C592.371 854.99 589.256 853.082 586.001 853.008C585.831 855.809 585.042 857.967 582.917 859.899C578.633 863.795 572.872 864.336 567.37 863.932C566.338 863.856 566.685 863.901 565.669 863.433L562.243 865.422C558.052 868.055 553.537 869.945 548.831 871.438C520.263 880.501 490.218 878.144 463.021 866.088C454.626 862.367 446.931 857.682 438.815 853.462L435.649 852.127C425.458 851.71 415.021 851.116 404.854 852.085C402.736 847.263 401.807 842.091 401.064 836.906C399.137 823.45 401.389 804.2 409.729 793.037C411.327 792.687 413.56 793.527 415.173 793.89L417.305 793.706C418.795 795.587 423.295 795.464 425.711 795.742L450.513 797.782C453.787 798.004 457.732 798.685 460.964 798.418L530.129 754.185Z"/>
	<path fill="#EA594F" transform="scale(0.488281 0.488281)" d="M612.963 841.006C611.124 839.3 608.727 838.059 606.794 836.377C601.386 831.67 594.648 823.712 592.043 817L593.25 815.321L594.187 815.25L613.925 839.014L613.799 840.045L612.963 841.006Z"/>
	<path fill="#EA594F" transform="scale(0.488281 0.488281)" d="M562.243 865.422C559.266 863.628 554.81 862.932 551.469 861.791L538 856.464C536.297 855.743 533.603 854.946 532.341 853.57C531.66 852.828 531.872 852.694 531.889 851.75C532.635 850.601 532.644 850.726 534 850.422C538.506 851.475 542.984 854.351 547.384 855.999C552.593 857.951 558.46 859.153 563.436 861.525C564.408 861.989 564.982 862.627 565.669 863.433L562.243 865.422Z"/>
	<path fill="#EA594F" transform="scale(0.488281 0.488281)" d="M545.108 792.75C547.006 792.76 550.176 795.533 551.852 796.534C554.331 798.014 556.962 799.3 559.594 800.487C566.023 803.385 572.799 806.228 579.65 807.95C581.916 808.519 584.285 808.517 586.5 809.055C587.962 809.411 588.057 809.804 588.852 811L587.987 812.25C585.344 812.934 582.528 812.264 579.932 811.659C569.831 809.303 559.03 805.04 550.243 799.542C548.124 798.216 545.394 796.632 544.059 794.5L545.108 792.75Z"/>
	<path fill="#EA594F" transform="scale(0.488281 0.488281)" d="M536.311 819.811L536.754 819.453C537.632 818.9 538.067 818.917 539 819.41C540.941 820.434 542.735 822.099 544.62 823.264C550.062 826.629 556.342 828.518 562.491 830.077C564.511 832.656 566.502 835.236 568.875 837.504L576.396 844.112C579.054 846.246 584.952 849.793 586.001 853.008C579.16 852.087 570.734 844.614 565.987 839.843C564.055 837.901 561.724 834.575 559.167 833.565C551.546 830.553 542.116 827.75 535.75 822.459C535.471 821.072 535.61 821.065 536.311 819.811Z"/>
	<path fill="#EA594F" transform="scale(0.488281 0.488281)" d="M404.854 852.085C402.736 847.263 401.807 842.091 401.064 836.906C399.137 823.45 401.389 804.2 409.729 793.037C411.327 792.687 413.56 793.527 415.173 793.89C413.331 795.759 411.796 797.211 410.918 799.75L410.665 800.457C410.026 802.297 409.717 804.079 409.45 806L409.313 806.919C408.372 813.941 410.26 822.295 413.335 828.642L413.654 829.315C416.778 835.802 422.093 841.974 427.75 846.39C430.305 848.384 433.226 849.986 435.649 852.127C425.458 851.71 415.021 851.116 404.854 852.085Z"/>
	<path fill="#9C1953" transform="scale(0.488281 0.488281)" d="M530.129 754.185C534.239 758.514 538.362 763.007 541.626 768.023C532.054 769.759 523.301 773.704 514.562 777.873L489.019 790.874C484.715 793.197 479.498 797.081 474.92 798.442C471.264 799.53 464.91 798.55 460.964 798.418L530.129 754.185Z"/>
	<path fill="#9C1953" transform="scale(0.488281 0.488281)" d="M918.887 811.338L923.748 810.866L910.054 843.364L906.84 851.425L878.553 915.28C873.567 915.324 868.381 916.505 863.483 917.36L839.76 921.457L689.25 947.434L639.857 956.94L626.233 959.806C623.811 960.353 621.208 961.212 618.75 961.452C617.369 961.586 615.867 960.845 614.61 960.327C613.486 958.709 606.876 956.285 604.855 955.347L611.038 950.897L616.153 945.258C622.724 938.513 630.029 933.266 637.541 927.682L668.861 905.347L727.996 865.115L747 852.515C751.145 849.854 756.13 847.38 759.719 843.999C761.773 841.833 765.504 840.084 768.076 838.429L783.527 828.121C784.481 828.209 790.327 824.01 791.474 823.264C792.341 824.915 793.742 827.197 793.655 829.137L918.887 811.338Z"/>
	<path fill="#690E58" transform="scale(0.488281 0.488281)" d="M791.474 823.264C792.341 824.915 793.742 827.197 793.655 829.137L793.441 829.391C794.601 829.894 795.023 829.927 795.552 831.161C796.872 834.243 795.783 839.066 794.454 841.983C793.327 844.455 791.184 846.351 788.913 847.766L744 872.993L679.259 909.824L656.957 923.017C653.536 925.024 649.856 927.743 646.032 928.903C645.17 929.164 644.37 929.135 643.481 929.102L621.549 944.076C618.21 946.383 614.751 949.26 611.038 950.897L616.153 945.258C622.724 938.513 630.029 933.266 637.541 927.682L668.861 905.347L727.996 865.115L747 852.515C751.145 849.854 756.13 847.38 759.719 843.999C761.773 841.833 765.504 840.084 768.076 838.429L783.527 828.121C784.481 828.209 790.327 824.01 791.474 823.264Z"/>
	<path fill="#FC9A8D" transform="scale(0.488281 0.488281)" d="M791.474 823.264C792.341 824.915 793.742 827.197 793.655 829.137L793.441 829.391C789.964 829.985 786.207 833.131 783.217 834.99L751.457 855.829L674.521 907.299L643.481 929.102L621.549 944.076C618.21 946.383 614.751 949.26 611.038 950.897L616.153 945.258C622.724 938.513 630.029 933.266 637.541 927.682L668.861 905.347L727.996 865.115L747 852.515C751.145 849.854 756.13 847.38 759.719 843.999C761.773 841.833 765.504 840.084 768.076 838.429L783.527 828.121C784.481 828.209 790.327 824.01 791.474 823.264Z"/>
	<path fill="#EA594F" transform="scale(0.488281 0.488281)" d="M744.741 395.781C760.167 409.869 771.575 430.831 772.564 451.978C774.225 487.501 758.934 521.424 740.502 551C739.412 552.748 733.803 560.931 734.562 562.147C734.199 562.348 733.765 562.456 733.471 562.75C732.967 563.254 732.477 564.649 732.103 565.321L728.467 571.338C725.029 576.58 721.15 581.557 717.182 586.403C707.595 598.112 695.984 609.571 684.211 619.093L666.787 631.989C663.903 634.093 661.013 637.164 657.702 638.462L609.275 553.048C602.536 542.105 592.035 532.017 582.609 523.336C603.495 510.272 622.381 493.264 638.097 474.326C643.935 467.292 648.725 459.392 655.023 452.755C661.321 452.216 668.292 448.85 674.093 446.439C680.912 443.605 688.347 440.865 694.454 436.657C700.934 433.832 707.053 429.689 712.817 425.619C724.455 417.401 736.594 407.602 744.741 395.781Z"/>
	<path fill="#FEFEFE" transform="scale(0.488281 0.488281)" d="M723.525 509.575C724.93 509.518 726.158 509.594 727.519 509.992C730.281 510.8 732.677 512.479 733.992 515.108C735.183 517.487 734.889 521.059 734.088 523.517C729.282 538.256 702.271 551.39 688.749 558.466L680.144 563.08L692.184 539.25C699.136 527.688 709.695 512.948 723.525 509.575Z"/>
	<path fill="#F9A733" transform="scale(0.488281 0.488281)" d="M587.935 161.753C606.56 134.452 636.101 117.373 668.281 111.361C699.337 105.558 732.312 113.959 758.147 131.697C784.128 149.536 802.657 178.159 808.281 209.174C814.292 242.323 807.905 275.735 788.483 303.517C780.785 314.528 771.794 323.327 761.304 331.602C759.699 320.992 758.942 311.516 753.673 301.877C744.894 285.818 732.051 277.266 714.854 272.207C714.495 271.354 714.585 271.722 714.46 270.804C712.883 259.231 708.615 248.286 702.612 238.297C684.717 208.523 652.956 184.85 621.16 171.918C610.366 167.528 599.197 164.616 587.935 161.753Z"/>
	<path fill="#EA594F" transform="scale(0.488281 0.488281)" d="M734.562 562.147C744.959 561.664 755.293 561.905 765.356 564.92C758.221 574.532 751.688 584.901 746.956 595.926C744.359 601.975 742.503 608.346 740.49 614.606C746.575 609.156 752.64 603.692 759.362 599.019C770.047 591.591 782.678 585.436 794.675 580.392C799.591 585.281 804.366 590.124 808.559 595.666C825.96 618.666 833.936 647.602 834.002 676.232C834.09 714.816 817.753 755.683 790.364 783.086C771.96 801.499 749.118 815.973 725.927 827.578C723.28 827.945 720.822 828.804 718.49 830.116L715.555 829.408L717.142 821.25C719.032 812.142 718.21 802.97 717.139 793.819C710.692 738.688 682.75 687.142 657.702 638.462C661.013 637.164 663.903 634.093 666.787 631.989L684.211 619.093C695.984 609.571 707.595 598.112 717.182 586.403C721.15 581.557 725.029 576.58 728.467 571.338L732.103 565.321C732.477 564.649 732.967 563.254 733.471 562.75C733.765 562.456 734.199 562.348 734.562 562.147Z"/>
	<path fill="#F9A733" transform="scale(0.488281 0.488281)" d="M739.425 672.112C743.89 671.761 748.774 672.477 752.659 674.856C757.763 677.982 761.144 682.899 762.482 688.703C763.676 693.882 762.913 699.521 759.986 704C756.443 709.422 751.664 711.643 745.518 712.988C740.335 713.109 735.864 713.01 731.28 710.173C726.844 707.428 723.304 702.537 722.176 697.419C721.087 692.481 721.732 686.82 724.38 682.497C727.918 676.722 733.013 673.64 739.425 672.112Z"/>
	<path fill="#165CB6" transform="scale(0.488281 0.488281)" d="M238.223 504.449C244.673 504.828 247.84 507.346 252.059 512.071C270.772 533.028 281.103 560.434 287.67 587.399C290.969 600.949 293.547 615.017 293.672 628.998L292.505 635.842L293.255 636C294.958 643.638 294.536 652.376 294.476 660.151C294.256 688.473 291.472 717.048 286.969 745L283.209 763.684L401.709 786.978C405.689 788.043 414.597 789.09 416.853 792.754C417.169 793.268 417.134 793.232 417.305 793.706L415.173 793.89C413.56 793.527 411.327 792.687 409.729 793.037C401.389 804.2 399.137 823.45 401.064 836.906C401.807 842.091 402.736 847.263 404.854 852.085C398.203 853.222 390.528 852.673 383.727 852.798L338.297 853.275L188.209 851.852L161.5 851.003C152.975 850.506 144.573 849.637 136.022 849.863L63.9972 850.591L63.6133 850.423C62.3963 849.683 61.7748 849.197 61.4442 847.75C61.0701 846.112 61.8147 845.171 62.75 843.972C64.571 843.119 66.8342 843.444 68.8115 843.473L80.5941 843.502L124.965 843.555C124.458 842.898 124.692 843.086 124.095 842.68C122.017 841.265 120.051 839.606 118.491 837.619C107.265 823.319 110.112 791.778 112.02 774.785C112.053 771.397 112.985 767.667 113.717 764.362L118.952 744.5C127.611 714.934 138.631 685.45 151.305 657.358L188.157 583.098L231.882 511.749L238.223 504.449Z"/>
	<path fill="#8395D7" transform="scale(0.488281 0.488281)" d="M245.206 717.507C245.663 729.917 243.396 742.332 242.38 754.68L230.195 752.357C229.448 752.237 226.511 752.07 226 751.704C225.606 751.422 225.397 750.945 225.096 750.565L225.852 747.338L245.206 717.507Z"/>
	<path fill="#161C7B" transform="scale(0.488281 0.488281)" d="M225.096 750.565L224.962 751.5C224.724 751.683 224.535 751.958 224.25 752.048C223.761 752.203 222 751.954 221.401 751.931L213 751.686C208.674 751.659 204.243 751.878 199.952 752.409C180.194 754.853 159.04 760.931 142.636 772.588C141.776 773.199 141.157 773.953 140.093 773.995C140.772 772.382 143.603 770.669 144.991 769.547C153.252 762.868 161.95 756.952 171.5 752.245C183.12 746.516 195.327 742.747 208.349 742.302C211.667 742.188 215.699 742.048 218.857 743.203L219.5 743.456C221.945 744.371 224.052 745.396 225.852 747.338L225.096 750.565Z"/>
	<path fill="#F08535" transform="scale(0.488281 0.488281)" d="M292.505 635.842L293.255 636C294.958 643.638 294.536 652.376 294.476 660.151C294.256 688.473 291.472 717.048 286.969 745L283.209 763.684C278.076 761.934 272.127 761.046 266.788 759.88L242.38 754.68C243.396 742.332 245.663 729.917 245.206 717.507C248.586 710.575 254.304 703.775 258.66 697.358C271.607 678.287 285.484 657.908 292.505 635.842Z"/>
	<path fill="#161C7B" transform="scale(0.488281 0.488281)" d="M112.02 774.785C122.075 792.672 136.098 807.311 153.952 817.619C165.895 824.515 179.252 829.312 192.5 833.03C230.417 843.672 269.3 844.5 308.414 844.519L389.026 843.087C389.04 823.98 392.134 803.816 401.709 786.978C405.689 788.043 414.597 789.09 416.853 792.754C417.169 793.268 417.134 793.232 417.305 793.706L415.173 793.89C413.56 793.527 411.327 792.687 409.729 793.037C401.389 804.2 399.137 823.45 401.064 836.906C401.807 842.091 402.736 847.263 404.854 852.085C398.203 853.222 390.528 852.673 383.727 852.798L338.297 853.275L188.209 851.852L161.5 851.003C152.975 850.506 144.573 849.637 136.022 849.863L63.9972 850.591L63.6133 850.423C62.3963 849.683 61.7748 849.197 61.4442 847.75C61.0701 846.112 61.8147 845.171 62.75 843.972C64.571 843.119 66.8342 843.444 68.8115 843.473L80.5941 843.502L124.965 843.555C124.458 842.898 124.692 843.086 124.095 842.68C122.017 841.265 120.051 839.606 118.491 837.619C107.265 823.319 110.112 791.778 112.02 774.785Z"/>
	<path fill="#EA594F" transform="scale(0.488281 0.488281)" d="M309.704 103.46C336.56 103.251 366.725 115.774 385.917 134.489L386.491 135.057C366.276 140.034 348.082 152.665 337.332 170.608C332.412 178.819 327.689 190.189 327.42 199.9C325.682 208.34 326.25 217.526 327.215 226.031C331.252 245.296 339.024 261.89 356.032 273.063C361.854 276.887 367.853 278.981 374.679 280.189C379.25 280.997 384.308 280.606 388.819 279.618L390.789 279.179C377.854 308.629 371.137 342.191 383.404 373.129C392.641 396.424 412.637 413.929 435.563 423.463L438.764 424.674C429.96 439.995 415.919 453.293 398.5 457.979C395.256 458.851 392.011 459.325 388.662 459.558L355.997 461.976C321.236 465.083 283.87 474.599 253.74 492.696C248.78 495.675 243.09 498.957 239.145 503.263L238.223 504.449L231.882 511.749C223.078 510.002 215.236 507.725 207.127 503.852C177.947 489.917 159.053 460.947 148.666 431.231C139.986 406.396 135.349 377.104 144.784 351.937C146.932 346.206 150.469 341.454 152.996 336.003L153.403 335.098L153.447 335.024C175.43 322.492 200.233 319.609 224.955 323.7C214.431 310.049 211.572 293.955 211.832 277.149C220.61 282.986 229.64 289.529 236.319 297.782C238.743 300.777 240.649 304.179 243.009 307.239C242.09 303.388 240.06 299.696 238.426 296.089C232.372 282.721 225.878 271.656 215.496 261.173L226.251 219.032C225.967 215.901 224.295 212.664 223.43 209.624C221.419 202.553 220.177 194.901 220.026 187.555C219.569 165.32 229.675 146.738 244.757 131.097C262.526 112.67 284.282 103.947 309.704 103.46Z"/>
	<path fill="#FEFEFE" transform="scale(0.488281 0.488281)" d="M268.214 180.75L269.065 180.51C270.565 180.205 272.45 180.407 273.75 181.239C276.843 183.221 278.805 186.63 280.429 189.825C288.834 206.362 286.557 224.194 287.679 242.039C288.235 250.878 289.523 259.522 291.315 268.185C290.222 266.861 289.372 265.309 288.475 263.845L282.341 254.447C273.677 240.315 265.971 223.713 263.393 207.25C262.391 200.85 261.884 194.104 263.487 187.75C264.28 184.605 265.377 182.442 268.214 180.75Z"/>
	<path fill="#F9A733" transform="scale(0.488281 0.488281)" d="M309.704 103.46C336.56 103.251 366.725 115.774 385.917 134.489L386.491 135.057C366.276 140.034 348.082 152.665 337.332 170.608C332.412 178.819 327.689 190.189 327.42 199.9C325.682 208.34 326.25 217.526 327.215 226.031L326.376 226.244C321.865 221.707 317.156 217.192 313.421 211.977C304.191 199.093 297.84 180.272 295.575 164.641C292.451 143.075 296.485 121.116 309.704 103.46Z"/>
	<path fill="#F9A733" transform="scale(0.488281 0.488281)" d="M226.251 219.032C228.787 221.889 230.131 226.704 231.98 230.15C235.594 236.886 240.08 243.236 245.25 248.87C251.277 255.438 258.155 261.464 265.079 267.057C281.089 279.991 298.805 291.259 308.784 309.966C311.473 315.007 313.639 320.694 313.491 326.5L313.104 329.5L312.985 330.185C312.185 334.421 309.313 338.521 305.75 340.909C298.506 345.764 288.199 345.939 279.967 344.126C267.742 341.432 256.203 334.454 244.398 330.237L232.375 326.17C230.084 325.48 226.861 325.073 224.955 323.7C214.431 310.049 211.572 293.955 211.832 277.149C220.61 282.986 229.64 289.529 236.319 297.782C238.743 300.777 240.649 304.179 243.009 307.239C242.09 303.388 240.06 299.696 238.426 296.089C232.372 282.721 225.878 271.656 215.496 261.173L226.251 219.032Z"/>
	<path fill="#FDDB8B" transform="scale(0.488281 0.488281)" d="M355.997 461.976L388.662 459.558C385.632 485.531 391.683 513.313 408.115 534.102C418.254 546.929 431.913 558.175 448.75 559.988C461.057 561.314 472.592 558.055 482.132 550.139L483.938 548.506L484.147 548.538C491.754 541.096 497.329 531.344 500.447 521.193L510.838 529.352C512.072 530.232 513.559 531.588 514.915 532.154C519.784 534.965 527.141 538.662 532.75 539.465C536.129 539.949 539.684 539.178 543 538.561C552.478 536.797 561.828 533.61 570.626 529.695C574.747 527.861 578.963 526.024 582.609 523.336C592.035 532.017 602.536 542.105 609.275 553.048L657.702 638.462C682.75 687.142 710.692 738.688 717.139 793.819C718.21 802.97 719.032 812.142 717.142 821.25L715.555 829.408L661.5 810.981L642.964 804.279C639.304 802.991 635.244 801.358 631.378 800.91C627.827 800.499 623.812 801.733 620.364 802.579L619.389 800.75C616.973 796.497 614.073 790.347 610.423 787.16C607.866 784.928 603.574 783.743 600.345 782.751L579.572 777.069L552.544 769.481L541.626 768.023C538.362 763.007 534.239 758.514 530.129 754.185L460.964 798.418C457.732 798.685 453.787 798.004 450.513 797.782L425.711 795.742C423.295 795.464 418.795 795.587 417.305 793.706C417.134 793.232 417.169 793.268 416.853 792.754C414.597 789.09 405.689 788.043 401.709 786.978L283.209 763.684L286.969 745C291.472 717.048 294.256 688.473 294.476 660.151C294.536 652.376 294.958 643.638 293.255 636L292.505 635.842L293.672 628.998C293.547 615.017 290.969 600.949 287.67 587.399C281.103 560.434 270.772 533.028 252.059 512.071C247.84 507.346 244.673 504.828 238.223 504.449L239.145 503.263C243.09 498.957 248.78 495.675 253.74 492.696C283.87 474.599 321.236 465.083 355.997 461.976Z"/>
	<path fill="#E1445A" transform="scale(0.488281 0.488281)" d="M459.354 673.963L458.443 673.7C457.009 669.458 458.24 661.252 458.476 656.597C459.697 656.478 461.154 657.313 462.293 657.752L472.42 661.492C468.11 665.428 463.074 669.495 459.354 673.963Z"/>
	<path fill="#FEFEFE" transform="scale(0.488281 0.488281)" d="M472.42 661.492C472.906 661.539 473.425 661.454 473.879 661.634C474.832 662.013 476.601 663.932 477.354 664.648C480.068 667.233 483.586 670.211 485.82 673.177L486.217 673.787L475.369 683.529L470.139 687.99C467.661 685.201 465.693 681.896 463.403 678.943C462.065 677.219 460.438 675.895 459.354 673.963C463.074 669.495 468.11 665.428 472.42 661.492Z"/>
	<path fill="#161C7B" transform="scale(0.488281 0.488281)" d="M500.447 521.193L510.838 529.352C512.072 530.232 513.559 531.588 514.915 532.154C510.967 542.432 506.36 551.585 500.24 560.733C494.408 558.187 488.783 552.819 484.147 548.538C491.754 541.096 497.329 531.344 500.447 521.193Z"/>
	<path fill="#165CB6" transform="scale(0.488281 0.488281)" d="M486.217 673.787L542.282 734.594C548.241 740.689 555.239 747.256 560.306 754.081C565.925 762.266 574.516 768.696 579.572 777.069L552.544 769.481L541.626 768.023C538.362 763.007 534.239 758.514 530.129 754.185L513.226 734.947L470.139 687.99L475.369 683.529L486.217 673.787Z"/>
	<path fill="#161C7B" transform="scale(0.488281 0.488281)" d="M475.369 683.529L524.384 736.61L543.123 756.958C546.004 760.118 551.298 764.772 552.359 768.876L552.544 769.481L541.626 768.023C538.362 763.007 534.239 758.514 530.129 754.185L513.226 734.947L470.139 687.99L475.369 683.529Z"/>
	<path fill="#165CB6" transform="scale(0.488281 0.488281)" d="M355.997 461.976L388.662 459.558C385.632 485.531 391.683 513.313 408.115 534.102C418.254 546.929 431.913 558.175 448.75 559.988C461.057 561.314 472.592 558.055 482.132 550.139L483.938 548.506L484.147 548.538C488.783 552.819 494.408 558.187 500.24 560.733C493.995 569.685 487.614 577.219 478.255 582.997C464.827 591.287 447.863 594.133 432.5 590.538C408.127 584.837 388.397 568.25 374.766 547.706C363.586 530.857 354.791 509.404 353.592 489C353.051 479.787 354.189 470.984 355.997 461.976Z"/>
	<path fill="#F9A733" transform="scale(0.488281 0.488281)" d="M293.672 628.998L294.042 629.874C294.814 631.787 294.988 633.879 295.516 635.867L299.241 648.719C302.82 659.803 306.174 670.975 310.808 681.68C321.127 705.514 337.496 725.261 361.457 736.159C372.747 741.294 385.339 744.871 397.442 747.416C430.621 754.395 465.95 754.118 497.986 742.048C502.965 740.171 509.098 738.324 513.226 734.947L530.129 754.185L460.964 798.418C457.732 798.685 453.787 798.004 450.513 797.782L425.711 795.742C423.295 795.464 418.795 795.587 417.305 793.706C417.134 793.232 417.169 793.268 416.853 792.754C414.597 789.09 405.689 788.043 401.709 786.978L283.209 763.684L286.969 745C291.472 717.048 294.256 688.473 294.476 660.151C294.536 652.376 294.958 643.638 293.255 636L292.505 635.842L293.672 628.998Z"/>
	<path fill="#165CB6" transform="scale(0.488281 0.488281)" d="M609.275 553.048L657.702 638.462C682.75 687.142 710.692 738.688 717.139 793.819C718.21 802.97 719.032 812.142 717.142 821.25L715.555 829.408L661.5 810.981L642.964 804.279C639.304 802.991 635.244 801.358 631.378 800.91C627.827 800.499 623.812 801.733 620.364 802.579L619.389 800.75C616.973 796.497 614.073 790.347 610.423 787.16C607.866 784.928 603.574 783.743 600.345 782.751L579.572 777.069C574.516 768.696 565.925 762.266 560.306 754.081C555.239 747.256 548.241 740.689 542.282 734.594L562.806 696.986L577.532 661.639L589.627 628.232C597.82 603.841 604.668 578.357 609.275 553.048Z"/>
	<path fill="#161C7B" transform="scale(0.488281 0.488281)" d="M577.532 661.639C583.126 669.457 587.762 678.01 592.816 686.182L616.381 723.537C618.606 727.088 629.001 745.211 631.358 745.956C632.777 746.404 635.008 746.294 636.515 746.417L647.075 747.318C664.08 749.173 685.89 754.627 696.429 769.211C697.343 770.477 697.866 771.514 698.321 773C697.861 774.065 697.105 775.036 696 775.512C695.358 775.788 695.134 775.807 694.5 775.939C691.972 774.482 690.568 771.58 688.623 769.443C686.259 766.845 683.517 764.881 680.496 763.128C669.479 756.733 655.78 754.374 643.329 752.624C635.87 751.577 628.366 750.334 620.856 749.76L596.465 748.922C584.18 749.411 572.189 750.737 560.306 754.081C555.239 747.256 548.241 740.689 542.282 734.594L562.806 696.986L577.532 661.639Z"/>
	<path fill="#E1445A" transform="scale(0.488281 0.488281)" d="M562.806 696.986L574.863 718.784C581.357 729.276 588.811 739.259 596.465 748.922C584.18 749.411 572.189 750.737 560.306 754.081C555.239 747.256 548.241 740.689 542.282 734.594L562.806 696.986Z"/>
	<path fill="#165CB6" transform="scale(0.488281 0.488281)" d="M386.491 135.057C406.705 130.526 427.478 132.419 445.183 143.66C457.206 151.293 465.839 162.312 468.891 176.394C470.068 181.823 470.514 187.423 470.545 192.971C489.752 179.822 509.118 166.86 532.055 161.21C541.332 158.925 551.756 158.237 561.254 158.618C570.261 158.98 579.014 160.766 587.935 161.753C599.197 164.616 610.366 167.528 621.16 171.918C652.956 184.85 684.717 208.523 702.612 238.297C708.615 248.286 712.883 259.231 714.46 270.804C714.585 271.722 714.495 271.354 714.854 272.207C732.051 277.266 744.894 285.818 753.673 301.877C758.942 311.516 759.699 320.992 761.304 331.602C765.12 354.184 756.41 376.918 744.741 395.781C736.594 407.602 724.455 417.401 712.817 425.619C707.053 429.689 700.934 433.832 694.454 436.657C688.347 440.865 680.912 443.605 674.093 446.439C668.292 448.85 661.321 452.216 655.023 452.755C648.725 459.392 643.935 467.292 638.097 474.326C622.381 493.264 603.495 510.272 582.609 523.336C578.963 526.024 574.747 527.861 570.626 529.695C561.828 533.61 552.478 536.797 543 538.561C539.684 539.178 536.129 539.949 532.75 539.465C527.141 538.662 519.784 534.965 514.915 532.154C513.559 531.588 512.072 530.232 510.838 529.352L500.447 521.193C497.329 531.344 491.754 541.096 484.147 548.538L483.938 548.506L482.132 550.139C472.592 558.055 461.057 561.314 448.75 559.988C431.913 558.175 418.254 546.929 408.115 534.102C391.683 513.313 385.632 485.531 388.662 459.558C392.011 459.325 395.256 458.851 398.5 457.979C415.919 453.293 429.96 439.995 438.764 424.674L435.563 423.463C412.637 413.929 392.641 396.424 383.404 373.129C371.137 342.191 377.854 308.629 390.789 279.179L388.819 279.618C384.308 280.606 379.25 280.997 374.679 280.189C367.853 278.981 361.854 276.887 356.032 273.063C339.024 261.89 331.252 245.296 327.215 226.031C326.25 217.526 325.682 208.34 327.42 199.9C327.689 190.189 332.412 178.819 337.332 170.608C348.082 152.665 366.276 140.034 386.491 135.057Z"/>
	<path fill="#161C7B" transform="scale(0.488281 0.488281)" d="M372.007 180C373.562 188.993 375.601 197.109 380.604 204.889C386.456 213.991 395.763 220.7 406.41 222.972L407.25 223.146C412.78 224.362 418.394 224.557 424.011 223.893C426.933 223.547 432.721 221.161 435.214 221.75L433.197 222.489C429.439 224.077 425.483 225.327 421.5 226.163C415.129 227.501 408.37 227.779 401.946 226.635C392.243 224.906 382.985 219.885 377.328 211.669C371.011 202.492 370.094 190.675 372.007 180Z"/>
	<path fill="#161C7B" transform="scale(0.488281 0.488281)" d="M659.719 446.429C662.293 446.002 664.659 444.331 666.952 443.117C681.503 435.412 694.69 423.794 705.584 411.484C723.484 391.258 731.393 365.035 729.413 338.25C728.892 331.2 726.571 324.247 726.139 317.25C729.097 326.131 730.734 335.693 731.939 344.951C735.659 373.52 726.972 397.353 709.336 419.75C704.79 425.523 699.117 430.515 694.708 436.315L694.454 436.657C688.347 440.865 680.912 443.605 674.093 446.439C668.292 448.85 661.321 452.216 655.023 452.755L659.719 446.429Z"/>
	<path fill="#161C7B" transform="scale(0.488281 0.488281)" d="M327.42 199.9C329.284 206.858 330.984 213.286 334.477 219.688C340.123 230.038 350.538 238.652 360.592 244.476C366.078 247.654 372.357 250.495 378.449 252.229C376.056 250.608 373.339 249.395 371.032 247.688C363.341 241.998 359.316 231.58 357.535 222.5C355.521 212.236 356.884 204.183 360.618 194.57C360.452 205.65 361.41 214.032 369.552 222.331C378.714 231.668 392.331 236.512 405.276 236.552C422.819 236.606 439.395 228.581 453.362 218.506C459.326 214.204 464.944 209.161 471.126 205.204C480.756 199.039 490.858 196.036 502.3 195.98C510.273 195.941 517.048 197.132 524.173 200.82L524.955 201.218C535.577 206.693 545.794 216.704 553.67 225.639C558.987 231.671 564.031 238.142 570.181 243.356C576.548 248.754 584.026 252.789 591.837 255.666C603.998 260.146 617.963 261.37 630.86 260.836C632.235 260.779 644.12 259.237 644.25 259.321C644.411 259.424 644.415 259.666 644.497 259.839C623.111 266.199 596.325 265.791 576.409 254.962C551.921 241.645 538.41 212.8 510.5 205.477L509.565 205.226C494.075 201.159 476.348 210.042 463.433 217.805C455.691 222.458 448.251 227.51 441.15 233.101C437.937 235.631 433.906 238.738 431.646 242.111C436.77 239.166 441.717 235.971 447.006 233.317C454.876 229.369 463.173 226.314 471.5 223.486C481.482 220.096 493.832 216.806 504.294 219.665C512.534 221.917 518.014 228.692 523.226 234.977L536.282 250.368C555.964 271.639 581.906 285.296 610.822 287.598C624.614 288.696 639.693 287.507 652.051 280.785C662.034 275.355 669.039 268.576 674.75 258.796C675.096 260.052 673.459 262.581 672.788 263.787C661.757 283.619 639.161 295.316 618 301.021C598.927 306.163 577.204 305.786 558.545 299.391C559.941 306.137 561.441 311.164 567.537 315.158C572.75 318.572 578.998 320.568 585 322.065C601.054 326.071 617.683 326.954 633.914 323.296C638.94 322.163 643.543 320.725 648.406 319.03C628.501 334.799 601.805 341.484 576.78 338.668C559.401 336.712 543.079 330.307 528.611 320.57C522.658 316.565 516.632 311.805 512.203 306.115C509.27 302.346 507.692 298.161 505.841 293.829C506.051 297.47 506.151 301.116 507.201 304.636C510.183 314.628 518.234 323.208 525.851 329.99C548.065 349.771 578.267 360.02 607.837 358.159C636.641 356.345 665.963 345.395 685.289 323.289C688.824 319.246 691.728 315.034 694.178 310.257C695.113 308.433 696.73 303.914 698.231 302.673C703.259 342.139 708.42 389.814 682.372 423.261C679.13 427.423 675.546 431.325 671.93 435.163C669.033 438.237 666.604 441.219 662.604 442.821C666.841 435.901 671.606 429.333 675.308 422.088C688.414 396.442 693.68 365.96 693.539 337.366L693.124 337.905C689.081 343.224 686.724 349.898 682.669 355.43C668.034 375.398 644.925 384.814 621.101 388.258C602.736 390.913 584.63 389.571 566.5 385.91C552.871 383.158 539.341 379.17 528.143 370.621C521.898 365.854 516.098 359.184 512.532 352.155C511.235 349.598 510.338 346.794 508.587 344.498C507.433 355.093 504.958 364.392 496.342 371.406C492.388 374.625 485.943 377.901 480.686 377.38C479.516 377.264 478.975 377.261 478.07 376.5C481.33 368.341 485.18 362.476 486.207 353.504C486.622 349.871 486.28 346.342 485.672 342.75L485.539 341.931C484.018 333.109 477.794 323.222 470.511 318.048C464.21 313.572 456.175 312.376 448.656 313.817C439.856 315.503 432.283 321.611 427.444 328.965C421.284 338.327 419.162 349.681 421.519 360.636C423.918 371.789 430.794 383.067 440.498 389.315C443.293 391.115 446.442 392.504 449.679 393.287C447.821 404.849 444.577 414.442 438.764 424.674L435.563 423.463C412.637 413.929 392.641 396.424 383.404 373.129C371.137 342.191 377.854 308.629 390.789 279.179L388.819 279.618C384.308 280.606 379.25 280.997 374.679 280.189C367.853 278.981 361.854 276.887 356.032 273.063C339.024 261.89 331.252 245.296 327.215 226.031C326.25 217.526 325.682 208.34 327.42 199.9Z"/>
	<path fill="#EA594F" transform="scale(0.488281 0.488281)" d="M508.587 344.498L508.633 343.041L509.022 342.944C511.063 346.226 514.118 349.087 516.872 351.769C526.183 360.835 537.92 368.199 549.71 373.584C558.792 377.731 569.028 381.502 578.838 383.446C600.685 387.775 624.51 385.397 645.288 377.529C669.004 368.549 682.69 351.368 692.832 328.848L693.539 337.366L693.124 337.905C689.081 343.224 686.724 349.898 682.669 355.43C668.034 375.398 644.925 384.814 621.101 388.258C602.736 390.913 584.63 389.571 566.5 385.91C552.871 383.158 539.341 379.17 528.143 370.621C521.898 365.854 516.098 359.184 512.532 352.155C511.235 349.598 510.338 346.794 508.587 344.498Z"/>
	<path fill="#F8B071" transform="scale(0.488281 0.488281)" d="M438.764 424.674C444.577 414.442 447.821 404.849 449.679 393.287C446.442 392.504 443.293 391.115 440.498 389.315C430.794 383.067 423.918 371.789 421.519 360.636C419.162 349.681 421.284 338.327 427.444 328.965C432.283 321.611 439.856 315.503 448.656 313.817C456.175 312.376 464.21 313.572 470.511 318.048C477.794 323.222 484.018 333.109 485.539 341.931L485.672 342.75C486.28 346.342 486.622 349.871 486.207 353.504C485.18 362.476 481.33 368.341 478.07 376.5C478.975 377.261 479.516 377.264 480.686 377.38C485.943 377.901 492.388 374.625 496.342 371.406C504.958 364.392 507.433 355.093 508.587 344.498C510.338 346.794 511.235 349.598 512.532 352.155C516.098 359.184 521.898 365.854 528.143 370.621C539.341 379.17 552.871 383.158 566.5 385.91C584.63 389.571 602.736 390.913 621.101 388.258C644.925 384.814 668.034 375.398 682.669 355.43C686.724 349.898 689.081 343.224 693.124 337.905L693.539 337.366C693.68 365.96 688.414 396.442 675.308 422.088C671.606 429.333 666.841 435.901 662.604 442.821L659.719 446.429L655.023 452.755C648.725 459.392 643.935 467.292 638.097 474.326C622.381 493.264 603.495 510.272 582.609 523.336C578.963 526.024 574.747 527.861 570.626 529.695C561.828 533.61 552.478 536.797 543 538.561C539.684 539.178 536.129 539.949 532.75 539.465C527.141 538.662 519.784 534.965 514.915 532.154C513.559 531.588 512.072 530.232 510.838 529.352L500.447 521.193C497.329 531.344 491.754 541.096 484.147 548.538L483.938 548.506L482.132 550.139C472.592 558.055 461.057 561.314 448.75 559.988C431.913 558.175 418.254 546.929 408.115 534.102C391.683 513.313 385.632 485.531 388.662 459.558C392.011 459.325 395.256 458.851 398.5 457.979C415.919 453.293 429.96 439.995 438.764 424.674Z"/>
	<path fill="#EA594F" transform="scale(0.488281 0.488281)" d="M541.105 486.75L541.639 486.66C541.763 486.655 542.823 486.742 542.832 486.75C543.181 487.05 543.98 490.215 544.207 490.843C545.008 493.049 545.992 494.935 547.539 496.715C550.105 499.669 553.173 501.45 556.946 502.35C558.786 502.789 560.863 502.884 562.332 504.165L562.25 505.602L560.75 506.616C559.695 506.96 558.683 506.84 557.594 506.732C551.596 506.133 546.019 502.794 542.382 497.972C540.484 495.457 538.804 491.774 539.477 488.557C539.724 487.378 540.167 487.405 541.105 486.75Z"/>
	<path fill="#161C7B" transform="scale(0.488281 0.488281)" d="M645.274 421.125C647.423 420.988 649.635 421.057 651.75 421.511C656.13 422.45 660.055 424.948 662.45 428.75C662.339 430.972 662.194 430.915 660.75 432.441C657.932 432.514 654.74 430.013 652.174 428.643C648.798 428.024 645.08 428.03 641.75 428.995C639.884 429.535 638.027 430.544 636.12 430.873C634.99 431.069 634.914 430.902 634.049 430.25C633.299 428.794 633.423 428.175 633.658 426.625C636.898 422.921 640.641 421.949 645.274 421.125Z"/>
	<path fill="#EA594F" transform="scale(0.488281 0.488281)" d="M602.356 449.75C603.306 449.719 603.666 449.893 604.526 450.25C604.821 451.915 601.384 455.596 600.549 457.496C598.237 462.758 599.572 468.26 598.204 473.587C597.343 476.94 594.717 479.434 591.75 481.018C587.735 483.162 582.047 483.825 577.695 482.336L577 482.081C574.995 481.359 573.558 480.402 571.874 479.1C571.016 477.556 570.888 477.006 571.086 475.25L572.533 474.148C574.659 474.34 575.436 476.687 577.282 477.777C580.25 479.529 584.523 479.307 587.718 478.315C591.762 477.058 594.866 473.979 594.991 469.594C595.065 466.994 594.377 464.379 594.714 461.781C594.997 459.601 595.996 457.459 596.985 455.509C598.214 453.088 599.656 450.65 602.356 449.75Z"/>
	<path fill="#161C7B" transform="scale(0.488281 0.488281)" d="M549.228 384.75C549.646 384.619 549.79 384.557 550.28 384.506C558.914 383.616 570.336 388.218 576.861 393.728C581.9 397.982 586.685 403.988 586.97 410.844C587.057 412.93 586.435 413.82 585.103 415.25C584.02 415.861 583.479 415.864 582.25 415.765C580.244 413.917 580.125 412.157 579.337 409.642C576.487 400.544 566.317 394.06 557.5 391.616C554.492 390.782 550.916 390.781 548.179 389.321C547.443 387.844 547.574 387.52 547.75 385.933L549.228 384.75Z"/>
	<path fill="#161C7B" transform="scale(0.488281 0.488281)" d="M632.793 445.55C634.407 445.518 636.573 445.135 638.106 445.594C640.604 446.342 642.952 447.969 644.04 450.417C645.178 452.975 644.376 456.298 643.325 458.75C640.508 465.319 634.775 471.027 628.137 473.601C626.031 473.876 623.789 474.292 621.75 473.455C619.609 472.577 618.02 470.863 617.235 468.706C615.916 465.08 616.928 461.098 618.627 457.75C621.698 451.696 626.417 447.722 632.793 445.55Z"/>
	<path fill="#161C7B" transform="scale(0.488281 0.488281)" d="M553.979 411.628L554.285 411.656C556.117 411.788 557.924 411.887 559.602 412.72C561.707 413.765 563.715 416.229 564.322 418.516C565.385 422.522 564.092 427.219 562.137 430.711C559.043 436.238 553.818 439.439 547.876 441.099C545.447 441.108 543.339 441.164 541.187 439.91C538.984 438.625 537.066 436.314 536.601 433.75C535.775 429.193 537.486 424.606 539.99 420.861C543.487 415.632 547.847 412.845 553.979 411.628Z"/>
	<path fill="#EA594F" transform="scale(0.488281 0.488281)" d="M452.713 334.03C457.173 334.082 460.747 334.369 464.541 337.084C469.267 340.465 471.127 347.799 472.082 353.23C472.426 355.188 473.115 359.601 471.979 361.25C470.782 361.539 470.564 361.627 469.409 361.25C468.494 359.693 468.153 357.868 467.496 356.192C466.787 354.382 466.102 353.327 464.25 352.503C462.192 352.534 461.523 352.374 459.75 353.505C457.896 356.984 458.852 363.952 459.254 367.837L461.703 376.017C461.179 377.284 459.732 378.152 458.682 379.023C457.251 377.809 456.148 376.096 455.006 374.608C451.106 369.527 447.86 364.353 445.551 358.347C443.412 352.782 441.655 345.966 444.454 340.336C446.137 336.951 449.244 335.098 452.713 334.03Z"/>
	<path fill="#EA594F" transform="scale(0.488281 0.488281)" d="M483.938 548.506C482.981 547.504 482.117 546.47 481.354 545.311C476.061 537.267 472.144 528.096 468.718 519.132C457.286 489.217 452.348 456.704 451.229 424.807C450.883 414.952 450.555 403.915 452.524 394.25L453.381 394.25C452.979 397.627 453.138 401.104 453.216 404.5C454.06 441.24 461.96 476.252 485.292 505.519C489.834 511.216 495.188 516.176 500.447 521.193C497.329 531.344 491.754 541.096 484.147 548.538L483.938 548.506Z"/>
</svg>
